<?xml version="1.0" encoding="UTF-8" standalone="no"?>
<svg xmlns:xlink="http://www.w3.org/1999/xlink" height="75.35px" width="58.7px" xmlns="http://www.w3.org/2000/svg">
  <g transform="matrix(1.0, 0.0, 0.0, 1.0, 29.35, 37.7)">
    <path d="M-28.5 24.8 L-27.7 28.55 Q-26.45 27.9 -24.95 27.7 -26.25 28.15 -27.1 29.4 L-27.4 29.85 -26.55 32.7 -24.65 37.15 Q-22.2 33.4 -19.45 30.2 L-15.15 25.25 Q-13.35 23.3 -11.25 22.0 L-11.75 21.45 -12.35 20.0 -11.8 20.65 Q-11.15 21.4 -10.25 21.35 L-11.0 20.1 Q-11.45 19.25 -11.35 18.3 L-11.1 16.6 -11.0 17.15 -10.3 19.15 Q-9.75 20.35 -8.95 20.25 L-9.65 18.4 Q-9.9 17.45 -9.7 16.5 L-8.95 13.5 -9.0 14.05 Q-9.5 15.7 -8.95 17.4 L-7.95 20.5 -6.9 20.3 -4.35 20.55 Q-5.1 17.0 -4.95 12.7 -4.9 10.05 -4.45 7.7 -4.1 5.4 -3.15 3.95 L-2.35 2.65 Q-2.65 2.4 -3.1 2.3 -4.45 2.05 -5.75 2.65 -5.35 2.0 -4.55 1.85 L-1.6 1.25 -1.95 0.85 Q-2.4 0.45 -3.0 0.6 L-2.35 0.35 -0.8 0.3 -1.85 -0.7 Q-3.2 -1.2 -4.7 -1.3 -3.8 -1.75 -2.85 -1.8 -1.1 -1.9 0.45 -1.2 L-0.05 -1.9 Q-0.95 -2.65 -2.2 -2.9 L-0.7 -2.9 1.45 -2.55 1.25 -3.0 Q0.8 -3.85 -0.25 -4.2 L-2.8 -4.4 -0.55 -5.05 Q1.45 -5.3 2.35 -3.6 L2.75 -4.2 5.0 -6.5 6.35 -7.45 Q6.3 -5.75 7.5 -4.15 8.7 -2.55 9.05 -0.5 9.15 0.25 8.85 0.95 11.2 0.1 13.25 -1.65 15.25 -3.35 14.95 -6.2 L14.5 -9.55 Q14.35 -10.25 14.35 -10.9 L12.65 -11.15 Q11.5 -11.75 11.15 -12.5 12.65 -11.35 14.45 -12.2 L14.7 -13.0 15.15 -13.8 Q16.1 -16.25 18.25 -17.95 19.0 -18.6 18.75 -19.5 18.35 -20.05 18.25 -20.6 L18.2 -21.2 17.35 -21.35 Q16.55 -21.75 15.9 -22.65 L14.4 -24.0 14.2 -24.1 12.75 -23.9 Q9.6 -24.2 5.8 -23.05 1.7 -21.85 -2.3 -20.2 -6.35 -18.5 -9.75 -16.3 L-6.25 -16.4 -3.85 -16.45 Q-6.0 -14.05 -9.7 -11.55 L-11.65 -10.15 -16.65 -4.75 -19.25 -1.55 -21.75 1.8 Q-24.2 5.2 -25.95 8.9 L-27.65 13.2 Q-25.9 13.25 -24.7 14.55 L-26.95 14.45 Q-27.6 14.35 -28.45 16.6 -29.25 20.7 -28.5 24.8" fill="url(#gradient0)" fill-rule="evenodd" stroke="none">
      <animate attributeName="d" dur="2s" repeatCount="indefinite" values="M-28.5 24.8 L-27.7 28.55 Q-26.45 27.9 -24.95 27.7 -26.25 28.15 -27.1 29.4 L-27.4 29.85 -26.55 32.7 -24.65 37.15 Q-22.2 33.4 -19.45 30.2 L-15.15 25.25 Q-13.35 23.3 -11.25 22.0 L-11.75 21.45 -12.35 20.0 -11.8 20.65 Q-11.15 21.4 -10.25 21.35 L-11.0 20.1 Q-11.45 19.25 -11.35 18.3 L-11.1 16.6 -11.0 17.15 -10.3 19.15 Q-9.75 20.35 -8.95 20.25 L-9.65 18.4 Q-9.9 17.45 -9.7 16.5 L-8.95 13.5 -9.0 14.05 Q-9.5 15.7 -8.95 17.4 L-7.95 20.5 -6.9 20.3 -4.35 20.55 Q-5.1 17.0 -4.95 12.7 -4.9 10.05 -4.45 7.7 -4.1 5.4 -3.15 3.95 L-2.35 2.65 Q-2.65 2.4 -3.1 2.3 -4.45 2.05 -5.75 2.65 -5.35 2.0 -4.55 1.85 L-1.6 1.25 -1.95 0.85 Q-2.4 0.45 -3.0 0.6 L-2.35 0.35 -0.8 0.3 -1.85 -0.7 Q-3.2 -1.2 -4.7 -1.3 -3.8 -1.75 -2.85 -1.8 -1.1 -1.9 0.45 -1.2 L-0.05 -1.9 Q-0.95 -2.65 -2.2 -2.9 L-0.7 -2.9 1.45 -2.55 1.25 -3.0 Q0.8 -3.85 -0.25 -4.2 L-2.8 -4.4 -0.55 -5.05 Q1.45 -5.3 2.35 -3.6 L2.75 -4.2 5.0 -6.5 6.35 -7.45 Q6.3 -5.75 7.5 -4.15 8.7 -2.55 9.05 -0.5 9.15 0.25 8.85 0.95 11.2 0.1 13.25 -1.65 15.25 -3.35 14.95 -6.2 L14.5 -9.55 Q14.35 -10.25 14.35 -10.9 L12.65 -11.15 Q11.5 -11.75 11.15 -12.5 12.65 -11.35 14.45 -12.2 L14.7 -13.0 15.15 -13.8 Q16.1 -16.25 18.25 -17.95 19.0 -18.6 18.75 -19.5 18.35 -20.05 18.25 -20.6 L18.2 -21.2 17.35 -21.35 Q16.55 -21.75 15.9 -22.65 L14.4 -24.0 14.2 -24.1 12.75 -23.9 Q9.6 -24.2 5.8 -23.05 1.7 -21.85 -2.3 -20.2 -6.35 -18.5 -9.75 -16.3 L-6.25 -16.4 -3.85 -16.45 Q-6.0 -14.05 -9.7 -11.55 L-11.65 -10.15 -16.65 -4.75 -19.25 -1.55 -21.75 1.8 Q-24.2 5.2 -25.95 8.9 L-27.65 13.2 Q-25.9 13.25 -24.7 14.55 L-26.95 14.45 Q-27.6 14.35 -28.45 16.6 -29.25 20.7 -28.5 24.8;M-28.5 24.8 L-27.7 28.55 Q-26.45 27.9 -24.95 27.7 -26.25 28.15 -27.1 29.4 L-27.4 29.85 -26.55 32.7 -24.65 37.15 Q-22.2 33.4 -19.45 30.2 L-15.15 25.25 Q-13.35 23.3 -11.25 22.0 L-11.75 21.45 -12.35 20.0 -11.8 20.65 Q-11.15 21.4 -10.25 21.35 L-11.0 20.1 Q-11.45 19.25 -11.35 18.3 L-11.1 16.6 -11.0 17.15 -10.3 19.15 Q-9.75 20.35 -8.95 20.25 L-9.65 18.4 Q-9.9 17.45 -9.7 16.5 L-8.95 13.5 -9.0 14.05 Q-9.5 15.7 -8.95 17.4 L-7.95 20.5 -6.9 20.3 -4.35 20.55 Q-5.1 17.0 -4.95 12.7 -4.9 10.05 -4.45 7.7 -4.1 5.4 -3.15 3.95 L-2.35 2.65 Q-2.65 2.4 -3.1 2.3 -4.45 2.05 -5.75 2.65 -5.35 2.0 -4.55 1.85 L-1.6 1.25 -1.95 0.85 Q-2.4 0.45 -3.0 0.6 L-2.35 0.35 -0.8 0.3 -1.85 -0.7 Q-3.2 -1.2 -4.7 -1.3 -3.8 -1.75 -2.85 -1.8 -1.1 -1.9 0.45 -1.2 L-0.05 -1.9 Q-0.95 -2.65 -2.2 -2.9 L-0.7 -2.9 1.45 -2.55 1.25 -3.0 Q0.8 -3.85 -0.25 -4.2 L-2.8 -4.4 -0.55 -5.05 Q1.45 -5.3 2.35 -3.6 L2.75 -4.2 5.0 -6.5 6.35 -7.45 Q6.3 -5.75 7.5 -4.15 8.7 -2.55 9.05 -0.5 9.15 0.25 8.85 0.95 11.2 0.1 13.25 -1.65 15.25 -3.35 14.95 -6.2 L14.5 -9.55 Q14.35 -10.25 14.35 -10.9 L12.65 -11.15 Q11.5 -11.75 11.15 -12.5 12.65 -11.35 14.45 -12.2 L14.7 -13.0 15.15 -13.8 Q16.1 -16.25 18.25 -17.95 19.0 -18.6 18.75 -19.5 18.35 -20.05 18.25 -20.6 L18.2 -21.2 17.35 -21.35 Q16.55 -21.75 15.9 -22.65 L14.4 -24.0 14.2 -24.1 12.75 -23.9 Q9.6 -24.2 5.8 -23.05 1.7 -21.85 -2.3 -20.2 -6.35 -18.5 -9.75 -16.3 L-6.25 -16.4 -3.85 -16.45 Q-6.0 -14.05 -9.7 -11.55 L-11.65 -10.15 -16.65 -4.75 -19.25 -1.55 -21.75 1.8 Q-24.2 5.2 -25.95 8.9 L-27.65 13.2 Q-25.9 13.25 -24.7 14.55 L-26.95 14.45 Q-27.6 14.35 -28.45 16.6 -29.25 20.7 -28.5 24.8"/>
    </path>
    <path d="M17.7 -26.9 L17.8 -26.8 18.05 -26.6 19.35 -24.75 19.4 -24.4 19.4 -24.2 Q19.6 -24.5 20.0 -24.5 L20.2 -24.5 Q20.7 -24.6 20.65 -25.15 20.45 -25.2 20.55 -25.5 L20.4 -25.8 20.35 -26.0 19.85 -27.0 19.35 -27.85 18.0 -28.2 Q17.3 -27.9 17.7 -26.9 M16.05 -25.95 L16.35 -25.75 16.55 -25.45 16.75 -25.15 17.55 -24.15 18.45 -23.2 18.6 -23.05 18.75 -22.95 19.0 -22.9 19.2 -22.9 19.75 -23.5 Q19.45 -23.75 19.4 -24.2 L19.3 -24.8 Q18.7 -25.85 17.35 -27.1 16.0 -27.5 16.05 -25.95 M13.85 -24.6 L14.05 -24.25 14.2 -24.1 14.4 -24.0 15.9 -22.65 Q16.55 -21.75 17.35 -21.35 L18.2 -21.2 19.0 -21.3 19.15 -21.4 Q19.65 -22.25 18.75 -22.95 L18.6 -23.05 18.45 -23.2 17.55 -24.15 16.75 -25.15 16.55 -25.45 16.0 -26.0 Q15.4 -26.3 13.9 -24.95 L13.85 -24.6 M21.0 -30.8 L21.2 -30.7 21.5 -30.2 21.55 -30.0 22.75 -27.95 22.75 -27.85 22.85 -27.65 23.15 -27.7 23.45 -27.9 24.15 -29.15 23.65 -29.85 22.45 -31.6 21.2 -32.15 Q20.5 -31.85 21.0 -30.8 M19.85 -29.5 L20.35 -29.1 20.9 -28.45 21.45 -27.6 21.65 -27.2 21.75 -26.6 22.2 -26.7 Q23.0 -26.75 22.85 -27.6 L22.75 -28.0 21.5 -30.2 Q21.4 -30.55 20.25 -30.7 19.5 -30.4 19.85 -29.5 M18.7 -29.2 L18.7 -29.0 Q18.65 -28.5 18.85 -28.3 L19.35 -27.9 19.35 -27.85 19.55 -27.5 19.85 -27.0 20.35 -26.0 20.4 -25.8 20.55 -25.4 20.65 -25.15 21.05 -25.4 21.2 -25.6 Q21.7 -25.9 21.75 -26.6 L21.45 -27.6 20.9 -28.45 19.2 -29.7 Q18.65 -29.65 18.7 -29.2" fill="#333333" fill-rule="evenodd" stroke="none">
      <animate attributeName="fill" dur="2s" repeatCount="indefinite" values="#333333;#b27839"/>
      <animate attributeName="fill-opacity" dur="2s" repeatCount="indefinite" values="1.0;1.0"/>
      <animate attributeName="d" dur="2s" repeatCount="indefinite" values="M17.7 -26.9 L17.8 -26.8 18.05 -26.6 19.35 -24.75 19.4 -24.4 19.4 -24.2 Q19.6 -24.5 20.0 -24.5 L20.2 -24.5 Q20.7 -24.6 20.65 -25.15 20.45 -25.2 20.55 -25.5 L20.4 -25.8 20.35 -26.0 19.85 -27.0 19.35 -27.85 18.0 -28.2 Q17.3 -27.9 17.7 -26.9 M16.05 -25.95 L16.35 -25.75 16.55 -25.45 16.75 -25.15 17.55 -24.15 18.45 -23.2 18.6 -23.05 18.75 -22.95 19.0 -22.9 19.2 -22.9 19.75 -23.5 Q19.45 -23.75 19.4 -24.2 L19.3 -24.8 Q18.7 -25.85 17.35 -27.1 16.0 -27.5 16.05 -25.95 M13.85 -24.6 L14.05 -24.25 14.2 -24.1 14.4 -24.0 15.9 -22.65 Q16.55 -21.75 17.35 -21.35 L18.2 -21.2 19.0 -21.3 19.15 -21.4 Q19.65 -22.25 18.75 -22.95 L18.6 -23.05 18.45 -23.2 17.55 -24.15 16.75 -25.15 16.55 -25.45 16.0 -26.0 Q15.4 -26.3 13.9 -24.95 L13.85 -24.6 M21.0 -30.8 L21.2 -30.7 21.5 -30.2 21.55 -30.0 22.75 -27.95 22.75 -27.85 22.85 -27.65 23.15 -27.7 23.45 -27.9 24.15 -29.15 23.65 -29.85 22.45 -31.6 21.2 -32.15 Q20.5 -31.85 21.0 -30.8 M19.85 -29.5 L20.35 -29.1 20.9 -28.45 21.45 -27.6 21.65 -27.2 21.75 -26.6 22.2 -26.7 Q23.0 -26.75 22.85 -27.6 L22.75 -28.0 21.5 -30.2 Q21.4 -30.55 20.25 -30.7 19.5 -30.4 19.85 -29.5 M18.7 -29.2 L18.7 -29.0 Q18.65 -28.5 18.85 -28.3 L19.35 -27.9 19.35 -27.85 19.55 -27.5 19.85 -27.0 20.35 -26.0 20.4 -25.8 20.55 -25.4 20.65 -25.15 21.05 -25.4 21.2 -25.6 Q21.7 -25.9 21.75 -26.6 L21.45 -27.6 20.9 -28.45 19.2 -29.7 Q18.65 -29.65 18.7 -29.2;M17.7 -26.9 L17.8 -26.8 18.05 -26.6 19.35 -24.75 19.4 -24.4 19.4 -24.2 Q19.6 -24.5 20.0 -24.5 L20.2 -24.5 Q20.7 -24.6 20.65 -25.15 20.45 -25.2 20.55 -25.5 L20.4 -25.8 20.35 -26.0 19.85 -27.0 19.35 -27.85 18.0 -28.2 Q17.3 -27.9 17.7 -26.9 M16.05 -25.95 L16.35 -25.75 16.55 -25.45 16.75 -25.15 17.55 -24.15 18.45 -23.2 18.6 -23.05 18.75 -22.95 19.0 -22.9 19.2 -22.9 19.75 -23.5 Q19.45 -23.75 19.4 -24.2 L19.3 -24.8 Q18.7 -25.85 17.35 -27.1 16.0 -27.5 16.05 -25.95 M13.85 -24.6 L14.05 -24.25 14.2 -24.1 14.4 -24.0 15.9 -22.65 Q16.55 -21.75 17.35 -21.35 L18.2 -21.2 19.0 -21.3 19.15 -21.4 Q19.65 -22.25 18.75 -22.95 L18.6 -23.05 18.45 -23.2 17.55 -24.15 16.75 -25.15 16.55 -25.45 16.0 -26.0 Q15.4 -26.3 13.9 -24.95 L13.85 -24.6 M21.0 -30.8 L21.2 -30.7 21.5 -30.2 21.55 -30.0 22.75 -27.95 22.75 -27.85 22.85 -27.65 23.15 -27.7 23.45 -27.9 24.15 -29.15 23.65 -29.85 22.45 -31.6 21.2 -32.15 Q20.5 -31.85 21.0 -30.8 M19.85 -29.5 L20.35 -29.1 20.9 -28.45 21.45 -27.6 21.65 -27.2 21.75 -26.6 22.2 -26.7 Q23.0 -26.75 22.85 -27.6 L22.75 -28.0 21.5 -30.2 Q21.4 -30.55 20.25 -30.7 19.5 -30.4 19.85 -29.5 M18.7 -29.2 L18.7 -29.0 Q18.65 -28.5 18.85 -28.3 L19.35 -27.9 19.35 -27.85 19.55 -27.5 19.85 -27.0 20.35 -26.0 20.4 -25.8 20.55 -25.4 20.65 -25.15 21.05 -25.4 21.2 -25.6 Q21.7 -25.9 21.75 -26.6 L21.45 -27.6 20.9 -28.45 19.2 -29.7 Q18.65 -29.65 18.7 -29.2"/>
    </path>
    <path d="M18.25 -20.6 Q18.35 -20.05 18.45 -20.25 L18.25 -20.6" fill="url(#gradient1)" fill-rule="evenodd" stroke="none">
      <animate attributeName="d" dur="2s" repeatCount="indefinite" values="M18.25 -20.6 Q18.35 -20.05 18.45 -20.25 L18.25 -20.6;M18.25 -20.6 Q18.35 -20.05 18.45 -20.25 L18.25 -20.6"/>
    </path>
    <path d="M21.75 -32.35 L21.8 -32.35 Q22.25 -32.45 22.3 -32.0 L22.45 -31.6 23.65 -29.85 24.15 -29.15 24.15 -28.85 27.0 -29.35 Q30.6 -29.4 27.15 -34.1 23.3 -33.35 24.2 -37.2 22.15 -36.1 21.9 -33.45 L21.75 -32.35" fill="url(#gradient2)" fill-rule="evenodd" stroke="none">
      <animate attributeName="d" dur="2s" repeatCount="indefinite" values="M21.75 -32.35 L21.8 -32.35 Q22.25 -32.45 22.3 -32.0 L22.45 -31.6 23.65 -29.85 24.15 -29.15 24.15 -28.85 27.0 -29.35 Q30.6 -29.4 27.15 -34.1 23.3 -33.35 24.2 -37.2 22.15 -36.1 21.9 -33.45 L21.75 -32.35;M21.75 -32.35 L21.8 -32.35 Q22.25 -32.45 22.3 -32.0 L22.45 -31.6 23.65 -29.85 24.15 -29.15 24.15 -28.85 27.0 -29.35 Q30.6 -29.4 27.15 -34.1 23.3 -33.35 24.2 -37.2 22.15 -36.1 21.9 -33.45 L21.75 -32.35"/>
    </path>
    <path d="M-28.5 24.8 Q-29.25 20.7 -28.45 16.6 -27.6 14.35 -26.95 14.45 L-24.7 14.55 Q-25.9 13.25 -27.65 13.2 L-25.95 8.9 Q-24.2 5.2 -21.75 1.8 L-19.25 -1.55 -16.65 -4.75 -11.65 -10.15 -9.7 -11.55 Q-6.0 -14.05 -3.85 -16.45 L-6.25 -16.4 -9.75 -16.3 Q-6.35 -18.5 -2.3 -20.2 1.7 -21.85 5.8 -23.05 9.6 -24.2 12.75 -23.9 L14.2 -24.1 14.05 -24.25 13.85 -24.6 13.9 -24.95 14.65 -25.8 14.95 -26.05 16.0 -26.0 Q16.0 -27.5 17.35 -27.1 L17.7 -26.9 Q17.3 -27.9 18.0 -28.2 L18.4 -28.3 18.85 -28.3 Q18.65 -28.5 18.7 -29.0 L18.7 -29.2 Q18.65 -29.65 19.2 -29.7 L19.4 -29.7 19.6 -29.65 19.85 -29.5 Q19.5 -30.4 20.25 -30.7 L20.6 -30.8 21.0 -30.8 Q20.5 -31.85 21.2 -32.15 L21.75 -32.35 21.9 -33.45 Q22.15 -36.1 24.2 -37.2 23.3 -33.35 27.15 -34.1 30.6 -29.4 27.0 -29.35 25.5 -29.35 24.05 -28.7 L23.45 -27.9 23.15 -27.7 22.85 -27.65 Q23.0 -26.75 22.2 -26.7 L22.0 -26.65 21.75 -26.6 Q21.7 -25.9 21.2 -25.6 L21.05 -25.4 20.65 -25.15 Q20.7 -24.6 20.2 -24.5 L20.0 -24.5 Q19.6 -24.5 19.4 -24.2 19.45 -23.75 19.75 -23.5 L19.75 -23.25 Q19.6 -23.0 19.2 -22.9 L19.0 -22.9 18.75 -22.95 Q19.65 -22.25 19.15 -21.4 L19.0 -21.3 18.2 -21.2 18.25 -20.6 18.45 -20.25 18.75 -19.5 Q19.0 -18.6 18.25 -17.95 16.1 -16.25 15.15 -13.8 L14.7 -13.0 14.45 -12.2 Q12.65 -11.35 11.15 -12.5 11.5 -11.75 12.65 -11.15 L14.35 -10.9 Q14.35 -10.25 14.5 -9.55 L14.95 -6.2 Q15.25 -3.35 13.25 -1.65 11.2 0.1 8.85 0.95 9.15 0.25 9.05 -0.5 8.7 -2.55 7.5 -4.15 6.3 -5.75 6.35 -7.45 L5.0 -6.5 2.75 -4.2 2.35 -3.6 Q1.45 -5.3 -0.55 -5.05 L-2.8 -4.4 -0.25 -4.2 Q0.8 -3.85 1.25 -3.0 L1.45 -2.55 -0.7 -2.9 -2.2 -2.9 Q-0.95 -2.65 -0.05 -1.9 L0.45 -1.2 Q-1.1 -1.9 -2.85 -1.8 -3.8 -1.75 -4.7 -1.3 -3.2 -1.2 -1.85 -0.7 L-0.8 0.3 -0.85 0.4 -2.35 0.35 -3.0 0.6 Q-2.4 0.45 -1.95 0.85 L-1.6 1.25 -4.55 1.85 Q-5.35 2.0 -5.75 2.65 -4.45 2.05 -3.1 2.3 -2.65 2.4 -2.35 2.65 L-3.15 3.95 Q-4.1 5.4 -4.45 7.7 -4.9 10.05 -4.95 12.7 -5.1 17.0 -4.35 20.55 L-6.9 20.3 -7.95 20.5 -8.95 17.4 Q-9.5 15.7 -9.0 14.05 L-8.95 13.5 -9.7 16.5 Q-9.9 17.45 -9.65 18.4 L-8.95 20.25 Q-9.75 20.35 -10.3 19.15 L-11.0 17.15 -11.1 16.6 -11.35 18.3 Q-11.45 19.25 -11.0 20.1 L-10.25 21.35 Q-11.15 21.4 -11.8 20.65 L-12.35 20.0 -11.75 21.45 -11.25 22.0 Q-13.35 23.3 -15.15 25.25 L-19.45 30.2 Q-22.2 33.4 -24.65 37.15 L-26.55 32.7 -27.4 29.85 -27.1 29.4 Q-26.25 28.15 -24.95 27.7 -26.45 27.9 -27.7 28.55 L-28.5 24.8 Q-29.25 20.7 -28.45 16.6 -27.6 14.35 -26.95 14.45 L-24.7 14.55 Q-25.9 13.25 -27.65 13.2 L-25.95 8.9 Q-24.2 5.2 -21.75 1.8 L-19.25 -1.55 -16.65 -4.75 -11.65 -10.15 -9.7 -11.55 Q-6.0 -14.05 -3.85 -16.45 L-6.25 -16.4 -9.75 -16.3 Q-6.35 -18.5 -2.3 -20.2 1.7 -21.85 5.8 -23.05 9.6 -24.2 12.75 -23.9 L14.2 -24.1 14.4 -24.0 15.9 -22.65 Q16.55 -21.75 17.35 -21.35 L18.2 -21.2 18.25 -20.6 Q18.35 -20.05 18.75 -19.5 19.0 -18.6 18.25 -17.95 16.1 -16.25 15.15 -13.8 L14.7 -13.0 14.45 -12.2 Q12.65 -11.35 11.15 -12.5 11.5 -11.75 12.65 -11.15 L14.35 -10.9 Q14.35 -10.25 14.5 -9.55 L14.95 -6.2 Q15.25 -3.35 13.25 -1.65 11.2 0.1 8.85 0.95 9.15 0.25 9.05 -0.5 8.7 -2.55 7.5 -4.15 6.3 -5.75 6.35 -7.45 L5.0 -6.5 2.75 -4.2 2.35 -3.6 Q1.45 -5.3 -0.55 -5.05 L-2.8 -4.4 -0.25 -4.2 Q0.8 -3.85 1.25 -3.0 L1.45 -2.55 -0.7 -2.9 -2.2 -2.9 Q-0.95 -2.65 -0.05 -1.9 L0.45 -1.2 Q-1.1 -1.9 -2.85 -1.8 -3.8 -1.75 -4.7 -1.3 -3.2 -1.2 -1.85 -0.7 L-0.8 0.3 -2.35 0.35 -3.0 0.6 Q-2.4 0.45 -1.95 0.85 L-1.6 1.25 -4.55 1.85 Q-5.35 2.0 -5.75 2.65 -4.45 2.05 -3.1 2.3 -2.65 2.4 -2.35 2.65 L-3.15 3.95 Q-4.1 5.4 -4.45 7.7 -4.9 10.05 -4.95 12.7 -5.1 17.0 -4.35 20.55 L-6.9 20.3 -7.95 20.5 -8.95 17.4 Q-9.5 15.7 -9.0 14.05 L-8.95 13.5 -9.7 16.5 Q-9.9 17.45 -9.65 18.4 L-8.95 20.25 Q-9.75 20.35 -10.3 19.15 L-11.0 17.15 -11.1 16.6 -11.35 18.3 Q-11.45 19.25 -11.0 20.1 L-10.25 21.35 Q-11.15 21.4 -11.8 20.65 L-12.35 20.0 -11.75 21.45 -11.25 22.0 Q-13.35 23.3 -15.15 25.25 L-19.45 30.2 Q-22.2 33.4 -24.65 37.15 L-26.55 32.7 -27.4 29.85 -27.1 29.4 Q-26.25 28.15 -24.95 27.7 -26.45 27.9 -27.7 28.55 L-28.5 24.8 M18.25 -20.6 L18.45 -20.25 Q18.35 -20.05 18.25 -20.6" fill="none" stroke="#666666" stroke-linecap="round" stroke-linejoin="round" stroke-width="1.0">
      <animate attributeName="stroke" dur="2s" repeatCount="indefinite" values="#666666;#000001"/>
      <animate attributeName="stroke-width" dur="2s" repeatCount="indefinite" values="1.0;1.0"/>
      <animate attributeName="fill-opacity" dur="2s" repeatCount="indefinite" values="1.0;1.0"/>
      <animate attributeName="d" dur="2s" repeatCount="indefinite" values="M-28.5 24.8 Q-29.25 20.7 -28.45 16.6 -27.6 14.35 -26.95 14.45 L-24.7 14.55 Q-25.9 13.25 -27.65 13.2 L-25.95 8.9 Q-24.2 5.2 -21.75 1.8 L-19.25 -1.55 -16.65 -4.75 -11.65 -10.15 -9.7 -11.55 Q-6.0 -14.05 -3.85 -16.45 L-6.25 -16.4 -9.75 -16.3 Q-6.35 -18.5 -2.3 -20.2 1.7 -21.85 5.8 -23.05 9.6 -24.2 12.75 -23.9 L14.2 -24.1 14.05 -24.25 13.85 -24.6 13.9 -24.95 14.65 -25.8 14.95 -26.05 16.0 -26.0 Q16.0 -27.5 17.35 -27.1 L17.7 -26.9 Q17.3 -27.9 18.0 -28.2 L18.4 -28.3 18.85 -28.3 Q18.65 -28.5 18.7 -29.0 L18.7 -29.2 Q18.65 -29.65 19.2 -29.7 L19.4 -29.7 19.6 -29.65 19.85 -29.5 Q19.5 -30.4 20.25 -30.7 L20.6 -30.8 21.0 -30.8 Q20.5 -31.85 21.2 -32.15 L21.75 -32.35 21.9 -33.45 Q22.15 -36.1 24.2 -37.2 23.3 -33.35 27.15 -34.1 30.6 -29.4 27.0 -29.35 25.5 -29.35 24.05 -28.7 L23.45 -27.9 23.15 -27.7 22.85 -27.65 Q23.0 -26.75 22.2 -26.7 L22.0 -26.65 21.75 -26.6 Q21.7 -25.9 21.2 -25.6 L21.05 -25.4 20.65 -25.15 Q20.7 -24.6 20.2 -24.5 L20.0 -24.5 Q19.6 -24.5 19.4 -24.2 19.45 -23.75 19.75 -23.5 L19.75 -23.25 Q19.6 -23.0 19.2 -22.9 L19.0 -22.9 18.75 -22.95 Q19.65 -22.25 19.15 -21.4 L19.0 -21.3 18.2 -21.2 18.25 -20.6 18.45 -20.25 18.75 -19.5 Q19.0 -18.6 18.25 -17.95 16.1 -16.25 15.15 -13.8 L14.7 -13.0 14.45 -12.2 Q12.65 -11.35 11.15 -12.5 11.5 -11.75 12.65 -11.15 L14.35 -10.9 Q14.35 -10.25 14.5 -9.55 L14.95 -6.2 Q15.25 -3.35 13.25 -1.65 11.2 0.1 8.85 0.95 9.15 0.25 9.05 -0.5 8.7 -2.55 7.5 -4.15 6.3 -5.75 6.35 -7.45 L5.0 -6.5 2.75 -4.2 2.35 -3.6 Q1.45 -5.3 -0.55 -5.05 L-2.8 -4.4 -0.25 -4.2 Q0.8 -3.85 1.25 -3.0 L1.45 -2.55 -0.7 -2.9 -2.2 -2.9 Q-0.95 -2.65 -0.05 -1.9 L0.45 -1.2 Q-1.1 -1.9 -2.85 -1.8 -3.8 -1.75 -4.7 -1.3 -3.2 -1.2 -1.85 -0.7 L-0.8 0.3 -0.85 0.4 -2.35 0.35 -3.0 0.6 Q-2.4 0.45 -1.95 0.85 L-1.6 1.25 -4.55 1.85 Q-5.35 2.0 -5.75 2.65 -4.45 2.05 -3.1 2.3 -2.65 2.4 -2.35 2.65 L-3.15 3.95 Q-4.1 5.4 -4.45 7.7 -4.9 10.05 -4.95 12.7 -5.1 17.0 -4.35 20.55 L-6.9 20.3 -7.95 20.5 -8.95 17.4 Q-9.5 15.7 -9.0 14.05 L-8.95 13.5 -9.7 16.5 Q-9.9 17.45 -9.65 18.4 L-8.95 20.25 Q-9.75 20.35 -10.3 19.15 L-11.0 17.15 -11.1 16.6 -11.35 18.3 Q-11.45 19.25 -11.0 20.1 L-10.25 21.35 Q-11.15 21.4 -11.8 20.65 L-12.35 20.0 -11.75 21.45 -11.25 22.0 Q-13.35 23.3 -15.15 25.25 L-19.45 30.2 Q-22.2 33.4 -24.65 37.15 L-26.55 32.7 -27.4 29.85 -27.1 29.4 Q-26.25 28.15 -24.95 27.7 -26.45 27.9 -27.7 28.55 L-28.5 24.8 Q-29.25 20.7 -28.45 16.6 -27.6 14.35 -26.95 14.45 L-24.7 14.55 Q-25.9 13.25 -27.65 13.2 L-25.95 8.9 Q-24.2 5.2 -21.75 1.8 L-19.25 -1.55 -16.65 -4.75 -11.65 -10.15 -9.7 -11.55 Q-6.0 -14.05 -3.85 -16.45 L-6.25 -16.4 -9.75 -16.3 Q-6.35 -18.5 -2.3 -20.2 1.7 -21.85 5.8 -23.05 9.6 -24.2 12.75 -23.9 L14.2 -24.1 14.4 -24.0 15.9 -22.65 Q16.55 -21.75 17.35 -21.35 L18.2 -21.2 18.25 -20.6 Q18.35 -20.05 18.75 -19.5 19.0 -18.6 18.25 -17.95 16.1 -16.25 15.15 -13.8 L14.7 -13.0 14.45 -12.2 Q12.65 -11.35 11.15 -12.5 11.5 -11.75 12.65 -11.15 L14.35 -10.9 Q14.35 -10.25 14.5 -9.55 L14.95 -6.2 Q15.25 -3.35 13.25 -1.65 11.2 0.1 8.85 0.95 9.15 0.25 9.05 -0.5 8.7 -2.55 7.5 -4.15 6.3 -5.75 6.35 -7.45 L5.0 -6.5 2.75 -4.2 2.35 -3.6 Q1.45 -5.3 -0.55 -5.05 L-2.8 -4.4 -0.25 -4.2 Q0.8 -3.85 1.25 -3.0 L1.45 -2.55 -0.7 -2.9 -2.2 -2.9 Q-0.95 -2.65 -0.05 -1.9 L0.45 -1.2 Q-1.1 -1.9 -2.85 -1.8 -3.8 -1.75 -4.7 -1.3 -3.2 -1.2 -1.85 -0.7 L-0.8 0.3 -2.35 0.35 -3.0 0.6 Q-2.4 0.45 -1.95 0.85 L-1.6 1.25 -4.55 1.85 Q-5.35 2.0 -5.75 2.65 -4.45 2.05 -3.1 2.3 -2.65 2.4 -2.35 2.65 L-3.15 3.95 Q-4.1 5.4 -4.45 7.7 -4.9 10.05 -4.95 12.7 -5.1 17.0 -4.35 20.55 L-6.9 20.3 -7.95 20.5 -8.95 17.4 Q-9.5 15.7 -9.0 14.05 L-8.95 13.5 -9.7 16.5 Q-9.9 17.45 -9.65 18.4 L-8.95 20.25 Q-9.75 20.35 -10.3 19.15 L-11.0 17.15 -11.1 16.6 -11.35 18.3 Q-11.45 19.25 -11.0 20.1 L-10.25 21.35 Q-11.15 21.4 -11.8 20.65 L-12.35 20.0 -11.75 21.45 -11.25 22.0 Q-13.35 23.3 -15.15 25.25 L-19.45 30.2 Q-22.2 33.4 -24.65 37.15 L-26.55 32.7 -27.4 29.85 -27.1 29.4 Q-26.25 28.15 -24.95 27.7 -26.45 27.9 -27.7 28.55 L-28.5 24.8 M18.25 -20.6 L18.45 -20.25 Q18.35 -20.05 18.25 -20.6;M-28.5 24.8 Q-29.25 20.7 -28.45 16.6 -27.6 14.35 -26.95 14.45 L-24.7 14.55 Q-25.9 13.25 -27.65 13.2 L-25.95 8.9 Q-24.2 5.2 -21.75 1.8 L-19.25 -1.55 -16.65 -4.75 -11.65 -10.15 -9.7 -11.55 Q-6.0 -14.05 -3.85 -16.45 L-6.25 -16.4 -9.75 -16.3 Q-6.35 -18.5 -2.3 -20.2 1.7 -21.85 5.8 -23.05 9.6 -24.2 12.75 -23.9 L14.2 -24.1 14.05 -24.25 13.85 -24.6 13.9 -24.95 14.65 -25.8 14.95 -26.05 16.0 -26.0 Q16.0 -27.5 17.35 -27.1 L17.7 -26.9 Q17.3 -27.9 18.0 -28.2 L18.4 -28.3 18.85 -28.3 Q18.65 -28.5 18.7 -29.0 L18.7 -29.2 Q18.65 -29.65 19.2 -29.7 L19.4 -29.7 19.6 -29.65 19.85 -29.5 Q19.5 -30.4 20.25 -30.7 L20.6 -30.8 21.0 -30.8 Q20.5 -31.85 21.2 -32.15 L21.75 -32.35 21.9 -33.45 Q22.15 -36.1 24.2 -37.2 23.3 -33.35 27.15 -34.1 30.6 -29.4 27.0 -29.35 25.5 -29.35 24.05 -28.7 L23.45 -27.9 23.15 -27.7 22.85 -27.65 Q23.0 -26.75 22.2 -26.7 L22.0 -26.65 21.75 -26.6 Q21.7 -25.9 21.2 -25.6 L21.05 -25.4 20.65 -25.15 Q20.7 -24.6 20.2 -24.5 L20.0 -24.5 Q19.6 -24.5 19.4 -24.2 19.45 -23.75 19.75 -23.5 L19.75 -23.25 Q19.6 -23.0 19.2 -22.9 L19.0 -22.9 18.75 -22.95 Q19.65 -22.25 19.15 -21.4 L19.0 -21.3 18.2 -21.2 18.25 -20.6 18.45 -20.25 18.75 -19.5 Q19.0 -18.6 18.25 -17.95 16.1 -16.25 15.15 -13.8 L14.7 -13.0 14.45 -12.2 Q12.65 -11.35 11.15 -12.5 11.5 -11.75 12.65 -11.15 L14.35 -10.9 Q14.35 -10.25 14.5 -9.55 L14.95 -6.2 Q15.25 -3.35 13.25 -1.65 11.2 0.1 8.85 0.95 9.15 0.25 9.05 -0.5 8.7 -2.55 7.5 -4.15 6.3 -5.75 6.35 -7.45 L5.0 -6.5 2.75 -4.2 2.35 -3.6 Q1.45 -5.3 -0.55 -5.05 L-2.8 -4.4 -0.25 -4.2 Q0.8 -3.85 1.25 -3.0 L1.45 -2.55 -0.7 -2.9 -2.2 -2.9 Q-0.95 -2.65 -0.05 -1.9 L0.45 -1.2 Q-1.1 -1.9 -2.85 -1.8 -3.8 -1.75 -4.7 -1.3 -3.2 -1.2 -1.85 -0.7 L-0.8 0.3 -0.85 0.4 -2.35 0.35 -3.0 0.6 Q-2.4 0.45 -1.95 0.85 L-1.6 1.25 -4.55 1.85 Q-5.35 2.0 -5.75 2.65 -4.45 2.05 -3.1 2.3 -2.65 2.4 -2.35 2.65 L-3.15 3.95 Q-4.1 5.4 -4.45 7.7 -4.9 10.05 -4.95 12.7 -5.1 17.0 -4.35 20.55 L-6.9 20.3 -7.95 20.5 -8.95 17.4 Q-9.5 15.7 -9.0 14.05 L-8.95 13.5 -9.7 16.5 Q-9.9 17.45 -9.65 18.4 L-8.95 20.25 Q-9.75 20.35 -10.3 19.15 L-11.0 17.15 -11.1 16.6 -11.35 18.3 Q-11.45 19.25 -11.0 20.1 L-10.25 21.35 Q-11.15 21.4 -11.8 20.65 L-12.35 20.0 -11.75 21.45 -11.25 22.0 Q-13.35 23.3 -15.15 25.25 L-19.45 30.2 Q-22.2 33.4 -24.65 37.15 L-26.55 32.7 -27.4 29.85 -27.1 29.4 Q-26.25 28.15 -24.95 27.7 -26.45 27.9 -27.7 28.55 L-28.5 24.8 Q-29.25 20.7 -28.45 16.6 -27.6 14.35 -26.95 14.45 L-24.7 14.55 Q-25.9 13.25 -27.65 13.2 L-25.95 8.9 Q-24.2 5.2 -21.75 1.8 L-19.25 -1.55 -16.65 -4.75 -11.65 -10.15 -9.7 -11.55 Q-6.0 -14.05 -3.85 -16.45 L-6.25 -16.4 -9.75 -16.3 Q-6.35 -18.5 -2.3 -20.2 1.7 -21.85 5.8 -23.05 9.6 -24.2 12.75 -23.9 L14.2 -24.1 14.4 -24.0 15.9 -22.65 Q16.55 -21.75 17.35 -21.35 L18.2 -21.2 18.25 -20.6 Q18.35 -20.05 18.75 -19.5 19.0 -18.6 18.25 -17.95 16.1 -16.25 15.15 -13.8 L14.7 -13.0 14.45 -12.2 Q12.65 -11.35 11.15 -12.5 11.5 -11.75 12.65 -11.15 L14.35 -10.9 Q14.35 -10.25 14.5 -9.55 L14.95 -6.2 Q15.25 -3.35 13.25 -1.65 11.2 0.1 8.85 0.95 9.15 0.25 9.05 -0.5 8.7 -2.55 7.5 -4.15 6.3 -5.75 6.35 -7.45 L5.0 -6.5 2.75 -4.2 2.35 -3.6 Q1.45 -5.3 -0.55 -5.05 L-2.8 -4.4 -0.25 -4.2 Q0.8 -3.85 1.25 -3.0 L1.45 -2.55 -0.7 -2.9 -2.2 -2.9 Q-0.95 -2.65 -0.05 -1.9 L0.45 -1.2 Q-1.1 -1.9 -2.85 -1.8 -3.8 -1.75 -4.7 -1.3 -3.2 -1.2 -1.85 -0.7 L-0.8 0.3 -2.35 0.35 -3.0 0.6 Q-2.4 0.45 -1.95 0.85 L-1.6 1.25 -4.55 1.85 Q-5.35 2.0 -5.75 2.65 -4.45 2.05 -3.1 2.3 -2.65 2.4 -2.35 2.65 L-3.15 3.95 Q-4.1 5.4 -4.45 7.7 -4.9 10.05 -4.95 12.7 -5.1 17.0 -4.35 20.55 L-6.9 20.3 -7.95 20.5 -8.95 17.4 Q-9.5 15.7 -9.0 14.05 L-8.95 13.5 -9.7 16.5 Q-9.9 17.45 -9.65 18.4 L-8.95 20.25 Q-9.75 20.35 -10.3 19.15 L-11.0 17.15 -11.1 16.6 -11.35 18.3 Q-11.45 19.25 -11.0 20.1 L-10.25 21.35 Q-11.15 21.4 -11.8 20.65 L-12.35 20.0 -11.75 21.45 -11.25 22.0 Q-13.35 23.3 -15.15 25.25 L-19.45 30.2 Q-22.2 33.4 -24.65 37.15 L-26.55 32.7 -27.4 29.85 -27.1 29.4 Q-26.25 28.15 -24.95 27.7 -26.45 27.9 -27.7 28.55 L-28.5 24.8 M18.25 -20.6 L18.45 -20.25 Q18.35 -20.05 18.25 -20.6"/>
    </path>
    <path d="M13.85 -24.6 L13.9 -24.95 Q15.4 -26.3 16.0 -26.0 L16.55 -25.45 16.75 -25.15 17.55 -24.15 18.45 -23.2 18.6 -23.05 18.75 -22.95 Q19.65 -22.25 19.15 -21.4 L19.0 -21.3 18.2 -21.2 17.35 -21.35 Q16.55 -21.75 15.9 -22.65 L14.4 -24.0 14.2 -24.1 14.05 -24.25 13.85 -24.6 M16.05 -25.95 Q16.0 -27.5 17.35 -27.1 18.7 -25.85 19.3 -24.8 L19.4 -24.2 Q19.45 -23.75 19.75 -23.5 L19.2 -22.9 19.0 -22.9 18.75 -22.95 18.6 -23.05 18.45 -23.2 17.55 -24.15 16.75 -25.15 16.55 -25.45 16.35 -25.75 16.05 -25.95 M17.7 -26.9 Q17.3 -27.9 18.0 -28.2 L19.35 -27.85 19.85 -27.0 20.35 -26.0 20.4 -25.8 20.55 -25.5 Q20.45 -25.2 20.65 -25.15 20.7 -24.6 20.2 -24.5 L20.0 -24.5 Q19.6 -24.5 19.4 -24.2 L19.4 -24.4 19.35 -24.75 18.05 -26.6 17.8 -26.8 17.7 -26.9 M18.7 -29.2 Q18.65 -29.65 19.2 -29.7 L20.9 -28.45 21.45 -27.6 21.75 -26.6 Q21.7 -25.9 21.2 -25.6 L21.05 -25.4 20.65 -25.15 20.55 -25.4 20.4 -25.8 20.35 -26.0 19.85 -27.0 19.55 -27.5 19.35 -27.85 19.35 -27.9 18.85 -28.3 Q18.65 -28.5 18.7 -29.0 L18.7 -29.2 M19.85 -29.5 Q19.5 -30.4 20.25 -30.7 21.4 -30.55 21.5 -30.2 L22.75 -28.0 22.85 -27.6 Q23.0 -26.75 22.2 -26.7 L21.75 -26.6 21.65 -27.2 21.45 -27.6 20.9 -28.45 20.35 -29.1 19.85 -29.5 M21.0 -30.8 Q20.5 -31.85 21.2 -32.15 L22.45 -31.6 23.65 -29.85 24.15 -29.15 23.45 -27.9 23.15 -27.7 22.85 -27.65 22.75 -27.85 22.75 -27.95 21.55 -30.0 21.5 -30.2 21.2 -30.7 21.0 -30.8 M21.75 -32.35 L21.9 -33.45 Q22.15 -36.1 24.2 -37.2 23.3 -33.35 27.15 -34.1 30.6 -29.4 27.0 -29.35 L24.15 -28.85 24.15 -29.15 23.65 -29.85 22.45 -31.6 22.3 -32.0 Q22.25 -32.45 21.8 -32.35 L21.75 -32.35" fill="none" stroke="#666666" stroke-linecap="round" stroke-linejoin="round" stroke-width="0.75">
      <animate attributeName="stroke" dur="2s" repeatCount="indefinite" values="#666666;#000001"/>
      <animate attributeName="stroke-width" dur="2s" repeatCount="indefinite" values="0.75;0.75"/>
      <animate attributeName="fill-opacity" dur="2s" repeatCount="indefinite" values="1.0;1.0"/>
      <animate attributeName="d" dur="2s" repeatCount="indefinite" values="M13.85 -24.6 L13.9 -24.95 Q15.4 -26.3 16.0 -26.0 L16.55 -25.45 16.75 -25.15 17.55 -24.15 18.45 -23.2 18.6 -23.05 18.75 -22.95 Q19.65 -22.25 19.15 -21.4 L19.0 -21.3 18.2 -21.2 17.35 -21.35 Q16.55 -21.75 15.9 -22.65 L14.4 -24.0 14.2 -24.1 14.05 -24.25 13.85 -24.6 M16.05 -25.95 Q16.0 -27.5 17.35 -27.1 18.7 -25.85 19.3 -24.8 L19.4 -24.2 Q19.45 -23.75 19.75 -23.5 L19.2 -22.9 19.0 -22.9 18.75 -22.95 18.6 -23.05 18.45 -23.2 17.55 -24.15 16.75 -25.15 16.55 -25.45 16.35 -25.75 16.05 -25.95 M17.7 -26.9 Q17.3 -27.9 18.0 -28.2 L19.35 -27.85 19.85 -27.0 20.35 -26.0 20.4 -25.8 20.55 -25.5 Q20.45 -25.2 20.65 -25.15 20.7 -24.6 20.2 -24.5 L20.0 -24.5 Q19.6 -24.5 19.4 -24.2 L19.4 -24.4 19.35 -24.75 18.05 -26.6 17.8 -26.8 17.7 -26.9 M18.7 -29.2 Q18.65 -29.65 19.2 -29.7 L20.9 -28.45 21.45 -27.6 21.75 -26.6 Q21.7 -25.9 21.2 -25.6 L21.05 -25.4 20.65 -25.15 20.55 -25.4 20.4 -25.8 20.35 -26.0 19.85 -27.0 19.55 -27.5 19.35 -27.85 19.35 -27.9 18.85 -28.3 Q18.65 -28.5 18.7 -29.0 L18.7 -29.2 M19.85 -29.5 Q19.5 -30.4 20.25 -30.7 21.4 -30.55 21.5 -30.2 L22.75 -28.0 22.85 -27.6 Q23.0 -26.75 22.2 -26.7 L21.75 -26.6 21.65 -27.2 21.45 -27.6 20.9 -28.45 20.35 -29.1 19.85 -29.5 M21.0 -30.8 Q20.5 -31.85 21.2 -32.15 L22.45 -31.6 23.65 -29.85 24.15 -29.15 23.45 -27.9 23.15 -27.7 22.85 -27.65 22.75 -27.85 22.75 -27.95 21.55 -30.0 21.5 -30.2 21.2 -30.7 21.0 -30.8 M21.75 -32.35 L21.9 -33.45 Q22.15 -36.1 24.2 -37.2 23.3 -33.35 27.15 -34.1 30.6 -29.4 27.0 -29.35 L24.15 -28.85 24.15 -29.15 23.65 -29.85 22.45 -31.6 22.3 -32.0 Q22.25 -32.45 21.8 -32.35 L21.75 -32.35;M13.85 -24.6 L13.9 -24.95 Q15.4 -26.3 16.0 -26.0 L16.55 -25.45 16.75 -25.15 17.55 -24.15 18.45 -23.2 18.6 -23.05 18.75 -22.95 Q19.65 -22.25 19.15 -21.4 L19.0 -21.3 18.2 -21.2 17.35 -21.35 Q16.55 -21.75 15.9 -22.65 L14.4 -24.0 14.2 -24.1 14.05 -24.25 13.85 -24.6 M16.05 -25.95 Q16.0 -27.5 17.35 -27.1 18.7 -25.85 19.3 -24.8 L19.4 -24.2 Q19.45 -23.75 19.75 -23.5 L19.2 -22.9 19.0 -22.9 18.75 -22.95 18.6 -23.05 18.45 -23.2 17.55 -24.15 16.75 -25.15 16.55 -25.45 16.35 -25.75 16.05 -25.95 M17.7 -26.9 Q17.3 -27.9 18.0 -28.2 L19.35 -27.85 19.85 -27.0 20.35 -26.0 20.4 -25.8 20.55 -25.5 Q20.45 -25.2 20.65 -25.15 20.7 -24.6 20.2 -24.5 L20.0 -24.5 Q19.6 -24.5 19.4 -24.2 L19.4 -24.4 19.35 -24.75 18.05 -26.6 17.8 -26.8 17.7 -26.9 M18.7 -29.2 Q18.65 -29.65 19.2 -29.7 L20.9 -28.45 21.45 -27.6 21.75 -26.6 Q21.7 -25.9 21.2 -25.6 L21.05 -25.4 20.65 -25.15 20.55 -25.4 20.4 -25.8 20.35 -26.0 19.85 -27.0 19.55 -27.5 19.35 -27.85 19.35 -27.9 18.85 -28.3 Q18.65 -28.5 18.7 -29.0 L18.7 -29.2 M19.85 -29.5 Q19.5 -30.4 20.25 -30.7 21.4 -30.55 21.5 -30.2 L22.75 -28.0 22.85 -27.6 Q23.0 -26.75 22.2 -26.7 L21.75 -26.6 21.65 -27.2 21.45 -27.6 20.9 -28.45 20.35 -29.1 19.85 -29.5 M21.0 -30.8 Q20.5 -31.85 21.2 -32.15 L22.45 -31.6 23.65 -29.85 24.15 -29.15 23.45 -27.9 23.15 -27.7 22.85 -27.65 22.75 -27.85 22.75 -27.95 21.55 -30.0 21.5 -30.2 21.2 -30.7 21.0 -30.8 M21.75 -32.35 L21.9 -33.45 Q22.15 -36.1 24.2 -37.2 23.3 -33.35 27.15 -34.1 30.6 -29.4 27.0 -29.35 L24.15 -28.85 24.15 -29.15 23.65 -29.85 22.45 -31.6 22.3 -32.0 Q22.25 -32.45 21.8 -32.35 L21.75 -32.35"/>
    </path>
  </g>
  <defs>
    <radialGradient cx="0" cy="0" gradientTransform="matrix(0.0206, 0.0155, -0.031, 0.0413, -11.8, -7.2)" gradientUnits="userSpaceOnUse" id="gradient0" r="819.2" spreadMethod="pad">
      <animateTransform additive="replace" attributeName="gradientTransform" dur="2s" from="1" repeatCount="indefinite" to="1" type="scale"/>
      <animateTransform additive="sum" attributeName="gradientTransform" dur="2s" from="-11.8 -7.2" repeatCount="indefinite" to="-11.8 -7.2" type="translate"/>
      <animateTransform additive="sum" attributeName="gradientTransform" dur="2s" from="36.8835" repeatCount="indefinite" to="36.8835" type="rotate"/>
      <animateTransform additive="sum" attributeName="gradientTransform" dur="2s" from="0.0258 0.0517" repeatCount="indefinite" to="0.0258 0.0517" type="scale"/>
      <animateTransform additive="sum" attributeName="gradientTransform" dur="2s" from="-0.0542" repeatCount="indefinite" to="-0.0542" type="skewX"/>
      <stop offset="0.0" stop-color="#51504f">
        <animate attributeName="offset" dur="2s" repeatCount="indefinite" values="0.0;0.0"/>
        <animate attributeName="stop-color" dur="2s" repeatCount="indefinite" values="#51504f;#986808"/>
        <animate attributeName="stop-opacity" dur="2s" repeatCount="indefinite" values="1.0;1.0"/>
      </stop>
      <stop offset="0.5764705882352941" stop-color="#959595">
        <animate attributeName="offset" dur="2s" repeatCount="indefinite" values="0.5764705882352941;0.5764705882352941"/>
        <animate attributeName="stop-color" dur="2s" repeatCount="indefinite" values="#959595;#efca3b"/>
        <animate attributeName="stop-opacity" dur="2s" repeatCount="indefinite" values="1.0;1.0"/>
      </stop>
      <stop offset="1.0" stop-color="#ffffff">
        <animate attributeName="offset" dur="2s" repeatCount="indefinite" values="1.0;1.0"/>
        <animate attributeName="stop-color" dur="2s" repeatCount="indefinite" values="#ffffff;#ffffff"/>
        <animate attributeName="stop-opacity" dur="2s" repeatCount="indefinite" values="1.0;1.0"/>
      </stop>
    </radialGradient>
    <radialGradient cx="0" cy="0" gradientTransform="matrix(0.023, 0.0211, 0.0344, -0.0375, -13.05, -5.1)" gradientUnits="userSpaceOnUse" id="gradient1" r="819.2" spreadMethod="pad">
      <animateTransform additive="replace" attributeName="gradientTransform" dur="2s" from="1" repeatCount="indefinite" to="1" type="scale"/>
      <animateTransform additive="sum" attributeName="gradientTransform" dur="2s" from="-13.05 -5.1" repeatCount="indefinite" to="-13.05 -5.1" type="translate"/>
      <animateTransform additive="sum" attributeName="gradientTransform" dur="2s" from="42.5604" repeatCount="indefinite" to="42.5604" type="rotate"/>
      <animateTransform additive="sum" attributeName="gradientTransform" dur="2s" from="0.0312 -0.0509" repeatCount="indefinite" to="0.0312 -0.0509" type="scale"/>
      <animateTransform additive="sum" attributeName="gradientTransform" dur="2s" from="-0.042" repeatCount="indefinite" to="-0.042" type="skewX"/>
      <stop offset="0.0" stop-color="#986807">
        <animate attributeName="offset" dur="2s" repeatCount="indefinite" values="0.0;0.0"/>
        <animate attributeName="stop-color" dur="2s" repeatCount="indefinite" values="#986807;#986808"/>
        <animate attributeName="stop-opacity" dur="2s" repeatCount="indefinite" values="1.0;1.0"/>
      </stop>
      <stop offset="0.5764705882352941" stop-color="#efca3a">
        <animate attributeName="offset" dur="2s" repeatCount="indefinite" values="0.5764705882352941;0.5764705882352941"/>
        <animate attributeName="stop-color" dur="2s" repeatCount="indefinite" values="#efca3a;#efca3b"/>
        <animate attributeName="stop-opacity" dur="2s" repeatCount="indefinite" values="1.0;1.0"/>
      </stop>
      <stop offset="1.0" stop-color="#ffffff">
        <animate attributeName="offset" dur="2s" repeatCount="indefinite" values="1.0;1.0"/>
        <animate attributeName="stop-color" dur="2s" repeatCount="indefinite" values="#ffffff;#ffffff"/>
        <animate attributeName="stop-opacity" dur="2s" repeatCount="indefinite" values="1.0;1.0"/>
      </stop>
    </radialGradient>
    <radialGradient cx="0" cy="0" gradientTransform="matrix(0.0206, 0.0155, -0.031, 0.0413, -11.8, -7.2)" gradientUnits="userSpaceOnUse" id="gradient2" r="819.2" spreadMethod="pad">
      <animateTransform additive="replace" attributeName="gradientTransform" dur="2s" from="1" repeatCount="indefinite" to="1" type="scale"/>
      <animateTransform additive="sum" attributeName="gradientTransform" dur="2s" from="-11.8 -7.2" repeatCount="indefinite" to="-11.8 -7.2" type="translate"/>
      <animateTransform additive="sum" attributeName="gradientTransform" dur="2s" from="36.8835" repeatCount="indefinite" to="36.8835" type="rotate"/>
      <animateTransform additive="sum" attributeName="gradientTransform" dur="2s" from="0.0258 0.0517" repeatCount="indefinite" to="0.0258 0.0517" type="scale"/>
      <animateTransform additive="sum" attributeName="gradientTransform" dur="2s" from="-0.0542" repeatCount="indefinite" to="-0.0542" type="skewX"/>
      <stop offset="0.0" stop-color="#986807">
        <animate attributeName="offset" dur="2s" repeatCount="indefinite" values="0.0;0.0"/>
        <animate attributeName="stop-color" dur="2s" repeatCount="indefinite" values="#986807;#986808"/>
        <animate attributeName="stop-opacity" dur="2s" repeatCount="indefinite" values="1.0;1.0"/>
      </stop>
      <stop offset="0.5764705882352941" stop-color="#efca3a">
        <animate attributeName="offset" dur="2s" repeatCount="indefinite" values="0.5764705882352941;0.5764705882352941"/>
        <animate attributeName="stop-color" dur="2s" repeatCount="indefinite" values="#efca3a;#efca3b"/>
        <animate attributeName="stop-opacity" dur="2s" repeatCount="indefinite" values="1.0;1.0"/>
      </stop>
      <stop offset="1.0" stop-color="#ffffff">
        <animate attributeName="offset" dur="2s" repeatCount="indefinite" values="1.0;1.0"/>
        <animate attributeName="stop-color" dur="2s" repeatCount="indefinite" values="#ffffff;#ffffff"/>
        <animate attributeName="stop-opacity" dur="2s" repeatCount="indefinite" values="1.0;1.0"/>
      </stop>
    </radialGradient>
  </defs>
</svg>
