<?xml version="1.0" encoding="UTF-8" standalone="no"?>
<svg xmlns:xlink="http://www.w3.org/1999/xlink" height="14.4px" width="20.8px" xmlns="http://www.w3.org/2000/svg">
  <g transform="matrix(1.0, 0.0, 0.0, 1.0, 11.0, 13.95)">
    <path d="M-7.95 -11.65 L-7.95 -11.4 -8.05 -10.15 -7.95 -9.55 -7.2 -8.9 -6.85 -8.25 -6.85 -8.25 -6.85 -8.25 -6.85 -8.15 -6.85 -8.05 -6.6 -7.7 Q-6.45 -7.45 -6.35 -7.25 L-6.35 -7.05 -6.35 -6.85 Q-5.95 -6.6 -5.55 -6.35 L-5.55 -6.75 -5.55 -7.05 -5.55 -7.15 -5.4 -8.45 -5.35 -8.75 -5.35 -8.75 -5.35 -8.8 -5.25 -9.2 -5.25 -9.3 -5.25 -9.3 -4.85 -9.75 -4.85 -9.75 -4.75 -9.8 -3.55 -9.75 -3.3 -9.6 Q-2.95 -9.3 -2.8 -8.6 L-2.7 -8.1 Q-2.7 -7.85 -2.7 -7.6 L-2.7 -7.35 -2.7 -7.25 -2.6 -7.15 -2.5 -7.05 -2.45 -6.65 -2.45 -6.3 -2.05 -5.5 -1.9 -5.3 -1.55 -5.6 -1.4 -5.7 -1.2 -5.9 -1.2 -5.9 -0.9 -6.2 -0.65 -6.45 -0.6 -6.5 -0.1 -6.75 0.2 -6.8 0.25 -6.8 0.35 -6.8 Q0.8 -6.75 1.25 -6.3 L1.3 -5.65 1.3 -5.4 1.3 -5.3 1.55 -5.35 1.75 -5.4 1.8 -5.4 1.8 -5.5 1.8 -5.55 1.9 -5.75 2.0 -6.5 2.05 -6.8 2.05 -7.0 2.3 -7.35 Q2.95 -8.1 3.85 -8.2 L3.85 -8.25 4.15 -8.45 4.65 -8.5 4.65 -8.5 4.65 -8.5 5.25 -8.4 5.35 -8.4 Q6.0 -8.15 6.05 -7.25 L6.05 -7.05 6.05 -6.85 6.25 -6.95 6.25 -7.0 6.35 -7.1 6.9 -7.8 7.1 -8.1 7.4 -8.4 7.5 -8.55 7.5 -8.55 7.65 -9.75 7.6 -10.15 7.55 -10.45 7.45 -10.75 7.0 -11.6 7.0 -11.6 7.0 -11.6 6.8 -11.95 6.7 -12.15 5.9 -12.6 5.8 -12.6 Q3.05 -13.95 -0.2 -13.95 L-0.9 -13.95 Q-4.3 -13.8 -7.15 -12.15 L-7.65 -11.85 -7.95 -11.65" fill="url(#gradient0)" fill-rule="evenodd" stroke="none">
      <animate attributeName="d" dur="2s" repeatCount="indefinite" values="M-7.95 -11.65 L-7.95 -11.4 -8.05 -10.15 -7.95 -9.55 -7.2 -8.9 -6.85 -8.25 -6.85 -8.25 -6.85 -8.25 -6.85 -8.15 -6.85 -8.05 -6.6 -7.7 Q-6.45 -7.45 -6.35 -7.25 L-6.35 -7.05 -6.35 -6.85 Q-5.95 -6.6 -5.55 -6.35 L-5.55 -6.75 -5.55 -7.05 -5.55 -7.15 -5.4 -8.45 -5.35 -8.75 -5.35 -8.75 -5.35 -8.8 -5.25 -9.2 -5.25 -9.3 -5.25 -9.3 -4.85 -9.75 -4.85 -9.75 -4.75 -9.8 -3.55 -9.75 -3.3 -9.6 Q-2.95 -9.3 -2.8 -8.6 L-2.7 -8.1 Q-2.7 -7.85 -2.7 -7.6 L-2.7 -7.35 -2.7 -7.25 -2.6 -7.15 -2.5 -7.05 -2.45 -6.65 -2.45 -6.3 -2.05 -5.5 -1.9 -5.3 -1.55 -5.6 -1.4 -5.7 -1.2 -5.9 -1.2 -5.9 -0.9 -6.2 -0.65 -6.45 -0.6 -6.5 -0.1 -6.75 0.2 -6.8 0.25 -6.8 0.35 -6.8 Q0.8 -6.75 1.25 -6.3 L1.3 -5.65 1.3 -5.4 1.3 -5.3 1.55 -5.35 1.75 -5.4 1.8 -5.4 1.8 -5.5 1.8 -5.55 1.9 -5.75 2.0 -6.5 2.05 -6.8 2.05 -7.0 2.3 -7.35 Q2.95 -8.1 3.85 -8.2 L3.85 -8.25 4.15 -8.45 4.65 -8.5 4.65 -8.5 4.65 -8.5 5.25 -8.4 5.35 -8.4 Q6.0 -8.15 6.05 -7.25 L6.05 -7.05 6.05 -6.85 6.25 -6.95 6.25 -7.0 6.35 -7.1 6.9 -7.8 7.1 -8.1 7.4 -8.4 7.5 -8.55 7.5 -8.55 7.65 -9.75 7.6 -10.15 7.55 -10.45 7.45 -10.75 7.0 -11.6 7.0 -11.6 7.0 -11.6 6.8 -11.95 6.7 -12.15 5.9 -12.6 5.8 -12.6 Q3.05 -13.95 -0.2 -13.95 L-0.9 -13.95 Q-4.3 -13.8 -7.15 -12.15 L-7.65 -11.85 -7.95 -11.65;M-11.0 -8.3 L-11.0 -8.3 -11.0 -6.25 -10.5 -5.2 -9.85 -4.15 -9.3 -3.35 -9.3 -3.4 -9.3 -3.4 -9.3 -3.6 -9.3 -3.7 -9.3 -3.9 Q-9.05 -4.2 -8.65 -4.3 L-8.4 -4.3 -8.3 -4.4 Q-7.5 -4.7 -6.9 -4.2 L-6.4 -3.65 -6.15 -3.4 -6.1 -3.3 -6.1 -1.25 -6.1 -0.8 -6.05 -0.75 -6.0 -0.7 -5.85 -1.1 -5.75 -1.3 -5.6 -1.5 -5.15 -2.1 -5.1 -2.2 -5.1 -2.3 -4.8 -4.15 -4.65 -4.5 Q-3.95 -5.7 -2.85 -5.5 L-2.1 -5.25 Q-1.6 -5.0 -1.55 -4.5 L-1.55 -4.3 -1.55 -3.9 -1.55 -3.8 -1.55 -3.7 -1.5 -2.8 -1.2 -2.2 -0.5 -1.1 -0.4 -0.8 -0.2 -0.4 -0.1 0.0 -0.05 0.45 0.0 0.35 0.2 0.1 0.2 -0.4 0.2 -0.6 0.2 -1.25 0.2 -1.7 0.1 -1.8 -0.05 -2.0 Q0.0 -2.8 0.0 -3.6 L0.05 -4.8 0.05 -5.15 0.05 -5.3 0.45 -5.95 0.75 -6.2 0.75 -6.3 0.9 -6.5 1.0 -6.55 1.4 -6.75 2.65 -6.7 3.05 -6.4 3.3 -6.1 3.5 -5.35 Q3.45 -3.9 3.4 -2.5 L3.4 -2.4 3.4 -1.6 3.4 -1.5 3.45 -1.45 3.55 -1.3 4.3 -0.2 4.45 -0.1 Q4.35 -1.3 4.6 -2.45 L4.7 -2.75 5.0 -3.05 5.15 -3.25 5.35 -3.3 5.65 -3.3 7.25 -3.2 7.55 -3.05 8.05 -2.4 8.3 -2.25 8.3 -2.25 8.3 -4.55 8.3 -5.25 8.45 -5.5 8.55 -5.9 9.4 -7.3 9.5 -7.4 9.55 -7.55 9.8 -7.9 9.8 -8.2 9.8 -9.75 9.7 -9.85 Q5.9 -13.65 0.7 -13.95 L-0.2 -13.95 Q-6.0 -13.95 -10.1 -9.85 L-10.95 -8.9 -11.0 -8.3"/>
    </path>
    <path d="M-7.95 -11.65 L-7.65 -11.85 -7.15 -12.15 Q-4.3 -13.8 -0.9 -13.95 L-0.2 -13.95 Q3.05 -13.95 5.8 -12.6 L5.9 -12.6 6.7 -12.15 6.8 -11.95 7.0 -11.6 7.0 -11.6 7.0 -11.6 7.45 -10.75 7.55 -10.45 7.6 -10.15 7.65 -9.75 7.5 -8.55 7.5 -8.55 7.4 -8.4 7.1 -8.1 6.9 -7.8 6.35 -7.1 6.25 -7.0 6.25 -6.95 6.05 -6.85 6.05 -7.05 6.05 -7.25 Q6.0 -8.15 5.35 -8.4 L5.25 -8.4 4.65 -8.5 4.65 -8.5 4.65 -8.5 4.15 -8.45 3.85 -8.25 3.85 -8.2 Q2.95 -8.1 2.3 -7.35 L2.05 -7.0 2.05 -6.8 2.0 -6.5 1.9 -5.75 1.8 -5.55 1.8 -5.5 1.8 -5.4 1.75 -5.4 1.55 -5.35 1.3 -5.3 1.3 -5.4 1.3 -5.65 1.25 -6.3 Q0.8 -6.75 0.35 -6.8 L0.25 -6.8 0.2 -6.8 -0.1 -6.75 -0.6 -6.5 -0.65 -6.45 -0.9 -6.2 -1.2 -5.9 -1.2 -5.9 -1.4 -5.7 -1.55 -5.6 -1.9 -5.3 -2.05 -5.5 -2.45 -6.3 -2.45 -6.65 -2.5 -7.05 -2.6 -7.15 -2.7 -7.25 -2.7 -7.35 -2.7 -7.6 Q-2.7 -7.85 -2.7 -8.1 L-2.8 -8.6 Q-2.95 -9.3 -3.3 -9.6 L-3.55 -9.75 -4.75 -9.8 -4.85 -9.75 -4.85 -9.75 -5.25 -9.3 -5.25 -9.3 -5.25 -9.2 -5.35 -8.8 -5.35 -8.75 -5.35 -8.75 -5.4 -8.45 -5.55 -7.15 -5.55 -7.05 -5.55 -6.75 -5.55 -6.35 Q-5.95 -6.6 -6.35 -6.85 L-6.35 -7.05 -6.35 -7.25 Q-6.45 -7.45 -6.6 -7.7 L-6.85 -8.05 -6.85 -8.15 -6.85 -8.25 -6.85 -8.25 -6.85 -8.25 -7.2 -8.9 -7.95 -9.55 -8.05 -10.15 -7.95 -11.4 -7.95 -11.65" fill="none" stroke="#000000" stroke-linecap="round" stroke-linejoin="round" stroke-opacity="0.0" stroke-width="1.0">
      <animate attributeName="stroke" dur="2s" repeatCount="indefinite" values="#000000;#000001"/>
      <animate attributeName="stroke-width" dur="2s" repeatCount="indefinite" values="0.0;0.0"/>
      <animate attributeName="fill-opacity" dur="2s" repeatCount="indefinite" values="0.0;0.0"/>
      <animate attributeName="d" dur="2s" repeatCount="indefinite" values="M-7.95 -11.65 L-7.65 -11.85 -7.15 -12.15 Q-4.3 -13.8 -0.9 -13.95 L-0.2 -13.95 Q3.05 -13.95 5.8 -12.6 L5.9 -12.6 6.7 -12.15 6.8 -11.95 7.0 -11.6 7.0 -11.6 7.0 -11.6 7.45 -10.75 7.55 -10.45 7.6 -10.15 7.65 -9.75 7.5 -8.55 7.5 -8.55 7.4 -8.4 7.1 -8.1 6.9 -7.8 6.35 -7.1 6.25 -7.0 6.25 -6.95 6.05 -6.85 6.05 -7.05 6.05 -7.25 Q6.0 -8.15 5.35 -8.4 L5.25 -8.4 4.65 -8.5 4.65 -8.5 4.65 -8.5 4.15 -8.45 3.85 -8.25 3.85 -8.2 Q2.95 -8.1 2.3 -7.35 L2.05 -7.0 2.05 -6.8 2.0 -6.5 1.9 -5.75 1.8 -5.55 1.8 -5.5 1.8 -5.4 1.75 -5.4 1.55 -5.35 1.3 -5.3 1.3 -5.4 1.3 -5.65 1.25 -6.3 Q0.8 -6.75 0.35 -6.8 L0.25 -6.8 0.2 -6.8 -0.1 -6.75 -0.6 -6.5 -0.65 -6.45 -0.9 -6.2 -1.2 -5.9 -1.2 -5.9 -1.4 -5.7 -1.55 -5.6 -1.9 -5.3 -2.05 -5.5 -2.45 -6.3 -2.45 -6.65 -2.5 -7.05 -2.6 -7.15 -2.7 -7.25 -2.7 -7.35 -2.7 -7.6 Q-2.7 -7.85 -2.7 -8.1 L-2.8 -8.6 Q-2.95 -9.3 -3.3 -9.6 L-3.55 -9.75 -4.75 -9.8 -4.85 -9.75 -4.85 -9.75 -5.25 -9.3 -5.25 -9.3 -5.25 -9.2 -5.35 -8.8 -5.35 -8.75 -5.35 -8.75 -5.4 -8.45 -5.55 -7.15 -5.55 -7.05 -5.55 -6.75 -5.55 -6.35 Q-5.95 -6.6 -6.35 -6.85 L-6.35 -7.05 -6.35 -7.25 Q-6.45 -7.45 -6.6 -7.7 L-6.85 -8.05 -6.85 -8.15 -6.85 -8.25 -6.85 -8.25 -6.85 -8.25 -7.2 -8.9 -7.95 -9.55 -8.05 -10.15 -7.95 -11.4 -7.95 -11.65;M-11.0 -8.3 L-10.95 -8.9 -10.1 -9.85 Q-6.0 -13.95 -0.2 -13.95 L0.7 -13.95 Q5.9 -13.65 9.7 -9.85 L9.8 -9.75 9.8 -8.2 9.8 -7.9 9.55 -7.55 9.5 -7.4 9.4 -7.3 8.55 -5.9 8.45 -5.5 8.3 -5.25 8.3 -4.55 8.3 -2.25 8.3 -2.25 8.05 -2.4 7.55 -3.05 7.25 -3.2 5.65 -3.3 5.35 -3.3 5.15 -3.25 5.0 -3.05 4.7 -2.75 4.6 -2.45 Q4.35 -1.3 4.45 -0.1 L4.3 -0.2 3.55 -1.3 3.45 -1.45 3.4 -1.5 3.4 -1.6 3.4 -2.4 3.4 -2.5 Q3.45 -3.9 3.5 -5.35 L3.3 -6.1 3.05 -6.4 2.65 -6.7 1.4 -6.75 1.0 -6.55 0.9 -6.5 0.75 -6.3 0.75 -6.2 0.45 -5.95 0.05 -5.3 0.05 -5.15 0.05 -4.8 0.0 -3.6 Q0.0 -2.8 -0.05 -2.0 L0.1 -1.8 0.2 -1.7 0.2 -1.25 0.2 -0.6 0.2 -0.4 0.2 0.1 0.0 0.35 -0.05 0.45 -0.1 0.0 -0.2 -0.4 -0.4 -0.8 -0.5 -1.1 -1.2 -2.2 -1.5 -2.8 -1.55 -3.7 -1.55 -3.8 -1.55 -3.9 -1.55 -4.3 -1.55 -4.5 Q-1.6 -5.0 -2.1 -5.25 L-2.85 -5.5 Q-3.95 -5.7 -4.65 -4.5 L-4.8 -4.15 -5.1 -2.3 -5.1 -2.2 -5.15 -2.1 -5.6 -1.5 -5.75 -1.3 -5.85 -1.1 -6.0 -0.7 -6.05 -0.75 -6.1 -0.8 -6.1 -1.25 -6.1 -3.3 -6.15 -3.4 -6.4 -3.65 -6.9 -4.2 Q-7.5 -4.7 -8.3 -4.4 L-8.4 -4.3 -8.65 -4.3 Q-9.05 -4.2 -9.3 -3.9 L-9.3 -3.7 -9.3 -3.6 -9.3 -3.4 -9.3 -3.4 -9.3 -3.35 -9.85 -4.15 -10.5 -5.2 -11.0 -6.25 -11.0 -8.3 -11.0 -8.3"/>
    </path>
  </g>
  <defs>
    <radialGradient cx="0" cy="0" gradientTransform="matrix(0.0219, 0.0, 0.0, 0.0242, -0.05, -0.05)" gradientUnits="userSpaceOnUse" id="gradient0" r="819.2" spreadMethod="pad">
      <animateTransform additive="replace" attributeName="gradientTransform" dur="2s" from="1" repeatCount="indefinite" to="1" type="scale"/>
      <animateTransform additive="sum" attributeName="gradientTransform" dur="2s" from="-0.05 -0.05" repeatCount="indefinite" to="-0.05 -0.05" type="translate"/>
      <animateTransform additive="sum" attributeName="gradientTransform" dur="2s" from="0.0" repeatCount="indefinite" to="0.0" type="rotate"/>
      <animateTransform additive="sum" attributeName="gradientTransform" dur="2s" from="0.0219 0.0242" repeatCount="indefinite" to="0.0219 0.0242" type="scale"/>
      <animateTransform additive="sum" attributeName="gradientTransform" dur="2s" from="0.0" repeatCount="indefinite" to="0.0" type="skewX"/>
      <stop offset="0.0" stop-color="#fefe0c" stop-opacity="0.9019608">
        <animate attributeName="offset" dur="2s" repeatCount="indefinite" values="0.0;0.0"/>
        <animate attributeName="stop-color" dur="2s" repeatCount="indefinite" values="#fefe0c;#fefe0d"/>
        <animate attributeName="stop-opacity" dur="2s" repeatCount="indefinite" values="0.9019608;0.9019608"/>
      </stop>
      <stop offset="0.5764705882352941" stop-color="#ffba2b" stop-opacity="0.9019608">
        <animate attributeName="offset" dur="2s" repeatCount="indefinite" values="0.5764705882352941;0.5764705882352941"/>
        <animate attributeName="stop-color" dur="2s" repeatCount="indefinite" values="#ffba2b;#ffba2c"/>
        <animate attributeName="stop-opacity" dur="2s" repeatCount="indefinite" values="0.9019608;0.9019608"/>
      </stop>
      <stop offset="1.0" stop-color="#ff720b" stop-opacity="0.9019608">
        <animate attributeName="offset" dur="2s" repeatCount="indefinite" values="1.0;1.0"/>
        <animate attributeName="stop-color" dur="2s" repeatCount="indefinite" values="#ff720b;#ff720c"/>
        <animate attributeName="stop-opacity" dur="2s" repeatCount="indefinite" values="0.9019608;0.9019608"/>
      </stop>
    </radialGradient>
  </defs>
</svg>
