<?xml version="1.0" encoding="UTF-8" standalone="no"?>
<svg xmlns:xlink="http://www.w3.org/1999/xlink" height="21.0px" width="27.3px" xmlns="http://www.w3.org/2000/svg">
  <g transform="matrix(1.0, 0.0, 0.0, 1.0, 13.8, 13.95)">
    <path d="M-11.0 -8.3 L-11.0 -8.3 -11.0 -8.1 -11.0 -8.0 Q-11.0 -7.1 -11.0 -6.25 -10.65 -5.55 -10.35 -4.85 L-10.25 -4.75 Q-9.75 -4.05 -9.3 -3.35 L-9.3 -3.4 -9.3 -3.6 -9.3 -3.8 -9.3 -3.9 -9.05 -4.15 -8.65 -4.3 -8.4 -4.3 -7.15 -4.4 -6.4 -3.65 -6.4 -3.65 -6.3 -3.55 -6.15 -3.4 -6.1 -3.3 -6.1 -3.1 Q-6.1 -2.45 -6.1 -1.85 L-6.1 -1.45 -6.1 -1.25 -6.1 -0.8 -6.1 -0.8 -6.05 -0.75 -6.0 -0.7 -5.85 -1.1 -5.6 -1.5 Q-5.35 -1.8 -5.15 -2.1 L-5.1 -2.2 -5.05 -2.7 -5.05 -2.9 Q-5.0 -3.3 -4.95 -3.65 L-4.8 -4.15 -4.65 -4.5 -4.4 -4.85 -4.3 -4.95 -4.05 -5.15 -3.95 -5.25 Q-3.15 -5.8 -2.1 -5.25 L-1.85 -5.1 -1.55 -4.5 -1.55 -4.3 -1.6 -3.9 -1.6 -3.7 -1.6 -3.6 -1.6 -3.5 -1.6 -3.4 -1.6 -3.3 -1.6 -3.2 -1.6 -3.0 -1.6 -2.9 Q-1.1 -2.15 -0.65 -1.4 L-0.45 -1.0 -0.45 -0.9 -0.2 -0.4 -0.1 0.0 -0.05 0.45 0.0 0.35 0.1 0.35 0.1 0.25 0.15 0.15 0.2 0.1 0.2 0.1 0.2 0.1 0.2 -0.55 0.2 -0.75 0.2 -0.85 0.2 -0.95 0.2 -1.05 0.2 -1.25 0.2 -1.7 0.1 -1.8 0.1 -1.8 0.0 -1.9 -0.05 -2.0 -0.05 -2.1 0.0 -2.6 0.0 -2.6 0.0 -3.05 0.0 -3.15 0.0 -3.95 0.05 -5.15 0.3 -5.75 0.45 -5.95 0.75 -6.2 0.75 -6.3 0.8 -6.4 1.2 -6.65 1.8 -6.9 2.45 -6.7 2.55 -6.7 3.05 -6.4 Q3.3 -5.85 3.5 -5.35 L3.5 -4.75 3.5 -4.65 3.5 -4.55 3.5 -4.45 Q3.45 -3.1 3.4 -1.8 L3.4 -1.7 3.4 -1.5 3.45 -1.45 3.55 -1.3 4.3 -0.2 4.45 -0.1 4.45 -0.1 4.45 -0.7 4.55 -1.2 4.55 -1.4 4.55 -1.6 4.55 -1.8 4.55 -2.1 4.55 -2.2 4.6 -2.45 4.7 -2.75 5.15 -3.25 5.35 -3.3 6.25 -3.25 6.75 -3.2 6.85 -3.2 7.25 -3.2 7.35 -3.2 7.45 -3.1 7.55 -3.05 7.85 -2.7 7.95 -2.5 8.05 -2.4 8.15 -2.3 8.3 -2.25 8.3 -3.35 8.3 -4.45 8.3 -4.55 8.3 -4.55 8.3 -5.25 8.45 -5.5 8.55 -5.9 9.5 -7.4 9.55 -7.55 9.8 -7.9 9.8 -9.75 9.7 -9.85 9.7 -9.85 Q6.35 -13.15 1.95 -13.8 L-0.2 -13.95 Q-3.7 -13.95 -6.55 -12.5 -8.45 -11.5 -10.1 -9.85 L-10.95 -8.9 -11.0 -8.3" fill="url(#gradient0)" fill-rule="evenodd" stroke="none">
      <animate attributeName="d" dur="2s" repeatCount="indefinite" values="M-11.0 -8.3 L-11.0 -8.3 -11.0 -8.1 -11.0 -8.0 Q-11.0 -7.1 -11.0 -6.25 -10.65 -5.55 -10.35 -4.85 L-10.25 -4.75 Q-9.75 -4.05 -9.3 -3.35 L-9.3 -3.4 -9.3 -3.6 -9.3 -3.8 -9.3 -3.9 -9.05 -4.15 -8.65 -4.3 -8.4 -4.3 -7.15 -4.4 -6.4 -3.65 -6.4 -3.65 -6.3 -3.55 -6.15 -3.4 -6.1 -3.3 -6.1 -3.1 Q-6.1 -2.45 -6.1 -1.85 L-6.1 -1.45 -6.1 -1.25 -6.1 -0.8 -6.1 -0.8 -6.05 -0.75 -6.0 -0.7 -5.85 -1.1 -5.6 -1.5 Q-5.35 -1.8 -5.15 -2.1 L-5.1 -2.2 -5.05 -2.7 -5.05 -2.9 Q-5.0 -3.3 -4.95 -3.65 L-4.8 -4.15 -4.65 -4.5 -4.4 -4.85 -4.3 -4.95 -4.05 -5.15 -3.95 -5.25 Q-3.15 -5.8 -2.1 -5.25 L-1.85 -5.1 -1.55 -4.5 -1.55 -4.3 -1.6 -3.9 -1.6 -3.7 -1.6 -3.6 -1.6 -3.5 -1.6 -3.4 -1.6 -3.3 -1.6 -3.2 -1.6 -3.0 -1.6 -2.9 Q-1.1 -2.15 -0.65 -1.4 L-0.45 -1.0 -0.45 -0.9 -0.2 -0.4 -0.1 0.0 -0.05 0.45 0.0 0.35 0.1 0.35 0.1 0.25 0.15 0.15 0.2 0.1 0.2 0.1 0.2 0.1 0.2 -0.55 0.2 -0.75 0.2 -0.85 0.2 -0.95 0.2 -1.05 0.2 -1.25 0.2 -1.7 0.1 -1.8 0.1 -1.8 0.0 -1.9 -0.05 -2.0 -0.05 -2.1 0.0 -2.6 0.0 -2.6 0.0 -3.05 0.0 -3.15 0.0 -3.95 0.05 -5.15 0.3 -5.75 0.45 -5.95 0.75 -6.2 0.75 -6.3 0.8 -6.4 1.2 -6.65 1.8 -6.9 2.45 -6.7 2.55 -6.7 3.05 -6.4 Q3.3 -5.85 3.5 -5.35 L3.5 -4.75 3.5 -4.65 3.5 -4.55 3.5 -4.45 Q3.45 -3.1 3.4 -1.8 L3.4 -1.7 3.4 -1.5 3.45 -1.45 3.55 -1.3 4.3 -0.2 4.45 -0.1 4.45 -0.1 4.45 -0.7 4.55 -1.2 4.55 -1.4 4.55 -1.6 4.55 -1.8 4.55 -2.1 4.55 -2.2 4.6 -2.45 4.7 -2.75 5.15 -3.25 5.35 -3.3 6.25 -3.25 6.75 -3.2 6.85 -3.2 7.25 -3.2 7.35 -3.2 7.45 -3.1 7.55 -3.05 7.85 -2.7 7.95 -2.5 8.05 -2.4 8.15 -2.3 8.3 -2.25 8.3 -3.35 8.3 -4.45 8.3 -4.55 8.3 -4.55 8.3 -5.25 8.45 -5.5 8.55 -5.9 9.5 -7.4 9.55 -7.55 9.8 -7.9 9.8 -9.75 9.7 -9.85 9.7 -9.85 Q6.35 -13.15 1.95 -13.8 L-0.2 -13.95 Q-3.7 -13.95 -6.55 -12.5 -8.45 -11.5 -10.1 -9.85 L-10.95 -8.9 -11.0 -8.3;M-13.8 -3.4 L-13.7 -3.0 -13.6 -2.8 -13.5 -2.7 Q-13.2 -1.5 -12.35 -0.9 -11.7 -0.45 -10.75 -0.35 L-10.65 -0.2 Q-10.3 0.95 -11.05 1.75 L-11.05 1.8 -11.25 1.95 -11.45 2.1 -11.35 2.1 -11.0 2.1 -10.7 1.85 -10.4 1.55 -9.3 0.45 -9.3 -1.15 -9.3 -1.15 -9.3 -1.35 -9.05 -1.6 -8.95 -1.7 -8.85 -1.8 Q-7.9 -2.3 -7.3 -1.65 L-6.75 -1.2 -6.6 -0.8 -6.25 -0.45 -6.1 -0.05 -6.1 0.05 -6.1 0.15 -6.0 0.9 -6.05 1.4 Q-6.1 1.9 -6.3 2.4 L-6.35 2.5 -6.6 2.95 -6.7 3.1 Q-7.15 3.4 -7.2 3.95 L-7.35 4.55 -7.4 5.15 -7.35 5.65 -7.35 5.85 -7.15 6.2 -7.1 6.35 Q-6.65 5.3 -5.8 4.5 L-5.65 4.4 -5.25 3.95 -5.2 3.75 -5.1 3.65 -4.95 3.55 -4.95 3.45 -4.95 3.25 -4.9 3.2 -4.8 3.1 -4.8 3.0 -4.75 2.8 -4.55 2.7 Q-3.3 2.4 -2.85 3.7 L-2.75 4.25 -2.7 4.35 -2.75 5.2 -2.85 5.7 -2.95 6.2 -2.95 6.3 -2.95 6.5 -2.95 6.6 -2.8 6.8 -2.7 6.85 -2.65 7.05 -2.6 7.05 -2.35 6.4 -2.25 6.3 -2.25 6.2 -2.2 6.1 -2.15 6.0 -2.05 5.85 -1.7 5.45 -1.6 5.35 -1.5 5.25 -1.5 5.2 -1.5 5.2 -1.45 5.0 -1.2 4.5 -1.2 4.45 -1.0 4.05 -0.95 4.0 -0.05 3.85 0.75 2.75 1.3 2.3 1.7 2.1 2.2 2.05 2.3 2.05 2.4 2.05 2.8 2.25 3.4 2.95 3.4 3.85 3.4 4.0 4.15 4.15 Q4.75 4.4 4.95 5.05 L5.0 5.65 5.05 5.85 5.05 6.1 5.05 6.25 Q6.3 5.05 6.05 3.25 L6.05 3.15 6.45 2.8 6.55 2.7 6.65 2.6 7.95 2.45 8.15 2.5 8.35 2.6 8.95 2.6 9.05 2.15 9.1 2.05 9.2 1.95 9.35 1.9 9.5 1.7 9.55 1.65 9.75 1.65 10.25 1.6 11.15 1.7 11.35 1.8 12.15 2.2 11.85 1.65 11.8 1.5 11.8 1.05 11.8 0.95 11.8 0.75 11.95 0.6 12.2 0.3 12.25 0.0 12.3 -0.1 12.3 -0.15 12.5 -0.45 13.4 -1.55 13.45 -2.9 13.45 -3.05 13.5 -3.1 13.4 -3.45 13.25 -4.0 13.0 -4.7 12.05 -6.75 11.95 -6.95 11.55 -7.65 10.0 -9.55 9.9 -9.65 9.7 -9.85 Q5.6 -13.95 -0.2 -13.95 L-2.9 -13.7 Q-7.0 -12.95 -10.1 -9.85 -12.15 -7.8 -13.15 -5.3 L-13.6 -4.1 -13.8 -3.4"/>
    </path>
    <path d="M-11.0 -8.3 L-10.95 -8.9 -10.1 -9.85 Q-8.45 -11.5 -6.55 -12.5 -3.7 -13.95 -0.2 -13.95 L1.95 -13.8 Q6.35 -13.15 9.7 -9.85 L9.7 -9.85 9.8 -9.75 9.8 -7.9 9.55 -7.55 9.5 -7.4 8.55 -5.9 8.45 -5.5 8.3 -5.25 8.3 -4.55 8.3 -4.55 8.3 -4.45 8.3 -3.35 8.3 -2.25 8.15 -2.3 8.05 -2.4 7.95 -2.5 7.85 -2.7 7.55 -3.05 7.45 -3.1 7.35 -3.2 7.25 -3.2 6.85 -3.2 6.75 -3.2 6.25 -3.25 5.35 -3.3 5.15 -3.25 4.7 -2.75 4.6 -2.45 4.55 -2.2 4.55 -2.1 4.55 -1.8 4.55 -1.6 4.55 -1.4 4.55 -1.2 4.45 -0.7 4.45 -0.1 4.45 -0.1 4.3 -0.2 3.55 -1.3 3.45 -1.45 3.4 -1.5 3.4 -1.7 3.4 -1.8 Q3.45 -3.1 3.5 -4.45 L3.5 -4.55 3.5 -4.65 3.5 -4.75 3.5 -5.35 Q3.3 -5.85 3.05 -6.4 L2.55 -6.7 2.45 -6.7 1.8 -6.9 1.2 -6.65 0.8 -6.4 0.75 -6.3 0.75 -6.2 0.45 -5.95 0.3 -5.75 0.05 -5.15 0.0 -3.95 0.0 -3.15 0.0 -3.05 0.0 -2.6 0.0 -2.6 -0.05 -2.1 -0.05 -2.0 0.0 -1.9 0.1 -1.8 0.1 -1.8 0.2 -1.7 0.2 -1.25 0.2 -1.05 0.2 -0.95 0.2 -0.85 0.2 -0.75 0.2 -0.55 0.2 0.1 0.2 0.1 0.2 0.1 0.15 0.15 0.1 0.25 0.1 0.35 0.0 0.35 -0.05 0.45 -0.1 0.0 -0.2 -0.4 -0.45 -0.9 -0.45 -1.0 -0.65 -1.4 Q-1.1 -2.15 -1.6 -2.9 L-1.6 -3.0 -1.6 -3.2 -1.6 -3.3 -1.6 -3.4 -1.6 -3.5 -1.6 -3.6 -1.6 -3.7 -1.6 -3.9 -1.55 -4.3 -1.55 -4.5 -1.85 -5.1 -2.1 -5.25 Q-3.15 -5.8 -3.95 -5.25 L-4.05 -5.15 -4.3 -4.95 -4.4 -4.85 -4.65 -4.5 -4.8 -4.15 -4.95 -3.65 Q-5.0 -3.3 -5.05 -2.9 L-5.05 -2.7 -5.1 -2.2 -5.15 -2.1 Q-5.35 -1.8 -5.6 -1.5 L-5.85 -1.1 -6.0 -0.7 -6.05 -0.75 -6.1 -0.8 -6.1 -0.8 -6.1 -1.25 -6.1 -1.45 -6.1 -1.85 Q-6.1 -2.45 -6.1 -3.1 L-6.1 -3.3 -6.15 -3.4 -6.3 -3.55 -6.4 -3.65 -6.4 -3.65 -7.15 -4.4 -8.4 -4.3 -8.65 -4.3 -9.05 -4.15 -9.3 -3.9 -9.3 -3.8 -9.3 -3.6 -9.3 -3.4 -9.3 -3.35 Q-9.75 -4.05 -10.25 -4.75 L-10.35 -4.85 Q-10.65 -5.55 -11.0 -6.25 -11.0 -7.1 -11.0 -8.0 L-11.0 -8.1 -11.0 -8.3 -11.0 -8.3" fill="none" stroke="#000000" stroke-linecap="round" stroke-linejoin="round" stroke-opacity="0.0" stroke-width="1.0">
      <animate attributeName="stroke" dur="2s" repeatCount="indefinite" values="#000000;#000001"/>
      <animate attributeName="stroke-width" dur="2s" repeatCount="indefinite" values="0.0;0.0"/>
      <animate attributeName="fill-opacity" dur="2s" repeatCount="indefinite" values="0.0;0.0"/>
      <animate attributeName="d" dur="2s" repeatCount="indefinite" values="M-11.0 -8.3 L-10.95 -8.9 -10.1 -9.85 Q-8.45 -11.5 -6.55 -12.5 -3.7 -13.95 -0.2 -13.95 L1.95 -13.8 Q6.35 -13.15 9.7 -9.85 L9.7 -9.85 9.8 -9.75 9.8 -7.9 9.55 -7.55 9.5 -7.4 8.55 -5.9 8.45 -5.5 8.3 -5.25 8.3 -4.55 8.3 -4.55 8.3 -4.45 8.3 -3.35 8.3 -2.25 8.15 -2.3 8.05 -2.4 7.95 -2.5 7.85 -2.7 7.55 -3.05 7.45 -3.1 7.35 -3.2 7.25 -3.2 6.85 -3.2 6.75 -3.2 6.25 -3.25 5.35 -3.3 5.15 -3.25 4.7 -2.75 4.6 -2.45 4.55 -2.2 4.55 -2.1 4.55 -1.8 4.55 -1.6 4.55 -1.4 4.55 -1.2 4.45 -0.7 4.45 -0.1 4.45 -0.1 4.3 -0.2 3.55 -1.3 3.45 -1.45 3.4 -1.5 3.4 -1.7 3.4 -1.8 Q3.45 -3.1 3.5 -4.45 L3.5 -4.55 3.5 -4.65 3.5 -4.75 3.5 -5.35 Q3.3 -5.85 3.05 -6.4 L2.55 -6.7 2.45 -6.7 1.8 -6.9 1.2 -6.65 0.8 -6.4 0.75 -6.3 0.75 -6.2 0.45 -5.95 0.3 -5.75 0.05 -5.15 0.0 -3.95 0.0 -3.15 0.0 -3.05 0.0 -2.6 0.0 -2.6 -0.05 -2.1 -0.05 -2.0 0.0 -1.9 0.1 -1.8 0.1 -1.8 0.2 -1.7 0.2 -1.25 0.2 -1.05 0.2 -0.95 0.2 -0.85 0.2 -0.75 0.2 -0.55 0.2 0.1 0.2 0.1 0.2 0.1 0.15 0.15 0.1 0.25 0.1 0.35 0.0 0.35 -0.05 0.45 -0.1 0.0 -0.2 -0.4 -0.45 -0.9 -0.45 -1.0 -0.65 -1.4 Q-1.1 -2.15 -1.6 -2.9 L-1.6 -3.0 -1.6 -3.2 -1.6 -3.3 -1.6 -3.4 -1.6 -3.5 -1.6 -3.6 -1.6 -3.7 -1.6 -3.9 -1.55 -4.3 -1.55 -4.5 -1.85 -5.1 -2.1 -5.25 Q-3.15 -5.8 -3.95 -5.25 L-4.05 -5.15 -4.3 -4.95 -4.4 -4.85 -4.65 -4.5 -4.8 -4.15 -4.95 -3.65 Q-5.0 -3.3 -5.05 -2.9 L-5.05 -2.7 -5.1 -2.2 -5.15 -2.1 Q-5.35 -1.8 -5.6 -1.5 L-5.85 -1.1 -6.0 -0.7 -6.05 -0.75 -6.1 -0.8 -6.1 -0.8 -6.1 -1.25 -6.1 -1.45 -6.1 -1.85 Q-6.1 -2.45 -6.1 -3.1 L-6.1 -3.3 -6.15 -3.4 -6.3 -3.55 -6.4 -3.65 -6.4 -3.65 -7.15 -4.4 -8.4 -4.3 -8.65 -4.3 -9.05 -4.15 -9.3 -3.9 -9.3 -3.8 -9.3 -3.6 -9.3 -3.4 -9.3 -3.35 Q-9.75 -4.05 -10.25 -4.75 L-10.35 -4.85 Q-10.65 -5.55 -11.0 -6.25 -11.0 -7.1 -11.0 -8.0 L-11.0 -8.1 -11.0 -8.3 -11.0 -8.3;M-13.8 -3.4 L-13.6 -4.1 -13.15 -5.3 Q-12.15 -7.8 -10.1 -9.85 -7.0 -12.95 -2.9 -13.7 L-0.2 -13.95 Q5.6 -13.95 9.7 -9.85 L9.9 -9.65 10.0 -9.55 11.55 -7.65 11.95 -6.95 12.05 -6.75 13.0 -4.7 13.25 -4.0 13.4 -3.45 13.5 -3.1 13.45 -3.05 13.45 -2.9 13.4 -1.55 12.5 -0.45 12.3 -0.15 12.3 -0.1 12.25 0.0 12.2 0.3 11.95 0.6 11.8 0.75 11.8 0.95 11.8 1.05 11.8 1.5 11.85 1.65 12.15 2.2 11.35 1.8 11.15 1.7 10.25 1.6 9.75 1.65 9.55 1.65 9.5 1.7 9.35 1.9 9.2 1.95 9.1 2.05 9.05 2.15 8.95 2.6 8.35 2.6 8.15 2.5 7.95 2.45 6.65 2.6 6.55 2.7 6.45 2.8 6.05 3.15 6.05 3.25 Q6.3 5.05 5.05 6.25 L5.05 6.1 5.05 5.85 5.0 5.65 4.95 5.05 Q4.75 4.4 4.15 4.15 L3.4 4.0 3.4 3.85 3.4 2.95 2.8 2.25 2.4 2.05 2.3 2.05 2.2 2.05 1.7 2.1 1.3 2.3 0.75 2.75 -0.05 3.85 -0.95 4.0 -1.0 4.05 -1.2 4.45 -1.2 4.5 -1.45 5.0 -1.5 5.2 -1.5 5.2 -1.5 5.25 -1.6 5.35 -1.7 5.45 -2.05 5.85 -2.15 6.0 -2.2 6.1 -2.25 6.2 -2.25 6.3 -2.35 6.4 -2.6 7.05 -2.65 7.05 -2.7 6.85 -2.8 6.8 -2.95 6.6 -2.95 6.5 -2.95 6.3 -2.95 6.2 -2.85 5.7 -2.75 5.2 -2.7 4.35 -2.75 4.25 -2.85 3.7 Q-3.3 2.4 -4.55 2.7 L-4.75 2.8 -4.8 3.0 -4.8 3.1 -4.9 3.2 -4.95 3.25 -4.95 3.45 -4.95 3.55 -5.1 3.65 -5.2 3.75 -5.25 3.95 -5.65 4.4 -5.8 4.5 Q-6.65 5.3 -7.1 6.35 L-7.15 6.2 -7.35 5.85 -7.35 5.65 -7.4 5.15 -7.35 4.55 -7.2 3.95 Q-7.15 3.4 -6.7 3.1 L-6.6 2.95 -6.35 2.5 -6.3 2.4 Q-6.1 1.9 -6.05 1.4 L-6.0 0.9 -6.1 0.15 -6.1 0.05 -6.1 -0.05 -6.25 -0.45 -6.6 -0.8 -6.75 -1.2 -7.3 -1.65 Q-7.9 -2.3 -8.85 -1.8 L-8.95 -1.7 -9.05 -1.6 -9.3 -1.35 -9.3 -1.15 -9.3 -1.15 -9.3 0.45 -10.4 1.55 -10.7 1.85 -11.0 2.1 -11.35 2.1 -11.45 2.1 -11.25 1.95 -11.05 1.8 -11.05 1.75 Q-10.3 0.95 -10.65 -0.2 L-10.75 -0.35 Q-11.7 -0.45 -12.35 -0.9 -13.2 -1.5 -13.5 -2.7 L-13.6 -2.8 -13.7 -3.0 -13.8 -3.4"/>
    </path>
  </g>
  <defs>
    <radialGradient cx="0" cy="0" gradientTransform="matrix(0.0219, 0.0, 0.0, 0.0242, -0.05, -0.05)" gradientUnits="userSpaceOnUse" id="gradient0" r="819.2" spreadMethod="pad">
      <animateTransform additive="replace" attributeName="gradientTransform" dur="2s" from="1" repeatCount="indefinite" to="1" type="scale"/>
      <animateTransform additive="sum" attributeName="gradientTransform" dur="2s" from="-0.05 -0.05" repeatCount="indefinite" to="-0.05 -0.05" type="translate"/>
      <animateTransform additive="sum" attributeName="gradientTransform" dur="2s" from="0.0" repeatCount="indefinite" to="0.0" type="rotate"/>
      <animateTransform additive="sum" attributeName="gradientTransform" dur="2s" from="0.0219 0.0242" repeatCount="indefinite" to="0.0219 0.0242" type="scale"/>
      <animateTransform additive="sum" attributeName="gradientTransform" dur="2s" from="0.0" repeatCount="indefinite" to="0.0" type="skewX"/>
      <stop offset="0.0" stop-color="#fefe0c" stop-opacity="0.9019608">
        <animate attributeName="offset" dur="2s" repeatCount="indefinite" values="0.0;0.0"/>
        <animate attributeName="stop-color" dur="2s" repeatCount="indefinite" values="#fefe0c;#fefe0d"/>
        <animate attributeName="stop-opacity" dur="2s" repeatCount="indefinite" values="0.9019608;0.9019608"/>
      </stop>
      <stop offset="0.5764705882352941" stop-color="#ffba2b" stop-opacity="0.9019608">
        <animate attributeName="offset" dur="2s" repeatCount="indefinite" values="0.5764705882352941;0.5764705882352941"/>
        <animate attributeName="stop-color" dur="2s" repeatCount="indefinite" values="#ffba2b;#ffba2c"/>
        <animate attributeName="stop-opacity" dur="2s" repeatCount="indefinite" values="0.9019608;0.9019608"/>
      </stop>
      <stop offset="1.0" stop-color="#ff720b" stop-opacity="0.9019608">
        <animate attributeName="offset" dur="2s" repeatCount="indefinite" values="1.0;1.0"/>
        <animate attributeName="stop-color" dur="2s" repeatCount="indefinite" values="#ff720b;#ff720c"/>
        <animate attributeName="stop-opacity" dur="2s" repeatCount="indefinite" values="0.9019608;0.9019608"/>
      </stop>
    </radialGradient>
  </defs>
</svg>
