<?xml version="1.0" encoding="UTF-8" standalone="no"?>
<svg xmlns:xlink="http://www.w3.org/1999/xlink" height="31.8px" width="28.0px" xmlns="http://www.w3.org/2000/svg">
  <g transform="matrix(1.0, 0.0, 0.0, 1.0, 14.2, 13.95)">
    <path d="M-14.2 0.05 L-14.2 0.35 -14.15 1.25 -14.05 1.35 -13.05 1.85 Q-12.6 2.2 -12.2 2.55 L-11.75 2.8 -11.45 2.95 -10.8 3.55 Q-10.05 4.45 -10.15 5.7 L-10.2 6.1 Q-9.75 6.7 -9.35 7.3 L-9.15 7.45 -9.05 7.25 Q-8.8 6.75 -8.55 6.3 -8.4 6.1 -8.25 6.05 -7.85 5.9 -7.5 6.3 -7.0 6.85 -7.15 7.55 -6.05 8.85 -5.0 10.15 L-4.7 10.45 Q-4.35 10.65 -3.9 10.45 -4.5 9.9 -4.35 9.0 L-4.35 8.9 -4.35 8.7 -4.15 7.6 Q-4.05 6.4 -3.05 5.75 L-2.75 5.6 -1.6 5.55 -1.3 5.7 Q-0.2 6.45 -0.85 7.8 L-1.1 8.75 -1.15 9.75 -0.3 11.05 -0.2 11.15 -0.2 11.05 -0.2 10.95 Q-0.25 9.55 0.95 8.7 L1.2 8.45 1.2 8.45 Q1.15 7.9 1.1 7.4 1.2 6.85 1.25 6.3 L1.5 5.9 1.65 5.8 Q1.95 5.55 2.25 5.45 L2.65 5.4 3.05 5.45 3.25 5.45 Q3.75 5.6 4.25 6.05 L4.55 6.75 4.55 6.95 Q4.55 7.7 4.8 8.25 L5.05 8.75 5.4 9.15 5.8 9.5 6.6 10.35 6.85 10.65 7.2 11.1 7.3 11.3 7.3 11.35 7.3 11.35 7.3 11.35 7.35 11.45 7.55 11.45 Q7.65 10.9 7.35 10.4 L7.2 10.1 7.2 10.0 6.75 9.65 Q5.75 8.7 6.15 7.3 L6.15 7.1 6.25 6.9 Q6.5 6.2 7.35 6.05 L7.9 6.0 Q8.9 6.1 9.4 7.1 L9.7 7.8 9.85 8.4 9.85 9.25 9.9 9.3 10.05 9.4 10.05 8.8 10.25 7.25 10.55 6.65 Q11.85 4.7 13.55 3.0 L13.55 2.8 13.7 1.9 13.7 1.8 13.8 0.05 Q13.8 -5.15 10.55 -8.95 L9.7 -9.85 Q5.8 -13.75 0.4 -13.95 L-0.2 -13.95 Q-6.0 -13.95 -10.1 -9.85 -14.2 -5.75 -14.2 0.05" fill="url(#gradient0)" fill-rule="evenodd" stroke="none">
      <animate attributeName="d" dur="2s" repeatCount="indefinite" values="M-14.2 0.05 L-14.2 0.35 -14.15 1.25 -14.05 1.35 -13.05 1.85 Q-12.6 2.2 -12.2 2.55 L-11.75 2.8 -11.45 2.95 -10.8 3.55 Q-10.05 4.45 -10.15 5.7 L-10.2 6.1 Q-9.75 6.7 -9.35 7.3 L-9.15 7.45 -9.05 7.25 Q-8.8 6.75 -8.55 6.3 -8.4 6.1 -8.25 6.05 -7.85 5.9 -7.5 6.3 -7.0 6.85 -7.15 7.55 -6.05 8.85 -5.0 10.15 L-4.7 10.45 Q-4.35 10.65 -3.9 10.45 -4.5 9.9 -4.35 9.0 L-4.35 8.9 -4.35 8.7 -4.15 7.6 Q-4.05 6.4 -3.05 5.75 L-2.75 5.6 -1.6 5.55 -1.3 5.7 Q-0.2 6.45 -0.85 7.8 L-1.1 8.75 -1.15 9.75 -0.3 11.05 -0.2 11.15 -0.2 11.05 -0.2 10.95 Q-0.25 9.55 0.95 8.7 L1.2 8.45 1.2 8.45 Q1.15 7.9 1.1 7.4 1.2 6.85 1.25 6.3 L1.5 5.9 1.65 5.8 Q1.95 5.55 2.25 5.45 L2.65 5.4 3.05 5.45 3.25 5.45 Q3.75 5.6 4.25 6.05 L4.55 6.75 4.55 6.95 Q4.55 7.7 4.8 8.25 L5.05 8.75 5.4 9.15 5.8 9.5 6.6 10.35 6.85 10.65 7.2 11.1 7.3 11.3 7.3 11.35 7.3 11.35 7.3 11.35 7.35 11.45 7.55 11.45 Q7.65 10.9 7.35 10.4 L7.2 10.1 7.2 10.0 6.75 9.65 Q5.75 8.7 6.15 7.3 L6.15 7.1 6.25 6.9 Q6.5 6.2 7.35 6.05 L7.9 6.0 Q8.9 6.1 9.4 7.1 L9.7 7.8 9.85 8.4 9.85 9.25 9.9 9.3 10.05 9.4 10.05 8.8 10.25 7.25 10.55 6.65 Q11.85 4.7 13.55 3.0 L13.55 2.8 13.7 1.9 13.7 1.8 13.8 0.05 Q13.8 -5.15 10.55 -8.95 L9.7 -9.85 Q5.8 -13.75 0.4 -13.95 L-0.2 -13.95 Q-6.0 -13.95 -10.1 -9.85 -14.2 -5.75 -14.2 0.05;M-14.2 -0.45 L-14.2 -0.45 -13.85 0.4 -13.85 0.5 -13.45 1.3 Q-12.85 1.55 -12.65 2.2 L-12.55 2.6 -12.55 2.8 -12.25 3.25 Q-11.65 4.05 -11.05 4.85 L-11.05 4.35 Q-11.0 3.6 -10.4 3.1 L-10.2 2.95 -10.0 2.9 Q-9.45 2.85 -9.05 3.15 -8.9 3.25 -8.8 3.35 -8.5 3.55 -8.25 3.7 -7.6 4.15 -7.25 4.75 -6.6 5.85 -6.95 7.5 L-7.05 8.0 Q-7.05 8.4 -7.05 8.8 -6.9 9.5 -6.75 10.2 L-6.75 10.3 -6.7 10.5 -6.1 11.3 Q-5.4 12.2 -4.7 13.1 L-4.5 13.4 -4.2 14.35 -4.1 14.85 Q-3.85 15.9 -3.1 16.65 L-2.3 17.2 -1.2 17.7 0.15 17.8 0.25 17.8 0.45 17.8 0.4 17.75 Q-0.75 16.65 -0.25 15.45 L0.0 15.05 0.1 14.95 Q0.4 14.6 0.85 14.75 1.4 14.95 1.8 15.25 L2.2 15.65 2.3 15.75 Q2.3 15.45 2.3 15.2 L2.35 14.85 2.25 14.45 2.2 14.2 Q2.05 13.65 1.9 13.15 L1.85 12.4 1.85 11.95 Q1.9 11.4 2.2 11.05 L2.55 10.8 2.95 10.75 3.35 11.2 3.55 12.2 3.55 12.6 4.0 13.05 4.1 13.15 4.2 13.25 4.2 13.2 4.2 13.2 4.2 13.2 4.2 13.2 Q4.2 12.6 4.6 12.1 L4.85 11.8 4.85 11.8 5.05 11.6 Q5.15 10.45 6.2 9.65 L6.3 9.55 6.3 9.35 Q6.2 8.5 6.7 7.95 L7.05 7.6 Q7.8 6.55 8.75 7.3 L9.1 7.65 9.45 8.15 10.0 7.5 10.0 7.4 10.05 7.2 10.35 6.6 10.9 5.6 11.2 5.0 Q12.4 3.0 13.55 1.0 L13.7 0.8 13.8 0.15 13.8 0.05 13.7 -1.6 Q13.2 -6.35 9.7 -9.85 L8.9 -10.6 Q5.05 -13.95 -0.2 -13.95 L-0.8 -13.95 Q-6.2 -13.75 -10.1 -9.85 -14.0 -5.95 -14.2 -0.45"/>
    </path>
    <path d="M-14.2 0.05 Q-14.2 -5.75 -10.1 -9.85 -6.0 -13.95 -0.2 -13.95 L0.4 -13.95 Q5.8 -13.75 9.7 -9.85 L10.55 -8.95 Q13.8 -5.15 13.8 0.05 L13.7 1.8 13.7 1.9 13.55 2.8 13.55 3.0 Q11.85 4.7 10.55 6.65 L10.25 7.25 10.05 8.8 10.05 9.4 9.9 9.3 9.85 9.25 9.85 8.4 9.7 7.8 9.4 7.1 Q8.9 6.1 7.9 6.0 L7.35 6.05 Q6.5 6.2 6.25 6.9 L6.15 7.1 6.15 7.3 Q5.75 8.7 6.75 9.65 L7.2 10.0 7.2 10.1 7.35 10.4 Q7.65 10.9 7.55 11.45 L7.35 11.45 7.3 11.35 7.3 11.35 7.3 11.35 7.3 11.3 7.2 11.1 6.85 10.65 6.6 10.35 5.8 9.5 5.4 9.15 5.05 8.75 4.8 8.25 Q4.55 7.7 4.55 6.95 L4.55 6.75 4.25 6.05 Q3.75 5.6 3.25 5.45 L3.05 5.45 2.65 5.4 2.25 5.45 Q1.95 5.55 1.65 5.8 L1.5 5.9 1.25 6.3 Q1.2 6.85 1.1 7.4 1.15 7.9 1.2 8.45 L1.2 8.45 0.95 8.7 Q-0.25 9.55 -0.2 10.95 L-0.2 11.05 -0.2 11.15 -0.3 11.05 -1.15 9.75 -1.1 8.75 -0.85 7.8 Q-0.2 6.45 -1.3 5.7 L-1.6 5.55 -2.75 5.6 -3.05 5.75 Q-4.05 6.4 -4.15 7.6 L-4.35 8.7 -4.35 8.9 -4.35 9.0 Q-4.5 9.9 -3.9 10.45 -4.35 10.65 -4.7 10.45 L-5.0 10.15 Q-6.05 8.85 -7.15 7.55 -7.0 6.85 -7.5 6.3 -7.85 5.9 -8.25 6.05 -8.4 6.1 -8.55 6.3 -8.8 6.75 -9.05 7.25 L-9.15 7.45 -9.35 7.3 Q-9.75 6.7 -10.2 6.1 L-10.15 5.7 Q-10.05 4.45 -10.8 3.55 L-11.45 2.95 -11.75 2.8 -12.2 2.55 Q-12.6 2.2 -13.05 1.85 L-14.05 1.35 -14.15 1.25 -14.2 0.35 -14.2 0.05" fill="none" stroke="#000000" stroke-linecap="round" stroke-linejoin="round" stroke-opacity="0.0" stroke-width="1.0">
      <animate attributeName="stroke" dur="2s" repeatCount="indefinite" values="#000000;#000001"/>
      <animate attributeName="stroke-width" dur="2s" repeatCount="indefinite" values="0.0;0.0"/>
      <animate attributeName="fill-opacity" dur="2s" repeatCount="indefinite" values="0.0;0.0"/>
      <animate attributeName="d" dur="2s" repeatCount="indefinite" values="M-14.2 0.05 Q-14.2 -5.75 -10.1 -9.85 -6.0 -13.95 -0.2 -13.95 L0.4 -13.95 Q5.8 -13.75 9.7 -9.85 L10.55 -8.95 Q13.8 -5.15 13.8 0.05 L13.7 1.8 13.7 1.9 13.55 2.8 13.55 3.0 Q11.85 4.7 10.55 6.65 L10.25 7.25 10.05 8.8 10.05 9.4 9.9 9.3 9.85 9.25 9.85 8.4 9.7 7.8 9.4 7.1 Q8.9 6.1 7.9 6.0 L7.35 6.05 Q6.5 6.2 6.25 6.9 L6.15 7.1 6.15 7.3 Q5.75 8.7 6.75 9.65 L7.2 10.0 7.2 10.1 7.35 10.4 Q7.65 10.9 7.55 11.45 L7.35 11.45 7.3 11.35 7.3 11.35 7.3 11.35 7.3 11.3 7.2 11.1 6.85 10.65 6.6 10.35 5.8 9.5 5.4 9.15 5.05 8.75 4.8 8.25 Q4.55 7.7 4.55 6.95 L4.55 6.75 4.25 6.05 Q3.75 5.6 3.25 5.45 L3.05 5.45 2.65 5.4 2.25 5.45 Q1.95 5.55 1.65 5.8 L1.5 5.9 1.25 6.3 Q1.2 6.85 1.1 7.4 1.15 7.9 1.2 8.45 L1.2 8.45 0.95 8.7 Q-0.25 9.55 -0.2 10.95 L-0.2 11.05 -0.2 11.15 -0.3 11.05 -1.15 9.75 -1.1 8.75 -0.85 7.8 Q-0.2 6.45 -1.3 5.7 L-1.6 5.55 -2.75 5.6 -3.05 5.75 Q-4.05 6.4 -4.15 7.6 L-4.35 8.7 -4.35 8.9 -4.35 9.0 Q-4.5 9.9 -3.9 10.45 -4.35 10.65 -4.7 10.45 L-5.0 10.15 Q-6.05 8.85 -7.15 7.55 -7.0 6.85 -7.5 6.3 -7.85 5.9 -8.25 6.05 -8.4 6.1 -8.55 6.3 -8.8 6.75 -9.05 7.25 L-9.15 7.45 -9.35 7.3 Q-9.75 6.7 -10.2 6.1 L-10.15 5.7 Q-10.05 4.45 -10.8 3.55 L-11.45 2.95 -11.75 2.8 -12.2 2.55 Q-12.6 2.2 -13.05 1.85 L-14.05 1.35 -14.15 1.25 -14.2 0.35 -14.2 0.05;M-14.2 -0.45 Q-14.0 -5.95 -10.1 -9.85 -6.2 -13.75 -0.8 -13.95 L-0.2 -13.95 Q5.05 -13.95 8.9 -10.6 L9.7 -9.85 Q13.2 -6.35 13.7 -1.6 L13.8 0.05 13.8 0.15 13.7 0.8 13.55 1.0 Q12.4 3.0 11.2 5.0 L10.9 5.6 10.35 6.6 10.05 7.2 10.0 7.4 10.0 7.5 9.45 8.15 9.1 7.65 8.75 7.3 Q7.8 6.55 7.05 7.6 L6.7 7.95 Q6.2 8.5 6.3 9.35 L6.3 9.55 6.2 9.65 Q5.15 10.45 5.05 11.6 L4.85 11.8 4.85 11.8 4.6 12.1 Q4.2 12.6 4.2 13.2 L4.2 13.2 4.2 13.2 4.2 13.2 4.2 13.25 4.1 13.15 4.0 13.05 3.55 12.6 3.55 12.2 3.35 11.2 2.95 10.75 2.55 10.8 2.2 11.05 Q1.9 11.4 1.85 11.95 L1.85 12.4 1.9 13.15 Q2.05 13.65 2.2 14.2 L2.25 14.45 2.35 14.85 2.3 15.2 Q2.3 15.45 2.3 15.75 L2.2 15.65 1.8 15.25 Q1.4 14.95 0.85 14.75 0.4 14.6 0.1 14.95 L0.0 15.05 -0.25 15.45 Q-0.75 16.65 0.4 17.75 L0.45 17.8 0.25 17.8 0.15 17.8 -1.2 17.7 -2.3 17.2 -3.1 16.65 Q-3.85 15.9 -4.1 14.85 L-4.2 14.35 -4.5 13.4 -4.7 13.1 Q-5.4 12.2 -6.1 11.3 L-6.7 10.5 -6.75 10.3 -6.75 10.2 Q-6.9 9.5 -7.05 8.8 -7.05 8.4 -7.05 8.0 L-6.95 7.5 Q-6.6 5.85 -7.25 4.75 -7.6 4.15 -8.25 3.7 -8.5 3.55 -8.8 3.35 -8.9 3.25 -9.05 3.15 -9.45 2.85 -10.0 2.9 L-10.2 2.95 -10.4 3.1 Q-11.0 3.6 -11.05 4.35 L-11.05 4.85 Q-11.65 4.05 -12.25 3.25 L-12.55 2.8 -12.55 2.6 -12.65 2.2 Q-12.85 1.55 -13.45 1.3 L-13.85 0.5 -13.85 0.4 -14.2 -0.45 -14.2 -0.45"/>
    </path>
  </g>
  <defs>
    <radialGradient cx="0" cy="0" gradientTransform="matrix(0.0219, 0.0, 0.0, 0.0242, -0.05, -0.05)" gradientUnits="userSpaceOnUse" id="gradient0" r="819.2" spreadMethod="pad">
      <animateTransform additive="replace" attributeName="gradientTransform" dur="2s" from="1" repeatCount="indefinite" to="1" type="scale"/>
      <animateTransform additive="sum" attributeName="gradientTransform" dur="2s" from="-0.05 -0.05" repeatCount="indefinite" to="-0.05 -0.05" type="translate"/>
      <animateTransform additive="sum" attributeName="gradientTransform" dur="2s" from="0.0" repeatCount="indefinite" to="0.0" type="rotate"/>
      <animateTransform additive="sum" attributeName="gradientTransform" dur="2s" from="0.0219 0.0242" repeatCount="indefinite" to="0.0219 0.0242" type="scale"/>
      <animateTransform additive="sum" attributeName="gradientTransform" dur="2s" from="0.0" repeatCount="indefinite" to="0.0" type="skewX"/>
      <stop offset="0.0" stop-color="#fefe0c" stop-opacity="0.9019608">
        <animate attributeName="offset" dur="2s" repeatCount="indefinite" values="0.0;0.0"/>
        <animate attributeName="stop-color" dur="2s" repeatCount="indefinite" values="#fefe0c;#fefe0d"/>
        <animate attributeName="stop-opacity" dur="2s" repeatCount="indefinite" values="0.9019608;0.9019608"/>
      </stop>
      <stop offset="0.5764705882352941" stop-color="#ffba2b" stop-opacity="0.9019608">
        <animate attributeName="offset" dur="2s" repeatCount="indefinite" values="0.5764705882352941;0.5764705882352941"/>
        <animate attributeName="stop-color" dur="2s" repeatCount="indefinite" values="#ffba2b;#ffba2c"/>
        <animate attributeName="stop-opacity" dur="2s" repeatCount="indefinite" values="0.9019608;0.9019608"/>
      </stop>
      <stop offset="1.0" stop-color="#ff720b" stop-opacity="0.9019608">
        <animate attributeName="offset" dur="2s" repeatCount="indefinite" values="1.0;1.0"/>
        <animate attributeName="stop-color" dur="2s" repeatCount="indefinite" values="#ff720b;#ff720c"/>
        <animate attributeName="stop-opacity" dur="2s" repeatCount="indefinite" values="0.9019608;0.9019608"/>
      </stop>
    </radialGradient>
  </defs>
</svg>
