<?xml version="1.0" encoding="UTF-8" standalone="no"?>
<svg xmlns:xlink="http://www.w3.org/1999/xlink" height="6.1px" width="5.75px" xmlns="http://www.w3.org/2000/svg">
  <g transform="matrix(1.0, 0.0, 0.0, 1.0, 7.9, 11.55)">
    <path d="M-6.45 -10.2 L-6.45 -10.2 -6.45 -10.1 Q-6.45 -9.95 -6.45 -9.8 L-6.45 -9.65 -6.45 -9.65 -6.2 -9.5 -6.2 -9.5 -6.2 -9.5 -6.2 -9.5 -6.1 -9.5 -5.95 -9.45 Q-5.7 -9.55 -5.45 -9.6 L-5.05 -9.5 -5.05 -9.5 -5.05 -9.5 -4.95 -9.5 -4.85 -9.4 -4.6 -9.35 -4.4 -9.35 Q-4.35 -9.35 -4.3 -9.35 L-3.95 -9.6 -3.75 -9.55 Q-3.35 -9.85 -2.95 -10.1 L-2.95 -10.1 -2.9 -10.1 -2.7 -10.2 -2.65 -10.3 Q-2.2 -10.75 -2.55 -11.2 L-2.65 -11.3 -2.9 -11.5 -3.0 -11.4 -3.05 -11.4 -3.15 -11.4 -3.25 -11.3 -3.3 -11.3 -3.4 -11.3 -3.55 -11.4 -3.55 -11.4 -3.65 -11.5 -3.75 -11.5 -3.95 -11.3 -4.05 -11.3 -4.05 -11.3 -4.3 -11.15 -4.4 -11.25 -4.7 -11.5 -4.8 -11.5 -4.95 -11.55 -5.25 -11.55 -5.8 -11.2 -5.8 -11.2 -5.9 -11.0 Q-6.2 -10.6 -6.45 -10.2" fill="#000000" fill-rule="evenodd" stroke="none">
      <animate attributeName="fill" dur="2s" repeatCount="indefinite" values="#000000;#000001"/>
      <animate attributeName="fill-opacity" dur="2s" repeatCount="indefinite" values="1.0;1.0"/>
      <animate attributeName="d" dur="2s" repeatCount="indefinite" values="M-6.45 -10.2 L-6.45 -10.2 -6.45 -10.1 Q-6.45 -9.95 -6.45 -9.8 L-6.45 -9.65 -6.45 -9.65 -6.2 -9.5 -6.2 -9.5 -6.2 -9.5 -6.2 -9.5 -6.1 -9.5 -5.95 -9.45 Q-5.7 -9.55 -5.45 -9.6 L-5.05 -9.5 -5.05 -9.5 -5.05 -9.5 -4.95 -9.5 -4.85 -9.4 -4.6 -9.35 -4.4 -9.35 Q-4.35 -9.35 -4.3 -9.35 L-3.95 -9.6 -3.75 -9.55 Q-3.35 -9.85 -2.95 -10.1 L-2.95 -10.1 -2.9 -10.1 -2.7 -10.2 -2.65 -10.3 Q-2.2 -10.75 -2.55 -11.2 L-2.65 -11.3 -2.9 -11.5 -3.0 -11.4 -3.05 -11.4 -3.15 -11.4 -3.25 -11.3 -3.3 -11.3 -3.4 -11.3 -3.55 -11.4 -3.55 -11.4 -3.65 -11.5 -3.75 -11.5 -3.95 -11.3 -4.05 -11.3 -4.05 -11.3 -4.3 -11.15 -4.4 -11.25 -4.7 -11.5 -4.8 -11.5 -4.95 -11.55 -5.25 -11.55 -5.8 -11.2 -5.8 -11.2 -5.9 -11.0 Q-6.2 -10.6 -6.45 -10.2;M-7.85 -5.65 L-7.75 -5.55 -7.55 -5.45 Q-7.2 -5.35 -7.05 -5.65 L-6.95 -5.9 -6.95 -5.9 -6.75 -6.05 -6.7 -6.05 -6.7 -6.0 -6.7 -5.9 -6.6 -5.8 -6.3 -5.75 Q-5.85 -5.9 -5.5 -6.25 L-5.15 -6.75 -5.1 -6.6 -5.0 -6.5 -4.95 -6.4 -5.0 -6.2 -5.0 -6.1 -4.95 -5.65 Q-4.85 -5.55 -4.75 -5.55 L-4.05 -5.7 -3.7 -5.95 Q-3.25 -6.3 -3.0 -7.0 L-2.95 -7.05 -2.8 -7.2 -2.45 -7.9 -2.35 -8.0 Q-1.85 -8.95 -2.65 -9.5 L-2.65 -9.45 -3.0 -9.3 -3.15 -9.15 -3.15 -8.95 -3.25 -8.65 -3.4 -8.4 -3.4 -8.2 -3.45 -7.9 -3.65 -7.7 -3.8 -7.6 -3.8 -7.65 -3.8 -7.65 -4.2 -8.05 -4.3 -8.25 -4.5 -8.4 -5.0 -8.4 -5.2 -8.35 -5.7 -7.7 -5.75 -7.8 -5.95 -8.0 -6.6 -8.0 -7.15 -7.25 -7.15 -7.25 -7.3 -7.15 Q-8.0 -6.55 -7.85 -5.65"/>
    </path>
    <path d="M-6.45 -10.2 Q-6.2 -10.6 -5.9 -11.0 L-5.8 -11.2 -5.8 -11.2 -5.25 -11.55 -4.95 -11.55 -4.8 -11.5 -4.7 -11.5 -4.4 -11.25 -4.3 -11.15 -4.05 -11.3 -4.05 -11.3 -3.95 -11.3 -3.75 -11.5 -3.65 -11.5 -3.55 -11.4 -3.55 -11.4 -3.4 -11.3 -3.3 -11.3 -3.25 -11.3 -3.15 -11.4 -3.05 -11.4 -3.0 -11.4 -2.9 -11.5 -2.65 -11.3 -2.55 -11.2 Q-2.2 -10.75 -2.65 -10.3 L-2.7 -10.2 -2.9 -10.1 -2.95 -10.1 -2.95 -10.1 Q-3.35 -9.85 -3.75 -9.55 L-3.95 -9.6 -4.3 -9.35 Q-4.35 -9.35 -4.4 -9.35 L-4.6 -9.35 -4.85 -9.4 -4.95 -9.5 -5.05 -9.5 -5.05 -9.5 -5.05 -9.5 -5.45 -9.6 Q-5.7 -9.55 -5.95 -9.45 L-6.1 -9.5 -6.2 -9.5 -6.2 -9.5 -6.2 -9.5 -6.2 -9.5 -6.45 -9.65 -6.45 -9.65 -6.45 -9.8 Q-6.45 -9.95 -6.45 -10.1 L-6.45 -10.2 -6.45 -10.2" fill="none" stroke="#000000" stroke-linecap="round" stroke-linejoin="round" stroke-opacity="0.0" stroke-width="1.0">
      <animate attributeName="stroke" dur="2s" repeatCount="indefinite" values="#000000;#000001"/>
      <animate attributeName="stroke-width" dur="2s" repeatCount="indefinite" values="0.0;0.0"/>
      <animate attributeName="fill-opacity" dur="2s" repeatCount="indefinite" values="0.0;0.0"/>
      <animate attributeName="d" dur="2s" repeatCount="indefinite" values="M-6.45 -10.2 Q-6.2 -10.6 -5.9 -11.0 L-5.8 -11.2 -5.8 -11.2 -5.25 -11.55 -4.95 -11.55 -4.8 -11.5 -4.7 -11.5 -4.4 -11.25 -4.3 -11.15 -4.05 -11.3 -4.05 -11.3 -3.95 -11.3 -3.75 -11.5 -3.65 -11.5 -3.55 -11.4 -3.55 -11.4 -3.4 -11.3 -3.3 -11.3 -3.25 -11.3 -3.15 -11.4 -3.05 -11.4 -3.0 -11.4 -2.9 -11.5 -2.65 -11.3 -2.55 -11.2 Q-2.2 -10.75 -2.65 -10.3 L-2.7 -10.2 -2.9 -10.1 -2.95 -10.1 -2.95 -10.1 Q-3.35 -9.85 -3.75 -9.55 L-3.95 -9.6 -4.3 -9.35 Q-4.35 -9.35 -4.4 -9.35 L-4.6 -9.35 -4.85 -9.4 -4.95 -9.5 -5.05 -9.5 -5.05 -9.5 -5.05 -9.5 -5.45 -9.6 Q-5.7 -9.55 -5.95 -9.45 L-6.1 -9.5 -6.2 -9.5 -6.2 -9.5 -6.2 -9.5 -6.2 -9.5 -6.45 -9.65 -6.45 -9.65 -6.45 -9.8 Q-6.45 -9.95 -6.45 -10.1 L-6.45 -10.2 -6.45 -10.2;M-7.85 -5.65 Q-8.0 -6.55 -7.3 -7.15 L-7.15 -7.25 -7.15 -7.25 -6.6 -8.0 -5.95 -8.0 -5.75 -7.8 -5.7 -7.7 -5.2 -8.35 -5.0 -8.4 -4.5 -8.4 -4.3 -8.25 -4.2 -8.05 -3.8 -7.65 -3.8 -7.65 -3.8 -7.6 -3.65 -7.7 -3.45 -7.9 -3.4 -8.2 -3.4 -8.4 -3.25 -8.65 -3.15 -8.95 -3.15 -9.15 -3.0 -9.3 -2.65 -9.45 -2.65 -9.5 Q-1.85 -8.95 -2.35 -8.0 L-2.45 -7.9 -2.8 -7.2 -2.95 -7.05 -3.0 -7.0 Q-3.25 -6.3 -3.7 -5.95 L-4.05 -5.7 -4.75 -5.55 Q-4.85 -5.55 -4.95 -5.65 L-5.0 -6.1 -5.0 -6.2 -4.95 -6.4 -5.0 -6.5 -5.1 -6.6 -5.15 -6.75 -5.5 -6.25 Q-5.85 -5.9 -6.3 -5.75 L-6.6 -5.8 -6.7 -5.9 -6.7 -6.0 -6.7 -6.05 -6.75 -6.05 -6.95 -5.9 -6.95 -5.9 -7.05 -5.65 Q-7.2 -5.35 -7.55 -5.45 L-7.75 -5.55 -7.85 -5.65"/>
    </path>
  </g>
</svg>
