<?xml version="1.0" encoding="UTF-8" standalone="no"?>
<svg xmlns:xlink="http://www.w3.org/1999/xlink" height="37.6px" width="28.0px" xmlns="http://www.w3.org/2000/svg">
  <g transform="matrix(1.0, 0.0, 0.0, 1.0, 14.2, 13.95)">
    <path d="M-14.2 0.05 Q-14.2 1.75 -13.85 3.3 -12.7 4.85 -12.5 6.8 L-12.2 7.35 -12.1 7.45 -12.0 7.55 -11.85 7.8 -11.45 7.85 Q-10.05 8.05 -9.05 8.9 L-8.85 9.0 -8.35 9.4 -7.5 10.05 Q-6.8 10.7 -6.35 11.55 L-6.1 12.55 Q-6.1 12.95 -6.25 13.35 -5.35 14.25 -5.05 15.4 -5.0 16.1 -4.95 16.8 L-5.0 17.8 -4.9 18.0 Q-4.1 19.2 -3.3 20.35 -2.85 20.55 -2.8 21.15 L-2.7 21.45 -2.7 21.7 -2.6 21.7 -2.45 21.8 -2.35 21.45 Q-2.15 20.75 -1.6 20.45 L-0.8 20.25 Q-0.45 20.25 -0.35 20.6 L0.05 22.5 0.3 23.55 0.3 23.65 Q0.9 22.75 1.5 21.85 1.9 21.4 2.25 21.0 L2.35 20.9 2.85 20.4 3.1 19.95 3.55 18.75 3.7 18.15 4.05 17.3 4.8 16.45 5.05 16.2 Q5.4 15.3 5.7 14.4 L5.75 13.9 Q5.8 13.15 6.1 12.5 6.9 10.7 9.35 9.9 L9.95 9.7 10.1 9.55 10.2 9.4 10.3 9.3 Q10.0 6.55 12.3 5.7 L12.75 5.55 Q13.45 3.9 13.7 2.0 L13.8 0.05 Q13.8 -4.95 10.75 -8.7 L9.7 -9.85 Q5.95 -13.6 0.8 -13.9 L-0.2 -13.95 Q-5.8 -13.95 -9.8 -10.15 L-10.1 -9.85 Q-14.2 -5.75 -14.2 0.05" fill="url(#gradient0)" fill-rule="evenodd" stroke="none">
      <animate attributeName="d" dur="2s" repeatCount="indefinite" values="M-14.2 0.05 Q-14.2 1.75 -13.85 3.3 -12.7 4.85 -12.5 6.8 L-12.2 7.35 -12.1 7.45 -12.0 7.55 -11.85 7.8 -11.45 7.85 Q-10.05 8.05 -9.05 8.9 L-8.85 9.0 -8.35 9.4 -7.5 10.05 Q-6.8 10.7 -6.35 11.55 L-6.1 12.55 Q-6.1 12.95 -6.25 13.35 -5.35 14.25 -5.05 15.4 -5.0 16.1 -4.95 16.8 L-5.0 17.8 -4.9 18.0 Q-4.1 19.2 -3.3 20.35 -2.85 20.55 -2.8 21.15 L-2.7 21.45 -2.7 21.7 -2.6 21.7 -2.45 21.8 -2.35 21.45 Q-2.15 20.75 -1.6 20.45 L-0.8 20.25 Q-0.45 20.25 -0.35 20.6 L0.05 22.5 0.3 23.55 0.3 23.65 Q0.9 22.75 1.5 21.85 1.9 21.4 2.25 21.0 L2.35 20.9 2.85 20.4 3.1 19.95 3.55 18.75 3.7 18.15 4.05 17.3 4.8 16.45 5.05 16.2 Q5.4 15.3 5.7 14.4 L5.75 13.9 Q5.8 13.15 6.1 12.5 6.9 10.7 9.35 9.9 L9.95 9.7 10.1 9.55 10.2 9.4 10.3 9.3 Q10.0 6.55 12.3 5.7 L12.75 5.55 Q13.45 3.9 13.7 2.0 L13.8 0.05 Q13.8 -4.95 10.75 -8.7 L9.7 -9.85 Q5.95 -13.6 0.8 -13.9 L-0.2 -13.95 Q-5.8 -13.95 -9.8 -10.15 L-10.1 -9.85 Q-14.2 -5.75 -14.2 0.05;M-14.2 0.05 Q-14.05 1.45 -13.9 2.85 -13.55 4.55 -12.75 6.05 L-12.5 6.55 -12.5 6.65 -12.5 6.75 -12.2 6.95 -11.9 7.2 Q-10.95 8.1 -10.05 9.0 L-9.95 9.1 -9.6 9.65 -9.1 10.8 Q-8.15 10.9 -7.35 11.45 L-6.6 12.15 Q-6.35 12.45 -6.15 12.75 -5.5 13.55 -5.05 14.5 -4.75 15.1 -4.8 15.9 L-4.8 16.8 -4.8 17.0 Q-3.7 18.2 -3.55 19.65 -3.5 20.1 -3.5 20.5 L-3.5 20.8 -3.35 21.1 -3.35 21.2 -3.25 21.4 -3.15 21.75 Q-2.95 22.45 -2.8 23.1 L-2.55 22.4 Q-2.4 22.0 -2.3 21.65 L-1.25 20.3 -0.3 19.4 -0.2 19.3 Q0.8 18.45 2.05 19.1 2.6 19.35 2.8 19.9 L2.95 19.95 3.05 19.3 3.35 18.6 4.1 17.65 4.8 17.1 5.0 16.5 4.75 15.25 4.8 14.7 Q4.95 13.8 5.65 13.05 L6.0 12.65 Q6.5 12.1 7.0 11.55 8.45 9.9 9.9 8.25 L10.5 7.75 10.6 7.6 10.6 7.4 10.65 7.2 Q11.4 5.0 13.3 3.95 L13.4 3.55 Q13.8 1.85 13.8 0.05 L13.7 -1.8 Q13.1 -6.45 9.7 -9.85 L8.7 -10.8 Q4.9 -13.95 -0.2 -13.95 L-1.1 -13.9 Q-6.35 -13.6 -10.1 -9.85 L-10.4 -9.55 Q-14.2 -5.5 -14.2 0.05"/>
    </path>
    <path d="M-14.2 0.05 Q-14.2 -5.75 -10.1 -9.85 L-9.8 -10.15 Q-5.8 -13.95 -0.2 -13.95 L0.8 -13.9 Q5.95 -13.6 9.7 -9.85 L10.75 -8.7 Q13.8 -4.95 13.8 0.05 L13.7 2.0 Q13.45 3.9 12.75 5.55 L12.3 5.7 Q10.0 6.55 10.3 9.3 L10.2 9.4 10.1 9.55 9.95 9.7 9.35 9.9 Q6.9 10.7 6.1 12.5 5.8 13.15 5.75 13.9 L5.7 14.4 Q5.4 15.3 5.05 16.2 L4.8 16.45 4.05 17.3 3.7 18.15 3.55 18.75 3.1 19.95 2.85 20.4 2.35 20.9 2.25 21.0 Q1.9 21.4 1.5 21.85 0.9 22.75 0.3 23.65 L0.3 23.55 0.05 22.5 -0.35 20.6 Q-0.45 20.25 -0.8 20.25 L-1.6 20.45 Q-2.15 20.75 -2.35 21.45 L-2.45 21.8 -2.6 21.7 -2.7 21.7 -2.7 21.45 -2.8 21.15 Q-2.85 20.55 -3.3 20.35 -4.1 19.2 -4.9 18.0 L-5.0 17.8 -4.95 16.8 Q-5.0 16.1 -5.05 15.4 -5.35 14.25 -6.25 13.35 -6.1 12.95 -6.1 12.55 L-6.35 11.55 Q-6.8 10.7 -7.5 10.05 L-8.35 9.4 -8.85 9.0 -9.05 8.9 Q-10.05 8.05 -11.45 7.85 L-11.85 7.8 -12.0 7.55 -12.1 7.45 -12.2 7.35 -12.5 6.8 Q-12.7 4.85 -13.85 3.3 -14.2 1.75 -14.2 0.05" fill="none" stroke="#000000" stroke-linecap="round" stroke-linejoin="round" stroke-opacity="0.0" stroke-width="1.0">
      <animate attributeName="stroke" dur="2s" repeatCount="indefinite" values="#000000;#000001"/>
      <animate attributeName="stroke-width" dur="2s" repeatCount="indefinite" values="0.0;0.0"/>
      <animate attributeName="fill-opacity" dur="2s" repeatCount="indefinite" values="0.0;0.0"/>
      <animate attributeName="d" dur="2s" repeatCount="indefinite" values="M-14.2 0.05 Q-14.2 -5.75 -10.1 -9.85 L-9.8 -10.15 Q-5.8 -13.95 -0.2 -13.95 L0.8 -13.9 Q5.95 -13.6 9.7 -9.85 L10.75 -8.7 Q13.8 -4.95 13.8 0.05 L13.7 2.0 Q13.45 3.9 12.75 5.55 L12.3 5.7 Q10.0 6.55 10.3 9.3 L10.2 9.4 10.1 9.55 9.95 9.7 9.35 9.9 Q6.9 10.7 6.1 12.5 5.8 13.15 5.75 13.9 L5.7 14.4 Q5.4 15.3 5.05 16.2 L4.8 16.45 4.05 17.3 3.7 18.15 3.55 18.75 3.1 19.95 2.85 20.4 2.35 20.9 2.25 21.0 Q1.9 21.4 1.5 21.85 0.9 22.75 0.3 23.65 L0.3 23.55 0.05 22.5 -0.35 20.6 Q-0.45 20.25 -0.8 20.25 L-1.6 20.45 Q-2.15 20.75 -2.35 21.45 L-2.45 21.8 -2.6 21.7 -2.7 21.7 -2.7 21.45 -2.8 21.15 Q-2.85 20.55 -3.3 20.35 -4.1 19.2 -4.9 18.0 L-5.0 17.8 -4.95 16.8 Q-5.0 16.1 -5.05 15.4 -5.35 14.25 -6.25 13.35 -6.1 12.95 -6.1 12.55 L-6.35 11.55 Q-6.8 10.7 -7.5 10.05 L-8.35 9.4 -8.85 9.0 -9.05 8.9 Q-10.05 8.05 -11.45 7.85 L-11.85 7.8 -12.0 7.55 -12.1 7.45 -12.2 7.35 -12.5 6.8 Q-12.7 4.85 -13.85 3.3 -14.2 1.75 -14.2 0.05;M-14.2 0.05 Q-14.2 -5.5 -10.4 -9.55 L-10.1 -9.85 Q-6.35 -13.6 -1.1 -13.9 L-0.2 -13.95 Q4.9 -13.95 8.7 -10.8 L9.7 -9.85 Q13.1 -6.45 13.7 -1.8 L13.8 0.05 Q13.8 1.85 13.4 3.55 L13.3 3.95 Q11.4 5.0 10.65 7.2 L10.6 7.4 10.6 7.6 10.5 7.75 9.9 8.25 Q8.45 9.9 7.0 11.55 6.5 12.1 6.0 12.65 L5.65 13.05 Q4.95 13.8 4.8 14.7 L4.75 15.25 5.0 16.5 4.8 17.1 4.1 17.65 3.35 18.6 3.05 19.3 2.95 19.95 2.8 19.9 Q2.6 19.35 2.05 19.1 0.8 18.45 -0.2 19.3 L-0.3 19.4 -1.25 20.3 -2.3 21.65 Q-2.4 22.0 -2.55 22.4 L-2.8 23.1 Q-2.95 22.45 -3.15 21.75 L-3.25 21.4 -3.35 21.2 -3.35 21.1 -3.5 20.8 -3.5 20.5 Q-3.5 20.1 -3.55 19.65 -3.7 18.2 -4.8 17.0 L-4.8 16.8 -4.8 15.9 Q-4.75 15.1 -5.05 14.5 -5.5 13.55 -6.15 12.75 -6.35 12.45 -6.6 12.15 L-7.35 11.45 Q-8.15 10.9 -9.1 10.8 L-9.6 9.65 -9.95 9.1 -10.05 9.0 Q-10.95 8.1 -11.9 7.2 L-12.2 6.95 -12.5 6.75 -12.5 6.65 -12.5 6.55 -12.75 6.05 Q-13.55 4.55 -13.9 2.85 -14.05 1.45 -14.2 0.05"/>
    </path>
  </g>
  <defs>
    <radialGradient cx="0" cy="0" gradientTransform="matrix(0.0219, 0.0, 0.0, 0.0242, -0.05, -0.05)" gradientUnits="userSpaceOnUse" id="gradient0" r="819.2" spreadMethod="pad">
      <animateTransform additive="replace" attributeName="gradientTransform" dur="2s" from="1" repeatCount="indefinite" to="1" type="scale"/>
      <animateTransform additive="sum" attributeName="gradientTransform" dur="2s" from="-0.05 -0.05" repeatCount="indefinite" to="-0.05 -0.05" type="translate"/>
      <animateTransform additive="sum" attributeName="gradientTransform" dur="2s" from="0.0" repeatCount="indefinite" to="0.0" type="rotate"/>
      <animateTransform additive="sum" attributeName="gradientTransform" dur="2s" from="0.0219 0.0242" repeatCount="indefinite" to="0.0219 0.0242" type="scale"/>
      <animateTransform additive="sum" attributeName="gradientTransform" dur="2s" from="0.0" repeatCount="indefinite" to="0.0" type="skewX"/>
      <stop offset="0.0" stop-color="#fefe0c" stop-opacity="0.9019608">
        <animate attributeName="offset" dur="2s" repeatCount="indefinite" values="0.0;0.0"/>
        <animate attributeName="stop-color" dur="2s" repeatCount="indefinite" values="#fefe0c;#fefe0d"/>
        <animate attributeName="stop-opacity" dur="2s" repeatCount="indefinite" values="0.9019608;0.9019608"/>
      </stop>
      <stop offset="0.5764705882352941" stop-color="#ffba2b" stop-opacity="0.9019608">
        <animate attributeName="offset" dur="2s" repeatCount="indefinite" values="0.5764705882352941;0.5764705882352941"/>
        <animate attributeName="stop-color" dur="2s" repeatCount="indefinite" values="#ffba2b;#ffba2c"/>
        <animate attributeName="stop-opacity" dur="2s" repeatCount="indefinite" values="0.9019608;0.9019608"/>
      </stop>
      <stop offset="1.0" stop-color="#ff720b" stop-opacity="0.9019608">
        <animate attributeName="offset" dur="2s" repeatCount="indefinite" values="1.0;1.0"/>
        <animate attributeName="stop-color" dur="2s" repeatCount="indefinite" values="#ff720b;#ff720c"/>
        <animate attributeName="stop-opacity" dur="2s" repeatCount="indefinite" values="0.9019608;0.9019608"/>
      </stop>
    </radialGradient>
  </defs>
</svg>
