<?xml version="1.0" encoding="UTF-8" standalone="no"?>
<svg xmlns:xlink="http://www.w3.org/1999/xlink" height="10.25px" width="5.5px" xmlns="http://www.w3.org/2000/svg">
  <g transform="matrix(1.0, 0.0, 0.0, 1.0, 7.35, 3.05)">
    <path d="M-7.35 0.6 L-7.1 0.8 -6.9 0.85 Q-6.4 0.8 -6.3 0.4 L-6.3 0.0 -6.05 -0.1 -5.9 -0.15 -5.9 0.0 -5.85 0.1 -5.85 0.1 -5.85 0.2 -5.7 0.3 -5.6 0.3 Q-4.8 0.4 -4.7 -0.55 L-4.05 -0.65 -3.95 -0.8 -3.95 -0.9 -3.75 -0.9 Q-3.5 -1.0 -3.3 -1.1 L-3.05 -0.7 -2.95 -0.6 Q-2.55 -0.65 -2.2 -0.65 L-2.1 -0.8 Q-1.85 -1.4 -1.85 -2.05 L-1.85 -2.35 Q-1.95 -3.25 -2.85 -2.85 L-2.9 -2.9 -2.9 -2.9 -2.9 -2.9 -3.0 -3.0 -3.3 -3.05 -3.4 -3.05 -3.6 -3.0 -3.85 -2.8 -3.9 -2.55 -3.9 -2.45 -3.95 -2.25 -3.95 -2.25 -4.25 -2.25 -4.3 -2.3 -4.3 -2.4 -4.5 -2.65 -4.65 -2.7 -4.8 -2.7 -5.05 -2.65 -5.4 -2.7 -5.7 -2.5 -5.85 -2.35 -5.9 -2.25 -6.0 -2.05 -6.05 -1.9 Q-6.15 -1.7 -6.25 -1.5 L-6.25 -1.55 Q-6.5 -1.8 -6.75 -2.0 L-6.95 -1.9 -6.95 -1.9 -7.2 -1.75 -7.2 -1.75 -7.3 -1.05 -7.35 -0.55 -7.35 -0.35 -7.35 0.3 -7.35 0.6" fill="#000000" fill-rule="evenodd" stroke="none">
      <animate attributeName="fill" dur="2s" repeatCount="indefinite" values="#000000;#000001"/>
      <animate attributeName="fill-opacity" dur="2s" repeatCount="indefinite" values="1.0;1.0"/>
      <animate attributeName="d" dur="2s" repeatCount="indefinite" values="M-7.35 0.6 L-7.1 0.8 -6.9 0.85 Q-6.4 0.8 -6.3 0.4 L-6.3 0.0 -6.05 -0.1 -5.9 -0.15 -5.9 0.0 -5.85 0.1 -5.85 0.1 -5.85 0.2 -5.7 0.3 -5.6 0.3 Q-4.8 0.4 -4.7 -0.55 L-4.05 -0.65 -3.95 -0.8 -3.95 -0.9 -3.75 -0.9 Q-3.5 -1.0 -3.3 -1.1 L-3.05 -0.7 -2.95 -0.6 Q-2.55 -0.65 -2.2 -0.65 L-2.1 -0.8 Q-1.85 -1.4 -1.85 -2.05 L-1.85 -2.35 Q-1.95 -3.25 -2.85 -2.85 L-2.9 -2.9 -2.9 -2.9 -2.9 -2.9 -3.0 -3.0 -3.3 -3.05 -3.4 -3.05 -3.6 -3.0 -3.85 -2.8 -3.9 -2.55 -3.9 -2.45 -3.95 -2.25 -3.95 -2.25 -4.25 -2.25 -4.3 -2.3 -4.3 -2.4 -4.5 -2.65 -4.65 -2.7 -4.8 -2.7 -5.05 -2.65 -5.4 -2.7 -5.7 -2.5 -5.85 -2.35 -5.9 -2.25 -6.0 -2.05 -6.05 -1.9 Q-6.15 -1.7 -6.25 -1.5 L-6.25 -1.55 Q-6.5 -1.8 -6.75 -2.0 L-6.95 -1.9 -6.95 -1.9 -7.2 -1.75 -7.2 -1.75 -7.3 -1.05 -7.35 -0.55 -7.35 -0.35 -7.35 0.3 -7.35 0.6;M-6.5 5.85 L-6.5 5.85 -6.5 6.05 Q-6.45 6.35 -6.45 6.6 L-6.15 7.0 -5.9 7.15 -5.8 7.2 -5.75 7.2 -5.75 7.2 -5.75 7.2 -5.65 7.2 -5.6 7.1 -5.45 6.9 Q-5.25 6.35 -5.05 5.8 L-5.0 5.25 -4.9 5.2 -4.7 5.2 -4.55 5.15 Q-4.2 5.0 -4.0 4.65 L-3.85 4.25 -3.7 4.25 Q-3.25 4.1 -3.3 3.6 L-3.25 3.5 Q-2.95 2.9 -2.65 2.3 L-2.55 2.0 Q-2.2 1.15 -2.6 0.75 L-2.7 0.65 -2.9 0.45 -3.05 0.45 -3.15 0.5 -3.25 0.65 -3.25 0.95 -3.35 1.15 -3.4 1.5 -3.5 1.8 -3.6 1.95 -3.65 2.15 -3.65 2.15 -3.75 2.35 -3.75 2.35 -3.8 2.35 -3.9 2.45 -4.05 2.35 -4.25 2.25 -4.4 2.3 -4.55 2.45 -4.7 2.6 -4.7 2.9 -4.7 3.1 -4.75 3.3 -4.75 3.4 Q-4.95 3.25 -5.1 3.25 L-5.2 3.25 Q-5.55 3.25 -5.8 3.65 L-5.9 3.85 -5.9 3.95 -5.85 4.15 -5.85 4.25 -5.9 4.85 -6.0 5.25 -6.15 5.3 -6.45 5.55 -6.5 5.85"/>
    </path>
    <path d="M-7.35 0.6 L-7.35 0.3 -7.35 -0.35 -7.35 -0.55 -7.3 -1.05 -7.2 -1.75 -7.2 -1.75 -6.95 -1.9 -6.95 -1.9 -6.75 -2.0 Q-6.5 -1.8 -6.25 -1.55 L-6.25 -1.5 Q-6.15 -1.7 -6.05 -1.9 L-6.0 -2.05 -5.9 -2.25 -5.85 -2.35 -5.7 -2.5 -5.4 -2.7 -5.05 -2.65 -4.8 -2.7 -4.65 -2.7 -4.5 -2.65 -4.3 -2.4 -4.3 -2.3 -4.25 -2.25 -3.95 -2.25 -3.95 -2.25 -3.9 -2.45 -3.9 -2.55 -3.85 -2.8 -3.6 -3.0 -3.4 -3.05 -3.3 -3.05 -3.0 -3.0 -2.9 -2.9 -2.9 -2.9 -2.9 -2.9 -2.85 -2.85 Q-1.95 -3.25 -1.85 -2.35 L-1.85 -2.05 Q-1.85 -1.4 -2.1 -0.8 L-2.2 -0.65 Q-2.55 -0.65 -2.95 -0.6 L-3.05 -0.7 -3.3 -1.1 Q-3.5 -1.0 -3.75 -0.9 L-3.95 -0.9 -3.95 -0.8 -4.05 -0.65 -4.7 -0.55 Q-4.8 0.4 -5.6 0.3 L-5.7 0.3 -5.85 0.2 -5.85 0.1 -5.85 0.1 -5.9 0.0 -5.9 -0.15 -6.05 -0.1 -6.3 0.0 -6.3 0.4 Q-6.4 0.8 -6.9 0.85 L-7.1 0.8 -7.35 0.6" fill="none" stroke="#000000" stroke-linecap="round" stroke-linejoin="round" stroke-opacity="0.0" stroke-width="1.0">
      <animate attributeName="stroke" dur="2s" repeatCount="indefinite" values="#000000;#000001"/>
      <animate attributeName="stroke-width" dur="2s" repeatCount="indefinite" values="0.0;0.0"/>
      <animate attributeName="fill-opacity" dur="2s" repeatCount="indefinite" values="0.0;0.0"/>
      <animate attributeName="d" dur="2s" repeatCount="indefinite" values="M-7.35 0.6 L-7.35 0.3 -7.35 -0.35 -7.35 -0.55 -7.3 -1.05 -7.2 -1.75 -7.2 -1.75 -6.95 -1.9 -6.95 -1.9 -6.75 -2.0 Q-6.5 -1.8 -6.25 -1.55 L-6.25 -1.5 Q-6.15 -1.7 -6.05 -1.9 L-6.0 -2.05 -5.9 -2.25 -5.85 -2.35 -5.7 -2.5 -5.4 -2.7 -5.05 -2.65 -4.8 -2.7 -4.65 -2.7 -4.5 -2.65 -4.3 -2.4 -4.3 -2.3 -4.25 -2.25 -3.95 -2.25 -3.95 -2.25 -3.9 -2.45 -3.9 -2.55 -3.85 -2.8 -3.6 -3.0 -3.4 -3.05 -3.3 -3.05 -3.0 -3.0 -2.9 -2.9 -2.9 -2.9 -2.9 -2.9 -2.85 -2.85 Q-1.95 -3.25 -1.85 -2.35 L-1.85 -2.05 Q-1.85 -1.4 -2.1 -0.8 L-2.2 -0.65 Q-2.55 -0.65 -2.95 -0.6 L-3.05 -0.7 -3.3 -1.1 Q-3.5 -1.0 -3.75 -0.9 L-3.95 -0.9 -3.95 -0.8 -4.05 -0.65 -4.7 -0.55 Q-4.8 0.4 -5.6 0.3 L-5.7 0.3 -5.85 0.2 -5.85 0.1 -5.85 0.1 -5.9 0.0 -5.9 -0.15 -6.05 -0.1 -6.3 0.0 -6.3 0.4 Q-6.4 0.8 -6.9 0.85 L-7.1 0.8 -7.35 0.6;M-6.5 5.85 L-6.45 5.55 -6.15 5.3 -6.0 5.25 -5.9 4.85 -5.85 4.25 -5.85 4.15 -5.9 3.95 -5.9 3.85 -5.8 3.65 Q-5.55 3.25 -5.2 3.25 L-5.1 3.25 Q-4.95 3.25 -4.75 3.4 L-4.75 3.3 -4.7 3.1 -4.7 2.9 -4.7 2.6 -4.55 2.45 -4.4 2.3 -4.25 2.25 -4.05 2.35 -3.9 2.45 -3.8 2.35 -3.75 2.35 -3.75 2.35 -3.65 2.15 -3.65 2.15 -3.6 1.95 -3.5 1.8 -3.4 1.5 -3.35 1.15 -3.25 0.95 -3.25 0.65 -3.15 0.5 -3.05 0.45 -2.9 0.45 -2.7 0.65 -2.6 0.75 Q-2.2 1.15 -2.55 2.0 L-2.65 2.3 Q-2.95 2.9 -3.25 3.5 L-3.3 3.6 Q-3.25 4.1 -3.7 4.25 L-3.85 4.25 -4.0 4.65 Q-4.2 5.0 -4.55 5.15 L-4.7 5.2 -4.9 5.2 -5.0 5.25 -5.05 5.8 Q-5.25 6.35 -5.45 6.9 L-5.6 7.1 -5.65 7.2 -5.75 7.2 -5.75 7.2 -5.75 7.2 -5.8 7.2 -5.9 7.15 -6.15 7.0 -6.45 6.6 Q-6.45 6.35 -6.5 6.05 L-6.5 5.85 -6.5 5.85"/>
    </path>
  </g>
</svg>
