<?xml version="1.0" encoding="UTF-8" standalone="no"?>
<svg xmlns:xlink="http://www.w3.org/1999/xlink" height="9.9px" width="5.6px" xmlns="http://www.w3.org/2000/svg">
  <g transform="matrix(1.0, 0.0, 0.0, 1.0, 6.5, -0.45)">
    <path d="M-6.5 5.85 L-6.5 5.9 -6.45 6.6 -6.05 7.05 -5.75 7.2 -5.6 7.1 Q-5.3 6.55 -5.05 6.05 L-5.0 5.25 -4.9 5.2 Q-4.25 5.15 -4.0 4.6 L-3.85 4.25 -3.7 4.2 -3.45 4.05 Q-3.25 3.9 -3.3 3.6 L-2.65 2.2 -2.55 2.0 -2.4 1.3 Q-2.45 0.75 -2.9 0.45 L-3.05 0.45 -3.05 0.5 -3.15 0.5 -3.25 0.65 Q-3.3 1.3 -3.6 1.85 L-3.6 1.95 -3.65 2.15 -3.7 2.3 -3.85 2.45 -3.9 2.45 -4.05 2.35 -4.25 2.25 -4.5 2.4 -4.7 2.6 -4.7 2.9 -4.7 3.0 -4.75 3.2 -4.75 3.4 -5.7 3.5 -5.8 3.65 -5.9 3.85 -5.85 4.15 -5.85 4.35 -5.9 4.55 -5.9 4.65 -5.9 4.75 -5.9 4.85 -6.0 5.25 -6.15 5.3 -6.15 5.3 Q-6.3 5.45 -6.45 5.55 L-6.5 5.85" fill="#000000" fill-rule="evenodd" stroke="none">
      <animate attributeName="fill" dur="2s" repeatCount="indefinite" values="#000000;#000001"/>
      <animate attributeName="fill-opacity" dur="2s" repeatCount="indefinite" values="1.0;1.0"/>
      <animate attributeName="d" dur="2s" repeatCount="indefinite" values="M-6.5 5.85 L-6.5 5.9 -6.45 6.6 -6.05 7.05 -5.75 7.2 -5.6 7.1 Q-5.3 6.55 -5.05 6.05 L-5.0 5.25 -4.9 5.2 Q-4.25 5.15 -4.0 4.6 L-3.85 4.25 -3.7 4.2 -3.45 4.05 Q-3.25 3.9 -3.3 3.6 L-2.65 2.2 -2.55 2.0 -2.4 1.3 Q-2.45 0.75 -2.9 0.45 L-3.05 0.45 -3.05 0.5 -3.15 0.5 -3.25 0.65 Q-3.3 1.3 -3.6 1.85 L-3.6 1.95 -3.65 2.15 -3.7 2.3 -3.85 2.45 -3.9 2.45 -4.05 2.35 -4.25 2.25 -4.5 2.4 -4.7 2.6 -4.7 2.9 -4.7 3.0 -4.75 3.2 -4.75 3.4 -5.7 3.5 -5.8 3.65 -5.9 3.85 -5.85 4.15 -5.85 4.35 -5.9 4.55 -5.9 4.65 -5.9 4.75 -5.9 4.85 -6.0 5.25 -6.15 5.3 -6.15 5.3 Q-6.3 5.45 -6.45 5.55 L-6.5 5.85;M-5.2 8.05 L-5.2 8.05 -5.2 8.85 -5.2 9.35 -5.2 9.7 -5.05 9.95 Q-4.8 10.45 -4.05 10.3 L-3.35 10.05 -3.2 9.9 Q-2.95 9.6 -2.95 9.05 L-2.6 9.1 -2.5 9.1 -2.35 9.0 Q-2.2 8.7 -2.1 8.4 L-2.0 6.95 -1.8 7.1 -1.15 7.0 Q-1.0 6.6 -0.9 6.2 L-0.9 6.1 -0.9 6.0 -0.9 5.9 -0.9 5.55 Q-0.95 4.85 -1.5 4.45 L-1.65 4.5 -1.85 4.6 -1.95 4.7 -1.95 5.0 -1.95 5.0 -1.95 5.2 -2.05 5.3 -2.4 5.2 -2.65 5.3 -2.9 5.5 -2.9 5.5 -2.9 5.8 -2.9 6.1 -3.0 7.0 -3.15 7.05 -3.3 7.15 -3.45 7.3 -3.45 7.3 -3.5 7.6 -3.5 7.7 -3.6 7.75 -3.7 7.8 -4.15 7.9 -4.35 8.0 -4.35 8.0 Q-4.65 7.7 -4.9 7.85 L-5.2 8.05"/>
    </path>
    <path d="M-6.5 5.85 L-6.45 5.55 Q-6.3 5.45 -6.15 5.3 L-6.15 5.3 -6.0 5.25 -5.9 4.85 -5.9 4.75 -5.9 4.65 -5.9 4.55 -5.85 4.35 -5.85 4.15 -5.9 3.85 -5.8 3.65 -5.7 3.5 -4.75 3.4 -4.75 3.2 -4.7 3.0 -4.7 2.9 -4.7 2.6 -4.5 2.4 -4.25 2.25 -4.05 2.35 -3.9 2.45 -3.85 2.45 -3.7 2.3 -3.65 2.15 -3.6 1.95 -3.6 1.85 Q-3.3 1.3 -3.25 0.65 L-3.15 0.5 -3.05 0.5 -3.05 0.45 -2.9 0.45 Q-2.45 0.75 -2.4 1.3 L-2.55 2.0 -2.65 2.2 -3.3 3.6 Q-3.25 3.9 -3.45 4.05 L-3.7 4.2 -3.85 4.25 -4.0 4.6 Q-4.25 5.15 -4.9 5.2 L-5.0 5.25 -5.05 6.05 Q-5.3 6.55 -5.6 7.1 L-5.75 7.2 -6.05 7.05 -6.45 6.6 -6.5 5.9 -6.5 5.85" fill="none" stroke="#000000" stroke-linecap="round" stroke-linejoin="round" stroke-opacity="0.0" stroke-width="1.0">
      <animate attributeName="stroke" dur="2s" repeatCount="indefinite" values="#000000;#000001"/>
      <animate attributeName="stroke-width" dur="2s" repeatCount="indefinite" values="0.0;0.0"/>
      <animate attributeName="fill-opacity" dur="2s" repeatCount="indefinite" values="0.0;0.0"/>
      <animate attributeName="d" dur="2s" repeatCount="indefinite" values="M-6.5 5.85 L-6.45 5.55 Q-6.3 5.45 -6.15 5.3 L-6.15 5.3 -6.0 5.25 -5.9 4.85 -5.9 4.75 -5.9 4.65 -5.9 4.55 -5.85 4.35 -5.85 4.15 -5.9 3.85 -5.8 3.65 -5.7 3.5 -4.75 3.4 -4.75 3.2 -4.7 3.0 -4.7 2.9 -4.7 2.6 -4.5 2.4 -4.25 2.25 -4.05 2.35 -3.9 2.45 -3.85 2.45 -3.7 2.3 -3.65 2.15 -3.6 1.95 -3.6 1.85 Q-3.3 1.3 -3.25 0.65 L-3.15 0.5 -3.05 0.5 -3.05 0.45 -2.9 0.45 Q-2.45 0.75 -2.4 1.3 L-2.55 2.0 -2.65 2.2 -3.3 3.6 Q-3.25 3.9 -3.45 4.05 L-3.7 4.2 -3.85 4.25 -4.0 4.6 Q-4.25 5.15 -4.9 5.2 L-5.0 5.25 -5.05 6.05 Q-5.3 6.55 -5.6 7.1 L-5.75 7.2 -6.05 7.05 -6.45 6.6 -6.5 5.9 -6.5 5.85;M-5.2 8.05 L-4.9 7.85 Q-4.65 7.7 -4.35 8.0 L-4.35 8.0 -4.15 7.9 -3.7 7.8 -3.6 7.75 -3.5 7.7 -3.5 7.6 -3.45 7.3 -3.45 7.3 -3.3 7.15 -3.15 7.05 -3.0 7.0 -2.9 6.1 -2.9 5.8 -2.9 5.5 -2.9 5.5 -2.65 5.3 -2.4 5.2 -2.05 5.3 -1.95 5.2 -1.95 5.0 -1.95 5.0 -1.95 4.7 -1.85 4.6 -1.65 4.5 -1.5 4.45 Q-0.95 4.85 -0.9 5.55 L-0.9 5.9 -0.9 6.0 -0.9 6.1 -0.9 6.2 Q-1.0 6.6 -1.15 7.0 L-1.8 7.1 -2.0 6.95 -2.1 8.4 Q-2.2 8.7 -2.35 9.0 L-2.5 9.1 -2.6 9.1 -2.95 9.05 Q-2.95 9.6 -3.2 9.9 L-3.35 10.05 -4.05 10.3 Q-4.8 10.45 -5.05 9.95 L-5.2 9.7 -5.2 9.35 -5.2 8.85 -5.2 8.05 -5.2 8.05"/>
    </path>
  </g>
</svg>
