<?xml version="1.0" encoding="UTF-8" standalone="no"?>
<svg xmlns:xlink="http://www.w3.org/1999/xlink" height="5.55px" width="5.35px" xmlns="http://www.w3.org/2000/svg">
  <g transform="matrix(1.0, 0.0, 0.0, 1.0, -5.6, 7.5)">
    <path d="M5.6 -4.65 L5.6 -4.65 Q5.6 -4.3 5.85 -4.1 L6.15 -3.9 6.25 -3.8 6.35 -3.75 6.55 -3.65 6.65 -3.6 Q7.1 -3.5 7.35 -4.35 L7.35 -4.45 7.55 -4.3 8.4 -4.35 9.2 -4.65 Q9.6 -5.0 9.45 -5.8 L9.45 -5.9 9.55 -6.0 9.75 -6.75 Q9.5 -7.15 9.25 -7.5 L9.25 -7.45 9.1 -7.45 9.05 -7.4 9.05 -7.4 9.05 -7.3 8.95 -7.3 8.85 -7.25 8.8 -7.0 8.65 -6.8 8.55 -6.7 8.55 -6.4 8.5 -6.05 8.35 -6.05 8.15 -6.0 7.8 -6.0 7.7 -6.15 Q7.55 -6.35 7.45 -6.55 L7.45 -6.65 Q7.3 -7.2 6.9 -7.0 L6.55 -6.8 6.5 -6.4 6.55 -6.1 6.55 -5.9 6.55 -5.6 Q6.5 -5.25 6.5 -4.9 L6.5 -4.8 6.45 -4.85 6.25 -4.95 6.1 -5.0 6.0 -5.0 Q5.8 -4.8 5.6 -4.65" fill="#000000" fill-rule="evenodd" stroke="none">
      <animate attributeName="fill" dur="2s" repeatCount="indefinite" values="#000000;#000001"/>
      <animate attributeName="fill-opacity" dur="2s" repeatCount="indefinite" values="1.0;1.0"/>
      <animate attributeName="d" dur="2s" repeatCount="indefinite" values="M5.6 -4.65 L5.6 -4.65 Q5.6 -4.3 5.85 -4.1 L6.15 -3.9 6.25 -3.8 6.35 -3.75 6.55 -3.65 6.65 -3.6 Q7.1 -3.5 7.35 -4.35 L7.35 -4.45 7.55 -4.3 8.4 -4.35 9.2 -4.65 Q9.6 -5.0 9.45 -5.8 L9.45 -5.9 9.55 -6.0 9.75 -6.75 Q9.5 -7.15 9.25 -7.5 L9.25 -7.45 9.1 -7.45 9.05 -7.4 9.05 -7.4 9.05 -7.3 8.95 -7.3 8.85 -7.25 8.8 -7.0 8.65 -6.8 8.55 -6.7 8.55 -6.4 8.5 -6.05 8.35 -6.05 8.15 -6.0 7.8 -6.0 7.7 -6.15 Q7.55 -6.35 7.45 -6.55 L7.45 -6.65 Q7.3 -7.2 6.9 -7.0 L6.55 -6.8 6.5 -6.4 6.55 -6.1 6.55 -5.9 6.55 -5.6 Q6.5 -5.25 6.5 -4.9 L6.5 -4.8 6.45 -4.85 6.25 -4.95 6.1 -5.0 6.0 -5.0 Q5.8 -4.8 5.6 -4.65;M6.55 -2.9 L6.75 -2.8 Q6.95 -2.65 7.2 -2.65 L7.5 -2.7 7.65 -2.6 7.85 -2.55 8.05 -2.6 8.2 -2.6 Q8.65 -1.65 9.45 -2.05 L9.45 -2.05 9.5 -2.35 9.55 -3.4 10.35 -2.8 Q11.0 -3.1 10.9 -4.0 L10.9 -4.0 10.85 -4.3 10.9 -5.2 Q11.05 -5.8 10.8 -6.15 L10.7 -6.25 10.6 -6.35 10.45 -6.45 10.35 -6.55 10.2 -6.55 10.1 -6.5 10.0 -6.45 9.95 -6.05 9.85 -5.75 9.85 -5.55 9.85 -5.25 9.85 -4.75 9.75 -4.8 9.55 -5.0 9.35 -5.15 9.2 -5.2 Q8.8 -5.25 8.7 -4.85 L8.7 -4.65 Q8.7 -4.05 8.5 -3.9 L8.5 -4.25 8.15 -4.7 8.0 -4.8 7.8 -4.75 7.55 -4.5 Q7.1 -4.5 6.9 -4.2 L6.85 -4.0 6.85 -3.9 6.85 -3.65 6.8 -3.55 6.7 -3.45 Q6.45 -3.2 6.55 -2.9"/>
    </path>
    <path d="M5.6 -4.65 Q5.8 -4.8 6.0 -5.0 L6.1 -5.0 6.25 -4.95 6.45 -4.85 6.5 -4.8 6.5 -4.9 Q6.5 -5.25 6.55 -5.6 L6.55 -5.9 6.55 -6.1 6.5 -6.4 6.55 -6.8 6.9 -7.0 Q7.3 -7.2 7.45 -6.65 L7.45 -6.55 Q7.55 -6.35 7.7 -6.15 L7.8 -6.0 8.15 -6.0 8.35 -6.05 8.5 -6.05 8.55 -6.4 8.55 -6.7 8.65 -6.8 8.8 -7.0 8.85 -7.25 8.95 -7.3 9.05 -7.3 9.05 -7.4 9.05 -7.4 9.1 -7.45 9.25 -7.45 9.25 -7.5 Q9.5 -7.15 9.75 -6.75 L9.55 -6.0 9.45 -5.9 9.45 -5.8 Q9.6 -5.0 9.2 -4.65 L8.4 -4.35 7.55 -4.3 7.35 -4.45 7.35 -4.35 Q7.1 -3.5 6.65 -3.6 L6.55 -3.65 6.35 -3.75 6.25 -3.8 6.15 -3.9 5.85 -4.1 Q5.6 -4.3 5.6 -4.65 L5.6 -4.65" fill="none" stroke="#000000" stroke-linecap="round" stroke-linejoin="round" stroke-opacity="0.0" stroke-width="1.0">
      <animate attributeName="stroke" dur="2s" repeatCount="indefinite" values="#000000;#000001"/>
      <animate attributeName="stroke-width" dur="2s" repeatCount="indefinite" values="0.0;0.0"/>
      <animate attributeName="fill-opacity" dur="2s" repeatCount="indefinite" values="0.0;0.0"/>
      <animate attributeName="d" dur="2s" repeatCount="indefinite" values="M5.6 -4.65 Q5.8 -4.8 6.0 -5.0 L6.1 -5.0 6.25 -4.95 6.45 -4.85 6.5 -4.8 6.5 -4.9 Q6.5 -5.25 6.55 -5.6 L6.55 -5.9 6.55 -6.1 6.5 -6.4 6.55 -6.8 6.9 -7.0 Q7.3 -7.2 7.45 -6.65 L7.45 -6.55 Q7.55 -6.35 7.7 -6.15 L7.8 -6.0 8.15 -6.0 8.35 -6.05 8.5 -6.05 8.55 -6.4 8.55 -6.7 8.65 -6.8 8.8 -7.0 8.85 -7.25 8.95 -7.3 9.05 -7.3 9.05 -7.4 9.05 -7.4 9.1 -7.45 9.25 -7.45 9.25 -7.5 Q9.5 -7.15 9.75 -6.75 L9.55 -6.0 9.45 -5.9 9.45 -5.8 Q9.6 -5.0 9.2 -4.65 L8.4 -4.35 7.55 -4.3 7.35 -4.45 7.35 -4.35 Q7.1 -3.5 6.65 -3.6 L6.55 -3.65 6.35 -3.75 6.25 -3.8 6.15 -3.9 5.85 -4.1 Q5.6 -4.3 5.6 -4.65 L5.6 -4.65;M6.55 -2.9 Q6.45 -3.2 6.7 -3.45 L6.8 -3.55 6.85 -3.65 6.85 -3.9 6.85 -4.0 6.9 -4.2 Q7.1 -4.5 7.55 -4.5 L7.8 -4.75 8.0 -4.8 8.15 -4.7 8.5 -4.25 8.5 -3.9 Q8.7 -4.05 8.7 -4.65 L8.7 -4.85 Q8.8 -5.25 9.2 -5.2 L9.35 -5.15 9.55 -5.0 9.75 -4.8 9.85 -4.75 9.85 -5.25 9.85 -5.55 9.85 -5.75 9.95 -6.05 10.0 -6.45 10.1 -6.5 10.2 -6.55 10.35 -6.55 10.45 -6.45 10.6 -6.35 10.7 -6.25 10.8 -6.15 Q11.05 -5.8 10.9 -5.2 L10.85 -4.3 10.9 -4.0 10.9 -4.0 Q11.0 -3.1 10.35 -2.8 L9.55 -3.4 9.5 -2.35 9.45 -2.05 9.45 -2.05 Q8.65 -1.65 8.2 -2.6 L8.05 -2.6 7.85 -2.55 7.65 -2.6 7.5 -2.7 7.2 -2.65 Q6.95 -2.65 6.75 -2.8 L6.55 -2.9"/>
    </path>
  </g>
</svg>
