<?xml version="1.0" encoding="UTF-8" standalone="no"?>
<svg xmlns:xlink="http://www.w3.org/1999/xlink" height="11.35px" width="5.15px" xmlns="http://www.w3.org/2000/svg">
  <g transform="matrix(1.0, 0.0, 0.0, 1.0, 5.25, -4.45)">
    <path d="M-5.2 8.05 L-5.2 8.05 Q-5.2 8.7 -5.2 9.35 L-5.15 9.65 Q-5.0 10.5 -4.05 10.3 L-3.6 10.15 -3.15 9.8 -3.0 9.5 -2.95 9.15 -2.95 9.05 -2.5 9.1 -2.4 9.1 -2.35 9.0 -2.2 8.7 Q-1.95 8.05 -2.0 7.25 L-2.0 6.95 -1.25 7.1 -1.15 7.0 Q-1.0 6.5 -0.9 6.0 L-0.9 5.5 -0.9 5.4 Q-0.95 4.95 -1.25 4.65 L-1.5 4.45 -1.55 4.45 -1.65 4.45 -1.95 4.7 -1.95 4.7 -1.95 5.0 -2.05 5.3 -2.15 5.3 -2.4 5.2 Q-2.75 5.2 -2.9 5.5 L-2.9 5.8 Q-2.95 6.4 -3.0 7.0 L-3.15 7.05 Q-3.3 7.2 -3.45 7.3 L-3.45 7.4 -3.5 7.6 -3.5 7.7 -3.6 7.75 -3.7 7.8 -4.15 7.85 -4.35 8.0 -5.2 8.05" fill="#000000" fill-rule="evenodd" stroke="none">
      <animate attributeName="fill" dur="2s" repeatCount="indefinite" values="#000000;#000001"/>
      <animate attributeName="fill-opacity" dur="2s" repeatCount="indefinite" values="1.0;1.0"/>
      <animate attributeName="d" dur="2s" repeatCount="indefinite" values="M-5.2 8.05 L-5.2 8.05 Q-5.2 8.7 -5.2 9.35 L-5.15 9.65 Q-5.0 10.5 -4.05 10.3 L-3.6 10.15 -3.15 9.8 -3.0 9.5 -2.95 9.15 -2.95 9.05 -2.5 9.1 -2.4 9.1 -2.35 9.0 -2.2 8.7 Q-1.95 8.05 -2.0 7.25 L-2.0 6.95 -1.25 7.1 -1.15 7.0 Q-1.0 6.5 -0.9 6.0 L-0.9 5.5 -0.9 5.4 Q-0.95 4.95 -1.25 4.65 L-1.5 4.45 -1.55 4.45 -1.65 4.45 -1.95 4.7 -1.95 4.7 -1.95 5.0 -2.05 5.3 -2.15 5.3 -2.4 5.2 Q-2.75 5.2 -2.9 5.5 L-2.9 5.8 Q-2.95 6.4 -3.0 7.0 L-3.15 7.05 Q-3.3 7.2 -3.45 7.3 L-3.45 7.4 -3.5 7.6 -3.5 7.7 -3.6 7.75 -3.7 7.8 -4.15 7.85 -4.35 8.0 -5.2 8.05;M-4.3 14.55 L-4.3 14.75 Q-4.35 15.55 -3.65 15.8 L-3.5 15.75 Q-3.2 15.1 -2.95 14.5 L-2.8 13.85 -2.15 13.7 -2.05 13.5 -2.0 13.3 -1.75 13.35 -1.25 13.3 -1.15 13.2 -1.15 13.1 -1.05 12.9 Q-1.0 12.2 -0.95 11.5 L-0.6 11.3 -0.2 10.6 -0.15 10.3 Q-0.05 9.75 -0.3 9.35 L-0.65 9.0 -0.65 9.05 Q-1.0 9.05 -1.15 9.35 L-1.1 9.65 -1.1 9.65 -1.1 9.75 -1.2 10.05 -1.2 10.05 -1.4 10.0 -1.8 10.25 -1.9 10.35 -1.9 10.55 Q-1.85 10.95 -1.85 11.35 L-1.95 11.6 Q-2.15 12.1 -2.7 12.45 L-2.95 12.45 Q-3.35 12.5 -3.45 12.9 L-3.45 13.0 -3.5 13.05 -3.6 13.05 -3.7 13.05 -3.8 13.05 -4.2 13.35 -4.2 13.65 -4.3 14.55"/>
    </path>
    <path d="M-5.2 8.05 L-4.35 8.0 -4.15 7.85 -3.7 7.8 -3.6 7.75 -3.5 7.7 -3.5 7.6 -3.45 7.4 -3.45 7.3 Q-3.3 7.2 -3.15 7.05 L-3.0 7.0 Q-2.95 6.4 -2.9 5.8 L-2.9 5.5 Q-2.75 5.2 -2.4 5.2 L-2.15 5.3 -2.05 5.3 -1.95 5.0 -1.95 4.7 -1.95 4.7 -1.65 4.45 -1.55 4.45 -1.5 4.45 -1.25 4.65 Q-0.95 4.95 -0.9 5.4 L-0.9 5.5 -0.9 6.0 Q-1.0 6.5 -1.15 7.0 L-1.25 7.1 -2.0 6.95 -2.0 7.25 Q-1.95 8.05 -2.2 8.7 L-2.35 9.0 -2.4 9.1 -2.5 9.1 -2.95 9.05 -2.95 9.15 -3.0 9.5 -3.15 9.8 -3.6 10.15 -4.05 10.3 Q-5.0 10.5 -5.15 9.65 L-5.2 9.35 Q-5.2 8.7 -5.2 8.05 L-5.2 8.05" fill="none" stroke="#000000" stroke-linecap="round" stroke-linejoin="round" stroke-opacity="0.0" stroke-width="1.0">
      <animate attributeName="stroke" dur="2s" repeatCount="indefinite" values="#000000;#000001"/>
      <animate attributeName="stroke-width" dur="2s" repeatCount="indefinite" values="0.0;0.0"/>
      <animate attributeName="fill-opacity" dur="2s" repeatCount="indefinite" values="0.0;0.0"/>
      <animate attributeName="d" dur="2s" repeatCount="indefinite" values="M-5.2 8.05 L-4.35 8.0 -4.15 7.85 -3.7 7.8 -3.6 7.75 -3.5 7.7 -3.5 7.6 -3.45 7.4 -3.45 7.3 Q-3.3 7.2 -3.15 7.05 L-3.0 7.0 Q-2.95 6.4 -2.9 5.8 L-2.9 5.5 Q-2.75 5.2 -2.4 5.2 L-2.15 5.3 -2.05 5.3 -1.95 5.0 -1.95 4.7 -1.95 4.7 -1.65 4.45 -1.55 4.45 -1.5 4.45 -1.25 4.65 Q-0.95 4.95 -0.9 5.4 L-0.9 5.5 -0.9 6.0 Q-1.0 6.5 -1.15 7.0 L-1.25 7.1 -2.0 6.95 -2.0 7.25 Q-1.95 8.05 -2.2 8.7 L-2.35 9.0 -2.4 9.1 -2.5 9.1 -2.95 9.05 -2.95 9.15 -3.0 9.5 -3.15 9.8 -3.6 10.15 -4.05 10.3 Q-5.0 10.5 -5.15 9.65 L-5.2 9.35 Q-5.2 8.7 -5.2 8.05 L-5.2 8.05;M-4.3 14.55 L-4.2 13.65 -4.2 13.35 -3.8 13.05 -3.7 13.05 -3.6 13.05 -3.5 13.05 -3.45 13.0 -3.45 12.9 Q-3.35 12.5 -2.95 12.45 L-2.7 12.45 Q-2.15 12.1 -1.95 11.6 L-1.85 11.35 Q-1.85 10.95 -1.9 10.55 L-1.9 10.35 -1.8 10.25 -1.4 10.0 -1.2 10.05 -1.2 10.05 -1.1 9.75 -1.1 9.65 -1.1 9.65 -1.15 9.35 Q-1.0 9.05 -0.65 9.05 L-0.65 9.0 -0.3 9.35 Q-0.05 9.75 -0.15 10.3 L-0.2 10.6 -0.6 11.3 -0.95 11.5 Q-1.0 12.2 -1.05 12.9 L-1.15 13.1 -1.15 13.2 -1.25 13.3 -1.75 13.35 -2.0 13.3 -2.05 13.5 -2.15 13.7 -2.8 13.85 -2.95 14.5 Q-3.2 15.1 -3.5 15.75 L-3.65 15.8 Q-4.35 15.55 -4.3 14.75 L-4.3 14.55"/>
    </path>
  </g>
</svg>
