<?xml version="1.0" encoding="UTF-8" standalone="no"?>
<svg xmlns:xlink="http://www.w3.org/1999/xlink" height="6.15px" width="7.55px" xmlns="http://www.w3.org/2000/svg">
  <g transform="matrix(1.0, 0.0, 0.0, 1.0, 11.35, 9.3)">
    <path d="M-9.6 -7.4 L-9.6 -7.4 Q-9.2 -7.1 -8.8 -7.25 L-8.5 -7.5 -8.4 -7.6 -8.15 -7.5 -8.15 -7.4 -8.15 -7.3 -8.1 -7.25 -8.1 -7.15 -7.9 -7.0 -7.5 -6.85 Q-7.25 -7.05 -7.05 -7.25 -6.55 -7.15 -6.1 -7.05 L-5.7 -7.2 Q-5.2 -7.1 -4.85 -7.6 L-4.6 -7.7 -4.4 -7.8 -4.2 -8.3 -3.95 -8.5 -3.8 -8.7 -3.8 -8.8 -3.8 -8.9 -3.85 -9.05 -4.05 -9.25 -4.3 -9.3 -4.4 -9.3 -5.1 -8.85 -5.15 -8.9 -5.75 -8.9 -5.85 -8.85 Q-6.15 -8.65 -6.25 -8.05 L-6.3 -8.2 -6.75 -8.7 -6.85 -8.75 -7.2 -8.65 -7.3 -8.65 -7.35 -8.65 -7.45 -8.65 -7.8 -8.8 -7.85 -8.95 -7.95 -9.05 -8.05 -9.15 -8.15 -9.2 -8.45 -9.15 -8.65 -9.0 -8.9 -8.7 -9.1 -8.45 -9.6 -7.4" fill="#000000" fill-rule="evenodd" stroke="none">
      <animate attributeName="fill" dur="2s" repeatCount="indefinite" values="#000000;#000001"/>
      <animate attributeName="fill-opacity" dur="2s" repeatCount="indefinite" values="1.0;1.0"/>
      <animate attributeName="d" dur="2s" repeatCount="indefinite" values="M-9.6 -7.4 L-9.6 -7.4 Q-9.2 -7.1 -8.8 -7.25 L-8.5 -7.5 -8.4 -7.6 -8.15 -7.5 -8.15 -7.4 -8.15 -7.3 -8.1 -7.25 -8.1 -7.15 -7.9 -7.0 -7.5 -6.85 Q-7.25 -7.05 -7.05 -7.25 -6.55 -7.15 -6.1 -7.05 L-5.7 -7.2 Q-5.2 -7.1 -4.85 -7.6 L-4.6 -7.7 -4.4 -7.8 -4.2 -8.3 -3.95 -8.5 -3.8 -8.7 -3.8 -8.8 -3.8 -8.9 -3.85 -9.05 -4.05 -9.25 -4.3 -9.3 -4.4 -9.3 -5.1 -8.85 -5.15 -8.9 -5.75 -8.9 -5.85 -8.85 Q-6.15 -8.65 -6.25 -8.05 L-6.3 -8.2 -6.75 -8.7 -6.85 -8.75 -7.2 -8.65 -7.3 -8.65 -7.35 -8.65 -7.45 -8.65 -7.8 -8.8 -7.85 -8.95 -7.95 -9.05 -8.05 -9.15 -8.15 -9.2 -8.45 -9.15 -8.65 -9.0 -8.9 -8.7 -9.1 -8.45 -9.6 -7.4;M-11.35 -3.8 L-10.95 -3.6 Q-10.6 -3.55 -10.25 -3.8 L-9.95 -3.75 -9.6 -3.9 -9.4 -4.0 -9.3 -4.0 -9.2 -4.0 -9.1 -4.0 -9.0 -4.05 -8.7 -4.15 -8.55 -3.65 Q-8.2 -3.2 -7.85 -3.15 -7.35 -3.05 -6.95 -3.65 L-6.35 -3.55 Q-5.9 -3.7 -5.5 -3.85 L-5.2 -4.1 -5.05 -4.3 -5.5 -4.85 -5.95 -4.8 -6.3 -4.65 -6.35 -4.6 -6.45 -4.6 -6.45 -4.65 -6.55 -4.9 -6.7 -5.05 -6.7 -5.05 -7.5 -4.95 -7.5 -4.95 -7.8 -4.3 -7.85 -4.55 Q-8.0 -5.15 -8.4 -5.3 L-8.5 -5.35 -9.15 -5.25 -9.2 -5.35 -9.45 -5.55 -9.45 -5.55 -9.45 -5.65 -9.45 -5.65 -9.65 -5.95 -9.75 -6.05 -9.9 -6.05 -10.05 -6.05 -10.15 -6.0 -10.3 -5.85 -10.4 -5.65 -10.45 -5.4 -10.7 -5.15 -11.35 -3.8"/>
    </path>
    <path d="M-9.6 -7.4 L-9.1 -8.45 -8.9 -8.7 -8.65 -9.0 -8.45 -9.15 -8.15 -9.2 -8.05 -9.15 -7.95 -9.05 -7.85 -8.95 -7.8 -8.8 -7.45 -8.65 -7.35 -8.65 -7.3 -8.65 -7.2 -8.65 -6.85 -8.75 -6.75 -8.7 -6.3 -8.2 -6.25 -8.05 Q-6.15 -8.65 -5.85 -8.85 L-5.75 -8.9 -5.15 -8.9 -5.1 -8.85 -4.4 -9.3 -4.3 -9.3 -4.05 -9.25 -3.85 -9.05 -3.8 -8.9 -3.8 -8.8 -3.8 -8.7 -3.95 -8.5 -4.2 -8.3 -4.4 -7.8 -4.6 -7.7 -4.85 -7.6 Q-5.2 -7.1 -5.7 -7.2 L-6.1 -7.05 Q-6.55 -7.15 -7.05 -7.25 -7.25 -7.05 -7.5 -6.85 L-7.9 -7.0 -8.1 -7.15 -8.1 -7.25 -8.15 -7.3 -8.15 -7.4 -8.15 -7.5 -8.4 -7.6 -8.5 -7.5 -8.8 -7.25 Q-9.2 -7.1 -9.6 -7.4 L-9.6 -7.4" fill="none" stroke="#000000" stroke-linecap="round" stroke-linejoin="round" stroke-opacity="0.0" stroke-width="1.0">
      <animate attributeName="stroke" dur="2s" repeatCount="indefinite" values="#000000;#000001"/>
      <animate attributeName="stroke-width" dur="2s" repeatCount="indefinite" values="0.0;0.0"/>
      <animate attributeName="fill-opacity" dur="2s" repeatCount="indefinite" values="0.0;0.0"/>
      <animate attributeName="d" dur="2s" repeatCount="indefinite" values="M-9.6 -7.4 L-9.1 -8.45 -8.9 -8.7 -8.65 -9.0 -8.45 -9.15 -8.15 -9.2 -8.05 -9.15 -7.95 -9.05 -7.85 -8.95 -7.8 -8.8 -7.45 -8.65 -7.35 -8.65 -7.3 -8.65 -7.2 -8.65 -6.85 -8.75 -6.75 -8.7 -6.3 -8.2 -6.25 -8.05 Q-6.15 -8.65 -5.85 -8.85 L-5.75 -8.9 -5.15 -8.9 -5.1 -8.85 -4.4 -9.3 -4.3 -9.3 -4.05 -9.25 -3.85 -9.05 -3.8 -8.9 -3.8 -8.8 -3.8 -8.7 -3.95 -8.5 -4.2 -8.3 -4.4 -7.8 -4.6 -7.7 -4.85 -7.6 Q-5.2 -7.1 -5.7 -7.2 L-6.1 -7.05 Q-6.55 -7.15 -7.05 -7.25 -7.25 -7.05 -7.5 -6.85 L-7.9 -7.0 -8.1 -7.15 -8.1 -7.25 -8.15 -7.3 -8.15 -7.4 -8.15 -7.5 -8.4 -7.6 -8.5 -7.5 -8.8 -7.25 Q-9.2 -7.1 -9.6 -7.4 L-9.6 -7.4;M-11.35 -3.8 L-10.7 -5.15 -10.45 -5.4 -10.4 -5.65 -10.3 -5.85 -10.15 -6.0 -10.05 -6.05 -9.9 -6.05 -9.75 -6.05 -9.65 -5.95 -9.45 -5.65 -9.45 -5.65 -9.45 -5.55 -9.45 -5.55 -9.2 -5.35 -9.15 -5.25 -8.5 -5.35 -8.4 -5.3 Q-8.0 -5.15 -7.85 -4.55 L-7.8 -4.3 -7.5 -4.95 -7.5 -4.95 -6.7 -5.05 -6.7 -5.05 -6.55 -4.9 -6.45 -4.65 -6.45 -4.6 -6.35 -4.6 -6.3 -4.65 -5.95 -4.8 -5.5 -4.85 -5.05 -4.3 -5.2 -4.1 -5.5 -3.85 Q-5.9 -3.7 -6.35 -3.55 L-6.95 -3.65 Q-7.35 -3.05 -7.85 -3.15 -8.2 -3.2 -8.55 -3.65 L-8.7 -4.15 -9.0 -4.05 -9.1 -4.0 -9.2 -4.0 -9.3 -4.0 -9.4 -4.0 -9.6 -3.9 -9.95 -3.75 -10.25 -3.8 Q-10.6 -3.55 -10.95 -3.6 L-11.35 -3.8"/>
    </path>
  </g>
</svg>
