<?xml version="1.0" encoding="UTF-8" standalone="no"?>
<svg xmlns:xlink="http://www.w3.org/1999/xlink" height="38.35px" width="28.0px" xmlns="http://www.w3.org/2000/svg">
  <g transform="matrix(1.0, 0.0, 0.0, 1.0, 14.2, 13.95)">
    <path d="M-14.2 0.05 L-14.2 0.05 -14.0 2.55 Q-13.6 3.95 -13.2 5.3 L-12.95 5.9 Q-12.7 6.35 -12.5 6.75 L-12.3 6.95 -12.2 6.95 -11.9 7.2 -10.3 8.7 -9.95 9.1 -9.25 10.2 -9.1 10.8 -9.1 10.8 -9.1 10.8 Q-7.65 10.95 -6.6 12.15 L-6.6 12.15 Q-6.1 12.85 -5.6 13.55 L-5.25 14.15 -5.05 14.5 Q-4.75 15.1 -4.8 15.8 L-4.8 17.0 -4.8 17.0 -4.4 17.5 -4.05 18.05 -3.65 19.0 Q-3.55 19.45 -3.5 19.85 -3.5 20.35 -3.5 20.8 L-3.35 21.2 -3.15 21.65 -3.15 21.75 -3.0 22.25 -2.8 23.1 Q-2.65 22.2 -2.15 21.45 -1.9 21.1 -1.7 20.8 L-1.25 20.3 -0.5 19.6 -0.4 19.5 -0.3 19.4 -0.2 19.35 0.25 19.0 2.05 19.1 2.4 19.35 2.8 19.9 2.95 19.95 Q3.0 19.4 3.2 18.9 3.5 18.2 4.15 17.6 L4.8 17.1 5.0 16.5 4.75 15.0 4.8 14.6 Q5.0 13.55 6.0 12.65 L6.6 12.0 7.0 11.55 Q7.75 10.65 8.45 9.8 L9.6 8.65 10.5 7.75 11.0 6.35 11.4 5.7 Q12.1 4.6 13.3 3.95 13.8 2.1 13.8 0.05 L13.75 -1.15 Q13.35 -6.2 9.7 -9.85 L9.1 -10.45 Q5.15 -13.95 -0.2 -13.95 L-0.8 -13.95 Q-6.2 -13.75 -10.1 -9.85 L-10.3 -9.65 Q-14.2 -5.6 -14.2 0.05" fill="url(#gradient0)" fill-rule="evenodd" stroke="none">
      <animate attributeName="d" dur="2s" repeatCount="indefinite" values="M-14.2 0.05 L-14.2 0.05 -14.0 2.55 Q-13.6 3.95 -13.2 5.3 L-12.95 5.9 Q-12.7 6.35 -12.5 6.75 L-12.3 6.95 -12.2 6.95 -11.9 7.2 -10.3 8.7 -9.95 9.1 -9.25 10.2 -9.1 10.8 -9.1 10.8 -9.1 10.8 Q-7.65 10.95 -6.6 12.15 L-6.6 12.15 Q-6.1 12.85 -5.6 13.55 L-5.25 14.15 -5.05 14.5 Q-4.75 15.1 -4.8 15.8 L-4.8 17.0 -4.8 17.0 -4.4 17.5 -4.05 18.05 -3.65 19.0 Q-3.55 19.45 -3.5 19.85 -3.5 20.35 -3.5 20.8 L-3.35 21.2 -3.15 21.65 -3.15 21.75 -3.0 22.25 -2.8 23.1 Q-2.65 22.2 -2.15 21.45 -1.9 21.1 -1.7 20.8 L-1.25 20.3 -0.5 19.6 -0.4 19.5 -0.3 19.4 -0.2 19.35 0.25 19.0 2.05 19.1 2.4 19.35 2.8 19.9 2.95 19.95 Q3.0 19.4 3.2 18.9 3.5 18.2 4.15 17.6 L4.8 17.1 5.0 16.5 4.75 15.0 4.8 14.6 Q5.0 13.55 6.0 12.65 L6.6 12.0 7.0 11.55 Q7.75 10.65 8.45 9.8 L9.6 8.65 10.5 7.75 11.0 6.35 11.4 5.7 Q12.1 4.6 13.3 3.95 13.8 2.1 13.8 0.05 L13.75 -1.15 Q13.35 -6.2 9.7 -9.85 L9.1 -10.45 Q5.15 -13.95 -0.2 -13.95 L-0.8 -13.95 Q-6.2 -13.75 -10.1 -9.85 L-10.3 -9.65 Q-14.2 -5.6 -14.2 0.05;M-14.2 0.05 L-14.2 0.35 -13.9 3.1 Q-12.75 3.9 -12.7 5.45 L-12.1 6.15 Q-11.6 6.7 -11.55 7.35 L-11.55 7.55 -11.55 7.65 -11.25 7.95 -9.75 9.4 -9.3 9.95 -8.8 11.0 -8.3 11.35 -8.2 11.4 -8.2 11.4 Q-6.65 11.75 -6.3 13.25 L-6.3 13.35 Q-6.1 14.15 -6.2 15.05 L-5.9 15.8 -5.7 16.0 Q-5.25 16.6 -4.8 17.2 L-4.1 18.05 -4.0 18.15 -3.7 18.75 -3.25 19.3 -2.55 20.3 Q-2.3 20.7 -2.2 21.15 -1.75 21.6 -1.6 22.2 L-1.55 22.55 -1.6 22.95 -1.6 23.15 -1.65 23.55 -1.25 22.9 Q-0.7 22.25 0.25 22.35 0.75 22.4 0.9 22.9 L1.05 23.65 0.8 24.4 0.9 24.35 1.05 24.3 1.05 24.3 1.5 24.05 2.0 22.15 2.1 21.7 2.3 21.15 2.3 21.05 Q2.4 20.55 2.45 20.05 2.6 19.15 3.1 18.45 L3.5 18.0 4.0 17.4 4.95 16.55 5.05 16.25 Q5.4 15.25 5.7 14.3 L6.0 13.55 6.3 12.95 Q6.8 12.05 7.65 11.45 L8.95 10.5 9.6 9.45 10.7 8.45 11.5 7.8 Q12.15 6.6 12.75 5.45 13.55 3.5 13.75 1.3 L13.8 0.05 Q13.8 -5.25 10.35 -9.15 L9.7 -9.85 Q5.8 -13.75 0.4 -13.95 L-0.2 -13.95 Q-5.85 -13.95 -9.9 -10.05 L-10.1 -9.85 Q-14.2 -5.75 -14.2 0.05"/>
    </path>
    <path d="M-14.2 0.05 Q-14.2 -5.6 -10.3 -9.65 L-10.1 -9.85 Q-6.2 -13.75 -0.8 -13.95 L-0.2 -13.95 Q5.15 -13.95 9.1 -10.45 L9.7 -9.85 Q13.35 -6.2 13.75 -1.15 L13.8 0.05 Q13.8 2.1 13.3 3.95 12.1 4.6 11.4 5.7 L11.0 6.35 10.5 7.75 9.6 8.65 8.45 9.8 Q7.75 10.65 7.0 11.55 L6.6 12.0 6.0 12.65 Q5.0 13.55 4.8 14.6 L4.75 15.0 5.0 16.5 4.8 17.1 4.15 17.6 Q3.5 18.2 3.2 18.9 3.0 19.4 2.95 19.95 L2.8 19.9 2.4 19.35 2.05 19.1 0.25 19.0 -0.2 19.35 -0.3 19.4 -0.4 19.5 -0.5 19.6 -1.25 20.3 -1.7 20.8 Q-1.9 21.1 -2.15 21.45 -2.65 22.2 -2.8 23.1 L-3.0 22.25 -3.15 21.75 -3.15 21.65 -3.35 21.2 -3.5 20.8 Q-3.5 20.35 -3.5 19.85 -3.55 19.45 -3.65 19.0 L-4.05 18.05 -4.4 17.5 -4.8 17.0 -4.8 17.0 -4.8 15.8 Q-4.75 15.1 -5.05 14.5 L-5.25 14.15 -5.6 13.55 Q-6.1 12.85 -6.6 12.15 L-6.6 12.15 Q-7.65 10.95 -9.1 10.8 L-9.1 10.8 -9.1 10.8 -9.25 10.2 -9.95 9.1 -10.3 8.7 -11.9 7.2 -12.2 6.95 -12.3 6.95 -12.5 6.75 Q-12.7 6.35 -12.95 5.9 L-13.2 5.3 Q-13.6 3.95 -14.0 2.55 L-14.2 0.05 -14.2 0.05" fill="none" stroke="#000000" stroke-linecap="round" stroke-linejoin="round" stroke-opacity="0.0" stroke-width="1.0">
      <animate attributeName="stroke" dur="2s" repeatCount="indefinite" values="#000000;#000001"/>
      <animate attributeName="stroke-width" dur="2s" repeatCount="indefinite" values="0.0;0.0"/>
      <animate attributeName="fill-opacity" dur="2s" repeatCount="indefinite" values="0.0;0.0"/>
      <animate attributeName="d" dur="2s" repeatCount="indefinite" values="M-14.2 0.05 Q-14.2 -5.6 -10.3 -9.65 L-10.1 -9.85 Q-6.2 -13.75 -0.8 -13.95 L-0.2 -13.95 Q5.15 -13.95 9.1 -10.45 L9.7 -9.85 Q13.35 -6.2 13.75 -1.15 L13.8 0.05 Q13.8 2.1 13.3 3.95 12.1 4.6 11.4 5.7 L11.0 6.35 10.5 7.75 9.6 8.65 8.45 9.8 Q7.75 10.65 7.0 11.55 L6.6 12.0 6.0 12.65 Q5.0 13.55 4.8 14.6 L4.75 15.0 5.0 16.5 4.8 17.1 4.15 17.6 Q3.5 18.2 3.2 18.9 3.0 19.4 2.95 19.95 L2.8 19.9 2.4 19.35 2.05 19.1 0.25 19.0 -0.2 19.35 -0.3 19.4 -0.4 19.5 -0.5 19.6 -1.25 20.3 -1.7 20.8 Q-1.9 21.1 -2.15 21.45 -2.65 22.2 -2.8 23.1 L-3.0 22.25 -3.15 21.75 -3.15 21.65 -3.35 21.2 -3.5 20.8 Q-3.5 20.35 -3.5 19.85 -3.55 19.45 -3.65 19.0 L-4.05 18.05 -4.4 17.5 -4.8 17.0 -4.8 17.0 -4.8 15.8 Q-4.75 15.1 -5.05 14.5 L-5.25 14.15 -5.6 13.55 Q-6.1 12.85 -6.6 12.15 L-6.6 12.15 Q-7.65 10.95 -9.1 10.8 L-9.1 10.8 -9.1 10.8 -9.25 10.2 -9.95 9.1 -10.3 8.7 -11.9 7.2 -12.2 6.95 -12.3 6.95 -12.5 6.75 Q-12.7 6.35 -12.95 5.9 L-13.2 5.3 Q-13.6 3.95 -14.0 2.55 L-14.2 0.05 -14.2 0.05;M-14.2 0.05 Q-14.2 -5.75 -10.1 -9.85 L-9.9 -10.05 Q-5.85 -13.95 -0.2 -13.95 L0.4 -13.95 Q5.8 -13.75 9.7 -9.85 L10.35 -9.15 Q13.8 -5.25 13.8 0.05 L13.75 1.3 Q13.55 3.5 12.75 5.45 12.15 6.6 11.5 7.8 L10.7 8.45 9.6 9.45 8.95 10.5 7.65 11.45 Q6.8 12.05 6.3 12.95 L6.0 13.55 5.7 14.3 Q5.4 15.25 5.05 16.25 L4.95 16.55 4.0 17.4 3.5 18.0 3.1 18.45 Q2.6 19.15 2.45 20.05 2.4 20.55 2.3 21.05 L2.3 21.15 2.1 21.7 2.0 22.15 1.5 24.05 1.05 24.3 1.05 24.3 0.9 24.35 0.8 24.4 1.05 23.65 0.9 22.9 Q0.75 22.4 0.25 22.35 -0.7 22.25 -1.25 22.9 L-1.65 23.55 -1.6 23.15 -1.6 22.95 -1.55 22.55 -1.6 22.2 Q-1.75 21.6 -2.2 21.15 -2.3 20.7 -2.55 20.3 L-3.25 19.3 -3.7 18.75 -4.0 18.15 -4.1 18.05 -4.8 17.2 Q-5.25 16.6 -5.7 16.0 L-5.9 15.8 -6.2 15.05 Q-6.1 14.15 -6.3 13.35 L-6.3 13.25 Q-6.65 11.75 -8.2 11.4 L-8.2 11.4 -8.3 11.35 -8.8 11.0 -9.3 9.95 -9.75 9.4 -11.25 7.95 -11.55 7.65 -11.55 7.55 -11.55 7.35 Q-11.6 6.7 -12.1 6.15 L-12.7 5.45 Q-12.75 3.9 -13.9 3.1 L-14.2 0.35 -14.2 0.05"/>
    </path>
  </g>
  <defs>
    <radialGradient cx="0" cy="0" gradientTransform="matrix(0.0219, 0.0, 0.0, 0.0242, -0.05, -0.05)" gradientUnits="userSpaceOnUse" id="gradient0" r="819.2" spreadMethod="pad">
      <animateTransform additive="replace" attributeName="gradientTransform" dur="2s" from="1" repeatCount="indefinite" to="1" type="scale"/>
      <animateTransform additive="sum" attributeName="gradientTransform" dur="2s" from="-0.05 -0.05" repeatCount="indefinite" to="-0.05 -0.05" type="translate"/>
      <animateTransform additive="sum" attributeName="gradientTransform" dur="2s" from="0.0" repeatCount="indefinite" to="0.0" type="rotate"/>
      <animateTransform additive="sum" attributeName="gradientTransform" dur="2s" from="0.0219 0.0242" repeatCount="indefinite" to="0.0219 0.0242" type="scale"/>
      <animateTransform additive="sum" attributeName="gradientTransform" dur="2s" from="0.0" repeatCount="indefinite" to="0.0" type="skewX"/>
      <stop offset="0.0" stop-color="#fefe0c" stop-opacity="0.9019608">
        <animate attributeName="offset" dur="2s" repeatCount="indefinite" values="0.0;0.0"/>
        <animate attributeName="stop-color" dur="2s" repeatCount="indefinite" values="#fefe0c;#fefe0d"/>
        <animate attributeName="stop-opacity" dur="2s" repeatCount="indefinite" values="0.9019608;0.9019608"/>
      </stop>
      <stop offset="0.5764705882352941" stop-color="#ffba2b" stop-opacity="0.9019608">
        <animate attributeName="offset" dur="2s" repeatCount="indefinite" values="0.5764705882352941;0.5764705882352941"/>
        <animate attributeName="stop-color" dur="2s" repeatCount="indefinite" values="#ffba2b;#ffba2c"/>
        <animate attributeName="stop-opacity" dur="2s" repeatCount="indefinite" values="0.9019608;0.9019608"/>
      </stop>
      <stop offset="1.0" stop-color="#ff720b" stop-opacity="0.9019608">
        <animate attributeName="offset" dur="2s" repeatCount="indefinite" values="1.0;1.0"/>
        <animate attributeName="stop-color" dur="2s" repeatCount="indefinite" values="#ff720b;#ff720c"/>
        <animate attributeName="stop-opacity" dur="2s" repeatCount="indefinite" values="0.9019608;0.9019608"/>
      </stop>
    </radialGradient>
  </defs>
</svg>
