<?xml version="1.0" encoding="UTF-8" standalone="no"?>
<svg xmlns:xlink="http://www.w3.org/1999/xlink" height="10.35px" width="5.2px" xmlns="http://www.w3.org/2000/svg">
  <g transform="matrix(1.0, 0.0, 0.0, 1.0, 4.3, -9.0)">
    <path d="M-4.3 14.55 L-4.3 14.55 -4.25 15.25 Q-3.95 15.55 -3.65 15.8 L-3.5 15.75 -3.5 15.75 -3.4 15.55 -3.15 15.05 Q-2.95 14.45 -2.8 13.85 L-2.15 13.7 -2.15 13.7 -2.05 13.5 -2.0 13.3 -1.75 13.4 Q-1.4 13.45 -1.15 13.2 L-1.15 13.1 -1.05 12.9 Q-1.0 12.25 -0.95 11.6 L-0.95 11.5 -0.7 11.35 -0.6 11.35 -0.45 11.2 -0.2 10.6 -0.15 10.4 Q-0.05 9.7 -0.4 9.3 L-0.5 9.15 -0.65 9.0 -0.65 9.05 Q-1.0 9.05 -1.15 9.35 L-1.1 9.65 -1.2 10.05 -1.7 10.15 -1.9 10.35 Q-1.85 10.5 -1.85 10.65 L-1.85 10.95 -1.9 11.5 Q-2.05 11.95 -2.5 12.25 L-2.7 12.45 Q-3.3 12.35 -3.45 12.9 L-3.45 13.0 -3.65 13.0 -4.2 13.35 -4.3 14.55" fill="#000000" fill-rule="evenodd" stroke="none">
      <animate attributeName="fill" dur="2s" repeatCount="indefinite" values="#000000;#000001"/>
      <animate attributeName="fill-opacity" dur="2s" repeatCount="indefinite" values="1.0;1.0"/>
      <animate attributeName="d" dur="2s" repeatCount="indefinite" values="M-4.3 14.55 L-4.3 14.55 -4.25 15.25 Q-3.95 15.55 -3.65 15.8 L-3.5 15.75 -3.5 15.75 -3.4 15.55 -3.15 15.05 Q-2.95 14.45 -2.8 13.85 L-2.15 13.7 -2.15 13.7 -2.05 13.5 -2.0 13.3 -1.75 13.4 Q-1.4 13.45 -1.15 13.2 L-1.15 13.1 -1.05 12.9 Q-1.0 12.25 -0.95 11.6 L-0.95 11.5 -0.7 11.35 -0.6 11.35 -0.45 11.2 -0.2 10.6 -0.15 10.4 Q-0.05 9.7 -0.4 9.3 L-0.5 9.15 -0.65 9.0 -0.65 9.05 Q-1.0 9.05 -1.15 9.35 L-1.1 9.65 -1.2 10.05 -1.7 10.15 -1.9 10.35 Q-1.85 10.5 -1.85 10.65 L-1.85 10.95 -1.9 11.5 Q-2.05 11.95 -2.5 12.25 L-2.7 12.45 Q-3.3 12.35 -3.45 12.9 L-3.45 13.0 -3.65 13.0 -4.2 13.35 -4.3 14.55;M-4.2 17.95 L-4.0 18.1 -3.35 18.85 Q-2.95 19.35 -2.3 19.2 L-2.1 19.1 -2.05 19.1 -1.85 19.3 -1.25 19.2 Q-0.7 18.75 -0.55 18.15 L-0.45 17.55 -0.45 17.45 -0.15 17.5 0.15 17.3 0.25 17.2 Q0.4 16.95 0.55 16.75 L0.65 16.65 0.8 16.4 Q1.15 15.5 0.35 14.95 L0.3 14.95 0.2 14.95 0.1 15.0 0.0 15.15 -0.1 15.8 -0.2 16.0 Q-0.4 15.3 -1.05 15.25 L-1.15 15.3 -1.25 15.6 -1.25 15.6 Q-1.3 16.0 -1.35 16.4 L-1.35 16.7 -1.4 17.2 -1.5 17.9 -1.5 17.7 Q-1.6 17.35 -2.0 17.25 L-2.2 17.35 -2.55 17.7 Q-2.6 17.05 -3.3 17.2 L-3.25 17.0 Q-3.25 16.5 -3.6 16.15 L-3.6 16.15 -3.8 16.15 -4.2 16.85 -4.2 17.95"/>
    </path>
    <path d="M-4.3 14.55 L-4.2 13.35 -3.65 13.0 -3.45 13.0 -3.45 12.9 Q-3.3 12.35 -2.7 12.45 L-2.5 12.25 Q-2.05 11.95 -1.9 11.5 L-1.85 10.95 -1.85 10.65 Q-1.85 10.5 -1.9 10.35 L-1.7 10.15 -1.2 10.05 -1.1 9.65 -1.15 9.35 Q-1.0 9.05 -0.65 9.05 L-0.65 9.0 -0.5 9.15 -0.4 9.3 Q-0.05 9.7 -0.15 10.4 L-0.2 10.6 -0.45 11.2 -0.6 11.35 -0.7 11.35 -0.95 11.5 -0.95 11.6 Q-1.0 12.25 -1.05 12.9 L-1.15 13.1 -1.15 13.2 Q-1.4 13.45 -1.75 13.4 L-2.0 13.3 -2.05 13.5 -2.15 13.7 -2.15 13.7 -2.8 13.85 Q-2.95 14.45 -3.15 15.05 L-3.4 15.55 -3.5 15.75 -3.5 15.75 -3.65 15.8 Q-3.95 15.55 -4.25 15.25 L-4.3 14.55 -4.3 14.55" fill="none" stroke="#000000" stroke-linecap="round" stroke-linejoin="round" stroke-opacity="0.0" stroke-width="1.0">
      <animate attributeName="stroke" dur="2s" repeatCount="indefinite" values="#000000;#000001"/>
      <animate attributeName="stroke-width" dur="2s" repeatCount="indefinite" values="0.0;0.0"/>
      <animate attributeName="fill-opacity" dur="2s" repeatCount="indefinite" values="0.0;0.0"/>
      <animate attributeName="d" dur="2s" repeatCount="indefinite" values="M-4.3 14.55 L-4.2 13.35 -3.65 13.0 -3.45 13.0 -3.45 12.9 Q-3.3 12.35 -2.7 12.45 L-2.5 12.25 Q-2.05 11.95 -1.9 11.5 L-1.85 10.95 -1.85 10.65 Q-1.85 10.5 -1.9 10.35 L-1.7 10.15 -1.2 10.05 -1.1 9.65 -1.15 9.35 Q-1.0 9.05 -0.65 9.05 L-0.65 9.0 -0.5 9.15 -0.4 9.3 Q-0.05 9.7 -0.15 10.4 L-0.2 10.6 -0.45 11.2 -0.6 11.35 -0.7 11.35 -0.95 11.5 -0.95 11.6 Q-1.0 12.25 -1.05 12.9 L-1.15 13.1 -1.15 13.2 Q-1.4 13.45 -1.75 13.4 L-2.0 13.3 -2.05 13.5 -2.15 13.7 -2.15 13.7 -2.8 13.85 Q-2.95 14.45 -3.15 15.05 L-3.4 15.55 -3.5 15.75 -3.5 15.75 -3.65 15.8 Q-3.95 15.55 -4.25 15.25 L-4.3 14.55 -4.3 14.55;M-4.2 17.95 L-4.2 16.85 -3.8 16.15 -3.6 16.15 -3.6 16.15 Q-3.25 16.5 -3.25 17.0 L-3.3 17.2 Q-2.6 17.05 -2.55 17.7 L-2.2 17.35 -2.0 17.25 Q-1.6 17.35 -1.5 17.7 L-1.5 17.9 -1.4 17.2 -1.35 16.7 -1.35 16.4 Q-1.3 16.0 -1.25 15.6 L-1.25 15.6 -1.15 15.3 -1.05 15.25 Q-0.4 15.3 -0.2 16.0 L-0.1 15.8 0.0 15.15 0.1 15.0 0.2 14.95 0.3 14.95 0.35 14.95 Q1.15 15.5 0.8 16.4 L0.65 16.65 0.55 16.75 Q0.4 16.95 0.25 17.2 L0.15 17.3 -0.15 17.5 -0.45 17.45 -0.45 17.55 -0.55 18.15 Q-0.7 18.75 -1.25 19.2 L-1.85 19.3 -2.05 19.1 -2.1 19.1 -2.3 19.2 Q-2.95 19.35 -3.35 18.85 L-4.0 18.1 -4.2 17.95"/>
    </path>
  </g>
</svg>
