<?xml version="1.0" encoding="UTF-8" standalone="no"?>
<svg xmlns:xlink="http://www.w3.org/1999/xlink" height="7.55px" width="7.2px" xmlns="http://www.w3.org/2000/svg">
  <g transform="matrix(1.0, 0.0, 0.0, 1.0, 12.25, 6.05)">
    <path d="M-11.35 -3.8 L-10.95 -3.6 Q-10.6 -3.55 -10.25 -3.8 L-9.95 -3.75 -9.1 -4.0 -9.0 -4.05 -8.7 -4.15 -8.7 -4.15 -8.55 -3.65 Q-8.05 -3.05 -7.6 -3.15 L-7.05 -3.55 -6.95 -3.65 -6.95 -3.65 -6.95 -3.65 -5.7 -3.75 -5.15 -4.2 -5.05 -4.3 Q-5.3 -5.05 -6.0 -4.8 L-6.3 -4.65 -6.45 -4.6 -6.45 -4.65 -6.55 -4.85 -6.55 -4.9 -6.7 -5.05 Q-7.35 -5.25 -7.65 -4.7 L-7.8 -4.3 -7.85 -4.55 -8.25 -5.25 -8.6 -5.4 -8.95 -5.35 -9.15 -5.25 -9.2 -5.35 -9.45 -5.55 -9.45 -5.65 Q-9.5 -6.0 -9.9 -6.05 L-10.05 -6.05 -10.05 -6.0 -10.15 -6.0 -10.15 -6.0 -10.15 -5.9 -10.25 -5.9 -10.3 -5.85 Q-10.4 -5.6 -10.45 -5.4 L-10.45 -5.3 -10.55 -5.25 -10.7 -5.15 -11.0 -4.75 -11.35 -3.8" fill="#000000" fill-rule="evenodd" stroke="none">
      <animate attributeName="fill" dur="2s" repeatCount="indefinite" values="#000000;#000001"/>
      <animate attributeName="fill-opacity" dur="2s" repeatCount="indefinite" values="1.0;1.0"/>
      <animate attributeName="d" dur="2s" repeatCount="indefinite" values="M-11.35 -3.8 L-10.95 -3.6 Q-10.6 -3.55 -10.25 -3.8 L-9.95 -3.75 -9.1 -4.0 -9.0 -4.05 -8.7 -4.15 -8.7 -4.15 -8.55 -3.65 Q-8.05 -3.05 -7.6 -3.15 L-7.05 -3.55 -6.95 -3.65 -6.95 -3.65 -6.95 -3.65 -5.7 -3.75 -5.15 -4.2 -5.05 -4.3 Q-5.3 -5.05 -6.0 -4.8 L-6.3 -4.65 -6.45 -4.6 -6.45 -4.65 -6.55 -4.85 -6.55 -4.9 -6.7 -5.05 Q-7.35 -5.25 -7.65 -4.7 L-7.8 -4.3 -7.85 -4.55 -8.25 -5.25 -8.6 -5.4 -8.95 -5.35 -9.15 -5.25 -9.2 -5.35 -9.45 -5.55 -9.45 -5.65 Q-9.5 -6.0 -9.9 -6.05 L-10.05 -6.05 -10.05 -6.0 -10.15 -6.0 -10.15 -6.0 -10.15 -5.9 -10.25 -5.9 -10.3 -5.85 Q-10.4 -5.6 -10.45 -5.4 L-10.45 -5.3 -10.55 -5.25 -10.7 -5.15 -11.0 -4.75 -11.35 -3.8;M-12.25 -0.5 L-12.25 -0.5 Q-12.2 -0.1 -12.2 0.3 L-12.2 0.7 -12.2 1.35 -12.1 1.45 -11.8 1.5 -11.6 1.4 -11.35 1.1 Q-11.15 0.8 -11.2 0.3 L-10.4 0.25 -10.35 0.35 -10.35 0.45 -10.35 0.45 -9.25 0.5 -8.65 0.2 -8.55 0.3 Q-7.85 1.05 -7.55 0.0 L-7.45 -0.2 -7.35 -0.3 -7.35 -0.3 -7.25 -0.5 -7.2 -0.65 -7.1 -0.9 Q-6.95 -1.5 -7.9 -1.35 L-8.4 -1.35 -8.6 -1.35 -9.4 -0.6 -9.7 -0.65 -9.8 -1.05 -9.9 -1.15 -10.0 -1.25 -10.4 -1.4 -10.5 -1.4 Q-10.8 -1.2 -11.05 -1.0 L-11.15 -0.9 -11.15 -0.9 -11.15 -0.9 -11.25 -0.95 -11.3 -1.0 -11.3 -1.1 -11.3 -1.2 Q-11.3 -1.55 -11.65 -1.7 L-11.75 -1.75 -11.9 -1.7 -12.0 -1.65 -12.2 -1.45 -12.25 -0.5"/>
    </path>
    <path d="M-11.35 -3.8 L-11.0 -4.75 -10.7 -5.15 -10.55 -5.25 -10.45 -5.3 -10.45 -5.4 Q-10.4 -5.6 -10.3 -5.85 L-10.25 -5.9 -10.15 -5.9 -10.15 -6.0 -10.15 -6.0 -10.05 -6.0 -10.05 -6.05 -9.9 -6.05 Q-9.5 -6.0 -9.45 -5.65 L-9.45 -5.55 -9.2 -5.35 -9.15 -5.25 -8.95 -5.35 -8.6 -5.4 -8.25 -5.25 -7.85 -4.55 -7.8 -4.3 -7.65 -4.7 Q-7.35 -5.25 -6.7 -5.05 L-6.55 -4.9 -6.55 -4.85 -6.45 -4.65 -6.45 -4.6 -6.3 -4.65 -6.0 -4.8 Q-5.3 -5.05 -5.05 -4.3 L-5.15 -4.2 -5.7 -3.75 -6.95 -3.65 -6.95 -3.65 -6.95 -3.65 -7.05 -3.55 -7.6 -3.15 Q-8.05 -3.05 -8.55 -3.65 L-8.7 -4.15 -8.7 -4.15 -9.0 -4.05 -9.1 -4.0 -9.95 -3.75 -10.25 -3.8 Q-10.6 -3.55 -10.95 -3.6 L-11.35 -3.8" fill="none" stroke="#000000" stroke-linecap="round" stroke-linejoin="round" stroke-opacity="0.0" stroke-width="1.0">
      <animate attributeName="stroke" dur="2s" repeatCount="indefinite" values="#000000;#000001"/>
      <animate attributeName="stroke-width" dur="2s" repeatCount="indefinite" values="0.0;0.0"/>
      <animate attributeName="fill-opacity" dur="2s" repeatCount="indefinite" values="0.0;0.0"/>
      <animate attributeName="d" dur="2s" repeatCount="indefinite" values="M-11.35 -3.8 L-11.0 -4.75 -10.7 -5.15 -10.55 -5.25 -10.45 -5.3 -10.45 -5.4 Q-10.4 -5.6 -10.3 -5.85 L-10.25 -5.9 -10.15 -5.9 -10.15 -6.0 -10.15 -6.0 -10.05 -6.0 -10.05 -6.05 -9.9 -6.05 Q-9.5 -6.0 -9.45 -5.65 L-9.45 -5.55 -9.2 -5.35 -9.15 -5.25 -8.95 -5.35 -8.6 -5.4 -8.25 -5.25 -7.85 -4.55 -7.8 -4.3 -7.65 -4.7 Q-7.35 -5.25 -6.7 -5.05 L-6.55 -4.9 -6.55 -4.85 -6.45 -4.65 -6.45 -4.6 -6.3 -4.65 -6.0 -4.8 Q-5.3 -5.05 -5.05 -4.3 L-5.15 -4.2 -5.7 -3.75 -6.95 -3.65 -6.95 -3.65 -6.95 -3.65 -7.05 -3.55 -7.6 -3.15 Q-8.05 -3.05 -8.55 -3.65 L-8.7 -4.15 -8.7 -4.15 -9.0 -4.05 -9.1 -4.0 -9.95 -3.75 -10.25 -3.8 Q-10.6 -3.55 -10.95 -3.6 L-11.35 -3.8;M-12.25 -0.5 L-12.2 -1.45 -12.0 -1.65 -11.9 -1.7 -11.75 -1.75 -11.65 -1.7 Q-11.3 -1.55 -11.3 -1.2 L-11.3 -1.1 -11.3 -1.0 -11.25 -0.95 -11.15 -0.9 -11.15 -0.9 -11.15 -0.9 -11.05 -1.0 Q-10.8 -1.2 -10.5 -1.4 L-10.4 -1.4 -10.0 -1.25 -9.9 -1.15 -9.8 -1.05 -9.7 -0.65 -9.4 -0.6 -8.6 -1.35 -8.4 -1.35 -7.9 -1.35 Q-6.95 -1.5 -7.1 -0.9 L-7.2 -0.65 -7.25 -0.5 -7.35 -0.3 -7.35 -0.3 -7.45 -0.2 -7.55 0.0 Q-7.85 1.05 -8.55 0.3 L-8.65 0.2 -9.25 0.5 -10.35 0.45 -10.35 0.45 -10.35 0.35 -10.4 0.25 -11.2 0.3 Q-11.15 0.8 -11.35 1.1 L-11.6 1.4 -11.8 1.5 -12.1 1.45 -12.2 1.35 -12.2 0.7 -12.2 0.3 Q-12.2 -0.1 -12.25 -0.5 L-12.25 -0.5"/>
    </path>
  </g>
</svg>
