<?xml version="1.0" encoding="UTF-8" standalone="no"?>
<svg xmlns:xlink="http://www.w3.org/1999/xlink" height="10.0px" width="7.75px" xmlns="http://www.w3.org/2000/svg">
  <g transform="matrix(1.0, 0.0, 0.0, 1.0, -5.05, 1.3)">
    <path d="M7.3 2.35 L7.3 2.35 7.4 2.45 7.7 2.5 8.25 2.2 Q8.55 1.95 8.85 1.7 9.2 2.35 9.7 2.5 L10.75 2.35 10.95 2.25 11.0 2.1 11.2 1.8 11.3 1.7 11.3 1.7 11.5 1.7 11.5 1.7 11.65 1.7 11.65 1.7 12.0 1.85 12.0 1.85 12.1 1.85 12.25 1.75 12.4 1.45 12.6 0.9 12.8 0.05 12.8 -0.6 Q12.65 -0.85 12.5 -1.1 L12.25 -1.3 Q11.95 -1.3 11.8 -1.1 L11.8 -1.0 11.8 -0.7 11.8 -0.35 Q11.75 -0.05 11.7 0.25 L11.6 0.3 Q11.1 0.25 10.75 0.65 L10.75 0.65 10.75 0.65 Q10.25 0.3 9.9 0.65 L9.8 0.65 9.55 0.95 Q9.6 0.1 9.0 -0.25 L8.65 0.05 8.45 0.25 Q8.35 0.4 8.25 0.5 L8.05 0.85 8.05 0.95 8.0 1.05 8.0 1.15 Q7.3 1.6 7.3 2.35" fill="#000000" fill-rule="evenodd" stroke="none">
      <animate attributeName="fill" dur="2s" repeatCount="indefinite" values="#000000;#000001"/>
      <animate attributeName="fill-opacity" dur="2s" repeatCount="indefinite" values="1.0;1.0"/>
      <animate attributeName="d" dur="2s" repeatCount="indefinite" values="M7.3 2.35 L7.3 2.35 7.4 2.45 7.7 2.5 8.25 2.2 Q8.55 1.95 8.85 1.7 9.2 2.35 9.7 2.5 L10.75 2.35 10.95 2.25 11.0 2.1 11.2 1.8 11.3 1.7 11.3 1.7 11.5 1.7 11.5 1.7 11.65 1.7 11.65 1.7 12.0 1.85 12.0 1.85 12.1 1.85 12.25 1.75 12.4 1.45 12.6 0.9 12.8 0.05 12.8 -0.6 Q12.65 -0.85 12.5 -1.1 L12.25 -1.3 Q11.95 -1.3 11.8 -1.1 L11.8 -1.0 11.8 -0.7 11.8 -0.35 Q11.75 -0.05 11.7 0.25 L11.6 0.3 Q11.1 0.25 10.75 0.65 L10.75 0.65 10.75 0.65 Q10.25 0.3 9.9 0.65 L9.8 0.65 9.55 0.95 Q9.6 0.1 9.0 -0.25 L8.65 0.05 8.45 0.25 Q8.35 0.4 8.25 0.5 L8.05 0.85 8.05 0.95 8.0 1.05 8.0 1.15 Q7.3 1.6 7.3 2.35;M5.05 7.45 L5.25 7.6 5.35 7.6 5.6 7.65 6.3 7.45 Q6.2 8.1 6.4 8.4 6.9 8.5 7.35 8.55 L8.4 8.45 8.7 8.65 8.85 8.7 9.35 8.45 9.4 8.35 9.4 8.35 9.45 8.25 9.45 8.25 9.45 8.15 9.45 8.15 9.65 7.95 9.65 7.95 9.75 7.85 10.1 7.85 10.65 7.4 10.8 6.9 10.85 6.15 10.35 5.7 Q10.15 5.75 10.05 5.9 L9.95 6.1 Q9.85 6.45 9.75 6.75 L9.65 6.75 9.45 6.85 9.3 6.95 Q9.05 6.65 8.8 6.65 L8.6 6.7 Q8.3 6.8 8.05 7.25 L7.95 7.35 7.9 7.3 Q7.65 6.95 7.2 7.05 L7.2 7.0 7.25 6.75 Q7.35 5.9 6.8 5.6 L6.5 5.5 6.3 5.6 Q6.15 5.7 6.05 5.75 L5.95 6.1 5.85 6.2 5.85 6.3 5.75 6.3 Q5.15 6.8 5.05 7.45"/>
    </path>
    <path d="M7.3 2.35 Q7.3 1.6 8.0 1.15 L8.0 1.05 8.05 0.95 8.05 0.85 8.25 0.5 Q8.35 0.4 8.45 0.25 L8.65 0.05 9.0 -0.25 Q9.6 0.1 9.55 0.95 L9.8 0.65 9.9 0.65 Q10.25 0.3 10.75 0.65 L10.75 0.65 10.75 0.65 Q11.1 0.25 11.6 0.3 L11.7 0.25 Q11.75 -0.05 11.8 -0.35 L11.8 -0.7 11.8 -1.0 11.8 -1.1 Q11.95 -1.3 12.25 -1.3 L12.5 -1.1 Q12.65 -0.85 12.8 -0.6 L12.8 0.05 12.6 0.9 12.4 1.45 12.25 1.75 12.1 1.85 12.0 1.85 12.0 1.85 11.65 1.7 11.65 1.7 11.5 1.7 11.5 1.7 11.3 1.7 11.3 1.7 11.2 1.8 11.0 2.1 10.95 2.25 10.75 2.35 9.7 2.5 Q9.2 2.35 8.85 1.7 8.55 1.95 8.25 2.2 L7.7 2.5 7.4 2.45 7.3 2.35 7.3 2.35" fill="none" stroke="#000000" stroke-linecap="round" stroke-linejoin="round" stroke-opacity="0.0" stroke-width="1.0">
      <animate attributeName="stroke" dur="2s" repeatCount="indefinite" values="#000000;#000001"/>
      <animate attributeName="stroke-width" dur="2s" repeatCount="indefinite" values="0.0;0.0"/>
      <animate attributeName="fill-opacity" dur="2s" repeatCount="indefinite" values="0.0;0.0"/>
      <animate attributeName="d" dur="2s" repeatCount="indefinite" values="M7.3 2.35 Q7.3 1.6 8.0 1.15 L8.0 1.05 8.05 0.95 8.05 0.85 8.25 0.5 Q8.35 0.4 8.45 0.25 L8.65 0.05 9.0 -0.25 Q9.6 0.1 9.55 0.95 L9.8 0.65 9.9 0.65 Q10.25 0.3 10.75 0.65 L10.75 0.65 10.75 0.65 Q11.1 0.25 11.6 0.3 L11.7 0.25 Q11.75 -0.05 11.8 -0.35 L11.8 -0.7 11.8 -1.0 11.8 -1.1 Q11.95 -1.3 12.25 -1.3 L12.5 -1.1 Q12.65 -0.85 12.8 -0.6 L12.8 0.05 12.6 0.9 12.4 1.45 12.25 1.75 12.1 1.85 12.0 1.85 12.0 1.85 11.65 1.7 11.65 1.7 11.5 1.7 11.5 1.7 11.3 1.7 11.3 1.7 11.2 1.8 11.0 2.1 10.95 2.25 10.75 2.35 9.7 2.5 Q9.2 2.35 8.85 1.7 8.55 1.95 8.25 2.2 L7.7 2.5 7.4 2.45 7.3 2.35 7.3 2.35;M5.05 7.45 Q5.15 6.8 5.75 6.3 L5.85 6.3 5.85 6.2 5.95 6.1 6.05 5.75 Q6.15 5.7 6.3 5.6 L6.5 5.5 6.8 5.6 Q7.35 5.9 7.25 6.75 L7.2 7.0 7.2 7.05 Q7.65 6.95 7.9 7.3 L7.95 7.35 8.05 7.25 Q8.3 6.8 8.6 6.7 L8.8 6.65 Q9.05 6.65 9.3 6.95 L9.45 6.85 9.65 6.75 9.75 6.75 Q9.85 6.45 9.95 6.1 L10.05 5.9 Q10.15 5.75 10.35 5.7 L10.85 6.15 10.8 6.9 10.65 7.4 10.1 7.85 9.75 7.85 9.65 7.95 9.65 7.95 9.45 8.15 9.45 8.15 9.45 8.25 9.45 8.25 9.4 8.35 9.4 8.35 9.35 8.45 8.85 8.7 8.7 8.65 8.4 8.45 7.35 8.55 Q6.9 8.5 6.4 8.4 6.2 8.1 6.3 7.45 L5.6 7.65 5.35 7.6 5.25 7.6 5.05 7.45"/>
    </path>
  </g>
</svg>
