<?xml version="1.0" encoding="UTF-8" standalone="no"?>
<svg xmlns:xlink="http://www.w3.org/1999/xlink" height="38.35px" width="28.0px" xmlns="http://www.w3.org/2000/svg">
  <g transform="matrix(1.0, 0.0, 0.0, 1.0, 14.2, 13.95)">
    <path d="M-14.2 0.05 L-14.2 0.65 -13.9 3.1 Q-12.75 3.9 -12.7 5.45 L-12.1 6.15 -11.75 6.65 -11.55 7.55 -11.55 7.65 Q-10.65 8.55 -9.75 9.4 L-8.95 10.55 -8.8 10.9 -8.8 11.0 -8.3 11.35 -8.2 11.4 Q-7.05 11.65 -6.55 12.6 -6.4 12.95 -6.3 13.25 L-6.3 13.35 -6.15 14.35 -6.2 15.05 -5.9 15.8 Q-5.0 16.95 -4.1 18.05 L-3.7 18.75 -3.7 18.75 -3.25 19.3 -2.85 19.8 Q-2.7 20.05 -2.55 20.3 L-2.3 20.75 -2.2 21.15 Q-1.55 21.8 -1.6 22.75 L-1.6 22.95 -1.65 23.55 Q-1.35 22.75 -0.7 22.5 L-0.35 22.35 Q-0.05 22.35 0.25 22.35 L0.25 22.35 0.75 22.65 0.9 22.9 1.0 23.5 0.85 24.3 0.8 24.4 0.9 24.35 1.05 24.3 1.5 24.05 1.7 23.35 1.8 22.65 2.0 22.0 2.1 21.7 Q2.3 20.85 2.45 20.05 2.6 19.15 3.1 18.45 L3.1 18.45 3.4 18.15 4.0 17.4 4.95 16.55 5.05 16.25 Q5.55 14.9 6.0 13.55 L6.0 13.55 6.5 12.6 7.05 11.95 7.65 11.45 8.75 10.65 8.95 10.5 9.3 9.9 Q9.8 9.05 10.7 8.45 L11.5 7.8 12.35 6.45 Q12.65 5.7 12.95 4.95 L13.05 4.75 Q13.65 3.0 13.75 1.05 L13.8 0.05 Q13.8 -5.35 10.25 -9.25 L9.7 -9.85 Q5.8 -13.75 0.3 -13.95 L-0.2 -13.95 Q-5.9 -13.95 -9.9 -10.05 L-10.1 -9.85 Q-14.2 -5.75 -14.2 0.05" fill="url(#gradient0)" fill-rule="evenodd" stroke="none">
      <animate attributeName="d" dur="2s" repeatCount="indefinite" values="M-14.2 0.05 L-14.2 0.65 -13.9 3.1 Q-12.75 3.9 -12.7 5.45 L-12.1 6.15 -11.75 6.65 -11.55 7.55 -11.55 7.65 Q-10.65 8.55 -9.75 9.4 L-8.95 10.55 -8.8 10.9 -8.8 11.0 -8.3 11.35 -8.2 11.4 Q-7.05 11.65 -6.55 12.6 -6.4 12.95 -6.3 13.25 L-6.3 13.35 -6.15 14.35 -6.2 15.05 -5.9 15.8 Q-5.0 16.95 -4.1 18.05 L-3.7 18.75 -3.7 18.75 -3.25 19.3 -2.85 19.8 Q-2.7 20.05 -2.55 20.3 L-2.3 20.75 -2.2 21.15 Q-1.55 21.8 -1.6 22.75 L-1.6 22.95 -1.65 23.55 Q-1.35 22.75 -0.7 22.5 L-0.35 22.35 Q-0.05 22.35 0.25 22.35 L0.25 22.35 0.75 22.65 0.9 22.9 1.0 23.5 0.85 24.3 0.8 24.4 0.9 24.35 1.05 24.3 1.5 24.05 1.7 23.35 1.8 22.65 2.0 22.0 2.1 21.7 Q2.3 20.85 2.45 20.05 2.6 19.15 3.1 18.45 L3.1 18.45 3.4 18.15 4.0 17.4 4.95 16.55 5.05 16.25 Q5.55 14.9 6.0 13.55 L6.0 13.55 6.5 12.6 7.05 11.95 7.65 11.45 8.75 10.65 8.95 10.5 9.3 9.9 Q9.8 9.05 10.7 8.45 L11.5 7.8 12.35 6.45 Q12.65 5.7 12.95 4.95 L13.05 4.75 Q13.65 3.0 13.75 1.05 L13.8 0.05 Q13.8 -5.35 10.25 -9.25 L9.7 -9.85 Q5.8 -13.75 0.3 -13.95 L-0.2 -13.95 Q-5.9 -13.95 -9.9 -10.05 L-10.1 -9.85 Q-14.2 -5.75 -14.2 0.05;M-14.2 0.05 L-14.2 0.05 -14.0 2.5 Q-13.6 3.9 -13.2 5.25 L-12.95 5.85 -12.85 6.15 -12.1 6.5 -12.0 6.5 Q-10.9 7.05 -10.15 8.2 L-9.7 9.1 -9.6 9.45 -9.5 9.55 -9.05 10.0 -8.95 10.1 Q-8.05 10.6 -7.2 11.1 -6.85 11.2 -6.75 11.55 L-6.7 11.7 -6.6 12.7 -6.2 13.2 -5.7 13.95 Q-4.85 15.25 -4.55 16.75 L-4.45 17.35 -4.15 17.55 -3.65 17.8 -3.2 17.9 Q-2.9 17.95 -2.7 18.1 L-2.4 18.5 -2.2 19.0 Q-2.0 19.8 -2.15 20.7 L-2.05 20.8 -1.6 21.3 Q-1.15 21.95 -1.0 22.7 L-0.95 23.05 Q-0.75 23.3 -0.7 23.6 L-0.7 23.7 -0.65 24.25 -0.35 24.0 0.0 23.55 0.45 23.2 0.5 23.1 0.5 23.0 0.5 22.8 0.8 22.1 1.3 21.7 1.65 21.25 2.05 20.95 2.2 20.45 Q2.4 19.7 2.9 19.05 3.55 18.45 4.15 17.9 L4.25 17.8 4.65 17.55 4.9 16.75 4.65 15.4 4.65 14.95 Q4.85 13.5 6.4 12.35 L6.6 12.25 7.05 11.95 7.65 11.45 8.45 10.9 9.7 9.95 9.9 9.75 10.55 9.05 Q10.5 7.9 10.8 6.8 L11.05 6.05 11.95 4.45 Q12.45 3.75 13.3 3.5 L13.4 3.45 Q13.8 1.85 13.8 0.05 L13.75 -0.95 Q13.45 -6.1 9.7 -9.85 L9.2 -10.35 Q5.25 -13.95 -0.2 -13.95 L-0.7 -13.95 Q-6.2 -13.75 -10.1 -9.85 L-10.3 -9.65 Q-14.2 -5.6 -14.2 0.05"/>
    </path>
    <path d="M-14.2 0.05 Q-14.2 -5.75 -10.1 -9.85 L-9.9 -10.05 Q-5.9 -13.95 -0.2 -13.95 L0.3 -13.95 Q5.8 -13.75 9.7 -9.85 L10.25 -9.25 Q13.8 -5.35 13.8 0.05 L13.75 1.05 Q13.65 3.0 13.05 4.75 L12.95 4.95 Q12.65 5.7 12.35 6.45 L11.5 7.8 10.7 8.45 Q9.8 9.05 9.3 9.9 L8.95 10.5 8.75 10.65 7.65 11.45 7.05 11.95 6.5 12.6 6.0 13.55 6.0 13.55 Q5.55 14.9 5.05 16.25 L4.95 16.55 4.0 17.4 3.4 18.15 3.1 18.45 3.1 18.45 Q2.6 19.15 2.45 20.05 2.3 20.85 2.1 21.7 L2.0 22.0 1.8 22.65 1.7 23.35 1.5 24.05 1.05 24.3 0.9 24.35 0.8 24.4 0.85 24.3 1.0 23.5 0.9 22.9 0.75 22.65 0.25 22.35 0.25 22.35 Q-0.05 22.35 -0.35 22.35 L-0.7 22.5 Q-1.35 22.75 -1.65 23.55 L-1.6 22.95 -1.6 22.75 Q-1.55 21.8 -2.2 21.15 L-2.3 20.75 -2.55 20.3 Q-2.7 20.05 -2.85 19.8 L-3.25 19.3 -3.7 18.75 -3.7 18.75 -4.1 18.05 Q-5.0 16.95 -5.9 15.8 L-6.2 15.05 -6.15 14.35 -6.3 13.35 -6.3 13.25 Q-6.4 12.95 -6.55 12.6 -7.05 11.65 -8.2 11.4 L-8.3 11.35 -8.8 11.0 -8.8 10.9 -8.95 10.55 -9.75 9.4 Q-10.65 8.55 -11.55 7.65 L-11.55 7.55 -11.75 6.65 -12.1 6.15 -12.7 5.45 Q-12.75 3.9 -13.9 3.1 L-14.2 0.65 -14.2 0.05" fill="none" stroke="#000000" stroke-linecap="round" stroke-linejoin="round" stroke-opacity="0.0" stroke-width="1.0">
      <animate attributeName="stroke" dur="2s" repeatCount="indefinite" values="#000000;#000001"/>
      <animate attributeName="stroke-width" dur="2s" repeatCount="indefinite" values="0.0;0.0"/>
      <animate attributeName="fill-opacity" dur="2s" repeatCount="indefinite" values="0.0;0.0"/>
      <animate attributeName="d" dur="2s" repeatCount="indefinite" values="M-14.2 0.05 Q-14.2 -5.75 -10.1 -9.85 L-9.9 -10.05 Q-5.9 -13.95 -0.2 -13.95 L0.3 -13.95 Q5.8 -13.75 9.7 -9.85 L10.25 -9.25 Q13.8 -5.35 13.8 0.05 L13.75 1.05 Q13.65 3.0 13.05 4.75 L12.95 4.95 Q12.65 5.7 12.35 6.45 L11.5 7.8 10.7 8.45 Q9.8 9.05 9.3 9.9 L8.95 10.5 8.75 10.65 7.65 11.45 7.05 11.95 6.5 12.6 6.0 13.55 6.0 13.55 Q5.55 14.9 5.05 16.25 L4.95 16.55 4.0 17.4 3.4 18.15 3.1 18.45 3.1 18.45 Q2.6 19.15 2.45 20.05 2.3 20.85 2.1 21.7 L2.0 22.0 1.8 22.65 1.7 23.35 1.5 24.05 1.05 24.3 0.9 24.35 0.8 24.4 0.85 24.3 1.0 23.5 0.9 22.9 0.75 22.65 0.25 22.35 0.25 22.35 Q-0.05 22.35 -0.35 22.35 L-0.7 22.5 Q-1.35 22.75 -1.65 23.55 L-1.6 22.95 -1.6 22.75 Q-1.55 21.8 -2.2 21.15 L-2.3 20.75 -2.55 20.3 Q-2.7 20.05 -2.85 19.8 L-3.25 19.3 -3.7 18.75 -3.7 18.75 -4.1 18.05 Q-5.0 16.95 -5.9 15.8 L-6.2 15.05 -6.15 14.35 -6.3 13.35 -6.3 13.25 Q-6.4 12.95 -6.55 12.6 -7.05 11.65 -8.2 11.4 L-8.3 11.35 -8.8 11.0 -8.8 10.9 -8.95 10.55 -9.75 9.4 Q-10.65 8.55 -11.55 7.65 L-11.55 7.55 -11.75 6.65 -12.1 6.15 -12.7 5.45 Q-12.75 3.9 -13.9 3.1 L-14.2 0.65 -14.2 0.05;M-14.2 0.05 Q-14.2 -5.6 -10.3 -9.65 L-10.1 -9.85 Q-6.2 -13.75 -0.7 -13.95 L-0.2 -13.95 Q5.25 -13.95 9.2 -10.35 L9.7 -9.85 Q13.45 -6.1 13.75 -0.95 L13.8 0.05 Q13.8 1.85 13.4 3.45 L13.3 3.5 Q12.45 3.75 11.95 4.45 L11.05 6.05 10.8 6.8 Q10.5 7.9 10.55 9.05 L9.9 9.75 9.7 9.95 8.45 10.9 7.65 11.45 7.05 11.95 6.6 12.25 6.4 12.35 Q4.85 13.5 4.65 14.95 L4.65 15.4 4.9 16.75 4.65 17.55 4.25 17.8 4.15 17.9 Q3.55 18.45 2.9 19.05 2.4 19.7 2.2 20.45 L2.05 20.95 1.65 21.25 1.3 21.7 0.8 22.1 0.5 22.8 0.5 23.0 0.5 23.1 0.45 23.2 0.0 23.55 -0.35 24.0 -0.65 24.25 -0.7 23.7 -0.7 23.6 Q-0.75 23.3 -0.95 23.05 L-1.0 22.7 Q-1.15 21.95 -1.6 21.3 L-2.05 20.8 -2.15 20.7 Q-2.0 19.8 -2.2 19.0 L-2.4 18.5 -2.7 18.1 Q-2.9 17.95 -3.2 17.9 L-3.65 17.8 -4.15 17.55 -4.45 17.35 -4.55 16.75 Q-4.85 15.25 -5.7 13.95 L-6.2 13.2 -6.6 12.7 -6.7 11.7 -6.75 11.55 Q-6.85 11.2 -7.2 11.1 -8.05 10.6 -8.95 10.1 L-9.05 10.0 -9.5 9.55 -9.6 9.45 -9.7 9.1 -10.15 8.2 Q-10.9 7.05 -12.0 6.5 L-12.1 6.5 -12.85 6.15 -12.95 5.85 -13.2 5.25 Q-13.6 3.9 -14.0 2.5 L-14.2 0.05 -14.2 0.05"/>
    </path>
  </g>
  <defs>
    <radialGradient cx="0" cy="0" gradientTransform="matrix(0.0219, 0.0, 0.0, 0.0242, -0.05, -0.05)" gradientUnits="userSpaceOnUse" id="gradient0" r="819.2" spreadMethod="pad">
      <animateTransform additive="replace" attributeName="gradientTransform" dur="2s" from="1" repeatCount="indefinite" to="1" type="scale"/>
      <animateTransform additive="sum" attributeName="gradientTransform" dur="2s" from="-0.05 -0.05" repeatCount="indefinite" to="-0.05 -0.05" type="translate"/>
      <animateTransform additive="sum" attributeName="gradientTransform" dur="2s" from="0.0" repeatCount="indefinite" to="0.0" type="rotate"/>
      <animateTransform additive="sum" attributeName="gradientTransform" dur="2s" from="0.0219 0.0242" repeatCount="indefinite" to="0.0219 0.0242" type="scale"/>
      <animateTransform additive="sum" attributeName="gradientTransform" dur="2s" from="0.0" repeatCount="indefinite" to="0.0" type="skewX"/>
      <stop offset="0.0" stop-color="#fefe0c" stop-opacity="0.9019608">
        <animate attributeName="offset" dur="2s" repeatCount="indefinite" values="0.0;0.0"/>
        <animate attributeName="stop-color" dur="2s" repeatCount="indefinite" values="#fefe0c;#fefe0d"/>
        <animate attributeName="stop-opacity" dur="2s" repeatCount="indefinite" values="0.9019608;0.9019608"/>
      </stop>
      <stop offset="0.5764705882352941" stop-color="#ffba2b" stop-opacity="0.9019608">
        <animate attributeName="offset" dur="2s" repeatCount="indefinite" values="0.5764705882352941;0.5764705882352941"/>
        <animate attributeName="stop-color" dur="2s" repeatCount="indefinite" values="#ffba2b;#ffba2c"/>
        <animate attributeName="stop-opacity" dur="2s" repeatCount="indefinite" values="0.9019608;0.9019608"/>
      </stop>
      <stop offset="1.0" stop-color="#ff720b" stop-opacity="0.9019608">
        <animate attributeName="offset" dur="2s" repeatCount="indefinite" values="1.0;1.0"/>
        <animate attributeName="stop-color" dur="2s" repeatCount="indefinite" values="#ff720b;#ff720c"/>
        <animate attributeName="stop-opacity" dur="2s" repeatCount="indefinite" values="0.9019608;0.9019608"/>
      </stop>
    </radialGradient>
  </defs>
</svg>
