<?xml version="1.0" encoding="UTF-8" standalone="no"?>
<svg xmlns:xlink="http://www.w3.org/1999/xlink" height="8.05px" width="6.6px" xmlns="http://www.w3.org/2000/svg">
  <g transform="matrix(1.0, 0.0, 0.0, 1.0, -0.6, -10.25)">
    <path d="M1.9 12.7 L2.0 12.8 2.35 12.95 2.55 12.85 2.55 12.85 2.65 12.8 2.85 12.55 2.85 12.85 2.9 13.2 3.3 13.35 3.4 13.35 Q3.8 13.4 4.2 13.1 L4.5 13.2 4.8 13.05 5.4 12.6 5.7 12.3 6.25 12.35 Q6.9 12.3 7.2 11.45 L7.15 11.3 7.0 11.05 Q6.85 10.9 6.55 10.85 L6.5 10.7 6.4 10.6 6.15 10.55 6.15 10.55 Q5.35 11.05 4.8 11.7 L4.6 11.4 Q4.2 11.15 3.8 11.65 L3.8 11.65 3.8 11.55 Q3.8 11.2 3.8 10.85 L3.8 10.75 3.75 10.6 3.55 10.4 3.45 10.35 3.25 10.25 3.25 10.3 Q2.65 10.45 2.6 11.1 L2.55 11.2 2.25 11.6 2.15 11.65 2.05 11.75 2.0 11.95 Q1.8 12.3 1.9 12.7" fill="#000000" fill-rule="evenodd" stroke="none">
      <animate attributeName="fill" dur="2s" repeatCount="indefinite" values="#000000;#000001"/>
      <animate attributeName="fill-opacity" dur="2s" repeatCount="indefinite" values="1.0;1.0"/>
      <animate attributeName="d" dur="2s" repeatCount="indefinite" values="M1.9 12.7 L2.0 12.8 2.35 12.95 2.55 12.85 2.55 12.85 2.65 12.8 2.85 12.55 2.85 12.85 2.9 13.2 3.3 13.35 3.4 13.35 Q3.8 13.4 4.2 13.1 L4.5 13.2 4.8 13.05 5.4 12.6 5.7 12.3 6.25 12.35 Q6.9 12.3 7.2 11.45 L7.15 11.3 7.0 11.05 Q6.85 10.9 6.55 10.85 L6.5 10.7 6.4 10.6 6.15 10.55 6.15 10.55 Q5.35 11.05 4.8 11.7 L4.6 11.4 Q4.2 11.15 3.8 11.65 L3.8 11.65 3.8 11.55 Q3.8 11.2 3.8 10.85 L3.8 10.75 3.75 10.6 3.55 10.4 3.45 10.35 3.25 10.25 3.25 10.3 Q2.65 10.45 2.6 11.1 L2.55 11.2 2.25 11.6 2.15 11.65 2.05 11.75 2.0 11.95 Q1.8 12.3 1.9 12.7;M0.65 17.7 L0.65 17.7 1.15 17.95 1.45 17.75 1.45 17.75 1.5 17.6 1.65 17.25 1.8 16.85 2.0 17.05 2.3 17.2 2.4 17.35 Q2.6 18.05 3.15 18.25 L3.4 18.3 3.6 18.3 3.85 18.15 4.05 17.85 4.15 17.3 Q4.2 16.55 4.65 15.95 L4.75 15.75 4.85 15.7 Q4.9 15.45 4.95 15.25 L4.8 15.0 4.7 14.9 4.55 14.9 4.55 14.9 Q3.8 15.3 3.3 16.0 L3.1 16.35 Q3.05 15.9 2.55 15.75 L2.55 15.7 2.55 15.7 Q2.7 15.0 2.1 14.75 L2.1 14.8 1.95 14.8 1.85 14.85 1.8 14.9 1.7 15.1 1.7 15.1 Q1.4 15.6 1.15 16.1 L1.05 16.2 0.85 16.5 0.85 16.6 0.75 16.8 0.65 17.0 Q0.65 17.35 0.65 17.7"/>
    </path>
    <path d="M1.9 12.7 Q1.8 12.3 2.0 11.95 L2.05 11.75 2.15 11.65 2.25 11.6 2.55 11.2 2.6 11.1 Q2.65 10.45 3.25 10.3 L3.25 10.25 3.45 10.35 3.55 10.4 3.75 10.6 3.8 10.75 3.8 10.85 Q3.8 11.2 3.8 11.55 L3.8 11.65 3.8 11.65 Q4.2 11.15 4.6 11.4 L4.8 11.7 Q5.35 11.05 6.15 10.55 L6.15 10.55 6.4 10.6 6.5 10.7 6.55 10.85 Q6.85 10.9 7.0 11.05 L7.15 11.3 7.2 11.45 Q6.9 12.3 6.25 12.35 L5.7 12.3 5.4 12.6 4.8 13.05 4.5 13.2 4.2 13.1 Q3.8 13.4 3.4 13.35 L3.3 13.35 2.9 13.2 2.85 12.85 2.85 12.55 2.65 12.8 2.55 12.85 2.55 12.85 2.35 12.95 2.0 12.8 1.9 12.7" fill="none" stroke="#000000" stroke-linecap="round" stroke-linejoin="round" stroke-opacity="0.0" stroke-width="1.0">
      <animate attributeName="stroke" dur="2s" repeatCount="indefinite" values="#000000;#000001"/>
      <animate attributeName="stroke-width" dur="2s" repeatCount="indefinite" values="0.0;0.0"/>
      <animate attributeName="fill-opacity" dur="2s" repeatCount="indefinite" values="0.0;0.0"/>
      <animate attributeName="d" dur="2s" repeatCount="indefinite" values="M1.9 12.7 Q1.8 12.3 2.0 11.95 L2.05 11.75 2.15 11.65 2.25 11.6 2.55 11.2 2.6 11.1 Q2.65 10.45 3.25 10.3 L3.25 10.25 3.45 10.35 3.55 10.4 3.75 10.6 3.8 10.75 3.8 10.85 Q3.8 11.2 3.8 11.55 L3.8 11.65 3.8 11.65 Q4.2 11.15 4.6 11.4 L4.8 11.7 Q5.35 11.05 6.15 10.55 L6.15 10.55 6.4 10.6 6.5 10.7 6.55 10.85 Q6.85 10.9 7.0 11.05 L7.15 11.3 7.2 11.45 Q6.9 12.3 6.25 12.35 L5.7 12.3 5.4 12.6 4.8 13.05 4.5 13.2 4.2 13.1 Q3.8 13.4 3.4 13.35 L3.3 13.35 2.9 13.2 2.85 12.85 2.85 12.55 2.65 12.8 2.55 12.85 2.55 12.85 2.35 12.95 2.0 12.8 1.9 12.7;M0.65 17.7 Q0.65 17.35 0.65 17.0 L0.75 16.8 0.85 16.6 0.85 16.5 1.05 16.2 1.15 16.1 Q1.4 15.6 1.7 15.1 L1.7 15.1 1.8 14.9 1.85 14.85 1.95 14.8 2.1 14.8 2.1 14.75 Q2.7 15.0 2.55 15.7 L2.55 15.7 2.55 15.75 Q3.05 15.9 3.1 16.35 L3.3 16.0 Q3.8 15.3 4.55 14.9 L4.55 14.9 4.7 14.9 4.8 15.0 4.95 15.25 Q4.9 15.45 4.85 15.7 L4.75 15.75 4.65 15.95 Q4.2 16.55 4.15 17.3 L4.05 17.85 3.85 18.15 3.6 18.3 3.4 18.3 3.15 18.25 Q2.6 18.05 2.4 17.35 L2.3 17.2 2.0 17.05 1.8 16.85 1.65 17.25 1.5 17.6 1.45 17.75 1.45 17.75 1.15 17.95 0.65 17.7 0.65 17.7"/>
    </path>
  </g>
</svg>
