<?xml version="1.0" encoding="UTF-8" standalone="no"?>
<svg xmlns:xlink="http://www.w3.org/1999/xlink" height="7.35px" width="5.9px" xmlns="http://www.w3.org/2000/svg">
  <g transform="matrix(1.0, 0.0, 0.0, 1.0, 3.95, 7.55)">
    <path d="M-3.7 -5.15 L-3.7 -5.15 -3.6 -5.05 -3.45 -4.85 -3.45 -4.55 -3.45 -4.4 -2.9 -4.05 -2.6 -4.15 -2.4 -4.3 -2.3 -4.4 -2.1 -4.4 Q-1.6 -4.35 -1.45 -4.9 -1.05 -4.35 -0.65 -4.55 L-0.35 -4.8 Q0.25 -4.9 0.45 -5.5 L1.15 -5.6 1.35 -5.75 1.4 -5.9 Q1.5 -6.15 1.6 -6.4 L1.6 -6.5 1.7 -6.8 1.7 -6.9 1.8 -7.05 1.8 -7.15 Q1.55 -7.35 1.35 -7.55 L1.25 -7.55 1.1 -7.55 0.8 -7.3 0.8 -7.2 0.8 -7.1 0.8 -7.1 0.8 -7.0 0.7 -6.9 0.55 -6.75 0.55 -6.65 0.55 -6.55 0.15 -6.4 -0.05 -6.4 -0.15 -6.4 -0.5 -6.55 Q-0.85 -6.45 -1.15 -6.4 L-1.65 -6.8 -1.95 -6.75 -2.2 -6.55 -2.2 -6.45 -2.2 -6.35 -2.25 -6.15 -2.35 -6.1 -2.4 -6.05 -2.4 -6.05 -2.55 -6.15 -2.85 -6.15 -3.25 -5.85 -3.45 -5.75 Q-3.8 -5.55 -3.7 -5.15" fill="#000000" fill-rule="evenodd" stroke="none">
      <animate attributeName="fill" dur="2s" repeatCount="indefinite" values="#000000;#000001"/>
      <animate attributeName="fill-opacity" dur="2s" repeatCount="indefinite" values="1.0;1.0"/>
      <animate attributeName="d" dur="2s" repeatCount="indefinite" values="M-3.7 -5.15 L-3.7 -5.15 -3.6 -5.05 -3.45 -4.85 -3.45 -4.55 -3.45 -4.4 -2.9 -4.05 -2.6 -4.15 -2.4 -4.3 -2.3 -4.4 -2.1 -4.4 Q-1.6 -4.35 -1.45 -4.9 -1.05 -4.35 -0.65 -4.55 L-0.35 -4.8 Q0.25 -4.9 0.45 -5.5 L1.15 -5.6 1.35 -5.75 1.4 -5.9 Q1.5 -6.15 1.6 -6.4 L1.6 -6.5 1.7 -6.8 1.7 -6.9 1.8 -7.05 1.8 -7.15 Q1.55 -7.35 1.35 -7.55 L1.25 -7.55 1.1 -7.55 0.8 -7.3 0.8 -7.2 0.8 -7.1 0.8 -7.1 0.8 -7.0 0.7 -6.9 0.55 -6.75 0.55 -6.65 0.55 -6.55 0.15 -6.4 -0.05 -6.4 -0.15 -6.4 -0.5 -6.55 Q-0.85 -6.45 -1.15 -6.4 L-1.65 -6.8 -1.95 -6.75 -2.2 -6.55 -2.2 -6.45 -2.2 -6.35 -2.25 -6.15 -2.35 -6.1 -2.4 -6.05 -2.4 -6.05 -2.55 -6.15 -2.85 -6.15 -3.25 -5.85 -3.45 -5.75 Q-3.8 -5.55 -3.7 -5.15;M-3.95 -1.4 L-3.65 -1.15 -3.6 -1.15 -3.35 -1.05 -3.2 -0.85 -3.0 -0.8 -2.7 -0.75 -2.6 -0.45 -2.6 -0.3 -2.45 -0.2 -2.35 -0.2 Q-1.85 -0.15 -1.55 -0.4 -1.25 -0.65 -1.15 -1.2 L-1.05 -1.2 Q-0.45 -1.25 0.15 -1.25 L0.55 -1.65 0.85 -1.6 1.05 -1.6 Q1.35 -1.7 1.5 -2.1 L1.65 -2.15 1.85 -2.3 1.9 -2.4 1.95 -2.5 1.95 -2.6 Q2.05 -3.1 1.5 -3.25 L1.4 -3.1 1.3 -3.1 0.85 -2.85 0.75 -2.75 0.7 -2.75 0.7 -2.7 0.6 -2.7 0.4 -2.7 0.15 -2.6 0.05 -2.6 -0.05 -2.5 -0.4 -2.05 -0.55 -2.05 -0.6 -2.05 -0.7 -2.35 Q-0.85 -2.9 -1.2 -2.95 L-1.85 -2.8 -1.9 -2.5 -1.9 -2.3 -1.9 -2.2 -2.0 -2.2 -2.25 -2.3 -2.35 -2.4 -2.45 -2.4 -2.55 -2.4 -2.6 -2.55 -2.95 -2.7 -3.5 -2.35 -3.75 -2.1 Q-3.85 -1.75 -3.95 -1.4"/>
    </path>
    <path d="M-3.7 -5.15 Q-3.8 -5.55 -3.45 -5.75 L-3.25 -5.85 -2.85 -6.15 -2.55 -6.15 -2.4 -6.05 -2.4 -6.05 -2.35 -6.1 -2.25 -6.15 -2.2 -6.35 -2.2 -6.45 -2.2 -6.55 -1.95 -6.75 -1.65 -6.8 -1.15 -6.4 Q-0.85 -6.45 -0.5 -6.55 L-0.15 -6.4 -0.05 -6.4 0.15 -6.4 0.55 -6.55 0.55 -6.65 0.55 -6.75 0.7 -6.9 0.8 -7.0 0.8 -7.1 0.8 -7.1 0.8 -7.2 0.8 -7.3 1.1 -7.55 1.25 -7.55 1.35 -7.55 Q1.55 -7.35 1.8 -7.15 L1.8 -7.05 1.7 -6.9 1.7 -6.8 1.6 -6.5 1.6 -6.4 Q1.5 -6.15 1.4 -5.9 L1.35 -5.75 1.15 -5.6 0.45 -5.5 Q0.25 -4.9 -0.35 -4.8 L-0.65 -4.55 Q-1.05 -4.35 -1.45 -4.9 -1.6 -4.35 -2.1 -4.4 L-2.3 -4.4 -2.4 -4.3 -2.6 -4.15 -2.9 -4.05 -3.45 -4.4 -3.45 -4.55 -3.45 -4.85 -3.6 -5.05 -3.7 -5.15 -3.7 -5.15" fill="none" stroke="#000000" stroke-linecap="round" stroke-linejoin="round" stroke-opacity="0.0" stroke-width="1.0">
      <animate attributeName="stroke" dur="2s" repeatCount="indefinite" values="#000000;#000001"/>
      <animate attributeName="stroke-width" dur="2s" repeatCount="indefinite" values="0.0;0.0"/>
      <animate attributeName="fill-opacity" dur="2s" repeatCount="indefinite" values="0.0;0.0"/>
      <animate attributeName="d" dur="2s" repeatCount="indefinite" values="M-3.7 -5.15 Q-3.8 -5.55 -3.45 -5.75 L-3.25 -5.85 -2.85 -6.15 -2.55 -6.15 -2.4 -6.05 -2.4 -6.05 -2.35 -6.1 -2.25 -6.15 -2.2 -6.35 -2.2 -6.45 -2.2 -6.55 -1.95 -6.75 -1.65 -6.8 -1.15 -6.4 Q-0.85 -6.45 -0.5 -6.55 L-0.15 -6.4 -0.05 -6.4 0.15 -6.4 0.55 -6.55 0.55 -6.65 0.55 -6.75 0.7 -6.9 0.8 -7.0 0.8 -7.1 0.8 -7.1 0.8 -7.2 0.8 -7.3 1.1 -7.55 1.25 -7.55 1.35 -7.55 Q1.55 -7.35 1.8 -7.15 L1.8 -7.05 1.7 -6.9 1.7 -6.8 1.6 -6.5 1.6 -6.4 Q1.5 -6.15 1.4 -5.9 L1.35 -5.75 1.15 -5.6 0.45 -5.5 Q0.25 -4.9 -0.35 -4.8 L-0.65 -4.55 Q-1.05 -4.35 -1.45 -4.9 -1.6 -4.35 -2.1 -4.4 L-2.3 -4.4 -2.4 -4.3 -2.6 -4.15 -2.9 -4.05 -3.45 -4.4 -3.45 -4.55 -3.45 -4.85 -3.6 -5.05 -3.7 -5.15 -3.7 -5.15;M-3.95 -1.4 Q-3.85 -1.75 -3.75 -2.1 L-3.5 -2.35 -2.95 -2.7 -2.6 -2.55 -2.55 -2.4 -2.45 -2.4 -2.35 -2.4 -2.25 -2.3 -2.0 -2.2 -1.9 -2.2 -1.9 -2.3 -1.9 -2.5 -1.85 -2.8 -1.2 -2.95 Q-0.85 -2.9 -0.7 -2.35 L-0.6 -2.05 -0.55 -2.05 -0.4 -2.05 -0.05 -2.5 0.05 -2.6 0.15 -2.6 0.4 -2.7 0.6 -2.7 0.7 -2.7 0.7 -2.75 0.75 -2.75 0.85 -2.85 1.3 -3.1 1.4 -3.1 1.5 -3.25 Q2.05 -3.1 1.95 -2.6 L1.95 -2.5 1.9 -2.4 1.85 -2.3 1.65 -2.15 1.5 -2.1 Q1.35 -1.7 1.05 -1.6 L0.85 -1.6 0.55 -1.65 0.15 -1.25 Q-0.45 -1.25 -1.05 -1.2 L-1.15 -1.2 Q-1.25 -0.65 -1.55 -0.4 -1.85 -0.15 -2.35 -0.2 L-2.45 -0.2 -2.6 -0.3 -2.6 -0.45 -2.7 -0.75 -3.0 -0.8 -3.2 -0.85 -3.35 -1.05 -3.6 -1.15 -3.65 -1.15 -3.95 -1.4"/>
    </path>
  </g>
</svg>
