<?xml version="1.0" encoding="UTF-8" standalone="no"?>
<svg xmlns:xlink="http://www.w3.org/1999/xlink" height="7.95px" width="5.65px" xmlns="http://www.w3.org/2000/svg">
  <g transform="matrix(1.0, 0.0, 0.0, 1.0, 0.7, -14.75)">
    <path d="M0.65 17.7 L0.65 17.7 1.45 17.75 1.5 17.6 1.55 17.5 1.8 16.85 2.05 17.1 2.3 17.2 2.4 17.35 Q2.7 18.3 3.6 18.3 L3.85 18.15 4.1 17.6 4.15 17.3 Q4.2 16.5 4.75 15.75 L4.75 15.75 4.75 15.75 4.85 15.7 Q5.1 15.3 4.8 15.0 L4.7 14.9 4.55 14.9 Q4.35 15.05 4.15 15.2 L4.0 15.3 3.9 15.4 3.75 15.5 3.55 15.7 3.1 16.35 2.9 15.9 2.65 15.75 2.55 15.75 2.55 15.7 Q2.7 15.0 2.1 14.75 L2.1 14.8 1.95 14.8 1.85 14.85 1.8 14.9 1.7 15.1 1.65 15.2 1.3 15.9 0.85 16.5 0.85 16.6 Q0.5 17.1 0.65 17.7" fill="#000000" fill-rule="evenodd" stroke="none">
      <animate attributeName="fill" dur="2s" repeatCount="indefinite" values="#000000;#000001"/>
      <animate attributeName="fill-opacity" dur="2s" repeatCount="indefinite" values="1.0;1.0"/>
      <animate attributeName="d" dur="2s" repeatCount="indefinite" values="M0.65 17.7 L0.65 17.7 1.45 17.75 1.5 17.6 1.55 17.5 1.8 16.85 2.05 17.1 2.3 17.2 2.4 17.35 Q2.7 18.3 3.6 18.3 L3.85 18.15 4.1 17.6 4.15 17.3 Q4.2 16.5 4.75 15.75 L4.75 15.75 4.75 15.75 4.85 15.7 Q5.1 15.3 4.8 15.0 L4.7 14.9 4.55 14.9 Q4.35 15.05 4.15 15.2 L4.0 15.3 3.9 15.4 3.75 15.5 3.55 15.7 3.1 16.35 2.9 15.9 2.65 15.75 2.55 15.75 2.55 15.7 Q2.7 15.0 2.1 14.75 L2.1 14.8 1.95 14.8 1.85 14.85 1.8 14.9 1.7 15.1 1.65 15.2 1.3 15.9 0.85 16.5 0.85 16.6 Q0.5 17.1 0.65 17.7;M-0.7 22.45 L-0.6 22.55 0.0 22.65 0.15 22.55 0.25 22.45 0.65 22.05 0.95 21.8 1.05 21.8 1.1 21.7 Q1.55 21.2 2.0 20.75 L2.3 20.45 2.6 20.2 2.8 19.9 Q2.95 19.3 3.05 18.7 L3.05 18.7 3.05 18.6 2.95 18.4 Q2.85 18.25 2.65 18.2 L2.5 18.2 2.3 18.25 Q2.1 18.3 2.05 18.5 L2.05 18.6 2.05 18.7 2.05 18.8 1.95 18.9 1.65 19.7 1.35 20.1 1.2 20.15 1.2 20.15 1.2 20.15 Q0.8 19.85 0.45 20.25 L0.4 20.25 0.4 20.4 0.35 20.5 0.35 20.5 0.35 20.6 0.35 20.75 0.15 21.05 -0.2 21.45 -0.25 21.55 Q-0.5 22.0 -0.7 22.45"/>
    </path>
    <path d="M0.65 17.7 Q0.5 17.1 0.85 16.6 L0.85 16.5 1.3 15.9 1.65 15.2 1.7 15.1 1.8 14.9 1.85 14.85 1.95 14.8 2.1 14.8 2.1 14.75 Q2.7 15.0 2.55 15.7 L2.55 15.75 2.65 15.75 2.9 15.9 3.1 16.35 3.55 15.7 3.75 15.5 3.9 15.4 4.0 15.3 4.15 15.2 Q4.35 15.05 4.55 14.9 L4.7 14.9 4.8 15.0 Q5.1 15.3 4.85 15.7 L4.75 15.75 4.75 15.75 4.75 15.75 Q4.2 16.5 4.15 17.3 L4.1 17.6 3.85 18.15 3.6 18.3 Q2.7 18.3 2.4 17.35 L2.3 17.2 2.05 17.1 1.8 16.85 1.55 17.5 1.5 17.6 1.45 17.75 0.65 17.7 0.65 17.7" fill="none" stroke="#000000" stroke-linecap="round" stroke-linejoin="round" stroke-opacity="0.0" stroke-width="1.0">
      <animate attributeName="stroke" dur="2s" repeatCount="indefinite" values="#000000;#000001"/>
      <animate attributeName="stroke-width" dur="2s" repeatCount="indefinite" values="0.0;0.0"/>
      <animate attributeName="fill-opacity" dur="2s" repeatCount="indefinite" values="0.0;0.0"/>
      <animate attributeName="d" dur="2s" repeatCount="indefinite" values="M0.65 17.7 Q0.5 17.1 0.85 16.6 L0.85 16.5 1.3 15.9 1.65 15.2 1.7 15.1 1.8 14.9 1.85 14.85 1.95 14.8 2.1 14.8 2.1 14.75 Q2.7 15.0 2.55 15.7 L2.55 15.75 2.65 15.75 2.9 15.9 3.1 16.35 3.55 15.7 3.75 15.5 3.9 15.4 4.0 15.3 4.15 15.2 Q4.35 15.05 4.55 14.9 L4.7 14.9 4.8 15.0 Q5.1 15.3 4.85 15.7 L4.75 15.75 4.75 15.75 4.75 15.75 Q4.2 16.5 4.15 17.3 L4.1 17.6 3.85 18.15 3.6 18.3 Q2.7 18.3 2.4 17.35 L2.3 17.2 2.05 17.1 1.8 16.85 1.55 17.5 1.5 17.6 1.45 17.75 0.65 17.7 0.65 17.7;M-0.7 22.45 Q-0.5 22.0 -0.25 21.55 L-0.2 21.45 0.15 21.05 0.35 20.75 0.35 20.6 0.35 20.5 0.35 20.5 0.4 20.4 0.4 20.25 0.45 20.25 Q0.8 19.85 1.2 20.15 L1.2 20.15 1.2 20.15 1.35 20.1 1.65 19.7 1.95 18.9 2.05 18.8 2.05 18.7 2.05 18.6 2.05 18.5 Q2.1 18.3 2.3 18.25 L2.5 18.2 2.65 18.2 Q2.85 18.25 2.95 18.4 L3.05 18.6 3.05 18.7 3.05 18.7 Q2.95 19.3 2.8 19.9 L2.6 20.2 2.3 20.45 2.0 20.75 Q1.55 21.2 1.1 21.7 L1.05 21.8 0.95 21.8 0.65 22.05 0.25 22.45 0.15 22.55 0.0 22.65 -0.6 22.55 -0.7 22.45"/>
    </path>
  </g>
</svg>
