<?xml version="1.0" encoding="UTF-8" standalone="no"?>
<svg xmlns:xlink="http://www.w3.org/1999/xlink" height="7.85px" width="6.8px" xmlns="http://www.w3.org/2000/svg">
  <g transform="matrix(1.0, 0.0, 0.0, 1.0, 3.95, 3.25)">
    <path d="M-3.95 -1.4 L-3.85 -1.3 -3.55 -1.15 -3.45 -1.15 -2.9 -0.75 -2.7 -0.75 -2.6 -0.45 -2.6 -0.35 -2.6 -0.3 -2.4 -0.2 -2.35 -0.2 -1.9 -0.25 -1.8 -0.25 -1.55 -0.45 -1.15 -1.2 -0.6 -1.05 -0.5 -1.05 0.1 -1.2 0.45 -1.45 0.55 -1.65 0.75 -1.6 Q1.3 -1.55 1.5 -2.1 L1.65 -2.15 1.85 -2.3 1.9 -2.4 2.0 -2.6 2.0 -2.75 Q1.75 -3.0 1.5 -3.25 L1.5 -3.2 1.35 -3.1 1.25 -3.1 1.05 -3.0 0.7 -2.75 0.7 -2.75 Q0.0 -2.8 -0.4 -2.05 L-0.55 -2.05 -0.6 -2.05 Q-0.8 -3.2 -1.55 -2.95 L-1.85 -2.8 -1.9 -2.6 -1.9 -2.5 -1.9 -2.4 Q-1.9 -2.3 -1.9 -2.2 L-2.45 -2.4 -2.55 -2.4 -2.6 -2.55 -2.9 -2.7 -2.95 -2.7 Q-3.9 -2.35 -3.95 -1.4" fill="#000000" fill-rule="evenodd" stroke="none">
      <animate attributeName="fill" dur="2s" repeatCount="indefinite" values="#000000;#000001"/>
      <animate attributeName="fill-opacity" dur="2s" repeatCount="indefinite" values="1.0;1.0"/>
      <animate attributeName="d" dur="2s" repeatCount="indefinite" values="M-3.95 -1.4 L-3.85 -1.3 -3.55 -1.15 -3.45 -1.15 -2.9 -0.75 -2.7 -0.75 -2.6 -0.45 -2.6 -0.35 -2.6 -0.3 -2.4 -0.2 -2.35 -0.2 -1.9 -0.25 -1.8 -0.25 -1.55 -0.45 -1.15 -1.2 -0.6 -1.05 -0.5 -1.05 0.1 -1.2 0.45 -1.45 0.55 -1.65 0.75 -1.6 Q1.3 -1.55 1.5 -2.1 L1.65 -2.15 1.85 -2.3 1.9 -2.4 2.0 -2.6 2.0 -2.75 Q1.75 -3.0 1.5 -3.25 L1.5 -3.2 1.35 -3.1 1.25 -3.1 1.05 -3.0 0.7 -2.75 0.7 -2.75 Q0.0 -2.8 -0.4 -2.05 L-0.55 -2.05 -0.6 -2.05 Q-0.8 -3.2 -1.55 -2.95 L-1.85 -2.8 -1.9 -2.6 -1.9 -2.5 -1.9 -2.4 Q-1.9 -2.3 -1.9 -2.2 L-2.45 -2.4 -2.55 -2.4 -2.6 -2.55 -2.9 -2.7 -2.95 -2.7 Q-3.9 -2.35 -3.95 -1.4;M-3.45 4.2 L-3.35 4.3 -3.0 4.45 -2.8 4.35 -2.15 3.65 -1.55 3.6 -1.05 3.35 -0.95 3.25 -0.95 3.4 -1.0 3.6 -1.0 3.7 -0.95 4.45 -0.85 4.55 -0.55 4.6 0.2 4.0 0.55 3.4 0.75 3.45 1.35 3.05 1.8 3.25 2.0 3.3 2.2 3.25 Q2.5 2.95 2.8 2.7 L2.85 2.5 2.75 2.1 2.65 1.9 2.5 1.65 2.5 1.55 Q2.45 1.1 2.0 1.0 L2.0 1.05 1.85 1.05 1.8 1.1 1.65 1.25 1.5 1.75 1.5 1.75 Q0.45 1.6 -0.1 2.5 L-0.2 2.4 -0.25 2.3 Q-0.9 1.6 -1.7 2.45 L-1.65 2.15 -1.65 2.0 -1.7 1.75 -1.85 1.5 Q-2.05 1.35 -2.2 1.35 L-2.55 1.7 -2.55 1.8 -2.6 1.9 -2.75 2.3 -2.75 2.4 Q-3.1 3.3 -3.45 4.2"/>
    </path>
    <path d="M-3.95 -1.4 Q-3.9 -2.35 -2.95 -2.7 L-2.9 -2.7 -2.6 -2.55 -2.55 -2.4 -2.45 -2.4 -1.9 -2.2 Q-1.9 -2.3 -1.9 -2.4 L-1.9 -2.5 -1.9 -2.6 -1.85 -2.8 -1.55 -2.95 Q-0.8 -3.2 -0.6 -2.05 L-0.55 -2.05 -0.4 -2.05 Q0.0 -2.8 0.7 -2.75 L0.7 -2.75 1.05 -3.0 1.25 -3.1 1.35 -3.1 1.5 -3.2 1.5 -3.25 Q1.75 -3.0 2.0 -2.75 L2.0 -2.6 1.9 -2.4 1.85 -2.3 1.65 -2.15 1.5 -2.1 Q1.3 -1.55 0.75 -1.6 L0.55 -1.65 0.45 -1.45 0.1 -1.2 -0.5 -1.05 -0.6 -1.05 -1.15 -1.2 -1.55 -0.45 -1.8 -0.25 -1.9 -0.25 -2.35 -0.2 -2.4 -0.2 -2.6 -0.3 -2.6 -0.35 -2.6 -0.45 -2.7 -0.75 -2.9 -0.75 -3.45 -1.15 -3.55 -1.15 -3.85 -1.3 -3.95 -1.4" fill="none" stroke="#000000" stroke-linecap="round" stroke-linejoin="round" stroke-opacity="0.0" stroke-width="1.0">
      <animate attributeName="stroke" dur="2s" repeatCount="indefinite" values="#000000;#000001"/>
      <animate attributeName="stroke-width" dur="2s" repeatCount="indefinite" values="0.0;0.0"/>
      <animate attributeName="fill-opacity" dur="2s" repeatCount="indefinite" values="0.0;0.0"/>
      <animate attributeName="d" dur="2s" repeatCount="indefinite" values="M-3.95 -1.4 Q-3.9 -2.35 -2.95 -2.7 L-2.9 -2.7 -2.6 -2.55 -2.55 -2.4 -2.45 -2.4 -1.9 -2.2 Q-1.9 -2.3 -1.9 -2.4 L-1.9 -2.5 -1.9 -2.6 -1.85 -2.8 -1.55 -2.95 Q-0.8 -3.2 -0.6 -2.05 L-0.55 -2.05 -0.4 -2.05 Q0.0 -2.8 0.7 -2.75 L0.7 -2.75 1.05 -3.0 1.25 -3.1 1.35 -3.1 1.5 -3.2 1.5 -3.25 Q1.75 -3.0 2.0 -2.75 L2.0 -2.6 1.9 -2.4 1.85 -2.3 1.65 -2.15 1.5 -2.1 Q1.3 -1.55 0.75 -1.6 L0.55 -1.65 0.45 -1.45 0.1 -1.2 -0.5 -1.05 -0.6 -1.05 -1.15 -1.2 -1.55 -0.45 -1.8 -0.25 -1.9 -0.25 -2.35 -0.2 -2.4 -0.2 -2.6 -0.3 -2.6 -0.35 -2.6 -0.45 -2.7 -0.75 -2.9 -0.75 -3.45 -1.15 -3.55 -1.15 -3.85 -1.3 -3.95 -1.4;M-3.45 4.2 Q-3.1 3.3 -2.75 2.4 L-2.75 2.3 -2.6 1.9 -2.55 1.8 -2.55 1.7 -2.2 1.35 Q-2.05 1.35 -1.85 1.5 L-1.7 1.75 -1.65 2.0 -1.65 2.15 -1.7 2.45 Q-0.9 1.6 -0.25 2.3 L-0.2 2.4 -0.1 2.5 Q0.45 1.6 1.5 1.75 L1.5 1.75 1.65 1.25 1.8 1.1 1.85 1.05 2.0 1.05 2.0 1.0 Q2.45 1.1 2.5 1.55 L2.5 1.65 2.65 1.9 2.75 2.1 2.85 2.5 2.8 2.7 Q2.5 2.95 2.2 3.25 L2.0 3.3 1.8 3.25 1.35 3.05 0.75 3.45 0.55 3.4 0.2 4.0 -0.55 4.6 -0.85 4.55 -0.95 4.45 -1.0 3.7 -1.0 3.6 -0.95 3.4 -0.95 3.25 -1.05 3.35 -1.55 3.6 -2.15 3.65 -2.8 4.35 -3.0 4.45 -3.35 4.3 -3.45 4.2"/>
    </path>
  </g>
</svg>
