<?xml version="1.0" encoding="UTF-8" standalone="no"?>
<svg xmlns:xlink="http://www.w3.org/1999/xlink" height="7.0px" width="6.0px" xmlns="http://www.w3.org/2000/svg">
  <g transform="matrix(1.0, 0.0, 0.0, 1.0, 4.95, -10.45)">
    <path d="M-4.95 12.95 L-4.95 13.2 Q-4.8 13.85 -4.2 14.3 L-4.05 14.4 -4.05 14.4 Q-3.1 15.0 -2.7 14.0 L-2.6 13.75 Q-1.75 13.95 -1.35 13.3 L-1.2 12.7 -0.85 13.2 Q-0.7 13.45 -0.45 13.35 L0.25 12.95 0.65 12.3 0.7 12.1 0.8 12.0 1.0 11.65 1.0 11.55 1.05 11.2 1.05 11.0 0.95 10.8 0.6 10.45 0.45 10.5 0.15 10.85 0.05 11.25 0.05 11.35 -0.1 11.55 -0.15 11.9 -0.4 12.05 -0.45 12.0 -0.65 11.8 -0.8 11.55 -0.85 11.5 -0.95 11.45 -1.15 11.55 -1.25 11.55 -1.35 11.55 -1.45 11.55 -1.55 11.6 Q-1.95 11.8 -2.15 12.35 L-2.45 12.3 -2.55 12.4 -2.65 12.45 -2.9 12.55 -3.3 12.9 -3.55 13.5 -3.7 13.35 -3.95 13.0 Q-4.1 12.85 -4.25 12.8 L-4.55 12.8 -4.65 12.8 -4.95 12.95" fill="#000000" fill-rule="evenodd" stroke="none">
      <animate attributeName="fill" dur="2s" repeatCount="indefinite" values="#000000;#000001"/>
      <animate attributeName="fill-opacity" dur="2s" repeatCount="indefinite" values="1.0;1.0"/>
      <animate attributeName="d" dur="2s" repeatCount="indefinite" values="M-4.95 12.95 L-4.95 13.2 Q-4.8 13.85 -4.2 14.3 L-4.05 14.4 -4.05 14.4 Q-3.1 15.0 -2.7 14.0 L-2.6 13.75 Q-1.75 13.95 -1.35 13.3 L-1.2 12.7 -0.85 13.2 Q-0.7 13.45 -0.45 13.35 L0.25 12.95 0.65 12.3 0.7 12.1 0.8 12.0 1.0 11.65 1.0 11.55 1.05 11.2 1.05 11.0 0.95 10.8 0.6 10.45 0.45 10.5 0.15 10.85 0.05 11.25 0.05 11.35 -0.1 11.55 -0.15 11.9 -0.4 12.05 -0.45 12.0 -0.65 11.8 -0.8 11.55 -0.85 11.5 -0.95 11.45 -1.15 11.55 -1.25 11.55 -1.35 11.55 -1.45 11.55 -1.55 11.6 Q-1.95 11.8 -2.15 12.35 L-2.45 12.3 -2.55 12.4 -2.65 12.45 -2.9 12.55 -3.3 12.9 -3.55 13.5 -3.7 13.35 -3.95 13.0 Q-4.1 12.85 -4.25 12.8 L-4.55 12.8 -4.65 12.8 -4.95 12.95;M-3.0 16.45 L-3.0 16.45 Q-3.1 17.05 -2.6 17.35 L-2.5 17.45 -2.4 17.45 Q-1.75 17.35 -1.8 16.75 L-1.7 16.65 Q-1.45 16.45 -1.25 16.3 L-0.9 16.35 -0.45 16.3 Q-0.25 16.1 -0.1 15.9 L0.05 15.35 0.25 15.05 0.35 14.95 0.35 14.85 0.3 14.6 0.35 14.5 0.45 14.4 0.45 14.3 0.45 14.2 0.35 13.9 0.2 13.8 -0.15 13.75 -0.35 13.85 -0.4 13.9 -0.5 14.0 -0.65 14.1 -0.65 14.4 -0.65 14.4 -0.65 14.6 -0.75 14.7 -0.75 14.7 -0.75 14.7 -0.85 14.8 -0.9 14.85 -0.9 14.95 -0.9 15.05 -0.9 15.15 Q-1.2 15.2 -1.5 15.25 L-1.7 15.3 -1.8 15.3 -1.95 15.25 -2.15 15.2 -2.35 15.25 -2.7 15.8 -2.75 15.9 -2.75 16.1 Q-2.8 16.15 -2.85 16.2 L-2.95 16.3 -2.95 16.35 -3.0 16.45"/>
    </path>
    <path d="M-4.95 12.95 L-4.65 12.8 -4.55 12.8 -4.25 12.8 Q-4.1 12.85 -3.95 13.0 L-3.7 13.35 -3.55 13.5 -3.3 12.9 -2.9 12.55 -2.65 12.45 -2.55 12.4 -2.45 12.3 -2.15 12.35 Q-1.95 11.8 -1.55 11.6 L-1.45 11.55 -1.35 11.55 -1.25 11.55 -1.15 11.55 -0.95 11.45 -0.85 11.5 -0.8 11.55 -0.65 11.8 -0.45 12.0 -0.4 12.05 -0.15 11.9 -0.1 11.55 0.05 11.35 0.05 11.25 0.15 10.85 0.45 10.5 0.6 10.45 0.95 10.8 1.05 11.0 1.05 11.2 1.0 11.55 1.0 11.65 0.8 12.0 0.7 12.1 0.65 12.3 0.25 12.95 -0.45 13.35 Q-0.7 13.45 -0.85 13.2 L-1.2 12.7 -1.35 13.3 Q-1.75 13.95 -2.6 13.75 L-2.7 14.0 Q-3.1 15.0 -4.05 14.4 L-4.05 14.4 -4.2 14.3 Q-4.8 13.85 -4.95 13.2 L-4.95 12.95" fill="none" stroke="#000000" stroke-linecap="round" stroke-linejoin="round" stroke-opacity="0.0" stroke-width="1.0">
      <animate attributeName="stroke" dur="2s" repeatCount="indefinite" values="#000000;#000001"/>
      <animate attributeName="stroke-width" dur="2s" repeatCount="indefinite" values="0.0;0.0"/>
      <animate attributeName="fill-opacity" dur="2s" repeatCount="indefinite" values="0.0;0.0"/>
      <animate attributeName="d" dur="2s" repeatCount="indefinite" values="M-4.95 12.95 L-4.65 12.8 -4.55 12.8 -4.25 12.8 Q-4.1 12.85 -3.95 13.0 L-3.7 13.35 -3.55 13.5 -3.3 12.9 -2.9 12.55 -2.65 12.45 -2.55 12.4 -2.45 12.3 -2.15 12.35 Q-1.95 11.8 -1.55 11.6 L-1.45 11.55 -1.35 11.55 -1.25 11.55 -1.15 11.55 -0.95 11.45 -0.85 11.5 -0.8 11.55 -0.65 11.8 -0.45 12.0 -0.4 12.05 -0.15 11.9 -0.1 11.55 0.05 11.35 0.05 11.25 0.15 10.85 0.45 10.5 0.6 10.45 0.95 10.8 1.05 11.0 1.05 11.2 1.0 11.55 1.0 11.65 0.8 12.0 0.7 12.1 0.65 12.3 0.25 12.95 -0.45 13.35 Q-0.7 13.45 -0.85 13.2 L-1.2 12.7 -1.35 13.3 Q-1.75 13.95 -2.6 13.75 L-2.7 14.0 Q-3.1 15.0 -4.05 14.4 L-4.05 14.4 -4.2 14.3 Q-4.8 13.85 -4.95 13.2 L-4.95 12.95;M-3.0 16.45 L-2.95 16.35 -2.95 16.3 -2.85 16.2 Q-2.8 16.15 -2.75 16.1 L-2.75 15.9 -2.7 15.8 -2.35 15.25 -2.15 15.2 -1.95 15.25 -1.8 15.3 -1.7 15.3 -1.5 15.25 Q-1.2 15.2 -0.9 15.15 L-0.9 15.05 -0.9 14.95 -0.9 14.85 -0.85 14.8 -0.75 14.7 -0.75 14.7 -0.75 14.7 -0.65 14.6 -0.65 14.4 -0.65 14.4 -0.65 14.1 -0.5 14.0 -0.4 13.9 -0.35 13.85 -0.15 13.75 0.2 13.8 0.35 13.9 0.45 14.2 0.45 14.3 0.45 14.4 0.35 14.5 0.3 14.6 0.35 14.85 0.35 14.95 0.25 15.05 0.05 15.35 -0.1 15.9 Q-0.25 16.1 -0.45 16.3 L-0.9 16.35 -1.25 16.3 Q-1.45 16.45 -1.7 16.65 L-1.8 16.75 Q-1.75 17.35 -2.4 17.45 L-2.5 17.45 -2.6 17.35 Q-3.1 17.05 -3.0 16.45 L-3.0 16.45"/>
    </path>
  </g>
</svg>
