<?xml version="1.0" encoding="UTF-8" standalone="no"?>
<svg xmlns:xlink="http://www.w3.org/1999/xlink" height="8.35px" width="5.65px" xmlns="http://www.w3.org/2000/svg">
  <g transform="matrix(1.0, 0.0, 0.0, 1.0, 3.0, -13.75)">
    <path d="M-3.0 16.45 L-3.0 16.45 Q-3.1 17.2 -2.4 17.45 L-2.15 17.35 -2.15 17.35 -2.05 17.35 -1.9 17.25 -1.9 17.25 -1.8 16.75 -1.7 16.65 -1.7 16.65 -1.6 16.65 -1.3 16.35 -1.25 16.3 Q-0.45 16.55 -0.15 15.95 L0.05 15.35 0.25 15.05 0.3 14.6 0.35 14.5 0.45 14.4 0.45 14.4 0.45 14.4 0.45 14.3 0.45 14.3 0.45 14.2 0.4 14.0 -0.15 13.75 -0.15 13.75 -0.25 13.85 -0.35 13.85 Q-0.5 14.0 -0.65 14.1 L-0.65 14.4 -0.65 14.6 -0.65 14.6 -0.75 14.7 -0.85 14.8 -0.9 14.85 -0.9 14.95 -0.9 15.05 -0.9 15.15 -1.2 15.2 -1.4 15.2 -1.7 15.3 -1.8 15.3 -1.95 15.25 -2.15 15.2 -2.35 15.25 -2.65 15.6 -2.75 15.9 -2.75 16.1 -2.85 16.2 -2.95 16.3 -2.95 16.35 -3.0 16.45" fill="#000000" fill-rule="evenodd" stroke="none">
      <animate attributeName="fill" dur="2s" repeatCount="indefinite" values="#000000;#000001"/>
      <animate attributeName="fill-opacity" dur="2s" repeatCount="indefinite" values="1.0;1.0"/>
      <animate attributeName="d" dur="2s" repeatCount="indefinite" values="M-3.0 16.45 L-3.0 16.45 Q-3.1 17.2 -2.4 17.45 L-2.15 17.35 -2.15 17.35 -2.05 17.35 -1.9 17.25 -1.9 17.25 -1.8 16.75 -1.7 16.65 -1.7 16.65 -1.6 16.65 -1.3 16.35 -1.25 16.3 Q-0.45 16.55 -0.15 15.95 L0.05 15.35 0.25 15.05 0.3 14.6 0.35 14.5 0.45 14.4 0.45 14.4 0.45 14.4 0.45 14.3 0.45 14.3 0.45 14.2 0.4 14.0 -0.15 13.75 -0.15 13.75 -0.25 13.85 -0.35 13.85 Q-0.5 14.0 -0.65 14.1 L-0.65 14.4 -0.65 14.6 -0.65 14.6 -0.75 14.7 -0.85 14.8 -0.9 14.85 -0.9 14.95 -0.9 15.05 -0.9 15.15 -1.2 15.2 -1.4 15.2 -1.7 15.3 -1.8 15.3 -1.95 15.25 -2.15 15.2 -2.35 15.25 -2.65 15.6 -2.75 15.9 -2.75 16.1 -2.85 16.2 -2.95 16.3 -2.95 16.35 -3.0 16.45;M-2.35 19.7 L-2.25 19.8 Q-1.65 20.2 -1.05 20.55 L-0.95 20.6 -0.85 20.7 -0.65 20.9 -0.6 21.1 -0.6 21.2 0.1 21.7 0.3 21.75 0.3 21.75 0.4 21.95 0.95 22.05 1.15 21.95 Q1.85 21.5 1.95 20.5 L2.6 19.85 2.65 19.25 2.45 18.6 2.3 18.4 2.1 18.2 2.05 18.2 1.95 18.2 1.95 18.25 1.85 18.25 1.85 18.25 1.75 18.4 1.6 19.15 1.6 19.15 1.5 19.2 1.35 19.3 Q1.05 19.5 1.0 19.85 L1.05 20.2 1.05 20.35 0.95 20.3 0.65 20.25 0.45 20.25 0.45 20.25 0.3 20.25 0.3 20.25 0.1 20.05 -0.2 19.8 -0.2 19.45 -0.3 19.0 -0.4 18.8 -0.5 18.65 -0.7 18.55 -1.1 18.75 -1.3 19.05 -1.65 18.95 -2.15 19.1 -2.3 19.25 -2.35 19.45 -2.35 19.45 -2.35 19.7"/>
    </path>
    <path d="M-3.0 16.45 L-2.95 16.35 -2.95 16.3 -2.85 16.2 -2.75 16.1 -2.75 15.9 -2.65 15.6 -2.35 15.25 -2.15 15.2 -1.95 15.25 -1.8 15.3 -1.7 15.3 -1.4 15.2 -1.2 15.2 -0.9 15.15 -0.9 15.05 -0.9 14.95 -0.9 14.85 -0.85 14.8 -0.75 14.7 -0.65 14.6 -0.65 14.6 -0.65 14.4 -0.65 14.1 Q-0.5 14.0 -0.35 13.85 L-0.25 13.85 -0.15 13.75 -0.15 13.75 0.4 14.0 0.45 14.2 0.45 14.3 0.45 14.3 0.45 14.4 0.45 14.4 0.45 14.4 0.35 14.5 0.3 14.6 0.25 15.05 0.05 15.35 -0.15 15.95 Q-0.45 16.55 -1.25 16.3 L-1.3 16.35 -1.6 16.65 -1.7 16.65 -1.7 16.65 -1.8 16.75 -1.9 17.25 -1.9 17.25 -2.05 17.35 -2.15 17.35 -2.15 17.35 -2.4 17.45 Q-3.1 17.2 -3.0 16.45 L-3.0 16.45" fill="none" stroke="#000000" stroke-linecap="round" stroke-linejoin="round" stroke-opacity="0.0" stroke-width="1.0">
      <animate attributeName="stroke" dur="2s" repeatCount="indefinite" values="#000000;#000001"/>
      <animate attributeName="stroke-width" dur="2s" repeatCount="indefinite" values="0.0;0.0"/>
      <animate attributeName="fill-opacity" dur="2s" repeatCount="indefinite" values="0.0;0.0"/>
      <animate attributeName="d" dur="2s" repeatCount="indefinite" values="M-3.0 16.45 L-2.95 16.35 -2.95 16.3 -2.85 16.2 -2.75 16.1 -2.75 15.9 -2.65 15.6 -2.35 15.25 -2.15 15.2 -1.95 15.25 -1.8 15.3 -1.7 15.3 -1.4 15.2 -1.2 15.2 -0.9 15.15 -0.9 15.05 -0.9 14.95 -0.9 14.85 -0.85 14.8 -0.75 14.7 -0.65 14.6 -0.65 14.6 -0.65 14.4 -0.65 14.1 Q-0.5 14.0 -0.35 13.85 L-0.25 13.85 -0.15 13.75 -0.15 13.75 0.4 14.0 0.45 14.2 0.45 14.3 0.45 14.3 0.45 14.4 0.45 14.4 0.45 14.4 0.35 14.5 0.3 14.6 0.25 15.05 0.05 15.35 -0.15 15.95 Q-0.45 16.55 -1.25 16.3 L-1.3 16.35 -1.6 16.65 -1.7 16.65 -1.7 16.65 -1.8 16.75 -1.9 17.25 -1.9 17.25 -2.05 17.35 -2.15 17.35 -2.15 17.35 -2.4 17.45 Q-3.1 17.2 -3.0 16.45 L-3.0 16.45;M-2.35 19.7 L-2.35 19.45 -2.35 19.45 -2.3 19.25 -2.15 19.1 -1.65 18.95 -1.3 19.05 -1.1 18.75 -0.7 18.55 -0.5 18.65 -0.4 18.8 -0.3 19.0 -0.2 19.45 -0.2 19.8 0.1 20.05 0.3 20.25 0.3 20.25 0.45 20.25 0.45 20.25 0.65 20.25 0.95 20.3 1.05 20.35 1.05 20.2 1.0 19.85 Q1.05 19.5 1.35 19.3 L1.5 19.2 1.6 19.15 1.6 19.15 1.75 18.4 1.85 18.25 1.85 18.25 1.95 18.25 1.95 18.2 2.05 18.2 2.1 18.2 2.3 18.4 2.45 18.6 2.65 19.25 2.6 19.85 1.95 20.5 Q1.85 21.5 1.15 21.95 L0.95 22.05 0.4 21.95 0.3 21.75 0.3 21.75 0.1 21.7 -0.6 21.2 -0.6 21.1 -0.65 20.9 -0.85 20.7 -0.95 20.6 -1.05 20.55 Q-1.65 20.2 -2.25 19.8 L-2.35 19.7"/>
    </path>
  </g>
</svg>
