<?xml version="1.0" encoding="UTF-8" standalone="no"?>
<svg xmlns:xlink="http://www.w3.org/1999/xlink" height="6.45px" width="6.05px" xmlns="http://www.w3.org/2000/svg">
  <g transform="matrix(1.0, 0.0, 0.0, 1.0, 11.35, 7.5)">
    <path d="M-10.35 -5.15 L-10.25 -5.05 Q-9.9 -5.0 -9.6 -4.95 -9.25 -5.25 -8.95 -5.55 L-8.95 -5.5 -8.95 -5.4 -8.65 -5.2 -8.65 -5.2 Q-8.05 -4.9 -7.55 -5.45 L-6.8 -5.35 Q-6.55 -5.4 -6.35 -5.6 L-6.1 -5.7 -6.1 -5.7 -5.8 -6.05 -5.9 -6.25 -6.1 -6.35 -6.2 -6.35 Q-6.45 -6.4 -6.65 -6.45 L-7.6 -6.45 -8.2 -6.3 -8.2 -6.35 -8.25 -6.45 -8.35 -6.7 -8.45 -6.85 -8.45 -6.95 -8.45 -6.95 -8.5 -7.25 -8.65 -7.4 -9.0 -7.5 -9.15 -7.4 Q-9.45 -7.05 -9.7 -6.75 -9.85 -6.35 -9.95 -6.0 L-9.95 -6.0 -9.95 -5.9 -9.95 -5.9 -10.05 -5.8 -10.1 -5.8 Q-10.5 -5.55 -10.35 -5.15" fill="#000000" fill-rule="evenodd" stroke="none">
      <animate attributeName="fill" dur="2s" repeatCount="indefinite" values="#000000;#000001"/>
      <animate attributeName="fill-opacity" dur="2s" repeatCount="indefinite" values="1.0;1.0"/>
      <animate attributeName="d" dur="2s" repeatCount="indefinite" values="M-10.35 -5.15 L-10.25 -5.05 Q-9.9 -5.0 -9.6 -4.95 -9.25 -5.25 -8.95 -5.55 L-8.95 -5.5 -8.95 -5.4 -8.65 -5.2 -8.65 -5.2 Q-8.05 -4.9 -7.55 -5.45 L-6.8 -5.35 Q-6.55 -5.4 -6.35 -5.6 L-6.1 -5.7 -6.1 -5.7 -5.8 -6.05 -5.9 -6.25 -6.1 -6.35 -6.2 -6.35 Q-6.45 -6.4 -6.65 -6.45 L-7.6 -6.45 -8.2 -6.3 -8.2 -6.35 -8.25 -6.45 -8.35 -6.7 -8.45 -6.85 -8.45 -6.95 -8.45 -6.95 -8.5 -7.25 -8.65 -7.4 -9.0 -7.5 -9.15 -7.4 Q-9.45 -7.05 -9.7 -6.75 -9.85 -6.35 -9.95 -6.0 L-9.95 -6.0 -9.95 -5.9 -9.95 -5.9 -10.05 -5.8 -10.1 -5.8 Q-10.5 -5.55 -10.35 -5.15;M-11.35 -1.3 L-11.35 -1.3 Q-10.75 -0.75 -10.35 -1.5 -9.5 -1.25 -9.25 -2.1 L-9.25 -2.1 -9.15 -2.0 -9.1 -1.8 -9.0 -1.75 Q-8.2 -1.0 -7.65 -1.5 L-7.25 -2.05 Q-6.95 -2.05 -6.7 -2.2 L-6.45 -2.5 -6.45 -2.5 -5.7 -2.65 -5.5 -2.9 -5.3 -3.3 -5.3 -3.4 Q-5.4 -3.85 -5.9 -3.8 L-7.1 -3.25 -8.15 -3.15 -8.15 -3.15 -8.15 -3.05 -8.1 -2.75 -8.05 -2.6 -8.1 -2.5 -8.2 -2.4 -8.3 -2.65 -8.35 -3.0 -8.75 -3.3 -9.0 -3.35 Q-9.4 -3.4 -9.9 -2.95 -10.4 -3.25 -10.7 -2.8 L-10.7 -2.7 -10.75 -2.6 -10.75 -2.5 -10.85 -2.4 -10.95 -2.3 Q-11.45 -1.9 -11.35 -1.3"/>
    </path>
    <path d="M-10.35 -5.15 Q-10.5 -5.55 -10.1 -5.8 L-10.05 -5.8 -9.95 -5.9 -9.95 -5.9 -9.95 -6.0 -9.95 -6.0 Q-9.85 -6.35 -9.7 -6.75 -9.45 -7.05 -9.15 -7.4 L-9.0 -7.5 -8.65 -7.4 -8.5 -7.25 -8.45 -6.95 -8.45 -6.95 -8.45 -6.85 -8.35 -6.7 -8.25 -6.45 -8.2 -6.35 -8.2 -6.3 -7.6 -6.45 -6.65 -6.45 Q-6.45 -6.4 -6.2 -6.35 L-6.1 -6.35 -5.9 -6.25 -5.8 -6.05 -6.1 -5.7 -6.1 -5.7 -6.35 -5.6 Q-6.55 -5.4 -6.8 -5.35 L-7.55 -5.45 Q-8.05 -4.9 -8.65 -5.2 L-8.65 -5.2 -8.95 -5.4 -8.95 -5.5 -8.95 -5.55 Q-9.25 -5.25 -9.6 -4.95 -9.9 -5.0 -10.25 -5.05 L-10.35 -5.15" fill="none" stroke="#000000" stroke-linecap="round" stroke-linejoin="round" stroke-opacity="0.0" stroke-width="1.0">
      <animate attributeName="stroke" dur="2s" repeatCount="indefinite" values="#000000;#000001"/>
      <animate attributeName="stroke-width" dur="2s" repeatCount="indefinite" values="0.0;0.0"/>
      <animate attributeName="fill-opacity" dur="2s" repeatCount="indefinite" values="0.0;0.0"/>
      <animate attributeName="d" dur="2s" repeatCount="indefinite" values="M-10.35 -5.15 Q-10.5 -5.55 -10.1 -5.8 L-10.05 -5.8 -9.95 -5.9 -9.95 -5.9 -9.95 -6.0 -9.95 -6.0 Q-9.85 -6.35 -9.7 -6.75 -9.45 -7.05 -9.15 -7.4 L-9.0 -7.5 -8.65 -7.4 -8.5 -7.25 -8.45 -6.95 -8.45 -6.95 -8.45 -6.85 -8.35 -6.7 -8.25 -6.45 -8.2 -6.35 -8.2 -6.3 -7.6 -6.45 -6.65 -6.45 Q-6.45 -6.4 -6.2 -6.35 L-6.1 -6.35 -5.9 -6.25 -5.8 -6.05 -6.1 -5.7 -6.1 -5.7 -6.35 -5.6 Q-6.55 -5.4 -6.8 -5.35 L-7.55 -5.45 Q-8.05 -4.9 -8.65 -5.2 L-8.65 -5.2 -8.95 -5.4 -8.95 -5.5 -8.95 -5.55 Q-9.25 -5.25 -9.6 -4.95 -9.9 -5.0 -10.25 -5.05 L-10.35 -5.15;M-11.35 -1.3 Q-11.45 -1.9 -10.95 -2.3 L-10.85 -2.4 -10.75 -2.5 -10.75 -2.6 -10.7 -2.7 -10.7 -2.8 Q-10.4 -3.25 -9.9 -2.95 -9.4 -3.4 -9.0 -3.35 L-8.75 -3.3 -8.35 -3.0 -8.3 -2.65 -8.2 -2.4 -8.1 -2.5 -8.05 -2.6 -8.1 -2.75 -8.15 -3.05 -8.15 -3.15 -8.15 -3.15 -7.1 -3.25 -5.9 -3.8 Q-5.4 -3.85 -5.3 -3.4 L-5.3 -3.3 -5.5 -2.9 -5.7 -2.65 -6.45 -2.5 -6.45 -2.5 -6.7 -2.2 Q-6.95 -2.05 -7.25 -2.05 L-7.65 -1.5 Q-8.2 -1.0 -9.0 -1.75 L-9.1 -1.8 -9.15 -2.0 -9.25 -2.1 -9.25 -2.1 Q-9.5 -1.25 -10.35 -1.5 -10.75 -0.75 -11.35 -1.3 L-11.35 -1.3"/>
    </path>
  </g>
</svg>
