<?xml version="1.0" encoding="UTF-8" standalone="no"?>
<svg xmlns:xlink="http://www.w3.org/1999/xlink" height="6.9px" width="6.05px" xmlns="http://www.w3.org/2000/svg">
  <g transform="matrix(1.0, 0.0, 0.0, 1.0, 11.35, 3.8)">
    <path d="M-11.35 -1.3 L-11.15 -1.15 Q-10.65 -0.9 -10.35 -1.5 L-10.05 -1.45 -9.8 -1.45 Q-9.4 -1.6 -9.25 -2.15 L-9.15 -2.0 -9.15 -2.0 -9.1 -1.8 -9.0 -1.75 -8.6 -1.45 Q-7.95 -1.05 -7.5 -1.65 L-7.25 -2.05 Q-6.7 -2.05 -6.45 -2.5 L-6.35 -2.5 -6.05 -2.55 -5.45 -2.95 -5.3 -3.3 -5.3 -3.4 -5.65 -3.8 -5.8 -3.8 -5.9 -3.8 Q-6.2 -3.65 -6.5 -3.5 L-7.1 -3.25 -8.15 -3.15 -8.15 -2.95 -8.1 -2.75 -8.2 -2.4 -8.3 -2.65 -8.35 -3.0 -8.45 -3.1 -8.55 -3.2 Q-9.1 -3.65 -9.9 -2.95 L-9.9 -2.95 Q-10.15 -3.0 -10.35 -3.05 L-10.7 -2.8 -10.7 -2.7 -10.75 -2.6 -10.75 -2.5 -10.95 -2.3 Q-11.45 -1.9 -11.35 -1.3" fill="#000000" fill-rule="evenodd" stroke="none">
      <animate attributeName="fill" dur="2s" repeatCount="indefinite" values="#000000;#000001"/>
      <animate attributeName="fill-opacity" dur="2s" repeatCount="indefinite" values="1.0;1.0"/>
      <animate attributeName="d" dur="2s" repeatCount="indefinite" values="M-11.35 -1.3 L-11.15 -1.15 Q-10.65 -0.9 -10.35 -1.5 L-10.05 -1.45 -9.8 -1.45 Q-9.4 -1.6 -9.25 -2.15 L-9.15 -2.0 -9.15 -2.0 -9.1 -1.8 -9.0 -1.75 -8.6 -1.45 Q-7.95 -1.05 -7.5 -1.65 L-7.25 -2.05 Q-6.7 -2.05 -6.45 -2.5 L-6.35 -2.5 -6.05 -2.55 -5.45 -2.95 -5.3 -3.3 -5.3 -3.4 -5.65 -3.8 -5.8 -3.8 -5.9 -3.8 Q-6.2 -3.65 -6.5 -3.5 L-7.1 -3.25 -8.15 -3.15 -8.15 -2.95 -8.1 -2.75 -8.2 -2.4 -8.3 -2.65 -8.35 -3.0 -8.45 -3.1 -8.55 -3.2 Q-9.1 -3.65 -9.9 -2.95 L-9.9 -2.95 Q-10.15 -3.0 -10.35 -3.05 L-10.7 -2.8 -10.7 -2.7 -10.75 -2.6 -10.75 -2.5 -10.95 -2.3 Q-11.45 -1.9 -11.35 -1.3;M-11.35 2.85 L-11.35 2.85 Q-11.0 2.95 -10.65 3.05 L-10.55 2.95 -10.5 2.75 Q-10.4 2.55 -10.35 2.35 L-10.3 2.25 -10.1 2.15 -10.0 2.15 -9.9 2.15 -9.65 1.9 Q-9.0 1.85 -8.35 1.85 L-7.85 2.1 Q-7.4 1.95 -7.0 1.8 L-6.9 1.7 -6.8 1.5 -6.65 1.1 -6.4 0.9 -6.3 0.85 -6.05 0.45 -6.05 0.35 -6.05 0.25 Q-6.15 0.0 -6.5 -0.05 L-7.15 0.25 -7.65 0.9 -7.75 1.0 -7.95 0.85 -8.3 0.75 -8.6 0.8 -8.9 0.95 -9.0 0.95 -9.05 0.85 Q-9.6 0.9 -10.15 0.9 L-10.15 0.9 Q-10.45 0.7 -10.65 0.9 L-10.9 1.35 -10.9 1.45 -11.0 1.55 -11.05 1.65 -11.2 1.95 Q-11.3 2.4 -11.35 2.85"/>
    </path>
    <path d="M-11.35 -1.3 Q-11.45 -1.9 -10.95 -2.3 L-10.75 -2.5 -10.75 -2.6 -10.7 -2.7 -10.7 -2.8 -10.35 -3.05 Q-10.15 -3.0 -9.9 -2.95 L-9.9 -2.95 Q-9.1 -3.65 -8.55 -3.2 L-8.45 -3.1 -8.35 -3.0 -8.3 -2.65 -8.2 -2.4 -8.1 -2.75 -8.15 -2.95 -8.15 -3.15 -7.1 -3.25 -6.5 -3.5 Q-6.2 -3.65 -5.9 -3.8 L-5.8 -3.8 -5.65 -3.8 -5.3 -3.4 -5.3 -3.3 -5.45 -2.95 -6.05 -2.55 -6.35 -2.5 -6.45 -2.5 Q-6.7 -2.05 -7.25 -2.05 L-7.5 -1.65 Q-7.95 -1.05 -8.6 -1.45 L-9.0 -1.75 -9.1 -1.8 -9.15 -2.0 -9.15 -2.0 -9.25 -2.15 Q-9.4 -1.6 -9.8 -1.45 L-10.05 -1.45 -10.35 -1.5 Q-10.65 -0.9 -11.15 -1.15 L-11.35 -1.3" fill="none" stroke="#000000" stroke-linecap="round" stroke-linejoin="round" stroke-opacity="0.0" stroke-width="1.0">
      <animate attributeName="stroke" dur="2s" repeatCount="indefinite" values="#000000;#000001"/>
      <animate attributeName="stroke-width" dur="2s" repeatCount="indefinite" values="0.0;0.0"/>
      <animate attributeName="fill-opacity" dur="2s" repeatCount="indefinite" values="0.0;0.0"/>
      <animate attributeName="d" dur="2s" repeatCount="indefinite" values="M-11.35 -1.3 Q-11.45 -1.9 -10.95 -2.3 L-10.75 -2.5 -10.75 -2.6 -10.7 -2.7 -10.7 -2.8 -10.35 -3.05 Q-10.15 -3.0 -9.9 -2.95 L-9.9 -2.95 Q-9.1 -3.65 -8.55 -3.2 L-8.45 -3.1 -8.35 -3.0 -8.3 -2.65 -8.2 -2.4 -8.1 -2.75 -8.15 -2.95 -8.15 -3.15 -7.1 -3.25 -6.5 -3.5 Q-6.2 -3.65 -5.9 -3.8 L-5.8 -3.8 -5.65 -3.8 -5.3 -3.4 -5.3 -3.3 -5.45 -2.95 -6.05 -2.55 -6.35 -2.5 -6.45 -2.5 Q-6.7 -2.05 -7.25 -2.05 L-7.5 -1.65 Q-7.95 -1.05 -8.6 -1.45 L-9.0 -1.75 -9.1 -1.8 -9.15 -2.0 -9.15 -2.0 -9.25 -2.15 Q-9.4 -1.6 -9.8 -1.45 L-10.05 -1.45 -10.35 -1.5 Q-10.65 -0.9 -11.15 -1.15 L-11.35 -1.3;M-11.35 2.85 Q-11.3 2.4 -11.2 1.95 L-11.05 1.65 -11.0 1.55 -10.9 1.45 -10.9 1.35 -10.65 0.9 Q-10.45 0.7 -10.15 0.9 L-10.15 0.9 Q-9.6 0.9 -9.05 0.85 L-9.0 0.95 -8.9 0.95 -8.6 0.8 -8.3 0.75 -7.95 0.85 -7.75 1.0 -7.65 0.9 -7.15 0.25 -6.5 -0.05 Q-6.15 0.0 -6.05 0.25 L-6.05 0.35 -6.05 0.45 -6.3 0.85 -6.4 0.9 -6.65 1.1 -6.8 1.5 -6.9 1.7 -7.0 1.8 Q-7.4 1.95 -7.85 2.1 L-8.35 1.85 Q-9.0 1.85 -9.65 1.9 L-9.9 2.15 -10.0 2.15 -10.1 2.15 -10.3 2.25 -10.35 2.35 Q-10.4 2.55 -10.5 2.75 L-10.55 2.95 -10.65 3.05 Q-11.0 2.95 -11.35 2.85 L-11.35 2.85"/>
    </path>
  </g>
</svg>
