<?xml version="1.0" encoding="UTF-8" standalone="no"?>
<svg xmlns:xlink="http://www.w3.org/1999/xlink" height="5.25px" width="5.4px" xmlns="http://www.w3.org/2000/svg">
  <g transform="matrix(1.0, 0.0, 0.0, 1.0, 2.6, -9.0)">
    <path d="M-2.6 11.35 L-2.6 11.35 Q-1.85 11.85 -1.2 11.1 L-1.2 11.25 -1.2 11.35 -0.9 11.65 -0.55 11.95 -0.05 12.25 0.05 12.3 0.15 12.3 0.45 12.35 0.55 12.35 1.45 11.45 1.65 11.6 2.1 11.85 2.6 11.7 2.65 11.4 2.7 10.85 2.8 10.45 Q2.7 9.95 2.3 9.95 L1.95 10.0 1.45 9.95 1.3 9.85 1.1 9.75 Q0.85 9.95 0.6 10.1 L0.65 10.3 0.65 10.3 0.65 10.4 0.65 10.5 0.3 11.35 0.15 11.45 0.05 11.35 0.0 11.25 -0.05 11.15 -0.05 11.05 -0.05 10.95 -0.05 10.95 -0.3 10.4 -0.25 10.3 -0.2 9.9 Q-0.2 9.3 -0.75 9.0 L-0.75 9.05 -0.9 9.05 -0.95 9.1 -1.05 9.15 -1.35 9.45 -1.35 9.55 -1.4 9.6 -1.4 9.7 -1.75 10.0 -1.85 10.1 Q-2.5 10.65 -2.6 11.35" fill="#000000" fill-rule="evenodd" stroke="none">
      <animate attributeName="fill" dur="2s" repeatCount="indefinite" values="#000000;#000001"/>
      <animate attributeName="fill-opacity" dur="2s" repeatCount="indefinite" values="1.0;1.0"/>
      <animate attributeName="d" dur="2s" repeatCount="indefinite" values="M-2.6 11.35 L-2.6 11.35 Q-1.85 11.85 -1.2 11.1 L-1.2 11.25 -1.2 11.35 -0.9 11.65 -0.55 11.95 -0.05 12.25 0.05 12.3 0.15 12.3 0.45 12.35 0.55 12.35 1.45 11.45 1.65 11.6 2.1 11.85 2.6 11.7 2.65 11.4 2.7 10.85 2.8 10.45 Q2.7 9.95 2.3 9.95 L1.95 10.0 1.45 9.95 1.3 9.85 1.1 9.75 Q0.85 9.95 0.6 10.1 L0.65 10.3 0.65 10.3 0.65 10.4 0.65 10.5 0.3 11.35 0.15 11.45 0.05 11.35 0.0 11.25 -0.05 11.15 -0.05 11.05 -0.05 10.95 -0.05 10.95 -0.3 10.4 -0.25 10.3 -0.2 9.9 Q-0.2 9.3 -0.75 9.0 L-0.75 9.05 -0.9 9.05 -0.95 9.1 -1.05 9.15 -1.35 9.45 -1.35 9.55 -1.4 9.6 -1.4 9.7 -1.75 10.0 -1.85 10.1 Q-2.5 10.65 -2.6 11.35;M-2.35 13.95 L-2.15 14.05 Q-1.65 14.0 -1.15 13.95 L-1.15 13.95 -1.15 13.95 -1.05 13.8 -0.95 13.65 -0.85 13.5 -0.75 13.6 -0.65 13.7 -0.6 13.85 -0.6 13.95 0.45 14.0 0.45 14.0 0.9 14.05 1.2 14.2 1.4 14.25 1.75 13.9 1.9 13.7 Q1.95 13.4 1.95 13.15 L1.95 13.05 1.8 12.7 1.75 12.6 1.65 12.55 Q1.45 12.5 1.2 12.8 L1.1 12.9 1.05 12.95 0.95 12.95 0.85 12.95 0.3 12.75 0.3 12.7 0.2 12.6 0.2 12.6 0.15 12.5 0.05 12.4 0.05 12.4 0.05 12.3 -0.05 11.9 -0.15 11.8 -0.4 11.7 Q-0.7 11.95 -1.0 12.2 L-1.0 12.2 -1.0 12.2 -1.0 12.2 -1.1 12.3 -1.3 12.55 -1.4 12.65 -1.5 12.75 -1.5 12.75 -1.75 12.95 -1.85 13.05 Q-2.4 13.35 -2.35 13.95"/>
    </path>
    <path d="M-2.6 11.35 Q-2.5 10.65 -1.85 10.1 L-1.75 10.0 -1.4 9.7 -1.4 9.6 -1.35 9.55 -1.35 9.45 -1.05 9.15 -0.95 9.1 -0.9 9.05 -0.75 9.05 -0.75 9.0 Q-0.2 9.3 -0.2 9.9 L-0.25 10.3 -0.3 10.4 -0.05 10.95 -0.05 10.95 -0.05 11.05 -0.05 11.15 0.0 11.25 0.05 11.35 0.15 11.45 0.3 11.35 0.65 10.5 0.65 10.4 0.65 10.3 0.65 10.3 0.6 10.1 Q0.85 9.95 1.1 9.75 L1.3 9.85 1.45 9.95 1.95 10.0 2.3 9.95 Q2.7 9.95 2.8 10.45 L2.7 10.85 2.65 11.4 2.6 11.7 2.1 11.85 1.65 11.6 1.45 11.45 0.55 12.35 0.45 12.35 0.15 12.3 0.05 12.3 -0.05 12.25 -0.55 11.95 -0.9 11.65 -1.2 11.35 -1.2 11.25 -1.2 11.1 Q-1.85 11.85 -2.6 11.35 L-2.6 11.35" fill="none" stroke="#000000" stroke-linecap="round" stroke-linejoin="round" stroke-opacity="0.0" stroke-width="1.0">
      <animate attributeName="stroke" dur="2s" repeatCount="indefinite" values="#000000;#000001"/>
      <animate attributeName="stroke-width" dur="2s" repeatCount="indefinite" values="0.0;0.0"/>
      <animate attributeName="fill-opacity" dur="2s" repeatCount="indefinite" values="0.0;0.0"/>
      <animate attributeName="d" dur="2s" repeatCount="indefinite" values="M-2.6 11.35 Q-2.5 10.65 -1.85 10.1 L-1.75 10.0 -1.4 9.7 -1.4 9.6 -1.35 9.55 -1.35 9.45 -1.05 9.15 -0.95 9.1 -0.9 9.05 -0.75 9.05 -0.75 9.0 Q-0.2 9.3 -0.2 9.9 L-0.25 10.3 -0.3 10.4 -0.05 10.95 -0.05 10.95 -0.05 11.05 -0.05 11.15 0.0 11.25 0.05 11.35 0.15 11.45 0.3 11.35 0.65 10.5 0.65 10.4 0.65 10.3 0.65 10.3 0.6 10.1 Q0.85 9.95 1.1 9.75 L1.3 9.85 1.45 9.95 1.95 10.0 2.3 9.95 Q2.7 9.95 2.8 10.45 L2.7 10.85 2.65 11.4 2.6 11.7 2.1 11.85 1.65 11.6 1.45 11.45 0.55 12.35 0.45 12.35 0.15 12.3 0.05 12.3 -0.05 12.25 -0.55 11.95 -0.9 11.65 -1.2 11.35 -1.2 11.25 -1.2 11.1 Q-1.85 11.85 -2.6 11.35 L-2.6 11.35;M-2.35 13.95 Q-2.4 13.35 -1.85 13.05 L-1.75 12.95 -1.5 12.75 -1.5 12.75 -1.4 12.65 -1.3 12.55 -1.1 12.3 -1.0 12.2 -1.0 12.2 -1.0 12.2 -1.0 12.2 Q-0.7 11.95 -0.4 11.7 L-0.15 11.8 -0.05 11.9 0.05 12.3 0.05 12.4 0.05 12.4 0.15 12.5 0.2 12.6 0.2 12.6 0.3 12.7 0.3 12.75 0.85 12.95 0.95 12.95 1.05 12.95 1.1 12.9 1.2 12.8 Q1.45 12.5 1.65 12.55 L1.75 12.6 1.8 12.7 1.95 13.05 1.95 13.15 Q1.95 13.4 1.9 13.7 L1.75 13.9 1.4 14.25 1.2 14.2 0.9 14.05 0.45 14.0 0.45 14.0 -0.6 13.95 -0.6 13.85 -0.65 13.7 -0.75 13.6 -0.85 13.5 -0.95 13.65 -1.05 13.8 -1.15 13.95 -1.15 13.95 -1.15 13.95 Q-1.65 14.0 -2.15 14.05 L-2.35 13.95"/>
    </path>
  </g>
</svg>
