<?xml version="1.0" encoding="UTF-8" standalone="no"?>
<svg xmlns:xlink="http://www.w3.org/1999/xlink" height="5.05px" width="5.3px" xmlns="http://www.w3.org/2000/svg">
  <g transform="matrix(1.0, 0.0, 0.0, 1.0, -0.25, 12.75)">
    <path d="M0.25 -11.55 Q0.3 -11.25 0.3 -10.95 L0.3 -10.75 0.3 -10.65 0.4 -10.55 0.6 -10.45 Q1.15 -10.3 1.2 -11.0 L1.4 -11.05 1.5 -11.05 1.7 -11.1 1.8 -11.1 2.0 -11.2 2.35 -11.1 2.8 -11.15 2.9 -11.3 2.95 -11.6 2.95 -11.8 3.05 -11.9 3.2 -12.1 3.2 -12.2 3.2 -12.3 3.2 -12.3 2.85 -12.7 2.5 -12.7 2.35 -12.7 2.3 -12.65 2.3 -12.6 2.2 -12.6 2.2 -12.6 2.05 -12.45 1.95 -12.4 1.7 -12.45 0.95 -12.25 0.85 -12.25 0.75 -12.3 0.65 -12.3 0.3 -12.05 0.25 -11.55" fill="#000000" fill-rule="evenodd" stroke="none">
      <animate attributeName="fill" dur="2s" repeatCount="indefinite" values="#000000;#000001"/>
      <animate attributeName="fill-opacity" dur="2s" repeatCount="indefinite" values="1.0;1.0"/>
      <animate attributeName="d" dur="2s" repeatCount="indefinite" values="M0.25 -11.55 Q0.3 -11.25 0.3 -10.95 L0.3 -10.75 0.3 -10.65 0.4 -10.55 0.6 -10.45 Q1.15 -10.3 1.2 -11.0 L1.4 -11.05 1.5 -11.05 1.7 -11.1 1.8 -11.1 2.0 -11.2 2.35 -11.1 2.8 -11.15 2.9 -11.3 2.95 -11.6 2.95 -11.8 3.05 -11.9 3.2 -12.1 3.2 -12.2 3.2 -12.3 3.2 -12.3 2.85 -12.7 2.5 -12.7 2.35 -12.7 2.3 -12.65 2.3 -12.6 2.2 -12.6 2.2 -12.6 2.05 -12.45 1.95 -12.4 1.7 -12.45 0.95 -12.25 0.85 -12.25 0.75 -12.3 0.65 -12.3 0.3 -12.05 0.25 -11.55;M1.65 -8.05 Q1.8 -7.8 2.1 -7.8 L2.3 -7.85 2.4 -7.85 2.5 -7.95 2.55 -8.15 Q3.05 -7.5 3.65 -7.75 L3.95 -8.0 3.95 -8.05 4.05 -8.15 4.05 -8.25 4.4 -8.35 4.95 -8.6 5.35 -8.8 5.45 -9.0 5.55 -9.3 5.55 -9.3 5.4 -9.6 4.85 -9.75 4.65 -9.65 4.55 -9.55 4.55 -9.55 3.9 -9.45 3.25 -9.45 3.15 -9.35 3.05 -9.25 3.05 -9.25 3.05 -9.35 3.05 -9.5 3.0 -9.8 2.9 -9.9 2.6 -10.05 2.0 -9.55 1.9 -9.45 1.9 -9.3 1.8 -9.2 1.65 -8.65 1.65 -8.05"/>
    </path>
    <path d="M0.25 -11.55 L0.3 -12.05 0.65 -12.3 0.75 -12.3 0.85 -12.25 0.95 -12.25 1.7 -12.45 1.95 -12.4 2.05 -12.45 2.2 -12.6 2.2 -12.6 2.3 -12.6 2.3 -12.65 2.35 -12.7 2.5 -12.7 2.85 -12.7 3.2 -12.3 3.2 -12.3 3.2 -12.2 3.2 -12.1 3.05 -11.9 2.95 -11.8 2.95 -11.6 2.9 -11.3 2.8 -11.15 2.35 -11.1 2.0 -11.2 1.8 -11.1 1.7 -11.1 1.5 -11.05 1.4 -11.05 1.2 -11.0 Q1.15 -10.3 0.6 -10.45 L0.4 -10.55 0.3 -10.65 0.3 -10.75 0.3 -10.95 Q0.3 -11.25 0.25 -11.55" fill="none" stroke="#000000" stroke-linecap="round" stroke-linejoin="round" stroke-opacity="0.0" stroke-width="1.0">
      <animate attributeName="stroke" dur="2s" repeatCount="indefinite" values="#000000;#000001"/>
      <animate attributeName="stroke-width" dur="2s" repeatCount="indefinite" values="0.0;0.0"/>
      <animate attributeName="fill-opacity" dur="2s" repeatCount="indefinite" values="0.0;0.0"/>
      <animate attributeName="d" dur="2s" repeatCount="indefinite" values="M0.25 -11.55 L0.3 -12.05 0.65 -12.3 0.75 -12.3 0.85 -12.25 0.95 -12.25 1.7 -12.45 1.95 -12.4 2.05 -12.45 2.2 -12.6 2.2 -12.6 2.3 -12.6 2.3 -12.65 2.35 -12.7 2.5 -12.7 2.85 -12.7 3.2 -12.3 3.2 -12.3 3.2 -12.2 3.2 -12.1 3.05 -11.9 2.95 -11.8 2.95 -11.6 2.9 -11.3 2.8 -11.15 2.35 -11.1 2.0 -11.2 1.8 -11.1 1.7 -11.1 1.5 -11.05 1.4 -11.05 1.2 -11.0 Q1.15 -10.3 0.6 -10.45 L0.4 -10.55 0.3 -10.65 0.3 -10.75 0.3 -10.95 Q0.3 -11.25 0.25 -11.55;M1.65 -8.05 L1.65 -8.65 1.8 -9.2 1.9 -9.3 1.9 -9.45 2.0 -9.55 2.6 -10.05 2.9 -9.9 3.0 -9.8 3.05 -9.5 3.05 -9.35 3.05 -9.25 3.05 -9.25 3.15 -9.35 3.25 -9.45 3.9 -9.45 4.55 -9.55 4.55 -9.55 4.65 -9.65 4.85 -9.75 5.4 -9.6 5.55 -9.3 5.55 -9.3 5.45 -9.0 5.35 -8.8 4.95 -8.6 4.4 -8.35 4.05 -8.25 4.05 -8.15 3.95 -8.05 3.95 -8.0 3.65 -7.75 Q3.05 -7.5 2.55 -8.15 L2.5 -7.95 2.4 -7.85 2.3 -7.85 2.1 -7.8 Q1.8 -7.8 1.65 -8.05"/>
    </path>
  </g>
</svg>
