<?xml version="1.0" encoding="UTF-8" standalone="no"?>
<svg xmlns:xlink="http://www.w3.org/1999/xlink" height="7.05px" width="7.15px" xmlns="http://www.w3.org/2000/svg">
  <g transform="matrix(1.0, 0.0, 0.0, 1.0, 11.35, 0.05)">
    <path d="M-11.35 2.85 Q-10.95 3.3 -10.55 2.95 -10.5 2.85 -10.5 2.75 -10.4 2.5 -10.3 2.25 -9.9 2.15 -9.65 1.9 -9.0 1.85 -8.35 1.85 -7.55 2.45 -6.9 1.7 -6.85 1.6 -6.8 1.5 L-6.65 1.1 Q-6.35 0.75 -6.05 0.45 -6.05 0.4 -6.05 0.35 -6.1 0.0 -6.5 -0.05 -7.35 0.15 -7.75 1.0 -8.35 0.95 -8.9 0.95 -8.95 0.95 -9.0 0.95 L-9.05 0.85 Q-9.6 0.9 -10.15 0.9 -10.45 0.7 -10.65 0.9 -11.4 1.75 -11.35 2.85" fill="#000000" fill-rule="evenodd" stroke="none">
      <animate attributeName="fill" dur="2s" repeatCount="indefinite" values="#000000;#000001"/>
      <animate attributeName="fill-opacity" dur="2s" repeatCount="indefinite" values="1.0;1.0"/>
      <animate attributeName="d" dur="2s" repeatCount="indefinite" values="M-11.35 2.85 Q-10.95 3.3 -10.55 2.95 -10.5 2.85 -10.5 2.75 -10.4 2.5 -10.3 2.25 -9.9 2.15 -9.65 1.9 -9.0 1.85 -8.35 1.85 -7.55 2.45 -6.9 1.7 -6.85 1.6 -6.8 1.5 L-6.65 1.1 Q-6.35 0.75 -6.05 0.45 -6.05 0.4 -6.05 0.35 -6.1 0.0 -6.5 -0.05 -7.35 0.15 -7.75 1.0 -8.35 0.95 -8.9 0.95 -8.95 0.95 -9.0 0.95 L-9.05 0.85 Q-9.6 0.9 -10.15 0.9 -10.45 0.7 -10.65 0.9 -11.4 1.75 -11.35 2.85;M-9.45 6.85 Q-9.4 6.9 -9.35 6.95 -8.45 7.25 -8.3 6.15 -7.25 6.9 -6.8 5.65 -6.7 5.65 -6.6 5.65 -6.05 6.3 -5.25 6.35 -4.9 6.35 -4.9 6.0 -4.85 4.85 -4.2 3.95 L-4.2 3.85 Q-4.25 3.5 -4.65 3.45 -5.9 3.8 -5.65 5.2 -5.95 4.7 -6.55 4.6 -6.65 4.4 -6.7 4.25 -6.8 3.95 -7.15 4.05 -7.8 4.15 -7.8 4.9 L-7.85 4.8 Q-8.6 4.15 -9.15 5.25 -9.2 5.45 -9.2 5.6 -9.35 6.25 -9.45 6.85"/>
    </path>
    <path d="M-11.35 2.85 Q-11.4 1.75 -10.65 0.9 -10.45 0.7 -10.15 0.9 -9.6 0.9 -9.05 0.85 L-9.0 0.95 Q-8.95 0.95 -8.9 0.95 -8.35 0.95 -7.75 1.0 -7.35 0.15 -6.5 -0.05 -6.1 0.0 -6.05 0.35 -6.05 0.4 -6.05 0.45 -6.35 0.75 -6.65 1.1 L-6.8 1.5 Q-6.85 1.6 -6.9 1.7 -7.55 2.45 -8.35 1.85 -9.0 1.85 -9.65 1.9 -9.9 2.15 -10.3 2.25 -10.4 2.5 -10.5 2.75 -10.5 2.85 -10.55 2.95 -10.95 3.3 -11.35 2.85" fill="none" stroke="#000000" stroke-linecap="round" stroke-linejoin="round" stroke-opacity="0.0" stroke-width="1.0">
      <animate attributeName="stroke" dur="2s" repeatCount="indefinite" values="#000000;#000001"/>
      <animate attributeName="stroke-width" dur="2s" repeatCount="indefinite" values="0.0;0.0"/>
      <animate attributeName="fill-opacity" dur="2s" repeatCount="indefinite" values="0.0;0.0"/>
      <animate attributeName="d" dur="2s" repeatCount="indefinite" values="M-11.35 2.85 Q-11.4 1.75 -10.65 0.9 -10.45 0.7 -10.15 0.9 -9.6 0.9 -9.05 0.85 L-9.0 0.95 Q-8.95 0.95 -8.9 0.95 -8.35 0.95 -7.75 1.0 -7.35 0.15 -6.5 -0.05 -6.1 0.0 -6.05 0.35 -6.05 0.4 -6.05 0.45 -6.35 0.75 -6.65 1.1 L-6.8 1.5 Q-6.85 1.6 -6.9 1.7 -7.55 2.45 -8.35 1.85 -9.0 1.85 -9.65 1.9 -9.9 2.15 -10.3 2.25 -10.4 2.5 -10.5 2.75 -10.5 2.85 -10.55 2.95 -10.95 3.3 -11.35 2.85;M-9.45 6.85 Q-9.35 6.25 -9.2 5.6 -9.2 5.45 -9.15 5.25 -8.6 4.15 -7.85 4.8 L-7.8 4.9 Q-7.8 4.15 -7.15 4.05 -6.8 3.95 -6.7 4.25 -6.65 4.4 -6.55 4.6 -5.95 4.7 -5.65 5.2 -5.9 3.8 -4.65 3.45 -4.25 3.5 -4.2 3.85 L-4.2 3.95 Q-4.85 4.85 -4.9 6.0 -4.9 6.35 -5.25 6.35 -6.05 6.3 -6.6 5.65 -6.7 5.65 -6.8 5.65 -7.25 6.9 -8.3 6.15 -8.45 7.25 -9.35 6.95 -9.4 6.9 -9.45 6.85"/>
    </path>
  </g>
</svg>
