<?xml version="1.0" encoding="UTF-8" standalone="no"?>
<svg xmlns:xlink="http://www.w3.org/1999/xlink" height="6.1px" width="5.4px" xmlns="http://www.w3.org/2000/svg">
  <g transform="matrix(1.0, 0.0, 0.0, 1.0, -1.65, 10.05)">
    <path d="M1.65 -8.05 L1.65 -8.05 1.7 -7.95 Q1.85 -7.8 2.1 -7.8 L2.3 -7.85 2.4 -7.9 2.55 -8.15 Q3.05 -7.5 3.55 -7.75 L3.65 -7.75 3.95 -8.0 4.05 -8.15 4.05 -8.25 4.5 -8.45 5.0 -8.65 5.35 -8.8 5.45 -9.0 5.55 -9.3 5.45 -9.55 5.3 -9.7 Q5.15 -9.75 5.05 -9.8 L4.95 -9.8 4.55 -9.55 4.45 -9.55 4.25 -9.55 3.9 -9.45 3.45 -9.45 3.35 -9.45 3.05 -9.25 3.05 -9.35 3.05 -9.6 3.05 -9.7 Q3.0 -10.0 2.6 -10.05 L2.6 -10.0 2.4 -9.9 1.9 -9.5 1.9 -9.45 1.8 -9.2 1.7 -8.9 Q1.65 -8.45 1.65 -8.05" fill="#000000" fill-rule="evenodd" stroke="none">
      <animate attributeName="fill" dur="2s" repeatCount="indefinite" values="#000000;#000001"/>
      <animate attributeName="fill-opacity" dur="2s" repeatCount="indefinite" values="1.0;1.0"/>
      <animate attributeName="d" dur="2s" repeatCount="indefinite" values="M1.65 -8.05 L1.65 -8.05 1.7 -7.95 Q1.85 -7.8 2.1 -7.8 L2.3 -7.85 2.4 -7.9 2.55 -8.15 Q3.05 -7.5 3.55 -7.75 L3.65 -7.75 3.95 -8.0 4.05 -8.15 4.05 -8.25 4.5 -8.45 5.0 -8.65 5.35 -8.8 5.45 -9.0 5.55 -9.3 5.45 -9.55 5.3 -9.7 Q5.15 -9.75 5.05 -9.8 L4.95 -9.8 4.55 -9.55 4.45 -9.55 4.25 -9.55 3.9 -9.45 3.45 -9.45 3.35 -9.45 3.05 -9.25 3.05 -9.35 3.05 -9.6 3.05 -9.7 Q3.0 -10.0 2.6 -10.05 L2.6 -10.0 2.4 -9.9 1.9 -9.5 1.9 -9.45 1.8 -9.2 1.7 -8.9 Q1.65 -8.45 1.65 -8.05;M3.15 -4.15 L3.35 -4.0 3.4 -4.0 Q3.8 -3.9 4.0 -4.15 L4.2 -4.45 4.2 -4.55 4.6 -4.45 Q5.15 -4.55 5.7 -4.65 L5.75 -4.55 6.15 -4.15 6.45 -4.1 6.55 -4.1 6.85 -4.3 7.0 -4.8 7.05 -5.15 6.95 -5.5 6.6 -5.9 6.5 -6.0 6.3 -5.9 Q6.15 -5.75 6.0 -5.75 L5.95 -5.8 5.65 -6.0 5.5 -6.05 5.35 -6.0 5.1 -5.85 4.95 -5.65 4.8 -5.65 4.6 -5.7 4.5 -5.7 4.3 -5.65 4.25 -5.7 Q4.1 -5.85 3.95 -5.95 L3.85 -6.0 3.65 -5.9 3.35 -5.65 3.35 -5.55 3.35 -5.3 3.25 -5.0 Q3.0 -4.6 3.15 -4.15"/>
    </path>
    <path d="M1.65 -8.05 Q1.65 -8.45 1.7 -8.9 L1.8 -9.2 1.9 -9.45 1.9 -9.5 2.4 -9.9 2.6 -10.0 2.6 -10.05 Q3.0 -10.0 3.05 -9.7 L3.05 -9.6 3.05 -9.35 3.05 -9.25 3.35 -9.45 3.45 -9.45 3.9 -9.45 4.25 -9.55 4.45 -9.55 4.55 -9.55 4.95 -9.8 5.05 -9.8 Q5.15 -9.75 5.3 -9.7 L5.45 -9.55 5.55 -9.3 5.45 -9.0 5.35 -8.8 5.0 -8.65 4.5 -8.45 4.05 -8.25 4.05 -8.15 3.95 -8.0 3.65 -7.75 3.55 -7.75 Q3.05 -7.5 2.55 -8.15 L2.4 -7.9 2.3 -7.85 2.1 -7.8 Q1.85 -7.8 1.7 -7.95 L1.65 -8.05 1.65 -8.05" fill="none" stroke="#000000" stroke-linecap="round" stroke-linejoin="round" stroke-opacity="0.0" stroke-width="1.0">
      <animate attributeName="stroke" dur="2s" repeatCount="indefinite" values="#000000;#000001"/>
      <animate attributeName="stroke-width" dur="2s" repeatCount="indefinite" values="0.0;0.0"/>
      <animate attributeName="fill-opacity" dur="2s" repeatCount="indefinite" values="0.0;0.0"/>
      <animate attributeName="d" dur="2s" repeatCount="indefinite" values="M1.65 -8.05 Q1.65 -8.45 1.7 -8.9 L1.8 -9.2 1.9 -9.45 1.9 -9.5 2.4 -9.9 2.6 -10.0 2.6 -10.05 Q3.0 -10.0 3.05 -9.7 L3.05 -9.6 3.05 -9.35 3.05 -9.25 3.35 -9.45 3.45 -9.45 3.9 -9.45 4.25 -9.55 4.45 -9.55 4.55 -9.55 4.95 -9.8 5.05 -9.8 Q5.15 -9.75 5.3 -9.7 L5.45 -9.55 5.55 -9.3 5.45 -9.0 5.35 -8.8 5.0 -8.65 4.5 -8.45 4.05 -8.25 4.05 -8.15 3.95 -8.0 3.65 -7.75 3.55 -7.75 Q3.05 -7.5 2.55 -8.15 L2.4 -7.9 2.3 -7.85 2.1 -7.8 Q1.85 -7.8 1.7 -7.95 L1.65 -8.05 1.65 -8.05;M3.15 -4.15 Q3.0 -4.6 3.25 -5.0 L3.35 -5.3 3.35 -5.55 3.35 -5.65 3.65 -5.9 3.85 -6.0 3.95 -5.95 Q4.1 -5.85 4.25 -5.7 L4.3 -5.65 4.5 -5.7 4.6 -5.7 4.8 -5.65 4.95 -5.65 5.1 -5.85 5.35 -6.0 5.5 -6.05 5.65 -6.0 5.95 -5.8 6.0 -5.75 Q6.15 -5.75 6.3 -5.9 L6.5 -6.0 6.6 -5.9 6.95 -5.5 7.05 -5.15 7.0 -4.8 6.85 -4.3 6.55 -4.1 6.45 -4.1 6.15 -4.15 5.75 -4.55 5.7 -4.65 Q5.15 -4.55 4.6 -4.45 L4.2 -4.55 4.2 -4.45 4.0 -4.15 Q3.8 -3.9 3.4 -4.0 L3.35 -4.0 3.15 -4.15"/>
    </path>
  </g>
</svg>
