<?xml version="1.0" encoding="UTF-8" standalone="no"?>
<svg xmlns:xlink="http://www.w3.org/1999/xlink" height="5.25px" width="6.5px" xmlns="http://www.w3.org/2000/svg">
  <g transform="matrix(1.0, 0.0, 0.0, 1.0, 9.45, -3.45)">
    <path d="M-9.45 6.85 L-9.35 6.95 Q-8.6 7.2 -8.35 6.45 L-8.3 6.15 Q-7.8 6.3 -7.35 6.4 -7.2 6.3 -7.1 6.2 L-6.8 5.65 -6.6 5.65 -6.6 5.65 Q-6.05 6.3 -5.25 6.35 -4.9 6.35 -4.9 6.0 L-4.65 4.85 -4.2 3.95 -4.2 3.85 -4.3 3.6 -4.65 3.45 Q-5.35 3.65 -5.55 4.2 -5.6 4.7 -5.65 5.2 -5.95 4.7 -6.55 4.6 L-6.7 4.25 Q-6.8 3.95 -7.15 4.05 L-7.35 4.1 Q-7.8 4.3 -7.8 4.9 L-7.85 4.8 -8.05 4.65 -8.4 4.55 -8.5 4.55 -9.15 5.25 -9.2 5.6 Q-9.35 6.1 -9.45 6.55 L-9.45 6.85" fill="#000000" fill-rule="evenodd" stroke="none">
      <animate attributeName="fill" dur="2s" repeatCount="indefinite" values="#000000;#000001"/>
      <animate attributeName="fill-opacity" dur="2s" repeatCount="indefinite" values="1.0;1.0"/>
      <animate attributeName="d" dur="2s" repeatCount="indefinite" values="M-9.45 6.85 L-9.35 6.95 Q-8.6 7.2 -8.35 6.45 L-8.3 6.15 Q-7.8 6.3 -7.35 6.4 -7.2 6.3 -7.1 6.2 L-6.8 5.65 -6.6 5.65 -6.6 5.65 Q-6.05 6.3 -5.25 6.35 -4.9 6.35 -4.9 6.0 L-4.65 4.85 -4.2 3.95 -4.2 3.85 -4.3 3.6 -4.65 3.45 Q-5.35 3.65 -5.55 4.2 -5.6 4.7 -5.65 5.2 -5.95 4.7 -6.55 4.6 L-6.7 4.25 Q-6.8 3.95 -7.15 4.05 L-7.35 4.1 Q-7.8 4.3 -7.8 4.9 L-7.85 4.8 -8.05 4.65 -8.4 4.55 -8.5 4.55 -9.15 5.25 -9.2 5.6 Q-9.35 6.1 -9.45 6.55 L-9.45 6.85;M-8.0 7.35 L-8.0 7.35 Q-7.95 7.9 -7.95 8.45 L-7.75 8.6 Q-7.3 8.85 -7.05 8.3 -6.9 8.4 -6.8 8.45 L-6.35 8.6 -6.25 8.6 -6.25 8.6 Q-5.75 8.45 -5.3 8.3 -5.1 8.1 -4.9 7.95 L-4.3 7.1 -3.55 7.1 -3.45 7.05 -3.25 6.8 -3.05 6.5 Q-2.75 5.8 -3.4 5.45 -3.9 5.55 -4.0 6.1 -4.35 6.1 -4.65 6.1 L-4.95 6.3 Q-5.1 6.5 -5.2 6.7 L-5.3 6.9 Q-5.8 6.9 -5.95 7.25 L-5.95 7.35 -6.0 7.55 -6.15 7.7 -6.25 7.7 -6.9 6.9 -7.25 6.8 Q-7.55 6.75 -7.95 7.05 L-8.0 7.35"/>
    </path>
    <path d="M-9.45 6.85 L-9.45 6.55 Q-9.35 6.1 -9.2 5.6 L-9.15 5.25 -8.5 4.55 -8.4 4.55 -8.05 4.65 -7.85 4.8 -7.8 4.9 Q-7.8 4.3 -7.35 4.1 L-7.15 4.05 Q-6.8 3.95 -6.7 4.25 L-6.55 4.6 Q-5.95 4.7 -5.65 5.2 -5.6 4.7 -5.55 4.2 -5.35 3.65 -4.65 3.45 L-4.3 3.6 -4.2 3.85 -4.2 3.95 -4.65 4.85 -4.9 6.0 Q-4.9 6.35 -5.25 6.35 -6.05 6.3 -6.6 5.65 L-6.6 5.65 -6.8 5.65 -7.1 6.2 Q-7.2 6.3 -7.35 6.4 -7.8 6.3 -8.3 6.15 L-8.35 6.45 Q-8.6 7.2 -9.35 6.95 L-9.45 6.85" fill="none" stroke="#000000" stroke-linecap="round" stroke-linejoin="round" stroke-opacity="0.0" stroke-width="1.0">
      <animate attributeName="stroke" dur="2s" repeatCount="indefinite" values="#000000;#000001"/>
      <animate attributeName="stroke-width" dur="2s" repeatCount="indefinite" values="0.0;0.0"/>
      <animate attributeName="fill-opacity" dur="2s" repeatCount="indefinite" values="0.0;0.0"/>
      <animate attributeName="d" dur="2s" repeatCount="indefinite" values="M-9.45 6.85 L-9.45 6.55 Q-9.35 6.1 -9.2 5.6 L-9.15 5.25 -8.5 4.55 -8.4 4.55 -8.05 4.65 -7.85 4.8 -7.8 4.9 Q-7.8 4.3 -7.35 4.1 L-7.15 4.05 Q-6.8 3.95 -6.7 4.25 L-6.55 4.6 Q-5.95 4.7 -5.65 5.2 -5.6 4.7 -5.55 4.2 -5.35 3.65 -4.65 3.45 L-4.3 3.6 -4.2 3.85 -4.2 3.95 -4.65 4.85 -4.9 6.0 Q-4.9 6.35 -5.25 6.35 -6.05 6.3 -6.6 5.65 L-6.6 5.65 -6.8 5.65 -7.1 6.2 Q-7.2 6.3 -7.35 6.4 -7.8 6.3 -8.3 6.15 L-8.35 6.45 Q-8.6 7.2 -9.35 6.95 L-9.45 6.85;M-8.0 7.35 L-7.95 7.05 Q-7.55 6.75 -7.25 6.8 L-6.9 6.9 -6.25 7.7 -6.15 7.7 -6.0 7.55 -5.95 7.35 -5.95 7.25 Q-5.8 6.9 -5.3 6.9 L-5.2 6.7 Q-5.1 6.5 -4.95 6.3 L-4.65 6.1 Q-4.35 6.1 -4.0 6.1 -3.9 5.55 -3.4 5.45 -2.75 5.8 -3.05 6.5 L-3.25 6.8 -3.45 7.05 -3.55 7.1 -4.3 7.1 -4.9 7.95 Q-5.1 8.1 -5.3 8.3 -5.75 8.45 -6.25 8.6 L-6.25 8.6 -6.35 8.6 -6.8 8.45 Q-6.9 8.4 -7.05 8.3 -7.3 8.85 -7.75 8.6 L-7.95 8.45 Q-7.95 7.9 -8.0 7.35 L-8.0 7.35"/>
    </path>
  </g>
</svg>
