<?xml version="1.0" encoding="UTF-8" standalone="no"?>
<svg xmlns:xlink="http://www.w3.org/1999/xlink" height="37.7px" width="28.0px" xmlns="http://www.w3.org/2000/svg">
  <g transform="matrix(1.0, 0.0, 0.0, 1.0, 14.2, 13.95)">
    <path d="M-14.2 0.05 L-14.2 0.45 -14.1 1.65 -14.05 2.15 Q-13.95 2.75 -13.85 3.35 -13.5 4.35 -13.2 5.35 L-13.0 5.75 -12.9 6.05 -12.0 7.65 -11.35 8.55 -10.85 8.85 Q-10.0 9.3 -9.2 9.85 -8.45 10.35 -7.75 10.8 -7.3 11.1 -7.2 11.65 L-7.1 12.35 Q-7.0 12.8 -6.9 13.2 L-6.85 13.35 -6.75 13.55 Q-6.55 14.05 -6.35 14.55 -5.55 15.2 -4.8 15.8 -4.35 16.45 -4.2 17.25 -4.0 18.25 -4.35 19.5 L-4.45 20.15 -4.0 21.35 -3.25 20.6 -3.0 20.5 -3.0 20.5 Q-2.1 20.55 -1.85 21.15 L-1.75 21.1 -1.5 21.2 -1.4 21.3 -1.35 20.9 -1.35 20.6 -1.3 19.45 -1.2 19.2 -0.8 18.95 -0.5 18.85 0.45 18.9 Q1.45 19.1 1.4 20.45 L1.3 21.0 1.3 21.3 1.15 21.95 1.05 22.25 1.15 22.75 1.5 23.75 Q2.15 23.2 2.8 22.65 L2.9 22.55 3.3 21.65 3.6 20.8 3.9 20.0 4.2 18.95 4.45 18.05 4.45 17.85 4.65 16.35 Q4.7 15.85 5.15 15.5 L5.35 15.35 5.65 14.55 6.0 13.55 6.3 12.95 Q6.8 12.05 7.65 11.45 L7.65 11.45 8.6 10.75 9.7 9.95 10.15 9.55 Q10.35 8.45 10.95 7.6 L11.3 7.15 Q11.85 6.75 12.35 6.4 L12.35 6.4 Q13.35 4.35 13.65 2.05 L13.8 0.05 Q13.8 -4.95 10.75 -8.7 L9.7 -9.85 Q5.95 -13.6 0.8 -13.9 L-0.2 -13.95 Q-5.75 -13.95 -9.75 -10.15 L-10.1 -9.85 Q-14.2 -5.75 -14.2 0.05" fill="url(#gradient0)" fill-rule="evenodd" stroke="none">
      <animate attributeName="d" dur="2s" repeatCount="indefinite" values="M-14.2 0.05 L-14.2 0.45 -14.1 1.65 -14.05 2.15 Q-13.95 2.75 -13.85 3.35 -13.5 4.35 -13.2 5.35 L-13.0 5.75 -12.9 6.05 -12.0 7.65 -11.35 8.55 -10.85 8.85 Q-10.0 9.3 -9.2 9.85 -8.45 10.35 -7.75 10.8 -7.3 11.1 -7.2 11.65 L-7.1 12.35 Q-7.0 12.8 -6.9 13.2 L-6.85 13.35 -6.75 13.55 Q-6.55 14.05 -6.35 14.55 -5.55 15.2 -4.8 15.8 -4.35 16.45 -4.2 17.25 -4.0 18.25 -4.35 19.5 L-4.45 20.15 -4.0 21.35 -3.25 20.6 -3.0 20.5 -3.0 20.5 Q-2.1 20.55 -1.85 21.15 L-1.75 21.1 -1.5 21.2 -1.4 21.3 -1.35 20.9 -1.35 20.6 -1.3 19.45 -1.2 19.2 -0.8 18.95 -0.5 18.85 0.45 18.9 Q1.45 19.1 1.4 20.45 L1.3 21.0 1.3 21.3 1.15 21.95 1.05 22.25 1.15 22.75 1.5 23.75 Q2.15 23.2 2.8 22.65 L2.9 22.55 3.3 21.65 3.6 20.8 3.9 20.0 4.2 18.95 4.45 18.05 4.45 17.85 4.65 16.35 Q4.7 15.85 5.15 15.5 L5.35 15.35 5.65 14.55 6.0 13.55 6.3 12.95 Q6.8 12.05 7.65 11.45 L7.65 11.45 8.6 10.75 9.7 9.95 10.15 9.55 Q10.35 8.45 10.95 7.6 L11.3 7.15 Q11.85 6.75 12.35 6.4 L12.35 6.4 Q13.35 4.35 13.65 2.05 L13.8 0.05 Q13.8 -4.95 10.75 -8.7 L9.7 -9.85 Q5.95 -13.6 0.8 -13.9 L-0.2 -13.95 Q-5.75 -13.95 -9.75 -10.15 L-10.1 -9.85 Q-14.2 -5.75 -14.2 0.05;M-14.2 0.05 L-14.2 0.05 -14.15 1.25 -13.65 1.75 Q-13.15 2.25 -13.15 3.0 -13.1 4.0 -13.3 5.0 L-13.15 5.5 -12.55 6.0 -11.4 7.0 -10.8 7.6 -10.6 7.8 Q-9.75 8.55 -9.9 9.7 -8.8 9.8 -8.1 10.45 -7.85 10.75 -7.65 11.0 L-7.4 11.55 Q-7.25 11.95 -7.25 12.4 L-7.25 12.5 -7.05 12.6 Q-6.5 12.75 -6.1 13.1 -5.4 13.7 -5.45 14.85 -5.5 15.6 -5.5 16.3 -4.4 17.2 -3.85 18.3 L-3.6 18.9 -3.3 19.85 -3.25 20.55 -3.25 20.75 -3.1 21.1 Q-2.9 21.75 -2.7 22.35 L-2.7 22.55 -2.7 22.75 -2.6 22.95 -2.4 23.25 -2.25 23.5 -1.9 22.5 -1.7 22.1 -1.5 21.7 -1.25 21.3 -0.6 20.55 Q0.4 19.75 1.3 20.4 L1.6 20.65 1.8 20.95 2.2 21.7 2.5 22.2 2.7 22.55 2.7 21.5 Q2.75 20.65 3.25 19.95 L3.25 19.85 3.35 18.8 3.65 18.0 4.1 17.35 4.9 16.65 5.15 15.9 5.25 15.7 5.55 14.3 Q5.7 13.95 5.8 13.6 L6.0 13.3 6.55 12.6 7.2 11.8 7.65 11.45 Q8.55 10.8 9.45 10.15 L9.7 9.95 10.35 9.25 10.95 8.0 11.2 7.35 Q11.45 6.4 11.7 5.5 L12.05 4.95 Q12.5 4.55 12.95 4.3 L13.25 4.15 Q13.8 2.2 13.8 0.05 L13.7 -1.9 Q13.1 -6.45 9.7 -9.85 L8.65 -10.8 Q4.9 -13.95 -0.2 -13.95 L-1.2 -13.9 Q-6.35 -13.6 -10.1 -9.85 L-10.45 -9.45 Q-14.2 -5.5 -14.2 0.05"/>
    </path>
    <path d="M-14.2 0.05 Q-14.2 -5.75 -10.1 -9.85 L-9.75 -10.15 Q-5.75 -13.95 -0.2 -13.95 L0.8 -13.9 Q5.95 -13.6 9.7 -9.85 L10.75 -8.7 Q13.8 -4.95 13.8 0.05 L13.65 2.05 Q13.35 4.35 12.35 6.4 L12.35 6.4 Q11.85 6.75 11.3 7.15 L10.95 7.6 Q10.35 8.45 10.15 9.55 L9.7 9.95 8.6 10.75 7.65 11.45 7.65 11.45 Q6.8 12.05 6.3 12.95 L6.0 13.55 5.65 14.55 5.35 15.35 5.15 15.5 Q4.7 15.85 4.65 16.35 L4.45 17.85 4.45 18.05 4.2 18.95 3.9 20.0 3.6 20.8 3.3 21.65 2.9 22.55 2.8 22.65 Q2.15 23.2 1.5 23.75 L1.15 22.75 1.05 22.25 1.15 21.95 1.3 21.3 1.3 21.0 1.4 20.45 Q1.45 19.1 0.45 18.9 L-0.5 18.85 -0.8 18.95 -1.2 19.2 -1.3 19.45 -1.35 20.6 -1.35 20.9 -1.4 21.3 -1.5 21.2 -1.75 21.1 -1.85 21.15 Q-2.1 20.55 -3.0 20.5 L-3.0 20.5 -3.25 20.6 -4.0 21.35 -4.45 20.15 -4.35 19.5 Q-4.0 18.25 -4.2 17.25 -4.35 16.45 -4.8 15.8 -5.55 15.2 -6.35 14.55 -6.55 14.05 -6.75 13.55 L-6.85 13.35 -6.9 13.2 Q-7.0 12.8 -7.1 12.35 L-7.2 11.65 Q-7.3 11.1 -7.75 10.8 -8.45 10.35 -9.2 9.85 -10.0 9.3 -10.85 8.85 L-11.35 8.55 -12.0 7.65 -12.9 6.05 -13.0 5.75 -13.2 5.35 Q-13.5 4.35 -13.85 3.35 -13.95 2.75 -14.05 2.15 L-14.1 1.65 -14.2 0.45 -14.2 0.05" fill="none" stroke="#000000" stroke-linecap="round" stroke-linejoin="round" stroke-opacity="0.0" stroke-width="1.0">
      <animate attributeName="stroke" dur="2s" repeatCount="indefinite" values="#000000;#000001"/>
      <animate attributeName="stroke-width" dur="2s" repeatCount="indefinite" values="0.0;0.0"/>
      <animate attributeName="fill-opacity" dur="2s" repeatCount="indefinite" values="0.0;0.0"/>
      <animate attributeName="d" dur="2s" repeatCount="indefinite" values="M-14.2 0.05 Q-14.2 -5.75 -10.1 -9.85 L-9.75 -10.15 Q-5.75 -13.95 -0.2 -13.95 L0.8 -13.9 Q5.95 -13.6 9.7 -9.85 L10.75 -8.7 Q13.8 -4.95 13.8 0.05 L13.65 2.05 Q13.35 4.35 12.35 6.4 L12.35 6.4 Q11.85 6.75 11.3 7.15 L10.95 7.6 Q10.35 8.45 10.15 9.55 L9.7 9.95 8.6 10.75 7.65 11.45 7.65 11.45 Q6.8 12.05 6.3 12.95 L6.0 13.55 5.65 14.55 5.35 15.35 5.15 15.5 Q4.7 15.85 4.65 16.35 L4.45 17.85 4.45 18.05 4.2 18.95 3.9 20.0 3.6 20.8 3.3 21.65 2.9 22.55 2.8 22.65 Q2.15 23.2 1.5 23.75 L1.15 22.75 1.05 22.25 1.15 21.95 1.3 21.3 1.3 21.0 1.4 20.45 Q1.45 19.1 0.45 18.9 L-0.5 18.85 -0.8 18.95 -1.2 19.2 -1.3 19.45 -1.35 20.6 -1.35 20.9 -1.4 21.3 -1.5 21.2 -1.75 21.1 -1.85 21.15 Q-2.1 20.55 -3.0 20.5 L-3.0 20.5 -3.25 20.6 -4.0 21.35 -4.45 20.15 -4.35 19.5 Q-4.0 18.25 -4.2 17.25 -4.35 16.45 -4.8 15.8 -5.55 15.2 -6.35 14.55 -6.55 14.05 -6.75 13.55 L-6.85 13.35 -6.9 13.2 Q-7.0 12.8 -7.1 12.35 L-7.2 11.65 Q-7.3 11.1 -7.75 10.8 -8.45 10.35 -9.2 9.85 -10.0 9.3 -10.85 8.85 L-11.35 8.55 -12.0 7.65 -12.9 6.05 -13.0 5.75 -13.2 5.35 Q-13.5 4.35 -13.85 3.35 -13.95 2.75 -14.05 2.15 L-14.1 1.65 -14.2 0.45 -14.2 0.05;M-14.2 0.05 Q-14.2 -5.5 -10.45 -9.45 L-10.1 -9.85 Q-6.35 -13.6 -1.2 -13.9 L-0.2 -13.95 Q4.9 -13.95 8.65 -10.8 L9.7 -9.85 Q13.1 -6.45 13.7 -1.9 L13.8 0.05 Q13.8 2.2 13.25 4.15 L12.95 4.3 Q12.5 4.55 12.05 4.95 L11.7 5.5 Q11.45 6.4 11.2 7.35 L10.95 8.0 10.35 9.25 9.7 9.95 9.45 10.15 Q8.55 10.8 7.65 11.45 L7.2 11.8 6.55 12.6 6.0 13.3 5.8 13.6 Q5.7 13.95 5.55 14.3 L5.25 15.7 5.15 15.9 4.9 16.65 4.1 17.35 3.65 18.0 3.35 18.8 3.25 19.85 3.25 19.95 Q2.75 20.65 2.7 21.5 L2.7 22.55 2.5 22.2 2.2 21.7 1.8 20.95 1.6 20.65 1.3 20.4 Q0.4 19.75 -0.6 20.55 L-1.25 21.3 -1.5 21.7 -1.7 22.1 -1.9 22.5 -2.25 23.5 -2.4 23.25 -2.6 22.95 -2.7 22.75 -2.7 22.55 -2.7 22.35 Q-2.9 21.75 -3.1 21.1 L-3.25 20.75 -3.25 20.55 -3.3 19.85 -3.6 18.9 -3.85 18.3 Q-4.4 17.2 -5.5 16.3 -5.5 15.6 -5.45 14.85 -5.4 13.7 -6.1 13.1 -6.5 12.75 -7.05 12.6 L-7.25 12.5 -7.25 12.4 Q-7.25 11.95 -7.4 11.55 L-7.65 11.0 Q-7.85 10.75 -8.1 10.45 -8.8 9.8 -9.9 9.7 -9.75 8.55 -10.6 7.8 L-10.8 7.6 -11.4 7.0 -12.55 6.0 -13.15 5.5 -13.3 5.0 Q-13.1 4.0 -13.15 3.0 -13.15 2.25 -13.65 1.75 L-14.15 1.25 -14.2 0.05 -14.2 0.05"/>
    </path>
  </g>
  <defs>
    <radialGradient cx="0" cy="0" gradientTransform="matrix(0.0219, 0.0, 0.0, 0.0242, -0.05, -0.05)" gradientUnits="userSpaceOnUse" id="gradient0" r="819.2" spreadMethod="pad">
      <animateTransform additive="replace" attributeName="gradientTransform" dur="2s" from="1" repeatCount="indefinite" to="1" type="scale"/>
      <animateTransform additive="sum" attributeName="gradientTransform" dur="2s" from="-0.05 -0.05" repeatCount="indefinite" to="-0.05 -0.05" type="translate"/>
      <animateTransform additive="sum" attributeName="gradientTransform" dur="2s" from="0.0" repeatCount="indefinite" to="0.0" type="rotate"/>
      <animateTransform additive="sum" attributeName="gradientTransform" dur="2s" from="0.0219 0.0242" repeatCount="indefinite" to="0.0219 0.0242" type="scale"/>
      <animateTransform additive="sum" attributeName="gradientTransform" dur="2s" from="0.0" repeatCount="indefinite" to="0.0" type="skewX"/>
      <stop offset="0.0" stop-color="#fefe0c" stop-opacity="0.9019608">
        <animate attributeName="offset" dur="2s" repeatCount="indefinite" values="0.0;0.0"/>
        <animate attributeName="stop-color" dur="2s" repeatCount="indefinite" values="#fefe0c;#fefe0d"/>
        <animate attributeName="stop-opacity" dur="2s" repeatCount="indefinite" values="0.9019608;0.9019608"/>
      </stop>
      <stop offset="0.5764705882352941" stop-color="#ffba2b" stop-opacity="0.9019608">
        <animate attributeName="offset" dur="2s" repeatCount="indefinite" values="0.5764705882352941;0.5764705882352941"/>
        <animate attributeName="stop-color" dur="2s" repeatCount="indefinite" values="#ffba2b;#ffba2c"/>
        <animate attributeName="stop-opacity" dur="2s" repeatCount="indefinite" values="0.9019608;0.9019608"/>
      </stop>
      <stop offset="1.0" stop-color="#ff720b" stop-opacity="0.9019608">
        <animate attributeName="offset" dur="2s" repeatCount="indefinite" values="1.0;1.0"/>
        <animate attributeName="stop-color" dur="2s" repeatCount="indefinite" values="#ff720b;#ff720c"/>
        <animate attributeName="stop-opacity" dur="2s" repeatCount="indefinite" values="0.9019608;0.9019608"/>
      </stop>
    </radialGradient>
  </defs>
</svg>
