<?xml version="1.0" encoding="UTF-8" standalone="no"?>
<svg xmlns:xlink="http://www.w3.org/1999/xlink" height="6.4px" width="6.2px" xmlns="http://www.w3.org/2000/svg">
  <g transform="matrix(1.0, 0.0, 0.0, 1.0, 8.0, -5.45)">
    <path d="M-8.0 7.35 L-8.0 7.35 -7.95 8.45 -7.6 8.65 Q-7.25 8.8 -7.05 8.3 -6.9 8.4 -6.8 8.45 -6.5 8.55 -6.25 8.6 L-5.25 8.2 Q-4.65 7.85 -4.3 7.1 L-4.05 7.15 -3.95 7.15 Q-3.55 7.15 -3.25 6.8 -3.1 6.55 -3.0 6.3 L-3.0 5.95 Q-3.05 5.65 -3.4 5.45 -3.9 5.55 -4.0 6.1 -4.75 5.85 -5.1 6.5 L-5.3 6.9 Q-5.8 6.9 -5.95 7.25 L-6.0 7.55 -6.05 7.6 -6.15 7.7 -6.25 7.7 -6.35 7.5 -6.45 7.4 -6.85 6.95 -7.95 7.05 -8.0 7.35" fill="#000000" fill-rule="evenodd" stroke="none">
      <animate attributeName="fill" dur="2s" repeatCount="indefinite" values="#000000;#000001"/>
      <animate attributeName="fill-opacity" dur="2s" repeatCount="indefinite" values="1.0;1.0"/>
      <animate attributeName="d" dur="2s" repeatCount="indefinite" values="M-8.0 7.35 L-8.0 7.35 -7.95 8.45 -7.6 8.65 Q-7.25 8.8 -7.05 8.3 -6.9 8.4 -6.8 8.45 -6.5 8.55 -6.25 8.6 L-5.25 8.2 Q-4.65 7.85 -4.3 7.1 L-4.05 7.15 -3.95 7.15 Q-3.55 7.15 -3.25 6.8 -3.1 6.55 -3.0 6.3 L-3.0 5.95 Q-3.05 5.65 -3.4 5.45 -3.9 5.55 -4.0 6.1 -4.75 5.85 -5.1 6.5 L-5.3 6.9 Q-5.8 6.9 -5.95 7.25 L-6.0 7.55 -6.05 7.6 -6.15 7.7 -6.25 7.7 -6.35 7.5 -6.45 7.4 -6.85 6.95 -7.95 7.05 -8.0 7.35;M-5.7 11.6 L-5.55 11.7 -4.85 11.6 -4.75 11.3 Q-4.55 11.35 -4.35 11.4 -4.3 11.4 -4.25 11.4 -3.95 11.35 -3.75 11.15 L-3.3 10.6 Q-2.65 10.45 -2.0 10.3 L-1.9 10.2 -1.85 10.1 Q-1.7 9.7 -1.85 9.5 -1.95 9.3 -2.25 9.2 L-2.4 9.25 Q-2.55 9.3 -2.65 9.35 -2.95 9.4 -3.2 9.4 -3.75 9.5 -4.15 9.95 L-4.55 9.8 Q-4.85 9.85 -5.15 9.85 L-5.45 10.0 -5.45 10.0 -5.5 10.1 -5.5 10.1 -5.5 10.2 -5.5 10.3 -5.65 10.6 -5.7 11.4 -5.7 11.6"/>
    </path>
    <path d="M-8.0 7.35 L-7.95 7.05 -6.85 6.95 -6.45 7.4 -6.35 7.5 -6.25 7.7 -6.15 7.7 -6.05 7.6 -6.0 7.55 -5.95 7.25 Q-5.8 6.9 -5.3 6.9 L-5.1 6.5 Q-4.75 5.85 -4.0 6.1 -3.9 5.55 -3.4 5.45 -3.05 5.65 -3.0 5.95 L-3.0 6.3 Q-3.1 6.55 -3.25 6.8 -3.55 7.15 -3.95 7.15 L-4.05 7.15 -4.3 7.1 Q-4.65 7.85 -5.25 8.2 L-6.25 8.6 Q-6.5 8.55 -6.8 8.45 -6.9 8.4 -7.05 8.3 -7.25 8.8 -7.6 8.65 L-7.95 8.45 -8.0 7.35 -8.0 7.35" fill="none" stroke="#000000" stroke-linecap="round" stroke-linejoin="round" stroke-opacity="0.0" stroke-width="1.0">
      <animate attributeName="stroke" dur="2s" repeatCount="indefinite" values="#000000;#000001"/>
      <animate attributeName="stroke-width" dur="2s" repeatCount="indefinite" values="0.0;0.0"/>
      <animate attributeName="fill-opacity" dur="2s" repeatCount="indefinite" values="0.0;0.0"/>
      <animate attributeName="d" dur="2s" repeatCount="indefinite" values="M-8.0 7.35 L-7.95 7.05 -6.85 6.95 -6.45 7.4 -6.35 7.5 -6.25 7.7 -6.15 7.7 -6.05 7.6 -6.0 7.55 -5.95 7.25 Q-5.8 6.9 -5.3 6.9 L-5.1 6.5 Q-4.75 5.85 -4.0 6.1 -3.9 5.55 -3.4 5.45 -3.05 5.65 -3.0 5.95 L-3.0 6.3 Q-3.1 6.55 -3.25 6.8 -3.55 7.15 -3.95 7.15 L-4.05 7.15 -4.3 7.1 Q-4.65 7.85 -5.25 8.2 L-6.25 8.6 Q-6.5 8.55 -6.8 8.45 -6.9 8.4 -7.05 8.3 -7.25 8.8 -7.6 8.65 L-7.95 8.45 -8.0 7.35 -8.0 7.35;M-5.7 11.6 L-5.7 11.4 -5.65 10.6 -5.5 10.3 -5.5 10.2 -5.5 10.1 -5.5 10.1 -5.45 10.0 -5.45 10.0 -5.15 9.85 Q-4.85 9.85 -4.55 9.8 L-4.15 9.95 Q-3.75 9.5 -3.2 9.4 -2.95 9.4 -2.65 9.35 -2.55 9.3 -2.4 9.25 L-2.25 9.2 Q-1.95 9.3 -1.85 9.5 -1.7 9.7 -1.85 10.1 L-1.9 10.2 -2.0 10.3 Q-2.65 10.45 -3.3 10.6 L-3.75 11.15 Q-3.95 11.35 -4.25 11.4 -4.3 11.4 -4.35 11.4 -4.55 11.35 -4.75 11.3 L-4.85 11.6 -5.55 11.7 -5.7 11.6"/>
    </path>
  </g>
</svg>
