<?xml version="1.0" encoding="UTF-8" standalone="no"?>
<svg xmlns:xlink="http://www.w3.org/1999/xlink" height="5.25px" width="4.45px" xmlns="http://www.w3.org/2000/svg">
  <g transform="matrix(1.0, 0.0, 0.0, 1.0, -4.1, 4.25)">
    <path d="M4.1 -1.9 L4.1 -1.9 4.15 -1.65 Q4.3 -1.4 4.6 -1.45 5.0 -1.5 5.2 -1.9 5.55 -1.8 5.75 -2.05 L5.8 -2.15 6.0 -2.35 6.1 -2.55 6.35 -2.6 6.65 -2.8 6.75 -2.9 6.85 -3.0 Q7.65 -2.8 7.95 -3.45 L7.9 -3.6 7.65 -3.95 7.15 -4.0 7.1 -4.05 6.75 -4.25 6.75 -4.2 6.7 -4.2 6.6 -4.15 6.3 -4.0 5.75 -3.8 5.55 -3.55 5.45 -3.35 5.15 -3.25 Q4.65 -2.7 4.15 -2.2 L4.15 -2.0 4.1 -1.9" fill="#000000" fill-rule="evenodd" stroke="none">
      <animate attributeName="fill" dur="2s" repeatCount="indefinite" values="#000000;#000001"/>
      <animate attributeName="fill-opacity" dur="2s" repeatCount="indefinite" values="1.0;1.0"/>
      <animate attributeName="d" dur="2s" repeatCount="indefinite" values="M4.1 -1.9 L4.1 -1.9 4.15 -1.65 Q4.3 -1.4 4.6 -1.45 5.0 -1.5 5.2 -1.9 5.55 -1.8 5.75 -2.05 L5.8 -2.15 6.0 -2.35 6.1 -2.55 6.35 -2.6 6.65 -2.8 6.75 -2.9 6.85 -3.0 Q7.65 -2.8 7.95 -3.45 L7.9 -3.6 7.65 -3.95 7.15 -4.0 7.1 -4.05 6.75 -4.25 6.75 -4.2 6.7 -4.2 6.6 -4.15 6.3 -4.0 5.75 -3.8 5.55 -3.55 5.45 -3.35 5.15 -3.25 Q4.65 -2.7 4.15 -2.2 L4.15 -2.0 4.1 -1.9;M5.8 0.85 L5.9 0.85 6.05 0.95 Q6.3 1.0 6.55 1.0 6.75 0.95 6.95 0.9 7.15 0.75 7.3 0.6 L7.4 0.5 7.65 0.4 7.85 0.3 7.95 0.2 8.0 -0.15 8.1 -0.2 8.1 -0.2 Q8.65 -0.55 8.55 -0.85 L8.45 -1.0 8.1 -1.3 7.85 -1.2 7.85 -1.2 7.65 -1.1 7.65 -1.1 7.65 -1.1 7.55 -1.0 7.35 -0.9 6.95 -0.75 6.65 -0.65 6.4 -0.55 6.2 -0.5 Q5.6 -0.15 5.8 0.65 L5.8 0.75 5.8 0.85"/>
    </path>
    <path d="M4.1 -1.9 L4.15 -2.0 4.15 -2.2 Q4.65 -2.7 5.15 -3.25 L5.45 -3.35 5.55 -3.55 5.75 -3.8 6.3 -4.0 6.6 -4.15 6.7 -4.2 6.75 -4.2 6.75 -4.25 7.1 -4.05 7.15 -4.0 7.65 -3.95 7.9 -3.6 7.95 -3.45 Q7.65 -2.8 6.85 -3.0 L6.75 -2.9 6.65 -2.8 6.35 -2.6 6.1 -2.55 6.0 -2.35 5.8 -2.15 5.75 -2.05 Q5.55 -1.8 5.2 -1.9 5.0 -1.5 4.6 -1.45 4.3 -1.4 4.15 -1.65 L4.1 -1.9 4.1 -1.9" fill="none" stroke="#000000" stroke-linecap="round" stroke-linejoin="round" stroke-opacity="0.0" stroke-width="1.0">
      <animate attributeName="stroke" dur="2s" repeatCount="indefinite" values="#000000;#000001"/>
      <animate attributeName="stroke-width" dur="2s" repeatCount="indefinite" values="0.0;0.0"/>
      <animate attributeName="fill-opacity" dur="2s" repeatCount="indefinite" values="0.0;0.0"/>
      <animate attributeName="d" dur="2s" repeatCount="indefinite" values="M4.1 -1.9 L4.15 -2.0 4.15 -2.2 Q4.65 -2.7 5.15 -3.25 L5.45 -3.35 5.55 -3.55 5.75 -3.8 6.3 -4.0 6.6 -4.15 6.7 -4.2 6.75 -4.2 6.75 -4.25 7.1 -4.05 7.15 -4.0 7.65 -3.95 7.9 -3.6 7.95 -3.45 Q7.65 -2.8 6.85 -3.0 L6.75 -2.9 6.65 -2.8 6.35 -2.6 6.1 -2.55 6.0 -2.35 5.8 -2.15 5.75 -2.05 Q5.55 -1.8 5.2 -1.9 5.0 -1.5 4.6 -1.45 4.3 -1.4 4.15 -1.65 L4.1 -1.9 4.1 -1.9;M5.8 0.85 L5.8 0.75 5.8 0.65 Q5.6 -0.15 6.2 -0.5 L6.4 -0.55 6.65 -0.65 6.95 -0.75 7.35 -0.9 7.55 -1.0 7.65 -1.1 7.65 -1.1 7.65 -1.1 7.85 -1.2 7.85 -1.2 8.1 -1.3 8.45 -1.0 8.55 -0.85 Q8.65 -0.55 8.1 -0.2 L8.1 -0.2 8.0 -0.15 7.95 0.2 7.85 0.3 7.65 0.4 7.4 0.5 7.3 0.6 Q7.15 0.75 6.95 0.9 6.75 0.95 6.55 1.0 6.3 1.0 6.05 0.95 L5.9 0.85 5.8 0.85"/>
    </path>
  </g>
</svg>
