<?xml version="1.0" encoding="UTF-8" standalone="no"?>
<svg xmlns:xlink="http://www.w3.org/1999/xlink" height="32.0px" width="25.6px" xmlns="http://www.w3.org/2000/svg">
  <g transform="matrix(1.0, 0.0, 0.0, 1.0, 13.15, 12.2)">
    <path d="M-13.15 -1.6 L-13.15 -1.6 Q-13.15 -0.85 -13.15 -0.15 L-13.15 0.55 -13.15 0.85 -13.15 1.15 Q-13.15 2.05 -13.15 2.95 L-13.15 3.0 -13.15 3.45 -13.15 3.75 -12.9 4.05 -12.9 4.05 Q-12.7 4.35 -12.65 4.7 L-12.65 4.75 -11.95 5.4 Q-11.5 5.8 -11.05 6.2 L-11.05 6.2 -10.55 6.65 -10.3 6.95 Q-9.8 7.15 -9.6 7.55 L-9.55 7.8 -9.4 8.8 -9.4 8.9 -8.75 8.95 Q-7.6 9.2 -6.8 10.05 L-6.5 10.35 -6.35 10.55 -6.35 10.75 -6.4 11.2 Q-5.4 12.15 -4.75 13.3 L-4.45 13.8 -4.4 14.2 -4.4 15.45 -4.2 15.6 -4.1 15.7 -3.9 16.1 -3.85 16.15 -3.75 16.2 -3.7 16.2 -3.7 16.05 -3.7 15.95 -3.7 15.85 -3.55 15.3 -3.45 15.3 -3.45 15.2 Q-3.8 13.75 -2.35 14.05 -2.05 14.15 -1.8 14.35 L-1.5 14.85 Q-1.35 15.3 -1.55 15.75 -1.05 16.35 -1.05 17.25 L-1.05 17.45 Q-1.15 17.95 -1.2 18.45 L-1.2 18.65 -1.2 18.85 -1.05 18.95 -0.85 19.15 -0.65 19.7 Q0.0 19.2 0.7 19.15 L1.65 19.3 1.65 19.3 2.1 19.75 2.15 19.8 2.45 19.8 2.55 19.7 3.25 17.5 3.6 16.75 3.7 16.45 Q3.85 16.0 3.95 15.55 4.05 14.75 4.1 14.0 L4.1 13.9 Q4.2 13.0 5.15 12.7 L5.3 12.55 5.4 12.0 5.7 11.2 6.1 10.75 Q6.5 10.45 7.05 10.3 L8.75 10.05 Q8.7 9.5 8.8 8.95 L9.05 7.85 9.2 7.55 Q9.35 7.25 9.5 6.95 10.05 6.3 10.55 5.65 L10.7 4.25 10.7 4.1 10.7 4.0 Q10.75 3.5 11.1 3.15 L11.7 2.55 Q11.65 1.6 11.9 0.7 L12.0 0.2 12.15 -0.2 12.3 -1.4 12.3 -2.25 12.45 -2.6 12.4 -2.8 12.35 -2.9 12.3 -3.15 Q10.9 -5.4 9.55 -7.6 L9.05 -8.3 8.45 -9.0 7.4 -10.25 Q7.1 -10.45 6.85 -10.6 L5.95 -11.2 5.35 -11.6 5.05 -11.75 2.75 -12.0 Q-0.45 -12.3 -3.8 -12.15 L-3.8 -12.15 -4.85 -12.05 Q-6.75 -11.65 -8.15 -10.3 -9.0 -9.35 -9.85 -8.4 -10.5 -7.45 -11.15 -6.55 L-12.35 -4.35 -13.0 -2.4 -13.15 -1.6" fill="url(#gradient0)" fill-rule="evenodd" stroke="none">
      <animate attributeName="d" dur="2s" repeatCount="indefinite" values="M-13.15 -1.6 L-13.15 -1.6 Q-13.15 -0.85 -13.15 -0.15 L-13.15 0.55 -13.15 0.85 -13.15 1.15 Q-13.15 2.05 -13.15 2.95 L-13.15 3.0 -13.15 3.45 -13.15 3.75 -12.9 4.05 -12.9 4.05 Q-12.7 4.35 -12.65 4.7 L-12.65 4.75 -11.95 5.4 Q-11.5 5.8 -11.05 6.2 L-11.05 6.2 -10.55 6.65 -10.3 6.95 Q-9.8 7.15 -9.6 7.55 L-9.55 7.8 -9.4 8.8 -9.4 8.9 -8.75 8.95 Q-7.6 9.2 -6.8 10.05 L-6.5 10.35 -6.35 10.55 -6.35 10.75 -6.4 11.2 Q-5.4 12.15 -4.75 13.3 L-4.45 13.8 -4.4 14.2 -4.4 15.45 -4.2 15.6 -4.1 15.7 -3.9 16.1 -3.85 16.15 -3.75 16.2 -3.7 16.2 -3.7 16.05 -3.7 15.95 -3.7 15.85 -3.55 15.3 -3.45 15.3 -3.45 15.2 Q-3.8 13.75 -2.35 14.05 -2.05 14.15 -1.8 14.35 L-1.5 14.85 Q-1.35 15.3 -1.55 15.75 -1.05 16.35 -1.05 17.25 L-1.05 17.45 Q-1.15 17.95 -1.2 18.45 L-1.2 18.65 -1.2 18.85 -1.05 18.95 -0.85 19.15 -0.65 19.7 Q0.0 19.2 0.7 19.15 L1.65 19.3 1.65 19.3 2.1 19.75 2.15 19.8 2.45 19.8 2.55 19.7 3.25 17.5 3.6 16.75 3.7 16.45 Q3.85 16.0 3.95 15.55 4.05 14.75 4.1 14.0 L4.1 13.9 Q4.2 13.0 5.15 12.7 L5.3 12.55 5.4 12.0 5.7 11.2 6.1 10.75 Q6.5 10.45 7.05 10.3 L8.75 10.05 Q8.7 9.5 8.8 8.95 L9.05 7.85 9.2 7.55 Q9.35 7.25 9.5 6.95 10.05 6.3 10.55 5.65 L10.7 4.25 10.7 4.1 10.7 4.0 Q10.75 3.5 11.1 3.15 L11.7 2.55 Q11.65 1.6 11.9 0.7 L12.0 0.2 12.15 -0.2 12.3 -1.4 12.3 -2.25 12.45 -2.6 12.4 -2.8 12.35 -2.9 12.3 -3.15 Q10.9 -5.4 9.55 -7.6 L9.05 -8.3 8.45 -9.0 7.4 -10.25 Q7.1 -10.45 6.85 -10.6 L5.95 -11.2 5.35 -11.6 5.05 -11.75 2.75 -12.0 Q-0.45 -12.3 -3.8 -12.15 L-3.8 -12.15 -4.85 -12.05 Q-6.75 -11.65 -8.15 -10.3 -9.0 -9.35 -9.85 -8.4 -10.5 -7.45 -11.15 -6.55 L-12.35 -4.35 -13.0 -2.4 -13.15 -1.6;M-10.95 2.65 L-10.85 2.8 Q-10.6 3.3 -10.5 3.85 L-10.45 4.45 -10.3 4.7 -10.2 5.0 Q-9.5 5.55 -9.1 6.4 L-9.1 6.4 -9.0 6.6 -8.9 6.9 -8.8 7.05 -8.8 7.05 Q-8.5 7.1 -8.2 7.15 L-8.2 7.15 -7.55 7.65 Q-7.2 8.05 -7.0 8.6 L-7.0 8.7 -6.75 9.0 -6.55 9.3 Q-6.35 9.55 -6.2 9.8 L-6.0 9.55 -5.4 8.75 -5.35 8.75 -5.05 8.4 Q-4.15 7.5 -3.35 8.4 L-3.15 8.7 -3.1 8.9 -3.1 9.2 -3.05 9.5 Q-3.1 10.6 -3.1 11.7 L-3.1 12.0 -3.1 12.35 -2.7 13.45 -2.6 13.55 -2.6 13.65 -2.4 13.85 -2.4 13.95 -2.35 14.05 -2.25 14.15 -2.2 14.25 -2.1 14.35 -2.0 14.45 -1.7 14.95 -1.65 15.05 -1.5 14.8 Q-1.05 14.05 -0.2 13.9 0.05 13.85 0.25 13.85 L0.7 13.9 Q0.85 13.55 1.0 13.2 1.45 12.7 2.2 12.9 L2.3 12.9 Q2.8 13.05 2.8 13.55 L2.8 13.8 3.0 13.7 3.1 13.6 3.2 13.5 3.55 13.05 Q3.85 12.55 4.1 12.05 L4.4 11.6 4.5 11.5 4.8 11.15 4.8 11.15 5.0 10.95 5.1 10.75 5.85 9.15 5.95 8.45 5.95 8.45 Q5.95 7.95 6.1 7.55 6.4 6.9 7.15 6.6 L7.25 6.6 Q8.05 6.8 8.5 7.5 L8.6 7.65 8.75 8.1 8.85 8.75 9.1 8.55 Q9.15 8.1 9.2 7.65 L9.7 6.15 Q10.0 5.65 10.3 5.15 L10.55 4.35 10.55 4.05 Q10.6 3.6 10.8 3.25 10.85 2.4 10.55 1.65 L9.85 0.6 9.8 0.45 9.8 0.45 Q9.8 0.1 9.8 -0.25 L9.75 -1.0 Q9.6 -1.85 9.45 -2.65 L9.3 -3.05 9.2 -3.3 8.8 -4.4 8.7 -5.1 8.7 -5.2 8.6 -5.4 8.5 -5.5 8.3 -5.8 Q7.15 -7.8 5.3 -9.3 L4.7 -9.8 4.55 -9.9 3.4 -10.65 Q3.05 -10.85 2.65 -11.0 L1.9 -11.2 1.4 -11.2 1.1 -11.2 -0.95 -11.3 Q-3.6 -10.4 -6.0 -9.15 L-6.1 -9.05 -6.75 -8.6 Q-8.2 -7.5 -8.8 -6.05 -9.25 -5.0 -9.3 -3.75 -9.3 -2.7 -9.9 -1.75 L-10.8 0.2 -11.0 1.95 -10.95 2.65"/>
    </path>
    <path d="M-13.15 -1.6 L-13.0 -2.4 -12.35 -4.35 -11.15 -6.55 Q-10.5 -7.45 -9.85 -8.4 -9.0 -9.35 -8.15 -10.3 -6.75 -11.65 -4.85 -12.05 L-3.8 -12.15 -3.8 -12.15 Q-0.45 -12.3 2.75 -12.0 L5.05 -11.75 5.35 -11.6 5.95 -11.2 6.85 -10.6 Q7.1 -10.45 7.4 -10.25 L8.45 -9.0 9.05 -8.3 9.55 -7.6 Q10.9 -5.4 12.3 -3.15 L12.35 -2.9 12.4 -2.8 12.45 -2.6 12.3 -2.25 12.3 -1.4 12.15 -0.2 12.0 0.2 11.9 0.7 Q11.65 1.6 11.7 2.55 L11.1 3.15 Q10.75 3.5 10.7 4.0 L10.7 4.1 10.7 4.25 10.55 5.65 Q10.05 6.3 9.5 6.95 9.35 7.25 9.2 7.55 L9.05 7.85 8.8 8.95 Q8.7 9.5 8.75 10.05 L7.05 10.3 Q6.5 10.45 6.1 10.75 L5.7 11.2 5.4 12.0 5.3 12.55 5.15 12.7 Q4.2 13.0 4.1 13.9 L4.1 14.0 Q4.05 14.75 3.95 15.55 3.85 16.0 3.7 16.45 L3.6 16.75 3.25 17.5 2.55 19.7 2.45 19.8 2.15 19.8 2.1 19.75 1.65 19.3 1.65 19.3 0.7 19.15 Q0.0 19.2 -0.65 19.7 L-0.85 19.15 -1.05 18.95 -1.2 18.85 -1.2 18.65 -1.2 18.45 Q-1.15 17.95 -1.05 17.45 L-1.05 17.25 Q-1.05 16.35 -1.55 15.75 -1.35 15.3 -1.5 14.85 L-1.8 14.35 Q-2.05 14.15 -2.35 14.05 -3.8 13.75 -3.45 15.2 L-3.45 15.3 -3.55 15.3 -3.7 15.85 -3.7 15.95 -3.7 16.05 -3.7 16.2 -3.75 16.2 -3.85 16.15 -3.9 16.1 -4.1 15.7 -4.2 15.6 -4.4 15.45 -4.4 14.2 -4.45 13.8 -4.75 13.3 Q-5.4 12.15 -6.4 11.2 L-6.35 10.75 -6.35 10.55 -6.5 10.35 -6.8 10.05 Q-7.6 9.2 -8.75 8.95 L-9.4 8.9 -9.4 8.8 -9.55 7.8 -9.6 7.55 Q-9.8 7.15 -10.3 6.95 L-10.55 6.65 -11.05 6.2 -11.05 6.2 Q-11.5 5.8 -11.95 5.4 L-12.65 4.75 -12.65 4.7 Q-12.7 4.35 -12.9 4.05 L-12.9 4.05 -13.15 3.75 -13.15 3.45 -13.15 3.0 -13.15 2.95 Q-13.15 2.05 -13.15 1.15 L-13.15 0.85 -13.15 0.55 -13.15 -0.15 Q-13.15 -0.85 -13.15 -1.6 L-13.15 -1.6" fill="none" stroke="#000000" stroke-linecap="round" stroke-linejoin="round" stroke-opacity="0.0" stroke-width="1.0">
      <animate attributeName="stroke" dur="2s" repeatCount="indefinite" values="#000000;#000001"/>
      <animate attributeName="stroke-width" dur="2s" repeatCount="indefinite" values="0.0;0.0"/>
      <animate attributeName="fill-opacity" dur="2s" repeatCount="indefinite" values="0.0;0.0"/>
      <animate attributeName="d" dur="2s" repeatCount="indefinite" values="M-13.15 -1.6 L-13.0 -2.4 -12.35 -4.35 -11.15 -6.55 Q-10.5 -7.45 -9.85 -8.4 -9.0 -9.35 -8.15 -10.3 -6.75 -11.65 -4.85 -12.05 L-3.8 -12.15 -3.8 -12.15 Q-0.45 -12.3 2.75 -12.0 L5.05 -11.75 5.35 -11.6 5.95 -11.2 6.85 -10.6 Q7.1 -10.45 7.4 -10.25 L8.45 -9.0 9.05 -8.3 9.55 -7.6 Q10.9 -5.4 12.3 -3.15 L12.35 -2.9 12.4 -2.8 12.45 -2.6 12.3 -2.25 12.3 -1.4 12.15 -0.2 12.0 0.2 11.9 0.7 Q11.65 1.6 11.7 2.55 L11.1 3.15 Q10.75 3.5 10.7 4.0 L10.7 4.1 10.7 4.25 10.55 5.65 Q10.05 6.3 9.5 6.95 9.35 7.25 9.2 7.55 L9.05 7.85 8.8 8.95 Q8.7 9.5 8.75 10.05 L7.05 10.3 Q6.5 10.45 6.1 10.75 L5.7 11.2 5.4 12.0 5.3 12.55 5.15 12.7 Q4.2 13.0 4.1 13.9 L4.1 14.0 Q4.05 14.75 3.95 15.55 3.85 16.0 3.7 16.45 L3.6 16.75 3.25 17.5 2.55 19.7 2.45 19.8 2.15 19.8 2.1 19.75 1.65 19.3 1.65 19.3 0.7 19.15 Q0.0 19.2 -0.65 19.7 L-0.85 19.15 -1.05 18.95 -1.2 18.85 -1.2 18.65 -1.2 18.45 Q-1.15 17.95 -1.05 17.45 L-1.05 17.25 Q-1.05 16.35 -1.55 15.75 -1.35 15.3 -1.5 14.85 L-1.8 14.35 Q-2.05 14.15 -2.35 14.05 -3.8 13.75 -3.45 15.2 L-3.45 15.3 -3.55 15.3 -3.7 15.85 -3.7 15.95 -3.7 16.05 -3.7 16.2 -3.75 16.2 -3.85 16.15 -3.9 16.1 -4.1 15.7 -4.2 15.6 -4.4 15.45 -4.4 14.2 -4.45 13.8 -4.75 13.3 Q-5.4 12.15 -6.4 11.2 L-6.35 10.75 -6.35 10.55 -6.5 10.35 -6.8 10.05 Q-7.6 9.2 -8.75 8.95 L-9.4 8.9 -9.4 8.8 -9.55 7.8 -9.6 7.55 Q-9.8 7.15 -10.3 6.95 L-10.55 6.65 -11.05 6.2 -11.05 6.2 Q-11.5 5.8 -11.95 5.4 L-12.65 4.75 -12.65 4.7 Q-12.7 4.35 -12.9 4.05 L-12.9 4.05 -13.15 3.75 -13.15 3.45 -13.15 3.0 -13.15 2.95 Q-13.15 2.05 -13.15 1.15 L-13.15 0.85 -13.15 0.55 -13.15 -0.15 Q-13.15 -0.85 -13.15 -1.6 L-13.15 -1.6;M-10.95 2.65 L-11.0 1.95 -10.8 0.2 -9.9 -1.75 Q-9.3 -2.7 -9.3 -3.75 -9.25 -5.0 -8.8 -6.05 -8.2 -7.5 -6.75 -8.6 L-6.1 -9.05 -6.0 -9.15 Q-3.6 -10.4 -0.95 -11.3 L1.1 -11.2 1.4 -11.2 1.9 -11.2 2.65 -11.0 Q3.05 -10.85 3.4 -10.65 L4.55 -9.9 4.7 -9.8 5.3 -9.3 Q7.15 -7.8 8.3 -5.8 L8.5 -5.5 8.6 -5.4 8.7 -5.2 8.7 -5.1 8.8 -4.4 9.2 -3.3 9.3 -3.05 9.45 -2.65 Q9.6 -1.85 9.75 -1.0 L9.8 -0.25 Q9.8 0.1 9.8 0.45 L9.8 0.45 9.85 0.6 10.55 1.65 Q10.85 2.4 10.8 3.25 10.6 3.6 10.55 4.05 L10.55 4.35 10.3 5.15 Q10.0 5.65 9.7 6.15 L9.2 7.65 Q9.15 8.1 9.1 8.55 L8.85 8.75 8.75 8.1 8.6 7.65 8.5 7.5 Q8.05 6.8 7.25 6.6 L7.15 6.6 Q6.4 6.9 6.1 7.55 5.95 7.95 5.95 8.45 L5.95 8.45 5.85 9.15 5.1 10.75 5.0 10.95 4.8 11.15 4.8 11.15 4.5 11.5 4.4 11.6 4.1 12.05 Q3.85 12.55 3.55 13.05 L3.2 13.5 3.1 13.6 3.0 13.7 2.8 13.8 2.8 13.55 Q2.8 13.05 2.3 12.9 L2.2 12.9 Q1.45 12.7 1.0 13.2 0.85 13.55 0.7 13.9 L0.25 13.85 Q0.05 13.85 -0.2 13.9 -1.05 14.05 -1.5 14.8 L-1.65 15.05 -1.7 14.95 -2.0 14.45 -2.1 14.35 -2.2 14.25 -2.25 14.15 -2.35 14.05 -2.4 13.95 -2.4 13.85 -2.6 13.65 -2.6 13.55 -2.7 13.45 -3.1 12.35 -3.1 12.0 -3.1 11.7 Q-3.1 10.6 -3.05 9.5 L-3.1 9.2 -3.1 8.9 -3.15 8.7 -3.35 8.4 Q-4.15 7.5 -5.05 8.4 L-5.35 8.75 -5.4 8.75 -6.0 9.55 -6.2 9.8 Q-6.35 9.55 -6.55 9.3 L-6.75 9.0 -7.0 8.7 -7.0 8.6 Q-7.2 8.05 -7.55 7.65 L-8.2 7.15 -8.2 7.15 Q-8.5 7.1 -8.8 7.05 L-8.8 7.05 -8.9 6.9 -9.0 6.6 -9.1 6.4 -9.1 6.4 Q-9.5 5.55 -10.2 5.0 L-10.3 4.7 -10.45 4.45 -10.5 3.85 Q-10.6 3.3 -10.85 2.8 L-10.95 2.65"/>
    </path>
  </g>
  <defs>
    <radialGradient cx="0" cy="0" gradientTransform="matrix(0.0219, 0.0, 0.0, 0.0242, -0.05, -0.05)" gradientUnits="userSpaceOnUse" id="gradient0" r="819.2" spreadMethod="pad">
      <animateTransform additive="replace" attributeName="gradientTransform" dur="2s" from="1" repeatCount="indefinite" to="1" type="scale"/>
      <animateTransform additive="sum" attributeName="gradientTransform" dur="2s" from="-0.05 -0.05" repeatCount="indefinite" to="-0.05 -0.05" type="translate"/>
      <animateTransform additive="sum" attributeName="gradientTransform" dur="2s" from="0.0" repeatCount="indefinite" to="0.0" type="rotate"/>
      <animateTransform additive="sum" attributeName="gradientTransform" dur="2s" from="0.0219 0.0242" repeatCount="indefinite" to="0.0219 0.0242" type="scale"/>
      <animateTransform additive="sum" attributeName="gradientTransform" dur="2s" from="0.0" repeatCount="indefinite" to="0.0" type="skewX"/>
      <stop offset="0.0" stop-color="#fefe0c" stop-opacity="0.9019608">
        <animate attributeName="offset" dur="2s" repeatCount="indefinite" values="0.0;0.0"/>
        <animate attributeName="stop-color" dur="2s" repeatCount="indefinite" values="#fefe0c;#fefe0d"/>
        <animate attributeName="stop-opacity" dur="2s" repeatCount="indefinite" values="0.9019608;0.9019608"/>
      </stop>
      <stop offset="0.5764705882352941" stop-color="#ffba2b" stop-opacity="0.9019608">
        <animate attributeName="offset" dur="2s" repeatCount="indefinite" values="0.5764705882352941;0.5764705882352941"/>
        <animate attributeName="stop-color" dur="2s" repeatCount="indefinite" values="#ffba2b;#ffba2c"/>
        <animate attributeName="stop-opacity" dur="2s" repeatCount="indefinite" values="0.9019608;0.9019608"/>
      </stop>
      <stop offset="1.0" stop-color="#ff720b" stop-opacity="0.9019608">
        <animate attributeName="offset" dur="2s" repeatCount="indefinite" values="1.0;1.0"/>
        <animate attributeName="stop-color" dur="2s" repeatCount="indefinite" values="#ff720b;#ff720c"/>
        <animate attributeName="stop-opacity" dur="2s" repeatCount="indefinite" values="0.9019608;0.9019608"/>
      </stop>
    </radialGradient>
  </defs>
</svg>
