<?xml version="1.0" encoding="UTF-8" standalone="no"?>
<svg xmlns:xlink="http://www.w3.org/1999/xlink" height="10.25px" width="8.3px" xmlns="http://www.w3.org/2000/svg">
  <g transform="matrix(1.0, 0.0, 0.0, 1.0, 3.95, 3.65)">
    <path d="M-3.95 1.7 L-3.55 2.25 -3.05 2.8 Q-2.6 3.4 -2.3 4.1 L-2.2 4.6 -2.2 4.8 Q-1.35 4.2 -0.35 4.25 L0.55 4.4 0.85 4.75 0.85 5.25 2.05 6.45 2.2 6.6 Q1.35 5.25 2.1 3.95 2.45 3.3 3.25 3.5 3.95 3.7 4.35 4.25 L4.35 3.85 4.1 3.3 3.8 1.6 3.85 0.65 3.9 0.2 3.65 -0.8 Q2.9 -2.35 1.6 -3.65 L1.0 -3.65 -1.25 -3.55 Q-2.2 -3.45 -2.85 -2.85 L-3.6 -1.45 -3.65 -1.0 Q-3.55 0.45 -3.95 1.7" fill="url(#gradient0)" fill-rule="evenodd" stroke="none">
      <animate attributeName="d" dur="2s" repeatCount="indefinite" values="M-3.95 1.7 L-3.55 2.25 -3.05 2.8 Q-2.6 3.4 -2.3 4.1 L-2.2 4.6 -2.2 4.8 Q-1.35 4.2 -0.35 4.25 L0.55 4.4 0.85 4.75 0.85 5.25 2.05 6.45 2.2 6.6 Q1.35 5.25 2.1 3.95 2.45 3.3 3.25 3.5 3.95 3.7 4.35 4.25 L4.35 3.85 4.1 3.3 3.8 1.6 3.85 0.65 3.9 0.2 3.65 -0.8 Q2.9 -2.35 1.6 -3.65 L1.0 -3.65 -1.25 -3.55 Q-2.2 -3.45 -2.85 -2.85 L-3.6 -1.45 -3.65 -1.0 Q-3.55 0.45 -3.95 1.7;M-0.65 0.4 L-0.65 0.4 -0.65 0.5 Q-0.5 0.7 -0.35 0.85 L-0.25 0.95 -0.25 0.95 Q-0.15 1.1 -0.05 1.25 L0.15 1.05 0.2 0.95 0.2 0.85 0.3 0.7 0.3 0.7 Q0.35 0.45 0.4 0.25 0.45 0.15 0.45 0.05 0.45 -0.05 0.45 -0.15 L0.45 -0.25 0.45 -0.35 0.45 -0.65 0.45 -0.75 0.45 -0.8 0.35 -0.8 Q0.05 -0.85 -0.2 -0.9 L-0.3 -0.9 -0.45 -0.5 Q-0.5 -0.4 -0.55 -0.3 L-0.6 -0.1 -0.6 0.0 Q-0.65 0.2 -0.65 0.4"/>
    </path>
    <path d="M-3.95 1.7 Q-3.55 0.45 -3.65 -1.0 L-3.6 -1.45 -2.85 -2.85 Q-2.2 -3.45 -1.25 -3.55 L1.0 -3.65 1.6 -3.65 Q2.9 -2.35 3.65 -0.8 L3.9 0.2 3.85 0.65 3.8 1.6 4.1 3.3 4.35 3.85 4.35 4.25 Q3.95 3.7 3.25 3.5 2.45 3.3 2.1 3.95 1.35 5.25 2.2 6.6 L2.05 6.45 0.85 5.25 0.85 4.75 0.55 4.4 -0.35 4.25 Q-1.35 4.2 -2.2 4.8 L-2.2 4.6 -2.3 4.1 Q-2.6 3.4 -3.05 2.8 L-3.55 2.25 -3.95 1.7" fill="none" stroke="#000000" stroke-linecap="round" stroke-linejoin="round" stroke-opacity="0.0" stroke-width="1.0">
      <animate attributeName="stroke" dur="2s" repeatCount="indefinite" values="#000000;#000001"/>
      <animate attributeName="stroke-width" dur="2s" repeatCount="indefinite" values="0.0;0.0"/>
      <animate attributeName="fill-opacity" dur="2s" repeatCount="indefinite" values="0.0;0.0"/>
      <animate attributeName="d" dur="2s" repeatCount="indefinite" values="M-3.95 1.7 Q-3.55 0.45 -3.65 -1.0 L-3.6 -1.45 -2.85 -2.85 Q-2.2 -3.45 -1.25 -3.55 L1.0 -3.65 1.6 -3.65 Q2.9 -2.35 3.65 -0.8 L3.9 0.2 3.85 0.65 3.8 1.6 4.1 3.3 4.35 3.85 4.35 4.25 Q3.95 3.7 3.25 3.5 2.45 3.3 2.1 3.95 1.35 5.25 2.2 6.6 L2.05 6.45 0.85 5.25 0.85 4.75 0.55 4.4 -0.35 4.25 Q-1.35 4.2 -2.2 4.8 L-2.2 4.6 -2.3 4.1 Q-2.6 3.4 -3.05 2.8 L-3.55 2.25 -3.95 1.7;M-0.65 0.4 Q-0.65 0.2 -0.6 0.0 L-0.6 -0.1 -0.55 -0.3 Q-0.5 -0.4 -0.45 -0.5 L-0.3 -0.9 -0.2 -0.9 Q0.05 -0.85 0.35 -0.8 L0.45 -0.8 0.45 -0.75 0.45 -0.65 0.45 -0.35 0.45 -0.25 0.45 -0.15 Q0.45 -0.05 0.45 0.05 0.45 0.15 0.4 0.25 0.35 0.45 0.3 0.7 L0.3 0.7 0.2 0.85 0.2 0.95 0.15 1.05 -0.05 1.25 Q-0.15 1.1 -0.25 0.95 L-0.25 0.95 -0.35 0.85 Q-0.5 0.7 -0.65 0.5 L-0.65 0.4 -0.65 0.4"/>
    </path>
  </g>
  <defs>
    <radialGradient cx="0" cy="0" gradientTransform="matrix(0.0219, 0.0, 0.0, 0.0242, -0.05, -0.05)" gradientUnits="userSpaceOnUse" id="gradient0" r="819.2" spreadMethod="pad">
      <animateTransform additive="replace" attributeName="gradientTransform" dur="2s" from="1" repeatCount="indefinite" to="1" type="scale"/>
      <animateTransform additive="sum" attributeName="gradientTransform" dur="2s" from="-0.05 -0.05" repeatCount="indefinite" to="-0.05 -0.05" type="translate"/>
      <animateTransform additive="sum" attributeName="gradientTransform" dur="2s" from="0.0" repeatCount="indefinite" to="0.0" type="rotate"/>
      <animateTransform additive="sum" attributeName="gradientTransform" dur="2s" from="0.0219 0.0242" repeatCount="indefinite" to="0.0219 0.0242" type="scale"/>
      <animateTransform additive="sum" attributeName="gradientTransform" dur="2s" from="0.0" repeatCount="indefinite" to="0.0" type="skewX"/>
      <stop offset="0.0" stop-color="#fefe0c" stop-opacity="0.9019608">
        <animate attributeName="offset" dur="2s" repeatCount="indefinite" values="0.0;0.0"/>
        <animate attributeName="stop-color" dur="2s" repeatCount="indefinite" values="#fefe0c;#fefe0d"/>
        <animate attributeName="stop-opacity" dur="2s" repeatCount="indefinite" values="0.9019608;0.9019608"/>
      </stop>
      <stop offset="0.5764705882352941" stop-color="#ffba2b" stop-opacity="0.9019608">
        <animate attributeName="offset" dur="2s" repeatCount="indefinite" values="0.5764705882352941;0.5764705882352941"/>
        <animate attributeName="stop-color" dur="2s" repeatCount="indefinite" values="#ffba2b;#ffba2c"/>
        <animate attributeName="stop-opacity" dur="2s" repeatCount="indefinite" values="0.9019608;0.9019608"/>
      </stop>
      <stop offset="1.0" stop-color="#ff720b" stop-opacity="0.9019608">
        <animate attributeName="offset" dur="2s" repeatCount="indefinite" values="1.0;1.0"/>
        <animate attributeName="stop-color" dur="2s" repeatCount="indefinite" values="#ff720b;#ff720c"/>
        <animate attributeName="stop-opacity" dur="2s" repeatCount="indefinite" values="0.9019608;0.9019608"/>
      </stop>
    </radialGradient>
  </defs>
</svg>
