<?xml version="1.0" encoding="UTF-8" standalone="no"?>
<svg xmlns:xlink="http://www.w3.org/1999/xlink" height="6.4px" width="7.5px" xmlns="http://www.w3.org/2000/svg">
  <g transform="matrix(1.0, 0.0, 0.0, 1.0, 3.7, 5.2)">
    <path d="M-1.6 -0.8 Q-1.6 -0.2 -1.1 0.2 -0.5 0.45 0.05 0.65 0.7 0.65 1.2 0.2 1.65 -0.2 1.65 -0.8 1.4 -1.35 1.2 -1.85 0.7 -2.25 -1.1 -1.85 -1.6 -1.4 -1.6 -0.8" fill="#f74931" fill-rule="evenodd" stroke="none">
      <animate attributeName="fill" dur="2s" repeatCount="indefinite" values="#f74931;#f74932"/>
      <animate attributeName="fill-opacity" dur="2s" repeatCount="indefinite" values="1.0;1.0"/>
      <animate attributeName="d" dur="2s" repeatCount="indefinite" values="M-1.6 -0.8 Q-1.6 -0.2 -1.1 0.2 -0.5 0.45 0.05 0.65 0.7 0.65 1.2 0.2 1.65 -0.2 1.65 -0.8 1.4 -1.35 1.2 -1.85 0.7 -2.25 -1.1 -1.85 -1.6 -1.4 -1.6 -0.8;M-3.2 -2.2 Q-3.2 -1.0 -2.25 -0.15 -1.3 0.7 0.05 0.7 1.4 0.7 2.35 -0.15 3.3 -1.0 3.3 -2.2 3.3 -3.4 2.35 -4.25 1.4 -5.1 -2.25 -4.25 -3.2 -3.4 -3.2 -2.2"/>
    </path>
    <path d="M-1.6 -0.8 Q-1.6 -1.4 -1.1 -1.85 0.7 -2.25 1.2 -1.85 1.4 -1.35 1.65 -0.8 1.65 -0.2 1.2 0.2 0.7 0.65 0.05 0.65 -0.5 0.45 -1.1 0.2 -1.6 -0.2 -1.6 -0.8 -1.6 -1.4 -1.1 -1.85 0.7 -2.25 1.2 -1.85 1.4 -1.35 1.65 -0.8 1.65 -0.2 1.2 0.2 0.7 0.65 0.05 0.65 -0.5 0.45 -1.1 0.2 -1.6 -0.2 -1.6 -0.8" fill="none" stroke="#000000" stroke-linecap="round" stroke-linejoin="round" stroke-width="1.0">
      <animate attributeName="stroke" dur="2s" repeatCount="indefinite" values="#000000;#000001"/>
      <animate attributeName="stroke-width" dur="2s" repeatCount="indefinite" values="1.0;1.0"/>
      <animate attributeName="fill-opacity" dur="2s" repeatCount="indefinite" values="1.0;1.0"/>
      <animate attributeName="d" dur="2s" repeatCount="indefinite" values="M-1.6 -0.8 Q-1.6 -1.4 -1.1 -1.85 0.7 -2.25 1.2 -1.85 1.4 -1.35 1.65 -0.8 1.65 -0.2 1.2 0.2 0.7 0.65 0.05 0.65 -0.5 0.45 -1.1 0.2 -1.6 -0.2 -1.6 -0.8 -1.6 -1.4 -1.1 -1.85 0.7 -2.25 1.2 -1.85 1.4 -1.35 1.65 -0.8 1.65 -0.2 1.2 0.2 0.7 0.65 0.05 0.65 -0.5 0.45 -1.1 0.2 -1.6 -0.2 -1.6 -0.8;M-3.2 -2.2 Q-3.2 -3.4 -2.25 -4.25 1.4 -5.1 2.35 -4.25 3.3 -3.4 3.3 -2.2 3.3 -1.0 2.35 -0.15 1.4 0.7 0.05 0.7 -1.3 0.7 -2.25 -0.15 -3.2 -1.0 -3.2 -2.2 -3.2 -3.4 -2.25 -4.25 1.4 -5.1 2.35 -4.25 3.3 -3.4 3.3 -2.2 3.3 -1.0 2.35 -0.15 1.4 0.7 0.05 0.7 -1.3 0.7 -2.25 -0.15 -3.2 -1.0 -3.2 -2.2"/>
    </path>
  </g>
</svg>
