<?xml version="1.0" encoding="UTF-8" standalone="no"?>
<svg xmlns:xlink="http://www.w3.org/1999/xlink" height="8.95px" width="8.65px" xmlns="http://www.w3.org/2000/svg">
  <g transform="matrix(1.0, 0.0, 0.0, 1.0, 3.4, 8.2)">
    <path d="M-2.6 -3.25 L-2.6 -3.15 Q-2.8 -1.65 -2.4 -0.65 L-2.25 -0.3 -1.85 0.25 -1.05 -0.65 Q-0.45 -1.0 0.1 -1.3 L-0.15 -1.65 Q-0.65 -2.3 0.05 -2.65 0.55 -2.75 1.05 -2.85 L1.4 -2.25 Q1.9 -1.1 1.65 0.05 L2.2 0.25 Q2.7 0.1 2.85 -0.45 3.25 -1.95 2.65 -4.05 2.25 -5.0 1.45 -5.3 0.15 -5.25 -1.1 -5.2 -2.4 -4.7 -2.6 -3.25" fill="#f74931" fill-rule="evenodd" stroke="none">
      <animate attributeName="fill" dur="2s" repeatCount="indefinite" values="#f74931;#f74932"/>
      <animate attributeName="fill-opacity" dur="2s" repeatCount="indefinite" values="1.0;1.0"/>
      <animate attributeName="d" dur="2s" repeatCount="indefinite" values="M-2.6 -3.25 L-2.6 -3.15 Q-2.8 -1.65 -2.4 -0.65 L-2.25 -0.3 -1.85 0.25 -1.05 -0.65 Q-0.45 -1.0 0.1 -1.3 L-0.15 -1.65 Q-0.65 -2.3 0.05 -2.65 0.55 -2.75 1.05 -2.85 L1.4 -2.25 Q1.9 -1.1 1.65 0.05 L2.2 0.25 Q2.7 0.1 2.85 -0.45 3.25 -1.95 2.65 -4.05 2.25 -5.0 1.45 -5.3 0.15 -5.25 -1.1 -5.2 -2.4 -4.7 -2.6 -3.25;M-2.85 -3.75 L-2.85 -3.75 Q-3.05 -1.95 -2.3 -0.6 L-2.0 -0.1 -1.15 -0.25 0.4 -0.5 Q1.0 -1.0 1.0 -2.1 L0.95 -3.0 Q0.85 -3.7 1.2 -4.2 1.9 -5.1 2.5 -4.55 L2.9 -3.95 Q3.65 -2.5 2.9 -0.85 L3.7 -1.15 Q4.7 -1.3 4.75 -2.0 4.9 -3.95 4.05 -6.75 3.4 -7.6 1.9 -7.7 0.5 -7.75 -1.4 -6.85 -2.65 -5.85 -2.85 -3.75"/>
    </path>
    <path d="M-2.6 -3.25 Q-2.4 -4.7 -1.1 -5.2 0.15 -5.25 1.45 -5.3 2.25 -5.0 2.65 -4.05 3.25 -1.95 2.85 -0.45 2.7 0.1 2.2 0.25 L1.65 0.05 Q1.9 -1.1 1.4 -2.25 L1.05 -2.85 Q0.55 -2.75 0.05 -2.65 -0.65 -2.3 -0.15 -1.65 L0.1 -1.3 Q-0.45 -1.0 -1.05 -0.65 L-1.85 0.25 -2.25 -0.3 -2.4 -0.65 Q-2.8 -1.65 -2.6 -3.15 M-2.6 -3.25 Q-2.4 -4.7 -1.1 -5.2 0.15 -5.25 1.45 -5.3 2.25 -5.0 2.65 -4.05 3.25 -1.95 2.85 -0.45 2.7 0.1 2.2 0.25 L1.65 0.05 Q1.9 -1.1 1.4 -2.25 L1.05 -2.85 Q0.55 -2.75 0.05 -2.65 -0.65 -2.3 -0.15 -1.65 L0.1 -1.3 Q-0.45 -1.0 -1.05 -0.65 L-1.85 0.25 -2.25 -0.3 -2.4 -0.65 Q-2.8 -1.65 -2.6 -3.15 L-2.6 -3.25" fill="none" stroke="#000000" stroke-linecap="round" stroke-linejoin="round" stroke-width="1.0">
      <animate attributeName="stroke" dur="2s" repeatCount="indefinite" values="#000000;#000001"/>
      <animate attributeName="stroke-width" dur="2s" repeatCount="indefinite" values="1.0;1.0"/>
      <animate attributeName="fill-opacity" dur="2s" repeatCount="indefinite" values="1.0;1.0"/>
      <animate attributeName="d" dur="2s" repeatCount="indefinite" values="M-2.6 -3.25 Q-2.4 -4.7 -1.1 -5.2 0.15 -5.25 1.45 -5.3 2.25 -5.0 2.65 -4.05 3.25 -1.95 2.85 -0.45 2.7 0.1 2.2 0.25 L1.65 0.05 Q1.9 -1.1 1.4 -2.25 L1.05 -2.85 Q0.55 -2.75 0.05 -2.65 -0.65 -2.3 -0.15 -1.65 L0.1 -1.3 Q-0.45 -1.0 -1.05 -0.65 L-1.85 0.25 -2.25 -0.3 -2.4 -0.65 Q-2.8 -1.65 -2.6 -3.15 M-2.6 -3.25 Q-2.4 -4.7 -1.1 -5.2 0.15 -5.25 1.45 -5.3 2.25 -5.0 2.65 -4.05 3.25 -1.95 2.85 -0.45 2.7 0.1 2.2 0.25 L1.65 0.05 Q1.9 -1.1 1.4 -2.25 L1.05 -2.85 Q0.55 -2.75 0.05 -2.65 -0.65 -2.3 -0.15 -1.65 L0.1 -1.3 Q-0.45 -1.0 -1.05 -0.65 L-1.85 0.25 -2.25 -0.3 -2.4 -0.65 Q-2.8 -1.65 -2.6 -3.15 L-2.6 -3.25;M-2.85 -3.75 Q-2.65 -5.85 -1.4 -6.85 0.5 -7.75 1.9 -7.7 3.4 -7.6 4.05 -6.75 4.9 -3.95 4.75 -2.0 4.7 -1.3 3.7 -1.15 L2.9 -0.85 Q3.65 -2.5 2.9 -3.95 L2.5 -4.55 Q1.9 -5.1 1.2 -4.2 0.85 -3.7 0.95 -3.0 L1.0 -2.1 Q1.0 -1.0 0.4 -0.5 L-1.15 -0.25 -2.0 -0.1 -2.3 -0.6 Q-3.05 -1.95 -2.85 -3.75 M-2.85 -3.75 Q-2.65 -5.85 -1.4 -6.85 0.5 -7.75 1.9 -7.7 3.4 -7.6 4.05 -6.75 4.9 -3.95 4.75 -2.0 4.7 -1.3 3.7 -1.15 L2.9 -0.85 Q3.65 -2.5 2.9 -3.95 L2.5 -4.55 Q1.9 -5.1 1.2 -4.2 0.85 -3.7 0.95 -3.0 L1.0 -2.1 Q1.0 -1.0 0.4 -0.5 L-1.15 -0.25 -2.0 -0.1 -2.3 -0.6 Q-3.05 -1.95 -2.85 -3.75 L-2.85 -3.75"/>
    </path>
  </g>
</svg>
