<?xml version="1.0" encoding="UTF-8" standalone="no"?>
<svg xmlns:xlink="http://www.w3.org/1999/xlink" height="12.45px" width="10.4px" xmlns="http://www.w3.org/2000/svg">
  <g transform="matrix(1.0, 0.0, 0.0, 1.0, 3.4, 11.55)">
    <path d="M-2.85 -3.75 L-2.85 -3.55 Q-3.0 -2.0 -2.4 -0.8 L-2.3 -0.6 Q-2.1 -0.35 -1.9 -0.1 -0.75 -0.3 0.4 -0.5 L0.6 -0.7 Q1.15 -1.4 0.95 -3.1 0.9 -3.75 1.2 -4.2 1.9 -5.1 2.5 -4.55 L2.9 -3.95 Q3.45 -2.9 3.2 -1.75 L2.9 -0.85 Q3.15 -1.1 3.7 -1.15 4.7 -1.3 4.75 -2.0 4.75 -2.95 4.75 -3.85 4.7 -4.8 4.05 -6.85 3.35 -7.6 1.05 -7.7 -0.45 -7.6 -1.75 -6.55 -2.7 -5.55 -2.85 -3.75" fill="#f74931" fill-rule="evenodd" stroke="none">
      <animate attributeName="fill" dur="2s" repeatCount="indefinite" values="#f74931;#f74932"/>
      <animate attributeName="fill-opacity" dur="2s" repeatCount="indefinite" values="1.0;1.0"/>
      <animate attributeName="d" dur="2s" repeatCount="indefinite" values="M-2.85 -3.75 L-2.85 -3.55 Q-3.0 -2.0 -2.4 -0.8 L-2.3 -0.6 Q-2.1 -0.35 -1.9 -0.1 -0.75 -0.3 0.4 -0.5 L0.6 -0.7 Q1.15 -1.4 0.95 -3.1 0.9 -3.75 1.2 -4.2 1.9 -5.1 2.5 -4.55 L2.9 -3.95 Q3.45 -2.9 3.2 -1.75 L2.9 -0.85 Q3.15 -1.1 3.7 -1.15 4.7 -1.3 4.75 -2.0 4.75 -2.95 4.75 -3.85 4.7 -4.8 4.05 -6.85 3.35 -7.6 1.05 -7.7 -0.45 -7.6 -1.75 -6.55 -2.7 -5.55 -2.85 -3.75;M-1.85 0.4 L-1.85 0.4 Q0.1 -0.9 1.25 0.4 L1.65 0.25 Q1.95 0.05 1.95 -0.5 1.85 -2.05 1.35 -3.5 L1.25 -3.9 Q0.75 -5.25 1.2 -6.85 1.6 -7.45 1.95 -8.05 2.55 -8.6 3.5 -8.7 L4.6 -8.65 Q5.9 -8.35 6.5 -7.0 L6.45 -8.15 Q6.35 -8.7 6.25 -9.2 6.0 -10.0 5.4 -10.45 4.65 -11.0 3.4 -11.05 2.15 -11.1 -0.05 -10.2 -1.25 -9.45 -1.4 -7.0 -1.25 -5.25 -1.65 -3.3 -2.05 -1.75 -1.85 0.4"/>
    </path>
    <path d="M-2.85 -3.75 Q-2.7 -5.55 -1.75 -6.55 -0.45 -7.6 1.05 -7.7 3.35 -7.6 4.05 -6.85 4.7 -4.8 4.75 -3.85 4.75 -2.95 4.75 -2.0 4.7 -1.3 3.7 -1.15 3.15 -1.1 2.9 -0.85 L3.2 -1.75 Q3.45 -2.9 2.9 -3.95 L2.5 -4.55 Q1.9 -5.1 1.2 -4.2 0.9 -3.75 0.95 -3.1 1.15 -1.4 0.6 -0.7 L0.4 -0.5 Q-0.75 -0.3 -1.9 -0.1 -2.1 -0.35 -2.3 -0.6 L-2.4 -0.8 Q-3.0 -2.0 -2.85 -3.55 M-2.85 -3.75 Q-2.7 -5.55 -1.75 -6.55 -0.45 -7.6 1.05 -7.7 3.35 -7.6 4.05 -6.85 4.7 -4.8 4.75 -3.85 4.75 -2.95 4.75 -2.0 4.7 -1.3 3.7 -1.15 3.15 -1.1 2.9 -0.85 L3.2 -1.75 Q3.45 -2.9 2.9 -3.95 L2.5 -4.55 Q1.9 -5.1 1.2 -4.2 0.9 -3.75 0.95 -3.1 1.15 -1.4 0.6 -0.7 L0.4 -0.5 Q-0.75 -0.3 -1.9 -0.1 -2.1 -0.35 -2.3 -0.6 L-2.4 -0.8 Q-3.0 -2.0 -2.85 -3.55 L-2.85 -3.75" fill="none" stroke="#000000" stroke-linecap="round" stroke-linejoin="round" stroke-width="1.0">
      <animate attributeName="stroke" dur="2s" repeatCount="indefinite" values="#000000;#000001"/>
      <animate attributeName="stroke-width" dur="2s" repeatCount="indefinite" values="1.0;1.0"/>
      <animate attributeName="fill-opacity" dur="2s" repeatCount="indefinite" values="1.0;1.0"/>
      <animate attributeName="d" dur="2s" repeatCount="indefinite" values="M-2.85 -3.75 Q-2.7 -5.55 -1.75 -6.55 -0.45 -7.6 1.05 -7.7 3.35 -7.6 4.05 -6.85 4.7 -4.8 4.75 -3.85 4.75 -2.95 4.75 -2.0 4.7 -1.3 3.7 -1.15 3.15 -1.1 2.9 -0.85 L3.2 -1.75 Q3.45 -2.9 2.9 -3.95 L2.5 -4.55 Q1.9 -5.1 1.2 -4.2 0.9 -3.75 0.95 -3.1 1.15 -1.4 0.6 -0.7 L0.4 -0.5 Q-0.75 -0.3 -1.9 -0.1 -2.1 -0.35 -2.3 -0.6 L-2.4 -0.8 Q-3.0 -2.0 -2.85 -3.55 M-2.85 -3.75 Q-2.7 -5.55 -1.75 -6.55 -0.45 -7.6 1.05 -7.7 3.35 -7.6 4.05 -6.85 4.7 -4.8 4.75 -3.85 4.75 -2.95 4.75 -2.0 4.7 -1.3 3.7 -1.15 3.15 -1.1 2.9 -0.85 L3.2 -1.75 Q3.45 -2.9 2.9 -3.95 L2.5 -4.55 Q1.9 -5.1 1.2 -4.2 0.9 -3.75 0.95 -3.1 1.15 -1.4 0.6 -0.7 L0.4 -0.5 Q-0.75 -0.3 -1.9 -0.1 -2.1 -0.35 -2.3 -0.6 L-2.4 -0.8 Q-3.0 -2.0 -2.85 -3.55 L-2.85 -3.75;M-1.85 0.4 Q-2.05 -1.75 -1.65 -3.3 -1.25 -5.25 -1.4 -7.0 -1.25 -9.45 -0.05 -10.2 2.15 -11.1 3.4 -11.05 4.65 -11.0 5.4 -10.45 6.0 -10.0 6.25 -9.2 6.35 -8.7 6.45 -8.15 L6.5 -7.0 Q5.9 -8.35 4.6 -8.65 L3.5 -8.7 Q2.55 -8.6 1.95 -8.05 1.6 -7.45 1.2 -6.85 0.75 -5.25 1.25 -3.9 L1.35 -3.5 Q1.85 -2.05 1.95 -0.5 1.95 0.05 1.65 0.25 L1.25 0.4 Q0.1 -0.9 -1.85 0.4 M-1.85 0.4 Q-2.05 -1.75 -1.65 -3.3 -1.25 -5.25 -1.4 -7.0 -1.25 -9.45 -0.05 -10.2 2.15 -11.1 3.4 -11.05 4.65 -11.0 5.4 -10.45 6.0 -10.0 6.25 -9.2 6.35 -8.7 6.45 -8.15 L6.5 -7.0 Q5.9 -8.35 4.6 -8.65 L3.5 -8.7 Q2.55 -8.6 1.95 -8.05 1.6 -7.45 1.2 -6.85 0.75 -5.25 1.25 -3.9 L1.35 -3.5 Q1.85 -2.05 1.95 -0.5 1.95 0.05 1.65 0.25 L1.25 0.4 Q0.1 -0.9 -1.85 0.4 L-1.85 0.4"/>
    </path>
  </g>
</svg>
