<?xml version="1.0" encoding="UTF-8" standalone="no"?>
<svg xmlns:xlink="http://www.w3.org/1999/xlink" height="3.85px" width="3.85px" xmlns="http://www.w3.org/2000/svg">
  <g transform="matrix(1.0, 0.0, 0.0, 1.0, 7.25, 1.8)">
    <path d="M-7.25 0.1 Q-7.25 0.9 -6.7 1.45 -6.15 2.0 -5.35 2.05 -4.55 2.0 -4.0 1.45 L-3.8 1.25 -3.8 1.3 Q-3.4 0.75 -3.4 0.1 -3.45 -0.7 -4.0 -1.25 L-4.05 -1.3 -4.0 -1.3 Q-4.6 -1.8 -5.35 -1.8 -6.15 -1.8 -6.7 -1.25 -7.25 -0.7 -7.25 0.1" fill="#000000" fill-rule="evenodd" stroke="none">
      <animate attributeName="fill" dur="2s" repeatCount="indefinite" values="#000000;#31c3f0"/>
      <animate attributeName="fill-opacity" dur="2s" repeatCount="indefinite" values="1.0;1.0"/>
      <animate attributeName="d" dur="2s" repeatCount="indefinite" values="M-7.25 0.1 Q-7.25 0.9 -6.7 1.45 -6.15 2.0 -5.35 2.05 -4.55 2.0 -4.0 1.45 L-3.8 1.25 -3.8 1.3 Q-3.4 0.75 -3.4 0.1 -3.45 -0.7 -4.0 -1.25 L-4.05 -1.3 -4.0 -1.3 Q-4.6 -1.8 -5.35 -1.8 -6.15 -1.8 -6.7 -1.25 -7.25 -0.7 -7.25 0.1;M-7.25 0.1 Q-7.25 0.9 -6.7 1.45 -6.15 2.0 -5.35 2.05 -4.55 2.0 -4.0 1.45 L-3.8 1.25 -3.8 1.3 Q-3.4 0.75 -3.4 0.1 -3.45 -0.7 -4.0 -1.25 L-4.05 -1.3 -4.0 -1.3 Q-4.6 -1.8 -5.35 -1.8 -6.15 -1.8 -6.7 -1.25 -7.25 -0.7 -7.25 0.1"/>
    </path>
    <path d="M-7.25 0.1 Q-7.25 -0.7 -6.7 -1.25 -6.15 -1.8 -5.35 -1.8 -4.6 -1.8 -4.0 -1.3 L-4.05 -1.3 -4.0 -1.25 Q-3.45 -0.7 -3.4 0.1 -3.4 0.75 -3.8 1.3 L-3.8 1.25 -4.0 1.45 Q-4.55 2.0 -5.35 2.05 -6.15 2.0 -6.7 1.45 -7.25 0.9 -7.25 0.1" fill="none" stroke="#000000" stroke-linecap="round" stroke-linejoin="round" stroke-opacity="0.0" stroke-width="1.0">
      <animate attributeName="stroke" dur="2s" repeatCount="indefinite" values="#000000;#000001"/>
      <animate attributeName="stroke-width" dur="2s" repeatCount="indefinite" values="0.0;0.0"/>
      <animate attributeName="fill-opacity" dur="2s" repeatCount="indefinite" values="0.0;0.0"/>
      <animate attributeName="d" dur="2s" repeatCount="indefinite" values="M-7.25 0.1 Q-7.25 -0.7 -6.7 -1.25 -6.15 -1.8 -5.35 -1.8 -4.6 -1.8 -4.0 -1.3 L-4.05 -1.3 -4.0 -1.25 Q-3.45 -0.7 -3.4 0.1 -3.4 0.75 -3.8 1.3 L-3.8 1.25 -4.0 1.45 Q-4.55 2.0 -5.35 2.05 -6.15 2.0 -6.7 1.45 -7.25 0.9 -7.25 0.1;M-7.25 0.1 Q-7.25 -0.7 -6.7 -1.25 -6.15 -1.8 -5.35 -1.8 -4.6 -1.8 -4.0 -1.3 L-4.05 -1.3 -4.0 -1.25 Q-3.45 -0.7 -3.4 0.1 -3.4 0.75 -3.8 1.3 L-3.8 1.25 -4.0 1.45 Q-4.55 2.0 -5.35 2.05 -6.15 2.0 -6.7 1.45 -7.25 0.9 -7.25 0.1"/>
    </path>
  </g>
</svg>
