<?xml version="1.0" encoding="UTF-8" standalone="no"?>
<svg xmlns:xlink="http://www.w3.org/1999/xlink" height="59.25px" width="170.75px" xmlns="http://www.w3.org/2000/svg">
  <g transform="matrix(1.0, 0.0, 0.0, 1.0, 84.95, 28.45)">
    <path d="M-84.75 -5.85 Q-85.5 -1.0 -83.75 3.8 L-82.8 6.8 Q-81.95 9.7 -80.6 12.4 L-79.85 13.85 Q-80.8 14.05 -80.5 15.0 L-80.05 16.15 -78.75 18.8 -77.65 20.55 Q-75.4 23.5 -72.35 25.55 -70.15 27.0 -67.4 26.95 L-66.65 26.95 -66.6 27.95 Q-62.35 30.05 -57.25 30.35 L-53.4 30.5 -49.0 30.4 -44.6 30.1 -40.25 29.8 -34.7 28.85 -30.35 27.8 -30.1 27.75 -30.05 28.05 Q-29.75 28.1 -29.35 28.35 L-28.1 28.95 -22.75 30.35 -19.85 30.8 Q-14.95 31.05 -10.65 28.5 L-10.2 28.25 -9.5 28.9 -5.55 29.8 -0.6 30.15 Q4.5 30.45 9.6 30.4 13.35 29.85 17.1 29.35 L23.55 27.25 Q27.45 28.45 31.6 28.5 L34.35 28.75 41.75 29.05 Q46.55 28.75 51.1 27.45 L54.4 26.55 55.8 26.05 56.9 25.55 57.45 26.6 59.35 26.85 65.95 27.25 Q69.85 26.55 73.3 24.75 75.85 23.45 77.9 21.2 L79.7 18.9 Q82.0 15.35 82.2 11.2 L81.0 10.2 Q82.3 8.1 83.05 5.7 L84.2 2.7 Q85.8 -0.95 85.7 -4.75 L85.6 -7.8 Q85.6 -9.1 84.95 -10.25 L84.05 -11.7 84.95 -12.2 Q84.95 -13.4 84.55 -14.55 L83.55 -16.95 Q82.1 -20.05 79.15 -21.25 77.75 -21.85 76.45 -22.55 L74.4 -23.5 72.3 -24.25 61.55 -25.05 58.85 -24.6 56.95 -24.2 57.15 -23.15 55.75 -24.05 55.2 -24.35 54.1 -25.0 Q52.5 -25.8 50.85 -25.85 L44.5 -26.5 Q41.1 -27.2 37.65 -26.45 L34.45 -25.45 Q31.8 -24.4 29.1 -24.3 L28.8 -24.4 25.55 -24.9 Q23.0 -24.75 20.6 -25.45 L18.35 -25.95 10.65 -25.7 10.15 -25.65 6.35 -27.15 4.65 -27.5 2.45 -27.7 -1.95 -28.15 -10.2 -28.4 Q-13.7 -28.35 -16.8 -26.8 -18.6 -25.95 -20.35 -25.5 L-21.2 -25.15 -21.7 -24.95 -31.95 -25.85 -33.85 -26.0 Q-39.15 -26.25 -44.1 -24.45 L-46.45 -23.55 Q-47.7 -23.0 -48.9 -22.45 L-49.35 -22.15 -49.25 -22.6 Q-54.25 -24.35 -59.45 -25.15 L-62.45 -25.6 Q-68.2 -26.35 -72.9 -23.45 -77.55 -20.8 -79.35 -15.7 L-80.05 -13.3 -80.1 -12.95 -80.6 -13.0 Q-82.6 -10.55 -84.2 -7.6 L-84.75 -5.85" fill="#ffffff" fill-rule="evenodd" stroke="none">
      <animate attributeName="fill" dur="2s" repeatCount="indefinite" values="#ffffff;#303031"/>
      <animate attributeName="fill-opacity" dur="2s" repeatCount="indefinite" values="1.0;1.0"/>
      <animate attributeName="d" dur="2s" repeatCount="indefinite" values="M-84.75 -5.85 Q-85.5 -1.0 -83.75 3.8 L-82.8 6.8 Q-81.95 9.7 -80.6 12.4 L-79.85 13.85 Q-80.8 14.05 -80.5 15.0 L-80.05 16.15 -78.75 18.8 -77.65 20.55 Q-75.4 23.5 -72.35 25.55 -70.15 27.0 -67.4 26.95 L-66.65 26.95 -66.6 27.95 Q-62.35 30.05 -57.25 30.35 L-53.4 30.5 -49.0 30.4 -44.6 30.1 -40.25 29.8 -34.7 28.85 -30.35 27.8 -30.1 27.75 -30.05 28.05 Q-29.75 28.1 -29.35 28.35 L-28.1 28.95 -22.75 30.35 -19.85 30.8 Q-14.95 31.05 -10.65 28.5 L-10.2 28.25 -9.5 28.9 -5.55 29.8 -0.6 30.15 Q4.5 30.45 9.6 30.4 13.35 29.85 17.1 29.35 L23.55 27.25 Q27.45 28.45 31.6 28.5 L34.35 28.75 41.75 29.05 Q46.55 28.75 51.1 27.45 L54.4 26.55 55.8 26.05 56.9 25.55 57.45 26.6 59.35 26.85 65.95 27.25 Q69.85 26.55 73.3 24.75 75.85 23.45 77.9 21.2 L79.7 18.9 Q82.0 15.35 82.2 11.2 L81.0 10.2 Q82.3 8.1 83.05 5.7 L84.2 2.7 Q85.8 -0.95 85.7 -4.75 L85.6 -7.8 Q85.6 -9.1 84.95 -10.25 L84.05 -11.7 84.95 -12.2 Q84.95 -13.4 84.55 -14.55 L83.55 -16.95 Q82.1 -20.05 79.15 -21.25 77.75 -21.85 76.45 -22.55 L74.4 -23.5 72.3 -24.25 61.55 -25.05 58.85 -24.6 56.95 -24.2 57.15 -23.15 55.75 -24.05 55.2 -24.35 54.1 -25.0 Q52.5 -25.8 50.85 -25.85 L44.5 -26.5 Q41.1 -27.2 37.65 -26.45 L34.45 -25.45 Q31.8 -24.4 29.1 -24.3 L28.8 -24.4 25.55 -24.9 Q23.0 -24.75 20.6 -25.45 L18.35 -25.95 10.65 -25.7 10.15 -25.65 6.35 -27.15 4.65 -27.5 2.45 -27.7 -1.95 -28.15 -10.2 -28.4 Q-13.7 -28.35 -16.8 -26.8 -18.6 -25.95 -20.35 -25.5 L-21.2 -25.15 -21.7 -24.95 -31.95 -25.85 -33.85 -26.0 Q-39.15 -26.25 -44.1 -24.45 L-46.45 -23.55 Q-47.7 -23.0 -48.9 -22.45 L-49.35 -22.15 -49.25 -22.6 Q-54.25 -24.35 -59.45 -25.15 L-62.45 -25.6 Q-68.2 -26.35 -72.9 -23.45 -77.55 -20.8 -79.35 -15.7 L-80.05 -13.3 -80.1 -12.95 -80.6 -13.0 Q-82.6 -10.55 -84.2 -7.6 L-84.75 -5.85;M-84.65 -5.9 Q-85.4 -1.05 -83.65 3.75 L-82.7 6.75 Q-81.85 9.65 -80.5 12.35 L-79.75 13.8 Q-80.7 14.0 -80.4 14.95 L-79.95 16.1 -78.65 18.75 -77.55 20.5 Q-75.3 23.45 -72.25 25.5 -70.05 26.95 -67.3 26.9 L-66.55 26.9 -66.5 27.9 Q-62.25 30.0 -57.15 30.3 L-53.3 30.45 -48.9 30.35 -44.5 30.05 -40.15 29.75 -34.6 28.8 -30.25 27.75 -30.0 27.7 -29.95 28.0 Q-29.6 28.15 -29.25 28.3 L-28.0 28.9 -22.65 30.3 -19.75 30.75 Q-14.85 31.0 -10.55 28.45 L-10.1 28.2 -9.4 28.85 -5.45 29.75 -0.5 30.1 Q4.6 30.4 9.7 30.35 13.5 30.25 17.2 29.3 L23.65 27.2 Q27.55 28.4 31.7 28.45 L34.45 28.7 41.85 29.0 Q46.65 28.7 51.2 27.4 L54.5 26.5 55.9 26.0 57.0 25.5 57.55 26.55 59.45 26.8 66.05 27.2 Q69.95 26.5 73.4 24.7 75.95 23.4 78.0 21.15 L79.8 18.85 Q82.1 15.3 82.3 11.15 L81.1 10.15 Q82.4 8.05 83.15 5.65 L84.3 2.65 Q85.9 -1.0 85.8 -4.8 L85.7 -7.85 Q85.7 -9.15 85.05 -10.3 L84.15 -11.75 85.05 -12.25 Q85.05 -13.45 84.65 -14.6 L83.65 -17.0 Q82.2 -20.1 79.25 -21.3 77.85 -21.9 76.55 -22.6 L74.5 -23.55 72.4 -24.3 61.65 -25.1 58.95 -24.65 57.05 -24.25 57.25 -23.2 55.85 -24.1 55.3 -24.4 54.2 -25.05 Q52.6 -25.85 50.95 -25.9 L44.6 -26.55 Q41.2 -27.25 37.75 -26.5 L34.55 -25.5 Q31.9 -24.45 29.2 -24.35 L28.9 -24.45 25.65 -24.95 Q23.1 -24.8 20.7 -25.5 L18.45 -26.0 10.75 -25.75 10.25 -25.7 6.45 -27.2 4.75 -27.55 2.55 -27.75 -1.85 -28.2 -10.1 -28.45 Q-13.6 -28.4 -16.7 -26.85 -18.5 -26.0 -20.25 -25.55 L-21.1 -25.2 -21.6 -25.0 -31.85 -25.9 -33.75 -26.05 Q-39.05 -26.3 -44.0 -24.5 L-46.35 -23.6 Q-47.65 -23.15 -48.8 -22.5 L-49.25 -22.2 -49.15 -22.65 Q-54.15 -24.4 -59.35 -25.2 L-62.35 -25.65 Q-68.1 -26.4 -72.8 -23.5 -77.45 -20.85 -79.25 -15.75 L-79.95 -13.35 -80.0 -13.0 -80.5 -13.05 Q-82.5 -10.6 -84.1 -7.65 L-84.65 -5.9"/>
    </path>
    <path d="M-84.75 -5.85 L-84.2 -7.6 Q-82.6 -10.55 -80.6 -13.0 L-80.1 -12.95 -80.05 -13.3 -79.35 -15.7 Q-77.55 -20.8 -72.9 -23.45 -68.2 -26.35 -62.45 -25.6 L-59.45 -25.15 Q-54.25 -24.35 -49.25 -22.6 L-49.35 -22.15 -48.9 -22.45 Q-47.7 -23.0 -46.45 -23.55 L-44.1 -24.45 Q-39.15 -26.25 -33.85 -26.0 L-31.95 -25.85 -21.7 -24.95 -21.2 -25.15 -20.35 -25.5 Q-18.6 -25.95 -16.8 -26.8 -13.7 -28.35 -10.2 -28.4 L-1.95 -28.15 2.45 -27.7 4.65 -27.5 6.35 -27.15 10.15 -25.65 10.65 -25.7 18.35 -25.95 20.6 -25.45 Q23.0 -24.75 25.55 -24.9 L28.8 -24.4 29.1 -24.3 Q31.8 -24.4 34.45 -25.45 L37.65 -26.45 Q41.1 -27.2 44.5 -26.5 L50.85 -25.85 Q52.5 -25.8 54.1 -25.0 L55.2 -24.35 55.75 -24.05 57.15 -23.15 56.95 -24.2 58.85 -24.6 61.55 -25.05 72.3 -24.25 74.4 -23.5 76.45 -22.55 Q77.75 -21.85 79.15 -21.25 82.1 -20.05 83.55 -16.95 L84.55 -14.55 Q84.95 -13.4 84.95 -12.2 L84.05 -11.7 84.95 -10.25 Q85.6 -9.1 85.6 -7.8 L85.7 -4.75 Q85.8 -0.95 84.2 2.7 L83.05 5.7 Q82.3 8.1 81.0 10.2 L82.2 11.2 Q82.0 15.35 79.7 18.9 L77.9 21.2 Q75.85 23.45 73.3 24.75 69.85 26.55 65.95 27.25 L59.35 26.85 57.45 26.6 56.9 25.55 55.8 26.05 54.4 26.55 51.1 27.45 Q46.55 28.75 41.75 29.05 L34.35 28.75 31.6 28.5 Q27.45 28.45 23.55 27.25 L17.1 29.35 Q13.35 29.85 9.6 30.4 4.5 30.45 -0.6 30.15 L-5.55 29.8 -9.5 28.9 -10.2 28.25 -10.65 28.5 Q-14.95 31.05 -19.85 30.8 L-22.75 30.35 -28.1 28.95 -29.35 28.35 Q-29.75 28.1 -30.05 28.05 L-30.1 27.75 -30.35 27.8 -34.7 28.85 -40.25 29.8 -44.6 30.1 -49.0 30.4 -53.4 30.5 -57.25 30.35 Q-62.35 30.05 -66.6 27.95 L-66.65 26.95 -67.4 26.95 Q-70.15 27.0 -72.35 25.55 -75.4 23.5 -77.65 20.55 L-78.75 18.8 -80.05 16.15 -80.5 15.0 Q-80.8 14.05 -79.85 13.85 L-80.6 12.4 Q-81.95 9.7 -82.8 6.8 L-83.75 3.8 Q-85.5 -1.0 -84.75 -5.85" fill="none" stroke="#000000" stroke-linecap="round" stroke-linejoin="round" stroke-opacity="0.0" stroke-width="1.0">
      <animate attributeName="stroke" dur="2s" repeatCount="indefinite" values="#000000;#000001"/>
      <animate attributeName="stroke-width" dur="2s" repeatCount="indefinite" values="0.0;0.0"/>
      <animate attributeName="fill-opacity" dur="2s" repeatCount="indefinite" values="0.0;0.0"/>
      <animate attributeName="d" dur="2s" repeatCount="indefinite" values="M-84.75 -5.85 L-84.2 -7.6 Q-82.6 -10.55 -80.6 -13.0 L-80.1 -12.95 -80.05 -13.3 -79.35 -15.7 Q-77.55 -20.8 -72.9 -23.45 -68.2 -26.35 -62.45 -25.6 L-59.45 -25.15 Q-54.25 -24.35 -49.25 -22.6 L-49.35 -22.15 -48.9 -22.45 Q-47.7 -23.0 -46.45 -23.55 L-44.1 -24.45 Q-39.15 -26.25 -33.85 -26.0 L-31.95 -25.85 -21.7 -24.95 -21.2 -25.15 -20.35 -25.5 Q-18.6 -25.95 -16.8 -26.8 -13.7 -28.35 -10.2 -28.4 L-1.95 -28.15 2.45 -27.7 4.65 -27.5 6.35 -27.15 10.15 -25.65 10.65 -25.7 18.35 -25.95 20.6 -25.45 Q23.0 -24.75 25.55 -24.9 L28.8 -24.4 29.1 -24.3 Q31.8 -24.4 34.45 -25.45 L37.65 -26.45 Q41.1 -27.2 44.5 -26.5 L50.85 -25.85 Q52.5 -25.8 54.1 -25.0 L55.2 -24.35 55.75 -24.05 57.15 -23.15 56.95 -24.2 58.85 -24.6 61.55 -25.05 72.3 -24.25 74.4 -23.5 76.45 -22.55 Q77.75 -21.85 79.15 -21.25 82.1 -20.05 83.55 -16.95 L84.55 -14.55 Q84.95 -13.4 84.95 -12.2 L84.05 -11.7 84.95 -10.25 Q85.6 -9.1 85.6 -7.8 L85.7 -4.75 Q85.8 -0.95 84.2 2.7 L83.05 5.7 Q82.3 8.1 81.0 10.2 L82.2 11.2 Q82.0 15.35 79.7 18.9 L77.9 21.2 Q75.85 23.45 73.3 24.75 69.85 26.55 65.95 27.25 L59.35 26.85 57.45 26.6 56.9 25.55 55.8 26.05 54.4 26.55 51.1 27.45 Q46.55 28.75 41.75 29.05 L34.35 28.75 31.6 28.5 Q27.45 28.45 23.55 27.25 L17.1 29.35 Q13.35 29.85 9.6 30.4 4.5 30.45 -0.6 30.15 L-5.55 29.8 -9.5 28.9 -10.2 28.25 -10.65 28.5 Q-14.95 31.05 -19.85 30.8 L-22.75 30.35 -28.1 28.95 -29.35 28.35 Q-29.75 28.1 -30.05 28.05 L-30.1 27.75 -30.35 27.8 -34.7 28.85 -40.25 29.8 -44.6 30.1 -49.0 30.4 -53.4 30.5 -57.25 30.35 Q-62.35 30.05 -66.6 27.95 L-66.65 26.95 -67.4 26.95 Q-70.15 27.0 -72.35 25.55 -75.4 23.5 -77.65 20.55 L-78.75 18.8 -80.05 16.15 -80.5 15.0 Q-80.8 14.05 -79.85 13.85 L-80.6 12.4 Q-81.95 9.7 -82.8 6.8 L-83.75 3.8 Q-85.5 -1.0 -84.75 -5.85;M-84.65 -5.9 L-84.1 -7.65 Q-82.5 -10.6 -80.5 -13.05 L-80.0 -13.0 -79.95 -13.35 -79.25 -15.75 Q-77.45 -20.85 -72.8 -23.5 -68.1 -26.4 -62.35 -25.65 L-59.35 -25.2 Q-54.15 -24.4 -49.15 -22.65 L-49.25 -22.2 -48.8 -22.5 Q-47.65 -23.15 -46.35 -23.6 L-44.0 -24.5 Q-39.05 -26.3 -33.75 -26.05 L-31.85 -25.9 -21.6 -25.0 -21.1 -25.2 -20.25 -25.55 Q-18.5 -26.0 -16.7 -26.85 -13.6 -28.4 -10.1 -28.45 L-1.85 -28.2 2.55 -27.75 4.75 -27.55 6.45 -27.2 10.25 -25.7 10.75 -25.75 18.45 -26.0 20.7 -25.5 Q23.1 -24.8 25.65 -24.95 L28.9 -24.45 29.2 -24.35 Q31.9 -24.45 34.55 -25.5 L37.75 -26.5 Q41.2 -27.25 44.6 -26.55 L50.95 -25.9 Q52.6 -25.85 54.2 -25.05 L55.3 -24.4 55.85 -24.1 57.25 -23.2 57.05 -24.25 58.95 -24.65 61.65 -25.1 72.4 -24.3 74.5 -23.55 76.55 -22.6 Q77.85 -21.9 79.25 -21.3 82.2 -20.1 83.65 -17.0 L84.65 -14.6 Q85.05 -13.45 85.05 -12.25 L84.15 -11.75 85.05 -10.3 Q85.7 -9.15 85.7 -7.85 L85.8 -4.8 Q85.9 -1.0 84.3 2.65 L83.15 5.65 Q82.4 8.05 81.1 10.15 L82.3 11.15 Q82.1 15.3 79.8 18.85 L78.0 21.15 Q75.95 23.4 73.4 24.7 69.95 26.5 66.05 27.2 L59.45 26.8 57.55 26.55 57.0 25.5 55.9 26.0 54.5 26.5 51.2 27.4 Q46.65 28.7 41.85 29.0 L34.45 28.7 31.7 28.45 Q27.55 28.4 23.65 27.2 L17.2 29.3 Q13.5 30.25 9.7 30.35 4.6 30.4 -0.5 30.1 L-5.45 29.75 -9.4 28.85 -10.1 28.2 -10.55 28.45 Q-14.85 31.0 -19.75 30.75 L-22.65 30.3 -28.0 28.9 -29.25 28.3 Q-29.6 28.15 -29.95 28.0 L-30.0 27.7 -30.25 27.75 -34.6 28.8 -40.15 29.75 -44.5 30.05 -48.9 30.35 -53.3 30.45 -57.15 30.3 Q-62.25 30.0 -66.5 27.9 L-66.55 26.9 -67.3 26.9 Q-70.05 26.95 -72.25 25.5 -75.3 23.45 -77.55 20.5 L-78.65 18.75 -79.95 16.1 -80.4 14.95 Q-80.7 14.0 -79.75 13.8 L-80.5 12.35 Q-81.85 9.65 -82.7 6.75 L-83.65 3.75 Q-85.4 -1.05 -84.65 -5.9"/>
    </path>
  </g>
</svg>
