<?xml version="1.0" encoding="UTF-8" standalone="no"?>
<svg xmlns:xlink="http://www.w3.org/1999/xlink" height="59.2px" width="170.65px" xmlns="http://www.w3.org/2000/svg">
  <g transform="matrix(1.0, 0.0, 0.0, 1.0, 84.95, 28.4)">
    <path d="M-84.75 -5.85 Q-85.5 -1.0 -83.75 3.8 L-82.8 6.8 Q-81.95 9.7 -80.6 12.4 L-79.85 13.85 Q-80.8 14.05 -80.5 15.0 L-80.05 16.15 -78.75 18.8 -77.65 20.55 Q-75.4 23.5 -72.35 25.55 -70.15 27.0 -67.4 26.95 L-66.65 26.95 -66.6 27.95 Q-62.35 30.05 -57.25 30.35 L-53.4 30.5 -49.0 30.4 -44.6 30.1 -40.25 29.8 -34.7 28.85 -30.35 27.8 -30.1 27.75 -30.05 28.05 Q-29.75 28.1 -29.35 28.35 L-28.1 28.95 Q-25.4 29.65 -22.75 30.35 L-19.85 30.8 Q-14.95 31.05 -10.65 28.5 L-10.2 28.25 -9.5 28.9 -5.55 29.8 -0.6 30.15 Q4.5 30.45 9.6 30.4 13.35 29.85 17.1 29.35 L23.55 27.25 Q27.45 28.45 31.6 28.5 L34.35 28.75 41.75 29.05 Q46.55 28.75 51.1 27.45 L54.4 26.55 55.8 26.05 56.9 25.55 57.45 26.6 59.35 26.85 65.95 27.25 Q69.85 26.55 73.3 24.75 75.85 23.45 77.9 21.2 L79.7 18.9 Q82.0 15.35 82.2 11.2 L81.0 10.2 Q82.3 8.1 83.05 5.7 L84.2 2.7 Q85.8 -0.95 85.7 -4.75 L85.6 -7.8 Q85.6 -9.1 84.95 -10.25 L84.05 -11.7 84.95 -12.2 Q84.95 -13.4 84.55 -14.55 L83.55 -16.95 Q82.1 -20.05 79.15 -21.25 77.75 -21.85 76.45 -22.55 L74.4 -23.5 72.3 -24.25 61.55 -25.05 58.85 -24.6 56.95 -24.2 57.15 -23.15 55.75 -24.05 55.2 -24.35 54.1 -25.0 Q52.5 -25.8 50.85 -25.85 L44.5 -26.5 Q41.1 -27.2 37.65 -26.45 L34.45 -25.45 Q31.8 -24.4 29.1 -24.3 L28.8 -24.4 25.55 -24.9 Q23.0 -24.75 20.6 -25.45 L18.35 -25.95 10.65 -25.7 10.15 -25.65 6.35 -27.15 4.65 -27.5 2.45 -27.7 -1.95 -28.15 -10.2 -28.4 Q-13.7 -28.35 -16.8 -26.8 -18.6 -25.95 -20.35 -25.5 L-21.2 -25.15 -21.7 -24.95 -31.95 -25.85 -33.85 -26.0 Q-39.15 -26.25 -44.1 -24.45 L-46.45 -23.55 -48.9 -22.45 -49.35 -22.15 -49.25 -22.6 Q-54.25 -24.35 -59.45 -25.15 L-62.45 -25.6 Q-68.2 -26.35 -72.9 -23.45 -77.55 -20.8 -79.35 -15.7 L-80.05 -13.3 -80.1 -12.95 -80.6 -13.0 Q-82.6 -10.55 -84.2 -7.6 L-84.75 -5.85" fill="url(#gradient0)" fill-rule="evenodd" stroke="none">
      <animate attributeName="d" dur="2s" repeatCount="indefinite" values="M-84.75 -5.85 Q-85.5 -1.0 -83.75 3.8 L-82.8 6.8 Q-81.95 9.7 -80.6 12.4 L-79.85 13.85 Q-80.8 14.05 -80.5 15.0 L-80.05 16.15 -78.75 18.8 -77.65 20.55 Q-75.4 23.5 -72.35 25.55 -70.15 27.0 -67.4 26.95 L-66.65 26.95 -66.6 27.95 Q-62.35 30.05 -57.25 30.35 L-53.4 30.5 -49.0 30.4 -44.6 30.1 -40.25 29.8 -34.7 28.85 -30.35 27.8 -30.1 27.75 -30.05 28.05 Q-29.75 28.1 -29.35 28.35 L-28.1 28.95 Q-25.4 29.65 -22.75 30.35 L-19.85 30.8 Q-14.95 31.05 -10.65 28.5 L-10.2 28.25 -9.5 28.9 -5.55 29.8 -0.6 30.15 Q4.5 30.45 9.6 30.4 13.35 29.85 17.1 29.35 L23.55 27.25 Q27.45 28.45 31.6 28.5 L34.35 28.75 41.75 29.05 Q46.55 28.75 51.1 27.45 L54.4 26.55 55.8 26.05 56.9 25.55 57.45 26.6 59.35 26.85 65.95 27.25 Q69.85 26.55 73.3 24.75 75.85 23.45 77.9 21.2 L79.7 18.9 Q82.0 15.35 82.2 11.2 L81.0 10.2 Q82.3 8.1 83.05 5.7 L84.2 2.7 Q85.8 -0.95 85.7 -4.75 L85.6 -7.8 Q85.6 -9.1 84.95 -10.25 L84.05 -11.7 84.95 -12.2 Q84.95 -13.4 84.55 -14.55 L83.55 -16.95 Q82.1 -20.05 79.15 -21.25 77.75 -21.85 76.45 -22.55 L74.4 -23.5 72.3 -24.25 61.55 -25.05 58.85 -24.6 56.95 -24.2 57.15 -23.15 55.75 -24.05 55.2 -24.35 54.1 -25.0 Q52.5 -25.8 50.85 -25.85 L44.5 -26.5 Q41.1 -27.2 37.65 -26.45 L34.45 -25.45 Q31.8 -24.4 29.1 -24.3 L28.8 -24.4 25.55 -24.9 Q23.0 -24.75 20.6 -25.45 L18.35 -25.95 10.65 -25.7 10.15 -25.65 6.35 -27.15 4.65 -27.5 2.45 -27.7 -1.95 -28.15 -10.2 -28.4 Q-13.7 -28.35 -16.8 -26.8 -18.6 -25.95 -20.35 -25.5 L-21.2 -25.15 -21.7 -24.95 -31.95 -25.85 -33.85 -26.0 Q-39.15 -26.25 -44.1 -24.45 L-46.45 -23.55 -48.9 -22.45 -49.35 -22.15 -49.25 -22.6 Q-54.25 -24.35 -59.45 -25.15 L-62.45 -25.6 Q-68.2 -26.35 -72.9 -23.45 -77.55 -20.8 -79.35 -15.7 L-80.05 -13.3 -80.1 -12.95 -80.6 -13.0 Q-82.6 -10.55 -84.2 -7.6 L-84.75 -5.85;M-80.45 -5.15 Q-81.2 -0.8 -79.5 3.55 L-78.6 6.2 Q-77.8 8.8 -76.55 11.25 L-75.8 12.55 Q-76.7 12.75 -76.45 13.6 L-76.0 14.6 -74.75 17.0 -73.7 18.6 Q-71.6 21.25 -68.7 23.1 -66.6 24.4 -64.0 24.35 L-63.25 24.35 -63.2 25.25 Q-59.2 27.15 -54.3 27.4 L-50.65 27.55 -46.5 27.45 -42.3 27.2 -38.15 26.9 -32.9 26.05 -28.75 25.1 -28.55 25.05 -28.5 25.35 Q-28.2 25.4 -27.85 25.6 L-26.65 26.15 Q-24.1 26.7 -21.55 27.4 L-18.8 27.85 Q-14.15 28.05 -10.1 25.75 L-9.65 25.5 -8.95 26.1 -5.2 26.9 -0.5 27.25 Q4.35 27.35 9.15 27.45 12.8 27.4 16.3 26.5 L22.45 24.65 Q26.15 25.7 30.05 25.75 L32.65 25.95 39.7 26.25 Q44.25 26.0 48.6 24.8 L51.75 24.0 53.05 23.55 54.1 23.1 54.6 24.05 56.45 24.3 62.7 24.6 Q66.4 24.0 69.65 22.4 72.1 21.2 74.05 19.15 L75.8 17.1 Q77.95 13.9 78.15 10.15 L77.0 9.25 Q78.25 7.4 78.95 5.2 L80.05 2.55 Q81.55 -0.75 81.5 -4.2 L81.35 -6.9 Q81.35 -8.1 80.75 -9.15 L79.9 -10.45 80.75 -10.85 Q80.55 -11.95 80.4 -13.0 L79.45 -15.15 Q78.05 -17.95 75.25 -19.05 73.95 -19.55 72.7 -20.2 L70.7 -21.05 68.7 -21.7 58.55 -22.45 55.95 -22.05 54.15 -21.7 54.35 -20.7 53.0 -21.55 52.5 -21.8 51.45 -22.4 Q49.9 -23.1 48.35 -23.15 L42.35 -23.75 Q39.1 -24.4 35.8 -23.7 L32.75 -22.8 Q30.25 -21.85 27.7 -21.75 L27.4 -21.85 24.3 -22.3 Q21.95 -22.55 19.6 -22.8 L17.45 -23.25 10.15 -23.05 9.7 -22.95 6.05 -24.3 4.45 -24.65 2.35 -24.8 -1.8 -25.2 -9.65 -25.45 Q-12.95 -25.45 -15.9 -24.05 -17.6 -23.25 -19.25 -22.85 L-20.1 -22.55 -20.55 -22.35 -30.3 -23.15 -32.1 -23.3 Q-37.15 -23.5 -41.85 -21.9 L-44.1 -21.1 -46.4 -20.1 -46.85 -19.8 -46.7 -20.25 Q-51.5 -21.8 -56.4 -22.55 L-59.3 -22.95 Q-64.75 -23.6 -69.2 -21.0 -73.6 -18.6 -75.3 -14.05 L-76.0 -11.85 -76.05 -11.55 -76.55 -11.6 Q-78.45 -9.4 -79.95 -6.75 L-80.45 -5.15"/>
    </path>
    <path d="M-84.75 -5.85 L-84.2 -7.6 Q-82.6 -10.55 -80.6 -13.0 L-80.1 -12.95 -80.05 -13.3 -79.35 -15.7 Q-77.55 -20.8 -72.9 -23.45 -68.2 -26.35 -62.45 -25.6 L-59.45 -25.15 Q-54.25 -24.35 -49.25 -22.6 L-49.35 -22.15 -48.9 -22.45 -46.45 -23.55 -44.1 -24.45 Q-39.15 -26.25 -33.85 -26.0 L-31.95 -25.85 -21.7 -24.95 -21.2 -25.15 -20.35 -25.5 Q-18.6 -25.95 -16.8 -26.8 -13.7 -28.35 -10.2 -28.4 L-1.95 -28.15 2.45 -27.7 4.65 -27.5 6.35 -27.15 10.15 -25.65 10.65 -25.7 18.35 -25.95 20.6 -25.45 Q23.0 -24.75 25.55 -24.9 L28.8 -24.4 29.1 -24.3 Q31.8 -24.4 34.45 -25.45 L37.65 -26.45 Q41.1 -27.2 44.5 -26.5 L50.85 -25.85 Q52.5 -25.8 54.1 -25.0 L55.2 -24.35 55.75 -24.05 57.15 -23.15 56.95 -24.2 58.85 -24.6 61.55 -25.05 72.3 -24.25 74.4 -23.5 76.45 -22.55 Q77.75 -21.85 79.15 -21.25 82.1 -20.05 83.55 -16.95 L84.55 -14.55 Q84.95 -13.4 84.95 -12.2 L84.05 -11.7 84.95 -10.25 Q85.6 -9.1 85.6 -7.8 L85.7 -4.75 Q85.8 -0.95 84.2 2.7 L83.05 5.7 Q82.3 8.1 81.0 10.2 L82.2 11.2 Q82.0 15.35 79.7 18.9 L77.9 21.2 Q75.85 23.45 73.3 24.75 69.85 26.55 65.95 27.25 L59.35 26.85 57.45 26.6 56.9 25.55 55.8 26.05 54.4 26.55 51.1 27.45 Q46.55 28.75 41.75 29.05 L34.35 28.75 31.6 28.5 Q27.45 28.45 23.55 27.25 L17.1 29.35 Q13.35 29.85 9.6 30.4 4.5 30.45 -0.6 30.15 L-5.55 29.8 -9.5 28.9 -10.2 28.25 -10.65 28.5 Q-14.95 31.05 -19.85 30.8 L-22.75 30.35 Q-25.4 29.65 -28.1 28.95 L-29.35 28.35 Q-29.75 28.1 -30.05 28.05 L-30.1 27.75 -30.35 27.8 -34.7 28.85 -40.25 29.8 -44.6 30.1 -49.0 30.4 -53.4 30.5 -57.25 30.35 Q-62.35 30.05 -66.6 27.95 L-66.65 26.95 -67.4 26.95 Q-70.15 27.0 -72.35 25.55 -75.4 23.5 -77.65 20.55 L-78.75 18.8 -80.05 16.15 -80.5 15.0 Q-80.8 14.05 -79.85 13.85 L-80.6 12.4 Q-81.95 9.7 -82.8 6.8 L-83.75 3.8 Q-85.5 -1.0 -84.75 -5.85" fill="none" stroke="#000000" stroke-linecap="round" stroke-linejoin="round" stroke-opacity="0.0" stroke-width="1.0">
      <animate attributeName="stroke" dur="2s" repeatCount="indefinite" values="#000000;#000001"/>
      <animate attributeName="stroke-width" dur="2s" repeatCount="indefinite" values="0.0;0.0"/>
      <animate attributeName="fill-opacity" dur="2s" repeatCount="indefinite" values="0.0;0.0"/>
      <animate attributeName="d" dur="2s" repeatCount="indefinite" values="M-84.75 -5.85 L-84.2 -7.6 Q-82.6 -10.55 -80.6 -13.0 L-80.1 -12.95 -80.05 -13.3 -79.35 -15.7 Q-77.55 -20.8 -72.9 -23.45 -68.2 -26.35 -62.45 -25.6 L-59.45 -25.15 Q-54.25 -24.35 -49.25 -22.6 L-49.35 -22.15 -48.9 -22.45 -46.45 -23.55 -44.1 -24.45 Q-39.15 -26.25 -33.85 -26.0 L-31.95 -25.85 -21.7 -24.95 -21.2 -25.15 -20.35 -25.5 Q-18.6 -25.95 -16.8 -26.8 -13.7 -28.35 -10.2 -28.4 L-1.95 -28.15 2.45 -27.7 4.65 -27.5 6.35 -27.15 10.15 -25.65 10.65 -25.7 18.35 -25.95 20.6 -25.45 Q23.0 -24.75 25.55 -24.9 L28.8 -24.4 29.1 -24.3 Q31.8 -24.4 34.45 -25.45 L37.65 -26.45 Q41.1 -27.2 44.5 -26.5 L50.85 -25.85 Q52.5 -25.8 54.1 -25.0 L55.2 -24.35 55.75 -24.05 57.15 -23.15 56.95 -24.2 58.85 -24.6 61.55 -25.05 72.3 -24.25 74.4 -23.5 76.45 -22.55 Q77.75 -21.85 79.15 -21.25 82.1 -20.05 83.55 -16.95 L84.55 -14.55 Q84.95 -13.4 84.95 -12.2 L84.05 -11.7 84.95 -10.25 Q85.6 -9.1 85.6 -7.8 L85.7 -4.75 Q85.8 -0.95 84.2 2.7 L83.05 5.7 Q82.3 8.1 81.0 10.2 L82.2 11.2 Q82.0 15.35 79.7 18.9 L77.9 21.2 Q75.85 23.45 73.3 24.75 69.85 26.55 65.95 27.25 L59.35 26.85 57.45 26.6 56.9 25.55 55.8 26.05 54.4 26.55 51.1 27.45 Q46.55 28.75 41.75 29.05 L34.35 28.75 31.6 28.5 Q27.45 28.45 23.55 27.25 L17.1 29.35 Q13.35 29.85 9.6 30.4 4.5 30.45 -0.6 30.15 L-5.55 29.8 -9.5 28.9 -10.2 28.25 -10.65 28.5 Q-14.95 31.05 -19.85 30.8 L-22.75 30.35 Q-25.4 29.65 -28.1 28.95 L-29.35 28.35 Q-29.75 28.1 -30.05 28.05 L-30.1 27.75 -30.35 27.8 -34.7 28.85 -40.25 29.8 -44.6 30.1 -49.0 30.4 -53.4 30.5 -57.25 30.35 Q-62.35 30.05 -66.6 27.95 L-66.65 26.95 -67.4 26.95 Q-70.15 27.0 -72.35 25.55 -75.4 23.5 -77.65 20.55 L-78.75 18.8 -80.05 16.15 -80.5 15.0 Q-80.8 14.05 -79.85 13.85 L-80.6 12.4 Q-81.95 9.7 -82.8 6.8 L-83.75 3.8 Q-85.5 -1.0 -84.75 -5.85;M-80.45 -5.15 L-79.95 -6.75 Q-78.45 -9.4 -76.55 -11.6 L-76.05 -11.55 -76.0 -11.85 -75.3 -14.05 Q-73.6 -18.6 -69.2 -21.0 -64.75 -23.6 -59.3 -22.95 L-56.4 -22.55 Q-51.5 -21.8 -46.7 -20.25 L-46.85 -19.8 -46.4 -20.1 -44.1 -21.1 -41.85 -21.9 Q-37.15 -23.5 -32.1 -23.3 L-30.3 -23.15 -20.55 -22.35 -20.1 -22.55 -19.25 -22.85 Q-17.6 -23.25 -15.9 -24.05 -12.95 -25.45 -9.65 -25.45 L-1.8 -25.2 2.35 -24.8 4.45 -24.65 6.05 -24.3 9.7 -22.95 10.15 -23.05 17.45 -23.25 19.6 -22.8 Q21.95 -22.55 24.3 -22.3 L27.4 -21.85 27.7 -21.75 Q30.25 -21.85 32.75 -22.8 L35.8 -23.7 Q39.1 -24.4 42.35 -23.75 L48.35 -23.15 Q49.9 -23.1 51.45 -22.4 L52.5 -21.8 53.0 -21.55 54.35 -20.7 54.15 -21.7 55.95 -22.05 58.55 -22.45 68.7 -21.7 70.7 -21.05 72.7 -20.2 Q73.95 -19.55 75.25 -19.05 78.05 -17.95 79.45 -15.15 L80.4 -13.0 Q80.55 -11.95 80.75 -10.85 L79.9 -10.45 80.75 -9.15 Q81.35 -8.1 81.35 -6.9 L81.5 -4.2 Q81.55 -0.75 80.05 2.55 L78.95 5.2 Q78.25 7.4 77.0 9.25 L78.15 10.15 Q77.95 13.9 75.8 17.1 L74.05 19.15 Q72.1 21.2 69.65 22.4 66.4 24.0 62.7 24.6 L56.45 24.3 54.6 24.05 54.1 23.1 53.05 23.55 51.75 24.0 48.6 24.8 Q44.25 26.0 39.7 26.25 L32.65 25.95 30.05 25.75 Q26.15 25.7 22.45 24.65 L16.3 26.5 Q12.8 27.4 9.15 27.45 4.35 27.35 -0.5 27.25 L-5.2 26.9 -8.95 26.1 -9.65 25.5 -10.1 25.75 Q-14.15 28.05 -18.8 27.85 L-21.55 27.4 Q-24.1 26.7 -26.65 26.15 L-27.85 25.6 Q-28.2 25.4 -28.5 25.35 L-28.55 25.05 -28.75 25.1 -32.9 26.05 -38.15 26.9 -42.3 27.2 -46.5 27.45 -50.65 27.55 -54.3 27.4 Q-59.2 27.15 -63.2 25.25 L-63.25 24.35 -64.0 24.35 Q-66.6 24.4 -68.7 23.1 -71.6 21.25 -73.7 18.6 L-74.75 17.0 -76.0 14.6 -76.45 13.6 Q-76.7 12.75 -75.8 12.55 L-76.55 11.25 Q-77.8 8.8 -78.6 6.2 L-79.5 3.55 Q-81.2 -0.8 -80.45 -5.15"/>
    </path>
  </g>
  <defs>
    <radialGradient cx="0" cy="0" gradientTransform="matrix(-2.0E-4, -0.0521, 0.0952, -5.0E-4, 0.4, 1.2)" gradientUnits="userSpaceOnUse" id="gradient0" r="819.2" spreadMethod="pad">
      <animateTransform additive="replace" attributeName="gradientTransform" dur="2s" from="1" repeatCount="indefinite" to="1" type="scale"/>
      <animateTransform additive="sum" attributeName="gradientTransform" dur="2s" from="0.4 1.2" repeatCount="indefinite" to="0.4 1.2" type="translate"/>
      <animateTransform additive="sum" attributeName="gradientTransform" dur="2s" from="-90.2685" repeatCount="indefinite" to="-90.2685" type="rotate"/>
      <animateTransform additive="sum" attributeName="gradientTransform" dur="2s" from="0.0521 0.0952" repeatCount="indefinite" to="0.0521 0.0952" type="scale"/>
      <animateTransform additive="sum" attributeName="gradientTransform" dur="2s" from="0.013" repeatCount="indefinite" to="0.013" type="skewX"/>
      <stop offset="0.0" stop-color="#ffffff">
        <animate attributeName="offset" dur="2s" repeatCount="indefinite" values="0.0;0.0"/>
        <animate attributeName="stop-color" dur="2s" repeatCount="indefinite" values="#ffffff;#bcbcbd"/>
        <animate attributeName="stop-opacity" dur="2s" repeatCount="indefinite" values="1.0;1.0"/>
      </stop>
      <stop offset="1.0" stop-color="#ffffff">
        <animate attributeName="offset" dur="2s" repeatCount="indefinite" values="1.0;1.0"/>
        <animate attributeName="stop-color" dur="2s" repeatCount="indefinite" values="#ffffff;#757576"/>
        <animate attributeName="stop-opacity" dur="2s" repeatCount="indefinite" values="1.0;1.0"/>
      </stop>
    </radialGradient>
  </defs>
</svg>
