<?xml version="1.0" encoding="UTF-8" standalone="no"?>
<svg xmlns:xlink="http://www.w3.org/1999/xlink" height="4.1px" width="3.45px" xmlns="http://www.w3.org/2000/svg">
  <g transform="matrix(1.0, 0.0, 0.0, 1.0, 9.75, 12.55)">
    <path d="M-9.75 -12.05 L-9.3 -11.65 -7.55 -9.75 -7.55 -8.95 -7.6 -8.95 -7.6 -8.6 -7.6 -8.5 -7.6 -8.45 -7.55 -8.45 -7.4 -8.45 -6.9 -8.85 Q-6.3 -9.5 -6.3 -10.4 -6.3 -11.3 -6.9 -11.9 -7.55 -12.55 -8.45 -12.55 -9.2 -12.55 -9.7 -12.15 L-9.7 -12.1 -9.75 -12.05" fill="#ff0000" fill-opacity="0.0" fill-rule="evenodd" stroke="none">
      <animate attributeName="fill" dur="2s" repeatCount="indefinite" values="#ff0000;#ff0001"/>
      <animate attributeName="fill-opacity" dur="2s" repeatCount="indefinite" values="0.0;1.0"/>
      <animate attributeName="d" dur="2s" repeatCount="indefinite" values="M-9.75 -12.05 L-9.3 -11.65 -7.55 -9.75 -7.55 -8.95 -7.6 -8.95 -7.6 -8.6 -7.6 -8.5 -7.6 -8.45 -7.55 -8.45 -7.4 -8.45 -6.9 -8.85 Q-6.3 -9.5 -6.3 -10.4 -6.3 -11.3 -6.9 -11.9 -7.55 -12.55 -8.45 -12.55 -9.2 -12.55 -9.7 -12.15 L-9.7 -12.1 -9.75 -12.05;M-9.75 -12.05 L-9.3 -11.65 -7.55 -9.75 -7.55 -8.95 -7.6 -8.95 -7.6 -8.6 -7.6 -8.5 -7.6 -8.45 -7.55 -8.45 -7.4 -8.45 -6.9 -8.85 Q-6.3 -9.5 -6.3 -10.4 -6.3 -11.3 -6.9 -11.9 -7.55 -12.55 -8.45 -12.55 -9.2 -12.55 -9.7 -12.15 L-9.7 -12.1 -9.75 -12.05"/>
    </path>
    <path d="M-9.75 -12.05 L-9.7 -12.1 -9.7 -12.15 Q-9.2 -12.55 -8.45 -12.55 -7.55 -12.55 -6.9 -11.9 -6.3 -11.3 -6.3 -10.4 -6.3 -9.5 -6.9 -8.85 L-7.4 -8.45 -7.55 -8.45 -7.6 -8.45 -7.6 -8.5 -7.6 -8.6 -7.6 -8.95 -7.55 -8.95 -7.55 -9.75 -9.3 -11.65 -9.75 -12.05" fill="none" stroke="#000000" stroke-linecap="round" stroke-linejoin="round" stroke-opacity="0.0" stroke-width="1.0">
      <animate attributeName="stroke" dur="2s" repeatCount="indefinite" values="#000000;#000001"/>
      <animate attributeName="stroke-width" dur="2s" repeatCount="indefinite" values="0.0;0.0"/>
      <animate attributeName="fill-opacity" dur="2s" repeatCount="indefinite" values="0.0;0.0"/>
      <animate attributeName="d" dur="2s" repeatCount="indefinite" values="M-9.75 -12.05 L-9.7 -12.1 -9.7 -12.15 Q-9.2 -12.55 -8.45 -12.55 -7.55 -12.55 -6.9 -11.9 -6.3 -11.3 -6.3 -10.4 -6.3 -9.5 -6.9 -8.85 L-7.4 -8.45 -7.55 -8.45 -7.6 -8.45 -7.6 -8.5 -7.6 -8.6 -7.6 -8.95 -7.55 -8.95 -7.55 -9.75 -9.3 -11.65 -9.75 -12.05;M-9.75 -12.05 L-9.7 -12.1 -9.7 -12.15 Q-9.2 -12.55 -8.45 -12.55 -7.55 -12.55 -6.9 -11.9 -6.3 -11.3 -6.3 -10.4 -6.3 -9.5 -6.9 -8.85 L-7.4 -8.45 -7.55 -8.45 -7.6 -8.45 -7.6 -8.5 -7.6 -8.6 -7.6 -8.95 -7.55 -8.95 -7.55 -9.75 -9.3 -11.65 -9.75 -12.05"/>
    </path>
  </g>
</svg>
