<?xml version="1.0" encoding="UTF-8" standalone="no"?>
<svg xmlns:xlink="http://www.w3.org/1999/xlink" height="35.0px" width="43.0px" xmlns="http://www.w3.org/2000/svg">
  <g transform="matrix(1.0, 0.0, 0.0, 1.0, 22.5, 21.5)">
    <path d="M-3.1 -4.0 Q-3.1 -3.3 -2.45 -2.8 -1.85 -2.3 -1.0 -2.3 -0.15 -2.3 0.5 -2.8 1.1 -3.3 1.1 -4.0 1.1 -4.7 0.5 -5.2 -0.15 -5.7 -1.0 -5.7 -1.85 -5.7 -2.45 -5.2 -3.1 -4.7 -3.1 -4.0" fill="#ffffff" fill-rule="evenodd" stroke="none">
      <animate attributeName="fill" dur="2s" repeatCount="indefinite" values="#ffffff;#ffffff"/>
      <animate attributeName="fill-opacity" dur="2s" repeatCount="indefinite" values="1.0;1.0"/>
      <animate attributeName="d" dur="2s" repeatCount="indefinite" values="M-3.1 -4.0 Q-3.1 -3.3 -2.45 -2.8 -1.85 -2.3 -1.0 -2.3 -0.15 -2.3 0.5 -2.8 1.1 -3.3 1.1 -4.0 1.1 -4.7 0.5 -5.2 -0.15 -5.7 -1.0 -5.7 -1.85 -5.7 -2.45 -5.2 -3.1 -4.7 -3.1 -4.0;M-22.0 -4.0 Q-22.0 3.05 -15.85 8.0 -9.7 13.0 -1.0 13.0 7.7 13.0 13.85 8.0 20.0 3.05 20.0 -4.0 20.0 -11.05 13.85 -16.05 7.7 -21.0 -1.0 -21.0 -9.7 -21.0 -15.85 -16.05 -22.0 -11.05 -22.0 -4.0"/>
    </path>
    <path d="M-3.1 -4.0 Q-3.1 -4.7 -2.45 -5.2 -1.85 -5.7 -1.0 -5.7 -0.15 -5.7 0.5 -5.2 1.1 -4.7 1.1 -4.0 1.1 -3.3 0.5 -2.8 -0.15 -2.3 -1.0 -2.3 -1.85 -2.3 -2.45 -2.8 -3.1 -3.3 -3.1 -4.0 -3.1 -4.7 -2.45 -5.2 -1.85 -5.7 -1.0 -5.7 -0.15 -5.7 0.5 -5.2 1.1 -4.7 1.1 -4.0 1.1 -3.3 0.5 -2.8 -0.15 -2.3 -1.0 -2.3 -1.85 -2.3 -2.45 -2.8 -3.1 -3.3 -3.1 -4.0" fill="none" stroke="#ffffff" stroke-linecap="round" stroke-linejoin="round" stroke-width="1.0">
      <animate attributeName="stroke" dur="2s" repeatCount="indefinite" values="#ffffff;#ffffff"/>
      <animate attributeName="stroke-width" dur="2s" repeatCount="indefinite" values="1.0;1.0"/>
      <animate attributeName="fill-opacity" dur="2s" repeatCount="indefinite" values="1.0;1.0"/>
      <animate attributeName="d" dur="2s" repeatCount="indefinite" values="M-3.1 -4.0 Q-3.1 -4.7 -2.45 -5.2 -1.85 -5.7 -1.0 -5.7 -0.15 -5.7 0.5 -5.2 1.1 -4.7 1.1 -4.0 1.1 -3.3 0.5 -2.8 -0.15 -2.3 -1.0 -2.3 -1.85 -2.3 -2.45 -2.8 -3.1 -3.3 -3.1 -4.0 -3.1 -4.7 -2.45 -5.2 -1.85 -5.7 -1.0 -5.7 -0.15 -5.7 0.5 -5.2 1.1 -4.7 1.1 -4.0 1.1 -3.3 0.5 -2.8 -0.15 -2.3 -1.0 -2.3 -1.85 -2.3 -2.45 -2.8 -3.1 -3.3 -3.1 -4.0;M-22.0 -4.0 Q-22.0 -11.05 -15.85 -16.05 -9.7 -21.0 -1.0 -21.0 7.7 -21.0 13.85 -16.05 20.0 -11.05 20.0 -4.0 20.0 3.05 13.85 8.0 7.7 13.0 -1.0 13.0 -9.7 13.0 -15.85 8.0 -22.0 3.05 -22.0 -4.0 -22.0 -11.05 -15.85 -16.05 -9.7 -21.0 -1.0 -21.0 7.7 -21.0 13.85 -16.05 20.0 -11.05 20.0 -4.0 20.0 3.05 13.85 8.0 7.7 13.0 -1.0 13.0 -9.7 13.0 -15.85 8.0 -22.0 3.05 -22.0 -4.0"/>
    </path>
  </g>
</svg>
