<?xml version="1.0" encoding="UTF-8" standalone="no"?>
<svg xmlns:xlink="http://www.w3.org/1999/xlink" height="4.65px" width="4.65px" xmlns="http://www.w3.org/2000/svg">
  <g transform="matrix(1.0, 0.0, 0.0, 1.0, 2.3, 2.2)">
    <path d="M-2.3 0.15 Q-2.3 1.1 -1.6 1.8 L-1.0 2.2 0.05 2.45 0.95 2.3 1.65 1.8 Q2.35 1.1 2.35 0.15 2.35 -0.85 1.65 -1.5 L0.7 -2.1 0.05 -2.2 -0.9 -2.0 -1.6 -1.5 Q-2.3 -0.85 -2.3 0.15" fill="#000000" fill-rule="evenodd" stroke="none">
      <animate attributeName="fill" dur="2s" repeatCount="indefinite" values="#000000;#000001"/>
      <animate attributeName="fill-opacity" dur="2s" repeatCount="indefinite" values="1.0;1.0"/>
      <animate attributeName="d" dur="2s" repeatCount="indefinite" values="M-2.3 0.15 Q-2.3 1.1 -1.6 1.8 L-1.0 2.2 0.05 2.45 0.95 2.3 1.65 1.8 Q2.35 1.1 2.35 0.15 2.35 -0.85 1.65 -1.5 L0.7 -2.1 0.05 -2.2 -0.9 -2.0 -1.6 -1.5 Q-2.3 -0.85 -2.3 0.15;M-1.15 0.15 Q-0.95 0.55 -0.8 0.95 L-0.5 1.15 0.05 1.3 0.5 1.2 0.85 0.95 Q1.05 0.55 1.2 0.15 1.0 -0.3 0.85 -0.7 L0.35 -1.0 0.05 -1.05 -0.45 -0.95 -0.8 -0.7 Q-1.0 -0.25 -1.15 0.15"/>
    </path>
    <path d="M-2.3 0.15 Q-2.3 -0.85 -1.6 -1.5 L-0.9 -2.0 0.05 -2.2 0.7 -2.1 1.65 -1.5 Q2.35 -0.85 2.35 0.15 2.35 1.1 1.65 1.8 L0.95 2.3 0.05 2.45 -1.0 2.2 -1.6 1.8 Q-2.3 1.1 -2.3 0.15" fill="none" stroke="#000000" stroke-linecap="round" stroke-linejoin="round" stroke-opacity="0.0" stroke-width="1.0">
      <animate attributeName="stroke" dur="2s" repeatCount="indefinite" values="#000000;#000001"/>
      <animate attributeName="stroke-width" dur="2s" repeatCount="indefinite" values="0.0;0.0"/>
      <animate attributeName="fill-opacity" dur="2s" repeatCount="indefinite" values="0.0;0.0"/>
      <animate attributeName="d" dur="2s" repeatCount="indefinite" values="M-2.3 0.15 Q-2.3 -0.85 -1.6 -1.5 L-0.9 -2.0 0.05 -2.2 0.7 -2.1 1.65 -1.5 Q2.35 -0.85 2.35 0.15 2.35 1.1 1.65 1.8 L0.95 2.3 0.05 2.45 -1.0 2.2 -1.6 1.8 Q-2.3 1.1 -2.3 0.15;M-1.15 0.15 Q-1.0 -0.25 -0.8 -0.7 L-0.45 -0.95 0.05 -1.05 0.35 -1.0 0.85 -0.7 Q1.0 -0.3 1.2 0.15 1.05 0.55 0.85 0.95 L0.5 1.2 0.05 1.3 -0.5 1.15 -0.8 0.95 Q-0.95 0.55 -1.15 0.15"/>
    </path>
  </g>
</svg>
