<?xml version="1.0" encoding="UTF-8" standalone="no"?>
<svg xmlns:xlink="http://www.w3.org/1999/xlink" height="6.4px" width="5.45px" xmlns="http://www.w3.org/2000/svg">
  <g transform="matrix(1.0, 0.0, 0.0, 1.0, 2.7, 3.6)">
    <path d="M-2.7 0.1 Q-2.75 1.15 -1.95 1.95 -1.1 2.8 0.0 2.8 1.1 2.8 1.9 1.95 2.75 1.15 2.75 0.1 2.75 -1.0 1.9 -1.85 1.1 -2.65 0.0 -2.65 -1.1 -2.65 -1.95 -1.85 -2.75 -1.0 -2.7 0.1" fill="#b18707" fill-rule="evenodd" stroke="none">
      <animate attributeName="fill" dur="2s" repeatCount="indefinite" values="#b18707;#b18708"/>
      <animate attributeName="fill-opacity" dur="2s" repeatCount="indefinite" values="1.0;1.0"/>
      <animate attributeName="d" dur="2s" repeatCount="indefinite" values="M-2.7 0.1 Q-2.75 1.15 -1.95 1.95 -1.1 2.8 0.0 2.8 1.1 2.8 1.9 1.95 2.75 1.15 2.75 0.1 2.75 -1.0 1.9 -1.85 1.1 -2.65 0.0 -2.65 -1.1 -2.65 -1.95 -1.85 -2.75 -1.0 -2.7 0.1;M-2.3 -2.75 Q-2.3 -2.45 -1.65 -2.2 -0.8 -2.05 0.0 -1.95 0.8 -2.1 1.6 -2.2 2.3 -2.45 2.3 -2.75 1.95 -3.05 1.6 -3.35 0.8 -3.5 0.0 -3.6 -0.85 -3.45 -1.65 -3.35 -2.3 -3.1 -2.3 -2.75"/>
    </path>
    <path d="M-2.7 0.1 Q-2.75 -1.0 -1.95 -1.85 -1.1 -2.65 0.0 -2.65 1.1 -2.65 1.9 -1.85 2.75 -1.0 2.75 0.1 2.75 1.15 1.9 1.95 1.1 2.8 0.0 2.8 -1.1 2.8 -1.95 1.95 -2.75 1.15 -2.7 0.1" fill="none" stroke="#000000" stroke-linecap="round" stroke-linejoin="round" stroke-opacity="0.0" stroke-width="1.0">
      <animate attributeName="stroke" dur="2s" repeatCount="indefinite" values="#000000;#000001"/>
      <animate attributeName="stroke-width" dur="2s" repeatCount="indefinite" values="0.0;0.0"/>
      <animate attributeName="fill-opacity" dur="2s" repeatCount="indefinite" values="0.0;0.0"/>
      <animate attributeName="d" dur="2s" repeatCount="indefinite" values="M-2.7 0.1 Q-2.75 -1.0 -1.95 -1.85 -1.1 -2.65 0.0 -2.65 1.1 -2.65 1.9 -1.85 2.75 -1.0 2.75 0.1 2.75 1.15 1.9 1.95 1.1 2.8 0.0 2.8 -1.1 2.8 -1.95 1.95 -2.75 1.15 -2.7 0.1;M-2.3 -2.75 Q-2.3 -3.1 -1.65 -3.35 -0.85 -3.45 0.0 -3.6 0.8 -3.5 1.6 -3.35 1.95 -3.05 2.3 -2.75 2.3 -2.45 1.6 -2.2 0.8 -2.1 0.0 -1.95 -0.8 -2.05 -1.65 -2.2 -2.3 -2.45 -2.3 -2.75"/>
    </path>
  </g>
</svg>
