<?xml version="1.0" encoding="UTF-8" standalone="no"?>
<svg xmlns:xlink="http://www.w3.org/1999/xlink" height="1180.8px" width="1118.3px" xmlns="http://www.w3.org/2000/svg">
  <g transform="matrix(1.0, 0.0, 0.0, 1.0, 601.15, 597.55)">
    <path d="M-90.45 -5.5 Q-90.35 -5.3 -90.25 -5.15 -90.25 -4.9 -90.25 -4.7 -90.3 -4.4 -90.35 -4.15 -90.3 -4.1 -90.3 -4.05 -90.25 -3.65 -90.2 -3.25 -90.05 -2.95 -89.95 -2.65 -89.9 -2.6 -89.9 -2.6 -89.55 -2.35 -89.45 -1.9 -89.4 -1.85 -89.4 -1.8 -89.25 -1.65 -89.15 -1.5 -89.1 -1.45 -89.05 -1.45 -88.9 -1.2 -88.8 -1.0 -88.75 -0.95 -88.75 -0.9 -88.7 -0.85 -88.65 -0.85 -88.45 -0.75 -88.3 -0.65 -88.15 -0.6 -88.05 -0.6 -87.95 -0.55 -87.9 -0.55 -87.75 -0.3 -87.6 -0.1 -87.6 -0.05 -87.6 -0.05 -87.4 0.2 -87.25 0.4 -87.2 0.45 -87.15 0.45 -86.75 0.45 -86.35 0.45 -86.3 0.45 -86.3 0.45 -86.05 0.55 -85.95 0.7 -85.9 0.75 -85.85 0.8 -85.75 0.75 -85.7 0.75 -85.65 0.75 -85.6 0.75 -85.4 0.65 -85.25 0.6 -85.0 0.45 -84.75 0.35 -84.55 0.2 -84.35 0.35 -84.3 0.4 -84.25 0.4 -84.1 0.3 -84.0 0.25 -83.95 0.2 -83.9 0.2 -83.65 0.15 -83.45 0.15 -83.25 0.1 -83.05 0.05 -82.7 -0.2 -82.35 -0.4 -82.25 -0.45 -82.2 -0.5 -82.15 -0.55 -82.15 -0.55 -81.9 -0.65 -81.7 -0.7 -81.65 -0.7 -81.6 -0.7 -81.55 -0.75 -81.5 -0.75 -81.4 -0.8 -81.35 -0.8 -81.3 -0.85 -81.3 -0.9 -81.25 -0.95 -81.25 -0.95 -81.25 -1.05 -81.25 -1.1 -81.2 -1.25 -81.2 -1.4 -81.15 -1.45 -81.15 -1.5 -80.95 -1.7 -80.8 -1.85 L-80.55 -1.9 Q-80.4 -1.95 -80.3 -2.05 -80.2 -2.15 -80.15 -2.2 -80.1 -2.35 -80.1 -2.45 -80.1 -2.5 -80.1 -2.55 -80.05 -2.8 -80.0 -3.0 -80.0 -3.05 -80.0 -3.1 -79.9 -3.35 -79.85 -3.6 -79.75 -3.65 -79.7 -3.65 -79.55 -3.75 -79.55 -3.95 -79.6 -4.15 -79.65 -4.35 -79.65 -4.4 -79.65 -4.45 -79.85 -4.75 -79.7 -5.0 -79.7 -5.05 -79.7 -5.1 -79.65 -5.25 -79.65 -5.35 -79.6 -5.4 -79.6 -5.45 -79.5 -5.65 -79.55 -5.9 -79.65 -6.1 -79.75 -6.3 -79.8 -6.35 -79.8 -6.35 -79.9 -6.45 -80.0 -6.55 -80.05 -6.6 -80.05 -6.6 -80.05 -6.85 -80.05 -7.1 -80.0 -7.7 -80.4 -7.95 -80.45 -8.0 -80.5 -8.0 -80.7 -8.25 -80.9 -8.45 -80.95 -8.5 -80.95 -8.55 -81.1 -8.7 -81.25 -8.85 -81.3 -8.9 -81.35 -8.9 -81.4 -9.1 -81.45 -9.25 -81.5 -9.3 -81.5 -9.35 -81.6 -9.45 -81.65 -9.55 -81.7 -9.6 -81.7 -9.6 -81.9 -9.7 -82.05 -9.75 -82.2 -9.75 -82.35 -9.75 -82.4 -9.8 -82.45 -9.8 L-82.5 -9.85 Q-82.6 -9.95 -82.7 -10.0 -82.8 -10.15 -82.9 -10.3 -82.95 -10.35 -83.0 -10.4 -83.05 -10.45 -83.1 -10.45 -83.25 -10.55 -83.4 -10.6 -83.65 -10.65 -83.85 -10.65 -83.95 -10.6 -84.0 -10.55 -84.05 -10.5 -84.1 -10.45 -84.3 -10.4 -84.45 -10.4 -84.6 -10.55 -84.7 -10.65 -84.75 -10.7 -84.8 -10.75 -84.85 -10.75 -84.85 -10.75 L-85.15 -10.75 -85.3 -10.75 -85.35 -10.75 Q-85.4 -10.7 -85.4 -10.7 -85.5 -10.7 -85.6 -10.7 L-85.7 -10.75 Q-85.95 -10.8 -86.2 -10.8 -86.25 -10.75 -86.3 -10.75 L-86.8 -10.4 Q-87.05 -10.3 -87.25 -10.25 -87.5 -10.1 -87.7 -10.0 -87.75 -9.95 -87.8 -9.9 -87.9 -9.8 -88.0 -9.75 -88.25 -9.6 -88.45 -9.5 -88.6 -9.4 -88.7 -9.35 -88.75 -9.25 -88.75 -9.2 -88.75 -9.15 -88.75 -9.1 -88.85 -8.9 -89.05 -8.85 L-89.35 -8.8 -89.5 -8.75 Q-89.65 -8.6 -89.75 -8.5 -89.8 -8.45 -89.8 -8.4 -89.9 -8.2 -90.0 -8.0 -90.05 -7.95 -90.05 -7.9 -90.1 -7.8 -90.15 -7.75 -90.25 -7.45 -90.35 -7.2 -90.35 -7.15 -90.35 -7.15 -90.35 -6.9 -90.35 -6.7 -90.35 -6.5 -90.35 -6.3 L-90.4 -6.05 Q-90.4 -6.0 -90.4 -5.95 -90.45 -5.7 -90.45 -5.5" fill="url(#gradient0)" fill-rule="evenodd" stroke="none">
      <animate attributeName="d" dur="2s" repeatCount="indefinite" values="M-90.45 -5.5 Q-90.35 -5.3 -90.25 -5.15 -90.25 -4.9 -90.25 -4.7 -90.3 -4.4 -90.35 -4.15 -90.3 -4.1 -90.3 -4.05 -90.25 -3.65 -90.2 -3.25 -90.05 -2.95 -89.95 -2.65 -89.9 -2.6 -89.9 -2.6 -89.55 -2.35 -89.45 -1.9 -89.4 -1.85 -89.4 -1.8 -89.25 -1.65 -89.15 -1.5 -89.1 -1.45 -89.05 -1.45 -88.9 -1.2 -88.8 -1.0 -88.75 -0.95 -88.75 -0.9 -88.7 -0.85 -88.65 -0.85 -88.45 -0.75 -88.3 -0.65 -88.15 -0.6 -88.05 -0.6 -87.95 -0.55 -87.9 -0.55 -87.75 -0.3 -87.6 -0.1 -87.6 -0.05 -87.6 -0.05 -87.4 0.2 -87.25 0.4 -87.2 0.45 -87.15 0.45 -86.75 0.45 -86.35 0.45 -86.3 0.45 -86.3 0.45 -86.05 0.55 -85.95 0.7 -85.9 0.75 -85.85 0.8 -85.75 0.75 -85.7 0.75 -85.65 0.75 -85.6 0.75 -85.4 0.65 -85.25 0.6 -85.0 0.45 -84.75 0.35 -84.55 0.2 -84.35 0.35 -84.3 0.4 -84.25 0.4 -84.1 0.3 -84.0 0.25 -83.95 0.2 -83.9 0.2 -83.65 0.15 -83.45 0.15 -83.25 0.1 -83.05 0.05 -82.7 -0.2 -82.35 -0.4 -82.25 -0.45 -82.2 -0.5 -82.15 -0.55 -82.15 -0.55 -81.9 -0.65 -81.7 -0.7 -81.65 -0.7 -81.6 -0.7 -81.55 -0.75 -81.5 -0.75 -81.4 -0.8 -81.35 -0.8 -81.3 -0.85 -81.3 -0.9 -81.25 -0.95 -81.25 -0.95 -81.25 -1.05 -81.25 -1.1 -81.2 -1.25 -81.2 -1.4 -81.15 -1.45 -81.15 -1.5 -80.95 -1.7 -80.8 -1.85 L-80.55 -1.9 Q-80.4 -1.95 -80.3 -2.05 -80.2 -2.15 -80.15 -2.2 -80.1 -2.35 -80.1 -2.45 -80.1 -2.5 -80.1 -2.55 -80.05 -2.8 -80.0 -3.0 -80.0 -3.05 -80.0 -3.1 -79.9 -3.35 -79.85 -3.6 -79.75 -3.65 -79.7 -3.65 -79.55 -3.75 -79.55 -3.95 -79.6 -4.15 -79.65 -4.35 -79.65 -4.4 -79.65 -4.45 -79.85 -4.75 -79.7 -5.0 -79.7 -5.05 -79.7 -5.1 -79.65 -5.25 -79.65 -5.35 -79.6 -5.4 -79.6 -5.45 -79.5 -5.65 -79.55 -5.9 -79.65 -6.1 -79.75 -6.3 -79.8 -6.35 -79.8 -6.35 -79.9 -6.45 -80.0 -6.55 -80.05 -6.6 -80.05 -6.6 -80.05 -6.85 -80.05 -7.1 -80.0 -7.7 -80.4 -7.95 -80.45 -8.0 -80.5 -8.0 -80.7 -8.25 -80.9 -8.45 -80.95 -8.5 -80.95 -8.55 -81.1 -8.7 -81.25 -8.85 -81.3 -8.9 -81.35 -8.9 -81.4 -9.1 -81.45 -9.25 -81.5 -9.3 -81.5 -9.35 -81.6 -9.45 -81.65 -9.55 -81.7 -9.6 -81.7 -9.6 -81.9 -9.7 -82.05 -9.75 -82.2 -9.75 -82.35 -9.75 -82.4 -9.8 -82.45 -9.8 L-82.5 -9.85 Q-82.6 -9.95 -82.7 -10.0 -82.8 -10.15 -82.9 -10.3 -82.95 -10.35 -83.0 -10.4 -83.05 -10.45 -83.1 -10.45 -83.25 -10.55 -83.4 -10.6 -83.65 -10.65 -83.85 -10.65 -83.95 -10.6 -84.0 -10.55 -84.05 -10.5 -84.1 -10.45 -84.3 -10.4 -84.45 -10.4 -84.6 -10.55 -84.7 -10.65 -84.75 -10.7 -84.8 -10.75 -84.85 -10.75 -84.85 -10.75 L-85.15 -10.75 -85.3 -10.75 -85.35 -10.75 Q-85.4 -10.7 -85.4 -10.7 -85.5 -10.7 -85.6 -10.7 L-85.7 -10.75 Q-85.95 -10.8 -86.2 -10.8 -86.25 -10.75 -86.3 -10.75 L-86.8 -10.4 Q-87.05 -10.3 -87.25 -10.25 -87.5 -10.1 -87.7 -10.0 -87.75 -9.95 -87.8 -9.9 -87.9 -9.8 -88.0 -9.75 -88.25 -9.6 -88.45 -9.5 -88.6 -9.4 -88.7 -9.35 -88.75 -9.25 -88.75 -9.2 -88.75 -9.15 -88.75 -9.1 -88.85 -8.9 -89.05 -8.85 L-89.35 -8.8 -89.5 -8.75 Q-89.65 -8.6 -89.75 -8.5 -89.8 -8.45 -89.8 -8.4 -89.9 -8.2 -90.0 -8.0 -90.05 -7.95 -90.05 -7.9 -90.1 -7.8 -90.15 -7.75 -90.25 -7.45 -90.35 -7.2 -90.35 -7.15 -90.35 -7.15 -90.35 -6.9 -90.35 -6.7 -90.35 -6.5 -90.35 -6.3 L-90.4 -6.05 Q-90.4 -6.0 -90.4 -5.95 -90.45 -5.7 -90.45 -5.5;M-595.85 -59.95 Q-587.65 -41.55 -578.45 -25.15 -567.3 -3.85 -577.55 22.55 -586.65 48.1 -586.55 77.75 -586.5 82.85 -584.45 87.95 -568.2 121.6 -570.35 169.55 -572.35 204.3 -547.85 229.85 -543.8 233.8 -539.75 236.75 -505.05 264.35 -496.85 307.25 -494.8 312.35 -491.75 317.45 -479.55 336.85 -463.25 350.15 -459.15 353.15 -456.05 356.15 -434.55 374.55 -429.35 399.05 -427.45 408.15 -422.45 410.15 -418.3 412.25 -416.15 414.35 -404.95 430.75 -380.45 433.85 -365.25 434.85 -351.05 438.95 -344.9 439.95 -338.75 444.05 -314.2 464.4 -306.95 490.85 -306.05 493.9 -305.15 495.95 -287.75 527.55 -270.35 544.85 -268.3 546.9 -263.15 546.95 -222.35 547.0 -181.55 549.05 -178.5 550.0 -176.45 549.95 -150.95 558.15 -140.75 574.55 -137.7 580.65 -130.55 582.65 -120.3 584.7 -113.15 579.65 -110.1 577.65 -105.05 576.65 -85.75 574.6 -68.45 564.35 -44.95 550.05 -18.35 536.75 4.1 525.5 24.55 539.75 27.6 541.8 32.65 541.85 49.0 541.8 60.25 527.45 63.3 524.4 68.35 522.35 90.8 516.3 114.25 518.45 141.8 519.45 157.15 508.25 195.85 477.55 229.45 461.15 236.55 458.1 242.65 450.95 246.7 448.0 250.75 444.05 266.15 430.75 292.75 431.75 297.85 432.7 302.95 430.55 311.0 429.6 317.05 426.65 323.2 424.5 329.35 420.35 333.45 417.3 336.55 412.25 338.55 409.2 339.55 404.15 341.6 397.0 341.65 388.85 343.65 373.5 347.65 359.15 348.65 353.15 352.75 347.15 367.05 323.6 388.45 315.35 L410.05 307.25 Q427.35 302.1 436.45 292.85 442.65 287.8 450.85 276.65 459.0 266.45 458.95 251.15 458.9 246.05 459.85 240.95 465.05 216.45 468.25 195.05 469.25 189.95 468.25 184.85 463.05 153.2 485.35 136.85 490.45 132.85 500.65 127.85 517.1 119.65 514.15 98.15 510.95 77.75 505.75 57.35 504.8 52.25 501.85 47.15 485.45 20.65 497.65 -8.95 499.7 -14.05 499.75 -19.15 501.8 -31.45 504.85 -43.75 506.9 -49.75 509.95 -55.75 520.1 -75.2 515.95 -100.75 511.85 -123.25 495.55 -140.65 491.5 -143.6 487.45 -147.55 478.35 -158.8 468.25 -164.95 466.15 -167.1 464.05 -171.25 457.9 -191.6 461.95 -223.15 470.2 -281.25 427.45 -307.75 423.25 -309.9 419.05 -314.05 397.65 -341.45 375.25 -361.75 372.25 -365.9 369.25 -371.05 356.0 -391.4 340.75 -399.55 336.55 -401.7 332.35 -405.85 320.2 -421.1 318.25 -442.45 318.3 -447.5 315.25 -453.55 309.15 -465.8 299.95 -470.95 295.85 -473.0 292.75 -478.15 284.6 -492.45 257.05 -490.45 241.7 -488.45 227.35 -492.55 224.3 -493.5 219.25 -496.45 L212.05 -500.65 Q199.85 -505.8 193.75 -518.05 182.5 -540.35 171.25 -550.45 168.15 -554.55 164.05 -557.65 158.0 -562.8 149.95 -564.85 130.55 -572.05 119.35 -579.25 99.9 -592.5 77.35 -582.25 68.3 -578.15 60.25 -572.05 56.05 -569.9 51.85 -565.75 33.5 -547.4 16.15 -557.65 -0.15 -567.8 -12.35 -586.15 -15.4 -590.25 -20.45 -593.35 -23.5 -595.4 -28.55 -595.45 L-59.15 -595.45 -74.45 -595.45 -78.65 -593.35 Q-80.9 -592.05 -83.15 -591.25 -92.9 -588.0 -105.05 -591.25 L-115.25 -593.35 Q-141.75 -596.45 -166.25 -597.55 -171.35 -597.6 -176.45 -594.55 L-227.45 -559.75 Q-248.85 -544.5 -273.35 -541.45 -297.9 -537.3 -315.35 -519.85 -322.45 -513.85 -328.55 -507.85 -338.7 -499.65 -349.85 -493.45 -371.25 -480.2 -395.75 -467.95 -407.05 -461.75 -417.35 -453.55 -423.4 -447.5 -423.35 -437.35 -423.4 -432.25 -425.45 -427.15 -431.5 -404.7 -456.95 -399.55 L-487.55 -393.55 -502.85 -389.35 Q-518.1 -386.25 -526.25 -366.85 -528.3 -360.85 -531.35 -354.85 -543.7 -334.4 -549.95 -314.95 -552.0 -309.85 -555.05 -304.75 -559.1 -297.65 -568.25 -288.55 -587.7 -266.05 -587.75 -233.35 -586.75 -230.3 -587.75 -228.25 -589.7 -204.8 -586.55 -182.35 -583.6 -160.95 -587.75 -141.55 L-591.65 -116.05 Q-591.6 -110.95 -594.65 -105.85 -607.0 -83.4 -595.85 -59.95"/>
    </path>
    <path d="M-90.45 -5.5 Q-90.45 -5.7 -90.4 -5.95 -90.4 -6.0 -90.4 -6.05 L-90.35 -6.3 Q-90.35 -6.5 -90.35 -6.7 -90.35 -6.9 -90.35 -7.15 -90.35 -7.15 -90.35 -7.2 -90.25 -7.45 -90.15 -7.75 -90.1 -7.8 -90.05 -7.9 -90.05 -7.95 -90.0 -8.0 -89.9 -8.2 -89.8 -8.4 -89.8 -8.45 -89.75 -8.5 -89.65 -8.6 -89.5 -8.75 L-89.35 -8.8 -89.05 -8.85 Q-88.85 -8.9 -88.75 -9.1 -88.75 -9.15 -88.75 -9.2 -88.75 -9.25 -88.7 -9.35 -88.6 -9.4 -88.45 -9.5 -88.25 -9.6 -88.0 -9.75 -87.9 -9.8 -87.8 -9.9 -87.75 -9.95 -87.7 -10.0 -87.5 -10.1 -87.25 -10.25 -87.05 -10.3 -86.8 -10.4 L-86.3 -10.75 Q-86.25 -10.75 -86.2 -10.8 -85.95 -10.8 -85.7 -10.75 L-85.6 -10.7 Q-85.5 -10.7 -85.4 -10.7 -85.4 -10.7 -85.35 -10.75 L-85.3 -10.75 -85.15 -10.75 -84.85 -10.75 Q-84.85 -10.75 -84.8 -10.75 -84.75 -10.7 -84.7 -10.65 -84.6 -10.55 -84.45 -10.4 -84.3 -10.4 -84.1 -10.45 -84.05 -10.5 -84.0 -10.55 -83.95 -10.6 -83.85 -10.65 -83.65 -10.65 -83.4 -10.6 -83.25 -10.55 -83.1 -10.45 -83.05 -10.45 -83.0 -10.4 -82.95 -10.35 -82.9 -10.3 -82.8 -10.15 -82.7 -10.0 -82.6 -9.95 -82.5 -9.85 L-82.45 -9.8 Q-82.4 -9.8 -82.35 -9.75 -82.2 -9.75 -82.05 -9.75 -81.9 -9.7 -81.7 -9.6 -81.7 -9.6 -81.65 -9.55 -81.6 -9.45 -81.5 -9.35 -81.5 -9.3 -81.45 -9.25 -81.4 -9.1 -81.35 -8.9 -81.3 -8.9 -81.25 -8.85 -81.1 -8.7 -80.95 -8.55 -80.95 -8.5 -80.9 -8.45 -80.7 -8.25 -80.5 -8.0 -80.45 -8.0 -80.4 -7.95 -80.0 -7.7 -80.05 -7.1 -80.05 -6.85 -80.05 -6.6 -80.05 -6.6 -80.0 -6.55 -79.9 -6.45 -79.8 -6.35 -79.8 -6.35 -79.75 -6.3 -79.65 -6.1 -79.55 -5.9 -79.5 -5.65 -79.6 -5.45 -79.6 -5.4 -79.65 -5.35 -79.65 -5.25 -79.7 -5.1 -79.7 -5.05 -79.7 -5.0 -79.85 -4.75 -79.65 -4.45 -79.65 -4.4 -79.65 -4.35 -79.6 -4.15 -79.55 -3.95 -79.55 -3.75 -79.7 -3.65 -79.75 -3.65 -79.85 -3.6 -79.9 -3.35 -80.0 -3.1 -80.0 -3.05 -80.0 -3.0 -80.05 -2.8 -80.1 -2.55 -80.1 -2.5 -80.1 -2.45 -80.1 -2.35 -80.15 -2.2 -80.2 -2.15 -80.3 -2.05 -80.4 -1.95 -80.55 -1.9 L-80.8 -1.85 Q-80.95 -1.7 -81.15 -1.5 -81.15 -1.45 -81.2 -1.4 -81.2 -1.25 -81.25 -1.1 -81.25 -1.05 -81.25 -0.95 -81.25 -0.95 -81.3 -0.9 -81.3 -0.85 -81.35 -0.8 -81.4 -0.8 -81.5 -0.75 -81.55 -0.75 -81.6 -0.7 -81.65 -0.7 -81.7 -0.7 -81.9 -0.65 -82.15 -0.55 -82.15 -0.55 -82.2 -0.5 -82.25 -0.45 -82.35 -0.4 -82.7 -0.2 -83.05 0.05 -83.25 0.1 -83.45 0.15 -83.65 0.15 -83.9 0.2 -83.95 0.2 -84.0 0.25 -84.1 0.3 -84.25 0.4 -84.3 0.4 -84.35 0.35 -84.55 0.2 -84.75 0.35 -85.0 0.45 -85.25 0.6 -85.4 0.65 -85.6 0.75 -85.65 0.75 -85.7 0.75 -85.75 0.75 -85.85 0.8 -85.9 0.75 -85.95 0.7 -86.05 0.55 -86.3 0.45 -86.3 0.45 -86.35 0.45 -86.75 0.45 -87.15 0.45 -87.2 0.45 -87.25 0.4 -87.4 0.2 -87.6 -0.05 -87.6 -0.05 -87.6 -0.1 -87.75 -0.3 -87.9 -0.55 -87.95 -0.55 -88.05 -0.6 -88.15 -0.6 -88.3 -0.65 -88.45 -0.75 -88.65 -0.85 -88.7 -0.85 -88.75 -0.9 -88.75 -0.95 -88.8 -1.0 -88.9 -1.2 -89.05 -1.45 -89.1 -1.45 -89.15 -1.5 -89.25 -1.65 -89.4 -1.8 -89.4 -1.85 -89.45 -1.9 -89.55 -2.35 -89.9 -2.6 -89.9 -2.6 -89.95 -2.65 -90.05 -2.95 -90.2 -3.25 -90.25 -3.65 -90.3 -4.05 -90.3 -4.1 -90.35 -4.15 -90.3 -4.4 -90.25 -4.7 -90.25 -4.9 -90.25 -5.15 -90.35 -5.3 -90.45 -5.5" fill="none" stroke="#000000" stroke-linecap="round" stroke-linejoin="round" stroke-opacity="0.0" stroke-width="1.0">
      <animate attributeName="stroke" dur="2s" repeatCount="indefinite" values="#000000;#000001"/>
      <animate attributeName="stroke-width" dur="2s" repeatCount="indefinite" values="0.0;0.0"/>
      <animate attributeName="fill-opacity" dur="2s" repeatCount="indefinite" values="0.0;0.0"/>
      <animate attributeName="d" dur="2s" repeatCount="indefinite" values="M-90.45 -5.5 Q-90.45 -5.7 -90.4 -5.95 -90.4 -6.0 -90.4 -6.05 L-90.35 -6.3 Q-90.35 -6.5 -90.35 -6.7 -90.35 -6.9 -90.35 -7.15 -90.35 -7.15 -90.35 -7.2 -90.25 -7.45 -90.15 -7.75 -90.1 -7.8 -90.05 -7.9 -90.05 -7.95 -90.0 -8.0 -89.9 -8.2 -89.8 -8.4 -89.8 -8.45 -89.75 -8.5 -89.65 -8.6 -89.5 -8.75 L-89.35 -8.8 -89.05 -8.85 Q-88.85 -8.9 -88.75 -9.1 -88.75 -9.15 -88.75 -9.2 -88.75 -9.25 -88.7 -9.35 -88.6 -9.4 -88.45 -9.5 -88.25 -9.6 -88.0 -9.75 -87.9 -9.8 -87.8 -9.9 -87.75 -9.95 -87.7 -10.0 -87.5 -10.1 -87.25 -10.25 -87.05 -10.3 -86.8 -10.4 L-86.3 -10.75 Q-86.25 -10.75 -86.2 -10.8 -85.95 -10.8 -85.7 -10.75 L-85.6 -10.7 Q-85.5 -10.7 -85.4 -10.7 -85.4 -10.7 -85.35 -10.75 L-85.3 -10.75 -85.15 -10.75 -84.85 -10.75 Q-84.85 -10.75 -84.8 -10.75 -84.75 -10.7 -84.7 -10.65 -84.6 -10.55 -84.45 -10.4 -84.3 -10.4 -84.1 -10.45 -84.05 -10.5 -84.0 -10.55 -83.95 -10.6 -83.85 -10.65 -83.65 -10.65 -83.4 -10.6 -83.25 -10.55 -83.1 -10.45 -83.05 -10.45 -83.0 -10.4 -82.95 -10.35 -82.9 -10.3 -82.8 -10.15 -82.7 -10.0 -82.6 -9.95 -82.5 -9.85 L-82.45 -9.8 Q-82.4 -9.8 -82.35 -9.75 -82.2 -9.75 -82.05 -9.75 -81.9 -9.7 -81.7 -9.6 -81.7 -9.6 -81.65 -9.55 -81.6 -9.45 -81.5 -9.35 -81.5 -9.3 -81.45 -9.25 -81.4 -9.1 -81.35 -8.9 -81.3 -8.9 -81.25 -8.85 -81.1 -8.7 -80.95 -8.55 -80.95 -8.5 -80.9 -8.45 -80.7 -8.25 -80.5 -8.0 -80.45 -8.0 -80.4 -7.95 -80.0 -7.7 -80.05 -7.1 -80.05 -6.85 -80.05 -6.6 -80.05 -6.6 -80.0 -6.55 -79.9 -6.45 -79.8 -6.35 -79.8 -6.35 -79.75 -6.3 -79.65 -6.1 -79.55 -5.9 -79.5 -5.65 -79.6 -5.45 -79.6 -5.4 -79.65 -5.35 -79.65 -5.25 -79.7 -5.1 -79.7 -5.05 -79.7 -5.0 -79.85 -4.75 -79.65 -4.45 -79.65 -4.4 -79.65 -4.35 -79.6 -4.15 -79.55 -3.95 -79.55 -3.75 -79.7 -3.65 -79.75 -3.65 -79.85 -3.6 -79.9 -3.35 -80.0 -3.1 -80.0 -3.05 -80.0 -3.0 -80.05 -2.8 -80.1 -2.55 -80.1 -2.5 -80.1 -2.45 -80.1 -2.35 -80.15 -2.2 -80.2 -2.15 -80.3 -2.05 -80.4 -1.95 -80.55 -1.9 L-80.8 -1.85 Q-80.95 -1.7 -81.15 -1.5 -81.15 -1.45 -81.2 -1.4 -81.2 -1.25 -81.25 -1.1 -81.25 -1.05 -81.25 -0.95 -81.25 -0.95 -81.3 -0.9 -81.3 -0.85 -81.35 -0.8 -81.4 -0.8 -81.5 -0.75 -81.55 -0.75 -81.6 -0.7 -81.65 -0.7 -81.7 -0.7 -81.9 -0.65 -82.15 -0.55 -82.15 -0.55 -82.2 -0.5 -82.25 -0.45 -82.35 -0.4 -82.7 -0.2 -83.05 0.05 -83.25 0.1 -83.45 0.15 -83.65 0.15 -83.9 0.2 -83.95 0.2 -84.0 0.25 -84.1 0.3 -84.25 0.4 -84.3 0.4 -84.35 0.35 -84.55 0.2 -84.75 0.35 -85.0 0.45 -85.25 0.6 -85.4 0.65 -85.6 0.75 -85.65 0.75 -85.7 0.75 -85.75 0.75 -85.85 0.8 -85.9 0.75 -85.95 0.7 -86.05 0.55 -86.3 0.45 -86.3 0.45 -86.35 0.45 -86.75 0.45 -87.15 0.45 -87.2 0.45 -87.25 0.4 -87.4 0.2 -87.6 -0.05 -87.6 -0.05 -87.6 -0.1 -87.75 -0.3 -87.9 -0.55 -87.95 -0.55 -88.05 -0.6 -88.15 -0.6 -88.3 -0.65 -88.45 -0.75 -88.65 -0.85 -88.7 -0.85 -88.75 -0.9 -88.75 -0.95 -88.8 -1.0 -88.9 -1.2 -89.05 -1.45 -89.1 -1.45 -89.15 -1.5 -89.25 -1.65 -89.4 -1.8 -89.4 -1.85 -89.45 -1.9 -89.55 -2.35 -89.9 -2.6 -89.9 -2.6 -89.95 -2.65 -90.05 -2.95 -90.2 -3.25 -90.25 -3.65 -90.3 -4.05 -90.3 -4.1 -90.35 -4.15 -90.3 -4.4 -90.25 -4.7 -90.25 -4.9 -90.25 -5.15 -90.35 -5.3 -90.45 -5.5;M-595.85 -59.95 Q-607.0 -83.4 -594.65 -105.85 -591.6 -110.95 -591.65 -116.05 L-587.75 -141.55 Q-583.6 -160.95 -586.55 -182.35 -589.7 -204.8 -587.75 -228.25 -586.75 -230.3 -587.75 -233.35 -587.7 -266.05 -568.25 -288.55 -559.1 -297.65 -555.05 -304.75 -552.0 -309.85 -549.95 -314.95 -543.7 -334.4 -531.35 -354.85 -528.3 -360.85 -526.25 -366.85 -518.1 -386.25 -502.85 -389.35 L-487.55 -393.55 -456.95 -399.55 Q-431.5 -404.7 -425.45 -427.15 -423.4 -432.25 -423.35 -437.35 -423.4 -447.5 -417.35 -453.55 -407.05 -461.75 -395.75 -467.95 -371.25 -480.2 -349.85 -493.45 -338.7 -499.65 -328.55 -507.85 -322.45 -513.85 -315.35 -519.85 -297.9 -537.3 -273.35 -541.45 -248.85 -544.5 -227.45 -559.75 L-176.45 -594.55 Q-171.35 -597.6 -166.25 -597.55 -141.75 -596.45 -115.25 -593.35 L-105.05 -591.25 Q-92.9 -588.0 -83.15 -591.25 -80.9 -592.05 -78.65 -593.35 L-74.45 -595.45 -59.15 -595.45 -28.55 -595.45 Q-23.5 -595.4 -20.45 -593.35 -15.4 -590.25 -12.35 -586.15 -0.15 -567.8 16.15 -557.65 33.5 -547.4 51.85 -565.75 56.05 -569.9 60.25 -572.05 68.3 -578.15 77.35 -582.25 99.9 -592.5 119.35 -579.25 130.55 -572.05 149.95 -564.85 158.0 -562.8 164.05 -557.65 168.15 -554.55 171.25 -550.45 182.5 -540.35 193.75 -518.05 199.85 -505.8 212.05 -500.65 L219.25 -496.45 Q224.3 -493.5 227.35 -492.55 241.7 -488.45 257.05 -490.45 284.6 -492.45 292.75 -478.15 295.85 -473.0 299.95 -470.95 309.15 -465.8 315.25 -453.55 318.3 -447.5 318.25 -442.45 320.2 -421.1 332.35 -405.85 336.55 -401.7 340.75 -399.55 356.0 -391.4 369.25 -371.05 372.25 -365.9 375.25 -361.75 397.65 -341.45 419.05 -314.05 423.25 -309.9 427.45 -307.75 470.2 -281.25 461.95 -223.15 457.9 -191.6 464.05 -171.25 466.15 -167.1 468.25 -164.95 478.35 -158.8 487.45 -147.55 491.5 -143.6 495.55 -140.65 511.85 -123.25 515.95 -100.75 520.1 -75.2 509.95 -55.75 506.9 -49.75 504.85 -43.75 501.8 -31.45 499.75 -19.15 499.7 -14.05 497.65 -8.95 485.45 20.65 501.85 47.15 504.8 52.25 505.75 57.35 510.95 77.75 514.15 98.15 517.1 119.65 500.65 127.85 490.45 132.85 485.35 136.85 463.05 153.2 468.25 184.85 469.25 189.95 468.25 195.05 465.05 216.45 459.85 240.95 458.9 246.05 458.95 251.15 459.0 266.45 450.85 276.65 442.65 287.8 436.45 292.85 427.35 302.1 410.05 307.25 L388.45 315.35 Q367.05 323.6 352.75 347.15 348.65 353.15 347.65 359.15 343.65 373.5 341.65 388.85 341.6 397.0 339.55 404.15 338.55 409.2 336.55 412.25 333.45 417.3 329.35 420.35 323.2 424.5 317.05 426.65 311.0 429.6 302.95 430.55 297.85 432.7 292.75 431.75 266.15 430.75 250.75 444.05 246.7 448.0 242.65 450.95 236.55 458.1 229.45 461.15 195.85 477.55 157.15 508.25 141.8 519.45 114.25 518.45 90.8 516.3 68.35 522.35 63.3 524.4 60.25 527.45 49.0 541.8 32.65 541.85 27.6 541.8 24.55 539.75 4.1 525.5 -18.35 536.75 -44.95 550.05 -68.45 564.35 -85.75 574.6 -105.05 576.65 -110.1 577.65 -113.15 579.65 -120.3 584.7 -130.55 582.65 -137.7 580.65 -140.75 574.55 -150.95 558.15 -176.45 549.95 -178.5 550.0 -181.55 549.05 -222.35 547.0 -263.15 546.95 -268.3 546.9 -270.35 544.85 -287.75 527.55 -305.15 495.95 -306.05 493.9 -306.95 490.85 -314.2 464.4 -338.75 444.05 -344.9 439.95 -351.05 438.95 -365.25 434.85 -380.45 433.85 -404.95 430.75 -416.15 414.35 -418.3 412.25 -422.45 410.15 -427.45 408.15 -429.35 399.05 -434.55 374.55 -456.05 356.15 -459.15 353.15 -463.25 350.15 -479.55 336.85 -491.75 317.45 -494.8 312.35 -496.85 307.25 -505.05 264.35 -539.75 236.75 -543.8 233.8 -547.85 229.85 -572.35 204.3 -570.35 169.55 -568.2 121.6 -584.45 87.95 -586.5 82.85 -586.55 77.75 -586.65 48.1 -577.55 22.55 -567.3 -3.85 -578.45 -25.15 -587.65 -41.55 -595.85 -59.95"/>
    </path>
  </g>
  <defs>
    <radialGradient cx="0" cy="0" gradientTransform="matrix(0.0067, 0.0, 0.0, 0.0067, -84.75, -5.0)" gradientUnits="userSpaceOnUse" id="gradient0" r="819.2" spreadMethod="pad">
      <animateTransform additive="replace" attributeName="gradientTransform" dur="2s" from="1" repeatCount="indefinite" to="1" type="scale"/>
      <animateTransform additive="sum" attributeName="gradientTransform" dur="2s" from="-84.75 -5.0" repeatCount="indefinite" to="-13.25 -8.65" type="translate"/>
      <animateTransform additive="sum" attributeName="gradientTransform" dur="2s" from="0.0" repeatCount="indefinite" to="0.0" type="rotate"/>
      <animateTransform additive="sum" attributeName="gradientTransform" dur="2s" from="0.0067 0.0067" repeatCount="indefinite" to="0.6826 0.6826" type="scale"/>
      <animateTransform additive="sum" attributeName="gradientTransform" dur="2s" from="0.0" repeatCount="indefinite" to="0.0" type="skewX"/>
      <stop offset="0.2196078431372549" stop-color="#000000">
        <animate attributeName="offset" dur="2s" repeatCount="indefinite" values="0.2196078431372549;0.5137254901960784"/>
        <animate attributeName="stop-color" dur="2s" repeatCount="indefinite" values="#000000;#000001"/>
        <animate attributeName="stop-opacity" dur="2s" repeatCount="indefinite" values="1.0;1.0"/>
      </stop>
      <stop offset="0.38823529411764707" stop-color="#932223">
        <animate attributeName="offset" dur="2s" repeatCount="indefinite" values="0.38823529411764707;0.6196078431372549"/>
        <animate attributeName="stop-color" dur="2s" repeatCount="indefinite" values="#932223;#932224"/>
        <animate attributeName="stop-opacity" dur="2s" repeatCount="indefinite" values="1.0;1.0"/>
      </stop>
      <stop offset="0.6431372549019608" stop-color="#8e0607">
        <animate attributeName="offset" dur="2s" repeatCount="indefinite" values="0.6431372549019608;0.796078431372549"/>
        <animate attributeName="stop-color" dur="2s" repeatCount="indefinite" values="#8e0607;#8e0608"/>
        <animate attributeName="stop-opacity" dur="2s" repeatCount="indefinite" values="1.0;1.0"/>
      </stop>
      <stop offset="1.0" stop-color="#3f0c0c">
        <animate attributeName="offset" dur="2s" repeatCount="indefinite" values="1.0;1.0"/>
        <animate attributeName="stop-color" dur="2s" repeatCount="indefinite" values="#3f0c0c;#3f0c0d"/>
        <animate attributeName="stop-opacity" dur="2s" repeatCount="indefinite" values="1.0;1.0"/>
      </stop>
    </radialGradient>
  </defs>
</svg>
