<?xml version="1.0" encoding="UTF-8" standalone="no"?>
<svg xmlns:xlink="http://www.w3.org/1999/xlink" height="232.2px" width="546.35px" xmlns="http://www.w3.org/2000/svg">
  <g transform="matrix(1.0, 0.0, 0.0, 1.0, 631.45, 6.25)">
    <path d="M-93.1 -3.65 Q-93.2 -2.85 -92.85 -2.15 -92.6 -1.6 -91.6 -1.45 -90.7 -1.35 -89.8 -1.25 -89.5 -1.3 -89.2 -1.3 -87.25 -2.0 -86.2 -3.45 -85.7 -4.15 -85.5 -5.15 -85.45 -5.3 -85.4 -5.4 -85.25 -5.85 -85.1 -6.25 -85.8 -5.5 -86.8 -5.05 -87.5 -4.7 -88.7 -5.05 -89.75 -5.25 -90.75 -5.45 -91.6 -5.4 -92.45 -5.4 -92.9 -4.85 -93.05 -3.95 L-93.1 -3.65" fill="url(#gradient0)" fill-rule="evenodd" stroke="none">
      <animate attributeName="d" dur="2s" repeatCount="indefinite" values="M-93.1 -3.65 Q-93.2 -2.85 -92.85 -2.15 -92.6 -1.6 -91.6 -1.45 -90.7 -1.35 -89.8 -1.25 -89.5 -1.3 -89.2 -1.3 -87.25 -2.0 -86.2 -3.45 -85.7 -4.15 -85.5 -5.15 -85.45 -5.3 -85.4 -5.4 -85.25 -5.85 -85.1 -6.25 -85.8 -5.5 -86.8 -5.05 -87.5 -4.7 -88.7 -5.05 -89.75 -5.25 -90.75 -5.45 -91.6 -5.4 -92.45 -5.4 -92.9 -4.85 -93.05 -3.95 L-93.1 -3.65;M-630.2 115.8 Q-635.35 153.7 -619.65 184.85 -608.05 209.4 -562.2 216.1 -521.85 221.85 -480.95 224.95 -467.65 227.75 -452.7 222.6 -365.45 190.8 -318.4 125.7 -295.25 94.4 -285.8 49.2 -282.0 44.3 -280.35 36.25 -271.15 18.75 -266.75 -2.5 -299.0 32.35 -344.95 53.25 -376.1 69.1 -430.95 52.25 -480.35 36.25 -524.45 35.25 -563.95 32.35 -599.95 37.6 -621.2 62.85 -628.85 102.55 L-630.2 115.8"/>
    </path>
    <path d="M-93.1 -3.65 L-93.05 -3.95 Q-92.9 -4.85 -92.45 -5.4 -91.6 -5.4 -90.75 -5.45 -89.75 -5.25 -88.7 -5.05 -87.5 -4.7 -86.8 -5.05 -85.8 -5.5 -85.1 -6.25 -85.25 -5.85 -85.4 -5.4 -85.45 -5.3 -85.5 -5.15 -85.7 -4.15 -86.2 -3.45 -87.25 -2.0 -89.2 -1.3 -89.5 -1.3 -89.8 -1.25 -90.7 -1.35 -91.6 -1.45 -92.6 -1.6 -92.85 -2.15 -93.2 -2.85 -93.1 -3.65" fill="none" stroke="#000000" stroke-linecap="round" stroke-linejoin="round" stroke-opacity="0.0" stroke-width="1.0">
      <animate attributeName="stroke" dur="2s" repeatCount="indefinite" values="#000000;#000001"/>
      <animate attributeName="stroke-width" dur="2s" repeatCount="indefinite" values="0.0;0.0"/>
      <animate attributeName="fill-opacity" dur="2s" repeatCount="indefinite" values="0.0;0.0"/>
      <animate attributeName="d" dur="2s" repeatCount="indefinite" values="M-93.1 -3.65 L-93.05 -3.95 Q-92.9 -4.85 -92.45 -5.4 -91.6 -5.4 -90.75 -5.45 -89.75 -5.25 -88.7 -5.05 -87.5 -4.7 -86.8 -5.05 -85.8 -5.5 -85.1 -6.25 -85.25 -5.85 -85.4 -5.4 -85.45 -5.3 -85.5 -5.15 -85.7 -4.15 -86.2 -3.45 -87.25 -2.0 -89.2 -1.3 -89.5 -1.3 -89.8 -1.25 -90.7 -1.35 -91.6 -1.45 -92.6 -1.6 -92.85 -2.15 -93.2 -2.85 -93.1 -3.65;M-630.2 115.8 L-628.85 102.55 Q-621.2 62.85 -599.95 37.6 -563.95 32.35 -524.45 35.25 -480.35 36.25 -430.95 52.25 -376.1 69.1 -344.95 53.25 -299.0 32.35 -266.75 -2.5 -271.15 18.75 -280.35 36.25 -282.0 44.3 -285.8 49.2 -295.25 94.4 -318.4 125.7 -365.45 190.8 -452.7 222.6 -467.65 227.75 -480.95 224.95 -521.85 221.85 -562.2 216.1 -608.05 209.4 -619.65 184.85 -635.35 153.7 -630.2 115.8"/>
    </path>
  </g>
  <defs>
    <radialGradient cx="0" cy="0" gradientTransform="matrix(0.0077, 0.0016, -0.0016, 0.0077, -87.35, -4.3)" gradientUnits="userSpaceOnUse" id="gradient0" r="819.2" spreadMethod="pad">
      <animateTransform additive="replace" attributeName="gradientTransform" dur="2s" from="1" repeatCount="indefinite" to="1" type="scale"/>
      <animateTransform additive="sum" attributeName="gradientTransform" dur="2s" from="-87.35 -4.3" repeatCount="indefinite" to="-369.1 87.6" type="translate"/>
      <animateTransform additive="sum" attributeName="gradientTransform" dur="2s" from="11.8139" repeatCount="indefinite" to="11.8024" type="rotate"/>
      <animateTransform additive="sum" attributeName="gradientTransform" dur="2s" from="0.0078 0.0078" repeatCount="indefinite" to="0.3551 0.3551" type="scale"/>
      <animateTransform additive="sum" attributeName="gradientTransform" dur="2s" from="0.0" repeatCount="indefinite" to="0.0" type="skewX"/>
      <stop offset="0.5215686274509804" stop-color="#ffffff">
        <animate attributeName="offset" dur="2s" repeatCount="indefinite" values="0.5215686274509804;0.5215686274509804"/>
        <animate attributeName="stop-color" dur="2s" repeatCount="indefinite" values="#ffffff;#ffffff"/>
        <animate attributeName="stop-opacity" dur="2s" repeatCount="indefinite" values="1.0;1.0"/>
      </stop>
      <stop offset="1.0" stop-color="#c11a02">
        <animate attributeName="offset" dur="2s" repeatCount="indefinite" values="1.0;1.0"/>
        <animate attributeName="stop-color" dur="2s" repeatCount="indefinite" values="#c11a02;#c11a03"/>
        <animate attributeName="stop-opacity" dur="2s" repeatCount="indefinite" values="1.0;1.0"/>
      </stop>
    </radialGradient>
  </defs>
</svg>
