<?xml version="1.0" encoding="UTF-8" standalone="no"?>
<svg xmlns:xlink="http://www.w3.org/1999/xlink" height="480.35px" width="577.05px" xmlns="http://www.w3.org/2000/svg">
  <g transform="matrix(1.0, 0.0, 0.0, 1.0, 84.8, 6.2)">
    <path d="M-84.8 -6.2 Q-83.95 -5.0 -84.0 -3.9 -84.2 -1.05 -81.95 1.05 -81.75 1.15 -81.55 1.25 -80.9 1.15 -80.3 1.1 -79.85 0.9 -79.6 0.5 -79.4 0.25 -79.25 0.05 -78.75 -0.3 -78.25 -0.65 -78.3 -1.05 -78.35 -1.45 -78.65 -2.15 -78.9 -2.85 -79.4 -4.0 -80.25 -4.45 -81.65 -5.25 -83.05 -5.45 -83.25 -5.55 -83.4 -5.6 -84.1 -5.9 -84.8 -6.2" fill="url(#gradient0)" fill-rule="evenodd" stroke="none">
      <animate attributeName="d" dur="2s" repeatCount="indefinite" values="M-84.8 -6.2 Q-83.95 -5.0 -84.0 -3.9 -84.2 -1.05 -81.95 1.05 -81.75 1.15 -81.55 1.25 -80.9 1.15 -80.3 1.1 -79.85 0.9 -79.6 0.5 -79.4 0.25 -79.25 0.05 -78.75 -0.3 -78.25 -0.65 -78.3 -1.05 -78.35 -1.45 -78.65 -2.15 -78.9 -2.85 -79.4 -4.0 -80.25 -4.45 -81.65 -5.25 -83.05 -5.45 -83.25 -5.55 -83.4 -5.6 -84.1 -5.9 -84.8 -6.2;M196.55 132.55 Q235.3 188.85 232.6 236.25 223.85 366.4 325.05 460.65 331.3 466.65 342.4 470.15 369.3 480.5 400.55 464.05 419.9 454.1 431.85 435.8 439.5 425.65 447.8 416.45 467.3 398.05 492.0 384.15 493.45 368.55 487.25 348.45 477.0 317.05 463.1 284.5 442.65 233.8 403.25 211.4 339.45 177.35 276.1 167.55 265.25 164.05 260.45 160.4 224.75 139.25 196.55 132.55"/>
    </path>
    <path d="M-84.8 -6.2 Q-84.1 -5.9 -83.4 -5.6 -83.25 -5.55 -83.05 -5.45 -81.65 -5.25 -80.25 -4.45 -79.4 -4.0 -78.9 -2.85 -78.65 -2.15 -78.35 -1.45 -78.3 -1.05 -78.25 -0.65 -78.75 -0.3 -79.25 0.05 -79.4 0.25 -79.6 0.5 -79.85 0.9 -80.3 1.1 -80.9 1.15 -81.55 1.25 -81.75 1.15 -81.95 1.05 -84.2 -1.05 -84.0 -3.9 -83.95 -5.0 -84.8 -6.2" fill="none" stroke="#000000" stroke-linecap="round" stroke-linejoin="round" stroke-opacity="0.0" stroke-width="1.0">
      <animate attributeName="stroke" dur="2s" repeatCount="indefinite" values="#000000;#000001"/>
      <animate attributeName="stroke-width" dur="2s" repeatCount="indefinite" values="0.0;0.0"/>
      <animate attributeName="fill-opacity" dur="2s" repeatCount="indefinite" values="0.0;0.0"/>
      <animate attributeName="d" dur="2s" repeatCount="indefinite" values="M-84.8 -6.2 Q-84.1 -5.9 -83.4 -5.6 -83.25 -5.55 -83.05 -5.45 -81.65 -5.25 -80.25 -4.45 -79.4 -4.0 -78.9 -2.85 -78.65 -2.15 -78.35 -1.45 -78.3 -1.05 -78.25 -0.65 -78.75 -0.3 -79.25 0.05 -79.4 0.25 -79.6 0.5 -79.85 0.9 -80.3 1.1 -80.9 1.15 -81.55 1.25 -81.75 1.15 -81.95 1.05 -84.2 -1.05 -84.0 -3.9 -83.95 -5.0 -84.8 -6.2;M196.55 132.55 Q224.75 139.25 260.45 160.4 265.25 164.05 276.1 167.55 339.45 177.35 403.25 211.4 442.65 233.8 463.1 284.5 477.0 317.05 487.25 348.45 493.45 368.55 492.0 384.15 467.3 398.05 447.8 416.45 439.5 425.65 431.85 435.8 419.9 454.1 400.55 464.05 369.3 480.5 342.4 470.15 331.3 466.65 325.05 460.65 223.85 366.4 232.6 236.25 235.3 188.85 196.55 132.55"/>
    </path>
  </g>
  <defs>
    <radialGradient cx="0" cy="0" gradientTransform="matrix(-0.0066, 0.0034, -0.0034, -0.0066, -82.6, -4.0)" gradientUnits="userSpaceOnUse" id="gradient0" r="819.2" spreadMethod="pad">
      <animateTransform additive="replace" attributeName="gradientTransform" dur="2s" from="1" repeatCount="indefinite" to="1" type="scale"/>
      <animateTransform additive="sum" attributeName="gradientTransform" dur="2s" from="-82.6 -4.0" repeatCount="indefinite" to="295.5 233.85" type="translate"/>
      <animateTransform additive="sum" attributeName="gradientTransform" dur="2s" from="152.4381" repeatCount="indefinite" to="152.4133" type="rotate"/>
      <animateTransform additive="sum" attributeName="gradientTransform" dur="2s" from="0.0075 0.0075" repeatCount="indefinite" to="0.3383 0.3383" type="scale"/>
      <animateTransform additive="sum" attributeName="gradientTransform" dur="2s" from="0.0" repeatCount="indefinite" to="0.0" type="skewX"/>
      <stop offset="0.5215686274509804" stop-color="#ffffff">
        <animate attributeName="offset" dur="2s" repeatCount="indefinite" values="0.5215686274509804;0.5215686274509804"/>
        <animate attributeName="stop-color" dur="2s" repeatCount="indefinite" values="#ffffff;#ffffff"/>
        <animate attributeName="stop-opacity" dur="2s" repeatCount="indefinite" values="1.0;1.0"/>
      </stop>
      <stop offset="1.0" stop-color="#c11a02">
        <animate attributeName="offset" dur="2s" repeatCount="indefinite" values="1.0;1.0"/>
        <animate attributeName="stop-color" dur="2s" repeatCount="indefinite" values="#c11a02;#c11a03"/>
        <animate attributeName="stop-opacity" dur="2s" repeatCount="indefinite" values="1.0;1.0"/>
      </stop>
    </radialGradient>
  </defs>
</svg>
