<?xml version="1.0" encoding="UTF-8" standalone="no"?>
<svg xmlns:xlink="http://www.w3.org/1999/xlink" height="367.35px" width="607.75px" xmlns="http://www.w3.org/2000/svg">
  <g transform="matrix(1.0, 0.0, 0.0, 1.0, 84.55, 370.95)">
    <path d="M-84.55 -6.3 Q-83.5 -6.45 -82.45 -6.55 -81.7 -6.55 -80.8 -5.65 -80.05 -4.8 -79.15 -4.3 -78.4 -3.95 -77.7 -3.6 -77.0 -3.85 -76.45 -4.55 L-76.25 -4.8 Q-75.8 -5.5 -75.75 -6.25 -75.75 -6.85 -76.55 -7.45 -77.3 -7.95 -78.05 -8.45 -78.35 -8.6 -78.6 -8.7 -80.65 -9.0 -82.2 -8.25 -82.95 -7.65 -83.65 -7.1 -83.8 -7.0 -83.9 -6.9 -84.25 -6.6 -84.55 -6.3" fill="url(#gradient0)" fill-rule="evenodd" stroke="none">
      <animate attributeName="d" dur="2s" repeatCount="indefinite" values="M-84.55 -6.3 Q-83.5 -6.45 -82.45 -6.55 -81.7 -6.55 -80.8 -5.65 -80.05 -4.8 -79.15 -4.3 -78.4 -3.95 -77.7 -3.6 -77.0 -3.85 -76.45 -4.55 L-76.25 -4.8 Q-75.8 -5.5 -75.75 -6.25 -75.75 -6.85 -76.55 -7.45 -77.3 -7.95 -78.05 -8.45 -78.35 -8.6 -78.6 -8.7 -80.65 -9.0 -82.2 -8.25 -82.95 -7.65 -83.65 -7.1 -83.8 -7.0 -83.9 -6.9 -84.25 -6.6 -84.55 -6.3;M124.0 -257.7 Q169.0 -273.05 219.55 -269.6 254.25 -268.7 294.35 -227.75 330.3 -190.4 368.8 -168.6 402.05 -147.4 436.1 -134.95 466.7 -147.0 492.2 -178.15 L500.05 -189.35 Q522.35 -220.2 523.15 -254.95 524.75 -282.05 487.8 -309.7 454.85 -333.9 420.15 -355.95 409.8 -364.7 394.3 -367.15 302.55 -380.7 230.4 -345.75 195.2 -329.15 165.45 -293.75 159.85 -291.4 154.6 -285.25 138.05 -274.25 124.0 -257.7"/>
    </path>
    <path d="M-84.55 -6.3 Q-84.25 -6.6 -83.9 -6.9 -83.8 -7.0 -83.65 -7.1 -82.95 -7.65 -82.2 -8.25 -80.65 -9.0 -78.6 -8.7 -78.35 -8.6 -78.05 -8.45 -77.3 -7.95 -76.55 -7.45 -75.75 -6.85 -75.75 -6.25 -75.8 -5.5 -76.25 -4.8 L-76.45 -4.55 Q-77.0 -3.85 -77.7 -3.6 -78.4 -3.95 -79.15 -4.3 -80.05 -4.8 -80.8 -5.65 -81.7 -6.55 -82.45 -6.55 -83.5 -6.45 -84.55 -6.3" fill="none" stroke="#000000" stroke-linecap="round" stroke-linejoin="round" stroke-opacity="0.0" stroke-width="1.0">
      <animate attributeName="stroke" dur="2s" repeatCount="indefinite" values="#000000;#000001"/>
      <animate attributeName="stroke-width" dur="2s" repeatCount="indefinite" values="0.0;0.0"/>
      <animate attributeName="fill-opacity" dur="2s" repeatCount="indefinite" values="0.0;0.0"/>
      <animate attributeName="d" dur="2s" repeatCount="indefinite" values="M-84.55 -6.3 Q-84.25 -6.6 -83.9 -6.9 -83.8 -7.0 -83.65 -7.1 -82.95 -7.65 -82.2 -8.25 -80.65 -9.0 -78.6 -8.7 -78.35 -8.6 -78.05 -8.45 -77.3 -7.95 -76.55 -7.45 -75.75 -6.85 -75.75 -6.25 -75.8 -5.5 -76.25 -4.8 L-76.45 -4.55 Q-77.0 -3.85 -77.7 -3.6 -78.4 -3.95 -79.15 -4.3 -80.05 -4.8 -80.8 -5.65 -81.7 -6.55 -82.45 -6.55 -83.5 -6.45 -84.55 -6.3;M124.0 -257.7 Q138.05 -274.25 154.6 -285.25 159.85 -291.4 165.45 -293.75 195.2 -329.15 230.4 -345.75 302.55 -380.7 394.3 -367.15 409.8 -364.7 420.15 -355.95 454.85 -333.9 487.8 -309.7 524.75 -282.05 523.15 -254.95 522.35 -220.2 500.05 -189.35 L492.2 -178.15 Q466.7 -147.0 436.1 -134.95 402.05 -147.4 368.8 -168.6 330.3 -190.4 294.35 -227.75 254.25 -268.7 219.55 -269.6 169.0 -273.05 124.0 -257.7"/>
    </path>
  </g>
  <defs>
    <radialGradient cx="0" cy="0" gradientTransform="matrix(-0.006, -0.0051, 0.0051, -0.006, -81.65, -6.95)" gradientUnits="userSpaceOnUse" id="gradient0" r="819.2" spreadMethod="pad">
      <animateTransform additive="replace" attributeName="gradientTransform" dur="2s" from="1" repeatCount="indefinite" to="1" type="scale"/>
      <animateTransform additive="sum" attributeName="gradientTransform" dur="2s" from="-81.65 -6.95" repeatCount="indefinite" to="256.25 -287.95" type="translate"/>
      <animateTransform additive="sum" attributeName="gradientTransform" dur="2s" from="-139.8227" repeatCount="indefinite" to="-139.8641" type="rotate"/>
      <animateTransform additive="sum" attributeName="gradientTransform" dur="2s" from="0.0078 0.0078" repeatCount="indefinite" to="0.3548 0.3548" type="scale"/>
      <animateTransform additive="sum" attributeName="gradientTransform" dur="2s" from="0.0" repeatCount="indefinite" to="0.0" type="skewX"/>
      <stop offset="0.5215686274509804" stop-color="#ffffff">
        <animate attributeName="offset" dur="2s" repeatCount="indefinite" values="0.5215686274509804;0.5215686274509804"/>
        <animate attributeName="stop-color" dur="2s" repeatCount="indefinite" values="#ffffff;#ffffff"/>
        <animate attributeName="stop-opacity" dur="2s" repeatCount="indefinite" values="1.0;1.0"/>
      </stop>
      <stop offset="1.0" stop-color="#c11a02">
        <animate attributeName="offset" dur="2s" repeatCount="indefinite" values="1.0;1.0"/>
        <animate attributeName="stop-color" dur="2s" repeatCount="indefinite" values="#c11a02;#c11a03"/>
        <animate attributeName="stop-opacity" dur="2s" repeatCount="indefinite" values="1.0;1.0"/>
      </stop>
    </radialGradient>
  </defs>
</svg>
