<?xml version="1.0" encoding="UTF-8" standalone="no"?>
<svg xmlns:xlink="http://www.w3.org/1999/xlink" height="10.65px" width="12.4px" xmlns="http://www.w3.org/2000/svg">
  <g transform="matrix(1.0, 0.0, 0.0, 1.0, 30.0, 3.65)">
    <path d="M-26.3 1.9 Q-26.3 2.65 -25.8 3.15 -25.3 3.65 -24.6 3.65 -23.7 3.65 -23.1 3.0 -22.45 2.35 -22.9 0.25 L-25.65 0.4 Q-26.3 1.05 -26.3 1.9 M-30.0 2.4 Q-30.0 4.35 -28.75 5.7 -27.55 7.0 -25.6 7.0 -23.7 7.0 -22.5 5.9 -22.4 6.75 -21.1 6.75 L-19.55 6.75 Q-18.6 6.75 -18.1 6.15 -17.6 5.6 -17.6 4.65 -17.6 3.95 -17.95 3.7 L-18.9 3.25 -18.75 1.2 Q-18.75 -0.95 -20.1 -2.3 -21.5 -3.65 -23.65 -3.65 -26.3 -3.65 -28.15 -1.95 -30.0 -0.2 -30.0 2.4" fill="url(#gradient0)" fill-rule="evenodd" stroke="none">
      <animate attributeName="d" dur="2s" repeatCount="indefinite" values="M-26.3 1.9 Q-26.3 2.65 -25.8 3.15 -25.3 3.65 -24.6 3.65 -23.7 3.65 -23.1 3.0 -22.45 2.35 -22.9 0.25 L-25.65 0.4 Q-26.3 1.05 -26.3 1.9 M-30.0 2.4 Q-30.0 4.35 -28.75 5.7 -27.55 7.0 -25.6 7.0 -23.7 7.0 -22.5 5.9 -22.4 6.75 -21.1 6.75 L-19.55 6.75 Q-18.6 6.75 -18.1 6.15 -17.6 5.6 -17.6 4.65 -17.6 3.95 -17.95 3.7 L-18.9 3.25 -18.75 1.2 Q-18.75 -0.95 -20.1 -2.3 -21.5 -3.65 -23.65 -3.65 -26.3 -3.65 -28.15 -1.95 -30.0 -0.2 -30.0 2.4;M-26.3 1.9 Q-26.3 2.65 -25.8 3.15 -25.3 3.65 -24.6 3.65 -23.7 3.65 -23.1 3.0 -22.45 2.35 -22.9 0.25 L-25.65 0.4 Q-26.3 1.05 -26.3 1.9 M-30.0 2.4 Q-30.0 4.35 -28.75 5.7 -27.55 7.0 -25.6 7.0 -23.7 7.0 -22.5 5.9 -22.4 6.75 -21.1 6.75 L-19.55 6.75 Q-18.6 6.75 -18.1 6.15 -17.6 5.6 -17.6 4.65 -17.6 3.95 -17.95 3.7 L-18.9 3.25 -18.75 1.2 Q-18.75 -0.95 -20.1 -2.3 -21.5 -3.65 -23.65 -3.65 -26.3 -3.65 -28.15 -1.95 -30.0 -0.2 -30.0 2.4"/>
    </path>
    <path d="M-30.0 2.4 Q-30.0 -0.2 -28.15 -1.95 -26.3 -3.65 -23.65 -3.65 -21.5 -3.65 -20.1 -2.3 -18.75 -0.95 -18.75 1.2 L-18.9 3.25 -17.95 3.7 Q-17.6 3.95 -17.6 4.65 -17.6 5.6 -18.1 6.15 -18.6 6.75 -19.55 6.75 L-21.1 6.75 Q-22.4 6.75 -22.5 5.9 -23.7 7.0 -25.6 7.0 -27.55 7.0 -28.75 5.7 -30.0 4.35 -30.0 2.4 M-26.3 1.9 Q-26.3 1.05 -25.65 0.4 L-22.9 0.25 Q-22.45 2.35 -23.1 3.0 -23.7 3.65 -24.6 3.65 -25.3 3.65 -25.8 3.15 -26.3 2.65 -26.3 1.9" fill="none" stroke="#000000" stroke-linecap="round" stroke-linejoin="round" stroke-opacity="0.0" stroke-width="1.0">
      <animate attributeName="stroke" dur="2s" repeatCount="indefinite" values="#000000;#000001"/>
      <animate attributeName="stroke-width" dur="2s" repeatCount="indefinite" values="0.0;0.0"/>
      <animate attributeName="fill-opacity" dur="2s" repeatCount="indefinite" values="0.0;0.0"/>
      <animate attributeName="d" dur="2s" repeatCount="indefinite" values="M-30.0 2.4 Q-30.0 -0.2 -28.15 -1.95 -26.3 -3.65 -23.65 -3.65 -21.5 -3.65 -20.1 -2.3 -18.75 -0.95 -18.75 1.2 L-18.9 3.25 -17.95 3.7 Q-17.6 3.95 -17.6 4.65 -17.6 5.6 -18.1 6.15 -18.6 6.75 -19.55 6.75 L-21.1 6.75 Q-22.4 6.75 -22.5 5.9 -23.7 7.0 -25.6 7.0 -27.55 7.0 -28.75 5.7 -30.0 4.35 -30.0 2.4 M-26.3 1.9 Q-26.3 1.05 -25.65 0.4 L-22.9 0.25 Q-22.45 2.35 -23.1 3.0 -23.7 3.65 -24.6 3.65 -25.3 3.65 -25.8 3.15 -26.3 2.65 -26.3 1.9;M-30.0 2.4 Q-30.0 -0.2 -28.15 -1.95 -26.3 -3.65 -23.65 -3.65 -21.5 -3.65 -20.1 -2.3 -18.75 -0.95 -18.75 1.2 L-18.9 3.25 -17.95 3.7 Q-17.6 3.95 -17.6 4.65 -17.6 5.6 -18.1 6.15 -18.6 6.75 -19.55 6.75 L-21.1 6.75 Q-22.4 6.75 -22.5 5.9 -23.7 7.0 -25.6 7.0 -27.55 7.0 -28.75 5.7 -30.0 4.35 -30.0 2.4 M-26.3 1.9 Q-26.3 1.05 -25.65 0.4 L-22.9 0.25 Q-22.45 2.35 -23.1 3.0 -23.7 3.65 -24.6 3.65 -25.3 3.65 -25.8 3.15 -26.3 2.65 -26.3 1.9"/>
    </path>
  </g>
  <defs>
    <radialGradient cx="0" cy="0" gradientTransform="matrix(0.0096, 0.0, 0.0, 0.0096, -23.8, 1.7)" gradientUnits="userSpaceOnUse" id="gradient0" r="819.2" spreadMethod="pad">
      <animateTransform additive="replace" attributeName="gradientTransform" dur="2s" from="1" repeatCount="indefinite" to="1" type="scale"/>
      <animateTransform additive="sum" attributeName="gradientTransform" dur="2s" from="-23.8 1.7" repeatCount="indefinite" to="-23.8 1.7" type="translate"/>
      <animateTransform additive="sum" attributeName="gradientTransform" dur="2s" from="0.0" repeatCount="indefinite" to="0.0" type="rotate"/>
      <animateTransform additive="sum" attributeName="gradientTransform" dur="2s" from="0.0096 0.0096" repeatCount="indefinite" to="0.0096 0.0096" type="scale"/>
      <animateTransform additive="sum" attributeName="gradientTransform" dur="2s" from="0.0" repeatCount="indefinite" to="0.0" type="skewX"/>
      <stop offset="0.0" stop-color="#009900">
        <animate attributeName="offset" dur="2s" repeatCount="indefinite" values="0.0;0.0"/>
        <animate attributeName="stop-color" dur="2s" repeatCount="indefinite" values="#009900;#0a970a"/>
        <animate attributeName="stop-opacity" dur="2s" repeatCount="indefinite" values="1.0;1.0"/>
      </stop>
      <stop offset="0.5764705882352941" stop-color="#009900">
        <animate attributeName="offset" dur="2s" repeatCount="indefinite" values="0.5764705882352941;0.5764705882352941"/>
        <animate attributeName="stop-color" dur="2s" repeatCount="indefinite" values="#009900;#52d863"/>
        <animate attributeName="stop-opacity" dur="2s" repeatCount="indefinite" values="1.0;1.0"/>
      </stop>
      <stop offset="1.0" stop-color="#009900">
        <animate attributeName="offset" dur="2s" repeatCount="indefinite" values="1.0;1.0"/>
        <animate attributeName="stop-color" dur="2s" repeatCount="indefinite" values="#009900;#ffffff"/>
        <animate attributeName="stop-opacity" dur="2s" repeatCount="indefinite" values="1.0;1.0"/>
      </stop>
    </radialGradient>
  </defs>
</svg>
