<?xml version="1.0" encoding="UTF-8" standalone="no"?>
<svg xmlns:xlink="http://www.w3.org/1999/xlink" height="10.4px" width="10.2px" xmlns="http://www.w3.org/2000/svg">
  <g transform="matrix(1.0, 0.0, 0.0, 1.0, 40.35, 3.65)">
    <path d="M-40.35 5.15 L-39.9 6.3 Q-39.4 6.75 -38.75 6.75 L-36.9 6.75 Q-36.0 6.75 -35.4 6.25 -34.8 5.75 -34.8 4.85 -34.8 3.4 -36.45 3.3 L-36.2 1.05 Q-35.9 -0.2 -34.85 -0.2 -34.25 -0.2 -33.85 0.55 L-33.35 1.85 Q-32.95 2.6 -32.05 2.6 -31.25 2.6 -30.7 2.0 -30.15 1.4 -30.15 0.55 -30.15 -1.25 -31.45 -2.45 -32.7 -3.65 -34.55 -3.65 -36.75 -3.65 -38.25 -2.25 -39.75 -0.85 -39.95 1.4 L-40.1 2.9 -40.35 5.15" fill="url(#gradient0)" fill-rule="evenodd" stroke="none">
      <animate attributeName="d" dur="2s" repeatCount="indefinite" values="M-40.35 5.15 L-39.9 6.3 Q-39.4 6.75 -38.75 6.75 L-36.9 6.75 Q-36.0 6.75 -35.4 6.25 -34.8 5.75 -34.8 4.85 -34.8 3.4 -36.45 3.3 L-36.2 1.05 Q-35.9 -0.2 -34.85 -0.2 -34.25 -0.2 -33.85 0.55 L-33.35 1.85 Q-32.95 2.6 -32.05 2.6 -31.25 2.6 -30.7 2.0 -30.15 1.4 -30.15 0.55 -30.15 -1.25 -31.45 -2.45 -32.7 -3.65 -34.55 -3.65 -36.75 -3.65 -38.25 -2.25 -39.75 -0.85 -39.95 1.4 L-40.1 2.9 -40.35 5.15;M-40.35 5.15 L-39.9 6.3 Q-39.4 6.75 -38.75 6.75 L-36.9 6.75 Q-36.0 6.75 -35.4 6.25 -34.8 5.75 -34.8 4.85 -34.8 3.4 -36.45 3.3 L-36.2 1.05 Q-35.9 -0.2 -34.85 -0.2 -34.25 -0.2 -33.85 0.55 L-33.35 1.85 Q-32.95 2.6 -32.05 2.6 -31.25 2.6 -30.7 2.0 -30.15 1.4 -30.15 0.55 -30.15 -1.25 -31.45 -2.45 -32.7 -3.65 -34.55 -3.65 -36.75 -3.65 -38.25 -2.25 -39.75 -0.85 -39.95 1.4 L-40.1 2.9 -40.35 5.15"/>
    </path>
    <path d="M-40.35 5.15 L-40.1 2.9 -39.95 1.4 Q-39.75 -0.85 -38.25 -2.25 -36.75 -3.65 -34.55 -3.65 -32.7 -3.65 -31.45 -2.45 -30.15 -1.25 -30.15 0.55 -30.15 1.4 -30.7 2.0 -31.25 2.6 -32.05 2.6 -32.95 2.6 -33.35 1.85 L-33.85 0.55 Q-34.25 -0.2 -34.85 -0.2 -35.9 -0.2 -36.2 1.05 L-36.45 3.3 Q-34.8 3.4 -34.8 4.85 -34.8 5.75 -35.4 6.25 -36.0 6.75 -36.9 6.75 L-38.75 6.75 Q-39.4 6.75 -39.9 6.3 L-40.35 5.15" fill="none" stroke="#000000" stroke-linecap="round" stroke-linejoin="round" stroke-opacity="0.0" stroke-width="1.0">
      <animate attributeName="stroke" dur="2s" repeatCount="indefinite" values="#000000;#000001"/>
      <animate attributeName="stroke-width" dur="2s" repeatCount="indefinite" values="0.0;0.0"/>
      <animate attributeName="fill-opacity" dur="2s" repeatCount="indefinite" values="0.0;0.0"/>
      <animate attributeName="d" dur="2s" repeatCount="indefinite" values="M-40.35 5.15 L-40.1 2.9 -39.95 1.4 Q-39.75 -0.85 -38.25 -2.25 -36.75 -3.65 -34.55 -3.65 -32.7 -3.65 -31.45 -2.45 -30.15 -1.25 -30.15 0.55 -30.15 1.4 -30.7 2.0 -31.25 2.6 -32.05 2.6 -32.95 2.6 -33.35 1.85 L-33.85 0.55 Q-34.25 -0.2 -34.85 -0.2 -35.9 -0.2 -36.2 1.05 L-36.45 3.3 Q-34.8 3.4 -34.8 4.85 -34.8 5.75 -35.4 6.25 -36.0 6.75 -36.9 6.75 L-38.75 6.75 Q-39.4 6.75 -39.9 6.3 L-40.35 5.15;M-40.35 5.15 L-40.1 2.9 -39.95 1.4 Q-39.75 -0.85 -38.25 -2.25 -36.75 -3.65 -34.55 -3.65 -32.7 -3.65 -31.45 -2.45 -30.15 -1.25 -30.15 0.55 -30.15 1.4 -30.7 2.0 -31.25 2.6 -32.05 2.6 -32.95 2.6 -33.35 1.85 L-33.85 0.55 Q-34.25 -0.2 -34.85 -0.2 -35.9 -0.2 -36.2 1.05 L-36.45 3.3 Q-34.8 3.4 -34.8 4.85 -34.8 5.75 -35.4 6.25 -36.0 6.75 -36.9 6.75 L-38.75 6.75 Q-39.4 6.75 -39.9 6.3 L-40.35 5.15"/>
    </path>
  </g>
  <defs>
    <radialGradient cx="0" cy="0" gradientTransform="matrix(0.0087, 0.0, 0.0, 0.0087, -35.25, 1.55)" gradientUnits="userSpaceOnUse" id="gradient0" r="819.2" spreadMethod="pad">
      <animateTransform additive="replace" attributeName="gradientTransform" dur="2s" from="1" repeatCount="indefinite" to="1" type="scale"/>
      <animateTransform additive="sum" attributeName="gradientTransform" dur="2s" from="-35.25 1.55" repeatCount="indefinite" to="-35.25 1.55" type="translate"/>
      <animateTransform additive="sum" attributeName="gradientTransform" dur="2s" from="0.0" repeatCount="indefinite" to="0.0" type="rotate"/>
      <animateTransform additive="sum" attributeName="gradientTransform" dur="2s" from="0.0087 0.0087" repeatCount="indefinite" to="0.0087 0.0087" type="scale"/>
      <animateTransform additive="sum" attributeName="gradientTransform" dur="2s" from="0.0" repeatCount="indefinite" to="0.0" type="skewX"/>
      <stop offset="0.0" stop-color="#009900">
        <animate attributeName="offset" dur="2s" repeatCount="indefinite" values="0.0;0.0"/>
        <animate attributeName="stop-color" dur="2s" repeatCount="indefinite" values="#009900;#0a970a"/>
        <animate attributeName="stop-opacity" dur="2s" repeatCount="indefinite" values="1.0;1.0"/>
      </stop>
      <stop offset="0.5764705882352941" stop-color="#009900">
        <animate attributeName="offset" dur="2s" repeatCount="indefinite" values="0.5764705882352941;0.5764705882352941"/>
        <animate attributeName="stop-color" dur="2s" repeatCount="indefinite" values="#009900;#52d863"/>
        <animate attributeName="stop-opacity" dur="2s" repeatCount="indefinite" values="1.0;1.0"/>
      </stop>
      <stop offset="1.0" stop-color="#009900">
        <animate attributeName="offset" dur="2s" repeatCount="indefinite" values="1.0;1.0"/>
        <animate attributeName="stop-color" dur="2s" repeatCount="indefinite" values="#009900;#ffffff"/>
        <animate attributeName="stop-opacity" dur="2s" repeatCount="indefinite" values="1.0;1.0"/>
      </stop>
    </radialGradient>
  </defs>
</svg>
