<?xml version="1.0" encoding="UTF-8" standalone="no"?>
<svg xmlns:xlink="http://www.w3.org/1999/xlink" height="10.75px" width="11.15px" xmlns="http://www.w3.org/2000/svg">
  <g transform="matrix(1.0, 0.0, 0.0, 1.0, -9.85, 3.7)">
    <path d="M9.85 2.4 Q9.85 4.6 11.4 5.85 12.8 7.05 15.0 7.05 17.3 7.05 18.9 5.8 20.1 4.85 20.1 3.95 20.1 3.3 19.65 2.85 L18.55 2.45 Q18.2 2.45 17.15 3.0 L15.55 3.6 Q14.8 3.6 14.3 3.1 13.85 2.6 13.85 1.85 13.85 1.0 14.45 0.35 15.0 -0.25 15.9 -0.25 16.65 -0.25 17.1 0.2 L17.75 1.15 Q18.2 1.65 18.9 1.65 19.7 1.65 20.2 1.15 20.7 0.65 20.8 -0.1 L21.0 -2.3 Q21.0 -3.7 19.4 -3.7 18.6 -3.7 18.15 -3.05 L18.1 -2.95 Q17.25 -3.7 15.75 -3.7 13.25 -3.7 11.55 -1.9 9.85 -0.1 9.85 2.4" fill="url(#gradient0)" fill-rule="evenodd" stroke="none">
      <animate attributeName="d" dur="2s" repeatCount="indefinite" values="M9.85 2.4 Q9.85 4.6 11.4 5.85 12.8 7.05 15.0 7.05 17.3 7.05 18.9 5.8 20.1 4.85 20.1 3.95 20.1 3.3 19.65 2.85 L18.55 2.45 Q18.2 2.45 17.15 3.0 L15.55 3.6 Q14.8 3.6 14.3 3.1 13.85 2.6 13.85 1.85 13.85 1.0 14.45 0.35 15.0 -0.25 15.9 -0.25 16.65 -0.25 17.1 0.2 L17.75 1.15 Q18.2 1.65 18.9 1.65 19.7 1.65 20.2 1.15 20.7 0.65 20.8 -0.1 L21.0 -2.3 Q21.0 -3.7 19.4 -3.7 18.6 -3.7 18.15 -3.05 L18.1 -2.95 Q17.25 -3.7 15.75 -3.7 13.25 -3.7 11.55 -1.9 9.85 -0.1 9.85 2.4;M9.85 2.4 Q9.85 4.6 11.4 5.85 12.8 7.05 15.0 7.05 17.3 7.05 18.9 5.8 20.1 4.85 20.1 3.95 20.1 3.3 19.65 2.85 L18.55 2.45 Q18.2 2.45 17.15 3.0 L15.55 3.6 Q14.8 3.6 14.3 3.1 13.85 2.6 13.85 1.85 13.85 1.0 14.45 0.35 15.0 -0.25 15.9 -0.25 16.65 -0.25 17.1 0.2 L17.75 1.15 Q18.2 1.65 18.9 1.65 19.7 1.65 20.2 1.15 20.7 0.65 20.8 -0.1 L21.0 -2.3 Q21.0 -3.7 19.4 -3.7 18.6 -3.7 18.15 -3.05 L18.1 -2.95 Q17.25 -3.7 15.75 -3.7 13.25 -3.7 11.55 -1.9 9.85 -0.1 9.85 2.4"/>
    </path>
    <path d="M9.85 2.4 Q9.85 -0.1 11.55 -1.9 13.25 -3.7 15.75 -3.7 17.25 -3.7 18.1 -2.95 L18.15 -3.05 Q18.6 -3.7 19.4 -3.7 21.0 -3.7 21.0 -2.3 L20.8 -0.1 Q20.7 0.65 20.2 1.15 19.7 1.65 18.9 1.65 18.2 1.65 17.75 1.15 L17.1 0.2 Q16.65 -0.25 15.9 -0.25 15.0 -0.25 14.45 0.35 13.85 1.0 13.85 1.85 13.85 2.6 14.3 3.1 14.8 3.6 15.55 3.6 L17.15 3.0 Q18.2 2.45 18.55 2.45 L19.65 2.85 Q20.1 3.3 20.1 3.95 20.1 4.85 18.9 5.8 17.3 7.05 15.0 7.05 12.8 7.05 11.4 5.85 9.85 4.6 9.85 2.4" fill="none" stroke="#000000" stroke-linecap="round" stroke-linejoin="round" stroke-opacity="0.0" stroke-width="1.0">
      <animate attributeName="stroke" dur="2s" repeatCount="indefinite" values="#000000;#000001"/>
      <animate attributeName="stroke-width" dur="2s" repeatCount="indefinite" values="0.0;0.0"/>
      <animate attributeName="fill-opacity" dur="2s" repeatCount="indefinite" values="0.0;0.0"/>
      <animate attributeName="d" dur="2s" repeatCount="indefinite" values="M9.85 2.4 Q9.85 -0.1 11.55 -1.9 13.25 -3.7 15.75 -3.7 17.25 -3.7 18.1 -2.95 L18.15 -3.05 Q18.6 -3.7 19.4 -3.7 21.0 -3.7 21.0 -2.3 L20.8 -0.1 Q20.7 0.65 20.2 1.15 19.7 1.65 18.9 1.65 18.2 1.65 17.75 1.15 L17.1 0.2 Q16.65 -0.25 15.9 -0.25 15.0 -0.25 14.45 0.35 13.85 1.0 13.85 1.85 13.85 2.6 14.3 3.1 14.8 3.6 15.55 3.6 L17.15 3.0 Q18.2 2.45 18.55 2.45 L19.65 2.85 Q20.1 3.3 20.1 3.95 20.1 4.85 18.9 5.8 17.3 7.05 15.0 7.05 12.8 7.05 11.4 5.85 9.85 4.6 9.85 2.4;M9.85 2.4 Q9.85 -0.1 11.55 -1.9 13.25 -3.7 15.75 -3.7 17.25 -3.7 18.1 -2.95 L18.15 -3.05 Q18.6 -3.7 19.4 -3.7 21.0 -3.7 21.0 -2.3 L20.8 -0.1 Q20.7 0.65 20.2 1.15 19.7 1.65 18.9 1.65 18.2 1.65 17.75 1.15 L17.1 0.2 Q16.65 -0.25 15.9 -0.25 15.0 -0.25 14.45 0.35 13.85 1.0 13.85 1.85 13.85 2.6 14.3 3.1 14.8 3.6 15.55 3.6 L17.15 3.0 Q18.2 2.45 18.55 2.45 L19.65 2.85 Q20.1 3.3 20.1 3.95 20.1 4.85 18.9 5.8 17.3 7.05 15.0 7.05 12.8 7.05 11.4 5.85 9.85 4.6 9.85 2.4"/>
    </path>
  </g>
  <defs>
    <radialGradient cx="0" cy="0" gradientTransform="matrix(0.0088, 0.0, 0.0, 0.0088, 15.45, 1.7)" gradientUnits="userSpaceOnUse" id="gradient0" r="819.2" spreadMethod="pad">
      <animateTransform additive="replace" attributeName="gradientTransform" dur="2s" from="1" repeatCount="indefinite" to="1" type="scale"/>
      <animateTransform additive="sum" attributeName="gradientTransform" dur="2s" from="15.45 1.7" repeatCount="indefinite" to="15.45 1.7" type="translate"/>
      <animateTransform additive="sum" attributeName="gradientTransform" dur="2s" from="0.0" repeatCount="indefinite" to="0.0" type="rotate"/>
      <animateTransform additive="sum" attributeName="gradientTransform" dur="2s" from="0.0088 0.0088" repeatCount="indefinite" to="0.0088 0.0088" type="scale"/>
      <animateTransform additive="sum" attributeName="gradientTransform" dur="2s" from="0.0" repeatCount="indefinite" to="0.0" type="skewX"/>
      <stop offset="0.0" stop-color="#0a9709">
        <animate attributeName="offset" dur="2s" repeatCount="indefinite" values="0.0;0.0"/>
        <animate attributeName="stop-color" dur="2s" repeatCount="indefinite" values="#0a9709;#009901"/>
        <animate attributeName="stop-opacity" dur="2s" repeatCount="indefinite" values="1.0;1.0"/>
      </stop>
      <stop offset="0.5764705882352941" stop-color="#52d862">
        <animate attributeName="offset" dur="2s" repeatCount="indefinite" values="0.5764705882352941;0.5764705882352941"/>
        <animate attributeName="stop-color" dur="2s" repeatCount="indefinite" values="#52d862;#009901"/>
        <animate attributeName="stop-opacity" dur="2s" repeatCount="indefinite" values="1.0;1.0"/>
      </stop>
      <stop offset="1.0" stop-color="#ffffff">
        <animate attributeName="offset" dur="2s" repeatCount="indefinite" values="1.0;1.0"/>
        <animate attributeName="stop-color" dur="2s" repeatCount="indefinite" values="#ffffff;#009901"/>
        <animate attributeName="stop-opacity" dur="2s" repeatCount="indefinite" values="1.0;1.0"/>
      </stop>
    </radialGradient>
  </defs>
</svg>
