<?xml version="1.0" encoding="UTF-8" standalone="no"?>
<svg xmlns:xlink="http://www.w3.org/1999/xlink" height="13.9px" width="10.2px" xmlns="http://www.w3.org/2000/svg">
  <g transform="matrix(1.0, 0.0, 0.0, 1.0, -43.15, 7.1)">
    <path d="M43.15 2.05 L43.15 2.6 Q43.15 4.45 44.35 5.65 45.55 6.8 47.45 6.8 49.45 6.8 51.1 5.45 52.85 4.0 52.85 2.0 52.85 1.35 52.45 0.9 52.0 0.45 51.35 0.45 50.4 0.45 49.85 1.25 L49.1 2.65 Q48.65 3.45 47.85 3.45 L47.15 3.15 Q46.85 2.85 46.85 2.45 L46.9 2.15 46.9 1.85 47.15 -0.4 51.3 -0.4 Q52.15 -0.4 52.75 -0.9 53.35 -1.35 53.35 -2.15 53.35 -2.85 52.9 -3.25 52.45 -3.6 51.75 -3.6 L47.45 -3.6 47.6 -5.35 Q47.6 -6.1 47.15 -6.6 46.7 -7.1 45.95 -7.1 45.1 -7.1 44.5 -6.45 44.0 -5.85 43.9 -4.95 L43.15 2.05" fill="url(#gradient0)" fill-rule="evenodd" stroke="none">
      <animate attributeName="d" dur="2s" repeatCount="indefinite" values="M43.15 2.05 L43.15 2.6 Q43.15 4.45 44.35 5.65 45.55 6.8 47.45 6.8 49.45 6.8 51.1 5.45 52.85 4.0 52.85 2.0 52.85 1.35 52.45 0.9 52.0 0.45 51.35 0.45 50.4 0.45 49.85 1.25 L49.1 2.65 Q48.65 3.45 47.85 3.45 L47.15 3.15 Q46.85 2.85 46.85 2.45 L46.9 2.15 46.9 1.85 47.15 -0.4 51.3 -0.4 Q52.15 -0.4 52.75 -0.9 53.35 -1.35 53.35 -2.15 53.35 -2.85 52.9 -3.25 52.45 -3.6 51.75 -3.6 L47.45 -3.6 47.6 -5.35 Q47.6 -6.1 47.15 -6.6 46.7 -7.1 45.95 -7.1 45.1 -7.1 44.5 -6.45 44.0 -5.85 43.9 -4.95 L43.15 2.05;M43.15 2.05 L43.15 2.6 Q43.15 4.45 44.35 5.65 45.55 6.8 47.45 6.8 49.45 6.8 51.1 5.45 52.85 4.0 52.85 2.0 52.85 1.35 52.45 0.9 52.0 0.45 51.35 0.45 50.4 0.45 49.85 1.25 L49.1 2.65 Q48.65 3.45 47.85 3.45 L47.15 3.15 Q46.85 2.85 46.85 2.45 L46.9 2.15 46.9 1.85 47.15 -0.4 51.3 -0.4 Q52.15 -0.4 52.75 -0.9 53.35 -1.35 53.35 -2.15 53.35 -2.85 52.9 -3.25 52.45 -3.6 51.75 -3.6 L47.45 -3.6 47.6 -5.35 Q47.6 -6.1 47.15 -6.6 46.7 -7.1 45.95 -7.1 45.1 -7.1 44.5 -6.45 44.0 -5.85 43.9 -4.95 L43.15 2.05"/>
    </path>
    <path d="M43.15 2.05 L43.9 -4.95 Q44.0 -5.85 44.5 -6.45 45.1 -7.1 45.95 -7.1 46.7 -7.1 47.15 -6.6 47.6 -6.1 47.6 -5.35 L47.45 -3.6 51.75 -3.6 Q52.45 -3.6 52.9 -3.25 53.35 -2.85 53.35 -2.15 53.35 -1.35 52.75 -0.9 52.15 -0.4 51.3 -0.4 L47.15 -0.4 46.9 1.85 46.9 2.15 46.85 2.45 Q46.85 2.85 47.15 3.15 L47.85 3.45 Q48.65 3.45 49.1 2.65 L49.85 1.25 Q50.4 0.45 51.35 0.45 52.0 0.45 52.45 0.9 52.85 1.35 52.85 2.0 52.85 4.0 51.1 5.45 49.45 6.8 47.45 6.8 45.55 6.8 44.35 5.65 43.15 4.45 43.15 2.6 L43.15 2.05" fill="none" stroke="#000000" stroke-linecap="round" stroke-linejoin="round" stroke-opacity="0.0" stroke-width="1.0">
      <animate attributeName="stroke" dur="2s" repeatCount="indefinite" values="#000000;#000001"/>
      <animate attributeName="stroke-width" dur="2s" repeatCount="indefinite" values="0.0;0.0"/>
      <animate attributeName="fill-opacity" dur="2s" repeatCount="indefinite" values="0.0;0.0"/>
      <animate attributeName="d" dur="2s" repeatCount="indefinite" values="M43.15 2.05 L43.9 -4.95 Q44.0 -5.85 44.5 -6.45 45.1 -7.1 45.95 -7.1 46.7 -7.1 47.15 -6.6 47.6 -6.1 47.6 -5.35 L47.45 -3.6 51.75 -3.6 Q52.45 -3.6 52.9 -3.25 53.35 -2.85 53.35 -2.15 53.35 -1.35 52.75 -0.9 52.15 -0.4 51.3 -0.4 L47.15 -0.4 46.9 1.85 46.9 2.15 46.85 2.45 Q46.85 2.85 47.15 3.15 L47.85 3.45 Q48.65 3.45 49.1 2.65 L49.85 1.25 Q50.4 0.45 51.35 0.45 52.0 0.45 52.45 0.9 52.85 1.35 52.85 2.0 52.85 4.0 51.1 5.45 49.45 6.8 47.45 6.8 45.55 6.8 44.35 5.65 43.15 4.45 43.15 2.6 L43.15 2.05;M43.15 2.05 L43.9 -4.95 Q44.0 -5.85 44.5 -6.45 45.1 -7.1 45.95 -7.1 46.7 -7.1 47.15 -6.6 47.6 -6.1 47.6 -5.35 L47.45 -3.6 51.75 -3.6 Q52.45 -3.6 52.9 -3.25 53.35 -2.85 53.35 -2.15 53.35 -1.35 52.75 -0.9 52.15 -0.4 51.3 -0.4 L47.15 -0.4 46.9 1.85 46.9 2.15 46.85 2.45 Q46.85 2.85 47.15 3.15 L47.85 3.45 Q48.65 3.45 49.1 2.65 L49.85 1.25 Q50.4 0.45 51.35 0.45 52.0 0.45 52.45 0.9 52.85 1.35 52.85 2.0 52.85 4.0 51.1 5.45 49.45 6.8 47.45 6.8 45.55 6.8 44.35 5.65 43.15 4.45 43.15 2.6 L43.15 2.05"/>
    </path>
  </g>
  <defs>
    <radialGradient cx="0" cy="0" gradientTransform="matrix(0.0098, 0.0, 0.0, 0.0098, 48.25, -0.15)" gradientUnits="userSpaceOnUse" id="gradient0" r="819.2" spreadMethod="pad">
      <animateTransform additive="replace" attributeName="gradientTransform" dur="2s" from="1" repeatCount="indefinite" to="1" type="scale"/>
      <animateTransform additive="sum" attributeName="gradientTransform" dur="2s" from="48.25 -0.15" repeatCount="indefinite" to="48.25 -0.15" type="translate"/>
      <animateTransform additive="sum" attributeName="gradientTransform" dur="2s" from="0.0" repeatCount="indefinite" to="0.0" type="rotate"/>
      <animateTransform additive="sum" attributeName="gradientTransform" dur="2s" from="0.0098 0.0098" repeatCount="indefinite" to="0.0098 0.0098" type="scale"/>
      <animateTransform additive="sum" attributeName="gradientTransform" dur="2s" from="0.0" repeatCount="indefinite" to="0.0" type="skewX"/>
      <stop offset="0.0" stop-color="#009900">
        <animate attributeName="offset" dur="2s" repeatCount="indefinite" values="0.0;0.0"/>
        <animate attributeName="stop-color" dur="2s" repeatCount="indefinite" values="#009900;#0a970a"/>
        <animate attributeName="stop-opacity" dur="2s" repeatCount="indefinite" values="1.0;1.0"/>
      </stop>
      <stop offset="0.5764705882352941" stop-color="#009900">
        <animate attributeName="offset" dur="2s" repeatCount="indefinite" values="0.5764705882352941;0.5764705882352941"/>
        <animate attributeName="stop-color" dur="2s" repeatCount="indefinite" values="#009900;#52d863"/>
        <animate attributeName="stop-opacity" dur="2s" repeatCount="indefinite" values="1.0;1.0"/>
      </stop>
      <stop offset="1.0" stop-color="#009900">
        <animate attributeName="offset" dur="2s" repeatCount="indefinite" values="1.0;1.0"/>
        <animate attributeName="stop-color" dur="2s" repeatCount="indefinite" values="#009900;#ffffff"/>
        <animate attributeName="stop-opacity" dur="2s" repeatCount="indefinite" values="1.0;1.0"/>
      </stop>
    </radialGradient>
  </defs>
</svg>
