<?xml version="1.0" encoding="UTF-8" standalone="no"?>
<svg xmlns:xlink="http://www.w3.org/1999/xlink" height="13.6px" width="12.15px" xmlns="http://www.w3.org/2000/svg">
  <g transform="matrix(1.0, 0.0, 0.0, 1.0, -8.5, 7.1)">
    <path d="M8.5 4.5 L8.5 5.0 Q8.5 5.7 8.95 6.1 9.4 6.5 10.05 6.5 L11.95 6.5 Q12.8 6.5 13.4 5.95 14.05 5.4 14.05 4.55 14.05 3.85 13.55 3.4 13.1 2.95 12.4 2.95 L12.85 -1.65 Q12.95 -2.55 13.6 -3.15 14.3 -3.7 15.2 -3.7 16.0 -3.7 16.45 -3.2 16.95 -2.65 16.95 -1.85 L16.9 -1.7 16.9 -1.6 16.45 3.0 Q15.6 3.0 15.0 3.5 14.4 4.05 14.4 4.9 14.4 5.6 14.9 6.05 15.4 6.5 16.1 6.5 L17.8 6.5 Q19.75 6.5 19.95 4.6 L20.65 -2.35 Q20.65 -4.45 19.15 -5.8 17.7 -7.1 15.55 -7.1 13.1 -7.1 11.25 -5.55 9.45 -4.0 9.15 -1.55 L8.5 4.5" fill="url(#gradient0)" fill-rule="evenodd" stroke="none">
      <animate attributeName="d" dur="2s" repeatCount="indefinite" values="M8.5 4.5 L8.5 5.0 Q8.5 5.7 8.95 6.1 9.4 6.5 10.05 6.5 L11.95 6.5 Q12.8 6.5 13.4 5.95 14.05 5.4 14.05 4.55 14.05 3.85 13.55 3.4 13.1 2.95 12.4 2.95 L12.85 -1.65 Q12.95 -2.55 13.6 -3.15 14.3 -3.7 15.2 -3.7 16.0 -3.7 16.45 -3.2 16.95 -2.65 16.95 -1.85 L16.9 -1.7 16.9 -1.6 16.45 3.0 Q15.6 3.0 15.0 3.5 14.4 4.05 14.4 4.9 14.4 5.6 14.9 6.05 15.4 6.5 16.1 6.5 L17.8 6.5 Q19.75 6.5 19.95 4.6 L20.65 -2.35 Q20.65 -4.45 19.15 -5.8 17.7 -7.1 15.55 -7.1 13.1 -7.1 11.25 -5.55 9.45 -4.0 9.15 -1.55 L8.5 4.5;M8.5 4.5 L8.5 5.0 Q8.5 5.7 8.95 6.1 9.4 6.5 10.05 6.5 L11.95 6.5 Q12.8 6.5 13.4 5.95 14.05 5.4 14.05 4.55 14.05 3.85 13.55 3.4 13.1 2.95 12.4 2.95 L12.85 -1.65 Q12.95 -2.55 13.6 -3.15 14.3 -3.7 15.2 -3.7 16.0 -3.7 16.45 -3.2 16.95 -2.65 16.95 -1.85 L16.9 -1.7 16.9 -1.6 16.45 3.0 Q15.6 3.0 15.0 3.5 14.4 4.05 14.4 4.9 14.4 5.6 14.9 6.05 15.4 6.5 16.1 6.5 L17.8 6.5 Q19.75 6.5 19.95 4.6 L20.65 -2.35 Q20.65 -4.45 19.15 -5.8 17.7 -7.1 15.55 -7.1 13.1 -7.1 11.25 -5.55 9.45 -4.0 9.15 -1.55 L8.5 4.5"/>
    </path>
    <path d="M8.5 4.5 L9.15 -1.55 Q9.45 -4.0 11.25 -5.55 13.1 -7.1 15.55 -7.1 17.7 -7.1 19.15 -5.8 20.65 -4.45 20.65 -2.35 L19.95 4.6 Q19.75 6.5 17.8 6.5 L16.1 6.5 Q15.4 6.5 14.9 6.05 14.4 5.6 14.4 4.9 14.4 4.05 15.0 3.5 15.6 3.0 16.45 3.0 L16.9 -1.6 16.9 -1.7 16.95 -1.85 Q16.95 -2.65 16.45 -3.2 16.0 -3.7 15.2 -3.7 14.3 -3.7 13.6 -3.15 12.95 -2.55 12.85 -1.65 L12.4 2.95 Q13.1 2.95 13.55 3.4 14.05 3.85 14.05 4.55 14.05 5.4 13.4 5.95 12.8 6.5 11.95 6.5 L10.05 6.5 Q9.4 6.5 8.95 6.1 8.5 5.7 8.5 5.0 L8.5 4.5" fill="none" stroke="#000000" stroke-linecap="round" stroke-linejoin="round" stroke-opacity="0.0" stroke-width="1.0">
      <animate attributeName="stroke" dur="2s" repeatCount="indefinite" values="#000000;#000001"/>
      <animate attributeName="stroke-width" dur="2s" repeatCount="indefinite" values="0.0;0.0"/>
      <animate attributeName="fill-opacity" dur="2s" repeatCount="indefinite" values="0.0;0.0"/>
      <animate attributeName="d" dur="2s" repeatCount="indefinite" values="M8.5 4.5 L9.15 -1.55 Q9.45 -4.0 11.25 -5.55 13.1 -7.1 15.55 -7.1 17.7 -7.1 19.15 -5.8 20.65 -4.45 20.65 -2.35 L19.95 4.6 Q19.75 6.5 17.8 6.5 L16.1 6.5 Q15.4 6.5 14.9 6.05 14.4 5.6 14.4 4.9 14.4 4.05 15.0 3.5 15.6 3.0 16.45 3.0 L16.9 -1.6 16.9 -1.7 16.95 -1.85 Q16.95 -2.65 16.45 -3.2 16.0 -3.7 15.2 -3.7 14.3 -3.7 13.6 -3.15 12.95 -2.55 12.85 -1.65 L12.4 2.95 Q13.1 2.95 13.55 3.4 14.05 3.85 14.05 4.55 14.05 5.4 13.4 5.95 12.8 6.5 11.95 6.5 L10.05 6.5 Q9.4 6.5 8.95 6.1 8.5 5.7 8.5 5.0 L8.5 4.5;M8.5 4.5 L9.15 -1.55 Q9.45 -4.0 11.25 -5.55 13.1 -7.1 15.55 -7.1 17.7 -7.1 19.15 -5.8 20.65 -4.45 20.65 -2.35 L19.95 4.6 Q19.75 6.5 17.8 6.5 L16.1 6.5 Q15.4 6.5 14.9 6.05 14.4 5.6 14.4 4.9 14.4 4.05 15.0 3.5 15.6 3.0 16.45 3.0 L16.9 -1.6 16.9 -1.7 16.95 -1.85 Q16.95 -2.65 16.45 -3.2 16.0 -3.7 15.2 -3.7 14.3 -3.7 13.6 -3.15 12.95 -2.55 12.85 -1.65 L12.4 2.95 Q13.1 2.95 13.55 3.4 14.05 3.85 14.05 4.55 14.05 5.4 13.4 5.95 12.8 6.5 11.95 6.5 L10.05 6.5 Q9.4 6.5 8.95 6.1 8.5 5.7 8.5 5.0 L8.5 4.5"/>
    </path>
  </g>
  <defs>
    <radialGradient cx="0" cy="0" gradientTransform="matrix(0.0109, 0.0, 0.0, 0.0109, 14.6, -0.3)" gradientUnits="userSpaceOnUse" id="gradient0" r="819.2" spreadMethod="pad">
      <animateTransform additive="replace" attributeName="gradientTransform" dur="2s" from="1" repeatCount="indefinite" to="1" type="scale"/>
      <animateTransform additive="sum" attributeName="gradientTransform" dur="2s" from="14.6 -0.3" repeatCount="indefinite" to="14.6 -0.3" type="translate"/>
      <animateTransform additive="sum" attributeName="gradientTransform" dur="2s" from="0.0" repeatCount="indefinite" to="0.0" type="rotate"/>
      <animateTransform additive="sum" attributeName="gradientTransform" dur="2s" from="0.0109 0.0109" repeatCount="indefinite" to="0.0109 0.0109" type="scale"/>
      <animateTransform additive="sum" attributeName="gradientTransform" dur="2s" from="0.0" repeatCount="indefinite" to="0.0" type="skewX"/>
      <stop offset="0.0" stop-color="#009900">
        <animate attributeName="offset" dur="2s" repeatCount="indefinite" values="0.0;0.0"/>
        <animate attributeName="stop-color" dur="2s" repeatCount="indefinite" values="#009900;#0a970a"/>
        <animate attributeName="stop-opacity" dur="2s" repeatCount="indefinite" values="1.0;1.0"/>
      </stop>
      <stop offset="0.5764705882352941" stop-color="#009900">
        <animate attributeName="offset" dur="2s" repeatCount="indefinite" values="0.5764705882352941;0.5764705882352941"/>
        <animate attributeName="stop-color" dur="2s" repeatCount="indefinite" values="#009900;#52d863"/>
        <animate attributeName="stop-opacity" dur="2s" repeatCount="indefinite" values="1.0;1.0"/>
      </stop>
      <stop offset="1.0" stop-color="#009900">
        <animate attributeName="offset" dur="2s" repeatCount="indefinite" values="1.0;1.0"/>
        <animate attributeName="stop-color" dur="2s" repeatCount="indefinite" values="#009900;#ffffff"/>
        <animate attributeName="stop-opacity" dur="2s" repeatCount="indefinite" values="1.0;1.0"/>
      </stop>
    </radialGradient>
  </defs>
</svg>
