<?xml version="1.0" encoding="UTF-8" standalone="no"?>
<svg xmlns:xlink="http://www.w3.org/1999/xlink" height="14.6px" width="13.0px" xmlns="http://www.w3.org/2000/svg">
  <g transform="matrix(1.0, 0.0, 0.0, 1.0, 26.7, 3.85)">
    <path d="M-22.55 1.1 Q-22.55 1.75 -22.15 2.15 -21.75 2.55 -21.15 2.55 -20.4 2.55 -19.9 2.05 -19.4 1.55 -19.75 -0.2 L-22.05 -0.15 Q-22.55 0.35 -22.55 1.1 M-26.7 7.55 Q-26.7 8.9 -24.85 9.9 -23.3 10.75 -21.8 10.75 -19.5 10.75 -18.0 9.3 -16.45 7.85 -16.2 5.6 L-15.6 -0.2 Q-14.8 -0.15 -14.25 -0.65 -13.7 -1.2 -13.7 -2.0 -13.7 -2.75 -14.25 -3.2 -14.75 -3.6 -15.55 -3.6 L-17.6 -3.6 -18.25 -3.45 -18.55 -2.95 Q-19.45 -3.85 -21.05 -3.85 -23.25 -3.85 -24.8 -2.3 -26.35 -0.7 -26.35 1.55 -26.35 3.3 -25.1 4.45 -23.9 5.6 -22.1 5.6 -20.65 5.6 -19.8 4.85 -19.8 5.8 -20.2 6.45 -20.7 7.25 -21.6 7.25 -22.2 7.25 -23.3 6.45 -24.35 5.65 -24.9 5.65 -25.6 5.65 -26.15 6.2 -26.7 6.8 -26.7 7.55" fill="url(#gradient0)" fill-rule="evenodd" stroke="none">
      <animate attributeName="d" dur="2s" repeatCount="indefinite" values="M-22.55 1.1 Q-22.55 1.75 -22.15 2.15 -21.75 2.55 -21.15 2.55 -20.4 2.55 -19.9 2.05 -19.4 1.55 -19.75 -0.2 L-22.05 -0.15 Q-22.55 0.35 -22.55 1.1 M-26.7 7.55 Q-26.7 8.9 -24.85 9.9 -23.3 10.75 -21.8 10.75 -19.5 10.75 -18.0 9.3 -16.45 7.85 -16.2 5.6 L-15.6 -0.2 Q-14.8 -0.15 -14.25 -0.65 -13.7 -1.2 -13.7 -2.0 -13.7 -2.75 -14.25 -3.2 -14.75 -3.6 -15.55 -3.6 L-17.6 -3.6 -18.25 -3.45 -18.55 -2.95 Q-19.45 -3.85 -21.05 -3.85 -23.25 -3.85 -24.8 -2.3 -26.35 -0.7 -26.35 1.55 -26.35 3.3 -25.1 4.45 -23.9 5.6 -22.1 5.6 -20.65 5.6 -19.8 4.85 -19.8 5.8 -20.2 6.45 -20.7 7.25 -21.6 7.25 -22.2 7.25 -23.3 6.45 -24.35 5.65 -24.9 5.65 -25.6 5.65 -26.15 6.2 -26.7 6.8 -26.7 7.55;M-22.55 1.1 Q-22.55 1.75 -22.15 2.15 -21.75 2.55 -21.15 2.55 -20.4 2.55 -19.9 2.05 -19.4 1.55 -19.75 -0.2 L-22.05 -0.15 Q-22.55 0.35 -22.55 1.1 M-26.7 7.55 Q-26.7 8.9 -24.85 9.9 -23.3 10.75 -21.8 10.75 -19.5 10.75 -18.0 9.3 -16.45 7.85 -16.2 5.6 L-15.6 -0.2 Q-14.8 -0.15 -14.25 -0.65 -13.7 -1.2 -13.7 -2.0 -13.7 -2.75 -14.25 -3.2 -14.75 -3.6 -15.55 -3.6 L-17.6 -3.6 -18.25 -3.45 -18.55 -2.95 Q-19.45 -3.85 -21.05 -3.85 -23.25 -3.85 -24.8 -2.3 -26.35 -0.7 -26.35 1.55 -26.35 3.3 -25.1 4.45 -23.9 5.6 -22.1 5.6 -20.65 5.6 -19.8 4.85 -19.8 5.8 -20.2 6.45 -20.7 7.25 -21.6 7.25 -22.2 7.25 -23.3 6.45 -24.35 5.65 -24.9 5.65 -25.6 5.65 -26.15 6.2 -26.7 6.8 -26.7 7.55"/>
    </path>
    <path d="M-26.7 7.55 Q-26.7 6.8 -26.15 6.2 -25.6 5.65 -24.9 5.65 -24.35 5.65 -23.3 6.45 -22.2 7.25 -21.6 7.25 -20.7 7.25 -20.2 6.45 -19.8 5.8 -19.8 4.85 -20.65 5.6 -22.1 5.6 -23.9 5.6 -25.1 4.45 -26.35 3.3 -26.35 1.55 -26.35 -0.7 -24.8 -2.3 -23.25 -3.85 -21.05 -3.85 -19.45 -3.85 -18.55 -2.95 L-18.25 -3.45 -17.6 -3.6 -15.55 -3.6 Q-14.75 -3.6 -14.25 -3.2 -13.7 -2.75 -13.7 -2.0 -13.7 -1.2 -14.25 -0.65 -14.8 -0.15 -15.6 -0.2 L-16.2 5.6 Q-16.45 7.85 -18.0 9.3 -19.5 10.75 -21.8 10.75 -23.3 10.75 -24.85 9.9 -26.7 8.9 -26.7 7.55 M-22.55 1.1 Q-22.55 0.35 -22.05 -0.15 L-19.75 -0.2 Q-19.4 1.55 -19.9 2.05 -20.4 2.55 -21.15 2.55 -21.75 2.55 -22.15 2.15 -22.55 1.75 -22.55 1.1" fill="none" stroke="#000000" stroke-linecap="round" stroke-linejoin="round" stroke-opacity="0.0" stroke-width="1.0">
      <animate attributeName="stroke" dur="2s" repeatCount="indefinite" values="#000000;#000001"/>
      <animate attributeName="stroke-width" dur="2s" repeatCount="indefinite" values="0.0;0.0"/>
      <animate attributeName="fill-opacity" dur="2s" repeatCount="indefinite" values="0.0;0.0"/>
      <animate attributeName="d" dur="2s" repeatCount="indefinite" values="M-26.7 7.55 Q-26.7 6.8 -26.15 6.2 -25.6 5.65 -24.9 5.65 -24.35 5.65 -23.3 6.45 -22.2 7.25 -21.6 7.25 -20.7 7.25 -20.2 6.45 -19.8 5.8 -19.8 4.85 -20.65 5.6 -22.1 5.6 -23.9 5.6 -25.1 4.45 -26.35 3.3 -26.35 1.55 -26.35 -0.7 -24.8 -2.3 -23.25 -3.85 -21.05 -3.85 -19.45 -3.85 -18.55 -2.95 L-18.25 -3.45 -17.6 -3.6 -15.55 -3.6 Q-14.75 -3.6 -14.25 -3.2 -13.7 -2.75 -13.7 -2.0 -13.7 -1.2 -14.25 -0.65 -14.8 -0.15 -15.6 -0.2 L-16.2 5.6 Q-16.45 7.85 -18.0 9.3 -19.5 10.75 -21.8 10.75 -23.3 10.75 -24.85 9.9 -26.7 8.9 -26.7 7.55 M-22.55 1.1 Q-22.55 0.35 -22.05 -0.15 L-19.75 -0.2 Q-19.4 1.55 -19.9 2.05 -20.4 2.55 -21.15 2.55 -21.75 2.55 -22.15 2.15 -22.55 1.75 -22.55 1.1;M-26.7 7.55 Q-26.7 6.8 -26.15 6.2 -25.6 5.65 -24.9 5.65 -24.35 5.65 -23.3 6.45 -22.2 7.25 -21.6 7.25 -20.7 7.25 -20.2 6.45 -19.8 5.8 -19.8 4.85 -20.65 5.6 -22.1 5.6 -23.9 5.6 -25.1 4.45 -26.35 3.3 -26.35 1.55 -26.35 -0.7 -24.8 -2.3 -23.25 -3.85 -21.05 -3.85 -19.45 -3.85 -18.55 -2.95 L-18.25 -3.45 -17.6 -3.6 -15.55 -3.6 Q-14.75 -3.6 -14.25 -3.2 -13.7 -2.75 -13.7 -2.0 -13.7 -1.2 -14.25 -0.65 -14.8 -0.15 -15.6 -0.2 L-16.2 5.6 Q-16.45 7.85 -18.0 9.3 -19.5 10.75 -21.8 10.75 -23.3 10.75 -24.85 9.9 -26.7 8.9 -26.7 7.55 M-22.55 1.1 Q-22.55 0.35 -22.05 -0.15 L-19.75 -0.2 Q-19.4 1.55 -19.9 2.05 -20.4 2.55 -21.15 2.55 -21.75 2.55 -22.15 2.15 -22.55 1.75 -22.55 1.1"/>
    </path>
  </g>
  <defs>
    <radialGradient cx="0" cy="0" gradientTransform="matrix(0.0115, 0.0, 0.0, 0.0115, -20.2, 3.45)" gradientUnits="userSpaceOnUse" id="gradient0" r="819.2" spreadMethod="pad">
      <animateTransform additive="replace" attributeName="gradientTransform" dur="2s" from="1" repeatCount="indefinite" to="1" type="scale"/>
      <animateTransform additive="sum" attributeName="gradientTransform" dur="2s" from="-20.2 3.45" repeatCount="indefinite" to="-20.2 3.45" type="translate"/>
      <animateTransform additive="sum" attributeName="gradientTransform" dur="2s" from="0.0" repeatCount="indefinite" to="0.0" type="rotate"/>
      <animateTransform additive="sum" attributeName="gradientTransform" dur="2s" from="0.0115 0.0115" repeatCount="indefinite" to="0.0115 0.0115" type="scale"/>
      <animateTransform additive="sum" attributeName="gradientTransform" dur="2s" from="0.0" repeatCount="indefinite" to="0.0" type="skewX"/>
      <stop offset="0.0" stop-color="#009900">
        <animate attributeName="offset" dur="2s" repeatCount="indefinite" values="0.0;0.0"/>
        <animate attributeName="stop-color" dur="2s" repeatCount="indefinite" values="#009900;#0a970a"/>
        <animate attributeName="stop-opacity" dur="2s" repeatCount="indefinite" values="1.0;1.0"/>
      </stop>
      <stop offset="0.5764705882352941" stop-color="#009900">
        <animate attributeName="offset" dur="2s" repeatCount="indefinite" values="0.5764705882352941;0.5764705882352941"/>
        <animate attributeName="stop-color" dur="2s" repeatCount="indefinite" values="#009900;#52d863"/>
        <animate attributeName="stop-opacity" dur="2s" repeatCount="indefinite" values="1.0;1.0"/>
      </stop>
      <stop offset="1.0" stop-color="#009900">
        <animate attributeName="offset" dur="2s" repeatCount="indefinite" values="1.0;1.0"/>
        <animate attributeName="stop-color" dur="2s" repeatCount="indefinite" values="#009900;#ffffff"/>
        <animate attributeName="stop-opacity" dur="2s" repeatCount="indefinite" values="1.0;1.0"/>
      </stop>
    </radialGradient>
  </defs>
</svg>
