<?xml version="1.0" encoding="UTF-8" standalone="no"?>
<svg xmlns:xlink="http://www.w3.org/1999/xlink" height="10.45px" width="10.95px" xmlns="http://www.w3.org/2000/svg">
  <g transform="matrix(1.0, 0.0, 0.0, 1.0, 38.0, 3.95)">
    <path d="M-38.0 5.0 Q-38.0 6.5 -36.4 6.5 L-35.05 6.5 Q-34.2 6.5 -33.55 5.95 -32.9 5.4 -32.9 4.6 -32.9 4.05 -33.25 3.6 L-34.1 3.05 -33.85 1.0 Q-33.8 0.35 -33.3 -0.05 -32.85 -0.45 -32.15 -0.45 -30.85 -0.45 -30.85 0.95 L-31.05 3.05 -32.15 3.7 Q-32.6 4.2 -32.6 4.9 -32.6 5.65 -32.1 6.05 -31.55 6.5 -30.8 6.5 L-29.45 6.5 Q-27.65 6.5 -27.45 4.65 L-27.05 0.5 -27.05 0.25 Q-27.05 -1.85 -28.35 -2.9 -29.6 -3.95 -31.7 -3.95 -34.15 -3.95 -35.7 -2.75 -37.05 -1.7 -37.5 0.35 L-37.9 4.0 -38.0 5.0" fill="url(#gradient0)" fill-rule="evenodd" stroke="none">
      <animate attributeName="d" dur="2s" repeatCount="indefinite" values="M-38.0 5.0 Q-38.0 6.5 -36.4 6.5 L-35.05 6.5 Q-34.2 6.5 -33.55 5.95 -32.9 5.4 -32.9 4.6 -32.9 4.05 -33.25 3.6 L-34.1 3.05 -33.85 1.0 Q-33.8 0.35 -33.3 -0.05 -32.85 -0.45 -32.15 -0.45 -30.85 -0.45 -30.85 0.95 L-31.05 3.05 -32.15 3.7 Q-32.6 4.2 -32.6 4.9 -32.6 5.65 -32.1 6.05 -31.55 6.5 -30.8 6.5 L-29.45 6.5 Q-27.65 6.5 -27.45 4.65 L-27.05 0.5 -27.05 0.25 Q-27.05 -1.85 -28.35 -2.9 -29.6 -3.95 -31.7 -3.95 -34.15 -3.95 -35.7 -2.75 -37.05 -1.7 -37.5 0.35 L-37.9 4.0 -38.0 5.0;M-38.0 5.0 Q-38.0 6.5 -36.4 6.5 L-35.05 6.5 Q-34.2 6.5 -33.55 5.95 -32.9 5.4 -32.9 4.6 -32.9 4.05 -33.25 3.6 L-34.1 3.05 -33.85 1.0 Q-33.8 0.35 -33.3 -0.05 -32.85 -0.45 -32.15 -0.45 -30.85 -0.45 -30.85 0.95 L-31.05 3.05 -32.15 3.7 Q-32.6 4.2 -32.6 4.9 -32.6 5.65 -32.1 6.05 -31.55 6.5 -30.8 6.5 L-29.45 6.5 Q-27.65 6.5 -27.45 4.65 L-27.05 0.5 -27.05 0.25 Q-27.05 -1.85 -28.35 -2.9 -29.6 -3.95 -31.7 -3.95 -34.15 -3.95 -35.7 -2.75 -37.05 -1.7 -37.5 0.35 L-37.9 4.0 -38.0 5.0"/>
    </path>
    <path d="M-38.0 5.0 L-37.9 4.0 -37.5 0.35 Q-37.05 -1.7 -35.7 -2.75 -34.15 -3.95 -31.7 -3.95 -29.6 -3.95 -28.35 -2.9 -27.05 -1.85 -27.05 0.25 L-27.05 0.5 -27.45 4.65 Q-27.65 6.5 -29.45 6.5 L-30.8 6.5 Q-31.55 6.5 -32.1 6.05 -32.6 5.65 -32.6 4.9 -32.6 4.2 -32.15 3.7 L-31.05 3.05 -30.85 0.95 Q-30.85 -0.45 -32.15 -0.45 -32.85 -0.45 -33.3 -0.05 -33.8 0.35 -33.85 1.0 L-34.1 3.05 -33.25 3.6 Q-32.9 4.05 -32.9 4.6 -32.9 5.4 -33.55 5.95 -34.2 6.5 -35.05 6.5 L-36.4 6.5 Q-38.0 6.5 -38.0 5.0" fill="none" stroke="#000000" stroke-linecap="round" stroke-linejoin="round" stroke-opacity="0.0" stroke-width="1.0">
      <animate attributeName="stroke" dur="2s" repeatCount="indefinite" values="#000000;#000001"/>
      <animate attributeName="stroke-width" dur="2s" repeatCount="indefinite" values="0.0;0.0"/>
      <animate attributeName="fill-opacity" dur="2s" repeatCount="indefinite" values="0.0;0.0"/>
      <animate attributeName="d" dur="2s" repeatCount="indefinite" values="M-38.0 5.0 L-37.9 4.0 -37.5 0.35 Q-37.05 -1.7 -35.7 -2.75 -34.15 -3.95 -31.7 -3.95 -29.6 -3.95 -28.35 -2.9 -27.05 -1.85 -27.05 0.25 L-27.05 0.5 -27.45 4.65 Q-27.65 6.5 -29.45 6.5 L-30.8 6.5 Q-31.55 6.5 -32.1 6.05 -32.6 5.65 -32.6 4.9 -32.6 4.2 -32.15 3.7 L-31.05 3.05 -30.85 0.95 Q-30.85 -0.45 -32.15 -0.45 -32.85 -0.45 -33.3 -0.05 -33.8 0.35 -33.85 1.0 L-34.1 3.05 -33.25 3.6 Q-32.9 4.05 -32.9 4.6 -32.9 5.4 -33.55 5.95 -34.2 6.5 -35.05 6.5 L-36.4 6.5 Q-38.0 6.5 -38.0 5.0;M-38.0 5.0 L-37.9 4.0 -37.5 0.35 Q-37.05 -1.7 -35.7 -2.75 -34.15 -3.95 -31.7 -3.95 -29.6 -3.95 -28.35 -2.9 -27.05 -1.85 -27.05 0.25 L-27.05 0.5 -27.45 4.65 Q-27.65 6.5 -29.45 6.5 L-30.8 6.5 Q-31.55 6.5 -32.1 6.05 -32.6 5.65 -32.6 4.9 -32.6 4.2 -32.15 3.7 L-31.05 3.05 -30.85 0.95 Q-30.85 -0.45 -32.15 -0.45 -32.85 -0.45 -33.3 -0.05 -33.8 0.35 -33.85 1.0 L-34.1 3.05 -33.25 3.6 Q-32.9 4.05 -32.9 4.6 -32.9 5.4 -33.55 5.95 -34.2 6.5 -35.05 6.5 L-36.4 6.5 Q-38.0 6.5 -38.0 5.0"/>
    </path>
  </g>
  <defs>
    <radialGradient cx="0" cy="0" gradientTransform="matrix(0.0086, 0.0, 0.0, 0.0086, -32.5, 1.3)" gradientUnits="userSpaceOnUse" id="gradient0" r="819.2" spreadMethod="pad">
      <animateTransform additive="replace" attributeName="gradientTransform" dur="2s" from="1" repeatCount="indefinite" to="1" type="scale"/>
      <animateTransform additive="sum" attributeName="gradientTransform" dur="2s" from="-32.5 1.3" repeatCount="indefinite" to="-32.5 1.3" type="translate"/>
      <animateTransform additive="sum" attributeName="gradientTransform" dur="2s" from="0.0" repeatCount="indefinite" to="0.0" type="rotate"/>
      <animateTransform additive="sum" attributeName="gradientTransform" dur="2s" from="0.0086 0.0086" repeatCount="indefinite" to="0.0086 0.0086" type="scale"/>
      <animateTransform additive="sum" attributeName="gradientTransform" dur="2s" from="0.0" repeatCount="indefinite" to="0.0" type="skewX"/>
      <stop offset="0.0" stop-color="#009900">
        <animate attributeName="offset" dur="2s" repeatCount="indefinite" values="0.0;0.0"/>
        <animate attributeName="stop-color" dur="2s" repeatCount="indefinite" values="#009900;#0a970a"/>
        <animate attributeName="stop-opacity" dur="2s" repeatCount="indefinite" values="1.0;1.0"/>
      </stop>
      <stop offset="0.5764705882352941" stop-color="#009900">
        <animate attributeName="offset" dur="2s" repeatCount="indefinite" values="0.5764705882352941;0.5764705882352941"/>
        <animate attributeName="stop-color" dur="2s" repeatCount="indefinite" values="#009900;#52d863"/>
        <animate attributeName="stop-opacity" dur="2s" repeatCount="indefinite" values="1.0;1.0"/>
      </stop>
      <stop offset="1.0" stop-color="#009900">
        <animate attributeName="offset" dur="2s" repeatCount="indefinite" values="1.0;1.0"/>
        <animate attributeName="stop-color" dur="2s" repeatCount="indefinite" values="#009900;#ffffff"/>
        <animate attributeName="stop-opacity" dur="2s" repeatCount="indefinite" values="1.0;1.0"/>
      </stop>
    </radialGradient>
  </defs>
</svg>
