<?xml version="1.0" encoding="UTF-8" standalone="no"?>
<svg xmlns:xlink="http://www.w3.org/1999/xlink" height="13.3px" width="10.7px" xmlns="http://www.w3.org/2000/svg">
  <g transform="matrix(1.0, 0.0, 0.0, 1.0, 54.8, 6.8)">
    <path d="M-54.8 5.0 Q-54.8 5.7 -54.35 6.1 -53.85 6.5 -53.15 6.5 L-48.9 6.5 Q-46.85 6.5 -45.45 5.15 -44.1 3.85 -44.1 1.8 -44.1 0.0 -45.35 -1.0 -46.55 -1.95 -48.4 -1.95 L-48.85 -1.9 -49.25 -1.9 Q-50.35 -1.9 -50.35 -2.5 -50.35 -3.35 -49.4 -3.35 L-47.9 -3.35 Q-48.0 -2.75 -47.45 -2.4 L-46.4 -2.15 Q-44.8 -2.15 -44.4 -3.8 L-44.25 -5.25 Q-44.25 -5.95 -44.75 -6.4 -45.2 -6.8 -45.9 -6.8 L-49.15 -6.8 Q-51.3 -6.8 -52.65 -5.5 -54.05 -4.2 -54.05 -2.1 -54.05 -0.3 -52.75 0.65 -51.6 1.55 -49.8 1.55 L-49.3 1.55 -48.85 1.5 Q-47.8 1.5 -47.8 2.3 -47.8 3.05 -48.9 3.05 L-51.1 3.05 -51.1 2.8 Q-51.1 2.2 -51.55 1.9 -51.95 1.55 -52.55 1.55 -53.25 1.55 -53.9 2.0 -54.45 2.45 -54.6 3.15 L-54.7 4.05 -54.8 5.0" fill="url(#gradient0)" fill-rule="evenodd" stroke="none">
      <animate attributeName="d" dur="2s" repeatCount="indefinite" values="M-54.8 5.0 Q-54.8 5.7 -54.35 6.1 -53.85 6.5 -53.15 6.5 L-48.9 6.5 Q-46.85 6.5 -45.45 5.15 -44.1 3.85 -44.1 1.8 -44.1 0.0 -45.35 -1.0 -46.55 -1.95 -48.4 -1.95 L-48.85 -1.9 -49.25 -1.9 Q-50.35 -1.9 -50.35 -2.5 -50.35 -3.35 -49.4 -3.35 L-47.9 -3.35 Q-48.0 -2.75 -47.45 -2.4 L-46.4 -2.15 Q-44.8 -2.15 -44.4 -3.8 L-44.25 -5.25 Q-44.25 -5.95 -44.75 -6.4 -45.2 -6.8 -45.9 -6.8 L-49.15 -6.8 Q-51.3 -6.8 -52.65 -5.5 -54.05 -4.2 -54.05 -2.1 -54.05 -0.3 -52.75 0.65 -51.6 1.55 -49.8 1.55 L-49.3 1.55 -48.85 1.5 Q-47.8 1.5 -47.8 2.3 -47.8 3.05 -48.9 3.05 L-51.1 3.05 -51.1 2.8 Q-51.1 2.2 -51.55 1.9 -51.95 1.55 -52.55 1.55 -53.25 1.55 -53.9 2.0 -54.45 2.45 -54.6 3.15 L-54.7 4.05 -54.8 5.0;M-54.8 5.0 Q-54.8 5.7 -54.35 6.1 -53.85 6.5 -53.15 6.5 L-48.9 6.5 Q-46.85 6.5 -45.45 5.15 -44.1 3.85 -44.1 1.8 -44.1 0.0 -45.35 -1.0 -46.55 -1.95 -48.4 -1.95 L-48.85 -1.9 -49.25 -1.9 Q-50.35 -1.9 -50.35 -2.5 -50.35 -3.35 -49.4 -3.35 L-47.9 -3.35 Q-48.0 -2.75 -47.45 -2.4 L-46.4 -2.15 Q-44.8 -2.15 -44.4 -3.8 L-44.25 -5.25 Q-44.25 -5.95 -44.75 -6.4 -45.2 -6.8 -45.9 -6.8 L-49.15 -6.8 Q-51.3 -6.8 -52.65 -5.5 -54.05 -4.2 -54.05 -2.1 -54.05 -0.3 -52.75 0.65 -51.6 1.55 -49.8 1.55 L-49.3 1.55 -48.85 1.5 Q-47.8 1.5 -47.8 2.3 -47.8 3.05 -48.9 3.05 L-51.1 3.05 -51.1 2.8 Q-51.1 2.2 -51.55 1.9 -51.95 1.55 -52.55 1.55 -53.25 1.55 -53.9 2.0 -54.45 2.45 -54.6 3.15 L-54.7 4.05 -54.8 5.0"/>
    </path>
    <path d="M-54.8 5.0 L-54.7 4.05 -54.6 3.15 Q-54.45 2.45 -53.9 2.0 -53.25 1.55 -52.55 1.55 -51.95 1.55 -51.55 1.9 -51.1 2.2 -51.1 2.8 L-51.1 3.05 -48.9 3.05 Q-47.8 3.05 -47.8 2.3 -47.8 1.5 -48.85 1.5 L-49.3 1.55 -49.8 1.55 Q-51.6 1.55 -52.75 0.65 -54.05 -0.3 -54.05 -2.1 -54.05 -4.2 -52.65 -5.5 -51.3 -6.8 -49.15 -6.8 L-45.9 -6.8 Q-45.2 -6.8 -44.75 -6.4 -44.25 -5.95 -44.25 -5.25 L-44.4 -3.8 Q-44.8 -2.15 -46.4 -2.15 L-47.45 -2.4 Q-48.0 -2.75 -47.9 -3.35 L-49.4 -3.35 Q-50.35 -3.35 -50.35 -2.5 -50.35 -1.9 -49.25 -1.9 L-48.85 -1.9 -48.4 -1.95 Q-46.55 -1.95 -45.35 -1.0 -44.1 0.0 -44.1 1.8 -44.1 3.85 -45.45 5.15 -46.85 6.5 -48.9 6.5 L-53.15 6.5 Q-53.85 6.5 -54.35 6.1 -54.8 5.7 -54.8 5.0" fill="none" stroke="#000000" stroke-linecap="round" stroke-linejoin="round" stroke-opacity="0.0" stroke-width="1.0">
      <animate attributeName="stroke" dur="2s" repeatCount="indefinite" values="#000000;#000001"/>
      <animate attributeName="stroke-width" dur="2s" repeatCount="indefinite" values="0.0;0.0"/>
      <animate attributeName="fill-opacity" dur="2s" repeatCount="indefinite" values="0.0;0.0"/>
      <animate attributeName="d" dur="2s" repeatCount="indefinite" values="M-54.8 5.0 L-54.7 4.05 -54.6 3.15 Q-54.45 2.45 -53.9 2.0 -53.25 1.55 -52.55 1.55 -51.95 1.55 -51.55 1.9 -51.1 2.2 -51.1 2.8 L-51.1 3.05 -48.9 3.05 Q-47.8 3.05 -47.8 2.3 -47.8 1.5 -48.85 1.5 L-49.3 1.55 -49.8 1.55 Q-51.6 1.55 -52.75 0.65 -54.05 -0.3 -54.05 -2.1 -54.05 -4.2 -52.65 -5.5 -51.3 -6.8 -49.15 -6.8 L-45.9 -6.8 Q-45.2 -6.8 -44.75 -6.4 -44.25 -5.95 -44.25 -5.25 L-44.4 -3.8 Q-44.8 -2.15 -46.4 -2.15 L-47.45 -2.4 Q-48.0 -2.75 -47.9 -3.35 L-49.4 -3.35 Q-50.35 -3.35 -50.35 -2.5 -50.35 -1.9 -49.25 -1.9 L-48.85 -1.9 -48.4 -1.95 Q-46.55 -1.95 -45.35 -1.0 -44.1 0.0 -44.1 1.8 -44.1 3.85 -45.45 5.15 -46.85 6.5 -48.9 6.5 L-53.15 6.5 Q-53.85 6.5 -54.35 6.1 -54.8 5.7 -54.8 5.0;M-54.8 5.0 L-54.7 4.05 -54.6 3.15 Q-54.45 2.45 -53.9 2.0 -53.25 1.55 -52.55 1.55 -51.95 1.55 -51.55 1.9 -51.1 2.2 -51.1 2.8 L-51.1 3.05 -48.9 3.05 Q-47.8 3.05 -47.8 2.3 -47.8 1.5 -48.85 1.5 L-49.3 1.55 -49.8 1.55 Q-51.6 1.55 -52.75 0.65 -54.05 -0.3 -54.05 -2.1 -54.05 -4.2 -52.65 -5.5 -51.3 -6.8 -49.15 -6.8 L-45.9 -6.8 Q-45.2 -6.8 -44.75 -6.4 -44.25 -5.95 -44.25 -5.25 L-44.4 -3.8 Q-44.8 -2.15 -46.4 -2.15 L-47.45 -2.4 Q-48.0 -2.75 -47.9 -3.35 L-49.4 -3.35 Q-50.35 -3.35 -50.35 -2.5 -50.35 -1.9 -49.25 -1.9 L-48.85 -1.9 -48.4 -1.95 Q-46.55 -1.95 -45.35 -1.0 -44.1 0.0 -44.1 1.8 -44.1 3.85 -45.45 5.15 -46.85 6.5 -48.9 6.5 L-53.15 6.5 Q-53.85 6.5 -54.35 6.1 -54.8 5.7 -54.8 5.0"/>
    </path>
  </g>
  <defs>
    <radialGradient cx="0" cy="0" gradientTransform="matrix(0.0103, 0.0, 0.0, 0.0103, -49.45, -0.15)" gradientUnits="userSpaceOnUse" id="gradient0" r="819.2" spreadMethod="pad">
      <animateTransform additive="replace" attributeName="gradientTransform" dur="2s" from="1" repeatCount="indefinite" to="1" type="scale"/>
      <animateTransform additive="sum" attributeName="gradientTransform" dur="2s" from="-49.45 -0.15" repeatCount="indefinite" to="-49.45 -0.15" type="translate"/>
      <animateTransform additive="sum" attributeName="gradientTransform" dur="2s" from="0.0" repeatCount="indefinite" to="0.0" type="rotate"/>
      <animateTransform additive="sum" attributeName="gradientTransform" dur="2s" from="0.0103 0.0103" repeatCount="indefinite" to="0.0103 0.0103" type="scale"/>
      <animateTransform additive="sum" attributeName="gradientTransform" dur="2s" from="0.0" repeatCount="indefinite" to="0.0" type="skewX"/>
      <stop offset="0.0" stop-color="#009900">
        <animate attributeName="offset" dur="2s" repeatCount="indefinite" values="0.0;0.0"/>
        <animate attributeName="stop-color" dur="2s" repeatCount="indefinite" values="#009900;#0a970a"/>
        <animate attributeName="stop-opacity" dur="2s" repeatCount="indefinite" values="1.0;1.0"/>
      </stop>
      <stop offset="0.5764705882352941" stop-color="#009900">
        <animate attributeName="offset" dur="2s" repeatCount="indefinite" values="0.5764705882352941;0.5764705882352941"/>
        <animate attributeName="stop-color" dur="2s" repeatCount="indefinite" values="#009900;#52d863"/>
        <animate attributeName="stop-opacity" dur="2s" repeatCount="indefinite" values="1.0;1.0"/>
      </stop>
      <stop offset="1.0" stop-color="#009900">
        <animate attributeName="offset" dur="2s" repeatCount="indefinite" values="1.0;1.0"/>
        <animate attributeName="stop-color" dur="2s" repeatCount="indefinite" values="#009900;#ffffff"/>
        <animate attributeName="stop-opacity" dur="2s" repeatCount="indefinite" values="1.0;1.0"/>
      </stop>
    </radialGradient>
  </defs>
</svg>
