<?xml version="1.0" encoding="UTF-8" standalone="no"?>
<svg xmlns:xlink="http://www.w3.org/1999/xlink" height="10.8px" width="11.45px" xmlns="http://www.w3.org/2000/svg">
  <g transform="matrix(1.0, 0.0, 0.0, 1.0, -21.2, 3.95)">
    <path d="M25.45 0.5 Q27.1 0.5 27.3 -0.85 25.95 -0.85 25.45 0.5 M21.2 2.15 Q21.2 4.35 22.75 5.65 24.25 6.85 26.45 6.85 27.8 6.85 28.95 6.3 30.4 5.55 30.4 4.35 30.4 3.75 29.95 3.35 29.55 2.95 28.95 2.95 L27.95 3.15 26.95 3.35 Q25.6 3.35 25.25 2.35 L30.65 2.35 Q31.55 2.35 32.1 1.85 32.65 1.3 32.65 0.4 32.65 -1.55 31.05 -2.75 29.6 -3.95 27.65 -3.95 24.95 -3.95 23.1 -2.25 21.2 -0.45 21.2 2.15" fill="url(#gradient0)" fill-rule="evenodd" stroke="none">
      <animate attributeName="d" dur="2s" repeatCount="indefinite" values="M25.45 0.5 Q27.1 0.5 27.3 -0.85 25.95 -0.85 25.45 0.5 M21.2 2.15 Q21.2 4.35 22.75 5.65 24.25 6.85 26.45 6.85 27.8 6.85 28.95 6.3 30.4 5.55 30.4 4.35 30.4 3.75 29.95 3.35 29.55 2.95 28.95 2.95 L27.95 3.15 26.95 3.35 Q25.6 3.35 25.25 2.35 L30.65 2.35 Q31.55 2.35 32.1 1.85 32.65 1.3 32.65 0.4 32.65 -1.55 31.05 -2.75 29.6 -3.95 27.65 -3.95 24.95 -3.95 23.1 -2.25 21.2 -0.45 21.2 2.15;M25.45 0.5 Q27.1 0.5 27.3 -0.85 25.95 -0.85 25.45 0.5 M21.2 2.15 Q21.2 4.35 22.75 5.65 24.25 6.85 26.45 6.85 27.8 6.85 28.95 6.3 30.4 5.55 30.4 4.35 30.4 3.75 29.95 3.35 29.55 2.95 28.95 2.95 L27.95 3.15 26.95 3.35 Q25.6 3.35 25.25 2.35 L30.65 2.35 Q31.55 2.35 32.1 1.85 32.65 1.3 32.65 0.4 32.65 -1.55 31.05 -2.75 29.6 -3.95 27.65 -3.95 24.95 -3.95 23.1 -2.25 21.2 -0.45 21.2 2.15"/>
    </path>
    <path d="M21.2 2.15 Q21.2 -0.45 23.1 -2.25 24.95 -3.95 27.65 -3.95 29.6 -3.95 31.05 -2.75 32.65 -1.55 32.65 0.4 32.65 1.3 32.1 1.85 31.55 2.35 30.65 2.35 L25.25 2.35 Q25.6 3.35 26.95 3.35 L27.95 3.15 28.95 2.95 Q29.55 2.95 29.95 3.35 30.4 3.75 30.4 4.35 30.4 5.55 28.95 6.3 27.8 6.85 26.45 6.85 24.25 6.85 22.75 5.65 21.2 4.35 21.2 2.15 M25.45 0.5 Q25.95 -0.85 27.3 -0.85 27.1 0.5 25.45 0.5" fill="none" stroke="#000000" stroke-linecap="round" stroke-linejoin="round" stroke-opacity="0.0" stroke-width="1.0">
      <animate attributeName="stroke" dur="2s" repeatCount="indefinite" values="#000000;#000001"/>
      <animate attributeName="stroke-width" dur="2s" repeatCount="indefinite" values="0.0;0.0"/>
      <animate attributeName="fill-opacity" dur="2s" repeatCount="indefinite" values="0.0;0.0"/>
      <animate attributeName="d" dur="2s" repeatCount="indefinite" values="M21.2 2.15 Q21.2 -0.45 23.1 -2.25 24.95 -3.95 27.65 -3.95 29.6 -3.95 31.05 -2.75 32.65 -1.55 32.65 0.4 32.65 1.3 32.1 1.85 31.55 2.35 30.65 2.35 L25.25 2.35 Q25.6 3.35 26.95 3.35 L27.95 3.15 28.95 2.95 Q29.55 2.95 29.95 3.35 30.4 3.75 30.4 4.35 30.4 5.55 28.95 6.3 27.8 6.85 26.45 6.85 24.25 6.85 22.75 5.65 21.2 4.35 21.2 2.15 M25.45 0.5 Q25.95 -0.85 27.3 -0.85 27.1 0.5 25.45 0.5;M21.2 2.15 Q21.2 -0.45 23.1 -2.25 24.95 -3.95 27.65 -3.95 29.6 -3.95 31.05 -2.75 32.65 -1.55 32.65 0.4 32.65 1.3 32.1 1.85 31.55 2.35 30.65 2.35 L25.25 2.35 Q25.6 3.35 26.95 3.35 L27.95 3.15 28.95 2.95 Q29.55 2.95 29.95 3.35 30.4 3.75 30.4 4.35 30.4 5.55 28.95 6.3 27.8 6.85 26.45 6.85 24.25 6.85 22.75 5.65 21.2 4.35 21.2 2.15 M25.45 0.5 Q25.95 -0.85 27.3 -0.85 27.1 0.5 25.45 0.5"/>
    </path>
  </g>
  <defs>
    <radialGradient cx="0" cy="0" gradientTransform="matrix(0.0076, 0.0, 0.0, 0.0076, 26.95, 1.45)" gradientUnits="userSpaceOnUse" id="gradient0" r="819.2" spreadMethod="pad">
      <animateTransform additive="replace" attributeName="gradientTransform" dur="2s" from="1" repeatCount="indefinite" to="1" type="scale"/>
      <animateTransform additive="sum" attributeName="gradientTransform" dur="2s" from="26.95 1.45" repeatCount="indefinite" to="26.95 1.45" type="translate"/>
      <animateTransform additive="sum" attributeName="gradientTransform" dur="2s" from="0.0" repeatCount="indefinite" to="0.0" type="rotate"/>
      <animateTransform additive="sum" attributeName="gradientTransform" dur="2s" from="0.0076 0.0076" repeatCount="indefinite" to="0.0076 0.0076" type="scale"/>
      <animateTransform additive="sum" attributeName="gradientTransform" dur="2s" from="0.0" repeatCount="indefinite" to="0.0" type="skewX"/>
      <stop offset="0.0" stop-color="#0a9709">
        <animate attributeName="offset" dur="2s" repeatCount="indefinite" values="0.0;0.0"/>
        <animate attributeName="stop-color" dur="2s" repeatCount="indefinite" values="#0a9709;#009901"/>
        <animate attributeName="stop-opacity" dur="2s" repeatCount="indefinite" values="1.0;1.0"/>
      </stop>
      <stop offset="0.5764705882352941" stop-color="#52d862">
        <animate attributeName="offset" dur="2s" repeatCount="indefinite" values="0.5764705882352941;0.5764705882352941"/>
        <animate attributeName="stop-color" dur="2s" repeatCount="indefinite" values="#52d862;#009901"/>
        <animate attributeName="stop-opacity" dur="2s" repeatCount="indefinite" values="1.0;1.0"/>
      </stop>
      <stop offset="1.0" stop-color="#ffffff">
        <animate attributeName="offset" dur="2s" repeatCount="indefinite" values="1.0;1.0"/>
        <animate attributeName="stop-color" dur="2s" repeatCount="indefinite" values="#ffffff;#009901"/>
        <animate attributeName="stop-opacity" dur="2s" repeatCount="indefinite" values="1.0;1.0"/>
      </stop>
    </radialGradient>
  </defs>
</svg>
