<?xml version="1.0" encoding="UTF-8" standalone="no"?>
<svg xmlns:xlink="http://www.w3.org/1999/xlink" height="10.8px" width="11.45px" xmlns="http://www.w3.org/2000/svg">
  <g transform="matrix(1.0, 0.0, 0.0, 1.0, 8.6, 3.95)">
    <path d="M-4.35 0.5 Q-2.7 0.5 -2.5 -0.85 -3.85 -0.85 -4.35 0.5 M-8.6 2.15 Q-8.6 4.35 -7.05 5.65 -5.55 6.85 -3.35 6.85 -2.0 6.85 -0.85 6.3 0.6 5.55 0.6 4.35 0.6 3.75 0.15 3.35 -0.25 2.95 -0.85 2.95 L-1.85 3.15 -2.85 3.35 Q-4.2 3.35 -4.55 2.35 L0.85 2.35 Q1.75 2.35 2.3 1.85 2.85 1.3 2.85 0.4 2.85 -1.55 1.25 -2.75 -0.2 -3.95 -2.15 -3.95 -4.85 -3.95 -6.7 -2.25 -8.6 -0.45 -8.6 2.15" fill="url(#gradient0)" fill-rule="evenodd" stroke="none">
      <animate attributeName="d" dur="2s" repeatCount="indefinite" values="M-4.35 0.5 Q-2.7 0.5 -2.5 -0.85 -3.85 -0.85 -4.35 0.5 M-8.6 2.15 Q-8.6 4.35 -7.05 5.65 -5.55 6.85 -3.35 6.85 -2.0 6.85 -0.85 6.3 0.6 5.55 0.6 4.35 0.6 3.75 0.15 3.35 -0.25 2.95 -0.85 2.95 L-1.85 3.15 -2.85 3.35 Q-4.2 3.35 -4.55 2.35 L0.85 2.35 Q1.75 2.35 2.3 1.85 2.85 1.3 2.85 0.4 2.85 -1.55 1.25 -2.75 -0.2 -3.95 -2.15 -3.95 -4.85 -3.95 -6.7 -2.25 -8.6 -0.45 -8.6 2.15;M-4.35 0.5 Q-2.7 0.5 -2.5 -0.85 -3.85 -0.85 -4.35 0.5 M-8.6 2.15 Q-8.6 4.35 -7.05 5.65 -5.55 6.85 -3.35 6.85 -2.0 6.85 -0.85 6.3 0.6 5.55 0.6 4.35 0.6 3.75 0.15 3.35 -0.25 2.95 -0.85 2.95 L-1.85 3.15 -2.85 3.35 Q-4.2 3.35 -4.55 2.35 L0.85 2.35 Q1.75 2.35 2.3 1.85 2.85 1.3 2.85 0.4 2.85 -1.55 1.25 -2.75 -0.2 -3.95 -2.15 -3.95 -4.85 -3.95 -6.7 -2.25 -8.6 -0.45 -8.6 2.15"/>
    </path>
    <path d="M-8.6 2.15 Q-8.6 -0.45 -6.7 -2.25 -4.85 -3.95 -2.15 -3.95 -0.2 -3.95 1.25 -2.75 2.85 -1.55 2.85 0.4 2.85 1.3 2.3 1.85 1.75 2.35 0.85 2.35 L-4.55 2.35 Q-4.2 3.35 -2.85 3.35 L-1.85 3.15 -0.85 2.95 Q-0.25 2.95 0.15 3.35 0.6 3.75 0.6 4.35 0.6 5.55 -0.85 6.3 -2.0 6.85 -3.35 6.85 -5.55 6.85 -7.05 5.65 -8.6 4.35 -8.6 2.15 M-4.35 0.5 Q-3.85 -0.85 -2.5 -0.85 -2.7 0.5 -4.35 0.5" fill="none" stroke="#000000" stroke-linecap="round" stroke-linejoin="round" stroke-opacity="0.0" stroke-width="1.0">
      <animate attributeName="stroke" dur="2s" repeatCount="indefinite" values="#000000;#000001"/>
      <animate attributeName="stroke-width" dur="2s" repeatCount="indefinite" values="0.0;0.0"/>
      <animate attributeName="fill-opacity" dur="2s" repeatCount="indefinite" values="0.0;0.0"/>
      <animate attributeName="d" dur="2s" repeatCount="indefinite" values="M-8.6 2.15 Q-8.6 -0.45 -6.7 -2.25 -4.85 -3.95 -2.15 -3.95 -0.2 -3.95 1.25 -2.75 2.85 -1.55 2.85 0.4 2.85 1.3 2.3 1.85 1.75 2.35 0.85 2.35 L-4.55 2.35 Q-4.2 3.35 -2.85 3.35 L-1.85 3.15 -0.85 2.95 Q-0.25 2.95 0.15 3.35 0.6 3.75 0.6 4.35 0.6 5.55 -0.85 6.3 -2.0 6.85 -3.35 6.85 -5.55 6.85 -7.05 5.65 -8.6 4.35 -8.6 2.15 M-4.35 0.5 Q-3.85 -0.85 -2.5 -0.85 -2.7 0.5 -4.35 0.5;M-8.6 2.15 Q-8.6 -0.45 -6.7 -2.25 -4.85 -3.95 -2.15 -3.95 -0.2 -3.95 1.25 -2.75 2.85 -1.55 2.85 0.4 2.85 1.3 2.3 1.85 1.75 2.35 0.85 2.35 L-4.55 2.35 Q-4.2 3.35 -2.85 3.35 L-1.85 3.15 -0.85 2.95 Q-0.25 2.95 0.15 3.35 0.6 3.75 0.6 4.35 0.6 5.55 -0.85 6.3 -2.0 6.85 -3.35 6.85 -5.55 6.85 -7.05 5.65 -8.6 4.35 -8.6 2.15 M-4.35 0.5 Q-3.85 -0.85 -2.5 -0.85 -2.7 0.5 -4.35 0.5"/>
    </path>
  </g>
  <defs>
    <radialGradient cx="0" cy="0" gradientTransform="matrix(0.0076, 0.0, 0.0, 0.0076, -2.85, 1.45)" gradientUnits="userSpaceOnUse" id="gradient0" r="819.2" spreadMethod="pad">
      <animateTransform additive="replace" attributeName="gradientTransform" dur="2s" from="1" repeatCount="indefinite" to="1" type="scale"/>
      <animateTransform additive="sum" attributeName="gradientTransform" dur="2s" from="-2.85 1.45" repeatCount="indefinite" to="-2.85 1.45" type="translate"/>
      <animateTransform additive="sum" attributeName="gradientTransform" dur="2s" from="0.0" repeatCount="indefinite" to="0.0" type="rotate"/>
      <animateTransform additive="sum" attributeName="gradientTransform" dur="2s" from="0.0076 0.0076" repeatCount="indefinite" to="0.0076 0.0076" type="scale"/>
      <animateTransform additive="sum" attributeName="gradientTransform" dur="2s" from="0.0" repeatCount="indefinite" to="0.0" type="skewX"/>
      <stop offset="0.0" stop-color="#0a9709">
        <animate attributeName="offset" dur="2s" repeatCount="indefinite" values="0.0;0.0"/>
        <animate attributeName="stop-color" dur="2s" repeatCount="indefinite" values="#0a9709;#009901"/>
        <animate attributeName="stop-opacity" dur="2s" repeatCount="indefinite" values="1.0;1.0"/>
      </stop>
      <stop offset="0.5764705882352941" stop-color="#52d862">
        <animate attributeName="offset" dur="2s" repeatCount="indefinite" values="0.5764705882352941;0.5764705882352941"/>
        <animate attributeName="stop-color" dur="2s" repeatCount="indefinite" values="#52d862;#009901"/>
        <animate attributeName="stop-opacity" dur="2s" repeatCount="indefinite" values="1.0;1.0"/>
      </stop>
      <stop offset="1.0" stop-color="#ffffff">
        <animate attributeName="offset" dur="2s" repeatCount="indefinite" values="1.0;1.0"/>
        <animate attributeName="stop-color" dur="2s" repeatCount="indefinite" values="#ffffff;#009901"/>
        <animate attributeName="stop-opacity" dur="2s" repeatCount="indefinite" values="1.0;1.0"/>
      </stop>
    </radialGradient>
  </defs>
</svg>
