<?xml version="1.0" encoding="UTF-8" standalone="no"?>
<svg xmlns:xlink="http://www.w3.org/1999/xlink" height="13.6px" width="11.15px" xmlns="http://www.w3.org/2000/svg">
  <g transform="matrix(1.0, 0.0, 0.0, 1.0, -16.9, 8.1)">
    <path d="M21.25 -2.15 L22.9 -2.15 Q23.6 -2.15 24.05 -2.5 24.45 -2.9 24.05 -4.45 23.7 -4.8 21.55 -3.95 21.35 -3.55 21.25 -2.15 M16.9 3.8 L16.9 4.0 Q16.9 5.5 18.5 5.5 L20.4 5.5 20.9 1.05 21.55 1.05 23.35 5.05 23.85 5.5 25.9 5.5 Q26.8 5.5 27.45 5.0 28.05 4.45 28.05 3.6 28.05 2.7 27.4 2.3 L25.85 2.05 25.25 0.55 Q26.5 0.0 27.2 -1.25 27.95 -2.5 27.95 -3.85 27.95 -5.8 26.6 -6.95 25.3 -8.1 23.3 -8.1 20.95 -8.1 19.4 -6.7 17.85 -5.35 17.6 -2.95 L16.9 3.8" fill="url(#gradient0)" fill-rule="evenodd" stroke="none">
      <animate attributeName="d" dur="2s" repeatCount="indefinite" values="M21.25 -2.15 L22.9 -2.15 Q23.6 -2.15 24.05 -2.5 24.45 -2.9 24.05 -4.45 23.7 -4.8 21.55 -3.95 21.35 -3.55 21.25 -2.15 M16.9 3.8 L16.9 4.0 Q16.9 5.5 18.5 5.5 L20.4 5.5 20.9 1.05 21.55 1.05 23.35 5.05 23.85 5.5 25.9 5.5 Q26.8 5.5 27.45 5.0 28.05 4.45 28.05 3.6 28.05 2.7 27.4 2.3 L25.85 2.05 25.25 0.55 Q26.5 0.0 27.2 -1.25 27.95 -2.5 27.95 -3.85 27.95 -5.8 26.6 -6.95 25.3 -8.1 23.3 -8.1 20.95 -8.1 19.4 -6.7 17.85 -5.35 17.6 -2.95 L16.9 3.8;M21.25 -2.15 L22.9 -2.15 Q23.6 -2.15 24.05 -2.5 24.45 -2.9 24.05 -4.45 23.7 -4.8 21.55 -3.95 21.35 -3.55 21.25 -2.15 M16.9 3.8 L16.9 4.0 Q16.9 5.5 18.5 5.5 L20.4 5.5 20.9 1.05 21.55 1.05 23.35 5.05 23.85 5.5 25.9 5.5 Q26.8 5.5 27.45 5.0 28.05 4.45 28.05 3.6 28.05 2.7 27.4 2.3 L25.85 2.05 25.25 0.55 Q26.5 0.0 27.2 -1.25 27.95 -2.5 27.95 -3.85 27.95 -5.8 26.6 -6.95 25.3 -8.1 23.3 -8.1 20.95 -8.1 19.4 -6.7 17.85 -5.35 17.6 -2.95 L16.9 3.8"/>
    </path>
    <path d="M16.9 3.8 L17.6 -2.95 Q17.85 -5.35 19.4 -6.7 20.95 -8.1 23.3 -8.1 25.3 -8.1 26.6 -6.95 27.95 -5.8 27.95 -3.85 27.95 -2.5 27.2 -1.25 26.5 0.0 25.25 0.55 L25.85 2.05 27.4 2.3 Q28.05 2.7 28.05 3.6 28.05 4.45 27.45 5.0 26.8 5.5 25.9 5.5 L23.85 5.5 23.35 5.05 21.55 1.05 20.9 1.05 20.4 5.5 18.5 5.5 Q16.9 5.5 16.9 4.0 L16.9 3.8 M21.25 -2.15 Q21.35 -3.55 21.55 -3.95 23.7 -4.8 24.05 -4.45 24.45 -2.9 24.05 -2.5 23.6 -2.15 22.9 -2.15 L21.25 -2.15" fill="none" stroke="#000000" stroke-linecap="round" stroke-linejoin="round" stroke-opacity="0.0" stroke-width="1.0">
      <animate attributeName="stroke" dur="2s" repeatCount="indefinite" values="#000000;#000001"/>
      <animate attributeName="stroke-width" dur="2s" repeatCount="indefinite" values="0.0;0.0"/>
      <animate attributeName="fill-opacity" dur="2s" repeatCount="indefinite" values="0.0;0.0"/>
      <animate attributeName="d" dur="2s" repeatCount="indefinite" values="M16.9 3.8 L17.6 -2.95 Q17.85 -5.35 19.4 -6.7 20.95 -8.1 23.3 -8.1 25.3 -8.1 26.6 -6.95 27.95 -5.8 27.95 -3.85 27.95 -2.5 27.2 -1.25 26.5 0.0 25.25 0.55 L25.85 2.05 27.4 2.3 Q28.05 2.7 28.05 3.6 28.05 4.45 27.45 5.0 26.8 5.5 25.9 5.5 L23.85 5.5 23.35 5.05 21.55 1.05 20.9 1.05 20.4 5.5 18.5 5.5 Q16.9 5.5 16.9 4.0 L16.9 3.8 M21.25 -2.15 Q21.35 -3.55 21.55 -3.95 23.7 -4.8 24.05 -4.45 24.45 -2.9 24.05 -2.5 23.6 -2.15 22.9 -2.15 L21.25 -2.15;M16.9 3.8 L17.6 -2.95 Q17.85 -5.35 19.4 -6.7 20.95 -8.1 23.3 -8.1 25.3 -8.1 26.6 -6.95 27.95 -5.8 27.95 -3.85 27.95 -2.5 27.2 -1.25 26.5 0.0 25.25 0.55 L25.85 2.05 27.4 2.3 Q28.05 2.7 28.05 3.6 28.05 4.45 27.45 5.0 26.8 5.5 25.9 5.5 L23.85 5.5 23.35 5.05 21.55 1.05 20.9 1.05 20.4 5.5 18.5 5.5 Q16.9 5.5 16.9 4.0 L16.9 3.8 M21.25 -2.15 Q21.35 -3.55 21.55 -3.95 23.7 -4.8 24.05 -4.45 24.45 -2.9 24.05 -2.5 23.6 -2.15 22.9 -2.15 L21.25 -2.15"/>
    </path>
  </g>
  <defs>
    <radialGradient cx="0" cy="0" gradientTransform="matrix(0.0105, 0.0, 0.0, 0.0105, 22.5, -1.3)" gradientUnits="userSpaceOnUse" id="gradient0" r="819.2" spreadMethod="pad">
      <animateTransform additive="replace" attributeName="gradientTransform" dur="2s" from="1" repeatCount="indefinite" to="1" type="scale"/>
      <animateTransform additive="sum" attributeName="gradientTransform" dur="2s" from="22.5 -1.3" repeatCount="indefinite" to="22.5 -1.3" type="translate"/>
      <animateTransform additive="sum" attributeName="gradientTransform" dur="2s" from="0.0" repeatCount="indefinite" to="0.0" type="rotate"/>
      <animateTransform additive="sum" attributeName="gradientTransform" dur="2s" from="0.0105 0.0105" repeatCount="indefinite" to="0.0105 0.0105" type="scale"/>
      <animateTransform additive="sum" attributeName="gradientTransform" dur="2s" from="0.0" repeatCount="indefinite" to="0.0" type="skewX"/>
      <stop offset="0.0" stop-color="#009900">
        <animate attributeName="offset" dur="2s" repeatCount="indefinite" values="0.0;0.0"/>
        <animate attributeName="stop-color" dur="2s" repeatCount="indefinite" values="#009900;#0a970a"/>
        <animate attributeName="stop-opacity" dur="2s" repeatCount="indefinite" values="1.0;1.0"/>
      </stop>
      <stop offset="0.5764705882352941" stop-color="#009900">
        <animate attributeName="offset" dur="2s" repeatCount="indefinite" values="0.5764705882352941;0.5764705882352941"/>
        <animate attributeName="stop-color" dur="2s" repeatCount="indefinite" values="#009900;#52d863"/>
        <animate attributeName="stop-opacity" dur="2s" repeatCount="indefinite" values="1.0;1.0"/>
      </stop>
      <stop offset="1.0" stop-color="#009900">
        <animate attributeName="offset" dur="2s" repeatCount="indefinite" values="1.0;1.0"/>
        <animate attributeName="stop-color" dur="2s" repeatCount="indefinite" values="#009900;#ffffff"/>
        <animate attributeName="stop-opacity" dur="2s" repeatCount="indefinite" values="1.0;1.0"/>
      </stop>
    </radialGradient>
  </defs>
</svg>
