<?xml version="1.0" encoding="UTF-8" standalone="no"?>
<svg xmlns:xlink="http://www.w3.org/1999/xlink" height="14.35px" width="11.3px" xmlns="http://www.w3.org/2000/svg">
  <g transform="matrix(1.0, 0.0, 0.0, 1.0, 0.25, 4.6)">
    <path d="M-0.25 6.35 Q-0.25 7.75 1.45 8.8 3.0 9.75 4.5 9.75 7.05 9.75 8.6 8.1 10.05 6.55 10.3 3.9 L11.05 -2.8 11.05 -3.05 Q11.05 -4.6 9.35 -4.6 L7.85 -4.6 Q7.05 -4.6 6.5 -4.05 5.9 -3.5 5.9 -2.7 5.9 -2.1 6.25 -1.65 6.55 -1.25 7.15 -1.2 6.95 1.2 5.3 1.2 4.75 1.2 4.35 0.8 3.95 0.45 3.95 -0.1 L4.05 -1.15 5.15 -1.8 Q5.6 -2.35 5.6 -3.05 5.6 -4.6 3.8 -4.6 L2.6 -4.6 Q0.65 -4.6 0.45 -2.65 L0.15 0.55 Q0.15 2.35 1.3 3.5 2.45 4.6 4.25 4.6 5.75 4.6 6.6 3.85 6.65 4.85 6.2 5.5 5.7 6.25 4.75 6.25 4.2 6.25 3.1 5.4 2.05 4.55 1.5 4.55 0.85 4.55 0.3 5.1 -0.25 5.65 -0.25 6.35" fill="url(#gradient0)" fill-rule="evenodd" stroke="none">
      <animate attributeName="d" dur="2s" repeatCount="indefinite" values="M-0.25 6.35 Q-0.25 7.75 1.45 8.8 3.0 9.75 4.5 9.75 7.05 9.75 8.6 8.1 10.05 6.55 10.3 3.9 L11.05 -2.8 11.05 -3.05 Q11.05 -4.6 9.35 -4.6 L7.85 -4.6 Q7.05 -4.6 6.5 -4.05 5.9 -3.5 5.9 -2.7 5.9 -2.1 6.25 -1.65 6.55 -1.25 7.15 -1.2 6.95 1.2 5.3 1.2 4.75 1.2 4.35 0.8 3.95 0.45 3.95 -0.1 L4.05 -1.15 5.15 -1.8 Q5.6 -2.35 5.6 -3.05 5.6 -4.6 3.8 -4.6 L2.6 -4.6 Q0.65 -4.6 0.45 -2.65 L0.15 0.55 Q0.15 2.35 1.3 3.5 2.45 4.6 4.25 4.6 5.75 4.6 6.6 3.85 6.65 4.85 6.2 5.5 5.7 6.25 4.75 6.25 4.2 6.25 3.1 5.4 2.05 4.55 1.5 4.55 0.85 4.55 0.3 5.1 -0.25 5.65 -0.25 6.35;M-0.25 6.35 Q-0.25 7.75 1.45 8.8 3.0 9.75 4.5 9.75 7.05 9.75 8.6 8.1 10.05 6.55 10.3 3.9 L11.05 -2.8 11.05 -3.05 Q11.05 -4.6 9.35 -4.6 L7.85 -4.6 Q7.05 -4.6 6.5 -4.05 5.9 -3.5 5.9 -2.7 5.9 -2.1 6.25 -1.65 6.55 -1.25 7.15 -1.2 6.95 1.2 5.3 1.2 4.75 1.2 4.35 0.8 3.95 0.45 3.95 -0.1 L4.05 -1.15 5.15 -1.8 Q5.6 -2.35 5.6 -3.05 5.6 -4.6 3.8 -4.6 L2.6 -4.6 Q0.65 -4.6 0.45 -2.65 L0.15 0.55 Q0.15 2.35 1.3 3.5 2.45 4.6 4.25 4.6 5.75 4.6 6.6 3.85 6.65 4.85 6.2 5.5 5.7 6.25 4.75 6.25 4.2 6.25 3.1 5.4 2.05 4.55 1.5 4.55 0.85 4.55 0.3 5.1 -0.25 5.65 -0.25 6.35"/>
    </path>
    <path d="M-0.25 6.35 Q-0.25 5.65 0.3 5.1 0.85 4.55 1.5 4.55 2.05 4.55 3.1 5.4 4.2 6.25 4.75 6.25 5.7 6.25 6.2 5.5 6.65 4.85 6.6 3.85 5.75 4.6 4.25 4.6 2.45 4.6 1.3 3.5 0.15 2.35 0.15 0.55 L0.45 -2.65 Q0.65 -4.6 2.6 -4.6 L3.8 -4.6 Q5.6 -4.6 5.6 -3.05 5.6 -2.35 5.15 -1.8 L4.05 -1.15 3.95 -0.1 Q3.95 0.45 4.35 0.8 4.75 1.2 5.3 1.2 6.95 1.2 7.15 -1.2 6.55 -1.25 6.25 -1.65 5.9 -2.1 5.9 -2.7 5.9 -3.5 6.5 -4.05 7.05 -4.6 7.85 -4.6 L9.35 -4.6 Q11.05 -4.6 11.05 -3.05 L11.05 -2.8 10.3 3.9 Q10.05 6.55 8.6 8.1 7.05 9.75 4.5 9.75 3.0 9.75 1.45 8.8 -0.25 7.75 -0.25 6.35" fill="none" stroke="#000000" stroke-linecap="round" stroke-linejoin="round" stroke-opacity="0.0" stroke-width="1.0">
      <animate attributeName="stroke" dur="2s" repeatCount="indefinite" values="#000000;#000001"/>
      <animate attributeName="stroke-width" dur="2s" repeatCount="indefinite" values="0.0;0.0"/>
      <animate attributeName="fill-opacity" dur="2s" repeatCount="indefinite" values="0.0;0.0"/>
      <animate attributeName="d" dur="2s" repeatCount="indefinite" values="M-0.25 6.35 Q-0.25 5.65 0.3 5.1 0.85 4.55 1.5 4.55 2.05 4.55 3.1 5.4 4.2 6.25 4.75 6.25 5.7 6.25 6.2 5.5 6.65 4.85 6.6 3.85 5.75 4.6 4.25 4.6 2.45 4.6 1.3 3.5 0.15 2.35 0.15 0.55 L0.45 -2.65 Q0.65 -4.6 2.6 -4.6 L3.8 -4.6 Q5.6 -4.6 5.6 -3.05 5.6 -2.35 5.15 -1.8 L4.05 -1.15 3.95 -0.1 Q3.95 0.45 4.35 0.8 4.75 1.2 5.3 1.2 6.95 1.2 7.15 -1.2 6.55 -1.25 6.25 -1.65 5.9 -2.1 5.9 -2.7 5.9 -3.5 6.5 -4.05 7.05 -4.6 7.85 -4.6 L9.35 -4.6 Q11.05 -4.6 11.05 -3.05 L11.05 -2.8 10.3 3.9 Q10.05 6.55 8.6 8.1 7.05 9.75 4.5 9.75 3.0 9.75 1.45 8.8 -0.25 7.75 -0.25 6.35;M-0.25 6.35 Q-0.25 5.65 0.3 5.1 0.85 4.55 1.5 4.55 2.05 4.55 3.1 5.4 4.2 6.25 4.75 6.25 5.7 6.25 6.2 5.5 6.65 4.85 6.6 3.85 5.75 4.6 4.25 4.6 2.45 4.6 1.3 3.5 0.15 2.35 0.15 0.55 L0.45 -2.65 Q0.65 -4.6 2.6 -4.6 L3.8 -4.6 Q5.6 -4.6 5.6 -3.05 5.6 -2.35 5.15 -1.8 L4.05 -1.15 3.95 -0.1 Q3.95 0.45 4.35 0.8 4.75 1.2 5.3 1.2 6.95 1.2 7.15 -1.2 6.55 -1.25 6.25 -1.65 5.9 -2.1 5.9 -2.7 5.9 -3.5 6.5 -4.05 7.05 -4.6 7.85 -4.6 L9.35 -4.6 Q11.05 -4.6 11.05 -3.05 L11.05 -2.8 10.3 3.9 Q10.05 6.55 8.6 8.1 7.05 9.75 4.5 9.75 3.0 9.75 1.45 8.8 -0.25 7.75 -0.25 6.35"/>
    </path>
  </g>
  <defs>
    <radialGradient cx="0" cy="0" gradientTransform="matrix(0.0106, 0.0, 0.0, 0.0106, 5.4, 2.6)" gradientUnits="userSpaceOnUse" id="gradient0" r="819.2" spreadMethod="pad">
      <animateTransform additive="replace" attributeName="gradientTransform" dur="2s" from="1" repeatCount="indefinite" to="1" type="scale"/>
      <animateTransform additive="sum" attributeName="gradientTransform" dur="2s" from="5.4 2.6" repeatCount="indefinite" to="5.4 2.6" type="translate"/>
      <animateTransform additive="sum" attributeName="gradientTransform" dur="2s" from="0.0" repeatCount="indefinite" to="0.0" type="rotate"/>
      <animateTransform additive="sum" attributeName="gradientTransform" dur="2s" from="0.0106 0.0106" repeatCount="indefinite" to="0.0106 0.0106" type="scale"/>
      <animateTransform additive="sum" attributeName="gradientTransform" dur="2s" from="0.0" repeatCount="indefinite" to="0.0" type="skewX"/>
      <stop offset="0.0" stop-color="#009900">
        <animate attributeName="offset" dur="2s" repeatCount="indefinite" values="0.0;0.0"/>
        <animate attributeName="stop-color" dur="2s" repeatCount="indefinite" values="#009900;#0a970a"/>
        <animate attributeName="stop-opacity" dur="2s" repeatCount="indefinite" values="1.0;1.0"/>
      </stop>
      <stop offset="0.5764705882352941" stop-color="#009900">
        <animate attributeName="offset" dur="2s" repeatCount="indefinite" values="0.5764705882352941;0.5764705882352941"/>
        <animate attributeName="stop-color" dur="2s" repeatCount="indefinite" values="#009900;#52d863"/>
        <animate attributeName="stop-opacity" dur="2s" repeatCount="indefinite" values="1.0;1.0"/>
      </stop>
      <stop offset="1.0" stop-color="#009900">
        <animate attributeName="offset" dur="2s" repeatCount="indefinite" values="1.0;1.0"/>
        <animate attributeName="stop-color" dur="2s" repeatCount="indefinite" values="#009900;#ffffff"/>
        <animate attributeName="stop-opacity" dur="2s" repeatCount="indefinite" values="1.0;1.0"/>
      </stop>
    </radialGradient>
  </defs>
</svg>
