<?xml version="1.0" encoding="UTF-8" standalone="no"?>
<svg xmlns:xlink="http://www.w3.org/1999/xlink" height="10.7px" width="11.6px" xmlns="http://www.w3.org/2000/svg">
  <g transform="matrix(1.0, 0.0, 0.0, 1.0, 45.8, 4.9)">
    <path d="M-41.9 0.75 Q-41.9 1.5 -41.45 2.05 -41.0 2.55 -40.25 2.55 -39.35 2.55 -38.7 1.8 -38.15 1.1 -38.6 -1.15 L-41.3 -0.9 Q-41.9 -0.2 -41.9 0.75 M-45.8 1.0 Q-45.8 3.25 -44.3 4.55 -42.9 5.8 -40.65 5.8 -37.95 5.8 -36.15 4.15 -34.2 2.45 -34.2 -0.2 -34.2 -2.4 -35.75 -3.7 -37.2 -4.9 -39.45 -4.9 -42.15 -4.9 -43.95 -3.3 -45.8 -1.6 -45.8 1.0" fill="url(#gradient0)" fill-rule="evenodd" stroke="none">
      <animate attributeName="d" dur="2s" repeatCount="indefinite" values="M-41.9 0.75 Q-41.9 1.5 -41.45 2.05 -41.0 2.55 -40.25 2.55 -39.35 2.55 -38.7 1.8 -38.15 1.1 -38.6 -1.15 L-41.3 -0.9 Q-41.9 -0.2 -41.9 0.75 M-45.8 1.0 Q-45.8 3.25 -44.3 4.55 -42.9 5.8 -40.65 5.8 -37.95 5.8 -36.15 4.15 -34.2 2.45 -34.2 -0.2 -34.2 -2.4 -35.75 -3.7 -37.2 -4.9 -39.45 -4.9 -42.15 -4.9 -43.95 -3.3 -45.8 -1.6 -45.8 1.0;M-41.9 0.75 Q-41.9 1.5 -41.45 2.05 -41.0 2.55 -40.25 2.55 -39.35 2.55 -38.7 1.8 -38.15 1.1 -38.6 -1.15 L-41.3 -0.9 Q-41.9 -0.2 -41.9 0.75 M-45.8 1.0 Q-45.8 3.25 -44.3 4.55 -42.9 5.8 -40.65 5.8 -37.95 5.8 -36.15 4.15 -34.2 2.45 -34.2 -0.2 -34.2 -2.4 -35.75 -3.7 -37.2 -4.9 -39.45 -4.9 -42.15 -4.9 -43.95 -3.3 -45.8 -1.6 -45.8 1.0"/>
    </path>
    <path d="M-45.8 1.0 Q-45.8 -1.6 -43.95 -3.3 -42.15 -4.9 -39.45 -4.9 -37.2 -4.9 -35.75 -3.7 -34.2 -2.4 -34.2 -0.2 -34.2 2.45 -36.15 4.15 -37.95 5.8 -40.65 5.8 -42.9 5.8 -44.3 4.55 -45.8 3.25 -45.8 1.0 M-41.9 0.75 Q-41.9 -0.2 -41.3 -0.9 L-38.6 -1.15 Q-38.15 1.1 -38.7 1.8 -39.35 2.55 -40.25 2.55 -41.0 2.55 -41.45 2.05 -41.9 1.5 -41.9 0.75" fill="none" stroke="#000000" stroke-linecap="round" stroke-linejoin="round" stroke-opacity="0.0" stroke-width="1.0">
      <animate attributeName="stroke" dur="2s" repeatCount="indefinite" values="#000000;#000001"/>
      <animate attributeName="stroke-width" dur="2s" repeatCount="indefinite" values="0.0;0.0"/>
      <animate attributeName="fill-opacity" dur="2s" repeatCount="indefinite" values="0.0;0.0"/>
      <animate attributeName="d" dur="2s" repeatCount="indefinite" values="M-45.8 1.0 Q-45.8 -1.6 -43.95 -3.3 -42.15 -4.9 -39.45 -4.9 -37.2 -4.9 -35.75 -3.7 -34.2 -2.4 -34.2 -0.2 -34.2 2.45 -36.15 4.15 -37.95 5.8 -40.65 5.8 -42.9 5.8 -44.3 4.55 -45.8 3.25 -45.8 1.0 M-41.9 0.75 Q-41.9 -0.2 -41.3 -0.9 L-38.6 -1.15 Q-38.15 1.1 -38.7 1.8 -39.35 2.55 -40.25 2.55 -41.0 2.55 -41.45 2.05 -41.9 1.5 -41.9 0.75;M-45.8 1.0 Q-45.8 -1.6 -43.95 -3.3 -42.15 -4.9 -39.45 -4.9 -37.2 -4.9 -35.75 -3.7 -34.2 -2.4 -34.2 -0.2 -34.2 2.45 -36.15 4.15 -37.95 5.8 -40.65 5.8 -42.9 5.8 -44.3 4.55 -45.8 3.25 -45.8 1.0 M-41.9 0.75 Q-41.9 -0.2 -41.3 -0.9 L-38.6 -1.15 Q-38.15 1.1 -38.7 1.8 -39.35 2.55 -40.25 2.55 -41.0 2.55 -41.45 2.05 -41.9 1.5 -41.9 0.75"/>
    </path>
  </g>
  <defs>
    <radialGradient cx="0" cy="0" gradientTransform="matrix(0.0077, 0.0, 0.0, 0.0077, -40.0, 0.45)" gradientUnits="userSpaceOnUse" id="gradient0" r="819.2" spreadMethod="pad">
      <animateTransform additive="replace" attributeName="gradientTransform" dur="2s" from="1" repeatCount="indefinite" to="1" type="scale"/>
      <animateTransform additive="sum" attributeName="gradientTransform" dur="2s" from="-40.0 0.45" repeatCount="indefinite" to="-40.0 0.45" type="translate"/>
      <animateTransform additive="sum" attributeName="gradientTransform" dur="2s" from="0.0" repeatCount="indefinite" to="0.0" type="rotate"/>
      <animateTransform additive="sum" attributeName="gradientTransform" dur="2s" from="0.0077 0.0077" repeatCount="indefinite" to="0.0077 0.0077" type="scale"/>
      <animateTransform additive="sum" attributeName="gradientTransform" dur="2s" from="0.0" repeatCount="indefinite" to="0.0" type="skewX"/>
      <stop offset="0.0" stop-color="#009900">
        <animate attributeName="offset" dur="2s" repeatCount="indefinite" values="0.0;0.0"/>
        <animate attributeName="stop-color" dur="2s" repeatCount="indefinite" values="#009900;#0a970a"/>
        <animate attributeName="stop-opacity" dur="2s" repeatCount="indefinite" values="1.0;1.0"/>
      </stop>
      <stop offset="0.5764705882352941" stop-color="#009900">
        <animate attributeName="offset" dur="2s" repeatCount="indefinite" values="0.5764705882352941;0.5764705882352941"/>
        <animate attributeName="stop-color" dur="2s" repeatCount="indefinite" values="#009900;#52d863"/>
        <animate attributeName="stop-opacity" dur="2s" repeatCount="indefinite" values="1.0;1.0"/>
      </stop>
      <stop offset="1.0" stop-color="#009900">
        <animate attributeName="offset" dur="2s" repeatCount="indefinite" values="1.0;1.0"/>
        <animate attributeName="stop-color" dur="2s" repeatCount="indefinite" values="#009900;#ffffff"/>
        <animate attributeName="stop-opacity" dur="2s" repeatCount="indefinite" values="1.0;1.0"/>
      </stop>
    </radialGradient>
  </defs>
</svg>
