<?xml version="1.0" encoding="UTF-8" standalone="no"?>
<svg xmlns:xlink="http://www.w3.org/1999/xlink" height="13.6px" width="11.55px" xmlns="http://www.w3.org/2000/svg">
  <g transform="matrix(1.0, 0.0, 0.0, 1.0, 57.85, 7.8)">
    <path d="M-52.7 -2.6 Q-51.9 -2.6 -50.1 -3.65 -50.1 -4.35 -52.55 -4.35 L-52.7 -2.6 M-53.1 1.2 Q-53.1 2.3 -51.7 2.3 -51.1 2.3 -50.65 1.9 -50.2 1.5 -50.55 0.2 L-52.95 -0.1 -53.1 1.2 M-57.85 -5.9 Q-57.85 -4.5 -56.2 -4.35 L-56.75 0.95 -56.8 1.55 Q-56.8 3.5 -55.55 4.65 -54.35 5.8 -52.35 5.8 -49.85 5.8 -48.15 4.35 -46.35 2.85 -46.35 0.4 -46.35 -1.25 -47.5 -2.15 -46.3 -3.25 -46.3 -4.85 -46.3 -6.2 -47.25 -7.0 -48.15 -7.8 -49.5 -7.8 L-55.8 -7.8 Q-56.65 -7.8 -57.25 -7.25 -57.85 -6.75 -57.85 -5.9" fill="url(#gradient0)" fill-rule="evenodd" stroke="none">
      <animate attributeName="d" dur="2s" repeatCount="indefinite" values="M-52.7 -2.6 Q-51.9 -2.6 -50.1 -3.65 -50.1 -4.35 -52.55 -4.35 L-52.7 -2.6 M-53.1 1.2 Q-53.1 2.3 -51.7 2.3 -51.1 2.3 -50.65 1.9 -50.2 1.5 -50.55 0.2 L-52.95 -0.1 -53.1 1.2 M-57.85 -5.9 Q-57.85 -4.5 -56.2 -4.35 L-56.75 0.95 -56.8 1.55 Q-56.8 3.5 -55.55 4.65 -54.35 5.8 -52.35 5.8 -49.85 5.8 -48.15 4.35 -46.35 2.85 -46.35 0.4 -46.35 -1.25 -47.5 -2.15 -46.3 -3.25 -46.3 -4.85 -46.3 -6.2 -47.25 -7.0 -48.15 -7.8 -49.5 -7.8 L-55.8 -7.8 Q-56.65 -7.8 -57.25 -7.25 -57.85 -6.75 -57.85 -5.9;M-52.7 -2.6 Q-51.9 -2.6 -50.1 -3.65 -50.1 -4.35 -52.55 -4.35 L-52.7 -2.6 M-53.1 1.2 Q-53.1 2.3 -51.7 2.3 -51.1 2.3 -50.65 1.9 -50.2 1.5 -50.55 0.2 L-52.95 -0.1 -53.1 1.2 M-57.85 -5.9 Q-57.85 -4.5 -56.2 -4.35 L-56.75 0.95 -56.8 1.55 Q-56.8 3.5 -55.55 4.65 -54.35 5.8 -52.35 5.8 -49.85 5.8 -48.15 4.35 -46.35 2.85 -46.35 0.4 -46.35 -1.25 -47.5 -2.15 -46.3 -3.25 -46.3 -4.85 -46.3 -6.2 -47.25 -7.0 -48.15 -7.8 -49.5 -7.8 L-55.8 -7.8 Q-56.65 -7.8 -57.25 -7.25 -57.85 -6.75 -57.85 -5.9"/>
    </path>
    <path d="M-57.85 -5.9 Q-57.85 -6.75 -57.25 -7.25 -56.65 -7.8 -55.8 -7.8 L-49.5 -7.8 Q-48.15 -7.8 -47.25 -7.0 -46.3 -6.2 -46.3 -4.85 -46.3 -3.25 -47.5 -2.15 -46.35 -1.25 -46.35 0.4 -46.35 2.85 -48.15 4.35 -49.85 5.8 -52.35 5.8 -54.35 5.8 -55.55 4.65 -56.8 3.5 -56.8 1.55 L-56.75 0.95 -56.2 -4.35 Q-57.85 -4.5 -57.85 -5.9 M-53.1 1.2 L-52.95 -0.1 -50.55 0.2 Q-50.2 1.5 -50.65 1.9 -51.1 2.3 -51.7 2.3 -53.1 2.3 -53.1 1.2 M-52.7 -2.6 L-52.55 -4.35 Q-50.1 -4.35 -50.1 -3.65 -51.9 -2.6 -52.7 -2.6" fill="none" stroke="#000000" stroke-linecap="round" stroke-linejoin="round" stroke-opacity="0.0" stroke-width="1.0">
      <animate attributeName="stroke" dur="2s" repeatCount="indefinite" values="#000000;#000001"/>
      <animate attributeName="stroke-width" dur="2s" repeatCount="indefinite" values="0.0;0.0"/>
      <animate attributeName="fill-opacity" dur="2s" repeatCount="indefinite" values="0.0;0.0"/>
      <animate attributeName="d" dur="2s" repeatCount="indefinite" values="M-57.85 -5.9 Q-57.85 -6.75 -57.25 -7.25 -56.65 -7.8 -55.8 -7.8 L-49.5 -7.8 Q-48.15 -7.8 -47.25 -7.0 -46.3 -6.2 -46.3 -4.85 -46.3 -3.25 -47.5 -2.15 -46.35 -1.25 -46.35 0.4 -46.35 2.85 -48.15 4.35 -49.85 5.8 -52.35 5.8 -54.35 5.8 -55.55 4.65 -56.8 3.5 -56.8 1.55 L-56.75 0.95 -56.2 -4.35 Q-57.85 -4.5 -57.85 -5.9 M-53.1 1.2 L-52.95 -0.1 -50.55 0.2 Q-50.2 1.5 -50.65 1.9 -51.1 2.3 -51.7 2.3 -53.1 2.3 -53.1 1.2 M-52.7 -2.6 L-52.55 -4.35 Q-50.1 -4.35 -50.1 -3.65 -51.9 -2.6 -52.7 -2.6;M-57.85 -5.9 Q-57.85 -6.75 -57.25 -7.25 -56.65 -7.8 -55.8 -7.8 L-49.5 -7.8 Q-48.15 -7.8 -47.25 -7.0 -46.3 -6.2 -46.3 -4.85 -46.3 -3.25 -47.5 -2.15 -46.35 -1.25 -46.35 0.4 -46.35 2.85 -48.15 4.35 -49.85 5.8 -52.35 5.8 -54.35 5.8 -55.55 4.65 -56.8 3.5 -56.8 1.55 L-56.75 0.95 -56.2 -4.35 Q-57.85 -4.5 -57.85 -5.9 M-53.1 1.2 L-52.95 -0.1 -50.55 0.2 Q-50.2 1.5 -50.65 1.9 -51.1 2.3 -51.7 2.3 -53.1 2.3 -53.1 1.2 M-52.7 -2.6 L-52.55 -4.35 Q-50.1 -4.35 -50.1 -3.65 -51.9 -2.6 -52.7 -2.6"/>
    </path>
  </g>
  <defs>
    <radialGradient cx="0" cy="0" gradientTransform="matrix(0.0107, 0.0, 0.0, 0.0107, -52.05, -1.0)" gradientUnits="userSpaceOnUse" id="gradient0" r="819.2" spreadMethod="pad">
      <animateTransform additive="replace" attributeName="gradientTransform" dur="2s" from="1" repeatCount="indefinite" to="1" type="scale"/>
      <animateTransform additive="sum" attributeName="gradientTransform" dur="2s" from="-52.05 -1.0" repeatCount="indefinite" to="-52.05 -1.0" type="translate"/>
      <animateTransform additive="sum" attributeName="gradientTransform" dur="2s" from="0.0" repeatCount="indefinite" to="0.0" type="rotate"/>
      <animateTransform additive="sum" attributeName="gradientTransform" dur="2s" from="0.0107 0.0107" repeatCount="indefinite" to="0.0107 0.0107" type="scale"/>
      <animateTransform additive="sum" attributeName="gradientTransform" dur="2s" from="0.0" repeatCount="indefinite" to="0.0" type="skewX"/>
      <stop offset="0.0" stop-color="#009900">
        <animate attributeName="offset" dur="2s" repeatCount="indefinite" values="0.0;0.0"/>
        <animate attributeName="stop-color" dur="2s" repeatCount="indefinite" values="#009900;#0a970a"/>
        <animate attributeName="stop-opacity" dur="2s" repeatCount="indefinite" values="1.0;1.0"/>
      </stop>
      <stop offset="0.5764705882352941" stop-color="#009900">
        <animate attributeName="offset" dur="2s" repeatCount="indefinite" values="0.5764705882352941;0.5764705882352941"/>
        <animate attributeName="stop-color" dur="2s" repeatCount="indefinite" values="#009900;#52d863"/>
        <animate attributeName="stop-opacity" dur="2s" repeatCount="indefinite" values="1.0;1.0"/>
      </stop>
      <stop offset="1.0" stop-color="#009900">
        <animate attributeName="offset" dur="2s" repeatCount="indefinite" values="1.0;1.0"/>
        <animate attributeName="stop-color" dur="2s" repeatCount="indefinite" values="#009900;#ffffff"/>
        <animate attributeName="stop-opacity" dur="2s" repeatCount="indefinite" values="1.0;1.0"/>
      </stop>
    </radialGradient>
  </defs>
</svg>
