<?xml version="1.0" encoding="UTF-8" standalone="no"?>
<svg xmlns:xlink="http://www.w3.org/1999/xlink" height="10.45px" width="10.95px" xmlns="http://www.w3.org/2000/svg">
  <g transform="matrix(1.0, 0.0, 0.0, 1.0, 22.3, 4.95)">
    <path d="M-22.3 4.0 Q-22.3 5.5 -20.7 5.5 L-19.35 5.5 Q-18.5 5.5 -17.85 4.95 -17.2 4.4 -17.2 3.6 -17.2 3.05 -17.55 2.6 -17.85 2.2 -18.4 2.05 L-18.15 0.0 -17.6 -1.05 Q-17.15 -1.45 -16.45 -1.45 -15.15 -1.45 -15.15 -0.05 L-15.35 2.05 Q-16.0 2.2 -16.45 2.7 -16.9 3.2 -16.9 3.9 -16.9 4.65 -16.4 5.05 L-15.1 5.5 -13.75 5.5 Q-11.95 5.5 -11.75 3.65 L-11.35 -0.5 -11.35 -0.75 Q-11.35 -2.85 -12.65 -3.9 -13.9 -4.95 -16.0 -4.95 -18.45 -4.95 -20.0 -3.75 -21.35 -2.7 -21.8 -0.65 L-22.2 3.0 -22.3 4.0" fill="url(#gradient0)" fill-rule="evenodd" stroke="none">
      <animate attributeName="d" dur="2s" repeatCount="indefinite" values="M-22.3 4.0 Q-22.3 5.5 -20.7 5.5 L-19.35 5.5 Q-18.5 5.5 -17.85 4.95 -17.2 4.4 -17.2 3.6 -17.2 3.05 -17.55 2.6 -17.85 2.2 -18.4 2.05 L-18.15 0.0 -17.6 -1.05 Q-17.15 -1.45 -16.45 -1.45 -15.15 -1.45 -15.15 -0.05 L-15.35 2.05 Q-16.0 2.2 -16.45 2.7 -16.9 3.2 -16.9 3.9 -16.9 4.65 -16.4 5.05 L-15.1 5.5 -13.75 5.5 Q-11.95 5.5 -11.75 3.65 L-11.35 -0.5 -11.35 -0.75 Q-11.35 -2.85 -12.65 -3.9 -13.9 -4.95 -16.0 -4.95 -18.45 -4.95 -20.0 -3.75 -21.35 -2.7 -21.8 -0.65 L-22.2 3.0 -22.3 4.0;M-22.3 4.0 Q-22.3 5.5 -20.7 5.5 L-19.35 5.5 Q-18.5 5.5 -17.85 4.95 -17.2 4.4 -17.2 3.6 -17.2 3.05 -17.55 2.6 -17.85 2.2 -18.4 2.05 L-18.15 0.0 -17.6 -1.05 Q-17.15 -1.45 -16.45 -1.45 -15.15 -1.45 -15.15 -0.05 L-15.35 2.05 Q-16.0 2.2 -16.45 2.7 -16.9 3.2 -16.9 3.9 -16.9 4.65 -16.4 5.05 L-15.1 5.5 -13.75 5.5 Q-11.95 5.5 -11.75 3.65 L-11.35 -0.5 -11.35 -0.75 Q-11.35 -2.85 -12.65 -3.9 -13.9 -4.95 -16.0 -4.95 -18.45 -4.95 -20.0 -3.75 -21.35 -2.7 -21.8 -0.65 L-22.2 3.0 -22.3 4.0"/>
    </path>
    <path d="M-22.3 4.0 L-22.2 3.0 -21.8 -0.65 Q-21.35 -2.7 -20.0 -3.75 -18.45 -4.95 -16.0 -4.95 -13.9 -4.95 -12.65 -3.9 -11.35 -2.85 -11.35 -0.75 L-11.35 -0.5 -11.75 3.65 Q-11.95 5.5 -13.75 5.5 L-15.1 5.5 -16.4 5.05 Q-16.9 4.65 -16.9 3.9 -16.9 3.2 -16.45 2.7 -16.0 2.2 -15.35 2.05 L-15.15 -0.05 Q-15.15 -1.45 -16.45 -1.45 -17.15 -1.45 -17.6 -1.05 L-18.15 0.0 -18.4 2.05 Q-17.85 2.2 -17.55 2.6 -17.2 3.05 -17.2 3.6 -17.2 4.4 -17.85 4.95 -18.5 5.5 -19.35 5.5 L-20.7 5.5 Q-22.3 5.5 -22.3 4.0" fill="none" stroke="#000000" stroke-linecap="round" stroke-linejoin="round" stroke-opacity="0.0" stroke-width="1.0">
      <animate attributeName="stroke" dur="2s" repeatCount="indefinite" values="#000000;#000001"/>
      <animate attributeName="stroke-width" dur="2s" repeatCount="indefinite" values="0.0;0.0"/>
      <animate attributeName="fill-opacity" dur="2s" repeatCount="indefinite" values="0.0;0.0"/>
      <animate attributeName="d" dur="2s" repeatCount="indefinite" values="M-22.3 4.0 L-22.2 3.0 -21.8 -0.65 Q-21.35 -2.7 -20.0 -3.75 -18.45 -4.95 -16.0 -4.95 -13.9 -4.95 -12.65 -3.9 -11.35 -2.85 -11.35 -0.75 L-11.35 -0.5 -11.75 3.65 Q-11.95 5.5 -13.75 5.5 L-15.1 5.5 -16.4 5.05 Q-16.9 4.65 -16.9 3.9 -16.9 3.2 -16.45 2.7 -16.0 2.2 -15.35 2.05 L-15.15 -0.05 Q-15.15 -1.45 -16.45 -1.45 -17.15 -1.45 -17.6 -1.05 L-18.15 0.0 -18.4 2.05 Q-17.85 2.2 -17.55 2.6 -17.2 3.05 -17.2 3.6 -17.2 4.4 -17.85 4.95 -18.5 5.5 -19.35 5.5 L-20.7 5.5 Q-22.3 5.5 -22.3 4.0;M-22.3 4.0 L-22.2 3.0 -21.8 -0.65 Q-21.35 -2.7 -20.0 -3.75 -18.45 -4.95 -16.0 -4.95 -13.9 -4.95 -12.65 -3.9 -11.35 -2.85 -11.35 -0.75 L-11.35 -0.5 -11.75 3.65 Q-11.95 5.5 -13.75 5.5 L-15.1 5.5 -16.4 5.05 Q-16.9 4.65 -16.9 3.9 -16.9 3.2 -16.45 2.7 -16.0 2.2 -15.35 2.05 L-15.15 -0.05 Q-15.15 -1.45 -16.45 -1.45 -17.15 -1.45 -17.6 -1.05 L-18.15 0.0 -18.4 2.05 Q-17.85 2.2 -17.55 2.6 -17.2 3.05 -17.2 3.6 -17.2 4.4 -17.85 4.95 -18.5 5.5 -19.35 5.5 L-20.7 5.5 Q-22.3 5.5 -22.3 4.0"/>
    </path>
  </g>
  <defs>
    <radialGradient cx="0" cy="0" gradientTransform="matrix(0.0086, 0.0, 0.0, 0.0086, -16.8, 0.3)" gradientUnits="userSpaceOnUse" id="gradient0" r="819.2" spreadMethod="pad">
      <animateTransform additive="replace" attributeName="gradientTransform" dur="2s" from="1" repeatCount="indefinite" to="1" type="scale"/>
      <animateTransform additive="sum" attributeName="gradientTransform" dur="2s" from="-16.8 0.3" repeatCount="indefinite" to="-16.8 0.3" type="translate"/>
      <animateTransform additive="sum" attributeName="gradientTransform" dur="2s" from="0.0" repeatCount="indefinite" to="0.0" type="rotate"/>
      <animateTransform additive="sum" attributeName="gradientTransform" dur="2s" from="0.0086 0.0086" repeatCount="indefinite" to="0.0086 0.0086" type="scale"/>
      <animateTransform additive="sum" attributeName="gradientTransform" dur="2s" from="0.0" repeatCount="indefinite" to="0.0" type="skewX"/>
      <stop offset="0.0" stop-color="#0a9709">
        <animate attributeName="offset" dur="2s" repeatCount="indefinite" values="0.0;0.0"/>
        <animate attributeName="stop-color" dur="2s" repeatCount="indefinite" values="#0a9709;#009901"/>
        <animate attributeName="stop-opacity" dur="2s" repeatCount="indefinite" values="1.0;1.0"/>
      </stop>
      <stop offset="0.5764705882352941" stop-color="#52d862">
        <animate attributeName="offset" dur="2s" repeatCount="indefinite" values="0.5764705882352941;0.5764705882352941"/>
        <animate attributeName="stop-color" dur="2s" repeatCount="indefinite" values="#52d862;#009901"/>
        <animate attributeName="stop-opacity" dur="2s" repeatCount="indefinite" values="1.0;1.0"/>
      </stop>
      <stop offset="1.0" stop-color="#ffffff">
        <animate attributeName="offset" dur="2s" repeatCount="indefinite" values="1.0;1.0"/>
        <animate attributeName="stop-color" dur="2s" repeatCount="indefinite" values="#ffffff;#009901"/>
        <animate attributeName="stop-opacity" dur="2s" repeatCount="indefinite" values="1.0;1.0"/>
      </stop>
    </radialGradient>
  </defs>
</svg>
