<?xml version="1.0" encoding="UTF-8" standalone="no"?>
<svg xmlns:xlink="http://www.w3.org/1999/xlink" height="10.4px" width="10.9px" xmlns="http://www.w3.org/2000/svg">
  <g transform="matrix(1.0, 0.0, 0.0, 1.0, 33.55, 4.6)">
    <path d="M-33.55 1.3 L-33.55 1.85 Q-33.55 3.85 -32.25 4.85 -31.0 5.8 -28.95 5.8 -23.5 5.8 -23.05 0.9 L-22.7 -2.6 -22.65 -3.1 Q-22.65 -4.6 -24.45 -4.6 L-25.55 -4.6 -27.1 -4.1 Q-27.75 -3.6 -27.75 -2.7 -27.75 -1.5 -26.6 -1.15 L-26.8 0.95 Q-27.0 2.45 -28.5 2.45 -29.05 2.45 -29.4 2.1 -29.8 1.7 -29.8 1.15 L-29.55 -1.15 Q-28.05 -1.55 -28.05 -3.0 -28.05 -4.6 -29.85 -4.6 L-32.0 -4.45 Q-33.0 -4.1 -33.1 -2.75 L-33.55 1.3" fill="url(#gradient0)" fill-rule="evenodd" stroke="none">
      <animate attributeName="d" dur="2s" repeatCount="indefinite" values="M-33.55 1.3 L-33.55 1.85 Q-33.55 3.85 -32.25 4.85 -31.0 5.8 -28.95 5.8 -23.5 5.8 -23.05 0.9 L-22.7 -2.6 -22.65 -3.1 Q-22.65 -4.6 -24.45 -4.6 L-25.55 -4.6 -27.1 -4.1 Q-27.75 -3.6 -27.75 -2.7 -27.75 -1.5 -26.6 -1.15 L-26.8 0.95 Q-27.0 2.45 -28.5 2.45 -29.05 2.45 -29.4 2.1 -29.8 1.7 -29.8 1.15 L-29.55 -1.15 Q-28.05 -1.55 -28.05 -3.0 -28.05 -4.6 -29.85 -4.6 L-32.0 -4.45 Q-33.0 -4.1 -33.1 -2.75 L-33.55 1.3;M-33.55 1.3 L-33.55 1.85 Q-33.55 3.85 -32.25 4.85 -31.0 5.8 -28.95 5.8 -23.5 5.8 -23.05 0.9 L-22.7 -2.6 -22.65 -3.1 Q-22.65 -4.6 -24.45 -4.6 L-25.55 -4.6 -27.1 -4.1 Q-27.75 -3.6 -27.75 -2.7 -27.75 -1.5 -26.6 -1.15 L-26.8 0.95 Q-27.0 2.45 -28.5 2.45 -29.05 2.45 -29.4 2.1 -29.8 1.7 -29.8 1.15 L-29.55 -1.15 Q-28.05 -1.55 -28.05 -3.0 -28.05 -4.6 -29.85 -4.6 L-32.0 -4.45 Q-33.0 -4.1 -33.1 -2.75 L-33.55 1.3"/>
    </path>
    <path d="M-33.55 1.3 L-33.1 -2.75 Q-33.0 -4.1 -32.0 -4.45 L-29.85 -4.6 Q-28.05 -4.6 -28.05 -3.0 -28.05 -1.55 -29.55 -1.15 L-29.8 1.15 Q-29.8 1.7 -29.4 2.1 -29.05 2.45 -28.5 2.45 -27.0 2.45 -26.8 0.95 L-26.6 -1.15 Q-27.75 -1.5 -27.75 -2.7 -27.75 -3.6 -27.1 -4.1 L-25.55 -4.6 -24.45 -4.6 Q-22.65 -4.6 -22.65 -3.1 L-22.7 -2.6 -23.05 0.9 Q-23.5 5.8 -28.95 5.8 -31.0 5.8 -32.25 4.85 -33.55 3.85 -33.55 1.85 L-33.55 1.3" fill="none" stroke="#000000" stroke-linecap="round" stroke-linejoin="round" stroke-opacity="0.0" stroke-width="1.0">
      <animate attributeName="stroke" dur="2s" repeatCount="indefinite" values="#000000;#000001"/>
      <animate attributeName="stroke-width" dur="2s" repeatCount="indefinite" values="0.0;0.0"/>
      <animate attributeName="fill-opacity" dur="2s" repeatCount="indefinite" values="0.0;0.0"/>
      <animate attributeName="d" dur="2s" repeatCount="indefinite" values="M-33.55 1.3 L-33.1 -2.75 Q-33.0 -4.1 -32.0 -4.45 L-29.85 -4.6 Q-28.05 -4.6 -28.05 -3.0 -28.05 -1.55 -29.55 -1.15 L-29.8 1.15 Q-29.8 1.7 -29.4 2.1 -29.05 2.45 -28.5 2.45 -27.0 2.45 -26.8 0.95 L-26.6 -1.15 Q-27.75 -1.5 -27.75 -2.7 -27.75 -3.6 -27.1 -4.1 L-25.55 -4.6 -24.45 -4.6 Q-22.65 -4.6 -22.65 -3.1 L-22.7 -2.6 -23.05 0.9 Q-23.5 5.8 -28.95 5.8 -31.0 5.8 -32.25 4.85 -33.55 3.85 -33.55 1.85 L-33.55 1.3;M-33.55 1.3 L-33.1 -2.75 Q-33.0 -4.1 -32.0 -4.45 L-29.85 -4.6 Q-28.05 -4.6 -28.05 -3.0 -28.05 -1.55 -29.55 -1.15 L-29.8 1.15 Q-29.8 1.7 -29.4 2.1 -29.05 2.45 -28.5 2.45 -27.0 2.45 -26.8 0.95 L-26.6 -1.15 Q-27.75 -1.5 -27.75 -2.7 -27.75 -3.6 -27.1 -4.1 L-25.55 -4.6 -24.45 -4.6 Q-22.65 -4.6 -22.65 -3.1 L-22.7 -2.6 -23.05 0.9 Q-23.5 5.8 -28.95 5.8 -31.0 5.8 -32.25 4.85 -33.55 3.85 -33.55 1.85 L-33.55 1.3"/>
    </path>
  </g>
  <defs>
    <radialGradient cx="0" cy="0" gradientTransform="matrix(0.0086, 0.0, 0.0, 0.0086, -28.1, 0.6)" gradientUnits="userSpaceOnUse" id="gradient0" r="819.2" spreadMethod="pad">
      <animateTransform additive="replace" attributeName="gradientTransform" dur="2s" from="1" repeatCount="indefinite" to="1" type="scale"/>
      <animateTransform additive="sum" attributeName="gradientTransform" dur="2s" from="-28.1 0.6" repeatCount="indefinite" to="-28.1 0.6" type="translate"/>
      <animateTransform additive="sum" attributeName="gradientTransform" dur="2s" from="0.0" repeatCount="indefinite" to="0.0" type="rotate"/>
      <animateTransform additive="sum" attributeName="gradientTransform" dur="2s" from="0.0086 0.0086" repeatCount="indefinite" to="0.0086 0.0086" type="scale"/>
      <animateTransform additive="sum" attributeName="gradientTransform" dur="2s" from="0.0" repeatCount="indefinite" to="0.0" type="skewX"/>
      <stop offset="0.0" stop-color="#0a9709">
        <animate attributeName="offset" dur="2s" repeatCount="indefinite" values="0.0;0.0"/>
        <animate attributeName="stop-color" dur="2s" repeatCount="indefinite" values="#0a9709;#009901"/>
        <animate attributeName="stop-opacity" dur="2s" repeatCount="indefinite" values="1.0;1.0"/>
      </stop>
      <stop offset="0.5764705882352941" stop-color="#52d862">
        <animate attributeName="offset" dur="2s" repeatCount="indefinite" values="0.5764705882352941;0.5764705882352941"/>
        <animate attributeName="stop-color" dur="2s" repeatCount="indefinite" values="#52d862;#009901"/>
        <animate attributeName="stop-opacity" dur="2s" repeatCount="indefinite" values="1.0;1.0"/>
      </stop>
      <stop offset="1.0" stop-color="#ffffff">
        <animate attributeName="offset" dur="2s" repeatCount="indefinite" values="1.0;1.0"/>
        <animate attributeName="stop-color" dur="2s" repeatCount="indefinite" values="#ffffff;#009901"/>
        <animate attributeName="stop-opacity" dur="2s" repeatCount="indefinite" values="1.0;1.0"/>
      </stop>
    </radialGradient>
  </defs>
</svg>
