<?xml version="1.0" encoding="UTF-8" standalone="no"?>
<svg xmlns:xlink="http://www.w3.org/1999/xlink" height="10.1px" width="9.75px" xmlns="http://www.w3.org/2000/svg">
  <g transform="matrix(1.0, 0.0, 0.0, 1.0, -28.8, 3.35)">
    <path d="M28.8 5.2 Q28.8 6.75 30.35 6.75 L34.75 6.75 Q36.25 6.75 37.25 5.75 38.25 4.8 38.25 3.3 38.25 1.95 37.2 1.15 36.3 0.5 34.85 0.5 L34.15 0.55 33.45 0.6 Q32.95 0.6 32.95 0.4 L33.0 0.1 33.3 -0.05 38.4 -0.05 38.55 -1.75 Q38.55 -3.35 36.9 -3.35 L33.15 -3.35 Q31.5 -3.35 30.45 -2.45 29.3 -1.5 29.3 0.1 29.3 1.5 30.35 2.25 31.25 2.95 32.7 2.95 L33.6 2.85 34.5 2.95 34.6 3.3 Q34.5 3.45 34.2 3.45 L28.95 3.45 28.8 5.2" fill="url(#gradient0)" fill-rule="evenodd" stroke="none">
      <animate attributeName="d" dur="2s" repeatCount="indefinite" values="M28.8 5.2 Q28.8 6.75 30.35 6.75 L34.75 6.75 Q36.25 6.75 37.25 5.75 38.25 4.8 38.25 3.3 38.25 1.95 37.2 1.15 36.3 0.5 34.85 0.5 L34.15 0.55 33.45 0.6 Q32.95 0.6 32.95 0.4 L33.0 0.1 33.3 -0.05 38.4 -0.05 38.55 -1.75 Q38.55 -3.35 36.9 -3.35 L33.15 -3.35 Q31.5 -3.35 30.45 -2.45 29.3 -1.5 29.3 0.1 29.3 1.5 30.35 2.25 31.25 2.95 32.7 2.95 L33.6 2.85 34.5 2.95 34.6 3.3 Q34.5 3.45 34.2 3.45 L28.95 3.45 28.8 5.2;M28.8 5.2 Q28.8 6.75 30.35 6.75 L34.75 6.75 Q36.25 6.75 37.25 5.75 38.25 4.8 38.25 3.3 38.25 1.95 37.2 1.15 36.3 0.5 34.85 0.5 L34.15 0.55 33.45 0.6 Q32.95 0.6 32.95 0.4 L33.0 0.1 33.3 -0.05 38.4 -0.05 38.55 -1.75 Q38.55 -3.35 36.9 -3.35 L33.15 -3.35 Q31.5 -3.35 30.45 -2.45 29.3 -1.5 29.3 0.1 29.3 1.5 30.35 2.25 31.25 2.95 32.7 2.95 L33.6 2.85 34.5 2.95 34.6 3.3 Q34.5 3.45 34.2 3.45 L28.95 3.45 28.8 5.2"/>
    </path>
    <path d="M28.8 5.2 L28.95 3.45 34.2 3.45 Q34.5 3.45 34.6 3.3 L34.5 2.95 33.6 2.85 32.7 2.95 Q31.25 2.95 30.35 2.25 29.3 1.5 29.3 0.1 29.3 -1.5 30.45 -2.45 31.5 -3.35 33.15 -3.35 L36.9 -3.35 Q38.55 -3.35 38.55 -1.75 L38.4 -0.05 33.3 -0.05 33.0 0.1 32.95 0.4 Q32.95 0.6 33.45 0.6 L34.15 0.55 34.85 0.5 Q36.3 0.5 37.2 1.15 38.25 1.95 38.25 3.3 38.25 4.8 37.25 5.75 36.25 6.75 34.75 6.75 L30.35 6.75 Q28.8 6.75 28.8 5.2" fill="none" stroke="#000000" stroke-linecap="round" stroke-linejoin="round" stroke-opacity="0.0" stroke-width="1.0">
      <animate attributeName="stroke" dur="2s" repeatCount="indefinite" values="#000000;#000001"/>
      <animate attributeName="stroke-width" dur="2s" repeatCount="indefinite" values="0.0;0.0"/>
      <animate attributeName="fill-opacity" dur="2s" repeatCount="indefinite" values="0.0;0.0"/>
      <animate attributeName="d" dur="2s" repeatCount="indefinite" values="M28.8 5.2 L28.95 3.45 34.2 3.45 Q34.5 3.45 34.6 3.3 L34.5 2.95 33.6 2.85 32.7 2.95 Q31.25 2.95 30.35 2.25 29.3 1.5 29.3 0.1 29.3 -1.5 30.45 -2.45 31.5 -3.35 33.15 -3.35 L36.9 -3.35 Q38.55 -3.35 38.55 -1.75 L38.4 -0.05 33.3 -0.05 33.0 0.1 32.95 0.4 Q32.95 0.6 33.45 0.6 L34.15 0.55 34.85 0.5 Q36.3 0.5 37.2 1.15 38.25 1.95 38.25 3.3 38.25 4.8 37.25 5.75 36.25 6.75 34.75 6.75 L30.35 6.75 Q28.8 6.75 28.8 5.2;M28.8 5.2 L28.95 3.45 34.2 3.45 Q34.5 3.45 34.6 3.3 L34.5 2.95 33.6 2.85 32.7 2.95 Q31.25 2.95 30.35 2.25 29.3 1.5 29.3 0.1 29.3 -1.5 30.45 -2.45 31.5 -3.35 33.15 -3.35 L36.9 -3.35 Q38.55 -3.35 38.55 -1.75 L38.4 -0.05 33.3 -0.05 33.0 0.1 32.95 0.4 Q32.95 0.6 33.45 0.6 L34.15 0.55 34.85 0.5 Q36.3 0.5 37.2 1.15 38.25 1.95 38.25 3.3 38.25 4.8 37.25 5.75 36.25 6.75 34.75 6.75 L30.35 6.75 Q28.8 6.75 28.8 5.2"/>
    </path>
  </g>
  <defs>
    <radialGradient cx="0" cy="0" gradientTransform="matrix(0.0079, 0.0, 0.0, 0.0079, 33.7, 1.7)" gradientUnits="userSpaceOnUse" id="gradient0" r="819.2" spreadMethod="pad">
      <animateTransform additive="replace" attributeName="gradientTransform" dur="2s" from="1" repeatCount="indefinite" to="1" type="scale"/>
      <animateTransform additive="sum" attributeName="gradientTransform" dur="2s" from="33.7 1.7" repeatCount="indefinite" to="33.7 1.7" type="translate"/>
      <animateTransform additive="sum" attributeName="gradientTransform" dur="2s" from="0.0" repeatCount="indefinite" to="0.0" type="rotate"/>
      <animateTransform additive="sum" attributeName="gradientTransform" dur="2s" from="0.0079 0.0079" repeatCount="indefinite" to="0.0079 0.0079" type="scale"/>
      <animateTransform additive="sum" attributeName="gradientTransform" dur="2s" from="0.0" repeatCount="indefinite" to="0.0" type="skewX"/>
      <stop offset="0.0" stop-color="#0a9709">
        <animate attributeName="offset" dur="2s" repeatCount="indefinite" values="0.0;0.0"/>
        <animate attributeName="stop-color" dur="2s" repeatCount="indefinite" values="#0a9709;#009901"/>
        <animate attributeName="stop-opacity" dur="2s" repeatCount="indefinite" values="1.0;1.0"/>
      </stop>
      <stop offset="0.5764705882352941" stop-color="#52d862">
        <animate attributeName="offset" dur="2s" repeatCount="indefinite" values="0.5764705882352941;0.5764705882352941"/>
        <animate attributeName="stop-color" dur="2s" repeatCount="indefinite" values="#52d862;#009901"/>
        <animate attributeName="stop-opacity" dur="2s" repeatCount="indefinite" values="1.0;1.0"/>
      </stop>
      <stop offset="1.0" stop-color="#ffffff">
        <animate attributeName="offset" dur="2s" repeatCount="indefinite" values="1.0;1.0"/>
        <animate attributeName="stop-color" dur="2s" repeatCount="indefinite" values="#ffffff;#009901"/>
        <animate attributeName="stop-opacity" dur="2s" repeatCount="indefinite" values="1.0;1.0"/>
      </stop>
    </radialGradient>
  </defs>
</svg>
