<?xml version="1.0" encoding="UTF-8" standalone="no"?>
<svg xmlns:xlink="http://www.w3.org/1999/xlink" height="10.7px" width="11.6px" xmlns="http://www.w3.org/2000/svg">
  <g transform="matrix(1.0, 0.0, 0.0, 1.0, -5.4, 3.65)">
    <path d="M9.3 2.0 Q9.3 2.75 9.75 3.3 10.2 3.8 10.95 3.8 11.85 3.8 12.5 3.05 13.05 2.35 12.6 0.1 L9.9 0.35 Q9.3 1.05 9.3 2.0 M5.4 2.25 Q5.4 4.5 6.9 5.8 8.3 7.05 10.55 7.05 13.25 7.05 15.05 5.4 17.0 3.7 17.0 1.05 17.0 -1.15 15.45 -2.45 14.0 -3.65 11.75 -3.65 9.05 -3.65 7.25 -2.05 5.4 -0.35 5.4 2.25" fill="url(#gradient0)" fill-rule="evenodd" stroke="none">
      <animate attributeName="d" dur="2s" repeatCount="indefinite" values="M9.3 2.0 Q9.3 2.75 9.75 3.3 10.2 3.8 10.95 3.8 11.85 3.8 12.5 3.05 13.05 2.35 12.6 0.1 L9.9 0.35 Q9.3 1.05 9.3 2.0 M5.4 2.25 Q5.4 4.5 6.9 5.8 8.3 7.05 10.55 7.05 13.25 7.05 15.05 5.4 17.0 3.7 17.0 1.05 17.0 -1.15 15.45 -2.45 14.0 -3.65 11.75 -3.65 9.05 -3.65 7.25 -2.05 5.4 -0.35 5.4 2.25;M9.3 2.0 Q9.3 2.75 9.75 3.3 10.2 3.8 10.95 3.8 11.85 3.8 12.5 3.05 13.05 2.35 12.6 0.1 L9.9 0.35 Q9.3 1.05 9.3 2.0 M5.4 2.25 Q5.4 4.5 6.9 5.8 8.3 7.05 10.55 7.05 13.25 7.05 15.05 5.4 17.0 3.7 17.0 1.05 17.0 -1.15 15.45 -2.45 14.0 -3.65 11.75 -3.65 9.05 -3.65 7.25 -2.05 5.4 -0.35 5.4 2.25"/>
    </path>
    <path d="M5.4 2.25 Q5.4 -0.35 7.25 -2.05 9.05 -3.65 11.75 -3.65 14.0 -3.65 15.45 -2.45 17.0 -1.15 17.0 1.05 17.0 3.7 15.05 5.4 13.25 7.05 10.55 7.05 8.3 7.05 6.9 5.8 5.4 4.5 5.4 2.25 M9.3 2.0 Q9.3 1.05 9.9 0.35 L12.6 0.1 Q13.05 2.35 12.5 3.05 11.85 3.8 10.95 3.8 10.2 3.8 9.75 3.3 9.3 2.75 9.3 2.0" fill="none" stroke="#000000" stroke-linecap="round" stroke-linejoin="round" stroke-opacity="0.0" stroke-width="1.0">
      <animate attributeName="stroke" dur="2s" repeatCount="indefinite" values="#000000;#000001"/>
      <animate attributeName="stroke-width" dur="2s" repeatCount="indefinite" values="0.0;0.0"/>
      <animate attributeName="fill-opacity" dur="2s" repeatCount="indefinite" values="0.0;0.0"/>
      <animate attributeName="d" dur="2s" repeatCount="indefinite" values="M5.4 2.25 Q5.4 -0.35 7.25 -2.05 9.05 -3.65 11.75 -3.65 14.0 -3.65 15.45 -2.45 17.0 -1.15 17.0 1.05 17.0 3.7 15.05 5.4 13.25 7.05 10.55 7.05 8.3 7.05 6.9 5.8 5.4 4.5 5.4 2.25 M9.3 2.0 Q9.3 1.05 9.9 0.35 L12.6 0.1 Q13.05 2.35 12.5 3.05 11.85 3.8 10.95 3.8 10.2 3.8 9.75 3.3 9.3 2.75 9.3 2.0;M5.4 2.25 Q5.4 -0.35 7.25 -2.05 9.05 -3.65 11.75 -3.65 14.0 -3.65 15.45 -2.45 17.0 -1.15 17.0 1.05 17.0 3.7 15.05 5.4 13.25 7.05 10.55 7.05 8.3 7.05 6.9 5.8 5.4 4.5 5.4 2.25 M9.3 2.0 Q9.3 1.05 9.9 0.35 L12.6 0.1 Q13.05 2.35 12.5 3.05 11.85 3.8 10.95 3.8 10.2 3.8 9.75 3.3 9.3 2.75 9.3 2.0"/>
    </path>
  </g>
  <defs>
    <radialGradient cx="0" cy="0" gradientTransform="matrix(0.0077, 0.0, 0.0, 0.0077, 11.2, 1.7)" gradientUnits="userSpaceOnUse" id="gradient0" r="819.2" spreadMethod="pad">
      <animateTransform additive="replace" attributeName="gradientTransform" dur="2s" from="1" repeatCount="indefinite" to="1" type="scale"/>
      <animateTransform additive="sum" attributeName="gradientTransform" dur="2s" from="11.2 1.7" repeatCount="indefinite" to="11.2 1.7" type="translate"/>
      <animateTransform additive="sum" attributeName="gradientTransform" dur="2s" from="0.0" repeatCount="indefinite" to="0.0" type="rotate"/>
      <animateTransform additive="sum" attributeName="gradientTransform" dur="2s" from="0.0077 0.0077" repeatCount="indefinite" to="0.0077 0.0077" type="scale"/>
      <animateTransform additive="sum" attributeName="gradientTransform" dur="2s" from="0.0" repeatCount="indefinite" to="0.0" type="skewX"/>
      <stop offset="0.0" stop-color="#0a9709">
        <animate attributeName="offset" dur="2s" repeatCount="indefinite" values="0.0;0.0"/>
        <animate attributeName="stop-color" dur="2s" repeatCount="indefinite" values="#0a9709;#009901"/>
        <animate attributeName="stop-opacity" dur="2s" repeatCount="indefinite" values="1.0;1.0"/>
      </stop>
      <stop offset="0.5764705882352941" stop-color="#52d862">
        <animate attributeName="offset" dur="2s" repeatCount="indefinite" values="0.5764705882352941;0.5764705882352941"/>
        <animate attributeName="stop-color" dur="2s" repeatCount="indefinite" values="#52d862;#009901"/>
        <animate attributeName="stop-opacity" dur="2s" repeatCount="indefinite" values="1.0;1.0"/>
      </stop>
      <stop offset="1.0" stop-color="#ffffff">
        <animate attributeName="offset" dur="2s" repeatCount="indefinite" values="1.0;1.0"/>
        <animate attributeName="stop-color" dur="2s" repeatCount="indefinite" values="#ffffff;#009901"/>
        <animate attributeName="stop-opacity" dur="2s" repeatCount="indefinite" values="1.0;1.0"/>
      </stop>
    </radialGradient>
  </defs>
</svg>
