<?xml version="1.0" encoding="UTF-8" standalone="no"?>
<svg xmlns:xlink="http://www.w3.org/1999/xlink" height="13.9px" width="10.2px" xmlns="http://www.w3.org/2000/svg">
  <g transform="matrix(1.0, 0.0, 0.0, 1.0, 10.7, 6.85)">
    <path d="M-10.7 2.3 L-10.7 2.85 Q-10.7 4.7 -9.5 5.9 -8.3 7.05 -6.4 7.05 -4.4 7.05 -2.75 5.7 -1.0 4.25 -1.0 2.25 -1.0 1.6 -1.4 1.15 -1.85 0.7 -2.5 0.7 -3.45 0.7 -4.0 1.5 L-4.75 2.9 Q-5.2 3.7 -6.0 3.7 -6.4 3.7 -6.7 3.4 L-7.0 2.7 -6.95 2.4 -6.95 2.1 -6.7 -0.15 -2.55 -0.15 Q-1.7 -0.15 -1.1 -0.65 -0.5 -1.1 -0.5 -1.9 -0.5 -2.6 -0.95 -3.0 -1.4 -3.35 -2.1 -3.35 L-6.4 -3.35 -6.25 -5.1 Q-6.25 -5.85 -6.7 -6.35 -7.15 -6.85 -7.9 -6.85 -8.75 -6.85 -9.35 -6.2 -9.85 -5.6 -9.95 -4.7 L-10.7 2.3" fill="url(#gradient0)" fill-rule="evenodd" stroke="none">
      <animate attributeName="d" dur="2s" repeatCount="indefinite" values="M-10.7 2.3 L-10.7 2.85 Q-10.7 4.7 -9.5 5.9 -8.3 7.05 -6.4 7.05 -4.4 7.05 -2.75 5.7 -1.0 4.25 -1.0 2.25 -1.0 1.6 -1.4 1.15 -1.85 0.7 -2.5 0.7 -3.45 0.7 -4.0 1.5 L-4.75 2.9 Q-5.2 3.7 -6.0 3.7 -6.4 3.7 -6.7 3.4 L-7.0 2.7 -6.95 2.4 -6.95 2.1 -6.7 -0.15 -2.55 -0.15 Q-1.7 -0.15 -1.1 -0.65 -0.5 -1.1 -0.5 -1.9 -0.5 -2.6 -0.95 -3.0 -1.4 -3.35 -2.1 -3.35 L-6.4 -3.35 -6.25 -5.1 Q-6.25 -5.85 -6.7 -6.35 -7.15 -6.85 -7.9 -6.85 -8.75 -6.85 -9.35 -6.2 -9.85 -5.6 -9.95 -4.7 L-10.7 2.3;M-10.7 2.3 L-10.7 2.85 Q-10.7 4.7 -9.5 5.9 -8.3 7.05 -6.4 7.05 -4.4 7.05 -2.75 5.7 -1.0 4.25 -1.0 2.25 -1.0 1.6 -1.4 1.15 -1.85 0.7 -2.5 0.7 -3.45 0.7 -4.0 1.5 L-4.75 2.9 Q-5.2 3.7 -6.0 3.7 -6.4 3.7 -6.7 3.4 L-7.0 2.7 -6.95 2.4 -6.95 2.1 -6.7 -0.15 -2.55 -0.15 Q-1.7 -0.15 -1.1 -0.65 -0.5 -1.1 -0.5 -1.9 -0.5 -2.6 -0.95 -3.0 -1.4 -3.35 -2.1 -3.35 L-6.4 -3.35 -6.25 -5.1 Q-6.25 -5.85 -6.7 -6.35 -7.15 -6.85 -7.9 -6.85 -8.75 -6.85 -9.35 -6.2 -9.85 -5.6 -9.95 -4.7 L-10.7 2.3"/>
    </path>
    <path d="M-10.7 2.3 L-9.95 -4.7 Q-9.85 -5.6 -9.35 -6.2 -8.75 -6.85 -7.9 -6.85 -7.15 -6.85 -6.7 -6.35 -6.25 -5.85 -6.25 -5.1 L-6.4 -3.35 -2.1 -3.35 Q-1.4 -3.35 -0.95 -3.0 -0.5 -2.6 -0.5 -1.9 -0.5 -1.1 -1.1 -0.65 -1.7 -0.15 -2.55 -0.15 L-6.7 -0.15 -6.95 2.1 -6.95 2.4 -7.0 2.7 -6.7 3.4 Q-6.4 3.7 -6.0 3.7 -5.2 3.7 -4.75 2.9 L-4.0 1.5 Q-3.45 0.7 -2.5 0.7 -1.85 0.7 -1.4 1.15 -1.0 1.6 -1.0 2.25 -1.0 4.25 -2.75 5.7 -4.4 7.05 -6.4 7.05 -8.3 7.05 -9.5 5.9 -10.7 4.7 -10.7 2.85 L-10.7 2.3" fill="none" stroke="#000000" stroke-linecap="round" stroke-linejoin="round" stroke-opacity="0.0" stroke-width="1.0">
      <animate attributeName="stroke" dur="2s" repeatCount="indefinite" values="#000000;#000001"/>
      <animate attributeName="stroke-width" dur="2s" repeatCount="indefinite" values="0.0;0.0"/>
      <animate attributeName="fill-opacity" dur="2s" repeatCount="indefinite" values="0.0;0.0"/>
      <animate attributeName="d" dur="2s" repeatCount="indefinite" values="M-10.7 2.3 L-9.95 -4.7 Q-9.85 -5.6 -9.35 -6.2 -8.75 -6.85 -7.9 -6.85 -7.15 -6.85 -6.7 -6.35 -6.25 -5.85 -6.25 -5.1 L-6.4 -3.35 -2.1 -3.35 Q-1.4 -3.35 -0.95 -3.0 -0.5 -2.6 -0.5 -1.9 -0.5 -1.1 -1.1 -0.65 -1.7 -0.15 -2.55 -0.15 L-6.7 -0.15 -6.95 2.1 -6.95 2.4 -7.0 2.7 -6.7 3.4 Q-6.4 3.7 -6.0 3.7 -5.2 3.7 -4.75 2.9 L-4.0 1.5 Q-3.45 0.7 -2.5 0.7 -1.85 0.7 -1.4 1.15 -1.0 1.6 -1.0 2.25 -1.0 4.25 -2.75 5.7 -4.4 7.05 -6.4 7.05 -8.3 7.05 -9.5 5.9 -10.7 4.7 -10.7 2.85 L-10.7 2.3;M-10.7 2.3 L-9.95 -4.7 Q-9.85 -5.6 -9.35 -6.2 -8.75 -6.85 -7.9 -6.85 -7.15 -6.85 -6.7 -6.35 -6.25 -5.85 -6.25 -5.1 L-6.4 -3.35 -2.1 -3.35 Q-1.4 -3.35 -0.95 -3.0 -0.5 -2.6 -0.5 -1.9 -0.5 -1.1 -1.1 -0.65 -1.7 -0.15 -2.55 -0.15 L-6.7 -0.15 -6.95 2.1 -6.95 2.4 -7.0 2.7 -6.7 3.4 Q-6.4 3.7 -6.0 3.7 -5.2 3.7 -4.75 2.9 L-4.0 1.5 Q-3.45 0.7 -2.5 0.7 -1.85 0.7 -1.4 1.15 -1.0 1.6 -1.0 2.25 -1.0 4.25 -2.75 5.7 -4.4 7.05 -6.4 7.05 -8.3 7.05 -9.5 5.9 -10.7 4.7 -10.7 2.85 L-10.7 2.3"/>
    </path>
  </g>
  <defs>
    <radialGradient cx="0" cy="0" gradientTransform="matrix(0.0098, 0.0, 0.0, 0.0098, -5.6, 0.1)" gradientUnits="userSpaceOnUse" id="gradient0" r="819.2" spreadMethod="pad">
      <animateTransform additive="replace" attributeName="gradientTransform" dur="2s" from="1" repeatCount="indefinite" to="1" type="scale"/>
      <animateTransform additive="sum" attributeName="gradientTransform" dur="2s" from="-5.6 0.1" repeatCount="indefinite" to="-5.6 0.1" type="translate"/>
      <animateTransform additive="sum" attributeName="gradientTransform" dur="2s" from="0.0" repeatCount="indefinite" to="0.0" type="rotate"/>
      <animateTransform additive="sum" attributeName="gradientTransform" dur="2s" from="0.0098 0.0098" repeatCount="indefinite" to="0.0098 0.0098" type="scale"/>
      <animateTransform additive="sum" attributeName="gradientTransform" dur="2s" from="0.0" repeatCount="indefinite" to="0.0" type="skewX"/>
      <stop offset="0.0" stop-color="#0a9709">
        <animate attributeName="offset" dur="2s" repeatCount="indefinite" values="0.0;0.0"/>
        <animate attributeName="stop-color" dur="2s" repeatCount="indefinite" values="#0a9709;#009901"/>
        <animate attributeName="stop-opacity" dur="2s" repeatCount="indefinite" values="1.0;1.0"/>
      </stop>
      <stop offset="0.5764705882352941" stop-color="#52d862">
        <animate attributeName="offset" dur="2s" repeatCount="indefinite" values="0.5764705882352941;0.5764705882352941"/>
        <animate attributeName="stop-color" dur="2s" repeatCount="indefinite" values="#52d862;#009901"/>
        <animate attributeName="stop-opacity" dur="2s" repeatCount="indefinite" values="1.0;1.0"/>
      </stop>
      <stop offset="1.0" stop-color="#ffffff">
        <animate attributeName="offset" dur="2s" repeatCount="indefinite" values="1.0;1.0"/>
        <animate attributeName="stop-color" dur="2s" repeatCount="indefinite" values="#ffffff;#009901"/>
        <animate attributeName="stop-opacity" dur="2s" repeatCount="indefinite" values="1.0;1.0"/>
      </stop>
    </radialGradient>
  </defs>
</svg>
