<?xml version="1.0" encoding="UTF-8" standalone="no"?>
<svg xmlns:xlink="http://www.w3.org/1999/xlink" height="13.9px" width="14.25px" xmlns="http://www.w3.org/2000/svg">
  <g transform="matrix(1.0, 0.0, 0.0, 1.0, 37.5, 6.85)">
    <path d="M-33.85 0.5 Q-33.85 1.85 -33.0 2.75 -32.2 3.65 -30.8 3.65 -29.15 3.65 -28.05 2.5 -26.95 1.35 -26.95 -0.3 -26.95 -1.7 -27.8 -2.55 L-32.75 -2.3 Q-33.85 -1.15 -33.85 0.5 M-37.5 0.85 Q-37.5 3.6 -35.7 5.3 -33.9 7.05 -31.15 7.05 -27.9 7.05 -25.6 4.8 -23.25 2.55 -23.25 -0.65 -23.25 -3.4 -25.1 -5.15 -26.9 -6.85 -29.65 -6.85 -32.9 -6.85 -35.2 -4.6 -37.5 -2.35 -37.5 0.85" fill="url(#gradient0)" fill-rule="evenodd" stroke="none">
      <animate attributeName="d" dur="2s" repeatCount="indefinite" values="M-33.85 0.5 Q-33.85 1.85 -33.0 2.75 -32.2 3.65 -30.8 3.65 -29.15 3.65 -28.05 2.5 -26.95 1.35 -26.95 -0.3 -26.95 -1.7 -27.8 -2.55 L-32.75 -2.3 Q-33.85 -1.15 -33.85 0.5 M-37.5 0.85 Q-37.5 3.6 -35.7 5.3 -33.9 7.05 -31.15 7.05 -27.9 7.05 -25.6 4.8 -23.25 2.55 -23.25 -0.65 -23.25 -3.4 -25.1 -5.15 -26.9 -6.85 -29.65 -6.85 -32.9 -6.85 -35.2 -4.6 -37.5 -2.35 -37.5 0.85;M-33.85 0.5 Q-33.85 1.85 -33.0 2.75 -32.2 3.65 -30.8 3.65 -29.15 3.65 -28.05 2.5 -26.95 1.35 -26.95 -0.3 -26.95 -1.7 -27.8 -2.55 L-32.75 -2.3 Q-33.85 -1.15 -33.85 0.5 M-37.5 0.85 Q-37.5 3.6 -35.7 5.3 -33.9 7.05 -31.15 7.05 -27.9 7.05 -25.6 4.8 -23.25 2.55 -23.25 -0.65 -23.25 -3.4 -25.1 -5.15 -26.9 -6.85 -29.65 -6.85 -32.9 -6.85 -35.2 -4.6 -37.5 -2.35 -37.5 0.85"/>
    </path>
    <path d="M-37.5 0.85 Q-37.5 -2.35 -35.2 -4.6 -32.9 -6.85 -29.65 -6.85 -26.9 -6.85 -25.1 -5.15 -23.25 -3.4 -23.25 -0.65 -23.25 2.55 -25.6 4.8 -27.9 7.05 -31.15 7.05 -33.9 7.05 -35.7 5.3 -37.5 3.6 -37.5 0.85 M-33.85 0.5 Q-33.85 -1.15 -32.75 -2.3 L-27.8 -2.55 Q-26.95 -1.7 -26.95 -0.3 -26.95 1.35 -28.05 2.5 -29.15 3.65 -30.8 3.65 -32.2 3.65 -33.0 2.75 -33.85 1.85 -33.85 0.5" fill="none" stroke="#000000" stroke-linecap="round" stroke-linejoin="round" stroke-opacity="0.0" stroke-width="1.0">
      <animate attributeName="stroke" dur="2s" repeatCount="indefinite" values="#000000;#000001"/>
      <animate attributeName="stroke-width" dur="2s" repeatCount="indefinite" values="0.0;0.0"/>
      <animate attributeName="fill-opacity" dur="2s" repeatCount="indefinite" values="0.0;0.0"/>
      <animate attributeName="d" dur="2s" repeatCount="indefinite" values="M-37.5 0.85 Q-37.5 -2.35 -35.2 -4.6 -32.9 -6.85 -29.65 -6.85 -26.9 -6.85 -25.1 -5.15 -23.25 -3.4 -23.25 -0.65 -23.25 2.55 -25.6 4.8 -27.9 7.05 -31.15 7.05 -33.9 7.05 -35.7 5.3 -37.5 3.6 -37.5 0.85 M-33.85 0.5 Q-33.85 -1.15 -32.75 -2.3 L-27.8 -2.55 Q-26.95 -1.7 -26.95 -0.3 -26.95 1.35 -28.05 2.5 -29.15 3.65 -30.8 3.65 -32.2 3.65 -33.0 2.75 -33.85 1.85 -33.85 0.5;M-37.5 0.85 Q-37.5 -2.35 -35.2 -4.6 -32.9 -6.85 -29.65 -6.85 -26.9 -6.85 -25.1 -5.15 -23.25 -3.4 -23.25 -0.65 -23.25 2.55 -25.6 4.8 -27.9 7.05 -31.15 7.05 -33.9 7.05 -35.7 5.3 -37.5 3.6 -37.5 0.85 M-33.85 0.5 Q-33.85 -1.15 -32.75 -2.3 L-27.8 -2.55 Q-26.95 -1.7 -26.95 -0.3 -26.95 1.35 -28.05 2.5 -29.15 3.65 -30.8 3.65 -32.2 3.65 -33.0 2.75 -33.85 1.85 -33.85 0.5"/>
    </path>
  </g>
  <defs>
    <radialGradient cx="0" cy="0" gradientTransform="matrix(0.0095, 0.0, 0.0, 0.0095, -30.35, 0.1)" gradientUnits="userSpaceOnUse" id="gradient0" r="819.2" spreadMethod="pad">
      <animateTransform additive="replace" attributeName="gradientTransform" dur="2s" from="1" repeatCount="indefinite" to="1" type="scale"/>
      <animateTransform additive="sum" attributeName="gradientTransform" dur="2s" from="-30.35 0.1" repeatCount="indefinite" to="-30.35 0.1" type="translate"/>
      <animateTransform additive="sum" attributeName="gradientTransform" dur="2s" from="0.0" repeatCount="indefinite" to="0.0" type="rotate"/>
      <animateTransform additive="sum" attributeName="gradientTransform" dur="2s" from="0.0095 0.0095" repeatCount="indefinite" to="0.0095 0.0095" type="scale"/>
      <animateTransform additive="sum" attributeName="gradientTransform" dur="2s" from="0.0" repeatCount="indefinite" to="0.0" type="skewX"/>
      <stop offset="0.0" stop-color="#0a9709">
        <animate attributeName="offset" dur="2s" repeatCount="indefinite" values="0.0;0.0"/>
        <animate attributeName="stop-color" dur="2s" repeatCount="indefinite" values="#0a9709;#009901"/>
        <animate attributeName="stop-opacity" dur="2s" repeatCount="indefinite" values="1.0;1.0"/>
      </stop>
      <stop offset="0.5764705882352941" stop-color="#52d862">
        <animate attributeName="offset" dur="2s" repeatCount="indefinite" values="0.5764705882352941;0.5764705882352941"/>
        <animate attributeName="stop-color" dur="2s" repeatCount="indefinite" values="#52d862;#009901"/>
        <animate attributeName="stop-opacity" dur="2s" repeatCount="indefinite" values="1.0;1.0"/>
      </stop>
      <stop offset="1.0" stop-color="#ffffff">
        <animate attributeName="offset" dur="2s" repeatCount="indefinite" values="1.0;1.0"/>
        <animate attributeName="stop-color" dur="2s" repeatCount="indefinite" values="#ffffff;#009901"/>
        <animate attributeName="stop-opacity" dur="2s" repeatCount="indefinite" values="1.0;1.0"/>
      </stop>
    </radialGradient>
  </defs>
</svg>
