<?xml version="1.0" encoding="UTF-8" standalone="no"?>
<svg xmlns:xlink="http://www.w3.org/1999/xlink" height="10.65px" width="12.4px" xmlns="http://www.w3.org/2000/svg">
  <g transform="matrix(1.0, 0.0, 0.0, 1.0, -9.5, 3.65)">
    <path d="M13.2 1.9 Q13.2 2.65 13.7 3.15 14.2 3.65 14.9 3.65 15.8 3.65 16.4 3.0 17.05 2.35 16.6 0.25 L13.85 0.4 Q13.2 1.05 13.2 1.9 M9.5 2.4 Q9.5 4.35 10.75 5.7 11.95 7.0 13.9 7.0 15.8 7.0 17.0 5.9 17.1 6.75 18.4 6.75 L19.95 6.75 Q20.9 6.75 21.4 6.15 21.9 5.6 21.9 4.65 21.9 3.95 21.55 3.7 21.45 3.6 20.6 3.25 L20.75 1.2 Q20.75 -0.95 19.4 -2.3 18.0 -3.65 15.85 -3.65 13.2 -3.65 11.35 -1.95 9.5 -0.2 9.5 2.4" fill="url(#gradient0)" fill-rule="evenodd" stroke="none">
      <animate attributeName="d" dur="2s" repeatCount="indefinite" values="M13.2 1.9 Q13.2 2.65 13.7 3.15 14.2 3.65 14.9 3.65 15.8 3.65 16.4 3.0 17.05 2.35 16.6 0.25 L13.85 0.4 Q13.2 1.05 13.2 1.9 M9.5 2.4 Q9.5 4.35 10.75 5.7 11.95 7.0 13.9 7.0 15.8 7.0 17.0 5.9 17.1 6.75 18.4 6.75 L19.95 6.75 Q20.9 6.75 21.4 6.15 21.9 5.6 21.9 4.65 21.9 3.95 21.55 3.7 21.45 3.6 20.6 3.25 L20.75 1.2 Q20.75 -0.95 19.4 -2.3 18.0 -3.65 15.85 -3.65 13.2 -3.65 11.35 -1.95 9.5 -0.2 9.5 2.4;M13.2 1.9 Q13.2 2.65 13.7 3.15 14.2 3.65 14.9 3.65 15.8 3.65 16.4 3.0 17.05 2.35 16.6 0.25 L13.85 0.4 Q13.2 1.05 13.2 1.9 M9.5 2.4 Q9.5 4.35 10.75 5.7 11.95 7.0 13.9 7.0 15.8 7.0 17.0 5.9 17.1 6.75 18.4 6.75 L19.95 6.75 Q20.9 6.75 21.4 6.15 21.9 5.6 21.9 4.65 21.9 3.95 21.55 3.7 21.45 3.6 20.6 3.25 L20.75 1.2 Q20.75 -0.95 19.4 -2.3 18.0 -3.65 15.85 -3.65 13.2 -3.65 11.35 -1.95 9.5 -0.2 9.5 2.4"/>
    </path>
    <path d="M9.5 2.4 Q9.5 -0.2 11.35 -1.95 13.2 -3.65 15.85 -3.65 18.0 -3.65 19.4 -2.3 20.75 -0.95 20.75 1.2 L20.6 3.25 Q21.45 3.6 21.55 3.7 21.9 3.95 21.9 4.65 21.9 5.6 21.4 6.15 20.9 6.75 19.95 6.75 L18.4 6.75 Q17.1 6.75 17.0 5.9 15.8 7.0 13.9 7.0 11.95 7.0 10.75 5.7 9.5 4.35 9.5 2.4 M13.2 1.9 Q13.2 1.05 13.85 0.4 L16.6 0.25 Q17.05 2.35 16.4 3.0 15.8 3.65 14.9 3.65 14.2 3.65 13.7 3.15 13.2 2.65 13.2 1.9" fill="none" stroke="#000000" stroke-linecap="round" stroke-linejoin="round" stroke-opacity="0.0" stroke-width="1.0">
      <animate attributeName="stroke" dur="2s" repeatCount="indefinite" values="#000000;#000001"/>
      <animate attributeName="stroke-width" dur="2s" repeatCount="indefinite" values="0.0;0.0"/>
      <animate attributeName="fill-opacity" dur="2s" repeatCount="indefinite" values="0.0;0.0"/>
      <animate attributeName="d" dur="2s" repeatCount="indefinite" values="M9.5 2.4 Q9.5 -0.2 11.35 -1.95 13.2 -3.65 15.85 -3.65 18.0 -3.65 19.4 -2.3 20.75 -0.95 20.75 1.2 L20.6 3.25 Q21.45 3.6 21.55 3.7 21.9 3.95 21.9 4.65 21.9 5.6 21.4 6.15 20.9 6.75 19.95 6.75 L18.4 6.75 Q17.1 6.75 17.0 5.9 15.8 7.0 13.9 7.0 11.95 7.0 10.75 5.7 9.5 4.35 9.5 2.4 M13.2 1.9 Q13.2 1.05 13.85 0.4 L16.6 0.25 Q17.05 2.35 16.4 3.0 15.8 3.65 14.9 3.65 14.2 3.65 13.7 3.15 13.2 2.65 13.2 1.9;M9.5 2.4 Q9.5 -0.2 11.35 -1.95 13.2 -3.65 15.85 -3.65 18.0 -3.65 19.4 -2.3 20.75 -0.95 20.75 1.2 L20.6 3.25 Q21.45 3.6 21.55 3.7 21.9 3.95 21.9 4.65 21.9 5.6 21.4 6.15 20.9 6.75 19.95 6.75 L18.4 6.75 Q17.1 6.75 17.0 5.9 15.8 7.0 13.9 7.0 11.95 7.0 10.75 5.7 9.5 4.35 9.5 2.4 M13.2 1.9 Q13.2 1.05 13.85 0.4 L16.6 0.25 Q17.05 2.35 16.4 3.0 15.8 3.65 14.9 3.65 14.2 3.65 13.7 3.15 13.2 2.65 13.2 1.9"/>
    </path>
  </g>
  <defs>
    <radialGradient cx="0" cy="0" gradientTransform="matrix(0.0096, 0.0, 0.0, 0.0096, 15.7, 1.7)" gradientUnits="userSpaceOnUse" id="gradient0" r="819.2" spreadMethod="pad">
      <animateTransform additive="replace" attributeName="gradientTransform" dur="2s" from="1" repeatCount="indefinite" to="1" type="scale"/>
      <animateTransform additive="sum" attributeName="gradientTransform" dur="2s" from="15.7 1.7" repeatCount="indefinite" to="15.7 1.7" type="translate"/>
      <animateTransform additive="sum" attributeName="gradientTransform" dur="2s" from="0.0" repeatCount="indefinite" to="0.0" type="rotate"/>
      <animateTransform additive="sum" attributeName="gradientTransform" dur="2s" from="0.0096 0.0096" repeatCount="indefinite" to="0.0096 0.0096" type="scale"/>
      <animateTransform additive="sum" attributeName="gradientTransform" dur="2s" from="0.0" repeatCount="indefinite" to="0.0" type="skewX"/>
      <stop offset="0.0" stop-color="#009900">
        <animate attributeName="offset" dur="2s" repeatCount="indefinite" values="0.0;0.0"/>
        <animate attributeName="stop-color" dur="2s" repeatCount="indefinite" values="#009900;#0a970a"/>
        <animate attributeName="stop-opacity" dur="2s" repeatCount="indefinite" values="1.0;1.0"/>
      </stop>
      <stop offset="0.5764705882352941" stop-color="#009900">
        <animate attributeName="offset" dur="2s" repeatCount="indefinite" values="0.5764705882352941;0.5764705882352941"/>
        <animate attributeName="stop-color" dur="2s" repeatCount="indefinite" values="#009900;#52d863"/>
        <animate attributeName="stop-opacity" dur="2s" repeatCount="indefinite" values="1.0;1.0"/>
      </stop>
      <stop offset="1.0" stop-color="#009900">
        <animate attributeName="offset" dur="2s" repeatCount="indefinite" values="1.0;1.0"/>
        <animate attributeName="stop-color" dur="2s" repeatCount="indefinite" values="#009900;#ffffff"/>
        <animate attributeName="stop-opacity" dur="2s" repeatCount="indefinite" values="1.0;1.0"/>
      </stop>
    </radialGradient>
  </defs>
</svg>
