<?xml version="1.0" encoding="UTF-8" standalone="no"?>
<svg xmlns:xlink="http://www.w3.org/1999/xlink" height="13.9px" width="10.2px" xmlns="http://www.w3.org/2000/svg">
  <g transform="matrix(1.0, 0.0, 0.0, 1.0, 6.55, 6.85)">
    <path d="M-6.55 2.3 L-6.55 2.85 Q-6.55 4.7 -5.35 5.9 -4.15 7.05 -2.25 7.05 -0.25 7.05 1.4 5.7 3.15 4.25 3.15 2.25 3.15 1.6 2.75 1.15 2.3 0.7 1.65 0.7 0.7 0.7 0.15 1.5 L-0.6 2.9 Q-1.05 3.7 -1.85 3.7 L-2.55 3.4 -2.85 2.7 -2.8 2.4 -2.8 2.1 -2.55 -0.15 1.6 -0.15 Q2.45 -0.15 3.05 -0.65 3.65 -1.1 3.65 -1.9 3.65 -2.6 3.2 -3.0 2.75 -3.35 2.05 -3.35 L-2.25 -3.35 -2.1 -5.1 Q-2.1 -5.85 -2.55 -6.35 -3.0 -6.85 -3.75 -6.85 -4.6 -6.85 -5.2 -6.2 -5.7 -5.6 -5.8 -4.7 L-6.55 2.3" fill="url(#gradient0)" fill-rule="evenodd" stroke="none">
      <animate attributeName="d" dur="2s" repeatCount="indefinite" values="M-6.55 2.3 L-6.55 2.85 Q-6.55 4.7 -5.35 5.9 -4.15 7.05 -2.25 7.05 -0.25 7.05 1.4 5.7 3.15 4.25 3.15 2.25 3.15 1.6 2.75 1.15 2.3 0.7 1.65 0.7 0.7 0.7 0.15 1.5 L-0.6 2.9 Q-1.05 3.7 -1.85 3.7 L-2.55 3.4 -2.85 2.7 -2.8 2.4 -2.8 2.1 -2.55 -0.15 1.6 -0.15 Q2.45 -0.15 3.05 -0.65 3.65 -1.1 3.65 -1.9 3.65 -2.6 3.2 -3.0 2.75 -3.35 2.05 -3.35 L-2.25 -3.35 -2.1 -5.1 Q-2.1 -5.85 -2.55 -6.35 -3.0 -6.85 -3.75 -6.85 -4.6 -6.85 -5.2 -6.2 -5.7 -5.6 -5.8 -4.7 L-6.55 2.3;M-6.55 2.3 L-6.55 2.85 Q-6.55 4.7 -5.35 5.9 -4.15 7.05 -2.25 7.05 -0.25 7.05 1.4 5.7 3.15 4.25 3.15 2.25 3.15 1.6 2.75 1.15 2.3 0.7 1.65 0.7 0.7 0.7 0.15 1.5 L-0.6 2.9 Q-1.05 3.7 -1.85 3.7 L-2.55 3.4 -2.85 2.7 -2.8 2.4 -2.8 2.1 -2.55 -0.15 1.6 -0.15 Q2.45 -0.15 3.05 -0.65 3.65 -1.1 3.65 -1.9 3.65 -2.6 3.2 -3.0 2.75 -3.35 2.05 -3.35 L-2.25 -3.35 -2.1 -5.1 Q-2.1 -5.85 -2.55 -6.35 -3.0 -6.85 -3.75 -6.85 -4.6 -6.85 -5.2 -6.2 -5.7 -5.6 -5.8 -4.7 L-6.55 2.3"/>
    </path>
    <path d="M-6.55 2.3 L-5.8 -4.7 Q-5.7 -5.6 -5.2 -6.2 -4.6 -6.85 -3.75 -6.85 -3.0 -6.85 -2.55 -6.35 -2.1 -5.85 -2.1 -5.1 L-2.25 -3.35 2.05 -3.35 Q2.75 -3.35 3.2 -3.0 3.65 -2.6 3.65 -1.9 3.65 -1.1 3.05 -0.65 2.45 -0.15 1.6 -0.15 L-2.55 -0.15 -2.8 2.1 -2.8 2.4 -2.85 2.7 -2.55 3.4 -1.85 3.7 Q-1.05 3.7 -0.6 2.9 L0.15 1.5 Q0.7 0.7 1.65 0.7 2.3 0.7 2.75 1.15 3.15 1.6 3.15 2.25 3.15 4.25 1.4 5.7 -0.25 7.05 -2.25 7.05 -4.15 7.05 -5.35 5.9 -6.55 4.7 -6.55 2.85 L-6.55 2.3" fill="none" stroke="#000000" stroke-linecap="round" stroke-linejoin="round" stroke-opacity="0.0" stroke-width="1.0">
      <animate attributeName="stroke" dur="2s" repeatCount="indefinite" values="#000000;#000001"/>
      <animate attributeName="stroke-width" dur="2s" repeatCount="indefinite" values="0.0;0.0"/>
      <animate attributeName="fill-opacity" dur="2s" repeatCount="indefinite" values="0.0;0.0"/>
      <animate attributeName="d" dur="2s" repeatCount="indefinite" values="M-6.55 2.3 L-5.8 -4.7 Q-5.7 -5.6 -5.2 -6.2 -4.6 -6.85 -3.75 -6.85 -3.0 -6.85 -2.55 -6.35 -2.1 -5.85 -2.1 -5.1 L-2.25 -3.35 2.05 -3.35 Q2.75 -3.35 3.2 -3.0 3.65 -2.6 3.65 -1.9 3.65 -1.1 3.05 -0.65 2.45 -0.15 1.6 -0.15 L-2.55 -0.15 -2.8 2.1 -2.8 2.4 -2.85 2.7 -2.55 3.4 -1.85 3.7 Q-1.05 3.7 -0.6 2.9 L0.15 1.5 Q0.7 0.7 1.65 0.7 2.3 0.7 2.75 1.15 3.15 1.6 3.15 2.25 3.15 4.25 1.4 5.7 -0.25 7.05 -2.25 7.05 -4.15 7.05 -5.35 5.9 -6.55 4.7 -6.55 2.85 L-6.55 2.3;M-6.55 2.3 L-5.8 -4.7 Q-5.7 -5.6 -5.2 -6.2 -4.6 -6.85 -3.75 -6.85 -3.0 -6.85 -2.55 -6.35 -2.1 -5.85 -2.1 -5.1 L-2.25 -3.35 2.05 -3.35 Q2.75 -3.35 3.2 -3.0 3.65 -2.6 3.65 -1.9 3.65 -1.1 3.05 -0.65 2.45 -0.15 1.6 -0.15 L-2.55 -0.15 -2.8 2.1 -2.8 2.4 -2.85 2.7 -2.55 3.4 -1.85 3.7 Q-1.05 3.7 -0.6 2.9 L0.15 1.5 Q0.7 0.7 1.65 0.7 2.3 0.7 2.75 1.15 3.15 1.6 3.15 2.25 3.15 4.25 1.4 5.7 -0.25 7.05 -2.25 7.05 -4.15 7.05 -5.35 5.9 -6.55 4.7 -6.55 2.85 L-6.55 2.3"/>
    </path>
  </g>
  <defs>
    <radialGradient cx="0" cy="0" gradientTransform="matrix(0.0098, 0.0, 0.0, 0.0098, -1.45, 0.1)" gradientUnits="userSpaceOnUse" id="gradient0" r="819.2" spreadMethod="pad">
      <animateTransform additive="replace" attributeName="gradientTransform" dur="2s" from="1" repeatCount="indefinite" to="1" type="scale"/>
      <animateTransform additive="sum" attributeName="gradientTransform" dur="2s" from="-1.45 0.1" repeatCount="indefinite" to="-1.45 0.1" type="translate"/>
      <animateTransform additive="sum" attributeName="gradientTransform" dur="2s" from="0.0" repeatCount="indefinite" to="0.0" type="rotate"/>
      <animateTransform additive="sum" attributeName="gradientTransform" dur="2s" from="0.0098 0.0098" repeatCount="indefinite" to="0.0098 0.0098" type="scale"/>
      <animateTransform additive="sum" attributeName="gradientTransform" dur="2s" from="0.0" repeatCount="indefinite" to="0.0" type="skewX"/>
      <stop offset="0.0" stop-color="#009900">
        <animate attributeName="offset" dur="2s" repeatCount="indefinite" values="0.0;0.0"/>
        <animate attributeName="stop-color" dur="2s" repeatCount="indefinite" values="#009900;#0a970a"/>
        <animate attributeName="stop-opacity" dur="2s" repeatCount="indefinite" values="1.0;1.0"/>
      </stop>
      <stop offset="0.5764705882352941" stop-color="#009900">
        <animate attributeName="offset" dur="2s" repeatCount="indefinite" values="0.5764705882352941;0.5764705882352941"/>
        <animate attributeName="stop-color" dur="2s" repeatCount="indefinite" values="#009900;#52d863"/>
        <animate attributeName="stop-opacity" dur="2s" repeatCount="indefinite" values="1.0;1.0"/>
      </stop>
      <stop offset="1.0" stop-color="#009900">
        <animate attributeName="offset" dur="2s" repeatCount="indefinite" values="1.0;1.0"/>
        <animate attributeName="stop-color" dur="2s" repeatCount="indefinite" values="#009900;#ffffff"/>
        <animate attributeName="stop-opacity" dur="2s" repeatCount="indefinite" values="1.0;1.0"/>
      </stop>
    </radialGradient>
  </defs>
</svg>
