<?xml version="1.0" encoding="UTF-8" standalone="no"?>
<svg xmlns:xlink="http://www.w3.org/1999/xlink" height="13.6px" width="11.55px" xmlns="http://www.w3.org/2000/svg">
  <g transform="matrix(1.0, 0.0, 0.0, 1.0, 40.45, 6.55)">
    <path d="M-35.3 -1.35 Q-34.5 -1.35 -32.7 -2.4 -32.7 -3.1 -35.15 -3.1 L-35.3 -1.35 M-35.7 2.45 Q-35.7 3.55 -34.3 3.55 -33.7 3.55 -33.25 3.15 -32.8 2.75 -33.15 1.45 L-35.55 1.15 -35.7 2.45 M-40.45 -4.65 Q-40.45 -3.25 -38.8 -3.1 L-39.35 2.2 -39.4 2.8 Q-39.4 4.75 -38.15 5.9 -36.95 7.05 -34.95 7.05 -32.45 7.05 -30.75 5.6 -28.95 4.1 -28.95 1.65 -28.95 0.0 -30.1 -0.9 -28.9 -2.0 -28.9 -3.6 -28.9 -4.95 -29.85 -5.75 -30.75 -6.55 -32.1 -6.55 L-38.4 -6.55 Q-39.25 -6.55 -39.85 -6.0 -40.45 -5.5 -40.45 -4.65" fill="url(#gradient0)" fill-rule="evenodd" stroke="none">
      <animate attributeName="d" dur="2s" repeatCount="indefinite" values="M-35.3 -1.35 Q-34.5 -1.35 -32.7 -2.4 -32.7 -3.1 -35.15 -3.1 L-35.3 -1.35 M-35.7 2.45 Q-35.7 3.55 -34.3 3.55 -33.7 3.55 -33.25 3.15 -32.8 2.75 -33.15 1.45 L-35.55 1.15 -35.7 2.45 M-40.45 -4.65 Q-40.45 -3.25 -38.8 -3.1 L-39.35 2.2 -39.4 2.8 Q-39.4 4.75 -38.15 5.9 -36.95 7.05 -34.95 7.05 -32.45 7.05 -30.75 5.6 -28.95 4.1 -28.95 1.65 -28.95 0.0 -30.1 -0.9 -28.9 -2.0 -28.9 -3.6 -28.9 -4.95 -29.85 -5.75 -30.75 -6.55 -32.1 -6.55 L-38.4 -6.55 Q-39.25 -6.55 -39.85 -6.0 -40.45 -5.5 -40.45 -4.65;M-35.3 -1.35 Q-34.5 -1.35 -32.7 -2.4 -32.7 -3.1 -35.15 -3.1 L-35.3 -1.35 M-35.7 2.45 Q-35.7 3.55 -34.3 3.55 -33.7 3.55 -33.25 3.15 -32.8 2.75 -33.15 1.45 L-35.55 1.15 -35.7 2.45 M-40.45 -4.65 Q-40.45 -3.25 -38.8 -3.1 L-39.35 2.2 -39.4 2.8 Q-39.4 4.75 -38.15 5.9 -36.95 7.05 -34.95 7.05 -32.45 7.05 -30.75 5.6 -28.95 4.1 -28.95 1.65 -28.95 0.0 -30.1 -0.9 -28.9 -2.0 -28.9 -3.6 -28.9 -4.95 -29.85 -5.75 -30.75 -6.55 -32.1 -6.55 L-38.4 -6.55 Q-39.25 -6.55 -39.85 -6.0 -40.45 -5.5 -40.45 -4.65"/>
    </path>
    <path d="M-40.45 -4.65 Q-40.45 -5.5 -39.85 -6.0 -39.25 -6.55 -38.4 -6.55 L-32.1 -6.55 Q-30.75 -6.55 -29.85 -5.75 -28.9 -4.95 -28.9 -3.6 -28.9 -2.0 -30.1 -0.9 -28.95 0.0 -28.95 1.65 -28.95 4.1 -30.75 5.6 -32.45 7.05 -34.95 7.05 -36.95 7.05 -38.15 5.9 -39.4 4.75 -39.4 2.8 L-39.35 2.2 -38.8 -3.1 Q-40.45 -3.25 -40.45 -4.65 M-35.7 2.45 L-35.55 1.15 -33.15 1.45 Q-32.8 2.75 -33.25 3.15 -33.7 3.55 -34.3 3.55 -35.7 3.55 -35.7 2.45 M-35.3 -1.35 L-35.15 -3.1 Q-32.7 -3.1 -32.7 -2.4 -34.5 -1.35 -35.3 -1.35" fill="none" stroke="#000000" stroke-linecap="round" stroke-linejoin="round" stroke-opacity="0.0" stroke-width="1.0">
      <animate attributeName="stroke" dur="2s" repeatCount="indefinite" values="#000000;#000001"/>
      <animate attributeName="stroke-width" dur="2s" repeatCount="indefinite" values="0.0;0.0"/>
      <animate attributeName="fill-opacity" dur="2s" repeatCount="indefinite" values="0.0;0.0"/>
      <animate attributeName="d" dur="2s" repeatCount="indefinite" values="M-40.45 -4.65 Q-40.45 -5.5 -39.85 -6.0 -39.25 -6.55 -38.4 -6.55 L-32.1 -6.55 Q-30.75 -6.55 -29.85 -5.75 -28.9 -4.95 -28.9 -3.6 -28.9 -2.0 -30.1 -0.9 -28.95 0.0 -28.95 1.65 -28.95 4.1 -30.75 5.6 -32.45 7.05 -34.95 7.05 -36.95 7.05 -38.15 5.9 -39.4 4.75 -39.4 2.8 L-39.35 2.2 -38.8 -3.1 Q-40.45 -3.25 -40.45 -4.65 M-35.7 2.45 L-35.55 1.15 -33.15 1.45 Q-32.8 2.75 -33.25 3.15 -33.7 3.55 -34.3 3.55 -35.7 3.55 -35.7 2.45 M-35.3 -1.35 L-35.15 -3.1 Q-32.7 -3.1 -32.7 -2.4 -34.5 -1.35 -35.3 -1.35;M-40.45 -4.65 Q-40.45 -5.5 -39.85 -6.0 -39.25 -6.55 -38.4 -6.55 L-32.1 -6.55 Q-30.75 -6.55 -29.85 -5.75 -28.9 -4.95 -28.9 -3.6 -28.9 -2.0 -30.1 -0.9 -28.95 0.0 -28.95 1.65 -28.95 4.1 -30.75 5.6 -32.45 7.05 -34.95 7.05 -36.95 7.05 -38.15 5.9 -39.4 4.75 -39.4 2.8 L-39.35 2.2 -38.8 -3.1 Q-40.45 -3.25 -40.45 -4.65 M-35.7 2.45 L-35.55 1.15 -33.15 1.45 Q-32.8 2.75 -33.25 3.15 -33.7 3.55 -34.3 3.55 -35.7 3.55 -35.7 2.45 M-35.3 -1.35 L-35.15 -3.1 Q-32.7 -3.1 -32.7 -2.4 -34.5 -1.35 -35.3 -1.35"/>
    </path>
  </g>
  <defs>
    <radialGradient cx="0" cy="0" gradientTransform="matrix(0.0107, 0.0, 0.0, 0.0107, -34.65, 0.25)" gradientUnits="userSpaceOnUse" id="gradient0" r="819.2" spreadMethod="pad">
      <animateTransform additive="replace" attributeName="gradientTransform" dur="2s" from="1" repeatCount="indefinite" to="1" type="scale"/>
      <animateTransform additive="sum" attributeName="gradientTransform" dur="2s" from="-34.65 0.25" repeatCount="indefinite" to="-34.65 0.25" type="translate"/>
      <animateTransform additive="sum" attributeName="gradientTransform" dur="2s" from="0.0" repeatCount="indefinite" to="0.0" type="rotate"/>
      <animateTransform additive="sum" attributeName="gradientTransform" dur="2s" from="0.0107 0.0107" repeatCount="indefinite" to="0.0107 0.0107" type="scale"/>
      <animateTransform additive="sum" attributeName="gradientTransform" dur="2s" from="0.0" repeatCount="indefinite" to="0.0" type="skewX"/>
      <stop offset="0.0" stop-color="#009900">
        <animate attributeName="offset" dur="2s" repeatCount="indefinite" values="0.0;0.0"/>
        <animate attributeName="stop-color" dur="2s" repeatCount="indefinite" values="#009900;#0a970a"/>
        <animate attributeName="stop-opacity" dur="2s" repeatCount="indefinite" values="1.0;1.0"/>
      </stop>
      <stop offset="0.5764705882352941" stop-color="#009900">
        <animate attributeName="offset" dur="2s" repeatCount="indefinite" values="0.5764705882352941;0.5764705882352941"/>
        <animate attributeName="stop-color" dur="2s" repeatCount="indefinite" values="#009900;#52d863"/>
        <animate attributeName="stop-opacity" dur="2s" repeatCount="indefinite" values="1.0;1.0"/>
      </stop>
      <stop offset="1.0" stop-color="#009900">
        <animate attributeName="offset" dur="2s" repeatCount="indefinite" values="1.0;1.0"/>
        <animate attributeName="stop-color" dur="2s" repeatCount="indefinite" values="#009900;#ffffff"/>
        <animate attributeName="stop-opacity" dur="2s" repeatCount="indefinite" values="1.0;1.0"/>
      </stop>
    </radialGradient>
  </defs>
</svg>
