<?xml version="1.0" encoding="UTF-8" standalone="no"?>
<svg xmlns:xlink="http://www.w3.org/1999/xlink" height="14.35px" width="11.3px" xmlns="http://www.w3.org/2000/svg">
  <g transform="matrix(1.0, 0.0, 0.0, 1.0, -32.2, 3.35)">
    <path d="M32.2 7.6 Q32.2 9.0 33.9 10.05 35.45 11.0 36.95 11.0 39.5 11.0 41.05 9.35 42.5 7.8 42.75 5.15 L43.5 -1.55 43.5 -1.8 Q43.5 -3.35 41.8 -3.35 L40.3 -3.35 Q39.5 -3.35 38.95 -2.8 38.35 -2.25 38.35 -1.45 38.35 -0.85 38.7 -0.4 39.0 0.0 39.6 0.05 39.4 2.45 37.75 2.45 37.2 2.45 36.8 2.05 36.4 1.7 36.4 1.15 L36.5 0.1 Q37.15 0.0 37.6 -0.55 38.05 -1.1 38.05 -1.8 38.05 -3.35 36.25 -3.35 L35.05 -3.35 Q33.1 -3.35 32.9 -1.4 L32.6 1.8 Q32.6 3.6 33.75 4.75 34.9 5.85 36.7 5.85 38.2 5.85 39.05 5.1 39.1 6.1 38.65 6.75 38.15 7.5 37.2 7.5 36.65 7.5 35.55 6.65 34.5 5.8 33.95 5.8 33.3 5.8 32.75 6.35 32.2 6.9 32.2 7.6" fill="url(#gradient0)" fill-rule="evenodd" stroke="none">
      <animate attributeName="d" dur="2s" repeatCount="indefinite" values="M32.2 7.6 Q32.2 9.0 33.9 10.05 35.45 11.0 36.95 11.0 39.5 11.0 41.05 9.35 42.5 7.8 42.75 5.15 L43.5 -1.55 43.5 -1.8 Q43.5 -3.35 41.8 -3.35 L40.3 -3.35 Q39.5 -3.35 38.95 -2.8 38.35 -2.25 38.35 -1.45 38.35 -0.85 38.7 -0.4 39.0 0.0 39.6 0.05 39.4 2.45 37.75 2.45 37.2 2.45 36.8 2.05 36.4 1.7 36.4 1.15 L36.5 0.1 Q37.15 0.0 37.6 -0.55 38.05 -1.1 38.05 -1.8 38.05 -3.35 36.25 -3.35 L35.05 -3.35 Q33.1 -3.35 32.9 -1.4 L32.6 1.8 Q32.6 3.6 33.75 4.75 34.9 5.85 36.7 5.85 38.2 5.85 39.05 5.1 39.1 6.1 38.65 6.75 38.15 7.5 37.2 7.5 36.65 7.5 35.55 6.65 34.5 5.8 33.95 5.8 33.3 5.8 32.75 6.35 32.2 6.9 32.2 7.6;M32.2 7.6 Q32.2 9.0 33.9 10.05 35.45 11.0 36.95 11.0 39.5 11.0 41.05 9.35 42.5 7.8 42.75 5.15 L43.5 -1.55 43.5 -1.8 Q43.5 -3.35 41.8 -3.35 L40.3 -3.35 Q39.5 -3.35 38.95 -2.8 38.35 -2.25 38.35 -1.45 38.35 -0.85 38.7 -0.4 39.0 0.0 39.6 0.05 39.4 2.45 37.75 2.45 37.2 2.45 36.8 2.05 36.4 1.7 36.4 1.15 L36.5 0.1 Q37.15 0.0 37.6 -0.55 38.05 -1.1 38.05 -1.8 38.05 -3.35 36.25 -3.35 L35.05 -3.35 Q33.1 -3.35 32.9 -1.4 L32.6 1.8 Q32.6 3.6 33.75 4.75 34.9 5.85 36.7 5.85 38.2 5.85 39.05 5.1 39.1 6.1 38.65 6.75 38.15 7.5 37.2 7.5 36.65 7.5 35.55 6.65 34.5 5.8 33.95 5.8 33.3 5.8 32.75 6.35 32.2 6.9 32.2 7.6"/>
    </path>
    <path d="M32.2 7.6 Q32.2 6.9 32.75 6.35 33.3 5.8 33.95 5.8 34.5 5.8 35.55 6.65 36.65 7.5 37.2 7.5 38.15 7.5 38.65 6.75 39.1 6.1 39.05 5.1 38.2 5.85 36.7 5.85 34.9 5.85 33.75 4.75 32.6 3.6 32.6 1.8 L32.9 -1.4 Q33.1 -3.35 35.05 -3.35 L36.25 -3.35 Q38.05 -3.35 38.05 -1.8 38.05 -1.1 37.6 -0.55 37.15 0.0 36.5 0.1 L36.4 1.15 Q36.4 1.7 36.8 2.05 37.2 2.45 37.75 2.45 39.4 2.45 39.6 0.05 39.0 0.0 38.7 -0.4 38.35 -0.85 38.35 -1.45 38.35 -2.25 38.95 -2.8 39.5 -3.35 40.3 -3.35 L41.8 -3.35 Q43.5 -3.35 43.5 -1.8 L43.5 -1.55 42.75 5.15 Q42.5 7.8 41.05 9.35 39.5 11.0 36.95 11.0 35.45 11.0 33.9 10.05 32.2 9.0 32.2 7.6" fill="none" stroke="#000000" stroke-linecap="round" stroke-linejoin="round" stroke-opacity="0.0" stroke-width="1.0">
      <animate attributeName="stroke" dur="2s" repeatCount="indefinite" values="#000000;#000001"/>
      <animate attributeName="stroke-width" dur="2s" repeatCount="indefinite" values="0.0;0.0"/>
      <animate attributeName="fill-opacity" dur="2s" repeatCount="indefinite" values="0.0;0.0"/>
      <animate attributeName="d" dur="2s" repeatCount="indefinite" values="M32.2 7.6 Q32.2 6.9 32.75 6.35 33.3 5.8 33.95 5.8 34.5 5.8 35.55 6.65 36.65 7.5 37.2 7.5 38.15 7.5 38.65 6.75 39.1 6.1 39.05 5.1 38.2 5.85 36.7 5.85 34.9 5.85 33.75 4.75 32.6 3.6 32.6 1.8 L32.9 -1.4 Q33.1 -3.35 35.05 -3.35 L36.25 -3.35 Q38.05 -3.35 38.05 -1.8 38.05 -1.1 37.6 -0.55 37.15 0.0 36.5 0.1 L36.4 1.15 Q36.4 1.7 36.8 2.05 37.2 2.45 37.75 2.45 39.4 2.45 39.6 0.05 39.0 0.0 38.7 -0.4 38.35 -0.85 38.35 -1.45 38.35 -2.25 38.95 -2.8 39.5 -3.35 40.3 -3.35 L41.8 -3.35 Q43.5 -3.35 43.5 -1.8 L43.5 -1.55 42.75 5.15 Q42.5 7.8 41.05 9.35 39.5 11.0 36.95 11.0 35.45 11.0 33.9 10.05 32.2 9.0 32.2 7.6;M32.2 7.6 Q32.2 6.9 32.75 6.35 33.3 5.8 33.95 5.8 34.5 5.8 35.55 6.65 36.65 7.5 37.2 7.5 38.15 7.5 38.65 6.75 39.1 6.1 39.05 5.1 38.2 5.85 36.7 5.85 34.9 5.85 33.75 4.75 32.6 3.6 32.6 1.8 L32.9 -1.4 Q33.1 -3.35 35.05 -3.35 L36.25 -3.35 Q38.05 -3.35 38.05 -1.8 38.05 -1.1 37.6 -0.55 37.15 0.0 36.5 0.1 L36.4 1.15 Q36.4 1.7 36.8 2.05 37.2 2.45 37.75 2.45 39.4 2.45 39.6 0.05 39.0 0.0 38.7 -0.4 38.35 -0.85 38.35 -1.45 38.35 -2.25 38.95 -2.8 39.5 -3.35 40.3 -3.35 L41.8 -3.35 Q43.5 -3.35 43.5 -1.8 L43.5 -1.55 42.75 5.15 Q42.5 7.8 41.05 9.35 39.5 11.0 36.95 11.0 35.45 11.0 33.9 10.05 32.2 9.0 32.2 7.6"/>
    </path>
  </g>
  <defs>
    <radialGradient cx="0" cy="0" gradientTransform="matrix(0.0106, 0.0, 0.0, 0.0106, 37.85, 3.85)" gradientUnits="userSpaceOnUse" id="gradient0" r="819.2" spreadMethod="pad">
      <animateTransform additive="replace" attributeName="gradientTransform" dur="2s" from="1" repeatCount="indefinite" to="1" type="scale"/>
      <animateTransform additive="sum" attributeName="gradientTransform" dur="2s" from="37.85 3.85" repeatCount="indefinite" to="37.85 3.85" type="translate"/>
      <animateTransform additive="sum" attributeName="gradientTransform" dur="2s" from="0.0" repeatCount="indefinite" to="0.0" type="rotate"/>
      <animateTransform additive="sum" attributeName="gradientTransform" dur="2s" from="0.0106 0.0106" repeatCount="indefinite" to="0.0106 0.0106" type="scale"/>
      <animateTransform additive="sum" attributeName="gradientTransform" dur="2s" from="0.0" repeatCount="indefinite" to="0.0" type="skewX"/>
      <stop offset="0.0" stop-color="#0a9709">
        <animate attributeName="offset" dur="2s" repeatCount="indefinite" values="0.0;0.0"/>
        <animate attributeName="stop-color" dur="2s" repeatCount="indefinite" values="#0a9709;#009901"/>
        <animate attributeName="stop-opacity" dur="2s" repeatCount="indefinite" values="1.0;1.0"/>
      </stop>
      <stop offset="0.5764705882352941" stop-color="#52d862">
        <animate attributeName="offset" dur="2s" repeatCount="indefinite" values="0.5764705882352941;0.5764705882352941"/>
        <animate attributeName="stop-color" dur="2s" repeatCount="indefinite" values="#52d862;#009901"/>
        <animate attributeName="stop-opacity" dur="2s" repeatCount="indefinite" values="1.0;1.0"/>
      </stop>
      <stop offset="1.0" stop-color="#ffffff">
        <animate attributeName="offset" dur="2s" repeatCount="indefinite" values="1.0;1.0"/>
        <animate attributeName="stop-color" dur="2s" repeatCount="indefinite" values="#ffffff;#009901"/>
        <animate attributeName="stop-opacity" dur="2s" repeatCount="indefinite" values="1.0;1.0"/>
      </stop>
    </radialGradient>
  </defs>
</svg>
