<?xml version="1.0" encoding="UTF-8" standalone="no"?>
<svg xmlns:xlink="http://www.w3.org/1999/xlink" height="10.65px" width="10.25px" xmlns="http://www.w3.org/2000/svg">
  <g transform="matrix(1.0, 0.0, 0.0, 1.0, -51.7, 5.0)">
    <path d="M51.7 4.05 Q51.7 5.65 53.3 5.65 L57.95 5.65 Q59.5 5.65 60.55 4.6 61.6 3.6 61.6 2.05 61.6 0.55 60.5 -0.25 59.55 -0.95 58.05 -0.95 L57.3 -0.9 56.55 -0.85 56.05 -1.0 56.1 -1.35 56.4 -1.5 61.75 -1.5 61.95 -3.3 Q61.95 -5.0 60.2 -5.0 L56.25 -5.0 Q54.5 -5.0 53.4 -4.05 52.2 -3.0 52.2 -1.35 52.2 0.1 53.3 0.9 54.25 1.65 55.75 1.65 L56.75 1.55 57.65 1.65 57.75 2.0 57.4 2.15 51.85 2.15 51.7 4.05" fill="url(#gradient0)" fill-rule="evenodd" stroke="none">
      <animate attributeName="d" dur="2s" repeatCount="indefinite" values="M51.7 4.05 Q51.7 5.65 53.3 5.65 L57.95 5.65 Q59.5 5.65 60.55 4.6 61.6 3.6 61.6 2.05 61.6 0.55 60.5 -0.25 59.55 -0.95 58.05 -0.95 L57.3 -0.9 56.55 -0.85 56.05 -1.0 56.1 -1.35 56.4 -1.5 61.75 -1.5 61.95 -3.3 Q61.95 -5.0 60.2 -5.0 L56.25 -5.0 Q54.5 -5.0 53.4 -4.05 52.2 -3.0 52.2 -1.35 52.2 0.1 53.3 0.9 54.25 1.65 55.75 1.65 L56.75 1.55 57.65 1.65 57.75 2.0 57.4 2.15 51.85 2.15 51.7 4.05;M51.7 4.05 Q51.7 5.65 53.3 5.65 L57.95 5.65 Q59.5 5.65 60.55 4.6 61.6 3.6 61.6 2.05 61.6 0.55 60.5 -0.25 59.55 -0.95 58.05 -0.95 L57.3 -0.9 56.55 -0.85 56.05 -1.0 56.1 -1.35 56.4 -1.5 61.75 -1.5 61.95 -3.3 Q61.95 -5.0 60.2 -5.0 L56.25 -5.0 Q54.5 -5.0 53.4 -4.05 52.2 -3.0 52.2 -1.35 52.2 0.1 53.3 0.9 54.25 1.65 55.75 1.65 L56.75 1.55 57.65 1.65 57.75 2.0 57.4 2.15 51.85 2.15 51.7 4.05"/>
    </path>
    <path d="M51.7 4.05 L51.85 2.15 57.4 2.15 57.75 2.0 57.65 1.65 56.75 1.55 55.75 1.65 Q54.25 1.65 53.3 0.9 52.2 0.1 52.2 -1.35 52.2 -3.0 53.4 -4.05 54.5 -5.0 56.25 -5.0 L60.2 -5.0 Q61.95 -5.0 61.95 -3.3 L61.75 -1.5 56.4 -1.5 56.1 -1.35 56.05 -1.0 56.55 -0.85 57.3 -0.9 58.05 -0.95 Q59.55 -0.95 60.5 -0.25 61.6 0.55 61.6 2.05 61.6 3.6 60.55 4.6 59.5 5.65 57.95 5.65 L53.3 5.65 Q51.7 5.65 51.7 4.05" fill="none" stroke="#000000" stroke-linecap="round" stroke-linejoin="round" stroke-opacity="0.0" stroke-width="1.0">
      <animate attributeName="stroke" dur="2s" repeatCount="indefinite" values="#000000;#000001"/>
      <animate attributeName="stroke-width" dur="2s" repeatCount="indefinite" values="0.0;0.0"/>
      <animate attributeName="fill-opacity" dur="2s" repeatCount="indefinite" values="0.0;0.0"/>
      <animate attributeName="d" dur="2s" repeatCount="indefinite" values="M51.7 4.05 L51.85 2.15 57.4 2.15 57.75 2.0 57.65 1.65 56.75 1.55 55.75 1.65 Q54.25 1.65 53.3 0.9 52.2 0.1 52.2 -1.35 52.2 -3.0 53.4 -4.05 54.5 -5.0 56.25 -5.0 L60.2 -5.0 Q61.95 -5.0 61.95 -3.3 L61.75 -1.5 56.4 -1.5 56.1 -1.35 56.05 -1.0 56.55 -0.85 57.3 -0.9 58.05 -0.95 Q59.55 -0.95 60.5 -0.25 61.6 0.55 61.6 2.05 61.6 3.6 60.55 4.6 59.5 5.65 57.95 5.65 L53.3 5.65 Q51.7 5.65 51.7 4.05;M51.7 4.05 L51.85 2.15 57.4 2.15 57.75 2.0 57.65 1.65 56.75 1.55 55.75 1.65 Q54.25 1.65 53.3 0.9 52.2 0.1 52.2 -1.35 52.2 -3.0 53.4 -4.05 54.5 -5.0 56.25 -5.0 L60.2 -5.0 Q61.95 -5.0 61.95 -3.3 L61.75 -1.5 56.4 -1.5 56.1 -1.35 56.05 -1.0 56.55 -0.85 57.3 -0.9 58.05 -0.95 Q59.55 -0.95 60.5 -0.25 61.6 0.55 61.6 2.05 61.6 3.6 60.55 4.6 59.5 5.65 57.95 5.65 L53.3 5.65 Q51.7 5.65 51.7 4.05"/>
    </path>
  </g>
  <defs>
    <radialGradient cx="0" cy="0" gradientTransform="matrix(0.0092, 0.0, 0.0, 0.0092, 56.25, 0.75)" gradientUnits="userSpaceOnUse" id="gradient0" r="819.2" spreadMethod="pad">
      <animateTransform additive="replace" attributeName="gradientTransform" dur="2s" from="1" repeatCount="indefinite" to="1" type="scale"/>
      <animateTransform additive="sum" attributeName="gradientTransform" dur="2s" from="56.25 0.75" repeatCount="indefinite" to="56.25 0.75" type="translate"/>
      <animateTransform additive="sum" attributeName="gradientTransform" dur="2s" from="0.0" repeatCount="indefinite" to="0.0" type="rotate"/>
      <animateTransform additive="sum" attributeName="gradientTransform" dur="2s" from="0.0092 0.0092" repeatCount="indefinite" to="0.0092 0.0092" type="scale"/>
      <animateTransform additive="sum" attributeName="gradientTransform" dur="2s" from="0.0" repeatCount="indefinite" to="0.0" type="skewX"/>
      <stop offset="0.0" stop-color="#009900">
        <animate attributeName="offset" dur="2s" repeatCount="indefinite" values="0.0;0.0"/>
        <animate attributeName="stop-color" dur="2s" repeatCount="indefinite" values="#009900;#0a970a"/>
        <animate attributeName="stop-opacity" dur="2s" repeatCount="indefinite" values="1.0;1.0"/>
      </stop>
      <stop offset="0.5764705882352941" stop-color="#009900">
        <animate attributeName="offset" dur="2s" repeatCount="indefinite" values="0.5764705882352941;0.5764705882352941"/>
        <animate attributeName="stop-color" dur="2s" repeatCount="indefinite" values="#009900;#52d863"/>
        <animate attributeName="stop-opacity" dur="2s" repeatCount="indefinite" values="1.0;1.0"/>
      </stop>
      <stop offset="1.0" stop-color="#009900">
        <animate attributeName="offset" dur="2s" repeatCount="indefinite" values="1.0;1.0"/>
        <animate attributeName="stop-color" dur="2s" repeatCount="indefinite" values="#009900;#ffffff"/>
        <animate attributeName="stop-opacity" dur="2s" repeatCount="indefinite" values="1.0;1.0"/>
      </stop>
    </radialGradient>
  </defs>
</svg>
