<?xml version="1.0" encoding="UTF-8" standalone="no"?>
<svg xmlns:xlink="http://www.w3.org/1999/xlink" height="14.6px" width="10.7px" xmlns="http://www.w3.org/2000/svg">
  <g transform="matrix(1.0, 0.0, 0.0, 1.0, 35.55, 8.65)">
    <path d="M-35.55 0.95 L-35.55 1.55 Q-35.55 3.5 -34.3 4.75 -33.0 5.95 -31.05 5.95 -28.9 5.95 -27.15 4.55 -25.3 3.0 -25.3 0.9 -25.3 0.2 -25.8 -0.25 -26.25 -0.7 -26.95 -0.7 -27.95 -0.7 -28.5 0.1 L-29.3 1.6 Q-29.75 2.45 -30.6 2.45 L-31.35 2.1 -31.65 1.4 -31.6 1.05 -31.6 0.75 -31.35 -1.65 -26.95 -1.65 Q-26.05 -1.65 -25.45 -2.1 -24.85 -2.6 -24.85 -3.45 -24.85 -4.2 -25.3 -4.6 -25.8 -5.0 -26.5 -5.0 L-31.0 -5.0 -30.85 -6.8 Q-30.85 -7.6 -31.3 -8.15 -31.8 -8.65 -32.6 -8.65 -33.5 -8.65 -34.1 -7.95 -34.65 -7.35 -34.75 -6.4 L-35.55 0.95" fill="url(#gradient0)" fill-rule="evenodd" stroke="none">
      <animate attributeName="d" dur="2s" repeatCount="indefinite" values="M-35.55 0.95 L-35.55 1.55 Q-35.55 3.5 -34.3 4.75 -33.0 5.95 -31.05 5.95 -28.9 5.95 -27.15 4.55 -25.3 3.0 -25.3 0.9 -25.3 0.2 -25.8 -0.25 -26.25 -0.7 -26.95 -0.7 -27.95 -0.7 -28.5 0.1 L-29.3 1.6 Q-29.75 2.45 -30.6 2.45 L-31.35 2.1 -31.65 1.4 -31.6 1.05 -31.6 0.75 -31.35 -1.65 -26.95 -1.65 Q-26.05 -1.65 -25.45 -2.1 -24.85 -2.6 -24.85 -3.45 -24.85 -4.2 -25.3 -4.6 -25.8 -5.0 -26.5 -5.0 L-31.0 -5.0 -30.85 -6.8 Q-30.85 -7.6 -31.3 -8.15 -31.8 -8.65 -32.6 -8.65 -33.5 -8.65 -34.1 -7.95 -34.65 -7.35 -34.75 -6.4 L-35.55 0.95;M-35.55 0.95 L-35.55 1.55 Q-35.55 3.5 -34.3 4.75 -33.0 5.95 -31.05 5.95 -28.9 5.95 -27.15 4.55 -25.3 3.0 -25.3 0.9 -25.3 0.2 -25.8 -0.25 -26.25 -0.7 -26.95 -0.7 -27.95 -0.7 -28.5 0.1 L-29.3 1.6 Q-29.75 2.45 -30.6 2.45 L-31.35 2.1 -31.65 1.4 -31.6 1.05 -31.6 0.75 -31.35 -1.65 -26.95 -1.65 Q-26.05 -1.65 -25.45 -2.1 -24.85 -2.6 -24.85 -3.45 -24.85 -4.2 -25.3 -4.6 -25.8 -5.0 -26.5 -5.0 L-31.0 -5.0 -30.85 -6.8 Q-30.85 -7.6 -31.3 -8.15 -31.8 -8.65 -32.6 -8.65 -33.5 -8.65 -34.1 -7.95 -34.65 -7.35 -34.75 -6.4 L-35.55 0.95"/>
    </path>
    <path d="M-35.55 0.95 L-34.75 -6.4 Q-34.65 -7.35 -34.1 -7.95 -33.5 -8.65 -32.6 -8.65 -31.8 -8.65 -31.3 -8.15 -30.85 -7.6 -30.85 -6.8 L-31.0 -5.0 -26.5 -5.0 Q-25.8 -5.0 -25.3 -4.6 -24.85 -4.2 -24.85 -3.45 -24.85 -2.6 -25.45 -2.1 -26.05 -1.65 -26.95 -1.65 L-31.35 -1.65 -31.6 0.75 -31.6 1.05 -31.65 1.4 -31.35 2.1 -30.6 2.45 Q-29.75 2.45 -29.3 1.6 L-28.5 0.1 Q-27.95 -0.7 -26.95 -0.7 -26.25 -0.7 -25.8 -0.25 -25.3 0.2 -25.3 0.9 -25.3 3.0 -27.15 4.55 -28.9 5.95 -31.05 5.95 -33.0 5.95 -34.3 4.75 -35.55 3.5 -35.55 1.55 L-35.55 0.95" fill="none" stroke="#000000" stroke-linecap="round" stroke-linejoin="round" stroke-opacity="0.0" stroke-width="1.0">
      <animate attributeName="stroke" dur="2s" repeatCount="indefinite" values="#000000;#000001"/>
      <animate attributeName="stroke-width" dur="2s" repeatCount="indefinite" values="0.0;0.0"/>
      <animate attributeName="fill-opacity" dur="2s" repeatCount="indefinite" values="0.0;0.0"/>
      <animate attributeName="d" dur="2s" repeatCount="indefinite" values="M-35.55 0.95 L-34.75 -6.4 Q-34.65 -7.35 -34.1 -7.95 -33.5 -8.65 -32.6 -8.65 -31.8 -8.65 -31.3 -8.15 -30.85 -7.6 -30.85 -6.8 L-31.0 -5.0 -26.5 -5.0 Q-25.8 -5.0 -25.3 -4.6 -24.85 -4.2 -24.85 -3.45 -24.85 -2.6 -25.45 -2.1 -26.05 -1.65 -26.95 -1.65 L-31.35 -1.65 -31.6 0.75 -31.6 1.05 -31.65 1.4 -31.35 2.1 -30.6 2.45 Q-29.75 2.45 -29.3 1.6 L-28.5 0.1 Q-27.95 -0.7 -26.95 -0.7 -26.25 -0.7 -25.8 -0.25 -25.3 0.2 -25.3 0.9 -25.3 3.0 -27.15 4.55 -28.9 5.95 -31.05 5.95 -33.0 5.95 -34.3 4.75 -35.55 3.5 -35.55 1.55 L-35.55 0.95;M-35.55 0.95 L-34.75 -6.4 Q-34.65 -7.35 -34.1 -7.95 -33.5 -8.65 -32.6 -8.65 -31.8 -8.65 -31.3 -8.15 -30.85 -7.6 -30.85 -6.8 L-31.0 -5.0 -26.5 -5.0 Q-25.8 -5.0 -25.3 -4.6 -24.85 -4.2 -24.85 -3.45 -24.85 -2.6 -25.45 -2.1 -26.05 -1.65 -26.95 -1.65 L-31.35 -1.65 -31.6 0.75 -31.6 1.05 -31.65 1.4 -31.35 2.1 -30.6 2.45 Q-29.75 2.45 -29.3 1.6 L-28.5 0.1 Q-27.95 -0.7 -26.95 -0.7 -26.25 -0.7 -25.8 -0.25 -25.3 0.2 -25.3 0.9 -25.3 3.0 -27.15 4.55 -28.9 5.95 -31.05 5.95 -33.0 5.95 -34.3 4.75 -35.55 3.5 -35.55 1.55 L-35.55 0.95"/>
    </path>
  </g>
  <defs>
    <radialGradient cx="0" cy="0" gradientTransform="matrix(0.0108, 0.0, 0.0, 0.0108, -32.5, -0.5)" gradientUnits="userSpaceOnUse" id="gradient0" r="819.2" spreadMethod="pad">
      <animateTransform additive="replace" attributeName="gradientTransform" dur="2s" from="1" repeatCount="indefinite" to="1" type="scale"/>
      <animateTransform additive="sum" attributeName="gradientTransform" dur="2s" from="-32.5 -0.5" repeatCount="indefinite" to="-32.5 -0.5" type="translate"/>
      <animateTransform additive="sum" attributeName="gradientTransform" dur="2s" from="0.0" repeatCount="indefinite" to="0.0" type="rotate"/>
      <animateTransform additive="sum" attributeName="gradientTransform" dur="2s" from="0.0108 0.0108" repeatCount="indefinite" to="0.0108 0.0108" type="scale"/>
      <animateTransform additive="sum" attributeName="gradientTransform" dur="2s" from="0.0" repeatCount="indefinite" to="0.0" type="skewX"/>
      <stop offset="0.0" stop-color="#009900">
        <animate attributeName="offset" dur="2s" repeatCount="indefinite" values="0.0;0.0"/>
        <animate attributeName="stop-color" dur="2s" repeatCount="indefinite" values="#009900;#0a970a"/>
        <animate attributeName="stop-opacity" dur="2s" repeatCount="indefinite" values="1.0;1.0"/>
      </stop>
      <stop offset="0.5764705882352941" stop-color="#009900">
        <animate attributeName="offset" dur="2s" repeatCount="indefinite" values="0.5764705882352941;0.5764705882352941"/>
        <animate attributeName="stop-color" dur="2s" repeatCount="indefinite" values="#009900;#52d863"/>
        <animate attributeName="stop-opacity" dur="2s" repeatCount="indefinite" values="1.0;1.0"/>
      </stop>
      <stop offset="1.0" stop-color="#009900">
        <animate attributeName="offset" dur="2s" repeatCount="indefinite" values="1.0;1.0"/>
        <animate attributeName="stop-color" dur="2s" repeatCount="indefinite" values="#009900;#ffffff"/>
        <animate attributeName="stop-opacity" dur="2s" repeatCount="indefinite" values="1.0;1.0"/>
      </stop>
    </radialGradient>
  </defs>
</svg>
