<?xml version="1.0" encoding="UTF-8" standalone="no"?>
<svg xmlns:xlink="http://www.w3.org/1999/xlink" height="11.0px" width="11.55px" xmlns="http://www.w3.org/2000/svg">
  <g transform="matrix(1.0, 0.0, 0.0, 1.0, 58.6, 5.35)">
    <path d="M-58.6 4.05 Q-58.6 5.65 -56.9 5.65 L-55.5 5.65 Q-54.6 5.65 -53.95 5.1 -53.25 4.5 -53.25 3.65 -53.25 3.05 -53.6 2.6 -53.95 2.15 -54.5 2.05 L-54.25 -0.15 -53.7 -1.25 -52.45 -1.7 Q-51.05 -1.7 -51.05 -0.2 L-51.3 2.05 -52.45 2.7 Q-52.9 3.25 -52.9 3.95 -52.9 4.75 -52.4 5.2 -51.85 5.65 -51.05 5.65 L-49.6 5.65 Q-47.75 5.65 -47.5 3.7 L-47.05 -0.65 -47.05 -0.95 Q-47.05 -3.15 -48.5 -4.25 -49.8 -5.35 -52.0 -5.35 -54.55 -5.35 -56.15 -4.1 -57.6 -3.0 -58.05 -0.85 L-58.55 3.0 -58.6 4.05" fill="url(#gradient0)" fill-rule="evenodd" stroke="none">
      <animate attributeName="d" dur="2s" repeatCount="indefinite" values="M-58.6 4.05 Q-58.6 5.65 -56.9 5.65 L-55.5 5.65 Q-54.6 5.65 -53.95 5.1 -53.25 4.5 -53.25 3.65 -53.25 3.05 -53.6 2.6 -53.95 2.15 -54.5 2.05 L-54.25 -0.15 -53.7 -1.25 -52.45 -1.7 Q-51.05 -1.7 -51.05 -0.2 L-51.3 2.05 -52.45 2.7 Q-52.9 3.25 -52.9 3.95 -52.9 4.75 -52.4 5.2 -51.85 5.65 -51.05 5.65 L-49.6 5.65 Q-47.75 5.65 -47.5 3.7 L-47.05 -0.65 -47.05 -0.95 Q-47.05 -3.15 -48.5 -4.25 -49.8 -5.35 -52.0 -5.35 -54.55 -5.35 -56.15 -4.1 -57.6 -3.0 -58.05 -0.85 L-58.55 3.0 -58.6 4.05;M-58.6 4.05 Q-58.6 5.65 -56.9 5.65 L-55.5 5.65 Q-54.6 5.65 -53.95 5.1 -53.25 4.5 -53.25 3.65 -53.25 3.05 -53.6 2.6 -53.95 2.15 -54.5 2.05 L-54.25 -0.15 -53.7 -1.25 -52.45 -1.7 Q-51.05 -1.7 -51.05 -0.2 L-51.3 2.05 -52.45 2.7 Q-52.9 3.25 -52.9 3.95 -52.9 4.75 -52.4 5.2 -51.85 5.65 -51.05 5.65 L-49.6 5.65 Q-47.75 5.65 -47.5 3.7 L-47.05 -0.65 -47.05 -0.95 Q-47.05 -3.15 -48.5 -4.25 -49.8 -5.35 -52.0 -5.35 -54.55 -5.35 -56.15 -4.1 -57.6 -3.0 -58.05 -0.85 L-58.55 3.0 -58.6 4.05"/>
    </path>
    <path d="M-58.6 4.05 L-58.55 3.0 -58.05 -0.85 Q-57.6 -3.0 -56.15 -4.1 -54.55 -5.35 -52.0 -5.35 -49.8 -5.35 -48.5 -4.25 -47.05 -3.15 -47.05 -0.95 L-47.05 -0.65 -47.5 3.7 Q-47.75 5.65 -49.6 5.65 L-51.05 5.65 Q-51.85 5.65 -52.4 5.2 -52.9 4.75 -52.9 3.95 -52.9 3.25 -52.45 2.7 L-51.3 2.05 -51.05 -0.2 Q-51.05 -1.7 -52.45 -1.7 L-53.7 -1.25 -54.25 -0.15 -54.5 2.05 Q-53.95 2.15 -53.6 2.6 -53.25 3.05 -53.25 3.65 -53.25 4.5 -53.95 5.1 -54.6 5.65 -55.5 5.65 L-56.9 5.65 Q-58.6 5.65 -58.6 4.05" fill="none" stroke="#000000" stroke-linecap="round" stroke-linejoin="round" stroke-opacity="0.0" stroke-width="1.0">
      <animate attributeName="stroke" dur="2s" repeatCount="indefinite" values="#000000;#000001"/>
      <animate attributeName="stroke-width" dur="2s" repeatCount="indefinite" values="0.0;0.0"/>
      <animate attributeName="fill-opacity" dur="2s" repeatCount="indefinite" values="0.0;0.0"/>
      <animate attributeName="d" dur="2s" repeatCount="indefinite" values="M-58.6 4.05 L-58.55 3.0 -58.05 -0.85 Q-57.6 -3.0 -56.15 -4.1 -54.55 -5.35 -52.0 -5.35 -49.8 -5.35 -48.5 -4.25 -47.05 -3.15 -47.05 -0.95 L-47.05 -0.65 -47.5 3.7 Q-47.75 5.65 -49.6 5.65 L-51.05 5.65 Q-51.85 5.65 -52.4 5.2 -52.9 4.75 -52.9 3.95 -52.9 3.25 -52.45 2.7 L-51.3 2.05 -51.05 -0.2 Q-51.05 -1.7 -52.45 -1.7 L-53.7 -1.25 -54.25 -0.15 -54.5 2.05 Q-53.95 2.15 -53.6 2.6 -53.25 3.05 -53.25 3.65 -53.25 4.5 -53.95 5.1 -54.6 5.65 -55.5 5.65 L-56.9 5.65 Q-58.6 5.65 -58.6 4.05;M-58.6 4.05 L-58.55 3.0 -58.05 -0.85 Q-57.6 -3.0 -56.15 -4.1 -54.55 -5.35 -52.0 -5.35 -49.8 -5.35 -48.5 -4.25 -47.05 -3.15 -47.05 -0.95 L-47.05 -0.65 -47.5 3.7 Q-47.75 5.65 -49.6 5.65 L-51.05 5.65 Q-51.85 5.65 -52.4 5.2 -52.9 4.75 -52.9 3.95 -52.9 3.25 -52.45 2.7 L-51.3 2.05 -51.05 -0.2 Q-51.05 -1.7 -52.45 -1.7 L-53.7 -1.25 -54.25 -0.15 -54.5 2.05 Q-53.95 2.15 -53.6 2.6 -53.25 3.05 -53.25 3.65 -53.25 4.5 -53.95 5.1 -54.6 5.65 -55.5 5.65 L-56.9 5.65 Q-58.6 5.65 -58.6 4.05"/>
    </path>
  </g>
  <defs>
    <radialGradient cx="0" cy="0" gradientTransform="matrix(0.0132, 0.0, 0.0, 0.0132, -52.75, -2.75)" gradientUnits="userSpaceOnUse" id="gradient0" r="819.2" spreadMethod="pad">
      <animateTransform additive="replace" attributeName="gradientTransform" dur="2s" from="1" repeatCount="indefinite" to="1" type="scale"/>
      <animateTransform additive="sum" attributeName="gradientTransform" dur="2s" from="-52.75 -2.75" repeatCount="indefinite" to="-52.75 -2.75" type="translate"/>
      <animateTransform additive="sum" attributeName="gradientTransform" dur="2s" from="0.0" repeatCount="indefinite" to="0.0" type="rotate"/>
      <animateTransform additive="sum" attributeName="gradientTransform" dur="2s" from="0.0132 0.0132" repeatCount="indefinite" to="0.0132 0.0132" type="scale"/>
      <animateTransform additive="sum" attributeName="gradientTransform" dur="2s" from="0.0" repeatCount="indefinite" to="0.0" type="skewX"/>
      <stop offset="0.0" stop-color="#009900">
        <animate attributeName="offset" dur="2s" repeatCount="indefinite" values="0.0;0.0"/>
        <animate attributeName="stop-color" dur="2s" repeatCount="indefinite" values="#009900;#0a970a"/>
        <animate attributeName="stop-opacity" dur="2s" repeatCount="indefinite" values="1.0;1.0"/>
      </stop>
      <stop offset="0.5764705882352941" stop-color="#009900">
        <animate attributeName="offset" dur="2s" repeatCount="indefinite" values="0.5764705882352941;0.5764705882352941"/>
        <animate attributeName="stop-color" dur="2s" repeatCount="indefinite" values="#009900;#52d863"/>
        <animate attributeName="stop-opacity" dur="2s" repeatCount="indefinite" values="1.0;1.0"/>
      </stop>
      <stop offset="1.0" stop-color="#009900">
        <animate attributeName="offset" dur="2s" repeatCount="indefinite" values="1.0;1.0"/>
        <animate attributeName="stop-color" dur="2s" repeatCount="indefinite" values="#009900;#ffffff"/>
        <animate attributeName="stop-opacity" dur="2s" repeatCount="indefinite" values="1.0;1.0"/>
      </stop>
    </radialGradient>
  </defs>
</svg>
