<?xml version="1.0" encoding="UTF-8" standalone="no"?>
<svg xmlns:xlink="http://www.w3.org/1999/xlink" height="11.25px" width="12.25px" xmlns="http://www.w3.org/2000/svg">
  <g transform="matrix(1.0, 0.0, 0.0, 1.0, -27.0, 5.3)">
    <path d="M31.15 0.65 Q31.15 1.45 32.85 2.55 33.85 2.55 34.5 1.75 35.1 1.05 35.1 0.0 35.1 -0.8 34.6 -1.35 L31.75 -1.1 Q31.15 -0.35 31.15 0.65 M27.0 0.95 Q27.0 3.25 28.6 4.65 30.1 5.95 32.45 5.95 35.3 5.95 37.2 4.25 39.25 2.45 39.25 -0.35 39.25 -2.65 37.6 -4.05 36.1 -5.3 33.7 -5.3 30.9 -5.3 29.0 -3.6 27.0 -1.85 27.0 0.95" fill="url(#gradient0)" fill-rule="evenodd" stroke="none">
      <animate attributeName="d" dur="2s" repeatCount="indefinite" values="M31.15 0.65 Q31.15 1.45 32.85 2.55 33.85 2.55 34.5 1.75 35.1 1.05 35.1 0.0 35.1 -0.8 34.6 -1.35 L31.75 -1.1 Q31.15 -0.35 31.15 0.65 M27.0 0.95 Q27.0 3.25 28.6 4.65 30.1 5.95 32.45 5.95 35.3 5.95 37.2 4.25 39.25 2.45 39.25 -0.35 39.25 -2.65 37.6 -4.05 36.1 -5.3 33.7 -5.3 30.9 -5.3 29.0 -3.6 27.0 -1.85 27.0 0.95;M31.15 0.65 Q31.15 1.45 32.85 2.55 33.85 2.55 34.5 1.75 35.1 1.05 35.1 0.0 35.1 -0.8 34.6 -1.35 L31.75 -1.1 Q31.15 -0.35 31.15 0.65 M27.0 0.95 Q27.0 3.25 28.6 4.65 30.1 5.95 32.45 5.95 35.3 5.95 37.2 4.25 39.25 2.45 39.25 -0.35 39.25 -2.65 37.6 -4.05 36.1 -5.3 33.7 -5.3 30.9 -5.3 29.0 -3.6 27.0 -1.85 27.0 0.95"/>
    </path>
    <path d="M27.0 0.95 Q27.0 -1.85 29.0 -3.6 30.9 -5.3 33.7 -5.3 36.1 -5.3 37.6 -4.05 39.25 -2.65 39.25 -0.35 39.25 2.45 37.2 4.25 35.3 5.95 32.45 5.95 30.1 5.95 28.6 4.65 27.0 3.25 27.0 0.95 M31.15 0.65 Q31.15 -0.35 31.75 -1.1 L34.6 -1.35 Q35.1 -0.8 35.1 0.0 35.1 1.05 34.5 1.75 33.85 2.55 32.85 2.55 31.15 1.45 31.15 0.65" fill="none" stroke="#000000" stroke-linecap="round" stroke-linejoin="round" stroke-opacity="0.0" stroke-width="1.0">
      <animate attributeName="stroke" dur="2s" repeatCount="indefinite" values="#000000;#000001"/>
      <animate attributeName="stroke-width" dur="2s" repeatCount="indefinite" values="0.0;0.0"/>
      <animate attributeName="fill-opacity" dur="2s" repeatCount="indefinite" values="0.0;0.0"/>
      <animate attributeName="d" dur="2s" repeatCount="indefinite" values="M27.0 0.95 Q27.0 -1.85 29.0 -3.6 30.9 -5.3 33.7 -5.3 36.1 -5.3 37.6 -4.05 39.25 -2.65 39.25 -0.35 39.25 2.45 37.2 4.25 35.3 5.95 32.45 5.95 30.1 5.95 28.6 4.65 27.0 3.25 27.0 0.95 M31.15 0.65 Q31.15 -0.35 31.75 -1.1 L34.6 -1.35 Q35.1 -0.8 35.1 0.0 35.1 1.05 34.5 1.75 33.85 2.55 32.85 2.55 31.15 1.45 31.15 0.65;M27.0 0.95 Q27.0 -1.85 29.0 -3.6 30.9 -5.3 33.7 -5.3 36.1 -5.3 37.6 -4.05 39.25 -2.65 39.25 -0.35 39.25 2.45 37.2 4.25 35.3 5.95 32.45 5.95 30.1 5.95 28.6 4.65 27.0 3.25 27.0 0.95 M31.15 0.65 Q31.15 -0.35 31.75 -1.1 L34.6 -1.35 Q35.1 -0.8 35.1 0.0 35.1 1.05 34.5 1.75 33.85 2.55 32.85 2.55 31.15 1.45 31.15 0.65"/>
    </path>
  </g>
  <defs>
    <radialGradient cx="0" cy="0" gradientTransform="matrix(0.0085, 0.0011, -0.0011, 0.0085, 33.4, 0.0)" gradientUnits="userSpaceOnUse" id="gradient0" r="819.2" spreadMethod="pad">
      <animateTransform additive="replace" attributeName="gradientTransform" dur="2s" from="1" repeatCount="indefinite" to="1" type="scale"/>
      <animateTransform additive="sum" attributeName="gradientTransform" dur="2s" from="33.4 0.0" repeatCount="indefinite" to="33.4 0.0" type="translate"/>
      <animateTransform additive="sum" attributeName="gradientTransform" dur="2s" from="7.2014" repeatCount="indefinite" to="7.2014" type="rotate"/>
      <animateTransform additive="sum" attributeName="gradientTransform" dur="2s" from="0.0085 0.0085" repeatCount="indefinite" to="0.0085 0.0085" type="scale"/>
      <animateTransform additive="sum" attributeName="gradientTransform" dur="2s" from="0.0" repeatCount="indefinite" to="0.0" type="skewX"/>
      <stop offset="0.0" stop-color="#0a9709">
        <animate attributeName="offset" dur="2s" repeatCount="indefinite" values="0.0;0.0"/>
        <animate attributeName="stop-color" dur="2s" repeatCount="indefinite" values="#0a9709;#009901"/>
        <animate attributeName="stop-opacity" dur="2s" repeatCount="indefinite" values="1.0;1.0"/>
      </stop>
      <stop offset="0.5764705882352941" stop-color="#52d862">
        <animate attributeName="offset" dur="2s" repeatCount="indefinite" values="0.5764705882352941;0.5764705882352941"/>
        <animate attributeName="stop-color" dur="2s" repeatCount="indefinite" values="#52d862;#009901"/>
        <animate attributeName="stop-opacity" dur="2s" repeatCount="indefinite" values="1.0;1.0"/>
      </stop>
      <stop offset="1.0" stop-color="#ffffff">
        <animate attributeName="offset" dur="2s" repeatCount="indefinite" values="1.0;1.0"/>
        <animate attributeName="stop-color" dur="2s" repeatCount="indefinite" values="#ffffff;#009901"/>
        <animate attributeName="stop-opacity" dur="2s" repeatCount="indefinite" values="1.0;1.0"/>
      </stop>
    </radialGradient>
  </defs>
</svg>
