<?xml version="1.0" encoding="UTF-8" standalone="no"?>
<svg xmlns:xlink="http://www.w3.org/1999/xlink" height="14.6px" width="10.7px" xmlns="http://www.w3.org/2000/svg">
  <g transform="matrix(1.0, 0.0, 0.0, 1.0, -10.1, 8.65)">
    <path d="M10.1 0.95 L10.1 1.55 Q10.1 3.5 11.35 4.75 12.65 5.95 14.6 5.95 16.75 5.95 18.5 4.55 20.35 3.0 20.35 0.9 20.35 0.2 19.85 -0.25 19.4 -0.7 18.7 -0.7 17.7 -0.7 17.15 0.1 L16.35 1.6 Q15.9 2.45 15.05 2.45 14.65 2.45 14.3 2.1 14.0 1.85 14.0 1.4 L14.05 1.05 14.05 0.75 14.3 -1.65 18.7 -1.65 Q19.6 -1.65 20.2 -2.1 20.8 -2.6 20.8 -3.45 20.8 -4.2 20.35 -4.6 19.85 -5.0 19.15 -5.0 L14.65 -5.0 14.8 -6.8 14.35 -8.15 Q13.85 -8.65 13.05 -8.65 12.15 -8.65 11.55 -7.95 11.0 -7.35 10.9 -6.4 L10.1 0.95" fill="url(#gradient0)" fill-rule="evenodd" stroke="none">
      <animate attributeName="d" dur="2s" repeatCount="indefinite" values="M10.1 0.95 L10.1 1.55 Q10.1 3.5 11.35 4.75 12.65 5.95 14.6 5.95 16.75 5.95 18.5 4.55 20.35 3.0 20.35 0.9 20.35 0.2 19.85 -0.25 19.4 -0.7 18.7 -0.7 17.7 -0.7 17.15 0.1 L16.35 1.6 Q15.9 2.45 15.05 2.45 14.65 2.45 14.3 2.1 14.0 1.85 14.0 1.4 L14.05 1.05 14.05 0.75 14.3 -1.65 18.7 -1.65 Q19.6 -1.65 20.2 -2.1 20.8 -2.6 20.8 -3.45 20.8 -4.2 20.35 -4.6 19.85 -5.0 19.15 -5.0 L14.65 -5.0 14.8 -6.8 14.35 -8.15 Q13.85 -8.65 13.05 -8.65 12.15 -8.65 11.55 -7.95 11.0 -7.35 10.9 -6.4 L10.1 0.95;M10.1 0.95 L10.1 1.55 Q10.1 3.5 11.35 4.75 12.65 5.95 14.6 5.95 16.75 5.95 18.5 4.55 20.35 3.0 20.35 0.9 20.35 0.2 19.85 -0.25 19.4 -0.7 18.7 -0.7 17.7 -0.7 17.15 0.1 L16.35 1.6 Q15.9 2.45 15.05 2.45 14.65 2.45 14.3 2.1 14.0 1.85 14.0 1.4 L14.05 1.05 14.05 0.75 14.3 -1.65 18.7 -1.65 Q19.6 -1.65 20.2 -2.1 20.8 -2.6 20.8 -3.45 20.8 -4.2 20.35 -4.6 19.85 -5.0 19.15 -5.0 L14.65 -5.0 14.8 -6.8 14.35 -8.15 Q13.85 -8.65 13.05 -8.65 12.15 -8.65 11.55 -7.95 11.0 -7.35 10.9 -6.4 L10.1 0.95"/>
    </path>
    <path d="M10.1 0.95 L10.9 -6.4 Q11.0 -7.35 11.55 -7.95 12.15 -8.65 13.05 -8.65 13.85 -8.65 14.35 -8.15 L14.8 -6.8 14.65 -5.0 19.15 -5.0 Q19.85 -5.0 20.35 -4.6 20.8 -4.2 20.8 -3.45 20.8 -2.6 20.2 -2.1 19.6 -1.65 18.7 -1.65 L14.3 -1.65 14.05 0.75 14.05 1.05 14.0 1.4 Q14.0 1.85 14.3 2.1 14.65 2.45 15.05 2.45 15.9 2.45 16.35 1.6 L17.15 0.1 Q17.7 -0.7 18.7 -0.7 19.4 -0.7 19.85 -0.25 20.35 0.2 20.35 0.9 20.35 3.0 18.5 4.55 16.75 5.95 14.6 5.95 12.65 5.95 11.35 4.75 10.1 3.5 10.1 1.55 L10.1 0.95" fill="none" stroke="#000000" stroke-linecap="round" stroke-linejoin="round" stroke-opacity="0.0" stroke-width="1.0">
      <animate attributeName="stroke" dur="2s" repeatCount="indefinite" values="#000000;#000001"/>
      <animate attributeName="stroke-width" dur="2s" repeatCount="indefinite" values="0.0;0.0"/>
      <animate attributeName="fill-opacity" dur="2s" repeatCount="indefinite" values="0.0;0.0"/>
      <animate attributeName="d" dur="2s" repeatCount="indefinite" values="M10.1 0.95 L10.9 -6.4 Q11.0 -7.35 11.55 -7.95 12.15 -8.65 13.05 -8.65 13.85 -8.65 14.35 -8.15 L14.8 -6.8 14.65 -5.0 19.15 -5.0 Q19.85 -5.0 20.35 -4.6 20.8 -4.2 20.8 -3.45 20.8 -2.6 20.2 -2.1 19.6 -1.65 18.7 -1.65 L14.3 -1.65 14.05 0.75 14.05 1.05 14.0 1.4 Q14.0 1.85 14.3 2.1 14.65 2.45 15.05 2.45 15.9 2.45 16.35 1.6 L17.15 0.1 Q17.7 -0.7 18.7 -0.7 19.4 -0.7 19.85 -0.25 20.35 0.2 20.35 0.9 20.35 3.0 18.5 4.55 16.75 5.95 14.6 5.95 12.65 5.95 11.35 4.75 10.1 3.5 10.1 1.55 L10.1 0.95;M10.1 0.95 L10.9 -6.4 Q11.0 -7.35 11.55 -7.95 12.15 -8.65 13.05 -8.65 13.85 -8.65 14.35 -8.15 L14.8 -6.8 14.65 -5.0 19.15 -5.0 Q19.85 -5.0 20.35 -4.6 20.8 -4.2 20.8 -3.45 20.8 -2.6 20.2 -2.1 19.6 -1.65 18.7 -1.65 L14.3 -1.65 14.05 0.75 14.05 1.05 14.0 1.4 Q14.0 1.85 14.3 2.1 14.65 2.45 15.05 2.45 15.9 2.45 16.35 1.6 L17.15 0.1 Q17.7 -0.7 18.7 -0.7 19.4 -0.7 19.85 -0.25 20.35 0.2 20.35 0.9 20.35 3.0 18.5 4.55 16.75 5.95 14.6 5.95 12.65 5.95 11.35 4.75 10.1 3.5 10.1 1.55 L10.1 0.95"/>
    </path>
  </g>
  <defs>
    <radialGradient cx="0" cy="0" gradientTransform="matrix(0.0087, 0.0, 0.0, 0.0087, 14.75, -1.0)" gradientUnits="userSpaceOnUse" id="gradient0" r="819.2" spreadMethod="pad">
      <animateTransform additive="replace" attributeName="gradientTransform" dur="2s" from="1" repeatCount="indefinite" to="1" type="scale"/>
      <animateTransform additive="sum" attributeName="gradientTransform" dur="2s" from="14.75 -1.0" repeatCount="indefinite" to="14.75 -1.0" type="translate"/>
      <animateTransform additive="sum" attributeName="gradientTransform" dur="2s" from="0.0" repeatCount="indefinite" to="0.0" type="rotate"/>
      <animateTransform additive="sum" attributeName="gradientTransform" dur="2s" from="0.0087 0.0087" repeatCount="indefinite" to="0.0087 0.0087" type="scale"/>
      <animateTransform additive="sum" attributeName="gradientTransform" dur="2s" from="0.0" repeatCount="indefinite" to="0.0" type="skewX"/>
      <stop offset="0.0" stop-color="#0a9709">
        <animate attributeName="offset" dur="2s" repeatCount="indefinite" values="0.0;0.0"/>
        <animate attributeName="stop-color" dur="2s" repeatCount="indefinite" values="#0a9709;#009901"/>
        <animate attributeName="stop-opacity" dur="2s" repeatCount="indefinite" values="1.0;1.0"/>
      </stop>
      <stop offset="0.5764705882352941" stop-color="#52d862">
        <animate attributeName="offset" dur="2s" repeatCount="indefinite" values="0.5764705882352941;0.5764705882352941"/>
        <animate attributeName="stop-color" dur="2s" repeatCount="indefinite" values="#52d862;#009901"/>
        <animate attributeName="stop-opacity" dur="2s" repeatCount="indefinite" values="1.0;1.0"/>
      </stop>
      <stop offset="1.0" stop-color="#ffffff">
        <animate attributeName="offset" dur="2s" repeatCount="indefinite" values="1.0;1.0"/>
        <animate attributeName="stop-color" dur="2s" repeatCount="indefinite" values="#ffffff;#009901"/>
        <animate attributeName="stop-opacity" dur="2s" repeatCount="indefinite" values="1.0;1.0"/>
      </stop>
    </radialGradient>
  </defs>
</svg>
