<?xml version="1.0" encoding="UTF-8" standalone="no"?>
<svg xmlns:xlink="http://www.w3.org/1999/xlink" height="10.95px" width="11.45px" xmlns="http://www.w3.org/2000/svg">
  <g transform="matrix(1.0, 0.0, 0.0, 1.0, 13.8, 5.0)">
    <path d="M-13.8 1.2 L-13.8 1.8 Q-13.8 3.9 -12.4 5.0 -11.15 5.95 -9.0 5.95 -3.2 5.95 -2.75 0.8 L-2.4 -2.9 -2.35 -3.4 Q-2.35 -5.0 -4.2 -5.0 L-5.4 -5.0 Q-6.3 -5.0 -7.0 -4.45 -7.7 -3.9 -7.7 -3.0 -7.7 -1.75 -6.45 -1.35 L-6.7 0.85 Q-6.95 2.45 -8.45 2.45 -9.05 2.45 -9.45 2.05 -9.85 1.65 -9.85 1.05 L-9.6 -1.35 Q-8.0 -1.75 -8.0 -3.3 -8.0 -5.0 -9.9 -5.0 L-12.2 -4.8 Q-13.2 -4.45 -13.35 -3.0 L-13.8 1.2" fill="url(#gradient0)" fill-rule="evenodd" stroke="none">
      <animate attributeName="d" dur="2s" repeatCount="indefinite" values="M-13.8 1.2 L-13.8 1.8 Q-13.8 3.9 -12.4 5.0 -11.15 5.95 -9.0 5.95 -3.2 5.95 -2.75 0.8 L-2.4 -2.9 -2.35 -3.4 Q-2.35 -5.0 -4.2 -5.0 L-5.4 -5.0 Q-6.3 -5.0 -7.0 -4.45 -7.7 -3.9 -7.7 -3.0 -7.7 -1.75 -6.45 -1.35 L-6.7 0.85 Q-6.95 2.45 -8.45 2.45 -9.05 2.45 -9.45 2.05 -9.85 1.65 -9.85 1.05 L-9.6 -1.35 Q-8.0 -1.75 -8.0 -3.3 -8.0 -5.0 -9.9 -5.0 L-12.2 -4.8 Q-13.2 -4.45 -13.35 -3.0 L-13.8 1.2;M-13.8 1.2 L-13.8 1.8 Q-13.8 3.9 -12.4 5.0 -11.15 5.95 -9.0 5.95 -3.2 5.95 -2.75 0.8 L-2.4 -2.9 -2.35 -3.4 Q-2.35 -5.0 -4.2 -5.0 L-5.4 -5.0 Q-6.3 -5.0 -7.0 -4.45 -7.7 -3.9 -7.7 -3.0 -7.7 -1.75 -6.45 -1.35 L-6.7 0.85 Q-6.95 2.45 -8.45 2.45 -9.05 2.45 -9.45 2.05 -9.85 1.65 -9.85 1.05 L-9.6 -1.35 Q-8.0 -1.75 -8.0 -3.3 -8.0 -5.0 -9.9 -5.0 L-12.2 -4.8 Q-13.2 -4.45 -13.35 -3.0 L-13.8 1.2"/>
    </path>
    <path d="M-13.8 1.2 L-13.35 -3.0 Q-13.2 -4.45 -12.2 -4.8 L-9.9 -5.0 Q-8.0 -5.0 -8.0 -3.3 -8.0 -1.75 -9.6 -1.35 L-9.85 1.05 Q-9.85 1.65 -9.45 2.05 -9.05 2.45 -8.45 2.45 -6.95 2.45 -6.7 0.85 L-6.45 -1.35 Q-7.7 -1.75 -7.7 -3.0 -7.7 -3.9 -7.0 -4.45 -6.3 -5.0 -5.4 -5.0 L-4.2 -5.0 Q-2.35 -5.0 -2.35 -3.4 L-2.4 -2.9 -2.75 0.8 Q-3.2 5.95 -9.0 5.95 -11.15 5.95 -12.4 5.0 -13.8 3.9 -13.8 1.8 L-13.8 1.2" fill="none" stroke="#000000" stroke-linecap="round" stroke-linejoin="round" stroke-opacity="0.0" stroke-width="1.0">
      <animate attributeName="stroke" dur="2s" repeatCount="indefinite" values="#000000;#000001"/>
      <animate attributeName="stroke-width" dur="2s" repeatCount="indefinite" values="0.0;0.0"/>
      <animate attributeName="fill-opacity" dur="2s" repeatCount="indefinite" values="0.0;0.0"/>
      <animate attributeName="d" dur="2s" repeatCount="indefinite" values="M-13.8 1.2 L-13.35 -3.0 Q-13.2 -4.45 -12.2 -4.8 L-9.9 -5.0 Q-8.0 -5.0 -8.0 -3.3 -8.0 -1.75 -9.6 -1.35 L-9.85 1.05 Q-9.85 1.65 -9.45 2.05 -9.05 2.45 -8.45 2.45 -6.95 2.45 -6.7 0.85 L-6.45 -1.35 Q-7.7 -1.75 -7.7 -3.0 -7.7 -3.9 -7.0 -4.45 -6.3 -5.0 -5.4 -5.0 L-4.2 -5.0 Q-2.35 -5.0 -2.35 -3.4 L-2.4 -2.9 -2.75 0.8 Q-3.2 5.95 -9.0 5.95 -11.15 5.95 -12.4 5.0 -13.8 3.9 -13.8 1.8 L-13.8 1.2;M-13.8 1.2 L-13.35 -3.0 Q-13.2 -4.45 -12.2 -4.8 L-9.9 -5.0 Q-8.0 -5.0 -8.0 -3.3 -8.0 -1.75 -9.6 -1.35 L-9.85 1.05 Q-9.85 1.65 -9.45 2.05 -9.05 2.45 -8.45 2.45 -6.95 2.45 -6.7 0.85 L-6.45 -1.35 Q-7.7 -1.75 -7.7 -3.0 -7.7 -3.9 -7.0 -4.45 -6.3 -5.0 -5.4 -5.0 L-4.2 -5.0 Q-2.35 -5.0 -2.35 -3.4 L-2.4 -2.9 -2.75 0.8 Q-3.2 5.95 -9.0 5.95 -11.15 5.95 -12.4 5.0 -13.8 3.9 -13.8 1.8 L-13.8 1.2"/>
    </path>
  </g>
  <defs>
    <radialGradient cx="0" cy="0" gradientTransform="matrix(0.0085, 0.0, 0.0, 0.0085, -8.25, 0.25)" gradientUnits="userSpaceOnUse" id="gradient0" r="819.2" spreadMethod="pad">
      <animateTransform additive="replace" attributeName="gradientTransform" dur="2s" from="1" repeatCount="indefinite" to="1" type="scale"/>
      <animateTransform additive="sum" attributeName="gradientTransform" dur="2s" from="-8.25 0.25" repeatCount="indefinite" to="-8.25 0.25" type="translate"/>
      <animateTransform additive="sum" attributeName="gradientTransform" dur="2s" from="0.0" repeatCount="indefinite" to="0.0" type="rotate"/>
      <animateTransform additive="sum" attributeName="gradientTransform" dur="2s" from="0.0085 0.0085" repeatCount="indefinite" to="0.0085 0.0085" type="scale"/>
      <animateTransform additive="sum" attributeName="gradientTransform" dur="2s" from="0.0" repeatCount="indefinite" to="0.0" type="skewX"/>
      <stop offset="0.0" stop-color="#0a9709">
        <animate attributeName="offset" dur="2s" repeatCount="indefinite" values="0.0;0.0"/>
        <animate attributeName="stop-color" dur="2s" repeatCount="indefinite" values="#0a9709;#009901"/>
        <animate attributeName="stop-opacity" dur="2s" repeatCount="indefinite" values="1.0;1.0"/>
      </stop>
      <stop offset="0.5764705882352941" stop-color="#52d862">
        <animate attributeName="offset" dur="2s" repeatCount="indefinite" values="0.5764705882352941;0.5764705882352941"/>
        <animate attributeName="stop-color" dur="2s" repeatCount="indefinite" values="#52d862;#009901"/>
        <animate attributeName="stop-opacity" dur="2s" repeatCount="indefinite" values="1.0;1.0"/>
      </stop>
      <stop offset="1.0" stop-color="#ffffff">
        <animate attributeName="offset" dur="2s" repeatCount="indefinite" values="1.0;1.0"/>
        <animate attributeName="stop-color" dur="2s" repeatCount="indefinite" values="#ffffff;#009901"/>
        <animate attributeName="stop-opacity" dur="2s" repeatCount="indefinite" values="1.0;1.0"/>
      </stop>
    </radialGradient>
  </defs>
</svg>
