<?xml version="1.0" encoding="UTF-8" standalone="no"?>
<svg xmlns:xlink="http://www.w3.org/1999/xlink" height="14.0px" width="8.8px" xmlns="http://www.w3.org/2000/svg">
  <g transform="matrix(1.0, 0.0, 0.0, 1.0, 66.6, 8.35)">
    <path d="M-66.6 3.95 Q-66.6 4.75 -66.1 5.2 -65.6 5.65 -64.8 5.65 L-61.05 5.65 Q-60.1 5.65 -59.5 5.05 -58.9 4.5 -58.9 3.55 -58.9 2.75 -59.35 2.35 -59.8 1.95 -60.6 2.0 L-59.9 -4.75 Q-59.0 -4.75 -58.4 -5.3 -57.8 -5.85 -57.8 -6.75 -57.8 -8.35 -59.55 -8.35 L-63.4 -8.35 Q-64.3 -8.35 -64.9 -7.8 -65.5 -7.25 -65.5 -6.35 -65.5 -5.6 -65.05 -5.2 -64.6 -4.75 -63.85 -4.75 L-64.55 1.95 Q-65.45 1.95 -66.05 2.5 -66.6 3.05 -66.6 3.95" fill="url(#gradient0)" fill-rule="evenodd" stroke="none">
      <animate attributeName="d" dur="2s" repeatCount="indefinite" values="M-66.6 3.95 Q-66.6 4.75 -66.1 5.2 -65.6 5.65 -64.8 5.65 L-61.05 5.65 Q-60.1 5.65 -59.5 5.05 -58.9 4.5 -58.9 3.55 -58.9 2.75 -59.35 2.35 -59.8 1.95 -60.6 2.0 L-59.9 -4.75 Q-59.0 -4.75 -58.4 -5.3 -57.8 -5.85 -57.8 -6.75 -57.8 -8.35 -59.55 -8.35 L-63.4 -8.35 Q-64.3 -8.35 -64.9 -7.8 -65.5 -7.25 -65.5 -6.35 -65.5 -5.6 -65.05 -5.2 -64.6 -4.75 -63.85 -4.75 L-64.55 1.95 Q-65.45 1.95 -66.05 2.5 -66.6 3.05 -66.6 3.95;M-66.6 3.95 Q-66.6 4.75 -66.1 5.2 -65.6 5.65 -64.8 5.65 L-61.05 5.65 Q-60.1 5.65 -59.5 5.05 -58.9 4.5 -58.9 3.55 -58.9 2.75 -59.35 2.35 -59.8 1.95 -60.6 2.0 L-59.9 -4.75 Q-59.0 -4.75 -58.4 -5.3 -57.8 -5.85 -57.8 -6.75 -57.8 -8.35 -59.55 -8.35 L-63.4 -8.35 Q-64.3 -8.35 -64.9 -7.8 -65.5 -7.25 -65.5 -6.35 -65.5 -5.6 -65.05 -5.2 -64.6 -4.75 -63.85 -4.75 L-64.55 1.95 Q-65.45 1.95 -66.05 2.5 -66.6 3.05 -66.6 3.95"/>
    </path>
    <path d="M-66.6 3.95 Q-66.6 3.05 -66.05 2.5 -65.45 1.95 -64.55 1.95 L-63.85 -4.75 Q-64.6 -4.75 -65.05 -5.2 -65.5 -5.6 -65.5 -6.35 -65.5 -7.25 -64.9 -7.8 -64.3 -8.35 -63.4 -8.35 L-59.55 -8.35 Q-57.8 -8.35 -57.8 -6.75 -57.8 -5.85 -58.4 -5.3 -59.0 -4.75 -59.9 -4.75 L-60.6 2.0 Q-59.8 1.95 -59.35 2.35 -58.9 2.75 -58.9 3.55 -58.9 4.5 -59.5 5.05 -60.1 5.65 -61.05 5.65 L-64.8 5.65 Q-65.6 5.65 -66.1 5.2 -66.6 4.75 -66.6 3.95" fill="none" stroke="#000000" stroke-linecap="round" stroke-linejoin="round" stroke-opacity="0.0" stroke-width="1.0">
      <animate attributeName="stroke" dur="2s" repeatCount="indefinite" values="#000000;#000001"/>
      <animate attributeName="stroke-width" dur="2s" repeatCount="indefinite" values="0.0;0.0"/>
      <animate attributeName="fill-opacity" dur="2s" repeatCount="indefinite" values="0.0;0.0"/>
      <animate attributeName="d" dur="2s" repeatCount="indefinite" values="M-66.6 3.95 Q-66.6 3.05 -66.05 2.5 -65.45 1.95 -64.55 1.95 L-63.85 -4.75 Q-64.6 -4.75 -65.05 -5.2 -65.5 -5.6 -65.5 -6.35 -65.5 -7.25 -64.9 -7.8 -64.3 -8.35 -63.4 -8.35 L-59.55 -8.35 Q-57.8 -8.35 -57.8 -6.75 -57.8 -5.85 -58.4 -5.3 -59.0 -4.75 -59.9 -4.75 L-60.6 2.0 Q-59.8 1.95 -59.35 2.35 -58.9 2.75 -58.9 3.55 -58.9 4.5 -59.5 5.05 -60.1 5.65 -61.05 5.65 L-64.8 5.65 Q-65.6 5.65 -66.1 5.2 -66.6 4.75 -66.6 3.95;M-66.6 3.95 Q-66.6 3.05 -66.05 2.5 -65.45 1.95 -64.55 1.95 L-63.85 -4.75 Q-64.6 -4.75 -65.05 -5.2 -65.5 -5.6 -65.5 -6.35 -65.5 -7.25 -64.9 -7.8 -64.3 -8.35 -63.4 -8.35 L-59.55 -8.35 Q-57.8 -8.35 -57.8 -6.75 -57.8 -5.85 -58.4 -5.3 -59.0 -4.75 -59.9 -4.75 L-60.6 2.0 Q-59.8 1.95 -59.35 2.35 -58.9 2.75 -58.9 3.55 -58.9 4.5 -59.5 5.05 -60.1 5.65 -61.05 5.65 L-64.8 5.65 Q-65.6 5.65 -66.1 5.2 -66.6 4.75 -66.6 3.95"/>
    </path>
  </g>
  <defs>
    <radialGradient cx="0" cy="0" gradientTransform="matrix(0.0094, 1.0E-4, -1.0E-4, 0.0094, -62.2, -1.35)" gradientUnits="userSpaceOnUse" id="gradient0" r="819.2" spreadMethod="pad">
      <animateTransform additive="replace" attributeName="gradientTransform" dur="2s" from="1" repeatCount="indefinite" to="1" type="scale"/>
      <animateTransform additive="sum" attributeName="gradientTransform" dur="2s" from="-62.2 -1.35" repeatCount="indefinite" to="-62.2 -1.35" type="translate"/>
      <animateTransform additive="sum" attributeName="gradientTransform" dur="2s" from="0.4635" repeatCount="indefinite" to="0.4635" type="rotate"/>
      <animateTransform additive="sum" attributeName="gradientTransform" dur="2s" from="0.0094 0.0094" repeatCount="indefinite" to="0.0094 0.0094" type="scale"/>
      <animateTransform additive="sum" attributeName="gradientTransform" dur="2s" from="0.0" repeatCount="indefinite" to="0.0" type="skewX"/>
      <stop offset="0.0" stop-color="#0a9709">
        <animate attributeName="offset" dur="2s" repeatCount="indefinite" values="0.0;0.0"/>
        <animate attributeName="stop-color" dur="2s" repeatCount="indefinite" values="#0a9709;#009901"/>
        <animate attributeName="stop-opacity" dur="2s" repeatCount="indefinite" values="1.0;1.0"/>
      </stop>
      <stop offset="0.5764705882352941" stop-color="#52d862">
        <animate attributeName="offset" dur="2s" repeatCount="indefinite" values="0.5764705882352941;0.5764705882352941"/>
        <animate attributeName="stop-color" dur="2s" repeatCount="indefinite" values="#52d862;#009901"/>
        <animate attributeName="stop-opacity" dur="2s" repeatCount="indefinite" values="1.0;1.0"/>
      </stop>
      <stop offset="1.0" stop-color="#ffffff">
        <animate attributeName="offset" dur="2s" repeatCount="indefinite" values="1.0;1.0"/>
        <animate attributeName="stop-color" dur="2s" repeatCount="indefinite" values="#ffffff;#009901"/>
        <animate attributeName="stop-opacity" dur="2s" repeatCount="indefinite" values="1.0;1.0"/>
      </stop>
    </radialGradient>
  </defs>
</svg>
