<?xml version="1.0" encoding="UTF-8" standalone="no"?>
<svg xmlns:xlink="http://www.w3.org/1999/xlink" height="10.1px" width="11.75px" xmlns="http://www.w3.org/2000/svg">
  <g transform="matrix(1.0, 0.0, 0.0, 1.0, 5.85, 4.55)">
    <path d="M-2.35 0.7 Q-2.35 1.4 -1.85 1.9 -1.4 2.35 -0.7 2.35 0.1 2.35 0.7 1.75 1.35 1.15 0.9 -0.85 L-1.7 -0.7 Q-2.35 -0.1 -2.35 0.7 M-5.85 1.2 Q-5.85 3.05 -4.65 4.3 -3.5 5.55 -1.65 5.55 0.1 5.55 1.3 4.5 1.35 5.3 2.55 5.3 L4.05 5.3 Q4.95 5.3 5.45 4.75 5.9 4.2 5.9 3.3 L5.6 2.4 4.65 2.0 4.85 0.05 Q4.85 -2.0 3.55 -3.3 2.2 -4.55 0.15 -4.55 -2.35 -4.55 -4.1 -2.95 -5.85 -1.3 -5.85 1.2" fill="url(#gradient0)" fill-rule="evenodd" stroke="none">
      <animate attributeName="d" dur="2s" repeatCount="indefinite" values="M-2.35 0.7 Q-2.35 1.4 -1.85 1.9 -1.4 2.35 -0.7 2.35 0.1 2.35 0.7 1.75 1.35 1.15 0.9 -0.85 L-1.7 -0.7 Q-2.35 -0.1 -2.35 0.7 M-5.85 1.2 Q-5.85 3.05 -4.65 4.3 -3.5 5.55 -1.65 5.55 0.1 5.55 1.3 4.5 1.35 5.3 2.55 5.3 L4.05 5.3 Q4.95 5.3 5.45 4.75 5.9 4.2 5.9 3.3 L5.6 2.4 4.65 2.0 4.85 0.05 Q4.85 -2.0 3.55 -3.3 2.2 -4.55 0.15 -4.55 -2.35 -4.55 -4.1 -2.95 -5.85 -1.3 -5.85 1.2;M-2.35 0.7 Q-2.35 1.4 -1.85 1.9 -1.4 2.35 -0.7 2.35 0.1 2.35 0.7 1.75 1.35 1.15 0.9 -0.85 L-1.7 -0.7 Q-2.35 -0.1 -2.35 0.7 M-5.85 1.2 Q-5.85 3.05 -4.65 4.3 -3.5 5.55 -1.65 5.55 0.1 5.55 1.3 4.5 1.35 5.3 2.55 5.3 L4.05 5.3 Q4.95 5.3 5.45 4.75 5.9 4.2 5.9 3.3 L5.6 2.4 4.65 2.0 4.85 0.05 Q4.85 -2.0 3.55 -3.3 2.2 -4.55 0.15 -4.55 -2.35 -4.55 -4.1 -2.95 -5.85 -1.3 -5.85 1.2"/>
    </path>
    <path d="M-5.85 1.2 Q-5.85 -1.3 -4.1 -2.95 -2.35 -4.55 0.15 -4.55 2.2 -4.55 3.55 -3.3 4.85 -2.0 4.85 0.05 L4.65 2.0 5.6 2.4 5.9 3.3 Q5.9 4.2 5.45 4.75 4.95 5.3 4.05 5.3 L2.55 5.3 Q1.35 5.3 1.3 4.5 0.1 5.55 -1.65 5.55 -3.5 5.55 -4.65 4.3 -5.85 3.05 -5.85 1.2 M-2.35 0.7 Q-2.35 -0.1 -1.7 -0.7 L0.9 -0.85 Q1.35 1.15 0.7 1.75 0.1 2.35 -0.7 2.35 -1.4 2.35 -1.85 1.9 -2.35 1.4 -2.35 0.7" fill="none" stroke="#000000" stroke-linecap="round" stroke-linejoin="round" stroke-opacity="0.0" stroke-width="1.0">
      <animate attributeName="stroke" dur="2s" repeatCount="indefinite" values="#000000;#000001"/>
      <animate attributeName="stroke-width" dur="2s" repeatCount="indefinite" values="0.0;0.0"/>
      <animate attributeName="fill-opacity" dur="2s" repeatCount="indefinite" values="0.0;0.0"/>
      <animate attributeName="d" dur="2s" repeatCount="indefinite" values="M-5.85 1.2 Q-5.85 -1.3 -4.1 -2.95 -2.35 -4.55 0.15 -4.55 2.2 -4.55 3.55 -3.3 4.85 -2.0 4.85 0.05 L4.65 2.0 5.6 2.4 5.9 3.3 Q5.9 4.2 5.45 4.75 4.95 5.3 4.05 5.3 L2.55 5.3 Q1.35 5.3 1.3 4.5 0.1 5.55 -1.65 5.55 -3.5 5.55 -4.65 4.3 -5.85 3.05 -5.85 1.2 M-2.35 0.7 Q-2.35 -0.1 -1.7 -0.7 L0.9 -0.85 Q1.35 1.15 0.7 1.75 0.1 2.35 -0.7 2.35 -1.4 2.35 -1.85 1.9 -2.35 1.4 -2.35 0.7;M-5.85 1.2 Q-5.85 -1.3 -4.1 -2.95 -2.35 -4.55 0.15 -4.55 2.2 -4.55 3.55 -3.3 4.85 -2.0 4.85 0.05 L4.65 2.0 5.6 2.4 5.9 3.3 Q5.9 4.2 5.45 4.75 4.95 5.3 4.05 5.3 L2.55 5.3 Q1.35 5.3 1.3 4.5 0.1 5.55 -1.65 5.55 -3.5 5.55 -4.65 4.3 -5.85 3.05 -5.85 1.2 M-2.35 0.7 Q-2.35 -0.1 -1.7 -0.7 L0.9 -0.85 Q1.35 1.15 0.7 1.75 0.1 2.35 -0.7 2.35 -1.4 2.35 -1.85 1.9 -2.35 1.4 -2.35 0.7"/>
    </path>
  </g>
  <defs>
    <radialGradient cx="0" cy="0" gradientTransform="matrix(0.0082, 0.0, 0.0, 0.0082, 0.05, 0.75)" gradientUnits="userSpaceOnUse" id="gradient0" r="819.2" spreadMethod="pad">
      <animateTransform additive="replace" attributeName="gradientTransform" dur="2s" from="1" repeatCount="indefinite" to="1" type="scale"/>
      <animateTransform additive="sum" attributeName="gradientTransform" dur="2s" from="0.05 0.75" repeatCount="indefinite" to="0.05 0.75" type="translate"/>
      <animateTransform additive="sum" attributeName="gradientTransform" dur="2s" from="0.0" repeatCount="indefinite" to="0.0" type="rotate"/>
      <animateTransform additive="sum" attributeName="gradientTransform" dur="2s" from="0.0082 0.0082" repeatCount="indefinite" to="0.0082 0.0082" type="scale"/>
      <animateTransform additive="sum" attributeName="gradientTransform" dur="2s" from="0.0" repeatCount="indefinite" to="0.0" type="skewX"/>
      <stop offset="0.0" stop-color="#009900">
        <animate attributeName="offset" dur="2s" repeatCount="indefinite" values="0.0;0.0"/>
        <animate attributeName="stop-color" dur="2s" repeatCount="indefinite" values="#009900;#0a970a"/>
        <animate attributeName="stop-opacity" dur="2s" repeatCount="indefinite" values="1.0;1.0"/>
      </stop>
      <stop offset="0.5764705882352941" stop-color="#009900">
        <animate attributeName="offset" dur="2s" repeatCount="indefinite" values="0.5764705882352941;0.5764705882352941"/>
        <animate attributeName="stop-color" dur="2s" repeatCount="indefinite" values="#009900;#52d863"/>
        <animate attributeName="stop-opacity" dur="2s" repeatCount="indefinite" values="1.0;1.0"/>
      </stop>
      <stop offset="1.0" stop-color="#009900">
        <animate attributeName="offset" dur="2s" repeatCount="indefinite" values="1.0;1.0"/>
        <animate attributeName="stop-color" dur="2s" repeatCount="indefinite" values="#009900;#ffffff"/>
        <animate attributeName="stop-opacity" dur="2s" repeatCount="indefinite" values="1.0;1.0"/>
      </stop>
    </radialGradient>
  </defs>
</svg>
