<?xml version="1.0" encoding="UTF-8" standalone="no"?>
<svg xmlns:xlink="http://www.w3.org/1999/xlink" height="9.6px" width="9.25px" xmlns="http://www.w3.org/2000/svg">
  <g transform="matrix(1.0, 0.0, 0.0, 1.0, -26.9, 4.3)">
    <path d="M26.9 3.85 Q26.9 5.3 28.4 5.3 L32.55 5.3 Q34.0 5.3 34.9 4.35 35.85 3.45 35.85 2.05 35.85 0.75 34.85 0.0 34.0 -0.6 32.65 -0.6 L31.95 -0.6 31.3 -0.55 Q30.85 -0.55 30.85 -0.7 L30.9 -1.0 31.2 -1.15 36.0 -1.15 36.15 -2.75 Q36.15 -4.3 34.6 -4.3 L31.0 -4.3 Q29.5 -4.3 28.45 -3.4 27.4 -2.5 27.4 -1.0 27.4 0.3 28.4 1.05 29.25 1.7 30.6 1.7 L31.5 1.6 32.3 1.7 32.4 2.05 32.05 2.15 27.1 2.15 26.9 3.85" fill="url(#gradient0)" fill-rule="evenodd" stroke="none">
      <animate attributeName="d" dur="2s" repeatCount="indefinite" values="M26.9 3.85 Q26.9 5.3 28.4 5.3 L32.55 5.3 Q34.0 5.3 34.9 4.35 35.85 3.45 35.85 2.05 35.85 0.75 34.85 0.0 34.0 -0.6 32.65 -0.6 L31.95 -0.6 31.3 -0.55 Q30.85 -0.55 30.85 -0.7 L30.9 -1.0 31.2 -1.15 36.0 -1.15 36.15 -2.75 Q36.15 -4.3 34.6 -4.3 L31.0 -4.3 Q29.5 -4.3 28.45 -3.4 27.4 -2.5 27.4 -1.0 27.4 0.3 28.4 1.05 29.25 1.7 30.6 1.7 L31.5 1.6 32.3 1.7 32.4 2.05 32.05 2.15 27.1 2.15 26.9 3.85;M26.9 3.85 Q26.9 5.3 28.4 5.3 L32.55 5.3 Q34.0 5.3 34.9 4.35 35.85 3.45 35.85 2.05 35.85 0.75 34.85 0.0 34.0 -0.6 32.65 -0.6 L31.95 -0.6 31.3 -0.55 Q30.85 -0.55 30.85 -0.7 L30.9 -1.0 31.2 -1.15 36.0 -1.15 36.15 -2.75 Q36.15 -4.3 34.6 -4.3 L31.0 -4.3 Q29.5 -4.3 28.45 -3.4 27.4 -2.5 27.4 -1.0 27.4 0.3 28.4 1.05 29.25 1.7 30.6 1.7 L31.5 1.6 32.3 1.7 32.4 2.05 32.05 2.15 27.1 2.15 26.9 3.85"/>
    </path>
    <path d="M26.9 3.85 L27.1 2.15 32.05 2.15 32.4 2.05 32.3 1.7 31.5 1.6 30.6 1.7 Q29.25 1.7 28.4 1.05 27.4 0.3 27.4 -1.0 27.4 -2.5 28.45 -3.4 29.5 -4.3 31.0 -4.3 L34.6 -4.3 Q36.15 -4.3 36.15 -2.75 L36.0 -1.15 31.2 -1.15 30.9 -1.0 30.85 -0.7 Q30.85 -0.55 31.3 -0.55 L31.95 -0.6 32.65 -0.6 Q34.0 -0.6 34.85 0.0 35.85 0.75 35.85 2.05 35.85 3.45 34.9 4.35 34.0 5.3 32.55 5.3 L28.4 5.3 Q26.9 5.3 26.9 3.85" fill="none" stroke="#000000" stroke-linecap="round" stroke-linejoin="round" stroke-opacity="0.0" stroke-width="1.0">
      <animate attributeName="stroke" dur="2s" repeatCount="indefinite" values="#000000;#000001"/>
      <animate attributeName="stroke-width" dur="2s" repeatCount="indefinite" values="0.0;0.0"/>
      <animate attributeName="fill-opacity" dur="2s" repeatCount="indefinite" values="0.0;0.0"/>
      <animate attributeName="d" dur="2s" repeatCount="indefinite" values="M26.9 3.85 L27.1 2.15 32.05 2.15 32.4 2.05 32.3 1.7 31.5 1.6 30.6 1.7 Q29.25 1.7 28.4 1.05 27.4 0.3 27.4 -1.0 27.4 -2.5 28.45 -3.4 29.5 -4.3 31.0 -4.3 L34.6 -4.3 Q36.15 -4.3 36.15 -2.75 L36.0 -1.15 31.2 -1.15 30.9 -1.0 30.85 -0.7 Q30.85 -0.55 31.3 -0.55 L31.95 -0.6 32.65 -0.6 Q34.0 -0.6 34.85 0.0 35.85 0.75 35.85 2.05 35.85 3.45 34.9 4.35 34.0 5.3 32.55 5.3 L28.4 5.3 Q26.9 5.3 26.9 3.85;M26.9 3.85 L27.1 2.15 32.05 2.15 32.4 2.05 32.3 1.7 31.5 1.6 30.6 1.7 Q29.25 1.7 28.4 1.05 27.4 0.3 27.4 -1.0 27.4 -2.5 28.45 -3.4 29.5 -4.3 31.0 -4.3 L34.6 -4.3 Q36.15 -4.3 36.15 -2.75 L36.0 -1.15 31.2 -1.15 30.9 -1.0 30.85 -0.7 Q30.85 -0.55 31.3 -0.55 L31.95 -0.6 32.65 -0.6 Q34.0 -0.6 34.85 0.0 35.85 0.75 35.85 2.05 35.85 3.45 34.9 4.35 34.0 5.3 32.55 5.3 L28.4 5.3 Q26.9 5.3 26.9 3.85"/>
    </path>
  </g>
  <defs>
    <radialGradient cx="0" cy="0" gradientTransform="matrix(0.0075, 0.0, 0.0, 0.0075, 31.55, 0.5)" gradientUnits="userSpaceOnUse" id="gradient0" r="819.2" spreadMethod="pad">
      <animateTransform additive="replace" attributeName="gradientTransform" dur="2s" from="1" repeatCount="indefinite" to="1" type="scale"/>
      <animateTransform additive="sum" attributeName="gradientTransform" dur="2s" from="31.55 0.5" repeatCount="indefinite" to="31.55 0.5" type="translate"/>
      <animateTransform additive="sum" attributeName="gradientTransform" dur="2s" from="0.0" repeatCount="indefinite" to="0.0" type="rotate"/>
      <animateTransform additive="sum" attributeName="gradientTransform" dur="2s" from="0.0075 0.0075" repeatCount="indefinite" to="0.0075 0.0075" type="scale"/>
      <animateTransform additive="sum" attributeName="gradientTransform" dur="2s" from="0.0" repeatCount="indefinite" to="0.0" type="skewX"/>
      <stop offset="0.0" stop-color="#0a9709">
        <animate attributeName="offset" dur="2s" repeatCount="indefinite" values="0.0;0.0"/>
        <animate attributeName="stop-color" dur="2s" repeatCount="indefinite" values="#0a9709;#009901"/>
        <animate attributeName="stop-opacity" dur="2s" repeatCount="indefinite" values="1.0;1.0"/>
      </stop>
      <stop offset="0.5764705882352941" stop-color="#52d862">
        <animate attributeName="offset" dur="2s" repeatCount="indefinite" values="0.5764705882352941;0.5764705882352941"/>
        <animate attributeName="stop-color" dur="2s" repeatCount="indefinite" values="#52d862;#009901"/>
        <animate attributeName="stop-opacity" dur="2s" repeatCount="indefinite" values="1.0;1.0"/>
      </stop>
      <stop offset="1.0" stop-color="#ffffff">
        <animate attributeName="offset" dur="2s" repeatCount="indefinite" values="1.0;1.0"/>
        <animate attributeName="stop-color" dur="2s" repeatCount="indefinite" values="#ffffff;#009901"/>
        <animate attributeName="stop-opacity" dur="2s" repeatCount="indefinite" values="1.0;1.0"/>
      </stop>
    </radialGradient>
  </defs>
</svg>
