<?xml version="1.0" encoding="UTF-8" standalone="no"?>
<svg xmlns:xlink="http://www.w3.org/1999/xlink" height="35.0px" width="305.5px" xmlns="http://www.w3.org/2000/svg">
  <g transform="matrix(1.0, 0.0, 0.0, 1.0, 2.0, 21.5)">
    <path d="M-1.5 -21.0 L-1.5 -21.0 -1.5 12.5 -1.0 12.5 -1.0 -21.0 -1.5 -21.0 Q-1.5 -4.25 -1.0 12.5 L-1.0 -21.0 -1.5 -21.0" fill="#ffffff" fill-rule="evenodd" stroke="none">
      <animate attributeName="fill" dur="2s" repeatCount="indefinite" values="#ffffff;#ffffff"/>
      <animate attributeName="fill-opacity" dur="2s" repeatCount="indefinite" values="1.0;1.0"/>
      <animate attributeName="d" dur="2s" repeatCount="indefinite" values="M-1.5 -21.0 L-1.5 -21.0 -1.5 12.5 -1.0 12.5 -1.0 -21.0 -1.5 -21.0 Q-1.5 -4.25 -1.0 12.5 L-1.0 -21.0 -1.5 -21.0;M-1.0 -21.0 L-1.0 12.5 -1.0 13.0 303.0 13.0 303.0 -21.0 -1.0 -21.0 Q-1.5 -4.25 -1.0 12.5 L-1.0 -21.0 -1.5 -21.0"/>
    </path>
    <path d="M-1.5 -21.0 L-1.4 -21.0 -1.0 -21.0 -1.0 9.1 -1.0 12.5 -1.5 12.5 -1.5 -17.6 Q-1.5 -19.3 -1.5 -21.0 L-1.0 -21.0 -1.0 12.5 Q-1.5 -4.25 -1.5 -21.0 L-1.0 -21.0 -1.0 12.5 -1.5 12.5 -1.5 -21.0 -1.5 -21.0" fill="none" stroke="#ffffff" stroke-linecap="round" stroke-linejoin="round" stroke-width="1.0">
      <animate attributeName="stroke" dur="2s" repeatCount="indefinite" values="#ffffff;#ffffff"/>
      <animate attributeName="stroke-width" dur="2s" repeatCount="indefinite" values="1.0;1.0"/>
      <animate attributeName="fill-opacity" dur="2s" repeatCount="indefinite" values="1.0;1.0"/>
      <animate attributeName="d" dur="2s" repeatCount="indefinite" values="M-1.5 -21.0 L-1.4 -21.0 -1.0 -21.0 -1.0 9.1 -1.0 12.5 -1.5 12.5 -1.5 -17.6 Q-1.5 -19.3 -1.5 -21.0 L-1.0 -21.0 -1.0 12.5 Q-1.5 -4.25 -1.5 -21.0 L-1.0 -21.0 -1.0 12.5 -1.5 12.5 -1.5 -21.0 -1.5 -21.0;M-1.5 -21.0 L-1.0 -21.0 3.5 -21.0 303.0 -21.0 303.0 12.9 298.0 13.0 -1.0 13.0 Q-1.5 -4.2 -1.5 -20.9 L-1.0 -21.0 -1.0 12.5 Q-1.5 -4.25 -1.5 -21.0 L303.0 -21.0 303.0 13.0 -1.0 13.0 -1.0 12.5 -1.0 -21.0"/>
    </path>
  </g>
</svg>
