<?xml version="1.0" encoding="UTF-8" standalone="no"?>
<svg xmlns:xlink="http://www.w3.org/1999/xlink" height="9.6px" width="9.25px" xmlns="http://www.w3.org/2000/svg">
  <g transform="matrix(1.0, 0.0, 0.0, 1.0, -28.4, 4.6)">
    <path d="M28.4 3.55 Q28.4 5.0 29.9 5.0 L34.05 5.0 Q35.5 5.0 36.4 4.05 37.35 3.15 37.35 1.75 37.35 0.45 36.35 -0.3 35.5 -0.9 34.15 -0.9 L33.45 -0.9 32.8 -0.85 Q32.35 -0.85 32.35 -1.0 L32.4 -1.3 32.7 -1.45 37.5 -1.45 37.65 -3.05 Q37.65 -4.6 36.1 -4.6 L32.5 -4.6 Q31.0 -4.6 29.95 -3.7 28.9 -2.8 28.9 -1.3 28.9 0.0 29.9 0.75 30.75 1.4 32.1 1.4 L33.0 1.3 33.8 1.4 33.9 1.75 33.55 1.85 28.6 1.85 28.4 3.55" fill="url(#gradient0)" fill-rule="evenodd" stroke="none">
      <animate attributeName="d" dur="2s" repeatCount="indefinite" values="M28.4 3.55 Q28.4 5.0 29.9 5.0 L34.05 5.0 Q35.5 5.0 36.4 4.05 37.35 3.15 37.35 1.75 37.35 0.45 36.35 -0.3 35.5 -0.9 34.15 -0.9 L33.45 -0.9 32.8 -0.85 Q32.35 -0.85 32.35 -1.0 L32.4 -1.3 32.7 -1.45 37.5 -1.45 37.65 -3.05 Q37.65 -4.6 36.1 -4.6 L32.5 -4.6 Q31.0 -4.6 29.95 -3.7 28.9 -2.8 28.9 -1.3 28.9 0.0 29.9 0.75 30.75 1.4 32.1 1.4 L33.0 1.3 33.8 1.4 33.9 1.75 33.55 1.85 28.6 1.85 28.4 3.55;M28.4 3.55 Q28.4 5.0 29.9 5.0 L34.05 5.0 Q35.5 5.0 36.4 4.05 37.35 3.15 37.35 1.75 37.35 0.45 36.35 -0.3 35.5 -0.9 34.15 -0.9 L33.45 -0.9 32.8 -0.85 Q32.35 -0.85 32.35 -1.0 L32.4 -1.3 32.7 -1.45 37.5 -1.45 37.65 -3.05 Q37.65 -4.6 36.1 -4.6 L32.5 -4.6 Q31.0 -4.6 29.95 -3.7 28.9 -2.8 28.9 -1.3 28.9 0.0 29.9 0.75 30.75 1.4 32.1 1.4 L33.0 1.3 33.8 1.4 33.9 1.75 33.55 1.85 28.6 1.85 28.4 3.55"/>
    </path>
    <path d="M28.4 3.55 L28.6 1.85 33.55 1.85 33.9 1.75 33.8 1.4 33.0 1.3 32.1 1.4 Q30.75 1.4 29.9 0.75 28.9 0.0 28.9 -1.3 28.9 -2.8 29.95 -3.7 31.0 -4.6 32.5 -4.6 L36.1 -4.6 Q37.65 -4.6 37.65 -3.05 L37.5 -1.45 32.7 -1.45 32.4 -1.3 32.35 -1.0 Q32.35 -0.85 32.8 -0.85 L33.45 -0.9 34.15 -0.9 Q35.5 -0.9 36.35 -0.3 37.35 0.45 37.35 1.75 37.35 3.15 36.4 4.05 35.5 5.0 34.05 5.0 L29.9 5.0 Q28.4 5.0 28.4 3.55" fill="none" stroke="#000000" stroke-linecap="round" stroke-linejoin="round" stroke-opacity="0.0" stroke-width="1.0">
      <animate attributeName="stroke" dur="2s" repeatCount="indefinite" values="#000000;#000001"/>
      <animate attributeName="stroke-width" dur="2s" repeatCount="indefinite" values="0.0;0.0"/>
      <animate attributeName="fill-opacity" dur="2s" repeatCount="indefinite" values="0.0;0.0"/>
      <animate attributeName="d" dur="2s" repeatCount="indefinite" values="M28.4 3.55 L28.6 1.85 33.55 1.85 33.9 1.75 33.8 1.4 33.0 1.3 32.1 1.4 Q30.75 1.4 29.9 0.75 28.9 0.0 28.9 -1.3 28.9 -2.8 29.95 -3.7 31.0 -4.6 32.5 -4.6 L36.1 -4.6 Q37.65 -4.6 37.65 -3.05 L37.5 -1.45 32.7 -1.45 32.4 -1.3 32.35 -1.0 Q32.35 -0.85 32.8 -0.85 L33.45 -0.9 34.15 -0.9 Q35.5 -0.9 36.35 -0.3 37.35 0.45 37.35 1.75 37.35 3.15 36.4 4.05 35.5 5.0 34.05 5.0 L29.9 5.0 Q28.4 5.0 28.4 3.55;M28.4 3.55 L28.6 1.85 33.55 1.85 33.9 1.75 33.8 1.4 33.0 1.3 32.1 1.4 Q30.75 1.4 29.9 0.75 28.9 0.0 28.9 -1.3 28.9 -2.8 29.95 -3.7 31.0 -4.6 32.5 -4.6 L36.1 -4.6 Q37.65 -4.6 37.65 -3.05 L37.5 -1.45 32.7 -1.45 32.4 -1.3 32.35 -1.0 Q32.35 -0.85 32.8 -0.85 L33.45 -0.9 34.15 -0.9 Q35.5 -0.9 36.35 -0.3 37.35 0.45 37.35 1.75 37.35 3.15 36.4 4.05 35.5 5.0 34.05 5.0 L29.9 5.0 Q28.4 5.0 28.4 3.55"/>
    </path>
  </g>
  <defs>
    <radialGradient cx="0" cy="0" gradientTransform="matrix(0.0075, 0.0, 0.0, 0.0075, 33.05, 0.2)" gradientUnits="userSpaceOnUse" id="gradient0" r="819.2" spreadMethod="pad">
      <animateTransform additive="replace" attributeName="gradientTransform" dur="2s" from="1" repeatCount="indefinite" to="1" type="scale"/>
      <animateTransform additive="sum" attributeName="gradientTransform" dur="2s" from="33.05 0.2" repeatCount="indefinite" to="33.05 0.2" type="translate"/>
      <animateTransform additive="sum" attributeName="gradientTransform" dur="2s" from="0.0" repeatCount="indefinite" to="0.0" type="rotate"/>
      <animateTransform additive="sum" attributeName="gradientTransform" dur="2s" from="0.0075 0.0075" repeatCount="indefinite" to="0.0075 0.0075" type="scale"/>
      <animateTransform additive="sum" attributeName="gradientTransform" dur="2s" from="0.0" repeatCount="indefinite" to="0.0" type="skewX"/>
      <stop offset="0.0" stop-color="#009900">
        <animate attributeName="offset" dur="2s" repeatCount="indefinite" values="0.0;0.0"/>
        <animate attributeName="stop-color" dur="2s" repeatCount="indefinite" values="#009900;#0a970a"/>
        <animate attributeName="stop-opacity" dur="2s" repeatCount="indefinite" values="1.0;1.0"/>
      </stop>
      <stop offset="0.5764705882352941" stop-color="#009900">
        <animate attributeName="offset" dur="2s" repeatCount="indefinite" values="0.5764705882352941;0.5764705882352941"/>
        <animate attributeName="stop-color" dur="2s" repeatCount="indefinite" values="#009900;#52d863"/>
        <animate attributeName="stop-opacity" dur="2s" repeatCount="indefinite" values="1.0;1.0"/>
      </stop>
      <stop offset="1.0" stop-color="#009900">
        <animate attributeName="offset" dur="2s" repeatCount="indefinite" values="1.0;1.0"/>
        <animate attributeName="stop-color" dur="2s" repeatCount="indefinite" values="#009900;#ffffff"/>
        <animate attributeName="stop-opacity" dur="2s" repeatCount="indefinite" values="1.0;1.0"/>
      </stop>
    </radialGradient>
  </defs>
</svg>
