<?xml version="1.0" encoding="UTF-8" standalone="no"?>
<svg xmlns:xlink="http://www.w3.org/1999/xlink" height="9.85px" width="15.65px" xmlns="http://www.w3.org/2000/svg">
  <g transform="matrix(1.0, 0.0, 0.0, 1.0, 20.35, 4.6)">
    <path d="M-20.35 1.3 Q-20.35 3.1 -19.15 4.2 -17.95 5.25 -16.15 5.25 -14.55 5.25 -13.05 4.0 L-11.8 4.95 -10.25 5.25 Q-8.2 5.25 -6.75 4.0 -5.3 2.75 -5.1 0.75 L-4.7 -2.85 -4.7 -3.05 Q-4.7 -4.6 -6.25 -4.6 L-7.3 -4.6 Q-8.15 -4.6 -8.7 -4.05 -9.3 -3.55 -9.3 -2.75 -9.3 -1.8 -8.45 -1.45 L-8.65 0.7 Q-8.8 2.0 -9.95 2.0 -10.95 2.0 -11.0 0.95 L-10.75 -1.45 Q-9.55 -1.9 -9.55 -3.1 -9.55 -3.8 -10.0 -4.2 -10.45 -4.6 -11.1 -4.6 L-13.2 -4.6 Q-14.0 -4.6 -14.55 -4.1 -15.1 -3.55 -15.1 -2.8 -15.1 -1.8 -14.25 -1.45 L-14.5 0.75 Q-14.6 2.0 -15.75 2.0 -16.8 2.0 -16.8 0.95 L-16.55 -1.45 -16.35 -1.5 Q-15.4 -1.85 -15.4 -3.05 -15.4 -4.6 -17.05 -4.6 L-18.95 -4.4 Q-19.8 -4.05 -19.95 -2.75 L-20.3 0.75 -20.35 1.3" fill="url(#gradient0)" fill-rule="evenodd" stroke="none">
      <animate attributeName="d" dur="2s" repeatCount="indefinite" values="M-20.35 1.3 Q-20.35 3.1 -19.15 4.2 -17.95 5.25 -16.15 5.25 -14.55 5.25 -13.05 4.0 L-11.8 4.95 -10.25 5.25 Q-8.2 5.25 -6.75 4.0 -5.3 2.75 -5.1 0.75 L-4.7 -2.85 -4.7 -3.05 Q-4.7 -4.6 -6.25 -4.6 L-7.3 -4.6 Q-8.15 -4.6 -8.7 -4.05 -9.3 -3.55 -9.3 -2.75 -9.3 -1.8 -8.45 -1.45 L-8.65 0.7 Q-8.8 2.0 -9.95 2.0 -10.95 2.0 -11.0 0.95 L-10.75 -1.45 Q-9.55 -1.9 -9.55 -3.1 -9.55 -3.8 -10.0 -4.2 -10.45 -4.6 -11.1 -4.6 L-13.2 -4.6 Q-14.0 -4.6 -14.55 -4.1 -15.1 -3.55 -15.1 -2.8 -15.1 -1.8 -14.25 -1.45 L-14.5 0.75 Q-14.6 2.0 -15.75 2.0 -16.8 2.0 -16.8 0.95 L-16.55 -1.45 -16.35 -1.5 Q-15.4 -1.85 -15.4 -3.05 -15.4 -4.6 -17.05 -4.6 L-18.95 -4.4 Q-19.8 -4.05 -19.95 -2.75 L-20.3 0.75 -20.35 1.3;M-20.35 1.3 Q-20.35 3.1 -19.15 4.2 -17.95 5.25 -16.15 5.25 -14.55 5.25 -13.05 4.0 L-11.8 4.95 -10.25 5.25 Q-8.2 5.25 -6.75 4.0 -5.3 2.75 -5.1 0.75 L-4.7 -2.85 -4.7 -3.05 Q-4.7 -4.6 -6.25 -4.6 L-7.3 -4.6 Q-8.15 -4.6 -8.7 -4.05 -9.3 -3.55 -9.3 -2.75 -9.3 -1.8 -8.45 -1.45 L-8.65 0.7 Q-8.8 2.0 -9.95 2.0 -10.95 2.0 -11.0 0.95 L-10.75 -1.45 Q-9.55 -1.9 -9.55 -3.1 -9.55 -3.8 -10.0 -4.2 -10.45 -4.6 -11.1 -4.6 L-13.2 -4.6 Q-14.0 -4.6 -14.55 -4.1 -15.1 -3.55 -15.1 -2.8 -15.1 -1.8 -14.25 -1.45 L-14.5 0.75 Q-14.6 2.0 -15.75 2.0 -16.8 2.0 -16.8 0.95 L-16.55 -1.45 -16.35 -1.5 Q-15.4 -1.85 -15.4 -3.05 -15.4 -4.6 -17.05 -4.6 L-18.95 -4.4 Q-19.8 -4.05 -19.95 -2.75 L-20.3 0.75 -20.35 1.3"/>
    </path>
    <path d="M-20.35 1.3 L-20.3 0.75 -19.95 -2.75 Q-19.8 -4.05 -18.95 -4.4 L-17.05 -4.6 Q-15.4 -4.6 -15.4 -3.05 -15.4 -1.85 -16.35 -1.5 L-16.55 -1.45 -16.8 0.95 Q-16.8 2.0 -15.75 2.0 -14.6 2.0 -14.5 0.75 L-14.25 -1.45 Q-15.1 -1.8 -15.1 -2.8 -15.1 -3.55 -14.55 -4.1 -14.0 -4.6 -13.2 -4.6 L-11.1 -4.6 Q-10.45 -4.6 -10.0 -4.2 -9.55 -3.8 -9.55 -3.1 -9.55 -1.9 -10.75 -1.45 L-11.0 0.95 Q-10.95 2.0 -9.95 2.0 -8.8 2.0 -8.65 0.7 L-8.45 -1.45 Q-9.3 -1.8 -9.3 -2.75 -9.3 -3.55 -8.7 -4.05 -8.15 -4.6 -7.3 -4.6 L-6.25 -4.6 Q-4.7 -4.6 -4.7 -3.05 L-4.7 -2.85 -5.1 0.75 Q-5.3 2.75 -6.75 4.0 -8.2 5.25 -10.25 5.25 L-11.8 4.95 -13.05 4.0 Q-14.55 5.25 -16.15 5.25 -17.95 5.25 -19.15 4.2 -20.35 3.1 -20.35 1.3" fill="none" stroke="#000000" stroke-linecap="round" stroke-linejoin="round" stroke-opacity="0.0" stroke-width="1.0">
      <animate attributeName="stroke" dur="2s" repeatCount="indefinite" values="#000000;#000001"/>
      <animate attributeName="stroke-width" dur="2s" repeatCount="indefinite" values="0.0;0.0"/>
      <animate attributeName="fill-opacity" dur="2s" repeatCount="indefinite" values="0.0;0.0"/>
      <animate attributeName="d" dur="2s" repeatCount="indefinite" values="M-20.35 1.3 L-20.3 0.75 -19.95 -2.75 Q-19.8 -4.05 -18.95 -4.4 L-17.05 -4.6 Q-15.4 -4.6 -15.4 -3.05 -15.4 -1.85 -16.35 -1.5 L-16.55 -1.45 -16.8 0.95 Q-16.8 2.0 -15.75 2.0 -14.6 2.0 -14.5 0.75 L-14.25 -1.45 Q-15.1 -1.8 -15.1 -2.8 -15.1 -3.55 -14.55 -4.1 -14.0 -4.6 -13.2 -4.6 L-11.1 -4.6 Q-10.45 -4.6 -10.0 -4.2 -9.55 -3.8 -9.55 -3.1 -9.55 -1.9 -10.75 -1.45 L-11.0 0.95 Q-10.95 2.0 -9.95 2.0 -8.8 2.0 -8.65 0.7 L-8.45 -1.45 Q-9.3 -1.8 -9.3 -2.75 -9.3 -3.55 -8.7 -4.05 -8.15 -4.6 -7.3 -4.6 L-6.25 -4.6 Q-4.7 -4.6 -4.7 -3.05 L-4.7 -2.85 -5.1 0.75 Q-5.3 2.75 -6.75 4.0 -8.2 5.25 -10.25 5.25 L-11.8 4.95 -13.05 4.0 Q-14.55 5.25 -16.15 5.25 -17.95 5.25 -19.15 4.2 -20.35 3.1 -20.35 1.3;M-20.35 1.3 L-20.3 0.75 -19.95 -2.75 Q-19.8 -4.05 -18.95 -4.4 L-17.05 -4.6 Q-15.4 -4.6 -15.4 -3.05 -15.4 -1.85 -16.35 -1.5 L-16.55 -1.45 -16.8 0.95 Q-16.8 2.0 -15.75 2.0 -14.6 2.0 -14.5 0.75 L-14.25 -1.45 Q-15.1 -1.8 -15.1 -2.8 -15.1 -3.55 -14.55 -4.1 -14.0 -4.6 -13.2 -4.6 L-11.1 -4.6 Q-10.45 -4.6 -10.0 -4.2 -9.55 -3.8 -9.55 -3.1 -9.55 -1.9 -10.75 -1.45 L-11.0 0.95 Q-10.95 2.0 -9.95 2.0 -8.8 2.0 -8.65 0.7 L-8.45 -1.45 Q-9.3 -1.8 -9.3 -2.75 -9.3 -3.55 -8.7 -4.05 -8.15 -4.6 -7.3 -4.6 L-6.25 -4.6 Q-4.7 -4.6 -4.7 -3.05 L-4.7 -2.85 -5.1 0.75 Q-5.3 2.75 -6.75 4.0 -8.2 5.25 -10.25 5.25 L-11.8 4.95 -13.05 4.0 Q-14.55 5.25 -16.15 5.25 -17.95 5.25 -19.15 4.2 -20.35 3.1 -20.35 1.3"/>
    </path>
  </g>
  <defs>
    <radialGradient cx="0" cy="0" gradientTransform="matrix(0.0107, 0.0, 0.0, 0.0107, -12.5, 0.35)" gradientUnits="userSpaceOnUse" id="gradient0" r="819.2" spreadMethod="pad">
      <animateTransform additive="replace" attributeName="gradientTransform" dur="2s" from="1" repeatCount="indefinite" to="1" type="scale"/>
      <animateTransform additive="sum" attributeName="gradientTransform" dur="2s" from="-12.5 0.35" repeatCount="indefinite" to="-12.5 0.35" type="translate"/>
      <animateTransform additive="sum" attributeName="gradientTransform" dur="2s" from="0.0" repeatCount="indefinite" to="0.0" type="rotate"/>
      <animateTransform additive="sum" attributeName="gradientTransform" dur="2s" from="0.0107 0.0107" repeatCount="indefinite" to="0.0107 0.0107" type="scale"/>
      <animateTransform additive="sum" attributeName="gradientTransform" dur="2s" from="0.0" repeatCount="indefinite" to="0.0" type="skewX"/>
      <stop offset="0.0" stop-color="#009900">
        <animate attributeName="offset" dur="2s" repeatCount="indefinite" values="0.0;0.0"/>
        <animate attributeName="stop-color" dur="2s" repeatCount="indefinite" values="#009900;#0a970a"/>
        <animate attributeName="stop-opacity" dur="2s" repeatCount="indefinite" values="1.0;1.0"/>
      </stop>
      <stop offset="0.5764705882352941" stop-color="#009900">
        <animate attributeName="offset" dur="2s" repeatCount="indefinite" values="0.5764705882352941;0.5764705882352941"/>
        <animate attributeName="stop-color" dur="2s" repeatCount="indefinite" values="#009900;#52d863"/>
        <animate attributeName="stop-opacity" dur="2s" repeatCount="indefinite" values="1.0;1.0"/>
      </stop>
      <stop offset="1.0" stop-color="#009900">
        <animate attributeName="offset" dur="2s" repeatCount="indefinite" values="1.0;1.0"/>
        <animate attributeName="stop-color" dur="2s" repeatCount="indefinite" values="#009900;#ffffff"/>
        <animate attributeName="stop-opacity" dur="2s" repeatCount="indefinite" values="1.0;1.0"/>
      </stop>
    </radialGradient>
  </defs>
</svg>
