<?xml version="1.0" encoding="UTF-8" standalone="no"?>
<svg xmlns:xlink="http://www.w3.org/1999/xlink" height="12.85px" width="10.6px" xmlns="http://www.w3.org/2000/svg">
  <g transform="matrix(1.0, 0.0, 0.0, 1.0, 42.35, 7.85)">
    <path d="M-38.2 -2.25 L-36.65 -2.25 Q-36.0 -2.25 -35.6 -2.6 -35.2 -2.95 -35.55 -4.45 -35.9 -4.75 -37.95 -3.95 L-38.2 -2.25 M-42.35 3.4 L-42.35 3.55 Q-42.35 5.0 -40.85 5.0 L-39.0 5.0 -38.55 0.8 -37.95 0.8 -36.25 4.55 -35.75 5.0 -33.8 5.0 Q-32.95 5.0 -32.35 4.5 -31.75 4.0 -31.75 3.2 -31.75 2.35 -32.4 2.0 L-33.85 1.7 -34.45 0.3 Q-33.25 -0.2 -32.55 -1.4 -31.85 -2.55 -31.85 -3.85 -31.85 -5.7 -33.15 -6.8 -34.4 -7.85 -36.25 -7.85 -38.55 -7.85 -40.0 -6.55 -41.45 -5.25 -41.65 -3.0 L-42.35 3.4" fill="url(#gradient0)" fill-rule="evenodd" stroke="none">
      <animate attributeName="d" dur="2s" repeatCount="indefinite" values="M-38.2 -2.25 L-36.65 -2.25 Q-36.0 -2.25 -35.6 -2.6 -35.2 -2.95 -35.55 -4.45 -35.9 -4.75 -37.95 -3.95 L-38.2 -2.25 M-42.35 3.4 L-42.35 3.55 Q-42.35 5.0 -40.85 5.0 L-39.0 5.0 -38.55 0.8 -37.95 0.8 -36.25 4.55 -35.75 5.0 -33.8 5.0 Q-32.95 5.0 -32.35 4.5 -31.75 4.0 -31.75 3.2 -31.75 2.35 -32.4 2.0 L-33.85 1.7 -34.45 0.3 Q-33.25 -0.2 -32.55 -1.4 -31.85 -2.55 -31.85 -3.85 -31.85 -5.7 -33.15 -6.8 -34.4 -7.85 -36.25 -7.85 -38.55 -7.85 -40.0 -6.55 -41.45 -5.25 -41.65 -3.0 L-42.35 3.4;M-38.2 -2.25 L-36.65 -2.25 Q-36.0 -2.25 -35.6 -2.6 -35.2 -2.95 -35.55 -4.45 -35.9 -4.75 -37.95 -3.95 L-38.2 -2.25 M-42.35 3.4 L-42.35 3.55 Q-42.35 5.0 -40.85 5.0 L-39.0 5.0 -38.55 0.8 -37.95 0.8 -36.25 4.55 -35.75 5.0 -33.8 5.0 Q-32.95 5.0 -32.35 4.5 -31.75 4.0 -31.75 3.2 -31.75 2.35 -32.4 2.0 L-33.85 1.7 -34.45 0.3 Q-33.25 -0.2 -32.55 -1.4 -31.85 -2.55 -31.85 -3.85 -31.85 -5.7 -33.15 -6.8 -34.4 -7.85 -36.25 -7.85 -38.55 -7.85 -40.0 -6.55 -41.45 -5.25 -41.65 -3.0 L-42.35 3.4"/>
    </path>
    <path d="M-42.35 3.4 L-41.65 -3.0 Q-41.45 -5.25 -40.0 -6.55 -38.55 -7.85 -36.25 -7.85 -34.4 -7.85 -33.15 -6.8 -31.85 -5.7 -31.85 -3.85 -31.85 -2.55 -32.55 -1.4 -33.25 -0.2 -34.45 0.3 L-33.85 1.7 -32.4 2.0 Q-31.75 2.35 -31.75 3.2 -31.75 4.0 -32.35 4.5 -32.95 5.0 -33.8 5.0 L-35.75 5.0 -36.25 4.55 -37.95 0.8 -38.55 0.8 -39.0 5.0 -40.85 5.0 Q-42.35 5.0 -42.35 3.55 L-42.35 3.4 M-38.2 -2.25 L-37.95 -3.95 Q-35.9 -4.75 -35.55 -4.45 -35.2 -2.95 -35.6 -2.6 -36.0 -2.25 -36.65 -2.25 L-38.2 -2.25" fill="none" stroke="#000000" stroke-linecap="round" stroke-linejoin="round" stroke-opacity="0.0" stroke-width="1.0">
      <animate attributeName="stroke" dur="2s" repeatCount="indefinite" values="#000000;#000001"/>
      <animate attributeName="stroke-width" dur="2s" repeatCount="indefinite" values="0.0;0.0"/>
      <animate attributeName="fill-opacity" dur="2s" repeatCount="indefinite" values="0.0;0.0"/>
      <animate attributeName="d" dur="2s" repeatCount="indefinite" values="M-42.35 3.4 L-41.65 -3.0 Q-41.45 -5.25 -40.0 -6.55 -38.55 -7.85 -36.25 -7.85 -34.4 -7.85 -33.15 -6.8 -31.85 -5.7 -31.85 -3.85 -31.85 -2.55 -32.55 -1.4 -33.25 -0.2 -34.45 0.3 L-33.85 1.7 -32.4 2.0 Q-31.75 2.35 -31.75 3.2 -31.75 4.0 -32.35 4.5 -32.95 5.0 -33.8 5.0 L-35.75 5.0 -36.25 4.55 -37.95 0.8 -38.55 0.8 -39.0 5.0 -40.85 5.0 Q-42.35 5.0 -42.35 3.55 L-42.35 3.4 M-38.2 -2.25 L-37.95 -3.95 Q-35.9 -4.75 -35.55 -4.45 -35.2 -2.95 -35.6 -2.6 -36.0 -2.25 -36.65 -2.25 L-38.2 -2.25;M-42.35 3.4 L-41.65 -3.0 Q-41.45 -5.25 -40.0 -6.55 -38.55 -7.85 -36.25 -7.85 -34.4 -7.85 -33.15 -6.8 -31.85 -5.7 -31.85 -3.85 -31.85 -2.55 -32.55 -1.4 -33.25 -0.2 -34.45 0.3 L-33.85 1.7 -32.4 2.0 Q-31.75 2.35 -31.75 3.2 -31.75 4.0 -32.35 4.5 -32.95 5.0 -33.8 5.0 L-35.75 5.0 -36.25 4.55 -37.95 0.8 -38.55 0.8 -39.0 5.0 -40.85 5.0 Q-42.35 5.0 -42.35 3.55 L-42.35 3.4 M-38.2 -2.25 L-37.95 -3.95 Q-35.9 -4.75 -35.55 -4.45 -35.2 -2.95 -35.6 -2.6 -36.0 -2.25 -36.65 -2.25 L-38.2 -2.25"/>
    </path>
  </g>
  <defs>
    <radialGradient cx="0" cy="0" gradientTransform="matrix(0.0099, 0.0, 0.0, 0.0099, -37.05, -1.4)" gradientUnits="userSpaceOnUse" id="gradient0" r="819.2" spreadMethod="pad">
      <animateTransform additive="replace" attributeName="gradientTransform" dur="2s" from="1" repeatCount="indefinite" to="1" type="scale"/>
      <animateTransform additive="sum" attributeName="gradientTransform" dur="2s" from="-37.05 -1.4" repeatCount="indefinite" to="-37.05 -1.4" type="translate"/>
      <animateTransform additive="sum" attributeName="gradientTransform" dur="2s" from="0.0" repeatCount="indefinite" to="0.0" type="rotate"/>
      <animateTransform additive="sum" attributeName="gradientTransform" dur="2s" from="0.0099 0.0099" repeatCount="indefinite" to="0.0099 0.0099" type="scale"/>
      <animateTransform additive="sum" attributeName="gradientTransform" dur="2s" from="0.0" repeatCount="indefinite" to="0.0" type="skewX"/>
      <stop offset="0.0" stop-color="#0a9709">
        <animate attributeName="offset" dur="2s" repeatCount="indefinite" values="0.0;0.0"/>
        <animate attributeName="stop-color" dur="2s" repeatCount="indefinite" values="#0a9709;#009901"/>
        <animate attributeName="stop-opacity" dur="2s" repeatCount="indefinite" values="1.0;1.0"/>
      </stop>
      <stop offset="0.5764705882352941" stop-color="#52d862">
        <animate attributeName="offset" dur="2s" repeatCount="indefinite" values="0.5764705882352941;0.5764705882352941"/>
        <animate attributeName="stop-color" dur="2s" repeatCount="indefinite" values="#52d862;#009901"/>
        <animate attributeName="stop-opacity" dur="2s" repeatCount="indefinite" values="1.0;1.0"/>
      </stop>
      <stop offset="1.0" stop-color="#ffffff">
        <animate attributeName="offset" dur="2s" repeatCount="indefinite" values="1.0;1.0"/>
        <animate attributeName="stop-color" dur="2s" repeatCount="indefinite" values="#ffffff;#009901"/>
        <animate attributeName="stop-opacity" dur="2s" repeatCount="indefinite" values="1.0;1.0"/>
      </stop>
    </radialGradient>
  </defs>
</svg>
