<?xml version="1.0" encoding="UTF-8" standalone="no"?>
<svg xmlns:xlink="http://www.w3.org/1999/xlink" height="9.6px" width="9.25px" xmlns="http://www.w3.org/2000/svg">
  <g transform="matrix(1.0, 0.0, 0.0, 1.0, -10.1, 3.1)">
    <path d="M10.1 5.05 Q10.1 6.5 11.6 6.5 L15.75 6.5 Q17.2 6.5 18.1 5.55 19.05 4.65 19.05 3.25 19.05 1.95 18.05 1.2 17.2 0.6 15.85 0.6 L15.15 0.6 14.5 0.65 Q14.05 0.65 14.05 0.5 L14.1 0.2 14.4 0.05 19.2 0.05 19.35 -1.55 Q19.35 -3.1 17.8 -3.1 L14.2 -3.1 Q12.7 -3.1 11.65 -2.2 10.6 -1.3 10.6 0.2 10.6 1.5 11.6 2.25 12.45 2.9 13.8 2.9 L14.7 2.8 15.5 2.9 15.6 3.25 15.25 3.35 10.3 3.35 10.1 5.05" fill="url(#gradient0)" fill-rule="evenodd" stroke="none">
      <animate attributeName="d" dur="2s" repeatCount="indefinite" values="M10.1 5.05 Q10.1 6.5 11.6 6.5 L15.75 6.5 Q17.2 6.5 18.1 5.55 19.05 4.65 19.05 3.25 19.05 1.95 18.05 1.2 17.2 0.6 15.85 0.6 L15.15 0.6 14.5 0.65 Q14.05 0.65 14.05 0.5 L14.1 0.2 14.4 0.05 19.2 0.05 19.35 -1.55 Q19.35 -3.1 17.8 -3.1 L14.2 -3.1 Q12.7 -3.1 11.65 -2.2 10.6 -1.3 10.6 0.2 10.6 1.5 11.6 2.25 12.45 2.9 13.8 2.9 L14.7 2.8 15.5 2.9 15.6 3.25 15.25 3.35 10.3 3.35 10.1 5.05;M10.1 5.05 Q10.1 6.5 11.6 6.5 L15.75 6.5 Q17.2 6.5 18.1 5.55 19.05 4.65 19.05 3.25 19.05 1.95 18.05 1.2 17.2 0.6 15.85 0.6 L15.15 0.6 14.5 0.65 Q14.05 0.65 14.05 0.5 L14.1 0.2 14.4 0.05 19.2 0.05 19.35 -1.55 Q19.35 -3.1 17.8 -3.1 L14.2 -3.1 Q12.7 -3.1 11.65 -2.2 10.6 -1.3 10.6 0.2 10.6 1.5 11.6 2.25 12.45 2.9 13.8 2.9 L14.7 2.8 15.5 2.9 15.6 3.25 15.25 3.35 10.3 3.35 10.1 5.05"/>
    </path>
    <path d="M10.1 5.05 L10.3 3.35 15.25 3.35 15.6 3.25 15.5 2.9 14.7 2.8 13.8 2.9 Q12.45 2.9 11.6 2.25 10.6 1.5 10.6 0.2 10.6 -1.3 11.65 -2.2 12.7 -3.1 14.2 -3.1 L17.8 -3.1 Q19.35 -3.1 19.35 -1.55 L19.2 0.05 14.4 0.05 14.1 0.2 14.05 0.5 Q14.05 0.65 14.5 0.65 L15.15 0.6 15.85 0.6 Q17.2 0.6 18.05 1.2 19.05 1.95 19.05 3.25 19.05 4.65 18.1 5.55 17.2 6.5 15.75 6.5 L11.6 6.5 Q10.1 6.5 10.1 5.05" fill="none" stroke="#000000" stroke-linecap="round" stroke-linejoin="round" stroke-opacity="0.0" stroke-width="1.0">
      <animate attributeName="stroke" dur="2s" repeatCount="indefinite" values="#000000;#000001"/>
      <animate attributeName="stroke-width" dur="2s" repeatCount="indefinite" values="0.0;0.0"/>
      <animate attributeName="fill-opacity" dur="2s" repeatCount="indefinite" values="0.0;0.0"/>
      <animate attributeName="d" dur="2s" repeatCount="indefinite" values="M10.1 5.05 L10.3 3.35 15.25 3.35 15.6 3.25 15.5 2.9 14.7 2.8 13.8 2.9 Q12.45 2.9 11.6 2.25 10.6 1.5 10.6 0.2 10.6 -1.3 11.65 -2.2 12.7 -3.1 14.2 -3.1 L17.8 -3.1 Q19.35 -3.1 19.35 -1.55 L19.2 0.05 14.4 0.05 14.1 0.2 14.05 0.5 Q14.05 0.65 14.5 0.65 L15.15 0.6 15.85 0.6 Q17.2 0.6 18.05 1.2 19.05 1.95 19.05 3.25 19.05 4.65 18.1 5.55 17.2 6.5 15.75 6.5 L11.6 6.5 Q10.1 6.5 10.1 5.05;M10.1 5.05 L10.3 3.35 15.25 3.35 15.6 3.25 15.5 2.9 14.7 2.8 13.8 2.9 Q12.45 2.9 11.6 2.25 10.6 1.5 10.6 0.2 10.6 -1.3 11.65 -2.2 12.7 -3.1 14.2 -3.1 L17.8 -3.1 Q19.35 -3.1 19.35 -1.55 L19.2 0.05 14.4 0.05 14.1 0.2 14.05 0.5 Q14.05 0.65 14.5 0.65 L15.15 0.6 15.85 0.6 Q17.2 0.6 18.05 1.2 19.05 1.95 19.05 3.25 19.05 4.65 18.1 5.55 17.2 6.5 15.75 6.5 L11.6 6.5 Q10.1 6.5 10.1 5.05"/>
    </path>
  </g>
  <defs>
    <radialGradient cx="0" cy="0" gradientTransform="matrix(0.0075, 0.0, 0.0, 0.0075, 14.75, 1.7)" gradientUnits="userSpaceOnUse" id="gradient0" r="819.2" spreadMethod="pad">
      <animateTransform additive="replace" attributeName="gradientTransform" dur="2s" from="1" repeatCount="indefinite" to="1" type="scale"/>
      <animateTransform additive="sum" attributeName="gradientTransform" dur="2s" from="14.75 1.7" repeatCount="indefinite" to="14.75 1.7" type="translate"/>
      <animateTransform additive="sum" attributeName="gradientTransform" dur="2s" from="0.0" repeatCount="indefinite" to="0.0" type="rotate"/>
      <animateTransform additive="sum" attributeName="gradientTransform" dur="2s" from="0.0075 0.0075" repeatCount="indefinite" to="0.0075 0.0075" type="scale"/>
      <animateTransform additive="sum" attributeName="gradientTransform" dur="2s" from="0.0" repeatCount="indefinite" to="0.0" type="skewX"/>
      <stop offset="0.0" stop-color="#009900">
        <animate attributeName="offset" dur="2s" repeatCount="indefinite" values="0.0;0.0"/>
        <animate attributeName="stop-color" dur="2s" repeatCount="indefinite" values="#009900;#0a970a"/>
        <animate attributeName="stop-opacity" dur="2s" repeatCount="indefinite" values="1.0;1.0"/>
      </stop>
      <stop offset="0.5764705882352941" stop-color="#009900">
        <animate attributeName="offset" dur="2s" repeatCount="indefinite" values="0.5764705882352941;0.5764705882352941"/>
        <animate attributeName="stop-color" dur="2s" repeatCount="indefinite" values="#009900;#52d863"/>
        <animate attributeName="stop-opacity" dur="2s" repeatCount="indefinite" values="1.0;1.0"/>
      </stop>
      <stop offset="1.0" stop-color="#009900">
        <animate attributeName="offset" dur="2s" repeatCount="indefinite" values="1.0;1.0"/>
        <animate attributeName="stop-color" dur="2s" repeatCount="indefinite" values="#009900;#ffffff"/>
        <animate attributeName="stop-opacity" dur="2s" repeatCount="indefinite" values="1.0;1.0"/>
      </stop>
    </radialGradient>
  </defs>
</svg>
