<?xml version="1.0" encoding="UTF-8" standalone="no"?>
<svg xmlns:xlink="http://www.w3.org/1999/xlink" height="12.6px" width="12.5px" xmlns="http://www.w3.org/2000/svg">
  <g transform="matrix(1.0, 0.0, 0.0, 1.0, 19.2, 6.1)">
    <path d="M-19.2 -2.7 Q-19.2 -2.1 -18.8 -1.65 -18.35 -1.25 -17.7 -1.25 -16.25 -1.25 -15.85 -2.95 L-14.75 -2.95 -15.4 3.2 Q-16.2 3.2 -16.7 3.75 -17.25 4.3 -17.25 5.05 -17.25 5.7 -16.85 6.1 -16.4 6.5 -15.75 6.5 L-12.3 6.5 Q-11.45 6.5 -10.9 5.95 -10.35 5.45 -10.35 4.6 -10.35 3.2 -11.9 3.2 L-11.25 -2.95 -10.1 -2.95 Q-10.1 -2.2 -9.75 -1.75 -9.4 -1.25 -8.7 -1.25 -8.0 -1.25 -7.45 -1.65 -6.95 -2.05 -6.85 -2.75 L-6.7 -4.6 Q-6.7 -6.1 -8.15 -6.1 L-17.15 -6.1 Q-18.4 -6.1 -18.85 -4.95 L-19.1 -3.85 -19.2 -2.7" fill="url(#gradient0)" fill-rule="evenodd" stroke="none">
      <animate attributeName="d" dur="2s" repeatCount="indefinite" values="M-19.2 -2.7 Q-19.2 -2.1 -18.8 -1.65 -18.35 -1.25 -17.7 -1.25 -16.25 -1.25 -15.85 -2.95 L-14.75 -2.95 -15.4 3.2 Q-16.2 3.2 -16.7 3.75 -17.25 4.3 -17.25 5.05 -17.25 5.7 -16.85 6.1 -16.4 6.5 -15.75 6.5 L-12.3 6.5 Q-11.45 6.5 -10.9 5.95 -10.35 5.45 -10.35 4.6 -10.35 3.2 -11.9 3.2 L-11.25 -2.95 -10.1 -2.95 Q-10.1 -2.2 -9.75 -1.75 -9.4 -1.25 -8.7 -1.25 -8.0 -1.25 -7.45 -1.65 -6.95 -2.05 -6.85 -2.75 L-6.7 -4.6 Q-6.7 -6.1 -8.15 -6.1 L-17.15 -6.1 Q-18.4 -6.1 -18.85 -4.95 L-19.1 -3.85 -19.2 -2.7;M-19.2 -2.7 Q-19.2 -2.1 -18.8 -1.65 -18.35 -1.25 -17.7 -1.25 -16.25 -1.25 -15.85 -2.95 L-14.75 -2.95 -15.4 3.2 Q-16.2 3.2 -16.7 3.75 -17.25 4.3 -17.25 5.05 -17.25 5.7 -16.85 6.1 -16.4 6.5 -15.75 6.5 L-12.3 6.5 Q-11.45 6.5 -10.9 5.95 -10.35 5.45 -10.35 4.6 -10.35 3.2 -11.9 3.2 L-11.25 -2.95 -10.1 -2.95 Q-10.1 -2.2 -9.75 -1.75 -9.4 -1.25 -8.7 -1.25 -8.0 -1.25 -7.45 -1.65 -6.95 -2.05 -6.85 -2.75 L-6.7 -4.6 Q-6.7 -6.1 -8.15 -6.1 L-17.15 -6.1 Q-18.4 -6.1 -18.85 -4.95 L-19.1 -3.85 -19.2 -2.7"/>
    </path>
    <path d="M-19.2 -2.7 L-19.1 -3.85 -18.85 -4.95 Q-18.4 -6.1 -17.15 -6.1 L-8.15 -6.1 Q-6.7 -6.1 -6.7 -4.6 L-6.85 -2.75 Q-6.95 -2.05 -7.45 -1.65 -8.0 -1.25 -8.7 -1.25 -9.4 -1.25 -9.75 -1.75 -10.1 -2.2 -10.1 -2.95 L-11.25 -2.95 -11.9 3.2 Q-10.35 3.2 -10.35 4.6 -10.35 5.45 -10.9 5.95 -11.45 6.5 -12.3 6.5 L-15.75 6.5 Q-16.4 6.5 -16.85 6.1 -17.25 5.7 -17.25 5.05 -17.25 4.3 -16.7 3.75 -16.2 3.2 -15.4 3.2 L-14.75 -2.95 -15.85 -2.95 Q-16.25 -1.25 -17.7 -1.25 -18.35 -1.25 -18.8 -1.65 -19.2 -2.1 -19.2 -2.7" fill="none" stroke="#000000" stroke-linecap="round" stroke-linejoin="round" stroke-opacity="0.0" stroke-width="1.0">
      <animate attributeName="stroke" dur="2s" repeatCount="indefinite" values="#000000;#000001"/>
      <animate attributeName="stroke-width" dur="2s" repeatCount="indefinite" values="0.0;0.0"/>
      <animate attributeName="fill-opacity" dur="2s" repeatCount="indefinite" values="0.0;0.0"/>
      <animate attributeName="d" dur="2s" repeatCount="indefinite" values="M-19.2 -2.7 L-19.1 -3.85 -18.85 -4.95 Q-18.4 -6.1 -17.15 -6.1 L-8.15 -6.1 Q-6.7 -6.1 -6.7 -4.6 L-6.85 -2.75 Q-6.95 -2.05 -7.45 -1.65 -8.0 -1.25 -8.7 -1.25 -9.4 -1.25 -9.75 -1.75 -10.1 -2.2 -10.1 -2.95 L-11.25 -2.95 -11.9 3.2 Q-10.35 3.2 -10.35 4.6 -10.35 5.45 -10.9 5.95 -11.45 6.5 -12.3 6.5 L-15.75 6.5 Q-16.4 6.5 -16.85 6.1 -17.25 5.7 -17.25 5.05 -17.25 4.3 -16.7 3.75 -16.2 3.2 -15.4 3.2 L-14.75 -2.95 -15.85 -2.95 Q-16.25 -1.25 -17.7 -1.25 -18.35 -1.25 -18.8 -1.65 -19.2 -2.1 -19.2 -2.7;M-19.2 -2.7 L-19.1 -3.85 -18.85 -4.95 Q-18.4 -6.1 -17.15 -6.1 L-8.15 -6.1 Q-6.7 -6.1 -6.7 -4.6 L-6.85 -2.75 Q-6.95 -2.05 -7.45 -1.65 -8.0 -1.25 -8.7 -1.25 -9.4 -1.25 -9.75 -1.75 -10.1 -2.2 -10.1 -2.95 L-11.25 -2.95 -11.9 3.2 Q-10.35 3.2 -10.35 4.6 -10.35 5.45 -10.9 5.95 -11.45 6.5 -12.3 6.5 L-15.75 6.5 Q-16.4 6.5 -16.85 6.1 -17.25 5.7 -17.25 5.05 -17.25 4.3 -16.7 3.75 -16.2 3.2 -15.4 3.2 L-14.75 -2.95 -15.85 -2.95 Q-16.25 -1.25 -17.7 -1.25 -18.35 -1.25 -18.8 -1.65 -19.2 -2.1 -19.2 -2.7"/>
    </path>
  </g>
  <defs>
    <radialGradient cx="0" cy="0" gradientTransform="matrix(0.0102, 0.0, 0.0, 0.0102, -12.95, 0.2)" gradientUnits="userSpaceOnUse" id="gradient0" r="819.2" spreadMethod="pad">
      <animateTransform additive="replace" attributeName="gradientTransform" dur="2s" from="1" repeatCount="indefinite" to="1" type="scale"/>
      <animateTransform additive="sum" attributeName="gradientTransform" dur="2s" from="-12.95 0.2" repeatCount="indefinite" to="-12.95 0.2" type="translate"/>
      <animateTransform additive="sum" attributeName="gradientTransform" dur="2s" from="0.0" repeatCount="indefinite" to="0.0" type="rotate"/>
      <animateTransform additive="sum" attributeName="gradientTransform" dur="2s" from="0.0102 0.0102" repeatCount="indefinite" to="0.0102 0.0102" type="scale"/>
      <animateTransform additive="sum" attributeName="gradientTransform" dur="2s" from="0.0" repeatCount="indefinite" to="0.0" type="skewX"/>
      <stop offset="0.0" stop-color="#009900">
        <animate attributeName="offset" dur="2s" repeatCount="indefinite" values="0.0;0.0"/>
        <animate attributeName="stop-color" dur="2s" repeatCount="indefinite" values="#009900;#0a970a"/>
        <animate attributeName="stop-opacity" dur="2s" repeatCount="indefinite" values="1.0;1.0"/>
      </stop>
      <stop offset="0.5764705882352941" stop-color="#009900">
        <animate attributeName="offset" dur="2s" repeatCount="indefinite" values="0.5764705882352941;0.5764705882352941"/>
        <animate attributeName="stop-color" dur="2s" repeatCount="indefinite" values="#009900;#52d863"/>
        <animate attributeName="stop-opacity" dur="2s" repeatCount="indefinite" values="1.0;1.0"/>
      </stop>
      <stop offset="1.0" stop-color="#009900">
        <animate attributeName="offset" dur="2s" repeatCount="indefinite" values="1.0;1.0"/>
        <animate attributeName="stop-color" dur="2s" repeatCount="indefinite" values="#009900;#ffffff"/>
        <animate attributeName="stop-opacity" dur="2s" repeatCount="indefinite" values="1.0;1.0"/>
      </stop>
    </radialGradient>
  </defs>
</svg>
