<?xml version="1.0" encoding="UTF-8" standalone="no"?>
<svg xmlns:xlink="http://www.w3.org/1999/xlink" height="8.35px" width="14.55px" xmlns="http://www.w3.org/2000/svg">
  <g transform="matrix(1.0, 0.0, 0.0, 1.0, 6.45, 14.5)">
    <path d="M-2.35 -12.75 L-2.35 -12.75 -2.3 -12.55 -1.9 -12.1 -1.9 -12.1 -1.9 -12.1 -1.9 -12.1 -1.7 -11.9 -1.35 -11.4 Q-0.75 -11.35 -0.2 -11.35 L0.2 -11.35 Q0.95 -11.85 1.65 -12.3 1.95 -12.45 2.2 -12.55 L2.4 -12.65 2.7 -12.8 2.8 -12.9 3.4 -13.1 3.5 -13.4 3.5 -13.6 2.7 -13.95 Q1.35 -14.25 0.0 -14.5 L-0.3 -14.5 Q-1.1 -14.35 -1.9 -14.2 L-2.2 -13.9 -2.25 -13.9 Q-2.3 -13.3 -2.35 -12.75" fill="url(#gradient0)" fill-rule="evenodd" stroke="none">
      <animate attributeName="d" dur="2s" repeatCount="indefinite" values="M-2.35 -12.75 L-2.35 -12.75 -2.3 -12.55 -1.9 -12.1 -1.9 -12.1 -1.9 -12.1 -1.9 -12.1 -1.7 -11.9 -1.35 -11.4 Q-0.75 -11.35 -0.2 -11.35 L0.2 -11.35 Q0.95 -11.85 1.65 -12.3 1.95 -12.45 2.2 -12.55 L2.4 -12.65 2.7 -12.8 2.8 -12.9 3.4 -13.1 3.5 -13.4 3.5 -13.6 2.7 -13.95 Q1.35 -14.25 0.0 -14.5 L-0.3 -14.5 Q-1.1 -14.35 -1.9 -14.2 L-2.2 -13.9 -2.25 -13.9 Q-2.3 -13.3 -2.35 -12.75;M-6.45 -9.25 L-6.35 -9.1 -6.1 -8.65 -5.95 -7.95 -5.8 -7.75 -5.65 -7.55 -5.5 -7.45 -4.8 -7.6 -3.15 -7.65 Q-1.65 -7.4 -0.45 -6.15 L0.5 -7.0 Q2.15 -8.05 4.15 -7.5 4.95 -7.3 5.5 -6.7 L6.0 -6.6 7.0 -6.2 7.35 -6.2 7.7 -7.7 8.1 -8.55 8.0 -9.2 7.2 -11.2 Q3.6 -14.0 1.0 -14.4 L0.0 -14.5 Q-1.85 -14.55 -4.15 -13.25 L-5.25 -12.6 -5.35 -12.4 Q-6.3 -11.0 -6.45 -9.25"/>
    </path>
    <path d="M-2.35 -12.75 Q-2.3 -13.3 -2.25 -13.9 L-2.2 -13.9 -1.9 -14.2 Q-1.1 -14.35 -0.3 -14.5 L0.0 -14.5 Q1.35 -14.25 2.7 -13.95 L3.5 -13.6 3.5 -13.4 3.4 -13.1 2.8 -12.9 2.7 -12.8 2.4 -12.65 2.2 -12.55 Q1.95 -12.45 1.65 -12.3 0.95 -11.85 0.2 -11.35 L-0.2 -11.35 Q-0.75 -11.35 -1.35 -11.4 L-1.7 -11.9 -1.9 -12.1 -1.9 -12.1 -1.9 -12.1 -1.9 -12.1 -2.3 -12.55 -2.35 -12.75 -2.35 -12.75" fill="none" stroke="#000000" stroke-linecap="round" stroke-linejoin="round" stroke-opacity="0.0" stroke-width="1.0">
      <animate attributeName="stroke" dur="2s" repeatCount="indefinite" values="#000000;#000001"/>
      <animate attributeName="stroke-width" dur="2s" repeatCount="indefinite" values="0.0;0.0"/>
      <animate attributeName="fill-opacity" dur="2s" repeatCount="indefinite" values="0.0;0.0"/>
      <animate attributeName="d" dur="2s" repeatCount="indefinite" values="M-2.35 -12.75 Q-2.3 -13.3 -2.25 -13.9 L-2.2 -13.9 -1.9 -14.2 Q-1.1 -14.35 -0.3 -14.5 L0.0 -14.5 Q1.35 -14.25 2.7 -13.95 L3.5 -13.6 3.5 -13.4 3.4 -13.1 2.8 -12.9 2.7 -12.8 2.4 -12.65 2.2 -12.55 Q1.95 -12.45 1.65 -12.3 0.95 -11.85 0.2 -11.35 L-0.2 -11.35 Q-0.75 -11.35 -1.35 -11.4 L-1.7 -11.9 -1.9 -12.1 -1.9 -12.1 -1.9 -12.1 -1.9 -12.1 -2.3 -12.55 -2.35 -12.75 -2.35 -12.75;M-6.45 -9.25 Q-6.3 -11.0 -5.35 -12.4 L-5.25 -12.6 -4.15 -13.25 Q-1.85 -14.55 0.0 -14.5 L1.0 -14.4 Q3.6 -14.0 7.2 -11.2 L8.0 -9.2 8.1 -8.55 7.7 -7.7 7.35 -6.2 7.0 -6.2 6.0 -6.6 5.5 -6.7 Q4.95 -7.3 4.15 -7.5 2.15 -8.05 0.5 -7.0 L-0.45 -6.15 Q-1.65 -7.4 -3.15 -7.65 L-4.8 -7.6 -5.5 -7.45 -5.65 -7.55 -5.8 -7.75 -5.95 -7.95 -6.1 -8.65 -6.35 -9.1 -6.45 -9.25"/>
    </path>
  </g>
  <defs>
    <radialGradient cx="0" cy="0" gradientTransform="matrix(0.0268, -0.0131, 0.0089, 0.0183, 3.65, 3.0)" gradientUnits="userSpaceOnUse" id="gradient0" r="819.2" spreadMethod="pad">
      <animateTransform additive="replace" attributeName="gradientTransform" dur="2s" from="1" repeatCount="indefinite" to="1" type="scale"/>
      <animateTransform additive="sum" attributeName="gradientTransform" dur="2s" from="3.65 3.0" repeatCount="indefinite" to="3.65 3.0" type="translate"/>
      <animateTransform additive="sum" attributeName="gradientTransform" dur="2s" from="-26.04" repeatCount="indefinite" to="-26.04" type="rotate"/>
      <animateTransform additive="sum" attributeName="gradientTransform" dur="2s" from="0.0298 0.0203" repeatCount="indefinite" to="0.0298 0.0203" type="scale"/>
      <animateTransform additive="sum" attributeName="gradientTransform" dur="2s" from="-0.0224" repeatCount="indefinite" to="-0.0224" type="skewX"/>
      <stop offset="0.0" stop-color="#96960a" stop-opacity="0.7529412">
        <animate attributeName="offset" dur="2s" repeatCount="indefinite" values="0.0;0.0"/>
        <animate attributeName="stop-color" dur="2s" repeatCount="indefinite" values="#96960a;#96960b"/>
        <animate attributeName="stop-opacity" dur="2s" repeatCount="indefinite" values="0.7529412;0.7529412"/>
      </stop>
      <stop offset="0.7215686274509804" stop-color="#e9e841" stop-opacity="0.7529412">
        <animate attributeName="offset" dur="2s" repeatCount="indefinite" values="0.7215686274509804;0.7215686274509804"/>
        <animate attributeName="stop-color" dur="2s" repeatCount="indefinite" values="#e9e841;#e9e842"/>
        <animate attributeName="stop-opacity" dur="2s" repeatCount="indefinite" values="0.7529412;0.7529412"/>
      </stop>
    </radialGradient>
  </defs>
</svg>
