<?xml version="1.0" encoding="UTF-8" standalone="no"?>
<svg xmlns:xlink="http://www.w3.org/1999/xlink" height="29.35px" width="27.85px" xmlns="http://www.w3.org/2000/svg">
  <g transform="matrix(1.0, 0.0, 0.0, 1.0, 13.9, 14.5)">
    <path d="M-10.9 -5.25 Q-10.85 -2.5 -9.9 0.0 L-8.1 -0.75 Q-6.3 -1.0 -4.95 0.75 -2.7 0.8 -0.5 0.85 L-0.4 0.95 Q1.45 0.45 3.2 -0.75 L3.7 -1.1 4.25 -1.3 Q6.15 -1.6 7.45 -0.35 L8.05 0.35 Q9.1 -0.15 9.8 -1.5 10.15 -2.2 10.8 -2.45 L10.65 -3.95 10.55 -4.75 Q10.3 -6.6 10.1 -8.45 8.95 -9.4 8.1 -10.5 L7.6 -10.9 Q3.35 -14.25 0.5 -14.5 L0.0 -14.5 Q-2.85 -14.55 -7.05 -11.4 L-8.9 -9.85 Q-9.35 -8.25 -10.2 -6.85 L-10.9 -5.25" fill="url(#gradient0)" fill-rule="evenodd" stroke="none">
      <animate attributeName="d" dur="2s" repeatCount="indefinite" values="M-10.9 -5.25 Q-10.85 -2.5 -9.9 0.0 L-8.1 -0.75 Q-6.3 -1.0 -4.95 0.75 -2.7 0.8 -0.5 0.85 L-0.4 0.95 Q1.45 0.45 3.2 -0.75 L3.7 -1.1 4.25 -1.3 Q6.15 -1.6 7.45 -0.35 L8.05 0.35 Q9.1 -0.15 9.8 -1.5 10.15 -2.2 10.8 -2.45 L10.65 -3.95 10.55 -4.75 Q10.3 -6.6 10.1 -8.45 8.95 -9.4 8.1 -10.5 L7.6 -10.9 Q3.35 -14.25 0.5 -14.5 L0.0 -14.5 Q-2.85 -14.55 -7.05 -11.4 L-8.9 -9.85 Q-9.35 -8.25 -10.2 -6.85 L-10.9 -5.25;M-13.9 0.0 Q-13.9 4.0 -11.55 7.1 L-9.85 8.95 Q-7.8 10.65 -5.75 12.3 -2.15 14.8 0.3 14.85 L0.5 14.85 Q2.9 14.7 5.45 12.85 L5.9 12.5 6.6 11.85 Q8.2 10.4 9.8 8.95 L10.75 8.05 Q12.2 6.5 13.0 4.7 13.25 3.95 13.5 3.2 L13.9 1.1 13.95 0.0 Q13.9 -2.65 12.85 -4.95 11.95 -6.85 10.3 -8.5 L9.8 -9.0 Q3.75 -14.55 0.0 -14.5 L-0.6 -14.45 Q-4.25 -14.15 -9.85 -9.0 L-12.15 -6.25 Q-13.3 -4.35 -13.7 -2.2 L-13.9 0.0"/>
    </path>
    <path d="M-10.9 -5.25 L-10.2 -6.85 Q-9.35 -8.25 -8.9 -9.85 L-7.05 -11.4 Q-2.85 -14.55 0.0 -14.5 L0.5 -14.5 Q3.35 -14.25 7.6 -10.9 L8.1 -10.5 Q8.95 -9.4 10.1 -8.45 10.3 -6.6 10.55 -4.75 L10.65 -3.95 10.8 -2.45 Q10.15 -2.2 9.8 -1.5 9.1 -0.15 8.05 0.35 L7.45 -0.35 Q6.15 -1.6 4.25 -1.3 L3.7 -1.1 3.2 -0.75 Q1.45 0.45 -0.4 0.95 L-0.5 0.85 Q-2.7 0.8 -4.95 0.75 -6.3 -1.0 -8.1 -0.75 L-9.9 0.0 Q-10.85 -2.5 -10.9 -5.25" fill="none" stroke="#000000" stroke-linecap="round" stroke-linejoin="round" stroke-opacity="0.0" stroke-width="1.0">
      <animate attributeName="stroke" dur="2s" repeatCount="indefinite" values="#000000;#000001"/>
      <animate attributeName="stroke-width" dur="2s" repeatCount="indefinite" values="0.0;0.0"/>
      <animate attributeName="fill-opacity" dur="2s" repeatCount="indefinite" values="0.0;0.0"/>
      <animate attributeName="d" dur="2s" repeatCount="indefinite" values="M-10.9 -5.25 L-10.2 -6.85 Q-9.35 -8.25 -8.9 -9.85 L-7.05 -11.4 Q-2.85 -14.55 0.0 -14.5 L0.5 -14.5 Q3.35 -14.25 7.6 -10.9 L8.1 -10.5 Q8.95 -9.4 10.1 -8.45 10.3 -6.6 10.55 -4.75 L10.65 -3.95 10.8 -2.45 Q10.15 -2.2 9.8 -1.5 9.1 -0.15 8.05 0.35 L7.45 -0.35 Q6.15 -1.6 4.25 -1.3 L3.7 -1.1 3.2 -0.75 Q1.45 0.45 -0.4 0.95 L-0.5 0.85 Q-2.7 0.8 -4.95 0.75 -6.3 -1.0 -8.1 -0.75 L-9.9 0.0 Q-10.85 -2.5 -10.9 -5.25;M-13.9 0.0 L-13.7 -2.2 Q-13.3 -4.35 -12.15 -6.25 L-9.85 -9.0 Q-4.25 -14.15 -0.6 -14.45 L0.0 -14.5 Q3.75 -14.55 9.8 -9.0 L10.3 -8.5 Q11.95 -6.85 12.85 -4.95 13.9 -2.65 13.95 0.0 L13.9 1.1 13.5 3.2 Q13.25 3.95 13.0 4.7 12.2 6.5 10.75 8.05 L9.8 8.95 Q8.2 10.4 6.6 11.85 L5.9 12.5 5.45 12.85 Q2.9 14.7 0.5 14.85 L0.3 14.85 Q-2.15 14.8 -5.75 12.3 -7.8 10.65 -9.85 8.95 L-11.55 7.1 Q-13.9 4.0 -13.9 0.0"/>
    </path>
  </g>
  <defs>
    <radialGradient cx="0" cy="0" gradientTransform="matrix(0.0268, -0.0131, 0.0089, 0.0183, 3.65, 3.0)" gradientUnits="userSpaceOnUse" id="gradient0" r="819.2" spreadMethod="pad">
      <animateTransform additive="replace" attributeName="gradientTransform" dur="2s" from="1" repeatCount="indefinite" to="1" type="scale"/>
      <animateTransform additive="sum" attributeName="gradientTransform" dur="2s" from="3.65 3.0" repeatCount="indefinite" to="3.65 3.0" type="translate"/>
      <animateTransform additive="sum" attributeName="gradientTransform" dur="2s" from="-26.04" repeatCount="indefinite" to="-26.04" type="rotate"/>
      <animateTransform additive="sum" attributeName="gradientTransform" dur="2s" from="0.0298 0.0203" repeatCount="indefinite" to="0.0298 0.0203" type="scale"/>
      <animateTransform additive="sum" attributeName="gradientTransform" dur="2s" from="-0.0224" repeatCount="indefinite" to="-0.0224" type="skewX"/>
      <stop offset="0.0" stop-color="#96960a" stop-opacity="0.7529412">
        <animate attributeName="offset" dur="2s" repeatCount="indefinite" values="0.0;0.0"/>
        <animate attributeName="stop-color" dur="2s" repeatCount="indefinite" values="#96960a;#96960b"/>
        <animate attributeName="stop-opacity" dur="2s" repeatCount="indefinite" values="0.7529412;0.7529412"/>
      </stop>
      <stop offset="0.7215686274509804" stop-color="#e9e841" stop-opacity="0.7529412">
        <animate attributeName="offset" dur="2s" repeatCount="indefinite" values="0.7215686274509804;0.7215686274509804"/>
        <animate attributeName="stop-color" dur="2s" repeatCount="indefinite" values="#e9e841;#e9e842"/>
        <animate attributeName="stop-opacity" dur="2s" repeatCount="indefinite" values="0.7529412;0.7529412"/>
      </stop>
    </radialGradient>
  </defs>
</svg>
