<?xml version="1.0" encoding="UTF-8" standalone="no"?>
<svg xmlns:xlink="http://www.w3.org/1999/xlink" height="25.7px" width="32.05px" xmlns="http://www.w3.org/2000/svg">
  <g transform="matrix(1.0, 0.0, 0.0, 1.0, 16.0, 12.7)">
    <path d="M-16.0 0.6 L-16.0 0.6 Q-16.05 2.85 -13.95 5.15 -11.9 7.05 -9.85 8.95 L-9.45 9.3 Q-7.3 11.15 -4.75 11.95 -2.55 12.7 0.0 12.7 L1.2 12.65 Q4.5 12.45 7.15 10.9 L9.8 8.95 11.3 7.6 Q16.05 2.85 16.05 0.0 16.05 -1.2 15.25 -2.65 13.85 -5.35 9.8 -9.0 L8.6 -10.0 Q4.95 -12.7 0.0 -12.7 L-1.5 -12.65 Q-6.3 -12.2 -9.85 -9.0 L-10.9 -8.0 Q-16.0 -3.05 -16.0 0.6" fill="url(#gradient0)" fill-rule="evenodd" stroke="none">
      <animate attributeName="d" dur="2s" repeatCount="indefinite" values="M-16.0 0.6 L-16.0 0.6 Q-16.05 2.85 -13.95 5.15 -11.9 7.05 -9.85 8.95 L-9.45 9.3 Q-7.3 11.15 -4.75 11.95 -2.55 12.7 0.0 12.7 L1.2 12.65 Q4.5 12.45 7.15 10.9 L9.8 8.95 11.3 7.6 Q16.05 2.85 16.05 0.0 16.05 -1.2 15.25 -2.65 13.85 -5.35 9.8 -9.0 L8.6 -10.0 Q4.95 -12.7 0.0 -12.7 L-1.5 -12.65 Q-6.3 -12.2 -9.85 -9.0 L-10.9 -8.0 Q-16.0 -3.05 -16.0 0.6;M-13.9 0.0 L-13.9 0.2 Q-13.75 2.85 -13.6 5.5 -13.1 9.7 -11.7 11.3 L-11.5 11.5 Q-9.8 13.05 -6.15 13.0 -3.65 12.85 -1.15 12.75 L0.0 12.7 Q3.1 12.7 6.2 12.7 L9.75 11.95 11.5 10.9 Q13.5 9.1 13.85 2.8 13.9 1.4 13.95 0.0 13.9 -4.45 11.0 -7.8 L9.8 -9.0 Q6.3 -12.2 1.5 -12.65 L0.0 -12.7 Q-5.0 -12.7 -8.75 -9.9 L-9.85 -9.0 Q-13.9 -5.25 -13.9 0.0"/>
    </path>
    <path d="M-16.0 0.6 Q-16.0 -3.05 -10.9 -8.0 L-9.85 -9.0 Q-6.3 -12.2 -1.5 -12.65 L0.0 -12.7 Q4.95 -12.7 8.6 -10.0 L9.8 -9.0 Q13.85 -5.35 15.25 -2.65 16.05 -1.2 16.05 0.0 16.05 2.85 11.3 7.6 L9.8 8.95 7.15 10.9 Q4.5 12.45 1.2 12.65 L0.0 12.7 Q-2.55 12.7 -4.75 11.95 -7.3 11.15 -9.45 9.3 L-9.85 8.95 Q-11.9 7.05 -13.95 5.15 -16.05 2.85 -16.0 0.6 L-16.0 0.6" fill="none" stroke="#000000" stroke-linecap="round" stroke-linejoin="round" stroke-opacity="0.0" stroke-width="1.0">
      <animate attributeName="stroke" dur="2s" repeatCount="indefinite" values="#000000;#000001"/>
      <animate attributeName="stroke-width" dur="2s" repeatCount="indefinite" values="0.0;0.0"/>
      <animate attributeName="fill-opacity" dur="2s" repeatCount="indefinite" values="0.0;0.0"/>
      <animate attributeName="d" dur="2s" repeatCount="indefinite" values="M-16.0 0.6 Q-16.0 -3.05 -10.9 -8.0 L-9.85 -9.0 Q-6.3 -12.2 -1.5 -12.65 L0.0 -12.7 Q4.95 -12.7 8.6 -10.0 L9.8 -9.0 Q13.85 -5.35 15.25 -2.65 16.05 -1.2 16.05 0.0 16.05 2.85 11.3 7.6 L9.8 8.95 7.15 10.9 Q4.5 12.45 1.2 12.65 L0.0 12.7 Q-2.55 12.7 -4.75 11.95 -7.3 11.15 -9.45 9.3 L-9.85 8.95 Q-11.9 7.05 -13.95 5.15 -16.05 2.85 -16.0 0.6 L-16.0 0.6;M-13.9 0.0 Q-13.9 -5.25 -9.85 -9.0 L-8.75 -9.9 Q-5.0 -12.7 0.0 -12.7 L1.5 -12.65 Q6.3 -12.2 9.8 -9.0 L11.0 -7.8 Q13.9 -4.45 13.95 0.0 13.9 1.4 13.85 2.8 13.5 9.1 11.5 10.9 L9.75 11.95 6.2 12.7 Q3.1 12.7 0.0 12.7 L-1.15 12.75 Q-3.65 12.85 -6.15 13.0 -9.8 13.05 -11.5 11.5 L-11.7 11.3 Q-13.1 9.7 -13.6 5.5 -13.75 2.85 -13.9 0.2 L-13.9 0.0"/>
    </path>
  </g>
  <defs>
    <radialGradient cx="0" cy="0" gradientTransform="matrix(0.0268, -0.0131, 0.0089, 0.0183, 3.65, 3.0)" gradientUnits="userSpaceOnUse" id="gradient0" r="819.2" spreadMethod="pad">
      <animateTransform additive="replace" attributeName="gradientTransform" dur="2s" from="1" repeatCount="indefinite" to="1" type="scale"/>
      <animateTransform additive="sum" attributeName="gradientTransform" dur="2s" from="3.65 3.0" repeatCount="indefinite" to="3.65 3.0" type="translate"/>
      <animateTransform additive="sum" attributeName="gradientTransform" dur="2s" from="-26.04" repeatCount="indefinite" to="-26.04" type="rotate"/>
      <animateTransform additive="sum" attributeName="gradientTransform" dur="2s" from="0.0298 0.0203" repeatCount="indefinite" to="0.0298 0.0203" type="scale"/>
      <animateTransform additive="sum" attributeName="gradientTransform" dur="2s" from="-0.0224" repeatCount="indefinite" to="-0.0224" type="skewX"/>
      <stop offset="0.0" stop-color="#96960a" stop-opacity="0.7529412">
        <animate attributeName="offset" dur="2s" repeatCount="indefinite" values="0.0;0.0"/>
        <animate attributeName="stop-color" dur="2s" repeatCount="indefinite" values="#96960a;#96960b"/>
        <animate attributeName="stop-opacity" dur="2s" repeatCount="indefinite" values="0.7529412;0.7529412"/>
      </stop>
      <stop offset="0.7215686274509804" stop-color="#e9e841" stop-opacity="0.7529412">
        <animate attributeName="offset" dur="2s" repeatCount="indefinite" values="0.7215686274509804;0.7215686274509804"/>
        <animate attributeName="stop-color" dur="2s" repeatCount="indefinite" values="#e9e841;#e9e842"/>
        <animate attributeName="stop-opacity" dur="2s" repeatCount="indefinite" values="0.7529412;0.7529412"/>
      </stop>
    </radialGradient>
  </defs>
</svg>
