<?xml version="1.0" encoding="UTF-8" standalone="no"?>
<svg xmlns:xlink="http://www.w3.org/1999/xlink" height="28.75px" width="27.85px" xmlns="http://www.w3.org/2000/svg">
  <g transform="matrix(1.0, 0.0, 0.0, 1.0, 13.9, 13.9)">
    <path d="M-13.9 0.0 Q-13.9 5.25 -9.85 8.95 L-9.25 9.45 Q-3.3 14.8 0.3 14.85 L1.9 14.65 Q3.65 14.2 5.45 12.85 L6.75 11.75 9.8 8.95 11.6 7.05 Q13.9 3.95 13.95 0.0 13.9 -1.7 13.5 -3.2 L13.0 -4.65 Q12.6 -5.4 12.2 -6.15 L9.8 -9.0 8.9 -9.8 Q7.8 -10.65 6.75 -11.5 5.85 -12.05 5.0 -12.55 L4.5 -12.8 Q2.25 -13.9 0.3 -13.9 L-1.8 -13.7 Q-2.85 -13.35 -3.9 -13.0 L-4.9 -12.55 Q-7.15 -11.4 -9.55 -9.3 L-9.85 -9.0 -10.15 -8.7 -10.35 -8.5 Q-12.0 -6.8 -12.9 -4.8 -13.9 -2.55 -13.9 0.0" fill="url(#gradient0)" fill-rule="evenodd" stroke="none">
      <animate attributeName="d" dur="2s" repeatCount="indefinite" values="M-13.9 0.0 Q-13.9 5.25 -9.85 8.95 L-9.25 9.45 Q-3.3 14.8 0.3 14.85 L1.9 14.65 Q3.65 14.2 5.45 12.85 L6.75 11.75 9.8 8.95 11.6 7.05 Q13.9 3.95 13.95 0.0 13.9 -1.7 13.5 -3.2 L13.0 -4.65 Q12.6 -5.4 12.2 -6.15 L9.8 -9.0 8.9 -9.8 Q7.8 -10.65 6.75 -11.5 5.85 -12.05 5.0 -12.55 L4.5 -12.8 Q2.25 -13.9 0.3 -13.9 L-1.8 -13.7 Q-2.85 -13.35 -3.9 -13.0 L-4.9 -12.55 Q-7.15 -11.4 -9.55 -9.3 L-9.85 -9.0 -10.15 -8.7 -10.35 -8.5 Q-12.0 -6.8 -12.9 -4.8 -13.9 -2.55 -13.9 0.0;M-13.9 0.0 Q-13.9 4.95 -10.3 8.55 L-9.85 8.95 Q-4.7 13.65 -1.25 14.6 L0.3 14.85 Q2.05 14.8 3.85 13.85 L5.45 12.85 8.1 10.55 9.8 8.95 Q12.6 6.4 13.55 3.15 13.95 1.65 13.95 0.0 L13.85 -1.4 Q13.25 -2.0 12.8 -2.75 L9.45 -2.45 8.25 -2.4 Q7.0 -2.35 6.4 -3.45 5.9 -4.35 5.0 -4.8 L4.55 -4.8 Q3.05 -3.3 1.25 -2.85 L-0.75 -2.65 Q-1.8 -2.65 -2.55 -3.4 L-3.55 -4.3 Q-6.2 -2.4 -8.2 -4.75 L-8.45 -5.0 -8.75 -5.3 -9.0 -5.4 Q-10.95 -4.65 -13.05 -4.55 -13.9 -2.45 -13.9 0.0"/>
    </path>
    <path d="M-13.9 0.0 Q-13.9 -2.55 -12.9 -4.8 -12.0 -6.8 -10.35 -8.5 L-10.15 -8.7 -9.85 -9.0 -9.55 -9.3 Q-7.15 -11.4 -4.9 -12.55 L-3.9 -13.0 Q-2.85 -13.35 -1.8 -13.7 L0.3 -13.9 Q2.25 -13.9 4.5 -12.8 L5.0 -12.55 Q5.85 -12.05 6.75 -11.5 7.8 -10.65 8.9 -9.8 L9.8 -9.0 12.2 -6.15 Q12.6 -5.4 13.0 -4.65 L13.5 -3.2 Q13.9 -1.7 13.95 0.0 13.9 3.95 11.6 7.05 L9.8 8.95 6.75 11.75 5.45 12.85 Q3.65 14.2 1.9 14.65 L0.3 14.85 Q-3.3 14.8 -9.25 9.45 L-9.85 8.95 Q-13.9 5.25 -13.9 0.0" fill="none" stroke="#000000" stroke-linecap="round" stroke-linejoin="round" stroke-opacity="0.0" stroke-width="1.0">
      <animate attributeName="stroke" dur="2s" repeatCount="indefinite" values="#000000;#000001"/>
      <animate attributeName="stroke-width" dur="2s" repeatCount="indefinite" values="0.0;0.0"/>
      <animate attributeName="fill-opacity" dur="2s" repeatCount="indefinite" values="0.0;0.0"/>
      <animate attributeName="d" dur="2s" repeatCount="indefinite" values="M-13.9 0.0 Q-13.9 -2.55 -12.9 -4.8 -12.0 -6.8 -10.35 -8.5 L-10.15 -8.7 -9.85 -9.0 -9.55 -9.3 Q-7.15 -11.4 -4.9 -12.55 L-3.9 -13.0 Q-2.85 -13.35 -1.8 -13.7 L0.3 -13.9 Q2.25 -13.9 4.5 -12.8 L5.0 -12.55 Q5.85 -12.05 6.75 -11.5 7.8 -10.65 8.9 -9.8 L9.8 -9.0 12.2 -6.15 Q12.6 -5.4 13.0 -4.65 L13.5 -3.2 Q13.9 -1.7 13.95 0.0 13.9 3.95 11.6 7.05 L9.8 8.95 6.75 11.75 5.45 12.85 Q3.65 14.2 1.9 14.65 L0.3 14.85 Q-3.3 14.8 -9.25 9.45 L-9.85 8.95 Q-13.9 5.25 -13.9 0.0;M-13.9 0.0 Q-13.9 -2.45 -13.05 -4.55 -10.95 -4.65 -9.0 -5.4 L-8.75 -5.3 -8.45 -5.0 -8.2 -4.75 Q-6.2 -2.4 -3.55 -4.3 L-2.55 -3.4 Q-1.8 -2.65 -0.75 -2.65 L1.25 -2.85 Q3.05 -3.3 4.55 -4.8 L5.0 -4.8 Q5.9 -4.35 6.4 -3.45 7.0 -2.35 8.25 -2.4 L9.45 -2.45 12.8 -2.75 Q13.25 -2.0 13.85 -1.4 L13.95 0.0 Q13.95 1.65 13.55 3.15 12.6 6.4 9.8 8.95 L8.1 10.55 5.45 12.85 3.85 13.85 Q2.05 14.8 0.3 14.85 L-1.25 14.6 Q-4.7 13.65 -9.85 8.95 L-10.3 8.55 Q-13.9 4.95 -13.9 0.0"/>
    </path>
  </g>
  <defs>
    <radialGradient cx="0" cy="0" gradientTransform="matrix(0.0268, -0.0131, 0.0089, 0.0183, 3.65, 3.0)" gradientUnits="userSpaceOnUse" id="gradient0" r="819.2" spreadMethod="pad">
      <animateTransform additive="replace" attributeName="gradientTransform" dur="2s" from="1" repeatCount="indefinite" to="1" type="scale"/>
      <animateTransform additive="sum" attributeName="gradientTransform" dur="2s" from="3.65 3.0" repeatCount="indefinite" to="3.65 3.0" type="translate"/>
      <animateTransform additive="sum" attributeName="gradientTransform" dur="2s" from="-26.04" repeatCount="indefinite" to="-26.04" type="rotate"/>
      <animateTransform additive="sum" attributeName="gradientTransform" dur="2s" from="0.0298 0.0203" repeatCount="indefinite" to="0.0298 0.0203" type="scale"/>
      <animateTransform additive="sum" attributeName="gradientTransform" dur="2s" from="-0.0224" repeatCount="indefinite" to="-0.0224" type="skewX"/>
      <stop offset="0.0" stop-color="#96960a" stop-opacity="0.7529412">
        <animate attributeName="offset" dur="2s" repeatCount="indefinite" values="0.0;0.0"/>
        <animate attributeName="stop-color" dur="2s" repeatCount="indefinite" values="#96960a;#96960b"/>
        <animate attributeName="stop-opacity" dur="2s" repeatCount="indefinite" values="0.7529412;0.7529412"/>
      </stop>
      <stop offset="0.7215686274509804" stop-color="#e9e841" stop-opacity="0.7529412">
        <animate attributeName="offset" dur="2s" repeatCount="indefinite" values="0.7215686274509804;0.7215686274509804"/>
        <animate attributeName="stop-color" dur="2s" repeatCount="indefinite" values="#e9e841;#e9e842"/>
        <animate attributeName="stop-opacity" dur="2s" repeatCount="indefinite" values="0.7529412;0.7529412"/>
      </stop>
    </radialGradient>
  </defs>
</svg>
