<?xml version="1.0" encoding="UTF-8" standalone="no"?>
<svg xmlns:xlink="http://www.w3.org/1999/xlink" height="20.25px" width="27.85px" xmlns="http://www.w3.org/2000/svg">
  <g transform="matrix(1.0, 0.0, 0.0, 1.0, 13.9, 5.4)">
    <path d="M-13.9 0.0 L-13.9 0.1 -13.9 0.45 Q-13.7 5.4 -9.85 8.95 -4.6 13.75 -1.15 14.65 L0.3 14.85 Q2.8 14.8 5.45 12.85 L7.15 11.35 9.8 8.95 Q11.4 7.5 12.4 5.8 L12.85 4.9 Q13.55 3.4 13.8 1.75 L13.95 0.0 13.85 -1.2 13.85 -1.4 13.5 -1.8 12.8 -2.75 Q10.7 -2.55 8.65 -2.4 L8.25 -2.4 Q7.0 -2.35 6.4 -3.45 5.9 -4.35 5.0 -4.8 L4.55 -4.8 Q2.55 -2.8 -0.15 -2.65 L-0.75 -2.65 -1.3 -2.7 Q-2.0 -2.85 -2.55 -3.4 L-3.55 -4.3 Q-6.2 -2.4 -8.2 -4.75 L-8.75 -5.3 -9.0 -5.4 -9.1 -5.4 Q-10.95 -4.65 -12.95 -4.55 L-13.05 -4.55 -13.7 -2.25 -13.9 0.0" fill="url(#gradient0)" fill-rule="evenodd" stroke="none">
      <animate attributeName="d" dur="2s" repeatCount="indefinite" values="M-13.9 0.0 L-13.9 0.1 -13.9 0.45 Q-13.7 5.4 -9.85 8.95 -4.6 13.75 -1.15 14.65 L0.3 14.85 Q2.8 14.8 5.45 12.85 L7.15 11.35 9.8 8.95 Q11.4 7.5 12.4 5.8 L12.85 4.9 Q13.55 3.4 13.8 1.75 L13.95 0.0 13.85 -1.2 13.85 -1.4 13.5 -1.8 12.8 -2.75 Q10.7 -2.55 8.65 -2.4 L8.25 -2.4 Q7.0 -2.35 6.4 -3.45 5.9 -4.35 5.0 -4.8 L4.55 -4.8 Q2.55 -2.8 -0.15 -2.65 L-0.75 -2.65 -1.3 -2.7 Q-2.0 -2.85 -2.55 -3.4 L-3.55 -4.3 Q-6.2 -2.4 -8.2 -4.75 L-8.75 -5.3 -9.0 -5.4 -9.1 -5.4 Q-10.95 -4.65 -12.95 -4.55 L-13.05 -4.55 -13.7 -2.25 -13.9 0.0;M-10.0 8.8 L-10.0 8.8 -9.85 8.95 Q-7.35 11.2 -5.3 12.6 -2.0 14.8 0.3 14.85 L1.0 14.8 Q2.55 14.6 4.15 13.65 L5.45 12.85 6.95 11.55 Q7.85 10.75 8.7 9.95 L8.85 9.4 Q8.25 8.55 8.05 7.45 L7.7 6.65 7.2 6.1 7.1 6.05 6.9 5.85 6.3 5.75 Q5.0 5.5 3.95 4.75 L3.85 4.75 Q3.25 5.2 2.65 5.6 2.1 5.75 1.55 5.9 L1.2 5.9 Q-0.2 5.8 -1.5 4.4 L-1.7 4.2 -2.05 4.0 Q-2.4 4.25 -2.7 4.5 L-3.3 4.85 Q-4.7 5.55 -6.35 5.7 L-6.75 5.7 -6.85 5.7 -6.95 5.7 Q-7.25 6.95 -8.55 7.2 L-8.55 7.2 -9.95 7.45 -10.0 8.8"/>
    </path>
    <path d="M-13.9 0.0 L-13.7 -2.25 -13.05 -4.55 -12.95 -4.55 Q-10.95 -4.65 -9.1 -5.4 L-9.0 -5.4 -8.75 -5.3 -8.2 -4.75 Q-6.2 -2.4 -3.55 -4.3 L-2.55 -3.4 Q-2.0 -2.85 -1.3 -2.7 L-0.75 -2.65 -0.15 -2.65 Q2.55 -2.8 4.55 -4.8 L5.0 -4.8 Q5.9 -4.35 6.4 -3.45 7.0 -2.35 8.25 -2.4 L8.65 -2.4 Q10.7 -2.55 12.8 -2.75 L13.5 -1.8 13.85 -1.4 13.85 -1.2 13.95 0.0 13.8 1.75 Q13.55 3.4 12.85 4.9 L12.4 5.8 Q11.4 7.5 9.8 8.95 L7.15 11.35 5.45 12.85 Q2.8 14.8 0.3 14.85 L-1.15 14.65 Q-4.6 13.75 -9.85 8.95 -13.7 5.4 -13.9 0.45 L-13.9 0.1 -13.9 0.0" fill="none" stroke="#000000" stroke-linecap="round" stroke-linejoin="round" stroke-opacity="0.0" stroke-width="1.0">
      <animate attributeName="stroke" dur="2s" repeatCount="indefinite" values="#000000;#000001"/>
      <animate attributeName="stroke-width" dur="2s" repeatCount="indefinite" values="0.0;0.0"/>
      <animate attributeName="fill-opacity" dur="2s" repeatCount="indefinite" values="0.0;0.0"/>
      <animate attributeName="d" dur="2s" repeatCount="indefinite" values="M-13.9 0.0 L-13.7 -2.25 -13.05 -4.55 -12.95 -4.55 Q-10.95 -4.65 -9.1 -5.4 L-9.0 -5.4 -8.75 -5.3 -8.2 -4.75 Q-6.2 -2.4 -3.55 -4.3 L-2.55 -3.4 Q-2.0 -2.85 -1.3 -2.7 L-0.75 -2.65 -0.15 -2.65 Q2.55 -2.8 4.55 -4.8 L5.0 -4.8 Q5.9 -4.35 6.4 -3.45 7.0 -2.35 8.25 -2.4 L8.65 -2.4 Q10.7 -2.55 12.8 -2.75 L13.5 -1.8 13.85 -1.4 13.85 -1.2 13.95 0.0 13.8 1.75 Q13.55 3.4 12.85 4.9 L12.4 5.8 Q11.4 7.5 9.8 8.95 L7.15 11.35 5.45 12.85 Q2.8 14.8 0.3 14.85 L-1.15 14.65 Q-4.6 13.75 -9.85 8.95 -13.7 5.4 -13.9 0.45 L-13.9 0.1 -13.9 0.0;M-10.0 8.8 L-9.95 7.45 -8.55 7.2 -8.55 7.2 Q-7.25 6.95 -6.95 5.7 L-6.85 5.7 -6.75 5.7 -6.35 5.7 Q-4.7 5.55 -3.3 4.85 L-2.7 4.5 Q-2.4 4.25 -2.05 4.0 L-1.7 4.2 -1.5 4.4 Q-0.2 5.8 1.2 5.9 L1.55 5.9 Q2.1 5.75 2.65 5.6 3.25 5.2 3.85 4.75 L3.95 4.75 Q5.0 5.5 6.3 5.75 L6.9 5.85 7.1 6.05 7.2 6.1 7.7 6.65 8.05 7.45 Q8.25 8.55 8.85 9.4 L8.7 9.95 Q7.85 10.75 6.95 11.55 L5.45 12.85 4.15 13.65 Q2.55 14.6 1.0 14.8 L0.3 14.85 Q-2.0 14.8 -5.3 12.6 -7.35 11.2 -9.85 8.95 L-10.0 8.8 -10.0 8.8"/>
    </path>
  </g>
  <defs>
    <radialGradient cx="0" cy="0" gradientTransform="matrix(0.0268, -0.0131, 0.0089, 0.0183, 3.65, 3.0)" gradientUnits="userSpaceOnUse" id="gradient0" r="819.2" spreadMethod="pad">
      <animateTransform additive="replace" attributeName="gradientTransform" dur="2s" from="1" repeatCount="indefinite" to="1" type="scale"/>
      <animateTransform additive="sum" attributeName="gradientTransform" dur="2s" from="3.65 3.0" repeatCount="indefinite" to="3.65 3.0" type="translate"/>
      <animateTransform additive="sum" attributeName="gradientTransform" dur="2s" from="-26.04" repeatCount="indefinite" to="-26.04" type="rotate"/>
      <animateTransform additive="sum" attributeName="gradientTransform" dur="2s" from="0.0298 0.0203" repeatCount="indefinite" to="0.0298 0.0203" type="scale"/>
      <animateTransform additive="sum" attributeName="gradientTransform" dur="2s" from="-0.0224" repeatCount="indefinite" to="-0.0224" type="skewX"/>
      <stop offset="0.0" stop-color="#96960a" stop-opacity="0.7529412">
        <animate attributeName="offset" dur="2s" repeatCount="indefinite" values="0.0;0.0"/>
        <animate attributeName="stop-color" dur="2s" repeatCount="indefinite" values="#96960a;#96960b"/>
        <animate attributeName="stop-opacity" dur="2s" repeatCount="indefinite" values="0.7529412;0.7529412"/>
      </stop>
      <stop offset="0.7215686274509804" stop-color="#e9e841" stop-opacity="0.7529412">
        <animate attributeName="offset" dur="2s" repeatCount="indefinite" values="0.7215686274509804;0.7215686274509804"/>
        <animate attributeName="stop-color" dur="2s" repeatCount="indefinite" values="#e9e841;#e9e842"/>
        <animate attributeName="stop-opacity" dur="2s" repeatCount="indefinite" values="0.7529412;0.7529412"/>
      </stop>
    </radialGradient>
  </defs>
</svg>
