<?xml version="1.0" encoding="UTF-8" standalone="no"?>
<svg xmlns:xlink="http://www.w3.org/1999/xlink" height="13.8px" width="35.2px" xmlns="http://www.w3.org/2000/svg">
  <g transform="matrix(1.0, 0.0, 0.0, 1.0, 17.1, 6.75)">
    <path d="M-17.1 0.15 L-15.85 2.75 Q-14.55 4.0 -11.95 5.0 L-10.0 5.7 7.25 6.5 Q9.8 6.1 12.0 5.35 L7.25 6.5 Q10.35 6.0 7.25 6.5 10.35 6.0 12.95 5.0 L15.15 4.0 Q16.6 3.15 17.35 -1.9 16.6 -2.85 17.35 -1.9 17.1 -2.2 16.85 -2.45 16.2 -3.1 17.35 -1.9 L15.15 -3.7 12.95 -4.75 Q10.35 -5.75 -5.15 -6.45 -7.15 -6.05 -9.15 -5.65 L-5.15 -6.45 Q-7.75 -6.1 -5.15 -6.45 L-10.0 -5.4 -11.95 -4.75 Q-14.55 -3.75 -15.85 -2.55 -17.1 -1.3 -17.1 0.15" fill="url(#gradient0)" fill-rule="evenodd" stroke="none">
      <animate attributeName="d" dur="2s" repeatCount="indefinite" values="M-17.1 0.15 L-15.85 2.75 Q-14.55 4.0 -11.95 5.0 L-10.0 5.7 7.25 6.5 Q9.8 6.1 12.0 5.35 L7.25 6.5 Q10.35 6.0 7.25 6.5 10.35 6.0 12.95 5.0 L15.15 4.0 Q16.6 3.15 17.35 -1.9 16.6 -2.85 17.35 -1.9 17.1 -2.2 16.85 -2.45 16.2 -3.1 17.35 -1.9 L15.15 -3.7 12.95 -4.75 Q10.35 -5.75 -5.15 -6.45 -7.15 -6.05 -9.15 -5.65 L-5.15 -6.45 Q-7.75 -6.1 -5.15 -6.45 L-10.0 -5.4 -11.95 -4.75 Q-14.55 -3.75 -15.85 -2.55 -17.1 -1.3 -17.1 0.15;M-17.1 0.15 L-17.1 0.15 Q-17.1 3.0 -11.95 5.0 L-11.75 5.1 -10.0 5.7 Q-5.45 7.05 0.5 7.05 L2.4 7.0 Q8.5 6.8 12.95 5.0 13.05 4.95 13.1 4.95 L13.1 4.95 Q14.15 4.45 15.15 4.0 16.85 3.0 17.6 1.85 18.1 1.05 18.1 0.15 18.1 -2.0 15.15 -3.7 L14.05 -4.25 13.1 -4.65 Q13.0 -4.7 12.95 -4.75 7.8 -6.75 0.5 -6.75 L-1.0 -6.75 Q-6.05 -6.6 -10.0 -5.4 L-11.2 -5.0 -11.75 -4.8 Q-11.85 -4.75 -11.95 -4.75 -17.1 -2.7 -17.1 0.15"/>
    </path>
    <path d="M-17.1 0.15 Q-17.1 -1.3 -15.85 -2.55 -14.55 -3.75 -11.95 -4.75 L-10.0 -5.4 -5.15 -6.45 Q-7.75 -6.1 -5.15 -6.45 L-9.15 -5.65 Q-7.15 -6.05 -5.15 -6.45 10.35 -5.75 12.95 -4.75 L15.15 -3.7 17.35 -1.9 Q16.2 -3.1 16.85 -2.45 17.1 -2.2 17.35 -1.9 16.6 -2.85 17.35 -1.9 16.6 3.15 15.15 4.0 L12.95 5.0 Q10.35 6.0 7.25 6.5 10.35 6.0 7.25 6.5 L12.0 5.35 Q9.8 6.1 7.25 6.5 L-10.0 5.7 -11.95 5.0 Q-14.55 4.0 -15.85 2.75 L-17.1 0.15" fill="none" stroke="#000000" stroke-linecap="round" stroke-linejoin="round" stroke-opacity="0.0" stroke-width="1.0">
      <animate attributeName="stroke" dur="2s" repeatCount="indefinite" values="#000000;#000001"/>
      <animate attributeName="stroke-width" dur="2s" repeatCount="indefinite" values="0.0;0.0"/>
      <animate attributeName="fill-opacity" dur="2s" repeatCount="indefinite" values="0.0;0.0"/>
      <animate attributeName="d" dur="2s" repeatCount="indefinite" values="M-17.1 0.15 Q-17.1 -1.3 -15.85 -2.55 -14.55 -3.75 -11.95 -4.75 L-10.0 -5.4 -5.15 -6.45 Q-7.75 -6.1 -5.15 -6.45 L-9.15 -5.65 Q-7.15 -6.05 -5.15 -6.45 10.35 -5.75 12.95 -4.75 L15.15 -3.7 17.35 -1.9 Q16.2 -3.1 16.85 -2.45 17.1 -2.2 17.35 -1.9 16.6 -2.85 17.35 -1.9 16.6 3.15 15.15 4.0 L12.95 5.0 Q10.35 6.0 7.25 6.5 10.35 6.0 7.25 6.5 L12.0 5.35 Q9.8 6.1 7.25 6.5 L-10.0 5.7 -11.95 5.0 Q-14.55 4.0 -15.85 2.75 L-17.1 0.15;M-17.1 0.15 Q-17.1 -2.7 -11.95 -4.75 -11.85 -4.75 -11.75 -4.8 L-11.2 -5.0 -10.0 -5.4 Q-6.05 -6.6 -1.0 -6.75 L0.5 -6.75 Q7.8 -6.75 12.95 -4.75 13.0 -4.7 13.1 -4.65 L14.05 -4.25 15.15 -3.7 Q18.1 -2.0 18.1 0.15 18.1 1.05 17.6 1.85 16.85 3.0 15.15 4.0 14.15 4.45 13.1 4.95 L13.1 4.95 Q13.05 4.95 12.95 5.0 8.5 6.8 2.4 7.0 L0.5 7.05 Q-5.45 7.05 -10.0 5.7 L-11.75 5.1 -11.95 5.0 Q-17.1 3.0 -17.1 0.15 L-17.1 0.15"/>
    </path>
  </g>
  <defs>
    <radialGradient cx="0" cy="0" gradientTransform="matrix(0.0221, 0.0, 0.0, 0.0221, 0.5, 0.15)" gradientUnits="userSpaceOnUse" id="gradient0" r="819.2" spreadMethod="pad">
      <animateTransform additive="replace" attributeName="gradientTransform" dur="2s" from="1" repeatCount="indefinite" to="1" type="scale"/>
      <animateTransform additive="sum" attributeName="gradientTransform" dur="2s" from="0.5 0.15" repeatCount="indefinite" to="0.5 0.15" type="translate"/>
      <animateTransform additive="sum" attributeName="gradientTransform" dur="2s" from="0.0" repeatCount="indefinite" to="0.0" type="rotate"/>
      <animateTransform additive="sum" attributeName="gradientTransform" dur="2s" from="0.0221 0.0221" repeatCount="indefinite" to="0.0221 0.0221" type="scale"/>
      <animateTransform additive="sum" attributeName="gradientTransform" dur="2s" from="0.0" repeatCount="indefinite" to="0.0" type="skewX"/>
      <stop offset="0.9098039215686274" stop-color="#f3a13e" stop-opacity="0.0">
        <animate attributeName="offset" dur="2s" repeatCount="indefinite" values="0.9098039215686274;0.9098039215686274"/>
        <animate attributeName="stop-color" dur="2s" repeatCount="indefinite" values="#f3a13e;#f3a13f"/>
        <animate attributeName="stop-opacity" dur="2s" repeatCount="indefinite" values="0.0;1.0"/>
      </stop>
      <stop offset="1.0" stop-color="#f3a13e" stop-opacity="0.0">
        <animate attributeName="offset" dur="2s" repeatCount="indefinite" values="1.0;1.0"/>
        <animate attributeName="stop-color" dur="2s" repeatCount="indefinite" values="#f3a13e;#ffffff"/>
        <animate attributeName="stop-opacity" dur="2s" repeatCount="indefinite" values="0.0;0.0"/>
      </stop>
    </radialGradient>
  </defs>
</svg>
