<?xml version="1.0" encoding="UTF-8" standalone="no"?>
<svg xmlns:xlink="http://www.w3.org/1999/xlink" height="25.3px" width="27.9px" xmlns="http://www.w3.org/2000/svg">
  <g transform="matrix(1.0, 0.0, 0.0, 1.0, 13.7, 12.75)">
    <path d="M-11.5 0.0 Q-11.5 4.35 -8.15 7.4 -4.75 10.5 0.0 10.5 4.75 10.5 8.1 7.4 11.5 4.35 11.5 0.0 11.5 -4.35 8.1 -7.45 4.75 -10.5 0.0 -10.5 -4.75 -10.5 -8.15 -7.45 -11.5 -4.35 -11.5 0.0" fill="url(#gradient0)" fill-rule="evenodd" stroke="none">
      <animate attributeName="d" dur="2s" repeatCount="indefinite" values="M-11.5 0.0 Q-11.5 4.35 -8.15 7.4 -4.75 10.5 0.0 10.5 4.75 10.5 8.1 7.4 11.5 4.35 11.5 0.0 11.5 -4.35 8.1 -7.45 4.75 -10.5 0.0 -10.5 -4.75 -10.5 -8.15 -7.45 -11.5 -4.35 -11.5 0.0;M-12.7 1.05 Q-12.7 8.0 -10.7 9.8 -8.8 11.55 -1.2 11.55 3.55 11.55 8.1 7.4 13.2 2.75 13.2 -1.25 13.2 -7.4 10.55 -9.8 8.4 -11.75 1.7 -11.75 -3.45 -11.75 -8.15 -7.45 -12.7 -3.3 -12.7 1.05"/>
    </path>
    <path d="M-11.5 0.0 Q-11.5 -4.35 -8.15 -7.45 -4.75 -10.5 0.0 -10.5 4.75 -10.5 8.1 -7.45 11.5 -4.35 11.5 0.0 11.5 4.35 8.1 7.4 4.75 10.5 0.0 10.5 -4.75 10.5 -8.15 7.4 -11.5 4.35 -11.5 0.0 -11.5 -4.35 -8.15 -7.45 -4.75 -10.5 0.0 -10.5 4.75 -10.5 8.1 -7.45 11.5 -4.35 11.5 0.0 11.5 4.35 8.1 7.4 4.75 10.5 0.0 10.5 -4.75 10.5 -8.15 7.4 -11.5 4.35 -11.5 0.0" fill="none" stroke="#000000" stroke-linecap="round" stroke-linejoin="round" stroke-width="2.0">
      <animate attributeName="stroke" dur="2s" repeatCount="indefinite" values="#000000;#000001"/>
      <animate attributeName="stroke-width" dur="2s" repeatCount="indefinite" values="2.0;2.0"/>
      <animate attributeName="fill-opacity" dur="2s" repeatCount="indefinite" values="1.0;1.0"/>
      <animate attributeName="d" dur="2s" repeatCount="indefinite" values="M-11.5 0.0 Q-11.5 -4.35 -8.15 -7.45 -4.75 -10.5 0.0 -10.5 4.75 -10.5 8.1 -7.45 11.5 -4.35 11.5 0.0 11.5 4.35 8.1 7.4 4.75 10.5 0.0 10.5 -4.75 10.5 -8.15 7.4 -11.5 4.35 -11.5 0.0 -11.5 -4.35 -8.15 -7.45 -4.75 -10.5 0.0 -10.5 4.75 -10.5 8.1 -7.45 11.5 -4.35 11.5 0.0 11.5 4.35 8.1 7.4 4.75 10.5 0.0 10.5 -4.75 10.5 -8.15 7.4 -11.5 4.35 -11.5 0.0;M-12.7 1.05 Q-12.7 -3.3 -8.15 -7.45 -3.45 -11.75 1.7 -11.75 8.4 -11.75 10.55 -9.8 13.2 -7.4 13.2 -1.25 13.2 2.75 8.1 7.4 3.55 11.55 -1.2 11.55 -8.8 11.55 -10.7 9.8 -12.7 8.0 -12.7 1.05 -12.7 -3.3 -8.15 -7.45 -3.45 -11.75 1.7 -11.75 8.4 -11.75 10.55 -9.8 13.2 -7.4 13.2 -1.25 13.2 2.75 8.1 7.4 3.55 11.55 -1.2 11.55 -8.8 11.55 -10.7 9.8 -12.7 8.0 -12.7 1.05"/>
    </path>
  </g>
  <defs>
    <radialGradient cx="0" cy="0" gradientTransform="matrix(0.0197, -0.0096, 0.0076, 0.0156, 1.45, 0.85)" gradientUnits="userSpaceOnUse" id="gradient0" r="819.2" spreadMethod="pad">
      <animateTransform additive="replace" attributeName="gradientTransform" dur="2s" from="1" repeatCount="indefinite" to="1" type="scale"/>
      <animateTransform additive="sum" attributeName="gradientTransform" dur="2s" from="1.45 0.85" repeatCount="indefinite" to="0.25 -0.1" type="translate"/>
      <animateTransform additive="sum" attributeName="gradientTransform" dur="2s" from="-25.9955" repeatCount="indefinite" to="0.0" type="rotate"/>
      <animateTransform additive="sum" attributeName="gradientTransform" dur="2s" from="0.022 0.0174" repeatCount="indefinite" to="0.0181 0.0181" type="scale"/>
      <animateTransform additive="sum" attributeName="gradientTransform" dur="2s" from="0.0228" repeatCount="indefinite" to="0.0" type="skewX"/>
      <stop offset="0.3215686274509804" stop-color="#d2ab37">
        <animate attributeName="offset" dur="2s" repeatCount="indefinite" values="0.3215686274509804;0.3215686274509804"/>
        <animate attributeName="stop-color" dur="2s" repeatCount="indefinite" values="#d2ab37;#d2ab38"/>
        <animate attributeName="stop-opacity" dur="2s" repeatCount="indefinite" values="1.0;1.0"/>
      </stop>
      <stop offset="1.0" stop-color="#ffffff">
        <animate attributeName="offset" dur="2s" repeatCount="indefinite" values="1.0;1.0"/>
        <animate attributeName="stop-color" dur="2s" repeatCount="indefinite" values="#ffffff;#ffffff"/>
        <animate attributeName="stop-opacity" dur="2s" repeatCount="indefinite" values="1.0;1.0"/>
      </stop>
    </radialGradient>
  </defs>
</svg>
