<?xml version="1.0" encoding="UTF-8" standalone="no"?>
<svg xmlns:xlink="http://www.w3.org/1999/xlink" height="60.1px" width="41.75px" xmlns="http://www.w3.org/2000/svg">
  <g transform="matrix(1.0, 0.0, 0.0, 1.0, 21.2, 41.1)">
    <path d="M-20.2 0.15 L-20.2 0.25 Q-20.2 7.55 -14.5 12.75 -11.45 15.5 -7.8 16.8 -4.5 18.0 -0.65 18.0 7.45 18.0 13.15 12.75 L13.65 12.3 Q18.9 7.25 18.9 0.15 18.9 -4.5 15.85 -9.85 14.05 -12.75 9.3 -14.7 5.0 -16.4 1.55 -16.25 L3.75 -17.35 5.85 -18.6 Q7.65 -19.8 8.7 -21.15 11.15 -24.3 11.15 -29.4 11.15 -35.0 7.85 -37.65 4.85 -40.1 -0.9 -40.1 -6.7 -40.1 -9.85 -37.0 -11.0 -35.85 -12.1 -33.65 L-13.15 -31.4 Q-13.5 -30.65 -13.25 -27.95 -12.9 -24.3 -11.35 -21.15 -10.7 -19.85 -7.25 -17.75 -4.5 -16.1 -7.2 -15.65 -9.4 -15.05 -11.8 -13.75 -15.8 -11.6 -17.4 -9.0 -20.2 -4.5 -20.2 0.15" fill="url(#gradient0)" fill-rule="evenodd" stroke="none">
      <animate attributeName="d" dur="2s" repeatCount="indefinite" values="M-20.2 0.15 L-20.2 0.25 Q-20.2 7.55 -14.5 12.75 -11.45 15.5 -7.8 16.8 -4.5 18.0 -0.65 18.0 7.45 18.0 13.15 12.75 L13.65 12.3 Q18.9 7.25 18.9 0.15 18.9 -4.5 15.85 -9.85 14.05 -12.75 9.3 -14.7 5.0 -16.4 1.55 -16.25 L3.75 -17.35 5.85 -18.6 Q7.65 -19.8 8.7 -21.15 11.15 -24.3 11.15 -29.4 11.15 -35.0 7.85 -37.65 4.85 -40.1 -0.9 -40.1 -6.7 -40.1 -9.85 -37.0 -11.0 -35.85 -12.1 -33.65 L-13.15 -31.4 Q-13.5 -30.65 -13.25 -27.95 -12.9 -24.3 -11.35 -21.15 -10.7 -19.85 -7.25 -17.75 -4.5 -16.1 -7.2 -15.65 -9.4 -15.05 -11.8 -13.75 -15.8 -11.6 -17.4 -9.0 -20.2 -4.5 -20.2 0.15;M-19.55 0.0 L-19.55 0.0 Q-19.55 4.95 -17.0 8.95 -15.75 10.9 -13.85 12.6 -11.9 14.35 -9.75 15.55 -5.55 17.8 -0.4 17.85 L0.0 17.85 Q4.75 17.85 8.7 16.05 11.45 14.75 14.1 12.3 16.3 10.3 17.6 7.95 18.85 5.7 19.3 3.2 L19.5 1.55 19.55 0.0 Q19.45 -1.3 19.35 -2.55 18.95 -5.45 17.55 -7.95 16.15 -10.5 13.8 -12.65 11.4 -14.8 8.6 -16.05 5.8 -17.35 2.55 -17.7 1.25 -17.8 0.0 -17.85 L-1.4 -17.8 Q-2.65 -17.65 -3.85 -17.55 -6.15 -17.15 -8.25 -16.25 -9.9 -15.55 -11.4 -14.55 -12.65 -13.6 -13.85 -12.65 -14.95 -11.45 -16.05 -10.25 -17.6 -8.3 -18.45 -6.1 -19.55 -3.25 -19.55 0.0"/>
    </path>
    <path d="M-20.2 0.15 Q-20.2 -4.5 -17.4 -9.0 -15.8 -11.6 -11.8 -13.75 -9.4 -15.05 -7.2 -15.65 -4.5 -16.1 -7.25 -17.75 -10.7 -19.85 -11.35 -21.15 -12.9 -24.3 -13.25 -27.95 -13.5 -30.65 -13.15 -31.4 L-12.1 -33.65 Q-11.0 -35.85 -9.85 -37.0 -6.7 -40.1 -0.9 -40.1 4.85 -40.1 7.85 -37.65 11.15 -35.0 11.15 -29.4 11.15 -24.3 8.7 -21.15 7.65 -19.8 5.85 -18.6 L3.75 -17.35 1.55 -16.25 Q5.0 -16.4 9.3 -14.7 14.05 -12.75 15.85 -9.85 18.9 -4.5 18.9 0.15 18.9 7.25 13.65 12.3 L13.15 12.75 Q7.45 18.0 -0.65 18.0 -4.5 18.0 -7.8 16.8 -11.45 15.5 -14.5 12.75 -20.2 7.55 -20.2 0.25 M-20.2 0.15 Q-20.2 -4.5 -17.4 -9.0 -15.8 -11.6 -11.8 -13.75 -9.4 -15.05 -7.2 -15.65 -4.5 -16.1 -7.25 -17.75 -10.7 -19.85 -11.35 -21.15 -12.9 -24.3 -13.25 -27.95 -13.5 -30.65 -13.15 -31.4 L-12.1 -33.65 Q-11.0 -35.85 -9.85 -37.0 -6.7 -40.1 -0.9 -40.1 4.85 -40.1 7.85 -37.65 11.15 -35.0 11.15 -29.4 11.15 -24.3 8.7 -21.15 7.65 -19.8 5.85 -18.6 L3.75 -17.35 1.55 -16.25 Q5.0 -16.4 9.3 -14.7 14.05 -12.75 15.85 -9.85 18.9 -4.5 18.9 0.15 18.9 7.25 13.65 12.3 L13.15 12.75 Q7.45 18.0 -0.65 18.0 -4.5 18.0 -7.8 16.8 -11.45 15.5 -14.5 12.75 -20.2 7.55 -20.2 0.25 L-20.2 0.15" fill="none" stroke="#000000" stroke-linecap="round" stroke-linejoin="round" stroke-width="2.0">
      <animate attributeName="stroke" dur="2s" repeatCount="indefinite" values="#000000;#000001"/>
      <animate attributeName="stroke-width" dur="2s" repeatCount="indefinite" values="2.0;2.0"/>
      <animate attributeName="fill-opacity" dur="2s" repeatCount="indefinite" values="1.0;1.0"/>
      <animate attributeName="d" dur="2s" repeatCount="indefinite" values="M-20.2 0.15 Q-20.2 -4.5 -17.4 -9.0 -15.8 -11.6 -11.8 -13.75 -9.4 -15.05 -7.2 -15.65 -4.5 -16.1 -7.25 -17.75 -10.7 -19.85 -11.35 -21.15 -12.9 -24.3 -13.25 -27.95 -13.5 -30.65 -13.15 -31.4 L-12.1 -33.65 Q-11.0 -35.85 -9.85 -37.0 -6.7 -40.1 -0.9 -40.1 4.85 -40.1 7.85 -37.65 11.15 -35.0 11.15 -29.4 11.15 -24.3 8.7 -21.15 7.65 -19.8 5.85 -18.6 L3.75 -17.35 1.55 -16.25 Q5.0 -16.4 9.3 -14.7 14.05 -12.75 15.85 -9.85 18.9 -4.5 18.9 0.15 18.9 7.25 13.65 12.3 L13.15 12.75 Q7.45 18.0 -0.65 18.0 -4.5 18.0 -7.8 16.8 -11.45 15.5 -14.5 12.75 -20.2 7.55 -20.2 0.25 M-20.2 0.15 Q-20.2 -4.5 -17.4 -9.0 -15.8 -11.6 -11.8 -13.75 -9.4 -15.05 -7.2 -15.65 -4.5 -16.1 -7.25 -17.75 -10.7 -19.85 -11.35 -21.15 -12.9 -24.3 -13.25 -27.95 -13.5 -30.65 -13.15 -31.4 L-12.1 -33.65 Q-11.0 -35.85 -9.85 -37.0 -6.7 -40.1 -0.9 -40.1 4.85 -40.1 7.85 -37.65 11.15 -35.0 11.15 -29.4 11.15 -24.3 8.7 -21.15 7.65 -19.8 5.85 -18.6 L3.75 -17.35 1.55 -16.25 Q5.0 -16.4 9.3 -14.7 14.05 -12.75 15.85 -9.85 18.9 -4.5 18.9 0.15 18.9 7.25 13.65 12.3 L13.15 12.75 Q7.45 18.0 -0.65 18.0 -4.5 18.0 -7.8 16.8 -11.45 15.5 -14.5 12.75 -20.2 7.55 -20.2 0.25 L-20.2 0.15;M-19.55 0.0 Q-19.55 -3.25 -18.45 -6.1 -17.6 -8.3 -16.05 -10.25 -14.95 -11.45 -13.85 -12.65 -12.65 -13.6 -11.4 -14.55 -9.9 -15.55 -8.25 -16.25 -6.15 -17.15 -3.85 -17.55 -2.65 -17.65 -1.4 -17.8 L0.0 -17.85 Q1.25 -17.8 2.55 -17.7 5.8 -17.35 8.6 -16.05 11.4 -14.8 13.8 -12.65 16.15 -10.5 17.55 -7.95 18.95 -5.45 19.35 -2.55 19.45 -1.3 19.55 0.0 L19.5 1.55 19.3 3.2 Q18.85 5.7 17.6 7.95 16.3 10.3 14.1 12.3 11.45 14.75 8.7 16.05 4.75 17.85 0.0 17.85 L-0.4 17.85 Q-5.55 17.8 -9.75 15.55 -11.9 14.35 -13.85 12.6 -15.75 10.9 -17.0 8.95 -19.55 4.95 -19.55 0.0 M-19.55 0.0 Q-19.55 -3.25 -18.45 -6.1 -17.6 -8.3 -16.05 -10.25 -14.95 -11.45 -13.85 -12.65 -12.65 -13.6 -11.4 -14.55 -9.9 -15.55 -8.25 -16.25 -6.15 -17.15 -3.85 -17.55 -2.65 -17.65 -1.4 -17.8 L0.0 -17.85 Q1.25 -17.8 2.55 -17.7 5.8 -17.35 8.6 -16.05 11.4 -14.8 13.8 -12.65 16.15 -10.5 17.55 -7.95 18.95 -5.45 19.35 -2.55 19.45 -1.3 19.55 0.0 L19.5 1.55 19.3 3.2 Q18.85 5.7 17.6 7.95 16.3 10.3 14.1 12.3 11.45 14.75 8.7 16.05 4.75 17.85 0.0 17.85 L-0.4 17.85 Q-5.55 17.8 -9.75 15.55 -11.9 14.35 -13.85 12.6 -15.75 10.9 -17.0 8.95 -19.55 4.95 -19.55 0.0 L-19.55 0.0"/>
    </path>
  </g>
  <defs>
    <radialGradient cx="0" cy="0" gradientTransform="matrix(0.0499, -0.0244, 0.0166, 0.0341, 0.45, -8.75)" gradientUnits="userSpaceOnUse" id="gradient0" r="819.2" spreadMethod="pad">
      <animateTransform additive="replace" attributeName="gradientTransform" dur="2s" from="1" repeatCount="indefinite" to="1" type="scale"/>
      <animateTransform additive="sum" attributeName="gradientTransform" dur="2s" from="0.45 -8.75" repeatCount="indefinite" to="5.1 4.25" type="translate"/>
      <animateTransform additive="sum" attributeName="gradientTransform" dur="2s" from="-26.0375" repeatCount="indefinite" to="-26.0326" type="rotate"/>
      <animateTransform additive="sum" attributeName="gradientTransform" dur="2s" from="0.0556 0.0379" repeatCount="indefinite" to="0.0419 0.0285" type="scale"/>
      <animateTransform additive="sum" attributeName="gradientTransform" dur="2s" from="-0.006" repeatCount="indefinite" to="-0.0012" type="skewX"/>
      <stop offset="0.0" stop-color="#0a9709">
        <animate attributeName="offset" dur="2s" repeatCount="indefinite" values="0.0;0.0"/>
        <animate attributeName="stop-color" dur="2s" repeatCount="indefinite" values="#0a9709;#505051"/>
        <animate attributeName="stop-opacity" dur="2s" repeatCount="indefinite" values="1.0;1.0"/>
      </stop>
      <stop offset="0.5764705882352941" stop-color="#52d862">
        <animate attributeName="offset" dur="2s" repeatCount="indefinite" values="0.5764705882352941;0.5764705882352941"/>
        <animate attributeName="stop-color" dur="2s" repeatCount="indefinite" values="#52d862;#959596"/>
        <animate attributeName="stop-opacity" dur="2s" repeatCount="indefinite" values="1.0;1.0"/>
      </stop>
      <stop offset="1.0" stop-color="#ffffff">
        <animate attributeName="offset" dur="2s" repeatCount="indefinite" values="1.0;1.0"/>
        <animate attributeName="stop-color" dur="2s" repeatCount="indefinite" values="#ffffff;#ffffff"/>
        <animate attributeName="stop-opacity" dur="2s" repeatCount="indefinite" values="1.0;1.0"/>
      </stop>
    </radialGradient>
  </defs>
</svg>
