<?xml version="1.0" encoding="UTF-8" standalone="no"?>
<svg xmlns:xlink="http://www.w3.org/1999/xlink" height="12.25px" width="12.2px" xmlns="http://www.w3.org/2000/svg">
  <g transform="matrix(1.0, 0.0, 0.0, 1.0, 5.6, -9.0)">
    <path d="M-5.3 10.0 Q-5.45 10.9 -4.9 11.55 L-4.7 12.0 Q-4.15 13.75 -2.8 15.2 L-3.6 15.8 Q-4.45 16.55 -4.1 17.8 L-3.8 18.1 -3.45 18.45 -3.25 19.25 Q-2.2 21.2 -0.35 19.55 L-0.05 19.55 Q0.7 20.05 1.65 19.75 L3.5 19.15 4.95 18.65 Q6.95 17.85 6.5 15.85 6.35 15.1 5.6 15.2 L2.55 15.45 Q2.65 14.55 3.4 14.05 4.1 13.55 3.75 12.75 2.65 10.55 0.75 12.25 L0.5 13.35 Q0.15 13.95 0.25 14.65 L-0.2 14.6 -0.35 14.5 -0.45 13.95 Q-0.35 12.45 -1.85 11.9 L-1.85 11.7 Q-1.9 9.55 -4.15 9.0 L-4.15 9.05 -4.65 9.1 Q-5.15 9.4 -5.3 10.0" fill="url(#gradient0)" fill-rule="evenodd" stroke="none">
      <animate attributeName="d" dur="2s" repeatCount="indefinite" values="M-5.3 10.0 Q-5.45 10.9 -4.9 11.55 L-4.7 12.0 Q-4.15 13.75 -2.8 15.2 L-3.6 15.8 Q-4.45 16.55 -4.1 17.8 L-3.8 18.1 -3.45 18.45 -3.25 19.25 Q-2.2 21.2 -0.35 19.55 L-0.05 19.55 Q0.7 20.05 1.65 19.75 L3.5 19.15 4.95 18.65 Q6.95 17.85 6.5 15.85 6.35 15.1 5.6 15.2 L2.55 15.45 Q2.65 14.55 3.4 14.05 4.1 13.55 3.75 12.75 2.65 10.55 0.75 12.25 L0.5 13.35 Q0.15 13.95 0.25 14.65 L-0.2 14.6 -0.35 14.5 -0.45 13.95 Q-0.35 12.45 -1.85 11.9 L-1.85 11.7 Q-1.9 9.55 -4.15 9.0 L-4.15 9.05 -4.65 9.1 Q-5.15 9.4 -5.3 10.0;M-5.55 10.95 Q-5.7 11.85 -5.15 12.5 L-4.95 12.95 Q-4.4 14.7 -3.05 16.15 L-3.85 16.75 Q-4.7 17.5 -4.35 18.75 L-4.05 19.05 -3.7 19.4 -3.5 20.2 Q-2.45 22.15 -0.6 20.5 L-0.3 20.5 Q0.55 20.6 1.4 20.7 L3.25 20.1 4.7 19.6 Q6.7 18.8 6.25 16.8 6.1 16.05 5.35 16.15 L2.3 16.4 Q2.4 15.5 3.15 15.0 3.85 14.5 3.5 13.7 2.4 11.5 0.5 13.2 L0.25 14.3 Q-0.1 14.9 0.0 15.6 L-0.45 15.55 -0.6 15.45 -0.7 14.9 Q-0.6 13.4 -2.1 12.85 L-2.1 12.65 Q-2.15 10.5 -4.4 9.95 L-4.4 10.0 -4.9 10.05 Q-5.4 10.35 -5.55 10.95"/>
    </path>
    <path d="M-5.3 10.0 Q-5.15 9.4 -4.65 9.1 L-4.15 9.05 -4.15 9.0 Q-1.9 9.55 -1.85 11.7 L-1.85 11.9 Q-0.35 12.45 -0.45 13.95 L-0.35 14.5 -0.2 14.6 0.25 14.65 Q0.15 13.95 0.5 13.35 L0.75 12.25 Q2.65 10.55 3.75 12.75 4.1 13.55 3.4 14.05 2.65 14.55 2.55 15.45 L5.6 15.2 Q6.35 15.1 6.5 15.85 6.95 17.85 4.95 18.65 L3.5 19.15 1.65 19.75 Q0.7 20.05 -0.05 19.55 L-0.35 19.55 Q-2.2 21.2 -3.25 19.25 L-3.45 18.45 -3.8 18.1 -4.1 17.8 Q-4.45 16.55 -3.6 15.8 L-2.8 15.2 Q-4.15 13.75 -4.7 12.0 L-4.9 11.55 Q-5.45 10.9 -5.3 10.0" fill="none" stroke="#000000" stroke-linecap="round" stroke-linejoin="round" stroke-opacity="0.0" stroke-width="1.0">
      <animate attributeName="stroke" dur="2s" repeatCount="indefinite" values="#000000;#000001"/>
      <animate attributeName="stroke-width" dur="2s" repeatCount="indefinite" values="0.0;0.0"/>
      <animate attributeName="fill-opacity" dur="2s" repeatCount="indefinite" values="0.0;0.0"/>
      <animate attributeName="d" dur="2s" repeatCount="indefinite" values="M-5.3 10.0 Q-5.15 9.4 -4.65 9.1 L-4.15 9.05 -4.15 9.0 Q-1.9 9.55 -1.85 11.7 L-1.85 11.9 Q-0.35 12.45 -0.45 13.95 L-0.35 14.5 -0.2 14.6 0.25 14.65 Q0.15 13.95 0.5 13.35 L0.75 12.25 Q2.65 10.55 3.75 12.75 4.1 13.55 3.4 14.05 2.65 14.55 2.55 15.45 L5.6 15.2 Q6.35 15.1 6.5 15.85 6.95 17.85 4.95 18.65 L3.5 19.15 1.65 19.75 Q0.7 20.05 -0.05 19.55 L-0.35 19.55 Q-2.2 21.2 -3.25 19.25 L-3.45 18.45 -3.8 18.1 -4.1 17.8 Q-4.45 16.55 -3.6 15.8 L-2.8 15.2 Q-4.15 13.75 -4.7 12.0 L-4.9 11.55 Q-5.45 10.9 -5.3 10.0;M-5.55 10.95 Q-5.4 10.35 -4.9 10.05 L-4.4 10.0 -4.4 9.95 Q-2.15 10.5 -2.1 12.65 L-2.1 12.85 Q-0.6 13.4 -0.7 14.9 L-0.6 15.45 -0.45 15.55 0.0 15.6 Q-0.1 14.9 0.25 14.3 L0.5 13.2 Q2.4 11.5 3.5 13.7 3.85 14.5 3.15 15.0 2.4 15.5 2.3 16.4 L5.35 16.15 Q6.1 16.05 6.25 16.8 6.7 18.8 4.7 19.6 L3.25 20.1 1.4 20.7 Q0.55 20.6 -0.3 20.5 L-0.6 20.5 Q-2.45 22.15 -3.5 20.2 L-3.7 19.4 -4.05 19.05 -4.35 18.75 Q-4.7 17.5 -3.85 16.75 L-3.05 16.15 Q-4.4 14.7 -4.95 12.95 L-5.15 12.5 Q-5.7 11.85 -5.55 10.95"/>
    </path>
  </g>
  <defs>
    <radialGradient cx="0" cy="0" gradientTransform="matrix(0.0099, 0.0, 0.0, 0.0099, 0.65, 14.65)" gradientUnits="userSpaceOnUse" id="gradient0" r="819.2" spreadMethod="pad">
      <animateTransform additive="replace" attributeName="gradientTransform" dur="2s" from="1" repeatCount="indefinite" to="1" type="scale"/>
      <animateTransform additive="sum" attributeName="gradientTransform" dur="2s" from="0.65 14.65" repeatCount="indefinite" to="0.4 15.6" type="translate"/>
      <animateTransform additive="sum" attributeName="gradientTransform" dur="2s" from="0.0" repeatCount="indefinite" to="0.0" type="rotate"/>
      <animateTransform additive="sum" attributeName="gradientTransform" dur="2s" from="0.0099 0.0099" repeatCount="indefinite" to="0.0099 0.0099" type="scale"/>
      <animateTransform additive="sum" attributeName="gradientTransform" dur="2s" from="0.0" repeatCount="indefinite" to="0.0" type="skewX"/>
      <stop offset="0.0" stop-color="#4e0707">
        <animate attributeName="offset" dur="2s" repeatCount="indefinite" values="0.0;0.0"/>
        <animate attributeName="stop-color" dur="2s" repeatCount="indefinite" values="#4e0707;#4e0708"/>
        <animate attributeName="stop-opacity" dur="2s" repeatCount="indefinite" values="1.0;1.0"/>
      </stop>
      <stop offset="0.16470588235294117" stop-color="#b41010">
        <animate attributeName="offset" dur="2s" repeatCount="indefinite" values="0.16470588235294117;0.16470588235294117"/>
        <animate attributeName="stop-color" dur="2s" repeatCount="indefinite" values="#b41010;#b41011"/>
        <animate attributeName="stop-opacity" dur="2s" repeatCount="indefinite" values="1.0;1.0"/>
      </stop>
      <stop offset="0.5294117647058824" stop-color="#e23612">
        <animate attributeName="offset" dur="2s" repeatCount="indefinite" values="0.5294117647058824;0.5294117647058824"/>
        <animate attributeName="stop-color" dur="2s" repeatCount="indefinite" values="#e23612;#e23613"/>
        <animate attributeName="stop-opacity" dur="2s" repeatCount="indefinite" values="1.0;1.0"/>
      </stop>
      <stop offset="0.807843137254902" stop-color="#fd5037">
        <animate attributeName="offset" dur="2s" repeatCount="indefinite" values="0.807843137254902;0.807843137254902"/>
        <animate attributeName="stop-color" dur="2s" repeatCount="indefinite" values="#fd5037;#fd5038"/>
        <animate attributeName="stop-opacity" dur="2s" repeatCount="indefinite" values="1.0;1.0"/>
      </stop>
      <stop offset="1.0" stop-color="#fd5037" stop-opacity="0.0">
        <animate attributeName="offset" dur="2s" repeatCount="indefinite" values="1.0;1.0"/>
        <animate attributeName="stop-color" dur="2s" repeatCount="indefinite" values="#fd5037;#fd5038"/>
        <animate attributeName="stop-opacity" dur="2s" repeatCount="indefinite" values="0.0;0.0"/>
      </stop>
    </radialGradient>
  </defs>
</svg>
