<?xml version="1.0" encoding="UTF-8" standalone="no"?>
<svg xmlns:xlink="http://www.w3.org/1999/xlink" height="76.0px" width="107.3px" xmlns="http://www.w3.org/2000/svg">
  <g transform="matrix(1.0, 0.0, 0.0, 1.0, 50.9, 42.3)">
    <path d="M-11.5 0.0 L-11.5 0.0 Q-11.45 0.5 -11.45 1.0 -11.25 2.05 -11.05 3.05 -10.6 4.0 -10.15 4.95 L-8.9 6.6 -8.15 7.4 Q-7.8 7.7 -7.5 7.95 -7.35 8.05 -7.2 8.15 -6.35 8.7 -5.5 9.2 -4.6 9.6 -3.7 9.95 -2.6 10.2 -1.55 10.4 L-1.15 10.45 Q-0.55 10.5 0.0 10.5 0.55 10.45 1.1 10.45 1.35 10.4 1.6 10.4 2.65 10.15 3.65 9.95 4.6 9.55 5.5 9.2 6.35 8.65 7.15 8.15 L7.9 7.5 8.1 7.4 Q8.8 6.7 9.45 6.05 10.05 5.1 10.6 4.15 10.95 3.15 11.3 2.15 11.4 1.15 11.5 0.2 L11.5 0.0 Q11.4 -0.9 11.35 -1.75 11.0 -2.85 10.7 -3.9 10.15 -4.85 9.65 -5.75 9.35 -6.1 9.1 -6.45 8.6 -6.95 8.1 -7.45 L7.7 -7.75 Q6.9 -8.35 6.1 -8.9 5.15 -9.4 4.2 -9.85 3.15 -10.1 2.15 -10.35 1.45 -10.45 0.8 -10.5 L0.0 -10.5 -1.25 -10.45 Q-2.2 -10.3 -3.1 -10.15 -4.15 -9.8 -5.15 -9.45 -6.1 -8.9 -7.0 -8.35 -7.85 -7.65 -8.7 -6.95 -9.35 -6.15 -9.95 -5.35 -10.3 -4.7 -10.65 -4.1 L-11.3 -2.0 Q-11.4 -1.0 -11.5 0.0" fill="url(#gradient0)" fill-rule="evenodd" stroke="none">
      <animate attributeName="d" dur="2s" repeatCount="indefinite" values="M-11.5 0.0 L-11.5 0.0 Q-11.45 0.5 -11.45 1.0 -11.25 2.05 -11.05 3.05 -10.6 4.0 -10.15 4.95 L-8.9 6.6 -8.15 7.4 Q-7.8 7.7 -7.5 7.95 -7.35 8.05 -7.2 8.15 -6.35 8.7 -5.5 9.2 -4.6 9.6 -3.7 9.95 -2.6 10.2 -1.55 10.4 L-1.15 10.45 Q-0.55 10.5 0.0 10.5 0.55 10.45 1.1 10.45 1.35 10.4 1.6 10.4 2.65 10.15 3.65 9.95 4.6 9.55 5.5 9.2 6.35 8.65 7.15 8.15 L7.9 7.5 8.1 7.4 Q8.8 6.7 9.45 6.05 10.05 5.1 10.6 4.15 10.95 3.15 11.3 2.15 11.4 1.15 11.5 0.2 L11.5 0.0 Q11.4 -0.9 11.35 -1.75 11.0 -2.85 10.7 -3.9 10.15 -4.85 9.65 -5.75 9.35 -6.1 9.1 -6.45 8.6 -6.95 8.1 -7.45 L7.7 -7.75 Q6.9 -8.35 6.1 -8.9 5.15 -9.4 4.2 -9.85 3.15 -10.1 2.15 -10.35 1.45 -10.45 0.8 -10.5 L0.0 -10.5 -1.25 -10.45 Q-2.2 -10.3 -3.1 -10.15 -4.15 -9.8 -5.15 -9.45 -6.1 -8.9 -7.0 -8.35 -7.85 -7.65 -8.7 -6.95 -9.35 -6.15 -9.95 -5.35 -10.3 -4.7 -10.65 -4.1 L-11.3 -2.0 Q-11.4 -1.0 -11.5 0.0;M-50.85 7.45 L-50.8 7.9 Q-50.5 10.05 -49.55 12.15 -47.6 16.3 -44.4 19.6 -40.8 23.35 -35.95 24.05 L-26.6 23.65 -21.45 23.25 Q-19.5 23.4 -17.65 24.0 -16.85 24.25 -16.25 25.0 -13.4 28.65 -9.1 30.9 -5.05 33.05 -0.55 33.6 4.85 34.3 8.2 30.1 L9.15 28.75 Q10.8 26.2 12.75 24.35 14.1 23.05 15.65 22.1 16.6 21.5 17.95 21.2 22.6 20.1 26.6 23.6 30.1 26.65 34.75 28.3 39.55 30.0 42.65 26.05 L45.6 22.6 46.2 22.0 Q49.25 18.85 52.8 16.8 57.4 14.1 56.1 8.55 55.05 3.8 55.3 -1.25 55.55 -5.85 52.8 -9.4 L52.45 -9.9 Q49.75 -13.3 46.2 -15.95 42.3 -18.85 37.75 -20.55 33.1 -22.3 28.4 -21.55 26.1 -21.2 25.2 -23.35 24.0 -26.1 23.05 -29.1 L22.2 -32.0 Q20.8 -36.95 17.1 -40.05 13.45 -43.15 8.5 -41.95 3.8 -40.8 -0.45 -39.1 -3.45 -37.95 -6.75 -37.75 L-10.2 -38.75 -15.25 -39.15 Q-19.55 -39.0 -23.6 -37.55 -27.95 -36.0 -32.45 -34.75 -37.7 -33.35 -37.8 -28.0 -37.9 -24.55 -35.95 -18.65 -33.85 -14.25 -34.5 -9.3 -34.9 -6.35 -38.25 -4.75 L-46.9 -0.3 Q-51.3 2.2 -50.85 7.45"/>
    </path>
    <path d="M-11.5 0.0 Q-11.4 -1.0 -11.3 -2.0 L-10.65 -4.1 Q-10.3 -4.7 -9.95 -5.35 -9.35 -6.15 -8.7 -6.95 -7.85 -7.65 -7.0 -8.35 -6.1 -8.9 -5.15 -9.45 -4.15 -9.8 -3.1 -10.15 -2.2 -10.3 -1.25 -10.45 L0.0 -10.5 0.8 -10.5 Q1.45 -10.45 2.15 -10.35 3.15 -10.1 4.2 -9.85 5.15 -9.4 6.1 -8.9 6.9 -8.35 7.7 -7.75 L8.1 -7.45 Q8.6 -6.95 9.1 -6.45 9.35 -6.1 9.65 -5.75 10.15 -4.85 10.7 -3.9 11.0 -2.85 11.35 -1.75 11.4 -0.9 11.5 0.0 L11.5 0.2 Q11.4 1.15 11.3 2.15 10.95 3.15 10.6 4.15 10.05 5.1 9.45 6.05 8.8 6.7 8.1 7.4 L7.9 7.5 7.15 8.15 Q6.35 8.65 5.5 9.2 4.6 9.55 3.65 9.95 2.65 10.15 1.6 10.4 1.35 10.4 1.1 10.45 0.55 10.45 0.0 10.5 -0.55 10.5 -1.15 10.45 L-1.55 10.4 Q-2.6 10.2 -3.7 9.95 -4.6 9.6 -5.5 9.2 -6.35 8.7 -7.2 8.15 -7.35 8.05 -7.5 7.95 -7.8 7.7 -8.15 7.4 L-8.9 6.6 -10.15 4.95 Q-10.6 4.0 -11.05 3.05 -11.25 2.05 -11.45 1.0 -11.45 0.5 -11.5 0.0 -11.4 -1.0 -11.3 -2.0 L-10.65 -4.1 Q-10.3 -4.7 -9.95 -5.35 -9.35 -6.15 -8.7 -6.95 -7.85 -7.65 -7.0 -8.35 -6.1 -8.9 -5.15 -9.45 -4.15 -9.8 -3.1 -10.15 -2.2 -10.3 -1.25 -10.45 L0.0 -10.5 0.8 -10.5 Q1.45 -10.45 2.15 -10.35 3.15 -10.1 4.2 -9.85 5.15 -9.4 6.1 -8.9 6.9 -8.35 7.7 -7.75 L8.1 -7.45 Q8.6 -6.95 9.1 -6.45 9.35 -6.1 9.65 -5.75 10.15 -4.85 10.7 -3.9 11.0 -2.85 11.35 -1.75 11.4 -0.9 11.5 0.0 L11.5 0.2 Q11.4 1.15 11.3 2.15 10.95 3.15 10.6 4.15 10.05 5.1 9.45 6.05 8.8 6.7 8.1 7.4 L7.9 7.5 7.15 8.15 Q6.35 8.65 5.5 9.2 4.6 9.55 3.65 9.95 2.65 10.15 1.6 10.4 1.35 10.4 1.1 10.45 0.55 10.45 0.0 10.5 -0.55 10.5 -1.15 10.45 L-1.55 10.4 Q-2.6 10.2 -3.7 9.95 -4.6 9.6 -5.5 9.2 -6.35 8.7 -7.2 8.15 -7.35 8.05 -7.5 7.95 -7.8 7.7 -8.15 7.4 L-8.9 6.6 -10.15 4.95 Q-10.6 4.0 -11.05 3.05 -11.25 2.05 -11.45 1.0 -11.45 0.5 -11.5 0.0 L-11.5 0.0" fill="none" stroke="#000000" stroke-linecap="round" stroke-linejoin="round" stroke-width="0.5">
      <animate attributeName="stroke" dur="2s" repeatCount="indefinite" values="#000000;#000001"/>
      <animate attributeName="stroke-width" dur="2s" repeatCount="indefinite" values="0.5;0.0"/>
      <animate attributeName="fill-opacity" dur="2s" repeatCount="indefinite" values="1.0;0.0"/>
      <animate attributeName="d" dur="2s" repeatCount="indefinite" values="M-11.5 0.0 Q-11.4 -1.0 -11.3 -2.0 L-10.65 -4.1 Q-10.3 -4.7 -9.95 -5.35 -9.35 -6.15 -8.7 -6.95 -7.85 -7.65 -7.0 -8.35 -6.1 -8.9 -5.15 -9.45 -4.15 -9.8 -3.1 -10.15 -2.2 -10.3 -1.25 -10.45 L0.0 -10.5 0.8 -10.5 Q1.45 -10.45 2.15 -10.35 3.15 -10.1 4.2 -9.85 5.15 -9.4 6.1 -8.9 6.9 -8.35 7.7 -7.75 L8.1 -7.45 Q8.6 -6.95 9.1 -6.45 9.35 -6.1 9.65 -5.75 10.15 -4.85 10.7 -3.9 11.0 -2.85 11.35 -1.75 11.4 -0.9 11.5 0.0 L11.5 0.2 Q11.4 1.15 11.3 2.15 10.95 3.15 10.6 4.15 10.05 5.1 9.45 6.05 8.8 6.7 8.1 7.4 L7.9 7.5 7.15 8.15 Q6.35 8.65 5.5 9.2 4.6 9.55 3.65 9.95 2.65 10.15 1.6 10.4 1.35 10.4 1.1 10.45 0.55 10.45 0.0 10.5 -0.55 10.5 -1.15 10.45 L-1.55 10.4 Q-2.6 10.2 -3.7 9.95 -4.6 9.6 -5.5 9.2 -6.35 8.7 -7.2 8.15 -7.35 8.05 -7.5 7.95 -7.8 7.7 -8.15 7.4 L-8.9 6.6 -10.15 4.95 Q-10.6 4.0 -11.05 3.05 -11.25 2.05 -11.45 1.0 -11.45 0.5 -11.5 0.0 -11.4 -1.0 -11.3 -2.0 L-10.65 -4.1 Q-10.3 -4.7 -9.95 -5.35 -9.35 -6.15 -8.7 -6.95 -7.85 -7.65 -7.0 -8.35 -6.1 -8.9 -5.15 -9.45 -4.15 -9.8 -3.1 -10.15 -2.2 -10.3 -1.25 -10.45 L0.0 -10.5 0.8 -10.5 Q1.45 -10.45 2.15 -10.35 3.15 -10.1 4.2 -9.85 5.15 -9.4 6.1 -8.9 6.9 -8.35 7.7 -7.75 L8.1 -7.45 Q8.6 -6.95 9.1 -6.45 9.35 -6.1 9.65 -5.75 10.15 -4.85 10.7 -3.9 11.0 -2.85 11.35 -1.75 11.4 -0.9 11.5 0.0 L11.5 0.2 Q11.4 1.15 11.3 2.15 10.95 3.15 10.6 4.15 10.05 5.1 9.45 6.05 8.8 6.7 8.1 7.4 L7.9 7.5 7.15 8.15 Q6.35 8.65 5.5 9.2 4.6 9.55 3.65 9.95 2.65 10.15 1.6 10.4 1.35 10.4 1.1 10.45 0.55 10.45 0.0 10.5 -0.55 10.5 -1.15 10.45 L-1.55 10.4 Q-2.6 10.2 -3.7 9.95 -4.6 9.6 -5.5 9.2 -6.35 8.7 -7.2 8.15 -7.35 8.05 -7.5 7.95 -7.8 7.7 -8.15 7.4 L-8.9 6.6 -10.15 4.95 Q-10.6 4.0 -11.05 3.05 -11.25 2.05 -11.45 1.0 -11.45 0.5 -11.5 0.0 L-11.5 0.0;M-50.85 7.45 Q-51.3 2.2 -46.9 -0.3 L-38.25 -4.75 Q-34.9 -6.35 -34.5 -9.3 -33.85 -14.25 -35.95 -18.65 -37.9 -24.55 -37.8 -28.0 -37.7 -33.35 -32.45 -34.75 -27.95 -36.0 -23.6 -37.55 -19.55 -39.0 -15.25 -39.15 L-10.2 -38.75 -6.75 -37.75 Q-3.45 -37.95 -0.45 -39.1 3.8 -40.8 8.5 -41.95 13.45 -43.15 17.1 -40.05 20.8 -36.95 22.2 -32.0 L23.05 -29.1 Q24.0 -26.1 25.2 -23.35 26.1 -21.2 28.4 -21.55 33.1 -22.3 37.75 -20.55 42.3 -18.85 46.2 -15.95 49.75 -13.3 52.45 -9.9 L52.8 -9.4 Q55.55 -5.85 55.3 -1.25 55.05 3.8 56.1 8.55 57.4 14.1 52.8 16.8 49.25 18.85 46.2 22.0 L45.6 22.6 42.65 26.05 Q39.55 30.0 34.75 28.3 30.1 26.65 26.6 23.6 22.6 20.1 17.95 21.2 16.6 21.5 15.65 22.1 14.1 23.05 12.75 24.35 10.8 26.2 9.15 28.75 L8.2 30.1 Q4.85 34.3 -0.55 33.6 -5.05 33.05 -9.1 30.9 -13.4 28.65 -16.25 25.0 -16.85 24.25 -17.65 24.0 -19.5 23.4 -21.45 23.25 L-26.6 23.65 -35.95 24.05 Q-40.8 23.35 -44.4 19.6 -47.6 16.3 -49.55 12.15 -50.5 10.05 -50.8 7.9 -51.3 2.2 -46.9 -0.3 L-38.25 -4.75 Q-34.9 -6.35 -34.5 -9.3 -33.85 -14.25 -35.95 -18.65 -37.9 -24.55 -37.8 -28.0 -37.7 -33.35 -32.45 -34.75 -27.95 -36.0 -23.6 -37.55 -19.55 -39.0 -15.25 -39.15 L-10.2 -38.75 -6.75 -37.75 Q-3.45 -37.95 -0.45 -39.1 3.8 -40.8 8.5 -41.95 13.45 -43.15 17.1 -40.05 20.8 -36.95 22.2 -32.0 L23.05 -29.1 Q24.0 -26.1 25.2 -23.35 26.1 -21.2 28.4 -21.55 33.1 -22.3 37.75 -20.55 42.3 -18.85 46.2 -15.95 49.75 -13.3 52.45 -9.9 L52.8 -9.4 Q55.55 -5.85 55.3 -1.25 55.05 3.8 56.1 8.55 57.4 14.1 52.8 16.8 49.25 18.85 46.2 22.0 L45.6 22.6 42.65 26.05 Q39.55 30.0 34.75 28.3 30.1 26.65 26.6 23.6 22.6 20.1 17.95 21.2 16.6 21.5 15.65 22.1 14.1 23.05 12.75 24.35 10.8 26.2 9.15 28.75 L8.2 30.1 Q4.85 34.3 -0.55 33.6 -5.05 33.05 -9.1 30.9 -13.4 28.65 -16.25 25.0 -16.85 24.25 -17.65 24.0 -19.5 23.4 -21.45 23.25 L-26.6 23.65 -35.95 24.05 Q-40.8 23.35 -44.4 19.6 -47.6 16.3 -49.55 12.15 -50.5 10.05 -50.8 7.9 L-50.85 7.45"/>
    </path>
  </g>
  <defs>
    <radialGradient cx="0" cy="0" gradientTransform="matrix(0.0221, -0.0108, 0.0074, 0.0151, 3.0, 2.5)" gradientUnits="userSpaceOnUse" id="gradient0" r="819.2" spreadMethod="pad">
      <animateTransform additive="replace" attributeName="gradientTransform" dur="2s" from="1" repeatCount="indefinite" to="1" type="scale"/>
      <animateTransform additive="sum" attributeName="gradientTransform" dur="2s" from="3.0 2.5" repeatCount="indefinite" to="-7.0 -14.0" type="translate"/>
      <animateTransform additive="sum" attributeName="gradientTransform" dur="2s" from="-26.0251" repeatCount="indefinite" to="0.0" type="rotate"/>
      <animateTransform additive="sum" attributeName="gradientTransform" dur="2s" from="0.0246 0.0168" repeatCount="indefinite" to="0.0559 0.0563" type="scale"/>
      <animateTransform additive="sum" attributeName="gradientTransform" dur="2s" from="0.003" repeatCount="indefinite" to="0.0" type="skewX"/>
      <stop offset="0.0" stop-color="#21cff3">
        <animate attributeName="offset" dur="2s" repeatCount="indefinite" values="0.0;0.0"/>
        <animate attributeName="stop-color" dur="2s" repeatCount="indefinite" values="#21cff3;#21cff4"/>
        <animate attributeName="stop-opacity" dur="2s" repeatCount="indefinite" values="1.0;1.0"/>
      </stop>
      <stop offset="0.5764705882352941" stop-color="#d0f2f9">
        <animate attributeName="offset" dur="2s" repeatCount="indefinite" values="0.5764705882352941;1.0"/>
        <animate attributeName="stop-color" dur="2s" repeatCount="indefinite" values="#d0f2f9;#d0f2fa"/>
        <animate attributeName="stop-opacity" dur="2s" repeatCount="indefinite" values="1.0;1.0"/>
      </stop>
      <stop offset="1.0" stop-color="#ffffff">
        <animate attributeName="offset" dur="2s" repeatCount="indefinite" values="1.0;1.0"/>
        <animate attributeName="stop-color" dur="2s" repeatCount="indefinite" values="#ffffff;#d0f2fa"/>
        <animate attributeName="stop-opacity" dur="2s" repeatCount="indefinite" values="1.0;1.0"/>
      </stop>
    </radialGradient>
  </defs>
</svg>
