<?xml version="1.0" encoding="UTF-8" standalone="no"?>
<svg xmlns:xlink="http://www.w3.org/1999/xlink" height="12.7px" width="32.6px" xmlns="http://www.w3.org/2000/svg">
  <g transform="matrix(1.0, 0.0, 0.0, 1.0, 16.05, 8.75)">
    <path d="M-8.8 -6.8 L-8.8 -6.8 -8.55 -6.3 -8.55 -6.2 -8.45 -6.1 -8.45 -6.1 Q-8.25 -5.8 -8.1 -5.5 L-8.0 -5.45 -7.75 -5.35 -7.55 -5.35 -6.7 -5.35 Q-6.15 -5.35 -5.6 -5.35 L-5.4 -5.35 -4.9 -5.35 -4.7 -5.35 -4.6 -5.35 -4.6 -5.35 -4.5 -5.35 Q-3.95 -5.4 -3.4 -5.4 L-2.9 -5.4 Q-2.7 -5.4 -2.5 -5.4 -2.1 -5.4 -1.7 -5.4 L-1.3 -5.4 -1.0 -5.4 -0.7 -5.4 Q-0.3 -5.4 0.1 -5.4 L1.0 -5.4 Q1.25 -5.4 1.5 -5.4 L1.7 -5.4 2.0 -5.4 Q2.55 -5.4 3.1 -5.4 3.3 -5.4 3.5 -5.4 3.8 -5.4 4.1 -5.4 L4.2 -5.4 4.2 -5.4 4.3 -5.4 4.3 -5.4 5.1 -5.4 5.7 -5.4 5.9 -5.4 5.9 -5.4 Q6.6 -5.4 7.1 -5.75 7.35 -5.95 7.55 -6.1 L7.6 -6.25 7.7 -6.55 7.7 -6.65 7.8 -6.95 7.8 -7.15 7.8 -7.25 Q7.75 -7.5 7.7 -7.7 L7.55 -8.0 Q7.25 -8.15 7.05 -8.25 6.75 -8.3 6.45 -8.35 L6.15 -8.45 Q5.75 -8.5 5.4 -8.55 L5.2 -8.55 Q4.7 -8.6 4.25 -8.65 L4.0 -8.65 3.8 -8.65 3.7 -8.65 Q3.1 -8.7 2.5 -8.75 2.25 -8.75 2.0 -8.75 L1.7 -8.75 Q1.05 -8.75 0.4 -8.75 -1.45 -8.65 -3.25 -8.6 -5.45 -8.3 -7.65 -8.05 L-8.15 -7.45 -8.25 -7.35 -8.45 -7.2 -8.55 -7.15 -8.75 -6.9 -8.8 -6.8" fill="url(#gradient0)" fill-rule="evenodd" stroke="none">
      <animate attributeName="d" dur="2s" repeatCount="indefinite" values="M-8.8 -6.8 L-8.8 -6.8 -8.55 -6.3 -8.55 -6.2 -8.45 -6.1 -8.45 -6.1 Q-8.25 -5.8 -8.1 -5.5 L-8.0 -5.45 -7.75 -5.35 -7.55 -5.35 -6.7 -5.35 Q-6.15 -5.35 -5.6 -5.35 L-5.4 -5.35 -4.9 -5.35 -4.7 -5.35 -4.6 -5.35 -4.6 -5.35 -4.5 -5.35 Q-3.95 -5.4 -3.4 -5.4 L-2.9 -5.4 Q-2.7 -5.4 -2.5 -5.4 -2.1 -5.4 -1.7 -5.4 L-1.3 -5.4 -1.0 -5.4 -0.7 -5.4 Q-0.3 -5.4 0.1 -5.4 L1.0 -5.4 Q1.25 -5.4 1.5 -5.4 L1.7 -5.4 2.0 -5.4 Q2.55 -5.4 3.1 -5.4 3.3 -5.4 3.5 -5.4 3.8 -5.4 4.1 -5.4 L4.2 -5.4 4.2 -5.4 4.3 -5.4 4.3 -5.4 5.1 -5.4 5.7 -5.4 5.9 -5.4 5.9 -5.4 Q6.6 -5.4 7.1 -5.75 7.35 -5.95 7.55 -6.1 L7.6 -6.25 7.7 -6.55 7.7 -6.65 7.8 -6.95 7.8 -7.15 7.8 -7.25 Q7.75 -7.5 7.7 -7.7 L7.55 -8.0 Q7.25 -8.15 7.05 -8.25 6.75 -8.3 6.45 -8.35 L6.15 -8.45 Q5.75 -8.5 5.4 -8.55 L5.2 -8.55 Q4.7 -8.6 4.25 -8.65 L4.0 -8.65 3.8 -8.65 3.7 -8.65 Q3.1 -8.7 2.5 -8.75 2.25 -8.75 2.0 -8.75 L1.7 -8.75 Q1.05 -8.75 0.4 -8.75 -1.45 -8.65 -3.25 -8.6 -5.45 -8.3 -7.65 -8.05 L-8.15 -7.45 -8.25 -7.35 -8.45 -7.2 -8.55 -7.15 -8.75 -6.9 -8.8 -6.8;M-16.0 -4.05 L-16.05 -3.65 -15.95 -2.2 -15.75 -2.1 -15.65 -2.0 -15.5 -2.0 Q-14.65 -2.95 -14.1 -2.1 L-14.0 -1.85 -13.9 -1.15 -13.85 -0.5 -13.7 0.05 Q-12.7 -1.55 -10.95 -0.4 L-10.75 0.05 -10.7 1.65 -10.1 2.15 -9.6 2.6 -9.5 2.6 -9.15 2.55 Q-10.15 0.85 -8.35 0.15 L-6.9 0.0 Q-6.2 0.05 -5.7 0.65 -5.0 1.45 -5.15 2.7 L-5.2 3.95 -4.4 3.75 -3.7 3.1 Q-4.1 1.75 -3.15 0.9 L-0.95 0.85 Q-0.3 1.45 -0.45 2.3 L-0.05 2.15 0.7 1.5 Q0.5 -0.3 2.35 -0.3 3.2 -0.25 3.45 0.6 3.7 1.5 3.4 2.45 L3.35 2.7 3.45 2.8 3.75 3.05 3.85 3.15 6.05 3.15 4.9 1.8 4.7 1.45 4.7 1.2 Q4.9 -0.6 6.85 -0.45 7.75 -0.35 7.9 0.35 L7.95 0.7 7.8 1.9 8.05 2.25 8.6 2.95 8.8 2.7 8.95 2.35 Q9.1 1.75 9.7 1.45 L10.1 0.95 Q10.65 0.6 11.2 0.3 12.05 0.1 13.05 0.8 L13.6 1.45 Q14.3 0.55 13.65 -0.5 L13.55 -0.9 Q13.5 -2.6 15.4 -2.15 L16.25 -1.7 16.45 -1.35 16.55 -1.55 Q16.65 -3.25 16.15 -4.75 15.5 -5.25 15.25 -5.85 L14.45 -6.2 Q12.85 -6.9 11.05 -7.4 6.35 -8.75 0.4 -8.75 -6.6 -8.75 -11.85 -6.95 L-13.4 -6.3 -13.7 -6.2 -14.85 -5.6 -15.05 -5.4 -15.8 -4.3 -16.0 -4.05"/>
    </path>
    <path d="M-8.8 -6.8 L-8.75 -6.9 -8.55 -7.15 -8.45 -7.2 -8.25 -7.35 -8.15 -7.45 -7.65 -8.05 Q-5.45 -8.3 -3.25 -8.6 -1.45 -8.65 0.4 -8.75 1.05 -8.75 1.7 -8.75 L2.0 -8.75 Q2.25 -8.75 2.5 -8.75 3.1 -8.7 3.7 -8.65 L3.8 -8.65 4.0 -8.65 4.25 -8.65 Q4.7 -8.6 5.2 -8.55 L5.4 -8.55 Q5.75 -8.5 6.15 -8.45 L6.45 -8.35 Q6.75 -8.3 7.05 -8.25 7.25 -8.15 7.55 -8.0 L7.7 -7.7 Q7.75 -7.5 7.8 -7.25 L7.8 -7.15 7.8 -6.95 7.7 -6.65 7.7 -6.55 7.6 -6.25 7.55 -6.1 Q7.35 -5.95 7.1 -5.75 6.6 -5.4 5.9 -5.4 L5.9 -5.4 5.7 -5.4 5.1 -5.4 4.3 -5.4 4.3 -5.4 4.2 -5.4 4.2 -5.4 4.1 -5.4 Q3.8 -5.4 3.5 -5.4 3.3 -5.4 3.1 -5.4 2.55 -5.4 2.0 -5.4 L1.7 -5.4 1.5 -5.4 Q1.25 -5.4 1.0 -5.4 L0.1 -5.4 Q-0.3 -5.4 -0.7 -5.4 L-1.0 -5.4 -1.3 -5.4 -1.7 -5.4 Q-2.1 -5.4 -2.5 -5.4 -2.7 -5.4 -2.9 -5.4 L-3.4 -5.4 Q-3.95 -5.4 -4.5 -5.35 L-4.6 -5.35 -4.6 -5.35 -4.7 -5.35 -4.9 -5.35 -5.4 -5.35 -5.6 -5.35 Q-6.15 -5.35 -6.7 -5.35 L-7.55 -5.35 -7.75 -5.35 -8.0 -5.45 -8.1 -5.5 Q-8.25 -5.8 -8.45 -6.1 L-8.45 -6.1 -8.55 -6.2 -8.55 -6.3 -8.8 -6.8 -8.8 -6.8" fill="none" stroke="#000000" stroke-linecap="round" stroke-linejoin="round" stroke-opacity="0.0" stroke-width="1.0">
      <animate attributeName="stroke" dur="2s" repeatCount="indefinite" values="#000000;#000001"/>
      <animate attributeName="stroke-width" dur="2s" repeatCount="indefinite" values="0.0;0.0"/>
      <animate attributeName="fill-opacity" dur="2s" repeatCount="indefinite" values="0.0;0.0"/>
      <animate attributeName="d" dur="2s" repeatCount="indefinite" values="M-8.8 -6.8 L-8.75 -6.9 -8.55 -7.15 -8.45 -7.2 -8.25 -7.35 -8.15 -7.45 -7.65 -8.05 Q-5.45 -8.3 -3.25 -8.6 -1.45 -8.65 0.4 -8.75 1.05 -8.75 1.7 -8.75 L2.0 -8.75 Q2.25 -8.75 2.5 -8.75 3.1 -8.7 3.7 -8.65 L3.8 -8.65 4.0 -8.65 4.25 -8.65 Q4.7 -8.6 5.2 -8.55 L5.4 -8.55 Q5.75 -8.5 6.15 -8.45 L6.45 -8.35 Q6.75 -8.3 7.05 -8.25 7.25 -8.15 7.55 -8.0 L7.7 -7.7 Q7.75 -7.5 7.8 -7.25 L7.8 -7.15 7.8 -6.95 7.7 -6.65 7.7 -6.55 7.6 -6.25 7.55 -6.1 Q7.35 -5.95 7.1 -5.75 6.6 -5.4 5.9 -5.4 L5.9 -5.4 5.7 -5.4 5.1 -5.4 4.3 -5.4 4.3 -5.4 4.2 -5.4 4.2 -5.4 4.1 -5.4 Q3.8 -5.4 3.5 -5.4 3.3 -5.4 3.1 -5.4 2.55 -5.4 2.0 -5.4 L1.7 -5.4 1.5 -5.4 Q1.25 -5.4 1.0 -5.4 L0.1 -5.4 Q-0.3 -5.4 -0.7 -5.4 L-1.0 -5.4 -1.3 -5.4 -1.7 -5.4 Q-2.1 -5.4 -2.5 -5.4 -2.7 -5.4 -2.9 -5.4 L-3.4 -5.4 Q-3.95 -5.4 -4.5 -5.35 L-4.6 -5.35 -4.6 -5.35 -4.7 -5.35 -4.9 -5.35 -5.4 -5.35 -5.6 -5.35 Q-6.15 -5.35 -6.7 -5.35 L-7.55 -5.35 -7.75 -5.35 -8.0 -5.45 -8.1 -5.5 Q-8.25 -5.8 -8.45 -6.1 L-8.45 -6.1 -8.55 -6.2 -8.55 -6.3 -8.8 -6.8 -8.8 -6.8;M-16.0 -4.05 L-15.8 -4.3 -15.05 -5.4 -14.85 -5.6 -13.7 -6.2 -13.4 -6.3 -11.85 -6.95 Q-6.6 -8.75 0.4 -8.75 6.35 -8.75 11.05 -7.4 12.85 -6.9 14.45 -6.2 L15.25 -5.85 Q15.5 -5.25 16.15 -4.75 16.65 -3.25 16.55 -1.55 L16.45 -1.35 16.25 -1.7 15.4 -2.15 Q13.5 -2.6 13.55 -0.9 L13.65 -0.5 Q14.3 0.55 13.6 1.45 L13.05 0.8 Q12.05 0.1 11.2 0.3 10.65 0.6 10.1 0.95 L9.7 1.45 Q9.1 1.75 8.95 2.35 L8.8 2.7 8.6 2.95 8.05 2.25 7.8 1.9 7.95 0.7 7.9 0.35 Q7.75 -0.35 6.85 -0.45 4.9 -0.6 4.7 1.2 L4.7 1.45 4.9 1.8 6.05 3.15 3.85 3.15 3.75 3.05 3.45 2.8 3.35 2.7 3.4 2.45 Q3.7 1.5 3.45 0.6 3.2 -0.25 2.35 -0.3 0.5 -0.3 0.7 1.5 L-0.05 2.15 -0.45 2.3 Q-0.3 1.45 -0.95 0.85 L-3.15 0.9 Q-4.1 1.75 -3.7 3.1 L-4.4 3.75 -5.2 3.95 -5.15 2.7 Q-5.0 1.45 -5.7 0.65 -6.2 0.05 -6.9 0.0 L-8.35 0.15 Q-10.15 0.85 -9.15 2.55 L-9.5 2.6 -9.6 2.6 -10.1 2.15 -10.7 1.65 -10.75 0.05 -10.95 -0.4 Q-12.7 -1.55 -13.7 0.05 L-13.85 -0.5 -13.9 -1.15 -14.0 -1.85 -14.1 -2.1 Q-14.65 -2.95 -15.5 -2.0 L-15.65 -2.0 -15.75 -2.1 -15.95 -2.2 -16.05 -3.65 -16.0 -4.05"/>
    </path>
  </g>
  <defs>
    <radialGradient cx="0" cy="0" gradientTransform="matrix(0.0351, 0.0, 0.0, 0.0351, 1.0, -0.75)" gradientUnits="userSpaceOnUse" id="gradient0" r="819.2" spreadMethod="pad">
      <animateTransform additive="replace" attributeName="gradientTransform" dur="2s" from="1" repeatCount="indefinite" to="1" type="scale"/>
      <animateTransform additive="sum" attributeName="gradientTransform" dur="2s" from="1.0 -0.75" repeatCount="indefinite" to="1.0 -0.75" type="translate"/>
      <animateTransform additive="sum" attributeName="gradientTransform" dur="2s" from="0.0" repeatCount="indefinite" to="0.0" type="rotate"/>
      <animateTransform additive="sum" attributeName="gradientTransform" dur="2s" from="0.0351 0.0351" repeatCount="indefinite" to="0.0351 0.0351" type="scale"/>
      <animateTransform additive="sum" attributeName="gradientTransform" dur="2s" from="0.0" repeatCount="indefinite" to="0.0" type="skewX"/>
      <stop offset="0.0" stop-color="#fefe0c" stop-opacity="0.9019608">
        <animate attributeName="offset" dur="2s" repeatCount="indefinite" values="0.0;0.0"/>
        <animate attributeName="stop-color" dur="2s" repeatCount="indefinite" values="#fefe0c;#fefe0d"/>
        <animate attributeName="stop-opacity" dur="2s" repeatCount="indefinite" values="0.9019608;0.9019608"/>
      </stop>
      <stop offset="0.5764705882352941" stop-color="#ffba2b" stop-opacity="0.9019608">
        <animate attributeName="offset" dur="2s" repeatCount="indefinite" values="0.5764705882352941;0.5764705882352941"/>
        <animate attributeName="stop-color" dur="2s" repeatCount="indefinite" values="#ffba2b;#ffba2c"/>
        <animate attributeName="stop-opacity" dur="2s" repeatCount="indefinite" values="0.9019608;0.9019608"/>
      </stop>
      <stop offset="1.0" stop-color="#ff720b" stop-opacity="0.9019608">
        <animate attributeName="offset" dur="2s" repeatCount="indefinite" values="1.0;1.0"/>
        <animate attributeName="stop-color" dur="2s" repeatCount="indefinite" values="#ff720b;#ff720c"/>
        <animate attributeName="stop-opacity" dur="2s" repeatCount="indefinite" values="0.9019608;0.9019608"/>
      </stop>
    </radialGradient>
  </defs>
</svg>
