<?xml version="1.0" encoding="UTF-8" standalone="no"?>
<svg xmlns:xlink="http://www.w3.org/1999/xlink" height="35.75px" width="39.8px" xmlns="http://www.w3.org/2000/svg">
  <g transform="matrix(1.0, 0.0, 0.0, 1.0, 19.5, 8.75)">
    <path d="M-18.9 -1.65 L-18.9 -1.55 -18.85 0.0 -18.6 0.8 -18.5 1.25 -16.75 3.4 -16.2 3.95 -14.85 4.85 -15.0 3.95 Q-14.95 3.2 -14.25 3.1 L-14.15 3.1 Q-13.1 3.3 -12.3 4.0 L-12.0 4.25 -11.2 5.05 -10.7 5.7 -10.2 6.4 -9.9 6.9 -8.9 7.95 -8.8 8.1 -8.25 8.95 -8.2 8.1 -8.2 7.75 -8.85 6.95 -9.0 6.25 -8.7 5.45 -8.55 5.3 -8.25 5.2 -7.65 5.2 Q-6.75 5.3 -6.1 5.85 -5.9 6.0 -5.75 6.15 L-5.15 7.1 Q-4.85 7.65 -4.7 8.3 -4.65 8.65 -4.65 9.0 L-4.7 9.8 Q-4.75 10.35 -5.2 10.7 L-5.25 12.0 -5.45 12.3 -5.45 12.6 -5.4 13.1 -5.4 13.7 -5.4 14.2 Q-5.05 14.55 -5.1 15.05 L-5.15 15.35 -4.95 15.1 -4.65 14.75 -4.45 14.6 -4.45 14.3 Q-4.55 12.8 -4.05 11.45 L-3.75 11.05 -3.4 11.0 -3.3 11.0 Q-2.3 11.1 -1.95 11.65 L-1.8 11.95 Q-1.7 12.3 -1.75 12.75 L-1.4 14.25 -1.25 14.55 -1.05 15.2 Q-0.85 16.0 -0.95 16.85 L0.1 18.0 0.3 18.2 0.4 18.2 0.45 17.4 0.35 17.1 0.3 16.75 0.0 16.15 Q-0.4 15.15 -0.3 14.05 -0.2 13.6 -0.1 13.15 L0.1 12.65 Q0.3 12.25 0.75 12.3 1.55 12.35 1.95 12.8 2.35 13.2 2.4 13.9 L2.4 14.4 2.4 14.4 2.4 15.3 2.3 15.85 2.2 16.25 2.2 16.25 2.25 16.8 2.3 17.1 2.95 17.75 3.35 18.35 3.55 18.3 3.75 18.2 Q4.0 17.25 3.65 16.2 3.55 15.85 3.7 15.55 L4.2 14.8 4.2 14.75 Q4.55 13.9 5.1 14.0 L6.0 14.5 6.35 14.8 6.55 14.9 6.55 14.15 6.55 14.0 6.55 13.7 6.35 13.6 Q5.2 13.25 5.1 12.35 L5.1 11.9 5.1 11.8 5.25 11.25 5.35 11.05 5.6 10.7 5.7 10.6 Q6.1 10.2 6.85 10.4 7.7 10.65 8.35 11.4 8.45 11.55 8.65 11.55 L8.65 11.55 8.75 11.35 8.75 11.15 Q8.75 9.8 8.25 8.6 L8.15 8.3 8.05 7.8 8.05 7.3 8.1 6.7 8.2 6.35 Q8.6 5.45 9.8 5.05 11.25 4.65 11.35 5.9 L11.25 6.95 12.8 5.05 Q12.65 3.15 14.25 2.3 L14.85 2.2 15.05 2.25 Q16.05 2.5 16.0 3.6 L16.0 4.4 16.15 4.3 Q17.25 3.35 18.3 2.45 L18.9 1.7 19.1 1.5 19.45 -1.4 19.4 -1.9 19.15 -2.7 18.9 -3.3 Q17.4 -4.9 14.45 -6.2 10.4 -8.0 5.1 -8.55 L0.4 -8.75 Q-6.1 -8.75 -11.1 -7.15 L-13.7 -6.2 Q-16.25 -5.05 -17.65 -3.7 L-17.75 -3.6 Q-18.35 -2.6 -18.9 -1.65" fill="url(#gradient0)" fill-rule="evenodd" stroke="none">
      <animate attributeName="d" dur="2s" repeatCount="indefinite" values="M-18.9 -1.65 L-18.9 -1.55 -18.85 0.0 -18.6 0.8 -18.5 1.25 -16.75 3.4 -16.2 3.95 -14.85 4.85 -15.0 3.95 Q-14.95 3.2 -14.25 3.1 L-14.15 3.1 Q-13.1 3.3 -12.3 4.0 L-12.0 4.25 -11.2 5.05 -10.7 5.7 -10.2 6.4 -9.9 6.9 -8.9 7.95 -8.8 8.1 -8.25 8.95 -8.2 8.1 -8.2 7.75 -8.85 6.95 -9.0 6.25 -8.7 5.45 -8.55 5.3 -8.25 5.2 -7.65 5.2 Q-6.75 5.3 -6.1 5.85 -5.9 6.0 -5.75 6.15 L-5.15 7.1 Q-4.85 7.65 -4.7 8.3 -4.65 8.65 -4.65 9.0 L-4.7 9.8 Q-4.75 10.35 -5.2 10.7 L-5.25 12.0 -5.45 12.3 -5.45 12.6 -5.4 13.1 -5.4 13.7 -5.4 14.2 Q-5.05 14.55 -5.1 15.05 L-5.15 15.35 -4.95 15.1 -4.65 14.75 -4.45 14.6 -4.45 14.3 Q-4.55 12.8 -4.05 11.45 L-3.75 11.05 -3.4 11.0 -3.3 11.0 Q-2.3 11.1 -1.95 11.65 L-1.8 11.95 Q-1.7 12.3 -1.75 12.75 L-1.4 14.25 -1.25 14.55 -1.05 15.2 Q-0.85 16.0 -0.95 16.85 L0.1 18.0 0.3 18.2 0.4 18.2 0.45 17.4 0.35 17.1 0.3 16.75 0.0 16.15 Q-0.4 15.15 -0.3 14.05 -0.2 13.6 -0.1 13.15 L0.1 12.65 Q0.3 12.25 0.75 12.3 1.55 12.35 1.95 12.8 2.35 13.2 2.4 13.9 L2.4 14.4 2.4 14.4 2.4 15.3 2.3 15.85 2.2 16.25 2.2 16.25 2.25 16.8 2.3 17.1 2.95 17.75 3.35 18.35 3.55 18.3 3.75 18.2 Q4.0 17.25 3.65 16.2 3.55 15.85 3.7 15.55 L4.2 14.8 4.2 14.75 Q4.55 13.9 5.1 14.0 L6.0 14.5 6.35 14.8 6.55 14.9 6.55 14.15 6.55 14.0 6.55 13.7 6.35 13.6 Q5.2 13.25 5.1 12.35 L5.1 11.9 5.1 11.8 5.25 11.25 5.35 11.05 5.6 10.7 5.7 10.6 Q6.1 10.2 6.85 10.4 7.7 10.65 8.35 11.4 8.45 11.55 8.65 11.55 L8.65 11.55 8.75 11.35 8.75 11.15 Q8.75 9.8 8.25 8.6 L8.15 8.3 8.05 7.8 8.05 7.3 8.1 6.7 8.2 6.35 Q8.6 5.45 9.8 5.05 11.25 4.65 11.35 5.9 L11.25 6.95 12.8 5.05 Q12.65 3.15 14.25 2.3 L14.85 2.2 15.05 2.25 Q16.05 2.5 16.0 3.6 L16.0 4.4 16.15 4.3 Q17.25 3.35 18.3 2.45 L18.9 1.7 19.1 1.5 19.45 -1.4 19.4 -1.9 19.15 -2.7 18.9 -3.3 Q17.4 -4.9 14.45 -6.2 10.4 -8.0 5.1 -8.55 L0.4 -8.75 Q-6.1 -8.75 -11.1 -7.15 L-13.7 -6.2 Q-16.25 -5.05 -17.65 -3.7 L-17.75 -3.6 Q-18.35 -2.6 -18.9 -1.65;M-19.5 0.0 L-19.5 0.0 -19.2 1.55 -18.95 2.15 -18.75 2.5 -16.95 4.35 -16.5 4.65 -15.55 5.25 -14.75 5.65 Q-14.25 5.85 -13.8 6.05 L-13.7 6.15 Q-12.75 6.55 -11.8 6.95 L-11.5 6.95 -10.7 7.0 -10.1 7.1 -9.5 7.25 -9.05 7.4 -7.9 8.0 -7.7 8.1 -6.8 8.65 -6.2 9.25 -6.0 9.5 -5.55 10.45 -5.5 11.05 -5.5 12.0 -5.5 12.2 -5.2 12.1 -4.95 11.9 Q-4.6 11.45 -3.7 11.65 -3.35 11.7 -3.2 12.0 L-2.7 13.0 Q-2.45 13.4 -2.2 13.8 -2.05 14.0 -2.05 14.3 L-2.1 15.3 Q-2.15 15.6 -2.15 15.9 L-2.3 16.9 -2.4 17.3 -2.45 17.5 -2.45 17.95 -2.05 17.85 -1.55 17.8 Q-1.1 17.9 -0.95 18.45 L-0.9 18.65 -0.9 18.95 -0.8 19.4 -0.8 19.7 -0.8 19.9 Q-0.65 21.3 -1.1 22.7 L-1.25 23.1 -1.3 23.4 -1.3 23.55 Q-1.3 24.25 -1.3 24.95 L-1.05 25.3 Q-0.8 25.65 -0.6 25.95 L0.15 26.9 0.25 27.0 0.8 27.0 Q0.55 26.35 0.3 25.7 L0.25 24.35 0.3 24.1 0.3 24.0 0.55 23.2 0.7 22.9 0.8 22.7 1.15 22.0 Q1.6 21.2 1.55 20.25 1.55 19.8 1.95 19.7 L2.4 19.65 Q2.8 19.75 3.2 19.8 3.55 20.1 3.85 20.4 4.2 20.85 4.2 21.4 L4.2 21.6 4.2 21.65 4.7 21.45 4.95 21.15 5.05 20.85 5.1 20.75 5.2 20.4 5.25 20.2 5.25 19.45 5.2 18.9 5.2 18.7 5.1 18.5 Q4.55 17.6 4.7 16.7 4.8 16.4 4.85 16.1 L5.1 15.5 5.1 15.5 Q5.45 14.95 5.8 14.45 L6.15 13.9 6.3 13.45 6.4 13.25 6.55 12.65 6.55 12.45 6.6 12.3 6.8 12.15 Q7.75 11.9 8.2 12.9 L8.4 13.25 8.45 13.2 8.6 12.95 8.7 12.85 8.85 12.7 8.85 12.6 Q8.85 12.0 8.85 11.4 8.9 10.65 9.1 9.9 9.15 9.75 9.2 9.6 L9.2 9.6 9.3 9.4 9.35 9.25 Q9.95 8.35 10.85 7.8 L11.05 7.7 11.5 7.5 12.0 7.35 12.25 7.05 12.55 6.95 Q13.5 6.55 14.45 6.15 15.3 5.75 16.1 5.35 L16.85 4.95 18.7 3.5 Q19.95 2.25 20.25 0.9 L20.3 0.2 20.3 0.0 Q20.25 -0.5 20.2 -1.0 L19.9 -1.7 19.8 -2.0 Q19.25 -3.15 18.0 -4.15 L17.45 -4.55 17.15 -4.75 14.85 -6.0 14.45 -6.2 14.05 -6.4 13.45 -6.6 Q11.1 -7.3 8.8 -7.95 4.6 -8.35 0.4 -8.75 L-3.75 -8.6 Q-9.4 -8.1 -13.7 -6.2 L-16.0 -5.0 Q-18.1 -3.7 -18.95 -2.2 L-19.05 -2.0 Q-19.5 -1.05 -19.5 0.0"/>
    </path>
    <path d="M-18.9 -1.65 Q-18.35 -2.6 -17.75 -3.6 L-17.65 -3.7 Q-16.25 -5.05 -13.7 -6.2 L-11.1 -7.15 Q-6.1 -8.75 0.4 -8.75 L5.1 -8.55 Q10.4 -8.0 14.45 -6.2 17.4 -4.9 18.9 -3.3 L19.15 -2.7 19.4 -1.9 19.45 -1.4 19.1 1.5 18.9 1.7 18.3 2.45 Q17.25 3.35 16.15 4.3 L16.0 4.4 16.0 3.6 Q16.05 2.5 15.05 2.25 L14.85 2.2 14.25 2.3 Q12.65 3.15 12.8 5.05 L11.25 6.95 11.35 5.9 Q11.25 4.65 9.8 5.05 8.6 5.45 8.2 6.35 L8.1 6.7 8.05 7.3 8.05 7.8 8.15 8.3 8.25 8.6 Q8.75 9.8 8.75 11.15 L8.75 11.35 8.65 11.55 8.65 11.55 Q8.45 11.55 8.35 11.4 7.7 10.65 6.85 10.4 6.1 10.2 5.7 10.6 L5.6 10.7 5.35 11.05 5.25 11.25 5.1 11.8 5.1 11.9 5.1 12.35 Q5.2 13.25 6.35 13.6 L6.55 13.7 6.55 14.0 6.55 14.15 6.55 14.9 6.35 14.8 6.0 14.5 5.1 14.0 Q4.55 13.9 4.2 14.75 L4.2 14.8 3.7 15.55 Q3.55 15.85 3.65 16.2 4.0 17.25 3.75 18.2 L3.55 18.3 3.35 18.35 2.95 17.75 2.3 17.1 2.25 16.8 2.2 16.25 2.2 16.25 2.3 15.85 2.4 15.3 2.4 14.4 2.4 14.4 2.4 13.9 Q2.35 13.2 1.95 12.8 1.55 12.35 0.75 12.3 0.3 12.25 0.1 12.65 L-0.1 13.15 Q-0.2 13.6 -0.3 14.05 -0.4 15.15 0.0 16.15 L0.3 16.75 0.35 17.1 0.45 17.4 0.4 18.2 0.3 18.2 0.1 18.0 -0.95 16.85 Q-0.85 16.0 -1.05 15.2 L-1.25 14.55 -1.4 14.25 -1.75 12.75 Q-1.7 12.3 -1.8 11.95 L-1.95 11.65 Q-2.3 11.1 -3.3 11.0 L-3.4 11.0 -3.75 11.05 -4.05 11.45 Q-4.55 12.8 -4.45 14.3 L-4.45 14.6 -4.65 14.75 -4.95 15.1 -5.15 15.35 -5.1 15.05 Q-5.05 14.55 -5.4 14.2 L-5.4 13.7 -5.4 13.1 -5.45 12.6 -5.45 12.3 -5.25 12.0 -5.2 10.7 Q-4.75 10.35 -4.7 9.8 L-4.65 9.0 Q-4.65 8.65 -4.7 8.3 -4.85 7.65 -5.15 7.1 L-5.75 6.15 Q-5.9 6.0 -6.1 5.85 -6.75 5.3 -7.65 5.2 L-8.25 5.2 -8.55 5.3 -8.7 5.45 -9.0 6.25 -8.85 6.95 -8.2 7.75 -8.2 8.1 -8.25 8.95 -8.8 8.1 -8.9 7.95 -9.9 6.9 -10.2 6.4 -10.7 5.7 -11.2 5.05 -12.0 4.25 -12.3 4.0 Q-13.1 3.3 -14.15 3.1 L-14.25 3.1 Q-14.95 3.2 -15.0 3.95 L-14.85 4.85 -16.2 3.95 -16.75 3.4 -18.5 1.25 -18.6 0.8 -18.85 0.0 -18.9 -1.55 -18.9 -1.65" fill="none" stroke="#000000" stroke-linecap="round" stroke-linejoin="round" stroke-opacity="0.0" stroke-width="1.0">
      <animate attributeName="stroke" dur="2s" repeatCount="indefinite" values="#000000;#000001"/>
      <animate attributeName="stroke-width" dur="2s" repeatCount="indefinite" values="0.0;0.0"/>
      <animate attributeName="fill-opacity" dur="2s" repeatCount="indefinite" values="0.0;0.0"/>
      <animate attributeName="d" dur="2s" repeatCount="indefinite" values="M-18.9 -1.65 Q-18.35 -2.6 -17.75 -3.6 L-17.65 -3.7 Q-16.25 -5.05 -13.7 -6.2 L-11.1 -7.15 Q-6.1 -8.75 0.4 -8.75 L5.1 -8.55 Q10.4 -8.0 14.45 -6.2 17.4 -4.9 18.9 -3.3 L19.15 -2.7 19.4 -1.9 19.45 -1.4 19.1 1.5 18.9 1.7 18.3 2.45 Q17.25 3.35 16.15 4.3 L16.0 4.4 16.0 3.6 Q16.05 2.5 15.05 2.25 L14.85 2.2 14.25 2.3 Q12.65 3.15 12.8 5.05 L11.25 6.95 11.35 5.9 Q11.25 4.65 9.8 5.05 8.6 5.45 8.2 6.35 L8.1 6.7 8.05 7.3 8.05 7.8 8.15 8.3 8.25 8.6 Q8.75 9.8 8.75 11.15 L8.75 11.35 8.65 11.55 8.65 11.55 Q8.45 11.55 8.35 11.4 7.7 10.65 6.85 10.4 6.1 10.2 5.7 10.6 L5.6 10.7 5.35 11.05 5.25 11.25 5.1 11.8 5.1 11.9 5.1 12.35 Q5.2 13.25 6.35 13.6 L6.55 13.7 6.55 14.0 6.55 14.15 6.55 14.9 6.35 14.8 6.0 14.5 5.1 14.0 Q4.55 13.9 4.2 14.75 L4.2 14.8 3.7 15.55 Q3.55 15.85 3.65 16.2 4.0 17.25 3.75 18.2 L3.55 18.3 3.35 18.35 2.95 17.75 2.3 17.1 2.25 16.8 2.2 16.25 2.2 16.25 2.3 15.85 2.4 15.3 2.4 14.4 2.4 14.4 2.4 13.9 Q2.35 13.2 1.95 12.8 1.55 12.35 0.75 12.3 0.3 12.25 0.1 12.65 L-0.1 13.15 Q-0.2 13.6 -0.3 14.05 -0.4 15.15 0.0 16.15 L0.3 16.75 0.35 17.1 0.45 17.4 0.4 18.2 0.3 18.2 0.1 18.0 -0.95 16.85 Q-0.85 16.0 -1.05 15.2 L-1.25 14.55 -1.4 14.25 -1.75 12.75 Q-1.7 12.3 -1.8 11.95 L-1.95 11.65 Q-2.3 11.1 -3.3 11.0 L-3.4 11.0 -3.75 11.05 -4.05 11.45 Q-4.55 12.8 -4.45 14.3 L-4.45 14.6 -4.65 14.75 -4.95 15.1 -5.15 15.35 -5.1 15.05 Q-5.05 14.55 -5.4 14.2 L-5.4 13.7 -5.4 13.1 -5.45 12.6 -5.45 12.3 -5.25 12.0 -5.2 10.7 Q-4.75 10.35 -4.7 9.8 L-4.65 9.0 Q-4.65 8.65 -4.7 8.3 -4.85 7.65 -5.15 7.1 L-5.75 6.15 Q-5.9 6.0 -6.1 5.85 -6.75 5.3 -7.65 5.2 L-8.25 5.2 -8.55 5.3 -8.7 5.45 -9.0 6.25 -8.85 6.95 -8.2 7.75 -8.2 8.1 -8.25 8.95 -8.8 8.1 -8.9 7.95 -9.9 6.9 -10.2 6.4 -10.7 5.7 -11.2 5.05 -12.0 4.25 -12.3 4.0 Q-13.1 3.3 -14.15 3.1 L-14.25 3.1 Q-14.95 3.2 -15.0 3.95 L-14.85 4.85 -16.2 3.95 -16.75 3.4 -18.5 1.25 -18.6 0.8 -18.85 0.0 -18.9 -1.55 -18.9 -1.65;M-19.5 0.0 Q-19.5 -1.05 -19.05 -2.0 L-18.95 -2.2 Q-18.1 -3.7 -16.0 -5.0 L-13.7 -6.2 Q-9.4 -8.1 -3.75 -8.6 L0.4 -8.75 Q4.6 -8.35 8.8 -7.95 11.1 -7.3 13.45 -6.6 L14.05 -6.4 14.45 -6.2 14.85 -6.0 17.15 -4.75 17.45 -4.55 18.0 -4.15 Q19.25 -3.15 19.8 -2.0 L19.9 -1.7 20.2 -1.0 Q20.25 -0.5 20.3 0.0 L20.3 0.2 20.25 0.9 Q19.95 2.25 18.7 3.5 L16.85 4.95 16.1 5.35 Q15.3 5.75 14.45 6.15 13.5 6.55 12.55 6.95 L12.25 7.05 12.0 7.35 11.5 7.5 11.05 7.7 10.85 7.8 Q9.95 8.35 9.35 9.25 L9.3 9.4 9.2 9.6 9.2 9.6 Q9.15 9.75 9.1 9.9 8.9 10.65 8.85 11.4 8.85 12.0 8.85 12.6 L8.85 12.7 8.7 12.85 8.6 12.95 8.45 13.2 8.4 13.25 8.2 12.9 Q7.75 11.9 6.8 12.15 L6.6 12.3 6.55 12.45 6.55 12.65 6.4 13.25 6.3 13.45 6.15 13.9 5.8 14.45 Q5.45 14.95 5.1 15.5 L5.1 15.5 4.85 16.1 Q4.8 16.4 4.7 16.7 4.55 17.6 5.1 18.5 L5.2 18.7 5.2 18.9 5.25 19.45 5.25 20.2 5.2 20.4 5.1 20.75 5.05 20.85 4.95 21.15 4.7 21.45 4.2 21.65 4.2 21.6 4.2 21.4 Q4.2 20.85 3.85 20.4 3.55 20.1 3.2 19.8 2.8 19.75 2.4 19.65 L1.95 19.7 Q1.55 19.8 1.55 20.25 1.6 21.2 1.15 22.0 L0.8 22.7 0.7 22.9 0.55 23.2 0.3 24.0 0.3 24.1 0.25 24.35 0.3 25.7 Q0.55 26.35 0.8 27.0 L0.25 27.0 0.15 26.9 -0.6 25.95 Q-0.8 25.65 -1.05 25.3 L-1.3 24.95 Q-1.3 24.25 -1.3 23.55 L-1.3 23.4 -1.25 23.1 -1.1 22.7 Q-0.65 21.3 -0.8 19.9 L-0.8 19.7 -0.8 19.4 -0.9 18.95 -0.9 18.65 -0.95 18.45 Q-1.1 17.9 -1.55 17.8 L-2.05 17.85 -2.45 17.95 -2.45 17.5 -2.4 17.3 -2.3 16.9 -2.15 15.9 Q-2.15 15.6 -2.1 15.3 L-2.05 14.3 Q-2.05 14.0 -2.2 13.8 -2.45 13.4 -2.7 13.0 L-3.2 12.0 Q-3.35 11.7 -3.7 11.65 -4.6 11.45 -4.95 11.9 L-5.2 12.1 -5.5 12.2 -5.5 12.0 -5.5 11.05 -5.55 10.45 -6.0 9.5 -6.2 9.25 -6.8 8.65 -7.7 8.1 -7.9 8.0 -9.05 7.4 -9.5 7.25 -10.1 7.1 -10.7 7.0 -11.5 6.95 -11.8 6.95 Q-12.75 6.55 -13.7 6.15 L-13.8 6.05 Q-14.25 5.85 -14.75 5.65 L-15.55 5.25 -16.5 4.65 -16.95 4.35 -18.75 2.5 -18.95 2.15 -19.2 1.55 -19.5 0.0 -19.5 0.0"/>
    </path>
  </g>
  <defs>
    <radialGradient cx="0" cy="0" gradientTransform="matrix(0.0351, 0.0, 0.0, 0.0351, 1.0, -0.75)" gradientUnits="userSpaceOnUse" id="gradient0" r="819.2" spreadMethod="pad">
      <animateTransform additive="replace" attributeName="gradientTransform" dur="2s" from="1" repeatCount="indefinite" to="1" type="scale"/>
      <animateTransform additive="sum" attributeName="gradientTransform" dur="2s" from="1.0 -0.75" repeatCount="indefinite" to="1.0 -0.75" type="translate"/>
      <animateTransform additive="sum" attributeName="gradientTransform" dur="2s" from="0.0" repeatCount="indefinite" to="0.0" type="rotate"/>
      <animateTransform additive="sum" attributeName="gradientTransform" dur="2s" from="0.0351 0.0351" repeatCount="indefinite" to="0.0351 0.0351" type="scale"/>
      <animateTransform additive="sum" attributeName="gradientTransform" dur="2s" from="0.0" repeatCount="indefinite" to="0.0" type="skewX"/>
      <stop offset="0.0" stop-color="#fefe0c" stop-opacity="0.9019608">
        <animate attributeName="offset" dur="2s" repeatCount="indefinite" values="0.0;0.0"/>
        <animate attributeName="stop-color" dur="2s" repeatCount="indefinite" values="#fefe0c;#fefe0d"/>
        <animate attributeName="stop-opacity" dur="2s" repeatCount="indefinite" values="0.9019608;0.9019608"/>
      </stop>
      <stop offset="0.5764705882352941" stop-color="#ffba2b" stop-opacity="0.9019608">
        <animate attributeName="offset" dur="2s" repeatCount="indefinite" values="0.5764705882352941;0.5764705882352941"/>
        <animate attributeName="stop-color" dur="2s" repeatCount="indefinite" values="#ffba2b;#ffba2c"/>
        <animate attributeName="stop-opacity" dur="2s" repeatCount="indefinite" values="0.9019608;0.9019608"/>
      </stop>
      <stop offset="1.0" stop-color="#ff720b" stop-opacity="0.9019608">
        <animate attributeName="offset" dur="2s" repeatCount="indefinite" values="1.0;1.0"/>
        <animate attributeName="stop-color" dur="2s" repeatCount="indefinite" values="#ff720b;#ff720c"/>
        <animate attributeName="stop-opacity" dur="2s" repeatCount="indefinite" values="0.9019608;0.9019608"/>
      </stop>
    </radialGradient>
  </defs>
</svg>
