<?xml version="1.0" encoding="UTF-8" standalone="no"?>
<svg xmlns:xlink="http://www.w3.org/1999/xlink" height="32.95px" width="19.3px" xmlns="http://www.w3.org/2000/svg">
  <g transform="matrix(1.0, 0.0, 0.0, 1.0, 8.8, 9.95)">
    <path d="M-8.55 -2.0 L-8.55 -1.9 -8.45 -1.4 -8.45 1.0 -7.8 2.05 -7.5 2.5 -7.25 3.0 -7.25 3.0 Q-6.75 3.3 -6.45 3.65 -5.7 4.55 -5.9 5.9 L-5.95 6.55 -5.95 6.55 -5.65 7.05 -5.2 7.8 -4.6 8.5 -4.55 8.45 -4.6 7.35 -4.55 6.95 -4.5 6.65 -4.45 6.35 -4.2 6.1 -3.1 6.05 Q-2.8 6.1 -2.55 6.25 -1.95 6.6 -1.7 7.45 L-1.6 7.65 -1.45 8.45 -1.45 8.65 Q-1.4 9.3 -1.6 9.85 L-1.6 9.95 -1.5 10.15 -1.45 10.2 -1.3 10.1 -1.05 9.8 -1.05 9.6 -1.05 9.4 -1.0 9.15 Q-0.75 8.4 0.4 8.6 0.75 8.7 0.95 8.95 L1.05 9.05 1.2 9.5 1.3 9.8 Q1.35 10.15 1.35 10.5 L1.2 11.75 1.05 12.3 1.05 12.4 0.75 12.75 0.55 12.95 0.55 13.5 0.55 13.6 0.55 14.1 0.85 14.45 1.0 14.65 1.6 15.3 1.8 15.5 1.8 15.5 1.8 15.2 1.8 14.9 Q1.75 13.8 1.85 12.65 L2.05 12.4 2.05 12.4 2.15 12.4 Q3.15 12.05 3.85 13.0 L4.3 13.65 Q4.55 14.1 4.75 14.5 L4.75 14.5 4.95 14.2 4.95 14.0 4.95 13.5 4.95 12.7 Q4.2 11.7 4.0 10.55 L4.0 10.45 Q4.05 10.05 4.1 9.7 4.25 9.3 4.65 9.05 L5.05 8.9 5.5 8.9 5.5 8.9 5.9 9.15 6.1 9.4 6.35 9.7 6.35 9.7 6.45 9.55 6.15 8.1 5.85 7.3 5.85 7.3 5.8 7.0 Q5.05 5.7 5.75 4.7 5.95 4.5 6.1 4.3 L6.2 4.2 6.6 4.0 7.1 4.05 Q8.3 4.55 8.35 5.7 L8.75 5.0 8.85 4.8 Q9.35 4.0 9.8 3.2 L9.9 3.0 10.0 2.6 10.4 0.45 10.5 -0.05 10.5 -0.55 Q10.15 -4.25 7.65 -6.9 L7.45 -7.1 Q5.1 -9.6 1.75 -9.9 L0.85 -9.95 Q-2.25 -9.95 -4.7 -8.05 L-6.0 -6.9 Q-7.95 -4.8 -8.55 -2.0" fill="url(#gradient0)" fill-rule="evenodd" stroke="none">
      <animate attributeName="d" dur="2s" repeatCount="indefinite" values="M-8.55 -2.0 L-8.55 -1.9 -8.45 -1.4 -8.45 1.0 -7.8 2.05 -7.5 2.5 -7.25 3.0 -7.25 3.0 Q-6.75 3.3 -6.45 3.65 -5.7 4.55 -5.9 5.9 L-5.95 6.55 -5.95 6.55 -5.65 7.05 -5.2 7.8 -4.6 8.5 -4.55 8.45 -4.6 7.35 -4.55 6.95 -4.5 6.65 -4.45 6.35 -4.2 6.1 -3.1 6.05 Q-2.8 6.1 -2.55 6.25 -1.95 6.6 -1.7 7.45 L-1.6 7.65 -1.45 8.45 -1.45 8.65 Q-1.4 9.3 -1.6 9.85 L-1.6 9.95 -1.5 10.15 -1.45 10.2 -1.3 10.1 -1.05 9.8 -1.05 9.6 -1.05 9.4 -1.0 9.15 Q-0.75 8.4 0.4 8.6 0.75 8.7 0.95 8.95 L1.05 9.05 1.2 9.5 1.3 9.8 Q1.35 10.15 1.35 10.5 L1.2 11.75 1.05 12.3 1.05 12.4 0.75 12.75 0.55 12.95 0.55 13.5 0.55 13.6 0.55 14.1 0.85 14.45 1.0 14.65 1.6 15.3 1.8 15.5 1.8 15.5 1.8 15.2 1.8 14.9 Q1.75 13.8 1.85 12.65 L2.05 12.4 2.05 12.4 2.15 12.4 Q3.15 12.05 3.85 13.0 L4.3 13.65 Q4.55 14.1 4.75 14.5 L4.75 14.5 4.95 14.2 4.95 14.0 4.95 13.5 4.95 12.7 Q4.2 11.7 4.0 10.55 L4.0 10.45 Q4.05 10.05 4.1 9.7 4.25 9.3 4.65 9.05 L5.05 8.9 5.5 8.9 5.5 8.9 5.9 9.15 6.1 9.4 6.35 9.7 6.35 9.7 6.45 9.55 6.15 8.1 5.85 7.3 5.85 7.3 5.8 7.0 Q5.05 5.7 5.75 4.7 5.95 4.5 6.1 4.3 L6.2 4.2 6.6 4.0 7.1 4.05 Q8.3 4.55 8.35 5.7 L8.75 5.0 8.85 4.8 Q9.35 4.0 9.8 3.2 L9.9 3.0 10.0 2.6 10.4 0.45 10.5 -0.05 10.5 -0.55 Q10.15 -4.25 7.65 -6.9 L7.45 -7.1 Q5.1 -9.6 1.75 -9.9 L0.85 -9.95 Q-2.25 -9.95 -4.7 -8.05 L-6.0 -6.9 Q-7.95 -4.8 -8.55 -2.0;M-8.8 0.5 L-8.8 0.5 -8.8 1.3 -8.3 3.95 -7.85 5.1 -7.1 5.75 -6.8 6.15 -6.8 6.15 Q-6.3 6.6 -5.85 7.0 -4.6 7.65 -4.05 8.75 L-3.8 9.3 -3.8 9.4 -3.75 9.9 -3.75 10.8 -3.75 11.6 -3.75 11.7 -3.75 13.0 -3.5 13.3 -3.3 13.55 -3.25 13.35 -3.15 12.85 -2.75 11.75 Q-2.55 11.7 -2.35 11.65 -1.35 11.9 -1.45 13.05 L-1.45 13.35 -1.65 14.25 -1.65 14.35 Q-1.85 14.9 -2.0 15.45 L-2.0 15.55 -2.15 15.75 -2.25 15.85 -2.5 16.1 -2.9 16.4 -3.1 16.55 -3.2 16.7 -3.3 16.9 Q-3.55 17.85 -3.8 18.75 -3.85 19.15 -3.85 19.55 L-3.85 19.75 -3.8 20.1 -3.65 20.5 Q-3.6 19.95 -3.25 19.7 L-2.05 19.65 -1.45 20.0 -1.35 20.05 -0.8 20.9 -0.7 21.3 -0.75 21.8 -0.75 21.8 -0.3 22.4 0.0 22.75 0.15 23.0 1.1 23.0 1.3 23.0 1.4 23.0 1.55 22.9 1.7 22.8 Q0.7 21.7 1.1 20.5 L1.35 20.05 1.4 19.95 1.55 19.9 Q2.8 19.75 3.6 20.55 L4.05 21.15 Q4.35 21.6 4.25 22.15 L4.25 22.15 4.65 21.75 4.95 21.5 5.2 21.3 5.15 20.4 Q5.05 18.95 5.25 17.55 L5.35 17.2 Q5.45 16.85 5.8 16.8 6.35 16.7 6.9 16.65 L7.1 16.6 7.1 16.05 7.1 16.05 6.8 15.5 6.7 15.2 6.6 14.8 6.6 14.8 6.4 14.6 5.5 13.3 5.2 12.35 5.2 12.25 5.15 11.95 Q5.0 10.3 6.9 10.6 7.25 10.65 7.55 10.85 L7.55 10.75 7.65 10.35 7.65 9.75 Q7.6 8.5 7.8 7.3 L7.95 6.4 8.0 6.2 Q8.35 5.25 9.3 4.7 L9.6 4.6 10.0 4.35 10.45 1.75 10.5 1.05 10.5 0.5 Q10.5 -3.8 7.65 -6.9 L7.65 -6.9 Q4.85 -9.95 0.85 -9.95 L-0.15 -9.9 Q-3.5 -9.55 -6.0 -6.9 L-7.2 -5.3 Q-8.8 -2.75 -8.8 0.5"/>
    </path>
    <path d="M-8.55 -2.0 Q-7.95 -4.8 -6.0 -6.9 L-4.7 -8.05 Q-2.25 -9.95 0.85 -9.95 L1.75 -9.9 Q5.1 -9.6 7.45 -7.1 L7.65 -6.9 Q10.15 -4.25 10.5 -0.55 L10.5 -0.05 10.4 0.45 10.0 2.6 9.9 3.0 9.8 3.2 Q9.35 4.0 8.85 4.8 L8.75 5.0 8.35 5.7 Q8.3 4.55 7.1 4.05 L6.6 4.0 6.2 4.2 6.1 4.3 Q5.95 4.5 5.75 4.7 5.05 5.7 5.8 7.0 L5.85 7.3 5.85 7.3 6.15 8.1 6.45 9.55 6.35 9.7 6.35 9.7 6.1 9.4 5.9 9.15 5.5 8.9 5.5 8.9 5.05 8.9 4.65 9.05 Q4.25 9.3 4.1 9.7 4.05 10.05 4.0 10.45 L4.0 10.55 Q4.2 11.7 4.95 12.7 L4.95 13.5 4.95 14.0 4.95 14.2 4.75 14.5 4.75 14.5 Q4.55 14.1 4.3 13.65 L3.85 13.0 Q3.15 12.05 2.15 12.4 L2.05 12.4 2.05 12.4 1.85 12.65 Q1.75 13.8 1.8 14.9 L1.8 15.2 1.8 15.5 1.8 15.5 1.6 15.3 1.0 14.65 0.85 14.45 0.55 14.1 0.55 13.6 0.55 13.5 0.55 12.95 0.75 12.75 1.05 12.4 1.05 12.3 1.2 11.75 1.35 10.5 Q1.35 10.15 1.3 9.8 L1.2 9.5 1.05 9.05 0.95 8.95 Q0.75 8.7 0.4 8.6 -0.75 8.4 -1.0 9.15 L-1.05 9.4 -1.05 9.6 -1.05 9.8 -1.3 10.1 -1.45 10.2 -1.5 10.15 -1.6 9.95 -1.6 9.85 Q-1.4 9.3 -1.45 8.65 L-1.45 8.45 -1.6 7.65 -1.7 7.45 Q-1.95 6.6 -2.55 6.25 -2.8 6.1 -3.1 6.05 L-4.2 6.1 -4.45 6.35 -4.5 6.65 -4.55 6.95 -4.6 7.35 -4.55 8.45 -4.6 8.5 -5.2 7.8 -5.65 7.05 -5.95 6.55 -5.95 6.55 -5.9 5.9 Q-5.7 4.55 -6.45 3.65 -6.75 3.3 -7.25 3.0 L-7.25 3.0 -7.5 2.5 -7.8 2.05 -8.45 1.0 -8.45 -1.4 -8.55 -1.9 -8.55 -2.0" fill="none" stroke="#000000" stroke-linecap="round" stroke-linejoin="round" stroke-opacity="0.0" stroke-width="1.0">
      <animate attributeName="stroke" dur="2s" repeatCount="indefinite" values="#000000;#000001"/>
      <animate attributeName="stroke-width" dur="2s" repeatCount="indefinite" values="0.0;0.0"/>
      <animate attributeName="fill-opacity" dur="2s" repeatCount="indefinite" values="0.0;0.0"/>
      <animate attributeName="d" dur="2s" repeatCount="indefinite" values="M-8.55 -2.0 Q-7.95 -4.8 -6.0 -6.9 L-4.7 -8.05 Q-2.25 -9.95 0.85 -9.95 L1.75 -9.9 Q5.1 -9.6 7.45 -7.1 L7.65 -6.9 Q10.15 -4.25 10.5 -0.55 L10.5 -0.05 10.4 0.45 10.0 2.6 9.9 3.0 9.8 3.2 Q9.35 4.0 8.85 4.8 L8.75 5.0 8.35 5.7 Q8.3 4.55 7.1 4.05 L6.6 4.0 6.2 4.2 6.1 4.3 Q5.95 4.5 5.75 4.7 5.05 5.7 5.8 7.0 L5.85 7.3 5.85 7.3 6.15 8.1 6.45 9.55 6.35 9.7 6.35 9.7 6.1 9.4 5.9 9.15 5.5 8.9 5.5 8.9 5.05 8.9 4.65 9.05 Q4.25 9.3 4.1 9.7 4.05 10.05 4.0 10.45 L4.0 10.55 Q4.2 11.7 4.95 12.7 L4.95 13.5 4.95 14.0 4.95 14.2 4.75 14.5 4.75 14.5 Q4.55 14.1 4.3 13.65 L3.85 13.0 Q3.15 12.05 2.15 12.4 L2.05 12.4 2.05 12.4 1.85 12.65 Q1.75 13.8 1.8 14.9 L1.8 15.2 1.8 15.5 1.8 15.5 1.6 15.3 1.0 14.65 0.85 14.45 0.55 14.1 0.55 13.6 0.55 13.5 0.55 12.95 0.75 12.75 1.05 12.4 1.05 12.3 1.2 11.75 1.35 10.5 Q1.35 10.15 1.3 9.8 L1.2 9.5 1.05 9.05 0.95 8.95 Q0.75 8.7 0.4 8.6 -0.75 8.4 -1.0 9.15 L-1.05 9.4 -1.05 9.6 -1.05 9.8 -1.3 10.1 -1.45 10.2 -1.5 10.15 -1.6 9.95 -1.6 9.85 Q-1.4 9.3 -1.45 8.65 L-1.45 8.45 -1.6 7.65 -1.7 7.45 Q-1.95 6.6 -2.55 6.25 -2.8 6.1 -3.1 6.05 L-4.2 6.1 -4.45 6.35 -4.5 6.65 -4.55 6.95 -4.6 7.35 -4.55 8.45 -4.6 8.5 -5.2 7.8 -5.65 7.05 -5.95 6.55 -5.95 6.55 -5.9 5.9 Q-5.7 4.55 -6.45 3.65 -6.75 3.3 -7.25 3.0 L-7.25 3.0 -7.5 2.5 -7.8 2.05 -8.45 1.0 -8.45 -1.4 -8.55 -1.9 -8.55 -2.0;M-8.8 0.5 Q-8.8 -2.75 -7.2 -5.3 L-6.0 -6.9 Q-3.5 -9.55 -0.15 -9.9 L0.85 -9.95 Q4.85 -9.95 7.65 -6.9 L7.65 -6.9 Q10.5 -3.8 10.5 0.5 L10.5 1.05 10.45 1.75 10.0 4.35 9.6 4.6 9.3 4.7 Q8.35 5.25 8.0 6.2 L7.95 6.4 7.8 7.3 Q7.6 8.5 7.65 9.75 L7.65 10.35 7.55 10.75 7.55 10.85 Q7.25 10.65 6.9 10.6 5.0 10.3 5.15 11.95 L5.2 12.25 5.2 12.35 5.5 13.3 6.4 14.6 6.6 14.8 6.6 14.8 6.7 15.2 6.8 15.5 7.1 16.05 7.1 16.05 7.1 16.6 6.9 16.65 Q6.35 16.7 5.8 16.8 5.45 16.85 5.35 17.2 L5.25 17.55 Q5.05 18.95 5.15 20.4 L5.2 21.3 4.95 21.5 4.65 21.75 4.25 22.15 4.25 22.15 Q4.35 21.6 4.05 21.15 L3.6 20.55 Q2.8 19.75 1.55 19.9 L1.4 19.95 1.35 20.05 1.1 20.5 Q0.7 21.7 1.7 22.8 L1.55 22.9 1.4 23.0 1.3 23.0 1.1 23.0 0.15 23.0 0.0 22.75 -0.3 22.4 -0.75 21.8 -0.75 21.8 -0.7 21.3 -0.8 20.9 -1.35 20.05 -1.45 20.0 -2.05 19.65 -3.25 19.7 Q-3.6 19.95 -3.65 20.5 L-3.8 20.1 -3.85 19.75 -3.85 19.55 Q-3.85 19.15 -3.8 18.75 -3.55 17.85 -3.3 16.9 L-3.2 16.7 -3.1 16.55 -2.9 16.4 -2.5 16.1 -2.25 15.85 -2.15 15.75 -2.0 15.55 -2.0 15.45 Q-1.85 14.9 -1.65 14.35 L-1.65 14.25 -1.45 13.35 -1.45 13.05 Q-1.35 11.9 -2.35 11.65 -2.55 11.7 -2.75 11.75 L-3.15 12.85 -3.25 13.35 -3.3 13.55 -3.5 13.3 -3.75 13.0 -3.75 11.7 -3.75 11.6 -3.75 10.8 -3.75 9.9 -3.8 9.4 -3.8 9.3 -4.05 8.75 Q-4.6 7.65 -5.85 7.0 -6.3 6.6 -6.8 6.15 L-6.8 6.15 -7.1 5.75 -7.85 5.1 -8.3 3.95 -8.8 1.3 -8.8 0.5 -8.8 0.5"/>
    </path>
  </g>
  <defs>
    <radialGradient cx="0" cy="0" gradientTransform="matrix(0.0246, 0.0, 0.0, 0.0246, 1.9, 10.15)" gradientUnits="userSpaceOnUse" id="gradient0" r="819.2" spreadMethod="pad">
      <animateTransform additive="replace" attributeName="gradientTransform" dur="2s" from="1" repeatCount="indefinite" to="1" type="scale"/>
      <animateTransform additive="sum" attributeName="gradientTransform" dur="2s" from="1.9 10.15" repeatCount="indefinite" to="1.9 10.15" type="translate"/>
      <animateTransform additive="sum" attributeName="gradientTransform" dur="2s" from="0.0" repeatCount="indefinite" to="0.0" type="rotate"/>
      <animateTransform additive="sum" attributeName="gradientTransform" dur="2s" from="0.0246 0.0246" repeatCount="indefinite" to="0.0246 0.0246" type="scale"/>
      <animateTransform additive="sum" attributeName="gradientTransform" dur="2s" from="0.0" repeatCount="indefinite" to="0.0" type="skewX"/>
      <stop offset="0.0" stop-color="#fefe0c" stop-opacity="0.9019608">
        <animate attributeName="offset" dur="2s" repeatCount="indefinite" values="0.0;0.0"/>
        <animate attributeName="stop-color" dur="2s" repeatCount="indefinite" values="#fefe0c;#fefe0d"/>
        <animate attributeName="stop-opacity" dur="2s" repeatCount="indefinite" values="0.9019608;0.9019608"/>
      </stop>
      <stop offset="0.5764705882352941" stop-color="#ffba2b" stop-opacity="0.9019608">
        <animate attributeName="offset" dur="2s" repeatCount="indefinite" values="0.5764705882352941;0.5764705882352941"/>
        <animate attributeName="stop-color" dur="2s" repeatCount="indefinite" values="#ffba2b;#ffba2c"/>
        <animate attributeName="stop-opacity" dur="2s" repeatCount="indefinite" values="0.9019608;0.9019608"/>
      </stop>
      <stop offset="1.0" stop-color="#ff720b" stop-opacity="0.9019608">
        <animate attributeName="offset" dur="2s" repeatCount="indefinite" values="1.0;1.0"/>
        <animate attributeName="stop-color" dur="2s" repeatCount="indefinite" values="#ff720b;#ff720c"/>
        <animate attributeName="stop-opacity" dur="2s" repeatCount="indefinite" values="0.9019608;0.9019608"/>
      </stop>
    </radialGradient>
  </defs>
</svg>
