<?xml version="1.0" encoding="UTF-8" standalone="no"?>
<svg xmlns:xlink="http://www.w3.org/1999/xlink" height="36.05px" width="39.8px" xmlns="http://www.w3.org/2000/svg">
  <g transform="matrix(1.0, 0.0, 0.0, 1.0, 19.5, 8.75)">
    <path d="M-19.5 0.0 L-19.5 0.1 Q-19.4 3.5 -14.2 5.95 L-13.7 6.15 -12.0 6.85 -11.8 6.95 -10.75 6.95 Q-9.4 7.1 -8.2 7.8 L-7.9 8.0 -7.7 8.1 Q-6.6 8.6 -6.05 9.4 L-5.7 9.95 -5.55 10.45 -5.5 11.05 -5.5 12.2 -5.15 12.0 -4.95 11.9 -4.6 11.65 -3.9 11.65 -3.9 11.65 -3.7 11.65 -3.45 11.75 -3.2 12.0 -3.1 12.2 -2.9 12.6 Q-2.55 13.2 -2.2 13.8 -2.05 14.0 -2.05 14.3 L-2.1 14.8 -2.1 15.1 Q-2.25 16.1 -2.35 17.1 L-2.45 17.5 -2.45 17.95 Q-0.95 17.35 -0.9 18.95 L-0.9 19.4 -0.8 19.9 -0.8 20.2 Q-0.8 20.8 -0.8 21.4 -1.05 22.25 -1.25 23.1 L-1.3 23.55 -1.3 23.65 Q-1.3 24.2 -1.3 24.75 L-1.3 24.95 -1.05 25.3 -0.4 26.25 0.25 27.0 0.7 27.0 0.8 27.0 0.6 26.6 Q0.15 25.6 0.25 24.35 L0.3 23.95 0.55 23.2 1.15 22.0 1.3 21.7 1.45 21.4 1.55 20.65 1.55 20.25 Q1.55 19.9 1.85 19.75 L1.95 19.7 2.05 19.7 Q3.15 19.5 3.85 20.4 L4.2 21.15 4.2 21.6 4.2 21.65 4.55 21.6 4.7 21.45 4.95 21.15 5.05 20.85 5.05 20.85 Q5.15 20.15 5.25 19.45 L5.2 18.7 5.15 18.6 4.95 18.2 Q4.35 16.85 5.1 15.5 5.3 15.15 5.5 14.85 L5.8 14.45 Q6.4 13.7 6.55 12.75 L6.55 12.45 6.8 12.15 Q7.75 11.9 8.2 12.9 L8.4 13.25 8.45 13.2 8.6 12.95 8.85 12.7 8.85 12.6 8.85 12.1 8.9 11.0 9.2 9.6 9.35 9.25 10.05 8.45 10.85 7.8 11.15 7.6 12.0 7.35 12.25 7.05 12.55 6.95 13.75 6.45 14.45 6.15 15.85 5.45 15.95 5.45 16.45 5.2 16.65 5.05 18.05 4.1 Q20.3 2.25 20.3 0.0 20.3 -1.6 19.1 -3.0 17.65 -4.75 14.45 -6.2 L11.9 -7.15 Q6.9 -8.75 0.4 -8.75 L-1.25 -8.7 Q-8.45 -8.5 -13.7 -6.2 L-14.3 -5.9 Q-19.5 -3.4 -19.5 0.0" fill="url(#gradient0)" fill-rule="evenodd" stroke="none">
      <animate attributeName="d" dur="2s" repeatCount="indefinite" values="M-19.5 0.0 L-19.5 0.1 Q-19.4 3.5 -14.2 5.95 L-13.7 6.15 -12.0 6.85 -11.8 6.95 -10.75 6.95 Q-9.4 7.1 -8.2 7.8 L-7.9 8.0 -7.7 8.1 Q-6.6 8.6 -6.05 9.4 L-5.7 9.95 -5.55 10.45 -5.5 11.05 -5.5 12.2 -5.15 12.0 -4.95 11.9 -4.6 11.65 -3.9 11.65 -3.9 11.65 -3.7 11.65 -3.45 11.75 -3.2 12.0 -3.1 12.2 -2.9 12.6 Q-2.55 13.2 -2.2 13.8 -2.05 14.0 -2.05 14.3 L-2.1 14.8 -2.1 15.1 Q-2.25 16.1 -2.35 17.1 L-2.45 17.5 -2.45 17.95 Q-0.95 17.35 -0.9 18.95 L-0.9 19.4 -0.8 19.9 -0.8 20.2 Q-0.8 20.8 -0.8 21.4 -1.05 22.25 -1.25 23.1 L-1.3 23.55 -1.3 23.65 Q-1.3 24.2 -1.3 24.75 L-1.3 24.95 -1.05 25.3 -0.4 26.25 0.25 27.0 0.7 27.0 0.8 27.0 0.6 26.6 Q0.15 25.6 0.25 24.35 L0.3 23.95 0.55 23.2 1.15 22.0 1.3 21.7 1.45 21.4 1.55 20.65 1.55 20.25 Q1.55 19.9 1.85 19.75 L1.95 19.7 2.05 19.7 Q3.15 19.5 3.85 20.4 L4.2 21.15 4.2 21.6 4.2 21.65 4.55 21.6 4.7 21.45 4.95 21.15 5.05 20.85 5.05 20.85 Q5.15 20.15 5.25 19.45 L5.2 18.7 5.15 18.6 4.95 18.2 Q4.35 16.85 5.1 15.5 5.3 15.15 5.5 14.85 L5.8 14.45 Q6.4 13.7 6.55 12.75 L6.55 12.45 6.8 12.15 Q7.75 11.9 8.2 12.9 L8.4 13.25 8.45 13.2 8.6 12.95 8.85 12.7 8.85 12.6 8.85 12.1 8.9 11.0 9.2 9.6 9.35 9.25 10.05 8.45 10.85 7.8 11.15 7.6 12.0 7.35 12.25 7.05 12.55 6.95 13.75 6.45 14.45 6.15 15.85 5.45 15.95 5.45 16.45 5.2 16.65 5.05 18.05 4.1 Q20.3 2.25 20.3 0.0 20.3 -1.6 19.1 -3.0 17.65 -4.75 14.45 -6.2 L11.9 -7.15 Q6.9 -8.75 0.4 -8.75 L-1.25 -8.7 Q-8.45 -8.5 -13.7 -6.2 L-14.3 -5.9 Q-19.5 -3.4 -19.5 0.0;M-19.5 0.0 L-19.5 0.0 Q-19.5 3.6 -13.7 6.15 L-13.05 6.4 -11.25 7.1 -11.05 7.3 -10.1 8.2 Q-8.95 8.55 -8.25 9.8 L-7.8 10.4 -7.7 10.6 Q-6.9 11.55 -6.6 12.7 L-6.45 13.45 -6.45 14.25 -6.5 14.85 -6.7 16.05 -6.85 16.55 -6.95 16.8 -7.0 17.3 -7.0 18.05 -6.95 18.05 -6.85 18.05 -6.8 18.05 -6.6 17.85 -6.55 17.85 -6.3 17.7 Q-6.2 16.75 -5.6 16.6 -5.3 16.6 -5.0 16.6 L-4.65 16.75 -4.4 17.05 Q-4.15 18.25 -5.1 19.0 L-5.1 19.45 -5.0 19.95 Q-5.0 21.25 -5.0 22.55 L-5.0 23.05 -4.8 23.75 -4.7 23.95 Q-4.2 24.6 -4.3 25.45 -3.7 24.7 -3.65 23.75 L-3.7 23.15 -3.7 23.05 Q-3.75 22.4 -3.4 21.8 L-3.2 21.6 -3.1 21.35 -2.1 20.5 -0.7 20.4 -0.4 20.65 -0.3 20.8 -0.2 21.25 Q-0.15 22.5 -1.0 23.4 L-1.3 23.7 -1.25 24.6 -0.9 25.85 -0.8 26.1 -0.75 26.5 -0.75 27.3 -0.3 26.9 Q-0.1 26.5 0.1 26.15 L0.2 26.05 0.2 25.95 Q0.3 24.6 1.5 24.55 L2.3 24.65 2.8 24.85 2.8 24.85 3.25 25.3 3.55 25.7 4.0 26.05 4.45 26.25 4.45 26.25 Q4.6 25.5 4.35 24.85 L3.95 24.1 3.85 23.9 3.65 23.6 Q3.05 22.1 4.05 20.95 4.2 20.75 4.5 20.7 L4.9 20.75 Q6.1 20.9 6.45 21.95 L6.55 21.75 6.7 21.05 Q6.95 20.15 7.2 19.25 L7.3 18.85 7.3 18.75 7.45 18.15 7.55 17.55 7.55 17.45 7.65 16.95 7.6 15.75 7.7 14.35 7.75 13.75 7.85 12.55 8.1 11.4 8.3 10.9 8.5 10.5 8.85 9.9 9.05 9.6 9.8 8.75 10.4 8.2 11.8 7.45 11.9 7.45 12.25 7.05 12.55 6.95 14.45 6.15 Q17.35 4.9 18.8 3.35 20.3 1.8 20.3 0.0 20.3 -2.7 17.05 -4.8 L14.45 -6.2 Q9.3 -8.45 2.25 -8.7 L0.4 -8.75 Q-7.4 -8.75 -13.05 -6.5 L-13.7 -6.2 Q-19.5 -3.6 -19.5 0.0"/>
    </path>
    <path d="M-19.5 0.0 Q-19.5 -3.4 -14.3 -5.9 L-13.7 -6.2 Q-8.45 -8.5 -1.25 -8.7 L0.4 -8.75 Q6.9 -8.75 11.9 -7.15 L14.45 -6.2 Q17.65 -4.75 19.1 -3.0 20.3 -1.6 20.3 0.0 20.3 2.25 18.05 4.1 L16.65 5.05 16.45 5.2 15.95 5.45 15.85 5.45 14.45 6.15 13.75 6.45 12.55 6.95 12.25 7.05 12.0 7.35 11.15 7.6 10.85 7.8 10.05 8.45 9.35 9.25 9.2 9.6 8.9 11.0 8.85 12.1 8.85 12.6 8.85 12.7 8.6 12.95 8.45 13.2 8.4 13.25 8.2 12.9 Q7.75 11.9 6.8 12.15 L6.55 12.45 6.55 12.75 Q6.4 13.7 5.8 14.45 L5.5 14.85 Q5.3 15.15 5.1 15.5 4.35 16.85 4.95 18.2 L5.15 18.6 5.2 18.7 5.25 19.45 Q5.15 20.15 5.05 20.85 L5.05 20.85 4.95 21.15 4.7 21.45 4.55 21.6 4.2 21.65 4.2 21.6 4.2 21.15 3.85 20.4 Q3.15 19.5 2.05 19.7 L1.95 19.7 1.85 19.75 Q1.55 19.9 1.55 20.25 L1.55 20.65 1.45 21.4 1.3 21.7 1.15 22.0 0.55 23.2 0.3 23.95 0.25 24.35 Q0.15 25.6 0.6 26.6 L0.8 27.0 0.7 27.0 0.25 27.0 -0.4 26.25 -1.05 25.3 -1.3 24.95 -1.3 24.75 Q-1.3 24.2 -1.3 23.65 L-1.3 23.55 -1.25 23.1 Q-1.05 22.25 -0.8 21.4 -0.8 20.8 -0.8 20.2 L-0.8 19.9 -0.9 19.4 -0.9 18.95 Q-0.95 17.35 -2.45 17.95 L-2.45 17.5 -2.35 17.1 Q-2.25 16.1 -2.1 15.1 L-2.1 14.8 -2.05 14.3 Q-2.05 14.0 -2.2 13.8 -2.55 13.2 -2.9 12.6 L-3.1 12.2 -3.2 12.0 -3.45 11.75 -3.7 11.65 -3.9 11.65 -3.9 11.65 -4.6 11.65 -4.95 11.9 -5.15 12.0 -5.5 12.2 -5.5 11.05 -5.55 10.45 -5.7 9.95 -6.05 9.4 Q-6.6 8.6 -7.7 8.1 L-7.9 8.0 -8.2 7.8 Q-9.4 7.1 -10.75 6.95 L-11.8 6.95 -12.0 6.85 -13.7 6.15 -14.2 5.95 Q-19.4 3.5 -19.5 0.1 L-19.5 0.0" fill="none" stroke="#000000" stroke-linecap="round" stroke-linejoin="round" stroke-opacity="0.0" stroke-width="1.0">
      <animate attributeName="stroke" dur="2s" repeatCount="indefinite" values="#000000;#000001"/>
      <animate attributeName="stroke-width" dur="2s" repeatCount="indefinite" values="0.0;0.0"/>
      <animate attributeName="fill-opacity" dur="2s" repeatCount="indefinite" values="0.0;0.0"/>
      <animate attributeName="d" dur="2s" repeatCount="indefinite" values="M-19.5 0.0 Q-19.5 -3.4 -14.3 -5.9 L-13.7 -6.2 Q-8.45 -8.5 -1.25 -8.7 L0.4 -8.75 Q6.9 -8.75 11.9 -7.15 L14.45 -6.2 Q17.65 -4.75 19.1 -3.0 20.3 -1.6 20.3 0.0 20.3 2.25 18.05 4.1 L16.65 5.05 16.45 5.2 15.95 5.45 15.85 5.45 14.45 6.15 13.75 6.45 12.55 6.95 12.25 7.05 12.0 7.35 11.15 7.6 10.85 7.8 10.05 8.45 9.35 9.25 9.2 9.6 8.9 11.0 8.85 12.1 8.85 12.6 8.85 12.7 8.6 12.95 8.45 13.2 8.4 13.25 8.2 12.9 Q7.75 11.9 6.8 12.15 L6.55 12.45 6.55 12.75 Q6.4 13.7 5.8 14.45 L5.5 14.85 Q5.3 15.15 5.1 15.5 4.35 16.85 4.95 18.2 L5.15 18.6 5.2 18.7 5.25 19.45 Q5.15 20.15 5.05 20.85 L5.05 20.85 4.95 21.15 4.7 21.45 4.55 21.6 4.2 21.65 4.2 21.6 4.2 21.15 3.85 20.4 Q3.15 19.5 2.05 19.7 L1.95 19.7 1.85 19.75 Q1.55 19.9 1.55 20.25 L1.55 20.65 1.45 21.4 1.3 21.7 1.15 22.0 0.55 23.2 0.3 23.95 0.25 24.35 Q0.15 25.6 0.6 26.6 L0.8 27.0 0.7 27.0 0.25 27.0 -0.4 26.25 -1.05 25.3 -1.3 24.95 -1.3 24.75 Q-1.3 24.2 -1.3 23.65 L-1.3 23.55 -1.25 23.1 Q-1.05 22.25 -0.8 21.4 -0.8 20.8 -0.8 20.2 L-0.8 19.9 -0.9 19.4 -0.9 18.95 Q-0.95 17.35 -2.45 17.95 L-2.45 17.5 -2.35 17.1 Q-2.25 16.1 -2.1 15.1 L-2.1 14.8 -2.05 14.3 Q-2.05 14.0 -2.2 13.8 -2.55 13.2 -2.9 12.6 L-3.1 12.2 -3.2 12.0 -3.45 11.75 -3.7 11.65 -3.9 11.65 -3.9 11.65 -4.6 11.65 -4.95 11.9 -5.15 12.0 -5.5 12.2 -5.5 11.05 -5.55 10.45 -5.7 9.95 -6.05 9.4 Q-6.6 8.6 -7.7 8.1 L-7.9 8.0 -8.2 7.8 Q-9.4 7.1 -10.75 6.95 L-11.8 6.95 -12.0 6.85 -13.7 6.15 -14.2 5.95 Q-19.4 3.5 -19.5 0.1 L-19.5 0.0;M-19.5 0.0 Q-19.5 -3.6 -13.7 -6.2 L-13.05 -6.5 Q-7.4 -8.75 0.4 -8.75 L2.25 -8.7 Q9.3 -8.45 14.45 -6.2 L17.05 -4.8 Q20.3 -2.7 20.3 0.0 20.3 1.8 18.8 3.35 17.35 4.9 14.45 6.15 L12.55 6.95 12.25 7.05 11.9 7.45 11.8 7.45 10.4 8.2 9.8 8.75 9.05 9.6 8.85 9.9 8.5 10.5 8.3 10.9 8.1 11.4 7.85 12.55 7.75 13.75 7.7 14.35 7.6 15.75 7.65 16.95 7.55 17.45 7.55 17.55 7.45 18.15 7.3 18.75 7.3 18.85 7.2 19.25 Q6.95 20.15 6.7 21.05 L6.55 21.75 6.45 21.95 Q6.1 20.9 4.9 20.75 L4.5 20.7 Q4.2 20.75 4.05 20.95 3.05 22.1 3.65 23.6 L3.85 23.9 3.95 24.1 4.35 24.85 Q4.6 25.5 4.45 26.25 L4.45 26.25 4.0 26.05 3.55 25.7 3.25 25.3 2.8 24.85 2.8 24.85 2.3 24.65 1.5 24.55 Q0.3 24.6 0.2 25.95 L0.2 26.05 0.1 26.15 Q-0.1 26.5 -0.3 26.9 L-0.75 27.3 -0.75 26.5 -0.8 26.1 -0.9 25.85 -1.25 24.6 -1.3 23.7 -1.0 23.4 Q-0.15 22.5 -0.2 21.25 L-0.3 20.8 -0.4 20.65 -0.7 20.4 -2.1 20.5 -3.1 21.35 -3.2 21.6 -3.4 21.8 Q-3.75 22.4 -3.7 23.05 L-3.7 23.15 -3.65 23.75 Q-3.7 24.7 -4.3 25.45 -4.2 24.6 -4.7 23.95 L-4.8 23.75 -5.0 23.05 -5.0 22.55 Q-5.0 21.25 -5.0 19.95 L-5.1 19.45 -5.1 19.0 Q-4.15 18.25 -4.4 17.05 L-4.65 16.75 -5.0 16.6 Q-5.3 16.6 -5.6 16.6 -6.2 16.75 -6.3 17.7 L-6.55 17.85 -6.6 17.85 -6.8 18.05 -6.85 18.05 -6.95 18.05 -7.0 18.05 -7.0 17.3 -6.95 16.8 -6.85 16.55 -6.7 16.05 -6.5 14.85 -6.45 14.25 -6.45 13.45 -6.6 12.7 Q-6.9 11.55 -7.7 10.6 L-7.8 10.4 -8.25 9.8 Q-8.95 8.55 -10.1 8.2 L-11.05 7.3 -11.25 7.1 -13.05 6.4 -13.7 6.15 Q-19.5 3.6 -19.5 0.0 L-19.5 0.0"/>
    </path>
  </g>
  <defs>
    <radialGradient cx="0" cy="0" gradientTransform="matrix(0.0351, 0.0, 0.0, 0.0351, 1.0, -0.75)" gradientUnits="userSpaceOnUse" id="gradient0" r="819.2" spreadMethod="pad">
      <animateTransform additive="replace" attributeName="gradientTransform" dur="2s" from="1" repeatCount="indefinite" to="1" type="scale"/>
      <animateTransform additive="sum" attributeName="gradientTransform" dur="2s" from="1.0 -0.75" repeatCount="indefinite" to="1.0 -0.75" type="translate"/>
      <animateTransform additive="sum" attributeName="gradientTransform" dur="2s" from="0.0" repeatCount="indefinite" to="0.0" type="rotate"/>
      <animateTransform additive="sum" attributeName="gradientTransform" dur="2s" from="0.0351 0.0351" repeatCount="indefinite" to="0.0351 0.0351" type="scale"/>
      <animateTransform additive="sum" attributeName="gradientTransform" dur="2s" from="0.0" repeatCount="indefinite" to="0.0" type="skewX"/>
      <stop offset="0.0" stop-color="#fefe0c" stop-opacity="0.9019608">
        <animate attributeName="offset" dur="2s" repeatCount="indefinite" values="0.0;0.0"/>
        <animate attributeName="stop-color" dur="2s" repeatCount="indefinite" values="#fefe0c;#fefe0d"/>
        <animate attributeName="stop-opacity" dur="2s" repeatCount="indefinite" values="0.9019608;0.9019608"/>
      </stop>
      <stop offset="0.5764705882352941" stop-color="#ffba2b" stop-opacity="0.9019608">
        <animate attributeName="offset" dur="2s" repeatCount="indefinite" values="0.5764705882352941;0.5764705882352941"/>
        <animate attributeName="stop-color" dur="2s" repeatCount="indefinite" values="#ffba2b;#ffba2c"/>
        <animate attributeName="stop-opacity" dur="2s" repeatCount="indefinite" values="0.9019608;0.9019608"/>
      </stop>
      <stop offset="1.0" stop-color="#ff720b" stop-opacity="0.9019608">
        <animate attributeName="offset" dur="2s" repeatCount="indefinite" values="1.0;1.0"/>
        <animate attributeName="stop-color" dur="2s" repeatCount="indefinite" values="#ff720b;#ff720c"/>
        <animate attributeName="stop-opacity" dur="2s" repeatCount="indefinite" values="0.9019608;0.9019608"/>
      </stop>
    </radialGradient>
  </defs>
</svg>
