<?xml version="1.0" encoding="UTF-8" standalone="no"?>
<svg xmlns:xlink="http://www.w3.org/1999/xlink" height="32.95px" width="19.3px" xmlns="http://www.w3.org/2000/svg">
  <g transform="matrix(1.0, 0.0, 0.0, 1.0, 8.8, 9.95)">
    <path d="M-8.8 0.5 L-8.8 0.8 Q-8.75 3.1 -7.85 5.1 -7.25 5.45 -6.8 6.15 L-6.05 6.9 -5.85 7.0 -5.85 7.0 Q-4.5 7.7 -3.95 8.95 L-3.8 9.3 -3.75 9.7 -3.75 9.9 Q-3.75 11.45 -3.75 13.0 L-3.6 13.2 -3.5 13.3 -3.3 13.55 -3.3 13.55 -3.1 12.6 -3.1 12.5 -2.75 11.75 -2.35 11.65 Q-1.4 11.9 -1.45 12.95 L-1.45 13.05 -1.55 13.55 -1.65 14.35 Q-1.75 15.35 -2.4 16.0 -2.75 16.3 -3.1 16.55 L-3.1 16.55 -3.2 16.7 -3.3 16.9 -3.3 16.9 -3.55 17.7 -3.65 17.95 -3.8 18.75 Q-3.85 19.15 -3.85 19.55 L-3.85 19.55 -3.8 19.75 -3.8 19.9 -3.8 20.1 -3.8 20.2 -3.65 20.5 Q-3.5 20.15 -3.35 19.85 -3.2 19.65 -2.95 19.6 L-2.05 19.65 Q-1.65 19.8 -1.35 20.05 L-0.85 20.7 Q-0.65 21.2 -0.75 21.8 L-0.1 22.55 0.0 22.75 0.15 23.0 1.4 23.0 1.4 23.0 1.55 22.9 1.7 22.8 1.6 22.7 1.5 22.6 1.05 21.7 Q0.85 20.9 1.35 20.05 1.4 19.9 1.55 19.9 L2.5 19.95 Q3.2 20.15 3.7 20.7 L4.05 21.15 Q4.35 21.6 4.25 22.15 L4.45 22.05 4.65 21.85 4.95 21.5 5.2 21.3 Q5.15 20.5 5.15 19.7 L5.15 19.0 Q5.25 18.1 5.35 17.2 5.45 16.85 5.8 16.8 L6.0 16.8 6.3 16.75 7.1 16.6 7.1 16.05 7.1 16.05 6.9 15.7 6.7 15.2 6.6 14.8 Q5.45 13.7 5.2 12.25 5.0 11.25 5.5 10.85 5.9 10.5 6.8 10.6 L6.9 10.6 Q7.25 10.65 7.55 10.85 L7.55 10.85 7.65 10.35 Q7.5 8.4 7.95 6.5 L7.95 6.4 Q8.25 5.3 9.3 4.7 L10.0 4.35 10.4 2.05 10.5 0.5 Q10.5 -3.25 8.4 -6.0 L7.65 -6.9 Q5.15 -9.65 1.65 -9.9 L0.85 -9.95 Q-2.95 -9.95 -5.7 -7.2 L-6.0 -6.9 Q-8.8 -3.85 -8.8 0.5" fill="url(#gradient0)" fill-rule="evenodd" stroke="none">
      <animate attributeName="d" dur="2s" repeatCount="indefinite" values="M-8.8 0.5 L-8.8 0.8 Q-8.75 3.1 -7.85 5.1 -7.25 5.45 -6.8 6.15 L-6.05 6.9 -5.85 7.0 -5.85 7.0 Q-4.5 7.7 -3.95 8.95 L-3.8 9.3 -3.75 9.7 -3.75 9.9 Q-3.75 11.45 -3.75 13.0 L-3.6 13.2 -3.5 13.3 -3.3 13.55 -3.3 13.55 -3.1 12.6 -3.1 12.5 -2.75 11.75 -2.35 11.65 Q-1.4 11.9 -1.45 12.95 L-1.45 13.05 -1.55 13.55 -1.65 14.35 Q-1.75 15.35 -2.4 16.0 -2.75 16.3 -3.1 16.55 L-3.1 16.55 -3.2 16.7 -3.3 16.9 -3.3 16.9 -3.55 17.7 -3.65 17.95 -3.8 18.75 Q-3.85 19.15 -3.85 19.55 L-3.85 19.55 -3.8 19.75 -3.8 19.9 -3.8 20.1 -3.8 20.2 -3.65 20.5 Q-3.5 20.15 -3.35 19.85 -3.2 19.65 -2.95 19.6 L-2.05 19.65 Q-1.65 19.8 -1.35 20.05 L-0.85 20.7 Q-0.65 21.2 -0.75 21.8 L-0.1 22.55 0.0 22.75 0.15 23.0 1.4 23.0 1.4 23.0 1.55 22.9 1.7 22.8 1.6 22.7 1.5 22.6 1.05 21.7 Q0.85 20.9 1.35 20.05 1.4 19.9 1.55 19.9 L2.5 19.95 Q3.2 20.15 3.7 20.7 L4.05 21.15 Q4.35 21.6 4.25 22.15 L4.45 22.05 4.65 21.85 4.95 21.5 5.2 21.3 Q5.15 20.5 5.15 19.7 L5.15 19.0 Q5.25 18.1 5.35 17.2 5.45 16.85 5.8 16.8 L6.0 16.8 6.3 16.75 7.1 16.6 7.1 16.05 7.1 16.05 6.9 15.7 6.7 15.2 6.6 14.8 Q5.45 13.7 5.2 12.25 5.0 11.25 5.5 10.85 5.9 10.5 6.8 10.6 L6.9 10.6 Q7.25 10.65 7.55 10.85 L7.55 10.85 7.65 10.35 Q7.5 8.4 7.95 6.5 L7.95 6.4 Q8.25 5.3 9.3 4.7 L10.0 4.35 10.4 2.05 10.5 0.5 Q10.5 -3.25 8.4 -6.0 L7.65 -6.9 Q5.15 -9.65 1.65 -9.9 L0.85 -9.95 Q-2.95 -9.95 -5.7 -7.2 L-6.0 -6.9 Q-8.8 -3.85 -8.8 0.5;M-8.8 0.5 L-8.8 0.5 Q-8.8 2.8 -8.05 4.7 -7.8 5.2 -7.6 5.65 L-7.2 6.35 -7.05 6.45 -6.95 6.55 Q-5.9 7.3 -4.9 8.05 L-4.45 8.35 -4.1 8.7 -4.0 8.9 Q-2.9 10.05 -2.4 11.5 L-2.3 11.7 -2.25 11.85 -2.25 12.1 -2.3 12.2 -2.3 13.0 -2.3 13.1 -1.6 12.6 -1.1 12.5 Q-0.4 12.45 0.35 13.05 L0.45 13.15 0.6 13.5 0.6 14.25 Q0.55 15.15 0.1 15.95 -0.25 16.5 -0.9 16.6 L-1.0 16.6 -1.1 16.7 -1.3 16.8 -1.3 16.85 -1.95 17.3 -2.15 17.5 -2.4 18.15 Q-2.45 18.6 -2.8 18.95 L-2.8 19.05 -2.8 19.15 -2.75 19.35 -2.5 19.35 -2.5 19.35 -2.2 19.05 Q-1.9 18.85 -1.6 18.8 -1.45 18.7 -1.3 18.6 L-0.3 18.55 Q0.0 18.6 0.3 18.6 L0.8 18.7 Q1.5 18.9 1.7 19.45 L1.75 20.15 1.75 20.35 1.75 20.55 1.7 21.75 1.7 21.8 2.0 22.1 2.3 22.4 2.6 22.65 2.65 22.7 3.45 22.65 Q2.7 22.0 2.7 21.3 2.75 21.15 2.75 21.0 L3.2 20.1 Q3.65 19.5 4.5 19.7 L5.4 20.1 Q5.75 20.45 6.05 20.75 L6.05 20.8 6.15 20.6 6.15 20.3 6.15 19.75 Q6.1 19.0 5.6 18.4 L5.05 17.75 Q4.2 16.9 4.55 16.15 4.8 15.85 5.0 15.55 L5.0 15.55 5.3 15.35 6.25 15.25 6.75 15.4 6.75 15.4 7.05 15.55 6.95 15.25 6.8 14.85 Q6.45 13.5 6.4 12.0 6.4 11.2 6.4 10.45 6.5 9.7 6.6 9.0 L6.6 8.9 Q6.7 8.75 6.75 8.6 L6.85 8.4 7.05 8.1 Q8.1 6.5 9.6 5.5 L9.65 5.4 Q9.95 4.4 10.25 3.4 L10.35 2.65 10.5 0.5 10.4 -1.0 Q10.0 -4.4 7.65 -6.9 L6.95 -7.65 Q4.35 -9.95 0.85 -9.95 L0.15 -9.9 Q-3.4 -9.65 -6.0 -6.9 L-6.25 -6.6 Q-8.8 -3.65 -8.8 0.5"/>
    </path>
    <path d="M-8.8 0.5 Q-8.8 -3.85 -6.0 -6.9 L-5.7 -7.2 Q-2.95 -9.95 0.85 -9.95 L1.65 -9.9 Q5.15 -9.65 7.65 -6.9 L8.4 -6.0 Q10.5 -3.25 10.5 0.5 L10.4 2.05 10.0 4.35 9.3 4.7 Q8.25 5.3 7.95 6.4 L7.95 6.5 Q7.5 8.4 7.65 10.35 L7.55 10.85 7.55 10.85 Q7.25 10.65 6.9 10.6 L6.8 10.6 Q5.9 10.5 5.5 10.85 5.0 11.25 5.2 12.25 5.45 13.7 6.6 14.8 L6.7 15.2 6.9 15.7 7.1 16.05 7.1 16.05 7.1 16.6 6.3 16.75 6.0 16.8 5.8 16.8 Q5.45 16.85 5.35 17.2 5.25 18.1 5.15 19.0 L5.15 19.7 Q5.15 20.5 5.2 21.3 L4.95 21.5 4.65 21.85 4.45 22.05 4.25 22.15 Q4.35 21.6 4.05 21.15 L3.7 20.7 Q3.2 20.15 2.5 19.95 L1.55 19.9 Q1.4 19.9 1.35 20.05 0.85 20.9 1.05 21.7 L1.5 22.6 1.6 22.7 1.7 22.8 1.55 22.9 1.4 23.0 1.4 23.0 0.15 23.0 0.0 22.75 -0.1 22.55 -0.75 21.8 Q-0.65 21.2 -0.85 20.7 L-1.35 20.05 Q-1.65 19.8 -2.05 19.65 L-2.95 19.6 Q-3.2 19.65 -3.35 19.85 -3.5 20.15 -3.65 20.5 L-3.8 20.2 -3.8 20.1 -3.8 19.9 -3.8 19.75 -3.85 19.55 -3.85 19.55 Q-3.85 19.15 -3.8 18.75 L-3.65 17.95 -3.55 17.7 -3.3 16.9 -3.3 16.9 -3.2 16.7 -3.1 16.55 -3.1 16.55 Q-2.75 16.3 -2.4 16.0 -1.75 15.35 -1.65 14.35 L-1.55 13.55 -1.45 13.05 -1.45 12.95 Q-1.4 11.9 -2.35 11.65 L-2.75 11.75 -3.1 12.5 -3.1 12.6 -3.3 13.55 -3.3 13.55 -3.5 13.3 -3.6 13.2 -3.75 13.0 Q-3.75 11.45 -3.75 9.9 L-3.75 9.7 -3.8 9.3 -3.95 8.95 Q-4.5 7.7 -5.85 7.0 L-5.85 7.0 -6.05 6.9 -6.8 6.15 Q-7.25 5.45 -7.85 5.1 -8.75 3.1 -8.8 0.8 L-8.8 0.5" fill="none" stroke="#000000" stroke-linecap="round" stroke-linejoin="round" stroke-opacity="0.0" stroke-width="1.0">
      <animate attributeName="stroke" dur="2s" repeatCount="indefinite" values="#000000;#000001"/>
      <animate attributeName="stroke-width" dur="2s" repeatCount="indefinite" values="0.0;0.0"/>
      <animate attributeName="fill-opacity" dur="2s" repeatCount="indefinite" values="0.0;0.0"/>
      <animate attributeName="d" dur="2s" repeatCount="indefinite" values="M-8.8 0.5 Q-8.8 -3.85 -6.0 -6.9 L-5.7 -7.2 Q-2.95 -9.95 0.85 -9.95 L1.65 -9.9 Q5.15 -9.65 7.65 -6.9 L8.4 -6.0 Q10.5 -3.25 10.5 0.5 L10.4 2.05 10.0 4.35 9.3 4.7 Q8.25 5.3 7.95 6.4 L7.95 6.5 Q7.5 8.4 7.65 10.35 L7.55 10.85 7.55 10.85 Q7.25 10.65 6.9 10.6 L6.8 10.6 Q5.9 10.5 5.5 10.85 5.0 11.25 5.2 12.25 5.45 13.7 6.6 14.8 L6.7 15.2 6.9 15.7 7.1 16.05 7.1 16.05 7.1 16.6 6.3 16.75 6.0 16.8 5.8 16.8 Q5.45 16.85 5.35 17.2 5.25 18.1 5.15 19.0 L5.15 19.7 Q5.15 20.5 5.2 21.3 L4.95 21.5 4.65 21.85 4.45 22.05 4.25 22.15 Q4.35 21.6 4.05 21.15 L3.7 20.7 Q3.2 20.15 2.5 19.95 L1.55 19.9 Q1.4 19.9 1.35 20.05 0.85 20.9 1.05 21.7 L1.5 22.6 1.6 22.7 1.7 22.8 1.55 22.9 1.4 23.0 1.4 23.0 0.15 23.0 0.0 22.75 -0.1 22.55 -0.75 21.8 Q-0.65 21.2 -0.85 20.7 L-1.35 20.05 Q-1.65 19.8 -2.05 19.65 L-2.95 19.6 Q-3.2 19.65 -3.35 19.85 -3.5 20.15 -3.65 20.5 L-3.8 20.2 -3.8 20.1 -3.8 19.9 -3.8 19.75 -3.85 19.55 -3.85 19.55 Q-3.85 19.15 -3.8 18.75 L-3.65 17.95 -3.55 17.7 -3.3 16.9 -3.3 16.9 -3.2 16.7 -3.1 16.55 -3.1 16.55 Q-2.75 16.3 -2.4 16.0 -1.75 15.35 -1.65 14.35 L-1.55 13.55 -1.45 13.05 -1.45 12.95 Q-1.4 11.9 -2.35 11.65 L-2.75 11.75 -3.1 12.5 -3.1 12.6 -3.3 13.55 -3.3 13.55 -3.5 13.3 -3.6 13.2 -3.75 13.0 Q-3.75 11.45 -3.75 9.9 L-3.75 9.7 -3.8 9.3 -3.95 8.95 Q-4.5 7.7 -5.85 7.0 L-5.85 7.0 -6.05 6.9 -6.8 6.15 Q-7.25 5.45 -7.85 5.1 -8.75 3.1 -8.8 0.8 L-8.8 0.5;M-8.8 0.5 Q-8.8 -3.65 -6.25 -6.6 L-6.0 -6.9 Q-3.4 -9.65 0.15 -9.9 L0.85 -9.95 Q4.35 -9.95 6.95 -7.65 L7.65 -6.9 Q10.0 -4.4 10.4 -1.0 L10.5 0.5 10.35 2.65 10.25 3.4 Q9.95 4.4 9.65 5.4 L9.6 5.5 Q8.1 6.5 7.05 8.1 L6.85 8.4 6.75 8.6 Q6.7 8.75 6.6 8.9 L6.6 9.0 Q6.5 9.7 6.4 10.45 6.4 11.2 6.4 12.0 6.45 13.5 6.8 14.85 L6.95 15.25 7.05 15.55 6.75 15.4 6.75 15.4 6.25 15.25 5.3 15.35 5.0 15.55 5.0 15.55 Q4.8 15.85 4.55 16.15 4.2 16.9 5.05 17.75 L5.6 18.4 Q6.1 19.0 6.15 19.75 L6.15 20.3 6.15 20.6 6.05 20.8 6.05 20.75 Q5.75 20.45 5.4 20.1 L4.5 19.7 Q3.65 19.5 3.2 20.1 L2.75 21.0 Q2.75 21.15 2.7 21.3 2.7 22.0 3.45 22.65 L2.65 22.7 2.6 22.65 2.3 22.4 2.0 22.1 1.7 21.8 1.7 21.75 1.75 20.55 1.75 20.35 1.75 20.15 1.7 19.45 Q1.5 18.9 0.8 18.7 L0.3 18.6 Q0.0 18.6 -0.3 18.55 L-1.3 18.6 Q-1.45 18.7 -1.6 18.8 -1.9 18.85 -2.2 19.05 L-2.5 19.35 -2.5 19.35 -2.75 19.35 -2.8 19.15 -2.8 19.05 -2.8 18.95 Q-2.45 18.6 -2.4 18.15 L-2.15 17.5 -1.95 17.3 -1.3 16.85 -1.3 16.8 -1.1 16.7 -1.0 16.6 -0.9 16.6 Q-0.25 16.5 0.1 15.95 0.55 15.15 0.6 14.25 L0.6 13.5 0.45 13.15 0.35 13.05 Q-0.4 12.45 -1.1 12.5 L-1.6 12.6 -2.3 13.1 -2.3 13.0 -2.3 12.2 -2.25 12.1 -2.25 11.85 -2.3 11.7 -2.4 11.5 Q-2.9 10.05 -4.0 8.9 L-4.1 8.7 -4.45 8.35 -4.9 8.05 Q-5.9 7.3 -6.95 6.55 L-7.05 6.45 -7.2 6.35 -7.6 5.65 Q-7.8 5.2 -8.05 4.7 -8.8 2.8 -8.8 0.5 L-8.8 0.5"/>
    </path>
  </g>
  <defs>
    <radialGradient cx="0" cy="0" gradientTransform="matrix(0.0246, 0.0, 0.0, 0.0246, 1.9, 10.15)" gradientUnits="userSpaceOnUse" id="gradient0" r="819.2" spreadMethod="pad">
      <animateTransform additive="replace" attributeName="gradientTransform" dur="2s" from="1" repeatCount="indefinite" to="1" type="scale"/>
      <animateTransform additive="sum" attributeName="gradientTransform" dur="2s" from="1.9 10.15" repeatCount="indefinite" to="1.9 10.15" type="translate"/>
      <animateTransform additive="sum" attributeName="gradientTransform" dur="2s" from="0.0" repeatCount="indefinite" to="0.0" type="rotate"/>
      <animateTransform additive="sum" attributeName="gradientTransform" dur="2s" from="0.0246 0.0246" repeatCount="indefinite" to="0.0246 0.0246" type="scale"/>
      <animateTransform additive="sum" attributeName="gradientTransform" dur="2s" from="0.0" repeatCount="indefinite" to="0.0" type="skewX"/>
      <stop offset="0.0" stop-color="#fefe0c" stop-opacity="0.9019608">
        <animate attributeName="offset" dur="2s" repeatCount="indefinite" values="0.0;0.0"/>
        <animate attributeName="stop-color" dur="2s" repeatCount="indefinite" values="#fefe0c;#fefe0d"/>
        <animate attributeName="stop-opacity" dur="2s" repeatCount="indefinite" values="0.9019608;0.9019608"/>
      </stop>
      <stop offset="0.5764705882352941" stop-color="#ffba2b" stop-opacity="0.9019608">
        <animate attributeName="offset" dur="2s" repeatCount="indefinite" values="0.5764705882352941;0.5764705882352941"/>
        <animate attributeName="stop-color" dur="2s" repeatCount="indefinite" values="#ffba2b;#ffba2c"/>
        <animate attributeName="stop-opacity" dur="2s" repeatCount="indefinite" values="0.9019608;0.9019608"/>
      </stop>
      <stop offset="1.0" stop-color="#ff720b" stop-opacity="0.9019608">
        <animate attributeName="offset" dur="2s" repeatCount="indefinite" values="1.0;1.0"/>
        <animate attributeName="stop-color" dur="2s" repeatCount="indefinite" values="#ff720b;#ff720c"/>
        <animate attributeName="stop-opacity" dur="2s" repeatCount="indefinite" values="0.9019608;0.9019608"/>
      </stop>
    </radialGradient>
  </defs>
</svg>
