<?xml version="1.0" encoding="UTF-8" standalone="no"?>
<svg xmlns:xlink="http://www.w3.org/1999/xlink" height="4.9px" width="6.0px" xmlns="http://www.w3.org/2000/svg">
  <g transform="matrix(1.0, 0.0, 0.0, 1.0, 6.55, 8.45)">
    <path d="M-4.55 -6.95 L-4.55 -6.95 Q-4.05 -6.65 -3.65 -6.65 L-3.25 -6.7 -2.75 -7.0 -2.55 -7.0 -2.5 -6.9 -2.45 -6.65 -2.45 -6.45 -2.35 -6.45 Q-1.55 -5.95 -1.2 -6.75 L-1.1 -6.9 -1.1 -7.0 -0.8 -7.1 -0.6 -7.35 -0.6 -7.45 -0.55 -7.65 -0.6 -7.85 -0.65 -7.95 Q-0.8 -8.05 -0.95 -8.15 L-1.05 -8.25 -1.15 -8.3 -1.25 -8.4 -1.4 -8.3 -1.6 -8.25 -1.7 -8.15 -1.75 -8.05 -1.75 -7.85 -1.75 -7.75 -1.8 -7.75 -1.8 -7.75 -1.9 -7.85 -1.9 -7.95 Q-1.9 -8.4 -2.35 -8.45 L-2.45 -8.35 -2.55 -8.35 -3.05 -8.15 -3.15 -8.15 Q-3.5 -8.0 -3.85 -7.9 L-4.1 -7.75 -4.35 -7.55 -4.55 -6.95" fill="#000000" fill-rule="evenodd" stroke="none">
      <animate attributeName="fill" dur="2s" repeatCount="indefinite" values="#000000;#000001"/>
      <animate attributeName="fill-opacity" dur="2s" repeatCount="indefinite" values="1.0;1.0"/>
      <animate attributeName="d" dur="2s" repeatCount="indefinite" values="M-4.55 -6.95 L-4.55 -6.95 Q-4.05 -6.65 -3.65 -6.65 L-3.25 -6.7 -2.75 -7.0 -2.55 -7.0 -2.5 -6.9 -2.45 -6.65 -2.45 -6.45 -2.35 -6.45 Q-1.55 -5.95 -1.2 -6.75 L-1.1 -6.9 -1.1 -7.0 -0.8 -7.1 -0.6 -7.35 -0.6 -7.45 -0.55 -7.65 -0.6 -7.85 -0.65 -7.95 Q-0.8 -8.05 -0.95 -8.15 L-1.05 -8.25 -1.15 -8.3 -1.25 -8.4 -1.4 -8.3 -1.6 -8.25 -1.7 -8.15 -1.75 -8.05 -1.75 -7.85 -1.75 -7.75 -1.8 -7.75 -1.8 -7.75 -1.9 -7.85 -1.9 -7.95 Q-1.9 -8.4 -2.35 -8.45 L-2.45 -8.35 -2.55 -8.35 -3.05 -8.15 -3.15 -8.15 Q-3.5 -8.0 -3.85 -7.9 L-4.1 -7.75 -4.35 -7.55 -4.55 -6.95;M-6.55 -3.95 L-6.35 -3.85 Q-5.85 -3.55 -5.55 -4.15 L-5.15 -4.25 -4.7 -3.7 -4.5 -3.55 -4.4 -3.55 -4.2 -3.6 -4.0 -3.75 -3.65 -4.05 Q-2.8 -3.95 -2.6 -4.8 L-2.5 -4.9 -2.5 -4.9 -2.4 -5.05 -2.3 -5.35 -2.3 -5.45 -2.5 -5.75 -2.75 -5.85 -2.85 -5.85 Q-3.05 -5.85 -3.3 -5.65 L-3.3 -5.55 -3.3 -5.45 -3.3 -5.35 -3.5 -5.25 -3.65 -5.15 -3.85 -5.2 -4.15 -5.1 -4.3 -4.95 -4.4 -4.9 -4.4 -4.9 -4.45 -4.95 -4.45 -4.95 -4.45 -5.05 Q-4.7 -5.5 -5.2 -5.45 L-5.3 -5.45 -5.3 -5.55 -5.75 -5.9 -5.75 -5.85 Q-6.15 -5.75 -6.35 -5.45 L-6.45 -5.35 -6.5 -4.8 -6.55 -3.95"/>
    </path>
    <path d="M-4.55 -6.95 L-4.35 -7.55 -4.1 -7.75 -3.85 -7.9 Q-3.5 -8.0 -3.15 -8.15 L-3.05 -8.15 -2.55 -8.35 -2.45 -8.35 -2.35 -8.45 Q-1.9 -8.4 -1.9 -7.95 L-1.9 -7.85 -1.8 -7.75 -1.8 -7.75 -1.75 -7.75 -1.75 -7.85 -1.75 -8.05 -1.7 -8.15 -1.6 -8.25 -1.4 -8.3 -1.25 -8.4 -1.15 -8.3 -1.05 -8.25 -0.95 -8.15 Q-0.8 -8.05 -0.65 -7.95 L-0.6 -7.85 -0.55 -7.65 -0.6 -7.45 -0.6 -7.35 -0.8 -7.1 -1.1 -7.0 -1.1 -6.9 -1.2 -6.75 Q-1.55 -5.95 -2.35 -6.45 L-2.45 -6.45 -2.45 -6.65 -2.5 -6.9 -2.55 -7.0 -2.75 -7.0 -3.25 -6.7 -3.65 -6.65 Q-4.05 -6.65 -4.55 -6.95 L-4.55 -6.95" fill="none" stroke="#000000" stroke-linecap="round" stroke-linejoin="round" stroke-opacity="0.0" stroke-width="1.0">
      <animate attributeName="stroke" dur="2s" repeatCount="indefinite" values="#000000;#000001"/>
      <animate attributeName="stroke-width" dur="2s" repeatCount="indefinite" values="0.0;0.0"/>
      <animate attributeName="fill-opacity" dur="2s" repeatCount="indefinite" values="0.0;0.0"/>
      <animate attributeName="d" dur="2s" repeatCount="indefinite" values="M-4.55 -6.95 L-4.35 -7.55 -4.1 -7.75 -3.85 -7.9 Q-3.5 -8.0 -3.15 -8.15 L-3.05 -8.15 -2.55 -8.35 -2.45 -8.35 -2.35 -8.45 Q-1.9 -8.4 -1.9 -7.95 L-1.9 -7.85 -1.8 -7.75 -1.8 -7.75 -1.75 -7.75 -1.75 -7.85 -1.75 -8.05 -1.7 -8.15 -1.6 -8.25 -1.4 -8.3 -1.25 -8.4 -1.15 -8.3 -1.05 -8.25 -0.95 -8.15 Q-0.8 -8.05 -0.65 -7.95 L-0.6 -7.85 -0.55 -7.65 -0.6 -7.45 -0.6 -7.35 -0.8 -7.1 -1.1 -7.0 -1.1 -6.9 -1.2 -6.75 Q-1.55 -5.95 -2.35 -6.45 L-2.45 -6.45 -2.45 -6.65 -2.5 -6.9 -2.55 -7.0 -2.75 -7.0 -3.25 -6.7 -3.65 -6.65 Q-4.05 -6.65 -4.55 -6.95 L-4.55 -6.95;M-6.55 -3.95 L-6.5 -4.8 -6.45 -5.35 -6.35 -5.45 Q-6.15 -5.75 -5.75 -5.85 L-5.75 -5.9 -5.3 -5.55 -5.3 -5.45 -5.2 -5.45 Q-4.7 -5.5 -4.45 -5.05 L-4.45 -4.95 -4.45 -4.95 -4.4 -4.9 -4.4 -4.9 -4.3 -4.95 -4.15 -5.1 -3.85 -5.2 -3.65 -5.15 -3.5 -5.25 -3.3 -5.35 -3.3 -5.45 -3.3 -5.55 -3.3 -5.65 Q-3.05 -5.85 -2.85 -5.85 L-2.75 -5.85 -2.5 -5.75 -2.3 -5.45 -2.3 -5.35 -2.4 -5.05 -2.5 -4.9 -2.5 -4.9 -2.6 -4.8 Q-2.8 -3.95 -3.65 -4.05 L-4.0 -3.75 -4.2 -3.6 -4.4 -3.55 -4.5 -3.55 -4.7 -3.7 -5.15 -4.25 -5.55 -4.15 Q-5.85 -3.55 -6.35 -3.85 L-6.55 -3.95"/>
    </path>
  </g>
</svg>
