<?xml version="1.0" encoding="UTF-8" standalone="no"?>
<svg xmlns:xlink="http://www.w3.org/1999/xlink" height="5.0px" width="5.95px" xmlns="http://www.w3.org/2000/svg">
  <g transform="matrix(1.0, 0.0, 0.0, 1.0, -5.65, 6.95)">
    <path d="M5.7 -5.55 L5.8 -5.45 Q6.2 -5.05 6.6 -5.45 L6.6 -5.45 Q6.65 -5.55 6.7 -5.65 L6.7 -5.75 6.8 -5.7 7.15 -5.55 7.25 -5.45 7.35 -5.25 Q7.7 -4.8 8.0 -4.4 L8.0 -4.4 8.1 -4.3 8.6 -4.3 Q9.3 -4.65 9.2 -5.65 L9.3 -5.7 9.4 -5.7 9.4 -5.8 9.6 -6.1 Q9.3 -6.35 9.05 -6.6 L8.95 -6.6 8.3 -6.2 8.3 -6.1 8.3 -6.1 8.2 -6.1 8.2 -6.0 8.2 -5.9 8.15 -5.8 8.05 -5.95 7.7 -6.4 7.45 -6.55 7.45 -6.65 Q7.35 -6.95 7.0 -6.95 L6.85 -6.95 Q6.25 -6.95 5.95 -6.65 L5.7 -6.25 5.7 -5.55" fill="#000000" fill-rule="evenodd" stroke="none">
      <animate attributeName="fill" dur="2s" repeatCount="indefinite" values="#000000;#000001"/>
      <animate attributeName="fill-opacity" dur="2s" repeatCount="indefinite" values="1.0;1.0"/>
      <animate attributeName="d" dur="2s" repeatCount="indefinite" values="M5.7 -5.55 L5.8 -5.45 Q6.2 -5.05 6.6 -5.45 L6.6 -5.45 Q6.65 -5.55 6.7 -5.65 L6.7 -5.75 6.8 -5.7 7.15 -5.55 7.25 -5.45 7.35 -5.25 Q7.7 -4.8 8.0 -4.4 L8.0 -4.4 8.1 -4.3 8.6 -4.3 Q9.3 -4.65 9.2 -5.65 L9.3 -5.7 9.4 -5.7 9.4 -5.8 9.6 -6.1 Q9.3 -6.35 9.05 -6.6 L8.95 -6.6 8.3 -6.2 8.3 -6.1 8.3 -6.1 8.2 -6.1 8.2 -6.0 8.2 -5.9 8.15 -5.8 8.05 -5.95 7.7 -6.4 7.45 -6.55 7.45 -6.65 Q7.35 -6.95 7.0 -6.95 L6.85 -6.95 Q6.25 -6.95 5.95 -6.65 L5.7 -6.25 5.7 -5.55;M7.7 -2.2 L7.7 -2.2 Q8.1 -2.15 8.5 -2.1 L8.5 -2.1 Q8.7 -1.9 8.9 -1.95 L9.0 -1.95 9.1 -1.95 9.3 -2.1 9.3 -2.15 9.5 -2.15 Q9.9 -2.15 10.15 -2.5 L10.15 -2.6 10.2 -2.55 10.65 -2.25 Q11.15 -2.05 11.5 -2.75 L11.6 -2.85 11.6 -2.85 11.6 -2.95 11.4 -3.2 Q11.15 -3.5 10.7 -3.45 L10.7 -3.55 10.2 -3.9 10.15 -3.9 10.15 -3.85 10.0 -3.85 9.95 -3.8 9.8 -3.6 9.7 -3.5 9.6 -3.4 9.05 -3.2 8.9 -3.35 8.9 -3.35 Q8.7 -3.45 8.5 -3.55 L8.35 -3.55 Q8.05 -3.3 7.75 -3.05 L7.75 -2.75 7.7 -2.2"/>
    </path>
    <path d="M5.7 -5.55 L5.7 -6.25 5.95 -6.65 Q6.25 -6.95 6.85 -6.95 L7.0 -6.95 Q7.35 -6.95 7.45 -6.65 L7.45 -6.55 7.7 -6.4 8.05 -5.95 8.15 -5.8 8.2 -5.9 8.2 -6.0 8.2 -6.1 8.3 -6.1 8.3 -6.1 8.3 -6.2 8.95 -6.6 9.05 -6.6 Q9.3 -6.35 9.6 -6.1 L9.4 -5.8 9.4 -5.7 9.3 -5.7 9.2 -5.65 Q9.3 -4.65 8.6 -4.3 L8.1 -4.3 8.0 -4.4 8.0 -4.4 Q7.7 -4.8 7.35 -5.25 L7.25 -5.45 7.15 -5.55 6.8 -5.7 6.7 -5.75 6.7 -5.65 Q6.65 -5.55 6.6 -5.45 L6.6 -5.45 Q6.2 -5.05 5.8 -5.45 L5.7 -5.55" fill="none" stroke="#000000" stroke-linecap="round" stroke-linejoin="round" stroke-opacity="0.0" stroke-width="1.0">
      <animate attributeName="stroke" dur="2s" repeatCount="indefinite" values="#000000;#000001"/>
      <animate attributeName="stroke-width" dur="2s" repeatCount="indefinite" values="0.0;0.0"/>
      <animate attributeName="fill-opacity" dur="2s" repeatCount="indefinite" values="0.0;0.0"/>
      <animate attributeName="d" dur="2s" repeatCount="indefinite" values="M5.7 -5.55 L5.7 -6.25 5.95 -6.65 Q6.25 -6.95 6.85 -6.95 L7.0 -6.95 Q7.35 -6.95 7.45 -6.65 L7.45 -6.55 7.7 -6.4 8.05 -5.95 8.15 -5.8 8.2 -5.9 8.2 -6.0 8.2 -6.1 8.3 -6.1 8.3 -6.1 8.3 -6.2 8.95 -6.6 9.05 -6.6 Q9.3 -6.35 9.6 -6.1 L9.4 -5.8 9.4 -5.7 9.3 -5.7 9.2 -5.65 Q9.3 -4.65 8.6 -4.3 L8.1 -4.3 8.0 -4.4 8.0 -4.4 Q7.7 -4.8 7.35 -5.25 L7.25 -5.45 7.15 -5.55 6.8 -5.7 6.7 -5.75 6.7 -5.65 Q6.65 -5.55 6.6 -5.45 L6.6 -5.45 Q6.2 -5.05 5.8 -5.45 L5.7 -5.55;M7.7 -2.2 L7.75 -2.75 7.75 -3.05 Q8.05 -3.3 8.35 -3.55 L8.5 -3.55 Q8.7 -3.45 8.9 -3.35 L8.9 -3.35 9.05 -3.2 9.6 -3.4 9.7 -3.5 9.8 -3.6 9.95 -3.8 10.0 -3.85 10.15 -3.85 10.15 -3.9 10.2 -3.9 10.7 -3.55 10.7 -3.45 Q11.15 -3.5 11.4 -3.2 L11.6 -2.95 11.6 -2.85 11.6 -2.85 11.5 -2.75 Q11.15 -2.05 10.65 -2.25 L10.2 -2.55 10.15 -2.6 10.15 -2.5 Q9.9 -2.15 9.5 -2.15 L9.3 -2.15 9.3 -2.1 9.1 -1.95 9.0 -1.95 8.9 -1.95 Q8.7 -1.9 8.5 -2.1 L8.5 -2.1 Q8.1 -2.15 7.7 -2.2 L7.7 -2.2"/>
    </path>
  </g>
</svg>
