<?xml version="1.0" encoding="UTF-8" standalone="no"?>
<svg xmlns:xlink="http://www.w3.org/1999/xlink" height="6.95px" width="4.1px" xmlns="http://www.w3.org/2000/svg">
  <g transform="matrix(1.0, 0.0, 0.0, 1.0, 7.55, 2.65)">
    <path d="M-7.55 -1.65 L-7.55 -1.65 -7.45 -0.65 -7.45 -0.55 Q-7.3 -0.3 -7.05 -0.35 L-7.05 -0.35 -6.65 -0.45 -6.5 -0.7 -6.4 -0.55 Q-6.15 -0.3 -5.9 -0.3 L-5.6 -0.4 -5.55 -0.4 -5.35 -0.7 -5.0 -0.6 -4.5 -0.65 -4.2 -0.75 -3.8 -1.0 -3.6 -1.2 Q-3.45 -1.35 -3.45 -1.55 L-3.5 -1.65 Q-3.7 -2.25 -4.15 -2.1 L-4.7 -1.75 -4.9 -1.85 -5.25 -1.95 -5.65 -1.9 -5.75 -1.9 -5.85 -1.9 -5.85 -1.9 -5.95 -2.0 Q-6.25 -2.15 -6.55 -2.3 L-6.6 -2.35 -7.0 -2.65 -7.0 -2.6 -7.15 -2.6 -7.25 -2.55 -7.55 -1.9 -7.55 -1.65" fill="#000000" fill-rule="evenodd" stroke="none">
      <animate attributeName="fill" dur="2s" repeatCount="indefinite" values="#000000;#000001"/>
      <animate attributeName="fill-opacity" dur="2s" repeatCount="indefinite" values="1.0;1.0"/>
      <animate attributeName="d" dur="2s" repeatCount="indefinite" values="M-7.55 -1.65 L-7.55 -1.65 -7.45 -0.65 -7.45 -0.55 Q-7.3 -0.3 -7.05 -0.35 L-7.05 -0.35 -6.65 -0.45 -6.5 -0.7 -6.4 -0.55 Q-6.15 -0.3 -5.9 -0.3 L-5.6 -0.4 -5.55 -0.4 -5.35 -0.7 -5.0 -0.6 -4.5 -0.65 -4.2 -0.75 -3.8 -1.0 -3.6 -1.2 Q-3.45 -1.35 -3.45 -1.55 L-3.5 -1.65 Q-3.7 -2.25 -4.15 -2.1 L-4.7 -1.75 -4.9 -1.85 -5.25 -1.95 -5.65 -1.9 -5.75 -1.9 -5.85 -1.9 -5.85 -1.9 -5.95 -2.0 Q-6.25 -2.15 -6.55 -2.3 L-6.6 -2.35 -7.0 -2.65 -7.0 -2.6 -7.15 -2.6 -7.25 -2.55 -7.55 -1.9 -7.55 -1.65;M-7.0 2.85 L-7.0 3.05 -6.95 4.05 -6.75 4.2 Q-6.4 4.15 -6.1 4.1 L-6.1 4.1 -5.85 4.0 -5.55 3.75 -5.45 3.65 Q-5.4 3.45 -5.35 3.3 L-5.1 3.35 -5.05 3.35 -4.7 3.75 -4.35 3.75 -4.15 3.6 -4.1 3.35 -4.0 2.95 -3.8 2.8 Q-3.7 2.6 -3.6 2.4 L-3.6 2.3 Q-3.35 1.45 -4.0 1.05 L-4.5 1.35 -4.5 1.65 -4.5 2.05 -4.65 2.2 -4.75 2.25 -4.8 2.25 -4.9 2.2 -5.05 2.1 Q-5.4 1.75 -5.75 1.9 L-5.8 1.9 -6.3 2.3 -6.3 2.3 -6.3 2.3 -6.55 2.25 -6.95 2.55 -7.0 2.85"/>
    </path>
    <path d="M-7.55 -1.65 L-7.55 -1.9 -7.25 -2.55 -7.15 -2.6 -7.0 -2.6 -7.0 -2.65 -6.6 -2.35 -6.55 -2.3 Q-6.25 -2.15 -5.95 -2.0 L-5.85 -1.9 -5.85 -1.9 -5.75 -1.9 -5.65 -1.9 -5.25 -1.95 -4.9 -1.85 -4.7 -1.75 -4.15 -2.1 Q-3.7 -2.25 -3.5 -1.65 L-3.45 -1.55 Q-3.45 -1.35 -3.6 -1.2 L-3.8 -1.0 -4.2 -0.75 -4.5 -0.65 -5.0 -0.6 -5.35 -0.7 -5.55 -0.4 -5.6 -0.4 -5.9 -0.3 Q-6.15 -0.3 -6.4 -0.55 L-6.5 -0.7 -6.65 -0.45 -7.05 -0.35 -7.05 -0.35 Q-7.3 -0.3 -7.45 -0.55 L-7.45 -0.65 -7.55 -1.65 -7.55 -1.65" fill="none" stroke="#000000" stroke-linecap="round" stroke-linejoin="round" stroke-opacity="0.0" stroke-width="1.0">
      <animate attributeName="stroke" dur="2s" repeatCount="indefinite" values="#000000;#000001"/>
      <animate attributeName="stroke-width" dur="2s" repeatCount="indefinite" values="0.0;0.0"/>
      <animate attributeName="fill-opacity" dur="2s" repeatCount="indefinite" values="0.0;0.0"/>
      <animate attributeName="d" dur="2s" repeatCount="indefinite" values="M-7.55 -1.65 L-7.55 -1.9 -7.25 -2.55 -7.15 -2.6 -7.0 -2.6 -7.0 -2.65 -6.6 -2.35 -6.55 -2.3 Q-6.25 -2.15 -5.95 -2.0 L-5.85 -1.9 -5.85 -1.9 -5.75 -1.9 -5.65 -1.9 -5.25 -1.95 -4.9 -1.85 -4.7 -1.75 -4.15 -2.1 Q-3.7 -2.25 -3.5 -1.65 L-3.45 -1.55 Q-3.45 -1.35 -3.6 -1.2 L-3.8 -1.0 -4.2 -0.75 -4.5 -0.65 -5.0 -0.6 -5.35 -0.7 -5.55 -0.4 -5.6 -0.4 -5.9 -0.3 Q-6.15 -0.3 -6.4 -0.55 L-6.5 -0.7 -6.65 -0.45 -7.05 -0.35 -7.05 -0.35 Q-7.3 -0.3 -7.45 -0.55 L-7.45 -0.65 -7.55 -1.65 -7.55 -1.65;M-7.0 2.85 L-6.95 2.55 -6.55 2.25 -6.3 2.3 -6.3 2.3 -6.3 2.3 -5.8 1.9 -5.75 1.9 Q-5.4 1.75 -5.05 2.1 L-4.9 2.2 -4.8 2.25 -4.75 2.25 -4.65 2.2 -4.5 2.05 -4.5 1.65 -4.5 1.35 -4.0 1.05 Q-3.35 1.45 -3.6 2.3 L-3.6 2.4 Q-3.7 2.6 -3.8 2.8 L-4.0 2.95 -4.1 3.35 -4.15 3.6 -4.35 3.75 -4.7 3.75 -5.05 3.35 -5.1 3.35 -5.35 3.3 Q-5.4 3.45 -5.45 3.65 L-5.55 3.75 -5.85 4.0 -6.1 4.1 -6.1 4.1 Q-6.4 4.15 -6.75 4.2 L-6.95 4.05 -7.0 3.05 -7.0 2.85"/>
    </path>
  </g>
</svg>
