<?xml version="1.0" encoding="UTF-8" standalone="no"?>
<svg xmlns:xlink="http://www.w3.org/1999/xlink" height="5.7px" width="4.9px" xmlns="http://www.w3.org/2000/svg">
  <g transform="matrix(1.0, 0.0, 0.0, 1.0, -0.65, 8.7)">
    <path d="M0.7 -7.4 L0.7 -7.4 0.7 -7.15 0.7 -7.05 0.95 -6.85 1.15 -6.8 Q1.55 -6.8 1.75 -7.1 L1.85 -7.2 2.1 -7.15 2.2 -7.15 Q2.75 -6.65 3.5 -7.15 L3.8 -7.4 Q4.15 -7.75 4.1 -8.1 L4.0 -8.5 3.95 -8.55 3.85 -8.6 3.75 -8.5 3.6 -8.4 3.5 -8.35 3.4 -8.25 3.3 -8.25 2.75 -8.1 2.65 -8.1 2.05 -8.2 2.05 -8.2 2.0 -8.25 Q1.8 -8.45 1.6 -8.6 L1.4 -8.7 1.25 -8.7 1.1 -8.6 0.95 -8.45 0.95 -8.35 0.95 -8.05 0.95 -7.95 0.95 -7.7 0.9 -7.6 0.8 -7.55 0.7 -7.4" fill="#000000" fill-rule="evenodd" stroke="none">
      <animate attributeName="fill" dur="2s" repeatCount="indefinite" values="#000000;#000001"/>
      <animate attributeName="fill-opacity" dur="2s" repeatCount="indefinite" values="1.0;1.0"/>
      <animate attributeName="d" dur="2s" repeatCount="indefinite" values="M0.7 -7.4 L0.7 -7.4 0.7 -7.15 0.7 -7.05 0.95 -6.85 1.15 -6.8 Q1.55 -6.8 1.75 -7.1 L1.85 -7.2 2.1 -7.15 2.2 -7.15 Q2.75 -6.65 3.5 -7.15 L3.8 -7.4 Q4.15 -7.75 4.1 -8.1 L4.0 -8.5 3.95 -8.55 3.85 -8.6 3.75 -8.5 3.6 -8.4 3.5 -8.35 3.4 -8.25 3.3 -8.25 2.75 -8.1 2.65 -8.1 2.05 -8.2 2.05 -8.2 2.0 -8.25 Q1.8 -8.45 1.6 -8.6 L1.4 -8.7 1.25 -8.7 1.1 -8.6 0.95 -8.45 0.95 -8.35 0.95 -8.05 0.95 -7.95 0.95 -7.7 0.9 -7.6 0.8 -7.55 0.7 -7.4;M2.25 -3.55 L2.25 -3.4 2.3 -3.2 2.5 -3.05 2.85 -3.05 3.2 -3.4 Q3.35 -3.8 3.5 -4.15 L3.6 -4.05 3.8 -3.8 4.0 -3.7 Q4.9 -3.2 5.35 -4.1 L5.55 -4.65 Q5.65 -5.25 5.15 -5.65 L4.9 -5.5 4.7 -5.4 4.65 -5.3 4.65 -5.2 4.6 -5.0 4.4 -5.0 4.15 -4.95 4.1 -5.05 3.65 -5.45 3.6 -5.55 3.15 -5.9 3.15 -5.85 3.15 -5.85 Q2.8 -5.85 2.7 -5.55 L2.65 -5.35 2.65 -5.25 2.65 -5.05 2.6 -4.55 2.6 -4.45 2.5 -4.15 2.5 -4.15 2.4 -3.95 2.35 -3.95 2.3 -3.85 2.25 -3.55"/>
    </path>
    <path d="M0.7 -7.4 L0.8 -7.55 0.9 -7.6 0.95 -7.7 0.95 -7.95 0.95 -8.05 0.95 -8.35 0.95 -8.45 1.1 -8.6 1.25 -8.7 1.4 -8.7 1.6 -8.6 Q1.8 -8.45 2.0 -8.25 L2.05 -8.2 2.05 -8.2 2.65 -8.1 2.75 -8.1 3.3 -8.25 3.4 -8.25 3.5 -8.35 3.6 -8.4 3.75 -8.5 3.85 -8.6 3.95 -8.55 4.0 -8.5 4.1 -8.1 Q4.15 -7.75 3.8 -7.4 L3.5 -7.15 Q2.75 -6.65 2.2 -7.15 L2.1 -7.15 1.85 -7.2 1.75 -7.1 Q1.55 -6.8 1.15 -6.8 L0.95 -6.85 0.7 -7.05 0.7 -7.15 0.7 -7.4 0.7 -7.4" fill="none" stroke="#000000" stroke-linecap="round" stroke-linejoin="round" stroke-opacity="0.0" stroke-width="1.0">
      <animate attributeName="stroke" dur="2s" repeatCount="indefinite" values="#000000;#000001"/>
      <animate attributeName="stroke-width" dur="2s" repeatCount="indefinite" values="0.0;0.0"/>
      <animate attributeName="fill-opacity" dur="2s" repeatCount="indefinite" values="0.0;0.0"/>
      <animate attributeName="d" dur="2s" repeatCount="indefinite" values="M0.7 -7.4 L0.8 -7.55 0.9 -7.6 0.95 -7.7 0.95 -7.95 0.95 -8.05 0.95 -8.35 0.95 -8.45 1.1 -8.6 1.25 -8.7 1.4 -8.7 1.6 -8.6 Q1.8 -8.45 2.0 -8.25 L2.05 -8.2 2.05 -8.2 2.65 -8.1 2.75 -8.1 3.3 -8.25 3.4 -8.25 3.5 -8.35 3.6 -8.4 3.75 -8.5 3.85 -8.6 3.95 -8.55 4.0 -8.5 4.1 -8.1 Q4.15 -7.75 3.8 -7.4 L3.5 -7.15 Q2.75 -6.65 2.2 -7.15 L2.1 -7.15 1.85 -7.2 1.75 -7.1 Q1.55 -6.8 1.15 -6.8 L0.95 -6.85 0.7 -7.05 0.7 -7.15 0.7 -7.4 0.7 -7.4;M2.25 -3.55 L2.3 -3.85 2.35 -3.95 2.4 -3.95 2.5 -4.15 2.5 -4.15 2.6 -4.45 2.6 -4.55 2.65 -5.05 2.65 -5.25 2.65 -5.35 2.7 -5.55 Q2.8 -5.85 3.15 -5.85 L3.15 -5.85 3.15 -5.9 3.6 -5.55 3.65 -5.45 4.1 -5.05 4.15 -4.95 4.4 -5.0 4.6 -5.0 4.65 -5.2 4.65 -5.3 4.7 -5.4 4.9 -5.5 5.15 -5.65 Q5.65 -5.25 5.55 -4.65 L5.35 -4.1 Q4.9 -3.2 4.0 -3.7 L3.8 -3.8 3.6 -4.05 3.5 -4.15 Q3.35 -3.8 3.2 -3.4 L2.85 -3.05 2.5 -3.05 2.3 -3.2 2.25 -3.4 2.25 -3.55"/>
    </path>
  </g>
</svg>
