<?xml version="1.0" encoding="UTF-8" standalone="no"?>
<svg xmlns:xlink="http://www.w3.org/1999/xlink" height="36.05px" width="39.8px" xmlns="http://www.w3.org/2000/svg">
  <g transform="matrix(1.0, 0.0, 0.0, 1.0, 19.5, 8.75)">
    <path d="M-19.5 0.0 L-19.5 0.4 Q-19.2 3.75 -13.7 6.15 L-13.05 6.4 -11.25 7.1 Q-11.0 7.3 -10.8 7.5 L-10.4 7.9 -10.1 8.2 -9.6 8.4 Q-8.8 8.8 -8.25 9.8 L-7.7 10.6 Q-6.95 11.45 -6.65 12.5 L-6.6 12.7 -6.5 13.1 -6.45 13.45 Q-6.5 14.4 -6.55 15.3 L-6.85 16.55 -7.0 17.0 -7.0 17.3 -7.0 17.5 -7.0 17.75 -7.0 18.05 -6.95 18.05 -6.8 18.05 -6.55 17.85 -6.3 17.7 -6.15 17.1 -5.8 16.7 Q-5.2 16.75 -4.65 16.75 L-4.5 16.8 -4.4 17.05 Q-4.15 18.25 -5.1 19.0 L-5.0 20.85 -5.0 22.15 Q-5.0 22.5 -5.0 22.85 L-5.0 23.05 -4.7 23.95 Q-4.2 24.6 -4.3 25.45 -3.85 24.95 -3.75 24.35 -3.7 24.15 -3.7 23.95 L-3.7 23.05 Q-3.75 22.4 -3.4 21.8 L-2.8 21.0 -2.1 20.5 Q-1.5 20.4 -0.9 20.3 L-0.4 20.65 -0.2 21.05 -0.2 21.25 -0.25 22.05 Q-0.45 23.0 -1.3 23.7 L-1.2 25.1 -0.8 26.1 -0.75 26.5 -0.75 27.3 Q-0.15 26.85 0.1 26.15 L0.2 25.95 0.2 25.85 Q0.4 24.2 2.3 24.65 L2.8 24.85 3.25 25.3 4.45 26.25 4.45 26.25 4.4 25.05 3.85 23.9 3.65 23.6 Q3.4 23.0 3.45 22.45 L3.5 22.0 Q3.65 21.45 4.05 20.95 4.2 20.75 4.5 20.7 5.95 20.7 6.4 21.8 L6.45 21.95 Q6.7 21.1 6.95 20.25 L7.05 19.75 Q7.25 18.85 7.45 17.95 L7.55 17.55 7.55 17.45 7.55 17.35 7.55 17.15 7.65 16.95 7.6 15.75 Q7.75 14.15 7.85 12.55 L8.3 11.0 8.3 10.9 8.6 10.3 Q9.05 9.45 9.8 8.75 L10.35 8.2 11.05 7.75 11.3 7.65 11.8 7.45 11.9 7.45 12.25 7.05 12.55 6.95 12.95 6.85 14.45 6.15 Q19.25 4.05 20.1 1.25 L20.3 0.0 Q20.3 -3.3 15.4 -5.8 L14.45 -6.2 Q8.85 -8.65 1.0 -8.75 L0.4 -8.75 Q-7.7 -8.75 -13.5 -6.3 L-13.7 -6.2 Q-19.5 -3.6 -19.5 0.0" fill="url(#gradient0)" fill-rule="evenodd" stroke="none">
      <animate attributeName="d" dur="2s" repeatCount="indefinite" values="M-19.5 0.0 L-19.5 0.4 Q-19.2 3.75 -13.7 6.15 L-13.05 6.4 -11.25 7.1 Q-11.0 7.3 -10.8 7.5 L-10.4 7.9 -10.1 8.2 -9.6 8.4 Q-8.8 8.8 -8.25 9.8 L-7.7 10.6 Q-6.95 11.45 -6.65 12.5 L-6.6 12.7 -6.5 13.1 -6.45 13.45 Q-6.5 14.4 -6.55 15.3 L-6.85 16.55 -7.0 17.0 -7.0 17.3 -7.0 17.5 -7.0 17.75 -7.0 18.05 -6.95 18.05 -6.8 18.05 -6.55 17.85 -6.3 17.7 -6.15 17.1 -5.8 16.7 Q-5.2 16.75 -4.65 16.75 L-4.5 16.8 -4.4 17.05 Q-4.15 18.25 -5.1 19.0 L-5.0 20.85 -5.0 22.15 Q-5.0 22.5 -5.0 22.85 L-5.0 23.05 -4.7 23.95 Q-4.2 24.6 -4.3 25.45 -3.85 24.95 -3.75 24.35 -3.7 24.15 -3.7 23.95 L-3.7 23.05 Q-3.75 22.4 -3.4 21.8 L-2.8 21.0 -2.1 20.5 Q-1.5 20.4 -0.9 20.3 L-0.4 20.65 -0.2 21.05 -0.2 21.25 -0.25 22.05 Q-0.45 23.0 -1.3 23.7 L-1.2 25.1 -0.8 26.1 -0.75 26.5 -0.75 27.3 Q-0.15 26.85 0.1 26.15 L0.2 25.95 0.2 25.85 Q0.4 24.2 2.3 24.65 L2.8 24.85 3.25 25.3 4.45 26.25 4.45 26.25 4.4 25.05 3.85 23.9 3.65 23.6 Q3.4 23.0 3.45 22.45 L3.5 22.0 Q3.65 21.45 4.05 20.95 4.2 20.75 4.5 20.7 5.95 20.7 6.4 21.8 L6.45 21.95 Q6.7 21.1 6.95 20.25 L7.05 19.75 Q7.25 18.85 7.45 17.95 L7.55 17.55 7.55 17.45 7.55 17.35 7.55 17.15 7.65 16.95 7.6 15.75 Q7.75 14.15 7.85 12.55 L8.3 11.0 8.3 10.9 8.6 10.3 Q9.05 9.45 9.8 8.75 L10.35 8.2 11.05 7.75 11.3 7.65 11.8 7.45 11.9 7.45 12.25 7.05 12.55 6.95 12.95 6.85 14.45 6.15 Q19.25 4.05 20.1 1.25 L20.3 0.0 Q20.3 -3.3 15.4 -5.8 L14.45 -6.2 Q8.85 -8.65 1.0 -8.75 L0.4 -8.75 Q-7.7 -8.75 -13.5 -6.3 L-13.7 -6.2 Q-19.5 -3.6 -19.5 0.0;M-19.5 0.0 L-19.5 0.0 Q-19.5 3.45 -14.25 5.95 L-13.7 6.15 -11.9 6.85 Q-11.6 7.0 -11.25 7.1 L-10.8 7.5 -10.4 7.6 -9.8 7.95 Q-9.0 8.7 -8.25 9.45 L-7.85 9.95 Q-7.25 10.75 -6.7 11.5 L-6.6 11.7 -6.5 12.0 -6.5 12.5 Q-6.5 13.35 -6.8 14.15 L-7.2 15.35 -7.3 15.75 -7.3 16.2 -7.3 16.3 -7.3 16.55 -7.1 16.25 -7.1 16.25 -6.9 16.0 -6.45 15.6 -5.95 15.35 -5.15 15.2 -4.65 15.5 Q-4.2 16.05 -4.25 16.85 L-4.25 16.85 -4.25 17.15 Q-4.35 18.2 -4.45 19.25 L-4.5 21.05 -3.6 22.3 Q-3.35 22.6 -3.05 22.5 L-3.05 22.2 -3.15 21.4 Q-3.1 20.7 -3.05 20.05 -2.9 19.45 -2.75 18.85 -2.7 18.65 -2.45 18.6 L-1.5 18.45 Q-0.9 18.5 -0.55 19.0 L-0.25 19.8 -0.3 20.55 Q-0.4 21.0 -0.8 21.35 L-0.85 22.1 -0.85 22.5 -0.85 22.75 -0.8 23.45 Q0.0 24.45 1.05 24.5 L2.25 24.3 1.65 23.65 1.4 23.15 1.3 22.35 Q1.35 21.6 2.0 21.6 L2.25 21.65 2.35 21.65 Q3.9 22.0 4.75 23.2 L5.1 23.7 5.05 23.05 4.65 21.8 4.65 21.8 3.95 20.75 3.35 20.0 3.05 19.6 Q2.75 19.1 2.45 18.6 L2.35 18.2 Q2.3 17.65 2.3 17.15 2.35 16.75 2.4 16.4 2.65 15.25 3.45 14.3 L3.55 14.2 Q4.25 13.6 5.15 13.85 L5.65 14.05 Q6.65 14.35 6.75 15.45 L6.85 15.75 6.95 15.9 7.0 15.85 7.1 15.8 7.2 15.7 7.15 14.55 Q7.2 12.9 8.05 11.6 L9.05 10.45 9.05 10.45 9.75 9.65 Q10.45 8.95 11.1 8.25 L11.6 7.8 12.25 7.05 12.55 6.95 13.15 6.65 13.25 6.65 13.85 6.35 14.15 6.25 14.45 6.15 15.75 5.5 Q20.3 3.15 20.3 0.0 L20.15 -1.2 Q19.3 -4.05 14.45 -6.2 L13.55 -6.55 Q8.05 -8.75 0.4 -8.75 L-0.2 -8.75 Q-8.05 -8.65 -13.7 -6.2 L-13.9 -6.1 Q-19.5 -3.55 -19.5 0.0"/>
    </path>
    <path d="M-19.5 0.0 Q-19.5 -3.6 -13.7 -6.2 L-13.5 -6.3 Q-7.7 -8.75 0.4 -8.75 L1.0 -8.75 Q8.85 -8.65 14.45 -6.2 L15.4 -5.8 Q20.3 -3.3 20.3 0.0 L20.1 1.25 Q19.25 4.05 14.45 6.15 L12.95 6.85 12.55 6.95 12.25 7.05 11.9 7.45 11.8 7.45 11.3 7.65 11.05 7.75 10.35 8.2 9.8 8.75 Q9.05 9.45 8.6 10.3 L8.3 10.9 8.3 11.0 7.85 12.55 Q7.75 14.15 7.6 15.75 L7.65 16.95 7.55 17.15 7.55 17.35 7.55 17.45 7.55 17.55 7.45 17.95 Q7.25 18.85 7.05 19.75 L6.95 20.25 Q6.7 21.1 6.45 21.95 L6.4 21.8 Q5.95 20.7 4.5 20.7 4.2 20.75 4.05 20.95 3.65 21.45 3.5 22.0 L3.45 22.45 Q3.4 23.0 3.65 23.6 L3.85 23.9 4.4 25.05 4.45 26.25 4.45 26.25 3.25 25.3 2.8 24.85 2.3 24.65 Q0.4 24.2 0.2 25.85 L0.2 25.95 0.1 26.15 Q-0.15 26.85 -0.75 27.3 L-0.75 26.5 -0.8 26.1 -1.2 25.1 -1.3 23.7 Q-0.45 23.0 -0.25 22.05 L-0.2 21.25 -0.2 21.05 -0.4 20.65 -0.9 20.3 Q-1.5 20.4 -2.1 20.5 L-2.8 21.0 -3.4 21.8 Q-3.75 22.4 -3.7 23.05 L-3.7 23.95 Q-3.7 24.15 -3.75 24.35 -3.85 24.95 -4.3 25.45 -4.2 24.6 -4.7 23.95 L-5.0 23.05 -5.0 22.85 Q-5.0 22.5 -5.0 22.15 L-5.0 20.85 -5.1 19.0 Q-4.15 18.25 -4.4 17.05 L-4.5 16.8 -4.65 16.75 Q-5.2 16.75 -5.8 16.7 L-6.15 17.1 -6.3 17.7 -6.55 17.85 -6.8 18.05 -6.95 18.05 -7.0 18.05 -7.0 17.75 -7.0 17.5 -7.0 17.3 -7.0 17.0 -6.85 16.55 -6.55 15.3 Q-6.5 14.4 -6.45 13.45 L-6.5 13.1 -6.6 12.7 -6.65 12.5 Q-6.95 11.45 -7.7 10.6 L-8.25 9.8 Q-8.8 8.8 -9.6 8.4 L-10.1 8.2 -10.4 7.9 -10.8 7.5 Q-11.0 7.3 -11.25 7.1 L-13.05 6.4 -13.7 6.15 Q-19.2 3.75 -19.5 0.4 L-19.5 0.0" fill="none" stroke="#000000" stroke-linecap="round" stroke-linejoin="round" stroke-opacity="0.0" stroke-width="1.0">
      <animate attributeName="stroke" dur="2s" repeatCount="indefinite" values="#000000;#000001"/>
      <animate attributeName="stroke-width" dur="2s" repeatCount="indefinite" values="0.0;0.0"/>
      <animate attributeName="fill-opacity" dur="2s" repeatCount="indefinite" values="0.0;0.0"/>
      <animate attributeName="d" dur="2s" repeatCount="indefinite" values="M-19.5 0.0 Q-19.5 -3.6 -13.7 -6.2 L-13.5 -6.3 Q-7.7 -8.75 0.4 -8.75 L1.0 -8.75 Q8.85 -8.65 14.45 -6.2 L15.4 -5.8 Q20.3 -3.3 20.3 0.0 L20.1 1.25 Q19.25 4.05 14.45 6.15 L12.95 6.85 12.55 6.95 12.25 7.05 11.9 7.45 11.8 7.45 11.3 7.65 11.05 7.75 10.35 8.2 9.8 8.75 Q9.05 9.45 8.6 10.3 L8.3 10.9 8.3 11.0 7.85 12.55 Q7.75 14.15 7.6 15.75 L7.65 16.95 7.55 17.15 7.55 17.35 7.55 17.45 7.55 17.55 7.45 17.95 Q7.25 18.85 7.05 19.75 L6.95 20.25 Q6.7 21.1 6.45 21.95 L6.4 21.8 Q5.95 20.7 4.5 20.7 4.2 20.75 4.05 20.95 3.65 21.45 3.5 22.0 L3.45 22.45 Q3.4 23.0 3.65 23.6 L3.85 23.9 4.4 25.05 4.45 26.25 4.45 26.25 3.25 25.3 2.8 24.85 2.3 24.65 Q0.4 24.2 0.2 25.85 L0.2 25.95 0.1 26.15 Q-0.15 26.85 -0.75 27.3 L-0.75 26.5 -0.8 26.1 -1.2 25.1 -1.3 23.7 Q-0.45 23.0 -0.25 22.05 L-0.2 21.25 -0.2 21.05 -0.4 20.65 -0.9 20.3 Q-1.5 20.4 -2.1 20.5 L-2.8 21.0 -3.4 21.8 Q-3.75 22.4 -3.7 23.05 L-3.7 23.95 Q-3.7 24.15 -3.75 24.35 -3.85 24.95 -4.3 25.45 -4.2 24.6 -4.7 23.95 L-5.0 23.05 -5.0 22.85 Q-5.0 22.5 -5.0 22.15 L-5.0 20.85 -5.1 19.0 Q-4.15 18.25 -4.4 17.05 L-4.5 16.8 -4.65 16.75 Q-5.2 16.75 -5.8 16.7 L-6.15 17.1 -6.3 17.7 -6.55 17.85 -6.8 18.05 -6.95 18.05 -7.0 18.05 -7.0 17.75 -7.0 17.5 -7.0 17.3 -7.0 17.0 -6.85 16.55 -6.55 15.3 Q-6.5 14.4 -6.45 13.45 L-6.5 13.1 -6.6 12.7 -6.65 12.5 Q-6.95 11.45 -7.7 10.6 L-8.25 9.8 Q-8.8 8.8 -9.6 8.4 L-10.1 8.2 -10.4 7.9 -10.8 7.5 Q-11.0 7.3 -11.25 7.1 L-13.05 6.4 -13.7 6.15 Q-19.2 3.75 -19.5 0.4 L-19.5 0.0;M-19.5 0.0 Q-19.5 -3.55 -13.9 -6.1 L-13.7 -6.2 Q-8.05 -8.65 -0.2 -8.75 L0.4 -8.75 Q8.05 -8.75 13.55 -6.55 L14.45 -6.2 Q19.3 -4.05 20.15 -1.2 L20.3 0.0 Q20.3 3.15 15.75 5.5 L14.45 6.15 14.15 6.25 13.85 6.35 13.25 6.65 13.15 6.65 12.55 6.95 12.25 7.05 11.6 7.8 11.1 8.25 Q10.45 8.95 9.75 9.65 L9.05 10.45 9.05 10.45 8.05 11.6 Q7.2 12.9 7.15 14.55 L7.2 15.7 7.1 15.8 7.0 15.85 6.95 15.9 6.85 15.75 6.75 15.45 Q6.65 14.35 5.65 14.05 L5.15 13.85 Q4.25 13.6 3.55 14.2 L3.45 14.3 Q2.65 15.25 2.4 16.4 2.35 16.75 2.3 17.15 2.3 17.65 2.35 18.2 L2.45 18.6 Q2.75 19.1 3.05 19.6 L3.35 20.0 3.95 20.75 4.65 21.8 4.65 21.8 5.05 23.05 5.1 23.7 4.75 23.2 Q3.9 22.0 2.35 21.65 L2.25 21.65 2.0 21.6 Q1.35 21.6 1.3 22.35 L1.4 23.15 1.65 23.65 2.25 24.3 1.05 24.5 Q0.0 24.45 -0.8 23.45 L-0.85 22.75 -0.85 22.5 -0.85 22.1 -0.8 21.35 Q-0.4 21.0 -0.3 20.55 L-0.25 19.8 -0.55 19.0 Q-0.9 18.5 -1.5 18.45 L-2.45 18.6 Q-2.7 18.65 -2.75 18.85 -2.9 19.45 -3.05 20.05 -3.1 20.7 -3.15 21.4 L-3.05 22.2 -3.05 22.5 Q-3.35 22.6 -3.6 22.3 L-4.5 21.05 -4.45 19.25 Q-4.35 18.2 -4.25 17.15 L-4.25 16.85 -4.25 16.85 Q-4.2 16.05 -4.65 15.5 L-5.15 15.2 -5.95 15.35 -6.45 15.6 -6.9 16.0 -7.1 16.25 -7.1 16.25 -7.3 16.55 -7.3 16.3 -7.3 16.2 -7.3 15.75 -7.2 15.35 -6.8 14.15 Q-6.5 13.35 -6.5 12.5 L-6.5 12.0 -6.6 11.7 -6.7 11.5 Q-7.25 10.75 -7.85 9.95 L-8.25 9.45 Q-9.0 8.7 -9.8 7.95 L-10.4 7.6 -10.8 7.5 -11.25 7.1 Q-11.6 7.0 -11.9 6.85 L-13.7 6.15 -14.25 5.95 Q-19.5 3.45 -19.5 0.0 L-19.5 0.0"/>
    </path>
  </g>
  <defs>
    <radialGradient cx="0" cy="0" gradientTransform="matrix(0.0351, 0.0, 0.0, 0.0351, 1.0, -0.75)" gradientUnits="userSpaceOnUse" id="gradient0" r="819.2" spreadMethod="pad">
      <animateTransform additive="replace" attributeName="gradientTransform" dur="2s" from="1" repeatCount="indefinite" to="1" type="scale"/>
      <animateTransform additive="sum" attributeName="gradientTransform" dur="2s" from="1.0 -0.75" repeatCount="indefinite" to="1.0 -0.75" type="translate"/>
      <animateTransform additive="sum" attributeName="gradientTransform" dur="2s" from="0.0" repeatCount="indefinite" to="0.0" type="rotate"/>
      <animateTransform additive="sum" attributeName="gradientTransform" dur="2s" from="0.0351 0.0351" repeatCount="indefinite" to="0.0351 0.0351" type="scale"/>
      <animateTransform additive="sum" attributeName="gradientTransform" dur="2s" from="0.0" repeatCount="indefinite" to="0.0" type="skewX"/>
      <stop offset="0.0" stop-color="#fefe0c" stop-opacity="0.9019608">
        <animate attributeName="offset" dur="2s" repeatCount="indefinite" values="0.0;0.0"/>
        <animate attributeName="stop-color" dur="2s" repeatCount="indefinite" values="#fefe0c;#fefe0d"/>
        <animate attributeName="stop-opacity" dur="2s" repeatCount="indefinite" values="0.9019608;0.9019608"/>
      </stop>
      <stop offset="0.5764705882352941" stop-color="#ffba2b" stop-opacity="0.9019608">
        <animate attributeName="offset" dur="2s" repeatCount="indefinite" values="0.5764705882352941;0.5764705882352941"/>
        <animate attributeName="stop-color" dur="2s" repeatCount="indefinite" values="#ffba2b;#ffba2c"/>
        <animate attributeName="stop-opacity" dur="2s" repeatCount="indefinite" values="0.9019608;0.9019608"/>
      </stop>
      <stop offset="1.0" stop-color="#ff720b" stop-opacity="0.9019608">
        <animate attributeName="offset" dur="2s" repeatCount="indefinite" values="1.0;1.0"/>
        <animate attributeName="stop-color" dur="2s" repeatCount="indefinite" values="#ff720b;#ff720c"/>
        <animate attributeName="stop-opacity" dur="2s" repeatCount="indefinite" values="0.9019608;0.9019608"/>
      </stop>
    </radialGradient>
  </defs>
</svg>
