<?xml version="1.0" encoding="UTF-8" standalone="no"?>
<svg xmlns:xlink="http://www.w3.org/1999/xlink" height="5.2px" width="7.25px" xmlns="http://www.w3.org/2000/svg">
  <g transform="matrix(1.0, 0.0, 0.0, 1.0, 14.5, -1.85)">
    <path d="M-14.45 4.7 L-14.35 4.8 -14.0 4.95 -13.85 4.85 Q-13.4 4.45 -13.55 3.8 L-13.3 3.65 -13.0 3.7 -12.9 3.95 Q-12.4 4.0 -11.9 4.05 L-11.8 3.95 -11.8 3.85 -11.8 3.75 -11.55 3.65 -11.2 3.25 Q-10.8 2.4 -11.4 1.95 L-11.5 1.85 -11.55 1.95 -11.65 1.95 -11.85 2.1 -12.1 2.6 -12.1 2.6 -12.25 2.6 -12.25 2.6 -12.35 2.6 -12.45 2.5 Q-12.85 2.0 -13.3 2.15 -13.5 2.2 -13.7 2.4 L-13.7 2.5 -13.75 2.6 -13.85 2.65 -13.9 2.65 -14.0 2.65 -14.15 2.75 Q-14.65 3.6 -14.45 4.7" fill="#000000" fill-rule="evenodd" stroke="none">
      <animate attributeName="fill" dur="2s" repeatCount="indefinite" values="#000000;#000001"/>
      <animate attributeName="fill-opacity" dur="2s" repeatCount="indefinite" values="1.0;1.0"/>
      <animate attributeName="d" dur="2s" repeatCount="indefinite" values="M-14.45 4.7 L-14.35 4.8 -14.0 4.95 -13.85 4.85 Q-13.4 4.45 -13.55 3.8 L-13.3 3.65 -13.0 3.7 -12.9 3.95 Q-12.4 4.0 -11.9 4.05 L-11.8 3.95 -11.8 3.85 -11.8 3.75 -11.55 3.65 -11.2 3.25 Q-10.8 2.4 -11.4 1.95 L-11.5 1.85 -11.55 1.95 -11.65 1.95 -11.85 2.1 -12.1 2.6 -12.1 2.6 -12.25 2.6 -12.25 2.6 -12.35 2.6 -12.45 2.5 Q-12.85 2.0 -13.3 2.15 -13.5 2.2 -13.7 2.4 L-13.7 2.5 -13.75 2.6 -13.85 2.65 -13.9 2.65 -14.0 2.65 -14.15 2.75 Q-14.65 3.6 -14.45 4.7;M-10.7 6.8 L-10.7 6.8 -10.45 7.0 -10.25 7.05 Q-9.7 6.95 -9.65 6.55 L-9.65 6.35 -9.35 6.35 -9.15 6.35 Q-8.65 6.75 -8.2 6.35 L-8.1 6.25 -7.85 6.15 -7.75 6.15 -7.6 6.0 -7.3 5.55 Q-7.05 4.95 -7.75 4.55 L-7.9 4.55 -8.0 4.6 -8.0 4.65 -8.1 4.75 -8.3 5.15 -8.3 5.15 -8.4 5.15 -8.5 5.15 -8.5 5.15 -8.9 5.2 Q-9.3 5.05 -9.65 4.95 -9.7 4.75 -9.9 4.7 L-10.0 4.65 -10.1 4.65 -10.25 4.7 -10.35 4.75 -10.35 4.95 -10.45 5.15 Q-10.6 6.0 -10.7 6.8"/>
    </path>
    <path d="M-14.45 4.7 Q-14.65 3.6 -14.15 2.75 L-14.0 2.65 -13.9 2.65 -13.85 2.65 -13.75 2.6 -13.7 2.5 -13.7 2.4 Q-13.5 2.2 -13.3 2.15 -12.85 2.0 -12.45 2.5 L-12.35 2.6 -12.25 2.6 -12.25 2.6 -12.1 2.6 -12.1 2.6 -11.85 2.1 -11.65 1.95 -11.55 1.95 -11.5 1.85 -11.4 1.95 Q-10.8 2.4 -11.2 3.25 L-11.55 3.65 -11.8 3.75 -11.8 3.85 -11.8 3.95 -11.9 4.05 Q-12.4 4.0 -12.9 3.95 L-13.0 3.7 -13.3 3.65 -13.55 3.8 Q-13.4 4.45 -13.85 4.85 L-14.0 4.95 -14.35 4.8 -14.45 4.7" fill="none" stroke="#000000" stroke-linecap="round" stroke-linejoin="round" stroke-opacity="0.0" stroke-width="1.0">
      <animate attributeName="stroke" dur="2s" repeatCount="indefinite" values="#000000;#000001"/>
      <animate attributeName="stroke-width" dur="2s" repeatCount="indefinite" values="0.0;0.0"/>
      <animate attributeName="fill-opacity" dur="2s" repeatCount="indefinite" values="0.0;0.0"/>
      <animate attributeName="d" dur="2s" repeatCount="indefinite" values="M-14.45 4.7 Q-14.65 3.6 -14.15 2.75 L-14.0 2.65 -13.9 2.65 -13.85 2.65 -13.75 2.6 -13.7 2.5 -13.7 2.4 Q-13.5 2.2 -13.3 2.15 -12.85 2.0 -12.45 2.5 L-12.35 2.6 -12.25 2.6 -12.25 2.6 -12.1 2.6 -12.1 2.6 -11.85 2.1 -11.65 1.95 -11.55 1.95 -11.5 1.85 -11.4 1.95 Q-10.8 2.4 -11.2 3.25 L-11.55 3.65 -11.8 3.75 -11.8 3.85 -11.8 3.95 -11.9 4.05 Q-12.4 4.0 -12.9 3.95 L-13.0 3.7 -13.3 3.65 -13.55 3.8 Q-13.4 4.45 -13.85 4.85 L-14.0 4.95 -14.35 4.8 -14.45 4.7;M-10.7 6.8 Q-10.6 6.0 -10.45 5.15 L-10.35 4.95 -10.35 4.75 -10.25 4.7 -10.1 4.65 -10.0 4.65 -9.9 4.7 Q-9.7 4.75 -9.65 4.95 -9.3 5.05 -8.9 5.2 L-8.5 5.15 -8.5 5.15 -8.4 5.15 -8.3 5.15 -8.3 5.15 -8.1 4.75 -8.0 4.65 -8.0 4.6 -7.9 4.55 -7.75 4.55 Q-7.05 4.95 -7.3 5.55 L-7.6 6.0 -7.75 6.15 -7.85 6.15 -8.1 6.25 -8.2 6.35 Q-8.65 6.75 -9.15 6.35 L-9.35 6.35 -9.65 6.35 -9.65 6.55 Q-9.7 6.95 -10.25 7.05 L-10.45 7.0 -10.7 6.8 -10.7 6.8"/>
    </path>
  </g>
</svg>
