<?xml version="1.0" encoding="UTF-8" standalone="no"?>
<svg xmlns:xlink="http://www.w3.org/1999/xlink" height="6.1px" width="5.45px" xmlns="http://www.w3.org/2000/svg">
  <g transform="matrix(1.0, 0.0, 0.0, 1.0, 7.0, -1.05)">
    <path d="M-7.0 2.85 Q-6.95 3.4 -6.95 3.95 L-6.95 4.05 -6.5 4.3 -6.1 4.1 -5.85 4.0 -5.75 3.95 -5.35 3.3 -5.1 3.35 -5.05 3.35 -4.8 3.65 -4.15 3.6 -4.1 3.35 -4.0 3.25 -4.0 3.05 -4.0 2.95 Q-3.8 2.65 -3.6 2.4 L-3.5 2.05 -3.5 1.8 Q-3.55 1.3 -4.0 1.05 L-4.35 1.2 -4.5 1.35 -4.5 1.65 -4.5 2.05 -4.5 2.05 -4.65 2.2 -4.75 2.25 -4.9 2.2 -5.05 2.1 -5.05 2.1 Q-5.6 2.05 -6.1 2.05 L-6.3 2.3 -6.4 2.3 Q-6.75 2.25 -6.95 2.55 L-7.0 2.85" fill="#000000" fill-rule="evenodd" stroke="none">
      <animate attributeName="fill" dur="2s" repeatCount="indefinite" values="#000000;#000001"/>
      <animate attributeName="fill-opacity" dur="2s" repeatCount="indefinite" values="1.0;1.0"/>
      <animate attributeName="d" dur="2s" repeatCount="indefinite" values="M-7.0 2.85 Q-6.95 3.4 -6.95 3.95 L-6.95 4.05 -6.5 4.3 -6.1 4.1 -5.85 4.0 -5.75 3.95 -5.35 3.3 -5.1 3.35 -5.05 3.35 -4.8 3.65 -4.15 3.6 -4.1 3.35 -4.0 3.25 -4.0 3.05 -4.0 2.95 Q-3.8 2.65 -3.6 2.4 L-3.5 2.05 -3.5 1.8 Q-3.55 1.3 -4.0 1.05 L-4.35 1.2 -4.5 1.35 -4.5 1.65 -4.5 2.05 -4.5 2.05 -4.65 2.2 -4.75 2.25 -4.9 2.2 -5.05 2.1 -5.05 2.1 Q-5.6 2.05 -6.1 2.05 L-6.3 2.3 -6.4 2.3 Q-6.75 2.25 -6.95 2.55 L-7.0 2.85;M-5.55 6.95 Q-4.8 7.5 -4.55 6.7 L-4.45 6.7 -4.0 6.6 -3.55 6.9 -3.2 6.9 -3.1 6.9 -2.3 7.05 -2.0 6.85 -2.0 6.85 -1.9 6.6 -1.9 6.05 -1.9 5.75 -1.9 5.55 -1.8 5.45 -1.65 5.25 Q-1.45 4.85 -1.75 4.55 L-2.1 4.35 -2.25 4.45 Q-2.5 4.8 -2.75 5.1 L-2.85 5.55 -2.95 5.5 -3.25 5.35 -3.65 5.3 -3.65 5.3 -4.0 5.15 -4.1 5.15 -4.3 5.2 -4.4 5.25 -4.5 5.25 Q-5.15 4.9 -5.5 5.45 L-5.5 5.75 -5.5 5.85 Q-5.55 6.25 -5.55 6.65 L-5.55 6.95"/>
    </path>
    <path d="M-7.0 2.85 L-6.95 2.55 Q-6.75 2.25 -6.4 2.3 L-6.3 2.3 -6.1 2.05 Q-5.6 2.05 -5.05 2.1 L-5.05 2.1 -4.9 2.2 -4.75 2.25 -4.65 2.2 -4.5 2.05 -4.5 2.05 -4.5 1.65 -4.5 1.35 -4.35 1.2 -4.0 1.05 Q-3.55 1.3 -3.5 1.8 L-3.5 2.05 -3.6 2.4 Q-3.8 2.65 -4.0 2.95 L-4.0 3.05 -4.0 3.25 -4.1 3.35 -4.15 3.6 -4.8 3.65 -5.05 3.35 -5.1 3.35 -5.35 3.3 -5.75 3.95 -5.85 4.0 -6.1 4.1 -6.5 4.3 -6.95 4.05 -6.95 3.95 Q-6.95 3.4 -7.0 2.85" fill="none" stroke="#000000" stroke-linecap="round" stroke-linejoin="round" stroke-opacity="0.0" stroke-width="1.0">
      <animate attributeName="stroke" dur="2s" repeatCount="indefinite" values="#000000;#000001"/>
      <animate attributeName="stroke-width" dur="2s" repeatCount="indefinite" values="0.0;0.0"/>
      <animate attributeName="fill-opacity" dur="2s" repeatCount="indefinite" values="0.0;0.0"/>
      <animate attributeName="d" dur="2s" repeatCount="indefinite" values="M-7.0 2.85 L-6.95 2.55 Q-6.75 2.25 -6.4 2.3 L-6.3 2.3 -6.1 2.05 Q-5.6 2.05 -5.05 2.1 L-5.05 2.1 -4.9 2.2 -4.75 2.25 -4.65 2.2 -4.5 2.05 -4.5 2.05 -4.5 1.65 -4.5 1.35 -4.35 1.2 -4.0 1.05 Q-3.55 1.3 -3.5 1.8 L-3.5 2.05 -3.6 2.4 Q-3.8 2.65 -4.0 2.95 L-4.0 3.05 -4.0 3.25 -4.1 3.35 -4.15 3.6 -4.8 3.65 -5.05 3.35 -5.1 3.35 -5.35 3.3 -5.75 3.95 -5.85 4.0 -6.1 4.1 -6.5 4.3 -6.95 4.05 -6.95 3.95 Q-6.95 3.4 -7.0 2.85;M-5.55 6.95 L-5.55 6.65 Q-5.55 6.25 -5.5 5.85 L-5.5 5.75 -5.5 5.45 Q-5.15 4.9 -4.5 5.25 L-4.4 5.25 -4.3 5.2 -4.1 5.15 -4.0 5.15 -3.65 5.3 -3.65 5.3 -3.25 5.35 -2.95 5.5 -2.85 5.55 -2.75 5.1 Q-2.5 4.8 -2.25 4.45 L-2.1 4.35 -1.75 4.55 Q-1.45 4.85 -1.65 5.25 L-1.8 5.45 -1.9 5.55 -1.9 5.75 -1.9 6.05 -1.9 6.6 -2.0 6.85 -2.0 6.85 -2.3 7.05 -3.1 6.9 -3.2 6.9 -3.55 6.9 -4.0 6.6 -4.45 6.7 -4.55 6.7 Q-4.8 7.5 -5.55 6.95"/>
    </path>
  </g>
</svg>
