<?xml version="1.0" encoding="UTF-8" standalone="no"?>
<svg xmlns:xlink="http://www.w3.org/1999/xlink" height="6.2px" width="3.6px" xmlns="http://www.w3.org/2000/svg">
  <g transform="matrix(1.0, 0.0, 0.0, 1.0, -2.25, 5.9)">
    <path d="M2.25 -3.55 L2.25 -3.55 2.3 -3.2 Q2.55 -2.9 2.85 -3.05 L2.95 -3.15 Q3.4 -3.55 3.5 -4.15 L3.8 -3.8 Q4.15 -3.55 4.45 -3.5 5.0 -3.45 5.35 -4.1 L5.6 -4.9 5.15 -5.65 4.7 -5.4 4.65 -5.2 4.6 -5.0 4.6 -5.0 4.4 -5.0 4.15 -4.95 4.1 -5.05 3.65 -5.45 3.6 -5.55 3.6 -5.55 3.6 -5.65 3.15 -5.9 3.15 -5.85 2.85 -5.75 2.75 -5.65 2.7 -5.55 2.65 -5.05 2.65 -4.95 2.65 -4.75 2.5 -4.15 2.35 -3.95 2.3 -3.85 2.25 -3.55" fill="#000000" fill-rule="evenodd" stroke="none">
      <animate attributeName="fill" dur="2s" repeatCount="indefinite" values="#000000;#000001"/>
      <animate attributeName="fill-opacity" dur="2s" repeatCount="indefinite" values="1.0;1.0"/>
      <animate attributeName="d" dur="2s" repeatCount="indefinite" values="M2.25 -3.55 L2.25 -3.55 2.3 -3.2 Q2.55 -2.9 2.85 -3.05 L2.95 -3.15 Q3.4 -3.55 3.5 -4.15 L3.8 -3.8 Q4.15 -3.55 4.45 -3.5 5.0 -3.45 5.35 -4.1 L5.6 -4.9 5.15 -5.65 4.7 -5.4 4.65 -5.2 4.6 -5.0 4.6 -5.0 4.4 -5.0 4.15 -4.95 4.1 -5.05 3.65 -5.45 3.6 -5.55 3.6 -5.55 3.6 -5.65 3.15 -5.9 3.15 -5.85 2.85 -5.75 2.75 -5.65 2.7 -5.55 2.65 -5.05 2.65 -4.95 2.65 -4.75 2.5 -4.15 2.35 -3.95 2.3 -3.85 2.25 -3.55;M2.8 -0.7 L2.9 -0.55 3.1 -0.45 Q3.35 -0.5 3.55 -0.55 L3.55 -0.55 Q3.85 -0.3 4.15 -0.25 L4.45 -0.3 Q4.6 -0.15 4.7 0.0 5.15 0.15 5.6 0.25 L5.8 -0.3 5.85 -0.9 5.35 -1.25 5.15 -1.25 4.95 -1.2 4.95 -1.2 4.95 -1.2 4.75 -1.4 4.7 -1.45 4.25 -1.6 4.15 -1.6 4.05 -1.6 4.0 -1.65 3.8 -2.05 3.75 -2.15 3.4 -2.4 3.25 -2.35 3.15 -2.3 2.95 -2.1 2.95 -2.1 2.9 -1.85 2.8 -1.3 2.8 -1.0 2.8 -0.9 2.8 -0.7"/>
    </path>
    <path d="M2.25 -3.55 L2.3 -3.85 2.35 -3.95 2.5 -4.15 2.65 -4.75 2.65 -4.95 2.65 -5.05 2.7 -5.55 2.75 -5.65 2.85 -5.75 3.15 -5.85 3.15 -5.9 3.6 -5.65 3.6 -5.55 3.6 -5.55 3.65 -5.45 4.1 -5.05 4.15 -4.95 4.4 -5.0 4.6 -5.0 4.6 -5.0 4.65 -5.2 4.7 -5.4 5.15 -5.65 5.6 -4.9 5.35 -4.1 Q5.0 -3.45 4.45 -3.5 4.15 -3.55 3.8 -3.8 L3.5 -4.15 Q3.4 -3.55 2.95 -3.15 L2.85 -3.05 Q2.55 -2.9 2.3 -3.2 L2.25 -3.55 2.25 -3.55" fill="none" stroke="#000000" stroke-linecap="round" stroke-linejoin="round" stroke-opacity="0.0" stroke-width="1.0">
      <animate attributeName="stroke" dur="2s" repeatCount="indefinite" values="#000000;#000001"/>
      <animate attributeName="stroke-width" dur="2s" repeatCount="indefinite" values="0.0;0.0"/>
      <animate attributeName="fill-opacity" dur="2s" repeatCount="indefinite" values="0.0;0.0"/>
      <animate attributeName="d" dur="2s" repeatCount="indefinite" values="M2.25 -3.55 L2.3 -3.85 2.35 -3.95 2.5 -4.15 2.65 -4.75 2.65 -4.95 2.65 -5.05 2.7 -5.55 2.75 -5.65 2.85 -5.75 3.15 -5.85 3.15 -5.9 3.6 -5.65 3.6 -5.55 3.6 -5.55 3.65 -5.45 4.1 -5.05 4.15 -4.95 4.4 -5.0 4.6 -5.0 4.6 -5.0 4.65 -5.2 4.7 -5.4 5.15 -5.65 5.6 -4.9 5.35 -4.1 Q5.0 -3.45 4.45 -3.5 4.15 -3.55 3.8 -3.8 L3.5 -4.15 Q3.4 -3.55 2.95 -3.15 L2.85 -3.05 Q2.55 -2.9 2.3 -3.2 L2.25 -3.55 2.25 -3.55;M2.8 -0.7 L2.8 -0.9 2.8 -1.0 2.8 -1.3 2.9 -1.85 2.95 -2.1 2.95 -2.1 3.15 -2.3 3.25 -2.35 3.4 -2.4 3.75 -2.15 3.8 -2.05 4.0 -1.65 4.05 -1.6 4.15 -1.6 4.25 -1.6 4.7 -1.45 4.75 -1.4 4.95 -1.2 4.95 -1.2 4.95 -1.2 5.15 -1.25 5.35 -1.25 5.85 -0.9 5.8 -0.3 5.6 0.25 Q5.15 0.15 4.7 0.0 4.6 -0.15 4.45 -0.3 L4.15 -0.25 Q3.85 -0.3 3.55 -0.55 L3.55 -0.55 Q3.35 -0.5 3.1 -0.45 L2.9 -0.55 2.8 -0.7"/>
    </path>
  </g>
</svg>
