<?xml version="1.0" encoding="UTF-8" standalone="no"?>
<svg xmlns:xlink="http://www.w3.org/1999/xlink" height="5.2px" width="6.4px" xmlns="http://www.w3.org/2000/svg">
  <g transform="matrix(1.0, 0.0, 0.0, 1.0, 10.7, -4.55)">
    <path d="M-10.7 6.8 L-10.65 6.9 -10.25 7.05 Q-9.7 6.95 -9.65 6.55 L-9.65 6.35 -9.35 6.35 -9.15 6.35 -9.0 6.45 -8.7 6.55 -8.1 6.25 -7.6 6.0 Q-7.2 5.55 -7.25 5.2 -7.3 4.8 -7.75 4.55 L-7.9 4.55 -8.0 4.6 -8.1 4.75 -8.1 4.85 -8.3 5.15 -8.5 5.15 -8.6 5.2 -8.7 5.2 -8.9 5.2 -9.0 5.1 -9.1 5.1 -9.65 4.95 -9.75 4.8 Q-10.0 4.75 -10.25 4.7 L-10.35 4.75 -10.45 5.05 -10.5 5.35 Q-10.6 6.1 -10.7 6.8" fill="#000000" fill-rule="evenodd" stroke="none">
      <animate attributeName="fill" dur="2s" repeatCount="indefinite" values="#000000;#000001"/>
      <animate attributeName="fill-opacity" dur="2s" repeatCount="indefinite" values="1.0;1.0"/>
      <animate attributeName="d" dur="2s" repeatCount="indefinite" values="M-10.7 6.8 L-10.65 6.9 -10.25 7.05 Q-9.7 6.95 -9.65 6.55 L-9.65 6.35 -9.35 6.35 -9.15 6.35 -9.0 6.45 -8.7 6.55 -8.1 6.25 -7.6 6.0 Q-7.2 5.55 -7.25 5.2 -7.3 4.8 -7.75 4.55 L-7.9 4.55 -8.0 4.6 -8.1 4.75 -8.1 4.85 -8.3 5.15 -8.5 5.15 -8.6 5.2 -8.7 5.2 -8.9 5.2 -9.0 5.1 -9.1 5.1 -9.65 4.95 -9.75 4.8 Q-10.0 4.75 -10.25 4.7 L-10.35 4.75 -10.45 5.05 -10.5 5.35 Q-10.6 6.1 -10.7 6.8;M-7.8 9.3 L-7.8 9.3 -7.25 9.45 Q-6.9 9.25 -6.55 9.05 L-6.45 9.15 -6.3 9.35 -6.1 9.45 -6.0 9.45 -5.8 9.4 -5.15 9.75 -4.7 9.65 Q-4.45 9.45 -4.35 8.9 -4.35 8.5 -4.35 8.15 L-4.4 8.05 -4.5 7.9 -4.75 7.65 -4.85 7.55 -5.15 7.65 -5.25 7.75 -5.3 7.85 -5.3 7.95 -5.3 8.05 -5.35 8.15 -5.35 8.2 -5.9 8.05 -6.1 8.05 Q-6.35 7.75 -6.75 7.75 L-6.85 7.75 -7.15 7.8 -7.4 7.9 Q-8.05 8.4 -7.8 9.3"/>
    </path>
    <path d="M-10.7 6.8 Q-10.6 6.1 -10.5 5.35 L-10.45 5.05 -10.35 4.75 -10.25 4.7 Q-10.0 4.75 -9.75 4.8 L-9.65 4.95 -9.1 5.1 -9.0 5.1 -8.9 5.2 -8.7 5.2 -8.6 5.2 -8.5 5.15 -8.3 5.15 -8.1 4.85 -8.1 4.75 -8.0 4.6 -7.9 4.55 -7.75 4.55 Q-7.3 4.8 -7.25 5.2 -7.2 5.55 -7.6 6.0 L-8.1 6.25 -8.7 6.55 -9.0 6.45 -9.15 6.35 -9.35 6.35 -9.65 6.35 -9.65 6.55 Q-9.7 6.95 -10.25 7.05 L-10.65 6.9 -10.7 6.8" fill="none" stroke="#000000" stroke-linecap="round" stroke-linejoin="round" stroke-opacity="0.0" stroke-width="1.0">
      <animate attributeName="stroke" dur="2s" repeatCount="indefinite" values="#000000;#000001"/>
      <animate attributeName="stroke-width" dur="2s" repeatCount="indefinite" values="0.0;0.0"/>
      <animate attributeName="fill-opacity" dur="2s" repeatCount="indefinite" values="0.0;0.0"/>
      <animate attributeName="d" dur="2s" repeatCount="indefinite" values="M-10.7 6.8 Q-10.6 6.1 -10.5 5.35 L-10.45 5.05 -10.35 4.75 -10.25 4.7 Q-10.0 4.75 -9.75 4.8 L-9.65 4.95 -9.1 5.1 -9.0 5.1 -8.9 5.2 -8.7 5.2 -8.6 5.2 -8.5 5.15 -8.3 5.15 -8.1 4.85 -8.1 4.75 -8.0 4.6 -7.9 4.55 -7.75 4.55 Q-7.3 4.8 -7.25 5.2 -7.2 5.55 -7.6 6.0 L-8.1 6.25 -8.7 6.55 -9.0 6.45 -9.15 6.35 -9.35 6.35 -9.65 6.35 -9.65 6.55 Q-9.7 6.95 -10.25 7.05 L-10.65 6.9 -10.7 6.8;M-7.8 9.3 Q-8.05 8.4 -7.4 7.9 L-7.15 7.8 -6.85 7.75 -6.75 7.75 Q-6.35 7.75 -6.1 8.05 L-5.9 8.05 -5.35 8.2 -5.35 8.15 -5.3 8.05 -5.3 7.95 -5.3 7.85 -5.25 7.75 -5.15 7.65 -4.85 7.55 -4.75 7.65 -4.5 7.9 -4.4 8.05 -4.35 8.15 Q-4.35 8.5 -4.35 8.9 -4.45 9.45 -4.7 9.65 L-5.15 9.75 -5.8 9.4 -6.0 9.45 -6.1 9.45 -6.3 9.35 -6.45 9.15 -6.55 9.05 Q-6.9 9.25 -7.25 9.45 L-7.8 9.3 -7.8 9.3"/>
    </path>
  </g>
</svg>
