<?xml version="1.0" encoding="UTF-8" standalone="no"?>
<svg xmlns:xlink="http://www.w3.org/1999/xlink" height="5.35px" width="5.3px" xmlns="http://www.w3.org/2000/svg">
  <g transform="matrix(1.0, 0.0, 0.0, 1.0, 7.9, -7.55)">
    <path d="M-7.8 9.3 L-7.6 9.4 Q-6.95 9.6 -6.55 9.05 L-6.45 9.15 -6.45 9.25 -6.2 9.4 -6.0 9.45 -5.8 9.4 -5.8 9.4 -5.05 9.75 Q-4.55 9.8 -4.35 8.9 -4.2 8.15 -4.6 7.75 L-4.85 7.55 -4.85 7.55 -5.3 7.75 -5.3 7.85 -5.3 7.95 -5.35 8.15 -5.35 8.2 -5.65 8.1 -5.7 8.1 -6.1 8.05 Q-6.35 7.9 -6.55 7.75 L-6.65 7.75 -6.75 7.75 -6.85 7.75 -7.05 7.8 -7.15 7.8 -7.4 7.9 -7.65 8.2 -7.8 8.35 -7.85 8.45 -7.9 8.75 -7.8 9.3" fill="#000000" fill-rule="evenodd" stroke="none">
      <animate attributeName="fill" dur="2s" repeatCount="indefinite" values="#000000;#000001"/>
      <animate attributeName="fill-opacity" dur="2s" repeatCount="indefinite" values="1.0;1.0"/>
      <animate attributeName="d" dur="2s" repeatCount="indefinite" values="M-7.8 9.3 L-7.6 9.4 Q-6.95 9.6 -6.55 9.05 L-6.45 9.15 -6.45 9.25 -6.2 9.4 -6.0 9.45 -5.8 9.4 -5.8 9.4 -5.05 9.75 Q-4.55 9.8 -4.35 8.9 -4.2 8.15 -4.6 7.75 L-4.85 7.55 -4.85 7.55 -5.3 7.75 -5.3 7.85 -5.3 7.95 -5.35 8.15 -5.35 8.2 -5.65 8.1 -5.7 8.1 -6.1 8.05 Q-6.35 7.9 -6.55 7.75 L-6.65 7.75 -6.75 7.75 -6.85 7.75 -7.05 7.8 -7.15 7.8 -7.4 7.9 -7.65 8.2 -7.8 8.35 -7.85 8.45 -7.9 8.75 -7.8 9.3;M-5.8 12.05 L-5.8 12.05 Q-5.25 12.2 -4.75 12.35 L-4.7 12.45 -4.7 12.55 -4.45 12.7 -4.15 12.85 -3.85 12.9 -3.85 12.9 -3.1 12.65 Q-2.85 12.25 -2.6 11.9 -2.5 11.45 -3.0 11.1 L-3.2 11.2 -3.2 11.2 -3.5 11.5 -3.5 11.5 -3.6 11.5 -3.9 11.3 -4.0 11.3 -4.4 11.2 -4.4 11.15 -4.5 10.8 Q-4.6 10.65 -4.85 10.6 L-4.85 10.65 -5.0 10.65 -5.05 10.7 -5.15 10.75 -5.15 10.85 -5.35 11.0 -5.55 11.1 -5.6 11.3 -5.6 11.4 -5.75 11.6 -5.8 12.05"/>
    </path>
    <path d="M-7.8 9.3 L-7.9 8.75 -7.85 8.45 -7.8 8.35 -7.65 8.2 -7.4 7.9 -7.15 7.8 -7.05 7.8 -6.85 7.75 -6.75 7.75 -6.65 7.75 -6.55 7.75 Q-6.35 7.9 -6.1 8.05 L-5.7 8.1 -5.65 8.1 -5.35 8.2 -5.35 8.15 -5.3 7.95 -5.3 7.85 -5.3 7.75 -4.85 7.55 -4.85 7.55 -4.6 7.75 Q-4.2 8.15 -4.35 8.9 -4.55 9.8 -5.05 9.75 L-5.8 9.4 -5.8 9.4 -6.0 9.45 -6.2 9.4 -6.45 9.25 -6.45 9.15 -6.55 9.05 Q-6.95 9.6 -7.6 9.4 L-7.8 9.3" fill="none" stroke="#000000" stroke-linecap="round" stroke-linejoin="round" stroke-opacity="0.0" stroke-width="1.0">
      <animate attributeName="stroke" dur="2s" repeatCount="indefinite" values="#000000;#000001"/>
      <animate attributeName="stroke-width" dur="2s" repeatCount="indefinite" values="0.0;0.0"/>
      <animate attributeName="fill-opacity" dur="2s" repeatCount="indefinite" values="0.0;0.0"/>
      <animate attributeName="d" dur="2s" repeatCount="indefinite" values="M-7.8 9.3 L-7.9 8.75 -7.85 8.45 -7.8 8.35 -7.65 8.2 -7.4 7.9 -7.15 7.8 -7.05 7.8 -6.85 7.75 -6.75 7.75 -6.65 7.75 -6.55 7.75 Q-6.35 7.9 -6.1 8.05 L-5.7 8.1 -5.65 8.1 -5.35 8.2 -5.35 8.15 -5.3 7.95 -5.3 7.85 -5.3 7.75 -4.85 7.55 -4.85 7.55 -4.6 7.75 Q-4.2 8.15 -4.35 8.9 -4.55 9.8 -5.05 9.75 L-5.8 9.4 -5.8 9.4 -6.0 9.45 -6.2 9.4 -6.45 9.25 -6.45 9.15 -6.55 9.05 Q-6.95 9.6 -7.6 9.4 L-7.8 9.3;M-5.8 12.05 L-5.75 11.6 -5.6 11.4 -5.6 11.3 -5.55 11.1 -5.35 11.0 -5.15 10.85 -5.15 10.75 -5.05 10.7 -5.0 10.65 -4.85 10.65 -4.85 10.6 Q-4.6 10.65 -4.5 10.8 L-4.4 11.15 -4.4 11.2 -4.0 11.3 -3.9 11.3 -3.6 11.5 -3.5 11.5 -3.5 11.5 -3.2 11.2 -3.2 11.2 -3.0 11.1 Q-2.5 11.45 -2.6 11.9 -2.85 12.25 -3.1 12.65 L-3.85 12.9 -3.85 12.9 -4.15 12.85 -4.45 12.7 -4.7 12.55 -4.7 12.45 -4.75 12.35 Q-5.25 12.2 -5.8 12.05 L-5.8 12.05"/>
    </path>
  </g>
</svg>
