<?xml version="1.0" encoding="UTF-8" standalone="no"?>
<svg xmlns:xlink="http://www.w3.org/1999/xlink" height="4.65px" width="4.0px" xmlns="http://www.w3.org/2000/svg">
  <g transform="matrix(1.0, 0.0, 0.0, 1.0, 7.05, 3.7)">
    <path d="M-6.8 -2.3 L-6.55 -2.15 -6.35 -2.05 -6.15 -2.1 Q-5.65 -1.6 -5.05 -1.9 L-4.65 -1.6 Q-4.3 -1.45 -3.9 -1.8 L-3.5 -1.9 Q-3.05 -2.2 -3.05 -2.85 L-3.05 -2.95 -3.05 -2.95 -3.15 -3.1 Q-3.55 -3.65 -4.05 -3.0 L-4.3 -2.9 -4.55 -2.9 -4.6 -2.95 -4.7 -3.05 -5.0 -3.2 -5.2 -3.2 -5.4 -3.2 -5.4 -3.3 -5.85 -3.7 -5.9 -3.7 -6.0 -3.7 -6.15 -3.7 -6.25 -3.65 -6.45 -3.5 -6.45 -3.4 -6.5 -3.2 -6.55 -3.15 -6.65 -3.05 -6.8 -2.3" fill="#000000" fill-rule="evenodd" stroke="none">
      <animate attributeName="fill" dur="2s" repeatCount="indefinite" values="#000000;#000001"/>
      <animate attributeName="fill-opacity" dur="2s" repeatCount="indefinite" values="1.0;1.0"/>
      <animate attributeName="d" dur="2s" repeatCount="indefinite" values="M-6.8 -2.3 L-6.55 -2.15 -6.35 -2.05 -6.15 -2.1 Q-5.65 -1.6 -5.05 -1.9 L-4.65 -1.6 Q-4.3 -1.45 -3.9 -1.8 L-3.5 -1.9 Q-3.05 -2.2 -3.05 -2.85 L-3.05 -2.95 -3.05 -2.95 -3.15 -3.1 Q-3.55 -3.65 -4.05 -3.0 L-4.3 -2.9 -4.55 -2.9 -4.6 -2.95 -4.7 -3.05 -5.0 -3.2 -5.2 -3.2 -5.4 -3.2 -5.4 -3.3 -5.85 -3.7 -5.9 -3.7 -6.0 -3.7 -6.15 -3.7 -6.25 -3.65 -6.45 -3.5 -6.45 -3.4 -6.5 -3.2 -6.55 -3.15 -6.65 -3.05 -6.8 -2.3;M-7.05 0.45 L-7.05 0.45 -6.65 0.6 -6.4 0.7 Q-5.8 0.8 -5.25 0.85 L-4.85 0.8 Q-4.55 0.9 -4.25 0.95 L-3.9 0.9 Q-3.45 0.65 -3.3 0.0 L-3.3 -0.1 -3.3 -0.2 -3.4 -0.45 Q-3.9 -0.9 -4.2 -0.45 L-4.35 -0.2 -4.45 -0.3 -4.5 -0.3 -4.85 -0.45 -5.05 -0.4 -5.3 -0.4 -5.4 -0.45 -5.5 -0.55 -5.9 -0.65 -5.95 -0.7 -5.95 -0.7 -5.95 -0.7 -6.05 -0.85 -6.35 -0.95 -6.65 -0.8 -6.8 -0.65 -6.9 -0.55 -7.0 -0.25 -7.05 0.45"/>
    </path>
    <path d="M-6.8 -2.3 L-6.65 -3.05 -6.55 -3.15 -6.5 -3.2 -6.45 -3.4 -6.45 -3.5 -6.25 -3.65 -6.15 -3.7 -6.0 -3.7 -5.9 -3.7 -5.85 -3.7 -5.4 -3.3 -5.4 -3.2 -5.2 -3.2 -5.0 -3.2 -4.7 -3.05 -4.6 -2.95 -4.55 -2.9 -4.3 -2.9 -4.05 -3.0 Q-3.55 -3.65 -3.15 -3.1 L-3.05 -2.95 -3.05 -2.95 -3.05 -2.85 Q-3.05 -2.2 -3.5 -1.9 L-3.9 -1.8 Q-4.3 -1.45 -4.65 -1.6 L-5.05 -1.9 Q-5.65 -1.6 -6.15 -2.1 L-6.35 -2.05 -6.55 -2.15 -6.8 -2.3" fill="none" stroke="#000000" stroke-linecap="round" stroke-linejoin="round" stroke-opacity="0.0" stroke-width="1.0">
      <animate attributeName="stroke" dur="2s" repeatCount="indefinite" values="#000000;#000001"/>
      <animate attributeName="stroke-width" dur="2s" repeatCount="indefinite" values="0.0;0.0"/>
      <animate attributeName="fill-opacity" dur="2s" repeatCount="indefinite" values="0.0;0.0"/>
      <animate attributeName="d" dur="2s" repeatCount="indefinite" values="M-6.8 -2.3 L-6.65 -3.05 -6.55 -3.15 -6.5 -3.2 -6.45 -3.4 -6.45 -3.5 -6.25 -3.65 -6.15 -3.7 -6.0 -3.7 -5.9 -3.7 -5.85 -3.7 -5.4 -3.3 -5.4 -3.2 -5.2 -3.2 -5.0 -3.2 -4.7 -3.05 -4.6 -2.95 -4.55 -2.9 -4.3 -2.9 -4.05 -3.0 Q-3.55 -3.65 -3.15 -3.1 L-3.05 -2.95 -3.05 -2.95 -3.05 -2.85 Q-3.05 -2.2 -3.5 -1.9 L-3.9 -1.8 Q-4.3 -1.45 -4.65 -1.6 L-5.05 -1.9 Q-5.65 -1.6 -6.15 -2.1 L-6.35 -2.05 -6.55 -2.15 -6.8 -2.3;M-7.05 0.45 L-7.0 -0.25 -6.9 -0.55 -6.8 -0.65 -6.65 -0.8 -6.35 -0.95 -6.05 -0.85 -5.95 -0.7 -5.95 -0.7 -5.95 -0.7 -5.9 -0.65 -5.5 -0.55 -5.4 -0.45 -5.3 -0.4 -5.05 -0.4 -4.85 -0.45 -4.5 -0.3 -4.45 -0.3 -4.35 -0.2 -4.2 -0.45 Q-3.9 -0.9 -3.4 -0.45 L-3.3 -0.2 -3.3 -0.1 -3.3 0.0 Q-3.45 0.65 -3.9 0.9 L-4.25 0.95 Q-4.55 0.9 -4.85 0.8 L-5.25 0.85 Q-5.8 0.8 -6.4 0.7 L-6.65 0.6 -7.05 0.45 -7.05 0.45"/>
    </path>
  </g>
</svg>
