<?xml version="1.0" encoding="UTF-8" standalone="no"?>
<svg xmlns:xlink="http://www.w3.org/1999/xlink" height="5.7px" width="3.9px" xmlns="http://www.w3.org/2000/svg">
  <g transform="matrix(1.0, 0.0, 0.0, 1.0, 4.2, -8.35)">
    <path d="M-4.1 9.7 L-4.1 9.7 -4.05 10.7 -3.85 10.9 -3.8 10.9 -3.6 10.95 -3.3 10.85 -3.15 10.7 -2.95 10.65 -2.8 10.55 -2.65 10.55 -2.6 10.75 -2.55 10.95 -2.45 11.1 -2.35 11.35 Q-2.2 12.0 -1.6 12.1 L-1.6 12.1 -1.2 12.15 -0.85 12.05 Q-0.5 11.8 -0.55 11.15 L-0.75 10.75 -1.0 10.65 -1.5 10.7 -1.85 9.75 -1.9 9.55 -1.9 9.45 Q-2.0 8.8 -2.4 8.45 L-2.5 8.35 -2.55 8.4 -2.65 8.4 Q-2.8 8.55 -2.95 8.65 L-3.0 8.95 -3.0 8.95 -3.15 9.25 Q-3.7 8.95 -4.05 9.4 L-4.1 9.7" fill="#000000" fill-rule="evenodd" stroke="none">
      <animate attributeName="fill" dur="2s" repeatCount="indefinite" values="#000000;#000001"/>
      <animate attributeName="fill-opacity" dur="2s" repeatCount="indefinite" values="1.0;1.0"/>
      <animate attributeName="d" dur="2s" repeatCount="indefinite" values="M-4.1 9.7 L-4.1 9.7 -4.05 10.7 -3.85 10.9 -3.8 10.9 -3.6 10.95 -3.3 10.85 -3.15 10.7 -2.95 10.65 -2.8 10.55 -2.65 10.55 -2.6 10.75 -2.55 10.95 -2.45 11.1 -2.35 11.35 Q-2.2 12.0 -1.6 12.1 L-1.6 12.1 -1.2 12.15 -0.85 12.05 Q-0.5 11.8 -0.55 11.15 L-0.75 10.75 -1.0 10.65 -1.5 10.7 -1.85 9.75 -1.9 9.55 -1.9 9.45 Q-2.0 8.8 -2.4 8.45 L-2.5 8.35 -2.55 8.4 -2.65 8.4 Q-2.8 8.55 -2.95 8.65 L-3.0 8.95 -3.0 8.95 -3.15 9.25 Q-3.7 8.95 -4.05 9.4 L-4.1 9.7;M-4.2 12.3 L-4.05 12.4 -3.35 12.55 -3.15 12.45 -3.05 12.5 -2.9 12.6 -2.8 12.7 -2.8 12.9 -2.85 13.05 -2.85 13.15 -2.8 13.45 -2.8 13.6 -2.8 13.7 -2.8 13.8 -2.5 14.0 Q-2.1 14.2 -1.75 13.8 L-1.75 13.8 -1.65 13.6 -1.4 13.3 Q-0.9 13.2 -0.45 13.15 L-0.3 12.9 -0.4 12.7 -0.7 12.55 -1.6 12.25 -1.9 12.15 -1.9 12.05 Q-2.0 11.65 -2.4 11.55 L-2.4 11.55 -2.4 11.45 -2.5 11.3 Q-2.6 11.15 -2.8 11.1 L-3.0 11.1 -3.25 11.2 -3.55 11.35 Q-3.85 11.75 -4.15 12.1 L-4.2 12.3"/>
    </path>
    <path d="M-4.1 9.7 L-4.05 9.4 Q-3.7 8.95 -3.15 9.25 L-3.0 8.95 -3.0 8.95 -2.95 8.65 Q-2.8 8.55 -2.65 8.4 L-2.55 8.4 -2.5 8.35 -2.4 8.45 Q-2.0 8.8 -1.9 9.45 L-1.9 9.55 -1.85 9.75 -1.5 10.7 -1.0 10.65 -0.75 10.75 -0.55 11.15 Q-0.5 11.8 -0.85 12.05 L-1.2 12.15 -1.6 12.1 -1.6 12.1 Q-2.2 12.0 -2.35 11.35 L-2.45 11.1 -2.55 10.95 -2.6 10.75 -2.65 10.55 -2.8 10.55 -2.95 10.65 -3.15 10.7 -3.3 10.85 -3.6 10.95 -3.8 10.9 -3.85 10.9 -4.05 10.7 -4.1 9.7 -4.1 9.7" fill="none" stroke="#000000" stroke-linecap="round" stroke-linejoin="round" stroke-opacity="0.0" stroke-width="1.0">
      <animate attributeName="stroke" dur="2s" repeatCount="indefinite" values="#000000;#000001"/>
      <animate attributeName="stroke-width" dur="2s" repeatCount="indefinite" values="0.0;0.0"/>
      <animate attributeName="fill-opacity" dur="2s" repeatCount="indefinite" values="0.0;0.0"/>
      <animate attributeName="d" dur="2s" repeatCount="indefinite" values="M-4.1 9.7 L-4.05 9.4 Q-3.7 8.95 -3.15 9.25 L-3.0 8.95 -3.0 8.95 -2.95 8.65 Q-2.8 8.55 -2.65 8.4 L-2.55 8.4 -2.5 8.35 -2.4 8.45 Q-2.0 8.8 -1.9 9.45 L-1.9 9.55 -1.85 9.75 -1.5 10.7 -1.0 10.65 -0.75 10.75 -0.55 11.15 Q-0.5 11.8 -0.85 12.05 L-1.2 12.15 -1.6 12.1 -1.6 12.1 Q-2.2 12.0 -2.35 11.35 L-2.45 11.1 -2.55 10.95 -2.6 10.75 -2.65 10.55 -2.8 10.55 -2.95 10.65 -3.15 10.7 -3.3 10.85 -3.6 10.95 -3.8 10.9 -3.85 10.9 -4.05 10.7 -4.1 9.7 -4.1 9.7;M-4.2 12.3 L-4.15 12.1 Q-3.85 11.75 -3.55 11.35 L-3.25 11.2 -3.0 11.1 -2.8 11.1 Q-2.6 11.15 -2.5 11.3 L-2.4 11.45 -2.4 11.55 -2.4 11.55 Q-2.0 11.65 -1.9 12.05 L-1.9 12.15 -1.6 12.25 -0.7 12.55 -0.4 12.7 -0.3 12.9 -0.45 13.15 Q-0.9 13.2 -1.4 13.3 L-1.65 13.6 -1.75 13.8 -1.75 13.8 Q-2.1 14.2 -2.5 14.0 L-2.8 13.8 -2.8 13.7 -2.8 13.6 -2.8 13.45 -2.85 13.15 -2.85 13.05 -2.8 12.9 -2.8 12.7 -2.9 12.6 -3.05 12.5 -3.15 12.45 -3.35 12.55 -4.05 12.4 -4.2 12.3"/>
    </path>
  </g>
</svg>
