<?xml version="1.0" encoding="UTF-8" standalone="no"?>
<svg xmlns:xlink="http://www.w3.org/1999/xlink" height="5.25px" width="4.5px" xmlns="http://www.w3.org/2000/svg">
  <g transform="matrix(1.0, 0.0, 0.0, 1.0, -4.9, -6.3)">
    <path d="M5.7 7.15 L5.7 7.15 5.7 7.5 5.7 7.7 6.0 7.9 6.15 7.95 6.25 7.95 6.35 7.9 6.5 7.9 6.85 8.05 7.45 7.9 8.15 7.9 8.15 7.9 Q8.95 7.75 9.25 7.2 L9.35 7.0 9.4 6.8 9.3 6.6 8.85 6.55 Q8.4 6.55 7.95 6.85 L7.85 6.95 7.8 6.9 7.8 6.9 7.6 6.75 7.5 6.7 7.0 6.7 6.85 6.6 6.8 6.55 6.65 6.4 6.4 6.3 6.25 6.3 6.2 6.35 6.05 6.5 5.8 6.8 5.8 6.9 5.7 7.15" fill="#000000" fill-rule="evenodd" stroke="none">
      <animate attributeName="fill" dur="2s" repeatCount="indefinite" values="#000000;#000001"/>
      <animate attributeName="fill-opacity" dur="2s" repeatCount="indefinite" values="1.0;1.0"/>
      <animate attributeName="d" dur="2s" repeatCount="indefinite" values="M5.7 7.15 L5.7 7.15 5.7 7.5 5.7 7.7 6.0 7.9 6.15 7.95 6.25 7.95 6.35 7.9 6.5 7.9 6.85 8.05 7.45 7.9 8.15 7.9 8.15 7.9 Q8.95 7.75 9.25 7.2 L9.35 7.0 9.4 6.8 9.3 6.6 8.85 6.55 Q8.4 6.55 7.95 6.85 L7.85 6.95 7.8 6.9 7.8 6.9 7.6 6.75 7.5 6.7 7.0 6.7 6.85 6.6 6.8 6.55 6.65 6.4 6.4 6.3 6.25 6.3 6.2 6.35 6.05 6.5 5.8 6.8 5.8 6.9 5.7 7.15;M4.9 10.75 L4.9 11.0 4.95 11.3 5.05 11.4 5.4 11.55 5.5 11.5 5.6 11.5 5.7 11.5 5.75 11.4 5.85 11.1 6.55 11.05 7.3 11.05 7.4 11.05 Q8.2 11.05 8.2 10.3 L8.3 10.2 8.45 10.0 8.45 9.7 8.0 9.3 Q7.5 9.3 7.25 9.7 L7.25 9.8 7.25 9.9 7.25 10.0 7.0 10.05 6.95 10.05 6.65 9.7 6.55 9.65 6.45 9.65 6.1 9.75 5.5 9.8 5.4 9.8 5.4 9.8 5.15 10.0 4.95 10.35 4.95 10.45 4.9 10.75"/>
    </path>
    <path d="M5.7 7.15 L5.8 6.9 5.8 6.8 6.05 6.5 6.2 6.35 6.25 6.3 6.4 6.3 6.65 6.4 6.8 6.55 6.85 6.6 7.0 6.7 7.5 6.7 7.6 6.75 7.8 6.9 7.8 6.9 7.85 6.95 7.95 6.85 Q8.4 6.55 8.85 6.55 L9.3 6.6 9.4 6.8 9.35 7.0 9.25 7.2 Q8.95 7.75 8.15 7.9 L8.15 7.9 7.45 7.9 6.85 8.05 6.5 7.9 6.35 7.9 6.25 7.95 6.15 7.95 6.0 7.9 5.7 7.7 5.7 7.5 5.7 7.15 5.7 7.15" fill="none" stroke="#000000" stroke-linecap="round" stroke-linejoin="round" stroke-opacity="0.0" stroke-width="1.0">
      <animate attributeName="stroke" dur="2s" repeatCount="indefinite" values="#000000;#000001"/>
      <animate attributeName="stroke-width" dur="2s" repeatCount="indefinite" values="0.0;0.0"/>
      <animate attributeName="fill-opacity" dur="2s" repeatCount="indefinite" values="0.0;0.0"/>
      <animate attributeName="d" dur="2s" repeatCount="indefinite" values="M5.7 7.15 L5.8 6.9 5.8 6.8 6.05 6.5 6.2 6.35 6.25 6.3 6.4 6.3 6.65 6.4 6.8 6.55 6.85 6.6 7.0 6.7 7.5 6.7 7.6 6.75 7.8 6.9 7.8 6.9 7.85 6.95 7.95 6.85 Q8.4 6.55 8.85 6.55 L9.3 6.6 9.4 6.8 9.35 7.0 9.25 7.2 Q8.95 7.75 8.15 7.9 L8.15 7.9 7.45 7.9 6.85 8.05 6.5 7.9 6.35 7.9 6.25 7.95 6.15 7.95 6.0 7.9 5.7 7.7 5.7 7.5 5.7 7.15 5.7 7.15;M4.9 10.75 L4.95 10.45 4.95 10.35 5.15 10.0 5.4 9.8 5.4 9.8 5.5 9.8 6.1 9.75 6.45 9.65 6.55 9.65 6.65 9.7 6.95 10.05 7.0 10.05 7.25 10.0 7.25 9.9 7.25 9.8 7.25 9.7 Q7.5 9.3 8.0 9.3 L8.45 9.7 8.45 10.0 8.3 10.2 8.2 10.3 Q8.2 11.05 7.4 11.05 L7.3 11.05 6.55 11.05 5.85 11.1 5.75 11.4 5.7 11.5 5.6 11.5 5.5 11.5 5.4 11.55 5.05 11.4 4.95 11.3 4.9 11.0 4.9 10.75"/>
    </path>
  </g>
</svg>
