<?xml version="1.0" encoding="UTF-8" standalone="no"?>
<svg xmlns:xlink="http://www.w3.org/1999/xlink" height="5.15px" width="3.65px" xmlns="http://www.w3.org/2000/svg">
  <g transform="matrix(1.0, 0.0, 0.0, 1.0, -4.8, -9.3)">
    <path d="M4.9 10.75 L4.95 11.3 5.4 11.55 5.6 11.5 5.85 11.1 Q6.6 11.05 7.3 11.05 8.2 11.1 8.2 10.3 8.25 10.25 8.3 10.2 8.7 9.55 8.0 9.3 7.5 9.3 7.25 9.7 L7.25 9.9 7.25 10.0 Q7.1 10.05 7.0 10.05 6.95 10.05 6.95 10.05 6.75 9.4 6.1 9.75 5.25 9.55 4.95 10.45 4.9 10.6 4.9 10.75" fill="#000000" fill-rule="evenodd" stroke="none">
      <animate attributeName="fill" dur="2s" repeatCount="indefinite" values="#000000;#000001"/>
      <animate attributeName="fill-opacity" dur="2s" repeatCount="indefinite" values="1.0;1.0"/>
      <animate attributeName="d" dur="2s" repeatCount="indefinite" values="M4.9 10.75 L4.95 11.3 5.4 11.55 5.6 11.5 5.85 11.1 Q6.6 11.05 7.3 11.05 8.2 11.1 8.2 10.3 8.25 10.25 8.3 10.2 8.7 9.55 8.0 9.3 7.5 9.3 7.25 9.7 L7.25 9.9 7.25 10.0 Q7.1 10.05 7.0 10.05 6.95 10.05 6.95 10.05 6.75 9.4 6.1 9.75 5.25 9.55 4.95 10.45 4.9 10.6 4.9 10.75;M4.8 14.2 L5.25 14.45 5.45 14.4 5.7 13.95 6.35 13.45 Q7.0 13.55 7.35 13.0 7.45 12.95 7.55 12.9 8.75 12.1 7.75 11.35 7.65 11.4 7.6 11.4 7.4 11.45 7.3 11.65 L7.3 11.75 7.25 11.85 Q6.85 11.9 6.6 12.2 6.0 11.95 5.75 12.5 4.9 12.5 4.95 13.35 4.9 13.45 4.85 13.55 4.75 13.9 4.8 14.2"/>
    </path>
    <path d="M4.9 10.75 Q4.9 10.6 4.95 10.45 5.25 9.55 6.1 9.75 6.75 9.4 6.95 10.05 6.95 10.05 7.0 10.05 7.1 10.05 7.25 10.0 L7.25 9.9 7.25 9.7 Q7.5 9.3 8.0 9.3 8.7 9.55 8.3 10.2 8.25 10.25 8.2 10.3 8.2 11.1 7.3 11.05 6.6 11.05 5.85 11.1 L5.6 11.5 5.4 11.55 4.95 11.3 4.9 10.75" fill="none" stroke="#000000" stroke-linecap="round" stroke-linejoin="round" stroke-opacity="0.0" stroke-width="1.0">
      <animate attributeName="stroke" dur="2s" repeatCount="indefinite" values="#000000;#000001"/>
      <animate attributeName="stroke-width" dur="2s" repeatCount="indefinite" values="0.0;0.0"/>
      <animate attributeName="fill-opacity" dur="2s" repeatCount="indefinite" values="0.0;0.0"/>
      <animate attributeName="d" dur="2s" repeatCount="indefinite" values="M4.9 10.75 Q4.9 10.6 4.95 10.45 5.25 9.55 6.1 9.75 6.75 9.4 6.95 10.05 6.95 10.05 7.0 10.05 7.1 10.05 7.25 10.0 L7.25 9.9 7.25 9.7 Q7.5 9.3 8.0 9.3 8.7 9.55 8.3 10.2 8.25 10.25 8.2 10.3 8.2 11.1 7.3 11.05 6.6 11.05 5.85 11.1 L5.6 11.5 5.4 11.55 4.95 11.3 4.9 10.75;M4.8 14.2 Q4.75 13.9 4.85 13.55 4.9 13.45 4.95 13.35 4.9 12.5 5.75 12.5 6.0 11.95 6.6 12.2 6.85 11.9 7.25 11.85 L7.3 11.75 7.3 11.65 Q7.4 11.45 7.6 11.4 7.65 11.4 7.75 11.35 8.75 12.1 7.55 12.9 7.45 12.95 7.35 13.0 7.0 13.55 6.35 13.45 L5.7 13.95 5.45 14.4 5.25 14.45 4.8 14.2"/>
    </path>
  </g>
</svg>
