<?xml version="1.0" encoding="UTF-8" standalone="no"?>
<svg xmlns:xlink="http://www.w3.org/1999/xlink" height="4.75px" width="5.1px" xmlns="http://www.w3.org/2000/svg">
  <g transform="matrix(1.0, 0.0, 0.0, 1.0, 7.5, -1.55)">
    <path d="M-7.5 2.6 L-7.5 2.6 -7.5 2.9 -7.45 3.25 -7.45 3.55 -7.15 3.75 Q-6.85 3.9 -6.6 3.55 L-6.25 3.45 -6.15 3.45 Q-5.55 3.25 -5.0 3.1 L-4.8 3.4 Q-4.7 3.5 -4.55 3.55 L-4.55 3.55 -4.35 3.65 Q-3.7 3.8 -3.35 3.35 L-3.2 3.05 -3.05 2.65 Q-3.0 2.4 -3.2 2.25 L-3.4 2.15 -3.7 2.15 -4.0 2.35 -4.1 2.4 -4.2 2.55 -4.2 2.45 -4.25 2.1 -4.25 2.0 Q-4.35 1.7 -4.75 1.55 L-4.9 1.55 -4.9 1.6 -5.0 1.6 -5.1 1.8 -5.2 1.8 -5.45 2.0 -5.65 2.2 -5.75 2.25 -5.85 2.25 -6.05 2.2 Q-6.65 2.3 -7.25 2.4 L-7.5 2.6" fill="#000000" fill-rule="evenodd" stroke="none">
      <animate attributeName="fill" dur="2s" repeatCount="indefinite" values="#000000;#000001"/>
      <animate attributeName="fill-opacity" dur="2s" repeatCount="indefinite" values="1.0;1.0"/>
      <animate attributeName="d" dur="2s" repeatCount="indefinite" values="M-7.5 2.6 L-7.5 2.6 -7.5 2.9 -7.45 3.25 -7.45 3.55 -7.15 3.75 Q-6.85 3.9 -6.6 3.55 L-6.25 3.45 -6.15 3.45 Q-5.55 3.25 -5.0 3.1 L-4.8 3.4 Q-4.7 3.5 -4.55 3.55 L-4.55 3.55 -4.35 3.65 Q-3.7 3.8 -3.35 3.35 L-3.2 3.05 -3.05 2.65 Q-3.0 2.4 -3.2 2.25 L-3.4 2.15 -3.7 2.15 -4.0 2.35 -4.1 2.4 -4.2 2.55 -4.2 2.45 -4.25 2.1 -4.25 2.0 Q-4.35 1.7 -4.75 1.55 L-4.9 1.55 -4.9 1.6 -5.0 1.6 -5.1 1.8 -5.2 1.8 -5.45 2.0 -5.65 2.2 -5.75 2.25 -5.85 2.25 -6.05 2.2 Q-6.65 2.3 -7.25 2.4 L-7.5 2.6;M-6.5 5.7 L-6.45 5.95 -6.25 6.15 -6.0 6.2 -5.65 6.0 -5.5 5.85 Q-5.15 5.75 -4.85 5.7 L-4.6 5.55 -4.5 5.6 Q-4.2 6.35 -3.65 6.3 L-3.25 6.1 Q-3.2 6.0 -3.15 5.95 L-3.15 5.95 -3.05 5.75 Q-2.4 5.6 -2.4 4.95 L-2.45 4.6 -2.8 4.2 Q-3.0 4.1 -3.15 4.35 L-3.3 4.6 -3.5 4.8 -3.65 4.95 -3.75 4.9 -3.75 4.9 -3.9 4.7 -4.1 4.55 -4.15 4.45 Q-4.2 4.25 -4.4 4.2 L-4.5 4.1 -4.6 4.1 -4.6 4.15 -4.75 4.15 -4.8 4.2 -5.0 4.35 -5.1 4.45 -5.15 4.55 -5.25 4.65 -5.4 4.6 Q-6.1 4.55 -6.45 5.4 L-6.5 5.7"/>
    </path>
    <path d="M-7.5 2.6 L-7.25 2.4 Q-6.65 2.3 -6.05 2.2 L-5.85 2.25 -5.75 2.25 -5.65 2.2 -5.45 2.0 -5.2 1.8 -5.1 1.8 -5.0 1.6 -4.9 1.6 -4.9 1.55 -4.75 1.55 Q-4.35 1.7 -4.25 2.0 L-4.25 2.1 -4.2 2.45 -4.2 2.55 -4.1 2.4 -4.0 2.35 -3.7 2.15 -3.4 2.15 -3.2 2.25 Q-3.0 2.4 -3.05 2.65 L-3.2 3.05 -3.35 3.35 Q-3.7 3.8 -4.35 3.65 L-4.55 3.55 -4.55 3.55 Q-4.7 3.5 -4.8 3.4 L-5.0 3.1 Q-5.55 3.25 -6.15 3.45 L-6.25 3.45 -6.6 3.55 Q-6.85 3.9 -7.15 3.75 L-7.45 3.55 -7.45 3.25 -7.5 2.9 -7.5 2.6 -7.5 2.6" fill="none" stroke="#000000" stroke-linecap="round" stroke-linejoin="round" stroke-opacity="0.0" stroke-width="1.0">
      <animate attributeName="stroke" dur="2s" repeatCount="indefinite" values="#000000;#000001"/>
      <animate attributeName="stroke-width" dur="2s" repeatCount="indefinite" values="0.0;0.0"/>
      <animate attributeName="fill-opacity" dur="2s" repeatCount="indefinite" values="0.0;0.0"/>
      <animate attributeName="d" dur="2s" repeatCount="indefinite" values="M-7.5 2.6 L-7.25 2.4 Q-6.65 2.3 -6.05 2.2 L-5.85 2.25 -5.75 2.25 -5.65 2.2 -5.45 2.0 -5.2 1.8 -5.1 1.8 -5.0 1.6 -4.9 1.6 -4.9 1.55 -4.75 1.55 Q-4.35 1.7 -4.25 2.0 L-4.25 2.1 -4.2 2.45 -4.2 2.55 -4.1 2.4 -4.0 2.35 -3.7 2.15 -3.4 2.15 -3.2 2.25 Q-3.0 2.4 -3.05 2.65 L-3.2 3.05 -3.35 3.35 Q-3.7 3.8 -4.35 3.65 L-4.55 3.55 -4.55 3.55 Q-4.7 3.5 -4.8 3.4 L-5.0 3.1 Q-5.55 3.25 -6.15 3.45 L-6.25 3.45 -6.6 3.55 Q-6.85 3.9 -7.15 3.75 L-7.45 3.55 -7.45 3.25 -7.5 2.9 -7.5 2.6 -7.5 2.6;M-6.5 5.7 L-6.45 5.4 Q-6.1 4.55 -5.4 4.6 L-5.25 4.65 -5.15 4.55 -5.1 4.45 -5.0 4.35 -4.8 4.2 -4.75 4.15 -4.6 4.15 -4.6 4.1 -4.5 4.1 -4.4 4.2 Q-4.2 4.25 -4.15 4.45 L-4.1 4.55 -3.9 4.7 -3.75 4.9 -3.75 4.9 -3.65 4.95 -3.5 4.8 -3.3 4.6 -3.15 4.35 Q-3.0 4.1 -2.8 4.2 L-2.45 4.6 -2.4 4.95 Q-2.4 5.6 -3.05 5.75 L-3.15 5.95 -3.15 5.95 Q-3.2 6.0 -3.25 6.1 L-3.65 6.3 Q-4.2 6.35 -4.5 5.6 L-4.6 5.55 -4.85 5.7 Q-5.15 5.75 -5.5 5.85 L-5.65 6.0 -6.0 6.2 -6.25 6.15 -6.45 5.95 -6.5 5.7"/>
    </path>
  </g>
</svg>
