<?xml version="1.0" encoding="UTF-8" standalone="no"?>
<svg xmlns:xlink="http://www.w3.org/1999/xlink" height="5.3px" width="4.05px" xmlns="http://www.w3.org/2000/svg">
  <g transform="matrix(1.0, 0.0, 0.0, 1.0, -4.2, -11.35)">
    <path d="M4.8 14.2 L4.8 14.2 4.8 14.2 4.9 14.3 4.95 14.35 5.15 14.45 5.25 14.45 5.45 14.4 Q5.6 14.15 5.7 13.95 L5.9 13.85 6.0 13.85 6.1 13.75 6.2 13.7 6.35 13.45 6.65 13.5 7.0 13.35 7.15 13.2 7.25 13.1 7.35 13.0 7.55 12.9 7.7 12.8 7.8 12.7 8.1 12.4 Q8.4 11.95 8.0 11.55 L7.75 11.35 7.6 11.4 7.6 11.4 7.4 11.55 7.4 11.55 7.3 11.65 7.3 11.75 7.25 11.85 Q6.85 11.9 6.6 12.2 6.0 11.95 5.75 12.5 5.25 12.5 5.05 12.8 L4.95 12.9 4.95 12.95 4.95 13.05 4.95 13.35 4.85 13.55 4.8 13.85 4.8 14.2" fill="#000000" fill-rule="evenodd" stroke="none">
      <animate attributeName="fill" dur="2s" repeatCount="indefinite" values="#000000;#000001"/>
      <animate attributeName="fill-opacity" dur="2s" repeatCount="indefinite" values="1.0;1.0"/>
      <animate attributeName="d" dur="2s" repeatCount="indefinite" values="M4.8 14.2 L4.8 14.2 4.8 14.2 4.9 14.3 4.95 14.35 5.15 14.45 5.25 14.45 5.45 14.4 Q5.6 14.15 5.7 13.95 L5.9 13.85 6.0 13.85 6.1 13.75 6.2 13.7 6.35 13.45 6.65 13.5 7.0 13.35 7.15 13.2 7.25 13.1 7.35 13.0 7.55 12.9 7.7 12.8 7.8 12.7 8.1 12.4 Q8.4 11.95 8.0 11.55 L7.75 11.35 7.6 11.4 7.6 11.4 7.4 11.55 7.4 11.55 7.3 11.65 7.3 11.75 7.25 11.85 Q6.85 11.9 6.6 12.2 6.0 11.95 5.75 12.5 5.25 12.5 5.05 12.8 L4.95 12.9 4.95 12.95 4.95 13.05 4.95 13.35 4.85 13.55 4.8 13.85 4.8 14.2;M4.2 15.9 L4.2 16.1 4.2 16.1 4.2 16.35 4.2 16.45 4.45 16.6 4.45 16.6 4.75 16.65 Q5.15 16.6 5.5 16.2 L5.6 16.05 5.65 15.95 5.7 15.85 5.7 15.75 6.05 15.65 6.15 15.5 6.4 15.25 6.4 15.45 6.45 15.6 6.5 15.7 6.7 15.9 6.7 15.9 6.9 15.95 7.25 15.8 Q7.6 15.4 7.95 15.05 L7.95 14.95 7.85 14.8 7.8 14.75 7.35 14.45 7.3 14.4 7.3 14.4 7.2 14.3 7.1 14.2 Q6.8 14.15 6.5 14.1 5.95 14.45 5.4 14.75 5.1 14.95 4.8 15.15 L4.8 15.25 4.75 15.35 4.75 15.45 4.65 15.55 4.45 15.65 4.35 15.75 4.2 15.9"/>
    </path>
    <path d="M4.8 14.2 L4.8 13.85 4.85 13.55 4.95 13.35 4.95 13.05 4.95 12.95 4.95 12.9 5.05 12.8 Q5.25 12.5 5.75 12.5 6.0 11.95 6.6 12.2 6.85 11.9 7.25 11.85 L7.3 11.75 7.3 11.65 7.4 11.55 7.4 11.55 7.6 11.4 7.6 11.4 7.75 11.35 8.0 11.55 Q8.4 11.95 8.1 12.4 L7.8 12.7 7.7 12.8 7.55 12.9 7.35 13.0 7.25 13.1 7.15 13.2 7.0 13.35 6.65 13.5 6.35 13.45 6.2 13.7 6.1 13.75 6.0 13.85 5.9 13.85 5.7 13.95 Q5.6 14.15 5.45 14.4 L5.25 14.45 5.15 14.45 4.95 14.35 4.9 14.3 4.8 14.2 4.8 14.2 4.8 14.2" fill="none" stroke="#000000" stroke-linecap="round" stroke-linejoin="round" stroke-opacity="0.0" stroke-width="1.0">
      <animate attributeName="stroke" dur="2s" repeatCount="indefinite" values="#000000;#000001"/>
      <animate attributeName="stroke-width" dur="2s" repeatCount="indefinite" values="0.0;0.0"/>
      <animate attributeName="fill-opacity" dur="2s" repeatCount="indefinite" values="0.0;0.0"/>
      <animate attributeName="d" dur="2s" repeatCount="indefinite" values="M4.8 14.2 L4.8 13.85 4.85 13.55 4.95 13.35 4.95 13.05 4.95 12.95 4.95 12.9 5.05 12.8 Q5.25 12.5 5.75 12.5 6.0 11.95 6.6 12.2 6.85 11.9 7.25 11.85 L7.3 11.75 7.3 11.65 7.4 11.55 7.4 11.55 7.6 11.4 7.6 11.4 7.75 11.35 8.0 11.55 Q8.4 11.95 8.1 12.4 L7.8 12.7 7.7 12.8 7.55 12.9 7.35 13.0 7.25 13.1 7.15 13.2 7.0 13.35 6.65 13.5 6.35 13.45 6.2 13.7 6.1 13.75 6.0 13.85 5.9 13.85 5.7 13.95 Q5.6 14.15 5.45 14.4 L5.25 14.45 5.15 14.45 4.95 14.35 4.9 14.3 4.8 14.2 4.8 14.2 4.8 14.2;M4.2 15.9 L4.35 15.75 4.45 15.65 4.65 15.55 4.75 15.45 4.75 15.35 4.8 15.25 4.8 15.15 Q5.1 14.95 5.4 14.75 5.95 14.45 6.5 14.1 6.8 14.15 7.1 14.2 L7.2 14.3 7.3 14.4 7.3 14.4 7.35 14.45 7.8 14.75 7.85 14.8 7.95 14.95 7.95 15.05 Q7.6 15.4 7.25 15.8 L6.9 15.95 6.7 15.9 6.7 15.9 6.5 15.7 6.45 15.6 6.4 15.45 6.4 15.25 6.15 15.5 6.05 15.65 5.7 15.75 5.7 15.85 5.65 15.95 5.6 16.05 5.5 16.2 Q5.15 16.6 4.75 16.65 L4.45 16.6 4.45 16.6 4.2 16.45 4.2 16.35 4.2 16.1 4.2 16.1 4.2 15.9"/>
    </path>
  </g>
</svg>
