<?xml version="1.0" encoding="UTF-8" standalone="no"?>
<svg xmlns:xlink="http://www.w3.org/1999/xlink" height="5.85px" width="3.65px" xmlns="http://www.w3.org/2000/svg">
  <g transform="matrix(1.0, 0.0, 0.0, 1.0, -2.8, -8.85)">
    <path d="M2.8 10.95 L2.8 10.95 3.5 11.15 4.15 11.1 4.5 11.05 4.6 11.05 Q4.85 10.85 5.1 10.65 L5.15 10.55 Q5.5 10.5 5.85 10.5 6.1 10.15 6.35 9.85 L6.35 9.85 6.4 9.8 Q6.65 9.1 6.0 8.85 L6.0 8.9 Q5.6 8.95 5.4 9.35 L4.7 9.4 4.7 9.4 4.1 9.45 4.1 9.45 4.0 9.35 3.9 9.25 3.8 9.2 Q3.55 9.05 3.3 9.2 L3.0 9.45 3.0 9.85 3.0 10.15 2.9 10.35 2.8 10.95" fill="#000000" fill-rule="evenodd" stroke="none">
      <animate attributeName="fill" dur="2s" repeatCount="indefinite" values="#000000;#000001"/>
      <animate attributeName="fill-opacity" dur="2s" repeatCount="indefinite" values="1.0;1.0"/>
      <animate attributeName="d" dur="2s" repeatCount="indefinite" values="M2.8 10.95 L2.8 10.95 3.5 11.15 4.15 11.1 4.5 11.05 4.6 11.05 Q4.85 10.85 5.1 10.65 L5.15 10.55 Q5.5 10.5 5.85 10.5 6.1 10.15 6.35 9.85 L6.35 9.85 6.4 9.8 Q6.65 9.1 6.0 8.85 L6.0 8.9 Q5.6 8.95 5.4 9.35 L4.7 9.4 4.7 9.4 4.1 9.45 4.1 9.45 4.0 9.35 3.9 9.25 3.8 9.2 Q3.55 9.05 3.3 9.2 L3.0 9.45 3.0 9.85 3.0 10.15 2.9 10.35 2.8 10.95;M2.95 14.05 L3.05 14.15 3.4 14.3 3.95 13.85 4.2 13.8 4.3 13.8 Q4.6 14.15 5.1 14.1 L5.15 14.2 Q5.3 14.6 5.75 14.7 6.25 14.6 6.15 14.1 L6.15 14.1 6.15 14.1 Q5.95 13.6 5.75 13.15 L5.65 13.05 Q5.3 12.7 4.75 12.65 L4.1 12.65 4.1 12.6 3.9 12.0 3.65 11.85 3.65 11.9 3.5 11.9 3.45 11.95 Q3.35 12.1 3.25 12.2 L3.2 12.6 3.2 13.0 3.2 13.2 3.05 13.4 2.95 14.05"/>
    </path>
    <path d="M2.8 10.95 L2.9 10.35 3.0 10.15 3.0 9.85 3.0 9.45 3.3 9.2 Q3.55 9.05 3.8 9.2 L3.9 9.25 4.0 9.35 4.1 9.45 4.1 9.45 4.7 9.4 4.7 9.4 5.4 9.35 Q5.6 8.95 6.0 8.9 L6.0 8.85 Q6.65 9.1 6.4 9.8 L6.35 9.85 6.35 9.85 Q6.1 10.15 5.85 10.5 5.5 10.5 5.15 10.55 L5.1 10.65 Q4.85 10.85 4.6 11.05 L4.5 11.05 4.15 11.1 3.5 11.15 2.8 10.95 2.8 10.95" fill="none" stroke="#000000" stroke-linecap="round" stroke-linejoin="round" stroke-opacity="0.0" stroke-width="1.0">
      <animate attributeName="stroke" dur="2s" repeatCount="indefinite" values="#000000;#000001"/>
      <animate attributeName="stroke-width" dur="2s" repeatCount="indefinite" values="0.0;0.0"/>
      <animate attributeName="fill-opacity" dur="2s" repeatCount="indefinite" values="0.0;0.0"/>
      <animate attributeName="d" dur="2s" repeatCount="indefinite" values="M2.8 10.95 L2.9 10.35 3.0 10.15 3.0 9.85 3.0 9.45 3.3 9.2 Q3.55 9.05 3.8 9.2 L3.9 9.25 4.0 9.35 4.1 9.45 4.1 9.45 4.7 9.4 4.7 9.4 5.4 9.35 Q5.6 8.95 6.0 8.9 L6.0 8.85 Q6.65 9.1 6.4 9.8 L6.35 9.85 6.35 9.85 Q6.1 10.15 5.85 10.5 5.5 10.5 5.15 10.55 L5.1 10.65 Q4.85 10.85 4.6 11.05 L4.5 11.05 4.15 11.1 3.5 11.15 2.8 10.95 2.8 10.95;M2.95 14.05 L3.05 13.4 3.2 13.2 3.2 13.0 3.2 12.6 3.25 12.2 Q3.35 12.1 3.45 11.95 L3.5 11.9 3.65 11.9 3.65 11.85 3.9 12.0 4.1 12.6 4.1 12.65 4.75 12.65 Q5.3 12.7 5.65 13.05 L5.75 13.15 Q5.95 13.6 6.15 14.1 L6.15 14.1 6.15 14.1 Q6.25 14.6 5.75 14.7 5.3 14.6 5.15 14.2 L5.1 14.1 Q4.6 14.15 4.3 13.8 L4.2 13.8 3.95 13.85 3.4 14.3 3.05 14.15 2.95 14.05"/>
    </path>
  </g>
</svg>
