<?xml version="1.0" encoding="UTF-8" standalone="no"?>
<svg xmlns:xlink="http://www.w3.org/1999/xlink" height="4.2px" width="6.65px" xmlns="http://www.w3.org/2000/svg">
  <g transform="matrix(1.0, 0.0, 0.0, 1.0, 6.5, -4.1)">
    <path d="M-6.5 5.7 L-6.5 5.7 -6.5 5.8 -6.45 5.95 -6.1 6.2 -6.0 6.2 -5.5 5.85 Q-5.0 5.85 -4.6 5.55 L-4.5 5.6 -4.5 5.6 -4.5 5.7 -4.25 6.0 Q-3.75 6.05 -3.25 6.1 L-3.15 5.95 -3.05 5.75 Q-2.4 5.6 -2.4 4.95 L-2.45 4.6 -2.55 4.5 -2.55 4.4 Q-3.0 3.85 -3.3 4.5 L-3.3 4.6 -3.4 4.8 -3.5 4.8 -3.65 4.95 -3.75 4.9 -3.75 4.9 -4.1 4.55 -4.15 4.45 Q-4.25 4.15 -4.6 4.1 L-4.6 4.15 -4.75 4.15 -4.8 4.2 -5.0 4.35 -5.1 4.45 -5.25 4.65 -5.4 4.6 Q-5.7 4.7 -6.0 4.75 L-6.25 5.05 -6.45 5.4 -6.5 5.7" fill="#000000" fill-rule="evenodd" stroke="none">
      <animate attributeName="fill" dur="2s" repeatCount="indefinite" values="#000000;#000001"/>
      <animate attributeName="fill-opacity" dur="2s" repeatCount="indefinite" values="1.0;1.0"/>
      <animate attributeName="d" dur="2s" repeatCount="indefinite" values="M-6.5 5.7 L-6.5 5.7 -6.5 5.8 -6.45 5.95 -6.1 6.2 -6.0 6.2 -5.5 5.85 Q-5.0 5.85 -4.6 5.55 L-4.5 5.6 -4.5 5.6 -4.5 5.7 -4.25 6.0 Q-3.75 6.05 -3.25 6.1 L-3.15 5.95 -3.05 5.75 Q-2.4 5.6 -2.4 4.95 L-2.45 4.6 -2.55 4.5 -2.55 4.4 Q-3.0 3.85 -3.3 4.5 L-3.3 4.6 -3.4 4.8 -3.5 4.8 -3.65 4.95 -3.75 4.9 -3.75 4.9 -4.1 4.55 -4.15 4.45 Q-4.25 4.15 -4.6 4.1 L-4.6 4.15 -4.75 4.15 -4.8 4.2 -5.0 4.35 -5.1 4.45 -5.25 4.65 -5.4 4.6 Q-5.7 4.7 -6.0 4.75 L-6.25 5.05 -6.45 5.4 -6.5 5.7;M-4.35 7.7 L-4.3 7.95 -4.3 7.95 -4.2 8.05 -3.6 8.15 -3.5 8.2 -2.9 8.3 Q-2.55 8.0 -2.2 7.75 L-2.2 7.75 -2.1 7.75 -1.95 7.7 -1.8 7.6 Q-1.15 8.35 -0.6 8.05 L-0.35 7.8 -0.15 7.55 Q0.3 6.9 0.1 6.4 L-0.1 6.05 -0.35 5.85 -0.35 5.9 Q-0.7 5.9 -0.8 6.2 L-0.8 6.3 -0.85 6.5 -0.95 6.6 -1.05 6.8 -1.05 6.9 -1.05 6.95 -1.4 6.65 -1.5 6.55 Q-1.9 6.35 -2.3 6.55 L-2.4 6.55 -2.5 6.6 -2.6 6.6 -2.9 6.85 -3.0 6.95 -3.3 6.65 -3.5 6.6 Q-3.8 6.55 -4.0 7.05 L-4.15 7.2 -4.3 7.4 -4.35 7.7"/>
    </path>
    <path d="M-6.5 5.7 L-6.45 5.4 -6.25 5.05 -6.0 4.75 Q-5.7 4.7 -5.4 4.6 L-5.25 4.65 -5.1 4.45 -5.0 4.35 -4.8 4.2 -4.75 4.15 -4.6 4.15 -4.6 4.1 Q-4.25 4.15 -4.15 4.45 L-4.1 4.55 -3.75 4.9 -3.75 4.9 -3.65 4.95 -3.5 4.8 -3.4 4.8 -3.3 4.6 -3.3 4.5 Q-3.0 3.85 -2.55 4.4 L-2.55 4.5 -2.45 4.6 -2.4 4.95 Q-2.4 5.6 -3.05 5.75 L-3.15 5.95 -3.25 6.1 Q-3.75 6.05 -4.25 6.0 L-4.5 5.7 -4.5 5.6 -4.5 5.6 -4.6 5.55 Q-5.0 5.85 -5.5 5.85 L-6.0 6.2 -6.1 6.2 -6.45 5.95 -6.5 5.8 -6.5 5.7 -6.5 5.7" fill="none" stroke="#000000" stroke-linecap="round" stroke-linejoin="round" stroke-opacity="0.0" stroke-width="1.0">
      <animate attributeName="stroke" dur="2s" repeatCount="indefinite" values="#000000;#000001"/>
      <animate attributeName="stroke-width" dur="2s" repeatCount="indefinite" values="0.0;0.0"/>
      <animate attributeName="fill-opacity" dur="2s" repeatCount="indefinite" values="0.0;0.0"/>
      <animate attributeName="d" dur="2s" repeatCount="indefinite" values="M-6.5 5.7 L-6.45 5.4 -6.25 5.05 -6.0 4.75 Q-5.7 4.7 -5.4 4.6 L-5.25 4.65 -5.1 4.45 -5.0 4.35 -4.8 4.2 -4.75 4.15 -4.6 4.15 -4.6 4.1 Q-4.25 4.15 -4.15 4.45 L-4.1 4.55 -3.75 4.9 -3.75 4.9 -3.65 4.95 -3.5 4.8 -3.4 4.8 -3.3 4.6 -3.3 4.5 Q-3.0 3.85 -2.55 4.4 L-2.55 4.5 -2.45 4.6 -2.4 4.95 Q-2.4 5.6 -3.05 5.75 L-3.15 5.95 -3.25 6.1 Q-3.75 6.05 -4.25 6.0 L-4.5 5.7 -4.5 5.6 -4.5 5.6 -4.6 5.55 Q-5.0 5.85 -5.5 5.85 L-6.0 6.2 -6.1 6.2 -6.45 5.95 -6.5 5.8 -6.5 5.7 -6.5 5.7;M-4.35 7.7 L-4.3 7.4 -4.15 7.2 -4.0 7.05 Q-3.8 6.55 -3.5 6.6 L-3.3 6.65 -3.0 6.95 -2.9 6.85 -2.6 6.6 -2.5 6.6 -2.4 6.55 -2.3 6.55 Q-1.9 6.35 -1.5 6.55 L-1.4 6.65 -1.05 6.95 -1.05 6.9 -1.05 6.8 -0.95 6.6 -0.85 6.5 -0.8 6.3 -0.8 6.2 Q-0.7 5.9 -0.35 5.9 L-0.35 5.85 -0.1 6.05 0.1 6.4 Q0.3 6.9 -0.15 7.55 L-0.35 7.8 -0.6 8.05 Q-1.15 8.35 -1.8 7.6 L-1.95 7.7 -2.1 7.75 -2.2 7.75 -2.2 7.75 Q-2.55 8.0 -2.9 8.3 L-3.5 8.2 -3.6 8.15 -4.2 8.05 -4.3 7.95 -4.3 7.95 -4.35 7.7"/>
    </path>
  </g>
</svg>
