<?xml version="1.0" encoding="UTF-8" standalone="no"?>
<svg xmlns:xlink="http://www.w3.org/1999/xlink" height="5.5px" width="3.95px" xmlns="http://www.w3.org/2000/svg">
  <g transform="matrix(1.0, 0.0, 0.0, 1.0, 1.85, 5.75)">
    <path d="M-1.8 -4.65 L-1.8 -4.65 -1.8 -4.3 -1.55 -4.1 -1.35 -4.05 -1.0 -4.1 -1.0 -4.05 -1.0 -3.95 -0.95 -3.9 -0.95 -3.8 -0.65 -3.65 Q-0.05 -3.75 0.55 -3.85 L0.85 -4.05 1.05 -4.05 1.3 -4.1 1.6 -4.35 1.85 -4.55 Q2.25 -5.25 1.5 -5.7 L1.4 -5.65 1.4 -5.65 1.15 -5.55 1.0 -5.4 1.0 -5.3 1.0 -5.2 0.95 -5.15 0.55 -5.0 0.45 -4.9 0.35 -4.9 0.25 -4.85 -0.25 -5.0 -0.3 -5.0 -0.3 -5.1 -0.3 -5.2 Q-0.35 -5.85 -1.1 -5.7 L-1.15 -5.7 -1.25 -5.7 -1.3 -5.65 -1.5 -5.45 -1.6 -5.3 -1.75 -5.15 -1.8 -4.65" fill="#000000" fill-rule="evenodd" stroke="none">
      <animate attributeName="fill" dur="2s" repeatCount="indefinite" values="#000000;#000001"/>
      <animate attributeName="fill-opacity" dur="2s" repeatCount="indefinite" values="1.0;1.0"/>
      <animate attributeName="d" dur="2s" repeatCount="indefinite" values="M-1.8 -4.65 L-1.8 -4.65 -1.8 -4.3 -1.55 -4.1 -1.35 -4.05 -1.0 -4.1 -1.0 -4.05 -1.0 -3.95 -0.95 -3.9 -0.95 -3.8 -0.65 -3.65 Q-0.05 -3.75 0.55 -3.85 L0.85 -4.05 1.05 -4.05 1.3 -4.1 1.6 -4.35 1.85 -4.55 Q2.25 -5.25 1.5 -5.7 L1.4 -5.65 1.4 -5.65 1.15 -5.55 1.0 -5.4 1.0 -5.3 1.0 -5.2 0.95 -5.15 0.55 -5.0 0.45 -4.9 0.35 -4.9 0.25 -4.85 -0.25 -5.0 -0.3 -5.0 -0.3 -5.1 -0.3 -5.2 Q-0.35 -5.85 -1.1 -5.7 L-1.15 -5.7 -1.25 -5.7 -1.3 -5.65 -1.5 -5.45 -1.6 -5.3 -1.75 -5.15 -1.8 -4.65;M-1.45 -0.95 L-1.25 -0.75 -1.1 -0.7 -0.8 -0.75 -0.45 -0.55 -0.2 -0.5 -0.2 -0.5 -0.2 -0.5 -0.2 -0.5 -0.2 -0.5 0.0 -0.5 Q0.35 -0.1 0.8 -0.4 L1.0 -0.55 1.1 -0.6 1.6 -0.9 1.9 -1.25 2.1 -1.45 Q2.05 -2.0 1.45 -1.95 L1.35 -1.95 1.3 -2.0 1.3 -2.0 1.1 -2.05 1.0 -2.05 0.9 -2.05 0.8 -2.05 0.3 -2.05 0.1 -2.05 0.1 -2.15 0.1 -2.15 -0.1 -2.4 -0.15 -2.45 -0.25 -2.45 -0.35 -2.45 Q-0.75 -2.2 -1.1 -1.95 L-1.2 -1.95 -1.2 -1.85 -1.2 -1.85 -1.3 -1.7 -1.4 -1.5 -1.45 -1.35 -1.45 -0.95"/>
    </path>
    <path d="M-1.8 -4.65 L-1.75 -5.15 -1.6 -5.3 -1.5 -5.45 -1.3 -5.65 -1.25 -5.7 -1.15 -5.7 -1.1 -5.7 Q-0.35 -5.85 -0.3 -5.2 L-0.3 -5.1 -0.3 -5.0 -0.25 -5.0 0.25 -4.85 0.35 -4.9 0.45 -4.9 0.55 -5.0 0.95 -5.15 1.0 -5.2 1.0 -5.3 1.0 -5.4 1.15 -5.55 1.4 -5.65 1.4 -5.65 1.5 -5.7 Q2.25 -5.25 1.85 -4.55 L1.6 -4.35 1.3 -4.1 1.05 -4.05 0.85 -4.05 0.55 -3.85 Q-0.05 -3.75 -0.65 -3.65 L-0.95 -3.8 -0.95 -3.9 -1.0 -3.95 -1.0 -4.05 -1.0 -4.1 -1.35 -4.05 -1.55 -4.1 -1.8 -4.3 -1.8 -4.65 -1.8 -4.65" fill="none" stroke="#000000" stroke-linecap="round" stroke-linejoin="round" stroke-opacity="0.0" stroke-width="1.0">
      <animate attributeName="stroke" dur="2s" repeatCount="indefinite" values="#000000;#000001"/>
      <animate attributeName="stroke-width" dur="2s" repeatCount="indefinite" values="0.0;0.0"/>
      <animate attributeName="fill-opacity" dur="2s" repeatCount="indefinite" values="0.0;0.0"/>
      <animate attributeName="d" dur="2s" repeatCount="indefinite" values="M-1.8 -4.65 L-1.75 -5.15 -1.6 -5.3 -1.5 -5.45 -1.3 -5.65 -1.25 -5.7 -1.15 -5.7 -1.1 -5.7 Q-0.35 -5.85 -0.3 -5.2 L-0.3 -5.1 -0.3 -5.0 -0.25 -5.0 0.25 -4.85 0.35 -4.9 0.45 -4.9 0.55 -5.0 0.95 -5.15 1.0 -5.2 1.0 -5.3 1.0 -5.4 1.15 -5.55 1.4 -5.65 1.4 -5.65 1.5 -5.7 Q2.25 -5.25 1.85 -4.55 L1.6 -4.35 1.3 -4.1 1.05 -4.05 0.85 -4.05 0.55 -3.85 Q-0.05 -3.75 -0.65 -3.65 L-0.95 -3.8 -0.95 -3.9 -1.0 -3.95 -1.0 -4.05 -1.0 -4.1 -1.35 -4.05 -1.55 -4.1 -1.8 -4.3 -1.8 -4.65 -1.8 -4.65;M-1.45 -0.95 L-1.45 -1.35 -1.4 -1.5 -1.3 -1.7 -1.2 -1.85 -1.2 -1.85 -1.2 -1.95 -1.1 -1.95 Q-0.75 -2.2 -0.35 -2.45 L-0.25 -2.45 -0.15 -2.45 -0.1 -2.4 0.1 -2.15 0.1 -2.15 0.1 -2.05 0.3 -2.05 0.8 -2.05 0.9 -2.05 1.0 -2.05 1.1 -2.05 1.3 -2.0 1.3 -2.0 1.35 -1.95 1.45 -1.95 Q2.05 -2.0 2.1 -1.45 L1.9 -1.25 1.6 -0.9 1.1 -0.6 1.0 -0.55 0.8 -0.4 Q0.35 -0.1 0.0 -0.5 L-0.2 -0.5 -0.2 -0.5 -0.2 -0.5 -0.2 -0.5 -0.2 -0.5 -0.45 -0.55 -0.8 -0.75 -1.1 -0.7 -1.25 -0.75 -1.45 -0.95"/>
    </path>
  </g>
</svg>
