<?xml version="1.0" encoding="UTF-8" standalone="no"?>
<svg xmlns:xlink="http://www.w3.org/1999/xlink" height="3.45px" width="4.1px" xmlns="http://www.w3.org/2000/svg">
  <g transform="matrix(1.0, 0.0, 0.0, 1.0, -2.95, -11.85)">
    <path d="M2.95 14.05 L3.05 14.15 3.4 14.3 3.65 14.25 3.95 13.85 4.3 13.8 Q4.5 14.05 4.85 14.1 L5.0 14.1 5.1 14.1 Q5.25 14.5 5.55 14.7 L5.65 14.7 5.75 14.7 5.9 14.65 6.0 14.65 6.15 14.45 6.15 14.1 6.05 13.75 6.0 13.5 Q5.5 12.45 4.1 12.65 L4.1 12.6 4.1 12.5 Q4.15 12.0 3.65 11.85 L3.65 11.9 3.6 11.9 3.5 11.9 3.45 11.95 3.45 11.95 3.45 11.95 3.25 12.2 3.25 12.3 3.2 12.9 3.2 13.2 3.05 13.4 2.95 14.05" fill="#000000" fill-rule="evenodd" stroke="none">
      <animate attributeName="fill" dur="2s" repeatCount="indefinite" values="#000000;#000001"/>
      <animate attributeName="fill-opacity" dur="2s" repeatCount="indefinite" values="1.0;1.0"/>
      <animate attributeName="d" dur="2s" repeatCount="indefinite" values="M2.95 14.05 L3.05 14.15 3.4 14.3 3.65 14.25 3.95 13.85 4.3 13.8 Q4.5 14.05 4.85 14.1 L5.0 14.1 5.1 14.1 Q5.25 14.5 5.55 14.7 L5.65 14.7 5.75 14.7 5.9 14.65 6.0 14.65 6.15 14.45 6.15 14.1 6.05 13.75 6.0 13.5 Q5.5 12.45 4.1 12.65 L4.1 12.6 4.1 12.5 Q4.15 12.0 3.65 11.85 L3.65 11.9 3.6 11.9 3.5 11.9 3.45 11.95 3.45 11.95 3.45 11.95 3.25 12.2 3.25 12.3 3.2 12.9 3.2 13.2 3.05 13.4 2.95 14.05;M3.05 14.3 L3.05 14.3 3.4 14.55 3.7 14.5 4.0 14.4 4.5 14.1 Q4.7 13.95 4.85 13.85 L5.05 14.05 5.25 14.15 Q5.6 14.45 5.95 14.7 L5.95 14.85 5.95 14.95 5.95 15.05 6.05 15.15 6.4 15.3 6.6 15.25 7.0 15.05 7.05 14.8 Q6.7 13.75 5.6 13.15 L5.6 13.15 5.6 13.05 Q5.5 12.6 5.0 12.6 L4.9 12.6 4.9 12.65 4.85 12.65 4.75 12.65 4.7 12.7 4.7 12.7 4.4 12.95 4.3 12.95 3.8 13.2 3.45 13.5 3.25 13.7 3.05 14.3"/>
    </path>
    <path d="M2.95 14.05 L3.05 13.4 3.2 13.2 3.2 12.9 3.25 12.3 3.25 12.2 3.45 11.95 3.45 11.95 3.45 11.95 3.5 11.9 3.6 11.9 3.65 11.9 3.65 11.85 Q4.15 12.0 4.1 12.5 L4.1 12.6 4.1 12.65 Q5.5 12.45 6.0 13.5 L6.05 13.75 6.15 14.1 6.15 14.45 6.0 14.65 5.9 14.65 5.75 14.7 5.65 14.7 5.55 14.7 Q5.25 14.5 5.1 14.1 L5.0 14.1 4.85 14.1 Q4.5 14.05 4.3 13.8 L3.95 13.85 3.65 14.25 3.4 14.3 3.05 14.15 2.95 14.05" fill="none" stroke="#000000" stroke-linecap="round" stroke-linejoin="round" stroke-opacity="0.0" stroke-width="1.0">
      <animate attributeName="stroke" dur="2s" repeatCount="indefinite" values="#000000;#000001"/>
      <animate attributeName="stroke-width" dur="2s" repeatCount="indefinite" values="0.0;0.0"/>
      <animate attributeName="fill-opacity" dur="2s" repeatCount="indefinite" values="0.0;0.0"/>
      <animate attributeName="d" dur="2s" repeatCount="indefinite" values="M2.95 14.05 L3.05 13.4 3.2 13.2 3.2 12.9 3.25 12.3 3.25 12.2 3.45 11.95 3.45 11.95 3.45 11.95 3.5 11.9 3.6 11.9 3.65 11.9 3.65 11.85 Q4.15 12.0 4.1 12.5 L4.1 12.6 4.1 12.65 Q5.5 12.45 6.0 13.5 L6.05 13.75 6.15 14.1 6.15 14.45 6.0 14.65 5.9 14.65 5.75 14.7 5.65 14.7 5.55 14.7 Q5.25 14.5 5.1 14.1 L5.0 14.1 4.85 14.1 Q4.5 14.05 4.3 13.8 L3.95 13.85 3.65 14.25 3.4 14.3 3.05 14.15 2.95 14.05;M3.05 14.3 L3.25 13.7 3.45 13.5 3.8 13.2 4.3 12.95 4.4 12.95 4.7 12.7 4.7 12.7 4.75 12.65 4.85 12.65 4.9 12.65 4.9 12.6 5.0 12.6 Q5.5 12.6 5.6 13.05 L5.6 13.15 5.6 13.15 Q6.7 13.75 7.05 14.8 L7.0 15.05 6.6 15.25 6.4 15.3 6.05 15.15 5.95 15.05 5.95 14.95 5.95 14.85 5.95 14.7 Q5.6 14.45 5.25 14.15 L5.05 14.05 4.85 13.85 Q4.7 13.95 4.5 14.1 L4.0 14.4 3.7 14.5 3.4 14.55 3.05 14.3 3.05 14.3"/>
    </path>
  </g>
</svg>
