<?xml version="1.0" encoding="UTF-8" standalone="no"?>
<svg xmlns:xlink="http://www.w3.org/1999/xlink" height="5.55px" width="4.55px" xmlns="http://www.w3.org/2000/svg">
  <g transform="matrix(1.0, 0.0, 0.0, 1.0, 4.35, -5.85)">
    <path d="M-4.35 7.7 L-4.35 7.7 -4.3 7.95 Q-4.0 8.3 -3.6 8.15 L-2.9 8.3 -2.2 7.75 -1.95 7.7 -1.8 7.6 -1.7 7.7 -1.5 7.85 Q-0.8 8.35 -0.25 7.7 L-0.15 7.55 Q0.5 6.65 -0.1 5.95 L-0.25 5.85 -0.35 5.85 -0.35 5.9 -0.6 5.95 -0.8 6.2 -0.85 6.5 -0.85 6.5 -1.05 6.95 -1.25 6.8 -1.35 6.7 Q-1.8 6.35 -2.3 6.45 -2.65 6.7 -3.0 6.95 L-3.4 6.6 Q-3.75 6.45 -4.0 7.05 L-4.15 7.2 -4.3 7.4 -4.35 7.7" fill="#000000" fill-rule="evenodd" stroke="none">
      <animate attributeName="fill" dur="2s" repeatCount="indefinite" values="#000000;#000001"/>
      <animate attributeName="fill-opacity" dur="2s" repeatCount="indefinite" values="1.0;1.0"/>
      <animate attributeName="d" dur="2s" repeatCount="indefinite" values="M-4.35 7.7 L-4.35 7.7 -4.3 7.95 Q-4.0 8.3 -3.6 8.15 L-2.9 8.3 -2.2 7.75 -1.95 7.7 -1.8 7.6 -1.7 7.7 -1.5 7.85 Q-0.8 8.35 -0.25 7.7 L-0.15 7.55 Q0.5 6.65 -0.1 5.95 L-0.25 5.85 -0.35 5.85 -0.35 5.9 -0.6 5.95 -0.8 6.2 -0.85 6.5 -0.85 6.5 -1.05 6.95 -1.25 6.8 -1.35 6.7 Q-1.8 6.35 -2.3 6.45 -2.65 6.7 -3.0 6.95 L-3.4 6.6 Q-3.75 6.45 -4.0 7.05 L-4.15 7.2 -4.3 7.4 -4.35 7.7;M-3.55 11.2 L-3.45 11.25 -3.3 11.35 Q-2.95 11.3 -2.65 11.3 L-2.25 10.95 -1.55 11.05 -1.4 11.0 -1.2 10.9 -1.1 10.9 -0.85 10.85 Q-0.25 11.0 0.0 10.45 L0.1 10.25 Q0.35 9.45 -0.35 9.05 L-0.5 9.05 -0.55 9.1 -0.55 9.1 -0.7 9.25 -0.8 9.5 -0.8 9.7 -0.8 9.7 -1.2 9.8 -1.4 9.8 -1.4 9.7 Q-1.45 9.35 -1.85 9.3 -2.25 9.45 -2.45 9.75 L-2.65 10.1 Q-3.0 10.3 -3.3 10.5 L-3.5 10.75 -3.55 11.0 -3.55 11.2"/>
    </path>
    <path d="M-4.35 7.7 L-4.3 7.4 -4.15 7.2 -4.0 7.05 Q-3.75 6.45 -3.4 6.6 L-3.0 6.95 Q-2.65 6.7 -2.3 6.45 -1.8 6.35 -1.35 6.7 L-1.25 6.8 -1.05 6.95 -0.85 6.5 -0.85 6.5 -0.8 6.2 -0.6 5.95 -0.35 5.9 -0.35 5.85 -0.25 5.85 -0.1 5.95 Q0.5 6.65 -0.15 7.55 L-0.25 7.7 Q-0.8 8.35 -1.5 7.85 L-1.7 7.7 -1.8 7.6 -1.95 7.7 -2.2 7.75 -2.9 8.3 -3.6 8.15 Q-4.0 8.3 -4.3 7.95 L-4.35 7.7 -4.35 7.7" fill="none" stroke="#000000" stroke-linecap="round" stroke-linejoin="round" stroke-opacity="0.0" stroke-width="1.0">
      <animate attributeName="stroke" dur="2s" repeatCount="indefinite" values="#000000;#000001"/>
      <animate attributeName="stroke-width" dur="2s" repeatCount="indefinite" values="0.0;0.0"/>
      <animate attributeName="fill-opacity" dur="2s" repeatCount="indefinite" values="0.0;0.0"/>
      <animate attributeName="d" dur="2s" repeatCount="indefinite" values="M-4.35 7.7 L-4.3 7.4 -4.15 7.2 -4.0 7.05 Q-3.75 6.45 -3.4 6.6 L-3.0 6.95 Q-2.65 6.7 -2.3 6.45 -1.8 6.35 -1.35 6.7 L-1.25 6.8 -1.05 6.95 -0.85 6.5 -0.85 6.5 -0.8 6.2 -0.6 5.95 -0.35 5.9 -0.35 5.85 -0.25 5.85 -0.1 5.95 Q0.5 6.65 -0.15 7.55 L-0.25 7.7 Q-0.8 8.35 -1.5 7.85 L-1.7 7.7 -1.8 7.6 -1.95 7.7 -2.2 7.75 -2.9 8.3 -3.6 8.15 Q-4.0 8.3 -4.3 7.95 L-4.35 7.7 -4.35 7.7;M-3.55 11.2 L-3.55 11.0 -3.5 10.75 -3.3 10.5 Q-3.0 10.3 -2.65 10.1 L-2.45 9.75 Q-2.25 9.45 -1.85 9.3 -1.45 9.35 -1.4 9.7 L-1.4 9.8 -1.2 9.8 -0.8 9.7 -0.8 9.7 -0.8 9.5 -0.7 9.25 -0.55 9.1 -0.55 9.1 -0.5 9.05 -0.35 9.05 Q0.35 9.45 0.1 10.25 L0.0 10.45 Q-0.25 11.0 -0.85 10.85 L-1.1 10.9 -1.2 10.9 -1.4 11.0 -1.55 11.05 -2.25 10.95 -2.65 11.3 Q-2.95 11.3 -3.3 11.35 L-3.45 11.25 -3.55 11.2"/>
    </path>
  </g>
</svg>
