<?xml version="1.0" encoding="UTF-8" standalone="no"?>
<svg xmlns:xlink="http://www.w3.org/1999/xlink" height="7.4px" width="3.65px" xmlns="http://www.w3.org/2000/svg">
  <g transform="matrix(1.0, 0.0, 0.0, 1.0, 1.45, 2.45)">
    <path d="M-1.45 -0.95 L-1.45 -0.95 -1.2 -0.7 -1.1 -0.7 -1.05 -0.7 -0.7 -0.8 Q-0.45 -0.5 0.0 -0.5 L0.25 -0.3 0.65 -0.3 0.8 -0.4 1.1 -0.6 1.85 -1.15 2.1 -1.45 Q2.05 -2.05 1.35 -1.95 L1.3 -2.0 1.2 -2.0 0.5 -2.05 0.3 -2.05 0.1 -2.05 0.1 -2.15 Q0.0 -2.45 -0.35 -2.45 L-0.5 -2.35 -0.6 -2.35 -1.0 -2.05 -1.2 -1.95 -1.2 -1.95 -1.2 -1.85 -1.3 -1.7 -1.45 -0.95" fill="#000000" fill-rule="evenodd" stroke="none">
      <animate attributeName="fill" dur="2s" repeatCount="indefinite" values="#000000;#000001"/>
      <animate attributeName="fill-opacity" dur="2s" repeatCount="indefinite" values="1.0;1.0"/>
      <animate attributeName="d" dur="2s" repeatCount="indefinite" values="M-1.45 -0.95 L-1.45 -0.95 -1.2 -0.7 -1.1 -0.7 -1.05 -0.7 -0.7 -0.8 Q-0.45 -0.5 0.0 -0.5 L0.25 -0.3 0.65 -0.3 0.8 -0.4 1.1 -0.6 1.85 -1.15 2.1 -1.45 Q2.05 -2.05 1.35 -1.95 L1.3 -2.0 1.2 -2.0 0.5 -2.05 0.3 -2.05 0.1 -2.05 0.1 -2.15 Q0.0 -2.45 -0.35 -2.45 L-0.5 -2.35 -0.6 -2.35 -1.0 -2.05 -1.2 -1.95 -1.2 -1.95 -1.2 -1.85 -1.3 -1.7 -1.45 -0.95;M-1.2 4.05 L-1.0 4.15 -0.75 4.35 -0.7 4.45 -0.7 4.55 -0.3 4.8 Q0.1 4.75 0.45 4.7 L0.7 4.85 1.1 4.95 1.5 4.8 1.85 4.5 2.2 3.9 2.1 3.65 Q1.7 3.15 1.05 3.75 L1.05 3.75 1.0 3.8 0.1 3.55 0.15 3.45 0.2 3.25 0.2 3.1 Q-0.05 2.75 -0.25 2.45 L-0.35 2.35 -0.5 2.4 -0.8 2.65 -0.8 2.85 -0.8 2.85 -0.8 2.95 -0.95 3.15 -1.2 4.05"/>
    </path>
    <path d="M-1.45 -0.95 L-1.3 -1.7 -1.2 -1.85 -1.2 -1.95 -1.2 -1.95 -1.0 -2.05 -0.6 -2.35 -0.5 -2.35 -0.35 -2.45 Q0.0 -2.45 0.1 -2.15 L0.1 -2.05 0.3 -2.05 0.5 -2.05 1.2 -2.0 1.3 -2.0 1.35 -1.95 Q2.05 -2.05 2.1 -1.45 L1.85 -1.15 1.1 -0.6 0.8 -0.4 0.65 -0.3 0.25 -0.3 0.0 -0.5 Q-0.45 -0.5 -0.7 -0.8 L-1.05 -0.7 -1.1 -0.7 -1.2 -0.7 -1.45 -0.95 -1.45 -0.95" fill="none" stroke="#000000" stroke-linecap="round" stroke-linejoin="round" stroke-opacity="0.0" stroke-width="1.0">
      <animate attributeName="stroke" dur="2s" repeatCount="indefinite" values="#000000;#000001"/>
      <animate attributeName="stroke-width" dur="2s" repeatCount="indefinite" values="0.0;0.0"/>
      <animate attributeName="fill-opacity" dur="2s" repeatCount="indefinite" values="0.0;0.0"/>
      <animate attributeName="d" dur="2s" repeatCount="indefinite" values="M-1.45 -0.95 L-1.3 -1.7 -1.2 -1.85 -1.2 -1.95 -1.2 -1.95 -1.0 -2.05 -0.6 -2.35 -0.5 -2.35 -0.35 -2.45 Q0.0 -2.45 0.1 -2.15 L0.1 -2.05 0.3 -2.05 0.5 -2.05 1.2 -2.0 1.3 -2.0 1.35 -1.95 Q2.05 -2.05 2.1 -1.45 L1.85 -1.15 1.1 -0.6 0.8 -0.4 0.65 -0.3 0.25 -0.3 0.0 -0.5 Q-0.45 -0.5 -0.7 -0.8 L-1.05 -0.7 -1.1 -0.7 -1.2 -0.7 -1.45 -0.95 -1.45 -0.95;M-1.2 4.05 L-0.95 3.15 -0.8 2.95 -0.8 2.85 -0.8 2.85 -0.8 2.65 -0.5 2.4 -0.35 2.35 -0.25 2.45 Q-0.05 2.75 0.2 3.1 L0.2 3.25 0.15 3.45 0.1 3.55 1.0 3.8 1.05 3.75 1.05 3.75 Q1.7 3.15 2.1 3.65 L2.2 3.9 1.85 4.5 1.5 4.8 1.1 4.95 0.7 4.85 0.45 4.7 Q0.1 4.75 -0.3 4.8 L-0.7 4.55 -0.7 4.45 -0.75 4.35 -1.0 4.15 -1.2 4.05"/>
    </path>
  </g>
</svg>
