<?xml version="1.0" encoding="UTF-8" standalone="no"?>
<svg xmlns:xlink="http://www.w3.org/1999/xlink" height="33.3px" width="19.3px" xmlns="http://www.w3.org/2000/svg">
  <g transform="matrix(1.0, 0.0, 0.0, 1.0, 8.8, 9.95)">
    <path d="M-8.8 0.5 L-8.8 0.7 Q-8.75 4.05 -7.0 6.65 -6.5 7.3 -6.0 7.9 L-5.85 8.05 -5.55 8.35 -5.35 8.6 -5.1 9.0 -5.0 9.45 -5.0 9.55 Q-4.5 10.3 -4.45 11.25 L-4.45 11.65 -4.5 12.15 -4.7 13.25 -4.95 13.9 -4.25 13.65 -3.5 13.6 Q-2.75 13.65 -2.05 14.2 L-1.9 14.4 Q-1.75 14.6 -1.75 14.85 L-1.85 15.6 Q-2.1 16.45 -3.0 16.95 L-3.25 17.8 Q-3.25 18.2 -3.25 18.6 L-3.25 18.6 -3.2 18.65 -3.1 18.65 Q-2.35 17.45 -1.3 18.0 L-0.8 18.35 -0.4 18.8 Q-0.15 19.25 -0.25 19.85 L-0.05 20.9 0.35 21.2 0.55 21.0 0.7 20.8 0.7 20.5 0.7 20.4 Q0.4 19.05 1.55 18.7 L1.7 18.55 Q2.1 18.25 2.5 18.2 L3.4 18.35 4.0 18.35 4.65 18.45 Q4.95 18.5 5.2 18.55 6.0 18.85 6.3 19.5 L6.5 19.6 6.65 19.65 6.8 19.2 Q6.4 18.65 6.05 18.15 L5.55 17.8 4.3 17.1 4.2 17.1 4.0 16.9 3.75 16.65 Q3.15 16.05 3.35 14.95 L3.65 14.35 4.25 13.95 4.55 13.9 5.3 14.1 Q6.05 14.4 6.45 15.15 L6.45 15.15 7.1 16.15 7.1 15.95 6.8 14.7 Q6.5 12.6 6.75 10.4 6.8 9.8 7.1 9.25 L7.4 8.75 7.5 8.55 Q7.95 8.0 8.55 7.7 L8.8 7.05 8.85 6.95 9.25 6.15 Q9.65 5.1 10.0 4.1 10.5 2.4 10.5 0.5 L10.25 -1.85 Q9.7 -4.7 7.65 -6.9 L6.4 -8.05 Q4.0 -9.95 0.85 -9.95 L-0.3 -9.9 Q-3.55 -9.5 -6.0 -6.9 L-6.4 -6.5 Q-8.8 -3.55 -8.8 0.5" fill="url(#gradient0)" fill-rule="evenodd" stroke="none">
      <animate attributeName="d" dur="2s" repeatCount="indefinite" values="M-8.8 0.5 L-8.8 0.7 Q-8.75 4.05 -7.0 6.65 -6.5 7.3 -6.0 7.9 L-5.85 8.05 -5.55 8.35 -5.35 8.6 -5.1 9.0 -5.0 9.45 -5.0 9.55 Q-4.5 10.3 -4.45 11.25 L-4.45 11.65 -4.5 12.15 -4.7 13.25 -4.95 13.9 -4.25 13.65 -3.5 13.6 Q-2.75 13.65 -2.05 14.2 L-1.9 14.4 Q-1.75 14.6 -1.75 14.85 L-1.85 15.6 Q-2.1 16.45 -3.0 16.95 L-3.25 17.8 Q-3.25 18.2 -3.25 18.6 L-3.25 18.6 -3.2 18.65 -3.1 18.65 Q-2.35 17.45 -1.3 18.0 L-0.8 18.35 -0.4 18.8 Q-0.15 19.25 -0.25 19.85 L-0.05 20.9 0.35 21.2 0.55 21.0 0.7 20.8 0.7 20.5 0.7 20.4 Q0.4 19.05 1.55 18.7 L1.7 18.55 Q2.1 18.25 2.5 18.2 L3.4 18.35 4.0 18.35 4.65 18.45 Q4.95 18.5 5.2 18.55 6.0 18.85 6.3 19.5 L6.5 19.6 6.65 19.65 6.8 19.2 Q6.4 18.65 6.05 18.15 L5.55 17.8 4.3 17.1 4.2 17.1 4.0 16.9 3.75 16.65 Q3.15 16.05 3.35 14.95 L3.65 14.35 4.25 13.95 4.55 13.9 5.3 14.1 Q6.05 14.4 6.45 15.15 L6.45 15.15 7.1 16.15 7.1 15.95 6.8 14.7 Q6.5 12.6 6.75 10.4 6.8 9.8 7.1 9.25 L7.4 8.75 7.5 8.55 Q7.95 8.0 8.55 7.7 L8.8 7.05 8.85 6.95 9.25 6.15 Q9.65 5.1 10.0 4.1 10.5 2.4 10.5 0.5 L10.25 -1.85 Q9.7 -4.7 7.65 -6.9 L6.4 -8.05 Q4.0 -9.95 0.85 -9.95 L-0.3 -9.9 Q-3.55 -9.5 -6.0 -6.9 L-6.4 -6.5 Q-8.8 -3.55 -8.8 0.5;M-8.8 0.5 L-8.8 0.5 Q-8.8 4.15 -6.8 6.9 -5.95 7.2 -5.15 7.75 L-5.05 7.85 -4.85 8.0 -4.55 8.25 -4.25 8.55 -3.9 8.95 -3.9 9.0 Q-3.5 9.7 -3.1 10.35 L-2.95 10.85 -2.95 11.25 -3.0 12.5 -3.3 13.35 -3.6 13.8 -4.05 14.15 Q-4.5 14.9 -4.9 15.65 L-5.0 15.85 Q-4.95 16.15 -4.9 16.45 L-4.7 17.25 Q-4.3 15.95 -3.1 15.9 L-2.2 16.0 Q-1.8 16.1 -1.7 16.55 L-1.65 16.65 -1.65 16.75 -1.65 16.85 Q-1.45 17.95 -1.65 19.1 L-1.75 19.8 -1.8 20.3 Q-1.75 21.0 -1.7 21.65 L-1.2 22.55 -0.85 22.95 -0.45 23.25 -0.05 23.35 0.3 23.35 0.2 23.05 Q-0.3 22.05 -0.45 20.85 L-0.45 20.55 Q-0.4 20.05 -0.4 19.6 L-0.2 18.5 0.05 17.9 0.4 17.4 Q0.65 17.15 0.95 17.05 1.55 17.15 2.15 17.2 L2.3 17.3 2.4 17.4 3.0 17.9 Q3.4 18.5 3.25 19.4 L3.2 20.1 3.3 21.4 3.3 21.6 3.55 21.9 3.8 22.05 Q3.7 20.9 4.0 19.9 L4.2 19.3 4.5 18.6 4.6 18.2 4.7 17.3 Q5.05 16.65 6.1 17.1 L6.1 17.1 7.05 17.85 7.05 17.95 7.1 16.6 Q5.4 14.8 5.65 12.45 5.75 11.9 5.85 11.35 L6.05 10.95 6.05 10.75 Q6.25 10.25 6.4 9.8 L6.75 9.1 6.75 9.0 7.3 8.15 Q8.05 7.15 9.05 6.6 9.95 4.9 10.3 2.95 L10.5 0.5 Q10.5 -2.85 8.8 -5.45 L7.65 -6.9 Q5.3 -9.45 2.1 -9.85 L0.85 -9.95 Q-2.85 -9.95 -5.6 -7.35 L-6.0 -6.9 Q-8.8 -3.85 -8.8 0.5"/>
    </path>
    <path d="M-8.8 0.5 Q-8.8 -3.55 -6.4 -6.5 L-6.0 -6.9 Q-3.55 -9.5 -0.3 -9.9 L0.85 -9.95 Q4.0 -9.95 6.4 -8.05 L7.65 -6.9 Q9.7 -4.7 10.25 -1.85 L10.5 0.5 Q10.5 2.4 10.0 4.1 9.65 5.1 9.25 6.15 L8.85 6.95 8.8 7.05 8.55 7.7 Q7.95 8.0 7.5 8.55 L7.4 8.75 7.1 9.25 Q6.8 9.8 6.75 10.4 6.5 12.6 6.8 14.7 L7.1 15.95 7.1 16.15 6.45 15.15 6.45 15.15 Q6.05 14.4 5.3 14.1 L4.55 13.9 4.25 13.95 3.65 14.35 3.35 14.95 Q3.15 16.05 3.75 16.65 L4.0 16.9 4.2 17.1 4.3 17.1 5.55 17.8 6.05 18.15 Q6.4 18.65 6.8 19.2 L6.65 19.65 6.5 19.6 6.3 19.5 Q6.0 18.85 5.2 18.55 4.95 18.5 4.65 18.45 L4.0 18.35 3.4 18.35 2.5 18.2 Q2.1 18.25 1.7 18.55 L1.55 18.7 Q0.4 19.05 0.7 20.4 L0.7 20.5 0.7 20.8 0.55 21.0 0.35 21.2 -0.05 20.9 -0.25 19.85 Q-0.15 19.25 -0.4 18.8 L-0.8 18.35 -1.3 18.0 Q-2.35 17.45 -3.1 18.65 L-3.2 18.65 -3.25 18.6 -3.25 18.6 Q-3.25 18.2 -3.25 17.8 L-3.0 16.95 Q-2.1 16.45 -1.85 15.6 L-1.75 14.85 Q-1.75 14.6 -1.9 14.4 L-2.05 14.2 Q-2.75 13.65 -3.5 13.6 L-4.25 13.65 -4.95 13.9 -4.7 13.25 -4.5 12.15 -4.45 11.65 -4.45 11.25 Q-4.5 10.3 -5.0 9.55 L-5.0 9.45 -5.1 9.0 -5.35 8.6 -5.55 8.35 -5.85 8.05 -6.0 7.9 Q-6.5 7.3 -7.0 6.65 -8.75 4.05 -8.8 0.7 L-8.8 0.5" fill="none" stroke="#000000" stroke-linecap="round" stroke-linejoin="round" stroke-opacity="0.0" stroke-width="1.0">
      <animate attributeName="stroke" dur="2s" repeatCount="indefinite" values="#000000;#000001"/>
      <animate attributeName="stroke-width" dur="2s" repeatCount="indefinite" values="0.0;0.0"/>
      <animate attributeName="fill-opacity" dur="2s" repeatCount="indefinite" values="0.0;0.0"/>
      <animate attributeName="d" dur="2s" repeatCount="indefinite" values="M-8.8 0.5 Q-8.8 -3.55 -6.4 -6.5 L-6.0 -6.9 Q-3.55 -9.5 -0.3 -9.9 L0.85 -9.95 Q4.0 -9.95 6.4 -8.05 L7.65 -6.9 Q9.7 -4.7 10.25 -1.85 L10.5 0.5 Q10.5 2.4 10.0 4.1 9.65 5.1 9.25 6.15 L8.85 6.95 8.8 7.05 8.55 7.7 Q7.95 8.0 7.5 8.55 L7.4 8.75 7.1 9.25 Q6.8 9.8 6.75 10.4 6.5 12.6 6.8 14.7 L7.1 15.95 7.1 16.15 6.45 15.15 6.45 15.15 Q6.05 14.4 5.3 14.1 L4.55 13.9 4.25 13.95 3.65 14.35 3.35 14.95 Q3.15 16.05 3.75 16.65 L4.0 16.9 4.2 17.1 4.3 17.1 5.55 17.8 6.05 18.15 Q6.4 18.65 6.8 19.2 L6.65 19.65 6.5 19.6 6.3 19.5 Q6.0 18.85 5.2 18.55 4.95 18.5 4.65 18.45 L4.0 18.35 3.4 18.35 2.5 18.2 Q2.1 18.25 1.7 18.55 L1.55 18.7 Q0.4 19.05 0.7 20.4 L0.7 20.5 0.7 20.8 0.55 21.0 0.35 21.2 -0.05 20.9 -0.25 19.85 Q-0.15 19.25 -0.4 18.8 L-0.8 18.35 -1.3 18.0 Q-2.35 17.45 -3.1 18.65 L-3.2 18.65 -3.25 18.6 -3.25 18.6 Q-3.25 18.2 -3.25 17.8 L-3.0 16.95 Q-2.1 16.45 -1.85 15.6 L-1.75 14.85 Q-1.75 14.6 -1.9 14.4 L-2.05 14.2 Q-2.75 13.65 -3.5 13.6 L-4.25 13.65 -4.95 13.9 -4.7 13.25 -4.5 12.15 -4.45 11.65 -4.45 11.25 Q-4.5 10.3 -5.0 9.55 L-5.0 9.45 -5.1 9.0 -5.35 8.6 -5.55 8.35 -5.85 8.05 -6.0 7.9 Q-6.5 7.3 -7.0 6.65 -8.75 4.05 -8.8 0.7 L-8.8 0.5;M-8.8 0.5 Q-8.8 -3.85 -6.0 -6.9 L-5.6 -7.35 Q-2.85 -9.95 0.85 -9.95 L2.1 -9.85 Q5.3 -9.45 7.65 -6.9 L8.8 -5.45 Q10.5 -2.85 10.5 0.5 L10.3 2.95 Q9.95 4.9 9.05 6.6 8.05 7.15 7.3 8.15 L6.75 9.0 6.75 9.1 6.4 9.8 Q6.25 10.25 6.05 10.75 L6.05 10.95 5.85 11.35 Q5.75 11.9 5.65 12.45 5.4 14.8 7.1 16.6 L7.05 17.95 7.05 17.85 6.1 17.1 6.1 17.1 Q5.05 16.65 4.7 17.3 L4.6 18.2 4.5 18.6 4.2 19.3 4.0 19.9 Q3.7 20.9 3.8 22.05 L3.55 21.9 3.3 21.6 3.3 21.4 3.2 20.1 3.25 19.4 Q3.4 18.5 3.0 17.9 L2.4 17.4 2.3 17.3 2.15 17.2 Q1.55 17.15 0.95 17.05 0.65 17.15 0.4 17.4 L0.05 17.9 -0.2 18.5 -0.4 19.6 Q-0.4 20.05 -0.45 20.55 L-0.45 20.85 Q-0.3 22.05 0.2 23.05 L0.3 23.35 -0.05 23.35 -0.45 23.25 -0.85 22.95 -1.2 22.55 -1.7 21.65 Q-1.75 21.0 -1.8 20.3 L-1.75 19.8 -1.65 19.1 Q-1.45 17.95 -1.65 16.85 L-1.65 16.75 -1.65 16.65 -1.7 16.55 Q-1.8 16.1 -2.2 16.0 L-3.1 15.9 Q-4.3 15.95 -4.7 17.25 L-4.9 16.45 Q-4.95 16.15 -5.0 15.85 L-4.9 15.65 Q-4.5 14.9 -4.05 14.15 L-3.6 13.8 -3.3 13.35 -3.0 12.5 -2.95 11.25 -2.95 10.85 -3.1 10.35 Q-3.5 9.7 -3.9 9.0 L-3.9 8.95 -4.25 8.55 -4.55 8.25 -4.85 8.0 -5.05 7.85 -5.15 7.75 Q-5.95 7.2 -6.8 6.9 -8.8 4.15 -8.8 0.5 L-8.8 0.5"/>
    </path>
  </g>
  <defs>
    <radialGradient cx="0" cy="0" gradientTransform="matrix(0.0246, 0.0, 0.0, 0.0246, 1.9, 10.15)" gradientUnits="userSpaceOnUse" id="gradient0" r="819.2" spreadMethod="pad">
      <animateTransform additive="replace" attributeName="gradientTransform" dur="2s" from="1" repeatCount="indefinite" to="1" type="scale"/>
      <animateTransform additive="sum" attributeName="gradientTransform" dur="2s" from="1.9 10.15" repeatCount="indefinite" to="1.9 10.15" type="translate"/>
      <animateTransform additive="sum" attributeName="gradientTransform" dur="2s" from="0.0" repeatCount="indefinite" to="0.0" type="rotate"/>
      <animateTransform additive="sum" attributeName="gradientTransform" dur="2s" from="0.0246 0.0246" repeatCount="indefinite" to="0.0246 0.0246" type="scale"/>
      <animateTransform additive="sum" attributeName="gradientTransform" dur="2s" from="0.0" repeatCount="indefinite" to="0.0" type="skewX"/>
      <stop offset="0.0" stop-color="#fefe0c" stop-opacity="0.9019608">
        <animate attributeName="offset" dur="2s" repeatCount="indefinite" values="0.0;0.0"/>
        <animate attributeName="stop-color" dur="2s" repeatCount="indefinite" values="#fefe0c;#fefe0d"/>
        <animate attributeName="stop-opacity" dur="2s" repeatCount="indefinite" values="0.9019608;0.9019608"/>
      </stop>
      <stop offset="0.5764705882352941" stop-color="#ffba2b" stop-opacity="0.9019608">
        <animate attributeName="offset" dur="2s" repeatCount="indefinite" values="0.5764705882352941;0.5764705882352941"/>
        <animate attributeName="stop-color" dur="2s" repeatCount="indefinite" values="#ffba2b;#ffba2c"/>
        <animate attributeName="stop-opacity" dur="2s" repeatCount="indefinite" values="0.9019608;0.9019608"/>
      </stop>
      <stop offset="1.0" stop-color="#ff720b" stop-opacity="0.9019608">
        <animate attributeName="offset" dur="2s" repeatCount="indefinite" values="1.0;1.0"/>
        <animate attributeName="stop-color" dur="2s" repeatCount="indefinite" values="#ff720b;#ff720c"/>
        <animate attributeName="stop-opacity" dur="2s" repeatCount="indefinite" values="0.9019608;0.9019608"/>
      </stop>
    </radialGradient>
  </defs>
</svg>
