<?xml version="1.0" encoding="UTF-8" standalone="no"?>
<svg xmlns:xlink="http://www.w3.org/1999/xlink" height="4.9px" width="5.05px" xmlns="http://www.w3.org/2000/svg">
  <g transform="matrix(1.0, 0.0, 0.0, 1.0, 3.55, -9.05)">
    <path d="M-3.55 11.2 L-3.35 11.3 -3.15 11.4 -2.7 11.35 -2.25 10.95 -2.05 11.0 -1.85 11.1 -1.65 11.1 -1.1 10.9 -1.0 10.85 -0.85 10.85 Q-0.3 11.0 0.0 10.55 L0.0 10.45 0.15 9.9 -0.15 9.2 -0.35 9.05 -0.5 9.05 -0.55 9.1 -0.7 9.25 Q-0.75 9.5 -0.8 9.7 L-0.9 9.7 -1.0 9.7 -1.4 9.8 -1.4 9.7 -1.4 9.7 -1.5 9.45 -1.6 9.35 -1.85 9.3 -2.5 9.85 -2.65 10.1 -3.0 10.3 Q-3.55 10.6 -3.55 11.2" fill="#000000" fill-rule="evenodd" stroke="none">
      <animate attributeName="fill" dur="2s" repeatCount="indefinite" values="#000000;#000001"/>
      <animate attributeName="fill-opacity" dur="2s" repeatCount="indefinite" values="1.0;1.0"/>
      <animate attributeName="d" dur="2s" repeatCount="indefinite" values="M-3.55 11.2 L-3.35 11.3 -3.15 11.4 -2.7 11.35 -2.25 10.95 -2.05 11.0 -1.85 11.1 -1.65 11.1 -1.1 10.9 -1.0 10.85 -0.85 10.85 Q-0.3 11.0 0.0 10.55 L0.0 10.45 0.15 9.9 -0.15 9.2 -0.35 9.05 -0.5 9.05 -0.55 9.1 -0.7 9.25 Q-0.75 9.5 -0.8 9.7 L-0.9 9.7 -1.0 9.7 -1.4 9.8 -1.4 9.7 -1.4 9.7 -1.5 9.45 -1.6 9.35 -1.85 9.3 -2.5 9.85 -2.65 10.1 -3.0 10.3 Q-3.55 10.6 -3.55 11.2;M-2.5 12.85 L-2.5 12.85 -2.5 13.15 -2.45 13.7 -2.0 13.95 -2.0 13.95 -1.8 13.9 -1.65 13.8 -0.9 13.85 -0.9 13.85 -0.7 13.9 Q0.05 13.95 0.35 13.3 L0.35 13.3 0.85 13.1 1.25 12.75 1.45 12.5 1.45 12.4 1.45 12.4 1.5 12.0 Q1.55 11.6 1.2 11.3 L1.0 11.1 1.0 11.15 0.65 11.25 0.55 11.35 0.5 11.45 0.5 11.75 0.5 11.95 0.3 12.1 -0.55 12.65 -0.9 12.6 -1.4 12.7 Q-2.0 12.05 -2.5 12.85"/>
    </path>
    <path d="M-3.55 11.2 Q-3.55 10.6 -3.0 10.3 L-2.65 10.1 -2.5 9.85 -1.85 9.3 -1.6 9.35 -1.5 9.45 -1.4 9.7 -1.4 9.7 -1.4 9.8 -1.0 9.7 -0.9 9.7 -0.8 9.7 Q-0.75 9.5 -0.7 9.25 L-0.55 9.1 -0.5 9.05 -0.35 9.05 -0.15 9.2 0.15 9.9 0.0 10.45 0.0 10.55 Q-0.3 11.0 -0.85 10.85 L-1.0 10.85 -1.1 10.9 -1.65 11.1 -1.85 11.1 -2.05 11.0 -2.25 10.95 -2.7 11.35 -3.15 11.4 -3.35 11.3 -3.55 11.2" fill="none" stroke="#000000" stroke-linecap="round" stroke-linejoin="round" stroke-opacity="0.0" stroke-width="1.0">
      <animate attributeName="stroke" dur="2s" repeatCount="indefinite" values="#000000;#000001"/>
      <animate attributeName="stroke-width" dur="2s" repeatCount="indefinite" values="0.0;0.0"/>
      <animate attributeName="fill-opacity" dur="2s" repeatCount="indefinite" values="0.0;0.0"/>
      <animate attributeName="d" dur="2s" repeatCount="indefinite" values="M-3.55 11.2 Q-3.55 10.6 -3.0 10.3 L-2.65 10.1 -2.5 9.85 -1.85 9.3 -1.6 9.35 -1.5 9.45 -1.4 9.7 -1.4 9.7 -1.4 9.8 -1.0 9.7 -0.9 9.7 -0.8 9.7 Q-0.75 9.5 -0.7 9.25 L-0.55 9.1 -0.5 9.05 -0.35 9.05 -0.15 9.2 0.15 9.9 0.0 10.45 0.0 10.55 Q-0.3 11.0 -0.85 10.85 L-1.0 10.85 -1.1 10.9 -1.65 11.1 -1.85 11.1 -2.05 11.0 -2.25 10.95 -2.7 11.35 -3.15 11.4 -3.35 11.3 -3.55 11.2;M-2.5 12.85 Q-2.0 12.05 -1.4 12.7 L-0.9 12.6 -0.55 12.65 0.3 12.1 0.5 11.95 0.5 11.75 0.5 11.45 0.55 11.35 0.65 11.25 1.0 11.15 1.0 11.1 1.2 11.3 Q1.55 11.6 1.5 12.0 L1.45 12.4 1.45 12.4 1.45 12.5 1.25 12.75 0.85 13.1 0.35 13.3 0.35 13.3 Q0.05 13.95 -0.7 13.9 L-0.9 13.85 -0.9 13.85 -1.65 13.8 -1.8 13.9 -2.0 13.95 -2.0 13.95 -2.45 13.7 -2.5 13.15 -2.5 12.85 -2.5 12.85"/>
    </path>
  </g>
</svg>
