<?xml version="1.0" encoding="UTF-8" standalone="no"?>
<svg xmlns:xlink="http://www.w3.org/1999/xlink" height="3.5px" width="6.15px" xmlns="http://www.w3.org/2000/svg">
  <g transform="matrix(1.0, 0.0, 0.0, 1.0, -11.95, 5.2)">
    <path d="M12.05 -3.7 L12.05 -3.7 Q12.2 -3.45 12.5 -3.45 L12.7 -3.5 12.95 -3.75 12.95 -3.8 13.2 -3.7 Q13.45 -3.6 13.65 -3.5 L14.15 -3.45 Q14.35 -3.5 14.55 -3.65 L14.75 -3.75 14.85 -3.9 14.95 -3.9 15.0 -3.9 15.35 -4.15 15.4 -4.2 Q15.6 -5.15 14.6 -5.2 L14.4 -5.2 13.95 -4.95 13.9 -4.8 13.9 -4.7 13.7 -4.7 13.6 -4.7 13.5 -4.7 Q13.2 -4.75 13.0 -4.95 L12.55 -5.05 12.1 -4.65 12.1 -4.65 12.05 -4.6 12.0 -4.5 Q12.05 -4.1 12.05 -3.7" fill="#000000" fill-rule="evenodd" stroke="none">
      <animate attributeName="fill" dur="2s" repeatCount="indefinite" values="#000000;#000001"/>
      <animate attributeName="fill-opacity" dur="2s" repeatCount="indefinite" values="1.0;1.0"/>
      <animate attributeName="d" dur="2s" repeatCount="indefinite" values="M12.05 -3.7 L12.05 -3.7 Q12.2 -3.45 12.5 -3.45 L12.7 -3.5 12.95 -3.75 12.95 -3.8 13.2 -3.7 Q13.45 -3.6 13.65 -3.5 L14.15 -3.45 Q14.35 -3.5 14.55 -3.65 L14.75 -3.75 14.85 -3.9 14.95 -3.9 15.0 -3.9 15.35 -4.15 15.4 -4.2 Q15.6 -5.15 14.6 -5.2 L14.4 -5.2 13.95 -4.95 13.9 -4.8 13.9 -4.7 13.7 -4.7 13.6 -4.7 13.5 -4.7 Q13.2 -4.75 13.0 -4.95 L12.55 -5.05 12.1 -4.65 12.1 -4.65 12.05 -4.6 12.0 -4.5 Q12.05 -4.1 12.05 -3.7;M15.1 -3.25 L15.1 -3.15 Q15.15 -2.85 15.2 -2.55 L15.2 -2.25 15.2 -1.95 15.35 -1.85 15.55 -1.7 Q15.8 -1.65 16.0 -1.9 L16.1 -2.25 Q16.15 -2.45 16.15 -2.6 L16.3 -2.5 16.5 -2.45 16.55 -2.4 16.55 -2.3 17.0 -2.0 17.1 -2.0 Q17.9 -1.7 18.05 -2.8 L18.1 -3.0 18.0 -3.45 17.75 -3.55 17.6 -3.55 17.25 -3.45 17.15 -3.4 17.1 -3.45 Q16.9 -3.5 16.7 -3.55 L16.1 -3.85 15.65 -4.15 15.65 -4.1 15.5 -4.1 15.45 -4.05 Q15.05 -3.75 15.1 -3.25"/>
    </path>
    <path d="M12.05 -3.7 Q12.05 -4.1 12.0 -4.5 L12.05 -4.6 12.1 -4.65 12.1 -4.65 12.55 -5.05 13.0 -4.95 Q13.2 -4.75 13.5 -4.7 L13.6 -4.7 13.7 -4.7 13.9 -4.7 13.9 -4.8 13.95 -4.95 14.4 -5.2 14.6 -5.2 Q15.6 -5.15 15.4 -4.2 L15.35 -4.15 15.0 -3.9 14.95 -3.9 14.85 -3.9 14.75 -3.75 14.55 -3.65 Q14.35 -3.5 14.15 -3.45 L13.65 -3.5 Q13.45 -3.6 13.2 -3.7 L12.95 -3.8 12.95 -3.75 12.7 -3.5 12.5 -3.45 Q12.2 -3.45 12.05 -3.7 L12.05 -3.7" fill="none" stroke="#000000" stroke-linecap="round" stroke-linejoin="round" stroke-opacity="0.0" stroke-width="1.0">
      <animate attributeName="stroke" dur="2s" repeatCount="indefinite" values="#000000;#000001"/>
      <animate attributeName="stroke-width" dur="2s" repeatCount="indefinite" values="0.0;0.0"/>
      <animate attributeName="fill-opacity" dur="2s" repeatCount="indefinite" values="0.0;0.0"/>
      <animate attributeName="d" dur="2s" repeatCount="indefinite" values="M12.05 -3.7 Q12.05 -4.1 12.0 -4.5 L12.05 -4.6 12.1 -4.65 12.1 -4.65 12.55 -5.05 13.0 -4.95 Q13.2 -4.75 13.5 -4.7 L13.6 -4.7 13.7 -4.7 13.9 -4.7 13.9 -4.8 13.95 -4.95 14.4 -5.2 14.6 -5.2 Q15.6 -5.15 15.4 -4.2 L15.35 -4.15 15.0 -3.9 14.95 -3.9 14.85 -3.9 14.75 -3.75 14.55 -3.65 Q14.35 -3.5 14.15 -3.45 L13.65 -3.5 Q13.45 -3.6 13.2 -3.7 L12.95 -3.8 12.95 -3.75 12.7 -3.5 12.5 -3.45 Q12.2 -3.45 12.05 -3.7 L12.05 -3.7;M15.1 -3.25 Q15.05 -3.75 15.45 -4.05 L15.5 -4.1 15.65 -4.1 15.65 -4.15 16.1 -3.85 16.7 -3.55 Q16.9 -3.5 17.1 -3.45 L17.15 -3.4 17.25 -3.45 17.6 -3.55 17.75 -3.55 18.0 -3.45 18.1 -3.0 18.05 -2.8 Q17.9 -1.7 17.1 -2.0 L17.0 -2.0 16.55 -2.3 16.55 -2.4 16.5 -2.45 16.3 -2.5 16.15 -2.6 Q16.15 -2.45 16.1 -2.25 L16.0 -1.9 Q15.8 -1.65 15.55 -1.7 L15.35 -1.85 15.2 -1.95 15.2 -2.25 15.2 -2.55 Q15.15 -2.85 15.1 -3.15 L15.1 -3.25"/>
    </path>
  </g>
</svg>
