<?xml version="1.0" encoding="UTF-8" standalone="no"?>
<svg xmlns:xlink="http://www.w3.org/1999/xlink" height="6.15px" width="3.55px" xmlns="http://www.w3.org/2000/svg">
  <g transform="matrix(1.0, 0.0, 0.0, 1.0, 0.55, -7.05)">
    <path d="M-0.55 8.55 Q-0.05 8.95 0.4 8.95 L0.5 8.95 0.7 8.9 1.0 8.75 1.6 8.85 1.6 8.85 Q1.9 9.1 2.25 9.05 L2.55 9.0 2.65 8.9 Q3.1 8.2 2.8 7.65 L2.4 7.3 2.2 7.35 1.85 7.65 1.85 7.65 1.65 7.6 1.45 7.55 1.45 7.45 Q1.35 7.0 0.9 7.05 L0.4 7.25 0.3 7.25 0.1 7.35 Q-0.55 7.75 -0.55 8.55" fill="#000000" fill-rule="evenodd" stroke="none">
      <animate attributeName="fill" dur="2s" repeatCount="indefinite" values="#000000;#000001"/>
      <animate attributeName="fill-opacity" dur="2s" repeatCount="indefinite" values="1.0;1.0"/>
      <animate attributeName="d" dur="2s" repeatCount="indefinite" values="M-0.55 8.55 Q-0.05 8.95 0.4 8.95 L0.5 8.95 0.7 8.9 1.0 8.75 1.6 8.85 1.6 8.85 Q1.9 9.1 2.25 9.05 L2.55 9.0 2.65 8.9 Q3.1 8.2 2.8 7.65 L2.4 7.3 2.2 7.35 1.85 7.65 1.85 7.65 1.65 7.6 1.45 7.55 1.45 7.45 Q1.35 7.0 0.9 7.05 L0.4 7.25 0.3 7.25 0.1 7.35 Q-0.55 7.75 -0.55 8.55;M0.2 12.95 Q0.6 13.4 1.0 13.05 L1.05 12.95 1.1 12.85 1.4 12.85 1.95 12.65 2.05 12.7 Q2.35 12.6 2.65 12.5 L2.9 12.15 2.95 12.05 Q3.15 11.45 2.5 11.05 L2.1 11.25 1.85 11.35 1.45 11.55 1.35 11.55 1.35 11.55 1.35 11.55 1.25 11.4 Q1.0 11.05 0.65 11.15 L0.25 11.45 0.25 11.55 0.25 11.75 Q0.2 12.35 0.2 12.95"/>
    </path>
    <path d="M-0.55 8.55 Q-0.55 7.75 0.1 7.35 L0.3 7.25 0.4 7.25 0.9 7.05 Q1.35 7.0 1.45 7.45 L1.45 7.55 1.65 7.6 1.85 7.65 1.85 7.65 2.2 7.35 2.4 7.3 2.8 7.65 Q3.1 8.2 2.65 8.9 L2.55 9.0 2.25 9.05 Q1.9 9.1 1.6 8.85 L1.6 8.85 1.0 8.75 0.7 8.9 0.5 8.95 0.4 8.95 Q-0.05 8.95 -0.55 8.55" fill="none" stroke="#000000" stroke-linecap="round" stroke-linejoin="round" stroke-opacity="0.0" stroke-width="1.0">
      <animate attributeName="stroke" dur="2s" repeatCount="indefinite" values="#000000;#000001"/>
      <animate attributeName="stroke-width" dur="2s" repeatCount="indefinite" values="0.0;0.0"/>
      <animate attributeName="fill-opacity" dur="2s" repeatCount="indefinite" values="0.0;0.0"/>
      <animate attributeName="d" dur="2s" repeatCount="indefinite" values="M-0.55 8.55 Q-0.55 7.75 0.1 7.35 L0.3 7.25 0.4 7.25 0.9 7.05 Q1.35 7.0 1.45 7.45 L1.45 7.55 1.65 7.6 1.85 7.65 1.85 7.65 2.2 7.35 2.4 7.3 2.8 7.65 Q3.1 8.2 2.65 8.9 L2.55 9.0 2.25 9.05 Q1.9 9.1 1.6 8.85 L1.6 8.85 1.0 8.75 0.7 8.9 0.5 8.95 0.4 8.95 Q-0.05 8.95 -0.55 8.55;M0.2 12.95 Q0.2 12.35 0.25 11.75 L0.25 11.55 0.25 11.45 0.65 11.15 Q1.0 11.05 1.25 11.4 L1.35 11.55 1.35 11.55 1.35 11.55 1.45 11.55 1.85 11.35 2.1 11.25 2.5 11.05 Q3.15 11.45 2.95 12.05 L2.9 12.15 2.65 12.5 Q2.35 12.6 2.05 12.7 L1.95 12.65 1.4 12.85 1.1 12.85 1.05 12.95 1.0 13.05 Q0.6 13.4 0.2 12.95"/>
    </path>
  </g>
</svg>
