<?xml version="1.0" encoding="UTF-8" standalone="no"?>
<svg xmlns:xlink="http://www.w3.org/1999/xlink" height="5.7px" width="4.85px" xmlns="http://www.w3.org/2000/svg">
  <g transform="matrix(1.0, 0.0, 0.0, 1.0, -15.1, 4.15)">
    <path d="M15.1 -3.25 L15.1 -3.05 Q15.15 -2.7 15.2 -2.35 L15.2 -1.95 15.3 -1.85 15.45 -1.75 Q15.75 -1.6 16.0 -1.9 L16.1 -2.1 16.1 -2.25 16.15 -2.6 16.3 -2.5 16.5 -2.45 16.55 -2.4 16.55 -2.3 16.65 -2.2 Q17.75 -1.55 18.05 -2.6 L18.05 -2.7 18.05 -2.8 18.05 -3.4 17.25 -3.45 17.15 -3.4 17.1 -3.45 17.1 -3.45 Q16.6 -3.6 16.15 -3.85 L15.65 -4.15 15.65 -4.1 15.5 -4.1 15.45 -4.05 Q15.05 -3.75 15.1 -3.25" fill="#000000" fill-rule="evenodd" stroke="none">
      <animate attributeName="fill" dur="2s" repeatCount="indefinite" values="#000000;#000001"/>
      <animate attributeName="fill-opacity" dur="2s" repeatCount="indefinite" values="1.0;1.0"/>
      <animate attributeName="d" dur="2s" repeatCount="indefinite" values="M15.1 -3.25 L15.1 -3.05 Q15.15 -2.7 15.2 -2.35 L15.2 -1.95 15.3 -1.85 15.45 -1.75 Q15.75 -1.6 16.0 -1.9 L16.1 -2.1 16.1 -2.25 16.15 -2.6 16.3 -2.5 16.5 -2.45 16.55 -2.4 16.55 -2.3 16.65 -2.2 Q17.75 -1.55 18.05 -2.6 L18.05 -2.7 18.05 -2.8 18.05 -3.4 17.25 -3.45 17.15 -3.4 17.1 -3.45 17.1 -3.45 Q16.6 -3.6 16.15 -3.85 L15.65 -4.15 15.65 -4.1 15.5 -4.1 15.45 -4.05 Q15.05 -3.75 15.1 -3.25;M16.55 1.3 L16.55 1.3 Q16.7 1.55 17.0 1.55 L17.45 1.35 17.5 1.3 17.6 1.2 Q17.85 1.25 18.1 1.25 L18.3 1.25 18.3 1.25 18.7 1.3 18.9 1.3 19.1 1.2 19.2 1.1 19.3 1.1 19.55 0.85 Q20.4 0.05 19.5 -0.45 L19.35 -0.45 19.25 -0.4 19.0 0.0 18.3 0.1 18.2 0.1 18.1 0.1 17.9 0.1 Q17.55 0.05 17.2 0.05 L16.85 0.45 16.85 0.45 16.8 0.55 16.75 0.65 Q16.65 1.0 16.55 1.3"/>
    </path>
    <path d="M15.1 -3.25 Q15.05 -3.75 15.45 -4.05 L15.5 -4.1 15.65 -4.1 15.65 -4.15 16.15 -3.85 Q16.6 -3.6 17.1 -3.45 L17.1 -3.45 17.15 -3.4 17.25 -3.45 18.05 -3.4 18.05 -2.8 18.05 -2.7 18.05 -2.6 Q17.75 -1.55 16.65 -2.2 L16.55 -2.3 16.55 -2.4 16.5 -2.45 16.3 -2.5 16.15 -2.6 16.1 -2.25 16.1 -2.1 16.0 -1.9 Q15.75 -1.6 15.45 -1.75 L15.3 -1.85 15.2 -1.95 15.2 -2.35 Q15.15 -2.7 15.1 -3.05 L15.1 -3.25" fill="none" stroke="#000000" stroke-linecap="round" stroke-linejoin="round" stroke-opacity="0.0" stroke-width="1.0">
      <animate attributeName="stroke" dur="2s" repeatCount="indefinite" values="#000000;#000001"/>
      <animate attributeName="stroke-width" dur="2s" repeatCount="indefinite" values="0.0;0.0"/>
      <animate attributeName="fill-opacity" dur="2s" repeatCount="indefinite" values="0.0;0.0"/>
      <animate attributeName="d" dur="2s" repeatCount="indefinite" values="M15.1 -3.25 Q15.05 -3.75 15.45 -4.05 L15.5 -4.1 15.65 -4.1 15.65 -4.15 16.15 -3.85 Q16.6 -3.6 17.1 -3.45 L17.1 -3.45 17.15 -3.4 17.25 -3.45 18.05 -3.4 18.05 -2.8 18.05 -2.7 18.05 -2.6 Q17.75 -1.55 16.65 -2.2 L16.55 -2.3 16.55 -2.4 16.5 -2.45 16.3 -2.5 16.15 -2.6 16.1 -2.25 16.1 -2.1 16.0 -1.9 Q15.75 -1.6 15.45 -1.75 L15.3 -1.85 15.2 -1.95 15.2 -2.35 Q15.15 -2.7 15.1 -3.05 L15.1 -3.25;M16.55 1.3 Q16.65 1.0 16.75 0.65 L16.8 0.55 16.85 0.45 16.85 0.45 17.2 0.05 Q17.55 0.05 17.9 0.1 L18.1 0.1 18.2 0.1 18.3 0.1 19.0 0.0 19.25 -0.4 19.35 -0.45 19.5 -0.45 Q20.4 0.05 19.55 0.85 L19.3 1.1 19.2 1.1 19.1 1.2 18.9 1.3 18.7 1.3 18.3 1.25 18.3 1.25 18.1 1.25 Q17.85 1.25 17.6 1.2 L17.5 1.3 17.45 1.35 17.0 1.55 Q16.7 1.55 16.55 1.3 L16.55 1.3"/>
    </path>
  </g>
</svg>
