<?xml version="1.0" encoding="UTF-8" standalone="no"?>
<svg xmlns:xlink="http://www.w3.org/1999/xlink" height="5.65px" width="5.0px" xmlns="http://www.w3.org/2000/svg">
  <g transform="matrix(1.0, 0.0, 0.0, 1.0, 4.3, 6.15)">
    <path d="M-3.2 -4.95 L-3.2 -4.95 -1.85 -4.9 -1.8 -4.7 -1.55 -4.35 -1.4 -4.25 -1.05 -4.2 -1.05 -4.1 -0.85 -3.75 -0.85 -3.75 Q-0.6 -3.6 -0.35 -3.45 0.1 -3.35 0.45 -3.9 L0.7 -4.55 0.35 -4.85 0.15 -4.85 -0.15 -4.85 -0.15 -4.9 -0.15 -5.0 Q-0.4 -5.5 -0.9 -5.6 L-0.9 -5.7 -1.25 -6.1 -1.35 -6.1 -2.0 -6.15 -2.0 -6.1 -2.1 -6.05 -2.1 -6.05 -2.2 -6.05 -2.3 -6.0 -2.55 -5.7 -2.7 -5.65 -2.9 -5.55 Q-3.35 -5.4 -3.2 -4.95" fill="#000000" fill-rule="evenodd" stroke="none">
      <animate attributeName="fill" dur="2s" repeatCount="indefinite" values="#000000;#000001"/>
      <animate attributeName="fill-opacity" dur="2s" repeatCount="indefinite" values="1.0;1.0"/>
      <animate attributeName="d" dur="2s" repeatCount="indefinite" values="M-3.2 -4.95 L-3.2 -4.95 -1.85 -4.9 -1.8 -4.7 -1.55 -4.35 -1.4 -4.25 -1.05 -4.2 -1.05 -4.1 -0.85 -3.75 -0.85 -3.75 Q-0.6 -3.6 -0.35 -3.45 0.1 -3.35 0.45 -3.9 L0.7 -4.55 0.35 -4.85 0.15 -4.85 -0.15 -4.85 -0.15 -4.9 -0.15 -5.0 Q-0.4 -5.5 -0.9 -5.6 L-0.9 -5.7 -1.25 -6.1 -1.35 -6.1 -2.0 -6.15 -2.0 -6.1 -2.1 -6.05 -2.1 -6.05 -2.2 -6.05 -2.3 -6.0 -2.55 -5.7 -2.7 -5.65 -2.9 -5.55 Q-3.35 -5.4 -3.2 -4.95;M-4.3 -1.7 L-4.2 -1.6 -2.8 -1.5 -2.65 -1.5 -2.45 -1.55 -2.3 -1.25 -2.2 -0.8 -2.2 -0.8 -1.95 -0.6 -1.85 -0.55 Q-1.5 -0.45 -1.25 -0.7 -0.75 -1.2 -0.8 -1.6 L-1.25 -2.2 -1.5 -2.15 -1.65 -2.15 -1.65 -2.35 -1.65 -2.4 -1.65 -2.5 Q-1.75 -3.05 -2.05 -3.05 L-2.15 -3.05 -2.65 -2.8 -2.7 -2.85 -3.05 -3.15 -3.15 -3.15 -3.25 -3.15 -3.25 -3.1 -3.4 -3.1 -3.5 -3.05 -3.65 -2.9 -3.75 -2.75 -4.0 -2.5 Q-4.15 -2.1 -4.3 -1.7"/>
    </path>
    <path d="M-3.2 -4.95 Q-3.35 -5.4 -2.9 -5.55 L-2.7 -5.65 -2.55 -5.7 -2.3 -6.0 -2.2 -6.05 -2.1 -6.05 -2.1 -6.05 -2.0 -6.1 -2.0 -6.15 -1.35 -6.1 -1.25 -6.1 -0.9 -5.7 -0.9 -5.6 Q-0.4 -5.5 -0.15 -5.0 L-0.15 -4.9 -0.15 -4.85 0.15 -4.85 0.35 -4.85 0.7 -4.55 0.45 -3.9 Q0.1 -3.35 -0.35 -3.45 -0.6 -3.6 -0.85 -3.75 L-0.85 -3.75 -1.05 -4.1 -1.05 -4.2 -1.4 -4.25 -1.55 -4.35 -1.8 -4.7 -1.85 -4.9 -3.2 -4.95 -3.2 -4.95" fill="none" stroke="#000000" stroke-linecap="round" stroke-linejoin="round" stroke-opacity="0.0" stroke-width="1.0">
      <animate attributeName="stroke" dur="2s" repeatCount="indefinite" values="#000000;#000001"/>
      <animate attributeName="stroke-width" dur="2s" repeatCount="indefinite" values="0.0;0.0"/>
      <animate attributeName="fill-opacity" dur="2s" repeatCount="indefinite" values="0.0;0.0"/>
      <animate attributeName="d" dur="2s" repeatCount="indefinite" values="M-3.2 -4.95 Q-3.35 -5.4 -2.9 -5.55 L-2.7 -5.65 -2.55 -5.7 -2.3 -6.0 -2.2 -6.05 -2.1 -6.05 -2.1 -6.05 -2.0 -6.1 -2.0 -6.15 -1.35 -6.1 -1.25 -6.1 -0.9 -5.7 -0.9 -5.6 Q-0.4 -5.5 -0.15 -5.0 L-0.15 -4.9 -0.15 -4.85 0.15 -4.85 0.35 -4.85 0.7 -4.55 0.45 -3.9 Q0.1 -3.35 -0.35 -3.45 -0.6 -3.6 -0.85 -3.75 L-0.85 -3.75 -1.05 -4.1 -1.05 -4.2 -1.4 -4.25 -1.55 -4.35 -1.8 -4.7 -1.85 -4.9 -3.2 -4.95 -3.2 -4.95;M-4.3 -1.7 Q-4.15 -2.1 -4.0 -2.5 L-3.75 -2.75 -3.65 -2.9 -3.5 -3.05 -3.4 -3.1 -3.25 -3.1 -3.25 -3.15 -3.15 -3.15 -3.05 -3.15 -2.7 -2.85 -2.65 -2.8 -2.15 -3.05 -2.05 -3.05 Q-1.75 -3.05 -1.65 -2.5 L-1.65 -2.4 -1.65 -2.35 -1.65 -2.15 -1.5 -2.15 -1.25 -2.2 -0.8 -1.6 Q-0.75 -1.2 -1.25 -0.7 -1.5 -0.45 -1.85 -0.55 L-1.95 -0.6 -2.2 -0.8 -2.2 -0.8 -2.3 -1.25 -2.45 -1.55 -2.65 -1.5 -2.8 -1.5 -4.2 -1.6 -4.3 -1.7"/>
    </path>
  </g>
</svg>
