<?xml version="1.0" encoding="UTF-8" standalone="no"?>
<svg xmlns:xlink="http://www.w3.org/1999/xlink" height="5.45px" width="4.15px" xmlns="http://www.w3.org/2000/svg">
  <g transform="matrix(1.0, 0.0, 0.0, 1.0, 1.7, -14.05)">
    <path d="M-1.7 16.45 Q-1.25 16.55 -0.8 16.6 L-0.55 16.15 0.0 16.25 0.1 16.25 Q0.8 16.8 1.3 16.05 L1.65 15.7 1.65 15.6 1.7 15.5 1.8 15.4 Q2.45 14.8 2.1 14.25 L1.85 14.05 1.75 14.05 1.5 14.1 1.25 14.35 1.25 14.65 1.25 14.65 1.2 14.85 Q0.9 14.9 0.7 15.1 L0.1 15.0 -0.05 15.0 Q0.0 14.5 -0.5 14.4 L-0.6 14.4 -0.85 14.55 -1.1 14.95 Q-1.4 15.7 -1.7 16.45" fill="#000000" fill-rule="evenodd" stroke="none">
      <animate attributeName="fill" dur="2s" repeatCount="indefinite" values="#000000;#000001"/>
      <animate attributeName="fill-opacity" dur="2s" repeatCount="indefinite" values="1.0;1.0"/>
      <animate attributeName="d" dur="2s" repeatCount="indefinite" values="M-1.7 16.45 Q-1.25 16.55 -0.8 16.6 L-0.55 16.15 0.0 16.25 0.1 16.25 Q0.8 16.8 1.3 16.05 L1.65 15.7 1.65 15.6 1.7 15.5 1.8 15.4 Q2.45 14.8 2.1 14.25 L1.85 14.05 1.75 14.05 1.5 14.1 1.25 14.35 1.25 14.65 1.25 14.65 1.2 14.85 Q0.9 14.9 0.7 15.1 L0.1 15.0 -0.05 15.0 Q0.0 14.5 -0.5 14.4 L-0.6 14.4 -0.85 14.55 -1.1 14.95 Q-1.4 15.7 -1.7 16.45;M-1.45 19.2 Q-1.3 19.45 -1.0 19.4 L-0.55 19.25 -0.05 18.95 -0.05 18.95 Q0.4 19.4 0.85 19.25 L1.25 19.05 1.3 19.1 1.3 19.2 1.4 19.3 Q2.1 19.75 2.45 19.05 L2.45 18.85 2.45 18.85 2.2 18.6 2.15 18.35 2.0 18.2 2.0 18.2 1.7 18.05 Q1.35 17.95 1.05 17.9 L0.55 18.05 0.5 17.95 Q0.35 17.7 0.0 17.6 L-0.1 17.6 -0.3 17.7 -0.65 17.9 Q-1.3 18.5 -1.45 19.2"/>
    </path>
    <path d="M-1.7 16.45 Q-1.4 15.7 -1.1 14.95 L-0.85 14.55 -0.6 14.4 -0.5 14.4 Q0.0 14.5 -0.05 15.0 L0.1 15.0 0.7 15.1 Q0.9 14.9 1.2 14.85 L1.25 14.65 1.25 14.65 1.25 14.35 1.5 14.1 1.75 14.05 1.85 14.05 2.1 14.25 Q2.45 14.8 1.8 15.4 L1.7 15.5 1.65 15.6 1.65 15.7 1.3 16.05 Q0.8 16.8 0.1 16.25 L0.0 16.25 -0.55 16.15 -0.8 16.6 Q-1.25 16.55 -1.7 16.45" fill="none" stroke="#000000" stroke-linecap="round" stroke-linejoin="round" stroke-opacity="0.0" stroke-width="1.0">
      <animate attributeName="stroke" dur="2s" repeatCount="indefinite" values="#000000;#000001"/>
      <animate attributeName="stroke-width" dur="2s" repeatCount="indefinite" values="0.0;0.0"/>
      <animate attributeName="fill-opacity" dur="2s" repeatCount="indefinite" values="0.0;0.0"/>
      <animate attributeName="d" dur="2s" repeatCount="indefinite" values="M-1.7 16.45 Q-1.4 15.7 -1.1 14.95 L-0.85 14.55 -0.6 14.4 -0.5 14.4 Q0.0 14.5 -0.05 15.0 L0.1 15.0 0.7 15.1 Q0.9 14.9 1.2 14.85 L1.25 14.65 1.25 14.65 1.25 14.35 1.5 14.1 1.75 14.05 1.85 14.05 2.1 14.25 Q2.45 14.8 1.8 15.4 L1.7 15.5 1.65 15.6 1.65 15.7 1.3 16.05 Q0.8 16.8 0.1 16.25 L0.0 16.25 -0.55 16.15 -0.8 16.6 Q-1.25 16.55 -1.7 16.45;M-1.45 19.2 Q-1.3 18.5 -0.65 17.9 L-0.3 17.7 -0.1 17.6 0.0 17.6 Q0.35 17.7 0.5 17.95 L0.55 18.05 1.05 17.9 Q1.35 17.95 1.7 18.05 L2.0 18.2 2.0 18.2 2.15 18.35 2.2 18.6 2.45 18.85 2.45 18.85 2.45 19.05 Q2.1 19.75 1.4 19.3 L1.3 19.2 1.3 19.1 1.25 19.05 0.85 19.25 Q0.4 19.4 -0.05 18.95 L-0.05 18.95 -0.55 19.25 -1.0 19.4 Q-1.3 19.45 -1.45 19.2"/>
    </path>
  </g>
</svg>
