<?xml version="1.0" encoding="UTF-8" standalone="no"?>
<svg xmlns:xlink="http://www.w3.org/1999/xlink" height="4.9px" width="3.25px" xmlns="http://www.w3.org/2000/svg">
  <g transform="matrix(1.0, 0.0, 0.0, 1.0, -0.2, -11.05)">
    <path d="M0.2 12.95 L0.2 12.95 Q0.6 13.4 1.0 13.05 L1.05 12.95 1.1 12.85 1.7 12.75 1.95 12.65 Q2.35 12.85 2.65 12.5 L2.8 12.35 2.95 12.05 Q3.15 11.45 2.5 11.05 L1.8 11.35 1.7 11.35 1.35 11.55 1.35 11.55 1.35 11.55 1.25 11.45 Q1.0 11.0 0.6 11.2 L0.35 11.35 0.25 11.45 0.25 11.75 Q0.2 12.35 0.2 12.95" fill="#000000" fill-rule="evenodd" stroke="none">
      <animate attributeName="fill" dur="2s" repeatCount="indefinite" values="#000000;#000001"/>
      <animate attributeName="fill-opacity" dur="2s" repeatCount="indefinite" values="1.0;1.0"/>
      <animate attributeName="d" dur="2s" repeatCount="indefinite" values="M0.2 12.95 L0.2 12.95 Q0.6 13.4 1.0 13.05 L1.05 12.95 1.1 12.85 1.7 12.75 1.95 12.65 Q2.35 12.85 2.65 12.5 L2.8 12.35 2.95 12.05 Q3.15 11.45 2.5 11.05 L1.8 11.35 1.7 11.35 1.35 11.55 1.35 11.55 1.35 11.55 1.25 11.45 Q1.0 11.0 0.6 11.2 L0.35 11.35 0.25 11.45 0.25 11.75 Q0.2 12.35 0.2 12.95;M0.2 15.7 L0.3 15.75 Q0.75 15.8 1.15 15.8 L1.35 15.75 1.55 15.8 2.25 15.65 2.25 15.65 Q2.7 15.6 3.15 15.55 L3.15 15.45 3.3 15.15 Q3.35 14.65 3.4 14.15 L2.9 13.55 2.75 13.55 2.55 13.7 2.45 13.8 2.45 13.9 2.45 14.0 Q2.1 14.2 1.75 14.4 L1.45 14.4 1.25 14.5 1.0 14.55 Q0.3 14.9 0.2 15.7"/>
    </path>
    <path d="M0.2 12.95 Q0.2 12.35 0.25 11.75 L0.25 11.45 0.35 11.35 0.6 11.2 Q1.0 11.0 1.25 11.45 L1.35 11.55 1.35 11.55 1.35 11.55 1.7 11.35 1.8 11.35 2.5 11.05 Q3.15 11.45 2.95 12.05 L2.8 12.35 2.65 12.5 Q2.35 12.85 1.95 12.65 L1.7 12.75 1.1 12.85 1.05 12.95 1.0 13.05 Q0.6 13.4 0.2 12.95 L0.2 12.95" fill="none" stroke="#000000" stroke-linecap="round" stroke-linejoin="round" stroke-opacity="0.0" stroke-width="1.0">
      <animate attributeName="stroke" dur="2s" repeatCount="indefinite" values="#000000;#000001"/>
      <animate attributeName="stroke-width" dur="2s" repeatCount="indefinite" values="0.0;0.0"/>
      <animate attributeName="fill-opacity" dur="2s" repeatCount="indefinite" values="0.0;0.0"/>
      <animate attributeName="d" dur="2s" repeatCount="indefinite" values="M0.2 12.95 Q0.2 12.35 0.25 11.75 L0.25 11.45 0.35 11.35 0.6 11.2 Q1.0 11.0 1.25 11.45 L1.35 11.55 1.35 11.55 1.35 11.55 1.7 11.35 1.8 11.35 2.5 11.05 Q3.15 11.45 2.95 12.05 L2.8 12.35 2.65 12.5 Q2.35 12.85 1.95 12.65 L1.7 12.75 1.1 12.85 1.05 12.95 1.0 13.05 Q0.6 13.4 0.2 12.95 L0.2 12.95;M0.2 15.7 Q0.3 14.9 1.0 14.55 L1.25 14.5 1.45 14.4 1.75 14.4 Q2.1 14.2 2.45 14.0 L2.45 13.9 2.45 13.8 2.55 13.7 2.75 13.55 2.9 13.55 3.4 14.15 Q3.35 14.65 3.3 15.15 L3.15 15.45 3.15 15.55 Q2.7 15.6 2.25 15.65 L2.25 15.65 1.55 15.8 1.35 15.75 1.15 15.8 Q0.75 15.8 0.3 15.75 L0.2 15.7"/>
    </path>
  </g>
</svg>
