<?xml version="1.0" encoding="UTF-8" standalone="no"?>
<svg xmlns:xlink="http://www.w3.org/1999/xlink" height="5.9px" width="4.1px" xmlns="http://www.w3.org/2000/svg">
  <g transform="matrix(1.0, 0.0, 0.0, 1.0, 4.7, 3.15)">
    <path d="M-4.3 -1.7 L-4.3 -1.7 Q-3.75 -1.4 -3.15 -1.45 L-2.45 -1.55 -2.4 -1.45 -2.3 -1.25 -2.2 -0.8 -1.95 -0.6 Q-1.55 -0.4 -1.25 -0.7 L-1.15 -0.8 Q-0.4 -1.6 -1.25 -2.2 L-1.25 -2.2 Q-1.4 -2.15 -1.5 -2.15 L-1.65 -2.15 -1.65 -2.15 -1.65 -2.25 -1.65 -2.4 -1.65 -2.4 -1.7 -2.8 Q-1.95 -3.35 -2.65 -2.8 L-2.7 -2.85 -2.7 -2.85 Q-3.0 -3.0 -3.25 -3.15 L-3.25 -3.1 -3.3 -3.1 -3.4 -3.1 -3.5 -3.05 -3.65 -2.9 -3.75 -2.75 Q-4.3 -2.3 -4.3 -1.7" fill="#000000" fill-rule="evenodd" stroke="none">
      <animate attributeName="fill" dur="2s" repeatCount="indefinite" values="#000000;#000001"/>
      <animate attributeName="fill-opacity" dur="2s" repeatCount="indefinite" values="1.0;1.0"/>
      <animate attributeName="d" dur="2s" repeatCount="indefinite" values="M-4.3 -1.7 L-4.3 -1.7 Q-3.75 -1.4 -3.15 -1.45 L-2.45 -1.55 -2.4 -1.45 -2.3 -1.25 -2.2 -0.8 -1.95 -0.6 Q-1.55 -0.4 -1.25 -0.7 L-1.15 -0.8 Q-0.4 -1.6 -1.25 -2.2 L-1.25 -2.2 Q-1.4 -2.15 -1.5 -2.15 L-1.65 -2.15 -1.65 -2.15 -1.65 -2.25 -1.65 -2.4 -1.65 -2.4 -1.7 -2.8 Q-1.95 -3.35 -2.65 -2.8 L-2.7 -2.85 -2.7 -2.85 Q-3.0 -3.0 -3.25 -3.15 L-3.25 -3.1 -3.3 -3.1 -3.4 -3.1 -3.5 -3.05 -3.65 -2.9 -3.75 -2.75 Q-4.3 -2.3 -4.3 -1.7;M-4.7 2.55 L-4.5 2.65 Q-3.8 3.05 -3.5 2.15 L-2.7 2.2 -2.7 2.2 -2.4 2.4 -2.0 2.55 -1.65 2.5 Q-1.35 2.35 -1.1 2.2 L-1.1 2.2 Q-0.15 1.5 -1.0 0.8 L-1.1 0.8 Q-1.3 0.8 -1.45 0.95 L-1.55 1.05 -1.55 1.15 -1.55 1.2 -1.65 1.3 -1.65 1.3 -1.9 1.45 Q-2.25 1.05 -2.7 1.2 L-2.8 1.2 -2.9 1.2 Q-3.1 0.85 -3.45 0.95 L-3.45 0.95 -3.5 0.95 -3.5 0.95 -3.65 1.05 -3.95 1.25 -4.15 1.4 Q-4.65 1.85 -4.7 2.55"/>
    </path>
    <path d="M-4.3 -1.7 Q-4.3 -2.3 -3.75 -2.75 L-3.65 -2.9 -3.5 -3.05 -3.4 -3.1 -3.3 -3.1 -3.25 -3.1 -3.25 -3.15 Q-3.0 -3.0 -2.7 -2.85 L-2.7 -2.85 -2.65 -2.8 Q-1.95 -3.35 -1.7 -2.8 L-1.65 -2.4 -1.65 -2.4 -1.65 -2.25 -1.65 -2.15 -1.65 -2.15 -1.5 -2.15 Q-1.4 -2.15 -1.25 -2.2 L-1.25 -2.2 Q-0.4 -1.6 -1.15 -0.8 L-1.25 -0.7 Q-1.55 -0.4 -1.95 -0.6 L-2.2 -0.8 -2.3 -1.25 -2.4 -1.45 -2.45 -1.55 -3.15 -1.45 Q-3.75 -1.4 -4.3 -1.7 L-4.3 -1.7" fill="none" stroke="#000000" stroke-linecap="round" stroke-linejoin="round" stroke-opacity="0.0" stroke-width="1.0">
      <animate attributeName="stroke" dur="2s" repeatCount="indefinite" values="#000000;#000001"/>
      <animate attributeName="stroke-width" dur="2s" repeatCount="indefinite" values="0.0;0.0"/>
      <animate attributeName="fill-opacity" dur="2s" repeatCount="indefinite" values="0.0;0.0"/>
      <animate attributeName="d" dur="2s" repeatCount="indefinite" values="M-4.3 -1.7 Q-4.3 -2.3 -3.75 -2.75 L-3.65 -2.9 -3.5 -3.05 -3.4 -3.1 -3.3 -3.1 -3.25 -3.1 -3.25 -3.15 Q-3.0 -3.0 -2.7 -2.85 L-2.7 -2.85 -2.65 -2.8 Q-1.95 -3.35 -1.7 -2.8 L-1.65 -2.4 -1.65 -2.4 -1.65 -2.25 -1.65 -2.15 -1.65 -2.15 -1.5 -2.15 Q-1.4 -2.15 -1.25 -2.2 L-1.25 -2.2 Q-0.4 -1.6 -1.15 -0.8 L-1.25 -0.7 Q-1.55 -0.4 -1.95 -0.6 L-2.2 -0.8 -2.3 -1.25 -2.4 -1.45 -2.45 -1.55 -3.15 -1.45 Q-3.75 -1.4 -4.3 -1.7 L-4.3 -1.7;M-4.7 2.55 Q-4.65 1.85 -4.15 1.4 L-3.95 1.25 -3.65 1.05 -3.5 0.95 -3.5 0.95 -3.45 0.95 -3.45 0.95 Q-3.1 0.85 -2.9 1.2 L-2.8 1.2 -2.7 1.2 Q-2.25 1.05 -1.9 1.45 L-1.65 1.3 -1.65 1.3 -1.55 1.2 -1.55 1.15 -1.55 1.05 -1.45 0.95 Q-1.3 0.8 -1.1 0.8 L-1.0 0.8 Q-0.15 1.5 -1.1 2.2 L-1.1 2.2 Q-1.35 2.35 -1.65 2.5 L-2.0 2.55 -2.4 2.4 -2.7 2.2 -2.7 2.2 -3.5 2.15 Q-3.8 3.05 -4.5 2.65 L-4.7 2.55"/>
    </path>
  </g>
</svg>
