<?xml version="1.0" encoding="UTF-8" standalone="no"?>
<svg xmlns:xlink="http://www.w3.org/1999/xlink" height="4.4px" width="5.8px" xmlns="http://www.w3.org/2000/svg">
  <g transform="matrix(1.0, 0.0, 0.0, 1.0, -3.55, -0.05)">
    <path d="M5.25 1.7 L5.3 1.95 5.5 2.1 5.95 2.2 6.05 2.35 6.15 2.35 7.4 2.3 8.25 1.85 8.8 1.25 8.9 1.1 9.0 1.0 Q9.2 0.75 9.35 0.55 L9.35 0.45 9.3 0.25 Q9.1 0.15 8.9 0.05 L8.8 0.15 8.2 0.4 Q7.9 0.7 7.6 1.0 L7.5 1.1 7.1 1.3 6.85 1.35 6.85 1.15 6.75 0.95 Q6.55 0.85 6.4 0.8 5.85 0.7 5.3 1.4 L5.25 1.7" fill="#000000" fill-rule="evenodd" stroke="none">
      <animate attributeName="fill" dur="2s" repeatCount="indefinite" values="#000000;#000001"/>
      <animate attributeName="fill-opacity" dur="2s" repeatCount="indefinite" values="1.0;1.0"/>
      <animate attributeName="d" dur="2s" repeatCount="indefinite" values="M5.25 1.7 L5.3 1.95 5.5 2.1 5.95 2.2 6.05 2.35 6.15 2.35 7.4 2.3 8.25 1.85 8.8 1.25 8.9 1.1 9.0 1.0 Q9.2 0.75 9.35 0.55 L9.35 0.45 9.3 0.25 Q9.1 0.15 8.9 0.05 L8.8 0.15 8.2 0.4 Q7.9 0.7 7.6 1.0 L7.5 1.1 7.1 1.3 6.85 1.35 6.85 1.15 6.75 0.95 Q6.55 0.85 6.4 0.8 5.85 0.7 5.3 1.4 L5.25 1.7;M3.55 4.2 L3.75 4.4 4.0 4.45 4.65 4.15 4.75 4.05 4.75 4.05 6.2 4.2 7.55 4.25 8.0 3.45 8.1 3.35 8.15 3.3 Q8.35 2.85 8.15 2.55 L8.05 2.45 7.75 2.3 Q7.45 2.3 7.3 2.55 L7.25 2.7 6.95 3.45 Q6.65 3.15 6.15 3.1 L6.05 3.05 5.6 2.85 5.4 2.7 5.15 2.55 4.95 2.5 Q4.75 2.55 4.5 2.75 3.9 3.25 3.65 3.9 L3.55 4.2"/>
    </path>
    <path d="M5.25 1.7 L5.3 1.4 Q5.85 0.7 6.4 0.8 6.55 0.85 6.75 0.95 L6.85 1.15 6.85 1.35 7.1 1.3 7.5 1.1 7.6 1.0 Q7.9 0.7 8.2 0.4 L8.8 0.15 8.9 0.05 Q9.1 0.15 9.3 0.25 L9.35 0.45 9.35 0.55 Q9.2 0.75 9.0 1.0 L8.9 1.1 8.8 1.25 8.25 1.85 7.4 2.3 6.15 2.35 6.05 2.35 5.95 2.2 5.5 2.1 5.3 1.95 5.25 1.7" fill="none" stroke="#000000" stroke-linecap="round" stroke-linejoin="round" stroke-opacity="0.0" stroke-width="1.0">
      <animate attributeName="stroke" dur="2s" repeatCount="indefinite" values="#000000;#000001"/>
      <animate attributeName="stroke-width" dur="2s" repeatCount="indefinite" values="0.0;0.0"/>
      <animate attributeName="fill-opacity" dur="2s" repeatCount="indefinite" values="0.0;0.0"/>
      <animate attributeName="d" dur="2s" repeatCount="indefinite" values="M5.25 1.7 L5.3 1.4 Q5.85 0.7 6.4 0.8 6.55 0.85 6.75 0.95 L6.85 1.15 6.85 1.35 7.1 1.3 7.5 1.1 7.6 1.0 Q7.9 0.7 8.2 0.4 L8.8 0.15 8.9 0.05 Q9.1 0.15 9.3 0.25 L9.35 0.45 9.35 0.55 Q9.2 0.75 9.0 1.0 L8.9 1.1 8.8 1.25 8.25 1.85 7.4 2.3 6.15 2.35 6.05 2.35 5.95 2.2 5.5 2.1 5.3 1.95 5.25 1.7;M3.55 4.2 L3.65 3.9 Q3.9 3.25 4.5 2.75 4.75 2.55 4.95 2.5 L5.15 2.55 5.4 2.7 5.6 2.85 6.05 3.05 6.15 3.1 Q6.65 3.15 6.95 3.45 L7.25 2.7 7.3 2.55 Q7.45 2.3 7.75 2.3 L8.05 2.45 8.15 2.55 Q8.35 2.85 8.15 3.3 L8.1 3.35 8.0 3.45 7.55 4.25 6.2 4.2 4.75 4.05 4.75 4.05 4.65 4.15 4.0 4.45 3.75 4.4 3.55 4.2"/>
    </path>
  </g>
</svg>
