<?xml version="1.0" encoding="UTF-8" standalone="no"?>
<svg xmlns:xlink="http://www.w3.org/1999/xlink" height="4.4px" width="6.4px" xmlns="http://www.w3.org/2000/svg">
  <g transform="matrix(1.0, 0.0, 0.0, 1.0, -11.3, -1.6)">
    <path d="M15.0 3.05 L15.0 3.05 15.0 3.1 15.05 3.2 15.05 3.3 15.15 3.4 15.6 3.6 15.75 3.6 15.75 3.6 15.95 3.8 Q16.5 3.95 17.05 4.05 L17.5 3.85 17.55 3.8 17.65 3.5 17.7 3.4 17.7 3.3 17.45 2.9 16.8 2.95 16.55 2.8 16.35 2.6 16.4 2.55 16.4 2.2 16.4 2.1 Q16.35 1.6 15.65 1.6 L15.3 1.75 15.3 1.75 15.3 1.75 Q14.2 2.2 15.0 3.05" fill="#000000" fill-rule="evenodd" stroke="none">
      <animate attributeName="fill" dur="2s" repeatCount="indefinite" values="#000000;#000001"/>
      <animate attributeName="fill-opacity" dur="2s" repeatCount="indefinite" values="1.0;1.0"/>
      <animate attributeName="d" dur="2s" repeatCount="indefinite" values="M15.0 3.05 L15.0 3.05 15.0 3.1 15.05 3.2 15.05 3.3 15.15 3.4 15.6 3.6 15.75 3.6 15.75 3.6 15.95 3.8 Q16.5 3.95 17.05 4.05 L17.5 3.85 17.55 3.8 17.65 3.5 17.7 3.4 17.7 3.3 17.45 2.9 16.8 2.95 16.55 2.8 16.35 2.6 16.4 2.55 16.4 2.2 16.4 2.1 Q16.35 1.6 15.65 1.6 L15.3 1.75 15.3 1.75 15.3 1.75 Q14.2 2.2 15.0 3.05;M11.3 4.55 L11.4 4.65 11.4 4.65 11.5 4.75 11.6 4.8 11.7 4.8 12.15 4.75 12.2 4.95 12.2 5.05 12.2 5.2 Q12.65 5.55 13.25 5.55 L13.75 6.0 13.85 6.0 14.25 5.9 14.35 5.9 14.45 5.85 14.7 5.55 14.45 5.2 14.05 4.9 13.85 4.7 13.75 4.7 13.45 4.55 13.45 4.45 Q13.3 4.05 13.2 3.65 L12.65 3.35 12.6 3.4 12.5 3.4 Q11.4 3.65 11.3 4.55"/>
    </path>
    <path d="M15.0 3.05 Q14.2 2.2 15.3 1.75 L15.3 1.75 15.3 1.75 15.65 1.6 Q16.35 1.6 16.4 2.1 L16.4 2.2 16.4 2.55 16.35 2.6 16.55 2.8 16.8 2.95 17.45 2.9 17.7 3.3 17.7 3.4 17.65 3.5 17.55 3.8 17.5 3.85 17.05 4.05 Q16.5 3.95 15.95 3.8 L15.75 3.6 15.75 3.6 15.6 3.6 15.15 3.4 15.05 3.3 15.05 3.2 15.0 3.1 15.0 3.05 15.0 3.05" fill="none" stroke="#000000" stroke-linecap="round" stroke-linejoin="round" stroke-opacity="0.0" stroke-width="1.0">
      <animate attributeName="stroke" dur="2s" repeatCount="indefinite" values="#000000;#000001"/>
      <animate attributeName="stroke-width" dur="2s" repeatCount="indefinite" values="0.0;0.0"/>
      <animate attributeName="fill-opacity" dur="2s" repeatCount="indefinite" values="0.0;0.0"/>
      <animate attributeName="d" dur="2s" repeatCount="indefinite" values="M15.0 3.05 Q14.2 2.2 15.3 1.75 L15.3 1.75 15.3 1.75 15.65 1.6 Q16.35 1.6 16.4 2.1 L16.4 2.2 16.4 2.55 16.35 2.6 16.55 2.8 16.8 2.95 17.45 2.9 17.7 3.3 17.7 3.4 17.65 3.5 17.55 3.8 17.5 3.85 17.05 4.05 Q16.5 3.95 15.95 3.8 L15.75 3.6 15.75 3.6 15.6 3.6 15.15 3.4 15.05 3.3 15.05 3.2 15.0 3.1 15.0 3.05 15.0 3.05;M11.3 4.55 Q11.4 3.65 12.5 3.4 L12.6 3.4 12.65 3.35 13.2 3.65 Q13.3 4.05 13.45 4.45 L13.45 4.55 13.75 4.7 13.85 4.7 14.05 4.9 14.45 5.2 14.7 5.55 14.45 5.85 14.35 5.9 14.25 5.9 13.85 6.0 13.75 6.0 13.25 5.55 Q12.65 5.55 12.2 5.2 L12.2 5.05 12.2 4.95 12.15 4.75 11.7 4.8 11.6 4.8 11.5 4.75 11.4 4.65 11.4 4.65 11.3 4.55"/>
    </path>
  </g>
</svg>
