<?xml version="1.0" encoding="UTF-8" standalone="no"?>
<svg xmlns:xlink="http://www.w3.org/1999/xlink" height="4.7px" width="5.9px" xmlns="http://www.w3.org/2000/svg">
  <g transform="matrix(1.0, 0.0, 0.0, 1.0, -5.3, -4.55)">
    <path d="M7.45 5.95 L7.45 5.95 Q7.9 6.0 8.35 6.05 L8.75 5.7 8.75 5.8 9.0 6.15 9.2 6.3 9.2 6.45 9.2 6.55 9.65 6.8 10.05 6.8 10.95 6.65 11.2 6.3 11.2 6.3 Q10.95 5.6 10.2 5.55 L10.1 5.55 10.05 5.45 Q9.85 5.25 9.7 5.05 L9.7 4.95 9.65 4.8 9.55 4.65 9.25 4.55 Q8.95 4.65 8.7 4.7 L8.7 4.7 Q7.7 5.0 7.45 5.95" fill="#000000" fill-rule="evenodd" stroke="none">
      <animate attributeName="fill" dur="2s" repeatCount="indefinite" values="#000000;#000001"/>
      <animate attributeName="fill-opacity" dur="2s" repeatCount="indefinite" values="1.0;1.0"/>
      <animate attributeName="d" dur="2s" repeatCount="indefinite" values="M7.45 5.95 L7.45 5.95 Q7.9 6.0 8.35 6.05 L8.75 5.7 8.75 5.8 9.0 6.15 9.2 6.3 9.2 6.45 9.2 6.55 9.65 6.8 10.05 6.8 10.95 6.65 11.2 6.3 11.2 6.3 Q10.95 5.6 10.2 5.55 L10.1 5.55 10.05 5.45 Q9.85 5.25 9.7 5.05 L9.7 4.95 9.65 4.8 9.55 4.65 9.25 4.55 Q8.95 4.65 8.7 4.7 L8.7 4.7 Q7.7 5.0 7.45 5.95;M5.3 8.7 L5.4 8.8 Q5.8 9.1 6.25 8.8 L6.8 8.95 6.9 8.95 7.2 8.85 7.4 9.05 7.6 9.15 7.7 9.15 8.35 9.25 8.75 9.1 9.35 8.55 9.45 8.25 9.3 8.1 Q8.7 8.15 8.1 8.15 L8.1 8.15 8.1 8.15 Q7.95 7.65 7.55 7.65 L7.45 7.65 7.1 7.75 7.1 7.65 7.05 7.35 Q6.95 7.15 6.65 7.1 L6.65 7.15 Q5.5 7.6 5.3 8.7"/>
    </path>
    <path d="M7.45 5.95 Q7.7 5.0 8.7 4.7 L8.7 4.7 Q8.95 4.65 9.25 4.55 L9.55 4.65 9.65 4.8 9.7 4.95 9.7 5.05 Q9.85 5.25 10.05 5.45 L10.1 5.55 10.2 5.55 Q10.95 5.6 11.2 6.3 L11.2 6.3 10.95 6.65 10.05 6.8 9.65 6.8 9.2 6.55 9.2 6.45 9.2 6.3 9.0 6.15 8.75 5.8 8.75 5.7 8.35 6.05 Q7.9 6.0 7.45 5.95 L7.45 5.95" fill="none" stroke="#000000" stroke-linecap="round" stroke-linejoin="round" stroke-opacity="0.0" stroke-width="1.0">
      <animate attributeName="stroke" dur="2s" repeatCount="indefinite" values="#000000;#000001"/>
      <animate attributeName="stroke-width" dur="2s" repeatCount="indefinite" values="0.0;0.0"/>
      <animate attributeName="fill-opacity" dur="2s" repeatCount="indefinite" values="0.0;0.0"/>
      <animate attributeName="d" dur="2s" repeatCount="indefinite" values="M7.45 5.95 Q7.7 5.0 8.7 4.7 L8.7 4.7 Q8.95 4.65 9.25 4.55 L9.55 4.65 9.65 4.8 9.7 4.95 9.7 5.05 Q9.85 5.25 10.05 5.45 L10.1 5.55 10.2 5.55 Q10.95 5.6 11.2 6.3 L11.2 6.3 10.95 6.65 10.05 6.8 9.65 6.8 9.2 6.55 9.2 6.45 9.2 6.3 9.0 6.15 8.75 5.8 8.75 5.7 8.35 6.05 Q7.9 6.0 7.45 5.95 L7.45 5.95;M5.3 8.7 Q5.5 7.6 6.65 7.15 L6.65 7.1 Q6.95 7.15 7.05 7.35 L7.1 7.65 7.1 7.75 7.45 7.65 7.55 7.65 Q7.95 7.65 8.1 8.15 L8.1 8.15 8.1 8.15 Q8.7 8.15 9.3 8.1 L9.45 8.25 9.35 8.55 8.75 9.1 8.35 9.25 7.7 9.15 7.6 9.15 7.4 9.05 7.2 8.85 6.9 8.95 6.8 8.95 6.25 8.8 Q5.8 9.1 5.4 8.8 L5.3 8.7"/>
    </path>
  </g>
</svg>
