<?xml version="1.0" encoding="UTF-8" standalone="no"?>
<svg xmlns:xlink="http://www.w3.org/1999/xlink" height="3.15px" width="5.15px" xmlns="http://www.w3.org/2000/svg">
  <g transform="matrix(1.0, 0.0, 0.0, 1.0, 12.45, 1.95)">
    <path d="M-12.2 -0.2 L-12.0 -0.1 Q-11.7 -0.05 -11.4 0.0 L-11.1 -0.2 -10.6 0.0 -10.3 0.05 -10.1 0.05 -9.8 0.0 -9.15 -0.2 Q-8.7 -0.2 -8.35 -0.45 L-7.4 -1.25 -7.3 -1.45 -7.3 -1.55 -7.3 -1.65 -7.4 -1.8 -7.75 -1.95 Q-8.35 -1.9 -8.65 -1.4 L-8.65 -1.3 -8.65 -1.3 -8.65 -1.25 -8.75 -1.25 Q-9.05 -1.3 -9.35 -1.35 L-9.8 -1.1 -10.3 -1.15 -10.35 -1.3 -10.35 -1.4 Q-10.45 -1.7 -10.8 -1.65 L-11.05 -1.6 -11.25 -1.45 -11.85 -1.0 -12.2 -0.2" fill="#000000" fill-rule="evenodd" stroke="none">
      <animate attributeName="fill" dur="2s" repeatCount="indefinite" values="#000000;#000001"/>
      <animate attributeName="fill-opacity" dur="2s" repeatCount="indefinite" values="1.0;1.0"/>
      <animate attributeName="d" dur="2s" repeatCount="indefinite" values="M-12.2 -0.2 L-12.0 -0.1 Q-11.7 -0.05 -11.4 0.0 L-11.1 -0.2 -10.6 0.0 -10.3 0.05 -10.1 0.05 -9.8 0.0 -9.15 -0.2 Q-8.7 -0.2 -8.35 -0.45 L-7.4 -1.25 -7.3 -1.45 -7.3 -1.55 -7.3 -1.65 -7.4 -1.8 -7.75 -1.95 Q-8.35 -1.9 -8.65 -1.4 L-8.65 -1.3 -8.65 -1.3 -8.65 -1.25 -8.75 -1.25 Q-9.05 -1.3 -9.35 -1.35 L-9.8 -1.1 -10.3 -1.15 -10.35 -1.3 -10.35 -1.4 Q-10.45 -1.7 -10.8 -1.65 L-11.05 -1.6 -11.25 -1.45 -11.85 -1.0 -12.2 -0.2;M-12.45 0.95 L-12.35 1.05 Q-12.0 1.35 -11.65 1.05 L-11.55 0.75 -11.55 0.35 -11.15 0.35 -11.05 0.55 -10.75 0.8 -10.05 0.9 Q-9.65 0.75 -9.3 0.65 L-8.8 -0.05 -8.65 -0.15 -8.65 -0.25 -8.55 -0.45 -8.6 -0.6 -8.9 -0.9 Q-9.3 -1.15 -9.75 -0.55 L-9.75 -0.45 -9.75 -0.35 -9.75 -0.35 -9.75 -0.35 Q-10.05 -0.05 -10.4 -0.2 L-10.7 -0.45 -11.2 -0.65 -11.3 -0.65 -11.35 -0.7 Q-11.5 -0.95 -11.75 -0.95 L-12.05 -0.85 -12.2 -0.7 -12.35 -0.05 -12.45 0.95"/>
    </path>
    <path d="M-12.2 -0.2 L-11.85 -1.0 -11.25 -1.45 -11.05 -1.6 -10.8 -1.65 Q-10.45 -1.7 -10.35 -1.4 L-10.35 -1.3 -10.3 -1.15 -9.8 -1.1 -9.35 -1.35 Q-9.05 -1.3 -8.75 -1.25 L-8.65 -1.25 -8.65 -1.3 -8.65 -1.3 -8.65 -1.4 Q-8.35 -1.9 -7.75 -1.95 L-7.4 -1.8 -7.3 -1.65 -7.3 -1.55 -7.3 -1.45 -7.4 -1.25 -8.35 -0.45 Q-8.7 -0.2 -9.15 -0.2 L-9.8 0.0 -10.1 0.05 -10.3 0.05 -10.6 0.0 -11.1 -0.2 -11.4 0.0 Q-11.7 -0.05 -12.0 -0.1 L-12.2 -0.2" fill="none" stroke="#000000" stroke-linecap="round" stroke-linejoin="round" stroke-opacity="0.0" stroke-width="1.0">
      <animate attributeName="stroke" dur="2s" repeatCount="indefinite" values="#000000;#000001"/>
      <animate attributeName="stroke-width" dur="2s" repeatCount="indefinite" values="0.0;0.0"/>
      <animate attributeName="fill-opacity" dur="2s" repeatCount="indefinite" values="0.0;0.0"/>
      <animate attributeName="d" dur="2s" repeatCount="indefinite" values="M-12.2 -0.2 L-11.85 -1.0 -11.25 -1.45 -11.05 -1.6 -10.8 -1.65 Q-10.45 -1.7 -10.35 -1.4 L-10.35 -1.3 -10.3 -1.15 -9.8 -1.1 -9.35 -1.35 Q-9.05 -1.3 -8.75 -1.25 L-8.65 -1.25 -8.65 -1.3 -8.65 -1.3 -8.65 -1.4 Q-8.35 -1.9 -7.75 -1.95 L-7.4 -1.8 -7.3 -1.65 -7.3 -1.55 -7.3 -1.45 -7.4 -1.25 -8.35 -0.45 Q-8.7 -0.2 -9.15 -0.2 L-9.8 0.0 -10.1 0.05 -10.3 0.05 -10.6 0.0 -11.1 -0.2 -11.4 0.0 Q-11.7 -0.05 -12.0 -0.1 L-12.2 -0.2;M-12.45 0.95 L-12.35 -0.05 -12.2 -0.7 -12.05 -0.85 -11.75 -0.95 Q-11.5 -0.95 -11.35 -0.7 L-11.3 -0.65 -11.2 -0.65 -10.7 -0.45 -10.4 -0.2 Q-10.05 -0.05 -9.75 -0.35 L-9.75 -0.35 -9.75 -0.35 -9.75 -0.45 -9.75 -0.55 Q-9.3 -1.15 -8.9 -0.9 L-8.6 -0.6 -8.55 -0.45 -8.65 -0.25 -8.65 -0.15 -8.8 -0.05 -9.3 0.65 Q-9.65 0.75 -10.05 0.9 L-10.75 0.8 -11.05 0.55 -11.15 0.35 -11.55 0.35 -11.55 0.75 -11.65 1.05 Q-12.0 1.35 -12.35 1.05 L-12.45 0.95"/>
    </path>
  </g>
</svg>
