<?xml version="1.0" encoding="UTF-8" standalone="no"?>
<svg xmlns:xlink="http://www.w3.org/1999/xlink" height="5.45px" width="4.15px" xmlns="http://www.w3.org/2000/svg">
  <g transform="matrix(1.0, 0.0, 0.0, 1.0, -5.4, 5.2)">
    <path d="M5.45 -4.0 L5.45 -4.0 5.45 -3.85 5.45 -3.75 5.45 -3.45 5.55 -3.35 6.05 -3.2 6.25 -3.4 6.3 -3.45 6.35 -3.65 6.35 -3.75 6.5 -3.75 6.5 -3.75 Q6.8 -3.7 7.1 -3.65 7.25 -3.45 7.5 -3.45 L7.65 -3.45 7.95 -3.6 Q8.05 -3.9 8.15 -4.2 L8.35 -4.4 8.45 -4.6 8.45 -4.65 8.4 -4.75 8.15 -4.9 7.85 -5.05 7.75 -5.05 7.65 -5.05 7.55 -5.05 6.8 -4.9 6.75 -4.95 6.7 -4.95 6.6 -5.05 Q6.45 -5.15 6.25 -5.2 L6.1 -5.2 6.0 -5.1 5.8 -4.95 5.8 -4.85 5.75 -4.75 5.75 -4.65 5.65 -4.55 5.55 -4.45 5.55 -4.25 5.45 -4.0" fill="#000000" fill-rule="evenodd" stroke="none">
      <animate attributeName="fill" dur="2s" repeatCount="indefinite" values="#000000;#000001"/>
      <animate attributeName="fill-opacity" dur="2s" repeatCount="indefinite" values="1.0;1.0"/>
      <animate attributeName="d" dur="2s" repeatCount="indefinite" values="M5.45 -4.0 L5.45 -4.0 5.45 -3.85 5.45 -3.75 5.45 -3.45 5.55 -3.35 6.05 -3.2 6.25 -3.4 6.3 -3.45 6.35 -3.65 6.35 -3.75 6.5 -3.75 6.5 -3.75 Q6.8 -3.7 7.1 -3.65 7.25 -3.45 7.5 -3.45 L7.65 -3.45 7.95 -3.6 Q8.05 -3.9 8.15 -4.2 L8.35 -4.4 8.45 -4.6 8.45 -4.65 8.4 -4.75 8.15 -4.9 7.85 -5.05 7.75 -5.05 7.65 -5.05 7.55 -5.05 6.8 -4.9 6.75 -4.95 6.7 -4.95 6.6 -5.05 Q6.45 -5.15 6.25 -5.2 L6.1 -5.2 6.0 -5.1 5.8 -4.95 5.8 -4.85 5.75 -4.75 5.75 -4.65 5.65 -4.55 5.55 -4.45 5.55 -4.25 5.45 -4.0;M6.05 -0.9 L6.05 -0.65 6.05 -0.55 6.15 -0.45 6.5 -0.3 6.5 -0.3 7.0 -0.5 7.3 -0.45 7.4 -0.45 7.65 -0.45 7.75 -0.45 7.75 -0.45 7.8 -0.4 Q8.05 0.1 8.4 0.2 8.7 0.15 9.0 0.1 L9.1 0.0 9.2 -0.2 Q9.55 -0.6 9.55 -0.95 L9.4 -1.4 9.1 -1.7 9.0 -1.7 9.0 -1.7 8.8 -1.65 8.55 -1.45 8.55 -1.35 8.5 -1.3 8.45 -1.3 7.9 -1.7 7.8 -1.7 7.6 -1.7 7.6 -1.8 Q7.45 -2.0 7.3 -2.2 L7.2 -2.2 7.0 -2.2 6.8 -2.1 6.65 -2.0 6.65 -1.9 6.55 -1.9 6.45 -1.7 6.35 -1.5 6.25 -1.2 6.05 -0.9"/>
    </path>
    <path d="M5.45 -4.0 L5.55 -4.25 5.55 -4.45 5.65 -4.55 5.75 -4.65 5.75 -4.75 5.8 -4.85 5.8 -4.95 6.0 -5.1 6.1 -5.2 6.25 -5.2 Q6.45 -5.15 6.6 -5.05 L6.7 -4.95 6.75 -4.95 6.8 -4.9 7.55 -5.05 7.65 -5.05 7.75 -5.05 7.85 -5.05 8.15 -4.9 8.4 -4.75 8.45 -4.65 8.45 -4.6 8.35 -4.4 8.15 -4.2 Q8.05 -3.9 7.95 -3.6 L7.65 -3.45 7.5 -3.45 Q7.25 -3.45 7.1 -3.65 6.8 -3.7 6.5 -3.75 L6.5 -3.75 6.35 -3.75 6.35 -3.65 6.3 -3.45 6.25 -3.4 6.05 -3.2 5.55 -3.35 5.45 -3.45 5.45 -3.75 5.45 -3.85 5.45 -4.0 5.45 -4.0" fill="none" stroke="#000000" stroke-linecap="round" stroke-linejoin="round" stroke-opacity="0.0" stroke-width="1.0">
      <animate attributeName="stroke" dur="2s" repeatCount="indefinite" values="#000000;#000001"/>
      <animate attributeName="stroke-width" dur="2s" repeatCount="indefinite" values="0.0;0.0"/>
      <animate attributeName="fill-opacity" dur="2s" repeatCount="indefinite" values="0.0;0.0"/>
      <animate attributeName="d" dur="2s" repeatCount="indefinite" values="M5.45 -4.0 L5.55 -4.25 5.55 -4.45 5.65 -4.55 5.75 -4.65 5.75 -4.75 5.8 -4.85 5.8 -4.95 6.0 -5.1 6.1 -5.2 6.25 -5.2 Q6.45 -5.15 6.6 -5.05 L6.7 -4.95 6.75 -4.95 6.8 -4.9 7.55 -5.05 7.65 -5.05 7.75 -5.05 7.85 -5.05 8.15 -4.9 8.4 -4.75 8.45 -4.65 8.45 -4.6 8.35 -4.4 8.15 -4.2 Q8.05 -3.9 7.95 -3.6 L7.65 -3.45 7.5 -3.45 Q7.25 -3.45 7.1 -3.65 6.8 -3.7 6.5 -3.75 L6.5 -3.75 6.35 -3.75 6.35 -3.65 6.3 -3.45 6.25 -3.4 6.05 -3.2 5.55 -3.35 5.45 -3.45 5.45 -3.75 5.45 -3.85 5.45 -4.0 5.45 -4.0;M6.05 -0.9 L6.25 -1.2 6.35 -1.5 6.45 -1.7 6.55 -1.9 6.65 -1.9 6.65 -2.0 6.8 -2.1 7.0 -2.2 7.2 -2.2 7.3 -2.2 Q7.45 -2.0 7.6 -1.8 L7.6 -1.7 7.8 -1.7 7.9 -1.7 8.45 -1.3 8.5 -1.3 8.55 -1.35 8.55 -1.45 8.8 -1.65 9.0 -1.7 9.0 -1.7 9.1 -1.7 9.4 -1.4 9.55 -0.95 Q9.55 -0.6 9.2 -0.2 L9.1 0.0 9.0 0.1 Q8.7 0.15 8.4 0.2 8.05 0.1 7.8 -0.4 L7.75 -0.45 7.75 -0.45 7.65 -0.45 7.4 -0.45 7.3 -0.45 7.0 -0.5 6.5 -0.3 6.5 -0.3 6.15 -0.45 6.05 -0.55 6.05 -0.65 6.05 -0.9"/>
    </path>
  </g>
</svg>
