<?xml version="1.0" encoding="UTF-8" standalone="no"?>
<svg xmlns:xlink="http://www.w3.org/1999/xlink" height="35.8px" width="39.8px" xmlns="http://www.w3.org/2000/svg">
  <g transform="matrix(1.0, 0.0, 0.0, 1.0, 19.5, 8.75)">
    <path d="M-19.5 0.0 Q-19.45 3.6 -13.7 6.15 L-12.25 6.75 -11.55 7.0 -10.15 7.2 Q-9.3 7.45 -8.5 8.0 -6.65 8.3 -6.15 9.8 L-6.05 10.0 -5.95 10.3 Q-5.45 12.25 -6.75 13.45 L-7.3 13.85 -7.3 13.85 -7.3 14.5 -7.3 15.0 -7.3 15.45 -7.25 15.55 -7.15 15.7 -7.15 15.7 -7.05 15.85 Q-6.8 14.95 -6.05 14.85 -5.8 14.8 -5.6 14.8 L-4.95 14.9 Q-4.55 15.05 -4.5 15.45 -4.45 15.85 -4.7 16.1 L-4.5 16.5 Q-4.4 16.85 -4.3 17.15 -4.05 18.3 -4.5 19.55 L-4.75 20.65 -4.75 20.9 -4.45 20.85 Q-3.45 20.5 -3.3 19.2 L-3.25 18.8 Q-3.05 18.0 -2.4 17.85 L-1.6 17.85 Q-1.15 17.95 -0.95 18.4 -0.65 19.2 -0.7 20.05 L-0.75 20.5 -0.9 21.1 Q-1.1 21.9 -1.6 22.5 L-1.8 22.7 -2.75 23.45 -3.1 23.9 -3.25 24.6 -3.25 25.3 Q-3.15 26.25 -2.4 26.95 L-2.05 27.05 -2.35 26.45 Q-2.55 25.8 -2.2 25.15 L-1.85 24.65 -1.15 24.2 -0.4 24.35 Q0.45 24.7 0.45 25.5 L0.45 25.6 1.0 26.15 2.3 26.9 2.4 26.95 2.5 26.55 2.45 26.1 2.45 25.7 Q2.05 25.35 1.65 25.0 L1.65 24.95 1.4 24.0 1.5 23.4 1.65 22.95 2.0 22.45 Q2.15 22.2 2.5 22.2 L3.0 22.2 3.9 22.5 Q4.55 22.9 4.7 23.9 L4.75 24.55 4.9 24.75 5.4 25.15 5.5 24.95 5.5 24.65 5.45 23.45 Q5.3 22.3 4.8 21.3 L4.35 20.85 4.25 20.75 3.8 20.1 3.8 20.0 Q3.75 19.25 4.25 18.65 4.45 18.35 4.8 18.2 L5.2 18.05 5.4 18.05 6.05 18.0 6.65 18.1 6.75 18.1 7.05 18.2 7.3 18.3 7.4 17.9 Q7.45 16.7 6.25 16.05 L6.0 15.85 5.6 15.35 5.55 14.7 5.8 13.7 6.3 13.25 6.5 13.2 Q7.25 13.3 7.95 13.35 L8.35 13.7 8.45 13.8 8.5 13.8 8.5 13.7 8.6 13.4 8.75 11.7 Q9.05 10.05 9.9 8.55 11.25 6.3 14.0 6.3 L14.15 6.3 14.45 6.15 15.7 5.55 Q20.3 3.2 20.3 0.0 20.3 -1.55 19.2 -2.9 17.75 -4.7 14.45 -6.2 9.95 -8.15 4.05 -8.6 L0.4 -8.75 Q-6.95 -8.75 -12.4 -6.75 L-13.7 -6.2 Q-19.5 -3.6 -19.5 0.0" fill="url(#gradient0)" fill-rule="evenodd" stroke="none">
      <animate attributeName="d" dur="2s" repeatCount="indefinite" values="M-19.5 0.0 Q-19.45 3.6 -13.7 6.15 L-12.25 6.75 -11.55 7.0 -10.15 7.2 Q-9.3 7.45 -8.5 8.0 -6.65 8.3 -6.15 9.8 L-6.05 10.0 -5.95 10.3 Q-5.45 12.25 -6.75 13.45 L-7.3 13.85 -7.3 13.85 -7.3 14.5 -7.3 15.0 -7.3 15.45 -7.25 15.55 -7.15 15.7 -7.15 15.7 -7.05 15.85 Q-6.8 14.95 -6.05 14.85 -5.8 14.8 -5.6 14.8 L-4.95 14.9 Q-4.55 15.05 -4.5 15.45 -4.45 15.85 -4.7 16.1 L-4.5 16.5 Q-4.4 16.85 -4.3 17.15 -4.05 18.3 -4.5 19.55 L-4.75 20.65 -4.75 20.9 -4.45 20.85 Q-3.45 20.5 -3.3 19.2 L-3.25 18.8 Q-3.05 18.0 -2.4 17.85 L-1.6 17.85 Q-1.15 17.95 -0.95 18.4 -0.65 19.2 -0.7 20.05 L-0.75 20.5 -0.9 21.1 Q-1.1 21.9 -1.6 22.5 L-1.8 22.7 -2.75 23.45 -3.1 23.9 -3.25 24.6 -3.25 25.3 Q-3.15 26.25 -2.4 26.95 L-2.05 27.05 -2.35 26.45 Q-2.55 25.8 -2.2 25.15 L-1.85 24.65 -1.15 24.2 -0.4 24.35 Q0.45 24.7 0.45 25.5 L0.45 25.6 1.0 26.15 2.3 26.9 2.4 26.95 2.5 26.55 2.45 26.1 2.45 25.7 Q2.05 25.35 1.65 25.0 L1.65 24.95 1.4 24.0 1.5 23.4 1.65 22.95 2.0 22.45 Q2.15 22.2 2.5 22.2 L3.0 22.2 3.9 22.5 Q4.55 22.9 4.7 23.9 L4.75 24.55 4.9 24.75 5.4 25.15 5.5 24.95 5.5 24.65 5.45 23.45 Q5.3 22.3 4.8 21.3 L4.35 20.85 4.25 20.75 3.8 20.1 3.8 20.0 Q3.75 19.25 4.25 18.65 4.45 18.35 4.8 18.2 L5.2 18.05 5.4 18.05 6.05 18.0 6.65 18.1 6.75 18.1 7.05 18.2 7.3 18.3 7.4 17.9 Q7.45 16.7 6.25 16.05 L6.0 15.85 5.6 15.35 5.55 14.7 5.8 13.7 6.3 13.25 6.5 13.2 Q7.25 13.3 7.95 13.35 L8.35 13.7 8.45 13.8 8.5 13.8 8.5 13.7 8.6 13.4 8.75 11.7 Q9.05 10.05 9.9 8.55 11.25 6.3 14.0 6.3 L14.15 6.3 14.45 6.15 15.7 5.55 Q20.3 3.2 20.3 0.0 20.3 -1.55 19.2 -2.9 17.75 -4.7 14.45 -6.2 9.95 -8.15 4.05 -8.6 L0.4 -8.75 Q-6.95 -8.75 -12.4 -6.75 L-13.7 -6.2 Q-19.5 -3.6 -19.5 0.0;M-19.5 0.0 Q-19.5 3.25 -14.8 5.65 L-13.7 6.15 -13.1 6.45 -11.8 6.95 Q-11.0 7.0 -10.25 7.05 -9.0 7.3 -7.9 8.0 L-7.7 8.1 -7.4 8.2 Q-5.95 9.0 -5.55 10.45 L-5.5 11.05 -5.5 11.2 -5.5 11.8 -5.5 12.2 -5.1 12.0 -5.05 12.0 -4.95 11.9 -4.85 11.9 -4.85 11.8 Q-4.25 11.7 -3.7 11.65 -3.35 11.7 -3.2 12.0 L-2.9 12.5 Q-2.7 12.85 -2.55 13.15 -2.45 13.35 -2.35 13.55 L-2.2 13.8 Q-2.05 14.0 -2.05 14.3 -2.15 15.45 -2.25 16.6 L-2.45 17.5 -2.45 17.75 -2.45 17.95 Q-1.2 17.45 -0.95 18.5 L-0.9 18.95 Q-0.85 19.45 -0.8 19.9 L-0.75 20.8 Q-0.8 21.2 -0.8 21.6 -0.9 22.3 -1.15 23.0 L-1.25 23.1 -1.3 23.55 Q-1.3 24.25 -1.3 24.95 L-1.05 25.3 -0.45 26.15 -0.05 26.6 0.25 27.0 0.8 27.0 Q0.4 26.3 0.3 25.5 L0.25 25.1 0.25 24.35 Q0.4 23.75 0.55 23.2 L0.8 22.7 1.15 22.0 1.4 21.4 Q1.5 20.8 1.55 20.25 L1.55 20.1 1.95 19.7 3.25 19.9 3.35 19.9 3.55 20.1 3.85 20.4 4.05 20.7 Q4.3 21.1 4.2 21.6 L4.2 21.65 4.7 21.45 4.95 21.15 5.05 20.85 5.2 20.4 Q5.25 20.1 5.25 19.85 L5.25 19.45 5.2 18.7 Q4.75 18.0 4.7 17.3 L4.7 16.8 4.7 16.6 4.85 16.1 5.0 15.8 5.1 15.5 5.8 14.45 Q6.35 13.8 6.5 13.05 L6.55 12.55 6.55 12.45 6.8 12.15 7.1 12.1 Q7.65 12.05 8.0 12.55 8.1 12.75 8.2 12.9 L8.4 13.25 8.45 13.2 8.6 12.95 8.85 12.7 8.85 12.6 8.85 12.5 8.85 12.3 8.8 11.8 Q8.85 10.75 9.15 9.8 L9.2 9.6 9.35 9.25 9.65 8.85 10.3 8.15 10.85 7.8 10.85 7.8 Q11.35 7.45 12.0 7.35 L12.25 7.05 12.45 6.95 12.45 6.95 12.55 6.95 12.95 6.75 14.45 6.15 Q15.8 5.45 17.1 4.75 19.3 3.3 19.95 1.6 L20.05 1.5 20.15 1.2 20.3 0.0 Q20.3 -2.75 16.9 -4.9 15.65 -5.55 14.45 -6.2 12.2 -7.2 9.6 -7.8 5.45 -8.75 0.4 -8.75 L-2.8 -8.65 Q-9.0 -8.25 -13.7 -6.2 L-14.8 -5.7 Q-19.5 -3.25 -19.5 0.0"/>
    </path>
    <path d="M-19.5 0.0 Q-19.5 -3.6 -13.7 -6.2 L-12.4 -6.75 Q-6.95 -8.75 0.4 -8.75 L4.05 -8.6 Q9.95 -8.15 14.45 -6.2 17.75 -4.7 19.2 -2.9 20.3 -1.55 20.3 0.0 20.3 3.2 15.7 5.55 L14.45 6.15 14.15 6.3 14.0 6.3 Q11.25 6.3 9.9 8.55 9.05 10.05 8.75 11.7 L8.6 13.4 8.5 13.7 8.5 13.8 8.45 13.8 8.35 13.7 7.95 13.35 Q7.25 13.3 6.5 13.2 L6.3 13.25 5.8 13.7 5.55 14.7 5.6 15.35 6.0 15.85 6.25 16.05 Q7.45 16.7 7.4 17.9 L7.3 18.3 7.05 18.2 6.75 18.1 6.65 18.1 6.05 18.0 5.4 18.05 5.2 18.05 4.8 18.2 Q4.45 18.35 4.25 18.65 3.75 19.25 3.8 20.0 L3.8 20.1 4.25 20.75 4.35 20.85 4.8 21.3 Q5.3 22.3 5.45 23.45 L5.5 24.65 5.5 24.95 5.4 25.15 4.9 24.75 4.75 24.55 4.7 23.9 Q4.55 22.9 3.9 22.5 L3.0 22.2 2.5 22.2 Q2.15 22.2 2.0 22.45 L1.65 22.95 1.5 23.4 1.4 24.0 1.65 24.95 1.65 25.0 Q2.05 25.35 2.45 25.7 L2.45 26.1 2.5 26.55 2.4 26.95 2.3 26.9 1.0 26.15 0.45 25.6 0.45 25.5 Q0.45 24.7 -0.4 24.35 L-1.15 24.2 -1.85 24.65 -2.2 25.15 Q-2.55 25.8 -2.35 26.45 L-2.05 27.05 -2.4 26.95 Q-3.15 26.25 -3.25 25.3 L-3.25 24.6 -3.1 23.9 -2.75 23.45 -1.8 22.7 -1.6 22.5 Q-1.1 21.9 -0.9 21.1 L-0.75 20.5 -0.7 20.05 Q-0.65 19.2 -0.95 18.4 -1.15 17.95 -1.6 17.85 L-2.4 17.85 Q-3.05 18.0 -3.25 18.8 L-3.3 19.2 Q-3.45 20.5 -4.45 20.85 L-4.75 20.9 -4.75 20.65 -4.5 19.55 Q-4.05 18.3 -4.3 17.15 -4.4 16.85 -4.5 16.5 L-4.7 16.1 Q-4.45 15.85 -4.5 15.45 -4.55 15.05 -4.95 14.9 L-5.6 14.8 Q-5.8 14.8 -6.05 14.85 -6.8 14.95 -7.05 15.85 L-7.15 15.7 -7.15 15.7 -7.25 15.55 -7.3 15.45 -7.3 15.0 -7.3 14.5 -7.3 13.85 -7.3 13.85 -6.75 13.45 Q-5.45 12.25 -5.95 10.3 L-6.05 10.0 -6.15 9.8 Q-6.65 8.3 -8.5 8.0 -9.3 7.45 -10.15 7.2 L-11.55 7.0 -12.25 6.75 -13.7 6.15 Q-19.45 3.6 -19.5 0.0" fill="none" stroke="#000000" stroke-linecap="round" stroke-linejoin="round" stroke-opacity="0.0" stroke-width="1.0">
      <animate attributeName="stroke" dur="2s" repeatCount="indefinite" values="#000000;#000001"/>
      <animate attributeName="stroke-width" dur="2s" repeatCount="indefinite" values="0.0;0.0"/>
      <animate attributeName="fill-opacity" dur="2s" repeatCount="indefinite" values="0.0;0.0"/>
      <animate attributeName="d" dur="2s" repeatCount="indefinite" values="M-19.5 0.0 Q-19.5 -3.6 -13.7 -6.2 L-12.4 -6.75 Q-6.95 -8.75 0.4 -8.75 L4.05 -8.6 Q9.95 -8.15 14.45 -6.2 17.75 -4.7 19.2 -2.9 20.3 -1.55 20.3 0.0 20.3 3.2 15.7 5.55 L14.45 6.15 14.15 6.3 14.0 6.3 Q11.25 6.3 9.9 8.55 9.05 10.05 8.75 11.7 L8.6 13.4 8.5 13.7 8.5 13.8 8.45 13.8 8.35 13.7 7.95 13.35 Q7.25 13.3 6.5 13.2 L6.3 13.25 5.8 13.7 5.55 14.7 5.6 15.35 6.0 15.85 6.25 16.05 Q7.45 16.7 7.4 17.9 L7.3 18.3 7.05 18.2 6.75 18.1 6.65 18.1 6.05 18.0 5.4 18.05 5.2 18.05 4.8 18.2 Q4.45 18.35 4.25 18.65 3.75 19.25 3.8 20.0 L3.8 20.1 4.25 20.75 4.35 20.85 4.8 21.3 Q5.3 22.3 5.45 23.45 L5.5 24.65 5.5 24.95 5.4 25.15 4.9 24.75 4.75 24.55 4.7 23.9 Q4.55 22.9 3.9 22.5 L3.0 22.2 2.5 22.2 Q2.15 22.2 2.0 22.45 L1.65 22.95 1.5 23.4 1.4 24.0 1.65 24.95 1.65 25.0 Q2.05 25.35 2.45 25.7 L2.45 26.1 2.5 26.55 2.4 26.95 2.3 26.9 1.0 26.15 0.45 25.6 0.45 25.5 Q0.45 24.7 -0.4 24.35 L-1.15 24.2 -1.85 24.65 -2.2 25.15 Q-2.55 25.8 -2.35 26.45 L-2.05 27.05 -2.4 26.95 Q-3.15 26.25 -3.25 25.3 L-3.25 24.6 -3.1 23.9 -2.75 23.45 -1.8 22.7 -1.6 22.5 Q-1.1 21.9 -0.9 21.1 L-0.75 20.5 -0.7 20.05 Q-0.65 19.2 -0.95 18.4 -1.15 17.95 -1.6 17.85 L-2.4 17.85 Q-3.05 18.0 -3.25 18.8 L-3.3 19.2 Q-3.45 20.5 -4.45 20.85 L-4.75 20.9 -4.75 20.65 -4.5 19.55 Q-4.05 18.3 -4.3 17.15 -4.4 16.85 -4.5 16.5 L-4.7 16.1 Q-4.45 15.85 -4.5 15.45 -4.55 15.05 -4.95 14.9 L-5.6 14.8 Q-5.8 14.8 -6.05 14.85 -6.8 14.95 -7.05 15.85 L-7.15 15.7 -7.15 15.7 -7.25 15.55 -7.3 15.45 -7.3 15.0 -7.3 14.5 -7.3 13.85 -7.3 13.85 -6.75 13.45 Q-5.45 12.25 -5.95 10.3 L-6.05 10.0 -6.15 9.8 Q-6.65 8.3 -8.5 8.0 -9.3 7.45 -10.15 7.2 L-11.55 7.0 -12.25 6.75 -13.7 6.15 Q-19.45 3.6 -19.5 0.0;M-19.5 0.0 Q-19.5 -3.25 -14.8 -5.7 L-13.7 -6.2 Q-9.0 -8.25 -2.8 -8.65 L0.4 -8.75 Q5.45 -8.75 9.6 -7.8 12.2 -7.2 14.45 -6.2 15.65 -5.55 16.9 -4.9 20.3 -2.75 20.3 0.0 L20.15 1.2 20.05 1.5 19.95 1.6 Q19.3 3.3 17.1 4.75 15.8 5.45 14.45 6.15 L12.95 6.75 12.55 6.95 12.45 6.95 12.45 6.95 12.25 7.05 12.0 7.35 Q11.35 7.45 10.85 7.8 L10.85 7.8 10.3 8.15 9.65 8.85 9.35 9.25 9.2 9.6 9.15 9.8 Q8.85 10.75 8.8 11.8 L8.85 12.3 8.85 12.5 8.85 12.6 8.85 12.7 8.6 12.95 8.45 13.2 8.4 13.25 8.2 12.9 Q8.1 12.75 8.0 12.55 7.65 12.05 7.1 12.1 L6.8 12.15 6.55 12.45 6.55 12.55 6.5 13.05 Q6.35 13.8 5.8 14.45 L5.1 15.5 5.0 15.8 4.85 16.1 4.7 16.6 4.7 16.8 4.7 17.3 Q4.75 18.0 5.2 18.7 L5.25 19.45 5.25 19.85 Q5.25 20.1 5.2 20.4 L5.05 20.85 4.95 21.15 4.7 21.45 4.2 21.65 4.2 21.6 Q4.3 21.1 4.05 20.7 L3.85 20.4 3.55 20.1 3.35 19.9 3.25 19.9 1.95 19.7 1.55 20.1 1.55 20.25 Q1.5 20.8 1.4 21.4 L1.15 22.0 0.8 22.7 0.55 23.2 Q0.4 23.75 0.25 24.35 L0.25 25.1 0.3 25.5 Q0.4 26.3 0.8 27.0 L0.25 27.0 -0.05 26.6 -0.45 26.15 -1.05 25.3 -1.3 24.95 Q-1.3 24.25 -1.3 23.55 L-1.25 23.1 -1.15 23.0 Q-0.9 22.3 -0.8 21.6 -0.8 21.2 -0.75 20.8 L-0.8 19.9 Q-0.85 19.45 -0.9 18.95 L-0.95 18.5 Q-1.2 17.45 -2.45 17.95 L-2.45 17.75 -2.45 17.5 -2.25 16.6 Q-2.15 15.45 -2.05 14.3 -2.05 14.0 -2.2 13.8 L-2.35 13.55 Q-2.45 13.35 -2.55 13.15 -2.7 12.85 -2.9 12.5 L-3.2 12.0 Q-3.35 11.7 -3.7 11.65 -4.25 11.7 -4.85 11.8 L-4.85 11.9 -4.95 11.9 -5.05 12.0 -5.1 12.0 -5.5 12.2 -5.5 11.8 -5.5 11.2 -5.5 11.05 -5.55 10.45 Q-5.95 9.0 -7.4 8.2 L-7.7 8.1 -7.9 8.0 Q-9.0 7.3 -10.25 7.05 -11.0 7.0 -11.8 6.95 L-13.1 6.45 -13.7 6.15 -14.8 5.65 Q-19.5 3.25 -19.5 0.0"/>
    </path>
  </g>
  <defs>
    <radialGradient cx="0" cy="0" gradientTransform="matrix(0.0351, 0.0, 0.0, 0.0351, 1.0, -0.75)" gradientUnits="userSpaceOnUse" id="gradient0" r="819.2" spreadMethod="pad">
      <animateTransform additive="replace" attributeName="gradientTransform" dur="2s" from="1" repeatCount="indefinite" to="1" type="scale"/>
      <animateTransform additive="sum" attributeName="gradientTransform" dur="2s" from="1.0 -0.75" repeatCount="indefinite" to="1.0 -0.75" type="translate"/>
      <animateTransform additive="sum" attributeName="gradientTransform" dur="2s" from="0.0" repeatCount="indefinite" to="0.0" type="rotate"/>
      <animateTransform additive="sum" attributeName="gradientTransform" dur="2s" from="0.0351 0.0351" repeatCount="indefinite" to="0.0351 0.0351" type="scale"/>
      <animateTransform additive="sum" attributeName="gradientTransform" dur="2s" from="0.0" repeatCount="indefinite" to="0.0" type="skewX"/>
      <stop offset="0.0" stop-color="#fefe0c" stop-opacity="0.9019608">
        <animate attributeName="offset" dur="2s" repeatCount="indefinite" values="0.0;0.0"/>
        <animate attributeName="stop-color" dur="2s" repeatCount="indefinite" values="#fefe0c;#fefe0d"/>
        <animate attributeName="stop-opacity" dur="2s" repeatCount="indefinite" values="0.9019608;0.9019608"/>
      </stop>
      <stop offset="0.5764705882352941" stop-color="#ffba2b" stop-opacity="0.9019608">
        <animate attributeName="offset" dur="2s" repeatCount="indefinite" values="0.5764705882352941;0.5764705882352941"/>
        <animate attributeName="stop-color" dur="2s" repeatCount="indefinite" values="#ffba2b;#ffba2c"/>
        <animate attributeName="stop-opacity" dur="2s" repeatCount="indefinite" values="0.9019608;0.9019608"/>
      </stop>
      <stop offset="1.0" stop-color="#ff720b" stop-opacity="0.9019608">
        <animate attributeName="offset" dur="2s" repeatCount="indefinite" values="1.0;1.0"/>
        <animate attributeName="stop-color" dur="2s" repeatCount="indefinite" values="#ff720b;#ff720c"/>
        <animate attributeName="stop-opacity" dur="2s" repeatCount="indefinite" values="0.9019608;0.9019608"/>
      </stop>
    </radialGradient>
  </defs>
</svg>
