<?xml version="1.0" encoding="UTF-8" standalone="no"?>
<svg xmlns:xlink="http://www.w3.org/1999/xlink" height="5.85px" width="3.8px" xmlns="http://www.w3.org/2000/svg">
  <g transform="matrix(1.0, 0.0, 0.0, 1.0, 0.35, -9.85)">
    <path d="M-0.35 10.85 L-0.35 10.85 -0.3 11.45 -0.3 11.7 0.2 11.95 0.4 11.9 0.5 11.8 0.5 11.8 0.6 11.4 0.65 11.05 0.65 11.15 0.7 11.25 0.95 11.55 0.95 11.6 0.95 11.7 1.5 11.95 2.0 11.8 2.2 11.6 2.3 11.6 2.75 11.35 2.8 11.2 2.8 10.95 2.8 10.8 2.75 10.7 2.7 10.6 2.0 10.55 1.95 10.6 1.85 10.55 1.75 10.55 1.6 10.45 1.5 10.45 1.35 10.35 1.3 10.3 0.85 9.9 0.65 9.85 0.65 9.9 Q0.05 9.95 -0.3 10.4 L-0.35 10.85" fill="#000000" fill-rule="evenodd" stroke="none">
      <animate attributeName="fill" dur="2s" repeatCount="indefinite" values="#000000;#000001"/>
      <animate attributeName="fill-opacity" dur="2s" repeatCount="indefinite" values="1.0;1.0"/>
      <animate attributeName="d" dur="2s" repeatCount="indefinite" values="M-0.35 10.85 L-0.35 10.85 -0.3 11.45 -0.3 11.7 0.2 11.95 0.4 11.9 0.5 11.8 0.5 11.8 0.6 11.4 0.65 11.05 0.65 11.15 0.7 11.25 0.95 11.55 0.95 11.6 0.95 11.7 1.5 11.95 2.0 11.8 2.2 11.6 2.3 11.6 2.75 11.35 2.8 11.2 2.8 10.95 2.8 10.8 2.75 10.7 2.7 10.6 2.0 10.55 1.95 10.6 1.85 10.55 1.75 10.55 1.6 10.45 1.5 10.45 1.35 10.35 1.3 10.3 0.85 9.9 0.65 9.85 0.65 9.9 Q0.05 9.95 -0.3 10.4 L-0.35 10.85;M0.2 15.45 L0.3 15.55 0.65 15.7 0.85 15.65 1.15 15.4 1.3 15.5 1.5 15.55 1.5 15.55 1.85 15.4 2.15 15.15 2.15 15.15 2.45 15.3 2.9 15.15 2.9 15.15 3.0 15.05 3.1 14.75 3.15 14.35 3.25 14.25 3.25 14.25 3.45 13.9 3.45 13.65 3.0 13.3 2.85 13.3 2.75 13.35 2.7 13.4 2.35 13.85 2.25 13.95 2.25 14.05 2.15 14.05 1.95 14.05 1.85 14.05 1.75 13.95 1.65 13.9 1.2 13.95 1.2 13.95 1.2 13.95 Q0.45 14.4 0.25 15.05 L0.2 15.45"/>
    </path>
    <path d="M-0.35 10.85 L-0.3 10.4 Q0.05 9.95 0.65 9.9 L0.65 9.85 0.85 9.9 1.3 10.3 1.35 10.35 1.5 10.45 1.6 10.45 1.75 10.55 1.85 10.55 1.95 10.6 2.0 10.55 2.7 10.6 2.75 10.7 2.8 10.8 2.8 10.95 2.8 11.2 2.75 11.35 2.3 11.6 2.2 11.6 2.0 11.8 1.5 11.95 0.95 11.7 0.95 11.6 0.95 11.55 0.7 11.25 0.65 11.15 0.65 11.05 0.6 11.4 0.5 11.8 0.5 11.8 0.4 11.9 0.2 11.95 -0.3 11.7 -0.3 11.45 -0.35 10.85 -0.35 10.85" fill="none" stroke="#000000" stroke-linecap="round" stroke-linejoin="round" stroke-opacity="0.0" stroke-width="1.0">
      <animate attributeName="stroke" dur="2s" repeatCount="indefinite" values="#000000;#000001"/>
      <animate attributeName="stroke-width" dur="2s" repeatCount="indefinite" values="0.0;0.0"/>
      <animate attributeName="fill-opacity" dur="2s" repeatCount="indefinite" values="0.0;0.0"/>
      <animate attributeName="d" dur="2s" repeatCount="indefinite" values="M-0.35 10.85 L-0.3 10.4 Q0.05 9.95 0.65 9.9 L0.65 9.85 0.85 9.9 1.3 10.3 1.35 10.35 1.5 10.45 1.6 10.45 1.75 10.55 1.85 10.55 1.95 10.6 2.0 10.55 2.7 10.6 2.75 10.7 2.8 10.8 2.8 10.95 2.8 11.2 2.75 11.35 2.3 11.6 2.2 11.6 2.0 11.8 1.5 11.95 0.95 11.7 0.95 11.6 0.95 11.55 0.7 11.25 0.65 11.15 0.65 11.05 0.6 11.4 0.5 11.8 0.5 11.8 0.4 11.9 0.2 11.95 -0.3 11.7 -0.3 11.45 -0.35 10.85 -0.35 10.85;M0.2 15.45 L0.25 15.05 Q0.45 14.4 1.2 13.95 L1.2 13.95 1.2 13.95 1.65 13.9 1.75 13.95 1.85 14.05 1.95 14.05 2.15 14.05 2.25 14.05 2.25 13.95 2.35 13.85 2.7 13.4 2.75 13.35 2.85 13.3 3.0 13.3 3.45 13.65 3.45 13.9 3.25 14.25 3.25 14.25 3.15 14.35 3.1 14.75 3.0 15.05 2.9 15.15 2.9 15.15 2.45 15.3 2.15 15.15 2.15 15.15 1.85 15.4 1.5 15.55 1.5 15.55 1.3 15.5 1.15 15.4 0.85 15.65 0.65 15.7 0.3 15.55 0.2 15.45"/>
    </path>
  </g>
</svg>
