<?xml version="1.0" encoding="UTF-8" standalone="no"?>
<svg xmlns:xlink="http://www.w3.org/1999/xlink" height="5.25px" width="5.95px" xmlns="http://www.w3.org/2000/svg">
  <g transform="matrix(1.0, 0.0, 0.0, 1.0, 11.75, -1.1)">
    <path d="M-11.75 2.95 L-11.75 3.25 -11.7 3.7 -11.6 3.8 Q-10.85 4.2 -10.8 3.35 L-10.7 3.3 Q-10.45 3.0 -10.25 2.75 L-9.6 3.4 -9.05 3.5 Q-8.45 3.2 -8.4 2.35 -7.4 2.45 -7.05 1.65 L-7.05 1.55 Q-7.1 1.2 -7.5 1.1 L-7.65 1.15 -7.9 1.3 Q-8.9 1.35 -9.55 2.1 -10.4 2.05 -11.2 2.05 L-11.25 2.2 Q-11.25 2.25 -11.25 2.3 -11.3 2.35 -11.35 2.4 L-11.75 2.95" fill="#000000" fill-rule="evenodd" stroke="none">
      <animate attributeName="fill" dur="2s" repeatCount="indefinite" values="#000000;#000001"/>
      <animate attributeName="fill-opacity" dur="2s" repeatCount="indefinite" values="1.0;1.0"/>
      <animate attributeName="d" dur="2s" repeatCount="indefinite" values="M-11.75 2.95 L-11.75 3.25 -11.7 3.7 -11.6 3.8 Q-10.85 4.2 -10.8 3.35 L-10.7 3.3 Q-10.45 3.0 -10.25 2.75 L-9.6 3.4 -9.05 3.5 Q-8.45 3.2 -8.4 2.35 -7.4 2.45 -7.05 1.65 L-7.05 1.55 Q-7.1 1.2 -7.5 1.1 L-7.65 1.15 -7.9 1.3 Q-8.9 1.35 -9.55 2.1 -10.4 2.05 -11.2 2.05 L-11.25 2.2 Q-11.25 2.25 -11.25 2.3 -11.3 2.35 -11.35 2.4 L-11.75 2.95;M-10.5 4.7 L-10.45 4.95 -9.6 5.15 -8.85 5.3 Q-8.75 5.35 -8.7 5.4 L-8.5 5.55 Q-7.7 6.6 -6.65 6.3 L-6.55 5.9 -6.5 5.05 Q-6.15 4.7 -5.8 4.4 -6.0 3.6 -6.75 4.05 L-7.2 4.25 Q-7.55 4.55 -7.5 5.05 L-7.55 5.0 -8.05 4.65 Q-8.05 4.6 -8.05 4.55 -8.3 3.9 -9.0 4.2 L-9.05 4.1 Q-9.2 3.75 -9.6 3.8 -10.1 3.9 -10.45 4.4 L-10.5 4.7"/>
    </path>
    <path d="M-11.75 2.95 L-11.35 2.4 Q-11.3 2.35 -11.25 2.3 -11.25 2.25 -11.25 2.2 L-11.2 2.05 Q-10.4 2.05 -9.55 2.1 -8.9 1.35 -7.9 1.3 L-7.65 1.15 -7.5 1.1 Q-7.1 1.2 -7.05 1.55 L-7.05 1.65 Q-7.4 2.45 -8.4 2.35 -8.45 3.2 -9.05 3.5 L-9.6 3.4 -10.25 2.75 Q-10.45 3.0 -10.7 3.3 L-10.8 3.35 Q-10.85 4.2 -11.6 3.8 L-11.7 3.7 -11.75 3.25 -11.75 2.95" fill="none" stroke="#000000" stroke-linecap="round" stroke-linejoin="round" stroke-opacity="0.0" stroke-width="1.0">
      <animate attributeName="stroke" dur="2s" repeatCount="indefinite" values="#000000;#000001"/>
      <animate attributeName="stroke-width" dur="2s" repeatCount="indefinite" values="0.0;0.0"/>
      <animate attributeName="fill-opacity" dur="2s" repeatCount="indefinite" values="0.0;0.0"/>
      <animate attributeName="d" dur="2s" repeatCount="indefinite" values="M-11.75 2.95 L-11.35 2.4 Q-11.3 2.35 -11.25 2.3 -11.25 2.25 -11.25 2.2 L-11.2 2.05 Q-10.4 2.05 -9.55 2.1 -8.9 1.35 -7.9 1.3 L-7.65 1.15 -7.5 1.1 Q-7.1 1.2 -7.05 1.55 L-7.05 1.65 Q-7.4 2.45 -8.4 2.35 -8.45 3.2 -9.05 3.5 L-9.6 3.4 -10.25 2.75 Q-10.45 3.0 -10.7 3.3 L-10.8 3.35 Q-10.85 4.2 -11.6 3.8 L-11.7 3.7 -11.75 3.25 -11.75 2.95;M-10.5 4.7 L-10.45 4.4 Q-10.1 3.9 -9.6 3.8 -9.2 3.75 -9.05 4.1 L-9.0 4.2 Q-8.3 3.9 -8.05 4.55 -8.05 4.6 -8.05 4.65 L-7.55 5.0 -7.5 5.05 Q-7.55 4.55 -7.2 4.25 L-6.75 4.05 Q-6.0 3.6 -5.8 4.4 -6.15 4.7 -6.5 5.05 L-6.55 5.9 -6.65 6.3 Q-7.7 6.6 -8.5 5.55 L-8.7 5.4 Q-8.75 5.35 -8.85 5.3 L-9.6 5.15 -10.45 4.95 -10.5 4.7"/>
    </path>
  </g>
</svg>
