<?xml version="1.0" encoding="UTF-8" standalone="no"?>
<svg xmlns:xlink="http://www.w3.org/1999/xlink" height="4.35px" width="3.2px" xmlns="http://www.w3.org/2000/svg">
  <g transform="matrix(1.0, 0.0, 0.0, 1.0, -7.25, -2.35)">
    <path d="M7.3 4.95 L7.4 5.05 Q8.3 5.4 8.2 4.35 L8.65 4.3 Q9.4 4.4 9.6 3.7 L10.1 3.35 Q10.15 3.3 10.15 3.3 10.4 2.6 9.75 2.35 9.75 2.4 9.75 2.4 9.65 2.4 9.6 2.4 L8.3 3.1 Q7.0 3.5 7.3 4.95" fill="#000000" fill-rule="evenodd" stroke="none">
      <animate attributeName="fill" dur="2s" repeatCount="indefinite" values="#000000;#000001"/>
      <animate attributeName="fill-opacity" dur="2s" repeatCount="indefinite" values="1.0;1.0"/>
      <animate attributeName="d" dur="2s" repeatCount="indefinite" values="M7.3 4.95 L7.4 5.05 Q8.3 5.4 8.2 4.35 L8.65 4.3 Q9.4 4.4 9.6 3.7 L10.1 3.35 Q10.15 3.3 10.15 3.3 10.4 2.6 9.75 2.35 9.75 2.4 9.75 2.4 9.65 2.4 9.6 2.4 L8.3 3.1 Q7.0 3.5 7.3 4.95;M7.3 6.45 L8.1 6.55 Q8.15 6.4 8.15 6.25 L8.25 5.6 Q8.75 5.2 9.25 4.8 L9.7 4.65 Q11.0 4.2 10.0 3.55 9.85 3.55 9.75 3.55 8.65 3.55 8.2 4.45 7.65 4.45 7.45 4.85 L7.4 5.35 Q7.35 5.9 7.3 6.45"/>
    </path>
    <path d="M7.3 4.95 Q7.0 3.5 8.3 3.1 L9.6 2.4 Q9.65 2.4 9.75 2.4 9.75 2.4 9.75 2.35 10.4 2.6 10.15 3.3 10.15 3.3 10.1 3.35 L9.6 3.7 Q9.4 4.4 8.65 4.3 L8.2 4.35 Q8.3 5.4 7.4 5.05 L7.3 4.95" fill="none" stroke="#000000" stroke-linecap="round" stroke-linejoin="round" stroke-opacity="0.0" stroke-width="1.0">
      <animate attributeName="stroke" dur="2s" repeatCount="indefinite" values="#000000;#000001"/>
      <animate attributeName="stroke-width" dur="2s" repeatCount="indefinite" values="0.0;0.0"/>
      <animate attributeName="fill-opacity" dur="2s" repeatCount="indefinite" values="0.0;0.0"/>
      <animate attributeName="d" dur="2s" repeatCount="indefinite" values="M7.3 4.95 Q7.0 3.5 8.3 3.1 L9.6 2.4 Q9.65 2.4 9.75 2.4 9.75 2.4 9.75 2.35 10.4 2.6 10.15 3.3 10.15 3.3 10.1 3.35 L9.6 3.7 Q9.4 4.4 8.65 4.3 L8.2 4.35 Q8.3 5.4 7.4 5.05 L7.3 4.95;M7.3 6.45 Q7.35 5.9 7.4 5.35 L7.45 4.85 Q7.65 4.45 8.2 4.45 8.65 3.55 9.75 3.55 9.85 3.55 10.0 3.55 11.0 4.2 9.7 4.65 L9.25 4.8 Q8.75 5.2 8.25 5.6 L8.15 6.25 Q8.15 6.4 8.1 6.55 L7.3 6.45"/>
    </path>
  </g>
</svg>
