<?xml version="1.0" encoding="UTF-8" standalone="no"?>
<svg xmlns:xlink="http://www.w3.org/1999/xlink" height="35.85px" width="39.8px" xmlns="http://www.w3.org/2000/svg">
  <g transform="matrix(1.0, 0.0, 0.0, 1.0, 19.5, 8.75)">
    <path d="M-19.5 0.0 L-19.5 0.0 -19.45 0.75 -19.35 1.05 -19.35 1.15 Q-18.8 3.1 -16.35 4.7 L-15.95 5.0 Q-14.8 5.6 -13.7 6.15 L-12.3 6.75 -11.8 6.95 Q-10.85 7.05 -9.95 7.15 L-9.45 7.3 -7.9 8.0 -7.7 8.1 Q-6.75 8.5 -6.2 9.15 L-5.85 9.7 -5.55 10.45 -5.5 11.05 -5.5 11.25 -5.5 12.2 -4.95 11.9 Q-4.7 11.6 -4.15 11.65 L-4.15 11.65 -4.0 11.65 -3.9 11.65 -3.7 11.65 -3.7 11.65 -3.45 11.8 -3.35 11.8 -3.2 12.0 -3.0 12.3 -2.85 12.55 -2.85 12.65 -2.4 13.4 -2.2 13.8 -2.15 13.9 -2.05 14.3 Q-2.05 15.75 -2.35 17.2 -2.4 17.35 -2.45 17.5 L-2.45 17.95 Q-0.95 17.35 -0.9 18.95 L-0.8 19.9 -0.8 20.15 Q-0.65 21.6 -1.25 23.0 L-1.25 23.1 -1.3 23.55 -1.3 24.85 -1.3 24.95 -1.05 25.3 -0.85 25.55 0.25 27.0 0.35 27.0 0.8 27.0 0.4 26.05 0.25 25.1 0.25 24.35 0.55 23.2 1.15 22.0 1.15 22.0 1.45 21.3 Q1.5 20.75 1.55 20.25 1.55 19.8 1.95 19.7 L2.7 19.65 Q3.3 20.05 3.85 20.4 L4.05 20.7 4.2 21.6 4.2 21.65 4.7 21.45 4.85 21.25 4.95 21.15 5.05 20.85 5.15 20.55 5.25 19.45 5.2 18.7 4.85 17.9 4.75 17.5 Q4.55 16.6 5.0 15.7 L5.1 15.5 5.5 14.9 5.8 14.45 Q6.15 13.8 6.45 13.15 L6.55 12.45 6.55 12.35 6.8 12.15 7.0 12.1 7.0 12.1 Q7.8 12.05 8.2 12.9 L8.4 13.25 8.45 13.2 8.5 13.1 8.6 12.95 8.85 12.7 8.85 12.6 Q8.9 11.55 8.95 10.5 9.1 10.05 9.2 9.6 L9.25 9.45 9.35 9.25 Q9.95 8.35 10.85 7.8 L11.35 7.55 11.8 7.4 12.0 7.35 12.15 7.2 12.25 7.05 12.45 6.95 12.55 6.95 12.55 6.95 Q13.5 6.55 14.45 6.15 L14.9 5.95 Q16.0 5.35 17.05 4.75 17.55 4.4 18.05 4.05 18.7 3.4 19.3 2.8 L19.4 2.7 19.6 2.4 19.7 2.2 20.05 1.6 20.2 1.0 20.3 0.0 Q20.15 -0.75 20.05 -1.45 L20.0 -1.6 19.85 -1.95 19.5 -2.55 Q18.65 -3.85 16.8 -5.0 L16.4 -5.2 14.45 -6.2 14.25 -6.3 14.15 -6.3 13.1 -6.8 12.35 -7.05 Q11.95 -7.2 11.55 -7.35 L11.45 -7.35 10.7 -7.55 9.8 -7.75 9.5 -7.85 9.4 -7.85 7.95 -8.15 7.1 -8.3 6.9 -8.3 Q4.5 -8.5 2.15 -8.7 L0.4 -8.75 Q-7.6 -8.75 -13.4 -6.3 L-13.7 -6.2 Q-18.1 -4.2 -19.15 -1.65 L-19.4 -0.95 -19.4 -0.85 -19.5 0.0" fill="url(#gradient0)" fill-rule="evenodd" stroke="none">
      <animate attributeName="d" dur="2s" repeatCount="indefinite" values="M-19.5 0.0 L-19.5 0.0 -19.45 0.75 -19.35 1.05 -19.35 1.15 Q-18.8 3.1 -16.35 4.7 L-15.95 5.0 Q-14.8 5.6 -13.7 6.15 L-12.3 6.75 -11.8 6.95 Q-10.85 7.05 -9.95 7.15 L-9.45 7.3 -7.9 8.0 -7.7 8.1 Q-6.75 8.5 -6.2 9.15 L-5.85 9.7 -5.55 10.45 -5.5 11.05 -5.5 11.25 -5.5 12.2 -4.95 11.9 Q-4.7 11.6 -4.15 11.65 L-4.15 11.65 -4.0 11.65 -3.9 11.65 -3.7 11.65 -3.7 11.65 -3.45 11.8 -3.35 11.8 -3.2 12.0 -3.0 12.3 -2.85 12.55 -2.85 12.65 -2.4 13.4 -2.2 13.8 -2.15 13.9 -2.05 14.3 Q-2.05 15.75 -2.35 17.2 -2.4 17.35 -2.45 17.5 L-2.45 17.95 Q-0.95 17.35 -0.9 18.95 L-0.8 19.9 -0.8 20.15 Q-0.65 21.6 -1.25 23.0 L-1.25 23.1 -1.3 23.55 -1.3 24.85 -1.3 24.95 -1.05 25.3 -0.85 25.55 0.25 27.0 0.35 27.0 0.8 27.0 0.4 26.05 0.25 25.1 0.25 24.35 0.55 23.2 1.15 22.0 1.15 22.0 1.45 21.3 Q1.5 20.75 1.55 20.25 1.55 19.8 1.95 19.7 L2.7 19.65 Q3.3 20.05 3.85 20.4 L4.05 20.7 4.2 21.6 4.2 21.65 4.7 21.45 4.85 21.25 4.95 21.15 5.05 20.85 5.15 20.55 5.25 19.45 5.2 18.7 4.85 17.9 4.75 17.5 Q4.55 16.6 5.0 15.7 L5.1 15.5 5.5 14.9 5.8 14.45 Q6.15 13.8 6.45 13.15 L6.55 12.45 6.55 12.35 6.8 12.15 7.0 12.1 7.0 12.1 Q7.8 12.05 8.2 12.9 L8.4 13.25 8.45 13.2 8.5 13.1 8.6 12.95 8.85 12.7 8.85 12.6 Q8.9 11.55 8.95 10.5 9.1 10.05 9.2 9.6 L9.25 9.45 9.35 9.25 Q9.95 8.35 10.85 7.8 L11.35 7.55 11.8 7.4 12.0 7.35 12.15 7.2 12.25 7.05 12.45 6.95 12.55 6.95 12.55 6.95 Q13.5 6.55 14.45 6.15 L14.9 5.95 Q16.0 5.35 17.05 4.75 17.55 4.4 18.05 4.05 18.7 3.4 19.3 2.8 L19.4 2.7 19.6 2.4 19.7 2.2 20.05 1.6 20.2 1.0 20.3 0.0 Q20.15 -0.75 20.05 -1.45 L20.0 -1.6 19.85 -1.95 19.5 -2.55 Q18.65 -3.85 16.8 -5.0 L16.4 -5.2 14.45 -6.2 14.25 -6.3 14.15 -6.3 13.1 -6.8 12.35 -7.05 Q11.95 -7.2 11.55 -7.35 L11.45 -7.35 10.7 -7.55 9.8 -7.75 9.5 -7.85 9.4 -7.85 7.95 -8.15 7.1 -8.3 6.9 -8.3 Q4.5 -8.5 2.15 -8.7 L0.4 -8.75 Q-7.6 -8.75 -13.4 -6.3 L-13.7 -6.2 Q-18.1 -4.2 -19.15 -1.65 L-19.4 -0.95 -19.4 -0.85 -19.5 0.0;M-14.35 0.7 L-14.35 1.0 -14.25 1.95 -14.25 2.3 -14.2 2.4 Q-13.0 4.55 -10.95 5.85 L-10.5 6.1 Q-9.1 6.65 -8.15 7.6 L-7.35 8.7 -6.95 9.05 Q-6.3 9.7 -5.9 10.6 L-5.8 11.1 -5.9 13.0 -5.9 13.2 Q-6.1 14.1 -6.25 14.95 L-6.5 15.35 -7.05 16.4 -7.2 16.95 -7.2 17.15 -7.0 18.15 -6.9 18.85 Q-6.85 19.35 -6.8 19.8 L-6.75 19.8 -6.6 19.8 -6.55 19.7 -6.45 19.6 -6.4 19.6 -6.4 19.5 -6.35 19.4 -6.2 19.1 -6.05 18.9 -5.9 18.75 -5.9 18.65 -5.65 17.7 -5.4 17.35 -5.4 17.25 -5.2 16.8 Q-4.5 15.4 -2.7 15.9 -2.5 15.95 -2.4 16.1 L-2.2 16.65 Q-2.1 17.95 -2.75 19.0 L-3.4 19.85 -3.55 19.95 Q-3.75 21.4 -3.95 22.85 L-3.95 23.1 -4.0 23.6 -3.65 24.95 -3.55 25.15 -3.4 25.35 -3.2 25.55 -1.7 26.9 -1.7 26.9 -1.75 26.4 -2.2 25.4 -2.45 24.55 -2.45 24.0 -2.35 22.8 -2.1 21.55 -2.1 21.45 -1.75 20.7 Q-1.45 20.15 -1.05 19.95 -0.65 19.85 -0.25 19.75 L0.45 19.85 Q1.4 20.15 1.3 21.1 L1.25 21.4 0.9 22.5 0.9 22.5 0.45 23.3 0.25 23.55 0.1 23.75 0.0 24.05 0.05 24.4 0.55 25.65 1.0 26.2 1.65 26.75 1.9 27.1 Q2.45 26.25 2.05 25.1 L2.0 24.9 2.15 24.25 2.35 23.95 Q3.0 23.2 4.05 23.45 L4.75 23.9 4.85 24.0 5.1 24.45 5.15 24.55 5.15 24.5 Q5.45 23.8 5.4 23.05 L5.35 22.65 5.35 22.55 5.35 22.35 5.25 22.15 5.0 21.65 4.95 21.55 Q4.65 20.6 4.75 19.45 4.8 18.9 5.0 18.4 L5.1 18.2 5.3 17.9 Q5.9 16.85 7.1 17.05 L7.6 17.2 7.7 16.75 7.6 16.55 7.5 16.25 7.45 16.05 7.45 15.9 7.35 15.85 7.35 15.85 Q6.55 15.4 6.2 14.6 L6.1 14.3 Q5.15 13.3 5.6 11.9 5.85 11.1 6.75 11.25 7.65 11.45 8.2 12.25 L8.3 12.35 8.8 12.7 8.9 12.55 8.85 11.85 8.85 11.3 8.45 10.35 Q8.3 9.5 9.0 8.65 L9.05 8.6 9.1 8.35 9.5 7.65 Q10.95 6.35 12.9 5.9 L13.2 5.8 14.7 4.25 15.1 3.55 15.1 3.45 15.55 2.3 15.75 1.6 Q15.85 1.15 16.1 0.85 L16.1 0.75 16.0 0.0 15.75 -0.85 15.65 -1.2 15.55 -1.3 14.4 -2.55 13.6 -3.45 13.4 -3.6 Q11.3 -4.95 8.75 -5.05 L7.05 -5.1 Q-0.15 -5.25 -7.35 -4.8 L-7.75 -4.8 Q-11.7 -4.4 -13.85 -1.05 L-14.3 -0.3 -14.3 -0.2 -14.35 0.7"/>
    </path>
    <path d="M-19.5 0.0 L-19.4 -0.85 -19.4 -0.95 -19.15 -1.65 Q-18.1 -4.2 -13.7 -6.2 L-13.4 -6.3 Q-7.6 -8.75 0.4 -8.75 L2.15 -8.7 Q4.5 -8.5 6.9 -8.3 L7.1 -8.3 7.95 -8.15 9.4 -7.85 9.5 -7.85 9.8 -7.75 10.7 -7.55 11.45 -7.35 11.55 -7.35 Q11.95 -7.2 12.35 -7.05 L13.1 -6.8 14.15 -6.3 14.25 -6.3 14.45 -6.2 16.4 -5.2 16.8 -5.0 Q18.65 -3.85 19.5 -2.55 L19.85 -1.95 20.0 -1.6 20.05 -1.45 Q20.15 -0.75 20.3 0.0 L20.2 1.0 20.05 1.6 19.7 2.2 19.6 2.4 19.4 2.7 19.3 2.8 Q18.7 3.4 18.05 4.05 17.55 4.4 17.05 4.75 16.0 5.35 14.9 5.95 L14.45 6.15 Q13.5 6.55 12.55 6.95 L12.55 6.95 12.45 6.95 12.25 7.05 12.15 7.2 12.0 7.35 11.8 7.4 11.35 7.55 10.85 7.8 Q9.95 8.35 9.35 9.25 L9.25 9.45 9.2 9.6 Q9.1 10.05 8.95 10.5 8.9 11.55 8.85 12.6 L8.85 12.7 8.6 12.95 8.5 13.1 8.45 13.2 8.4 13.25 8.2 12.9 Q7.8 12.05 7.0 12.1 L7.0 12.1 6.8 12.15 6.55 12.35 6.55 12.45 6.45 13.15 Q6.15 13.8 5.8 14.45 L5.5 14.9 5.1 15.5 5.0 15.7 Q4.55 16.6 4.75 17.5 L4.85 17.9 5.2 18.7 5.25 19.45 5.15 20.55 5.05 20.85 4.95 21.15 4.85 21.25 4.7 21.45 4.2 21.65 4.2 21.6 4.05 20.7 3.85 20.4 Q3.3 20.05 2.7 19.65 L1.95 19.7 Q1.55 19.8 1.55 20.25 1.5 20.75 1.45 21.3 L1.15 22.0 1.15 22.0 0.55 23.2 0.25 24.35 0.25 25.1 0.4 26.05 0.8 27.0 0.35 27.0 0.25 27.0 -0.85 25.55 -1.05 25.3 -1.3 24.95 -1.3 24.85 -1.3 23.55 -1.25 23.1 -1.25 23.0 Q-0.65 21.6 -0.8 20.15 L-0.8 19.9 -0.9 18.95 Q-0.95 17.35 -2.45 17.95 L-2.45 17.5 Q-2.4 17.35 -2.35 17.2 -2.05 15.75 -2.05 14.3 L-2.15 13.9 -2.2 13.8 -2.4 13.4 -2.85 12.65 -2.85 12.55 -3.0 12.3 -3.2 12.0 -3.35 11.8 -3.45 11.8 -3.7 11.65 -3.7 11.65 -3.9 11.65 -4.0 11.65 -4.15 11.65 -4.15 11.65 Q-4.7 11.6 -4.95 11.9 L-5.5 12.2 -5.5 11.25 -5.5 11.05 -5.55 10.45 -5.85 9.7 -6.2 9.15 Q-6.75 8.5 -7.7 8.1 L-7.9 8.0 -9.45 7.3 -9.95 7.15 Q-10.85 7.05 -11.8 6.95 L-12.3 6.75 -13.7 6.15 Q-14.8 5.6 -15.95 5.0 L-16.35 4.7 Q-18.8 3.1 -19.35 1.15 L-19.35 1.05 -19.45 0.75 -19.5 0.0 -19.5 0.0" fill="none" stroke="#000000" stroke-linecap="round" stroke-linejoin="round" stroke-opacity="0.0" stroke-width="1.0">
      <animate attributeName="stroke" dur="2s" repeatCount="indefinite" values="#000000;#000001"/>
      <animate attributeName="stroke-width" dur="2s" repeatCount="indefinite" values="0.0;0.0"/>
      <animate attributeName="fill-opacity" dur="2s" repeatCount="indefinite" values="0.0;0.0"/>
      <animate attributeName="d" dur="2s" repeatCount="indefinite" values="M-19.5 0.0 L-19.4 -0.85 -19.4 -0.95 -19.15 -1.65 Q-18.1 -4.2 -13.7 -6.2 L-13.4 -6.3 Q-7.6 -8.75 0.4 -8.75 L2.15 -8.7 Q4.5 -8.5 6.9 -8.3 L7.1 -8.3 7.95 -8.15 9.4 -7.85 9.5 -7.85 9.8 -7.75 10.7 -7.55 11.45 -7.35 11.55 -7.35 Q11.95 -7.2 12.35 -7.05 L13.1 -6.8 14.15 -6.3 14.25 -6.3 14.45 -6.2 16.4 -5.2 16.8 -5.0 Q18.65 -3.85 19.5 -2.55 L19.85 -1.95 20.0 -1.6 20.05 -1.45 Q20.15 -0.75 20.3 0.0 L20.2 1.0 20.05 1.6 19.7 2.2 19.6 2.4 19.4 2.7 19.3 2.8 Q18.7 3.4 18.05 4.05 17.55 4.4 17.05 4.75 16.0 5.35 14.9 5.95 L14.45 6.15 Q13.5 6.55 12.55 6.95 L12.55 6.95 12.45 6.95 12.25 7.05 12.15 7.2 12.0 7.35 11.8 7.4 11.35 7.55 10.85 7.8 Q9.95 8.35 9.35 9.25 L9.25 9.45 9.2 9.6 Q9.1 10.05 8.95 10.5 8.9 11.55 8.85 12.6 L8.85 12.7 8.6 12.95 8.5 13.1 8.45 13.2 8.4 13.25 8.2 12.9 Q7.8 12.05 7.0 12.1 L7.0 12.1 6.8 12.15 6.55 12.35 6.55 12.45 6.45 13.15 Q6.15 13.8 5.8 14.45 L5.5 14.9 5.1 15.5 5.0 15.7 Q4.55 16.6 4.75 17.5 L4.85 17.9 5.2 18.7 5.25 19.45 5.15 20.55 5.05 20.85 4.95 21.15 4.85 21.25 4.7 21.45 4.2 21.65 4.2 21.6 4.05 20.7 3.85 20.4 Q3.3 20.05 2.7 19.65 L1.95 19.7 Q1.55 19.8 1.55 20.25 1.5 20.75 1.45 21.3 L1.15 22.0 1.15 22.0 0.55 23.2 0.25 24.35 0.25 25.1 0.4 26.05 0.8 27.0 0.35 27.0 0.25 27.0 -0.85 25.55 -1.05 25.3 -1.3 24.95 -1.3 24.85 -1.3 23.55 -1.25 23.1 -1.25 23.0 Q-0.65 21.6 -0.8 20.15 L-0.8 19.9 -0.9 18.95 Q-0.95 17.35 -2.45 17.95 L-2.45 17.5 Q-2.4 17.35 -2.35 17.2 -2.05 15.75 -2.05 14.3 L-2.15 13.9 -2.2 13.8 -2.4 13.4 -2.85 12.65 -2.85 12.55 -3.0 12.3 -3.2 12.0 -3.35 11.8 -3.45 11.8 -3.7 11.65 -3.7 11.65 -3.9 11.65 -4.0 11.65 -4.15 11.65 -4.15 11.65 Q-4.7 11.6 -4.95 11.9 L-5.5 12.2 -5.5 11.25 -5.5 11.05 -5.55 10.45 -5.85 9.7 -6.2 9.15 Q-6.75 8.5 -7.7 8.1 L-7.9 8.0 -9.45 7.3 -9.95 7.15 Q-10.85 7.05 -11.8 6.95 L-12.3 6.75 -13.7 6.15 Q-14.8 5.6 -15.95 5.0 L-16.35 4.7 Q-18.8 3.1 -19.35 1.15 L-19.35 1.05 -19.45 0.75 -19.5 0.0 -19.5 0.0;M-14.35 0.7 L-14.3 -0.2 -14.3 -0.3 -13.85 -1.05 Q-11.7 -4.4 -7.75 -4.8 L-7.35 -4.8 Q-0.15 -5.25 7.05 -5.1 L8.75 -5.05 Q11.3 -4.95 13.4 -3.6 L13.6 -3.45 14.4 -2.55 15.55 -1.3 15.65 -1.2 15.75 -0.85 16.0 0.0 16.1 0.75 16.1 0.85 Q15.85 1.15 15.75 1.6 L15.55 2.3 15.1 3.45 15.1 3.55 14.7 4.25 13.2 5.8 12.9 5.9 Q10.95 6.35 9.5 7.65 L9.1 8.35 9.05 8.6 9.0 8.65 Q8.3 9.5 8.45 10.35 L8.85 11.3 8.85 11.85 8.9 12.55 8.8 12.7 8.3 12.35 8.2 12.25 Q7.65 11.45 6.75 11.25 5.85 11.1 5.6 11.9 5.15 13.3 6.1 14.3 L6.2 14.6 Q6.55 15.4 7.35 15.85 L7.35 15.85 7.45 15.9 7.45 16.05 7.5 16.25 7.6 16.55 7.7 16.75 7.6 17.2 7.1 17.05 Q5.9 16.85 5.3 17.9 L5.1 18.2 5.0 18.4 Q4.8 18.9 4.75 19.45 4.65 20.6 4.95 21.55 L5.0 21.65 5.25 22.15 5.35 22.35 5.35 22.55 5.35 22.65 5.4 23.05 Q5.45 23.8 5.15 24.5 L5.15 24.55 5.1 24.45 4.85 24.0 4.75 23.9 4.05 23.45 Q3.0 23.2 2.35 23.95 L2.15 24.25 2.0 24.9 2.05 25.1 Q2.45 26.25 1.9 27.1 L1.65 26.75 1.0 26.2 0.55 25.65 0.05 24.4 0.0 24.05 0.1 23.75 0.25 23.55 0.45 23.3 0.9 22.5 0.9 22.5 1.25 21.4 1.3 21.1 Q1.4 20.15 0.45 19.85 L-0.25 19.75 Q-0.65 19.85 -1.05 19.95 -1.45 20.15 -1.75 20.7 L-2.1 21.45 -2.1 21.55 -2.35 22.8 -2.45 24.0 -2.45 24.55 -2.2 25.4 -1.75 26.4 -1.7 26.9 -1.7 26.9 -3.2 25.55 -3.4 25.35 -3.55 25.15 -3.65 24.95 -4.0 23.6 -3.95 23.1 -3.95 22.85 Q-3.75 21.4 -3.55 19.95 L-3.4 19.85 -2.75 19.0 Q-2.1 17.95 -2.2 16.65 L-2.4 16.1 Q-2.5 15.95 -2.7 15.9 -4.5 15.4 -5.2 16.8 L-5.4 17.25 -5.4 17.35 -5.65 17.7 -5.9 18.65 -5.9 18.75 -6.05 18.9 -6.2 19.1 -6.35 19.4 -6.4 19.5 -6.4 19.6 -6.45 19.6 -6.55 19.7 -6.6 19.8 -6.75 19.8 -6.8 19.8 Q-6.85 19.35 -6.9 18.85 L-7.0 18.15 -7.2 17.15 -7.2 16.95 -7.05 16.4 -6.5 15.35 -6.25 14.95 Q-6.1 14.1 -5.9 13.2 L-5.9 13.0 -5.8 11.1 -5.9 10.6 Q-6.3 9.7 -6.95 9.05 L-7.35 8.7 -8.15 7.6 Q-9.1 6.65 -10.5 6.1 L-10.95 5.85 Q-13.0 4.55 -14.2 2.4 L-14.25 2.3 -14.25 1.95 -14.35 1.0 -14.35 0.7"/>
    </path>
  </g>
  <defs>
    <radialGradient cx="0" cy="0" gradientTransform="matrix(0.0351, 0.0, 0.0, 0.0351, 1.0, -0.75)" gradientUnits="userSpaceOnUse" id="gradient0" r="819.2" spreadMethod="pad">
      <animateTransform additive="replace" attributeName="gradientTransform" dur="2s" from="1" repeatCount="indefinite" to="1" type="scale"/>
      <animateTransform additive="sum" attributeName="gradientTransform" dur="2s" from="1.0 -0.75" repeatCount="indefinite" to="1.0 -0.75" type="translate"/>
      <animateTransform additive="sum" attributeName="gradientTransform" dur="2s" from="0.0" repeatCount="indefinite" to="0.0" type="rotate"/>
      <animateTransform additive="sum" attributeName="gradientTransform" dur="2s" from="0.0351 0.0351" repeatCount="indefinite" to="0.0351 0.0351" type="scale"/>
      <animateTransform additive="sum" attributeName="gradientTransform" dur="2s" from="0.0" repeatCount="indefinite" to="0.0" type="skewX"/>
      <stop offset="0.0" stop-color="#fefe0c" stop-opacity="0.9019608">
        <animate attributeName="offset" dur="2s" repeatCount="indefinite" values="0.0;0.0"/>
        <animate attributeName="stop-color" dur="2s" repeatCount="indefinite" values="#fefe0c;#fefe0d"/>
        <animate attributeName="stop-opacity" dur="2s" repeatCount="indefinite" values="0.9019608;0.9019608"/>
      </stop>
      <stop offset="0.5764705882352941" stop-color="#ffba2b" stop-opacity="0.9019608">
        <animate attributeName="offset" dur="2s" repeatCount="indefinite" values="0.5764705882352941;0.5764705882352941"/>
        <animate attributeName="stop-color" dur="2s" repeatCount="indefinite" values="#ffba2b;#ffba2c"/>
        <animate attributeName="stop-opacity" dur="2s" repeatCount="indefinite" values="0.9019608;0.9019608"/>
      </stop>
      <stop offset="1.0" stop-color="#ff720b" stop-opacity="0.9019608">
        <animate attributeName="offset" dur="2s" repeatCount="indefinite" values="1.0;1.0"/>
        <animate attributeName="stop-color" dur="2s" repeatCount="indefinite" values="#ff720b;#ff720c"/>
        <animate attributeName="stop-opacity" dur="2s" repeatCount="indefinite" values="0.9019608;0.9019608"/>
      </stop>
    </radialGradient>
  </defs>
</svg>
