<?xml version="1.0" encoding="UTF-8" standalone="no"?>
<svg xmlns:xlink="http://www.w3.org/1999/xlink" height="29.6px" width="21.2px" xmlns="http://www.w3.org/2000/svg">
  <g transform="matrix(1.0, 0.0, 0.0, 1.0, 10.95, 2.35)">
    <path d="M-10.95 2.45 L-10.95 2.65 -10.85 3.8 -10.65 4.3 -9.05 6.35 -7.6 7.8 -7.0 8.3 -6.8 8.4 -6.5 8.8 Q-5.85 9.9 -5.95 11.25 L-6.1 11.95 -6.2 12.35 -6.3 12.6 -6.35 12.9 -6.6 14.35 -7.05 15.3 -7.1 15.4 -7.3 15.85 -7.35 15.95 -7.35 16.2 -6.05 15.45 -5.3 15.1 -5.3 15.1 -4.3 15.2 -4.2 15.3 Q-3.9 15.6 -3.75 16.0 L-3.7 16.2 -3.7 16.75 -4.0 17.65 -4.2 17.95 -4.9 18.45 -5.65 19.1 -6.2 19.95 -6.3 20.15 Q-4.95 20.25 -3.65 20.35 -3.2 20.6 -3.05 21.0 L-2.95 21.65 -3.3 22.75 -3.85 23.3 Q-5.1 24.15 -4.2 25.3 L-4.2 25.3 -4.0 25.65 -3.65 25.05 -2.75 24.5 -1.85 24.4 Q-1.35 24.45 -0.9 24.75 -0.45 25.05 -0.4 25.6 L-0.3 26.35 -0.3 26.55 0.4 27.1 0.4 26.7 0.35 26.3 0.35 25.7 0.35 24.3 0.35 24.15 0.35 23.85 0.0 23.45 -0.2 23.25 Q-1.2 21.9 -0.55 20.25 -0.4 19.95 -0.1 20.0 1.25 20.05 2.15 20.95 L2.75 21.85 3.25 23.4 3.25 23.9 3.45 23.6 3.8 22.45 Q3.85 21.5 3.85 20.6 3.25 19.9 3.2 19.15 3.1 18.4 3.55 17.65 L3.8 17.5 3.9 17.45 Q4.9 17.45 5.6 17.8 6.55 18.3 7.0 19.45 L7.0 19.25 7.3 18.25 7.1 17.2 6.75 16.7 Q5.9 15.95 5.5 15.05 L5.05 13.55 5.05 12.8 Q5.1 11.95 5.55 11.25 5.85 10.75 6.4 10.7 L7.8 10.8 Q8.2 11.15 8.6 11.45 L8.9 12.2 8.95 12.4 9.65 10.8 9.45 10.15 9.05 9.7 9.0 9.6 8.95 9.55 8.35 9.1 7.95 8.45 7.55 7.35 Q7.4 6.65 7.65 6.1 7.95 5.35 8.8 4.9 L9.4 4.45 Q10.45 3.3 10.2 1.65 L10.2 1.35 10.1 0.7 9.55 0.15 8.95 -0.35 Q8.1 -1.0 7.3 -1.6 L6.9 -1.8 4.95 -2.35 Q3.75 -2.35 2.6 -2.35 0.75 -2.3 -1.1 -2.3 L-1.6 -2.3 -3.0 -2.3 -5.4 -2.3 -5.7 -2.3 -6.55 -2.15 Q-7.8 -1.85 -8.85 -0.95 L-9.15 -0.75 -9.15 -0.75 -9.85 0.0 Q-10.3 0.65 -10.75 1.3 L-10.95 2.45" fill="url(#gradient0)" fill-rule="evenodd" stroke="none">
      <animate attributeName="d" dur="2s" repeatCount="indefinite" values="M-10.95 2.45 L-10.95 2.65 -10.85 3.8 -10.65 4.3 -9.05 6.35 -7.6 7.8 -7.0 8.3 -6.8 8.4 -6.5 8.8 Q-5.85 9.9 -5.95 11.25 L-6.1 11.95 -6.2 12.35 -6.3 12.6 -6.35 12.9 -6.6 14.35 -7.05 15.3 -7.1 15.4 -7.3 15.85 -7.35 15.95 -7.35 16.2 -6.05 15.45 -5.3 15.1 -5.3 15.1 -4.3 15.2 -4.2 15.3 Q-3.9 15.6 -3.75 16.0 L-3.7 16.2 -3.7 16.75 -4.0 17.65 -4.2 17.95 -4.9 18.45 -5.65 19.1 -6.2 19.95 -6.3 20.15 Q-4.95 20.25 -3.65 20.35 -3.2 20.6 -3.05 21.0 L-2.95 21.65 -3.3 22.75 -3.85 23.3 Q-5.1 24.15 -4.2 25.3 L-4.2 25.3 -4.0 25.65 -3.65 25.05 -2.75 24.5 -1.85 24.4 Q-1.35 24.45 -0.9 24.75 -0.45 25.05 -0.4 25.6 L-0.3 26.35 -0.3 26.55 0.4 27.1 0.4 26.7 0.35 26.3 0.35 25.7 0.35 24.3 0.35 24.15 0.35 23.85 0.0 23.45 -0.2 23.25 Q-1.2 21.9 -0.55 20.25 -0.4 19.95 -0.1 20.0 1.25 20.05 2.15 20.95 L2.75 21.85 3.25 23.4 3.25 23.9 3.45 23.6 3.8 22.45 Q3.85 21.5 3.85 20.6 3.25 19.9 3.2 19.15 3.1 18.4 3.55 17.65 L3.8 17.5 3.9 17.45 Q4.9 17.45 5.6 17.8 6.55 18.3 7.0 19.45 L7.0 19.25 7.3 18.25 7.1 17.2 6.75 16.7 Q5.9 15.95 5.5 15.05 L5.05 13.55 5.05 12.8 Q5.1 11.95 5.55 11.25 5.85 10.75 6.4 10.7 L7.8 10.8 Q8.2 11.15 8.6 11.45 L8.9 12.2 8.95 12.4 9.65 10.8 9.45 10.15 9.05 9.7 9.0 9.6 8.95 9.55 8.35 9.1 7.95 8.45 7.55 7.35 Q7.4 6.65 7.65 6.1 7.95 5.35 8.8 4.9 L9.4 4.45 Q10.45 3.3 10.2 1.65 L10.2 1.35 10.1 0.7 9.55 0.15 8.95 -0.35 Q8.1 -1.0 7.3 -1.6 L6.9 -1.8 4.95 -2.35 Q3.75 -2.35 2.6 -2.35 0.75 -2.3 -1.1 -2.3 L-1.6 -2.3 -3.0 -2.3 -5.4 -2.3 -5.7 -2.3 -6.55 -2.15 Q-7.8 -1.85 -8.85 -0.95 L-9.15 -0.75 -9.15 -0.75 -9.85 0.0 Q-10.3 0.65 -10.75 1.3 L-10.95 2.45;M-7.05 18.15 L-7.05 18.15 -6.9 19.15 -6.8 19.65 -6.5 21.3 -6.25 19.6 -6.0 19.3 -5.7 19.25 -5.5 19.15 Q-4.4 18.8 -3.9 19.7 L-3.7 20.15 -3.6 20.45 -3.6 20.65 -3.6 21.05 -3.7 22.1 -3.7 22.8 -3.7 22.9 -3.7 23.3 -3.7 23.4 -3.7 23.6 -3.7 24.8 -3.55 25.4 -3.5 25.5 -3.3 26.1 -3.3 26.1 Q-3.1 26.4 -2.9 26.65 L-2.8 26.8 -2.35 26.9 -1.8 27.1 -1.6 27.2 -1.8 26.9 -2.1 26.35 -2.25 25.65 -2.25 25.65 Q-2.5 24.45 -1.6 23.75 -1.3 23.6 -1.05 23.45 L-0.35 23.15 0.4 23.0 1.0 23.05 Q1.85 23.2 2.55 23.9 L2.65 24.0 2.85 24.3 3.05 24.95 3.05 25.85 2.85 26.6 Q2.7 26.95 2.6 27.25 3.0 27.1 3.4 26.95 L4.0 26.6 4.1 26.4 4.4 25.9 4.7 25.45 4.75 25.2 4.75 24.8 4.7 23.6 4.65 23.5 4.55 23.3 4.3 22.9 4.2 22.75 Q3.3 22.05 2.8 21.05 2.7 20.8 2.6 20.55 2.25 19.7 2.25 18.7 L2.3 17.8 2.6 16.4 2.8 16.15 2.95 16.1 3.7 16.0 Q4.5 16.0 5.1 16.4 5.55 16.9 5.95 17.4 6.5 16.9 6.55 16.25 L6.55 15.85 6.55 15.75 Q6.45 15.05 6.35 14.35 6.15 13.6 5.95 12.85 L5.95 12.65 5.55 12.25 5.0 11.5 4.75 11.1 Q4.5 10.3 4.3 9.5 L4.2 8.3 4.2 7.7 Q4.3 7.1 4.4 6.5 4.6 6.15 4.75 5.85 L5.5 5.0 Q5.85 4.7 5.65 4.3 L5.35 3.85 5.25 3.65 4.6 2.8 4.25 2.45 3.85 2.15 3.75 2.05 3.75 2.05 3.35 1.8 2.95 1.7 2.05 1.5 Q1.55 1.4 1.1 1.35 0.5 1.3 -0.1 1.3 L-0.7 1.3 Q-1.9 1.35 -3.1 1.35 L-3.4 1.35 -3.9 1.5 -4.45 1.7 -4.75 1.9 Q-5.45 2.35 -5.85 3.05 L-6.05 3.35 -6.05 4.95 Q-5.85 5.9 -5.25 6.7 -4.35 7.9 -4.25 9.35 L-4.2 9.8 -4.1 11.0 -4.3 12.9 -4.4 13.3 -4.6 13.75 Q-5.2 14.5 -5.75 15.25 L-5.85 15.45 -5.85 15.55 -6.0 16.35 Q-6.1 17.0 -6.5 17.55 L-7.05 18.15"/>
    </path>
    <path d="M-10.95 2.45 L-10.75 1.3 Q-10.3 0.65 -9.85 0.0 L-9.15 -0.75 -9.15 -0.75 -8.85 -0.95 Q-7.8 -1.85 -6.55 -2.15 L-5.7 -2.3 -5.4 -2.3 -3.0 -2.3 -1.6 -2.3 -1.1 -2.3 Q0.75 -2.3 2.6 -2.35 3.75 -2.35 4.95 -2.35 L6.9 -1.8 7.3 -1.6 Q8.1 -1.0 8.95 -0.35 L9.55 0.15 10.1 0.7 10.2 1.35 10.2 1.65 Q10.45 3.3 9.4 4.45 L8.8 4.9 Q7.95 5.35 7.65 6.1 7.4 6.65 7.55 7.35 L7.95 8.45 8.35 9.1 8.95 9.55 9.0 9.6 9.05 9.7 9.45 10.15 9.65 10.8 8.95 12.4 8.9 12.2 8.6 11.45 Q8.2 11.15 7.8 10.8 L6.4 10.7 Q5.85 10.75 5.55 11.25 5.1 11.95 5.05 12.8 L5.05 13.55 5.5 15.05 Q5.9 15.95 6.75 16.7 L7.1 17.2 7.3 18.25 7.0 19.25 7.0 19.45 Q6.55 18.3 5.6 17.8 4.9 17.45 3.9 17.45 L3.8 17.5 3.55 17.65 Q3.1 18.4 3.2 19.15 3.25 19.9 3.85 20.6 3.85 21.5 3.8 22.45 L3.45 23.6 3.25 23.9 3.25 23.4 2.75 21.85 2.15 20.95 Q1.25 20.05 -0.1 20.0 -0.4 19.95 -0.55 20.25 -1.2 21.9 -0.2 23.25 L0.0 23.45 0.35 23.85 0.35 24.15 0.35 24.3 0.35 25.7 0.35 26.3 0.4 26.7 0.4 27.1 -0.3 26.55 -0.3 26.35 -0.4 25.6 Q-0.45 25.05 -0.9 24.75 -1.35 24.45 -1.85 24.4 L-2.75 24.5 -3.65 25.05 -4.0 25.65 -4.2 25.3 -4.2 25.3 Q-5.1 24.15 -3.85 23.3 L-3.3 22.75 -2.95 21.65 -3.05 21.0 Q-3.2 20.6 -3.65 20.35 -4.95 20.25 -6.3 20.15 L-6.2 19.95 -5.65 19.1 -4.9 18.45 -4.2 17.95 -4.0 17.65 -3.7 16.75 -3.7 16.2 -3.75 16.0 Q-3.9 15.6 -4.2 15.3 L-4.3 15.2 -5.3 15.1 -5.3 15.1 -6.05 15.45 -7.35 16.2 -7.35 15.95 -7.3 15.85 -7.1 15.4 -7.05 15.3 -6.6 14.35 -6.35 12.9 -6.3 12.6 -6.2 12.35 -6.1 11.95 -5.95 11.25 Q-5.85 9.9 -6.5 8.8 L-6.8 8.4 -7.0 8.3 -7.6 7.8 -9.05 6.35 -10.65 4.3 -10.85 3.8 -10.95 2.65 -10.95 2.45" fill="none" stroke="#000000" stroke-linecap="round" stroke-linejoin="round" stroke-opacity="0.0" stroke-width="1.0">
      <animate attributeName="stroke" dur="2s" repeatCount="indefinite" values="#000000;#000001"/>
      <animate attributeName="stroke-width" dur="2s" repeatCount="indefinite" values="0.0;0.0"/>
      <animate attributeName="fill-opacity" dur="2s" repeatCount="indefinite" values="0.0;0.0"/>
      <animate attributeName="d" dur="2s" repeatCount="indefinite" values="M-10.95 2.45 L-10.75 1.3 Q-10.3 0.65 -9.85 0.0 L-9.15 -0.75 -9.15 -0.75 -8.85 -0.95 Q-7.8 -1.85 -6.55 -2.15 L-5.7 -2.3 -5.4 -2.3 -3.0 -2.3 -1.6 -2.3 -1.1 -2.3 Q0.75 -2.3 2.6 -2.35 3.75 -2.35 4.95 -2.35 L6.9 -1.8 7.3 -1.6 Q8.1 -1.0 8.95 -0.35 L9.55 0.15 10.1 0.7 10.2 1.35 10.2 1.65 Q10.45 3.3 9.4 4.45 L8.8 4.9 Q7.95 5.35 7.65 6.1 7.4 6.65 7.55 7.35 L7.95 8.45 8.35 9.1 8.95 9.55 9.0 9.6 9.05 9.7 9.45 10.15 9.65 10.8 8.95 12.4 8.9 12.2 8.6 11.45 Q8.2 11.15 7.8 10.8 L6.4 10.7 Q5.85 10.75 5.55 11.25 5.1 11.95 5.05 12.8 L5.05 13.55 5.5 15.05 Q5.9 15.95 6.75 16.7 L7.1 17.2 7.3 18.25 7.0 19.25 7.0 19.45 Q6.55 18.3 5.6 17.8 4.9 17.45 3.9 17.45 L3.8 17.5 3.55 17.65 Q3.1 18.4 3.2 19.15 3.25 19.9 3.85 20.6 3.85 21.5 3.8 22.45 L3.45 23.6 3.25 23.9 3.25 23.4 2.75 21.85 2.15 20.95 Q1.25 20.05 -0.1 20.0 -0.4 19.95 -0.55 20.25 -1.2 21.9 -0.2 23.25 L0.0 23.45 0.35 23.85 0.35 24.15 0.35 24.3 0.35 25.7 0.35 26.3 0.4 26.7 0.4 27.1 -0.3 26.55 -0.3 26.35 -0.4 25.6 Q-0.45 25.05 -0.9 24.75 -1.35 24.45 -1.85 24.4 L-2.75 24.5 -3.65 25.05 -4.0 25.65 -4.2 25.3 -4.2 25.3 Q-5.1 24.15 -3.85 23.3 L-3.3 22.75 -2.95 21.65 -3.05 21.0 Q-3.2 20.6 -3.65 20.35 -4.95 20.25 -6.3 20.15 L-6.2 19.95 -5.65 19.1 -4.9 18.45 -4.2 17.95 -4.0 17.65 -3.7 16.75 -3.7 16.2 -3.75 16.0 Q-3.9 15.6 -4.2 15.3 L-4.3 15.2 -5.3 15.1 -5.3 15.1 -6.05 15.45 -7.35 16.2 -7.35 15.95 -7.3 15.85 -7.1 15.4 -7.05 15.3 -6.6 14.35 -6.35 12.9 -6.3 12.6 -6.2 12.35 -6.1 11.95 -5.95 11.25 Q-5.85 9.9 -6.5 8.8 L-6.8 8.4 -7.0 8.3 -7.6 7.8 -9.05 6.35 -10.65 4.3 -10.85 3.8 -10.95 2.65 -10.95 2.45;M-7.05 18.15 L-6.5 17.55 Q-6.1 17.0 -6.0 16.35 L-5.85 15.55 -5.85 15.45 -5.75 15.25 Q-5.2 14.5 -4.6 13.75 L-4.4 13.3 -4.3 12.9 -4.1 11.0 -4.2 9.8 -4.25 9.35 Q-4.35 7.9 -5.25 6.7 -5.85 5.9 -6.05 4.95 L-6.05 3.35 -5.85 3.05 Q-5.45 2.35 -4.75 1.9 L-4.45 1.7 -3.9 1.5 -3.4 1.35 -3.1 1.35 Q-1.9 1.35 -0.7 1.3 L-0.1 1.3 Q0.5 1.3 1.1 1.35 1.55 1.4 2.05 1.5 L2.95 1.7 3.35 1.8 3.75 2.05 3.75 2.05 3.85 2.15 4.25 2.45 4.6 2.8 5.25 3.65 5.35 3.85 5.65 4.3 Q5.85 4.7 5.5 5.0 L4.75 5.85 Q4.6 6.15 4.4 6.5 4.3 7.1 4.2 7.7 L4.2 8.3 4.3 9.5 Q4.5 10.3 4.75 11.1 L5.0 11.5 5.55 12.25 5.95 12.65 5.95 12.85 Q6.15 13.6 6.35 14.35 6.45 15.05 6.55 15.75 L6.55 15.85 6.55 16.25 Q6.5 16.9 5.95 17.4 5.55 16.9 5.1 16.4 4.5 16.0 3.7 16.0 L2.95 16.1 2.8 16.15 2.6 16.4 2.3 17.8 2.25 18.7 Q2.25 19.7 2.6 20.55 2.7 20.8 2.8 21.05 3.3 22.05 4.2 22.75 L4.3 22.9 4.55 23.3 4.65 23.5 4.7 23.6 4.75 24.8 4.75 25.2 4.7 25.45 4.4 25.9 4.1 26.4 4.0 26.6 3.4 26.95 Q3.0 27.1 2.6 27.25 2.7 26.95 2.85 26.6 L3.05 25.85 3.05 24.95 2.85 24.3 2.65 24.0 2.55 23.9 Q1.85 23.2 1.0 23.05 L0.4 23.0 -0.35 23.15 -1.05 23.45 Q-1.3 23.6 -1.6 23.75 -2.5 24.45 -2.25 25.65 L-2.25 25.65 -2.1 26.35 -1.8 26.9 -1.6 27.2 -1.8 27.1 -2.35 26.9 -2.8 26.8 -2.9 26.65 Q-3.1 26.4 -3.3 26.1 L-3.3 26.1 -3.5 25.5 -3.55 25.4 -3.7 24.8 -3.7 23.6 -3.7 23.4 -3.7 23.3 -3.7 22.9 -3.7 22.8 -3.7 22.1 -3.6 21.05 -3.6 20.65 -3.6 20.45 -3.7 20.15 -3.9 19.7 Q-4.4 18.8 -5.5 19.15 L-5.7 19.25 -6.0 19.3 -6.25 19.6 -6.5 21.3 -6.8 19.65 -6.9 19.15 -7.05 18.15 -7.05 18.15"/>
    </path>
  </g>
  <defs>
    <radialGradient cx="0" cy="0" gradientTransform="matrix(0.0351, 0.0, 0.0, 0.0351, 1.0, -0.75)" gradientUnits="userSpaceOnUse" id="gradient0" r="819.2" spreadMethod="pad">
      <animateTransform additive="replace" attributeName="gradientTransform" dur="2s" from="1" repeatCount="indefinite" to="1" type="scale"/>
      <animateTransform additive="sum" attributeName="gradientTransform" dur="2s" from="1.0 -0.75" repeatCount="indefinite" to="1.0 -0.75" type="translate"/>
      <animateTransform additive="sum" attributeName="gradientTransform" dur="2s" from="0.0" repeatCount="indefinite" to="0.0" type="rotate"/>
      <animateTransform additive="sum" attributeName="gradientTransform" dur="2s" from="0.0351 0.0351" repeatCount="indefinite" to="0.0351 0.0351" type="scale"/>
      <animateTransform additive="sum" attributeName="gradientTransform" dur="2s" from="0.0" repeatCount="indefinite" to="0.0" type="skewX"/>
      <stop offset="0.0" stop-color="#fefe0c" stop-opacity="0.9019608">
        <animate attributeName="offset" dur="2s" repeatCount="indefinite" values="0.0;0.0"/>
        <animate attributeName="stop-color" dur="2s" repeatCount="indefinite" values="#fefe0c;#fefe0d"/>
        <animate attributeName="stop-opacity" dur="2s" repeatCount="indefinite" values="0.9019608;0.9019608"/>
      </stop>
      <stop offset="0.5764705882352941" stop-color="#ffba2b" stop-opacity="0.9019608">
        <animate attributeName="offset" dur="2s" repeatCount="indefinite" values="0.5764705882352941;0.5764705882352941"/>
        <animate attributeName="stop-color" dur="2s" repeatCount="indefinite" values="#ffba2b;#ffba2c"/>
        <animate attributeName="stop-opacity" dur="2s" repeatCount="indefinite" values="0.9019608;0.9019608"/>
      </stop>
      <stop offset="1.0" stop-color="#ff720b" stop-opacity="0.9019608">
        <animate attributeName="offset" dur="2s" repeatCount="indefinite" values="1.0;1.0"/>
        <animate attributeName="stop-color" dur="2s" repeatCount="indefinite" values="#ff720b;#ff720c"/>
        <animate attributeName="stop-opacity" dur="2s" repeatCount="indefinite" values="0.9019608;0.9019608"/>
      </stop>
    </radialGradient>
  </defs>
</svg>
