<?xml version="1.0" encoding="UTF-8" standalone="no"?>
<svg xmlns:xlink="http://www.w3.org/1999/xlink" height="26.0px" width="13.6px" xmlns="http://www.w3.org/2000/svg">
  <g transform="matrix(1.0, 0.0, 0.0, 1.0, 7.05, -1.25)">
    <path d="M-7.05 18.15 L-7.05 18.15 -6.5 21.3 -6.25 19.6 -6.0 19.3 Q-4.2 18.45 -3.7 20.15 L-3.6 20.85 -3.7 24.8 -3.55 25.4 Q-3.35 25.7 -3.3 26.1 L-2.9 26.65 -2.8 26.8 -2.25 27.0 -1.6 27.2 -2.25 25.65 Q-2.55 24.15 -1.05 23.45 1.05 22.45 2.55 23.9 3.0 24.3 3.05 24.95 3.15 25.8 2.85 26.6 L2.5 27.25 4.0 26.6 4.7 25.45 4.75 25.2 4.7 23.6 4.65 23.5 4.3 22.9 4.2 22.75 Q2.25 21.2 2.25 18.7 2.25 17.5 2.6 16.4 L2.95 16.1 3.7 16.0 Q5.2 16.0 5.95 17.4 6.65 16.8 6.55 15.85 L6.55 15.75 6.35 14.35 Q5.9 13.4 5.95 12.65 4.55 11.4 4.3 9.5 L4.2 7.7 Q4.2 6.45 5.0 5.5 L5.5 5.0 Q5.85 4.7 5.65 4.3 4.9 2.7 3.35 1.8 L1.1 1.35 Q-1.15 1.2 -3.4 1.35 L-4.45 1.7 Q-5.5 2.3 -6.05 3.35 -6.35 5.25 -5.25 6.7 -4.35 7.9 -4.25 9.35 L-4.2 9.8 -4.1 11.0 -4.4 13.3 -4.6 13.75 -5.75 15.25 -5.85 15.45 -6.0 16.35 Q-6.2 17.4 -7.05 18.15" fill="url(#gradient0)" fill-rule="evenodd" stroke="none">
      <animate attributeName="d" dur="2s" repeatCount="indefinite" values="M-7.05 18.15 L-7.05 18.15 -6.5 21.3 -6.25 19.6 -6.0 19.3 Q-4.2 18.45 -3.7 20.15 L-3.6 20.85 -3.7 24.8 -3.55 25.4 Q-3.35 25.7 -3.3 26.1 L-2.9 26.65 -2.8 26.8 -2.25 27.0 -1.6 27.2 -2.25 25.65 Q-2.55 24.15 -1.05 23.45 1.05 22.45 2.55 23.9 3.0 24.3 3.05 24.95 3.15 25.8 2.85 26.6 L2.5 27.25 4.0 26.6 4.7 25.45 4.75 25.2 4.7 23.6 4.65 23.5 4.3 22.9 4.2 22.75 Q2.25 21.2 2.25 18.7 2.25 17.5 2.6 16.4 L2.95 16.1 3.7 16.0 Q5.2 16.0 5.95 17.4 6.65 16.8 6.55 15.85 L6.55 15.75 6.35 14.35 Q5.9 13.4 5.95 12.65 4.55 11.4 4.3 9.5 L4.2 7.7 Q4.2 6.45 5.0 5.5 L5.5 5.0 Q5.85 4.7 5.65 4.3 4.9 2.7 3.35 1.8 L1.1 1.35 Q-1.15 1.2 -3.4 1.35 L-4.45 1.7 Q-5.5 2.3 -6.05 3.35 -6.35 5.25 -5.25 6.7 -4.35 7.9 -4.25 9.35 L-4.2 9.8 -4.1 11.0 -4.4 13.3 -4.6 13.75 -5.75 15.25 -5.85 15.45 -6.0 16.35 Q-6.2 17.4 -7.05 18.15;M-0.45 22.45 L-0.05 22.6 0.15 22.6 0.25 22.6 0.25 22.6 Q0.35 22.6 0.4 22.6 L0.4 22.6 0.7 22.6 0.7 22.6 Q0.7 22.6 0.7 22.6 L0.7 22.6 0.7 22.6 0.7 22.6 0.7 22.6 0.7 22.6 Q0.7 22.6 0.7 22.6 0.7 22.45 0.7 22.3 0.7 22.25 0.7 22.2 0.7 22.15 0.7 22.1 L0.7 22.0 0.7 21.9 0.7 21.8 0.7 21.8 0.7 21.7 0.7 21.7 0.7 21.6 0.7 21.6 Q0.7 21.4 0.7 21.2 0.7 21.1 0.7 21.05 L0.7 20.95 0.7 20.85 Q0.7 20.75 0.7 20.65 0.7 20.6 0.7 20.55 L0.7 20.55 0.7 20.5 Q0.6 20.4 0.55 20.35 0.45 20.35 0.4 20.35 L0.3 20.35 Q0.2 20.4 0.1 20.45 L-0.25 20.95 Q-0.25 20.95 -0.25 20.95 -0.3 21.05 -0.35 21.15 L-0.4 21.25 Q-0.45 21.4 -0.45 21.55 L-0.45 21.55 Q-0.45 21.6 -0.45 21.65 -0.45 21.75 -0.45 21.85 -0.45 21.95 -0.45 22.05 L-0.45 22.05 -0.45 22.15 -0.45 22.25 -0.45 22.25 -0.45 22.35 -0.45 22.35 -0.45 22.35 Q-0.45 22.4 -0.45 22.45"/>
    </path>
    <path d="M-7.05 18.15 Q-6.2 17.4 -6.0 16.35 L-5.85 15.45 -5.75 15.25 -4.6 13.75 -4.4 13.3 -4.1 11.0 -4.2 9.8 -4.25 9.35 Q-4.35 7.9 -5.25 6.7 -6.35 5.25 -6.05 3.35 -5.5 2.3 -4.45 1.7 L-3.4 1.35 Q-1.15 1.2 1.1 1.35 L3.35 1.8 Q4.9 2.7 5.65 4.3 5.85 4.7 5.5 5.0 L5.0 5.5 Q4.2 6.45 4.2 7.7 L4.3 9.5 Q4.55 11.4 5.95 12.65 5.9 13.4 6.35 14.35 L6.55 15.75 6.55 15.85 Q6.65 16.8 5.95 17.4 5.2 16.0 3.7 16.0 L2.95 16.1 2.6 16.4 Q2.25 17.5 2.25 18.7 2.25 21.2 4.2 22.75 L4.3 22.9 4.65 23.5 4.7 23.6 4.75 25.2 4.7 25.45 4.0 26.6 2.5 27.25 2.85 26.6 Q3.15 25.8 3.05 24.95 3.0 24.3 2.55 23.9 1.05 22.45 -1.05 23.45 -2.55 24.15 -2.25 25.65 L-1.6 27.2 -2.25 27.0 -2.8 26.8 -2.9 26.65 -3.3 26.1 Q-3.35 25.7 -3.55 25.4 L-3.7 24.8 -3.6 20.85 -3.7 20.15 Q-4.2 18.45 -6.0 19.3 L-6.25 19.6 -6.5 21.3 -7.05 18.15 -7.05 18.15" fill="none" stroke="#000000" stroke-linecap="round" stroke-linejoin="round" stroke-opacity="0.0" stroke-width="1.0">
      <animate attributeName="stroke" dur="2s" repeatCount="indefinite" values="#000000;#000001"/>
      <animate attributeName="stroke-width" dur="2s" repeatCount="indefinite" values="0.0;0.0"/>
      <animate attributeName="fill-opacity" dur="2s" repeatCount="indefinite" values="0.0;0.0"/>
      <animate attributeName="d" dur="2s" repeatCount="indefinite" values="M-7.05 18.15 Q-6.2 17.4 -6.0 16.35 L-5.85 15.45 -5.75 15.25 -4.6 13.75 -4.4 13.3 -4.1 11.0 -4.2 9.8 -4.25 9.35 Q-4.35 7.9 -5.25 6.7 -6.35 5.25 -6.05 3.35 -5.5 2.3 -4.45 1.7 L-3.4 1.35 Q-1.15 1.2 1.1 1.35 L3.35 1.8 Q4.9 2.7 5.65 4.3 5.85 4.7 5.5 5.0 L5.0 5.5 Q4.2 6.45 4.2 7.7 L4.3 9.5 Q4.55 11.4 5.95 12.65 5.9 13.4 6.35 14.35 L6.55 15.75 6.55 15.85 Q6.65 16.8 5.95 17.4 5.2 16.0 3.7 16.0 L2.95 16.1 2.6 16.4 Q2.25 17.5 2.25 18.7 2.25 21.2 4.2 22.75 L4.3 22.9 4.65 23.5 4.7 23.6 4.75 25.2 4.7 25.45 4.0 26.6 2.5 27.25 2.85 26.6 Q3.15 25.8 3.05 24.95 3.0 24.3 2.55 23.9 1.05 22.45 -1.05 23.45 -2.55 24.15 -2.25 25.65 L-1.6 27.2 -2.25 27.0 -2.8 26.8 -2.9 26.65 -3.3 26.1 Q-3.35 25.7 -3.55 25.4 L-3.7 24.8 -3.6 20.85 -3.7 20.15 Q-4.2 18.45 -6.0 19.3 L-6.25 19.6 -6.5 21.3 -7.05 18.15 -7.05 18.15;M-0.45 22.45 Q-0.45 22.4 -0.45 22.35 L-0.45 22.35 -0.45 22.35 -0.45 22.25 -0.45 22.25 -0.45 22.15 -0.45 22.05 -0.45 22.05 Q-0.45 21.95 -0.45 21.85 -0.45 21.75 -0.45 21.65 -0.45 21.6 -0.45 21.55 L-0.45 21.55 Q-0.45 21.4 -0.4 21.25 L-0.35 21.15 Q-0.3 21.05 -0.25 20.95 -0.25 20.95 -0.25 20.95 L0.1 20.45 Q0.2 20.4 0.3 20.35 L0.4 20.35 Q0.45 20.35 0.55 20.35 0.6 20.4 0.7 20.5 L0.7 20.55 0.7 20.55 Q0.7 20.6 0.7 20.65 0.7 20.75 0.7 20.85 L0.7 20.95 0.7 21.05 Q0.7 21.1 0.7 21.2 0.7 21.4 0.7 21.6 L0.7 21.6 0.7 21.7 0.7 21.7 0.7 21.8 0.7 21.8 0.7 21.9 0.7 22.0 0.7 22.1 Q0.7 22.15 0.7 22.2 0.7 22.25 0.7 22.3 0.7 22.45 0.7 22.6 0.7 22.6 0.7 22.6 L0.7 22.6 0.7 22.6 0.7 22.6 0.7 22.6 0.7 22.6 Q0.7 22.6 0.7 22.6 L0.7 22.6 0.4 22.6 0.4 22.6 Q0.35 22.6 0.25 22.6 L0.25 22.6 0.15 22.6 -0.05 22.6 -0.45 22.45"/>
    </path>
  </g>
  <defs>
    <radialGradient cx="0" cy="0" gradientTransform="matrix(0.0351, 0.0, 0.0, 0.0351, 1.0, -0.75)" gradientUnits="userSpaceOnUse" id="gradient0" r="819.2" spreadMethod="pad">
      <animateTransform additive="replace" attributeName="gradientTransform" dur="2s" from="1" repeatCount="indefinite" to="1" type="scale"/>
      <animateTransform additive="sum" attributeName="gradientTransform" dur="2s" from="1.0 -0.75" repeatCount="indefinite" to="1.0 -0.75" type="translate"/>
      <animateTransform additive="sum" attributeName="gradientTransform" dur="2s" from="0.0" repeatCount="indefinite" to="0.0" type="rotate"/>
      <animateTransform additive="sum" attributeName="gradientTransform" dur="2s" from="0.0351 0.0351" repeatCount="indefinite" to="0.0351 0.0351" type="scale"/>
      <animateTransform additive="sum" attributeName="gradientTransform" dur="2s" from="0.0" repeatCount="indefinite" to="0.0" type="skewX"/>
      <stop offset="0.0" stop-color="#fefe0c" stop-opacity="0.9019608">
        <animate attributeName="offset" dur="2s" repeatCount="indefinite" values="0.0;0.0"/>
        <animate attributeName="stop-color" dur="2s" repeatCount="indefinite" values="#fefe0c;#fefe0d"/>
        <animate attributeName="stop-opacity" dur="2s" repeatCount="indefinite" values="0.9019608;0.9019608"/>
      </stop>
      <stop offset="0.5764705882352941" stop-color="#ffba2b" stop-opacity="0.9019608">
        <animate attributeName="offset" dur="2s" repeatCount="indefinite" values="0.5764705882352941;0.5764705882352941"/>
        <animate attributeName="stop-color" dur="2s" repeatCount="indefinite" values="#ffba2b;#ffba2c"/>
        <animate attributeName="stop-opacity" dur="2s" repeatCount="indefinite" values="0.9019608;0.9019608"/>
      </stop>
      <stop offset="1.0" stop-color="#ff720b" stop-opacity="0.9019608">
        <animate attributeName="offset" dur="2s" repeatCount="indefinite" values="1.0;1.0"/>
        <animate attributeName="stop-color" dur="2s" repeatCount="indefinite" values="#ff720b;#ff720c"/>
        <animate attributeName="stop-opacity" dur="2s" repeatCount="indefinite" values="0.9019608;0.9019608"/>
      </stop>
    </radialGradient>
  </defs>
</svg>
