<?xml version="1.0" encoding="UTF-8" standalone="no"?>
<svg xmlns:xlink="http://www.w3.org/1999/xlink" height="23.0px" width="29.75px" xmlns="http://www.w3.org/2000/svg">
  <g transform="matrix(1.0, 0.0, 0.0, 1.0, 14.35, 11.5)">
    <path d="M-11.5 0.0 L-11.5 0.0 Q-11.5 3.7 -9.05 6.45 L-8.15 7.4 Q-4.95 10.3 -0.5 10.5 L0.0 10.5 Q2.65 10.5 4.9 9.5 6.65 8.75 8.1 7.4 L9.05 6.45 Q11.5 3.7 11.5 -0.1 11.45 -4.0 8.1 -7.45 4.75 -10.5 -0.6 -10.5 -5.0 -10.3 -8.8 -6.8 -11.5 -3.9 -11.5 0.0" fill="url(#gradient0)" fill-rule="evenodd" stroke="none">
      <animate attributeName="d" dur="2s" repeatCount="indefinite" values="M-11.5 0.0 L-11.5 0.0 Q-11.5 3.7 -9.05 6.45 L-8.15 7.4 Q-4.95 10.3 -0.5 10.5 L0.0 10.5 Q2.65 10.5 4.9 9.5 6.65 8.75 8.1 7.4 L9.05 6.45 Q11.5 3.7 11.5 -0.1 11.45 -4.0 8.1 -7.45 4.75 -10.5 -0.6 -10.5 -5.0 -10.3 -8.8 -6.8 -11.5 -3.9 -11.5 0.0;M-13.35 -0.9 L-13.35 -0.8 Q-13.3 3.1 -10.0 6.1 L-8.85 7.05 Q-4.85 10.1 0.0 10.1 L0.6 10.1 Q2.8 9.95 5.85 8.8 8.2 7.9 9.75 6.9 L11.0 5.95 Q14.4 2.85 14.4 -1.05 14.4 -5.4 10.25 -9.05 7.7 -10.45 0.0 -10.5 -6.55 -10.5 -10.0 -8.35 -13.35 -5.3 -13.35 -0.9"/>
    </path>
    <path d="M-11.5 0.0 Q-11.5 -3.9 -8.8 -6.8 -5.0 -10.3 -0.6 -10.5 4.75 -10.5 8.1 -7.45 11.45 -4.0 11.5 -0.1 11.5 3.7 9.05 6.45 L8.1 7.4 Q6.65 8.75 4.9 9.5 2.65 10.5 0.0 10.5 L-0.5 10.5 Q-4.95 10.3 -8.15 7.4 L-9.05 6.45 Q-11.5 3.7 -11.5 0.0 -11.5 -3.9 -8.8 -6.8 -5.0 -10.3 -0.6 -10.5 4.75 -10.5 8.1 -7.45 11.45 -4.0 11.5 -0.1 11.5 3.7 9.05 6.45 L8.1 7.4 Q6.65 8.75 4.9 9.5 2.65 10.5 0.0 10.5 L-0.5 10.5 Q-4.95 10.3 -8.15 7.4 L-9.05 6.45 Q-11.5 3.7 -11.5 0.0 L-11.5 0.0" fill="none" stroke="#000000" stroke-linecap="round" stroke-linejoin="round" stroke-width="2.0">
      <animate attributeName="stroke" dur="2s" repeatCount="indefinite" values="#000000;#000001"/>
      <animate attributeName="stroke-width" dur="2s" repeatCount="indefinite" values="2.0;2.0"/>
      <animate attributeName="fill-opacity" dur="2s" repeatCount="indefinite" values="1.0;1.0"/>
      <animate attributeName="d" dur="2s" repeatCount="indefinite" values="M-11.5 0.0 Q-11.5 -3.9 -8.8 -6.8 -5.0 -10.3 -0.6 -10.5 4.75 -10.5 8.1 -7.45 11.45 -4.0 11.5 -0.1 11.5 3.7 9.05 6.45 L8.1 7.4 Q6.65 8.75 4.9 9.5 2.65 10.5 0.0 10.5 L-0.5 10.5 Q-4.95 10.3 -8.15 7.4 L-9.05 6.45 Q-11.5 3.7 -11.5 0.0 -11.5 -3.9 -8.8 -6.8 -5.0 -10.3 -0.6 -10.5 4.75 -10.5 8.1 -7.45 11.45 -4.0 11.5 -0.1 11.5 3.7 9.05 6.45 L8.1 7.4 Q6.65 8.75 4.9 9.5 2.65 10.5 0.0 10.5 L-0.5 10.5 Q-4.95 10.3 -8.15 7.4 L-9.05 6.45 Q-11.5 3.7 -11.5 0.0 L-11.5 0.0;M-13.35 -0.9 Q-13.35 -5.3 -10.0 -8.35 -6.55 -10.5 0.0 -10.5 7.7 -10.45 10.25 -9.05 14.4 -5.4 14.4 -1.05 14.4 2.85 11.0 5.95 L9.75 6.9 Q8.2 7.9 5.85 8.8 2.8 9.95 0.6 10.1 L0.0 10.1 Q-4.85 10.1 -8.85 7.05 L-10.0 6.1 Q-13.3 3.1 -13.35 -0.8 -13.35 -5.3 -10.0 -8.35 -6.55 -10.5 0.0 -10.5 7.7 -10.45 10.25 -9.05 14.4 -5.4 14.4 -1.05 14.4 2.85 11.0 5.95 L9.75 6.9 Q8.2 7.9 5.85 8.8 2.8 9.95 0.6 10.1 L0.0 10.1 Q-4.85 10.1 -8.85 7.05 L-10.0 6.1 Q-13.3 3.1 -13.35 -0.8 L-13.35 -0.9"/>
    </path>
  </g>
  <defs>
    <radialGradient cx="0" cy="0" gradientTransform="matrix(0.0221, -0.0108, 0.0074, 0.0151, 3.0, 2.5)" gradientUnits="userSpaceOnUse" id="gradient0" r="819.2" spreadMethod="pad">
      <animateTransform additive="replace" attributeName="gradientTransform" dur="2s" from="1" repeatCount="indefinite" to="1" type="scale"/>
      <animateTransform additive="sum" attributeName="gradientTransform" dur="2s" from="3.0 2.5" repeatCount="indefinite" to="3.0 2.5" type="translate"/>
      <animateTransform additive="sum" attributeName="gradientTransform" dur="2s" from="-26.0251" repeatCount="indefinite" to="-26.0251" type="rotate"/>
      <animateTransform additive="sum" attributeName="gradientTransform" dur="2s" from="0.0246 0.0168" repeatCount="indefinite" to="0.0246 0.0168" type="scale"/>
      <animateTransform additive="sum" attributeName="gradientTransform" dur="2s" from="0.003" repeatCount="indefinite" to="0.003" type="skewX"/>
      <stop offset="0.0" stop-color="#0d2f93">
        <animate attributeName="offset" dur="2s" repeatCount="indefinite" values="0.0;0.0"/>
        <animate attributeName="stop-color" dur="2s" repeatCount="indefinite" values="#0d2f93;#0d2f94"/>
        <animate attributeName="stop-opacity" dur="2s" repeatCount="indefinite" values="1.0;1.0"/>
      </stop>
      <stop offset="0.5764705882352941" stop-color="#358bf4">
        <animate attributeName="offset" dur="2s" repeatCount="indefinite" values="0.5764705882352941;0.5764705882352941"/>
        <animate attributeName="stop-color" dur="2s" repeatCount="indefinite" values="#358bf4;#358bf5"/>
        <animate attributeName="stop-opacity" dur="2s" repeatCount="indefinite" values="1.0;1.0"/>
      </stop>
      <stop offset="1.0" stop-color="#ffffff">
        <animate attributeName="offset" dur="2s" repeatCount="indefinite" values="1.0;1.0"/>
        <animate attributeName="stop-color" dur="2s" repeatCount="indefinite" values="#ffffff;#ffffff"/>
        <animate attributeName="stop-opacity" dur="2s" repeatCount="indefinite" values="1.0;1.0"/>
      </stop>
    </radialGradient>
  </defs>
</svg>
