<?xml version="1.0" encoding="UTF-8" standalone="no"?>
<svg xmlns:xlink="http://www.w3.org/1999/xlink" height="9.55px" width="10.65px" xmlns="http://www.w3.org/2000/svg">
  <g transform="matrix(1.0, 0.0, 0.0, 1.0, 5.35, 4.75)">
    <path d="M-3.3 0.0 L-3.3 0.0 Q-3.2 0.75 -3.15 1.5 -2.85 2.15 -2.6 2.8 L-2.35 3.2 Q-1.65 4.15 -0.8 4.45 L0.0 4.55 Q0.9 4.55 1.6 3.95 L2.35 3.2 Q2.7 2.5 3.05 1.85 3.35 1.0 3.3 -0.8 3.05 -1.65 2.85 -2.45 2.45 -3.05 2.05 -3.6 1.2 -4.55 0.0 -4.5 -1.1 -4.55 -1.95 -3.7 L-3.0 -1.95 -3.3 0.0" fill="url(#gradient0)" fill-rule="evenodd" stroke="none">
      <animate attributeName="d" dur="2s" repeatCount="indefinite" values="M-3.3 0.0 L-3.3 0.0 Q-3.2 0.75 -3.15 1.5 -2.85 2.15 -2.6 2.8 L-2.35 3.2 Q-1.65 4.15 -0.8 4.45 L0.0 4.55 Q0.9 4.55 1.6 3.95 L2.35 3.2 Q2.7 2.5 3.05 1.85 3.35 1.0 3.3 -0.8 3.05 -1.65 2.85 -2.45 2.45 -3.05 2.05 -3.6 1.2 -4.55 0.0 -4.5 -1.1 -4.55 -1.95 -3.7 L-3.0 -1.95 -3.3 0.0;M-4.9 -2.85 L-4.95 -2.75 Q-5.3 -2.4 -4.75 -1.5 -4.0 -0.4 -4.0 0.0 L-3.95 0.6 Q-3.75 1.7 -2.8 2.55 L-2.05 3.1 Q-1.15 3.65 0.0 3.65 L1.35 3.45 Q2.2 3.15 2.85 2.55 3.7 1.75 4.0 0.0 4.0 -0.4 4.8 -1.65 5.15 -2.25 5.0 -3.1 3.8 -3.15 2.6 -3.2 1.25 -2.95 -0.05 -2.75 L-2.6 -3.1 -4.9 -2.85"/>
    </path>
    <path d="M-3.3 0.0 L-3.0 -1.95 -1.95 -3.7 Q-1.1 -4.55 0.0 -4.5 1.2 -4.55 2.05 -3.6 2.45 -3.05 2.85 -2.45 3.05 -1.65 3.3 -0.8 3.35 1.0 3.05 1.85 2.7 2.5 2.35 3.2 L1.6 3.95 Q0.9 4.55 0.0 4.55 L-0.8 4.45 Q-1.65 4.15 -2.35 3.2 L-2.6 2.8 Q-2.85 2.15 -3.15 1.5 -3.2 0.75 -3.3 0.0 L-3.0 -1.95 -1.95 -3.7 Q-1.1 -4.55 0.0 -4.5 1.2 -4.55 2.05 -3.6 2.45 -3.05 2.85 -2.45 3.05 -1.65 3.3 -0.8 3.35 1.0 3.05 1.85 2.7 2.5 2.35 3.2 L1.6 3.95 Q0.9 4.55 0.0 4.55 L-0.8 4.45 Q-1.65 4.15 -2.35 3.2 L-2.6 2.8 Q-2.85 2.15 -3.15 1.5 -3.2 0.75 -3.3 0.0 L-3.3 0.0" fill="none" stroke="#000000" stroke-linecap="round" stroke-linejoin="round" stroke-width="0.5">
      <animate attributeName="stroke" dur="2s" repeatCount="indefinite" values="#000000;#000001"/>
      <animate attributeName="stroke-width" dur="2s" repeatCount="indefinite" values="0.5;0.5"/>
      <animate attributeName="fill-opacity" dur="2s" repeatCount="indefinite" values="1.0;1.0"/>
      <animate attributeName="d" dur="2s" repeatCount="indefinite" values="M-3.3 0.0 L-3.0 -1.95 -1.95 -3.7 Q-1.1 -4.55 0.0 -4.5 1.2 -4.55 2.05 -3.6 2.45 -3.05 2.85 -2.45 3.05 -1.65 3.3 -0.8 3.35 1.0 3.05 1.85 2.7 2.5 2.35 3.2 L1.6 3.95 Q0.9 4.55 0.0 4.55 L-0.8 4.45 Q-1.65 4.15 -2.35 3.2 L-2.6 2.8 Q-2.85 2.15 -3.15 1.5 -3.2 0.75 -3.3 0.0 L-3.0 -1.95 -1.95 -3.7 Q-1.1 -4.55 0.0 -4.5 1.2 -4.55 2.05 -3.6 2.45 -3.05 2.85 -2.45 3.05 -1.65 3.3 -0.8 3.35 1.0 3.05 1.85 2.7 2.5 2.35 3.2 L1.6 3.95 Q0.9 4.55 0.0 4.55 L-0.8 4.45 Q-1.65 4.15 -2.35 3.2 L-2.6 2.8 Q-2.85 2.15 -3.15 1.5 -3.2 0.75 -3.3 0.0 L-3.3 0.0;M-4.9 -2.85 L-2.6 -3.1 -0.05 -2.75 Q1.25 -2.95 2.6 -3.2 3.8 -3.15 5.0 -3.1 5.15 -2.25 4.8 -1.65 4.0 -0.4 4.0 0.0 3.7 1.75 2.85 2.55 2.2 3.15 1.35 3.45 L0.0 3.65 Q-1.15 3.65 -2.05 3.1 L-2.8 2.55 Q-3.75 1.7 -3.95 0.6 L-4.0 0.0 Q-4.0 -0.4 -4.75 -1.5 -5.3 -2.4 -4.95 -2.75 L-2.6 -3.1 -0.05 -2.75 Q1.25 -2.95 2.6 -3.2 3.8 -3.15 5.0 -3.1 5.15 -2.25 4.8 -1.65 4.0 -0.4 4.0 0.0 3.7 1.75 2.85 2.55 2.2 3.15 1.35 3.45 L0.0 3.65 Q-1.15 3.65 -2.05 3.1 L-2.8 2.55 Q-3.75 1.7 -3.95 0.6 L-4.0 0.0 Q-4.0 -0.4 -4.75 -1.5 -5.3 -2.4 -4.95 -2.75 L-4.9 -2.85"/>
    </path>
  </g>
  <defs>
    <radialGradient cx="0" cy="0" gradientTransform="matrix(0.0064, -0.0047, 0.0021, 0.0065, 0.9, 1.1)" gradientUnits="userSpaceOnUse" id="gradient0" r="819.2" spreadMethod="pad">
      <animateTransform additive="replace" attributeName="gradientTransform" dur="2s" from="1" repeatCount="indefinite" to="1" type="scale"/>
      <animateTransform additive="sum" attributeName="gradientTransform" dur="2s" from="0.9 1.1" repeatCount="indefinite" to="1.1 0.9" type="translate"/>
      <animateTransform additive="sum" attributeName="gradientTransform" dur="2s" from="-36.2063" repeatCount="indefinite" to="-26.0146" type="rotate"/>
      <animateTransform additive="sum" attributeName="gradientTransform" dur="2s" from="0.0079 0.0065" repeatCount="indefinite" to="0.0085 0.0058" type="scale"/>
      <animateTransform additive="sum" attributeName="gradientTransform" dur="2s" from="-15.1077" repeatCount="indefinite" to="0.1003" type="skewX"/>
      <stop offset="0.0" stop-color="#4f2679">
        <animate attributeName="offset" dur="2s" repeatCount="indefinite" values="0.0;0.0"/>
        <animate attributeName="stop-color" dur="2s" repeatCount="indefinite" values="#4f2679;#4f267a"/>
        <animate attributeName="stop-opacity" dur="2s" repeatCount="indefinite" values="1.0;1.0"/>
      </stop>
      <stop offset="0.5764705882352941" stop-color="#d24bde">
        <animate attributeName="offset" dur="2s" repeatCount="indefinite" values="0.5764705882352941;0.5764705882352941"/>
        <animate attributeName="stop-color" dur="2s" repeatCount="indefinite" values="#d24bde;#d24bdf"/>
        <animate attributeName="stop-opacity" dur="2s" repeatCount="indefinite" values="1.0;1.0"/>
      </stop>
      <stop offset="1.0" stop-color="#ffffff">
        <animate attributeName="offset" dur="2s" repeatCount="indefinite" values="1.0;1.0"/>
        <animate attributeName="stop-color" dur="2s" repeatCount="indefinite" values="#ffffff;#ffffff"/>
        <animate attributeName="stop-opacity" dur="2s" repeatCount="indefinite" values="1.0;1.0"/>
      </stop>
    </radialGradient>
  </defs>
</svg>
