<?xml version="1.0" encoding="UTF-8" standalone="no"?>
<svg xmlns:xlink="http://www.w3.org/1999/xlink" height="13.0px" width="9.45px" xmlns="http://www.w3.org/2000/svg">
  <g transform="matrix(1.0, 0.0, 0.0, 1.0, 3.7, 10.25)">
    <path d="M-1.85 0.7 L-1.85 0.7 -1.85 1.5 -1.35 1.7 -1.25 1.7 -1.15 1.7 -0.65 1.75 Q0.05 1.8 0.7 1.8 L0.8 1.8 0.8 1.8 Q0.95 1.5 1.1 1.2 1.3 0.65 1.45 0.15 L1.45 -0.05 1.55 -0.25 1.55 -0.55 1.55 -0.55 1.6 -0.85 1.65 -1.15 Q1.75 -1.7 1.8 -2.25 L1.9 -2.75 2.0 -3.35 2.0 -3.75 2.0 -3.95 2.0 -4.15 1.9 -4.2 1.8 -4.3 1.75 -4.3 1.55 -4.1 1.35 -3.9 1.15 -3.65 1.15 -3.65 1.05 -3.55 0.85 -3.35 0.65 -3.15 0.55 -3.05 0.45 -2.95 0.25 -2.85 -0.05 -2.55 -0.15 -2.45 Q-0.4 -2.25 -0.65 -2.05 L-0.9 -1.85 -1.05 -1.65 -1.15 -1.65 -1.5 -1.2 -1.6 -1.1 -1.7 -1.0 -1.8 -0.9 -1.85 -0.7 -1.85 -0.6 -1.85 -0.3 -1.85 0.0 -1.85 0.4 -1.85 0.7" fill="url(#gradient0)" fill-rule="evenodd" stroke="none">
      <animate attributeName="d" dur="2s" repeatCount="indefinite" values="M-1.85 0.7 L-1.85 0.7 -1.85 1.5 -1.35 1.7 -1.25 1.7 -1.15 1.7 -0.65 1.75 Q0.05 1.8 0.7 1.8 L0.8 1.8 0.8 1.8 Q0.95 1.5 1.1 1.2 1.3 0.65 1.45 0.15 L1.45 -0.05 1.55 -0.25 1.55 -0.55 1.55 -0.55 1.6 -0.85 1.65 -1.15 Q1.75 -1.7 1.8 -2.25 L1.9 -2.75 2.0 -3.35 2.0 -3.75 2.0 -3.95 2.0 -4.15 1.9 -4.2 1.8 -4.3 1.75 -4.3 1.55 -4.1 1.35 -3.9 1.15 -3.65 1.15 -3.65 1.05 -3.55 0.85 -3.35 0.65 -3.15 0.55 -3.05 0.45 -2.95 0.25 -2.85 -0.05 -2.55 -0.15 -2.45 Q-0.4 -2.25 -0.65 -2.05 L-0.9 -1.85 -1.05 -1.65 -1.15 -1.65 -1.5 -1.2 -1.6 -1.1 -1.7 -1.0 -1.8 -0.9 -1.85 -0.7 -1.85 -0.6 -1.85 -0.3 -1.85 0.0 -1.85 0.4 -1.85 0.7;M-3.7 -3.8 L-3.7 -3.4 -3.65 -1.25 -3.5 0.3 -3.4 0.6 -3.35 0.75 -2.4 1.9 Q-0.75 2.8 1.05 2.75 L1.3 2.7 1.5 2.6 Q2.15 2.1 2.95 1.8 3.9 0.7 4.3 -0.7 L4.4 -1.0 4.45 -1.35 4.65 -2.1 4.7 -2.15 4.65 -2.9 4.55 -4.0 Q4.45 -5.5 5.75 -6.3 L5.6 -7.6 4.25 -6.8 3.2 -6.85 3.15 -7.25 3.15 -7.75 3.3 -7.9 3.4 -8.05 3.5 -8.15 3.55 -8.25 3.55 -9.35 3.55 -10.15 3.55 -10.25 3.4 -10.15 3.15 -9.75 2.45 -9.3 2.25 -9.2 2.1 -8.9 1.7 -8.75 0.85 -7.9 0.65 -7.75 Q0.4 -7.05 0.5 -6.25 L0.45 -5.3 0.3 -4.9 0.2 -4.75 -1.25 -4.85 -1.25 -5.15 -1.3 -5.85 -1.25 -6.25 -1.25 -6.55 -1.25 -6.75 -1.9 -6.3 -2.6 -5.7 -3.2 -4.55 -3.7 -3.8"/>
    </path>
    <path d="M-1.85 0.7 L-1.85 0.4 -1.85 0.0 -1.85 -0.3 -1.85 -0.6 -1.85 -0.7 -1.8 -0.9 -1.7 -1.0 -1.6 -1.1 -1.5 -1.2 -1.15 -1.65 -1.05 -1.65 -0.9 -1.85 -0.65 -2.05 Q-0.4 -2.25 -0.15 -2.45 L-0.05 -2.55 0.25 -2.85 0.45 -2.95 0.55 -3.05 0.65 -3.15 0.85 -3.35 1.05 -3.55 1.15 -3.65 1.15 -3.65 1.35 -3.9 1.55 -4.1 1.75 -4.3 1.8 -4.3 1.9 -4.2 2.0 -4.15 2.0 -3.95 2.0 -3.75 2.0 -3.35 1.9 -2.75 1.8 -2.25 Q1.75 -1.7 1.65 -1.15 L1.6 -0.85 1.55 -0.55 1.55 -0.55 1.55 -0.25 1.45 -0.05 1.45 0.15 Q1.3 0.65 1.1 1.2 0.95 1.5 0.8 1.8 L0.8 1.8 0.7 1.8 Q0.05 1.8 -0.65 1.75 L-1.15 1.7 -1.25 1.7 -1.35 1.7 -1.85 1.5 -1.85 0.7 -1.85 0.7" fill="none" stroke="#000000" stroke-linecap="round" stroke-linejoin="round" stroke-opacity="0.0" stroke-width="1.0">
      <animate attributeName="stroke" dur="2s" repeatCount="indefinite" values="#000000;#000001"/>
      <animate attributeName="stroke-width" dur="2s" repeatCount="indefinite" values="0.0;0.0"/>
      <animate attributeName="fill-opacity" dur="2s" repeatCount="indefinite" values="0.0;0.0"/>
      <animate attributeName="d" dur="2s" repeatCount="indefinite" values="M-1.85 0.7 L-1.85 0.4 -1.85 0.0 -1.85 -0.3 -1.85 -0.6 -1.85 -0.7 -1.8 -0.9 -1.7 -1.0 -1.6 -1.1 -1.5 -1.2 -1.15 -1.65 -1.05 -1.65 -0.9 -1.85 -0.65 -2.05 Q-0.4 -2.25 -0.15 -2.45 L-0.05 -2.55 0.25 -2.85 0.45 -2.95 0.55 -3.05 0.65 -3.15 0.85 -3.35 1.05 -3.55 1.15 -3.65 1.15 -3.65 1.35 -3.9 1.55 -4.1 1.75 -4.3 1.8 -4.3 1.9 -4.2 2.0 -4.15 2.0 -3.95 2.0 -3.75 2.0 -3.35 1.9 -2.75 1.8 -2.25 Q1.75 -1.7 1.65 -1.15 L1.6 -0.85 1.55 -0.55 1.55 -0.55 1.55 -0.25 1.45 -0.05 1.45 0.15 Q1.3 0.65 1.1 1.2 0.95 1.5 0.8 1.8 L0.8 1.8 0.7 1.8 Q0.05 1.8 -0.65 1.75 L-1.15 1.7 -1.25 1.7 -1.35 1.7 -1.85 1.5 -1.85 0.7 -1.85 0.7;M-3.7 -3.8 L-3.2 -4.55 -2.6 -5.7 -1.9 -6.3 -1.25 -6.75 -1.25 -6.55 -1.25 -6.25 -1.3 -5.85 -1.25 -5.15 -1.25 -4.85 0.2 -4.75 0.3 -4.9 0.45 -5.3 0.5 -6.25 Q0.4 -7.05 0.65 -7.75 L0.85 -7.9 1.7 -8.75 2.1 -8.9 2.25 -9.2 2.45 -9.3 3.15 -9.75 3.4 -10.15 3.55 -10.25 3.55 -10.15 3.55 -9.35 3.55 -8.25 3.5 -8.15 3.4 -8.05 3.3 -7.9 3.15 -7.75 3.15 -7.25 3.2 -6.85 4.25 -6.8 5.6 -7.6 5.75 -6.3 Q4.45 -5.5 4.55 -4.0 L4.65 -2.9 4.7 -2.15 4.65 -2.1 4.45 -1.35 4.4 -1.0 4.3 -0.7 Q3.9 0.7 2.95 1.8 2.15 2.1 1.5 2.6 L1.3 2.7 1.05 2.75 Q-0.75 2.8 -2.4 1.9 L-3.35 0.75 -3.4 0.6 -3.5 0.3 -3.65 -1.25 -3.7 -3.4 -3.7 -3.8"/>
    </path>
  </g>
  <defs>
    <radialGradient cx="0" cy="0" gradientTransform="matrix(0.0091, -0.0105, 0.0071, 0.0061, -0.3, -0.65)" gradientUnits="userSpaceOnUse" id="gradient0" r="819.2" spreadMethod="pad">
      <animateTransform additive="replace" attributeName="gradientTransform" dur="2s" from="1" repeatCount="indefinite" to="1" type="scale"/>
      <animateTransform additive="sum" attributeName="gradientTransform" dur="2s" from="-0.3 -0.65" repeatCount="indefinite" to="-0.3 -0.65" type="translate"/>
      <animateTransform additive="sum" attributeName="gradientTransform" dur="2s" from="-49.1111" repeatCount="indefinite" to="-49.1111" type="rotate"/>
      <animateTransform additive="sum" attributeName="gradientTransform" dur="2s" from="0.0138 0.0094" repeatCount="indefinite" to="0.0138 0.0094" type="scale"/>
      <animateTransform additive="sum" attributeName="gradientTransform" dur="2s" from="0.0369" repeatCount="indefinite" to="0.0369" type="skewX"/>
      <stop offset="0.0" stop-color="#fefe0c">
        <animate attributeName="offset" dur="2s" repeatCount="indefinite" values="0.0;0.0"/>
        <animate attributeName="stop-color" dur="2s" repeatCount="indefinite" values="#fefe0c;#fefe0d"/>
        <animate attributeName="stop-opacity" dur="2s" repeatCount="indefinite" values="1.0;1.0"/>
      </stop>
      <stop offset="0.5764705882352941" stop-color="#ffba2b">
        <animate attributeName="offset" dur="2s" repeatCount="indefinite" values="0.5764705882352941;0.5764705882352941"/>
        <animate attributeName="stop-color" dur="2s" repeatCount="indefinite" values="#ffba2b;#ffba2c"/>
        <animate attributeName="stop-opacity" dur="2s" repeatCount="indefinite" values="1.0;1.0"/>
      </stop>
      <stop offset="1.0" stop-color="#ff720b">
        <animate attributeName="offset" dur="2s" repeatCount="indefinite" values="1.0;1.0"/>
        <animate attributeName="stop-color" dur="2s" repeatCount="indefinite" values="#ff720b;#ff720c"/>
        <animate attributeName="stop-opacity" dur="2s" repeatCount="indefinite" values="1.0;1.0"/>
      </stop>
    </radialGradient>
  </defs>
</svg>
