<?xml version="1.0" encoding="UTF-8" standalone="no"?>
<svg xmlns:xlink="http://www.w3.org/1999/xlink" height="5.05px" width="10.75px" xmlns="http://www.w3.org/2000/svg">
  <g transform="matrix(1.0, 0.0, 0.0, 1.0, 6.4, -0.7)">
    <path d="M-1.45 1.45 L-1.45 1.7 -1.45 1.7 Q-1.45 1.8 -1.45 1.9 L-1.45 1.9 -1.45 1.9 Q-1.45 2.0 -1.45 2.1 L-1.4 2.4 -1.4 2.4 -1.4 2.4 -1.4 2.4 -1.0 2.65 -0.75 2.75 Q-0.45 2.7 -0.2 2.7 -0.1 2.65 -0.05 2.65 0.0 2.6 0.05 2.6 L0.25 2.5 0.35 2.4 Q0.45 2.3 0.55 2.2 L0.65 2.1 0.65 2.0 0.6 1.8 Q0.45 1.4 0.0 1.35 L-0.1 1.35 -0.1 1.35 -0.1 1.35 -0.1 1.35 -0.1 1.35 -0.2 1.25 -0.2 1.25 Q-0.3 1.2 -0.4 1.15 L-0.4 1.15 -0.4 1.15 Q-0.65 1.1 -0.85 1.1 L-0.85 1.1 -0.95 1.1 Q-1.0 1.15 -1.05 1.2 L-1.05 1.2 Q-1.1 1.2 -1.15 1.2 L-1.15 1.2 Q-1.2 1.25 -1.25 1.3 L-1.3 1.3 -1.3 1.35 -1.4 1.45 -1.4 1.45 -1.45 1.45" fill="#000000" fill-rule="evenodd" stroke="none">
      <animate attributeName="fill" dur="2s" repeatCount="indefinite" values="#000000;#000001"/>
      <animate attributeName="fill-opacity" dur="2s" repeatCount="indefinite" values="1.0;1.0"/>
      <animate attributeName="d" dur="2s" repeatCount="indefinite" values="M-1.45 1.45 L-1.45 1.7 -1.45 1.7 Q-1.45 1.8 -1.45 1.9 L-1.45 1.9 -1.45 1.9 Q-1.45 2.0 -1.45 2.1 L-1.4 2.4 -1.4 2.4 -1.4 2.4 -1.4 2.4 -1.0 2.65 -0.75 2.75 Q-0.45 2.7 -0.2 2.7 -0.1 2.65 -0.05 2.65 0.0 2.6 0.05 2.6 L0.25 2.5 0.35 2.4 Q0.45 2.3 0.55 2.2 L0.65 2.1 0.65 2.0 0.6 1.8 Q0.45 1.4 0.0 1.35 L-0.1 1.35 -0.1 1.35 -0.1 1.35 -0.1 1.35 -0.1 1.35 -0.2 1.25 -0.2 1.25 Q-0.3 1.2 -0.4 1.15 L-0.4 1.15 -0.4 1.15 Q-0.65 1.1 -0.85 1.1 L-0.85 1.1 -0.95 1.1 Q-1.0 1.15 -1.05 1.2 L-1.05 1.2 Q-1.1 1.2 -1.15 1.2 L-1.15 1.2 Q-1.2 1.25 -1.25 1.3 L-1.3 1.3 -1.3 1.35 -1.4 1.45 -1.4 1.45 -1.45 1.45;M-6.4 3.2 L-6.4 3.2 -6.4 3.4 Q-6.25 3.95 -5.7 4.05 L-5.75 4.35 -5.7 4.55 Q-5.3 4.95 -4.7 4.9 L-4.05 4.8 -3.85 4.75 -3.7 4.8 -3.4 4.8 -1.95 4.8 -0.65 5.05 Q0.5 5.7 1.75 5.75 2.2 5.8 2.15 5.3 2.1 4.75 1.75 4.6 L2.7 4.45 3.1 4.4 Q4.4 4.45 4.35 3.35 L4.15 3.15 3.85 3.15 2.95 3.05 Q1.2 3.0 -0.55 3.0 L-0.85 3.15 -1.0 3.3 -1.05 3.4 -1.05 3.5 -1.2 3.5 -1.55 3.5 -1.6 3.45 Q-1.85 3.25 -2.15 3.2 L-2.2 3.2 -2.25 3.15 Q-3.15 2.2 -4.35 2.1 L-4.35 2.05 -4.55 1.6 Q-4.8 1.3 -5.3 1.35 L-5.3 1.25 Q-5.3 0.8 -5.8 0.7 L-6.0 0.75 Q-6.2 0.8 -6.3 1.0 L-6.3 1.6 -6.3 1.8 -6.0 2.8 -6.15 2.9 -6.4 3.2"/>
    </path>
    <path d="M-1.45 1.45 L-1.4 1.45 -1.4 1.45 -1.3 1.35 -1.3 1.3 -1.25 1.3 Q-1.2 1.25 -1.15 1.2 L-1.15 1.2 Q-1.1 1.2 -1.05 1.2 L-1.05 1.2 Q-1.0 1.15 -0.95 1.1 L-0.85 1.1 -0.85 1.1 Q-0.65 1.1 -0.4 1.15 L-0.4 1.15 -0.4 1.15 Q-0.3 1.2 -0.2 1.25 L-0.2 1.25 -0.1 1.35 -0.1 1.35 -0.1 1.35 -0.1 1.35 -0.1 1.35 0.0 1.35 Q0.45 1.4 0.6 1.8 L0.65 2.0 0.65 2.1 0.55 2.2 Q0.45 2.3 0.35 2.4 L0.25 2.5 0.05 2.6 Q0.0 2.6 -0.05 2.65 -0.1 2.65 -0.2 2.7 -0.45 2.7 -0.75 2.75 L-1.0 2.65 -1.4 2.4 -1.4 2.4 -1.4 2.4 -1.4 2.4 -1.45 2.1 Q-1.45 2.0 -1.45 1.9 L-1.45 1.9 -1.45 1.9 Q-1.45 1.8 -1.45 1.7 L-1.45 1.7 -1.45 1.45" fill="none" stroke="#000000" stroke-linecap="round" stroke-linejoin="round" stroke-opacity="0.0" stroke-width="1.0">
      <animate attributeName="stroke" dur="2s" repeatCount="indefinite" values="#000000;#000001"/>
      <animate attributeName="stroke-width" dur="2s" repeatCount="indefinite" values="0.0;0.0"/>
      <animate attributeName="fill-opacity" dur="2s" repeatCount="indefinite" values="0.0;0.0"/>
      <animate attributeName="d" dur="2s" repeatCount="indefinite" values="M-1.45 1.45 L-1.4 1.45 -1.4 1.45 -1.3 1.35 -1.3 1.3 -1.25 1.3 Q-1.2 1.25 -1.15 1.2 L-1.15 1.2 Q-1.1 1.2 -1.05 1.2 L-1.05 1.2 Q-1.0 1.15 -0.95 1.1 L-0.85 1.1 -0.85 1.1 Q-0.65 1.1 -0.4 1.15 L-0.4 1.15 -0.4 1.15 Q-0.3 1.2 -0.2 1.25 L-0.2 1.25 -0.1 1.35 -0.1 1.35 -0.1 1.35 -0.1 1.35 -0.1 1.35 0.0 1.35 Q0.45 1.4 0.6 1.8 L0.65 2.0 0.65 2.1 0.55 2.2 Q0.45 2.3 0.35 2.4 L0.25 2.5 0.05 2.6 Q0.0 2.6 -0.05 2.65 -0.1 2.65 -0.2 2.7 -0.45 2.7 -0.75 2.75 L-1.0 2.65 -1.4 2.4 -1.4 2.4 -1.4 2.4 -1.4 2.4 -1.45 2.1 Q-1.45 2.0 -1.45 1.9 L-1.45 1.9 -1.45 1.9 Q-1.45 1.8 -1.45 1.7 L-1.45 1.7 -1.45 1.45;M-6.4 3.2 L-6.15 2.9 -6.0 2.8 -6.3 1.8 -6.3 1.6 -6.3 1.0 Q-6.2 0.8 -6.0 0.75 L-5.8 0.7 Q-5.3 0.8 -5.3 1.25 L-5.3 1.35 Q-4.8 1.3 -4.55 1.6 L-4.35 2.05 -4.35 2.1 Q-3.15 2.2 -2.25 3.15 L-2.2 3.2 -2.15 3.2 Q-1.85 3.25 -1.6 3.45 L-1.55 3.5 -1.2 3.5 -1.05 3.5 -1.05 3.4 -1.0 3.3 -0.85 3.15 -0.55 3.0 Q1.2 3.0 2.95 3.05 L3.85 3.15 4.15 3.15 4.35 3.35 Q4.4 4.45 3.1 4.4 L2.7 4.45 1.75 4.6 Q2.1 4.75 2.15 5.3 2.2 5.8 1.75 5.75 0.5 5.7 -0.65 5.05 L-1.95 4.8 -3.4 4.8 -3.7 4.8 -3.85 4.75 -4.05 4.8 -4.7 4.9 Q-5.3 4.95 -5.7 4.55 L-5.75 4.35 -5.7 4.05 Q-6.25 3.95 -6.4 3.4 L-6.4 3.2 -6.4 3.2"/>
    </path>
  </g>
</svg>
