<?xml version="1.0" encoding="UTF-8" standalone="no"?>
<svg xmlns:xlink="http://www.w3.org/1999/xlink" height="18.45px" width="14.35px" xmlns="http://www.w3.org/2000/svg">
  <g transform="matrix(1.0, 0.0, 0.0, 1.0, 5.35, 14.4)">
    <path d="M-3.85 -1.7 L-3.85 -1.7 Q-3.8 -0.7 -3.8 0.3 L-3.7 0.7 -3.55 1.4 -3.45 1.6 -3.45 1.8 -3.4 2.0 -2.75 2.65 -2.05 3.05 -1.45 3.35 -0.85 3.35 Q0.3 3.3 1.4 3.3 L1.95 3.1 3.0 2.5 4.0 1.9 4.1 1.8 4.2 1.7 4.4 1.6 4.35 1.35 4.35 1.25 4.45 1.15 4.5 0.95 4.6 0.85 4.7 0.75 4.75 0.65 4.85 0.45 4.9 0.35 4.9 0.25 4.9 0.15 5.0 0.05 5.05 -0.05 5.05 -0.2 5.1 -0.2 5.1 -0.9 5.1 -1.1 5.1 -1.2 Q5.1 -1.45 5.1 -1.7 L4.85 -1.5 4.35 -1.25 4.3 -1.15 4.25 -1.1 4.15 -1.05 Q3.75 -0.9 3.45 -1.2 L3.45 -1.3 3.45 -1.8 3.45 -1.9 3.55 -2.0 3.95 -2.35 4.05 -2.45 4.3 -2.6 4.8 -3.4 4.9 -3.5 5.0 -3.6 5.0 -3.6 5.0 -3.6 5.1 -3.7 5.35 -3.95 5.5 -4.15 5.5 -4.15 5.6 -4.25 5.7 -4.35 5.75 -4.4 5.75 -4.5 5.8 -4.6 5.95 -5.2 6.05 -5.3 6.15 -5.5 6.15 -6.05 6.2 -6.55 6.25 -6.75 6.35 -6.85 6.35 -6.85 6.55 -7.0 6.45 -7.0 6.2 -7.0 6.1 -6.9 Q5.4 -6.65 5.45 -6.0 L5.4 -5.9 5.25 -5.7 5.15 -5.65 5.05 -5.65 4.95 -5.55 4.85 -5.45 4.8 -5.4 4.75 -5.35 4.1 -5.3 3.75 -5.5 3.75 -5.5 3.7 -5.8 3.7 -6.3 3.7 -6.5 3.7 -6.8 3.7 -7.1 3.7 -7.3 3.8 -7.4 3.95 -7.6 3.95 -7.7 4.0 -8.25 4.1 -8.5 4.1 -8.6 4.2 -8.7 4.45 -8.95 4.55 -9.05 5.1 -10.0 5.2 -10.2 5.3 -10.3 5.3 -10.45 5.3 -10.55 5.3 -10.65 5.4 -10.75 5.85 -11.4 5.95 -11.5 5.85 -11.5 5.75 -11.5 5.65 -11.5 5.15 -11.5 Q4.65 -11.35 4.2 -11.0 L3.8 -10.7 3.6 -10.6 Q3.1 -10.3 2.65 -10.0 L2.35 -9.8 1.45 -9.0 1.45 -8.9 1.45 -8.8 1.3 -8.6 1.2 -8.5 1.15 -8.4 1.05 -8.2 1.05 -8.1 1.05 -8.0 1.05 -8.0 1.05 -8.0 1.0 -7.9 1.0 -7.9 0.95 -7.8 0.85 -7.7 0.8 -7.6 0.8 -7.55 0.75 -7.2 0.75 -7.1 0.7 -7.0 0.6 -6.7 0.4 -6.3 0.35 -6.2 0.35 -6.1 Q0.2 -5.6 0.2 -5.1 L0.2 -4.9 0.2 -4.8 0.15 -4.7 0.05 -4.6 -0.65 -4.55 -0.95 -4.7 -0.9 -5.1 -0.9 -5.5 -0.9 -5.9 -0.85 -6.55 -1.15 -6.1 -1.45 -5.8 -1.5 -5.7 -1.9 -5.4 -2.6 -4.8 -3.05 -4.25 -3.15 -4.15 -3.4 -3.65 -3.65 -2.9 -3.7 -2.6 -3.8 -2.05 -3.85 -1.7" fill="url(#gradient0)" fill-rule="evenodd" stroke="none">
      <animate attributeName="d" dur="2s" repeatCount="indefinite" values="M-3.85 -1.7 L-3.85 -1.7 Q-3.8 -0.7 -3.8 0.3 L-3.7 0.7 -3.55 1.4 -3.45 1.6 -3.45 1.8 -3.4 2.0 -2.75 2.65 -2.05 3.05 -1.45 3.35 -0.85 3.35 Q0.3 3.3 1.4 3.3 L1.95 3.1 3.0 2.5 4.0 1.9 4.1 1.8 4.2 1.7 4.4 1.6 4.35 1.35 4.35 1.25 4.45 1.15 4.5 0.95 4.6 0.85 4.7 0.75 4.75 0.65 4.85 0.45 4.9 0.35 4.9 0.25 4.9 0.15 5.0 0.05 5.05 -0.05 5.05 -0.2 5.1 -0.2 5.1 -0.9 5.1 -1.1 5.1 -1.2 Q5.1 -1.45 5.1 -1.7 L4.85 -1.5 4.35 -1.25 4.3 -1.15 4.25 -1.1 4.15 -1.05 Q3.75 -0.9 3.45 -1.2 L3.45 -1.3 3.45 -1.8 3.45 -1.9 3.55 -2.0 3.95 -2.35 4.05 -2.45 4.3 -2.6 4.8 -3.4 4.9 -3.5 5.0 -3.6 5.0 -3.6 5.0 -3.6 5.1 -3.7 5.35 -3.95 5.5 -4.15 5.5 -4.15 5.6 -4.25 5.7 -4.35 5.75 -4.4 5.75 -4.5 5.8 -4.6 5.95 -5.2 6.05 -5.3 6.15 -5.5 6.15 -6.05 6.2 -6.55 6.25 -6.75 6.35 -6.85 6.35 -6.85 6.55 -7.0 6.45 -7.0 6.2 -7.0 6.1 -6.9 Q5.4 -6.65 5.45 -6.0 L5.4 -5.9 5.25 -5.7 5.15 -5.65 5.05 -5.65 4.95 -5.55 4.85 -5.45 4.8 -5.4 4.75 -5.35 4.1 -5.3 3.75 -5.5 3.75 -5.5 3.7 -5.8 3.7 -6.3 3.7 -6.5 3.7 -6.8 3.7 -7.1 3.7 -7.3 3.8 -7.4 3.95 -7.6 3.95 -7.7 4.0 -8.25 4.1 -8.5 4.1 -8.6 4.2 -8.7 4.45 -8.95 4.55 -9.05 5.1 -10.0 5.2 -10.2 5.3 -10.3 5.3 -10.45 5.3 -10.55 5.3 -10.65 5.4 -10.75 5.85 -11.4 5.95 -11.5 5.85 -11.5 5.75 -11.5 5.65 -11.5 5.15 -11.5 Q4.65 -11.35 4.2 -11.0 L3.8 -10.7 3.6 -10.6 Q3.1 -10.3 2.65 -10.0 L2.35 -9.8 1.45 -9.0 1.45 -8.9 1.45 -8.8 1.3 -8.6 1.2 -8.5 1.15 -8.4 1.05 -8.2 1.05 -8.1 1.05 -8.0 1.05 -8.0 1.05 -8.0 1.0 -7.9 1.0 -7.9 0.95 -7.8 0.85 -7.7 0.8 -7.6 0.8 -7.55 0.75 -7.2 0.75 -7.1 0.7 -7.0 0.6 -6.7 0.4 -6.3 0.35 -6.2 0.35 -6.1 Q0.2 -5.6 0.2 -5.1 L0.2 -4.9 0.2 -4.8 0.15 -4.7 0.05 -4.6 -0.65 -4.55 -0.95 -4.7 -0.9 -5.1 -0.9 -5.5 -0.9 -5.9 -0.85 -6.55 -1.15 -6.1 -1.45 -5.8 -1.5 -5.7 -1.9 -5.4 -2.6 -4.8 -3.05 -4.25 -3.15 -4.15 -3.4 -3.65 -3.65 -2.9 -3.7 -2.6 -3.8 -2.05 -3.85 -1.7;M-5.35 -2.15 L-5.35 -1.75 Q-5.4 -0.55 -5.0 0.55 L-4.85 1.0 -4.35 1.9 -4.15 2.1 -3.95 2.3 -3.85 2.45 -3.3 2.95 -2.55 3.4 -1.8 3.75 -1.2 3.9 Q0.2 4.25 1.35 3.9 L2.25 3.45 3.45 2.35 4.5 1.2 4.5 0.95 4.5 0.75 4.6 0.65 4.7 0.55 4.7 0.45 4.8 0.25 4.9 0.0 5.0 -0.3 5.1 -0.6 5.1 -0.7 5.15 -1.1 5.15 -1.2 5.15 -1.3 5.15 -1.4 5.15 -1.7 5.15 -1.9 5.15 -2.0 5.15 -2.1 5.55 -2.8 5.6 -2.9 5.6 -3.0 Q5.85 -3.35 6.2 -3.5 L6.55 -3.65 6.75 -3.85 6.95 -4.0 6.95 -4.0 7.0 -4.1 Q7.35 -4.4 7.65 -4.65 L7.75 -4.75 8.15 -5.15 8.25 -5.25 8.35 -5.35 8.65 -6.0 8.65 -6.1 8.65 -6.45 8.7 -7.35 8.7 -7.65 8.75 -7.75 8.8 -7.75 8.8 -7.85 8.8 -7.95 8.8 -8.25 8.8 -8.6 8.85 -8.65 8.95 -8.8 9.0 -8.9 9.0 -9.05 8.9 -8.85 8.85 -8.85 8.35 -8.45 8.2 -8.45 8.15 -8.35 7.8 -7.8 7.15 -7.7 6.85 -7.85 6.65 -8.05 6.65 -8.05 6.65 -8.55 6.55 -8.6 6.55 -8.7 6.55 -9.0 Q6.5 -9.7 6.5 -10.4 L6.5 -10.5 6.5 -10.9 6.5 -11.0 6.5 -11.1 6.55 -11.3 6.55 -11.6 6.5 -11.6 6.4 -11.7 5.4 -11.25 5.2 -11.4 5.1 -11.4 5.1 -11.7 5.1 -12.4 5.1 -12.6 5.2 -12.7 5.2 -12.9 5.2 -13.1 5.25 -13.3 5.35 -13.7 5.35 -13.85 5.65 -14.4 5.35 -14.4 5.25 -14.4 5.1 -14.4 4.9 -14.25 4.8 -14.1 3.75 -13.2 3.55 -12.9 3.45 -12.7 3.45 -12.6 3.45 -12.5 3.45 -12.4 3.35 -12.2 2.95 -11.4 2.95 -11.3 2.9 -11.3 2.9 -11.2 2.9 -11.1 2.7 -10.6 Q2.55 -10.1 2.55 -9.6 L2.6 -9.2 2.6 -8.9 Q2.05 -8.25 1.3 -8.45 L0.9 -8.6 0.9 -10.0 0.9 -10.1 0.9 -10.2 1.05 -10.4 1.15 -10.5 1.15 -10.6 1.2 -10.8 1.3 -10.9 1.4 -11.0 1.4 -11.0 1.4 -11.1 1.4 -11.2 1.4 -11.3 1.5 -11.4 1.6 -11.5 1.65 -11.6 1.65 -11.7 1.9 -12.0 2.0 -12.1 2.05 -12.2 2.4 -12.4 1.8 -12.3 1.7 -12.3 1.6 -12.3 Q0.95 -12.15 0.35 -12.0 L0.15 -11.9 0.15 -11.8 0.05 -11.8 -0.15 -11.7 -0.6 -11.3 -0.9 -11.05 -1.5 -10.55 -1.8 -10.25 -1.9 -9.75 -2.2 -8.95 -2.55 -8.05 -2.85 -7.4 -2.95 -7.2 -3.15 -6.7 -3.85 -5.8 -4.25 -5.2 -4.3 -5.0 -4.35 -4.35 -4.9 -3.55 -5.05 -3.3 -5.25 -2.65 -5.35 -2.15"/>
    </path>
    <path d="M-3.85 -1.7 L-3.8 -2.05 -3.7 -2.6 -3.65 -2.9 -3.4 -3.65 -3.15 -4.15 -3.05 -4.25 -2.6 -4.8 -1.9 -5.4 -1.5 -5.7 -1.45 -5.8 -1.15 -6.1 -0.85 -6.55 -0.9 -5.9 -0.9 -5.5 -0.9 -5.1 -0.95 -4.7 -0.65 -4.55 0.05 -4.6 0.15 -4.7 0.2 -4.8 0.2 -4.9 0.2 -5.1 Q0.2 -5.6 0.35 -6.1 L0.35 -6.2 0.4 -6.3 0.6 -6.7 0.7 -7.0 0.75 -7.1 0.75 -7.2 0.8 -7.55 0.8 -7.6 0.85 -7.7 0.95 -7.8 1.0 -7.9 1.0 -7.9 1.05 -8.0 1.05 -8.0 1.05 -8.0 1.05 -8.1 1.05 -8.2 1.15 -8.4 1.2 -8.5 1.3 -8.6 1.45 -8.8 1.45 -8.9 1.45 -9.0 2.35 -9.8 2.65 -10.0 Q3.1 -10.3 3.6 -10.6 L3.8 -10.7 4.2 -11.0 Q4.65 -11.35 5.15 -11.5 L5.65 -11.5 5.75 -11.5 5.85 -11.5 5.95 -11.5 5.85 -11.4 5.4 -10.75 5.3 -10.65 5.3 -10.55 5.3 -10.45 5.3 -10.3 5.2 -10.2 5.1 -10.0 4.55 -9.05 4.45 -8.95 4.2 -8.7 4.1 -8.6 4.1 -8.5 4.0 -8.25 3.95 -7.7 3.95 -7.6 3.8 -7.4 3.7 -7.3 3.7 -7.1 3.7 -6.8 3.7 -6.5 3.7 -6.3 3.7 -5.8 3.75 -5.5 3.75 -5.5 4.1 -5.3 4.75 -5.35 4.8 -5.4 4.85 -5.45 4.95 -5.55 5.05 -5.65 5.15 -5.65 5.25 -5.7 5.4 -5.9 5.45 -6.0 Q5.4 -6.65 6.1 -6.9 L6.2 -7.0 6.45 -7.0 6.55 -7.0 6.35 -6.85 6.35 -6.85 6.25 -6.75 6.2 -6.55 6.15 -6.05 6.15 -5.5 6.05 -5.3 5.95 -5.2 5.8 -4.6 5.75 -4.5 5.75 -4.4 5.7 -4.35 5.6 -4.25 5.5 -4.15 5.5 -4.15 5.35 -3.95 5.1 -3.7 5.0 -3.6 5.0 -3.6 5.0 -3.6 4.9 -3.5 4.8 -3.4 4.3 -2.6 4.05 -2.45 3.95 -2.35 3.55 -2.0 3.45 -1.9 3.45 -1.8 3.45 -1.3 3.45 -1.2 Q3.75 -0.9 4.15 -1.05 L4.25 -1.1 4.3 -1.15 4.35 -1.25 4.85 -1.5 5.1 -1.7 Q5.1 -1.45 5.1 -1.2 L5.1 -1.1 5.1 -0.9 5.1 -0.2 5.05 -0.2 5.05 -0.05 5.0 0.05 4.9 0.15 4.9 0.25 4.9 0.35 4.85 0.45 4.75 0.65 4.7 0.75 4.6 0.85 4.5 0.95 4.45 1.15 4.35 1.25 4.35 1.35 4.4 1.6 4.2 1.7 4.1 1.8 4.0 1.9 3.0 2.5 1.95 3.1 1.4 3.3 Q0.3 3.3 -0.85 3.35 L-1.45 3.35 -2.05 3.05 -2.75 2.65 -3.4 2.0 -3.45 1.8 -3.45 1.6 -3.55 1.4 -3.7 0.7 -3.8 0.3 Q-3.8 -0.7 -3.85 -1.7 L-3.85 -1.7" fill="none" stroke="#000000" stroke-linecap="round" stroke-linejoin="round" stroke-opacity="0.0" stroke-width="1.0">
      <animate attributeName="stroke" dur="2s" repeatCount="indefinite" values="#000000;#000001"/>
      <animate attributeName="stroke-width" dur="2s" repeatCount="indefinite" values="0.0;0.0"/>
      <animate attributeName="fill-opacity" dur="2s" repeatCount="indefinite" values="0.0;0.0"/>
      <animate attributeName="d" dur="2s" repeatCount="indefinite" values="M-3.85 -1.7 L-3.8 -2.05 -3.7 -2.6 -3.65 -2.9 -3.4 -3.65 -3.15 -4.15 -3.05 -4.25 -2.6 -4.8 -1.9 -5.4 -1.5 -5.7 -1.45 -5.8 -1.15 -6.1 -0.85 -6.55 -0.9 -5.9 -0.9 -5.5 -0.9 -5.1 -0.95 -4.7 -0.65 -4.55 0.05 -4.6 0.15 -4.7 0.2 -4.8 0.2 -4.9 0.2 -5.1 Q0.2 -5.6 0.35 -6.1 L0.35 -6.2 0.4 -6.3 0.6 -6.7 0.7 -7.0 0.75 -7.1 0.75 -7.2 0.8 -7.55 0.8 -7.6 0.85 -7.7 0.95 -7.8 1.0 -7.9 1.0 -7.9 1.05 -8.0 1.05 -8.0 1.05 -8.0 1.05 -8.1 1.05 -8.2 1.15 -8.4 1.2 -8.5 1.3 -8.6 1.45 -8.8 1.45 -8.9 1.45 -9.0 2.35 -9.8 2.65 -10.0 Q3.1 -10.3 3.6 -10.6 L3.8 -10.7 4.2 -11.0 Q4.65 -11.35 5.15 -11.5 L5.65 -11.5 5.75 -11.5 5.85 -11.5 5.95 -11.5 5.85 -11.4 5.4 -10.75 5.3 -10.65 5.3 -10.55 5.3 -10.45 5.3 -10.3 5.2 -10.2 5.1 -10.0 4.55 -9.05 4.45 -8.95 4.2 -8.7 4.1 -8.6 4.1 -8.5 4.0 -8.25 3.95 -7.7 3.95 -7.6 3.8 -7.4 3.7 -7.3 3.7 -7.1 3.7 -6.8 3.7 -6.5 3.7 -6.3 3.7 -5.8 3.75 -5.5 3.75 -5.5 4.1 -5.3 4.75 -5.35 4.8 -5.4 4.85 -5.45 4.95 -5.55 5.05 -5.65 5.15 -5.65 5.25 -5.7 5.4 -5.9 5.45 -6.0 Q5.4 -6.65 6.1 -6.9 L6.2 -7.0 6.45 -7.0 6.55 -7.0 6.35 -6.85 6.35 -6.85 6.25 -6.75 6.2 -6.55 6.15 -6.05 6.15 -5.5 6.05 -5.3 5.95 -5.2 5.8 -4.6 5.75 -4.5 5.75 -4.4 5.7 -4.35 5.6 -4.25 5.5 -4.15 5.5 -4.15 5.35 -3.95 5.1 -3.7 5.0 -3.6 5.0 -3.6 5.0 -3.6 4.9 -3.5 4.8 -3.4 4.3 -2.6 4.05 -2.45 3.95 -2.35 3.55 -2.0 3.45 -1.9 3.45 -1.8 3.45 -1.3 3.45 -1.2 Q3.75 -0.9 4.15 -1.05 L4.25 -1.1 4.3 -1.15 4.35 -1.25 4.85 -1.5 5.1 -1.7 Q5.1 -1.45 5.1 -1.2 L5.1 -1.1 5.1 -0.9 5.1 -0.2 5.05 -0.2 5.05 -0.05 5.0 0.05 4.9 0.15 4.9 0.25 4.9 0.35 4.85 0.45 4.75 0.65 4.7 0.75 4.6 0.85 4.5 0.95 4.45 1.15 4.35 1.25 4.35 1.35 4.4 1.6 4.2 1.7 4.1 1.8 4.0 1.9 3.0 2.5 1.95 3.1 1.4 3.3 Q0.3 3.3 -0.85 3.35 L-1.45 3.35 -2.05 3.05 -2.75 2.65 -3.4 2.0 -3.45 1.8 -3.45 1.6 -3.55 1.4 -3.7 0.7 -3.8 0.3 Q-3.8 -0.7 -3.85 -1.7 L-3.85 -1.7;M-5.35 -2.15 L-5.25 -2.65 -5.05 -3.3 -4.9 -3.55 -4.35 -4.35 -4.3 -5.0 -4.25 -5.2 -3.85 -5.8 -3.15 -6.7 -2.95 -7.2 -2.85 -7.4 -2.55 -8.05 -2.2 -8.95 -1.9 -9.75 -1.8 -10.25 -1.5 -10.55 -0.9 -11.05 -0.6 -11.3 -0.15 -11.7 0.05 -11.8 0.15 -11.8 0.15 -11.9 0.35 -12.0 Q0.95 -12.15 1.6 -12.3 L1.7 -12.3 1.8 -12.3 2.4 -12.4 2.05 -12.2 2.0 -12.1 1.9 -12.0 1.65 -11.7 1.65 -11.6 1.6 -11.5 1.5 -11.4 1.4 -11.3 1.4 -11.2 1.4 -11.1 1.4 -11.0 1.4 -11.0 1.3 -10.9 1.2 -10.8 1.15 -10.6 1.15 -10.5 1.05 -10.4 0.9 -10.2 0.9 -10.1 0.9 -10.0 0.9 -8.6 1.3 -8.45 Q2.05 -8.25 2.6 -8.9 L2.6 -9.2 2.55 -9.6 Q2.55 -10.1 2.7 -10.6 L2.9 -11.1 2.9 -11.2 2.9 -11.3 2.95 -11.3 2.95 -11.4 3.35 -12.2 3.45 -12.4 3.45 -12.5 3.45 -12.6 3.45 -12.7 3.55 -12.9 3.75 -13.2 4.8 -14.1 4.9 -14.25 5.1 -14.4 5.25 -14.4 5.35 -14.4 5.65 -14.4 5.35 -13.85 5.35 -13.7 5.25 -13.3 5.2 -13.1 5.2 -12.9 5.2 -12.7 5.1 -12.6 5.1 -12.4 5.1 -11.7 5.1 -11.4 5.2 -11.4 5.4 -11.25 6.4 -11.7 6.5 -11.6 6.55 -11.6 6.55 -11.3 6.5 -11.1 6.5 -11.0 6.5 -10.9 6.5 -10.5 6.5 -10.4 Q6.5 -9.7 6.55 -9.0 L6.55 -8.7 6.55 -8.6 6.65 -8.55 6.65 -8.05 6.65 -8.05 6.85 -7.85 7.15 -7.7 7.8 -7.8 8.15 -8.35 8.2 -8.45 8.35 -8.45 8.85 -8.85 8.9 -8.85 9.0 -9.05 9.0 -8.9 8.95 -8.8 8.85 -8.65 8.8 -8.6 8.8 -8.25 8.8 -7.95 8.8 -7.85 8.8 -7.75 8.75 -7.75 8.7 -7.65 8.7 -7.35 8.65 -6.45 8.65 -6.1 8.65 -6.0 8.35 -5.35 8.25 -5.25 8.15 -5.15 7.75 -4.75 7.65 -4.65 Q7.35 -4.4 7.0 -4.1 L6.95 -4.0 6.95 -4.0 6.75 -3.85 6.55 -3.65 6.2 -3.5 Q5.85 -3.35 5.6 -3.0 L5.6 -2.9 5.55 -2.8 5.15 -2.1 5.15 -2.0 5.15 -1.9 5.15 -1.7 5.15 -1.4 5.15 -1.3 5.15 -1.2 5.15 -1.1 5.1 -0.7 5.1 -0.6 5.0 -0.3 4.9 0.0 4.8 0.25 4.7 0.45 4.7 0.55 4.6 0.65 4.5 0.75 4.5 0.95 4.5 1.2 3.45 2.35 2.25 3.45 1.35 3.9 Q0.2 4.25 -1.2 3.9 L-1.8 3.75 -2.55 3.4 -3.3 2.95 -3.85 2.45 -3.95 2.3 -4.15 2.1 -4.35 1.9 -4.85 1.0 -5.0 0.55 Q-5.4 -0.55 -5.35 -1.75 L-5.35 -2.15"/>
    </path>
  </g>
  <defs>
    <radialGradient cx="0" cy="0" gradientTransform="matrix(0.0091, -0.0105, 0.0071, 0.0061, -0.3, -0.65)" gradientUnits="userSpaceOnUse" id="gradient0" r="819.2" spreadMethod="pad">
      <animateTransform additive="replace" attributeName="gradientTransform" dur="2s" from="1" repeatCount="indefinite" to="1" type="scale"/>
      <animateTransform additive="sum" attributeName="gradientTransform" dur="2s" from="-0.3 -0.65" repeatCount="indefinite" to="-0.3 -0.65" type="translate"/>
      <animateTransform additive="sum" attributeName="gradientTransform" dur="2s" from="-49.1111" repeatCount="indefinite" to="-49.1111" type="rotate"/>
      <animateTransform additive="sum" attributeName="gradientTransform" dur="2s" from="0.0138 0.0094" repeatCount="indefinite" to="0.0138 0.0094" type="scale"/>
      <animateTransform additive="sum" attributeName="gradientTransform" dur="2s" from="0.0369" repeatCount="indefinite" to="0.0369" type="skewX"/>
      <stop offset="0.0" stop-color="#fefe0c">
        <animate attributeName="offset" dur="2s" repeatCount="indefinite" values="0.0;0.0"/>
        <animate attributeName="stop-color" dur="2s" repeatCount="indefinite" values="#fefe0c;#fefe0d"/>
        <animate attributeName="stop-opacity" dur="2s" repeatCount="indefinite" values="1.0;1.0"/>
      </stop>
      <stop offset="0.5764705882352941" stop-color="#ffba2b">
        <animate attributeName="offset" dur="2s" repeatCount="indefinite" values="0.5764705882352941;0.5764705882352941"/>
        <animate attributeName="stop-color" dur="2s" repeatCount="indefinite" values="#ffba2b;#ffba2c"/>
        <animate attributeName="stop-opacity" dur="2s" repeatCount="indefinite" values="1.0;1.0"/>
      </stop>
      <stop offset="1.0" stop-color="#ff720b">
        <animate attributeName="offset" dur="2s" repeatCount="indefinite" values="1.0;1.0"/>
        <animate attributeName="stop-color" dur="2s" repeatCount="indefinite" values="#ff720b;#ff720c"/>
        <animate attributeName="stop-opacity" dur="2s" repeatCount="indefinite" values="1.0;1.0"/>
      </stop>
    </radialGradient>
  </defs>
</svg>
