<?xml version="1.0" encoding="UTF-8" standalone="no"?>
<svg xmlns:xlink="http://www.w3.org/1999/xlink" height="21.55px" width="15.95px" xmlns="http://www.w3.org/2000/svg">
  <g transform="matrix(1.0, 0.0, 0.0, 1.0, 5.9, 17.1)">
    <path d="M-5.85 -0.1 L-5.85 -0.1 Q-6.05 1.7 -4.65 2.85 L-4.35 3.05 Q-3.0 3.95 -1.5 4.3 L-0.8 4.4 Q0.5 4.25 1.75 4.1 L2.7 3.5 3.8 2.5 4.05 2.2 4.75 1.3 5.05 0.4 5.05 0.4 5.15 -0.9 5.2 -1.6 5.25 -3.35 5.45 -5.2 5.55 -5.35 5.6 -5.95 6.15 -7.2 6.15 -7.2 6.4 -7.55 6.95 -8.25 7.05 -8.35 7.2 -8.7 7.25 -8.8 7.35 -8.9 7.35 -9.0 Q7.75 -9.6 8.15 -10.2 L8.25 -10.7 8.8 -11.7 9.0 -11.9 9.25 -12.85 9.5 -13.55 9.5 -13.65 9.7 -14.05 9.75 -14.3 9.75 -14.6 9.75 -15.1 9.65 -15.2 9.5 -15.45 9.4 -15.35 Q9.1 -15.05 8.8 -14.8 L8.1 -14.1 7.65 -13.45 7.55 -13.3 6.75 -12.5 Q6.3 -12.35 5.85 -12.2 L5.75 -12.2 5.3 -12.15 5.1 -12.15 4.45 -12.2 4.35 -12.3 4.25 -12.4 4.15 -12.5 4.05 -13.3 4.05 -13.3 4.3 -13.95 5.15 -14.9 5.3 -15.2 5.5 -15.7 5.5 -16.05 5.5 -16.35 5.6 -17.1 4.15 -16.9 3.95 -16.6 3.35 -15.85 Q2.8 -15.2 2.3 -14.6 L2.2 -14.5 2.0 -14.15 1.65 -13.35 Q1.55 -13.05 1.5 -12.75 1.45 -12.25 1.4 -11.75 L1.4 -11.55 1.4 -11.35 1.25 -9.9 0.9 -9.05 0.8 -8.85 -0.3 -7.45 -0.75 -6.95 Q-1.6 -6.3 -2.45 -5.65 L-2.55 -5.65 -2.75 -5.55 -3.5 -5.1 Q-4.0 -4.7 -4.5 -4.3 L-4.8 -4.0 -4.9 -3.8 Q-5.2 -2.85 -5.45 -1.95 L-5.85 -0.1" fill="url(#gradient0)" fill-rule="evenodd" stroke="none">
      <animate attributeName="d" dur="2s" repeatCount="indefinite" values="M-5.85 -0.1 L-5.85 -0.1 Q-6.05 1.7 -4.65 2.85 L-4.35 3.05 Q-3.0 3.95 -1.5 4.3 L-0.8 4.4 Q0.5 4.25 1.75 4.1 L2.7 3.5 3.8 2.5 4.05 2.2 4.75 1.3 5.05 0.4 5.05 0.4 5.15 -0.9 5.2 -1.6 5.25 -3.35 5.45 -5.2 5.55 -5.35 5.6 -5.95 6.15 -7.2 6.15 -7.2 6.4 -7.55 6.95 -8.25 7.05 -8.35 7.2 -8.7 7.25 -8.8 7.35 -8.9 7.35 -9.0 Q7.75 -9.6 8.15 -10.2 L8.25 -10.7 8.8 -11.7 9.0 -11.9 9.25 -12.85 9.5 -13.55 9.5 -13.65 9.7 -14.05 9.75 -14.3 9.75 -14.6 9.75 -15.1 9.65 -15.2 9.5 -15.45 9.4 -15.35 Q9.1 -15.05 8.8 -14.8 L8.1 -14.1 7.65 -13.45 7.55 -13.3 6.75 -12.5 Q6.3 -12.35 5.85 -12.2 L5.75 -12.2 5.3 -12.15 5.1 -12.15 4.45 -12.2 4.35 -12.3 4.25 -12.4 4.15 -12.5 4.05 -13.3 4.05 -13.3 4.3 -13.95 5.15 -14.9 5.3 -15.2 5.5 -15.7 5.5 -16.05 5.5 -16.35 5.6 -17.1 4.15 -16.9 3.95 -16.6 3.35 -15.85 Q2.8 -15.2 2.3 -14.6 L2.2 -14.5 2.0 -14.15 1.65 -13.35 Q1.55 -13.05 1.5 -12.75 1.45 -12.25 1.4 -11.75 L1.4 -11.55 1.4 -11.35 1.25 -9.9 0.9 -9.05 0.8 -8.85 -0.3 -7.45 -0.75 -6.95 Q-1.6 -6.3 -2.45 -5.65 L-2.55 -5.65 -2.75 -5.55 -3.5 -5.1 Q-4.0 -4.7 -4.5 -4.3 L-4.8 -4.0 -4.9 -3.8 Q-5.2 -2.85 -5.45 -1.95 L-5.85 -0.1;M-5.85 -0.1 L-5.85 0.0 Q-6.0 1.85 -4.35 3.05 L-3.85 3.35 Q-2.45 4.2 -0.8 4.4 L0.15 4.45 Q1.6 4.4 2.7 3.5 L3.55 2.7 4.55 1.8 4.95 1.4 5.35 0.4 5.65 -0.65 5.65 -0.75 5.85 -2.2 6.1 -2.8 6.95 -4.1 8.25 -5.65 8.45 -5.95 8.8 -6.35 9.45 -7.8 9.4 -7.85 9.0 -7.8 8.1 -7.85 7.9 -7.85 7.2 -8.0 7.0 -8.0 6.8 -8.15 6.75 -8.25 Q6.45 -9.0 6.75 -9.55 L7.15 -10.0 8.2 -11.0 8.4 -11.2 9.25 -12.05 9.75 -12.65 9.75 -12.75 9.8 -13.15 9.85 -13.55 9.95 -13.95 10.05 -14.4 10.05 -14.5 10.0 -14.65 9.9 -14.85 Q9.55 -14.8 9.2 -14.35 L8.55 -13.65 7.7 -13.2 7.3 -13.0 5.85 -13.1 Q5.45 -13.4 5.45 -13.9 L5.45 -13.9 5.55 -14.5 5.8 -14.9 6.4 -15.7 6.4 -15.8 6.4 -15.85 6.4 -15.95 5.6 -15.95 5.5 -15.95 5.05 -15.7 4.25 -15.1 3.9 -14.7 3.55 -14.15 3.45 -13.85 3.45 -13.35 3.5 -12.55 3.35 -11.0 3.25 -10.15 3.05 -9.65 Q2.6 -8.85 1.75 -8.35 L1.65 -8.25 1.1 -7.75 0.45 -7.3 Q0.15 -7.1 -0.2 -7.3 -0.85 -7.75 -0.4 -8.45 L-0.3 -8.6 -0.3 -8.85 -0.3 -10.3 -0.3 -11.3 -0.3 -11.3 -1.7 -9.8 -2.1 -9.35 Q-2.45 -8.25 -2.95 -7.1 L-2.95 -7.0 -2.95 -6.7 -2.8 -5.55 Q-2.75 -4.75 -3.25 -4.2 L-3.55 -3.85 -3.85 -3.55 Q-4.55 -2.85 -5.4 -2.2 L-5.85 -0.1"/>
    </path>
    <path d="M-5.85 -0.1 L-5.45 -1.95 Q-5.2 -2.85 -4.9 -3.8 L-4.8 -4.0 -4.5 -4.3 Q-4.0 -4.7 -3.5 -5.1 L-2.75 -5.55 -2.55 -5.65 -2.45 -5.65 Q-1.6 -6.3 -0.75 -6.95 L-0.3 -7.45 0.8 -8.85 0.9 -9.05 1.25 -9.9 1.4 -11.35 1.4 -11.55 1.4 -11.75 Q1.45 -12.25 1.5 -12.75 1.55 -13.05 1.65 -13.35 L2.0 -14.15 2.2 -14.5 2.3 -14.6 Q2.8 -15.2 3.35 -15.85 L3.95 -16.6 4.15 -16.9 5.6 -17.1 5.5 -16.35 5.5 -16.05 5.5 -15.7 5.3 -15.2 5.15 -14.9 4.3 -13.95 4.05 -13.3 4.05 -13.3 4.15 -12.5 4.25 -12.4 4.35 -12.3 4.45 -12.2 5.1 -12.15 5.3 -12.15 5.75 -12.2 5.85 -12.2 Q6.3 -12.35 6.75 -12.5 L7.55 -13.3 7.65 -13.45 8.1 -14.1 8.8 -14.8 Q9.1 -15.05 9.4 -15.35 L9.5 -15.45 9.65 -15.2 9.75 -15.1 9.75 -14.6 9.75 -14.3 9.7 -14.05 9.5 -13.65 9.5 -13.55 9.25 -12.85 9.0 -11.9 8.8 -11.7 8.25 -10.7 8.15 -10.2 Q7.75 -9.6 7.35 -9.0 L7.35 -8.9 7.25 -8.8 7.2 -8.7 7.05 -8.35 6.95 -8.25 6.4 -7.55 6.15 -7.2 6.15 -7.2 5.6 -5.95 5.55 -5.35 5.45 -5.2 5.25 -3.35 5.2 -1.6 5.15 -0.9 5.05 0.4 5.05 0.4 4.75 1.3 4.05 2.2 3.8 2.5 2.7 3.5 1.75 4.1 Q0.5 4.25 -0.8 4.4 L-1.5 4.3 Q-3.0 3.95 -4.35 3.05 L-4.65 2.85 Q-6.05 1.7 -5.85 -0.1 L-5.85 -0.1" fill="none" stroke="#000000" stroke-linecap="round" stroke-linejoin="round" stroke-opacity="0.0" stroke-width="1.0">
      <animate attributeName="stroke" dur="2s" repeatCount="indefinite" values="#000000;#000001"/>
      <animate attributeName="stroke-width" dur="2s" repeatCount="indefinite" values="0.0;0.0"/>
      <animate attributeName="fill-opacity" dur="2s" repeatCount="indefinite" values="0.0;0.0"/>
      <animate attributeName="d" dur="2s" repeatCount="indefinite" values="M-5.85 -0.1 L-5.45 -1.95 Q-5.2 -2.85 -4.9 -3.8 L-4.8 -4.0 -4.5 -4.3 Q-4.0 -4.7 -3.5 -5.1 L-2.75 -5.55 -2.55 -5.65 -2.45 -5.65 Q-1.6 -6.3 -0.75 -6.95 L-0.3 -7.45 0.8 -8.85 0.9 -9.05 1.25 -9.9 1.4 -11.35 1.4 -11.55 1.4 -11.75 Q1.45 -12.25 1.5 -12.75 1.55 -13.05 1.65 -13.35 L2.0 -14.15 2.2 -14.5 2.3 -14.6 Q2.8 -15.2 3.35 -15.85 L3.95 -16.6 4.15 -16.9 5.6 -17.1 5.5 -16.35 5.5 -16.05 5.5 -15.7 5.3 -15.2 5.15 -14.9 4.3 -13.95 4.05 -13.3 4.05 -13.3 4.15 -12.5 4.25 -12.4 4.35 -12.3 4.45 -12.2 5.1 -12.15 5.3 -12.15 5.75 -12.2 5.85 -12.2 Q6.3 -12.35 6.75 -12.5 L7.55 -13.3 7.65 -13.45 8.1 -14.1 8.8 -14.8 Q9.1 -15.05 9.4 -15.35 L9.5 -15.45 9.65 -15.2 9.75 -15.1 9.75 -14.6 9.75 -14.3 9.7 -14.05 9.5 -13.65 9.5 -13.55 9.25 -12.85 9.0 -11.9 8.8 -11.7 8.25 -10.7 8.15 -10.2 Q7.75 -9.6 7.35 -9.0 L7.35 -8.9 7.25 -8.8 7.2 -8.7 7.05 -8.35 6.95 -8.25 6.4 -7.55 6.15 -7.2 6.15 -7.2 5.6 -5.95 5.55 -5.35 5.45 -5.2 5.25 -3.35 5.2 -1.6 5.15 -0.9 5.05 0.4 5.05 0.4 4.75 1.3 4.05 2.2 3.8 2.5 2.7 3.5 1.75 4.1 Q0.5 4.25 -0.8 4.4 L-1.5 4.3 Q-3.0 3.95 -4.35 3.05 L-4.65 2.85 Q-6.05 1.7 -5.85 -0.1 L-5.85 -0.1;M-5.85 -0.1 L-5.4 -2.2 Q-4.55 -2.85 -3.85 -3.55 L-3.55 -3.85 -3.25 -4.2 Q-2.75 -4.75 -2.8 -5.55 L-2.95 -6.7 -2.95 -7.0 -2.95 -7.1 Q-2.45 -8.25 -2.1 -9.35 L-1.7 -9.8 -0.3 -11.3 -0.3 -11.3 -0.3 -10.3 -0.3 -8.85 -0.3 -8.6 -0.4 -8.45 Q-0.85 -7.75 -0.2 -7.3 0.15 -7.1 0.45 -7.3 L1.1 -7.75 1.65 -8.25 1.75 -8.35 Q2.6 -8.85 3.05 -9.65 L3.25 -10.15 3.35 -11.0 3.5 -12.55 3.45 -13.35 3.45 -13.85 3.55 -14.15 3.9 -14.7 4.25 -15.1 5.05 -15.7 5.5 -15.95 5.6 -15.95 6.4 -15.95 6.4 -15.85 6.4 -15.8 6.4 -15.7 5.8 -14.9 5.55 -14.5 5.45 -13.9 5.45 -13.9 Q5.45 -13.4 5.85 -13.1 L7.3 -13.0 7.7 -13.2 8.55 -13.65 9.2 -14.35 Q9.55 -14.8 9.9 -14.85 L10.0 -14.65 10.05 -14.5 10.05 -14.4 9.95 -13.95 9.85 -13.55 9.8 -13.15 9.75 -12.75 9.75 -12.65 9.25 -12.05 8.4 -11.2 8.2 -11.0 7.15 -10.0 6.75 -9.55 Q6.45 -9.0 6.75 -8.25 L6.8 -8.15 7.0 -8.0 7.2 -8.0 7.9 -7.85 8.1 -7.85 9.0 -7.8 9.4 -7.85 9.45 -7.8 8.8 -6.35 8.45 -5.95 8.25 -5.65 6.95 -4.1 6.1 -2.8 5.85 -2.2 5.65 -0.75 5.65 -0.65 5.35 0.4 4.95 1.4 4.55 1.8 3.55 2.7 2.7 3.5 Q1.6 4.4 0.15 4.45 L-0.8 4.4 Q-2.45 4.2 -3.85 3.35 L-4.35 3.05 Q-6.0 1.85 -5.85 0.0 L-5.85 -0.1"/>
    </path>
  </g>
  <defs>
    <radialGradient cx="0" cy="0" gradientTransform="matrix(0.0091, -0.0105, 0.0071, 0.0061, -0.3, -0.65)" gradientUnits="userSpaceOnUse" id="gradient0" r="819.2" spreadMethod="pad">
      <animateTransform additive="replace" attributeName="gradientTransform" dur="2s" from="1" repeatCount="indefinite" to="1" type="scale"/>
      <animateTransform additive="sum" attributeName="gradientTransform" dur="2s" from="-0.3 -0.65" repeatCount="indefinite" to="-0.3 -0.65" type="translate"/>
      <animateTransform additive="sum" attributeName="gradientTransform" dur="2s" from="-49.1111" repeatCount="indefinite" to="-49.1111" type="rotate"/>
      <animateTransform additive="sum" attributeName="gradientTransform" dur="2s" from="0.0138 0.0094" repeatCount="indefinite" to="0.0138 0.0094" type="scale"/>
      <animateTransform additive="sum" attributeName="gradientTransform" dur="2s" from="0.0369" repeatCount="indefinite" to="0.0369" type="skewX"/>
      <stop offset="0.0" stop-color="#fefe0c">
        <animate attributeName="offset" dur="2s" repeatCount="indefinite" values="0.0;0.0"/>
        <animate attributeName="stop-color" dur="2s" repeatCount="indefinite" values="#fefe0c;#fefe0d"/>
        <animate attributeName="stop-opacity" dur="2s" repeatCount="indefinite" values="1.0;1.0"/>
      </stop>
      <stop offset="0.5764705882352941" stop-color="#ffba2b">
        <animate attributeName="offset" dur="2s" repeatCount="indefinite" values="0.5764705882352941;0.5764705882352941"/>
        <animate attributeName="stop-color" dur="2s" repeatCount="indefinite" values="#ffba2b;#ffba2c"/>
        <animate attributeName="stop-opacity" dur="2s" repeatCount="indefinite" values="1.0;1.0"/>
      </stop>
      <stop offset="1.0" stop-color="#ff720b">
        <animate attributeName="offset" dur="2s" repeatCount="indefinite" values="1.0;1.0"/>
        <animate attributeName="stop-color" dur="2s" repeatCount="indefinite" values="#ff720b;#ff720c"/>
        <animate attributeName="stop-opacity" dur="2s" repeatCount="indefinite" values="1.0;1.0"/>
      </stop>
    </radialGradient>
  </defs>
</svg>
