<?xml version="1.0" encoding="UTF-8" standalone="no"?>
<svg xmlns:xlink="http://www.w3.org/1999/xlink" height="5.45px" width="6.05px" xmlns="http://www.w3.org/2000/svg">
  <g transform="matrix(1.0, 0.0, 0.0, 1.0, 2.05, 10.35)">
    <path d="M-2.0 -5.55 L-1.85 -5.4 Q-1.65 -5.35 -1.45 -5.3 -1.25 -5.1 -1.05 -5.1 L-0.65 -5.4 Q-0.3 -5.5 0.0 -5.55 L0.05 -5.3 0.15 -5.1 Q0.35 -4.95 0.55 -4.9 L0.75 -4.9 0.95 -4.95 1.05 -5.05 1.05 -5.1 1.1 -5.3 1.15 -5.65 1.55 -5.9 1.75 -6.0 Q1.85 -6.0 1.95 -6.1 L1.95 -6.2 2.0 -6.35 2.0 -6.6 2.1 -7.2 2.1 -7.3 2.1 -7.4 Q1.9 -7.6 1.7 -7.8 L1.7 -7.75 1.55 -7.75 1.5 -7.75 1.4 -7.65 1.3 -7.6 1.2 -7.5 1.2 -7.5 1.2 -7.4 1.15 -7.1 1.0 -7.1 0.75 -7.05 0.75 -7.05 0.6 -7.2 0.4 -7.3 Q0.1 -7.45 -0.2 -7.1 L-0.25 -6.95 -0.3 -6.85 -0.5 -6.65 -0.6 -6.6 -0.6 -6.65 Q-0.55 -7.0 -0.8 -7.15 L-1.05 -7.25 -1.15 -7.25 Q-2.25 -6.75 -2.0 -5.55" fill="#000000" fill-rule="evenodd" stroke="none">
      <animate attributeName="fill" dur="2s" repeatCount="indefinite" values="#000000;#000001"/>
      <animate attributeName="fill-opacity" dur="2s" repeatCount="indefinite" values="1.0;1.0"/>
      <animate attributeName="d" dur="2s" repeatCount="indefinite" values="M-2.0 -5.55 L-1.85 -5.4 Q-1.65 -5.35 -1.45 -5.3 -1.25 -5.1 -1.05 -5.1 L-0.65 -5.4 Q-0.3 -5.5 0.0 -5.55 L0.05 -5.3 0.15 -5.1 Q0.35 -4.95 0.55 -4.9 L0.75 -4.9 0.95 -4.95 1.05 -5.05 1.05 -5.1 1.1 -5.3 1.15 -5.65 1.55 -5.9 1.75 -6.0 Q1.85 -6.0 1.95 -6.1 L1.95 -6.2 2.0 -6.35 2.0 -6.6 2.1 -7.2 2.1 -7.3 2.1 -7.4 Q1.9 -7.6 1.7 -7.8 L1.7 -7.75 1.55 -7.75 1.5 -7.75 1.4 -7.65 1.3 -7.6 1.2 -7.5 1.2 -7.5 1.2 -7.4 1.15 -7.1 1.0 -7.1 0.75 -7.05 0.75 -7.05 0.6 -7.2 0.4 -7.3 Q0.1 -7.45 -0.2 -7.1 L-0.25 -6.95 -0.3 -6.85 -0.5 -6.65 -0.6 -6.6 -0.6 -6.65 Q-0.55 -7.0 -0.8 -7.15 L-1.05 -7.25 -1.15 -7.25 Q-2.25 -6.75 -2.0 -5.55;M-0.3 -6.7 L-0.3 -6.7 Q0.05 -6.35 0.3 -6.55 0.4 -6.7 0.5 -6.85 L0.95 -6.85 Q1.4 -6.9 1.65 -7.15 L1.8 -7.35 1.9 -7.55 Q2.0 -7.7 2.05 -7.85 L2.05 -7.6 2.1 -7.4 2.3 -7.35 2.3 -7.35 2.65 -7.35 2.9 -7.45 3.25 -7.7 3.4 -8.05 Q3.45 -8.25 3.5 -8.4 L3.5 -8.5 3.6 -8.55 3.7 -8.75 3.85 -9.1 3.85 -9.1 3.85 -9.1 Q4.1 -9.6 3.95 -9.95 L3.9 -10.05 3.8 -10.15 3.7 -10.25 3.55 -10.35 3.45 -10.3 3.4 -10.3 3.35 -10.3 3.3 -10.2 3.05 -9.9 3.0 -9.8 2.85 -9.55 2.85 -9.55 2.75 -9.45 2.65 -9.4 Q2.45 -9.35 2.3 -9.3 L2.15 -9.2 1.95 -9.1 1.6 -8.85 1.4 -8.65 1.4 -8.65 Q1.25 -8.4 1.15 -8.15 L0.95 -8.1 0.85 -8.1 Q-0.45 -7.9 -0.3 -6.7"/>
    </path>
    <path d="M-2.0 -5.55 Q-2.25 -6.75 -1.15 -7.25 L-1.05 -7.25 -0.8 -7.15 Q-0.55 -7.0 -0.6 -6.65 L-0.6 -6.6 -0.5 -6.65 -0.3 -6.85 -0.25 -6.95 -0.2 -7.1 Q0.1 -7.45 0.4 -7.3 L0.6 -7.2 0.75 -7.05 0.75 -7.05 1.0 -7.1 1.15 -7.1 1.2 -7.4 1.2 -7.5 1.2 -7.5 1.3 -7.6 1.4 -7.65 1.5 -7.75 1.55 -7.75 1.7 -7.75 1.7 -7.8 Q1.9 -7.6 2.1 -7.4 L2.1 -7.3 2.1 -7.2 2.0 -6.6 2.0 -6.35 1.95 -6.2 1.95 -6.1 Q1.85 -6.0 1.75 -6.0 L1.55 -5.9 1.15 -5.65 1.1 -5.3 1.05 -5.1 1.05 -5.05 0.95 -4.95 0.75 -4.9 0.55 -4.9 Q0.35 -4.95 0.15 -5.1 L0.05 -5.3 0.0 -5.55 Q-0.3 -5.5 -0.65 -5.4 L-1.05 -5.1 Q-1.25 -5.1 -1.45 -5.3 -1.65 -5.35 -1.85 -5.4 L-2.0 -5.55" fill="none" stroke="#000000" stroke-linecap="round" stroke-linejoin="round" stroke-opacity="0.0" stroke-width="1.0">
      <animate attributeName="stroke" dur="2s" repeatCount="indefinite" values="#000000;#000001"/>
      <animate attributeName="stroke-width" dur="2s" repeatCount="indefinite" values="0.0;0.0"/>
      <animate attributeName="fill-opacity" dur="2s" repeatCount="indefinite" values="0.0;0.0"/>
      <animate attributeName="d" dur="2s" repeatCount="indefinite" values="M-2.0 -5.55 Q-2.25 -6.75 -1.15 -7.25 L-1.05 -7.25 -0.8 -7.15 Q-0.55 -7.0 -0.6 -6.65 L-0.6 -6.6 -0.5 -6.65 -0.3 -6.85 -0.25 -6.95 -0.2 -7.1 Q0.1 -7.45 0.4 -7.3 L0.6 -7.2 0.75 -7.05 0.75 -7.05 1.0 -7.1 1.15 -7.1 1.2 -7.4 1.2 -7.5 1.2 -7.5 1.3 -7.6 1.4 -7.65 1.5 -7.75 1.55 -7.75 1.7 -7.75 1.7 -7.8 Q1.9 -7.6 2.1 -7.4 L2.1 -7.3 2.1 -7.2 2.0 -6.6 2.0 -6.35 1.95 -6.2 1.95 -6.1 Q1.85 -6.0 1.75 -6.0 L1.55 -5.9 1.15 -5.65 1.1 -5.3 1.05 -5.1 1.05 -5.05 0.95 -4.95 0.75 -4.9 0.55 -4.9 Q0.35 -4.95 0.15 -5.1 L0.05 -5.3 0.0 -5.55 Q-0.3 -5.5 -0.65 -5.4 L-1.05 -5.1 Q-1.25 -5.1 -1.45 -5.3 -1.65 -5.35 -1.85 -5.4 L-2.0 -5.55;M-0.3 -6.7 Q-0.45 -7.9 0.85 -8.1 L0.95 -8.1 1.15 -8.15 Q1.25 -8.4 1.4 -8.65 L1.4 -8.65 1.6 -8.85 1.95 -9.1 2.15 -9.2 2.3 -9.3 Q2.45 -9.35 2.65 -9.4 L2.75 -9.45 2.85 -9.55 2.85 -9.55 3.0 -9.8 3.05 -9.9 3.3 -10.2 3.35 -10.3 3.4 -10.3 3.45 -10.3 3.55 -10.35 3.7 -10.25 3.8 -10.15 3.9 -10.05 3.95 -9.95 Q4.1 -9.6 3.85 -9.1 L3.85 -9.1 3.85 -9.1 3.7 -8.75 3.6 -8.55 3.5 -8.5 3.5 -8.4 Q3.45 -8.25 3.4 -8.05 L3.25 -7.7 2.9 -7.45 2.65 -7.35 2.3 -7.35 2.3 -7.35 2.1 -7.4 2.05 -7.6 2.05 -7.85 Q2.0 -7.7 1.9 -7.55 L1.8 -7.35 1.65 -7.15 Q1.4 -6.9 0.95 -6.85 L0.5 -6.85 Q0.4 -6.7 0.3 -6.55 0.05 -6.35 -0.3 -6.7 L-0.3 -6.7"/>
    </path>
  </g>
</svg>
