<?xml version="1.0" encoding="UTF-8" standalone="no"?>
<svg xmlns:xlink="http://www.w3.org/1999/xlink" height="7.85px" width="6.35px" xmlns="http://www.w3.org/2000/svg">
  <g transform="matrix(1.0, 0.0, 0.0, 1.0, 0.3, 14.35)">
    <path d="M-0.3 -6.7 L-0.3 -6.7 Q0.2 -6.2 0.5 -6.85 L0.8 -6.9 1.05 -6.9 1.4 -7.0 2.05 -7.85 2.05 -7.6 2.1 -7.4 2.3 -7.35 2.65 -7.4 2.8 -7.4 3.0 -7.55 3.1 -7.65 3.2 -7.75 3.3 -7.85 3.4 -8.0 3.45 -8.1 3.45 -8.2 3.5 -8.5 3.6 -8.55 3.7 -8.75 3.75 -8.9 3.85 -9.1 Q4.2 -9.85 3.65 -10.25 L3.55 -10.35 3.4 -10.3 3.35 -10.3 3.3 -10.2 3.2 -10.1 3.1 -10.0 2.85 -9.55 2.85 -9.45 2.75 -9.45 2.75 -9.4 2.65 -9.4 2.35 -9.3 1.85 -9.05 1.65 -8.95 1.15 -8.15 0.85 -8.1 0.65 -8.0 0.55 -8.0 0.35 -7.95 Q-0.35 -7.65 -0.3 -6.8 L-0.3 -6.7" fill="#000000" fill-rule="evenodd" stroke="none">
      <animate attributeName="fill" dur="2s" repeatCount="indefinite" values="#000000;#000001"/>
      <animate attributeName="fill-opacity" dur="2s" repeatCount="indefinite" values="1.0;1.0"/>
      <animate attributeName="d" dur="2s" repeatCount="indefinite" values="M-0.3 -6.7 L-0.3 -6.7 Q0.2 -6.2 0.5 -6.85 L0.8 -6.9 1.05 -6.9 1.4 -7.0 2.05 -7.85 2.05 -7.6 2.1 -7.4 2.3 -7.35 2.65 -7.4 2.8 -7.4 3.0 -7.55 3.1 -7.65 3.2 -7.75 3.3 -7.85 3.4 -8.0 3.45 -8.1 3.45 -8.2 3.5 -8.5 3.6 -8.55 3.7 -8.75 3.75 -8.9 3.85 -9.1 Q4.2 -9.85 3.65 -10.25 L3.55 -10.35 3.4 -10.3 3.35 -10.3 3.3 -10.2 3.2 -10.1 3.1 -10.0 2.85 -9.55 2.85 -9.45 2.75 -9.45 2.75 -9.4 2.65 -9.4 2.35 -9.3 1.85 -9.05 1.65 -8.95 1.15 -8.15 0.85 -8.1 0.65 -8.0 0.55 -8.0 0.35 -7.95 Q-0.35 -7.65 -0.3 -6.8 L-0.3 -6.7;M0.85 -9.55 L0.85 -9.35 Q1.45 -8.95 1.9 -9.35 L2.1 -9.55 2.3 -9.65 2.65 -9.5 3.55 -10.15 3.75 -10.4 3.85 -10.65 3.95 -10.9 4.05 -11.2 4.2 -11.25 4.35 -11.35 4.35 -11.45 4.4 -11.5 4.45 -11.6 4.6 -11.7 4.6 -11.8 4.65 -11.85 4.85 -11.95 4.95 -12.0 5.55 -12.45 5.75 -12.75 5.9 -13.05 Q6.3 -13.85 5.6 -14.35 L5.45 -14.3 5.3 -14.15 5.3 -14.15 5.2 -14.15 5.2 -14.05 5.15 -13.9 4.85 -13.15 4.75 -13.05 4.7 -13.0 4.6 -13.0 4.5 -13.0 4.15 -12.9 3.4 -12.85 3.35 -12.6 3.2 -11.35 3.1 -11.05 3.0 -10.85 2.85 -10.85 2.55 -10.8 Q1.65 -10.45 0.9 -9.8 L0.85 -9.55"/>
    </path>
    <path d="M-0.3 -6.7 L-0.3 -6.8 Q-0.35 -7.65 0.35 -7.95 L0.55 -8.0 0.65 -8.0 0.85 -8.1 1.15 -8.15 1.65 -8.95 1.85 -9.05 2.35 -9.3 2.65 -9.4 2.75 -9.4 2.75 -9.45 2.85 -9.45 2.85 -9.55 3.1 -10.0 3.2 -10.1 3.3 -10.2 3.35 -10.3 3.4 -10.3 3.55 -10.35 3.65 -10.25 Q4.2 -9.85 3.85 -9.1 L3.75 -8.9 3.7 -8.75 3.6 -8.55 3.5 -8.5 3.45 -8.2 3.45 -8.1 3.4 -8.0 3.3 -7.85 3.2 -7.75 3.1 -7.65 3.0 -7.55 2.8 -7.4 2.65 -7.4 2.3 -7.35 2.1 -7.4 2.05 -7.6 2.05 -7.85 1.4 -7.0 1.05 -6.9 0.8 -6.9 0.5 -6.85 Q0.2 -6.2 -0.3 -6.7 L-0.3 -6.7" fill="none" stroke="#000000" stroke-linecap="round" stroke-linejoin="round" stroke-opacity="0.0" stroke-width="1.0">
      <animate attributeName="stroke" dur="2s" repeatCount="indefinite" values="#000000;#000001"/>
      <animate attributeName="stroke-width" dur="2s" repeatCount="indefinite" values="0.0;0.0"/>
      <animate attributeName="fill-opacity" dur="2s" repeatCount="indefinite" values="0.0;0.0"/>
      <animate attributeName="d" dur="2s" repeatCount="indefinite" values="M-0.3 -6.7 L-0.3 -6.8 Q-0.35 -7.65 0.35 -7.95 L0.55 -8.0 0.65 -8.0 0.85 -8.1 1.15 -8.15 1.65 -8.95 1.85 -9.05 2.35 -9.3 2.65 -9.4 2.75 -9.4 2.75 -9.45 2.85 -9.45 2.85 -9.55 3.1 -10.0 3.2 -10.1 3.3 -10.2 3.35 -10.3 3.4 -10.3 3.55 -10.35 3.65 -10.25 Q4.2 -9.85 3.85 -9.1 L3.75 -8.9 3.7 -8.75 3.6 -8.55 3.5 -8.5 3.45 -8.2 3.45 -8.1 3.4 -8.0 3.3 -7.85 3.2 -7.75 3.1 -7.65 3.0 -7.55 2.8 -7.4 2.65 -7.4 2.3 -7.35 2.1 -7.4 2.05 -7.6 2.05 -7.85 1.4 -7.0 1.05 -6.9 0.8 -6.9 0.5 -6.85 Q0.2 -6.2 -0.3 -6.7 L-0.3 -6.7;M0.85 -9.55 L0.9 -9.8 Q1.65 -10.45 2.55 -10.8 L2.85 -10.85 3.0 -10.85 3.1 -11.05 3.2 -11.35 3.35 -12.6 3.4 -12.85 4.15 -12.9 4.5 -13.0 4.6 -13.0 4.7 -13.0 4.75 -13.05 4.85 -13.15 5.15 -13.9 5.2 -14.05 5.2 -14.15 5.3 -14.15 5.3 -14.15 5.45 -14.3 5.6 -14.35 Q6.3 -13.85 5.9 -13.05 L5.75 -12.75 5.55 -12.45 4.95 -12.0 4.85 -11.95 4.65 -11.85 4.6 -11.8 4.6 -11.7 4.45 -11.6 4.4 -11.5 4.35 -11.45 4.35 -11.35 4.2 -11.25 4.05 -11.2 3.95 -10.9 3.85 -10.65 3.75 -10.4 3.55 -10.15 2.65 -9.5 2.3 -9.65 2.1 -9.55 1.9 -9.35 Q1.45 -8.95 0.85 -9.35 L0.85 -9.55"/>
    </path>
  </g>
</svg>
