<?xml version="1.0" encoding="UTF-8" standalone="no"?>
<svg xmlns:xlink="http://www.w3.org/1999/xlink" height="6.85px" width="6.3px" xmlns="http://www.w3.org/2000/svg">
  <g transform="matrix(1.0, 0.0, 0.0, 1.0, -1.85, 9.2)">
    <path d="M1.85 -3.0 L1.85 -3.0 1.9 -2.85 1.9 -2.85 Q2.6 -2.3 2.95 -3.0 L3.05 -3.1 3.1 -3.1 3.4 -3.2 3.5 -3.2 3.6 -3.3 3.65 -3.4 3.7 -3.45 3.7 -3.1 3.7 -3.1 3.75 -2.85 3.85 -2.75 3.85 -2.75 3.95 -2.7 4.4 -2.55 4.6 -2.4 4.8 -2.35 Q5.15 -2.3 5.45 -2.6 L5.45 -2.6 Q5.6 -2.8 5.75 -3.0 L5.8 -3.4 Q5.85 -4.3 5.2 -4.25 L4.6 -4.1 4.6 -4.15 4.65 -4.65 4.6 -4.8 4.0 -5.15 3.8 -5.05 3.7 -4.95 3.4 -4.6 2.8 -4.3 2.25 -3.6 2.15 -3.45 2.1 -3.45 2.0 -3.35 1.9 -3.25 1.9 -3.15 1.85 -3.0" fill="#000000" fill-rule="evenodd" stroke="none">
      <animate attributeName="fill" dur="2s" repeatCount="indefinite" values="#000000;#000001"/>
      <animate attributeName="fill-opacity" dur="2s" repeatCount="indefinite" values="1.0;1.0"/>
      <animate attributeName="d" dur="2s" repeatCount="indefinite" values="M1.85 -3.0 L1.85 -3.0 1.9 -2.85 1.9 -2.85 Q2.6 -2.3 2.95 -3.0 L3.05 -3.1 3.1 -3.1 3.4 -3.2 3.5 -3.2 3.6 -3.3 3.65 -3.4 3.7 -3.45 3.7 -3.1 3.7 -3.1 3.75 -2.85 3.85 -2.75 3.85 -2.75 3.95 -2.7 4.4 -2.55 4.6 -2.4 4.8 -2.35 Q5.15 -2.3 5.45 -2.6 L5.45 -2.6 Q5.6 -2.8 5.75 -3.0 L5.8 -3.4 Q5.85 -4.3 5.2 -4.25 L4.6 -4.1 4.6 -4.15 4.65 -4.65 4.6 -4.8 4.0 -5.15 3.8 -5.05 3.7 -4.95 3.4 -4.6 2.8 -4.3 2.25 -3.6 2.15 -3.45 2.1 -3.45 2.0 -3.35 1.9 -3.25 1.9 -3.15 1.85 -3.0;M4.3 -7.15 L4.25 -6.95 4.25 -6.85 4.3 -6.7 Q5.0 -6.25 5.55 -7.05 L5.75 -7.05 5.75 -7.05 6.1 -7.1 6.2 -7.2 6.25 -7.05 6.25 -6.95 6.35 -6.85 6.65 -6.6 6.65 -6.5 6.65 -6.35 6.65 -6.35 6.7 -6.25 6.7 -6.25 7.15 -5.9 7.25 -5.9 7.15 -5.75 Q6.95 -5.5 7.05 -5.2 L7.15 -5.1 Q7.4 -4.9 7.65 -5.1 L7.95 -5.4 Q8.4 -6.0 7.9 -6.85 L7.75 -7.5 7.65 -7.6 7.1 -7.85 7.1 -7.95 7.0 -8.7 6.75 -9.05 6.55 -9.2 6.1 -8.95 5.75 -8.55 4.8 -7.6 4.65 -7.55 4.65 -7.55 4.55 -7.45 4.4 -7.4 4.4 -7.4 4.3 -7.15"/>
    </path>
    <path d="M1.85 -3.0 L1.9 -3.15 1.9 -3.25 2.0 -3.35 2.1 -3.45 2.15 -3.45 2.25 -3.6 2.8 -4.3 3.4 -4.6 3.7 -4.95 3.8 -5.05 4.0 -5.15 4.6 -4.8 4.65 -4.65 4.6 -4.15 4.6 -4.1 5.2 -4.25 Q5.85 -4.3 5.8 -3.4 L5.75 -3.0 Q5.6 -2.8 5.45 -2.6 L5.45 -2.6 Q5.15 -2.3 4.8 -2.35 L4.6 -2.4 4.4 -2.55 3.95 -2.7 3.85 -2.75 3.85 -2.75 3.75 -2.85 3.7 -3.1 3.7 -3.1 3.7 -3.45 3.65 -3.4 3.6 -3.3 3.5 -3.2 3.4 -3.2 3.1 -3.1 3.05 -3.1 2.95 -3.0 Q2.6 -2.3 1.9 -2.85 L1.9 -2.85 1.85 -3.0 1.85 -3.0" fill="none" stroke="#000000" stroke-linecap="round" stroke-linejoin="round" stroke-opacity="0.0" stroke-width="1.0">
      <animate attributeName="stroke" dur="2s" repeatCount="indefinite" values="#000000;#000001"/>
      <animate attributeName="stroke-width" dur="2s" repeatCount="indefinite" values="0.0;0.0"/>
      <animate attributeName="fill-opacity" dur="2s" repeatCount="indefinite" values="0.0;0.0"/>
      <animate attributeName="d" dur="2s" repeatCount="indefinite" values="M1.85 -3.0 L1.9 -3.15 1.9 -3.25 2.0 -3.35 2.1 -3.45 2.15 -3.45 2.25 -3.6 2.8 -4.3 3.4 -4.6 3.7 -4.95 3.8 -5.05 4.0 -5.15 4.6 -4.8 4.65 -4.65 4.6 -4.15 4.6 -4.1 5.2 -4.25 Q5.85 -4.3 5.8 -3.4 L5.75 -3.0 Q5.6 -2.8 5.45 -2.6 L5.45 -2.6 Q5.15 -2.3 4.8 -2.35 L4.6 -2.4 4.4 -2.55 3.95 -2.7 3.85 -2.75 3.85 -2.75 3.75 -2.85 3.7 -3.1 3.7 -3.1 3.7 -3.45 3.65 -3.4 3.6 -3.3 3.5 -3.2 3.4 -3.2 3.1 -3.1 3.05 -3.1 2.95 -3.0 Q2.6 -2.3 1.9 -2.85 L1.9 -2.85 1.85 -3.0 1.85 -3.0;M4.3 -7.15 L4.4 -7.4 4.4 -7.4 4.55 -7.45 4.65 -7.55 4.65 -7.55 4.8 -7.6 5.75 -8.55 6.1 -8.95 6.55 -9.2 6.75 -9.05 7.0 -8.7 7.1 -7.95 7.1 -7.85 7.65 -7.6 7.75 -7.5 7.9 -6.85 Q8.4 -6.0 7.95 -5.4 L7.65 -5.1 Q7.4 -4.9 7.15 -5.1 L7.05 -5.2 Q6.95 -5.5 7.15 -5.75 L7.25 -5.9 7.15 -5.9 6.7 -6.25 6.7 -6.25 6.65 -6.35 6.65 -6.35 6.65 -6.5 6.65 -6.6 6.35 -6.85 6.25 -6.95 6.25 -7.05 6.2 -7.2 6.1 -7.1 5.75 -7.05 5.75 -7.05 5.55 -7.05 Q5.0 -6.25 4.3 -6.7 L4.25 -6.85 4.25 -6.95 4.3 -7.15"/>
    </path>
  </g>
</svg>
