<?xml version="1.0" encoding="UTF-8" standalone="no"?>
<svg xmlns:xlink="http://www.w3.org/1999/xlink" height="7.3px" width="6.4px" xmlns="http://www.w3.org/2000/svg">
  <g transform="matrix(1.0, 0.0, 0.0, 1.0, -4.25, 12.3)">
    <path d="M4.3 -7.15 Q4.3 -6.9 4.3 -6.7 L4.7 -6.55 Q5.15 -6.8 5.55 -7.05 L5.75 -7.05 6.05 -7.1 6.2 -7.2 6.25 -7.05 6.25 -7.05 6.25 -6.95 6.4 -6.85 6.65 -6.6 6.65 -6.35 6.7 -6.25 6.95 -6.1 7.25 -5.9 7.15 -5.75 7.0 -5.4 7.05 -5.2 Q7.35 -4.85 7.65 -5.1 L8.2 -5.85 7.9 -6.85 7.9 -7.15 7.8 -7.4 7.2 -7.85 7.1 -7.85 7.1 -7.95 Q7.0 -8.35 6.95 -8.75 L6.55 -9.2 Q6.15 -8.85 5.75 -8.55 L5.5 -8.3 5.25 -8.1 5.05 -7.9 4.9 -7.7 4.8 -7.6 4.65 -7.55 4.4 -7.4 4.3 -7.15" fill="#000000" fill-rule="evenodd" stroke="none">
      <animate attributeName="fill" dur="2s" repeatCount="indefinite" values="#000000;#000001"/>
      <animate attributeName="fill-opacity" dur="2s" repeatCount="indefinite" values="1.0;1.0"/>
      <animate attributeName="d" dur="2s" repeatCount="indefinite" values="M4.3 -7.15 Q4.3 -6.9 4.3 -6.7 L4.7 -6.55 Q5.15 -6.8 5.55 -7.05 L5.75 -7.05 6.05 -7.1 6.2 -7.2 6.25 -7.05 6.25 -7.05 6.25 -6.95 6.4 -6.85 6.65 -6.6 6.65 -6.35 6.7 -6.25 6.95 -6.1 7.25 -5.9 7.15 -5.75 7.0 -5.4 7.05 -5.2 Q7.35 -4.85 7.65 -5.1 L8.2 -5.85 7.9 -6.85 7.9 -7.15 7.8 -7.4 7.2 -7.85 7.1 -7.85 7.1 -7.95 Q7.0 -8.35 6.95 -8.75 L6.55 -9.2 Q6.15 -8.85 5.75 -8.55 L5.5 -8.3 5.25 -8.1 5.05 -7.9 4.9 -7.7 4.8 -7.6 4.65 -7.55 4.4 -7.4 4.3 -7.15;M7.3 -9.25 Q7.45 -9.05 7.7 -9.0 L7.9 -9.05 Q8.45 -8.55 8.8 -8.75 L9.0 -8.95 9.1 -9.3 9.2 -9.3 9.25 -9.4 9.25 -9.4 9.35 -9.45 9.45 -9.55 9.95 -9.6 10.15 -9.7 10.25 -9.8 10.45 -10.0 10.55 -10.3 10.55 -10.5 10.65 -10.95 10.65 -11.05 Q10.6 -11.4 10.6 -11.75 L10.0 -12.3 9.35 -11.75 9.3 -11.45 9.2 -11.35 8.9 -11.1 8.85 -10.95 8.85 -10.75 Q8.9 -10.4 8.55 -10.1 L8.6 -10.5 Q8.5 -11.05 7.85 -10.8 L7.75 -10.8 7.7 -10.55 7.7 -10.3 7.6 -10.15 7.45 -9.95 7.35 -9.75 7.3 -9.45 7.3 -9.25"/>
    </path>
    <path d="M4.3 -7.15 L4.4 -7.4 4.65 -7.55 4.8 -7.6 4.9 -7.7 5.05 -7.9 5.25 -8.1 5.5 -8.3 5.75 -8.55 Q6.15 -8.85 6.55 -9.2 L6.95 -8.75 Q7.0 -8.35 7.1 -7.95 L7.1 -7.85 7.2 -7.85 7.8 -7.4 7.9 -7.15 7.9 -6.85 8.2 -5.85 7.65 -5.1 Q7.35 -4.85 7.05 -5.2 L7.0 -5.4 7.15 -5.75 7.25 -5.9 6.95 -6.1 6.7 -6.25 6.65 -6.35 6.65 -6.6 6.4 -6.85 6.25 -6.95 6.25 -7.05 6.25 -7.05 6.2 -7.2 6.05 -7.1 5.75 -7.05 5.55 -7.05 Q5.15 -6.8 4.7 -6.55 L4.3 -6.7 Q4.3 -6.9 4.3 -7.15" fill="none" stroke="#000000" stroke-linecap="round" stroke-linejoin="round" stroke-opacity="0.0" stroke-width="1.0">
      <animate attributeName="stroke" dur="2s" repeatCount="indefinite" values="#000000;#000001"/>
      <animate attributeName="stroke-width" dur="2s" repeatCount="indefinite" values="0.0;0.0"/>
      <animate attributeName="fill-opacity" dur="2s" repeatCount="indefinite" values="0.0;0.0"/>
      <animate attributeName="d" dur="2s" repeatCount="indefinite" values="M4.3 -7.15 L4.4 -7.4 4.65 -7.55 4.8 -7.6 4.9 -7.7 5.05 -7.9 5.25 -8.1 5.5 -8.3 5.75 -8.55 Q6.15 -8.85 6.55 -9.2 L6.95 -8.75 Q7.0 -8.35 7.1 -7.95 L7.1 -7.85 7.2 -7.85 7.8 -7.4 7.9 -7.15 7.9 -6.85 8.2 -5.85 7.65 -5.1 Q7.35 -4.85 7.05 -5.2 L7.0 -5.4 7.15 -5.75 7.25 -5.9 6.95 -6.1 6.7 -6.25 6.65 -6.35 6.65 -6.6 6.4 -6.85 6.25 -6.95 6.25 -7.05 6.25 -7.05 6.2 -7.2 6.05 -7.1 5.75 -7.05 5.55 -7.05 Q5.15 -6.8 4.7 -6.55 L4.3 -6.7 Q4.3 -6.9 4.3 -7.15;M7.3 -9.25 L7.3 -9.45 7.35 -9.75 7.45 -9.95 7.6 -10.15 7.7 -10.3 7.7 -10.55 7.75 -10.8 7.85 -10.8 Q8.5 -11.05 8.6 -10.5 L8.55 -10.1 Q8.9 -10.4 8.85 -10.75 L8.85 -10.95 8.9 -11.1 9.2 -11.35 9.3 -11.45 9.35 -11.75 10.0 -12.3 10.6 -11.75 Q10.6 -11.4 10.65 -11.05 L10.65 -10.95 10.55 -10.5 10.55 -10.3 10.45 -10.0 10.25 -9.8 10.15 -9.7 9.95 -9.6 9.45 -9.55 9.35 -9.45 9.25 -9.4 9.25 -9.4 9.2 -9.3 9.1 -9.3 9.0 -8.95 8.8 -8.75 Q8.45 -8.55 7.9 -9.05 L7.7 -9.0 Q7.45 -9.05 7.3 -9.25"/>
    </path>
  </g>
</svg>
