<?xml version="1.0" encoding="UTF-8" standalone="no"?>
<svg xmlns:xlink="http://www.w3.org/1999/xlink" height="21.55px" width="15.65px" xmlns="http://www.w3.org/2000/svg">
  <g transform="matrix(1.0, 0.0, 0.0, 1.0, 5.9, 17.1)">
    <path d="M-5.85 -0.1 L-5.85 0.0 Q-6.0 1.9 -4.35 3.05 L-3.8 3.4 Q-2.4 4.2 -0.8 4.4 L0.2 4.45 Q1.55 4.4 2.6 3.6 L3.05 2.7 3.3 2.35 3.4 2.25 Q3.55 1.6 3.85 1.0 L4.15 0.5 4.65 -0.2 5.35 -1.0 5.85 -1.65 7.35 -3.25 7.65 -3.5 7.75 -3.9 8.2 -5.0 8.5 -5.8 8.7 -6.2 9.2 -7.25 8.35 -6.55 8.25 -6.45 8.25 -6.45 7.45 -5.85 7.25 -5.75 6.65 -5.4 6.25 -5.2 6.1 -5.1 5.2 -4.25 Q4.45 -3.9 3.45 -4.25 3.25 -4.3 3.2 -4.5 L3.2 -4.6 Q3.35 -5.3 4.0 -5.75 L4.8 -6.25 5.1 -6.45 5.9 -6.9 6.2 -7.1 7.2 -7.7 7.25 -7.8 7.7 -8.5 7.75 -8.65 7.8 -8.75 7.9 -8.85 7.95 -9.25 7.95 -9.25 8.1 -9.85 8.15 -10.85 8.1 -11.0 Q7.7 -11.4 7.65 -12.05 L7.65 -12.15 7.6 -12.65 7.55 -13.05 Q7.5 -13.6 7.45 -14.15 7.3 -14.6 7.2 -15.0 L7.2 -15.05 7.1 -15.25 6.9 -14.95 6.35 -13.95 6.05 -13.55 5.95 -13.45 5.4 -13.0 5.25 -12.9 4.25 -12.95 3.85 -13.2 Q3.4 -13.55 3.45 -14.15 L3.45 -14.5 3.65 -15.6 4.2 -16.5 4.7 -17.0 4.0 -16.85 3.95 -16.85 3.95 -16.85 3.25 -16.05 Q2.3 -14.85 1.4 -13.65 0.8 -12.8 0.65 -11.8 L0.55 -11.2 0.4 -9.9 0.1 -8.95 -0.25 -8.4 -2.05 -6.8 -2.25 -6.65 Q-3.2 -6.0 -3.8 -5.0 L-4.0 -4.75 -4.3 -4.45 -4.5 -4.2 -4.9 -3.8 -4.9 -3.8 Q-5.4 -1.95 -5.85 -0.1" fill="url(#gradient0)" fill-rule="evenodd" stroke="none">
      <animate attributeName="d" dur="2s" repeatCount="indefinite" values="M-5.85 -0.1 L-5.85 0.0 Q-6.0 1.9 -4.35 3.05 L-3.8 3.4 Q-2.4 4.2 -0.8 4.4 L0.2 4.45 Q1.55 4.4 2.6 3.6 L3.05 2.7 3.3 2.35 3.4 2.25 Q3.55 1.6 3.85 1.0 L4.15 0.5 4.65 -0.2 5.35 -1.0 5.85 -1.65 7.35 -3.25 7.65 -3.5 7.75 -3.9 8.2 -5.0 8.5 -5.8 8.7 -6.2 9.2 -7.25 8.35 -6.55 8.25 -6.45 8.25 -6.45 7.45 -5.85 7.25 -5.75 6.65 -5.4 6.25 -5.2 6.1 -5.1 5.2 -4.25 Q4.45 -3.9 3.45 -4.25 3.25 -4.3 3.2 -4.5 L3.2 -4.6 Q3.35 -5.3 4.0 -5.75 L4.8 -6.25 5.1 -6.45 5.9 -6.9 6.2 -7.1 7.2 -7.7 7.25 -7.8 7.7 -8.5 7.75 -8.65 7.8 -8.75 7.9 -8.85 7.95 -9.25 7.95 -9.25 8.1 -9.85 8.15 -10.85 8.1 -11.0 Q7.7 -11.4 7.65 -12.05 L7.65 -12.15 7.6 -12.65 7.55 -13.05 Q7.5 -13.6 7.45 -14.15 7.3 -14.6 7.2 -15.0 L7.2 -15.05 7.1 -15.25 6.9 -14.95 6.35 -13.95 6.05 -13.55 5.95 -13.45 5.4 -13.0 5.25 -12.9 4.25 -12.95 3.85 -13.2 Q3.4 -13.55 3.45 -14.15 L3.45 -14.5 3.65 -15.6 4.2 -16.5 4.7 -17.0 4.0 -16.85 3.95 -16.85 3.95 -16.85 3.25 -16.05 Q2.3 -14.85 1.4 -13.65 0.8 -12.8 0.65 -11.8 L0.55 -11.2 0.4 -9.9 0.1 -8.95 -0.25 -8.4 -2.05 -6.8 -2.25 -6.65 Q-3.2 -6.0 -3.8 -5.0 L-4.0 -4.75 -4.3 -4.45 -4.5 -4.2 -4.9 -3.8 -4.9 -3.8 Q-5.4 -1.95 -5.85 -0.1;M-5.85 -0.1 L-5.85 -0.1 Q-6.05 1.65 -4.7 2.75 L-4.35 3.05 Q-3.05 3.9 -1.6 4.25 L-0.8 4.4 Q0.4 4.3 1.55 4.2 L2.3 3.8 2.7 3.5 2.9 3.3 Q3.35 2.9 3.8 2.5 L4.05 2.2 4.75 1.3 5.05 0.4 5.15 -0.35 5.25 -2.45 5.25 -2.95 5.25 -3.35 5.3 -4.3 5.45 -5.2 5.55 -5.35 5.75 -6.45 6.15 -7.2 6.2 -7.3 6.4 -7.55 6.95 -8.25 7.05 -8.35 7.2 -8.7 7.35 -8.95 7.45 -9.15 8.15 -10.2 Q8.25 -11.0 8.7 -11.6 8.85 -11.75 9.0 -11.9 L9.0 -12.0 Q9.25 -12.7 9.45 -13.35 L9.7 -14.05 9.75 -14.3 9.75 -15.1 9.5 -15.45 8.8 -14.8 8.6 -14.6 8.0 -14.0 8.0 -13.9 8.0 -13.85 7.9 -13.75 7.65 -13.45 7.65 -13.45 7.4 -13.1 6.65 -12.5 6.55 -12.4 Q6.15 -12.3 5.75 -12.2 L5.65 -12.2 5.3 -12.15 5.1 -12.15 Q4.4 -12.1 4.2 -12.55 4.05 -12.8 4.05 -13.2 L4.05 -13.3 4.05 -13.45 4.3 -13.95 5.15 -14.9 5.3 -15.2 5.3 -15.3 5.5 -15.95 5.5 -16.35 5.6 -17.1 5.25 -17.1 Q4.85 -17.05 4.45 -17.0 L4.15 -16.9 3.75 -16.25 3.2 -15.7 2.8 -15.2 2.4 -14.7 2.4 -14.7 2.3 -14.6 2.0 -14.15 Q1.25 -12.85 1.4 -11.35 1.5 -10.25 1.05 -9.35 L0.8 -8.85 0.1 -7.95 -0.3 -7.45 -0.7 -7.05 -2.55 -5.65 -2.75 -5.55 Q-3.6 -4.95 -4.4 -4.4 L-4.7 -4.1 -4.8 -4.0 -4.9 -3.8 -5.05 -3.4 -5.05 -3.4 Q-5.65 -1.8 -5.85 -0.1"/>
    </path>
    <path d="M-5.85 -0.1 Q-5.4 -1.95 -4.9 -3.8 L-4.9 -3.8 -4.5 -4.2 -4.3 -4.45 -4.0 -4.75 -3.8 -5.0 Q-3.2 -6.0 -2.25 -6.65 L-2.05 -6.8 -0.25 -8.4 0.1 -8.95 0.4 -9.9 0.55 -11.2 0.65 -11.8 Q0.8 -12.8 1.4 -13.65 2.3 -14.85 3.25 -16.05 L3.95 -16.85 3.95 -16.85 4.0 -16.85 4.7 -17.0 4.2 -16.5 3.65 -15.6 3.45 -14.5 3.45 -14.15 Q3.4 -13.55 3.85 -13.2 L4.25 -12.95 5.25 -12.9 5.4 -13.0 5.95 -13.45 6.05 -13.55 6.35 -13.95 6.9 -14.95 7.1 -15.25 7.2 -15.05 7.2 -15.0 Q7.3 -14.6 7.45 -14.15 7.5 -13.6 7.55 -13.05 L7.6 -12.65 7.65 -12.15 7.65 -12.05 Q7.7 -11.4 8.1 -11.0 L8.15 -10.85 8.1 -9.85 7.95 -9.25 7.95 -9.25 7.9 -8.85 7.8 -8.75 7.75 -8.65 7.7 -8.5 7.25 -7.8 7.2 -7.7 6.2 -7.1 5.9 -6.9 5.1 -6.45 4.8 -6.25 4.0 -5.75 Q3.35 -5.3 3.2 -4.6 L3.2 -4.5 Q3.25 -4.3 3.45 -4.25 4.45 -3.9 5.2 -4.25 L6.1 -5.1 6.25 -5.2 6.65 -5.4 7.25 -5.75 7.45 -5.85 8.25 -6.45 8.25 -6.45 8.35 -6.55 9.2 -7.25 8.7 -6.2 8.5 -5.8 8.2 -5.0 7.75 -3.9 7.65 -3.5 7.35 -3.25 5.85 -1.65 5.35 -1.0 4.65 -0.2 4.15 0.5 3.85 1.0 Q3.55 1.6 3.4 2.25 L3.3 2.35 3.05 2.7 2.6 3.6 Q1.55 4.4 0.2 4.45 L-0.8 4.4 Q-2.4 4.2 -3.8 3.4 L-4.35 3.05 Q-6.0 1.9 -5.85 0.0 L-5.85 -0.1" fill="none" stroke="#000000" stroke-linecap="round" stroke-linejoin="round" stroke-opacity="0.0" stroke-width="1.0">
      <animate attributeName="stroke" dur="2s" repeatCount="indefinite" values="#000000;#000001"/>
      <animate attributeName="stroke-width" dur="2s" repeatCount="indefinite" values="0.0;0.0"/>
      <animate attributeName="fill-opacity" dur="2s" repeatCount="indefinite" values="0.0;0.0"/>
      <animate attributeName="d" dur="2s" repeatCount="indefinite" values="M-5.85 -0.1 Q-5.4 -1.95 -4.9 -3.8 L-4.9 -3.8 -4.5 -4.2 -4.3 -4.45 -4.0 -4.75 -3.8 -5.0 Q-3.2 -6.0 -2.25 -6.65 L-2.05 -6.8 -0.25 -8.4 0.1 -8.95 0.4 -9.9 0.55 -11.2 0.65 -11.8 Q0.8 -12.8 1.4 -13.65 2.3 -14.85 3.25 -16.05 L3.95 -16.85 3.95 -16.85 4.0 -16.85 4.7 -17.0 4.2 -16.5 3.65 -15.6 3.45 -14.5 3.45 -14.15 Q3.4 -13.55 3.85 -13.2 L4.25 -12.95 5.25 -12.9 5.4 -13.0 5.95 -13.45 6.05 -13.55 6.35 -13.95 6.9 -14.95 7.1 -15.25 7.2 -15.05 7.2 -15.0 Q7.3 -14.6 7.45 -14.15 7.5 -13.6 7.55 -13.05 L7.6 -12.65 7.65 -12.15 7.65 -12.05 Q7.7 -11.4 8.1 -11.0 L8.15 -10.85 8.1 -9.85 7.95 -9.25 7.95 -9.25 7.9 -8.85 7.8 -8.75 7.75 -8.65 7.7 -8.5 7.25 -7.8 7.2 -7.7 6.2 -7.1 5.9 -6.9 5.1 -6.45 4.8 -6.25 4.0 -5.75 Q3.35 -5.3 3.2 -4.6 L3.2 -4.5 Q3.25 -4.3 3.45 -4.25 4.45 -3.9 5.2 -4.25 L6.1 -5.1 6.25 -5.2 6.65 -5.4 7.25 -5.75 7.45 -5.85 8.25 -6.45 8.25 -6.45 8.35 -6.55 9.2 -7.25 8.7 -6.2 8.5 -5.8 8.2 -5.0 7.75 -3.9 7.65 -3.5 7.35 -3.25 5.85 -1.65 5.35 -1.0 4.65 -0.2 4.15 0.5 3.85 1.0 Q3.55 1.6 3.4 2.25 L3.3 2.35 3.05 2.7 2.6 3.6 Q1.55 4.4 0.2 4.45 L-0.8 4.4 Q-2.4 4.2 -3.8 3.4 L-4.35 3.05 Q-6.0 1.9 -5.85 0.0 L-5.85 -0.1;M-5.85 -0.1 Q-5.65 -1.8 -5.05 -3.4 L-5.05 -3.4 -4.9 -3.8 -4.8 -4.0 -4.7 -4.1 -4.4 -4.4 Q-3.6 -4.95 -2.75 -5.55 L-2.55 -5.65 -0.7 -7.05 -0.3 -7.45 0.1 -7.95 0.8 -8.85 1.05 -9.35 Q1.5 -10.25 1.4 -11.35 1.25 -12.85 2.0 -14.15 L2.3 -14.6 2.4 -14.7 2.4 -14.7 2.8 -15.2 3.2 -15.7 3.75 -16.25 4.15 -16.9 4.45 -17.0 Q4.85 -17.05 5.25 -17.1 L5.6 -17.1 5.5 -16.35 5.5 -15.95 5.3 -15.3 5.3 -15.2 5.15 -14.9 4.3 -13.95 4.05 -13.45 4.05 -13.3 4.05 -13.2 Q4.05 -12.8 4.2 -12.55 4.4 -12.1 5.1 -12.15 L5.3 -12.15 5.65 -12.2 5.75 -12.2 Q6.15 -12.3 6.55 -12.4 L6.65 -12.5 7.4 -13.1 7.65 -13.45 7.65 -13.45 7.9 -13.75 8.0 -13.85 8.0 -13.9 8.0 -14.0 8.6 -14.6 8.8 -14.8 9.5 -15.45 9.75 -15.1 9.75 -14.3 9.7 -14.05 9.45 -13.35 Q9.25 -12.7 9.0 -12.0 L9.0 -11.9 Q8.85 -11.75 8.7 -11.6 8.25 -11.0 8.15 -10.2 L7.45 -9.15 7.35 -8.95 7.2 -8.7 7.05 -8.35 6.95 -8.25 6.4 -7.55 6.2 -7.3 6.15 -7.2 5.75 -6.45 5.55 -5.35 5.45 -5.2 5.3 -4.3 5.25 -3.35 5.25 -2.95 5.25 -2.45 5.15 -0.35 5.05 0.4 4.75 1.3 4.05 2.2 3.8 2.5 Q3.35 2.9 2.9 3.3 L2.7 3.5 2.3 3.8 1.55 4.2 Q0.4 4.3 -0.8 4.4 L-1.6 4.25 Q-3.05 3.9 -4.35 3.05 L-4.7 2.75 Q-6.05 1.65 -5.85 -0.1 L-5.85 -0.1"/>
    </path>
  </g>
  <defs>
    <radialGradient cx="0" cy="0" gradientTransform="matrix(0.0091, -0.0105, 0.0071, 0.0061, -0.3, -0.65)" gradientUnits="userSpaceOnUse" id="gradient0" r="819.2" spreadMethod="pad">
      <animateTransform additive="replace" attributeName="gradientTransform" dur="2s" from="1" repeatCount="indefinite" to="1" type="scale"/>
      <animateTransform additive="sum" attributeName="gradientTransform" dur="2s" from="-0.3 -0.65" repeatCount="indefinite" to="-0.3 -0.65" type="translate"/>
      <animateTransform additive="sum" attributeName="gradientTransform" dur="2s" from="-49.1111" repeatCount="indefinite" to="-49.1111" type="rotate"/>
      <animateTransform additive="sum" attributeName="gradientTransform" dur="2s" from="0.0138 0.0094" repeatCount="indefinite" to="0.0138 0.0094" type="scale"/>
      <animateTransform additive="sum" attributeName="gradientTransform" dur="2s" from="0.0369" repeatCount="indefinite" to="0.0369" type="skewX"/>
      <stop offset="0.0" stop-color="#fefe0c">
        <animate attributeName="offset" dur="2s" repeatCount="indefinite" values="0.0;0.0"/>
        <animate attributeName="stop-color" dur="2s" repeatCount="indefinite" values="#fefe0c;#fefe0d"/>
        <animate attributeName="stop-opacity" dur="2s" repeatCount="indefinite" values="1.0;1.0"/>
      </stop>
      <stop offset="0.5764705882352941" stop-color="#ffba2b">
        <animate attributeName="offset" dur="2s" repeatCount="indefinite" values="0.5764705882352941;0.5764705882352941"/>
        <animate attributeName="stop-color" dur="2s" repeatCount="indefinite" values="#ffba2b;#ffba2c"/>
        <animate attributeName="stop-opacity" dur="2s" repeatCount="indefinite" values="1.0;1.0"/>
      </stop>
      <stop offset="1.0" stop-color="#ff720b">
        <animate attributeName="offset" dur="2s" repeatCount="indefinite" values="1.0;1.0"/>
        <animate attributeName="stop-color" dur="2s" repeatCount="indefinite" values="#ff720b;#ff720c"/>
        <animate attributeName="stop-opacity" dur="2s" repeatCount="indefinite" values="1.0;1.0"/>
      </stop>
    </radialGradient>
  </defs>
</svg>
