<?xml version="1.0" encoding="UTF-8" standalone="no"?>
<svg xmlns:xlink="http://www.w3.org/1999/xlink" height="21.55px" width="16.0px" xmlns="http://www.w3.org/2000/svg">
  <g transform="matrix(1.0, 0.0, 0.0, 1.0, 5.85, 17.1)">
    <path d="M-5.85 -0.1 L-5.65 1.4 -5.5 1.8 -4.35 3.05 Q-3.25 3.75 -2.05 4.1 L-0.8 4.4 1.65 4.15 2.7 3.5 2.9 3.3 3.8 2.5 3.8 2.5 4.05 2.2 4.75 1.3 5.05 0.4 5.05 0.0 5.15 -0.75 5.25 -2.65 5.25 -3.35 Q5.35 -4.15 5.4 -4.9 L5.45 -5.2 5.55 -5.35 5.55 -5.35 Q5.55 -6.35 6.15 -7.2 L6.4 -7.55 6.6 -7.8 6.65 -7.9 6.95 -8.25 7.05 -8.35 7.05 -8.35 7.2 -8.7 7.35 -8.9 7.35 -9.0 8.15 -10.2 8.2 -10.5 8.2 -10.6 Q8.4 -11.35 9.0 -11.9 L9.25 -12.8 Q9.5 -13.45 9.7 -14.05 L9.75 -14.2 9.75 -14.3 9.75 -15.1 9.5 -15.45 9.5 -15.45 Q9.0 -14.95 8.5 -14.5 L8.1 -14.1 7.65 -13.45 7.15 -12.8 Q6.65 -12.35 5.95 -12.2 L5.75 -12.2 5.3 -12.15 Q4.1 -12.0 4.05 -13.05 L4.05 -13.3 4.3 -13.95 4.5 -14.15 5.15 -14.9 5.3 -15.2 5.5 -16.35 5.5 -16.65 5.6 -17.1 5.5 -17.1 4.15 -16.9 3.2 -15.65 2.9 -15.3 2.3 -14.6 2.0 -14.15 1.8 -13.75 1.6 -13.25 Q1.3 -12.35 1.4 -11.35 L1.4 -10.9 Q1.4 -9.8 0.8 -8.85 L0.0 -7.85 -0.1 -7.75 -0.3 -7.45 Q-1.05 -6.6 -2.05 -6.0 L-2.75 -5.55 -3.25 -5.25 Q-4.05 -4.6 -4.8 -4.0 L-4.9 -3.8 -4.9 -3.8 Q-5.25 -2.75 -5.55 -1.75 L-5.7 -1.05 -5.8 -0.4 -5.85 -0.1" fill="url(#gradient0)" fill-rule="evenodd" stroke="none">
      <animate attributeName="d" dur="2s" repeatCount="indefinite" values="M-5.85 -0.1 L-5.65 1.4 -5.5 1.8 -4.35 3.05 Q-3.25 3.75 -2.05 4.1 L-0.8 4.4 1.65 4.15 2.7 3.5 2.9 3.3 3.8 2.5 3.8 2.5 4.05 2.2 4.75 1.3 5.05 0.4 5.05 0.0 5.15 -0.75 5.25 -2.65 5.25 -3.35 Q5.35 -4.15 5.4 -4.9 L5.45 -5.2 5.55 -5.35 5.55 -5.35 Q5.55 -6.35 6.15 -7.2 L6.4 -7.55 6.6 -7.8 6.65 -7.9 6.95 -8.25 7.05 -8.35 7.05 -8.35 7.2 -8.7 7.35 -8.9 7.35 -9.0 8.15 -10.2 8.2 -10.5 8.2 -10.6 Q8.4 -11.35 9.0 -11.9 L9.25 -12.8 Q9.5 -13.45 9.7 -14.05 L9.75 -14.2 9.75 -14.3 9.75 -15.1 9.5 -15.45 9.5 -15.45 Q9.0 -14.95 8.5 -14.5 L8.1 -14.1 7.65 -13.45 7.15 -12.8 Q6.65 -12.35 5.95 -12.2 L5.75 -12.2 5.3 -12.15 Q4.1 -12.0 4.05 -13.05 L4.05 -13.3 4.3 -13.95 4.5 -14.15 5.15 -14.9 5.3 -15.2 5.5 -16.35 5.5 -16.65 5.6 -17.1 5.5 -17.1 4.15 -16.9 3.2 -15.65 2.9 -15.3 2.3 -14.6 2.0 -14.15 1.8 -13.75 1.6 -13.25 Q1.3 -12.35 1.4 -11.35 L1.4 -10.9 Q1.4 -9.8 0.8 -8.85 L0.0 -7.85 -0.1 -7.75 -0.3 -7.45 Q-1.05 -6.6 -2.05 -6.0 L-2.75 -5.55 -3.25 -5.25 Q-4.05 -4.6 -4.8 -4.0 L-4.9 -3.8 -4.9 -3.8 Q-5.25 -2.75 -5.55 -1.75 L-5.7 -1.05 -5.8 -0.4 -5.85 -0.1;M-5.15 -3.05 L-5.05 -1.45 -4.95 -0.8 -3.7 0.7 Q-2.75 1.5 -1.5 1.9 L0.0 1.9 2.6 1.8 4.1 1.4 4.4 1.25 5.6 0.6 5.65 0.6 5.95 0.2 6.6 -0.8 7.1 -1.85 7.3 -2.45 7.3 -3.25 7.25 -5.35 7.25 -6.0 Q7.35 -6.85 7.95 -7.55 L8.05 -7.7 8.1 -7.95 8.2 -8.25 Q8.4 -9.3 8.95 -10.1 L9.4 -10.6 9.6 -10.8 9.65 -10.9 9.95 -11.3 10.05 -11.45 10.05 -11.45 10.05 -12.15 10.05 -12.6 10.05 -12.7 10.1 -14.1 10.15 -14.35 10.05 -14.55 Q9.5 -13.9 9.0 -13.3 L8.5 -12.45 Q8.1 -11.7 7.4 -11.3 L7.2 -11.2 6.9 -11.1 6.1 -11.15 5.75 -11.45 5.65 -11.6 Q5.3 -12.1 5.4 -12.8 L5.5 -13.45 5.95 -14.3 6.7 -15.05 Q7.45 -15.6 7.75 -16.45 L7.65 -16.45 6.95 -16.45 Q6.05 -16.35 5.05 -15.7 L4.95 -15.6 4.15 -15.15 3.85 -15.0 3.45 -14.0 3.25 -13.5 2.75 -12.1 2.65 -11.75 2.6 -11.3 2.6 -11.2 2.7 -9.65 2.45 -7.65 2.3 -7.3 1.45 -6.55 0.55 -6.65 0.2 -6.9 -0.2 -7.4 Q-0.6 -8.3 -0.6 -9.35 L-0.6 -9.75 Q-0.5 -10.9 -0.45 -12.05 L-0.4 -13.6 -0.5 -13.65 -0.7 -13.3 Q-1.2 -12.05 -1.7 -10.8 L-1.95 -9.85 -2.15 -9.2 Q-2.2 -7.85 -2.5 -6.6 L-2.6 -6.3 -2.6 -6.3 Q-2.9 -5.2 -3.8 -4.5 L-4.4 -4.0 -5.05 -3.35 -5.15 -3.05"/>
    </path>
    <path d="M-5.85 -0.1 L-5.8 -0.4 -5.7 -1.05 -5.55 -1.75 Q-5.25 -2.75 -4.9 -3.8 L-4.9 -3.8 -4.8 -4.0 Q-4.05 -4.6 -3.25 -5.25 L-2.75 -5.55 -2.05 -6.0 Q-1.05 -6.6 -0.3 -7.45 L-0.1 -7.75 0.0 -7.85 0.8 -8.85 Q1.4 -9.8 1.4 -10.9 L1.4 -11.35 Q1.3 -12.35 1.6 -13.25 L1.8 -13.75 2.0 -14.15 2.3 -14.6 2.9 -15.3 3.2 -15.65 4.15 -16.9 5.5 -17.1 5.6 -17.1 5.5 -16.65 5.5 -16.35 5.3 -15.2 5.15 -14.9 4.5 -14.15 4.3 -13.95 4.05 -13.3 4.05 -13.05 Q4.1 -12.0 5.3 -12.15 L5.75 -12.2 5.95 -12.2 Q6.65 -12.35 7.15 -12.8 L7.65 -13.45 8.1 -14.1 8.5 -14.5 Q9.0 -14.95 9.5 -15.45 L9.5 -15.45 9.75 -15.1 9.75 -14.3 9.75 -14.2 9.7 -14.05 Q9.5 -13.45 9.25 -12.8 L9.0 -11.9 Q8.4 -11.35 8.2 -10.6 L8.2 -10.5 8.15 -10.2 7.35 -9.0 7.35 -8.9 7.2 -8.7 7.05 -8.35 7.05 -8.35 6.95 -8.25 6.65 -7.9 6.6 -7.8 6.4 -7.55 6.15 -7.2 Q5.55 -6.35 5.55 -5.35 L5.55 -5.35 5.45 -5.2 5.4 -4.9 Q5.35 -4.15 5.25 -3.35 L5.25 -2.65 5.15 -0.75 5.05 0.0 5.05 0.4 4.75 1.3 4.05 2.2 3.8 2.5 3.8 2.5 2.9 3.3 2.7 3.5 1.65 4.15 -0.8 4.4 -2.05 4.1 Q-3.25 3.75 -4.35 3.05 L-5.5 1.8 -5.65 1.4 -5.85 -0.1" fill="none" stroke="#000000" stroke-linecap="round" stroke-linejoin="round" stroke-opacity="0.0" stroke-width="1.0">
      <animate attributeName="stroke" dur="2s" repeatCount="indefinite" values="#000000;#000001"/>
      <animate attributeName="stroke-width" dur="2s" repeatCount="indefinite" values="0.0;0.0"/>
      <animate attributeName="fill-opacity" dur="2s" repeatCount="indefinite" values="0.0;0.0"/>
      <animate attributeName="d" dur="2s" repeatCount="indefinite" values="M-5.85 -0.1 L-5.8 -0.4 -5.7 -1.05 -5.55 -1.75 Q-5.25 -2.75 -4.9 -3.8 L-4.9 -3.8 -4.8 -4.0 Q-4.05 -4.6 -3.25 -5.25 L-2.75 -5.55 -2.05 -6.0 Q-1.05 -6.6 -0.3 -7.45 L-0.1 -7.75 0.0 -7.85 0.8 -8.85 Q1.4 -9.8 1.4 -10.9 L1.4 -11.35 Q1.3 -12.35 1.6 -13.25 L1.8 -13.75 2.0 -14.15 2.3 -14.6 2.9 -15.3 3.2 -15.65 4.15 -16.9 5.5 -17.1 5.6 -17.1 5.5 -16.65 5.5 -16.35 5.3 -15.2 5.15 -14.9 4.5 -14.15 4.3 -13.95 4.05 -13.3 4.05 -13.05 Q4.1 -12.0 5.3 -12.15 L5.75 -12.2 5.95 -12.2 Q6.65 -12.35 7.15 -12.8 L7.65 -13.45 8.1 -14.1 8.5 -14.5 Q9.0 -14.95 9.5 -15.45 L9.5 -15.45 9.75 -15.1 9.75 -14.3 9.75 -14.2 9.7 -14.05 Q9.5 -13.45 9.25 -12.8 L9.0 -11.9 Q8.4 -11.35 8.2 -10.6 L8.2 -10.5 8.15 -10.2 7.35 -9.0 7.35 -8.9 7.2 -8.7 7.05 -8.35 7.05 -8.35 6.95 -8.25 6.65 -7.9 6.6 -7.8 6.4 -7.55 6.15 -7.2 Q5.55 -6.35 5.55 -5.35 L5.55 -5.35 5.45 -5.2 5.4 -4.9 Q5.35 -4.15 5.25 -3.35 L5.25 -2.65 5.15 -0.75 5.05 0.0 5.05 0.4 4.75 1.3 4.05 2.2 3.8 2.5 3.8 2.5 2.9 3.3 2.7 3.5 1.65 4.15 -0.8 4.4 -2.05 4.1 Q-3.25 3.75 -4.35 3.05 L-5.5 1.8 -5.65 1.4 -5.85 -0.1;M-5.15 -3.05 L-5.05 -3.35 -4.4 -4.0 -3.8 -4.5 Q-2.9 -5.2 -2.6 -6.3 L-2.6 -6.3 -2.5 -6.6 Q-2.2 -7.85 -2.15 -9.2 L-1.95 -9.85 -1.7 -10.8 Q-1.2 -12.05 -0.7 -13.3 L-0.5 -13.65 -0.4 -13.6 -0.45 -12.05 Q-0.5 -10.9 -0.6 -9.75 L-0.6 -9.35 Q-0.6 -8.3 -0.2 -7.4 L0.2 -6.9 0.55 -6.65 1.45 -6.55 2.3 -7.3 2.45 -7.65 2.7 -9.65 2.6 -11.2 2.6 -11.3 2.65 -11.75 2.75 -12.1 3.25 -13.5 3.45 -14.0 3.85 -15.0 4.15 -15.15 4.95 -15.6 5.05 -15.7 Q6.05 -16.35 6.95 -16.45 L7.65 -16.45 7.75 -16.45 Q7.45 -15.6 6.7 -15.05 L5.95 -14.3 5.5 -13.45 5.4 -12.8 Q5.3 -12.1 5.65 -11.6 L5.75 -11.45 6.1 -11.15 6.9 -11.1 7.2 -11.2 7.4 -11.3 Q8.1 -11.7 8.5 -12.45 L9.0 -13.3 Q9.5 -13.9 10.05 -14.55 L10.15 -14.35 10.1 -14.1 10.05 -12.7 10.05 -12.6 10.05 -12.15 10.05 -11.45 10.05 -11.45 9.95 -11.3 9.65 -10.9 9.6 -10.8 9.4 -10.6 8.95 -10.1 Q8.4 -9.3 8.2 -8.25 L8.1 -7.95 8.05 -7.7 7.95 -7.55 Q7.35 -6.85 7.25 -6.0 L7.25 -5.35 7.3 -3.25 7.3 -2.45 7.1 -1.85 6.6 -0.8 5.95 0.2 5.65 0.6 5.6 0.6 4.4 1.25 4.1 1.4 2.6 1.8 0.0 1.9 -1.5 1.9 Q-2.75 1.5 -3.7 0.7 L-4.95 -0.8 -5.05 -1.45 -5.15 -3.05"/>
    </path>
  </g>
  <defs>
    <radialGradient cx="0" cy="0" gradientTransform="matrix(0.0091, -0.0105, 0.0071, 0.0061, -0.3, -0.65)" gradientUnits="userSpaceOnUse" id="gradient0" r="819.2" spreadMethod="pad">
      <animateTransform additive="replace" attributeName="gradientTransform" dur="2s" from="1" repeatCount="indefinite" to="1" type="scale"/>
      <animateTransform additive="sum" attributeName="gradientTransform" dur="2s" from="-0.3 -0.65" repeatCount="indefinite" to="-0.3 -0.65" type="translate"/>
      <animateTransform additive="sum" attributeName="gradientTransform" dur="2s" from="-49.1111" repeatCount="indefinite" to="-49.1111" type="rotate"/>
      <animateTransform additive="sum" attributeName="gradientTransform" dur="2s" from="0.0138 0.0094" repeatCount="indefinite" to="0.0138 0.0094" type="scale"/>
      <animateTransform additive="sum" attributeName="gradientTransform" dur="2s" from="0.0369" repeatCount="indefinite" to="0.0369" type="skewX"/>
      <stop offset="0.0" stop-color="#fefe0c">
        <animate attributeName="offset" dur="2s" repeatCount="indefinite" values="0.0;0.0"/>
        <animate attributeName="stop-color" dur="2s" repeatCount="indefinite" values="#fefe0c;#fefe0d"/>
        <animate attributeName="stop-opacity" dur="2s" repeatCount="indefinite" values="1.0;1.0"/>
      </stop>
      <stop offset="0.5764705882352941" stop-color="#ffba2b">
        <animate attributeName="offset" dur="2s" repeatCount="indefinite" values="0.5764705882352941;0.5764705882352941"/>
        <animate attributeName="stop-color" dur="2s" repeatCount="indefinite" values="#ffba2b;#ffba2c"/>
        <animate attributeName="stop-opacity" dur="2s" repeatCount="indefinite" values="1.0;1.0"/>
      </stop>
      <stop offset="1.0" stop-color="#ff720b">
        <animate attributeName="offset" dur="2s" repeatCount="indefinite" values="1.0;1.0"/>
        <animate attributeName="stop-color" dur="2s" repeatCount="indefinite" values="#ff720b;#ff720c"/>
        <animate attributeName="stop-opacity" dur="2s" repeatCount="indefinite" values="1.0;1.0"/>
      </stop>
    </radialGradient>
  </defs>
</svg>
