<?xml version="1.0" encoding="UTF-8" standalone="no"?>
<svg xmlns:xlink="http://www.w3.org/1999/xlink" height="9.4px" width="11.25px" xmlns="http://www.w3.org/2000/svg">
  <g transform="matrix(1.0, 0.0, 0.0, 1.0, 5.85, 4.95)">
    <path d="M-5.6 1.55 L-5.6 1.55 Q-5.25 2.4 -4.35 3.05 L-3.85 3.4 Q-2.9 3.8 -2.0 4.15 L-0.8 4.4 Q-0.25 4.45 0.25 4.45 L0.65 4.4 0.85 4.4 1.05 4.35 1.2 4.05 1.4 3.65 1.4 3.55 1.6 3.2 1.75 3.0 1.85 2.9 Q2.1 2.25 2.35 1.6 L2.25 1.5 1.95 1.15 1.75 0.95 1.65 0.85 1.55 0.75 1.45 0.7 0.95 0.4 0.7 0.15 0.45 -0.2 0.1 -0.35 0.0 -0.4 -1.1 -0.4 -3.55 -0.3 -3.8 -0.25 -4.15 -0.1 -4.35 0.05 -5.6 1.55" fill="url(#gradient0)" fill-rule="evenodd" stroke="none">
      <animate attributeName="d" dur="2s" repeatCount="indefinite" values="M-5.6 1.55 L-5.6 1.55 Q-5.25 2.4 -4.35 3.05 L-3.85 3.4 Q-2.9 3.8 -2.0 4.15 L-0.8 4.4 Q-0.25 4.45 0.25 4.45 L0.65 4.4 0.85 4.4 1.05 4.35 1.2 4.05 1.4 3.65 1.4 3.55 1.6 3.2 1.75 3.0 1.85 2.9 Q2.1 2.25 2.35 1.6 L2.25 1.5 1.95 1.15 1.75 0.95 1.65 0.85 1.55 0.75 1.45 0.7 0.95 0.4 0.7 0.15 0.45 -0.2 0.1 -0.35 0.0 -0.4 -1.1 -0.4 -3.55 -0.3 -3.8 -0.25 -4.15 -0.1 -4.35 0.05 -5.6 1.55;M-5.85 -0.1 L-5.85 0.1 Q-6.0 1.75 -4.55 2.85 L-4.35 3.05 Q-2.7 4.15 -0.8 4.4 L1.5 4.2 Q2.15 3.95 2.7 3.5 L3.3 3.0 3.35 2.75 3.6 2.25 3.95 1.7 4.5 1.15 4.5 1.15 5.15 0.35 5.25 0.15 5.3 -0.1 Q5.5 -1.05 5.3 -2.1 L5.3 -2.3 4.9 -3.1 4.75 -3.4 4.55 -3.5 4.55 -3.5 4.35 -3.6 3.65 -4.4 3.3 -4.8 2.7 -4.9 2.0 -4.95 1.8 -4.95 -0.1 -4.65 -4.05 -3.95 -4.65 -3.95 -5.0 -3.45 -5.1 -3.15 -5.85 -0.1"/>
    </path>
    <path d="M-5.6 1.55 L-4.35 0.05 -4.15 -0.1 -3.8 -0.25 -3.55 -0.3 -1.1 -0.4 0.0 -0.4 0.1 -0.35 0.45 -0.2 0.7 0.15 0.95 0.4 1.45 0.7 1.55 0.75 1.65 0.85 1.75 0.95 1.95 1.15 2.25 1.5 2.35 1.6 Q2.1 2.25 1.85 2.9 L1.75 3.0 1.6 3.2 1.4 3.55 1.4 3.65 1.2 4.05 1.05 4.35 0.85 4.4 0.65 4.4 0.25 4.45 Q-0.25 4.45 -0.8 4.4 L-2.0 4.15 Q-2.9 3.8 -3.85 3.4 L-4.35 3.05 Q-5.25 2.4 -5.6 1.55 L-5.6 1.55" fill="none" stroke="#000000" stroke-linecap="round" stroke-linejoin="round" stroke-opacity="0.0" stroke-width="1.0">
      <animate attributeName="stroke" dur="2s" repeatCount="indefinite" values="#000000;#000001"/>
      <animate attributeName="stroke-width" dur="2s" repeatCount="indefinite" values="0.0;0.0"/>
      <animate attributeName="fill-opacity" dur="2s" repeatCount="indefinite" values="0.0;0.0"/>
      <animate attributeName="d" dur="2s" repeatCount="indefinite" values="M-5.6 1.55 L-4.35 0.05 -4.15 -0.1 -3.8 -0.25 -3.55 -0.3 -1.1 -0.4 0.0 -0.4 0.1 -0.35 0.45 -0.2 0.7 0.15 0.95 0.4 1.45 0.7 1.55 0.75 1.65 0.85 1.75 0.95 1.95 1.15 2.25 1.5 2.35 1.6 Q2.1 2.25 1.85 2.9 L1.75 3.0 1.6 3.2 1.4 3.55 1.4 3.65 1.2 4.05 1.05 4.35 0.85 4.4 0.65 4.4 0.25 4.45 Q-0.25 4.45 -0.8 4.4 L-2.0 4.15 Q-2.9 3.8 -3.85 3.4 L-4.35 3.05 Q-5.25 2.4 -5.6 1.55 L-5.6 1.55;M-5.85 -0.1 L-5.1 -3.15 -5.0 -3.45 -4.65 -3.95 -4.05 -3.95 -0.1 -4.65 1.8 -4.95 2.0 -4.95 2.7 -4.9 3.3 -4.8 3.65 -4.4 4.35 -3.6 4.55 -3.5 4.55 -3.5 4.75 -3.4 4.9 -3.1 5.3 -2.3 5.3 -2.1 Q5.5 -1.05 5.3 -0.1 L5.25 0.15 5.15 0.35 4.5 1.15 4.5 1.15 3.95 1.7 3.6 2.25 3.35 2.75 3.3 3.0 2.7 3.5 Q2.15 3.95 1.5 4.2 L-0.8 4.4 Q-2.7 4.15 -4.35 3.05 L-4.55 2.85 Q-6.0 1.75 -5.85 0.1 L-5.85 -0.1"/>
    </path>
  </g>
  <defs>
    <radialGradient cx="0" cy="0" gradientTransform="matrix(0.0091, -0.0105, 0.0071, 0.0061, -0.3, -0.65)" gradientUnits="userSpaceOnUse" id="gradient0" r="819.2" spreadMethod="pad">
      <animateTransform additive="replace" attributeName="gradientTransform" dur="2s" from="1" repeatCount="indefinite" to="1" type="scale"/>
      <animateTransform additive="sum" attributeName="gradientTransform" dur="2s" from="-0.3 -0.65" repeatCount="indefinite" to="-0.3 -0.65" type="translate"/>
      <animateTransform additive="sum" attributeName="gradientTransform" dur="2s" from="-49.1111" repeatCount="indefinite" to="-49.1111" type="rotate"/>
      <animateTransform additive="sum" attributeName="gradientTransform" dur="2s" from="0.0138 0.0094" repeatCount="indefinite" to="0.0138 0.0094" type="scale"/>
      <animateTransform additive="sum" attributeName="gradientTransform" dur="2s" from="0.0369" repeatCount="indefinite" to="0.0369" type="skewX"/>
      <stop offset="0.0" stop-color="#000000">
        <animate attributeName="offset" dur="2s" repeatCount="indefinite" values="0.0;0.0"/>
        <animate attributeName="stop-color" dur="2s" repeatCount="indefinite" values="#000000;#000001"/>
        <animate attributeName="stop-opacity" dur="2s" repeatCount="indefinite" values="1.0;1.0"/>
      </stop>
      <stop offset="0.5764705882352941" stop-color="#505050">
        <animate attributeName="offset" dur="2s" repeatCount="indefinite" values="0.5764705882352941;0.5764705882352941"/>
        <animate attributeName="stop-color" dur="2s" repeatCount="indefinite" values="#505050;#505051"/>
        <animate attributeName="stop-opacity" dur="2s" repeatCount="indefinite" values="1.0;1.0"/>
      </stop>
      <stop offset="1.0" stop-color="#656565">
        <animate attributeName="offset" dur="2s" repeatCount="indefinite" values="1.0;1.0"/>
        <animate attributeName="stop-color" dur="2s" repeatCount="indefinite" values="#656565;#656566"/>
        <animate attributeName="stop-opacity" dur="2s" repeatCount="indefinite" values="1.0;1.0"/>
      </stop>
    </radialGradient>
  </defs>
</svg>
