<?xml version="1.0" encoding="UTF-8" standalone="no"?>
<svg xmlns:xlink="http://www.w3.org/1999/xlink" height="19.0px" width="15.5px" xmlns="http://www.w3.org/2000/svg">
  <g transform="matrix(1.0, 0.0, 0.0, 1.0, 5.15, 17.1)">
    <path d="M-5.15 -3.05 L-5.15 -3.05 -5.05 -1.45 -4.95 -0.8 -4.85 -0.7 Q-4.05 0.55 -2.8 1.3 L-1.5 1.9 2.3 1.8 2.6 1.8 4.4 1.25 5.1 0.85 5.6 0.6 5.65 0.6 6.55 -0.65 6.9 -1.3 7.3 -2.45 7.3 -3.25 Q7.25 -4.1 7.25 -4.95 L7.25 -5.05 7.25 -5.35 Q7.1 -6.55 7.95 -7.55 L8.1 -7.95 8.25 -8.45 8.65 -9.55 9.15 -10.3 9.6 -10.8 9.65 -10.9 10.05 -11.45 10.05 -11.6 10.05 -12.7 Q10.1 -13.4 10.1 -14.1 L10.15 -14.35 10.05 -14.45 10.05 -14.55 Q9.4 -13.75 8.8 -13.0 L8.5 -12.45 Q8.05 -11.6 7.2 -11.2 L7.0 -11.1 6.45 -11.05 Q5.95 -11.1 5.65 -11.6 5.45 -11.9 5.4 -12.25 L5.4 -12.5 5.4 -12.8 Q5.55 -13.25 5.65 -13.7 L6.2 -14.55 6.7 -15.05 7.45 -15.85 7.75 -16.45 Q6.95 -16.35 6.2 -16.3 5.65 -16.1 5.05 -15.7 4.45 -15.35 3.85 -15.0 3.6 -14.25 3.35 -13.5 L3.05 -12.8 2.65 -11.75 2.6 -11.2 Q2.6 -10.05 2.6 -8.9 L2.45 -7.65 2.3 -7.3 Q1.5 -6.0 0.2 -6.9 L0.15 -6.95 -0.2 -7.4 -0.5 -8.2 -0.6 -9.45 -0.6 -9.75 -0.4 -13.6 -0.5 -13.65 -1.05 -12.55 -1.7 -10.8 -1.8 -10.6 -2.0 -9.7 -2.15 -9.2 -2.3 -7.55 -2.4 -7.05 -2.6 -6.3 -3.0 -5.4 Q-3.3 -4.9 -3.8 -4.5 L-4.4 -4.0 -5.05 -3.35 -5.05 -3.35 -5.15 -3.05" fill="url(#gradient0)" fill-rule="evenodd" stroke="none">
      <animate attributeName="d" dur="2s" repeatCount="indefinite" values="M-5.15 -3.05 L-5.15 -3.05 -5.05 -1.45 -4.95 -0.8 -4.85 -0.7 Q-4.05 0.55 -2.8 1.3 L-1.5 1.9 2.3 1.8 2.6 1.8 4.4 1.25 5.1 0.85 5.6 0.6 5.65 0.6 6.55 -0.65 6.9 -1.3 7.3 -2.45 7.3 -3.25 Q7.25 -4.1 7.25 -4.95 L7.25 -5.05 7.25 -5.35 Q7.1 -6.55 7.95 -7.55 L8.1 -7.95 8.25 -8.45 8.65 -9.55 9.15 -10.3 9.6 -10.8 9.65 -10.9 10.05 -11.45 10.05 -11.6 10.05 -12.7 Q10.1 -13.4 10.1 -14.1 L10.15 -14.35 10.05 -14.45 10.05 -14.55 Q9.4 -13.75 8.8 -13.0 L8.5 -12.45 Q8.05 -11.6 7.2 -11.2 L7.0 -11.1 6.45 -11.05 Q5.95 -11.1 5.65 -11.6 5.45 -11.9 5.4 -12.25 L5.4 -12.5 5.4 -12.8 Q5.55 -13.25 5.65 -13.7 L6.2 -14.55 6.7 -15.05 7.45 -15.85 7.75 -16.45 Q6.95 -16.35 6.2 -16.3 5.65 -16.1 5.05 -15.7 4.45 -15.35 3.85 -15.0 3.6 -14.25 3.35 -13.5 L3.05 -12.8 2.65 -11.75 2.6 -11.2 Q2.6 -10.05 2.6 -8.9 L2.45 -7.65 2.3 -7.3 Q1.5 -6.0 0.2 -6.9 L0.15 -6.95 -0.2 -7.4 -0.5 -8.2 -0.6 -9.45 -0.6 -9.75 -0.4 -13.6 -0.5 -13.65 -1.05 -12.55 -1.7 -10.8 -1.8 -10.6 -2.0 -9.7 -2.15 -9.2 -2.3 -7.55 -2.4 -7.05 -2.6 -6.3 -3.0 -5.4 Q-3.3 -4.9 -3.8 -4.5 L-4.4 -4.0 -5.05 -3.35 -5.05 -3.35 -5.15 -3.05;M-2.85 -4.5 L-2.85 -4.4 -2.8 -3.1 -2.7 -2.6 -2.7 -2.5 Q-1.75 -1.65 -0.55 -1.45 L0.65 -1.3 3.75 -1.1 4.1 -1.3 5.1 -2.1 5.45 -2.5 5.75 -2.9 5.75 -2.9 6.7 -3.65 7.25 -4.05 7.6 -4.85 8.05 -5.45 Q7.95 -6.3 8.4 -7.0 L8.4 -7.05 8.4 -7.15 Q8.9 -8.1 9.35 -9.0 L9.65 -9.35 9.85 -9.6 10.2 -10.05 10.35 -10.8 10.0 -10.6 9.9 -10.6 9.4 -10.45 9.2 -10.35 8.35 -10.25 Q7.65 -10.4 7.4 -11.05 L7.35 -11.3 7.35 -11.4 7.35 -11.4 Q7.25 -12.35 7.3 -13.25 L7.45 -13.8 Q7.65 -14.45 8.35 -14.85 L8.45 -14.9 8.65 -15.15 Q8.3 -15.15 7.95 -15.15 7.6 -15.15 7.25 -15.15 L7.1 -15.05 6.9 -14.85 Q6.5 -14.55 6.1 -14.35 L5.5 -13.95 5.45 -13.25 5.15 -12.5 4.95 -12.1 Q4.7 -11.5 4.75 -10.85 4.8 -10.1 4.05 -9.95 3.5 -9.8 3.1 -9.95 2.55 -10.1 2.25 -10.7 L2.05 -11.3 2.0 -12.1 2.05 -12.65 Q2.2 -13.6 2.75 -14.4 L3.3 -15.15 3.6 -15.55 Q4.4 -16.3 5.15 -17.0 L5.25 -17.1 4.85 -17.05 3.95 -16.85 2.95 -16.1 2.85 -16.0 0.55 -13.85 0.45 -13.75 -0.2 -13.0 -1.1 -11.65 -1.2 -11.55 -1.7 -10.75 -1.8 -10.25 -2.15 -9.1 -2.2 -8.7 -2.2 -8.1 -2.25 -7.2 Q-2.35 -6.6 -2.4 -6.0 L-2.55 -5.4 -2.75 -4.75 -2.75 -4.7 -2.85 -4.5"/>
    </path>
    <path d="M-5.15 -3.05 L-5.05 -3.35 -5.05 -3.35 -4.4 -4.0 -3.8 -4.5 Q-3.3 -4.9 -3.0 -5.4 L-2.6 -6.3 -2.4 -7.05 -2.3 -7.55 -2.15 -9.2 -2.0 -9.7 -1.8 -10.6 -1.7 -10.8 -1.05 -12.55 -0.5 -13.65 -0.4 -13.6 -0.6 -9.75 -0.6 -9.45 -0.5 -8.2 -0.2 -7.4 0.15 -6.95 0.2 -6.9 Q1.5 -6.0 2.3 -7.3 L2.45 -7.65 2.6 -8.9 Q2.6 -10.05 2.6 -11.2 L2.65 -11.75 3.05 -12.8 3.35 -13.5 Q3.6 -14.25 3.85 -15.0 4.45 -15.35 5.05 -15.7 5.65 -16.1 6.2 -16.3 6.95 -16.35 7.75 -16.45 L7.45 -15.85 6.7 -15.05 6.2 -14.55 5.65 -13.7 Q5.55 -13.25 5.4 -12.8 L5.4 -12.5 5.4 -12.25 Q5.45 -11.9 5.65 -11.6 5.95 -11.1 6.45 -11.05 L7.0 -11.1 7.2 -11.2 Q8.05 -11.6 8.5 -12.45 L8.8 -13.0 Q9.4 -13.75 10.05 -14.55 L10.05 -14.45 10.15 -14.35 10.1 -14.1 Q10.1 -13.4 10.05 -12.7 L10.05 -11.6 10.05 -11.45 9.65 -10.9 9.6 -10.8 9.15 -10.3 8.65 -9.55 8.25 -8.45 8.1 -7.95 7.95 -7.55 Q7.1 -6.55 7.25 -5.35 L7.25 -5.05 7.25 -4.95 Q7.25 -4.1 7.3 -3.25 L7.3 -2.45 6.9 -1.3 6.55 -0.65 5.65 0.6 5.6 0.6 5.1 0.85 4.4 1.25 2.6 1.8 2.3 1.8 -1.5 1.9 -2.8 1.3 Q-4.05 0.55 -4.85 -0.7 L-4.95 -0.8 -5.05 -1.45 -5.15 -3.05 -5.15 -3.05" fill="none" stroke="#000000" stroke-linecap="round" stroke-linejoin="round" stroke-opacity="0.0" stroke-width="1.0">
      <animate attributeName="stroke" dur="2s" repeatCount="indefinite" values="#000000;#000001"/>
      <animate attributeName="stroke-width" dur="2s" repeatCount="indefinite" values="0.0;0.0"/>
      <animate attributeName="fill-opacity" dur="2s" repeatCount="indefinite" values="0.0;0.0"/>
      <animate attributeName="d" dur="2s" repeatCount="indefinite" values="M-5.15 -3.05 L-5.05 -3.35 -5.05 -3.35 -4.4 -4.0 -3.8 -4.5 Q-3.3 -4.9 -3.0 -5.4 L-2.6 -6.3 -2.4 -7.05 -2.3 -7.55 -2.15 -9.2 -2.0 -9.7 -1.8 -10.6 -1.7 -10.8 -1.05 -12.55 -0.5 -13.65 -0.4 -13.6 -0.6 -9.75 -0.6 -9.45 -0.5 -8.2 -0.2 -7.4 0.15 -6.95 0.2 -6.9 Q1.5 -6.0 2.3 -7.3 L2.45 -7.65 2.6 -8.9 Q2.6 -10.05 2.6 -11.2 L2.65 -11.75 3.05 -12.8 3.35 -13.5 Q3.6 -14.25 3.85 -15.0 4.45 -15.35 5.05 -15.7 5.65 -16.1 6.2 -16.3 6.95 -16.35 7.75 -16.45 L7.45 -15.85 6.7 -15.05 6.2 -14.55 5.65 -13.7 Q5.55 -13.25 5.4 -12.8 L5.4 -12.5 5.4 -12.25 Q5.45 -11.9 5.65 -11.6 5.95 -11.1 6.45 -11.05 L7.0 -11.1 7.2 -11.2 Q8.05 -11.6 8.5 -12.45 L8.8 -13.0 Q9.4 -13.75 10.05 -14.55 L10.05 -14.45 10.15 -14.35 10.1 -14.1 Q10.1 -13.4 10.05 -12.7 L10.05 -11.6 10.05 -11.45 9.65 -10.9 9.6 -10.8 9.15 -10.3 8.65 -9.55 8.25 -8.45 8.1 -7.95 7.95 -7.55 Q7.1 -6.55 7.25 -5.35 L7.25 -5.05 7.25 -4.95 Q7.25 -4.1 7.3 -3.25 L7.3 -2.45 6.9 -1.3 6.55 -0.65 5.65 0.6 5.6 0.6 5.1 0.85 4.4 1.25 2.6 1.8 2.3 1.8 -1.5 1.9 -2.8 1.3 Q-4.05 0.55 -4.85 -0.7 L-4.95 -0.8 -5.05 -1.45 -5.15 -3.05 -5.15 -3.05;M-2.85 -4.5 L-2.75 -4.7 -2.75 -4.75 -2.55 -5.4 -2.4 -6.0 Q-2.35 -6.6 -2.25 -7.2 L-2.2 -8.1 -2.2 -8.7 -2.15 -9.1 -1.8 -10.25 -1.7 -10.75 -1.2 -11.55 -1.1 -11.65 -0.2 -13.0 0.45 -13.75 0.55 -13.85 2.85 -16.0 2.95 -16.1 3.95 -16.85 4.85 -17.05 5.25 -17.1 5.15 -17.0 Q4.4 -16.3 3.6 -15.55 L3.3 -15.15 2.75 -14.4 Q2.2 -13.6 2.05 -12.65 L2.0 -12.1 2.05 -11.3 2.25 -10.7 Q2.55 -10.1 3.1 -9.95 3.5 -9.8 4.05 -9.95 4.8 -10.1 4.75 -10.85 4.7 -11.5 4.95 -12.1 L5.15 -12.5 5.45 -13.25 5.5 -13.95 6.1 -14.35 Q6.5 -14.55 6.9 -14.85 L7.1 -15.05 7.25 -15.15 Q7.6 -15.15 7.95 -15.15 8.3 -15.15 8.65 -15.15 L8.45 -14.9 8.35 -14.85 Q7.65 -14.45 7.45 -13.8 L7.3 -13.25 Q7.25 -12.35 7.35 -11.4 L7.35 -11.4 7.35 -11.3 7.4 -11.05 Q7.65 -10.4 8.35 -10.25 L9.2 -10.35 9.4 -10.45 9.9 -10.6 10.0 -10.6 10.35 -10.8 10.2 -10.05 9.85 -9.6 9.65 -9.35 9.35 -9.0 Q8.9 -8.1 8.4 -7.15 L8.4 -7.05 8.4 -7.0 Q7.95 -6.3 8.05 -5.45 L7.6 -4.85 7.25 -4.05 6.7 -3.65 5.75 -2.9 5.75 -2.9 5.45 -2.5 5.1 -2.1 4.1 -1.3 3.75 -1.1 0.65 -1.3 -0.55 -1.45 Q-1.75 -1.65 -2.7 -2.5 L-2.7 -2.6 -2.8 -3.1 -2.85 -4.4 -2.85 -4.5"/>
    </path>
  </g>
  <defs>
    <radialGradient cx="0" cy="0" gradientTransform="matrix(0.0091, -0.0105, 0.0071, 0.0061, -0.3, -0.65)" gradientUnits="userSpaceOnUse" id="gradient0" r="819.2" spreadMethod="pad">
      <animateTransform additive="replace" attributeName="gradientTransform" dur="2s" from="1" repeatCount="indefinite" to="1" type="scale"/>
      <animateTransform additive="sum" attributeName="gradientTransform" dur="2s" from="-0.3 -0.65" repeatCount="indefinite" to="-0.3 -0.65" type="translate"/>
      <animateTransform additive="sum" attributeName="gradientTransform" dur="2s" from="-49.1111" repeatCount="indefinite" to="-49.1111" type="rotate"/>
      <animateTransform additive="sum" attributeName="gradientTransform" dur="2s" from="0.0138 0.0094" repeatCount="indefinite" to="0.0138 0.0094" type="scale"/>
      <animateTransform additive="sum" attributeName="gradientTransform" dur="2s" from="0.0369" repeatCount="indefinite" to="0.0369" type="skewX"/>
      <stop offset="0.0" stop-color="#fefe0c">
        <animate attributeName="offset" dur="2s" repeatCount="indefinite" values="0.0;0.0"/>
        <animate attributeName="stop-color" dur="2s" repeatCount="indefinite" values="#fefe0c;#fefe0d"/>
        <animate attributeName="stop-opacity" dur="2s" repeatCount="indefinite" values="1.0;1.0"/>
      </stop>
      <stop offset="0.5764705882352941" stop-color="#ffba2b">
        <animate attributeName="offset" dur="2s" repeatCount="indefinite" values="0.5764705882352941;0.5764705882352941"/>
        <animate attributeName="stop-color" dur="2s" repeatCount="indefinite" values="#ffba2b;#ffba2c"/>
        <animate attributeName="stop-opacity" dur="2s" repeatCount="indefinite" values="1.0;1.0"/>
      </stop>
      <stop offset="1.0" stop-color="#ff720b">
        <animate attributeName="offset" dur="2s" repeatCount="indefinite" values="1.0;1.0"/>
        <animate attributeName="stop-color" dur="2s" repeatCount="indefinite" values="#ff720b;#ff720c"/>
        <animate attributeName="stop-opacity" dur="2s" repeatCount="indefinite" values="1.0;1.0"/>
      </stop>
    </radialGradient>
  </defs>
</svg>
