<?xml version="1.0" encoding="UTF-8" standalone="no"?>
<svg xmlns:xlink="http://www.w3.org/1999/xlink" height="14.15px" width="13.9px" xmlns="http://www.w3.org/2000/svg">
  <g transform="matrix(1.0, 0.0, 0.0, 1.0, 5.85, 9.7)">
    <path d="M-5.85 -0.1 L-5.85 -0.1 Q-6.05 1.75 -4.55 2.9 L-4.35 3.05 Q-2.9 4.0 -1.3 4.3 L-0.8 4.4 Q0.85 4.65 2.1 3.95 L2.7 3.5 3.95 2.4 4.2 2.05 4.6 1.5 4.75 1.3 5.05 0.7 Q5.9 -0.85 6.7 -2.4 L6.8 -3.15 6.9 -3.65 6.9 -3.75 6.9 -4.85 6.9 -4.95 6.85 -6.0 6.3 -7.25 5.9 -7.95 5.2 -8.4 4.85 -8.6 Q3.85 -8.75 2.9 -8.9 L2.0 -8.75 0.05 -8.6 -0.05 -8.6 Q-0.45 -8.65 -0.85 -8.7 L-1.65 -8.8 -2.15 -8.8 -2.25 -8.8 -2.6 -7.9 -2.6 -7.0 -2.7 -6.1 -2.8 -5.8 Q-2.85 -4.9 -3.35 -4.1 L-3.7 -3.6 -4.5 -2.4 Q-4.95 -1.6 -5.7 -1.05 L-5.7 -0.85 -5.85 -0.1" fill="url(#gradient0)" fill-rule="evenodd" stroke="none">
      <animate attributeName="d" dur="2s" repeatCount="indefinite" values="M-5.85 -0.1 L-5.85 -0.1 Q-6.05 1.75 -4.55 2.9 L-4.35 3.05 Q-2.9 4.0 -1.3 4.3 L-0.8 4.4 Q0.85 4.65 2.1 3.95 L2.7 3.5 3.95 2.4 4.2 2.05 4.6 1.5 4.75 1.3 5.05 0.7 Q5.9 -0.85 6.7 -2.4 L6.8 -3.15 6.9 -3.65 6.9 -3.75 6.9 -4.85 6.9 -4.95 6.85 -6.0 6.3 -7.25 5.9 -7.95 5.2 -8.4 4.85 -8.6 Q3.85 -8.75 2.9 -8.9 L2.0 -8.75 0.05 -8.6 -0.05 -8.6 Q-0.45 -8.65 -0.85 -8.7 L-1.65 -8.8 -2.15 -8.8 -2.25 -8.8 -2.6 -7.9 -2.6 -7.0 -2.7 -6.1 -2.8 -5.8 Q-2.85 -4.9 -3.35 -4.1 L-3.7 -3.6 -4.5 -2.4 Q-4.95 -1.6 -5.7 -1.05 L-5.7 -0.85 -5.85 -0.1;M-5.85 -0.1 L-5.85 0.0 Q-6.0 1.85 -4.35 3.05 L-4.05 3.25 Q-2.5 4.15 -0.8 4.4 L-0.2 4.45 Q1.45 4.5 2.7 3.5 L3.45 2.85 3.55 1.4 3.65 0.9 3.9 0.15 4.0 -0.15 4.2 -0.6 Q5.0 -2.3 6.55 -3.35 L7.35 -4.0 7.6 -4.2 7.6 -4.2 8.05 -5.35 8.05 -5.65 8.05 -6.75 7.05 -7.7 6.45 -8.15 5.3 -8.75 5.0 -8.95 Q4.15 -9.5 3.1 -9.6 L2.25 -9.65 0.05 -9.7 -0.25 -9.7 Q-0.6 -9.5 -1.0 -9.45 L-1.6 -8.9 -1.85 -8.7 -1.85 -8.5 -1.95 -7.65 -2.05 -6.65 -2.05 -5.75 -2.1 -5.3 Q-2.25 -4.4 -3.1 -3.85 L-3.2 -3.65 -4.05 -2.25 Q-4.85 -1.65 -5.6 -1.1 L-5.7 -1.0 -5.85 -0.1"/>
    </path>
    <path d="M-5.85 -0.1 L-5.7 -0.85 -5.7 -1.05 Q-4.95 -1.6 -4.5 -2.4 L-3.7 -3.6 -3.35 -4.1 Q-2.85 -4.9 -2.8 -5.8 L-2.7 -6.1 -2.6 -7.0 -2.6 -7.9 -2.25 -8.8 -2.15 -8.8 -1.65 -8.8 -0.85 -8.7 Q-0.45 -8.65 -0.05 -8.6 L0.05 -8.6 2.0 -8.75 2.9 -8.9 Q3.85 -8.75 4.85 -8.6 L5.2 -8.4 5.9 -7.95 6.3 -7.25 6.85 -6.0 6.9 -4.95 6.9 -4.85 6.9 -3.75 6.9 -3.65 6.8 -3.15 6.7 -2.4 Q5.9 -0.85 5.05 0.7 L4.75 1.3 4.6 1.5 4.2 2.05 3.95 2.4 2.7 3.5 2.1 3.95 Q0.85 4.65 -0.8 4.4 L-1.3 4.3 Q-2.9 4.0 -4.35 3.05 L-4.55 2.9 Q-6.05 1.75 -5.85 -0.1 L-5.85 -0.1" fill="none" stroke="#000000" stroke-linecap="round" stroke-linejoin="round" stroke-opacity="0.0" stroke-width="1.0">
      <animate attributeName="stroke" dur="2s" repeatCount="indefinite" values="#000000;#000001"/>
      <animate attributeName="stroke-width" dur="2s" repeatCount="indefinite" values="0.0;0.0"/>
      <animate attributeName="fill-opacity" dur="2s" repeatCount="indefinite" values="0.0;0.0"/>
      <animate attributeName="d" dur="2s" repeatCount="indefinite" values="M-5.85 -0.1 L-5.7 -0.85 -5.7 -1.05 Q-4.95 -1.6 -4.5 -2.4 L-3.7 -3.6 -3.35 -4.1 Q-2.85 -4.9 -2.8 -5.8 L-2.7 -6.1 -2.6 -7.0 -2.6 -7.9 -2.25 -8.8 -2.15 -8.8 -1.65 -8.8 -0.85 -8.7 Q-0.45 -8.65 -0.05 -8.6 L0.05 -8.6 2.0 -8.75 2.9 -8.9 Q3.85 -8.75 4.85 -8.6 L5.2 -8.4 5.9 -7.95 6.3 -7.25 6.85 -6.0 6.9 -4.95 6.9 -4.85 6.9 -3.75 6.9 -3.65 6.8 -3.15 6.7 -2.4 Q5.9 -0.85 5.05 0.7 L4.75 1.3 4.6 1.5 4.2 2.05 3.95 2.4 2.7 3.5 2.1 3.95 Q0.85 4.65 -0.8 4.4 L-1.3 4.3 Q-2.9 4.0 -4.35 3.05 L-4.55 2.9 Q-6.05 1.75 -5.85 -0.1 L-5.85 -0.1;M-5.85 -0.1 L-5.7 -1.0 -5.6 -1.1 Q-4.85 -1.65 -4.05 -2.25 L-3.2 -3.65 -3.1 -3.85 Q-2.25 -4.4 -2.1 -5.3 L-2.05 -5.75 -2.05 -6.65 -1.95 -7.65 -1.85 -8.5 -1.85 -8.7 -1.6 -8.9 -1.0 -9.45 Q-0.6 -9.5 -0.25 -9.7 L0.05 -9.7 2.25 -9.65 3.1 -9.6 Q4.15 -9.5 5.0 -8.95 L5.3 -8.75 6.45 -8.15 7.05 -7.7 8.05 -6.75 8.05 -5.65 8.05 -5.35 7.6 -4.2 7.6 -4.2 7.35 -4.0 6.55 -3.35 Q5.0 -2.3 4.2 -0.6 L4.0 -0.15 3.9 0.15 3.65 0.9 3.55 1.4 3.45 2.85 2.7 3.5 Q1.45 4.5 -0.2 4.45 L-0.8 4.4 Q-2.5 4.15 -4.05 3.25 L-4.35 3.05 Q-6.0 1.85 -5.85 0.0 L-5.85 -0.1"/>
    </path>
  </g>
  <defs>
    <radialGradient cx="0" cy="0" gradientTransform="matrix(0.0091, -0.0105, 0.0071, 0.0061, -0.3, -0.65)" gradientUnits="userSpaceOnUse" id="gradient0" r="819.2" spreadMethod="pad">
      <animateTransform additive="replace" attributeName="gradientTransform" dur="2s" from="1" repeatCount="indefinite" to="1" type="scale"/>
      <animateTransform additive="sum" attributeName="gradientTransform" dur="2s" from="-0.3 -0.65" repeatCount="indefinite" to="-0.3 -0.65" type="translate"/>
      <animateTransform additive="sum" attributeName="gradientTransform" dur="2s" from="-49.1111" repeatCount="indefinite" to="-49.1111" type="rotate"/>
      <animateTransform additive="sum" attributeName="gradientTransform" dur="2s" from="0.0138 0.0094" repeatCount="indefinite" to="0.0138 0.0094" type="scale"/>
      <animateTransform additive="sum" attributeName="gradientTransform" dur="2s" from="0.0369" repeatCount="indefinite" to="0.0369" type="skewX"/>
      <stop offset="0.0" stop-color="#000000">
        <animate attributeName="offset" dur="2s" repeatCount="indefinite" values="0.0;0.0"/>
        <animate attributeName="stop-color" dur="2s" repeatCount="indefinite" values="#000000;#000001"/>
        <animate attributeName="stop-opacity" dur="2s" repeatCount="indefinite" values="1.0;1.0"/>
      </stop>
      <stop offset="0.5764705882352941" stop-color="#505050">
        <animate attributeName="offset" dur="2s" repeatCount="indefinite" values="0.5764705882352941;0.5764705882352941"/>
        <animate attributeName="stop-color" dur="2s" repeatCount="indefinite" values="#505050;#505051"/>
        <animate attributeName="stop-opacity" dur="2s" repeatCount="indefinite" values="1.0;1.0"/>
      </stop>
      <stop offset="1.0" stop-color="#656565">
        <animate attributeName="offset" dur="2s" repeatCount="indefinite" values="1.0;1.0"/>
        <animate attributeName="stop-color" dur="2s" repeatCount="indefinite" values="#656565;#656566"/>
        <animate attributeName="stop-opacity" dur="2s" repeatCount="indefinite" values="1.0;1.0"/>
      </stop>
    </radialGradient>
  </defs>
</svg>
