<?xml version="1.0" encoding="UTF-8" standalone="no"?>
<svg xmlns:xlink="http://www.w3.org/1999/xlink" height="5.05px" width="10.75px" xmlns="http://www.w3.org/2000/svg">
  <g transform="matrix(1.0, 0.0, 0.0, 1.0, 6.4, -0.7)">
    <path d="M-6.4 3.2 L-6.4 3.4 Q-6.25 3.95 -5.7 4.05 L-5.75 4.35 -5.7 4.55 Q-5.05 5.15 -4.05 4.8 L-3.85 4.75 -3.7 4.8 -1.95 4.8 -0.65 5.05 -0.35 5.25 1.75 5.75 Q2.2 5.8 2.15 5.3 L2.1 4.95 1.75 4.6 2.7 4.45 2.9 4.4 3.1 4.4 3.3 4.4 3.65 4.35 4.3 3.8 4.35 3.35 4.15 3.15 4.05 3.15 2.05 3.05 0.45 3.0 -0.55 3.0 Q-0.85 3.0 -1.0 3.3 L-1.05 3.4 -1.05 3.5 -1.2 3.5 -1.55 3.5 -1.6 3.45 Q-1.85 3.25 -2.15 3.2 L-2.2 3.2 -2.25 3.15 Q-3.15 2.2 -4.35 2.1 L-4.35 2.05 Q-4.5 1.3 -5.3 1.35 L-5.3 1.25 -5.4 0.9 Q-5.55 0.75 -5.8 0.7 L-6.0 0.75 Q-6.2 0.8 -6.3 1.0 L-6.3 1.8 -6.0 2.8 -6.15 2.9 -6.4 3.2" fill="#000000" fill-rule="evenodd" stroke="none">
      <animate attributeName="fill" dur="2s" repeatCount="indefinite" values="#000000;#000001"/>
      <animate attributeName="fill-opacity" dur="2s" repeatCount="indefinite" values="1.0;1.0"/>
      <animate attributeName="d" dur="2s" repeatCount="indefinite" values="M-6.4 3.2 L-6.4 3.4 Q-6.25 3.95 -5.7 4.05 L-5.75 4.35 -5.7 4.55 Q-5.05 5.15 -4.05 4.8 L-3.85 4.75 -3.7 4.8 -1.95 4.8 -0.65 5.05 -0.35 5.25 1.75 5.75 Q2.2 5.8 2.15 5.3 L2.1 4.95 1.75 4.6 2.7 4.45 2.9 4.4 3.1 4.4 3.3 4.4 3.65 4.35 4.3 3.8 4.35 3.35 4.15 3.15 4.05 3.15 2.05 3.05 0.45 3.0 -0.55 3.0 Q-0.85 3.0 -1.0 3.3 L-1.05 3.4 -1.05 3.5 -1.2 3.5 -1.55 3.5 -1.6 3.45 Q-1.85 3.25 -2.15 3.2 L-2.2 3.2 -2.25 3.15 Q-3.15 2.2 -4.35 2.1 L-4.35 2.05 Q-4.5 1.3 -5.3 1.35 L-5.3 1.25 -5.4 0.9 Q-5.55 0.75 -5.8 0.7 L-6.0 0.75 Q-6.2 0.8 -6.3 1.0 L-6.3 1.8 -6.0 2.8 -6.15 2.9 -6.4 3.2;M-1.75 4.55 L-1.45 4.55 Q-1.35 4.55 -1.25 4.55 L-1.15 4.55 -1.15 4.55 Q-0.95 4.55 -0.75 4.55 L-0.75 4.55 -0.75 4.55 -0.35 4.55 -0.1 4.55 0.0 4.55 0.3 4.2 Q0.35 4.15 0.4 4.1 L0.5 4.05 0.5 4.05 0.2 3.7 0.1 3.6 0.1 3.6 0.1 3.5 0.1 3.4 0.2 3.3 0.35 3.25 0.45 3.15 0.45 3.15 0.15 2.75 -0.25 2.75 -0.35 2.95 Q-0.4 3.0 -0.4 3.0 L-0.4 3.0 -0.4 3.0 -0.4 3.0 -0.4 3.1 -0.4 3.1 Q-0.45 3.2 -0.5 3.25 L-0.5 3.25 -0.5 3.25 Q-0.75 3.5 -1.1 3.55 L-1.1 3.55 Q-1.25 3.6 -1.4 3.6 L-1.5 3.6 -1.6 3.6 Q-1.65 3.75 -1.7 3.9 L-1.7 4.0 Q-1.7 4.05 -1.7 4.1 L-1.75 4.25 -1.75 4.45 -1.75 4.45 -1.75 4.55"/>
    </path>
    <path d="M-6.4 3.2 L-6.15 2.9 -6.0 2.8 -6.3 1.8 -6.3 1.0 Q-6.2 0.8 -6.0 0.75 L-5.8 0.7 Q-5.55 0.75 -5.4 0.9 L-5.3 1.25 -5.3 1.35 Q-4.5 1.3 -4.35 2.05 L-4.35 2.1 Q-3.15 2.2 -2.25 3.15 L-2.2 3.2 -2.15 3.2 Q-1.85 3.25 -1.6 3.45 L-1.55 3.5 -1.2 3.5 -1.05 3.5 -1.05 3.4 -1.0 3.3 Q-0.85 3.0 -0.55 3.0 L0.45 3.0 2.05 3.05 4.05 3.15 4.15 3.15 4.35 3.35 4.3 3.8 3.65 4.35 3.3 4.4 3.1 4.4 2.9 4.4 2.7 4.45 1.75 4.6 2.1 4.95 2.15 5.3 Q2.2 5.8 1.75 5.75 L-0.35 5.25 -0.65 5.05 -1.95 4.8 -3.7 4.8 -3.85 4.75 -4.05 4.8 Q-5.05 5.15 -5.7 4.55 L-5.75 4.35 -5.7 4.05 Q-6.25 3.95 -6.4 3.4 L-6.4 3.2" fill="none" stroke="#000000" stroke-linecap="round" stroke-linejoin="round" stroke-opacity="0.0" stroke-width="1.0">
      <animate attributeName="stroke" dur="2s" repeatCount="indefinite" values="#000000;#000001"/>
      <animate attributeName="stroke-width" dur="2s" repeatCount="indefinite" values="0.0;0.0"/>
      <animate attributeName="fill-opacity" dur="2s" repeatCount="indefinite" values="0.0;0.0"/>
      <animate attributeName="d" dur="2s" repeatCount="indefinite" values="M-6.4 3.2 L-6.15 2.9 -6.0 2.8 -6.3 1.8 -6.3 1.0 Q-6.2 0.8 -6.0 0.75 L-5.8 0.7 Q-5.55 0.75 -5.4 0.9 L-5.3 1.25 -5.3 1.35 Q-4.5 1.3 -4.35 2.05 L-4.35 2.1 Q-3.15 2.2 -2.25 3.15 L-2.2 3.2 -2.15 3.2 Q-1.85 3.25 -1.6 3.45 L-1.55 3.5 -1.2 3.5 -1.05 3.5 -1.05 3.4 -1.0 3.3 Q-0.85 3.0 -0.55 3.0 L0.45 3.0 2.05 3.05 4.05 3.15 4.15 3.15 4.35 3.35 4.3 3.8 3.65 4.35 3.3 4.4 3.1 4.4 2.9 4.4 2.7 4.45 1.75 4.6 2.1 4.95 2.15 5.3 Q2.2 5.8 1.75 5.75 L-0.35 5.25 -0.65 5.05 -1.95 4.8 -3.7 4.8 -3.85 4.75 -4.05 4.8 Q-5.05 5.15 -5.7 4.55 L-5.75 4.35 -5.7 4.05 Q-6.25 3.95 -6.4 3.4 L-6.4 3.2;M-1.75 4.55 L-1.75 4.45 -1.75 4.45 -1.75 4.25 -1.7 4.1 Q-1.7 4.05 -1.7 4.0 L-1.7 3.9 Q-1.65 3.75 -1.6 3.6 L-1.5 3.6 -1.4 3.6 Q-1.25 3.6 -1.1 3.55 L-1.1 3.55 Q-0.75 3.5 -0.5 3.25 L-0.5 3.25 -0.5 3.25 Q-0.45 3.2 -0.4 3.1 L-0.4 3.1 -0.4 3.0 -0.4 3.0 -0.4 3.0 -0.4 3.0 Q-0.4 3.0 -0.35 2.95 L-0.25 2.75 0.15 2.75 0.45 3.15 0.45 3.15 0.35 3.25 0.2 3.3 0.1 3.4 0.1 3.5 0.1 3.6 0.1 3.6 0.2 3.7 0.5 4.05 0.5 4.05 0.4 4.1 Q0.35 4.15 0.3 4.2 L0.0 4.55 -0.1 4.55 -0.35 4.55 -0.75 4.55 -0.75 4.55 -0.75 4.55 Q-0.95 4.55 -1.15 4.55 L-1.15 4.55 -1.25 4.55 Q-1.35 4.55 -1.45 4.55 L-1.75 4.55"/>
    </path>
  </g>
</svg>
