<?xml version="1.0" encoding="UTF-8" standalone="no"?>
<svg xmlns:xlink="http://www.w3.org/1999/xlink" height="21.35px" width="14.75px" xmlns="http://www.w3.org/2000/svg">
  <g transform="matrix(1.0, 0.0, 0.0, 1.0, 4.25, 17.15)">
    <path d="M-4.25 -2.3 Q-4.35 -0.2 -3.95 1.75 L-3.65 2.45 -3.25 3.05 Q-2.75 3.7 -1.95 4.15 L-1.8 4.2 Q0.3 4.0 1.8 2.55 L2.1 2.2 2.55 1.65 Q2.5 0.0 2.9 -1.65 L3.1 -2.0 Q2.85 -3.55 3.45 -4.8 L3.7 -5.25 4.6 -6.3 7.5 -8.25 7.7 -8.35 9.2 -8.55 9.65 -9.05 10.3 -10.5 10.5 -12.2 Q10.55 -13.3 10.2 -14.15 L10.1 -14.45 9.4 -15.3 9.3 -15.55 9.3 -15.7 Q8.05 -17.15 6.0 -17.15 L2.55 -16.4 2.5 -16.35 1.8 -15.45 1.6 -15.25 0.6 -13.7 Q1.05 -10.65 0.35 -7.65 L0.25 -7.15 0.05 -6.7 -1.8 -4.5 Q-3.05 -3.4 -4.25 -2.3" fill="url(#gradient0)" fill-rule="evenodd" stroke="none">
      <animate attributeName="d" dur="2s" repeatCount="indefinite" values="M-4.25 -2.3 Q-4.35 -0.2 -3.95 1.75 L-3.65 2.45 -3.25 3.05 Q-2.75 3.7 -1.95 4.15 L-1.8 4.2 Q0.3 4.0 1.8 2.55 L2.1 2.2 2.55 1.65 Q2.5 0.0 2.9 -1.65 L3.1 -2.0 Q2.85 -3.55 3.45 -4.8 L3.7 -5.25 4.6 -6.3 7.5 -8.25 7.7 -8.35 9.2 -8.55 9.65 -9.05 10.3 -10.5 10.5 -12.2 Q10.55 -13.3 10.2 -14.15 L10.1 -14.45 9.4 -15.3 9.3 -15.55 9.3 -15.7 Q8.05 -17.15 6.0 -17.15 L2.55 -16.4 2.5 -16.35 1.8 -15.45 1.6 -15.25 0.6 -13.7 Q1.05 -10.65 0.35 -7.65 L0.25 -7.15 0.05 -6.7 -1.8 -4.5 Q-3.05 -3.4 -4.25 -2.3;M5.7 -15.65 Q6.05 -15.2 6.35 -14.75 L6.45 -14.65 6.55 -14.55 Q6.75 -14.35 6.95 -14.2 L6.95 -14.2 Q7.3 -13.9 7.65 -13.6 L7.75 -13.6 7.95 -13.6 Q8.3 -13.55 8.65 -13.55 L8.75 -13.55 Q9.0 -13.55 9.25 -13.55 L9.45 -13.75 9.6 -13.85 10.2 -14.25 10.2 -14.25 10.1 -14.45 10.1 -14.55 9.95 -14.85 9.65 -15.25 Q9.5 -15.45 9.35 -15.65 L9.35 -15.65 9.35 -15.65 9.35 -15.65 9.35 -15.65 Q9.0 -15.95 8.7 -16.25 L8.05 -16.65 8.05 -16.65 7.85 -16.75 7.75 -16.85 7.45 -16.95 Q6.8 -17.05 6.2 -17.15 L6.1 -17.05 6.1 -16.95 5.75 -16.3 Q5.55 -15.95 5.7 -15.65"/>
    </path>
    <path d="M-4.25 -2.3 Q-3.05 -3.4 -1.8 -4.5 L0.05 -6.7 0.25 -7.15 0.35 -7.65 Q1.05 -10.65 0.6 -13.7 L1.6 -15.25 1.8 -15.45 2.5 -16.35 2.55 -16.4 6.0 -17.15 Q8.05 -17.15 9.3 -15.7 L9.3 -15.55 9.4 -15.3 10.1 -14.45 10.2 -14.15 Q10.55 -13.3 10.5 -12.2 L10.3 -10.5 9.65 -9.05 9.2 -8.55 7.7 -8.35 7.5 -8.25 4.6 -6.3 3.7 -5.25 3.45 -4.8 Q2.85 -3.55 3.1 -2.0 L2.9 -1.65 Q2.5 0.0 2.55 1.65 L2.1 2.2 1.8 2.55 Q0.3 4.0 -1.8 4.2 L-1.95 4.15 Q-2.75 3.7 -3.25 3.05 L-3.65 2.45 -3.95 1.75 Q-4.35 -0.2 -4.25 -2.3" fill="none" stroke="#000000" stroke-linecap="round" stroke-linejoin="round" stroke-opacity="0.0" stroke-width="1.0">
      <animate attributeName="stroke" dur="2s" repeatCount="indefinite" values="#000000;#000001"/>
      <animate attributeName="stroke-width" dur="2s" repeatCount="indefinite" values="0.0;0.0"/>
      <animate attributeName="fill-opacity" dur="2s" repeatCount="indefinite" values="0.0;0.0"/>
      <animate attributeName="d" dur="2s" repeatCount="indefinite" values="M-4.25 -2.3 Q-3.05 -3.4 -1.8 -4.5 L0.05 -6.7 0.25 -7.15 0.35 -7.65 Q1.05 -10.65 0.6 -13.7 L1.6 -15.25 1.8 -15.45 2.5 -16.35 2.55 -16.4 6.0 -17.15 Q8.05 -17.15 9.3 -15.7 L9.3 -15.55 9.4 -15.3 10.1 -14.45 10.2 -14.15 Q10.55 -13.3 10.5 -12.2 L10.3 -10.5 9.65 -9.05 9.2 -8.55 7.7 -8.35 7.5 -8.25 4.6 -6.3 3.7 -5.25 3.45 -4.8 Q2.85 -3.55 3.1 -2.0 L2.9 -1.65 Q2.5 0.0 2.55 1.65 L2.1 2.2 1.8 2.55 Q0.3 4.0 -1.8 4.2 L-1.95 4.15 Q-2.75 3.7 -3.25 3.05 L-3.65 2.45 -3.95 1.75 Q-4.35 -0.2 -4.25 -2.3;M5.7 -15.65 Q5.55 -15.95 5.75 -16.3 L6.1 -16.95 6.1 -17.05 6.2 -17.15 Q6.8 -17.05 7.45 -16.95 L7.75 -16.85 7.85 -16.75 8.05 -16.65 8.05 -16.65 8.7 -16.25 Q9.0 -15.95 9.35 -15.65 L9.35 -15.65 9.35 -15.65 9.35 -15.65 9.35 -15.65 Q9.5 -15.45 9.65 -15.25 L9.95 -14.85 10.1 -14.55 10.1 -14.45 10.2 -14.25 10.2 -14.25 9.6 -13.85 9.45 -13.75 9.25 -13.55 Q9.0 -13.55 8.75 -13.55 L8.65 -13.55 Q8.3 -13.55 7.95 -13.6 L7.75 -13.6 7.65 -13.6 Q7.3 -13.9 6.95 -14.2 L6.95 -14.2 Q6.75 -14.35 6.55 -14.55 L6.45 -14.65 6.35 -14.75 Q6.05 -15.2 5.7 -15.65"/>
    </path>
  </g>
  <defs>
    <radialGradient cx="0" cy="0" gradientTransform="matrix(0.0091, -0.0105, 0.0071, 0.0061, -0.3, -0.65)" gradientUnits="userSpaceOnUse" id="gradient0" r="819.2" spreadMethod="pad">
      <animateTransform additive="replace" attributeName="gradientTransform" dur="2s" from="1" repeatCount="indefinite" to="1" type="scale"/>
      <animateTransform additive="sum" attributeName="gradientTransform" dur="2s" from="-0.3 -0.65" repeatCount="indefinite" to="-0.3 -0.65" type="translate"/>
      <animateTransform additive="sum" attributeName="gradientTransform" dur="2s" from="-49.1111" repeatCount="indefinite" to="-49.1111" type="rotate"/>
      <animateTransform additive="sum" attributeName="gradientTransform" dur="2s" from="0.0138 0.0094" repeatCount="indefinite" to="0.0138 0.0094" type="scale"/>
      <animateTransform additive="sum" attributeName="gradientTransform" dur="2s" from="0.0369" repeatCount="indefinite" to="0.0369" type="skewX"/>
      <stop offset="0.0" stop-color="#000000">
        <animate attributeName="offset" dur="2s" repeatCount="indefinite" values="0.0;0.0"/>
        <animate attributeName="stop-color" dur="2s" repeatCount="indefinite" values="#000000;#000001"/>
        <animate attributeName="stop-opacity" dur="2s" repeatCount="indefinite" values="1.0;1.0"/>
      </stop>
      <stop offset="0.5764705882352941" stop-color="#505050">
        <animate attributeName="offset" dur="2s" repeatCount="indefinite" values="0.5764705882352941;0.5764705882352941"/>
        <animate attributeName="stop-color" dur="2s" repeatCount="indefinite" values="#505050;#505051"/>
        <animate attributeName="stop-opacity" dur="2s" repeatCount="indefinite" values="1.0;1.0"/>
      </stop>
      <stop offset="1.0" stop-color="#656565">
        <animate attributeName="offset" dur="2s" repeatCount="indefinite" values="1.0;1.0"/>
        <animate attributeName="stop-color" dur="2s" repeatCount="indefinite" values="#656565;#656566"/>
        <animate attributeName="stop-opacity" dur="2s" repeatCount="indefinite" values="1.0;1.0"/>
      </stop>
    </radialGradient>
  </defs>
</svg>
