<?xml version="1.0" encoding="UTF-8" standalone="no"?>
<svg xmlns:xlink="http://www.w3.org/1999/xlink" height="72.7px" width="100.4px" xmlns="http://www.w3.org/2000/svg">
  <g transform="matrix(1.0, 0.0, 0.0, 1.0, 48.4, 46.45)">
    <path d="M-47.7 -1.7 Q-45.15 7.1 -37.8 11.75 -30.85 16.2 -23.5 18.8 -15.95 21.55 -7.3 23.6 1.0 25.6 9.3 26.15 18.05 26.7 26.6 24.6 35.1 22.5 42.35 17.3 49.8 11.95 50.5 3.2 51.15 -5.5 46.4 -13.2 41.7 -20.95 34.1 -25.1 27.0 -28.95 19.35 -31.55 11.35 -34.35 3.45 -34.95 -4.7 -35.7 -13.15 -33.7 -21.4 -31.75 -28.8 -26.75 -36.1 -21.8 -42.9 -16.4 -50.3 -10.55 -47.7 -1.7" fill="url(#gradient0)" fill-rule="evenodd" stroke="none">
      <animate attributeName="d" dur="2s" repeatCount="indefinite" values="M-47.7 -1.7 Q-45.15 7.1 -37.8 11.75 -30.85 16.2 -23.5 18.8 -15.95 21.55 -7.3 23.6 1.0 25.6 9.3 26.15 18.05 26.7 26.6 24.6 35.1 22.5 42.35 17.3 49.8 11.95 50.5 3.2 51.15 -5.5 46.4 -13.2 41.7 -20.95 34.1 -25.1 27.0 -28.95 19.35 -31.55 11.35 -34.35 3.45 -34.95 -4.7 -35.7 -13.15 -33.7 -21.4 -31.75 -28.8 -26.75 -36.1 -21.8 -42.9 -16.4 -50.3 -10.55 -47.7 -1.7;M-16.8 -23.05 Q-15.0 -16.9 -9.85 -13.6 -5.0 -10.55 0.15 -8.7 5.4 -6.75 11.5 -5.3 17.3 -3.9 23.1 -3.55 29.25 -3.15 35.25 -4.65 41.2 -6.1 46.25 -9.75 51.45 -13.5 51.95 -19.6 52.4 -25.7 49.1 -31.1 45.8 -36.55 40.45 -39.4 35.5 -42.15 30.15 -43.9 24.55 -45.9 19.05 -46.3 13.3 -46.85 7.4 -45.45 1.6 -44.1 -3.55 -40.6 -8.65 -37.15 -13.4 -33.3 -18.6 -29.25 -16.8 -23.05"/>
    </path>
    <path d="M-47.7 -1.7 Q-50.3 -10.55 -42.9 -16.4 -36.1 -21.8 -28.8 -26.75 -21.4 -31.75 -13.15 -33.7 -4.7 -35.7 3.45 -34.95 11.35 -34.35 19.35 -31.55 27.0 -28.95 34.1 -25.1 41.7 -20.95 46.4 -13.2 51.15 -5.5 50.5 3.2 49.8 11.95 42.35 17.3 35.1 22.5 26.6 24.6 18.05 26.7 9.3 26.15 1.0 25.6 -7.3 23.6 -15.95 21.55 -23.5 18.8 -30.85 16.2 -37.8 11.75 -45.15 7.1 -47.7 -1.7" fill="none" stroke="#000000" stroke-linecap="round" stroke-linejoin="round" stroke-opacity="0.0" stroke-width="1.0">
      <animate attributeName="stroke" dur="2s" repeatCount="indefinite" values="#000000;#000001"/>
      <animate attributeName="stroke-width" dur="2s" repeatCount="indefinite" values="0.0;0.0"/>
      <animate attributeName="fill-opacity" dur="2s" repeatCount="indefinite" values="0.0;0.0"/>
      <animate attributeName="d" dur="2s" repeatCount="indefinite" values="M-47.7 -1.7 Q-50.3 -10.55 -42.9 -16.4 -36.1 -21.8 -28.8 -26.75 -21.4 -31.75 -13.15 -33.7 -4.7 -35.7 3.45 -34.95 11.35 -34.35 19.35 -31.55 27.0 -28.95 34.1 -25.1 41.7 -20.95 46.4 -13.2 51.15 -5.5 50.5 3.2 49.8 11.95 42.35 17.3 35.1 22.5 26.6 24.6 18.05 26.7 9.3 26.15 1.0 25.6 -7.3 23.6 -15.95 21.55 -23.5 18.8 -30.85 16.2 -37.8 11.75 -45.15 7.1 -47.7 -1.7;M-16.8 -23.05 Q-18.6 -29.25 -13.4 -33.3 -8.65 -37.15 -3.55 -40.6 1.6 -44.1 7.4 -45.45 13.3 -46.85 19.05 -46.3 24.55 -45.9 30.15 -43.9 35.5 -42.15 40.45 -39.4 45.8 -36.55 49.1 -31.1 52.4 -25.7 51.95 -19.6 51.45 -13.5 46.25 -9.75 41.2 -6.1 35.25 -4.65 29.25 -3.15 23.1 -3.55 17.3 -3.9 11.5 -5.3 5.4 -6.75 0.15 -8.7 -5.0 -10.55 -9.85 -13.6 -15.0 -16.9 -16.8 -23.05"/>
    </path>
  </g>
  <defs>
    <radialGradient cx="0" cy="0" gradientTransform="matrix(0.0019, -0.0366, 0.0494, 0.0027, 1.1, 0.4)" gradientUnits="userSpaceOnUse" id="gradient0" r="819.2" spreadMethod="pad">
      <animateTransform additive="replace" attributeName="gradientTransform" dur="2s" from="1" repeatCount="indefinite" to="1" type="scale"/>
      <animateTransform additive="sum" attributeName="gradientTransform" dur="2s" from="1.1 0.4" repeatCount="indefinite" to="17.35 -21.55" type="translate"/>
      <animateTransform additive="sum" attributeName="gradientTransform" dur="2s" from="-86.9684" repeatCount="indefinite" to="-86.9657" type="rotate"/>
      <animateTransform additive="sum" attributeName="gradientTransform" dur="2s" from="0.0366 0.0495" repeatCount="indefinite" to="0.0257 0.0346" type="scale"/>
      <animateTransform additive="sum" attributeName="gradientTransform" dur="2s" from="-0.0611" repeatCount="indefinite" to="-0.0641" type="skewX"/>
      <stop offset="0.0" stop-color="#929292">
        <animate attributeName="offset" dur="2s" repeatCount="indefinite" values="0.0;0.0"/>
        <animate attributeName="stop-color" dur="2s" repeatCount="indefinite" values="#929292;#929293"/>
        <animate attributeName="stop-opacity" dur="2s" repeatCount="indefinite" values="1.0;0.7019608"/>
      </stop>
      <stop offset="0.5764705882352941" stop-color="#707070">
        <animate attributeName="offset" dur="2s" repeatCount="indefinite" values="0.5764705882352941;0.5764705882352941"/>
        <animate attributeName="stop-color" dur="2s" repeatCount="indefinite" values="#707070;#707071"/>
        <animate attributeName="stop-opacity" dur="2s" repeatCount="indefinite" values="1.0;0.7019608"/>
      </stop>
      <stop offset="1.0" stop-color="#000000">
        <animate attributeName="offset" dur="2s" repeatCount="indefinite" values="1.0;1.0"/>
        <animate attributeName="stop-color" dur="2s" repeatCount="indefinite" values="#000000;#000001"/>
        <animate attributeName="stop-opacity" dur="2s" repeatCount="indefinite" values="1.0;0.7019608"/>
      </stop>
    </radialGradient>
  </defs>
</svg>
