<?xml version="1.0" encoding="UTF-8" standalone="no"?>
<svg xmlns:xlink="http://www.w3.org/1999/xlink" height="53.65px" width="47.6px" xmlns="http://www.w3.org/2000/svg">
  <g transform="matrix(1.0, 0.0, 0.0, 1.0, 13.1, 43.95)">
    <path d="M-6.9 -2.4 L-6.9 -2.4 -6.5 -1.7 Q-4.6 0.9 -2.75 3.5 -2.1 4.25 -1.1 4.4 L3.5 4.9 Q5.6 4.95 7.7 5.0 8.95 4.15 10.2 3.3 L11.05 2.65 11.95 2.0 12.25 1.75 12.35 1.65 12.45 1.55 12.55 1.45 12.75 1.35 14.3 0.05 14.5 -0.15 13.9 -0.35 13.75 -0.45 13.55 -0.55 13.35 -0.65 13.15 -0.75 13.05 -1.25 13.05 -1.35 13.05 -2.65 13.05 -3.3 13.15 -3.6 13.25 -3.75 14.1 -4.8 Q14.6 -5.2 15.3 -5.4 L15.5 -5.4 16.95 -5.45 Q17.75 -5.4 18.45 -5.8 L18.95 -6.1 Q19.2 -6.3 19.4 -6.45 L20.4 -7.4 20.6 -7.6 20.7 -7.7 Q20.95 -8.1 21.2 -8.45 20.9 -8.4 20.6 -8.35 20.35 -8.35 20.1 -8.35 L19.9 -8.35 19.7 -8.35 19.35 -8.4 19.15 -8.4 18.95 -8.45 18.75 -8.45 18.55 -8.45 18.35 -8.45 18.15 -8.55 17.95 -8.65 17.3 -8.9 16.8 -9.2 16.6 -9.3 16.6 -9.3 16.6 -9.3 16.6 -9.6 16.5 -10.0 16.45 -10.3 16.45 -10.9 16.45 -11.55 16.7 -11.95 Q16.9 -12.2 17.05 -12.45 L17.05 -12.55 Q17.75 -13.5 18.9 -14.1 L19.05 -14.35 19.05 -14.6 19.05 -14.8 18.6 -15.2 18.5 -15.2 17.65 -15.1 17.35 -15.0 17.05 -14.8 16.95 -14.7 16.85 -14.6 Q15.9 -13.7 15.0 -12.85 L14.45 -12.1 13.95 -11.85 13.7 -11.75 13.4 -11.7 12.95 -11.65 Q11.95 -11.6 11.0 -12.3 10.95 -13.1 10.9 -13.9 L10.9 -14.55 11.25 -14.85 11.45 -15.05 Q12.05 -15.65 12.6 -16.25 L13.35 -17.1 13.45 -17.75 13.5 -17.8 13.3 -17.85 12.65 -18.0 12.05 -17.7 10.55 -17.0 10.35 -16.9 10.05 -16.7 9.75 -16.5 9.55 -16.4 8.75 -15.85 8.75 -15.5 8.75 -15.2 8.75 -15.2 8.3 -14.7 8.1 -14.5 Q7.5 -14.05 6.85 -14.0 L6.55 -14.0 6.35 -14.0 6.15 -14.0 5.95 -14.05 5.75 -14.1 Q5.4 -14.3 5.05 -14.45 4.85 -15.2 4.9 -16.05 L4.9 -16.15 4.9 -16.2 4.8 -16.1 4.6 -16.0 4.4 -15.9 4.2 -15.8 4.0 -15.7 3.8 -15.6 2.8 -15.0 2.2 -14.65 2.3 -13.85 2.3 -13.65 2.3 -13.45 2.3 -13.35 2.4 -12.75 2.4 -12.15 2.4 -11.95 2.45 -10.5 Q2.4 -10.1 2.4 -9.7 L2.4 -9.6 2.25 -9.15 2.1 -8.9 2.1 -8.9 1.8 -8.6 Q1.4 -8.3 0.85 -8.2 L0.85 -8.2 0.55 -8.15 0.25 -8.15 -0.05 -8.15 -0.4 -8.15 -0.5 -8.15 -0.9 -8.3 -1.4 -8.45 -1.45 -8.85 Q-1.5 -10.1 -1.5 -11.35 L-1.5 -11.7 Q-2.2 -10.95 -2.9 -10.25 L-3.3 -9.75 -3.4 -9.65 -3.85 -9.1 Q-4.7 -7.95 -5.55 -6.8 -6.85 -4.8 -6.9 -2.4" fill="url(#gradient0)" fill-rule="evenodd" stroke="none">
      <animate attributeName="d" dur="2s" repeatCount="indefinite" values="M-6.9 -2.4 L-6.9 -2.4 -6.5 -1.7 Q-4.6 0.9 -2.75 3.5 -2.1 4.25 -1.1 4.4 L3.5 4.9 Q5.6 4.95 7.7 5.0 8.95 4.15 10.2 3.3 L11.05 2.65 11.95 2.0 12.25 1.75 12.35 1.65 12.45 1.55 12.55 1.45 12.75 1.35 14.3 0.05 14.5 -0.15 13.9 -0.35 13.75 -0.45 13.55 -0.55 13.35 -0.65 13.15 -0.75 13.05 -1.25 13.05 -1.35 13.05 -2.65 13.05 -3.3 13.15 -3.6 13.25 -3.75 14.1 -4.8 Q14.6 -5.2 15.3 -5.4 L15.5 -5.4 16.95 -5.45 Q17.75 -5.4 18.45 -5.8 L18.95 -6.1 Q19.2 -6.3 19.4 -6.45 L20.4 -7.4 20.6 -7.6 20.7 -7.7 Q20.95 -8.1 21.2 -8.45 20.9 -8.4 20.6 -8.35 20.35 -8.35 20.1 -8.35 L19.9 -8.35 19.7 -8.35 19.35 -8.4 19.15 -8.4 18.95 -8.45 18.75 -8.45 18.55 -8.45 18.35 -8.45 18.15 -8.55 17.95 -8.65 17.3 -8.9 16.8 -9.2 16.6 -9.3 16.6 -9.3 16.6 -9.3 16.6 -9.6 16.5 -10.0 16.45 -10.3 16.45 -10.9 16.45 -11.55 16.7 -11.95 Q16.9 -12.2 17.05 -12.45 L17.05 -12.55 Q17.75 -13.5 18.9 -14.1 L19.05 -14.35 19.05 -14.6 19.05 -14.8 18.6 -15.2 18.5 -15.2 17.65 -15.1 17.35 -15.0 17.05 -14.8 16.95 -14.7 16.85 -14.6 Q15.9 -13.7 15.0 -12.85 L14.45 -12.1 13.95 -11.85 13.7 -11.75 13.4 -11.7 12.95 -11.65 Q11.95 -11.6 11.0 -12.3 10.95 -13.1 10.9 -13.9 L10.9 -14.55 11.25 -14.85 11.45 -15.05 Q12.05 -15.65 12.6 -16.25 L13.35 -17.1 13.45 -17.75 13.5 -17.8 13.3 -17.85 12.65 -18.0 12.05 -17.7 10.55 -17.0 10.35 -16.9 10.05 -16.7 9.75 -16.5 9.55 -16.4 8.75 -15.85 8.75 -15.5 8.75 -15.2 8.75 -15.2 8.3 -14.7 8.1 -14.5 Q7.5 -14.05 6.85 -14.0 L6.55 -14.0 6.35 -14.0 6.15 -14.0 5.95 -14.05 5.75 -14.1 Q5.4 -14.3 5.05 -14.45 4.85 -15.2 4.9 -16.05 L4.9 -16.15 4.9 -16.2 4.8 -16.1 4.6 -16.0 4.4 -15.9 4.2 -15.8 4.0 -15.7 3.8 -15.6 2.8 -15.0 2.2 -14.65 2.3 -13.85 2.3 -13.65 2.3 -13.45 2.3 -13.35 2.4 -12.75 2.4 -12.15 2.4 -11.95 2.45 -10.5 Q2.4 -10.1 2.4 -9.7 L2.4 -9.6 2.25 -9.15 2.1 -8.9 2.1 -8.9 1.8 -8.6 Q1.4 -8.3 0.85 -8.2 L0.85 -8.2 0.55 -8.15 0.25 -8.15 -0.05 -8.15 -0.4 -8.15 -0.5 -8.15 -0.9 -8.3 -1.4 -8.45 -1.45 -8.85 Q-1.5 -10.1 -1.5 -11.35 L-1.5 -11.7 Q-2.2 -10.95 -2.9 -10.25 L-3.3 -9.75 -3.4 -9.65 -3.85 -9.1 Q-4.7 -7.95 -5.55 -6.8 -6.85 -4.8 -6.9 -2.4;M-11.8 1.5 L-11.55 2.05 -10.55 3.15 Q-5.1 7.5 1.2 8.9 2.95 9.2 4.65 9.5 L14.1 9.1 Q18.0 6.8 21.15 3.85 23.55 1.6 25.5 -1.05 L25.45 -3.3 25.45 -5.55 25.8 -5.9 25.85 -6.2 25.9 -6.5 25.9 -6.85 26.2 -7.15 29.45 -9.7 29.85 -10.0 31.0 -11.25 31.0 -11.55 31.0 -11.85 31.25 -12.1 31.3 -12.4 31.7 -13.7 31.75 -13.75 29.15 -13.7 27.85 -13.85 26.85 -14.0 26.8 -14.35 26.75 -16.9 Q26.7 -18.4 27.3 -19.8 L27.6 -20.1 30.2 -21.9 Q31.45 -22.6 32.7 -23.3 L33.4 -23.6 Q33.95 -23.85 34.3 -24.3 L34.5 -27.4 34.0 -27.4 33.7 -27.05 Q33.0 -26.3 32.15 -26.05 31.35 -25.85 30.4 -26.05 29.9 -26.15 29.4 -26.4 L29.35 -26.75 29.3 -27.05 29.3 -27.7 29.1 -28.05 28.9 -28.35 28.9 -28.65 28.9 -29.0 28.65 -29.3 28.45 -29.65 28.45 -29.95 28.45 -31.25 28.45 -32.5 28.75 -32.85 28.8 -32.95 28.85 -33.15 28.9 -33.8 28.9 -34.45 29.05 -34.75 30.15 -35.9 31.1 -36.6 32.2 -37.1 Q32.9 -37.35 33.15 -37.85 L33.2 -37.95 Q30.7 -38.05 28.2 -38.15 L27.2 -38.5 26.8 -38.7 26.6 -38.8 25.9 -39.45 25.9 -39.8 25.9 -41.4 25.9 -41.9 25.9 -43.0 25.9 -43.3 25.6 -43.25 Q23.1 -41.65 23.25 -38.85 L23.3 -36.75 23.3 -35.3 23.1 -35.0 22.9 -34.65 22.8 -34.05 Q22.25 -31.55 20.7 -30.6 19.45 -29.85 17.55 -30.15 L16.35 -30.45 15.7 -30.7 15.65 -31.05 Q15.3 -33.1 16.55 -34.65 L18.1 -36.25 19.25 -37.2 19.45 -37.35 19.5 -37.65 19.6 -39.0 19.4 -40.6 18.95 -43.95 18.75 -43.65 18.6 -43.0 18.5 -42.35 18.25 -42.05 16.65 -40.35 16.25 -39.95 15.85 -39.55 15.75 -39.45 14.85 -38.2 14.55 -38.0 Q13.4 -37.25 12.3 -36.5 L11.75 -36.15 11.65 -35.8 11.65 -35.5 11.75 -35.2 11.7 -34.95 Q11.1 -34.3 10.45 -34.0 8.9 -33.25 7.05 -34.35 L6.75 -34.55 6.75 -34.65 6.65 -34.9 6.65 -35.5 6.65 -36.15 6.5 -36.45 6.2 -36.8 6.05 -36.55 5.5 -34.05 5.3 -32.65 5.35 -31.45 5.15 -31.15 4.9 -30.8 4.95 -30.5 4.8 -29.2 4.15 -27.9 3.85 -27.75 0.95 -27.55 Q0.4 -27.75 -0.1 -28.15 L-0.2 -28.45 -0.2 -29.4 -0.2 -30.05 -0.3 -30.15 -1.0 -29.85 Q-1.7 -28.95 -2.35 -28.1 L-2.35 -28.05 -2.35 -27.4 -2.35 -26.75 -2.55 -26.4 -3.0 -25.8 -3.1 -25.5 -3.65 -24.8 -3.6 -23.8 -3.55 -22.9 Q-3.3 -19.85 -4.9 -17.9 L-5.45 -17.35 Q-6.65 -16.25 -8.55 -15.6 L-9.95 -15.1 -10.1 -14.8 -11.05 -13.6 Q-12.5 -10.75 -12.95 -7.8 -13.6 -3.25 -11.8 1.5"/>
    </path>
    <path d="M-6.9 -2.4 Q-6.85 -4.8 -5.55 -6.8 -4.7 -7.95 -3.85 -9.1 L-3.4 -9.65 -3.3 -9.75 -2.9 -10.25 Q-2.2 -10.95 -1.5 -11.7 L-1.5 -11.35 Q-1.5 -10.1 -1.45 -8.85 L-1.4 -8.45 -0.9 -8.3 -0.5 -8.15 -0.4 -8.15 -0.05 -8.15 0.25 -8.15 0.55 -8.15 0.85 -8.2 0.85 -8.2 Q1.4 -8.3 1.8 -8.6 L2.1 -8.9 2.1 -8.9 2.25 -9.15 2.4 -9.6 2.4 -9.7 Q2.4 -10.1 2.45 -10.5 L2.4 -11.95 2.4 -12.15 2.4 -12.75 2.3 -13.35 2.3 -13.45 2.3 -13.65 2.3 -13.85 2.2 -14.65 2.8 -15.0 3.8 -15.6 4.0 -15.7 4.2 -15.8 4.4 -15.9 4.6 -16.0 4.8 -16.1 4.9 -16.2 4.9 -16.15 4.9 -16.05 Q4.85 -15.2 5.05 -14.45 5.4 -14.3 5.75 -14.1 L5.95 -14.05 6.15 -14.0 6.35 -14.0 6.55 -14.0 6.85 -14.0 Q7.5 -14.05 8.1 -14.5 L8.3 -14.7 8.75 -15.2 8.75 -15.2 8.75 -15.5 8.75 -15.85 9.55 -16.4 9.75 -16.5 10.05 -16.7 10.35 -16.9 10.55 -17.0 12.05 -17.7 12.65 -18.0 13.3 -17.85 13.5 -17.8 13.45 -17.75 13.35 -17.1 12.6 -16.25 Q12.05 -15.65 11.45 -15.05 L11.25 -14.85 10.9 -14.55 10.9 -13.9 Q10.95 -13.1 11.0 -12.3 11.95 -11.6 12.95 -11.65 L13.4 -11.7 13.7 -11.75 13.95 -11.85 14.45 -12.1 15.0 -12.85 Q15.9 -13.7 16.85 -14.6 L16.95 -14.7 17.05 -14.8 17.35 -15.0 17.65 -15.1 18.5 -15.2 18.6 -15.2 19.05 -14.8 19.05 -14.6 19.05 -14.35 18.9 -14.1 Q17.75 -13.5 17.05 -12.55 L17.05 -12.45 Q16.9 -12.2 16.7 -11.95 L16.45 -11.55 16.45 -10.9 16.45 -10.3 16.5 -10.0 16.6 -9.6 16.6 -9.3 16.6 -9.3 16.6 -9.3 16.8 -9.2 17.3 -8.9 17.95 -8.65 18.15 -8.55 18.35 -8.45 18.55 -8.45 18.75 -8.45 18.95 -8.45 19.15 -8.4 19.35 -8.4 19.7 -8.35 19.9 -8.35 20.1 -8.35 Q20.35 -8.35 20.6 -8.35 20.9 -8.4 21.2 -8.45 20.95 -8.1 20.7 -7.7 L20.6 -7.6 20.4 -7.4 19.4 -6.45 Q19.2 -6.3 18.95 -6.1 L18.45 -5.8 Q17.75 -5.4 16.95 -5.45 L15.5 -5.4 15.3 -5.4 Q14.6 -5.2 14.1 -4.8 L13.25 -3.75 13.15 -3.6 13.05 -3.3 13.05 -2.65 13.05 -1.35 13.05 -1.25 13.15 -0.75 13.35 -0.65 13.55 -0.55 13.75 -0.45 13.9 -0.35 14.5 -0.15 14.3 0.05 12.75 1.35 12.55 1.45 12.45 1.55 12.35 1.65 12.25 1.75 11.95 2.0 11.05 2.65 10.2 3.3 Q8.95 4.15 7.7 5.0 5.6 4.95 3.5 4.9 L-1.1 4.4 Q-2.1 4.25 -2.75 3.5 -4.6 0.9 -6.5 -1.7 L-6.9 -2.4 -6.9 -2.4" fill="none" stroke="#000000" stroke-linecap="round" stroke-linejoin="round" stroke-opacity="0.0" stroke-width="1.0">
      <animate attributeName="stroke" dur="2s" repeatCount="indefinite" values="#000000;#000001"/>
      <animate attributeName="stroke-width" dur="2s" repeatCount="indefinite" values="0.0;0.0"/>
      <animate attributeName="fill-opacity" dur="2s" repeatCount="indefinite" values="0.0;0.0"/>
      <animate attributeName="d" dur="2s" repeatCount="indefinite" values="M-6.9 -2.4 Q-6.85 -4.8 -5.55 -6.8 -4.7 -7.95 -3.85 -9.1 L-3.4 -9.65 -3.3 -9.75 -2.9 -10.25 Q-2.2 -10.95 -1.5 -11.7 L-1.5 -11.35 Q-1.5 -10.1 -1.45 -8.85 L-1.4 -8.45 -0.9 -8.3 -0.5 -8.15 -0.4 -8.15 -0.05 -8.15 0.25 -8.15 0.55 -8.15 0.85 -8.2 0.85 -8.2 Q1.4 -8.3 1.8 -8.6 L2.1 -8.9 2.1 -8.9 2.25 -9.15 2.4 -9.6 2.4 -9.7 Q2.4 -10.1 2.45 -10.5 L2.4 -11.95 2.4 -12.15 2.4 -12.75 2.3 -13.35 2.3 -13.45 2.3 -13.65 2.3 -13.85 2.2 -14.65 2.8 -15.0 3.8 -15.6 4.0 -15.7 4.2 -15.8 4.4 -15.9 4.6 -16.0 4.8 -16.1 4.9 -16.2 4.9 -16.15 4.9 -16.05 Q4.85 -15.2 5.05 -14.45 5.4 -14.3 5.75 -14.1 L5.95 -14.05 6.15 -14.0 6.35 -14.0 6.55 -14.0 6.85 -14.0 Q7.5 -14.05 8.1 -14.5 L8.3 -14.7 8.75 -15.2 8.75 -15.2 8.75 -15.5 8.75 -15.85 9.55 -16.4 9.75 -16.5 10.05 -16.7 10.35 -16.9 10.55 -17.0 12.05 -17.7 12.65 -18.0 13.3 -17.85 13.5 -17.8 13.45 -17.75 13.35 -17.1 12.6 -16.25 Q12.05 -15.65 11.45 -15.05 L11.25 -14.85 10.9 -14.55 10.9 -13.9 Q10.95 -13.1 11.0 -12.3 11.95 -11.6 12.95 -11.65 L13.4 -11.7 13.7 -11.75 13.95 -11.85 14.45 -12.1 15.0 -12.85 Q15.9 -13.7 16.85 -14.6 L16.95 -14.7 17.05 -14.8 17.35 -15.0 17.65 -15.1 18.5 -15.2 18.6 -15.2 19.05 -14.8 19.05 -14.6 19.05 -14.35 18.9 -14.1 Q17.75 -13.5 17.05 -12.55 L17.05 -12.45 Q16.9 -12.2 16.7 -11.95 L16.45 -11.55 16.45 -10.9 16.45 -10.3 16.5 -10.0 16.6 -9.6 16.6 -9.3 16.6 -9.3 16.6 -9.3 16.8 -9.2 17.3 -8.9 17.95 -8.65 18.15 -8.55 18.35 -8.45 18.55 -8.45 18.75 -8.45 18.95 -8.45 19.15 -8.4 19.35 -8.4 19.7 -8.35 19.9 -8.35 20.1 -8.35 Q20.35 -8.35 20.6 -8.35 20.9 -8.4 21.2 -8.45 20.95 -8.1 20.7 -7.7 L20.6 -7.6 20.4 -7.4 19.4 -6.45 Q19.2 -6.3 18.95 -6.1 L18.45 -5.8 Q17.75 -5.4 16.95 -5.45 L15.5 -5.4 15.3 -5.4 Q14.6 -5.2 14.1 -4.8 L13.25 -3.75 13.15 -3.6 13.05 -3.3 13.05 -2.65 13.05 -1.35 13.05 -1.25 13.15 -0.75 13.35 -0.65 13.55 -0.55 13.75 -0.45 13.9 -0.35 14.5 -0.15 14.3 0.05 12.75 1.35 12.55 1.45 12.45 1.55 12.35 1.65 12.25 1.75 11.95 2.0 11.05 2.65 10.2 3.3 Q8.95 4.15 7.7 5.0 5.6 4.95 3.5 4.9 L-1.1 4.4 Q-2.1 4.25 -2.75 3.5 -4.6 0.9 -6.5 -1.7 L-6.9 -2.4 -6.9 -2.4;M-11.8 1.5 Q-13.6 -3.25 -12.95 -7.8 -12.5 -10.75 -11.05 -13.6 L-10.1 -14.8 -9.95 -15.1 -8.55 -15.6 Q-6.65 -16.25 -5.45 -17.35 L-4.9 -17.9 Q-3.3 -19.85 -3.55 -22.9 L-3.6 -23.8 -3.65 -24.8 -3.1 -25.5 -3.0 -25.8 -2.55 -26.4 -2.35 -26.75 -2.35 -27.4 -2.35 -28.05 -2.35 -28.1 Q-1.7 -28.95 -1.0 -29.85 L-0.3 -30.15 -0.2 -30.05 -0.2 -29.4 -0.2 -28.45 -0.1 -28.15 Q0.4 -27.75 0.95 -27.55 L3.85 -27.75 4.15 -27.9 4.8 -29.2 4.95 -30.5 4.9 -30.8 5.15 -31.15 5.35 -31.45 5.3 -32.65 5.5 -34.05 6.05 -36.55 6.2 -36.8 6.5 -36.45 6.65 -36.15 6.65 -35.5 6.65 -34.9 6.75 -34.65 6.75 -34.55 7.05 -34.35 Q8.9 -33.25 10.45 -34.0 11.1 -34.3 11.7 -34.95 L11.75 -35.2 11.65 -35.5 11.65 -35.8 11.75 -36.15 12.3 -36.5 Q13.4 -37.25 14.55 -38.0 L14.85 -38.2 15.75 -39.45 15.85 -39.55 16.25 -39.95 16.65 -40.35 18.25 -42.05 18.5 -42.35 18.6 -43.0 18.75 -43.65 18.95 -43.95 19.4 -40.6 19.6 -39.0 19.5 -37.65 19.45 -37.35 19.25 -37.2 18.1 -36.25 16.55 -34.65 Q15.3 -33.1 15.65 -31.05 L15.7 -30.7 16.35 -30.45 17.55 -30.15 Q19.45 -29.85 20.7 -30.6 22.25 -31.55 22.8 -34.05 L22.9 -34.65 23.1 -35.0 23.3 -35.3 23.3 -36.75 23.25 -38.85 Q23.1 -41.65 25.6 -43.25 L25.9 -43.3 25.9 -43.0 25.9 -41.9 25.9 -41.4 25.9 -39.8 25.9 -39.45 26.6 -38.8 26.8 -38.7 27.2 -38.5 28.2 -38.15 Q30.7 -38.05 33.2 -37.95 L33.15 -37.85 Q32.9 -37.35 32.2 -37.1 L31.1 -36.6 30.15 -35.9 29.05 -34.75 28.9 -34.45 28.9 -33.8 28.85 -33.15 28.8 -32.95 28.75 -32.85 28.45 -32.5 28.45 -31.25 28.45 -29.95 28.45 -29.65 28.65 -29.3 28.9 -29.0 28.9 -28.65 28.9 -28.35 29.1 -28.05 29.3 -27.7 29.3 -27.05 29.35 -26.75 29.4 -26.4 Q29.9 -26.15 30.4 -26.05 31.35 -25.85 32.15 -26.05 33.0 -26.3 33.7 -27.05 L34.0 -27.4 34.5 -27.4 34.3 -24.3 Q33.95 -23.85 33.4 -23.6 L32.7 -23.3 Q31.45 -22.6 30.2 -21.9 L27.6 -20.1 27.3 -19.8 Q26.7 -18.4 26.75 -16.9 L26.8 -14.35 26.85 -14.0 27.85 -13.85 29.15 -13.7 31.75 -13.75 31.7 -13.7 31.3 -12.4 31.25 -12.1 31.0 -11.85 31.0 -11.55 31.0 -11.25 29.85 -10.0 29.45 -9.7 26.2 -7.15 25.9 -6.85 25.9 -6.5 25.85 -6.2 25.8 -5.9 25.45 -5.55 25.45 -3.3 25.5 -1.05 Q23.55 1.6 21.15 3.85 18.0 6.8 14.1 9.1 L4.65 9.5 Q2.95 9.2 1.2 8.9 -5.1 7.5 -10.55 3.15 L-11.55 2.05 -11.8 1.5"/>
    </path>
  </g>
  <defs>
    <radialGradient cx="0" cy="0" gradientTransform="matrix(0.0403, 0.0073, -0.0084, 0.0459, 8.15, -14.15)" gradientUnits="userSpaceOnUse" id="gradient0" r="819.2" spreadMethod="pad">
      <animateTransform additive="replace" attributeName="gradientTransform" dur="2s" from="1" repeatCount="indefinite" to="1" type="scale"/>
      <animateTransform additive="sum" attributeName="gradientTransform" dur="2s" from="8.15 -14.15" repeatCount="indefinite" to="8.15 -14.15" type="translate"/>
      <animateTransform additive="sum" attributeName="gradientTransform" dur="2s" from="10.3087" repeatCount="indefinite" to="10.3087" type="rotate"/>
      <animateTransform additive="sum" attributeName="gradientTransform" dur="2s" from="0.0409 0.0467" repeatCount="indefinite" to="0.0409 0.0467" type="scale"/>
      <animateTransform additive="sum" attributeName="gradientTransform" dur="2s" from="-0.0147" repeatCount="indefinite" to="-0.0147" type="skewX"/>
      <stop offset="0.0" stop-color="#fefe0c">
        <animate attributeName="offset" dur="2s" repeatCount="indefinite" values="0.0;0.0"/>
        <animate attributeName="stop-color" dur="2s" repeatCount="indefinite" values="#fefe0c;#fefe0d"/>
        <animate attributeName="stop-opacity" dur="2s" repeatCount="indefinite" values="1.0;1.0"/>
      </stop>
      <stop offset="0.5764705882352941" stop-color="#ffba2b">
        <animate attributeName="offset" dur="2s" repeatCount="indefinite" values="0.5764705882352941;0.5764705882352941"/>
        <animate attributeName="stop-color" dur="2s" repeatCount="indefinite" values="#ffba2b;#ffba2c"/>
        <animate attributeName="stop-opacity" dur="2s" repeatCount="indefinite" values="1.0;1.0"/>
      </stop>
      <stop offset="1.0" stop-color="#ff720b">
        <animate attributeName="offset" dur="2s" repeatCount="indefinite" values="1.0;1.0"/>
        <animate attributeName="stop-color" dur="2s" repeatCount="indefinite" values="#ff720b;#ff720c"/>
        <animate attributeName="stop-opacity" dur="2s" repeatCount="indefinite" values="1.0;1.0"/>
      </stop>
    </radialGradient>
  </defs>
</svg>
