<?xml version="1.0" encoding="UTF-8" standalone="no"?>
<svg xmlns:xlink="http://www.w3.org/1999/xlink" height="70.3px" width="68.7px" xmlns="http://www.w3.org/2000/svg">
  <g transform="matrix(1.0, 0.0, 0.0, 1.0, 15.3, 60.65)">
    <path d="M-11.8 1.5 L-11.7 1.7 -10.55 3.15 -6.7 5.8 -5.8 6.3 Q-1.7 8.5 2.8 9.25 6.2 9.45 9.6 9.6 L14.1 9.1 14.4 8.9 Q18.95 6.15 22.45 2.55 24.0 0.75 25.5 -1.05 L25.45 -3.3 25.45 -5.55 25.8 -5.9 25.85 -6.2 25.9 -6.5 25.9 -6.85 26.1 -7.05 26.2 -7.15 29.45 -9.7 29.75 -9.95 31.0 -11.25 31.0 -11.55 31.0 -11.55 31.0 -11.85 31.25 -12.1 31.7 -13.7 31.75 -13.75 Q31.05 -13.7 30.35 -13.7 29.15 -13.75 27.95 -13.8 L26.85 -14.0 26.8 -14.35 26.8 -15.45 26.75 -16.9 Q26.7 -18.4 27.3 -19.8 L27.6 -20.1 29.35 -21.3 Q30.15 -21.8 30.95 -22.25 L31.4 -22.55 Q32.4 -23.1 33.4 -23.6 33.95 -23.85 34.3 -24.3 L34.4 -25.7 Q34.45 -26.55 34.5 -27.4 L34.0 -27.4 33.7 -27.05 Q32.75 -26.05 31.5 -26.0 L30.4 -26.05 Q29.9 -26.15 29.4 -26.4 L29.35 -26.75 29.3 -27.05 29.3 -27.7 29.1 -28.05 28.9 -28.35 28.9 -28.65 28.9 -29.0 28.65 -29.3 28.45 -29.65 28.45 -29.95 28.45 -31.25 28.45 -32.1 28.45 -32.5 28.75 -32.85 28.85 -33.15 28.9 -33.8 28.9 -34.45 29.05 -34.75 30.55 -36.25 Q31.3 -36.8 32.2 -37.1 32.9 -37.35 33.15 -37.85 L33.2 -37.95 Q30.0 -37.35 26.8 -38.7 L25.9 -39.45 25.9 -39.7 25.9 -39.8 25.9 -40.4 25.9 -41.4 Q25.9 -42.2 25.9 -43.0 L25.9 -43.3 25.6 -43.25 Q24.15 -42.35 23.6 -41.05 23.2 -40.05 23.25 -38.85 23.3 -37.05 23.3 -35.3 L23.1 -35.0 22.9 -34.65 22.9 -34.35 22.8 -34.05 22.45 -32.9 Q21.5 -30.35 19.25 -30.1 17.75 -29.9 15.7 -30.7 L15.65 -31.05 Q15.3 -33.0 16.45 -34.55 L16.55 -34.65 Q17.85 -36.2 19.45 -37.35 L19.5 -37.65 19.5 -37.9 Q19.7 -39.3 19.4 -40.6 19.25 -41.35 19.15 -42.1 L18.95 -43.95 18.75 -43.65 18.6 -43.0 Q18.55 -42.65 18.5 -42.35 L18.25 -42.05 Q17.35 -41.1 16.45 -40.15 L15.75 -39.45 14.85 -38.2 14.55 -38.0 14.55 -38.0 13.2 -37.1 12.75 -36.8 12.6 -36.7 12.3 -36.5 12.1 -36.4 11.75 -36.15 11.7 -36.0 11.65 -35.8 11.65 -35.5 11.75 -35.2 11.7 -34.95 Q10.9 -34.4 10.1 -33.85 L8.5 -33.75 Q7.65 -33.95 6.75 -34.55 L6.65 -34.9 6.65 -35.5 6.65 -36.15 6.5 -36.45 6.2 -36.8 6.05 -36.55 5.75 -35.25 5.5 -34.05 Q5.2 -32.8 5.35 -31.45 L5.35 -31.45 5.15 -31.15 4.9 -30.8 4.95 -30.5 4.8 -29.2 4.15 -27.9 3.85 -27.75 Q1.55 -26.85 -0.1 -28.15 L-0.2 -28.45 -0.2 -29.4 -0.2 -30.05 -0.3 -30.15 -1.0 -29.85 -1.85 -28.75 Q-2.1 -28.4 -2.35 -28.1 L-2.35 -28.05 -2.35 -27.4 -2.35 -26.75 -2.55 -26.4 -3.1 -25.5 -3.65 -24.8 Q-3.6 -23.85 -3.55 -22.9 -3.4 -21.4 -3.75 -20.25 L-3.75 -20.05 Q-4.05 -19.35 -4.35 -18.65 -5.4 -16.9 -7.75 -15.9 L-8.15 -15.7 -8.55 -15.6 -9.95 -15.1 -10.1 -14.8 -11.05 -13.6 -12.0 -11.5 Q-13.15 -8.3 -13.1 -5.0 -13.0 -4.0 -12.95 -3.0 -12.65 -0.75 -11.8 1.5" fill="url(#gradient0)" fill-rule="evenodd" stroke="none">
      <animate attributeName="d" dur="2s" repeatCount="indefinite" values="M-11.8 1.5 L-11.7 1.7 -10.55 3.15 -6.7 5.8 -5.8 6.3 Q-1.7 8.5 2.8 9.25 6.2 9.45 9.6 9.6 L14.1 9.1 14.4 8.9 Q18.95 6.15 22.45 2.55 24.0 0.75 25.5 -1.05 L25.45 -3.3 25.45 -5.55 25.8 -5.9 25.85 -6.2 25.9 -6.5 25.9 -6.85 26.1 -7.05 26.2 -7.15 29.45 -9.7 29.75 -9.95 31.0 -11.25 31.0 -11.55 31.0 -11.55 31.0 -11.85 31.25 -12.1 31.7 -13.7 31.75 -13.75 Q31.05 -13.7 30.35 -13.7 29.15 -13.75 27.95 -13.8 L26.85 -14.0 26.8 -14.35 26.8 -15.45 26.75 -16.9 Q26.7 -18.4 27.3 -19.8 L27.6 -20.1 29.35 -21.3 Q30.15 -21.8 30.95 -22.25 L31.4 -22.55 Q32.4 -23.1 33.4 -23.6 33.95 -23.85 34.3 -24.3 L34.4 -25.7 Q34.45 -26.55 34.5 -27.4 L34.0 -27.4 33.7 -27.05 Q32.75 -26.05 31.5 -26.0 L30.4 -26.05 Q29.9 -26.15 29.4 -26.4 L29.35 -26.75 29.3 -27.05 29.3 -27.7 29.1 -28.05 28.9 -28.35 28.9 -28.65 28.9 -29.0 28.65 -29.3 28.45 -29.65 28.45 -29.95 28.45 -31.25 28.45 -32.1 28.45 -32.5 28.75 -32.85 28.85 -33.15 28.9 -33.8 28.9 -34.45 29.05 -34.75 30.55 -36.25 Q31.3 -36.8 32.2 -37.1 32.9 -37.35 33.15 -37.85 L33.2 -37.95 Q30.0 -37.35 26.8 -38.7 L25.9 -39.45 25.9 -39.7 25.9 -39.8 25.9 -40.4 25.9 -41.4 Q25.9 -42.2 25.9 -43.0 L25.9 -43.3 25.6 -43.25 Q24.15 -42.35 23.6 -41.05 23.2 -40.05 23.25 -38.85 23.3 -37.05 23.3 -35.3 L23.1 -35.0 22.9 -34.65 22.9 -34.35 22.8 -34.05 22.45 -32.9 Q21.5 -30.35 19.25 -30.1 17.75 -29.9 15.7 -30.7 L15.65 -31.05 Q15.3 -33.0 16.45 -34.55 L16.55 -34.65 Q17.85 -36.2 19.45 -37.35 L19.5 -37.65 19.5 -37.9 Q19.7 -39.3 19.4 -40.6 19.25 -41.35 19.15 -42.1 L18.95 -43.95 18.75 -43.65 18.6 -43.0 Q18.55 -42.65 18.5 -42.35 L18.25 -42.05 Q17.35 -41.1 16.45 -40.15 L15.75 -39.45 14.85 -38.2 14.55 -38.0 14.55 -38.0 13.2 -37.1 12.75 -36.8 12.6 -36.7 12.3 -36.5 12.1 -36.4 11.75 -36.15 11.7 -36.0 11.65 -35.8 11.65 -35.5 11.75 -35.2 11.7 -34.95 Q10.9 -34.4 10.1 -33.85 L8.5 -33.75 Q7.65 -33.95 6.75 -34.55 L6.65 -34.9 6.65 -35.5 6.65 -36.15 6.5 -36.45 6.2 -36.8 6.05 -36.55 5.75 -35.25 5.5 -34.05 Q5.2 -32.8 5.35 -31.45 L5.35 -31.45 5.15 -31.15 4.9 -30.8 4.95 -30.5 4.8 -29.2 4.15 -27.9 3.85 -27.75 Q1.55 -26.85 -0.1 -28.15 L-0.2 -28.45 -0.2 -29.4 -0.2 -30.05 -0.3 -30.15 -1.0 -29.85 -1.85 -28.75 Q-2.1 -28.4 -2.35 -28.1 L-2.35 -28.05 -2.35 -27.4 -2.35 -26.75 -2.55 -26.4 -3.1 -25.5 -3.65 -24.8 Q-3.6 -23.85 -3.55 -22.9 -3.4 -21.4 -3.75 -20.25 L-3.75 -20.05 Q-4.05 -19.35 -4.35 -18.65 -5.4 -16.9 -7.75 -15.9 L-8.15 -15.7 -8.55 -15.6 -9.95 -15.1 -10.1 -14.8 -11.05 -13.6 -12.0 -11.5 Q-13.15 -8.3 -13.1 -5.0 -13.0 -4.0 -12.95 -3.0 -12.65 -0.75 -11.8 1.5;M-15.3 -10.9 L-15.3 -10.9 -15.1 -7.75 -14.3 -1.0 -13.65 0.55 Q-9.8 6.15 -3.3 8.15 1.4 9.65 6.5 9.35 L13.25 8.55 13.55 8.45 Q20.35 5.05 25.8 -0.3 27.6 -3.8 30.35 -5.8 L33.05 -7.3 36.05 -8.2 37.15 -8.35 37.55 -8.4 37.95 -8.4 38.35 -8.4 38.65 -8.4 38.85 -8.6 42.4 -13.35 42.75 -13.85 40.05 -12.9 39.65 -12.7 39.65 -12.7 39.45 -12.6 38.8 -12.4 36.55 -12.55 36.35 -12.65 Q35.6 -13.1 35.1 -14.1 34.35 -15.65 34.9 -17.35 L35.65 -18.75 36.0 -19.2 37.25 -20.3 39.2 -21.5 Q40.95 -22.45 42.85 -23.1 L43.35 -23.3 46.45 -24.15 Q47.7 -24.45 48.85 -25.2 L49.1 -25.85 Q47.1 -26.1 45.85 -27.05 45.2 -27.15 44.55 -27.25 L42.5 -27.95 Q41.25 -28.5 40.6 -29.2 L40.1 -29.9 39.85 -30.55 Q39.5 -31.95 40.6 -33.85 L41.65 -35.4 Q42.15 -36.05 42.6 -36.65 L42.9 -36.95 43.2 -37.25 43.8 -37.85 44.2 -38.25 44.6 -38.65 44.9 -38.95 45.2 -39.25 45.65 -39.65 46.05 -40.05 46.45 -40.35 47.95 -41.4 48.95 -42.0 49.3 -42.15 49.5 -42.45 49.8 -42.8 50.4 -43.5 50.95 -44.2 51.45 -44.8 53.4 -46.85 Q52.2 -46.6 51.0 -46.35 50.3 -46.15 49.6 -46.0 L49.4 -45.95 Q44.9 -44.65 40.75 -42.35 L39.35 -41.55 39.05 -41.35 39.05 -41.35 38.1 -41.05 36.7 -41.05 Q35.3 -41.15 34.35 -41.7 L33.95 -41.95 33.5 -42.35 Q32.2 -43.7 32.4 -46.45 32.55 -48.3 33.3 -49.7 34.4 -51.85 36.9 -53.0 L37.5 -53.25 38.1 -53.45 38.6 -53.65 39.15 -53.85 40.8 -55.1 Q42.8 -57.6 42.55 -60.65 40.65 -58.85 38.35 -57.6 L37.85 -57.3 Q35.7 -56.1 33.25 -55.45 L32.85 -55.35 Q30.1 -54.45 28.45 -52.1 L28.15 -51.65 27.95 -51.35 Q27.0 -49.8 25.5 -48.9 24.6 -48.35 23.45 -48.1 L20.95 -47.8 20.2 -47.85 19.15 -48.1 Q18.6 -48.35 18.15 -48.7 L17.7 -49.15 Q16.75 -50.3 16.5 -52.35 L16.35 -53.75 16.15 -56.25 16.15 -56.95 16.15 -57.15 14.25 -56.0 13.8 -55.4 13.8 -55.1 13.65 -54.4 13.55 -54.1 13.05 -53.35 12.95 -53.15 12.95 -52.85 12.85 -52.45 12.75 -52.1 12.55 -51.7 Q12.2 -50.55 12.15 -49.3 L12.1 -47.05 Q13.3 -46.05 14.5 -45.1 L14.85 -44.65 15.3 -44.0 15.65 -43.3 15.85 -42.8 15.95 -42.4 16.1 -41.8 16.3 -40.0 16.2 -38.25 Q15.95 -36.35 15.0 -34.65 L15.0 -34.65 14.8 -34.3 14.45 -33.7 14.15 -33.3 13.1 -31.85 11.8 -30.5 11.3 -30.1 Q8.9 -28.1 5.9 -27.4 L5.45 -27.3 4.15 -27.15 3.25 -27.1 3.05 -27.1 1.9 -27.15 -0.15 -27.35 Q-0.7 -27.45 -1.15 -27.7 L-1.25 -27.7 -2.0 -28.2 -2.5 -28.85 -2.85 -29.65 -3.25 -31.1 -3.35 -32.3 Q-3.45 -33.75 -3.0 -35.1 -2.4 -36.85 -0.95 -38.4 L-0.95 -38.7 Q-1.0 -39.9 -0.7 -40.95 -2.75 -38.4 -4.75 -35.85 L-4.95 -35.4 -5.25 -34.7 -6.05 -33.0 -6.35 -32.5 -7.3 -30.85 -9.2 -28.15 Q-9.65 -23.4 -10.75 -18.95 -11.1 -17.65 -11.9 -16.6 -13.95 -13.9 -15.3 -10.9"/>
    </path>
    <path d="M-11.8 1.5 Q-12.65 -0.75 -12.95 -3.0 -13.0 -4.0 -13.1 -5.0 -13.15 -8.3 -12.0 -11.5 L-11.05 -13.6 -10.1 -14.8 -9.95 -15.1 -8.55 -15.6 -8.15 -15.7 -7.75 -15.9 Q-5.4 -16.9 -4.35 -18.65 -4.05 -19.35 -3.75 -20.05 L-3.75 -20.25 Q-3.4 -21.4 -3.55 -22.9 -3.6 -23.85 -3.65 -24.8 L-3.1 -25.5 -2.55 -26.4 -2.35 -26.75 -2.35 -27.4 -2.35 -28.05 -2.35 -28.1 Q-2.1 -28.4 -1.85 -28.75 L-1.0 -29.85 -0.3 -30.15 -0.2 -30.05 -0.2 -29.4 -0.2 -28.45 -0.1 -28.15 Q1.55 -26.85 3.85 -27.75 L4.15 -27.9 4.8 -29.2 4.95 -30.5 4.9 -30.8 5.15 -31.15 5.35 -31.45 5.35 -31.45 Q5.2 -32.8 5.5 -34.05 L5.75 -35.25 6.05 -36.55 6.2 -36.8 6.5 -36.45 6.65 -36.15 6.65 -35.5 6.65 -34.9 6.75 -34.55 Q7.65 -33.95 8.5 -33.75 L10.1 -33.85 Q10.9 -34.4 11.7 -34.95 L11.75 -35.2 11.65 -35.5 11.65 -35.8 11.7 -36.0 11.75 -36.15 12.1 -36.4 12.3 -36.5 12.6 -36.7 12.75 -36.8 13.2 -37.1 14.55 -38.0 14.55 -38.0 14.85 -38.2 15.75 -39.45 16.45 -40.15 Q17.35 -41.1 18.25 -42.05 L18.5 -42.35 Q18.55 -42.65 18.6 -43.0 L18.75 -43.65 18.95 -43.95 19.15 -42.1 Q19.25 -41.35 19.4 -40.6 19.7 -39.3 19.5 -37.9 L19.5 -37.65 19.45 -37.35 Q17.85 -36.2 16.55 -34.65 L16.45 -34.55 Q15.3 -33.0 15.65 -31.05 L15.7 -30.7 Q17.75 -29.9 19.25 -30.1 21.5 -30.35 22.45 -32.9 L22.8 -34.05 22.9 -34.35 22.9 -34.65 23.1 -35.0 23.3 -35.3 Q23.3 -37.05 23.25 -38.85 23.2 -40.05 23.6 -41.05 24.15 -42.35 25.6 -43.25 L25.9 -43.3 25.9 -43.0 Q25.9 -42.2 25.9 -41.4 L25.9 -40.4 25.9 -39.8 25.9 -39.7 25.9 -39.45 26.8 -38.7 Q30.0 -37.35 33.2 -37.95 L33.15 -37.85 Q32.9 -37.35 32.2 -37.1 31.3 -36.8 30.55 -36.25 L29.05 -34.75 28.9 -34.45 28.9 -33.8 28.85 -33.15 28.75 -32.85 28.45 -32.5 28.45 -32.1 28.45 -31.25 28.45 -29.95 28.45 -29.65 28.65 -29.3 28.9 -29.0 28.9 -28.65 28.9 -28.35 29.1 -28.05 29.3 -27.7 29.3 -27.05 29.35 -26.75 29.4 -26.4 Q29.9 -26.15 30.4 -26.05 L31.5 -26.0 Q32.75 -26.05 33.7 -27.05 L34.0 -27.4 34.5 -27.4 Q34.45 -26.55 34.4 -25.7 L34.3 -24.3 Q33.95 -23.85 33.4 -23.6 32.4 -23.1 31.4 -22.55 L30.95 -22.25 Q30.15 -21.8 29.35 -21.3 L27.6 -20.1 27.3 -19.8 Q26.7 -18.4 26.75 -16.9 L26.8 -15.45 26.8 -14.35 26.85 -14.0 27.95 -13.8 Q29.15 -13.75 30.35 -13.7 31.05 -13.7 31.75 -13.75 L31.7 -13.7 31.25 -12.1 31.0 -11.85 31.0 -11.55 31.0 -11.55 31.0 -11.25 29.75 -9.95 29.45 -9.7 26.2 -7.15 26.1 -7.05 25.9 -6.85 25.9 -6.5 25.85 -6.2 25.8 -5.9 25.45 -5.55 25.45 -3.3 25.5 -1.05 Q24.0 0.75 22.45 2.55 18.95 6.15 14.4 8.9 L14.1 9.1 9.6 9.6 Q6.2 9.45 2.8 9.25 -1.7 8.5 -5.8 6.3 L-6.7 5.8 -10.55 3.15 -11.7 1.7 -11.8 1.5" fill="none" stroke="#000000" stroke-linecap="round" stroke-linejoin="round" stroke-opacity="0.0" stroke-width="1.0">
      <animate attributeName="stroke" dur="2s" repeatCount="indefinite" values="#000000;#000001"/>
      <animate attributeName="stroke-width" dur="2s" repeatCount="indefinite" values="0.0;0.0"/>
      <animate attributeName="fill-opacity" dur="2s" repeatCount="indefinite" values="0.0;0.0"/>
      <animate attributeName="d" dur="2s" repeatCount="indefinite" values="M-11.8 1.5 Q-12.65 -0.75 -12.95 -3.0 -13.0 -4.0 -13.1 -5.0 -13.15 -8.3 -12.0 -11.5 L-11.05 -13.6 -10.1 -14.8 -9.95 -15.1 -8.55 -15.6 -8.15 -15.7 -7.75 -15.9 Q-5.4 -16.9 -4.35 -18.65 -4.05 -19.35 -3.75 -20.05 L-3.75 -20.25 Q-3.4 -21.4 -3.55 -22.9 -3.6 -23.85 -3.65 -24.8 L-3.1 -25.5 -2.55 -26.4 -2.35 -26.75 -2.35 -27.4 -2.35 -28.05 -2.35 -28.1 Q-2.1 -28.4 -1.85 -28.75 L-1.0 -29.85 -0.3 -30.15 -0.2 -30.05 -0.2 -29.4 -0.2 -28.45 -0.1 -28.15 Q1.55 -26.85 3.85 -27.75 L4.15 -27.9 4.8 -29.2 4.95 -30.5 4.9 -30.8 5.15 -31.15 5.35 -31.45 5.35 -31.45 Q5.2 -32.8 5.5 -34.05 L5.75 -35.25 6.05 -36.55 6.2 -36.8 6.5 -36.45 6.65 -36.15 6.65 -35.5 6.65 -34.9 6.75 -34.55 Q7.65 -33.95 8.5 -33.75 L10.1 -33.85 Q10.9 -34.4 11.7 -34.95 L11.75 -35.2 11.65 -35.5 11.65 -35.8 11.7 -36.0 11.75 -36.15 12.1 -36.4 12.3 -36.5 12.6 -36.7 12.75 -36.8 13.2 -37.1 14.55 -38.0 14.55 -38.0 14.85 -38.2 15.75 -39.45 16.45 -40.15 Q17.35 -41.1 18.25 -42.05 L18.5 -42.35 Q18.55 -42.65 18.6 -43.0 L18.75 -43.65 18.95 -43.95 19.15 -42.1 Q19.25 -41.35 19.4 -40.6 19.7 -39.3 19.5 -37.9 L19.5 -37.65 19.45 -37.35 Q17.85 -36.2 16.55 -34.65 L16.45 -34.55 Q15.3 -33.0 15.65 -31.05 L15.7 -30.7 Q17.75 -29.9 19.25 -30.1 21.5 -30.35 22.45 -32.9 L22.8 -34.05 22.9 -34.35 22.9 -34.65 23.1 -35.0 23.3 -35.3 Q23.3 -37.05 23.25 -38.85 23.2 -40.05 23.6 -41.05 24.15 -42.35 25.6 -43.25 L25.9 -43.3 25.9 -43.0 Q25.9 -42.2 25.9 -41.4 L25.9 -40.4 25.9 -39.8 25.9 -39.7 25.9 -39.45 26.8 -38.7 Q30.0 -37.35 33.2 -37.95 L33.15 -37.85 Q32.9 -37.35 32.2 -37.1 31.3 -36.8 30.55 -36.25 L29.05 -34.75 28.9 -34.45 28.9 -33.8 28.85 -33.15 28.75 -32.85 28.45 -32.5 28.45 -32.1 28.45 -31.25 28.45 -29.95 28.45 -29.65 28.65 -29.3 28.9 -29.0 28.9 -28.65 28.9 -28.35 29.1 -28.05 29.3 -27.7 29.3 -27.05 29.35 -26.75 29.4 -26.4 Q29.9 -26.15 30.4 -26.05 L31.5 -26.0 Q32.75 -26.05 33.7 -27.05 L34.0 -27.4 34.5 -27.4 Q34.45 -26.55 34.4 -25.7 L34.3 -24.3 Q33.95 -23.85 33.4 -23.6 32.4 -23.1 31.4 -22.55 L30.95 -22.25 Q30.15 -21.8 29.35 -21.3 L27.6 -20.1 27.3 -19.8 Q26.7 -18.4 26.75 -16.9 L26.8 -15.45 26.8 -14.35 26.85 -14.0 27.95 -13.8 Q29.15 -13.75 30.35 -13.7 31.05 -13.7 31.75 -13.75 L31.7 -13.7 31.25 -12.1 31.0 -11.85 31.0 -11.55 31.0 -11.55 31.0 -11.25 29.75 -9.95 29.45 -9.7 26.2 -7.15 26.1 -7.05 25.9 -6.85 25.9 -6.5 25.85 -6.2 25.8 -5.9 25.45 -5.55 25.45 -3.3 25.5 -1.05 Q24.0 0.75 22.45 2.55 18.95 6.15 14.4 8.9 L14.1 9.1 9.6 9.6 Q6.2 9.45 2.8 9.25 -1.7 8.5 -5.8 6.3 L-6.7 5.8 -10.55 3.15 -11.7 1.7 -11.8 1.5;M-15.3 -10.9 Q-13.95 -13.9 -11.9 -16.6 -11.1 -17.65 -10.75 -18.95 -9.65 -23.4 -9.2 -28.15 L-7.3 -30.85 -6.35 -32.5 -6.05 -33.0 -5.25 -34.7 -4.95 -35.4 -4.75 -35.85 Q-2.75 -38.4 -0.7 -40.95 -1.0 -39.9 -0.95 -38.7 L-0.95 -38.4 Q-2.4 -36.85 -3.0 -35.1 -3.45 -33.75 -3.35 -32.3 L-3.25 -31.1 -2.85 -29.65 -2.5 -28.85 -2.0 -28.2 -1.25 -27.7 -1.15 -27.7 Q-0.7 -27.45 -0.15 -27.35 L1.9 -27.15 3.05 -27.1 3.25 -27.1 4.15 -27.15 5.45 -27.3 5.9 -27.4 Q8.9 -28.1 11.3 -30.1 L11.8 -30.5 13.1 -31.85 14.15 -33.3 14.45 -33.7 14.8 -34.3 15.0 -34.65 15.0 -34.65 Q15.95 -36.35 16.2 -38.25 L16.3 -40.0 16.1 -41.8 15.95 -42.4 15.85 -42.8 15.65 -43.3 15.3 -44.0 14.85 -44.65 14.5 -45.1 Q13.3 -46.05 12.1 -47.05 L12.15 -49.3 Q12.2 -50.55 12.55 -51.7 L12.75 -52.1 12.85 -52.45 12.95 -52.85 12.95 -53.15 13.05 -53.35 13.55 -54.1 13.65 -54.4 13.8 -55.1 13.8 -55.4 14.25 -56.0 16.15 -57.15 16.15 -56.95 16.15 -56.25 16.35 -53.75 16.5 -52.35 Q16.75 -50.3 17.7 -49.15 L18.15 -48.7 Q18.6 -48.35 19.15 -48.1 L20.2 -47.85 20.95 -47.8 23.45 -48.1 Q24.6 -48.35 25.5 -48.9 27.0 -49.8 27.95 -51.35 L28.15 -51.65 28.45 -52.1 Q30.1 -54.45 32.85 -55.35 L33.25 -55.45 Q35.7 -56.1 37.85 -57.3 L38.35 -57.6 Q40.65 -58.85 42.55 -60.65 42.8 -57.6 40.8 -55.1 L39.15 -53.85 38.6 -53.65 38.1 -53.45 37.5 -53.25 36.9 -53.0 Q34.4 -51.85 33.3 -49.7 32.55 -48.3 32.4 -46.45 32.2 -43.7 33.5 -42.35 L33.95 -41.95 34.35 -41.7 Q35.3 -41.15 36.7 -41.05 L38.1 -41.05 39.05 -41.35 39.05 -41.35 39.35 -41.55 40.75 -42.35 Q44.9 -44.65 49.4 -45.95 L49.6 -46.0 Q50.3 -46.15 51.0 -46.35 52.2 -46.6 53.4 -46.85 L51.45 -44.8 50.95 -44.2 50.4 -43.5 49.8 -42.8 49.5 -42.45 49.3 -42.15 48.95 -42.0 47.95 -41.4 46.45 -40.35 46.05 -40.05 45.65 -39.65 45.2 -39.25 44.9 -38.95 44.6 -38.65 44.2 -38.25 43.8 -37.85 43.2 -37.25 42.9 -36.95 42.6 -36.65 Q42.15 -36.05 41.65 -35.4 L40.6 -33.85 Q39.5 -31.95 39.85 -30.55 L40.1 -29.9 40.6 -29.2 Q41.25 -28.5 42.5 -27.95 L44.55 -27.25 Q45.2 -27.15 45.85 -27.05 47.1 -26.1 49.1 -25.85 L48.85 -25.2 Q47.7 -24.45 46.45 -24.15 L43.35 -23.3 42.85 -23.1 Q40.95 -22.45 39.2 -21.5 L37.25 -20.3 36.0 -19.2 35.65 -18.75 34.9 -17.35 Q34.35 -15.65 35.1 -14.1 35.6 -13.1 36.35 -12.65 L36.55 -12.55 38.8 -12.4 39.45 -12.6 39.65 -12.7 39.65 -12.7 40.05 -12.9 42.75 -13.85 42.4 -13.35 38.85 -8.6 38.65 -8.4 38.35 -8.4 37.95 -8.4 37.55 -8.4 37.15 -8.35 36.05 -8.2 33.05 -7.3 30.35 -5.8 Q27.6 -3.8 25.8 -0.3 20.35 5.05 13.55 8.45 L13.25 8.55 6.5 9.35 Q1.4 9.65 -3.3 8.15 -9.8 6.15 -13.65 0.55 L-14.3 -1.0 -15.1 -7.75 -15.3 -10.9 -15.3 -10.9"/>
    </path>
  </g>
  <defs>
    <radialGradient cx="0" cy="0" gradientTransform="matrix(0.0403, 0.0073, -0.0084, 0.0459, 8.15, -14.15)" gradientUnits="userSpaceOnUse" id="gradient0" r="819.2" spreadMethod="pad">
      <animateTransform additive="replace" attributeName="gradientTransform" dur="2s" from="1" repeatCount="indefinite" to="1" type="scale"/>
      <animateTransform additive="sum" attributeName="gradientTransform" dur="2s" from="8.15 -14.15" repeatCount="indefinite" to="8.15 -14.15" type="translate"/>
      <animateTransform additive="sum" attributeName="gradientTransform" dur="2s" from="10.3087" repeatCount="indefinite" to="10.3087" type="rotate"/>
      <animateTransform additive="sum" attributeName="gradientTransform" dur="2s" from="0.0409 0.0467" repeatCount="indefinite" to="0.0409 0.0467" type="scale"/>
      <animateTransform additive="sum" attributeName="gradientTransform" dur="2s" from="-0.0147" repeatCount="indefinite" to="-0.0147" type="skewX"/>
      <stop offset="0.0" stop-color="#fefe0c">
        <animate attributeName="offset" dur="2s" repeatCount="indefinite" values="0.0;0.0"/>
        <animate attributeName="stop-color" dur="2s" repeatCount="indefinite" values="#fefe0c;#fefe0d"/>
        <animate attributeName="stop-opacity" dur="2s" repeatCount="indefinite" values="1.0;1.0"/>
      </stop>
      <stop offset="0.5764705882352941" stop-color="#ffba2b">
        <animate attributeName="offset" dur="2s" repeatCount="indefinite" values="0.5764705882352941;0.5764705882352941"/>
        <animate attributeName="stop-color" dur="2s" repeatCount="indefinite" values="#ffba2b;#ffba2c"/>
        <animate attributeName="stop-opacity" dur="2s" repeatCount="indefinite" values="1.0;1.0"/>
      </stop>
      <stop offset="1.0" stop-color="#ff720b">
        <animate attributeName="offset" dur="2s" repeatCount="indefinite" values="1.0;1.0"/>
        <animate attributeName="stop-color" dur="2s" repeatCount="indefinite" values="#ff720b;#ff720c"/>
        <animate attributeName="stop-opacity" dur="2s" repeatCount="indefinite" values="1.0;1.0"/>
      </stop>
    </radialGradient>
  </defs>
</svg>
