<?xml version="1.0" encoding="UTF-8" standalone="no"?>
<svg xmlns:xlink="http://www.w3.org/1999/xlink" height="100.6px" width="148.4px" xmlns="http://www.w3.org/2000/svg">
  <g transform="matrix(1.0, 0.0, 0.0, 1.0, 36.75, 104.05)">
    <path d="M-16.8 -23.05 Q-15.0 -16.9 -9.85 -13.6 -5.0 -10.55 0.15 -8.7 5.4 -6.75 11.5 -5.3 17.3 -3.9 23.1 -3.55 29.25 -3.15 35.25 -4.65 41.2 -6.1 46.25 -9.75 51.45 -13.5 51.95 -19.6 52.4 -25.7 49.1 -31.1 45.8 -36.55 40.45 -39.4 35.5 -42.15 30.15 -43.9 24.55 -45.9 19.05 -46.3 13.3 -46.85 7.4 -45.45 1.6 -44.1 -3.55 -40.6 -8.65 -37.15 -13.4 -33.3 -18.6 -29.25 -16.8 -23.05" fill="url(#gradient0)" fill-rule="evenodd" stroke="none">
      <animate attributeName="d" dur="2s" repeatCount="indefinite" values="M-16.8 -23.05 Q-15.0 -16.9 -9.85 -13.6 -5.0 -10.55 0.15 -8.7 5.4 -6.75 11.5 -5.3 17.3 -3.9 23.1 -3.55 29.25 -3.15 35.25 -4.65 41.2 -6.1 46.25 -9.75 51.45 -13.5 51.95 -19.6 52.4 -25.7 49.1 -31.1 45.8 -36.55 40.45 -39.4 35.5 -42.15 30.15 -43.9 24.55 -45.9 19.05 -46.3 13.3 -46.85 7.4 -45.45 1.6 -44.1 -3.55 -40.6 -8.65 -37.15 -13.4 -33.3 -18.6 -29.25 -16.8 -23.05;M-35.75 -53.85 Q-31.95 -40.65 -20.9 -33.65 -10.45 -27.05 0.55 -23.1 11.85 -19.0 24.85 -15.9 37.35 -12.9 49.75 -12.1 62.85 -11.25 75.7 -14.4 88.45 -17.55 99.3 -25.35 110.5 -33.4 111.55 -46.5 112.55 -59.5 105.4 -71.1 98.35 -82.75 86.95 -88.95 76.3 -94.75 64.85 -98.6 52.85 -102.8 41.0 -103.75 28.75 -104.8 16.1 -101.85 3.7 -98.9 -7.4 -91.45 -18.35 -84.0 -28.55 -75.9 -39.65 -67.15 -35.75 -53.85"/>
    </path>
    <path d="M-16.8 -23.05 Q-18.6 -29.25 -13.4 -33.3 -8.65 -37.15 -3.55 -40.6 1.6 -44.1 7.4 -45.45 13.3 -46.85 19.05 -46.3 24.55 -45.9 30.15 -43.9 35.5 -42.15 40.45 -39.4 45.8 -36.55 49.1 -31.1 52.4 -25.7 51.95 -19.6 51.45 -13.5 46.25 -9.75 41.2 -6.1 35.25 -4.65 29.25 -3.15 23.1 -3.55 17.3 -3.9 11.5 -5.3 5.4 -6.75 0.15 -8.7 -5.0 -10.55 -9.85 -13.6 -15.0 -16.9 -16.8 -23.05" fill="none" stroke="#000000" stroke-linecap="round" stroke-linejoin="round" stroke-opacity="0.0" stroke-width="1.0">
      <animate attributeName="stroke" dur="2s" repeatCount="indefinite" values="#000000;#000001"/>
      <animate attributeName="stroke-width" dur="2s" repeatCount="indefinite" values="0.0;0.0"/>
      <animate attributeName="fill-opacity" dur="2s" repeatCount="indefinite" values="0.0;0.0"/>
      <animate attributeName="d" dur="2s" repeatCount="indefinite" values="M-16.8 -23.05 Q-18.6 -29.25 -13.4 -33.3 -8.65 -37.15 -3.55 -40.6 1.6 -44.1 7.4 -45.45 13.3 -46.85 19.05 -46.3 24.55 -45.9 30.15 -43.9 35.5 -42.15 40.45 -39.4 45.8 -36.55 49.1 -31.1 52.4 -25.7 51.95 -19.6 51.45 -13.5 46.25 -9.75 41.2 -6.1 35.25 -4.65 29.25 -3.15 23.1 -3.55 17.3 -3.9 11.5 -5.3 5.4 -6.75 0.15 -8.7 -5.0 -10.55 -9.85 -13.6 -15.0 -16.9 -16.8 -23.05;M-35.75 -53.85 Q-39.65 -67.15 -28.55 -75.9 -18.35 -84.0 -7.4 -91.45 3.7 -98.9 16.1 -101.85 28.75 -104.8 41.0 -103.75 52.85 -102.8 64.85 -98.6 76.3 -94.75 86.95 -88.95 98.35 -82.75 105.4 -71.1 112.55 -59.5 111.55 -46.5 110.5 -33.4 99.3 -25.35 88.45 -17.55 75.7 -14.4 62.85 -11.25 49.75 -12.1 37.35 -12.9 24.85 -15.9 11.85 -19.0 0.55 -23.1 -10.45 -27.05 -20.9 -33.65 -31.95 -40.65 -35.75 -53.85"/>
    </path>
  </g>
  <defs>
    <radialGradient cx="0" cy="0" gradientTransform="matrix(0.0014, -0.0256, 0.0346, 0.0019, 17.35, -21.55)" gradientUnits="userSpaceOnUse" id="gradient0" r="819.2" spreadMethod="pad">
      <animateTransform additive="replace" attributeName="gradientTransform" dur="2s" from="1" repeatCount="indefinite" to="1" type="scale"/>
      <animateTransform additive="sum" attributeName="gradientTransform" dur="2s" from="17.35 -21.55" repeatCount="indefinite" to="37.45 -50.7" type="translate"/>
      <animateTransform additive="sum" attributeName="gradientTransform" dur="2s" from="-86.9657" repeatCount="indefinite" to="-86.9605" type="rotate"/>
      <animateTransform additive="sum" attributeName="gradientTransform" dur="2s" from="0.0257 0.0346" repeatCount="indefinite" to="0.055 0.0742" type="scale"/>
      <animateTransform additive="sum" attributeName="gradientTransform" dur="2s" from="-0.0641" repeatCount="indefinite" to="-0.05" type="skewX"/>
      <stop offset="0.0" stop-color="#929292" stop-opacity="0.7019608">
        <animate attributeName="offset" dur="2s" repeatCount="indefinite" values="0.0;0.0"/>
        <animate attributeName="stop-color" dur="2s" repeatCount="indefinite" values="#929292;#929293"/>
        <animate attributeName="stop-opacity" dur="2s" repeatCount="indefinite" values="0.7019608;0.0"/>
      </stop>
      <stop offset="0.5764705882352941" stop-color="#707070" stop-opacity="0.7019608">
        <animate attributeName="offset" dur="2s" repeatCount="indefinite" values="0.5764705882352941;0.5764705882352941"/>
        <animate attributeName="stop-color" dur="2s" repeatCount="indefinite" values="#707070;#707071"/>
        <animate attributeName="stop-opacity" dur="2s" repeatCount="indefinite" values="0.7019608;0.0"/>
      </stop>
      <stop offset="1.0" stop-color="#000000" stop-opacity="0.7019608">
        <animate attributeName="offset" dur="2s" repeatCount="indefinite" values="1.0;1.0"/>
        <animate attributeName="stop-color" dur="2s" repeatCount="indefinite" values="#000000;#000001"/>
        <animate attributeName="stop-opacity" dur="2s" repeatCount="indefinite" values="0.7019608;0.0"/>
      </stop>
    </radialGradient>
  </defs>
</svg>
