<?xml version="1.0" encoding="UTF-8" standalone="no"?>
<svg xmlns:xlink="http://www.w3.org/1999/xlink" height="84.25px" width="74.85px" xmlns="http://www.w3.org/2000/svg">
  <g transform="matrix(1.0, 0.0, 0.0, 1.0, 20.65, 70.7)">
    <path d="M-20.6 -7.35 L-20.6 -6.85 -20.55 -6.35 Q-20.05 2.6 -13.45 7.85 L-13.05 8.15 Q-6.25 13.25 2.6 13.55 L3.0 13.55 6.2 13.5 7.6 13.35 10.6 12.9 Q15.4 11.9 19.7 9.55 L19.7 9.55 Q24.75 6.8 29.4 3.45 L31.85 1.6 Q30.2 1.55 29.2 0.8 27.9 -0.2 27.8 -2.45 27.7 -5.2 29.35 -7.2 L32.2 -10.2 Q33.85 -11.5 35.5 -12.75 36.15 -13.15 36.8 -13.5 37.3 -14.15 37.75 -14.8 39.25 -16.25 40.75 -17.65 42.25 -18.9 43.75 -20.15 45.35 -21.6 47.4 -22.35 44.5 -21.75 42.1 -23.05 L41.6 -23.3 41.3 -23.5 Q40.05 -24.3 39.3 -25.35 38.4 -26.65 38.2 -28.3 38.1 -28.95 38.15 -29.65 38.25 -32.1 39.0 -34.35 39.45 -35.7 40.75 -36.6 L41.0 -36.8 Q43.95 -38.8 46.85 -40.8 47.75 -41.4 48.65 -41.95 50.55 -43.1 52.4 -44.2 L52.6 -44.55 Q52.9 -45.3 53.55 -45.85 L53.7 -45.95 53.8 -46.1 53.8 -46.45 Q53.75 -47.1 54.05 -47.7 54.3 -48.2 54.15 -48.7 50.1 -45.5 46.7 -46.65 L46.3 -46.8 44.95 -47.55 43.1 -49.35 42.95 -49.6 42.7 -50.0 42.4 -50.85 Q42.3 -51.35 42.35 -51.9 L42.4 -52.3 42.5 -52.8 42.5 -52.8 42.8 -53.75 Q44.0 -56.7 47.2 -58.3 48.95 -59.15 50.9 -59.35 51.9 -59.4 52.85 -59.4 L52.75 -59.5 52.55 -59.7 Q51.25 -61.0 49.95 -62.3 L49.65 -62.6 Q46.7 -62.35 43.75 -62.15 39.6 -60.95 36.5 -57.3 L36.2 -56.95 Q34.55 -54.95 32.7 -53.25 31.45 -52.2 30.2 -51.2 L30.0 -51.1 Q29.2 -50.5 28.25 -50.3 24.25 -49.55 20.65 -51.05 19.65 -51.45 18.95 -52.4 L18.85 -52.6 Q16.7 -55.7 17.1 -59.75 L17.1 -59.85 Q17.45 -62.5 17.8 -65.1 L18.1 -65.9 16.8 -65.05 16.3 -64.65 Q13.8 -62.55 11.7 -59.95 L10.25 -58.0 Q9.2 -56.65 8.2 -55.35 6.6 -53.6 4.7 -52.2 L3.45 -51.3 3.05 -51.1 Q1.15 -49.95 -0.4 -48.4 L-2.0 -46.55 Q-2.8 -45.5 -3.95 -44.95 L-5.1 -42.6 Q-6.3 -39.6 -6.5 -36.25 L-6.5 -35.65 -6.5 -35.45 Q-6.6 -34.05 -7.25 -32.9 -8.8 -30.2 -10.35 -27.55 L-11.2 -26.2 -13.05 -24.0 -13.5 -23.6 -13.8 -23.3 -14.9 -22.35 -15.1 -22.15 Q-15.3 -21.0 -15.95 -20.0 L-17.8 -16.5 -18.3 -15.4 -19.1 -12.9 -19.45 -12.2 -19.5 -11.9 Q-19.5 -10.25 -19.9 -8.75 -20.1 -8.0 -20.6 -7.35" fill="url(#gradient0)" fill-rule="evenodd" stroke="none">
      <animate attributeName="d" dur="2s" repeatCount="indefinite" values="M-20.6 -7.35 L-20.6 -6.85 -20.55 -6.35 Q-20.05 2.6 -13.45 7.85 L-13.05 8.15 Q-6.25 13.25 2.6 13.55 L3.0 13.55 6.2 13.5 7.6 13.35 10.6 12.9 Q15.4 11.9 19.7 9.55 L19.7 9.55 Q24.75 6.8 29.4 3.45 L31.85 1.6 Q30.2 1.55 29.2 0.8 27.9 -0.2 27.8 -2.45 27.7 -5.2 29.35 -7.2 L32.2 -10.2 Q33.85 -11.5 35.5 -12.75 36.15 -13.15 36.8 -13.5 37.3 -14.15 37.75 -14.8 39.25 -16.25 40.75 -17.65 42.25 -18.9 43.75 -20.15 45.35 -21.6 47.4 -22.35 44.5 -21.75 42.1 -23.05 L41.6 -23.3 41.3 -23.5 Q40.05 -24.3 39.3 -25.35 38.4 -26.65 38.2 -28.3 38.1 -28.95 38.15 -29.65 38.25 -32.1 39.0 -34.35 39.45 -35.7 40.75 -36.6 L41.0 -36.8 Q43.95 -38.8 46.85 -40.8 47.75 -41.4 48.65 -41.95 50.55 -43.1 52.4 -44.2 L52.6 -44.55 Q52.9 -45.3 53.55 -45.85 L53.7 -45.95 53.8 -46.1 53.8 -46.45 Q53.75 -47.1 54.05 -47.7 54.3 -48.2 54.15 -48.7 50.1 -45.5 46.7 -46.65 L46.3 -46.8 44.95 -47.55 43.1 -49.35 42.95 -49.6 42.7 -50.0 42.4 -50.85 Q42.3 -51.35 42.35 -51.9 L42.4 -52.3 42.5 -52.8 42.5 -52.8 42.8 -53.75 Q44.0 -56.7 47.2 -58.3 48.95 -59.15 50.9 -59.35 51.9 -59.4 52.85 -59.4 L52.75 -59.5 52.55 -59.7 Q51.25 -61.0 49.95 -62.3 L49.65 -62.6 Q46.7 -62.35 43.75 -62.15 39.6 -60.95 36.5 -57.3 L36.2 -56.95 Q34.55 -54.95 32.7 -53.25 31.45 -52.2 30.2 -51.2 L30.0 -51.1 Q29.2 -50.5 28.25 -50.3 24.25 -49.55 20.65 -51.05 19.65 -51.45 18.95 -52.4 L18.85 -52.6 Q16.7 -55.7 17.1 -59.75 L17.1 -59.85 Q17.45 -62.5 17.8 -65.1 L18.1 -65.9 16.8 -65.05 16.3 -64.65 Q13.8 -62.55 11.7 -59.95 L10.25 -58.0 Q9.2 -56.65 8.2 -55.35 6.6 -53.6 4.7 -52.2 L3.45 -51.3 3.05 -51.1 Q1.15 -49.95 -0.4 -48.4 L-2.0 -46.55 Q-2.8 -45.5 -3.95 -44.95 L-5.1 -42.6 Q-6.3 -39.6 -6.5 -36.25 L-6.5 -35.65 -6.5 -35.45 Q-6.6 -34.05 -7.25 -32.9 -8.8 -30.2 -10.35 -27.55 L-11.2 -26.2 -13.05 -24.0 -13.5 -23.6 -13.8 -23.3 -14.9 -22.35 -15.1 -22.15 Q-15.3 -21.0 -15.95 -20.0 L-17.8 -16.5 -18.3 -15.4 -19.1 -12.9 -19.45 -12.2 -19.5 -11.9 Q-19.5 -10.25 -19.9 -8.75 -20.1 -8.0 -20.6 -7.35;M-20.55 -6.35 L-20.55 -6.35 -20.55 -5.75 Q-19.85 3.0 -13.05 8.15 L-12.65 8.45 Q-5.85 13.4 3.0 13.55 L3.5 13.55 6.7 13.45 8.1 12.75 10.95 11.1 Q14.95 8.25 18.95 5.45 L19.15 5.25 Q23.75 1.85 29.2 0.0 L32.1 -1.1 Q33.25 -1.7 34.35 -2.3 35.9 -3.35 37.4 -4.35 39.45 -5.95 41.2 -7.85 L43.75 -11.15 Q41.7 -10.9 39.75 -12.7 39.15 -13.3 38.9 -14.05 38.65 -14.8 38.7 -15.65 38.95 -17.9 39.65 -19.8 40.3 -21.7 41.45 -23.3 42.7 -25.0 44.45 -26.35 46.45 -27.85 49.1 -28.9 L49.25 -29.2 49.35 -29.45 Q50.05 -30.65 50.7 -31.8 51.6 -33.2 52.1 -34.65 51.4 -34.45 50.75 -34.25 48.3 -33.95 45.85 -33.7 44.35 -33.8 42.85 -33.9 L42.35 -34.0 Q38.25 -34.6 37.05 -38.0 36.7 -39.0 36.8 -40.1 37.0 -42.35 38.4 -44.05 L38.7 -44.45 Q39.35 -45.0 39.95 -45.55 L40.15 -45.75 40.55 -45.95 40.75 -46.15 Q41.25 -46.55 41.7 -46.95 42.05 -47.25 42.4 -47.55 45.55 -50.25 48.25 -53.4 L48.35 -53.7 49.05 -55.3 50.4 -57.5 50.7 -57.9 50.8 -58.2 50.85 -59.15 Q50.95 -59.7 51.05 -60.2 L51.15 -60.5 51.35 -61.0 51.35 -61.05 50.4 -61.2 Q47.7 -58.45 44.6 -58.8 42.85 -59.0 40.95 -60.2 40.0 -60.8 39.9 -62.05 L39.9 -62.15 39.9 -62.25 Q39.95 -64.45 40.75 -66.25 L40.85 -66.55 Q42.05 -69.0 44.85 -70.7 40.4 -70.55 36.0 -70.45 L35.6 -70.4 Q32.8 -70.05 30.8 -68.2 29.6 -67.05 28.15 -66.15 L28.15 -66.15 Q27.25 -65.6 26.4 -65.1 23.25 -62.9 20.7 -60.05 19.9 -59.1 19.15 -58.2 L19.05 -58.0 Q18.35 -54.4 18.2 -50.7 L18.2 -50.6 Q18.05 -48.0 17.55 -45.55 L17.4 -44.8 17.05 -43.45 16.8 -42.55 Q15.75 -39.2 12.45 -38.35 L10.0 -38.15 Q8.15 -38.25 6.65 -39.4 4.65 -40.9 4.95 -43.55 L5.05 -45.05 4.65 -44.95 Q2.5 -44.6 0.5 -43.7 L-1.85 -42.45 Q-3.0 -41.8 -4.1 -41.2 L-6.4 -39.8 Q-9.1 -38.05 -11.0 -35.3 L-11.1 -34.8 -11.15 -34.65 Q-11.5 -33.35 -11.85 -32.1 -12.9 -29.25 -15.0 -27.0 L-15.95 -26.1 -18.0 -24.0 -18.2 -23.55 -18.3 -23.2 -18.6 -21.75 -18.7 -21.5 Q-18.95 -20.45 -19.2 -19.4 L-20.05 -15.4 -20.3 -14.2 -20.55 -11.7 -20.6 -10.9 -20.6 -10.6 Q-20.6 -9.1 -20.6 -7.65 -20.55 -7.0 -20.55 -6.35"/>
    </path>
    <path d="M-20.6 -7.35 Q-20.1 -8.0 -19.9 -8.75 -19.5 -10.25 -19.5 -11.9 L-19.45 -12.2 -19.1 -12.9 -18.3 -15.4 -17.8 -16.5 -15.95 -20.0 Q-15.3 -21.0 -15.1 -22.15 L-14.9 -22.35 -13.8 -23.3 -13.5 -23.6 -13.05 -24.0 -11.2 -26.2 -10.35 -27.55 Q-8.8 -30.2 -7.25 -32.9 -6.6 -34.05 -6.5 -35.45 L-6.5 -35.65 -6.5 -36.25 Q-6.3 -39.6 -5.1 -42.6 L-3.95 -44.95 Q-2.8 -45.5 -2.0 -46.55 L-0.4 -48.4 Q1.15 -49.95 3.05 -51.1 L3.45 -51.3 4.7 -52.2 Q6.6 -53.6 8.2 -55.35 9.2 -56.65 10.25 -58.0 L11.7 -59.95 Q13.8 -62.55 16.3 -64.65 L16.8 -65.05 18.1 -65.9 17.8 -65.1 Q17.45 -62.5 17.1 -59.85 L17.1 -59.75 Q16.7 -55.7 18.85 -52.6 L18.95 -52.4 Q19.65 -51.45 20.65 -51.05 24.25 -49.55 28.25 -50.3 29.2 -50.5 30.0 -51.1 L30.2 -51.2 Q31.45 -52.2 32.7 -53.25 34.55 -54.95 36.2 -56.95 L36.5 -57.3 Q39.6 -60.95 43.75 -62.15 46.7 -62.35 49.65 -62.6 L49.95 -62.3 Q51.25 -61.0 52.55 -59.7 L52.75 -59.5 52.85 -59.4 Q51.9 -59.4 50.9 -59.35 48.95 -59.15 47.2 -58.3 44.0 -56.7 42.8 -53.75 L42.5 -52.8 42.5 -52.8 42.4 -52.3 42.35 -51.9 Q42.3 -51.35 42.4 -50.85 L42.7 -50.0 42.95 -49.6 43.1 -49.35 44.95 -47.55 46.3 -46.8 46.7 -46.65 Q50.1 -45.5 54.15 -48.7 54.3 -48.2 54.05 -47.7 53.75 -47.1 53.8 -46.45 L53.8 -46.1 53.7 -45.95 53.55 -45.85 Q52.9 -45.3 52.6 -44.55 L52.4 -44.2 Q50.55 -43.1 48.65 -41.95 47.75 -41.4 46.85 -40.8 43.95 -38.8 41.0 -36.8 L40.75 -36.6 Q39.45 -35.7 39.0 -34.35 38.25 -32.1 38.15 -29.65 38.1 -28.95 38.2 -28.3 38.4 -26.65 39.3 -25.35 40.05 -24.3 41.3 -23.5 L41.6 -23.3 42.1 -23.05 Q44.5 -21.75 47.4 -22.35 45.35 -21.6 43.75 -20.15 42.25 -18.9 40.75 -17.65 39.25 -16.25 37.75 -14.8 37.3 -14.15 36.8 -13.5 36.15 -13.15 35.5 -12.75 33.85 -11.5 32.2 -10.2 L29.35 -7.2 Q27.7 -5.2 27.8 -2.45 27.9 -0.2 29.2 0.8 30.2 1.55 31.85 1.6 L29.4 3.45 Q24.75 6.8 19.7 9.55 L19.7 9.55 Q15.4 11.9 10.6 12.9 L7.6 13.35 6.2 13.5 3.0 13.55 2.6 13.55 Q-6.25 13.25 -13.05 8.15 L-13.45 7.85 Q-20.05 2.6 -20.55 -6.35 L-20.6 -6.85 -20.6 -7.35" fill="none" stroke="#000000" stroke-linecap="round" stroke-linejoin="round" stroke-opacity="0.0" stroke-width="1.0">
      <animate attributeName="stroke" dur="2s" repeatCount="indefinite" values="#000000;#000001"/>
      <animate attributeName="stroke-width" dur="2s" repeatCount="indefinite" values="0.0;0.0"/>
      <animate attributeName="fill-opacity" dur="2s" repeatCount="indefinite" values="0.0;0.0"/>
      <animate attributeName="d" dur="2s" repeatCount="indefinite" values="M-20.6 -7.35 Q-20.1 -8.0 -19.9 -8.75 -19.5 -10.25 -19.5 -11.9 L-19.45 -12.2 -19.1 -12.9 -18.3 -15.4 -17.8 -16.5 -15.95 -20.0 Q-15.3 -21.0 -15.1 -22.15 L-14.9 -22.35 -13.8 -23.3 -13.5 -23.6 -13.05 -24.0 -11.2 -26.2 -10.35 -27.55 Q-8.8 -30.2 -7.25 -32.9 -6.6 -34.05 -6.5 -35.45 L-6.5 -35.65 -6.5 -36.25 Q-6.3 -39.6 -5.1 -42.6 L-3.95 -44.95 Q-2.8 -45.5 -2.0 -46.55 L-0.4 -48.4 Q1.15 -49.95 3.05 -51.1 L3.45 -51.3 4.7 -52.2 Q6.6 -53.6 8.2 -55.35 9.2 -56.65 10.25 -58.0 L11.7 -59.95 Q13.8 -62.55 16.3 -64.65 L16.8 -65.05 18.1 -65.9 17.8 -65.1 Q17.45 -62.5 17.1 -59.85 L17.1 -59.75 Q16.7 -55.7 18.85 -52.6 L18.95 -52.4 Q19.65 -51.45 20.65 -51.05 24.25 -49.55 28.25 -50.3 29.2 -50.5 30.0 -51.1 L30.2 -51.2 Q31.45 -52.2 32.7 -53.25 34.55 -54.95 36.2 -56.95 L36.5 -57.3 Q39.6 -60.95 43.75 -62.15 46.7 -62.35 49.65 -62.6 L49.95 -62.3 Q51.25 -61.0 52.55 -59.7 L52.75 -59.5 52.85 -59.4 Q51.9 -59.4 50.9 -59.35 48.95 -59.15 47.2 -58.3 44.0 -56.7 42.8 -53.75 L42.5 -52.8 42.5 -52.8 42.4 -52.3 42.35 -51.9 Q42.3 -51.35 42.4 -50.85 L42.7 -50.0 42.95 -49.6 43.1 -49.35 44.95 -47.55 46.3 -46.8 46.7 -46.65 Q50.1 -45.5 54.15 -48.7 54.3 -48.2 54.05 -47.7 53.75 -47.1 53.8 -46.45 L53.8 -46.1 53.7 -45.95 53.55 -45.85 Q52.9 -45.3 52.6 -44.55 L52.4 -44.2 Q50.55 -43.1 48.65 -41.95 47.75 -41.4 46.85 -40.8 43.95 -38.8 41.0 -36.8 L40.75 -36.6 Q39.45 -35.7 39.0 -34.35 38.25 -32.1 38.15 -29.65 38.1 -28.95 38.2 -28.3 38.4 -26.65 39.3 -25.35 40.05 -24.3 41.3 -23.5 L41.6 -23.3 42.1 -23.05 Q44.5 -21.75 47.4 -22.35 45.35 -21.6 43.75 -20.15 42.25 -18.9 40.75 -17.65 39.25 -16.25 37.75 -14.8 37.3 -14.15 36.8 -13.5 36.15 -13.15 35.5 -12.75 33.85 -11.5 32.2 -10.2 L29.35 -7.2 Q27.7 -5.2 27.8 -2.45 27.9 -0.2 29.2 0.8 30.2 1.55 31.85 1.6 L29.4 3.45 Q24.75 6.8 19.7 9.55 L19.7 9.55 Q15.4 11.9 10.6 12.9 L7.6 13.35 6.2 13.5 3.0 13.55 2.6 13.55 Q-6.25 13.25 -13.05 8.15 L-13.45 7.85 Q-20.05 2.6 -20.55 -6.35 L-20.6 -6.85 -20.6 -7.35;M-20.55 -6.35 Q-20.55 -7.0 -20.6 -7.65 -20.6 -9.1 -20.6 -10.6 L-20.6 -10.9 -20.55 -11.7 -20.3 -14.2 -20.05 -15.4 -19.2 -19.4 Q-18.95 -20.45 -18.7 -21.5 L-18.6 -21.75 -18.3 -23.2 -18.2 -23.55 -18.0 -24.0 -15.95 -26.1 -15.0 -27.0 Q-12.9 -29.25 -11.85 -32.1 -11.5 -33.35 -11.15 -34.65 L-11.1 -34.8 -11.0 -35.3 Q-9.1 -38.05 -6.4 -39.8 L-4.1 -41.2 Q-3.0 -41.8 -1.85 -42.45 L0.5 -43.7 Q2.5 -44.6 4.65 -44.95 L5.05 -45.05 4.95 -43.55 Q4.65 -40.9 6.65 -39.4 8.15 -38.25 10.0 -38.15 L12.45 -38.35 Q15.75 -39.2 16.8 -42.55 L17.05 -43.45 17.4 -44.8 17.55 -45.55 Q18.05 -48.0 18.2 -50.6 L18.2 -50.7 Q18.35 -54.4 19.05 -58.0 L19.15 -58.2 Q19.9 -59.1 20.7 -60.05 23.25 -62.9 26.4 -65.1 27.25 -65.6 28.15 -66.15 L28.15 -66.15 Q29.6 -67.05 30.8 -68.2 32.8 -70.05 35.6 -70.4 L36.0 -70.45 Q40.4 -70.55 44.85 -70.7 42.05 -69.0 40.85 -66.55 L40.75 -66.25 Q39.95 -64.45 39.9 -62.25 L39.9 -62.15 39.9 -62.05 Q40.0 -60.8 40.95 -60.2 42.85 -59.0 44.6 -58.8 47.7 -58.45 50.4 -61.2 L51.35 -61.05 51.35 -61.0 51.15 -60.5 51.05 -60.2 Q50.95 -59.7 50.85 -59.15 L50.8 -58.2 50.7 -57.9 50.4 -57.5 49.05 -55.3 48.35 -53.7 48.25 -53.4 Q45.55 -50.25 42.4 -47.55 42.05 -47.25 41.7 -46.95 41.25 -46.55 40.75 -46.15 L40.55 -45.95 40.15 -45.75 39.95 -45.55 Q39.35 -45.0 38.7 -44.45 L38.4 -44.05 Q37.0 -42.35 36.8 -40.1 36.7 -39.0 37.05 -38.0 38.25 -34.6 42.35 -34.0 L42.85 -33.9 Q44.35 -33.8 45.85 -33.7 48.3 -33.95 50.75 -34.25 51.4 -34.45 52.1 -34.65 51.6 -33.2 50.7 -31.8 50.05 -30.65 49.35 -29.45 L49.25 -29.2 49.1 -28.9 Q46.45 -27.85 44.45 -26.35 42.7 -25.0 41.45 -23.3 40.3 -21.7 39.65 -19.8 38.95 -17.9 38.7 -15.65 38.65 -14.8 38.9 -14.05 39.15 -13.3 39.75 -12.7 41.7 -10.9 43.75 -11.15 L41.2 -7.85 Q39.45 -5.95 37.4 -4.35 35.9 -3.35 34.35 -2.3 33.25 -1.7 32.1 -1.1 L29.2 0.0 Q23.75 1.85 19.15 5.25 L18.95 5.45 Q14.95 8.25 10.95 11.1 L8.1 12.75 6.7 13.45 3.5 13.55 3.0 13.55 Q-5.85 13.4 -12.65 8.45 L-13.05 8.15 Q-19.85 3.0 -20.55 -5.75 L-20.55 -6.35 -20.55 -6.35"/>
    </path>
  </g>
  <defs>
    <radialGradient cx="0" cy="0" gradientTransform="matrix(0.0403, 0.0073, -0.0084, 0.0459, 8.15, -14.15)" gradientUnits="userSpaceOnUse" id="gradient0" r="819.2" spreadMethod="pad">
      <animateTransform additive="replace" attributeName="gradientTransform" dur="2s" from="1" repeatCount="indefinite" to="1" type="scale"/>
      <animateTransform additive="sum" attributeName="gradientTransform" dur="2s" from="8.15 -14.15" repeatCount="indefinite" to="8.15 -14.15" type="translate"/>
      <animateTransform additive="sum" attributeName="gradientTransform" dur="2s" from="10.3087" repeatCount="indefinite" to="10.3087" type="rotate"/>
      <animateTransform additive="sum" attributeName="gradientTransform" dur="2s" from="0.0409 0.0467" repeatCount="indefinite" to="0.0409 0.0467" type="scale"/>
      <animateTransform additive="sum" attributeName="gradientTransform" dur="2s" from="-0.0147" repeatCount="indefinite" to="-0.0147" type="skewX"/>
      <stop offset="0.0" stop-color="#fefe0c">
        <animate attributeName="offset" dur="2s" repeatCount="indefinite" values="0.0;0.0"/>
        <animate attributeName="stop-color" dur="2s" repeatCount="indefinite" values="#fefe0c;#fefe0d"/>
        <animate attributeName="stop-opacity" dur="2s" repeatCount="indefinite" values="1.0;1.0"/>
      </stop>
      <stop offset="0.5764705882352941" stop-color="#ffba2b">
        <animate attributeName="offset" dur="2s" repeatCount="indefinite" values="0.5764705882352941;0.5764705882352941"/>
        <animate attributeName="stop-color" dur="2s" repeatCount="indefinite" values="#ffba2b;#ffba2c"/>
        <animate attributeName="stop-opacity" dur="2s" repeatCount="indefinite" values="1.0;1.0"/>
      </stop>
      <stop offset="1.0" stop-color="#ff720b">
        <animate attributeName="offset" dur="2s" repeatCount="indefinite" values="1.0;1.0"/>
        <animate attributeName="stop-color" dur="2s" repeatCount="indefinite" values="#ff720b;#ff720c"/>
        <animate attributeName="stop-opacity" dur="2s" repeatCount="indefinite" values="1.0;1.0"/>
      </stop>
    </radialGradient>
  </defs>
</svg>
