<?xml version="1.0" encoding="UTF-8" standalone="no"?>
<svg xmlns:xlink="http://www.w3.org/1999/xlink" height="13.8px" width="9.0px" xmlns="http://www.w3.org/2000/svg">
  <g transform="matrix(1.0, 0.0, 0.0, 1.0, 17.9, 16.65)">
    <path d="M-17.9 -5.45 L-17.9 -5.45 -17.9 -5.2 -17.9 -4.9 -17.8 -4.15 -17.8 -3.95 -17.6 -3.85 -17.5 -3.75 -17.25 -3.65 -17.15 -3.65 -17.0 -3.65 Q-16.25 -3.5 -15.65 -3.95 L-15.65 -3.85 -15.6 -3.55 -15.55 -3.2 Q-15.0 -2.6 -14.3 -3.05 L-14.2 -3.45 -14.15 -3.65 -14.05 -3.95 Q-13.75 -3.55 -13.25 -3.65 L-13.0 -3.8 -12.8 -4.0 -12.7 -4.1 Q-12.5 -4.45 -12.3 -4.8 L-12.3 -4.9 -12.1 -4.9 Q-11.95 -5.0 -11.8 -5.05 L-11.5 -5.15 -11.3 -5.25 -11.0 -5.45 -10.75 -5.65 -10.75 -5.65 -10.7 -5.8 -10.65 -6.1 -10.65 -6.4 -10.75 -6.5 -11.25 -6.9 -11.65 -6.75 -11.85 -6.75 -12.45 -6.5 -12.55 -6.5 -12.95 -6.25 -13.2 -6.05 -13.3 -5.95 -13.4 -5.8 -13.4 -5.9 -13.4 -6.0 -13.4 -6.1 -13.4 -6.4 -13.55 -6.55 -14.9 -6.9 -15.0 -6.9 -15.0 -6.85 -15.25 -6.8 -15.3 -6.8 -15.4 -6.75 -15.4 -6.75 -15.45 -6.6 -15.55 -6.4 -15.9 -6.2 -16.25 -6.55 -16.5 -6.65 -16.55 -6.65 -16.75 -6.55 -17.9 -5.45" fill="#000000" fill-rule="evenodd" stroke="none">
      <animate attributeName="fill" dur="2s" repeatCount="indefinite" values="#000000;#000001"/>
      <animate attributeName="fill-opacity" dur="2s" repeatCount="indefinite" values="1.0;1.0"/>
      <animate attributeName="d" dur="2s" repeatCount="indefinite" values="M-17.9 -5.45 L-17.9 -5.45 -17.9 -5.2 -17.9 -4.9 -17.8 -4.15 -17.8 -3.95 -17.6 -3.85 -17.5 -3.75 -17.25 -3.65 -17.15 -3.65 -17.0 -3.65 Q-16.25 -3.5 -15.65 -3.95 L-15.65 -3.85 -15.6 -3.55 -15.55 -3.2 Q-15.0 -2.6 -14.3 -3.05 L-14.2 -3.45 -14.15 -3.65 -14.05 -3.95 Q-13.75 -3.55 -13.25 -3.65 L-13.0 -3.8 -12.8 -4.0 -12.7 -4.1 Q-12.5 -4.45 -12.3 -4.8 L-12.3 -4.9 -12.1 -4.9 Q-11.95 -5.0 -11.8 -5.05 L-11.5 -5.15 -11.3 -5.25 -11.0 -5.45 -10.75 -5.65 -10.75 -5.65 -10.7 -5.8 -10.65 -6.1 -10.65 -6.4 -10.75 -6.5 -11.25 -6.9 -11.65 -6.75 -11.85 -6.75 -12.45 -6.5 -12.55 -6.5 -12.95 -6.25 -13.2 -6.05 -13.3 -5.95 -13.4 -5.8 -13.4 -5.9 -13.4 -6.0 -13.4 -6.1 -13.4 -6.4 -13.55 -6.55 -14.9 -6.9 -15.0 -6.9 -15.0 -6.85 -15.25 -6.8 -15.3 -6.8 -15.4 -6.75 -15.4 -6.75 -15.45 -6.6 -15.55 -6.4 -15.9 -6.2 -16.25 -6.55 -16.5 -6.65 -16.55 -6.65 -16.75 -6.55 -17.9 -5.45;M-16.3 -11.45 L-15.95 -11.25 -15.75 -11.15 -15.35 -11.15 -14.55 -11.3 -14.45 -11.4 -14.45 -11.5 -14.4 -11.7 -14.0 -11.65 -14.0 -11.65 -14.0 -11.65 Q-13.1 -11.9 -13.15 -12.8 L-13.15 -12.9 -12.65 -12.65 -12.25 -12.5 Q-11.45 -12.4 -10.65 -12.35 L-10.25 -12.45 -10.05 -12.55 -9.95 -12.75 Q-9.65 -13.2 -9.4 -13.65 L-9.1 -14.05 -8.9 -14.45 -8.9 -14.6 Q-9.05 -15.05 -9.5 -15.15 L-9.55 -15.15 -9.7 -15.0 Q-10.0 -14.75 -10.3 -14.65 L-10.5 -14.55 -10.7 -14.75 -11.0 -14.9 -11.2 -14.75 -11.2 -14.75 -11.3 -14.65 -11.75 -14.65 -11.85 -14.85 -11.85 -15.0 -11.9 -15.65 -11.9 -16.15 -12.0 -16.3 -12.5 -16.65 -12.5 -16.6 -12.9 -16.5 -13.05 -16.3 -13.15 -16.15 -13.15 -15.85 -13.15 -15.75 -13.15 -15.65 -13.15 -15.55 -13.25 -15.25 -13.35 -15.15 -14.2 -14.25 -14.2 -14.25 -14.2 -14.25 -14.4 -14.4 -14.5 -14.4 -14.75 -14.35 -14.75 -14.35 -14.95 -14.35 -15.25 -14.4 -15.75 -14.0 -16.15 -13.5 -16.15 -13.15 -16.15 -13.15 -16.2 -12.85 -16.3 -11.45"/>
    </path>
    <path d="M-17.9 -5.45 L-16.75 -6.55 -16.55 -6.65 -16.5 -6.65 -16.25 -6.55 -15.9 -6.2 -15.55 -6.4 -15.45 -6.6 -15.4 -6.75 -15.4 -6.75 -15.3 -6.8 -15.25 -6.8 -15.0 -6.85 -15.0 -6.9 -14.9 -6.9 -13.55 -6.55 -13.4 -6.4 -13.4 -6.1 -13.4 -6.0 -13.4 -5.9 -13.4 -5.8 -13.3 -5.95 -13.2 -6.05 -12.95 -6.25 -12.55 -6.5 -12.45 -6.5 -11.85 -6.75 -11.65 -6.75 -11.25 -6.9 -10.75 -6.5 -10.65 -6.4 -10.65 -6.1 -10.7 -5.8 -10.75 -5.65 -10.75 -5.65 -11.0 -5.45 -11.3 -5.25 -11.5 -5.15 -11.8 -5.05 Q-11.95 -5.0 -12.1 -4.9 L-12.3 -4.9 -12.3 -4.8 Q-12.5 -4.45 -12.7 -4.1 L-12.8 -4.0 -13.0 -3.8 -13.25 -3.65 Q-13.75 -3.55 -14.05 -3.95 L-14.15 -3.65 -14.2 -3.45 -14.3 -3.05 Q-15.0 -2.6 -15.55 -3.2 L-15.6 -3.55 -15.65 -3.85 -15.65 -3.95 Q-16.25 -3.5 -17.0 -3.65 L-17.15 -3.65 -17.25 -3.65 -17.5 -3.75 -17.6 -3.85 -17.8 -3.95 -17.8 -4.15 -17.9 -4.9 -17.9 -5.2 -17.9 -5.45 -17.9 -5.45" fill="none" stroke="#000000" stroke-linecap="round" stroke-linejoin="round" stroke-opacity="0.0" stroke-width="1.0">
      <animate attributeName="stroke" dur="2s" repeatCount="indefinite" values="#000000;#000001"/>
      <animate attributeName="stroke-width" dur="2s" repeatCount="indefinite" values="0.0;0.0"/>
      <animate attributeName="fill-opacity" dur="2s" repeatCount="indefinite" values="0.0;0.0"/>
      <animate attributeName="d" dur="2s" repeatCount="indefinite" values="M-17.9 -5.45 L-16.75 -6.55 -16.55 -6.65 -16.5 -6.65 -16.25 -6.55 -15.9 -6.2 -15.55 -6.4 -15.45 -6.6 -15.4 -6.75 -15.4 -6.75 -15.3 -6.8 -15.25 -6.8 -15.0 -6.85 -15.0 -6.9 -14.9 -6.9 -13.55 -6.55 -13.4 -6.4 -13.4 -6.1 -13.4 -6.0 -13.4 -5.9 -13.4 -5.8 -13.3 -5.95 -13.2 -6.05 -12.95 -6.25 -12.55 -6.5 -12.45 -6.5 -11.85 -6.75 -11.65 -6.75 -11.25 -6.9 -10.75 -6.5 -10.65 -6.4 -10.65 -6.1 -10.7 -5.8 -10.75 -5.65 -10.75 -5.65 -11.0 -5.45 -11.3 -5.25 -11.5 -5.15 -11.8 -5.05 Q-11.95 -5.0 -12.1 -4.9 L-12.3 -4.9 -12.3 -4.8 Q-12.5 -4.45 -12.7 -4.1 L-12.8 -4.0 -13.0 -3.8 -13.25 -3.65 Q-13.75 -3.55 -14.05 -3.95 L-14.15 -3.65 -14.2 -3.45 -14.3 -3.05 Q-15.0 -2.6 -15.55 -3.2 L-15.6 -3.55 -15.65 -3.85 -15.65 -3.95 Q-16.25 -3.5 -17.0 -3.65 L-17.15 -3.65 -17.25 -3.65 -17.5 -3.75 -17.6 -3.85 -17.8 -3.95 -17.8 -4.15 -17.9 -4.9 -17.9 -5.2 -17.9 -5.45 -17.9 -5.45;M-16.3 -11.45 L-16.2 -12.85 -16.15 -13.15 -16.15 -13.15 -16.15 -13.5 -15.75 -14.0 -15.25 -14.4 -14.95 -14.35 -14.75 -14.35 -14.75 -14.35 -14.5 -14.4 -14.4 -14.4 -14.2 -14.25 -14.2 -14.25 -14.2 -14.25 -13.35 -15.15 -13.25 -15.25 -13.15 -15.55 -13.15 -15.65 -13.15 -15.75 -13.15 -15.85 -13.15 -16.15 -13.05 -16.3 -12.9 -16.5 -12.5 -16.6 -12.5 -16.65 -12.0 -16.3 -11.9 -16.15 -11.9 -15.65 -11.85 -15.0 -11.85 -14.85 -11.75 -14.65 -11.3 -14.65 -11.2 -14.75 -11.2 -14.75 -11.0 -14.9 -10.7 -14.75 -10.5 -14.55 -10.3 -14.65 Q-10.0 -14.75 -9.7 -15.0 L-9.55 -15.15 -9.5 -15.15 Q-9.05 -15.05 -8.9 -14.6 L-8.9 -14.45 -9.1 -14.05 -9.4 -13.65 Q-9.65 -13.2 -9.95 -12.75 L-10.05 -12.55 -10.25 -12.45 -10.65 -12.35 Q-11.45 -12.4 -12.25 -12.5 L-12.65 -12.65 -13.15 -12.9 -13.15 -12.8 Q-13.1 -11.9 -14.0 -11.65 L-14.0 -11.65 -14.0 -11.65 -14.4 -11.7 -14.45 -11.5 -14.45 -11.4 -14.55 -11.3 -15.35 -11.15 -15.75 -11.15 -15.95 -11.25 -16.3 -11.45"/>
    </path>
  </g>
</svg>
