<?xml version="1.0" encoding="UTF-8" standalone="no"?>
<svg xmlns:xlink="http://www.w3.org/1999/xlink" height="11.75px" width="13.75px" xmlns="http://www.w3.org/2000/svg">
  <g transform="matrix(1.0, 0.0, 0.0, 1.0, -20.6, 49.9)">
    <path d="M20.6 -38.65 L20.6 -38.65 20.6 -38.55 20.75 -38.35 21.05 -38.15 21.25 -38.15 21.35 -38.25 21.55 -38.35 22.25 -38.95 22.55 -39.25 22.75 -39.35 22.95 -39.55 23.05 -39.65 23.15 -39.75 23.35 -40.0 23.35 -40.0 23.4 -39.65 23.4 -39.55 23.45 -39.45 23.55 -39.35 23.8 -39.25 24.0 -39.15 24.25 -39.2 24.25 -39.2 24.35 -39.25 24.35 -39.25 24.55 -39.55 24.7 -39.7 Q25.0 -39.3 25.45 -39.35 L25.75 -39.45 25.75 -39.45 Q26.25 -39.65 26.7 -39.8 L27.25 -40.1 27.55 -40.3 27.75 -40.4 27.95 -40.5 28.15 -40.6 28.35 -40.8 28.6 -41.0 28.9 -40.9 29.0 -40.9 29.15 -40.9 29.25 -40.95 29.45 -41.05 29.55 -41.35 29.55 -41.45 29.6 -42.05 29.6 -42.4 29.45 -42.55 29.3 -42.65 29.0 -42.9 29.0 -42.85 28.9 -42.85 28.6 -42.75 28.4 -42.55 28.2 -42.35 27.8 -42.0 27.6 -41.9 27.4 -41.75 27.15 -41.65 27.05 -41.6 26.85 -41.5 Q26.2 -41.25 25.55 -41.0 L25.45 -41.0 25.45 -41.0 Q25.05 -41.4 24.7 -41.75 24.45 -41.9 24.15 -42.0 L23.75 -42.15 23.35 -41.85 23.15 -41.7 22.65 -41.3 22.45 -41.1 22.25 -40.9 22.1 -40.75 Q21.2 -39.8 20.6 -38.65" fill="#000000" fill-rule="evenodd" stroke="none">
      <animate attributeName="fill" dur="2s" repeatCount="indefinite" values="#000000;#000001"/>
      <animate attributeName="fill-opacity" dur="2s" repeatCount="indefinite" values="1.0;1.0"/>
      <animate attributeName="d" dur="2s" repeatCount="indefinite" values="M20.6 -38.65 L20.6 -38.65 20.6 -38.55 20.75 -38.35 21.05 -38.15 21.25 -38.15 21.35 -38.25 21.55 -38.35 22.25 -38.95 22.55 -39.25 22.75 -39.35 22.95 -39.55 23.05 -39.65 23.15 -39.75 23.35 -40.0 23.35 -40.0 23.4 -39.65 23.4 -39.55 23.45 -39.45 23.55 -39.35 23.8 -39.25 24.0 -39.15 24.25 -39.2 24.25 -39.2 24.35 -39.25 24.35 -39.25 24.55 -39.55 24.7 -39.7 Q25.0 -39.3 25.45 -39.35 L25.75 -39.45 25.75 -39.45 Q26.25 -39.65 26.7 -39.8 L27.25 -40.1 27.55 -40.3 27.75 -40.4 27.95 -40.5 28.15 -40.6 28.35 -40.8 28.6 -41.0 28.9 -40.9 29.0 -40.9 29.15 -40.9 29.25 -40.95 29.45 -41.05 29.55 -41.35 29.55 -41.45 29.6 -42.05 29.6 -42.4 29.45 -42.55 29.3 -42.65 29.0 -42.9 29.0 -42.85 28.9 -42.85 28.6 -42.75 28.4 -42.55 28.2 -42.35 27.8 -42.0 27.6 -41.9 27.4 -41.75 27.15 -41.65 27.05 -41.6 26.85 -41.5 Q26.2 -41.25 25.55 -41.0 L25.45 -41.0 25.45 -41.0 Q25.05 -41.4 24.7 -41.75 24.45 -41.9 24.15 -42.0 L23.75 -42.15 23.35 -41.85 23.15 -41.7 22.65 -41.3 22.45 -41.1 22.25 -40.9 22.1 -40.75 Q21.2 -39.8 20.6 -38.65;M25.6 -47.7 L25.7 -46.95 25.7 -46.95 25.9 -46.8 26.25 -46.65 26.4 -46.65 26.5 -46.7 26.7 -46.8 27.0 -47.35 27.3 -47.7 27.35 -47.5 27.4 -47.15 27.45 -46.95 27.65 -46.8 28.0 -46.65 28.1 -46.65 28.25 -46.7 28.25 -46.7 28.35 -46.75 28.35 -46.75 28.5 -46.9 28.55 -47.05 28.65 -47.25 28.65 -47.35 28.75 -47.45 28.75 -47.45 29.15 -47.7 29.45 -47.85 Q29.8 -47.95 30.1 -48.05 L30.3 -47.7 30.3 -47.7 Q30.55 -46.9 31.25 -46.65 L31.7 -46.95 31.85 -47.15 31.85 -47.3 31.85 -47.5 31.85 -47.7 32.15 -47.55 32.45 -47.45 32.75 -47.4 32.85 -47.4 33.05 -47.45 33.45 -47.55 33.65 -47.6 33.95 -47.8 34.0 -47.9 34.25 -48.35 34.35 -48.65 34.35 -48.85 34.35 -49.15 34.15 -49.35 34.1 -49.35 34.0 -49.45 33.65 -49.55 33.5 -49.65 33.15 -49.45 32.95 -49.3 32.9 -49.1 32.85 -48.95 32.6 -48.9 32.5 -48.95 32.3 -49.05 Q31.75 -49.5 31.1 -49.4 L31.1 -49.45 31.0 -49.55 Q30.6 -50.0 30.0 -49.9 29.75 -49.8 29.55 -49.75 L29.05 -49.45 28.7 -48.9 28.45 -49.25 28.0 -49.65 27.75 -49.55 27.6 -49.5 27.5 -49.4 Q26.55 -48.55 25.6 -47.7"/>
    </path>
    <path d="M20.6 -38.65 Q21.2 -39.8 22.1 -40.75 L22.25 -40.9 22.45 -41.1 22.65 -41.3 23.15 -41.7 23.35 -41.85 23.75 -42.15 24.15 -42.0 Q24.45 -41.9 24.7 -41.75 25.05 -41.4 25.45 -41.0 L25.45 -41.0 25.55 -41.0 Q26.2 -41.25 26.85 -41.5 L27.05 -41.6 27.15 -41.65 27.4 -41.75 27.6 -41.9 27.8 -42.0 28.2 -42.35 28.4 -42.55 28.6 -42.75 28.9 -42.85 29.0 -42.85 29.0 -42.9 29.3 -42.65 29.45 -42.55 29.6 -42.4 29.6 -42.05 29.55 -41.45 29.55 -41.35 29.45 -41.05 29.25 -40.95 29.15 -40.9 29.0 -40.9 28.9 -40.9 28.6 -41.0 28.35 -40.8 28.15 -40.6 27.95 -40.5 27.75 -40.4 27.55 -40.3 27.25 -40.1 26.7 -39.8 Q26.25 -39.65 25.75 -39.45 L25.75 -39.45 25.45 -39.35 Q25.0 -39.3 24.7 -39.7 L24.55 -39.55 24.35 -39.25 24.35 -39.25 24.25 -39.2 24.25 -39.2 24.0 -39.15 23.8 -39.25 23.55 -39.35 23.45 -39.45 23.4 -39.55 23.4 -39.65 23.35 -40.0 23.35 -40.0 23.15 -39.75 23.05 -39.65 22.95 -39.55 22.75 -39.35 22.55 -39.25 22.25 -38.95 21.55 -38.35 21.35 -38.25 21.25 -38.15 21.05 -38.15 20.75 -38.35 20.6 -38.55 20.6 -38.65 20.6 -38.65" fill="none" stroke="#000000" stroke-linecap="round" stroke-linejoin="round" stroke-opacity="0.0" stroke-width="1.0">
      <animate attributeName="stroke" dur="2s" repeatCount="indefinite" values="#000000;#000001"/>
      <animate attributeName="stroke-width" dur="2s" repeatCount="indefinite" values="0.0;0.0"/>
      <animate attributeName="fill-opacity" dur="2s" repeatCount="indefinite" values="0.0;0.0"/>
      <animate attributeName="d" dur="2s" repeatCount="indefinite" values="M20.6 -38.65 Q21.2 -39.8 22.1 -40.75 L22.25 -40.9 22.45 -41.1 22.65 -41.3 23.15 -41.7 23.35 -41.85 23.75 -42.15 24.15 -42.0 Q24.45 -41.9 24.7 -41.75 25.05 -41.4 25.45 -41.0 L25.45 -41.0 25.55 -41.0 Q26.2 -41.25 26.85 -41.5 L27.05 -41.6 27.15 -41.65 27.4 -41.75 27.6 -41.9 27.8 -42.0 28.2 -42.35 28.4 -42.55 28.6 -42.75 28.9 -42.85 29.0 -42.85 29.0 -42.9 29.3 -42.65 29.45 -42.55 29.6 -42.4 29.6 -42.05 29.55 -41.45 29.55 -41.35 29.45 -41.05 29.25 -40.95 29.15 -40.9 29.0 -40.9 28.9 -40.9 28.6 -41.0 28.35 -40.8 28.15 -40.6 27.95 -40.5 27.75 -40.4 27.55 -40.3 27.25 -40.1 26.7 -39.8 Q26.25 -39.65 25.75 -39.45 L25.75 -39.45 25.45 -39.35 Q25.0 -39.3 24.7 -39.7 L24.55 -39.55 24.35 -39.25 24.35 -39.25 24.25 -39.2 24.25 -39.2 24.0 -39.15 23.8 -39.25 23.55 -39.35 23.45 -39.45 23.4 -39.55 23.4 -39.65 23.35 -40.0 23.35 -40.0 23.15 -39.75 23.05 -39.65 22.95 -39.55 22.75 -39.35 22.55 -39.25 22.25 -38.95 21.55 -38.35 21.35 -38.25 21.25 -38.15 21.05 -38.15 20.75 -38.35 20.6 -38.55 20.6 -38.65 20.6 -38.65;M25.6 -47.7 Q26.55 -48.55 27.5 -49.4 L27.6 -49.5 27.75 -49.55 28.0 -49.65 28.45 -49.25 28.7 -48.9 29.05 -49.45 29.55 -49.75 Q29.75 -49.8 30.0 -49.9 30.6 -50.0 31.0 -49.55 L31.1 -49.45 31.1 -49.4 Q31.75 -49.5 32.3 -49.05 L32.5 -48.95 32.6 -48.9 32.85 -48.95 32.9 -49.1 32.95 -49.3 33.15 -49.45 33.5 -49.65 33.65 -49.55 34.0 -49.45 34.1 -49.35 34.15 -49.35 34.35 -49.15 34.35 -48.85 34.35 -48.65 34.25 -48.35 34.0 -47.9 33.95 -47.8 33.65 -47.6 33.45 -47.55 33.05 -47.45 32.85 -47.4 32.75 -47.4 32.45 -47.45 32.15 -47.55 31.85 -47.7 31.85 -47.5 31.85 -47.3 31.85 -47.15 31.7 -46.95 31.25 -46.65 Q30.55 -46.9 30.3 -47.7 L30.3 -47.7 30.1 -48.05 Q29.8 -47.95 29.45 -47.85 L29.15 -47.7 28.75 -47.45 28.75 -47.45 28.65 -47.35 28.65 -47.25 28.55 -47.05 28.5 -46.9 28.35 -46.75 28.35 -46.75 28.25 -46.7 28.25 -46.7 28.1 -46.65 28.0 -46.65 27.65 -46.8 27.45 -46.95 27.4 -47.15 27.35 -47.5 27.3 -47.7 27.0 -47.35 26.7 -46.8 26.5 -46.7 26.4 -46.65 26.25 -46.65 25.9 -46.8 25.7 -46.95 25.7 -46.95 25.6 -47.7"/>
    </path>
  </g>
</svg>
