<?xml version="1.0" encoding="UTF-8" standalone="no"?>
<svg xmlns:xlink="http://www.w3.org/1999/xlink" height="15.25px" width="10.4px" xmlns="http://www.w3.org/2000/svg">
  <g transform="matrix(1.0, 0.0, 0.0, 1.0, 16.3, 26.4)">
    <path d="M-16.3 -11.45 L-16.3 -11.45 -15.95 -11.25 -15.75 -11.15 -15.35 -11.15 -14.55 -11.3 -14.45 -11.5 -14.4 -11.7 -14.1 -11.65 -14.0 -11.65 -13.9 -11.65 Q-13.55 -11.9 -13.25 -12.15 L-13.15 -12.6 -13.15 -12.9 -12.55 -12.6 -12.2 -12.5 -11.8 -12.4 -11.6 -12.4 -10.7 -12.4 -10.35 -12.45 -10.05 -12.55 -9.9 -12.75 -9.6 -13.35 -8.9 -14.45 -8.9 -14.6 Q-9.05 -15.05 -9.5 -15.15 L-9.7 -15.0 -10.1 -14.65 -10.2 -14.65 -10.5 -14.55 -10.7 -14.75 -11.0 -14.9 -11.2 -14.75 -11.5 -14.6 -11.75 -14.65 -11.85 -15.0 -11.85 -15.1 -11.85 -15.4 -11.9 -16.0 -11.9 -16.15 -11.9 -16.15 -12.0 -16.3 -12.5 -16.65 -12.5 -16.6 -12.5 -16.6 -12.6 -16.6 -12.9 -16.5 -13.05 -16.3 -13.15 -16.15 -13.15 -15.75 -13.15 -15.55 -13.3 -15.25 -13.4 -15.1 -13.7 -14.7 -14.1 -14.35 -14.2 -14.25 -14.5 -14.4 -14.75 -14.35 -15.25 -14.4 -16.15 -13.5 -16.15 -13.15 -16.25 -12.55 -16.25 -12.25 -16.3 -11.95 -16.3 -11.75 -16.3 -11.45" fill="#000000" fill-rule="evenodd" stroke="none">
      <animate attributeName="fill" dur="2s" repeatCount="indefinite" values="#000000;#000001"/>
      <animate attributeName="fill-opacity" dur="2s" repeatCount="indefinite" values="1.0;1.0"/>
      <animate attributeName="d" dur="2s" repeatCount="indefinite" values="M-16.3 -11.45 L-16.3 -11.45 -15.95 -11.25 -15.75 -11.15 -15.35 -11.15 -14.55 -11.3 -14.45 -11.5 -14.4 -11.7 -14.1 -11.65 -14.0 -11.65 -13.9 -11.65 Q-13.55 -11.9 -13.25 -12.15 L-13.15 -12.6 -13.15 -12.9 -12.55 -12.6 -12.2 -12.5 -11.8 -12.4 -11.6 -12.4 -10.7 -12.4 -10.35 -12.45 -10.05 -12.55 -9.9 -12.75 -9.6 -13.35 -8.9 -14.45 -8.9 -14.6 Q-9.05 -15.05 -9.5 -15.15 L-9.7 -15.0 -10.1 -14.65 -10.2 -14.65 -10.5 -14.55 -10.7 -14.75 -11.0 -14.9 -11.2 -14.75 -11.5 -14.6 -11.75 -14.65 -11.85 -15.0 -11.85 -15.1 -11.85 -15.4 -11.9 -16.0 -11.9 -16.15 -11.9 -16.15 -12.0 -16.3 -12.5 -16.65 -12.5 -16.6 -12.5 -16.6 -12.6 -16.6 -12.9 -16.5 -13.05 -16.3 -13.15 -16.15 -13.15 -15.75 -13.15 -15.55 -13.3 -15.25 -13.4 -15.1 -13.7 -14.7 -14.1 -14.35 -14.2 -14.25 -14.5 -14.4 -14.75 -14.35 -15.25 -14.4 -16.15 -13.5 -16.15 -13.15 -16.25 -12.55 -16.25 -12.25 -16.3 -11.95 -16.3 -11.75 -16.3 -11.45;M-14.4 -21.65 L-14.1 -21.2 -13.75 -21.15 -13.5 -21.3 -13.3 -21.5 -12.85 -22.25 -12.65 -22.55 -12.45 -22.6 -12.25 -22.7 -12.15 -22.7 -12.15 -22.75 Q-11.8 -22.3 -11.25 -22.4 L-10.95 -22.55 -10.75 -22.75 -10.45 -23.2 -10.4 -22.8 -10.3 -22.45 -10.1 -22.3 -9.0 -22.4 -8.95 -22.75 -8.85 -23.2 -8.65 -23.5 -8.0 -23.4 -7.0 -24.05 -6.9 -24.15 Q-6.6 -24.45 -6.35 -24.7 L-6.15 -24.9 -5.9 -25.2 -5.9 -25.35 -6.1 -25.6 -6.3 -25.75 -6.7 -25.9 -7.0 -25.95 -7.4 -25.9 -7.5 -26.05 -7.8 -26.25 -8.0 -26.4 -8.25 -26.3 -8.65 -26.0 -8.65 -25.8 -8.65 -25.8 -8.65 -25.65 -9.05 -25.15 -9.05 -25.15 -9.05 -25.15 -9.1 -25.2 -9.15 -25.5 -9.55 -25.8 -9.85 -25.8 -10.15 -25.7 -10.35 -25.6 -11.0 -25.3 -11.2 -25.5 -11.5 -25.65 -12.0 -25.35 -12.2 -25.15 -12.4 -24.85 -12.5 -24.7 -12.9 -24.2 -13.6 -23.35 -13.8 -23.15 -14.15 -22.75 -14.15 -22.4 -14.2 -22.2 -14.3 -22.0 -14.4 -21.65"/>
    </path>
    <path d="M-16.3 -11.45 L-16.3 -11.75 -16.3 -11.95 -16.25 -12.25 -16.25 -12.55 -16.15 -13.15 -16.15 -13.5 -15.25 -14.4 -14.75 -14.35 -14.5 -14.4 -14.2 -14.25 -14.1 -14.35 -13.7 -14.7 -13.4 -15.1 -13.3 -15.25 -13.15 -15.55 -13.15 -15.75 -13.15 -16.15 -13.05 -16.3 -12.9 -16.5 -12.6 -16.6 -12.5 -16.6 -12.5 -16.6 -12.5 -16.65 -12.0 -16.3 -11.9 -16.15 -11.9 -16.15 -11.9 -16.0 -11.85 -15.4 -11.85 -15.1 -11.85 -15.0 -11.75 -14.65 -11.5 -14.6 -11.2 -14.75 -11.0 -14.9 -10.7 -14.75 -10.5 -14.55 -10.2 -14.65 -10.1 -14.65 -9.7 -15.0 -9.5 -15.15 Q-9.05 -15.05 -8.9 -14.6 L-8.9 -14.45 -9.6 -13.35 -9.9 -12.75 -10.05 -12.55 -10.35 -12.45 -10.7 -12.4 -11.6 -12.4 -11.8 -12.4 -12.2 -12.5 -12.55 -12.6 -13.15 -12.9 -13.15 -12.6 -13.25 -12.15 Q-13.55 -11.9 -13.9 -11.65 L-14.0 -11.65 -14.1 -11.65 -14.4 -11.7 -14.45 -11.5 -14.55 -11.3 -15.35 -11.15 -15.75 -11.15 -15.95 -11.25 -16.3 -11.45 -16.3 -11.45" fill="none" stroke="#000000" stroke-linecap="round" stroke-linejoin="round" stroke-opacity="0.0" stroke-width="1.0">
      <animate attributeName="stroke" dur="2s" repeatCount="indefinite" values="#000000;#000001"/>
      <animate attributeName="stroke-width" dur="2s" repeatCount="indefinite" values="0.0;0.0"/>
      <animate attributeName="fill-opacity" dur="2s" repeatCount="indefinite" values="0.0;0.0"/>
      <animate attributeName="d" dur="2s" repeatCount="indefinite" values="M-16.3 -11.45 L-16.3 -11.75 -16.3 -11.95 -16.25 -12.25 -16.25 -12.55 -16.15 -13.15 -16.15 -13.5 -15.25 -14.4 -14.75 -14.35 -14.5 -14.4 -14.2 -14.25 -14.1 -14.35 -13.7 -14.7 -13.4 -15.1 -13.3 -15.25 -13.15 -15.55 -13.15 -15.75 -13.15 -16.15 -13.05 -16.3 -12.9 -16.5 -12.6 -16.6 -12.5 -16.6 -12.5 -16.6 -12.5 -16.65 -12.0 -16.3 -11.9 -16.15 -11.9 -16.15 -11.9 -16.0 -11.85 -15.4 -11.85 -15.1 -11.85 -15.0 -11.75 -14.65 -11.5 -14.6 -11.2 -14.75 -11.0 -14.9 -10.7 -14.75 -10.5 -14.55 -10.2 -14.65 -10.1 -14.65 -9.7 -15.0 -9.5 -15.15 Q-9.05 -15.05 -8.9 -14.6 L-8.9 -14.45 -9.6 -13.35 -9.9 -12.75 -10.05 -12.55 -10.35 -12.45 -10.7 -12.4 -11.6 -12.4 -11.8 -12.4 -12.2 -12.5 -12.55 -12.6 -13.15 -12.9 -13.15 -12.6 -13.25 -12.15 Q-13.55 -11.9 -13.9 -11.65 L-14.0 -11.65 -14.1 -11.65 -14.4 -11.7 -14.45 -11.5 -14.55 -11.3 -15.35 -11.15 -15.75 -11.15 -15.95 -11.25 -16.3 -11.45 -16.3 -11.45;M-14.4 -21.65 L-14.3 -22.0 -14.2 -22.2 -14.15 -22.4 -14.15 -22.75 -13.8 -23.15 -13.6 -23.35 -12.9 -24.2 -12.5 -24.7 -12.4 -24.85 -12.2 -25.15 -12.0 -25.35 -11.5 -25.65 -11.2 -25.5 -11.0 -25.3 -10.35 -25.6 -10.15 -25.7 -9.85 -25.8 -9.55 -25.8 -9.15 -25.5 -9.1 -25.2 -9.05 -25.15 -9.05 -25.15 -9.05 -25.15 -8.65 -25.65 -8.65 -25.8 -8.65 -25.8 -8.65 -26.0 -8.25 -26.3 -8.0 -26.4 -7.8 -26.25 -7.5 -26.05 -7.4 -25.9 -7.0 -25.95 -6.7 -25.9 -6.3 -25.75 -6.1 -25.6 -5.9 -25.35 -5.9 -25.2 -6.15 -24.9 -6.35 -24.7 Q-6.6 -24.45 -6.9 -24.15 L-7.0 -24.05 -8.0 -23.4 -8.65 -23.5 -8.85 -23.2 -8.95 -22.75 -9.0 -22.4 -10.1 -22.3 -10.3 -22.45 -10.4 -22.8 -10.45 -23.2 -10.75 -22.75 -10.95 -22.55 -11.25 -22.4 Q-11.8 -22.3 -12.15 -22.75 L-12.15 -22.7 -12.25 -22.7 -12.45 -22.6 -12.65 -22.55 -12.85 -22.25 -13.3 -21.5 -13.5 -21.3 -13.75 -21.15 -14.1 -21.2 -14.4 -21.65"/>
    </path>
  </g>
</svg>
