<?xml version="1.0" encoding="UTF-8" standalone="no"?>
<svg xmlns:xlink="http://www.w3.org/1999/xlink" height="9.8px" width="12.05px" xmlns="http://www.w3.org/2000/svg">
  <g transform="matrix(1.0, 0.0, 0.0, 1.0, -25.6, 56.45)">
    <path d="M25.6 -47.7 L25.65 -47.05 25.7 -46.95 25.9 -46.8 26.25 -46.65 26.5 -46.7 26.5 -46.7 26.7 -46.8 26.7 -46.8 27.0 -47.35 27.3 -47.7 27.35 -47.5 27.4 -47.15 27.45 -46.95 27.65 -46.8 28.0 -46.65 28.25 -46.7 28.35 -46.75 28.5 -46.9 28.6 -47.05 28.65 -47.25 28.75 -47.45 29.1 -47.65 29.3 -47.75 29.4 -47.8 29.6 -47.9 30.0 -48.05 30.1 -48.05 30.3 -47.7 30.4 -47.4 30.75 -46.95 31.0 -46.75 31.25 -46.65 31.25 -46.65 31.5 -46.85 31.7 -46.95 31.85 -47.15 31.85 -47.3 31.85 -47.5 31.85 -47.6 31.85 -47.7 32.15 -47.55 32.75 -47.4 33.05 -47.45 33.25 -47.5 33.95 -47.8 34.0 -47.9 34.25 -48.35 34.25 -48.45 34.35 -49.15 34.25 -49.25 34.0 -49.45 33.95 -49.45 33.5 -49.65 33.5 -49.65 33.35 -49.55 33.15 -49.45 32.95 -49.3 32.9 -49.1 32.85 -48.95 32.6 -48.9 32.5 -48.95 32.3 -49.05 Q31.75 -49.5 31.1 -49.4 L31.0 -49.55 30.75 -49.75 30.2 -49.9 30.0 -49.9 Q29.75 -49.8 29.55 -49.75 L29.35 -49.65 29.2 -49.55 28.7 -48.9 28.45 -49.25 28.0 -49.65 27.75 -49.55 27.6 -49.5 27.5 -49.4 27.25 -49.2 26.45 -48.55 Q26.0 -48.1 25.6 -47.7" fill="#000000" fill-rule="evenodd" stroke="none">
      <animate attributeName="fill" dur="2s" repeatCount="indefinite" values="#000000;#000001"/>
      <animate attributeName="fill-opacity" dur="2s" repeatCount="indefinite" values="1.0;1.0"/>
      <animate attributeName="d" dur="2s" repeatCount="indefinite" values="M25.6 -47.7 L25.65 -47.05 25.7 -46.95 25.9 -46.8 26.25 -46.65 26.5 -46.7 26.5 -46.7 26.7 -46.8 26.7 -46.8 27.0 -47.35 27.3 -47.7 27.35 -47.5 27.4 -47.15 27.45 -46.95 27.65 -46.8 28.0 -46.65 28.25 -46.7 28.35 -46.75 28.5 -46.9 28.6 -47.05 28.65 -47.25 28.75 -47.45 29.1 -47.65 29.3 -47.75 29.4 -47.8 29.6 -47.9 30.0 -48.05 30.1 -48.05 30.3 -47.7 30.4 -47.4 30.75 -46.95 31.0 -46.75 31.25 -46.65 31.25 -46.65 31.5 -46.85 31.7 -46.95 31.85 -47.15 31.85 -47.3 31.85 -47.5 31.85 -47.6 31.85 -47.7 32.15 -47.55 32.75 -47.4 33.05 -47.45 33.25 -47.5 33.95 -47.8 34.0 -47.9 34.25 -48.35 34.25 -48.45 34.35 -49.15 34.25 -49.25 34.0 -49.45 33.95 -49.45 33.5 -49.65 33.5 -49.65 33.35 -49.55 33.15 -49.45 32.95 -49.3 32.9 -49.1 32.85 -48.95 32.6 -48.9 32.5 -48.95 32.3 -49.05 Q31.75 -49.5 31.1 -49.4 L31.0 -49.55 30.75 -49.75 30.2 -49.9 30.0 -49.9 Q29.75 -49.8 29.55 -49.75 L29.35 -49.65 29.2 -49.55 28.7 -48.9 28.45 -49.25 28.0 -49.65 27.75 -49.55 27.6 -49.5 27.5 -49.4 27.25 -49.2 26.45 -48.55 Q26.0 -48.1 25.6 -47.7;M29.1 -53.4 L29.1 -53.4 29.3 -53.1 29.4 -53.0 29.7 -52.85 30.0 -52.9 30.1 -52.9 30.25 -53.05 30.25 -53.05 30.85 -53.6 31.15 -53.8 31.35 -53.85 31.65 -53.9 31.85 -53.9 31.95 -53.7 32.2 -53.5 32.5 -53.35 32.7 -53.35 32.95 -53.4 33.2 -53.55 33.3 -53.75 33.4 -54.0 33.45 -54.3 33.65 -54.45 33.75 -54.5 33.85 -54.3 33.95 -53.95 34.2 -53.75 34.4 -53.65 34.5 -53.65 34.75 -53.7 34.95 -53.8 35.1 -53.9 35.1 -53.8 35.15 -53.5 35.25 -53.15 35.5 -52.85 35.7 -52.75 35.9 -52.65 36.0 -52.65 36.3 -52.65 36.5 -52.75 37.05 -52.9 37.35 -53.0 37.45 -53.05 37.65 -53.55 37.65 -53.65 37.6 -54.25 37.6 -54.4 37.2 -54.8 37.0 -54.9 36.75 -54.75 36.65 -54.75 36.35 -54.55 36.35 -54.55 36.35 -54.75 36.35 -54.75 36.3 -55.1 36.3 -55.35 36.25 -55.6 36.05 -55.95 35.95 -56.05 35.75 -56.25 Q35.15 -56.35 34.6 -56.45 L34.4 -56.45 34.0 -56.4 33.65 -56.1 33.45 -55.9 Q33.25 -55.75 33.05 -55.7 L32.85 -55.65 32.7 -55.75 32.3 -55.95 31.95 -56.0 31.4 -55.9 31.15 -55.75 30.95 -55.55 30.85 -55.4 30.55 -54.95 30.05 -54.65 Q29.3 -54.15 29.1 -53.4"/>
    </path>
    <path d="M25.6 -47.7 Q26.0 -48.1 26.45 -48.55 L27.25 -49.2 27.5 -49.4 27.6 -49.5 27.75 -49.55 28.0 -49.65 28.45 -49.25 28.7 -48.9 29.2 -49.55 29.35 -49.65 29.55 -49.75 Q29.75 -49.8 30.0 -49.9 L30.2 -49.9 30.75 -49.75 31.0 -49.55 31.1 -49.4 Q31.75 -49.5 32.3 -49.05 L32.5 -48.95 32.6 -48.9 32.85 -48.95 32.9 -49.1 32.95 -49.3 33.15 -49.45 33.35 -49.55 33.5 -49.65 33.5 -49.65 33.95 -49.45 34.0 -49.45 34.25 -49.25 34.35 -49.15 34.25 -48.45 34.25 -48.35 34.0 -47.9 33.95 -47.8 33.25 -47.5 33.05 -47.45 32.75 -47.4 32.15 -47.55 31.85 -47.7 31.85 -47.6 31.85 -47.5 31.85 -47.3 31.85 -47.15 31.7 -46.95 31.5 -46.85 31.25 -46.65 31.25 -46.65 31.0 -46.75 30.75 -46.95 30.4 -47.4 30.3 -47.7 30.1 -48.05 30.0 -48.05 29.6 -47.9 29.4 -47.8 29.3 -47.75 29.1 -47.65 28.75 -47.45 28.65 -47.25 28.6 -47.05 28.5 -46.9 28.35 -46.75 28.25 -46.7 28.0 -46.65 27.65 -46.8 27.45 -46.95 27.4 -47.15 27.35 -47.5 27.3 -47.7 27.0 -47.35 26.7 -46.8 26.7 -46.8 26.5 -46.7 26.5 -46.7 26.25 -46.65 25.9 -46.8 25.7 -46.95 25.65 -47.05 25.6 -47.7" fill="none" stroke="#000000" stroke-linecap="round" stroke-linejoin="round" stroke-opacity="0.0" stroke-width="1.0">
      <animate attributeName="stroke" dur="2s" repeatCount="indefinite" values="#000000;#000001"/>
      <animate attributeName="stroke-width" dur="2s" repeatCount="indefinite" values="0.0;0.0"/>
      <animate attributeName="fill-opacity" dur="2s" repeatCount="indefinite" values="0.0;0.0"/>
      <animate attributeName="d" dur="2s" repeatCount="indefinite" values="M25.6 -47.7 Q26.0 -48.1 26.45 -48.55 L27.25 -49.2 27.5 -49.4 27.6 -49.5 27.75 -49.55 28.0 -49.65 28.45 -49.25 28.7 -48.9 29.2 -49.55 29.35 -49.65 29.55 -49.75 Q29.75 -49.8 30.0 -49.9 L30.2 -49.9 30.75 -49.75 31.0 -49.55 31.1 -49.4 Q31.75 -49.5 32.3 -49.05 L32.5 -48.95 32.6 -48.9 32.85 -48.95 32.9 -49.1 32.95 -49.3 33.15 -49.45 33.35 -49.55 33.5 -49.65 33.5 -49.65 33.95 -49.45 34.0 -49.45 34.25 -49.25 34.35 -49.15 34.25 -48.45 34.25 -48.35 34.0 -47.9 33.95 -47.8 33.25 -47.5 33.05 -47.45 32.75 -47.4 32.15 -47.55 31.85 -47.7 31.85 -47.6 31.85 -47.5 31.85 -47.3 31.85 -47.15 31.7 -46.95 31.5 -46.85 31.25 -46.65 31.25 -46.65 31.0 -46.75 30.75 -46.95 30.4 -47.4 30.3 -47.7 30.1 -48.05 30.0 -48.05 29.6 -47.9 29.4 -47.8 29.3 -47.75 29.1 -47.65 28.75 -47.45 28.65 -47.25 28.6 -47.05 28.5 -46.9 28.35 -46.75 28.25 -46.7 28.0 -46.65 27.65 -46.8 27.45 -46.95 27.4 -47.15 27.35 -47.5 27.3 -47.7 27.0 -47.35 26.7 -46.8 26.7 -46.8 26.5 -46.7 26.5 -46.7 26.25 -46.65 25.9 -46.8 25.7 -46.95 25.65 -47.05 25.6 -47.7;M29.1 -53.4 Q29.3 -54.15 30.05 -54.65 L30.55 -54.95 30.85 -55.4 30.95 -55.55 31.15 -55.75 31.4 -55.9 31.95 -56.0 32.3 -55.95 32.7 -55.75 32.85 -55.65 33.05 -55.7 Q33.25 -55.75 33.45 -55.9 L33.65 -56.1 34.0 -56.4 34.4 -56.45 34.6 -56.45 Q35.15 -56.35 35.75 -56.25 L35.95 -56.05 36.05 -55.95 36.25 -55.6 36.3 -55.35 36.3 -55.1 36.35 -54.75 36.35 -54.75 36.35 -54.55 36.35 -54.55 36.65 -54.75 36.75 -54.75 37.0 -54.9 37.2 -54.8 37.6 -54.4 37.6 -54.25 37.65 -53.65 37.65 -53.55 37.45 -53.05 37.35 -53.0 37.05 -52.9 36.5 -52.75 36.3 -52.65 36.0 -52.65 35.9 -52.65 35.7 -52.75 35.5 -52.85 35.25 -53.15 35.15 -53.5 35.1 -53.8 35.1 -53.9 34.95 -53.8 34.75 -53.7 34.5 -53.65 34.4 -53.65 34.2 -53.75 33.95 -53.95 33.85 -54.3 33.75 -54.5 33.65 -54.45 33.45 -54.3 33.4 -54.0 33.3 -53.75 33.2 -53.55 32.95 -53.4 32.7 -53.35 32.5 -53.35 32.2 -53.5 31.95 -53.7 31.85 -53.9 31.65 -53.9 31.35 -53.85 31.15 -53.8 30.85 -53.6 30.25 -53.05 30.25 -53.05 30.1 -52.9 30.0 -52.9 29.7 -52.85 29.4 -53.0 29.3 -53.1 29.1 -53.4 29.1 -53.4"/>
    </path>
  </g>
</svg>
