<?xml version="1.0" encoding="UTF-8" standalone="no"?>
<svg xmlns:xlink="http://www.w3.org/1999/xlink" height="15.05px" width="21.75px" xmlns="http://www.w3.org/2000/svg">
  <g transform="matrix(1.0, 0.0, 0.0, 1.0, -3.35, 11.2)">
    <path d="M3.35 3.35 L3.35 3.35 3.35 3.4 3.5 3.6 3.65 3.75 4.0 3.85 4.25 3.8 4.6 3.6 4.75 3.45 5.1 2.95 5.2 2.75 5.5 2.65 Q5.55 2.6 5.6 2.7 L5.65 2.85 5.65 2.95 5.7 3.05 5.8 3.15 6.05 3.25 6.25 3.35 6.25 3.35 6.5 3.3 6.65 3.15 Q7.0 2.85 7.3 2.55 L7.6 2.15 7.8 1.85 7.85 2.2 7.95 2.55 8.3 2.75 8.5 2.85 8.75 2.8 8.85 2.75 9.05 2.95 9.2 3.0 9.5 3.0 9.7 3.0 10.05 2.9 10.35 2.75 10.9 2.2 11.2 1.45 11.3 1.45 11.5 1.25 12.25 1.35 Q13.05 1.1 13.35 0.3 L13.35 0.15 13.2 -0.1 13.05 -0.25 12.95 -0.3 12.75 -0.4 Q12.25 -0.3 11.8 -0.25 10.7 0.05 9.95 0.9 L9.8 1.1 Q9.2 1.25 9.1 0.8 L9.1 0.65 Q8.95 0.2 8.5 0.1 L7.8 0.45 7.4 0.55 7.1 0.55 7.1 0.4 7.05 0.3 6.7 -0.1 6.5 -0.15 6.5 -0.15 6.4 -0.15 6.25 -0.05 6.15 0.05 6.15 0.15 5.95 0.25 5.75 0.45 Q5.45 0.7 5.2 0.9 4.1 2.05 3.35 3.35" fill="#000000" fill-rule="evenodd" stroke="none">
      <animate attributeName="fill" dur="2s" repeatCount="indefinite" values="#000000;#000001"/>
      <animate attributeName="fill-opacity" dur="2s" repeatCount="indefinite" values="1.0;1.0"/>
      <animate attributeName="d" dur="2s" repeatCount="indefinite" values="M3.35 3.35 L3.35 3.35 3.35 3.4 3.5 3.6 3.65 3.75 4.0 3.85 4.25 3.8 4.6 3.6 4.75 3.45 5.1 2.95 5.2 2.75 5.5 2.65 Q5.55 2.6 5.6 2.7 L5.65 2.85 5.65 2.95 5.7 3.05 5.8 3.15 6.05 3.25 6.25 3.35 6.25 3.35 6.5 3.3 6.65 3.15 Q7.0 2.85 7.3 2.55 L7.6 2.15 7.8 1.85 7.85 2.2 7.95 2.55 8.3 2.75 8.5 2.85 8.75 2.8 8.85 2.75 9.05 2.95 9.2 3.0 9.5 3.0 9.7 3.0 10.05 2.9 10.35 2.75 10.9 2.2 11.2 1.45 11.3 1.45 11.5 1.25 12.25 1.35 Q13.05 1.1 13.35 0.3 L13.35 0.15 13.2 -0.1 13.05 -0.25 12.95 -0.3 12.75 -0.4 Q12.25 -0.3 11.8 -0.25 10.7 0.05 9.95 0.9 L9.8 1.1 Q9.2 1.25 9.1 0.8 L9.1 0.65 Q8.95 0.2 8.5 0.1 L7.8 0.45 7.4 0.55 7.1 0.55 7.1 0.4 7.05 0.3 6.7 -0.1 6.5 -0.15 6.5 -0.15 6.4 -0.15 6.25 -0.05 6.15 0.05 6.15 0.15 5.95 0.25 5.75 0.45 Q5.45 0.7 5.2 0.9 4.1 2.05 3.35 3.35;M15.1 -7.95 L15.15 -7.4 15.15 -7.4 15.2 -7.2 15.4 -7.05 15.75 -6.9 16.0 -6.95 16.1 -7.0 16.25 -7.15 16.4 -7.45 16.65 -7.65 16.85 -7.85 Q16.9 -7.95 16.95 -8.05 L17.05 -8.15 17.05 -8.2 17.1 -8.0 17.1 -8.0 17.15 -7.65 17.2 -7.45 17.3 -7.35 17.7 -7.15 18.0 -7.1 Q18.5 -7.05 18.95 -7.55 L19.25 -7.65 19.75 -7.85 20.05 -7.95 20.45 -8.1 20.85 -8.3 20.85 -8.1 20.85 -7.7 20.85 -7.5 20.95 -7.2 21.15 -7.05 21.4 -6.9 21.5 -6.9 21.75 -6.95 21.95 -7.05 22.25 -7.6 22.45 -8.45 22.45 -8.55 22.7 -8.75 23.45 -9.3 Q24.15 -9.65 24.85 -9.95 L24.85 -10.05 25.05 -10.25 25.1 -10.45 25.1 -10.6 25.0 -10.8 Q24.65 -11.3 24.0 -11.15 23.0 -10.85 22.25 -10.0 L22.25 -10.0 Q21.85 -10.1 21.45 -10.2 L21.35 -10.2 Q20.9 -10.1 20.5 -10.0 L19.95 -9.5 19.55 -9.75 19.45 -9.8 19.35 -9.9 19.25 -9.9 18.8 -9.7 18.7 -9.65 18.6 -9.65 18.6 -9.75 18.6 -9.95 18.6 -10.05 18.6 -10.15 18.3 -10.45 18.0 -10.65 Q17.6 -10.5 17.35 -10.25 16.2 -9.1 15.1 -7.95"/>
    </path>
    <path d="M3.35 3.35 Q4.1 2.05 5.2 0.9 5.45 0.7 5.75 0.45 L5.95 0.25 6.15 0.15 6.15 0.05 6.25 -0.05 6.4 -0.15 6.5 -0.15 6.5 -0.15 6.7 -0.1 7.05 0.3 7.1 0.4 7.1 0.55 7.4 0.55 7.8 0.45 8.5 0.1 Q8.95 0.2 9.1 0.65 L9.1 0.8 Q9.2 1.25 9.8 1.1 L9.95 0.9 Q10.7 0.05 11.8 -0.25 12.25 -0.3 12.75 -0.4 L12.95 -0.3 13.05 -0.25 13.2 -0.1 13.35 0.15 13.35 0.3 Q13.05 1.1 12.25 1.35 L11.5 1.25 11.3 1.45 11.2 1.45 10.9 2.2 10.35 2.75 10.05 2.9 9.7 3.0 9.5 3.0 9.2 3.0 9.05 2.95 8.85 2.75 8.75 2.8 8.5 2.85 8.3 2.75 7.95 2.55 7.85 2.2 7.8 1.85 7.6 2.15 7.3 2.55 Q7.0 2.85 6.65 3.15 L6.5 3.3 6.25 3.35 6.25 3.35 6.05 3.25 5.8 3.15 5.7 3.05 5.65 2.95 5.65 2.85 5.6 2.7 Q5.55 2.6 5.5 2.65 L5.2 2.75 5.1 2.95 4.75 3.45 4.6 3.6 4.25 3.8 4.0 3.85 3.65 3.75 3.5 3.6 3.35 3.4 3.35 3.35 3.35 3.35" fill="none" stroke="#000000" stroke-linecap="round" stroke-linejoin="round" stroke-opacity="0.0" stroke-width="1.0">
      <animate attributeName="stroke" dur="2s" repeatCount="indefinite" values="#000000;#000001"/>
      <animate attributeName="stroke-width" dur="2s" repeatCount="indefinite" values="0.0;0.0"/>
      <animate attributeName="fill-opacity" dur="2s" repeatCount="indefinite" values="0.0;0.0"/>
      <animate attributeName="d" dur="2s" repeatCount="indefinite" values="M3.35 3.35 Q4.1 2.05 5.2 0.9 5.45 0.7 5.75 0.45 L5.95 0.25 6.15 0.15 6.15 0.05 6.25 -0.05 6.4 -0.15 6.5 -0.15 6.5 -0.15 6.7 -0.1 7.05 0.3 7.1 0.4 7.1 0.55 7.4 0.55 7.8 0.45 8.5 0.1 Q8.95 0.2 9.1 0.65 L9.1 0.8 Q9.2 1.25 9.8 1.1 L9.95 0.9 Q10.7 0.05 11.8 -0.25 12.25 -0.3 12.75 -0.4 L12.95 -0.3 13.05 -0.25 13.2 -0.1 13.35 0.15 13.35 0.3 Q13.05 1.1 12.25 1.35 L11.5 1.25 11.3 1.45 11.2 1.45 10.9 2.2 10.35 2.75 10.05 2.9 9.7 3.0 9.5 3.0 9.2 3.0 9.05 2.95 8.85 2.75 8.75 2.8 8.5 2.85 8.3 2.75 7.95 2.55 7.85 2.2 7.8 1.85 7.6 2.15 7.3 2.55 Q7.0 2.85 6.65 3.15 L6.5 3.3 6.25 3.35 6.25 3.35 6.05 3.25 5.8 3.15 5.7 3.05 5.65 2.95 5.65 2.85 5.6 2.7 Q5.55 2.6 5.5 2.65 L5.2 2.75 5.1 2.95 4.75 3.45 4.6 3.6 4.25 3.8 4.0 3.85 3.65 3.75 3.5 3.6 3.35 3.4 3.35 3.35 3.35 3.35;M15.1 -7.95 Q16.2 -9.1 17.35 -10.25 17.6 -10.5 18.0 -10.65 L18.3 -10.45 18.6 -10.15 18.6 -10.05 18.6 -9.95 18.6 -9.75 18.6 -9.65 18.7 -9.65 18.8 -9.7 19.25 -9.9 19.35 -9.9 19.45 -9.8 19.55 -9.75 19.95 -9.5 20.5 -10.0 Q20.9 -10.1 21.35 -10.2 L21.45 -10.2 Q21.85 -10.1 22.25 -10.0 L22.25 -10.0 Q23.0 -10.85 24.0 -11.15 24.65 -11.3 25.0 -10.8 L25.1 -10.6 25.1 -10.45 25.05 -10.25 24.85 -10.05 24.85 -9.95 Q24.15 -9.65 23.45 -9.3 L22.7 -8.75 22.45 -8.55 22.45 -8.45 22.25 -7.6 21.95 -7.05 21.75 -6.95 21.5 -6.9 21.4 -6.9 21.15 -7.05 20.95 -7.2 20.85 -7.5 20.85 -7.7 20.85 -8.1 20.85 -8.3 20.45 -8.1 20.05 -7.95 19.75 -7.85 19.25 -7.65 18.95 -7.55 Q18.5 -7.05 18.0 -7.1 L17.7 -7.15 17.3 -7.35 17.2 -7.45 17.15 -7.65 17.1 -8.0 17.1 -8.0 17.05 -8.2 17.05 -8.15 16.95 -8.05 Q16.9 -7.95 16.85 -7.85 L16.65 -7.65 16.4 -7.45 16.25 -7.15 16.1 -7.0 16.0 -6.95 15.75 -6.9 15.4 -7.05 15.2 -7.2 15.15 -7.4 15.15 -7.4 15.1 -7.95"/>
    </path>
  </g>
</svg>
