<?xml version="1.0" encoding="UTF-8" standalone="no"?>
<svg xmlns:xlink="http://www.w3.org/1999/xlink" height="8.0px" width="15.0px" xmlns="http://www.w3.org/2000/svg">
  <g transform="matrix(1.0, 0.0, 0.0, 1.0, 13.4, 6.4)">
    <path d="M-13.4 0.1 L-13.3 0.25 -13.3 0.25 -12.75 0.6 Q-12.45 0.6 -12.25 0.35 L-11.65 -0.4 -11.35 -0.1 -10.85 -0.05 -10.35 -0.35 -9.9 -0.6 -9.15 -1.0 -9.15 -1.0 -9.15 -0.65 -8.95 0.1 -8.25 0.6 Q-7.2 -0.1 -6.15 -0.75 L-6.15 0.0 -6.15 0.4 -6.05 1.3 -5.85 1.45 -5.5 1.6 -5.2 1.4 -5.05 1.3 -4.9 1.1 -4.9 0.95 -4.9 0.65 -4.9 0.45 -4.9 0.35 -4.9 0.35 -4.9 -0.15 Q-4.9 -0.6 -4.9 -1.0 L-4.9 -1.9 -5.2 -2.2 -5.5 -2.4 Q-6.8 -2.25 -7.65 -1.25 L-7.65 -1.25 -7.75 -1.25 -7.85 -1.25 -7.9 -1.3 -7.9 -1.5 -7.9 -2.05 -7.9 -2.65 -7.9 -2.65 -8.0 -2.8 -8.35 -3.1 Q-8.7 -3.15 -9.0 -3.15 L-9.0 -3.1 -9.1 -3.1 -9.2 -3.0 -9.4 -3.0 -9.65 -2.6 -9.75 -2.45 Q-9.95 -2.05 -10.4 -2.2 L-10.55 -2.5 -11.0 -2.9 -11.15 -2.8 -11.2 -2.75 Q-12.75 -1.55 -13.4 0.1" fill="#000000" fill-rule="evenodd" stroke="none">
      <animate attributeName="fill" dur="2s" repeatCount="indefinite" values="#000000;#000001"/>
      <animate attributeName="fill-opacity" dur="2s" repeatCount="indefinite" values="1.0;1.0"/>
      <animate attributeName="d" dur="2s" repeatCount="indefinite" values="M-13.4 0.1 L-13.3 0.25 -13.3 0.25 -12.75 0.6 Q-12.45 0.6 -12.25 0.35 L-11.65 -0.4 -11.35 -0.1 -10.85 -0.05 -10.35 -0.35 -9.9 -0.6 -9.15 -1.0 -9.15 -1.0 -9.15 -0.65 -8.95 0.1 -8.25 0.6 Q-7.2 -0.1 -6.15 -0.75 L-6.15 0.0 -6.15 0.4 -6.05 1.3 -5.85 1.45 -5.5 1.6 -5.2 1.4 -5.05 1.3 -4.9 1.1 -4.9 0.95 -4.9 0.65 -4.9 0.45 -4.9 0.35 -4.9 0.35 -4.9 -0.15 Q-4.9 -0.6 -4.9 -1.0 L-4.9 -1.9 -5.2 -2.2 -5.5 -2.4 Q-6.8 -2.25 -7.65 -1.25 L-7.65 -1.25 -7.75 -1.25 -7.85 -1.25 -7.9 -1.3 -7.9 -1.5 -7.9 -2.05 -7.9 -2.65 -7.9 -2.65 -8.0 -2.8 -8.35 -3.1 Q-8.7 -3.15 -9.0 -3.15 L-9.0 -3.1 -9.1 -3.1 -9.2 -3.0 -9.4 -3.0 -9.65 -2.6 -9.75 -2.45 Q-9.95 -2.05 -10.4 -2.2 L-10.55 -2.5 -11.0 -2.9 -11.15 -2.8 -11.2 -2.75 Q-12.75 -1.55 -13.4 0.1;M-7.65 -4.4 L-7.65 -4.4 -7.45 -4.3 -6.95 -4.1 Q-6.75 -4.05 -6.55 -4.0 L-5.85 -3.95 -5.55 -3.95 -5.05 -4.1 -4.55 -4.25 -4.75 -4.0 -4.9 -3.4 -4.9 -3.3 -4.65 -3.0 -3.95 -2.9 -3.45 -2.25 Q-2.35 -1.15 -1.4 -2.15 L-1.0 -2.75 -0.8 -3.05 0.05 -3.2 0.25 -3.3 0.6 -3.55 0.85 -3.8 1.05 -3.85 1.25 -3.95 1.35 -4.0 1.5 -4.15 1.55 -4.3 1.6 -4.4 1.6 -4.5 1.45 -4.85 Q1.2 -5.25 0.8 -5.15 L0.05 -4.9 -0.25 -4.8 -0.65 -4.6 Q-1.55 -3.8 -2.45 -3.05 L-2.45 -3.05 -2.65 -3.25 -2.65 -3.25 -2.65 -3.35 -2.65 -3.65 -2.7 -4.05 -2.8 -4.65 -2.8 -4.75 -2.7 -4.85 -2.55 -5.15 Q-2.35 -5.4 -2.4 -5.7 L-2.4 -5.8 -2.4 -5.9 -2.5 -6.05 -2.6 -6.15 -3.05 -6.4 -3.25 -6.4 Q-3.5 -6.25 -3.7 -6.15 L-3.9 -6.1 -4.45 -5.95 -4.65 -5.95 -4.75 -5.95 Q-6.8 -5.65 -7.65 -4.4"/>
    </path>
    <path d="M-13.4 0.1 Q-12.75 -1.55 -11.2 -2.75 L-11.15 -2.8 -11.0 -2.9 -10.55 -2.5 -10.4 -2.2 Q-9.95 -2.05 -9.75 -2.45 L-9.65 -2.6 -9.4 -3.0 -9.2 -3.0 -9.1 -3.1 -9.0 -3.1 -9.0 -3.15 Q-8.7 -3.15 -8.35 -3.1 L-8.0 -2.8 -7.9 -2.65 -7.9 -2.65 -7.9 -2.05 -7.9 -1.5 -7.9 -1.3 -7.85 -1.25 -7.75 -1.25 -7.65 -1.25 -7.65 -1.25 Q-6.8 -2.25 -5.5 -2.4 L-5.2 -2.2 -4.9 -1.9 -4.9 -1.0 Q-4.9 -0.6 -4.9 -0.15 L-4.9 0.35 -4.9 0.35 -4.9 0.45 -4.9 0.65 -4.9 0.95 -4.9 1.1 -5.05 1.3 -5.2 1.4 -5.5 1.6 -5.85 1.45 -6.05 1.3 -6.15 0.4 -6.15 0.0 -6.15 -0.75 Q-7.2 -0.1 -8.25 0.6 L-8.95 0.1 -9.15 -0.65 -9.15 -1.0 -9.15 -1.0 -9.9 -0.6 -10.35 -0.35 -10.85 -0.05 -11.35 -0.1 -11.65 -0.4 -12.25 0.35 Q-12.45 0.6 -12.75 0.6 L-13.3 0.25 -13.3 0.25 -13.4 0.1" fill="none" stroke="#000000" stroke-linecap="round" stroke-linejoin="round" stroke-opacity="0.0" stroke-width="1.0">
      <animate attributeName="stroke" dur="2s" repeatCount="indefinite" values="#000000;#000001"/>
      <animate attributeName="stroke-width" dur="2s" repeatCount="indefinite" values="0.0;0.0"/>
      <animate attributeName="fill-opacity" dur="2s" repeatCount="indefinite" values="0.0;0.0"/>
      <animate attributeName="d" dur="2s" repeatCount="indefinite" values="M-13.4 0.1 Q-12.75 -1.55 -11.2 -2.75 L-11.15 -2.8 -11.0 -2.9 -10.55 -2.5 -10.4 -2.2 Q-9.95 -2.05 -9.75 -2.45 L-9.65 -2.6 -9.4 -3.0 -9.2 -3.0 -9.1 -3.1 -9.0 -3.1 -9.0 -3.15 Q-8.7 -3.15 -8.35 -3.1 L-8.0 -2.8 -7.9 -2.65 -7.9 -2.65 -7.9 -2.05 -7.9 -1.5 -7.9 -1.3 -7.85 -1.25 -7.75 -1.25 -7.65 -1.25 -7.65 -1.25 Q-6.8 -2.25 -5.5 -2.4 L-5.2 -2.2 -4.9 -1.9 -4.9 -1.0 Q-4.9 -0.6 -4.9 -0.15 L-4.9 0.35 -4.9 0.35 -4.9 0.45 -4.9 0.65 -4.9 0.95 -4.9 1.1 -5.05 1.3 -5.2 1.4 -5.5 1.6 -5.85 1.45 -6.05 1.3 -6.15 0.4 -6.15 0.0 -6.15 -0.75 Q-7.2 -0.1 -8.25 0.6 L-8.95 0.1 -9.15 -0.65 -9.15 -1.0 -9.15 -1.0 -9.9 -0.6 -10.35 -0.35 -10.85 -0.05 -11.35 -0.1 -11.65 -0.4 -12.25 0.35 Q-12.45 0.6 -12.75 0.6 L-13.3 0.25 -13.3 0.25 -13.4 0.1;M-7.65 -4.4 Q-6.8 -5.65 -4.75 -5.95 L-4.65 -5.95 -4.45 -5.95 -3.9 -6.1 -3.7 -6.15 Q-3.5 -6.25 -3.25 -6.4 L-3.05 -6.4 -2.6 -6.15 -2.5 -6.05 -2.4 -5.9 -2.4 -5.8 -2.4 -5.7 Q-2.35 -5.4 -2.55 -5.15 L-2.7 -4.85 -2.8 -4.75 -2.8 -4.65 -2.7 -4.05 -2.65 -3.65 -2.65 -3.35 -2.65 -3.25 -2.65 -3.25 -2.45 -3.05 -2.45 -3.05 Q-1.55 -3.8 -0.65 -4.6 L-0.25 -4.8 0.05 -4.9 0.8 -5.15 Q1.2 -5.25 1.45 -4.85 L1.6 -4.5 1.6 -4.4 1.55 -4.3 1.5 -4.15 1.35 -4.0 1.25 -3.95 1.05 -3.85 0.85 -3.8 0.6 -3.55 0.25 -3.3 0.05 -3.2 -0.8 -3.05 -1.0 -2.75 -1.4 -2.15 Q-2.35 -1.15 -3.45 -2.25 L-3.95 -2.9 -4.65 -3.0 -4.9 -3.3 -4.9 -3.4 -4.75 -4.0 -4.55 -4.25 -5.05 -4.1 -5.55 -3.95 -5.85 -3.95 -6.55 -4.0 Q-6.75 -4.05 -6.95 -4.1 L-7.45 -4.3 -7.65 -4.4 -7.65 -4.4"/>
    </path>
  </g>
</svg>
