<?xml version="1.0" encoding="UTF-8" standalone="no"?>
<svg xmlns:xlink="http://www.w3.org/1999/xlink" height="12.0px" width="15.75px" xmlns="http://www.w3.org/2000/svg">
  <g transform="matrix(1.0, 0.0, 0.0, 1.0, -15.1, 18.9)">
    <path d="M15.1 -7.95 L15.1 -7.95 15.1 -7.75 15.1 -7.75 15.15 -7.4 15.15 -7.3 15.2 -7.2 15.4 -7.05 15.65 -6.95 15.75 -6.9 15.9 -6.95 16.0 -6.95 16.1 -7.0 16.1 -7.0 16.25 -7.15 16.25 -7.15 16.4 -7.45 17.05 -8.2 17.1 -8.0 17.15 -7.65 17.15 -7.55 17.2 -7.45 17.4 -7.3 17.6 -7.2 18.2 -7.1 Q18.4 -7.2 18.6 -7.25 L18.95 -7.55 19.15 -7.65 19.25 -7.65 20.85 -8.3 20.85 -7.75 20.85 -7.6 20.95 -7.2 21.15 -7.05 21.4 -6.95 21.5 -6.9 21.75 -6.95 21.95 -7.05 22.25 -7.6 22.45 -8.55 22.75 -8.8 22.95 -9.0 23.55 -9.35 23.9 -9.55 24.1 -9.65 24.5 -9.85 24.65 -9.95 24.75 -9.95 24.75 -9.95 25.05 -10.25 25.1 -10.45 25.1 -10.5 25.1 -10.6 25.0 -10.8 24.75 -11.05 24.55 -11.15 24.0 -11.15 24.0 -11.15 23.7 -11.05 23.05 -10.7 Q22.7 -10.4 22.35 -10.1 L22.25 -10.0 Q21.0 -10.45 20.15 -9.7 L20.05 -9.6 19.95 -9.5 19.95 -9.5 19.85 -9.6 19.55 -9.75 19.35 -9.9 19.25 -9.9 18.9 -9.7 18.8 -9.7 18.6 -9.65 18.6 -9.65 18.6 -9.75 18.6 -9.85 18.6 -9.95 18.6 -10.15 18.3 -10.45 18.3 -10.45 18.0 -10.65 Q17.6 -10.5 17.35 -10.25 16.2 -9.1 15.1 -7.95" fill="#000000" fill-rule="evenodd" stroke="none">
      <animate attributeName="fill" dur="2s" repeatCount="indefinite" values="#000000;#000001"/>
      <animate attributeName="fill-opacity" dur="2s" repeatCount="indefinite" values="1.0;1.0"/>
      <animate attributeName="d" dur="2s" repeatCount="indefinite" values="M15.1 -7.95 L15.1 -7.95 15.1 -7.75 15.1 -7.75 15.15 -7.4 15.15 -7.3 15.2 -7.2 15.4 -7.05 15.65 -6.95 15.75 -6.9 15.9 -6.95 16.0 -6.95 16.1 -7.0 16.1 -7.0 16.25 -7.15 16.25 -7.15 16.4 -7.45 17.05 -8.2 17.1 -8.0 17.15 -7.65 17.15 -7.55 17.2 -7.45 17.4 -7.3 17.6 -7.2 18.2 -7.1 Q18.4 -7.2 18.6 -7.25 L18.95 -7.55 19.15 -7.65 19.25 -7.65 20.85 -8.3 20.85 -7.75 20.85 -7.6 20.95 -7.2 21.15 -7.05 21.4 -6.95 21.5 -6.9 21.75 -6.95 21.95 -7.05 22.25 -7.6 22.45 -8.55 22.75 -8.8 22.95 -9.0 23.55 -9.35 23.9 -9.55 24.1 -9.65 24.5 -9.85 24.65 -9.95 24.75 -9.95 24.75 -9.95 25.05 -10.25 25.1 -10.45 25.1 -10.5 25.1 -10.6 25.0 -10.8 24.75 -11.05 24.55 -11.15 24.0 -11.15 24.0 -11.15 23.7 -11.05 23.05 -10.7 Q22.7 -10.4 22.35 -10.1 L22.25 -10.0 Q21.0 -10.45 20.15 -9.7 L20.05 -9.6 19.95 -9.5 19.95 -9.5 19.85 -9.6 19.55 -9.75 19.35 -9.9 19.25 -9.9 18.9 -9.7 18.8 -9.7 18.6 -9.65 18.6 -9.65 18.6 -9.75 18.6 -9.85 18.6 -9.95 18.6 -10.15 18.3 -10.45 18.3 -10.45 18.0 -10.65 Q17.6 -10.5 17.35 -10.25 16.2 -9.1 15.1 -7.95;M20.6 -14.95 L20.65 -14.65 20.65 -14.55 20.65 -14.45 20.7 -14.2 20.7 -14.2 20.9 -14.1 21.05 -14.0 21.25 -13.9 21.35 -13.9 21.5 -13.95 21.6 -13.95 21.7 -14.05 21.7 -14.05 21.8 -14.25 21.8 -14.25 22.1 -14.55 22.8 -15.25 22.9 -15.45 23.1 -15.75 23.1 -15.75 23.15 -15.5 23.15 -15.4 23.2 -15.2 23.75 -14.9 Q23.85 -14.9 23.95 -15.0 L24.35 -15.2 24.6 -15.25 24.75 -15.25 26.15 -15.4 26.75 -15.65 26.85 -15.65 27.15 -15.2 27.3 -15.15 27.5 -15.15 27.95 -15.15 28.3 -15.25 28.6 -15.35 29.35 -15.7 30.0 -16.2 30.3 -16.5 30.3 -16.85 30.5 -17.45 30.7 -17.65 30.8 -17.8 30.85 -18.2 30.85 -18.4 30.75 -18.5 30.7 -18.55 30.5 -18.75 30.35 -18.85 30.25 -18.9 30.25 -18.85 30.0 -18.8 29.85 -18.75 29.75 -18.65 29.3 -18.2 29.1 -17.9 29.15 -17.5 29.0 -16.95 Q28.45 -16.5 28.0 -16.8 L27.9 -16.9 Q26.75 -16.8 25.6 -16.75 L25.6 -16.95 25.6 -17.15 25.6 -17.15 25.45 -17.3 25.3 -17.4 25.0 -17.65 25.0 -17.65 24.6 -17.5 24.5 -17.4 24.35 -17.4 24.35 -17.4 24.35 -17.4 24.2 -17.55 24.2 -17.55 24.1 -17.65 23.85 -17.85 23.75 -17.9 23.55 -17.7 Q23.2 -17.45 22.9 -17.25 21.6 -16.3 20.6 -14.95"/>
    </path>
    <path d="M15.1 -7.95 Q16.2 -9.1 17.35 -10.25 17.6 -10.5 18.0 -10.65 L18.3 -10.45 18.3 -10.45 18.6 -10.15 18.6 -9.95 18.6 -9.85 18.6 -9.75 18.6 -9.65 18.6 -9.65 18.8 -9.7 18.9 -9.7 19.25 -9.9 19.35 -9.9 19.55 -9.75 19.85 -9.6 19.95 -9.5 19.95 -9.5 20.05 -9.6 20.15 -9.7 Q21.0 -10.45 22.25 -10.0 L22.35 -10.1 Q22.7 -10.4 23.05 -10.7 L23.7 -11.05 24.0 -11.15 24.0 -11.15 24.55 -11.15 24.75 -11.05 25.0 -10.8 25.1 -10.6 25.1 -10.5 25.1 -10.45 25.05 -10.25 24.75 -9.95 24.75 -9.95 24.65 -9.95 24.5 -9.85 24.1 -9.65 23.9 -9.55 23.55 -9.35 22.95 -9.0 22.75 -8.8 22.45 -8.55 22.25 -7.6 21.95 -7.05 21.75 -6.95 21.5 -6.9 21.4 -6.95 21.15 -7.05 20.95 -7.2 20.85 -7.6 20.85 -7.75 20.85 -8.3 19.25 -7.65 19.15 -7.65 18.95 -7.55 18.6 -7.25 Q18.4 -7.2 18.2 -7.1 L17.6 -7.2 17.4 -7.3 17.2 -7.45 17.15 -7.55 17.15 -7.65 17.1 -8.0 17.05 -8.2 16.4 -7.45 16.25 -7.15 16.25 -7.15 16.1 -7.0 16.1 -7.0 16.0 -6.95 15.9 -6.95 15.75 -6.9 15.65 -6.95 15.4 -7.05 15.2 -7.2 15.15 -7.3 15.15 -7.4 15.1 -7.75 15.1 -7.75 15.1 -7.95 15.1 -7.95" fill="none" stroke="#000000" stroke-linecap="round" stroke-linejoin="round" stroke-opacity="0.0" stroke-width="1.0">
      <animate attributeName="stroke" dur="2s" repeatCount="indefinite" values="#000000;#000001"/>
      <animate attributeName="stroke-width" dur="2s" repeatCount="indefinite" values="0.0;0.0"/>
      <animate attributeName="fill-opacity" dur="2s" repeatCount="indefinite" values="0.0;0.0"/>
      <animate attributeName="d" dur="2s" repeatCount="indefinite" values="M15.1 -7.95 Q16.2 -9.1 17.35 -10.25 17.6 -10.5 18.0 -10.65 L18.3 -10.45 18.3 -10.45 18.6 -10.15 18.6 -9.95 18.6 -9.85 18.6 -9.75 18.6 -9.65 18.6 -9.65 18.8 -9.7 18.9 -9.7 19.25 -9.9 19.35 -9.9 19.55 -9.75 19.85 -9.6 19.95 -9.5 19.95 -9.5 20.05 -9.6 20.15 -9.7 Q21.0 -10.45 22.25 -10.0 L22.35 -10.1 Q22.7 -10.4 23.05 -10.7 L23.7 -11.05 24.0 -11.15 24.0 -11.15 24.55 -11.15 24.75 -11.05 25.0 -10.8 25.1 -10.6 25.1 -10.5 25.1 -10.45 25.05 -10.25 24.75 -9.95 24.75 -9.95 24.65 -9.95 24.5 -9.85 24.1 -9.65 23.9 -9.55 23.55 -9.35 22.95 -9.0 22.75 -8.8 22.45 -8.55 22.25 -7.6 21.95 -7.05 21.75 -6.95 21.5 -6.9 21.4 -6.95 21.15 -7.05 20.95 -7.2 20.85 -7.6 20.85 -7.75 20.85 -8.3 19.25 -7.65 19.15 -7.65 18.95 -7.55 18.6 -7.25 Q18.4 -7.2 18.2 -7.1 L17.6 -7.2 17.4 -7.3 17.2 -7.45 17.15 -7.55 17.15 -7.65 17.1 -8.0 17.05 -8.2 16.4 -7.45 16.25 -7.15 16.25 -7.15 16.1 -7.0 16.1 -7.0 16.0 -6.95 15.9 -6.95 15.75 -6.9 15.65 -6.95 15.4 -7.05 15.2 -7.2 15.15 -7.3 15.15 -7.4 15.1 -7.75 15.1 -7.75 15.1 -7.95 15.1 -7.95;M20.6 -14.95 Q21.6 -16.3 22.9 -17.25 23.2 -17.45 23.55 -17.7 L23.75 -17.9 23.85 -17.85 24.1 -17.65 24.2 -17.55 24.2 -17.55 24.35 -17.4 24.35 -17.4 24.35 -17.4 24.5 -17.4 24.6 -17.5 25.0 -17.65 25.0 -17.65 25.3 -17.4 25.45 -17.3 25.6 -17.15 25.6 -17.15 25.6 -16.95 25.6 -16.75 Q26.75 -16.8 27.9 -16.9 L28.0 -16.8 Q28.45 -16.5 29.0 -16.95 L29.15 -17.5 29.1 -17.9 29.3 -18.2 29.75 -18.65 29.85 -18.75 30.0 -18.8 30.25 -18.85 30.25 -18.9 30.35 -18.85 30.5 -18.75 30.7 -18.55 30.75 -18.5 30.85 -18.4 30.85 -18.2 30.8 -17.8 30.7 -17.65 30.5 -17.45 30.3 -16.85 30.3 -16.5 30.0 -16.2 29.35 -15.7 28.6 -15.35 28.3 -15.25 27.95 -15.15 27.5 -15.15 27.3 -15.15 27.15 -15.2 26.85 -15.65 26.75 -15.65 26.15 -15.4 24.75 -15.25 24.6 -15.25 24.35 -15.2 23.95 -15.0 Q23.85 -14.9 23.75 -14.9 L23.2 -15.2 23.15 -15.4 23.15 -15.5 23.1 -15.75 23.1 -15.75 22.9 -15.45 22.8 -15.25 22.1 -14.55 21.8 -14.25 21.8 -14.25 21.7 -14.05 21.7 -14.05 21.6 -13.95 21.5 -13.95 21.35 -13.9 21.25 -13.9 21.05 -14.0 20.9 -14.1 20.7 -14.2 20.7 -14.2 20.65 -14.45 20.65 -14.55 20.65 -14.65 20.6 -14.95"/>
    </path>
  </g>
</svg>
