<?xml version="1.0" encoding="UTF-8" standalone="no"?>
<svg xmlns:xlink="http://www.w3.org/1999/xlink" height="12.35px" width="16.25px" xmlns="http://www.w3.org/2000/svg">
  <g transform="matrix(1.0, 0.0, 0.0, 1.0, 6.4, 27.45)">
    <path d="M-6.4 -15.4 L-6.4 -15.4 -6.1 -15.15 -5.7 -15.1 Q-4.45 -15.05 -3.75 -16.25 L-3.5 -16.75 -3.4 -16.95 -3.3 -16.9 -3.05 -16.85 -2.85 -16.85 -2.65 -16.95 -2.55 -17.05 -2.45 -17.15 -2.45 -17.25 -2.45 -17.35 -2.35 -17.45 -2.3 -17.45 -2.05 -17.25 -1.85 -17.15 -1.75 -17.15 -1.5 -17.15 -0.65 -17.25 -0.45 -17.45 -0.35 -17.55 -0.35 -17.55 -0.15 -17.65 -0.15 -17.75 0.0 -17.75 0.2 -17.65 0.6 -17.55 0.6 -17.55 0.8 -17.35 Q1.35 -16.95 2.1 -17.05 L2.5 -17.2 2.55 -17.2 2.65 -17.35 2.85 -17.7 2.8 -17.95 2.35 -18.35 1.85 -18.45 1.5 -18.8 1.05 -18.95 0.85 -18.95 0.75 -19.05 0.55 -19.15 0.25 -19.4 0.0 -19.3 Q-0.65 -18.9 -0.4 -19.45 L-0.4 -19.65 -0.5 -19.85 -0.65 -20.0 -1.0 -20.15 -1.05 -20.15 -1.25 -20.1 -1.4 -20.15 -1.55 -20.3 Q-1.8 -20.5 -2.0 -20.65 L-2.0 -20.6 -2.25 -20.55 -2.3 -20.55 -2.4 -20.5 -2.5 -20.3 -2.8 -19.95 -2.8 -19.95 -2.8 -19.95 Q-3.1 -19.55 -3.4 -19.15 L-3.4 -19.15 -3.55 -18.95 -3.75 -18.75 Q-4.6 -17.5 -5.4 -16.25 L-5.75 -16.15 Q-6.45 -16.05 -6.4 -15.4" fill="#000000" fill-rule="evenodd" stroke="none">
      <animate attributeName="fill" dur="2s" repeatCount="indefinite" values="#000000;#000001"/>
      <animate attributeName="fill-opacity" dur="2s" repeatCount="indefinite" values="1.0;1.0"/>
      <animate attributeName="d" dur="2s" repeatCount="indefinite" values="M-6.4 -15.4 L-6.4 -15.4 -6.1 -15.15 -5.7 -15.1 Q-4.45 -15.05 -3.75 -16.25 L-3.5 -16.75 -3.4 -16.95 -3.3 -16.9 -3.05 -16.85 -2.85 -16.85 -2.65 -16.95 -2.55 -17.05 -2.45 -17.15 -2.45 -17.25 -2.45 -17.35 -2.35 -17.45 -2.3 -17.45 -2.05 -17.25 -1.85 -17.15 -1.75 -17.15 -1.5 -17.15 -0.65 -17.25 -0.45 -17.45 -0.35 -17.55 -0.35 -17.55 -0.15 -17.65 -0.15 -17.75 0.0 -17.75 0.2 -17.65 0.6 -17.55 0.6 -17.55 0.8 -17.35 Q1.35 -16.95 2.1 -17.05 L2.5 -17.2 2.55 -17.2 2.65 -17.35 2.85 -17.7 2.8 -17.95 2.35 -18.35 1.85 -18.45 1.5 -18.8 1.05 -18.95 0.85 -18.95 0.75 -19.05 0.55 -19.15 0.25 -19.4 0.0 -19.3 Q-0.65 -18.9 -0.4 -19.45 L-0.4 -19.65 -0.5 -19.85 -0.65 -20.0 -1.0 -20.15 -1.05 -20.15 -1.25 -20.1 -1.4 -20.15 -1.55 -20.3 Q-1.8 -20.5 -2.0 -20.65 L-2.0 -20.6 -2.25 -20.55 -2.3 -20.55 -2.4 -20.5 -2.5 -20.3 -2.8 -19.95 -2.8 -19.95 -2.8 -19.95 Q-3.1 -19.55 -3.4 -19.15 L-3.4 -19.15 -3.55 -18.95 -3.75 -18.75 Q-4.6 -17.5 -5.4 -16.25 L-5.75 -16.15 Q-6.45 -16.05 -6.4 -15.4;M0.1 -23.9 L0.4 -23.5 0.7 -23.35 1.0 -23.4 Q2.2 -24.5 3.35 -25.05 L3.4 -24.5 3.5 -24.15 3.5 -24.15 3.75 -23.9 3.85 -23.75 3.85 -23.55 3.9 -23.4 3.95 -23.2 4.05 -23.1 4.15 -23.05 4.4 -22.95 4.4 -22.95 4.5 -22.9 4.75 -23.05 4.85 -23.25 5.05 -23.45 5.85 -24.25 6.05 -24.45 6.1 -24.25 6.1 -24.25 6.15 -23.9 6.2 -23.8 6.2 -23.7 6.4 -23.55 6.9 -23.4 7.0 -23.4 7.25 -23.55 Q7.8 -24.0 8.3 -24.4 L8.65 -24.05 8.65 -24.05 8.95 -23.9 9.55 -24.0 9.8 -24.3 9.75 -24.9 9.6 -25.25 9.6 -25.65 9.25 -25.95 9.15 -25.95 9.05 -26.05 8.75 -26.15 8.45 -25.9 8.15 -25.75 Q7.75 -25.6 7.35 -25.5 L7.35 -25.7 7.35 -25.9 7.05 -26.2 6.85 -26.4 6.75 -26.4 6.75 -26.4 6.65 -26.3 6.45 -26.1 Q6.05 -25.8 5.7 -25.8 L5.6 -25.8 5.3 -25.85 5.2 -25.95 5.3 -26.1 5.4 -26.3 5.6 -26.7 5.6 -26.75 5.6 -26.85 Q5.25 -27.55 4.5 -27.4 L4.5 -27.35 4.25 -27.3 4.1 -27.25 Q2.55 -26.4 1.35 -25.25 L0.95 -24.85 Q0.5 -24.35 0.1 -23.9"/>
    </path>
    <path d="M-6.4 -15.4 Q-6.45 -16.05 -5.75 -16.15 L-5.4 -16.25 Q-4.6 -17.5 -3.75 -18.75 L-3.55 -18.95 -3.4 -19.15 -3.4 -19.15 Q-3.1 -19.55 -2.8 -19.95 L-2.8 -19.95 -2.8 -19.95 -2.5 -20.3 -2.4 -20.5 -2.3 -20.55 -2.25 -20.55 -2.0 -20.6 -2.0 -20.65 Q-1.8 -20.5 -1.55 -20.3 L-1.4 -20.15 -1.25 -20.1 -1.05 -20.15 -1.0 -20.15 -0.65 -20.0 -0.5 -19.85 -0.4 -19.65 -0.4 -19.45 Q-0.65 -18.9 0.0 -19.3 L0.25 -19.4 0.55 -19.15 0.75 -19.05 0.85 -18.95 1.05 -18.95 1.5 -18.8 1.85 -18.45 2.35 -18.35 2.8 -17.95 2.85 -17.7 2.65 -17.35 2.55 -17.2 2.5 -17.2 2.1 -17.05 Q1.35 -16.95 0.8 -17.35 L0.6 -17.55 0.6 -17.55 0.2 -17.65 0.0 -17.75 -0.15 -17.75 -0.15 -17.65 -0.35 -17.55 -0.35 -17.55 -0.45 -17.45 -0.65 -17.25 -1.5 -17.15 -1.75 -17.15 -1.85 -17.15 -2.05 -17.25 -2.3 -17.45 -2.35 -17.45 -2.45 -17.35 -2.45 -17.25 -2.45 -17.15 -2.55 -17.05 -2.65 -16.95 -2.85 -16.85 -3.05 -16.85 -3.3 -16.9 -3.4 -16.95 -3.5 -16.75 -3.75 -16.25 Q-4.45 -15.05 -5.7 -15.1 L-6.1 -15.15 -6.4 -15.4 -6.4 -15.4" fill="none" stroke="#000000" stroke-linecap="round" stroke-linejoin="round" stroke-opacity="0.0" stroke-width="1.0">
      <animate attributeName="stroke" dur="2s" repeatCount="indefinite" values="#000000;#000001"/>
      <animate attributeName="stroke-width" dur="2s" repeatCount="indefinite" values="0.0;0.0"/>
      <animate attributeName="fill-opacity" dur="2s" repeatCount="indefinite" values="0.0;0.0"/>
      <animate attributeName="d" dur="2s" repeatCount="indefinite" values="M-6.4 -15.4 Q-6.45 -16.05 -5.75 -16.15 L-5.4 -16.25 Q-4.6 -17.5 -3.75 -18.75 L-3.55 -18.95 -3.4 -19.15 -3.4 -19.15 Q-3.1 -19.55 -2.8 -19.95 L-2.8 -19.95 -2.8 -19.95 -2.5 -20.3 -2.4 -20.5 -2.3 -20.55 -2.25 -20.55 -2.0 -20.6 -2.0 -20.65 Q-1.8 -20.5 -1.55 -20.3 L-1.4 -20.15 -1.25 -20.1 -1.05 -20.15 -1.0 -20.15 -0.65 -20.0 -0.5 -19.85 -0.4 -19.65 -0.4 -19.45 Q-0.65 -18.9 0.0 -19.3 L0.25 -19.4 0.55 -19.15 0.75 -19.05 0.85 -18.95 1.05 -18.95 1.5 -18.8 1.85 -18.45 2.35 -18.35 2.8 -17.95 2.85 -17.7 2.65 -17.35 2.55 -17.2 2.5 -17.2 2.1 -17.05 Q1.35 -16.95 0.8 -17.35 L0.6 -17.55 0.6 -17.55 0.2 -17.65 0.0 -17.75 -0.15 -17.75 -0.15 -17.65 -0.35 -17.55 -0.35 -17.55 -0.45 -17.45 -0.65 -17.25 -1.5 -17.15 -1.75 -17.15 -1.85 -17.15 -2.05 -17.25 -2.3 -17.45 -2.35 -17.45 -2.45 -17.35 -2.45 -17.25 -2.45 -17.15 -2.55 -17.05 -2.65 -16.95 -2.85 -16.85 -3.05 -16.85 -3.3 -16.9 -3.4 -16.95 -3.5 -16.75 -3.75 -16.25 Q-4.45 -15.05 -5.7 -15.1 L-6.1 -15.15 -6.4 -15.4 -6.4 -15.4;M0.1 -23.9 Q0.5 -24.35 0.95 -24.85 L1.35 -25.25 Q2.55 -26.4 4.1 -27.25 L4.25 -27.3 4.5 -27.35 4.5 -27.4 Q5.25 -27.55 5.6 -26.85 L5.6 -26.75 5.6 -26.7 5.4 -26.3 5.3 -26.1 5.2 -25.95 5.3 -25.85 5.6 -25.8 5.7 -25.8 Q6.05 -25.8 6.45 -26.1 L6.65 -26.3 6.75 -26.4 6.75 -26.4 6.85 -26.4 7.05 -26.2 7.35 -25.9 7.35 -25.7 7.35 -25.5 Q7.75 -25.6 8.15 -25.75 L8.45 -25.9 8.75 -26.15 9.05 -26.05 9.15 -25.95 9.25 -25.95 9.6 -25.65 9.6 -25.25 9.75 -24.9 9.8 -24.3 9.55 -24.0 8.95 -23.9 8.65 -24.05 8.65 -24.05 8.3 -24.4 Q7.8 -24.0 7.25 -23.55 L7.0 -23.4 6.9 -23.4 6.4 -23.55 6.2 -23.7 6.2 -23.8 6.15 -23.9 6.1 -24.25 6.1 -24.25 6.05 -24.45 5.85 -24.25 5.05 -23.45 4.85 -23.25 4.75 -23.05 4.5 -22.9 4.4 -22.95 4.4 -22.95 4.15 -23.05 4.05 -23.1 3.95 -23.2 3.9 -23.4 3.85 -23.55 3.85 -23.75 3.75 -23.9 3.5 -24.15 3.5 -24.15 3.4 -24.5 3.35 -25.05 Q2.2 -24.5 1.0 -23.4 L0.7 -23.35 0.4 -23.5 0.1 -23.9"/>
    </path>
  </g>
</svg>
