<?xml version="1.0" encoding="UTF-8" standalone="no"?>
<svg xmlns:xlink="http://www.w3.org/1999/xlink" height="13.0px" width="15.0px" xmlns="http://www.w3.org/2000/svg">
  <g transform="matrix(1.0, 0.0, 0.0, 1.0, -7.4, 29.4)">
    <path d="M7.45 -16.7 L7.45 -16.7 7.8 -16.5 8.0 -16.4 8.0 -16.4 8.25 -16.45 8.45 -16.55 8.55 -16.75 8.65 -16.85 8.65 -16.95 8.65 -16.95 8.7 -16.95 8.9 -16.85 9.0 -16.75 9.25 -16.65 9.55 -16.85 9.65 -16.85 9.75 -16.85 9.85 -16.85 9.95 -16.85 10.35 -17.0 10.5 -17.15 10.5 -17.15 10.8 -17.5 Q11.5 -17.55 12.1 -17.9 L12.4 -17.75 12.7 -17.45 12.7 -17.45 12.95 -17.1 14.0 -17.15 14.1 -17.25 14.6 -17.35 15.0 -17.45 15.15 -17.55 15.15 -17.6 15.35 -17.95 Q14.9 -18.35 14.5 -18.7 L14.3 -18.8 14.2 -18.8 14.0 -18.8 13.7 -18.8 13.35 -18.75 13.35 -18.75 13.35 -18.95 13.35 -19.05 13.35 -19.15 13.2 -19.3 13.05 -19.4 12.75 -19.65 12.55 -19.55 11.6 -19.0 11.2 -18.85 11.0 -18.85 10.8 -18.85 10.6 -18.85 10.4 -18.9 10.2 -19.0 10.1 -19.0 10.1 -19.2 10.1 -19.4 10.05 -19.45 9.95 -19.55 9.95 -19.55 9.85 -19.65 9.5 -19.9 8.9 -19.65 8.9 -19.65 8.5 -19.35 8.4 -19.25 8.15 -18.95 7.95 -18.75 Q7.2 -17.85 7.45 -16.7" fill="#000000" fill-rule="evenodd" stroke="none">
      <animate attributeName="fill" dur="2s" repeatCount="indefinite" values="#000000;#000001"/>
      <animate attributeName="fill-opacity" dur="2s" repeatCount="indefinite" values="1.0;1.0"/>
      <animate attributeName="d" dur="2s" repeatCount="indefinite" values="M7.45 -16.7 L7.45 -16.7 7.8 -16.5 8.0 -16.4 8.0 -16.4 8.25 -16.45 8.45 -16.55 8.55 -16.75 8.65 -16.85 8.65 -16.95 8.65 -16.95 8.7 -16.95 8.9 -16.85 9.0 -16.75 9.25 -16.65 9.55 -16.85 9.65 -16.85 9.75 -16.85 9.85 -16.85 9.95 -16.85 10.35 -17.0 10.5 -17.15 10.5 -17.15 10.8 -17.5 Q11.5 -17.55 12.1 -17.9 L12.4 -17.75 12.7 -17.45 12.7 -17.45 12.95 -17.1 14.0 -17.15 14.1 -17.25 14.6 -17.35 15.0 -17.45 15.15 -17.55 15.15 -17.6 15.35 -17.95 Q14.9 -18.35 14.5 -18.7 L14.3 -18.8 14.2 -18.8 14.0 -18.8 13.7 -18.8 13.35 -18.75 13.35 -18.75 13.35 -18.95 13.35 -19.05 13.35 -19.15 13.2 -19.3 13.05 -19.4 12.75 -19.65 12.55 -19.55 11.6 -19.0 11.2 -18.85 11.0 -18.85 10.8 -18.85 10.6 -18.85 10.4 -18.9 10.2 -19.0 10.1 -19.0 10.1 -19.2 10.1 -19.4 10.05 -19.45 9.95 -19.55 9.95 -19.55 9.85 -19.65 9.5 -19.9 8.9 -19.65 8.9 -19.65 8.5 -19.35 8.4 -19.25 8.15 -18.95 7.95 -18.75 Q7.2 -17.85 7.45 -16.7;M12.6 -26.9 L12.8 -26.65 13.25 -26.4 13.55 -26.45 13.55 -26.45 14.0 -26.55 14.35 -26.75 14.7 -27.05 14.8 -27.2 14.85 -27.0 14.85 -26.85 14.85 -26.85 14.9 -26.65 14.95 -26.45 15.3 -26.25 15.5 -26.15 15.6 -26.05 15.65 -25.9 15.7 -25.7 15.9 -25.55 16.8 -25.45 17.1 -25.75 17.1 -25.75 17.6 -25.7 Q18.45 -25.85 19.25 -25.95 L19.45 -26.05 19.65 -26.45 19.65 -26.45 20.05 -27.0 21.5 -27.15 21.65 -27.25 22.0 -27.5 22.4 -28.1 22.35 -28.4 22.35 -28.4 21.85 -28.85 Q21.15 -29.2 20.35 -28.5 L20.15 -28.5 20.0 -28.55 19.8 -28.75 19.5 -28.9 19.15 -28.7 19.15 -28.7 19.05 -28.5 18.85 -28.4 18.85 -28.3 18.85 -28.1 18.85 -27.8 18.75 -27.45 18.6 -27.25 17.55 -27.2 16.85 -27.2 16.85 -27.4 16.85 -27.55 16.8 -27.75 16.65 -27.95 16.5 -28.15 16.5 -28.15 16.6 -28.3 16.6 -28.5 16.6 -28.7 16.6 -28.8 16.6 -28.9 16.5 -29.05 16.15 -29.35 15.5 -29.4 15.5 -29.35 15.15 -29.2 15.0 -29.15 14.85 -28.75 14.75 -28.55 Q13.15 -28.1 12.6 -26.9"/>
    </path>
    <path d="M7.45 -16.7 Q7.2 -17.85 7.95 -18.75 L8.15 -18.95 8.4 -19.25 8.5 -19.35 8.9 -19.65 8.9 -19.65 9.5 -19.9 9.85 -19.65 9.95 -19.55 9.95 -19.55 10.05 -19.45 10.1 -19.4 10.1 -19.2 10.1 -19.0 10.2 -19.0 10.4 -18.9 10.6 -18.85 10.8 -18.85 11.0 -18.85 11.2 -18.85 11.6 -19.0 12.55 -19.55 12.75 -19.65 13.05 -19.4 13.2 -19.3 13.35 -19.15 13.35 -19.05 13.35 -18.95 13.35 -18.75 13.35 -18.75 13.7 -18.8 14.0 -18.8 14.2 -18.8 14.3 -18.8 14.5 -18.7 Q14.9 -18.35 15.35 -17.95 L15.15 -17.6 15.15 -17.55 15.0 -17.45 14.6 -17.35 14.1 -17.25 14.0 -17.15 12.95 -17.1 12.7 -17.45 12.7 -17.45 12.4 -17.75 12.1 -17.9 Q11.5 -17.55 10.8 -17.5 L10.5 -17.15 10.5 -17.15 10.35 -17.0 9.95 -16.85 9.85 -16.85 9.75 -16.85 9.65 -16.85 9.55 -16.85 9.25 -16.65 9.0 -16.75 8.9 -16.85 8.7 -16.95 8.65 -16.95 8.65 -16.95 8.65 -16.85 8.55 -16.75 8.45 -16.55 8.25 -16.45 8.0 -16.4 8.0 -16.4 7.8 -16.5 7.45 -16.7 7.45 -16.7" fill="none" stroke="#000000" stroke-linecap="round" stroke-linejoin="round" stroke-opacity="0.0" stroke-width="1.0">
      <animate attributeName="stroke" dur="2s" repeatCount="indefinite" values="#000000;#000001"/>
      <animate attributeName="stroke-width" dur="2s" repeatCount="indefinite" values="0.0;0.0"/>
      <animate attributeName="fill-opacity" dur="2s" repeatCount="indefinite" values="0.0;0.0"/>
      <animate attributeName="d" dur="2s" repeatCount="indefinite" values="M7.45 -16.7 Q7.2 -17.85 7.95 -18.75 L8.15 -18.95 8.4 -19.25 8.5 -19.35 8.9 -19.65 8.9 -19.65 9.5 -19.9 9.85 -19.65 9.95 -19.55 9.95 -19.55 10.05 -19.45 10.1 -19.4 10.1 -19.2 10.1 -19.0 10.2 -19.0 10.4 -18.9 10.6 -18.85 10.8 -18.85 11.0 -18.85 11.2 -18.85 11.6 -19.0 12.55 -19.55 12.75 -19.65 13.05 -19.4 13.2 -19.3 13.35 -19.15 13.35 -19.05 13.35 -18.95 13.35 -18.75 13.35 -18.75 13.7 -18.8 14.0 -18.8 14.2 -18.8 14.3 -18.8 14.5 -18.7 Q14.9 -18.35 15.35 -17.95 L15.15 -17.6 15.15 -17.55 15.0 -17.45 14.6 -17.35 14.1 -17.25 14.0 -17.15 12.95 -17.1 12.7 -17.45 12.7 -17.45 12.4 -17.75 12.1 -17.9 Q11.5 -17.55 10.8 -17.5 L10.5 -17.15 10.5 -17.15 10.35 -17.0 9.95 -16.85 9.85 -16.85 9.75 -16.85 9.65 -16.85 9.55 -16.85 9.25 -16.65 9.0 -16.75 8.9 -16.85 8.7 -16.95 8.65 -16.95 8.65 -16.95 8.65 -16.85 8.55 -16.75 8.45 -16.55 8.25 -16.45 8.0 -16.4 8.0 -16.4 7.8 -16.5 7.45 -16.7 7.45 -16.7;M12.6 -26.9 Q13.15 -28.1 14.75 -28.55 L14.85 -28.75 15.0 -29.15 15.15 -29.2 15.5 -29.35 15.5 -29.4 16.15 -29.35 16.5 -29.05 16.6 -28.9 16.6 -28.8 16.6 -28.7 16.6 -28.5 16.6 -28.3 16.5 -28.15 16.5 -28.15 16.65 -27.95 16.8 -27.75 16.85 -27.55 16.85 -27.4 16.85 -27.2 17.55 -27.2 18.6 -27.25 18.75 -27.45 18.85 -27.8 18.85 -28.1 18.85 -28.3 18.85 -28.4 19.05 -28.5 19.15 -28.7 19.15 -28.7 19.5 -28.9 19.8 -28.75 20.0 -28.55 20.15 -28.5 20.35 -28.5 Q21.15 -29.2 21.85 -28.85 L22.35 -28.4 22.35 -28.4 22.4 -28.1 22.0 -27.5 21.65 -27.25 21.5 -27.15 20.05 -27.0 19.65 -26.45 19.65 -26.45 19.45 -26.05 19.25 -25.95 Q18.45 -25.85 17.6 -25.7 L17.1 -25.75 17.1 -25.75 16.8 -25.45 15.9 -25.55 15.7 -25.7 15.65 -25.9 15.6 -26.05 15.5 -26.15 15.3 -26.25 14.95 -26.45 14.9 -26.65 14.85 -26.85 14.85 -26.85 14.85 -27.0 14.8 -27.2 14.7 -27.05 14.35 -26.75 14.0 -26.55 13.55 -26.45 13.55 -26.45 13.25 -26.4 12.8 -26.65 12.6 -26.9"/>
    </path>
  </g>
</svg>
