<?xml version="1.0" encoding="UTF-8" standalone="no"?>
<svg xmlns:xlink="http://www.w3.org/1999/xlink" height="13.6px" width="8.0px" xmlns="http://www.w3.org/2000/svg">
  <g transform="matrix(1.0, 0.0, 0.0, 1.0, 16.65, 11.15)">
    <path d="M-16.65 -0.45 L-16.6 -0.25 -16.6 -0.05 -16.55 0.15 -16.55 0.3 -16.2 0.5 -16.0 0.6 -15.7 0.5 -15.4 0.3 -15.4 0.4 -15.35 0.7 -15.3 0.9 -15.3 1.05 -14.8 1.35 -14.7 1.45 -14.7 1.45 -14.3 1.95 -14.2 1.95 -14.0 2.0 -13.35 1.9 -13.1 1.6 -13.0 1.45 -12.8 1.1 -12.8 1.0 -12.65 0.8 -12.25 0.9 -12.15 1.0 -12.05 1.2 -11.95 1.5 -11.95 1.5 -11.8 1.8 Q-11.2 2.75 -10.0 2.35 L-9.9 2.2 -9.65 1.45 -9.85 0.85 -10.3 0.45 -10.5 0.35 -10.75 0.35 -10.85 0.35 -10.9 0.3 -10.9 0.3 -11.35 -0.35 -11.7 -0.55 -11.8 -0.55 Q-11.85 -0.75 -11.85 -0.95 L-11.85 -1.05 -11.85 -1.4 -11.9 -1.9 Q-12.55 -2.8 -13.4 -2.0 L-13.4 -2.0 -13.35 -1.65 Q-13.3 -1.3 -13.5 -1.05 L-13.75 -0.85 -13.9 -0.7 -13.85 -0.3 Q-13.8 -0.1 -13.9 0.0 L-14.0 0.1 -14.0 0.0 -14.1 -0.2 -14.15 -0.8 -14.15 -1.0 -14.15 -1.7 -14.15 -1.8 -14.15 -1.9 -14.25 -2.05 -14.35 -2.15 -14.75 -2.4 -14.75 -2.35 -15.0 -2.3 -15.15 -2.25 -16.65 -0.45" fill="#000000" fill-rule="evenodd" stroke="none">
      <animate attributeName="fill" dur="2s" repeatCount="indefinite" values="#000000;#000001"/>
      <animate attributeName="fill-opacity" dur="2s" repeatCount="indefinite" values="1.0;1.0"/>
      <animate attributeName="d" dur="2s" repeatCount="indefinite" values="M-16.65 -0.45 L-16.6 -0.25 -16.6 -0.05 -16.55 0.15 -16.55 0.3 -16.2 0.5 -16.0 0.6 -15.7 0.5 -15.4 0.3 -15.4 0.4 -15.35 0.7 -15.3 0.9 -15.3 1.05 -14.8 1.35 -14.7 1.45 -14.7 1.45 -14.3 1.95 -14.2 1.95 -14.0 2.0 -13.35 1.9 -13.1 1.6 -13.0 1.45 -12.8 1.1 -12.8 1.0 -12.65 0.8 -12.25 0.9 -12.15 1.0 -12.05 1.2 -11.95 1.5 -11.95 1.5 -11.8 1.8 Q-11.2 2.75 -10.0 2.35 L-9.9 2.2 -9.65 1.45 -9.85 0.85 -10.3 0.45 -10.5 0.35 -10.75 0.35 -10.85 0.35 -10.9 0.3 -10.9 0.3 -11.35 -0.35 -11.7 -0.55 -11.8 -0.55 Q-11.85 -0.75 -11.85 -0.95 L-11.85 -1.05 -11.85 -1.4 -11.9 -1.9 Q-12.55 -2.8 -13.4 -2.0 L-13.4 -2.0 -13.35 -1.65 Q-13.3 -1.3 -13.5 -1.05 L-13.75 -0.85 -13.9 -0.7 -13.85 -0.3 Q-13.8 -0.1 -13.9 0.0 L-14.0 0.1 -14.0 0.0 -14.1 -0.2 -14.15 -0.8 -14.15 -1.0 -14.15 -1.7 -14.15 -1.8 -14.15 -1.9 -14.25 -2.05 -14.35 -2.15 -14.75 -2.4 -14.75 -2.35 -15.0 -2.3 -15.15 -2.25 -16.65 -0.45;M-15.9 -8.4 L-15.9 -8.4 -15.9 -8.2 -15.9 -8.0 -15.9 -7.75 -15.8 -7.45 -15.55 -7.35 -15.2 -7.15 -14.9 -7.3 -14.9 -7.3 -14.75 -7.4 -14.7 -7.55 -14.6 -7.8 -14.3 -8.15 -14.1 -8.0 -14.1 -8.0 -13.65 -7.8 -13.6 -7.65 -13.55 -7.45 -13.0 -7.15 -12.75 -7.2 -12.65 -7.25 -12.5 -7.4 -12.4 -7.6 -12.3 -7.8 -12.1 -8.1 -12.0 -8.2 -12.0 -8.3 -11.65 -8.35 -11.65 -8.3 -11.55 -8.0 Q-10.95 -6.75 -10.15 -6.55 L-9.85 -6.5 -9.1 -6.65 -8.65 -6.9 -8.65 -7.25 -8.65 -7.35 -8.65 -7.65 -8.65 -7.65 -8.75 -7.75 -8.75 -7.8 -9.25 -8.15 -9.45 -8.0 -9.45 -8.0 Q-9.65 -7.85 -9.8 -7.85 L-10.0 -7.9 -10.15 -8.1 -10.25 -8.5 Q-10.5 -9.25 -10.4 -10.15 L-10.4 -10.15 -10.65 -10.5 Q-11.05 -10.55 -11.45 -10.55 L-11.65 -10.4 -11.95 -10.2 -12.3 -9.85 Q-12.4 -9.75 -12.5 -9.65 L-12.5 -9.75 -12.6 -9.9 -12.6 -10.0 -12.65 -10.65 -12.75 -10.8 -13.25 -11.15 -13.25 -11.1 -13.35 -11.1 -13.45 -11.0 -13.65 -11.0 -13.95 -10.7 -13.95 -10.7 -14.05 -10.6 -14.35 -10.3 -15.9 -8.4"/>
    </path>
    <path d="M-16.65 -0.45 L-15.15 -2.25 -15.0 -2.3 -14.75 -2.35 -14.75 -2.4 -14.35 -2.15 -14.25 -2.05 -14.15 -1.9 -14.15 -1.8 -14.15 -1.7 -14.15 -1.0 -14.15 -0.8 -14.1 -0.2 -14.0 0.0 -14.0 0.1 -13.9 0.0 Q-13.8 -0.1 -13.85 -0.3 L-13.9 -0.7 -13.75 -0.85 -13.5 -1.05 Q-13.3 -1.3 -13.35 -1.65 L-13.4 -2.0 -13.4 -2.0 Q-12.55 -2.8 -11.9 -1.9 L-11.85 -1.4 -11.85 -1.05 -11.85 -0.95 Q-11.85 -0.75 -11.8 -0.55 L-11.7 -0.55 -11.35 -0.35 -10.9 0.3 -10.9 0.3 -10.85 0.35 -10.75 0.35 -10.5 0.35 -10.3 0.45 -9.85 0.85 -9.65 1.45 -9.9 2.2 -10.0 2.35 Q-11.2 2.75 -11.8 1.8 L-11.95 1.5 -11.95 1.5 -12.05 1.2 -12.15 1.0 -12.25 0.9 -12.65 0.8 -12.8 1.0 -12.8 1.1 -13.0 1.45 -13.1 1.6 -13.35 1.9 -14.0 2.0 -14.2 1.95 -14.3 1.95 -14.7 1.45 -14.7 1.45 -14.8 1.35 -15.3 1.05 -15.3 0.9 -15.35 0.7 -15.4 0.4 -15.4 0.3 -15.7 0.5 -16.0 0.6 -16.2 0.5 -16.55 0.3 -16.55 0.15 -16.6 -0.05 -16.6 -0.25 -16.65 -0.45" fill="none" stroke="#000000" stroke-linecap="round" stroke-linejoin="round" stroke-opacity="0.0" stroke-width="1.0">
      <animate attributeName="stroke" dur="2s" repeatCount="indefinite" values="#000000;#000001"/>
      <animate attributeName="stroke-width" dur="2s" repeatCount="indefinite" values="0.0;0.0"/>
      <animate attributeName="fill-opacity" dur="2s" repeatCount="indefinite" values="0.0;0.0"/>
      <animate attributeName="d" dur="2s" repeatCount="indefinite" values="M-16.65 -0.45 L-15.15 -2.25 -15.0 -2.3 -14.75 -2.35 -14.75 -2.4 -14.35 -2.15 -14.25 -2.05 -14.15 -1.9 -14.15 -1.8 -14.15 -1.7 -14.15 -1.0 -14.15 -0.8 -14.1 -0.2 -14.0 0.0 -14.0 0.1 -13.9 0.0 Q-13.8 -0.1 -13.85 -0.3 L-13.9 -0.7 -13.75 -0.85 -13.5 -1.05 Q-13.3 -1.3 -13.35 -1.65 L-13.4 -2.0 -13.4 -2.0 Q-12.55 -2.8 -11.9 -1.9 L-11.85 -1.4 -11.85 -1.05 -11.85 -0.95 Q-11.85 -0.75 -11.8 -0.55 L-11.7 -0.55 -11.35 -0.35 -10.9 0.3 -10.9 0.3 -10.85 0.35 -10.75 0.35 -10.5 0.35 -10.3 0.45 -9.85 0.85 -9.65 1.45 -9.9 2.2 -10.0 2.35 Q-11.2 2.75 -11.8 1.8 L-11.95 1.5 -11.95 1.5 -12.05 1.2 -12.15 1.0 -12.25 0.9 -12.65 0.8 -12.8 1.0 -12.8 1.1 -13.0 1.45 -13.1 1.6 -13.35 1.9 -14.0 2.0 -14.2 1.95 -14.3 1.95 -14.7 1.45 -14.7 1.45 -14.8 1.35 -15.3 1.05 -15.3 0.9 -15.35 0.7 -15.4 0.4 -15.4 0.3 -15.7 0.5 -16.0 0.6 -16.2 0.5 -16.55 0.3 -16.55 0.15 -16.6 -0.05 -16.6 -0.25 -16.65 -0.45;M-15.9 -8.4 L-14.35 -10.3 -14.05 -10.6 -13.95 -10.7 -13.95 -10.7 -13.65 -11.0 -13.45 -11.0 -13.35 -11.1 -13.25 -11.1 -13.25 -11.15 -12.75 -10.8 -12.65 -10.65 -12.6 -10.0 -12.6 -9.9 -12.5 -9.75 -12.5 -9.65 Q-12.4 -9.75 -12.3 -9.85 L-11.95 -10.2 -11.65 -10.4 -11.45 -10.55 Q-11.05 -10.55 -10.65 -10.5 L-10.4 -10.15 -10.4 -10.15 Q-10.5 -9.25 -10.25 -8.5 L-10.15 -8.1 -10.0 -7.9 -9.8 -7.85 Q-9.65 -7.85 -9.45 -8.0 L-9.45 -8.0 -9.25 -8.15 -8.75 -7.8 -8.75 -7.75 -8.65 -7.65 -8.65 -7.65 -8.65 -7.35 -8.65 -7.25 -8.65 -6.9 -9.1 -6.65 -9.85 -6.5 -10.15 -6.55 Q-10.95 -6.75 -11.55 -8.0 L-11.65 -8.3 -11.65 -8.35 -12.0 -8.3 -12.0 -8.2 -12.1 -8.1 -12.3 -7.8 -12.4 -7.6 -12.5 -7.4 -12.65 -7.25 -12.75 -7.2 -13.0 -7.15 -13.55 -7.45 -13.6 -7.65 -13.65 -7.8 -14.1 -8.0 -14.1 -8.0 -14.3 -8.15 -14.6 -7.8 -14.7 -7.55 -14.75 -7.4 -14.9 -7.3 -14.9 -7.3 -15.2 -7.15 -15.55 -7.35 -15.8 -7.45 -15.9 -7.75 -15.9 -8.0 -15.9 -8.2 -15.9 -8.4 -15.9 -8.4"/>
    </path>
  </g>
</svg>
