<?xml version="1.0" encoding="UTF-8" standalone="no"?>
<svg xmlns:xlink="http://www.w3.org/1999/xlink" height="11.55px" width="12.8px" xmlns="http://www.w3.org/2000/svg">
  <g transform="matrix(1.0, 0.0, 0.0, 1.0, -12.6, 36.9)">
    <path d="M12.6 -26.9 L12.6 -26.9 12.7 -26.75 12.95 -26.6 13.25 -26.4 13.55 -26.45 13.75 -26.45 Q14.35 -26.65 14.7 -27.1 L14.8 -27.2 14.85 -27.0 14.9 -26.65 14.9 -26.55 14.95 -26.45 15.15 -26.35 15.5 -26.15 15.6 -26.05 15.65 -25.9 15.7 -25.7 15.9 -25.55 Q16.3 -25.3 16.65 -25.4 L17.1 -25.75 17.2 -25.75 17.3 -25.7 Q18.1 -25.75 18.85 -25.8 L19.45 -26.05 19.55 -26.25 19.65 -26.45 19.85 -26.85 20.05 -27.0 21.0 -27.2 21.5 -27.15 22.0 -27.5 Q22.45 -27.8 22.35 -28.4 22.15 -28.6 21.95 -28.75 L21.25 -28.95 20.75 -28.8 20.35 -28.5 20.15 -28.5 20.0 -28.55 19.8 -28.75 19.5 -28.9 19.25 -28.7 19.15 -28.7 18.85 -28.4 18.85 -27.8 18.6 -27.25 17.7 -27.2 17.35 -27.2 16.85 -27.2 16.85 -27.4 16.85 -27.55 16.8 -27.75 16.65 -27.95 16.5 -28.15 16.6 -28.3 16.6 -28.7 16.6 -28.9 16.5 -29.05 Q16.1 -29.5 15.5 -29.4 L15.5 -29.35 15.15 -29.2 15.0 -29.15 14.85 -28.95 14.85 -28.85 14.85 -28.75 14.75 -28.55 Q14.0 -28.35 13.5 -27.95 13.05 -27.4 12.6 -26.9" fill="#000000" fill-rule="evenodd" stroke="none">
      <animate attributeName="fill" dur="2s" repeatCount="indefinite" values="#000000;#000001"/>
      <animate attributeName="fill-opacity" dur="2s" repeatCount="indefinite" values="1.0;1.0"/>
      <animate attributeName="d" dur="2s" repeatCount="indefinite" values="M12.6 -26.9 L12.6 -26.9 12.7 -26.75 12.95 -26.6 13.25 -26.4 13.55 -26.45 13.75 -26.45 Q14.35 -26.65 14.7 -27.1 L14.8 -27.2 14.85 -27.0 14.9 -26.65 14.9 -26.55 14.95 -26.45 15.15 -26.35 15.5 -26.15 15.6 -26.05 15.65 -25.9 15.7 -25.7 15.9 -25.55 Q16.3 -25.3 16.65 -25.4 L17.1 -25.75 17.2 -25.75 17.3 -25.7 Q18.1 -25.75 18.85 -25.8 L19.45 -26.05 19.55 -26.25 19.65 -26.45 19.85 -26.85 20.05 -27.0 21.0 -27.2 21.5 -27.15 22.0 -27.5 Q22.45 -27.8 22.35 -28.4 22.15 -28.6 21.95 -28.75 L21.25 -28.95 20.75 -28.8 20.35 -28.5 20.15 -28.5 20.0 -28.55 19.8 -28.75 19.5 -28.9 19.25 -28.7 19.15 -28.7 18.85 -28.4 18.85 -27.8 18.6 -27.25 17.7 -27.2 17.35 -27.2 16.85 -27.2 16.85 -27.4 16.85 -27.55 16.8 -27.75 16.65 -27.95 16.5 -28.15 16.6 -28.3 16.6 -28.7 16.6 -28.9 16.5 -29.05 Q16.1 -29.5 15.5 -29.4 L15.5 -29.35 15.15 -29.2 15.0 -29.15 14.85 -28.95 14.85 -28.85 14.85 -28.75 14.75 -28.55 Q14.0 -28.35 13.5 -27.95 13.05 -27.4 12.6 -26.9;M19.6 -35.9 L19.6 -35.6 19.6 -35.6 19.6 -35.5 19.65 -35.3 19.7 -35.1 19.7 -34.95 Q20.0 -34.8 20.25 -34.65 L20.35 -34.65 20.4 -34.65 20.5 -34.7 20.5 -34.7 20.6 -34.7 20.6 -34.75 20.75 -34.9 20.85 -34.9 20.85 -34.9 20.85 -35.0 20.85 -35.05 Q20.95 -35.15 21.05 -35.25 L21.35 -35.25 21.55 -35.05 21.6 -34.9 Q21.75 -34.4 22.25 -34.4 L22.45 -34.5 22.55 -34.55 22.65 -34.6 22.75 -34.7 22.85 -34.8 22.95 -35.2 23.25 -34.95 23.85 -34.4 Q24.1 -34.25 24.3 -34.1 24.5 -33.95 24.75 -33.9 L25.0 -33.95 25.2 -34.05 25.4 -34.35 25.4 -34.45 25.4 -34.45 25.4 -34.55 25.35 -34.85 25.25 -35.15 25.25 -35.15 25.25 -35.2 24.9 -35.6 24.55 -35.85 24.0 -35.95 23.85 -36.1 23.85 -36.1 23.8 -36.1 23.7 -36.2 23.6 -36.2 23.5 -36.2 23.4 -36.3 23.2 -36.4 22.95 -36.5 22.85 -36.6 22.75 -36.65 Q22.4 -36.75 22.05 -36.8 L21.95 -36.8 21.65 -36.9 21.55 -36.9 21.25 -36.9 21.25 -36.85 21.15 -36.85 21.05 -36.75 Q20.6 -36.6 20.2 -36.5 19.75 -36.35 19.6 -35.9"/>
    </path>
    <path d="M12.6 -26.9 Q13.05 -27.4 13.5 -27.95 14.0 -28.35 14.75 -28.55 L14.85 -28.75 14.85 -28.85 14.85 -28.95 15.0 -29.15 15.15 -29.2 15.5 -29.35 15.5 -29.4 Q16.1 -29.5 16.5 -29.05 L16.6 -28.9 16.6 -28.7 16.6 -28.3 16.5 -28.15 16.65 -27.95 16.8 -27.75 16.85 -27.55 16.85 -27.4 16.85 -27.2 17.35 -27.2 17.7 -27.2 18.6 -27.25 18.85 -27.8 18.85 -28.4 19.15 -28.7 19.25 -28.7 19.5 -28.9 19.8 -28.75 20.0 -28.55 20.15 -28.5 20.35 -28.5 20.75 -28.8 21.25 -28.95 21.95 -28.75 Q22.15 -28.6 22.35 -28.4 22.45 -27.8 22.0 -27.5 L21.5 -27.15 21.0 -27.2 20.05 -27.0 19.85 -26.85 19.65 -26.45 19.55 -26.25 19.45 -26.05 18.85 -25.8 Q18.1 -25.75 17.3 -25.7 L17.2 -25.75 17.1 -25.75 16.65 -25.4 Q16.3 -25.3 15.9 -25.55 L15.7 -25.7 15.65 -25.9 15.6 -26.05 15.5 -26.15 15.15 -26.35 14.95 -26.45 14.9 -26.55 14.9 -26.65 14.85 -27.0 14.8 -27.2 14.7 -27.1 Q14.35 -26.65 13.75 -26.45 L13.55 -26.45 13.25 -26.4 12.95 -26.6 12.7 -26.75 12.6 -26.9 12.6 -26.9" fill="none" stroke="#000000" stroke-linecap="round" stroke-linejoin="round" stroke-opacity="0.0" stroke-width="1.0">
      <animate attributeName="stroke" dur="2s" repeatCount="indefinite" values="#000000;#000001"/>
      <animate attributeName="stroke-width" dur="2s" repeatCount="indefinite" values="0.0;0.0"/>
      <animate attributeName="fill-opacity" dur="2s" repeatCount="indefinite" values="0.0;0.0"/>
      <animate attributeName="d" dur="2s" repeatCount="indefinite" values="M12.6 -26.9 Q13.05 -27.4 13.5 -27.95 14.0 -28.35 14.75 -28.55 L14.85 -28.75 14.85 -28.85 14.85 -28.95 15.0 -29.15 15.15 -29.2 15.5 -29.35 15.5 -29.4 Q16.1 -29.5 16.5 -29.05 L16.6 -28.9 16.6 -28.7 16.6 -28.3 16.5 -28.15 16.65 -27.95 16.8 -27.75 16.85 -27.55 16.85 -27.4 16.85 -27.2 17.35 -27.2 17.7 -27.2 18.6 -27.25 18.85 -27.8 18.85 -28.4 19.15 -28.7 19.25 -28.7 19.5 -28.9 19.8 -28.75 20.0 -28.55 20.15 -28.5 20.35 -28.5 20.75 -28.8 21.25 -28.95 21.95 -28.75 Q22.15 -28.6 22.35 -28.4 22.45 -27.8 22.0 -27.5 L21.5 -27.15 21.0 -27.2 20.05 -27.0 19.85 -26.85 19.65 -26.45 19.55 -26.25 19.45 -26.05 18.85 -25.8 Q18.1 -25.75 17.3 -25.7 L17.2 -25.75 17.1 -25.75 16.65 -25.4 Q16.3 -25.3 15.9 -25.55 L15.7 -25.7 15.65 -25.9 15.6 -26.05 15.5 -26.15 15.15 -26.35 14.95 -26.45 14.9 -26.55 14.9 -26.65 14.85 -27.0 14.8 -27.2 14.7 -27.1 Q14.35 -26.65 13.75 -26.45 L13.55 -26.45 13.25 -26.4 12.95 -26.6 12.7 -26.75 12.6 -26.9 12.6 -26.9;M19.6 -35.9 Q19.75 -36.35 20.2 -36.5 20.6 -36.6 21.05 -36.75 L21.15 -36.85 21.25 -36.85 21.25 -36.9 21.55 -36.9 21.65 -36.9 21.95 -36.8 22.05 -36.8 Q22.4 -36.75 22.75 -36.65 L22.85 -36.6 22.95 -36.5 23.2 -36.4 23.4 -36.3 23.5 -36.2 23.6 -36.2 23.7 -36.2 23.8 -36.1 23.85 -36.1 23.85 -36.1 24.0 -35.95 24.55 -35.85 24.9 -35.6 25.25 -35.2 25.25 -35.15 25.25 -35.15 25.35 -34.85 25.4 -34.55 25.4 -34.45 25.4 -34.45 25.4 -34.35 25.2 -34.05 25.0 -33.95 24.75 -33.9 Q24.5 -33.95 24.3 -34.1 24.1 -34.25 23.85 -34.4 L23.25 -34.95 22.95 -35.2 22.85 -34.8 22.75 -34.7 22.65 -34.6 22.55 -34.55 22.45 -34.5 22.25 -34.4 Q21.75 -34.4 21.6 -34.9 L21.55 -35.05 21.35 -35.25 21.05 -35.25 Q20.95 -35.15 20.85 -35.05 L20.85 -35.0 20.85 -34.9 20.85 -34.9 20.75 -34.9 20.6 -34.75 20.6 -34.7 20.5 -34.7 20.5 -34.7 20.4 -34.65 20.35 -34.65 20.25 -34.65 Q20.0 -34.8 19.7 -34.95 L19.7 -35.1 19.65 -35.3 19.6 -35.5 19.6 -35.6 19.6 -35.6 19.6 -35.9"/>
    </path>
  </g>
</svg>
