<?xml version="1.0" encoding="UTF-8" standalone="no"?>
<svg xmlns:xlink="http://www.w3.org/1999/xlink" height="10.5px" width="13.25px" xmlns="http://www.w3.org/2000/svg">
  <g transform="matrix(1.0, 0.0, 0.0, 1.0, -17.1, 10.15)">
    <path d="M17.1 -0.65 L17.35 -0.35 17.7 -0.15 18.1 -0.1 18.7 -0.3 18.7 -0.3 18.9 -0.6 18.9 -0.7 19.05 -1.0 19.15 -0.75 19.15 -0.65 19.2 -0.45 19.55 -0.15 19.9 -0.15 20.0 -0.15 20.2 -0.25 20.8 -0.75 21.1 -1.0 21.1 -1.0 Q21.75 -1.05 22.35 -1.05 L22.7 -1.15 22.85 -1.25 22.7 -0.95 22.7 -0.85 Q22.55 -0.4 22.7 0.05 L23.0 0.25 23.25 0.35 23.55 0.25 24.05 0.2 24.5 0.35 24.5 0.35 24.75 0.3 24.85 0.25 25.05 -0.05 25.1 -0.25 24.7 -0.95 24.4 -1.3 24.3 -1.4 24.4 -1.65 24.45 -1.75 Q24.7 -2.25 24.6 -2.9 L24.45 -3.05 24.0 -3.4 24.0 -3.35 23.75 -3.3 23.6 -3.25 22.9 -2.75 22.6 -2.6 22.2 -2.55 22.0 -2.55 Q21.6 -2.7 21.25 -2.85 20.8 -2.75 20.35 -2.65 L20.35 -2.65 20.25 -2.75 20.2 -2.8 19.75 -3.15 19.55 -3.05 19.55 -3.05 19.45 -2.95 19.2 -2.8 19.0 -2.7 17.8 -1.45 17.5 -1.3 Q17.05 -1.1 17.1 -0.65" fill="#000000" fill-rule="evenodd" stroke="none">
      <animate attributeName="fill" dur="2s" repeatCount="indefinite" values="#000000;#000001"/>
      <animate attributeName="fill-opacity" dur="2s" repeatCount="indefinite" values="1.0;1.0"/>
      <animate attributeName="d" dur="2s" repeatCount="indefinite" values="M17.1 -0.65 L17.35 -0.35 17.7 -0.15 18.1 -0.1 18.7 -0.3 18.7 -0.3 18.9 -0.6 18.9 -0.7 19.05 -1.0 19.15 -0.75 19.15 -0.65 19.2 -0.45 19.55 -0.15 19.9 -0.15 20.0 -0.15 20.2 -0.25 20.8 -0.75 21.1 -1.0 21.1 -1.0 Q21.75 -1.05 22.35 -1.05 L22.7 -1.15 22.85 -1.25 22.7 -0.95 22.7 -0.85 Q22.55 -0.4 22.7 0.05 L23.0 0.25 23.25 0.35 23.55 0.25 24.05 0.2 24.5 0.35 24.5 0.35 24.75 0.3 24.85 0.25 25.05 -0.05 25.1 -0.25 24.7 -0.95 24.4 -1.3 24.3 -1.4 24.4 -1.65 24.45 -1.75 Q24.7 -2.25 24.6 -2.9 L24.45 -3.05 24.0 -3.4 24.0 -3.35 23.75 -3.3 23.6 -3.25 22.9 -2.75 22.6 -2.6 22.2 -2.55 22.0 -2.55 Q21.6 -2.7 21.25 -2.85 20.8 -2.75 20.35 -2.65 L20.35 -2.65 20.25 -2.75 20.2 -2.8 19.75 -3.15 19.55 -3.05 19.55 -3.05 19.45 -2.95 19.2 -2.8 19.0 -2.7 17.8 -1.45 17.5 -1.3 Q17.05 -1.1 17.1 -0.65;M22.35 -7.45 L22.35 -7.45 22.4 -7.05 22.45 -6.7 23.0 -6.4 23.05 -6.4 23.35 -6.55 23.55 -6.75 23.85 -7.1 23.95 -7.2 24.15 -7.1 24.3 -7.0 24.5 -6.9 24.75 -6.95 24.85 -7.0 24.85 -7.0 25.1 -7.35 25.2 -7.5 25.2 -7.5 Q25.8 -8.05 26.1 -7.8 L26.1 -7.45 26.1 -7.2 26.2 -6.7 26.3 -6.6 Q26.7 -6.25 27.25 -6.45 L27.4 -6.6 27.6 -6.7 27.7 -6.9 27.6 -6.5 27.7 -5.95 28.0 -5.8 28.4 -5.65 28.55 -5.65 29.0 -5.65 29.2 -5.65 30.0 -5.95 30.15 -6.1 30.25 -6.2 30.35 -6.45 30.35 -6.45 Q29.8 -6.95 29.3 -7.45 L29.1 -7.65 28.6 -8.0 28.5 -8.0 28.3 -8.1 28.0 -8.25 27.35 -8.45 27.35 -8.75 27.35 -9.15 27.25 -9.3 Q27.0 -9.65 26.5 -9.65 26.1 -9.4 25.7 -9.45 L25.6 -9.45 25.6 -9.6 25.5 -9.7 25.15 -10.1 25.0 -10.15 25.0 -10.1 24.75 -10.05 24.6 -10.0 24.5 -9.9 23.15 -8.5 22.85 -8.15 Q22.6 -7.8 22.35 -7.45"/>
    </path>
    <path d="M17.1 -0.65 Q17.05 -1.1 17.5 -1.3 L17.8 -1.45 19.0 -2.7 19.2 -2.8 19.45 -2.95 19.55 -3.05 19.55 -3.05 19.75 -3.15 20.2 -2.8 20.25 -2.75 20.35 -2.65 20.35 -2.65 Q20.8 -2.75 21.25 -2.85 21.6 -2.7 22.0 -2.55 L22.2 -2.55 22.6 -2.6 22.9 -2.75 23.6 -3.25 23.75 -3.3 24.0 -3.35 24.0 -3.4 24.45 -3.05 24.6 -2.9 Q24.7 -2.25 24.45 -1.75 L24.4 -1.65 24.3 -1.4 24.4 -1.3 24.7 -0.95 25.1 -0.25 25.05 -0.05 24.85 0.25 24.75 0.3 24.5 0.35 24.5 0.35 24.05 0.2 23.55 0.25 23.25 0.35 23.0 0.25 22.7 0.05 Q22.55 -0.4 22.7 -0.85 L22.7 -0.95 22.85 -1.25 22.7 -1.15 22.35 -1.05 Q21.75 -1.05 21.1 -1.0 L21.1 -1.0 20.8 -0.75 20.2 -0.25 20.0 -0.15 19.9 -0.15 19.55 -0.15 19.2 -0.45 19.15 -0.65 19.15 -0.75 19.05 -1.0 18.9 -0.7 18.9 -0.6 18.7 -0.3 18.7 -0.3 18.1 -0.1 17.7 -0.15 17.35 -0.35 17.1 -0.65" fill="none" stroke="#000000" stroke-linecap="round" stroke-linejoin="round" stroke-opacity="0.0" stroke-width="1.0">
      <animate attributeName="stroke" dur="2s" repeatCount="indefinite" values="#000000;#000001"/>
      <animate attributeName="stroke-width" dur="2s" repeatCount="indefinite" values="0.0;0.0"/>
      <animate attributeName="fill-opacity" dur="2s" repeatCount="indefinite" values="0.0;0.0"/>
      <animate attributeName="d" dur="2s" repeatCount="indefinite" values="M17.1 -0.65 Q17.05 -1.1 17.5 -1.3 L17.8 -1.45 19.0 -2.7 19.2 -2.8 19.45 -2.95 19.55 -3.05 19.55 -3.05 19.75 -3.15 20.2 -2.8 20.25 -2.75 20.35 -2.65 20.35 -2.65 Q20.8 -2.75 21.25 -2.85 21.6 -2.7 22.0 -2.55 L22.2 -2.55 22.6 -2.6 22.9 -2.75 23.6 -3.25 23.75 -3.3 24.0 -3.35 24.0 -3.4 24.45 -3.05 24.6 -2.9 Q24.7 -2.25 24.45 -1.75 L24.4 -1.65 24.3 -1.4 24.4 -1.3 24.7 -0.95 25.1 -0.25 25.05 -0.05 24.85 0.25 24.75 0.3 24.5 0.35 24.5 0.35 24.05 0.2 23.55 0.25 23.25 0.35 23.0 0.25 22.7 0.05 Q22.55 -0.4 22.7 -0.85 L22.7 -0.95 22.85 -1.25 22.7 -1.15 22.35 -1.05 Q21.75 -1.05 21.1 -1.0 L21.1 -1.0 20.8 -0.75 20.2 -0.25 20.0 -0.15 19.9 -0.15 19.55 -0.15 19.2 -0.45 19.15 -0.65 19.15 -0.75 19.05 -1.0 18.9 -0.7 18.9 -0.6 18.7 -0.3 18.7 -0.3 18.1 -0.1 17.7 -0.15 17.35 -0.35 17.1 -0.65;M22.35 -7.45 Q22.6 -7.8 22.85 -8.15 L23.15 -8.5 24.5 -9.9 24.6 -10.0 24.75 -10.05 25.0 -10.1 25.0 -10.15 25.15 -10.1 25.5 -9.7 25.6 -9.6 25.6 -9.45 25.7 -9.45 Q26.1 -9.4 26.5 -9.65 27.0 -9.65 27.25 -9.3 L27.35 -9.15 27.35 -8.75 27.35 -8.45 28.0 -8.25 28.3 -8.1 28.5 -8.0 28.6 -8.0 29.1 -7.65 29.3 -7.45 Q29.8 -6.95 30.35 -6.45 L30.35 -6.45 30.25 -6.2 30.15 -6.1 30.0 -5.95 29.2 -5.65 29.0 -5.65 28.55 -5.65 28.4 -5.65 28.0 -5.8 27.7 -5.95 27.6 -6.5 27.7 -6.9 27.6 -6.7 27.4 -6.6 27.25 -6.45 Q26.7 -6.25 26.3 -6.6 L26.2 -6.7 26.1 -7.2 26.1 -7.45 26.1 -7.8 Q25.8 -8.05 25.2 -7.5 L25.2 -7.5 25.1 -7.35 24.85 -7.0 24.85 -7.0 24.75 -6.95 24.5 -6.9 24.3 -7.0 24.15 -7.1 23.95 -7.2 23.85 -7.1 23.55 -6.75 23.35 -6.55 23.05 -6.4 23.0 -6.4 22.45 -6.7 22.4 -7.05 22.35 -7.45 22.35 -7.45"/>
    </path>
  </g>
</svg>
