<?xml version="1.0" encoding="UTF-8" standalone="no"?>
<svg xmlns:xlink="http://www.w3.org/1999/xlink" height="15.15px" width="9.75px" xmlns="http://www.w3.org/2000/svg">
  <g transform="matrix(1.0, 0.0, 0.0, 1.0, 15.9, 21.65)">
    <path d="M-15.9 -8.4 L-15.9 -8.0 -15.8 -7.55 -15.8 -7.45 -15.25 -7.15 -15.25 -7.15 -14.9 -7.3 -14.75 -7.4 -14.7 -7.55 -14.4 -8.05 -14.3 -8.15 -14.3 -8.15 -14.2 -8.1 -14.1 -8.0 -13.65 -7.8 -13.6 -7.65 -13.55 -7.45 -13.45 -7.45 -13.0 -7.15 -12.85 -7.2 -12.75 -7.2 -12.65 -7.25 -12.5 -7.4 -12.3 -7.7 -12.2 -7.9 -12.1 -8.2 -12.0 -8.3 -11.65 -8.35 -11.65 -8.35 -11.65 -8.3 -11.55 -8.0 Q-10.9 -6.5 -9.85 -6.5 -9.3 -6.5 -8.65 -6.9 L-8.65 -7.25 -8.65 -7.65 -8.75 -7.75 -8.75 -7.8 -9.25 -8.15 -9.4 -8.05 -9.45 -8.0 -9.55 -7.95 -10.0 -7.9 -10.0 -7.9 -10.15 -8.05 -10.15 -8.1 -10.15 -8.2 -10.25 -8.3 Q-10.5 -9.15 -10.4 -10.15 L-10.7 -10.5 -10.85 -10.6 -11.05 -10.65 -11.25 -10.65 -12.4 -9.75 -12.5 -9.65 -12.5 -9.75 -12.6 -9.9 -12.65 -10.2 -12.65 -10.4 -12.65 -10.5 -12.65 -10.65 -12.65 -10.65 -12.75 -10.8 -13.05 -11.0 -13.25 -11.15 -13.25 -11.1 -13.65 -11.0 -13.65 -11.0 Q-14.65 -9.85 -15.65 -8.7 L-15.75 -8.6 -15.9 -8.4" fill="#000000" fill-rule="evenodd" stroke="none">
      <animate attributeName="fill" dur="2s" repeatCount="indefinite" values="#000000;#000001"/>
      <animate attributeName="fill-opacity" dur="2s" repeatCount="indefinite" values="1.0;1.0"/>
      <animate attributeName="d" dur="2s" repeatCount="indefinite" values="M-15.9 -8.4 L-15.9 -8.0 -15.8 -7.55 -15.8 -7.45 -15.25 -7.15 -15.25 -7.15 -14.9 -7.3 -14.75 -7.4 -14.7 -7.55 -14.4 -8.05 -14.3 -8.15 -14.3 -8.15 -14.2 -8.1 -14.1 -8.0 -13.65 -7.8 -13.6 -7.65 -13.55 -7.45 -13.45 -7.45 -13.0 -7.15 -12.85 -7.2 -12.75 -7.2 -12.65 -7.25 -12.5 -7.4 -12.3 -7.7 -12.2 -7.9 -12.1 -8.2 -12.0 -8.3 -11.65 -8.35 -11.65 -8.35 -11.65 -8.3 -11.55 -8.0 Q-10.9 -6.5 -9.85 -6.5 -9.3 -6.5 -8.65 -6.9 L-8.65 -7.25 -8.65 -7.65 -8.75 -7.75 -8.75 -7.8 -9.25 -8.15 -9.4 -8.05 -9.45 -8.0 -9.55 -7.95 -10.0 -7.9 -10.0 -7.9 -10.15 -8.05 -10.15 -8.1 -10.15 -8.2 -10.25 -8.3 Q-10.5 -9.15 -10.4 -10.15 L-10.7 -10.5 -10.85 -10.6 -11.05 -10.65 -11.25 -10.65 -12.4 -9.75 -12.5 -9.65 -12.5 -9.75 -12.6 -9.9 -12.65 -10.2 -12.65 -10.4 -12.65 -10.5 -12.65 -10.65 -12.65 -10.65 -12.75 -10.8 -13.05 -11.0 -13.25 -11.15 -13.25 -11.1 -13.65 -11.0 -13.65 -11.0 Q-14.65 -9.85 -15.65 -8.7 L-15.75 -8.6 -15.9 -8.4;M-14.65 -17.9 L-14.35 -17.5 -14.0 -17.4 -13.9 -17.4 -13.45 -17.8 -13.45 -17.8 -13.2 -18.3 -13.0 -18.7 -12.9 -18.95 -12.7 -19.45 -12.65 -19.3 -12.6 -19.15 -12.6 -19.15 -12.55 -18.95 -11.9 -18.65 -11.9 -18.7 -11.75 -18.8 -11.75 -18.8 -11.2 -19.3 -10.9 -19.5 -10.7 -19.5 -10.5 -19.45 -10.2 -19.4 -9.95 -19.3 -9.85 -19.0 -9.75 -18.65 -9.65 -18.55 -9.5 -18.45 -9.4 -18.45 -9.4 -18.45 -9.1 -18.25 Q-8.05 -17.55 -8.05 -16.2 -7.35 -15.6 -6.65 -15.9 L-6.25 -16.15 -6.15 -16.55 -6.15 -16.7 -6.15 -16.7 -6.15 -17.4 -6.15 -17.65 -6.2 -17.7 -6.3 -17.8 -6.65 -18.05 -6.75 -18.15 -7.0 -18.1 -7.0 -18.1 -7.2 -18.05 -7.3 -18.2 Q-8.05 -19.05 -8.8 -19.85 L-9.05 -20.25 -9.1 -20.45 -9.15 -20.65 -9.3 -20.8 -10.5 -21.65 -10.6 -21.55 -10.75 -21.55 -10.85 -21.45 -11.15 -21.25 -11.35 -21.25 -11.5 -21.3 -11.6 -21.4 -11.7 -21.45 -11.8 -21.45 -12.25 -21.65 -12.35 -21.6 -12.35 -21.6 -12.65 -21.4 -12.65 -21.4 Q-14.0 -20.1 -14.45 -18.45 L-14.55 -18.25 -14.65 -17.9"/>
    </path>
    <path d="M-15.9 -8.4 L-15.75 -8.6 -15.65 -8.7 Q-14.65 -9.85 -13.65 -11.0 L-13.65 -11.0 -13.25 -11.1 -13.25 -11.15 -13.05 -11.0 -12.75 -10.8 -12.65 -10.65 -12.65 -10.65 -12.65 -10.5 -12.65 -10.4 -12.65 -10.2 -12.6 -9.9 -12.5 -9.75 -12.5 -9.65 -12.4 -9.75 -11.25 -10.65 -11.05 -10.65 -10.85 -10.6 -10.7 -10.5 -10.4 -10.15 Q-10.5 -9.15 -10.25 -8.3 L-10.15 -8.2 -10.15 -8.1 -10.15 -8.05 -10.0 -7.9 -10.0 -7.9 -9.55 -7.95 -9.45 -8.0 -9.4 -8.05 -9.25 -8.15 -8.75 -7.8 -8.75 -7.75 -8.65 -7.65 -8.65 -7.25 -8.65 -6.9 Q-9.3 -6.5 -9.85 -6.5 -10.9 -6.5 -11.55 -8.0 L-11.65 -8.3 -11.65 -8.35 -11.65 -8.35 -12.0 -8.3 -12.1 -8.2 -12.2 -7.9 -12.3 -7.7 -12.5 -7.4 -12.65 -7.25 -12.75 -7.2 -12.85 -7.2 -13.0 -7.15 -13.45 -7.45 -13.55 -7.45 -13.6 -7.65 -13.65 -7.8 -14.1 -8.0 -14.2 -8.1 -14.3 -8.15 -14.3 -8.15 -14.4 -8.05 -14.7 -7.55 -14.75 -7.4 -14.9 -7.3 -15.25 -7.15 -15.25 -7.15 -15.8 -7.45 -15.8 -7.55 -15.9 -8.0 -15.9 -8.4" fill="none" stroke="#000000" stroke-linecap="round" stroke-linejoin="round" stroke-opacity="0.0" stroke-width="1.0">
      <animate attributeName="stroke" dur="2s" repeatCount="indefinite" values="#000000;#000001"/>
      <animate attributeName="stroke-width" dur="2s" repeatCount="indefinite" values="0.0;0.0"/>
      <animate attributeName="fill-opacity" dur="2s" repeatCount="indefinite" values="0.0;0.0"/>
      <animate attributeName="d" dur="2s" repeatCount="indefinite" values="M-15.9 -8.4 L-15.75 -8.6 -15.65 -8.7 Q-14.65 -9.85 -13.65 -11.0 L-13.65 -11.0 -13.25 -11.1 -13.25 -11.15 -13.05 -11.0 -12.75 -10.8 -12.65 -10.65 -12.65 -10.65 -12.65 -10.5 -12.65 -10.4 -12.65 -10.2 -12.6 -9.9 -12.5 -9.75 -12.5 -9.65 -12.4 -9.75 -11.25 -10.65 -11.05 -10.65 -10.85 -10.6 -10.7 -10.5 -10.4 -10.15 Q-10.5 -9.15 -10.25 -8.3 L-10.15 -8.2 -10.15 -8.1 -10.15 -8.05 -10.0 -7.9 -10.0 -7.9 -9.55 -7.95 -9.45 -8.0 -9.4 -8.05 -9.25 -8.15 -8.75 -7.8 -8.75 -7.75 -8.65 -7.65 -8.65 -7.25 -8.65 -6.9 Q-9.3 -6.5 -9.85 -6.5 -10.9 -6.5 -11.55 -8.0 L-11.65 -8.3 -11.65 -8.35 -11.65 -8.35 -12.0 -8.3 -12.1 -8.2 -12.2 -7.9 -12.3 -7.7 -12.5 -7.4 -12.65 -7.25 -12.75 -7.2 -12.85 -7.2 -13.0 -7.15 -13.45 -7.45 -13.55 -7.45 -13.6 -7.65 -13.65 -7.8 -14.1 -8.0 -14.2 -8.1 -14.3 -8.15 -14.3 -8.15 -14.4 -8.05 -14.7 -7.55 -14.75 -7.4 -14.9 -7.3 -15.25 -7.15 -15.25 -7.15 -15.8 -7.45 -15.8 -7.55 -15.9 -8.0 -15.9 -8.4;M-14.65 -17.9 L-14.55 -18.25 -14.45 -18.45 Q-14.0 -20.1 -12.65 -21.4 L-12.65 -21.4 -12.35 -21.6 -12.35 -21.6 -12.25 -21.65 -11.8 -21.45 -11.7 -21.45 -11.6 -21.4 -11.5 -21.3 -11.35 -21.25 -11.15 -21.25 -10.85 -21.45 -10.75 -21.55 -10.6 -21.55 -10.5 -21.65 -9.3 -20.8 -9.15 -20.65 -9.1 -20.45 -9.05 -20.25 -8.8 -19.85 Q-8.05 -19.05 -7.3 -18.2 L-7.2 -18.05 -7.0 -18.1 -7.0 -18.1 -6.75 -18.15 -6.65 -18.05 -6.3 -17.8 -6.2 -17.7 -6.15 -17.65 -6.15 -17.4 -6.15 -16.7 -6.15 -16.7 -6.15 -16.55 -6.25 -16.15 -6.65 -15.9 Q-7.35 -15.6 -8.05 -16.2 -8.05 -17.55 -9.1 -18.25 L-9.4 -18.45 -9.4 -18.45 -9.5 -18.45 -9.65 -18.55 -9.75 -18.65 -9.85 -19.0 -9.95 -19.3 -10.2 -19.4 -10.5 -19.45 -10.7 -19.5 -10.9 -19.5 -11.2 -19.3 -11.75 -18.8 -11.75 -18.8 -11.9 -18.7 -11.9 -18.65 -12.55 -18.95 -12.6 -19.15 -12.6 -19.15 -12.65 -19.3 -12.7 -19.45 -12.9 -18.95 -13.0 -18.7 -13.2 -18.3 -13.45 -17.8 -13.45 -17.8 -13.9 -17.4 -14.0 -17.4 -14.35 -17.5 -14.65 -17.9"/>
    </path>
  </g>
</svg>
