<?xml version="1.0" encoding="UTF-8" standalone="no"?>
<svg xmlns:xlink="http://www.w3.org/1999/xlink" height="14.5px" width="13.5px" xmlns="http://www.w3.org/2000/svg">
  <g transform="matrix(1.0, 0.0, 0.0, 1.0, -22.35, 20.15)">
    <path d="M22.35 -7.45 L22.4 -6.95 22.45 -6.7 23.0 -6.4 23.15 -6.45 23.35 -6.55 23.95 -7.2 24.15 -7.1 24.25 -7.0 24.5 -6.9 24.75 -6.95 24.85 -6.95 24.85 -7.0 24.95 -7.1 25.1 -7.35 25.2 -7.45 25.2 -7.5 25.5 -7.7 25.8 -7.85 26.1 -7.8 26.1 -7.7 26.1 -7.45 26.1 -7.1 26.2 -6.7 Q26.5 -6.3 26.95 -6.35 L27.25 -6.45 27.3 -6.45 27.4 -6.6 27.5 -6.7 27.7 -6.9 27.7 -6.7 27.6 -6.5 27.6 -6.25 27.7 -5.95 27.7 -5.95 28.6 -5.65 30.0 -5.95 30.15 -6.1 30.35 -6.45 30.05 -6.85 Q29.25 -7.75 27.95 -8.25 L27.65 -8.35 27.35 -8.45 27.35 -8.75 27.35 -8.95 27.35 -9.15 27.15 -9.4 26.5 -9.65 26.3 -9.55 26.1 -9.5 25.6 -9.45 25.6 -9.6 25.6 -9.65 25.5 -9.75 25.15 -10.1 25.0 -10.15 25.0 -10.1 24.75 -10.05 24.6 -10.0 24.6 -9.9 24.5 -9.9 Q23.2 -8.8 22.35 -7.45" fill="#000000" fill-rule="evenodd" stroke="none">
      <animate attributeName="fill" dur="2s" repeatCount="indefinite" values="#000000;#000001"/>
      <animate attributeName="fill-opacity" dur="2s" repeatCount="indefinite" values="1.0;1.0"/>
      <animate attributeName="d" dur="2s" repeatCount="indefinite" values="M22.35 -7.45 L22.4 -6.95 22.45 -6.7 23.0 -6.4 23.15 -6.45 23.35 -6.55 23.95 -7.2 24.15 -7.1 24.25 -7.0 24.5 -6.9 24.75 -6.95 24.85 -6.95 24.85 -7.0 24.95 -7.1 25.1 -7.35 25.2 -7.45 25.2 -7.5 25.5 -7.7 25.8 -7.85 26.1 -7.8 26.1 -7.7 26.1 -7.45 26.1 -7.1 26.2 -6.7 Q26.5 -6.3 26.95 -6.35 L27.25 -6.45 27.3 -6.45 27.4 -6.6 27.5 -6.7 27.7 -6.9 27.7 -6.7 27.6 -6.5 27.6 -6.25 27.7 -5.95 27.7 -5.95 28.6 -5.65 30.0 -5.95 30.15 -6.1 30.35 -6.45 30.05 -6.85 Q29.25 -7.75 27.95 -8.25 L27.65 -8.35 27.35 -8.45 27.35 -8.75 27.35 -8.95 27.35 -9.15 27.15 -9.4 26.5 -9.65 26.3 -9.55 26.1 -9.5 25.6 -9.45 25.6 -9.6 25.6 -9.65 25.5 -9.75 25.15 -10.1 25.0 -10.15 25.0 -10.1 24.75 -10.05 24.6 -10.0 24.6 -9.9 24.5 -9.9 Q23.2 -8.8 22.35 -7.45;M29.1 -17.15 L29.1 -17.15 29.35 -16.75 29.85 -16.65 30.0 -16.65 30.3 -16.8 31.0 -17.15 31.1 -17.15 31.2 -16.95 31.4 -16.75 31.75 -16.55 31.85 -16.55 31.9 -16.4 31.95 -16.2 32.3 -16.0 32.5 -15.9 32.6 -15.9 32.85 -16.05 33.0 -16.15 33.05 -16.45 33.05 -16.5 33.15 -16.85 33.25 -17.05 33.8 -17.3 Q34.1 -17.1 34.35 -16.9 L34.35 -16.5 34.35 -16.5 34.4 -16.2 34.45 -15.95 34.8 -15.75 35.0 -15.65 35.15 -15.7 35.25 -15.7 35.45 -15.8 35.45 -15.8 35.75 -16.35 35.85 -17.55 35.85 -17.85 35.85 -18.35 35.85 -18.65 Q34.95 -19.45 33.6 -19.0 L33.5 -18.85 33.35 -18.6 33.1 -18.5 32.85 -18.5 32.85 -18.6 32.85 -18.9 32.85 -19.45 32.85 -19.65 32.7 -19.8 32.45 -20.0 32.35 -20.1 32.25 -20.15 32.25 -20.1 31.85 -20.0 31.55 -19.7 31.55 -19.7 31.45 -19.6 31.25 -19.35 31.15 -19.25 31.05 -19.15 Q30.05 -18.15 29.1 -17.15"/>
    </path>
    <path d="M22.35 -7.45 Q23.2 -8.8 24.5 -9.9 L24.6 -9.9 24.6 -10.0 24.75 -10.05 25.0 -10.1 25.0 -10.15 25.15 -10.1 25.5 -9.75 25.6 -9.65 25.6 -9.6 25.6 -9.45 26.1 -9.5 26.3 -9.55 26.5 -9.65 27.15 -9.4 27.35 -9.15 27.35 -8.95 27.35 -8.75 27.35 -8.45 27.65 -8.35 27.95 -8.25 Q29.25 -7.75 30.05 -6.85 L30.35 -6.45 30.15 -6.1 30.0 -5.95 28.6 -5.65 27.7 -5.95 27.7 -5.95 27.6 -6.25 27.6 -6.5 27.7 -6.7 27.7 -6.9 27.5 -6.7 27.4 -6.6 27.3 -6.45 27.25 -6.45 26.95 -6.35 Q26.5 -6.3 26.2 -6.7 L26.1 -7.1 26.1 -7.45 26.1 -7.7 26.1 -7.8 25.8 -7.85 25.5 -7.7 25.2 -7.5 25.2 -7.45 25.1 -7.35 24.95 -7.1 24.85 -7.0 24.85 -6.95 24.75 -6.95 24.5 -6.9 24.25 -7.0 24.15 -7.1 23.95 -7.2 23.35 -6.55 23.15 -6.45 23.0 -6.4 22.45 -6.7 22.4 -6.95 22.35 -7.45" fill="none" stroke="#000000" stroke-linecap="round" stroke-linejoin="round" stroke-opacity="0.0" stroke-width="1.0">
      <animate attributeName="stroke" dur="2s" repeatCount="indefinite" values="#000000;#000001"/>
      <animate attributeName="stroke-width" dur="2s" repeatCount="indefinite" values="0.0;0.0"/>
      <animate attributeName="fill-opacity" dur="2s" repeatCount="indefinite" values="0.0;0.0"/>
      <animate attributeName="d" dur="2s" repeatCount="indefinite" values="M22.35 -7.45 Q23.2 -8.8 24.5 -9.9 L24.6 -9.9 24.6 -10.0 24.75 -10.05 25.0 -10.1 25.0 -10.15 25.15 -10.1 25.5 -9.75 25.6 -9.65 25.6 -9.6 25.6 -9.45 26.1 -9.5 26.3 -9.55 26.5 -9.65 27.15 -9.4 27.35 -9.15 27.35 -8.95 27.35 -8.75 27.35 -8.45 27.65 -8.35 27.95 -8.25 Q29.25 -7.75 30.05 -6.85 L30.35 -6.45 30.15 -6.1 30.0 -5.95 28.6 -5.65 27.7 -5.95 27.7 -5.95 27.6 -6.25 27.6 -6.5 27.7 -6.7 27.7 -6.9 27.5 -6.7 27.4 -6.6 27.3 -6.45 27.25 -6.45 26.95 -6.35 Q26.5 -6.3 26.2 -6.7 L26.1 -7.1 26.1 -7.45 26.1 -7.7 26.1 -7.8 25.8 -7.85 25.5 -7.7 25.2 -7.5 25.2 -7.45 25.1 -7.35 24.95 -7.1 24.85 -7.0 24.85 -6.95 24.75 -6.95 24.5 -6.9 24.25 -7.0 24.15 -7.1 23.95 -7.2 23.35 -6.55 23.15 -6.45 23.0 -6.4 22.45 -6.7 22.4 -6.95 22.35 -7.45;M29.1 -17.15 Q30.05 -18.15 31.05 -19.15 L31.15 -19.25 31.25 -19.35 31.45 -19.6 31.55 -19.7 31.55 -19.7 31.85 -20.0 32.25 -20.1 32.25 -20.15 32.35 -20.1 32.45 -20.0 32.7 -19.8 32.85 -19.65 32.85 -19.45 32.85 -18.9 32.85 -18.6 32.85 -18.5 33.1 -18.5 33.35 -18.6 33.5 -18.85 33.6 -19.0 Q34.95 -19.45 35.85 -18.65 L35.85 -18.35 35.85 -17.85 35.85 -17.55 35.75 -16.35 35.45 -15.8 35.45 -15.8 35.25 -15.7 35.15 -15.7 35.0 -15.65 34.8 -15.75 34.45 -15.95 34.4 -16.2 34.35 -16.5 34.35 -16.5 34.35 -16.9 Q34.1 -17.1 33.8 -17.3 L33.25 -17.05 33.15 -16.85 33.05 -16.5 33.05 -16.45 33.0 -16.15 32.85 -16.05 32.6 -15.9 32.5 -15.9 32.3 -16.0 31.95 -16.2 31.9 -16.4 31.85 -16.55 31.75 -16.55 31.4 -16.75 31.2 -16.95 31.1 -17.15 31.0 -17.15 30.3 -16.8 30.0 -16.65 29.85 -16.65 29.35 -16.75 29.1 -17.15 29.1 -17.15"/>
    </path>
  </g>
</svg>
