<?xml version="1.0" encoding="UTF-8" standalone="no"?>
<svg xmlns:xlink="http://www.w3.org/1999/xlink" height="11.5px" width="8.5px" xmlns="http://www.w3.org/2000/svg">
  <g transform="matrix(1.0, 0.0, 0.0, 1.0, -37.85, 54.85)">
    <path d="M37.85 -45.45 L37.85 -45.45 37.9 -45.05 37.95 -44.7 38.25 -44.6 38.4 -44.5 38.5 -44.4 38.85 -44.55 39.0 -44.65 39.05 -44.8 39.3 -45.15 39.45 -45.35 39.55 -45.45 39.7 -45.55 40.05 -45.65 40.4 -45.75 40.6 -45.85 40.95 -46.0 41.3 -46.2 41.5 -46.4 42.05 -45.9 42.35 -45.75 42.35 -45.75 42.35 -45.2 42.35 -45.0 42.35 -44.6 42.45 -43.7 42.95 -43.4 43.15 -43.35 43.55 -43.4 44.05 -43.7 Q44.55 -43.65 45.05 -43.6 L45.25 -43.6 45.8 -43.7 46.0 -43.7 46.15 -43.85 46.35 -44.2 45.7 -44.9 45.35 -45.0 45.0 -45.05 44.8 -45.25 44.5 -45.4 44.3 -45.25 44.1 -45.2 43.6 -45.25 43.6 -45.4 43.6 -45.7 43.6 -45.8 43.6 -46.5 43.6 -46.85 43.6 -47.15 43.0 -47.65 42.8 -47.75 42.6 -47.75 42.6 -47.95 42.6 -48.15 42.6 -48.15 42.45 -48.3 42.35 -48.4 42.0 -48.65 42.0 -48.6 Q41.8 -48.5 41.6 -48.4 L41.5 -48.35 41.3 -48.25 41.1 -48.15 41.0 -48.05 40.8 -48.25 40.5 -48.4 40.4 -48.3 40.0 -47.9 Q38.9 -46.65 37.85 -45.45" fill="#000000" fill-rule="evenodd" stroke="none">
      <animate attributeName="fill" dur="2s" repeatCount="indefinite" values="#000000;#000001"/>
      <animate attributeName="fill-opacity" dur="2s" repeatCount="indefinite" values="1.0;1.0"/>
      <animate attributeName="d" dur="2s" repeatCount="indefinite" values="M37.85 -45.45 L37.85 -45.45 37.9 -45.05 37.95 -44.7 38.25 -44.6 38.4 -44.5 38.5 -44.4 38.85 -44.55 39.0 -44.65 39.05 -44.8 39.3 -45.15 39.45 -45.35 39.55 -45.45 39.7 -45.55 40.05 -45.65 40.4 -45.75 40.6 -45.85 40.95 -46.0 41.3 -46.2 41.5 -46.4 42.05 -45.9 42.35 -45.75 42.35 -45.75 42.35 -45.2 42.35 -45.0 42.35 -44.6 42.45 -43.7 42.95 -43.4 43.15 -43.35 43.55 -43.4 44.05 -43.7 Q44.55 -43.65 45.05 -43.6 L45.25 -43.6 45.8 -43.7 46.0 -43.7 46.15 -43.85 46.35 -44.2 45.7 -44.9 45.35 -45.0 45.0 -45.05 44.8 -45.25 44.5 -45.4 44.3 -45.25 44.1 -45.2 43.6 -45.25 43.6 -45.4 43.6 -45.7 43.6 -45.8 43.6 -46.5 43.6 -46.85 43.6 -47.15 43.0 -47.65 42.8 -47.75 42.6 -47.75 42.6 -47.95 42.6 -48.15 42.6 -48.15 42.45 -48.3 42.35 -48.4 42.0 -48.65 42.0 -48.6 Q41.8 -48.5 41.6 -48.4 L41.5 -48.35 41.3 -48.25 41.1 -48.15 41.0 -48.05 40.8 -48.25 40.5 -48.4 40.4 -48.3 40.0 -47.9 Q38.9 -46.65 37.85 -45.45;M38.1 -52.15 L38.3 -51.85 38.65 -51.6 39.05 -51.6 39.35 -51.75 39.45 -51.9 39.55 -52.0 39.85 -52.45 40.15 -52.65 40.45 -52.75 40.6 -52.75 40.6 -52.55 40.65 -52.4 40.7 -52.2 40.9 -52.05 41.35 -51.8 41.25 -51.65 41.1 -51.45 41.1 -51.05 41.1 -50.75 41.2 -49.95 41.4 -49.75 41.4 -49.75 41.8 -49.5 41.85 -49.5 41.85 -48.95 41.85 -47.85 41.95 -47.45 42.15 -47.3 42.6 -47.05 43.05 -46.7 Q43.45 -46.5 44.0 -46.7 L44.15 -46.85 44.35 -47.2 44.35 -47.2 44.25 -47.35 43.8 -48.05 43.1 -48.7 43.15 -49.05 43.25 -49.35 43.3 -49.55 43.35 -50.05 43.35 -50.4 43.25 -50.55 42.75 -50.9 42.55 -51.0 42.65 -51.2 42.65 -51.2 43.35 -52.15 43.35 -52.5 43.35 -52.8 43.35 -53.65 43.2 -53.8 43.2 -53.8 43.0 -54.0 42.85 -54.1 42.75 -54.15 42.65 -54.05 42.5 -54.05 42.2 -53.9 42.1 -53.9 Q41.95 -53.9 41.85 -54.0 L41.85 -54.2 41.85 -54.4 41.75 -54.55 41.75 -54.55 41.55 -54.7 41.2 -54.85 41.0 -54.85 40.6 -54.75 Q39.0 -53.6 38.1 -52.15"/>
    </path>
    <path d="M37.85 -45.45 Q38.9 -46.65 40.0 -47.9 L40.4 -48.3 40.5 -48.4 40.8 -48.25 41.0 -48.05 41.1 -48.15 41.3 -48.25 41.5 -48.35 41.6 -48.4 Q41.8 -48.5 42.0 -48.6 L42.0 -48.65 42.35 -48.4 42.45 -48.3 42.6 -48.15 42.6 -48.15 42.6 -47.95 42.6 -47.75 42.8 -47.75 43.0 -47.65 43.6 -47.15 43.6 -46.85 43.6 -46.5 43.6 -45.8 43.6 -45.7 43.6 -45.4 43.6 -45.25 44.1 -45.2 44.3 -45.25 44.5 -45.4 44.8 -45.25 45.0 -45.05 45.35 -45.0 45.7 -44.9 46.35 -44.2 46.15 -43.85 46.0 -43.7 45.8 -43.7 45.25 -43.6 45.05 -43.6 Q44.55 -43.65 44.05 -43.7 L43.55 -43.4 43.15 -43.35 42.95 -43.4 42.45 -43.7 42.35 -44.6 42.35 -45.0 42.35 -45.2 42.35 -45.75 42.35 -45.75 42.05 -45.9 41.5 -46.4 41.3 -46.2 40.95 -46.0 40.6 -45.85 40.4 -45.75 40.05 -45.65 39.7 -45.55 39.55 -45.45 39.45 -45.35 39.3 -45.15 39.05 -44.8 39.0 -44.65 38.85 -44.55 38.5 -44.4 38.4 -44.5 38.25 -44.6 37.95 -44.7 37.9 -45.05 37.85 -45.45 37.85 -45.45" fill="none" stroke="#000000" stroke-linecap="round" stroke-linejoin="round" stroke-opacity="0.0" stroke-width="1.0">
      <animate attributeName="stroke" dur="2s" repeatCount="indefinite" values="#000000;#000001"/>
      <animate attributeName="stroke-width" dur="2s" repeatCount="indefinite" values="0.0;0.0"/>
      <animate attributeName="fill-opacity" dur="2s" repeatCount="indefinite" values="0.0;0.0"/>
      <animate attributeName="d" dur="2s" repeatCount="indefinite" values="M37.85 -45.45 Q38.9 -46.65 40.0 -47.9 L40.4 -48.3 40.5 -48.4 40.8 -48.25 41.0 -48.05 41.1 -48.15 41.3 -48.25 41.5 -48.35 41.6 -48.4 Q41.8 -48.5 42.0 -48.6 L42.0 -48.65 42.35 -48.4 42.45 -48.3 42.6 -48.15 42.6 -48.15 42.6 -47.95 42.6 -47.75 42.8 -47.75 43.0 -47.65 43.6 -47.15 43.6 -46.85 43.6 -46.5 43.6 -45.8 43.6 -45.7 43.6 -45.4 43.6 -45.25 44.1 -45.2 44.3 -45.25 44.5 -45.4 44.8 -45.25 45.0 -45.05 45.35 -45.0 45.7 -44.9 46.35 -44.2 46.15 -43.85 46.0 -43.7 45.8 -43.7 45.25 -43.6 45.05 -43.6 Q44.55 -43.65 44.05 -43.7 L43.55 -43.4 43.15 -43.35 42.95 -43.4 42.45 -43.7 42.35 -44.6 42.35 -45.0 42.35 -45.2 42.35 -45.75 42.35 -45.75 42.05 -45.9 41.5 -46.4 41.3 -46.2 40.95 -46.0 40.6 -45.85 40.4 -45.75 40.05 -45.65 39.7 -45.55 39.55 -45.45 39.45 -45.35 39.3 -45.15 39.05 -44.8 39.0 -44.65 38.85 -44.55 38.5 -44.4 38.4 -44.5 38.25 -44.6 37.95 -44.7 37.9 -45.05 37.85 -45.45 37.85 -45.45;M38.1 -52.15 Q39.0 -53.6 40.6 -54.75 L41.0 -54.85 41.2 -54.85 41.55 -54.7 41.75 -54.55 41.75 -54.55 41.85 -54.4 41.85 -54.2 41.85 -54.0 Q41.95 -53.9 42.1 -53.9 L42.2 -53.9 42.5 -54.05 42.65 -54.05 42.75 -54.15 42.85 -54.1 43.0 -54.0 43.2 -53.8 43.2 -53.8 43.35 -53.65 43.35 -52.8 43.35 -52.5 43.35 -52.15 42.65 -51.2 42.65 -51.2 42.55 -51.0 42.75 -50.9 43.25 -50.55 43.35 -50.4 43.35 -50.05 43.3 -49.55 43.25 -49.35 43.15 -49.05 43.1 -48.7 43.8 -48.05 44.25 -47.35 44.35 -47.2 44.35 -47.2 44.15 -46.85 44.0 -46.7 Q43.45 -46.5 43.05 -46.7 L42.6 -47.05 42.15 -47.3 41.95 -47.45 41.85 -47.85 41.85 -48.95 41.85 -49.5 41.8 -49.5 41.4 -49.75 41.4 -49.75 41.2 -49.95 41.1 -50.75 41.1 -51.05 41.1 -51.45 41.25 -51.65 41.35 -51.8 40.9 -52.05 40.7 -52.2 40.65 -52.4 40.6 -52.55 40.6 -52.75 40.45 -52.75 40.15 -52.65 39.85 -52.45 39.55 -52.0 39.45 -51.9 39.35 -51.75 39.05 -51.6 38.65 -51.6 38.3 -51.85 38.1 -52.15"/>
    </path>
  </g>
</svg>
