<?xml version="1.0" encoding="UTF-8" standalone="no"?>
<svg xmlns:xlink="http://www.w3.org/1999/xlink" height="11.25px" width="13.5px" xmlns="http://www.w3.org/2000/svg">
  <g transform="matrix(1.0, 0.0, 0.0, 1.0, -29.1, 26.9)">
    <path d="M29.1 -17.15 L29.2 -17.05 Q29.35 -16.6 29.85 -16.65 L30.0 -16.65 31.1 -17.15 31.2 -16.95 Q31.45 -16.65 31.85 -16.55 L31.9 -16.4 31.95 -16.2 32.5 -15.9 32.55 -15.9 32.85 -16.05 33.0 -16.15 33.05 -16.35 33.05 -16.5 33.05 -16.7 33.15 -16.95 33.25 -17.05 33.8 -17.3 34.35 -16.9 34.35 -16.5 34.45 -15.95 34.9 -15.65 35.0 -15.65 35.25 -15.7 35.45 -15.8 35.65 -16.15 35.75 -16.35 35.9 -17.8 35.9 -18.2 35.85 -18.65 Q34.95 -19.45 33.6 -19.0 L33.5 -18.85 33.45 -18.75 33.15 -18.55 32.85 -18.5 32.85 -18.9 32.85 -19.2 32.85 -19.4 32.85 -19.65 32.7 -19.8 32.45 -20.0 32.25 -20.15 32.25 -20.1 31.85 -20.0 31.15 -19.25 Q30.1 -18.2 29.1 -17.15" fill="#000000" fill-rule="evenodd" stroke="none">
      <animate attributeName="fill" dur="2s" repeatCount="indefinite" values="#000000;#000001"/>
      <animate attributeName="fill-opacity" dur="2s" repeatCount="indefinite" values="1.0;1.0"/>
      <animate attributeName="d" dur="2s" repeatCount="indefinite" values="M29.1 -17.15 L29.2 -17.05 Q29.35 -16.6 29.85 -16.65 L30.0 -16.65 31.1 -17.15 31.2 -16.95 Q31.45 -16.65 31.85 -16.55 L31.9 -16.4 31.95 -16.2 32.5 -15.9 32.55 -15.9 32.85 -16.05 33.0 -16.15 33.05 -16.35 33.05 -16.5 33.05 -16.7 33.15 -16.95 33.25 -17.05 33.8 -17.3 34.35 -16.9 34.35 -16.5 34.45 -15.95 34.9 -15.65 35.0 -15.65 35.25 -15.7 35.45 -15.8 35.65 -16.15 35.75 -16.35 35.9 -17.8 35.9 -18.2 35.85 -18.65 Q34.95 -19.45 33.6 -19.0 L33.5 -18.85 33.45 -18.75 33.15 -18.55 32.85 -18.5 32.85 -18.9 32.85 -19.2 32.85 -19.4 32.85 -19.65 32.7 -19.8 32.45 -20.0 32.25 -20.15 32.25 -20.1 31.85 -20.0 31.15 -19.25 Q30.1 -18.2 29.1 -17.15;M33.85 -24.15 L33.85 -24.15 Q34.0 -23.65 34.5 -23.65 L34.6 -23.7 35.8 -24.45 36.0 -24.55 Q36.45 -24.75 36.9 -24.9 L37.0 -24.9 37.2 -25.0 37.8 -25.2 37.8 -25.2 37.5 -25.05 37.3 -24.85 37.1 -24.75 37.1 -24.5 37.1 -24.4 37.1 -24.0 37.3 -23.85 37.75 -23.6 38.55 -23.3 38.95 -23.25 39.45 -23.3 39.95 -23.45 39.95 -23.45 40.35 -23.15 40.65 -23.1 41.2 -23.3 41.4 -23.5 42.6 -24.7 42.45 -24.9 42.15 -25.0 Q40.85 -24.95 39.55 -24.9 L39.15 -24.75 39.05 -24.75 39.15 -25.25 39.15 -25.55 39.1 -26.0 39.1 -26.4 39.0 -26.55 38.85 -26.7 38.65 -26.85 38.25 -26.9 38.05 -26.8 38.05 -26.8 37.6 -26.7 36.6 -26.3 Q34.95 -25.5 33.85 -24.15"/>
    </path>
    <path d="M29.1 -17.15 Q30.1 -18.2 31.15 -19.25 L31.85 -20.0 32.25 -20.1 32.25 -20.15 32.45 -20.0 32.7 -19.8 32.85 -19.65 32.85 -19.4 32.85 -19.2 32.85 -18.9 32.85 -18.5 33.15 -18.55 33.45 -18.75 33.5 -18.85 33.6 -19.0 Q34.95 -19.45 35.85 -18.65 L35.9 -18.2 35.9 -17.8 35.75 -16.35 35.65 -16.15 35.45 -15.8 35.25 -15.7 35.0 -15.65 34.9 -15.65 34.45 -15.95 34.35 -16.5 34.35 -16.9 33.8 -17.3 33.25 -17.05 33.15 -16.95 33.05 -16.7 33.05 -16.5 33.05 -16.35 33.0 -16.15 32.85 -16.05 32.55 -15.9 32.5 -15.9 31.95 -16.2 31.9 -16.4 31.85 -16.55 Q31.45 -16.65 31.2 -16.95 L31.1 -17.15 30.0 -16.65 29.85 -16.65 Q29.35 -16.6 29.2 -17.05 L29.1 -17.15" fill="none" stroke="#000000" stroke-linecap="round" stroke-linejoin="round" stroke-opacity="0.0" stroke-width="1.0">
      <animate attributeName="stroke" dur="2s" repeatCount="indefinite" values="#000000;#000001"/>
      <animate attributeName="stroke-width" dur="2s" repeatCount="indefinite" values="0.0;0.0"/>
      <animate attributeName="fill-opacity" dur="2s" repeatCount="indefinite" values="0.0;0.0"/>
      <animate attributeName="d" dur="2s" repeatCount="indefinite" values="M29.1 -17.15 Q30.1 -18.2 31.15 -19.25 L31.85 -20.0 32.25 -20.1 32.25 -20.15 32.45 -20.0 32.7 -19.8 32.85 -19.65 32.85 -19.4 32.85 -19.2 32.85 -18.9 32.85 -18.5 33.15 -18.55 33.45 -18.75 33.5 -18.85 33.6 -19.0 Q34.95 -19.45 35.85 -18.65 L35.9 -18.2 35.9 -17.8 35.75 -16.35 35.65 -16.15 35.45 -15.8 35.25 -15.7 35.0 -15.65 34.9 -15.65 34.45 -15.95 34.35 -16.5 34.35 -16.9 33.8 -17.3 33.25 -17.05 33.15 -16.95 33.05 -16.7 33.05 -16.5 33.05 -16.35 33.0 -16.15 32.85 -16.05 32.55 -15.9 32.5 -15.9 31.95 -16.2 31.9 -16.4 31.85 -16.55 Q31.45 -16.65 31.2 -16.95 L31.1 -17.15 30.0 -16.65 29.85 -16.65 Q29.35 -16.6 29.2 -17.05 L29.1 -17.15;M33.85 -24.15 Q34.95 -25.5 36.6 -26.3 L37.6 -26.7 38.05 -26.8 38.05 -26.8 38.25 -26.9 38.65 -26.85 38.85 -26.7 39.0 -26.55 39.1 -26.4 39.1 -26.0 39.15 -25.55 39.15 -25.25 39.05 -24.75 39.15 -24.75 39.55 -24.9 Q40.85 -24.95 42.15 -25.0 L42.45 -24.9 42.6 -24.7 41.4 -23.5 41.2 -23.3 40.65 -23.1 40.35 -23.15 39.95 -23.45 39.95 -23.45 39.45 -23.3 38.95 -23.25 38.55 -23.3 37.75 -23.6 37.3 -23.85 37.1 -24.0 37.1 -24.4 37.1 -24.5 37.1 -24.75 37.3 -24.85 37.5 -25.05 37.8 -25.2 37.8 -25.2 37.2 -25.0 37.0 -24.9 36.9 -24.9 Q36.45 -24.75 36.0 -24.55 L35.8 -24.45 34.6 -23.7 34.5 -23.65 Q34.0 -23.65 33.85 -24.15 L33.85 -24.15"/>
    </path>
  </g>
</svg>
