<?xml version="1.0" encoding="UTF-8" standalone="no"?>
<svg xmlns:xlink="http://www.w3.org/1999/xlink" height="15.25px" width="14.0px" xmlns="http://www.w3.org/2000/svg">
  <g transform="matrix(1.0, 0.0, 0.0, 1.0, 10.15, 42.65)">
    <path d="M-10.15 -29.65 L-10.15 -29.45 -10.15 -29.25 -10.05 -28.7 -9.5 -28.4 Q-9.35 -28.5 -9.2 -28.55 L-9.0 -28.75 -8.9 -28.9 Q-8.05 -29.1 -7.5 -29.45 -7.2 -29.75 -6.9 -30.05 L-6.9 -29.7 -6.9 -29.3 -6.45 -28.8 -6.1 -28.65 -5.4 -28.55 -5.0 -28.2 -4.4 -28.0 -4.35 -27.9 -4.3 -27.7 -3.85 -27.5 -3.75 -27.4 -3.5 -27.45 -3.3 -27.55 -3.2 -27.75 -3.2 -27.95 -3.2 -28.25 -3.15 -28.9 -3.55 -29.3 -3.85 -29.5 -4.05 -29.65 -4.15 -29.7 -4.15 -29.7 Q-4.4 -30.45 -5.15 -30.35 L-5.35 -30.35 -5.65 -30.3 -5.65 -30.5 -5.65 -30.65 -5.65 -32.15 -5.8 -32.3 -6.1 -32.55 -6.25 -32.65 -6.25 -32.6 -6.45 -32.5 -6.65 -32.5 -6.85 -32.3 -6.95 -32.1 -7.15 -31.9 -7.45 -31.65 -7.75 -31.6 -7.95 -31.55 -8.05 -31.5 -8.25 -31.4 -8.25 -31.4 -8.35 -31.2 -8.4 -31.0 -8.45 -30.9 -9.25 -30.75 Q-9.7 -30.2 -10.15 -29.65" fill="#000000" fill-rule="evenodd" stroke="none">
      <animate attributeName="fill" dur="2s" repeatCount="indefinite" values="#000000;#000001"/>
      <animate attributeName="fill-opacity" dur="2s" repeatCount="indefinite" values="1.0;1.0"/>
      <animate attributeName="d" dur="2s" repeatCount="indefinite" values="M-10.15 -29.65 L-10.15 -29.45 -10.15 -29.25 -10.05 -28.7 -9.5 -28.4 Q-9.35 -28.5 -9.2 -28.55 L-9.0 -28.75 -8.9 -28.9 Q-8.05 -29.1 -7.5 -29.45 -7.2 -29.75 -6.9 -30.05 L-6.9 -29.7 -6.9 -29.3 -6.45 -28.8 -6.1 -28.65 -5.4 -28.55 -5.0 -28.2 -4.4 -28.0 -4.35 -27.9 -4.3 -27.7 -3.85 -27.5 -3.75 -27.4 -3.5 -27.45 -3.3 -27.55 -3.2 -27.75 -3.2 -27.95 -3.2 -28.25 -3.15 -28.9 -3.55 -29.3 -3.85 -29.5 -4.05 -29.65 -4.15 -29.7 -4.15 -29.7 Q-4.4 -30.45 -5.15 -30.35 L-5.35 -30.35 -5.65 -30.3 -5.65 -30.5 -5.65 -30.65 -5.65 -32.15 -5.8 -32.3 -6.1 -32.55 -6.25 -32.65 -6.25 -32.6 -6.45 -32.5 -6.65 -32.5 -6.85 -32.3 -6.95 -32.1 -7.15 -31.9 -7.45 -31.65 -7.75 -31.6 -7.95 -31.55 -8.05 -31.5 -8.25 -31.4 -8.25 -31.4 -8.35 -31.2 -8.4 -31.0 -8.45 -30.9 -9.25 -30.75 Q-9.7 -30.2 -10.15 -29.65;M-4.9 -38.9 L-4.9 -38.9 -4.8 -38.8 -4.4 -38.45 -3.7 -38.3 Q-3.4 -38.35 -3.1 -38.55 L-2.8 -38.8 -2.5 -38.8 Q-1.55 -38.85 -0.95 -39.7 -0.25 -39.55 0.25 -39.7 L0.7 -39.95 1.0 -40.2 1.35 -40.7 1.35 -40.3 1.35 -39.4 1.35 -39.0 1.75 -38.45 1.85 -38.35 2.05 -38.25 2.5 -38.15 2.8 -38.25 3.2 -38.35 3.5 -38.45 3.65 -38.6 3.75 -38.7 3.85 -38.95 3.5 -39.55 2.85 -39.75 2.75 -40.05 2.6 -40.25 2.6 -40.25 2.6 -40.65 Q2.6 -41.4 2.6 -42.15 L2.45 -42.3 2.25 -42.45 2.0 -42.65 2.0 -42.65 0.5 -41.8 0.3 -41.65 0.0 -41.3 -0.2 -41.5 -0.2 -41.5 -0.5 -41.65 -0.75 -41.55 -0.75 -41.55 -0.9 -41.5 -1.0 -41.35 -1.2 -41.1 -1.55 -40.85 -1.75 -40.8 -1.95 -41.0 -2.15 -41.1 -2.25 -41.15 -2.5 -41.05 -2.75 -40.8 -2.85 -40.65 -3.65 -39.75 Q-4.8 -39.8 -4.9 -38.9"/>
    </path>
    <path d="M-10.15 -29.65 Q-9.7 -30.2 -9.25 -30.75 L-8.45 -30.9 -8.4 -31.0 -8.35 -31.2 -8.25 -31.4 -8.25 -31.4 -8.05 -31.5 -7.95 -31.55 -7.75 -31.6 -7.45 -31.65 -7.15 -31.9 -6.95 -32.1 -6.85 -32.3 -6.65 -32.5 -6.45 -32.5 -6.25 -32.6 -6.25 -32.65 -6.1 -32.55 -5.8 -32.3 -5.65 -32.15 -5.65 -30.65 -5.65 -30.5 -5.65 -30.3 -5.35 -30.35 -5.15 -30.35 Q-4.4 -30.45 -4.15 -29.7 L-4.15 -29.7 -4.05 -29.65 -3.85 -29.5 -3.55 -29.3 -3.15 -28.9 -3.2 -28.25 -3.2 -27.95 -3.2 -27.75 -3.3 -27.55 -3.5 -27.45 -3.75 -27.4 -3.85 -27.5 -4.3 -27.7 -4.35 -27.9 -4.4 -28.0 -5.0 -28.2 -5.4 -28.55 -6.1 -28.65 -6.45 -28.8 -6.9 -29.3 -6.9 -29.7 -6.9 -30.05 Q-7.2 -29.75 -7.5 -29.45 -8.05 -29.1 -8.9 -28.9 L-9.0 -28.75 -9.2 -28.55 Q-9.35 -28.5 -9.5 -28.4 L-10.05 -28.7 -10.15 -29.25 -10.15 -29.45 -10.15 -29.65" fill="none" stroke="#000000" stroke-linecap="round" stroke-linejoin="round" stroke-opacity="0.0" stroke-width="1.0">
      <animate attributeName="stroke" dur="2s" repeatCount="indefinite" values="#000000;#000001"/>
      <animate attributeName="stroke-width" dur="2s" repeatCount="indefinite" values="0.0;0.0"/>
      <animate attributeName="fill-opacity" dur="2s" repeatCount="indefinite" values="0.0;0.0"/>
      <animate attributeName="d" dur="2s" repeatCount="indefinite" values="M-10.15 -29.65 Q-9.7 -30.2 -9.25 -30.75 L-8.45 -30.9 -8.4 -31.0 -8.35 -31.2 -8.25 -31.4 -8.25 -31.4 -8.05 -31.5 -7.95 -31.55 -7.75 -31.6 -7.45 -31.65 -7.15 -31.9 -6.95 -32.1 -6.85 -32.3 -6.65 -32.5 -6.45 -32.5 -6.25 -32.6 -6.25 -32.65 -6.1 -32.55 -5.8 -32.3 -5.65 -32.15 -5.65 -30.65 -5.65 -30.5 -5.65 -30.3 -5.35 -30.35 -5.15 -30.35 Q-4.4 -30.45 -4.15 -29.7 L-4.15 -29.7 -4.05 -29.65 -3.85 -29.5 -3.55 -29.3 -3.15 -28.9 -3.2 -28.25 -3.2 -27.95 -3.2 -27.75 -3.3 -27.55 -3.5 -27.45 -3.75 -27.4 -3.85 -27.5 -4.3 -27.7 -4.35 -27.9 -4.4 -28.0 -5.0 -28.2 -5.4 -28.55 -6.1 -28.65 -6.45 -28.8 -6.9 -29.3 -6.9 -29.7 -6.9 -30.05 Q-7.2 -29.75 -7.5 -29.45 -8.05 -29.1 -8.9 -28.9 L-9.0 -28.75 -9.2 -28.55 Q-9.35 -28.5 -9.5 -28.4 L-10.05 -28.7 -10.15 -29.25 -10.15 -29.45 -10.15 -29.65;M-4.9 -38.9 Q-4.8 -39.8 -3.65 -39.75 L-2.85 -40.65 -2.75 -40.8 -2.5 -41.05 -2.25 -41.15 -2.15 -41.1 -1.95 -41.0 -1.75 -40.8 -1.55 -40.85 -1.2 -41.1 -1.0 -41.35 -0.9 -41.5 -0.75 -41.55 -0.75 -41.55 -0.5 -41.65 -0.2 -41.5 -0.2 -41.5 0.0 -41.3 0.3 -41.65 0.5 -41.8 2.0 -42.65 2.0 -42.65 2.25 -42.45 2.45 -42.3 2.6 -42.15 Q2.6 -41.4 2.6 -40.65 L2.6 -40.25 2.6 -40.25 2.75 -40.05 2.85 -39.75 3.5 -39.55 3.85 -38.95 3.75 -38.7 3.65 -38.6 3.5 -38.45 3.2 -38.35 2.8 -38.25 2.5 -38.15 2.05 -38.25 1.85 -38.35 1.75 -38.45 1.35 -39.0 1.35 -39.4 1.35 -40.3 1.35 -40.7 1.0 -40.2 0.7 -39.95 0.25 -39.7 Q-0.25 -39.55 -0.95 -39.7 -1.55 -38.85 -2.5 -38.8 L-2.8 -38.8 -3.1 -38.55 Q-3.4 -38.35 -3.7 -38.3 L-4.4 -38.45 -4.8 -38.8 -4.9 -38.9 -4.9 -38.9"/>
    </path>
  </g>
</svg>
