<?xml version="1.0" encoding="UTF-8" standalone="no"?>
<svg xmlns:xlink="http://www.w3.org/1999/xlink" height="14.75px" width="14.25px" xmlns="http://www.w3.org/2000/svg">
  <g transform="matrix(1.0, 0.0, 0.0, 1.0, 1.4, 24.4)">
    <path d="M-1.4 -12.95 L-1.4 -12.95 -1.4 -12.5 -1.4 -12.0 -1.4 -11.85 Q-1.35 -11.15 -1.35 -10.45 L-1.3 -9.95 -0.75 -9.65 -0.5 -9.7 -0.4 -9.75 -0.35 -9.8 -0.25 -9.9 -0.2 -10.25 -0.15 -11.2 -0.15 -11.4 0.7 -11.5 1.35 -11.95 1.35 -11.95 1.4 -11.55 1.4 -11.45 1.45 -11.2 1.45 -11.2 2.0 -10.9 3.0 -11.6 3.4 -11.8 3.85 -12.05 3.9 -11.9 4.1 -11.3 Q4.3 -11.0 4.65 -10.8 L5.0 -10.65 5.35 -10.8 5.45 -10.8 5.8 -11.25 5.85 -11.45 6.25 -12.15 6.6 -12.4 6.6 -12.3 6.6 -12.0 6.6 -11.85 6.7 -11.55 6.7 -11.45 7.25 -11.15 7.4 -11.2 7.5 -11.2 7.6 -11.25 7.75 -11.4 7.9 -11.85 7.9 -12.15 7.9 -12.35 7.85 -12.65 7.85 -12.95 7.85 -13.25 7.85 -13.65 7.7 -13.8 7.25 -14.15 6.85 -14.0 5.45 -13.2 5.1 -12.9 5.1 -13.2 5.1 -13.25 5.1 -13.65 4.95 -13.8 4.5 -14.15 3.5 -13.55 2.6 -13.25 2.6 -13.45 2.6 -13.65 2.5 -13.8 2.4 -13.9 Q2.15 -14.2 1.75 -14.15 L1.75 -14.1 Q1.1 -13.85 0.6 -13.4 -0.5 -14.45 -1.4 -12.95" fill="#000000" fill-rule="evenodd" stroke="none">
      <animate attributeName="fill" dur="2s" repeatCount="indefinite" values="#000000;#000001"/>
      <animate attributeName="fill-opacity" dur="2s" repeatCount="indefinite" values="1.0;1.0"/>
      <animate attributeName="d" dur="2s" repeatCount="indefinite" values="M-1.4 -12.95 L-1.4 -12.95 -1.4 -12.5 -1.4 -12.0 -1.4 -11.85 Q-1.35 -11.15 -1.35 -10.45 L-1.3 -9.95 -0.75 -9.65 -0.5 -9.7 -0.4 -9.75 -0.35 -9.8 -0.25 -9.9 -0.2 -10.25 -0.15 -11.2 -0.15 -11.4 0.7 -11.5 1.35 -11.95 1.35 -11.95 1.4 -11.55 1.4 -11.45 1.45 -11.2 1.45 -11.2 2.0 -10.9 3.0 -11.6 3.4 -11.8 3.85 -12.05 3.9 -11.9 4.1 -11.3 Q4.3 -11.0 4.65 -10.8 L5.0 -10.65 5.35 -10.8 5.45 -10.8 5.8 -11.25 5.85 -11.45 6.25 -12.15 6.6 -12.4 6.6 -12.3 6.6 -12.0 6.6 -11.85 6.7 -11.55 6.7 -11.45 7.25 -11.15 7.4 -11.2 7.5 -11.2 7.6 -11.25 7.75 -11.4 7.9 -11.85 7.9 -12.15 7.9 -12.35 7.85 -12.65 7.85 -12.95 7.85 -13.25 7.85 -13.65 7.7 -13.8 7.25 -14.15 6.85 -14.0 5.45 -13.2 5.1 -12.9 5.1 -13.2 5.1 -13.25 5.1 -13.65 4.95 -13.8 4.5 -14.15 3.5 -13.55 2.6 -13.25 2.6 -13.45 2.6 -13.65 2.5 -13.8 2.4 -13.9 Q2.15 -14.2 1.75 -14.15 L1.75 -14.1 Q1.1 -13.85 0.6 -13.4 -0.5 -14.45 -1.4 -12.95;M3.35 -20.65 L3.35 -20.6 3.65 -20.3 4.0 -20.15 4.0 -20.15 Q4.65 -20.4 5.1 -21.0 L5.35 -21.3 5.5 -21.75 5.85 -21.8 5.95 -21.7 5.95 -21.7 6.35 -21.4 6.6 -21.3 7.25 -21.4 7.4 -21.5 8.0 -21.9 8.1 -22.25 8.1 -22.25 8.1 -22.55 8.1 -22.65 8.1 -22.8 8.15 -22.8 8.45 -23.0 9.55 -22.85 9.6 -22.65 9.85 -22.25 9.85 -22.25 10.25 -22.15 Q10.5 -22.15 10.75 -22.15 L11.05 -21.9 11.35 -21.75 11.35 -21.75 11.85 -21.6 11.95 -21.6 12.5 -21.7 12.65 -21.85 12.65 -21.85 12.8 -22.0 12.8 -22.0 12.85 -22.2 12.85 -22.2 12.75 -22.6 12.55 -22.7 12.55 -22.7 12.35 -22.75 12.15 -22.85 11.75 -22.95 11.55 -23.05 11.35 -23.25 11.35 -23.45 11.35 -23.65 11.2 -23.75 11.0 -23.85 10.9 -23.95 10.4 -24.15 10.05 -24.25 8.75 -24.4 8.5 -24.3 8.3 -24.25 8.2 -24.2 8.0 -24.1 7.9 -24.1 7.4 -24.05 6.5 -24.15 5.9 -23.75 5.8 -23.65 5.6 -23.55 5.4 -23.45 5.3 -23.35 Q5.2 -23.2 5.1 -23.1 L5.1 -23.1 Q4.75 -22.75 4.4 -22.4 3.75 -21.6 3.35 -20.65"/>
    </path>
    <path d="M-1.4 -12.95 Q-0.5 -14.45 0.6 -13.4 1.1 -13.85 1.75 -14.1 L1.75 -14.15 Q2.15 -14.2 2.4 -13.9 L2.5 -13.8 2.6 -13.65 2.6 -13.45 2.6 -13.25 3.5 -13.55 4.5 -14.15 4.95 -13.8 5.1 -13.65 5.1 -13.25 5.1 -13.2 5.1 -12.9 5.45 -13.2 6.85 -14.0 7.25 -14.15 7.7 -13.8 7.85 -13.65 7.85 -13.25 7.85 -12.95 7.85 -12.65 7.9 -12.35 7.9 -12.15 7.9 -11.85 7.75 -11.4 7.6 -11.25 7.5 -11.2 7.4 -11.2 7.25 -11.15 6.7 -11.45 6.7 -11.55 6.6 -11.85 6.6 -12.0 6.6 -12.3 6.6 -12.4 6.25 -12.15 5.85 -11.45 5.8 -11.25 5.45 -10.8 5.35 -10.8 5.0 -10.65 4.65 -10.8 Q4.3 -11.0 4.1 -11.3 L3.9 -11.9 3.85 -12.05 3.4 -11.8 3.0 -11.6 2.0 -10.9 1.45 -11.2 1.45 -11.2 1.4 -11.45 1.4 -11.55 1.35 -11.95 1.35 -11.95 0.7 -11.5 -0.15 -11.4 -0.15 -11.2 -0.2 -10.25 -0.25 -9.9 -0.35 -9.8 -0.4 -9.75 -0.5 -9.7 -0.75 -9.65 -1.3 -9.95 -1.35 -10.45 Q-1.35 -11.15 -1.4 -11.85 L-1.4 -12.0 -1.4 -12.5 -1.4 -12.95 -1.4 -12.95" fill="none" stroke="#000000" stroke-linecap="round" stroke-linejoin="round" stroke-opacity="0.0" stroke-width="1.0">
      <animate attributeName="stroke" dur="2s" repeatCount="indefinite" values="#000000;#000001"/>
      <animate attributeName="stroke-width" dur="2s" repeatCount="indefinite" values="0.0;0.0"/>
      <animate attributeName="fill-opacity" dur="2s" repeatCount="indefinite" values="0.0;0.0"/>
      <animate attributeName="d" dur="2s" repeatCount="indefinite" values="M-1.4 -12.95 Q-0.5 -14.45 0.6 -13.4 1.1 -13.85 1.75 -14.1 L1.75 -14.15 Q2.15 -14.2 2.4 -13.9 L2.5 -13.8 2.6 -13.65 2.6 -13.45 2.6 -13.25 3.5 -13.55 4.5 -14.15 4.95 -13.8 5.1 -13.65 5.1 -13.25 5.1 -13.2 5.1 -12.9 5.45 -13.2 6.85 -14.0 7.25 -14.15 7.7 -13.8 7.85 -13.65 7.85 -13.25 7.85 -12.95 7.85 -12.65 7.9 -12.35 7.9 -12.15 7.9 -11.85 7.75 -11.4 7.6 -11.25 7.5 -11.2 7.4 -11.2 7.25 -11.15 6.7 -11.45 6.7 -11.55 6.6 -11.85 6.6 -12.0 6.6 -12.3 6.6 -12.4 6.25 -12.15 5.85 -11.45 5.8 -11.25 5.45 -10.8 5.35 -10.8 5.0 -10.65 4.65 -10.8 Q4.3 -11.0 4.1 -11.3 L3.9 -11.9 3.85 -12.05 3.4 -11.8 3.0 -11.6 2.0 -10.9 1.45 -11.2 1.45 -11.2 1.4 -11.45 1.4 -11.55 1.35 -11.95 1.35 -11.95 0.7 -11.5 -0.15 -11.4 -0.15 -11.2 -0.2 -10.25 -0.25 -9.9 -0.35 -9.8 -0.4 -9.75 -0.5 -9.7 -0.75 -9.65 -1.3 -9.95 -1.35 -10.45 Q-1.35 -11.15 -1.4 -11.85 L-1.4 -12.0 -1.4 -12.5 -1.4 -12.95 -1.4 -12.95;M3.35 -20.65 Q3.75 -21.6 4.4 -22.4 4.75 -22.75 5.1 -23.1 L5.1 -23.1 Q5.2 -23.2 5.3 -23.35 L5.4 -23.45 5.6 -23.55 5.8 -23.65 5.9 -23.75 6.5 -24.15 7.4 -24.05 7.9 -24.1 8.0 -24.1 8.2 -24.2 8.3 -24.25 8.5 -24.3 8.75 -24.4 10.05 -24.25 10.4 -24.15 10.9 -23.95 11.0 -23.85 11.2 -23.75 11.35 -23.65 11.35 -23.45 11.35 -23.25 11.55 -23.05 11.75 -22.95 12.15 -22.85 12.35 -22.75 12.55 -22.7 12.55 -22.7 12.75 -22.6 12.85 -22.2 12.85 -22.2 12.8 -22.0 12.8 -22.0 12.65 -21.85 12.65 -21.85 12.5 -21.7 11.95 -21.6 11.85 -21.6 11.35 -21.75 11.35 -21.75 11.05 -21.9 10.75 -22.15 Q10.5 -22.15 10.25 -22.15 L9.85 -22.25 9.85 -22.25 9.6 -22.65 9.55 -22.85 8.45 -23.0 8.15 -22.8 8.1 -22.8 8.1 -22.65 8.1 -22.55 8.1 -22.25 8.1 -22.25 8.0 -21.9 7.4 -21.5 7.25 -21.4 6.6 -21.3 6.35 -21.4 5.95 -21.7 5.95 -21.7 5.85 -21.8 5.5 -21.75 5.35 -21.3 5.1 -21.0 Q4.65 -20.4 4.0 -20.15 L4.0 -20.15 3.65 -20.3 3.35 -20.6 3.35 -20.65"/>
    </path>
  </g>
</svg>
