<?xml version="1.0" encoding="UTF-8" standalone="no"?>
<svg xmlns:xlink="http://www.w3.org/1999/xlink" height="11.55px" width="13.5px" xmlns="http://www.w3.org/2000/svg">
  <g transform="matrix(1.0, 0.0, 0.0, 1.0, -33.85, 34.65)">
    <path d="M33.85 -24.15 L33.85 -24.15 34.0 -23.85 34.5 -23.65 34.5 -23.65 35.1 -24.0 35.6 -24.3 36.3 -24.65 Q37.05 -24.95 37.8 -25.2 L37.5 -25.05 37.3 -24.85 37.1 -24.75 37.1 -24.4 37.1 -24.0 37.75 -23.6 37.95 -23.5 38.45 -23.35 Q39.15 -23.4 39.85 -23.45 L39.95 -23.45 Q40.5 -22.85 41.2 -23.3 L41.2 -23.3 42.3 -24.3 42.6 -24.7 42.45 -24.9 40.7 -25.15 Q39.85 -24.95 39.05 -24.75 L39.15 -25.25 39.15 -25.35 39.1 -26.15 39.1 -26.4 39.0 -26.55 Q38.7 -26.95 38.25 -26.9 L38.25 -26.9 37.8 -26.8 37.25 -26.55 36.95 -26.45 36.25 -26.1 36.25 -26.1 36.05 -26.0 35.75 -25.8 35.55 -25.7 Q34.7 -24.9 33.85 -24.15" fill="#000000" fill-rule="evenodd" stroke="none">
      <animate attributeName="fill" dur="2s" repeatCount="indefinite" values="#000000;#000001"/>
      <animate attributeName="fill-opacity" dur="2s" repeatCount="indefinite" values="1.0;1.0"/>
      <animate attributeName="d" dur="2s" repeatCount="indefinite" values="M33.85 -24.15 L33.85 -24.15 34.0 -23.85 34.5 -23.65 34.5 -23.65 35.1 -24.0 35.6 -24.3 36.3 -24.65 Q37.05 -24.95 37.8 -25.2 L37.5 -25.05 37.3 -24.85 37.1 -24.75 37.1 -24.4 37.1 -24.0 37.75 -23.6 37.95 -23.5 38.45 -23.35 Q39.15 -23.4 39.85 -23.45 L39.95 -23.45 Q40.5 -22.85 41.2 -23.3 L41.2 -23.3 42.3 -24.3 42.6 -24.7 42.45 -24.9 40.7 -25.15 Q39.85 -24.95 39.05 -24.75 L39.15 -25.25 39.15 -25.35 39.1 -26.15 39.1 -26.4 39.0 -26.55 Q38.7 -26.95 38.25 -26.9 L38.25 -26.9 37.8 -26.8 37.25 -26.55 36.95 -26.45 36.25 -26.1 36.25 -26.1 36.05 -26.0 35.75 -25.8 35.55 -25.7 Q34.7 -24.9 33.85 -24.15;M41.6 -33.15 L41.6 -32.95 41.6 -32.75 41.7 -32.2 41.7 -32.2 42.25 -31.9 42.55 -32.0 42.95 -32.2 Q43.45 -31.8 44.0 -31.85 L44.4 -31.9 44.6 -32.0 45.0 -31.7 45.2 -31.65 45.5 -31.6 46.0 -31.65 46.1 -31.65 46.0 -31.35 Q45.7 -30.8 45.95 -30.2 L46.1 -30.1 Q46.75 -29.6 47.3 -30.25 L47.3 -30.25 47.35 -31.4 47.35 -31.7 47.35 -32.1 47.35 -33.65 Q46.85 -34.35 46.25 -34.0 L45.95 -33.85 45.85 -33.75 45.25 -33.9 45.05 -33.8 44.95 -33.7 Q44.55 -33.55 44.2 -33.4 L44.1 -33.4 44.1 -33.75 44.1 -34.15 43.95 -34.3 43.5 -34.65 43.5 -34.6 43.25 -34.55 43.1 -34.5 43.0 -34.4 Q42.1 -33.95 41.6 -33.15"/>
    </path>
    <path d="M33.85 -24.15 Q34.7 -24.9 35.55 -25.7 L35.75 -25.8 36.05 -26.0 36.25 -26.1 36.25 -26.1 36.95 -26.45 37.25 -26.55 37.8 -26.8 38.25 -26.9 38.25 -26.9 Q38.7 -26.95 39.0 -26.55 L39.1 -26.4 39.1 -26.15 39.15 -25.35 39.15 -25.25 39.05 -24.75 Q39.85 -24.95 40.7 -25.15 L42.45 -24.9 42.6 -24.7 42.3 -24.3 41.2 -23.3 41.2 -23.3 Q40.5 -22.85 39.95 -23.45 L39.85 -23.45 Q39.15 -23.4 38.45 -23.35 L37.95 -23.5 37.75 -23.6 37.1 -24.0 37.1 -24.4 37.1 -24.75 37.3 -24.85 37.5 -25.05 37.8 -25.2 Q37.05 -24.95 36.3 -24.65 L35.6 -24.3 35.1 -24.0 34.5 -23.65 34.5 -23.65 34.0 -23.85 33.85 -24.15 33.85 -24.15" fill="none" stroke="#000000" stroke-linecap="round" stroke-linejoin="round" stroke-opacity="0.0" stroke-width="1.0">
      <animate attributeName="stroke" dur="2s" repeatCount="indefinite" values="#000000;#000001"/>
      <animate attributeName="stroke-width" dur="2s" repeatCount="indefinite" values="0.0;0.0"/>
      <animate attributeName="fill-opacity" dur="2s" repeatCount="indefinite" values="0.0;0.0"/>
      <animate attributeName="d" dur="2s" repeatCount="indefinite" values="M33.85 -24.15 Q34.7 -24.9 35.55 -25.7 L35.75 -25.8 36.05 -26.0 36.25 -26.1 36.25 -26.1 36.95 -26.45 37.25 -26.55 37.8 -26.8 38.25 -26.9 38.25 -26.9 Q38.7 -26.95 39.0 -26.55 L39.1 -26.4 39.1 -26.15 39.15 -25.35 39.15 -25.25 39.05 -24.75 Q39.85 -24.95 40.7 -25.15 L42.45 -24.9 42.6 -24.7 42.3 -24.3 41.2 -23.3 41.2 -23.3 Q40.5 -22.85 39.95 -23.45 L39.85 -23.45 Q39.15 -23.4 38.45 -23.35 L37.95 -23.5 37.75 -23.6 37.1 -24.0 37.1 -24.4 37.1 -24.75 37.3 -24.85 37.5 -25.05 37.8 -25.2 Q37.05 -24.95 36.3 -24.65 L35.6 -24.3 35.1 -24.0 34.5 -23.65 34.5 -23.65 34.0 -23.85 33.85 -24.15 33.85 -24.15;M41.6 -33.15 Q42.1 -33.95 43.0 -34.4 L43.1 -34.5 43.25 -34.55 43.5 -34.6 43.5 -34.65 43.95 -34.3 44.1 -34.15 44.1 -33.75 44.1 -33.4 44.2 -33.4 Q44.55 -33.55 44.95 -33.7 L45.05 -33.8 45.25 -33.9 45.85 -33.75 45.95 -33.85 46.25 -34.0 Q46.85 -34.35 47.35 -33.65 L47.35 -32.1 47.35 -31.7 47.35 -31.4 47.3 -30.25 47.3 -30.25 Q46.75 -29.6 46.1 -30.1 L45.95 -30.2 Q45.7 -30.8 46.0 -31.35 L46.1 -31.65 46.0 -31.65 45.5 -31.6 45.2 -31.65 45.0 -31.7 44.6 -32.0 44.4 -31.9 44.0 -31.85 Q43.45 -31.8 42.95 -32.2 L42.55 -32.0 42.25 -31.9 41.7 -32.2 41.7 -32.2 41.6 -32.75 41.6 -32.95 41.6 -33.15"/>
    </path>
  </g>
</svg>
