<?xml version="1.0" encoding="UTF-8" standalone="no"?>
<svg xmlns:xlink="http://www.w3.org/1999/xlink" height="12.0px" width="13.0px" xmlns="http://www.w3.org/2000/svg">
  <g transform="matrix(1.0, 0.0, 0.0, 1.0, 4.9, 50.15)">
    <path d="M-4.9 -38.9 L-4.7 -38.7 -3.0 -38.65 -2.8 -38.8 -2.05 -38.85 Q-1.5 -39.0 -1.1 -39.5 L-0.95 -39.7 -0.4 -39.65 0.2 -39.7 Q0.95 -39.9 1.35 -40.7 L1.35 -40.5 1.35 -40.3 1.35 -39.6 1.35 -39.5 1.35 -39.0 1.35 -39.0 1.85 -38.3 Q2.2 -38.2 2.5 -38.15 L3.5 -38.45 3.55 -38.45 3.65 -38.6 3.75 -38.75 3.85 -38.95 3.8 -39.2 3.65 -39.4 2.85 -39.75 2.75 -39.95 2.75 -40.05 2.6 -40.25 2.6 -40.65 2.6 -40.85 2.6 -42.15 2.45 -42.3 2.25 -42.45 2.0 -42.65 1.35 -42.4 0.4 -41.7 0.2 -41.5 0.0 -41.3 -0.2 -41.5 -0.3 -41.5 -0.5 -41.65 -0.75 -41.55 -0.9 -41.5 -1.0 -41.35 Q-1.3 -40.9 -1.75 -40.8 L-1.95 -41.0 -2.25 -41.15 -2.5 -41.05 -2.65 -41.0 Q-3.0 -40.3 -3.65 -39.75 -4.8 -39.8 -4.9 -38.9" fill="#000000" fill-rule="evenodd" stroke="none">
      <animate attributeName="fill" dur="2s" repeatCount="indefinite" values="#000000;#000001"/>
      <animate attributeName="fill-opacity" dur="2s" repeatCount="indefinite" values="1.0;1.0"/>
      <animate attributeName="d" dur="2s" repeatCount="indefinite" values="M-4.9 -38.9 L-4.7 -38.7 -3.0 -38.65 -2.8 -38.8 -2.05 -38.85 Q-1.5 -39.0 -1.1 -39.5 L-0.95 -39.7 -0.4 -39.65 0.2 -39.7 Q0.95 -39.9 1.35 -40.7 L1.35 -40.5 1.35 -40.3 1.35 -39.6 1.35 -39.5 1.35 -39.0 1.35 -39.0 1.85 -38.3 Q2.2 -38.2 2.5 -38.15 L3.5 -38.45 3.55 -38.45 3.65 -38.6 3.75 -38.75 3.85 -38.95 3.8 -39.2 3.65 -39.4 2.85 -39.75 2.75 -39.95 2.75 -40.05 2.6 -40.25 2.6 -40.65 2.6 -40.85 2.6 -42.15 2.45 -42.3 2.25 -42.45 2.0 -42.65 1.35 -42.4 0.4 -41.7 0.2 -41.5 0.0 -41.3 -0.2 -41.5 -0.3 -41.5 -0.5 -41.65 -0.75 -41.55 -0.9 -41.5 -1.0 -41.35 Q-1.3 -40.9 -1.75 -40.8 L-1.95 -41.0 -2.25 -41.15 -2.5 -41.05 -2.65 -41.0 Q-3.0 -40.3 -3.65 -39.75 -4.8 -39.8 -4.9 -38.9;M2.85 -47.65 L2.95 -47.45 4.25 -47.4 4.3 -47.5 4.4 -47.75 Q4.6 -48.1 4.8 -48.45 L4.8 -48.25 4.85 -48.05 4.95 -47.7 Q5.35 -47.25 5.9 -47.45 L6.0 -47.45 6.1 -47.5 6.35 -47.7 6.35 -47.65 6.35 -47.25 6.35 -47.25 6.45 -46.7 Q6.75 -46.4 7.1 -46.35 L7.75 -46.45 7.75 -46.45 7.85 -46.5 7.9 -46.6 8.0 -46.75 8.1 -46.95 8.1 -47.1 7.75 -47.55 7.6 -47.7 7.6 -47.7 7.6 -47.8 7.6 -48.1 7.6 -48.25 7.6 -49.0 7.6 -49.2 7.6 -49.4 7.45 -49.55 7.0 -49.9 6.45 -49.55 6.2 -49.55 6.1 -49.65 6.0 -49.75 5.95 -49.8 5.85 -49.9 5.7 -50.0 5.4 -50.15 5.3 -50.05 Q5.05 -49.95 4.8 -49.85 L4.6 -49.75 4.3 -49.55 4.1 -49.35 3.9 -49.25 Q3.65 -48.95 3.4 -48.7 3.1 -48.15 2.85 -47.65"/>
    </path>
    <path d="M-4.9 -38.9 Q-4.8 -39.8 -3.65 -39.75 -3.0 -40.3 -2.65 -41.0 L-2.5 -41.05 -2.25 -41.15 -1.95 -41.0 -1.75 -40.8 Q-1.3 -40.9 -1.0 -41.35 L-0.9 -41.5 -0.75 -41.55 -0.5 -41.65 -0.3 -41.5 -0.2 -41.5 0.0 -41.3 0.2 -41.5 0.4 -41.7 1.35 -42.4 2.0 -42.65 2.25 -42.45 2.45 -42.3 2.6 -42.15 2.6 -40.85 2.6 -40.65 2.6 -40.25 2.75 -40.05 2.75 -39.95 2.85 -39.75 3.65 -39.4 3.8 -39.2 3.85 -38.95 3.75 -38.75 3.65 -38.6 3.55 -38.45 3.5 -38.45 2.5 -38.15 Q2.2 -38.2 1.85 -38.3 L1.35 -39.0 1.35 -39.0 1.35 -39.5 1.35 -39.6 1.35 -40.3 1.35 -40.5 1.35 -40.7 Q0.95 -39.9 0.2 -39.7 L-0.4 -39.65 -0.95 -39.7 -1.1 -39.5 Q-1.5 -39.0 -2.05 -38.85 L-2.8 -38.8 -3.0 -38.65 -4.7 -38.7 -4.9 -38.9" fill="none" stroke="#000000" stroke-linecap="round" stroke-linejoin="round" stroke-opacity="0.0" stroke-width="1.0">
      <animate attributeName="stroke" dur="2s" repeatCount="indefinite" values="#000000;#000001"/>
      <animate attributeName="stroke-width" dur="2s" repeatCount="indefinite" values="0.0;0.0"/>
      <animate attributeName="fill-opacity" dur="2s" repeatCount="indefinite" values="0.0;0.0"/>
      <animate attributeName="d" dur="2s" repeatCount="indefinite" values="M-4.9 -38.9 Q-4.8 -39.8 -3.65 -39.75 -3.0 -40.3 -2.65 -41.0 L-2.5 -41.05 -2.25 -41.15 -1.95 -41.0 -1.75 -40.8 Q-1.3 -40.9 -1.0 -41.35 L-0.9 -41.5 -0.75 -41.55 -0.5 -41.65 -0.3 -41.5 -0.2 -41.5 0.0 -41.3 0.2 -41.5 0.4 -41.7 1.35 -42.4 2.0 -42.65 2.25 -42.45 2.45 -42.3 2.6 -42.15 2.6 -40.85 2.6 -40.65 2.6 -40.25 2.75 -40.05 2.75 -39.95 2.85 -39.75 3.65 -39.4 3.8 -39.2 3.85 -38.95 3.75 -38.75 3.65 -38.6 3.55 -38.45 3.5 -38.45 2.5 -38.15 Q2.2 -38.2 1.85 -38.3 L1.35 -39.0 1.35 -39.0 1.35 -39.5 1.35 -39.6 1.35 -40.3 1.35 -40.5 1.35 -40.7 Q0.95 -39.9 0.2 -39.7 L-0.4 -39.65 -0.95 -39.7 -1.1 -39.5 Q-1.5 -39.0 -2.05 -38.85 L-2.8 -38.8 -3.0 -38.65 -4.7 -38.7 -4.9 -38.9;M2.85 -47.65 Q3.1 -48.15 3.4 -48.7 3.65 -48.95 3.9 -49.25 L4.1 -49.35 4.3 -49.55 4.6 -49.75 4.8 -49.85 Q5.05 -49.95 5.3 -50.05 L5.4 -50.15 5.7 -50.0 5.85 -49.9 5.95 -49.8 6.0 -49.75 6.1 -49.65 6.2 -49.55 6.45 -49.55 7.0 -49.9 7.45 -49.55 7.6 -49.4 7.6 -49.2 7.6 -49.0 7.6 -48.25 7.6 -48.1 7.6 -47.8 7.6 -47.7 7.6 -47.7 7.75 -47.55 8.1 -47.1 8.1 -46.95 8.0 -46.75 7.9 -46.6 7.85 -46.5 7.75 -46.45 7.75 -46.45 7.1 -46.35 Q6.75 -46.4 6.45 -46.7 L6.35 -47.25 6.35 -47.25 6.35 -47.65 6.35 -47.7 6.1 -47.5 6.0 -47.45 5.9 -47.45 Q5.35 -47.25 4.95 -47.7 L4.85 -48.05 4.8 -48.25 4.8 -48.45 Q4.6 -48.1 4.4 -47.75 L4.3 -47.5 4.25 -47.4 2.95 -47.45 2.85 -47.65"/>
    </path>
  </g>
</svg>
