<?xml version="1.0" encoding="UTF-8" standalone="no"?>
<svg xmlns:xlink="http://www.w3.org/1999/xlink" height="10.5px" width="12.0px" xmlns="http://www.w3.org/2000/svg">
  <g transform="matrix(1.0, 0.0, 0.0, 1.0, -3.85, 2.65)">
    <path d="M3.85 3.1 L3.85 3.1 4.2 3.55 4.5 3.6 4.75 3.6 5.05 3.5 5.15 3.4 5.35 3.3 5.4 3.45 5.85 4.05 5.85 4.15 5.85 4.45 5.95 5.55 7.8 5.7 7.8 5.7 8.35 6.45 8.6 6.6 8.6 7.0 8.7 7.55 8.8 7.55 9.25 7.85 9.5 7.8 9.7 7.7 9.8 7.5 9.85 7.3 9.9 6.75 9.9 6.5 9.8 6.1 9.7 5.85 9.45 5.45 9.35 5.25 9.35 5.25 9.5 5.05 9.6 4.85 9.6 4.6 9.6 4.5 9.6 4.4 9.6 4.2 9.6 4.1 9.55 4.05 9.45 3.95 9.4 3.95 9.0 3.6 8.9 3.7 7.6 4.3 7.2 4.35 7.1 4.35 7.1 4.0 6.85 1.45 6.85 1.35 6.7 1.2 6.55 1.1 6.25 0.85 5.8 1.1 5.6 1.2 Q5.0 1.5 4.6 2.0 L4.15 2.55 Q4.0 2.85 3.85 3.1" fill="#000000" fill-rule="evenodd" stroke="none">
      <animate attributeName="fill" dur="2s" repeatCount="indefinite" values="#000000;#000001"/>
      <animate attributeName="fill-opacity" dur="2s" repeatCount="indefinite" values="1.0;1.0"/>
      <animate attributeName="d" dur="2s" repeatCount="indefinite" values="M3.85 3.1 L3.85 3.1 4.2 3.55 4.5 3.6 4.75 3.6 5.05 3.5 5.15 3.4 5.35 3.3 5.4 3.45 5.85 4.05 5.85 4.15 5.85 4.45 5.95 5.55 7.8 5.7 7.8 5.7 8.35 6.45 8.6 6.6 8.6 7.0 8.7 7.55 8.8 7.55 9.25 7.85 9.5 7.8 9.7 7.7 9.8 7.5 9.85 7.3 9.9 6.75 9.9 6.5 9.8 6.1 9.7 5.85 9.45 5.45 9.35 5.25 9.35 5.25 9.5 5.05 9.6 4.85 9.6 4.6 9.6 4.5 9.6 4.4 9.6 4.2 9.6 4.1 9.55 4.05 9.45 3.95 9.4 3.95 9.0 3.6 8.9 3.7 7.6 4.3 7.2 4.35 7.1 4.35 7.1 4.0 6.85 1.45 6.85 1.35 6.7 1.2 6.55 1.1 6.25 0.85 5.8 1.1 5.6 1.2 Q5.0 1.5 4.6 2.0 L4.15 2.55 Q4.0 2.85 3.85 3.1;M10.1 -1.9 L10.15 -1.8 10.35 -1.5 10.5 -1.15 10.4 -0.9 10.3 -0.65 10.3 -0.55 10.35 -0.15 10.35 -0.05 10.45 0.55 10.45 0.55 10.85 0.65 11.8 0.7 13.6 0.1 13.6 0.1 13.6 0.85 13.6 1.3 13.6 1.6 13.6 2.0 13.6 2.0 14.15 2.65 14.45 2.85 14.65 2.95 14.85 3.05 15.25 3.1 15.5 3.05 15.6 3.0 15.75 2.85 15.8 2.7 15.85 2.3 15.85 2.1 15.85 2.1 15.55 1.8 15.35 1.65 15.1 1.5 15.1 1.4 15.1 1.3 15.1 1.1 15.1 1.05 15.0 0.95 14.95 0.85 14.85 0.75 14.85 0.3 14.85 0.0 14.85 -1.15 14.55 -1.3 14.55 -1.3 14.15 -1.3 11.85 -1.0 11.85 -1.0 11.85 -1.25 11.85 -1.55 11.85 -1.85 11.85 -2.15 11.75 -2.3 Q11.35 -2.75 10.75 -2.65 L10.3 -2.4 Q10.05 -2.25 10.1 -1.9"/>
    </path>
    <path d="M3.85 3.1 Q4.0 2.85 4.15 2.55 L4.6 2.0 Q5.0 1.5 5.6 1.2 L5.8 1.1 6.25 0.85 6.55 1.1 6.7 1.2 6.85 1.35 6.85 1.45 7.1 4.0 7.1 4.35 7.2 4.35 7.6 4.3 8.9 3.7 9.0 3.6 9.4 3.95 9.45 3.95 9.55 4.05 9.6 4.1 9.6 4.2 9.6 4.4 9.6 4.5 9.6 4.6 9.6 4.85 9.5 5.05 9.35 5.25 9.35 5.25 9.45 5.45 9.7 5.85 9.8 6.1 9.9 6.5 9.9 6.75 9.85 7.3 9.8 7.5 9.7 7.7 9.5 7.8 9.25 7.85 8.8 7.55 8.7 7.55 8.6 7.0 8.6 6.6 8.35 6.45 7.8 5.7 7.8 5.7 5.95 5.55 5.85 4.45 5.85 4.15 5.85 4.05 5.4 3.45 5.35 3.3 5.15 3.4 5.05 3.5 4.75 3.6 4.5 3.6 4.2 3.55 3.85 3.1 3.85 3.1" fill="none" stroke="#000000" stroke-linecap="round" stroke-linejoin="round" stroke-opacity="0.0" stroke-width="1.0">
      <animate attributeName="stroke" dur="2s" repeatCount="indefinite" values="#000000;#000001"/>
      <animate attributeName="stroke-width" dur="2s" repeatCount="indefinite" values="0.0;0.0"/>
      <animate attributeName="fill-opacity" dur="2s" repeatCount="indefinite" values="0.0;0.0"/>
      <animate attributeName="d" dur="2s" repeatCount="indefinite" values="M3.85 3.1 Q4.0 2.85 4.15 2.55 L4.6 2.0 Q5.0 1.5 5.6 1.2 L5.8 1.1 6.25 0.85 6.55 1.1 6.7 1.2 6.85 1.35 6.85 1.45 7.1 4.0 7.1 4.35 7.2 4.35 7.6 4.3 8.9 3.7 9.0 3.6 9.4 3.95 9.45 3.95 9.55 4.05 9.6 4.1 9.6 4.2 9.6 4.4 9.6 4.5 9.6 4.6 9.6 4.85 9.5 5.05 9.35 5.25 9.35 5.25 9.45 5.45 9.7 5.85 9.8 6.1 9.9 6.5 9.9 6.75 9.85 7.3 9.8 7.5 9.7 7.7 9.5 7.8 9.25 7.85 8.8 7.55 8.7 7.55 8.6 7.0 8.6 6.6 8.35 6.45 7.8 5.7 7.8 5.7 5.95 5.55 5.85 4.45 5.85 4.15 5.85 4.05 5.4 3.45 5.35 3.3 5.15 3.4 5.05 3.5 4.75 3.6 4.5 3.6 4.2 3.55 3.85 3.1 3.85 3.1;M10.1 -1.9 Q10.05 -2.25 10.3 -2.4 L10.75 -2.65 Q11.35 -2.75 11.75 -2.3 L11.85 -2.15 11.85 -1.85 11.85 -1.55 11.85 -1.25 11.85 -1.0 11.85 -1.0 14.15 -1.3 14.55 -1.3 14.55 -1.3 14.85 -1.15 14.85 0.0 14.85 0.3 14.85 0.75 14.95 0.85 15.0 0.95 15.1 1.05 15.1 1.1 15.1 1.3 15.1 1.4 15.1 1.5 15.35 1.65 15.55 1.8 15.85 2.1 15.85 2.1 15.85 2.3 15.8 2.7 15.75 2.85 15.6 3.0 15.5 3.05 15.25 3.1 14.85 3.05 14.65 2.95 14.45 2.85 14.15 2.65 13.6 2.0 13.6 2.0 13.6 1.6 13.6 1.3 13.6 0.85 13.6 0.1 13.6 0.1 11.8 0.7 10.85 0.65 10.45 0.55 10.45 0.55 10.35 -0.05 10.35 -0.15 10.3 -0.55 10.3 -0.65 10.4 -0.9 10.5 -1.15 10.35 -1.5 10.15 -1.8 10.1 -1.9"/>
    </path>
  </g>
</svg>
