<?xml version="1.0" encoding="UTF-8" standalone="no"?>
<svg xmlns:xlink="http://www.w3.org/1999/xlink" height="13.05px" width="5.75px" xmlns="http://www.w3.org/2000/svg">
  <g transform="matrix(1.0, 0.0, 0.0, 1.0, 18.9, 14.15)">
    <path d="M-18.4 -3.7 L-18.4 -3.5 -18.35 -3.3 -18.35 -3.3 -18.3 -3.1 -18.3 -2.95 -18.1 -2.8 -17.8 -2.65 -17.7 -2.65 -17.15 -2.25 Q-16.8 -2.15 -16.45 -2.1 L-16.15 -2.1 -15.9 -2.15 -15.85 -1.9 -15.85 -1.8 -15.8 -1.45 -15.4 -1.15 -15.15 -1.1 -14.85 -1.15 Q-14.65 -1.3 -14.45 -1.45 L-14.45 -1.55 -14.45 -1.7 -14.5 -1.9 -14.6 -2.15 -14.65 -2.6 -14.65 -2.9 -14.75 -3.05 -15.05 -3.35 -15.15 -3.45 -15.15 -3.65 -15.25 -4.25 -15.35 -4.35 Q-15.7 -4.65 -16.0 -4.9 L-16.1 -4.9 -16.25 -4.8 -16.4 -4.7 -16.6 -4.5 -16.7 -4.4 -16.75 -4.3 -16.75 -4.3 -16.85 -4.3 -17.05 -4.5 -17.35 -4.6 -17.5 -4.6 -17.95 -4.45 -18.3 -4.0 -18.3 -3.9 -18.4 -3.7" fill="#000000" fill-rule="evenodd" stroke="none">
      <animate attributeName="fill" dur="2s" repeatCount="indefinite" values="#000000;#000001"/>
      <animate attributeName="fill-opacity" dur="2s" repeatCount="indefinite" values="1.0;1.0"/>
      <animate attributeName="d" dur="2s" repeatCount="indefinite" values="M-18.4 -3.7 L-18.4 -3.5 -18.35 -3.3 -18.35 -3.3 -18.3 -3.1 -18.3 -2.95 -18.1 -2.8 -17.8 -2.65 -17.7 -2.65 -17.15 -2.25 Q-16.8 -2.15 -16.45 -2.1 L-16.15 -2.1 -15.9 -2.15 -15.85 -1.9 -15.85 -1.8 -15.8 -1.45 -15.4 -1.15 -15.15 -1.1 -14.85 -1.15 Q-14.65 -1.3 -14.45 -1.45 L-14.45 -1.55 -14.45 -1.7 -14.5 -1.9 -14.6 -2.15 -14.65 -2.6 -14.65 -2.9 -14.75 -3.05 -15.05 -3.35 -15.15 -3.45 -15.15 -3.65 -15.25 -4.25 -15.35 -4.35 Q-15.7 -4.65 -16.0 -4.9 L-16.1 -4.9 -16.25 -4.8 -16.4 -4.7 -16.6 -4.5 -16.7 -4.4 -16.75 -4.3 -16.75 -4.3 -16.85 -4.3 -17.05 -4.5 -17.35 -4.6 -17.5 -4.6 -17.95 -4.45 -18.3 -4.0 -18.3 -3.9 -18.4 -3.7;M-18.9 -11.95 L-18.9 -11.95 -18.85 -11.55 -18.85 -11.45 -18.8 -11.2 -18.5 -11.0 -18.25 -10.9 -17.95 -11.05 -17.85 -11.15 -17.55 -11.55 Q-17.1 -11.15 -16.5 -11.15 L-16.2 -11.3 -15.9 -11.6 -15.75 -11.75 -15.75 -11.75 -15.2 -11.1 -14.65 -10.65 -14.65 -10.25 -14.55 -9.7 Q-14.25 -9.3 -13.75 -9.4 L-13.65 -9.4 -13.45 -9.5 -13.25 -9.65 -13.15 -10.05 -13.35 -10.8 -13.35 -11.3 -13.35 -11.6 -13.5 -12.15 -13.6 -12.15 -13.9 -12.35 -14.75 -12.9 -14.8 -13.05 Q-14.95 -13.75 -15.55 -14.05 L-15.75 -14.15 -16.05 -14.0 -16.5 -13.8 -17.0 -14.15 -17.25 -14.1 -17.45 -14.1 -17.75 -14.15 -17.75 -14.1 -18.15 -14.0 -18.3 -13.8 -18.4 -13.65 -18.5 -13.1 -18.65 -12.3 -18.75 -12.15 -18.9 -11.95"/>
    </path>
    <path d="M-18.4 -3.7 L-18.3 -3.9 -18.3 -4.0 -17.95 -4.45 -17.5 -4.6 -17.35 -4.6 -17.05 -4.5 -16.85 -4.3 -16.75 -4.3 -16.75 -4.3 -16.7 -4.4 -16.6 -4.5 -16.4 -4.7 -16.25 -4.8 -16.1 -4.9 -16.0 -4.9 Q-15.7 -4.65 -15.35 -4.35 L-15.25 -4.25 -15.15 -3.65 -15.15 -3.45 -15.05 -3.35 -14.75 -3.05 -14.65 -2.9 -14.65 -2.6 -14.6 -2.15 -14.5 -1.9 -14.45 -1.7 -14.45 -1.55 -14.45 -1.45 Q-14.65 -1.3 -14.85 -1.15 L-15.15 -1.1 -15.4 -1.15 -15.8 -1.45 -15.85 -1.8 -15.85 -1.9 -15.9 -2.15 -16.15 -2.1 -16.45 -2.1 Q-16.8 -2.15 -17.15 -2.25 L-17.7 -2.65 -17.8 -2.65 -18.1 -2.8 -18.3 -2.95 -18.3 -3.1 -18.35 -3.3 -18.35 -3.3 -18.4 -3.5 -18.4 -3.7" fill="none" stroke="#000000" stroke-linecap="round" stroke-linejoin="round" stroke-opacity="0.0" stroke-width="1.0">
      <animate attributeName="stroke" dur="2s" repeatCount="indefinite" values="#000000;#000001"/>
      <animate attributeName="stroke-width" dur="2s" repeatCount="indefinite" values="0.0;0.0"/>
      <animate attributeName="fill-opacity" dur="2s" repeatCount="indefinite" values="0.0;0.0"/>
      <animate attributeName="d" dur="2s" repeatCount="indefinite" values="M-18.4 -3.7 L-18.3 -3.9 -18.3 -4.0 -17.95 -4.45 -17.5 -4.6 -17.35 -4.6 -17.05 -4.5 -16.85 -4.3 -16.75 -4.3 -16.75 -4.3 -16.7 -4.4 -16.6 -4.5 -16.4 -4.7 -16.25 -4.8 -16.1 -4.9 -16.0 -4.9 Q-15.7 -4.65 -15.35 -4.35 L-15.25 -4.25 -15.15 -3.65 -15.15 -3.45 -15.05 -3.35 -14.75 -3.05 -14.65 -2.9 -14.65 -2.6 -14.6 -2.15 -14.5 -1.9 -14.45 -1.7 -14.45 -1.55 -14.45 -1.45 Q-14.65 -1.3 -14.85 -1.15 L-15.15 -1.1 -15.4 -1.15 -15.8 -1.45 -15.85 -1.8 -15.85 -1.9 -15.9 -2.15 -16.15 -2.1 -16.45 -2.1 Q-16.8 -2.15 -17.15 -2.25 L-17.7 -2.65 -17.8 -2.65 -18.1 -2.8 -18.3 -2.95 -18.3 -3.1 -18.35 -3.3 -18.35 -3.3 -18.4 -3.5 -18.4 -3.7;M-18.9 -11.95 L-18.75 -12.15 -18.65 -12.3 -18.5 -13.1 -18.4 -13.65 -18.3 -13.8 -18.15 -14.0 -17.75 -14.1 -17.75 -14.15 -17.45 -14.1 -17.25 -14.1 -17.0 -14.15 -16.5 -13.8 -16.05 -14.0 -15.75 -14.15 -15.55 -14.05 Q-14.95 -13.75 -14.8 -13.05 L-14.75 -12.9 -13.9 -12.35 -13.6 -12.15 -13.5 -12.15 -13.35 -11.6 -13.35 -11.3 -13.35 -10.8 -13.15 -10.05 -13.25 -9.65 -13.45 -9.5 -13.65 -9.4 -13.75 -9.4 Q-14.25 -9.3 -14.55 -9.7 L-14.65 -10.25 -14.65 -10.65 -15.2 -11.1 -15.75 -11.75 -15.75 -11.75 -15.9 -11.6 -16.2 -11.3 -16.5 -11.15 Q-17.1 -11.15 -17.55 -11.55 L-17.85 -11.15 -17.95 -11.05 -18.25 -10.9 -18.5 -11.0 -18.8 -11.2 -18.85 -11.45 -18.85 -11.55 -18.9 -11.95 -18.9 -11.95"/>
    </path>
  </g>
</svg>
