<?xml version="1.0" encoding="UTF-8" standalone="no"?>
<svg xmlns:xlink="http://www.w3.org/1999/xlink" height="11.5px" width="12.5px" xmlns="http://www.w3.org/2000/svg">
  <g transform="matrix(1.0, 0.0, 0.0, 1.0, -3.35, 31.65)">
    <path d="M3.35 -20.65 L3.75 -20.3 4.0 -20.15 Q4.65 -20.4 5.1 -21.0 L5.5 -21.75 5.8 -21.8 5.95 -21.7 Q6.35 -21.25 6.95 -21.35 L7.05 -21.35 7.25 -21.4 7.25 -21.4 7.9 -21.8 8.0 -21.9 8.1 -22.0 8.1 -22.05 8.1 -22.25 Q8.1 -22.45 8.1 -22.65 L8.1 -22.8 8.45 -23.0 Q9.0 -22.9 9.55 -22.85 L9.6 -22.65 9.65 -22.55 9.8 -22.3 Q9.95 -22.15 10.25 -22.15 L10.75 -22.15 10.95 -22.0 11.35 -21.75 11.6 -21.65 12.1 -21.6 12.4 -21.65 12.5 -21.7 12.65 -21.85 12.8 -22.0 12.85 -22.2 Q12.9 -22.55 12.55 -22.7 L12.35 -22.8 11.75 -22.95 11.55 -23.05 11.35 -23.25 11.35 -23.45 11.35 -23.65 11.2 -23.75 Q10.25 -24.35 9.2 -24.4 L8.95 -24.4 8.75 -24.4 8.55 -24.3 8.3 -24.25 8.3 -24.25 8.3 -24.25 8.2 -24.25 Q7.75 -24.0 7.3 -24.05 L7.2 -24.05 6.9 -24.05 6.5 -24.15 Q5.95 -23.8 5.4 -23.45 L5.3 -23.35 Q4.0 -22.2 3.35 -20.65" fill="#000000" fill-rule="evenodd" stroke="none">
      <animate attributeName="fill" dur="2s" repeatCount="indefinite" values="#000000;#000001"/>
      <animate attributeName="fill-opacity" dur="2s" repeatCount="indefinite" values="1.0;1.0"/>
      <animate attributeName="d" dur="2s" repeatCount="indefinite" values="M3.35 -20.65 L3.75 -20.3 4.0 -20.15 Q4.65 -20.4 5.1 -21.0 L5.5 -21.75 5.8 -21.8 5.95 -21.7 Q6.35 -21.25 6.95 -21.35 L7.05 -21.35 7.25 -21.4 7.25 -21.4 7.9 -21.8 8.0 -21.9 8.1 -22.0 8.1 -22.05 8.1 -22.25 Q8.1 -22.45 8.1 -22.65 L8.1 -22.8 8.45 -23.0 Q9.0 -22.9 9.55 -22.85 L9.6 -22.65 9.65 -22.55 9.8 -22.3 Q9.95 -22.15 10.25 -22.15 L10.75 -22.15 10.95 -22.0 11.35 -21.75 11.6 -21.65 12.1 -21.6 12.4 -21.65 12.5 -21.7 12.65 -21.85 12.8 -22.0 12.85 -22.2 Q12.9 -22.55 12.55 -22.7 L12.35 -22.8 11.75 -22.95 11.55 -23.05 11.35 -23.25 11.35 -23.45 11.35 -23.65 11.2 -23.75 Q10.25 -24.35 9.2 -24.4 L8.95 -24.4 8.75 -24.4 8.55 -24.3 8.3 -24.25 8.3 -24.25 8.3 -24.25 8.2 -24.25 Q7.75 -24.0 7.3 -24.05 L7.2 -24.05 6.9 -24.05 6.5 -24.15 Q5.95 -23.8 5.4 -23.45 L5.3 -23.35 Q4.0 -22.2 3.35 -20.65;M8.6 -28.9 L8.6 -28.9 8.9 -28.65 Q9.35 -28.6 9.75 -28.6 L10.45 -28.75 10.65 -28.85 10.85 -28.95 Q11.1 -29.15 11.35 -29.3 L11.4 -29.15 11.45 -28.95 11.55 -28.95 12.0 -28.65 12.15 -28.65 12.25 -28.65 12.35 -28.65 12.55 -28.45 Q12.75 -28.35 12.9 -28.3 L13.1 -28.25 13.5 -28.25 Q13.9 -28.3 14.25 -28.7 L14.45 -28.9 14.55 -29.0 14.6 -28.8 Q14.65 -28.55 14.65 -28.3 L14.7 -27.9 14.7 -27.7 15.15 -27.5 15.25 -27.4 15.6 -27.55 15.75 -27.65 15.75 -27.75 15.85 -27.95 15.85 -28.25 15.85 -28.45 Q15.8 -28.8 15.8 -29.1 L15.75 -29.3 15.7 -29.5 15.6 -29.75 15.5 -30.0 15.4 -30.2 15.25 -30.45 15.05 -30.7 Q14.45 -31.25 13.5 -30.55 L13.3 -30.75 13.2 -30.8 13.0 -30.9 12.75 -30.9 12.65 -30.9 12.6 -30.95 12.6 -31.1 Q12.3 -31.4 12.0 -31.65 L12.0 -31.6 11.75 -31.55 11.6 -31.5 Q11.3 -31.15 10.85 -30.95 L10.75 -30.85 Q9.35 -30.0 8.6 -28.9"/>
    </path>
    <path d="M3.35 -20.65 Q4.0 -22.2 5.3 -23.35 L5.4 -23.45 Q5.95 -23.8 6.5 -24.15 L6.9 -24.05 7.2 -24.05 7.3 -24.05 Q7.75 -24.0 8.2 -24.25 L8.3 -24.25 8.3 -24.25 8.3 -24.25 8.55 -24.3 8.75 -24.4 8.95 -24.4 9.2 -24.4 Q10.25 -24.35 11.2 -23.75 L11.35 -23.65 11.35 -23.45 11.35 -23.25 11.55 -23.05 11.75 -22.95 12.35 -22.8 12.55 -22.7 Q12.9 -22.55 12.85 -22.2 L12.8 -22.0 12.65 -21.85 12.5 -21.7 12.4 -21.65 12.1 -21.6 11.6 -21.65 11.35 -21.75 10.95 -22.0 10.75 -22.15 10.25 -22.15 Q9.95 -22.15 9.8 -22.3 L9.65 -22.55 9.6 -22.65 9.55 -22.85 Q9.0 -22.9 8.45 -23.0 L8.1 -22.8 8.1 -22.65 Q8.1 -22.45 8.1 -22.25 L8.1 -22.05 8.1 -22.0 8.0 -21.9 7.9 -21.8 7.25 -21.4 7.25 -21.4 7.05 -21.35 6.95 -21.35 Q6.35 -21.25 5.95 -21.7 L5.8 -21.8 5.5 -21.75 5.1 -21.0 Q4.65 -20.4 4.0 -20.15 L3.75 -20.3 3.35 -20.65" fill="none" stroke="#000000" stroke-linecap="round" stroke-linejoin="round" stroke-opacity="0.0" stroke-width="1.0">
      <animate attributeName="stroke" dur="2s" repeatCount="indefinite" values="#000000;#000001"/>
      <animate attributeName="stroke-width" dur="2s" repeatCount="indefinite" values="0.0;0.0"/>
      <animate attributeName="fill-opacity" dur="2s" repeatCount="indefinite" values="0.0;0.0"/>
      <animate attributeName="d" dur="2s" repeatCount="indefinite" values="M3.35 -20.65 Q4.0 -22.2 5.3 -23.35 L5.4 -23.45 Q5.95 -23.8 6.5 -24.15 L6.9 -24.05 7.2 -24.05 7.3 -24.05 Q7.75 -24.0 8.2 -24.25 L8.3 -24.25 8.3 -24.25 8.3 -24.25 8.55 -24.3 8.75 -24.4 8.95 -24.4 9.2 -24.4 Q10.25 -24.35 11.2 -23.75 L11.35 -23.65 11.35 -23.45 11.35 -23.25 11.55 -23.05 11.75 -22.95 12.35 -22.8 12.55 -22.7 Q12.9 -22.55 12.85 -22.2 L12.8 -22.0 12.65 -21.85 12.5 -21.7 12.4 -21.65 12.1 -21.6 11.6 -21.65 11.35 -21.75 10.95 -22.0 10.75 -22.15 10.25 -22.15 Q9.95 -22.15 9.8 -22.3 L9.65 -22.55 9.6 -22.65 9.55 -22.85 Q9.0 -22.9 8.45 -23.0 L8.1 -22.8 8.1 -22.65 Q8.1 -22.45 8.1 -22.25 L8.1 -22.05 8.1 -22.0 8.0 -21.9 7.9 -21.8 7.25 -21.4 7.25 -21.4 7.05 -21.35 6.95 -21.35 Q6.35 -21.25 5.95 -21.7 L5.8 -21.8 5.5 -21.75 5.1 -21.0 Q4.65 -20.4 4.0 -20.15 L3.75 -20.3 3.35 -20.65;M8.6 -28.9 Q9.35 -30.0 10.75 -30.85 L10.85 -30.95 Q11.3 -31.15 11.6 -31.5 L11.75 -31.55 12.0 -31.6 12.0 -31.65 Q12.3 -31.4 12.6 -31.1 L12.6 -30.95 12.65 -30.9 12.75 -30.9 13.0 -30.9 13.2 -30.8 13.3 -30.75 13.5 -30.55 Q14.45 -31.25 15.05 -30.7 L15.25 -30.45 15.4 -30.2 15.5 -30.0 15.6 -29.75 15.7 -29.5 15.75 -29.3 15.8 -29.1 Q15.8 -28.8 15.85 -28.45 L15.85 -28.25 15.85 -27.95 15.75 -27.75 15.75 -27.65 15.6 -27.55 15.25 -27.4 15.15 -27.5 14.7 -27.7 14.7 -27.9 14.65 -28.3 Q14.65 -28.55 14.6 -28.8 L14.55 -29.0 14.45 -28.9 14.25 -28.7 Q13.9 -28.3 13.5 -28.25 L13.1 -28.25 12.9 -28.3 Q12.75 -28.35 12.55 -28.45 L12.35 -28.65 12.25 -28.65 12.15 -28.65 12.0 -28.65 11.55 -28.95 11.45 -28.95 11.4 -29.15 11.35 -29.3 Q11.1 -29.15 10.85 -28.95 L10.65 -28.85 10.45 -28.75 9.75 -28.6 Q9.35 -28.6 8.9 -28.65 L8.6 -28.9 8.6 -28.9"/>
    </path>
  </g>
</svg>
