<?xml version="1.0" encoding="UTF-8" standalone="no"?>
<svg xmlns:xlink="http://www.w3.org/1999/xlink" height="11.8px" width="9.25px" xmlns="http://www.w3.org/2000/svg">
  <g transform="matrix(1.0, 0.0, 0.0, 1.0, -41.6, 41.65)">
    <path d="M41.6 -33.15 L41.6 -33.05 41.6 -32.75 41.6 -32.55 41.7 -32.2 41.95 -32.1 42.25 -31.9 42.55 -32.0 42.55 -32.0 42.75 -32.1 42.95 -32.2 43.5 -31.85 43.6 -31.85 43.8 -31.85 44.1 -31.8 44.6 -32.0 Q45.05 -31.55 45.7 -31.6 L45.9 -31.65 46.1 -31.65 46.0 -31.35 45.85 -30.85 45.85 -30.4 45.95 -30.2 Q46.55 -29.65 47.1 -30.0 L47.3 -30.25 47.3 -30.25 47.35 -30.95 47.35 -31.05 47.35 -31.4 47.35 -31.7 47.35 -32.05 47.35 -32.75 47.35 -33.25 47.35 -33.55 47.35 -33.65 47.25 -33.75 47.1 -33.9 46.9 -34.05 Q46.4 -34.25 45.85 -33.75 L45.25 -33.9 45.15 -33.8 45.05 -33.8 44.1 -33.4 44.1 -33.75 44.1 -33.75 44.1 -33.85 44.1 -34.15 43.95 -34.3 43.6 -34.6 43.5 -34.65 43.5 -34.6 43.25 -34.55 43.1 -34.5 43.0 -34.4 42.8 -34.3 41.6 -33.15" fill="#000000" fill-rule="evenodd" stroke="none">
      <animate attributeName="fill" dur="2s" repeatCount="indefinite" values="#000000;#000001"/>
      <animate attributeName="fill-opacity" dur="2s" repeatCount="indefinite" values="1.0;1.0"/>
      <animate attributeName="d" dur="2s" repeatCount="indefinite" values="M41.6 -33.15 L41.6 -33.05 41.6 -32.75 41.6 -32.55 41.7 -32.2 41.95 -32.1 42.25 -31.9 42.55 -32.0 42.55 -32.0 42.75 -32.1 42.95 -32.2 43.5 -31.85 43.6 -31.85 43.8 -31.85 44.1 -31.8 44.6 -32.0 Q45.05 -31.55 45.7 -31.6 L45.9 -31.65 46.1 -31.65 46.0 -31.35 45.85 -30.85 45.85 -30.4 45.95 -30.2 Q46.55 -29.65 47.1 -30.0 L47.3 -30.25 47.3 -30.25 47.35 -30.95 47.35 -31.05 47.35 -31.4 47.35 -31.7 47.35 -32.05 47.35 -32.75 47.35 -33.25 47.35 -33.55 47.35 -33.65 47.25 -33.75 47.1 -33.9 46.9 -34.05 Q46.4 -34.25 45.85 -33.75 L45.25 -33.9 45.15 -33.8 45.05 -33.8 44.1 -33.4 44.1 -33.75 44.1 -33.75 44.1 -33.85 44.1 -34.15 43.95 -34.3 43.6 -34.6 43.5 -34.65 43.5 -34.6 43.25 -34.55 43.1 -34.5 43.0 -34.4 42.8 -34.3 41.6 -33.15;M45.1 -40.15 L45.1 -40.15 45.1 -39.85 45.1 -39.75 45.15 -39.4 45.2 -39.2 45.5 -39.0 45.75 -38.9 45.85 -38.9 46.0 -38.9 46.3 -38.9 46.85 -38.8 46.9 -38.65 46.95 -38.45 47.15 -38.3 47.75 -38.2 Q48.2 -38.2 48.6 -38.5 L48.8 -38.3 48.9 -38.2 49.1 -37.95 49.15 -37.55 49.2 -37.2 49.5 -36.95 Q49.95 -36.7 50.5 -36.95 L50.65 -37.1 50.65 -37.1 50.85 -37.45 50.85 -37.6 50.7 -37.85 50.35 -38.2 50.35 -38.55 50.25 -39.15 50.0 -39.35 49.85 -39.5 49.85 -39.5 49.85 -39.7 49.85 -39.9 49.7 -40.05 Q49.2 -40.5 48.75 -40.3 L48.35 -40.0 48.25 -39.9 48.15 -39.95 47.55 -40.7 47.2 -40.95 47.1 -40.95 47.1 -41.1 47.0 -41.3 46.9 -41.45 46.5 -41.65 46.5 -41.65 46.5 -41.65 46.5 -41.65 46.3 -41.55 46.2 -41.5 46.1 -41.4 45.1 -40.15"/>
    </path>
    <path d="M41.6 -33.15 L42.8 -34.3 43.0 -34.4 43.1 -34.5 43.25 -34.55 43.5 -34.6 43.5 -34.65 43.6 -34.6 43.95 -34.3 44.1 -34.15 44.1 -33.85 44.1 -33.75 44.1 -33.75 44.1 -33.4 45.05 -33.8 45.15 -33.8 45.25 -33.9 45.85 -33.75 Q46.4 -34.25 46.9 -34.05 L47.1 -33.9 47.25 -33.75 47.35 -33.65 47.35 -33.55 47.35 -33.25 47.35 -32.75 47.35 -32.05 47.35 -31.7 47.35 -31.4 47.35 -31.05 47.35 -30.95 47.3 -30.25 47.3 -30.25 47.1 -30.0 Q46.55 -29.65 45.95 -30.2 L45.85 -30.4 45.85 -30.85 46.0 -31.35 46.1 -31.65 45.9 -31.65 45.7 -31.6 Q45.05 -31.55 44.6 -32.0 L44.1 -31.8 43.8 -31.85 43.6 -31.85 43.5 -31.85 42.95 -32.2 42.75 -32.1 42.55 -32.0 42.55 -32.0 42.25 -31.9 41.95 -32.1 41.7 -32.2 41.6 -32.55 41.6 -32.75 41.6 -33.05 41.6 -33.15" fill="none" stroke="#000000" stroke-linecap="round" stroke-linejoin="round" stroke-opacity="0.0" stroke-width="1.0">
      <animate attributeName="stroke" dur="2s" repeatCount="indefinite" values="#000000;#000001"/>
      <animate attributeName="stroke-width" dur="2s" repeatCount="indefinite" values="0.0;0.0"/>
      <animate attributeName="fill-opacity" dur="2s" repeatCount="indefinite" values="0.0;0.0"/>
      <animate attributeName="d" dur="2s" repeatCount="indefinite" values="M41.6 -33.15 L42.8 -34.3 43.0 -34.4 43.1 -34.5 43.25 -34.55 43.5 -34.6 43.5 -34.65 43.6 -34.6 43.95 -34.3 44.1 -34.15 44.1 -33.85 44.1 -33.75 44.1 -33.75 44.1 -33.4 45.05 -33.8 45.15 -33.8 45.25 -33.9 45.85 -33.75 Q46.4 -34.25 46.9 -34.05 L47.1 -33.9 47.25 -33.75 47.35 -33.65 47.35 -33.55 47.35 -33.25 47.35 -32.75 47.35 -32.05 47.35 -31.7 47.35 -31.4 47.35 -31.05 47.35 -30.95 47.3 -30.25 47.3 -30.25 47.1 -30.0 Q46.55 -29.65 45.95 -30.2 L45.85 -30.4 45.85 -30.85 46.0 -31.35 46.1 -31.65 45.9 -31.65 45.7 -31.6 Q45.05 -31.55 44.6 -32.0 L44.1 -31.8 43.8 -31.85 43.6 -31.85 43.5 -31.85 42.95 -32.2 42.75 -32.1 42.55 -32.0 42.55 -32.0 42.25 -31.9 41.95 -32.1 41.7 -32.2 41.6 -32.55 41.6 -32.75 41.6 -33.05 41.6 -33.15;M45.1 -40.15 L46.1 -41.4 46.2 -41.5 46.3 -41.55 46.5 -41.65 46.5 -41.65 46.5 -41.65 46.5 -41.65 46.9 -41.45 47.0 -41.3 47.1 -41.1 47.1 -40.95 47.2 -40.95 47.55 -40.7 48.15 -39.95 48.25 -39.9 48.35 -40.0 48.75 -40.3 Q49.2 -40.5 49.7 -40.05 L49.85 -39.9 49.85 -39.7 49.85 -39.5 49.85 -39.5 50.0 -39.35 50.25 -39.15 50.35 -38.55 50.35 -38.2 50.7 -37.85 50.85 -37.6 50.85 -37.45 50.65 -37.1 50.65 -37.1 50.5 -36.95 Q49.95 -36.7 49.5 -36.95 L49.2 -37.2 49.15 -37.55 49.1 -37.95 48.9 -38.2 48.8 -38.3 48.6 -38.5 Q48.2 -38.2 47.75 -38.2 L47.15 -38.3 46.95 -38.45 46.9 -38.65 46.85 -38.8 46.3 -38.9 46.0 -38.9 45.85 -38.9 45.75 -38.9 45.5 -39.0 45.2 -39.2 45.15 -39.4 45.1 -39.75 45.1 -39.85 45.1 -40.15 45.1 -40.15"/>
    </path>
  </g>
</svg>
