<?xml version="1.0" encoding="UTF-8" standalone="no"?>
<svg xmlns:xlink="http://www.w3.org/1999/xlink" height="9.0px" width="11.5px" xmlns="http://www.w3.org/2000/svg">
  <g transform="matrix(1.0, 0.0, 0.0, 1.0, -2.85, 55.35)">
    <path d="M2.85 -47.65 L2.95 -47.45 2.95 -47.45 Q3.45 -46.95 3.95 -47.2 L4.15 -47.3 4.25 -47.4 4.25 -47.5 4.4 -47.75 4.8 -48.45 4.85 -48.05 4.95 -47.9 4.95 -47.8 4.95 -47.7 4.95 -47.7 5.25 -47.5 5.35 -47.4 5.65 -47.35 6.0 -47.45 6.1 -47.5 6.35 -47.7 6.35 -47.7 6.35 -47.65 6.35 -47.25 6.45 -46.7 6.45 -46.7 Q6.8 -46.35 7.2 -46.35 L7.75 -46.45 7.9 -46.6 8.1 -46.95 8.1 -47.1 8.1 -47.1 7.6 -47.7 7.6 -48.25 7.6 -48.35 7.6 -48.55 7.6 -48.7 7.6 -49.0 7.6 -49.4 7.55 -49.45 7.45 -49.55 7.45 -49.55 7.1 -49.85 7.0 -49.9 6.45 -49.55 6.2 -49.55 6.1 -49.65 5.95 -49.8 5.5 -50.15 5.15 -49.95 5.05 -49.95 4.35 -49.65 Q3.6 -49.15 3.2 -48.35 L3.1 -48.15 3.0 -47.95 2.95 -47.85 2.85 -47.65" fill="#000000" fill-rule="evenodd" stroke="none">
      <animate attributeName="fill" dur="2s" repeatCount="indefinite" values="#000000;#000001"/>
      <animate attributeName="fill-opacity" dur="2s" repeatCount="indefinite" values="1.0;1.0"/>
      <animate attributeName="d" dur="2s" repeatCount="indefinite" values="M2.85 -47.65 L2.95 -47.45 2.95 -47.45 Q3.45 -46.95 3.95 -47.2 L4.15 -47.3 4.25 -47.4 4.25 -47.5 4.4 -47.75 4.8 -48.45 4.85 -48.05 4.95 -47.9 4.95 -47.8 4.95 -47.7 4.95 -47.7 5.25 -47.5 5.35 -47.4 5.65 -47.35 6.0 -47.45 6.1 -47.5 6.35 -47.7 6.35 -47.7 6.35 -47.65 6.35 -47.25 6.45 -46.7 6.45 -46.7 Q6.8 -46.35 7.2 -46.35 L7.75 -46.45 7.9 -46.6 8.1 -46.95 8.1 -47.1 8.1 -47.1 7.6 -47.7 7.6 -48.25 7.6 -48.35 7.6 -48.55 7.6 -48.7 7.6 -49.0 7.6 -49.4 7.55 -49.45 7.45 -49.55 7.45 -49.55 7.1 -49.85 7.0 -49.9 6.45 -49.55 6.2 -49.55 6.1 -49.65 5.95 -49.8 5.5 -50.15 5.15 -49.95 5.05 -49.95 4.35 -49.65 Q3.6 -49.15 3.2 -48.35 L3.1 -48.15 3.0 -47.95 2.95 -47.85 2.85 -47.65;M5.85 -52.4 L5.85 -52.4 5.9 -52.3 Q6.25 -51.65 7.0 -51.95 L7.15 -52.1 7.25 -52.15 7.3 -52.25 8.2 -52.3 9.3 -52.6 9.8 -52.8 10.0 -52.9 10.05 -53.05 10.1 -53.15 10.1 -53.25 10.5 -53.35 10.6 -53.3 10.6 -52.95 10.7 -52.3 10.7 -52.2 11.25 -51.9 11.5 -52.0 11.5 -52.0 12.0 -52.1 12.6 -52.15 12.6 -52.05 Q12.95 -51.85 13.25 -51.65 L13.75 -51.8 14.1 -52.15 14.35 -52.85 14.35 -53.05 14.35 -53.15 13.85 -53.55 13.0 -53.9 12.75 -53.9 12.5 -53.8 12.35 -53.8 12.35 -54.15 12.35 -54.65 12.35 -54.85 12.25 -54.95 12.2 -55.05 11.75 -55.35 11.75 -55.35 10.75 -54.95 10.45 -54.85 10.2 -54.75 9.9 -54.65 9.2 -54.35 9.1 -54.25 9.0 -54.15 8.6 -53.75 Q7.2 -54.2 6.1 -53.5 L6.1 -53.15 6.05 -52.95 5.95 -52.75 5.85 -52.4"/>
    </path>
    <path d="M2.85 -47.65 L2.95 -47.85 3.0 -47.95 3.1 -48.15 3.2 -48.35 Q3.6 -49.15 4.35 -49.65 L5.05 -49.95 5.15 -49.95 5.5 -50.15 5.95 -49.8 6.1 -49.65 6.2 -49.55 6.45 -49.55 7.0 -49.9 7.1 -49.85 7.45 -49.55 7.45 -49.55 7.55 -49.45 7.6 -49.4 7.6 -49.0 7.6 -48.7 7.6 -48.55 7.6 -48.35 7.6 -48.25 7.6 -47.7 8.1 -47.1 8.1 -47.1 8.1 -46.95 7.9 -46.6 7.75 -46.45 7.2 -46.35 Q6.8 -46.35 6.45 -46.7 L6.45 -46.7 6.35 -47.25 6.35 -47.65 6.35 -47.7 6.35 -47.7 6.1 -47.5 6.0 -47.45 5.65 -47.35 5.35 -47.4 5.25 -47.5 4.95 -47.7 4.95 -47.7 4.95 -47.8 4.95 -47.9 4.85 -48.05 4.8 -48.45 4.4 -47.75 4.25 -47.5 4.25 -47.4 4.15 -47.3 3.95 -47.2 Q3.45 -46.95 2.95 -47.45 L2.95 -47.45 2.85 -47.65" fill="none" stroke="#000000" stroke-linecap="round" stroke-linejoin="round" stroke-opacity="0.0" stroke-width="1.0">
      <animate attributeName="stroke" dur="2s" repeatCount="indefinite" values="#000000;#000001"/>
      <animate attributeName="stroke-width" dur="2s" repeatCount="indefinite" values="0.0;0.0"/>
      <animate attributeName="fill-opacity" dur="2s" repeatCount="indefinite" values="0.0;0.0"/>
      <animate attributeName="d" dur="2s" repeatCount="indefinite" values="M2.85 -47.65 L2.95 -47.85 3.0 -47.95 3.1 -48.15 3.2 -48.35 Q3.6 -49.15 4.35 -49.65 L5.05 -49.95 5.15 -49.95 5.5 -50.15 5.95 -49.8 6.1 -49.65 6.2 -49.55 6.45 -49.55 7.0 -49.9 7.1 -49.85 7.45 -49.55 7.45 -49.55 7.55 -49.45 7.6 -49.4 7.6 -49.0 7.6 -48.7 7.6 -48.55 7.6 -48.35 7.6 -48.25 7.6 -47.7 8.1 -47.1 8.1 -47.1 8.1 -46.95 7.9 -46.6 7.75 -46.45 7.2 -46.35 Q6.8 -46.35 6.45 -46.7 L6.45 -46.7 6.35 -47.25 6.35 -47.65 6.35 -47.7 6.35 -47.7 6.1 -47.5 6.0 -47.45 5.65 -47.35 5.35 -47.4 5.25 -47.5 4.95 -47.7 4.95 -47.7 4.95 -47.8 4.95 -47.9 4.85 -48.05 4.8 -48.45 4.4 -47.75 4.25 -47.5 4.25 -47.4 4.15 -47.3 3.95 -47.2 Q3.45 -46.95 2.95 -47.45 L2.95 -47.45 2.85 -47.65;M5.85 -52.4 L5.95 -52.75 6.05 -52.95 6.1 -53.15 6.1 -53.5 Q7.2 -54.2 8.6 -53.75 L9.0 -54.15 9.1 -54.25 9.2 -54.35 9.9 -54.65 10.2 -54.75 10.45 -54.85 10.75 -54.95 11.75 -55.35 11.75 -55.35 12.2 -55.05 12.25 -54.95 12.35 -54.85 12.35 -54.65 12.35 -54.15 12.35 -53.8 12.5 -53.8 12.75 -53.9 13.0 -53.9 13.85 -53.55 14.35 -53.15 14.35 -53.05 14.35 -52.85 14.1 -52.15 13.75 -51.8 13.25 -51.65 Q12.95 -51.85 12.6 -52.05 L12.6 -52.15 12.0 -52.1 11.5 -52.0 11.5 -52.0 11.25 -51.9 10.7 -52.2 10.7 -52.3 10.6 -52.95 10.6 -53.3 10.5 -53.35 10.1 -53.25 10.1 -53.15 10.05 -53.05 10.0 -52.9 9.8 -52.8 9.3 -52.6 8.2 -52.3 7.3 -52.25 7.25 -52.15 7.15 -52.1 7.0 -51.95 Q6.25 -51.65 5.9 -52.3 L5.85 -52.4 5.85 -52.4"/>
    </path>
  </g>
</svg>
