<?xml version="1.0" encoding="UTF-8" standalone="no"?>
<svg xmlns:xlink="http://www.w3.org/1999/xlink" height="86.75px" width="75.7px" xmlns="http://www.w3.org/2000/svg">
  <g transform="matrix(1.0, 0.0, 0.0, 1.0, 20.65, 73.2)">
    <path d="M-20.55 -6.35 Q-20.05 2.85 -13.05 8.15 L-9.2 10.6 Q-3.7 13.45 3.0 13.55 7.75 13.65 12.1 12.55 16.1 11.55 19.7 9.55 L26.35 5.55 Q27.2 2.4 30.05 0.25 L31.55 -0.7 Q34.55 -2.4 36.85 -5.05 37.6 -5.95 38.75 -6.4 L40.35 -6.9 Q37.4 -6.45 35.4 -8.35 34.75 -9.0 34.65 -9.75 34.55 -10.45 35.0 -11.25 L35.25 -11.65 Q38.55 -17.35 44.7 -20.1 47.2 -21.2 49.0 -23.25 L48.25 -23.5 Q44.5 -25.05 46.15 -29.75 L47.05 -31.8 Q48.55 -34.45 51.4 -36.2 L53.45 -37.55 55.0 -38.7 55.05 -40.9 55.05 -42.7 55.05 -42.8 Q51.05 -41.0 48.65 -45.25 L48.55 -45.35 Q47.55 -47.1 47.6 -49.25 L47.6 -49.35 Q47.7 -52.35 48.95 -54.95 L49.95 -56.7 Q48.0 -55.15 45.9 -52.45 L45.3 -51.35 44.3 -49.3 43.65 -47.45 43.55 -46.95 43.3 -45.6 43.2 -45.0 43.0 -43.15 Q42.75 -39.1 41.25 -35.3 40.7 -34.15 40.2 -33.0 L39.4 -31.65 Q38.45 -30.35 37.15 -29.3 36.55 -28.25 35.95 -27.2 34.1 -24.5 31.4 -22.45 L30.15 -21.6 29.6 -21.3 29.2 -21.05 28.05 -20.5 27.65 -20.35 Q22.2 -18.35 20.4 -23.05 20.0 -24.05 20.1 -25.15 20.25 -27.5 21.25 -29.5 22.2 -31.5 24.05 -33.15 L25.55 -34.5 26.65 -35.5 Q30.55 -39.05 34.45 -42.55 L35.0 -43.05 Q35.6 -43.6 35.8 -44.35 L35.45 -44.25 Q34.35 -44.3 33.3 -44.3 32.65 -44.65 32.2 -45.45 30.9 -47.6 32.3 -49.55 L33.05 -50.5 Q34.65 -52.55 36.55 -54.0 L38.65 -55.35 Q39.55 -56.2 40.7 -56.85 43.5 -58.45 45.25 -60.75 46.8 -62.75 47.55 -65.35 L47.75 -67.5 47.65 -68.95 41.15 -65.8 Q39.1 -64.75 36.9 -64.15 L36.8 -64.15 Q32.5 -63.1 31.85 -66.7 L31.75 -68.05 Q31.8 -68.8 32.0 -69.45 32.55 -71.15 34.45 -72.3 L35.9 -73.2 33.15 -72.9 Q31.1 -72.35 29.1 -71.8 L27.6 -71.15 Q25.0 -68.35 23.8 -64.6 L23.2 -62.35 Q22.65 -59.85 22.8 -57.25 L22.95 -55.45 22.95 -55.35 23.15 -52.55 Q23.2 -47.5 20.55 -43.5 19.4 -41.75 17.75 -40.2 12.75 -35.5 6.7 -38.45 5.15 -39.2 5.1 -40.95 5.05 -42.05 5.3 -42.95 5.95 -45.5 8.9 -46.6 11.95 -47.75 14.1 -50.0 15.8 -51.8 16.45 -54.2 L16.45 -54.3 Q17.3 -57.5 17.15 -61.0 L17.05 -63.4 17.05 -65.2 13.9 -62.95 13.7 -62.8 13.0 -62.25 12.25 -61.65 12.05 -61.05 Q9.95 -55.35 3.6 -53.1 2.75 -52.75 2.15 -52.1 L1.55 -51.5 Q0.45 -50.5 -0.65 -49.5 -1.65 -48.7 -2.75 -48.0 -4.3 -46.3 -5.8 -44.6 L-7.9 -42.1 -10.2 -39.05 Q-14.0 -33.85 -16.55 -27.95 L-18.2 -23.55 Q-21.05 -15.25 -20.55 -6.35" fill="url(#gradient0)" fill-rule="evenodd" stroke="none">
      <animate attributeName="d" dur="2s" repeatCount="indefinite" values="M-20.55 -6.35 Q-20.05 2.85 -13.05 8.15 L-9.2 10.6 Q-3.7 13.45 3.0 13.55 7.75 13.65 12.1 12.55 16.1 11.55 19.7 9.55 L26.35 5.55 Q27.2 2.4 30.05 0.25 L31.55 -0.7 Q34.55 -2.4 36.85 -5.05 37.6 -5.95 38.75 -6.4 L40.35 -6.9 Q37.4 -6.45 35.4 -8.35 34.75 -9.0 34.65 -9.75 34.55 -10.45 35.0 -11.25 L35.25 -11.65 Q38.55 -17.35 44.7 -20.1 47.2 -21.2 49.0 -23.25 L48.25 -23.5 Q44.5 -25.05 46.15 -29.75 L47.05 -31.8 Q48.55 -34.45 51.4 -36.2 L53.45 -37.55 55.0 -38.7 55.05 -40.9 55.05 -42.7 55.05 -42.8 Q51.05 -41.0 48.65 -45.25 L48.55 -45.35 Q47.55 -47.1 47.6 -49.25 L47.6 -49.35 Q47.7 -52.35 48.95 -54.95 L49.95 -56.7 Q48.0 -55.15 45.9 -52.45 L45.3 -51.35 44.3 -49.3 43.65 -47.45 43.55 -46.95 43.3 -45.6 43.2 -45.0 43.0 -43.15 Q42.75 -39.1 41.25 -35.3 40.7 -34.15 40.2 -33.0 L39.4 -31.65 Q38.45 -30.35 37.15 -29.3 36.55 -28.25 35.95 -27.2 34.1 -24.5 31.4 -22.45 L30.15 -21.6 29.6 -21.3 29.2 -21.05 28.05 -20.5 27.65 -20.35 Q22.2 -18.35 20.4 -23.05 20.0 -24.05 20.1 -25.15 20.25 -27.5 21.25 -29.5 22.2 -31.5 24.05 -33.15 L25.55 -34.5 26.65 -35.5 Q30.55 -39.05 34.45 -42.55 L35.0 -43.05 Q35.6 -43.6 35.8 -44.35 L35.45 -44.25 Q34.35 -44.3 33.3 -44.3 32.65 -44.65 32.2 -45.45 30.9 -47.6 32.3 -49.55 L33.05 -50.5 Q34.65 -52.55 36.55 -54.0 L38.65 -55.35 Q39.55 -56.2 40.7 -56.85 43.5 -58.45 45.25 -60.75 46.8 -62.75 47.55 -65.35 L47.75 -67.5 47.65 -68.95 41.15 -65.8 Q39.1 -64.75 36.9 -64.15 L36.8 -64.15 Q32.5 -63.1 31.85 -66.7 L31.75 -68.05 Q31.8 -68.8 32.0 -69.45 32.55 -71.15 34.45 -72.3 L35.9 -73.2 33.15 -72.9 Q31.1 -72.35 29.1 -71.8 L27.6 -71.15 Q25.0 -68.35 23.8 -64.6 L23.2 -62.35 Q22.65 -59.85 22.8 -57.25 L22.95 -55.45 22.95 -55.35 23.15 -52.55 Q23.2 -47.5 20.55 -43.5 19.4 -41.75 17.75 -40.2 12.75 -35.5 6.7 -38.45 5.15 -39.2 5.1 -40.95 5.05 -42.05 5.3 -42.95 5.95 -45.5 8.9 -46.6 11.95 -47.75 14.1 -50.0 15.8 -51.8 16.45 -54.2 L16.45 -54.3 Q17.3 -57.5 17.15 -61.0 L17.05 -63.4 17.05 -65.2 13.9 -62.95 13.7 -62.8 13.0 -62.25 12.25 -61.65 12.05 -61.05 Q9.95 -55.35 3.6 -53.1 2.75 -52.75 2.15 -52.1 L1.55 -51.5 Q0.45 -50.5 -0.65 -49.5 -1.65 -48.7 -2.75 -48.0 -4.3 -46.3 -5.8 -44.6 L-7.9 -42.1 -10.2 -39.05 Q-14.0 -33.85 -16.55 -27.95 L-18.2 -23.55 Q-21.05 -15.25 -20.55 -6.35;M-20.55 -6.35 Q-20.15 0.95 -15.7 5.8 L-13.05 8.15 Q-8.95 11.25 -4.15 12.55 -0.75 13.5 3.0 13.55 6.25 13.3 9.5 13.1 L15.0 11.65 Q17.4 10.8 19.7 9.55 L20.8 8.95 Q23.1 7.55 25.35 6.15 26.15 5.6 26.95 5.1 L27.95 4.4 Q29.6 3.2 31.25 2.05 31.75 1.65 32.25 1.3 32.65 0.8 33.0 0.3 L33.3 0.0 Q36.9 -3.6 39.9 -7.6 41.15 -9.35 42.35 -11.05 L42.65 -11.55 Q44.3 -14.05 44.85 -17.1 L45.1 -18.8 Q45.3 -21.2 46.8 -23.1 L48.2 -24.5 49.3 -25.35 50.6 -26.2 49.2 -26.05 49.05 -26.05 Q45.85 -25.9 42.9 -27.05 L42.8 -27.05 Q41.2 -27.8 41.05 -29.6 L41.05 -29.7 Q40.9 -32.1 42.7 -33.55 L44.0 -34.4 Q45.95 -35.45 48.45 -35.4 L49.45 -35.35 51.15 -35.5 52.65 -35.85 52.95 -36.15 53.95 -37.1 54.25 -37.35 52.8 -37.3 Q49.65 -37.7 46.5 -38.05 45.45 -38.25 44.75 -38.95 L43.95 -39.9 Q43.25 -41.05 43.15 -42.35 43.05 -43.25 43.25 -44.25 43.85 -46.9 46.85 -47.5 L48.05 -47.75 48.55 -47.85 48.25 -48.15 47.35 -49.15 47.3 -49.35 Q43.35 -49.6 40.55 -47.6 39.9 -47.0 39.25 -46.45 38.15 -45.35 37.3 -43.8 36.35 -42.35 35.45 -40.9 L34.35 -39.4 33.75 -38.6 Q30.9 -35.1 26.25 -37.35 L26.05 -37.45 Q25.3 -37.9 24.9 -38.5 L24.7 -38.85 Q24.35 -39.55 24.4 -40.55 24.45 -41.05 24.45 -41.55 24.65 -43.5 25.1 -45.3 L25.4 -46.2 Q26.1 -48.15 27.5 -49.7 L28.9 -51.1 Q29.75 -51.8 30.55 -52.5 32.4 -53.95 34.5 -55.0 36.4 -55.8 38.25 -56.6 L39.95 -57.1 41.05 -57.4 46.75 -58.2 Q48.55 -58.15 50.3 -58.1 L50.3 -58.1 Q48.55 -59.9 46.45 -61.1 L45.55 -61.6 Q45.0 -61.9 44.5 -62.15 43.0 -62.25 41.5 -62.35 L40.2 -62.5 37.95 -62.85 Q36.15 -63.15 35.8 -65.0 L35.65 -66.2 Q35.3 -69.55 37.1 -71.85 L38.35 -73.15 Q36.3 -73.1 34.25 -73.05 L33.2 -71.9 33.1 -71.8 31.7 -70.25 Q29.15 -67.7 27.25 -64.6 26.3 -63.15 25.35 -61.7 22.6 -57.85 19.05 -54.65 18.05 -53.8 17.1 -53.0 16.45 -52.5 15.85 -52.05 14.25 -50.85 12.5 -49.9 10.3 -48.75 7.9 -48.1 6.0 -47.7 4.1 -47.3 L3.8 -47.3 Q1.25 -46.9 -0.75 -45.35 L-2.1 -44.05 -3.0 -42.95 -4.6 -40.45 -4.65 -40.15 -4.8 -39.5 -5.15 -38.65 -5.45 -38.2 Q-4.7 -32.95 -7.85 -29.3 -8.35 -28.8 -8.8 -28.3 L-9.3 -27.85 Q-10.3 -27.0 -11.35 -27.85 -12.2 -28.5 -12.65 -29.3 -13.45 -30.8 -13.05 -32.8 L-12.65 -35.4 -14.2 -32.75 Q-16.6 -28.35 -18.2 -23.55 L-19.25 -19.9 Q-20.95 -13.3 -20.55 -6.35"/>
    </path>
    <path d="M-20.55 -6.35 Q-21.05 -15.25 -18.2 -23.55 L-16.55 -27.95 Q-14.0 -33.85 -10.2 -39.05 L-7.9 -42.1 -5.8 -44.6 Q-4.3 -46.3 -2.75 -48.0 -1.65 -48.7 -0.65 -49.5 0.45 -50.5 1.55 -51.5 L2.15 -52.1 Q2.75 -52.75 3.6 -53.1 9.95 -55.35 12.05 -61.05 L12.25 -61.65 13.0 -62.25 13.7 -62.8 13.9 -62.95 17.05 -65.2 17.05 -63.4 17.15 -61.0 Q17.3 -57.5 16.45 -54.3 L16.45 -54.2 Q15.8 -51.8 14.1 -50.0 11.95 -47.75 8.9 -46.6 5.95 -45.5 5.3 -42.95 5.05 -42.05 5.1 -40.95 5.15 -39.2 6.7 -38.45 12.75 -35.5 17.75 -40.2 19.4 -41.75 20.55 -43.5 23.2 -47.5 23.15 -52.55 L22.95 -55.35 22.95 -55.45 22.8 -57.25 Q22.65 -59.85 23.2 -62.35 L23.8 -64.6 Q25.0 -68.35 27.6 -71.15 L29.1 -71.8 Q31.1 -72.35 33.15 -72.9 L35.9 -73.2 34.45 -72.3 Q32.55 -71.15 32.0 -69.45 31.8 -68.8 31.75 -68.05 L31.85 -66.7 Q32.5 -63.1 36.8 -64.15 L36.9 -64.15 Q39.1 -64.75 41.15 -65.8 L47.65 -68.95 47.75 -67.5 47.55 -65.35 Q46.8 -62.75 45.25 -60.75 43.5 -58.45 40.7 -56.85 39.55 -56.2 38.65 -55.35 L36.55 -54.0 Q34.65 -52.55 33.05 -50.5 L32.3 -49.55 Q30.9 -47.6 32.2 -45.45 32.65 -44.65 33.3 -44.3 34.35 -44.3 35.45 -44.25 L35.8 -44.35 Q35.6 -43.6 35.0 -43.05 L34.45 -42.55 Q30.55 -39.05 26.65 -35.5 L25.55 -34.5 24.05 -33.15 Q22.2 -31.5 21.25 -29.5 20.25 -27.5 20.1 -25.15 20.0 -24.05 20.4 -23.05 22.2 -18.35 27.65 -20.35 L28.05 -20.5 29.2 -21.05 29.6 -21.3 30.15 -21.6 31.4 -22.45 Q34.1 -24.5 35.95 -27.2 36.55 -28.25 37.15 -29.3 38.45 -30.35 39.4 -31.65 L40.2 -33.0 Q40.7 -34.15 41.25 -35.3 42.75 -39.1 43.0 -43.15 L43.2 -45.0 43.3 -45.6 43.55 -46.95 43.65 -47.45 44.3 -49.3 45.3 -51.35 45.9 -52.45 Q48.0 -55.15 49.95 -56.7 L48.95 -54.95 Q47.7 -52.35 47.6 -49.35 L47.6 -49.25 Q47.55 -47.1 48.55 -45.35 L48.65 -45.25 Q51.05 -41.0 55.05 -42.8 L55.05 -42.7 55.05 -40.9 55.0 -38.7 53.45 -37.55 51.4 -36.2 Q48.55 -34.45 47.05 -31.8 L46.15 -29.75 Q44.5 -25.05 48.25 -23.5 L49.0 -23.25 Q47.2 -21.2 44.7 -20.1 38.55 -17.35 35.25 -11.65 L35.0 -11.25 Q34.55 -10.45 34.65 -9.75 34.75 -9.0 35.4 -8.35 37.4 -6.45 40.35 -6.9 L38.75 -6.4 Q37.6 -5.95 36.85 -5.05 34.55 -2.4 31.55 -0.7 L30.05 0.25 Q27.2 2.4 26.35 5.55 L19.7 9.55 Q16.1 11.55 12.1 12.55 7.75 13.65 3.0 13.55 -3.7 13.45 -9.2 10.6 L-13.05 8.15 Q-20.05 2.85 -20.55 -6.35" fill="none" stroke="#000000" stroke-linecap="round" stroke-linejoin="round" stroke-opacity="0.0" stroke-width="1.0">
      <animate attributeName="stroke" dur="2s" repeatCount="indefinite" values="#000000;#000001"/>
      <animate attributeName="stroke-width" dur="2s" repeatCount="indefinite" values="0.0;0.0"/>
      <animate attributeName="fill-opacity" dur="2s" repeatCount="indefinite" values="0.0;0.0"/>
      <animate attributeName="d" dur="2s" repeatCount="indefinite" values="M-20.55 -6.35 Q-21.05 -15.25 -18.2 -23.55 L-16.55 -27.95 Q-14.0 -33.85 -10.2 -39.05 L-7.9 -42.1 -5.8 -44.6 Q-4.3 -46.3 -2.75 -48.0 -1.65 -48.7 -0.65 -49.5 0.45 -50.5 1.55 -51.5 L2.15 -52.1 Q2.75 -52.75 3.6 -53.1 9.95 -55.35 12.05 -61.05 L12.25 -61.65 13.0 -62.25 13.7 -62.8 13.9 -62.95 17.05 -65.2 17.05 -63.4 17.15 -61.0 Q17.3 -57.5 16.45 -54.3 L16.45 -54.2 Q15.8 -51.8 14.1 -50.0 11.95 -47.75 8.9 -46.6 5.95 -45.5 5.3 -42.95 5.05 -42.05 5.1 -40.95 5.15 -39.2 6.7 -38.45 12.75 -35.5 17.75 -40.2 19.4 -41.75 20.55 -43.5 23.2 -47.5 23.15 -52.55 L22.95 -55.35 22.95 -55.45 22.8 -57.25 Q22.65 -59.85 23.2 -62.35 L23.8 -64.6 Q25.0 -68.35 27.6 -71.15 L29.1 -71.8 Q31.1 -72.35 33.15 -72.9 L35.9 -73.2 34.45 -72.3 Q32.55 -71.15 32.0 -69.45 31.8 -68.8 31.75 -68.05 L31.85 -66.7 Q32.5 -63.1 36.8 -64.15 L36.9 -64.15 Q39.1 -64.75 41.15 -65.8 L47.65 -68.95 47.75 -67.5 47.55 -65.35 Q46.8 -62.75 45.25 -60.75 43.5 -58.45 40.7 -56.85 39.55 -56.2 38.65 -55.35 L36.55 -54.0 Q34.65 -52.55 33.05 -50.5 L32.3 -49.55 Q30.9 -47.6 32.2 -45.45 32.65 -44.65 33.3 -44.3 34.35 -44.3 35.45 -44.25 L35.8 -44.35 Q35.6 -43.6 35.0 -43.05 L34.45 -42.55 Q30.55 -39.05 26.65 -35.5 L25.55 -34.5 24.05 -33.15 Q22.2 -31.5 21.25 -29.5 20.25 -27.5 20.1 -25.15 20.0 -24.05 20.4 -23.05 22.2 -18.35 27.65 -20.35 L28.05 -20.5 29.2 -21.05 29.6 -21.3 30.15 -21.6 31.4 -22.45 Q34.1 -24.5 35.95 -27.2 36.55 -28.25 37.15 -29.3 38.45 -30.35 39.4 -31.65 L40.2 -33.0 Q40.7 -34.15 41.25 -35.3 42.75 -39.1 43.0 -43.15 L43.2 -45.0 43.3 -45.6 43.55 -46.95 43.65 -47.45 44.3 -49.3 45.3 -51.35 45.9 -52.45 Q48.0 -55.15 49.95 -56.7 L48.95 -54.95 Q47.7 -52.35 47.6 -49.35 L47.6 -49.25 Q47.55 -47.1 48.55 -45.35 L48.65 -45.25 Q51.05 -41.0 55.05 -42.8 L55.05 -42.7 55.05 -40.9 55.0 -38.7 53.45 -37.55 51.4 -36.2 Q48.55 -34.45 47.05 -31.8 L46.15 -29.75 Q44.5 -25.05 48.25 -23.5 L49.0 -23.25 Q47.2 -21.2 44.7 -20.1 38.55 -17.35 35.25 -11.65 L35.0 -11.25 Q34.55 -10.45 34.65 -9.75 34.75 -9.0 35.4 -8.35 37.4 -6.45 40.35 -6.9 L38.75 -6.4 Q37.6 -5.95 36.85 -5.05 34.55 -2.4 31.55 -0.7 L30.05 0.25 Q27.2 2.4 26.35 5.55 L19.7 9.55 Q16.1 11.55 12.1 12.55 7.75 13.65 3.0 13.55 -3.7 13.45 -9.2 10.6 L-13.05 8.15 Q-20.05 2.85 -20.55 -6.35;M-20.55 -6.35 Q-20.95 -13.3 -19.25 -19.9 L-18.2 -23.55 Q-16.6 -28.35 -14.2 -32.75 L-12.65 -35.4 -13.05 -32.8 Q-13.45 -30.8 -12.65 -29.3 -12.2 -28.5 -11.35 -27.85 -10.3 -27.0 -9.3 -27.85 L-8.8 -28.3 Q-8.35 -28.8 -7.85 -29.3 -4.7 -32.95 -5.45 -38.2 L-5.15 -38.65 -4.8 -39.5 -4.65 -40.15 -4.6 -40.45 -3.0 -42.95 -2.1 -44.05 -0.75 -45.35 Q1.25 -46.9 3.8 -47.3 L4.1 -47.3 Q6.0 -47.7 7.9 -48.1 10.3 -48.75 12.5 -49.9 14.25 -50.85 15.85 -52.05 16.45 -52.5 17.1 -53.0 18.05 -53.8 19.05 -54.65 22.6 -57.85 25.35 -61.7 26.3 -63.15 27.25 -64.6 29.15 -67.7 31.7 -70.25 L33.1 -71.8 33.2 -71.9 34.25 -73.05 Q36.3 -73.1 38.35 -73.15 L37.1 -71.85 Q35.3 -69.55 35.65 -66.2 L35.8 -65.0 Q36.15 -63.15 37.95 -62.85 L40.2 -62.5 41.5 -62.35 Q43.0 -62.25 44.5 -62.15 45.0 -61.9 45.55 -61.6 L46.45 -61.1 Q48.55 -59.9 50.3 -58.1 L50.3 -58.1 Q48.55 -58.15 46.75 -58.2 L41.05 -57.4 39.95 -57.1 38.25 -56.6 Q36.4 -55.8 34.5 -55.0 32.4 -53.95 30.55 -52.5 29.75 -51.8 28.9 -51.1 L27.5 -49.7 Q26.1 -48.15 25.4 -46.2 L25.1 -45.3 Q24.65 -43.5 24.45 -41.55 24.45 -41.05 24.4 -40.55 24.35 -39.55 24.7 -38.85 L24.9 -38.5 Q25.3 -37.9 26.05 -37.45 L26.25 -37.35 Q30.9 -35.1 33.75 -38.6 L34.35 -39.4 35.45 -40.9 Q36.35 -42.35 37.3 -43.8 38.15 -45.35 39.25 -46.45 39.9 -47.0 40.55 -47.6 43.35 -49.6 47.3 -49.35 L47.35 -49.15 48.25 -48.15 48.55 -47.85 48.05 -47.75 46.85 -47.5 Q43.85 -46.9 43.25 -44.25 43.05 -43.25 43.15 -42.35 43.25 -41.05 43.95 -39.9 L44.75 -38.95 Q45.45 -38.25 46.5 -38.05 49.65 -37.7 52.8 -37.3 L54.25 -37.35 53.95 -37.1 52.95 -36.15 52.65 -35.85 51.15 -35.5 49.45 -35.35 48.45 -35.4 Q45.95 -35.45 44.0 -34.4 L42.7 -33.55 Q40.9 -32.1 41.05 -29.7 L41.05 -29.6 Q41.2 -27.8 42.8 -27.05 L42.9 -27.05 Q45.85 -25.9 49.05 -26.05 L49.2 -26.05 50.6 -26.2 49.3 -25.35 48.2 -24.5 46.8 -23.1 Q45.3 -21.2 45.1 -18.8 L44.85 -17.1 Q44.3 -14.05 42.65 -11.55 L42.35 -11.05 Q41.15 -9.35 39.9 -7.6 36.9 -3.6 33.3 0.0 L33.0 0.3 Q32.65 0.8 32.25 1.3 31.75 1.65 31.25 2.05 29.6 3.2 27.95 4.4 L26.95 5.1 Q26.15 5.6 25.35 6.15 23.1 7.55 20.8 8.95 L19.7 9.55 Q17.4 10.8 15.0 11.65 L9.5 13.1 Q6.25 13.3 3.0 13.55 -0.75 13.5 -4.15 12.55 -8.95 11.25 -13.05 8.15 L-15.7 5.8 Q-20.15 0.95 -20.55 -6.35"/>
    </path>
  </g>
  <defs>
    <radialGradient cx="0" cy="0" gradientTransform="matrix(0.0403, 0.0073, -0.0084, 0.0459, 8.15, -14.15)" gradientUnits="userSpaceOnUse" id="gradient0" r="819.2" spreadMethod="pad">
      <animateTransform additive="replace" attributeName="gradientTransform" dur="2s" from="1" repeatCount="indefinite" to="1" type="scale"/>
      <animateTransform additive="sum" attributeName="gradientTransform" dur="2s" from="8.15 -14.15" repeatCount="indefinite" to="8.15 -14.15" type="translate"/>
      <animateTransform additive="sum" attributeName="gradientTransform" dur="2s" from="10.3087" repeatCount="indefinite" to="10.3087" type="rotate"/>
      <animateTransform additive="sum" attributeName="gradientTransform" dur="2s" from="0.0409 0.0467" repeatCount="indefinite" to="0.0409 0.0467" type="scale"/>
      <animateTransform additive="sum" attributeName="gradientTransform" dur="2s" from="-0.0147" repeatCount="indefinite" to="-0.0147" type="skewX"/>
      <stop offset="0.0" stop-color="#fefe0c">
        <animate attributeName="offset" dur="2s" repeatCount="indefinite" values="0.0;0.0"/>
        <animate attributeName="stop-color" dur="2s" repeatCount="indefinite" values="#fefe0c;#fefe0d"/>
        <animate attributeName="stop-opacity" dur="2s" repeatCount="indefinite" values="1.0;1.0"/>
      </stop>
      <stop offset="0.5764705882352941" stop-color="#ffba2b">
        <animate attributeName="offset" dur="2s" repeatCount="indefinite" values="0.5764705882352941;0.5764705882352941"/>
        <animate attributeName="stop-color" dur="2s" repeatCount="indefinite" values="#ffba2b;#ffba2c"/>
        <animate attributeName="stop-opacity" dur="2s" repeatCount="indefinite" values="1.0;1.0"/>
      </stop>
      <stop offset="1.0" stop-color="#ff720b">
        <animate attributeName="offset" dur="2s" repeatCount="indefinite" values="1.0;1.0"/>
        <animate attributeName="stop-color" dur="2s" repeatCount="indefinite" values="#ff720b;#ff720c"/>
        <animate attributeName="stop-opacity" dur="2s" repeatCount="indefinite" values="1.0;1.0"/>
      </stop>
    </radialGradient>
  </defs>
</svg>
