<?xml version="1.0" encoding="UTF-8" standalone="no"?>
<svg xmlns:xlink="http://www.w3.org/1999/xlink" height="7.0px" width="8.5px" xmlns="http://www.w3.org/2000/svg">
  <g transform="matrix(1.0, 0.0, 0.0, 1.0, -5.85, 58.65)">
    <path d="M5.85 -52.4 L5.85 -52.4 5.95 -52.25 6.1 -52.0 6.25 -51.9 6.6 -51.85 6.8 -51.9 7.0 -51.95 7.15 -52.1 7.3 -52.25 9.35 -52.6 9.8 -52.8 10.0 -52.9 10.05 -53.05 10.1 -53.25 10.5 -53.35 10.6 -53.35 10.6 -53.3 10.6 -52.95 10.6 -52.95 10.6 -52.65 10.7 -52.2 10.7 -52.2 11.05 -52.0 11.25 -51.9 11.85 -52.1 12.6 -52.15 12.6 -52.05 13.25 -51.65 Q13.6 -51.75 13.8 -51.9 L14.0 -52.1 Q14.35 -52.5 14.35 -53.15 L14.35 -53.15 Q13.85 -53.75 13.05 -53.85 L12.75 -53.9 12.5 -53.8 12.35 -53.8 12.35 -53.95 12.35 -54.15 12.35 -54.25 12.35 -54.75 12.35 -54.85 12.2 -55.05 12.1 -55.15 11.95 -55.25 11.75 -55.35 11.35 -55.25 11.15 -55.15 Q10.5 -54.85 9.85 -54.55 L9.85 -54.55 9.65 -54.45 9.35 -54.35 9.1 -54.25 9.0 -54.15 9.0 -54.15 8.6 -53.75 8.4 -53.8 8.0 -53.9 7.6 -53.95 7.2 -53.9 6.3 -53.6 6.1 -53.5 6.1 -53.35 6.1 -53.15 6.05 -53.05 6.05 -52.95 5.95 -52.75 5.9 -52.65 5.85 -52.4" fill="#000000" fill-rule="evenodd" stroke="none">
      <animate attributeName="fill" dur="2s" repeatCount="indefinite" values="#000000;#000001"/>
      <animate attributeName="fill-opacity" dur="2s" repeatCount="indefinite" values="1.0;1.0"/>
      <animate attributeName="d" dur="2s" repeatCount="indefinite" values="M5.85 -52.4 L5.85 -52.4 5.95 -52.25 6.1 -52.0 6.25 -51.9 6.6 -51.85 6.8 -51.9 7.0 -51.95 7.15 -52.1 7.3 -52.25 9.35 -52.6 9.8 -52.8 10.0 -52.9 10.05 -53.05 10.1 -53.25 10.5 -53.35 10.6 -53.35 10.6 -53.3 10.6 -52.95 10.6 -52.95 10.6 -52.65 10.7 -52.2 10.7 -52.2 11.05 -52.0 11.25 -51.9 11.85 -52.1 12.6 -52.15 12.6 -52.05 13.25 -51.65 Q13.6 -51.75 13.8 -51.9 L14.0 -52.1 Q14.35 -52.5 14.35 -53.15 L14.35 -53.15 Q13.85 -53.75 13.05 -53.85 L12.75 -53.9 12.5 -53.8 12.35 -53.8 12.35 -53.95 12.35 -54.15 12.35 -54.25 12.35 -54.75 12.35 -54.85 12.2 -55.05 12.1 -55.15 11.95 -55.25 11.75 -55.35 11.35 -55.25 11.15 -55.15 Q10.5 -54.85 9.85 -54.55 L9.85 -54.55 9.65 -54.45 9.35 -54.35 9.1 -54.25 9.0 -54.15 9.0 -54.15 8.6 -53.75 8.4 -53.8 8.0 -53.9 7.6 -53.95 7.2 -53.9 6.3 -53.6 6.1 -53.5 6.1 -53.35 6.1 -53.15 6.05 -53.05 6.05 -52.95 5.95 -52.75 5.9 -52.65 5.85 -52.4;M8.35 -56.5 L8.5 -56.25 8.5 -56.15 8.6 -55.95 8.6 -55.75 8.65 -55.4 8.7 -55.2 9.1 -55.1 9.3 -55.05 9.5 -54.95 11.1 -54.8 11.35 -54.5 11.5 -54.25 11.6 -54.05 11.6 -53.95 11.65 -53.65 11.65 -53.55 11.65 -53.45 11.7 -53.2 11.8 -53.15 11.9 -53.05 12.25 -52.9 12.25 -52.9 12.5 -52.95 12.6 -53.05 12.85 -53.25 13.3 -53.8 13.3 -53.8 13.4 -54.55 Q13.35 -54.85 13.35 -55.15 L13.25 -55.3 Q12.9 -55.5 12.55 -55.7 L12.35 -55.7 Q11.75 -56.1 11.2 -56.45 L11.4 -56.55 11.5 -56.65 11.6 -56.7 11.6 -56.8 11.7 -56.9 11.7 -57.0 11.95 -57.2 12.1 -57.3 12.2 -57.4 12.3 -57.55 12.35 -57.75 12.35 -57.95 12.35 -58.15 12.25 -58.3 Q11.85 -58.75 11.25 -58.65 L11.25 -58.6 11.0 -58.55 10.85 -58.5 10.7 -58.3 10.6 -58.2 10.5 -58.15 9.95 -57.85 9.6 -57.75 9.5 -57.6 9.4 -57.45 9.3 -57.25 8.75 -57.05 8.65 -57.0 8.6 -57.0 8.6 -56.9 8.5 -56.85 8.5 -56.75 8.4 -56.7 8.4 -56.7 8.35 -56.5"/>
    </path>
    <path d="M5.85 -52.4 L5.9 -52.65 5.95 -52.75 6.05 -52.95 6.05 -53.05 6.1 -53.15 6.1 -53.35 6.1 -53.5 6.3 -53.6 7.2 -53.9 7.6 -53.95 8.0 -53.9 8.4 -53.8 8.6 -53.75 9.0 -54.15 9.0 -54.15 9.1 -54.25 9.35 -54.35 9.65 -54.45 9.85 -54.55 9.85 -54.55 Q10.5 -54.85 11.15 -55.15 L11.35 -55.25 11.75 -55.35 11.95 -55.25 12.1 -55.15 12.2 -55.05 12.35 -54.85 12.35 -54.75 12.35 -54.25 12.35 -54.15 12.35 -53.95 12.35 -53.8 12.5 -53.8 12.75 -53.9 13.05 -53.85 Q13.85 -53.75 14.35 -53.15 L14.35 -53.15 Q14.35 -52.5 14.0 -52.1 L13.8 -51.9 Q13.6 -51.75 13.25 -51.65 L12.6 -52.05 12.6 -52.15 11.85 -52.1 11.25 -51.9 11.05 -52.0 10.7 -52.2 10.7 -52.2 10.6 -52.65 10.6 -52.95 10.6 -52.95 10.6 -53.3 10.6 -53.35 10.5 -53.35 10.1 -53.25 10.05 -53.05 10.0 -52.9 9.8 -52.8 9.35 -52.6 7.3 -52.25 7.15 -52.1 7.0 -51.95 6.8 -51.9 6.6 -51.85 6.25 -51.9 6.1 -52.0 5.95 -52.25 5.85 -52.4 5.85 -52.4" fill="none" stroke="#000000" stroke-linecap="round" stroke-linejoin="round" stroke-opacity="0.0" stroke-width="1.0">
      <animate attributeName="stroke" dur="2s" repeatCount="indefinite" values="#000000;#000001"/>
      <animate attributeName="stroke-width" dur="2s" repeatCount="indefinite" values="0.0;0.0"/>
      <animate attributeName="fill-opacity" dur="2s" repeatCount="indefinite" values="0.0;0.0"/>
      <animate attributeName="d" dur="2s" repeatCount="indefinite" values="M5.85 -52.4 L5.9 -52.65 5.95 -52.75 6.05 -52.95 6.05 -53.05 6.1 -53.15 6.1 -53.35 6.1 -53.5 6.3 -53.6 7.2 -53.9 7.6 -53.95 8.0 -53.9 8.4 -53.8 8.6 -53.75 9.0 -54.15 9.0 -54.15 9.1 -54.25 9.35 -54.35 9.65 -54.45 9.85 -54.55 9.85 -54.55 Q10.5 -54.85 11.15 -55.15 L11.35 -55.25 11.75 -55.35 11.95 -55.25 12.1 -55.15 12.2 -55.05 12.35 -54.85 12.35 -54.75 12.35 -54.25 12.35 -54.15 12.35 -53.95 12.35 -53.8 12.5 -53.8 12.75 -53.9 13.05 -53.85 Q13.85 -53.75 14.35 -53.15 L14.35 -53.15 Q14.35 -52.5 14.0 -52.1 L13.8 -51.9 Q13.6 -51.75 13.25 -51.65 L12.6 -52.05 12.6 -52.15 11.85 -52.1 11.25 -51.9 11.05 -52.0 10.7 -52.2 10.7 -52.2 10.6 -52.65 10.6 -52.95 10.6 -52.95 10.6 -53.3 10.6 -53.35 10.5 -53.35 10.1 -53.25 10.05 -53.05 10.0 -52.9 9.8 -52.8 9.35 -52.6 7.3 -52.25 7.15 -52.1 7.0 -51.95 6.8 -51.9 6.6 -51.85 6.25 -51.9 6.1 -52.0 5.95 -52.25 5.85 -52.4 5.85 -52.4;M8.35 -56.5 L8.4 -56.7 8.4 -56.7 8.5 -56.75 8.5 -56.85 8.6 -56.9 8.6 -57.0 8.65 -57.0 8.75 -57.05 9.3 -57.25 9.4 -57.45 9.5 -57.6 9.6 -57.75 9.95 -57.85 10.5 -58.15 10.6 -58.2 10.7 -58.3 10.85 -58.5 11.0 -58.55 11.25 -58.6 11.25 -58.65 Q11.85 -58.75 12.25 -58.3 L12.35 -58.15 12.35 -57.95 12.35 -57.75 12.3 -57.55 12.2 -57.4 12.1 -57.3 11.95 -57.2 11.7 -57.0 11.7 -56.9 11.6 -56.8 11.6 -56.7 11.5 -56.65 11.4 -56.55 11.2 -56.45 Q11.75 -56.1 12.35 -55.7 L12.55 -55.7 Q12.9 -55.5 13.25 -55.3 L13.35 -55.15 Q13.35 -54.85 13.4 -54.55 L13.3 -53.8 13.3 -53.8 12.85 -53.25 12.6 -53.05 12.5 -52.95 12.25 -52.9 12.25 -52.9 11.9 -53.05 11.8 -53.15 11.7 -53.2 11.65 -53.45 11.65 -53.55 11.65 -53.65 11.6 -53.95 11.6 -54.05 11.5 -54.25 11.35 -54.5 11.1 -54.8 9.5 -54.95 9.3 -55.05 9.1 -55.1 8.7 -55.2 8.65 -55.4 8.6 -55.75 8.6 -55.95 8.5 -56.15 8.5 -56.25 8.35 -56.5"/>
    </path>
  </g>
</svg>
