<?xml version="1.0" encoding="UTF-8" standalone="no"?>
<svg xmlns:xlink="http://www.w3.org/1999/xlink" height="11.25px" width="8.75px" xmlns="http://www.w3.org/2000/svg">
  <g transform="matrix(1.0, 0.0, 0.0, 1.0, 17.15, 31.65)">
    <path d="M-17.15 -22.5 L-17.15 -22.5 -17.15 -22.15 -17.15 -21.95 -17.05 -21.6 -17.05 -21.4 -17.05 -21.3 -17.05 -21.2 -16.5 -20.9 -16.25 -20.95 -16.25 -20.95 -16.05 -21.05 -16.0 -21.25 -15.9 -21.45 -15.8 -21.8 -15.5 -21.85 -15.15 -21.9 Q-14.95 -21.1 -14.3 -20.9 L-14.1 -20.9 -14.0 -20.9 -13.95 -20.9 -13.65 -21.05 -13.15 -21.15 -12.9 -21.05 -12.85 -20.9 -12.75 -20.65 -12.5 -20.45 -12.35 -20.4 -12.25 -20.4 -12.15 -20.4 -12.0 -20.45 -11.9 -20.45 -11.9 -20.5 -11.75 -20.65 -11.65 -21.0 Q-11.55 -21.6 -11.75 -22.15 L-12.0 -22.35 -12.0 -22.35 -12.15 -22.5 -12.15 -22.5 -12.15 -22.7 -12.15 -22.9 -12.25 -23.05 -12.35 -23.15 -12.6 -23.35 -13.0 -23.4 -13.65 -23.15 -14.05 -23.05 -14.15 -23.55 -14.15 -24.15 -14.25 -24.3 -14.6 -24.6 -15.0 -24.65 -15.0 -24.6 -15.25 -24.55 -15.4 -24.5 -15.95 -24.05 -16.3 -23.8 -16.35 -23.7 -16.35 -23.6 -16.4 -23.45 -16.6 -23.25 -17.15 -22.5" fill="#000000" fill-rule="evenodd" stroke="none">
      <animate attributeName="fill" dur="2s" repeatCount="indefinite" values="#000000;#000001"/>
      <animate attributeName="fill-opacity" dur="2s" repeatCount="indefinite" values="1.0;1.0"/>
      <animate attributeName="d" dur="2s" repeatCount="indefinite" values="M-17.15 -22.5 L-17.15 -22.5 -17.15 -22.15 -17.15 -21.95 -17.05 -21.6 -17.05 -21.4 -17.05 -21.3 -17.05 -21.2 -16.5 -20.9 -16.25 -20.95 -16.25 -20.95 -16.05 -21.05 -16.0 -21.25 -15.9 -21.45 -15.8 -21.8 -15.5 -21.85 -15.15 -21.9 Q-14.95 -21.1 -14.3 -20.9 L-14.1 -20.9 -14.0 -20.9 -13.95 -20.9 -13.65 -21.05 -13.15 -21.15 -12.9 -21.05 -12.85 -20.9 -12.75 -20.65 -12.5 -20.45 -12.35 -20.4 -12.25 -20.4 -12.15 -20.4 -12.0 -20.45 -11.9 -20.45 -11.9 -20.5 -11.75 -20.65 -11.65 -21.0 Q-11.55 -21.6 -11.75 -22.15 L-12.0 -22.35 -12.0 -22.35 -12.15 -22.5 -12.15 -22.5 -12.15 -22.7 -12.15 -22.9 -12.25 -23.05 -12.35 -23.15 -12.6 -23.35 -13.0 -23.4 -13.65 -23.15 -14.05 -23.05 -14.15 -23.55 -14.15 -24.15 -14.25 -24.3 -14.6 -24.6 -15.0 -24.65 -15.0 -24.6 -15.25 -24.55 -15.4 -24.5 -15.95 -24.05 -16.3 -23.8 -16.35 -23.7 -16.35 -23.6 -16.4 -23.45 -16.6 -23.25 -17.15 -22.5;M-14.3 -29.2 L-14.05 -29.0 -13.85 -28.9 -13.75 -28.9 -13.5 -28.95 -13.4 -29.0 -13.3 -28.95 -13.15 -28.8 -12.55 -28.6 -12.15 -28.75 -12.15 -28.75 -12.0 -28.95 -11.9 -29.05 -11.75 -29.35 -11.65 -29.75 -11.4 -29.3 -11.1 -29.05 Q-10.55 -29.0 -10.0 -28.95 L-9.8 -29.05 -9.65 -29.15 -9.65 -29.15 -9.65 -28.75 -9.55 -28.2 -9.15 -28.0 -9.1 -28.0 -9.0 -27.9 -8.75 -27.95 -8.65 -28.0 -8.55 -28.05 -8.5 -28.15 -8.45 -28.4 -8.45 -28.5 -8.45 -28.5 -8.45 -28.8 -8.45 -29.35 Q-8.4 -29.95 -8.4 -30.55 L-8.4 -31.05 -8.4 -31.15 -8.5 -31.25 -8.5 -31.3 -8.5 -31.3 -8.65 -31.45 -8.85 -31.6 -9.25 -31.65 -9.5 -31.55 -9.85 -31.4 -10.5 -30.8 -10.5 -30.8 -11.25 -31.3 -11.9 -31.3 -12.1 -31.2 -12.5 -30.8 -12.6 -30.9 -12.7 -30.95 -12.9 -31.1 -13.25 -31.15 -13.9 -31.0 -14.1 -30.8 -14.1 -30.7 -14.15 -30.5 -14.25 -30.4 -14.35 -30.05 -14.3 -29.2"/>
    </path>
    <path d="M-17.15 -22.5 L-16.6 -23.25 -16.4 -23.45 -16.35 -23.6 -16.35 -23.7 -16.3 -23.8 -15.95 -24.05 -15.4 -24.5 -15.25 -24.55 -15.0 -24.6 -15.0 -24.65 -14.6 -24.6 -14.25 -24.3 -14.15 -24.15 -14.15 -23.55 -14.05 -23.05 -13.65 -23.15 -13.0 -23.4 -12.6 -23.35 -12.35 -23.15 -12.25 -23.05 -12.15 -22.9 -12.15 -22.7 -12.15 -22.5 -12.15 -22.5 -12.0 -22.35 -12.0 -22.35 -11.75 -22.15 Q-11.55 -21.6 -11.65 -21.0 L-11.75 -20.65 -11.9 -20.5 -11.9 -20.45 -12.0 -20.45 -12.15 -20.4 -12.25 -20.4 -12.35 -20.4 -12.5 -20.45 -12.75 -20.65 -12.85 -20.9 -12.9 -21.05 -13.15 -21.15 -13.65 -21.05 -13.95 -20.9 -14.0 -20.9 -14.1 -20.9 -14.3 -20.9 Q-14.95 -21.1 -15.15 -21.9 L-15.5 -21.85 -15.8 -21.8 -15.9 -21.45 -16.0 -21.25 -16.05 -21.05 -16.25 -20.95 -16.25 -20.95 -16.5 -20.9 -17.05 -21.2 -17.05 -21.3 -17.05 -21.4 -17.05 -21.6 -17.15 -21.95 -17.15 -22.15 -17.15 -22.5 -17.15 -22.5" fill="none" stroke="#000000" stroke-linecap="round" stroke-linejoin="round" stroke-opacity="0.0" stroke-width="1.0">
      <animate attributeName="stroke" dur="2s" repeatCount="indefinite" values="#000000;#000001"/>
      <animate attributeName="stroke-width" dur="2s" repeatCount="indefinite" values="0.0;0.0"/>
      <animate attributeName="fill-opacity" dur="2s" repeatCount="indefinite" values="0.0;0.0"/>
      <animate attributeName="d" dur="2s" repeatCount="indefinite" values="M-17.15 -22.5 L-16.6 -23.25 -16.4 -23.45 -16.35 -23.6 -16.35 -23.7 -16.3 -23.8 -15.95 -24.05 -15.4 -24.5 -15.25 -24.55 -15.0 -24.6 -15.0 -24.65 -14.6 -24.6 -14.25 -24.3 -14.15 -24.15 -14.15 -23.55 -14.05 -23.05 -13.65 -23.15 -13.0 -23.4 -12.6 -23.35 -12.35 -23.15 -12.25 -23.05 -12.15 -22.9 -12.15 -22.7 -12.15 -22.5 -12.15 -22.5 -12.0 -22.35 -12.0 -22.35 -11.75 -22.15 Q-11.55 -21.6 -11.65 -21.0 L-11.75 -20.65 -11.9 -20.5 -11.9 -20.45 -12.0 -20.45 -12.15 -20.4 -12.25 -20.4 -12.35 -20.4 -12.5 -20.45 -12.75 -20.65 -12.85 -20.9 -12.9 -21.05 -13.15 -21.15 -13.65 -21.05 -13.95 -20.9 -14.0 -20.9 -14.1 -20.9 -14.3 -20.9 Q-14.95 -21.1 -15.15 -21.9 L-15.5 -21.85 -15.8 -21.8 -15.9 -21.45 -16.0 -21.25 -16.05 -21.05 -16.25 -20.95 -16.25 -20.95 -16.5 -20.9 -17.05 -21.2 -17.05 -21.3 -17.05 -21.4 -17.05 -21.6 -17.15 -21.95 -17.15 -22.15 -17.15 -22.5 -17.15 -22.5;M-14.3 -29.2 L-14.35 -30.05 -14.25 -30.4 -14.15 -30.5 -14.1 -30.7 -14.1 -30.8 -13.9 -31.0 -13.25 -31.15 -12.9 -31.1 -12.7 -30.95 -12.6 -30.9 -12.5 -30.8 -12.1 -31.2 -11.9 -31.3 -11.25 -31.3 -10.5 -30.8 -10.5 -30.8 -9.85 -31.4 -9.5 -31.55 -9.25 -31.65 -8.85 -31.6 -8.65 -31.45 -8.5 -31.3 -8.5 -31.3 -8.5 -31.25 -8.4 -31.15 -8.4 -31.05 -8.4 -30.55 Q-8.4 -29.95 -8.45 -29.35 L-8.45 -28.8 -8.45 -28.5 -8.45 -28.5 -8.45 -28.4 -8.5 -28.15 -8.55 -28.05 -8.65 -28.0 -8.75 -27.95 -9.0 -27.9 -9.1 -28.0 -9.15 -28.0 -9.55 -28.2 -9.65 -28.75 -9.65 -29.15 -9.65 -29.15 -9.8 -29.05 -10.0 -28.95 Q-10.55 -29.0 -11.1 -29.05 L-11.4 -29.3 -11.65 -29.75 -11.75 -29.35 -11.9 -29.05 -12.0 -28.95 -12.15 -28.75 -12.15 -28.75 -12.55 -28.6 -13.15 -28.8 -13.3 -28.95 -13.4 -29.0 -13.5 -28.95 -13.75 -28.9 -13.85 -28.9 -14.05 -29.0 -14.3 -29.2"/>
    </path>
  </g>
</svg>
