<?xml version="1.0" encoding="UTF-8" standalone="no"?>
<svg xmlns:xlink="http://www.w3.org/1999/xlink" height="13.25px" width="10.0px" xmlns="http://www.w3.org/2000/svg">
  <g transform="matrix(1.0, 0.0, 0.0, 1.0, -15.85, 48.4)">
    <path d="M15.85 -37.4 L15.85 -37.0 15.95 -36.45 15.95 -36.45 16.3 -36.25 16.5 -36.15 16.75 -36.2 16.75 -36.2 16.85 -36.25 17.0 -36.4 17.05 -36.55 17.5 -37.35 17.8 -37.8 Q17.85 -37.5 18.05 -37.4 L18.15 -37.4 18.45 -37.35 19.0 -37.3 Q19.7 -37.45 20.35 -37.55 L20.35 -37.45 20.35 -37.2 20.35 -36.3 20.35 -36.1 20.45 -35.7 21.0 -35.4 21.3 -35.5 21.8 -36.0 21.8 -35.9 21.85 -35.8 21.9 -35.65 21.95 -35.45 22.15 -35.35 22.5 -35.15 22.6 -35.15 22.75 -35.2 22.85 -35.25 22.95 -35.3 23.0 -35.4 23.1 -35.85 23.1 -35.95 23.1 -37.65 22.45 -38.1 Q22.05 -38.15 21.6 -37.8 L21.6 -37.8 21.6 -37.9 21.6 -38.3 21.6 -38.9 21.45 -39.05 21.45 -39.05 21.15 -39.3 21.0 -39.4 Q20.65 -39.15 20.3 -39.05 L20.1 -38.95 19.4 -38.8 19.3 -38.8 19.1 -38.8 19.1 -39.0 19.1 -39.1 19.1 -39.2 19.1 -39.4 19.0 -39.55 Q18.7 -39.95 18.25 -39.9 L18.25 -39.85 18.1 -39.8 18.0 -39.8 17.95 -39.75 17.85 -39.75 17.75 -39.55 17.65 -39.45 17.65 -39.35 17.45 -39.05 17.2 -38.85 16.9 -38.65 15.85 -37.4" fill="#000000" fill-rule="evenodd" stroke="none">
      <animate attributeName="fill" dur="2s" repeatCount="indefinite" values="#000000;#000001"/>
      <animate attributeName="fill-opacity" dur="2s" repeatCount="indefinite" values="1.0;1.0"/>
      <animate attributeName="d" dur="2s" repeatCount="indefinite" values="M15.85 -37.4 L15.85 -37.0 15.95 -36.45 15.95 -36.45 16.3 -36.25 16.5 -36.15 16.75 -36.2 16.75 -36.2 16.85 -36.25 17.0 -36.4 17.05 -36.55 17.5 -37.35 17.8 -37.8 Q17.85 -37.5 18.05 -37.4 L18.15 -37.4 18.45 -37.35 19.0 -37.3 Q19.7 -37.45 20.35 -37.55 L20.35 -37.45 20.35 -37.2 20.35 -36.3 20.35 -36.1 20.45 -35.7 21.0 -35.4 21.3 -35.5 21.8 -36.0 21.8 -35.9 21.85 -35.8 21.9 -35.65 21.95 -35.45 22.15 -35.35 22.5 -35.15 22.6 -35.15 22.75 -35.2 22.85 -35.25 22.95 -35.3 23.0 -35.4 23.1 -35.85 23.1 -35.95 23.1 -37.65 22.45 -38.1 Q22.05 -38.15 21.6 -37.8 L21.6 -37.8 21.6 -37.9 21.6 -38.3 21.6 -38.9 21.45 -39.05 21.45 -39.05 21.15 -39.3 21.0 -39.4 Q20.65 -39.15 20.3 -39.05 L20.1 -38.95 19.4 -38.8 19.3 -38.8 19.1 -38.8 19.1 -39.0 19.1 -39.1 19.1 -39.2 19.1 -39.4 19.0 -39.55 Q18.7 -39.95 18.25 -39.9 L18.25 -39.85 18.1 -39.8 18.0 -39.8 17.95 -39.75 17.85 -39.75 17.75 -39.55 17.65 -39.45 17.65 -39.35 17.45 -39.05 17.2 -38.85 16.9 -38.65 15.85 -37.4;M19.6 -45.2 L19.6 -45.2 19.65 -44.8 19.65 -44.7 19.7 -44.45 19.95 -44.35 20.25 -44.15 20.25 -44.15 20.45 -44.25 20.65 -44.4 20.75 -44.5 21.2 -45.2 21.7 -45.1 Q21.95 -45.2 22.2 -45.3 L22.2 -45.4 22.3 -45.5 22.55 -45.8 Q22.75 -45.05 23.6 -45.05 L23.6 -45.05 23.9 -44.85 24.6 -44.45 24.6 -44.25 24.6 -43.65 24.6 -43.15 24.6 -42.85 24.7 -42.2 24.7 -42.2 24.9 -42.1 25.0 -42.1 25.15 -42.0 25.25 -41.9 25.45 -42.05 25.55 -42.05 25.65 -42.2 25.75 -42.3 25.85 -42.4 25.85 -42.5 25.85 -42.95 25.85 -42.95 25.85 -44.5 25.85 -45.4 Q25.5 -45.9 24.95 -46.0 L24.85 -46.0 24.85 -46.1 24.7 -46.35 24.15 -46.65 23.95 -46.65 23.85 -46.65 23.85 -46.95 23.85 -47.05 Q23.85 -47.5 23.85 -47.9 L23.7 -48.05 23.25 -48.4 23.25 -48.35 23.15 -48.25 22.95 -48.25 22.85 -48.25 22.85 -48.25 22.85 -48.25 22.85 -48.15 Q22.45 -47.75 22.05 -47.4 L21.95 -47.4 21.75 -47.3 21.75 -47.3 21.55 -47.5 21.45 -47.55 21.25 -47.65 21.1 -47.55 21.0 -47.55 20.7 -47.3 20.45 -47.05 20.35 -46.85 19.6 -45.2"/>
    </path>
    <path d="M15.85 -37.4 L16.9 -38.65 17.2 -38.85 17.45 -39.05 17.65 -39.35 17.65 -39.45 17.75 -39.55 17.85 -39.75 17.95 -39.75 18.0 -39.8 18.1 -39.8 18.25 -39.85 18.25 -39.9 Q18.7 -39.95 19.0 -39.55 L19.1 -39.4 19.1 -39.2 19.1 -39.1 19.1 -39.0 19.1 -38.8 19.3 -38.8 19.4 -38.8 20.1 -38.95 20.3 -39.05 Q20.65 -39.15 21.0 -39.4 L21.15 -39.3 21.45 -39.05 21.45 -39.05 21.6 -38.9 21.6 -38.3 21.6 -37.9 21.6 -37.8 21.6 -37.8 Q22.05 -38.15 22.45 -38.1 L23.1 -37.65 23.1 -35.95 23.1 -35.85 23.0 -35.4 22.95 -35.3 22.85 -35.25 22.75 -35.2 22.6 -35.15 22.5 -35.15 22.15 -35.35 21.95 -35.45 21.9 -35.65 21.85 -35.8 21.8 -35.9 21.8 -36.0 21.3 -35.5 21.0 -35.4 20.45 -35.7 20.35 -36.1 20.35 -36.3 20.35 -37.2 20.35 -37.45 20.35 -37.55 Q19.7 -37.45 19.0 -37.3 L18.45 -37.35 18.15 -37.4 18.05 -37.4 Q17.85 -37.5 17.8 -37.8 L17.5 -37.35 17.05 -36.55 17.0 -36.4 16.85 -36.25 16.75 -36.2 16.75 -36.2 16.5 -36.15 16.3 -36.25 15.95 -36.45 15.95 -36.45 15.85 -37.0 15.85 -37.4" fill="none" stroke="#000000" stroke-linecap="round" stroke-linejoin="round" stroke-opacity="0.0" stroke-width="1.0">
      <animate attributeName="stroke" dur="2s" repeatCount="indefinite" values="#000000;#000001"/>
      <animate attributeName="stroke-width" dur="2s" repeatCount="indefinite" values="0.0;0.0"/>
      <animate attributeName="fill-opacity" dur="2s" repeatCount="indefinite" values="0.0;0.0"/>
      <animate attributeName="d" dur="2s" repeatCount="indefinite" values="M15.85 -37.4 L16.9 -38.65 17.2 -38.85 17.45 -39.05 17.65 -39.35 17.65 -39.45 17.75 -39.55 17.85 -39.75 17.95 -39.75 18.0 -39.8 18.1 -39.8 18.25 -39.85 18.25 -39.9 Q18.7 -39.95 19.0 -39.55 L19.1 -39.4 19.1 -39.2 19.1 -39.1 19.1 -39.0 19.1 -38.8 19.3 -38.8 19.4 -38.8 20.1 -38.95 20.3 -39.05 Q20.65 -39.15 21.0 -39.4 L21.15 -39.3 21.45 -39.05 21.45 -39.05 21.6 -38.9 21.6 -38.3 21.6 -37.9 21.6 -37.8 21.6 -37.8 Q22.05 -38.15 22.45 -38.1 L23.1 -37.65 23.1 -35.95 23.1 -35.85 23.0 -35.4 22.95 -35.3 22.85 -35.25 22.75 -35.2 22.6 -35.15 22.5 -35.15 22.15 -35.35 21.95 -35.45 21.9 -35.65 21.85 -35.8 21.8 -35.9 21.8 -36.0 21.3 -35.5 21.0 -35.4 20.45 -35.7 20.35 -36.1 20.35 -36.3 20.35 -37.2 20.35 -37.45 20.35 -37.55 Q19.7 -37.45 19.0 -37.3 L18.45 -37.35 18.15 -37.4 18.05 -37.4 Q17.85 -37.5 17.8 -37.8 L17.5 -37.35 17.05 -36.55 17.0 -36.4 16.85 -36.25 16.75 -36.2 16.75 -36.2 16.5 -36.15 16.3 -36.25 15.95 -36.45 15.95 -36.45 15.85 -37.0 15.85 -37.4;M19.6 -45.2 L20.35 -46.85 20.45 -47.05 20.7 -47.3 21.0 -47.55 21.1 -47.55 21.25 -47.65 21.45 -47.55 21.55 -47.5 21.75 -47.3 21.75 -47.3 21.95 -47.4 22.05 -47.4 Q22.45 -47.75 22.85 -48.15 L22.85 -48.25 22.85 -48.25 22.85 -48.25 22.95 -48.25 23.15 -48.25 23.25 -48.35 23.25 -48.4 23.7 -48.05 23.85 -47.9 Q23.85 -47.5 23.85 -47.05 L23.85 -46.95 23.85 -46.65 23.95 -46.65 24.15 -46.65 24.7 -46.35 24.85 -46.1 24.85 -46.0 24.95 -46.0 Q25.5 -45.9 25.85 -45.4 L25.85 -44.5 25.85 -42.95 25.85 -42.95 25.85 -42.5 25.85 -42.4 25.75 -42.3 25.65 -42.2 25.55 -42.05 25.45 -42.05 25.25 -41.9 25.15 -42.0 25.0 -42.1 24.9 -42.1 24.7 -42.2 24.7 -42.2 24.6 -42.85 24.6 -43.15 24.6 -43.65 24.6 -44.25 24.6 -44.45 23.9 -44.85 23.6 -45.05 23.6 -45.05 Q22.75 -45.05 22.55 -45.8 L22.3 -45.5 22.2 -45.4 22.2 -45.3 Q21.95 -45.2 21.7 -45.1 L21.2 -45.2 20.75 -44.5 20.65 -44.4 20.45 -44.25 20.25 -44.15 20.25 -44.15 19.95 -44.35 19.7 -44.45 19.65 -44.7 19.65 -44.8 19.6 -45.2 19.6 -45.2"/>
    </path>
  </g>
</svg>
