<?xml version="1.0" encoding="UTF-8" standalone="no"?>
<svg xmlns:xlink="http://www.w3.org/1999/xlink" height="9.05px" width="11.25px" xmlns="http://www.w3.org/2000/svg">
  <g transform="matrix(1.0, 0.0, 0.0, 1.0, -22.1, 14.45)">
    <path d="M22.1 -9.15 L22.1 -9.15 Q22.2 -8.85 22.45 -8.75 L22.85 -8.65 23.0 -8.65 23.4 -8.7 23.6 -8.7 24.6 -8.7 24.6 -8.4 24.65 -7.8 24.7 -7.45 27.1 -6.8 27.1 -6.45 27.1 -6.3 27.15 -6.1 27.2 -5.9 27.2 -5.7 27.3 -5.6 27.75 -5.4 28.0 -5.5 28.1 -5.55 28.2 -5.55 28.25 -5.65 28.3 -5.75 28.3 -5.8 28.45 -6.05 28.7 -6.35 28.8 -6.55 28.8 -6.55 28.85 -6.85 28.85 -6.95 28.85 -7.35 28.85 -7.55 28.85 -7.9 28.85 -7.9 28.75 -8.0 28.55 -8.1 28.35 -8.2 28.15 -8.35 27.9 -8.45 27.5 -8.55 27.1 -8.65 Q26.45 -8.7 25.85 -8.7 L25.85 -8.85 25.85 -9.05 25.85 -9.15 25.85 -9.25 25.85 -9.65 25.85 -9.7 25.75 -9.8 25.1 -10.25 25.1 -10.45 25.1 -10.65 24.95 -10.8 24.95 -10.8 24.85 -10.9 24.5 -11.15 24.5 -11.1 24.25 -11.05 24.1 -11.0 24.1 -11.0 Q22.75 -10.25 22.1 -9.15" fill="#000000" fill-rule="evenodd" stroke="none">
      <animate attributeName="fill" dur="2s" repeatCount="indefinite" values="#000000;#000001"/>
      <animate attributeName="fill-opacity" dur="2s" repeatCount="indefinite" values="1.0;1.0"/>
      <animate attributeName="d" dur="2s" repeatCount="indefinite" values="M22.1 -9.15 L22.1 -9.15 Q22.2 -8.85 22.45 -8.75 L22.85 -8.65 23.0 -8.65 23.4 -8.7 23.6 -8.7 24.6 -8.7 24.6 -8.4 24.65 -7.8 24.7 -7.45 27.1 -6.8 27.1 -6.45 27.1 -6.3 27.15 -6.1 27.2 -5.9 27.2 -5.7 27.3 -5.6 27.75 -5.4 28.0 -5.5 28.1 -5.55 28.2 -5.55 28.25 -5.65 28.3 -5.75 28.3 -5.8 28.45 -6.05 28.7 -6.35 28.8 -6.55 28.8 -6.55 28.85 -6.85 28.85 -6.95 28.85 -7.35 28.85 -7.55 28.85 -7.9 28.85 -7.9 28.75 -8.0 28.55 -8.1 28.35 -8.2 28.15 -8.35 27.9 -8.45 27.5 -8.55 27.1 -8.65 Q26.45 -8.7 25.85 -8.7 L25.85 -8.85 25.85 -9.05 25.85 -9.15 25.85 -9.25 25.85 -9.65 25.85 -9.7 25.75 -9.8 25.1 -10.25 25.1 -10.45 25.1 -10.65 24.95 -10.8 24.95 -10.8 24.85 -10.9 24.5 -11.15 24.5 -11.1 24.25 -11.05 24.1 -11.0 24.1 -11.0 Q22.75 -10.25 22.1 -9.15;M27.6 -12.65 L27.9 -12.4 Q28.1 -12.25 28.25 -12.15 L28.6 -12.3 28.8 -12.45 29.0 -12.3 28.85 -12.15 28.1 -11.5 27.85 -11.2 27.6 -10.65 28.1 -10.35 30.55 -10.25 31.0 -10.4 31.1 -10.4 31.1 -10.2 31.1 -10.0 31.15 -9.75 31.25 -9.65 31.7 -9.25 32.0 -9.15 32.15 -9.2 32.25 -9.2 32.35 -9.2 32.45 -9.3 32.45 -9.3 32.55 -9.5 32.6 -9.9 32.6 -10.05 32.7 -10.05 33.0 -10.3 33.1 -10.4 33.35 -10.65 33.35 -10.8 33.3 -11.2 33.25 -11.4 33.0 -11.6 32.85 -11.75 32.85 -11.95 32.85 -12.15 32.55 -12.45 32.25 -12.65 31.85 -12.55 Q31.15 -12.4 30.7 -11.85 L30.6 -11.75 30.45 -11.75 30.15 -11.75 30.2 -11.8 30.35 -12.1 30.35 -12.2 30.35 -12.2 30.85 -13.0 31.05 -13.3 31.2 -13.5 31.35 -13.7 31.35 -13.7 31.35 -13.85 31.05 -14.25 30.95 -14.3 30.7 -14.4 30.35 -14.4 30.25 -14.4 Q28.4 -14.05 27.6 -12.65"/>
    </path>
    <path d="M22.1 -9.15 Q22.75 -10.25 24.1 -11.0 L24.1 -11.0 24.25 -11.05 24.5 -11.1 24.5 -11.15 24.85 -10.9 24.95 -10.8 24.95 -10.8 25.1 -10.65 25.1 -10.45 25.1 -10.25 25.75 -9.8 25.85 -9.7 25.85 -9.65 25.85 -9.25 25.85 -9.15 25.85 -9.05 25.85 -8.85 25.85 -8.7 Q26.45 -8.7 27.1 -8.65 L27.5 -8.55 27.9 -8.45 28.15 -8.35 28.35 -8.2 28.55 -8.1 28.75 -8.0 28.85 -7.9 28.85 -7.9 28.85 -7.55 28.85 -7.35 28.85 -6.95 28.85 -6.85 28.8 -6.55 28.8 -6.55 28.7 -6.35 28.45 -6.05 28.3 -5.8 28.3 -5.75 28.25 -5.65 28.2 -5.55 28.1 -5.55 28.0 -5.5 27.75 -5.4 27.3 -5.6 27.2 -5.7 27.2 -5.9 27.15 -6.1 27.1 -6.3 27.1 -6.45 27.1 -6.8 24.7 -7.45 24.65 -7.8 24.6 -8.4 24.6 -8.7 23.6 -8.7 23.4 -8.7 23.0 -8.65 22.85 -8.65 22.45 -8.75 Q22.2 -8.85 22.1 -9.15 L22.1 -9.15" fill="none" stroke="#000000" stroke-linecap="round" stroke-linejoin="round" stroke-opacity="0.0" stroke-width="1.0">
      <animate attributeName="stroke" dur="2s" repeatCount="indefinite" values="#000000;#000001"/>
      <animate attributeName="stroke-width" dur="2s" repeatCount="indefinite" values="0.0;0.0"/>
      <animate attributeName="fill-opacity" dur="2s" repeatCount="indefinite" values="0.0;0.0"/>
      <animate attributeName="d" dur="2s" repeatCount="indefinite" values="M22.1 -9.15 Q22.75 -10.25 24.1 -11.0 L24.1 -11.0 24.25 -11.05 24.5 -11.1 24.5 -11.15 24.85 -10.9 24.95 -10.8 24.95 -10.8 25.1 -10.65 25.1 -10.45 25.1 -10.25 25.75 -9.8 25.85 -9.7 25.85 -9.65 25.85 -9.25 25.85 -9.15 25.85 -9.05 25.85 -8.85 25.85 -8.7 Q26.45 -8.7 27.1 -8.65 L27.5 -8.55 27.9 -8.45 28.15 -8.35 28.35 -8.2 28.55 -8.1 28.75 -8.0 28.85 -7.9 28.85 -7.9 28.85 -7.55 28.85 -7.35 28.85 -6.95 28.85 -6.85 28.8 -6.55 28.8 -6.55 28.7 -6.35 28.45 -6.05 28.3 -5.8 28.3 -5.75 28.25 -5.65 28.2 -5.55 28.1 -5.55 28.0 -5.5 27.75 -5.4 27.3 -5.6 27.2 -5.7 27.2 -5.9 27.15 -6.1 27.1 -6.3 27.1 -6.45 27.1 -6.8 24.7 -7.45 24.65 -7.8 24.6 -8.4 24.6 -8.7 23.6 -8.7 23.4 -8.7 23.0 -8.65 22.85 -8.65 22.45 -8.75 Q22.2 -8.85 22.1 -9.15 L22.1 -9.15;M27.6 -12.65 Q28.4 -14.05 30.25 -14.4 L30.35 -14.4 30.7 -14.4 30.95 -14.3 31.05 -14.25 31.35 -13.85 31.35 -13.7 31.35 -13.7 31.2 -13.5 31.05 -13.3 30.85 -13.0 30.35 -12.2 30.35 -12.2 30.35 -12.1 30.2 -11.8 30.15 -11.75 30.45 -11.75 30.6 -11.75 30.7 -11.85 Q31.15 -12.4 31.85 -12.55 L32.25 -12.65 32.55 -12.45 32.85 -12.15 32.85 -11.95 32.85 -11.75 33.0 -11.6 33.25 -11.4 33.3 -11.2 33.35 -10.8 33.35 -10.65 33.1 -10.4 33.0 -10.3 32.7 -10.05 32.6 -10.05 32.6 -9.9 32.55 -9.5 32.45 -9.3 32.45 -9.3 32.35 -9.2 32.25 -9.2 32.15 -9.2 32.0 -9.15 31.7 -9.25 31.25 -9.65 31.15 -9.75 31.1 -10.0 31.1 -10.2 31.1 -10.4 31.0 -10.4 30.55 -10.25 28.1 -10.35 27.6 -10.65 27.85 -11.2 28.1 -11.5 28.85 -12.15 29.0 -12.3 28.8 -12.45 28.6 -12.3 28.25 -12.15 Q28.1 -12.25 27.9 -12.4 L27.6 -12.65"/>
    </path>
  </g>
</svg>
