<?xml version="1.0" encoding="UTF-8" standalone="no"?>
<svg xmlns:xlink="http://www.w3.org/1999/xlink" height="9.25px" width="8.45px" xmlns="http://www.w3.org/2000/svg">
  <g transform="matrix(1.0, 0.0, 0.0, 1.0, 14.35, 37.15)">
    <path d="M-14.3 -29.2 L-14.3 -29.2 -13.75 -28.9 -13.55 -28.95 -13.5 -28.95 -13.4 -29.0 -13.3 -28.95 -13.15 -28.8 -12.95 -28.65 -12.55 -28.6 -12.15 -28.75 -12.0 -28.85 -11.9 -29.05 -11.65 -29.75 -11.25 -29.2 Q-10.8 -28.75 -10.0 -28.95 L-9.8 -29.05 -9.65 -29.15 -9.65 -28.75 -9.65 -28.6 -9.55 -28.2 -9.45 -28.1 -9.25 -28.0 -9.0 -27.9 -9.0 -27.9 -8.8 -27.95 -8.75 -27.95 -8.65 -27.95 -8.65 -28.0 -8.6 -28.05 -8.5 -28.15 -8.45 -28.5 -8.4 -29.1 -8.4 -29.6 -8.4 -29.85 -8.4 -31.15 -8.5 -31.3 Q-8.8 -31.7 -9.25 -31.65 L-9.5 -31.55 -10.15 -31.2 -10.35 -31.0 -10.5 -30.8 -10.5 -30.8 -10.5 -30.8 Q-11.3 -31.65 -12.0 -31.25 L-12.4 -30.9 -12.5 -30.8 -12.6 -30.9 -12.85 -31.05 -13.9 -31.0 -14.0 -30.8 -14.0 -30.8 -14.1 -30.7 -14.25 -30.35 -14.35 -29.95 -14.3 -29.2" fill="#000000" fill-rule="evenodd" stroke="none">
      <animate attributeName="fill" dur="2s" repeatCount="indefinite" values="#000000;#000001"/>
      <animate attributeName="fill-opacity" dur="2s" repeatCount="indefinite" values="1.0;1.0"/>
      <animate attributeName="d" dur="2s" repeatCount="indefinite" values="M-14.3 -29.2 L-14.3 -29.2 -13.75 -28.9 -13.55 -28.95 -13.5 -28.95 -13.4 -29.0 -13.3 -28.95 -13.15 -28.8 -12.95 -28.65 -12.55 -28.6 -12.15 -28.75 -12.0 -28.85 -11.9 -29.05 -11.65 -29.75 -11.25 -29.2 Q-10.8 -28.75 -10.0 -28.95 L-9.8 -29.05 -9.65 -29.15 -9.65 -28.75 -9.65 -28.6 -9.55 -28.2 -9.45 -28.1 -9.25 -28.0 -9.0 -27.9 -9.0 -27.9 -8.8 -27.95 -8.75 -27.95 -8.65 -27.95 -8.65 -28.0 -8.6 -28.05 -8.5 -28.15 -8.45 -28.5 -8.4 -29.1 -8.4 -29.6 -8.4 -29.85 -8.4 -31.15 -8.5 -31.3 Q-8.8 -31.7 -9.25 -31.65 L-9.5 -31.55 -10.15 -31.2 -10.35 -31.0 -10.5 -30.8 -10.5 -30.8 -10.5 -30.8 Q-11.3 -31.65 -12.0 -31.25 L-12.4 -30.9 -12.5 -30.8 -12.6 -30.9 -12.85 -31.05 -13.9 -31.0 -14.0 -30.8 -14.0 -30.8 -14.1 -30.7 -14.25 -30.35 -14.35 -29.95 -14.3 -29.2;M-12.15 -36.25 L-12.15 -36.15 -12.15 -35.7 -12.15 -35.5 -12.1 -35.25 -12.05 -35.15 -12.05 -35.05 -12.05 -34.95 -11.85 -34.8 -11.5 -34.65 -11.25 -34.7 -11.15 -34.75 -10.75 -34.45 -10.1 -34.25 -9.7 -34.25 Q-9.35 -33.7 -8.7 -33.35 L-8.5 -33.25 -8.4 -33.25 -8.1 -33.15 -8.0 -33.15 -7.75 -33.2 -7.75 -33.2 -7.65 -33.25 -7.5 -33.4 -7.5 -33.4 -7.45 -33.55 -7.4 -33.65 -7.4 -33.75 -7.4 -33.85 -7.4 -33.95 -7.2 -33.95 -6.85 -33.9 -6.25 -33.95 -5.95 -34.25 -5.9 -34.45 -6.5 -35.15 -6.7 -35.25 Q-7.1 -35.3 -7.45 -35.35 L-7.75 -35.3 -8.3 -35.05 -8.55 -35.05 -8.65 -35.1 -8.65 -35.15 -8.75 -35.3 Q-9.25 -35.75 -9.9 -35.75 L-9.9 -36.25 -9.9 -36.35 -9.9 -36.65 -10.0 -36.8 -10.8 -37.15 -11.0 -37.15 -11.0 -37.1 -11.1 -37.1 -11.4 -37.0 -11.7 -36.65 -12.15 -36.25"/>
    </path>
    <path d="M-14.3 -29.2 L-14.35 -29.95 -14.25 -30.35 -14.1 -30.7 -14.0 -30.8 -14.0 -30.8 -13.9 -31.0 -12.85 -31.05 -12.6 -30.9 -12.5 -30.8 -12.4 -30.9 -12.0 -31.25 Q-11.3 -31.65 -10.5 -30.8 L-10.5 -30.8 -10.5 -30.8 -10.35 -31.0 -10.15 -31.2 -9.5 -31.55 -9.25 -31.65 Q-8.8 -31.7 -8.5 -31.3 L-8.4 -31.15 -8.4 -29.85 -8.4 -29.6 -8.4 -29.1 -8.45 -28.5 -8.5 -28.15 -8.6 -28.05 -8.65 -28.0 -8.65 -27.95 -8.75 -27.95 -8.8 -27.95 -9.0 -27.9 -9.0 -27.9 -9.25 -28.0 -9.45 -28.1 -9.55 -28.2 -9.65 -28.6 -9.65 -28.75 -9.65 -29.15 -9.8 -29.05 -10.0 -28.95 Q-10.8 -28.75 -11.25 -29.2 L-11.65 -29.75 -11.9 -29.05 -12.0 -28.85 -12.15 -28.75 -12.55 -28.6 -12.95 -28.65 -13.15 -28.8 -13.3 -28.95 -13.4 -29.0 -13.5 -28.95 -13.55 -28.95 -13.75 -28.9 -14.3 -29.2 -14.3 -29.2" fill="none" stroke="#000000" stroke-linecap="round" stroke-linejoin="round" stroke-opacity="0.0" stroke-width="1.0">
      <animate attributeName="stroke" dur="2s" repeatCount="indefinite" values="#000000;#000001"/>
      <animate attributeName="stroke-width" dur="2s" repeatCount="indefinite" values="0.0;0.0"/>
      <animate attributeName="fill-opacity" dur="2s" repeatCount="indefinite" values="0.0;0.0"/>
      <animate attributeName="d" dur="2s" repeatCount="indefinite" values="M-14.3 -29.2 L-14.35 -29.95 -14.25 -30.35 -14.1 -30.7 -14.0 -30.8 -14.0 -30.8 -13.9 -31.0 -12.85 -31.05 -12.6 -30.9 -12.5 -30.8 -12.4 -30.9 -12.0 -31.25 Q-11.3 -31.65 -10.5 -30.8 L-10.5 -30.8 -10.5 -30.8 -10.35 -31.0 -10.15 -31.2 -9.5 -31.55 -9.25 -31.65 Q-8.8 -31.7 -8.5 -31.3 L-8.4 -31.15 -8.4 -29.85 -8.4 -29.6 -8.4 -29.1 -8.45 -28.5 -8.5 -28.15 -8.6 -28.05 -8.65 -28.0 -8.65 -27.95 -8.75 -27.95 -8.8 -27.95 -9.0 -27.9 -9.0 -27.9 -9.25 -28.0 -9.45 -28.1 -9.55 -28.2 -9.65 -28.6 -9.65 -28.75 -9.65 -29.15 -9.8 -29.05 -10.0 -28.95 Q-10.8 -28.75 -11.25 -29.2 L-11.65 -29.75 -11.9 -29.05 -12.0 -28.85 -12.15 -28.75 -12.55 -28.6 -12.95 -28.65 -13.15 -28.8 -13.3 -28.95 -13.4 -29.0 -13.5 -28.95 -13.55 -28.95 -13.75 -28.9 -14.3 -29.2 -14.3 -29.2;M-12.15 -36.25 L-11.7 -36.65 -11.4 -37.0 -11.1 -37.1 -11.0 -37.1 -11.0 -37.15 -10.8 -37.15 -10.0 -36.8 -9.9 -36.65 -9.9 -36.35 -9.9 -36.25 -9.9 -35.75 Q-9.25 -35.75 -8.75 -35.3 L-8.65 -35.15 -8.65 -35.1 -8.55 -35.05 -8.3 -35.05 -7.75 -35.3 -7.45 -35.35 Q-7.1 -35.3 -6.7 -35.25 L-6.5 -35.15 -5.9 -34.45 -5.95 -34.25 -6.25 -33.95 -6.85 -33.9 -7.2 -33.95 -7.4 -33.95 -7.4 -33.85 -7.4 -33.75 -7.4 -33.65 -7.45 -33.55 -7.5 -33.4 -7.5 -33.4 -7.65 -33.25 -7.75 -33.2 -7.75 -33.2 -8.0 -33.15 -8.1 -33.15 -8.4 -33.25 -8.5 -33.25 -8.7 -33.35 Q-9.35 -33.7 -9.7 -34.25 L-10.1 -34.25 -10.75 -34.45 -11.15 -34.75 -11.25 -34.7 -11.5 -34.65 -11.85 -34.8 -12.05 -34.95 -12.05 -35.05 -12.05 -35.15 -12.1 -35.25 -12.15 -35.5 -12.15 -35.7 -12.15 -36.15 -12.15 -36.25"/>
    </path>
  </g>
</svg>
