<?xml version="1.0" encoding="UTF-8" standalone="no"?>
<svg xmlns:xlink="http://www.w3.org/1999/xlink" height="9.0px" width="13.75px" xmlns="http://www.w3.org/2000/svg">
  <g transform="matrix(1.0, 0.0, 0.0, 1.0, 2.65, -0.6)">
    <path d="M-2.65 7.85 L-2.65 7.85 Q-2.35 8.1 -2.1 8.35 L-2.0 8.35 -1.8 8.25 -1.45 8.05 -1.25 7.95 -0.95 8.15 -0.9 8.3 -0.85 8.7 -0.8 8.95 -0.8 9.05 -0.7 9.15 -0.4 9.35 0.0 9.4 Q0.45 9.45 0.85 9.0 1.6 8.6 1.6 9.1 L1.7 9.3 1.9 9.45 2.0 9.5 2.4 9.6 2.5 9.6 2.7 9.6 2.8 9.5 2.9 9.5 3.05 9.3 3.1 8.95 3.05 8.75 2.6 8.0 2.6 8.0 2.6 7.8 2.6 7.6 2.45 7.45 2.35 7.35 2.0 7.1 1.2 7.6 1.1 7.6 0.35 7.55 0.35 7.4 0.25 7.2 0.1 7.0 -0.4 6.4 -0.5 6.3 -0.75 6.1 -0.75 6.15 -1.0 6.2 -1.15 6.25 -1.15 6.25 -1.3 6.35 -1.5 6.45 -1.6 6.5 Q-2.35 7.0 -2.65 7.85" fill="#000000" fill-rule="evenodd" stroke="none">
      <animate attributeName="fill" dur="2s" repeatCount="indefinite" values="#000000;#000001"/>
      <animate attributeName="fill-opacity" dur="2s" repeatCount="indefinite" values="1.0;1.0"/>
      <animate attributeName="d" dur="2s" repeatCount="indefinite" values="M-2.65 7.85 L-2.65 7.85 Q-2.35 8.1 -2.1 8.35 L-2.0 8.35 -1.8 8.25 -1.45 8.05 -1.25 7.95 -0.95 8.15 -0.9 8.3 -0.85 8.7 -0.8 8.95 -0.8 9.05 -0.7 9.15 -0.4 9.35 0.0 9.4 Q0.45 9.45 0.85 9.0 1.6 8.6 1.6 9.1 L1.7 9.3 1.9 9.45 2.0 9.5 2.4 9.6 2.5 9.6 2.7 9.6 2.8 9.5 2.9 9.5 3.05 9.3 3.1 8.95 3.05 8.75 2.6 8.0 2.6 8.0 2.6 7.8 2.6 7.6 2.45 7.45 2.35 7.35 2.0 7.1 1.2 7.6 1.1 7.6 0.35 7.55 0.35 7.4 0.25 7.2 0.1 7.0 -0.4 6.4 -0.5 6.3 -0.75 6.1 -0.75 6.15 -1.0 6.2 -1.15 6.25 -1.15 6.25 -1.3 6.35 -1.5 6.45 -1.6 6.5 Q-2.35 7.0 -2.65 7.85;M3.85 2.35 L3.95 2.5 Q4.2 2.95 4.75 2.85 L4.95 2.85 5.05 2.75 5.45 2.55 5.65 2.7 6.15 2.9 6.35 2.9 6.8 2.85 7.1 2.75 7.3 2.95 7.35 3.1 7.35 3.5 7.45 4.05 Q8.05 4.15 8.65 4.2 9.25 4.1 9.75 3.6 L9.85 3.5 9.9 3.85 9.95 4.05 10.5 4.35 10.6 4.35 10.75 4.3 10.95 4.2 10.95 4.2 11.05 3.8 11.05 3.4 11.05 3.1 11.1 2.2 11.1 2.1 10.9 1.85 10.7 1.7 10.45 1.6 10.25 1.6 9.85 1.9 8.6 2.45 8.6 2.3 8.15 1.4 7.95 1.2 7.5 0.85 7.25 0.95 6.7 1.35 6.65 1.3 6.5 1.0 6.5 0.9 6.35 0.75 6.0 0.6 6.0 0.65 5.75 0.7 5.6 0.75 5.5 0.85 Q4.3 1.4 3.85 2.35"/>
    </path>
    <path d="M-2.65 7.85 Q-2.35 7.0 -1.6 6.5 L-1.5 6.45 -1.3 6.35 -1.15 6.25 -1.15 6.25 -1.0 6.2 -0.75 6.15 -0.75 6.1 -0.5 6.3 -0.4 6.4 0.1 7.0 0.25 7.2 0.35 7.4 0.35 7.55 1.1 7.6 1.2 7.6 2.0 7.1 2.35 7.35 2.45 7.45 2.6 7.6 2.6 7.8 2.6 8.0 2.6 8.0 3.05 8.75 3.1 8.95 3.05 9.3 2.9 9.5 2.8 9.5 2.7 9.6 2.5 9.6 2.4 9.6 2.0 9.5 1.9 9.45 1.7 9.3 1.6 9.1 Q1.6 8.6 0.85 9.0 0.45 9.45 0.0 9.4 L-0.4 9.35 -0.7 9.15 -0.8 9.05 -0.8 8.95 -0.85 8.7 -0.9 8.3 -0.95 8.15 -1.25 7.95 -1.45 8.05 -1.8 8.25 -2.0 8.35 -2.1 8.35 Q-2.35 8.1 -2.65 7.85 L-2.65 7.85" fill="none" stroke="#000000" stroke-linecap="round" stroke-linejoin="round" stroke-opacity="0.0" stroke-width="1.0">
      <animate attributeName="stroke" dur="2s" repeatCount="indefinite" values="#000000;#000001"/>
      <animate attributeName="stroke-width" dur="2s" repeatCount="indefinite" values="0.0;0.0"/>
      <animate attributeName="fill-opacity" dur="2s" repeatCount="indefinite" values="0.0;0.0"/>
      <animate attributeName="d" dur="2s" repeatCount="indefinite" values="M-2.65 7.85 Q-2.35 7.0 -1.6 6.5 L-1.5 6.45 -1.3 6.35 -1.15 6.25 -1.15 6.25 -1.0 6.2 -0.75 6.15 -0.75 6.1 -0.5 6.3 -0.4 6.4 0.1 7.0 0.25 7.2 0.35 7.4 0.35 7.55 1.1 7.6 1.2 7.6 2.0 7.1 2.35 7.35 2.45 7.45 2.6 7.6 2.6 7.8 2.6 8.0 2.6 8.0 3.05 8.75 3.1 8.95 3.05 9.3 2.9 9.5 2.8 9.5 2.7 9.6 2.5 9.6 2.4 9.6 2.0 9.5 1.9 9.45 1.7 9.3 1.6 9.1 Q1.6 8.6 0.85 9.0 0.45 9.45 0.0 9.4 L-0.4 9.35 -0.7 9.15 -0.8 9.05 -0.8 8.95 -0.85 8.7 -0.9 8.3 -0.95 8.15 -1.25 7.95 -1.45 8.05 -1.8 8.25 -2.0 8.35 -2.1 8.35 Q-2.35 8.1 -2.65 7.85 L-2.65 7.85;M3.85 2.35 Q4.3 1.4 5.5 0.85 L5.6 0.75 5.75 0.7 6.0 0.65 6.0 0.6 6.35 0.75 6.5 0.9 6.5 1.0 6.65 1.3 6.7 1.35 7.25 0.95 7.5 0.85 7.95 1.2 8.15 1.4 8.6 2.3 8.6 2.45 9.85 1.9 10.25 1.6 10.45 1.6 10.7 1.7 10.9 1.85 11.1 2.1 11.1 2.2 11.05 3.1 11.05 3.4 11.05 3.8 10.95 4.2 10.95 4.2 10.75 4.3 10.6 4.35 10.5 4.35 9.95 4.05 9.9 3.85 9.85 3.5 9.75 3.6 Q9.25 4.1 8.65 4.2 8.05 4.15 7.45 4.05 L7.35 3.5 7.35 3.1 7.3 2.95 7.1 2.75 6.8 2.85 6.35 2.9 6.15 2.9 5.65 2.7 5.45 2.55 5.05 2.75 4.95 2.85 4.75 2.85 Q4.2 2.95 3.95 2.5 L3.85 2.35"/>
    </path>
  </g>
</svg>
