<?xml version="1.0" encoding="UTF-8" standalone="no"?>
<svg xmlns:xlink="http://www.w3.org/1999/xlink" height="11.0px" width="10.75px" xmlns="http://www.w3.org/2000/svg">
  <g transform="matrix(1.0, 0.0, 0.0, 1.0, 11.65, 22.65)">
    <path d="M-11.65 -12.4 L-11.65 -12.4 Q-11.35 -12.15 -11.05 -11.9 L-10.7 -11.9 -10.4 -12.05 -10.3 -12.05 -10.2 -12.25 -10.05 -12.45 -9.05 -12.4 Q-8.15 -12.55 -7.25 -12.65 L-7.25 -12.75 -7.15 -13.0 -7.15 -13.0 -7.15 -13.4 -6.85 -13.25 -6.45 -12.9 -5.25 -11.8 -4.95 -11.7 -4.75 -11.65 -4.75 -11.65 -4.45 -11.75 -4.3 -11.85 Q-4.15 -11.95 -4.15 -12.2 L-4.15 -12.3 -4.2 -12.5 -4.4 -12.7 -4.55 -12.9 -4.65 -13.05 -4.8 -13.25 Q-5.35 -14.1 -6.2 -14.65 L-6.4 -14.75 -6.4 -14.95 -6.4 -15.15 -6.5 -15.25 -6.55 -15.3 -7.0 -15.65 -7.0 -15.6 -7.4 -15.5 -7.55 -15.3 -8.15 -14.65 -8.5 -14.6 -8.5 -14.6 -9.15 -14.7 -9.15 -14.85 -9.55 -15.3 -9.75 -15.4 -9.9 -15.3 -10.0 -15.3 -10.1 -15.1 -10.3 -15.0 -10.4 -15.0 -10.4 -14.65 -10.45 -14.55 -10.45 -14.45 -10.65 -14.25 -10.8 -14.05 -10.95 -13.75 -11.1 -13.45 -11.25 -13.2 -11.45 -12.9 -11.55 -12.7 -11.65 -12.4" fill="#000000" fill-rule="evenodd" stroke="none">
      <animate attributeName="fill" dur="2s" repeatCount="indefinite" values="#000000;#000001"/>
      <animate attributeName="fill-opacity" dur="2s" repeatCount="indefinite" values="1.0;1.0"/>
      <animate attributeName="d" dur="2s" repeatCount="indefinite" values="M-11.65 -12.4 L-11.65 -12.4 Q-11.35 -12.15 -11.05 -11.9 L-10.7 -11.9 -10.4 -12.05 -10.3 -12.05 -10.2 -12.25 -10.05 -12.45 -9.05 -12.4 Q-8.15 -12.55 -7.25 -12.65 L-7.25 -12.75 -7.15 -13.0 -7.15 -13.0 -7.15 -13.4 -6.85 -13.25 -6.45 -12.9 -5.25 -11.8 -4.95 -11.7 -4.75 -11.65 -4.75 -11.65 -4.45 -11.75 -4.3 -11.85 Q-4.15 -11.95 -4.15 -12.2 L-4.15 -12.3 -4.2 -12.5 -4.4 -12.7 -4.55 -12.9 -4.65 -13.05 -4.8 -13.25 Q-5.35 -14.1 -6.2 -14.65 L-6.4 -14.75 -6.4 -14.95 -6.4 -15.15 -6.5 -15.25 -6.55 -15.3 -7.0 -15.65 -7.0 -15.6 -7.4 -15.5 -7.55 -15.3 -8.15 -14.65 -8.5 -14.6 -8.5 -14.6 -9.15 -14.7 -9.15 -14.85 -9.55 -15.3 -9.75 -15.4 -9.9 -15.3 -10.0 -15.3 -10.1 -15.1 -10.3 -15.0 -10.4 -15.0 -10.4 -14.65 -10.45 -14.55 -10.45 -14.45 -10.65 -14.25 -10.8 -14.05 -10.95 -13.75 -11.1 -13.45 -11.25 -13.2 -11.45 -12.9 -11.55 -12.7 -11.65 -12.4;M-8.9 -20.4 L-8.75 -20.15 Q-8.6 -19.9 -8.25 -19.9 L-8.0 -19.95 -7.8 -20.05 -7.7 -19.95 -7.4 -19.85 -7.0 -19.75 -6.15 -19.65 Q-5.55 -18.75 -4.55 -19.3 L-4.55 -19.3 -4.45 -19.7 -4.45 -19.7 -4.4 -20.1 -4.4 -20.45 -3.8 -20.15 -2.2 -19.5 -2.1 -19.15 -2.05 -18.95 -1.95 -18.85 -1.6 -18.75 -1.5 -18.65 Q-1.35 -18.75 -1.2 -18.8 L-1.1 -18.85 -1.0 -18.95 -0.9 -19.15 -0.9 -19.3 -0.9 -19.5 -0.9 -19.9 Q-1.35 -20.75 -2.3 -21.0 L-2.3 -21.0 -2.6 -21.15 -2.8 -21.25 -2.95 -21.4 -2.95 -21.4 -3.25 -21.75 -3.3 -21.8 -3.8 -22.05 -4.2 -22.05 -4.85 -21.75 -5.15 -21.5 -5.15 -21.5 -5.9 -21.6 -6.0 -21.6 -6.65 -21.4 -6.65 -21.55 -6.65 -21.75 -6.65 -21.85 -6.65 -22.15 -6.8 -22.3 -6.85 -22.3 -7.05 -22.5 -7.25 -22.65 -7.25 -22.65 -7.55 -22.4 -7.95 -22.15 -8.4 -21.8 -8.65 -21.5 -8.65 -21.15 -8.7 -20.95 -8.8 -20.75 -8.9 -20.4"/>
    </path>
    <path d="M-11.65 -12.4 L-11.55 -12.7 -11.45 -12.9 -11.25 -13.2 -11.1 -13.45 -10.95 -13.75 -10.8 -14.05 -10.65 -14.25 -10.45 -14.45 -10.45 -14.55 -10.4 -14.65 -10.4 -15.0 -10.3 -15.0 -10.1 -15.1 -10.0 -15.3 -9.9 -15.3 -9.75 -15.4 -9.55 -15.3 -9.15 -14.85 -9.15 -14.7 -8.5 -14.6 -8.5 -14.6 -8.15 -14.65 -7.55 -15.3 -7.4 -15.5 -7.0 -15.6 -7.0 -15.65 -6.55 -15.3 -6.5 -15.25 -6.4 -15.15 -6.4 -14.95 -6.4 -14.75 -6.2 -14.65 Q-5.35 -14.1 -4.8 -13.25 L-4.65 -13.05 -4.55 -12.9 -4.4 -12.7 -4.2 -12.5 -4.15 -12.3 -4.15 -12.2 Q-4.15 -11.95 -4.3 -11.85 L-4.45 -11.75 -4.75 -11.65 -4.75 -11.65 -4.95 -11.7 -5.25 -11.8 -6.45 -12.9 -6.85 -13.25 -7.15 -13.4 -7.15 -13.0 -7.15 -13.0 -7.25 -12.75 -7.25 -12.65 Q-8.15 -12.55 -9.05 -12.4 L-10.05 -12.45 -10.2 -12.25 -10.3 -12.05 -10.4 -12.05 -10.7 -11.9 -11.05 -11.9 Q-11.35 -12.15 -11.65 -12.4 L-11.65 -12.4" fill="none" stroke="#000000" stroke-linecap="round" stroke-linejoin="round" stroke-opacity="0.0" stroke-width="1.0">
      <animate attributeName="stroke" dur="2s" repeatCount="indefinite" values="#000000;#000001"/>
      <animate attributeName="stroke-width" dur="2s" repeatCount="indefinite" values="0.0;0.0"/>
      <animate attributeName="fill-opacity" dur="2s" repeatCount="indefinite" values="0.0;0.0"/>
      <animate attributeName="d" dur="2s" repeatCount="indefinite" values="M-11.65 -12.4 L-11.55 -12.7 -11.45 -12.9 -11.25 -13.2 -11.1 -13.45 -10.95 -13.75 -10.8 -14.05 -10.65 -14.25 -10.45 -14.45 -10.45 -14.55 -10.4 -14.65 -10.4 -15.0 -10.3 -15.0 -10.1 -15.1 -10.0 -15.3 -9.9 -15.3 -9.75 -15.4 -9.55 -15.3 -9.15 -14.85 -9.15 -14.7 -8.5 -14.6 -8.5 -14.6 -8.15 -14.65 -7.55 -15.3 -7.4 -15.5 -7.0 -15.6 -7.0 -15.65 -6.55 -15.3 -6.5 -15.25 -6.4 -15.15 -6.4 -14.95 -6.4 -14.75 -6.2 -14.65 Q-5.35 -14.1 -4.8 -13.25 L-4.65 -13.05 -4.55 -12.9 -4.4 -12.7 -4.2 -12.5 -4.15 -12.3 -4.15 -12.2 Q-4.15 -11.95 -4.3 -11.85 L-4.45 -11.75 -4.75 -11.65 -4.75 -11.65 -4.95 -11.7 -5.25 -11.8 -6.45 -12.9 -6.85 -13.25 -7.15 -13.4 -7.15 -13.0 -7.15 -13.0 -7.25 -12.75 -7.25 -12.65 Q-8.15 -12.55 -9.05 -12.4 L-10.05 -12.45 -10.2 -12.25 -10.3 -12.05 -10.4 -12.05 -10.7 -11.9 -11.05 -11.9 Q-11.35 -12.15 -11.65 -12.4 L-11.65 -12.4;M-8.9 -20.4 L-8.8 -20.75 -8.7 -20.95 -8.65 -21.15 -8.65 -21.5 -8.4 -21.8 -7.95 -22.15 -7.55 -22.4 -7.25 -22.65 -7.25 -22.65 -7.05 -22.5 -6.85 -22.3 -6.8 -22.3 -6.65 -22.15 -6.65 -21.85 -6.65 -21.75 -6.65 -21.55 -6.65 -21.4 -6.0 -21.6 -5.9 -21.6 -5.15 -21.5 -5.15 -21.5 -4.85 -21.75 -4.2 -22.05 -3.8 -22.05 -3.3 -21.8 -3.25 -21.75 -2.95 -21.4 -2.95 -21.4 -2.8 -21.25 -2.6 -21.15 -2.3 -21.0 -2.3 -21.0 Q-1.35 -20.75 -0.9 -19.9 L-0.9 -19.5 -0.9 -19.3 -0.9 -19.15 -1.0 -18.95 -1.1 -18.85 -1.2 -18.8 Q-1.35 -18.75 -1.5 -18.65 L-1.6 -18.75 -1.95 -18.85 -2.05 -18.95 -2.1 -19.15 -2.2 -19.5 -3.8 -20.15 -4.4 -20.45 -4.4 -20.1 -4.45 -19.7 -4.45 -19.7 -4.55 -19.3 -4.55 -19.3 Q-5.55 -18.75 -6.15 -19.65 L-7.0 -19.75 -7.4 -19.85 -7.7 -19.95 -7.8 -20.05 -8.0 -19.95 -8.25 -19.9 Q-8.6 -19.9 -8.75 -20.15 L-8.9 -20.4"/>
    </path>
  </g>
</svg>
