<?xml version="1.0" encoding="UTF-8" standalone="no"?>
<svg xmlns:xlink="http://www.w3.org/1999/xlink" height="12.5px" width="13.25px" xmlns="http://www.w3.org/2000/svg">
  <g transform="matrix(1.0, 0.0, 0.0, 1.0, -10.85, 11.9)">
    <path d="M10.85 -1.65 Q11.3 -0.9 12.05 -1.15 L12.35 -1.25 12.5 -1.4 12.6 -1.55 13.0 -1.7 13.1 -1.7 13.25 -1.9 13.3 -2.05 13.35 -2.25 13.6 -2.3 13.6 -2.25 13.6 -1.95 13.6 -1.85 13.7 -1.2 14.25 -0.9 14.6 -1.05 14.75 -1.15 14.8 -1.3 15.0 -1.7 15.1 -1.5 15.1 -1.4 15.2 -1.2 Q15.5 -0.8 16.0 -0.9 16.5 -0.85 16.95 -0.8 L16.9 -0.45 16.9 -0.15 16.95 0.3 16.95 0.3 17.5 0.6 17.75 0.5 17.85 0.45 18.0 0.35 18.1 0.0 18.1 0.0 18.1 -0.1 Q18.35 -0.6 18.6 -1.05 L18.6 -1.15 18.6 -1.35 18.6 -1.5 18.6 -1.9 18.25 -2.15 18.05 -2.3 17.4 -2.6 16.35 -2.7 16.1 -3.1 15.75 -3.35 15.1 -3.5 15.1 -3.7 15.1 -3.7 15.1 -3.9 14.95 -4.05 14.5 -4.4 13.95 -4.15 13.75 -4.05 Q11.9 -3.1 10.85 -1.65" fill="#000000" fill-rule="evenodd" stroke="none">
      <animate attributeName="fill" dur="2s" repeatCount="indefinite" values="#000000;#000001"/>
      <animate attributeName="fill-opacity" dur="2s" repeatCount="indefinite" values="1.0;1.0"/>
      <animate attributeName="d" dur="2s" repeatCount="indefinite" values="M10.85 -1.65 Q11.3 -0.9 12.05 -1.15 L12.35 -1.25 12.5 -1.4 12.6 -1.55 13.0 -1.7 13.1 -1.7 13.25 -1.9 13.3 -2.05 13.35 -2.25 13.6 -2.3 13.6 -2.25 13.6 -1.95 13.6 -1.85 13.7 -1.2 14.25 -0.9 14.6 -1.05 14.75 -1.15 14.8 -1.3 15.0 -1.7 15.1 -1.5 15.1 -1.4 15.2 -1.2 Q15.5 -0.8 16.0 -0.9 16.5 -0.85 16.95 -0.8 L16.9 -0.45 16.9 -0.15 16.95 0.3 16.95 0.3 17.5 0.6 17.75 0.5 17.85 0.45 18.0 0.35 18.1 0.0 18.1 0.0 18.1 -0.1 Q18.35 -0.6 18.6 -1.05 L18.6 -1.15 18.6 -1.35 18.6 -1.5 18.6 -1.9 18.25 -2.15 18.05 -2.3 17.4 -2.6 16.35 -2.7 16.1 -3.1 15.75 -3.35 15.1 -3.5 15.1 -3.7 15.1 -3.7 15.1 -3.9 14.95 -4.05 14.5 -4.4 13.95 -4.15 13.75 -4.05 Q11.9 -3.1 10.85 -1.65;M16.35 -8.9 Q16.6 -8.3 17.25 -8.4 L17.65 -8.6 17.85 -8.75 18.05 -8.9 18.5 -9.2 18.6 -9.25 19.15 -9.05 19.35 -9.05 19.55 -9.0 19.75 -9.0 19.75 -9.0 20.0 -8.9 20.0 -8.9 20.1 -9.0 20.65 -9.25 21.1 -9.55 21.3 -9.65 21.5 -9.75 22.0 -10.05 22.1 -10.15 22.1 -9.8 22.1 -9.6 Q22.2 -9.3 22.3 -9.0 22.5 -8.65 22.85 -8.4 L23.1 -8.25 23.25 -8.15 23.5 -8.2 23.6 -8.3 23.95 -8.6 24.1 -8.9 24.1 -9.0 24.1 -9.25 24.1 -9.65 24.1 -9.65 24.0 -9.8 Q23.75 -10.15 23.35 -10.15 L23.35 -10.15 23.35 -10.45 23.35 -10.55 23.35 -10.9 23.35 -11.4 23.2 -11.55 22.75 -11.9 21.9 -11.6 21.35 -11.5 21.25 -11.35 20.8 -10.85 20.6 -10.8 20.5 -10.8 20.5 -10.8 20.3 -10.9 19.7 -11.15 19.0 -11.4 18.9 -11.3 Q17.25 -10.3 16.35 -8.9"/>
    </path>
    <path d="M10.85 -1.65 Q11.9 -3.1 13.75 -4.05 L13.95 -4.15 14.5 -4.4 14.95 -4.05 15.1 -3.9 15.1 -3.7 15.1 -3.7 15.1 -3.5 15.75 -3.35 16.1 -3.1 16.35 -2.7 17.4 -2.6 18.05 -2.3 18.25 -2.15 18.6 -1.9 18.6 -1.5 18.6 -1.35 18.6 -1.15 18.6 -1.05 Q18.35 -0.6 18.1 -0.1 L18.1 0.0 18.1 0.0 18.0 0.35 17.85 0.45 17.75 0.5 17.5 0.6 16.95 0.3 16.95 0.3 16.9 -0.15 16.9 -0.45 16.95 -0.8 Q16.5 -0.85 16.0 -0.9 15.5 -0.8 15.2 -1.2 L15.1 -1.4 15.1 -1.5 15.0 -1.7 14.8 -1.3 14.75 -1.15 14.6 -1.05 14.25 -0.9 13.7 -1.2 13.6 -1.85 13.6 -1.95 13.6 -2.25 13.6 -2.3 13.35 -2.25 13.3 -2.05 13.25 -1.9 13.1 -1.7 13.0 -1.7 12.6 -1.55 12.5 -1.4 12.35 -1.25 12.05 -1.15 Q11.3 -0.9 10.85 -1.65" fill="none" stroke="#000000" stroke-linecap="round" stroke-linejoin="round" stroke-opacity="0.0" stroke-width="1.0">
      <animate attributeName="stroke" dur="2s" repeatCount="indefinite" values="#000000;#000001"/>
      <animate attributeName="stroke-width" dur="2s" repeatCount="indefinite" values="0.0;0.0"/>
      <animate attributeName="fill-opacity" dur="2s" repeatCount="indefinite" values="0.0;0.0"/>
      <animate attributeName="d" dur="2s" repeatCount="indefinite" values="M10.85 -1.65 Q11.9 -3.1 13.75 -4.05 L13.95 -4.15 14.5 -4.4 14.95 -4.05 15.1 -3.9 15.1 -3.7 15.1 -3.7 15.1 -3.5 15.75 -3.35 16.1 -3.1 16.35 -2.7 17.4 -2.6 18.05 -2.3 18.25 -2.15 18.6 -1.9 18.6 -1.5 18.6 -1.35 18.6 -1.15 18.6 -1.05 Q18.35 -0.6 18.1 -0.1 L18.1 0.0 18.1 0.0 18.0 0.35 17.85 0.45 17.75 0.5 17.5 0.6 16.95 0.3 16.95 0.3 16.9 -0.15 16.9 -0.45 16.95 -0.8 Q16.5 -0.85 16.0 -0.9 15.5 -0.8 15.2 -1.2 L15.1 -1.4 15.1 -1.5 15.0 -1.7 14.8 -1.3 14.75 -1.15 14.6 -1.05 14.25 -0.9 13.7 -1.2 13.6 -1.85 13.6 -1.95 13.6 -2.25 13.6 -2.3 13.35 -2.25 13.3 -2.05 13.25 -1.9 13.1 -1.7 13.0 -1.7 12.6 -1.55 12.5 -1.4 12.35 -1.25 12.05 -1.15 Q11.3 -0.9 10.85 -1.65;M16.35 -8.9 Q17.25 -10.3 18.9 -11.3 L19.0 -11.4 19.7 -11.15 20.3 -10.9 20.5 -10.8 20.5 -10.8 20.6 -10.8 20.8 -10.85 21.25 -11.35 21.35 -11.5 21.9 -11.6 22.75 -11.9 23.2 -11.55 23.35 -11.4 23.35 -10.9 23.35 -10.55 23.35 -10.45 23.35 -10.15 23.35 -10.15 Q23.75 -10.15 24.0 -9.8 L24.1 -9.65 24.1 -9.65 24.1 -9.25 24.1 -9.0 24.1 -8.9 23.95 -8.6 23.6 -8.3 23.5 -8.2 23.25 -8.15 23.1 -8.25 22.85 -8.4 Q22.5 -8.65 22.3 -9.0 22.2 -9.3 22.1 -9.6 L22.1 -9.8 22.1 -10.15 22.0 -10.05 21.5 -9.75 21.3 -9.65 21.1 -9.55 20.65 -9.25 20.1 -9.0 20.0 -8.9 20.0 -8.9 19.75 -9.0 19.75 -9.0 19.55 -9.0 19.35 -9.05 19.15 -9.05 18.6 -9.25 18.5 -9.2 18.05 -8.9 17.85 -8.75 17.65 -8.6 17.25 -8.4 Q16.6 -8.3 16.35 -8.9"/>
    </path>
  </g>
</svg>
