<?xml version="1.0" encoding="UTF-8" standalone="no"?>
<svg xmlns:xlink="http://www.w3.org/1999/xlink" height="13.1px" width="8.05px" xmlns="http://www.w3.org/2000/svg">
  <g transform="matrix(1.0, 0.0, 0.0, 1.0, -36.85, 32.65)">
    <path d="M36.85 -22.65 L37.05 -22.4 Q37.45 -21.95 38.15 -22.15 L38.35 -22.25 38.45 -22.4 38.55 -22.55 39.05 -22.95 39.35 -22.65 39.25 -22.55 39.15 -22.25 39.15 -22.1 39.1 -21.9 39.2 -21.8 39.9 -21.2 40.1 -20.9 40.0 -20.7 39.9 -20.5 39.85 -20.15 Q40.1 -19.9 40.35 -19.7 L40.55 -19.6 40.75 -19.55 Q41.15 -19.55 41.55 -20.05 L41.55 -20.25 41.55 -20.45 41.45 -20.8 41.45 -20.9 41.55 -21.2 41.55 -21.2 41.55 -21.5 41.6 -22.15 41.5 -22.3 41.2 -22.55 40.8 -22.7 40.85 -22.7 40.85 -22.8 40.95 -23.0 41.0 -23.2 41.0 -23.2 41.2 -23.4 Q41.25 -23.5 41.3 -23.55 L41.35 -23.75 41.35 -23.95 41.35 -24.15 41.2 -24.3 41.2 -24.3 40.9 -24.55 40.8 -24.7 40.85 -24.8 40.85 -25.0 40.85 -25.4 40.75 -25.55 40.45 -25.8 40.3 -25.85 40.0 -25.9 Q39.55 -25.85 39.25 -25.35 L39.05 -25.0 39.05 -25.0 38.9 -24.8 38.55 -24.5 38.45 -24.4 38.35 -24.3 Q37.6 -23.45 36.85 -22.65" fill="#000000" fill-rule="evenodd" stroke="none">
      <animate attributeName="fill" dur="2s" repeatCount="indefinite" values="#000000;#000001"/>
      <animate attributeName="fill-opacity" dur="2s" repeatCount="indefinite" values="1.0;1.0"/>
      <animate attributeName="d" dur="2s" repeatCount="indefinite" values="M36.85 -22.65 L37.05 -22.4 Q37.45 -21.95 38.15 -22.15 L38.35 -22.25 38.45 -22.4 38.55 -22.55 39.05 -22.95 39.35 -22.65 39.25 -22.55 39.15 -22.25 39.15 -22.1 39.1 -21.9 39.2 -21.8 39.9 -21.2 40.1 -20.9 40.0 -20.7 39.9 -20.5 39.85 -20.15 Q40.1 -19.9 40.35 -19.7 L40.55 -19.6 40.75 -19.55 Q41.15 -19.55 41.55 -20.05 L41.55 -20.25 41.55 -20.45 41.45 -20.8 41.45 -20.9 41.55 -21.2 41.55 -21.2 41.55 -21.5 41.6 -22.15 41.5 -22.3 41.2 -22.55 40.8 -22.7 40.85 -22.7 40.85 -22.8 40.95 -23.0 41.0 -23.2 41.0 -23.2 41.2 -23.4 Q41.25 -23.5 41.3 -23.55 L41.35 -23.75 41.35 -23.95 41.35 -24.15 41.2 -24.3 41.2 -24.3 40.9 -24.55 40.8 -24.7 40.85 -24.8 40.85 -25.0 40.85 -25.4 40.75 -25.55 40.45 -25.8 40.3 -25.85 40.0 -25.9 Q39.55 -25.85 39.25 -25.35 L39.05 -25.0 39.05 -25.0 38.9 -24.8 38.55 -24.5 38.45 -24.4 38.35 -24.3 Q37.6 -23.45 36.85 -22.65;M40.1 -30.9 L40.1 -30.9 Q40.25 -30.4 40.75 -30.4 L40.85 -30.4 40.95 -30.45 40.95 -30.5 41.3 -30.7 41.5 -30.75 41.6 -30.75 41.9 -30.65 42.0 -30.65 42.25 -30.55 42.35 -30.5 42.35 -30.0 42.4 -29.7 42.45 -29.45 42.8 -29.2 43.0 -29.1 Q43.2 -29.0 43.35 -28.95 L43.35 -28.75 43.35 -28.55 Q43.6 -28.1 44.05 -27.95 L44.25 -27.9 44.35 -27.9 44.5 -27.95 44.5 -27.95 44.7 -28.05 44.7 -28.05 44.8 -28.25 44.9 -28.7 44.85 -28.9 44.7 -29.2 44.8 -29.55 44.8 -29.55 44.8 -29.55 44.85 -29.75 44.85 -30.05 44.85 -30.15 44.55 -30.4 Q44.45 -30.5 44.3 -30.55 L44.15 -30.65 43.95 -30.75 43.8 -30.8 43.6 -30.8 43.6 -31.0 43.6 -31.2 43.6 -31.3 43.6 -31.4 43.5 -31.55 43.25 -31.8 43.05 -31.9 42.6 -32.0 42.6 -32.1 42.5 -32.3 Q42.2 -32.5 41.9 -32.65 L41.75 -32.65 41.75 -32.6 41.5 -32.55 41.35 -32.5 41.35 -32.5 41.25 -32.4 Q40.35 -31.75 40.1 -30.9"/>
    </path>
    <path d="M36.85 -22.65 Q37.6 -23.45 38.35 -24.3 L38.45 -24.4 38.55 -24.5 38.9 -24.8 39.05 -25.0 39.05 -25.0 39.25 -25.35 Q39.55 -25.85 40.0 -25.9 L40.3 -25.85 40.45 -25.8 40.75 -25.55 40.85 -25.4 40.85 -25.0 40.85 -24.8 40.8 -24.7 40.9 -24.55 41.2 -24.3 41.2 -24.3 41.35 -24.15 41.35 -23.95 41.35 -23.75 41.3 -23.55 Q41.25 -23.5 41.2 -23.4 L41.0 -23.2 41.0 -23.2 40.95 -23.0 40.85 -22.8 40.85 -22.7 40.8 -22.7 41.2 -22.55 41.5 -22.3 41.6 -22.15 41.55 -21.5 41.55 -21.2 41.55 -21.2 41.45 -20.9 41.45 -20.8 41.55 -20.45 41.55 -20.25 41.55 -20.05 Q41.15 -19.55 40.75 -19.55 L40.55 -19.6 40.35 -19.7 Q40.1 -19.9 39.85 -20.15 L39.9 -20.5 40.0 -20.7 40.1 -20.9 39.9 -21.2 39.2 -21.8 39.1 -21.9 39.15 -22.1 39.15 -22.25 39.25 -22.55 39.35 -22.65 39.05 -22.95 38.55 -22.55 38.45 -22.4 38.35 -22.25 38.15 -22.15 Q37.45 -21.95 37.05 -22.4 L36.85 -22.65" fill="none" stroke="#000000" stroke-linecap="round" stroke-linejoin="round" stroke-opacity="0.0" stroke-width="1.0">
      <animate attributeName="stroke" dur="2s" repeatCount="indefinite" values="#000000;#000001"/>
      <animate attributeName="stroke-width" dur="2s" repeatCount="indefinite" values="0.0;0.0"/>
      <animate attributeName="fill-opacity" dur="2s" repeatCount="indefinite" values="0.0;0.0"/>
      <animate attributeName="d" dur="2s" repeatCount="indefinite" values="M36.85 -22.65 Q37.6 -23.45 38.35 -24.3 L38.45 -24.4 38.55 -24.5 38.9 -24.8 39.05 -25.0 39.05 -25.0 39.25 -25.35 Q39.55 -25.85 40.0 -25.9 L40.3 -25.85 40.45 -25.8 40.75 -25.55 40.85 -25.4 40.85 -25.0 40.85 -24.8 40.8 -24.7 40.9 -24.55 41.2 -24.3 41.2 -24.3 41.35 -24.15 41.35 -23.95 41.35 -23.75 41.3 -23.55 Q41.25 -23.5 41.2 -23.4 L41.0 -23.2 41.0 -23.2 40.95 -23.0 40.85 -22.8 40.85 -22.7 40.8 -22.7 41.2 -22.55 41.5 -22.3 41.6 -22.15 41.55 -21.5 41.55 -21.2 41.55 -21.2 41.45 -20.9 41.45 -20.8 41.55 -20.45 41.55 -20.25 41.55 -20.05 Q41.15 -19.55 40.75 -19.55 L40.55 -19.6 40.35 -19.7 Q40.1 -19.9 39.85 -20.15 L39.9 -20.5 40.0 -20.7 40.1 -20.9 39.9 -21.2 39.2 -21.8 39.1 -21.9 39.15 -22.1 39.15 -22.25 39.25 -22.55 39.35 -22.65 39.05 -22.95 38.55 -22.55 38.45 -22.4 38.35 -22.25 38.15 -22.15 Q37.45 -21.95 37.05 -22.4 L36.85 -22.65;M40.1 -30.9 Q40.35 -31.75 41.25 -32.4 L41.35 -32.5 41.35 -32.5 41.5 -32.55 41.75 -32.6 41.75 -32.65 41.9 -32.65 Q42.2 -32.5 42.5 -32.3 L42.6 -32.1 42.6 -32.0 43.05 -31.9 43.25 -31.8 43.5 -31.55 43.6 -31.4 43.6 -31.3 43.6 -31.2 43.6 -31.0 43.6 -30.8 43.8 -30.8 43.95 -30.75 44.15 -30.65 44.3 -30.55 Q44.45 -30.5 44.55 -30.4 L44.85 -30.15 44.85 -30.05 44.85 -29.75 44.8 -29.55 44.8 -29.55 44.8 -29.55 44.7 -29.2 44.85 -28.9 44.9 -28.7 44.8 -28.25 44.7 -28.05 44.7 -28.05 44.5 -27.95 44.5 -27.95 44.35 -27.9 44.25 -27.9 44.05 -27.95 Q43.6 -28.1 43.35 -28.55 L43.35 -28.75 43.35 -28.95 Q43.2 -29.0 43.0 -29.1 L42.8 -29.2 42.45 -29.45 42.4 -29.7 42.35 -30.0 42.35 -30.5 42.25 -30.55 42.0 -30.65 41.9 -30.65 41.6 -30.75 41.5 -30.75 41.3 -30.7 40.95 -30.5 40.95 -30.45 40.85 -30.4 40.75 -30.4 Q40.25 -30.4 40.1 -30.9 L40.1 -30.9"/>
    </path>
  </g>
</svg>
