<?xml version="1.0" encoding="UTF-8" standalone="no"?>
<svg xmlns:xlink="http://www.w3.org/1999/xlink" height="8.75px" width="13.0px" xmlns="http://www.w3.org/2000/svg">
  <g transform="matrix(1.0, 0.0, 0.0, 1.0, 10.15, 9.15)">
    <path d="M-10.15 -3.4 L-10.15 -3.4 -10.15 -3.0 -10.1 -2.7 -10.05 -2.45 -9.85 -2.35 -9.7 -2.25 -9.5 -2.15 -9.5 -2.15 -9.15 -2.3 -8.9 -2.65 -8.5 -2.45 -8.4 -2.45 -8.2 -1.95 -7.95 -1.65 -6.65 -1.55 -6.55 -1.55 -6.3 -1.9 -6.25 -1.8 -6.25 -1.8 -6.2 -1.65 -6.2 -1.65 -6.2 -1.65 Q-5.8 -1.15 -5.45 -0.65 L-5.35 -0.6 -5.25 -0.5 -5.0 -0.4 -4.8 -0.45 -4.65 -0.55 -4.55 -0.65 -4.45 -0.8 -4.5 -1.35 Q-4.95 -1.95 -5.1 -2.7 L-5.15 -2.9 -5.5 -3.2 -5.7 -3.3 -5.9 -3.4 -6.1 -3.45 -6.65 -3.35 -6.75 -3.35 -6.95 -3.25 -7.15 -3.15 -7.15 -3.15 -7.15 -3.5 -7.15 -3.9 Q-7.45 -4.45 -8.15 -4.45 L-8.25 -4.55 -8.45 -4.7 -8.75 -4.9 -9.05 -4.75 -9.15 -4.65 -9.15 -4.65 Q-9.65 -4.0 -10.15 -3.4" fill="#000000" fill-rule="evenodd" stroke="none">
      <animate attributeName="fill" dur="2s" repeatCount="indefinite" values="#000000;#000001"/>
      <animate attributeName="fill-opacity" dur="2s" repeatCount="indefinite" values="1.0;1.0"/>
      <animate attributeName="d" dur="2s" repeatCount="indefinite" values="M-10.15 -3.4 L-10.15 -3.4 -10.15 -3.0 -10.1 -2.7 -10.05 -2.45 -9.85 -2.35 -9.7 -2.25 -9.5 -2.15 -9.5 -2.15 -9.15 -2.3 -8.9 -2.65 -8.5 -2.45 -8.4 -2.45 -8.2 -1.95 -7.95 -1.65 -6.65 -1.55 -6.55 -1.55 -6.3 -1.9 -6.25 -1.8 -6.25 -1.8 -6.2 -1.65 -6.2 -1.65 -6.2 -1.65 Q-5.8 -1.15 -5.45 -0.65 L-5.35 -0.6 -5.25 -0.5 -5.0 -0.4 -4.8 -0.45 -4.65 -0.55 -4.55 -0.65 -4.45 -0.8 -4.5 -1.35 Q-4.95 -1.95 -5.1 -2.7 L-5.15 -2.9 -5.5 -3.2 -5.7 -3.3 -5.9 -3.4 -6.1 -3.45 -6.65 -3.35 -6.75 -3.35 -6.95 -3.25 -7.15 -3.15 -7.15 -3.15 -7.15 -3.5 -7.15 -3.9 Q-7.45 -4.45 -8.15 -4.45 L-8.25 -4.55 -8.45 -4.7 -8.75 -4.9 -9.05 -4.75 -9.15 -4.65 -9.15 -4.65 Q-9.65 -4.0 -10.15 -3.4;M-3.4 -7.4 L-3.25 -7.15 -2.95 -6.9 -2.75 -6.9 -2.6 -6.95 -2.5 -6.95 -2.4 -7.0 -2.2 -6.8 -2.2 -6.75 -1.9 -6.45 -1.85 -6.05 -1.8 -5.7 -1.6 -5.6 -1.25 -5.4 -1.0 -5.55 0.0 -7.0 0.2 -7.0 0.6 -7.05 0.6 -7.05 0.65 -6.9 0.65 -6.9 0.65 -6.8 0.7 -6.7 Q1.1 -6.35 1.6 -6.3 L1.65 -6.15 1.7 -5.95 2.05 -5.75 2.25 -5.65 2.45 -5.7 2.6 -5.8 2.75 -5.9 2.85 -6.45 Q2.85 -7.3 2.85 -8.15 L2.7 -8.3 2.25 -8.65 2.0 -8.6 1.85 -8.65 1.7 -8.8 1.25 -9.15 1.25 -9.1 1.0 -9.05 0.85 -9.0 0.85 -9.0 0.55 -8.75 0.25 -8.5 Q-0.25 -8.15 -0.9 -8.15 L-1.0 -8.15 -1.4 -8.2 -1.45 -8.55 -2.0 -8.9 -2.25 -8.8 -2.25 -8.8 Q-3.15 -8.25 -3.4 -7.4"/>
    </path>
    <path d="M-10.15 -3.4 Q-9.65 -4.0 -9.15 -4.65 L-9.15 -4.65 -9.05 -4.75 -8.75 -4.9 -8.45 -4.7 -8.25 -4.55 -8.15 -4.45 Q-7.45 -4.45 -7.15 -3.9 L-7.15 -3.5 -7.15 -3.15 -7.15 -3.15 -6.95 -3.25 -6.75 -3.35 -6.65 -3.35 -6.1 -3.45 -5.9 -3.4 -5.7 -3.3 -5.5 -3.2 -5.15 -2.9 -5.1 -2.7 Q-4.95 -1.95 -4.5 -1.35 L-4.45 -0.8 -4.55 -0.65 -4.65 -0.55 -4.8 -0.45 -5.0 -0.4 -5.25 -0.5 -5.35 -0.6 -5.45 -0.65 Q-5.8 -1.15 -6.2 -1.65 L-6.2 -1.65 -6.2 -1.65 -6.25 -1.8 -6.25 -1.8 -6.3 -1.9 -6.55 -1.55 -6.65 -1.55 -7.95 -1.65 -8.2 -1.95 -8.4 -2.45 -8.5 -2.45 -8.9 -2.65 -9.15 -2.3 -9.5 -2.15 -9.5 -2.15 -9.7 -2.25 -9.85 -2.35 -10.05 -2.45 -10.1 -2.7 -10.15 -3.0 -10.15 -3.4 -10.15 -3.4" fill="none" stroke="#000000" stroke-linecap="round" stroke-linejoin="round" stroke-opacity="0.0" stroke-width="1.0">
      <animate attributeName="stroke" dur="2s" repeatCount="indefinite" values="#000000;#000001"/>
      <animate attributeName="stroke-width" dur="2s" repeatCount="indefinite" values="0.0;0.0"/>
      <animate attributeName="fill-opacity" dur="2s" repeatCount="indefinite" values="0.0;0.0"/>
      <animate attributeName="d" dur="2s" repeatCount="indefinite" values="M-10.15 -3.4 Q-9.65 -4.0 -9.15 -4.65 L-9.15 -4.65 -9.05 -4.75 -8.75 -4.9 -8.45 -4.7 -8.25 -4.55 -8.15 -4.45 Q-7.45 -4.45 -7.15 -3.9 L-7.15 -3.5 -7.15 -3.15 -7.15 -3.15 -6.95 -3.25 -6.75 -3.35 -6.65 -3.35 -6.1 -3.45 -5.9 -3.4 -5.7 -3.3 -5.5 -3.2 -5.15 -2.9 -5.1 -2.7 Q-4.95 -1.95 -4.5 -1.35 L-4.45 -0.8 -4.55 -0.65 -4.65 -0.55 -4.8 -0.45 -5.0 -0.4 -5.25 -0.5 -5.35 -0.6 -5.45 -0.65 Q-5.8 -1.15 -6.2 -1.65 L-6.2 -1.65 -6.2 -1.65 -6.25 -1.8 -6.25 -1.8 -6.3 -1.9 -6.55 -1.55 -6.65 -1.55 -7.95 -1.65 -8.2 -1.95 -8.4 -2.45 -8.5 -2.45 -8.9 -2.65 -9.15 -2.3 -9.5 -2.15 -9.5 -2.15 -9.7 -2.25 -9.85 -2.35 -10.05 -2.45 -10.1 -2.7 -10.15 -3.0 -10.15 -3.4 -10.15 -3.4;M-3.4 -7.4 Q-3.15 -8.25 -2.25 -8.8 L-2.25 -8.8 -2.0 -8.9 -1.45 -8.55 -1.4 -8.2 -1.0 -8.15 -0.9 -8.15 Q-0.25 -8.15 0.25 -8.5 L0.55 -8.75 0.85 -9.0 0.85 -9.0 1.0 -9.05 1.25 -9.1 1.25 -9.15 1.7 -8.8 1.85 -8.65 2.0 -8.6 2.25 -8.65 2.7 -8.3 2.85 -8.15 Q2.85 -7.3 2.85 -6.45 L2.75 -5.9 2.6 -5.8 2.45 -5.7 2.25 -5.65 2.05 -5.75 1.7 -5.95 1.65 -6.15 1.6 -6.3 Q1.1 -6.35 0.7 -6.7 L0.65 -6.8 0.65 -6.9 0.65 -6.9 0.6 -7.05 0.6 -7.05 0.2 -7.0 0.0 -7.0 -1.0 -5.55 -1.25 -5.4 -1.6 -5.6 -1.8 -5.7 -1.85 -6.05 -1.9 -6.45 -2.2 -6.75 -2.2 -6.8 -2.4 -7.0 -2.5 -6.95 -2.6 -6.95 -2.75 -6.9 -2.95 -6.9 -3.25 -7.15 -3.4 -7.4"/>
    </path>
  </g>
</svg>
