<?xml version="1.0" encoding="UTF-8" standalone="no"?>
<svg xmlns:xlink="http://www.w3.org/1999/xlink" height="11.3px" width="12.75px" xmlns="http://www.w3.org/2000/svg">
  <g transform="matrix(1.0, 0.0, 0.0, 1.0, 4.9, 36.45)">
    <path d="M-4.9 -25.9 L-4.8 -25.75 -4.6 -25.55 -4.6 -25.55 -4.2 -25.35 -3.8 -25.4 -3.55 -25.55 -3.55 -25.55 -3.4 -25.95 -3.4 -26.15 -3.1 -26.35 -2.95 -26.5 -2.9 -26.7 -2.9 -27.05 -2.9 -27.25 -2.7 -27.35 -2.65 -27.3 -2.6 -27.15 -2.55 -26.95 -2.2 -26.75 -2.0 -26.65 -1.75 -26.55 -1.65 -26.45 -1.65 -26.25 -1.6 -25.9 -1.55 -25.7 -1.35 -25.5 -1.25 -25.45 -1.1 -25.4 -0.95 -25.45 -0.85 -25.5 Q-0.2 -25.95 0.45 -26.35 L0.75 -26.65 0.85 -26.75 0.95 -26.75 1.55 -26.65 1.85 -26.55 1.85 -26.5 1.85 -26.4 Q1.9 -26.0 1.9 -25.65 L1.95 -25.45 2.05 -25.35 2.15 -25.3 2.5 -25.15 2.6 -25.15 2.75 -25.2 2.85 -25.25 3.0 -25.4 3.0 -25.45 3.1 -25.55 3.2 -25.75 3.4 -25.75 3.5 -25.85 3.75 -25.95 4.05 -26.25 4.1 -26.45 Q4.15 -26.8 3.8 -26.95 L3.8 -26.95 3.5 -27.1 3.1 -27.2 3.1 -27.25 3.1 -27.35 Q2.55 -28.15 1.6 -28.0 1.55 -28.5 1.0 -28.5 L0.35 -28.4 -0.35 -27.75 -0.45 -27.55 -0.6 -27.75 -0.8 -28.0 -1.4 -28.5 -1.4 -28.7 -1.4 -28.9 -1.5 -29.05 -1.95 -29.4 -2.05 -29.4 -2.25 -29.45 -2.55 -29.4 -2.75 -29.4 -2.75 -29.35 -3.15 -29.25 -3.5 -28.7 Q-3.65 -28.1 -4.15 -27.75 L-4.15 -27.55 -4.15 -27.4 -4.15 -27.2 -4.7 -26.65 -4.9 -25.9" fill="#000000" fill-rule="evenodd" stroke="none">
      <animate attributeName="fill" dur="2s" repeatCount="indefinite" values="#000000;#000001"/>
      <animate attributeName="fill-opacity" dur="2s" repeatCount="indefinite" values="1.0;1.0"/>
      <animate attributeName="d" dur="2s" repeatCount="indefinite" values="M-4.9 -25.9 L-4.8 -25.75 -4.6 -25.55 -4.6 -25.55 -4.2 -25.35 -3.8 -25.4 -3.55 -25.55 -3.55 -25.55 -3.4 -25.95 -3.4 -26.15 -3.1 -26.35 -2.95 -26.5 -2.9 -26.7 -2.9 -27.05 -2.9 -27.25 -2.7 -27.35 -2.65 -27.3 -2.6 -27.15 -2.55 -26.95 -2.2 -26.75 -2.0 -26.65 -1.75 -26.55 -1.65 -26.45 -1.65 -26.25 -1.6 -25.9 -1.55 -25.7 -1.35 -25.5 -1.25 -25.45 -1.1 -25.4 -0.95 -25.45 -0.85 -25.5 Q-0.2 -25.95 0.45 -26.35 L0.75 -26.65 0.85 -26.75 0.95 -26.75 1.55 -26.65 1.85 -26.55 1.85 -26.5 1.85 -26.4 Q1.9 -26.0 1.9 -25.65 L1.95 -25.45 2.05 -25.35 2.15 -25.3 2.5 -25.15 2.6 -25.15 2.75 -25.2 2.85 -25.25 3.0 -25.4 3.0 -25.45 3.1 -25.55 3.2 -25.75 3.4 -25.75 3.5 -25.85 3.75 -25.95 4.05 -26.25 4.1 -26.45 Q4.15 -26.8 3.8 -26.95 L3.8 -26.95 3.5 -27.1 3.1 -27.2 3.1 -27.25 3.1 -27.35 Q2.55 -28.15 1.6 -28.0 1.55 -28.5 1.0 -28.5 L0.35 -28.4 -0.35 -27.75 -0.45 -27.55 -0.6 -27.75 -0.8 -28.0 -1.4 -28.5 -1.4 -28.7 -1.4 -28.9 -1.5 -29.05 -1.95 -29.4 -2.05 -29.4 -2.25 -29.45 -2.55 -29.4 -2.75 -29.4 -2.75 -29.35 -3.15 -29.25 -3.5 -28.7 Q-3.65 -28.1 -4.15 -27.75 L-4.15 -27.55 -4.15 -27.4 -4.15 -27.2 -4.7 -26.65 -4.9 -25.9;M-0.3 -32.95 L-0.3 -32.95 -0.1 -32.8 0.0 -32.8 0.25 -32.65 0.5 -32.7 0.7 -32.8 0.7 -32.8 0.8 -32.9 0.8 -33.1 0.95 -33.5 1.2 -33.85 1.4 -34.05 1.6 -34.25 1.8 -34.4 2.0 -34.5 2.2 -34.6 2.3 -34.7 2.5 -34.8 2.85 -34.9 2.85 -34.7 2.85 -34.5 2.85 -34.3 3.0 -34.15 3.2 -33.95 3.4 -33.75 3.6 -33.55 3.65 -33.4 3.7 -33.2 3.9 -33.05 4.0 -33.0 Q5.05 -32.7 5.6 -33.8 L6.05 -33.85 6.1 -33.8 6.1 -33.75 6.3 -33.2 6.45 -32.9 6.45 -32.9 6.45 -32.8 Q6.6 -32.4 7.0 -32.25 L7.15 -32.15 7.25 -32.15 7.35 -32.15 7.6 -32.35 7.7 -32.45 7.85 -32.65 7.85 -32.8 7.85 -33.1 7.85 -33.2 7.85 -33.4 7.65 -33.6 7.55 -33.75 7.45 -33.95 7.4 -34.3 7.35 -34.7 7.35 -34.9 Q7.35 -35.25 7.35 -35.6 L7.35 -35.65 7.05 -35.95 6.85 -36.15 6.75 -36.15 6.75 -36.15 Q6.0 -35.85 5.4 -35.4 5.1 -35.15 4.8 -34.95 L4.45 -34.65 4.35 -35.5 4.35 -35.7 4.35 -35.9 4.25 -36.05 3.85 -36.25 3.65 -36.35 3.45 -36.45 3.25 -36.45 2.75 -36.4 2.75 -36.35 2.5 -36.3 2.35 -36.25 2.25 -36.15 2.25 -36.15 2.15 -36.15 1.2 -35.6 Q0.8 -35.25 0.45 -34.9 L0.35 -34.75 0.25 -34.65 0.15 -34.45 -0.15 -33.7 -0.3 -32.95"/>
    </path>
    <path d="M-4.9 -25.9 L-4.7 -26.65 -4.15 -27.2 -4.15 -27.4 -4.15 -27.55 -4.15 -27.75 Q-3.65 -28.1 -3.5 -28.7 L-3.15 -29.25 -2.75 -29.35 -2.75 -29.4 -2.55 -29.4 -2.25 -29.45 -2.05 -29.4 -1.95 -29.4 -1.5 -29.05 -1.4 -28.9 -1.4 -28.7 -1.4 -28.5 -0.8 -28.0 -0.6 -27.75 -0.45 -27.55 -0.35 -27.75 0.35 -28.4 1.0 -28.5 Q1.55 -28.5 1.6 -28.0 2.55 -28.15 3.1 -27.35 L3.1 -27.25 3.1 -27.2 3.5 -27.1 3.8 -26.95 3.8 -26.95 Q4.15 -26.8 4.1 -26.45 L4.05 -26.25 3.75 -25.95 3.5 -25.85 3.4 -25.75 3.2 -25.75 3.1 -25.55 3.0 -25.45 3.0 -25.4 2.85 -25.25 2.75 -25.2 2.6 -25.15 2.5 -25.15 2.15 -25.3 2.05 -25.35 1.95 -25.45 1.9 -25.65 Q1.9 -26.0 1.85 -26.4 L1.85 -26.5 1.85 -26.55 1.55 -26.65 0.95 -26.75 0.85 -26.75 0.75 -26.65 0.45 -26.35 Q-0.2 -25.95 -0.85 -25.5 L-0.95 -25.45 -1.1 -25.4 -1.25 -25.45 -1.35 -25.5 -1.55 -25.7 -1.6 -25.9 -1.65 -26.25 -1.65 -26.45 -1.75 -26.55 -2.0 -26.65 -2.2 -26.75 -2.55 -26.95 -2.6 -27.15 -2.65 -27.3 -2.7 -27.35 -2.9 -27.25 -2.9 -27.05 -2.9 -26.7 -2.95 -26.5 -3.1 -26.35 -3.4 -26.15 -3.4 -25.95 -3.55 -25.55 -3.55 -25.55 -3.8 -25.4 -4.2 -25.35 -4.6 -25.55 -4.6 -25.55 -4.8 -25.75 -4.9 -25.9" fill="none" stroke="#000000" stroke-linecap="round" stroke-linejoin="round" stroke-opacity="0.0" stroke-width="1.0">
      <animate attributeName="stroke" dur="2s" repeatCount="indefinite" values="#000000;#000001"/>
      <animate attributeName="stroke-width" dur="2s" repeatCount="indefinite" values="0.0;0.0"/>
      <animate attributeName="fill-opacity" dur="2s" repeatCount="indefinite" values="0.0;0.0"/>
      <animate attributeName="d" dur="2s" repeatCount="indefinite" values="M-4.9 -25.9 L-4.7 -26.65 -4.15 -27.2 -4.15 -27.4 -4.15 -27.55 -4.15 -27.75 Q-3.65 -28.1 -3.5 -28.7 L-3.15 -29.25 -2.75 -29.35 -2.75 -29.4 -2.55 -29.4 -2.25 -29.45 -2.05 -29.4 -1.95 -29.4 -1.5 -29.05 -1.4 -28.9 -1.4 -28.7 -1.4 -28.5 -0.8 -28.0 -0.6 -27.75 -0.45 -27.55 -0.35 -27.75 0.35 -28.4 1.0 -28.5 Q1.55 -28.5 1.6 -28.0 2.55 -28.15 3.1 -27.35 L3.1 -27.25 3.1 -27.2 3.5 -27.1 3.8 -26.95 3.8 -26.95 Q4.15 -26.8 4.1 -26.45 L4.05 -26.25 3.75 -25.95 3.5 -25.85 3.4 -25.75 3.2 -25.75 3.1 -25.55 3.0 -25.45 3.0 -25.4 2.85 -25.25 2.75 -25.2 2.6 -25.15 2.5 -25.15 2.15 -25.3 2.05 -25.35 1.95 -25.45 1.9 -25.65 Q1.9 -26.0 1.85 -26.4 L1.85 -26.5 1.85 -26.55 1.55 -26.65 0.95 -26.75 0.85 -26.75 0.75 -26.65 0.45 -26.35 Q-0.2 -25.95 -0.85 -25.5 L-0.95 -25.45 -1.1 -25.4 -1.25 -25.45 -1.35 -25.5 -1.55 -25.7 -1.6 -25.9 -1.65 -26.25 -1.65 -26.45 -1.75 -26.55 -2.0 -26.65 -2.2 -26.75 -2.55 -26.95 -2.6 -27.15 -2.65 -27.3 -2.7 -27.35 -2.9 -27.25 -2.9 -27.05 -2.9 -26.7 -2.95 -26.5 -3.1 -26.35 -3.4 -26.15 -3.4 -25.95 -3.55 -25.55 -3.55 -25.55 -3.8 -25.4 -4.2 -25.35 -4.6 -25.55 -4.6 -25.55 -4.8 -25.75 -4.9 -25.9;M-0.3 -32.95 L-0.15 -33.7 0.15 -34.45 0.25 -34.65 0.35 -34.75 0.45 -34.9 Q0.8 -35.25 1.2 -35.6 L2.15 -36.15 2.25 -36.15 2.25 -36.15 2.35 -36.25 2.5 -36.3 2.75 -36.35 2.75 -36.4 3.25 -36.45 3.45 -36.45 3.65 -36.35 3.85 -36.25 4.25 -36.05 4.35 -35.9 4.35 -35.7 4.35 -35.5 4.45 -34.65 4.8 -34.95 Q5.1 -35.15 5.4 -35.4 6.0 -35.85 6.75 -36.15 L6.75 -36.15 6.85 -36.15 7.05 -35.95 7.35 -35.65 7.35 -35.6 Q7.35 -35.25 7.35 -34.9 L7.35 -34.7 7.4 -34.3 7.45 -33.95 7.55 -33.75 7.65 -33.6 7.85 -33.4 7.85 -33.2 7.85 -33.1 7.85 -32.8 7.85 -32.65 7.7 -32.45 7.6 -32.35 7.35 -32.15 7.25 -32.15 7.15 -32.15 7.0 -32.25 Q6.6 -32.4 6.45 -32.8 L6.45 -32.9 6.45 -32.9 6.3 -33.2 6.1 -33.75 6.1 -33.8 6.05 -33.85 5.6 -33.8 Q5.05 -32.7 4.0 -33.0 L3.9 -33.05 3.7 -33.2 3.65 -33.4 3.6 -33.55 3.4 -33.75 3.2 -33.95 3.0 -34.15 2.85 -34.3 2.85 -34.5 2.85 -34.7 2.85 -34.9 2.5 -34.8 2.3 -34.7 2.2 -34.6 2.0 -34.5 1.8 -34.4 1.6 -34.25 1.4 -34.05 1.2 -33.85 0.95 -33.5 0.8 -33.1 0.8 -32.9 0.7 -32.8 0.7 -32.8 0.5 -32.7 0.25 -32.65 0.0 -32.8 -0.1 -32.8 -0.3 -32.95 -0.3 -32.95"/>
    </path>
  </g>
</svg>
