<?xml version="1.0" encoding="UTF-8" standalone="no"?>
<svg xmlns:xlink="http://www.w3.org/1999/xlink" height="10.75px" width="12.0px" xmlns="http://www.w3.org/2000/svg">
  <g transform="matrix(1.0, 0.0, 0.0, 1.0, -16.35, 18.9)">
    <path d="M16.35 -8.9 L16.6 -8.5 16.8 -8.4 17.25 -8.4 17.85 -8.8 18.6 -9.25 Q19.3 -9.05 20.0 -8.9 L20.75 -9.3 Q20.9 -9.4 21.05 -9.5 L21.9 -10.05 22.0 -10.05 22.1 -10.15 Q22.0 -8.7 23.25 -8.15 L23.5 -8.2 23.7 -8.35 24.0 -8.7 24.1 -8.9 24.1 -9.0 24.1 -9.25 24.1 -9.65 24.0 -9.8 Q23.75 -10.15 23.35 -10.15 L23.35 -10.45 23.35 -10.8 23.35 -11.4 23.2 -11.55 23.1 -11.65 22.75 -11.9 22.65 -11.8 22.45 -11.8 21.95 -11.7 21.75 -11.6 21.35 -11.5 21.35 -11.5 21.25 -11.35 21.05 -11.0 20.8 -10.85 20.5 -10.8 19.7 -11.15 19.5 -11.25 19.1 -11.4 19.0 -11.4 18.9 -11.3 18.45 -11.0 Q17.15 -10.1 16.35 -8.9" fill="#000000" fill-rule="evenodd" stroke="none">
      <animate attributeName="fill" dur="2s" repeatCount="indefinite" values="#000000;#000001"/>
      <animate attributeName="fill-opacity" dur="2s" repeatCount="indefinite" values="1.0;1.0"/>
      <animate attributeName="d" dur="2s" repeatCount="indefinite" values="M16.35 -8.9 L16.6 -8.5 16.8 -8.4 17.25 -8.4 17.85 -8.8 18.6 -9.25 Q19.3 -9.05 20.0 -8.9 L20.75 -9.3 Q20.9 -9.4 21.05 -9.5 L21.9 -10.05 22.0 -10.05 22.1 -10.15 Q22.0 -8.7 23.25 -8.15 L23.5 -8.2 23.7 -8.35 24.0 -8.7 24.1 -8.9 24.1 -9.0 24.1 -9.25 24.1 -9.65 24.0 -9.8 Q23.75 -10.15 23.35 -10.15 L23.35 -10.45 23.35 -10.8 23.35 -11.4 23.2 -11.55 23.1 -11.65 22.75 -11.9 22.65 -11.8 22.45 -11.8 21.95 -11.7 21.75 -11.6 21.35 -11.5 21.35 -11.5 21.25 -11.35 21.05 -11.0 20.8 -10.85 20.5 -10.8 19.7 -11.15 19.5 -11.25 19.1 -11.4 19.0 -11.4 18.9 -11.3 18.45 -11.0 Q17.15 -10.1 16.35 -8.9;M20.85 -16.65 L20.85 -16.65 21.15 -16.4 21.6 -16.25 22.1 -16.05 22.7 -15.55 Q23.25 -15.25 23.8 -15.75 L24.45 -16.65 Q24.5 -16.55 24.65 -16.5 L25.6 -16.45 25.65 -16.35 25.75 -16.25 Q26.6 -15.3 27.75 -14.9 L28.0 -14.95 28.1 -15.0 28.3 -15.3 28.35 -15.5 28.3 -15.65 28.3 -15.65 28.0 -15.95 27.8 -16.2 Q27.45 -16.5 27.1 -16.8 L26.85 -17.0 26.85 -17.4 26.85 -17.95 26.85 -18.15 26.7 -18.3 26.45 -18.5 26.25 -18.65 26.0 -18.6 25.5 -18.55 25.3 -18.75 25.0 -18.9 25.0 -18.85 24.8 -18.75 24.6 -18.75 24.45 -18.55 24.25 -18.25 23.45 -17.5 23.4 -17.75 23.35 -18.15 23.3 -18.2 23.2 -18.3 22.75 -18.65 Q21.15 -18.15 20.85 -16.65"/>
    </path>
    <path d="M16.35 -8.9 Q17.15 -10.1 18.45 -11.0 L18.9 -11.3 19.0 -11.4 19.1 -11.4 19.5 -11.25 19.7 -11.15 20.5 -10.8 20.8 -10.85 21.05 -11.0 21.25 -11.35 21.35 -11.5 21.35 -11.5 21.75 -11.6 21.95 -11.7 22.45 -11.8 22.65 -11.8 22.75 -11.9 23.1 -11.65 23.2 -11.55 23.35 -11.4 23.35 -10.8 23.35 -10.45 23.35 -10.15 Q23.75 -10.15 24.0 -9.8 L24.1 -9.65 24.1 -9.25 24.1 -9.0 24.1 -8.9 24.0 -8.7 23.7 -8.35 23.5 -8.2 23.25 -8.15 Q22.0 -8.7 22.1 -10.15 L22.0 -10.05 21.9 -10.05 21.05 -9.5 Q20.9 -9.4 20.75 -9.3 L20.0 -8.9 Q19.3 -9.05 18.6 -9.25 L17.85 -8.8 17.25 -8.4 16.8 -8.4 16.6 -8.5 16.35 -8.9" fill="none" stroke="#000000" stroke-linecap="round" stroke-linejoin="round" stroke-opacity="0.0" stroke-width="1.0">
      <animate attributeName="stroke" dur="2s" repeatCount="indefinite" values="#000000;#000001"/>
      <animate attributeName="stroke-width" dur="2s" repeatCount="indefinite" values="0.0;0.0"/>
      <animate attributeName="fill-opacity" dur="2s" repeatCount="indefinite" values="0.0;0.0"/>
      <animate attributeName="d" dur="2s" repeatCount="indefinite" values="M16.35 -8.9 Q17.15 -10.1 18.45 -11.0 L18.9 -11.3 19.0 -11.4 19.1 -11.4 19.5 -11.25 19.7 -11.15 20.5 -10.8 20.8 -10.85 21.05 -11.0 21.25 -11.35 21.35 -11.5 21.35 -11.5 21.75 -11.6 21.95 -11.7 22.45 -11.8 22.65 -11.8 22.75 -11.9 23.1 -11.65 23.2 -11.55 23.35 -11.4 23.35 -10.8 23.35 -10.45 23.35 -10.15 Q23.75 -10.15 24.0 -9.8 L24.1 -9.65 24.1 -9.25 24.1 -9.0 24.1 -8.9 24.0 -8.7 23.7 -8.35 23.5 -8.2 23.25 -8.15 Q22.0 -8.7 22.1 -10.15 L22.0 -10.05 21.9 -10.05 21.05 -9.5 Q20.9 -9.4 20.75 -9.3 L20.0 -8.9 Q19.3 -9.05 18.6 -9.25 L17.85 -8.8 17.25 -8.4 16.8 -8.4 16.6 -8.5 16.35 -8.9;M20.85 -16.65 Q21.15 -18.15 22.75 -18.65 L23.2 -18.3 23.3 -18.2 23.35 -18.15 23.4 -17.75 23.45 -17.5 24.25 -18.25 24.45 -18.55 24.6 -18.75 24.8 -18.75 25.0 -18.85 25.0 -18.9 25.3 -18.75 25.5 -18.55 26.0 -18.6 26.25 -18.65 26.45 -18.5 26.7 -18.3 26.85 -18.15 26.85 -17.95 26.85 -17.4 26.85 -17.0 27.1 -16.8 Q27.45 -16.5 27.8 -16.2 L28.0 -15.95 28.3 -15.65 28.3 -15.65 28.35 -15.5 28.3 -15.3 28.1 -15.0 28.0 -14.95 27.75 -14.9 Q26.6 -15.3 25.75 -16.25 L25.65 -16.35 25.6 -16.45 24.65 -16.5 Q24.5 -16.55 24.45 -16.65 L23.8 -15.75 Q23.25 -15.25 22.7 -15.55 L22.1 -16.05 21.6 -16.25 21.15 -16.4 20.85 -16.65 20.85 -16.65"/>
    </path>
  </g>
</svg>
