<?xml version="1.0" encoding="UTF-8" standalone="no"?>
<svg xmlns:xlink="http://www.w3.org/1999/xlink" height="11.75px" width="8.5px" xmlns="http://www.w3.org/2000/svg">
  <g transform="matrix(1.0, 0.0, 0.0, 1.0, -40.1, 39.65)">
    <path d="M40.1 -30.9 L40.1 -30.9 Q40.25 -30.4 40.75 -30.4 40.85 -30.4 40.95 -30.5 L41.6 -30.75 41.7 -30.75 42.0 -30.65 42.25 -30.5 42.35 -30.5 42.35 -30.0 42.45 -29.55 42.45 -29.45 42.8 -29.2 43.0 -29.1 Q43.2 -29.0 43.35 -28.95 L43.35 -28.75 43.35 -28.55 Q43.55 -28.15 43.9 -28.0 L44.25 -27.9 44.4 -27.9 44.5 -27.95 44.7 -28.05 44.8 -28.25 Q45.0 -28.75 44.7 -29.2 L44.7 -29.35 44.8 -29.55 44.85 -30.15 44.0 -30.75 43.6 -30.8 43.6 -31.0 43.6 -31.2 43.6 -31.4 43.1 -31.85 42.9 -31.95 42.6 -32.0 42.6 -32.1 42.45 -32.35 41.75 -32.65 41.75 -32.6 41.5 -32.55 41.35 -32.5 41.25 -32.4 Q40.35 -31.75 40.1 -30.9" fill="#000000" fill-rule="evenodd" stroke="none">
      <animate attributeName="fill" dur="2s" repeatCount="indefinite" values="#000000;#000001"/>
      <animate attributeName="fill-opacity" dur="2s" repeatCount="indefinite" values="1.0;1.0"/>
      <animate attributeName="d" dur="2s" repeatCount="indefinite" values="M40.1 -30.9 L40.1 -30.9 Q40.25 -30.4 40.75 -30.4 40.85 -30.4 40.95 -30.5 L41.6 -30.75 41.7 -30.75 42.0 -30.65 42.25 -30.5 42.35 -30.5 42.35 -30.0 42.45 -29.55 42.45 -29.45 42.8 -29.2 43.0 -29.1 Q43.2 -29.0 43.35 -28.95 L43.35 -28.75 43.35 -28.55 Q43.55 -28.15 43.9 -28.0 L44.25 -27.9 44.4 -27.9 44.5 -27.95 44.7 -28.05 44.8 -28.25 Q45.0 -28.75 44.7 -29.2 L44.7 -29.35 44.8 -29.55 44.85 -30.15 44.0 -30.75 43.6 -30.8 43.6 -31.0 43.6 -31.2 43.6 -31.4 43.1 -31.85 42.9 -31.95 42.6 -32.0 42.6 -32.1 42.45 -32.35 41.75 -32.65 41.75 -32.6 41.5 -32.55 41.35 -32.5 41.25 -32.4 Q40.35 -31.75 40.1 -30.9;M43.35 -37.65 L43.7 -37.4 Q44.15 -37.25 44.55 -37.15 44.75 -37.15 44.95 -37.15 L45.75 -37.25 45.85 -37.25 45.9 -36.9 45.95 -36.7 46.05 -36.6 46.7 -36.3 47.05 -36.2 47.0 -36.1 46.9 -36.0 46.85 -35.65 Q47.0 -35.45 47.15 -35.25 L47.35 -35.15 47.55 -35.1 Q47.9 -35.2 48.2 -35.3 L48.3 -35.6 48.35 -35.7 48.4 -35.8 48.5 -36.0 48.55 -36.3 Q48.6 -36.75 48.6 -37.2 L48.6 -37.4 48.5 -37.5 47.9 -37.85 47.1 -37.8 47.0 -38.15 47.0 -38.25 46.9 -38.45 46.85 -38.65 46.85 -39.15 46.7 -39.3 46.55 -39.4 46.45 -39.5 46.25 -39.65 45.65 -39.35 45.65 -39.35 45.45 -39.25 45.15 -39.05 44.95 -38.95 Q44.0 -38.4 43.35 -37.65"/>
    </path>
    <path d="M40.1 -30.9 Q40.35 -31.75 41.25 -32.4 L41.35 -32.5 41.5 -32.55 41.75 -32.6 41.75 -32.65 42.45 -32.35 42.6 -32.1 42.6 -32.0 42.9 -31.95 43.1 -31.85 43.6 -31.4 43.6 -31.2 43.6 -31.0 43.6 -30.8 44.0 -30.75 44.85 -30.15 44.8 -29.55 44.7 -29.35 44.7 -29.2 Q45.0 -28.75 44.8 -28.25 L44.7 -28.05 44.5 -27.95 44.4 -27.9 44.25 -27.9 43.9 -28.0 Q43.55 -28.15 43.35 -28.55 L43.35 -28.75 43.35 -28.95 Q43.2 -29.0 43.0 -29.1 L42.8 -29.2 42.45 -29.45 42.45 -29.55 42.35 -30.0 42.35 -30.5 42.25 -30.5 42.0 -30.65 41.7 -30.75 41.6 -30.75 40.95 -30.5 Q40.85 -30.4 40.75 -30.4 40.25 -30.4 40.1 -30.9 L40.1 -30.9" fill="none" stroke="#000000" stroke-linecap="round" stroke-linejoin="round" stroke-opacity="0.0" stroke-width="1.0">
      <animate attributeName="stroke" dur="2s" repeatCount="indefinite" values="#000000;#000001"/>
      <animate attributeName="stroke-width" dur="2s" repeatCount="indefinite" values="0.0;0.0"/>
      <animate attributeName="fill-opacity" dur="2s" repeatCount="indefinite" values="0.0;0.0"/>
      <animate attributeName="d" dur="2s" repeatCount="indefinite" values="M40.1 -30.9 Q40.35 -31.75 41.25 -32.4 L41.35 -32.5 41.5 -32.55 41.75 -32.6 41.75 -32.65 42.45 -32.35 42.6 -32.1 42.6 -32.0 42.9 -31.95 43.1 -31.85 43.6 -31.4 43.6 -31.2 43.6 -31.0 43.6 -30.8 44.0 -30.75 44.85 -30.15 44.8 -29.55 44.7 -29.35 44.7 -29.2 Q45.0 -28.75 44.8 -28.25 L44.7 -28.05 44.5 -27.95 44.4 -27.9 44.25 -27.9 43.9 -28.0 Q43.55 -28.15 43.35 -28.55 L43.35 -28.75 43.35 -28.95 Q43.2 -29.0 43.0 -29.1 L42.8 -29.2 42.45 -29.45 42.45 -29.55 42.35 -30.0 42.35 -30.5 42.25 -30.5 42.0 -30.65 41.7 -30.75 41.6 -30.75 40.95 -30.5 Q40.85 -30.4 40.75 -30.4 40.25 -30.4 40.1 -30.9 L40.1 -30.9;M43.35 -37.65 Q44.0 -38.4 44.95 -38.95 L45.15 -39.05 45.45 -39.25 45.65 -39.35 45.65 -39.35 46.25 -39.65 46.45 -39.5 46.55 -39.4 46.7 -39.3 46.85 -39.15 46.85 -38.65 46.9 -38.45 47.0 -38.25 47.0 -38.15 47.1 -37.8 47.9 -37.85 48.5 -37.5 48.6 -37.4 48.6 -37.2 Q48.6 -36.75 48.55 -36.3 L48.5 -36.0 48.4 -35.8 48.35 -35.7 48.3 -35.6 48.2 -35.3 Q47.9 -35.2 47.55 -35.1 L47.35 -35.15 47.15 -35.25 Q47.0 -35.45 46.85 -35.65 L46.9 -36.0 47.0 -36.1 47.05 -36.2 46.7 -36.3 46.05 -36.6 45.95 -36.7 45.9 -36.9 45.85 -37.25 45.75 -37.25 44.95 -37.15 Q44.75 -37.15 44.55 -37.15 44.15 -37.25 43.7 -37.4 L43.35 -37.65"/>
    </path>
  </g>
</svg>
