<?xml version="1.0" encoding="UTF-8" standalone="no"?>
<svg xmlns:xlink="http://www.w3.org/1999/xlink" height="10.75px" width="11.75px" xmlns="http://www.w3.org/2000/svg">
  <g transform="matrix(1.0, 0.0, 0.0, 1.0, 0.15, 22.9)">
    <path d="M-0.15 -13.65 L0.15 -13.25 Q0.55 -12.95 1.1 -13.25 L1.2 -13.4 1.35 -13.75 1.55 -14.2 Q1.85 -14.55 2.25 -14.5 L2.35 -14.5 Q2.45 -14.1 2.7 -13.85 L2.9 -13.75 Q3.2 -13.55 3.6 -13.5 L3.6 -13.2 Q3.65 -12.8 3.7 -12.45 L4.25 -12.15 4.5 -12.2 4.7 -12.3 4.8 -12.5 4.9 -12.6 4.9 -12.8 5.0 -12.9 5.05 -13.05 5.2 -13.1 5.3 -13.1 5.3 -13.1 5.35 -13.0 5.45 -12.8 Q5.75 -12.3 6.25 -12.15 L6.4 -12.15 6.5 -12.2 6.6 -12.2 6.7 -12.3 6.75 -12.5 6.75 -12.5 6.75 -12.6 6.75 -13.2 6.7 -13.7 6.55 -14.0 6.4 -14.25 6.2 -14.5 5.55 -14.8 4.6 -14.7 4.6 -14.85 4.2 -15.35 4.0 -15.4 3.95 -15.4 3.75 -15.35 3.75 -15.35 3.6 -15.4 3.6 -15.4 3.6 -15.75 3.6 -16.05 3.6 -16.15 3.5 -16.25 3.45 -16.3 3.45 -16.3 3.4 -16.3 3.3 -16.4 3.0 -16.65 2.55 -16.45 2.55 -16.45 2.35 -16.35 1.95 -16.15 Q0.5 -15.25 -0.15 -13.65" fill="#000000" fill-rule="evenodd" stroke="none">
      <animate attributeName="fill" dur="2s" repeatCount="indefinite" values="#000000;#000001"/>
      <animate attributeName="fill-opacity" dur="2s" repeatCount="indefinite" values="1.0;1.0"/>
      <animate attributeName="d" dur="2s" repeatCount="indefinite" values="M-0.15 -13.65 L0.15 -13.25 Q0.55 -12.95 1.1 -13.25 L1.2 -13.4 1.35 -13.75 1.55 -14.2 Q1.85 -14.55 2.25 -14.5 L2.35 -14.5 Q2.45 -14.1 2.7 -13.85 L2.9 -13.75 Q3.2 -13.55 3.6 -13.5 L3.6 -13.2 Q3.65 -12.8 3.7 -12.45 L4.25 -12.15 4.5 -12.2 4.7 -12.3 4.8 -12.5 4.9 -12.6 4.9 -12.8 5.0 -12.9 5.05 -13.05 5.2 -13.1 5.3 -13.1 5.3 -13.1 5.35 -13.0 5.45 -12.8 Q5.75 -12.3 6.25 -12.15 L6.4 -12.15 6.5 -12.2 6.6 -12.2 6.7 -12.3 6.75 -12.5 6.75 -12.5 6.75 -12.6 6.75 -13.2 6.7 -13.7 6.55 -14.0 6.4 -14.25 6.2 -14.5 5.55 -14.8 4.6 -14.7 4.6 -14.85 4.2 -15.35 4.0 -15.4 3.95 -15.4 3.75 -15.35 3.75 -15.35 3.6 -15.4 3.6 -15.4 3.6 -15.75 3.6 -16.05 3.6 -16.15 3.5 -16.25 3.45 -16.3 3.45 -16.3 3.4 -16.3 3.3 -16.4 3.0 -16.65 2.55 -16.45 2.55 -16.45 2.35 -16.35 1.95 -16.15 Q0.5 -15.25 -0.15 -13.65;M5.1 -20.4 L5.1 -20.4 Q5.4 -19.85 5.85 -19.85 L6.05 -19.85 6.35 -20.0 6.55 -20.35 Q6.75 -20.55 6.95 -20.7 L7.25 -20.55 Q7.55 -20.35 7.85 -20.2 L7.9 -20.0 Q8.0 -19.55 8.05 -19.1 L8.15 -18.9 Q8.3 -18.55 8.6 -18.5 L9.1 -18.6 9.4 -18.75 9.6 -18.9 9.8 -19.0 9.8 -19.0 9.85 -19.2 9.85 -19.4 9.85 -19.5 9.85 -19.55 10.05 -19.5 10.05 -19.45 10.15 -19.3 10.2 -19.2 Q10.55 -18.75 11.1 -18.9 L11.25 -18.95 11.4 -19.05 11.4 -19.1 11.55 -19.2 11.6 -19.4 11.6 -19.45 11.6 -19.6 11.35 -20.0 11.35 -20.4 11.35 -20.6 11.35 -21.15 11.2 -21.3 10.75 -21.65 9.8 -21.15 9.7 -21.15 9.1 -21.25 9.1 -21.35 9.1 -21.45 9.1 -21.55 9.1 -21.65 9.0 -21.75 8.95 -21.8 8.75 -21.95 8.5 -22.15 8.45 -22.15 8.25 -22.1 8.25 -22.05 8.15 -22.1 8.1 -22.2 8.1 -22.35 7.85 -22.7 7.25 -22.9 7.25 -22.85 7.0 -22.8 6.85 -22.75 Q5.95 -21.55 5.1 -20.4"/>
    </path>
    <path d="M-0.15 -13.65 Q0.5 -15.25 1.95 -16.15 L2.35 -16.35 2.55 -16.45 2.55 -16.45 3.0 -16.65 3.3 -16.4 3.4 -16.3 3.45 -16.3 3.45 -16.3 3.5 -16.25 3.6 -16.15 3.6 -16.05 3.6 -15.75 3.6 -15.4 3.6 -15.4 3.75 -15.35 3.75 -15.35 3.95 -15.4 4.0 -15.4 4.2 -15.35 4.6 -14.85 4.6 -14.7 5.55 -14.8 6.2 -14.5 6.4 -14.25 6.55 -14.0 6.7 -13.7 6.75 -13.2 6.75 -12.6 6.75 -12.5 6.75 -12.5 6.7 -12.3 6.6 -12.2 6.5 -12.2 6.4 -12.15 6.25 -12.15 Q5.75 -12.3 5.45 -12.8 L5.35 -13.0 5.3 -13.1 5.3 -13.1 5.2 -13.1 5.05 -13.05 5.0 -12.9 4.9 -12.8 4.9 -12.6 4.8 -12.5 4.7 -12.3 4.5 -12.2 4.25 -12.15 3.7 -12.45 Q3.65 -12.8 3.6 -13.2 L3.6 -13.5 Q3.2 -13.55 2.9 -13.75 L2.7 -13.85 Q2.45 -14.1 2.35 -14.5 L2.25 -14.5 Q1.85 -14.55 1.55 -14.2 L1.35 -13.75 1.2 -13.4 1.1 -13.25 Q0.55 -12.95 0.15 -13.25 L-0.15 -13.65" fill="none" stroke="#000000" stroke-linecap="round" stroke-linejoin="round" stroke-opacity="0.0" stroke-width="1.0">
      <animate attributeName="stroke" dur="2s" repeatCount="indefinite" values="#000000;#000001"/>
      <animate attributeName="stroke-width" dur="2s" repeatCount="indefinite" values="0.0;0.0"/>
      <animate attributeName="fill-opacity" dur="2s" repeatCount="indefinite" values="0.0;0.0"/>
      <animate attributeName="d" dur="2s" repeatCount="indefinite" values="M-0.15 -13.65 Q0.5 -15.25 1.95 -16.15 L2.35 -16.35 2.55 -16.45 2.55 -16.45 3.0 -16.65 3.3 -16.4 3.4 -16.3 3.45 -16.3 3.45 -16.3 3.5 -16.25 3.6 -16.15 3.6 -16.05 3.6 -15.75 3.6 -15.4 3.6 -15.4 3.75 -15.35 3.75 -15.35 3.95 -15.4 4.0 -15.4 4.2 -15.35 4.6 -14.85 4.6 -14.7 5.55 -14.8 6.2 -14.5 6.4 -14.25 6.55 -14.0 6.7 -13.7 6.75 -13.2 6.75 -12.6 6.75 -12.5 6.75 -12.5 6.7 -12.3 6.6 -12.2 6.5 -12.2 6.4 -12.15 6.25 -12.15 Q5.75 -12.3 5.45 -12.8 L5.35 -13.0 5.3 -13.1 5.3 -13.1 5.2 -13.1 5.05 -13.05 5.0 -12.9 4.9 -12.8 4.9 -12.6 4.8 -12.5 4.7 -12.3 4.5 -12.2 4.25 -12.15 3.7 -12.45 Q3.65 -12.8 3.6 -13.2 L3.6 -13.5 Q3.2 -13.55 2.9 -13.75 L2.7 -13.85 Q2.45 -14.1 2.35 -14.5 L2.25 -14.5 Q1.85 -14.55 1.55 -14.2 L1.35 -13.75 1.2 -13.4 1.1 -13.25 Q0.55 -12.95 0.15 -13.25 L-0.15 -13.65;M5.1 -20.4 Q5.95 -21.55 6.85 -22.75 L7.0 -22.8 7.25 -22.85 7.25 -22.9 7.85 -22.7 8.1 -22.35 8.1 -22.2 8.15 -22.1 8.25 -22.05 8.25 -22.1 8.45 -22.15 8.5 -22.15 8.75 -21.95 8.95 -21.8 9.0 -21.75 9.1 -21.65 9.1 -21.55 9.1 -21.45 9.1 -21.35 9.1 -21.25 9.7 -21.15 9.8 -21.15 10.75 -21.65 11.2 -21.3 11.35 -21.15 11.35 -20.6 11.35 -20.4 11.35 -20.0 11.6 -19.6 11.6 -19.45 11.6 -19.4 11.55 -19.2 11.4 -19.1 11.4 -19.05 11.25 -18.95 11.1 -18.9 Q10.55 -18.75 10.2 -19.2 L10.15 -19.3 10.05 -19.45 10.05 -19.5 9.85 -19.55 9.85 -19.5 9.85 -19.4 9.85 -19.2 9.8 -19.0 9.8 -19.0 9.6 -18.9 9.4 -18.75 9.1 -18.6 8.6 -18.5 Q8.3 -18.55 8.15 -18.9 L8.05 -19.1 Q8.0 -19.55 7.9 -20.0 L7.85 -20.2 Q7.55 -20.35 7.25 -20.55 L6.95 -20.7 Q6.75 -20.55 6.55 -20.35 L6.35 -20.0 6.05 -19.85 5.85 -19.85 Q5.4 -19.85 5.1 -20.4 L5.1 -20.4"/>
    </path>
  </g>
</svg>
