<?xml version="1.0" encoding="UTF-8" standalone="no"?>
<svg xmlns:xlink="http://www.w3.org/1999/xlink" height="83.85px" width="75.65px" xmlns="http://www.w3.org/2000/svg">
  <g transform="matrix(1.0, 0.0, 0.0, 1.0, 20.6, 70.3)">
    <path d="M-20.55 -6.35 Q-20.25 -0.45 -17.25 3.85 -15.55 6.25 -13.05 8.15 -9.3 11.0 -4.9 12.35 -1.15 13.5 3.0 13.55 6.65 13.25 10.3 13.0 L14.7 11.8 Q16.35 11.1 17.95 10.45 L19.7 9.55 23.4 7.4 25.2 6.3 27.6 2.5 29.25 -0.05 Q31.25 -3.05 33.25 -6.05 33.85 -6.95 34.05 -8.1 L34.45 -10.25 Q35.0 -12.7 35.5 -15.1 36.0 -17.05 36.5 -19.0 L36.6 -19.4 Q37.55 -22.05 39.35 -24.35 L39.75 -24.85 Q41.05 -26.35 42.35 -27.8 L47.25 -32.75 Q48.35 -33.75 49.45 -34.7 L49.75 -34.9 51.15 -36.15 Q53.2 -38.3 54.25 -40.95 54.65 -42.3 55.05 -43.65 L55.0 -44.05 53.95 -43.5 Q50.35 -41.75 46.05 -42.25 L45.65 -42.3 Q44.55 -42.45 43.8 -43.25 L43.35 -43.85 Q42.55 -45.05 42.25 -46.2 41.55 -49.2 44.05 -51.9 44.85 -52.75 45.85 -53.2 L47.35 -53.6 47.95 -53.7 49.75 -53.9 Q51.95 -54.1 54.15 -54.25 L53.85 -54.6 52.9 -55.6 Q52.05 -56.15 51.25 -56.7 49.4 -56.9 47.6 -57.05 46.25 -56.95 44.95 -56.9 41.65 -56.5 38.6 -54.85 L38.4 -54.75 Q37.45 -54.2 36.8 -53.2 L36.55 -52.8 Q35.2 -50.2 33.5 -47.7 L32.5 -44.2 Q32.25 -43.1 32.0 -42.0 L31.7 -40.7 Q30.85 -36.45 27.25 -33.4 24.1 -30.7 20.95 -31.4 19.45 -31.7 18.0 -32.75 17.5 -33.1 17.35 -33.75 L17.15 -34.45 Q16.95 -35.4 16.75 -36.35 16.1 -40.05 16.25 -43.9 16.45 -45.7 16.6 -47.45 L16.75 -48.4 Q17.55 -52.45 20.3 -55.4 L20.5 -55.6 20.75 -55.85 20.95 -56.05 21.05 -56.15 21.35 -56.45 24.35 -59.1 25.3 -59.85 Q28.15 -62.05 31.55 -63.45 L31.6 -63.5 Q27.95 -64.1 24.45 -63.5 L23.15 -63.25 22.25 -63.0 Q21.15 -62.2 20.6 -61.0 L20.3 -60.4 19.45 -59.05 Q17.95 -57.35 15.6 -57.25 14.6 -57.2 14.15 -58.2 L14.05 -58.5 Q13.35 -60.15 13.7 -61.95 11.05 -59.0 9.9 -55.1 L9.35 -53.1 Q8.8 -50.45 8.3 -47.85 L8.2 -47.15 Q8.0 -45.65 7.25 -44.45 6.1 -42.45 4.65 -42.9 3.85 -43.15 3.0 -44.15 L2.45 -45.3 2.4 -45.9 2.45 -48.75 2.45 -51.35 1.3 -51.25 Q-0.75 -49.55 -2.3 -47.5 L-3.6 -45.65 -4.7 -44.0 -5.35 -43.1 Q-5.25 -39.7 -5.85 -36.4 L-5.95 -36.1 Q-6.3 -34.35 -6.95 -32.75 -8.05 -30.05 -9.9 -27.85 -10.8 -26.9 -11.65 -26.0 -12.45 -25.25 -13.3 -24.6 L-14.25 -23.9 Q-16.3 -22.45 -17.8 -20.5 L-18.7 -19.3 -19.75 -17.7 -20.25 -14.85 Q-20.45 -12.35 -20.6 -9.85 -20.55 -8.2 -20.55 -6.55 L-20.55 -6.35" fill="url(#gradient0)" fill-rule="evenodd" stroke="none">
      <animate attributeName="d" dur="2s" repeatCount="indefinite" values="M-20.55 -6.35 Q-20.25 -0.45 -17.25 3.85 -15.55 6.25 -13.05 8.15 -9.3 11.0 -4.9 12.35 -1.15 13.5 3.0 13.55 6.65 13.25 10.3 13.0 L14.7 11.8 Q16.35 11.1 17.95 10.45 L19.7 9.55 23.4 7.4 25.2 6.3 27.6 2.5 29.25 -0.05 Q31.25 -3.05 33.25 -6.05 33.85 -6.95 34.05 -8.1 L34.45 -10.25 Q35.0 -12.7 35.5 -15.1 36.0 -17.05 36.5 -19.0 L36.6 -19.4 Q37.55 -22.05 39.35 -24.35 L39.75 -24.85 Q41.05 -26.35 42.35 -27.8 L47.25 -32.75 Q48.35 -33.75 49.45 -34.7 L49.75 -34.9 51.15 -36.15 Q53.2 -38.3 54.25 -40.95 54.65 -42.3 55.05 -43.65 L55.0 -44.05 53.95 -43.5 Q50.35 -41.75 46.05 -42.25 L45.65 -42.3 Q44.55 -42.45 43.8 -43.25 L43.35 -43.85 Q42.55 -45.05 42.25 -46.2 41.55 -49.2 44.05 -51.9 44.85 -52.75 45.85 -53.2 L47.35 -53.6 47.95 -53.7 49.75 -53.9 Q51.95 -54.1 54.15 -54.25 L53.85 -54.6 52.9 -55.6 Q52.05 -56.15 51.25 -56.7 49.4 -56.9 47.6 -57.05 46.25 -56.95 44.95 -56.9 41.65 -56.5 38.6 -54.85 L38.4 -54.75 Q37.45 -54.2 36.8 -53.2 L36.55 -52.8 Q35.2 -50.2 33.5 -47.7 L32.5 -44.2 Q32.25 -43.1 32.0 -42.0 L31.7 -40.7 Q30.85 -36.45 27.25 -33.4 24.1 -30.7 20.95 -31.4 19.45 -31.7 18.0 -32.75 17.5 -33.1 17.35 -33.75 L17.15 -34.45 Q16.95 -35.4 16.75 -36.35 16.1 -40.05 16.25 -43.9 16.45 -45.7 16.6 -47.45 L16.75 -48.4 Q17.55 -52.45 20.3 -55.4 L20.5 -55.6 20.75 -55.85 20.95 -56.05 21.05 -56.15 21.35 -56.45 24.35 -59.1 25.3 -59.85 Q28.15 -62.05 31.55 -63.45 L31.6 -63.5 Q27.95 -64.1 24.45 -63.5 L23.15 -63.25 22.25 -63.0 Q21.15 -62.2 20.6 -61.0 L20.3 -60.4 19.45 -59.05 Q17.95 -57.35 15.6 -57.25 14.6 -57.2 14.15 -58.2 L14.05 -58.5 Q13.35 -60.15 13.7 -61.95 11.05 -59.0 9.9 -55.1 L9.35 -53.1 Q8.8 -50.45 8.3 -47.85 L8.2 -47.15 Q8.0 -45.65 7.25 -44.45 6.1 -42.45 4.65 -42.9 3.85 -43.15 3.0 -44.15 L2.45 -45.3 2.4 -45.9 2.45 -48.75 2.45 -51.35 1.3 -51.25 Q-0.75 -49.55 -2.3 -47.5 L-3.6 -45.65 -4.7 -44.0 -5.35 -43.1 Q-5.25 -39.7 -5.85 -36.4 L-5.95 -36.1 Q-6.3 -34.35 -6.95 -32.75 -8.05 -30.05 -9.9 -27.85 -10.8 -26.9 -11.65 -26.0 -12.45 -25.25 -13.3 -24.6 L-14.25 -23.9 Q-16.3 -22.45 -17.8 -20.5 L-18.7 -19.3 -19.75 -17.7 -20.25 -14.85 Q-20.45 -12.35 -20.6 -9.85 -20.55 -8.2 -20.55 -6.55 L-20.55 -6.35;M-19.9 -1.95 Q-18.3 4.2 -13.05 8.15 -10.25 10.25 -7.15 11.55 -2.45 13.45 3.0 13.55 7.7 13.65 12.0 12.6 16.05 11.6 19.7 9.55 L24.2 6.95 Q25.05 5.25 26.6 3.8 L28.25 2.15 31.5 -1.6 32.8 -3.35 35.55 -7.35 37.4 -10.4 Q39.45 -13.9 42.35 -16.7 43.2 -17.45 44.0 -18.2 L45.9 -19.7 Q43.8 -20.05 40.55 -19.05 37.9 -18.2 36.3 -20.05 L36.0 -20.45 Q33.65 -23.7 36.55 -26.0 L36.75 -26.2 Q38.75 -27.7 41.35 -27.95 L49.15 -28.8 Q50.9 -29.0 52.15 -30.4 L52.4 -30.7 53.6 -32.1 Q50.35 -32.45 47.15 -32.8 45.45 -33.05 44.5 -34.25 L44.2 -34.7 43.7 -35.75 Q42.05 -40.3 43.55 -44.85 L43.75 -45.35 Q44.25 -46.55 45.35 -47.45 L46.05 -48.05 Q47.1 -49.0 48.15 -49.95 50.7 -52.45 52.0 -55.5 52.35 -56.55 52.65 -57.55 L52.95 -59.2 53.0 -60.0 52.85 -62.15 Q51.2 -60.05 49.2 -58.5 L48.8 -58.2 47.7 -57.45 Q46.75 -56.9 45.75 -56.45 43.85 -55.55 41.7 -55.05 40.25 -54.7 39.2 -53.55 36.65 -50.7 36.6 -46.45 L36.6 -46.15 Q36.5 -44.8 35.85 -43.55 L35.55 -43.05 Q33.55 -39.6 30.3 -39.15 L26.2 -39.55 Q24.8 -39.95 24.6 -41.4 L24.5 -42.85 Q24.35 -48.0 28.9 -51.05 24.45 -50.0 22.25 -53.35 21.05 -55.2 21.45 -56.9 21.7 -57.45 21.9 -58.0 L22.45 -58.8 Q23.1 -59.65 24.2 -59.75 28.4 -60.0 32.55 -60.25 33.7 -62.05 35.2 -63.55 L36.15 -64.35 Q39.55 -67.25 43.55 -69.1 L43.25 -69.45 43.0 -69.75 42.8 -70.1 42.7 -70.1 42.15 -70.2 37.45 -70.3 36.05 -70.3 Q32.95 -67.35 29.2 -66.05 L29.2 -66.05 Q25.6 -64.8 21.4 -65.05 L20.0 -65.05 18.95 -64.9 Q17.4 -64.5 15.9 -64.15 L15.3 -63.95 13.7 -62.8 Q11.75 -61.25 9.8 -59.7 9.15 -59.15 8.5 -58.6 L8.2 -58.3 Q7.3 -56.55 7.5 -54.25 8.0 -49.55 6.85 -45.2 L6.2 -43.1 Q5.2 -40.1 1.6 -39.95 L0.9 -39.95 Q-1.25 -40.0 -2.05 -41.45 -2.75 -42.65 -2.45 -44.85 -2.35 -46.0 -2.25 -47.1 L-2.3 -48.5 -2.7 -48.05 -4.85 -45.65 -5.8 -42.95 -6.15 -41.55 Q-6.75 -38.8 -6.65 -35.95 L-6.3 -33.5 -5.55 -31.3 -5.05 -30.05 Q-3.8 -26.6 -4.45 -22.85 L-4.55 -22.45 Q-5.05 -20.4 -7.3 -20.25 -10.6 -20.4 -13.85 -20.5 -15.3 -20.7 -16.2 -22.0 -16.9 -22.95 -17.55 -23.85 L-17.65 -22.45 Q-17.8 -19.9 -17.55 -17.2 L-17.35 -15.6 -17.05 -13.5 -16.75 -10.5 Q-16.45 -7.35 -19.05 -5.7 -18.95 -3.8 -19.8 -2.15 L-19.9 -1.95"/>
    </path>
    <path d="M-20.55 -6.35 L-20.55 -6.55 Q-20.55 -8.2 -20.6 -9.85 -20.45 -12.35 -20.25 -14.85 L-19.75 -17.7 -18.7 -19.3 -17.8 -20.5 Q-16.3 -22.45 -14.25 -23.9 L-13.3 -24.6 Q-12.45 -25.25 -11.65 -26.0 -10.8 -26.9 -9.9 -27.85 -8.05 -30.05 -6.95 -32.75 -6.3 -34.35 -5.95 -36.1 L-5.85 -36.4 Q-5.25 -39.7 -5.35 -43.1 L-4.7 -44.0 -3.6 -45.65 -2.3 -47.5 Q-0.75 -49.55 1.3 -51.25 L2.45 -51.35 2.45 -48.75 2.4 -45.9 2.45 -45.3 3.0 -44.15 Q3.85 -43.15 4.65 -42.9 6.1 -42.45 7.25 -44.45 8.0 -45.65 8.2 -47.15 L8.3 -47.85 Q8.8 -50.45 9.35 -53.1 L9.9 -55.1 Q11.05 -59.0 13.7 -61.95 13.35 -60.15 14.05 -58.5 L14.15 -58.2 Q14.6 -57.2 15.6 -57.25 17.95 -57.35 19.45 -59.05 L20.3 -60.4 20.6 -61.0 Q21.15 -62.2 22.25 -63.0 L23.15 -63.25 24.45 -63.5 Q27.95 -64.1 31.6 -63.5 L31.55 -63.45 Q28.15 -62.05 25.3 -59.85 L24.35 -59.1 21.35 -56.45 21.05 -56.15 20.95 -56.05 20.75 -55.85 20.5 -55.6 20.3 -55.4 Q17.55 -52.45 16.75 -48.4 L16.6 -47.45 Q16.45 -45.7 16.25 -43.9 16.1 -40.05 16.75 -36.35 16.95 -35.4 17.15 -34.45 L17.35 -33.75 Q17.5 -33.1 18.0 -32.75 19.45 -31.7 20.95 -31.4 24.1 -30.7 27.25 -33.4 30.85 -36.45 31.7 -40.7 L32.0 -42.0 Q32.25 -43.1 32.5 -44.2 L33.5 -47.7 Q35.2 -50.2 36.55 -52.8 L36.8 -53.2 Q37.45 -54.2 38.4 -54.75 L38.6 -54.85 Q41.65 -56.5 44.95 -56.9 46.25 -56.95 47.6 -57.05 49.4 -56.9 51.25 -56.7 52.05 -56.15 52.9 -55.6 L53.85 -54.6 54.15 -54.25 Q51.95 -54.1 49.75 -53.9 L47.95 -53.7 47.35 -53.6 45.85 -53.2 Q44.85 -52.75 44.05 -51.9 41.55 -49.2 42.25 -46.2 42.55 -45.05 43.35 -43.85 L43.8 -43.25 Q44.55 -42.45 45.65 -42.3 L46.05 -42.25 Q50.35 -41.75 53.95 -43.5 L55.0 -44.05 55.05 -43.65 Q54.65 -42.3 54.25 -40.95 53.2 -38.3 51.15 -36.15 L49.75 -34.9 49.45 -34.7 Q48.35 -33.75 47.25 -32.75 L42.35 -27.8 Q41.05 -26.35 39.75 -24.85 L39.35 -24.35 Q37.55 -22.05 36.6 -19.4 L36.5 -19.0 Q36.0 -17.05 35.5 -15.1 35.0 -12.7 34.45 -10.25 L34.05 -8.1 Q33.85 -6.95 33.25 -6.05 31.25 -3.05 29.25 -0.05 L27.6 2.5 25.2 6.3 23.4 7.4 19.7 9.55 17.95 10.45 Q16.35 11.1 14.7 11.8 L10.3 13.0 Q6.65 13.25 3.0 13.55 -1.15 13.5 -4.9 12.35 -9.3 11.0 -13.05 8.15 -15.55 6.25 -17.25 3.85 -20.25 -0.45 -20.55 -6.35" fill="none" stroke="#000000" stroke-linecap="round" stroke-linejoin="round" stroke-opacity="0.0" stroke-width="1.0">
      <animate attributeName="stroke" dur="2s" repeatCount="indefinite" values="#000000;#000001"/>
      <animate attributeName="stroke-width" dur="2s" repeatCount="indefinite" values="0.0;0.0"/>
      <animate attributeName="fill-opacity" dur="2s" repeatCount="indefinite" values="0.0;0.0"/>
      <animate attributeName="d" dur="2s" repeatCount="indefinite" values="M-20.55 -6.35 L-20.55 -6.55 Q-20.55 -8.2 -20.6 -9.85 -20.45 -12.35 -20.25 -14.85 L-19.75 -17.7 -18.7 -19.3 -17.8 -20.5 Q-16.3 -22.45 -14.25 -23.9 L-13.3 -24.6 Q-12.45 -25.25 -11.65 -26.0 -10.8 -26.9 -9.9 -27.85 -8.05 -30.05 -6.95 -32.75 -6.3 -34.35 -5.95 -36.1 L-5.85 -36.4 Q-5.25 -39.7 -5.35 -43.1 L-4.7 -44.0 -3.6 -45.65 -2.3 -47.5 Q-0.75 -49.55 1.3 -51.25 L2.45 -51.35 2.45 -48.75 2.4 -45.9 2.45 -45.3 3.0 -44.15 Q3.85 -43.15 4.65 -42.9 6.1 -42.45 7.25 -44.45 8.0 -45.65 8.2 -47.15 L8.3 -47.85 Q8.8 -50.45 9.35 -53.1 L9.9 -55.1 Q11.05 -59.0 13.7 -61.95 13.35 -60.15 14.05 -58.5 L14.15 -58.2 Q14.6 -57.2 15.6 -57.25 17.95 -57.35 19.45 -59.05 L20.3 -60.4 20.6 -61.0 Q21.15 -62.2 22.25 -63.0 L23.15 -63.25 24.45 -63.5 Q27.95 -64.1 31.6 -63.5 L31.55 -63.45 Q28.15 -62.05 25.3 -59.85 L24.35 -59.1 21.35 -56.45 21.05 -56.15 20.95 -56.05 20.75 -55.85 20.5 -55.6 20.3 -55.4 Q17.55 -52.45 16.75 -48.4 L16.6 -47.45 Q16.45 -45.7 16.25 -43.9 16.1 -40.05 16.75 -36.35 16.95 -35.4 17.15 -34.45 L17.35 -33.75 Q17.5 -33.1 18.0 -32.75 19.45 -31.7 20.95 -31.4 24.1 -30.7 27.25 -33.4 30.85 -36.45 31.7 -40.7 L32.0 -42.0 Q32.25 -43.1 32.5 -44.2 L33.5 -47.7 Q35.2 -50.2 36.55 -52.8 L36.8 -53.2 Q37.45 -54.2 38.4 -54.75 L38.6 -54.85 Q41.65 -56.5 44.95 -56.9 46.25 -56.95 47.6 -57.05 49.4 -56.9 51.25 -56.7 52.05 -56.15 52.9 -55.6 L53.85 -54.6 54.15 -54.25 Q51.95 -54.1 49.75 -53.9 L47.95 -53.7 47.35 -53.6 45.85 -53.2 Q44.85 -52.75 44.05 -51.9 41.55 -49.2 42.25 -46.2 42.55 -45.05 43.35 -43.85 L43.8 -43.25 Q44.55 -42.45 45.65 -42.3 L46.05 -42.25 Q50.35 -41.75 53.95 -43.5 L55.0 -44.05 55.05 -43.65 Q54.65 -42.3 54.25 -40.95 53.2 -38.3 51.15 -36.15 L49.75 -34.9 49.45 -34.7 Q48.35 -33.75 47.25 -32.75 L42.35 -27.8 Q41.05 -26.35 39.75 -24.85 L39.35 -24.35 Q37.55 -22.05 36.6 -19.4 L36.5 -19.0 Q36.0 -17.05 35.5 -15.1 35.0 -12.7 34.45 -10.25 L34.05 -8.1 Q33.85 -6.95 33.25 -6.05 31.25 -3.05 29.25 -0.05 L27.6 2.5 25.2 6.3 23.4 7.4 19.7 9.55 17.95 10.45 Q16.35 11.1 14.7 11.8 L10.3 13.0 Q6.65 13.25 3.0 13.55 -1.15 13.5 -4.9 12.35 -9.3 11.0 -13.05 8.15 -15.55 6.25 -17.25 3.85 -20.25 -0.45 -20.55 -6.35;M-19.9 -1.95 L-19.8 -2.15 Q-18.95 -3.8 -19.05 -5.7 -16.45 -7.35 -16.75 -10.5 L-17.05 -13.5 -17.35 -15.6 -17.55 -17.2 Q-17.8 -19.9 -17.65 -22.45 L-17.55 -23.85 Q-16.9 -22.95 -16.2 -22.0 -15.3 -20.7 -13.85 -20.5 -10.6 -20.4 -7.3 -20.25 -5.05 -20.4 -4.55 -22.45 L-4.45 -22.85 Q-3.8 -26.6 -5.05 -30.05 L-5.55 -31.3 -6.3 -33.5 -6.65 -35.95 Q-6.75 -38.8 -6.15 -41.55 L-5.8 -42.95 -4.85 -45.65 -2.7 -48.05 -2.3 -48.5 -2.25 -47.1 Q-2.35 -46.0 -2.45 -44.85 -2.75 -42.65 -2.05 -41.45 -1.25 -40.0 0.9 -39.95 L1.6 -39.95 Q5.2 -40.1 6.2 -43.1 L6.85 -45.2 Q8.0 -49.55 7.5 -54.25 7.3 -56.55 8.2 -58.3 L8.5 -58.6 Q9.15 -59.15 9.8 -59.7 11.75 -61.25 13.7 -62.8 L15.3 -63.95 15.9 -64.15 Q17.4 -64.5 18.95 -64.9 L20.0 -65.05 21.4 -65.05 Q25.6 -64.8 29.2 -66.05 L29.2 -66.05 Q32.95 -67.35 36.05 -70.3 L37.45 -70.3 42.15 -70.2 42.7 -70.1 42.8 -70.1 43.0 -69.75 43.25 -69.45 43.55 -69.1 Q39.55 -67.25 36.15 -64.35 L35.2 -63.55 Q33.7 -62.05 32.55 -60.25 28.4 -60.0 24.2 -59.75 23.1 -59.65 22.45 -58.8 L21.9 -58.0 Q21.7 -57.45 21.45 -56.9 21.05 -55.2 22.25 -53.35 24.45 -50.0 28.9 -51.05 24.35 -48.0 24.5 -42.85 L24.6 -41.4 Q24.8 -39.95 26.2 -39.55 L30.3 -39.15 Q33.55 -39.6 35.55 -43.05 L35.85 -43.55 Q36.5 -44.8 36.6 -46.15 L36.6 -46.45 Q36.65 -50.7 39.2 -53.55 40.25 -54.7 41.7 -55.05 43.85 -55.55 45.75 -56.45 46.75 -56.9 47.7 -57.45 L48.8 -58.2 49.2 -58.5 Q51.2 -60.05 52.85 -62.15 L53.0 -60.0 52.95 -59.2 52.65 -57.55 Q52.35 -56.55 52.0 -55.5 50.7 -52.45 48.15 -49.95 47.1 -49.0 46.05 -48.05 L45.35 -47.45 Q44.25 -46.55 43.75 -45.35 L43.55 -44.85 Q42.05 -40.3 43.7 -35.75 L44.2 -34.7 44.5 -34.25 Q45.45 -33.05 47.15 -32.8 50.35 -32.45 53.6 -32.1 L52.4 -30.7 52.15 -30.4 Q50.9 -29.0 49.15 -28.8 L41.35 -27.95 Q38.75 -27.7 36.75 -26.2 L36.55 -26.0 Q33.65 -23.7 36.0 -20.45 L36.3 -20.05 Q37.9 -18.2 40.55 -19.05 43.8 -20.05 45.9 -19.7 L44.0 -18.2 Q43.2 -17.45 42.35 -16.7 39.45 -13.9 37.4 -10.4 L35.55 -7.35 32.8 -3.35 31.5 -1.6 28.25 2.15 26.6 3.8 Q25.05 5.25 24.2 6.95 L19.7 9.55 Q16.05 11.6 12.0 12.6 7.7 13.65 3.0 13.55 -2.45 13.45 -7.15 11.55 -10.25 10.25 -13.05 8.15 -18.3 4.2 -19.9 -1.95"/>
    </path>
  </g>
  <defs>
    <radialGradient cx="0" cy="0" gradientTransform="matrix(0.0403, 0.0073, -0.0084, 0.0459, 8.15, -14.15)" gradientUnits="userSpaceOnUse" id="gradient0" r="819.2" spreadMethod="pad">
      <animateTransform additive="replace" attributeName="gradientTransform" dur="2s" from="1" repeatCount="indefinite" to="1" type="scale"/>
      <animateTransform additive="sum" attributeName="gradientTransform" dur="2s" from="8.15 -14.15" repeatCount="indefinite" to="8.15 -14.15" type="translate"/>
      <animateTransform additive="sum" attributeName="gradientTransform" dur="2s" from="10.3087" repeatCount="indefinite" to="10.3087" type="rotate"/>
      <animateTransform additive="sum" attributeName="gradientTransform" dur="2s" from="0.0409 0.0467" repeatCount="indefinite" to="0.0409 0.0467" type="scale"/>
      <animateTransform additive="sum" attributeName="gradientTransform" dur="2s" from="-0.0147" repeatCount="indefinite" to="-0.0147" type="skewX"/>
      <stop offset="0.0" stop-color="#fefe0c">
        <animate attributeName="offset" dur="2s" repeatCount="indefinite" values="0.0;0.0"/>
        <animate attributeName="stop-color" dur="2s" repeatCount="indefinite" values="#fefe0c;#fefe0d"/>
        <animate attributeName="stop-opacity" dur="2s" repeatCount="indefinite" values="1.0;1.0"/>
      </stop>
      <stop offset="0.5764705882352941" stop-color="#ffba2b">
        <animate attributeName="offset" dur="2s" repeatCount="indefinite" values="0.5764705882352941;0.5764705882352941"/>
        <animate attributeName="stop-color" dur="2s" repeatCount="indefinite" values="#ffba2b;#ffba2c"/>
        <animate attributeName="stop-opacity" dur="2s" repeatCount="indefinite" values="1.0;1.0"/>
      </stop>
      <stop offset="1.0" stop-color="#ff720b">
        <animate attributeName="offset" dur="2s" repeatCount="indefinite" values="1.0;1.0"/>
        <animate attributeName="stop-color" dur="2s" repeatCount="indefinite" values="#ff720b;#ff720c"/>
        <animate attributeName="stop-opacity" dur="2s" repeatCount="indefinite" values="1.0;1.0"/>
      </stop>
    </radialGradient>
  </defs>
</svg>
