<?xml version="1.0" encoding="UTF-8" standalone="no"?>
<svg xmlns:xlink="http://www.w3.org/1999/xlink" height="12.0px" width="11.5px" xmlns="http://www.w3.org/2000/svg">
  <g transform="matrix(1.0, 0.0, 0.0, 1.0, -7.1, 6.4)">
    <path d="M7.1 2.1 L7.1 2.1 Q7.25 2.25 7.4 2.35 L7.75 2.55 8.25 2.55 8.9 2.35 9.1 2.25 9.1 2.35 9.1 2.55 9.1 2.7 9.1 3.0 9.1 3.1 9.2 3.55 Q9.5 3.7 9.75 3.85 L10.0 3.95 10.1 3.95 10.15 4.1 10.2 4.3 10.4 4.45 10.8 4.55 11.0 4.6 11.1 4.75 11.1 4.95 11.25 5.25 11.45 5.4 11.75 5.6 11.85 5.55 12.15 5.4 12.6 4.85 12.6 4.4 12.6 4.2 12.6 4.1 12.6 3.7 12.6 3.35 12.25 3.1 12.25 3.1 12.25 3.1 12.05 3.0 11.55 2.9 11.35 2.8 11.2 2.5 10.55 2.1 10.35 2.05 10.35 1.85 10.35 1.5 10.35 1.3 10.35 1.1 10.25 0.95 10.25 0.95 10.15 0.85 9.75 0.6 9.25 0.6 9.25 0.65 9.0 0.7 8.85 0.75 Q8.35 0.9 7.95 1.15 L7.65 1.35 7.4 1.6 7.25 1.8 7.1 2.1" fill="#000000" fill-rule="evenodd" stroke="none">
      <animate attributeName="fill" dur="2s" repeatCount="indefinite" values="#000000;#000001"/>
      <animate attributeName="fill-opacity" dur="2s" repeatCount="indefinite" values="1.0;1.0"/>
      <animate attributeName="d" dur="2s" repeatCount="indefinite" values="M7.1 2.1 L7.1 2.1 Q7.25 2.25 7.4 2.35 L7.75 2.55 8.25 2.55 8.9 2.35 9.1 2.25 9.1 2.35 9.1 2.55 9.1 2.7 9.1 3.0 9.1 3.1 9.2 3.55 Q9.5 3.7 9.75 3.85 L10.0 3.95 10.1 3.95 10.15 4.1 10.2 4.3 10.4 4.45 10.8 4.55 11.0 4.6 11.1 4.75 11.1 4.95 11.25 5.25 11.45 5.4 11.75 5.6 11.85 5.55 12.15 5.4 12.6 4.85 12.6 4.4 12.6 4.2 12.6 4.1 12.6 3.7 12.6 3.35 12.25 3.1 12.25 3.1 12.25 3.1 12.05 3.0 11.55 2.9 11.35 2.8 11.2 2.5 10.55 2.1 10.35 2.05 10.35 1.85 10.35 1.5 10.35 1.3 10.35 1.1 10.25 0.95 10.25 0.95 10.15 0.85 9.75 0.6 9.25 0.6 9.25 0.65 9.0 0.7 8.85 0.75 Q8.35 0.9 7.95 1.15 L7.65 1.35 7.4 1.6 7.25 1.8 7.1 2.1;M13.1 -3.65 L13.4 -3.25 Q13.55 -3.15 13.75 -3.15 L14.05 -3.25 14.45 -3.45 15.1 -3.0 15.15 -2.65 15.15 -2.65 15.2 -2.45 15.4 -2.3 15.8 -2.15 15.8 -2.15 16.4 -1.75 Q16.7 -1.55 17.0 -1.5 L17.1 -1.5 17.25 -1.15 17.3 -1.05 17.5 -0.9 17.65 -0.8 18.0 -0.65 18.1 -0.75 18.2 -0.75 18.3 -0.85 18.5 -1.05 18.6 -1.15 18.6 -1.5 18.55 -1.7 18.45 -2.0 18.3 -2.85 18.35 -3.4 18.2 -3.55 18.15 -3.55 17.75 -3.9 17.5 -3.7 17.2 -3.55 17.2 -3.55 16.95 -3.55 16.85 -3.65 16.85 -4.0 16.85 -4.2 16.85 -4.4 16.1 -5.15 16.1 -5.3 16.1 -5.5 16.1 -5.9 15.95 -6.05 15.85 -6.15 15.7 -6.25 15.5 -6.4 15.5 -6.35 15.1 -6.25 14.8 -5.95 14.8 -5.95 14.7 -5.85 14.4 -5.55 Q13.85 -5.15 13.35 -4.75 L13.35 -4.4 13.3 -4.2 13.2 -4.0 13.1 -3.65"/>
    </path>
    <path d="M7.1 2.1 L7.25 1.8 7.4 1.6 7.65 1.35 7.95 1.15 Q8.35 0.9 8.85 0.75 L9.0 0.7 9.25 0.65 9.25 0.6 9.75 0.6 10.15 0.85 10.25 0.95 10.25 0.95 10.35 1.1 10.35 1.3 10.35 1.5 10.35 1.85 10.35 2.05 10.55 2.1 11.2 2.5 11.35 2.8 11.55 2.9 12.05 3.0 12.25 3.1 12.25 3.1 12.25 3.1 12.6 3.35 12.6 3.7 12.6 4.1 12.6 4.2 12.6 4.4 12.6 4.85 12.15 5.4 11.85 5.55 11.75 5.6 11.45 5.4 11.25 5.25 11.1 4.95 11.1 4.75 11.0 4.6 10.8 4.55 10.4 4.45 10.2 4.3 10.15 4.1 10.1 3.95 10.0 3.95 9.75 3.85 Q9.5 3.7 9.2 3.55 L9.1 3.1 9.1 3.0 9.1 2.7 9.1 2.55 9.1 2.35 9.1 2.25 8.9 2.35 8.25 2.55 7.75 2.55 7.4 2.35 Q7.25 2.25 7.1 2.1 L7.1 2.1" fill="none" stroke="#000000" stroke-linecap="round" stroke-linejoin="round" stroke-opacity="0.0" stroke-width="1.0">
      <animate attributeName="stroke" dur="2s" repeatCount="indefinite" values="#000000;#000001"/>
      <animate attributeName="stroke-width" dur="2s" repeatCount="indefinite" values="0.0;0.0"/>
      <animate attributeName="fill-opacity" dur="2s" repeatCount="indefinite" values="0.0;0.0"/>
      <animate attributeName="d" dur="2s" repeatCount="indefinite" values="M7.1 2.1 L7.25 1.8 7.4 1.6 7.65 1.35 7.95 1.15 Q8.35 0.9 8.85 0.75 L9.0 0.7 9.25 0.65 9.25 0.6 9.75 0.6 10.15 0.85 10.25 0.95 10.25 0.95 10.35 1.1 10.35 1.3 10.35 1.5 10.35 1.85 10.35 2.05 10.55 2.1 11.2 2.5 11.35 2.8 11.55 2.9 12.05 3.0 12.25 3.1 12.25 3.1 12.25 3.1 12.6 3.35 12.6 3.7 12.6 4.1 12.6 4.2 12.6 4.4 12.6 4.85 12.15 5.4 11.85 5.55 11.75 5.6 11.45 5.4 11.25 5.25 11.1 4.95 11.1 4.75 11.0 4.6 10.8 4.55 10.4 4.45 10.2 4.3 10.15 4.1 10.1 3.95 10.0 3.95 9.75 3.85 Q9.5 3.7 9.2 3.55 L9.1 3.1 9.1 3.0 9.1 2.7 9.1 2.55 9.1 2.35 9.1 2.25 8.9 2.35 8.25 2.55 7.75 2.55 7.4 2.35 Q7.25 2.25 7.1 2.1 L7.1 2.1;M13.1 -3.65 L13.2 -4.0 13.3 -4.2 13.35 -4.4 13.35 -4.75 Q13.85 -5.15 14.4 -5.55 L14.7 -5.85 14.8 -5.95 14.8 -5.95 15.1 -6.25 15.5 -6.35 15.5 -6.4 15.7 -6.25 15.85 -6.15 15.95 -6.05 16.1 -5.9 16.1 -5.5 16.1 -5.3 16.1 -5.15 16.85 -4.4 16.85 -4.2 16.85 -4.0 16.85 -3.65 16.95 -3.55 17.2 -3.55 17.2 -3.55 17.5 -3.7 17.75 -3.9 18.15 -3.55 18.2 -3.55 18.35 -3.4 18.3 -2.85 18.45 -2.0 18.55 -1.7 18.6 -1.5 18.6 -1.15 18.5 -1.05 18.3 -0.85 18.2 -0.75 18.1 -0.75 18.0 -0.65 17.65 -0.8 17.5 -0.9 17.3 -1.05 17.25 -1.15 17.1 -1.5 17.0 -1.5 Q16.7 -1.55 16.4 -1.75 L15.8 -2.15 15.8 -2.15 15.4 -2.3 15.2 -2.45 15.15 -2.65 15.15 -2.65 15.1 -3.0 14.45 -3.45 14.05 -3.25 13.75 -3.15 Q13.55 -3.15 13.4 -3.25 L13.1 -3.65"/>
    </path>
  </g>
</svg>
