<?xml version="1.0" encoding="UTF-8" standalone="no"?>
<svg xmlns:xlink="http://www.w3.org/1999/xlink" height="12.75px" width="13.25px" xmlns="http://www.w3.org/2000/svg">
  <g transform="matrix(1.0, 0.0, 0.0, 1.0, -4.1, 50.4)">
    <path d="M4.1 -39.4 L4.25 -39.15 4.5 -38.95 Q4.95 -39.0 5.35 -39.0 6.1 -38.85 6.85 -38.7 L7.15 -38.75 7.55 -38.85 7.65 -38.95 7.85 -39.05 7.9 -38.9 7.95 -38.7 Q8.7 -38.25 9.5 -38.5 L9.6 -38.5 9.6 -38.4 Q9.9 -37.8 10.5 -37.65 L10.8 -37.75 11.0 -37.9 11.1 -38.2 11.1 -38.3 11.1 -38.3 11.05 -38.5 11.05 -38.5 10.9 -38.8 10.7 -39.15 10.55 -39.55 Q10.45 -40.0 10.35 -40.4 L10.2 -40.55 9.75 -40.9 9.65 -40.8 9.55 -40.7 9.45 -40.7 Q9.25 -40.5 8.95 -40.45 L8.85 -40.45 8.6 -40.7 7.85 -41.15 7.75 -41.15 7.45 -41.0 7.1 -40.7 6.85 -40.25 6.65 -40.25 6.6 -40.3 6.6 -40.3 6.6 -40.4 6.6 -40.5 6.6 -40.7 6.6 -40.9 6.5 -41.05 6.5 -41.05 6.5 -41.05 6.4 -41.15 6.15 -41.35 5.75 -41.4 5.5 -41.3 5.45 -41.25 5.25 -41.15 5.15 -40.95 5.1 -40.55 4.85 -40.35 4.65 -40.2 4.25 -39.8 4.1 -39.4" fill="#000000" fill-rule="evenodd" stroke="none">
      <animate attributeName="fill" dur="2s" repeatCount="indefinite" values="#000000;#000001"/>
      <animate attributeName="fill-opacity" dur="2s" repeatCount="indefinite" values="1.0;1.0"/>
      <animate attributeName="d" dur="2s" repeatCount="indefinite" values="M4.1 -39.4 L4.25 -39.15 4.5 -38.95 Q4.95 -39.0 5.35 -39.0 6.1 -38.85 6.85 -38.7 L7.15 -38.75 7.55 -38.85 7.65 -38.95 7.85 -39.05 7.9 -38.9 7.95 -38.7 Q8.7 -38.25 9.5 -38.5 L9.6 -38.5 9.6 -38.4 Q9.9 -37.8 10.5 -37.65 L10.8 -37.75 11.0 -37.9 11.1 -38.2 11.1 -38.3 11.1 -38.3 11.05 -38.5 11.05 -38.5 10.9 -38.8 10.7 -39.15 10.55 -39.55 Q10.45 -40.0 10.35 -40.4 L10.2 -40.55 9.75 -40.9 9.65 -40.8 9.55 -40.7 9.45 -40.7 Q9.25 -40.5 8.95 -40.45 L8.85 -40.45 8.6 -40.7 7.85 -41.15 7.75 -41.15 7.45 -41.0 7.1 -40.7 6.85 -40.25 6.65 -40.25 6.6 -40.3 6.6 -40.3 6.6 -40.4 6.6 -40.5 6.6 -40.7 6.6 -40.9 6.5 -41.05 6.5 -41.05 6.5 -41.05 6.4 -41.15 6.15 -41.35 5.75 -41.4 5.5 -41.3 5.45 -41.25 5.25 -41.15 5.15 -40.95 5.1 -40.55 4.85 -40.35 4.65 -40.2 4.25 -39.8 4.1 -39.4;M9.65 -47.5 L9.65 -47.5 9.7 -46.95 Q10.3 -46.6 10.75 -46.6 11.5 -46.65 11.85 -47.7 L12.25 -47.65 12.8 -47.65 12.95 -47.45 13.05 -47.3 13.15 -47.2 13.35 -46.95 Q14.15 -46.1 15.1 -46.75 L15.25 -46.55 15.25 -46.55 Q15.65 -46.05 16.05 -45.55 L16.45 -45.25 16.75 -45.15 17.0 -45.2 17.1 -45.25 17.1 -45.25 17.25 -45.35 17.25 -45.4 17.35 -45.75 17.35 -46.15 17.0 -46.45 Q16.55 -46.8 16.3 -47.25 L16.1 -47.5 15.85 -48.25 15.85 -48.45 15.85 -48.65 15.75 -48.75 Q15.55 -49.15 15.0 -49.15 L14.9 -49.05 14.7 -48.95 13.85 -48.45 13.85 -48.45 13.85 -48.8 13.85 -49.4 13.4 -49.85 13.1 -49.95 12.95 -49.95 12.85 -49.95 12.75 -50.05 12.75 -50.05 12.6 -50.2 12.35 -50.35 12.1 -50.4 12.0 -50.4 12.0 -50.35 11.75 -50.3 11.6 -50.25 11.3 -49.9 11.1 -49.6 11.1 -49.6 10.95 -49.2 10.85 -48.9 10.65 -48.45 10.55 -48.15 10.25 -48.1 9.75 -47.9 9.65 -47.5"/>
    </path>
    <path d="M4.1 -39.4 L4.25 -39.8 4.65 -40.2 4.85 -40.35 5.1 -40.55 5.15 -40.95 5.25 -41.15 5.45 -41.25 5.5 -41.3 5.75 -41.4 6.15 -41.35 6.4 -41.15 6.5 -41.05 6.5 -41.05 6.5 -41.05 6.6 -40.9 6.6 -40.7 6.6 -40.5 6.6 -40.4 6.6 -40.3 6.6 -40.3 6.65 -40.25 6.85 -40.25 7.1 -40.7 7.45 -41.0 7.75 -41.15 7.85 -41.15 8.6 -40.7 8.85 -40.45 8.95 -40.45 Q9.25 -40.5 9.45 -40.7 L9.55 -40.7 9.65 -40.8 9.75 -40.9 10.2 -40.55 10.35 -40.4 Q10.45 -40.0 10.55 -39.55 L10.7 -39.15 10.9 -38.8 11.05 -38.5 11.05 -38.5 11.1 -38.3 11.1 -38.3 11.1 -38.2 11.0 -37.9 10.8 -37.75 10.5 -37.65 Q9.9 -37.8 9.6 -38.4 L9.6 -38.5 9.5 -38.5 Q8.7 -38.25 7.95 -38.7 L7.9 -38.9 7.85 -39.05 7.65 -38.95 7.55 -38.85 7.15 -38.75 6.85 -38.7 Q6.1 -38.85 5.35 -39.0 4.95 -39.0 4.5 -38.95 L4.25 -39.15 4.1 -39.4" fill="none" stroke="#000000" stroke-linecap="round" stroke-linejoin="round" stroke-opacity="0.0" stroke-width="1.0">
      <animate attributeName="stroke" dur="2s" repeatCount="indefinite" values="#000000;#000001"/>
      <animate attributeName="stroke-width" dur="2s" repeatCount="indefinite" values="0.0;0.0"/>
      <animate attributeName="fill-opacity" dur="2s" repeatCount="indefinite" values="0.0;0.0"/>
      <animate attributeName="d" dur="2s" repeatCount="indefinite" values="M4.1 -39.4 L4.25 -39.8 4.65 -40.2 4.85 -40.35 5.1 -40.55 5.15 -40.95 5.25 -41.15 5.45 -41.25 5.5 -41.3 5.75 -41.4 6.15 -41.35 6.4 -41.15 6.5 -41.05 6.5 -41.05 6.5 -41.05 6.6 -40.9 6.6 -40.7 6.6 -40.5 6.6 -40.4 6.6 -40.3 6.6 -40.3 6.65 -40.25 6.85 -40.25 7.1 -40.7 7.45 -41.0 7.75 -41.15 7.85 -41.15 8.6 -40.7 8.85 -40.45 8.95 -40.45 Q9.25 -40.5 9.45 -40.7 L9.55 -40.7 9.65 -40.8 9.75 -40.9 10.2 -40.55 10.35 -40.4 Q10.45 -40.0 10.55 -39.55 L10.7 -39.15 10.9 -38.8 11.05 -38.5 11.05 -38.5 11.1 -38.3 11.1 -38.3 11.1 -38.2 11.0 -37.9 10.8 -37.75 10.5 -37.65 Q9.9 -37.8 9.6 -38.4 L9.6 -38.5 9.5 -38.5 Q8.7 -38.25 7.95 -38.7 L7.9 -38.9 7.85 -39.05 7.65 -38.95 7.55 -38.85 7.15 -38.75 6.85 -38.7 Q6.1 -38.85 5.35 -39.0 4.95 -39.0 4.5 -38.95 L4.25 -39.15 4.1 -39.4;M9.65 -47.5 L9.75 -47.9 10.25 -48.1 10.55 -48.15 10.65 -48.45 10.85 -48.9 10.95 -49.2 11.1 -49.6 11.1 -49.6 11.3 -49.9 11.6 -50.25 11.75 -50.3 12.0 -50.35 12.0 -50.4 12.1 -50.4 12.35 -50.35 12.6 -50.2 12.75 -50.05 12.75 -50.05 12.85 -49.95 12.95 -49.95 13.1 -49.95 13.4 -49.85 13.85 -49.4 13.85 -48.8 13.85 -48.45 13.85 -48.45 14.7 -48.95 14.9 -49.05 15.0 -49.15 Q15.55 -49.15 15.75 -48.75 L15.85 -48.65 15.85 -48.45 15.85 -48.25 16.1 -47.5 16.3 -47.25 Q16.55 -46.8 17.0 -46.45 L17.35 -46.15 17.35 -45.75 17.25 -45.4 17.25 -45.35 17.1 -45.25 17.1 -45.25 17.0 -45.2 16.75 -45.15 16.45 -45.25 16.05 -45.55 Q15.65 -46.05 15.25 -46.55 L15.25 -46.55 15.1 -46.75 Q14.15 -46.1 13.35 -46.95 L13.15 -47.2 13.05 -47.3 12.95 -47.45 12.8 -47.65 12.25 -47.65 11.85 -47.7 Q11.5 -46.65 10.75 -46.6 10.3 -46.6 9.7 -46.95 L9.65 -47.5 9.65 -47.5"/>
    </path>
  </g>
</svg>
