<?xml version="1.0" encoding="UTF-8" standalone="no"?>
<svg xmlns:xlink="http://www.w3.org/1999/xlink" height="11.0px" width="10.65px" xmlns="http://www.w3.org/2000/svg">
  <g transform="matrix(1.0, 0.0, 0.0, 1.0, -25.7, 34.65)">
    <path d="M25.7 -23.95 L25.7 -23.95 26.25 -23.65 26.5 -23.7 Q26.8 -23.95 27.1 -24.15 L27.4 -24.45 27.5 -24.55 27.7 -24.75 28.0 -25.15 28.25 -25.5 Q28.7 -25.65 29.1 -25.75 L29.1 -25.5 29.1 -25.4 29.1 -25.05 29.15 -24.65 29.2 -24.45 29.5 -24.3 29.85 -24.15 30.35 -24.15 30.75 -23.7 31.0 -23.65 31.15 -23.65 31.25 -23.7 31.35 -23.7 31.45 -23.8 31.55 -24.1 31.55 -24.2 31.6 -24.95 31.6 -25.15 30.85 -26.1 30.75 -26.2 30.35 -26.45 30.35 -26.8 30.35 -26.9 30.35 -27.4 30.25 -27.5 30.2 -27.55 29.75 -27.9 29.75 -27.85 29.6 -27.8 29.5 -27.8 29.35 -27.75 29.35 -27.75 29.25 -27.55 29.05 -27.45 Q28.4 -26.85 27.55 -26.65 L27.25 -26.55 26.95 -26.5 26.85 -26.5 26.75 -26.35 26.65 -26.25 26.3 -25.9 26.2 -25.8 26.1 -25.65 26.1 -25.55 Q25.65 -24.75 25.7 -23.95" fill="#000000" fill-rule="evenodd" stroke="none">
      <animate attributeName="fill" dur="2s" repeatCount="indefinite" values="#000000;#000001"/>
      <animate attributeName="fill-opacity" dur="2s" repeatCount="indefinite" values="1.0;1.0"/>
      <animate attributeName="d" dur="2s" repeatCount="indefinite" values="M25.7 -23.95 L25.7 -23.95 26.25 -23.65 26.5 -23.7 Q26.8 -23.95 27.1 -24.15 L27.4 -24.45 27.5 -24.55 27.7 -24.75 28.0 -25.15 28.25 -25.5 Q28.7 -25.65 29.1 -25.75 L29.1 -25.5 29.1 -25.4 29.1 -25.05 29.15 -24.65 29.2 -24.45 29.5 -24.3 29.85 -24.15 30.35 -24.15 30.75 -23.7 31.0 -23.65 31.15 -23.65 31.25 -23.7 31.35 -23.7 31.45 -23.8 31.55 -24.1 31.55 -24.2 31.6 -24.95 31.6 -25.15 30.85 -26.1 30.75 -26.2 30.35 -26.45 30.35 -26.8 30.35 -26.9 30.35 -27.4 30.25 -27.5 30.2 -27.55 29.75 -27.9 29.75 -27.85 29.6 -27.8 29.5 -27.8 29.35 -27.75 29.35 -27.75 29.25 -27.55 29.05 -27.45 Q28.4 -26.85 27.55 -26.65 L27.25 -26.55 26.95 -26.5 26.85 -26.5 26.75 -26.35 26.65 -26.25 26.3 -25.9 26.2 -25.8 26.1 -25.65 26.1 -25.55 Q25.65 -24.75 25.7 -23.95;M29.6 -32.4 L29.9 -32.15 30.5 -31.85 30.85 -31.85 Q31.25 -31.9 31.7 -32.3 L32.0 -32.35 32.1 -32.3 32.1 -32.0 32.2 -31.45 32.7 -31.15 Q33.2 -30.95 33.7 -31.35 L33.8 -31.45 33.8 -31.25 33.85 -31.05 33.95 -30.7 34.2 -30.6 34.5 -30.4 34.8 -30.5 35.2 -30.7 35.75 -30.4 36.0 -30.5 36.1 -30.55 36.25 -30.6 36.25 -30.65 36.3 -30.85 36.35 -31.2 36.35 -31.3 36.35 -32.15 36.25 -32.25 35.1 -32.95 35.1 -33.1 34.9 -33.45 34.65 -33.6 34.5 -33.65 34.15 -33.45 34.05 -33.45 34.05 -33.45 33.45 -33.15 33.45 -33.15 33.35 -33.15 33.35 -33.15 33.35 -33.45 33.35 -33.5 33.35 -33.9 33.2 -34.05 Q32.45 -34.35 31.75 -34.65 L31.5 -34.55 31.25 -34.4 31.25 -34.3 31.15 -34.1 31.15 -34.0 31.05 -33.45 30.95 -33.35 30.85 -33.25 30.85 -33.25 Q29.7 -33.3 29.6 -32.4"/>
    </path>
    <path d="M25.7 -23.95 Q25.65 -24.75 26.1 -25.55 L26.1 -25.65 26.2 -25.8 26.3 -25.9 26.65 -26.25 26.75 -26.35 26.85 -26.5 26.95 -26.5 27.25 -26.55 27.55 -26.65 Q28.4 -26.85 29.05 -27.45 L29.25 -27.55 29.35 -27.75 29.35 -27.75 29.5 -27.8 29.6 -27.8 29.75 -27.85 29.75 -27.9 30.2 -27.55 30.25 -27.5 30.35 -27.4 30.35 -26.9 30.35 -26.8 30.35 -26.45 30.75 -26.2 30.85 -26.1 31.6 -25.15 31.6 -24.95 31.55 -24.2 31.55 -24.1 31.45 -23.8 31.35 -23.7 31.25 -23.7 31.15 -23.65 31.0 -23.65 30.75 -23.7 30.35 -24.15 29.85 -24.15 29.5 -24.3 29.2 -24.45 29.15 -24.65 29.1 -25.05 29.1 -25.4 29.1 -25.5 29.1 -25.75 Q28.7 -25.65 28.25 -25.5 L28.0 -25.15 27.7 -24.75 27.5 -24.55 27.4 -24.45 27.1 -24.15 Q26.8 -23.95 26.5 -23.7 L26.25 -23.65 25.7 -23.95 25.7 -23.95" fill="none" stroke="#000000" stroke-linecap="round" stroke-linejoin="round" stroke-opacity="0.0" stroke-width="1.0">
      <animate attributeName="stroke" dur="2s" repeatCount="indefinite" values="#000000;#000001"/>
      <animate attributeName="stroke-width" dur="2s" repeatCount="indefinite" values="0.0;0.0"/>
      <animate attributeName="fill-opacity" dur="2s" repeatCount="indefinite" values="0.0;0.0"/>
      <animate attributeName="d" dur="2s" repeatCount="indefinite" values="M25.7 -23.95 Q25.65 -24.75 26.1 -25.55 L26.1 -25.65 26.2 -25.8 26.3 -25.9 26.65 -26.25 26.75 -26.35 26.85 -26.5 26.95 -26.5 27.25 -26.55 27.55 -26.65 Q28.4 -26.85 29.05 -27.45 L29.25 -27.55 29.35 -27.75 29.35 -27.75 29.5 -27.8 29.6 -27.8 29.75 -27.85 29.75 -27.9 30.2 -27.55 30.25 -27.5 30.35 -27.4 30.35 -26.9 30.35 -26.8 30.35 -26.45 30.75 -26.2 30.85 -26.1 31.6 -25.15 31.6 -24.95 31.55 -24.2 31.55 -24.1 31.45 -23.8 31.35 -23.7 31.25 -23.7 31.15 -23.65 31.0 -23.65 30.75 -23.7 30.35 -24.15 29.85 -24.15 29.5 -24.3 29.2 -24.45 29.15 -24.65 29.1 -25.05 29.1 -25.4 29.1 -25.5 29.1 -25.75 Q28.7 -25.65 28.25 -25.5 L28.0 -25.15 27.7 -24.75 27.5 -24.55 27.4 -24.45 27.1 -24.15 Q26.8 -23.95 26.5 -23.7 L26.25 -23.65 25.7 -23.95 25.7 -23.95;M29.6 -32.4 Q29.7 -33.3 30.85 -33.25 L30.85 -33.25 30.95 -33.35 31.05 -33.45 31.15 -34.0 31.15 -34.1 31.25 -34.3 31.25 -34.4 31.5 -34.55 31.75 -34.65 Q32.45 -34.35 33.2 -34.05 L33.35 -33.9 33.35 -33.5 33.35 -33.45 33.35 -33.15 33.35 -33.15 33.45 -33.15 33.45 -33.15 34.05 -33.45 34.05 -33.45 34.15 -33.45 34.5 -33.65 34.65 -33.6 34.9 -33.45 35.1 -33.1 35.1 -32.95 36.25 -32.25 36.35 -32.15 36.35 -31.3 36.35 -31.2 36.3 -30.85 36.25 -30.65 36.25 -30.6 36.1 -30.55 36.0 -30.5 35.75 -30.4 35.2 -30.7 34.8 -30.5 34.5 -30.4 34.2 -30.6 33.95 -30.7 33.85 -31.05 33.8 -31.25 33.8 -31.45 33.7 -31.35 Q33.2 -30.95 32.7 -31.15 L32.2 -31.45 32.1 -32.0 32.1 -32.3 32.0 -32.35 31.7 -32.3 Q31.25 -31.9 30.85 -31.85 L30.5 -31.85 29.9 -32.15 29.6 -32.4"/>
    </path>
  </g>
</svg>
