<?xml version="1.0" encoding="UTF-8" standalone="no"?>
<svg xmlns:xlink="http://www.w3.org/1999/xlink" height="11.4px" width="10.5px" xmlns="http://www.w3.org/2000/svg">
  <g transform="matrix(1.0, 0.0, 0.0, 1.0, -5.1, 29.9)">
    <path d="M5.1 -20.4 L5.35 -20.05 Q5.85 -20.0 6.35 -20.0 L6.55 -20.3 6.55 -20.35 Q6.75 -20.55 6.95 -20.7 7.4 -20.45 7.75 -20.3 L7.85 -20.2 7.9 -20.0 Q8.0 -18.8 8.4 -18.55 L8.6 -18.5 Q9.05 -18.4 9.8 -19.0 L9.85 -19.2 9.85 -19.4 9.85 -19.55 10.05 -19.5 10.2 -19.2 Q10.4 -18.9 10.7 -18.85 L11.1 -18.9 11.25 -18.95 11.4 -19.1 11.6 -19.45 11.6 -19.6 11.45 -19.8 11.35 -20.0 11.35 -20.4 11.35 -21.15 11.2 -21.3 10.75 -21.65 9.9 -21.2 9.7 -21.15 9.5 -21.15 9.1 -21.25 9.1 -21.45 9.1 -21.65 8.95 -21.8 8.6 -22.05 8.5 -22.15 8.25 -22.1 8.15 -22.1 8.1 -22.2 8.1 -22.35 7.9 -22.6 7.8 -22.7 7.7 -22.8 7.6 -22.85 7.25 -22.9 7.25 -22.85 7.0 -22.8 6.85 -22.75 6.85 -22.65 6.85 -22.65 6.55 -22.35 6.25 -22.0 5.1 -20.4" fill="#000000" fill-rule="evenodd" stroke="none">
      <animate attributeName="fill" dur="2s" repeatCount="indefinite" values="#000000;#000001"/>
      <animate attributeName="fill-opacity" dur="2s" repeatCount="indefinite" values="1.0;1.0"/>
      <animate attributeName="d" dur="2s" repeatCount="indefinite" values="M5.1 -20.4 L5.35 -20.05 Q5.85 -20.0 6.35 -20.0 L6.55 -20.3 6.55 -20.35 Q6.75 -20.55 6.95 -20.7 7.4 -20.45 7.75 -20.3 L7.85 -20.2 7.9 -20.0 Q8.0 -18.8 8.4 -18.55 L8.6 -18.5 Q9.05 -18.4 9.8 -19.0 L9.85 -19.2 9.85 -19.4 9.85 -19.55 10.05 -19.5 10.2 -19.2 Q10.4 -18.9 10.7 -18.85 L11.1 -18.9 11.25 -18.95 11.4 -19.1 11.6 -19.45 11.6 -19.6 11.45 -19.8 11.35 -20.0 11.35 -20.4 11.35 -21.15 11.2 -21.3 10.75 -21.65 9.9 -21.2 9.7 -21.15 9.5 -21.15 9.1 -21.25 9.1 -21.45 9.1 -21.65 8.95 -21.8 8.6 -22.05 8.5 -22.15 8.25 -22.1 8.15 -22.1 8.1 -22.2 8.1 -22.35 7.9 -22.6 7.8 -22.7 7.7 -22.8 7.6 -22.85 7.25 -22.9 7.25 -22.85 7.0 -22.8 6.85 -22.75 6.85 -22.65 6.85 -22.65 6.55 -22.35 6.25 -22.0 5.1 -20.4;M9.6 -27.9 L9.6 -27.9 Q9.95 -27.3 10.5 -27.35 L10.85 -27.5 10.95 -27.45 Q11.25 -27.2 11.55 -27.15 11.8 -27.15 12.05 -27.15 L12.05 -27.1 12.25 -26.9 Q12.8 -26.4 13.55 -26.7 L13.6 -26.55 Q13.85 -25.9 14.1 -25.3 L14.2 -25.1 14.3 -25.0 14.4 -24.9 14.5 -24.8 14.75 -24.6 Q14.9 -24.5 15.0 -24.4 L15.25 -24.45 15.35 -24.5 15.5 -24.65 15.6 -25.0 15.6 -25.1 15.6 -25.4 15.5 -25.55 15.4 -25.75 15.1 -26.5 15.0 -26.7 14.7 -27.3 14.35 -28.0 14.35 -28.2 14.35 -28.4 14.1 -28.7 13.9 -28.8 13.7 -28.9 13.5 -28.9 13.0 -28.8 13.0 -28.8 12.8 -28.9 12.7 -29.0 12.6 -29.05 12.5 -29.15 12.25 -29.05 12.15 -29.1 12.1 -29.2 12.1 -29.35 11.9 -29.6 11.85 -29.7 11.7 -29.8 11.35 -29.9 11.25 -29.9 11.25 -29.85 10.85 -29.75 10.7 -29.55 9.6 -27.9"/>
    </path>
    <path d="M5.1 -20.4 L6.25 -22.0 6.55 -22.35 6.85 -22.65 6.85 -22.65 6.85 -22.75 7.0 -22.8 7.25 -22.85 7.25 -22.9 7.6 -22.85 7.7 -22.8 7.8 -22.7 7.9 -22.6 8.1 -22.35 8.1 -22.2 8.15 -22.1 8.25 -22.1 8.5 -22.15 8.6 -22.05 8.95 -21.8 9.1 -21.65 9.1 -21.45 9.1 -21.25 9.5 -21.15 9.7 -21.15 9.9 -21.2 10.75 -21.65 11.2 -21.3 11.35 -21.15 11.35 -20.4 11.35 -20.0 11.45 -19.8 11.6 -19.6 11.6 -19.45 11.4 -19.1 11.25 -18.95 11.1 -18.9 10.7 -18.85 Q10.4 -18.9 10.2 -19.2 L10.05 -19.5 9.85 -19.55 9.85 -19.4 9.85 -19.2 9.8 -19.0 Q9.05 -18.4 8.6 -18.5 L8.4 -18.55 Q8.0 -18.8 7.9 -20.0 L7.85 -20.2 7.75 -20.3 Q7.4 -20.45 6.95 -20.7 6.75 -20.55 6.55 -20.35 L6.55 -20.3 6.35 -20.0 Q5.85 -20.0 5.35 -20.05 L5.1 -20.4" fill="none" stroke="#000000" stroke-linecap="round" stroke-linejoin="round" stroke-opacity="0.0" stroke-width="1.0">
      <animate attributeName="stroke" dur="2s" repeatCount="indefinite" values="#000000;#000001"/>
      <animate attributeName="stroke-width" dur="2s" repeatCount="indefinite" values="0.0;0.0"/>
      <animate attributeName="fill-opacity" dur="2s" repeatCount="indefinite" values="0.0;0.0"/>
      <animate attributeName="d" dur="2s" repeatCount="indefinite" values="M5.1 -20.4 L6.25 -22.0 6.55 -22.35 6.85 -22.65 6.85 -22.65 6.85 -22.75 7.0 -22.8 7.25 -22.85 7.25 -22.9 7.6 -22.85 7.7 -22.8 7.8 -22.7 7.9 -22.6 8.1 -22.35 8.1 -22.2 8.15 -22.1 8.25 -22.1 8.5 -22.15 8.6 -22.05 8.95 -21.8 9.1 -21.65 9.1 -21.45 9.1 -21.25 9.5 -21.15 9.7 -21.15 9.9 -21.2 10.75 -21.65 11.2 -21.3 11.35 -21.15 11.35 -20.4 11.35 -20.0 11.45 -19.8 11.6 -19.6 11.6 -19.45 11.4 -19.1 11.25 -18.95 11.1 -18.9 10.7 -18.85 Q10.4 -18.9 10.2 -19.2 L10.05 -19.5 9.85 -19.55 9.85 -19.4 9.85 -19.2 9.8 -19.0 Q9.05 -18.4 8.6 -18.5 L8.4 -18.55 Q8.0 -18.8 7.9 -20.0 L7.85 -20.2 7.75 -20.3 Q7.4 -20.45 6.95 -20.7 6.75 -20.55 6.55 -20.35 L6.55 -20.3 6.35 -20.0 Q5.85 -20.0 5.35 -20.05 L5.1 -20.4;M9.6 -27.9 L10.7 -29.55 10.85 -29.75 11.25 -29.85 11.25 -29.9 11.35 -29.9 11.7 -29.8 11.85 -29.7 11.9 -29.6 12.1 -29.35 12.1 -29.2 12.15 -29.1 12.25 -29.05 12.5 -29.15 12.6 -29.05 12.7 -29.0 12.8 -28.9 13.0 -28.8 13.0 -28.8 13.5 -28.9 13.7 -28.9 13.9 -28.8 14.1 -28.7 14.35 -28.4 14.35 -28.2 14.35 -28.0 14.7 -27.3 15.0 -26.7 15.1 -26.5 15.4 -25.75 15.5 -25.55 15.6 -25.4 15.6 -25.1 15.6 -25.0 15.5 -24.65 15.35 -24.5 15.25 -24.45 15.0 -24.4 Q14.9 -24.5 14.75 -24.6 L14.5 -24.8 14.4 -24.9 14.3 -25.0 14.2 -25.1 14.1 -25.3 Q13.85 -25.9 13.6 -26.55 L13.55 -26.7 Q12.8 -26.4 12.25 -26.9 L12.05 -27.1 12.05 -27.15 Q11.8 -27.15 11.55 -27.15 11.25 -27.2 10.95 -27.45 L10.85 -27.5 10.5 -27.35 Q9.95 -27.3 9.6 -27.9 L9.6 -27.9"/>
    </path>
  </g>
</svg>
