<?xml version="1.0" encoding="UTF-8" standalone="no"?>
<svg xmlns:xlink="http://www.w3.org/1999/xlink" height="12.25px" width="11.2px" xmlns="http://www.w3.org/2000/svg">
  <g transform="matrix(1.0, 0.0, 0.0, 1.0, -9.65, 57.4)">
    <path d="M9.65 -47.5 L9.65 -47.4 9.7 -46.95 Q10.3 -46.6 10.75 -46.6 11.5 -46.65 11.85 -47.7 L12.25 -47.65 12.8 -47.65 12.95 -47.45 Q13.35 -46.8 13.85 -46.6 14.45 -46.3 15.1 -46.75 L15.25 -46.55 Q15.7 -45.7 16.45 -45.25 L16.75 -45.15 17.0 -45.2 17.0 -45.2 17.1 -45.25 17.25 -45.4 17.35 -45.75 17.35 -46.15 17.0 -46.45 16.7 -46.75 16.35 -47.2 15.85 -48.15 15.85 -48.25 15.85 -48.35 15.85 -48.45 15.85 -48.65 15.2 -49.15 15.1 -49.15 15.0 -49.15 14.7 -48.95 14.5 -48.8 14.3 -48.6 13.85 -48.45 13.85 -48.8 13.85 -48.9 13.85 -49.4 13.1 -49.95 12.85 -49.95 12.75 -50.05 12.75 -50.05 12.55 -50.2 12.3 -50.35 12.0 -50.4 12.0 -50.35 11.75 -50.3 11.65 -50.25 11.6 -50.25 11.35 -49.95 11.25 -49.8 11.1 -49.6 11.1 -49.6 11.0 -49.3 10.75 -48.7 10.55 -48.15 10.25 -48.1 9.75 -47.9 9.65 -47.5" fill="#000000" fill-rule="evenodd" stroke="none">
      <animate attributeName="fill" dur="2s" repeatCount="indefinite" values="#000000;#000001"/>
      <animate attributeName="fill-opacity" dur="2s" repeatCount="indefinite" values="1.0;1.0"/>
      <animate attributeName="d" dur="2s" repeatCount="indefinite" values="M9.65 -47.5 L9.65 -47.4 9.7 -46.95 Q10.3 -46.6 10.75 -46.6 11.5 -46.65 11.85 -47.7 L12.25 -47.65 12.8 -47.65 12.95 -47.45 Q13.35 -46.8 13.85 -46.6 14.45 -46.3 15.1 -46.75 L15.25 -46.55 Q15.7 -45.7 16.45 -45.25 L16.75 -45.15 17.0 -45.2 17.0 -45.2 17.1 -45.25 17.25 -45.4 17.35 -45.75 17.35 -46.15 17.0 -46.45 16.7 -46.75 16.35 -47.2 15.85 -48.15 15.85 -48.25 15.85 -48.35 15.85 -48.45 15.85 -48.65 15.2 -49.15 15.1 -49.15 15.0 -49.15 14.7 -48.95 14.5 -48.8 14.3 -48.6 13.85 -48.45 13.85 -48.8 13.85 -48.9 13.85 -49.4 13.1 -49.95 12.85 -49.95 12.75 -50.05 12.75 -50.05 12.55 -50.2 12.3 -50.35 12.0 -50.4 12.0 -50.35 11.75 -50.3 11.65 -50.25 11.6 -50.25 11.35 -49.95 11.25 -49.8 11.1 -49.6 11.1 -49.6 11.0 -49.3 10.75 -48.7 10.55 -48.15 10.25 -48.1 9.75 -47.9 9.65 -47.5;M14.1 -55.15 L14.1 -55.15 14.45 -54.7 Q14.9 -54.65 15.3 -54.65 16.1 -54.5 16.9 -54.35 L17.2 -54.4 17.6 -54.55 17.7 -54.65 Q18.1 -54.85 18.5 -55.25 18.8 -54.8 19.1 -54.35 L19.2 -54.2 Q19.8 -53.7 20.6 -53.75 L20.75 -53.9 20.8 -54.05 20.8 -54.05 20.85 -54.25 20.85 -54.25 20.75 -54.5 20.45 -54.9 20.05 -55.35 19.7 -55.75 19.65 -56.15 19.6 -56.9 19.6 -56.9 19.5 -57.05 19.5 -57.05 19.4 -57.15 18.75 -57.4 18.75 -57.35 18.75 -57.35 18.45 -57.25 18.35 -57.25 18.2 -57.05 17.85 -56.7 17.65 -56.5 17.55 -56.4 17.25 -56.35 16.6 -56.05 16.6 -56.25 16.6 -56.35 16.6 -56.45 16.6 -56.65 16.45 -56.8 16.45 -56.8 16.35 -56.9 16.15 -57.05 16.0 -57.15 15.9 -57.15 15.75 -57.05 15.65 -57.0 15.5 -56.9 15.5 -56.9 15.4 -56.7 15.25 -56.3 14.95 -56.15 14.6 -55.9 14.25 -55.5 14.1 -55.15"/>
    </path>
    <path d="M9.65 -47.5 L9.75 -47.9 10.25 -48.1 10.55 -48.15 10.75 -48.7 11.0 -49.3 11.1 -49.6 11.1 -49.6 11.25 -49.8 11.35 -49.95 11.6 -50.25 11.65 -50.25 11.75 -50.3 12.0 -50.35 12.0 -50.4 12.3 -50.35 12.55 -50.2 12.75 -50.05 12.75 -50.05 12.85 -49.95 13.1 -49.95 13.85 -49.4 13.85 -48.9 13.85 -48.8 13.85 -48.45 14.3 -48.6 14.5 -48.8 14.7 -48.95 15.0 -49.15 15.1 -49.15 15.2 -49.15 15.85 -48.65 15.85 -48.45 15.85 -48.35 15.85 -48.25 15.85 -48.15 16.35 -47.2 16.7 -46.75 17.0 -46.45 17.35 -46.15 17.35 -45.75 17.25 -45.4 17.1 -45.25 17.0 -45.2 17.0 -45.2 16.75 -45.15 16.45 -45.25 Q15.7 -45.7 15.25 -46.55 L15.1 -46.75 Q14.45 -46.3 13.85 -46.6 13.35 -46.8 12.95 -47.45 L12.8 -47.65 12.25 -47.65 11.85 -47.7 Q11.5 -46.65 10.75 -46.6 10.3 -46.6 9.7 -46.95 L9.65 -47.4 9.65 -47.5" fill="none" stroke="#000000" stroke-linecap="round" stroke-linejoin="round" stroke-opacity="0.0" stroke-width="1.0">
      <animate attributeName="stroke" dur="2s" repeatCount="indefinite" values="#000000;#000001"/>
      <animate attributeName="stroke-width" dur="2s" repeatCount="indefinite" values="0.0;0.0"/>
      <animate attributeName="fill-opacity" dur="2s" repeatCount="indefinite" values="0.0;0.0"/>
      <animate attributeName="d" dur="2s" repeatCount="indefinite" values="M9.65 -47.5 L9.75 -47.9 10.25 -48.1 10.55 -48.15 10.75 -48.7 11.0 -49.3 11.1 -49.6 11.1 -49.6 11.25 -49.8 11.35 -49.95 11.6 -50.25 11.65 -50.25 11.75 -50.3 12.0 -50.35 12.0 -50.4 12.3 -50.35 12.55 -50.2 12.75 -50.05 12.75 -50.05 12.85 -49.95 13.1 -49.95 13.85 -49.4 13.85 -48.9 13.85 -48.8 13.85 -48.45 14.3 -48.6 14.5 -48.8 14.7 -48.95 15.0 -49.15 15.1 -49.15 15.2 -49.15 15.85 -48.65 15.85 -48.45 15.85 -48.35 15.85 -48.25 15.85 -48.15 16.35 -47.2 16.7 -46.75 17.0 -46.45 17.35 -46.15 17.35 -45.75 17.25 -45.4 17.1 -45.25 17.0 -45.2 17.0 -45.2 16.75 -45.15 16.45 -45.25 Q15.7 -45.7 15.25 -46.55 L15.1 -46.75 Q14.45 -46.3 13.85 -46.6 13.35 -46.8 12.95 -47.45 L12.8 -47.65 12.25 -47.65 11.85 -47.7 Q11.5 -46.65 10.75 -46.6 10.3 -46.6 9.7 -46.95 L9.65 -47.4 9.65 -47.5;M14.1 -55.15 L14.25 -55.5 14.6 -55.9 14.95 -56.15 15.25 -56.3 15.4 -56.7 15.5 -56.9 15.5 -56.9 15.65 -57.0 15.75 -57.05 15.9 -57.15 16.0 -57.15 16.15 -57.05 16.35 -56.9 16.45 -56.8 16.45 -56.8 16.6 -56.65 16.6 -56.45 16.6 -56.35 16.6 -56.25 16.6 -56.05 17.25 -56.35 17.55 -56.4 17.65 -56.5 17.85 -56.7 18.2 -57.05 18.35 -57.25 18.45 -57.25 18.75 -57.35 18.75 -57.35 18.75 -57.4 19.4 -57.15 19.5 -57.05 19.5 -57.05 19.6 -56.9 19.6 -56.9 19.65 -56.15 19.7 -55.75 20.05 -55.35 20.45 -54.9 20.75 -54.5 20.85 -54.25 20.85 -54.25 20.8 -54.05 20.8 -54.05 20.75 -53.9 20.6 -53.75 Q19.8 -53.7 19.2 -54.2 L19.1 -54.35 Q18.8 -54.8 18.5 -55.25 18.1 -54.85 17.7 -54.65 L17.6 -54.55 17.2 -54.4 16.9 -54.35 Q16.1 -54.5 15.3 -54.65 14.9 -54.65 14.45 -54.7 L14.1 -55.15 14.1 -55.15"/>
    </path>
  </g>
</svg>
