<?xml version="1.0" encoding="UTF-8" standalone="no"?>
<svg xmlns:xlink="http://www.w3.org/1999/xlink" height="12.8px" width="8.9px" xmlns="http://www.w3.org/2000/svg">
  <g transform="matrix(1.0, 0.0, 0.0, 1.0, 8.65, 14.65)">
    <path d="M-8.65 -3.95 Q-8.6 -3.75 -8.6 -3.55 L-8.55 -3.2 Q-7.8 -2.6 -6.9 -3.0 L-6.8 -2.95 Q-6.5 -2.55 -6.0 -2.65 -4.6 -3.5 -3.65 -4.65 -3.65 -4.45 -3.65 -4.25 L-3.55 -2.2 Q-3.0 -1.6 -2.3 -2.05 -2.2 -2.25 -2.25 -2.4 -2.5 -4.35 -2.4 -6.4 -2.5 -6.5 -2.55 -6.55 L-3.0 -6.9 -5.65 -4.65 -5.8 -4.8 Q-6.05 -5.0 -6.25 -5.15 L-7.25 -4.55 -7.45 -4.75 Q-7.6 -4.85 -7.75 -4.9 L-8.0 -4.8 Q-8.35 -4.35 -8.65 -3.95" fill="#000000" fill-rule="evenodd" stroke="none">
      <animate attributeName="fill" dur="2s" repeatCount="indefinite" values="#000000;#000001"/>
      <animate attributeName="fill-opacity" dur="2s" repeatCount="indefinite" values="1.0;1.0"/>
      <animate attributeName="d" dur="2s" repeatCount="indefinite" values="M-8.65 -3.95 Q-8.6 -3.75 -8.6 -3.55 L-8.55 -3.2 Q-7.8 -2.6 -6.9 -3.0 L-6.8 -2.95 Q-6.5 -2.55 -6.0 -2.65 -4.6 -3.5 -3.65 -4.65 -3.65 -4.45 -3.65 -4.25 L-3.55 -2.2 Q-3.0 -1.6 -2.3 -2.05 -2.2 -2.25 -2.25 -2.4 -2.5 -4.35 -2.4 -6.4 -2.5 -6.5 -2.55 -6.55 L-3.0 -6.9 -5.65 -4.65 -5.8 -4.8 Q-6.05 -5.0 -6.25 -5.15 L-7.25 -4.55 -7.45 -4.75 Q-7.6 -4.85 -7.75 -4.9 L-8.0 -4.8 Q-8.35 -4.35 -8.65 -3.95;M-5.65 -11.65 Q-5.5 -11.15 -5.0 -11.15 L-4.75 -11.2 Q-4.5 -11.4 -4.3 -11.55 L-3.4 -11.5 Q-3.35 -11.3 -3.35 -11.15 -3.3 -11.05 -3.3 -10.95 -2.75 -10.35 -2.05 -10.8 L-1.95 -11.0 Q-1.55 -11.85 -1.2 -12.7 -1.15 -12.55 -1.15 -12.4 -1.15 -11.8 -1.15 -11.25 -0.85 -10.6 -0.25 -10.4 L0.0 -10.45 0.2 -10.55 0.25 -10.95 Q0.05 -12.5 0.1 -14.15 L-0.05 -14.3 -0.5 -14.65 Q-1.6 -14.25 -2.45 -13.5 L-4.0 -13.9 Q-5.25 -13.1 -5.65 -11.65"/>
    </path>
    <path d="M-8.65 -3.95 Q-8.35 -4.35 -8.0 -4.8 L-7.75 -4.9 Q-7.6 -4.85 -7.45 -4.75 L-7.25 -4.55 -6.25 -5.15 Q-6.05 -5.0 -5.8 -4.8 L-5.65 -4.65 -3.0 -6.9 -2.55 -6.55 Q-2.5 -6.5 -2.4 -6.4 -2.5 -4.35 -2.25 -2.4 -2.2 -2.25 -2.3 -2.05 -3.0 -1.6 -3.55 -2.2 L-3.65 -4.25 Q-3.65 -4.45 -3.65 -4.65 -4.6 -3.5 -6.0 -2.65 -6.5 -2.55 -6.8 -2.95 L-6.9 -3.0 Q-7.8 -2.6 -8.55 -3.2 L-8.6 -3.55 Q-8.6 -3.75 -8.65 -3.95" fill="none" stroke="#000000" stroke-linecap="round" stroke-linejoin="round" stroke-opacity="0.0" stroke-width="1.0">
      <animate attributeName="stroke" dur="2s" repeatCount="indefinite" values="#000000;#000001"/>
      <animate attributeName="stroke-width" dur="2s" repeatCount="indefinite" values="0.0;0.0"/>
      <animate attributeName="fill-opacity" dur="2s" repeatCount="indefinite" values="0.0;0.0"/>
      <animate attributeName="d" dur="2s" repeatCount="indefinite" values="M-8.65 -3.95 Q-8.35 -4.35 -8.0 -4.8 L-7.75 -4.9 Q-7.6 -4.85 -7.45 -4.75 L-7.25 -4.55 -6.25 -5.15 Q-6.05 -5.0 -5.8 -4.8 L-5.65 -4.65 -3.0 -6.9 -2.55 -6.55 Q-2.5 -6.5 -2.4 -6.4 -2.5 -4.35 -2.25 -2.4 -2.2 -2.25 -2.3 -2.05 -3.0 -1.6 -3.55 -2.2 L-3.65 -4.25 Q-3.65 -4.45 -3.65 -4.65 -4.6 -3.5 -6.0 -2.65 -6.5 -2.55 -6.8 -2.95 L-6.9 -3.0 Q-7.8 -2.6 -8.55 -3.2 L-8.6 -3.55 Q-8.6 -3.75 -8.65 -3.95;M-5.65 -11.65 Q-5.25 -13.1 -4.0 -13.9 L-2.45 -13.5 Q-1.6 -14.25 -0.5 -14.65 L-0.05 -14.3 0.1 -14.15 Q0.05 -12.5 0.25 -10.95 L0.2 -10.55 0.0 -10.45 -0.25 -10.4 Q-0.85 -10.6 -1.15 -11.25 -1.15 -11.8 -1.15 -12.4 -1.15 -12.55 -1.2 -12.7 -1.55 -11.85 -1.95 -11.0 L-2.05 -10.8 Q-2.75 -10.35 -3.3 -10.95 -3.3 -11.05 -3.35 -11.15 -3.35 -11.3 -3.4 -11.5 L-4.3 -11.55 Q-4.5 -11.4 -4.75 -11.2 L-5.0 -11.15 Q-5.5 -11.15 -5.65 -11.65"/>
    </path>
  </g>
</svg>
