<?xml version="1.0" encoding="UTF-8" standalone="no"?>
<svg xmlns:xlink="http://www.w3.org/1999/xlink" height="10.75px" width="10.75px" xmlns="http://www.w3.org/2000/svg">
  <g transform="matrix(1.0, 0.0, 0.0, 1.0, -18.6, 20.9)">
    <path d="M18.6 -11.9 L18.6 -11.9 Q18.75 -11.4 19.25 -11.4 L19.35 -11.4 19.5 -11.45 19.6 -11.55 19.8 -11.7 19.8 -11.6 Q19.85 -11.45 19.85 -11.3 L19.95 -10.95 19.95 -10.95 20.5 -10.65 20.75 -10.8 21.3 -11.4 21.5 -11.6 22.35 -11.95 22.35 -11.4 22.35 -11.1 22.45 -10.55 22.45 -10.45 22.8 -10.25 23.0 -10.15 23.15 -10.2 23.25 -10.2 23.6 -10.45 23.85 -10.9 23.8 -11.65 23.6 -12.35 23.6 -12.55 23.6 -13.15 23.45 -13.3 23.45 -13.3 23.35 -13.4 Q23.2 -13.5 23.0 -13.65 L22.85 -13.55 22.65 -13.5 21.95 -13.3 21.55 -13.2 21.35 -13.2 21.35 -13.35 20.95 -13.75 20.85 -13.85 20.5 -13.9 20.5 -13.85 20.1 -13.75 Q19.95 -13.55 19.8 -13.4 L19.7 -13.4 Q18.85 -12.75 18.6 -11.9" fill="#000000" fill-rule="evenodd" stroke="none">
      <animate attributeName="fill" dur="2s" repeatCount="indefinite" values="#000000;#000001"/>
      <animate attributeName="fill-opacity" dur="2s" repeatCount="indefinite" values="1.0;1.0"/>
      <animate attributeName="d" dur="2s" repeatCount="indefinite" values="M18.6 -11.9 L18.6 -11.9 Q18.75 -11.4 19.25 -11.4 L19.35 -11.4 19.5 -11.45 19.6 -11.55 19.8 -11.7 19.8 -11.6 Q19.85 -11.45 19.85 -11.3 L19.95 -10.95 19.95 -10.95 20.5 -10.65 20.75 -10.8 21.3 -11.4 21.5 -11.6 22.35 -11.95 22.35 -11.4 22.35 -11.1 22.45 -10.55 22.45 -10.45 22.8 -10.25 23.0 -10.15 23.15 -10.2 23.25 -10.2 23.6 -10.45 23.85 -10.9 23.8 -11.65 23.6 -12.35 23.6 -12.55 23.6 -13.15 23.45 -13.3 23.45 -13.3 23.35 -13.4 Q23.2 -13.5 23.0 -13.65 L22.85 -13.55 22.65 -13.5 21.95 -13.3 21.55 -13.2 21.35 -13.2 21.35 -13.35 20.95 -13.75 20.85 -13.85 20.5 -13.9 20.5 -13.85 20.1 -13.75 Q19.95 -13.55 19.8 -13.4 L19.7 -13.4 Q18.85 -12.75 18.6 -11.9;M23.85 -19.4 L23.95 -19.3 Q24.35 -19.0 24.75 -18.7 L24.85 -18.7 24.9 -18.4 24.9 -18.3 24.95 -17.95 24.95 -17.95 Q25.1 -17.7 25.35 -17.65 L25.75 -17.65 25.85 -17.65 26.55 -17.65 26.9 -17.65 28.1 -17.8 28.1 -17.5 28.1 -16.3 28.15 -15.8 28.2 -15.45 28.75 -15.15 28.85 -15.15 29.05 -15.3 29.25 -15.45 29.35 -15.65 29.35 -15.75 29.35 -16.2 29.35 -16.75 29.35 -17.65 29.35 -18.65 29.25 -18.8 28.75 -19.15 28.45 -19.25 28.35 -19.25 28.35 -19.35 Q28.2 -19.55 28.05 -19.75 L27.75 -19.9 27.5 -19.8 27.05 -19.4 26.75 -19.35 26.6 -19.35 26.5 -19.35 26.1 -19.3 26.1 -19.45 26.1 -19.55 26.1 -19.65 25.95 -20.3 Q25.75 -20.7 25.25 -20.9 L25.15 -20.9 Q24.2 -20.45 23.85 -19.4"/>
    </path>
    <path d="M18.6 -11.9 Q18.85 -12.75 19.7 -13.4 L19.8 -13.4 Q19.95 -13.55 20.1 -13.75 L20.5 -13.85 20.5 -13.9 20.85 -13.85 20.95 -13.75 21.35 -13.35 21.35 -13.2 21.55 -13.2 21.95 -13.3 22.65 -13.5 22.85 -13.55 23.0 -13.65 Q23.2 -13.5 23.35 -13.4 L23.45 -13.3 23.45 -13.3 23.6 -13.15 23.6 -12.55 23.6 -12.35 23.8 -11.65 23.85 -10.9 23.6 -10.45 23.25 -10.2 23.15 -10.2 23.0 -10.15 22.8 -10.25 22.45 -10.45 22.45 -10.55 22.35 -11.1 22.35 -11.4 22.35 -11.95 21.5 -11.6 21.3 -11.4 20.75 -10.8 20.5 -10.65 19.95 -10.95 19.95 -10.95 19.85 -11.3 Q19.85 -11.45 19.8 -11.6 L19.8 -11.7 19.6 -11.55 19.5 -11.45 19.35 -11.4 19.25 -11.4 Q18.75 -11.4 18.6 -11.9 L18.6 -11.9" fill="none" stroke="#000000" stroke-linecap="round" stroke-linejoin="round" stroke-opacity="0.0" stroke-width="1.0">
      <animate attributeName="stroke" dur="2s" repeatCount="indefinite" values="#000000;#000001"/>
      <animate attributeName="stroke-width" dur="2s" repeatCount="indefinite" values="0.0;0.0"/>
      <animate attributeName="fill-opacity" dur="2s" repeatCount="indefinite" values="0.0;0.0"/>
      <animate attributeName="d" dur="2s" repeatCount="indefinite" values="M18.6 -11.9 Q18.85 -12.75 19.7 -13.4 L19.8 -13.4 Q19.95 -13.55 20.1 -13.75 L20.5 -13.85 20.5 -13.9 20.85 -13.85 20.95 -13.75 21.35 -13.35 21.35 -13.2 21.55 -13.2 21.95 -13.3 22.65 -13.5 22.85 -13.55 23.0 -13.65 Q23.2 -13.5 23.35 -13.4 L23.45 -13.3 23.45 -13.3 23.6 -13.15 23.6 -12.55 23.6 -12.35 23.8 -11.65 23.85 -10.9 23.6 -10.45 23.25 -10.2 23.15 -10.2 23.0 -10.15 22.8 -10.25 22.45 -10.45 22.45 -10.55 22.35 -11.1 22.35 -11.4 22.35 -11.95 21.5 -11.6 21.3 -11.4 20.75 -10.8 20.5 -10.65 19.95 -10.95 19.95 -10.95 19.85 -11.3 Q19.85 -11.45 19.8 -11.6 L19.8 -11.7 19.6 -11.55 19.5 -11.45 19.35 -11.4 19.25 -11.4 Q18.75 -11.4 18.6 -11.9 L18.6 -11.9;M23.85 -19.4 Q24.2 -20.45 25.15 -20.9 L25.25 -20.9 Q25.75 -20.7 25.95 -20.3 L26.1 -19.65 26.1 -19.55 26.1 -19.45 26.1 -19.3 26.5 -19.35 26.6 -19.35 26.75 -19.35 27.05 -19.4 27.5 -19.8 27.75 -19.9 28.05 -19.75 Q28.2 -19.55 28.35 -19.35 L28.35 -19.25 28.45 -19.25 28.75 -19.15 29.25 -18.8 29.35 -18.65 29.35 -17.65 29.35 -16.75 29.35 -16.2 29.35 -15.75 29.35 -15.65 29.25 -15.45 29.05 -15.3 28.85 -15.15 28.75 -15.15 28.2 -15.45 28.15 -15.8 28.1 -16.3 28.1 -17.5 28.1 -17.8 26.9 -17.65 26.55 -17.65 25.85 -17.65 25.75 -17.65 25.35 -17.65 Q25.1 -17.7 24.95 -17.95 L24.95 -17.95 24.9 -18.3 24.9 -18.4 24.85 -18.7 24.75 -18.7 Q24.35 -19.0 23.95 -19.3 L23.85 -19.4"/>
    </path>
  </g>
</svg>
