<?xml version="1.0" encoding="UTF-8" standalone="no"?>
<svg xmlns:xlink="http://www.w3.org/1999/xlink" height="13.0px" width="10.5px" xmlns="http://www.w3.org/2000/svg">
  <g transform="matrix(1.0, 0.0, 0.0, 1.0, 5.65, 23.4)">
    <path d="M-5.65 -11.65 L-5.35 -11.25 -5.0 -11.15 -5.0 -11.15 -4.75 -11.2 -4.65 -11.3 -4.3 -11.55 -3.4 -11.5 -3.35 -11.15 -3.35 -11.15 -3.3 -10.95 Q-3.1 -10.75 -2.9 -10.65 L-2.35 -10.65 -2.05 -10.8 -1.95 -11.0 -1.85 -11.2 -1.65 -11.8 -1.2 -12.7 -1.15 -12.4 Q-1.15 -11.8 -1.15 -11.25 L-0.95 -10.95 -0.35 -10.45 -0.25 -10.4 0.0 -10.45 0.2 -10.55 0.25 -10.95 0.15 -11.65 0.15 -12.05 Q0.1 -12.95 0.1 -13.85 L0.1 -14.15 0.1 -14.15 -0.05 -14.3 -0.2 -14.4 -0.5 -14.65 -0.5 -14.65 -1.0 -14.45 -1.6 -14.1 -1.8 -14.0 -2.25 -13.65 -2.45 -13.5 -2.55 -13.5 -3.15 -13.65 -3.25 -13.65 -3.75 -13.8 -4.0 -13.9 Q-5.25 -13.1 -5.65 -11.65" fill="#000000" fill-rule="evenodd" stroke="none">
      <animate attributeName="fill" dur="2s" repeatCount="indefinite" values="#000000;#000001"/>
      <animate attributeName="fill-opacity" dur="2s" repeatCount="indefinite" values="1.0;1.0"/>
      <animate attributeName="d" dur="2s" repeatCount="indefinite" values="M-5.65 -11.65 L-5.35 -11.25 -5.0 -11.15 -5.0 -11.15 -4.75 -11.2 -4.65 -11.3 -4.3 -11.55 -3.4 -11.5 -3.35 -11.15 -3.35 -11.15 -3.3 -10.95 Q-3.1 -10.75 -2.9 -10.65 L-2.35 -10.65 -2.05 -10.8 -1.95 -11.0 -1.85 -11.2 -1.65 -11.8 -1.2 -12.7 -1.15 -12.4 Q-1.15 -11.8 -1.15 -11.25 L-0.95 -10.95 -0.35 -10.45 -0.25 -10.4 0.0 -10.45 0.2 -10.55 0.25 -10.95 0.15 -11.65 0.15 -12.05 Q0.1 -12.95 0.1 -13.85 L0.1 -14.15 0.1 -14.15 -0.05 -14.3 -0.2 -14.4 -0.5 -14.65 -0.5 -14.65 -1.0 -14.45 -1.6 -14.1 -1.8 -14.0 -2.25 -13.65 -2.45 -13.5 -2.55 -13.5 -3.15 -13.65 -3.25 -13.65 -3.75 -13.8 -4.0 -13.9 Q-5.25 -13.1 -5.65 -11.65;M-1.65 -21.2 L-1.6 -20.8 -1.55 -20.45 -1.45 -20.35 -1.1 -20.25 -1.0 -20.15 -0.55 -20.45 0.35 -21.05 0.55 -21.2 0.55 -21.2 0.75 -21.2 Q1.0 -21.2 1.25 -21.2 L1.8 -21.3 1.9 -20.9 1.9 -20.65 1.9 -20.55 1.85 -20.0 2.45 -19.45 2.75 -19.3 Q3.25 -19.1 3.8 -19.3 L4.0 -19.4 4.15 -19.95 4.15 -20.05 4.2 -20.35 4.25 -20.6 4.4 -21.05 4.85 -21.8 4.7 -22.2 Q4.2 -23.3 3.25 -22.65 L3.15 -22.45 3.15 -22.45 3.15 -22.25 3.1 -22.05 3.05 -21.8 3.05 -21.8 2.7 -22.3 2.6 -22.9 2.45 -23.05 2.0 -23.4 1.8 -23.3 1.6 -23.3 1.0 -23.4 1.0 -23.35 0.6 -23.25 0.5 -23.05 Q-0.3 -21.9 -1.65 -21.2"/>
    </path>
    <path d="M-5.65 -11.65 Q-5.25 -13.1 -4.0 -13.9 L-3.75 -13.8 -3.25 -13.65 -3.15 -13.65 -2.55 -13.5 -2.45 -13.5 -2.25 -13.65 -1.8 -14.0 -1.6 -14.1 -1.0 -14.45 -0.5 -14.65 -0.5 -14.65 -0.2 -14.4 -0.05 -14.3 0.1 -14.15 0.1 -14.15 0.1 -13.85 Q0.1 -12.95 0.15 -12.05 L0.15 -11.65 0.25 -10.95 0.2 -10.55 0.0 -10.45 -0.25 -10.4 -0.35 -10.45 -0.95 -10.95 -1.15 -11.25 Q-1.15 -11.8 -1.15 -12.4 L-1.2 -12.7 -1.65 -11.8 -1.85 -11.2 -1.95 -11.0 -2.05 -10.8 -2.35 -10.65 -2.9 -10.65 Q-3.1 -10.75 -3.3 -10.95 L-3.35 -11.15 -3.35 -11.15 -3.4 -11.5 -4.3 -11.55 -4.65 -11.3 -4.75 -11.2 -5.0 -11.15 -5.0 -11.15 -5.35 -11.25 -5.65 -11.65" fill="none" stroke="#000000" stroke-linecap="round" stroke-linejoin="round" stroke-opacity="0.0" stroke-width="1.0">
      <animate attributeName="stroke" dur="2s" repeatCount="indefinite" values="#000000;#000001"/>
      <animate attributeName="stroke-width" dur="2s" repeatCount="indefinite" values="0.0;0.0"/>
      <animate attributeName="fill-opacity" dur="2s" repeatCount="indefinite" values="0.0;0.0"/>
      <animate attributeName="d" dur="2s" repeatCount="indefinite" values="M-5.65 -11.65 Q-5.25 -13.1 -4.0 -13.9 L-3.75 -13.8 -3.25 -13.65 -3.15 -13.65 -2.55 -13.5 -2.45 -13.5 -2.25 -13.65 -1.8 -14.0 -1.6 -14.1 -1.0 -14.45 -0.5 -14.65 -0.5 -14.65 -0.2 -14.4 -0.05 -14.3 0.1 -14.15 0.1 -14.15 0.1 -13.85 Q0.1 -12.95 0.15 -12.05 L0.15 -11.65 0.25 -10.95 0.2 -10.55 0.0 -10.45 -0.25 -10.4 -0.35 -10.45 -0.95 -10.95 -1.15 -11.25 Q-1.15 -11.8 -1.15 -12.4 L-1.2 -12.7 -1.65 -11.8 -1.85 -11.2 -1.95 -11.0 -2.05 -10.8 -2.35 -10.65 -2.9 -10.65 Q-3.1 -10.75 -3.3 -10.95 L-3.35 -11.15 -3.35 -11.15 -3.4 -11.5 -4.3 -11.55 -4.65 -11.3 -4.75 -11.2 -5.0 -11.15 -5.0 -11.15 -5.35 -11.25 -5.65 -11.65;M-1.65 -21.2 Q-0.3 -21.9 0.5 -23.05 L0.6 -23.25 1.0 -23.35 1.0 -23.4 1.6 -23.3 1.8 -23.3 2.0 -23.4 2.45 -23.05 2.6 -22.9 2.7 -22.3 3.05 -21.8 3.05 -21.8 3.1 -22.05 3.15 -22.25 3.15 -22.45 3.15 -22.45 3.25 -22.65 Q4.2 -23.3 4.7 -22.2 L4.85 -21.8 4.4 -21.05 4.25 -20.6 4.2 -20.35 4.15 -20.05 4.15 -19.95 4.0 -19.4 3.8 -19.3 Q3.25 -19.1 2.75 -19.3 L2.45 -19.45 1.85 -20.0 1.9 -20.55 1.9 -20.65 1.9 -20.9 1.8 -21.3 1.25 -21.2 Q1.0 -21.2 0.75 -21.2 L0.55 -21.2 0.55 -21.2 0.35 -21.05 -0.55 -20.45 -1.0 -20.15 -1.1 -20.25 -1.45 -20.35 -1.55 -20.45 -1.6 -20.8 -1.65 -21.2"/>
    </path>
  </g>
</svg>
