<?xml version="1.0" encoding="UTF-8" standalone="no"?>
<svg xmlns:xlink="http://www.w3.org/1999/xlink" height="12.0px" width="11.25px" xmlns="http://www.w3.org/2000/svg">
  <g transform="matrix(1.0, 0.0, 0.0, 1.0, -23.85, 27.15)">
    <path d="M23.85 -19.4 L24.1 -19.15 24.2 -19.05 Q24.35 -18.9 24.55 -18.85 L24.85 -18.7 24.85 -18.6 24.9 -18.3 24.9 -18.15 24.95 -17.95 25.45 -17.6 25.75 -17.65 Q26.2 -17.65 26.6 -17.65 L28.1 -17.8 28.1 -17.5 28.1 -16.85 28.1 -16.65 28.15 -16.25 28.15 -15.85 28.2 -15.45 28.75 -15.15 28.75 -15.15 29.05 -15.3 29.35 -15.65 29.35 -15.85 29.35 -16.2 29.35 -17.4 29.35 -17.95 29.35 -18.65 29.25 -18.75 29.25 -18.8 Q28.85 -19.05 28.45 -19.25 L28.35 -19.25 28.35 -19.35 27.75 -19.9 27.5 -19.8 Q27.25 -19.6 27.05 -19.4 L26.95 -19.35 26.75 -19.35 26.6 -19.35 26.3 -19.3 26.1 -19.3 26.1 -19.45 26.1 -19.75 26.1 -19.95 25.7 -20.65 25.25 -20.9 Q24.2 -20.5 23.85 -19.4" fill="#000000" fill-rule="evenodd" stroke="none">
      <animate attributeName="fill" dur="2s" repeatCount="indefinite" values="#000000;#000001"/>
      <animate attributeName="fill-opacity" dur="2s" repeatCount="indefinite" values="1.0;1.0"/>
      <animate attributeName="d" dur="2s" repeatCount="indefinite" values="M23.85 -19.4 L24.1 -19.15 24.2 -19.05 Q24.35 -18.9 24.55 -18.85 L24.85 -18.7 24.85 -18.6 24.9 -18.3 24.9 -18.15 24.95 -17.95 25.45 -17.6 25.75 -17.65 Q26.2 -17.65 26.6 -17.65 L28.1 -17.8 28.1 -17.5 28.1 -16.85 28.1 -16.65 28.15 -16.25 28.15 -15.85 28.2 -15.45 28.75 -15.15 28.75 -15.15 29.05 -15.3 29.35 -15.65 29.35 -15.85 29.35 -16.2 29.35 -17.4 29.35 -17.95 29.35 -18.65 29.25 -18.75 29.25 -18.8 Q28.85 -19.05 28.45 -19.25 L28.35 -19.25 28.35 -19.35 27.75 -19.9 27.5 -19.8 Q27.25 -19.6 27.05 -19.4 L26.95 -19.35 26.75 -19.35 26.6 -19.35 26.3 -19.3 26.1 -19.3 26.1 -19.45 26.1 -19.75 26.1 -19.95 25.7 -20.65 25.25 -20.9 Q24.2 -20.5 23.85 -19.4;M28.85 -25.65 L28.85 -25.65 28.95 -25.45 Q29.2 -25.25 29.45 -25.05 L29.35 -24.75 29.35 -24.75 29.45 -24.3 29.45 -24.2 29.85 -24.0 30.35 -23.75 30.5 -23.4 Q30.75 -23.0 31.25 -22.9 L32.2 -23.5 32.5 -23.7 33.0 -24.0 33.1 -23.8 33.35 -23.45 33.4 -23.05 33.55 -22.7 34.0 -22.4 34.0 -22.4 34.45 -22.55 35.0 -23.0 35.1 -23.2 34.95 -23.5 34.2 -24.5 34.3 -24.9 34.35 -25.5 34.35 -25.65 34.35 -25.75 Q34.05 -26.15 33.5 -26.15 L33.5 -26.15 33.5 -26.15 32.85 -25.7 32.55 -25.5 Q32.2 -25.3 31.8 -25.2 L31.6 -25.15 31.5 -25.3 31.35 -25.5 31.35 -25.9 31.35 -26.1 31.35 -26.2 31.35 -26.65 31.2 -26.8 30.75 -27.15 30.35 -27.0 Q29.25 -26.6 28.85 -25.65"/>
    </path>
    <path d="M23.85 -19.4 Q24.2 -20.5 25.25 -20.9 L25.7 -20.65 26.1 -19.95 26.1 -19.75 26.1 -19.45 26.1 -19.3 26.3 -19.3 26.6 -19.35 26.75 -19.35 26.95 -19.35 27.05 -19.4 Q27.25 -19.6 27.5 -19.8 L27.75 -19.9 28.35 -19.35 28.35 -19.25 28.45 -19.25 Q28.85 -19.05 29.25 -18.8 L29.25 -18.75 29.35 -18.65 29.35 -17.95 29.35 -17.4 29.35 -16.2 29.35 -15.85 29.35 -15.65 29.05 -15.3 28.75 -15.15 28.75 -15.15 28.2 -15.45 28.15 -15.85 28.15 -16.25 28.1 -16.65 28.1 -16.85 28.1 -17.5 28.1 -17.8 26.6 -17.65 Q26.2 -17.65 25.75 -17.65 L25.45 -17.6 24.95 -17.95 24.9 -18.15 24.9 -18.3 24.85 -18.6 24.85 -18.7 24.55 -18.85 Q24.35 -18.9 24.2 -19.05 L24.1 -19.15 23.85 -19.4" fill="none" stroke="#000000" stroke-linecap="round" stroke-linejoin="round" stroke-opacity="0.0" stroke-width="1.0">
      <animate attributeName="stroke" dur="2s" repeatCount="indefinite" values="#000000;#000001"/>
      <animate attributeName="stroke-width" dur="2s" repeatCount="indefinite" values="0.0;0.0"/>
      <animate attributeName="fill-opacity" dur="2s" repeatCount="indefinite" values="0.0;0.0"/>
      <animate attributeName="d" dur="2s" repeatCount="indefinite" values="M23.85 -19.4 Q24.2 -20.5 25.25 -20.9 L25.7 -20.65 26.1 -19.95 26.1 -19.75 26.1 -19.45 26.1 -19.3 26.3 -19.3 26.6 -19.35 26.75 -19.35 26.95 -19.35 27.05 -19.4 Q27.25 -19.6 27.5 -19.8 L27.75 -19.9 28.35 -19.35 28.35 -19.25 28.45 -19.25 Q28.85 -19.05 29.25 -18.8 L29.25 -18.75 29.35 -18.65 29.35 -17.95 29.35 -17.4 29.35 -16.2 29.35 -15.85 29.35 -15.65 29.05 -15.3 28.75 -15.15 28.75 -15.15 28.2 -15.45 28.15 -15.85 28.15 -16.25 28.1 -16.65 28.1 -16.85 28.1 -17.5 28.1 -17.8 26.6 -17.65 Q26.2 -17.65 25.75 -17.65 L25.45 -17.6 24.95 -17.95 24.9 -18.15 24.9 -18.3 24.85 -18.6 24.85 -18.7 24.55 -18.85 Q24.35 -18.9 24.2 -19.05 L24.1 -19.15 23.85 -19.4;M28.85 -25.65 Q29.25 -26.6 30.35 -27.0 L30.75 -27.15 31.2 -26.8 31.35 -26.65 31.35 -26.2 31.35 -26.1 31.35 -25.9 31.35 -25.5 31.5 -25.3 31.6 -25.15 31.8 -25.2 Q32.2 -25.3 32.55 -25.5 L32.85 -25.7 33.5 -26.15 33.5 -26.15 33.5 -26.15 Q34.05 -26.15 34.35 -25.75 L34.35 -25.65 34.35 -25.5 34.3 -24.9 34.2 -24.5 34.95 -23.5 35.1 -23.2 35.0 -23.0 34.45 -22.55 34.0 -22.4 34.0 -22.4 33.55 -22.7 33.4 -23.05 33.35 -23.45 33.1 -23.8 33.0 -24.0 32.5 -23.7 32.2 -23.5 31.25 -22.9 Q30.75 -23.0 30.5 -23.4 L30.35 -23.75 29.85 -24.0 29.45 -24.2 29.45 -24.3 29.35 -24.75 29.35 -24.75 29.45 -25.05 Q29.2 -25.25 28.95 -25.45 L28.85 -25.65 28.85 -25.65"/>
    </path>
  </g>
</svg>
