<?xml version="1.0" encoding="UTF-8" standalone="no"?>
<svg xmlns:xlink="http://www.w3.org/1999/xlink" height="12.5px" width="8.2px" xmlns="http://www.w3.org/2000/svg">
  <g transform="matrix(1.0, 0.0, 0.0, 1.0, -2.15, 39.65)">
    <path d="M2.2 -30.1 L2.15 -29.8 Q2.2 -29.5 2.2 -29.2 L2.45 -29.1 2.75 -28.9 2.75 -28.9 3.0 -28.95 3.1 -29.0 3.25 -29.15 3.25 -29.2 3.35 -29.3 3.35 -29.3 3.5 -29.4 4.0 -29.45 4.1 -29.45 4.1 -29.25 4.1 -28.9 4.1 -28.7 4.2 -28.05 4.2 -27.95 4.55 -27.65 4.8 -27.6 5.0 -27.65 5.1 -27.7 5.3 -27.8 5.4 -27.95 5.6 -28.15 5.6 -28.25 5.6 -28.35 5.6 -28.5 5.6 -28.7 5.6 -28.85 5.75 -29.35 5.75 -29.45 5.85 -29.3 6.05 -29.1 6.35 -28.75 6.35 -28.55 6.35 -28.55 6.35 -28.4 6.35 -28.0 6.45 -27.45 6.65 -27.35 7.0 -27.15 7.0 -27.15 7.35 -27.3 7.5 -27.4 7.65 -27.8 7.65 -28.5 7.6 -29.65 7.35 -30.0 7.05 -30.4 6.95 -30.5 6.0 -30.9 5.9 -30.9 5.8 -30.8 5.6 -30.8 4.9 -30.8 4.8 -30.8 4.2 -30.85 3.7 -30.95 3.6 -30.95 3.6 -31.1 3.35 -31.5 3.0 -31.65 2.75 -31.55 2.65 -31.45 2.35 -31.25 2.3 -30.7 2.2 -30.1" fill="#000000" fill-rule="evenodd" stroke="none">
      <animate attributeName="fill" dur="2s" repeatCount="indefinite" values="#000000;#000001"/>
      <animate attributeName="fill-opacity" dur="2s" repeatCount="indefinite" values="1.0;1.0"/>
      <animate attributeName="d" dur="2s" repeatCount="indefinite" values="M2.2 -30.1 L2.15 -29.8 Q2.2 -29.5 2.2 -29.2 L2.45 -29.1 2.75 -28.9 2.75 -28.9 3.0 -28.95 3.1 -29.0 3.25 -29.15 3.25 -29.2 3.35 -29.3 3.35 -29.3 3.5 -29.4 4.0 -29.45 4.1 -29.45 4.1 -29.25 4.1 -28.9 4.1 -28.7 4.2 -28.05 4.2 -27.95 4.55 -27.65 4.8 -27.6 5.0 -27.65 5.1 -27.7 5.3 -27.8 5.4 -27.95 5.6 -28.15 5.6 -28.25 5.6 -28.35 5.6 -28.5 5.6 -28.7 5.6 -28.85 5.75 -29.35 5.75 -29.45 5.85 -29.3 6.05 -29.1 6.35 -28.75 6.35 -28.55 6.35 -28.55 6.35 -28.4 6.35 -28.0 6.45 -27.45 6.65 -27.35 7.0 -27.15 7.0 -27.15 7.35 -27.3 7.5 -27.4 7.65 -27.8 7.65 -28.5 7.6 -29.65 7.35 -30.0 7.05 -30.4 6.95 -30.5 6.0 -30.9 5.9 -30.9 5.8 -30.8 5.6 -30.8 4.9 -30.8 4.8 -30.8 4.2 -30.85 3.7 -30.95 3.6 -30.95 3.6 -31.1 3.35 -31.5 3.0 -31.65 2.75 -31.55 2.65 -31.45 2.35 -31.25 2.3 -30.7 2.2 -30.1;M5.35 -36.9 L5.35 -36.9 Q5.45 -36.5 5.8 -36.4 L6.0 -36.4 6.25 -36.45 6.25 -36.45 6.6 -36.7 6.7 -36.8 6.85 -37.05 6.85 -37.15 7.05 -36.95 7.05 -36.9 7.1 -36.8 7.1 -36.45 7.1 -36.3 7.15 -36.1 7.2 -35.8 7.2 -35.7 7.75 -35.4 7.85 -35.4 8.0 -35.45 8.2 -35.55 8.3 -35.75 8.3 -35.95 8.35 -36.25 8.35 -36.5 8.65 -36.6 8.75 -36.6 8.85 -36.65 8.95 -36.5 9.05 -36.3 9.1 -36.15 9.1 -35.75 9.1 -35.6 9.15 -35.4 9.2 -35.2 9.65 -35.0 9.75 -34.9 9.85 -34.9 9.85 -34.95 10.05 -35.05 10.35 -35.35 10.35 -35.4 10.35 -35.75 10.35 -35.75 10.35 -36.2 10.35 -36.5 10.35 -36.9 10.25 -37.15 9.4 -38.0 9.0 -38.05 8.45 -38.0 8.35 -38.1 7.6 -38.75 7.6 -38.95 7.6 -39.15 7.45 -39.3 7.0 -39.65 7.0 -39.6 6.6 -39.5 6.45 -39.3 6.45 -39.2 6.4 -39.2 6.3 -38.95 6.2 -38.55 6.1 -38.3 6.1 -38.2 5.9 -38.0 5.55 -37.5 5.35 -36.9"/>
    </path>
    <path d="M2.2 -30.1 L2.3 -30.7 2.35 -31.25 2.65 -31.45 2.75 -31.55 3.0 -31.65 3.35 -31.5 3.6 -31.1 3.6 -30.95 3.7 -30.95 4.2 -30.85 4.8 -30.8 4.9 -30.8 5.6 -30.8 5.8 -30.8 5.9 -30.9 6.0 -30.9 6.95 -30.5 7.05 -30.4 7.35 -30.0 7.6 -29.65 7.65 -28.5 7.65 -27.8 7.5 -27.4 7.35 -27.3 7.0 -27.15 7.0 -27.15 6.65 -27.35 6.45 -27.45 6.35 -28.0 6.35 -28.4 6.35 -28.55 6.35 -28.55 6.35 -28.75 6.05 -29.1 5.85 -29.3 5.75 -29.45 5.75 -29.35 5.6 -28.85 5.6 -28.7 5.6 -28.5 5.6 -28.35 5.6 -28.25 5.6 -28.15 5.4 -27.95 5.3 -27.8 5.1 -27.7 5.0 -27.65 4.8 -27.6 4.55 -27.65 4.2 -27.95 4.2 -28.05 4.1 -28.7 4.1 -28.9 4.1 -29.25 4.1 -29.45 4.0 -29.45 3.5 -29.4 3.35 -29.3 3.35 -29.3 3.25 -29.2 3.25 -29.15 3.1 -29.0 3.0 -28.95 2.75 -28.9 2.75 -28.9 2.45 -29.1 2.2 -29.2 Q2.2 -29.5 2.15 -29.8 L2.2 -30.1" fill="none" stroke="#000000" stroke-linecap="round" stroke-linejoin="round" stroke-opacity="0.0" stroke-width="1.0">
      <animate attributeName="stroke" dur="2s" repeatCount="indefinite" values="#000000;#000001"/>
      <animate attributeName="stroke-width" dur="2s" repeatCount="indefinite" values="0.0;0.0"/>
      <animate attributeName="fill-opacity" dur="2s" repeatCount="indefinite" values="0.0;0.0"/>
      <animate attributeName="d" dur="2s" repeatCount="indefinite" values="M2.2 -30.1 L2.3 -30.7 2.35 -31.25 2.65 -31.45 2.75 -31.55 3.0 -31.65 3.35 -31.5 3.6 -31.1 3.6 -30.95 3.7 -30.95 4.2 -30.85 4.8 -30.8 4.9 -30.8 5.6 -30.8 5.8 -30.8 5.9 -30.9 6.0 -30.9 6.95 -30.5 7.05 -30.4 7.35 -30.0 7.6 -29.65 7.65 -28.5 7.65 -27.8 7.5 -27.4 7.35 -27.3 7.0 -27.15 7.0 -27.15 6.65 -27.35 6.45 -27.45 6.35 -28.0 6.35 -28.4 6.35 -28.55 6.35 -28.55 6.35 -28.75 6.05 -29.1 5.85 -29.3 5.75 -29.45 5.75 -29.35 5.6 -28.85 5.6 -28.7 5.6 -28.5 5.6 -28.35 5.6 -28.25 5.6 -28.15 5.4 -27.95 5.3 -27.8 5.1 -27.7 5.0 -27.65 4.8 -27.6 4.55 -27.65 4.2 -27.95 4.2 -28.05 4.1 -28.7 4.1 -28.9 4.1 -29.25 4.1 -29.45 4.0 -29.45 3.5 -29.4 3.35 -29.3 3.35 -29.3 3.25 -29.2 3.25 -29.15 3.1 -29.0 3.0 -28.95 2.75 -28.9 2.75 -28.9 2.45 -29.1 2.2 -29.2 Q2.2 -29.5 2.15 -29.8 L2.2 -30.1;M5.35 -36.9 L5.55 -37.5 5.9 -38.0 6.1 -38.2 6.1 -38.3 6.2 -38.55 6.3 -38.95 6.4 -39.2 6.45 -39.2 6.45 -39.3 6.6 -39.5 7.0 -39.6 7.0 -39.65 7.45 -39.3 7.6 -39.15 7.6 -38.95 7.6 -38.75 8.35 -38.1 8.45 -38.0 9.0 -38.05 9.4 -38.0 10.25 -37.15 10.35 -36.9 10.35 -36.5 10.35 -36.2 10.35 -35.75 10.35 -35.75 10.35 -35.4 10.35 -35.35 10.05 -35.05 9.85 -34.95 9.85 -34.9 9.75 -34.9 9.65 -35.0 9.2 -35.2 9.15 -35.4 9.1 -35.6 9.1 -35.75 9.1 -36.15 9.05 -36.3 8.95 -36.5 8.85 -36.65 8.75 -36.6 8.65 -36.6 8.35 -36.5 8.35 -36.25 8.3 -35.95 8.3 -35.75 8.2 -35.55 8.0 -35.45 7.85 -35.4 7.75 -35.4 7.2 -35.7 7.2 -35.8 7.15 -36.1 7.1 -36.3 7.1 -36.45 7.1 -36.8 7.05 -36.9 7.05 -36.95 6.85 -37.15 6.85 -37.05 6.7 -36.8 6.6 -36.7 6.25 -36.45 6.25 -36.45 6.0 -36.4 5.8 -36.4 Q5.45 -36.5 5.35 -36.9 L5.35 -36.9"/>
    </path>
  </g>
</svg>
