<?xml version="1.0" encoding="UTF-8" standalone="no"?>
<svg xmlns:xlink="http://www.w3.org/1999/xlink" height="11.5px" width="10.0px" xmlns="http://www.w3.org/2000/svg">
  <g transform="matrix(1.0, 0.0, 0.0, 1.0, -5.35, 46.4)">
    <path d="M5.35 -36.9 L5.35 -36.9 5.55 -36.55 Q5.7 -36.4 6.0 -36.4 L6.1 -36.4 6.25 -36.45 6.75 -36.95 6.85 -37.15 7.05 -36.95 7.1 -36.8 7.1 -36.45 7.2 -35.7 7.75 -35.4 8.0 -35.45 8.2 -35.55 8.3 -35.85 8.3 -35.95 8.3 -36.05 8.35 -36.5 8.45 -36.5 8.75 -36.6 8.85 -36.65 8.95 -36.4 9.05 -36.3 9.1 -36.15 9.1 -35.75 9.2 -35.3 9.2 -35.2 9.75 -34.9 9.85 -34.9 10.05 -35.05 10.35 -35.4 10.35 -35.75 10.35 -36.65 10.35 -36.9 10.05 -37.5 9.7 -37.85 8.55 -38.0 8.45 -38.0 8.35 -38.1 8.25 -38.2 7.6 -38.75 7.6 -38.95 7.6 -38.95 7.6 -39.15 7.45 -39.3 7.2 -39.5 7.0 -39.65 7.0 -39.6 6.6 -39.5 6.5 -39.4 6.5 -39.3 6.45 -39.3 6.4 -39.15 6.3 -38.95 6.25 -38.75 6.1 -38.2 6.1 -38.2 5.9 -38.0 Q5.4 -37.5 5.35 -36.9" fill="#000000" fill-rule="evenodd" stroke="none">
      <animate attributeName="fill" dur="2s" repeatCount="indefinite" values="#000000;#000001"/>
      <animate attributeName="fill-opacity" dur="2s" repeatCount="indefinite" values="1.0;1.0"/>
      <animate attributeName="d" dur="2s" repeatCount="indefinite" values="M5.35 -36.9 L5.35 -36.9 5.55 -36.55 Q5.7 -36.4 6.0 -36.4 L6.1 -36.4 6.25 -36.45 6.75 -36.95 6.85 -37.15 7.05 -36.95 7.1 -36.8 7.1 -36.45 7.2 -35.7 7.75 -35.4 8.0 -35.45 8.2 -35.55 8.3 -35.85 8.3 -35.95 8.3 -36.05 8.35 -36.5 8.45 -36.5 8.75 -36.6 8.85 -36.65 8.95 -36.4 9.05 -36.3 9.1 -36.15 9.1 -35.75 9.2 -35.3 9.2 -35.2 9.75 -34.9 9.85 -34.9 10.05 -35.05 10.35 -35.4 10.35 -35.75 10.35 -36.65 10.35 -36.9 10.05 -37.5 9.7 -37.85 8.55 -38.0 8.45 -38.0 8.35 -38.1 8.25 -38.2 7.6 -38.75 7.6 -38.95 7.6 -38.95 7.6 -39.15 7.45 -39.3 7.2 -39.5 7.0 -39.65 7.0 -39.6 6.6 -39.5 6.5 -39.4 6.5 -39.3 6.45 -39.3 6.4 -39.15 6.3 -38.95 6.25 -38.75 6.1 -38.2 6.1 -38.2 5.9 -38.0 Q5.4 -37.5 5.35 -36.9;M11.6 -45.2 L11.65 -45.0 11.65 -44.8 Q11.7 -44.65 11.7 -44.55 L11.7 -44.45 11.9 -44.35 12.25 -44.15 12.45 -44.25 12.55 -44.25 12.65 -44.25 12.85 -44.3 13.25 -44.3 13.55 -44.3 13.75 -44.3 13.9 -44.3 14.1 -44.3 14.1 -44.2 14.1 -44.2 14.15 -43.9 14.15 -43.8 14.2 -43.55 14.2 -43.55 14.2 -43.45 14.35 -43.35 14.35 -43.35 14.55 -43.25 14.75 -43.15 14.85 -43.2 15.05 -43.3 15.05 -43.3 15.15 -43.45 15.35 -43.65 15.35 -43.85 15.35 -44.4 15.35 -44.5 15.35 -45.15 15.2 -45.3 14.6 -45.7 14.6 -45.75 14.55 -45.85 14.45 -46.0 14.2 -46.2 14.1 -46.3 14.0 -46.4 13.9 -46.3 13.8 -46.3 13.6 -46.3 13.5 -46.3 13.4 -46.3 13.1 -46.4 13.0 -46.4 13.0 -46.35 12.95 -46.35 12.75 -46.3 12.65 -46.25 12.6 -46.25 12.35 -45.95 12.35 -45.95 12.15 -45.75 Q11.85 -45.45 11.6 -45.2"/>
    </path>
    <path d="M5.35 -36.9 Q5.4 -37.5 5.9 -38.0 L6.1 -38.2 6.1 -38.2 6.25 -38.75 6.3 -38.95 6.4 -39.15 6.45 -39.3 6.5 -39.3 6.5 -39.4 6.6 -39.5 7.0 -39.6 7.0 -39.65 7.2 -39.5 7.45 -39.3 7.6 -39.15 7.6 -38.95 7.6 -38.95 7.6 -38.75 8.25 -38.2 8.35 -38.1 8.45 -38.0 8.55 -38.0 9.7 -37.85 10.05 -37.5 10.35 -36.9 10.35 -36.65 10.35 -35.75 10.35 -35.4 10.05 -35.05 9.85 -34.9 9.75 -34.9 9.2 -35.2 9.2 -35.3 9.1 -35.75 9.1 -36.15 9.05 -36.3 8.95 -36.4 8.85 -36.65 8.75 -36.6 8.45 -36.5 8.35 -36.5 8.3 -36.05 8.3 -35.95 8.3 -35.85 8.2 -35.55 8.0 -35.45 7.75 -35.4 7.2 -35.7 7.1 -36.45 7.1 -36.8 7.05 -36.95 6.85 -37.15 6.75 -36.95 6.25 -36.45 6.1 -36.4 6.0 -36.4 Q5.7 -36.4 5.55 -36.55 L5.35 -36.9 5.35 -36.9" fill="none" stroke="#000000" stroke-linecap="round" stroke-linejoin="round" stroke-opacity="0.0" stroke-width="1.0">
      <animate attributeName="stroke" dur="2s" repeatCount="indefinite" values="#000000;#000001"/>
      <animate attributeName="stroke-width" dur="2s" repeatCount="indefinite" values="0.0;0.0"/>
      <animate attributeName="fill-opacity" dur="2s" repeatCount="indefinite" values="0.0;0.0"/>
      <animate attributeName="d" dur="2s" repeatCount="indefinite" values="M5.35 -36.9 Q5.4 -37.5 5.9 -38.0 L6.1 -38.2 6.1 -38.2 6.25 -38.75 6.3 -38.95 6.4 -39.15 6.45 -39.3 6.5 -39.3 6.5 -39.4 6.6 -39.5 7.0 -39.6 7.0 -39.65 7.2 -39.5 7.45 -39.3 7.6 -39.15 7.6 -38.95 7.6 -38.95 7.6 -38.75 8.25 -38.2 8.35 -38.1 8.45 -38.0 8.55 -38.0 9.7 -37.85 10.05 -37.5 10.35 -36.9 10.35 -36.65 10.35 -35.75 10.35 -35.4 10.05 -35.05 9.85 -34.9 9.75 -34.9 9.2 -35.2 9.2 -35.3 9.1 -35.75 9.1 -36.15 9.05 -36.3 8.95 -36.4 8.85 -36.65 8.75 -36.6 8.45 -36.5 8.35 -36.5 8.3 -36.05 8.3 -35.95 8.3 -35.85 8.2 -35.55 8.0 -35.45 7.75 -35.4 7.2 -35.7 7.1 -36.45 7.1 -36.8 7.05 -36.95 6.85 -37.15 6.75 -36.95 6.25 -36.45 6.1 -36.4 6.0 -36.4 Q5.7 -36.4 5.55 -36.55 L5.35 -36.9 5.35 -36.9;M11.6 -45.2 Q11.85 -45.45 12.15 -45.75 L12.35 -45.95 12.35 -45.95 12.6 -46.25 12.65 -46.25 12.75 -46.3 12.95 -46.35 13.0 -46.35 13.0 -46.4 13.1 -46.4 13.4 -46.3 13.5 -46.3 13.6 -46.3 13.8 -46.3 13.9 -46.3 14.0 -46.4 14.1 -46.3 14.2 -46.2 14.45 -46.0 14.55 -45.85 14.6 -45.75 14.6 -45.7 15.2 -45.3 15.35 -45.15 15.35 -44.5 15.35 -44.4 15.35 -43.85 15.35 -43.65 15.15 -43.45 15.05 -43.3 15.05 -43.3 14.85 -43.2 14.75 -43.15 14.55 -43.25 14.35 -43.35 14.35 -43.35 14.2 -43.45 14.2 -43.55 14.2 -43.55 14.15 -43.8 14.15 -43.9 14.1 -44.2 14.1 -44.2 14.1 -44.3 13.9 -44.3 13.75 -44.3 13.55 -44.3 13.25 -44.3 12.85 -44.3 12.65 -44.25 12.55 -44.25 12.45 -44.25 12.25 -44.15 11.9 -44.35 11.7 -44.45 11.7 -44.55 Q11.7 -44.65 11.65 -44.8 L11.65 -45.0 11.6 -45.2"/>
    </path>
  </g>
</svg>
