<?xml version="1.0" encoding="UTF-8" standalone="no"?>
<svg xmlns:xlink="http://www.w3.org/1999/xlink" height="84.7px" width="74.8px" xmlns="http://www.w3.org/2000/svg">
  <g transform="matrix(1.0, 0.0, 0.0, 1.0, 20.6, 71.15)">
    <path d="M-20.6 -7.35 L-20.6 -7.35 -20.55 -6.35 Q-20.15 0.8 -15.85 5.6 L-13.05 8.15 Q-6.8 12.9 1.25 13.5 L3.0 13.55 Q12.1 13.75 19.7 9.55 L21.8 8.35 Q26.05 5.9 30.05 2.95 L31.85 1.6 30.65 1.45 Q29.45 1.15 28.75 0.4 L28.3 -0.3 28.1 -0.75 27.8 -2.45 27.8 -3.25 27.85 -3.9 27.95 -4.45 28.7 -6.35 29.15 -7.0 29.35 -7.2 29.35 -7.2 Q30.0 -7.95 30.65 -8.65 L31.2 -9.25 31.5 -9.6 32.1 -10.15 32.7 -10.65 Q34.6 -12.25 36.8 -13.5 38.3 -15.85 40.75 -17.65 L42.3 -18.8 43.75 -20.15 Q45.35 -21.6 47.4 -22.35 L46.35 -22.2 Q43.65 -21.95 41.3 -23.5 39.2 -24.85 38.5 -26.9 38.1 -28.15 38.15 -29.65 38.2 -31.45 38.65 -33.15 L39.0 -34.35 Q39.45 -35.7 40.75 -36.6 L41.85 -37.4 Q46.0 -40.35 50.4 -43.0 51.4 -43.6 52.4 -44.2 L52.6 -44.55 Q52.9 -45.3 53.55 -45.85 L53.8 -46.1 53.8 -46.45 Q53.75 -47.1 54.05 -47.7 54.3 -48.2 54.15 -48.7 53.4 -48.1 52.7 -47.65 47.3 -44.35 43.1 -49.35 42.2 -50.4 42.35 -51.8 L42.4 -52.3 Q42.75 -53.9 43.55 -55.15 44.8 -57.1 47.2 -58.3 L49.6 -59.15 Q51.25 -59.3 52.85 -59.4 L52.85 -59.4 52.55 -59.7 Q51.25 -61.0 49.95 -62.3 L49.65 -62.6 Q46.25 -62.85 43.4 -61.95 L42.65 -61.7 Q38.95 -60.35 36.2 -56.95 33.5 -53.65 30.0 -51.1 29.2 -50.5 28.25 -50.3 L26.2 -50.05 Q23.3 -49.95 20.65 -51.05 19.65 -51.45 18.95 -52.4 17.75 -54.1 17.3 -56.15 16.9 -57.85 17.1 -59.75 17.45 -62.45 17.8 -65.1 L18.1 -65.9 16.8 -65.05 Q14.35 -63.1 12.25 -60.6 11.25 -59.3 10.25 -58.0 9.25 -56.7 8.3 -55.45 6.0 -52.9 3.05 -51.1 0.1 -49.3 -2.0 -46.55 L-2.1 -46.35 -2.2 -46.35 -3.95 -44.95 Q-5.2 -42.7 -5.85 -40.25 -6.45 -38.0 -6.5 -35.65 -6.55 -34.15 -7.25 -32.9 L-9.75 -28.5 -10.35 -27.55 -10.75 -26.95 Q-12.5 -24.2 -15.1 -22.15 -15.3 -21.0 -15.95 -20.0 -17.8 -17.05 -18.85 -13.7 L-19.1 -12.9 -19.45 -12.2 -19.5 -11.9 -19.7 -9.65 -19.9 -8.75 Q-20.1 -8.0 -20.6 -7.35" fill="url(#gradient0)" fill-rule="evenodd" stroke="none">
      <animate attributeName="d" dur="2s" repeatCount="indefinite" values="M-20.6 -7.35 L-20.6 -7.35 -20.55 -6.35 Q-20.15 0.8 -15.85 5.6 L-13.05 8.15 Q-6.8 12.9 1.25 13.5 L3.0 13.55 Q12.1 13.75 19.7 9.55 L21.8 8.35 Q26.05 5.9 30.05 2.95 L31.85 1.6 30.65 1.45 Q29.45 1.15 28.75 0.4 L28.3 -0.3 28.1 -0.75 27.8 -2.45 27.8 -3.25 27.85 -3.9 27.95 -4.45 28.7 -6.35 29.15 -7.0 29.35 -7.2 29.35 -7.2 Q30.0 -7.95 30.65 -8.65 L31.2 -9.25 31.5 -9.6 32.1 -10.15 32.7 -10.65 Q34.6 -12.25 36.8 -13.5 38.3 -15.85 40.75 -17.65 L42.3 -18.8 43.75 -20.15 Q45.35 -21.6 47.4 -22.35 L46.35 -22.2 Q43.65 -21.95 41.3 -23.5 39.2 -24.85 38.5 -26.9 38.1 -28.15 38.15 -29.65 38.2 -31.45 38.65 -33.15 L39.0 -34.35 Q39.45 -35.7 40.75 -36.6 L41.85 -37.4 Q46.0 -40.35 50.4 -43.0 51.4 -43.6 52.4 -44.2 L52.6 -44.55 Q52.9 -45.3 53.55 -45.85 L53.8 -46.1 53.8 -46.45 Q53.75 -47.1 54.05 -47.7 54.3 -48.2 54.15 -48.7 53.4 -48.1 52.7 -47.65 47.3 -44.35 43.1 -49.35 42.2 -50.4 42.35 -51.8 L42.4 -52.3 Q42.75 -53.9 43.55 -55.15 44.8 -57.1 47.2 -58.3 L49.6 -59.15 Q51.25 -59.3 52.85 -59.4 L52.85 -59.4 52.55 -59.7 Q51.25 -61.0 49.95 -62.3 L49.65 -62.6 Q46.25 -62.85 43.4 -61.95 L42.65 -61.7 Q38.95 -60.35 36.2 -56.95 33.5 -53.65 30.0 -51.1 29.2 -50.5 28.25 -50.3 L26.2 -50.05 Q23.3 -49.95 20.65 -51.05 19.65 -51.45 18.95 -52.4 17.75 -54.1 17.3 -56.15 16.9 -57.85 17.1 -59.75 17.45 -62.45 17.8 -65.1 L18.1 -65.9 16.8 -65.05 Q14.35 -63.1 12.25 -60.6 11.25 -59.3 10.25 -58.0 9.25 -56.7 8.3 -55.45 6.0 -52.9 3.05 -51.1 0.1 -49.3 -2.0 -46.55 L-2.1 -46.35 -2.2 -46.35 -3.95 -44.95 Q-5.2 -42.7 -5.85 -40.25 -6.45 -38.0 -6.5 -35.65 -6.55 -34.15 -7.25 -32.9 L-9.75 -28.5 -10.35 -27.55 -10.75 -26.95 Q-12.5 -24.2 -15.1 -22.15 -15.3 -21.0 -15.95 -20.0 -17.8 -17.05 -18.85 -13.7 L-19.1 -12.9 -19.45 -12.2 -19.5 -11.9 -19.7 -9.65 -19.9 -8.75 Q-20.1 -8.0 -20.6 -7.35;M-18.8 -18.55 L-18.8 -18.45 -18.8 -17.45 Q-18.55 -10.45 -15.75 -4.25 L-13.25 -1.15 Q-7.95 4.8 -0.5 8.1 L1.4 8.1 Q10.25 7.95 19.1 7.85 L21.9 7.75 Q26.25 5.6 30.2 2.85 L32.1 1.4 33.1 0.6 Q33.95 -0.1 34.8 -0.75 L35.35 -1.25 35.5 -1.6 36.45 -2.9 37.1 -3.55 37.35 -3.9 37.5 -4.25 38.3 -6.1 38.85 -6.9 38.95 -7.15 38.95 -7.25 Q39.2 -8.2 39.8 -9.1 L40.35 -9.9 40.4 -10.25 40.55 -11.0 40.85 -11.75 Q40.35 -14.55 40.95 -16.85 41.65 -19.6 44.05 -21.65 L45.6 -22.8 47.4 -24.05 Q49.1 -25.45 50.8 -26.8 L51.6 -27.5 Q48.95 -27.65 46.3 -27.8 43.9 -28.05 41.55 -28.3 39.85 -28.5 38.95 -29.35 37.75 -30.5 37.85 -32.8 L38.0 -34.0 Q38.2 -35.55 38.65 -37.0 L39.25 -38.6 Q41.4 -43.4 46.65 -45.05 47.8 -45.4 48.8 -46.0 L49.2 -46.2 Q49.9 -46.7 50.55 -47.2 L50.95 -47.55 51.15 -47.75 Q51.6 -48.2 52.0 -48.6 52.3 -49.0 52.6 -49.4 53.05 -50.15 53.5 -50.9 47.85 -50.45 42.25 -50.05 40.85 -49.9 39.45 -49.75 L39.0 -49.7 Q37.3 -49.65 36.3 -51.0 34.65 -53.0 33.7 -55.2 L32.8 -57.75 Q32.35 -59.3 32.25 -60.9 L32.25 -61.0 32.25 -61.3 Q32.15 -63.45 32.8 -65.3 L32.9 -65.6 Q34.0 -68.4 36.75 -70.5 L37.25 -71.15 Q32.7 -69.65 30.05 -66.9 27.0 -63.8 26.4 -59.05 26.35 -58.05 26.3 -57.05 L26.4 -55.0 Q26.65 -51.95 26.25 -49.05 26.0 -47.8 25.8 -46.6 25.35 -44.65 24.55 -42.8 23.75 -40.85 22.65 -39.4 20.9 -37.15 18.4 -36.1 L17.7 -35.85 16.35 -35.5 Q13.2 -35.6 10.05 -35.65 8.25 -36.0 7.15 -37.1 6.05 -38.2 5.6 -39.95 4.65 -43.4 4.45 -46.95 4.25 -50.4 4.75 -53.95 L4.75 -54.15 4.75 -54.25 3.5 -52.35 Q1.85 -50.35 0.25 -48.4 -0.3 -46.1 -0.85 -43.8 -1.2 -42.3 -1.5 -40.8 L-2.4 -35.7 -2.75 -34.45 -3.1 -33.85 Q-4.9 -31.05 -7.15 -28.7 -7.95 -27.9 -8.7 -27.15 -11.3 -24.75 -14.4 -22.85 L-15.0 -22.45 -15.7 -21.95 -15.95 -21.75 -17.45 -20.25 -18.0 -19.55 Q-18.4 -19.05 -18.8 -18.55"/>
    </path>
    <path d="M-20.6 -7.35 Q-20.1 -8.0 -19.9 -8.75 L-19.7 -9.65 -19.5 -11.9 -19.45 -12.2 -19.1 -12.9 -18.85 -13.7 Q-17.8 -17.05 -15.95 -20.0 -15.3 -21.0 -15.1 -22.15 -12.5 -24.2 -10.75 -26.95 L-10.35 -27.55 -9.75 -28.5 -7.25 -32.9 Q-6.55 -34.15 -6.5 -35.65 -6.45 -38.0 -5.85 -40.25 -5.2 -42.7 -3.95 -44.95 L-2.2 -46.35 -2.1 -46.35 -2.0 -46.55 Q0.1 -49.3 3.05 -51.1 6.0 -52.9 8.3 -55.45 9.25 -56.7 10.25 -58.0 11.25 -59.3 12.25 -60.6 14.35 -63.1 16.8 -65.05 L18.1 -65.9 17.8 -65.1 Q17.45 -62.45 17.1 -59.75 16.9 -57.85 17.3 -56.15 17.75 -54.1 18.95 -52.4 19.65 -51.45 20.65 -51.05 23.3 -49.95 26.2 -50.05 L28.25 -50.3 Q29.2 -50.5 30.0 -51.1 33.5 -53.65 36.2 -56.95 38.95 -60.35 42.65 -61.7 L43.4 -61.95 Q46.25 -62.85 49.65 -62.6 L49.95 -62.3 Q51.25 -61.0 52.55 -59.7 L52.85 -59.4 52.85 -59.4 Q51.25 -59.3 49.6 -59.15 L47.2 -58.3 Q44.8 -57.1 43.55 -55.15 42.75 -53.9 42.4 -52.3 L42.35 -51.8 Q42.2 -50.4 43.1 -49.35 47.3 -44.35 52.7 -47.65 53.4 -48.1 54.15 -48.7 54.3 -48.2 54.05 -47.7 53.75 -47.1 53.8 -46.45 L53.8 -46.1 53.55 -45.85 Q52.9 -45.3 52.6 -44.55 L52.4 -44.2 Q51.4 -43.6 50.4 -43.0 46.0 -40.35 41.85 -37.4 L40.75 -36.6 Q39.45 -35.7 39.0 -34.35 L38.65 -33.15 Q38.2 -31.45 38.15 -29.65 38.1 -28.15 38.5 -26.9 39.2 -24.85 41.3 -23.5 43.65 -21.95 46.35 -22.2 L47.4 -22.35 Q45.35 -21.6 43.75 -20.15 L42.3 -18.8 40.75 -17.65 Q38.3 -15.85 36.8 -13.5 34.6 -12.25 32.7 -10.65 L32.1 -10.15 31.5 -9.6 31.2 -9.25 30.65 -8.65 Q30.0 -7.95 29.35 -7.2 L29.35 -7.2 29.15 -7.0 28.7 -6.35 27.95 -4.45 27.85 -3.9 27.8 -3.25 27.8 -2.45 28.1 -0.75 28.3 -0.3 28.75 0.4 Q29.45 1.15 30.65 1.45 L31.85 1.6 30.05 2.95 Q26.05 5.9 21.8 8.35 L19.7 9.55 Q12.1 13.75 3.0 13.55 L1.25 13.5 Q-6.8 12.9 -13.05 8.15 L-15.85 5.6 Q-20.15 0.8 -20.55 -6.35 L-20.6 -7.35 -20.6 -7.35" fill="none" stroke="#000000" stroke-linecap="round" stroke-linejoin="round" stroke-opacity="0.0" stroke-width="1.0">
      <animate attributeName="stroke" dur="2s" repeatCount="indefinite" values="#000000;#000001"/>
      <animate attributeName="stroke-width" dur="2s" repeatCount="indefinite" values="0.0;0.0"/>
      <animate attributeName="fill-opacity" dur="2s" repeatCount="indefinite" values="0.0;0.0"/>
      <animate attributeName="d" dur="2s" repeatCount="indefinite" values="M-20.6 -7.35 Q-20.1 -8.0 -19.9 -8.75 L-19.7 -9.65 -19.5 -11.9 -19.45 -12.2 -19.1 -12.9 -18.85 -13.7 Q-17.8 -17.05 -15.95 -20.0 -15.3 -21.0 -15.1 -22.15 -12.5 -24.2 -10.75 -26.95 L-10.35 -27.55 -9.75 -28.5 -7.25 -32.9 Q-6.55 -34.15 -6.5 -35.65 -6.45 -38.0 -5.85 -40.25 -5.2 -42.7 -3.95 -44.95 L-2.2 -46.35 -2.1 -46.35 -2.0 -46.55 Q0.1 -49.3 3.05 -51.1 6.0 -52.9 8.3 -55.45 9.25 -56.7 10.25 -58.0 11.25 -59.3 12.25 -60.6 14.35 -63.1 16.8 -65.05 L18.1 -65.9 17.8 -65.1 Q17.45 -62.45 17.1 -59.75 16.9 -57.85 17.3 -56.15 17.75 -54.1 18.95 -52.4 19.65 -51.45 20.65 -51.05 23.3 -49.95 26.2 -50.05 L28.25 -50.3 Q29.2 -50.5 30.0 -51.1 33.5 -53.65 36.2 -56.95 38.95 -60.35 42.65 -61.7 L43.4 -61.95 Q46.25 -62.85 49.65 -62.6 L49.95 -62.3 Q51.25 -61.0 52.55 -59.7 L52.85 -59.4 52.85 -59.4 Q51.25 -59.3 49.6 -59.15 L47.2 -58.3 Q44.8 -57.1 43.55 -55.15 42.75 -53.9 42.4 -52.3 L42.35 -51.8 Q42.2 -50.4 43.1 -49.35 47.3 -44.35 52.7 -47.65 53.4 -48.1 54.15 -48.7 54.3 -48.2 54.05 -47.7 53.75 -47.1 53.8 -46.45 L53.8 -46.1 53.55 -45.85 Q52.9 -45.3 52.6 -44.55 L52.4 -44.2 Q51.4 -43.6 50.4 -43.0 46.0 -40.35 41.85 -37.4 L40.75 -36.6 Q39.45 -35.7 39.0 -34.35 L38.65 -33.15 Q38.2 -31.45 38.15 -29.65 38.1 -28.15 38.5 -26.9 39.2 -24.85 41.3 -23.5 43.65 -21.95 46.35 -22.2 L47.4 -22.35 Q45.35 -21.6 43.75 -20.15 L42.3 -18.8 40.75 -17.65 Q38.3 -15.85 36.8 -13.5 34.6 -12.25 32.7 -10.65 L32.1 -10.15 31.5 -9.6 31.2 -9.25 30.65 -8.65 Q30.0 -7.95 29.35 -7.2 L29.35 -7.2 29.15 -7.0 28.7 -6.35 27.95 -4.45 27.85 -3.9 27.8 -3.25 27.8 -2.45 28.1 -0.75 28.3 -0.3 28.75 0.4 Q29.45 1.15 30.65 1.45 L31.85 1.6 30.05 2.95 Q26.05 5.9 21.8 8.35 L19.7 9.55 Q12.1 13.75 3.0 13.55 L1.25 13.5 Q-6.8 12.9 -13.05 8.15 L-15.85 5.6 Q-20.15 0.8 -20.55 -6.35 L-20.6 -7.35 -20.6 -7.35;M-18.8 -18.55 Q-18.4 -19.05 -18.0 -19.55 L-17.45 -20.25 -15.95 -21.75 -15.7 -21.95 -15.0 -22.45 -14.4 -22.85 Q-11.3 -24.75 -8.7 -27.15 -7.95 -27.9 -7.15 -28.7 -4.9 -31.05 -3.1 -33.85 L-2.75 -34.45 -2.4 -35.7 -1.5 -40.8 Q-1.2 -42.3 -0.85 -43.8 -0.3 -46.1 0.25 -48.4 1.85 -50.35 3.5 -52.35 L4.75 -54.25 4.75 -54.15 4.75 -53.95 Q4.25 -50.4 4.45 -46.95 4.65 -43.4 5.6 -39.95 6.05 -38.2 7.15 -37.1 8.25 -36.0 10.05 -35.65 13.2 -35.6 16.35 -35.5 L17.7 -35.85 18.4 -36.1 Q20.9 -37.15 22.65 -39.4 23.75 -40.85 24.55 -42.8 25.35 -44.65 25.8 -46.6 26.0 -47.8 26.25 -49.05 26.65 -51.95 26.4 -55.0 L26.3 -57.05 Q26.35 -58.05 26.4 -59.05 27.0 -63.8 30.05 -66.9 32.7 -69.65 37.25 -71.15 L36.75 -70.5 Q34.0 -68.4 32.9 -65.6 L32.8 -65.3 Q32.15 -63.45 32.25 -61.3 L32.25 -61.0 32.25 -60.9 Q32.35 -59.3 32.8 -57.75 L33.7 -55.2 Q34.65 -53.0 36.3 -51.0 37.3 -49.65 39.0 -49.7 L39.45 -49.75 Q40.85 -49.9 42.25 -50.05 47.85 -50.45 53.5 -50.9 53.05 -50.15 52.6 -49.4 52.3 -49.0 52.0 -48.6 51.6 -48.2 51.15 -47.75 L50.95 -47.55 50.55 -47.2 Q49.9 -46.7 49.2 -46.2 L48.8 -46.0 Q47.8 -45.4 46.65 -45.05 41.4 -43.4 39.25 -38.6 L38.65 -37.0 Q38.2 -35.55 38.0 -34.0 L37.85 -32.8 Q37.75 -30.5 38.95 -29.35 39.85 -28.5 41.55 -28.3 43.9 -28.05 46.3 -27.8 48.95 -27.65 51.6 -27.5 L50.8 -26.8 Q49.1 -25.45 47.4 -24.05 L45.6 -22.8 44.05 -21.65 Q41.65 -19.6 40.95 -16.85 40.35 -14.55 40.85 -11.75 L40.55 -11.0 40.4 -10.25 40.35 -9.9 39.8 -9.1 Q39.2 -8.2 38.95 -7.25 L38.95 -7.15 38.85 -6.9 38.3 -6.1 37.5 -4.25 37.35 -3.9 37.1 -3.55 36.45 -2.9 35.5 -1.6 35.35 -1.25 34.8 -0.75 Q33.95 -0.1 33.1 0.6 L32.1 1.4 30.2 2.85 Q26.25 5.6 21.9 7.75 L19.1 7.85 Q10.25 7.95 1.4 8.1 L-0.5 8.1 Q-7.95 4.8 -13.25 -1.15 L-15.75 -4.25 Q-18.55 -10.45 -18.8 -17.45 L-18.8 -18.45 -18.8 -18.55"/>
    </path>
  </g>
  <defs>
    <radialGradient cx="0" cy="0" gradientTransform="matrix(0.0403, 0.0073, -0.0084, 0.0459, 8.15, -14.15)" gradientUnits="userSpaceOnUse" id="gradient0" r="819.2" spreadMethod="pad">
      <animateTransform additive="replace" attributeName="gradientTransform" dur="2s" from="1" repeatCount="indefinite" to="1" type="scale"/>
      <animateTransform additive="sum" attributeName="gradientTransform" dur="2s" from="8.15 -14.15" repeatCount="indefinite" to="8.15 -14.15" type="translate"/>
      <animateTransform additive="sum" attributeName="gradientTransform" dur="2s" from="10.3087" repeatCount="indefinite" to="10.3087" type="rotate"/>
      <animateTransform additive="sum" attributeName="gradientTransform" dur="2s" from="0.0409 0.0467" repeatCount="indefinite" to="0.0409 0.0467" type="scale"/>
      <animateTransform additive="sum" attributeName="gradientTransform" dur="2s" from="-0.0147" repeatCount="indefinite" to="-0.0147" type="skewX"/>
      <stop offset="0.0" stop-color="#fefe0c">
        <animate attributeName="offset" dur="2s" repeatCount="indefinite" values="0.0;0.0"/>
        <animate attributeName="stop-color" dur="2s" repeatCount="indefinite" values="#fefe0c;#fefe0d"/>
        <animate attributeName="stop-opacity" dur="2s" repeatCount="indefinite" values="1.0;1.0"/>
      </stop>
      <stop offset="0.5764705882352941" stop-color="#ffba2b">
        <animate attributeName="offset" dur="2s" repeatCount="indefinite" values="0.5764705882352941;0.5764705882352941"/>
        <animate attributeName="stop-color" dur="2s" repeatCount="indefinite" values="#ffba2b;#ffba2c"/>
        <animate attributeName="stop-opacity" dur="2s" repeatCount="indefinite" values="1.0;1.0"/>
      </stop>
      <stop offset="1.0" stop-color="#ff720b">
        <animate attributeName="offset" dur="2s" repeatCount="indefinite" values="1.0;1.0"/>
        <animate attributeName="stop-color" dur="2s" repeatCount="indefinite" values="#ff720b;#ff720c"/>
        <animate attributeName="stop-opacity" dur="2s" repeatCount="indefinite" values="1.0;1.0"/>
      </stop>
    </radialGradient>
  </defs>
</svg>
