<?xml version="1.0" encoding="UTF-8" standalone="no"?>
<svg xmlns:xlink="http://www.w3.org/1999/xlink" height="79.25px" width="72.3px" xmlns="http://www.w3.org/2000/svg">
  <g transform="matrix(1.0, 0.0, 0.0, 1.0, 18.8, 71.15)">
    <path d="M-18.8 -18.55 L-18.8 -18.55 Q-18.8 -11.4 -16.1 -5.05 L-15.75 -4.25 -14.0 -2.05 Q-9.05 3.95 -1.95 7.4 L-0.5 8.1 Q10.7 7.9 21.9 7.75 L26.95 4.95 30.2 2.85 32.3 1.2 33.1 0.6 34.8 -0.75 35.35 -1.25 35.5 -1.6 37.1 -3.55 37.35 -3.9 37.5 -4.25 38.3 -6.1 38.85 -6.9 38.95 -7.25 39.1 -7.75 39.8 -9.1 40.35 -9.9 40.4 -10.25 40.55 -11.0 40.85 -11.75 Q40.1 -15.9 41.8 -18.9 42.45 -19.8 43.05 -20.7 44.1 -21.85 45.6 -22.8 48.0 -24.6 50.4 -26.4 L51.6 -27.5 44.05 -28.0 43.15 -28.1 41.55 -28.3 Q39.1 -28.6 38.3 -30.3 37.8 -31.3 37.85 -32.8 38.05 -35.9 39.25 -38.6 39.8 -39.55 40.3 -40.5 L41.45 -41.95 Q43.5 -44.05 46.65 -45.05 51.25 -46.5 53.5 -50.9 L52.75 -50.85 Q50.5 -50.7 48.25 -50.55 46.3 -50.4 44.35 -50.25 41.9 -50.0 39.45 -49.75 L37.95 -49.8 37.75 -49.9 Q36.9 -50.2 36.3 -51.0 34.2 -53.6 33.15 -56.5 L32.8 -57.75 Q32.35 -59.3 32.25 -61.0 31.95 -66.8 36.75 -70.5 L36.85 -70.6 37.25 -71.15 Q31.8 -69.35 29.1 -65.7 28.05 -64.35 27.4 -62.75 26.1 -59.4 26.4 -55.0 L26.5 -52.9 26.5 -52.8 Q26.5 -48.5 25.2 -44.6 L24.55 -42.8 Q22.1 -37.0 17.0 -35.65 15.9 -35.45 14.85 -35.3 12.45 -35.5 10.05 -35.65 6.55 -36.35 5.6 -39.95 L5.3 -41.15 Q4.4 -44.9 4.35 -48.7 4.35 -51.4 4.75 -54.15 L4.75 -54.25 3.65 -52.55 Q3.4 -52.2 3.15 -51.9 L0.25 -48.4 -0.65 -44.7 Q-1.5 -40.4 -2.3 -36.1 L-2.4 -35.7 Q-2.55 -34.7 -3.1 -33.85 -5.25 -30.45 -8.05 -27.7 -10.9 -24.95 -14.4 -22.85 L-14.7 -22.65 -17.45 -20.25 -18.8 -18.55" fill="url(#gradient0)" fill-rule="evenodd" stroke="none">
      <animate attributeName="d" dur="2s" repeatCount="indefinite" values="M-18.8 -18.55 L-18.8 -18.55 Q-18.8 -11.4 -16.1 -5.05 L-15.75 -4.25 -14.0 -2.05 Q-9.05 3.95 -1.95 7.4 L-0.5 8.1 Q10.7 7.9 21.9 7.75 L26.95 4.95 30.2 2.85 32.3 1.2 33.1 0.6 34.8 -0.75 35.35 -1.25 35.5 -1.6 37.1 -3.55 37.35 -3.9 37.5 -4.25 38.3 -6.1 38.85 -6.9 38.95 -7.25 39.1 -7.75 39.8 -9.1 40.35 -9.9 40.4 -10.25 40.55 -11.0 40.85 -11.75 Q40.1 -15.9 41.8 -18.9 42.45 -19.8 43.05 -20.7 44.1 -21.85 45.6 -22.8 48.0 -24.6 50.4 -26.4 L51.6 -27.5 44.05 -28.0 43.15 -28.1 41.55 -28.3 Q39.1 -28.6 38.3 -30.3 37.8 -31.3 37.85 -32.8 38.05 -35.9 39.25 -38.6 39.8 -39.55 40.3 -40.5 L41.45 -41.95 Q43.5 -44.05 46.65 -45.05 51.25 -46.5 53.5 -50.9 L52.75 -50.85 Q50.5 -50.7 48.25 -50.55 46.3 -50.4 44.35 -50.25 41.9 -50.0 39.45 -49.75 L37.95 -49.8 37.75 -49.9 Q36.9 -50.2 36.3 -51.0 34.2 -53.6 33.15 -56.5 L32.8 -57.75 Q32.35 -59.3 32.25 -61.0 31.95 -66.8 36.75 -70.5 L36.85 -70.6 37.25 -71.15 Q31.8 -69.35 29.1 -65.7 28.05 -64.35 27.4 -62.75 26.1 -59.4 26.4 -55.0 L26.5 -52.9 26.5 -52.8 Q26.5 -48.5 25.2 -44.6 L24.55 -42.8 Q22.1 -37.0 17.0 -35.65 15.9 -35.45 14.85 -35.3 12.45 -35.5 10.05 -35.65 6.55 -36.35 5.6 -39.95 L5.3 -41.15 Q4.4 -44.9 4.35 -48.7 4.35 -51.4 4.75 -54.15 L4.75 -54.25 3.65 -52.55 Q3.4 -52.2 3.15 -51.9 L0.25 -48.4 -0.65 -44.7 Q-1.5 -40.4 -2.3 -36.1 L-2.4 -35.7 Q-2.55 -34.7 -3.1 -33.85 -5.25 -30.45 -8.05 -27.7 -10.9 -24.95 -14.4 -22.85 L-14.7 -22.65 -17.45 -20.25 -18.8 -18.55;M-5.4 -20.2 L-5.4 -20.1 Q-4.05 -14.55 -1.35 -9.3 L-0.95 -8.55 0.3 -6.75 Q4.55 -1.4 11.75 -0.55 L13.35 -0.4 Q23.5 0.5 32.6 -2.7 L37.35 -4.65 39.95 -6.85 41.75 -8.3 42.45 -8.9 43.65 -10.15 44.05 -10.65 44.25 -10.95 45.55 -13.05 45.75 -13.55 45.95 -13.95 46.5 -15.6 46.65 -16.3 46.75 -16.7 46.85 -17.15 45.8 -16.7 45.05 -16.45 44.55 -16.35 43.85 -16.25 43.15 -16.2 Q39.9 -16.15 37.85 -19.25 37.25 -20.1 37.15 -21.25 36.95 -22.95 37.35 -24.25 38.05 -26.7 41.0 -27.55 L42.45 -27.95 49.0 -28.9 49.5 -29.2 50.65 -29.8 Q51.95 -30.75 53.25 -31.65 52.05 -31.9 50.85 -32.15 48.45 -33.05 46.9 -35.3 46.35 -36.05 45.95 -36.95 L45.1 -38.4 Q43.55 -40.75 42.95 -43.2 42.0 -47.15 43.55 -51.3 L43.75 -51.9 Q44.55 -53.85 45.95 -55.35 47.15 -56.65 46.95 -58.5 46.7 -60.7 47.0 -62.8 L47.25 -64.15 47.3 -64.3 Q46.6 -63.95 45.95 -63.6 43.5 -62.25 41.6 -60.15 L41.4 -59.2 Q41.05 -57.55 40.35 -56.2 38.2 -52.15 33.0 -50.75 L32.9 -50.75 32.35 -50.65 Q27.05 -49.5 25.75 -54.6 25.35 -56.0 25.35 -57.5 25.3 -61.05 25.65 -64.55 L25.85 -66.15 25.8 -66.25 Q22.15 -64.65 20.6 -61.15 L20.2 -59.45 Q19.3 -54.95 19.15 -50.25 19.1 -49.2 18.6 -48.25 17.5 -46.05 15.95 -44.8 13.7 -43.0 10.5 -43.2 L9.55 -43.25 Q5.7 -43.7 5.1 -47.35 4.7 -49.55 4.75 -51.85 L4.75 -51.95 4.85 -53.75 Q4.35 -53.55 4.0 -53.2 L1.25 -50.2 -0.9 -47.75 Q-2.3 -44.2 -2.1 -40.25 L-2.1 -39.85 Q-2.05 -39.1 -2.0 -38.35 -1.8 -35.0 -1.65 -31.65 -1.45 -27.9 -4.2 -25.45 L-4.4 -25.25 -5.1 -22.1 -5.4 -20.2"/>
    </path>
    <path d="M-18.8 -18.55 L-17.45 -20.25 -14.7 -22.65 -14.4 -22.85 Q-10.9 -24.95 -8.05 -27.7 -5.25 -30.45 -3.1 -33.85 -2.55 -34.7 -2.4 -35.7 L-2.3 -36.1 Q-1.5 -40.4 -0.65 -44.7 L0.25 -48.4 3.15 -51.9 Q3.4 -52.2 3.65 -52.55 L4.75 -54.25 4.75 -54.15 Q4.35 -51.4 4.35 -48.7 4.4 -44.9 5.3 -41.15 L5.6 -39.95 Q6.55 -36.35 10.05 -35.65 12.45 -35.5 14.85 -35.3 15.9 -35.45 17.0 -35.65 22.1 -37.0 24.55 -42.8 L25.2 -44.6 Q26.5 -48.5 26.5 -52.8 L26.5 -52.9 26.4 -55.0 Q26.1 -59.4 27.4 -62.75 28.05 -64.35 29.1 -65.7 31.8 -69.35 37.25 -71.15 L36.85 -70.6 36.75 -70.5 Q31.95 -66.8 32.25 -61.0 32.35 -59.3 32.8 -57.75 L33.15 -56.5 Q34.2 -53.6 36.3 -51.0 36.9 -50.2 37.75 -49.9 L37.95 -49.8 39.45 -49.75 Q41.9 -50.0 44.35 -50.25 46.3 -50.4 48.25 -50.55 50.5 -50.7 52.75 -50.85 L53.5 -50.9 Q51.25 -46.5 46.65 -45.05 43.5 -44.05 41.45 -41.95 L40.3 -40.5 Q39.8 -39.55 39.25 -38.6 38.05 -35.9 37.85 -32.8 37.8 -31.3 38.3 -30.3 39.1 -28.6 41.55 -28.3 L43.15 -28.1 44.05 -28.0 51.6 -27.5 50.4 -26.4 Q48.0 -24.6 45.6 -22.8 44.1 -21.85 43.05 -20.7 42.45 -19.8 41.8 -18.9 40.1 -15.9 40.85 -11.75 L40.55 -11.0 40.4 -10.25 40.35 -9.9 39.8 -9.1 39.1 -7.75 38.95 -7.25 38.85 -6.9 38.3 -6.1 37.5 -4.25 37.35 -3.9 37.1 -3.55 35.5 -1.6 35.35 -1.25 34.8 -0.75 33.1 0.6 32.3 1.2 30.2 2.85 26.95 4.95 21.9 7.75 Q10.7 7.9 -0.5 8.1 L-1.95 7.4 Q-9.05 3.95 -14.0 -2.05 L-15.75 -4.25 -16.1 -5.05 Q-18.8 -11.4 -18.8 -18.55 L-18.8 -18.55" fill="none" stroke="#000000" stroke-linecap="round" stroke-linejoin="round" stroke-opacity="0.0" stroke-width="1.0">
      <animate attributeName="stroke" dur="2s" repeatCount="indefinite" values="#000000;#000001"/>
      <animate attributeName="stroke-width" dur="2s" repeatCount="indefinite" values="0.0;0.0"/>
      <animate attributeName="fill-opacity" dur="2s" repeatCount="indefinite" values="0.0;0.0"/>
      <animate attributeName="d" dur="2s" repeatCount="indefinite" values="M-18.8 -18.55 L-17.45 -20.25 -14.7 -22.65 -14.4 -22.85 Q-10.9 -24.95 -8.05 -27.7 -5.25 -30.45 -3.1 -33.85 -2.55 -34.7 -2.4 -35.7 L-2.3 -36.1 Q-1.5 -40.4 -0.65 -44.7 L0.25 -48.4 3.15 -51.9 Q3.4 -52.2 3.65 -52.55 L4.75 -54.25 4.75 -54.15 Q4.35 -51.4 4.35 -48.7 4.4 -44.9 5.3 -41.15 L5.6 -39.95 Q6.55 -36.35 10.05 -35.65 12.45 -35.5 14.85 -35.3 15.9 -35.45 17.0 -35.65 22.1 -37.0 24.55 -42.8 L25.2 -44.6 Q26.5 -48.5 26.5 -52.8 L26.5 -52.9 26.4 -55.0 Q26.1 -59.4 27.4 -62.75 28.05 -64.35 29.1 -65.7 31.8 -69.35 37.25 -71.15 L36.85 -70.6 36.75 -70.5 Q31.95 -66.8 32.25 -61.0 32.35 -59.3 32.8 -57.75 L33.15 -56.5 Q34.2 -53.6 36.3 -51.0 36.9 -50.2 37.75 -49.9 L37.95 -49.8 39.45 -49.75 Q41.9 -50.0 44.35 -50.25 46.3 -50.4 48.25 -50.55 50.5 -50.7 52.75 -50.85 L53.5 -50.9 Q51.25 -46.5 46.65 -45.05 43.5 -44.05 41.45 -41.95 L40.3 -40.5 Q39.8 -39.55 39.25 -38.6 38.05 -35.9 37.85 -32.8 37.8 -31.3 38.3 -30.3 39.1 -28.6 41.55 -28.3 L43.15 -28.1 44.05 -28.0 51.6 -27.5 50.4 -26.4 Q48.0 -24.6 45.6 -22.8 44.1 -21.85 43.05 -20.7 42.45 -19.8 41.8 -18.9 40.1 -15.9 40.85 -11.75 L40.55 -11.0 40.4 -10.25 40.35 -9.9 39.8 -9.1 39.1 -7.75 38.95 -7.25 38.85 -6.9 38.3 -6.1 37.5 -4.25 37.35 -3.9 37.1 -3.55 35.5 -1.6 35.35 -1.25 34.8 -0.75 33.1 0.6 32.3 1.2 30.2 2.85 26.95 4.95 21.9 7.75 Q10.7 7.9 -0.5 8.1 L-1.95 7.4 Q-9.05 3.95 -14.0 -2.05 L-15.75 -4.25 -16.1 -5.05 Q-18.8 -11.4 -18.8 -18.55 L-18.8 -18.55;M-5.4 -20.2 L-5.1 -22.1 -4.4 -25.25 -4.2 -25.45 Q-1.45 -27.9 -1.65 -31.65 -1.8 -35.0 -2.0 -38.35 -2.05 -39.1 -2.1 -39.85 L-2.1 -40.25 Q-2.3 -44.2 -0.9 -47.75 L1.25 -50.2 4.0 -53.2 Q4.35 -53.55 4.85 -53.75 L4.75 -51.95 4.75 -51.85 Q4.7 -49.55 5.1 -47.35 5.7 -43.7 9.55 -43.25 L10.5 -43.2 Q13.7 -43.0 15.95 -44.8 17.5 -46.05 18.6 -48.25 19.1 -49.2 19.15 -50.25 19.3 -54.95 20.2 -59.45 L20.6 -61.15 Q22.15 -64.65 25.8 -66.25 L25.85 -66.15 25.65 -64.55 Q25.3 -61.05 25.35 -57.5 25.35 -56.0 25.75 -54.6 27.05 -49.5 32.35 -50.65 L32.9 -50.75 33.0 -50.75 Q38.2 -52.15 40.35 -56.2 41.05 -57.55 41.4 -59.2 L41.6 -60.15 Q43.5 -62.25 45.95 -63.6 46.6 -63.95 47.3 -64.3 L47.25 -64.15 47.0 -62.8 Q46.7 -60.7 46.95 -58.5 47.15 -56.65 45.95 -55.35 44.55 -53.85 43.75 -51.9 L43.55 -51.3 Q42.0 -47.15 42.95 -43.2 43.55 -40.75 45.1 -38.4 L45.95 -36.95 Q46.35 -36.05 46.9 -35.3 48.45 -33.05 50.85 -32.15 52.05 -31.9 53.25 -31.65 51.95 -30.75 50.65 -29.8 L49.5 -29.2 49.0 -28.9 42.45 -27.95 41.0 -27.55 Q38.05 -26.7 37.35 -24.25 36.95 -22.95 37.15 -21.25 37.25 -20.1 37.85 -19.25 39.9 -16.15 43.15 -16.2 L43.85 -16.25 44.55 -16.35 45.05 -16.45 45.8 -16.7 46.85 -17.15 46.75 -16.7 46.65 -16.3 46.5 -15.6 45.95 -13.95 45.75 -13.55 45.55 -13.05 44.25 -10.95 44.05 -10.65 43.65 -10.15 42.45 -8.9 41.75 -8.3 39.95 -6.85 37.35 -4.65 32.6 -2.7 Q23.5 0.5 13.35 -0.4 L11.75 -0.55 Q4.55 -1.4 0.3 -6.75 L-0.95 -8.55 -1.35 -9.3 Q-4.05 -14.55 -5.4 -20.1 L-5.4 -20.2"/>
    </path>
  </g>
  <defs>
    <radialGradient cx="0" cy="0" gradientTransform="matrix(0.0403, 0.0073, -0.0084, 0.0459, 8.15, -14.15)" gradientUnits="userSpaceOnUse" id="gradient0" r="819.2" spreadMethod="pad">
      <animateTransform additive="replace" attributeName="gradientTransform" dur="2s" from="1" repeatCount="indefinite" to="1" type="scale"/>
      <animateTransform additive="sum" attributeName="gradientTransform" dur="2s" from="8.15 -14.15" repeatCount="indefinite" to="8.15 -14.15" type="translate"/>
      <animateTransform additive="sum" attributeName="gradientTransform" dur="2s" from="10.3087" repeatCount="indefinite" to="10.3087" type="rotate"/>
      <animateTransform additive="sum" attributeName="gradientTransform" dur="2s" from="0.0409 0.0467" repeatCount="indefinite" to="0.0409 0.0467" type="scale"/>
      <animateTransform additive="sum" attributeName="gradientTransform" dur="2s" from="-0.0147" repeatCount="indefinite" to="-0.0147" type="skewX"/>
      <stop offset="0.0" stop-color="#fefe0c">
        <animate attributeName="offset" dur="2s" repeatCount="indefinite" values="0.0;0.0"/>
        <animate attributeName="stop-color" dur="2s" repeatCount="indefinite" values="#fefe0c;#fefe0d"/>
        <animate attributeName="stop-opacity" dur="2s" repeatCount="indefinite" values="1.0;1.0"/>
      </stop>
      <stop offset="0.5764705882352941" stop-color="#ffba2b">
        <animate attributeName="offset" dur="2s" repeatCount="indefinite" values="0.5764705882352941;0.5764705882352941"/>
        <animate attributeName="stop-color" dur="2s" repeatCount="indefinite" values="#ffba2b;#ffba2c"/>
        <animate attributeName="stop-opacity" dur="2s" repeatCount="indefinite" values="1.0;1.0"/>
      </stop>
      <stop offset="1.0" stop-color="#ff720b">
        <animate attributeName="offset" dur="2s" repeatCount="indefinite" values="1.0;1.0"/>
        <animate attributeName="stop-color" dur="2s" repeatCount="indefinite" values="#ff720b;#ff720c"/>
        <animate attributeName="stop-opacity" dur="2s" repeatCount="indefinite" values="1.0;1.0"/>
      </stop>
    </radialGradient>
  </defs>
</svg>
