<?xml version="1.0" encoding="UTF-8" standalone="no"?>
<svg xmlns:xlink="http://www.w3.org/1999/xlink" height="78.3px" width="73.55px" xmlns="http://www.w3.org/2000/svg">
  <g transform="matrix(1.0, 0.0, 0.0, 1.0, 20.6, 64.75)">
    <path d="M-19.2 -4.0 Q-19.0 -0.25 -16.6 2.8 L-16.25 3.5 -14.5 6.05 Q-11.85 9.1 -7.75 9.75 L-3.8 10.3 1.35 10.7 Q2.4 10.75 3.45 10.8 6.85 10.75 10.2 10.7 12.25 10.35 14.25 10.0 16.45 9.3 18.45 8.0 L18.55 7.9 20.75 6.55 Q21.65 5.95 22.75 5.8 L23.25 5.75 Q24.45 3.2 26.1 0.9 L27.15 -0.45 29.25 -3.65 29.55 -6.55 29.55 -6.75 29.55 -7.75 Q29.55 -12.6 27.7 -17.0 L26.8 -18.8 26.8 -18.9 Q26.4 -19.55 26.0 -20.2 25.3 -21.5 24.6 -22.8 L24.4 -23.2 23.25 -25.4 Q19.45 -29.6 14.75 -32.45 L13.75 -33.0 12.0 -33.95 Q10.2 -34.85 8.25 -35.55 7.6 -35.8 7.0 -36.15 4.05 -36.15 1.1 -36.15 L-3.4 -36.15 -7.15 -35.0 Q-11.6 -33.05 -14.35 -28.95 L-14.6 -28.55 Q-14.95 -28.0 -15.45 -27.55 L-15.85 -27.2 -17.4 -25.8 -18.2 -23.55 -19.15 -20.3 -19.25 -18.1 -19.3 -17.25 -19.35 -15.2 Q-19.4 -14.25 -19.4 -13.3 L-19.4 -10.0 Q-19.3 -7.0 -19.2 -4.0" fill="url(#gradient0)" fill-rule="evenodd" stroke="none">
      <animate attributeName="d" dur="2s" repeatCount="indefinite" values="M-19.2 -4.0 Q-19.0 -0.25 -16.6 2.8 L-16.25 3.5 -14.5 6.05 Q-11.85 9.1 -7.75 9.75 L-3.8 10.3 1.35 10.7 Q2.4 10.75 3.45 10.8 6.85 10.75 10.2 10.7 12.25 10.35 14.25 10.0 16.45 9.3 18.45 8.0 L18.55 7.9 20.75 6.55 Q21.65 5.95 22.75 5.8 L23.25 5.75 Q24.45 3.2 26.1 0.9 L27.15 -0.45 29.25 -3.65 29.55 -6.55 29.55 -6.75 29.55 -7.75 Q29.55 -12.6 27.7 -17.0 L26.8 -18.8 26.8 -18.9 Q26.4 -19.55 26.0 -20.2 25.3 -21.5 24.6 -22.8 L24.4 -23.2 23.25 -25.4 Q19.45 -29.6 14.75 -32.45 L13.75 -33.0 12.0 -33.95 Q10.2 -34.85 8.25 -35.55 7.6 -35.8 7.0 -36.15 4.05 -36.15 1.1 -36.15 L-3.4 -36.15 -7.15 -35.0 Q-11.6 -33.05 -14.35 -28.95 L-14.6 -28.55 Q-14.95 -28.0 -15.45 -27.55 L-15.85 -27.2 -17.4 -25.8 -18.2 -23.55 -19.15 -20.3 -19.25 -18.1 -19.3 -17.25 -19.35 -15.2 Q-19.4 -14.25 -19.4 -13.3 L-19.4 -10.0 Q-19.3 -7.0 -19.2 -4.0;M-20.55 -6.35 Q-20.25 -0.3 -17.05 4.1 L-16.35 5.0 -13.05 8.15 Q-8.3 11.75 -2.5 12.95 L3.0 13.55 10.85 12.85 Q11.8 11.6 13.4 10.65 18.0 7.95 20.95 3.8 22.75 1.3 23.95 -1.7 25.25 -5.05 28.25 -7.3 L28.35 -7.4 31.95 -9.95 Q33.4 -10.9 34.8 -11.8 L35.4 -12.2 Q39.1 -14.25 42.75 -16.25 L44.85 -18.0 49.3 -22.25 52.4 -25.55 52.45 -25.7 52.95 -27.2 Q52.95 -34.4 52.55 -41.45 L52.35 -44.55 52.35 -45.15 Q51.6 -45.9 51.3 -47.0 50.7 -49.1 49.2 -50.85 L48.85 -51.5 46.3 -54.25 Q40.25 -60.2 32.05 -63.3 L30.25 -64.0 27.5 -64.75 Q24.5 -64.5 21.5 -64.3 20.55 -64.1 19.65 -63.95 15.25 -63.0 11.35 -60.95 L6.15 -56.55 1.6 -52.35 Q1.4 -45.0 -0.1 -38.0 L-0.25 -37.4 Q-0.5 -36.55 -1.0 -35.8 L-1.55 -35.0 -4.0 -32.25 -6.6 -29.75 -10.35 -26.65 -12.6 -25.1 -13.75 -24.25 -16.25 -22.15 Q-16.6 -20.7 -17.45 -19.45 L-20.15 -15.3 Q-20.8 -10.9 -20.55 -6.35"/>
    </path>
    <path d="M-19.2 -4.0 Q-19.3 -7.0 -19.4 -10.0 L-19.4 -13.3 Q-19.4 -14.25 -19.35 -15.2 L-19.3 -17.25 -19.25 -18.1 -19.15 -20.3 -18.2 -23.55 -17.4 -25.8 -15.85 -27.2 -15.45 -27.55 Q-14.95 -28.0 -14.6 -28.55 L-14.35 -28.95 Q-11.6 -33.05 -7.15 -35.0 L-3.4 -36.15 1.1 -36.15 Q4.05 -36.15 7.0 -36.15 7.6 -35.8 8.25 -35.55 10.2 -34.85 12.0 -33.95 L13.75 -33.0 14.75 -32.45 Q19.45 -29.6 23.25 -25.4 L24.4 -23.2 24.6 -22.8 Q25.3 -21.5 26.0 -20.2 26.4 -19.55 26.8 -18.9 L26.8 -18.8 27.7 -17.0 Q29.55 -12.6 29.55 -7.75 L29.55 -6.75 29.55 -6.55 29.25 -3.65 27.15 -0.45 26.1 0.9 Q24.45 3.2 23.25 5.75 L22.75 5.8 Q21.65 5.95 20.75 6.55 L18.55 7.9 18.45 8.0 Q16.45 9.3 14.25 10.0 12.25 10.35 10.2 10.7 6.85 10.75 3.45 10.8 2.4 10.75 1.35 10.7 L-3.8 10.3 -7.75 9.75 Q-11.85 9.1 -14.5 6.05 L-16.25 3.5 -16.6 2.8 Q-19.0 -0.25 -19.2 -4.0" fill="none" stroke="#000000" stroke-linecap="round" stroke-linejoin="round" stroke-opacity="0.0" stroke-width="1.0">
      <animate attributeName="stroke" dur="2s" repeatCount="indefinite" values="#000000;#000001"/>
      <animate attributeName="stroke-width" dur="2s" repeatCount="indefinite" values="0.0;0.0"/>
      <animate attributeName="fill-opacity" dur="2s" repeatCount="indefinite" values="0.0;0.0"/>
      <animate attributeName="d" dur="2s" repeatCount="indefinite" values="M-19.2 -4.0 Q-19.3 -7.0 -19.4 -10.0 L-19.4 -13.3 Q-19.4 -14.25 -19.35 -15.2 L-19.3 -17.25 -19.25 -18.1 -19.15 -20.3 -18.2 -23.55 -17.4 -25.8 -15.85 -27.2 -15.45 -27.55 Q-14.95 -28.0 -14.6 -28.55 L-14.35 -28.95 Q-11.6 -33.05 -7.15 -35.0 L-3.4 -36.15 1.1 -36.15 Q4.05 -36.15 7.0 -36.15 7.6 -35.8 8.25 -35.55 10.2 -34.85 12.0 -33.95 L13.75 -33.0 14.75 -32.45 Q19.45 -29.6 23.25 -25.4 L24.4 -23.2 24.6 -22.8 Q25.3 -21.5 26.0 -20.2 26.4 -19.55 26.8 -18.9 L26.8 -18.8 27.7 -17.0 Q29.55 -12.6 29.55 -7.75 L29.55 -6.75 29.55 -6.55 29.25 -3.65 27.15 -0.45 26.1 0.9 Q24.45 3.2 23.25 5.75 L22.75 5.8 Q21.65 5.95 20.75 6.55 L18.55 7.9 18.45 8.0 Q16.45 9.3 14.25 10.0 12.25 10.35 10.2 10.7 6.85 10.75 3.45 10.8 2.4 10.75 1.35 10.7 L-3.8 10.3 -7.75 9.75 Q-11.85 9.1 -14.5 6.05 L-16.25 3.5 -16.6 2.8 Q-19.0 -0.25 -19.2 -4.0;M-20.55 -6.35 Q-20.8 -10.9 -20.15 -15.3 L-17.45 -19.45 Q-16.6 -20.7 -16.25 -22.15 L-13.75 -24.25 -12.6 -25.1 -10.35 -26.65 -6.6 -29.75 -4.0 -32.25 -1.55 -35.0 -1.0 -35.8 Q-0.5 -36.55 -0.25 -37.4 L-0.1 -38.0 Q1.4 -45.0 1.6 -52.35 L6.15 -56.55 11.35 -60.95 Q15.25 -63.0 19.65 -63.95 20.55 -64.1 21.5 -64.3 24.5 -64.5 27.5 -64.75 L30.25 -64.0 32.05 -63.3 Q40.25 -60.2 46.3 -54.25 L48.85 -51.5 49.2 -50.85 Q50.7 -49.1 51.3 -47.0 51.6 -45.9 52.35 -45.15 L52.35 -44.55 52.55 -41.45 Q52.95 -34.4 52.95 -27.2 L52.45 -25.7 52.4 -25.55 49.3 -22.25 44.85 -18.0 42.75 -16.25 Q39.1 -14.25 35.4 -12.2 L34.8 -11.8 Q33.4 -10.9 31.95 -9.95 L28.35 -7.4 28.25 -7.3 Q25.25 -5.05 23.95 -1.7 22.75 1.3 20.95 3.8 18.0 7.95 13.4 10.65 11.8 11.6 10.85 12.85 L3.0 13.55 -2.5 12.95 Q-8.3 11.75 -13.05 8.15 L-16.35 5.0 -17.05 4.1 Q-20.25 -0.3 -20.55 -6.35"/>
    </path>
  </g>
  <defs>
    <radialGradient cx="0" cy="0" gradientTransform="matrix(0.0403, 0.0073, -0.0084, 0.0459, 8.15, -14.15)" gradientUnits="userSpaceOnUse" id="gradient0" r="819.2" spreadMethod="pad">
      <animateTransform additive="replace" attributeName="gradientTransform" dur="2s" from="1" repeatCount="indefinite" to="1" type="scale"/>
      <animateTransform additive="sum" attributeName="gradientTransform" dur="2s" from="8.15 -14.15" repeatCount="indefinite" to="8.15 -14.15" type="translate"/>
      <animateTransform additive="sum" attributeName="gradientTransform" dur="2s" from="10.3087" repeatCount="indefinite" to="10.3087" type="rotate"/>
      <animateTransform additive="sum" attributeName="gradientTransform" dur="2s" from="0.0409 0.0467" repeatCount="indefinite" to="0.0409 0.0467" type="scale"/>
      <animateTransform additive="sum" attributeName="gradientTransform" dur="2s" from="-0.0147" repeatCount="indefinite" to="-0.0147" type="skewX"/>
      <stop offset="0.0" stop-color="#a7a7a7">
        <animate attributeName="offset" dur="2s" repeatCount="indefinite" values="0.0;0.0"/>
        <animate attributeName="stop-color" dur="2s" repeatCount="indefinite" values="#a7a7a7;#a7a7a8"/>
        <animate attributeName="stop-opacity" dur="2s" repeatCount="indefinite" values="1.0;1.0"/>
      </stop>
      <stop offset="0.5764705882352941" stop-color="#777777">
        <animate attributeName="offset" dur="2s" repeatCount="indefinite" values="0.5764705882352941;0.5764705882352941"/>
        <animate attributeName="stop-color" dur="2s" repeatCount="indefinite" values="#777777;#777778"/>
        <animate attributeName="stop-opacity" dur="2s" repeatCount="indefinite" values="1.0;1.0"/>
      </stop>
      <stop offset="1.0" stop-color="#000000">
        <animate attributeName="offset" dur="2s" repeatCount="indefinite" values="1.0;1.0"/>
        <animate attributeName="stop-color" dur="2s" repeatCount="indefinite" values="#000000;#000001"/>
        <animate attributeName="stop-opacity" dur="2s" repeatCount="indefinite" values="1.0;1.0"/>
      </stop>
    </radialGradient>
  </defs>
</svg>
