<?xml version="1.0" encoding="UTF-8" standalone="no"?>
<svg xmlns:xlink="http://www.w3.org/1999/xlink" height="67.55px" width="59.65px" xmlns="http://www.w3.org/2000/svg">
  <g transform="matrix(1.0, 0.0, 0.0, 1.0, 5.4, 67.75)">
    <path d="M-5.4 -20.2 L-5.4 -20.2 Q-4.05 -14.6 -1.35 -9.3 L0.3 -6.75 2.45 -4.5 Q4.7 -2.55 7.55 -1.55 L8.9 -1.1 11.75 -0.55 Q23.9 0.85 34.65 -3.45 L37.35 -4.65 41.75 -8.3 Q45.5 -11.5 46.6 -15.85 L46.85 -17.15 Q41.1 -14.6 37.95 -19.05 L37.85 -19.25 Q37.25 -20.1 37.15 -21.25 36.55 -25.7 40.05 -27.2 L41.0 -27.55 45.75 -28.6 49.0 -28.9 49.5 -29.2 49.95 -29.4 Q51.7 -30.35 53.25 -31.65 50.95 -31.85 49.25 -33.0 48.2 -33.7 47.35 -34.7 46.55 -35.65 45.95 -36.95 L45.1 -38.4 Q42.15 -42.85 42.65 -47.7 42.9 -48.95 43.1 -50.15 L43.55 -51.5 43.75 -51.9 44.05 -52.6 44.7 -53.75 45.95 -55.35 Q47.15 -56.65 46.95 -58.5 46.6 -61.4 47.25 -64.15 L47.3 -64.3 46.25 -63.75 Q43.65 -62.4 41.6 -60.15 41.0 -56.35 38.75 -54.0 37.7 -52.9 36.3 -52.1 34.8 -51.25 32.9 -50.75 L32.5 -50.65 31.05 -50.45 Q26.85 -50.15 25.75 -54.6 25.35 -56.0 25.35 -57.5 25.4 -59.55 25.45 -61.55 25.65 -63.85 25.85 -66.15 L25.8 -66.25 Q22.15 -64.65 20.6 -61.15 L20.15 -59.15 Q19.4 -55.2 19.15 -51.05 L19.15 -50.25 Q19.1 -49.2 18.6 -48.25 15.7 -42.45 9.55 -43.25 L9.55 -43.25 Q7.1 -43.55 5.95 -45.1 5.3 -46.0 5.1 -47.35 L4.95 -48.25 Q4.6 -50.9 4.85 -53.75 4.35 -53.55 4.0 -53.2 2.4 -51.45 0.8 -49.7 0.15 -48.9 -0.5 -48.15 L-0.9 -47.75 Q-2.3 -44.2 -2.1 -40.25 -1.9 -37.1 -1.75 -33.95 L-1.75 -33.15 -1.65 -31.65 Q-1.55 -30.2 -1.9 -28.95 -2.5 -26.95 -4.2 -25.45 L-4.4 -25.25 -4.4 -25.15 Q-4.75 -23.55 -5.1 -22.0 L-5.4 -20.2" fill="url(#gradient0)" fill-rule="evenodd" stroke="none">
      <animate attributeName="d" dur="2s" repeatCount="indefinite" values="M-5.4 -20.2 L-5.4 -20.2 Q-4.05 -14.6 -1.35 -9.3 L0.3 -6.75 2.45 -4.5 Q4.7 -2.55 7.55 -1.55 L8.9 -1.1 11.75 -0.55 Q23.9 0.85 34.65 -3.45 L37.35 -4.65 41.75 -8.3 Q45.5 -11.5 46.6 -15.85 L46.85 -17.15 Q41.1 -14.6 37.95 -19.05 L37.85 -19.25 Q37.25 -20.1 37.15 -21.25 36.55 -25.7 40.05 -27.2 L41.0 -27.55 45.75 -28.6 49.0 -28.9 49.5 -29.2 49.95 -29.4 Q51.7 -30.35 53.25 -31.65 50.95 -31.85 49.25 -33.0 48.2 -33.7 47.35 -34.7 46.55 -35.65 45.95 -36.95 L45.1 -38.4 Q42.15 -42.85 42.65 -47.7 42.9 -48.95 43.1 -50.15 L43.55 -51.5 43.75 -51.9 44.05 -52.6 44.7 -53.75 45.95 -55.35 Q47.15 -56.65 46.95 -58.5 46.6 -61.4 47.25 -64.15 L47.3 -64.3 46.25 -63.75 Q43.65 -62.4 41.6 -60.15 41.0 -56.35 38.75 -54.0 37.7 -52.9 36.3 -52.1 34.8 -51.25 32.9 -50.75 L32.5 -50.65 31.05 -50.45 Q26.85 -50.15 25.75 -54.6 25.35 -56.0 25.35 -57.5 25.4 -59.55 25.45 -61.55 25.65 -63.85 25.85 -66.15 L25.8 -66.25 Q22.15 -64.65 20.6 -61.15 L20.15 -59.15 Q19.4 -55.2 19.15 -51.05 L19.15 -50.25 Q19.1 -49.2 18.6 -48.25 15.7 -42.45 9.55 -43.25 L9.55 -43.25 Q7.1 -43.55 5.95 -45.1 5.3 -46.0 5.1 -47.35 L4.95 -48.25 Q4.6 -50.9 4.85 -53.75 4.35 -53.55 4.0 -53.2 2.4 -51.45 0.8 -49.7 0.15 -48.9 -0.5 -48.15 L-0.9 -47.75 Q-2.3 -44.2 -2.1 -40.25 -1.9 -37.1 -1.75 -33.95 L-1.75 -33.15 -1.65 -31.65 Q-1.55 -30.2 -1.9 -28.95 -2.5 -26.95 -4.2 -25.45 L-4.4 -25.25 -4.4 -25.15 Q-4.75 -23.55 -5.1 -22.0 L-5.4 -20.2;M5.6 -52.75 L5.6 -52.45 Q5.5 -47.85 5.8 -43.35 L6.0 -41.05 6.25 -38.55 Q6.5 -36.2 7.8 -34.25 L8.1 -33.25 9.2 -31.3 Q13.95 -23.45 22.9 -21.1 L25.3 -20.55 29.6 -19.85 Q33.05 -19.75 36.45 -19.65 L37.45 -19.7 Q41.3 -20.1 44.6 -22.05 L44.6 -22.05 Q45.25 -22.45 45.9 -22.8 48.2 -24.05 50.5 -25.25 L51.0 -25.75 53.3 -28.3 53.9 -30.75 54.0 -31.35 54.1 -31.75 Q52.4 -31.7 50.85 -32.2 49.35 -32.7 48.0 -33.7 47.2 -34.3 47.05 -35.25 46.95 -36.25 46.85 -37.25 L46.95 -38.5 Q47.55 -41.95 51.55 -43.85 52.35 -44.25 52.85 -45.1 L53.75 -46.15 53.75 -46.45 53.85 -46.9 54.25 -48.0 52.8 -48.05 Q51.35 -48.2 50.15 -48.8 48.4 -49.7 47.05 -51.55 L46.95 -51.65 46.45 -52.4 Q45.2 -54.4 44.8 -56.65 44.4 -59.1 45.05 -61.85 45.35 -63.0 46.35 -63.75 46.5 -65.35 47.85 -66.25 L48.2 -66.45 49.25 -67.15 Q46.5 -67.0 43.8 -66.9 42.75 -66.35 41.75 -65.8 40.6 -65.0 39.6 -63.75 40.0 -61.85 39.8 -60.25 L39.8 -60.15 Q39.4 -57.35 37.15 -55.5 L35.95 -54.65 Q33.3 -53.1 30.05 -54.15 L29.95 -54.15 Q29.15 -54.45 28.4 -54.85 24.55 -56.9 25.0 -62.05 L25.0 -62.15 Q25.0 -63.65 25.0 -65.15 24.9 -66.1 24.85 -67.05 L24.85 -67.75 Q23.1 -66.45 22.25 -64.55 22.1 -64.25 22.0 -64.0 21.4 -62.5 21.3 -60.65 21.25 -59.8 20.5 -59.1 L20.15 -58.8 Q17.25 -56.2 14.75 -57.05 12.95 -57.7 11.3 -60.1 L11.0 -60.65 10.2 -60.05 Q9.5 -59.45 8.85 -58.85 7.95 -57.65 7.1 -56.5 L7.1 -56.25 7.1 -56.15 Q7.2 -54.9 6.6 -53.9 L5.6 -52.75"/>
    </path>
    <path d="M-5.4 -20.2 L-5.1 -22.0 Q-4.75 -23.55 -4.4 -25.15 L-4.4 -25.25 -4.2 -25.45 Q-2.5 -26.95 -1.9 -28.95 -1.55 -30.2 -1.65 -31.65 L-1.75 -33.15 -1.75 -33.95 Q-1.9 -37.1 -2.1 -40.25 -2.3 -44.2 -0.9 -47.75 L-0.5 -48.15 Q0.15 -48.9 0.8 -49.7 2.4 -51.45 4.0 -53.2 4.35 -53.55 4.85 -53.75 4.6 -50.9 4.95 -48.25 L5.1 -47.35 Q5.3 -46.0 5.95 -45.1 7.1 -43.55 9.55 -43.25 L9.55 -43.25 Q15.7 -42.45 18.6 -48.25 19.1 -49.2 19.15 -50.25 L19.15 -51.05 Q19.4 -55.2 20.15 -59.15 L20.6 -61.15 Q22.15 -64.65 25.8 -66.25 L25.85 -66.15 Q25.65 -63.85 25.45 -61.55 25.4 -59.55 25.35 -57.5 25.35 -56.0 25.75 -54.6 26.85 -50.15 31.05 -50.45 L32.5 -50.65 32.9 -50.75 Q34.8 -51.25 36.3 -52.1 37.7 -52.9 38.75 -54.0 41.0 -56.35 41.6 -60.15 43.65 -62.4 46.25 -63.75 L47.3 -64.3 47.25 -64.15 Q46.6 -61.4 46.95 -58.5 47.15 -56.65 45.95 -55.35 L44.7 -53.75 44.05 -52.6 43.75 -51.9 43.55 -51.5 43.1 -50.15 Q42.9 -48.95 42.65 -47.7 42.15 -42.85 45.1 -38.4 L45.95 -36.95 Q46.55 -35.65 47.35 -34.7 48.2 -33.7 49.25 -33.0 50.95 -31.85 53.25 -31.65 51.7 -30.35 49.95 -29.4 L49.5 -29.2 49.0 -28.9 45.75 -28.6 41.0 -27.55 40.05 -27.2 Q36.55 -25.7 37.15 -21.25 37.25 -20.1 37.85 -19.25 L37.95 -19.05 Q41.1 -14.6 46.85 -17.15 L46.6 -15.85 Q45.5 -11.5 41.75 -8.3 L37.35 -4.65 34.65 -3.45 Q23.9 0.85 11.75 -0.55 L8.9 -1.1 7.55 -1.55 Q4.7 -2.55 2.45 -4.5 L0.3 -6.75 -1.35 -9.3 Q-4.05 -14.6 -5.4 -20.2 L-5.4 -20.2" fill="none" stroke="#000000" stroke-linecap="round" stroke-linejoin="round" stroke-opacity="0.0" stroke-width="1.0">
      <animate attributeName="stroke" dur="2s" repeatCount="indefinite" values="#000000;#000001"/>
      <animate attributeName="stroke-width" dur="2s" repeatCount="indefinite" values="0.0;0.0"/>
      <animate attributeName="fill-opacity" dur="2s" repeatCount="indefinite" values="0.0;0.0"/>
      <animate attributeName="d" dur="2s" repeatCount="indefinite" values="M-5.4 -20.2 L-5.1 -22.0 Q-4.75 -23.55 -4.4 -25.15 L-4.4 -25.25 -4.2 -25.45 Q-2.5 -26.95 -1.9 -28.95 -1.55 -30.2 -1.65 -31.65 L-1.75 -33.15 -1.75 -33.95 Q-1.9 -37.1 -2.1 -40.25 -2.3 -44.2 -0.9 -47.75 L-0.5 -48.15 Q0.15 -48.9 0.8 -49.7 2.4 -51.45 4.0 -53.2 4.35 -53.55 4.85 -53.75 4.6 -50.9 4.95 -48.25 L5.1 -47.35 Q5.3 -46.0 5.95 -45.1 7.1 -43.55 9.55 -43.25 L9.55 -43.25 Q15.7 -42.45 18.6 -48.25 19.1 -49.2 19.15 -50.25 L19.15 -51.05 Q19.4 -55.2 20.15 -59.15 L20.6 -61.15 Q22.15 -64.65 25.8 -66.25 L25.85 -66.15 Q25.65 -63.85 25.45 -61.55 25.4 -59.55 25.35 -57.5 25.35 -56.0 25.75 -54.6 26.85 -50.15 31.05 -50.45 L32.5 -50.65 32.9 -50.75 Q34.8 -51.25 36.3 -52.1 37.7 -52.9 38.75 -54.0 41.0 -56.35 41.6 -60.15 43.65 -62.4 46.25 -63.75 L47.3 -64.3 47.25 -64.15 Q46.6 -61.4 46.95 -58.5 47.15 -56.65 45.95 -55.35 L44.7 -53.75 44.05 -52.6 43.75 -51.9 43.55 -51.5 43.1 -50.15 Q42.9 -48.95 42.65 -47.7 42.15 -42.85 45.1 -38.4 L45.95 -36.95 Q46.55 -35.65 47.35 -34.7 48.2 -33.7 49.25 -33.0 50.95 -31.85 53.25 -31.65 51.7 -30.35 49.95 -29.4 L49.5 -29.2 49.0 -28.9 45.75 -28.6 41.0 -27.55 40.05 -27.2 Q36.55 -25.7 37.15 -21.25 37.25 -20.1 37.85 -19.25 L37.95 -19.05 Q41.1 -14.6 46.85 -17.15 L46.6 -15.85 Q45.5 -11.5 41.75 -8.3 L37.35 -4.65 34.65 -3.45 Q23.9 0.85 11.75 -0.55 L8.9 -1.1 7.55 -1.55 Q4.7 -2.55 2.45 -4.5 L0.3 -6.75 -1.35 -9.3 Q-4.05 -14.6 -5.4 -20.2 L-5.4 -20.2;M5.6 -52.75 L6.6 -53.9 Q7.2 -54.9 7.1 -56.15 L7.1 -56.25 7.1 -56.5 Q7.95 -57.65 8.85 -58.85 9.5 -59.45 10.2 -60.05 L11.0 -60.65 11.3 -60.1 Q12.95 -57.7 14.75 -57.05 17.25 -56.2 20.15 -58.8 L20.5 -59.1 Q21.25 -59.8 21.3 -60.65 21.4 -62.5 22.0 -64.0 22.1 -64.25 22.25 -64.55 23.1 -66.45 24.85 -67.75 L24.85 -67.05 Q24.9 -66.1 25.0 -65.15 25.0 -63.65 25.0 -62.15 L25.0 -62.05 Q24.55 -56.9 28.4 -54.85 29.15 -54.45 29.95 -54.15 L30.05 -54.15 Q33.3 -53.1 35.95 -54.65 L37.15 -55.5 Q39.4 -57.35 39.8 -60.15 L39.8 -60.25 Q40.0 -61.85 39.6 -63.75 40.6 -65.0 41.75 -65.8 42.75 -66.35 43.8 -66.9 46.5 -67.0 49.25 -67.15 L48.2 -66.45 47.85 -66.25 Q46.5 -65.35 46.35 -63.75 45.35 -63.0 45.05 -61.85 44.4 -59.1 44.8 -56.65 45.2 -54.4 46.45 -52.4 L46.95 -51.65 47.05 -51.55 Q48.4 -49.7 50.15 -48.8 51.35 -48.2 52.8 -48.05 L54.25 -48.0 53.85 -46.9 53.75 -46.45 53.75 -46.15 52.85 -45.1 Q52.35 -44.25 51.55 -43.85 47.55 -41.95 46.95 -38.5 L46.85 -37.25 Q46.95 -36.25 47.05 -35.25 47.2 -34.3 48.0 -33.7 49.35 -32.7 50.85 -32.2 52.4 -31.7 54.1 -31.75 L54.0 -31.35 53.9 -30.75 53.3 -28.3 51.0 -25.75 50.5 -25.25 Q48.2 -24.05 45.9 -22.8 45.25 -22.45 44.6 -22.05 L44.6 -22.05 Q41.3 -20.1 37.45 -19.7 L36.45 -19.65 Q33.05 -19.75 29.6 -19.85 L25.3 -20.55 22.9 -21.1 Q13.95 -23.45 9.2 -31.3 L8.1 -33.25 7.8 -34.25 Q6.5 -36.2 6.25 -38.55 L6.0 -41.05 5.8 -43.35 Q5.5 -47.85 5.6 -52.45 L5.6 -52.75"/>
    </path>
  </g>
  <defs>
    <radialGradient cx="0" cy="0" gradientTransform="matrix(0.0403, 0.0073, -0.0084, 0.0459, 8.15, -14.15)" gradientUnits="userSpaceOnUse" id="gradient0" r="819.2" spreadMethod="pad">
      <animateTransform additive="replace" attributeName="gradientTransform" dur="2s" from="1" repeatCount="indefinite" to="1" type="scale"/>
      <animateTransform additive="sum" attributeName="gradientTransform" dur="2s" from="8.15 -14.15" repeatCount="indefinite" to="8.15 -14.15" type="translate"/>
      <animateTransform additive="sum" attributeName="gradientTransform" dur="2s" from="10.3087" repeatCount="indefinite" to="10.3087" type="rotate"/>
      <animateTransform additive="sum" attributeName="gradientTransform" dur="2s" from="0.0409 0.0467" repeatCount="indefinite" to="0.0409 0.0467" type="scale"/>
      <animateTransform additive="sum" attributeName="gradientTransform" dur="2s" from="-0.0147" repeatCount="indefinite" to="-0.0147" type="skewX"/>
      <stop offset="0.0" stop-color="#fefe0c">
        <animate attributeName="offset" dur="2s" repeatCount="indefinite" values="0.0;0.0"/>
        <animate attributeName="stop-color" dur="2s" repeatCount="indefinite" values="#fefe0c;#fefe0d"/>
        <animate attributeName="stop-opacity" dur="2s" repeatCount="indefinite" values="1.0;1.0"/>
      </stop>
      <stop offset="0.5764705882352941" stop-color="#ffba2b">
        <animate attributeName="offset" dur="2s" repeatCount="indefinite" values="0.5764705882352941;0.5764705882352941"/>
        <animate attributeName="stop-color" dur="2s" repeatCount="indefinite" values="#ffba2b;#ffba2c"/>
        <animate attributeName="stop-opacity" dur="2s" repeatCount="indefinite" values="1.0;1.0"/>
      </stop>
      <stop offset="1.0" stop-color="#ff720b">
        <animate attributeName="offset" dur="2s" repeatCount="indefinite" values="1.0;1.0"/>
        <animate attributeName="stop-color" dur="2s" repeatCount="indefinite" values="#ff720b;#ff720c"/>
        <animate attributeName="stop-opacity" dur="2s" repeatCount="indefinite" values="1.0;1.0"/>
      </stop>
    </radialGradient>
  </defs>
</svg>
