<?xml version="1.0" encoding="UTF-8" standalone="no"?>
<svg xmlns:xlink="http://www.w3.org/1999/xlink" height="86.75px" width="75.65px" xmlns="http://www.w3.org/2000/svg">
  <g transform="matrix(1.0, 0.0, 0.0, 1.0, 20.6, 73.2)">
    <path d="M-20.55 -6.35 L-20.55 -6.35 -20.4 -4.8 Q-19.45 3.2 -13.2 8.05 L-13.05 8.15 Q-6.95 12.75 0.85 13.45 L3.0 13.55 7.2 13.4 Q9.05 13.1 10.85 12.85 L11.15 12.5 12.25 11.45 13.4 10.65 15.15 9.5 Q20.0 6.15 22.75 0.9 23.35 -0.4 23.95 -1.7 24.55 -3.2 25.5 -4.5 26.65 -6.1 28.35 -7.4 29.85 -8.45 31.3 -9.5 L34.8 -11.8 Q37.25 -13.35 39.8 -14.7 41.3 -15.5 42.75 -16.25 L43.95 -17.25 45.8 -18.9 Q49.35 -22.05 52.4 -25.55 L52.45 -25.7 52.65 -26.2 52.95 -27.2 Q52.9 -30.2 52.9 -33.2 L52.75 -37.75 52.65 -39.05 52.65 -39.25 52.65 -39.85 Q52.5 -42.5 52.35 -45.15 51.6 -45.9 51.3 -47.0 50.7 -49.1 49.2 -50.85 L49.1 -50.95 48.85 -51.5 47.45 -53.05 Q42.65 -58.2 36.4 -61.35 L32.05 -63.3 30.25 -64.0 27.5 -64.75 Q24.7 -64.55 21.95 -64.35 16.2 -63.5 11.35 -60.95 L9.25 -59.2 2.5 -53.25 1.6 -52.35 1.6 -52.15 1.45 -49.3 1.25 -47.0 1.0 -44.35 0.8 -43.05 Q0.35 -40.5 -0.1 -38.0 -0.45 -36.35 -1.55 -35.0 L-3.95 -32.3 Q-6.95 -29.15 -10.45 -26.55 -11.55 -25.8 -12.6 -25.1 L-13.75 -24.25 -13.75 -24.25 -16.25 -22.15 Q-16.6 -20.7 -17.45 -19.45 L-18.65 -17.6 -19.25 -16.75 -20.15 -15.3 Q-20.4 -12.35 -20.6 -9.45 -20.55 -8.3 -20.55 -7.15 L-20.55 -6.35" fill="url(#gradient0)" fill-rule="evenodd" stroke="none">
      <animate attributeName="d" dur="2s" repeatCount="indefinite" values="M-20.55 -6.35 L-20.55 -6.35 -20.4 -4.8 Q-19.45 3.2 -13.2 8.05 L-13.05 8.15 Q-6.95 12.75 0.85 13.45 L3.0 13.55 7.2 13.4 Q9.05 13.1 10.85 12.85 L11.15 12.5 12.25 11.45 13.4 10.65 15.15 9.5 Q20.0 6.15 22.75 0.9 23.35 -0.4 23.95 -1.7 24.55 -3.2 25.5 -4.5 26.65 -6.1 28.35 -7.4 29.85 -8.45 31.3 -9.5 L34.8 -11.8 Q37.25 -13.35 39.8 -14.7 41.3 -15.5 42.75 -16.25 L43.95 -17.25 45.8 -18.9 Q49.35 -22.05 52.4 -25.55 L52.45 -25.7 52.65 -26.2 52.95 -27.2 Q52.9 -30.2 52.9 -33.2 L52.75 -37.75 52.65 -39.05 52.65 -39.25 52.65 -39.85 Q52.5 -42.5 52.35 -45.15 51.6 -45.9 51.3 -47.0 50.7 -49.1 49.2 -50.85 L49.1 -50.95 48.85 -51.5 47.45 -53.05 Q42.65 -58.2 36.4 -61.35 L32.05 -63.3 30.25 -64.0 27.5 -64.75 Q24.7 -64.55 21.95 -64.35 16.2 -63.5 11.35 -60.95 L9.25 -59.2 2.5 -53.25 1.6 -52.35 1.6 -52.15 1.45 -49.3 1.25 -47.0 1.0 -44.35 0.8 -43.05 Q0.35 -40.5 -0.1 -38.0 -0.45 -36.35 -1.55 -35.0 L-3.95 -32.3 Q-6.95 -29.15 -10.45 -26.55 -11.55 -25.8 -12.6 -25.1 L-13.75 -24.25 -13.75 -24.25 -16.25 -22.15 Q-16.6 -20.7 -17.45 -19.45 L-18.65 -17.6 -19.25 -16.75 -20.15 -15.3 Q-20.4 -12.35 -20.6 -9.45 -20.55 -8.3 -20.55 -7.15 L-20.55 -6.35;M-20.6 -8.45 L-20.6 -8.35 -20.55 -6.35 Q-20.05 2.85 -13.05 8.15 L-12.85 8.25 Q-6.0 13.4 3.0 13.55 L5.45 13.55 10.15 13.0 Q11.2 11.4 12.6 10.0 L13.1 9.5 14.15 8.3 15.15 7.0 16.75 5.25 Q16.95 -1.3 16.5 -7.85 16.35 -9.7 16.9 -11.25 17.5 -12.9 18.9 -14.25 20.65 -15.95 22.75 -16.9 24.55 -17.7 26.6 -18.0 L31.2 -18.6 Q34.45 -18.95 37.7 -19.3 39.6 -19.45 41.4 -20.05 L42.9 -20.6 45.6 -21.75 Q51.0 -23.95 52.55 -29.2 L52.65 -29.4 52.8 -30.0 53.05 -31.1 Q53.85 -34.45 54.95 -37.65 L55.05 -42.7 55.0 -44.1 54.95 -44.3 54.85 -45.0 Q53.7 -47.75 53.3 -50.6 53.2 -51.75 53.1 -52.9 53.0 -55.4 53.45 -58.0 L53.45 -58.2 53.55 -58.8 53.75 -61.5 Q52.3 -69.75 44.05 -72.15 L38.6 -73.15 36.7 -73.2 33.4 -72.95 Q30.3 -72.45 27.35 -71.05 21.35 -68.25 16.25 -64.65 L13.7 -62.8 6.0 -56.4 5.4 -54.8 5.3 -54.6 3.6 -52.0 3.3 -49.35 3.1 -46.4 3.1 -44.9 Q3.85 -42.1 4.2 -39.15 4.3 -37.3 4.4 -35.5 L4.35 -31.75 Q3.95 -26.3 0.8 -22.25 -0.15 -21.0 -1.5 -20.45 L-3.05 -20.05 -3.05 -20.05 -6.65 -19.65 Q-8.35 -19.45 -10.0 -19.25 L-12.6 -18.95 -13.8 -18.55 -15.45 -17.45 Q-18.05 -15.4 -18.95 -11.85 -19.25 -10.6 -19.95 -9.4 L-20.6 -8.45"/>
    </path>
    <path d="M-20.55 -6.35 L-20.55 -7.15 Q-20.55 -8.3 -20.6 -9.45 -20.4 -12.35 -20.15 -15.3 L-19.25 -16.75 -18.65 -17.6 -17.45 -19.45 Q-16.6 -20.7 -16.25 -22.15 L-13.75 -24.25 -13.75 -24.25 -12.6 -25.1 Q-11.55 -25.8 -10.45 -26.55 -6.95 -29.15 -3.95 -32.3 L-1.55 -35.0 Q-0.45 -36.35 -0.1 -38.0 0.35 -40.5 0.8 -43.05 L1.0 -44.35 1.25 -47.0 1.45 -49.3 1.6 -52.15 1.6 -52.35 2.5 -53.25 9.25 -59.2 11.35 -60.95 Q16.2 -63.5 21.95 -64.35 24.7 -64.55 27.5 -64.75 L30.25 -64.0 32.05 -63.3 36.4 -61.35 Q42.65 -58.2 47.45 -53.05 L48.85 -51.5 49.1 -50.95 49.2 -50.85 Q50.7 -49.1 51.3 -47.0 51.6 -45.9 52.35 -45.15 52.5 -42.5 52.65 -39.85 L52.65 -39.25 52.65 -39.05 52.75 -37.75 52.9 -33.2 Q52.9 -30.2 52.95 -27.2 L52.65 -26.2 52.45 -25.7 52.4 -25.55 Q49.35 -22.05 45.8 -18.9 L43.95 -17.25 42.75 -16.25 Q41.3 -15.5 39.8 -14.7 37.25 -13.35 34.8 -11.8 L31.3 -9.5 Q29.85 -8.45 28.35 -7.4 26.65 -6.1 25.5 -4.5 24.55 -3.2 23.95 -1.7 23.35 -0.4 22.75 0.9 20.0 6.15 15.15 9.5 L13.4 10.65 12.25 11.45 11.15 12.5 10.85 12.85 Q9.05 13.1 7.2 13.4 L3.0 13.55 0.85 13.45 Q-6.95 12.75 -13.05 8.15 L-13.2 8.05 Q-19.45 3.2 -20.4 -4.8 L-20.55 -6.35 -20.55 -6.35" fill="none" stroke="#000000" stroke-linecap="round" stroke-linejoin="round" stroke-opacity="0.0" stroke-width="1.0">
      <animate attributeName="stroke" dur="2s" repeatCount="indefinite" values="#000000;#000001"/>
      <animate attributeName="stroke-width" dur="2s" repeatCount="indefinite" values="0.0;0.0"/>
      <animate attributeName="fill-opacity" dur="2s" repeatCount="indefinite" values="0.0;0.0"/>
      <animate attributeName="d" dur="2s" repeatCount="indefinite" values="M-20.55 -6.35 L-20.55 -7.15 Q-20.55 -8.3 -20.6 -9.45 -20.4 -12.35 -20.15 -15.3 L-19.25 -16.75 -18.65 -17.6 -17.45 -19.45 Q-16.6 -20.7 -16.25 -22.15 L-13.75 -24.25 -13.75 -24.25 -12.6 -25.1 Q-11.55 -25.8 -10.45 -26.55 -6.95 -29.15 -3.95 -32.3 L-1.55 -35.0 Q-0.45 -36.35 -0.1 -38.0 0.35 -40.5 0.8 -43.05 L1.0 -44.35 1.25 -47.0 1.45 -49.3 1.6 -52.15 1.6 -52.35 2.5 -53.25 9.25 -59.2 11.35 -60.95 Q16.2 -63.5 21.95 -64.35 24.7 -64.55 27.5 -64.75 L30.25 -64.0 32.05 -63.3 36.4 -61.35 Q42.65 -58.2 47.45 -53.05 L48.85 -51.5 49.1 -50.95 49.2 -50.85 Q50.7 -49.1 51.3 -47.0 51.6 -45.9 52.35 -45.15 52.5 -42.5 52.65 -39.85 L52.65 -39.25 52.65 -39.05 52.75 -37.75 52.9 -33.2 Q52.9 -30.2 52.95 -27.2 L52.65 -26.2 52.45 -25.7 52.4 -25.55 Q49.35 -22.05 45.8 -18.9 L43.95 -17.25 42.75 -16.25 Q41.3 -15.5 39.8 -14.7 37.25 -13.35 34.8 -11.8 L31.3 -9.5 Q29.85 -8.45 28.35 -7.4 26.65 -6.1 25.5 -4.5 24.55 -3.2 23.95 -1.7 23.35 -0.4 22.75 0.9 20.0 6.15 15.15 9.5 L13.4 10.65 12.25 11.45 11.15 12.5 10.85 12.85 Q9.05 13.1 7.2 13.4 L3.0 13.55 0.85 13.45 Q-6.95 12.75 -13.05 8.15 L-13.2 8.05 Q-19.45 3.2 -20.4 -4.8 L-20.55 -6.35 -20.55 -6.35;M-20.6 -8.45 L-19.95 -9.4 Q-19.25 -10.6 -18.95 -11.85 -18.05 -15.4 -15.45 -17.45 L-13.8 -18.55 -12.6 -18.95 -10.0 -19.25 Q-8.35 -19.45 -6.65 -19.65 L-3.05 -20.05 -3.05 -20.05 -1.5 -20.45 Q-0.15 -21.0 0.8 -22.25 3.95 -26.3 4.35 -31.75 L4.4 -35.5 Q4.3 -37.3 4.2 -39.15 3.85 -42.1 3.1 -44.9 L3.1 -46.4 3.3 -49.35 3.6 -52.0 5.3 -54.6 5.4 -54.8 6.0 -56.4 13.7 -62.8 16.25 -64.65 Q21.35 -68.25 27.35 -71.05 30.3 -72.45 33.4 -72.95 L36.7 -73.2 38.6 -73.15 44.05 -72.15 Q52.3 -69.75 53.75 -61.5 L53.55 -58.8 53.45 -58.2 53.45 -58.0 Q53.0 -55.4 53.1 -52.9 53.2 -51.75 53.3 -50.6 53.7 -47.75 54.85 -45.0 L54.95 -44.3 55.0 -44.1 55.05 -42.7 54.95 -37.65 Q53.85 -34.45 53.05 -31.1 L52.8 -30.0 52.65 -29.4 52.55 -29.2 Q51.0 -23.95 45.6 -21.75 L42.9 -20.6 41.4 -20.05 Q39.6 -19.45 37.7 -19.3 34.45 -18.95 31.2 -18.6 L26.6 -18.0 Q24.55 -17.7 22.75 -16.9 20.65 -15.95 18.9 -14.25 17.5 -12.9 16.9 -11.25 16.35 -9.7 16.5 -7.85 16.95 -1.3 16.75 5.25 L15.15 7.0 14.15 8.3 13.1 9.5 12.6 10.0 Q11.2 11.4 10.15 13.0 L5.45 13.55 3.0 13.55 Q-6.0 13.4 -12.85 8.25 L-13.05 8.15 Q-20.05 2.85 -20.55 -6.35 L-20.6 -8.35 -20.6 -8.45"/>
    </path>
  </g>
  <defs>
    <radialGradient cx="0" cy="0" gradientTransform="matrix(0.0403, 0.0073, -0.0084, 0.0459, 8.15, -14.15)" gradientUnits="userSpaceOnUse" id="gradient0" r="819.2" spreadMethod="pad">
      <animateTransform additive="replace" attributeName="gradientTransform" dur="2s" from="1" repeatCount="indefinite" to="1" type="scale"/>
      <animateTransform additive="sum" attributeName="gradientTransform" dur="2s" from="8.15 -14.15" repeatCount="indefinite" to="8.15 -14.15" type="translate"/>
      <animateTransform additive="sum" attributeName="gradientTransform" dur="2s" from="10.3087" repeatCount="indefinite" to="10.3087" type="rotate"/>
      <animateTransform additive="sum" attributeName="gradientTransform" dur="2s" from="0.0409 0.0467" repeatCount="indefinite" to="0.0409 0.0467" type="scale"/>
      <animateTransform additive="sum" attributeName="gradientTransform" dur="2s" from="-0.0147" repeatCount="indefinite" to="-0.0147" type="skewX"/>
      <stop offset="0.0" stop-color="#a7a7a7">
        <animate attributeName="offset" dur="2s" repeatCount="indefinite" values="0.0;0.0"/>
        <animate attributeName="stop-color" dur="2s" repeatCount="indefinite" values="#a7a7a7;#a7a7a8"/>
        <animate attributeName="stop-opacity" dur="2s" repeatCount="indefinite" values="1.0;1.0"/>
      </stop>
      <stop offset="0.5764705882352941" stop-color="#777777">
        <animate attributeName="offset" dur="2s" repeatCount="indefinite" values="0.5764705882352941;0.5764705882352941"/>
        <animate attributeName="stop-color" dur="2s" repeatCount="indefinite" values="#777777;#777778"/>
        <animate attributeName="stop-opacity" dur="2s" repeatCount="indefinite" values="1.0;1.0"/>
      </stop>
      <stop offset="1.0" stop-color="#000000">
        <animate attributeName="offset" dur="2s" repeatCount="indefinite" values="1.0;1.0"/>
        <animate attributeName="stop-color" dur="2s" repeatCount="indefinite" values="#000000;#000001"/>
        <animate attributeName="stop-opacity" dur="2s" repeatCount="indefinite" values="1.0;1.0"/>
      </stop>
    </radialGradient>
  </defs>
</svg>
