<?xml version="1.0" encoding="UTF-8" standalone="no"?>
<svg xmlns:xlink="http://www.w3.org/1999/xlink" height="52.55px" width="48.65px" xmlns="http://www.w3.org/2000/svg">
  <g transform="matrix(1.0, 0.0, 0.0, 1.0, -5.6, 72.15)">
    <path d="M5.6 -52.75 Q5.45 -45.6 6.25 -38.55 L6.3 -38.15 Q6.6 -36.05 7.8 -34.25 L8.1 -33.25 Q10.65 -28.25 14.6 -25.15 L15.6 -24.45 Q18.8 -22.2 22.9 -21.1 29.5 -19.4 36.45 -19.65 L39.85 -20.15 Q42.35 -20.7 44.6 -22.05 47.55 -23.65 50.5 -25.25 L51.1 -25.85 51.7 -26.55 53.3 -28.3 Q53.7 -30.05 54.1 -31.75 50.8 -31.65 48.0 -33.7 47.2 -34.3 47.05 -35.25 46.8 -36.5 46.85 -37.6 47.05 -41.75 51.55 -43.85 52.25 -44.2 52.65 -44.85 L52.85 -45.1 53.65 -46.05 53.75 -46.15 53.75 -46.25 53.85 -46.9 54.25 -48.0 Q51.4 -47.9 49.25 -49.4 47.65 -50.45 46.45 -52.4 43.8 -56.6 45.05 -61.85 45.35 -63.0 46.35 -63.75 L46.35 -63.95 Q46.6 -65.6 48.2 -66.45 L49.25 -67.15 48.55 -67.3 Q43.0 -68.1 39.6 -63.75 L39.65 -63.3 39.75 -62.7 39.9 -61.5 39.9 -61.1 Q39.85 -58.35 38.15 -56.4 L36.45 -54.95 35.95 -54.65 Q33.3 -53.1 30.05 -54.15 24.4 -55.95 25.0 -62.15 L25.0 -62.45 Q25.0 -63.8 25.0 -65.15 24.9 -66.35 24.85 -67.55 L24.85 -67.75 Q21.5 -65.25 21.3 -60.65 L21.15 -60.05 20.5 -59.1 Q18.65 -57.35 16.95 -56.95 L15.45 -56.9 Q13.25 -57.2 11.3 -60.1 L11.0 -60.65 8.85 -58.85 7.1 -56.5 7.1 -56.15 Q7.2 -54.9 6.6 -53.9 L5.6 -52.75" fill="url(#gradient0)" fill-rule="evenodd" stroke="none">
      <animate attributeName="d" dur="2s" repeatCount="indefinite" values="M5.6 -52.75 Q5.45 -45.6 6.25 -38.55 L6.3 -38.15 Q6.6 -36.05 7.8 -34.25 L8.1 -33.25 Q10.65 -28.25 14.6 -25.15 L15.6 -24.45 Q18.8 -22.2 22.9 -21.1 29.5 -19.4 36.45 -19.65 L39.85 -20.15 Q42.35 -20.7 44.6 -22.05 47.55 -23.65 50.5 -25.25 L51.1 -25.85 51.7 -26.55 53.3 -28.3 Q53.7 -30.05 54.1 -31.75 50.8 -31.65 48.0 -33.7 47.2 -34.3 47.05 -35.25 46.8 -36.5 46.85 -37.6 47.05 -41.75 51.55 -43.85 52.25 -44.2 52.65 -44.85 L52.85 -45.1 53.65 -46.05 53.75 -46.15 53.75 -46.25 53.85 -46.9 54.25 -48.0 Q51.4 -47.9 49.25 -49.4 47.65 -50.45 46.45 -52.4 43.8 -56.6 45.05 -61.85 45.35 -63.0 46.35 -63.75 L46.35 -63.95 Q46.6 -65.6 48.2 -66.45 L49.25 -67.15 48.55 -67.3 Q43.0 -68.1 39.6 -63.75 L39.65 -63.3 39.75 -62.7 39.9 -61.5 39.9 -61.1 Q39.85 -58.35 38.15 -56.4 L36.45 -54.95 35.95 -54.65 Q33.3 -53.1 30.05 -54.15 24.4 -55.95 25.0 -62.15 L25.0 -62.45 Q25.0 -63.8 25.0 -65.15 24.9 -66.35 24.85 -67.55 L24.85 -67.75 Q21.5 -65.25 21.3 -60.65 L21.15 -60.05 20.5 -59.1 Q18.65 -57.35 16.95 -56.95 L15.45 -56.9 Q13.25 -57.2 11.3 -60.1 L11.0 -60.65 8.85 -58.85 7.1 -56.5 7.1 -56.15 Q7.2 -54.9 6.6 -53.9 L5.6 -52.75;M17.1 -55.75 Q18.75 -51.3 21.55 -47.9 L21.75 -47.7 Q22.75 -46.7 23.75 -45.7 L24.25 -45.25 Q26.9 -43.05 30.25 -42.0 L31.0 -41.9 Q33.7 -41.85 36.4 -41.85 40.85 -41.9 45.3 -41.9 L47.5 -41.9 Q48.75 -42.9 49.95 -43.85 51.7 -45.35 53.05 -47.2 L53.45 -47.7 53.1 -48.25 51.75 -49.0 Q50.75 -49.7 50.1 -50.6 48.85 -52.35 49.2 -54.8 49.35 -55.4 49.45 -55.95 49.7 -56.7 49.95 -57.4 51.05 -59.9 51.75 -62.6 51.9 -63.15 52.0 -63.7 L52.1 -63.9 52.35 -64.5 52.4 -64.6 52.4 -64.65 52.0 -64.65 51.35 -64.65 Q49.65 -64.65 48.0 -64.65 47.4 -63.35 46.6 -62.5 44.35 -60.0 40.65 -61.35 39.95 -61.65 39.3 -61.95 L39.2 -62.05 Q38.4 -62.5 37.9 -63.2 L37.55 -63.75 37.35 -64.25 Q36.25 -67.5 37.25 -70.8 L37.35 -71.0 37.2 -71.35 36.5 -72.15 36.25 -72.05 Q35.6 -70.45 34.45 -69.15 L33.25 -68.0 33.25 -68.0 Q33.3 -65.35 32.4 -63.7 30.9 -60.85 26.5 -60.95 L26.25 -60.95 Q25.25 -61.0 24.65 -61.55 24.05 -62.05 23.85 -63.0 L23.85 -63.0 Q23.25 -65.8 23.3 -68.6 L23.3 -69.0 22.7 -68.65 Q21.5 -67.95 20.35 -67.3 L19.65 -66.3 Q18.55 -64.7 17.9 -62.9 L17.75 -62.5 17.2 -60.45 16.95 -58.4 16.95 -58.2 Q17.0 -57.4 17.0 -56.65 L17.1 -55.75"/>
    </path>
    <path d="M5.6 -52.75 L6.6 -53.9 Q7.2 -54.9 7.1 -56.15 L7.1 -56.5 8.85 -58.85 11.0 -60.65 11.3 -60.1 Q13.25 -57.2 15.45 -56.9 L16.95 -56.95 Q18.65 -57.35 20.5 -59.1 L21.15 -60.05 21.3 -60.65 Q21.5 -65.25 24.85 -67.75 L24.85 -67.55 Q24.9 -66.35 25.0 -65.15 25.0 -63.8 25.0 -62.45 L25.0 -62.15 Q24.4 -55.95 30.05 -54.15 33.3 -53.1 35.95 -54.65 L36.45 -54.95 38.15 -56.4 Q39.85 -58.35 39.9 -61.1 L39.9 -61.5 39.75 -62.7 39.65 -63.3 39.6 -63.75 Q43.0 -68.1 48.55 -67.3 L49.25 -67.15 48.2 -66.45 Q46.6 -65.6 46.35 -63.95 L46.35 -63.75 Q45.35 -63.0 45.05 -61.85 43.8 -56.6 46.45 -52.4 47.65 -50.45 49.25 -49.4 51.4 -47.9 54.25 -48.0 L53.85 -46.9 53.75 -46.25 53.75 -46.15 53.65 -46.05 52.85 -45.1 52.65 -44.85 Q52.25 -44.2 51.55 -43.85 47.05 -41.75 46.85 -37.6 46.8 -36.5 47.05 -35.25 47.2 -34.3 48.0 -33.7 50.8 -31.65 54.1 -31.75 53.7 -30.05 53.3 -28.3 L51.7 -26.55 51.1 -25.85 50.5 -25.25 Q47.55 -23.65 44.6 -22.05 42.35 -20.7 39.85 -20.15 L36.45 -19.65 Q29.5 -19.4 22.9 -21.1 18.8 -22.2 15.6 -24.45 L14.6 -25.15 Q10.65 -28.25 8.1 -33.25 L7.8 -34.25 Q6.6 -36.05 6.3 -38.15 L6.25 -38.55 Q5.45 -45.6 5.6 -52.75" fill="none" stroke="#000000" stroke-linecap="round" stroke-linejoin="round" stroke-opacity="0.0" stroke-width="1.0">
      <animate attributeName="stroke" dur="2s" repeatCount="indefinite" values="#000000;#000001"/>
      <animate attributeName="stroke-width" dur="2s" repeatCount="indefinite" values="0.0;0.0"/>
      <animate attributeName="fill-opacity" dur="2s" repeatCount="indefinite" values="0.0;0.0"/>
      <animate attributeName="d" dur="2s" repeatCount="indefinite" values="M5.6 -52.75 L6.6 -53.9 Q7.2 -54.9 7.1 -56.15 L7.1 -56.5 8.85 -58.85 11.0 -60.65 11.3 -60.1 Q13.25 -57.2 15.45 -56.9 L16.95 -56.95 Q18.65 -57.35 20.5 -59.1 L21.15 -60.05 21.3 -60.65 Q21.5 -65.25 24.85 -67.75 L24.85 -67.55 Q24.9 -66.35 25.0 -65.15 25.0 -63.8 25.0 -62.45 L25.0 -62.15 Q24.4 -55.95 30.05 -54.15 33.3 -53.1 35.95 -54.65 L36.45 -54.95 38.15 -56.4 Q39.85 -58.35 39.9 -61.1 L39.9 -61.5 39.75 -62.7 39.65 -63.3 39.6 -63.75 Q43.0 -68.1 48.55 -67.3 L49.25 -67.15 48.2 -66.45 Q46.6 -65.6 46.35 -63.95 L46.35 -63.75 Q45.35 -63.0 45.05 -61.85 43.8 -56.6 46.45 -52.4 47.65 -50.45 49.25 -49.4 51.4 -47.9 54.25 -48.0 L53.85 -46.9 53.75 -46.25 53.75 -46.15 53.65 -46.05 52.85 -45.1 52.65 -44.85 Q52.25 -44.2 51.55 -43.85 47.05 -41.75 46.85 -37.6 46.8 -36.5 47.05 -35.25 47.2 -34.3 48.0 -33.7 50.8 -31.65 54.1 -31.75 53.7 -30.05 53.3 -28.3 L51.7 -26.55 51.1 -25.85 50.5 -25.25 Q47.55 -23.65 44.6 -22.05 42.35 -20.7 39.85 -20.15 L36.45 -19.65 Q29.5 -19.4 22.9 -21.1 18.8 -22.2 15.6 -24.45 L14.6 -25.15 Q10.65 -28.25 8.1 -33.25 L7.8 -34.25 Q6.6 -36.05 6.3 -38.15 L6.25 -38.55 Q5.45 -45.6 5.6 -52.75;M17.1 -55.75 L17.0 -56.65 Q17.0 -57.4 16.95 -58.2 L16.95 -58.4 17.2 -60.45 17.75 -62.5 17.9 -62.9 Q18.55 -64.7 19.65 -66.3 L20.35 -67.3 Q21.5 -67.95 22.7 -68.65 L23.3 -69.0 23.3 -68.6 Q23.25 -65.8 23.85 -63.0 L23.85 -63.0 Q24.05 -62.05 24.65 -61.55 25.25 -61.0 26.25 -60.95 L26.5 -60.95 Q30.9 -60.85 32.4 -63.7 33.3 -65.35 33.25 -68.0 L33.25 -68.0 34.45 -69.15 Q35.6 -70.45 36.25 -72.05 L36.5 -72.15 37.2 -71.35 37.35 -71.0 37.25 -70.8 Q36.25 -67.5 37.35 -64.25 L37.55 -63.75 37.9 -63.2 Q38.4 -62.5 39.2 -62.05 L39.3 -61.95 Q39.95 -61.65 40.65 -61.35 44.35 -60.0 46.6 -62.5 47.4 -63.35 48.0 -64.65 49.65 -64.65 51.35 -64.65 L52.0 -64.65 52.4 -64.65 52.4 -64.6 52.35 -64.5 52.1 -63.9 52.0 -63.7 Q51.9 -63.15 51.75 -62.6 51.05 -59.9 49.95 -57.4 49.7 -56.7 49.45 -55.95 49.35 -55.4 49.2 -54.8 48.85 -52.35 50.1 -50.6 50.75 -49.7 51.75 -49.0 L53.1 -48.25 53.45 -47.7 53.05 -47.2 Q51.7 -45.35 49.95 -43.85 48.75 -42.9 47.5 -41.9 L45.3 -41.9 Q40.85 -41.9 36.4 -41.85 33.7 -41.85 31.0 -41.9 L30.25 -42.0 Q26.9 -43.05 24.25 -45.25 L23.75 -45.7 Q22.75 -46.7 21.75 -47.7 L21.55 -47.9 Q18.75 -51.3 17.1 -55.75"/>
    </path>
  </g>
  <defs>
    <radialGradient cx="0" cy="0" gradientTransform="matrix(0.0403, 0.0073, -0.0084, 0.0459, 8.15, -14.15)" gradientUnits="userSpaceOnUse" id="gradient0" r="819.2" spreadMethod="pad">
      <animateTransform additive="replace" attributeName="gradientTransform" dur="2s" from="1" repeatCount="indefinite" to="1" type="scale"/>
      <animateTransform additive="sum" attributeName="gradientTransform" dur="2s" from="8.15 -14.15" repeatCount="indefinite" to="8.15 -14.15" type="translate"/>
      <animateTransform additive="sum" attributeName="gradientTransform" dur="2s" from="10.3087" repeatCount="indefinite" to="10.3087" type="rotate"/>
      <animateTransform additive="sum" attributeName="gradientTransform" dur="2s" from="0.0409 0.0467" repeatCount="indefinite" to="0.0409 0.0467" type="scale"/>
      <animateTransform additive="sum" attributeName="gradientTransform" dur="2s" from="-0.0147" repeatCount="indefinite" to="-0.0147" type="skewX"/>
      <stop offset="0.0" stop-color="#fefe0c">
        <animate attributeName="offset" dur="2s" repeatCount="indefinite" values="0.0;0.0"/>
        <animate attributeName="stop-color" dur="2s" repeatCount="indefinite" values="#fefe0c;#fefe0d"/>
        <animate attributeName="stop-opacity" dur="2s" repeatCount="indefinite" values="1.0;1.0"/>
      </stop>
      <stop offset="0.5764705882352941" stop-color="#ffba2b">
        <animate attributeName="offset" dur="2s" repeatCount="indefinite" values="0.5764705882352941;0.5764705882352941"/>
        <animate attributeName="stop-color" dur="2s" repeatCount="indefinite" values="#ffba2b;#ffba2c"/>
        <animate attributeName="stop-opacity" dur="2s" repeatCount="indefinite" values="1.0;1.0"/>
      </stop>
      <stop offset="1.0" stop-color="#ff720b">
        <animate attributeName="offset" dur="2s" repeatCount="indefinite" values="1.0;1.0"/>
        <animate attributeName="stop-color" dur="2s" repeatCount="indefinite" values="#ff720b;#ff720c"/>
        <animate attributeName="stop-opacity" dur="2s" repeatCount="indefinite" values="1.0;1.0"/>
      </stop>
    </radialGradient>
  </defs>
</svg>
