<?xml version="1.0" encoding="UTF-8" standalone="no"?>
<svg xmlns:xlink="http://www.w3.org/1999/xlink" height="86.8px" width="75.65px" xmlns="http://www.w3.org/2000/svg">
  <g transform="matrix(1.0, 0.0, 0.0, 1.0, 20.6, 73.25)">
    <path d="M-20.6 -8.45 L-20.6 -8.45 -20.55 -6.65 -20.55 -6.35 -20.45 -4.95 -19.8 -1.65 Q-18.15 4.3 -13.05 8.15 -10.85 9.8 -8.4 10.95 -4.9 12.6 -1.0 13.2 L3.0 13.55 4.15 13.55 10.15 13.0 Q11.4 11.1 13.1 9.5 L14.15 8.3 Q15.3 6.7 16.75 5.25 16.95 -0.5 16.6 -6.25 L16.5 -7.85 Q16.2 -11.7 18.9 -14.25 21.85 -17.1 25.8 -17.85 L26.6 -18.0 Q28.65 -18.25 30.65 -18.5 L37.7 -19.3 Q40.45 -19.55 42.9 -20.6 L43.8 -21.0 45.6 -21.75 46.95 -22.4 Q50.35 -24.15 51.9 -27.45 L52.8 -30.0 52.9 -30.4 53.0 -30.9 54.95 -37.65 55.05 -42.7 55.0 -44.1 54.95 -44.3 54.85 -45.0 Q54.15 -46.65 53.75 -48.35 52.55 -53.0 53.45 -58.2 L53.75 -61.5 Q53.4 -63.5 52.65 -65.15 50.3 -70.35 44.05 -72.15 41.15 -72.65 38.25 -73.15 33.2 -73.45 28.45 -71.5 L27.35 -71.05 Q25.85 -70.3 24.4 -69.6 22.65 -68.6 20.9 -67.65 17.1 -65.4 13.7 -62.8 11.4 -60.95 9.1 -59.1 L6.0 -56.4 5.3 -54.6 3.6 -52.0 3.3 -49.35 3.1 -46.4 3.1 -44.9 Q3.95 -41.7 4.25 -38.3 4.55 -35.1 4.35 -31.75 3.95 -26.3 0.8 -22.25 -0.7 -20.3 -3.05 -20.05 L-7.5 -19.55 Q-10.05 -19.25 -12.6 -18.95 L-12.6 -18.95 -13.8 -18.55 Q-14.95 -17.95 -15.85 -17.15 -18.15 -15.15 -18.95 -11.85 -19.25 -10.6 -19.95 -9.4 L-20.6 -8.45" fill="url(#gradient0)" fill-rule="evenodd" stroke="none">
      <animate attributeName="d" dur="2s" repeatCount="indefinite" values="M-20.6 -8.45 L-20.6 -8.45 -20.55 -6.65 -20.55 -6.35 -20.45 -4.95 -19.8 -1.65 Q-18.15 4.3 -13.05 8.15 -10.85 9.8 -8.4 10.95 -4.9 12.6 -1.0 13.2 L3.0 13.55 4.15 13.55 10.15 13.0 Q11.4 11.1 13.1 9.5 L14.15 8.3 Q15.3 6.7 16.75 5.25 16.95 -0.5 16.6 -6.25 L16.5 -7.85 Q16.2 -11.7 18.9 -14.25 21.85 -17.1 25.8 -17.85 L26.6 -18.0 Q28.65 -18.25 30.65 -18.5 L37.7 -19.3 Q40.45 -19.55 42.9 -20.6 L43.8 -21.0 45.6 -21.75 46.95 -22.4 Q50.35 -24.15 51.9 -27.45 L52.8 -30.0 52.9 -30.4 53.0 -30.9 54.95 -37.65 55.05 -42.7 55.0 -44.1 54.95 -44.3 54.85 -45.0 Q54.15 -46.65 53.75 -48.35 52.55 -53.0 53.45 -58.2 L53.75 -61.5 Q53.4 -63.5 52.65 -65.15 50.3 -70.35 44.05 -72.15 41.15 -72.65 38.25 -73.15 33.2 -73.45 28.45 -71.5 L27.35 -71.05 Q25.85 -70.3 24.4 -69.6 22.65 -68.6 20.9 -67.65 17.1 -65.4 13.7 -62.8 11.4 -60.95 9.1 -59.1 L6.0 -56.4 5.3 -54.6 3.6 -52.0 3.3 -49.35 3.1 -46.4 3.1 -44.9 Q3.95 -41.7 4.25 -38.3 4.55 -35.1 4.35 -31.75 3.95 -26.3 0.8 -22.25 -0.7 -20.3 -3.05 -20.05 L-7.5 -19.55 Q-10.05 -19.25 -12.6 -18.95 L-12.6 -18.95 -13.8 -18.55 Q-14.95 -17.95 -15.85 -17.15 -18.15 -15.15 -18.95 -11.85 -19.25 -10.6 -19.95 -9.4 L-20.6 -8.45;M-16.5 2.35 L-16.5 2.45 -16.25 4.25 -16.15 4.55 -15.6 5.85 -13.05 8.15 Q-8.25 11.8 -2.4 13.0 0.3 13.3 3.0 13.55 6.75 13.25 10.45 12.95 L12.8 9.6 13.35 8.6 14.35 2.8 Q14.85 0.5 15.3 -1.8 L15.6 -3.2 Q16.05 -5.0 16.5 -6.8 17.9 -12.2 19.7 -17.55 L20.15 -18.85 Q21.45 -22.1 23.5 -24.8 25.7 -27.7 28.8 -30.0 L29.5 -30.45 Q31.3 -31.55 33.35 -31.8 L40.45 -32.55 Q43.05 -32.7 45.65 -32.85 L46.45 -32.85 47.85 -33.9 48.9 -34.45 Q52.15 -36.2 54.25 -39.15 L54.95 -41.7 55.05 -42.2 55.05 -42.7 54.75 -49.35 54.45 -54.35 54.35 -55.75 54.35 -55.95 54.25 -56.65 Q54.05 -58.4 53.9 -60.15 53.35 -65.65 50.05 -68.85 L47.45 -70.75 Q45.95 -71.6 44.05 -72.15 38.2 -73.9 32.75 -72.85 30.0 -72.3 27.35 -71.05 22.85 -68.95 18.9 -66.4 L18.45 -65.45 Q17.8 -64.35 16.45 -63.35 14.75 -62.05 14.7 -59.9 14.6 -55.6 15.1 -51.5 15.45 -48.5 16.1 -45.6 L16.7 -41.65 16.8 -40.0 16.6 -36.9 16.15 -34.35 15.3 -31.6 14.75 -30.3 Q13.45 -27.55 11.35 -25.05 9.3 -22.55 6.95 -20.5 3.2 -17.25 -1.25 -15.15 -3.25 -14.35 -5.25 -13.55 L-9.4 -12.4 Q-11.8 -11.9 -13.6 -10.0 L-13.6 -10.0 -14.45 -9.05 Q-15.2 -8.0 -15.9 -7.0 -16.4 -4.0 -16.5 -0.95 -16.5 0.3 -16.5 1.55 L-16.5 2.35"/>
    </path>
    <path d="M-20.6 -8.45 L-19.95 -9.4 Q-19.25 -10.6 -18.95 -11.85 -18.15 -15.15 -15.85 -17.15 -14.95 -17.95 -13.8 -18.55 L-12.6 -18.95 -12.6 -18.95 Q-10.05 -19.25 -7.5 -19.55 L-3.05 -20.05 Q-0.7 -20.3 0.8 -22.25 3.95 -26.3 4.35 -31.75 4.55 -35.1 4.25 -38.3 3.95 -41.7 3.1 -44.9 L3.1 -46.4 3.3 -49.35 3.6 -52.0 5.3 -54.6 6.0 -56.4 9.1 -59.1 Q11.4 -60.95 13.7 -62.8 17.1 -65.4 20.9 -67.65 22.65 -68.6 24.4 -69.6 25.85 -70.3 27.35 -71.05 L28.45 -71.5 Q33.2 -73.45 38.25 -73.15 41.15 -72.65 44.05 -72.15 50.3 -70.35 52.65 -65.15 53.4 -63.5 53.75 -61.5 L53.45 -58.2 Q52.55 -53.0 53.75 -48.35 54.15 -46.65 54.85 -45.0 L54.95 -44.3 55.0 -44.1 55.05 -42.7 54.95 -37.65 53.0 -30.9 52.9 -30.4 52.8 -30.0 51.9 -27.45 Q50.35 -24.15 46.95 -22.4 L45.6 -21.75 43.8 -21.0 42.9 -20.6 Q40.45 -19.55 37.7 -19.3 L30.65 -18.5 Q28.65 -18.25 26.6 -18.0 L25.8 -17.85 Q21.85 -17.1 18.9 -14.25 16.2 -11.7 16.5 -7.85 L16.6 -6.25 Q16.95 -0.5 16.75 5.25 15.3 6.7 14.15 8.3 L13.1 9.5 Q11.4 11.1 10.15 13.0 L4.15 13.55 3.0 13.55 -1.0 13.2 Q-4.9 12.6 -8.4 10.95 -10.85 9.8 -13.05 8.15 -18.15 4.3 -19.8 -1.65 L-20.45 -4.95 -20.55 -6.35 -20.55 -6.65 -20.6 -8.45 -20.6 -8.45" fill="none" stroke="#000000" stroke-linecap="round" stroke-linejoin="round" stroke-opacity="0.0" stroke-width="1.0">
      <animate attributeName="stroke" dur="2s" repeatCount="indefinite" values="#000000;#000001"/>
      <animate attributeName="stroke-width" dur="2s" repeatCount="indefinite" values="0.0;0.0"/>
      <animate attributeName="fill-opacity" dur="2s" repeatCount="indefinite" values="0.0;0.0"/>
      <animate attributeName="d" dur="2s" repeatCount="indefinite" values="M-20.6 -8.45 L-19.95 -9.4 Q-19.25 -10.6 -18.95 -11.85 -18.15 -15.15 -15.85 -17.15 -14.95 -17.95 -13.8 -18.55 L-12.6 -18.95 -12.6 -18.95 Q-10.05 -19.25 -7.5 -19.55 L-3.05 -20.05 Q-0.7 -20.3 0.8 -22.25 3.95 -26.3 4.35 -31.75 4.55 -35.1 4.25 -38.3 3.95 -41.7 3.1 -44.9 L3.1 -46.4 3.3 -49.35 3.6 -52.0 5.3 -54.6 6.0 -56.4 9.1 -59.1 Q11.4 -60.95 13.7 -62.8 17.1 -65.4 20.9 -67.65 22.65 -68.6 24.4 -69.6 25.85 -70.3 27.35 -71.05 L28.45 -71.5 Q33.2 -73.45 38.25 -73.15 41.15 -72.65 44.05 -72.15 50.3 -70.35 52.65 -65.15 53.4 -63.5 53.75 -61.5 L53.45 -58.2 Q52.55 -53.0 53.75 -48.35 54.15 -46.65 54.85 -45.0 L54.95 -44.3 55.0 -44.1 55.05 -42.7 54.95 -37.65 53.0 -30.9 52.9 -30.4 52.8 -30.0 51.9 -27.45 Q50.35 -24.15 46.95 -22.4 L45.6 -21.75 43.8 -21.0 42.9 -20.6 Q40.45 -19.55 37.7 -19.3 L30.65 -18.5 Q28.65 -18.25 26.6 -18.0 L25.8 -17.85 Q21.85 -17.1 18.9 -14.25 16.2 -11.7 16.5 -7.85 L16.6 -6.25 Q16.95 -0.5 16.75 5.25 15.3 6.7 14.15 8.3 L13.1 9.5 Q11.4 11.1 10.15 13.0 L4.15 13.55 3.0 13.55 -1.0 13.2 Q-4.9 12.6 -8.4 10.95 -10.85 9.8 -13.05 8.15 -18.15 4.3 -19.8 -1.65 L-20.45 -4.95 -20.55 -6.35 -20.55 -6.65 -20.6 -8.45 -20.6 -8.45;M-16.5 2.35 L-16.5 1.55 Q-16.5 0.3 -16.5 -0.95 -16.4 -4.0 -15.9 -7.0 -15.2 -8.0 -14.45 -9.05 L-13.6 -10.0 -13.6 -10.0 Q-11.8 -11.9 -9.4 -12.4 L-5.25 -13.55 Q-3.25 -14.35 -1.25 -15.15 3.2 -17.25 6.95 -20.5 9.3 -22.55 11.35 -25.05 13.45 -27.55 14.75 -30.3 L15.3 -31.6 16.15 -34.35 16.6 -36.9 16.8 -40.0 16.7 -41.65 16.1 -45.6 Q15.45 -48.5 15.1 -51.5 14.6 -55.6 14.7 -59.9 14.75 -62.05 16.45 -63.35 17.8 -64.35 18.45 -65.45 L18.9 -66.4 Q22.85 -68.95 27.35 -71.05 30.0 -72.3 32.75 -72.85 38.2 -73.9 44.05 -72.15 45.95 -71.6 47.45 -70.75 L50.05 -68.85 Q53.35 -65.65 53.9 -60.15 54.05 -58.4 54.25 -56.65 L54.35 -55.95 54.35 -55.75 54.45 -54.35 54.75 -49.35 55.05 -42.7 55.05 -42.2 54.95 -41.7 54.25 -39.15 Q52.15 -36.2 48.9 -34.45 L47.85 -33.9 46.45 -32.85 45.65 -32.85 Q43.05 -32.7 40.45 -32.55 L33.35 -31.8 Q31.3 -31.55 29.5 -30.45 L28.8 -30.0 Q25.7 -27.7 23.5 -24.8 21.45 -22.1 20.15 -18.85 L19.7 -17.55 Q17.9 -12.2 16.5 -6.8 16.05 -5.0 15.6 -3.2 L15.3 -1.8 Q14.85 0.5 14.35 2.8 L13.35 8.6 12.8 9.6 10.45 12.95 Q6.75 13.25 3.0 13.55 0.3 13.3 -2.4 13.0 -8.25 11.8 -13.05 8.15 L-15.6 5.85 -16.15 4.55 -16.25 4.25 -16.5 2.45 -16.5 2.35"/>
    </path>
  </g>
  <defs>
    <radialGradient cx="0" cy="0" gradientTransform="matrix(0.0403, 0.0073, -0.0084, 0.0459, 8.15, -14.15)" gradientUnits="userSpaceOnUse" id="gradient0" r="819.2" spreadMethod="pad">
      <animateTransform additive="replace" attributeName="gradientTransform" dur="2s" from="1" repeatCount="indefinite" to="1" type="scale"/>
      <animateTransform additive="sum" attributeName="gradientTransform" dur="2s" from="8.15 -14.15" repeatCount="indefinite" to="8.15 -14.15" type="translate"/>
      <animateTransform additive="sum" attributeName="gradientTransform" dur="2s" from="10.3087" repeatCount="indefinite" to="10.3087" type="rotate"/>
      <animateTransform additive="sum" attributeName="gradientTransform" dur="2s" from="0.0409 0.0467" repeatCount="indefinite" to="0.0409 0.0467" type="scale"/>
      <animateTransform additive="sum" attributeName="gradientTransform" dur="2s" from="-0.0147" repeatCount="indefinite" to="-0.0147" type="skewX"/>
      <stop offset="0.0" stop-color="#a7a7a7">
        <animate attributeName="offset" dur="2s" repeatCount="indefinite" values="0.0;0.0"/>
        <animate attributeName="stop-color" dur="2s" repeatCount="indefinite" values="#a7a7a7;#a7a7a8"/>
        <animate attributeName="stop-opacity" dur="2s" repeatCount="indefinite" values="1.0;1.0"/>
      </stop>
      <stop offset="0.5764705882352941" stop-color="#777777">
        <animate attributeName="offset" dur="2s" repeatCount="indefinite" values="0.5764705882352941;0.5764705882352941"/>
        <animate attributeName="stop-color" dur="2s" repeatCount="indefinite" values="#777777;#777778"/>
        <animate attributeName="stop-opacity" dur="2s" repeatCount="indefinite" values="1.0;1.0"/>
      </stop>
      <stop offset="1.0" stop-color="#000000">
        <animate attributeName="offset" dur="2s" repeatCount="indefinite" values="1.0;1.0"/>
        <animate attributeName="stop-color" dur="2s" repeatCount="indefinite" values="#000000;#000001"/>
        <animate attributeName="stop-opacity" dur="2s" repeatCount="indefinite" values="1.0;1.0"/>
      </stop>
    </radialGradient>
  </defs>
</svg>
