<?xml version="1.0" encoding="UTF-8" standalone="no"?>
<svg xmlns:xlink="http://www.w3.org/1999/xlink" height="27.65px" width="43.5px" xmlns="http://www.w3.org/2000/svg">
  <g transform="matrix(1.0, 0.0, 0.0, 1.0, 27.55, 9.0)">
    <path d="M-27.45 2.25 L-26.3 2.85 Q-22.75 3.8 -19.25 4.75 L-18.9 5.05 -17.4 6.35 -17.55 6.55 -17.7 6.75 -17.75 7.3 -17.7 7.85 -17.85 8.25 Q-18.25 9.8 -16.55 9.95 -13.65 10.15 -10.8 10.35 L-10.3 10.35 -11.25 10.7 Q-12.7 11.15 -12.85 12.4 L-12.85 12.7 Q-12.85 13.3 -12.3 13.4 L-8.5 13.85 Q-8.4 13.85 -8.25 14.0 L-8.15 15.85 Q-8.05 16.35 -7.55 16.4 -4.55 16.7 -2.55 14.05 -2.75 15.65 -2.05 16.95 -1.65 17.7 -0.8 17.5 0.95 17.15 1.6 15.35 2.3 17.3 4.25 18.25 6.6 19.35 7.2 17.6 L7.35 16.8 7.9 16.05 7.75 14.95 Q11.25 14.9 14.75 14.9 15.75 14.9 15.95 13.95 16.05 13.5 15.75 13.3 12.3 11.2 7.95 11.35 L7.75 11.25 7.55 11.05 7.5 10.85 7.85 10.8 8.75 10.35 Q9.1 10.1 9.05 9.7 8.8 8.15 7.0 7.55 L6.95 7.2 Q6.7 6.15 6.0 5.8 5.15 5.4 3.6 6.05 L2.25 6.45 -0.2 6.1 Q0.25 5.15 -0.55 4.45 -1.75 3.45 -3.0 3.85 -3.0 2.3 -3.25 0.7 -3.6 -1.65 -5.45 0.0 L-5.5 1.3 Q-5.45 2.35 -5.55 3.3 L-7.4 0.6 -7.95 -0.25 Q-9.35 -2.0 -11.45 -2.55 -13.35 -4.1 -15.0 -2.15 L-15.5 -2.7 -17.25 -5.75 -17.45 -6.05 -18.25 -7.25 -18.3 -7.4 -19.0 -8.3 -20.1 -8.25 -20.7 -7.75 -20.75 -7.2 -20.75 -6.65 -20.85 -6.65 Q-21.6 -8.25 -23.15 -8.85 L-23.75 -9.0 -23.75 -8.95 -24.15 -8.9 -24.3 -8.9 -24.9 -7.9 Q-25.15 -7.2 -24.85 -6.35 -24.1 -3.9 -21.95 -2.2 L-21.75 -2.0 -21.95 -1.45 -22.0 -0.9 -25.35 -0.5 Q-26.15 -0.4 -26.3 0.45 -26.85 0.55 -27.2 0.95 -27.7 1.5 -27.45 2.25" fill="#000000" fill-rule="evenodd" stroke="none">
      <animate attributeName="fill" dur="2s" repeatCount="indefinite" values="#000000;#000001"/>
      <animate attributeName="fill-opacity" dur="2s" repeatCount="indefinite" values="1.0;1.0"/>
      <animate attributeName="d" dur="2s" repeatCount="indefinite" values="M-27.45 2.25 L-26.3 2.85 Q-22.75 3.8 -19.25 4.75 L-18.9 5.05 -17.4 6.35 -17.55 6.55 -17.7 6.75 -17.75 7.3 -17.7 7.85 -17.85 8.25 Q-18.25 9.8 -16.55 9.95 -13.65 10.15 -10.8 10.35 L-10.3 10.35 -11.25 10.7 Q-12.7 11.15 -12.85 12.4 L-12.85 12.7 Q-12.85 13.3 -12.3 13.4 L-8.5 13.85 Q-8.4 13.85 -8.25 14.0 L-8.15 15.85 Q-8.05 16.35 -7.55 16.4 -4.55 16.7 -2.55 14.05 -2.75 15.65 -2.05 16.95 -1.65 17.7 -0.8 17.5 0.95 17.15 1.6 15.35 2.3 17.3 4.25 18.25 6.6 19.35 7.2 17.6 L7.35 16.8 7.9 16.05 7.75 14.95 Q11.25 14.9 14.75 14.9 15.75 14.9 15.95 13.95 16.05 13.5 15.75 13.3 12.3 11.2 7.95 11.35 L7.75 11.25 7.55 11.05 7.5 10.85 7.85 10.8 8.75 10.35 Q9.1 10.1 9.05 9.7 8.8 8.15 7.0 7.55 L6.95 7.2 Q6.7 6.15 6.0 5.8 5.15 5.4 3.6 6.05 L2.25 6.45 -0.2 6.1 Q0.25 5.15 -0.55 4.45 -1.75 3.45 -3.0 3.85 -3.0 2.3 -3.25 0.7 -3.6 -1.65 -5.45 0.0 L-5.5 1.3 Q-5.45 2.35 -5.55 3.3 L-7.4 0.6 -7.95 -0.25 Q-9.35 -2.0 -11.45 -2.55 -13.35 -4.1 -15.0 -2.15 L-15.5 -2.7 -17.25 -5.75 -17.45 -6.05 -18.25 -7.25 -18.3 -7.4 -19.0 -8.3 -20.1 -8.25 -20.7 -7.75 -20.75 -7.2 -20.75 -6.65 -20.85 -6.65 Q-21.6 -8.25 -23.15 -8.85 L-23.75 -9.0 -23.75 -8.95 -24.15 -8.9 -24.3 -8.9 -24.9 -7.9 Q-25.15 -7.2 -24.85 -6.35 -24.1 -3.9 -21.95 -2.2 L-21.75 -2.0 -21.95 -1.45 -22.0 -0.9 -25.35 -0.5 Q-26.15 -0.4 -26.3 0.45 -26.85 0.55 -27.2 0.95 -27.7 1.5 -27.45 2.25;M-12.3 6.8 L-12.3 6.8 Q-11.85 7.7 -11.1 7.9 L-11.0 7.9 -10.7 7.95 -10.7 7.95 -10.7 7.95 -10.6 7.95 -10.5 7.95 -10.5 8.05 Q-10.5 8.25 -10.5 8.45 -10.45 8.95 -10.0 9.35 L-9.9 9.4 -9.75 9.5 Q-9.55 9.45 -9.35 9.45 L-9.35 9.45 Q-9.3 9.45 -9.25 9.45 L-8.5 9.2 Q-8.45 9.2 -8.45 9.2 L-8.15 9.1 Q-8.05 9.05 -8.0 9.0 -7.5 8.85 -7.0 8.75 -6.95 8.9 -6.9 9.05 -6.85 9.2 -6.85 9.3 -6.6 9.55 -6.35 9.8 -6.0 9.85 -5.7 9.9 -5.4 9.85 -5.15 9.8 L-4.95 9.7 -4.85 9.7 -4.7 9.65 Q-3.95 9.3 -3.65 8.75 -3.6 8.55 -3.55 8.4 -3.55 8.3 -3.55 8.2 -3.55 7.6 -4.0 6.75 L-4.0 6.75 -4.0 6.75 -4.0 6.75 -4.0 6.75 -3.9 6.65 Q-3.85 6.6 -3.8 6.55 -3.65 6.35 -3.5 6.15 L-3.5 6.1 Q-3.4 5.95 -3.35 5.8 -3.3 5.55 -3.3 5.3 L-3.45 5.0 -3.7 4.75 Q-3.85 4.6 -4.0 4.45 -4.25 4.3 -4.5 4.15 -4.8 4.05 -5.1 4.0 -5.45 4.05 -5.75 4.1 L-5.95 4.2 Q-6.1 4.3 -6.25 4.4 L-6.75 4.75 -6.95 4.6 Q-7.25 4.45 -7.55 4.35 -7.95 4.2 -8.35 4.05 L-8.55 3.95 -9.25 3.75 -9.25 3.8 -9.45 3.85 -9.45 3.85 -9.65 3.85 -9.8 3.85 -9.9 3.95 -9.95 4.05 -10.05 4.05 -10.05 4.05 Q-10.25 4.3 -10.45 4.55 L-10.5 4.75 -10.5 4.75 -10.5 4.85 -10.5 4.85 -10.5 5.1 Q-10.65 5.15 -10.8 5.2 -11.3 5.35 -11.75 5.5 L-11.8 5.6 -11.9 5.65 -12.0 5.65 -12.4 6.2 Q-12.4 6.3 -12.4 6.4 -12.35 6.5 -12.35 6.6 -12.3 6.7 -12.3 6.8"/>
    </path>
    <path d="M-27.45 2.25 Q-27.7 1.5 -27.2 0.95 -26.85 0.55 -26.3 0.45 -26.15 -0.4 -25.35 -0.5 L-22.0 -0.9 -21.95 -1.45 -21.75 -2.0 -21.95 -2.2 Q-24.1 -3.9 -24.85 -6.35 -25.15 -7.2 -24.9 -7.9 L-24.3 -8.9 -24.15 -8.9 -23.75 -8.95 -23.75 -9.0 -23.15 -8.85 Q-21.6 -8.25 -20.85 -6.65 L-20.75 -6.65 -20.75 -7.2 -20.7 -7.75 -20.1 -8.25 -19.0 -8.3 -18.3 -7.4 -18.25 -7.25 -17.45 -6.05 -17.25 -5.75 -15.5 -2.7 -15.0 -2.15 Q-13.35 -4.1 -11.45 -2.55 -9.35 -2.0 -7.95 -0.25 L-7.4 0.6 -5.55 3.3 Q-5.45 2.35 -5.5 1.3 L-5.45 0.0 Q-3.6 -1.65 -3.25 0.7 -3.0 2.3 -3.0 3.85 -1.75 3.45 -0.55 4.45 0.25 5.15 -0.2 6.1 L2.25 6.45 3.6 6.05 Q5.15 5.4 6.0 5.8 6.7 6.15 6.95 7.2 L7.0 7.55 Q8.8 8.15 9.05 9.7 9.1 10.1 8.75 10.35 L7.85 10.8 7.5 10.85 7.55 11.05 7.75 11.25 7.95 11.35 Q12.3 11.2 15.75 13.3 16.05 13.5 15.95 13.95 15.75 14.9 14.75 14.9 11.25 14.9 7.75 14.95 L7.9 16.05 7.35 16.8 7.2 17.6 Q6.6 19.35 4.25 18.25 2.3 17.3 1.6 15.35 0.95 17.15 -0.8 17.5 -1.65 17.7 -2.05 16.95 -2.75 15.65 -2.55 14.05 -4.55 16.7 -7.55 16.4 -8.05 16.35 -8.15 15.85 L-8.25 14.0 Q-8.4 13.85 -8.5 13.85 L-12.3 13.4 Q-12.85 13.3 -12.85 12.7 L-12.85 12.4 Q-12.7 11.15 -11.25 10.7 L-10.3 10.35 -10.8 10.35 Q-13.65 10.15 -16.55 9.95 -18.25 9.8 -17.85 8.25 L-17.7 7.85 -17.75 7.3 -17.7 6.75 -17.55 6.55 -17.4 6.35 -18.9 5.05 -19.25 4.75 Q-22.75 3.8 -26.3 2.85 L-27.45 2.25" fill="none" stroke="#000000" stroke-linecap="round" stroke-linejoin="round" stroke-opacity="0.0" stroke-width="1.0">
      <animate attributeName="stroke" dur="2s" repeatCount="indefinite" values="#000000;#000001"/>
      <animate attributeName="stroke-width" dur="2s" repeatCount="indefinite" values="0.0;0.0"/>
      <animate attributeName="fill-opacity" dur="2s" repeatCount="indefinite" values="0.0;0.0"/>
      <animate attributeName="d" dur="2s" repeatCount="indefinite" values="M-27.45 2.25 Q-27.7 1.5 -27.2 0.95 -26.85 0.55 -26.3 0.45 -26.15 -0.4 -25.35 -0.5 L-22.0 -0.9 -21.95 -1.45 -21.75 -2.0 -21.95 -2.2 Q-24.1 -3.9 -24.85 -6.35 -25.15 -7.2 -24.9 -7.9 L-24.3 -8.9 -24.15 -8.9 -23.75 -8.95 -23.75 -9.0 -23.15 -8.85 Q-21.6 -8.25 -20.85 -6.65 L-20.75 -6.65 -20.75 -7.2 -20.7 -7.75 -20.1 -8.25 -19.0 -8.3 -18.3 -7.4 -18.25 -7.25 -17.45 -6.05 -17.25 -5.75 -15.5 -2.7 -15.0 -2.15 Q-13.35 -4.1 -11.45 -2.55 -9.35 -2.0 -7.95 -0.25 L-7.4 0.6 -5.55 3.3 Q-5.45 2.35 -5.5 1.3 L-5.45 0.0 Q-3.6 -1.65 -3.25 0.7 -3.0 2.3 -3.0 3.85 -1.75 3.45 -0.55 4.45 0.25 5.15 -0.2 6.1 L2.25 6.45 3.6 6.05 Q5.15 5.4 6.0 5.8 6.7 6.15 6.95 7.2 L7.0 7.55 Q8.8 8.15 9.05 9.7 9.1 10.1 8.75 10.35 L7.85 10.8 7.5 10.85 7.55 11.05 7.75 11.25 7.95 11.35 Q12.3 11.2 15.75 13.3 16.05 13.5 15.95 13.95 15.75 14.9 14.75 14.9 11.25 14.9 7.75 14.95 L7.9 16.05 7.35 16.8 7.2 17.6 Q6.6 19.35 4.25 18.25 2.3 17.3 1.6 15.35 0.95 17.15 -0.8 17.5 -1.65 17.7 -2.05 16.95 -2.75 15.65 -2.55 14.05 -4.55 16.7 -7.55 16.4 -8.05 16.35 -8.15 15.85 L-8.25 14.0 Q-8.4 13.85 -8.5 13.85 L-12.3 13.4 Q-12.85 13.3 -12.85 12.7 L-12.85 12.4 Q-12.7 11.15 -11.25 10.7 L-10.3 10.35 -10.8 10.35 Q-13.65 10.15 -16.55 9.95 -18.25 9.8 -17.85 8.25 L-17.7 7.85 -17.75 7.3 -17.7 6.75 -17.55 6.55 -17.4 6.35 -18.9 5.05 -19.25 4.75 Q-22.75 3.8 -26.3 2.85 L-27.45 2.25;M-12.3 6.8 Q-12.3 6.7 -12.35 6.6 -12.35 6.5 -12.4 6.4 -12.4 6.3 -12.4 6.2 L-12.0 5.65 -11.9 5.65 -11.8 5.6 -11.75 5.5 Q-11.3 5.35 -10.8 5.2 -10.65 5.15 -10.5 5.1 L-10.5 4.85 -10.5 4.85 -10.5 4.75 -10.5 4.75 -10.45 4.55 Q-10.25 4.3 -10.05 4.05 L-10.05 4.05 -9.95 4.05 -9.9 3.95 -9.8 3.85 -9.65 3.85 -9.45 3.85 -9.45 3.85 -9.25 3.8 -9.25 3.75 -8.55 3.95 -8.35 4.05 Q-7.95 4.2 -7.55 4.35 -7.25 4.45 -6.95 4.6 L-6.75 4.75 -6.25 4.4 Q-6.1 4.3 -5.95 4.2 L-5.75 4.1 Q-5.45 4.05 -5.1 4.0 -4.8 4.05 -4.5 4.15 -4.25 4.3 -4.0 4.45 -3.85 4.6 -3.7 4.75 L-3.45 5.0 -3.3 5.3 Q-3.3 5.55 -3.35 5.8 -3.4 5.95 -3.5 6.1 L-3.5 6.15 Q-3.65 6.35 -3.8 6.55 -3.85 6.6 -3.9 6.65 L-4.0 6.75 -4.0 6.75 -4.0 6.75 -4.0 6.75 -4.0 6.75 Q-3.55 7.6 -3.55 8.2 -3.55 8.3 -3.55 8.4 -3.6 8.55 -3.65 8.75 -3.95 9.3 -4.7 9.65 L-4.85 9.7 -4.95 9.7 -5.15 9.8 Q-5.4 9.85 -5.7 9.9 -6.0 9.85 -6.35 9.8 -6.6 9.55 -6.85 9.3 -6.85 9.2 -6.9 9.05 -6.95 8.9 -7.0 8.75 -7.5 8.85 -8.0 9.0 -8.05 9.05 -8.15 9.1 L-8.45 9.2 Q-8.45 9.2 -8.5 9.2 L-9.25 9.45 Q-9.3 9.45 -9.35 9.45 L-9.35 9.45 Q-9.55 9.45 -9.75 9.5 L-9.9 9.4 -10.0 9.35 Q-10.45 8.95 -10.5 8.45 -10.5 8.25 -10.5 8.05 L-10.5 7.95 -10.6 7.95 -10.7 7.95 -10.7 7.95 -10.7 7.95 -11.0 7.9 -11.1 7.9 Q-11.85 7.7 -12.3 6.8 L-12.3 6.8"/>
    </path>
  </g>
</svg>
