<?xml version="1.0" encoding="UTF-8" standalone="no"?>
<svg xmlns:xlink="http://www.w3.org/1999/xlink" height="13.35px" width="14.5px" xmlns="http://www.w3.org/2000/svg">
  <g transform="matrix(1.0, 0.0, 0.0, 1.0, 6.65, 9.95)">
    <path d="M-1.7 -8.55 L-1.7 -8.5 Q-1.25 -8.2 -0.85 -7.95 L-0.75 -7.95 -0.65 -7.95 -0.15 -7.75 -0.05 -7.75 Q0.1 -7.7 0.25 -7.7 L0.45 -7.7 0.45 -7.7 0.45 -7.7 0.45 -7.7 Q0.75 -7.7 1.05 -7.7 L1.25 -7.7 Q1.4 -7.7 1.55 -7.7 1.65 -7.7 1.75 -7.7 L1.85 -7.7 1.85 -7.7 1.85 -7.7 2.05 -7.7 2.05 -7.7 2.05 -7.7 Q2.35 -8.0 2.65 -8.25 2.7 -8.3 2.75 -8.35 L2.85 -8.45 2.95 -8.5 2.95 -8.5 Q3.1 -8.65 3.25 -8.75 L3.25 -8.85 Q3.3 -9.05 3.3 -9.2 L3.3 -9.3 3.3 -9.5 3.3 -9.5 Q3.05 -9.6 2.85 -9.65 2.7 -9.7 2.55 -9.7 2.35 -9.75 2.15 -9.8 L2.05 -9.8 Q1.75 -9.85 1.45 -9.9 L1.3 -9.9 0.6 -9.95 Q0.15 -9.9 -0.25 -9.9 -0.75 -9.8 -1.25 -9.7 -1.5 -9.3 -1.7 -8.95 L-1.7 -8.85 -1.7 -8.75 -1.7 -8.55" fill="url(#gradient0)" fill-rule="evenodd" stroke="none">
      <animate attributeName="d" dur="2s" repeatCount="indefinite" values="M-1.7 -8.55 L-1.7 -8.5 Q-1.25 -8.2 -0.85 -7.95 L-0.75 -7.95 -0.65 -7.95 -0.15 -7.75 -0.05 -7.75 Q0.1 -7.7 0.25 -7.7 L0.45 -7.7 0.45 -7.7 0.45 -7.7 0.45 -7.7 Q0.75 -7.7 1.05 -7.7 L1.25 -7.7 Q1.4 -7.7 1.55 -7.7 1.65 -7.7 1.75 -7.7 L1.85 -7.7 1.85 -7.7 1.85 -7.7 2.05 -7.7 2.05 -7.7 2.05 -7.7 Q2.35 -8.0 2.65 -8.25 2.7 -8.3 2.75 -8.35 L2.85 -8.45 2.95 -8.5 2.95 -8.5 Q3.1 -8.65 3.25 -8.75 L3.25 -8.85 Q3.3 -9.05 3.3 -9.2 L3.3 -9.3 3.3 -9.5 3.3 -9.5 Q3.05 -9.6 2.85 -9.65 2.7 -9.7 2.55 -9.7 2.35 -9.75 2.15 -9.8 L2.05 -9.8 Q1.75 -9.85 1.45 -9.9 L1.3 -9.9 0.6 -9.95 Q0.15 -9.9 -0.25 -9.9 -0.75 -9.8 -1.25 -9.7 -1.5 -9.3 -1.7 -8.95 L-1.7 -8.85 -1.7 -8.75 -1.7 -8.55;M-6.65 -4.5 L-6.65 -4.5 Q-5.2 -3.1 -6.6 -1.6 L-6.55 -1.1 -6.4 -0.8 -4.1 -0.7 -3.7 -0.1 Q-3.25 0.85 -3.7 1.8 L-2.9 3.2 -2.9 3.3 -2.75 3.4 -2.7 3.4 Q-3.1 1.7 -2.4 0.25 L-1.6 -0.4 Q-0.6 -0.65 -0.1 0.05 0.2 0.45 0.05 0.95 L-0.55 1.85 -0.45 2.15 -0.45 2.45 0.5 3.3 0.65 3.3 0.6 3.1 Q0.35 1.65 1.8 1.25 2.1 1.15 2.3 1.4 L2.55 1.75 2.85 1.9 2.95 1.95 Q3.0 1.05 3.35 0.2 L3.65 -0.05 Q4.75 -0.55 5.7 0.15 L6.05 0.4 6.05 -0.55 6.05 -1.05 Q5.05 -1.85 5.3 -3.1 5.45 -3.85 6.25 -4.0 7.2 -4.15 7.85 -3.55 L7.85 -3.85 Q7.85 -5.55 7.25 -7.05 L7.05 -7.5 4.55 -9.2 Q2.85 -9.95 0.85 -9.95 -1.75 -9.95 -3.85 -8.65 -5.0 -7.95 -6.0 -6.9 L-6.45 -6.35 -6.5 -5.9 -6.65 -4.5"/>
    </path>
    <path d="M-1.7 -8.55 L-1.7 -8.75 -1.7 -8.85 -1.7 -8.95 Q-1.5 -9.3 -1.25 -9.7 -0.75 -9.8 -0.25 -9.9 0.15 -9.9 0.6 -9.95 L1.3 -9.9 1.45 -9.9 Q1.75 -9.85 2.05 -9.8 L2.15 -9.8 Q2.35 -9.75 2.55 -9.7 2.7 -9.7 2.85 -9.65 3.05 -9.6 3.3 -9.5 L3.3 -9.5 3.3 -9.3 3.3 -9.2 Q3.3 -9.05 3.25 -8.85 L3.25 -8.75 Q3.1 -8.65 2.95 -8.5 L2.95 -8.5 2.85 -8.45 2.75 -8.35 Q2.7 -8.3 2.65 -8.25 2.35 -8.0 2.05 -7.7 L2.05 -7.7 2.05 -7.7 1.85 -7.7 1.85 -7.7 1.85 -7.7 1.75 -7.7 Q1.65 -7.7 1.55 -7.7 1.4 -7.7 1.25 -7.7 L1.05 -7.7 Q0.75 -7.7 0.45 -7.7 L0.45 -7.7 0.45 -7.7 0.45 -7.7 0.25 -7.7 Q0.1 -7.7 -0.05 -7.75 L-0.15 -7.75 -0.65 -7.95 -0.75 -7.95 -0.85 -7.95 Q-1.25 -8.2 -1.7 -8.5 L-1.7 -8.55" fill="none" stroke="#000000" stroke-linecap="round" stroke-linejoin="round" stroke-opacity="0.0" stroke-width="1.0">
      <animate attributeName="stroke" dur="2s" repeatCount="indefinite" values="#000000;#000001"/>
      <animate attributeName="stroke-width" dur="2s" repeatCount="indefinite" values="0.0;0.0"/>
      <animate attributeName="fill-opacity" dur="2s" repeatCount="indefinite" values="0.0;0.0"/>
      <animate attributeName="d" dur="2s" repeatCount="indefinite" values="M-1.7 -8.55 L-1.7 -8.75 -1.7 -8.85 -1.7 -8.95 Q-1.5 -9.3 -1.25 -9.7 -0.75 -9.8 -0.25 -9.9 0.15 -9.9 0.6 -9.95 L1.3 -9.9 1.45 -9.9 Q1.75 -9.85 2.05 -9.8 L2.15 -9.8 Q2.35 -9.75 2.55 -9.7 2.7 -9.7 2.85 -9.65 3.05 -9.6 3.3 -9.5 L3.3 -9.5 3.3 -9.3 3.3 -9.2 Q3.3 -9.05 3.25 -8.85 L3.25 -8.75 Q3.1 -8.65 2.95 -8.5 L2.95 -8.5 2.85 -8.45 2.75 -8.35 Q2.7 -8.3 2.65 -8.25 2.35 -8.0 2.05 -7.7 L2.05 -7.7 2.05 -7.7 1.85 -7.7 1.85 -7.7 1.85 -7.7 1.75 -7.7 Q1.65 -7.7 1.55 -7.7 1.4 -7.7 1.25 -7.7 L1.05 -7.7 Q0.75 -7.7 0.45 -7.7 L0.45 -7.7 0.45 -7.7 0.45 -7.7 0.25 -7.7 Q0.1 -7.7 -0.05 -7.75 L-0.15 -7.75 -0.65 -7.95 -0.75 -7.95 -0.85 -7.95 Q-1.25 -8.2 -1.7 -8.5 L-1.7 -8.55;M-6.65 -4.5 L-6.5 -5.9 -6.45 -6.35 -6.0 -6.9 Q-5.0 -7.95 -3.85 -8.65 -1.75 -9.95 0.85 -9.95 2.85 -9.95 4.55 -9.2 L7.05 -7.5 7.25 -7.05 Q7.85 -5.55 7.85 -3.85 L7.85 -3.55 Q7.2 -4.15 6.25 -4.0 5.45 -3.85 5.3 -3.1 5.05 -1.85 6.05 -1.05 L6.05 -0.55 6.05 0.4 5.7 0.15 Q4.75 -0.55 3.65 -0.05 L3.35 0.2 Q3.0 1.05 2.95 1.95 L2.85 1.9 2.55 1.75 2.3 1.4 Q2.1 1.15 1.8 1.25 0.35 1.65 0.6 3.1 L0.65 3.3 0.5 3.3 -0.45 2.45 -0.45 2.15 -0.55 1.85 0.05 0.95 Q0.2 0.45 -0.1 0.05 -0.6 -0.65 -1.6 -0.4 L-2.4 0.25 Q-3.1 1.7 -2.7 3.4 L-2.75 3.4 -2.9 3.3 -2.9 3.2 -3.7 1.8 Q-3.25 0.85 -3.7 -0.1 L-4.1 -0.7 -6.4 -0.8 -6.55 -1.1 -6.6 -1.6 Q-5.2 -3.1 -6.65 -4.5 L-6.65 -4.5"/>
    </path>
  </g>
  <defs>
    <radialGradient cx="0" cy="0" gradientTransform="matrix(0.0246, 0.0, 0.0, 0.0246, 1.9, 10.15)" gradientUnits="userSpaceOnUse" id="gradient0" r="819.2" spreadMethod="pad">
      <animateTransform additive="replace" attributeName="gradientTransform" dur="2s" from="1" repeatCount="indefinite" to="1" type="scale"/>
      <animateTransform additive="sum" attributeName="gradientTransform" dur="2s" from="1.9 10.15" repeatCount="indefinite" to="1.9 10.15" type="translate"/>
      <animateTransform additive="sum" attributeName="gradientTransform" dur="2s" from="0.0" repeatCount="indefinite" to="0.0" type="rotate"/>
      <animateTransform additive="sum" attributeName="gradientTransform" dur="2s" from="0.0246 0.0246" repeatCount="indefinite" to="0.0246 0.0246" type="scale"/>
      <animateTransform additive="sum" attributeName="gradientTransform" dur="2s" from="0.0" repeatCount="indefinite" to="0.0" type="skewX"/>
      <stop offset="0.0" stop-color="#fefe0c" stop-opacity="0.9019608">
        <animate attributeName="offset" dur="2s" repeatCount="indefinite" values="0.0;0.0"/>
        <animate attributeName="stop-color" dur="2s" repeatCount="indefinite" values="#fefe0c;#fefe0d"/>
        <animate attributeName="stop-opacity" dur="2s" repeatCount="indefinite" values="0.9019608;0.9019608"/>
      </stop>
      <stop offset="0.5764705882352941" stop-color="#ffba2b" stop-opacity="0.9019608">
        <animate attributeName="offset" dur="2s" repeatCount="indefinite" values="0.5764705882352941;0.5764705882352941"/>
        <animate attributeName="stop-color" dur="2s" repeatCount="indefinite" values="#ffba2b;#ffba2c"/>
        <animate attributeName="stop-opacity" dur="2s" repeatCount="indefinite" values="0.9019608;0.9019608"/>
      </stop>
      <stop offset="1.0" stop-color="#ff720b" stop-opacity="0.9019608">
        <animate attributeName="offset" dur="2s" repeatCount="indefinite" values="1.0;1.0"/>
        <animate attributeName="stop-color" dur="2s" repeatCount="indefinite" values="#ff720b;#ff720c"/>
        <animate attributeName="stop-opacity" dur="2s" repeatCount="indefinite" values="0.9019608;0.9019608"/>
      </stop>
    </radialGradient>
  </defs>
</svg>
