<?xml version="1.0" encoding="UTF-8" standalone="no"?>
<svg xmlns:xlink="http://www.w3.org/1999/xlink" height="27.1px" width="38.35px" xmlns="http://www.w3.org/2000/svg">
  <g transform="matrix(1.0, 0.0, 0.0, 1.0, 18.9, 8.75)">
    <path d="M-16.0 -4.05 L-16.0 -3.95 -16.05 -2.85 -15.95 -2.3 -15.95 -2.2 -15.75 -2.1 -15.65 -2.0 -15.5 -2.0 Q-14.7 -2.95 -14.2 -2.2 L-14.0 -1.85 -13.95 -1.75 -13.9 -1.15 -13.9 -0.8 -13.7 -0.05 -13.7 0.05 Q-13.4 -0.3 -13.1 -0.6 -12.25 -0.65 -11.45 -0.65 L-10.95 -0.4 -10.95 -0.4 -10.75 -0.05 -10.75 0.05 -10.75 0.45 -10.75 0.75 -10.7 1.65 -10.1 2.15 -9.6 2.6 -9.5 2.6 -9.15 2.55 -9.15 2.55 -9.3 2.25 Q-9.8 1.15 -9.0 0.55 -8.8 0.4 -8.65 0.3 L-8.35 0.15 Q-7.6 0.05 -6.9 0.0 -6.4 0.05 -6.0 0.35 L-5.7 0.65 Q-5.2 1.2 -5.15 1.95 -5.15 2.2 -5.15 2.4 L-5.15 2.7 -5.2 3.25 -5.2 3.55 -5.2 3.95 -4.7 3.9 -4.4 3.75 -4.3 3.65 Q-4.0 3.35 -3.7 3.1 L-3.7 3.1 -3.7 3.0 -3.8 2.35 -3.8 2.05 Q-3.7 1.4 -3.15 0.9 L-2.45 0.45 Q-2.15 0.4 -1.85 0.4 -1.4 0.45 -0.95 0.85 -0.45 1.3 -0.4 1.95 L-0.45 2.3 -0.05 2.15 -0.05 2.15 0.7 1.5 0.7 0.95 Q0.75 0.2 1.4 -0.1 L1.4 -0.1 Q1.75 -0.2 2.05 -0.3 L2.25 -0.3 2.35 -0.3 Q3.2 -0.25 3.45 0.6 3.65 1.35 3.5 2.15 L3.4 2.45 3.35 2.7 3.35 2.7 3.45 2.8 3.75 3.05 3.85 3.15 Q4.35 3.15 4.85 3.15 L6.05 3.15 6.05 3.15 5.7 2.75 5.5 2.5 4.9 1.8 4.85 1.7 4.7 1.4 4.7 1.2 Q4.75 0.7 4.95 0.35 5.15 0.1 5.35 -0.1 L5.8 -0.35 Q6.35 -0.4 6.85 -0.45 L7.25 -0.35 7.5 -0.25 7.6 -0.15 7.9 0.25 7.95 0.6 7.95 0.7 Q7.85 1.3 7.8 1.9 L8.05 2.25 Q8.35 2.6 8.6 2.95 8.8 2.65 8.95 2.35 L9.05 2.05 Q9.25 1.65 9.7 1.45 L10.05 1.05 Q10.15 0.95 10.25 0.85 L10.45 0.65 Q11.2 0.05 12.15 0.3 L12.5 0.45 13.05 0.8 Q13.35 1.15 13.6 1.45 13.8 1.05 13.95 0.65 14.0 0.1 13.65 -0.5 L13.65 -0.6 13.55 -0.9 13.55 -1.25 Q13.7 -2.35 14.95 -2.2 L15.4 -2.15 16.25 -1.7 16.45 -1.35 16.55 -1.55 16.55 -1.55 16.6 -2.05 Q16.55 -2.7 16.5 -3.35 L16.35 -3.95 16.35 -4.15 16.15 -4.75 Q15.5 -5.25 15.25 -5.85 L15.15 -5.95 14.55 -6.2 14.45 -6.2 14.45 -6.2 12.5 -6.95 11.7 -7.25 11.3 -7.35 Q9.45 -7.8 7.65 -8.2 4.0 -8.5 0.4 -8.75 L-2.15 -8.7 Q-7.55 -8.4 -11.8 -6.95 L-13.7 -6.2 -14.85 -5.6 -14.9 -5.5 -15.0 -5.4 -16.0 -4.05" fill="url(#gradient0)" fill-rule="evenodd" stroke="none">
      <animate attributeName="d" dur="2s" repeatCount="indefinite" values="M-16.0 -4.05 L-16.0 -3.95 -16.05 -2.85 -15.95 -2.3 -15.95 -2.2 -15.75 -2.1 -15.65 -2.0 -15.5 -2.0 Q-14.7 -2.95 -14.2 -2.2 L-14.0 -1.85 -13.95 -1.75 -13.9 -1.15 -13.9 -0.8 -13.7 -0.05 -13.7 0.05 Q-13.4 -0.3 -13.1 -0.6 -12.25 -0.65 -11.45 -0.65 L-10.95 -0.4 -10.95 -0.4 -10.75 -0.05 -10.75 0.05 -10.75 0.45 -10.75 0.75 -10.7 1.65 -10.1 2.15 -9.6 2.6 -9.5 2.6 -9.15 2.55 -9.15 2.55 -9.3 2.25 Q-9.8 1.15 -9.0 0.55 -8.8 0.4 -8.65 0.3 L-8.35 0.15 Q-7.6 0.05 -6.9 0.0 -6.4 0.05 -6.0 0.35 L-5.7 0.65 Q-5.2 1.2 -5.15 1.95 -5.15 2.2 -5.15 2.4 L-5.15 2.7 -5.2 3.25 -5.2 3.55 -5.2 3.95 -4.7 3.9 -4.4 3.75 -4.3 3.65 Q-4.0 3.35 -3.7 3.1 L-3.7 3.1 -3.7 3.0 -3.8 2.35 -3.8 2.05 Q-3.7 1.4 -3.15 0.9 L-2.45 0.45 Q-2.15 0.4 -1.85 0.4 -1.4 0.45 -0.95 0.85 -0.45 1.3 -0.4 1.95 L-0.45 2.3 -0.05 2.15 -0.05 2.15 0.7 1.5 0.7 0.95 Q0.75 0.2 1.4 -0.1 L1.4 -0.1 Q1.75 -0.2 2.05 -0.3 L2.25 -0.3 2.35 -0.3 Q3.2 -0.25 3.45 0.6 3.65 1.35 3.5 2.15 L3.4 2.45 3.35 2.7 3.35 2.7 3.45 2.8 3.75 3.05 3.85 3.15 Q4.35 3.15 4.85 3.15 L6.05 3.15 6.05 3.15 5.7 2.75 5.5 2.5 4.9 1.8 4.85 1.7 4.7 1.4 4.7 1.2 Q4.75 0.7 4.95 0.35 5.15 0.1 5.35 -0.1 L5.8 -0.35 Q6.35 -0.4 6.85 -0.45 L7.25 -0.35 7.5 -0.25 7.6 -0.15 7.9 0.25 7.95 0.6 7.95 0.7 Q7.85 1.3 7.8 1.9 L8.05 2.25 Q8.35 2.6 8.6 2.95 8.8 2.65 8.95 2.35 L9.05 2.05 Q9.25 1.65 9.7 1.45 L10.05 1.05 Q10.15 0.95 10.25 0.85 L10.45 0.65 Q11.2 0.05 12.15 0.3 L12.5 0.45 13.05 0.8 Q13.35 1.15 13.6 1.45 13.8 1.05 13.95 0.65 14.0 0.1 13.65 -0.5 L13.65 -0.6 13.55 -0.9 13.55 -1.25 Q13.7 -2.35 14.95 -2.2 L15.4 -2.15 16.25 -1.7 16.45 -1.35 16.55 -1.55 16.55 -1.55 16.6 -2.05 Q16.55 -2.7 16.5 -3.35 L16.35 -3.95 16.35 -4.15 16.15 -4.75 Q15.5 -5.25 15.25 -5.85 L15.15 -5.95 14.55 -6.2 14.45 -6.2 14.45 -6.2 12.5 -6.95 11.7 -7.25 11.3 -7.35 Q9.45 -7.8 7.65 -8.2 4.0 -8.5 0.4 -8.75 L-2.15 -8.7 Q-7.55 -8.4 -11.8 -6.95 L-13.7 -6.2 -14.85 -5.6 -14.9 -5.5 -15.0 -5.4 -16.0 -4.05;M-18.9 -1.65 L-18.9 -1.65 -18.85 0.0 -18.6 0.8 -18.55 1.0 -18.5 1.25 -18.4 1.45 -18.25 1.65 Q-17.5 2.55 -16.75 3.4 L-16.3 3.85 -16.2 3.95 -15.25 4.6 -14.85 4.85 -15.0 3.95 -15.0 3.85 Q-14.9 3.2 -14.25 3.1 -12.95 3.25 -12.0 4.25 L-11.2 5.05 -11.1 5.15 -10.7 5.7 -10.5 6.0 -10.2 6.4 -9.9 6.9 -9.1 7.75 -8.55 8.5 -8.25 8.95 -8.25 8.8 -8.2 8.3 -8.2 8.1 -8.2 7.75 Q-9.5 6.7 -8.7 5.45 -8.55 5.2 -8.25 5.2 L-7.55 5.25 Q-6.45 5.4 -5.75 6.2 -5.45 6.65 -5.15 7.1 L-4.9 7.75 Q-4.55 8.7 -4.7 9.8 -4.75 10.35 -5.2 10.7 L-5.15 11.2 -5.25 12.0 -5.45 12.3 -5.45 13.0 -5.4 13.7 -5.4 14.2 -5.4 14.2 Q-5.05 14.55 -5.1 15.05 L-5.1 15.15 -5.15 15.35 -4.65 14.75 -4.45 14.6 Q-4.4 13.65 -4.35 12.7 L-4.05 11.45 Q-3.9 11.0 -3.4 11.0 -2.5 11.05 -2.1 11.5 -1.7 11.9 -1.75 12.75 L-1.7 13.45 -1.4 14.25 -1.25 14.55 -0.95 15.7 -0.95 16.85 Q-0.3 17.55 0.3 18.2 L0.4 18.2 Q0.6 17.65 0.35 17.1 L0.3 16.75 0.3 16.75 Q-0.2 15.85 -0.3 14.9 -0.4 13.8 0.1 12.65 L0.45 12.35 0.75 12.3 0.95 12.35 1.05 12.35 1.7 12.55 1.8 12.65 Q2.3 13.05 2.4 13.9 L2.3 15.85 2.2 16.25 2.25 16.8 2.3 17.1 3.25 18.15 3.35 18.35 3.75 18.2 3.85 17.8 Q3.95 17.05 3.65 16.2 3.55 15.85 3.7 15.55 L4.2 14.75 Q4.65 13.6 5.55 14.15 L6.0 14.5 6.35 14.8 6.55 14.9 6.55 14.15 6.55 13.7 6.55 13.7 Q5.45 13.35 5.2 12.65 L5.1 12.2 Q5.05 11.7 5.35 10.95 5.7 10.3 6.4 10.35 L6.85 10.4 Q7.45 10.75 8.05 11.1 L8.35 11.4 Q8.45 11.55 8.65 11.55 L8.75 11.35 Q8.8 9.75 8.15 8.3 L8.05 7.8 8.05 6.95 Q8.15 6.25 8.55 5.75 9.0 5.3 9.8 5.05 11.15 4.7 11.35 5.75 L11.35 5.9 11.35 6.5 11.25 6.95 Q12.05 6.0 12.8 5.05 L12.8 4.3 13.2 3.25 13.55 2.8 13.85 2.55 14.25 2.3 14.85 2.2 Q16.05 2.4 16.0 3.6 L16.0 4.4 16.15 4.3 16.75 3.9 Q17.45 3.25 18.1 2.65 L18.3 2.45 18.9 1.7 18.9 1.7 19.1 1.5 19.45 -1.4 19.15 -2.7 18.9 -3.3 Q17.4 -4.9 14.45 -6.2 10.0 -8.15 4.1 -8.6 L0.4 -8.75 Q-7.85 -8.75 -13.7 -6.2 L-16.4 -4.7 -17.55 -3.8 -17.65 -3.7 -17.75 -3.6 -18.9 -1.65"/>
    </path>
    <path d="M-16.0 -4.05 L-15.0 -5.4 -14.9 -5.5 -14.85 -5.6 -13.7 -6.2 -11.8 -6.95 Q-7.55 -8.4 -2.15 -8.7 L0.4 -8.75 Q4.0 -8.5 7.65 -8.2 9.45 -7.8 11.3 -7.35 L11.7 -7.25 12.5 -6.95 14.45 -6.2 14.45 -6.2 14.55 -6.2 15.15 -5.95 15.25 -5.85 Q15.5 -5.25 16.15 -4.75 L16.35 -4.15 16.35 -3.95 16.5 -3.35 Q16.55 -2.7 16.6 -2.05 L16.55 -1.55 16.55 -1.55 16.45 -1.35 16.25 -1.7 15.4 -2.15 14.95 -2.2 Q13.7 -2.35 13.55 -1.25 L13.55 -0.9 13.65 -0.6 13.65 -0.5 Q14.0 0.1 13.95 0.65 13.8 1.05 13.6 1.45 13.35 1.15 13.05 0.8 L12.5 0.45 12.15 0.3 Q11.2 0.05 10.45 0.65 L10.25 0.85 Q10.15 0.95 10.05 1.05 L9.7 1.45 Q9.25 1.65 9.05 2.05 L8.95 2.35 Q8.8 2.65 8.6 2.95 8.35 2.6 8.05 2.25 L7.8 1.9 Q7.85 1.3 7.95 0.7 L7.95 0.6 7.9 0.25 7.6 -0.15 7.5 -0.25 7.25 -0.35 6.85 -0.45 Q6.35 -0.4 5.8 -0.35 L5.35 -0.1 Q5.15 0.1 4.95 0.35 4.75 0.7 4.7 1.2 L4.7 1.4 4.85 1.7 4.9 1.8 5.5 2.5 5.7 2.75 6.05 3.15 6.05 3.15 4.85 3.15 Q4.35 3.15 3.85 3.15 L3.75 3.05 3.45 2.8 3.35 2.7 3.35 2.7 3.4 2.45 3.5 2.15 Q3.65 1.35 3.45 0.6 3.2 -0.25 2.35 -0.3 L2.25 -0.3 2.05 -0.3 Q1.75 -0.2 1.4 -0.1 L1.4 -0.1 Q0.75 0.2 0.7 0.95 L0.7 1.5 -0.05 2.15 -0.05 2.15 -0.45 2.3 -0.4 1.95 Q-0.45 1.3 -0.95 0.85 -1.4 0.45 -1.85 0.4 -2.15 0.4 -2.45 0.45 L-3.15 0.9 Q-3.7 1.4 -3.8 2.05 L-3.8 2.35 -3.7 3.0 -3.7 3.1 -3.7 3.1 Q-4.0 3.35 -4.3 3.65 L-4.4 3.75 -4.7 3.9 -5.2 3.95 -5.2 3.55 -5.2 3.25 -5.15 2.7 -5.15 2.4 Q-5.15 2.2 -5.15 1.95 -5.2 1.2 -5.7 0.65 L-6.0 0.35 Q-6.4 0.05 -6.9 0.0 -7.6 0.05 -8.35 0.15 L-8.65 0.3 Q-8.8 0.4 -9.0 0.55 -9.8 1.15 -9.3 2.25 L-9.15 2.55 -9.15 2.55 -9.5 2.6 -9.6 2.6 -10.1 2.15 -10.7 1.65 -10.75 0.75 -10.75 0.45 -10.75 0.05 -10.75 -0.05 -10.95 -0.4 -10.95 -0.4 -11.45 -0.65 Q-12.25 -0.65 -13.1 -0.6 -13.4 -0.3 -13.7 0.05 L-13.7 -0.05 -13.9 -0.8 -13.9 -1.15 -13.95 -1.75 -14.0 -1.85 -14.2 -2.2 Q-14.7 -2.95 -15.5 -2.0 L-15.65 -2.0 -15.75 -2.1 -15.95 -2.2 -15.95 -2.3 -16.05 -2.85 -16.0 -3.95 -16.0 -4.05" fill="none" stroke="#000000" stroke-linecap="round" stroke-linejoin="round" stroke-opacity="0.0" stroke-width="1.0">
      <animate attributeName="stroke" dur="2s" repeatCount="indefinite" values="#000000;#000001"/>
      <animate attributeName="stroke-width" dur="2s" repeatCount="indefinite" values="0.0;0.0"/>
      <animate attributeName="fill-opacity" dur="2s" repeatCount="indefinite" values="0.0;0.0"/>
      <animate attributeName="d" dur="2s" repeatCount="indefinite" values="M-16.0 -4.05 L-15.0 -5.4 -14.9 -5.5 -14.85 -5.6 -13.7 -6.2 -11.8 -6.95 Q-7.55 -8.4 -2.15 -8.7 L0.4 -8.75 Q4.0 -8.5 7.65 -8.2 9.45 -7.8 11.3 -7.35 L11.7 -7.25 12.5 -6.95 14.45 -6.2 14.45 -6.2 14.55 -6.2 15.15 -5.95 15.25 -5.85 Q15.5 -5.25 16.15 -4.75 L16.35 -4.15 16.35 -3.95 16.5 -3.35 Q16.55 -2.7 16.6 -2.05 L16.55 -1.55 16.55 -1.55 16.45 -1.35 16.25 -1.7 15.4 -2.15 14.95 -2.2 Q13.7 -2.35 13.55 -1.25 L13.55 -0.9 13.65 -0.6 13.65 -0.5 Q14.0 0.1 13.95 0.65 13.8 1.05 13.6 1.45 13.35 1.15 13.05 0.8 L12.5 0.45 12.15 0.3 Q11.2 0.05 10.45 0.65 L10.25 0.85 Q10.15 0.95 10.05 1.05 L9.7 1.45 Q9.25 1.65 9.05 2.05 L8.95 2.35 Q8.8 2.65 8.6 2.95 8.35 2.6 8.05 2.25 L7.8 1.9 Q7.85 1.3 7.95 0.7 L7.95 0.6 7.9 0.25 7.6 -0.15 7.5 -0.25 7.25 -0.35 6.85 -0.45 Q6.35 -0.4 5.8 -0.35 L5.35 -0.1 Q5.15 0.1 4.95 0.35 4.75 0.7 4.7 1.2 L4.7 1.4 4.85 1.7 4.9 1.8 5.5 2.5 5.7 2.75 6.05 3.15 6.05 3.15 4.85 3.15 Q4.35 3.15 3.85 3.15 L3.75 3.05 3.45 2.8 3.35 2.7 3.35 2.7 3.4 2.45 3.5 2.15 Q3.65 1.35 3.45 0.6 3.2 -0.25 2.35 -0.3 L2.25 -0.3 2.05 -0.3 Q1.75 -0.2 1.4 -0.1 L1.4 -0.1 Q0.75 0.2 0.7 0.95 L0.7 1.5 -0.05 2.15 -0.05 2.15 -0.45 2.3 -0.4 1.95 Q-0.45 1.3 -0.95 0.85 -1.4 0.45 -1.85 0.4 -2.15 0.4 -2.45 0.45 L-3.15 0.9 Q-3.7 1.4 -3.8 2.05 L-3.8 2.35 -3.7 3.0 -3.7 3.1 -3.7 3.1 Q-4.0 3.35 -4.3 3.65 L-4.4 3.75 -4.7 3.9 -5.2 3.95 -5.2 3.55 -5.2 3.25 -5.15 2.7 -5.15 2.4 Q-5.15 2.2 -5.15 1.95 -5.2 1.2 -5.7 0.65 L-6.0 0.35 Q-6.4 0.05 -6.9 0.0 -7.6 0.05 -8.35 0.15 L-8.65 0.3 Q-8.8 0.4 -9.0 0.55 -9.8 1.15 -9.3 2.25 L-9.15 2.55 -9.15 2.55 -9.5 2.6 -9.6 2.6 -10.1 2.15 -10.7 1.65 -10.75 0.75 -10.75 0.45 -10.75 0.05 -10.75 -0.05 -10.95 -0.4 -10.95 -0.4 -11.45 -0.65 Q-12.25 -0.65 -13.1 -0.6 -13.4 -0.3 -13.7 0.05 L-13.7 -0.05 -13.9 -0.8 -13.9 -1.15 -13.95 -1.75 -14.0 -1.85 -14.2 -2.2 Q-14.7 -2.95 -15.5 -2.0 L-15.65 -2.0 -15.75 -2.1 -15.95 -2.2 -15.95 -2.3 -16.05 -2.85 -16.0 -3.95 -16.0 -4.05;M-18.9 -1.65 L-17.75 -3.6 -17.65 -3.7 -17.55 -3.8 -16.4 -4.7 -13.7 -6.2 Q-7.85 -8.75 0.4 -8.75 L4.1 -8.6 Q10.0 -8.15 14.45 -6.2 17.4 -4.9 18.9 -3.3 L19.15 -2.7 19.45 -1.4 19.1 1.5 18.9 1.7 18.9 1.7 18.3 2.45 18.1 2.65 Q17.45 3.25 16.75 3.9 L16.15 4.3 16.0 4.4 16.0 3.6 Q16.05 2.4 14.85 2.2 L14.25 2.3 13.85 2.55 13.55 2.8 13.2 3.25 12.8 4.3 12.8 5.05 Q12.05 6.0 11.25 6.95 L11.35 6.5 11.35 5.9 11.35 5.75 Q11.15 4.7 9.8 5.05 9.0 5.3 8.55 5.75 8.15 6.25 8.05 6.95 L8.05 7.8 8.15 8.3 Q8.8 9.75 8.75 11.35 L8.65 11.55 Q8.45 11.55 8.35 11.4 L8.05 11.1 Q7.45 10.75 6.85 10.4 L6.4 10.35 Q5.7 10.3 5.35 10.95 5.05 11.7 5.1 12.2 L5.2 12.65 Q5.45 13.35 6.55 13.7 L6.55 13.7 6.55 14.15 6.55 14.9 6.35 14.8 6.0 14.5 5.55 14.15 Q4.65 13.6 4.2 14.75 L3.7 15.55 Q3.55 15.85 3.65 16.2 3.95 17.05 3.85 17.8 L3.75 18.2 3.35 18.35 3.25 18.15 2.3 17.1 2.25 16.8 2.2 16.25 2.3 15.85 2.4 13.9 Q2.3 13.05 1.8 12.65 L1.7 12.55 1.05 12.35 0.95 12.35 0.75 12.3 0.45 12.35 0.1 12.65 Q-0.4 13.8 -0.3 14.9 -0.2 15.85 0.3 16.75 L0.3 16.75 0.35 17.1 Q0.6 17.65 0.4 18.2 L0.3 18.2 Q-0.3 17.55 -0.95 16.85 L-0.95 15.7 -1.25 14.55 -1.4 14.25 -1.7 13.45 -1.75 12.75 Q-1.7 11.9 -2.1 11.5 -2.5 11.05 -3.4 11.0 -3.9 11.0 -4.05 11.45 L-4.35 12.7 Q-4.4 13.65 -4.45 14.6 L-4.65 14.75 -5.15 15.35 -5.1 15.15 -5.1 15.05 Q-5.05 14.55 -5.4 14.2 L-5.4 14.2 -5.4 13.7 -5.45 13.0 -5.45 12.3 -5.25 12.0 -5.15 11.2 -5.2 10.7 Q-4.75 10.35 -4.7 9.8 -4.55 8.7 -4.9 7.75 L-5.15 7.1 Q-5.45 6.65 -5.75 6.2 -6.45 5.4 -7.55 5.25 L-8.25 5.2 Q-8.55 5.2 -8.7 5.45 -9.5 6.7 -8.2 7.75 L-8.2 8.1 -8.2 8.3 -8.25 8.8 -8.25 8.95 -8.55 8.5 -9.1 7.75 -9.9 6.9 -10.2 6.4 -10.5 6.0 -10.7 5.7 -11.1 5.15 -11.2 5.05 -12.0 4.25 Q-12.95 3.25 -14.25 3.1 -14.9 3.2 -15.0 3.85 L-15.0 3.95 -14.85 4.85 -15.25 4.6 -16.2 3.95 -16.3 3.85 -16.75 3.4 Q-17.5 2.55 -18.25 1.65 L-18.4 1.45 -18.5 1.25 -18.55 1.0 -18.6 0.8 -18.85 0.0 -18.9 -1.65 -18.9 -1.65"/>
    </path>
  </g>
  <defs>
    <radialGradient cx="0" cy="0" gradientTransform="matrix(0.0351, 0.0, 0.0, 0.0351, 1.0, -0.75)" gradientUnits="userSpaceOnUse" id="gradient0" r="819.2" spreadMethod="pad">
      <animateTransform additive="replace" attributeName="gradientTransform" dur="2s" from="1" repeatCount="indefinite" to="1" type="scale"/>
      <animateTransform additive="sum" attributeName="gradientTransform" dur="2s" from="1.0 -0.75" repeatCount="indefinite" to="1.0 -0.75" type="translate"/>
      <animateTransform additive="sum" attributeName="gradientTransform" dur="2s" from="0.0" repeatCount="indefinite" to="0.0" type="rotate"/>
      <animateTransform additive="sum" attributeName="gradientTransform" dur="2s" from="0.0351 0.0351" repeatCount="indefinite" to="0.0351 0.0351" type="scale"/>
      <animateTransform additive="sum" attributeName="gradientTransform" dur="2s" from="0.0" repeatCount="indefinite" to="0.0" type="skewX"/>
      <stop offset="0.0" stop-color="#fefe0c" stop-opacity="0.9019608">
        <animate attributeName="offset" dur="2s" repeatCount="indefinite" values="0.0;0.0"/>
        <animate attributeName="stop-color" dur="2s" repeatCount="indefinite" values="#fefe0c;#fefe0d"/>
        <animate attributeName="stop-opacity" dur="2s" repeatCount="indefinite" values="0.9019608;0.9019608"/>
      </stop>
      <stop offset="0.5764705882352941" stop-color="#ffba2b" stop-opacity="0.9019608">
        <animate attributeName="offset" dur="2s" repeatCount="indefinite" values="0.5764705882352941;0.5764705882352941"/>
        <animate attributeName="stop-color" dur="2s" repeatCount="indefinite" values="#ffba2b;#ffba2c"/>
        <animate attributeName="stop-opacity" dur="2s" repeatCount="indefinite" values="0.9019608;0.9019608"/>
      </stop>
      <stop offset="1.0" stop-color="#ff720b" stop-opacity="0.9019608">
        <animate attributeName="offset" dur="2s" repeatCount="indefinite" values="1.0;1.0"/>
        <animate attributeName="stop-color" dur="2s" repeatCount="indefinite" values="#ff720b;#ff720c"/>
        <animate attributeName="stop-opacity" dur="2s" repeatCount="indefinite" values="0.9019608;0.9019608"/>
      </stop>
    </radialGradient>
  </defs>
</svg>
