<?xml version="1.0" encoding="UTF-8" standalone="no"?>
<svg xmlns:xlink="http://www.w3.org/1999/xlink" height="25.45px" width="19.05px" xmlns="http://www.w3.org/2000/svg">
  <g transform="matrix(1.0, 0.0, 0.0, 1.0, 8.55, 9.95)">
    <path d="M-6.65 -4.5 L-6.65 -4.5 -6.5 -4.3 Q-5.85 -3.65 -5.95 -2.9 L-6.3 -2.0 -6.5 -1.7 -6.6 -1.6 -6.55 -1.1 -6.4 -0.8 Q-5.95 -1.25 -5.5 -1.3 L-5.1 -1.35 -4.4 -1.0 -4.1 -0.7 -4.0 -0.6 -3.7 -0.1 -3.5 0.6 -3.5 0.9 -3.7 1.8 Q-3.3 2.5 -2.9 3.2 L-2.9 3.3 -2.75 3.4 -2.7 3.4 -2.7 3.4 Q-2.75 3.0 -2.8 2.65 L-2.8 2.55 -2.8 2.35 -2.8 2.25 -2.8 2.0 -2.8 1.6 Q-2.6 0.9 -2.4 0.25 L-2.25 0.0 -1.7 -0.35 -1.6 -0.4 -0.65 -0.4 Q-0.3 -0.25 -0.1 0.05 L0.1 0.45 0.05 0.85 0.05 0.95 -0.1 1.25 -0.2 1.5 -0.55 1.85 -0.5 1.95 -0.45 2.15 -0.45 2.45 -0.15 2.9 -0.05 3.0 0.5 3.3 0.65 3.3 Q0.5 2.65 0.65 2.2 L0.85 1.85 Q1.15 1.45 1.8 1.25 L2.1 1.25 2.3 1.4 2.55 1.75 2.85 1.9 2.85 1.9 2.95 1.95 2.95 1.75 3.05 1.35 3.15 0.85 3.35 0.2 3.65 -0.05 4.25 -0.25 Q4.85 -0.15 5.45 -0.05 L6.05 0.4 6.05 0.1 6.05 -0.1 6.05 -0.55 6.05 -0.95 6.05 -1.05 5.8 -1.25 5.65 -1.45 Q5.1 -2.15 5.3 -3.1 L5.4 -3.45 Q5.7 -3.7 5.95 -3.9 L6.25 -4.0 Q6.75 -3.95 7.2 -3.95 L7.75 -3.65 7.85 -3.55 7.85 -4.35 7.55 -6.15 7.45 -6.55 7.25 -7.05 7.05 -7.5 Q5.6 -8.85 3.85 -9.45 2.35 -9.7 0.85 -9.95 L-1.2 -9.75 Q-3.6 -9.2 -5.5 -7.4 L-6.0 -6.9 -6.45 -6.35 -6.5 -5.9 -6.65 -4.5" fill="url(#gradient0)" fill-rule="evenodd" stroke="none">
      <animate attributeName="d" dur="2s" repeatCount="indefinite" values="M-6.65 -4.5 L-6.65 -4.5 -6.5 -4.3 Q-5.85 -3.65 -5.95 -2.9 L-6.3 -2.0 -6.5 -1.7 -6.6 -1.6 -6.55 -1.1 -6.4 -0.8 Q-5.95 -1.25 -5.5 -1.3 L-5.1 -1.35 -4.4 -1.0 -4.1 -0.7 -4.0 -0.6 -3.7 -0.1 -3.5 0.6 -3.5 0.9 -3.7 1.8 Q-3.3 2.5 -2.9 3.2 L-2.9 3.3 -2.75 3.4 -2.7 3.4 -2.7 3.4 Q-2.75 3.0 -2.8 2.65 L-2.8 2.55 -2.8 2.35 -2.8 2.25 -2.8 2.0 -2.8 1.6 Q-2.6 0.9 -2.4 0.25 L-2.25 0.0 -1.7 -0.35 -1.6 -0.4 -0.65 -0.4 Q-0.3 -0.25 -0.1 0.05 L0.1 0.45 0.05 0.85 0.05 0.95 -0.1 1.25 -0.2 1.5 -0.55 1.85 -0.5 1.95 -0.45 2.15 -0.45 2.45 -0.15 2.9 -0.05 3.0 0.5 3.3 0.65 3.3 Q0.5 2.65 0.65 2.2 L0.85 1.85 Q1.15 1.45 1.8 1.25 L2.1 1.25 2.3 1.4 2.55 1.75 2.85 1.9 2.85 1.9 2.95 1.95 2.95 1.75 3.05 1.35 3.15 0.85 3.35 0.2 3.65 -0.05 4.25 -0.25 Q4.85 -0.15 5.45 -0.05 L6.05 0.4 6.05 0.1 6.05 -0.1 6.05 -0.55 6.05 -0.95 6.05 -1.05 5.8 -1.25 5.65 -1.45 Q5.1 -2.15 5.3 -3.1 L5.4 -3.45 Q5.7 -3.7 5.95 -3.9 L6.25 -4.0 Q6.75 -3.95 7.2 -3.95 L7.75 -3.65 7.85 -3.55 7.85 -4.35 7.55 -6.15 7.45 -6.55 7.25 -7.05 7.05 -7.5 Q5.6 -8.85 3.85 -9.45 2.35 -9.7 0.85 -9.95 L-1.2 -9.75 Q-3.6 -9.2 -5.5 -7.4 L-6.0 -6.9 -6.45 -6.35 -6.5 -5.9 -6.65 -4.5;M-8.55 -2.0 L-8.45 -1.65 -8.45 -1.4 Q-8.45 -0.2 -8.45 1.0 L-7.5 2.5 -7.25 3.0 -7.05 3.1 -6.4 3.7 -6.05 4.25 Q-5.75 4.95 -5.9 5.9 L-5.95 6.55 -5.2 7.8 -4.6 8.5 -4.55 8.45 -4.55 7.4 -4.45 6.35 -4.2 6.1 -2.9 6.15 Q-1.95 6.45 -1.6 7.75 L-1.5 7.85 -1.45 7.95 -1.45 8.05 -1.45 8.45 Q-1.4 9.2 -1.6 9.85 L-1.6 9.95 -1.5 10.15 -1.45 10.2 -1.3 10.1 -1.05 9.8 Q-1.15 8.45 0.1 8.55 L0.4 8.6 1.05 9.05 1.15 9.25 1.35 10.5 Q1.25 11.1 1.2 11.7 L1.05 12.3 0.75 12.75 0.65 12.85 0.55 12.95 0.55 13.5 0.55 14.0 0.55 14.1 0.85 14.5 1.2 14.9 1.6 15.3 1.8 15.5 1.8 14.7 1.8 14.5 Q1.85 13.55 1.85 12.65 L2.05 12.4 Q3.0 12.05 3.65 12.8 L3.85 13.0 4.15 13.45 4.5 14.0 4.75 14.5 4.75 14.5 4.85 14.4 4.95 14.2 4.95 13.5 4.95 12.7 4.55 12.05 4.2 11.3 4.0 10.55 Q3.85 9.5 4.65 9.05 L5.9 9.15 6.35 9.7 6.45 9.55 6.4 8.85 6.15 8.1 6.15 8.0 5.85 7.3 5.8 7.0 Q5.05 5.7 5.85 4.6 L6.2 4.2 Q6.6 3.85 7.1 4.05 L7.65 4.35 Q8.3 4.85 8.35 5.7 L8.85 4.8 9.05 4.5 9.9 3.0 10.4 0.45 10.5 -0.05 10.4 -0.75 10.35 -1.35 Q9.85 -4.55 7.65 -6.9 6.0 -8.7 3.9 -9.45 L0.85 -9.95 Q-3.15 -9.95 -6.0 -6.9 L-6.75 -6.0 -7.4 -5.0 -7.85 -4.1 -8.55 -2.0"/>
    </path>
    <path d="M-6.65 -4.5 L-6.5 -5.9 -6.45 -6.35 -6.0 -6.9 -5.5 -7.4 Q-3.6 -9.2 -1.2 -9.75 L0.85 -9.95 Q2.35 -9.7 3.85 -9.45 5.6 -8.85 7.05 -7.5 L7.25 -7.05 7.45 -6.55 7.55 -6.15 7.85 -4.35 7.85 -3.55 7.75 -3.65 7.2 -3.95 Q6.75 -3.95 6.25 -4.0 L5.95 -3.9 Q5.7 -3.7 5.4 -3.45 L5.3 -3.1 Q5.1 -2.15 5.65 -1.45 L5.8 -1.25 6.05 -1.05 6.05 -0.95 6.05 -0.55 6.05 -0.1 6.05 0.1 6.05 0.4 5.45 -0.05 Q4.85 -0.15 4.25 -0.25 L3.65 -0.05 3.35 0.2 3.15 0.85 3.05 1.35 2.95 1.75 2.95 1.95 2.85 1.9 2.85 1.9 2.55 1.75 2.3 1.4 2.1 1.25 1.8 1.25 Q1.15 1.45 0.85 1.85 L0.65 2.2 Q0.5 2.65 0.65 3.3 L0.5 3.3 -0.05 3.0 -0.15 2.9 -0.45 2.45 -0.45 2.15 -0.5 1.95 -0.55 1.85 -0.2 1.5 -0.1 1.25 0.05 0.95 0.05 0.85 0.1 0.45 -0.1 0.05 Q-0.3 -0.25 -0.65 -0.4 L-1.6 -0.4 -1.7 -0.35 -2.25 0.0 -2.4 0.25 Q-2.6 0.9 -2.8 1.6 L-2.8 2.0 -2.8 2.25 -2.8 2.35 -2.8 2.55 -2.8 2.65 Q-2.75 3.0 -2.7 3.4 L-2.7 3.4 -2.75 3.4 -2.9 3.3 -2.9 3.2 Q-3.3 2.5 -3.7 1.8 L-3.5 0.9 -3.5 0.6 -3.7 -0.1 -4.0 -0.6 -4.1 -0.7 -4.4 -1.0 -5.1 -1.35 -5.5 -1.3 Q-5.95 -1.25 -6.4 -0.8 L-6.55 -1.1 -6.6 -1.6 -6.5 -1.7 -6.3 -2.0 -5.95 -2.9 Q-5.85 -3.65 -6.5 -4.3 L-6.65 -4.5 -6.65 -4.5" fill="none" stroke="#000000" stroke-linecap="round" stroke-linejoin="round" stroke-opacity="0.0" stroke-width="1.0">
      <animate attributeName="stroke" dur="2s" repeatCount="indefinite" values="#000000;#000001"/>
      <animate attributeName="stroke-width" dur="2s" repeatCount="indefinite" values="0.0;0.0"/>
      <animate attributeName="fill-opacity" dur="2s" repeatCount="indefinite" values="0.0;0.0"/>
      <animate attributeName="d" dur="2s" repeatCount="indefinite" values="M-6.65 -4.5 L-6.5 -5.9 -6.45 -6.35 -6.0 -6.9 -5.5 -7.4 Q-3.6 -9.2 -1.2 -9.75 L0.85 -9.95 Q2.35 -9.7 3.85 -9.45 5.6 -8.85 7.05 -7.5 L7.25 -7.05 7.45 -6.55 7.55 -6.15 7.85 -4.35 7.85 -3.55 7.75 -3.65 7.2 -3.95 Q6.75 -3.95 6.25 -4.0 L5.95 -3.9 Q5.7 -3.7 5.4 -3.45 L5.3 -3.1 Q5.1 -2.15 5.65 -1.45 L5.8 -1.25 6.05 -1.05 6.05 -0.95 6.05 -0.55 6.05 -0.1 6.05 0.1 6.05 0.4 5.45 -0.05 Q4.85 -0.15 4.25 -0.25 L3.65 -0.05 3.35 0.2 3.15 0.85 3.05 1.35 2.95 1.75 2.95 1.95 2.85 1.9 2.85 1.9 2.55 1.75 2.3 1.4 2.1 1.25 1.8 1.25 Q1.15 1.45 0.85 1.85 L0.65 2.2 Q0.5 2.65 0.65 3.3 L0.5 3.3 -0.05 3.0 -0.15 2.9 -0.45 2.45 -0.45 2.15 -0.5 1.95 -0.55 1.85 -0.2 1.5 -0.1 1.25 0.05 0.95 0.05 0.85 0.1 0.45 -0.1 0.05 Q-0.3 -0.25 -0.65 -0.4 L-1.6 -0.4 -1.7 -0.35 -2.25 0.0 -2.4 0.25 Q-2.6 0.9 -2.8 1.6 L-2.8 2.0 -2.8 2.25 -2.8 2.35 -2.8 2.55 -2.8 2.65 Q-2.75 3.0 -2.7 3.4 L-2.7 3.4 -2.75 3.4 -2.9 3.3 -2.9 3.2 Q-3.3 2.5 -3.7 1.8 L-3.5 0.9 -3.5 0.6 -3.7 -0.1 -4.0 -0.6 -4.1 -0.7 -4.4 -1.0 -5.1 -1.35 -5.5 -1.3 Q-5.95 -1.25 -6.4 -0.8 L-6.55 -1.1 -6.6 -1.6 -6.5 -1.7 -6.3 -2.0 -5.95 -2.9 Q-5.85 -3.65 -6.5 -4.3 L-6.65 -4.5 -6.65 -4.5;M-8.55 -2.0 L-7.85 -4.1 -7.4 -5.0 -6.75 -6.0 -6.0 -6.9 Q-3.15 -9.95 0.85 -9.95 L3.9 -9.45 Q6.0 -8.7 7.65 -6.9 9.85 -4.55 10.35 -1.35 L10.4 -0.75 10.5 -0.05 10.4 0.45 9.9 3.0 9.05 4.5 8.85 4.8 8.35 5.7 Q8.3 4.85 7.65 4.35 L7.1 4.05 Q6.6 3.85 6.2 4.2 L5.85 4.6 Q5.05 5.7 5.8 7.0 L5.85 7.3 6.15 8.0 6.15 8.1 6.4 8.85 6.45 9.55 6.35 9.7 5.9 9.15 4.65 9.05 Q3.85 9.5 4.0 10.55 L4.2 11.3 4.55 12.05 4.95 12.7 4.95 13.5 4.95 14.2 4.85 14.4 4.75 14.5 4.75 14.5 4.5 14.0 4.15 13.45 3.85 13.0 3.65 12.8 Q3.0 12.05 2.05 12.4 L1.85 12.65 Q1.85 13.55 1.8 14.5 L1.8 14.7 1.8 15.5 1.6 15.3 1.2 14.9 0.85 14.5 0.55 14.1 0.55 14.0 0.55 13.5 0.55 12.95 0.65 12.85 0.75 12.75 1.05 12.3 1.2 11.7 Q1.25 11.1 1.35 10.5 L1.15 9.25 1.05 9.05 0.4 8.6 0.1 8.55 Q-1.15 8.45 -1.05 9.8 L-1.3 10.1 -1.45 10.2 -1.5 10.15 -1.6 9.95 -1.6 9.85 Q-1.4 9.2 -1.45 8.45 L-1.45 8.05 -1.45 7.95 -1.5 7.85 -1.6 7.75 Q-1.95 6.45 -2.9 6.15 L-4.2 6.1 -4.45 6.35 -4.55 7.4 -4.55 8.45 -4.6 8.5 -5.2 7.8 -5.95 6.55 -5.9 5.9 Q-5.75 4.95 -6.05 4.25 L-6.4 3.7 -7.05 3.1 -7.25 3.0 -7.5 2.5 -8.45 1.0 Q-8.45 -0.2 -8.45 -1.4 L-8.45 -1.65 -8.55 -2.0"/>
    </path>
  </g>
  <defs>
    <radialGradient cx="0" cy="0" gradientTransform="matrix(0.0246, 0.0, 0.0, 0.0246, 1.9, 10.15)" gradientUnits="userSpaceOnUse" id="gradient0" r="819.2" spreadMethod="pad">
      <animateTransform additive="replace" attributeName="gradientTransform" dur="2s" from="1" repeatCount="indefinite" to="1" type="scale"/>
      <animateTransform additive="sum" attributeName="gradientTransform" dur="2s" from="1.9 10.15" repeatCount="indefinite" to="1.9 10.15" type="translate"/>
      <animateTransform additive="sum" attributeName="gradientTransform" dur="2s" from="0.0" repeatCount="indefinite" to="0.0" type="rotate"/>
      <animateTransform additive="sum" attributeName="gradientTransform" dur="2s" from="0.0246 0.0246" repeatCount="indefinite" to="0.0246 0.0246" type="scale"/>
      <animateTransform additive="sum" attributeName="gradientTransform" dur="2s" from="0.0" repeatCount="indefinite" to="0.0" type="skewX"/>
      <stop offset="0.0" stop-color="#fefe0c" stop-opacity="0.9019608">
        <animate attributeName="offset" dur="2s" repeatCount="indefinite" values="0.0;0.0"/>
        <animate attributeName="stop-color" dur="2s" repeatCount="indefinite" values="#fefe0c;#fefe0d"/>
        <animate attributeName="stop-opacity" dur="2s" repeatCount="indefinite" values="0.9019608;0.9019608"/>
      </stop>
      <stop offset="0.5764705882352941" stop-color="#ffba2b" stop-opacity="0.9019608">
        <animate attributeName="offset" dur="2s" repeatCount="indefinite" values="0.5764705882352941;0.5764705882352941"/>
        <animate attributeName="stop-color" dur="2s" repeatCount="indefinite" values="#ffba2b;#ffba2c"/>
        <animate attributeName="stop-opacity" dur="2s" repeatCount="indefinite" values="0.9019608;0.9019608"/>
      </stop>
      <stop offset="1.0" stop-color="#ff720b" stop-opacity="0.9019608">
        <animate attributeName="offset" dur="2s" repeatCount="indefinite" values="1.0;1.0"/>
        <animate attributeName="stop-color" dur="2s" repeatCount="indefinite" values="#ff720b;#ff720c"/>
        <animate attributeName="stop-opacity" dur="2s" repeatCount="indefinite" values="0.9019608;0.9019608"/>
      </stop>
    </radialGradient>
  </defs>
</svg>
