<?xml version="1.0" encoding="UTF-8" standalone="no"?>
<svg xmlns:xlink="http://www.w3.org/1999/xlink" height="5.9px" width="4.75px" xmlns="http://www.w3.org/2000/svg">
  <g transform="matrix(1.0, 0.0, 0.0, 1.0, 17.5, 4.15)">
    <path d="M-16.05 -2.7 L-16.05 -2.7 Q-15.6 -2.4 -15.05 -2.45 L-14.65 -2.5 Q-14.5 -2.3 -14.35 -2.1 -14.05 -1.8 -13.65 -1.85 L-13.45 -1.85 -13.2 -1.95 Q-12.7 -2.1 -12.75 -2.65 L-12.85 -3.15 Q-13.05 -3.55 -13.55 -3.0 L-13.7 -3.0 -13.8 -3.05 -13.8 -3.1 -13.75 -3.5 -13.8 -3.75 -14.25 -4.15 -14.4 -4.1 -14.55 -4.0 -14.75 -3.8 -15.2 -3.8 -15.4 -3.7 -15.5 -3.7 Q-15.95 -3.5 -16.05 -2.9 L-16.05 -2.7" fill="#000000" fill-rule="evenodd" stroke="none">
      <animate attributeName="fill" dur="2s" repeatCount="indefinite" values="#000000;#000001"/>
      <animate attributeName="fill-opacity" dur="2s" repeatCount="indefinite" values="1.0;1.0"/>
      <animate attributeName="d" dur="2s" repeatCount="indefinite" values="M-16.05 -2.7 L-16.05 -2.7 Q-15.6 -2.4 -15.05 -2.45 L-14.65 -2.5 Q-14.5 -2.3 -14.35 -2.1 -14.05 -1.8 -13.65 -1.85 L-13.45 -1.85 -13.2 -1.95 Q-12.7 -2.1 -12.75 -2.65 L-12.85 -3.15 Q-13.05 -3.55 -13.55 -3.0 L-13.7 -3.0 -13.8 -3.05 -13.8 -3.1 -13.75 -3.5 -13.8 -3.75 -14.25 -4.15 -14.4 -4.1 -14.55 -4.0 -14.75 -3.8 -15.2 -3.8 -15.4 -3.7 -15.5 -3.7 Q-15.95 -3.5 -16.05 -2.9 L-16.05 -2.7;M-17.5 0.45 L-17.5 0.55 Q-17.45 1.0 -17.45 1.45 L-17.05 1.75 Q-16.85 1.75 -16.65 1.55 -16.25 1.6 -15.85 1.6 L-15.7 1.6 -15.6 1.5 Q-15.15 1.35 -14.75 1.2 L-14.35 0.8 Q-14.05 0.35 -14.1 0.0 L-14.1 -0.1 -14.15 -0.2 -14.15 -0.3 -14.5 -0.65 -14.65 -0.55 -15.05 -0.1 -15.1 0.0 -15.15 0.15 -15.65 0.05 -16.05 0.25 -16.3 0.25 -16.4 0.2 Q-16.95 0.15 -17.45 0.15 L-17.5 0.45"/>
    </path>
    <path d="M-16.05 -2.7 L-16.05 -2.9 Q-15.95 -3.5 -15.5 -3.7 L-15.4 -3.7 -15.2 -3.8 -14.75 -3.8 -14.55 -4.0 -14.4 -4.1 -14.25 -4.15 -13.8 -3.75 -13.75 -3.5 -13.8 -3.1 -13.8 -3.05 -13.7 -3.0 -13.55 -3.0 Q-13.05 -3.55 -12.85 -3.15 L-12.75 -2.65 Q-12.7 -2.1 -13.2 -1.95 L-13.45 -1.85 -13.65 -1.85 Q-14.05 -1.8 -14.35 -2.1 -14.5 -2.3 -14.65 -2.5 L-15.05 -2.45 Q-15.6 -2.4 -16.05 -2.7 L-16.05 -2.7" fill="none" stroke="#000000" stroke-linecap="round" stroke-linejoin="round" stroke-opacity="0.0" stroke-width="1.0">
      <animate attributeName="stroke" dur="2s" repeatCount="indefinite" values="#000000;#000001"/>
      <animate attributeName="stroke-width" dur="2s" repeatCount="indefinite" values="0.0;0.0"/>
      <animate attributeName="fill-opacity" dur="2s" repeatCount="indefinite" values="0.0;0.0"/>
      <animate attributeName="d" dur="2s" repeatCount="indefinite" values="M-16.05 -2.7 L-16.05 -2.9 Q-15.95 -3.5 -15.5 -3.7 L-15.4 -3.7 -15.2 -3.8 -14.75 -3.8 -14.55 -4.0 -14.4 -4.1 -14.25 -4.15 -13.8 -3.75 -13.75 -3.5 -13.8 -3.1 -13.8 -3.05 -13.7 -3.0 -13.55 -3.0 Q-13.05 -3.55 -12.85 -3.15 L-12.75 -2.65 Q-12.7 -2.1 -13.2 -1.95 L-13.45 -1.85 -13.65 -1.85 Q-14.05 -1.8 -14.35 -2.1 -14.5 -2.3 -14.65 -2.5 L-15.05 -2.45 Q-15.6 -2.4 -16.05 -2.7 L-16.05 -2.7;M-17.5 0.45 L-17.45 0.15 Q-16.95 0.15 -16.4 0.2 L-16.3 0.25 -16.05 0.25 -15.65 0.05 -15.15 0.15 -15.1 0.0 -15.05 -0.1 -14.65 -0.55 -14.5 -0.65 -14.15 -0.3 -14.15 -0.2 -14.1 -0.1 -14.1 0.0 Q-14.05 0.35 -14.35 0.8 L-14.75 1.2 Q-15.15 1.35 -15.6 1.5 L-15.7 1.6 -15.85 1.6 Q-16.25 1.6 -16.65 1.55 -16.85 1.75 -17.05 1.75 L-17.45 1.45 Q-17.45 1.0 -17.5 0.55 L-17.5 0.45"/>
    </path>
  </g>
</svg>
