<?xml version="1.0" encoding="UTF-8" standalone="no"?>
<svg xmlns:xlink="http://www.w3.org/1999/xlink" height="5.6px" width="5.25px" xmlns="http://www.w3.org/2000/svg">
  <g transform="matrix(1.0, 0.0, 0.0, 1.0, 7.55, 5.9)">
    <path d="M-6.55 -3.95 L-6.45 -3.85 Q-5.85 -3.5 -5.55 -4.15 L-5.35 -4.15 -5.15 -4.25 -4.95 -3.9 Q-4.65 -3.45 -4.25 -3.6 L-4.05 -3.7 Q-3.85 -3.9 -3.65 -4.05 L-3.25 -4.05 -2.9 -4.25 -2.6 -4.8 -2.5 -4.9 -2.4 -5.05 -2.3 -5.35 -2.3 -5.45 Q-2.55 -5.7 -2.8 -5.9 L-3.3 -5.65 -3.3 -5.55 -3.3 -5.45 -3.5 -5.25 -3.65 -5.15 -3.85 -5.2 -4.2 -5.05 -4.4 -4.9 -4.45 -4.95 Q-4.65 -5.55 -5.3 -5.45 L-5.3 -5.55 -5.75 -5.9 -5.75 -5.85 -5.95 -5.75 -5.95 -5.75 -6.45 -5.35 -6.5 -5.2 -6.5 -5.1 -6.5 -4.9 -6.5 -4.8 -6.55 -3.95" fill="#000000" fill-rule="evenodd" stroke="none">
      <animate attributeName="fill" dur="2s" repeatCount="indefinite" values="#000000;#000001"/>
      <animate attributeName="fill-opacity" dur="2s" repeatCount="indefinite" values="1.0;1.0"/>
      <animate attributeName="d" dur="2s" repeatCount="indefinite" values="M-6.55 -3.95 L-6.45 -3.85 Q-5.85 -3.5 -5.55 -4.15 L-5.35 -4.15 -5.15 -4.25 -4.95 -3.9 Q-4.65 -3.45 -4.25 -3.6 L-4.05 -3.7 Q-3.85 -3.9 -3.65 -4.05 L-3.25 -4.05 -2.9 -4.25 -2.6 -4.8 -2.5 -4.9 -2.4 -5.05 -2.3 -5.35 -2.3 -5.45 Q-2.55 -5.7 -2.8 -5.9 L-3.3 -5.65 -3.3 -5.55 -3.3 -5.45 -3.5 -5.25 -3.65 -5.15 -3.85 -5.2 -4.2 -5.05 -4.4 -4.9 -4.45 -4.95 Q-4.65 -5.55 -5.3 -5.45 L-5.3 -5.55 -5.75 -5.9 -5.75 -5.85 -5.95 -5.75 -5.95 -5.75 -6.45 -5.35 -6.5 -5.2 -6.5 -5.1 -6.5 -4.9 -6.5 -4.8 -6.55 -3.95;M-7.55 -1.65 L-7.55 -1.65 Q-7.5 -1.2 -7.45 -0.75 L-7.45 -0.55 -7.3 -0.4 -7.05 -0.35 Q-6.55 -0.45 -6.5 -0.7 L-6.4 -0.55 Q-6.0 -0.15 -5.65 -0.35 L-5.35 -0.7 -5.0 -0.6 -4.35 -0.7 -4.15 -0.8 -3.9 -0.95 -3.6 -1.2 -3.55 -1.25 Q-3.4 -1.45 -3.5 -1.65 L-3.55 -1.8 -3.65 -1.95 -3.75 -2.05 -4.0 -2.15 -4.3 -2.05 -4.5 -1.95 -4.7 -1.75 -4.8 -1.85 -4.9 -1.85 Q-5.35 -1.9 -5.75 -1.9 L-5.85 -1.9 -6.25 -2.25 -6.35 -2.25 -6.55 -2.3 -6.6 -2.35 -7.0 -2.65 -7.0 -2.6 -7.15 -2.6 -7.25 -2.55 -7.35 -2.4 -7.55 -1.65"/>
    </path>
    <path d="M-6.55 -3.95 L-6.5 -4.8 -6.5 -4.9 -6.5 -5.1 -6.5 -5.2 -6.45 -5.35 -5.95 -5.75 -5.95 -5.75 -5.75 -5.85 -5.75 -5.9 -5.3 -5.55 -5.3 -5.45 Q-4.65 -5.55 -4.45 -4.95 L-4.4 -4.9 -4.2 -5.05 -3.85 -5.2 -3.65 -5.15 -3.5 -5.25 -3.3 -5.45 -3.3 -5.55 -3.3 -5.65 -2.8 -5.9 Q-2.55 -5.7 -2.3 -5.45 L-2.3 -5.35 -2.4 -5.05 -2.5 -4.9 -2.6 -4.8 -2.9 -4.25 -3.25 -4.05 -3.65 -4.05 Q-3.85 -3.9 -4.05 -3.7 L-4.25 -3.6 Q-4.65 -3.45 -4.95 -3.9 L-5.15 -4.25 -5.35 -4.15 -5.55 -4.15 Q-5.85 -3.5 -6.45 -3.85 L-6.55 -3.95" fill="none" stroke="#000000" stroke-linecap="round" stroke-linejoin="round" stroke-opacity="0.0" stroke-width="1.0">
      <animate attributeName="stroke" dur="2s" repeatCount="indefinite" values="#000000;#000001"/>
      <animate attributeName="stroke-width" dur="2s" repeatCount="indefinite" values="0.0;0.0"/>
      <animate attributeName="fill-opacity" dur="2s" repeatCount="indefinite" values="0.0;0.0"/>
      <animate attributeName="d" dur="2s" repeatCount="indefinite" values="M-6.55 -3.95 L-6.5 -4.8 -6.5 -4.9 -6.5 -5.1 -6.5 -5.2 -6.45 -5.35 -5.95 -5.75 -5.95 -5.75 -5.75 -5.85 -5.75 -5.9 -5.3 -5.55 -5.3 -5.45 Q-4.65 -5.55 -4.45 -4.95 L-4.4 -4.9 -4.2 -5.05 -3.85 -5.2 -3.65 -5.15 -3.5 -5.25 -3.3 -5.45 -3.3 -5.55 -3.3 -5.65 -2.8 -5.9 Q-2.55 -5.7 -2.3 -5.45 L-2.3 -5.35 -2.4 -5.05 -2.5 -4.9 -2.6 -4.8 -2.9 -4.25 -3.25 -4.05 -3.65 -4.05 Q-3.85 -3.9 -4.05 -3.7 L-4.25 -3.6 Q-4.65 -3.45 -4.95 -3.9 L-5.15 -4.25 -5.35 -4.15 -5.55 -4.15 Q-5.85 -3.5 -6.45 -3.85 L-6.55 -3.95;M-7.55 -1.65 L-7.35 -2.4 -7.25 -2.55 -7.15 -2.6 -7.0 -2.6 -7.0 -2.65 -6.6 -2.35 -6.55 -2.3 -6.35 -2.25 -6.25 -2.25 -5.85 -1.9 -5.75 -1.9 Q-5.35 -1.9 -4.9 -1.85 L-4.8 -1.85 -4.7 -1.75 -4.5 -1.95 -4.3 -2.05 -4.0 -2.15 -3.75 -2.05 -3.65 -1.95 -3.55 -1.8 -3.5 -1.65 Q-3.4 -1.45 -3.55 -1.25 L-3.6 -1.2 -3.9 -0.95 -4.15 -0.8 -4.35 -0.7 -5.0 -0.6 -5.35 -0.7 -5.65 -0.35 Q-6.0 -0.15 -6.4 -0.55 L-6.5 -0.7 Q-6.55 -0.45 -7.05 -0.35 L-7.3 -0.4 -7.45 -0.55 -7.45 -0.75 Q-7.5 -1.2 -7.55 -1.65 L-7.55 -1.65"/>
    </path>
  </g>
</svg>
