<?xml version="1.0" encoding="UTF-8" standalone="no"?>
<svg xmlns:xlink="http://www.w3.org/1999/xlink" height="4.85px" width="4.0px" xmlns="http://www.w3.org/2000/svg">
  <g transform="matrix(1.0, 0.0, 0.0, 1.0, -7.65, 3.9)">
    <path d="M7.7 -2.2 L7.8 -2.1 Q8.15 -1.75 8.5 -2.1 8.7 -1.95 8.9 -1.95 9.1 -1.9 9.3 -2.15 L9.5 -2.15 Q9.95 -2.15 10.15 -2.6 L10.2 -2.55 10.2 -2.55 Q10.6 -2.15 10.95 -2.2 L11.6 -2.85 11.6 -2.95 11.15 -3.4 10.7 -3.45 10.7 -3.55 10.55 -3.8 10.3 -3.9 10.15 -3.9 10.15 -3.85 10.0 -3.85 9.95 -3.8 9.95 -3.8 9.2 -3.2 9.05 -3.2 8.9 -3.35 8.65 -3.5 Q8.1 -3.75 7.75 -3.05 L7.75 -2.75 7.7 -2.2" fill="#000000" fill-rule="evenodd" stroke="none">
      <animate attributeName="fill" dur="2s" repeatCount="indefinite" values="#000000;#000001"/>
      <animate attributeName="fill-opacity" dur="2s" repeatCount="indefinite" values="1.0;1.0"/>
      <animate attributeName="d" dur="2s" repeatCount="indefinite" values="M7.7 -2.2 L7.8 -2.1 Q8.15 -1.75 8.5 -2.1 8.7 -1.95 8.9 -1.95 9.1 -1.9 9.3 -2.15 L9.5 -2.15 Q9.95 -2.15 10.15 -2.6 L10.2 -2.55 10.2 -2.55 Q10.6 -2.15 10.95 -2.2 L11.6 -2.85 11.6 -2.95 11.15 -3.4 10.7 -3.45 10.7 -3.55 10.55 -3.8 10.3 -3.9 10.15 -3.9 10.15 -3.85 10.0 -3.85 9.95 -3.8 9.95 -3.8 9.2 -3.2 9.05 -3.2 8.9 -3.35 8.65 -3.5 Q8.1 -3.75 7.75 -3.05 L7.75 -2.75 7.7 -2.2;M8.05 0.7 L8.05 0.7 Q8.35 1.05 8.7 0.95 8.85 0.85 9.0 0.8 9.3 0.85 9.55 0.85 L9.75 0.85 Q10.15 0.75 10.55 0.65 L10.65 0.65 10.65 0.65 Q10.9 0.5 11.15 0.4 L11.65 -0.25 11.65 -0.4 11.25 -0.95 11.05 -0.8 10.95 -0.8 10.7 -0.55 10.5 -0.45 10.5 -0.4 10.4 -0.4 10.3 -0.4 10.2 -0.4 10.2 -0.4 9.5 -0.7 9.5 -0.7 9.3 -0.8 9.05 -0.8 Q8.7 -0.5 8.35 -0.2 L8.2 0.15 8.05 0.7"/>
    </path>
    <path d="M7.7 -2.2 L7.75 -2.75 7.75 -3.05 Q8.1 -3.75 8.65 -3.5 L8.9 -3.35 9.05 -3.2 9.2 -3.2 9.95 -3.8 9.95 -3.8 10.0 -3.85 10.15 -3.85 10.15 -3.9 10.3 -3.9 10.55 -3.8 10.7 -3.55 10.7 -3.45 11.15 -3.4 11.6 -2.95 11.6 -2.85 10.95 -2.2 Q10.6 -2.15 10.2 -2.55 L10.2 -2.55 10.15 -2.6 Q9.95 -2.15 9.5 -2.15 L9.3 -2.15 Q9.1 -1.9 8.9 -1.95 8.7 -1.95 8.5 -2.1 8.15 -1.75 7.8 -2.1 L7.7 -2.2" fill="none" stroke="#000000" stroke-linecap="round" stroke-linejoin="round" stroke-opacity="0.0" stroke-width="1.0">
      <animate attributeName="stroke" dur="2s" repeatCount="indefinite" values="#000000;#000001"/>
      <animate attributeName="stroke-width" dur="2s" repeatCount="indefinite" values="0.0;0.0"/>
      <animate attributeName="fill-opacity" dur="2s" repeatCount="indefinite" values="0.0;0.0"/>
      <animate attributeName="d" dur="2s" repeatCount="indefinite" values="M7.7 -2.2 L7.75 -2.75 7.75 -3.05 Q8.1 -3.75 8.65 -3.5 L8.9 -3.35 9.05 -3.2 9.2 -3.2 9.95 -3.8 9.95 -3.8 10.0 -3.85 10.15 -3.85 10.15 -3.9 10.3 -3.9 10.55 -3.8 10.7 -3.55 10.7 -3.45 11.15 -3.4 11.6 -2.95 11.6 -2.85 10.95 -2.2 Q10.6 -2.15 10.2 -2.55 L10.2 -2.55 10.15 -2.6 Q9.95 -2.15 9.5 -2.15 L9.3 -2.15 Q9.1 -1.9 8.9 -1.95 8.7 -1.95 8.5 -2.1 8.15 -1.75 7.8 -2.1 L7.7 -2.2;M8.05 0.7 L8.2 0.15 8.35 -0.2 Q8.7 -0.5 9.05 -0.8 L9.3 -0.8 9.5 -0.7 9.5 -0.7 10.2 -0.4 10.2 -0.4 10.3 -0.4 10.4 -0.4 10.5 -0.4 10.5 -0.45 10.7 -0.55 10.95 -0.8 11.05 -0.8 11.25 -0.95 11.65 -0.4 11.65 -0.25 11.15 0.4 Q10.9 0.5 10.65 0.65 L10.65 0.65 10.55 0.65 Q10.15 0.75 9.75 0.85 L9.55 0.85 Q9.3 0.85 9.0 0.8 8.85 0.85 8.7 0.95 8.35 1.05 8.05 0.7 L8.05 0.7"/>
    </path>
  </g>
</svg>
