<?xml version="1.0" encoding="UTF-8" standalone="no"?>
<svg xmlns:xlink="http://www.w3.org/1999/xlink" height="5.6px" width="6.45px" xmlns="http://www.w3.org/2000/svg">
  <g transform="matrix(1.0, 0.0, 0.0, 1.0, 17.5, 0.65)">
    <path d="M-17.5 0.45 L-17.5 0.45 -17.45 0.95 -17.45 1.15 -17.45 1.45 -17.05 1.75 Q-16.85 1.75 -16.65 1.55 -16.25 1.6 -15.85 1.6 L-15.75 1.6 -15.6 1.5 -15.4 1.5 Q-15.2 1.4 -15.0 1.3 -14.65 1.05 -14.35 0.8 L-14.2 0.6 -14.1 0.5 -14.05 -0.25 -14.15 -0.35 -14.25 -0.45 -14.5 -0.65 -14.65 -0.55 -15.15 0.15 -15.4 0.05 -15.5 0.05 -15.6 0.05 -15.95 0.15 -16.05 0.25 -16.2 0.25 -16.3 0.25 -16.4 0.2 Q-16.95 0.15 -17.45 0.15 L-17.5 0.45" fill="#000000" fill-rule="evenodd" stroke="none">
      <animate attributeName="fill" dur="2s" repeatCount="indefinite" values="#000000;#000001"/>
      <animate attributeName="fill-opacity" dur="2s" repeatCount="indefinite" values="1.0;1.0"/>
      <animate attributeName="d" dur="2s" repeatCount="indefinite" values="M-17.5 0.45 L-17.5 0.45 -17.45 0.95 -17.45 1.15 -17.45 1.45 -17.05 1.75 Q-16.85 1.75 -16.65 1.55 -16.25 1.6 -15.85 1.6 L-15.75 1.6 -15.6 1.5 -15.4 1.5 Q-15.2 1.4 -15.0 1.3 -14.65 1.05 -14.35 0.8 L-14.2 0.6 -14.1 0.5 -14.05 -0.25 -14.15 -0.35 -14.25 -0.45 -14.5 -0.65 -14.65 -0.55 -15.15 0.15 -15.4 0.05 -15.5 0.05 -15.6 0.05 -15.95 0.15 -16.05 0.25 -16.2 0.25 -16.3 0.25 -16.4 0.2 Q-16.95 0.15 -17.45 0.15 L-17.5 0.45;M-14.45 4.7 L-14.35 4.8 -14.0 4.95 -13.85 4.85 -13.5 4.4 -13.55 3.8 Q-13.25 3.75 -13.0 3.7 -12.65 4.4 -12.1 4.15 L-11.9 4.05 -11.8 3.85 -11.8 3.75 Q-11.35 3.65 -11.2 3.25 -10.9 2.55 -11.2 2.15 L-11.5 1.85 -11.65 1.95 -12.1 2.6 -12.25 2.6 -12.35 2.6 -12.35 2.6 -12.55 2.35 -13.5 2.25 -13.7 2.4 -13.7 2.5 -13.75 2.6 -14.0 2.65 -14.05 2.65 -14.15 2.75 -14.35 3.0 -14.35 3.1 Q-14.6 3.7 -14.5 4.4 L-14.45 4.7"/>
    </path>
    <path d="M-17.5 0.45 L-17.45 0.15 Q-16.95 0.15 -16.4 0.2 L-16.3 0.25 -16.2 0.25 -16.05 0.25 -15.95 0.15 -15.6 0.05 -15.5 0.05 -15.4 0.05 -15.15 0.15 -14.65 -0.55 -14.5 -0.65 -14.25 -0.45 -14.15 -0.35 -14.05 -0.25 -14.1 0.5 -14.2 0.6 -14.35 0.8 Q-14.65 1.05 -15.0 1.3 -15.2 1.4 -15.4 1.5 L-15.6 1.5 -15.75 1.6 -15.85 1.6 Q-16.25 1.6 -16.65 1.55 -16.85 1.75 -17.05 1.75 L-17.45 1.45 -17.45 1.15 -17.45 0.95 -17.5 0.45 -17.5 0.45" fill="none" stroke="#000000" stroke-linecap="round" stroke-linejoin="round" stroke-opacity="0.0" stroke-width="1.0">
      <animate attributeName="stroke" dur="2s" repeatCount="indefinite" values="#000000;#000001"/>
      <animate attributeName="stroke-width" dur="2s" repeatCount="indefinite" values="0.0;0.0"/>
      <animate attributeName="fill-opacity" dur="2s" repeatCount="indefinite" values="0.0;0.0"/>
      <animate attributeName="d" dur="2s" repeatCount="indefinite" values="M-17.5 0.45 L-17.45 0.15 Q-16.95 0.15 -16.4 0.2 L-16.3 0.25 -16.2 0.25 -16.05 0.25 -15.95 0.15 -15.6 0.05 -15.5 0.05 -15.4 0.05 -15.15 0.15 -14.65 -0.55 -14.5 -0.65 -14.25 -0.45 -14.15 -0.35 -14.05 -0.25 -14.1 0.5 -14.2 0.6 -14.35 0.8 Q-14.65 1.05 -15.0 1.3 -15.2 1.4 -15.4 1.5 L-15.6 1.5 -15.75 1.6 -15.85 1.6 Q-16.25 1.6 -16.65 1.55 -16.85 1.75 -17.05 1.75 L-17.45 1.45 -17.45 1.15 -17.45 0.95 -17.5 0.45 -17.5 0.45;M-14.45 4.7 L-14.5 4.4 Q-14.6 3.7 -14.35 3.1 L-14.35 3.0 -14.15 2.75 -14.05 2.65 -14.0 2.65 -13.75 2.6 -13.7 2.5 -13.7 2.4 -13.5 2.25 -12.55 2.35 -12.35 2.6 -12.35 2.6 -12.25 2.6 -12.1 2.6 -11.65 1.95 -11.5 1.85 -11.2 2.15 Q-10.9 2.55 -11.2 3.25 -11.35 3.65 -11.8 3.75 L-11.8 3.85 -11.9 4.05 -12.1 4.15 Q-12.65 4.4 -13.0 3.7 -13.25 3.75 -13.55 3.8 L-13.5 4.4 -13.85 4.85 -14.0 4.95 -14.35 4.8 -14.45 4.7"/>
    </path>
  </g>
</svg>
