<?xml version="1.0" encoding="UTF-8" standalone="no"?>
<svg xmlns:xlink="http://www.w3.org/1999/xlink" height="3.8px" width="6.45px" xmlns="http://www.w3.org/2000/svg">
  <g transform="matrix(1.0, 0.0, 0.0, 1.0, 6.5, 7.95)">
    <path d="M-4.95 -6.8 L-4.55 -6.55 -4.45 -6.55 Q-4.1 -6.5 -3.7 -6.8 L-3.7 -6.8 -3.6 -6.7 -3.35 -6.6 -3.25 -6.55 -3.05 -6.6 -2.9 -6.65 -2.8 -6.55 -2.75 -6.45 -2.7 -6.4 -2.7 -6.3 Q-2.3 -5.9 -1.75 -6.0 -1.45 -6.05 -1.25 -6.2 L-0.75 -6.5 -0.65 -6.5 -0.45 -6.6 -0.15 -6.7 -0.1 -6.7 -0.1 -6.8 -0.05 -6.9 -0.05 -6.9 -0.05 -7.0 -0.1 -7.1 -0.1 -7.1 Q-0.7 -7.95 -1.6 -7.45 L-1.7 -7.4 -1.8 -7.3 -1.9 -7.2 -1.9 -7.2 -2.0 -7.3 Q-2.5 -7.85 -3.25 -7.95 L-3.35 -7.95 -3.45 -7.9 -3.5 -7.9 -3.8 -7.85 -4.65 -7.4 Q-4.8 -7.1 -4.95 -6.8" fill="#000000" fill-rule="evenodd" stroke="none">
      <animate attributeName="fill" dur="2s" repeatCount="indefinite" values="#000000;#000001"/>
      <animate attributeName="fill-opacity" dur="2s" repeatCount="indefinite" values="1.0;1.0"/>
      <animate attributeName="d" dur="2s" repeatCount="indefinite" values="M-4.95 -6.8 L-4.55 -6.55 -4.45 -6.55 Q-4.1 -6.5 -3.7 -6.8 L-3.7 -6.8 -3.6 -6.7 -3.35 -6.6 -3.25 -6.55 -3.05 -6.6 -2.9 -6.65 -2.8 -6.55 -2.75 -6.45 -2.7 -6.4 -2.7 -6.3 Q-2.3 -5.9 -1.75 -6.0 -1.45 -6.05 -1.25 -6.2 L-0.75 -6.5 -0.65 -6.5 -0.45 -6.6 -0.15 -6.7 -0.1 -6.7 -0.1 -6.8 -0.05 -6.9 -0.05 -6.9 -0.05 -7.0 -0.1 -7.1 -0.1 -7.1 Q-0.7 -7.95 -1.6 -7.45 L-1.7 -7.4 -1.8 -7.3 -1.9 -7.2 -1.9 -7.2 -2.0 -7.3 Q-2.5 -7.85 -3.25 -7.95 L-3.35 -7.95 -3.45 -7.9 -3.5 -7.9 -3.8 -7.85 -4.65 -7.4 Q-4.8 -7.1 -4.95 -6.8;M-6.45 -4.8 L-6.45 -4.8 -6.35 -4.7 Q-6.05 -4.6 -5.8 -4.55 L-5.8 -4.5 -5.75 -4.4 -5.55 -4.3 -5.25 -4.25 -5.0 -4.3 -4.9 -4.45 -4.8 -4.55 -4.8 -4.55 -4.75 -4.55 -4.65 -4.45 Q-4.15 -4.3 -3.65 -4.15 -3.4 -4.25 -3.15 -4.35 L-2.75 -4.65 -2.7 -4.7 -2.65 -4.8 -2.5 -5.0 -2.5 -5.0 -2.5 -5.1 -2.4 -5.2 -2.4 -5.2 -2.4 -5.2 -2.45 -5.35 -2.5 -5.4 Q-3.15 -6.0 -3.75 -5.2 L-3.85 -5.2 -3.9 -5.3 -4.0 -5.45 -4.0 -5.45 -4.0 -5.45 Q-4.4 -5.85 -4.9 -5.65 L-5.0 -5.6 -5.15 -5.65 -5.25 -5.65 -5.6 -5.7 -6.2 -5.5 Q-6.6 -5.25 -6.45 -4.8"/>
    </path>
    <path d="M-4.95 -6.8 Q-4.8 -7.1 -4.65 -7.4 L-3.8 -7.85 -3.5 -7.9 -3.45 -7.9 -3.35 -7.95 -3.25 -7.95 Q-2.5 -7.85 -2.0 -7.3 L-1.9 -7.2 -1.9 -7.2 -1.8 -7.3 -1.7 -7.4 -1.6 -7.45 Q-0.7 -7.95 -0.1 -7.1 L-0.1 -7.1 -0.05 -7.0 -0.05 -6.9 -0.05 -6.9 -0.1 -6.8 -0.1 -6.7 -0.15 -6.7 -0.45 -6.6 -0.65 -6.5 -0.75 -6.5 -1.25 -6.2 Q-1.45 -6.05 -1.75 -6.0 -2.3 -5.9 -2.7 -6.3 L-2.7 -6.4 -2.75 -6.45 -2.8 -6.55 -2.9 -6.65 -3.05 -6.6 -3.25 -6.55 -3.35 -6.6 -3.6 -6.7 -3.7 -6.8 -3.7 -6.8 Q-4.1 -6.5 -4.45 -6.55 L-4.55 -6.55 -4.95 -6.8" fill="none" stroke="#000000" stroke-linecap="round" stroke-linejoin="round" stroke-opacity="0.0" stroke-width="1.0">
      <animate attributeName="stroke" dur="2s" repeatCount="indefinite" values="#000000;#000001"/>
      <animate attributeName="stroke-width" dur="2s" repeatCount="indefinite" values="0.0;0.0"/>
      <animate attributeName="fill-opacity" dur="2s" repeatCount="indefinite" values="0.0;0.0"/>
      <animate attributeName="d" dur="2s" repeatCount="indefinite" values="M-4.95 -6.8 Q-4.8 -7.1 -4.65 -7.4 L-3.8 -7.85 -3.5 -7.9 -3.45 -7.9 -3.35 -7.95 -3.25 -7.95 Q-2.5 -7.85 -2.0 -7.3 L-1.9 -7.2 -1.9 -7.2 -1.8 -7.3 -1.7 -7.4 -1.6 -7.45 Q-0.7 -7.95 -0.1 -7.1 L-0.1 -7.1 -0.05 -7.0 -0.05 -6.9 -0.05 -6.9 -0.1 -6.8 -0.1 -6.7 -0.15 -6.7 -0.45 -6.6 -0.65 -6.5 -0.75 -6.5 -1.25 -6.2 Q-1.45 -6.05 -1.75 -6.0 -2.3 -5.9 -2.7 -6.3 L-2.7 -6.4 -2.75 -6.45 -2.8 -6.55 -2.9 -6.65 -3.05 -6.6 -3.25 -6.55 -3.35 -6.6 -3.6 -6.7 -3.7 -6.8 -3.7 -6.8 Q-4.1 -6.5 -4.45 -6.55 L-4.55 -6.55 -4.95 -6.8;M-6.45 -4.8 Q-6.6 -5.25 -6.2 -5.5 L-5.6 -5.7 -5.25 -5.65 -5.15 -5.65 -5.0 -5.6 -4.9 -5.65 Q-4.4 -5.85 -4.0 -5.45 L-4.0 -5.45 -4.0 -5.45 -3.9 -5.3 -3.85 -5.2 -3.75 -5.2 Q-3.15 -6.0 -2.5 -5.4 L-2.45 -5.35 -2.4 -5.2 -2.4 -5.2 -2.4 -5.2 -2.5 -5.1 -2.5 -5.0 -2.5 -5.0 -2.65 -4.8 -2.7 -4.7 -2.75 -4.65 -3.15 -4.35 Q-3.4 -4.25 -3.65 -4.15 -4.15 -4.3 -4.65 -4.45 L-4.75 -4.55 -4.8 -4.55 -4.8 -4.55 -4.9 -4.45 -5.0 -4.3 -5.25 -4.25 -5.55 -4.3 -5.75 -4.4 -5.8 -4.5 -5.8 -4.55 Q-6.05 -4.6 -6.35 -4.7 L-6.45 -4.8 -6.45 -4.8"/>
    </path>
  </g>
</svg>
