<?xml version="1.0" encoding="UTF-8" standalone="no"?>
<svg xmlns:xlink="http://www.w3.org/1999/xlink" height="33.1px" width="19.3px" xmlns="http://www.w3.org/2000/svg">
  <g transform="matrix(1.0, 0.0, 0.0, 1.0, 8.8, 9.95)">
    <path d="M-8.8 0.5 L-8.8 0.5 Q-8.8 3.65 -7.3 6.15 L-7.3 6.25 -7.2 6.35 -7.05 6.45 -6.85 6.65 Q-5.85 7.35 -4.9 8.05 L-4.9 8.05 -4.5 8.3 -4.1 8.7 -2.95 10.2 -2.9 10.3 -2.3 11.6 -2.3 11.7 -2.25 12.0 -2.3 12.2 Q-2.3 12.6 -2.3 13.0 L-2.3 13.0 -2.3 13.1 Q-1.5 12.25 -0.6 12.5 -0.15 12.65 0.35 13.05 L0.6 13.5 0.6 13.8 0.6 13.9 0.6 14.6 0.5 15.2 0.3 15.75 0.2 15.85 0.1 15.95 -0.1 16.2 -0.15 16.3 -1.0 16.6 -1.3 16.8 Q-1.5 17.2 -1.95 17.3 L-2.15 17.5 -2.4 18.15 -2.4 18.15 -2.55 18.65 -2.8 18.95 -2.8 19.15 -2.75 19.35 -2.5 19.35 Q-2.1 18.85 -1.6 18.8 L-1.6 18.8 -1.3 18.6 -0.9 18.55 Q-0.05 18.65 0.8 18.7 L1.1 18.8 Q1.9 19.2 1.75 20.15 L1.7 21.15 1.7 21.25 1.7 21.75 2.5 22.55 2.6 22.65 2.65 22.7 2.85 22.7 2.95 22.7 3.45 22.65 3.45 22.65 3.45 22.65 3.35 22.55 2.8 21.75 Q2.5 20.95 3.2 20.1 L3.2 20.1 Q3.65 19.55 4.4 19.7 L4.5 19.7 Q4.95 19.8 5.3 20.05 L5.6 20.25 5.95 20.7 6.05 20.8 6.15 20.6 Q6.15 20.1 6.15 19.6 L6.15 19.5 Q5.85 18.95 5.6 18.4 L5.4 18.2 5.05 17.75 5.05 17.75 Q4.6 17.3 4.55 16.85 L4.5 16.55 Q4.5 16.05 5.0 15.55 L5.3 15.35 5.6 15.25 Q5.75 15.25 5.9 15.25 6.5 15.25 7.05 15.55 L6.7 14.35 6.55 13.8 6.45 13.3 6.45 13.2 6.4 12.4 6.4 12.3 Q6.4 11.35 6.4 10.45 L6.55 9.3 6.6 9.0 6.75 8.6 Q7.2 7.95 7.65 7.3 L7.75 7.2 8.4 6.45 8.6 6.25 8.6 6.25 9.6 5.5 Q9.9 4.3 10.2 3.15 L10.3 2.75 10.45 1.4 10.5 0.5 10.5 -0.1 10.5 -0.2 Q10.35 -3.05 8.9 -5.3 L7.65 -6.9 Q6.05 -8.65 4.05 -9.4 2.45 -9.7 0.85 -9.95 -0.65 -9.7 -2.15 -9.5 -4.3 -8.75 -6.0 -6.9 L-6.95 -5.75 Q-8.8 -3.05 -8.8 0.5" fill="url(#gradient0)" fill-rule="evenodd" stroke="none">
      <animate attributeName="d" dur="2s" repeatCount="indefinite" values="M-8.8 0.5 L-8.8 0.5 Q-8.8 3.65 -7.3 6.15 L-7.3 6.25 -7.2 6.35 -7.05 6.45 -6.85 6.65 Q-5.85 7.35 -4.9 8.05 L-4.9 8.05 -4.5 8.3 -4.1 8.7 -2.95 10.2 -2.9 10.3 -2.3 11.6 -2.3 11.7 -2.25 12.0 -2.3 12.2 Q-2.3 12.6 -2.3 13.0 L-2.3 13.0 -2.3 13.1 Q-1.5 12.25 -0.6 12.5 -0.15 12.65 0.35 13.05 L0.6 13.5 0.6 13.8 0.6 13.9 0.6 14.6 0.5 15.2 0.3 15.75 0.2 15.85 0.1 15.95 -0.1 16.2 -0.15 16.3 -1.0 16.6 -1.3 16.8 Q-1.5 17.2 -1.95 17.3 L-2.15 17.5 -2.4 18.15 -2.4 18.15 -2.55 18.65 -2.8 18.95 -2.8 19.15 -2.75 19.35 -2.5 19.35 Q-2.1 18.85 -1.6 18.8 L-1.6 18.8 -1.3 18.6 -0.9 18.55 Q-0.05 18.65 0.8 18.7 L1.1 18.8 Q1.9 19.2 1.75 20.15 L1.7 21.15 1.7 21.25 1.7 21.75 2.5 22.55 2.6 22.65 2.65 22.7 2.85 22.7 2.95 22.7 3.45 22.65 3.45 22.65 3.45 22.65 3.35 22.55 2.8 21.75 Q2.5 20.95 3.2 20.1 L3.2 20.1 Q3.65 19.55 4.4 19.7 L4.5 19.7 Q4.95 19.8 5.3 20.05 L5.6 20.25 5.95 20.7 6.05 20.8 6.15 20.6 Q6.15 20.1 6.15 19.6 L6.15 19.5 Q5.85 18.95 5.6 18.4 L5.4 18.2 5.05 17.75 5.05 17.75 Q4.6 17.3 4.55 16.85 L4.5 16.55 Q4.5 16.05 5.0 15.55 L5.3 15.35 5.6 15.25 Q5.75 15.25 5.9 15.25 6.5 15.25 7.05 15.55 L6.7 14.35 6.55 13.8 6.45 13.3 6.45 13.2 6.4 12.4 6.4 12.3 Q6.4 11.35 6.4 10.45 L6.55 9.3 6.6 9.0 6.75 8.6 Q7.2 7.95 7.65 7.3 L7.75 7.2 8.4 6.45 8.6 6.25 8.6 6.25 9.6 5.5 Q9.9 4.3 10.2 3.15 L10.3 2.75 10.45 1.4 10.5 0.5 10.5 -0.1 10.5 -0.2 Q10.35 -3.05 8.9 -5.3 L7.65 -6.9 Q6.05 -8.65 4.05 -9.4 2.45 -9.7 0.85 -9.95 -0.65 -9.7 -2.15 -9.5 -4.3 -8.75 -6.0 -6.9 L-6.95 -5.75 Q-8.8 -3.05 -8.8 0.5;M-8.8 0.5 L-8.8 0.9 Q-8.7 4.8 -6.25 7.6 L-6.2 7.6 -5.9 7.7 -5.7 7.8 -5.5 7.95 Q-4.2 9.3 -5.05 11.0 L-5.05 11.0 -5.15 11.35 -5.15 11.95 -5.15 14.05 -5.05 14.0 -3.85 12.6 -3.75 12.55 -3.45 12.55 -3.05 12.85 Q-2.7 13.25 -2.95 13.95 L-2.95 13.95 -2.95 14.05 Q-3.35 15.1 -3.3 16.2 -3.25 17.1 -3.65 17.7 L-4.15 18.15 -4.45 18.3 -4.4 18.45 -3.55 18.15 -2.7 17.65 -2.15 17.3 -2.1 17.2 -2.0 17.1 -1.95 16.95 -1.9 16.85 -1.9 16.05 -1.9 15.4 Q-1.85 14.9 -1.8 14.4 L-1.8 14.0 -1.65 13.0 -1.65 13.0 -1.3 12.7 -0.9 12.7 -0.65 12.7 -0.4 12.75 -0.1 12.9 Q0.3 13.2 0.4 13.9 L0.4 14.0 0.5 14.6 0.6 15.0 Q0.75 16.15 0.25 17.05 L0.05 17.3 Q-0.45 18.05 -0.95 18.8 L-1.55 19.7 -1.55 19.85 -1.55 20.55 -1.55 21.55 -1.55 21.75 -1.55 21.85 -1.55 22.05 -1.5 22.15 -0.8 22.85 -0.65 22.95 -0.55 23.05 -0.45 23.1 0.45 23.15 Q-0.25 22.3 -0.25 21.1 L-0.25 21.1 Q-0.2 20.15 0.75 20.2 L0.95 20.2 Q1.5 20.3 1.7 20.9 L1.9 21.15 2.45 21.35 2.55 21.45 2.95 21.7 Q3.4 22.1 3.45 22.8 L3.55 22.75 Q3.95 22.1 3.65 21.4 L3.55 21.1 3.25 20.65 3.1 20.45 Q2.6 19.95 2.15 19.5 L1.95 19.2 Q1.2 18.55 1.45 17.9 L1.7 17.5 1.85 17.4 Q1.95 17.25 2.15 17.25 2.85 17.4 3.5 17.55 L4.6 18.55 4.95 19.2 5.0 19.65 5.15 19.75 6.0 20.5 6.05 20.55 Q6.15 19.4 5.75 18.4 L5.05 17.15 4.95 17.05 4.6 16.25 Q4.45 15.45 5.05 14.7 L5.2 14.6 6.75 14.75 7.1 14.75 7.1 14.7 6.45 13.15 Q6.1 11.75 6.65 10.2 L6.85 9.85 8.1 8.75 8.6 7.55 8.8 7.05 8.85 6.95 Q10.5 4.1 10.5 0.5 L10.25 -2.05 Q9.65 -4.8 7.65 -6.9 6.25 -8.45 4.5 -9.2 2.8 -9.95 0.85 -9.95 -2.25 -9.95 -4.65 -8.15 L-6.0 -6.9 Q-8.8 -3.85 -8.8 0.5"/>
    </path>
    <path d="M-8.8 0.5 Q-8.8 -3.05 -6.95 -5.75 L-6.0 -6.9 Q-4.3 -8.75 -2.15 -9.5 -0.65 -9.7 0.85 -9.95 2.45 -9.7 4.05 -9.4 6.05 -8.65 7.65 -6.9 L8.9 -5.3 Q10.35 -3.05 10.5 -0.2 L10.5 -0.1 10.5 0.5 10.45 1.4 10.3 2.75 10.2 3.15 Q9.9 4.3 9.6 5.5 L8.6 6.25 8.6 6.25 8.4 6.45 7.75 7.2 7.65 7.3 Q7.2 7.95 6.75 8.6 L6.6 9.0 6.55 9.3 6.4 10.45 Q6.4 11.35 6.4 12.3 L6.4 12.4 6.45 13.2 6.45 13.3 6.55 13.8 6.7 14.35 7.05 15.55 Q6.5 15.25 5.9 15.25 5.75 15.25 5.6 15.25 L5.3 15.35 5.0 15.55 Q4.5 16.05 4.5 16.55 L4.55 16.85 Q4.6 17.3 5.05 17.75 L5.05 17.75 5.4 18.2 5.6 18.4 Q5.85 18.95 6.15 19.5 L6.15 19.6 Q6.15 20.1 6.15 20.6 L6.05 20.8 5.95 20.7 5.6 20.25 5.3 20.05 Q4.95 19.8 4.5 19.7 L4.4 19.7 Q3.65 19.55 3.2 20.1 L3.2 20.1 Q2.5 20.95 2.8 21.75 L3.35 22.55 3.45 22.65 3.45 22.65 3.45 22.65 2.95 22.7 2.85 22.7 2.65 22.7 2.6 22.65 2.5 22.55 1.7 21.75 1.7 21.25 1.7 21.15 1.75 20.15 Q1.9 19.2 1.1 18.8 L0.8 18.7 Q-0.05 18.65 -0.9 18.55 L-1.3 18.6 -1.6 18.8 -1.6 18.8 Q-2.1 18.85 -2.5 19.35 L-2.75 19.35 -2.8 19.15 -2.8 18.95 -2.55 18.65 -2.4 18.15 -2.4 18.15 -2.15 17.5 -1.95 17.3 Q-1.5 17.2 -1.3 16.8 L-1.0 16.6 -0.15 16.3 -0.1 16.2 0.1 15.95 0.2 15.85 0.3 15.75 0.5 15.2 0.6 14.6 0.6 13.9 0.6 13.8 0.6 13.5 0.35 13.05 Q-0.15 12.65 -0.6 12.5 -1.5 12.25 -2.3 13.1 L-2.3 13.0 -2.3 13.0 Q-2.3 12.6 -2.3 12.2 L-2.25 12.0 -2.3 11.7 -2.3 11.6 -2.9 10.3 -2.95 10.2 -4.1 8.7 -4.5 8.3 -4.9 8.05 -4.9 8.05 Q-5.85 7.35 -6.85 6.65 L-7.05 6.45 -7.2 6.35 -7.3 6.25 -7.3 6.15 Q-8.8 3.65 -8.8 0.5 L-8.8 0.5" fill="none" stroke="#000000" stroke-linecap="round" stroke-linejoin="round" stroke-opacity="0.0" stroke-width="1.0">
      <animate attributeName="stroke" dur="2s" repeatCount="indefinite" values="#000000;#000001"/>
      <animate attributeName="stroke-width" dur="2s" repeatCount="indefinite" values="0.0;0.0"/>
      <animate attributeName="fill-opacity" dur="2s" repeatCount="indefinite" values="0.0;0.0"/>
      <animate attributeName="d" dur="2s" repeatCount="indefinite" values="M-8.8 0.5 Q-8.8 -3.05 -6.95 -5.75 L-6.0 -6.9 Q-4.3 -8.75 -2.15 -9.5 -0.65 -9.7 0.85 -9.95 2.45 -9.7 4.05 -9.4 6.05 -8.65 7.65 -6.9 L8.9 -5.3 Q10.35 -3.05 10.5 -0.2 L10.5 -0.1 10.5 0.5 10.45 1.4 10.3 2.75 10.2 3.15 Q9.9 4.3 9.6 5.5 L8.6 6.25 8.6 6.25 8.4 6.45 7.75 7.2 7.65 7.3 Q7.2 7.95 6.75 8.6 L6.6 9.0 6.55 9.3 6.4 10.45 Q6.4 11.35 6.4 12.3 L6.4 12.4 6.45 13.2 6.45 13.3 6.55 13.8 6.7 14.35 7.05 15.55 Q6.5 15.25 5.9 15.25 5.75 15.25 5.6 15.25 L5.3 15.35 5.0 15.55 Q4.5 16.05 4.5 16.55 L4.55 16.85 Q4.6 17.3 5.05 17.75 L5.05 17.75 5.4 18.2 5.6 18.4 Q5.85 18.95 6.15 19.5 L6.15 19.6 Q6.15 20.1 6.15 20.6 L6.05 20.8 5.95 20.7 5.6 20.25 5.3 20.05 Q4.95 19.8 4.5 19.7 L4.4 19.7 Q3.65 19.55 3.2 20.1 L3.2 20.1 Q2.5 20.95 2.8 21.75 L3.35 22.55 3.45 22.65 3.45 22.65 3.45 22.65 2.95 22.7 2.85 22.7 2.65 22.7 2.6 22.65 2.5 22.55 1.7 21.75 1.7 21.25 1.7 21.15 1.75 20.15 Q1.9 19.2 1.1 18.8 L0.8 18.7 Q-0.05 18.65 -0.9 18.55 L-1.3 18.6 -1.6 18.8 -1.6 18.8 Q-2.1 18.85 -2.5 19.35 L-2.75 19.35 -2.8 19.15 -2.8 18.95 -2.55 18.65 -2.4 18.15 -2.4 18.15 -2.15 17.5 -1.95 17.3 Q-1.5 17.2 -1.3 16.8 L-1.0 16.6 -0.15 16.3 -0.1 16.2 0.1 15.95 0.2 15.85 0.3 15.75 0.5 15.2 0.6 14.6 0.6 13.9 0.6 13.8 0.6 13.5 0.35 13.05 Q-0.15 12.65 -0.6 12.5 -1.5 12.25 -2.3 13.1 L-2.3 13.0 -2.3 13.0 Q-2.3 12.6 -2.3 12.2 L-2.25 12.0 -2.3 11.7 -2.3 11.6 -2.9 10.3 -2.95 10.2 -4.1 8.7 -4.5 8.3 -4.9 8.05 -4.9 8.05 Q-5.85 7.35 -6.85 6.65 L-7.05 6.45 -7.2 6.35 -7.3 6.25 -7.3 6.15 Q-8.8 3.65 -8.8 0.5 L-8.8 0.5;M-8.8 0.5 Q-8.8 -3.85 -6.0 -6.9 L-4.65 -8.15 Q-2.25 -9.95 0.85 -9.95 2.8 -9.95 4.5 -9.2 6.25 -8.45 7.65 -6.9 9.65 -4.8 10.25 -2.05 L10.5 0.5 Q10.5 4.1 8.85 6.95 L8.8 7.05 8.6 7.55 8.1 8.75 6.85 9.85 6.65 10.2 Q6.1 11.75 6.45 13.15 L7.1 14.7 7.1 14.75 6.75 14.75 5.2 14.6 5.05 14.7 Q4.45 15.45 4.6 16.25 L4.95 17.05 5.05 17.15 5.75 18.4 Q6.15 19.4 6.05 20.55 L6.0 20.5 5.15 19.75 5.0 19.65 4.95 19.2 4.6 18.55 3.5 17.55 Q2.85 17.4 2.15 17.25 1.95 17.25 1.85 17.4 L1.7 17.5 1.45 17.9 Q1.2 18.55 1.95 19.2 L2.15 19.5 Q2.6 19.95 3.1 20.45 L3.25 20.65 3.55 21.1 3.65 21.4 Q3.95 22.1 3.55 22.75 L3.45 22.8 Q3.4 22.1 2.95 21.7 L2.55 21.45 2.45 21.35 1.9 21.15 1.7 20.9 Q1.5 20.3 0.95 20.2 L0.75 20.2 Q-0.2 20.15 -0.25 21.1 L-0.25 21.1 Q-0.25 22.3 0.45 23.15 L-0.45 23.1 -0.55 23.05 -0.65 22.95 -0.8 22.85 -1.5 22.15 -1.55 22.05 -1.55 21.85 -1.55 21.75 -1.55 21.55 -1.55 20.55 -1.55 19.85 -1.55 19.7 -0.95 18.8 Q-0.45 18.05 0.05 17.3 L0.25 17.05 Q0.75 16.15 0.6 15.0 L0.5 14.6 0.4 14.0 0.4 13.9 Q0.3 13.2 -0.1 12.9 L-0.4 12.75 -0.65 12.7 -0.9 12.7 -1.3 12.7 -1.65 13.0 -1.65 13.0 -1.8 14.0 -1.8 14.4 Q-1.85 14.9 -1.9 15.4 L-1.9 16.05 -1.9 16.85 -1.95 16.95 -2.0 17.1 -2.1 17.2 -2.15 17.3 -2.7 17.65 -3.55 18.15 -4.4 18.45 -4.45 18.3 -4.15 18.15 -3.65 17.7 Q-3.25 17.1 -3.3 16.2 -3.35 15.1 -2.95 14.05 L-2.95 13.95 -2.95 13.95 Q-2.7 13.25 -3.05 12.85 L-3.45 12.55 -3.75 12.55 -3.85 12.6 -5.05 14.0 -5.15 14.05 -5.15 11.95 -5.15 11.35 -5.05 11.0 -5.05 11.0 Q-4.2 9.3 -5.5 7.95 L-5.7 7.8 -5.9 7.7 -6.2 7.6 -6.25 7.6 Q-8.7 4.8 -8.8 0.9 L-8.8 0.5"/>
    </path>
  </g>
  <defs>
    <radialGradient cx="0" cy="0" gradientTransform="matrix(0.0246, 0.0, 0.0, 0.0246, 1.9, 10.15)" gradientUnits="userSpaceOnUse" id="gradient0" r="819.2" spreadMethod="pad">
      <animateTransform additive="replace" attributeName="gradientTransform" dur="2s" from="1" repeatCount="indefinite" to="1" type="scale"/>
      <animateTransform additive="sum" attributeName="gradientTransform" dur="2s" from="1.9 10.15" repeatCount="indefinite" to="1.9 10.15" type="translate"/>
      <animateTransform additive="sum" attributeName="gradientTransform" dur="2s" from="0.0" repeatCount="indefinite" to="0.0" type="rotate"/>
      <animateTransform additive="sum" attributeName="gradientTransform" dur="2s" from="0.0246 0.0246" repeatCount="indefinite" to="0.0246 0.0246" type="scale"/>
      <animateTransform additive="sum" attributeName="gradientTransform" dur="2s" from="0.0" repeatCount="indefinite" to="0.0" type="skewX"/>
      <stop offset="0.0" stop-color="#fefe0c" stop-opacity="0.9019608">
        <animate attributeName="offset" dur="2s" repeatCount="indefinite" values="0.0;0.0"/>
        <animate attributeName="stop-color" dur="2s" repeatCount="indefinite" values="#fefe0c;#fefe0d"/>
        <animate attributeName="stop-opacity" dur="2s" repeatCount="indefinite" values="0.9019608;0.9019608"/>
      </stop>
      <stop offset="0.5764705882352941" stop-color="#ffba2b" stop-opacity="0.9019608">
        <animate attributeName="offset" dur="2s" repeatCount="indefinite" values="0.5764705882352941;0.5764705882352941"/>
        <animate attributeName="stop-color" dur="2s" repeatCount="indefinite" values="#ffba2b;#ffba2c"/>
        <animate attributeName="stop-opacity" dur="2s" repeatCount="indefinite" values="0.9019608;0.9019608"/>
      </stop>
      <stop offset="1.0" stop-color="#ff720b" stop-opacity="0.9019608">
        <animate attributeName="offset" dur="2s" repeatCount="indefinite" values="1.0;1.0"/>
        <animate attributeName="stop-color" dur="2s" repeatCount="indefinite" values="#ff720b;#ff720c"/>
        <animate attributeName="stop-opacity" dur="2s" repeatCount="indefinite" values="0.9019608;0.9019608"/>
      </stop>
    </radialGradient>
  </defs>
</svg>
