<?xml version="1.0" encoding="UTF-8" standalone="no"?>
<svg xmlns:xlink="http://www.w3.org/1999/xlink" height="4.15px" width="4.4px" xmlns="http://www.w3.org/2000/svg">
  <g transform="matrix(1.0, 0.0, 0.0, 1.0, 6.8, 5.7)">
    <path d="M-6.45 -4.8 L-6.35 -4.7 -6.15 -4.55 -5.9 -4.55 -5.8 -4.55 Q-5.65 -4.4 -5.55 -4.3 -5.15 -4.15 -4.8 -4.5 L-4.8 -4.55 Q-4.25 -4.15 -3.75 -4.2 L-3.15 -4.35 -2.75 -4.65 -2.7 -4.7 -2.65 -4.8 -2.55 -4.8 -2.55 -4.9 -2.5 -5.0 -2.4 -5.2 -2.5 -5.4 -3.05 -5.6 -3.35 -5.5 -3.55 -5.35 -3.55 -5.35 -3.75 -5.2 -3.85 -5.2 -3.9 -5.3 -4.0 -5.45 -4.1 -5.5 -4.2 -5.6 Q-4.5 -5.65 -4.8 -5.65 L-4.9 -5.6 -5.0 -5.6 -5.0 -5.6 -5.15 -5.65 -5.45 -5.7 -5.6 -5.7 -5.8 -5.65 -6.1 -5.55 -6.2 -5.5 Q-6.6 -5.25 -6.45 -4.8" fill="#000000" fill-rule="evenodd" stroke="none">
      <animate attributeName="fill" dur="2s" repeatCount="indefinite" values="#000000;#000001"/>
      <animate attributeName="fill-opacity" dur="2s" repeatCount="indefinite" values="1.0;1.0"/>
      <animate attributeName="d" dur="2s" repeatCount="indefinite" values="M-6.45 -4.8 L-6.35 -4.7 -6.15 -4.55 -5.9 -4.55 -5.8 -4.55 Q-5.65 -4.4 -5.55 -4.3 -5.15 -4.15 -4.8 -4.5 L-4.8 -4.55 Q-4.25 -4.15 -3.75 -4.2 L-3.15 -4.35 -2.75 -4.65 -2.7 -4.7 -2.65 -4.8 -2.55 -4.8 -2.55 -4.9 -2.5 -5.0 -2.4 -5.2 -2.5 -5.4 -3.05 -5.6 -3.35 -5.5 -3.55 -5.35 -3.55 -5.35 -3.75 -5.2 -3.85 -5.2 -3.9 -5.3 -4.0 -5.45 -4.1 -5.5 -4.2 -5.6 Q-4.5 -5.65 -4.8 -5.65 L-4.9 -5.6 -5.0 -5.6 -5.0 -5.6 -5.15 -5.65 -5.45 -5.7 -5.6 -5.7 -5.8 -5.65 -6.1 -5.55 -6.2 -5.5 Q-6.6 -5.25 -6.45 -4.8;M-6.8 -2.3 L-6.65 -2.2 -6.35 -2.05 -6.15 -2.1 -6.05 -2.0 Q-5.85 -1.85 -5.65 -1.8 -5.35 -1.85 -5.05 -1.9 L-4.95 -1.8 Q-4.45 -1.3 -3.9 -1.8 L-3.5 -1.9 -3.1 -2.45 -3.1 -2.55 -3.05 -2.75 -3.05 -2.85 -3.05 -2.95 -3.1 -3.05 -3.3 -3.25 -3.5 -3.35 -4.05 -3.0 -4.3 -2.9 -4.55 -2.9 -4.6 -2.95 -4.65 -2.95 -4.75 -3.05 -4.85 -3.15 -5.05 -3.2 -5.4 -3.2 -5.4 -3.3 Q-5.5 -3.75 -6.0 -3.7 L-6.15 -3.7 -6.15 -3.65 -6.25 -3.65 -6.35 -3.6 -6.45 -3.4 -6.45 -3.3 -6.5 -3.2 -6.65 -3.05 -6.75 -2.9 Q-6.8 -2.6 -6.8 -2.3"/>
    </path>
    <path d="M-6.45 -4.8 Q-6.6 -5.25 -6.2 -5.5 L-6.1 -5.55 -5.8 -5.65 -5.6 -5.7 -5.45 -5.7 -5.15 -5.65 -5.0 -5.6 -5.0 -5.6 -4.9 -5.6 -4.8 -5.65 Q-4.5 -5.65 -4.2 -5.6 L-4.1 -5.5 -4.0 -5.45 -3.9 -5.3 -3.85 -5.2 -3.75 -5.2 -3.55 -5.35 -3.55 -5.35 -3.35 -5.5 -3.05 -5.6 -2.5 -5.4 -2.4 -5.2 -2.5 -5.0 -2.55 -4.9 -2.55 -4.8 -2.65 -4.8 -2.7 -4.7 -2.75 -4.65 -3.15 -4.35 -3.75 -4.2 Q-4.25 -4.15 -4.8 -4.55 L-4.8 -4.5 Q-5.15 -4.15 -5.55 -4.3 -5.65 -4.4 -5.8 -4.55 L-5.9 -4.55 -6.15 -4.55 -6.35 -4.7 -6.45 -4.8" fill="none" stroke="#000000" stroke-linecap="round" stroke-linejoin="round" stroke-opacity="0.0" stroke-width="1.0">
      <animate attributeName="stroke" dur="2s" repeatCount="indefinite" values="#000000;#000001"/>
      <animate attributeName="stroke-width" dur="2s" repeatCount="indefinite" values="0.0;0.0"/>
      <animate attributeName="fill-opacity" dur="2s" repeatCount="indefinite" values="0.0;0.0"/>
      <animate attributeName="d" dur="2s" repeatCount="indefinite" values="M-6.45 -4.8 Q-6.6 -5.25 -6.2 -5.5 L-6.1 -5.55 -5.8 -5.65 -5.6 -5.7 -5.45 -5.7 -5.15 -5.65 -5.0 -5.6 -5.0 -5.6 -4.9 -5.6 -4.8 -5.65 Q-4.5 -5.65 -4.2 -5.6 L-4.1 -5.5 -4.0 -5.45 -3.9 -5.3 -3.85 -5.2 -3.75 -5.2 -3.55 -5.35 -3.55 -5.35 -3.35 -5.5 -3.05 -5.6 -2.5 -5.4 -2.4 -5.2 -2.5 -5.0 -2.55 -4.9 -2.55 -4.8 -2.65 -4.8 -2.7 -4.7 -2.75 -4.65 -3.15 -4.35 -3.75 -4.2 Q-4.25 -4.15 -4.8 -4.55 L-4.8 -4.5 Q-5.15 -4.15 -5.55 -4.3 -5.65 -4.4 -5.8 -4.55 L-5.9 -4.55 -6.15 -4.55 -6.35 -4.7 -6.45 -4.8;M-6.8 -2.3 Q-6.8 -2.6 -6.75 -2.9 L-6.65 -3.05 -6.5 -3.2 -6.45 -3.3 -6.45 -3.4 -6.35 -3.6 -6.25 -3.65 -6.15 -3.65 -6.15 -3.7 -6.0 -3.7 Q-5.5 -3.75 -5.4 -3.3 L-5.4 -3.2 -5.05 -3.2 -4.85 -3.15 -4.75 -3.05 -4.65 -2.95 -4.6 -2.95 -4.55 -2.9 -4.3 -2.9 -4.05 -3.0 -3.5 -3.35 -3.3 -3.25 -3.1 -3.05 -3.05 -2.95 -3.05 -2.85 -3.05 -2.75 -3.1 -2.55 -3.1 -2.45 -3.5 -1.9 -3.9 -1.8 Q-4.45 -1.3 -4.95 -1.8 L-5.05 -1.9 Q-5.35 -1.85 -5.65 -1.8 -5.85 -1.85 -6.05 -2.0 L-6.15 -2.1 -6.35 -2.05 -6.65 -2.2 -6.8 -2.3"/>
    </path>
  </g>
</svg>
