<?xml version="1.0" encoding="UTF-8" standalone="no"?>
<svg xmlns:xlink="http://www.w3.org/1999/xlink" height="7.8px" width="5.0px" xmlns="http://www.w3.org/2000/svg">
  <g transform="matrix(1.0, 0.0, 0.0, 1.0, 5.55, -4.35)">
    <path d="M-5.55 6.95 L-5.55 6.95 -4.75 7.1 -4.55 6.7 -4.2 6.7 -4.0 6.6 -3.65 6.9 -3.4 6.95 -3.1 6.9 -2.8 7.1 -2.6 7.1 -2.1 6.95 -2.0 6.85 -1.9 6.6 -1.9 6.2 -1.9 5.55 -1.8 5.45 Q-1.45 4.9 -1.75 4.6 -1.95 4.45 -2.1 4.35 L-2.25 4.45 -2.55 4.7 Q-2.85 5.05 -2.85 5.55 L-2.95 5.45 Q-3.3 5.35 -3.65 5.3 L-4.2 5.2 -4.3 5.2 -4.5 5.25 -4.85 5.1 -5.15 5.15 -5.5 5.45 -5.5 5.55 -5.5 5.85 Q-5.55 6.25 -5.55 6.65 L-5.55 6.95" fill="#000000" fill-rule="evenodd" stroke="none">
      <animate attributeName="fill" dur="2s" repeatCount="indefinite" values="#000000;#000001"/>
      <animate attributeName="fill-opacity" dur="2s" repeatCount="indefinite" values="1.0;1.0"/>
      <animate attributeName="d" dur="2s" repeatCount="indefinite" values="M-5.55 6.95 L-5.55 6.95 -4.75 7.1 -4.55 6.7 -4.2 6.7 -4.0 6.6 -3.65 6.9 -3.4 6.95 -3.1 6.9 -2.8 7.1 -2.6 7.1 -2.1 6.95 -2.0 6.85 -1.9 6.6 -1.9 6.2 -1.9 5.55 -1.8 5.45 Q-1.45 4.9 -1.75 4.6 -1.95 4.45 -2.1 4.35 L-2.25 4.45 -2.55 4.7 Q-2.85 5.05 -2.85 5.55 L-2.95 5.45 Q-3.3 5.35 -3.65 5.3 L-4.2 5.2 -4.3 5.2 -4.5 5.25 -4.85 5.1 -5.15 5.15 -5.5 5.45 -5.5 5.55 -5.5 5.85 Q-5.55 6.25 -5.55 6.65 L-5.55 6.95;M-4.1 9.7 L-4.1 10.0 -4.05 10.7 -3.8 10.9 -3.6 10.95 -3.3 10.85 -3.15 10.7 -2.95 10.65 -2.65 10.55 -2.6 10.75 -2.55 10.95 -2.35 11.35 -2.25 11.6 -1.95 11.95 -1.6 12.1 -0.9 12.1 -0.75 12.0 Q-0.5 11.75 -0.55 11.15 -0.6 10.8 -0.8 10.65 L-1.05 10.6 -1.5 10.7 Q-1.7 10.3 -1.85 9.95 L-1.85 9.75 Q-1.85 9.3 -2.0 8.95 L-2.5 8.35 -2.65 8.4 -2.75 8.45 -2.95 8.65 -3.0 8.95 -3.15 9.25 -3.15 9.25 -3.4 9.15 Q-3.8 9.05 -4.05 9.4 L-4.1 9.7"/>
    </path>
    <path d="M-5.55 6.95 L-5.55 6.65 Q-5.55 6.25 -5.5 5.85 L-5.5 5.55 -5.5 5.45 -5.15 5.15 -4.85 5.1 -4.5 5.25 -4.3 5.2 -4.2 5.2 -3.65 5.3 Q-3.3 5.35 -2.95 5.45 L-2.85 5.55 Q-2.85 5.05 -2.55 4.7 L-2.25 4.45 -2.1 4.35 Q-1.95 4.45 -1.75 4.6 -1.45 4.9 -1.8 5.45 L-1.9 5.55 -1.9 6.2 -1.9 6.6 -2.0 6.85 -2.1 6.95 -2.6 7.1 -2.8 7.1 -3.1 6.9 -3.4 6.95 -3.65 6.9 -4.0 6.6 -4.2 6.7 -4.55 6.7 -4.75 7.1 -5.55 6.95 -5.55 6.95" fill="none" stroke="#000000" stroke-linecap="round" stroke-linejoin="round" stroke-opacity="0.0" stroke-width="1.0">
      <animate attributeName="stroke" dur="2s" repeatCount="indefinite" values="#000000;#000001"/>
      <animate attributeName="stroke-width" dur="2s" repeatCount="indefinite" values="0.0;0.0"/>
      <animate attributeName="fill-opacity" dur="2s" repeatCount="indefinite" values="0.0;0.0"/>
      <animate attributeName="d" dur="2s" repeatCount="indefinite" values="M-5.55 6.95 L-5.55 6.65 Q-5.55 6.25 -5.5 5.85 L-5.5 5.55 -5.5 5.45 -5.15 5.15 -4.85 5.1 -4.5 5.25 -4.3 5.2 -4.2 5.2 -3.65 5.3 Q-3.3 5.35 -2.95 5.45 L-2.85 5.55 Q-2.85 5.05 -2.55 4.7 L-2.25 4.45 -2.1 4.35 Q-1.95 4.45 -1.75 4.6 -1.45 4.9 -1.8 5.45 L-1.9 5.55 -1.9 6.2 -1.9 6.6 -2.0 6.85 -2.1 6.95 -2.6 7.1 -2.8 7.1 -3.1 6.9 -3.4 6.95 -3.65 6.9 -4.0 6.6 -4.2 6.7 -4.55 6.7 -4.75 7.1 -5.55 6.95 -5.55 6.95;M-4.1 9.7 L-4.05 9.4 Q-3.8 9.05 -3.4 9.15 L-3.15 9.25 -3.15 9.25 -3.0 8.95 -2.95 8.65 -2.75 8.45 -2.65 8.4 -2.5 8.35 -2.0 8.95 Q-1.85 9.3 -1.85 9.75 L-1.85 9.95 Q-1.7 10.3 -1.5 10.7 L-1.05 10.6 -0.8 10.65 Q-0.6 10.8 -0.55 11.15 -0.5 11.75 -0.75 12.0 L-0.9 12.1 -1.6 12.1 -1.95 11.95 -2.25 11.6 -2.35 11.35 -2.55 10.95 -2.6 10.75 -2.65 10.55 -2.95 10.65 -3.15 10.7 -3.3 10.85 -3.6 10.95 -3.8 10.9 -4.05 10.7 -4.1 10.0 -4.1 9.7"/>
    </path>
  </g>
</svg>
