<?xml version="1.0" encoding="UTF-8" standalone="no"?>
<svg xmlns:xlink="http://www.w3.org/1999/xlink" height="4.2px" width="5.25px" xmlns="http://www.w3.org/2000/svg">
  <g transform="matrix(1.0, 0.0, 0.0, 1.0, -5.7, -3.85)">
    <path d="M7.0 5.2 L7.0 5.2 7.05 5.45 7.25 5.65 Q7.6 5.85 7.85 5.5 L8.0 5.5 8.4 5.55 8.5 5.55 8.55 5.7 8.55 5.8 9.25 6.05 9.75 5.75 9.95 5.6 10.3 5.3 Q10.65 4.9 10.95 4.55 L10.85 4.25 10.5 3.85 Q10.05 4.15 9.65 4.45 L9.55 4.55 9.45 4.55 Q9.25 4.0 8.65 4.15 L8.55 4.15 8.55 4.15 7.85 4.3 7.75 4.35 7.7 4.35 7.4 4.5 7.15 4.8 7.05 4.9 7.0 5.2" fill="#000000" fill-rule="evenodd" stroke="none">
      <animate attributeName="fill" dur="2s" repeatCount="indefinite" values="#000000;#000001"/>
      <animate attributeName="fill-opacity" dur="2s" repeatCount="indefinite" values="1.0;1.0"/>
      <animate attributeName="d" dur="2s" repeatCount="indefinite" values="M7.0 5.2 L7.0 5.2 7.05 5.45 7.25 5.65 Q7.6 5.85 7.85 5.5 L8.0 5.5 8.4 5.55 8.5 5.55 8.55 5.7 8.55 5.8 9.25 6.05 9.75 5.75 9.95 5.6 10.3 5.3 Q10.65 4.9 10.95 4.55 L10.85 4.25 10.5 3.85 Q10.05 4.15 9.65 4.45 L9.55 4.55 9.45 4.55 Q9.25 4.0 8.65 4.15 L8.55 4.15 8.55 4.15 7.85 4.3 7.75 4.35 7.7 4.35 7.4 4.5 7.15 4.8 7.05 4.9 7.0 5.2;M5.7 7.15 L5.7 7.4 5.7 7.6 5.7 7.7 Q5.9 7.85 6.1 7.95 L6.15 7.95 6.35 7.9 6.5 7.9 6.7 8.05 6.8 8.05 7.45 7.9 7.95 7.9 8.15 7.9 8.85 7.7 Q9.3 7.4 9.4 6.8 L9.3 6.6 8.8 6.55 Q8.35 6.6 7.85 6.95 L7.8 6.9 7.8 6.9 Q7.5 6.5 7.0 6.7 L6.85 6.6 6.8 6.55 6.4 6.3 6.25 6.3 6.2 6.35 6.05 6.5 5.8 6.8 5.8 6.95 5.7 7.15"/>
    </path>
    <path d="M7.0 5.2 L7.05 4.9 7.15 4.8 7.4 4.5 7.7 4.35 7.75 4.35 7.85 4.3 8.55 4.15 8.55 4.15 8.65 4.15 Q9.25 4.0 9.45 4.55 L9.55 4.55 9.65 4.45 Q10.05 4.15 10.5 3.85 L10.85 4.25 10.95 4.55 Q10.65 4.9 10.3 5.3 L9.95 5.6 9.75 5.75 9.25 6.05 8.55 5.8 8.55 5.7 8.5 5.55 8.4 5.55 8.0 5.5 7.85 5.5 Q7.6 5.85 7.25 5.65 L7.05 5.45 7.0 5.2 7.0 5.2" fill="none" stroke="#000000" stroke-linecap="round" stroke-linejoin="round" stroke-opacity="0.0" stroke-width="1.0">
      <animate attributeName="stroke" dur="2s" repeatCount="indefinite" values="#000000;#000001"/>
      <animate attributeName="stroke-width" dur="2s" repeatCount="indefinite" values="0.0;0.0"/>
      <animate attributeName="fill-opacity" dur="2s" repeatCount="indefinite" values="0.0;0.0"/>
      <animate attributeName="d" dur="2s" repeatCount="indefinite" values="M7.0 5.2 L7.05 4.9 7.15 4.8 7.4 4.5 7.7 4.35 7.75 4.35 7.85 4.3 8.55 4.15 8.55 4.15 8.65 4.15 Q9.25 4.0 9.45 4.55 L9.55 4.55 9.65 4.45 Q10.05 4.15 10.5 3.85 L10.85 4.25 10.95 4.55 Q10.65 4.9 10.3 5.3 L9.95 5.6 9.75 5.75 9.25 6.05 8.55 5.8 8.55 5.7 8.5 5.55 8.4 5.55 8.0 5.5 7.85 5.5 Q7.6 5.85 7.25 5.65 L7.05 5.45 7.0 5.2 7.0 5.2;M5.7 7.15 L5.8 6.95 5.8 6.8 6.05 6.5 6.2 6.35 6.25 6.3 6.4 6.3 6.8 6.55 6.85 6.6 7.0 6.7 Q7.5 6.5 7.8 6.9 L7.8 6.9 7.85 6.95 Q8.35 6.6 8.8 6.55 L9.3 6.6 9.4 6.8 Q9.3 7.4 8.85 7.7 L8.15 7.9 7.95 7.9 7.45 7.9 6.8 8.05 6.7 8.05 6.5 7.9 6.35 7.9 6.15 7.95 6.1 7.95 Q5.9 7.85 5.7 7.7 L5.7 7.6 5.7 7.4 5.7 7.15"/>
    </path>
  </g>
</svg>
