<?xml version="1.0" encoding="UTF-8" standalone="no"?>
<svg xmlns:xlink="http://www.w3.org/1999/xlink" height="5.95px" width="3.25px" xmlns="http://www.w3.org/2000/svg">
  <g transform="matrix(1.0, 0.0, 0.0, 1.0, -2.75, 2.4)">
    <path d="M2.8 -0.7 L2.8 -0.65 3.55 -0.55 3.75 -0.45 Q4.05 -0.2 4.45 -0.3 L4.45 -0.3 4.6 -0.05 4.7 0.0 4.7 0.0 5.35 0.3 5.8 -0.3 Q6.05 -1.5 5.15 -1.25 L4.95 -1.2 4.95 -1.2 Q4.65 -1.75 4.05 -1.6 L4.0 -1.65 4.0 -1.75 Q3.7 -2.1 3.4 -2.4 L3.25 -2.35 3.2 -2.25 3.1 -2.25 2.95 -2.1 2.95 -2.1 2.95 -2.0 2.9 -1.85 2.8 -1.45 2.8 -0.7" fill="#000000" fill-rule="evenodd" stroke="none">
      <animate attributeName="fill" dur="2s" repeatCount="indefinite" values="#000000;#000001"/>
      <animate attributeName="fill-opacity" dur="2s" repeatCount="indefinite" values="1.0;1.0"/>
      <animate attributeName="d" dur="2s" repeatCount="indefinite" values="M2.8 -0.7 L2.8 -0.65 3.55 -0.55 3.75 -0.45 Q4.05 -0.2 4.45 -0.3 L4.45 -0.3 4.6 -0.05 4.7 0.0 4.7 0.0 5.35 0.3 5.8 -0.3 Q6.05 -1.5 5.15 -1.25 L4.95 -1.2 4.95 -1.2 Q4.65 -1.75 4.05 -1.6 L4.0 -1.65 4.0 -1.75 Q3.7 -2.1 3.4 -2.4 L3.25 -2.35 3.2 -2.25 3.1 -2.25 2.95 -2.1 2.95 -2.1 2.95 -2.0 2.9 -1.85 2.8 -1.45 2.8 -0.7;M3.2 2.2 L3.2 2.2 3.2 3.05 3.3 3.15 Q3.75 3.1 4.15 3.05 L4.25 3.05 4.4 3.1 4.45 3.2 4.45 3.2 4.8 3.55 5.45 3.55 Q6.1 3.4 6.0 2.45 L5.9 2.35 5.8 2.25 Q5.55 1.95 5.1 2.05 L5.1 2.0 5.05 1.9 Q4.9 1.5 4.45 1.55 L4.35 1.55 4.15 1.55 4.05 1.45 3.75 1.3 3.7 1.3 3.6 1.3 3.5 1.4 3.3 1.55 3.2 2.2"/>
    </path>
    <path d="M2.8 -0.7 L2.8 -1.45 2.9 -1.85 2.95 -2.0 2.95 -2.1 2.95 -2.1 3.1 -2.25 3.2 -2.25 3.25 -2.35 3.4 -2.4 Q3.7 -2.1 4.0 -1.75 L4.0 -1.65 4.05 -1.6 Q4.65 -1.75 4.95 -1.2 L4.95 -1.2 5.15 -1.25 Q6.05 -1.5 5.8 -0.3 L5.35 0.3 4.7 0.0 4.7 0.0 4.6 -0.05 4.45 -0.3 4.45 -0.3 Q4.05 -0.2 3.75 -0.45 L3.55 -0.55 2.8 -0.65 2.8 -0.7" fill="none" stroke="#000000" stroke-linecap="round" stroke-linejoin="round" stroke-opacity="0.0" stroke-width="1.0">
      <animate attributeName="stroke" dur="2s" repeatCount="indefinite" values="#000000;#000001"/>
      <animate attributeName="stroke-width" dur="2s" repeatCount="indefinite" values="0.0;0.0"/>
      <animate attributeName="fill-opacity" dur="2s" repeatCount="indefinite" values="0.0;0.0"/>
      <animate attributeName="d" dur="2s" repeatCount="indefinite" values="M2.8 -0.7 L2.8 -1.45 2.9 -1.85 2.95 -2.0 2.95 -2.1 2.95 -2.1 3.1 -2.25 3.2 -2.25 3.25 -2.35 3.4 -2.4 Q3.7 -2.1 4.0 -1.75 L4.0 -1.65 4.05 -1.6 Q4.65 -1.75 4.95 -1.2 L4.95 -1.2 5.15 -1.25 Q6.05 -1.5 5.8 -0.3 L5.35 0.3 4.7 0.0 4.7 0.0 4.6 -0.05 4.45 -0.3 4.45 -0.3 Q4.05 -0.2 3.75 -0.45 L3.55 -0.55 2.8 -0.65 2.8 -0.7;M3.2 2.2 L3.3 1.55 3.5 1.4 3.6 1.3 3.7 1.3 3.75 1.3 4.05 1.45 4.15 1.55 4.35 1.55 4.45 1.55 Q4.9 1.5 5.05 1.9 L5.1 2.0 5.1 2.05 Q5.55 1.95 5.8 2.25 L5.9 2.35 6.0 2.45 Q6.1 3.4 5.45 3.55 L4.8 3.55 4.45 3.2 4.45 3.2 4.4 3.1 4.25 3.05 4.15 3.05 Q3.75 3.1 3.3 3.15 L3.2 3.05 3.2 2.2 3.2 2.2"/>
    </path>
  </g>
</svg>
