<?xml version="1.0" encoding="UTF-8" standalone="no"?>
<svg xmlns:xlink="http://www.w3.org/1999/xlink" height="5.9px" width="4.05px" xmlns="http://www.w3.org/2000/svg">
  <g transform="matrix(1.0, 0.0, 0.0, 1.0, 5.85, -10.6)">
    <path d="M-5.8 12.05 L-5.8 12.05 -5.6 12.15 -4.95 12.35 -4.85 12.35 -4.75 12.35 -4.7 12.45 -4.7 12.55 -4.45 12.7 -4.35 12.75 -3.85 12.9 -3.55 12.85 -3.1 12.65 -3.1 12.65 Q-2.2 11.85 -2.85 11.2 L-3.0 11.1 -3.2 11.2 -3.5 11.5 -4.0 11.3 -4.4 11.2 -4.4 11.15 -4.4 11.1 Q-4.45 10.7 -4.85 10.6 L-4.85 10.65 -5.0 10.65 -5.05 10.7 -5.15 10.75 -5.35 10.95 -5.35 10.95 -5.55 11.1 -5.6 11.3 -5.6 11.4 -5.75 11.6 -5.8 11.8 -5.8 12.05" fill="#000000" fill-rule="evenodd" stroke="none">
      <animate attributeName="fill" dur="2s" repeatCount="indefinite" values="#000000;#000001"/>
      <animate attributeName="fill-opacity" dur="2s" repeatCount="indefinite" values="1.0;1.0"/>
      <animate attributeName="d" dur="2s" repeatCount="indefinite" values="M-5.8 12.05 L-5.8 12.05 -5.6 12.15 -4.95 12.35 -4.85 12.35 -4.75 12.35 -4.7 12.45 -4.7 12.55 -4.45 12.7 -4.35 12.75 -3.85 12.9 -3.55 12.85 -3.1 12.65 -3.1 12.65 Q-2.2 11.85 -2.85 11.2 L-3.0 11.1 -3.2 11.2 -3.5 11.5 -4.0 11.3 -4.4 11.2 -4.4 11.15 -4.4 11.1 Q-4.45 10.7 -4.85 10.6 L-4.85 10.65 -5.0 10.65 -5.05 10.7 -5.15 10.75 -5.35 10.95 -5.35 10.95 -5.55 11.1 -5.6 11.3 -5.6 11.4 -5.75 11.6 -5.8 11.8 -5.8 12.05;M-5.0 14.35 L-4.95 14.65 -4.95 14.8 -4.25 15.05 -4.2 15.1 -4.2 15.2 -4.1 15.3 -4.0 15.4 -3.75 15.5 -3.65 15.55 -3.4 16.2 -3.25 16.35 -2.9 16.5 -2.8 16.45 Q-2.0 16.05 -1.8 15.05 L-1.8 15.05 -2.0 14.75 -2.6 14.65 -3.0 14.85 -3.2 14.65 -3.25 14.55 -3.25 14.45 Q-3.4 14.1 -3.5 13.8 L-3.5 13.7 -3.55 13.6 -3.65 13.5 -3.85 13.3 -4.1 13.1 -4.1 13.15 -4.4 13.35 -4.6 13.55 -4.7 13.65 -4.85 13.9 -4.95 14.05 -5.0 14.35"/>
    </path>
    <path d="M-5.8 12.05 L-5.8 11.8 -5.75 11.6 -5.6 11.4 -5.6 11.3 -5.55 11.1 -5.35 10.95 -5.35 10.95 -5.15 10.75 -5.05 10.7 -5.0 10.65 -4.85 10.65 -4.85 10.6 Q-4.45 10.7 -4.4 11.1 L-4.4 11.15 -4.4 11.2 -4.0 11.3 -3.5 11.5 -3.2 11.2 -3.0 11.1 -2.85 11.2 Q-2.2 11.85 -3.1 12.65 L-3.1 12.65 -3.55 12.85 -3.85 12.9 -4.35 12.75 -4.45 12.7 -4.7 12.55 -4.7 12.45 -4.75 12.35 -4.85 12.35 -4.95 12.35 -5.6 12.15 -5.8 12.05 -5.8 12.05" fill="none" stroke="#000000" stroke-linecap="round" stroke-linejoin="round" stroke-opacity="0.0" stroke-width="1.0">
      <animate attributeName="stroke" dur="2s" repeatCount="indefinite" values="#000000;#000001"/>
      <animate attributeName="stroke-width" dur="2s" repeatCount="indefinite" values="0.0;0.0"/>
      <animate attributeName="fill-opacity" dur="2s" repeatCount="indefinite" values="0.0;0.0"/>
      <animate attributeName="d" dur="2s" repeatCount="indefinite" values="M-5.8 12.05 L-5.8 11.8 -5.75 11.6 -5.6 11.4 -5.6 11.3 -5.55 11.1 -5.35 10.95 -5.35 10.95 -5.15 10.75 -5.05 10.7 -5.0 10.65 -4.85 10.65 -4.85 10.6 Q-4.45 10.7 -4.4 11.1 L-4.4 11.15 -4.4 11.2 -4.0 11.3 -3.5 11.5 -3.2 11.2 -3.0 11.1 -2.85 11.2 Q-2.2 11.85 -3.1 12.65 L-3.1 12.65 -3.55 12.85 -3.85 12.9 -4.35 12.75 -4.45 12.7 -4.7 12.55 -4.7 12.45 -4.75 12.35 -4.85 12.35 -4.95 12.35 -5.6 12.15 -5.8 12.05 -5.8 12.05;M-5.0 14.35 L-4.95 14.05 -4.85 13.9 -4.7 13.65 -4.6 13.55 -4.4 13.35 -4.1 13.15 -4.1 13.1 -3.85 13.3 -3.65 13.5 -3.55 13.6 -3.5 13.7 -3.5 13.8 Q-3.4 14.1 -3.25 14.45 L-3.25 14.55 -3.2 14.65 -3.0 14.85 -2.6 14.65 -2.0 14.75 -1.8 15.05 -1.8 15.05 Q-2.0 16.05 -2.8 16.45 L-2.9 16.5 -3.25 16.35 -3.4 16.2 -3.65 15.55 -3.75 15.5 -4.0 15.4 -4.1 15.3 -4.2 15.2 -4.2 15.1 -4.25 15.05 -4.95 14.8 -4.95 14.65 -5.0 14.35"/>
    </path>
  </g>
</svg>
