<?xml version="1.0" encoding="UTF-8" standalone="no"?>
<svg xmlns:xlink="http://www.w3.org/1999/xlink" height="4.75px" width="4.45px" xmlns="http://www.w3.org/2000/svg">
  <g transform="matrix(1.0, 0.0, 0.0, 1.0, 7.5, 0.95)">
    <path d="M-7.05 0.45 L-6.65 0.6 -6.45 0.7 -6.0 0.8 Q-5.7 0.85 -5.45 0.85 L-4.85 0.8 -4.4 0.95 -4.25 0.95 -3.8 0.8 Q-3.35 0.5 -3.3 -0.2 L-3.4 -0.45 -3.65 -0.6 Q-3.8 -0.65 -3.9 -0.65 L-4.35 -0.2 -4.7 -0.4 -4.85 -0.45 -5.05 -0.4 -5.3 -0.4 -5.45 -0.5 -5.55 -0.55 -5.65 -0.6 -5.9 -0.65 -5.95 -0.7 -6.1 -0.85 -6.2 -0.9 -6.35 -0.95 Q-6.7 -0.9 -6.9 -0.55 -7.0 -0.05 -7.05 0.45" fill="#000000" fill-rule="evenodd" stroke="none">
      <animate attributeName="fill" dur="2s" repeatCount="indefinite" values="#000000;#000001"/>
      <animate attributeName="fill-opacity" dur="2s" repeatCount="indefinite" values="1.0;1.0"/>
      <animate attributeName="d" dur="2s" repeatCount="indefinite" values="M-7.05 0.45 L-6.65 0.6 -6.45 0.7 -6.0 0.8 Q-5.7 0.85 -5.45 0.85 L-4.85 0.8 -4.4 0.95 -4.25 0.95 -3.8 0.8 Q-3.35 0.5 -3.3 -0.2 L-3.4 -0.45 -3.65 -0.6 Q-3.8 -0.65 -3.9 -0.65 L-4.35 -0.2 -4.7 -0.4 -4.85 -0.45 -5.05 -0.4 -5.3 -0.4 -5.45 -0.5 -5.55 -0.55 -5.65 -0.6 -5.9 -0.65 -5.95 -0.7 -6.1 -0.85 -6.2 -0.9 -6.35 -0.95 Q-6.7 -0.9 -6.9 -0.55 -7.0 -0.05 -7.05 0.45;M-7.5 2.6 L-7.5 2.6 -7.5 2.9 -7.45 3.55 Q-6.95 4.05 -6.6 3.55 L-5.65 3.3 -5.0 3.1 -4.9 3.3 -4.55 3.55 Q-3.65 3.9 -3.25 3.25 L-3.15 3.0 -3.05 2.65 Q-3.0 2.4 -3.2 2.25 L-3.8 2.15 -4.2 2.55 -4.2 2.45 -4.2 2.0 -4.35 1.8 -4.75 1.55 -4.9 1.55 -5.0 1.6 -5.3 1.9 -5.3 1.9 -5.65 2.2 -5.75 2.25 -5.75 2.25 Q-6.1 2.2 -6.45 2.15 -7.05 2.2 -7.5 2.6"/>
    </path>
    <path d="M-7.05 0.45 Q-7.0 -0.05 -6.9 -0.55 -6.7 -0.9 -6.35 -0.95 L-6.2 -0.9 -6.1 -0.85 -5.95 -0.7 -5.9 -0.65 -5.65 -0.6 -5.55 -0.55 -5.45 -0.5 -5.3 -0.4 -5.05 -0.4 -4.85 -0.45 -4.7 -0.4 -4.35 -0.2 -3.9 -0.65 Q-3.8 -0.65 -3.65 -0.6 L-3.4 -0.45 -3.3 -0.2 Q-3.35 0.5 -3.8 0.8 L-4.25 0.95 -4.4 0.95 -4.85 0.8 -5.45 0.85 Q-5.7 0.85 -6.0 0.8 L-6.45 0.7 -6.65 0.6 -7.05 0.45" fill="none" stroke="#000000" stroke-linecap="round" stroke-linejoin="round" stroke-opacity="0.0" stroke-width="1.0">
      <animate attributeName="stroke" dur="2s" repeatCount="indefinite" values="#000000;#000001"/>
      <animate attributeName="stroke-width" dur="2s" repeatCount="indefinite" values="0.0;0.0"/>
      <animate attributeName="fill-opacity" dur="2s" repeatCount="indefinite" values="0.0;0.0"/>
      <animate attributeName="d" dur="2s" repeatCount="indefinite" values="M-7.05 0.45 Q-7.0 -0.05 -6.9 -0.55 -6.7 -0.9 -6.35 -0.95 L-6.2 -0.9 -6.1 -0.85 -5.95 -0.7 -5.9 -0.65 -5.65 -0.6 -5.55 -0.55 -5.45 -0.5 -5.3 -0.4 -5.05 -0.4 -4.85 -0.45 -4.7 -0.4 -4.35 -0.2 -3.9 -0.65 Q-3.8 -0.65 -3.65 -0.6 L-3.4 -0.45 -3.3 -0.2 Q-3.35 0.5 -3.8 0.8 L-4.25 0.95 -4.4 0.95 -4.85 0.8 -5.45 0.85 Q-5.7 0.85 -6.0 0.8 L-6.45 0.7 -6.65 0.6 -7.05 0.45;M-7.5 2.6 Q-7.05 2.2 -6.45 2.15 -6.1 2.2 -5.75 2.25 L-5.75 2.25 -5.65 2.2 -5.3 1.9 -5.3 1.9 -5.0 1.6 -4.9 1.55 -4.75 1.55 -4.35 1.8 -4.2 2.0 -4.2 2.45 -4.2 2.55 -3.8 2.15 -3.2 2.25 Q-3.0 2.4 -3.05 2.65 L-3.15 3.0 -3.25 3.25 Q-3.65 3.9 -4.55 3.55 L-4.9 3.3 -5.0 3.1 -5.65 3.3 -6.6 3.55 Q-6.95 4.05 -7.45 3.55 L-7.5 2.9 -7.5 2.6 -7.5 2.6"/>
    </path>
  </g>
</svg>
