<?xml version="1.0" encoding="UTF-8" standalone="no"?>
<svg xmlns:xlink="http://www.w3.org/1999/xlink" height="36.0px" width="39.8px" xmlns="http://www.w3.org/2000/svg">
  <g transform="matrix(1.0, 0.0, 0.0, 1.0, 19.5, 8.75)">
    <path d="M-19.5 0.0 L-19.5 0.0 Q-19.5 3.15 -15.05 5.5 L-13.7 6.15 -13.05 6.4 -12.75 6.5 -12.55 6.6 Q-12.2 6.75 -11.85 6.9 L-11.25 7.1 -10.8 7.5 -10.4 7.6 -10.3 7.65 Q-10.0 7.75 -9.8 7.95 L-9.4 8.35 Q-8.95 8.8 -8.5 9.25 L-8.4 9.35 -8.2 9.55 Q-7.55 10.4 -6.9 11.2 L-6.7 11.5 Q-6.6 11.75 -6.5 12.0 L-6.45 12.7 Q-6.65 13.45 -6.8 14.15 L-7.05 14.75 -7.3 15.75 -7.3 16.3 -7.3 16.55 -6.65 15.75 -6.0 15.35 Q-5.55 15.25 -5.15 15.2 L-4.65 15.5 -4.45 15.8 -4.4 15.9 -4.25 16.45 -4.25 16.75 -4.25 16.85 -4.4 18.25 Q-4.45 18.8 -4.45 19.35 -4.5 20.2 -4.5 21.05 L-4.5 21.05 -4.0 21.7 -3.6 22.3 -3.4 22.45 -3.05 22.5 Q-3.1 21.7 -3.15 20.95 L-3.15 20.65 -2.95 19.55 -2.75 18.85 Q-2.7 18.65 -2.45 18.6 L-1.55 18.45 Q-0.95 18.5 -0.6 18.9 -0.35 19.25 -0.25 19.8 L-0.3 20.45 Q-0.4 20.95 -0.8 21.35 L-0.85 21.95 -0.85 22.3 -0.85 22.5 -0.8 23.45 Q-0.15 24.3 0.7 24.45 1.0 24.5 1.25 24.5 L2.25 24.3 Q1.5 23.75 1.35 22.95 L1.3 22.35 Q1.35 21.4 2.35 21.65 L3.2 21.9 3.65 22.15 Q4.5 22.65 5.0 23.5 L5.1 23.7 5.1 23.7 4.85 22.3 4.65 21.8 4.05 20.95 3.95 20.75 3.45 20.15 3.35 20.05 2.9 19.4 Q2.65 19.0 2.45 18.6 L2.35 18.2 Q2.3 17.65 2.3 17.15 L2.4 16.4 Q2.6 15.4 3.25 14.55 L3.45 14.3 3.45 14.3 Q3.8 13.95 4.25 13.85 4.65 13.7 5.15 13.85 L5.65 14.05 Q6.05 14.15 6.3 14.4 L6.75 15.2 6.75 15.45 6.85 15.75 6.95 15.9 7.0 15.85 7.1 15.85 7.1 15.8 7.2 15.7 Q7.05 14.35 7.35 13.2 L7.45 12.9 Q7.75 11.95 8.4 11.15 8.65 10.9 8.85 10.65 L9.05 10.45 Q9.35 10.1 9.65 9.75 L9.75 9.65 Q10.15 9.15 10.55 8.7 L11.6 7.8 11.85 7.5 12.25 7.05 12.55 6.95 Q13.25 6.65 13.9 6.35 L14.45 6.15 Q15.55 5.6 16.65 5.05 L19.05 3.1 19.55 2.5 19.8 2.05 19.8 1.95 20.2 0.8 20.3 0.0 Q20.3 -2.85 16.65 -5.05 15.55 -5.65 14.45 -6.2 11.9 -7.0 9.4 -7.8 5.35 -8.75 0.4 -8.75 L-2.9 -8.65 Q-9.05 -8.2 -13.7 -6.2 L-14.85 -5.65 Q-19.5 -3.2 -19.5 0.0" fill="url(#gradient0)" fill-rule="evenodd" stroke="none">
      <animate attributeName="d" dur="2s" repeatCount="indefinite" values="M-19.5 0.0 L-19.5 0.0 Q-19.5 3.15 -15.05 5.5 L-13.7 6.15 -13.05 6.4 -12.75 6.5 -12.55 6.6 Q-12.2 6.75 -11.85 6.9 L-11.25 7.1 -10.8 7.5 -10.4 7.6 -10.3 7.65 Q-10.0 7.75 -9.8 7.95 L-9.4 8.35 Q-8.95 8.8 -8.5 9.25 L-8.4 9.35 -8.2 9.55 Q-7.55 10.4 -6.9 11.2 L-6.7 11.5 Q-6.6 11.75 -6.5 12.0 L-6.45 12.7 Q-6.65 13.45 -6.8 14.15 L-7.05 14.75 -7.3 15.75 -7.3 16.3 -7.3 16.55 -6.65 15.75 -6.0 15.35 Q-5.55 15.25 -5.15 15.2 L-4.65 15.5 -4.45 15.8 -4.4 15.9 -4.25 16.45 -4.25 16.75 -4.25 16.85 -4.4 18.25 Q-4.45 18.8 -4.45 19.35 -4.5 20.2 -4.5 21.05 L-4.5 21.05 -4.0 21.7 -3.6 22.3 -3.4 22.45 -3.05 22.5 Q-3.1 21.7 -3.15 20.95 L-3.15 20.65 -2.95 19.55 -2.75 18.85 Q-2.7 18.65 -2.45 18.6 L-1.55 18.45 Q-0.95 18.5 -0.6 18.9 -0.35 19.25 -0.25 19.8 L-0.3 20.45 Q-0.4 20.95 -0.8 21.35 L-0.85 21.95 -0.85 22.3 -0.85 22.5 -0.8 23.45 Q-0.15 24.3 0.7 24.45 1.0 24.5 1.25 24.5 L2.25 24.3 Q1.5 23.75 1.35 22.95 L1.3 22.35 Q1.35 21.4 2.35 21.65 L3.2 21.9 3.65 22.15 Q4.5 22.65 5.0 23.5 L5.1 23.7 5.1 23.7 4.85 22.3 4.65 21.8 4.05 20.95 3.95 20.75 3.45 20.15 3.35 20.05 2.9 19.4 Q2.65 19.0 2.45 18.6 L2.35 18.2 Q2.3 17.65 2.3 17.15 L2.4 16.4 Q2.6 15.4 3.25 14.55 L3.45 14.3 3.45 14.3 Q3.8 13.95 4.25 13.85 4.65 13.7 5.15 13.85 L5.65 14.05 Q6.05 14.15 6.3 14.4 L6.75 15.2 6.75 15.45 6.85 15.75 6.95 15.9 7.0 15.85 7.1 15.85 7.1 15.8 7.2 15.7 Q7.05 14.35 7.35 13.2 L7.45 12.9 Q7.75 11.95 8.4 11.15 8.65 10.9 8.85 10.65 L9.05 10.45 Q9.35 10.1 9.65 9.75 L9.75 9.65 Q10.15 9.15 10.55 8.7 L11.6 7.8 11.85 7.5 12.25 7.05 12.55 6.95 Q13.25 6.65 13.9 6.35 L14.45 6.15 Q15.55 5.6 16.65 5.05 L19.05 3.1 19.55 2.5 19.8 2.05 19.8 1.95 20.2 0.8 20.3 0.0 Q20.3 -2.85 16.65 -5.05 15.55 -5.65 14.45 -6.2 11.9 -7.0 9.4 -7.8 5.35 -8.75 0.4 -8.75 L-2.9 -8.65 Q-9.05 -8.2 -13.7 -6.2 L-14.85 -5.65 Q-19.5 -3.2 -19.5 0.0;M-19.5 0.0 L-19.5 0.35 Q-19.2 3.7 -13.7 6.15 L-11.85 6.9 -11.25 7.1 -10.8 7.5 -10.45 7.6 Q-9.95 7.75 -9.5 8.05 L-8.9 8.5 -8.65 8.95 -8.55 9.35 -8.55 9.35 Q-8.5 9.65 -8.5 9.9 L-8.5 10.3 Q-8.15 10.95 -7.95 11.7 L-7.9 11.6 -7.65 11.3 Q-7.45 9.9 -5.95 10.35 L-5.8 10.45 Q-5.3 10.6 -4.95 10.95 L-4.55 11.45 Q-4.05 12.25 -3.95 13.2 L-3.95 13.9 -4.1 14.95 -4.3 15.55 -4.5 15.9 -5.15 16.8 -5.75 17.15 Q-6.25 17.3 -6.6 17.6 L-7.0 18.1 -7.0 18.2 -7.0 18.3 -6.9 18.95 -6.6 19.35 -6.5 19.25 -5.45 18.25 Q-4.85 17.75 -4.05 18.05 -2.85 18.4 -3.55 19.6 L-3.55 19.65 -4.1 20.3 -4.55 21.2 -4.6 21.45 -4.4 22.05 Q-4.15 22.95 -4.2 23.95 L-4.15 24.25 -4.05 25.5 -3.65 24.8 Q-3.6 24.6 -3.55 24.4 L-3.4 23.35 Q-3.4 22.6 -3.05 22.0 -2.65 21.55 -2.3 21.1 L-1.55 20.7 Q-1.3 20.1 -1.1 19.55 L-1.05 18.9 -1.05 18.45 -1.2 18.25 -1.75 17.05 Q-1.95 16.1 -1.5 15.1 -1.35 14.8 -1.05 14.8 L0.15 14.95 Q1.05 15.25 1.25 16.4 L1.4 17.15 Q1.5 18.0 1.55 18.8 L1.55 19.7 1.55 20.15 Q1.7 21.5 1.15 22.65 L1.0 22.85 0.95 22.85 -0.1 24.25 -0.25 24.65 -0.25 25.85 -0.05 26.05 0.9 27.15 1.0 27.25 1.8 27.25 Q1.45 26.75 1.4 26.25 L1.35 25.75 Q1.35 25.0 1.85 24.3 L2.35 23.95 Q3.85 23.4 4.35 24.7 L4.45 25.1 4.45 25.2 Q4.55 25.85 4.3 26.35 4.6 26.1 4.85 25.85 L5.3 25.2 Q5.5 24.9 5.65 24.6 L5.7 23.65 5.7 23.35 5.7 22.9 5.7 22.8 5.7 22.7 5.7 22.6 5.7 22.6 5.5 22.4 Q4.7 21.2 3.95 20.05 L3.85 19.7 Q3.7 18.4 4.35 17.45 4.55 17.15 4.9 17.3 L5.35 17.65 Q5.65 18.0 5.5 18.6 L5.6 18.5 Q6.35 18.05 6.25 17.0 L6.05 15.25 6.05 14.85 6.05 14.25 6.15 13.85 Q6.35 13.2 6.95 12.7 L7.2 12.05 Q7.7 10.75 8.8 9.7 L11.55 7.35 12.35 6.85 12.9 6.7 13.05 6.75 14.45 6.15 15.35 5.75 Q20.3 3.3 20.3 0.0 20.3 -1.45 19.35 -2.7 17.95 -4.65 14.45 -6.2 10.05 -8.15 4.25 -8.6 L0.4 -8.75 Q-6.9 -8.75 -12.35 -6.75 L-13.7 -6.2 Q-19.5 -3.6 -19.5 0.0"/>
    </path>
    <path d="M-19.5 0.0 Q-19.5 -3.2 -14.85 -5.65 L-13.7 -6.2 Q-9.05 -8.2 -2.9 -8.65 L0.4 -8.75 Q5.35 -8.75 9.4 -7.8 11.9 -7.0 14.45 -6.2 15.55 -5.65 16.65 -5.05 20.3 -2.85 20.3 0.0 L20.2 0.8 19.8 1.95 19.8 2.05 19.55 2.5 19.05 3.1 16.65 5.05 Q15.55 5.6 14.45 6.15 L13.9 6.35 Q13.25 6.65 12.55 6.95 L12.25 7.05 11.85 7.5 11.6 7.8 10.55 8.7 Q10.15 9.15 9.75 9.65 L9.65 9.75 Q9.35 10.1 9.05 10.45 L8.85 10.65 Q8.65 10.9 8.4 11.15 7.75 11.95 7.45 12.9 L7.35 13.2 Q7.05 14.35 7.2 15.7 L7.1 15.8 7.1 15.85 7.0 15.85 6.95 15.9 6.85 15.75 6.75 15.45 6.75 15.2 6.3 14.4 Q6.05 14.15 5.65 14.05 L5.15 13.85 Q4.65 13.7 4.25 13.85 3.8 13.95 3.45 14.3 L3.45 14.3 3.25 14.55 Q2.6 15.4 2.4 16.4 L2.3 17.15 Q2.3 17.65 2.35 18.2 L2.45 18.6 Q2.65 19.0 2.9 19.4 L3.35 20.05 3.45 20.15 3.95 20.75 4.05 20.95 4.65 21.8 4.85 22.3 5.1 23.7 5.1 23.7 5.0 23.5 Q4.5 22.65 3.65 22.15 L3.2 21.9 2.35 21.65 Q1.35 21.4 1.3 22.35 L1.35 22.95 Q1.5 23.75 2.25 24.3 L1.25 24.5 Q1.0 24.5 0.7 24.45 -0.15 24.3 -0.8 23.45 L-0.85 22.5 -0.85 22.3 -0.85 21.95 -0.8 21.35 Q-0.4 20.95 -0.3 20.45 L-0.25 19.8 Q-0.35 19.25 -0.6 18.9 -0.95 18.5 -1.55 18.45 L-2.45 18.6 Q-2.7 18.65 -2.75 18.85 L-2.95 19.55 -3.15 20.65 -3.15 20.95 Q-3.1 21.7 -3.05 22.5 L-3.4 22.45 -3.6 22.3 -4.0 21.7 -4.5 21.05 -4.5 21.05 Q-4.5 20.2 -4.45 19.35 -4.45 18.8 -4.4 18.25 L-4.25 16.85 -4.25 16.75 -4.25 16.45 -4.4 15.9 -4.45 15.8 -4.65 15.5 -5.15 15.2 Q-5.55 15.25 -6.0 15.35 L-6.65 15.75 -7.3 16.55 -7.3 16.3 -7.3 15.75 -7.05 14.75 -6.8 14.15 Q-6.65 13.45 -6.45 12.7 L-6.5 12.0 Q-6.6 11.75 -6.7 11.5 L-6.9 11.2 Q-7.55 10.4 -8.2 9.55 L-8.4 9.35 -8.5 9.25 Q-8.95 8.8 -9.4 8.35 L-9.8 7.95 Q-10.0 7.75 -10.3 7.65 L-10.4 7.6 -10.8 7.5 -11.25 7.1 -11.85 6.9 Q-12.2 6.75 -12.55 6.6 L-12.75 6.5 -13.05 6.4 -13.7 6.15 -15.05 5.5 Q-19.5 3.15 -19.5 0.0 L-19.5 0.0" fill="none" stroke="#000000" stroke-linecap="round" stroke-linejoin="round" stroke-opacity="0.0" stroke-width="1.0">
      <animate attributeName="stroke" dur="2s" repeatCount="indefinite" values="#000000;#000001"/>
      <animate attributeName="stroke-width" dur="2s" repeatCount="indefinite" values="0.0;0.0"/>
      <animate attributeName="fill-opacity" dur="2s" repeatCount="indefinite" values="0.0;0.0"/>
      <animate attributeName="d" dur="2s" repeatCount="indefinite" values="M-19.5 0.0 Q-19.5 -3.2 -14.85 -5.65 L-13.7 -6.2 Q-9.05 -8.2 -2.9 -8.65 L0.4 -8.75 Q5.35 -8.75 9.4 -7.8 11.9 -7.0 14.45 -6.2 15.55 -5.65 16.65 -5.05 20.3 -2.85 20.3 0.0 L20.2 0.8 19.8 1.95 19.8 2.05 19.55 2.5 19.05 3.1 16.65 5.05 Q15.55 5.6 14.45 6.15 L13.9 6.35 Q13.25 6.65 12.55 6.95 L12.25 7.05 11.85 7.5 11.6 7.8 10.55 8.7 Q10.15 9.15 9.75 9.65 L9.65 9.75 Q9.35 10.1 9.05 10.45 L8.85 10.65 Q8.65 10.9 8.4 11.15 7.75 11.95 7.45 12.9 L7.35 13.2 Q7.05 14.35 7.2 15.7 L7.1 15.8 7.1 15.85 7.0 15.85 6.95 15.9 6.85 15.75 6.75 15.45 6.75 15.2 6.3 14.4 Q6.05 14.15 5.65 14.05 L5.15 13.85 Q4.65 13.7 4.25 13.85 3.8 13.95 3.45 14.3 L3.45 14.3 3.25 14.55 Q2.6 15.4 2.4 16.4 L2.3 17.15 Q2.3 17.65 2.35 18.2 L2.45 18.6 Q2.65 19.0 2.9 19.4 L3.35 20.05 3.45 20.15 3.95 20.75 4.05 20.95 4.65 21.8 4.85 22.3 5.1 23.7 5.1 23.7 5.0 23.5 Q4.5 22.65 3.65 22.15 L3.2 21.9 2.35 21.65 Q1.35 21.4 1.3 22.35 L1.35 22.95 Q1.5 23.75 2.25 24.3 L1.25 24.5 Q1.0 24.5 0.7 24.45 -0.15 24.3 -0.8 23.45 L-0.85 22.5 -0.85 22.3 -0.85 21.95 -0.8 21.35 Q-0.4 20.95 -0.3 20.45 L-0.25 19.8 Q-0.35 19.25 -0.6 18.9 -0.95 18.5 -1.55 18.45 L-2.45 18.6 Q-2.7 18.65 -2.75 18.85 L-2.95 19.55 -3.15 20.65 -3.15 20.95 Q-3.1 21.7 -3.05 22.5 L-3.4 22.45 -3.6 22.3 -4.0 21.7 -4.5 21.05 -4.5 21.05 Q-4.5 20.2 -4.45 19.35 -4.45 18.8 -4.4 18.25 L-4.25 16.85 -4.25 16.75 -4.25 16.45 -4.4 15.9 -4.45 15.8 -4.65 15.5 -5.15 15.2 Q-5.55 15.25 -6.0 15.35 L-6.65 15.75 -7.3 16.55 -7.3 16.3 -7.3 15.75 -7.05 14.75 -6.8 14.15 Q-6.65 13.45 -6.45 12.7 L-6.5 12.0 Q-6.6 11.75 -6.7 11.5 L-6.9 11.2 Q-7.55 10.4 -8.2 9.55 L-8.4 9.35 -8.5 9.25 Q-8.95 8.8 -9.4 8.35 L-9.8 7.95 Q-10.0 7.75 -10.3 7.65 L-10.4 7.6 -10.8 7.5 -11.25 7.1 -11.85 6.9 Q-12.2 6.75 -12.55 6.6 L-12.75 6.5 -13.05 6.4 -13.7 6.15 -15.05 5.5 Q-19.5 3.15 -19.5 0.0 L-19.5 0.0;M-19.5 0.0 Q-19.5 -3.6 -13.7 -6.2 L-12.35 -6.75 Q-6.9 -8.75 0.4 -8.75 L4.25 -8.6 Q10.05 -8.15 14.45 -6.2 17.95 -4.65 19.35 -2.7 20.3 -1.45 20.3 0.0 20.3 3.3 15.35 5.75 L14.45 6.15 13.05 6.75 12.9 6.7 12.35 6.85 11.55 7.35 8.8 9.7 Q7.7 10.75 7.2 12.05 L6.95 12.7 Q6.35 13.2 6.15 13.85 L6.05 14.25 6.05 14.85 6.05 15.25 6.25 17.0 Q6.35 18.05 5.6 18.5 L5.5 18.6 Q5.65 18.0 5.35 17.65 L4.9 17.3 Q4.55 17.15 4.35 17.45 3.7 18.4 3.85 19.7 L3.95 20.05 Q4.7 21.2 5.5 22.4 L5.7 22.6 5.7 22.6 5.7 22.7 5.7 22.8 5.7 22.9 5.7 23.35 5.7 23.65 5.65 24.6 Q5.5 24.9 5.3 25.2 L4.85 25.85 Q4.6 26.1 4.3 26.35 4.55 25.85 4.45 25.2 L4.45 25.1 4.35 24.7 Q3.85 23.4 2.35 23.95 L1.85 24.3 Q1.35 25.0 1.35 25.75 L1.4 26.25 Q1.45 26.75 1.8 27.25 L1.0 27.25 0.9 27.15 -0.05 26.05 -0.25 25.85 -0.25 24.65 -0.1 24.25 0.95 22.85 1.0 22.85 1.15 22.65 Q1.7 21.5 1.55 20.15 L1.55 19.7 1.55 18.8 Q1.5 18.0 1.4 17.15 L1.25 16.4 Q1.05 15.25 0.15 14.95 L-1.05 14.8 Q-1.35 14.8 -1.5 15.1 -1.95 16.1 -1.75 17.05 L-1.2 18.25 -1.05 18.45 -1.05 18.9 -1.1 19.55 Q-1.3 20.1 -1.55 20.7 L-2.3 21.1 Q-2.65 21.55 -3.05 22.0 -3.4 22.6 -3.4 23.35 L-3.55 24.4 Q-3.6 24.6 -3.65 24.8 L-4.05 25.5 -4.15 24.25 -4.2 23.95 Q-4.15 22.95 -4.4 22.05 L-4.6 21.45 -4.55 21.2 -4.1 20.3 -3.55 19.65 -3.55 19.6 Q-2.85 18.4 -4.05 18.05 -4.85 17.75 -5.45 18.25 L-6.5 19.25 -6.6 19.35 -6.9 18.95 -7.0 18.3 -7.0 18.2 -7.0 18.1 -6.6 17.6 Q-6.25 17.3 -5.75 17.15 L-5.15 16.8 -4.5 15.9 -4.3 15.55 -4.1 14.95 -3.95 13.9 -3.95 13.2 Q-4.05 12.25 -4.55 11.45 L-4.95 10.95 Q-5.3 10.6 -5.8 10.45 L-5.95 10.35 Q-7.45 9.9 -7.65 11.3 L-7.9 11.6 -7.95 11.7 Q-8.15 10.95 -8.5 10.3 L-8.5 9.9 Q-8.5 9.65 -8.55 9.35 L-8.55 9.35 -8.65 8.95 -8.9 8.5 -9.5 8.05 Q-9.95 7.75 -10.45 7.6 L-10.8 7.5 -11.25 7.1 -11.85 6.9 -13.7 6.15 Q-19.2 3.7 -19.5 0.35 L-19.5 0.0"/>
    </path>
  </g>
  <defs>
    <radialGradient cx="0" cy="0" gradientTransform="matrix(0.0351, 0.0, 0.0, 0.0351, 1.0, -0.75)" gradientUnits="userSpaceOnUse" id="gradient0" r="819.2" spreadMethod="pad">
      <animateTransform additive="replace" attributeName="gradientTransform" dur="2s" from="1" repeatCount="indefinite" to="1" type="scale"/>
      <animateTransform additive="sum" attributeName="gradientTransform" dur="2s" from="1.0 -0.75" repeatCount="indefinite" to="1.0 -0.75" type="translate"/>
      <animateTransform additive="sum" attributeName="gradientTransform" dur="2s" from="0.0" repeatCount="indefinite" to="0.0" type="rotate"/>
      <animateTransform additive="sum" attributeName="gradientTransform" dur="2s" from="0.0351 0.0351" repeatCount="indefinite" to="0.0351 0.0351" type="scale"/>
      <animateTransform additive="sum" attributeName="gradientTransform" dur="2s" from="0.0" repeatCount="indefinite" to="0.0" type="skewX"/>
      <stop offset="0.0" stop-color="#fefe0c" stop-opacity="0.9019608">
        <animate attributeName="offset" dur="2s" repeatCount="indefinite" values="0.0;0.0"/>
        <animate attributeName="stop-color" dur="2s" repeatCount="indefinite" values="#fefe0c;#fefe0d"/>
        <animate attributeName="stop-opacity" dur="2s" repeatCount="indefinite" values="0.9019608;0.9019608"/>
      </stop>
      <stop offset="0.5764705882352941" stop-color="#ffba2b" stop-opacity="0.9019608">
        <animate attributeName="offset" dur="2s" repeatCount="indefinite" values="0.5764705882352941;0.5764705882352941"/>
        <animate attributeName="stop-color" dur="2s" repeatCount="indefinite" values="#ffba2b;#ffba2c"/>
        <animate attributeName="stop-opacity" dur="2s" repeatCount="indefinite" values="0.9019608;0.9019608"/>
      </stop>
      <stop offset="1.0" stop-color="#ff720b" stop-opacity="0.9019608">
        <animate attributeName="offset" dur="2s" repeatCount="indefinite" values="1.0;1.0"/>
        <animate attributeName="stop-color" dur="2s" repeatCount="indefinite" values="#ff720b;#ff720c"/>
        <animate attributeName="stop-opacity" dur="2s" repeatCount="indefinite" values="0.9019608;0.9019608"/>
      </stop>
    </radialGradient>
  </defs>
</svg>
