<?xml version="1.0" encoding="UTF-8" standalone="no"?>
<svg xmlns:xlink="http://www.w3.org/1999/xlink" height="33.1px" width="19.3px" xmlns="http://www.w3.org/2000/svg">
  <g transform="matrix(1.0, 0.0, 0.0, 1.0, 8.8, 9.95)">
    <path d="M-8.8 0.5 L-8.8 0.9 Q-8.7 4.8 -6.25 7.6 L-6.2 7.6 Q-5.8 7.65 -5.5 7.95 -4.7 8.75 -4.75 9.8 L-4.75 10.0 -4.8 10.3 -4.95 10.8 -5.05 11.0 -5.15 11.35 -5.15 11.65 -5.15 11.75 Q-5.15 12.9 -5.15 14.05 L-5.05 14.0 -4.65 13.5 -3.85 12.6 -3.75 12.55 -3.45 12.55 Q-2.95 12.8 -2.85 13.2 L-2.95 13.95 Q-3.35 15.0 -3.3 16.2 L-3.35 16.9 Q-3.45 17.5 -3.85 17.9 L-4.45 18.3 -4.4 18.45 -3.55 18.15 -2.7 17.65 -2.15 17.3 -2.1 17.2 -2.1 17.2 -1.95 16.95 -1.9 16.85 -1.9 16.25 -1.9 15.25 -1.9 15.15 -1.9 15.05 Q-1.75 14.0 -1.65 13.0 L-1.3 12.7 -0.4 12.75 Q0.25 12.95 0.4 13.9 L0.5 14.2 0.6 15.0 0.6 15.2 0.6 15.85 0.3 16.9 0.05 17.3 0.05 17.3 Q-0.65 18.35 -1.35 19.4 -1.45 19.55 -1.55 19.7 L-1.55 19.85 Q-1.55 20.7 -1.55 21.55 L-1.55 22.05 -1.5 22.15 -0.65 22.95 -0.55 23.05 -0.45 23.1 -0.25 23.1 0.35 23.15 0.45 23.15 Q0.0 22.65 -0.15 22.0 L-0.25 21.5 -0.25 21.1 -0.2 20.75 Q0.0 20.15 0.75 20.2 1.45 20.2 1.7 20.9 L1.8 21.05 1.9 21.15 2.45 21.35 2.95 21.7 Q3.4 22.15 3.45 22.8 L3.55 22.75 Q4.0 22.0 3.55 21.1 L3.4 20.9 3.1 20.45 2.9 20.25 Q2.5 19.85 2.15 19.5 L1.95 19.2 Q1.45 18.8 1.4 18.4 1.3 17.9 1.85 17.4 1.95 17.25 2.15 17.25 L2.35 17.25 Q3.1 17.25 3.7 17.6 L4.6 18.55 4.95 19.2 5.0 19.65 5.15 19.75 6.0 20.5 6.05 20.55 Q6.2 19.0 5.4 17.65 L5.05 17.15 Q4.55 16.5 4.6 15.9 4.6 15.3 5.05 14.7 L5.2 14.6 5.6 14.55 6.45 14.65 6.55 14.65 6.75 14.75 7.1 14.75 7.1 14.7 Q5.8 12.6 6.65 10.2 L6.85 9.85 8.1 8.75 8.6 7.55 8.8 7.05 8.85 6.95 Q10.5 4.1 10.5 0.5 L10.25 -2.05 Q9.65 -4.8 7.65 -6.9 6.25 -8.45 4.5 -9.2 2.8 -9.95 0.85 -9.95 -2.25 -9.95 -4.65 -8.15 L-6.0 -6.9 Q-8.8 -3.85 -8.8 0.5" fill="url(#gradient0)" fill-rule="evenodd" stroke="none">
      <animate attributeName="d" dur="2s" repeatCount="indefinite" values="M-8.8 0.5 L-8.8 0.9 Q-8.7 4.8 -6.25 7.6 L-6.2 7.6 Q-5.8 7.65 -5.5 7.95 -4.7 8.75 -4.75 9.8 L-4.75 10.0 -4.8 10.3 -4.95 10.8 -5.05 11.0 -5.15 11.35 -5.15 11.65 -5.15 11.75 Q-5.15 12.9 -5.15 14.05 L-5.05 14.0 -4.65 13.5 -3.85 12.6 -3.75 12.55 -3.45 12.55 Q-2.95 12.8 -2.85 13.2 L-2.95 13.95 Q-3.35 15.0 -3.3 16.2 L-3.35 16.9 Q-3.45 17.5 -3.85 17.9 L-4.45 18.3 -4.4 18.45 -3.55 18.15 -2.7 17.65 -2.15 17.3 -2.1 17.2 -2.1 17.2 -1.95 16.95 -1.9 16.85 -1.9 16.25 -1.9 15.25 -1.9 15.15 -1.9 15.05 Q-1.75 14.0 -1.65 13.0 L-1.3 12.7 -0.4 12.75 Q0.25 12.95 0.4 13.9 L0.5 14.2 0.6 15.0 0.6 15.2 0.6 15.85 0.3 16.9 0.05 17.3 0.05 17.3 Q-0.65 18.35 -1.35 19.4 -1.45 19.55 -1.55 19.7 L-1.55 19.85 Q-1.55 20.7 -1.55 21.55 L-1.55 22.05 -1.5 22.15 -0.65 22.95 -0.55 23.05 -0.45 23.1 -0.25 23.1 0.35 23.15 0.45 23.15 Q0.0 22.65 -0.15 22.0 L-0.25 21.5 -0.25 21.1 -0.2 20.75 Q0.0 20.15 0.75 20.2 1.45 20.2 1.7 20.9 L1.8 21.05 1.9 21.15 2.45 21.35 2.95 21.7 Q3.4 22.15 3.45 22.8 L3.55 22.75 Q4.0 22.0 3.55 21.1 L3.4 20.9 3.1 20.45 2.9 20.25 Q2.5 19.85 2.15 19.5 L1.95 19.2 Q1.45 18.8 1.4 18.4 1.3 17.9 1.85 17.4 1.95 17.25 2.15 17.25 L2.35 17.25 Q3.1 17.25 3.7 17.6 L4.6 18.55 4.95 19.2 5.0 19.65 5.15 19.75 6.0 20.5 6.05 20.55 Q6.2 19.0 5.4 17.65 L5.05 17.15 Q4.55 16.5 4.6 15.9 4.6 15.3 5.05 14.7 L5.2 14.6 5.6 14.55 6.45 14.65 6.55 14.65 6.75 14.75 7.1 14.75 7.1 14.7 Q5.8 12.6 6.65 10.2 L6.85 9.85 8.1 8.75 8.6 7.55 8.8 7.05 8.85 6.95 Q10.5 4.1 10.5 0.5 L10.25 -2.05 Q9.65 -4.8 7.65 -6.9 6.25 -8.45 4.5 -9.2 2.8 -9.95 0.85 -9.95 -2.25 -9.95 -4.65 -8.15 L-6.0 -6.9 Q-8.8 -3.85 -8.8 0.5;M-8.8 0.5 L-8.8 0.5 Q-8.8 3.8 -7.15 6.3 L-7.15 6.4 Q-7.0 6.6 -6.9 6.8 -6.45 7.35 -6.0 7.9 L-5.85 8.05 -5.55 8.35 -5.35 8.6 -5.15 8.9 -5.05 9.25 -5.0 9.45 -5.0 9.55 Q-4.45 10.45 -4.45 11.55 L-4.45 11.65 -4.5 12.15 -4.7 13.05 -4.7 13.25 -4.75 13.45 Q-4.85 13.7 -4.95 13.9 L-4.25 13.7 Q-3.35 13.8 -2.5 13.9 L-2.05 14.2 Q-1.75 14.45 -1.75 14.85 L-1.75 15.25 -1.75 15.35 -2.05 16.15 -2.45 16.6 -2.9 16.85 -3.0 16.95 -3.0 16.95 -3.15 17.25 -3.15 17.35 -3.25 17.8 -3.25 18.6 -3.2 18.65 -3.1 18.65 Q-2.5 17.75 -1.75 17.85 L-1.35 17.95 -0.8 18.35 Q-0.2 18.9 -0.25 19.65 L-0.25 19.85 -0.2 20.6 -0.05 20.9 0.35 21.2 0.7 20.8 0.7 20.5 0.7 20.4 Q0.4 19.05 1.55 18.7 1.6 18.6 1.8 18.55 L1.8 18.45 Q2.45 18.0 3.1 18.2 L3.5 18.35 3.6 18.35 4.3 18.45 4.4 18.45 4.5 18.45 4.65 18.45 5.2 18.55 5.3 18.55 Q6.0 18.9 6.3 19.5 L6.65 19.65 6.75 19.45 6.8 19.2 Q6.6 18.85 6.4 18.55 6.05 18.2 5.75 17.9 L5.55 17.8 5.45 17.7 4.85 17.4 4.3 17.1 Q4.0 16.9 3.75 16.7 L3.65 16.6 Q3.25 16.0 3.35 15.15 L3.35 14.95 3.5 14.55 3.65 14.35 Q3.95 14.0 4.35 13.95 L4.6 13.95 Q4.95 14.05 5.3 14.1 5.85 14.3 6.2 14.75 6.3 14.85 6.35 14.95 L6.45 15.15 Q6.8 15.65 7.1 16.15 L6.85 14.95 6.75 14.35 6.7 13.85 6.7 13.75 6.65 12.95 6.65 12.85 Q6.7 11.6 6.75 10.4 L6.85 9.9 Q7.15 9.3 7.4 8.75 7.75 8.15 8.35 7.9 L8.45 7.8 8.55 7.7 8.8 7.05 8.85 6.95 8.85 6.95 8.95 6.75 8.95 6.75 Q9.9 5.1 10.2 3.15 L10.3 2.75 10.45 1.4 10.5 0.5 10.5 -0.1 10.5 -0.2 Q10.35 -3.05 8.9 -5.3 L7.65 -6.9 Q6.05 -8.65 4.05 -9.4 2.45 -9.7 0.85 -9.95 -0.65 -9.7 -2.15 -9.5 -4.3 -8.75 -6.0 -6.9 L-6.95 -5.75 Q-8.8 -3.05 -8.8 0.5"/>
    </path>
    <path d="M-8.8 0.5 Q-8.8 -3.85 -6.0 -6.9 L-4.65 -8.15 Q-2.25 -9.95 0.85 -9.95 2.8 -9.95 4.5 -9.2 6.25 -8.45 7.65 -6.9 9.65 -4.8 10.25 -2.05 L10.5 0.5 Q10.5 4.1 8.85 6.95 L8.8 7.05 8.6 7.55 8.1 8.75 6.85 9.85 6.65 10.2 Q5.8 12.6 7.1 14.7 L7.1 14.75 6.75 14.75 6.55 14.65 6.45 14.65 5.6 14.55 5.2 14.6 5.05 14.7 Q4.6 15.3 4.6 15.9 4.55 16.5 5.05 17.15 L5.4 17.65 Q6.2 19.0 6.05 20.55 L6.0 20.5 5.15 19.75 5.0 19.65 4.95 19.2 4.6 18.55 3.7 17.6 Q3.1 17.25 2.35 17.25 L2.15 17.25 Q1.95 17.25 1.85 17.4 1.3 17.9 1.4 18.4 1.45 18.8 1.95 19.2 L2.15 19.5 Q2.5 19.85 2.9 20.25 L3.1 20.45 3.4 20.9 3.55 21.1 Q4.0 22.0 3.55 22.75 L3.45 22.8 Q3.4 22.15 2.95 21.7 L2.45 21.35 1.9 21.15 1.8 21.05 1.7 20.9 Q1.45 20.2 0.75 20.2 0.0 20.15 -0.2 20.75 L-0.25 21.1 -0.25 21.5 -0.15 22.0 Q0.0 22.65 0.45 23.15 L0.35 23.15 -0.25 23.1 -0.45 23.1 -0.55 23.05 -0.65 22.95 -1.5 22.15 -1.55 22.05 -1.55 21.55 Q-1.55 20.7 -1.55 19.85 L-1.55 19.7 Q-1.45 19.55 -1.35 19.4 -0.65 18.35 0.05 17.3 L0.05 17.3 0.3 16.9 0.6 15.85 0.6 15.2 0.6 15.0 0.5 14.2 0.4 13.9 Q0.25 12.95 -0.4 12.75 L-1.3 12.7 -1.65 13.0 Q-1.75 14.0 -1.9 15.05 L-1.9 15.15 -1.9 15.25 -1.9 16.25 -1.9 16.85 -1.95 16.95 -2.1 17.2 -2.1 17.2 -2.15 17.3 -2.7 17.65 -3.55 18.15 -4.4 18.45 -4.45 18.3 -3.85 17.9 Q-3.45 17.5 -3.35 16.9 L-3.3 16.2 Q-3.35 15.0 -2.95 13.95 L-2.85 13.2 Q-2.95 12.8 -3.45 12.55 L-3.75 12.55 -3.85 12.6 -4.65 13.5 -5.05 14.0 -5.15 14.05 Q-5.15 12.9 -5.15 11.75 L-5.15 11.65 -5.15 11.35 -5.05 11.0 -4.95 10.8 -4.8 10.3 -4.75 10.0 -4.75 9.8 Q-4.7 8.75 -5.5 7.95 -5.8 7.65 -6.2 7.6 L-6.25 7.6 Q-8.7 4.8 -8.8 0.9 L-8.8 0.5" fill="none" stroke="#000000" stroke-linecap="round" stroke-linejoin="round" stroke-opacity="0.0" stroke-width="1.0">
      <animate attributeName="stroke" dur="2s" repeatCount="indefinite" values="#000000;#000001"/>
      <animate attributeName="stroke-width" dur="2s" repeatCount="indefinite" values="0.0;0.0"/>
      <animate attributeName="fill-opacity" dur="2s" repeatCount="indefinite" values="0.0;0.0"/>
      <animate attributeName="d" dur="2s" repeatCount="indefinite" values="M-8.8 0.5 Q-8.8 -3.85 -6.0 -6.9 L-4.65 -8.15 Q-2.25 -9.95 0.85 -9.95 2.8 -9.95 4.5 -9.2 6.25 -8.45 7.65 -6.9 9.65 -4.8 10.25 -2.05 L10.5 0.5 Q10.5 4.1 8.85 6.95 L8.8 7.05 8.6 7.55 8.1 8.75 6.85 9.85 6.65 10.2 Q5.8 12.6 7.1 14.7 L7.1 14.75 6.75 14.75 6.55 14.65 6.45 14.65 5.6 14.55 5.2 14.6 5.05 14.7 Q4.6 15.3 4.6 15.9 4.55 16.5 5.05 17.15 L5.4 17.65 Q6.2 19.0 6.05 20.55 L6.0 20.5 5.15 19.75 5.0 19.65 4.95 19.2 4.6 18.55 3.7 17.6 Q3.1 17.25 2.35 17.25 L2.15 17.25 Q1.95 17.25 1.85 17.4 1.3 17.9 1.4 18.4 1.45 18.8 1.95 19.2 L2.15 19.5 Q2.5 19.85 2.9 20.25 L3.1 20.45 3.4 20.9 3.55 21.1 Q4.0 22.0 3.55 22.75 L3.45 22.8 Q3.4 22.15 2.95 21.7 L2.45 21.35 1.9 21.15 1.8 21.05 1.7 20.9 Q1.45 20.2 0.75 20.2 0.0 20.15 -0.2 20.75 L-0.25 21.1 -0.25 21.5 -0.15 22.0 Q0.0 22.65 0.45 23.15 L0.35 23.15 -0.25 23.1 -0.45 23.1 -0.55 23.05 -0.65 22.95 -1.5 22.15 -1.55 22.05 -1.55 21.55 Q-1.55 20.7 -1.55 19.85 L-1.55 19.7 Q-1.45 19.55 -1.35 19.4 -0.65 18.35 0.05 17.3 L0.05 17.3 0.3 16.9 0.6 15.85 0.6 15.2 0.6 15.0 0.5 14.2 0.4 13.9 Q0.25 12.95 -0.4 12.75 L-1.3 12.7 -1.65 13.0 Q-1.75 14.0 -1.9 15.05 L-1.9 15.15 -1.9 15.25 -1.9 16.25 -1.9 16.85 -1.95 16.95 -2.1 17.2 -2.1 17.2 -2.15 17.3 -2.7 17.65 -3.55 18.15 -4.4 18.45 -4.45 18.3 -3.85 17.9 Q-3.45 17.5 -3.35 16.9 L-3.3 16.2 Q-3.35 15.0 -2.95 13.95 L-2.85 13.2 Q-2.95 12.8 -3.45 12.55 L-3.75 12.55 -3.85 12.6 -4.65 13.5 -5.05 14.0 -5.15 14.05 Q-5.15 12.9 -5.15 11.75 L-5.15 11.65 -5.15 11.35 -5.05 11.0 -4.95 10.8 -4.8 10.3 -4.75 10.0 -4.75 9.8 Q-4.7 8.75 -5.5 7.95 -5.8 7.65 -6.2 7.6 L-6.25 7.6 Q-8.7 4.8 -8.8 0.9 L-8.8 0.5;M-8.8 0.5 Q-8.8 -3.05 -6.95 -5.75 L-6.0 -6.9 Q-4.3 -8.75 -2.15 -9.5 -0.65 -9.7 0.85 -9.95 2.45 -9.7 4.05 -9.4 6.05 -8.65 7.65 -6.9 L8.9 -5.3 Q10.35 -3.05 10.5 -0.2 L10.5 -0.1 10.5 0.5 10.45 1.4 10.3 2.75 10.2 3.15 Q9.9 5.1 8.95 6.75 L8.95 6.75 8.85 6.95 8.85 6.95 8.8 7.05 8.55 7.7 8.45 7.8 8.35 7.9 Q7.75 8.15 7.4 8.75 7.15 9.3 6.85 9.9 L6.75 10.4 Q6.7 11.6 6.65 12.85 L6.65 12.95 6.7 13.75 6.7 13.85 6.75 14.35 6.85 14.95 7.1 16.15 Q6.8 15.65 6.45 15.15 L6.35 14.95 Q6.3 14.85 6.2 14.75 5.85 14.3 5.3 14.1 4.95 14.05 4.6 13.95 L4.35 13.95 Q3.95 14.0 3.65 14.35 L3.5 14.55 3.35 14.95 3.35 15.15 Q3.25 16.0 3.65 16.6 L3.75 16.7 Q4.0 16.9 4.3 17.1 L4.85 17.4 5.45 17.7 5.55 17.8 5.75 17.9 Q6.05 18.2 6.4 18.55 6.6 18.85 6.8 19.2 L6.75 19.45 6.65 19.65 6.3 19.5 Q6.0 18.9 5.3 18.55 L5.2 18.55 4.65 18.45 4.5 18.45 4.4 18.45 4.3 18.45 3.6 18.35 3.5 18.35 3.1 18.2 Q2.45 18.0 1.8 18.45 L1.8 18.55 Q1.6 18.6 1.55 18.7 0.4 19.05 0.7 20.4 L0.7 20.5 0.7 20.8 0.35 21.2 -0.05 20.9 -0.2 20.6 -0.25 19.85 -0.25 19.65 Q-0.2 18.9 -0.8 18.35 L-1.35 17.95 -1.75 17.85 Q-2.5 17.75 -3.1 18.65 L-3.2 18.65 -3.25 18.6 -3.25 17.8 -3.15 17.35 -3.15 17.25 -3.0 16.95 -3.0 16.95 -2.9 16.85 -2.45 16.6 -2.05 16.15 -1.75 15.35 -1.75 15.25 -1.75 14.85 Q-1.75 14.45 -2.05 14.2 L-2.5 13.9 Q-3.35 13.8 -4.25 13.7 L-4.95 13.9 Q-4.85 13.7 -4.75 13.45 L-4.7 13.25 -4.7 13.05 -4.5 12.15 -4.45 11.65 -4.45 11.55 Q-4.45 10.45 -5.0 9.55 L-5.0 9.45 -5.05 9.25 -5.15 8.9 -5.35 8.6 -5.55 8.35 -5.85 8.05 -6.0 7.9 Q-6.45 7.35 -6.9 6.8 -7.0 6.6 -7.15 6.4 L-7.15 6.3 Q-8.8 3.8 -8.8 0.5 L-8.8 0.5"/>
    </path>
  </g>
  <defs>
    <radialGradient cx="0" cy="0" gradientTransform="matrix(0.0246, 0.0, 0.0, 0.0246, 1.9, 10.15)" gradientUnits="userSpaceOnUse" id="gradient0" r="819.2" spreadMethod="pad">
      <animateTransform additive="replace" attributeName="gradientTransform" dur="2s" from="1" repeatCount="indefinite" to="1" type="scale"/>
      <animateTransform additive="sum" attributeName="gradientTransform" dur="2s" from="1.9 10.15" repeatCount="indefinite" to="1.9 10.15" type="translate"/>
      <animateTransform additive="sum" attributeName="gradientTransform" dur="2s" from="0.0" repeatCount="indefinite" to="0.0" type="rotate"/>
      <animateTransform additive="sum" attributeName="gradientTransform" dur="2s" from="0.0246 0.0246" repeatCount="indefinite" to="0.0246 0.0246" type="scale"/>
      <animateTransform additive="sum" attributeName="gradientTransform" dur="2s" from="0.0" repeatCount="indefinite" to="0.0" type="skewX"/>
      <stop offset="0.0" stop-color="#fefe0c" stop-opacity="0.9019608">
        <animate attributeName="offset" dur="2s" repeatCount="indefinite" values="0.0;0.0"/>
        <animate attributeName="stop-color" dur="2s" repeatCount="indefinite" values="#fefe0c;#fefe0d"/>
        <animate attributeName="stop-opacity" dur="2s" repeatCount="indefinite" values="0.9019608;0.9019608"/>
      </stop>
      <stop offset="0.5764705882352941" stop-color="#ffba2b" stop-opacity="0.9019608">
        <animate attributeName="offset" dur="2s" repeatCount="indefinite" values="0.5764705882352941;0.5764705882352941"/>
        <animate attributeName="stop-color" dur="2s" repeatCount="indefinite" values="#ffba2b;#ffba2c"/>
        <animate attributeName="stop-opacity" dur="2s" repeatCount="indefinite" values="0.9019608;0.9019608"/>
      </stop>
      <stop offset="1.0" stop-color="#ff720b" stop-opacity="0.9019608">
        <animate attributeName="offset" dur="2s" repeatCount="indefinite" values="1.0;1.0"/>
        <animate attributeName="stop-color" dur="2s" repeatCount="indefinite" values="#ff720b;#ff720c"/>
        <animate attributeName="stop-opacity" dur="2s" repeatCount="indefinite" values="0.9019608;0.9019608"/>
      </stop>
    </radialGradient>
  </defs>
</svg>
