<?xml version="1.0" encoding="UTF-8" standalone="no"?>
<svg xmlns:xlink="http://www.w3.org/1999/xlink" height="6.35px" width="3.7px" xmlns="http://www.w3.org/2000/svg">
  <g transform="matrix(1.0, 0.0, 0.0, 1.0, -2.8, -4.8)">
    <path d="M2.8 6.55 L2.8 6.55 3.7 6.7 Q4.05 7.0 4.45 6.95 L4.85 6.8 5.4 6.8 Q5.9 6.65 6.35 6.55 L6.4 6.45 6.5 5.9 6.5 5.8 Q6.5 5.2 6.0 4.8 L5.95 4.8 5.85 4.8 5.55 5.05 5.55 5.35 5.55 5.4 5.5 5.6 5.3 5.6 Q4.95 5.35 4.6 5.3 L4.55 5.15 Q4.35 4.8 4.05 5.0 L3.6 5.3 3.25 5.6 Q2.9 6.0 2.8 6.55" fill="#000000" fill-rule="evenodd" stroke="none">
      <animate attributeName="fill" dur="2s" repeatCount="indefinite" values="#000000;#000001"/>
      <animate attributeName="fill-opacity" dur="2s" repeatCount="indefinite" values="1.0;1.0"/>
      <animate attributeName="d" dur="2s" repeatCount="indefinite" values="M2.8 6.55 L2.8 6.55 3.7 6.7 Q4.05 7.0 4.45 6.95 L4.85 6.8 5.4 6.8 Q5.9 6.65 6.35 6.55 L6.4 6.45 6.5 5.9 6.5 5.8 Q6.5 5.2 6.0 4.8 L5.95 4.8 5.85 4.8 5.55 5.05 5.55 5.35 5.55 5.4 5.5 5.6 5.3 5.6 Q4.95 5.35 4.6 5.3 L4.55 5.15 Q4.35 4.8 4.05 5.0 L3.6 5.3 3.25 5.6 Q2.9 6.0 2.8 6.55;M2.8 10.95 L3.0 11.05 3.75 11.15 Q4.15 11.1 4.5 11.05 L4.85 10.9 5.15 10.55 Q5.65 10.7 6.0 10.35 L6.1 10.25 6.35 9.85 6.4 9.8 Q6.65 9.1 6.0 8.85 L6.0 8.9 5.9 8.95 5.6 9.1 5.4 9.35 5.4 9.35 5.1 9.35 4.9 9.35 Q4.5 9.4 4.1 9.45 L4.1 9.45 Q3.8 9.25 3.5 9.1 L3.0 9.45 3.0 9.85 Q2.9 10.4 2.8 10.95"/>
    </path>
    <path d="M2.8 6.55 Q2.9 6.0 3.25 5.6 L3.6 5.3 4.05 5.0 Q4.35 4.8 4.55 5.15 L4.6 5.3 Q4.95 5.35 5.3 5.6 L5.5 5.6 5.55 5.4 5.55 5.35 5.55 5.05 5.85 4.8 5.95 4.8 6.0 4.8 Q6.5 5.2 6.5 5.8 L6.5 5.9 6.4 6.45 6.35 6.55 Q5.9 6.65 5.4 6.8 L4.85 6.8 4.45 6.95 Q4.05 7.0 3.7 6.7 L2.8 6.55 2.8 6.55" fill="none" stroke="#000000" stroke-linecap="round" stroke-linejoin="round" stroke-opacity="0.0" stroke-width="1.0">
      <animate attributeName="stroke" dur="2s" repeatCount="indefinite" values="#000000;#000001"/>
      <animate attributeName="stroke-width" dur="2s" repeatCount="indefinite" values="0.0;0.0"/>
      <animate attributeName="fill-opacity" dur="2s" repeatCount="indefinite" values="0.0;0.0"/>
      <animate attributeName="d" dur="2s" repeatCount="indefinite" values="M2.8 6.55 Q2.9 6.0 3.25 5.6 L3.6 5.3 4.05 5.0 Q4.35 4.8 4.55 5.15 L4.6 5.3 Q4.95 5.35 5.3 5.6 L5.5 5.6 5.55 5.4 5.55 5.35 5.55 5.05 5.85 4.8 5.95 4.8 6.0 4.8 Q6.5 5.2 6.5 5.8 L6.5 5.9 6.4 6.45 6.35 6.55 Q5.9 6.65 5.4 6.8 L4.85 6.8 4.45 6.95 Q4.05 7.0 3.7 6.7 L2.8 6.55 2.8 6.55;M2.8 10.95 Q2.9 10.4 3.0 9.85 L3.0 9.45 3.5 9.1 Q3.8 9.25 4.1 9.45 L4.1 9.45 Q4.5 9.4 4.9 9.35 L5.1 9.35 5.4 9.35 5.4 9.35 5.6 9.1 5.9 8.95 6.0 8.9 6.0 8.85 Q6.65 9.1 6.4 9.8 L6.35 9.85 6.1 10.25 6.0 10.35 Q5.65 10.7 5.15 10.55 L4.85 10.9 4.5 11.05 Q4.15 11.1 3.75 11.15 L3.0 11.05 2.8 10.95"/>
    </path>
  </g>
</svg>
