<?xml version="1.0" encoding="UTF-8" standalone="no"?>
<svg xmlns:xlink="http://www.w3.org/1999/xlink" height="5.6px" width="4.3px" xmlns="http://www.w3.org/2000/svg">
  <g transform="matrix(1.0, 0.0, 0.0, 1.0, 1.95, 9.2)">
    <path d="M-1.95 -7.7 L-1.95 -7.7 -1.75 -7.55 -1.4 -7.45 -1.2 -7.5 -0.9 -7.7 -0.7 -7.55 -0.7 -7.55 -0.6 -7.55 -0.5 -7.55 -0.45 -7.55 Q-0.3 -7.6 -0.15 -7.6 L-0.05 -7.55 Q0.6 -7.45 1.2 -7.35 1.45 -7.4 1.7 -7.6 L2.0 -7.85 2.35 -8.35 2.35 -8.45 2.05 -8.75 1.65 -8.8 1.35 -8.6 1.25 -8.5 1.15 -8.4 1.05 -8.4 0.6 -8.4 0.55 -8.45 0.55 -8.45 0.25 -8.75 -0.05 -8.9 -0.1 -8.95 -0.1 -8.95 -0.15 -9.0 -0.25 -9.1 -0.6 -9.2 -1.05 -9.0 -1.05 -9.0 -1.15 -8.9 -1.15 -8.9 -1.55 -8.55 -1.75 -8.25 -1.95 -7.7" fill="#000000" fill-rule="evenodd" stroke="none">
      <animate attributeName="fill" dur="2s" repeatCount="indefinite" values="#000000;#000001"/>
      <animate attributeName="fill-opacity" dur="2s" repeatCount="indefinite" values="1.0;1.0"/>
      <animate attributeName="d" dur="2s" repeatCount="indefinite" values="M-1.95 -7.7 L-1.95 -7.7 -1.75 -7.55 -1.4 -7.45 -1.2 -7.5 -0.9 -7.7 -0.7 -7.55 -0.7 -7.55 -0.6 -7.55 -0.5 -7.55 -0.45 -7.55 Q-0.3 -7.6 -0.15 -7.6 L-0.05 -7.55 Q0.6 -7.45 1.2 -7.35 1.45 -7.4 1.7 -7.6 L2.0 -7.85 2.35 -8.35 2.35 -8.45 2.05 -8.75 1.65 -8.8 1.35 -8.6 1.25 -8.5 1.15 -8.4 1.05 -8.4 0.6 -8.4 0.55 -8.45 0.55 -8.45 0.25 -8.75 -0.05 -8.9 -0.1 -8.95 -0.1 -8.95 -0.15 -9.0 -0.25 -9.1 -0.6 -9.2 -1.05 -9.0 -1.05 -9.0 -1.15 -8.9 -1.15 -8.9 -1.55 -8.55 -1.75 -8.25 -1.95 -7.7;M-1.8 -4.65 L-1.8 -4.4 -1.8 -4.3 -1.55 -4.1 -1.35 -4.05 -1.1 -4.1 -1.0 -4.1 -1.0 -4.05 -1.0 -3.95 -0.95 -3.9 -0.95 -3.8 Q-0.75 -3.65 -0.55 -3.6 L-0.45 -3.6 Q0.2 -3.5 0.85 -4.05 1.1 -4.1 1.3 -4.1 L1.6 -4.35 2.0 -4.95 2.0 -5.05 1.5 -5.7 1.15 -5.55 1.0 -5.4 1.0 -5.3 1.0 -5.2 0.95 -5.15 0.65 -5.0 0.55 -5.0 0.55 -5.0 0.25 -4.85 0.05 -5.0 -0.05 -5.0 -0.25 -5.0 -0.3 -5.0 -0.3 -5.1 -0.55 -5.65 -1.1 -5.7 -1.15 -5.7 -1.25 -5.7 -1.3 -5.65 -1.6 -5.3 -1.75 -5.15 -1.8 -4.65"/>
    </path>
    <path d="M-1.95 -7.7 L-1.75 -8.25 -1.55 -8.55 -1.15 -8.9 -1.15 -8.9 -1.05 -9.0 -1.05 -9.0 -0.6 -9.2 -0.25 -9.1 -0.15 -9.0 -0.1 -8.95 -0.1 -8.95 -0.05 -8.9 0.25 -8.75 0.55 -8.45 0.55 -8.45 0.6 -8.4 1.05 -8.4 1.15 -8.4 1.25 -8.5 1.35 -8.6 1.65 -8.8 2.05 -8.75 2.35 -8.45 2.35 -8.35 2.0 -7.85 1.7 -7.6 Q1.45 -7.4 1.2 -7.35 0.6 -7.45 -0.05 -7.55 L-0.15 -7.6 Q-0.3 -7.6 -0.45 -7.55 L-0.5 -7.55 -0.6 -7.55 -0.7 -7.55 -0.7 -7.55 -0.9 -7.7 -1.2 -7.5 -1.4 -7.45 -1.75 -7.55 -1.95 -7.7 -1.95 -7.7" fill="none" stroke="#000000" stroke-linecap="round" stroke-linejoin="round" stroke-opacity="0.0" stroke-width="1.0">
      <animate attributeName="stroke" dur="2s" repeatCount="indefinite" values="#000000;#000001"/>
      <animate attributeName="stroke-width" dur="2s" repeatCount="indefinite" values="0.0;0.0"/>
      <animate attributeName="fill-opacity" dur="2s" repeatCount="indefinite" values="0.0;0.0"/>
      <animate attributeName="d" dur="2s" repeatCount="indefinite" values="M-1.95 -7.7 L-1.75 -8.25 -1.55 -8.55 -1.15 -8.9 -1.15 -8.9 -1.05 -9.0 -1.05 -9.0 -0.6 -9.2 -0.25 -9.1 -0.15 -9.0 -0.1 -8.95 -0.1 -8.95 -0.05 -8.9 0.25 -8.75 0.55 -8.45 0.55 -8.45 0.6 -8.4 1.05 -8.4 1.15 -8.4 1.25 -8.5 1.35 -8.6 1.65 -8.8 2.05 -8.75 2.35 -8.45 2.35 -8.35 2.0 -7.85 1.7 -7.6 Q1.45 -7.4 1.2 -7.35 0.6 -7.45 -0.05 -7.55 L-0.15 -7.6 Q-0.3 -7.6 -0.45 -7.55 L-0.5 -7.55 -0.6 -7.55 -0.7 -7.55 -0.7 -7.55 -0.9 -7.7 -1.2 -7.5 -1.4 -7.45 -1.75 -7.55 -1.95 -7.7 -1.95 -7.7;M-1.8 -4.65 L-1.75 -5.15 -1.6 -5.3 -1.3 -5.65 -1.25 -5.7 -1.15 -5.7 -1.1 -5.7 -0.55 -5.65 -0.3 -5.1 -0.3 -5.0 -0.25 -5.0 -0.05 -5.0 0.05 -5.0 0.25 -4.85 0.55 -5.0 0.55 -5.0 0.65 -5.0 0.95 -5.15 1.0 -5.2 1.0 -5.3 1.0 -5.4 1.15 -5.55 1.5 -5.7 2.0 -5.05 2.0 -4.95 1.6 -4.35 1.3 -4.1 Q1.1 -4.1 0.85 -4.05 0.2 -3.5 -0.45 -3.6 L-0.55 -3.6 Q-0.75 -3.65 -0.95 -3.8 L-0.95 -3.9 -1.0 -3.95 -1.0 -4.05 -1.0 -4.1 -1.1 -4.1 -1.35 -4.05 -1.55 -4.1 -1.8 -4.3 -1.8 -4.4 -1.8 -4.65"/>
    </path>
  </g>
</svg>
