<?xml version="1.0" encoding="UTF-8" standalone="no"?>
<svg xmlns:xlink="http://www.w3.org/1999/xlink" height="3.7px" width="6.85px" xmlns="http://www.w3.org/2000/svg">
  <g transform="matrix(1.0, 0.0, 0.0, 1.0, -8.6, 7.15)">
    <path d="M8.7 -5.05 Q9.05 -4.75 9.35 -4.85 L9.6 -5.0 9.7 -5.1 10.1 -4.95 10.2 -4.95 10.65 -5.1 10.9 -5.15 11.7 -5.8 11.8 -6.0 12.0 -6.2 12.05 -6.3 12.1 -6.5 12.1 -6.6 Q12.15 -7.0 11.65 -7.15 L11.65 -7.1 11.5 -7.1 11.45 -7.05 10.95 -6.6 10.7 -6.15 10.5 -6.15 10.4 -6.15 9.6 -6.25 9.35 -6.3 8.9 -6.25 Q8.45 -6.0 8.7 -5.05" fill="#000000" fill-rule="evenodd" stroke="none">
      <animate attributeName="fill" dur="2s" repeatCount="indefinite" values="#000000;#000001"/>
      <animate attributeName="fill-opacity" dur="2s" repeatCount="indefinite" values="1.0;1.0"/>
      <animate attributeName="d" dur="2s" repeatCount="indefinite" values="M8.7 -5.05 Q9.05 -4.75 9.35 -4.85 L9.6 -5.0 9.7 -5.1 10.1 -4.95 10.2 -4.95 10.65 -5.1 10.9 -5.15 11.7 -5.8 11.8 -6.0 12.0 -6.2 12.05 -6.3 12.1 -6.5 12.1 -6.6 Q12.15 -7.0 11.65 -7.15 L11.65 -7.1 11.5 -7.1 11.45 -7.05 10.95 -6.6 10.7 -6.15 10.5 -6.15 10.4 -6.15 9.6 -6.25 9.35 -6.3 8.9 -6.25 Q8.45 -6.0 8.7 -5.05;M12.05 -3.7 Q12.2 -3.45 12.5 -3.45 L12.7 -3.5 12.8 -3.55 12.95 -3.8 13.2 -3.7 13.75 -3.5 14.2 -3.5 14.85 -3.9 15.0 -3.9 15.2 -4.0 15.25 -4.05 15.35 -4.15 15.4 -4.2 Q15.55 -4.65 15.35 -4.8 L15.25 -4.9 15.15 -5.0 15.05 -5.1 14.4 -5.2 13.95 -4.95 13.9 -4.8 13.9 -4.7 13.2 -4.8 13.0 -4.95 12.55 -5.05 Q11.75 -4.7 12.05 -3.7"/>
    </path>
    <path d="M8.7 -5.05 Q8.45 -6.0 8.9 -6.25 L9.35 -6.3 9.6 -6.25 10.4 -6.15 10.5 -6.15 10.7 -6.15 10.95 -6.6 11.45 -7.05 11.5 -7.1 11.65 -7.1 11.65 -7.15 Q12.15 -7.0 12.1 -6.6 L12.1 -6.5 12.05 -6.3 12.0 -6.2 11.8 -6.0 11.7 -5.8 10.9 -5.15 10.65 -5.1 10.2 -4.95 10.1 -4.95 9.7 -5.1 9.6 -5.0 9.35 -4.85 Q9.05 -4.75 8.7 -5.05" fill="none" stroke="#000000" stroke-linecap="round" stroke-linejoin="round" stroke-opacity="0.0" stroke-width="1.0">
      <animate attributeName="stroke" dur="2s" repeatCount="indefinite" values="#000000;#000001"/>
      <animate attributeName="stroke-width" dur="2s" repeatCount="indefinite" values="0.0;0.0"/>
      <animate attributeName="fill-opacity" dur="2s" repeatCount="indefinite" values="0.0;0.0"/>
      <animate attributeName="d" dur="2s" repeatCount="indefinite" values="M8.7 -5.05 Q8.45 -6.0 8.9 -6.25 L9.35 -6.3 9.6 -6.25 10.4 -6.15 10.5 -6.15 10.7 -6.15 10.95 -6.6 11.45 -7.05 11.5 -7.1 11.65 -7.1 11.65 -7.15 Q12.15 -7.0 12.1 -6.6 L12.1 -6.5 12.05 -6.3 12.0 -6.2 11.8 -6.0 11.7 -5.8 10.9 -5.15 10.65 -5.1 10.2 -4.95 10.1 -4.95 9.7 -5.1 9.6 -5.0 9.35 -4.85 Q9.05 -4.75 8.7 -5.05;M12.05 -3.7 Q11.75 -4.7 12.55 -5.05 L13.0 -4.95 13.2 -4.8 13.9 -4.7 13.9 -4.8 13.95 -4.95 14.4 -5.2 15.05 -5.1 15.15 -5.0 15.25 -4.9 15.35 -4.8 Q15.55 -4.65 15.4 -4.2 L15.35 -4.15 15.25 -4.05 15.2 -4.0 15.0 -3.9 14.85 -3.9 14.2 -3.5 13.75 -3.5 13.2 -3.7 12.95 -3.8 12.8 -3.55 12.7 -3.5 12.5 -3.45 Q12.2 -3.45 12.05 -3.7"/>
    </path>
  </g>
</svg>
