<?xml version="1.0" encoding="UTF-8" standalone="no"?>
<svg xmlns:xlink="http://www.w3.org/1999/xlink" height="36.0px" width="39.8px" xmlns="http://www.w3.org/2000/svg">
  <g transform="matrix(1.0, 0.0, 0.0, 1.0, 19.5, 8.75)">
    <path d="M-19.5 0.0 L-19.4 0.85 Q-18.8 3.9 -13.7 6.15 L-12.7 6.55 -11.25 7.1 -11.05 7.3 -10.8 7.5 -10.45 7.6 Q-9.95 7.75 -9.5 8.05 -8.75 8.5 -8.55 9.25 L-8.55 9.35 -8.5 10.3 Q-8.15 10.95 -7.95 11.7 L-7.9 11.6 -7.65 11.3 -7.65 11.3 Q-7.5 11.0 -7.35 10.7 L-7.25 10.5 -7.25 10.5 Q-6.9 10.15 -6.25 10.3 L-5.95 10.35 -5.5 10.65 -5.5 10.65 -5.4 10.65 -5.25 10.75 -5.05 10.95 -4.85 11.15 -4.75 11.25 -4.55 11.45 -4.55 11.45 Q-3.9 12.45 -3.95 13.6 -3.95 13.75 -3.95 13.9 L-3.95 14.1 Q-4.1 15.65 -5.15 16.8 L-5.45 17.05 -5.7 17.15 -5.75 17.15 Q-6.7 17.45 -7.0 18.2 L-7.0 18.3 -6.9 18.95 -6.6 19.35 -6.1 18.85 -5.45 18.25 Q-5.0 17.85 -4.35 17.95 L-4.05 18.05 Q-3.05 18.35 -3.4 19.2 L-3.55 19.6 -4.0 20.2 -4.1 20.3 -4.1 20.3 -4.35 20.65 -4.6 21.35 -4.6 21.45 Q-4.15 22.6 -4.2 23.95 L-4.2 24.05 -4.15 24.25 -4.1 24.8 Q-4.05 25.15 -4.05 25.5 -3.8 24.95 -3.55 24.4 L-3.4 23.65 -3.4 23.35 -3.15 22.2 -3.05 22.0 -2.75 21.55 -1.85 20.8 -1.75 20.8 -1.55 20.7 -1.45 20.5 -1.15 19.7 -1.05 19.0 -1.05 18.9 -1.05 18.45 -1.7 17.25 -1.8 16.75 Q-1.85 15.95 -1.5 15.1 -1.35 14.8 -1.05 14.8 L0.25 14.95 Q0.6 15.25 0.9 15.5 L1.25 16.4 1.35 16.8 Q1.45 17.45 1.55 18.05 1.55 18.9 1.55 19.7 L1.55 20.15 1.5 21.55 1.4 21.95 1.15 22.65 0.95 22.85 Q0.5 23.45 0.1 24.0 L-0.1 24.25 -0.15 24.35 -0.25 24.65 Q-0.25 25.25 -0.25 25.85 L0.0 26.1 0.9 27.15 1.0 27.25 1.8 27.25 1.5 26.55 1.35 25.85 Q1.35 25.05 1.85 24.3 L2.35 23.95 2.9 23.8 3.75 23.95 Q4.15 24.15 4.35 24.7 L4.45 25.1 4.3 26.35 4.4 26.25 Q5.2 25.6 5.65 24.6 L5.7 23.65 5.7 22.95 5.7 22.6 4.9 21.6 Q4.4 20.8 3.95 20.05 L3.85 19.7 3.85 18.85 Q3.9 18.1 4.35 17.45 4.5 17.2 4.8 17.25 L4.9 17.3 5.4 17.7 5.5 18.6 Q6.2 18.25 6.25 17.3 L6.25 17.2 6.25 17.0 6.25 16.9 6.2 16.5 6.05 14.85 6.05 14.5 Q6.1 13.45 6.95 12.7 L6.95 12.6 Q7.45 10.95 8.8 9.7 L10.0 8.75 10.2 8.55 Q10.9 7.95 11.55 7.35 L11.9 7.1 12.35 6.85 12.9 6.7 13.05 6.75 13.55 6.55 14.45 6.15 Q19.6 3.9 20.2 0.8 L20.3 0.0 Q20.3 -3.4 15.05 -5.9 L14.45 -6.2 Q8.8 -8.7 0.8 -8.75 L0.4 -8.75 Q-7.75 -8.75 -13.6 -6.3 L-13.7 -6.2 Q-19.5 -3.6 -19.5 0.0" fill="url(#gradient0)" fill-rule="evenodd" stroke="none">
      <animate attributeName="d" dur="2s" repeatCount="indefinite" values="M-19.5 0.0 L-19.4 0.85 Q-18.8 3.9 -13.7 6.15 L-12.7 6.55 -11.25 7.1 -11.05 7.3 -10.8 7.5 -10.45 7.6 Q-9.95 7.75 -9.5 8.05 -8.75 8.5 -8.55 9.25 L-8.55 9.35 -8.5 10.3 Q-8.15 10.95 -7.95 11.7 L-7.9 11.6 -7.65 11.3 -7.65 11.3 Q-7.5 11.0 -7.35 10.7 L-7.25 10.5 -7.25 10.5 Q-6.9 10.15 -6.25 10.3 L-5.95 10.35 -5.5 10.65 -5.5 10.65 -5.4 10.65 -5.25 10.75 -5.05 10.95 -4.85 11.15 -4.75 11.25 -4.55 11.45 -4.55 11.45 Q-3.9 12.45 -3.95 13.6 -3.95 13.75 -3.95 13.9 L-3.95 14.1 Q-4.1 15.65 -5.15 16.8 L-5.45 17.05 -5.7 17.15 -5.75 17.15 Q-6.7 17.45 -7.0 18.2 L-7.0 18.3 -6.9 18.95 -6.6 19.35 -6.1 18.85 -5.45 18.25 Q-5.0 17.85 -4.35 17.95 L-4.05 18.05 Q-3.05 18.35 -3.4 19.2 L-3.55 19.6 -4.0 20.2 -4.1 20.3 -4.1 20.3 -4.35 20.65 -4.6 21.35 -4.6 21.45 Q-4.15 22.6 -4.2 23.95 L-4.2 24.05 -4.15 24.25 -4.1 24.8 Q-4.05 25.15 -4.05 25.5 -3.8 24.95 -3.55 24.4 L-3.4 23.65 -3.4 23.35 -3.15 22.2 -3.05 22.0 -2.75 21.55 -1.85 20.8 -1.75 20.8 -1.55 20.7 -1.45 20.5 -1.15 19.7 -1.05 19.0 -1.05 18.9 -1.05 18.45 -1.7 17.25 -1.8 16.75 Q-1.85 15.95 -1.5 15.1 -1.35 14.8 -1.05 14.8 L0.25 14.95 Q0.6 15.25 0.9 15.5 L1.25 16.4 1.35 16.8 Q1.45 17.45 1.55 18.05 1.55 18.9 1.55 19.7 L1.55 20.15 1.5 21.55 1.4 21.95 1.15 22.65 0.95 22.85 Q0.5 23.45 0.1 24.0 L-0.1 24.25 -0.15 24.35 -0.25 24.65 Q-0.25 25.25 -0.25 25.85 L0.0 26.1 0.9 27.15 1.0 27.25 1.8 27.25 1.5 26.55 1.35 25.85 Q1.35 25.05 1.85 24.3 L2.35 23.95 2.9 23.8 3.75 23.95 Q4.15 24.15 4.35 24.7 L4.45 25.1 4.3 26.35 4.4 26.25 Q5.2 25.6 5.65 24.6 L5.7 23.65 5.7 22.95 5.7 22.6 4.9 21.6 Q4.4 20.8 3.95 20.05 L3.85 19.7 3.85 18.85 Q3.9 18.1 4.35 17.45 4.5 17.2 4.8 17.25 L4.9 17.3 5.4 17.7 5.5 18.6 Q6.2 18.25 6.25 17.3 L6.25 17.2 6.25 17.0 6.25 16.9 6.2 16.5 6.05 14.85 6.05 14.5 Q6.1 13.45 6.95 12.7 L6.95 12.6 Q7.45 10.95 8.8 9.7 L10.0 8.75 10.2 8.55 Q10.9 7.95 11.55 7.35 L11.9 7.1 12.35 6.85 12.9 6.7 13.05 6.75 13.55 6.55 14.45 6.15 Q19.6 3.9 20.2 0.8 L20.3 0.0 Q20.3 -3.4 15.05 -5.9 L14.45 -6.2 Q8.8 -8.7 0.8 -8.75 L0.4 -8.75 Q-7.75 -8.75 -13.6 -6.3 L-13.7 -6.2 Q-19.5 -3.6 -19.5 0.0;M-19.5 0.0 L-19.5 0.0 Q-19.5 3.35 -14.55 5.75 L-13.7 6.15 -12.2 6.7 -12.1 6.8 -11.7 6.9 -11.4 6.95 Q-10.9 7.1 -10.45 7.2 -9.7 7.45 -9.0 7.85 L-9.0 7.85 -8.1 8.6 Q-7.6 9.2 -7.55 9.95 L-7.55 10.15 -7.55 10.55 -7.55 10.55 Q-7.6 11.05 -7.95 11.45 L-7.95 11.65 -7.95 11.7 Q-7.85 12.25 -7.75 12.8 L-7.75 13.1 -7.65 13.55 -7.65 13.55 -7.65 13.65 -7.5 13.95 -7.45 13.85 -7.3 13.7 -7.2 13.6 -7.05 13.4 -7.05 13.4 Q-7.0 11.95 -5.7 12.2 -5.45 12.25 -5.3 12.4 L-5.2 12.5 Q-4.35 13.75 -3.5 15.0 L-3.3 15.3 -3.2 15.55 -3.2 15.55 Q-3.05 16.5 -3.35 17.35 L-3.35 17.45 -3.6 18.05 -3.8 18.35 -4.3 18.9 -4.7 19.75 Q-4.95 20.2 -5.15 20.65 L-5.3 20.95 Q-5.55 21.55 -5.45 22.3 L-5.4 22.8 -5.3 23.4 -5.25 23.5 -5.15 23.6 -5.0 23.8 -4.4 24.3 -4.4 24.2 Q-4.55 23.05 -4.05 22.1 L-4.05 22.0 -3.95 21.9 -3.6 21.8 Q-3.2 21.9 -3.0 22.1 -2.65 22.45 -2.75 23.15 L-2.55 23.85 -2.35 24.15 -1.75 25.15 -1.65 25.35 -1.55 25.85 -1.55 27.0 -1.45 26.95 -1.35 26.85 -1.2 26.7 -0.8 26.1 -0.75 25.45 -0.75 25.35 -0.75 24.95 -0.95 23.65 -1.15 23.1 Q-1.3 22.35 -1.4 21.6 -1.35 21.2 -1.35 20.85 L-0.85 19.55 Q-0.6 19.1 -0.1 19.0 L1.1 19.15 1.45 19.3 Q2.05 19.75 1.9 20.55 1.7 21.45 1.75 22.3 L1.8 22.8 2.05 23.95 2.45 24.4 2.35 23.9 2.35 23.45 Q2.4 22.85 2.75 22.3 L2.95 22.15 2.95 22.15 3.3 22.15 Q4.2 22.15 4.35 22.9 L4.4 23.2 4.3 24.65 4.3 24.75 4.15 25.55 3.9 26.25 3.75 26.75 Q4.25 26.35 4.75 25.95 L5.25 25.3 5.45 25.0 5.55 24.0 Q5.65 23.5 5.7 23.0 L5.7 22.55 5.55 21.4 5.45 21.2 Q4.8 20.35 4.55 19.4 L4.45 18.35 4.5 17.6 4.5 17.3 4.6 15.95 Q4.6 15.0 5.05 14.15 L5.25 13.85 5.85 13.2 Q6.05 12.15 6.85 12.4 7.1 12.5 7.3 12.6 L7.45 12.7 7.55 12.95 7.7 13.8 Q7.7 14.45 7.7 15.05 L7.75 15.15 7.85 15.3 7.9 15.4 7.95 15.8 8.35 14.3 8.45 13.9 Q8.75 12.8 9.2 11.85 L9.2 11.75 Q8.95 9.95 9.7 8.65 L10.6 7.65 10.8 7.5 Q11.55 6.95 12.45 6.85 L12.75 6.85 13.35 6.65 13.95 6.35 14.05 6.35 14.45 6.15 15.35 5.75 Q20.3 3.3 20.3 0.0 L20.25 -0.8 Q19.65 -3.9 14.45 -6.2 L13.85 -6.45 Q8.25 -8.75 0.4 -8.75 L0.0 -8.75 Q-8.0 -8.7 -13.7 -6.2 L-13.8 -6.1 Q-19.5 -3.55 -19.5 0.0"/>
    </path>
    <path d="M-19.5 0.0 Q-19.5 -3.6 -13.7 -6.2 L-13.6 -6.3 Q-7.75 -8.75 0.4 -8.75 L0.8 -8.75 Q8.8 -8.7 14.45 -6.2 L15.05 -5.9 Q20.3 -3.4 20.3 0.0 L20.2 0.8 Q19.6 3.9 14.45 6.15 L13.55 6.55 13.05 6.75 12.9 6.7 12.35 6.85 11.9 7.1 11.55 7.35 Q10.9 7.95 10.2 8.55 L10.0 8.75 8.8 9.7 Q7.45 10.95 6.95 12.6 L6.95 12.7 Q6.1 13.45 6.05 14.5 L6.05 14.85 6.2 16.5 6.25 16.9 6.25 17.0 6.25 17.2 6.25 17.3 Q6.2 18.25 5.5 18.6 L5.4 17.7 4.9 17.3 4.8 17.25 Q4.5 17.2 4.35 17.45 3.9 18.1 3.85 18.85 L3.85 19.7 3.95 20.05 Q4.4 20.8 4.9 21.6 L5.7 22.6 5.7 22.95 5.7 23.65 5.65 24.6 Q5.2 25.6 4.4 26.25 L4.3 26.35 4.45 25.1 4.35 24.7 Q4.15 24.15 3.75 23.95 L2.9 23.8 2.35 23.95 1.85 24.3 Q1.35 25.05 1.35 25.85 L1.5 26.55 1.8 27.25 1.0 27.25 0.9 27.15 0.0 26.1 -0.25 25.85 Q-0.25 25.25 -0.25 24.65 L-0.15 24.35 -0.1 24.25 0.1 24.0 Q0.5 23.45 0.95 22.85 L1.15 22.65 1.4 21.95 1.5 21.55 1.55 20.15 1.55 19.7 Q1.55 18.9 1.55 18.05 1.45 17.45 1.35 16.8 L1.25 16.4 0.9 15.5 Q0.6 15.25 0.25 14.95 L-1.05 14.8 Q-1.35 14.8 -1.5 15.1 -1.85 15.95 -1.8 16.75 L-1.7 17.25 -1.05 18.45 -1.05 18.9 -1.05 19.0 -1.15 19.7 -1.45 20.5 -1.55 20.7 -1.75 20.8 -1.85 20.8 -2.75 21.55 -3.05 22.0 -3.15 22.2 -3.4 23.35 -3.4 23.65 -3.55 24.4 Q-3.8 24.95 -4.05 25.5 -4.05 25.15 -4.1 24.8 L-4.15 24.25 -4.2 24.05 -4.2 23.95 Q-4.15 22.6 -4.6 21.45 L-4.6 21.35 -4.35 20.65 -4.1 20.3 -4.1 20.3 -4.0 20.2 -3.55 19.6 -3.4 19.2 Q-3.05 18.35 -4.05 18.05 L-4.35 17.95 Q-5.0 17.85 -5.45 18.25 L-6.1 18.85 -6.6 19.35 -6.9 18.95 -7.0 18.3 -7.0 18.2 Q-6.7 17.45 -5.75 17.15 L-5.7 17.15 -5.45 17.05 -5.15 16.8 Q-4.1 15.65 -3.95 14.1 L-3.95 13.9 Q-3.95 13.75 -3.95 13.6 -3.9 12.45 -4.55 11.45 L-4.55 11.45 -4.75 11.25 -4.85 11.15 -5.05 10.95 -5.25 10.75 -5.4 10.65 -5.5 10.65 -5.5 10.65 -5.95 10.35 -6.25 10.3 Q-6.9 10.15 -7.25 10.5 L-7.25 10.5 -7.35 10.7 Q-7.5 11.0 -7.65 11.3 L-7.65 11.3 -7.9 11.6 -7.95 11.7 Q-8.15 10.95 -8.5 10.3 L-8.55 9.35 -8.55 9.25 Q-8.75 8.5 -9.5 8.05 -9.95 7.75 -10.45 7.6 L-10.8 7.5 -11.05 7.3 -11.25 7.1 -12.7 6.55 -13.7 6.15 Q-18.8 3.9 -19.4 0.85 L-19.5 0.0" fill="none" stroke="#000000" stroke-linecap="round" stroke-linejoin="round" stroke-opacity="0.0" stroke-width="1.0">
      <animate attributeName="stroke" dur="2s" repeatCount="indefinite" values="#000000;#000001"/>
      <animate attributeName="stroke-width" dur="2s" repeatCount="indefinite" values="0.0;0.0"/>
      <animate attributeName="fill-opacity" dur="2s" repeatCount="indefinite" values="0.0;0.0"/>
      <animate attributeName="d" dur="2s" repeatCount="indefinite" values="M-19.5 0.0 Q-19.5 -3.6 -13.7 -6.2 L-13.6 -6.3 Q-7.75 -8.75 0.4 -8.75 L0.8 -8.75 Q8.8 -8.7 14.45 -6.2 L15.05 -5.9 Q20.3 -3.4 20.3 0.0 L20.2 0.8 Q19.6 3.9 14.45 6.15 L13.55 6.55 13.05 6.75 12.9 6.7 12.35 6.85 11.9 7.1 11.55 7.35 Q10.9 7.95 10.2 8.55 L10.0 8.75 8.8 9.7 Q7.45 10.95 6.95 12.6 L6.95 12.7 Q6.1 13.45 6.05 14.5 L6.05 14.85 6.2 16.5 6.25 16.9 6.25 17.0 6.25 17.2 6.25 17.3 Q6.2 18.25 5.5 18.6 L5.4 17.7 4.9 17.3 4.8 17.25 Q4.5 17.2 4.35 17.45 3.9 18.1 3.85 18.85 L3.85 19.7 3.95 20.05 Q4.4 20.8 4.9 21.6 L5.7 22.6 5.7 22.95 5.7 23.65 5.65 24.6 Q5.2 25.6 4.4 26.25 L4.3 26.35 4.45 25.1 4.35 24.7 Q4.15 24.15 3.75 23.95 L2.9 23.8 2.35 23.95 1.85 24.3 Q1.35 25.05 1.35 25.85 L1.5 26.55 1.8 27.25 1.0 27.25 0.9 27.15 0.0 26.1 -0.25 25.85 Q-0.25 25.25 -0.25 24.65 L-0.15 24.35 -0.1 24.25 0.1 24.0 Q0.5 23.45 0.95 22.85 L1.15 22.65 1.4 21.95 1.5 21.55 1.55 20.15 1.55 19.7 Q1.55 18.9 1.55 18.05 1.45 17.45 1.35 16.8 L1.25 16.4 0.9 15.5 Q0.6 15.25 0.25 14.95 L-1.05 14.8 Q-1.35 14.8 -1.5 15.1 -1.85 15.95 -1.8 16.75 L-1.7 17.25 -1.05 18.45 -1.05 18.9 -1.05 19.0 -1.15 19.7 -1.45 20.5 -1.55 20.7 -1.75 20.8 -1.85 20.8 -2.75 21.55 -3.05 22.0 -3.15 22.2 -3.4 23.35 -3.4 23.65 -3.55 24.4 Q-3.8 24.95 -4.05 25.5 -4.05 25.15 -4.1 24.8 L-4.15 24.25 -4.2 24.05 -4.2 23.95 Q-4.15 22.6 -4.6 21.45 L-4.6 21.35 -4.35 20.65 -4.1 20.3 -4.1 20.3 -4.0 20.2 -3.55 19.6 -3.4 19.2 Q-3.05 18.35 -4.05 18.05 L-4.35 17.95 Q-5.0 17.85 -5.45 18.25 L-6.1 18.85 -6.6 19.35 -6.9 18.95 -7.0 18.3 -7.0 18.2 Q-6.7 17.45 -5.75 17.15 L-5.7 17.15 -5.45 17.05 -5.15 16.8 Q-4.1 15.65 -3.95 14.1 L-3.95 13.9 Q-3.95 13.75 -3.95 13.6 -3.9 12.45 -4.55 11.45 L-4.55 11.45 -4.75 11.25 -4.85 11.15 -5.05 10.95 -5.25 10.75 -5.4 10.65 -5.5 10.65 -5.5 10.65 -5.95 10.35 -6.25 10.3 Q-6.9 10.15 -7.25 10.5 L-7.25 10.5 -7.35 10.7 Q-7.5 11.0 -7.65 11.3 L-7.65 11.3 -7.9 11.6 -7.95 11.7 Q-8.15 10.95 -8.5 10.3 L-8.55 9.35 -8.55 9.25 Q-8.75 8.5 -9.5 8.05 -9.95 7.75 -10.45 7.6 L-10.8 7.5 -11.05 7.3 -11.25 7.1 -12.7 6.55 -13.7 6.15 Q-18.8 3.9 -19.4 0.85 L-19.5 0.0;M-19.5 0.0 Q-19.5 -3.55 -13.8 -6.1 L-13.7 -6.2 Q-8.0 -8.7 0.0 -8.75 L0.4 -8.75 Q8.25 -8.75 13.85 -6.45 L14.45 -6.2 Q19.65 -3.9 20.25 -0.8 L20.3 0.0 Q20.3 3.3 15.35 5.75 L14.45 6.15 14.05 6.35 13.95 6.35 13.35 6.65 12.75 6.85 12.45 6.85 Q11.55 6.95 10.8 7.5 L10.6 7.65 9.7 8.65 Q8.95 9.95 9.2 11.75 L9.2 11.85 Q8.75 12.8 8.45 13.9 L8.35 14.3 7.95 15.8 7.9 15.4 7.85 15.3 7.75 15.15 7.7 15.05 Q7.7 14.45 7.7 13.8 L7.55 12.95 7.45 12.7 7.3 12.6 Q7.1 12.5 6.85 12.4 6.05 12.15 5.85 13.2 L5.25 13.85 5.05 14.15 Q4.6 15.0 4.6 15.95 L4.5 17.3 4.5 17.6 4.45 18.35 4.55 19.4 Q4.8 20.35 5.45 21.2 L5.55 21.4 5.7 22.55 5.7 23.0 Q5.65 23.5 5.55 24.0 L5.45 25.0 5.25 25.3 4.75 25.95 Q4.25 26.35 3.75 26.75 L3.9 26.25 4.15 25.55 4.3 24.75 4.3 24.65 4.4 23.2 4.35 22.9 Q4.2 22.15 3.3 22.15 L2.95 22.15 2.95 22.15 2.75 22.3 Q2.4 22.85 2.35 23.45 L2.35 23.9 2.45 24.4 2.05 23.95 1.8 22.8 1.75 22.3 Q1.7 21.45 1.9 20.55 2.05 19.75 1.45 19.3 L1.1 19.15 -0.1 19.0 Q-0.6 19.1 -0.85 19.55 L-1.35 20.85 Q-1.35 21.2 -1.4 21.6 -1.3 22.35 -1.15 23.1 L-0.95 23.65 -0.75 24.95 -0.75 25.35 -0.75 25.45 -0.8 26.1 -1.2 26.7 -1.35 26.85 -1.45 26.95 -1.55 27.0 -1.55 25.85 -1.65 25.35 -1.75 25.15 -2.35 24.15 -2.55 23.85 -2.75 23.15 Q-2.65 22.45 -3.0 22.1 -3.2 21.9 -3.6 21.8 L-3.95 21.9 -4.05 22.0 -4.05 22.1 Q-4.55 23.05 -4.4 24.2 L-4.4 24.3 -5.0 23.8 -5.15 23.6 -5.25 23.5 -5.3 23.4 -5.4 22.8 -5.45 22.3 Q-5.55 21.55 -5.3 20.95 L-5.15 20.65 Q-4.95 20.2 -4.7 19.75 L-4.3 18.9 -3.8 18.35 -3.6 18.05 -3.35 17.45 -3.35 17.35 Q-3.05 16.5 -3.2 15.55 L-3.2 15.55 -3.3 15.3 -3.5 15.0 Q-4.35 13.75 -5.2 12.5 L-5.3 12.4 Q-5.45 12.25 -5.7 12.2 -7.0 11.95 -7.05 13.4 L-7.05 13.4 -7.2 13.6 -7.3 13.7 -7.45 13.85 -7.5 13.95 -7.65 13.65 -7.65 13.55 -7.65 13.55 -7.75 13.1 -7.75 12.8 Q-7.85 12.25 -7.95 11.7 L-7.95 11.65 -7.95 11.45 Q-7.6 11.05 -7.55 10.55 L-7.55 10.55 -7.55 10.15 -7.55 9.95 Q-7.6 9.2 -8.1 8.6 L-9.0 7.85 -9.0 7.85 Q-9.7 7.45 -10.45 7.2 -10.9 7.1 -11.4 6.95 L-11.7 6.9 -12.1 6.8 -12.2 6.7 -13.7 6.15 -14.55 5.75 Q-19.5 3.35 -19.5 0.0 L-19.5 0.0"/>
    </path>
  </g>
  <defs>
    <radialGradient cx="0" cy="0" gradientTransform="matrix(0.0351, 0.0, 0.0, 0.0351, 1.0, -0.75)" gradientUnits="userSpaceOnUse" id="gradient0" r="819.2" spreadMethod="pad">
      <animateTransform additive="replace" attributeName="gradientTransform" dur="2s" from="1" repeatCount="indefinite" to="1" type="scale"/>
      <animateTransform additive="sum" attributeName="gradientTransform" dur="2s" from="1.0 -0.75" repeatCount="indefinite" to="1.0 -0.75" type="translate"/>
      <animateTransform additive="sum" attributeName="gradientTransform" dur="2s" from="0.0" repeatCount="indefinite" to="0.0" type="rotate"/>
      <animateTransform additive="sum" attributeName="gradientTransform" dur="2s" from="0.0351 0.0351" repeatCount="indefinite" to="0.0351 0.0351" type="scale"/>
      <animateTransform additive="sum" attributeName="gradientTransform" dur="2s" from="0.0" repeatCount="indefinite" to="0.0" type="skewX"/>
      <stop offset="0.0" stop-color="#fefe0c" stop-opacity="0.9019608">
        <animate attributeName="offset" dur="2s" repeatCount="indefinite" values="0.0;0.0"/>
        <animate attributeName="stop-color" dur="2s" repeatCount="indefinite" values="#fefe0c;#fefe0d"/>
        <animate attributeName="stop-opacity" dur="2s" repeatCount="indefinite" values="0.9019608;0.9019608"/>
      </stop>
      <stop offset="0.5764705882352941" stop-color="#ffba2b" stop-opacity="0.9019608">
        <animate attributeName="offset" dur="2s" repeatCount="indefinite" values="0.5764705882352941;0.5764705882352941"/>
        <animate attributeName="stop-color" dur="2s" repeatCount="indefinite" values="#ffba2b;#ffba2c"/>
        <animate attributeName="stop-opacity" dur="2s" repeatCount="indefinite" values="0.9019608;0.9019608"/>
      </stop>
      <stop offset="1.0" stop-color="#ff720b" stop-opacity="0.9019608">
        <animate attributeName="offset" dur="2s" repeatCount="indefinite" values="1.0;1.0"/>
        <animate attributeName="stop-color" dur="2s" repeatCount="indefinite" values="#ff720b;#ff720c"/>
        <animate attributeName="stop-opacity" dur="2s" repeatCount="indefinite" values="0.9019608;0.9019608"/>
      </stop>
    </radialGradient>
  </defs>
</svg>
