<?xml version="1.0" encoding="UTF-8" standalone="no"?>
<svg xmlns:xlink="http://www.w3.org/1999/xlink" height="4.6px" width="6.55px" xmlns="http://www.w3.org/2000/svg">
  <g transform="matrix(1.0, 0.0, 0.0, 1.0, -0.8, 7.95)">
    <path d="M0.8 -6.95 Q1.1 -6.6 1.55 -6.7 1.6 -6.65 1.6 -6.65 1.85 -6.5 2.1 -6.45 L2.25 -6.25 Q2.45 -5.9 2.75 -5.7 4.05 -4.75 4.35 -6.15 4.5 -6.25 4.65 -6.3 L5.45 -7.2 5.4 -7.35 Q4.75 -7.3 4.1 -7.3 L3.9 -7.35 3.45 -7.1 3.45 -6.7 3.4 -6.4 3.35 -6.4 Q2.65 -7.5 1.5 -7.95 L1.1 -7.8 Q0.75 -7.4 0.8 -6.95" fill="#000000" fill-rule="evenodd" stroke="none">
      <animate attributeName="fill" dur="2s" repeatCount="indefinite" values="#000000;#000001"/>
      <animate attributeName="fill-opacity" dur="2s" repeatCount="indefinite" values="1.0;1.0"/>
      <animate attributeName="d" dur="2s" repeatCount="indefinite" values="M0.8 -6.95 Q1.1 -6.6 1.55 -6.7 1.6 -6.65 1.6 -6.65 1.85 -6.5 2.1 -6.45 L2.25 -6.25 Q2.45 -5.9 2.75 -5.7 4.05 -4.75 4.35 -6.15 4.5 -6.25 4.65 -6.3 L5.45 -7.2 5.4 -7.35 Q4.75 -7.3 4.1 -7.3 L3.9 -7.35 3.45 -7.1 3.45 -6.7 3.4 -6.4 3.35 -6.4 Q2.65 -7.5 1.5 -7.95 L1.1 -7.8 Q0.75 -7.4 0.8 -6.95;M3.55 -3.55 Q3.7 -3.3 4.0 -3.35 4.55 -3.4 4.6 -3.95 4.7 -3.95 4.8 -3.95 L5.0 -3.8 Q6.5 -2.8 7.35 -4.35 7.3 -4.5 7.3 -4.6 6.95 -5.05 6.5 -4.75 L6.15 -4.8 5.55 -4.7 Q5.3 -5.05 4.85 -5.05 L4.8 -5.1 4.4 -5.4 4.4 -5.35 3.95 -5.15 3.9 -4.95 Q3.9 -4.9 3.9 -4.85 L3.6 -4.3 Q3.55 -3.9 3.55 -3.55"/>
    </path>
    <path d="M0.8 -6.95 Q0.75 -7.4 1.1 -7.8 L1.5 -7.95 Q2.65 -7.5 3.35 -6.4 L3.4 -6.4 3.45 -6.7 3.45 -7.1 3.9 -7.35 4.1 -7.3 Q4.75 -7.3 5.4 -7.35 L5.45 -7.2 4.65 -6.3 Q4.5 -6.25 4.35 -6.15 4.05 -4.75 2.75 -5.7 2.45 -5.9 2.25 -6.25 L2.1 -6.45 Q1.85 -6.5 1.6 -6.65 1.6 -6.65 1.55 -6.7 1.1 -6.6 0.8 -6.95" fill="none" stroke="#000000" stroke-linecap="round" stroke-linejoin="round" stroke-opacity="0.0" stroke-width="1.0">
      <animate attributeName="stroke" dur="2s" repeatCount="indefinite" values="#000000;#000001"/>
      <animate attributeName="stroke-width" dur="2s" repeatCount="indefinite" values="0.0;0.0"/>
      <animate attributeName="fill-opacity" dur="2s" repeatCount="indefinite" values="0.0;0.0"/>
      <animate attributeName="d" dur="2s" repeatCount="indefinite" values="M0.8 -6.95 Q0.75 -7.4 1.1 -7.8 L1.5 -7.95 Q2.65 -7.5 3.35 -6.4 L3.4 -6.4 3.45 -6.7 3.45 -7.1 3.9 -7.35 4.1 -7.3 Q4.75 -7.3 5.4 -7.35 L5.45 -7.2 4.65 -6.3 Q4.5 -6.25 4.35 -6.15 4.05 -4.75 2.75 -5.7 2.45 -5.9 2.25 -6.25 L2.1 -6.45 Q1.85 -6.5 1.6 -6.65 1.6 -6.65 1.55 -6.7 1.1 -6.6 0.8 -6.95;M3.55 -3.55 Q3.55 -3.9 3.6 -4.3 L3.9 -4.85 Q3.9 -4.9 3.9 -4.95 L3.95 -5.15 4.4 -5.35 4.4 -5.4 4.8 -5.1 4.85 -5.05 Q5.3 -5.05 5.55 -4.7 L6.15 -4.8 6.5 -4.75 Q6.95 -5.05 7.3 -4.6 7.3 -4.5 7.35 -4.35 6.5 -2.8 5.0 -3.8 L4.8 -3.95 Q4.7 -3.95 4.6 -3.95 4.55 -3.4 4.0 -3.35 3.7 -3.3 3.55 -3.55"/>
    </path>
  </g>
</svg>
