<?xml version="1.0" encoding="UTF-8" standalone="no"?>
<svg xmlns:xlink="http://www.w3.org/1999/xlink" height="6.75px" width="4.1px" xmlns="http://www.w3.org/2000/svg">
  <g transform="matrix(1.0, 0.0, 0.0, 1.0, 1.2, -2.35)">
    <path d="M-1.2 4.05 L-1.0 4.15 -0.75 4.35 -0.7 4.45 -0.7 4.55 Q-0.25 4.95 0.3 4.8 L0.45 4.7 0.7 4.85 0.8 4.9 1.1 4.95 Q1.55 4.85 1.85 4.55 L2.05 4.3 2.2 3.9 Q1.8 3.0 1.1 3.7 L1.0 3.8 0.9 3.75 0.45 3.6 0.2 3.55 0.1 3.55 0.15 3.45 0.15 3.45 0.15 3.25 Q0.2 2.8 -0.1 2.55 L-0.35 2.35 -0.5 2.4 -0.7 2.6 -0.8 2.65 -0.8 2.85 -0.8 2.95 -0.95 3.15 -1.2 4.05" fill="#000000" fill-rule="evenodd" stroke="none">
      <animate attributeName="fill" dur="2s" repeatCount="indefinite" values="#000000;#000001"/>
      <animate attributeName="fill-opacity" dur="2s" repeatCount="indefinite" values="1.0;1.0"/>
      <animate attributeName="d" dur="2s" repeatCount="indefinite" values="M-1.2 4.05 L-1.0 4.15 -0.75 4.35 -0.7 4.45 -0.7 4.55 Q-0.25 4.95 0.3 4.8 L0.45 4.7 0.7 4.85 0.8 4.9 1.1 4.95 Q1.55 4.85 1.85 4.55 L2.05 4.3 2.2 3.9 Q1.8 3.0 1.1 3.7 L1.0 3.8 0.9 3.75 0.45 3.6 0.2 3.55 0.1 3.55 0.15 3.45 0.15 3.45 0.15 3.25 Q0.2 2.8 -0.1 2.55 L-0.35 2.35 -0.5 2.4 -0.7 2.6 -0.8 2.65 -0.8 2.85 -0.8 2.95 -0.95 3.15 -1.2 4.05;M-0.55 8.55 L-0.55 8.55 -0.25 8.8 -0.15 8.85 -0.05 8.85 Q0.5 8.8 1.0 8.75 L1.2 8.75 1.5 8.85 1.6 8.85 1.9 9.05 Q2.25 9.0 2.55 9.0 L2.65 8.9 2.8 8.6 Q3.1 7.8 2.4 7.3 L2.3 7.35 2.2 7.35 1.85 7.65 1.65 7.6 1.65 7.6 1.45 7.55 1.45 7.55 1.45 7.45 Q1.35 7.0 0.9 7.05 L0.7 7.15 0.6 7.15 0.3 7.25 0.2 7.35 0.05 7.45 -0.05 7.5 -0.25 7.7 -0.55 8.55"/>
    </path>
    <path d="M-1.2 4.05 L-0.95 3.15 -0.8 2.95 -0.8 2.85 -0.8 2.65 -0.7 2.6 -0.5 2.4 -0.35 2.35 -0.1 2.55 Q0.2 2.8 0.15 3.25 L0.15 3.45 0.15 3.45 0.1 3.55 0.2 3.55 0.45 3.6 0.9 3.75 1.0 3.8 1.1 3.7 Q1.8 3.0 2.2 3.9 L2.05 4.3 1.85 4.55 Q1.55 4.85 1.1 4.95 L0.8 4.9 0.7 4.85 0.45 4.7 0.3 4.8 Q-0.25 4.95 -0.7 4.55 L-0.7 4.45 -0.75 4.35 -1.0 4.15 -1.2 4.05" fill="none" stroke="#000000" stroke-linecap="round" stroke-linejoin="round" stroke-opacity="0.0" stroke-width="1.0">
      <animate attributeName="stroke" dur="2s" repeatCount="indefinite" values="#000000;#000001"/>
      <animate attributeName="stroke-width" dur="2s" repeatCount="indefinite" values="0.0;0.0"/>
      <animate attributeName="fill-opacity" dur="2s" repeatCount="indefinite" values="0.0;0.0"/>
      <animate attributeName="d" dur="2s" repeatCount="indefinite" values="M-1.2 4.05 L-0.95 3.15 -0.8 2.95 -0.8 2.85 -0.8 2.65 -0.7 2.6 -0.5 2.4 -0.35 2.35 -0.1 2.55 Q0.2 2.8 0.15 3.25 L0.15 3.45 0.15 3.45 0.1 3.55 0.2 3.55 0.45 3.6 0.9 3.75 1.0 3.8 1.1 3.7 Q1.8 3.0 2.2 3.9 L2.05 4.3 1.85 4.55 Q1.55 4.85 1.1 4.95 L0.8 4.9 0.7 4.85 0.45 4.7 0.3 4.8 Q-0.25 4.95 -0.7 4.55 L-0.7 4.45 -0.75 4.35 -1.0 4.15 -1.2 4.05;M-0.55 8.55 L-0.25 7.7 -0.05 7.5 0.05 7.45 0.2 7.35 0.3 7.25 0.6 7.15 0.7 7.15 0.9 7.05 Q1.35 7.0 1.45 7.45 L1.45 7.55 1.45 7.55 1.65 7.6 1.65 7.6 1.85 7.65 2.2 7.35 2.3 7.35 2.4 7.3 Q3.1 7.8 2.8 8.6 L2.65 8.9 2.55 9.0 Q2.25 9.0 1.9 9.05 L1.6 8.85 1.5 8.85 1.2 8.75 1.0 8.75 Q0.5 8.8 -0.05 8.85 L-0.15 8.85 -0.25 8.8 -0.55 8.55 -0.55 8.55"/>
    </path>
  </g>
</svg>
