<?xml version="1.0" encoding="UTF-8" standalone="no"?>
<svg xmlns:xlink="http://www.w3.org/1999/xlink" height="5.05px" width="5.4px" xmlns="http://www.w3.org/2000/svg">
  <g transform="matrix(1.0, 0.0, 0.0, 1.0, -3.55, 5.4)">
    <path d="M3.55 -3.55 L3.55 -3.55 Q3.7 -3.3 4.0 -3.35 L4.35 -3.45 4.6 -3.95 4.7 -3.95 4.8 -3.95 5.0 -3.8 Q5.65 -3.35 6.2 -3.45 L6.5 -3.5 6.85 -3.75 7.1 -4.0 7.25 -4.25 7.35 -4.35 7.3 -4.6 Q6.95 -5.05 6.5 -4.75 L6.15 -4.8 5.95 -4.7 5.85 -4.7 5.55 -4.7 Q5.3 -4.9 5.05 -5.05 L4.95 -5.05 4.85 -5.05 4.8 -5.1 4.6 -5.35 4.4 -5.4 4.4 -5.35 4.4 -5.35 3.95 -5.15 3.9 -4.95 3.9 -4.85 3.6 -4.3 Q3.55 -3.9 3.55 -3.55" fill="#000000" fill-rule="evenodd" stroke="none">
      <animate attributeName="fill" dur="2s" repeatCount="indefinite" values="#000000;#000001"/>
      <animate attributeName="fill-opacity" dur="2s" repeatCount="indefinite" values="1.0;1.0"/>
      <animate attributeName="d" dur="2s" repeatCount="indefinite" values="M3.55 -3.55 L3.55 -3.55 Q3.7 -3.3 4.0 -3.35 L4.35 -3.45 4.6 -3.95 4.7 -3.95 4.8 -3.95 5.0 -3.8 Q5.65 -3.35 6.2 -3.45 L6.5 -3.5 6.85 -3.75 7.1 -4.0 7.25 -4.25 7.35 -4.35 7.3 -4.6 Q6.95 -5.05 6.5 -4.75 L6.15 -4.8 5.95 -4.7 5.85 -4.7 5.55 -4.7 Q5.3 -4.9 5.05 -5.05 L4.95 -5.05 4.85 -5.05 4.8 -5.1 4.6 -5.35 4.4 -5.4 4.4 -5.35 4.4 -5.35 3.95 -5.15 3.9 -4.95 3.9 -4.85 3.6 -4.3 Q3.55 -3.9 3.55 -3.55;M4.8 -0.55 L5.1 -0.4 Q5.45 -0.45 5.8 -0.5 L6.0 -0.75 6.75 -0.8 6.75 -0.8 6.95 -0.65 7.05 -0.55 Q7.65 -0.2 8.3 -0.9 L8.55 -1.0 8.75 -1.15 8.85 -1.4 8.95 -1.6 8.95 -1.6 8.85 -1.75 Q8.5 -2.3 7.9 -1.9 L7.7 -1.75 7.6 -1.65 7.6 -1.75 7.6 -1.95 Q7.55 -2.4 7.0 -2.4 L6.85 -2.35 6.85 -2.35 6.75 -2.35 6.5 -2.15 6.2 -2.1 6.2 -2.1 6.2 -2.1 6.0 -1.95 5.75 -1.85 5.65 -1.85 5.05 -1.25 Q4.85 -0.95 4.8 -0.55"/>
    </path>
    <path d="M3.55 -3.55 Q3.55 -3.9 3.6 -4.3 L3.9 -4.85 3.9 -4.95 3.95 -5.15 4.4 -5.35 4.4 -5.35 4.4 -5.4 4.6 -5.35 4.8 -5.1 4.85 -5.05 4.95 -5.05 5.05 -5.05 Q5.3 -4.9 5.55 -4.7 L5.85 -4.7 5.95 -4.7 6.15 -4.8 6.5 -4.75 Q6.95 -5.05 7.3 -4.6 L7.35 -4.35 7.25 -4.25 7.1 -4.0 6.85 -3.75 6.5 -3.5 6.2 -3.45 Q5.65 -3.35 5.0 -3.8 L4.8 -3.95 4.7 -3.95 4.6 -3.95 4.35 -3.45 4.0 -3.35 Q3.7 -3.3 3.55 -3.55 L3.55 -3.55" fill="none" stroke="#000000" stroke-linecap="round" stroke-linejoin="round" stroke-opacity="0.0" stroke-width="1.0">
      <animate attributeName="stroke" dur="2s" repeatCount="indefinite" values="#000000;#000001"/>
      <animate attributeName="stroke-width" dur="2s" repeatCount="indefinite" values="0.0;0.0"/>
      <animate attributeName="fill-opacity" dur="2s" repeatCount="indefinite" values="0.0;0.0"/>
      <animate attributeName="d" dur="2s" repeatCount="indefinite" values="M3.55 -3.55 Q3.55 -3.9 3.6 -4.3 L3.9 -4.85 3.9 -4.95 3.95 -5.15 4.4 -5.35 4.4 -5.35 4.4 -5.4 4.6 -5.35 4.8 -5.1 4.85 -5.05 4.95 -5.05 5.05 -5.05 Q5.3 -4.9 5.55 -4.7 L5.85 -4.7 5.95 -4.7 6.15 -4.8 6.5 -4.75 Q6.95 -5.05 7.3 -4.6 L7.35 -4.35 7.25 -4.25 7.1 -4.0 6.85 -3.75 6.5 -3.5 6.2 -3.45 Q5.65 -3.35 5.0 -3.8 L4.8 -3.95 4.7 -3.95 4.6 -3.95 4.35 -3.45 4.0 -3.35 Q3.7 -3.3 3.55 -3.55 L3.55 -3.55;M4.8 -0.55 Q4.85 -0.95 5.05 -1.25 L5.65 -1.85 5.75 -1.85 6.0 -1.95 6.2 -2.1 6.2 -2.1 6.2 -2.1 6.5 -2.15 6.75 -2.35 6.85 -2.35 6.85 -2.35 7.0 -2.4 Q7.55 -2.4 7.6 -1.95 L7.6 -1.75 7.6 -1.65 7.7 -1.75 7.9 -1.9 Q8.5 -2.3 8.85 -1.75 L8.95 -1.6 8.95 -1.6 8.85 -1.4 8.75 -1.15 8.55 -1.0 8.3 -0.9 Q7.65 -0.2 7.05 -0.55 L6.95 -0.65 6.75 -0.8 6.75 -0.8 6.0 -0.75 5.8 -0.5 Q5.45 -0.45 5.1 -0.4 L4.8 -0.55"/>
    </path>
  </g>
</svg>
