<?xml version="1.0" encoding="UTF-8" standalone="no"?>
<svg xmlns:xlink="http://www.w3.org/1999/xlink" height="4.8px" width="4.55px" xmlns="http://www.w3.org/2000/svg">
  <g transform="matrix(1.0, 0.0, 0.0, 1.0, -4.8, 2.4)">
    <path d="M4.8 -0.55 L5.0 -0.4 5.2 -0.35 Q5.65 -0.3 6.0 -0.75 L6.2 -0.8 6.3 -0.8 6.75 -0.8 Q7.55 -0.85 8.3 -0.9 L8.35 -0.9 8.55 -1.0 8.75 -1.15 8.85 -1.4 8.95 -1.6 8.95 -1.6 8.85 -1.75 Q8.6 -2.2 8.1 -2.0 L7.6 -1.65 7.6 -1.75 Q7.65 -2.4 7.0 -2.4 L6.95 -2.35 6.85 -2.35 6.5 -2.15 6.35 -2.1 6.2 -2.1 6.1 -2.1 6.0 -2.0 Q5.15 -1.7 4.9 -0.85 L4.8 -0.55" fill="#000000" fill-rule="evenodd" stroke="none">
      <animate attributeName="fill" dur="2s" repeatCount="indefinite" values="#000000;#000001"/>
      <animate attributeName="fill-opacity" dur="2s" repeatCount="indefinite" values="1.0;1.0"/>
      <animate attributeName="d" dur="2s" repeatCount="indefinite" values="M4.8 -0.55 L5.0 -0.4 5.2 -0.35 Q5.65 -0.3 6.0 -0.75 L6.2 -0.8 6.3 -0.8 6.75 -0.8 Q7.55 -0.85 8.3 -0.9 L8.35 -0.9 8.55 -1.0 8.75 -1.15 8.85 -1.4 8.95 -1.6 8.95 -1.6 8.85 -1.75 Q8.6 -2.2 8.1 -2.0 L7.6 -1.65 7.6 -1.75 Q7.65 -2.4 7.0 -2.4 L6.95 -2.35 6.85 -2.35 6.5 -2.15 6.35 -2.1 6.2 -2.1 6.1 -2.1 6.0 -2.0 Q5.15 -1.7 4.9 -0.85 L4.8 -0.55;M5.25 1.7 L5.25 1.7 5.3 1.95 Q5.55 2.25 5.95 2.2 L5.95 2.2 6.05 2.35 6.65 2.4 Q7.45 2.4 8.25 1.85 L8.25 1.85 8.45 1.65 8.65 1.45 8.95 1.05 9.15 0.75 9.35 0.55 9.35 0.45 Q9.3 0.1 8.9 0.05 L8.3 0.4 8.2 0.45 Q7.85 0.8 7.5 1.1 L7.5 1.1 7.4 1.15 6.95 1.35 6.85 1.35 6.85 1.25 6.85 1.15 6.75 0.95 Q6.0 0.45 5.3 1.4 L5.25 1.7"/>
    </path>
    <path d="M4.8 -0.55 L4.9 -0.85 Q5.15 -1.7 6.0 -2.0 L6.1 -2.1 6.2 -2.1 6.35 -2.1 6.5 -2.15 6.85 -2.35 6.95 -2.35 7.0 -2.4 Q7.65 -2.4 7.6 -1.75 L7.6 -1.65 8.1 -2.0 Q8.6 -2.2 8.85 -1.75 L8.95 -1.6 8.95 -1.6 8.85 -1.4 8.75 -1.15 8.55 -1.0 8.35 -0.9 8.3 -0.9 Q7.55 -0.85 6.75 -0.8 L6.3 -0.8 6.2 -0.8 6.0 -0.75 Q5.65 -0.3 5.2 -0.35 L5.0 -0.4 4.8 -0.55" fill="none" stroke="#000000" stroke-linecap="round" stroke-linejoin="round" stroke-opacity="0.0" stroke-width="1.0">
      <animate attributeName="stroke" dur="2s" repeatCount="indefinite" values="#000000;#000001"/>
      <animate attributeName="stroke-width" dur="2s" repeatCount="indefinite" values="0.0;0.0"/>
      <animate attributeName="fill-opacity" dur="2s" repeatCount="indefinite" values="0.0;0.0"/>
      <animate attributeName="d" dur="2s" repeatCount="indefinite" values="M4.8 -0.55 L4.9 -0.85 Q5.15 -1.7 6.0 -2.0 L6.1 -2.1 6.2 -2.1 6.35 -2.1 6.5 -2.15 6.85 -2.35 6.95 -2.35 7.0 -2.4 Q7.65 -2.4 7.6 -1.75 L7.6 -1.65 8.1 -2.0 Q8.6 -2.2 8.85 -1.75 L8.95 -1.6 8.95 -1.6 8.85 -1.4 8.75 -1.15 8.55 -1.0 8.35 -0.9 8.3 -0.9 Q7.55 -0.85 6.75 -0.8 L6.3 -0.8 6.2 -0.8 6.0 -0.75 Q5.65 -0.3 5.2 -0.35 L5.0 -0.4 4.8 -0.55;M5.25 1.7 L5.3 1.4 Q6.0 0.45 6.75 0.95 L6.85 1.15 6.85 1.25 6.85 1.35 6.95 1.35 7.4 1.15 7.5 1.1 7.5 1.1 Q7.85 0.8 8.2 0.45 L8.3 0.4 8.9 0.05 Q9.3 0.1 9.35 0.45 L9.35 0.55 9.15 0.75 8.95 1.05 8.65 1.45 8.45 1.65 8.25 1.85 8.25 1.85 Q7.45 2.4 6.65 2.4 L6.05 2.35 5.95 2.2 5.95 2.2 Q5.55 2.25 5.3 1.95 L5.25 1.7 5.25 1.7"/>
    </path>
  </g>
</svg>
