<?xml version="1.0" encoding="UTF-8" standalone="no"?>
<svg xmlns:xlink="http://www.w3.org/1999/xlink" height="35.8px" width="39.8px" xmlns="http://www.w3.org/2000/svg">
  <g transform="matrix(1.0, 0.0, 0.0, 1.0, 19.5, 8.75)">
    <path d="M-19.5 0.0 L-19.5 0.35 Q-19.2 3.7 -13.7 6.15 L-13.0 6.4 -12.1 6.8 -10.6 7.15 Q-9.75 7.4 -9.0 7.85 -8.05 8.4 -7.75 9.2 -7.5 9.8 -7.55 10.55 -7.6 11.05 -7.95 11.45 L-7.95 11.65 -7.95 11.7 Q-7.85 12.25 -7.75 12.8 L-7.75 12.95 -7.65 13.55 -7.65 13.55 -7.65 13.65 -7.5 13.95 -7.45 13.85 -7.3 13.7 -7.2 13.6 -7.05 13.4 Q-7.0 11.95 -5.7 12.2 -5.45 12.25 -5.3 12.4 L-5.2 12.5 -4.9 12.9 -4.25 13.85 -4.25 13.95 -4.15 14.05 -4.1 14.15 Q-3.7 14.75 -3.3 15.3 L-3.2 15.55 -3.1 16.5 Q-3.2 16.95 -3.3 17.35 -3.4 17.6 -3.5 17.85 L-4.3 18.9 Q-4.75 19.8 -5.15 20.65 L-5.3 21.05 Q-5.55 21.65 -5.45 22.3 L-5.45 22.4 -5.3 23.4 -5.25 23.5 -5.0 23.8 -4.4 24.3 -4.45 23.8 Q-4.45 22.85 -4.05 22.0 -3.9 21.7 -3.6 21.8 -3.0 21.9 -2.8 22.4 -2.7 22.7 -2.75 23.15 L-2.55 23.85 -2.35 24.15 -1.75 25.15 -1.55 25.85 -1.55 27.0 -1.45 26.95 -1.2 26.7 -0.9 26.3 -0.8 26.1 -0.75 25.75 -0.75 25.45 Q-0.7 24.5 -0.95 23.65 L-1.15 23.1 -1.35 22.25 -1.4 21.85 Q-1.45 20.7 -0.85 19.55 L-0.4 19.1 -0.1 19.0 Q0.7 18.85 1.35 19.25 L1.45 19.3 Q2.05 19.75 1.9 20.55 L1.9 20.75 Q1.6 22.0 1.85 23.15 L1.85 23.25 1.95 23.65 2.05 23.95 2.45 24.4 2.45 24.3 Q2.2 23.2 2.75 22.3 L2.95 22.15 Q4.05 22.0 4.35 22.75 4.4 23.0 4.4 23.2 L4.4 23.45 Q4.45 24.9 3.9 26.25 L3.8 26.55 3.75 26.75 3.85 26.75 3.95 26.65 4.55 26.15 4.85 25.85 5.45 25.0 5.55 24.0 5.7 22.15 5.55 21.55 5.45 21.2 5.2 20.9 Q4.9 20.3 4.65 19.7 4.55 19.15 4.5 18.6 L4.5 17.6 4.6 16.85 4.6 16.65 4.6 16.15 4.6 15.95 Q4.6 14.85 5.2 13.95 5.55 13.55 5.85 13.2 L6.0 12.7 Q6.3 12.15 7.0 12.45 L7.3 12.6 Q7.4 12.7 7.5 12.8 L7.55 12.95 Q7.65 14.0 7.7 15.05 L7.75 15.15 7.75 15.15 7.85 15.3 7.9 15.4 7.9 15.6 7.95 15.8 Q8.2 14.85 8.45 13.9 8.75 12.75 9.2 11.75 L9.15 10.8 Q9.2 8.9 10.6 7.65 L10.8 7.5 Q11.35 7.1 11.9 6.95 L12.05 6.9 12.45 6.85 12.75 6.85 14.45 6.15 Q18.85 4.25 19.95 1.75 L20.3 0.0 Q20.3 -3.2 15.7 -5.6 L14.45 -6.2 Q8.95 -8.6 1.3 -8.75 L0.4 -8.75 Q-7.65 -8.75 -13.4 -6.3 L-13.7 -6.2 Q-19.5 -3.6 -19.5 0.0" fill="url(#gradient0)" fill-rule="evenodd" stroke="none">
      <animate attributeName="d" dur="2s" repeatCount="indefinite" values="M-19.5 0.0 L-19.5 0.35 Q-19.2 3.7 -13.7 6.15 L-13.0 6.4 -12.1 6.8 -10.6 7.15 Q-9.75 7.4 -9.0 7.85 -8.05 8.4 -7.75 9.2 -7.5 9.8 -7.55 10.55 -7.6 11.05 -7.95 11.45 L-7.95 11.65 -7.95 11.7 Q-7.85 12.25 -7.75 12.8 L-7.75 12.95 -7.65 13.55 -7.65 13.55 -7.65 13.65 -7.5 13.95 -7.45 13.85 -7.3 13.7 -7.2 13.6 -7.05 13.4 Q-7.0 11.95 -5.7 12.2 -5.45 12.25 -5.3 12.4 L-5.2 12.5 -4.9 12.9 -4.25 13.85 -4.25 13.95 -4.15 14.05 -4.1 14.15 Q-3.7 14.75 -3.3 15.3 L-3.2 15.55 -3.1 16.5 Q-3.2 16.95 -3.3 17.35 -3.4 17.6 -3.5 17.85 L-4.3 18.9 Q-4.75 19.8 -5.15 20.65 L-5.3 21.05 Q-5.55 21.65 -5.45 22.3 L-5.45 22.4 -5.3 23.4 -5.25 23.5 -5.0 23.8 -4.4 24.3 -4.45 23.8 Q-4.45 22.85 -4.05 22.0 -3.9 21.7 -3.6 21.8 -3.0 21.9 -2.8 22.4 -2.7 22.7 -2.75 23.15 L-2.55 23.85 -2.35 24.15 -1.75 25.15 -1.55 25.85 -1.55 27.0 -1.45 26.95 -1.2 26.7 -0.9 26.3 -0.8 26.1 -0.75 25.75 -0.75 25.45 Q-0.7 24.5 -0.95 23.65 L-1.15 23.1 -1.35 22.25 -1.4 21.85 Q-1.45 20.7 -0.85 19.55 L-0.4 19.1 -0.1 19.0 Q0.7 18.85 1.35 19.25 L1.45 19.3 Q2.05 19.75 1.9 20.55 L1.9 20.75 Q1.6 22.0 1.85 23.15 L1.85 23.25 1.95 23.65 2.05 23.95 2.45 24.4 2.45 24.3 Q2.2 23.2 2.75 22.3 L2.95 22.15 Q4.05 22.0 4.35 22.75 4.4 23.0 4.4 23.2 L4.4 23.45 Q4.45 24.9 3.9 26.25 L3.8 26.55 3.75 26.75 3.85 26.75 3.95 26.65 4.55 26.15 4.85 25.85 5.45 25.0 5.55 24.0 5.7 22.15 5.55 21.55 5.45 21.2 5.2 20.9 Q4.9 20.3 4.65 19.7 4.55 19.15 4.5 18.6 L4.5 17.6 4.6 16.85 4.6 16.65 4.6 16.15 4.6 15.95 Q4.6 14.85 5.2 13.95 5.55 13.55 5.85 13.2 L6.0 12.7 Q6.3 12.15 7.0 12.45 L7.3 12.6 Q7.4 12.7 7.5 12.8 L7.55 12.95 Q7.65 14.0 7.7 15.05 L7.75 15.15 7.75 15.15 7.85 15.3 7.9 15.4 7.9 15.6 7.95 15.8 Q8.2 14.85 8.45 13.9 8.75 12.75 9.2 11.75 L9.15 10.8 Q9.2 8.9 10.6 7.65 L10.8 7.5 Q11.35 7.1 11.9 6.95 L12.05 6.9 12.45 6.85 12.75 6.85 14.45 6.15 Q18.85 4.25 19.95 1.75 L20.3 0.0 Q20.3 -3.2 15.7 -5.6 L14.45 -6.2 Q8.95 -8.6 1.3 -8.75 L0.4 -8.75 Q-7.65 -8.75 -13.4 -6.3 L-13.7 -6.2 Q-19.5 -3.6 -19.5 0.0;M-19.5 0.0 L-19.5 0.0 Q-19.5 3.45 -14.25 5.95 L-13.7 6.15 -12.8 6.5 -11.55 7.0 Q-10.8 7.15 -10.1 7.25 -9.25 7.5 -8.5 8.0 -7.6 8.15 -7.0 8.65 -6.75 8.9 -6.5 9.15 L-6.4 9.25 -6.4 9.25 Q-6.1 9.65 -5.95 10.2 L-5.95 10.3 -5.85 10.7 -5.85 10.7 -5.85 10.8 -5.8 11.0 -5.8 11.2 -5.85 11.5 -5.85 11.7 -5.9 12.0 Q-6.15 13.0 -7.1 13.65 -7.2 13.75 -7.3 13.85 L-7.3 14.05 -7.3 14.5 -7.3 15.45 -7.25 15.55 -7.15 15.7 -7.05 15.85 Q-6.8 15.05 -6.15 14.85 L-5.9 14.8 -4.95 14.9 Q-4.55 15.05 -4.5 15.45 -4.45 15.85 -4.7 16.1 L-4.3 17.35 Q-4.15 18.2 -4.35 19.05 L-4.5 19.55 Q-4.65 20.2 -4.75 20.8 L-4.75 20.9 -4.05 20.7 -3.95 20.6 -3.7 20.35 -3.4 19.75 -3.3 19.2 Q-3.2 17.95 -2.25 17.85 -1.9 17.85 -1.6 17.85 -1.15 17.95 -0.95 18.4 -0.85 18.85 -0.75 19.25 L-0.7 19.85 -0.7 20.05 -0.9 21.2 -1.25 21.95 -1.85 22.7 -1.95 22.8 -2.35 23.15 -2.75 23.45 -2.9 23.6 -3.1 23.9 -3.2 24.3 Q-3.35 25.2 -3.1 25.9 L-2.9 26.35 -2.4 26.95 -2.05 27.05 Q-2.7 26.05 -2.1 25.05 L-1.85 24.65 -1.65 24.4 Q-1.0 24.35 -0.4 24.35 L-0.2 24.45 Q0.45 24.8 0.45 25.5 L0.45 25.6 Q1.2 26.5 2.3 26.9 L2.4 26.95 2.5 26.55 2.5 26.35 2.45 25.9 2.45 25.7 Q1.4 24.95 1.35 24.0 L1.4 23.7 Q1.5 23.1 2.0 22.45 2.1 22.25 2.35 22.2 L2.5 22.2 Q4.15 22.05 4.6 23.45 L4.7 23.9 4.7 24.15 4.75 24.55 4.9 24.75 5.4 25.15 5.5 24.95 5.5 23.95 5.4 23.05 4.8 21.3 4.35 20.85 4.05 20.6 3.8 20.0 Q3.75 19.25 4.25 18.65 4.6 18.2 5.2 18.05 L6.3 18.0 7.05 18.2 7.3 18.3 7.4 17.9 7.4 17.7 Q7.35 16.65 6.25 16.05 5.75 15.75 5.6 15.25 L5.55 14.7 Q5.7 14.2 5.8 13.7 L6.05 13.4 Q6.15 13.3 6.3 13.25 L6.5 13.2 Q7.7 12.95 8.45 13.8 L8.5 13.8 8.5 13.7 8.6 13.6 8.6 13.5 8.6 13.4 8.6 13.3 Q8.6 12.3 8.85 11.35 9.15 10.35 9.45 9.35 L9.9 8.55 Q10.9 6.9 12.65 6.5 L12.95 6.4 Q13.5 6.35 14.0 6.3 L14.15 6.3 14.45 6.15 14.55 6.05 16.3 5.25 Q20.3 3.0 20.3 0.0 L20.0 -1.6 Q18.95 -4.2 14.45 -6.2 L13.25 -6.7 Q7.8 -8.75 0.4 -8.75 L-0.4 -8.75 Q-8.15 -8.65 -13.7 -6.2 L-14.0 -6.1 Q-19.5 -3.5 -19.5 0.0"/>
    </path>
    <path d="M-19.5 0.0 Q-19.5 -3.6 -13.7 -6.2 L-13.4 -6.3 Q-7.65 -8.75 0.4 -8.75 L1.3 -8.75 Q8.95 -8.6 14.45 -6.2 L15.7 -5.6 Q20.3 -3.2 20.3 0.0 L19.95 1.75 Q18.85 4.25 14.45 6.15 L12.75 6.85 12.45 6.85 12.05 6.9 11.9 6.95 Q11.35 7.1 10.8 7.5 L10.6 7.65 Q9.2 8.9 9.15 10.8 L9.2 11.75 Q8.75 12.75 8.45 13.9 8.2 14.85 7.95 15.8 L7.9 15.6 7.9 15.4 7.85 15.3 7.75 15.15 7.75 15.15 7.7 15.05 Q7.65 14.0 7.55 12.95 L7.5 12.8 Q7.4 12.7 7.3 12.6 L7.0 12.45 Q6.3 12.15 6.0 12.7 L5.85 13.2 Q5.55 13.55 5.2 13.95 4.6 14.85 4.6 15.95 L4.6 16.15 4.6 16.65 4.6 16.85 4.5 17.6 4.5 18.6 Q4.55 19.15 4.65 19.7 4.9 20.3 5.2 20.9 L5.45 21.2 5.55 21.55 5.7 22.15 5.55 24.0 5.45 25.0 4.85 25.85 4.55 26.15 3.95 26.65 3.85 26.75 3.75 26.75 3.8 26.55 3.9 26.25 Q4.45 24.9 4.4 23.45 L4.4 23.2 Q4.4 23.0 4.35 22.75 4.05 22.0 2.95 22.15 L2.75 22.3 Q2.2 23.2 2.45 24.3 L2.45 24.4 2.05 23.95 1.95 23.65 1.85 23.25 1.85 23.15 Q1.6 22.0 1.9 20.75 L1.9 20.55 Q2.05 19.75 1.45 19.3 L1.35 19.25 Q0.7 18.85 -0.1 19.0 L-0.4 19.1 -0.85 19.55 Q-1.45 20.7 -1.4 21.85 L-1.35 22.25 -1.15 23.1 -0.95 23.65 Q-0.7 24.5 -0.75 25.45 L-0.75 25.75 -0.8 26.1 -0.9 26.3 -1.2 26.7 -1.45 26.95 -1.55 27.0 -1.55 25.85 -1.75 25.15 -2.35 24.15 -2.55 23.85 -2.75 23.15 Q-2.7 22.7 -2.8 22.4 -3.0 21.9 -3.6 21.8 -3.9 21.7 -4.05 22.0 -4.45 22.85 -4.45 23.8 L-4.4 24.3 -5.0 23.8 -5.25 23.5 -5.3 23.4 -5.45 22.4 -5.45 22.3 Q-5.55 21.65 -5.3 21.05 L-5.15 20.65 Q-4.75 19.8 -4.3 18.9 L-3.5 17.85 Q-3.4 17.6 -3.3 17.35 -3.2 16.95 -3.1 16.5 L-3.2 15.55 -3.3 15.3 Q-3.7 14.75 -4.1 14.15 L-4.15 14.05 -4.25 13.95 -4.25 13.85 -4.9 12.9 -5.2 12.5 -5.3 12.4 Q-5.45 12.25 -5.7 12.2 -7.0 11.95 -7.05 13.4 L-7.2 13.6 -7.3 13.7 -7.45 13.85 -7.5 13.95 -7.65 13.65 -7.65 13.55 -7.65 13.55 -7.75 12.95 -7.75 12.8 Q-7.85 12.25 -7.95 11.7 L-7.95 11.65 -7.95 11.45 Q-7.6 11.05 -7.55 10.55 -7.5 9.8 -7.75 9.2 -8.05 8.4 -9.0 7.85 -9.75 7.4 -10.6 7.15 L-12.1 6.8 -13.0 6.4 -13.7 6.15 Q-19.2 3.7 -19.5 0.35 L-19.5 0.0" fill="none" stroke="#000000" stroke-linecap="round" stroke-linejoin="round" stroke-opacity="0.0" stroke-width="1.0">
      <animate attributeName="stroke" dur="2s" repeatCount="indefinite" values="#000000;#000001"/>
      <animate attributeName="stroke-width" dur="2s" repeatCount="indefinite" values="0.0;0.0"/>
      <animate attributeName="fill-opacity" dur="2s" repeatCount="indefinite" values="0.0;0.0"/>
      <animate attributeName="d" dur="2s" repeatCount="indefinite" values="M-19.5 0.0 Q-19.5 -3.6 -13.7 -6.2 L-13.4 -6.3 Q-7.65 -8.75 0.4 -8.75 L1.3 -8.75 Q8.95 -8.6 14.45 -6.2 L15.7 -5.6 Q20.3 -3.2 20.3 0.0 L19.95 1.75 Q18.85 4.25 14.45 6.15 L12.75 6.85 12.45 6.85 12.05 6.9 11.9 6.95 Q11.35 7.1 10.8 7.5 L10.6 7.65 Q9.2 8.9 9.15 10.8 L9.2 11.75 Q8.75 12.75 8.45 13.9 8.2 14.85 7.95 15.8 L7.9 15.6 7.9 15.4 7.85 15.3 7.75 15.15 7.75 15.15 7.7 15.05 Q7.65 14.0 7.55 12.95 L7.5 12.8 Q7.4 12.7 7.3 12.6 L7.0 12.45 Q6.3 12.15 6.0 12.7 L5.85 13.2 Q5.55 13.55 5.2 13.95 4.6 14.85 4.6 15.95 L4.6 16.15 4.6 16.65 4.6 16.85 4.5 17.6 4.5 18.6 Q4.55 19.15 4.65 19.7 4.9 20.3 5.2 20.9 L5.45 21.2 5.55 21.55 5.7 22.15 5.55 24.0 5.45 25.0 4.85 25.85 4.55 26.15 3.95 26.65 3.85 26.75 3.75 26.75 3.8 26.55 3.9 26.25 Q4.45 24.9 4.4 23.45 L4.4 23.2 Q4.4 23.0 4.35 22.75 4.05 22.0 2.95 22.15 L2.75 22.3 Q2.2 23.2 2.45 24.3 L2.45 24.4 2.05 23.95 1.95 23.65 1.85 23.25 1.85 23.15 Q1.6 22.0 1.9 20.75 L1.9 20.55 Q2.05 19.75 1.45 19.3 L1.35 19.25 Q0.7 18.85 -0.1 19.0 L-0.4 19.1 -0.85 19.55 Q-1.45 20.7 -1.4 21.85 L-1.35 22.25 -1.15 23.1 -0.95 23.65 Q-0.7 24.5 -0.75 25.45 L-0.75 25.75 -0.8 26.1 -0.9 26.3 -1.2 26.7 -1.45 26.95 -1.55 27.0 -1.55 25.85 -1.75 25.15 -2.35 24.15 -2.55 23.85 -2.75 23.15 Q-2.7 22.7 -2.8 22.4 -3.0 21.9 -3.6 21.8 -3.9 21.7 -4.05 22.0 -4.45 22.85 -4.45 23.8 L-4.4 24.3 -5.0 23.8 -5.25 23.5 -5.3 23.4 -5.45 22.4 -5.45 22.3 Q-5.55 21.65 -5.3 21.05 L-5.15 20.65 Q-4.75 19.8 -4.3 18.9 L-3.5 17.85 Q-3.4 17.6 -3.3 17.35 -3.2 16.95 -3.1 16.5 L-3.2 15.55 -3.3 15.3 Q-3.7 14.75 -4.1 14.15 L-4.15 14.05 -4.25 13.95 -4.25 13.85 -4.9 12.9 -5.2 12.5 -5.3 12.4 Q-5.45 12.25 -5.7 12.2 -7.0 11.95 -7.05 13.4 L-7.2 13.6 -7.3 13.7 -7.45 13.85 -7.5 13.95 -7.65 13.65 -7.65 13.55 -7.65 13.55 -7.75 12.95 -7.75 12.8 Q-7.85 12.25 -7.95 11.7 L-7.95 11.65 -7.95 11.45 Q-7.6 11.05 -7.55 10.55 -7.5 9.8 -7.75 9.2 -8.05 8.4 -9.0 7.85 -9.75 7.4 -10.6 7.15 L-12.1 6.8 -13.0 6.4 -13.7 6.15 Q-19.2 3.7 -19.5 0.35 L-19.5 0.0;M-19.5 0.0 Q-19.5 -3.5 -14.0 -6.1 L-13.7 -6.2 Q-8.15 -8.65 -0.4 -8.75 L0.4 -8.75 Q7.8 -8.75 13.25 -6.7 L14.45 -6.2 Q18.95 -4.2 20.0 -1.6 L20.3 0.0 Q20.3 3.0 16.3 5.25 L14.55 6.05 14.45 6.15 14.15 6.3 14.0 6.3 Q13.5 6.35 12.95 6.4 L12.65 6.5 Q10.9 6.9 9.9 8.55 L9.45 9.35 Q9.15 10.35 8.85 11.35 8.6 12.3 8.6 13.3 L8.6 13.4 8.6 13.5 8.6 13.6 8.5 13.7 8.5 13.8 8.45 13.8 Q7.7 12.95 6.5 13.2 L6.3 13.25 Q6.15 13.3 6.05 13.4 L5.8 13.7 Q5.7 14.2 5.55 14.7 L5.6 15.25 Q5.75 15.75 6.25 16.05 7.35 16.65 7.4 17.7 L7.4 17.9 7.3 18.3 7.05 18.2 6.3 18.0 5.2 18.05 Q4.6 18.2 4.25 18.65 3.75 19.25 3.8 20.0 L4.05 20.6 4.35 20.85 4.8 21.3 5.4 23.05 5.5 23.95 5.5 24.95 5.4 25.15 4.9 24.75 4.75 24.55 4.7 24.15 4.7 23.9 4.6 23.45 Q4.15 22.05 2.5 22.2 L2.35 22.2 Q2.1 22.25 2.0 22.45 1.5 23.1 1.4 23.7 L1.35 24.0 Q1.4 24.95 2.45 25.7 L2.45 25.9 2.5 26.35 2.5 26.55 2.4 26.95 2.3 26.9 Q1.2 26.5 0.45 25.6 L0.45 25.5 Q0.45 24.8 -0.2 24.45 L-0.4 24.35 Q-1.0 24.35 -1.65 24.4 L-1.85 24.65 -2.1 25.05 Q-2.7 26.05 -2.05 27.05 L-2.4 26.95 -2.9 26.35 -3.1 25.9 Q-3.35 25.2 -3.2 24.3 L-3.1 23.9 -2.9 23.6 -2.75 23.45 -2.35 23.15 -1.95 22.8 -1.85 22.7 -1.25 21.95 -0.9 21.2 -0.7 20.05 -0.7 19.85 -0.75 19.25 Q-0.85 18.85 -0.95 18.4 -1.15 17.95 -1.6 17.85 -1.9 17.85 -2.25 17.85 -3.2 17.95 -3.3 19.2 L-3.4 19.75 -3.7 20.35 -3.95 20.6 -4.05 20.7 -4.75 20.9 -4.75 20.8 Q-4.65 20.2 -4.5 19.55 L-4.35 19.05 Q-4.15 18.2 -4.3 17.35 L-4.7 16.1 Q-4.45 15.85 -4.5 15.45 -4.55 15.05 -4.95 14.9 L-5.9 14.8 -6.15 14.85 Q-6.8 15.05 -7.05 15.85 L-7.15 15.7 -7.25 15.55 -7.3 15.45 -7.3 14.5 -7.3 14.05 -7.3 13.85 Q-7.2 13.75 -7.1 13.65 -6.15 13.0 -5.9 12.0 L-5.85 11.7 -5.85 11.5 -5.8 11.2 -5.8 11.0 -5.85 10.8 -5.85 10.7 -5.85 10.7 -5.95 10.3 -5.95 10.2 Q-6.1 9.65 -6.4 9.25 L-6.4 9.25 -6.5 9.15 Q-6.75 8.9 -7.0 8.65 -7.6 8.15 -8.5 8.0 -9.25 7.5 -10.1 7.25 -10.8 7.15 -11.55 7.0 L-12.8 6.5 -13.7 6.15 -14.25 5.95 Q-19.5 3.45 -19.5 0.0 L-19.5 0.0"/>
    </path>
  </g>
  <defs>
    <radialGradient cx="0" cy="0" gradientTransform="matrix(0.0351, 0.0, 0.0, 0.0351, 1.0, -0.75)" gradientUnits="userSpaceOnUse" id="gradient0" r="819.2" spreadMethod="pad">
      <animateTransform additive="replace" attributeName="gradientTransform" dur="2s" from="1" repeatCount="indefinite" to="1" type="scale"/>
      <animateTransform additive="sum" attributeName="gradientTransform" dur="2s" from="1.0 -0.75" repeatCount="indefinite" to="1.0 -0.75" type="translate"/>
      <animateTransform additive="sum" attributeName="gradientTransform" dur="2s" from="0.0" repeatCount="indefinite" to="0.0" type="rotate"/>
      <animateTransform additive="sum" attributeName="gradientTransform" dur="2s" from="0.0351 0.0351" repeatCount="indefinite" to="0.0351 0.0351" type="scale"/>
      <animateTransform additive="sum" attributeName="gradientTransform" dur="2s" from="0.0" repeatCount="indefinite" to="0.0" type="skewX"/>
      <stop offset="0.0" stop-color="#fefe0c" stop-opacity="0.9019608">
        <animate attributeName="offset" dur="2s" repeatCount="indefinite" values="0.0;0.0"/>
        <animate attributeName="stop-color" dur="2s" repeatCount="indefinite" values="#fefe0c;#fefe0d"/>
        <animate attributeName="stop-opacity" dur="2s" repeatCount="indefinite" values="0.9019608;0.9019608"/>
      </stop>
      <stop offset="0.5764705882352941" stop-color="#ffba2b" stop-opacity="0.9019608">
        <animate attributeName="offset" dur="2s" repeatCount="indefinite" values="0.5764705882352941;0.5764705882352941"/>
        <animate attributeName="stop-color" dur="2s" repeatCount="indefinite" values="#ffba2b;#ffba2c"/>
        <animate attributeName="stop-opacity" dur="2s" repeatCount="indefinite" values="0.9019608;0.9019608"/>
      </stop>
      <stop offset="1.0" stop-color="#ff720b" stop-opacity="0.9019608">
        <animate attributeName="offset" dur="2s" repeatCount="indefinite" values="1.0;1.0"/>
        <animate attributeName="stop-color" dur="2s" repeatCount="indefinite" values="#ff720b;#ff720c"/>
        <animate attributeName="stop-opacity" dur="2s" repeatCount="indefinite" values="0.9019608;0.9019608"/>
      </stop>
    </radialGradient>
  </defs>
</svg>
