<?xml version="1.0" encoding="UTF-8" standalone="no"?>
<svg xmlns:xlink="http://www.w3.org/1999/xlink" height="5.45px" width="3.65px" xmlns="http://www.w3.org/2000/svg">
  <g transform="matrix(1.0, 0.0, 0.0, 1.0, -0.15, -13.55)">
    <path d="M0.2 15.7 L0.55 15.9 Q0.85 15.85 1.15 15.8 L1.25 15.75 2.0 15.75 2.25 15.65 2.35 15.65 2.45 15.75 2.85 15.8 2.95 15.75 3.05 15.65 3.15 15.55 3.15 15.45 3.3 15.15 Q3.35 14.7 3.4 14.3 L3.35 14.0 Q3.1 13.75 2.9 13.55 L2.75 13.55 2.45 13.8 2.45 13.9 2.45 14.0 Q2.1 14.2 1.75 14.4 L1.45 14.4 1.1 14.55 Q0.9 14.65 0.7 14.75 0.55 14.95 0.4 15.1 L0.2 15.7" fill="#000000" fill-rule="evenodd" stroke="none">
      <animate attributeName="fill" dur="2s" repeatCount="indefinite" values="#000000;#000001"/>
      <animate attributeName="fill-opacity" dur="2s" repeatCount="indefinite" values="1.0;1.0"/>
      <animate attributeName="d" dur="2s" repeatCount="indefinite" values="M0.2 15.7 L0.55 15.9 Q0.85 15.85 1.15 15.8 L1.25 15.75 2.0 15.75 2.25 15.65 2.35 15.65 2.45 15.75 2.85 15.8 2.95 15.75 3.05 15.65 3.15 15.55 3.15 15.45 3.3 15.15 Q3.35 14.7 3.4 14.3 L3.35 14.0 Q3.1 13.75 2.9 13.55 L2.75 13.55 2.45 13.8 2.45 13.9 2.45 14.0 Q2.1 14.2 1.75 14.4 L1.45 14.4 1.1 14.55 Q0.9 14.65 0.7 14.75 0.55 14.95 0.4 15.1 L0.2 15.7;M0.2 18.35 L0.2 18.8 Q0.45 19.1 0.8 19.0 L0.9 19.0 1.2 18.5 1.35 18.4 1.4 18.3 1.45 18.2 1.9 18.25 2.0 18.3 2.05 18.35 2.05 18.45 2.05 18.45 2.55 18.75 Q3.1 18.95 3.65 18.4 L3.8 18.0 Q3.8 17.3 3.45 17.3 L3.25 17.35 2.75 17.65 2.7 17.55 2.7 17.5 Q2.3 17.1 1.8 17.05 L1.35 17.1 1.15 17.1 Q0.9 17.15 0.65 17.4 0.5 17.55 0.5 17.8 L0.2 18.35"/>
    </path>
    <path d="M0.2 15.7 L0.4 15.1 Q0.55 14.95 0.7 14.75 0.9 14.65 1.1 14.55 L1.45 14.4 1.75 14.4 Q2.1 14.2 2.45 14.0 L2.45 13.9 2.45 13.8 2.75 13.55 2.9 13.55 Q3.1 13.75 3.35 14.0 L3.4 14.3 Q3.35 14.7 3.3 15.15 L3.15 15.45 3.15 15.55 3.05 15.65 2.95 15.75 2.85 15.8 2.45 15.75 2.35 15.65 2.25 15.65 2.0 15.75 1.25 15.75 1.15 15.8 Q0.85 15.85 0.55 15.9 L0.2 15.7" fill="none" stroke="#000000" stroke-linecap="round" stroke-linejoin="round" stroke-opacity="0.0" stroke-width="1.0">
      <animate attributeName="stroke" dur="2s" repeatCount="indefinite" values="#000000;#000001"/>
      <animate attributeName="stroke-width" dur="2s" repeatCount="indefinite" values="0.0;0.0"/>
      <animate attributeName="fill-opacity" dur="2s" repeatCount="indefinite" values="0.0;0.0"/>
      <animate attributeName="d" dur="2s" repeatCount="indefinite" values="M0.2 15.7 L0.4 15.1 Q0.55 14.95 0.7 14.75 0.9 14.65 1.1 14.55 L1.45 14.4 1.75 14.4 Q2.1 14.2 2.45 14.0 L2.45 13.9 2.45 13.8 2.75 13.55 2.9 13.55 Q3.1 13.75 3.35 14.0 L3.4 14.3 Q3.35 14.7 3.3 15.15 L3.15 15.45 3.15 15.55 3.05 15.65 2.95 15.75 2.85 15.8 2.45 15.75 2.35 15.65 2.25 15.65 2.0 15.75 1.25 15.75 1.15 15.8 Q0.85 15.85 0.55 15.9 L0.2 15.7;M0.2 18.35 L0.5 17.8 Q0.5 17.55 0.65 17.4 0.9 17.15 1.15 17.1 L1.35 17.1 1.8 17.05 Q2.3 17.1 2.7 17.5 L2.7 17.55 2.75 17.65 3.25 17.35 3.45 17.3 Q3.8 17.3 3.8 18.0 L3.65 18.4 Q3.1 18.95 2.55 18.75 L2.05 18.45 2.05 18.45 2.05 18.35 2.0 18.3 1.9 18.25 1.45 18.2 1.4 18.3 1.35 18.4 1.2 18.5 0.9 19.0 0.8 19.0 Q0.45 19.1 0.2 18.8 L0.2 18.35"/>
    </path>
  </g>
</svg>
