<?xml version="1.0" encoding="UTF-8" standalone="no"?>
<svg xmlns:xlink="http://www.w3.org/1999/xlink" height="4.75px" width="4.6px" xmlns="http://www.w3.org/2000/svg">
  <g transform="matrix(1.0, 0.0, 0.0, 1.0, 4.7, -0.8)">
    <path d="M-4.7 2.55 L-4.6 2.65 -4.2 2.75 Q-3.75 2.8 -3.5 2.15 L-3.4 2.15 -2.7 2.2 -2.45 2.35 -2.15 2.45 Q-1.8 2.4 -1.5 2.4 L-1.2 2.25 -1.1 2.2 -1.0 2.1 Q-0.35 1.65 -0.7 1.2 L-1.1 0.8 Q-1.4 0.8 -1.55 1.05 L-1.55 1.15 -1.55 1.2 -1.65 1.3 -1.9 1.45 -2.2 1.2 Q-2.5 1.05 -2.9 1.2 -3.1 0.85 -3.45 0.95 L-3.5 0.95 Q-4.45 1.35 -4.65 2.25 L-4.7 2.55" fill="#000000" fill-rule="evenodd" stroke="none">
      <animate attributeName="fill" dur="2s" repeatCount="indefinite" values="#000000;#000001"/>
      <animate attributeName="fill-opacity" dur="2s" repeatCount="indefinite" values="1.0;1.0"/>
      <animate attributeName="d" dur="2s" repeatCount="indefinite" values="M-4.7 2.55 L-4.6 2.65 -4.2 2.75 Q-3.75 2.8 -3.5 2.15 L-3.4 2.15 -2.7 2.2 -2.45 2.35 -2.15 2.45 Q-1.8 2.4 -1.5 2.4 L-1.2 2.25 -1.1 2.2 -1.0 2.1 Q-0.35 1.65 -0.7 1.2 L-1.1 0.8 Q-1.4 0.8 -1.55 1.05 L-1.55 1.15 -1.55 1.2 -1.65 1.3 -1.9 1.45 -2.2 1.2 Q-2.5 1.05 -2.9 1.2 -3.1 0.85 -3.45 0.95 L-3.5 0.95 Q-4.45 1.35 -4.65 2.25 L-4.7 2.55;M-3.75 4.95 L-3.75 4.95 -3.7 5.3 Q-3.3 5.35 -2.9 5.4 L-2.85 5.4 -2.2 5.55 -2.0 5.55 -1.8 5.5 Q-1.55 5.35 -1.55 5.05 L-1.35 4.95 -1.15 4.9 -0.95 4.9 Q-0.45 5.25 -0.25 4.7 L-0.1 4.15 Q-0.15 3.9 -0.2 3.65 L-0.3 3.55 -0.4 3.45 -0.7 3.3 -0.9 3.4 -1.05 3.7 Q-1.35 3.85 -1.6 4.0 -1.95 4.1 -2.25 4.15 L-2.35 4.15 Q-3.15 3.85 -3.7 4.65 L-3.75 4.95"/>
    </path>
    <path d="M-4.7 2.55 L-4.65 2.25 Q-4.45 1.35 -3.5 0.95 L-3.45 0.95 Q-3.1 0.85 -2.9 1.2 -2.5 1.05 -2.2 1.2 L-1.9 1.45 -1.65 1.3 -1.55 1.2 -1.55 1.15 -1.55 1.05 Q-1.4 0.8 -1.1 0.8 L-0.7 1.2 Q-0.35 1.65 -1.0 2.1 L-1.1 2.2 -1.2 2.25 -1.5 2.4 Q-1.8 2.4 -2.15 2.45 L-2.45 2.35 -2.7 2.2 -3.4 2.15 -3.5 2.15 Q-3.75 2.8 -4.2 2.75 L-4.6 2.65 -4.7 2.55" fill="none" stroke="#000000" stroke-linecap="round" stroke-linejoin="round" stroke-opacity="0.0" stroke-width="1.0">
      <animate attributeName="stroke" dur="2s" repeatCount="indefinite" values="#000000;#000001"/>
      <animate attributeName="stroke-width" dur="2s" repeatCount="indefinite" values="0.0;0.0"/>
      <animate attributeName="fill-opacity" dur="2s" repeatCount="indefinite" values="0.0;0.0"/>
      <animate attributeName="d" dur="2s" repeatCount="indefinite" values="M-4.7 2.55 L-4.65 2.25 Q-4.45 1.35 -3.5 0.95 L-3.45 0.95 Q-3.1 0.85 -2.9 1.2 -2.5 1.05 -2.2 1.2 L-1.9 1.45 -1.65 1.3 -1.55 1.2 -1.55 1.15 -1.55 1.05 Q-1.4 0.8 -1.1 0.8 L-0.7 1.2 Q-0.35 1.65 -1.0 2.1 L-1.1 2.2 -1.2 2.25 -1.5 2.4 Q-1.8 2.4 -2.15 2.45 L-2.45 2.35 -2.7 2.2 -3.4 2.15 -3.5 2.15 Q-3.75 2.8 -4.2 2.75 L-4.6 2.65 -4.7 2.55;M-3.75 4.95 L-3.7 4.65 Q-3.15 3.85 -2.35 4.15 L-2.25 4.15 Q-1.95 4.1 -1.6 4.0 -1.35 3.85 -1.05 3.7 L-0.9 3.4 -0.7 3.3 -0.4 3.45 -0.3 3.55 -0.2 3.65 Q-0.15 3.9 -0.1 4.15 L-0.25 4.7 Q-0.45 5.25 -0.95 4.9 L-1.15 4.9 -1.35 4.95 -1.55 5.05 Q-1.55 5.35 -1.8 5.5 L-2.0 5.55 -2.2 5.55 -2.85 5.4 -2.9 5.4 Q-3.3 5.35 -3.7 5.3 L-3.75 4.95 -3.75 4.95"/>
    </path>
  </g>
</svg>
