<?xml version="1.0" encoding="UTF-8" standalone="no"?>
<svg xmlns:xlink="http://www.w3.org/1999/xlink" height="3.5px" width="7.25px" xmlns="http://www.w3.org/2000/svg">
  <g transform="matrix(1.0, 0.0, 0.0, 1.0, -7.45, -3.35)">
    <path d="M11.3 4.55 Q11.65 4.95 12.15 4.75 L12.2 5.05 12.2 5.05 12.2 5.1 12.2 5.2 12.5 5.4 12.7 5.5 12.8 5.5 13.25 5.55 13.35 5.65 13.55 5.85 Q14.15 6.3 14.6 5.65 L14.7 5.55 Q14.45 4.95 13.75 4.7 L13.65 4.65 13.45 4.55 13.45 4.45 13.4 4.25 13.4 4.1 Q13.2 3.8 13.0 3.5 L12.65 3.35 12.5 3.4 Q11.4 3.65 11.3 4.55" fill="#000000" fill-rule="evenodd" stroke="none">
      <animate attributeName="fill" dur="2s" repeatCount="indefinite" values="#000000;#000001"/>
      <animate attributeName="fill-opacity" dur="2s" repeatCount="indefinite" values="1.0;1.0"/>
      <animate attributeName="d" dur="2s" repeatCount="indefinite" values="M11.3 4.55 Q11.65 4.95 12.15 4.75 L12.2 5.05 12.2 5.05 12.2 5.1 12.2 5.2 12.5 5.4 12.7 5.5 12.8 5.5 13.25 5.55 13.35 5.65 13.55 5.85 Q14.15 6.3 14.6 5.65 L14.7 5.55 Q14.45 4.95 13.75 4.7 L13.65 4.65 13.45 4.55 13.45 4.45 13.4 4.25 13.4 4.1 Q13.2 3.8 13.0 3.5 L12.65 3.35 12.5 3.4 Q11.4 3.65 11.3 4.55;M7.45 5.95 Q8.0 5.9 8.55 5.9 L8.75 5.7 8.75 5.8 8.75 5.8 8.9 6.05 9.2 6.3 9.2 6.45 9.2 6.55 9.6 6.8 9.65 6.8 10.05 6.8 Q10.85 6.95 11.2 6.3 L11.2 6.2 Q10.9 5.6 10.1 5.55 L10.05 5.45 10.05 5.45 9.95 5.3 9.7 5.05 9.7 4.95 Q9.65 4.6 9.25 4.55 L8.9 4.65 8.8 4.65 Q7.7 4.95 7.45 5.95"/>
    </path>
    <path d="M11.3 4.55 Q11.4 3.65 12.5 3.4 L12.65 3.35 13.0 3.5 Q13.2 3.8 13.4 4.1 L13.4 4.25 13.45 4.45 13.45 4.55 13.65 4.65 13.75 4.7 Q14.45 4.95 14.7 5.55 L14.6 5.65 Q14.15 6.3 13.55 5.85 L13.35 5.65 13.25 5.55 12.8 5.5 12.7 5.5 12.5 5.4 12.2 5.2 12.2 5.1 12.2 5.05 12.2 5.05 12.15 4.75 Q11.65 4.95 11.3 4.55" fill="none" stroke="#000000" stroke-linecap="round" stroke-linejoin="round" stroke-opacity="0.0" stroke-width="1.0">
      <animate attributeName="stroke" dur="2s" repeatCount="indefinite" values="#000000;#000001"/>
      <animate attributeName="stroke-width" dur="2s" repeatCount="indefinite" values="0.0;0.0"/>
      <animate attributeName="fill-opacity" dur="2s" repeatCount="indefinite" values="0.0;0.0"/>
      <animate attributeName="d" dur="2s" repeatCount="indefinite" values="M11.3 4.55 Q11.4 3.65 12.5 3.4 L12.65 3.35 13.0 3.5 Q13.2 3.8 13.4 4.1 L13.4 4.25 13.45 4.45 13.45 4.55 13.65 4.65 13.75 4.7 Q14.45 4.95 14.7 5.55 L14.6 5.65 Q14.15 6.3 13.55 5.85 L13.35 5.65 13.25 5.55 12.8 5.5 12.7 5.5 12.5 5.4 12.2 5.2 12.2 5.1 12.2 5.05 12.2 5.05 12.15 4.75 Q11.65 4.95 11.3 4.55;M7.45 5.95 Q7.7 4.95 8.8 4.65 L8.9 4.65 9.25 4.55 Q9.65 4.6 9.7 4.95 L9.7 5.05 9.95 5.3 10.05 5.45 10.05 5.45 10.1 5.55 Q10.9 5.6 11.2 6.2 L11.2 6.3 Q10.85 6.95 10.05 6.8 L9.65 6.8 9.6 6.8 9.2 6.55 9.2 6.45 9.2 6.3 8.9 6.05 8.75 5.8 8.75 5.8 8.75 5.7 8.55 5.9 Q8.0 5.9 7.45 5.95"/>
    </path>
  </g>
</svg>
