<?xml version="1.0" encoding="UTF-8" standalone="no"?>
<svg xmlns:xlink="http://www.w3.org/1999/xlink" height="4.2px" width="4.9px" xmlns="http://www.w3.org/2000/svg">
  <g transform="matrix(1.0, 0.0, 0.0, 1.0, 12.2, 4.15)">
    <path d="M-11.55 -3.05 L-11.55 -3.05 Q-11.15 -2.7 -10.7 -2.85 L-10.7 -2.85 Q-9.95 -2.8 -9.2 -2.8 L-9.0 -2.7 Q-8.65 -2.7 -8.35 -2.7 L-7.65 -3.15 -7.6 -3.2 -7.6 -3.3 Q-7.5 -3.85 -7.8 -4.0 L-8.4 -4.0 -8.7 -4.05 -8.8 -4.05 -9.6 -3.7 -9.8 -3.55 -9.85 -3.6 -9.9 -3.75 Q-10.15 -3.95 -10.35 -4.15 L-10.35 -4.1 -10.45 -4.1 Q-11.55 -4.0 -11.55 -3.05" fill="#000000" fill-rule="evenodd" stroke="none">
      <animate attributeName="fill" dur="2s" repeatCount="indefinite" values="#000000;#000001"/>
      <animate attributeName="fill-opacity" dur="2s" repeatCount="indefinite" values="1.0;1.0"/>
      <animate attributeName="d" dur="2s" repeatCount="indefinite" values="M-11.55 -3.05 L-11.55 -3.05 Q-11.15 -2.7 -10.7 -2.85 L-10.7 -2.85 Q-9.95 -2.8 -9.2 -2.8 L-9.0 -2.7 Q-8.65 -2.7 -8.35 -2.7 L-7.65 -3.15 -7.6 -3.2 -7.6 -3.3 Q-7.5 -3.85 -7.8 -4.0 L-8.4 -4.0 -8.7 -4.05 -8.8 -4.05 -9.6 -3.7 -9.8 -3.55 -9.85 -3.6 -9.9 -3.75 Q-10.15 -3.95 -10.35 -4.15 L-10.35 -4.1 -10.45 -4.1 Q-11.55 -4.0 -11.55 -3.05;M-12.2 -0.2 L-12.0 -0.1 Q-11.55 -0.15 -11.1 -0.2 L-11.0 -0.1 Q-10.1 0.25 -9.25 -0.1 L-9.15 -0.2 Q-8.7 -0.2 -8.35 -0.45 L-7.4 -1.35 -7.3 -1.45 -7.3 -1.55 Q-7.35 -1.9 -7.75 -1.95 L-8.4 -1.65 -8.65 -1.3 -8.75 -1.25 -9.8 -1.1 -10.0 -1.15 -10.1 -1.15 -10.3 -1.15 Q-10.35 -1.7 -10.75 -1.65 L-10.85 -1.65 -11.05 -1.6 Q-12.1 -1.15 -12.2 -0.2"/>
    </path>
    <path d="M-11.55 -3.05 Q-11.55 -4.0 -10.45 -4.1 L-10.35 -4.1 -10.35 -4.15 Q-10.15 -3.95 -9.9 -3.75 L-9.85 -3.6 -9.8 -3.55 -9.6 -3.7 -8.8 -4.05 -8.7 -4.05 -8.4 -4.0 -7.8 -4.0 Q-7.5 -3.85 -7.6 -3.3 L-7.6 -3.2 -7.65 -3.15 -8.35 -2.7 Q-8.65 -2.7 -9.0 -2.7 L-9.2 -2.8 Q-9.95 -2.8 -10.7 -2.85 L-10.7 -2.85 Q-11.15 -2.7 -11.55 -3.05 L-11.55 -3.05" fill="none" stroke="#000000" stroke-linecap="round" stroke-linejoin="round" stroke-opacity="0.0" stroke-width="1.0">
      <animate attributeName="stroke" dur="2s" repeatCount="indefinite" values="#000000;#000001"/>
      <animate attributeName="stroke-width" dur="2s" repeatCount="indefinite" values="0.0;0.0"/>
      <animate attributeName="fill-opacity" dur="2s" repeatCount="indefinite" values="0.0;0.0"/>
      <animate attributeName="d" dur="2s" repeatCount="indefinite" values="M-11.55 -3.05 Q-11.55 -4.0 -10.45 -4.1 L-10.35 -4.1 -10.35 -4.15 Q-10.15 -3.95 -9.9 -3.75 L-9.85 -3.6 -9.8 -3.55 -9.6 -3.7 -8.8 -4.05 -8.7 -4.05 -8.4 -4.0 -7.8 -4.0 Q-7.5 -3.85 -7.6 -3.3 L-7.6 -3.2 -7.65 -3.15 -8.35 -2.7 Q-8.65 -2.7 -9.0 -2.7 L-9.2 -2.8 Q-9.95 -2.8 -10.7 -2.85 L-10.7 -2.85 Q-11.15 -2.7 -11.55 -3.05 L-11.55 -3.05;M-12.2 -0.2 Q-12.1 -1.15 -11.05 -1.6 L-10.85 -1.65 -10.75 -1.65 Q-10.35 -1.7 -10.3 -1.15 L-10.1 -1.15 -10.0 -1.15 -9.8 -1.1 -8.75 -1.25 -8.65 -1.3 -8.4 -1.65 -7.75 -1.95 Q-7.35 -1.9 -7.3 -1.55 L-7.3 -1.45 -7.4 -1.35 -8.35 -0.45 Q-8.7 -0.2 -9.15 -0.2 L-9.25 -0.1 Q-10.1 0.25 -11.0 -0.1 L-11.1 -0.2 Q-11.55 -0.15 -12.0 -0.1 L-12.2 -0.2"/>
    </path>
  </g>
</svg>
