<?xml version="1.0" encoding="UTF-8" standalone="no"?>
<svg xmlns:xlink="http://www.w3.org/1999/xlink" height="5.15px" width="4.35px" xmlns="http://www.w3.org/2000/svg">
  <g transform="matrix(1.0, 0.0, 0.0, 1.0, 1.5, -6.85)">
    <path d="M-1.45 8.7 L-1.45 8.7 -1.0 8.95 -0.8 8.9 Q-0.6 8.7 -0.4 8.55 L-0.05 8.5 -0.05 8.5 0.25 8.8 0.85 9.35 1.05 9.4 1.6 9.35 1.6 9.35 1.6 9.35 1.6 9.35 1.7 9.2 1.7 9.1 2.15 8.65 2.25 8.3 Q2.3 7.95 2.0 7.75 L1.75 7.6 Q1.3 7.8 0.9 7.95 L0.75 7.85 0.6 7.75 0.3 7.55 0.15 7.45 -0.15 7.25 -0.5 6.95 -0.6 6.85 -0.6 6.9 Q-0.95 6.9 -1.05 7.2 L-1.05 7.2 -1.05 7.5 -1.05 7.85 -1.25 8.05 -1.45 8.3 -1.45 8.7" fill="#000000" fill-rule="evenodd" stroke="none">
      <animate attributeName="fill" dur="2s" repeatCount="indefinite" values="#000000;#000001"/>
      <animate attributeName="fill-opacity" dur="2s" repeatCount="indefinite" values="1.0;1.0"/>
      <animate attributeName="d" dur="2s" repeatCount="indefinite" values="M-1.45 8.7 L-1.45 8.7 -1.0 8.95 -0.8 8.9 Q-0.6 8.7 -0.4 8.55 L-0.05 8.5 -0.05 8.5 0.25 8.8 0.85 9.35 1.05 9.4 1.6 9.35 1.6 9.35 1.6 9.35 1.6 9.35 1.7 9.2 1.7 9.1 2.15 8.65 2.25 8.3 Q2.3 7.95 2.0 7.75 L1.75 7.6 Q1.3 7.8 0.9 7.95 L0.75 7.85 0.6 7.75 0.3 7.55 0.15 7.45 -0.15 7.25 -0.5 6.95 -0.6 6.85 -0.6 6.9 Q-0.95 6.9 -1.05 7.2 L-1.05 7.2 -1.05 7.5 -1.05 7.85 -1.25 8.05 -1.45 8.3 -1.45 8.7;M-0.35 10.85 L-0.35 10.95 -0.3 11.55 -0.3 11.7 Q-0.05 12.0 0.2 11.95 L0.5 11.8 0.5 11.8 0.6 11.4 0.65 11.05 0.7 11.25 0.95 11.55 0.95 11.6 0.95 11.7 0.95 11.7 1.35 12.0 1.45 12.0 2.1 11.75 2.2 11.6 Q2.5 11.45 2.75 11.35 L2.8 11.2 Q2.9 10.65 2.65 10.5 L2.5 10.45 2.0 10.55 1.85 10.55 1.75 10.55 1.6 10.45 1.35 10.35 1.3 10.3 1.3 10.3 Q1.05 9.9 0.65 9.85 L0.65 9.9 0.45 10.0 0.2 10.0 -0.1 10.15 -0.3 10.4 -0.35 10.85"/>
    </path>
    <path d="M-1.45 8.7 L-1.45 8.3 -1.25 8.05 -1.05 7.85 -1.05 7.5 -1.05 7.2 -1.05 7.2 Q-0.95 6.9 -0.6 6.9 L-0.6 6.85 -0.5 6.95 -0.15 7.25 0.15 7.45 0.3 7.55 0.6 7.75 0.75 7.85 0.9 7.95 Q1.3 7.8 1.75 7.6 L2.0 7.75 Q2.3 7.95 2.25 8.3 L2.15 8.65 1.7 9.1 1.7 9.2 1.6 9.35 1.6 9.35 1.6 9.35 1.6 9.35 1.05 9.4 0.85 9.35 0.25 8.8 -0.05 8.5 -0.05 8.5 -0.4 8.55 Q-0.6 8.7 -0.8 8.9 L-1.0 8.95 -1.45 8.7 -1.45 8.7" fill="none" stroke="#000000" stroke-linecap="round" stroke-linejoin="round" stroke-opacity="0.0" stroke-width="1.0">
      <animate attributeName="stroke" dur="2s" repeatCount="indefinite" values="#000000;#000001"/>
      <animate attributeName="stroke-width" dur="2s" repeatCount="indefinite" values="0.0;0.0"/>
      <animate attributeName="fill-opacity" dur="2s" repeatCount="indefinite" values="0.0;0.0"/>
      <animate attributeName="d" dur="2s" repeatCount="indefinite" values="M-1.45 8.7 L-1.45 8.3 -1.25 8.05 -1.05 7.85 -1.05 7.5 -1.05 7.2 -1.05 7.2 Q-0.95 6.9 -0.6 6.9 L-0.6 6.85 -0.5 6.95 -0.15 7.25 0.15 7.45 0.3 7.55 0.6 7.75 0.75 7.85 0.9 7.95 Q1.3 7.8 1.75 7.6 L2.0 7.75 Q2.3 7.95 2.25 8.3 L2.15 8.65 1.7 9.1 1.7 9.2 1.6 9.35 1.6 9.35 1.6 9.35 1.6 9.35 1.05 9.4 0.85 9.35 0.25 8.8 -0.05 8.5 -0.05 8.5 -0.4 8.55 Q-0.6 8.7 -0.8 8.9 L-1.0 8.95 -1.45 8.7 -1.45 8.7;M-0.35 10.85 L-0.3 10.4 -0.1 10.15 0.2 10.0 0.45 10.0 0.65 9.9 0.65 9.85 Q1.05 9.9 1.3 10.3 L1.3 10.3 1.35 10.35 1.6 10.45 1.75 10.55 1.85 10.55 2.0 10.55 2.5 10.45 2.65 10.5 Q2.9 10.65 2.8 11.2 L2.75 11.35 Q2.5 11.45 2.2 11.6 L2.1 11.75 1.45 12.0 1.35 12.0 0.95 11.7 0.95 11.7 0.95 11.6 0.95 11.55 0.7 11.25 0.65 11.05 0.6 11.4 0.5 11.8 0.5 11.8 0.2 11.95 Q-0.05 12.0 -0.3 11.7 L-0.3 11.55 -0.35 10.95 -0.35 10.85"/>
    </path>
  </g>
</svg>
