<?xml version="1.0" encoding="UTF-8" standalone="no"?>
<svg xmlns:xlink="http://www.w3.org/1999/xlink" height="4.8px" width="4.55px" xmlns="http://www.w3.org/2000/svg">
  <g transform="matrix(1.0, 0.0, 0.0, 1.0, -4.9, -7.1)">
    <path d="M5.3 8.7 L6.25 8.8 6.55 8.95 7.2 8.85 Q7.9 9.45 8.65 9.1 9.0 8.8 9.35 8.55 L9.45 8.55 9.45 8.45 9.3 8.1 9.05 7.95 Q8.65 7.8 8.1 8.15 L8.1 8.05 Q7.85 7.4 7.1 7.75 L7.1 7.75 7.1 7.65 7.1 7.5 7.0 7.3 6.65 7.1 6.65 7.15 6.35 7.35 6.1 7.5 5.8 7.75 5.6 8.0 Q5.45 8.35 5.3 8.7" fill="#000000" fill-rule="evenodd" stroke="none">
      <animate attributeName="fill" dur="2s" repeatCount="indefinite" values="#000000;#000001"/>
      <animate attributeName="fill-opacity" dur="2s" repeatCount="indefinite" values="1.0;1.0"/>
      <animate attributeName="d" dur="2s" repeatCount="indefinite" values="M5.3 8.7 L6.25 8.8 6.55 8.95 7.2 8.85 Q7.9 9.45 8.65 9.1 9.0 8.8 9.35 8.55 L9.45 8.55 9.45 8.45 9.3 8.1 9.05 7.95 Q8.65 7.8 8.1 8.15 L8.1 8.05 Q7.85 7.4 7.1 7.75 L7.1 7.75 7.1 7.65 7.1 7.5 7.0 7.3 6.65 7.1 6.65 7.15 6.35 7.35 6.1 7.5 5.8 7.75 5.6 8.0 Q5.45 8.35 5.3 8.7;M4.95 11.7 L5.95 11.6 6.1 11.35 6.75 11.1 Q7.85 11.95 8.1 10.85 8.65 10.6 8.95 10.15 L8.95 10.05 8.95 9.95 8.85 9.7 8.5 9.55 Q7.9 9.8 7.35 10.05 L7.25 10.05 Q6.65 9.75 6.1 10.05 L6.0 10.05 6.0 10.05 5.85 9.95 5.65 9.85 5.35 10.05 5.35 10.05 5.2 10.2 5.2 10.5 5.2 10.85 5.05 11.05 Q4.85 11.35 4.95 11.7"/>
    </path>
    <path d="M5.3 8.7 Q5.45 8.35 5.6 8.0 L5.8 7.75 6.1 7.5 6.35 7.35 6.65 7.15 6.65 7.1 7.0 7.3 7.1 7.5 7.1 7.65 7.1 7.75 7.1 7.75 Q7.85 7.4 8.1 8.05 L8.1 8.15 Q8.65 7.8 9.05 7.95 L9.3 8.1 9.45 8.45 9.45 8.55 9.35 8.55 Q9.0 8.8 8.65 9.1 7.9 9.45 7.2 8.85 L6.55 8.95 6.25 8.8 5.3 8.7" fill="none" stroke="#000000" stroke-linecap="round" stroke-linejoin="round" stroke-opacity="0.0" stroke-width="1.0">
      <animate attributeName="stroke" dur="2s" repeatCount="indefinite" values="#000000;#000001"/>
      <animate attributeName="stroke-width" dur="2s" repeatCount="indefinite" values="0.0;0.0"/>
      <animate attributeName="fill-opacity" dur="2s" repeatCount="indefinite" values="0.0;0.0"/>
      <animate attributeName="d" dur="2s" repeatCount="indefinite" values="M5.3 8.7 Q5.45 8.35 5.6 8.0 L5.8 7.75 6.1 7.5 6.35 7.35 6.65 7.15 6.65 7.1 7.0 7.3 7.1 7.5 7.1 7.65 7.1 7.75 7.1 7.75 Q7.85 7.4 8.1 8.05 L8.1 8.15 Q8.65 7.8 9.05 7.95 L9.3 8.1 9.45 8.45 9.45 8.55 9.35 8.55 Q9.0 8.8 8.65 9.1 7.9 9.45 7.2 8.85 L6.55 8.95 6.25 8.8 5.3 8.7;M4.95 11.7 Q4.85 11.35 5.05 11.05 L5.2 10.85 5.2 10.5 5.2 10.2 5.35 10.05 5.35 10.05 5.65 9.85 5.85 9.95 6.0 10.05 6.0 10.05 6.1 10.05 Q6.65 9.75 7.25 10.05 L7.35 10.05 Q7.9 9.8 8.5 9.55 L8.85 9.7 8.95 9.95 8.95 10.05 8.95 10.15 Q8.65 10.6 8.1 10.85 7.85 11.95 6.75 11.1 L6.1 11.35 5.95 11.6 4.95 11.7"/>
    </path>
  </g>
</svg>
