<?xml version="1.0" encoding="UTF-8" standalone="no"?>
<svg xmlns:xlink="http://www.w3.org/1999/xlink" height="5.4px" width="3.9px" xmlns="http://www.w3.org/2000/svg">
  <g transform="matrix(1.0, 0.0, 0.0, 1.0, -6.0, 2.2)">
    <path d="M6.05 -0.9 L6.05 -0.8 6.05 -0.55 6.15 -0.45 6.5 -0.3 7.0 -0.5 7.05 -0.5 7.75 -0.45 7.8 -0.4 7.95 -0.15 8.5 0.25 9.0 0.1 9.2 -0.2 Q9.6 -0.7 9.5 -1.15 L9.45 -1.25 9.0 -1.7 8.8 -1.65 8.8 -1.65 8.7 -1.55 8.55 -1.45 8.55 -1.35 8.5 -1.3 8.45 -1.3 8.35 -1.4 8.2 -1.55 7.95 -1.65 7.6 -1.7 7.6 -1.8 Q7.5 -2.25 7.0 -2.2 L6.75 -2.1 6.55 -1.85 6.35 -1.4 6.25 -1.2 6.05 -0.9" fill="#000000" fill-rule="evenodd" stroke="none">
      <animate attributeName="fill" dur="2s" repeatCount="indefinite" values="#000000;#000001"/>
      <animate attributeName="fill-opacity" dur="2s" repeatCount="indefinite" values="1.0;1.0"/>
      <animate attributeName="d" dur="2s" repeatCount="indefinite" values="M6.05 -0.9 L6.05 -0.8 6.05 -0.55 6.15 -0.45 6.5 -0.3 7.0 -0.5 7.05 -0.5 7.75 -0.45 7.8 -0.4 7.95 -0.15 8.5 0.25 9.0 0.1 9.2 -0.2 Q9.6 -0.7 9.5 -1.15 L9.45 -1.25 9.0 -1.7 8.8 -1.65 8.8 -1.65 8.7 -1.55 8.55 -1.45 8.55 -1.35 8.5 -1.3 8.45 -1.3 8.35 -1.4 8.2 -1.55 7.95 -1.65 7.6 -1.7 7.6 -1.8 Q7.5 -2.25 7.0 -2.2 L6.75 -2.1 6.55 -1.85 6.35 -1.4 6.25 -1.2 6.05 -0.9;M7.3 2.95 L7.3 2.95 7.6 3.2 7.7 3.2 8.1 3.15 8.45 2.7 8.45 2.6 9.1 2.1 9.1 2.1 9.2 1.95 9.65 1.8 9.85 1.45 9.9 1.0 Q9.65 0.65 9.4 0.35 L9.25 0.4 8.95 0.65 8.9 0.85 8.85 0.85 8.75 0.95 8.65 1.05 8.65 1.15 8.55 1.15 8.55 1.15 8.5 1.15 8.35 1.1 8.15 1.05 8.0 1.25 7.9 1.25 Q7.6 1.45 7.55 1.75 L7.5 2.1 7.5 2.3 7.35 2.5 7.3 2.6 7.3 2.95"/>
    </path>
    <path d="M6.05 -0.9 L6.25 -1.2 6.35 -1.4 6.55 -1.85 6.75 -2.1 7.0 -2.2 Q7.5 -2.25 7.6 -1.8 L7.6 -1.7 7.95 -1.65 8.2 -1.55 8.35 -1.4 8.45 -1.3 8.5 -1.3 8.55 -1.35 8.55 -1.45 8.7 -1.55 8.8 -1.65 8.8 -1.65 9.0 -1.7 9.45 -1.25 9.5 -1.15 Q9.6 -0.7 9.2 -0.2 L9.0 0.1 8.5 0.25 7.95 -0.15 7.8 -0.4 7.75 -0.45 7.05 -0.5 7.0 -0.5 6.5 -0.3 6.15 -0.45 6.05 -0.55 6.05 -0.8 6.05 -0.9" fill="none" stroke="#000000" stroke-linecap="round" stroke-linejoin="round" stroke-opacity="0.0" stroke-width="1.0">
      <animate attributeName="stroke" dur="2s" repeatCount="indefinite" values="#000000;#000001"/>
      <animate attributeName="stroke-width" dur="2s" repeatCount="indefinite" values="0.0;0.0"/>
      <animate attributeName="fill-opacity" dur="2s" repeatCount="indefinite" values="0.0;0.0"/>
      <animate attributeName="d" dur="2s" repeatCount="indefinite" values="M6.05 -0.9 L6.25 -1.2 6.35 -1.4 6.55 -1.85 6.75 -2.1 7.0 -2.2 Q7.5 -2.25 7.6 -1.8 L7.6 -1.7 7.95 -1.65 8.2 -1.55 8.35 -1.4 8.45 -1.3 8.5 -1.3 8.55 -1.35 8.55 -1.45 8.7 -1.55 8.8 -1.65 8.8 -1.65 9.0 -1.7 9.45 -1.25 9.5 -1.15 Q9.6 -0.7 9.2 -0.2 L9.0 0.1 8.5 0.25 7.95 -0.15 7.8 -0.4 7.75 -0.45 7.05 -0.5 7.0 -0.5 6.5 -0.3 6.15 -0.45 6.05 -0.55 6.05 -0.8 6.05 -0.9;M7.3 2.95 L7.3 2.6 7.35 2.5 7.5 2.3 7.5 2.1 7.55 1.75 Q7.6 1.45 7.9 1.25 L8.0 1.25 8.15 1.05 8.35 1.1 8.5 1.15 8.55 1.15 8.55 1.15 8.65 1.15 8.65 1.05 8.75 0.95 8.85 0.85 8.9 0.85 8.95 0.65 9.25 0.4 9.4 0.35 Q9.65 0.65 9.9 1.0 L9.85 1.45 9.65 1.8 9.2 1.95 9.1 2.1 9.1 2.1 8.45 2.6 8.45 2.7 8.1 3.15 7.7 3.2 7.6 3.2 7.3 2.95 7.3 2.95"/>
    </path>
  </g>
</svg>
