<?xml version="1.0" encoding="UTF-8" standalone="no"?>
<svg xmlns:xlink="http://www.w3.org/1999/xlink" height="4.5px" width="4.05px" xmlns="http://www.w3.org/2000/svg">
  <g transform="matrix(1.0, 0.0, 0.0, 1.0, -4.9, -9.55)">
    <path d="M4.95 11.7 L5.05 11.8 5.25 11.9 5.35 11.9 Q5.7 11.7 6.0 11.5 L6.1 11.35 6.65 11.1 6.75 11.1 Q7.35 11.6 7.7 11.45 8.0 11.35 8.1 10.85 L8.5 10.6 8.95 10.05 8.95 9.95 Q8.9 9.6 8.5 9.55 7.85 9.8 7.25 10.05 L7.25 10.05 7.15 10.05 Q6.55 9.75 6.0 10.05 L5.85 9.95 5.75 9.85 5.65 9.85 Q5.4 9.9 5.3 10.1 L5.2 10.2 5.2 10.5 5.2 10.85 5.05 11.05 4.95 11.25 4.95 11.7" fill="#000000" fill-rule="evenodd" stroke="none">
      <animate attributeName="fill" dur="2s" repeatCount="indefinite" values="#000000;#000001"/>
      <animate attributeName="fill-opacity" dur="2s" repeatCount="indefinite" values="1.0;1.0"/>
      <animate attributeName="d" dur="2s" repeatCount="indefinite" values="M4.95 11.7 L5.05 11.8 5.25 11.9 5.35 11.9 Q5.7 11.7 6.0 11.5 L6.1 11.35 6.65 11.1 6.75 11.1 Q7.35 11.6 7.7 11.45 8.0 11.35 8.1 10.85 L8.5 10.6 8.95 10.05 8.95 9.95 Q8.9 9.6 8.5 9.55 7.85 9.8 7.25 10.05 L7.25 10.05 7.15 10.05 Q6.55 9.75 6.0 10.05 L5.85 9.95 5.75 9.85 5.65 9.85 Q5.4 9.9 5.3 10.1 L5.2 10.2 5.2 10.5 5.2 10.85 5.05 11.05 4.95 11.25 4.95 11.7;M4.9 13.55 L4.9 13.55 4.95 13.8 5.05 13.9 Q5.5 14.25 5.8 13.8 L5.9 13.9 6.25 14.0 6.35 14.0 Q6.8 13.85 7.2 13.7 7.45 13.6 7.65 13.5 L7.95 13.4 8.15 13.1 8.1 13.0 Q7.95 12.75 7.8 12.55 7.45 12.35 6.8 12.55 L6.7 12.55 6.7 12.5 Q6.8 11.9 6.3 11.8 L6.1 11.8 6.0 11.8 6.0 11.8 Q5.75 11.8 5.6 12.05 L5.4 12.35 5.3 12.55 5.2 12.75 5.05 12.95 4.95 13.15 4.9 13.55"/>
    </path>
    <path d="M4.95 11.7 L4.95 11.25 5.05 11.05 5.2 10.85 5.2 10.5 5.2 10.2 5.3 10.1 Q5.4 9.9 5.65 9.85 L5.75 9.85 5.85 9.95 6.0 10.05 Q6.55 9.75 7.15 10.05 L7.25 10.05 7.25 10.05 Q7.85 9.8 8.5 9.55 8.9 9.6 8.95 9.95 L8.95 10.05 8.5 10.6 8.1 10.85 Q8.0 11.35 7.7 11.45 7.35 11.6 6.75 11.1 L6.65 11.1 6.1 11.35 6.0 11.5 Q5.7 11.7 5.35 11.9 L5.25 11.9 5.05 11.8 4.95 11.7" fill="none" stroke="#000000" stroke-linecap="round" stroke-linejoin="round" stroke-opacity="0.0" stroke-width="1.0">
      <animate attributeName="stroke" dur="2s" repeatCount="indefinite" values="#000000;#000001"/>
      <animate attributeName="stroke-width" dur="2s" repeatCount="indefinite" values="0.0;0.0"/>
      <animate attributeName="fill-opacity" dur="2s" repeatCount="indefinite" values="0.0;0.0"/>
      <animate attributeName="d" dur="2s" repeatCount="indefinite" values="M4.95 11.7 L4.95 11.25 5.05 11.05 5.2 10.85 5.2 10.5 5.2 10.2 5.3 10.1 Q5.4 9.9 5.65 9.85 L5.75 9.85 5.85 9.95 6.0 10.05 Q6.55 9.75 7.15 10.05 L7.25 10.05 7.25 10.05 Q7.85 9.8 8.5 9.55 8.9 9.6 8.95 9.95 L8.95 10.05 8.5 10.6 8.1 10.85 Q8.0 11.35 7.7 11.45 7.35 11.6 6.75 11.1 L6.65 11.1 6.1 11.35 6.0 11.5 Q5.7 11.7 5.35 11.9 L5.25 11.9 5.05 11.8 4.95 11.7;M4.9 13.55 L4.95 13.15 5.05 12.95 5.2 12.75 5.3 12.55 5.4 12.35 5.6 12.05 Q5.75 11.8 6.0 11.8 L6.0 11.8 6.1 11.8 6.3 11.8 Q6.8 11.9 6.7 12.5 L6.7 12.55 6.8 12.55 Q7.45 12.35 7.8 12.55 7.95 12.75 8.1 13.0 L8.15 13.1 7.95 13.4 7.65 13.5 Q7.45 13.6 7.2 13.7 6.8 13.85 6.35 14.0 L6.25 14.0 5.9 13.9 5.8 13.8 Q5.5 14.25 5.05 13.9 L4.95 13.8 4.9 13.55 4.9 13.55"/>
    </path>
  </g>
</svg>
