<?xml version="1.0" encoding="UTF-8" standalone="no"?>
<svg xmlns:xlink="http://www.w3.org/1999/xlink" height="32.2px" width="30.45px" xmlns="http://www.w3.org/2000/svg">
  <g transform="matrix(1.0, 0.0, 0.0, 1.0, 14.35, 5.1)">
    <path d="M-14.35 0.7 L-14.35 0.9 -14.25 1.95 -14.25 2.3 -14.2 2.4 -14.2 2.4 -13.7 3.2 Q-12.6 4.8 -10.95 5.85 L-10.5 6.1 Q-9.5 6.45 -8.75 7.05 L-8.45 7.35 Q-7.9 8.05 -7.35 8.7 L-6.65 9.4 Q-6.25 9.9 -6.0 10.5 L-5.9 10.6 -5.85 10.8 -5.8 11.1 -5.85 13.0 -6.0 14.05 -6.05 14.25 -6.25 14.95 -6.25 14.95 -6.25 14.95 -6.3 15.15 -6.5 15.35 Q-7.1 16.15 -7.2 17.15 L-7.1 18.05 -6.9 19.1 -6.8 19.8 -6.75 19.8 -6.6 19.8 -6.55 19.7 -6.45 19.6 -6.4 19.5 -6.35 19.4 -6.05 18.9 -5.9 18.75 -5.9 18.65 -5.8 18.1 -5.65 17.7 -5.4 17.25 -5.25 16.9 -4.7 16.1 Q-4.25 15.75 -3.55 15.75 L-2.7 15.9 Q-2.25 16.05 -2.2 16.55 L-2.25 17.8 Q-2.45 18.75 -3.1 19.5 L-3.55 19.95 -3.65 20.55 -3.75 21.45 Q-3.85 22.15 -3.95 22.85 -3.9 23.65 -3.85 24.4 L-3.7 24.85 -3.65 24.95 -3.2 25.55 Q-2.65 26.05 -2.1 26.5 L-1.7 26.9 Q-1.75 26.2 -2.2 25.4 L-2.3 25.2 Q-2.4 24.85 -2.45 24.55 L-2.45 24.45 -2.45 23.25 -2.3 22.35 -2.1 21.45 -1.75 20.7 -1.75 20.7 Q-1.15 19.55 0.15 19.75 L0.45 19.85 Q1.55 20.2 1.25 21.4 0.95 22.55 0.25 23.55 L0.15 23.75 Q0.1 24.1 0.05 24.4 L0.05 24.4 Q0.35 25.85 1.65 26.75 L1.9 27.1 2.25 26.1 2.05 25.1 Q1.9 24.65 2.15 24.25 L2.7 23.65 4.05 23.45 4.4 23.6 4.85 24.0 5.15 24.55 5.15 24.5 5.4 23.5 5.4 23.05 5.35 22.35 Q4.65 21.2 4.75 19.75 L4.75 19.45 4.8 19.0 5.1 18.2 Q5.85 16.55 7.6 17.2 L7.7 16.75 7.5 16.25 7.45 15.9 7.35 15.85 6.8 15.5 6.1 14.4 6.1 14.3 5.85 13.95 Q5.25 13.05 5.6 11.9 5.85 11.1 6.75 11.25 7.15 11.35 7.5 11.6 L8.2 12.25 8.3 12.35 8.8 12.7 8.9 12.55 8.85 11.85 8.85 11.4 8.85 11.3 Q8.65 10.8 8.45 10.35 8.3 9.5 9.0 8.65 L9.05 8.6 9.1 8.35 9.5 7.65 10.35 7.0 10.55 6.85 Q11.3 6.4 12.15 6.1 L12.8 5.9 12.9 5.9 13.2 5.8 13.4 5.7 13.4 5.6 13.4 5.6 Q13.95 5.1 14.45 4.6 L15.1 3.55 15.1 3.45 15.55 2.3 15.75 1.6 Q15.85 1.15 16.1 0.85 L16.1 0.75 16.05 0.15 16.0 0.0 15.75 -0.75 15.75 -0.85 15.65 -1.2 15.55 -1.3 14.4 -2.55 13.6 -3.45 13.4 -3.6 12.95 -3.9 11.85 -4.4 10.3 -4.85 8.75 -5.05 7.95 -5.05 Q6.5 -5.1 5.05 -5.1 -1.1 -5.2 -7.25 -4.8 L-7.35 -4.8 Q-10.05 -4.65 -11.95 -3.15 -13.05 -2.3 -13.85 -1.05 L-14.1 -0.6 -14.3 -0.3 -14.3 -0.2 -14.35 0.7" fill="url(#gradient0)" fill-rule="evenodd" stroke="none">
      <animate attributeName="d" dur="2s" repeatCount="indefinite" values="M-14.35 0.7 L-14.35 0.9 -14.25 1.95 -14.25 2.3 -14.2 2.4 -14.2 2.4 -13.7 3.2 Q-12.6 4.8 -10.95 5.85 L-10.5 6.1 Q-9.5 6.45 -8.75 7.05 L-8.45 7.35 Q-7.9 8.05 -7.35 8.7 L-6.65 9.4 Q-6.25 9.9 -6.0 10.5 L-5.9 10.6 -5.85 10.8 -5.8 11.1 -5.85 13.0 -6.0 14.05 -6.05 14.25 -6.25 14.95 -6.25 14.95 -6.25 14.95 -6.3 15.15 -6.5 15.35 Q-7.1 16.15 -7.2 17.15 L-7.1 18.05 -6.9 19.1 -6.8 19.8 -6.75 19.8 -6.6 19.8 -6.55 19.7 -6.45 19.6 -6.4 19.5 -6.35 19.4 -6.05 18.9 -5.9 18.75 -5.9 18.65 -5.8 18.1 -5.65 17.7 -5.4 17.25 -5.25 16.9 -4.7 16.1 Q-4.25 15.75 -3.55 15.75 L-2.7 15.9 Q-2.25 16.05 -2.2 16.55 L-2.25 17.8 Q-2.45 18.75 -3.1 19.5 L-3.55 19.95 -3.65 20.55 -3.75 21.45 Q-3.85 22.15 -3.95 22.85 -3.9 23.65 -3.85 24.4 L-3.7 24.85 -3.65 24.95 -3.2 25.55 Q-2.65 26.05 -2.1 26.5 L-1.7 26.9 Q-1.75 26.2 -2.2 25.4 L-2.3 25.2 Q-2.4 24.85 -2.45 24.55 L-2.45 24.45 -2.45 23.25 -2.3 22.35 -2.1 21.45 -1.75 20.7 -1.75 20.7 Q-1.15 19.55 0.15 19.75 L0.45 19.85 Q1.55 20.2 1.25 21.4 0.95 22.55 0.25 23.55 L0.15 23.75 Q0.1 24.1 0.05 24.4 L0.05 24.4 Q0.35 25.85 1.65 26.75 L1.9 27.1 2.25 26.1 2.05 25.1 Q1.9 24.65 2.15 24.25 L2.7 23.65 4.05 23.45 4.4 23.6 4.85 24.0 5.15 24.55 5.15 24.5 5.4 23.5 5.4 23.05 5.35 22.35 Q4.65 21.2 4.75 19.75 L4.75 19.45 4.8 19.0 5.1 18.2 Q5.85 16.55 7.6 17.2 L7.7 16.75 7.5 16.25 7.45 15.9 7.35 15.85 6.8 15.5 6.1 14.4 6.1 14.3 5.85 13.95 Q5.25 13.05 5.6 11.9 5.85 11.1 6.75 11.25 7.15 11.35 7.5 11.6 L8.2 12.25 8.3 12.35 8.8 12.7 8.9 12.55 8.85 11.85 8.85 11.4 8.85 11.3 Q8.65 10.8 8.45 10.35 8.3 9.5 9.0 8.65 L9.05 8.6 9.1 8.35 9.5 7.65 10.35 7.0 10.55 6.85 Q11.3 6.4 12.15 6.1 L12.8 5.9 12.9 5.9 13.2 5.8 13.4 5.7 13.4 5.6 13.4 5.6 Q13.95 5.1 14.45 4.6 L15.1 3.55 15.1 3.45 15.55 2.3 15.75 1.6 Q15.85 1.15 16.1 0.85 L16.1 0.75 16.05 0.15 16.0 0.0 15.75 -0.75 15.75 -0.85 15.65 -1.2 15.55 -1.3 14.4 -2.55 13.6 -3.45 13.4 -3.6 12.95 -3.9 11.85 -4.4 10.3 -4.85 8.75 -5.05 7.95 -5.05 Q6.5 -5.1 5.05 -5.1 -1.1 -5.2 -7.25 -4.8 L-7.35 -4.8 Q-10.05 -4.65 -11.95 -3.15 -13.05 -2.3 -13.85 -1.05 L-14.1 -0.6 -14.3 -0.3 -14.3 -0.2 -14.35 0.7;M-10.95 2.45 L-10.95 2.45 -10.9 3.5 -10.85 3.7 -10.85 3.8 -10.85 3.8 -10.65 4.3 Q-9.45 5.75 -8.3 7.15 L-8.05 7.35 Q-7.4 7.9 -6.8 8.4 L-6.5 8.8 Q-6.05 9.55 -5.95 10.4 L-5.95 11.25 Q-6.1 11.8 -6.2 12.35 L-6.2 12.5 -6.3 12.6 -6.35 12.9 -6.6 14.35 -7.05 15.3 -7.1 15.4 -7.3 15.85 -7.35 15.95 -7.35 15.95 -7.35 16.2 -7.15 16.1 Q-6.55 15.75 -5.95 15.4 L-5.3 15.1 -4.3 15.2 -3.8 15.85 -3.8 15.85 -3.7 15.95 -3.7 16.05 -3.7 16.15 -3.7 16.25 -3.7 16.35 -3.7 16.85 -3.75 17.05 -3.75 17.15 -4.0 17.65 -4.15 17.95 -4.6 18.3 -4.9 18.45 -5.65 19.1 Q-6.0 19.65 -6.3 20.15 L-5.4 19.95 Q-5.05 20.0 -4.7 20.0 L-3.65 20.35 Q-2.9 20.75 -2.95 21.65 L-3.1 22.3 -3.3 22.75 -3.85 23.3 Q-4.55 23.8 -4.6 24.35 -4.6 24.8 -4.2 25.3 L-4.0 25.65 -3.95 25.55 -3.7 25.1 Q-3.35 24.65 -2.75 24.5 L-2.4 24.4 Q-1.65 24.3 -1.0 24.65 L-0.9 24.75 Q-0.55 25.0 -0.45 25.4 L-0.4 25.6 -0.3 26.55 0.4 27.1 0.35 26.45 0.35 25.8 0.35 25.7 Q0.35 24.75 0.35 23.85 L0.25 23.75 Q-0.25 23.0 -0.7 22.3 -1.0 21.4 -0.65 20.4 L-0.55 20.25 Q-0.4 19.95 -0.1 20.0 L-0.1 20.0 Q1.3 20.05 2.15 20.95 L2.35 21.2 2.75 21.85 3.05 22.6 Q3.15 22.9 3.2 23.2 L3.25 23.9 3.8 22.65 3.8 22.45 3.8 22.1 3.85 21.6 3.85 21.5 3.85 20.6 3.7 20.4 3.35 19.8 Q2.85 18.75 3.55 17.65 L3.65 17.55 3.9 17.45 4.7 17.5 Q6.0 17.7 6.65 18.8 L6.85 19.1 7.0 19.45 7.1 19.15 7.1 19.05 7.3 18.25 7.1 17.2 7.05 17.1 6.75 16.7 Q6.15 16.0 5.6 15.3 5.4 14.75 5.2 14.25 5.1 13.9 5.05 13.55 L5.05 12.95 5.05 12.85 5.15 12.45 5.15 12.25 5.35 11.65 5.55 11.25 5.55 11.15 Q5.9 10.75 6.4 10.7 7.45 10.55 8.0 11.0 L8.1 11.0 8.25 11.1 8.6 11.5 8.9 12.2 8.95 12.4 Q9.3 11.6 9.65 10.8 L9.45 10.15 9.45 10.15 9.2 9.9 9.05 9.7 9.0 9.6 8.95 9.55 Q8.25 9.15 7.95 8.45 L7.55 7.35 7.55 7.35 7.55 6.4 7.8 5.75 Q8.05 5.5 8.25 5.3 L8.35 5.2 8.8 4.9 8.9 4.9 9.4 4.45 9.4 4.45 9.6 4.35 9.6 4.25 10.15 3.1 10.25 2.35 10.25 2.15 10.2 1.65 10.1 0.7 8.95 -0.35 7.9 -1.15 7.3 -1.6 Q6.25 -2.3 4.95 -2.35 -0.25 -2.3 -5.4 -2.3 L-5.5 -2.3 Q-7.65 -2.2 -9.15 -0.75 -9.85 0.15 -10.55 1.0 L-10.75 1.3 -10.85 1.6 -10.85 1.7 -10.95 2.45"/>
    </path>
    <path d="M-14.35 0.7 L-14.3 -0.2 -14.3 -0.3 -14.1 -0.6 -13.85 -1.05 Q-13.05 -2.3 -11.95 -3.15 -10.05 -4.65 -7.35 -4.8 L-7.25 -4.8 Q-1.1 -5.2 5.05 -5.1 6.5 -5.1 7.95 -5.05 L8.75 -5.05 10.3 -4.85 11.85 -4.4 12.95 -3.9 13.4 -3.6 13.6 -3.45 14.4 -2.55 15.55 -1.3 15.65 -1.2 15.75 -0.85 15.75 -0.75 16.0 0.0 16.05 0.15 16.1 0.75 16.1 0.85 Q15.85 1.15 15.75 1.6 L15.55 2.3 15.1 3.45 15.1 3.55 14.45 4.6 Q13.95 5.1 13.4 5.6 L13.4 5.6 13.4 5.7 13.2 5.8 12.9 5.9 12.8 5.9 12.15 6.1 Q11.3 6.4 10.55 6.85 L10.35 7.0 9.5 7.65 9.1 8.35 9.05 8.6 9.0 8.65 Q8.3 9.5 8.45 10.35 8.65 10.8 8.85 11.3 L8.85 11.4 8.85 11.85 8.9 12.55 8.8 12.7 8.3 12.35 8.2 12.25 7.5 11.6 Q7.15 11.35 6.75 11.25 5.85 11.1 5.6 11.9 5.25 13.05 5.85 13.95 L6.1 14.3 6.1 14.4 6.8 15.5 7.35 15.85 7.45 15.9 7.5 16.25 7.7 16.75 7.6 17.2 Q5.85 16.55 5.1 18.2 L4.8 19.0 4.75 19.45 4.75 19.75 Q4.65 21.2 5.35 22.35 L5.4 23.05 5.4 23.5 5.15 24.5 5.15 24.55 4.85 24.0 4.4 23.6 4.05 23.45 2.7 23.65 2.15 24.25 Q1.9 24.65 2.05 25.1 L2.25 26.1 1.9 27.1 1.65 26.75 Q0.35 25.85 0.05 24.4 L0.05 24.4 Q0.1 24.1 0.15 23.75 L0.25 23.55 Q0.95 22.55 1.25 21.4 1.55 20.2 0.45 19.85 L0.15 19.75 Q-1.15 19.55 -1.75 20.7 L-1.75 20.7 -2.1 21.45 -2.3 22.35 -2.45 23.25 -2.45 24.45 -2.45 24.55 Q-2.4 24.85 -2.3 25.2 L-2.2 25.4 Q-1.75 26.2 -1.7 26.9 L-2.1 26.5 Q-2.65 26.05 -3.2 25.55 L-3.65 24.95 -3.7 24.85 -3.85 24.4 Q-3.9 23.65 -3.95 22.85 -3.85 22.15 -3.75 21.45 L-3.65 20.55 -3.55 19.95 -3.1 19.5 Q-2.45 18.75 -2.25 17.8 L-2.2 16.55 Q-2.25 16.05 -2.7 15.9 L-3.55 15.75 Q-4.25 15.75 -4.7 16.1 L-5.25 16.9 -5.4 17.25 -5.65 17.7 -5.8 18.1 -5.9 18.65 -5.9 18.75 -6.05 18.9 -6.35 19.4 -6.4 19.5 -6.45 19.6 -6.55 19.7 -6.6 19.8 -6.75 19.8 -6.8 19.8 -6.9 19.1 -7.1 18.05 -7.2 17.15 Q-7.1 16.15 -6.5 15.35 L-6.3 15.15 -6.25 14.95 -6.25 14.95 -6.25 14.95 -6.05 14.25 -6.0 14.05 -5.85 13.0 -5.8 11.1 -5.85 10.8 -5.9 10.6 -6.0 10.5 Q-6.25 9.9 -6.65 9.4 L-7.35 8.7 Q-7.9 8.05 -8.45 7.35 L-8.75 7.05 Q-9.5 6.45 -10.5 6.1 L-10.95 5.85 Q-12.6 4.8 -13.7 3.2 L-14.2 2.4 -14.2 2.4 -14.25 2.3 -14.25 1.95 -14.35 0.9 -14.35 0.7" fill="none" stroke="#000000" stroke-linecap="round" stroke-linejoin="round" stroke-opacity="0.0" stroke-width="1.0">
      <animate attributeName="stroke" dur="2s" repeatCount="indefinite" values="#000000;#000001"/>
      <animate attributeName="stroke-width" dur="2s" repeatCount="indefinite" values="0.0;0.0"/>
      <animate attributeName="fill-opacity" dur="2s" repeatCount="indefinite" values="0.0;0.0"/>
      <animate attributeName="d" dur="2s" repeatCount="indefinite" values="M-14.35 0.7 L-14.3 -0.2 -14.3 -0.3 -14.1 -0.6 -13.85 -1.05 Q-13.05 -2.3 -11.95 -3.15 -10.05 -4.65 -7.35 -4.8 L-7.25 -4.8 Q-1.1 -5.2 5.05 -5.1 6.5 -5.1 7.95 -5.05 L8.75 -5.05 10.3 -4.85 11.85 -4.4 12.95 -3.9 13.4 -3.6 13.6 -3.45 14.4 -2.55 15.55 -1.3 15.65 -1.2 15.75 -0.85 15.75 -0.75 16.0 0.0 16.05 0.15 16.1 0.75 16.1 0.85 Q15.85 1.15 15.75 1.6 L15.55 2.3 15.1 3.45 15.1 3.55 14.45 4.6 Q13.95 5.1 13.4 5.6 L13.4 5.6 13.4 5.7 13.2 5.8 12.9 5.9 12.8 5.9 12.15 6.1 Q11.3 6.4 10.55 6.85 L10.35 7.0 9.5 7.65 9.1 8.35 9.05 8.6 9.0 8.65 Q8.3 9.5 8.45 10.35 8.65 10.8 8.85 11.3 L8.85 11.4 8.85 11.85 8.9 12.55 8.8 12.7 8.3 12.35 8.2 12.25 7.5 11.6 Q7.15 11.35 6.75 11.25 5.85 11.1 5.6 11.9 5.25 13.05 5.85 13.95 L6.1 14.3 6.1 14.4 6.8 15.5 7.35 15.85 7.45 15.9 7.5 16.25 7.7 16.75 7.6 17.2 Q5.85 16.55 5.1 18.2 L4.8 19.0 4.75 19.45 4.75 19.75 Q4.65 21.2 5.35 22.35 L5.4 23.05 5.4 23.5 5.15 24.5 5.15 24.55 4.85 24.0 4.4 23.6 4.05 23.45 2.7 23.65 2.15 24.25 Q1.9 24.65 2.05 25.1 L2.25 26.1 1.9 27.1 1.65 26.75 Q0.35 25.85 0.05 24.4 L0.05 24.4 Q0.1 24.1 0.15 23.75 L0.25 23.55 Q0.95 22.55 1.25 21.4 1.55 20.2 0.45 19.85 L0.15 19.75 Q-1.15 19.55 -1.75 20.7 L-1.75 20.7 -2.1 21.45 -2.3 22.35 -2.45 23.25 -2.45 24.45 -2.45 24.55 Q-2.4 24.85 -2.3 25.2 L-2.2 25.4 Q-1.75 26.2 -1.7 26.9 L-2.1 26.5 Q-2.65 26.05 -3.2 25.55 L-3.65 24.95 -3.7 24.85 -3.85 24.4 Q-3.9 23.65 -3.95 22.85 -3.85 22.15 -3.75 21.45 L-3.65 20.55 -3.55 19.95 -3.1 19.5 Q-2.45 18.75 -2.25 17.8 L-2.2 16.55 Q-2.25 16.05 -2.7 15.9 L-3.55 15.75 Q-4.25 15.75 -4.7 16.1 L-5.25 16.9 -5.4 17.25 -5.65 17.7 -5.8 18.1 -5.9 18.65 -5.9 18.75 -6.05 18.9 -6.35 19.4 -6.4 19.5 -6.45 19.6 -6.55 19.7 -6.6 19.8 -6.75 19.8 -6.8 19.8 -6.9 19.1 -7.1 18.05 -7.2 17.15 Q-7.1 16.15 -6.5 15.35 L-6.3 15.15 -6.25 14.95 -6.25 14.95 -6.25 14.95 -6.05 14.25 -6.0 14.05 -5.85 13.0 -5.8 11.1 -5.85 10.8 -5.9 10.6 -6.0 10.5 Q-6.25 9.9 -6.65 9.4 L-7.35 8.7 Q-7.9 8.05 -8.45 7.35 L-8.75 7.05 Q-9.5 6.45 -10.5 6.1 L-10.95 5.85 Q-12.6 4.8 -13.7 3.2 L-14.2 2.4 -14.2 2.4 -14.25 2.3 -14.25 1.95 -14.35 0.9 -14.35 0.7;M-10.95 2.45 L-10.85 1.7 -10.85 1.6 -10.75 1.3 -10.55 1.0 Q-9.85 0.15 -9.15 -0.75 -7.65 -2.2 -5.5 -2.3 L-5.4 -2.3 Q-0.25 -2.3 4.95 -2.35 6.25 -2.3 7.3 -1.6 L7.9 -1.15 8.95 -0.35 10.1 0.7 10.2 1.65 10.25 2.15 10.25 2.35 10.15 3.1 9.6 4.25 9.6 4.35 9.4 4.45 9.4 4.45 8.9 4.9 8.8 4.9 8.35 5.2 8.25 5.3 Q8.05 5.5 7.8 5.75 L7.55 6.4 7.55 7.35 7.55 7.35 7.95 8.45 Q8.25 9.15 8.95 9.55 L9.0 9.6 9.05 9.7 9.2 9.9 9.45 10.15 9.45 10.15 9.65 10.8 Q9.3 11.6 8.95 12.4 L8.9 12.2 8.6 11.5 8.25 11.1 8.1 11.0 8.0 11.0 Q7.45 10.55 6.4 10.7 5.9 10.75 5.55 11.15 L5.55 11.25 5.35 11.65 5.15 12.25 5.15 12.45 5.05 12.85 5.05 12.95 5.05 13.55 Q5.1 13.9 5.2 14.25 5.4 14.75 5.6 15.3 6.15 16.0 6.75 16.7 L7.05 17.1 7.1 17.2 7.3 18.25 7.1 19.05 7.1 19.15 7.0 19.45 6.85 19.1 6.65 18.8 Q6.0 17.7 4.7 17.5 L3.9 17.45 3.65 17.55 3.55 17.65 Q2.85 18.75 3.35 19.8 L3.7 20.4 3.85 20.6 3.85 21.5 3.85 21.6 3.8 22.1 3.8 22.45 3.8 22.65 3.25 23.9 3.2 23.2 Q3.15 22.9 3.05 22.6 L2.75 21.85 2.35 21.2 2.15 20.95 Q1.3 20.05 -0.1 20.0 L-0.1 20.0 Q-0.4 19.95 -0.55 20.25 L-0.65 20.4 Q-1.0 21.4 -0.7 22.3 -0.25 23.0 0.25 23.75 L0.35 23.85 Q0.35 24.75 0.35 25.7 L0.35 25.8 0.35 26.45 0.4 27.1 -0.3 26.55 -0.4 25.6 -0.45 25.4 Q-0.55 25.0 -0.9 24.75 L-1.0 24.65 Q-1.65 24.3 -2.4 24.4 L-2.75 24.5 Q-3.35 24.65 -3.7 25.1 L-3.95 25.55 -4.0 25.65 -4.2 25.3 Q-4.6 24.8 -4.6 24.35 -4.55 23.8 -3.85 23.3 L-3.3 22.75 -3.1 22.3 -2.95 21.65 Q-2.9 20.75 -3.65 20.35 L-4.7 20.0 Q-5.05 20.0 -5.4 19.95 L-6.3 20.15 Q-6.0 19.65 -5.65 19.1 L-4.9 18.45 -4.6 18.3 -4.15 17.95 -4.0 17.65 -3.75 17.15 -3.75 17.05 -3.7 16.85 -3.7 16.35 -3.7 16.25 -3.7 16.15 -3.7 16.05 -3.7 15.95 -3.8 15.85 -3.8 15.85 -4.3 15.2 -5.3 15.1 -5.95 15.4 Q-6.55 15.75 -7.15 16.1 L-7.35 16.2 -7.35 15.95 -7.35 15.95 -7.3 15.85 -7.1 15.4 -7.05 15.3 -6.6 14.35 -6.35 12.9 -6.3 12.6 -6.2 12.5 -6.2 12.35 Q-6.1 11.8 -5.95 11.25 L-5.95 10.4 Q-6.05 9.55 -6.5 8.8 L-6.8 8.4 Q-7.4 7.9 -8.05 7.35 L-8.3 7.15 Q-9.45 5.75 -10.65 4.3 L-10.85 3.8 -10.85 3.8 -10.85 3.7 -10.9 3.5 -10.95 2.45 -10.95 2.45"/>
    </path>
  </g>
  <defs>
    <radialGradient cx="0" cy="0" gradientTransform="matrix(0.0351, 0.0, 0.0, 0.0351, 1.0, -0.75)" gradientUnits="userSpaceOnUse" id="gradient0" r="819.2" spreadMethod="pad">
      <animateTransform additive="replace" attributeName="gradientTransform" dur="2s" from="1" repeatCount="indefinite" to="1" type="scale"/>
      <animateTransform additive="sum" attributeName="gradientTransform" dur="2s" from="1.0 -0.75" repeatCount="indefinite" to="1.0 -0.75" type="translate"/>
      <animateTransform additive="sum" attributeName="gradientTransform" dur="2s" from="0.0" repeatCount="indefinite" to="0.0" type="rotate"/>
      <animateTransform additive="sum" attributeName="gradientTransform" dur="2s" from="0.0351 0.0351" repeatCount="indefinite" to="0.0351 0.0351" type="scale"/>
      <animateTransform additive="sum" attributeName="gradientTransform" dur="2s" from="0.0" repeatCount="indefinite" to="0.0" type="skewX"/>
      <stop offset="0.0" stop-color="#fefe0c" stop-opacity="0.9019608">
        <animate attributeName="offset" dur="2s" repeatCount="indefinite" values="0.0;0.0"/>
        <animate attributeName="stop-color" dur="2s" repeatCount="indefinite" values="#fefe0c;#fefe0d"/>
        <animate attributeName="stop-opacity" dur="2s" repeatCount="indefinite" values="0.9019608;0.9019608"/>
      </stop>
      <stop offset="0.5764705882352941" stop-color="#ffba2b" stop-opacity="0.9019608">
        <animate attributeName="offset" dur="2s" repeatCount="indefinite" values="0.5764705882352941;0.5764705882352941"/>
        <animate attributeName="stop-color" dur="2s" repeatCount="indefinite" values="#ffba2b;#ffba2c"/>
        <animate attributeName="stop-opacity" dur="2s" repeatCount="indefinite" values="0.9019608;0.9019608"/>
      </stop>
      <stop offset="1.0" stop-color="#ff720b" stop-opacity="0.9019608">
        <animate attributeName="offset" dur="2s" repeatCount="indefinite" values="1.0;1.0"/>
        <animate attributeName="stop-color" dur="2s" repeatCount="indefinite" values="#ff720b;#ff720c"/>
        <animate attributeName="stop-opacity" dur="2s" repeatCount="indefinite" values="0.9019608;0.9019608"/>
      </stop>
    </radialGradient>
  </defs>
</svg>
