<?xml version="1.0" encoding="UTF-8" standalone="no"?>
<svg xmlns:xlink="http://www.w3.org/1999/xlink" height="30.15px" width="14.6px" xmlns="http://www.w3.org/2000/svg">
  <g transform="matrix(1.0, 0.0, 0.0, 1.0, 6.3, 7.15)">
    <path d="M-6.25 4.5 L-6.25 4.7 -5.7 6.15 -5.7 6.25 -5.7 6.35 -5.55 6.55 -5.45 6.75 -5.25 7.05 -5.05 7.4 Q-4.6 8.15 -4.2 8.85 L-3.85 9.1 -3.55 9.35 -3.15 9.85 Q-2.7 10.4 -2.75 11.2 L-2.9 11.95 Q-3.25 12.95 -4.1 13.7 L-4.2 13.8 -4.55 14.05 -4.55 14.05 -4.8 14.3 Q-4.9 14.5 -4.95 14.65 L-5.0 15.0 -4.5 15.0 -4.5 15.0 Q-3.65 14.65 -2.95 14.0 L-2.55 13.55 -2.25 13.15 -2.15 13.05 -2.05 13.05 -1.55 13.05 Q-0.45 13.2 -0.75 14.5 L-0.9 15.1 -1.0 15.3 -1.6 16.15 -2.3 16.65 -2.8 16.85 -3.45 17.15 -3.8 17.5 -3.9 18.0 -4.05 18.9 -4.05 19.3 -3.6 19.1 -3.3 18.95 Q-2.55 17.55 -1.05 18.35 -0.85 18.45 -0.75 18.7 L-0.7 18.9 -0.7 19.6 -0.8 20.1 Q-0.6 21.2 -0.75 22.3 L-0.85 22.7 -0.85 22.95 Q-0.15 22.8 0.15 22.25 L0.35 21.3 0.6 20.8 Q1.5 19.75 2.4 20.5 L2.8 20.85 2.9 20.95 3.2 21.15 4.35 22.2 4.45 22.2 4.55 22.2 4.6 22.2 4.75 22.15 4.75 21.35 Q4.65 21.0 4.55 20.65 L4.55 20.65 4.35 20.3 Q2.45 19.25 3.7 17.5 L3.85 17.35 4.05 17.25 4.9 17.15 Q6.35 17.15 6.95 18.5 L6.95 18.6 7.1 17.4 6.95 17.1 6.3 16.15 6.0 16.15 4.85 15.85 4.25 15.3 Q3.85 14.75 3.9 13.95 3.95 13.25 4.55 13.0 L4.9 12.9 5.8 12.9 6.75 13.5 7.15 13.5 7.2 13.2 Q6.7 12.35 6.2 11.55 L6.1 11.45 6.0 11.05 6.0 10.95 Q6.0 10.2 6.5 9.6 L6.5 9.55 Q6.4 9.0 6.8 8.6 L7.45 7.95 7.45 7.95 7.55 7.75 7.85 6.8 8.0 6.2 8.1 5.65 8.15 5.25 Q8.2 4.55 8.25 3.9 L8.25 3.7 Q8.25 2.55 8.25 1.4 L8.25 1.1 8.2 0.5 8.1 -0.5 8.1 -0.9 8.0 -2.1 7.95 -2.55 7.55 -3.15 6.55 -4.2 6.15 -4.6 Q5.9 -4.85 6.0 -5.2 L4.9 -6.0 Q3.75 -6.75 2.5 -7.15 L2.05 -7.15 Q0.45 -7.1 -1.15 -7.05 L-1.75 -6.9 -2.3 -6.65 Q-3.6 -5.65 -4.5 -4.25 L-5.05 -3.2 Q-5.55 -2.05 -6.0 -0.9 L-6.1 -0.45 -6.1 -0.15 -6.3 2.9 -6.3 3.2 -6.25 4.5" fill="url(#gradient0)" fill-rule="evenodd" stroke="none">
      <animate attributeName="d" dur="2s" repeatCount="indefinite" values="M-6.25 4.5 L-6.25 4.7 -5.7 6.15 -5.7 6.25 -5.7 6.35 -5.55 6.55 -5.45 6.75 -5.25 7.05 -5.05 7.4 Q-4.6 8.15 -4.2 8.85 L-3.85 9.1 -3.55 9.35 -3.15 9.85 Q-2.7 10.4 -2.75 11.2 L-2.9 11.95 Q-3.25 12.95 -4.1 13.7 L-4.2 13.8 -4.55 14.05 -4.55 14.05 -4.8 14.3 Q-4.9 14.5 -4.95 14.65 L-5.0 15.0 -4.5 15.0 -4.5 15.0 Q-3.65 14.65 -2.95 14.0 L-2.55 13.55 -2.25 13.15 -2.15 13.05 -2.05 13.05 -1.55 13.05 Q-0.45 13.2 -0.75 14.5 L-0.9 15.1 -1.0 15.3 -1.6 16.15 -2.3 16.65 -2.8 16.85 -3.45 17.15 -3.8 17.5 -3.9 18.0 -4.05 18.9 -4.05 19.3 -3.6 19.1 -3.3 18.95 Q-2.55 17.55 -1.05 18.35 -0.85 18.45 -0.75 18.7 L-0.7 18.9 -0.7 19.6 -0.8 20.1 Q-0.6 21.2 -0.75 22.3 L-0.85 22.7 -0.85 22.95 Q-0.15 22.8 0.15 22.25 L0.35 21.3 0.6 20.8 Q1.5 19.75 2.4 20.5 L2.8 20.85 2.9 20.95 3.2 21.15 4.35 22.2 4.45 22.2 4.55 22.2 4.6 22.2 4.75 22.15 4.75 21.35 Q4.65 21.0 4.55 20.65 L4.55 20.65 4.35 20.3 Q2.45 19.25 3.7 17.5 L3.85 17.35 4.05 17.25 4.9 17.15 Q6.35 17.15 6.95 18.5 L6.95 18.6 7.1 17.4 6.95 17.1 6.3 16.15 6.0 16.15 4.85 15.85 4.25 15.3 Q3.85 14.75 3.9 13.95 3.95 13.25 4.55 13.0 L4.9 12.9 5.8 12.9 6.75 13.5 7.15 13.5 7.2 13.2 Q6.7 12.35 6.2 11.55 L6.1 11.45 6.0 11.05 6.0 10.95 Q6.0 10.2 6.5 9.6 L6.5 9.55 Q6.4 9.0 6.8 8.6 L7.45 7.95 7.45 7.95 7.55 7.75 7.85 6.8 8.0 6.2 8.1 5.65 8.15 5.25 Q8.2 4.55 8.25 3.9 L8.25 3.7 Q8.25 2.55 8.25 1.4 L8.25 1.1 8.2 0.5 8.1 -0.5 8.1 -0.9 8.0 -2.1 7.95 -2.55 7.55 -3.15 6.55 -4.2 6.15 -4.6 Q5.9 -4.85 6.0 -5.2 L4.9 -6.0 Q3.75 -6.75 2.5 -7.15 L2.05 -7.15 Q0.45 -7.1 -1.15 -7.05 L-1.75 -6.9 -2.3 -6.65 Q-3.6 -5.65 -4.5 -4.25 L-5.05 -3.2 Q-5.55 -2.05 -6.0 -0.9 L-6.1 -0.45 -6.1 -0.15 -6.3 2.9 -6.3 3.2 -6.25 4.5;M-5.35 5.4 L-5.35 5.4 -5.3 6.55 -5.25 6.65 -5.15 6.75 -5.15 6.8 -5.1 7.0 -5.05 7.35 -4.7 7.85 Q-4.3 8.4 -4.25 9.0 L-4.25 9.25 -4.2 9.5 -4.2 10.0 Q-4.25 10.5 -4.25 11.0 L-4.25 11.55 Q-3.4 11.1 -3.15 10.15 L-3.15 10.05 -2.9 9.85 -2.9 9.85 -2.4 9.85 Q-2.1 9.9 -1.9 10.15 L-1.75 10.4 -1.7 10.75 -1.7 10.85 Q-1.7 11.65 -2.05 12.35 L-2.3 12.8 -2.4 13.1 -2.4 13.2 -2.45 13.25 -2.65 13.45 Q-3.0 14.05 -3.35 14.6 L-3.7 15.2 -4.0 15.6 -4.25 16.2 -4.3 16.85 -4.0 17.25 -3.75 17.85 -3.6 18.3 -3.55 18.6 -3.1 19.5 -2.95 19.7 -2.85 19.9 -2.85 19.5 Q-2.75 18.35 -2.65 17.2 -2.6 17.0 -2.55 16.8 L-2.45 16.6 -2.1 16.15 -1.7 15.9 Q-0.75 15.85 0.15 15.85 L0.45 16.0 0.7 16.2 Q1.1 16.6 1.0 17.2 L0.85 17.95 0.7 18.35 Q0.3 19.05 -0.1 19.75 L-0.2 20.15 -0.2 20.2 -0.1 20.6 -0.05 21.8 -0.05 21.9 0.15 22.1 0.15 22.1 0.25 22.2 0.7 22.8 Q0.9 23.0 1.2 23.0 L1.2 23.0 1.1 22.7 Q0.75 21.25 1.2 19.9 L1.3 19.7 1.4 19.5 1.85 19.15 Q3.1 18.7 3.85 19.6 L4.1 19.95 4.25 20.85 4.25 21.05 4.1 21.85 4.0 21.95 4.95 21.3 5.2 20.7 Q5.3 20.2 5.4 19.75 5.3 19.2 5.25 18.65 L5.2 18.4 5.1 17.75 4.6 16.95 4.45 16.55 4.35 16.2 Q4.2 15.4 4.4 14.6 L4.4 14.4 4.7 14.05 4.7 14.05 Q5.25 13.95 5.75 13.85 L5.75 13.85 Q6.05 13.95 6.35 14.05 L6.8 14.45 6.9 14.55 7.1 14.8 7.15 13.95 7.1 13.45 6.8 13.05 6.55 12.7 Q5.7 12.7 5.55 12.05 L5.5 11.8 Q5.4 10.75 6.5 10.45 L6.6 10.35 6.65 10.0 6.85 9.45 6.95 9.25 7.05 8.45 7.15 8.05 7.2 7.65 7.3 6.35 7.3 5.95 Q7.25 5.6 7.25 5.25 L6.95 4.2 Q6.55 3.2 5.7 2.35 L5.4 2.05 Q4.35 1.1 3.1 0.75 L2.55 0.6 2.15 0.55 Q0.8 0.5 -0.55 0.45 L-1.6 0.65 Q-2.55 0.95 -3.3 1.65 L-3.65 2.05 -3.75 2.15 -5.05 4.1 -5.1 4.35 -5.35 5.4"/>
    </path>
    <path d="M-6.25 4.5 L-6.3 3.2 -6.3 2.9 -6.1 -0.15 -6.1 -0.45 -6.0 -0.9 Q-5.55 -2.05 -5.05 -3.2 L-4.5 -4.25 Q-3.6 -5.65 -2.3 -6.65 L-1.75 -6.9 -1.15 -7.05 Q0.45 -7.1 2.05 -7.15 L2.5 -7.15 Q3.75 -6.75 4.9 -6.0 L6.0 -5.2 Q5.9 -4.85 6.15 -4.6 L6.55 -4.2 7.55 -3.15 7.95 -2.55 8.0 -2.1 8.1 -0.9 8.1 -0.5 8.2 0.5 8.25 1.1 8.25 1.4 Q8.25 2.55 8.25 3.7 L8.25 3.9 Q8.2 4.55 8.15 5.25 L8.1 5.65 8.0 6.2 7.85 6.8 7.55 7.75 7.45 7.95 7.45 7.95 6.8 8.6 Q6.4 9.0 6.5 9.55 L6.5 9.6 Q6.0 10.2 6.0 10.95 L6.0 11.05 6.1 11.45 6.2 11.55 Q6.7 12.35 7.2 13.2 L7.15 13.5 6.75 13.5 5.8 12.9 4.9 12.9 4.55 13.0 Q3.95 13.25 3.9 13.95 3.85 14.75 4.25 15.3 L4.85 15.85 6.0 16.15 6.3 16.15 6.95 17.1 7.1 17.4 6.95 18.6 6.95 18.5 Q6.35 17.15 4.9 17.15 L4.05 17.25 3.85 17.35 3.7 17.5 Q2.45 19.25 4.35 20.3 L4.55 20.65 4.55 20.65 Q4.65 21.0 4.75 21.35 L4.75 22.15 4.6 22.2 4.55 22.2 4.45 22.2 4.35 22.2 3.2 21.15 2.9 20.95 2.8 20.85 2.4 20.5 Q1.5 19.75 0.6 20.8 L0.35 21.3 0.15 22.25 Q-0.15 22.8 -0.85 22.95 L-0.85 22.7 -0.75 22.3 Q-0.6 21.2 -0.8 20.1 L-0.7 19.6 -0.7 18.9 -0.75 18.7 Q-0.85 18.45 -1.05 18.35 -2.55 17.55 -3.3 18.95 L-3.6 19.1 -4.05 19.3 -4.05 18.9 -3.9 18.0 -3.8 17.5 -3.45 17.15 -2.8 16.85 -2.3 16.65 -1.6 16.15 -1.0 15.3 -0.9 15.1 -0.75 14.5 Q-0.45 13.2 -1.55 13.05 L-2.05 13.05 -2.15 13.05 -2.25 13.15 -2.55 13.55 -2.95 14.0 Q-3.65 14.65 -4.5 15.0 L-4.5 15.0 -5.0 15.0 -4.95 14.65 Q-4.9 14.5 -4.8 14.3 L-4.55 14.05 -4.55 14.05 -4.2 13.8 -4.1 13.7 Q-3.25 12.95 -2.9 11.95 L-2.75 11.2 Q-2.7 10.4 -3.15 9.85 L-3.55 9.35 -3.85 9.1 -4.2 8.85 Q-4.6 8.15 -5.05 7.4 L-5.25 7.05 -5.45 6.75 -5.55 6.55 -5.7 6.35 -5.7 6.25 -5.7 6.15 -6.25 4.7 -6.25 4.5" fill="none" stroke="#000000" stroke-linecap="round" stroke-linejoin="round" stroke-opacity="0.0" stroke-width="1.0">
      <animate attributeName="stroke" dur="2s" repeatCount="indefinite" values="#000000;#000001"/>
      <animate attributeName="stroke-width" dur="2s" repeatCount="indefinite" values="0.0;0.0"/>
      <animate attributeName="fill-opacity" dur="2s" repeatCount="indefinite" values="0.0;0.0"/>
      <animate attributeName="d" dur="2s" repeatCount="indefinite" values="M-6.25 4.5 L-6.3 3.2 -6.3 2.9 -6.1 -0.15 -6.1 -0.45 -6.0 -0.9 Q-5.55 -2.05 -5.05 -3.2 L-4.5 -4.25 Q-3.6 -5.65 -2.3 -6.65 L-1.75 -6.9 -1.15 -7.05 Q0.45 -7.1 2.05 -7.15 L2.5 -7.15 Q3.75 -6.75 4.9 -6.0 L6.0 -5.2 Q5.9 -4.85 6.15 -4.6 L6.55 -4.2 7.55 -3.15 7.95 -2.55 8.0 -2.1 8.1 -0.9 8.1 -0.5 8.2 0.5 8.25 1.1 8.25 1.4 Q8.25 2.55 8.25 3.7 L8.25 3.9 Q8.2 4.55 8.15 5.25 L8.1 5.65 8.0 6.2 7.85 6.8 7.55 7.75 7.45 7.95 7.45 7.95 6.8 8.6 Q6.4 9.0 6.5 9.55 L6.5 9.6 Q6.0 10.2 6.0 10.95 L6.0 11.05 6.1 11.45 6.2 11.55 Q6.7 12.35 7.2 13.2 L7.15 13.5 6.75 13.5 5.8 12.9 4.9 12.9 4.55 13.0 Q3.95 13.25 3.9 13.95 3.85 14.75 4.25 15.3 L4.85 15.85 6.0 16.15 6.3 16.15 6.95 17.1 7.1 17.4 6.95 18.6 6.95 18.5 Q6.35 17.15 4.9 17.15 L4.05 17.25 3.85 17.35 3.7 17.5 Q2.45 19.25 4.35 20.3 L4.55 20.65 4.55 20.65 Q4.65 21.0 4.75 21.35 L4.75 22.15 4.6 22.2 4.55 22.2 4.45 22.2 4.35 22.2 3.2 21.15 2.9 20.95 2.8 20.85 2.4 20.5 Q1.5 19.75 0.6 20.8 L0.35 21.3 0.15 22.25 Q-0.15 22.8 -0.85 22.95 L-0.85 22.7 -0.75 22.3 Q-0.6 21.2 -0.8 20.1 L-0.7 19.6 -0.7 18.9 -0.75 18.7 Q-0.85 18.45 -1.05 18.35 -2.55 17.55 -3.3 18.95 L-3.6 19.1 -4.05 19.3 -4.05 18.9 -3.9 18.0 -3.8 17.5 -3.45 17.15 -2.8 16.85 -2.3 16.65 -1.6 16.15 -1.0 15.3 -0.9 15.1 -0.75 14.5 Q-0.45 13.2 -1.55 13.05 L-2.05 13.05 -2.15 13.05 -2.25 13.15 -2.55 13.55 -2.95 14.0 Q-3.65 14.65 -4.5 15.0 L-4.5 15.0 -5.0 15.0 -4.95 14.65 Q-4.9 14.5 -4.8 14.3 L-4.55 14.05 -4.55 14.05 -4.2 13.8 -4.1 13.7 Q-3.25 12.95 -2.9 11.95 L-2.75 11.2 Q-2.7 10.4 -3.15 9.85 L-3.55 9.35 -3.85 9.1 -4.2 8.85 Q-4.6 8.15 -5.05 7.4 L-5.25 7.05 -5.45 6.75 -5.55 6.55 -5.7 6.35 -5.7 6.25 -5.7 6.15 -6.25 4.7 -6.25 4.5;M-5.35 5.4 L-5.1 4.35 -5.05 4.1 -3.75 2.15 -3.65 2.05 -3.3 1.65 Q-2.55 0.95 -1.6 0.65 L-0.55 0.45 Q0.8 0.5 2.15 0.55 L2.55 0.6 3.1 0.75 Q4.35 1.1 5.4 2.05 L5.7 2.35 Q6.55 3.2 6.95 4.2 L7.25 5.25 Q7.25 5.6 7.3 5.95 L7.3 6.35 7.2 7.65 7.15 8.05 7.05 8.45 6.95 9.25 6.85 9.45 6.65 10.0 6.6 10.35 6.5 10.45 Q5.4 10.75 5.5 11.8 L5.55 12.05 Q5.7 12.7 6.55 12.7 L6.8 13.05 7.1 13.45 7.15 13.95 7.1 14.8 6.9 14.55 6.8 14.45 6.35 14.05 Q6.05 13.95 5.75 13.85 L5.75 13.85 Q5.25 13.95 4.7 14.05 L4.7 14.05 4.4 14.4 4.4 14.6 Q4.2 15.4 4.35 16.2 L4.45 16.55 4.6 16.95 5.1 17.75 5.2 18.4 5.25 18.65 Q5.3 19.2 5.4 19.75 5.3 20.2 5.2 20.7 L4.95 21.3 4.0 21.95 4.1 21.85 4.25 21.05 4.25 20.85 4.1 19.95 3.85 19.6 Q3.1 18.7 1.85 19.15 L1.4 19.5 1.3 19.7 1.2 19.9 Q0.75 21.25 1.1 22.7 L1.2 23.0 1.2 23.0 Q0.9 23.0 0.7 22.8 L0.25 22.2 0.15 22.1 0.15 22.1 -0.05 21.9 -0.05 21.8 -0.1 20.6 -0.2 20.2 -0.2 20.15 -0.1 19.75 Q0.3 19.05 0.7 18.35 L0.85 17.95 1.0 17.2 Q1.1 16.6 0.7 16.2 L0.45 16.0 0.15 15.85 Q-0.75 15.85 -1.7 15.9 L-2.1 16.15 -2.45 16.6 -2.55 16.8 Q-2.6 17.0 -2.65 17.2 -2.75 18.35 -2.85 19.5 L-2.85 19.9 -2.95 19.7 -3.1 19.5 -3.55 18.6 -3.6 18.3 -3.75 17.85 -4.0 17.25 -4.3 16.85 -4.25 16.2 -4.0 15.6 -3.7 15.2 -3.35 14.6 Q-3.0 14.05 -2.65 13.45 L-2.45 13.25 -2.4 13.2 -2.4 13.1 -2.3 12.8 -2.05 12.35 Q-1.7 11.65 -1.7 10.85 L-1.7 10.75 -1.75 10.4 -1.9 10.15 Q-2.1 9.9 -2.4 9.85 L-2.9 9.85 -2.9 9.85 -3.15 10.05 -3.15 10.15 Q-3.4 11.1 -4.25 11.55 L-4.25 11.0 Q-4.25 10.5 -4.2 10.0 L-4.2 9.5 -4.25 9.25 -4.25 9.0 Q-4.3 8.4 -4.7 7.85 L-5.05 7.35 -5.1 7.0 -5.15 6.8 -5.15 6.75 -5.25 6.65 -5.3 6.55 -5.35 5.4 -5.35 5.4"/>
    </path>
  </g>
  <defs>
    <radialGradient cx="0" cy="0" gradientTransform="matrix(0.0246, 0.0, 0.0, 0.0246, 1.9, 10.15)" gradientUnits="userSpaceOnUse" id="gradient0" r="819.2" spreadMethod="pad">
      <animateTransform additive="replace" attributeName="gradientTransform" dur="2s" from="1" repeatCount="indefinite" to="1" type="scale"/>
      <animateTransform additive="sum" attributeName="gradientTransform" dur="2s" from="1.9 10.15" repeatCount="indefinite" to="1.9 10.15" type="translate"/>
      <animateTransform additive="sum" attributeName="gradientTransform" dur="2s" from="0.0" repeatCount="indefinite" to="0.0" type="rotate"/>
      <animateTransform additive="sum" attributeName="gradientTransform" dur="2s" from="0.0246 0.0246" repeatCount="indefinite" to="0.0246 0.0246" type="scale"/>
      <animateTransform additive="sum" attributeName="gradientTransform" dur="2s" from="0.0" repeatCount="indefinite" to="0.0" type="skewX"/>
      <stop offset="0.0" stop-color="#fefe0c" stop-opacity="0.9019608">
        <animate attributeName="offset" dur="2s" repeatCount="indefinite" values="0.0;0.0"/>
        <animate attributeName="stop-color" dur="2s" repeatCount="indefinite" values="#fefe0c;#fefe0d"/>
        <animate attributeName="stop-opacity" dur="2s" repeatCount="indefinite" values="0.9019608;0.9019608"/>
      </stop>
      <stop offset="0.5764705882352941" stop-color="#ffba2b" stop-opacity="0.9019608">
        <animate attributeName="offset" dur="2s" repeatCount="indefinite" values="0.5764705882352941;0.5764705882352941"/>
        <animate attributeName="stop-color" dur="2s" repeatCount="indefinite" values="#ffba2b;#ffba2c"/>
        <animate attributeName="stop-opacity" dur="2s" repeatCount="indefinite" values="0.9019608;0.9019608"/>
      </stop>
      <stop offset="1.0" stop-color="#ff720b" stop-opacity="0.9019608">
        <animate attributeName="offset" dur="2s" repeatCount="indefinite" values="1.0;1.0"/>
        <animate attributeName="stop-color" dur="2s" repeatCount="indefinite" values="#ff720b;#ff720c"/>
        <animate attributeName="stop-opacity" dur="2s" repeatCount="indefinite" values="0.9019608;0.9019608"/>
      </stop>
    </radialGradient>
  </defs>
</svg>
