<?xml version="1.0" encoding="UTF-8" standalone="no"?>
<svg xmlns:xlink="http://www.w3.org/1999/xlink" height="22.85px" width="12.65px" xmlns="http://www.w3.org/2000/svg">
  <g transform="matrix(1.0, 0.0, 0.0, 1.0, 5.35, -0.4)">
    <path d="M-5.35 5.4 L-5.35 5.4 -5.35 5.5 -5.35 5.7 -5.3 6.55 -5.25 6.65 -5.15 6.8 -5.1 7.0 -5.05 7.35 -4.55 8.0 Q-4.25 8.6 -4.25 9.25 -4.15 9.55 -4.2 9.9 L-4.2 10.5 Q-4.25 10.95 -4.25 11.4 L-4.25 11.55 Q-3.35 11.05 -3.15 10.05 L-2.9 9.85 -2.9 9.85 Q-1.85 9.65 -1.7 10.65 L-1.7 10.85 -1.85 11.9 -2.05 12.35 -2.3 12.8 -2.4 13.2 -2.65 13.45 -2.65 13.45 -2.65 13.45 -3.2 14.45 -3.3 14.55 -3.7 15.1 -3.9 15.4 -4.0 15.6 -4.25 16.2 -4.3 16.85 -4.0 17.4 -3.85 17.6 -3.75 17.85 -3.65 18.1 -3.55 18.6 -3.1 19.4 -2.85 19.9 -2.85 19.9 Q-2.75 18.9 -2.7 17.9 L-2.6 17.2 -2.55 16.9 -2.55 16.8 -2.1 16.15 Q-0.95 15.25 0.45 16.0 1.0 16.3 1.05 16.85 L1.0 17.2 Q0.8 18.6 -0.1 19.75 L-0.2 19.9 -0.2 19.9 -0.2 20.0 -0.2 20.0 -0.2 20.2 Q-0.1 21.05 -0.05 21.9 L0.0 22.0 0.7 22.8 0.9 22.95 1.2 23.0 Q0.7 21.3 1.3 19.7 1.45 19.3 1.85 19.15 3.0 18.75 3.75 19.5 L3.85 19.6 Q4.05 20.0 4.2 20.4 L4.25 21.05 4.0 21.95 4.95 21.3 5.05 21.1 5.1 21.0 5.25 20.5 5.35 20.3 5.35 20.1 5.4 19.6 5.35 18.95 5.25 18.65 5.1 17.75 Q3.95 16.2 4.4 14.4 L4.7 14.05 5.2 13.85 Q5.6 13.9 6.0 13.9 6.5 14.05 6.9 14.55 L7.1 14.8 7.1 14.55 7.15 13.95 7.15 13.95 7.15 13.75 7.1 13.45 6.8 13.05 6.7 12.9 6.55 12.7 Q5.55 12.7 5.5 11.8 L5.6 11.1 5.6 11.1 Q5.8 10.65 6.5 10.45 L6.6 10.35 6.65 10.0 6.85 9.45 6.95 9.25 7.25 7.5 7.3 6.35 7.2 5.0 7.1 4.6 6.7 3.7 6.6 3.45 5.4 2.05 4.8 1.6 Q3.8 0.85 2.55 0.6 L1.75 0.5 Q1.4 0.45 1.05 0.45 0.25 0.45 -0.55 0.45 -1.95 0.6 -2.95 1.4 L-3.3 1.7 -3.75 2.15 Q-4.25 2.9 -4.75 3.6 L-4.85 3.7 -5.05 4.1 -5.1 4.35 -5.3 4.95 -5.35 5.4" fill="url(#gradient0)" fill-rule="evenodd" stroke="none">
      <animate attributeName="d" dur="2s" repeatCount="indefinite" values="M-5.35 5.4 L-5.35 5.4 -5.35 5.5 -5.35 5.7 -5.3 6.55 -5.25 6.65 -5.15 6.8 -5.1 7.0 -5.05 7.35 -4.55 8.0 Q-4.25 8.6 -4.25 9.25 -4.15 9.55 -4.2 9.9 L-4.2 10.5 Q-4.25 10.95 -4.25 11.4 L-4.25 11.55 Q-3.35 11.05 -3.15 10.05 L-2.9 9.85 -2.9 9.85 Q-1.85 9.65 -1.7 10.65 L-1.7 10.85 -1.85 11.9 -2.05 12.35 -2.3 12.8 -2.4 13.2 -2.65 13.45 -2.65 13.45 -2.65 13.45 -3.2 14.45 -3.3 14.55 -3.7 15.1 -3.9 15.4 -4.0 15.6 -4.25 16.2 -4.3 16.85 -4.0 17.4 -3.85 17.6 -3.75 17.85 -3.65 18.1 -3.55 18.6 -3.1 19.4 -2.85 19.9 -2.85 19.9 Q-2.75 18.9 -2.7 17.9 L-2.6 17.2 -2.55 16.9 -2.55 16.8 -2.1 16.15 Q-0.95 15.25 0.45 16.0 1.0 16.3 1.05 16.85 L1.0 17.2 Q0.8 18.6 -0.1 19.75 L-0.2 19.9 -0.2 19.9 -0.2 20.0 -0.2 20.0 -0.2 20.2 Q-0.1 21.05 -0.05 21.9 L0.0 22.0 0.7 22.8 0.9 22.95 1.2 23.0 Q0.7 21.3 1.3 19.7 1.45 19.3 1.85 19.15 3.0 18.75 3.75 19.5 L3.85 19.6 Q4.05 20.0 4.2 20.4 L4.25 21.05 4.0 21.95 4.95 21.3 5.05 21.1 5.1 21.0 5.25 20.5 5.35 20.3 5.35 20.1 5.4 19.6 5.35 18.95 5.25 18.65 5.1 17.75 Q3.95 16.2 4.4 14.4 L4.7 14.05 5.2 13.85 Q5.6 13.9 6.0 13.9 6.5 14.05 6.9 14.55 L7.1 14.8 7.1 14.55 7.15 13.95 7.15 13.95 7.15 13.75 7.1 13.45 6.8 13.05 6.7 12.9 6.55 12.7 Q5.55 12.7 5.5 11.8 L5.6 11.1 5.6 11.1 Q5.8 10.65 6.5 10.45 L6.6 10.35 6.65 10.0 6.85 9.45 6.95 9.25 7.25 7.5 7.3 6.35 7.2 5.0 7.1 4.6 6.7 3.7 6.6 3.45 5.4 2.05 4.8 1.6 Q3.8 0.85 2.55 0.6 L1.75 0.5 Q1.4 0.45 1.05 0.45 0.25 0.45 -0.55 0.45 -1.95 0.6 -2.95 1.4 L-3.3 1.7 -3.75 2.15 Q-4.25 2.9 -4.75 3.6 L-4.85 3.7 -5.05 4.1 -5.1 4.35 -5.3 4.95 -5.35 5.4;M-5.15 14.5 L-5.15 14.55 -5.15 14.55 -5.05 14.45 -4.25 14.0 -4.15 14.0 -4.05 13.9 -3.95 13.8 -3.7 13.6 -3.3 13.2 Q-3.1 12.85 -2.95 12.55 -2.65 12.5 -2.35 12.45 L-2.05 12.6 Q-1.75 12.75 -1.7 13.15 L-1.7 13.35 Q-1.65 14.25 -2.25 14.85 L-2.6 15.15 -2.6 15.15 Q-3.1 15.5 -3.4 16.0 L-3.5 16.2 -3.6 16.85 -3.6 17.4 -3.75 17.85 -3.85 18.25 -4.05 18.65 -4.15 18.85 -4.1 18.85 -3.25 18.65 -3.25 18.55 -3.05 18.25 -2.9 18.1 -2.8 17.7 -2.45 17.2 -1.95 16.95 -1.55 16.9 -1.5 16.8 -1.4 16.7 -1.3 16.6 -1.25 16.25 -0.7 15.9 -0.25 15.9 -0.25 15.9 Q0.7 16.05 0.6 17.05 L0.65 17.5 0.7 17.7 0.8 17.8 1.05 18.15 Q1.65 19.0 1.8 20.0 1.85 20.35 1.85 20.7 L1.85 21.0 Q1.75 22.05 1.0 22.95 L1.0 23.05 1.0 23.1 1.0 23.2 1.0 23.25 1.2 23.25 Q1.95 23.2 2.35 22.45 L2.35 22.35 2.55 21.7 2.55 21.5 2.65 21.2 Q3.0 20.1 2.95 18.85 2.75 18.65 2.55 18.45 2.05 17.85 2.45 17.15 L2.55 17.0 Q2.75 16.8 3.0 16.8 L3.65 16.9 4.25 17.2 4.7 17.85 4.8 18.05 4.85 18.0 5.05 17.85 5.1 17.75 5.1 17.65 5.1 17.2 5.0 16.8 5.0 16.8 4.35 16.15 Q3.4 15.05 3.7 13.6 L3.8 13.3 4.0 12.8 Q4.15 12.5 4.5 12.55 5.2 12.7 5.45 13.35 L5.5 13.45 5.55 13.6 5.7 14.05 5.7 14.05 5.8 14.05 6.0 13.85 6.3 13.6 6.35 13.5 6.35 13.35 Q6.35 12.8 6.35 12.25 L6.45 11.7 6.45 11.65 Q6.05 11.55 5.65 11.5 L5.45 11.45 5.05 11.3 4.4 10.95 4.2 10.8 3.2 9.8 2.7 8.95 2.6 7.8 2.6 7.5 2.0 6.85 1.75 6.6 0.35 6.6 -0.25 6.6 Q-0.95 7.2 -1.1 8.0 L-1.15 8.65 Q-1.15 9.0 -1.4 9.2 -1.6 9.75 -1.95 10.1 -2.55 10.7 -3.5 10.9 L-3.8 11.0 -3.95 11.55 Q-4.15 12.25 -4.8 12.9 L-4.8 13.0 -4.85 13.55 -4.9 13.75 -5.05 14.15 -5.15 14.5"/>
    </path>
    <path d="M-5.35 5.4 L-5.3 4.95 -5.1 4.35 -5.05 4.1 -4.85 3.7 -4.75 3.6 Q-4.25 2.9 -3.75 2.15 L-3.3 1.7 -2.95 1.4 Q-1.95 0.6 -0.55 0.45 0.25 0.45 1.05 0.45 1.4 0.45 1.75 0.5 L2.55 0.6 Q3.8 0.85 4.8 1.6 L5.4 2.05 6.6 3.45 6.7 3.7 7.1 4.6 7.2 5.0 7.3 6.35 7.25 7.5 6.95 9.25 6.85 9.45 6.65 10.0 6.6 10.35 6.5 10.45 Q5.8 10.65 5.6 11.1 L5.6 11.1 5.5 11.8 Q5.55 12.7 6.55 12.7 L6.7 12.9 6.8 13.05 7.1 13.45 7.15 13.75 7.15 13.95 7.15 13.95 7.1 14.55 7.1 14.8 6.9 14.55 Q6.5 14.05 6.0 13.9 5.6 13.9 5.2 13.85 L4.7 14.05 4.4 14.4 Q3.95 16.2 5.1 17.75 L5.25 18.65 5.35 18.95 5.4 19.6 5.35 20.1 5.35 20.3 5.25 20.5 5.1 21.0 5.05 21.1 4.95 21.3 4.0 21.95 4.25 21.05 4.2 20.4 Q4.05 20.0 3.85 19.6 L3.75 19.5 Q3.0 18.75 1.85 19.15 1.45 19.3 1.3 19.7 0.7 21.3 1.2 23.0 L0.9 22.95 0.7 22.8 0.0 22.0 -0.05 21.9 Q-0.1 21.05 -0.2 20.2 L-0.2 20.0 -0.2 20.0 -0.2 19.9 -0.2 19.9 -0.1 19.75 Q0.8 18.6 1.0 17.2 L1.05 16.85 Q1.0 16.3 0.45 16.0 -0.95 15.25 -2.1 16.15 L-2.55 16.8 -2.55 16.9 -2.6 17.2 -2.7 17.9 Q-2.75 18.9 -2.85 19.9 L-2.85 19.9 -3.1 19.4 -3.55 18.6 -3.65 18.1 -3.75 17.85 -3.85 17.6 -4.0 17.4 -4.3 16.85 -4.25 16.2 -4.0 15.6 -3.9 15.4 -3.7 15.1 -3.3 14.55 -3.2 14.45 -2.65 13.45 -2.65 13.45 -2.65 13.45 -2.4 13.2 -2.3 12.8 -2.05 12.35 -1.85 11.9 -1.7 10.85 -1.7 10.65 Q-1.85 9.65 -2.9 9.85 L-2.9 9.85 -3.15 10.05 Q-3.35 11.05 -4.25 11.55 L-4.25 11.4 Q-4.25 10.95 -4.2 10.5 L-4.2 9.9 Q-4.15 9.55 -4.25 9.25 -4.25 8.6 -4.55 8.0 L-5.05 7.35 -5.1 7.0 -5.15 6.8 -5.25 6.65 -5.3 6.55 -5.35 5.7 -5.35 5.5 -5.35 5.4 -5.35 5.4" fill="none" stroke="#000000" stroke-linecap="round" stroke-linejoin="round" stroke-opacity="0.0" stroke-width="1.0">
      <animate attributeName="stroke" dur="2s" repeatCount="indefinite" values="#000000;#000001"/>
      <animate attributeName="stroke-width" dur="2s" repeatCount="indefinite" values="0.0;0.0"/>
      <animate attributeName="fill-opacity" dur="2s" repeatCount="indefinite" values="0.0;0.0"/>
      <animate attributeName="d" dur="2s" repeatCount="indefinite" values="M-5.35 5.4 L-5.3 4.95 -5.1 4.35 -5.05 4.1 -4.85 3.7 -4.75 3.6 Q-4.25 2.9 -3.75 2.15 L-3.3 1.7 -2.95 1.4 Q-1.95 0.6 -0.55 0.45 0.25 0.45 1.05 0.45 1.4 0.45 1.75 0.5 L2.55 0.6 Q3.8 0.85 4.8 1.6 L5.4 2.05 6.6 3.45 6.7 3.7 7.1 4.6 7.2 5.0 7.3 6.35 7.25 7.5 6.95 9.25 6.85 9.45 6.65 10.0 6.6 10.35 6.5 10.45 Q5.8 10.65 5.6 11.1 L5.6 11.1 5.5 11.8 Q5.55 12.7 6.55 12.7 L6.7 12.9 6.8 13.05 7.1 13.45 7.15 13.75 7.15 13.95 7.15 13.95 7.1 14.55 7.1 14.8 6.9 14.55 Q6.5 14.05 6.0 13.9 5.6 13.9 5.2 13.85 L4.7 14.05 4.4 14.4 Q3.95 16.2 5.1 17.75 L5.25 18.65 5.35 18.95 5.4 19.6 5.35 20.1 5.35 20.3 5.25 20.5 5.1 21.0 5.05 21.1 4.95 21.3 4.0 21.95 4.25 21.05 4.2 20.4 Q4.05 20.0 3.85 19.6 L3.75 19.5 Q3.0 18.75 1.85 19.15 1.45 19.3 1.3 19.7 0.7 21.3 1.2 23.0 L0.9 22.95 0.7 22.8 0.0 22.0 -0.05 21.9 Q-0.1 21.05 -0.2 20.2 L-0.2 20.0 -0.2 20.0 -0.2 19.9 -0.2 19.9 -0.1 19.75 Q0.8 18.6 1.0 17.2 L1.05 16.85 Q1.0 16.3 0.45 16.0 -0.95 15.25 -2.1 16.15 L-2.55 16.8 -2.55 16.9 -2.6 17.2 -2.7 17.9 Q-2.75 18.9 -2.85 19.9 L-2.85 19.9 -3.1 19.4 -3.55 18.6 -3.65 18.1 -3.75 17.85 -3.85 17.6 -4.0 17.4 -4.3 16.85 -4.25 16.2 -4.0 15.6 -3.9 15.4 -3.7 15.1 -3.3 14.55 -3.2 14.45 -2.65 13.45 -2.65 13.45 -2.65 13.45 -2.4 13.2 -2.3 12.8 -2.05 12.35 -1.85 11.9 -1.7 10.85 -1.7 10.65 Q-1.85 9.65 -2.9 9.85 L-2.9 9.85 -3.15 10.05 Q-3.35 11.05 -4.25 11.55 L-4.25 11.4 Q-4.25 10.95 -4.2 10.5 L-4.2 9.9 Q-4.15 9.55 -4.25 9.25 -4.25 8.6 -4.55 8.0 L-5.05 7.35 -5.1 7.0 -5.15 6.8 -5.25 6.65 -5.3 6.55 -5.35 5.7 -5.35 5.5 -5.35 5.4 -5.35 5.4;M-5.15 14.5 L-5.05 14.15 -4.9 13.75 -4.85 13.55 -4.8 13.0 -4.8 12.9 Q-4.15 12.25 -3.95 11.55 L-3.8 11.0 -3.5 10.9 Q-2.55 10.7 -1.95 10.1 -1.6 9.75 -1.4 9.2 -1.15 9.0 -1.15 8.65 L-1.1 8.0 Q-0.95 7.2 -0.25 6.6 L0.35 6.6 1.75 6.6 2.0 6.85 2.6 7.5 2.6 7.8 2.7 8.95 3.2 9.8 4.2 10.8 4.4 10.95 5.05 11.3 5.45 11.45 5.65 11.5 Q6.05 11.55 6.45 11.65 L6.45 11.7 6.35 12.25 Q6.35 12.8 6.35 13.35 L6.35 13.5 6.3 13.6 6.0 13.85 5.8 14.05 5.7 14.05 5.7 14.05 5.55 13.6 5.5 13.45 5.45 13.35 Q5.2 12.7 4.5 12.55 4.15 12.5 4.0 12.8 L3.8 13.3 3.7 13.6 Q3.4 15.05 4.35 16.15 L5.0 16.8 5.0 16.8 5.1 17.2 5.1 17.65 5.1 17.75 5.05 17.85 4.85 18.0 4.8 18.05 4.7 17.85 4.25 17.2 3.65 16.9 3.0 16.8 Q2.75 16.8 2.55 17.0 L2.45 17.15 Q2.05 17.85 2.55 18.45 2.75 18.65 2.95 18.85 3.0 20.1 2.65 21.2 L2.55 21.5 2.55 21.7 2.35 22.35 2.35 22.45 Q1.95 23.2 1.2 23.25 L1.0 23.25 1.0 23.2 1.0 23.1 1.0 23.05 1.0 22.95 Q1.75 22.05 1.85 21.0 L1.85 20.7 Q1.85 20.35 1.8 20.0 1.65 19.0 1.05 18.15 L0.8 17.8 0.7 17.7 0.65 17.5 0.6 17.05 Q0.7 16.05 -0.25 15.9 L-0.25 15.9 -0.7 15.9 -1.25 16.25 -1.3 16.6 -1.4 16.7 -1.5 16.8 -1.55 16.9 -1.95 16.95 -2.45 17.2 -2.8 17.7 -2.9 18.1 -3.05 18.25 -3.25 18.55 -3.25 18.65 -4.1 18.85 -4.15 18.85 -4.05 18.65 -3.85 18.25 -3.75 17.85 -3.6 17.4 -3.6 16.85 -3.5 16.2 -3.4 16.0 Q-3.1 15.5 -2.6 15.15 L-2.6 15.15 -2.25 14.85 Q-1.65 14.25 -1.7 13.35 L-1.7 13.15 Q-1.75 12.75 -2.05 12.6 L-2.35 12.45 Q-2.65 12.5 -2.95 12.55 -3.1 12.85 -3.3 13.2 L-3.7 13.6 -3.95 13.8 -4.05 13.9 -4.15 14.0 -4.25 14.0 -5.05 14.45 -5.15 14.55 -5.15 14.55 -5.15 14.5"/>
    </path>
  </g>
  <defs>
    <radialGradient cx="0" cy="0" gradientTransform="matrix(0.0246, 0.0, 0.0, 0.0246, 1.9, 10.15)" gradientUnits="userSpaceOnUse" id="gradient0" r="819.2" spreadMethod="pad">
      <animateTransform additive="replace" attributeName="gradientTransform" dur="2s" from="1" repeatCount="indefinite" to="1" type="scale"/>
      <animateTransform additive="sum" attributeName="gradientTransform" dur="2s" from="1.9 10.15" repeatCount="indefinite" to="1.9 10.15" type="translate"/>
      <animateTransform additive="sum" attributeName="gradientTransform" dur="2s" from="0.0" repeatCount="indefinite" to="0.0" type="rotate"/>
      <animateTransform additive="sum" attributeName="gradientTransform" dur="2s" from="0.0246 0.0246" repeatCount="indefinite" to="0.0246 0.0246" type="scale"/>
      <animateTransform additive="sum" attributeName="gradientTransform" dur="2s" from="0.0" repeatCount="indefinite" to="0.0" type="skewX"/>
      <stop offset="0.0" stop-color="#fefe0c" stop-opacity="0.9019608">
        <animate attributeName="offset" dur="2s" repeatCount="indefinite" values="0.0;0.0"/>
        <animate attributeName="stop-color" dur="2s" repeatCount="indefinite" values="#fefe0c;#fefe0d"/>
        <animate attributeName="stop-opacity" dur="2s" repeatCount="indefinite" values="0.9019608;0.9019608"/>
      </stop>
      <stop offset="0.5764705882352941" stop-color="#ffba2b" stop-opacity="0.9019608">
        <animate attributeName="offset" dur="2s" repeatCount="indefinite" values="0.5764705882352941;0.5764705882352941"/>
        <animate attributeName="stop-color" dur="2s" repeatCount="indefinite" values="#ffba2b;#ffba2c"/>
        <animate attributeName="stop-opacity" dur="2s" repeatCount="indefinite" values="0.9019608;0.9019608"/>
      </stop>
      <stop offset="1.0" stop-color="#ff720b" stop-opacity="0.9019608">
        <animate attributeName="offset" dur="2s" repeatCount="indefinite" values="1.0;1.0"/>
        <animate attributeName="stop-color" dur="2s" repeatCount="indefinite" values="#ff720b;#ff720c"/>
        <animate attributeName="stop-opacity" dur="2s" repeatCount="indefinite" values="0.9019608;0.9019608"/>
      </stop>
    </radialGradient>
  </defs>
</svg>
