<?xml version="1.0" encoding="UTF-8" standalone="no"?>
<svg xmlns:xlink="http://www.w3.org/1999/xlink" height="16.65px" width="11.6px" xmlns="http://www.w3.org/2000/svg">
  <g transform="matrix(1.0, 0.0, 0.0, 1.0, 5.15, -6.6)">
    <path d="M-5.15 14.5 L-3.7 13.6 -3.3 13.2 -3.25 12.95 Q-3.0 12.1 -2.05 12.6 -1.75 12.75 -1.7 13.15 -1.55 14.45 -2.6 15.15 -3.1 15.5 -3.4 16.0 L-3.6 16.85 Q-3.6 17.65 -3.9 18.35 L-4.15 18.85 -4.1 18.85 -3.25 18.65 -3.25 18.55 -3.05 18.25 -2.9 18.1 -2.85 18.0 Q-2.7 17.0 -1.55 16.9 L-1.5 16.8 -1.3 16.6 Q-1.2 15.75 -0.25 15.9 0.7 16.05 0.6 17.05 L0.65 17.5 0.7 17.7 1.05 18.1 Q1.7 19.0 1.8 20.2 L1.85 20.7 Q1.85 21.95 1.0 22.95 L1.0 23.05 1.0 23.1 1.0 23.2 1.0 23.25 Q1.95 23.3 2.35 22.35 L2.55 21.5 Q3.0 20.25 2.95 18.85 L2.7 18.65 Q2.0 17.95 2.45 17.15 2.65 16.8 3.0 16.8 4.4 16.8 4.8 18.05 L4.85 18.0 5.05 17.85 5.1 17.75 5.1 17.65 5.1 17.2 5.0 16.8 Q3.2 15.4 3.8 13.3 L4.0 12.8 Q4.15 12.5 4.5 12.55 5.3 12.7 5.55 13.6 L5.7 14.05 5.8 14.05 6.3 13.6 6.35 13.5 Q6.25 12.55 6.45 11.7 L6.45 11.65 Q5.05 11.5 4.0 10.6 L3.2 9.8 Q2.5 8.95 2.6 7.8 L2.6 7.5 2.0 6.85 1.75 6.6 -0.25 6.6 Q-1.0 7.25 -1.1 8.15 L-1.15 8.65 Q-1.15 9.0 -1.4 9.2 -1.95 10.6 -3.5 10.9 L-3.8 11.0 Q-3.9 12.0 -4.8 12.9 L-4.8 13.0 -5.05 14.15 -5.15 14.5" fill="url(#gradient0)" fill-rule="evenodd" stroke="none">
      <animate attributeName="d" dur="2s" repeatCount="indefinite" values="M-5.15 14.5 L-3.7 13.6 -3.3 13.2 -3.25 12.95 Q-3.0 12.1 -2.05 12.6 -1.75 12.75 -1.7 13.15 -1.55 14.45 -2.6 15.15 -3.1 15.5 -3.4 16.0 L-3.6 16.85 Q-3.6 17.65 -3.9 18.35 L-4.15 18.85 -4.1 18.85 -3.25 18.65 -3.25 18.55 -3.05 18.25 -2.9 18.1 -2.85 18.0 Q-2.7 17.0 -1.55 16.9 L-1.5 16.8 -1.3 16.6 Q-1.2 15.75 -0.25 15.9 0.7 16.05 0.6 17.05 L0.65 17.5 0.7 17.7 1.05 18.1 Q1.7 19.0 1.8 20.2 L1.85 20.7 Q1.85 21.95 1.0 22.95 L1.0 23.05 1.0 23.1 1.0 23.2 1.0 23.25 Q1.95 23.3 2.35 22.35 L2.55 21.5 Q3.0 20.25 2.95 18.85 L2.7 18.65 Q2.0 17.95 2.45 17.15 2.65 16.8 3.0 16.8 4.4 16.8 4.8 18.05 L4.85 18.0 5.05 17.85 5.1 17.75 5.1 17.65 5.1 17.2 5.0 16.8 Q3.2 15.4 3.8 13.3 L4.0 12.8 Q4.15 12.5 4.5 12.55 5.3 12.7 5.55 13.6 L5.7 14.05 5.8 14.05 6.3 13.6 6.35 13.5 Q6.25 12.55 6.45 11.7 L6.45 11.65 Q5.05 11.5 4.0 10.6 L3.2 9.8 Q2.5 8.95 2.6 7.8 L2.6 7.5 2.0 6.85 1.75 6.6 -0.25 6.6 Q-1.0 7.25 -1.1 8.15 L-1.15 8.65 Q-1.15 9.0 -1.4 9.2 -1.95 10.6 -3.5 10.9 L-3.8 11.0 Q-3.9 12.0 -4.8 12.9 L-4.8 13.0 -5.05 14.15 -5.15 14.5;M0.6 16.95 L0.6 16.95 0.6 17.05 0.6 17.05 Q0.6 17.15 0.6 17.25 0.6 17.25 0.6 17.25 0.65 17.35 0.65 17.45 0.65 17.5 0.65 17.5 L0.7 17.6 Q0.7 17.65 0.7 17.7 L1.0 18.2 1.0 18.2 1.0 18.2 1.0 18.2 1.0 18.2 1.0 18.2 1.0 18.2 Q1.05 18.25 1.1 18.3 L1.1 18.3 1.1 18.3 Q1.15 18.35 1.2 18.4 1.25 18.45 1.3 18.5 L1.3 18.5 1.3 18.5 1.3 18.5 Q1.4 18.5 1.5 18.5 L1.7 18.45 Q1.75 18.4 1.8 18.35 L1.8 18.35 1.8 18.35 1.8 18.35 1.8 18.35 Q1.85 18.3 1.9 18.25 L1.9 18.25 Q2.0 18.15 2.1 18.05 L2.1 18.05 Q2.15 17.85 2.15 17.7 2.15 17.7 2.15 17.7 2.15 17.6 2.15 17.5 L2.15 17.5 2.15 17.5 2.15 17.5 2.15 17.5 2.15 17.5 2.15 17.5 Q2.15 17.3 2.15 17.1 L2.15 17.1 Q2.15 17.1 2.15 17.1 2.15 17.1 2.15 17.1 L2.15 17.1 2.15 17.1 2.15 17.0 2.15 17.0 Q2.1 16.9 2.1 16.8 L2.1 16.8 Q2.05 16.7 2.0 16.6 L2.0 16.6 Q1.9 16.55 1.8 16.55 L1.7 16.55 1.6 16.55 1.6 16.55 1.4 16.55 Q1.3 16.55 1.2 16.55 L1.0 16.7 Q1.0 16.7 1.0 16.7 0.9 16.75 0.8 16.8 L0.8 16.8 Q0.75 16.85 0.7 16.9 L0.7 16.9 0.6 16.95 0.6 16.95"/>
    </path>
    <path d="M-5.15 14.5 L-5.05 14.15 -4.8 13.0 -4.8 12.9 Q-3.9 12.0 -3.8 11.0 L-3.5 10.9 Q-1.95 10.6 -1.4 9.2 -1.15 9.0 -1.15 8.65 L-1.1 8.15 Q-1.0 7.25 -0.25 6.6 L1.75 6.6 2.0 6.85 2.6 7.5 2.6 7.8 Q2.5 8.95 3.2 9.8 L4.0 10.6 Q5.05 11.5 6.45 11.65 L6.45 11.7 Q6.25 12.55 6.35 13.5 L6.3 13.6 5.8 14.05 5.7 14.05 5.55 13.6 Q5.3 12.7 4.5 12.55 4.15 12.5 4.0 12.8 L3.8 13.3 Q3.2 15.4 5.0 16.8 L5.1 17.2 5.1 17.65 5.1 17.75 5.05 17.85 4.85 18.0 4.8 18.05 Q4.4 16.8 3.0 16.8 2.65 16.8 2.45 17.15 2.0 17.95 2.7 18.65 L2.95 18.85 Q3.0 20.25 2.55 21.5 L2.35 22.35 Q1.95 23.3 1.0 23.25 L1.0 23.2 1.0 23.1 1.0 23.05 1.0 22.95 Q1.85 21.95 1.85 20.7 L1.8 20.2 Q1.7 19.0 1.05 18.1 L0.7 17.7 0.65 17.5 0.6 17.05 Q0.7 16.05 -0.25 15.9 -1.2 15.75 -1.3 16.6 L-1.5 16.8 -1.55 16.9 Q-2.7 17.0 -2.85 18.0 L-2.9 18.1 -3.05 18.25 -3.25 18.55 -3.25 18.65 -4.1 18.85 -4.15 18.85 -3.9 18.35 Q-3.6 17.65 -3.6 16.85 L-3.4 16.0 Q-3.1 15.5 -2.6 15.15 -1.55 14.45 -1.7 13.15 -1.75 12.75 -2.05 12.6 -3.0 12.1 -3.25 12.95 L-3.3 13.2 -3.7 13.6 -5.15 14.5" fill="none" stroke="#000000" stroke-linecap="round" stroke-linejoin="round" stroke-opacity="0.0" stroke-width="1.0">
      <animate attributeName="stroke" dur="2s" repeatCount="indefinite" values="#000000;#000001"/>
      <animate attributeName="stroke-width" dur="2s" repeatCount="indefinite" values="0.0;0.0"/>
      <animate attributeName="fill-opacity" dur="2s" repeatCount="indefinite" values="0.0;0.0"/>
      <animate attributeName="d" dur="2s" repeatCount="indefinite" values="M-5.15 14.5 L-5.05 14.15 -4.8 13.0 -4.8 12.9 Q-3.9 12.0 -3.8 11.0 L-3.5 10.9 Q-1.95 10.6 -1.4 9.2 -1.15 9.0 -1.15 8.65 L-1.1 8.15 Q-1.0 7.25 -0.25 6.6 L1.75 6.6 2.0 6.85 2.6 7.5 2.6 7.8 Q2.5 8.95 3.2 9.8 L4.0 10.6 Q5.05 11.5 6.45 11.65 L6.45 11.7 Q6.25 12.55 6.35 13.5 L6.3 13.6 5.8 14.05 5.7 14.05 5.55 13.6 Q5.3 12.7 4.5 12.55 4.15 12.5 4.0 12.8 L3.8 13.3 Q3.2 15.4 5.0 16.8 L5.1 17.2 5.1 17.65 5.1 17.75 5.05 17.85 4.85 18.0 4.8 18.05 Q4.4 16.8 3.0 16.8 2.65 16.8 2.45 17.15 2.0 17.95 2.7 18.65 L2.95 18.85 Q3.0 20.25 2.55 21.5 L2.35 22.35 Q1.95 23.3 1.0 23.25 L1.0 23.2 1.0 23.1 1.0 23.05 1.0 22.95 Q1.85 21.95 1.85 20.7 L1.8 20.2 Q1.7 19.0 1.05 18.1 L0.7 17.7 0.65 17.5 0.6 17.05 Q0.7 16.05 -0.25 15.9 -1.2 15.75 -1.3 16.6 L-1.5 16.8 -1.55 16.9 Q-2.7 17.0 -2.85 18.0 L-2.9 18.1 -3.05 18.25 -3.25 18.55 -3.25 18.65 -4.1 18.85 -4.15 18.85 -3.9 18.35 Q-3.6 17.65 -3.6 16.85 L-3.4 16.0 Q-3.1 15.5 -2.6 15.15 -1.55 14.45 -1.7 13.15 -1.75 12.75 -2.05 12.6 -3.0 12.1 -3.25 12.95 L-3.3 13.2 -3.7 13.6 -5.15 14.5;M0.6 16.95 L0.6 16.95 0.7 16.9 0.7 16.9 Q0.75 16.85 0.8 16.8 L0.8 16.8 Q0.9 16.75 1.0 16.7 1.0 16.7 1.0 16.7 L1.2 16.55 Q1.3 16.55 1.4 16.55 L1.6 16.55 1.6 16.55 1.7 16.55 1.8 16.55 Q1.9 16.55 2.0 16.6 L2.0 16.6 Q2.05 16.7 2.1 16.8 L2.1 16.8 Q2.1 16.9 2.15 17.0 L2.15 17.0 2.15 17.1 2.15 17.1 2.15 17.1 Q2.15 17.1 2.15 17.1 2.15 17.1 2.15 17.1 L2.15 17.1 Q2.15 17.3 2.15 17.5 L2.15 17.5 2.15 17.5 2.15 17.5 2.15 17.5 2.15 17.5 2.15 17.5 Q2.15 17.6 2.15 17.7 2.15 17.7 2.15 17.7 2.15 17.85 2.1 18.05 L2.1 18.05 Q2.0 18.15 1.9 18.25 L1.9 18.25 Q1.85 18.3 1.8 18.35 L1.8 18.35 1.8 18.35 1.8 18.35 1.8 18.35 Q1.75 18.4 1.7 18.45 L1.5 18.5 Q1.4 18.5 1.3 18.5 L1.3 18.5 1.3 18.5 1.3 18.5 Q1.25 18.45 1.2 18.4 1.15 18.35 1.1 18.3 L1.1 18.3 1.1 18.3 Q1.05 18.25 1.0 18.2 L1.0 18.2 1.0 18.2 1.0 18.2 1.0 18.2 1.0 18.2 1.0 18.2 0.7 17.7 Q0.7 17.65 0.7 17.6 L0.65 17.5 Q0.65 17.5 0.65 17.45 0.65 17.35 0.6 17.25 0.6 17.25 0.6 17.25 0.6 17.15 0.6 17.05 L0.6 17.05 0.6 16.95 0.6 16.95"/>
    </path>
  </g>
  <defs>
    <radialGradient cx="0" cy="0" gradientTransform="matrix(0.0246, 0.0, 0.0, 0.0246, 1.9, 10.15)" gradientUnits="userSpaceOnUse" id="gradient0" r="819.2" spreadMethod="pad">
      <animateTransform additive="replace" attributeName="gradientTransform" dur="2s" from="1" repeatCount="indefinite" to="1" type="scale"/>
      <animateTransform additive="sum" attributeName="gradientTransform" dur="2s" from="1.9 10.15" repeatCount="indefinite" to="1.9 10.15" type="translate"/>
      <animateTransform additive="sum" attributeName="gradientTransform" dur="2s" from="0.0" repeatCount="indefinite" to="0.0" type="rotate"/>
      <animateTransform additive="sum" attributeName="gradientTransform" dur="2s" from="0.0246 0.0246" repeatCount="indefinite" to="0.0246 0.0246" type="scale"/>
      <animateTransform additive="sum" attributeName="gradientTransform" dur="2s" from="0.0" repeatCount="indefinite" to="0.0" type="skewX"/>
      <stop offset="0.0" stop-color="#fefe0c" stop-opacity="0.9019608">
        <animate attributeName="offset" dur="2s" repeatCount="indefinite" values="0.0;0.0"/>
        <animate attributeName="stop-color" dur="2s" repeatCount="indefinite" values="#fefe0c;#fefe0d"/>
        <animate attributeName="stop-opacity" dur="2s" repeatCount="indefinite" values="0.9019608;0.9019608"/>
      </stop>
      <stop offset="0.5764705882352941" stop-color="#ffba2b" stop-opacity="0.9019608">
        <animate attributeName="offset" dur="2s" repeatCount="indefinite" values="0.5764705882352941;0.5764705882352941"/>
        <animate attributeName="stop-color" dur="2s" repeatCount="indefinite" values="#ffba2b;#ffba2c"/>
        <animate attributeName="stop-opacity" dur="2s" repeatCount="indefinite" values="0.9019608;0.9019608"/>
      </stop>
      <stop offset="1.0" stop-color="#ff720b" stop-opacity="0.9019608">
        <animate attributeName="offset" dur="2s" repeatCount="indefinite" values="1.0;1.0"/>
        <animate attributeName="stop-color" dur="2s" repeatCount="indefinite" values="#ff720b;#ff720c"/>
        <animate attributeName="stop-opacity" dur="2s" repeatCount="indefinite" values="0.9019608;0.9019608"/>
      </stop>
    </radialGradient>
  </defs>
</svg>
