<?xml version="1.0" encoding="UTF-8" standalone="no"?>
<svg xmlns:xlink="http://www.w3.org/1999/xlink" height="13.8px" width="35.2px" xmlns="http://www.w3.org/2000/svg">
  <g transform="matrix(1.0, 0.0, 0.0, 1.0, 17.1, 6.75)">
    <path d="M-17.1 0.15 Q-17.1 3.0 -11.95 5.0 L-11.75 5.1 -10.0 5.7 Q-5.45 7.05 0.5 7.05 7.8 7.05 12.95 5.0 L13.1 4.95 15.15 4.0 Q18.1 2.3 18.1 0.15 18.1 -2.0 15.15 -3.7 L13.1 -4.65 12.95 -4.75 Q7.8 -6.75 0.5 -6.75 -5.45 -6.75 -10.0 -5.4 L-11.75 -4.8 -11.95 -4.75 Q-17.1 -2.7 -17.1 0.15" fill="url(#gradient0)" fill-rule="evenodd" stroke="none">
      <animate attributeName="d" dur="2s" repeatCount="indefinite" values="M-17.1 0.15 Q-17.1 3.0 -11.95 5.0 L-11.75 5.1 -10.0 5.7 Q-5.45 7.05 0.5 7.05 7.8 7.05 12.95 5.0 L13.1 4.95 15.15 4.0 Q18.1 2.3 18.1 0.15 18.1 -2.0 15.15 -3.7 L13.1 -4.65 12.95 -4.75 Q7.8 -6.75 0.5 -6.75 -5.45 -6.75 -10.0 -5.4 L-11.75 -4.8 -11.95 -4.75 Q-17.1 -2.7 -17.1 0.15;M-17.1 0.15 Q-17.1 3.0 -11.95 5.0 L-11.75 5.1 -10.0 5.7 Q-5.45 7.05 0.5 7.05 7.8 7.05 12.95 5.0 L13.1 4.95 15.15 4.0 Q18.1 2.3 18.1 0.15 18.1 -2.0 15.15 -3.7 L13.1 -4.65 12.95 -4.75 Q7.8 -6.75 0.5 -6.75 -5.45 -6.75 -10.0 -5.4 L-11.75 -4.8 -11.95 -4.75 Q-17.1 -2.7 -17.1 0.15"/>
    </path>
    <path d="M-17.1 0.15 Q-17.1 -2.7 -11.95 -4.75 L-11.75 -4.8 -10.0 -5.4 Q-5.45 -6.75 0.5 -6.75 7.8 -6.75 12.95 -4.75 L13.1 -4.65 15.15 -3.7 Q18.1 -2.0 18.1 0.15 18.1 2.3 15.15 4.0 L13.1 4.95 12.95 5.0 Q7.8 7.05 0.5 7.05 -5.45 7.05 -10.0 5.7 L-11.75 5.1 -11.95 5.0 Q-17.1 3.0 -17.1 0.15" fill="none" stroke="#000000" stroke-linecap="round" stroke-linejoin="round" stroke-opacity="0.0" stroke-width="1.0">
      <animate attributeName="stroke" dur="2s" repeatCount="indefinite" values="#000000;#000001"/>
      <animate attributeName="stroke-width" dur="2s" repeatCount="indefinite" values="0.0;0.0"/>
      <animate attributeName="fill-opacity" dur="2s" repeatCount="indefinite" values="0.0;0.0"/>
      <animate attributeName="d" dur="2s" repeatCount="indefinite" values="M-17.1 0.15 Q-17.1 -2.7 -11.95 -4.75 L-11.75 -4.8 -10.0 -5.4 Q-5.45 -6.75 0.5 -6.75 7.8 -6.75 12.95 -4.75 L13.1 -4.65 15.15 -3.7 Q18.1 -2.0 18.1 0.15 18.1 2.3 15.15 4.0 L13.1 4.95 12.95 5.0 Q7.8 7.05 0.5 7.05 -5.45 7.05 -10.0 5.7 L-11.75 5.1 -11.95 5.0 Q-17.1 3.0 -17.1 0.15;M-17.1 0.15 Q-17.1 -2.7 -11.95 -4.75 L-11.75 -4.8 -10.0 -5.4 Q-5.45 -6.75 0.5 -6.75 7.8 -6.75 12.95 -4.75 L13.1 -4.65 15.15 -3.7 Q18.1 -2.0 18.1 0.15 18.1 2.3 15.15 4.0 L13.1 4.95 12.95 5.0 Q7.8 7.05 0.5 7.05 -5.45 7.05 -10.0 5.7 L-11.75 5.1 -11.95 5.0 Q-17.1 3.0 -17.1 0.15"/>
    </path>
  </g>
  <defs>
    <radialGradient cx="0" cy="0" gradientTransform="matrix(0.0221, 0.0, 0.0, 0.0221, 0.5, 0.15)" gradientUnits="userSpaceOnUse" id="gradient0" r="819.2" spreadMethod="pad">
      <animateTransform additive="replace" attributeName="gradientTransform" dur="2s" from="1" repeatCount="indefinite" to="1" type="scale"/>
      <animateTransform additive="sum" attributeName="gradientTransform" dur="2s" from="0.5 0.15" repeatCount="indefinite" to="0.5 0.15" type="translate"/>
      <animateTransform additive="sum" attributeName="gradientTransform" dur="2s" from="0.0" repeatCount="indefinite" to="0.0" type="rotate"/>
      <animateTransform additive="sum" attributeName="gradientTransform" dur="2s" from="0.0221 0.0221" repeatCount="indefinite" to="0.0221 0.0221" type="scale"/>
      <animateTransform additive="sum" attributeName="gradientTransform" dur="2s" from="0.0" repeatCount="indefinite" to="0.0" type="skewX"/>
      <stop offset="0.9098039215686274" stop-color="#000000">
        <animate attributeName="offset" dur="2s" repeatCount="indefinite" values="0.9098039215686274;0.0"/>
        <animate attributeName="stop-color" dur="2s" repeatCount="indefinite" values="#000000;#979798"/>
        <animate attributeName="stop-opacity" dur="2s" repeatCount="indefinite" values="1.0;1.0"/>
      </stop>
      <stop offset="1.0" stop-color="#000000" stop-opacity="0.0">
        <animate attributeName="offset" dur="2s" repeatCount="indefinite" values="1.0;1.0"/>
        <animate attributeName="stop-color" dur="2s" repeatCount="indefinite" values="#000000;#ffffff"/>
        <animate attributeName="stop-opacity" dur="2s" repeatCount="indefinite" values="0.0;0.0"/>
      </stop>
    </radialGradient>
  </defs>
</svg>
