<?xml version="1.0" encoding="UTF-8" standalone="no"?>
<svg xmlns:xlink="http://www.w3.org/1999/xlink" height="60.1px" width="41.1px" xmlns="http://www.w3.org/2000/svg">
  <g transform="matrix(1.0, 0.0, 0.0, 1.0, 21.2, 41.1)">
    <path d="M-20.2 0.15 Q-20.2 7.55 -14.5 12.75 -11.45 15.55 -7.75 16.85 -4.45 18.0 -0.65 18.0 7.45 18.0 13.15 12.75 L14.1 11.85 Q18.9 6.9 18.9 0.15 18.9 -4.5 15.85 -9.85 14.05 -12.75 9.3 -14.7 5.0 -16.4 1.55 -16.25 L3.75 -17.35 5.5 -18.35 Q7.5 -19.65 8.7 -21.15 11.15 -24.3 11.15 -29.4 11.15 -34.95 7.9 -37.6 4.9 -40.1 -0.9 -40.1 -6.7 -40.1 -9.85 -37.0 -11.15 -35.7 -12.45 -33.0 L-13.15 -31.4 Q-13.5 -30.65 -13.25 -27.95 -12.9 -24.3 -11.35 -21.15 -10.7 -19.85 -7.25 -17.75 -4.5 -16.1 -7.25 -15.65 -9.4 -15.05 -11.8 -13.75 -15.8 -11.6 -17.4 -9.0 -20.2 -4.5 -20.2 0.15" fill="url(#gradient0)" fill-rule="evenodd" stroke="none">
      <animate attributeName="d" dur="2s" repeatCount="indefinite" values="M-20.2 0.15 Q-20.2 7.55 -14.5 12.75 -11.45 15.55 -7.75 16.85 -4.45 18.0 -0.65 18.0 7.45 18.0 13.15 12.75 L14.1 11.85 Q18.9 6.9 18.9 0.15 18.9 -4.5 15.85 -9.85 14.05 -12.75 9.3 -14.7 5.0 -16.4 1.55 -16.25 L3.75 -17.35 5.5 -18.35 Q7.5 -19.65 8.7 -21.15 11.15 -24.3 11.15 -29.4 11.15 -34.95 7.9 -37.6 4.9 -40.1 -0.9 -40.1 -6.7 -40.1 -9.85 -37.0 -11.15 -35.7 -12.45 -33.0 L-13.15 -31.4 Q-13.5 -30.65 -13.25 -27.95 -12.9 -24.3 -11.35 -21.15 -10.7 -19.85 -7.25 -17.75 -4.5 -16.1 -7.25 -15.65 -9.4 -15.05 -11.8 -13.75 -15.8 -11.6 -17.4 -9.0 -20.2 -4.5 -20.2 0.15;M-11.3 0.2 Q-11.3 3.1 -9.8 5.45 -8.85 6.55 -7.95 7.6 -6.85 8.4 -5.75 9.2 -3.3 10.6 -0.3 10.7 L0.2 10.7 Q2.95 10.7 5.25 9.65 6.9 8.9 8.55 7.4 9.8 6.2 10.55 4.8 11.3 3.45 11.55 1.95 L11.65 1.0 11.7 0.2 Q11.65 -0.6 11.6 -1.35 11.35 -3.05 10.5 -4.55 9.4 -5.9 8.3 -7.25 7.0 -8.45 5.5 -9.15 3.7 -9.7 1.95 -10.2 1.05 -10.25 0.2 -10.3 L-0.6 -10.3 Q-1.3 -10.2 -2.0 -10.15 -3.35 -9.75 -4.65 -9.35 -5.55 -8.85 -6.45 -8.4 -7.2 -7.8 -7.95 -7.25 -8.6 -6.55 -9.25 -5.9 -10.15 -4.75 -10.65 -3.45 -11.3 -1.75 -11.3 0.2"/>
    </path>
    <path d="M-20.2 0.15 Q-20.2 -4.5 -17.4 -9.0 -15.8 -11.6 -11.8 -13.75 -9.4 -15.05 -7.25 -15.65 -4.5 -16.1 -7.25 -17.75 -10.7 -19.85 -11.35 -21.15 -12.9 -24.3 -13.25 -27.95 -13.5 -30.65 -13.15 -31.4 L-12.45 -33.0 Q-11.15 -35.7 -9.85 -37.0 -6.7 -40.1 -0.9 -40.1 4.9 -40.1 7.9 -37.6 11.15 -34.95 11.15 -29.4 11.15 -24.3 8.7 -21.15 7.5 -19.65 5.5 -18.35 L3.75 -17.35 1.55 -16.25 Q5.0 -16.4 9.3 -14.7 14.05 -12.75 15.85 -9.85 18.9 -4.5 18.9 0.15 18.9 6.9 14.1 11.85 L13.15 12.75 Q7.45 18.0 -0.65 18.0 -4.45 18.0 -7.75 16.85 -11.45 15.55 -14.5 12.75 -20.2 7.55 -20.2 0.15 -20.2 -4.5 -17.4 -9.0 -15.8 -11.6 -11.8 -13.75 -9.4 -15.05 -7.25 -15.65 -4.5 -16.1 -7.25 -17.75 -10.7 -19.85 -11.35 -21.15 -12.9 -24.3 -13.25 -27.95 -13.5 -30.65 -13.15 -31.4 L-12.45 -33.0 Q-11.15 -35.7 -9.85 -37.0 -6.7 -40.1 -0.9 -40.1 4.9 -40.1 7.9 -37.6 11.15 -34.95 11.15 -29.4 11.15 -24.3 8.7 -21.15 7.5 -19.65 5.5 -18.35 L3.75 -17.35 1.55 -16.25 Q5.0 -16.4 9.3 -14.7 14.05 -12.75 15.85 -9.85 18.9 -4.5 18.9 0.15 18.9 6.9 14.1 11.85 L13.15 12.75 Q7.45 18.0 -0.65 18.0 -4.45 18.0 -7.75 16.85 -11.45 15.55 -14.5 12.75 -20.2 7.55 -20.2 0.15" fill="none" stroke="#000000" stroke-linecap="round" stroke-linejoin="round" stroke-width="2.0">
      <animate attributeName="stroke" dur="2s" repeatCount="indefinite" values="#000000;#000001"/>
      <animate attributeName="stroke-width" dur="2s" repeatCount="indefinite" values="2.0;2.0"/>
      <animate attributeName="fill-opacity" dur="2s" repeatCount="indefinite" values="1.0;1.0"/>
      <animate attributeName="d" dur="2s" repeatCount="indefinite" values="M-20.2 0.15 Q-20.2 -4.5 -17.4 -9.0 -15.8 -11.6 -11.8 -13.75 -9.4 -15.05 -7.25 -15.65 -4.5 -16.1 -7.25 -17.75 -10.7 -19.85 -11.35 -21.15 -12.9 -24.3 -13.25 -27.95 -13.5 -30.65 -13.15 -31.4 L-12.45 -33.0 Q-11.15 -35.7 -9.85 -37.0 -6.7 -40.1 -0.9 -40.1 4.9 -40.1 7.9 -37.6 11.15 -34.95 11.15 -29.4 11.15 -24.3 8.7 -21.15 7.5 -19.65 5.5 -18.35 L3.75 -17.35 1.55 -16.25 Q5.0 -16.4 9.3 -14.7 14.05 -12.75 15.85 -9.85 18.9 -4.5 18.9 0.15 18.9 6.9 14.1 11.85 L13.15 12.75 Q7.45 18.0 -0.65 18.0 -4.45 18.0 -7.75 16.85 -11.45 15.55 -14.5 12.75 -20.2 7.55 -20.2 0.15 -20.2 -4.5 -17.4 -9.0 -15.8 -11.6 -11.8 -13.75 -9.4 -15.05 -7.25 -15.65 -4.5 -16.1 -7.25 -17.75 -10.7 -19.85 -11.35 -21.15 -12.9 -24.3 -13.25 -27.95 -13.5 -30.65 -13.15 -31.4 L-12.45 -33.0 Q-11.15 -35.7 -9.85 -37.0 -6.7 -40.1 -0.9 -40.1 4.9 -40.1 7.9 -37.6 11.15 -34.95 11.15 -29.4 11.15 -24.3 8.7 -21.15 7.5 -19.65 5.5 -18.35 L3.75 -17.35 1.55 -16.25 Q5.0 -16.4 9.3 -14.7 14.05 -12.75 15.85 -9.85 18.9 -4.5 18.9 0.15 18.9 6.9 14.1 11.85 L13.15 12.75 Q7.45 18.0 -0.65 18.0 -4.45 18.0 -7.75 16.85 -11.45 15.55 -14.5 12.75 -20.2 7.55 -20.2 0.15;M-11.3 0.2 Q-11.3 -1.75 -10.65 -3.45 -10.15 -4.75 -9.25 -5.9 -8.6 -6.55 -7.95 -7.25 -7.2 -7.8 -6.45 -8.4 -5.55 -8.85 -4.65 -9.35 -3.35 -9.75 -2.0 -10.15 -1.3 -10.2 -0.6 -10.3 L0.2 -10.3 Q1.05 -10.25 1.95 -10.2 3.7 -9.7 5.5 -9.15 7.0 -8.45 8.3 -7.25 9.4 -5.9 10.5 -4.55 11.35 -3.05 11.6 -1.35 11.65 -0.6 11.7 0.2 L11.65 1.0 11.55 1.95 Q11.3 3.45 10.55 4.8 9.8 6.2 8.55 7.4 6.9 8.9 5.25 9.65 2.95 10.7 0.2 10.7 L-0.3 10.7 Q-3.3 10.6 -5.75 9.2 -6.85 8.4 -7.95 7.6 -8.85 6.55 -9.8 5.45 -11.3 3.1 -11.3 0.2 -11.3 -1.75 -10.65 -3.45 -10.15 -4.75 -9.25 -5.9 -8.6 -6.55 -7.95 -7.25 -7.2 -7.8 -6.45 -8.4 -5.55 -8.85 -4.65 -9.35 -3.35 -9.75 -2.0 -10.15 -1.3 -10.2 -0.6 -10.3 L0.2 -10.3 Q1.05 -10.25 1.95 -10.2 3.7 -9.7 5.5 -9.15 7.0 -8.45 8.3 -7.25 9.4 -5.9 10.5 -4.55 11.35 -3.05 11.6 -1.35 11.65 -0.6 11.7 0.2 L11.65 1.0 11.55 1.95 Q11.3 3.45 10.55 4.8 9.8 6.2 8.55 7.4 6.9 8.9 5.25 9.65 2.95 10.7 0.2 10.7 L-0.3 10.7 Q-3.3 10.6 -5.75 9.2 -6.85 8.4 -7.95 7.6 -8.85 6.55 -9.8 5.45 -11.3 3.1 -11.3 0.2"/>
    </path>
  </g>
  <defs>
    <radialGradient cx="0" cy="0" gradientTransform="matrix(0.0739, -0.0361, 0.0268, 0.0548, 0.7, 3.3)" gradientUnits="userSpaceOnUse" id="gradient0" r="819.2" spreadMethod="pad">
      <animateTransform additive="replace" attributeName="gradientTransform" dur="2s" from="1" repeatCount="indefinite" to="1" type="scale"/>
      <animateTransform additive="sum" attributeName="gradientTransform" dur="2s" from="0.7 3.3" repeatCount="indefinite" to="1.25 -0.1" type="translate"/>
      <animateTransform additive="sum" attributeName="gradientTransform" dur="2s" from="-26.0183" repeatCount="indefinite" to="-26.1076" type="rotate"/>
      <animateTransform additive="sum" attributeName="gradientTransform" dur="2s" from="0.0822 0.061" repeatCount="indefinite" to="0.0171 0.0162" type="scale"/>
      <animateTransform additive="sum" attributeName="gradientTransform" dur="2s" from="0.0062" repeatCount="indefinite" to="-0.0688" type="skewX"/>
      <stop offset="0.0" stop-color="#505050">
        <animate attributeName="offset" dur="2s" repeatCount="indefinite" values="0.0;0.0"/>
        <animate attributeName="stop-color" dur="2s" repeatCount="indefinite" values="#505050;#a632ce"/>
        <animate attributeName="stop-opacity" dur="2s" repeatCount="indefinite" values="1.0;1.0"/>
      </stop>
      <stop offset="0.3058823529411765" stop-color="#959595">
        <animate attributeName="offset" dur="2s" repeatCount="indefinite" values="0.3058823529411765;0.3176470588235294"/>
        <animate attributeName="stop-color" dur="2s" repeatCount="indefinite" values="#959595;#830fa0"/>
        <animate attributeName="stop-opacity" dur="2s" repeatCount="indefinite" values="1.0;1.0"/>
      </stop>
      <stop offset="0.7686274509803922" stop-color="#4ad35a">
        <animate attributeName="offset" dur="2s" repeatCount="indefinite" values="0.7686274509803922;0.8235294117647058"/>
        <animate attributeName="stop-color" dur="2s" repeatCount="indefinite" values="#4ad35a;#000001"/>
        <animate attributeName="stop-opacity" dur="2s" repeatCount="indefinite" values="1.0;1.0"/>
      </stop>
      <stop offset="1.0" stop-color="#21ae21">
        <animate attributeName="offset" dur="2s" repeatCount="indefinite" values="1.0;0.8235294117647058"/>
        <animate attributeName="stop-color" dur="2s" repeatCount="indefinite" values="#21ae21;#000001"/>
        <animate attributeName="stop-opacity" dur="2s" repeatCount="indefinite" values="1.0;1.0"/>
      </stop>
    </radialGradient>
  </defs>
</svg>
