<?xml version="1.0" encoding="UTF-8" standalone="no"?>
<svg xmlns:xlink="http://www.w3.org/1999/xlink" height="54.8px" width="41.1px" xmlns="http://www.w3.org/2000/svg">
  <g transform="matrix(1.0, 0.0, 0.0, 1.0, 20.55, 35.95)">
    <path d="M-12.25 -23.4 L-12.25 -23.4 Q-11.65 -20.1 -9.5 -17.9 -9.0 -17.4 -3.6 -13.2 -2.75 -12.6 -3.45 -11.6 L-3.7 -11.3 Q-5.3 -10.0 -6.85 -8.7 -12.15 -4.35 -12.0 -0.15 L-11.6 2.5 Q-10.55 6.2 -6.9 8.85 -3.0 11.7 0.75 11.7 L2.05 11.6 Q4.85 11.2 7.4 9.05 11.3 5.85 11.7 0.65 L11.7 -0.1 Q11.45 -3.75 6.8 -8.15 L3.8 -11.1 Q2.8 -12.35 3.75 -13.05 8.2 -15.95 9.3 -17.15 11.2 -19.15 11.75 -22.65 12.15 -25.35 11.65 -27.7 L11.55 -28.2 Q11.0 -30.6 9.9 -31.55 5.95 -35.2 -2.55 -34.95 -6.45 -34.25 -9.45 -31.55 -13.1 -28.25 -12.25 -23.4" fill="url(#gradient0)" fill-rule="evenodd" stroke="none">
      <animate attributeName="d" dur="2s" repeatCount="indefinite" values="M-12.25 -23.4 L-12.25 -23.4 Q-11.65 -20.1 -9.5 -17.9 -9.0 -17.4 -3.6 -13.2 -2.75 -12.6 -3.45 -11.6 L-3.7 -11.3 Q-5.3 -10.0 -6.85 -8.7 -12.15 -4.35 -12.0 -0.15 L-11.6 2.5 Q-10.55 6.2 -6.9 8.85 -3.0 11.7 0.75 11.7 L2.05 11.6 Q4.85 11.2 7.4 9.05 11.3 5.85 11.7 0.65 L11.7 -0.1 Q11.45 -3.75 6.8 -8.15 L3.8 -11.1 Q2.8 -12.35 3.75 -13.05 8.2 -15.95 9.3 -17.15 11.2 -19.15 11.75 -22.65 12.15 -25.35 11.65 -27.7 L11.55 -28.2 Q11.0 -30.6 9.9 -31.55 5.95 -35.2 -2.55 -34.95 -6.45 -34.25 -9.45 -31.55 -13.1 -28.25 -12.25 -23.4;M-19.55 0.0 L-19.55 0.3 Q-19.5 3.05 -18.65 5.6 -17.5 8.8 -15.0 11.45 -14.4 12.05 -13.85 12.6 L-13.4 13.0 Q-11.95 14.25 -10.35 15.15 -6.65 17.3 -2.25 17.75 L0.0 17.85 Q3.7 17.85 6.95 16.75 10.2 15.6 12.9 13.35 L13.8 12.6 Q15.8 10.75 17.1 8.65 19.35 5.05 19.55 0.7 L19.55 0.0 Q19.55 -4.65 17.3 -8.45 L15.2 -11.25 Q14.5 -11.95 13.8 -12.65 11.65 -14.6 9.15 -15.8 6.85 -16.95 4.25 -17.45 2.1 -17.65 0.0 -17.85 L-0.2 -17.85 Q-1.9 -17.7 -3.55 -17.6 -8.25 -16.85 -13.85 -12.65 -16.5 -10.2 -17.9 -7.3 -19.55 -3.95 -19.55 0.0"/>
    </path>
    <path d="M-12.25 -23.4 Q-13.1 -28.25 -9.45 -31.55 -6.45 -34.25 -2.55 -34.95 5.95 -35.2 9.9 -31.55 11.0 -30.6 11.55 -28.2 L11.65 -27.7 Q12.15 -25.35 11.75 -22.65 11.2 -19.15 9.3 -17.15 8.2 -15.95 3.75 -13.05 2.8 -12.35 3.8 -11.1 L6.8 -8.15 Q11.45 -3.75 11.7 -0.1 L11.7 0.65 Q11.3 5.85 7.4 9.05 4.85 11.2 2.05 11.6 L0.75 11.7 Q-3.0 11.7 -6.9 8.85 -10.55 6.2 -11.6 2.5 L-12.0 -0.15 Q-12.15 -4.35 -6.85 -8.7 -5.3 -10.0 -3.7 -11.3 L-3.45 -11.6 Q-2.75 -12.6 -3.6 -13.2 -9.0 -17.4 -9.5 -17.9 -11.65 -20.1 -12.25 -23.4 -13.1 -28.25 -9.45 -31.55 -6.45 -34.25 -2.55 -34.95 5.95 -35.2 9.9 -31.55 11.0 -30.6 11.55 -28.2 L11.65 -27.7 Q12.15 -25.35 11.75 -22.65 11.2 -19.15 9.3 -17.15 8.2 -15.95 3.75 -13.05 2.8 -12.35 3.8 -11.1 L6.8 -8.15 Q11.45 -3.75 11.7 -0.1 L11.7 0.65 Q11.3 5.85 7.4 9.05 4.85 11.2 2.05 11.6 L0.75 11.7 Q-3.0 11.7 -6.9 8.85 -10.55 6.2 -11.6 2.5 L-12.0 -0.15 Q-12.15 -4.35 -6.85 -8.7 -5.3 -10.0 -3.7 -11.3 L-3.45 -11.6 Q-2.75 -12.6 -3.6 -13.2 -9.0 -17.4 -9.5 -17.9 -11.65 -20.1 -12.25 -23.4 L-12.25 -23.4" fill="none" stroke="#000000" stroke-linecap="round" stroke-linejoin="round" stroke-width="2.0">
      <animate attributeName="stroke" dur="2s" repeatCount="indefinite" values="#000000;#000001"/>
      <animate attributeName="stroke-width" dur="2s" repeatCount="indefinite" values="2.0;2.0"/>
      <animate attributeName="fill-opacity" dur="2s" repeatCount="indefinite" values="1.0;1.0"/>
      <animate attributeName="d" dur="2s" repeatCount="indefinite" values="M-12.25 -23.4 Q-13.1 -28.25 -9.45 -31.55 -6.45 -34.25 -2.55 -34.95 5.95 -35.2 9.9 -31.55 11.0 -30.6 11.55 -28.2 L11.65 -27.7 Q12.15 -25.35 11.75 -22.65 11.2 -19.15 9.3 -17.15 8.2 -15.95 3.75 -13.05 2.8 -12.35 3.8 -11.1 L6.8 -8.15 Q11.45 -3.75 11.7 -0.1 L11.7 0.65 Q11.3 5.85 7.4 9.05 4.85 11.2 2.05 11.6 L0.75 11.7 Q-3.0 11.7 -6.9 8.85 -10.55 6.2 -11.6 2.5 L-12.0 -0.15 Q-12.15 -4.35 -6.85 -8.7 -5.3 -10.0 -3.7 -11.3 L-3.45 -11.6 Q-2.75 -12.6 -3.6 -13.2 -9.0 -17.4 -9.5 -17.9 -11.65 -20.1 -12.25 -23.4 -13.1 -28.25 -9.45 -31.55 -6.45 -34.25 -2.55 -34.95 5.95 -35.2 9.9 -31.55 11.0 -30.6 11.55 -28.2 L11.65 -27.7 Q12.15 -25.35 11.75 -22.65 11.2 -19.15 9.3 -17.15 8.2 -15.95 3.75 -13.05 2.8 -12.35 3.8 -11.1 L6.8 -8.15 Q11.45 -3.75 11.7 -0.1 L11.7 0.65 Q11.3 5.85 7.4 9.05 4.85 11.2 2.05 11.6 L0.75 11.7 Q-3.0 11.7 -6.9 8.85 -10.55 6.2 -11.6 2.5 L-12.0 -0.15 Q-12.15 -4.35 -6.85 -8.7 -5.3 -10.0 -3.7 -11.3 L-3.45 -11.6 Q-2.75 -12.6 -3.6 -13.2 -9.0 -17.4 -9.5 -17.9 -11.65 -20.1 -12.25 -23.4 L-12.25 -23.4;M-19.55 0.0 Q-19.55 -3.95 -17.9 -7.3 -16.5 -10.2 -13.85 -12.65 -8.25 -16.85 -3.55 -17.6 -1.9 -17.7 -0.2 -17.85 L0.0 -17.85 Q2.1 -17.65 4.25 -17.45 6.85 -16.95 9.15 -15.8 11.65 -14.6 13.8 -12.65 14.5 -11.95 15.2 -11.25 L17.3 -8.45 Q19.55 -4.65 19.55 0.0 L19.55 0.7 Q19.35 5.05 17.1 8.65 15.8 10.75 13.8 12.6 L12.9 13.35 Q10.2 15.6 6.95 16.75 3.7 17.85 0.0 17.85 L-2.25 17.75 Q-6.65 17.3 -10.35 15.15 -11.95 14.25 -13.4 13.0 L-13.85 12.6 Q-14.4 12.05 -15.0 11.45 -17.5 8.8 -18.65 5.6 -19.5 3.05 -19.55 0.3 -19.55 -3.95 -17.9 -7.3 -16.5 -10.2 -13.85 -12.65 -8.25 -16.85 -3.55 -17.6 -1.9 -17.7 -0.2 -17.85 L0.0 -17.85 Q2.1 -17.65 4.25 -17.45 6.85 -16.95 9.15 -15.8 11.65 -14.6 13.8 -12.65 14.5 -11.95 15.2 -11.25 L17.3 -8.45 Q19.55 -4.65 19.55 0.0 L19.55 0.7 Q19.35 5.05 17.1 8.65 15.8 10.75 13.8 12.6 L12.9 13.35 Q10.2 15.6 6.95 16.75 3.7 17.85 0.0 17.85 L-2.25 17.75 Q-6.65 17.3 -10.35 15.15 -11.95 14.25 -13.4 13.0 L-13.85 12.6 Q-14.4 12.05 -15.0 11.45 -17.5 8.8 -18.65 5.6 -19.5 3.05 -19.55 0.3 L-19.55 0.0"/>
    </path>
  </g>
  <defs>
    <radialGradient cx="0" cy="0" gradientTransform="matrix(0.0413, -0.0202, 0.0138, 0.0282, 2.9, -8.25)" gradientUnits="userSpaceOnUse" id="gradient0" r="819.2" spreadMethod="pad">
      <animateTransform additive="replace" attributeName="gradientTransform" dur="2s" from="1" repeatCount="indefinite" to="1" type="scale"/>
      <animateTransform additive="sum" attributeName="gradientTransform" dur="2s" from="2.9 -8.25" repeatCount="indefinite" to="5.1 4.25" type="translate"/>
      <animateTransform additive="sum" attributeName="gradientTransform" dur="2s" from="-26.0379" repeatCount="indefinite" to="-26.0326" type="rotate"/>
      <animateTransform additive="sum" attributeName="gradientTransform" dur="2s" from="0.046 0.0314" repeatCount="indefinite" to="0.0419 0.0285" type="scale"/>
      <animateTransform additive="sum" attributeName="gradientTransform" dur="2s" from="-0.0061" repeatCount="indefinite" to="-0.0012" type="skewX"/>
      <stop offset="0.0" stop-color="#0d2f93">
        <animate attributeName="offset" dur="2s" repeatCount="indefinite" values="0.0;0.0"/>
        <animate attributeName="stop-color" dur="2s" repeatCount="indefinite" values="#0d2f93;#0d2f94"/>
        <animate attributeName="stop-opacity" dur="2s" repeatCount="indefinite" values="1.0;1.0"/>
      </stop>
      <stop offset="0.5764705882352941" stop-color="#358bf4">
        <animate attributeName="offset" dur="2s" repeatCount="indefinite" values="0.5764705882352941;0.5764705882352941"/>
        <animate attributeName="stop-color" dur="2s" repeatCount="indefinite" values="#358bf4;#358bf5"/>
        <animate attributeName="stop-opacity" dur="2s" repeatCount="indefinite" values="1.0;1.0"/>
      </stop>
      <stop offset="1.0" stop-color="#ffffff">
        <animate attributeName="offset" dur="2s" repeatCount="indefinite" values="1.0;1.0"/>
        <animate attributeName="stop-color" dur="2s" repeatCount="indefinite" values="#ffffff;#ffffff"/>
        <animate attributeName="stop-opacity" dur="2s" repeatCount="indefinite" values="1.0;1.0"/>
      </stop>
    </radialGradient>
  </defs>
</svg>
