<?xml version="1.0" encoding="UTF-8" standalone="no"?>
<svg xmlns:xlink="http://www.w3.org/1999/xlink" height="55.4px" width="46.6px" xmlns="http://www.w3.org/2000/svg">
  <g transform="matrix(1.0, 0.0, 0.0, 1.0, 18.35, 36.8)">
    <path d="M-3.8 -10.85 L-3.8 -10.85 Q-0.5 -12.65 2.65 -12.85 3.25 -16.45 2.5 -19.6 2.1 -20.7 1.75 -21.75 -1.15 -23.05 -1.95 -22.15 -2.4 -21.65 -2.3 -17.4 -3.55 -14.6 -3.8 -10.85 M-3.9 5.0 L-3.9 5.0 Q-3.75 5.35 -3.6 5.65 -2.9 6.35 -2.25 7.0 -1.35 7.3 -0.45 7.6 0.15 7.65 0.75 7.7 1.1 7.7 1.45 7.7 1.65 7.7 1.85 7.7 2.85 7.75 3.8 7.8 4.05 7.8 4.25 7.8 6.05 7.8 4.8 6.6 4.5 6.3 4.2 6.05 3.9 5.8 3.1 5.6 2.3 5.7 1.5 5.75 0.45 5.7 -0.6 5.7 -1.3 5.6 -2.0 5.5 -2.95 5.25 -3.9 5.0 M-6.75 -4.7 Q-6.9 -3.55 -5.65 -3.35 -1.15 -2.5 0.55 1.3 1.15 2.85 3.75 1.85 7.6 0.35 6.55 -4.85 L5.95 -6.7 Q4.7 -9.25 1.75 -10.25 L-1.5 -9.85 Q-6.15 -9.3 -6.75 -4.7 M-7.25 0.75 Q-7.5 1.1 -7.7 1.4 -7.95 2.05 -8.15 2.7 -8.15 3.25 -7.45 3.35 -6.8 3.35 -6.15 3.35 -5.65 3.25 -5.15 3.15 L-5.05 2.95 -4.6 2.0 Q-4.45 1.5 -4.3 1.0 -4.25 0.25 -4.95 0.15 L-6.2 0.35 Q-6.75 0.55 -7.25 0.75 M-15.75 -1.75 L-15.75 -1.75 Q-15.8 0.55 -15.4 2.45 -14.9 5.05 -13.6 7.0 L-12.65 8.15 Q-10.4 10.55 -6.95 10.4 L-5.85 10.3 -2.75 9.9 -2.25 9.85 Q-0.9 9.8 0.05 10.35 0.95 10.9 1.5 12.0 L2.5 13.2 3.45 13.85 3.65 13.95 Q5.95 15.1 7.7 14.7 8.95 14.4 9.9 13.35 L10.8 12.1 Q12.0 9.95 12.5 7.55 12.6 6.9 12.7 6.25 12.8 4.75 12.9 3.25 12.8 0.9 12.75 -1.45 L12.6 -3.15 12.6 -3.45 Q12.25 -6.1 11.4 -8.5 L11.1 -9.3 Q10.1 -11.7 8.3 -13.65 7.15 -14.65 6.05 -15.65 L5.85 -15.8 Q4.25 -17.2 4.65 -20.5 L4.8 -21.55 Q5.15 -24.05 5.5 -26.5 4.95 -26.75 4.4 -26.95 L-1.45 -26.75 -2.85 -26.0 -6.1 -23.55 -6.5 -23.2 Q-6.85 -22.85 -7.2 -22.5 -8.8 -20.6 -10.35 -18.75 L-10.75 -18.15 Q-12.15 -15.95 -13.25 -13.3 -13.75 -12.1 -14.2 -10.9 -14.65 -9.2 -15.1 -7.5 -15.65 -4.8 -15.75 -1.75" fill="#cf1f1f" fill-opacity="0.5019608" fill-rule="evenodd" stroke="none">
      <animate attributeName="fill" dur="2s" repeatCount="indefinite" values="#cf1f1f;#cf1f20"/>
      <animate attributeName="fill-opacity" dur="2s" repeatCount="indefinite" values="0.5019608;0.5019608"/>
      <animate attributeName="d" dur="2s" repeatCount="indefinite" values="M-3.8 -10.85 L-3.8 -10.85 Q-0.5 -12.65 2.65 -12.85 3.25 -16.45 2.5 -19.6 2.1 -20.7 1.75 -21.75 -1.15 -23.05 -1.95 -22.15 -2.4 -21.65 -2.3 -17.4 -3.55 -14.6 -3.8 -10.85 M-3.9 5.0 L-3.9 5.0 Q-3.75 5.35 -3.6 5.65 -2.9 6.35 -2.25 7.0 -1.35 7.3 -0.45 7.6 0.15 7.65 0.75 7.7 1.1 7.7 1.45 7.7 1.65 7.7 1.85 7.7 2.85 7.75 3.8 7.8 4.05 7.8 4.25 7.8 6.05 7.8 4.8 6.6 4.5 6.3 4.2 6.05 3.9 5.8 3.1 5.6 2.3 5.7 1.5 5.75 0.45 5.7 -0.6 5.7 -1.3 5.6 -2.0 5.5 -2.95 5.25 -3.9 5.0 M-6.75 -4.7 Q-6.9 -3.55 -5.65 -3.35 -1.15 -2.5 0.55 1.3 1.15 2.85 3.75 1.85 7.6 0.35 6.55 -4.85 L5.95 -6.7 Q4.7 -9.25 1.75 -10.25 L-1.5 -9.85 Q-6.15 -9.3 -6.75 -4.7 M-7.25 0.75 Q-7.5 1.1 -7.7 1.4 -7.95 2.05 -8.15 2.7 -8.15 3.25 -7.45 3.35 -6.8 3.35 -6.15 3.35 -5.65 3.25 -5.15 3.15 L-5.05 2.95 -4.6 2.0 Q-4.45 1.5 -4.3 1.0 -4.25 0.25 -4.95 0.15 L-6.2 0.35 Q-6.75 0.55 -7.25 0.75 M-15.75 -1.75 L-15.75 -1.75 Q-15.8 0.55 -15.4 2.45 -14.9 5.05 -13.6 7.0 L-12.65 8.15 Q-10.4 10.55 -6.95 10.4 L-5.85 10.3 -2.75 9.9 -2.25 9.85 Q-0.9 9.8 0.05 10.35 0.95 10.9 1.5 12.0 L2.5 13.2 3.45 13.85 3.65 13.95 Q5.95 15.1 7.7 14.7 8.95 14.4 9.9 13.35 L10.8 12.1 Q12.0 9.95 12.5 7.55 12.6 6.9 12.7 6.25 12.8 4.75 12.9 3.25 12.8 0.9 12.75 -1.45 L12.6 -3.15 12.6 -3.45 Q12.25 -6.1 11.4 -8.5 L11.1 -9.3 Q10.1 -11.7 8.3 -13.65 7.15 -14.65 6.05 -15.65 L5.85 -15.8 Q4.25 -17.2 4.65 -20.5 L4.8 -21.55 Q5.15 -24.05 5.5 -26.5 4.95 -26.75 4.4 -26.95 L-1.45 -26.75 -2.85 -26.0 -6.1 -23.55 -6.5 -23.2 Q-6.85 -22.85 -7.2 -22.5 -8.8 -20.6 -10.35 -18.75 L-10.75 -18.15 Q-12.15 -15.95 -13.25 -13.3 -13.75 -12.1 -14.2 -10.9 -14.65 -9.2 -15.1 -7.5 -15.65 -4.8 -15.75 -1.75;M2.75 4.25 L2.65 4.45 Q0.85 6.45 1.25 8.3 1.65 10.0 3.9 11.5 4.8 12.1 5.4 12.05 6.35 12.0 6.5 10.25 6.6 9.5 6.1 6.95 5.25 4.95 2.75 4.25 M-5.25 -26.75 L-5.25 -26.65 Q-5.0 -25.95 -5.1 -24.5 -5.4 -19.25 -1.25 -16.8 2.6 -14.5 4.95 -11.5 6.65 -9.3 8.75 -7.9 9.9 -7.15 11.2 -6.65 12.15 -6.25 12.4 -5.35 13.75 -0.4 18.25 -0.05 19.9 0.05 19.75 -1.2 19.05 -6.55 21.05 -9.8 22.4 -11.95 20.45 -12.85 17.75 -14.3 15.05 -15.75 12.15 -17.5 9.7 -19.65 6.2 -22.7 4.7 -26.6 3.45 -29.7 0.55 -30.65 -3.6 -32.05 -5.25 -26.75 M-10.9 -0.3 Q-10.9 0.25 -10.9 0.8 -10.75 3.6 -7.6 4.45 -6.8 5.15 -6.05 5.85 -3.4 7.8 -2.8 3.9 L-2.65 2.8 Q-2.5 0.2 -3.8 -0.55 L-6.05 -1.3 Q-9.0 -1.9 -10.9 -0.3 M-10.75 -12.0 Q-9.85 -10.0 -8.0 -9.0 -4.3 -7.0 0.4 -6.25 3.95 -5.65 6.45 -2.9 9.7 0.75 7.8 6.2 11.5 8.25 14.7 5.25 L14.65 3.15 11.4 -1.35 Q9.1 -4.35 6.6 -6.6 3.65 -9.3 0.3 -11.7 L-7.25 -17.25 Q-12.8 -17.45 -10.75 -12.0 M-18.35 -17.25 L-18.35 -17.15 Q-18.4 -13.85 -17.4 -11.1 -16.2 -7.75 -16.65 -3.95 L-16.95 -2.15 Q-19.9 2.95 -14.85 5.2 L-13.0 5.9 -8.85 6.9 -8.05 7.0 Q-5.85 7.2 -7.2 9.05 -8.95 11.5 -7.1 11.8 L-4.85 11.65 -2.95 11.35 -2.55 11.3 Q0.65 11.1 0.2 15.55 0.05 17.5 2.4 18.15 L4.7 18.6 Q8.55 18.85 10.7 15.8 11.25 15.05 11.95 14.4 13.45 13.1 15.8 12.25 18.35 9.8 20.65 8.05 L22.15 6.45 22.4 6.05 Q24.5 2.8 26.7 0.2 L27.35 -0.7 Q29.4 -3.95 26.65 -7.55 25.55 -9.05 25.75 -11.35 L25.75 -11.75 Q26.4 -17.0 22.15 -16.9 L20.65 -16.75 Q16.5 -16.05 13.9 -18.35 13.25 -18.95 12.7 -19.7 L8.05 -26.45 6.85 -28.3 4.2 -33.1 3.9 -33.6 Q3.25 -34.85 2.75 -34.75 0.75 -38.7 -2.6 -35.1 L-3.3 -34.4 Q-6.05 -31.7 -10.15 -30.7 -12.0 -30.2 -13.45 -29.2 -15.4 -27.85 -16.5 -25.5 -18.3 -21.7 -18.35 -17.25"/>
    </path>
    <path d="M-15.75 -1.75 Q-15.65 -4.8 -15.1 -7.5 -14.65 -9.2 -14.2 -10.9 -13.75 -12.1 -13.25 -13.3 -12.15 -15.95 -10.75 -18.15 L-10.35 -18.75 Q-8.8 -20.6 -7.2 -22.5 -6.85 -22.85 -6.5 -23.2 L-6.1 -23.55 -2.85 -26.0 -1.45 -26.75 4.4 -26.95 Q4.95 -26.75 5.5 -26.5 5.15 -24.05 4.8 -21.55 L4.65 -20.5 Q4.25 -17.2 5.85 -15.8 L6.05 -15.65 Q7.15 -14.65 8.3 -13.65 10.1 -11.7 11.1 -9.3 L11.4 -8.5 Q12.25 -6.1 12.6 -3.45 L12.6 -3.15 12.75 -1.45 Q12.8 0.9 12.9 3.25 12.8 4.75 12.7 6.25 12.6 6.9 12.5 7.55 12.0 9.95 10.8 12.1 L9.9 13.35 Q8.95 14.4 7.7 14.7 5.95 15.1 3.65 13.95 L3.45 13.85 2.5 13.2 1.5 12.0 Q0.95 10.9 0.05 10.35 -0.9 9.8 -2.25 9.85 L-2.75 9.9 -5.85 10.3 -6.95 10.4 Q-10.4 10.55 -12.65 8.15 L-13.6 7.0 Q-14.9 5.05 -15.4 2.45 -15.8 0.55 -15.75 -1.75 L-15.75 -1.75 M-7.25 0.75 Q-6.75 0.55 -6.2 0.35 L-4.95 0.15 Q-4.25 0.25 -4.3 1.0 -4.45 1.5 -4.6 2.0 L-5.05 2.95 -5.15 3.15 Q-5.65 3.25 -6.15 3.35 -6.8 3.35 -7.45 3.35 -8.15 3.25 -8.15 2.7 -7.95 2.05 -7.7 1.4 -7.5 1.1 -7.25 0.75 M-6.75 -4.7 Q-6.15 -9.3 -1.5 -9.85 L1.75 -10.25 Q4.7 -9.25 5.95 -6.7 L6.55 -4.85 Q7.6 0.35 3.75 1.85 1.15 2.85 0.55 1.3 -1.15 -2.5 -5.65 -3.35 -6.9 -3.55 -6.75 -4.7 M-3.9 5.0 Q-2.95 5.25 -2.0 5.5 -1.3 5.6 -0.6 5.7 0.45 5.7 1.5 5.75 2.3 5.7 3.1 5.6 3.9 5.8 4.2 6.05 4.5 6.3 4.8 6.6 6.05 7.8 4.25 7.8 4.05 7.8 3.8 7.8 2.85 7.75 1.85 7.7 1.65 7.7 1.45 7.7 1.1 7.7 0.75 7.7 0.15 7.65 -0.45 7.6 -1.35 7.3 -2.25 7.0 -2.9 6.35 -3.6 5.65 -3.75 5.35 -3.9 5.0 L-3.9 5.0 M-3.8 -10.85 Q-3.55 -14.6 -2.3 -17.4 -2.4 -21.65 -1.95 -22.15 -1.15 -23.05 1.75 -21.75 2.1 -20.7 2.5 -19.6 3.25 -16.45 2.65 -12.85 -0.5 -12.65 -3.8 -10.85 L-3.8 -10.85" fill="none" stroke="#000000" stroke-linecap="round" stroke-linejoin="round" stroke-opacity="0.0" stroke-width="1.0">
      <animate attributeName="stroke" dur="2s" repeatCount="indefinite" values="#000000;#000001"/>
      <animate attributeName="stroke-width" dur="2s" repeatCount="indefinite" values="0.0;0.0"/>
      <animate attributeName="fill-opacity" dur="2s" repeatCount="indefinite" values="0.0;0.0"/>
      <animate attributeName="d" dur="2s" repeatCount="indefinite" values="M-15.75 -1.75 Q-15.65 -4.8 -15.1 -7.5 -14.65 -9.2 -14.2 -10.9 -13.75 -12.1 -13.25 -13.3 -12.15 -15.95 -10.75 -18.15 L-10.35 -18.75 Q-8.8 -20.6 -7.2 -22.5 -6.85 -22.85 -6.5 -23.2 L-6.1 -23.55 -2.85 -26.0 -1.45 -26.75 4.4 -26.95 Q4.95 -26.75 5.5 -26.5 5.15 -24.05 4.8 -21.55 L4.65 -20.5 Q4.25 -17.2 5.85 -15.8 L6.05 -15.65 Q7.15 -14.65 8.3 -13.65 10.1 -11.7 11.1 -9.3 L11.4 -8.5 Q12.25 -6.1 12.6 -3.45 L12.6 -3.15 12.75 -1.45 Q12.8 0.9 12.9 3.25 12.8 4.75 12.7 6.25 12.6 6.9 12.5 7.55 12.0 9.95 10.8 12.1 L9.9 13.35 Q8.95 14.4 7.7 14.7 5.95 15.1 3.65 13.95 L3.45 13.85 2.5 13.2 1.5 12.0 Q0.95 10.9 0.05 10.35 -0.9 9.8 -2.25 9.85 L-2.75 9.9 -5.85 10.3 -6.95 10.4 Q-10.4 10.55 -12.65 8.15 L-13.6 7.0 Q-14.9 5.05 -15.4 2.45 -15.8 0.55 -15.75 -1.75 L-15.75 -1.75 M-7.25 0.75 Q-6.75 0.55 -6.2 0.35 L-4.95 0.15 Q-4.25 0.25 -4.3 1.0 -4.45 1.5 -4.6 2.0 L-5.05 2.95 -5.15 3.15 Q-5.65 3.25 -6.15 3.35 -6.8 3.35 -7.45 3.35 -8.15 3.25 -8.15 2.7 -7.95 2.05 -7.7 1.4 -7.5 1.1 -7.25 0.75 M-6.75 -4.7 Q-6.15 -9.3 -1.5 -9.85 L1.75 -10.25 Q4.7 -9.25 5.95 -6.7 L6.55 -4.85 Q7.6 0.35 3.75 1.85 1.15 2.85 0.55 1.3 -1.15 -2.5 -5.65 -3.35 -6.9 -3.55 -6.75 -4.7 M-3.9 5.0 Q-2.95 5.25 -2.0 5.5 -1.3 5.6 -0.6 5.7 0.45 5.7 1.5 5.75 2.3 5.7 3.1 5.6 3.9 5.8 4.2 6.05 4.5 6.3 4.8 6.6 6.05 7.8 4.25 7.8 4.05 7.8 3.8 7.8 2.85 7.75 1.85 7.7 1.65 7.7 1.45 7.7 1.1 7.7 0.75 7.7 0.15 7.65 -0.45 7.6 -1.35 7.3 -2.25 7.0 -2.9 6.35 -3.6 5.65 -3.75 5.35 -3.9 5.0 L-3.9 5.0 M-3.8 -10.85 Q-3.55 -14.6 -2.3 -17.4 -2.4 -21.65 -1.95 -22.15 -1.15 -23.05 1.75 -21.75 2.1 -20.7 2.5 -19.6 3.25 -16.45 2.65 -12.85 -0.5 -12.65 -3.8 -10.85 L-3.8 -10.85;M-18.35 -17.25 Q-18.3 -21.7 -16.5 -25.5 -15.4 -27.85 -13.45 -29.2 -12.0 -30.2 -10.15 -30.7 -6.05 -31.7 -3.3 -34.4 L-2.6 -35.1 Q0.75 -38.7 2.75 -34.75 3.25 -34.85 3.9 -33.6 L4.2 -33.1 6.85 -28.3 8.05 -26.45 12.7 -19.7 Q13.25 -18.95 13.9 -18.35 16.5 -16.05 20.65 -16.75 L22.15 -16.9 Q26.4 -17.0 25.75 -11.75 L25.75 -11.35 Q25.55 -9.05 26.65 -7.55 29.4 -3.95 27.35 -0.7 L26.7 0.2 Q24.5 2.8 22.4 6.05 L22.15 6.45 20.65 8.05 Q18.35 9.8 15.8 12.25 13.45 13.1 11.95 14.4 11.25 15.05 10.7 15.8 8.55 18.85 4.7 18.6 L2.4 18.15 Q0.05 17.5 0.2 15.55 0.65 11.1 -2.55 11.3 L-2.95 11.35 -4.85 11.65 -7.1 11.8 Q-8.95 11.5 -7.2 9.05 -5.85 7.2 -8.05 7.0 L-8.85 6.9 -13.0 5.9 -14.85 5.2 Q-19.9 2.95 -16.95 -2.15 L-16.65 -3.95 Q-16.2 -7.75 -17.4 -11.1 -18.4 -13.85 -18.35 -17.15 L-18.35 -17.25 M-10.75 -12.0 Q-12.8 -17.45 -7.25 -17.25 L0.3 -11.7 Q3.65 -9.3 6.6 -6.6 9.1 -4.35 11.4 -1.35 L14.65 3.15 14.7 5.25 Q11.5 8.25 7.8 6.2 9.7 0.75 6.45 -2.9 3.95 -5.65 0.4 -6.25 -4.3 -7.0 -8.0 -9.0 -9.85 -10.0 -10.75 -12.0 M-10.9 -0.3 Q-9.0 -1.9 -6.05 -1.3 L-3.8 -0.55 Q-2.5 0.2 -2.65 2.8 L-2.8 3.9 Q-3.4 7.8 -6.05 5.85 -6.8 5.15 -7.6 4.45 -10.75 3.6 -10.9 0.8 -10.9 0.25 -10.9 -0.3 M-5.25 -26.75 Q-3.6 -32.05 0.55 -30.65 3.45 -29.7 4.7 -26.6 6.2 -22.7 9.7 -19.65 12.15 -17.5 15.05 -15.75 17.75 -14.3 20.45 -12.85 22.4 -11.95 21.05 -9.8 19.05 -6.55 19.75 -1.2 19.9 0.05 18.25 -0.05 13.75 -0.4 12.4 -5.35 12.15 -6.25 11.2 -6.65 9.9 -7.15 8.75 -7.9 6.65 -9.3 4.95 -11.5 2.6 -14.5 -1.25 -16.8 -5.4 -19.25 -5.1 -24.5 -5.0 -25.95 -5.25 -26.65 L-5.25 -26.75 M2.75 4.25 Q5.25 4.95 6.1 6.95 6.6 9.5 6.5 10.25 6.35 12.0 5.4 12.05 4.8 12.1 3.9 11.5 1.65 10.0 1.25 8.3 0.85 6.45 2.65 4.45 L2.75 4.25"/>
    </path>
  </g>
</svg>
