<?xml version="1.0" encoding="UTF-8" standalone="no"?>
<svg xmlns:xlink="http://www.w3.org/1999/xlink" height="69.2px" width="80.65px" xmlns="http://www.w3.org/2000/svg">
  <g transform="matrix(1.0, 0.0, 0.0, 1.0, 35.05, 36.8)">
    <path d="M2.75 4.25 L2.55 4.55 Q2.4 4.75 2.25 4.95 2.0 5.3 1.8 5.65 1.4 6.3 1.25 6.9 1.2 7.15 1.2 7.4 1.15 8.5 1.85 9.55 2.6 10.35 3.3 11.1 L4.0 11.6 Q5.2 12.3 5.8 11.9 6.4 11.55 6.5 10.25 L6.5 9.8 Q6.6 8.55 6.3 7.55 5.95 6.3 4.7 5.15 3.9 4.55 2.75 4.25 M-5.25 -26.75 L-5.25 -26.65 Q-5.0 -25.95 -5.1 -24.5 -5.4 -19.25 -1.25 -16.8 2.6 -14.5 4.95 -11.5 L6.95 -9.35 Q8.85 -7.6 11.2 -6.65 12.15 -6.25 12.4 -5.35 13.45 -1.55 16.25 -0.45 L18.25 -0.05 Q19.9 0.05 19.75 -1.2 19.05 -6.55 21.05 -9.8 22.4 -11.95 20.45 -12.85 18.7 -13.65 15.05 -15.75 12.15 -17.5 9.7 -19.65 6.2 -22.7 4.7 -26.6 3.45 -29.7 0.55 -30.65 -3.6 -32.05 -5.25 -26.75 M-10.9 -0.3 L-10.9 -0.3 Q-11.25 3.55 -8.1 3.9 -5.15 7.3 -3.8 6.25 -2.85 5.55 -2.65 2.15 -2.65 -0.3 -4.25 -0.75 -8.45 -2.35 -10.9 -0.3 M-10.75 -12.0 L-10.75 -12.0 Q-9.85 -10.0 -8.0 -9.0 -6.25 -8.2 -4.5 -7.45 -2.2 -6.65 0.4 -6.25 3.35 -5.75 5.55 -3.8 L6.45 -2.9 7.9 -0.6 Q8.85 1.65 8.3 4.45 L7.8 6.2 Q11.5 8.25 14.7 5.25 15.55 4.45 14.65 3.15 L13.9 2.05 Q12.65 0.35 11.4 -1.35 9.55 -3.8 7.5 -5.75 L6.6 -6.6 Q3.65 -9.3 0.3 -11.7 L-1.65 -13.05 -7.25 -17.25 Q-12.8 -17.45 -10.75 -12.0 M-18.35 -17.25 L-18.35 -16.95 Q-18.35 -13.9 -17.4 -11.2 L-17.4 -11.1 Q-16.35 -8.25 -16.5 -5.1 -16.6 -3.65 -16.95 -2.15 -18.15 -0.1 -18.05 1.5 -17.95 2.85 -16.95 3.85 -16.05 4.5 -15.15 5.1 L-14.85 5.2 Q-13.65 5.65 -12.5 6.1 -11.15 6.45 -9.85 6.75 -8.95 6.9 -8.05 7.0 L-7.4 7.15 Q-6.1 7.5 -7.2 9.05 L-7.75 9.95 Q-8.75 11.95 -6.15 11.85 -5.5 11.75 -4.85 11.65 -3.9 11.5 -2.95 11.35 -0.15 10.95 0.2 13.7 0.2 14.65 0.2 15.55 0.05 17.5 2.4 18.15 L3.25 18.35 Q6.9 19.15 9.25 17.3 10.0 16.55 10.7 15.8 12.0 13.95 14.5 12.8 15.1 12.5 15.8 12.25 L16.4 11.65 19.25 9.15 20.65 8.05 21.7 7.05 22.15 6.45 Q23.25 4.85 24.3 3.3 25.1 2.25 25.85 1.25 26.3 0.7 26.7 0.2 L27.55 -1.0 Q28.7 -3.05 27.95 -5.2 27.3 -6.4 26.65 -7.55 26.25 -8.05 26.0 -8.7 25.55 -10.0 25.75 -11.75 26.1 -14.75 24.85 -16.0 23.75 -17.15 21.35 -16.85 L20.65 -16.75 Q16.3 -16.0 13.65 -18.6 L12.7 -19.7 Q11.15 -21.9 9.65 -24.05 8.95 -25.05 8.3 -26.05 8.15 -26.25 8.05 -26.45 7.7 -27.0 7.35 -27.5 6.35 -29.2 5.4 -30.85 4.65 -32.25 3.9 -33.6 L3.8 -33.75 Q3.2 -34.85 2.75 -34.75 1.5 -37.2 -0.25 -36.75 -1.3 -36.5 -2.6 -35.1 L-3.1 -34.55 Q-5.25 -32.4 -8.25 -31.3 L-10.15 -30.7 Q-12.95 -29.95 -14.75 -28.1 -15.8 -27.0 -16.5 -25.5 -17.15 -23.75 -17.75 -22.05 -18.05 -20.3 -18.3 -18.55 -18.35 -17.9 -18.35 -17.25" fill="#cf1f1f" fill-opacity="0.5019608" fill-rule="evenodd" stroke="none">
      <animate attributeName="fill" dur="2s" repeatCount="indefinite" values="#cf1f1f;#cf1f20"/>
      <animate attributeName="fill-opacity" dur="2s" repeatCount="indefinite" values="0.5019608;0.5019608"/>
      <animate attributeName="d" dur="2s" repeatCount="indefinite" values="M2.75 4.25 L2.55 4.55 Q2.4 4.75 2.25 4.95 2.0 5.3 1.8 5.65 1.4 6.3 1.25 6.9 1.2 7.15 1.2 7.4 1.15 8.5 1.85 9.55 2.6 10.35 3.3 11.1 L4.0 11.6 Q5.2 12.3 5.8 11.9 6.4 11.55 6.5 10.25 L6.5 9.8 Q6.6 8.55 6.3 7.55 5.95 6.3 4.7 5.15 3.9 4.55 2.75 4.25 M-5.25 -26.75 L-5.25 -26.65 Q-5.0 -25.95 -5.1 -24.5 -5.4 -19.25 -1.25 -16.8 2.6 -14.5 4.95 -11.5 L6.95 -9.35 Q8.85 -7.6 11.2 -6.65 12.15 -6.25 12.4 -5.35 13.45 -1.55 16.25 -0.45 L18.25 -0.05 Q19.9 0.05 19.75 -1.2 19.05 -6.55 21.05 -9.8 22.4 -11.95 20.45 -12.85 18.7 -13.65 15.05 -15.75 12.15 -17.5 9.7 -19.65 6.2 -22.7 4.7 -26.6 3.45 -29.7 0.55 -30.65 -3.6 -32.05 -5.25 -26.75 M-10.9 -0.3 L-10.9 -0.3 Q-11.25 3.55 -8.1 3.9 -5.15 7.3 -3.8 6.25 -2.85 5.55 -2.65 2.15 -2.65 -0.3 -4.25 -0.75 -8.45 -2.35 -10.9 -0.3 M-10.75 -12.0 L-10.75 -12.0 Q-9.85 -10.0 -8.0 -9.0 -6.25 -8.2 -4.5 -7.45 -2.2 -6.65 0.4 -6.25 3.35 -5.75 5.55 -3.8 L6.45 -2.9 7.9 -0.6 Q8.85 1.65 8.3 4.45 L7.8 6.2 Q11.5 8.25 14.7 5.25 15.55 4.45 14.65 3.15 L13.9 2.05 Q12.65 0.35 11.4 -1.35 9.55 -3.8 7.5 -5.75 L6.6 -6.6 Q3.65 -9.3 0.3 -11.7 L-1.65 -13.05 -7.25 -17.25 Q-12.8 -17.45 -10.75 -12.0 M-18.35 -17.25 L-18.35 -16.95 Q-18.35 -13.9 -17.4 -11.2 L-17.4 -11.1 Q-16.35 -8.25 -16.5 -5.1 -16.6 -3.65 -16.95 -2.15 -18.15 -0.1 -18.05 1.5 -17.95 2.85 -16.95 3.85 -16.05 4.5 -15.15 5.1 L-14.85 5.2 Q-13.65 5.65 -12.5 6.1 -11.15 6.45 -9.85 6.75 -8.95 6.9 -8.05 7.0 L-7.4 7.15 Q-6.1 7.5 -7.2 9.05 L-7.75 9.95 Q-8.75 11.95 -6.15 11.85 -5.5 11.75 -4.85 11.65 -3.9 11.5 -2.95 11.35 -0.15 10.95 0.2 13.7 0.2 14.65 0.2 15.55 0.05 17.5 2.4 18.15 L3.25 18.35 Q6.9 19.15 9.25 17.3 10.0 16.55 10.7 15.8 12.0 13.95 14.5 12.8 15.1 12.5 15.8 12.25 L16.4 11.65 19.25 9.15 20.65 8.05 21.7 7.05 22.15 6.45 Q23.25 4.85 24.3 3.3 25.1 2.25 25.85 1.25 26.3 0.7 26.7 0.2 L27.55 -1.0 Q28.7 -3.05 27.95 -5.2 27.3 -6.4 26.65 -7.55 26.25 -8.05 26.0 -8.7 25.55 -10.0 25.75 -11.75 26.1 -14.75 24.85 -16.0 23.75 -17.15 21.35 -16.85 L20.65 -16.75 Q16.3 -16.0 13.65 -18.6 L12.7 -19.7 Q11.15 -21.9 9.65 -24.05 8.95 -25.05 8.3 -26.05 8.15 -26.25 8.05 -26.45 7.7 -27.0 7.35 -27.5 6.35 -29.2 5.4 -30.85 4.65 -32.25 3.9 -33.6 L3.8 -33.75 Q3.2 -34.85 2.75 -34.75 1.5 -37.2 -0.25 -36.75 -1.3 -36.5 -2.6 -35.1 L-3.1 -34.55 Q-5.25 -32.4 -8.25 -31.3 L-10.15 -30.7 Q-12.95 -29.95 -14.75 -28.1 -15.8 -27.0 -16.5 -25.5 -17.15 -23.75 -17.75 -22.05 -18.05 -20.3 -18.3 -18.55 -18.35 -17.9 -18.35 -17.25;M4.25 14.25 L4.25 14.25 Q4.25 15.4 4.8 16.1 5.95 17.75 6.95 15.95 8.1 13.75 11.45 14.3 12.55 14.45 13.0 15.25 15.15 19.3 18.45 22.0 21.45 24.5 26.75 24.1 L30.55 24.1 Q36.0 24.55 32.4 21.4 29.75 19.05 26.85 17.15 L25.65 16.45 Q22.15 14.15 18.7 11.85 15.0 9.2 8.8 8.35 4.35 9.25 4.25 14.25 M-2.65 4.8 L-2.65 4.8 Q-2.5 5.2 -2.35 5.55 -1.75 6.7 -0.65 7.05 0.25 7.3 1.45 7.05 L2.15 6.9 Q2.65 6.6 3.15 6.35 3.3 6.05 3.4 5.8 3.6 5.15 3.1 4.2 L3.0 4.1 Q2.85 3.8 2.75 3.5 2.3 2.4 1.9 1.3 1.75 0.8 1.65 0.35 1.55 -0.2 0.9 -0.75 0.0 -0.5 -0.9 -0.3 -1.9 0.2 -2.35 1.35 -2.5 2.1 -2.65 2.8 -2.65 3.8 -2.65 4.8 M-26.15 -4.35 L-26.05 -4.25 Q-23.9 -2.05 -23.75 -2.9 -23.65 -3.4 -24.3 -5.0 -24.75 -6.05 -26.0 -6.25 -27.45 -6.9 -27.7 -6.65 -28.1 -6.35 -26.15 -4.35 M-27.75 -17.5 L-27.85 -17.3 Q-28.85 -15.4 -28.25 -14.2 -27.75 -13.2 -26.1 -12.7 -24.1 -12.1 -22.7 -10.85 -21.05 -9.4 -20.25 -7.1 L-19.9 -6.1 -19.15 -4.25 Q-18.3 -2.25 -16.05 -1.6 L-14.45 -1.2 Q-11.65 -0.95 -8.85 -0.7 -7.95 -0.75 -7.05 -0.8 L-6.05 -0.9 Q-6.45 -2.65 -7.35 -4.0 -8.55 -5.85 -10.8 -6.85 L-11.6 -7.2 Q-14.25 -8.75 -16.85 -10.25 L-18.35 -11.35 -22.15 -14.7 Q-24.65 -16.75 -27.75 -17.5 M-34.95 -8.35 L-34.95 -8.35 Q-33.6 -4.15 -30.65 -1.35 L-30.45 -1.2 Q-27.35 1.7 -22.8 1.3 -20.7 1.5 -18.65 1.65 -16.15 2.35 -14.3 4.3 -12.95 5.55 -11.6 6.75 -10.5 7.65 -8.95 8.15 L-8.5 8.3 Q-6.85 9.1 -8.25 11.1 -9.35 12.7 -11.0 13.7 -13.05 14.95 -11.3 15.3 L-10.45 15.4 Q-8.2 15.5 -7.05 13.95 L-6.45 12.9 Q-4.95 9.4 -3.1 12.15 -2.3 13.3 -3.1 14.1 -3.95 15.05 -4.35 16.2 -5.25 18.65 -4.4 22.3 -4.05 23.85 -3.35 25.0 -2.0 27.2 0.7 27.85 L1.75 28.1 Q6.25 28.65 10.75 29.15 11.5 30.6 12.6 31.4 15.0 33.2 18.95 31.8 19.95 31.45 20.95 31.15 L22.15 30.8 27.45 29.4 29.95 29.0 32.15 29.2 33.1 29.35 Q36.4 29.75 38.45 28.55 39.8 27.8 41.95 27.5 42.95 27.35 43.75 26.6 L44.85 25.15 Q47.2 20.9 42.2 22.0 40.0 22.5 38.65 20.9 38.1 20.25 37.7 19.2 35.6 18.4 33.5 17.6 30.65 16.25 27.8 14.9 24.75 13.35 23.05 11.75 L22.35 11.1 Q18.15 7.45 13.55 5.4 L11.9 4.5 Q8.95 2.35 8.65 -1.95 8.55 -3.65 6.4 -4.15 6.05 -4.25 5.8 -4.45 5.15 -4.9 5.2 -6.0 5.35 -9.75 2.2 -10.15 -0.6 -10.55 -1.9 -9.0 L-2.1 -8.8 Q-2.7 -8.2 -3.3 -7.65 -5.35 -6.3 -8.4 -8.3 -10.3 -9.5 -12.2 -10.65 L-13.25 -11.25 Q-16.5 -13.2 -20.1 -16.6 L-22.15 -18.4 Q-25.25 -20.8 -28.75 -22.0 -31.2 -21.3 -32.35 -19.45 -33.4 -17.75 -33.4 -15.0 -33.35 -12.3 -34.75 -10.15 -35.25 -9.4 -34.95 -8.35"/>
    </path>
    <path d="M-18.35 -17.25 Q-18.35 -17.9 -18.3 -18.55 -18.05 -20.3 -17.75 -22.05 -17.15 -23.75 -16.5 -25.5 -15.8 -27.0 -14.75 -28.1 -12.95 -29.95 -10.15 -30.7 L-8.25 -31.3 Q-5.25 -32.4 -3.1 -34.55 L-2.6 -35.1 Q-1.3 -36.5 -0.25 -36.75 1.5 -37.2 2.75 -34.75 3.2 -34.85 3.8 -33.75 L3.9 -33.6 Q4.65 -32.25 5.4 -30.85 6.35 -29.2 7.35 -27.5 7.7 -27.0 8.05 -26.45 8.15 -26.25 8.3 -26.05 8.95 -25.05 9.65 -24.05 11.15 -21.9 12.7 -19.7 L13.65 -18.6 Q16.3 -16.0 20.65 -16.75 L21.35 -16.85 Q23.75 -17.15 24.85 -16.0 26.1 -14.75 25.75 -11.75 25.55 -10.0 26.0 -8.7 26.25 -8.05 26.65 -7.55 27.3 -6.4 27.95 -5.2 28.7 -3.05 27.55 -1.0 L26.7 0.2 Q26.3 0.7 25.85 1.25 25.1 2.25 24.3 3.3 23.25 4.85 22.15 6.45 L21.7 7.05 20.65 8.05 19.25 9.15 16.4 11.65 15.8 12.25 Q15.1 12.5 14.5 12.8 12.0 13.95 10.7 15.8 10.0 16.55 9.25 17.3 6.9 19.15 3.25 18.35 L2.4 18.15 Q0.05 17.5 0.2 15.55 0.2 14.65 0.2 13.7 -0.15 10.95 -2.95 11.35 -3.9 11.5 -4.85 11.65 -5.5 11.75 -6.15 11.85 -8.75 11.95 -7.75 9.95 L-7.2 9.05 Q-6.1 7.5 -7.4 7.15 L-8.05 7.0 Q-8.95 6.9 -9.85 6.75 -11.15 6.45 -12.5 6.1 -13.65 5.65 -14.85 5.2 L-15.15 5.1 Q-16.05 4.5 -16.95 3.85 -17.95 2.85 -18.05 1.5 -18.15 -0.1 -16.95 -2.15 -16.6 -3.65 -16.5 -5.1 -16.35 -8.25 -17.4 -11.1 L-17.4 -11.2 Q-18.35 -13.9 -18.35 -16.95 L-18.35 -17.25 M-10.75 -12.0 Q-12.8 -17.45 -7.25 -17.25 L-1.65 -13.05 0.3 -11.7 Q3.65 -9.3 6.6 -6.6 L7.5 -5.75 Q9.55 -3.8 11.4 -1.35 12.65 0.35 13.9 2.05 L14.65 3.15 Q15.55 4.45 14.7 5.25 11.5 8.25 7.8 6.2 L8.3 4.45 Q8.85 1.65 7.9 -0.6 L6.45 -2.9 5.55 -3.8 Q3.35 -5.75 0.4 -6.25 -2.2 -6.65 -4.5 -7.45 -6.25 -8.2 -8.0 -9.0 -9.85 -10.0 -10.75 -12.0 L-10.75 -12.0 M-10.9 -0.3 Q-8.45 -2.35 -4.25 -0.75 -2.65 -0.3 -2.65 2.15 -2.85 5.55 -3.8 6.25 -5.15 7.3 -8.1 3.9 -11.25 3.55 -10.9 -0.3 L-10.9 -0.3 M-5.25 -26.75 Q-3.6 -32.05 0.55 -30.65 3.45 -29.7 4.7 -26.6 6.2 -22.7 9.7 -19.65 12.15 -17.5 15.05 -15.75 18.7 -13.65 20.45 -12.85 22.4 -11.95 21.05 -9.8 19.05 -6.55 19.75 -1.2 19.9 0.05 18.25 -0.05 L16.25 -0.45 Q13.45 -1.55 12.4 -5.35 12.15 -6.25 11.2 -6.65 8.85 -7.6 6.95 -9.35 L4.95 -11.5 Q2.6 -14.5 -1.25 -16.8 -5.4 -19.25 -5.1 -24.5 -5.0 -25.95 -5.25 -26.65 L-5.25 -26.75 M2.75 4.25 Q3.9 4.55 4.7 5.15 5.95 6.3 6.3 7.55 6.6 8.55 6.5 9.8 L6.5 10.25 Q6.4 11.55 5.8 11.9 5.2 12.3 4.0 11.6 L3.3 11.1 Q2.6 10.35 1.85 9.55 1.15 8.5 1.2 7.4 1.2 7.15 1.25 6.9 1.4 6.3 1.8 5.65 2.0 5.3 2.25 4.95 2.4 4.75 2.55 4.55 L2.75 4.25" fill="none" stroke="#000000" stroke-linecap="round" stroke-linejoin="round" stroke-opacity="0.0" stroke-width="1.0">
      <animate attributeName="stroke" dur="2s" repeatCount="indefinite" values="#000000;#000001"/>
      <animate attributeName="stroke-width" dur="2s" repeatCount="indefinite" values="0.0;0.0"/>
      <animate attributeName="fill-opacity" dur="2s" repeatCount="indefinite" values="0.0;0.0"/>
      <animate attributeName="d" dur="2s" repeatCount="indefinite" values="M-18.35 -17.25 Q-18.35 -17.9 -18.3 -18.55 -18.05 -20.3 -17.75 -22.05 -17.15 -23.75 -16.5 -25.5 -15.8 -27.0 -14.75 -28.1 -12.95 -29.95 -10.15 -30.7 L-8.25 -31.3 Q-5.25 -32.4 -3.1 -34.55 L-2.6 -35.1 Q-1.3 -36.5 -0.25 -36.75 1.5 -37.2 2.75 -34.75 3.2 -34.85 3.8 -33.75 L3.9 -33.6 Q4.65 -32.25 5.4 -30.85 6.35 -29.2 7.35 -27.5 7.7 -27.0 8.05 -26.45 8.15 -26.25 8.3 -26.05 8.95 -25.05 9.65 -24.05 11.15 -21.9 12.7 -19.7 L13.65 -18.6 Q16.3 -16.0 20.65 -16.75 L21.35 -16.85 Q23.75 -17.15 24.85 -16.0 26.1 -14.75 25.75 -11.75 25.55 -10.0 26.0 -8.7 26.25 -8.05 26.65 -7.55 27.3 -6.4 27.95 -5.2 28.7 -3.05 27.55 -1.0 L26.7 0.2 Q26.3 0.7 25.85 1.25 25.1 2.25 24.3 3.3 23.25 4.85 22.15 6.45 L21.7 7.05 20.65 8.05 19.25 9.15 16.4 11.65 15.8 12.25 Q15.1 12.5 14.5 12.8 12.0 13.95 10.7 15.8 10.0 16.55 9.25 17.3 6.9 19.15 3.25 18.35 L2.4 18.15 Q0.05 17.5 0.2 15.55 0.2 14.65 0.2 13.7 -0.15 10.95 -2.95 11.35 -3.9 11.5 -4.85 11.65 -5.5 11.75 -6.15 11.85 -8.75 11.95 -7.75 9.95 L-7.2 9.05 Q-6.1 7.5 -7.4 7.15 L-8.05 7.0 Q-8.95 6.9 -9.85 6.75 -11.15 6.45 -12.5 6.1 -13.65 5.65 -14.85 5.2 L-15.15 5.1 Q-16.05 4.5 -16.95 3.85 -17.95 2.85 -18.05 1.5 -18.15 -0.1 -16.95 -2.15 -16.6 -3.65 -16.5 -5.1 -16.35 -8.25 -17.4 -11.1 L-17.4 -11.2 Q-18.35 -13.9 -18.35 -16.95 L-18.35 -17.25 M-10.75 -12.0 Q-12.8 -17.45 -7.25 -17.25 L-1.65 -13.05 0.3 -11.7 Q3.65 -9.3 6.6 -6.6 L7.5 -5.75 Q9.55 -3.8 11.4 -1.35 12.65 0.35 13.9 2.05 L14.65 3.15 Q15.55 4.45 14.7 5.25 11.5 8.25 7.8 6.2 L8.3 4.45 Q8.85 1.65 7.9 -0.6 L6.45 -2.9 5.55 -3.8 Q3.35 -5.75 0.4 -6.25 -2.2 -6.65 -4.5 -7.45 -6.25 -8.2 -8.0 -9.0 -9.85 -10.0 -10.75 -12.0 L-10.75 -12.0 M-10.9 -0.3 Q-8.45 -2.35 -4.25 -0.75 -2.65 -0.3 -2.65 2.15 -2.85 5.55 -3.8 6.25 -5.15 7.3 -8.1 3.9 -11.25 3.55 -10.9 -0.3 L-10.9 -0.3 M-5.25 -26.75 Q-3.6 -32.05 0.55 -30.65 3.45 -29.7 4.7 -26.6 6.2 -22.7 9.7 -19.65 12.15 -17.5 15.05 -15.75 18.7 -13.65 20.45 -12.85 22.4 -11.95 21.05 -9.8 19.05 -6.55 19.75 -1.2 19.9 0.05 18.25 -0.05 L16.25 -0.45 Q13.45 -1.55 12.4 -5.35 12.15 -6.25 11.2 -6.65 8.85 -7.6 6.95 -9.35 L4.95 -11.5 Q2.6 -14.5 -1.25 -16.8 -5.4 -19.25 -5.1 -24.5 -5.0 -25.95 -5.25 -26.65 L-5.25 -26.75 M2.75 4.25 Q3.9 4.55 4.7 5.15 5.95 6.3 6.3 7.55 6.6 8.55 6.5 9.8 L6.5 10.25 Q6.4 11.55 5.8 11.9 5.2 12.3 4.0 11.6 L3.3 11.1 Q2.6 10.35 1.85 9.55 1.15 8.5 1.2 7.4 1.2 7.15 1.25 6.9 1.4 6.3 1.8 5.65 2.0 5.3 2.25 4.95 2.4 4.75 2.55 4.55 L2.75 4.25;M-34.95 -8.35 Q-35.25 -9.4 -34.75 -10.15 -33.35 -12.3 -33.4 -15.0 -33.4 -17.75 -32.35 -19.45 -31.2 -21.3 -28.75 -22.0 -25.25 -20.8 -22.15 -18.4 L-20.1 -16.6 Q-16.5 -13.2 -13.25 -11.25 L-12.2 -10.65 Q-10.3 -9.5 -8.4 -8.3 -5.35 -6.3 -3.3 -7.65 -2.7 -8.2 -2.1 -8.8 L-1.9 -9.0 Q-0.6 -10.55 2.2 -10.15 5.35 -9.75 5.2 -6.0 5.15 -4.9 5.8 -4.45 6.05 -4.25 6.4 -4.15 8.55 -3.65 8.65 -1.95 8.95 2.35 11.9 4.5 L13.55 5.4 Q18.15 7.45 22.35 11.1 L23.05 11.75 Q24.75 13.35 27.8 14.9 30.65 16.25 33.5 17.6 35.6 18.4 37.7 19.2 38.1 20.25 38.65 20.9 40.0 22.5 42.2 22.0 47.2 20.9 44.85 25.15 L43.75 26.6 Q42.95 27.35 41.95 27.5 39.8 27.8 38.45 28.55 36.4 29.75 33.1 29.35 L32.15 29.2 29.95 29.0 27.45 29.4 22.15 30.8 20.95 31.15 Q19.95 31.45 18.95 31.8 15.0 33.2 12.6 31.4 11.5 30.6 10.75 29.15 6.25 28.65 1.75 28.1 L0.7 27.85 Q-2.0 27.2 -3.35 25.0 -4.05 23.85 -4.4 22.3 -5.25 18.65 -4.35 16.2 -3.95 15.05 -3.1 14.1 -2.3 13.3 -3.1 12.15 -4.95 9.4 -6.45 12.9 L-7.05 13.95 Q-8.2 15.5 -10.45 15.4 L-11.3 15.3 Q-13.05 14.95 -11.0 13.7 -9.35 12.7 -8.25 11.1 -6.85 9.1 -8.5 8.3 L-8.95 8.15 Q-10.5 7.65 -11.6 6.75 -12.95 5.55 -14.3 4.3 -16.15 2.35 -18.65 1.65 -20.7 1.5 -22.8 1.3 -27.35 1.7 -30.45 -1.2 L-30.65 -1.35 Q-33.6 -4.15 -34.95 -8.35 L-34.95 -8.35 M-27.75 -17.5 Q-24.65 -16.75 -22.15 -14.7 L-18.35 -11.35 -16.85 -10.25 Q-14.25 -8.75 -11.6 -7.2 L-10.8 -6.85 Q-8.55 -5.85 -7.35 -4.0 -6.45 -2.65 -6.05 -0.9 L-7.05 -0.8 Q-7.95 -0.75 -8.85 -0.7 -11.65 -0.95 -14.45 -1.2 L-16.05 -1.6 Q-18.3 -2.25 -19.15 -4.25 L-19.9 -6.1 -20.25 -7.1 Q-21.05 -9.4 -22.7 -10.85 -24.1 -12.1 -26.1 -12.7 -27.75 -13.2 -28.25 -14.2 -28.85 -15.4 -27.85 -17.3 L-27.75 -17.5 M-26.15 -4.35 Q-28.1 -6.35 -27.7 -6.65 -27.45 -6.9 -26.0 -6.25 -24.75 -6.05 -24.3 -5.0 -23.65 -3.4 -23.75 -2.9 -23.9 -2.05 -26.05 -4.25 L-26.15 -4.35 M-2.65 4.8 Q-2.65 3.8 -2.65 2.8 -2.5 2.1 -2.35 1.35 -1.9 0.2 -0.9 -0.3 0.0 -0.5 0.9 -0.75 1.55 -0.2 1.65 0.35 1.75 0.8 1.9 1.3 2.3 2.4 2.75 3.5 2.85 3.8 3.0 4.1 L3.1 4.2 Q3.6 5.15 3.4 5.8 3.3 6.05 3.15 6.35 2.65 6.6 2.15 6.9 L1.45 7.05 Q0.25 7.3 -0.65 7.05 -1.75 6.7 -2.35 5.55 -2.5 5.2 -2.65 4.8 L-2.65 4.8 M4.25 14.25 Q4.35 9.25 8.8 8.35 15.0 9.2 18.7 11.85 22.15 14.15 25.65 16.45 L26.85 17.15 Q29.75 19.05 32.4 21.4 36.0 24.55 30.55 24.1 L26.75 24.1 Q21.45 24.5 18.45 22.0 15.15 19.3 13.0 15.25 12.55 14.45 11.45 14.3 8.1 13.75 6.95 15.95 5.95 17.75 4.8 16.1 4.25 15.4 4.25 14.25 L4.25 14.25"/>
    </path>
  </g>
</svg>
