<?xml version="1.0" encoding="UTF-8" standalone="no"?>
<svg xmlns:xlink="http://www.w3.org/1999/xlink" height="77.7px" width="85.2px" xmlns="http://www.w3.org/2000/svg">
  <g transform="matrix(1.0, 0.0, 0.0, 1.0, 39.6, 22.0)">
    <path d="M4.25 14.25 L4.25 14.25 Q4.25 15.4 5.1 16.5 6.1 17.5 6.95 15.95 8.1 13.75 11.45 14.3 12.55 14.45 13.0 15.25 14.25 17.55 15.85 19.45 17.15 20.75 18.45 22.0 19.75 23.1 21.5 23.65 L24.05 24.1 Q25.4 24.1 26.75 24.1 28.65 24.1 30.55 24.1 L32.0 24.15 Q35.45 24.05 32.4 21.4 L30.85 20.1 Q28.8 18.45 26.65 17.05 26.05 16.7 25.45 16.35 24.75 15.9 24.1 15.45 23.35 15.0 22.65 14.55 20.65 13.2 18.7 11.85 L17.9 11.3 Q16.0 10.25 14.15 9.25 12.5 8.5 10.75 8.0 9.8 8.2 8.9 8.35 L7.35 8.8 Q4.35 10.15 4.25 14.25 M-2.65 4.8 Q-1.7 7.55 1.1 7.1 L2.15 6.9 Q3.45 6.45 3.45 5.45 3.25 4.8 3.1 4.2 2.15 2.4 1.5 -0.75 -0.35 -0.85 -1.4 -0.05 -3.0 1.25 -2.65 4.8 M-26.15 -4.35 L-26.15 -4.35 Q-22.55 -0.7 -24.3 -5.0 -24.55 -5.6 -26.0 -6.25 -29.5 -7.75 -26.15 -4.35 M-27.75 -17.5 Q-29.8 -13.8 -26.1 -12.7 -21.75 -11.4 -20.25 -7.1 L-19.35 -4.85 -19.15 -4.25 Q-18.3 -2.25 -16.05 -1.6 L-13.65 -1.05 Q-10.05 -0.4 -6.05 -0.9 L-6.75 -3.05 Q-8.0 -5.6 -10.8 -6.85 -13.25 -7.9 -15.45 -9.3 L-20.5 -13.25 Q-23.65 -16.5 -27.75 -17.5 M-34.95 -8.35 L-34.95 -8.35 Q-33.8 -4.8 -31.5 -2.25 L-30.65 -1.35 Q-27.45 1.7 -22.8 1.3 L-21.35 1.25 Q-17.1 1.35 -14.3 4.3 L-12.3 6.15 -11.6 6.75 Q-10.5 7.65 -8.95 8.15 -6.7 8.85 -8.25 11.1 L-8.9 11.95 Q-9.8 13.0 -11.0 13.7 -13.45 15.2 -10.45 15.4 -7.7 15.55 -6.55 13.2 L-6.45 12.9 Q-4.95 9.4 -3.1 12.15 -2.3 13.3 -3.0 14.0 -4.2 15.3 -4.6 17.1 -5.1 19.3 -4.4 22.3 -3.8 25.0 -2.1 26.45 -0.6 27.75 1.75 28.1 5.3 28.55 8.8 28.95 L10.75 29.15 Q11.65 30.85 12.95 31.65 15.95 31.75 18.95 31.8 20.15 31.4 21.35 31.05 L22.15 30.8 Q24.8 30.1 27.45 29.4 L30.45 29.05 32.15 29.2 Q36.1 29.9 38.45 28.55 39.2 28.15 40.15 27.9 L41.95 27.5 Q43.5 27.3 44.55 25.65 L44.85 25.15 Q47.2 20.9 42.2 22.0 40.45 22.4 39.25 21.45 38.3 20.75 37.7 19.2 34.6 17.95 31.55 16.75 29.75 15.85 28.0 15.0 L27.8 14.9 Q24.75 13.35 23.05 11.75 L22.45 11.15 Q19.85 8.9 17.1 7.25 15.35 6.2 13.55 5.4 L12.25 4.7 Q10.65 3.7 9.75 2.15 8.8 0.4 8.65 -1.95 8.55 -3.65 6.4 -4.15 L6.2 -4.25 Q5.15 -4.6 5.2 -6.0 5.25 -7.2 4.95 -8.05 4.35 -9.9 2.2 -10.15 L1.35 -10.2 Q-1.0 -10.35 -2.1 -8.8 -4.2 -5.95 -7.65 -7.85 L-8.4 -8.3 Q-10.85 -9.8 -13.25 -11.25 -14.9 -12.25 -16.6 -13.6 -18.35 -15.1 -20.1 -16.6 L-22.85 -18.85 -24.2 -19.8 Q-26.35 -21.15 -28.75 -22.0 -31.6 -21.2 -32.7 -18.85 -33.0 -17.75 -33.3 -16.7 L-33.4 -15.0 Q-33.35 -12.3 -34.75 -10.15 -35.25 -9.4 -34.95 -8.35" fill="#cf1f1f" fill-opacity="0.5019608" fill-rule="evenodd" stroke="none">
      <animate attributeName="fill" dur="2s" repeatCount="indefinite" values="#cf1f1f;#cf1f20"/>
      <animate attributeName="fill-opacity" dur="2s" repeatCount="indefinite" values="0.5019608;0.5019608"/>
      <animate attributeName="d" dur="2s" repeatCount="indefinite" values="M4.25 14.25 L4.25 14.25 Q4.25 15.4 5.1 16.5 6.1 17.5 6.95 15.95 8.1 13.75 11.45 14.3 12.55 14.45 13.0 15.25 14.25 17.55 15.85 19.45 17.15 20.75 18.45 22.0 19.75 23.1 21.5 23.65 L24.05 24.1 Q25.4 24.1 26.75 24.1 28.65 24.1 30.55 24.1 L32.0 24.15 Q35.45 24.05 32.4 21.4 L30.85 20.1 Q28.8 18.45 26.65 17.05 26.05 16.7 25.45 16.35 24.75 15.9 24.1 15.45 23.35 15.0 22.65 14.55 20.65 13.2 18.7 11.85 L17.9 11.3 Q16.0 10.25 14.15 9.25 12.5 8.5 10.75 8.0 9.8 8.2 8.9 8.35 L7.35 8.8 Q4.35 10.15 4.25 14.25 M-2.65 4.8 Q-1.7 7.55 1.1 7.1 L2.15 6.9 Q3.45 6.45 3.45 5.45 3.25 4.8 3.1 4.2 2.15 2.4 1.5 -0.75 -0.35 -0.85 -1.4 -0.05 -3.0 1.25 -2.65 4.8 M-26.15 -4.35 L-26.15 -4.35 Q-22.55 -0.7 -24.3 -5.0 -24.55 -5.6 -26.0 -6.25 -29.5 -7.75 -26.15 -4.35 M-27.75 -17.5 Q-29.8 -13.8 -26.1 -12.7 -21.75 -11.4 -20.25 -7.1 L-19.35 -4.85 -19.15 -4.25 Q-18.3 -2.25 -16.05 -1.6 L-13.65 -1.05 Q-10.05 -0.4 -6.05 -0.9 L-6.75 -3.05 Q-8.0 -5.6 -10.8 -6.85 -13.25 -7.9 -15.45 -9.3 L-20.5 -13.25 Q-23.65 -16.5 -27.75 -17.5 M-34.95 -8.35 L-34.95 -8.35 Q-33.8 -4.8 -31.5 -2.25 L-30.65 -1.35 Q-27.45 1.7 -22.8 1.3 L-21.35 1.25 Q-17.1 1.35 -14.3 4.3 L-12.3 6.15 -11.6 6.75 Q-10.5 7.65 -8.95 8.15 -6.7 8.85 -8.25 11.1 L-8.9 11.95 Q-9.8 13.0 -11.0 13.7 -13.45 15.2 -10.45 15.4 -7.7 15.55 -6.55 13.2 L-6.45 12.9 Q-4.95 9.4 -3.1 12.15 -2.3 13.3 -3.0 14.0 -4.2 15.3 -4.6 17.1 -5.1 19.3 -4.4 22.3 -3.8 25.0 -2.1 26.45 -0.6 27.75 1.75 28.1 5.3 28.55 8.8 28.95 L10.75 29.15 Q11.65 30.85 12.95 31.65 15.95 31.75 18.95 31.8 20.15 31.4 21.35 31.05 L22.15 30.8 Q24.8 30.1 27.45 29.4 L30.45 29.05 32.15 29.2 Q36.1 29.9 38.45 28.55 39.2 28.15 40.15 27.9 L41.95 27.5 Q43.5 27.3 44.55 25.65 L44.85 25.15 Q47.2 20.9 42.2 22.0 40.45 22.4 39.25 21.45 38.3 20.75 37.7 19.2 34.6 17.95 31.55 16.75 29.75 15.85 28.0 15.0 L27.8 14.9 Q24.75 13.35 23.05 11.75 L22.45 11.15 Q19.85 8.9 17.1 7.25 15.35 6.2 13.55 5.4 L12.25 4.7 Q10.65 3.7 9.75 2.15 8.8 0.4 8.65 -1.95 8.55 -3.65 6.4 -4.15 L6.2 -4.25 Q5.15 -4.6 5.2 -6.0 5.25 -7.2 4.95 -8.05 4.35 -9.9 2.2 -10.15 L1.35 -10.2 Q-1.0 -10.35 -2.1 -8.8 -4.2 -5.95 -7.65 -7.85 L-8.4 -8.3 Q-10.85 -9.8 -13.25 -11.25 -14.9 -12.25 -16.6 -13.6 -18.35 -15.1 -20.1 -16.6 L-22.85 -18.85 -24.2 -19.8 Q-26.35 -21.15 -28.75 -22.0 -31.6 -21.2 -32.7 -18.85 -33.0 -17.75 -33.3 -16.7 L-33.4 -15.0 Q-33.35 -12.3 -34.75 -10.15 -35.25 -9.4 -34.95 -8.35;M-6.95 25.9 L-6.95 26.0 Q-6.45 27.4 -5.95 28.8 -4.35 28.55 -2.8 28.3 0.7 28.25 2.75 31.0 3.35 32.05 3.9 33.05 5.1 36.05 3.35 39.25 1.8 42.1 3.6 43.75 4.7 44.75 7.15 45.25 L10.35 45.0 Q10.85 43.15 10.95 41.45 11.1 38.9 10.4 36.65 L9.8 35.0 Q8.65 32.4 8.2 29.4 L7.95 26.5 Q7.85 22.8 9.0 20.05 9.35 19.3 9.0 18.15 8.35 17.25 9.1 16.6 9.9 15.9 10.0 15.0 7.2 14.2 4.8 12.55 L3.65 11.7 Q0.4 9.1 -0.55 12.15 -1.3 14.45 -3.1 15.6 -4.0 16.2 -5.15 16.55 L-6.5 17.75 Q-8.45 21.25 -6.95 25.9 M-13.5 8.25 Q-12.4 11.05 -8.6 11.6 L-7.05 11.8 Q-5.55 12.15 -4.1 12.45 -2.95 12.75 -2.5 11.45 -2.2 9.5 -3.45 5.2 -4.6 4.3 -7.05 5.45 -10.3 6.85 -13.5 8.25 M-19.8 14.2 L-19.7 14.3 Q-17.05 15.5 -14.65 13.95 -14.2 13.65 -14.85 13.05 -17.65 12.65 -19.8 14.2 M-29.85 12.5 Q-28.35 13.3 -26.85 13.55 -24.75 13.85 -22.65 12.9 L-21.65 12.35 -21.2 12.05 Q-20.45 11.5 -19.7 11.0 L-18.75 10.2 Q-16.7 8.25 -18.9 7.1 L-19.95 6.65 Q-21.4 6.6 -22.85 6.55 -24.1 6.9 -25.25 8.0 L-28.55 8.5 Q-30.1 9.55 -29.85 12.5 M-36.65 16.5 L-36.45 16.5 Q-33.6 16.9 -30.8 17.3 L-29.6 17.4 Q-26.05 17.5 -22.5 17.6 L-21.3 17.5 Q-17.3 17.2 -14.55 18.5 L-12.55 19.85 -12.1 20.3 Q-11.25 21.35 -11.0 22.8 -10.8 24.15 -11.15 25.85 L-11.4 26.7 Q-11.65 27.9 -11.9 29.05 -11.95 30.5 -12.0 31.95 -11.75 33.85 -11.5 35.75 L-11.5 35.75 Q-10.9 37.9 -10.3 40.05 -10.0 40.8 -9.75 41.5 -9.1 42.8 -8.5 44.1 -7.35 46.15 -6.2 48.15 -5.2 49.8 -4.2 51.45 -3.15 53.1 -1.65 54.1 0.55 55.6 3.75 55.7 L5.45 55.4 Q6.75 54.85 6.5 53.0 7.7 50.15 9.55 48.5 10.3 47.8 11.2 47.3 L11.55 47.05 Q13.2 45.85 13.45 43.0 L13.4 40.45 13.25 38.85 Q12.9 36.05 12.15 33.45 11.9 32.7 11.7 31.95 L11.3 30.4 Q11.05 29.15 11.05 27.75 L11.05 27.25 Q11.05 24.45 11.85 21.95 12.35 20.75 12.85 19.55 13.25 18.35 13.65 17.2 14.05 14.4 11.25 12.65 9.8 11.8 8.7 10.75 L8.7 10.75 Q6.55 8.8 8.2 6.75 L8.8 6.05 Q11.35 3.65 8.85 1.35 7.7 0.25 7.25 -1.5 L6.95 -2.95 Q6.8 -4.25 5.0 -5.0 2.85 -5.95 1.25 -5.65 -0.1 -5.4 -1.05 -4.25 L-1.15 -4.15 Q-1.7 -3.3 -2.25 -2.5 -2.75 -1.7 -3.2 -0.95 -3.75 0.2 -5.7 0.45 L-6.45 0.5 Q-8.1 1.45 -9.55 1.75 -12.45 2.3 -14.45 0.2 L-15.0 0.2 Q-17.8 0.3 -19.8 1.2 -21.4 1.9 -22.55 3.15 -23.85 4.6 -25.65 5.25 L-28.75 5.75 -30.25 5.5 Q-32.95 5.5 -34.25 6.9 -35.6 8.25 -35.55 11.0 -35.55 11.95 -36.6 12.5 L-38.2 13.35 Q-41.05 15.2 -38.05 16.15 -37.35 16.35 -36.65 16.5"/>
    </path>
    <path d="M-34.95 -8.35 Q-35.25 -9.4 -34.75 -10.15 -33.35 -12.3 -33.4 -15.0 L-33.3 -16.7 Q-33.0 -17.75 -32.7 -18.85 -31.6 -21.2 -28.75 -22.0 -26.35 -21.15 -24.2 -19.8 L-22.85 -18.85 -20.1 -16.6 Q-18.35 -15.1 -16.6 -13.6 -14.9 -12.25 -13.25 -11.25 -10.85 -9.8 -8.4 -8.3 L-7.65 -7.85 Q-4.2 -5.95 -2.1 -8.8 -1.0 -10.35 1.35 -10.2 L2.2 -10.15 Q4.35 -9.9 4.95 -8.05 5.25 -7.2 5.2 -6.0 5.15 -4.6 6.2 -4.25 L6.4 -4.15 Q8.55 -3.65 8.65 -1.95 8.8 0.4 9.75 2.15 10.65 3.7 12.25 4.7 L13.55 5.4 Q15.35 6.2 17.1 7.25 19.85 8.9 22.45 11.15 L23.05 11.75 Q24.75 13.35 27.8 14.9 L28.0 15.0 Q29.75 15.85 31.55 16.75 34.6 17.95 37.7 19.2 38.3 20.75 39.25 21.45 40.45 22.4 42.2 22.0 47.2 20.9 44.85 25.15 L44.55 25.65 Q43.5 27.3 41.95 27.5 L40.15 27.9 Q39.2 28.15 38.45 28.55 36.1 29.9 32.15 29.2 L30.45 29.05 27.45 29.4 Q24.8 30.1 22.15 30.8 L21.35 31.05 Q20.15 31.4 18.95 31.8 15.95 31.75 12.95 31.65 11.65 30.85 10.75 29.15 L8.8 28.95 Q5.3 28.55 1.75 28.1 -0.6 27.75 -2.1 26.45 -3.8 25.0 -4.4 22.3 -5.1 19.3 -4.6 17.1 -4.2 15.3 -3.0 14.0 -2.3 13.3 -3.1 12.15 -4.95 9.4 -6.45 12.9 L-6.55 13.2 Q-7.7 15.55 -10.45 15.4 -13.45 15.2 -11.0 13.7 -9.8 13.0 -8.9 11.95 L-8.25 11.1 Q-6.7 8.85 -8.95 8.15 -10.5 7.65 -11.6 6.75 L-12.3 6.15 -14.3 4.3 Q-17.1 1.35 -21.35 1.25 L-22.8 1.3 Q-27.45 1.7 -30.65 -1.35 L-31.5 -2.25 Q-33.8 -4.8 -34.95 -8.35 L-34.95 -8.35 M-27.75 -17.5 Q-23.65 -16.5 -20.5 -13.25 L-15.45 -9.3 Q-13.25 -7.9 -10.8 -6.85 -8.0 -5.6 -6.75 -3.05 L-6.05 -0.9 Q-10.05 -0.4 -13.65 -1.05 L-16.05 -1.6 Q-18.3 -2.25 -19.15 -4.25 L-19.35 -4.85 -20.25 -7.1 Q-21.75 -11.4 -26.1 -12.7 -29.8 -13.8 -27.75 -17.5 M-26.15 -4.35 Q-29.5 -7.75 -26.0 -6.25 -24.55 -5.6 -24.3 -5.0 -22.55 -0.7 -26.15 -4.35 L-26.15 -4.35 M-2.65 4.8 Q-3.0 1.25 -1.4 -0.05 -0.35 -0.85 1.5 -0.75 2.15 2.4 3.1 4.2 3.25 4.8 3.45 5.45 3.45 6.45 2.15 6.9 L1.1 7.1 Q-1.7 7.55 -2.65 4.8 M4.25 14.25 Q4.35 10.15 7.35 8.8 L8.9 8.35 Q9.8 8.2 10.75 8.0 12.5 8.5 14.15 9.25 16.0 10.25 17.9 11.3 L18.7 11.85 Q20.65 13.2 22.65 14.55 23.35 15.0 24.1 15.45 24.75 15.9 25.45 16.35 26.05 16.7 26.65 17.05 28.8 18.45 30.85 20.1 L32.4 21.4 Q35.45 24.05 32.0 24.15 L30.55 24.1 Q28.65 24.1 26.75 24.1 25.4 24.1 24.05 24.1 L21.5 23.65 Q19.75 23.1 18.45 22.0 17.15 20.75 15.85 19.45 14.25 17.55 13.0 15.25 12.55 14.45 11.45 14.3 8.1 13.75 6.95 15.95 6.1 17.5 5.1 16.5 4.25 15.4 4.25 14.25 L4.25 14.25 Q4.35 9.25 8.8 8.35 15.0 9.2 18.7 11.85 L20.75 13.3 25.65 16.45 Q29.2 18.6 32.4 21.4 36.0 24.55 30.55 24.1 L26.75 24.1 25.05 24.15 Q20.95 24.1 18.45 22.0 15.15 19.3 13.0 15.25 12.55 14.45 11.45 14.3 8.1 13.75 6.95 15.95 5.95 17.75 4.8 16.1 4.25 15.4 4.25 14.25 4.35 9.4 8.5 8.45 15.0 9.2 18.7 11.85 22.15 14.15 25.65 16.45 29.2 18.6 32.4 21.4 36.0 24.55 30.55 24.1 L29.9 24.1 26.75 24.1 Q24.7 24.0 22.6 23.9 20.15 23.4 18.45 22.0 15.15 19.3 13.0 15.25 12.55 14.45 11.45 14.3 8.1 13.75 6.95 15.95 5.95 17.75 4.8 16.1 4.25 15.4 4.25 14.25 L4.25 14.25 Q4.35 9.25 8.8 8.35 15.0 9.2 18.7 11.85 L25.65 16.45 Q29.2 18.6 32.4 21.4 L33.65 22.75 Q34.65 24.45 30.55 24.1 L26.75 24.1 Q21.45 24.5 18.45 22.0 15.15 19.3 13.0 15.25 12.55 14.45 11.45 14.3 8.1 13.75 6.95 15.95 5.95 17.75 4.8 16.1 4.3 15.5 4.25 14.55 L4.25 14.25" fill="none" stroke="#000000" stroke-linecap="round" stroke-linejoin="round" stroke-opacity="0.0" stroke-width="1.0">
      <animate attributeName="stroke" dur="2s" repeatCount="indefinite" values="#000000;#000001"/>
      <animate attributeName="stroke-width" dur="2s" repeatCount="indefinite" values="0.0;0.0"/>
      <animate attributeName="fill-opacity" dur="2s" repeatCount="indefinite" values="0.0;0.0"/>
      <animate attributeName="d" dur="2s" repeatCount="indefinite" values="M-34.95 -8.35 Q-35.25 -9.4 -34.75 -10.15 -33.35 -12.3 -33.4 -15.0 L-33.3 -16.7 Q-33.0 -17.75 -32.7 -18.85 -31.6 -21.2 -28.75 -22.0 -26.35 -21.15 -24.2 -19.8 L-22.85 -18.85 -20.1 -16.6 Q-18.35 -15.1 -16.6 -13.6 -14.9 -12.25 -13.25 -11.25 -10.85 -9.8 -8.4 -8.3 L-7.65 -7.85 Q-4.2 -5.95 -2.1 -8.8 -1.0 -10.35 1.35 -10.2 L2.2 -10.15 Q4.35 -9.9 4.95 -8.05 5.25 -7.2 5.2 -6.0 5.15 -4.6 6.2 -4.25 L6.4 -4.15 Q8.55 -3.65 8.65 -1.95 8.8 0.4 9.75 2.15 10.65 3.7 12.25 4.7 L13.55 5.4 Q15.35 6.2 17.1 7.25 19.85 8.9 22.45 11.15 L23.05 11.75 Q24.75 13.35 27.8 14.9 L28.0 15.0 Q29.75 15.85 31.55 16.75 34.6 17.95 37.7 19.2 38.3 20.75 39.25 21.45 40.45 22.4 42.2 22.0 47.2 20.9 44.85 25.15 L44.55 25.65 Q43.5 27.3 41.95 27.5 L40.15 27.9 Q39.2 28.15 38.45 28.55 36.1 29.9 32.15 29.2 L30.45 29.05 27.45 29.4 Q24.8 30.1 22.15 30.8 L21.35 31.05 Q20.15 31.4 18.95 31.8 15.95 31.75 12.95 31.65 11.65 30.85 10.75 29.15 L8.8 28.95 Q5.3 28.55 1.75 28.1 -0.6 27.75 -2.1 26.45 -3.8 25.0 -4.4 22.3 -5.1 19.3 -4.6 17.1 -4.2 15.3 -3.0 14.0 -2.3 13.3 -3.1 12.15 -4.95 9.4 -6.45 12.9 L-6.55 13.2 Q-7.7 15.55 -10.45 15.4 -13.45 15.2 -11.0 13.7 -9.8 13.0 -8.9 11.95 L-8.25 11.1 Q-6.7 8.85 -8.95 8.15 -10.5 7.65 -11.6 6.75 L-12.3 6.15 -14.3 4.3 Q-17.1 1.35 -21.35 1.25 L-22.8 1.3 Q-27.45 1.7 -30.65 -1.35 L-31.5 -2.25 Q-33.8 -4.8 -34.95 -8.35 L-34.95 -8.35 M-27.75 -17.5 Q-23.65 -16.5 -20.5 -13.25 L-15.45 -9.3 Q-13.25 -7.9 -10.8 -6.85 -8.0 -5.6 -6.75 -3.05 L-6.05 -0.9 Q-10.05 -0.4 -13.65 -1.05 L-16.05 -1.6 Q-18.3 -2.25 -19.15 -4.25 L-19.35 -4.85 -20.25 -7.1 Q-21.75 -11.4 -26.1 -12.7 -29.8 -13.8 -27.75 -17.5 M-26.15 -4.35 Q-29.5 -7.75 -26.0 -6.25 -24.55 -5.6 -24.3 -5.0 -22.55 -0.7 -26.15 -4.35 L-26.15 -4.35 M-2.65 4.8 Q-3.0 1.25 -1.4 -0.05 -0.35 -0.85 1.5 -0.75 2.15 2.4 3.1 4.2 3.25 4.8 3.45 5.45 3.45 6.45 2.15 6.9 L1.1 7.1 Q-1.7 7.55 -2.65 4.8 M4.25 14.25 Q4.35 10.15 7.35 8.8 L8.9 8.35 Q9.8 8.2 10.75 8.0 12.5 8.5 14.15 9.25 16.0 10.25 17.9 11.3 L18.7 11.85 Q20.65 13.2 22.65 14.55 23.35 15.0 24.1 15.45 24.75 15.9 25.45 16.35 26.05 16.7 26.65 17.05 28.8 18.45 30.85 20.1 L32.4 21.4 Q35.45 24.05 32.0 24.15 L30.55 24.1 Q28.65 24.1 26.75 24.1 25.4 24.1 24.05 24.1 L21.5 23.65 Q19.75 23.1 18.45 22.0 17.15 20.75 15.85 19.45 14.25 17.55 13.0 15.25 12.55 14.45 11.45 14.3 8.1 13.75 6.95 15.95 6.1 17.5 5.1 16.5 4.25 15.4 4.25 14.25 L4.25 14.25 Q4.35 9.25 8.8 8.35 15.0 9.2 18.7 11.85 L20.75 13.3 25.65 16.45 Q29.2 18.6 32.4 21.4 36.0 24.55 30.55 24.1 L26.75 24.1 25.05 24.15 Q20.95 24.1 18.45 22.0 15.15 19.3 13.0 15.25 12.55 14.45 11.45 14.3 8.1 13.75 6.95 15.95 5.95 17.75 4.8 16.1 4.25 15.4 4.25 14.25 4.35 9.4 8.5 8.45 15.0 9.2 18.7 11.85 22.15 14.15 25.65 16.45 29.2 18.6 32.4 21.4 36.0 24.55 30.55 24.1 L29.9 24.1 26.75 24.1 Q24.7 24.0 22.6 23.9 20.15 23.4 18.45 22.0 15.15 19.3 13.0 15.25 12.55 14.45 11.45 14.3 8.1 13.75 6.95 15.95 5.95 17.75 4.8 16.1 4.25 15.4 4.25 14.25 L4.25 14.25 Q4.35 9.25 8.8 8.35 15.0 9.2 18.7 11.85 L25.65 16.45 Q29.2 18.6 32.4 21.4 L33.65 22.75 Q34.65 24.45 30.55 24.1 L26.75 24.1 Q21.45 24.5 18.45 22.0 15.15 19.3 13.0 15.25 12.55 14.45 11.45 14.3 8.1 13.75 6.95 15.95 5.95 17.75 4.8 16.1 4.3 15.5 4.25 14.55 L4.25 14.25;M-36.65 16.5 Q-37.35 16.35 -38.05 16.15 -41.05 15.2 -38.2 13.35 L-36.6 12.5 Q-35.55 11.95 -35.55 11.0 -35.6 8.25 -34.25 6.9 -32.95 5.5 -30.25 5.5 L-28.75 5.75 -25.65 5.25 Q-23.85 4.6 -22.55 3.15 -21.4 1.9 -19.8 1.2 -17.8 0.3 -15.0 0.2 L-14.45 0.2 Q-12.45 2.3 -9.55 1.75 -8.1 1.45 -6.45 0.5 L-5.7 0.45 Q-3.75 0.2 -3.2 -0.95 -2.75 -1.7 -2.25 -2.5 -1.7 -3.3 -1.15 -4.15 L-1.05 -4.25 Q-0.1 -5.4 1.25 -5.65 2.85 -5.95 5.0 -5.0 6.8 -4.25 6.95 -2.95 L7.25 -1.5 Q7.7 0.25 8.85 1.35 11.35 3.65 8.8 6.05 L8.2 6.75 Q6.55 8.8 8.7 10.75 L8.7 10.75 Q9.8 11.8 11.25 12.65 14.05 14.4 13.65 17.2 13.25 18.35 12.85 19.55 12.35 20.75 11.85 21.95 11.05 24.45 11.05 27.25 L11.05 27.75 Q11.05 29.15 11.3 30.4 L11.7 31.95 Q11.9 32.7 12.15 33.45 12.9 36.05 13.25 38.85 L13.4 40.45 13.45 43.0 Q13.2 45.85 11.55 47.05 L11.2 47.3 Q10.3 47.8 9.55 48.5 7.7 50.15 6.5 53.0 6.75 54.85 5.45 55.4 L3.75 55.7 Q0.55 55.6 -1.65 54.1 -3.15 53.1 -4.2 51.45 -5.2 49.8 -6.2 48.15 -7.35 46.15 -8.5 44.1 -9.1 42.8 -9.75 41.5 -10.0 40.8 -10.3 40.05 -10.9 37.9 -11.5 35.75 L-11.5 35.75 Q-11.75 33.85 -12.0 31.95 -11.95 30.5 -11.9 29.05 -11.65 27.9 -11.4 26.7 L-11.15 25.85 Q-10.8 24.15 -11.0 22.8 -11.25 21.35 -12.1 20.3 L-12.55 19.85 -14.55 18.5 Q-17.3 17.2 -21.3 17.5 L-22.5 17.6 Q-26.05 17.5 -29.6 17.4 L-30.8 17.3 Q-33.6 16.9 -36.45 16.5 L-36.65 16.5 M-29.85 12.5 Q-30.1 9.55 -28.55 8.5 L-25.25 8.0 Q-24.1 6.9 -22.85 6.55 -21.4 6.6 -19.95 6.65 L-18.9 7.1 Q-16.7 8.25 -18.75 10.2 L-19.7 11.0 Q-20.45 11.5 -21.2 12.05 L-21.65 12.35 -22.65 12.9 Q-24.75 13.85 -26.85 13.55 -28.35 13.3 -29.85 12.5 M-19.8 14.2 Q-17.65 12.65 -14.85 13.05 -14.2 13.65 -14.65 13.95 -17.05 15.5 -19.7 14.3 L-19.8 14.2 M-13.5 8.25 Q-10.3 6.85 -7.05 5.45 -4.6 4.3 -3.45 5.2 -2.2 9.5 -2.5 11.45 -2.95 12.75 -4.1 12.45 -5.55 12.15 -7.05 11.8 L-8.6 11.6 Q-12.4 11.05 -13.5 8.25 M-6.95 25.9 Q-8.45 21.25 -6.5 17.75 L-5.15 16.55 Q-4.0 16.2 -3.1 15.6 -1.3 14.45 -0.55 12.15 0.4 9.1 3.65 11.7 L4.8 12.55 Q7.2 14.2 10.0 15.0 9.9 15.9 9.1 16.6 8.35 17.25 9.0 18.15 9.35 19.3 9.0 20.05 7.85 22.8 7.95 26.5 L8.2 29.4 Q8.65 32.4 9.8 35.0 L10.4 36.65 Q11.1 38.9 10.95 41.45 10.85 43.15 10.35 45.0 L7.15 45.25 Q4.7 44.75 3.6 43.75 1.8 42.1 3.35 39.25 5.1 36.05 3.9 33.05 3.35 32.05 2.75 31.0 0.7 28.25 -2.8 28.3 -4.35 28.55 -5.95 28.8 -6.45 27.4 -6.95 26.0 L-6.95 25.9 Q-2.8 33.6 -1.9 33.4 -0.05 33.55 0.25 35.7 L0.3 36.5 0.25 38.35 Q0.0 39.85 -0.75 40.85 -1.4 41.4 -2.05 42.0 L-3.1 42.2 -3.6 41.95 Q-4.35 41.25 -5.15 40.5 -5.95 39.3 -5.75 37.95 -5.7 37.7 -5.65 37.4 -5.3 36.65 -4.95 35.85 -4.65 35.4 -4.3 34.9 -4.15 34.7 -4.0 34.5 0.25 46.9 1.25 46.8 2.5 46.85 3.8 46.9 5.15 47.1 5.3 47.9 5.4 48.6 4.5 49.75 4.05 50.3 3.55 50.9 L3.35 51.1 2.85 51.55 Q2.3 51.95 2.0 51.85 1.55 51.65 1.1 51.4 0.35 50.8 -0.1 49.75 -0.2 49.55 -0.3 49.35 -0.45 48.75 -0.6 48.15 -0.65 47.85 -0.7 47.5 -0.7 47.3 -0.75 47.1 L-0.75 47.0 Q3.95 1.25 4.65 1.3 5.7 1.85 5.4 2.95 L4.75 4.35 Q4.35 5.05 3.9 5.75 L3.7 5.95 Q3.4 5.8 3.05 5.65 L2.5 5.35 Q1.75 4.9 1.5 4.35 1.15 3.65 1.7 2.8 1.8 2.65 1.9 2.5 2.25 2.15 2.6 1.75 2.8 1.6 3.0 1.45 3.1 1.35 3.25 1.25 L3.25 1.25"/>
    </path>
  </g>
</svg>
