<?xml version="1.0" encoding="UTF-8" standalone="no"?>
<svg xmlns:xlink="http://www.w3.org/1999/xlink" height="42.6px" width="28.5px" xmlns="http://www.w3.org/2000/svg">
  <g transform="matrix(1.0, 0.0, 0.0, 1.0, 15.95, 6.05)">
    <path d="M-12.1 29.05 L-12.1 29.05 Q-11.8 29.75 -10.5 29.6 -9.8 29.4 -9.1 29.2 -8.25 28.85 -7.45 28.55 L-7.45 28.55 Q-5.55 27.65 -7.05 26.05 -7.95 25.15 -9.3 24.95 -9.85 24.8 -10.4 24.7 -10.95 24.6 -12.1 25.25 -13.0 26.85 -12.1 29.05 M-15.35 27.2 L-15.35 27.2 Q-14.75 28.45 -15.15 29.65 -16.45 33.9 -12.25 33.9 -9.9 33.85 -9.4 31.1 -6.6 31.15 -5.45 30.15 -3.8 28.75 -5.35 25.2 -5.8 24.15 -6.4 23.75 -10.15 21.15 -7.35 18.7 L-6.4 18.0 Q-4.05 16.45 -4.2 19.25 -4.45 24.7 -0.9 27.0 L0.65 27.05 Q2.55 23.95 4.1 26.05 4.8 27.0 5.4 29.1 1.85 33.6 4.5 36.55 9.6 34.65 8.9 28.65 8.5 25.5 10.2 23.25 L10.75 22.55 11.7 21.3 Q14.35 17.0 8.9 14.8 9.3 11.05 7.7 8.7 7.0 7.6 7.55 7.05 10.6 4.3 8.85 -0.7 7.35 -5.05 3.6 -5.95 1.25 -6.55 2.15 -3.85 L2.45 -2.95 3.25 0.35 Q3.9 3.25 1.75 5.0 L0.25 5.9 Q-1.4 6.35 -1.5 3.2 -1.65 -0.3 -3.45 -1.65 L-4.0 -2.0 Q-8.75 -2.1 -7.75 3.65 -10.0 5.65 -8.9 9.05 -8.15 11.3 -11.15 12.9 -13.05 13.95 -11.9 16.75 -10.85 19.35 -12.15 20.55 L-14.55 22.4 Q-16.9 23.75 -15.35 27.2 M-8.05 13.45 L-8.05 13.45 Q-7.25 13.35 -6.5 13.3 -6.0 13.25 -5.5 13.2 -4.75 13.1 -4.05 13.0 -3.15 12.75 -2.3 12.55 -3.7 11.05 -4.8 11.0 L-5.55 11.1 -6.2 11.4 Q-7.55 11.9 -8.05 13.45 M-0.55 22.7 L-0.25 22.7 Q1.15 22.85 2.5 23.0 3.55 22.95 4.6 22.95 5.55 22.7 6.5 22.5 7.05 22.25 6.75 20.8 6.05 19.05 5.4 17.3 4.4 15.3 3.0 13.7 2.1 14.2 1.45 14.65 L0.35 15.65 0.0 17.05 Q-0.55 19.9 -0.55 22.7" fill="#cf1f1f" fill-opacity="0.5019608" fill-rule="evenodd" stroke="none">
      <animate attributeName="fill" dur="2s" repeatCount="indefinite" values="#cf1f1f;#cf1f20"/>
      <animate attributeName="fill-opacity" dur="2s" repeatCount="indefinite" values="0.5019608;0.5019608"/>
      <animate attributeName="d" dur="2s" repeatCount="indefinite" values="M-12.1 29.05 L-12.1 29.05 Q-11.8 29.75 -10.5 29.6 -9.8 29.4 -9.1 29.2 -8.25 28.85 -7.45 28.55 L-7.45 28.55 Q-5.55 27.65 -7.05 26.05 -7.95 25.15 -9.3 24.95 -9.85 24.8 -10.4 24.7 -10.95 24.6 -12.1 25.25 -13.0 26.85 -12.1 29.05 M-15.35 27.2 L-15.35 27.2 Q-14.75 28.45 -15.15 29.65 -16.45 33.9 -12.25 33.9 -9.9 33.85 -9.4 31.1 -6.6 31.15 -5.45 30.15 -3.8 28.75 -5.35 25.2 -5.8 24.15 -6.4 23.75 -10.15 21.15 -7.35 18.7 L-6.4 18.0 Q-4.05 16.45 -4.2 19.25 -4.45 24.7 -0.9 27.0 L0.65 27.05 Q2.55 23.95 4.1 26.05 4.8 27.0 5.4 29.1 1.85 33.6 4.5 36.55 9.6 34.65 8.9 28.65 8.5 25.5 10.2 23.25 L10.75 22.55 11.7 21.3 Q14.35 17.0 8.9 14.8 9.3 11.05 7.7 8.7 7.0 7.6 7.55 7.05 10.6 4.3 8.85 -0.7 7.35 -5.05 3.6 -5.95 1.25 -6.55 2.15 -3.85 L2.45 -2.95 3.25 0.35 Q3.9 3.25 1.75 5.0 L0.25 5.9 Q-1.4 6.35 -1.5 3.2 -1.65 -0.3 -3.45 -1.65 L-4.0 -2.0 Q-8.75 -2.1 -7.75 3.65 -10.0 5.65 -8.9 9.05 -8.15 11.3 -11.15 12.9 -13.05 13.95 -11.9 16.75 -10.85 19.35 -12.15 20.55 L-14.55 22.4 Q-16.9 23.75 -15.35 27.2 M-8.05 13.45 L-8.05 13.45 Q-7.25 13.35 -6.5 13.3 -6.0 13.25 -5.5 13.2 -4.75 13.1 -4.05 13.0 -3.15 12.75 -2.3 12.55 -3.7 11.05 -4.8 11.0 L-5.55 11.1 -6.2 11.4 Q-7.55 11.9 -8.05 13.45 M-0.55 22.7 L-0.25 22.7 Q1.15 22.85 2.5 23.0 3.55 22.95 4.6 22.95 5.55 22.7 6.5 22.5 7.05 22.25 6.75 20.8 6.05 19.05 5.4 17.3 4.4 15.3 3.0 13.7 2.1 14.2 1.45 14.65 L0.35 15.65 0.0 17.05 Q-0.55 19.9 -0.55 22.7;M-7.85 12.5 L-7.85 12.6 Q-7.8 14.75 -4.75 13.6 -3.3 13.05 -2.65 11.7 -1.7 9.75 0.75 11.1 L1.15 11.35 Q3.7 13.0 6.8 13.5 7.05 10.1 4.4 8.3 3.45 7.65 2.2 7.2 -0.15 6.95 -2.5 6.75 -7.8 7.3 -7.85 12.5 M-7.85 12.5 L-7.85 12.6 Q-7.8 12.9 -7.75 13.2 -7.55 13.95 -6.6 14.0 -6.1 13.9 -5.6 13.85 -5.15 13.7 -4.75 13.6 -4.25 13.3 -3.75 13.05 -3.55 12.9 -3.4 12.75 -3.0 12.2 -2.65 11.7 L-2.55 11.5 Q-2.2 11.15 -1.9 10.85 -0.95 10.8 0.0 10.75 L0.3 10.85 Q0.75 11.1 1.15 11.35 1.55 11.6 1.95 11.85 2.75 12.3 3.5 12.75 4.55 13.25 5.55 13.7 6.15 13.95 6.7 14.2 L6.7 14.2 6.75 13.8 Q6.7 12.8 6.7 11.85 6.45 11.05 6.2 10.3 6.1 10.1 6.0 9.95 5.35 9.2 4.7 8.5 3.95 8.05 3.2 7.6 2.8 7.45 2.4 7.3 L2.2 7.2 1.35 6.95 Q0.75 6.8 0.15 6.65 L-0.25 6.55 Q-0.75 6.5 -1.2 6.45 -2.15 6.4 -2.5 6.75 L-3.0 6.8 Q-3.9 7.05 -4.8 7.3 -5.45 7.55 -5.95 7.95 -6.35 8.4 -6.75 8.8 -7.05 9.3 -7.35 9.75 -7.5 10.2 -7.6 10.6 L-7.75 11.3 Q-7.8 11.9 -7.85 12.5 M-7.85 12.5 L-7.85 12.6 Q-7.85 14.8 -4.75 13.6 -3.3 13.05 -2.65 11.7 -1.6 9.6 1.15 11.35 3.55 12.9 6.7 14.2 7.5 9.05 2.2 7.2 L-0.25 6.55 -2.5 6.75 Q-7.8 7.3 -7.85 12.5 M-7.85 12.5 L-7.85 12.5 Q-7.9 14.8 -4.75 13.6 -3.3 13.05 -2.65 11.7 -1.95 10.25 -0.4 10.65 0.3 10.8 1.85 11.8 4.1 13.15 6.7 14.2 7.3 10.5 4.7 8.5 3.7 7.7 2.2 7.2 L-0.25 6.55 -2.5 6.75 Q-7.8 7.3 -7.85 12.5"/>
    </path>
    <path d="M-15.35 27.2 Q-16.9 23.75 -14.55 22.4 L-12.15 20.55 Q-10.85 19.35 -11.9 16.75 -13.05 13.95 -11.15 12.9 -8.15 11.3 -8.9 9.05 -10.0 5.65 -7.75 3.65 -8.75 -2.1 -4.0 -2.0 L-3.45 -1.65 Q-1.65 -0.3 -1.5 3.2 -1.4 6.35 0.25 5.9 L1.75 5.0 Q3.9 3.25 3.25 0.35 L2.45 -2.95 2.15 -3.85 Q1.25 -6.55 3.6 -5.95 7.35 -5.05 8.85 -0.7 10.6 4.3 7.55 7.05 7.0 7.6 7.7 8.7 9.3 11.05 8.9 14.8 14.35 17.0 11.7 21.3 L10.75 22.55 10.2 23.25 Q8.5 25.5 8.9 28.65 9.6 34.65 4.5 36.55 1.85 33.6 5.4 29.1 4.8 27.0 4.1 26.05 2.55 23.95 0.65 27.05 L-0.9 27.0 Q-4.45 24.7 -4.2 19.25 -4.05 16.45 -6.4 18.0 L-7.35 18.7 Q-10.15 21.15 -6.4 23.75 -5.8 24.15 -5.35 25.2 -3.8 28.75 -5.45 30.15 -6.6 31.15 -9.4 31.1 -9.9 33.85 -12.25 33.9 -16.45 33.9 -15.15 29.65 -14.75 28.45 -15.35 27.2 L-15.35 27.2 M-12.1 29.05 Q-13.0 26.85 -12.1 25.25 -10.95 24.6 -10.4 24.7 -9.85 24.8 -9.3 24.95 -7.95 25.15 -7.05 26.05 -5.55 27.65 -7.45 28.55 L-7.45 28.55 Q-8.25 28.85 -9.1 29.2 -9.8 29.4 -10.5 29.6 -11.8 29.75 -12.1 29.05 L-12.1 29.05 Q-13.0 26.85 -12.1 25.25 -10.95 24.6 -10.4 24.7 -9.85 24.8 -9.3 24.95 -7.95 25.15 -7.05 26.05 -5.55 27.65 -7.45 28.55 L-7.45 28.55 Q-8.25 28.85 -9.1 29.2 -9.8 29.4 -10.5 29.6 -11.8 29.75 -12.1 29.05 L-12.1 29.05 M-8.05 13.45 Q-7.55 11.9 -6.2 11.4 L-5.55 11.1 -4.8 11.0 Q-3.7 11.05 -2.3 12.55 -3.15 12.75 -4.05 13.0 -4.75 13.1 -5.5 13.2 -6.0 13.25 -6.5 13.3 -7.25 13.35 -8.05 13.45 L-8.05 13.45 Q-7.55 11.9 -6.2 11.4 L-5.55 11.1 -4.8 11.0 Q-3.7 11.05 -2.3 12.55 -3.15 12.75 -4.05 13.0 -4.75 13.1 -5.5 13.2 -6.0 13.25 -6.5 13.3 -7.25 13.35 -8.05 13.45 L-8.05 13.45 M-0.55 22.7 Q-0.55 19.9 0.0 17.05 L0.35 15.65 1.45 14.65 Q2.1 14.2 3.0 13.7 4.4 15.3 5.4 17.3 6.05 19.05 6.75 20.8 7.05 22.25 6.5 22.5 5.55 22.7 4.6 22.95 3.55 22.95 2.5 23.0 1.15 22.85 -0.25 22.7 L-0.55 22.7 Q-0.55 19.9 0.0 17.05 L0.35 15.65 1.45 14.65 Q2.1 14.2 3.0 13.7 4.4 15.3 5.4 17.3 6.05 19.05 6.75 20.8 7.05 22.25 6.5 22.5 5.55 22.7 4.6 22.95 3.55 22.95 2.5 23.0 1.15 22.85 -0.25 22.7 L-0.55 22.7" fill="none" stroke="#000000" stroke-linecap="round" stroke-linejoin="round" stroke-opacity="0.0" stroke-width="1.0">
      <animate attributeName="stroke" dur="2s" repeatCount="indefinite" values="#000000;#000001"/>
      <animate attributeName="stroke-width" dur="2s" repeatCount="indefinite" values="0.0;0.0"/>
      <animate attributeName="fill-opacity" dur="2s" repeatCount="indefinite" values="0.0;0.0"/>
      <animate attributeName="d" dur="2s" repeatCount="indefinite" values="M-15.35 27.2 Q-16.9 23.75 -14.55 22.4 L-12.15 20.55 Q-10.85 19.35 -11.9 16.75 -13.05 13.95 -11.15 12.9 -8.15 11.3 -8.9 9.05 -10.0 5.65 -7.75 3.65 -8.75 -2.1 -4.0 -2.0 L-3.45 -1.65 Q-1.65 -0.3 -1.5 3.2 -1.4 6.35 0.25 5.9 L1.75 5.0 Q3.9 3.25 3.25 0.35 L2.45 -2.95 2.15 -3.85 Q1.25 -6.55 3.6 -5.95 7.35 -5.05 8.85 -0.7 10.6 4.3 7.55 7.05 7.0 7.6 7.7 8.7 9.3 11.05 8.9 14.8 14.35 17.0 11.7 21.3 L10.75 22.55 10.2 23.25 Q8.5 25.5 8.9 28.65 9.6 34.65 4.5 36.55 1.85 33.6 5.4 29.1 4.8 27.0 4.1 26.05 2.55 23.95 0.65 27.05 L-0.9 27.0 Q-4.45 24.7 -4.2 19.25 -4.05 16.45 -6.4 18.0 L-7.35 18.7 Q-10.15 21.15 -6.4 23.75 -5.8 24.15 -5.35 25.2 -3.8 28.75 -5.45 30.15 -6.6 31.15 -9.4 31.1 -9.9 33.85 -12.25 33.9 -16.45 33.9 -15.15 29.65 -14.75 28.45 -15.35 27.2 L-15.35 27.2 M-12.1 29.05 Q-13.0 26.85 -12.1 25.25 -10.95 24.6 -10.4 24.7 -9.85 24.8 -9.3 24.95 -7.95 25.15 -7.05 26.05 -5.55 27.65 -7.45 28.55 L-7.45 28.55 Q-8.25 28.85 -9.1 29.2 -9.8 29.4 -10.5 29.6 -11.8 29.75 -12.1 29.05 L-12.1 29.05 Q-13.0 26.85 -12.1 25.25 -10.95 24.6 -10.4 24.7 -9.85 24.8 -9.3 24.95 -7.95 25.15 -7.05 26.05 -5.55 27.65 -7.45 28.55 L-7.45 28.55 Q-8.25 28.85 -9.1 29.2 -9.8 29.4 -10.5 29.6 -11.8 29.75 -12.1 29.05 L-12.1 29.05 M-8.05 13.45 Q-7.55 11.9 -6.2 11.4 L-5.55 11.1 -4.8 11.0 Q-3.7 11.05 -2.3 12.55 -3.15 12.75 -4.05 13.0 -4.75 13.1 -5.5 13.2 -6.0 13.25 -6.5 13.3 -7.25 13.35 -8.05 13.45 L-8.05 13.45 Q-7.55 11.9 -6.2 11.4 L-5.55 11.1 -4.8 11.0 Q-3.7 11.05 -2.3 12.55 -3.15 12.75 -4.05 13.0 -4.75 13.1 -5.5 13.2 -6.0 13.25 -6.5 13.3 -7.25 13.35 -8.05 13.45 L-8.05 13.45 M-0.55 22.7 Q-0.55 19.9 0.0 17.05 L0.35 15.65 1.45 14.65 Q2.1 14.2 3.0 13.7 4.4 15.3 5.4 17.3 6.05 19.05 6.75 20.8 7.05 22.25 6.5 22.5 5.55 22.7 4.6 22.95 3.55 22.95 2.5 23.0 1.15 22.85 -0.25 22.7 L-0.55 22.7 Q-0.55 19.9 0.0 17.05 L0.35 15.65 1.45 14.65 Q2.1 14.2 3.0 13.7 4.4 15.3 5.4 17.3 6.05 19.05 6.75 20.8 7.05 22.25 6.5 22.5 5.55 22.7 4.6 22.95 3.55 22.95 2.5 23.0 1.15 22.85 -0.25 22.7 L-0.55 22.7;M-7.85 12.5 Q-7.8 11.9 -7.75 11.3 L-7.6 10.6 Q-7.5 10.2 -7.35 9.75 -7.05 9.3 -6.75 8.8 -6.35 8.4 -5.95 7.95 -5.45 7.55 -4.8 7.3 -3.9 7.05 -3.0 6.8 L-2.5 6.75 Q-2.15 6.4 -1.2 6.45 -0.75 6.5 -0.25 6.55 L0.15 6.65 Q0.75 6.8 1.35 6.95 L2.2 7.2 2.4 7.3 Q2.8 7.45 3.2 7.6 3.95 8.05 4.7 8.5 5.35 9.2 6.0 9.95 6.1 10.1 6.2 10.3 6.45 11.05 6.7 11.85 6.7 12.8 6.75 13.8 L6.7 14.2 6.7 14.2 Q6.15 13.95 5.55 13.7 4.55 13.25 3.5 12.75 2.75 12.3 1.95 11.85 1.55 11.6 1.15 11.35 0.75 11.1 0.3 10.85 L0.0 10.75 Q-0.95 10.8 -1.9 10.85 -2.2 11.15 -2.55 11.5 L-2.65 11.7 Q-3.0 12.2 -3.4 12.75 -3.55 12.9 -3.75 13.05 -4.25 13.3 -4.75 13.6 -5.15 13.7 -5.6 13.85 -6.1 13.9 -6.6 14.0 -7.55 13.95 -7.75 13.2 -7.8 12.9 -7.85 12.6 L-7.85 12.5 M-7.85 12.5 Q-7.8 7.3 -2.5 6.75 -0.15 6.95 2.2 7.2 3.45 7.65 4.4 8.3 7.05 10.1 6.8 13.5 3.7 13.0 1.15 11.35 L0.75 11.1 Q-1.7 9.75 -2.65 11.7 -3.3 13.05 -4.75 13.6 -7.8 14.75 -7.85 12.6 L-7.85 12.5 Q-7.8 7.3 -2.5 6.75 -0.15 6.95 2.2 7.2 3.45 7.65 4.4 8.3 7.05 10.1 6.8 13.5 3.7 13.0 1.15 11.35 L0.75 11.1 Q-1.7 9.75 -2.65 11.7 -3.3 13.05 -4.75 13.6 -7.8 14.75 -7.85 12.6 L-7.85 12.5 M-7.85 12.5 Q-7.8 7.3 -2.5 6.75 L-0.25 6.55 2.2 7.2 Q7.5 9.05 6.7 14.2 3.55 12.9 1.15 11.35 -1.6 9.6 -2.65 11.7 -3.3 13.05 -4.75 13.6 -7.85 14.8 -7.85 12.6 L-7.85 12.5 Q-7.8 7.3 -2.5 6.75 L-0.25 6.55 2.2 7.2 Q7.5 9.05 6.7 14.2 3.55 12.9 1.15 11.35 -1.6 9.6 -2.65 11.7 -3.3 13.05 -4.75 13.6 -7.85 14.8 -7.85 12.6 L-7.85 12.5 M-7.85 12.5 Q-7.8 7.3 -2.5 6.75 L-0.25 6.55 2.2 7.2 Q3.7 7.7 4.7 8.5 7.3 10.5 6.7 14.2 4.1 13.15 1.85 11.8 0.3 10.8 -0.4 10.65 -1.95 10.25 -2.65 11.7 -3.3 13.05 -4.75 13.6 -7.9 14.8 -7.85 12.5 L-7.85 12.5 Q-7.8 7.3 -2.5 6.75 L-0.25 6.55 2.2 7.2 Q3.7 7.7 4.7 8.5 7.3 10.5 6.7 14.2 4.1 13.15 1.85 11.8 0.3 10.8 -0.4 10.65 -1.95 10.25 -2.65 11.7 -3.3 13.05 -4.75 13.6 -7.9 14.8 -7.85 12.5 L-7.85 12.5"/>
    </path>
  </g>
</svg>
