<?xml version="1.0" encoding="UTF-8" standalone="no"?>
<svg xmlns:xlink="http://www.w3.org/1999/xlink" height="37.7px" width="46.25px" xmlns="http://www.w3.org/2000/svg">
  <g transform="matrix(1.0, 0.0, 0.0, 1.0, 23.5, 18.85)">
    <path d="M-22.5 0.25 L-22.5 0.35 Q-22.5 7.7 -16.8 12.85 L-15.95 13.55 Q-10.7 17.7 -0.8 17.85 L0.0 17.85 Q9.95 17.85 15.1 13.85 L16.0 13.1 Q21.75 7.95 21.75 0.2 21.65 -7.0 14.95 -13.0 12.4 -15.0 8.6 -16.3 4.15 -17.85 -0.2 -17.85 -4.4 -17.8 -8.95 -16.4 -13.25 -15.1 -16.8 -12.4 -22.5 -7.15 -22.5 0.25" fill="url(#gradient0)" fill-rule="evenodd" stroke="none">
      <animate attributeName="d" dur="2s" repeatCount="indefinite" values="M-22.5 0.25 L-22.5 0.35 Q-22.5 7.7 -16.8 12.85 L-15.95 13.55 Q-10.7 17.7 -0.8 17.85 L0.0 17.85 Q9.95 17.85 15.1 13.85 L16.0 13.1 Q21.75 7.95 21.75 0.2 21.65 -7.0 14.95 -13.0 12.4 -15.0 8.6 -16.3 4.15 -17.85 -0.2 -17.85 -4.4 -17.8 -8.95 -16.4 -13.25 -15.1 -16.8 -12.4 -22.5 -7.15 -22.5 0.25;M-19.55 0.0 L-19.55 0.0 Q-19.55 7.0 -14.45 12.0 L-13.85 12.6 Q-8.05 17.85 0.0 17.85 L0.8 17.85 Q8.4 17.6 13.8 12.6 L14.55 11.9 Q19.45 7.0 19.55 0.0 19.55 -6.75 13.8 -12.65 11.25 -15.0 8.2 -16.3 4.6 -17.8 0.0 -17.85 -4.25 -17.85 -7.9 -16.4 -11.1 -15.1 -14.6 -11.95 -19.55 -6.9 -19.55 0.0"/>
    </path>
    <path d="M-22.5 0.25 Q-22.5 -7.15 -16.8 -12.4 -13.25 -15.1 -8.95 -16.4 -4.4 -17.8 -0.2 -17.85 4.15 -17.85 8.6 -16.3 12.4 -15.0 14.95 -13.0 21.65 -7.0 21.75 0.2 21.75 7.95 16.0 13.1 L15.1 13.85 Q9.95 17.85 0.0 17.85 L-0.8 17.85 Q-10.7 17.7 -15.95 13.55 L-16.8 12.85 Q-22.5 7.7 -22.5 0.35 M-22.5 0.25 Q-22.5 -7.15 -16.8 -12.4 -13.25 -15.1 -8.95 -16.4 -4.4 -17.8 -0.2 -17.85 4.15 -17.85 8.6 -16.3 12.4 -15.0 14.95 -13.0 21.65 -7.0 21.75 0.2 21.75 7.95 16.0 13.1 L15.1 13.85 Q9.95 17.85 0.0 17.85 L-0.8 17.85 Q-10.7 17.7 -15.95 13.55 L-16.8 12.85 Q-22.5 7.7 -22.5 0.35 L-22.5 0.25" fill="none" stroke="#000000" stroke-linecap="round" stroke-linejoin="round" stroke-width="2.0">
      <animate attributeName="stroke" dur="2s" repeatCount="indefinite" values="#000000;#000001"/>
      <animate attributeName="stroke-width" dur="2s" repeatCount="indefinite" values="2.0;2.0"/>
      <animate attributeName="fill-opacity" dur="2s" repeatCount="indefinite" values="1.0;1.0"/>
      <animate attributeName="d" dur="2s" repeatCount="indefinite" values="M-22.5 0.25 Q-22.5 -7.15 -16.8 -12.4 -13.25 -15.1 -8.95 -16.4 -4.4 -17.8 -0.2 -17.85 4.15 -17.85 8.6 -16.3 12.4 -15.0 14.95 -13.0 21.65 -7.0 21.75 0.2 21.75 7.95 16.0 13.1 L15.1 13.85 Q9.95 17.85 0.0 17.85 L-0.8 17.85 Q-10.7 17.7 -15.95 13.55 L-16.8 12.85 Q-22.5 7.7 -22.5 0.35 M-22.5 0.25 Q-22.5 -7.15 -16.8 -12.4 -13.25 -15.1 -8.95 -16.4 -4.4 -17.8 -0.2 -17.85 4.15 -17.85 8.6 -16.3 12.4 -15.0 14.95 -13.0 21.65 -7.0 21.75 0.2 21.75 7.95 16.0 13.1 L15.1 13.85 Q9.95 17.85 0.0 17.85 L-0.8 17.85 Q-10.7 17.7 -15.95 13.55 L-16.8 12.85 Q-22.5 7.7 -22.5 0.35 L-22.5 0.25;M-19.55 0.0 Q-19.55 -6.9 -14.6 -11.95 -11.1 -15.1 -7.9 -16.4 -4.25 -17.85 0.0 -17.85 4.6 -17.8 8.2 -16.3 11.25 -15.0 13.8 -12.65 19.55 -6.75 19.55 0.0 19.45 7.0 14.55 11.9 L13.8 12.6 Q8.4 17.6 0.8 17.85 L0.0 17.85 Q-8.05 17.85 -13.85 12.6 L-14.45 12.0 Q-19.55 7.0 -19.55 0.0 M-19.55 0.0 Q-19.55 -6.9 -14.6 -11.95 -11.1 -15.1 -7.9 -16.4 -4.25 -17.85 0.0 -17.85 4.6 -17.8 8.2 -16.3 11.25 -15.0 13.8 -12.65 19.55 -6.75 19.55 0.0 19.45 7.0 14.55 11.9 L13.8 12.6 Q8.4 17.6 0.8 17.85 L0.0 17.85 Q-8.05 17.85 -13.85 12.6 L-14.45 12.0 Q-19.55 7.0 -19.55 0.0 L-19.55 0.0"/>
    </path>
  </g>
  <defs>
    <radialGradient cx="0" cy="0" gradientTransform="matrix(0.0387, -0.0189, 0.0129, 0.0264, 5.1, 4.25)" gradientUnits="userSpaceOnUse" id="gradient0" r="819.2" spreadMethod="pad">
      <animateTransform additive="replace" attributeName="gradientTransform" dur="2s" from="1" repeatCount="indefinite" to="1" type="scale"/>
      <animateTransform additive="sum" attributeName="gradientTransform" dur="2s" from="5.1 4.25" repeatCount="indefinite" to="5.1 4.25" type="translate"/>
      <animateTransform additive="sum" attributeName="gradientTransform" dur="2s" from="-26.0296" repeatCount="indefinite" to="-26.0296" type="rotate"/>
      <animateTransform additive="sum" attributeName="gradientTransform" dur="2s" from="0.0431 0.0294" repeatCount="indefinite" to="0.0431 0.0294" type="scale"/>
      <animateTransform additive="sum" attributeName="gradientTransform" dur="2s" from="0.0021" repeatCount="indefinite" to="0.0021" type="skewX"/>
      <stop offset="0.0" stop-color="#517030">
        <animate attributeName="offset" dur="2s" repeatCount="indefinite" values="0.0;0.0"/>
        <animate attributeName="stop-color" dur="2s" repeatCount="indefinite" values="#517030;#517031"/>
        <animate attributeName="stop-opacity" dur="2s" repeatCount="indefinite" values="1.0;1.0"/>
      </stop>
      <stop offset="0.5764705882352941" stop-color="#b0d852">
        <animate attributeName="offset" dur="2s" repeatCount="indefinite" values="0.5764705882352941;0.5764705882352941"/>
        <animate attributeName="stop-color" dur="2s" repeatCount="indefinite" values="#b0d852;#b0d853"/>
        <animate attributeName="stop-opacity" dur="2s" repeatCount="indefinite" values="1.0;1.0"/>
      </stop>
      <stop offset="1.0" stop-color="#ffffff">
        <animate attributeName="offset" dur="2s" repeatCount="indefinite" values="1.0;1.0"/>
        <animate attributeName="stop-color" dur="2s" repeatCount="indefinite" values="#ffffff;#ffffff"/>
        <animate attributeName="stop-opacity" dur="2s" repeatCount="indefinite" values="1.0;1.0"/>
      </stop>
    </radialGradient>
  </defs>
</svg>
