<?xml version="1.0" encoding="UTF-8" standalone="no"?>
<svg xmlns:xlink="http://www.w3.org/1999/xlink" height="44.25px" width="41.1px" xmlns="http://www.w3.org/2000/svg">
  <g transform="matrix(1.0, 0.0, 0.0, 1.0, 20.55, 22.0)">
    <path d="M-19.55 0.0 L-19.55 0.1 Q-19.55 4.0 -17.85 8.55 -16.45 12.45 -14.5 14.8 L-13.35 16.0 Q-7.6 21.2 0.5 21.25 8.6 21.25 14.3 16.0 L15.25 15.0 Q19.45 10.3 19.55 0.0 19.55 -4.0 18.0 -8.45 16.8 -11.95 15.0 -14.2 L13.55 -15.8 Q7.95 -20.85 -0.25 -21.0 -8.3 -21.0 -14.95 -14.95 -17.0 -12.55 -18.25 -8.45 -19.55 -4.2 -19.55 0.0" fill="url(#gradient0)" fill-rule="evenodd" stroke="none">
      <animate attributeName="d" dur="2s" repeatCount="indefinite" values="M-19.55 0.0 L-19.55 0.1 Q-19.55 4.0 -17.85 8.55 -16.45 12.45 -14.5 14.8 L-13.35 16.0 Q-7.6 21.2 0.5 21.25 8.6 21.25 14.3 16.0 L15.25 15.0 Q19.45 10.3 19.55 0.0 19.55 -4.0 18.0 -8.45 16.8 -11.95 15.0 -14.2 L13.55 -15.8 Q7.95 -20.85 -0.25 -21.0 -8.3 -21.0 -14.95 -14.95 -17.0 -12.55 -18.25 -8.45 -19.55 -4.2 -19.55 0.0;M-19.55 0.0 L-19.55 0.0 Q-19.55 4.2 -17.7 7.7 -16.3 10.35 -13.85 12.6 L-12.65 13.65 Q-7.25 17.85 0.2 17.85 7.45 17.8 12.8 13.45 L13.8 12.6 Q19.55 7.4 19.55 -0.55 19.4 -4.7 17.5 -8.1 16.1 -10.55 13.8 -12.65 L12.35 -13.85 Q7.1 -17.85 -0.2 -17.85 -7.5 -17.8 -13.85 -12.65 -16.5 -10.2 -17.9 -7.3 -19.55 -3.95 -19.55 0.0"/>
    </path>
    <path d="M-19.55 0.0 Q-19.55 -4.2 -18.25 -8.45 -17.0 -12.55 -14.95 -14.95 -8.3 -21.0 -0.25 -21.0 7.95 -20.85 13.55 -15.8 L15.0 -14.2 Q16.8 -11.95 18.0 -8.45 19.55 -4.0 19.55 0.0 19.45 10.3 15.25 15.0 L14.3 16.0 Q8.6 21.25 0.5 21.25 -7.6 21.2 -13.35 16.0 L-14.5 14.8 Q-16.45 12.45 -17.85 8.55 -19.55 4.0 -19.55 0.1 M-19.55 0.0 Q-19.55 -4.2 -18.25 -8.45 -17.0 -12.55 -14.95 -14.95 -8.3 -21.0 -0.25 -21.0 7.95 -20.85 13.55 -15.8 L15.0 -14.2 Q16.8 -11.95 18.0 -8.45 19.55 -4.0 19.55 0.0 19.45 10.3 15.25 15.0 L14.3 16.0 Q8.6 21.25 0.5 21.25 -7.6 21.2 -13.35 16.0 L-14.5 14.8 Q-16.45 12.45 -17.85 8.55 -19.55 4.0 -19.55 0.1 L-19.55 0.0" fill="none" stroke="#000000" stroke-linecap="round" stroke-linejoin="round" stroke-width="2.0">
      <animate attributeName="stroke" dur="2s" repeatCount="indefinite" values="#000000;#000001"/>
      <animate attributeName="stroke-width" dur="2s" repeatCount="indefinite" values="2.0;2.0"/>
      <animate attributeName="fill-opacity" dur="2s" repeatCount="indefinite" values="1.0;1.0"/>
      <animate attributeName="d" dur="2s" repeatCount="indefinite" values="M-19.55 0.0 Q-19.55 -4.2 -18.25 -8.45 -17.0 -12.55 -14.95 -14.95 -8.3 -21.0 -0.25 -21.0 7.95 -20.85 13.55 -15.8 L15.0 -14.2 Q16.8 -11.95 18.0 -8.45 19.55 -4.0 19.55 0.0 19.45 10.3 15.25 15.0 L14.3 16.0 Q8.6 21.25 0.5 21.25 -7.6 21.2 -13.35 16.0 L-14.5 14.8 Q-16.45 12.45 -17.85 8.55 -19.55 4.0 -19.55 0.1 M-19.55 0.0 Q-19.55 -4.2 -18.25 -8.45 -17.0 -12.55 -14.95 -14.95 -8.3 -21.0 -0.25 -21.0 7.95 -20.85 13.55 -15.8 L15.0 -14.2 Q16.8 -11.95 18.0 -8.45 19.55 -4.0 19.55 0.0 19.45 10.3 15.25 15.0 L14.3 16.0 Q8.6 21.25 0.5 21.25 -7.6 21.2 -13.35 16.0 L-14.5 14.8 Q-16.45 12.45 -17.85 8.55 -19.55 4.0 -19.55 0.1 L-19.55 0.0;M-19.55 0.0 Q-19.55 -3.95 -17.9 -7.3 -16.5 -10.2 -13.85 -12.65 -7.5 -17.8 -0.2 -17.85 7.1 -17.85 12.35 -13.85 L13.8 -12.65 Q16.1 -10.55 17.5 -8.1 19.4 -4.7 19.55 -0.55 19.55 7.4 13.8 12.6 L12.8 13.45 Q7.45 17.8 0.2 17.85 -7.25 17.85 -12.65 13.65 L-13.85 12.6 Q-16.3 10.35 -17.7 7.7 -19.55 4.2 -19.55 0.0 M-19.55 0.0 Q-19.55 -3.95 -17.9 -7.3 -16.5 -10.2 -13.85 -12.65 -7.5 -17.8 -0.2 -17.85 7.1 -17.85 12.35 -13.85 L13.8 -12.65 Q16.1 -10.55 17.5 -8.1 19.4 -4.7 19.55 -0.55 19.55 7.4 13.8 12.6 L12.8 13.45 Q7.45 17.8 0.2 17.85 -7.25 17.85 -12.65 13.65 L-13.85 12.6 Q-16.3 10.35 -17.7 7.7 -19.55 4.2 -19.55 0.0 L-19.55 0.0"/>
    </path>
  </g>
  <defs>
    <radialGradient cx="0" cy="0" gradientTransform="matrix(0.0387, -0.0189, 0.0129, 0.0264, 5.1, 4.25)" gradientUnits="userSpaceOnUse" id="gradient0" r="819.2" spreadMethod="pad">
      <animateTransform additive="replace" attributeName="gradientTransform" dur="2s" from="1" repeatCount="indefinite" to="1" type="scale"/>
      <animateTransform additive="sum" attributeName="gradientTransform" dur="2s" from="5.1 4.25" repeatCount="indefinite" to="5.1 4.25" type="translate"/>
      <animateTransform additive="sum" attributeName="gradientTransform" dur="2s" from="-26.0296" repeatCount="indefinite" to="-26.0296" type="rotate"/>
      <animateTransform additive="sum" attributeName="gradientTransform" dur="2s" from="0.0431 0.0294" repeatCount="indefinite" to="0.0431 0.0294" type="scale"/>
      <animateTransform additive="sum" attributeName="gradientTransform" dur="2s" from="0.0021" repeatCount="indefinite" to="0.0021" type="skewX"/>
      <stop offset="0.0" stop-color="#517030">
        <animate attributeName="offset" dur="2s" repeatCount="indefinite" values="0.0;0.0"/>
        <animate attributeName="stop-color" dur="2s" repeatCount="indefinite" values="#517030;#517031"/>
        <animate attributeName="stop-opacity" dur="2s" repeatCount="indefinite" values="1.0;1.0"/>
      </stop>
      <stop offset="0.5764705882352941" stop-color="#b0d852">
        <animate attributeName="offset" dur="2s" repeatCount="indefinite" values="0.5764705882352941;0.5764705882352941"/>
        <animate attributeName="stop-color" dur="2s" repeatCount="indefinite" values="#b0d852;#b0d853"/>
        <animate attributeName="stop-opacity" dur="2s" repeatCount="indefinite" values="1.0;1.0"/>
      </stop>
      <stop offset="1.0" stop-color="#ffffff">
        <animate attributeName="offset" dur="2s" repeatCount="indefinite" values="1.0;1.0"/>
        <animate attributeName="stop-color" dur="2s" repeatCount="indefinite" values="#ffffff;#ffffff"/>
        <animate attributeName="stop-opacity" dur="2s" repeatCount="indefinite" values="1.0;1.0"/>
      </stop>
    </radialGradient>
  </defs>
</svg>
