<?xml version="1.0" encoding="UTF-8" standalone="no"?>
<svg xmlns:xlink="http://www.w3.org/1999/xlink" height="37.7px" width="66.25px" xmlns="http://www.w3.org/2000/svg">
  <g transform="matrix(1.0, 0.0, 0.0, 1.0, 33.55, 18.85)">
    <path d="M-19.55 0.0 Q-19.55 5.3 -16.6 9.5 -15.45 11.15 -13.85 12.6 -10.65 15.5 -6.75 16.8 L-2.45 17.75 Q-0.9 17.8 0.65 17.85 2.45 17.65 4.25 17.45 6.65 17.0 8.8 16.0 11.5 14.75 13.8 12.6 15.45 11.15 16.6 9.5 19.55 5.3 19.55 -0.3 19.45 -5.55 16.4 -9.7 15.1 -11.2 13.8 -12.65 11.05 -15.15 7.75 -16.45 L3.75 -17.55 Q1.85 -17.7 0.0 -17.85 -1.35 -17.75 -2.65 -17.7 L-7.1 -16.7 Q-10.8 -15.4 -13.85 -12.65 -15.15 -11.15 -16.45 -9.7 -19.55 -5.45 -19.55 0.0" fill="url(#gradient0)" fill-rule="evenodd" stroke="none">
      <animate attributeName="d" dur="2s" repeatCount="indefinite" values="M-19.55 0.0 Q-19.55 5.3 -16.6 9.5 -15.45 11.15 -13.85 12.6 -10.65 15.5 -6.75 16.8 L-2.45 17.75 Q-0.9 17.8 0.65 17.85 2.45 17.65 4.25 17.45 6.65 17.0 8.8 16.0 11.5 14.75 13.8 12.6 15.45 11.15 16.6 9.5 19.55 5.3 19.55 -0.3 19.45 -5.55 16.4 -9.7 15.1 -11.2 13.8 -12.65 11.05 -15.15 7.75 -16.45 L3.75 -17.55 Q1.85 -17.7 0.0 -17.85 -1.35 -17.75 -2.65 -17.7 L-7.1 -16.7 Q-10.8 -15.4 -13.85 -12.65 -15.15 -11.15 -16.45 -9.7 -19.55 -5.45 -19.55 0.0;M-32.55 0.35 Q-32.55 9.95 -26.85 12.95 -23.8 14.55 -20.9 15.3 -14.75 16.9 -9.45 14.4 L-4.1 11.2 Q-2.1 9.9 0.2 9.35 1.9 9.3 5.1 10.55 8.2 11.85 11.3 13.1 16.1 14.85 20.1 14.7 23.25 14.55 25.95 13.2 31.65 10.4 31.7 0.6 31.7 -9.95 25.95 -12.05 23.25 -13.05 20.5 -13.3 15.65 -13.7 10.55 -11.7 L4.95 -9.2 Q2.05 -7.9 -0.55 -8.0 -1.95 -8.3 -4.15 -9.4 L-10.1 -12.3 Q-15.85 -14.65 -21.4 -13.85 -24.15 -13.45 -26.85 -12.3 -32.55 -9.8 -32.55 0.35"/>
    </path>
    <path d="M-19.55 0.0 Q-19.55 -5.45 -16.45 -9.7 -15.15 -11.15 -13.85 -12.65 -10.8 -15.4 -7.1 -16.7 L-2.65 -17.7 Q-1.35 -17.75 0.0 -17.85 1.85 -17.7 3.75 -17.55 L7.75 -16.45 Q11.05 -15.15 13.8 -12.65 15.1 -11.2 16.4 -9.7 19.45 -5.55 19.55 -0.3 19.55 5.3 16.6 9.5 15.45 11.15 13.8 12.6 11.5 14.75 8.8 16.0 6.65 17.0 4.25 17.45 2.45 17.65 0.65 17.85 -0.9 17.8 -2.45 17.75 L-6.75 16.8 Q-10.65 15.5 -13.85 12.6 -15.45 11.15 -16.6 9.5 -19.55 5.3 -19.55 0.0 -19.55 -5.45 -16.45 -9.7 -15.15 -11.15 -13.85 -12.65 -10.8 -15.4 -7.1 -16.7 L-2.65 -17.7 Q-1.35 -17.75 0.0 -17.85 1.85 -17.7 3.75 -17.55 L7.75 -16.45 Q11.05 -15.15 13.8 -12.65 15.1 -11.2 16.4 -9.7 19.45 -5.55 19.55 -0.3 19.55 5.3 16.6 9.5 15.45 11.15 13.8 12.6 11.5 14.75 8.8 16.0 6.65 17.0 4.25 17.45 2.45 17.65 0.65 17.85 -0.9 17.8 -2.45 17.75 L-6.75 16.8 Q-10.65 15.5 -13.85 12.6 -15.45 11.15 -16.6 9.5 -19.55 5.3 -19.55 0.0" fill="none" stroke="#000000" stroke-linecap="round" stroke-linejoin="round" stroke-width="2.0">
      <animate attributeName="stroke" dur="2s" repeatCount="indefinite" values="#000000;#000001"/>
      <animate attributeName="stroke-width" dur="2s" repeatCount="indefinite" values="2.0;2.0"/>
      <animate attributeName="fill-opacity" dur="2s" repeatCount="indefinite" values="1.0;1.0"/>
      <animate attributeName="d" dur="2s" repeatCount="indefinite" values="M-19.55 0.0 Q-19.55 -5.45 -16.45 -9.7 -15.15 -11.15 -13.85 -12.65 -10.8 -15.4 -7.1 -16.7 L-2.65 -17.7 Q-1.35 -17.75 0.0 -17.85 1.85 -17.7 3.75 -17.55 L7.75 -16.45 Q11.05 -15.15 13.8 -12.65 15.1 -11.2 16.4 -9.7 19.45 -5.55 19.55 -0.3 19.55 5.3 16.6 9.5 15.45 11.15 13.8 12.6 11.5 14.75 8.8 16.0 6.65 17.0 4.25 17.45 2.45 17.65 0.65 17.85 -0.9 17.8 -2.45 17.75 L-6.75 16.8 Q-10.65 15.5 -13.85 12.6 -15.45 11.15 -16.6 9.5 -19.55 5.3 -19.55 0.0 -19.55 -5.45 -16.45 -9.7 -15.15 -11.15 -13.85 -12.65 -10.8 -15.4 -7.1 -16.7 L-2.65 -17.7 Q-1.35 -17.75 0.0 -17.85 1.85 -17.7 3.75 -17.55 L7.75 -16.45 Q11.05 -15.15 13.8 -12.65 15.1 -11.2 16.4 -9.7 19.45 -5.55 19.55 -0.3 19.55 5.3 16.6 9.5 15.45 11.15 13.8 12.6 11.5 14.75 8.8 16.0 6.65 17.0 4.25 17.45 2.45 17.65 0.65 17.85 -0.9 17.8 -2.45 17.75 L-6.75 16.8 Q-10.65 15.5 -13.85 12.6 -15.45 11.15 -16.6 9.5 -19.55 5.3 -19.55 0.0;M-32.55 0.35 Q-32.55 -9.8 -26.85 -12.3 -24.15 -13.45 -21.4 -13.85 -15.85 -14.65 -10.1 -12.3 L-4.15 -9.4 Q-1.95 -8.3 -0.55 -8.0 2.05 -7.9 4.95 -9.2 L10.55 -11.7 Q15.65 -13.7 20.5 -13.3 23.25 -13.05 25.95 -12.05 31.7 -9.95 31.7 0.6 31.65 10.4 25.95 13.2 23.25 14.55 20.1 14.7 16.1 14.85 11.3 13.1 8.2 11.85 5.1 10.55 1.9 9.3 0.2 9.35 -2.1 9.9 -4.1 11.2 L-9.45 14.4 Q-14.75 16.9 -20.9 15.3 -23.8 14.55 -26.85 12.95 -32.55 9.95 -32.55 0.35 -32.55 -9.8 -26.85 -12.3 -24.15 -13.45 -21.4 -13.85 -15.85 -14.65 -10.1 -12.3 L-4.15 -9.4 Q-1.95 -8.3 -0.55 -8.0 2.05 -7.9 4.95 -9.2 L10.55 -11.7 Q15.65 -13.7 20.5 -13.3 23.25 -13.05 25.95 -12.05 31.7 -9.95 31.7 0.6 31.65 10.4 25.95 13.2 23.25 14.55 20.1 14.7 16.1 14.85 11.3 13.1 8.2 11.85 5.1 10.55 1.9 9.3 0.2 9.35 -2.1 9.9 -4.1 11.2 L-9.45 14.4 Q-14.75 16.9 -20.9 15.3 -23.8 14.55 -26.85 12.95 -32.55 9.95 -32.55 0.35"/>
    </path>
  </g>
  <defs>
    <radialGradient cx="0" cy="0" gradientTransform="matrix(0.0387, -0.0189, 0.0129, 0.0264, 5.1, 4.25)" gradientUnits="userSpaceOnUse" id="gradient0" r="819.2" spreadMethod="pad">
      <animateTransform additive="replace" attributeName="gradientTransform" dur="2s" from="1" repeatCount="indefinite" to="1" type="scale"/>
      <animateTransform additive="sum" attributeName="gradientTransform" dur="2s" from="5.1 4.25" repeatCount="indefinite" to="1.35 3.0" type="translate"/>
      <animateTransform additive="sum" attributeName="gradientTransform" dur="2s" from="-26.0296" repeatCount="indefinite" to="-26.0403" type="rotate"/>
      <animateTransform additive="sum" attributeName="gradientTransform" dur="2s" from="0.0431 0.0294" repeatCount="indefinite" to="0.0514 0.035" type="scale"/>
      <animateTransform additive="sum" attributeName="gradientTransform" dur="2s" from="0.0021" repeatCount="indefinite" to="-0.0073" type="skewX"/>
      <stop offset="0.0" stop-color="#517030">
        <animate attributeName="offset" dur="2s" repeatCount="indefinite" values="0.0;0.0"/>
        <animate attributeName="stop-color" dur="2s" repeatCount="indefinite" values="#517030;#517031"/>
        <animate attributeName="stop-opacity" dur="2s" repeatCount="indefinite" values="1.0;1.0"/>
      </stop>
      <stop offset="0.5764705882352941" stop-color="#b0d852">
        <animate attributeName="offset" dur="2s" repeatCount="indefinite" values="0.5764705882352941;0.5764705882352941"/>
        <animate attributeName="stop-color" dur="2s" repeatCount="indefinite" values="#b0d852;#b0d853"/>
        <animate attributeName="stop-opacity" dur="2s" repeatCount="indefinite" values="1.0;1.0"/>
      </stop>
      <stop offset="1.0" stop-color="#ffffff">
        <animate attributeName="offset" dur="2s" repeatCount="indefinite" values="1.0;1.0"/>
        <animate attributeName="stop-color" dur="2s" repeatCount="indefinite" values="#ffffff;#ffffff"/>
        <animate attributeName="stop-opacity" dur="2s" repeatCount="indefinite" values="1.0;1.0"/>
      </stop>
    </radialGradient>
  </defs>
</svg>
