<?xml version="1.0" encoding="UTF-8" standalone="no"?>
<svg xmlns:xlink="http://www.w3.org/1999/xlink" height="23.8px" width="25.5px" xmlns="http://www.w3.org/2000/svg">
  <g transform="matrix(1.0, 0.0, 0.0, 1.0, 12.5, 12.3)">
    <path d="M-11.5 0.0 L-11.5 0.0 Q-11.5 4.1 -8.45 7.1 L-8.15 7.4 Q-5.1 10.2 -1.0 10.45 L0.0 10.5 Q3.95 10.5 8.1 7.4 10.75 5.05 11.35 1.9 L11.5 0.0 Q11.5 -1.95 10.8 -3.65 9.95 -5.75 8.1 -7.45 6.3 -9.1 4.1 -9.85 L-1.0 -10.45 Q-5.1 -10.15 -8.45 -7.15 -11.5 -4.15 -11.5 0.0" fill="url(#gradient0)" fill-rule="evenodd" stroke="none">
      <animate attributeName="d" dur="2s" repeatCount="indefinite" values="M-11.5 0.0 L-11.5 0.0 Q-11.5 4.1 -8.45 7.1 L-8.15 7.4 Q-5.1 10.2 -1.0 10.45 L0.0 10.5 Q3.95 10.5 8.1 7.4 10.75 5.05 11.35 1.9 L11.5 0.0 Q11.5 -1.95 10.8 -3.65 9.95 -5.75 8.1 -7.45 6.3 -9.1 4.1 -9.85 L-1.0 -10.45 Q-5.1 -10.15 -8.45 -7.15 -11.5 -4.15 -11.5 0.0;M-11.5 0.0 L-11.5 0.1 Q-11.5 4.35 -8.15 7.4 L-7.75 7.8 Q-4.45 10.5 0.0 10.5 L1.1 10.45 Q5.15 10.15 9.2 6.3 11.5 3.6 11.5 0.0 L11.6 -1.75 Q11.8 -3.65 12.0 -5.5 12.2 -9.1 10.8 -10.35 9.4 -11.6 5.75 -11.2 L0.0 -10.5 Q-4.5 -10.5 -8.15 -7.45 -11.5 -4.35 -11.5 0.0"/>
    </path>
    <path d="M-11.5 0.0 Q-11.5 -4.15 -8.45 -7.15 -5.1 -10.15 -1.0 -10.45 L4.1 -9.85 Q6.3 -9.1 8.1 -7.45 9.95 -5.75 10.8 -3.65 11.5 -1.95 11.5 0.0 L11.35 1.9 Q10.75 5.05 8.1 7.4 3.95 10.5 0.0 10.5 L-1.0 10.45 Q-5.1 10.2 -8.15 7.4 L-8.45 7.1 Q-11.5 4.1 -11.5 0.0 -11.5 -4.15 -8.45 -7.15 -5.1 -10.15 -1.0 -10.45 L4.1 -9.85 Q6.3 -9.1 8.1 -7.45 9.95 -5.75 10.8 -3.65 11.5 -1.95 11.5 0.0 L11.35 1.9 Q10.75 5.05 8.1 7.4 3.95 10.5 0.0 10.5 L-1.0 10.45 Q-5.1 10.2 -8.15 7.4 L-8.45 7.1 Q-11.5 4.1 -11.5 0.0 L-11.5 0.0" fill="none" stroke="#000000" stroke-linecap="round" stroke-linejoin="round" stroke-width="2.0">
      <animate attributeName="stroke" dur="2s" repeatCount="indefinite" values="#000000;#000001"/>
      <animate attributeName="stroke-width" dur="2s" repeatCount="indefinite" values="2.0;2.0"/>
      <animate attributeName="fill-opacity" dur="2s" repeatCount="indefinite" values="1.0;1.0"/>
      <animate attributeName="d" dur="2s" repeatCount="indefinite" values="M-11.5 0.0 Q-11.5 -4.15 -8.45 -7.15 -5.1 -10.15 -1.0 -10.45 L4.1 -9.85 Q6.3 -9.1 8.1 -7.45 9.95 -5.75 10.8 -3.65 11.5 -1.95 11.5 0.0 L11.35 1.9 Q10.75 5.05 8.1 7.4 3.95 10.5 0.0 10.5 L-1.0 10.45 Q-5.1 10.2 -8.15 7.4 L-8.45 7.1 Q-11.5 4.1 -11.5 0.0 -11.5 -4.15 -8.45 -7.15 -5.1 -10.15 -1.0 -10.45 L4.1 -9.85 Q6.3 -9.1 8.1 -7.45 9.95 -5.75 10.8 -3.65 11.5 -1.95 11.5 0.0 L11.35 1.9 Q10.75 5.05 8.1 7.4 3.95 10.5 0.0 10.5 L-1.0 10.45 Q-5.1 10.2 -8.15 7.4 L-8.45 7.1 Q-11.5 4.1 -11.5 0.0 L-11.5 0.0;M-11.5 0.0 Q-11.5 -4.35 -8.15 -7.45 -4.5 -10.5 0.0 -10.5 L5.75 -11.2 Q9.4 -11.6 10.8 -10.35 12.2 -9.1 12.0 -5.5 11.8 -3.65 11.6 -1.75 L11.5 0.0 Q11.5 3.6 9.2 6.3 5.15 10.15 1.1 10.45 L0.0 10.5 Q-4.45 10.5 -7.75 7.8 L-8.15 7.4 Q-11.5 4.35 -11.5 0.1 -11.5 -4.35 -8.15 -7.45 -4.5 -10.5 0.0 -10.5 L5.75 -11.2 Q9.4 -11.6 10.8 -10.35 12.2 -9.1 12.0 -5.5 11.8 -3.65 11.6 -1.75 L11.5 0.0 Q11.5 3.6 9.2 6.3 5.15 10.15 1.1 10.45 L0.0 10.5 Q-4.45 10.5 -7.75 7.8 L-8.15 7.4 Q-11.5 4.35 -11.5 0.1 L-11.5 0.0"/>
    </path>
  </g>
  <defs>
    <radialGradient cx="0" cy="0" gradientTransform="matrix(0.0221, -0.0108, 0.0074, 0.0151, 3.0, 2.5)" gradientUnits="userSpaceOnUse" id="gradient0" r="819.2" spreadMethod="pad">
      <animateTransform additive="replace" attributeName="gradientTransform" dur="2s" from="1" repeatCount="indefinite" to="1" type="scale"/>
      <animateTransform additive="sum" attributeName="gradientTransform" dur="2s" from="3.0 2.5" repeatCount="indefinite" to="3.0 2.5" type="translate"/>
      <animateTransform additive="sum" attributeName="gradientTransform" dur="2s" from="-26.0251" repeatCount="indefinite" to="-26.0251" type="rotate"/>
      <animateTransform additive="sum" attributeName="gradientTransform" dur="2s" from="0.0246 0.0168" repeatCount="indefinite" to="0.0246 0.0168" type="scale"/>
      <animateTransform additive="sum" attributeName="gradientTransform" dur="2s" from="0.003" repeatCount="indefinite" to="0.003" type="skewX"/>
      <stop offset="0.0" stop-color="#4f2679">
        <animate attributeName="offset" dur="2s" repeatCount="indefinite" values="0.0;0.0"/>
        <animate attributeName="stop-color" dur="2s" repeatCount="indefinite" values="#4f2679;#4f267a"/>
        <animate attributeName="stop-opacity" dur="2s" repeatCount="indefinite" values="1.0;1.0"/>
      </stop>
      <stop offset="0.5764705882352941" stop-color="#d24bde">
        <animate attributeName="offset" dur="2s" repeatCount="indefinite" values="0.5764705882352941;0.5764705882352941"/>
        <animate attributeName="stop-color" dur="2s" repeatCount="indefinite" values="#d24bde;#d24bdf"/>
        <animate attributeName="stop-opacity" dur="2s" repeatCount="indefinite" values="1.0;1.0"/>
      </stop>
      <stop offset="1.0" stop-color="#ffffff">
        <animate attributeName="offset" dur="2s" repeatCount="indefinite" values="1.0;1.0"/>
        <animate attributeName="stop-color" dur="2s" repeatCount="indefinite" values="#ffffff;#ffffff"/>
        <animate attributeName="stop-opacity" dur="2s" repeatCount="indefinite" values="1.0;1.0"/>
      </stop>
    </radialGradient>
  </defs>
</svg>
