<?xml version="1.0" encoding="UTF-8" standalone="no"?>
<svg xmlns:xlink="http://www.w3.org/1999/xlink" height="22.9px" width="33.05px" xmlns="http://www.w3.org/2000/svg">
  <g transform="matrix(1.0, 0.0, 0.0, 1.0, 16.3, 11.4)">
    <path d="M-15.3 0.3 L-15.3 0.3 Q-15.3 4.65 -11.95 7.7 -11.15 8.4 -10.0 8.95 -7.75 10.0 -4.05 10.35 -2.0 10.45 0.0 10.5 L0.95 10.5 Q3.8 10.25 6.6 10.0 10.05 9.4 11.9 8.0 L12.35 7.6 Q15.75 4.5 15.75 0.2 L15.55 -1.75 Q14.95 -4.85 12.35 -7.25 11.3 -8.2 8.6 -8.75 6.55 -9.0 4.5 -9.25 2.05 -9.3 -0.4 -9.35 -2.95 -9.2 -5.45 -9.1 -7.95 -8.85 -11.95 -7.15 -15.3 -4.1 -15.3 0.3" fill="url(#gradient0)" fill-rule="evenodd" stroke="none">
      <animate attributeName="d" dur="2s" repeatCount="indefinite" values="M-15.3 0.3 L-15.3 0.3 Q-15.3 4.65 -11.95 7.7 -11.15 8.4 -10.0 8.95 -7.75 10.0 -4.05 10.35 -2.0 10.45 0.0 10.5 L0.95 10.5 Q3.8 10.25 6.6 10.0 10.05 9.4 11.9 8.0 L12.35 7.6 Q15.75 4.5 15.75 0.2 L15.55 -1.75 Q14.95 -4.85 12.35 -7.25 11.3 -8.2 8.6 -8.75 6.55 -9.0 4.5 -9.25 2.05 -9.3 -0.4 -9.35 -2.95 -9.2 -5.45 -9.1 -7.95 -8.85 -11.95 -7.15 -15.3 -4.1 -15.3 0.3;M-9.4 -2.8 L-9.4 -2.6 Q-9.35 0.8 -7.25 3.35 -6.65 4.0 -6.05 4.6 -4.7 6.45 -3.35 8.3 -2.15 10.05 -0.7 10.4 L0.0 10.5 Q1.9 10.5 3.55 8.6 5.35 6.2 6.45 5.15 L7.0 4.65 Q9.3 2.25 9.75 -0.8 L9.85 -2.25 Q9.85 -4.9 8.6 -7.1 7.8 -8.5 6.45 -9.7 5.2 -10.8 3.5 -9.55 1.45 -8.05 -0.1 -7.9 -1.55 -7.9 -3.4 -9.85 -4.85 -11.35 -7.4 -8.8 -9.4 -6.2 -9.4 -2.8"/>
    </path>
    <path d="M-15.3 0.3 Q-15.3 -4.1 -11.95 -7.15 -7.95 -8.85 -5.45 -9.1 -2.95 -9.2 -0.4 -9.35 2.05 -9.3 4.5 -9.25 6.55 -9.0 8.6 -8.75 11.3 -8.2 12.35 -7.25 14.95 -4.85 15.55 -1.75 L15.75 0.2 Q15.75 4.5 12.35 7.6 L11.9 8.0 Q10.05 9.4 6.6 10.0 3.8 10.25 0.95 10.5 L0.0 10.5 Q-2.0 10.45 -4.05 10.35 -7.75 10.0 -10.0 8.95 -11.15 8.4 -11.95 7.7 -15.3 4.65 -15.3 0.3 -15.3 -4.1 -11.95 -7.15 -7.95 -8.85 -5.45 -9.1 -2.95 -9.2 -0.4 -9.35 2.05 -9.3 4.5 -9.25 6.55 -9.0 8.6 -8.75 11.3 -8.2 12.35 -7.25 14.95 -4.85 15.55 -1.75 L15.75 0.2 Q15.75 4.5 12.35 7.6 L11.9 8.0 Q10.05 9.4 6.6 10.0 3.8 10.25 0.95 10.5 L0.0 10.5 Q-2.0 10.45 -4.05 10.35 -7.75 10.0 -10.0 8.95 -11.15 8.4 -11.95 7.7 -15.3 4.65 -15.3 0.3 L-15.3 0.3" fill="none" stroke="#000000" stroke-linecap="round" stroke-linejoin="round" stroke-width="2.0">
      <animate attributeName="stroke" dur="2s" repeatCount="indefinite" values="#000000;#000001"/>
      <animate attributeName="stroke-width" dur="2s" repeatCount="indefinite" values="2.0;2.0"/>
      <animate attributeName="fill-opacity" dur="2s" repeatCount="indefinite" values="1.0;1.0"/>
      <animate attributeName="d" dur="2s" repeatCount="indefinite" values="M-15.3 0.3 Q-15.3 -4.1 -11.95 -7.15 -7.95 -8.85 -5.45 -9.1 -2.95 -9.2 -0.4 -9.35 2.05 -9.3 4.5 -9.25 6.55 -9.0 8.6 -8.75 11.3 -8.2 12.35 -7.25 14.95 -4.85 15.55 -1.75 L15.75 0.2 Q15.75 4.5 12.35 7.6 L11.9 8.0 Q10.05 9.4 6.6 10.0 3.8 10.25 0.95 10.5 L0.0 10.5 Q-2.0 10.45 -4.05 10.35 -7.75 10.0 -10.0 8.95 -11.15 8.4 -11.95 7.7 -15.3 4.65 -15.3 0.3 -15.3 -4.1 -11.95 -7.15 -7.95 -8.85 -5.45 -9.1 -2.95 -9.2 -0.4 -9.35 2.05 -9.3 4.5 -9.25 6.55 -9.0 8.6 -8.75 11.3 -8.2 12.35 -7.25 14.95 -4.85 15.55 -1.75 L15.75 0.2 Q15.75 4.5 12.35 7.6 L11.9 8.0 Q10.05 9.4 6.6 10.0 3.8 10.25 0.95 10.5 L0.0 10.5 Q-2.0 10.45 -4.05 10.35 -7.75 10.0 -10.0 8.95 -11.15 8.4 -11.95 7.7 -15.3 4.65 -15.3 0.3 L-15.3 0.3;M-9.4 -2.8 Q-9.4 -6.2 -7.4 -8.8 -4.85 -11.35 -3.4 -9.85 -1.55 -7.9 -0.1 -7.9 1.45 -8.05 3.5 -9.55 5.2 -10.8 6.45 -9.7 7.8 -8.5 8.6 -7.1 9.85 -4.9 9.85 -2.25 L9.75 -0.8 Q9.3 2.25 7.0 4.65 L6.45 5.15 Q5.35 6.2 3.55 8.6 1.9 10.5 0.0 10.5 L-0.7 10.4 Q-2.15 10.05 -3.35 8.3 -4.7 6.45 -6.05 4.6 -6.65 4.0 -7.25 3.35 -9.35 0.8 -9.4 -2.6 -9.4 -6.2 -7.4 -8.8 -4.85 -11.35 -3.4 -9.85 -1.55 -7.9 -0.1 -7.9 1.45 -8.05 3.5 -9.55 5.2 -10.8 6.45 -9.7 7.8 -8.5 8.6 -7.1 9.85 -4.9 9.85 -2.25 L9.75 -0.8 Q9.3 2.25 7.0 4.65 L6.45 5.15 Q5.35 6.2 3.55 8.6 1.9 10.5 0.0 10.5 L-0.7 10.4 Q-2.15 10.05 -3.35 8.3 -4.7 6.45 -6.05 4.6 -6.65 4.0 -7.25 3.35 -9.35 0.8 -9.4 -2.6 L-9.4 -2.8"/>
    </path>
  </g>
  <defs>
    <radialGradient cx="0" cy="0" gradientTransform="matrix(0.0221, -0.0108, 0.0074, 0.0151, 3.0, 2.5)" gradientUnits="userSpaceOnUse" id="gradient0" r="819.2" spreadMethod="pad">
      <animateTransform additive="replace" attributeName="gradientTransform" dur="2s" from="1" repeatCount="indefinite" to="1" type="scale"/>
      <animateTransform additive="sum" attributeName="gradientTransform" dur="2s" from="3.0 2.5" repeatCount="indefinite" to="3.0 2.5" type="translate"/>
      <animateTransform additive="sum" attributeName="gradientTransform" dur="2s" from="-26.0251" repeatCount="indefinite" to="-26.0251" type="rotate"/>
      <animateTransform additive="sum" attributeName="gradientTransform" dur="2s" from="0.0246 0.0168" repeatCount="indefinite" to="0.0246 0.0168" type="scale"/>
      <animateTransform additive="sum" attributeName="gradientTransform" dur="2s" from="0.003" repeatCount="indefinite" to="0.003" type="skewX"/>
      <stop offset="0.0" stop-color="#4f2679">
        <animate attributeName="offset" dur="2s" repeatCount="indefinite" values="0.0;0.0"/>
        <animate attributeName="stop-color" dur="2s" repeatCount="indefinite" values="#4f2679;#4f267a"/>
        <animate attributeName="stop-opacity" dur="2s" repeatCount="indefinite" values="1.0;1.0"/>
      </stop>
      <stop offset="0.5764705882352941" stop-color="#d24bde">
        <animate attributeName="offset" dur="2s" repeatCount="indefinite" values="0.5764705882352941;0.5764705882352941"/>
        <animate attributeName="stop-color" dur="2s" repeatCount="indefinite" values="#d24bde;#d24bdf"/>
        <animate attributeName="stop-opacity" dur="2s" repeatCount="indefinite" values="1.0;1.0"/>
      </stop>
      <stop offset="1.0" stop-color="#ffffff">
        <animate attributeName="offset" dur="2s" repeatCount="indefinite" values="1.0;1.0"/>
        <animate attributeName="stop-color" dur="2s" repeatCount="indefinite" values="#ffffff;#ffffff"/>
        <animate attributeName="stop-opacity" dur="2s" repeatCount="indefinite" values="1.0;1.0"/>
      </stop>
    </radialGradient>
  </defs>
</svg>
