<?xml version="1.0" encoding="UTF-8" standalone="no"?>
<svg xmlns:xlink="http://www.w3.org/1999/xlink" height="23.1px" width="24.85px" xmlns="http://www.w3.org/2000/svg">
  <g transform="matrix(1.0, 0.0, 0.0, 1.0, 12.5, 11.6)">
    <path d="M-9.4 -2.8 L-9.4 -2.7 Q-9.4 1.35 -6.35 4.3 L-6.05 4.6 Q-4.7 6.45 -3.35 8.3 -2.1 10.1 -0.6 10.45 L0.0 10.5 Q1.9 10.5 3.55 8.6 4.6 7.3 5.65 6.0 L6.45 5.15 Q9.2 2.65 9.85 -2.25 9.85 -5.6 7.85 -8.2 L6.45 -9.7 Q5.2 -10.8 3.5 -9.55 1.65 -8.2 -0.1 -7.9 -1.55 -7.9 -3.4 -9.85 -4.85 -11.35 -6.45 -9.85 -9.4 -6.9 -9.4 -2.8" fill="url(#gradient0)" fill-rule="evenodd" stroke="none">
      <animate attributeName="d" dur="2s" repeatCount="indefinite" values="M-9.4 -2.8 L-9.4 -2.7 Q-9.4 1.35 -6.35 4.3 L-6.05 4.6 Q-4.7 6.45 -3.35 8.3 -2.1 10.1 -0.6 10.45 L0.0 10.5 Q1.9 10.5 3.55 8.6 4.6 7.3 5.65 6.0 L6.45 5.15 Q9.2 2.65 9.85 -2.25 9.85 -5.6 7.85 -8.2 L6.45 -9.7 Q5.2 -10.8 3.5 -9.55 1.65 -8.2 -0.1 -7.9 -1.55 -7.9 -3.4 -9.85 -4.85 -11.35 -6.45 -9.85 -9.4 -6.9 -9.4 -2.8;M-11.5 0.0 L-11.5 0.0 Q-11.5 4.35 -8.15 7.4 L-7.7 7.8 Q-5.75 9.4 -3.4 10.05 -1.7 10.3 0.0 10.5 L0.8 10.5 Q3.25 10.35 5.3 9.35 6.8 8.6 8.1 7.4 L8.95 6.55 Q11.5 3.75 11.35 -1.65 10.8 -4.95 8.1 -7.45 L6.5 -8.7 Q4.95 -9.4 3.4 -10.05 1.4 -10.3 -0.55 -10.5 -2.85 -10.4 -4.75 -9.6 -6.3 -8.95 -8.15 -7.45 -11.5 -4.35 -11.5 0.0"/>
    </path>
    <path d="M-9.4 -2.8 Q-9.4 -6.9 -6.45 -9.85 -4.85 -11.35 -3.4 -9.85 -1.55 -7.9 -0.1 -7.9 1.65 -8.2 3.5 -9.55 5.2 -10.8 6.45 -9.7 L7.85 -8.2 Q9.85 -5.6 9.85 -2.25 9.2 2.65 6.45 5.15 L5.65 6.0 Q4.6 7.3 3.55 8.6 1.9 10.5 0.0 10.5 L-0.6 10.45 Q-2.1 10.1 -3.35 8.3 -4.7 6.45 -6.05 4.6 L-6.35 4.3 Q-9.4 1.35 -9.4 -2.7 M-9.4 -2.8 Q-9.4 -6.9 -6.45 -9.85 -4.85 -11.35 -3.4 -9.85 -1.55 -7.9 -0.1 -7.9 1.65 -8.2 3.5 -9.55 5.2 -10.8 6.45 -9.7 L7.85 -8.2 Q9.85 -5.6 9.85 -2.25 9.2 2.65 6.45 5.15 L5.65 6.0 Q4.6 7.3 3.55 8.6 1.9 10.5 0.0 10.5 L-0.6 10.45 Q-2.1 10.1 -3.35 8.3 -4.7 6.45 -6.05 4.6 L-6.35 4.3 Q-9.4 1.35 -9.4 -2.7 L-9.4 -2.8" fill="none" stroke="#000000" stroke-linecap="round" stroke-linejoin="round" stroke-width="2.0">
      <animate attributeName="stroke" dur="2s" repeatCount="indefinite" values="#000000;#000001"/>
      <animate attributeName="stroke-width" dur="2s" repeatCount="indefinite" values="2.0;2.0"/>
      <animate attributeName="fill-opacity" dur="2s" repeatCount="indefinite" values="1.0;1.0"/>
      <animate attributeName="d" dur="2s" repeatCount="indefinite" values="M-9.4 -2.8 Q-9.4 -6.9 -6.45 -9.85 -4.85 -11.35 -3.4 -9.85 -1.55 -7.9 -0.1 -7.9 1.65 -8.2 3.5 -9.55 5.2 -10.8 6.45 -9.7 L7.85 -8.2 Q9.85 -5.6 9.85 -2.25 9.2 2.65 6.45 5.15 L5.65 6.0 Q4.6 7.3 3.55 8.6 1.9 10.5 0.0 10.5 L-0.6 10.45 Q-2.1 10.1 -3.35 8.3 -4.7 6.45 -6.05 4.6 L-6.35 4.3 Q-9.4 1.35 -9.4 -2.7 M-9.4 -2.8 Q-9.4 -6.9 -6.45 -9.85 -4.85 -11.35 -3.4 -9.85 -1.55 -7.9 -0.1 -7.9 1.65 -8.2 3.5 -9.55 5.2 -10.8 6.45 -9.7 L7.85 -8.2 Q9.85 -5.6 9.85 -2.25 9.2 2.65 6.45 5.15 L5.65 6.0 Q4.6 7.3 3.55 8.6 1.9 10.5 0.0 10.5 L-0.6 10.45 Q-2.1 10.1 -3.35 8.3 -4.7 6.45 -6.05 4.6 L-6.35 4.3 Q-9.4 1.35 -9.4 -2.7 L-9.4 -2.8;M-11.5 0.0 Q-11.5 -4.35 -8.15 -7.45 -6.3 -8.95 -4.75 -9.6 -2.85 -10.4 -0.55 -10.5 1.4 -10.3 3.4 -10.05 4.95 -9.4 6.5 -8.7 L8.1 -7.45 Q10.8 -4.95 11.35 -1.65 11.5 3.75 8.95 6.55 L8.1 7.4 Q6.8 8.6 5.3 9.35 3.25 10.35 0.8 10.5 L0.0 10.5 Q-1.7 10.3 -3.4 10.05 -5.75 9.4 -7.7 7.8 L-8.15 7.4 Q-11.5 4.35 -11.5 0.0 M-11.5 0.0 Q-11.5 -4.35 -8.15 -7.45 -6.3 -8.95 -4.75 -9.6 -2.85 -10.4 -0.55 -10.5 1.4 -10.3 3.4 -10.05 4.95 -9.4 6.5 -8.7 L8.1 -7.45 Q10.8 -4.95 11.35 -1.65 11.5 3.75 8.95 6.55 L8.1 7.4 Q6.8 8.6 5.3 9.35 3.25 10.35 0.8 10.5 L0.0 10.5 Q-1.7 10.3 -3.4 10.05 -5.75 9.4 -7.7 7.8 L-8.15 7.4 Q-11.5 4.35 -11.5 0.0 L-11.5 0.0"/>
    </path>
  </g>
  <defs>
    <radialGradient cx="0" cy="0" gradientTransform="matrix(0.0221, -0.0108, 0.0074, 0.0151, 3.0, 2.5)" gradientUnits="userSpaceOnUse" id="gradient0" r="819.2" spreadMethod="pad">
      <animateTransform additive="replace" attributeName="gradientTransform" dur="2s" from="1" repeatCount="indefinite" to="1" type="scale"/>
      <animateTransform additive="sum" attributeName="gradientTransform" dur="2s" from="3.0 2.5" repeatCount="indefinite" to="3.0 2.5" type="translate"/>
      <animateTransform additive="sum" attributeName="gradientTransform" dur="2s" from="-26.0251" repeatCount="indefinite" to="-26.0251" type="rotate"/>
      <animateTransform additive="sum" attributeName="gradientTransform" dur="2s" from="0.0246 0.0168" repeatCount="indefinite" to="0.0246 0.0168" type="scale"/>
      <animateTransform additive="sum" attributeName="gradientTransform" dur="2s" from="0.003" repeatCount="indefinite" to="0.003" type="skewX"/>
      <stop offset="0.0" stop-color="#4f2679">
        <animate attributeName="offset" dur="2s" repeatCount="indefinite" values="0.0;0.0"/>
        <animate attributeName="stop-color" dur="2s" repeatCount="indefinite" values="#4f2679;#4f267a"/>
        <animate attributeName="stop-opacity" dur="2s" repeatCount="indefinite" values="1.0;1.0"/>
      </stop>
      <stop offset="0.5764705882352941" stop-color="#d24bde">
        <animate attributeName="offset" dur="2s" repeatCount="indefinite" values="0.5764705882352941;0.5764705882352941"/>
        <animate attributeName="stop-color" dur="2s" repeatCount="indefinite" values="#d24bde;#d24bdf"/>
        <animate attributeName="stop-opacity" dur="2s" repeatCount="indefinite" values="1.0;1.0"/>
      </stop>
      <stop offset="1.0" stop-color="#ffffff">
        <animate attributeName="offset" dur="2s" repeatCount="indefinite" values="1.0;1.0"/>
        <animate attributeName="stop-color" dur="2s" repeatCount="indefinite" values="#ffffff;#ffffff"/>
        <animate attributeName="stop-opacity" dur="2s" repeatCount="indefinite" values="1.0;1.0"/>
      </stop>
    </radialGradient>
  </defs>
</svg>
