<?xml version="1.0" encoding="UTF-8" standalone="no"?>
<svg xmlns:xlink="http://www.w3.org/1999/xlink" height="24.55px" width="30.15px" xmlns="http://www.w3.org/2000/svg">
  <g transform="matrix(1.0, 0.0, 0.0, 1.0, 15.15, 11.75)">
    <path d="M-14.45 1.1 L-14.45 1.1 Q-13.8 0.65 -13.15 0.2 L-13.05 0.1 Q-13.1 2.15 -13.15 4.2 L-13.15 5.7 -13.15 6.3 -12.6 5.5 -12.05 4.7 Q-11.7 6.95 -10.7 8.95 L-10.7 8.85 -10.2 7.55 -9.8 8.0 -8.0 9.6 -7.1 9.5 Q-6.75 9.75 -6.55 10.6 L-6.45 10.9 -6.1 11.7 -5.55 11.15 -5.1 10.7 Q-4.6 12.25 -3.85 11.45 L-3.6 11.1 -3.45 11.5 -3.45 12.4 -3.15 12.1 -2.4 11.6 -1.7 11.65 -1.2 12.25 Q-0.9 12.35 -0.6 11.9 L0.0 11.2 Q0.5 11.2 0.5 11.7 L0.5 11.7 Q1.1 11.75 1.65 11.75 L1.8 12.2 Q2.35 11.2 2.9 11.15 3.3 11.4 3.65 11.6 L4.15 10.95 Q4.6 10.9 5.0 10.9 5.2 11.2 5.4 11.5 L5.85 11.25 Q6.6 10.7 6.7 9.65 L7.1 10.25 7.2 10.85 7.2 11.05 7.75 10.4 Q8.0 9.9 7.85 9.25 7.7 9.0 7.85 9.25 L8.05 9.55 8.35 9.9 8.6 9.35 8.7 9.15 Q9.4 7.75 10.1 7.8 10.35 7.9 10.6 8.0 L11.1 8.55 11.2 8.75 11.4 8.35 Q11.65 7.55 11.85 6.75 L11.9 5.8 Q11.95 5.25 12.25 4.95 L12.35 4.85 Q13.2 4.25 13.55 5.6 13.5 5.1 13.45 4.6 13.4 3.5 13.35 2.45 13.15 0.8 13.0 -0.8 13.9 -0.5 14.15 0.2 L13.9 -0.95 Q13.65 -1.7 13.45 -2.45 12.75 -4.2 11.5 -5.7 L13.1 -5.4 12.5 -6.1 11.35 -7.3 8.45 -9.9 10.35 -9.55 9.3 -10.5 8.25 -10.95 Q7.5 -11.1 6.75 -11.2 L4.35 -11.4 Q3.4 -11.4 2.5 -11.4 1.4 -11.35 0.3 -11.3 L-3.6 -11.3 -5.7 -11.15 -6.4 -11.05 -7.35 -10.9 -9.35 -10.2 -10.6 -9.45 -11.1 -8.85 -10.5 -9.05 -8.95 -9.15 -10.1 -8.6 Q-10.5 -8.35 -10.9 -8.1 L-11.75 -7.3 -12.4 -6.45 Q-13.05 -5.6 -13.75 -3.65 -13.1 -4.4 -11.95 -4.7 -13.2 -3.55 -14.3 -0.45 L-14.45 1.1" fill="url(#gradient0)" fill-rule="evenodd" stroke="none">
      <animate attributeName="d" dur="2s" repeatCount="indefinite" values="M-14.45 1.1 L-14.45 1.1 Q-13.8 0.65 -13.15 0.2 L-13.05 0.1 Q-13.1 2.15 -13.15 4.2 L-13.15 5.7 -13.15 6.3 -12.6 5.5 -12.05 4.7 Q-11.7 6.95 -10.7 8.95 L-10.7 8.85 -10.2 7.55 -9.8 8.0 -8.0 9.6 -7.1 9.5 Q-6.75 9.75 -6.55 10.6 L-6.45 10.9 -6.1 11.7 -5.55 11.15 -5.1 10.7 Q-4.6 12.25 -3.85 11.45 L-3.6 11.1 -3.45 11.5 -3.45 12.4 -3.15 12.1 -2.4 11.6 -1.7 11.65 -1.2 12.25 Q-0.9 12.35 -0.6 11.9 L0.0 11.2 Q0.5 11.2 0.5 11.7 L0.5 11.7 Q1.1 11.75 1.65 11.75 L1.8 12.2 Q2.35 11.2 2.9 11.15 3.3 11.4 3.65 11.6 L4.15 10.95 Q4.6 10.9 5.0 10.9 5.2 11.2 5.4 11.5 L5.85 11.25 Q6.6 10.7 6.7 9.65 L7.1 10.25 7.2 10.85 7.2 11.05 7.75 10.4 Q8.0 9.9 7.85 9.25 7.7 9.0 7.85 9.25 L8.05 9.55 8.35 9.9 8.6 9.35 8.7 9.15 Q9.4 7.75 10.1 7.8 10.35 7.9 10.6 8.0 L11.1 8.55 11.2 8.75 11.4 8.35 Q11.65 7.55 11.85 6.75 L11.9 5.8 Q11.95 5.25 12.25 4.95 L12.35 4.85 Q13.2 4.25 13.55 5.6 13.5 5.1 13.45 4.6 13.4 3.5 13.35 2.45 13.15 0.8 13.0 -0.8 13.9 -0.5 14.15 0.2 L13.9 -0.95 Q13.65 -1.7 13.45 -2.45 12.75 -4.2 11.5 -5.7 L13.1 -5.4 12.5 -6.1 11.35 -7.3 8.45 -9.9 10.35 -9.55 9.3 -10.5 8.25 -10.95 Q7.5 -11.1 6.75 -11.2 L4.35 -11.4 Q3.4 -11.4 2.5 -11.4 1.4 -11.35 0.3 -11.3 L-3.6 -11.3 -5.7 -11.15 -6.4 -11.05 -7.35 -10.9 -9.35 -10.2 -10.6 -9.45 -11.1 -8.85 -10.5 -9.05 -8.95 -9.15 -10.1 -8.6 Q-10.5 -8.35 -10.9 -8.1 L-11.75 -7.3 -12.4 -6.45 Q-13.05 -5.6 -13.75 -3.65 -13.1 -4.4 -11.95 -4.7 -13.2 -3.55 -14.3 -0.45 L-14.45 1.1;M-14.9 -1.95 L-14.55 -2.3 Q-13.95 -2.8 -13.1 -3.0 L-13.2 -2.9 Q-13.75 -2.15 -14.6 1.1 L-14.75 2.65 -14.25 2.25 -13.35 1.65 -13.35 2.65 Q-13.25 4.95 -13.15 7.2 L-13.15 7.3 -12.45 6.2 -12.05 5.7 -11.0 8.15 -10.7 8.85 Q-10.45 9.35 -10.25 9.8 L-10.25 9.65 -10.0 8.95 -9.75 8.4 -9.35 8.6 Q-8.6 9.1 -8.0 9.6 L-7.5 9.4 -7.1 9.5 -6.55 10.45 -6.45 10.9 -6.1 11.7 -5.4 11.35 -4.65 10.85 Q-4.45 11.25 -4.25 11.65 L-3.6 11.8 Q-3.35 11.5 -3.15 11.25 L-3.15 11.35 Q-2.9 11.75 -3.0 12.55 L-2.65 12.2 Q-1.75 11.35 -1.25 11.8 -0.85 12.65 -0.25 11.8 L0.35 11.1 Q0.85 11.1 0.85 11.6 1.4 11.2 1.65 11.75 L1.8 12.2 Q2.5 10.9 3.15 11.15 L3.65 11.6 4.15 11.05 4.2 11.25 4.45 12.1 Q4.95 11.65 5.45 11.25 5.6 10.9 5.7 10.55 L5.75 10.25 6.05 10.5 6.3 11.3 6.25 11.65 Q7.15 11.0 6.9 9.85 6.7 9.55 6.9 9.85 L7.4 10.5 7.5 10.25 7.65 9.95 Q8.15 8.85 8.8 8.6 L9.7 8.5 Q10.1 8.85 10.5 9.15 L10.6 9.25 Q10.95 8.05 11.25 6.85 11.35 6.25 11.6 6.0 12.5 5.15 12.9 7.05 12.85 5.8 13.25 3.95 13.4 3.2 13.5 2.5 L13.5 1.2 Q14.4 1.5 14.65 2.2 14.25 0.3 13.85 -1.6 L13.2 -3.45 12.75 -4.15 14.35 -3.85 11.55 -6.95 10.25 -8.2 12.15 -7.85 11.45 -8.6 Q10.85 -9.05 10.05 -9.25 L7.65 -9.5 Q6.45 -9.8 7.65 -10.75 8.4 -11.35 6.25 -11.45 L2.4 -11.45 0.3 -11.3 -0.3 -11.3 -1.4 -11.3 -3.6 -11.3 -5.0 -11.2 -5.8 -11.15 -6.4 -11.05 -8.15 -10.95 -9.4 -10.7 Q-8.45 -10.15 -8.7 -10.0 L-10.05 -9.35 -11.0 -8.75 Q-12.0 -7.95 -13.0 -7.2 -12.1 -7.3 -11.2 -7.4 -11.9 -7.0 -14.35 -3.5 L-14.9 -1.95"/>
    </path>
    <path d="M-14.45 1.1 L-14.3 -0.45 Q-13.2 -3.55 -11.95 -4.7 -13.1 -4.4 -13.75 -3.65 -13.05 -5.6 -12.4 -6.45 L-11.75 -7.3 -10.9 -8.1 Q-10.5 -8.35 -10.1 -8.6 L-8.95 -9.15 -10.45 -9.05 -11.1 -8.85 -10.6 -9.45 -9.35 -10.2 -7.35 -10.9 -6.4 -11.05 -5.7 -11.15 -3.6 -11.3 0.3 -11.3 Q1.35 -11.35 2.4 -11.4 3.25 -11.4 4.15 -11.4 L6.7 -11.2 Q7.45 -11.1 8.25 -10.95 L9.25 -10.5 10.35 -9.55 8.45 -9.9 11.3 -7.3 12.5 -6.1 13.1 -5.4 11.5 -5.7 Q12.75 -4.25 13.45 -2.45 L13.75 -1.6 Q13.95 -0.8 14.15 0.0 L14.25 1.0 Q13.9 -0.5 13.0 -0.8 13.15 0.8 13.35 2.45 13.4 3.5 13.45 4.6 13.5 5.05 13.55 5.5 L13.55 6.0 Q13.2 4.3 12.45 4.85 L12.25 4.95 Q11.95 5.25 11.9 5.8 L11.85 6.7 Q11.6 7.6 11.3 8.55 L11.2 8.75 11.1 8.6 10.65 8.05 Q9.85 7.3 9.1 8.5 L8.6 9.35 8.45 9.7 8.35 9.9 7.85 9.25 Q8.0 9.9 7.75 10.4 L7.2 11.05 7.2 10.85 7.1 10.25 6.7 9.65 Q6.6 10.7 5.85 11.25 L5.4 11.5 Q5.2 11.2 5.0 10.9 4.6 10.9 4.15 10.95 L3.65 11.6 Q3.3 11.4 2.9 11.15 2.35 11.2 1.8 12.2 L1.65 11.75 Q1.1 11.75 0.5 11.7 L0.5 11.7 Q0.5 11.2 0.0 11.2 L-0.6 11.9 Q-0.9 12.35 -1.2 12.25 L-1.7 11.65 -2.4 11.6 -3.15 12.1 -3.45 12.4 -3.45 11.55 -3.6 11.1 -3.8 11.45 Q-4.55 12.3 -5.1 10.7 L-5.55 11.15 -6.1 11.7 -6.45 10.9 -6.55 10.65 Q-6.75 9.75 -7.1 9.5 L-8.0 9.6 -9.7 8.05 -10.2 7.55 -10.7 8.75 -10.7 8.95 Q-11.7 6.95 -12.05 4.7 L-12.6 5.45 -13.15 6.3 -13.15 5.7 -13.15 4.2 Q-13.1 2.15 -13.05 0.1 L-13.05 0.1 Q-13.75 0.6 -14.45 1.1 L-14.3 -0.45 Q-13.2 -3.55 -11.95 -4.7 -13.1 -4.4 -13.75 -3.65 -13.05 -5.6 -12.4 -6.45 L-11.75 -7.3 -10.9 -8.1 Q-10.5 -8.35 -10.1 -8.6 L-8.95 -9.15 -10.5 -9.05 -11.1 -8.85 -10.6 -9.45 -9.35 -10.2 -7.35 -10.9 -6.4 -11.05 -5.7 -11.15 -3.6 -11.3 0.3 -11.3 Q1.4 -11.35 2.5 -11.4 3.4 -11.4 4.35 -11.4 L6.75 -11.2 Q7.5 -11.1 8.25 -10.95 L9.3 -10.5 10.35 -9.55 8.45 -9.9 11.35 -7.3 12.5 -6.1 13.1 -5.4 11.5 -5.7 Q12.75 -4.2 13.45 -2.45 13.65 -1.7 13.9 -0.95 L14.15 0.2 Q13.9 -0.5 13.0 -0.8 13.15 0.8 13.35 2.45 13.4 3.5 13.45 4.6 13.5 5.1 13.55 5.6 13.2 4.25 12.35 4.85 L12.25 4.95 Q11.95 5.25 11.9 5.8 L11.85 6.75 Q11.65 7.55 11.4 8.35 L11.2 8.75 11.1 8.55 10.6 8.0 Q10.35 7.9 10.1 7.8 9.4 7.75 8.7 9.15 L8.6 9.35 8.35 9.9 8.05 9.55 7.85 9.25 Q7.7 9.0 7.85 9.25 8.0 9.9 7.75 10.4 L7.2 11.05 7.2 10.85 7.1 10.25 6.7 9.65 Q6.6 10.7 5.85 11.25 L5.4 11.5 Q5.2 11.2 5.0 10.9 4.6 10.9 4.15 10.95 L3.65 11.6 Q3.3 11.4 2.9 11.15 2.35 11.2 1.8 12.2 L1.65 11.75 Q1.1 11.75 0.5 11.7 L0.5 11.7 Q0.5 11.2 0.0 11.2 L-0.6 11.9 Q-0.9 12.35 -1.2 12.25 L-1.7 11.65 -2.4 11.6 -3.15 12.1 -3.45 12.4 -3.45 11.5 -3.6 11.1 -3.85 11.45 Q-4.6 12.25 -5.1 10.7 L-5.55 11.15 -6.1 11.7 -6.45 10.9 -6.55 10.6 Q-6.75 9.75 -7.1 9.5 L-8.0 9.6 -9.8 8.0 -10.2 7.55 -10.7 8.85 -10.7 8.95 Q-11.7 6.95 -12.05 4.7 L-12.6 5.5 -13.15 6.3 -13.15 5.7 -13.15 4.2 Q-13.1 2.15 -13.05 0.1 L-13.15 0.2 Q-13.8 0.65 -14.45 1.1 L-14.45 1.1" fill="none" stroke="#000000" stroke-linecap="round" stroke-linejoin="round" stroke-width="0.5">
      <animate attributeName="stroke" dur="2s" repeatCount="indefinite" values="#000000;#000001"/>
      <animate attributeName="stroke-width" dur="2s" repeatCount="indefinite" values="0.5;0.5"/>
      <animate attributeName="fill-opacity" dur="2s" repeatCount="indefinite" values="1.0;1.0"/>
      <animate attributeName="d" dur="2s" repeatCount="indefinite" values="M-14.45 1.1 L-14.3 -0.45 Q-13.2 -3.55 -11.95 -4.7 -13.1 -4.4 -13.75 -3.65 -13.05 -5.6 -12.4 -6.45 L-11.75 -7.3 -10.9 -8.1 Q-10.5 -8.35 -10.1 -8.6 L-8.95 -9.15 -10.45 -9.05 -11.1 -8.85 -10.6 -9.45 -9.35 -10.2 -7.35 -10.9 -6.4 -11.05 -5.7 -11.15 -3.6 -11.3 0.3 -11.3 Q1.35 -11.35 2.4 -11.4 3.25 -11.4 4.15 -11.4 L6.7 -11.2 Q7.45 -11.1 8.25 -10.95 L9.25 -10.5 10.35 -9.55 8.45 -9.9 11.3 -7.3 12.5 -6.1 13.1 -5.4 11.5 -5.7 Q12.75 -4.25 13.45 -2.45 L13.75 -1.6 Q13.95 -0.8 14.15 0.0 L14.25 1.0 Q13.9 -0.5 13.0 -0.8 13.15 0.8 13.35 2.45 13.4 3.5 13.45 4.6 13.5 5.05 13.55 5.5 L13.55 6.0 Q13.2 4.3 12.45 4.85 L12.25 4.95 Q11.95 5.25 11.9 5.8 L11.85 6.7 Q11.6 7.6 11.3 8.55 L11.2 8.75 11.1 8.6 10.65 8.05 Q9.85 7.3 9.1 8.5 L8.6 9.35 8.45 9.7 8.35 9.9 7.85 9.25 Q8.0 9.9 7.75 10.4 L7.2 11.05 7.2 10.85 7.1 10.25 6.7 9.65 Q6.6 10.7 5.85 11.25 L5.4 11.5 Q5.2 11.2 5.0 10.9 4.6 10.9 4.15 10.95 L3.65 11.6 Q3.3 11.4 2.9 11.15 2.35 11.2 1.8 12.2 L1.65 11.75 Q1.1 11.75 0.5 11.7 L0.5 11.7 Q0.5 11.2 0.0 11.2 L-0.6 11.9 Q-0.9 12.35 -1.2 12.25 L-1.7 11.65 -2.4 11.6 -3.15 12.1 -3.45 12.4 -3.45 11.55 -3.6 11.1 -3.8 11.45 Q-4.55 12.3 -5.1 10.7 L-5.55 11.15 -6.1 11.7 -6.45 10.9 -6.55 10.65 Q-6.75 9.75 -7.1 9.5 L-8.0 9.6 -9.7 8.05 -10.2 7.55 -10.7 8.75 -10.7 8.95 Q-11.7 6.95 -12.05 4.7 L-12.6 5.45 -13.15 6.3 -13.15 5.7 -13.15 4.2 Q-13.1 2.15 -13.05 0.1 L-13.05 0.1 Q-13.75 0.6 -14.45 1.1 L-14.3 -0.45 Q-13.2 -3.55 -11.95 -4.7 -13.1 -4.4 -13.75 -3.65 -13.05 -5.6 -12.4 -6.45 L-11.75 -7.3 -10.9 -8.1 Q-10.5 -8.35 -10.1 -8.6 L-8.95 -9.15 -10.5 -9.05 -11.1 -8.85 -10.6 -9.45 -9.35 -10.2 -7.35 -10.9 -6.4 -11.05 -5.7 -11.15 -3.6 -11.3 0.3 -11.3 Q1.4 -11.35 2.5 -11.4 3.4 -11.4 4.35 -11.4 L6.75 -11.2 Q7.5 -11.1 8.25 -10.95 L9.3 -10.5 10.35 -9.55 8.45 -9.9 11.35 -7.3 12.5 -6.1 13.1 -5.4 11.5 -5.7 Q12.75 -4.2 13.45 -2.45 13.65 -1.7 13.9 -0.95 L14.15 0.2 Q13.9 -0.5 13.0 -0.8 13.15 0.8 13.35 2.45 13.4 3.5 13.45 4.6 13.5 5.1 13.55 5.6 13.2 4.25 12.35 4.85 L12.25 4.95 Q11.95 5.25 11.9 5.8 L11.85 6.75 Q11.65 7.55 11.4 8.35 L11.2 8.75 11.1 8.55 10.6 8.0 Q10.35 7.9 10.1 7.8 9.4 7.75 8.7 9.15 L8.6 9.35 8.35 9.9 8.05 9.55 7.85 9.25 Q7.7 9.0 7.85 9.25 8.0 9.9 7.75 10.4 L7.2 11.05 7.2 10.85 7.1 10.25 6.7 9.65 Q6.6 10.7 5.85 11.25 L5.4 11.5 Q5.2 11.2 5.0 10.9 4.6 10.9 4.15 10.95 L3.65 11.6 Q3.3 11.4 2.9 11.15 2.35 11.2 1.8 12.2 L1.65 11.75 Q1.1 11.75 0.5 11.7 L0.5 11.7 Q0.5 11.2 0.0 11.2 L-0.6 11.9 Q-0.9 12.35 -1.2 12.25 L-1.7 11.65 -2.4 11.6 -3.15 12.1 -3.45 12.4 -3.45 11.5 -3.6 11.1 -3.85 11.45 Q-4.6 12.25 -5.1 10.7 L-5.55 11.15 -6.1 11.7 -6.45 10.9 -6.55 10.6 Q-6.75 9.75 -7.1 9.5 L-8.0 9.6 -9.8 8.0 -10.2 7.55 -10.7 8.85 -10.7 8.95 Q-11.7 6.95 -12.05 4.7 L-12.6 5.5 -13.15 6.3 -13.15 5.7 -13.15 4.2 Q-13.1 2.15 -13.05 0.1 L-13.15 0.2 Q-13.8 0.65 -14.45 1.1 L-14.45 1.1;M-14.9 -1.95 L-14.35 -3.5 Q-11.9 -7.0 -11.2 -7.4 -12.1 -7.3 -13.0 -7.2 -12.0 -7.95 -11.0 -8.75 L-10.05 -9.35 -8.7 -10.0 Q-8.45 -10.15 -9.4 -10.7 L-8.1 -10.95 -6.4 -11.05 -5.8 -11.15 -5.0 -11.2 -3.6 -11.3 -1.4 -11.3 -0.3 -11.3 0.3 -11.3 2.45 -11.45 6.3 -11.45 Q8.4 -11.35 7.65 -10.75 6.45 -9.8 7.65 -9.5 L10.05 -9.25 Q10.85 -9.05 11.5 -8.55 L12.15 -7.85 10.25 -8.2 11.55 -6.95 14.35 -3.85 12.75 -4.15 13.25 -3.4 13.9 -1.55 Q14.25 0.3 14.65 2.2 L14.75 3.0 Q14.4 1.5 13.5 1.2 L13.5 2.6 Q13.4 3.25 13.25 3.95 12.85 5.8 12.9 7.05 12.5 5.15 11.6 6.0 11.35 6.25 11.25 6.85 L11.2 7.55 Q10.9 8.4 10.6 9.25 L10.5 9.15 Q10.1 8.85 9.65 8.55 L8.8 8.6 Q8.15 8.85 7.65 9.95 L7.5 10.3 7.4 10.5 6.9 9.85 Q7.15 11.0 6.25 11.65 L6.15 10.65 5.75 10.25 5.7 10.55 5.45 11.25 Q4.95 11.65 4.45 12.1 L4.2 11.25 4.15 11.05 3.65 11.6 3.15 11.15 Q2.5 10.9 1.8 12.2 L1.65 11.75 Q1.4 11.2 0.85 11.6 0.85 11.1 0.35 11.1 L-0.25 11.8 Q-0.85 12.65 -1.25 11.8 -1.75 11.35 -2.65 12.2 L-3.0 12.55 Q-2.9 11.75 -3.15 11.35 L-3.15 11.25 Q-3.35 11.5 -3.6 11.8 L-4.25 11.65 Q-4.45 11.25 -4.65 10.85 L-5.4 11.35 -6.1 11.7 -6.45 10.9 -6.55 10.45 -7.1 9.5 -7.6 9.4 -8.0 9.6 Q-8.7 9.1 -9.45 8.6 L-9.75 8.4 -10.0 9.0 -10.25 9.7 -10.25 9.8 Q-10.45 9.3 -10.7 8.8 L-11.05 8.05 -12.05 5.7 -12.45 6.3 -13.15 7.3 -13.15 7.1 Q-13.25 4.8 -13.35 2.5 L-13.35 1.65 -14.25 2.25 -14.75 2.65 -14.6 1.1 Q-13.75 -2.25 -13.2 -2.9 L-13.1 -3.0 Q-13.95 -2.8 -14.6 -2.25 L-14.35 -3.5 Q-11.9 -7.0 -11.2 -7.4 -12.1 -7.3 -13.0 -7.2 -12.0 -7.95 -11.0 -8.75 L-10.05 -9.35 -8.7 -10.0 Q-8.45 -10.15 -9.4 -10.7 L-8.15 -10.95 -6.4 -11.05 -5.8 -11.15 -5.0 -11.2 -3.6 -11.3 -1.4 -11.3 -0.3 -11.3 0.3 -11.3 2.4 -11.45 6.25 -11.45 Q8.4 -11.35 7.65 -10.75 6.45 -9.8 7.65 -9.5 L10.05 -9.25 Q10.85 -9.05 11.45 -8.6 L12.15 -7.85 10.25 -8.2 11.55 -6.95 14.35 -3.85 12.75 -4.15 13.2 -3.45 13.85 -1.6 Q14.25 0.3 14.65 2.2 14.4 1.5 13.5 1.2 L13.5 2.5 Q13.4 3.2 13.25 3.95 12.85 5.8 12.9 7.05 12.5 5.15 11.6 6.0 11.35 6.25 11.25 6.85 10.95 8.05 10.6 9.25 L10.5 9.15 Q10.1 8.85 9.7 8.5 L8.8 8.6 Q8.15 8.85 7.65 9.95 L7.5 10.25 7.4 10.5 6.9 9.85 Q6.7 9.55 6.9 9.85 7.15 11.0 6.25 11.65 L6.3 11.3 6.05 10.5 5.75 10.25 5.7 10.55 Q5.6 10.9 5.45 11.25 4.95 11.65 4.45 12.1 L4.2 11.25 4.15 11.05 3.65 11.6 3.15 11.15 Q2.5 10.9 1.8 12.2 L1.65 11.75 Q1.4 11.2 0.85 11.6 0.85 11.1 0.35 11.1 L-0.25 11.8 Q-0.85 12.65 -1.25 11.8 -1.75 11.35 -2.65 12.2 L-3.0 12.55 Q-2.9 11.75 -3.15 11.35 L-3.15 11.25 Q-3.35 11.5 -3.6 11.8 L-4.25 11.65 Q-4.45 11.25 -4.65 10.85 L-5.4 11.35 -6.1 11.7 -6.45 10.9 -6.55 10.45 -7.1 9.5 -7.5 9.4 -8.0 9.6 Q-8.6 9.1 -9.35 8.6 L-9.75 8.4 -10.0 8.95 -10.25 9.65 -10.25 9.8 Q-10.45 9.35 -10.7 8.85 L-11.0 8.15 -12.05 5.7 -12.45 6.2 -13.15 7.3 -13.15 7.2 Q-13.25 4.95 -13.35 2.65 L-13.35 1.65 -14.25 2.25 -14.75 2.65 -14.6 1.1 Q-13.75 -2.15 -13.2 -2.9 L-13.1 -3.0 Q-13.95 -2.8 -14.55 -2.3 L-14.9 -1.95"/>
    </path>
  </g>
  <defs>
    <radialGradient cx="0" cy="0" gradientTransform="matrix(0.0185, 0.0, 0.0, 0.0185, 0.15, 0.0)" gradientUnits="userSpaceOnUse" id="gradient0" r="819.2" spreadMethod="pad">
      <animateTransform additive="replace" attributeName="gradientTransform" dur="2s" from="1" repeatCount="indefinite" to="1" type="scale"/>
      <animateTransform additive="sum" attributeName="gradientTransform" dur="2s" from="0.15 0.0" repeatCount="indefinite" to="0.0 -0.1" type="translate"/>
      <animateTransform additive="sum" attributeName="gradientTransform" dur="2s" from="0.0" repeatCount="indefinite" to="0.0" type="rotate"/>
      <animateTransform additive="sum" attributeName="gradientTransform" dur="2s" from="0.0185 0.0185" repeatCount="indefinite" to="0.0194 0.0194" type="scale"/>
      <animateTransform additive="sum" attributeName="gradientTransform" dur="2s" from="0.0" repeatCount="indefinite" to="0.0" type="skewX"/>
      <stop offset="0.3215686274509804" stop-color="#8c6b37">
        <animate attributeName="offset" dur="2s" repeatCount="indefinite" values="0.3215686274509804;0.3215686274509804"/>
        <animate attributeName="stop-color" dur="2s" repeatCount="indefinite" values="#8c6b37;#8c6b38"/>
        <animate attributeName="stop-opacity" dur="2s" repeatCount="indefinite" values="1.0;1.0"/>
      </stop>
      <stop offset="1.0" stop-color="#3c301a">
        <animate attributeName="offset" dur="2s" repeatCount="indefinite" values="1.0;1.0"/>
        <animate attributeName="stop-color" dur="2s" repeatCount="indefinite" values="#3c301a;#3c301b"/>
        <animate attributeName="stop-opacity" dur="2s" repeatCount="indefinite" values="1.0;1.0"/>
      </stop>
    </radialGradient>
  </defs>
</svg>
