<?xml version="1.0" encoding="UTF-8" standalone="no"?>
<svg xmlns:xlink="http://www.w3.org/1999/xlink" height="37.7px" width="41.1px" xmlns="http://www.w3.org/2000/svg">
  <g transform="matrix(1.0, 0.0, 0.0, 1.0, 20.45, 18.75)">
    <path d="M-19.45 0.1 Q-19.45 4.3 -17.6 7.85 -16.2 10.45 -13.75 12.7 -7.95 17.95 0.1 17.95 8.2 17.95 13.9 12.7 19.65 7.5 19.65 0.1 19.65 -7.3 13.9 -12.55 8.2 -17.75 0.1 -17.75 -7.95 -17.75 -13.75 -12.55 -16.7 -9.85 -18.1 -6.55 -19.45 -3.45 -19.45 0.1" fill="url(#gradient0)" fill-rule="evenodd" stroke="none">
      <animate attributeName="d" dur="2s" repeatCount="indefinite" values="M-19.45 0.1 Q-19.45 4.3 -17.6 7.85 -16.2 10.45 -13.75 12.7 -7.95 17.95 0.1 17.95 8.2 17.95 13.9 12.7 19.65 7.5 19.65 0.1 19.65 -7.3 13.9 -12.55 8.2 -17.75 0.1 -17.75 -7.95 -17.75 -13.75 -12.55 -16.7 -9.85 -18.1 -6.55 -19.45 -3.45 -19.45 0.1;M-19.45 0.1 Q-19.45 4.3 -17.6 7.85 -16.2 10.45 -13.75 12.7 -7.95 17.95 0.1 17.95 8.2 17.95 13.9 12.7 19.65 7.5 19.65 0.1 19.65 -7.3 13.9 -12.55 8.2 -17.75 0.1 -17.75 -7.95 -17.75 -13.75 -12.55 -16.7 -9.85 -18.1 -6.55 -19.45 -3.45 -19.45 0.1"/>
    </path>
    <path d="M-19.45 0.1 Q-19.45 -3.45 -18.1 -6.55 -16.7 -9.85 -13.75 -12.55 -7.95 -17.75 0.1 -17.75 8.2 -17.75 13.9 -12.55 19.65 -7.3 19.65 0.1 19.65 7.5 13.9 12.7 8.2 17.95 0.1 17.95 -7.95 17.95 -13.75 12.7 -16.2 10.45 -17.6 7.85 -19.45 4.3 -19.45 0.1 -19.45 -3.45 -18.1 -6.55 -16.7 -9.85 -13.75 -12.55 -7.95 -17.75 0.1 -17.75 8.2 -17.75 13.9 -12.55 19.65 -7.3 19.65 0.1 19.65 7.5 13.9 12.7 8.2 17.95 0.1 17.95 -7.95 17.95 -13.75 12.7 -16.2 10.45 -17.6 7.85 -19.45 4.3 -19.45 0.1" fill="none" stroke="#000000" stroke-linecap="round" stroke-linejoin="round" stroke-width="2.0">
      <animate attributeName="stroke" dur="2s" repeatCount="indefinite" values="#000000;#000001"/>
      <animate attributeName="stroke-width" dur="2s" repeatCount="indefinite" values="2.0;0.25"/>
      <animate attributeName="fill-opacity" dur="2s" repeatCount="indefinite" values="1.0;1.0"/>
      <animate attributeName="d" dur="2s" repeatCount="indefinite" values="M-19.45 0.1 Q-19.45 -3.45 -18.1 -6.55 -16.7 -9.85 -13.75 -12.55 -7.95 -17.75 0.1 -17.75 8.2 -17.75 13.9 -12.55 19.65 -7.3 19.65 0.1 19.65 7.5 13.9 12.7 8.2 17.95 0.1 17.95 -7.95 17.95 -13.75 12.7 -16.2 10.45 -17.6 7.85 -19.45 4.3 -19.45 0.1 -19.45 -3.45 -18.1 -6.55 -16.7 -9.85 -13.75 -12.55 -7.95 -17.75 0.1 -17.75 8.2 -17.75 13.9 -12.55 19.65 -7.3 19.65 0.1 19.65 7.5 13.9 12.7 8.2 17.95 0.1 17.95 -7.95 17.95 -13.75 12.7 -16.2 10.45 -17.6 7.85 -19.45 4.3 -19.45 0.1;M-19.45 0.1 Q-19.45 -3.45 -18.1 -6.55 -16.7 -9.85 -13.75 -12.55 -7.95 -17.75 0.1 -17.75 8.2 -17.75 13.9 -12.55 19.65 -7.3 19.65 0.1 19.65 7.5 13.9 12.7 8.2 17.95 0.1 17.95 -7.95 17.95 -13.75 12.7 -16.2 10.45 -17.6 7.85 -19.45 4.3 -19.45 0.1 -19.45 -3.45 -18.1 -6.55 -16.7 -9.85 -13.75 -12.55 -7.95 -17.75 0.1 -17.75 8.2 -17.75 13.9 -12.55 19.65 -7.3 19.65 0.1 19.65 7.5 13.9 12.7 8.2 17.95 0.1 17.95 -7.95 17.95 -13.75 12.7 -16.2 10.45 -17.6 7.85 -19.45 4.3 -19.45 0.1"/>
    </path>
  </g>
  <defs>
    <radialGradient cx="0" cy="0" gradientTransform="matrix(0.0376, -0.0184, 0.0125, 0.0257, 5.2, 4.35)" gradientUnits="userSpaceOnUse" id="gradient0" r="819.2" spreadMethod="pad">
      <animateTransform additive="replace" attributeName="gradientTransform" dur="2s" from="1" repeatCount="indefinite" to="1" type="scale"/>
      <animateTransform additive="sum" attributeName="gradientTransform" dur="2s" from="5.2 4.35" repeatCount="indefinite" to="-1.3 -2.65" type="translate"/>
      <animateTransform additive="sum" attributeName="gradientTransform" dur="2s" from="-26.0326" repeatCount="indefinite" to="-17.5153" type="rotate"/>
      <animateTransform additive="sum" attributeName="gradientTransform" dur="2s" from="0.0419 0.0285" repeatCount="indefinite" to="0.0256 0.0224" type="scale"/>
      <animateTransform additive="sum" attributeName="gradientTransform" dur="2s" from="-0.0012" repeatCount="indefinite" to="0.0159" type="skewX"/>
      <stop offset="0.0" stop-color="#505050">
        <animate attributeName="offset" dur="2s" repeatCount="indefinite" values="0.0;0.0"/>
        <animate attributeName="stop-color" dur="2s" repeatCount="indefinite" values="#505050;#ffffff"/>
        <animate attributeName="stop-opacity" dur="2s" repeatCount="indefinite" values="1.0;1.0"/>
      </stop>
      <stop offset="0.5764705882352941" stop-color="#959595">
        <animate attributeName="offset" dur="2s" repeatCount="indefinite" values="0.5764705882352941;0.5764705882352941"/>
        <animate attributeName="stop-color" dur="2s" repeatCount="indefinite" values="#959595;#959596"/>
        <animate attributeName="stop-opacity" dur="2s" repeatCount="indefinite" values="1.0;1.0"/>
      </stop>
      <stop offset="1.0" stop-color="#ffffff">
        <animate attributeName="offset" dur="2s" repeatCount="indefinite" values="1.0;1.0"/>
        <animate attributeName="stop-color" dur="2s" repeatCount="indefinite" values="#ffffff;#505051"/>
        <animate attributeName="stop-opacity" dur="2s" repeatCount="indefinite" values="1.0;1.0"/>
      </stop>
    </radialGradient>
  </defs>
</svg>
