<?xml version="1.0" encoding="UTF-8" standalone="no"?>
<svg xmlns:xlink="http://www.w3.org/1999/xlink" height="52.65px" width="48.95px" xmlns="http://www.w3.org/2000/svg">
  <g transform="matrix(1.0, 0.0, 0.0, 1.0, 24.35, 30.1)">
    <path d="M-23.35 0.15 L-23.35 0.15 Q-23.35 4.75 -21.5 8.6 L-21.1 9.4 Q-19.8 11.9 -17.65 14.1 L-16.5 15.2 Q-10.95 20.25 -3.65 21.3 L0.15 21.55 Q6.7 21.55 11.95 18.65 14.45 17.25 16.65 15.2 20.55 11.75 22.25 7.45 23.6 4.05 23.6 0.15 23.6 -3.9 22.15 -7.45 20.45 -11.65 16.65 -15.1 L13.95 -17.2 Q9.35 -20.35 3.65 -21.1 1.9 -21.2 0.15 -21.3 -4.1 -21.3 -7.85 -20.1 -12.6 -18.55 -17.75 -13.9 -20.35 -11.1 -22.0 -7.25 -23.35 -3.8 -23.35 0.15" fill="url(#gradient0)" fill-rule="evenodd" stroke="none">
      <animate attributeName="d" dur="2s" repeatCount="indefinite" values="M-23.35 0.15 L-23.35 0.15 Q-23.35 4.75 -21.5 8.6 L-21.1 9.4 Q-19.8 11.9 -17.65 14.1 L-16.5 15.2 Q-10.95 20.25 -3.65 21.3 L0.15 21.55 Q6.7 21.55 11.95 18.65 14.45 17.25 16.65 15.2 20.55 11.75 22.25 7.45 23.6 4.05 23.6 0.15 23.6 -3.9 22.15 -7.45 20.45 -11.65 16.65 -15.1 L13.95 -17.2 Q9.35 -20.35 3.65 -21.1 1.9 -21.2 0.15 -21.3 -4.1 -21.3 -7.85 -20.1 -12.6 -18.55 -17.75 -13.9 -20.35 -11.1 -22.0 -7.25 -23.35 -3.8 -23.35 0.15;M-19.45 0.1 L-19.45 0.2 Q-19.45 4.35 -17.6 7.85 L-17.15 8.65 Q-15.85 10.8 -13.75 12.7 L-12.5 13.75 Q-7.1 17.95 0.1 17.95 L3.75 17.65 Q9.55 16.7 13.9 12.7 16.05 10.75 17.4 8.5 19.65 4.75 19.65 0.1 19.65 -3.65 18.2 -6.8 16.75 -9.95 13.9 -12.55 13.25 -13.2 9.25 -19.45 L7.55 -22.1 Q3.15 -29.1 0.0 -29.1 -1.35 -29.1 -2.9 -27.8 -5.0 -26.1 -7.45 -22.1 -11.1 -16.2 -13.75 -12.55 -16.45 -10.05 -18.1 -6.55 -19.45 -3.45 -19.45 0.1"/>
    </path>
    <path d="M-23.35 0.15 Q-23.35 -3.8 -22.0 -7.25 -20.35 -11.1 -17.75 -13.9 -12.6 -18.55 -7.85 -20.1 -4.1 -21.3 0.15 -21.3 1.9 -21.2 3.65 -21.1 9.35 -20.35 13.95 -17.2 L16.65 -15.1 Q20.45 -11.65 22.15 -7.45 23.6 -3.9 23.6 0.15 23.6 4.05 22.25 7.45 20.55 11.75 16.65 15.2 14.45 17.25 11.95 18.65 6.7 21.55 0.15 21.55 L-3.65 21.3 Q-10.95 20.25 -16.5 15.2 L-17.65 14.1 Q-19.8 11.9 -21.1 9.4 L-21.5 8.6 Q-23.35 4.75 -23.35 0.15 -23.35 -3.8 -22.0 -7.25 -20.35 -11.1 -17.75 -13.9 -12.6 -18.55 -7.85 -20.1 -4.1 -21.3 0.15 -21.3 1.9 -21.2 3.65 -21.1 9.35 -20.35 13.95 -17.2 L16.65 -15.1 Q20.45 -11.65 22.15 -7.45 23.6 -3.9 23.6 0.15 23.6 4.05 22.25 7.45 20.55 11.75 16.65 15.2 14.45 17.25 11.95 18.65 6.7 21.55 0.15 21.55 L-3.65 21.3 Q-10.95 20.25 -16.5 15.2 L-17.65 14.1 Q-19.8 11.9 -21.1 9.4 L-21.5 8.6 Q-23.35 4.75 -23.35 0.15 L-23.35 0.15" fill="none" stroke="#000000" stroke-linecap="round" stroke-linejoin="round" stroke-width="2.0">
      <animate attributeName="stroke" dur="2s" repeatCount="indefinite" values="#000000;#000001"/>
      <animate attributeName="stroke-width" dur="2s" repeatCount="indefinite" values="2.0;2.0"/>
      <animate attributeName="fill-opacity" dur="2s" repeatCount="indefinite" values="1.0;1.0"/>
      <animate attributeName="d" dur="2s" repeatCount="indefinite" values="M-23.35 0.15 Q-23.35 -3.8 -22.0 -7.25 -20.35 -11.1 -17.75 -13.9 -12.6 -18.55 -7.85 -20.1 -4.1 -21.3 0.15 -21.3 1.9 -21.2 3.65 -21.1 9.35 -20.35 13.95 -17.2 L16.65 -15.1 Q20.45 -11.65 22.15 -7.45 23.6 -3.9 23.6 0.15 23.6 4.05 22.25 7.45 20.55 11.75 16.65 15.2 14.45 17.25 11.95 18.65 6.7 21.55 0.15 21.55 L-3.65 21.3 Q-10.95 20.25 -16.5 15.2 L-17.65 14.1 Q-19.8 11.9 -21.1 9.4 L-21.5 8.6 Q-23.35 4.75 -23.35 0.15 -23.35 -3.8 -22.0 -7.25 -20.35 -11.1 -17.75 -13.9 -12.6 -18.55 -7.85 -20.1 -4.1 -21.3 0.15 -21.3 1.9 -21.2 3.65 -21.1 9.35 -20.35 13.95 -17.2 L16.65 -15.1 Q20.45 -11.65 22.15 -7.45 23.6 -3.9 23.6 0.15 23.6 4.05 22.25 7.45 20.55 11.75 16.65 15.2 14.45 17.25 11.95 18.65 6.7 21.55 0.15 21.55 L-3.65 21.3 Q-10.95 20.25 -16.5 15.2 L-17.65 14.1 Q-19.8 11.9 -21.1 9.4 L-21.5 8.6 Q-23.35 4.75 -23.35 0.15 L-23.35 0.15;M-19.45 0.1 Q-19.45 -3.45 -18.1 -6.55 -16.45 -10.05 -13.75 -12.55 -11.1 -16.2 -7.45 -22.1 -5.0 -26.1 -2.9 -27.8 -1.35 -29.1 0.0 -29.1 3.15 -29.1 7.55 -22.1 L9.25 -19.45 Q13.25 -13.2 13.9 -12.55 16.75 -9.95 18.2 -6.8 19.65 -3.65 19.65 0.1 19.65 4.75 17.4 8.5 16.05 10.75 13.9 12.7 9.55 16.7 3.75 17.65 L0.1 17.95 Q-7.1 17.95 -12.5 13.75 L-13.75 12.7 Q-15.85 10.8 -17.15 8.65 L-17.6 7.85 Q-19.45 4.35 -19.45 0.2 -19.45 -3.45 -18.1 -6.55 -16.45 -10.05 -13.75 -12.55 -11.1 -16.2 -7.45 -22.1 -5.0 -26.1 -2.9 -27.8 -1.35 -29.1 0.0 -29.1 3.15 -29.1 7.55 -22.1 L9.25 -19.45 Q13.25 -13.2 13.9 -12.55 16.75 -9.95 18.2 -6.8 19.65 -3.65 19.65 0.1 19.65 4.75 17.4 8.5 16.05 10.75 13.9 12.7 9.55 16.7 3.75 17.65 L0.1 17.95 Q-7.1 17.95 -12.5 13.75 L-13.75 12.7 Q-15.85 10.8 -17.15 8.65 L-17.6 7.85 Q-19.45 4.35 -19.45 0.2 L-19.45 0.1"/>
    </path>
  </g>
  <defs>
    <radialGradient cx="0" cy="0" gradientTransform="matrix(0.0451, -0.022, 0.015, 0.0308, 6.25, 5.2)" gradientUnits="userSpaceOnUse" id="gradient0" r="819.2" spreadMethod="pad">
      <animateTransform additive="replace" attributeName="gradientTransform" dur="2s" from="1" repeatCount="indefinite" to="1" type="scale"/>
      <animateTransform additive="sum" attributeName="gradientTransform" dur="2s" from="6.25 5.2" repeatCount="indefinite" to="4.0 0.95" type="translate"/>
      <animateTransform additive="sum" attributeName="gradientTransform" dur="2s" from="-26.0358" repeatCount="indefinite" to="-67.1692" type="rotate"/>
      <animateTransform additive="sum" attributeName="gradientTransform" dur="2s" from="0.0502 0.0343" repeatCount="indefinite" to="0.0446 0.0304" type="scale"/>
      <animateTransform additive="sum" attributeName="gradientTransform" dur="2s" from="-0.0049" repeatCount="indefinite" to="0.0142" type="skewX"/>
      <stop offset="0.0" stop-color="#505050">
        <animate attributeName="offset" dur="2s" repeatCount="indefinite" values="0.0;0.0"/>
        <animate attributeName="stop-color" dur="2s" repeatCount="indefinite" values="#505050;#505051"/>
        <animate attributeName="stop-opacity" dur="2s" repeatCount="indefinite" values="1.0;1.0"/>
      </stop>
      <stop offset="0.5764705882352941" stop-color="#959595">
        <animate attributeName="offset" dur="2s" repeatCount="indefinite" values="0.5764705882352941;0.5764705882352941"/>
        <animate attributeName="stop-color" dur="2s" repeatCount="indefinite" values="#959595;#959596"/>
        <animate attributeName="stop-opacity" dur="2s" repeatCount="indefinite" values="1.0;1.0"/>
      </stop>
      <stop offset="1.0" stop-color="#ffffff">
        <animate attributeName="offset" dur="2s" repeatCount="indefinite" values="1.0;1.0"/>
        <animate attributeName="stop-color" dur="2s" repeatCount="indefinite" values="#ffffff;#ffffff"/>
        <animate attributeName="stop-opacity" dur="2s" repeatCount="indefinite" values="1.0;1.0"/>
      </stop>
    </radialGradient>
  </defs>
</svg>
