<?xml version="1.0" encoding="UTF-8" standalone="no"?>
<svg xmlns:xlink="http://www.w3.org/1999/xlink" height="49.05px" width="41.1px" xmlns="http://www.w3.org/2000/svg">
  <g transform="matrix(1.0, 0.0, 0.0, 1.0, 20.45, 30.1)">
    <path d="M-19.45 0.1 Q-19.45 4.3 -17.6 7.85 L-17.15 8.65 Q-15.8 10.8 -13.75 12.7 L-12.4 13.8 Q-7.05 17.95 0.1 17.95 L3.55 17.7 Q9.45 16.8 13.9 12.7 15.95 10.85 17.25 8.7 19.65 4.85 19.65 0.1 19.65 -3.65 18.2 -6.8 16.75 -9.95 13.9 -12.55 13.25 -13.15 9.45 -19.1 L7.55 -22.1 Q3.15 -29.1 0.0 -29.1 -1.25 -29.1 -2.65 -28.05 -4.85 -26.35 -7.45 -22.1 -11.0 -16.35 -13.75 -12.55 -16.35 -10.15 -18.1 -6.55 -19.45 -3.45 -19.45 0.1" fill="url(#gradient0)" fill-rule="evenodd" stroke="none">
      <animate attributeName="d" dur="2s" repeatCount="indefinite" values="M-19.45 0.1 Q-19.45 4.3 -17.6 7.85 L-17.15 8.65 Q-15.8 10.8 -13.75 12.7 L-12.4 13.8 Q-7.05 17.95 0.1 17.95 L3.55 17.7 Q9.45 16.8 13.9 12.7 15.95 10.85 17.25 8.7 19.65 4.85 19.65 0.1 19.65 -3.65 18.2 -6.8 16.75 -9.95 13.9 -12.55 13.25 -13.15 9.45 -19.1 L7.55 -22.1 Q3.15 -29.1 0.0 -29.1 -1.25 -29.1 -2.65 -28.05 -4.85 -26.35 -7.45 -22.1 -11.0 -16.35 -13.75 -12.55 -16.35 -10.15 -18.1 -6.55 -19.45 -3.45 -19.45 0.1;M-19.45 0.1 Q-19.45 3.85 -18.0 7.05 L-17.6 7.85 Q-16.5 9.85 -14.8 11.65 L-13.75 12.7 Q-9.05 16.95 -2.9 17.75 L0.1 17.95 Q5.7 17.95 10.15 15.45 12.15 14.3 13.9 12.7 17.15 9.75 18.55 6.1 19.65 3.3 19.65 0.1 19.65 -3.35 18.4 -6.35 16.95 -9.75 13.9 -12.55 L11.3 -14.6 Q7.45 -17.1 2.7 -17.6 1.4 -17.7 0.1 -17.75 -3.55 -17.75 -6.75 -16.7 -10.6 -15.4 -14.9 -11.45 -17.0 -9.2 -18.35 -5.95 -19.45 -3.1 -19.45 0.1"/>
    </path>
    <path d="M-19.45 0.1 Q-19.45 -3.45 -18.1 -6.55 -16.35 -10.15 -13.75 -12.55 -11.0 -16.35 -7.45 -22.1 -4.85 -26.35 -2.65 -28.05 -1.25 -29.1 0.0 -29.1 3.15 -29.1 7.55 -22.1 L9.45 -19.1 Q13.25 -13.15 13.9 -12.55 16.75 -9.95 18.2 -6.8 19.65 -3.65 19.65 0.1 19.65 4.85 17.25 8.7 15.95 10.85 13.9 12.7 9.45 16.8 3.55 17.7 L0.1 17.95 Q-7.05 17.95 -12.4 13.8 L-13.75 12.7 Q-15.8 10.8 -17.15 8.65 L-17.6 7.85 Q-19.45 4.3 -19.45 0.1 -19.45 -3.45 -18.1 -6.55 -16.35 -10.15 -13.75 -12.55 -11.0 -16.35 -7.45 -22.1 -4.85 -26.35 -2.65 -28.05 -1.25 -29.1 0.0 -29.1 3.15 -29.1 7.55 -22.1 L9.45 -19.1 Q13.25 -13.15 13.9 -12.55 16.75 -9.95 18.2 -6.8 19.65 -3.65 19.65 0.1 19.65 4.85 17.25 8.7 15.95 10.85 13.9 12.7 9.45 16.8 3.55 17.7 L0.1 17.95 Q-7.05 17.95 -12.4 13.8 L-13.75 12.7 Q-15.8 10.8 -17.15 8.65 L-17.6 7.85 Q-19.45 4.3 -19.45 0.1" fill="none" stroke="#000000" stroke-linecap="round" stroke-linejoin="round" stroke-width="2.0">
      <animate attributeName="stroke" dur="2s" repeatCount="indefinite" values="#000000;#000001"/>
      <animate attributeName="stroke-width" dur="2s" repeatCount="indefinite" values="2.0;2.0"/>
      <animate attributeName="fill-opacity" dur="2s" repeatCount="indefinite" values="1.0;1.0"/>
      <animate attributeName="d" dur="2s" repeatCount="indefinite" values="M-19.45 0.1 Q-19.45 -3.45 -18.1 -6.55 -16.35 -10.15 -13.75 -12.55 -11.0 -16.35 -7.45 -22.1 -4.85 -26.35 -2.65 -28.05 -1.25 -29.1 0.0 -29.1 3.15 -29.1 7.55 -22.1 L9.45 -19.1 Q13.25 -13.15 13.9 -12.55 16.75 -9.95 18.2 -6.8 19.65 -3.65 19.65 0.1 19.65 4.85 17.25 8.7 15.95 10.85 13.9 12.7 9.45 16.8 3.55 17.7 L0.1 17.95 Q-7.05 17.95 -12.4 13.8 L-13.75 12.7 Q-15.8 10.8 -17.15 8.65 L-17.6 7.85 Q-19.45 4.3 -19.45 0.1 -19.45 -3.45 -18.1 -6.55 -16.35 -10.15 -13.75 -12.55 -11.0 -16.35 -7.45 -22.1 -4.85 -26.35 -2.65 -28.05 -1.25 -29.1 0.0 -29.1 3.15 -29.1 7.55 -22.1 L9.45 -19.1 Q13.25 -13.15 13.9 -12.55 16.75 -9.95 18.2 -6.8 19.65 -3.65 19.65 0.1 19.65 4.85 17.25 8.7 15.95 10.85 13.9 12.7 9.45 16.8 3.55 17.7 L0.1 17.95 Q-7.05 17.95 -12.4 13.8 L-13.75 12.7 Q-15.8 10.8 -17.15 8.65 L-17.6 7.85 Q-19.45 4.3 -19.45 0.1;M-19.45 0.1 Q-19.45 -3.1 -18.35 -5.95 -17.0 -9.2 -14.9 -11.45 -10.6 -15.4 -6.75 -16.7 -3.55 -17.75 0.1 -17.75 1.4 -17.7 2.7 -17.6 7.45 -17.1 11.3 -14.6 L13.9 -12.55 Q16.95 -9.75 18.4 -6.35 19.65 -3.35 19.65 0.1 19.65 3.3 18.55 6.1 17.15 9.75 13.9 12.7 12.15 14.3 10.15 15.45 5.7 17.95 0.1 17.95 L-2.9 17.75 Q-9.05 16.95 -13.75 12.7 L-14.8 11.65 Q-16.5 9.85 -17.6 7.85 L-18.0 7.05 Q-19.45 3.85 -19.45 0.1 -19.45 -3.1 -18.35 -5.95 -17.0 -9.2 -14.9 -11.45 -10.6 -15.4 -6.75 -16.7 -3.55 -17.75 0.1 -17.75 1.4 -17.7 2.7 -17.6 7.45 -17.1 11.3 -14.6 L13.9 -12.55 Q16.95 -9.75 18.4 -6.35 19.65 -3.35 19.65 0.1 19.65 3.3 18.55 6.1 17.15 9.75 13.9 12.7 12.15 14.3 10.15 15.45 5.7 17.95 0.1 17.95 L-2.9 17.75 Q-9.05 16.95 -13.75 12.7 L-14.8 11.65 Q-16.5 9.85 -17.6 7.85 L-18.0 7.05 Q-19.45 3.85 -19.45 0.1"/>
    </path>
  </g>
  <defs>
    <radialGradient cx="0" cy="0" gradientTransform="matrix(0.0173, -0.0411, 0.028, 0.0118, 4.0, 0.95)" gradientUnits="userSpaceOnUse" id="gradient0" r="819.2" spreadMethod="pad">
      <animateTransform additive="replace" attributeName="gradientTransform" dur="2s" from="1" repeatCount="indefinite" to="1" type="scale"/>
      <animateTransform additive="sum" attributeName="gradientTransform" dur="2s" from="4.0 0.95" repeatCount="indefinite" to="5.2 4.35" type="translate"/>
      <animateTransform additive="sum" attributeName="gradientTransform" dur="2s" from="-67.1692" repeatCount="indefinite" to="-26.0326" type="rotate"/>
      <animateTransform additive="sum" attributeName="gradientTransform" dur="2s" from="0.0446 0.0304" repeatCount="indefinite" to="0.0419 0.0285" type="scale"/>
      <animateTransform additive="sum" attributeName="gradientTransform" dur="2s" from="0.0142" repeatCount="indefinite" to="-0.0012" type="skewX"/>
      <stop offset="0.0" stop-color="#505050">
        <animate attributeName="offset" dur="2s" repeatCount="indefinite" values="0.0;0.0"/>
        <animate attributeName="stop-color" dur="2s" repeatCount="indefinite" values="#505050;#505051"/>
        <animate attributeName="stop-opacity" dur="2s" repeatCount="indefinite" values="1.0;1.0"/>
      </stop>
      <stop offset="0.5764705882352941" stop-color="#959595">
        <animate attributeName="offset" dur="2s" repeatCount="indefinite" values="0.5764705882352941;0.5764705882352941"/>
        <animate attributeName="stop-color" dur="2s" repeatCount="indefinite" values="#959595;#959596"/>
        <animate attributeName="stop-opacity" dur="2s" repeatCount="indefinite" values="1.0;1.0"/>
      </stop>
      <stop offset="1.0" stop-color="#ffffff">
        <animate attributeName="offset" dur="2s" repeatCount="indefinite" values="1.0;1.0"/>
        <animate attributeName="stop-color" dur="2s" repeatCount="indefinite" values="#ffffff;#ffffff"/>
        <animate attributeName="stop-opacity" dur="2s" repeatCount="indefinite" values="1.0;1.0"/>
      </stop>
    </radialGradient>
  </defs>
</svg>
