<?xml version="1.0" encoding="UTF-8" standalone="no"?>
<svg xmlns:xlink="http://www.w3.org/1999/xlink" height="37.7px" width="41.1px" xmlns="http://www.w3.org/2000/svg">
  <g transform="matrix(1.0, 0.0, 0.0, 1.0, 20.55, 18.85)">
    <path d="M-19.55 0.0 L-19.55 0.0 Q-19.55 3.55 -18.25 6.6 -16.8 9.9 -13.55 12.9 -10.35 15.65 -6.5 16.9 -3.8 17.75 0.0 17.85 3.15 17.85 5.9 17.05 9.7 16.0 12.85 13.45 L13.8 12.6 Q16.9 9.8 18.35 6.35 19.55 3.4 19.55 -0.2 19.5 -3.5 18.3 -6.45 16.9 -9.75 13.8 -12.65 10.75 -15.45 7.0 -16.75 4.05 -17.75 0.0 -17.85 -3.2 -17.85 -6.05 -17.05 -10.0 -15.9 -13.85 -12.65 -17.0 -9.75 -18.4 -6.2 -19.55 -3.3 -19.55 0.0" fill="url(#gradient0)" fill-rule="evenodd" stroke="none">
      <animate attributeName="d" dur="2s" repeatCount="indefinite" values="M-19.55 0.0 L-19.55 0.0 Q-19.55 3.55 -18.25 6.6 -16.8 9.9 -13.55 12.9 -10.35 15.65 -6.5 16.9 -3.8 17.75 0.0 17.85 3.15 17.85 5.9 17.05 9.7 16.0 12.85 13.45 L13.8 12.6 Q16.9 9.8 18.35 6.35 19.55 3.4 19.55 -0.2 19.5 -3.5 18.3 -6.45 16.9 -9.75 13.8 -12.65 10.75 -15.45 7.0 -16.75 4.05 -17.75 0.0 -17.85 -3.2 -17.85 -6.05 -17.05 -10.0 -15.9 -13.85 -12.65 -17.0 -9.75 -18.4 -6.2 -19.55 -3.3 -19.55 0.0;M-13.85 -12.65 L-13.95 -12.55 Q-15.75 -10.6 -11.75 -6.5 -7.05 -1.7 -6.8 0.7 -6.8 2.95 -11.75 7.2 -15.85 10.75 -13.0 13.1 -11.05 13.7 -7.75 10.4 -2.9 5.6 -0.5 5.6 L0.75 5.85 Q3.15 6.7 7.25 10.4 11.7 14.45 13.8 12.6 15.85 10.75 11.85 7.1 7.05 2.75 7.1 0.2 7.4 -2.0 11.85 -6.6 15.9 -10.75 13.15 -13.05 11.1 -13.9 7.4 -10.3 2.2 -5.35 -1.0 -5.45 -3.4 -6.05 -7.6 -10.3 -11.8 -14.5 -13.85 -12.65"/>
    </path>
    <path d="M-19.55 0.0 Q-19.55 -3.3 -18.4 -6.2 -17.0 -9.75 -13.85 -12.65 -10.0 -15.9 -6.05 -17.05 -3.2 -17.85 0.0 -17.85 4.05 -17.75 7.0 -16.75 10.75 -15.45 13.8 -12.65 16.9 -9.75 18.3 -6.45 19.5 -3.5 19.55 -0.2 19.55 3.4 18.35 6.35 16.9 9.8 13.8 12.6 L12.85 13.45 Q9.7 16.0 5.9 17.05 3.15 17.85 0.0 17.85 -3.8 17.75 -6.5 16.9 -10.35 15.65 -13.55 12.9 -16.8 9.9 -18.25 6.6 -19.55 3.55 -19.55 0.0 -19.55 -3.3 -18.4 -6.2 -17.0 -9.75 -13.85 -12.65 -10.0 -15.9 -6.05 -17.05 -3.2 -17.85 0.0 -17.85 4.05 -17.75 7.0 -16.75 10.75 -15.45 13.8 -12.65 16.9 -9.75 18.3 -6.45 19.5 -3.5 19.55 -0.2 19.55 3.4 18.35 6.35 16.9 9.8 13.8 12.6 L12.85 13.45 Q9.7 16.0 5.9 17.05 3.15 17.85 0.0 17.85 -3.8 17.75 -6.5 16.9 -10.35 15.65 -13.55 12.9 -16.8 9.9 -18.25 6.6 -19.55 3.55 -19.55 0.0 L-19.55 0.0" fill="none" stroke="#000000" stroke-linecap="round" stroke-linejoin="round" stroke-width="2.0">
      <animate attributeName="stroke" dur="2s" repeatCount="indefinite" values="#000000;#000001"/>
      <animate attributeName="stroke-width" dur="2s" repeatCount="indefinite" values="2.0;2.0"/>
      <animate attributeName="fill-opacity" dur="2s" repeatCount="indefinite" values="1.0;1.0"/>
      <animate attributeName="d" dur="2s" repeatCount="indefinite" values="M-19.55 0.0 Q-19.55 -3.3 -18.4 -6.2 -17.0 -9.75 -13.85 -12.65 -10.0 -15.9 -6.05 -17.05 -3.2 -17.85 0.0 -17.85 4.05 -17.75 7.0 -16.75 10.75 -15.45 13.8 -12.65 16.9 -9.75 18.3 -6.45 19.5 -3.5 19.55 -0.2 19.55 3.4 18.35 6.35 16.9 9.8 13.8 12.6 L12.85 13.45 Q9.7 16.0 5.9 17.05 3.15 17.85 0.0 17.85 -3.8 17.75 -6.5 16.9 -10.35 15.65 -13.55 12.9 -16.8 9.9 -18.25 6.6 -19.55 3.55 -19.55 0.0 -19.55 -3.3 -18.4 -6.2 -17.0 -9.75 -13.85 -12.65 -10.0 -15.9 -6.05 -17.05 -3.2 -17.85 0.0 -17.85 4.05 -17.75 7.0 -16.75 10.75 -15.45 13.8 -12.65 16.9 -9.75 18.3 -6.45 19.5 -3.5 19.55 -0.2 19.55 3.4 18.35 6.35 16.9 9.8 13.8 12.6 L12.85 13.45 Q9.7 16.0 5.9 17.05 3.15 17.85 0.0 17.85 -3.8 17.75 -6.5 16.9 -10.35 15.65 -13.55 12.9 -16.8 9.9 -18.25 6.6 -19.55 3.55 -19.55 0.0 L-19.55 0.0;M-13.85 -12.65 Q-11.8 -14.5 -7.6 -10.3 -3.4 -6.05 -1.0 -5.45 2.2 -5.35 7.4 -10.3 11.1 -13.9 13.15 -13.05 15.9 -10.75 11.85 -6.6 7.4 -2.0 7.1 0.2 7.05 2.75 11.85 7.1 15.85 10.75 13.8 12.6 11.7 14.45 7.25 10.4 3.15 6.7 0.75 5.85 L-0.5 5.6 Q-2.9 5.6 -7.75 10.4 -11.05 13.7 -13.0 13.1 -15.85 10.75 -11.75 7.2 -6.8 2.95 -6.8 0.7 -7.05 -1.7 -11.75 -6.5 -15.75 -10.6 -13.95 -12.55 -11.8 -14.5 -7.6 -10.3 -3.4 -6.05 -1.0 -5.45 2.2 -5.35 7.4 -10.3 11.1 -13.9 13.15 -13.05 15.9 -10.75 11.85 -6.6 7.4 -2.0 7.1 0.2 7.05 2.75 11.85 7.1 15.85 10.75 13.8 12.6 11.7 14.45 7.25 10.4 3.15 6.7 0.75 5.85 L-0.5 5.6 Q-2.9 5.6 -7.75 10.4 -11.05 13.7 -13.0 13.1 -15.85 10.75 -11.75 7.2 -6.8 2.95 -6.8 0.7 -7.05 -1.7 -11.75 -6.5 -15.75 -10.6 -13.95 -12.55 L-13.85 -12.65"/>
    </path>
  </g>
  <defs>
    <radialGradient cx="0" cy="0" gradientTransform="matrix(0.0376, -0.0184, 0.0125, 0.0257, 5.1, 4.25)" gradientUnits="userSpaceOnUse" id="gradient0" r="819.2" spreadMethod="pad">
      <animateTransform additive="replace" attributeName="gradientTransform" dur="2s" from="1" repeatCount="indefinite" to="1" type="scale"/>
      <animateTransform additive="sum" attributeName="gradientTransform" dur="2s" from="5.1 4.25" repeatCount="indefinite" to="5.1 4.25" type="translate"/>
      <animateTransform additive="sum" attributeName="gradientTransform" dur="2s" from="-26.0326" repeatCount="indefinite" to="-26.0326" type="rotate"/>
      <animateTransform additive="sum" attributeName="gradientTransform" dur="2s" from="0.0419 0.0285" repeatCount="indefinite" to="0.0419 0.0285" type="scale"/>
      <animateTransform additive="sum" attributeName="gradientTransform" dur="2s" from="-0.0012" repeatCount="indefinite" to="-0.0012" type="skewX"/>
      <stop offset="0.0" stop-color="#0d2f93">
        <animate attributeName="offset" dur="2s" repeatCount="indefinite" values="0.0;0.0"/>
        <animate attributeName="stop-color" dur="2s" repeatCount="indefinite" values="#0d2f93;#0d2f94"/>
        <animate attributeName="stop-opacity" dur="2s" repeatCount="indefinite" values="1.0;1.0"/>
      </stop>
      <stop offset="0.5764705882352941" stop-color="#358bf4">
        <animate attributeName="offset" dur="2s" repeatCount="indefinite" values="0.5764705882352941;0.5764705882352941"/>
        <animate attributeName="stop-color" dur="2s" repeatCount="indefinite" values="#358bf4;#358bf5"/>
        <animate attributeName="stop-opacity" dur="2s" repeatCount="indefinite" values="1.0;1.0"/>
      </stop>
      <stop offset="1.0" stop-color="#ffffff">
        <animate attributeName="offset" dur="2s" repeatCount="indefinite" values="1.0;1.0"/>
        <animate attributeName="stop-color" dur="2s" repeatCount="indefinite" values="#ffffff;#ffffff"/>
        <animate attributeName="stop-opacity" dur="2s" repeatCount="indefinite" values="1.0;1.0"/>
      </stop>
    </radialGradient>
  </defs>
</svg>
