<?xml version="1.0" encoding="UTF-8" standalone="no"?>
<svg xmlns:xlink="http://www.w3.org/1999/xlink" height="28.4px" width="31.0px" xmlns="http://www.w3.org/2000/svg">
  <g transform="matrix(1.0, 0.0, 0.0, 1.0, 15.55, 14.2)">
    <path d="M-13.85 -12.65 L-13.85 -12.65 Q-15.9 -10.75 -11.75 -6.5 -6.8 -1.45 -6.8 0.7 L-6.8 0.8 Q-6.95 3.1 -11.75 7.2 -15.85 10.75 -13.85 12.6 -13.25 13.15 -12.45 13.2 -10.6 13.25 -7.75 10.4 -2.9 5.6 -0.5 5.6 L1.0 5.95 Q3.35 6.9 7.25 10.4 11.75 14.5 13.8 12.6 15.8 10.7 11.85 7.1 7.05 2.75 7.2 -0.35 7.9 -2.55 11.85 -6.6 15.9 -10.75 12.5 -13.2 10.55 -13.35 7.4 -10.3 2.2 -5.35 -1.1 -5.5 -3.5 -6.15 -7.6 -10.3 -11.8 -14.5 -13.85 -12.65" fill="url(#gradient0)" fill-rule="evenodd" stroke="none">
      <animate attributeName="d" dur="2s" repeatCount="indefinite" values="M-13.85 -12.65 L-13.85 -12.65 Q-15.9 -10.75 -11.75 -6.5 -6.8 -1.45 -6.8 0.7 L-6.8 0.8 Q-6.95 3.1 -11.75 7.2 -15.85 10.75 -13.85 12.6 -13.25 13.15 -12.45 13.2 -10.6 13.25 -7.75 10.4 -2.9 5.6 -0.5 5.6 L1.0 5.95 Q3.35 6.9 7.25 10.4 11.75 14.5 13.8 12.6 15.8 10.7 11.85 7.1 7.05 2.75 7.2 -0.35 7.9 -2.55 11.85 -6.6 15.9 -10.75 12.5 -13.2 10.55 -13.35 7.4 -10.3 2.2 -5.35 -1.1 -5.5 -3.5 -6.15 -7.6 -10.3 -11.8 -14.5 -13.85 -12.65;M-9.75 0.0 L-9.75 0.1 Q-9.75 1.85 -9.05 3.35 -8.35 4.95 -6.9 6.3 L-6.9 6.3 Q-5.4 7.75 -3.5 8.4 -2.05 8.7 -0.65 8.95 -0.3 8.95 0.0 8.95 1.45 8.75 2.9 8.55 4.75 8.05 6.3 6.85 L6.9 6.3 Q8.45 4.95 9.15 3.25 9.8 1.75 9.8 0.0 9.8 -1.65 9.25 -3.05 8.6 -4.65 6.9 -6.3 5.45 -7.6 3.7 -8.25 1.85 -8.6 0.0 -8.9 -1.55 -8.7 -3.05 -8.5 -5.0 -7.95 -6.9 -6.3 -8.45 -4.85 -9.15 -3.1 -9.75 -1.65 -9.75 0.0"/>
    </path>
    <path d="M-13.85 -12.65 Q-11.8 -14.5 -7.6 -10.3 -3.5 -6.15 -1.1 -5.5 2.2 -5.35 7.4 -10.3 10.55 -13.35 12.5 -13.2 15.9 -10.75 11.85 -6.6 7.9 -2.55 7.2 -0.35 7.05 2.75 11.85 7.1 15.8 10.7 13.8 12.6 11.75 14.5 7.25 10.4 3.35 6.9 1.0 5.95 L-0.5 5.6 Q-2.9 5.6 -7.75 10.4 -10.6 13.25 -12.45 13.2 -13.25 13.15 -13.85 12.6 -15.85 10.75 -11.75 7.2 -6.95 3.1 -6.8 0.8 L-6.8 0.7 Q-6.8 -1.45 -11.75 -6.5 -15.9 -10.75 -13.85 -12.65 -11.8 -14.5 -7.6 -10.3 -3.5 -6.15 -1.1 -5.5 2.2 -5.35 7.4 -10.3 10.55 -13.35 12.5 -13.2 15.9 -10.75 11.85 -6.6 7.9 -2.55 7.2 -0.35 7.05 2.75 11.85 7.1 15.8 10.7 13.8 12.6 11.75 14.5 7.25 10.4 3.35 6.9 1.0 5.95 L-0.5 5.6 Q-2.9 5.6 -7.75 10.4 -10.6 13.25 -12.45 13.2 -13.25 13.15 -13.85 12.6 -15.85 10.75 -11.75 7.2 -6.95 3.1 -6.8 0.8 L-6.8 0.7 Q-6.8 -1.45 -11.75 -6.5 -15.9 -10.75 -13.85 -12.65 L-13.85 -12.65" fill="none" stroke="#000000" stroke-linecap="round" stroke-linejoin="round" stroke-width="2.0">
      <animate attributeName="stroke" dur="2s" repeatCount="indefinite" values="#000000;#000001"/>
      <animate attributeName="stroke-width" dur="2s" repeatCount="indefinite" values="2.0;2.0"/>
      <animate attributeName="fill-opacity" dur="2s" repeatCount="indefinite" values="1.0;1.0"/>
      <animate attributeName="d" dur="2s" repeatCount="indefinite" values="M-13.85 -12.65 Q-11.8 -14.5 -7.6 -10.3 -3.5 -6.15 -1.1 -5.5 2.2 -5.35 7.4 -10.3 10.55 -13.35 12.5 -13.2 15.9 -10.75 11.85 -6.6 7.9 -2.55 7.2 -0.35 7.05 2.75 11.85 7.1 15.8 10.7 13.8 12.6 11.75 14.5 7.25 10.4 3.35 6.9 1.0 5.95 L-0.5 5.6 Q-2.9 5.6 -7.75 10.4 -10.6 13.25 -12.45 13.2 -13.25 13.15 -13.85 12.6 -15.85 10.75 -11.75 7.2 -6.95 3.1 -6.8 0.8 L-6.8 0.7 Q-6.8 -1.45 -11.75 -6.5 -15.9 -10.75 -13.85 -12.65 -11.8 -14.5 -7.6 -10.3 -3.5 -6.15 -1.1 -5.5 2.2 -5.35 7.4 -10.3 10.55 -13.35 12.5 -13.2 15.9 -10.75 11.85 -6.6 7.9 -2.55 7.2 -0.35 7.05 2.75 11.85 7.1 15.8 10.7 13.8 12.6 11.75 14.5 7.25 10.4 3.35 6.9 1.0 5.95 L-0.5 5.6 Q-2.9 5.6 -7.75 10.4 -10.6 13.25 -12.45 13.2 -13.25 13.15 -13.85 12.6 -15.85 10.75 -11.75 7.2 -6.95 3.1 -6.8 0.8 L-6.8 0.7 Q-6.8 -1.45 -11.75 -6.5 -15.9 -10.75 -13.85 -12.65 L-13.85 -12.65;M-9.75 0.0 Q-9.75 -1.65 -9.15 -3.1 -8.45 -4.85 -6.9 -6.3 -5.0 -7.95 -3.05 -8.5 -1.55 -8.7 0.0 -8.9 1.85 -8.6 3.7 -8.25 5.45 -7.6 6.9 -6.3 8.6 -4.65 9.25 -3.05 9.8 -1.65 9.8 0.0 9.8 1.75 9.15 3.25 8.45 4.95 6.9 6.3 L6.3 6.85 Q4.75 8.05 2.9 8.55 1.45 8.75 0.0 8.95 -0.3 8.95 -0.65 8.95 -2.05 8.7 -3.5 8.4 -5.4 7.75 -6.9 6.3 L-6.9 6.3 Q-8.35 4.95 -9.05 3.35 -9.75 1.85 -9.75 0.1 -9.75 -1.65 -9.15 -3.1 -8.45 -4.85 -6.9 -6.3 -5.0 -7.95 -3.05 -8.5 -1.55 -8.7 0.0 -8.9 1.85 -8.6 3.7 -8.25 5.45 -7.6 6.9 -6.3 8.6 -4.65 9.25 -3.05 9.8 -1.65 9.8 0.0 9.8 1.75 9.15 3.25 8.45 4.95 6.9 6.3 L6.3 6.85 Q4.75 8.05 2.9 8.55 1.45 8.75 0.0 8.95 -0.3 8.95 -0.65 8.95 -2.05 8.7 -3.5 8.4 -5.4 7.75 -6.9 6.3 L-6.9 6.3 Q-8.35 4.95 -9.05 3.35 -9.75 1.85 -9.75 0.1 L-9.75 0.0"/>
    </path>
  </g>
  <defs>
    <radialGradient cx="0" cy="0" gradientTransform="matrix(0.0376, -0.0184, 0.0125, 0.0257, 5.1, 4.25)" gradientUnits="userSpaceOnUse" id="gradient0" r="819.2" spreadMethod="pad">
      <animateTransform additive="replace" attributeName="gradientTransform" dur="2s" from="1" repeatCount="indefinite" to="1" type="scale"/>
      <animateTransform additive="sum" attributeName="gradientTransform" dur="2s" from="5.1 4.25" repeatCount="indefinite" to="2.55 2.15" type="translate"/>
      <animateTransform additive="sum" attributeName="gradientTransform" dur="2s" from="-26.0326" repeatCount="indefinite" to="-26.0235" type="rotate"/>
      <animateTransform additive="sum" attributeName="gradientTransform" dur="2s" from="0.0419 0.0285" repeatCount="indefinite" to="0.0209 0.0143" type="scale"/>
      <animateTransform additive="sum" attributeName="gradientTransform" dur="2s" from="-0.0012" repeatCount="indefinite" to="0.0146" type="skewX"/>
      <stop offset="0.0" stop-color="#0d2f93">
        <animate attributeName="offset" dur="2s" repeatCount="indefinite" values="0.0;0.0"/>
        <animate attributeName="stop-color" dur="2s" repeatCount="indefinite" values="#0d2f93;#0d2f94"/>
        <animate attributeName="stop-opacity" dur="2s" repeatCount="indefinite" values="1.0;1.0"/>
      </stop>
      <stop offset="0.5764705882352941" stop-color="#358bf4">
        <animate attributeName="offset" dur="2s" repeatCount="indefinite" values="0.5764705882352941;0.5764705882352941"/>
        <animate attributeName="stop-color" dur="2s" repeatCount="indefinite" values="#358bf4;#358bf5"/>
        <animate attributeName="stop-opacity" dur="2s" repeatCount="indefinite" values="1.0;1.0"/>
      </stop>
      <stop offset="1.0" stop-color="#ffffff">
        <animate attributeName="offset" dur="2s" repeatCount="indefinite" values="1.0;1.0"/>
        <animate attributeName="stop-color" dur="2s" repeatCount="indefinite" values="#ffffff;#ffffff"/>
        <animate attributeName="stop-opacity" dur="2s" repeatCount="indefinite" values="1.0;1.0"/>
      </stop>
    </radialGradient>
  </defs>
</svg>
