<?xml version="1.0" encoding="UTF-8" standalone="no"?>
<svg xmlns:xlink="http://www.w3.org/1999/xlink" height="28.6px" width="29.15px" xmlns="http://www.w3.org/2000/svg">
  <g transform="matrix(1.0, 0.0, 0.0, 1.0, 14.55, 14.25)">
    <path d="M-11.5 0.0 Q-11.5 2.8 -10.85 5.0 -10.1 7.65 -8.45 9.4 L-8.05 9.8 Q-4.65 12.9 0.1 12.9 4.8 12.9 8.85 9.15 11.45 6.15 11.5 0.0 11.5 -5.85 8.1 -9.6 4.75 -12.65 0.0 -12.65 -4.8 -12.65 -8.65 -9.1 -10.25 -7.4 -10.95 -4.75 -11.5 -2.65 -11.5 0.0" fill="url(#gradient0)" fill-rule="evenodd" stroke="none">
      <animate attributeName="d" dur="2s" repeatCount="indefinite" values="M-11.5 0.0 Q-11.5 2.8 -10.85 5.0 -10.1 7.65 -8.45 9.4 L-8.05 9.8 Q-4.65 12.9 0.1 12.9 4.8 12.9 8.85 9.15 11.45 6.15 11.5 0.0 11.5 -5.85 8.1 -9.6 4.75 -12.65 0.0 -12.65 -4.8 -12.65 -8.65 -9.1 -10.25 -7.4 -10.95 -4.75 -11.5 -2.65 -11.5 0.0;M-13.55 0.2 Q-13.55 2.7 -12.65 5.65 -11.65 9.05 -10.1 10.45 L-9.6 10.85 Q-6.4 13.35 0.1 13.35 6.4 13.35 10.3 10.5 13.6 7.5 13.6 0.1 13.55 -7.0 9.55 -10.6 6.05 -13.25 0.1 -13.25 -5.95 -13.25 -10.1 -10.0 -11.65 -8.6 -12.65 -5.2 -13.55 -2.3 -13.55 0.2"/>
    </path>
    <path d="M-11.5 0.0 Q-11.5 -2.65 -10.95 -4.75 -10.25 -7.4 -8.65 -9.1 -4.8 -12.65 0.0 -12.65 4.75 -12.65 8.1 -9.6 11.5 -5.85 11.5 0.0 11.45 6.15 8.85 9.15 4.8 12.9 0.1 12.9 -4.65 12.9 -8.05 9.8 L-8.45 9.4 Q-10.1 7.65 -10.85 5.0 -11.5 2.8 -11.5 0.0 -11.5 -2.65 -10.95 -4.75 -10.25 -7.4 -8.65 -9.1 -4.8 -12.65 0.0 -12.65 4.75 -12.65 8.1 -9.6 11.5 -5.85 11.5 0.0 11.45 6.15 8.85 9.15 4.8 12.9 0.1 12.9 -4.65 12.9 -8.05 9.8 L-8.45 9.4 Q-10.1 7.65 -10.85 5.0 -11.5 2.8 -11.5 0.0" fill="none" stroke="#000000" stroke-linecap="round" stroke-linejoin="round" stroke-width="2.0">
      <animate attributeName="stroke" dur="2s" repeatCount="indefinite" values="#000000;#000001"/>
      <animate attributeName="stroke-width" dur="2s" repeatCount="indefinite" values="2.0;2.0"/>
      <animate attributeName="fill-opacity" dur="2s" repeatCount="indefinite" values="1.0;1.0"/>
      <animate attributeName="d" dur="2s" repeatCount="indefinite" values="M-11.5 0.0 Q-11.5 -2.65 -10.95 -4.75 -10.25 -7.4 -8.65 -9.1 -4.8 -12.65 0.0 -12.65 4.75 -12.65 8.1 -9.6 11.5 -5.85 11.5 0.0 11.45 6.15 8.85 9.15 4.8 12.9 0.1 12.9 -4.65 12.9 -8.05 9.8 L-8.45 9.4 Q-10.1 7.65 -10.85 5.0 -11.5 2.8 -11.5 0.0 -11.5 -2.65 -10.95 -4.75 -10.25 -7.4 -8.65 -9.1 -4.8 -12.65 0.0 -12.65 4.75 -12.65 8.1 -9.6 11.5 -5.85 11.5 0.0 11.45 6.15 8.85 9.15 4.8 12.9 0.1 12.9 -4.65 12.9 -8.05 9.8 L-8.45 9.4 Q-10.1 7.65 -10.85 5.0 -11.5 2.8 -11.5 0.0;M-13.55 0.2 Q-13.55 -2.3 -12.65 -5.2 -11.65 -8.6 -10.1 -10.0 -5.95 -13.25 0.1 -13.25 6.05 -13.25 9.55 -10.6 13.55 -7.0 13.6 0.1 13.6 7.5 10.3 10.5 6.4 13.35 0.1 13.35 -6.4 13.35 -9.6 10.85 L-10.1 10.45 Q-11.65 9.05 -12.65 5.65 -13.55 2.7 -13.55 0.2 -13.55 -2.3 -12.65 -5.2 -11.65 -8.6 -10.1 -10.0 -5.95 -13.25 0.1 -13.25 6.05 -13.25 9.55 -10.6 13.55 -7.0 13.6 0.1 13.6 7.5 10.3 10.5 6.4 13.35 0.1 13.35 -6.4 13.35 -9.6 10.85 L-10.1 10.45 Q-11.65 9.05 -12.65 5.65 -13.55 2.7 -13.55 0.2"/>
    </path>
  </g>
  <defs>
    <radialGradient cx="0" cy="0" gradientTransform="matrix(0.0221, -0.0108, 0.0074, 0.0151, 3.0, 2.5)" gradientUnits="userSpaceOnUse" id="gradient0" r="819.2" spreadMethod="pad">
      <animateTransform additive="replace" attributeName="gradientTransform" dur="2s" from="1" repeatCount="indefinite" to="1" type="scale"/>
      <animateTransform additive="sum" attributeName="gradientTransform" dur="2s" from="3.0 2.5" repeatCount="indefinite" to="3.0 2.5" type="translate"/>
      <animateTransform additive="sum" attributeName="gradientTransform" dur="2s" from="-26.0251" repeatCount="indefinite" to="-26.0251" type="rotate"/>
      <animateTransform additive="sum" attributeName="gradientTransform" dur="2s" from="0.0246 0.0168" repeatCount="indefinite" to="0.0246 0.0168" type="scale"/>
      <animateTransform additive="sum" attributeName="gradientTransform" dur="2s" from="0.003" repeatCount="indefinite" to="0.003" type="skewX"/>
      <stop offset="0.0" stop-color="#000000">
        <animate attributeName="offset" dur="2s" repeatCount="indefinite" values="0.0;0.0"/>
        <animate attributeName="stop-color" dur="2s" repeatCount="indefinite" values="#000000;#000001"/>
        <animate attributeName="stop-opacity" dur="2s" repeatCount="indefinite" values="1.0;1.0"/>
      </stop>
      <stop offset="0.5764705882352941" stop-color="#777777">
        <animate attributeName="offset" dur="2s" repeatCount="indefinite" values="0.5764705882352941;0.5764705882352941"/>
        <animate attributeName="stop-color" dur="2s" repeatCount="indefinite" values="#777777;#777778"/>
        <animate attributeName="stop-opacity" dur="2s" repeatCount="indefinite" values="1.0;1.0"/>
      </stop>
      <stop offset="1.0" stop-color="#ffffff">
        <animate attributeName="offset" dur="2s" repeatCount="indefinite" values="1.0;1.0"/>
        <animate attributeName="stop-color" dur="2s" repeatCount="indefinite" values="#ffffff;#ffffff"/>
        <animate attributeName="stop-opacity" dur="2s" repeatCount="indefinite" values="1.0;1.0"/>
      </stop>
    </radialGradient>
  </defs>
</svg>
