<?xml version="1.0" encoding="UTF-8" standalone="no"?>
<svg xmlns:xlink="http://www.w3.org/1999/xlink" height="28.6px" width="30.05px" xmlns="http://www.w3.org/2000/svg">
  <g transform="matrix(1.0, 0.0, 0.0, 1.0, 14.65, 14.25)">
    <path d="M-13.55 0.2 L-13.55 0.3 Q-13.55 2.75 -12.65 5.65 -12.05 7.7 -11.25 9.05 L-10.1 10.45 Q-6.95 13.3 0.1 13.35 7.15 13.35 10.3 10.5 L11.5 9.1 Q13.55 6.1 13.6 0.25 13.6 -5.5 11.45 -8.6 L10.3 -9.95 Q6.7 -13.25 -0.2 -13.25 -6.65 -13.15 -11.1 -8.85 -12.0 -7.45 -12.65 -5.2 -13.55 -2.3 -13.55 0.2" fill="url(#gradient0)" fill-rule="evenodd" stroke="none">
      <animate attributeName="d" dur="2s" repeatCount="indefinite" values="M-13.55 0.2 L-13.55 0.3 Q-13.55 2.75 -12.65 5.65 -12.05 7.7 -11.25 9.05 L-10.1 10.45 Q-6.95 13.3 0.1 13.35 7.15 13.35 10.3 10.5 L11.5 9.1 Q13.55 6.1 13.6 0.25 13.6 -5.5 11.45 -8.6 L10.3 -9.95 Q6.7 -13.25 -0.2 -13.25 -6.65 -13.15 -11.1 -8.85 -12.0 -7.45 -12.65 -5.2 -13.55 -2.3 -13.55 0.2;M-13.65 0.0 L-13.65 0.0 Q-13.65 2.65 -12.4 4.85 -11.35 6.15 -10.3 7.4 L-8.9 8.45 Q-5.6 10.5 0.3 10.5 6.45 10.45 9.8 8.3 L11.0 7.4 Q14.4 4.3 14.4 -0.1 14.35 -4.4 11.0 -7.45 L9.8 -8.35 Q6.5 -10.45 0.0 -10.5 -5.85 -10.5 -10.3 -7.45 -11.75 -6.15 -12.55 -4.6 -13.65 -2.5 -13.65 0.0"/>
    </path>
    <path d="M-13.55 0.2 Q-13.55 -2.3 -12.65 -5.2 -12.0 -7.45 -11.1 -8.85 -6.65 -13.15 -0.2 -13.25 6.7 -13.25 10.3 -9.95 L11.45 -8.6 Q13.6 -5.5 13.6 0.25 13.55 6.1 11.5 9.1 L10.3 10.5 Q7.15 13.35 0.1 13.35 -6.95 13.3 -10.1 10.45 L-11.25 9.05 Q-12.05 7.7 -12.65 5.65 -13.55 2.75 -13.55 0.3 M-13.55 0.2 Q-13.55 -2.3 -12.65 -5.2 -12.0 -7.45 -11.1 -8.85 -6.65 -13.15 -0.2 -13.25 6.7 -13.25 10.3 -9.95 L11.45 -8.6 Q13.6 -5.5 13.6 0.25 13.55 6.1 11.5 9.1 L10.3 10.5 Q7.15 13.35 0.1 13.35 -6.95 13.3 -10.1 10.45 L-11.25 9.05 Q-12.05 7.7 -12.65 5.65 -13.55 2.75 -13.55 0.3 L-13.55 0.2" fill="none" stroke="#000000" stroke-linecap="round" stroke-linejoin="round" stroke-width="2.0">
      <animate attributeName="stroke" dur="2s" repeatCount="indefinite" values="#000000;#000001"/>
      <animate attributeName="stroke-width" dur="2s" repeatCount="indefinite" values="2.0;2.0"/>
      <animate attributeName="fill-opacity" dur="2s" repeatCount="indefinite" values="1.0;1.0"/>
      <animate attributeName="d" dur="2s" repeatCount="indefinite" values="M-13.55 0.2 Q-13.55 -2.3 -12.65 -5.2 -12.0 -7.45 -11.1 -8.85 -6.65 -13.15 -0.2 -13.25 6.7 -13.25 10.3 -9.95 L11.45 -8.6 Q13.6 -5.5 13.6 0.25 13.55 6.1 11.5 9.1 L10.3 10.5 Q7.15 13.35 0.1 13.35 -6.95 13.3 -10.1 10.45 L-11.25 9.05 Q-12.05 7.7 -12.65 5.65 -13.55 2.75 -13.55 0.3 M-13.55 0.2 Q-13.55 -2.3 -12.65 -5.2 -12.0 -7.45 -11.1 -8.85 -6.65 -13.15 -0.2 -13.25 6.7 -13.25 10.3 -9.95 L11.45 -8.6 Q13.6 -5.5 13.6 0.25 13.55 6.1 11.5 9.1 L10.3 10.5 Q7.15 13.35 0.1 13.35 -6.95 13.3 -10.1 10.45 L-11.25 9.05 Q-12.05 7.7 -12.65 5.65 -13.55 2.75 -13.55 0.3 L-13.55 0.2;M-13.65 0.0 Q-13.65 -2.5 -12.55 -4.6 -11.75 -6.15 -10.3 -7.45 -5.85 -10.5 0.0 -10.5 6.5 -10.45 9.8 -8.35 L11.0 -7.45 Q14.35 -4.4 14.4 -0.1 14.4 4.3 11.0 7.4 L9.8 8.3 Q6.45 10.45 0.3 10.5 -5.6 10.5 -8.9 8.45 L-10.3 7.4 Q-11.35 6.15 -12.4 4.85 -13.65 2.65 -13.65 0.0 M-13.65 0.0 Q-13.65 -2.5 -12.55 -4.6 -11.75 -6.15 -10.3 -7.45 -5.85 -10.5 0.0 -10.5 6.5 -10.45 9.8 -8.35 L11.0 -7.45 Q14.35 -4.4 14.4 -0.1 14.4 4.3 11.0 7.4 L9.8 8.3 Q6.45 10.45 0.3 10.5 -5.6 10.5 -8.9 8.45 L-10.3 7.4 Q-11.35 6.15 -12.4 4.85 -13.65 2.65 -13.65 0.0 L-13.65 0.0"/>
    </path>
  </g>
  <defs>
    <radialGradient cx="0" cy="0" gradientTransform="matrix(0.0221, -0.0108, 0.0074, 0.0151, 3.0, 2.5)" gradientUnits="userSpaceOnUse" id="gradient0" r="819.2" spreadMethod="pad">
      <animateTransform additive="replace" attributeName="gradientTransform" dur="2s" from="1" repeatCount="indefinite" to="1" type="scale"/>
      <animateTransform additive="sum" attributeName="gradientTransform" dur="2s" from="3.0 2.5" repeatCount="indefinite" to="3.0 2.5" type="translate"/>
      <animateTransform additive="sum" attributeName="gradientTransform" dur="2s" from="-26.0251" repeatCount="indefinite" to="-26.0251" type="rotate"/>
      <animateTransform additive="sum" attributeName="gradientTransform" dur="2s" from="0.0246 0.0168" repeatCount="indefinite" to="0.0246 0.0168" type="scale"/>
      <animateTransform additive="sum" attributeName="gradientTransform" dur="2s" from="0.003" repeatCount="indefinite" to="0.003" type="skewX"/>
      <stop offset="0.0" stop-color="#000000">
        <animate attributeName="offset" dur="2s" repeatCount="indefinite" values="0.0;0.0"/>
        <animate attributeName="stop-color" dur="2s" repeatCount="indefinite" values="#000000;#000001"/>
        <animate attributeName="stop-opacity" dur="2s" repeatCount="indefinite" values="1.0;1.0"/>
      </stop>
      <stop offset="0.5764705882352941" stop-color="#777777">
        <animate attributeName="offset" dur="2s" repeatCount="indefinite" values="0.5764705882352941;0.5764705882352941"/>
        <animate attributeName="stop-color" dur="2s" repeatCount="indefinite" values="#777777;#777778"/>
        <animate attributeName="stop-opacity" dur="2s" repeatCount="indefinite" values="1.0;1.0"/>
      </stop>
      <stop offset="1.0" stop-color="#ffffff">
        <animate attributeName="offset" dur="2s" repeatCount="indefinite" values="1.0;1.0"/>
        <animate attributeName="stop-color" dur="2s" repeatCount="indefinite" values="#ffffff;#ffffff"/>
        <animate attributeName="stop-opacity" dur="2s" repeatCount="indefinite" values="1.0;1.0"/>
      </stop>
    </radialGradient>
  </defs>
</svg>
