<?xml version="1.0" encoding="UTF-8" standalone="no"?>
<svg xmlns:xlink="http://www.w3.org/1999/xlink" height="49.5px" width="53.7px" xmlns="http://www.w3.org/2000/svg">
  <g transform="matrix(1.0, 0.0, 0.0, 1.0, 26.6, 25.0)">
    <path d="M-19.55 0.0 Q-19.55 3.8 -18.05 7.0 -17.15 8.95 -15.7 10.7 L-13.85 12.6 -12.85 13.45 Q-11.85 14.15 -10.9 14.8 L-8.1 16.25 Q-4.75 17.7 -0.85 17.85 L0.0 17.85 Q3.35 17.85 6.3 16.95 9.3 16.0 11.85 14.15 13.15 13.1 14.4 12.1 16.35 10.2 17.55 8.05 19.25 4.95 19.5 1.3 L19.55 0.0 Q19.55 -3.15 18.55 -5.9 17.7 -8.1 16.2 -10.05 15.0 -11.35 13.8 -12.65 12.3 -13.8 10.8 -14.9 9.45 -15.6 8.1 -16.3 4.5 -17.8 0.0 -17.85 -3.8 -17.85 -7.1 -16.7 -8.55 -16.05 -10.0 -15.45 -11.8 -14.45 -13.85 -12.65 L-15.75 -10.6 Q-17.25 -8.8 -18.2 -6.7 -19.55 -3.6 -19.55 0.0" fill="url(#gradient0)" fill-rule="evenodd" stroke="none">
      <animate attributeName="d" dur="2s" repeatCount="indefinite" values="M-19.55 0.0 Q-19.55 3.8 -18.05 7.0 -17.15 8.95 -15.7 10.7 L-13.85 12.6 -12.85 13.45 Q-11.85 14.15 -10.9 14.8 L-8.1 16.25 Q-4.75 17.7 -0.85 17.85 L0.0 17.85 Q3.35 17.85 6.3 16.95 9.3 16.0 11.85 14.15 13.15 13.1 14.4 12.1 16.35 10.2 17.55 8.05 19.25 4.95 19.5 1.3 L19.55 0.0 Q19.55 -3.15 18.55 -5.9 17.7 -8.1 16.2 -10.05 15.0 -11.35 13.8 -12.65 12.3 -13.8 10.8 -14.9 9.45 -15.6 8.1 -16.3 4.5 -17.8 0.0 -17.85 -3.8 -17.85 -7.1 -16.7 -8.55 -16.05 -10.0 -15.45 -11.8 -14.45 -13.85 -12.65 L-15.75 -10.6 Q-17.25 -8.8 -18.2 -6.7 -19.55 -3.6 -19.55 0.0;M-25.6 0.15 Q-25.6 5.65 -22.3 8.45 -20.3 9.95 -17.2 11.1 L-13.75 12.4 -12.4 12.9 Q-11.7 13.5 -10.85 15.35 L-8.7 19.4 Q-5.25 23.6 0.0 23.5 L1.2 23.45 Q5.3 22.9 7.85 19.0 10.5 13.65 12.4 11.9 12.8 11.55 16.6 10.75 20.55 9.95 22.65 8.45 26.1 5.7 26.1 0.15 L26.0 -1.55 Q25.55 -6.0 22.65 -8.4 20.5 -9.95 16.85 -10.65 13.35 -11.3 12.5 -12.25 11.35 -13.9 10.85 -16.8 10.25 -20.15 9.6 -20.8 6.55 -24.0 -0.3 -24.0 -6.0 -23.9 -9.1 -20.65 -9.75 -20.0 -10.4 -16.8 -11.05 -13.6 -13.15 -11.6 L-16.55 -10.65 Q-20.25 -9.8 -22.3 -8.25 -25.6 -5.35 -25.6 0.15"/>
    </path>
    <path d="M-19.55 0.0 Q-19.55 -3.6 -18.2 -6.7 -17.25 -8.8 -15.75 -10.6 L-13.85 -12.65 Q-11.8 -14.45 -10.0 -15.45 -8.55 -16.05 -7.1 -16.7 -3.8 -17.85 0.0 -17.85 4.5 -17.8 8.1 -16.3 9.45 -15.6 10.8 -14.9 12.3 -13.8 13.8 -12.65 15.0 -11.35 16.2 -10.05 17.7 -8.1 18.55 -5.9 19.55 -3.15 19.55 0.0 L19.5 1.3 Q19.25 4.95 17.55 8.05 16.35 10.2 14.4 12.1 13.15 13.1 11.85 14.15 9.3 16.0 6.3 16.95 3.35 17.85 0.0 17.85 L-0.85 17.85 Q-4.75 17.7 -8.1 16.25 L-10.9 14.8 Q-11.85 14.15 -12.85 13.45 L-13.85 12.6 -15.7 10.7 Q-17.15 8.95 -18.05 7.0 -19.55 3.8 -19.55 0.0 -19.55 -3.6 -18.2 -6.7 -17.25 -8.8 -15.75 -10.6 L-13.85 -12.65 Q-11.8 -14.45 -10.0 -15.45 -8.55 -16.05 -7.1 -16.7 -3.8 -17.85 0.0 -17.85 4.5 -17.8 8.1 -16.3 9.45 -15.6 10.8 -14.9 12.3 -13.8 13.8 -12.65 15.0 -11.35 16.2 -10.05 17.7 -8.1 18.55 -5.9 19.55 -3.15 19.55 0.0 L19.5 1.3 Q19.25 4.95 17.55 8.05 16.35 10.2 14.4 12.1 13.15 13.1 11.85 14.15 9.3 16.0 6.3 16.95 3.35 17.85 0.0 17.85 L-0.85 17.85 Q-4.75 17.7 -8.1 16.25 L-10.9 14.8 Q-11.85 14.15 -12.85 13.45 L-13.85 12.6 -15.7 10.7 Q-17.15 8.95 -18.05 7.0 -19.55 3.8 -19.55 0.0" fill="none" stroke="#000000" stroke-linecap="round" stroke-linejoin="round" stroke-width="2.0">
      <animate attributeName="stroke" dur="2s" repeatCount="indefinite" values="#000000;#000001"/>
      <animate attributeName="stroke-width" dur="2s" repeatCount="indefinite" values="2.0;2.0"/>
      <animate attributeName="fill-opacity" dur="2s" repeatCount="indefinite" values="1.0;1.0"/>
      <animate attributeName="d" dur="2s" repeatCount="indefinite" values="M-19.55 0.0 Q-19.55 -3.6 -18.2 -6.7 -17.25 -8.8 -15.75 -10.6 L-13.85 -12.65 Q-11.8 -14.45 -10.0 -15.45 -8.55 -16.05 -7.1 -16.7 -3.8 -17.85 0.0 -17.85 4.5 -17.8 8.1 -16.3 9.45 -15.6 10.8 -14.9 12.3 -13.8 13.8 -12.65 15.0 -11.35 16.2 -10.05 17.7 -8.1 18.55 -5.9 19.55 -3.15 19.55 0.0 L19.5 1.3 Q19.25 4.95 17.55 8.05 16.35 10.2 14.4 12.1 13.15 13.1 11.85 14.15 9.3 16.0 6.3 16.95 3.35 17.85 0.0 17.85 L-0.85 17.85 Q-4.75 17.7 -8.1 16.25 L-10.9 14.8 Q-11.85 14.15 -12.85 13.45 L-13.85 12.6 -15.7 10.7 Q-17.15 8.95 -18.05 7.0 -19.55 3.8 -19.55 0.0 -19.55 -3.6 -18.2 -6.7 -17.25 -8.8 -15.75 -10.6 L-13.85 -12.65 Q-11.8 -14.45 -10.0 -15.45 -8.55 -16.05 -7.1 -16.7 -3.8 -17.85 0.0 -17.85 4.5 -17.8 8.1 -16.3 9.45 -15.6 10.8 -14.9 12.3 -13.8 13.8 -12.65 15.0 -11.35 16.2 -10.05 17.7 -8.1 18.55 -5.9 19.55 -3.15 19.55 0.0 L19.5 1.3 Q19.25 4.95 17.55 8.05 16.35 10.2 14.4 12.1 13.15 13.1 11.85 14.15 9.3 16.0 6.3 16.95 3.35 17.85 0.0 17.85 L-0.85 17.85 Q-4.75 17.7 -8.1 16.25 L-10.9 14.8 Q-11.85 14.15 -12.85 13.45 L-13.85 12.6 -15.7 10.7 Q-17.15 8.95 -18.05 7.0 -19.55 3.8 -19.55 0.0;M-25.6 0.15 Q-25.6 -5.35 -22.3 -8.25 -20.25 -9.8 -16.55 -10.65 L-13.15 -11.6 Q-11.05 -13.6 -10.4 -16.8 -9.75 -20.0 -9.1 -20.65 -6.0 -23.9 -0.3 -24.0 6.55 -24.0 9.6 -20.8 10.25 -20.15 10.85 -16.8 11.35 -13.9 12.5 -12.25 13.35 -11.3 16.85 -10.65 20.5 -9.95 22.65 -8.4 25.55 -6.0 26.0 -1.55 L26.1 0.15 Q26.1 5.7 22.65 8.45 20.55 9.95 16.6 10.75 12.8 11.55 12.4 11.9 10.5 13.65 7.85 19.0 5.3 22.9 1.2 23.45 L0.0 23.5 Q-5.25 23.6 -8.7 19.4 L-10.85 15.35 Q-11.7 13.5 -12.4 12.9 L-13.75 12.4 -17.2 11.1 Q-20.3 9.95 -22.3 8.45 -25.6 5.65 -25.6 0.15 -25.6 -5.35 -22.3 -8.25 -20.25 -9.8 -16.55 -10.65 L-13.15 -11.6 Q-11.05 -13.6 -10.4 -16.8 -9.75 -20.0 -9.1 -20.65 -6.0 -23.9 -0.3 -24.0 6.55 -24.0 9.6 -20.8 10.25 -20.15 10.85 -16.8 11.35 -13.9 12.5 -12.25 13.35 -11.3 16.85 -10.65 20.5 -9.95 22.65 -8.4 25.55 -6.0 26.0 -1.55 L26.1 0.15 Q26.1 5.7 22.65 8.45 20.55 9.95 16.6 10.75 12.8 11.55 12.4 11.9 10.5 13.65 7.85 19.0 5.3 22.9 1.2 23.45 L0.0 23.5 Q-5.25 23.6 -8.7 19.4 L-10.85 15.35 Q-11.7 13.5 -12.4 12.9 L-13.75 12.4 -17.2 11.1 Q-20.3 9.95 -22.3 8.45 -25.6 5.65 -25.6 0.15"/>
    </path>
  </g>
  <defs>
    <radialGradient cx="0" cy="0" gradientTransform="matrix(0.0376, -0.0184, 0.0125, 0.0257, 5.1, 4.25)" gradientUnits="userSpaceOnUse" id="gradient0" r="819.2" spreadMethod="pad">
      <animateTransform additive="replace" attributeName="gradientTransform" dur="2s" from="1" repeatCount="indefinite" to="1" type="scale"/>
      <animateTransform additive="sum" attributeName="gradientTransform" dur="2s" from="5.1 4.25" repeatCount="indefinite" to="5.1 4.25" type="translate"/>
      <animateTransform additive="sum" attributeName="gradientTransform" dur="2s" from="-26.0326" repeatCount="indefinite" to="-26.0443" type="rotate"/>
      <animateTransform additive="sum" attributeName="gradientTransform" dur="2s" from="0.0419 0.0285" repeatCount="indefinite" to="0.0473 0.0323" type="scale"/>
      <animateTransform additive="sum" attributeName="gradientTransform" dur="2s" from="-0.0012" repeatCount="indefinite" to="-4.0E-4" type="skewX"/>
      <stop offset="0.0" stop-color="#0a9709">
        <animate attributeName="offset" dur="2s" repeatCount="indefinite" values="0.0;0.0"/>
        <animate attributeName="stop-color" dur="2s" repeatCount="indefinite" values="#0a9709;#0a970a"/>
        <animate attributeName="stop-opacity" dur="2s" repeatCount="indefinite" values="1.0;1.0"/>
      </stop>
      <stop offset="0.5764705882352941" stop-color="#52d862">
        <animate attributeName="offset" dur="2s" repeatCount="indefinite" values="0.5764705882352941;0.5764705882352941"/>
        <animate attributeName="stop-color" dur="2s" repeatCount="indefinite" values="#52d862;#52d863"/>
        <animate attributeName="stop-opacity" dur="2s" repeatCount="indefinite" values="1.0;1.0"/>
      </stop>
      <stop offset="1.0" stop-color="#ffffff">
        <animate attributeName="offset" dur="2s" repeatCount="indefinite" values="1.0;1.0"/>
        <animate attributeName="stop-color" dur="2s" repeatCount="indefinite" values="#ffffff;#ffffff"/>
        <animate attributeName="stop-opacity" dur="2s" repeatCount="indefinite" values="1.0;1.0"/>
      </stop>
    </radialGradient>
  </defs>
</svg>
