<?xml version="1.0" encoding="UTF-8" standalone="no"?>
<svg xmlns:xlink="http://www.w3.org/1999/xlink" height="42.05px" width="45.95px" xmlns="http://www.w3.org/2000/svg">
  <g transform="matrix(1.0, 0.0, 0.0, 1.0, 23.25, 20.5)">
    <path d="M-20.35 7.4 L-20.35 7.4 Q-24.55 12.3 -19.5 17.55 -15.95 21.25 -11.85 20.35 -10.35 20.05 -8.8 19.15 L-4.3 16.05 Q-1.75 14.4 -0.15 14.4 1.5 14.4 4.3 15.8 L7.55 17.45 9.3 18.35 Q15.55 21.3 19.0 17.35 22.3 13.6 19.65 9.15 L18.7 7.75 15.3 3.75 Q13.55 1.55 13.55 0.0 13.55 -1.55 15.55 -3.85 L19.4 -7.95 Q24.0 -13.3 19.35 -17.15 15.95 -20.0 11.3 -18.5 L9.05 -17.55 Q6.65 -16.25 4.3 -14.95 1.65 -13.55 0.0 -13.55 -1.65 -13.55 -4.05 -15.05 L-8.45 -17.85 Q-14.25 -21.2 -19.15 -17.65 -23.8 -14.3 -20.15 -8.3 L-16.7 -3.8 Q-14.85 -1.3 -14.85 0.2 -14.85 1.7 -16.75 3.75 -18.55 5.6 -20.35 7.4" fill="url(#gradient0)" fill-rule="evenodd" stroke="none">
      <animate attributeName="d" dur="2s" repeatCount="indefinite" values="M-20.35 7.4 L-20.35 7.4 Q-24.55 12.3 -19.5 17.55 -15.95 21.25 -11.85 20.35 -10.35 20.05 -8.8 19.15 L-4.3 16.05 Q-1.75 14.4 -0.15 14.4 1.5 14.4 4.3 15.8 L7.55 17.45 9.3 18.35 Q15.55 21.3 19.0 17.35 22.3 13.6 19.65 9.15 L18.7 7.75 15.3 3.75 Q13.55 1.55 13.55 0.0 13.55 -1.55 15.55 -3.85 L19.4 -7.95 Q24.0 -13.3 19.35 -17.15 15.95 -20.0 11.3 -18.5 L9.05 -17.55 Q6.65 -16.25 4.3 -14.95 1.65 -13.55 0.0 -13.55 -1.65 -13.55 -4.05 -15.05 L-8.45 -17.85 Q-14.25 -21.2 -19.15 -17.65 -23.8 -14.3 -20.15 -8.3 L-16.7 -3.8 Q-14.85 -1.3 -14.85 0.2 -14.85 1.7 -16.75 3.75 -18.55 5.6 -20.35 7.4;M-19.55 0.0 L-19.55 0.35 Q-19.45 4.55 -17.5 8.05 -16.15 10.5 -13.85 12.6 -12.8 13.45 -11.8 14.25 L-8.55 16.05 Q-7.15 16.55 -5.8 17.05 -4.15 17.4 -2.5 17.7 L0.0 17.85 1.4 17.8 Q5.3 17.6 8.6 16.1 11.4 14.8 13.8 12.6 L14.65 11.8 17.0 8.85 Q17.7 7.55 18.35 6.25 18.8 4.75 19.25 3.3 L19.55 -0.7 Q19.4 -4.65 17.6 -7.9 16.2 -10.45 13.8 -12.65 L12.6 -13.65 Q11.1 -14.85 9.45 -15.7 7.95 -16.3 6.45 -16.9 4.95 -17.25 3.45 -17.6 L-0.2 -17.85 Q-4.4 -17.8 -7.95 -16.4 -11.15 -15.1 -14.35 -12.15 L-16.85 -9.2 Q-17.6 -7.85 -18.3 -6.55 -18.75 -5.15 -19.15 -3.75 -19.55 -1.95 -19.55 0.0"/>
    </path>
    <path d="M-20.35 7.4 Q-18.55 5.6 -16.75 3.75 -14.85 1.7 -14.85 0.2 -14.85 -1.3 -16.7 -3.8 L-20.15 -8.3 Q-23.8 -14.3 -19.15 -17.65 -14.25 -21.2 -8.45 -17.85 L-4.05 -15.05 Q-1.65 -13.55 0.0 -13.55 1.65 -13.55 4.3 -14.95 6.65 -16.25 9.05 -17.55 L11.3 -18.5 Q15.95 -20.0 19.35 -17.15 24.0 -13.3 19.4 -7.95 L15.55 -3.85 Q13.55 -1.55 13.55 0.0 13.55 1.55 15.3 3.75 L18.7 7.75 19.65 9.15 Q22.3 13.6 19.0 17.35 15.55 21.3 9.3 18.35 L7.55 17.45 4.3 15.8 Q1.5 14.4 -0.15 14.4 -1.75 14.4 -4.3 16.05 L-8.8 19.15 Q-10.35 20.05 -11.85 20.35 -15.95 21.25 -19.5 17.55 -24.55 12.3 -20.35 7.4 -18.55 5.6 -16.75 3.75 -14.85 1.7 -14.85 0.2 -14.85 -1.3 -16.7 -3.8 L-20.15 -8.3 Q-23.8 -14.3 -19.15 -17.65 -14.25 -21.2 -8.45 -17.85 L-4.05 -15.05 Q-1.65 -13.55 0.0 -13.55 1.65 -13.55 4.3 -14.95 6.65 -16.25 9.05 -17.55 L11.3 -18.5 Q15.95 -20.0 19.35 -17.15 24.0 -13.3 19.4 -7.95 L15.55 -3.85 Q13.55 -1.55 13.55 0.0 13.55 1.55 15.3 3.75 L18.7 7.75 19.65 9.15 Q22.3 13.6 19.0 17.35 15.55 21.3 9.3 18.35 L7.55 17.45 4.3 15.8 Q1.5 14.4 -0.15 14.4 -1.75 14.4 -4.3 16.05 L-8.8 19.15 Q-10.35 20.05 -11.85 20.35 -15.95 21.25 -19.5 17.55 -24.55 12.3 -20.35 7.4 L-20.35 7.4" fill="none" stroke="#000000" stroke-linecap="round" stroke-linejoin="round" stroke-width="2.0">
      <animate attributeName="stroke" dur="2s" repeatCount="indefinite" values="#000000;#000001"/>
      <animate attributeName="stroke-width" dur="2s" repeatCount="indefinite" values="2.0;2.0"/>
      <animate attributeName="fill-opacity" dur="2s" repeatCount="indefinite" values="1.0;1.0"/>
      <animate attributeName="d" dur="2s" repeatCount="indefinite" values="M-20.35 7.4 Q-18.55 5.6 -16.75 3.75 -14.85 1.7 -14.85 0.2 -14.85 -1.3 -16.7 -3.8 L-20.15 -8.3 Q-23.8 -14.3 -19.15 -17.65 -14.25 -21.2 -8.45 -17.85 L-4.05 -15.05 Q-1.65 -13.55 0.0 -13.55 1.65 -13.55 4.3 -14.95 6.65 -16.25 9.05 -17.55 L11.3 -18.5 Q15.95 -20.0 19.35 -17.15 24.0 -13.3 19.4 -7.95 L15.55 -3.85 Q13.55 -1.55 13.55 0.0 13.55 1.55 15.3 3.75 L18.7 7.75 19.65 9.15 Q22.3 13.6 19.0 17.35 15.55 21.3 9.3 18.35 L7.55 17.45 4.3 15.8 Q1.5 14.4 -0.15 14.4 -1.75 14.4 -4.3 16.05 L-8.8 19.15 Q-10.35 20.05 -11.85 20.35 -15.95 21.25 -19.5 17.55 -24.55 12.3 -20.35 7.4 -18.55 5.6 -16.75 3.75 -14.85 1.7 -14.85 0.2 -14.85 -1.3 -16.7 -3.8 L-20.15 -8.3 Q-23.8 -14.3 -19.15 -17.65 -14.25 -21.2 -8.45 -17.85 L-4.05 -15.05 Q-1.65 -13.55 0.0 -13.55 1.65 -13.55 4.3 -14.95 6.65 -16.25 9.05 -17.55 L11.3 -18.5 Q15.95 -20.0 19.35 -17.15 24.0 -13.3 19.4 -7.95 L15.55 -3.85 Q13.55 -1.55 13.55 0.0 13.55 1.55 15.3 3.75 L18.7 7.75 19.65 9.15 Q22.3 13.6 19.0 17.35 15.55 21.3 9.3 18.35 L7.55 17.45 4.3 15.8 Q1.5 14.4 -0.15 14.4 -1.75 14.4 -4.3 16.05 L-8.8 19.15 Q-10.35 20.05 -11.85 20.35 -15.95 21.25 -19.5 17.55 -24.55 12.3 -20.35 7.4 L-20.35 7.4;M-19.55 0.0 Q-19.55 -1.95 -19.15 -3.75 -18.75 -5.15 -18.3 -6.55 -17.6 -7.85 -16.85 -9.2 L-14.35 -12.15 Q-11.15 -15.1 -7.95 -16.4 -4.4 -17.8 -0.2 -17.85 L3.45 -17.6 Q4.95 -17.25 6.45 -16.9 7.95 -16.3 9.45 -15.7 11.1 -14.85 12.6 -13.65 L13.8 -12.65 Q16.2 -10.45 17.6 -7.9 19.4 -4.65 19.55 -0.7 L19.25 3.3 Q18.8 4.75 18.35 6.25 17.7 7.55 17.0 8.85 L14.65 11.8 13.8 12.6 Q11.4 14.8 8.6 16.1 5.3 17.6 1.4 17.8 L0.0 17.85 -2.5 17.7 Q-4.15 17.4 -5.8 17.05 -7.15 16.55 -8.55 16.05 L-11.8 14.25 Q-12.8 13.45 -13.85 12.6 -16.15 10.5 -17.5 8.05 -19.45 4.55 -19.55 0.35 -19.55 -1.95 -19.15 -3.75 -18.75 -5.15 -18.3 -6.55 -17.6 -7.85 -16.85 -9.2 L-14.35 -12.15 Q-11.15 -15.1 -7.95 -16.4 -4.4 -17.8 -0.2 -17.85 L3.45 -17.6 Q4.95 -17.25 6.45 -16.9 7.95 -16.3 9.45 -15.7 11.1 -14.85 12.6 -13.65 L13.8 -12.65 Q16.2 -10.45 17.6 -7.9 19.4 -4.65 19.55 -0.7 L19.25 3.3 Q18.8 4.75 18.35 6.25 17.7 7.55 17.0 8.85 L14.65 11.8 13.8 12.6 Q11.4 14.8 8.6 16.1 5.3 17.6 1.4 17.8 L0.0 17.85 -2.5 17.7 Q-4.15 17.4 -5.8 17.05 -7.15 16.55 -8.55 16.05 L-11.8 14.25 Q-12.8 13.45 -13.85 12.6 -16.15 10.5 -17.5 8.05 -19.45 4.55 -19.55 0.35 L-19.55 0.0"/>
    </path>
  </g>
  <defs>
    <radialGradient cx="0" cy="0" gradientTransform="matrix(0.041, -0.0201, 0.0157, 0.0321, 5.95, 4.9)" gradientUnits="userSpaceOnUse" id="gradient0" r="819.2" spreadMethod="pad">
      <animateTransform additive="replace" attributeName="gradientTransform" dur="2s" from="1" repeatCount="indefinite" to="1" type="scale"/>
      <animateTransform additive="sum" attributeName="gradientTransform" dur="2s" from="5.95 4.9" repeatCount="indefinite" to="5.1 4.25" type="translate"/>
      <animateTransform additive="sum" attributeName="gradientTransform" dur="2s" from="-26.0344" repeatCount="indefinite" to="-26.0326" type="rotate"/>
      <animateTransform additive="sum" attributeName="gradientTransform" dur="2s" from="0.0457 0.0358" repeatCount="indefinite" to="0.0419 0.0285" type="scale"/>
      <animateTransform additive="sum" attributeName="gradientTransform" dur="2s" from="0.0046" repeatCount="indefinite" to="-0.0012" type="skewX"/>
      <stop offset="0.0" stop-color="#0a9709">
        <animate attributeName="offset" dur="2s" repeatCount="indefinite" values="0.0;0.0"/>
        <animate attributeName="stop-color" dur="2s" repeatCount="indefinite" values="#0a9709;#0a970a"/>
        <animate attributeName="stop-opacity" dur="2s" repeatCount="indefinite" values="1.0;1.0"/>
      </stop>
      <stop offset="0.5764705882352941" stop-color="#52d862">
        <animate attributeName="offset" dur="2s" repeatCount="indefinite" values="0.5764705882352941;0.5764705882352941"/>
        <animate attributeName="stop-color" dur="2s" repeatCount="indefinite" values="#52d862;#52d863"/>
        <animate attributeName="stop-opacity" dur="2s" repeatCount="indefinite" values="1.0;1.0"/>
      </stop>
      <stop offset="1.0" stop-color="#ffffff">
        <animate attributeName="offset" dur="2s" repeatCount="indefinite" values="1.0;1.0"/>
        <animate attributeName="stop-color" dur="2s" repeatCount="indefinite" values="#ffffff;#ffffff"/>
        <animate attributeName="stop-opacity" dur="2s" repeatCount="indefinite" values="1.0;1.0"/>
      </stop>
    </radialGradient>
  </defs>
</svg>
