<?xml version="1.0" encoding="UTF-8" standalone="no"?>
<svg xmlns:xlink="http://www.w3.org/1999/xlink" height="28.9px" width="25.0px" xmlns="http://www.w3.org/2000/svg">
  <g transform="matrix(1.0, 0.0, 0.0, 1.0, 12.5, 17.4)">
    <path d="M-11.5 0.0 Q-11.5 4.35 -8.05 7.5 -4.95 10.3 -0.6 10.5 L0.0 10.5 Q4.0 10.5 7.05 8.3 L8.1 7.4 9.6 5.8 Q10.75 4.25 11.2 2.45 L11.5 0.0 Q11.5 -3.7 8.1 -7.45 5.15 -10.15 0.0 -10.5 -2.05 -10.15 -4.05 -9.85 -6.3 -9.1 -8.15 -7.45 -11.5 -4.35 -11.5 0.0" fill="url(#gradient0)" fill-rule="evenodd" stroke="none">
      <animate attributeName="d" dur="2s" repeatCount="indefinite" values="M-11.5 0.0 Q-11.5 4.35 -8.05 7.5 -4.95 10.3 -0.6 10.5 L0.0 10.5 Q4.0 10.5 7.05 8.3 L8.1 7.4 9.6 5.8 Q10.75 4.25 11.2 2.45 L11.5 0.0 Q11.5 -3.7 8.1 -7.45 5.15 -10.15 0.0 -10.5 -2.05 -10.15 -4.05 -9.85 -6.3 -9.1 -8.15 -7.45 -11.5 -4.35 -11.5 0.0;M-10.25 -1.5 Q-10.25 5.4 -8.15 7.4 -4.75 10.5 0.0 10.5 L0.75 10.5 Q5.0 10.25 8.1 7.4 L9.05 6.3 9.9 4.0 Q9.95 2.0 10.0 0.0 L9.9 -2.7 Q9.5 -7.3 6.95 -11.5 3.65 -16.5 -1.05 -16.4 -2.8 -16.05 -4.7 -14.55 -7.0 -12.75 -8.0 -10.5 -10.25 -5.55 -10.25 -1.5"/>
    </path>
    <path d="M-11.5 0.0 Q-11.5 -4.35 -8.15 -7.45 -6.3 -9.1 -4.05 -9.85 -2.05 -10.15 0.0 -10.5 5.15 -10.15 8.1 -7.45 11.5 -3.7 11.5 0.0 L11.2 2.45 Q10.75 4.25 9.6 5.8 L8.1 7.4 7.05 8.3 Q4.0 10.5 0.0 10.5 L-0.6 10.5 Q-4.95 10.3 -8.05 7.5 -11.5 4.35 -11.5 0.0 -11.5 -4.35 -8.15 -7.45 -6.3 -9.1 -4.05 -9.85 -2.05 -10.15 0.0 -10.5 5.15 -10.15 8.1 -7.45 11.5 -3.7 11.5 0.0 L11.2 2.45 Q10.75 4.25 9.6 5.8 L8.1 7.4 7.05 8.3 Q4.0 10.5 0.0 10.5 L-0.6 10.5 Q-4.95 10.3 -8.05 7.5 -11.5 4.35 -11.5 0.0" fill="none" stroke="#000000" stroke-linecap="round" stroke-linejoin="round" stroke-width="2.0">
      <animate attributeName="stroke" dur="2s" repeatCount="indefinite" values="#000000;#000001"/>
      <animate attributeName="stroke-width" dur="2s" repeatCount="indefinite" values="2.0;2.0"/>
      <animate attributeName="fill-opacity" dur="2s" repeatCount="indefinite" values="1.0;1.0"/>
      <animate attributeName="d" dur="2s" repeatCount="indefinite" values="M-11.5 0.0 Q-11.5 -4.35 -8.15 -7.45 -6.3 -9.1 -4.05 -9.85 -2.05 -10.15 0.0 -10.5 5.15 -10.15 8.1 -7.45 11.5 -3.7 11.5 0.0 L11.2 2.45 Q10.75 4.25 9.6 5.8 L8.1 7.4 7.05 8.3 Q4.0 10.5 0.0 10.5 L-0.6 10.5 Q-4.95 10.3 -8.05 7.5 -11.5 4.35 -11.5 0.0 -11.5 -4.35 -8.15 -7.45 -6.3 -9.1 -4.05 -9.85 -2.05 -10.15 0.0 -10.5 5.15 -10.15 8.1 -7.45 11.5 -3.7 11.5 0.0 L11.2 2.45 Q10.75 4.25 9.6 5.8 L8.1 7.4 7.05 8.3 Q4.0 10.5 0.0 10.5 L-0.6 10.5 Q-4.95 10.3 -8.05 7.5 -11.5 4.35 -11.5 0.0;M-10.25 -1.5 Q-10.25 -5.55 -8.0 -10.5 -7.0 -12.75 -4.7 -14.55 -2.8 -16.05 -1.05 -16.4 3.65 -16.5 6.95 -11.5 9.5 -7.3 9.9 -2.7 L10.0 0.0 Q9.95 2.0 9.9 4.0 L9.05 6.3 8.1 7.4 Q5.0 10.25 0.75 10.5 L0.0 10.5 Q-4.75 10.5 -8.15 7.4 -10.25 5.4 -10.25 -1.5 -10.25 -5.55 -8.0 -10.5 -7.0 -12.75 -4.7 -14.55 -2.8 -16.05 -1.05 -16.4 3.65 -16.5 6.95 -11.5 9.5 -7.3 9.9 -2.7 L10.0 0.0 Q9.95 2.0 9.9 4.0 L9.05 6.3 8.1 7.4 Q5.0 10.25 0.75 10.5 L0.0 10.5 Q-4.75 10.5 -8.15 7.4 -10.25 5.4 -10.25 -1.5"/>
    </path>
  </g>
  <defs>
    <radialGradient cx="0" cy="0" gradientTransform="matrix(0.0221, -0.0108, 0.0074, 0.0151, 3.0, 2.5)" gradientUnits="userSpaceOnUse" id="gradient0" r="819.2" spreadMethod="pad">
      <animateTransform additive="replace" attributeName="gradientTransform" dur="2s" from="1" repeatCount="indefinite" to="1" type="scale"/>
      <animateTransform additive="sum" attributeName="gradientTransform" dur="2s" from="3.0 2.5" repeatCount="indefinite" to="1.5 -1.0" type="translate"/>
      <animateTransform additive="sum" attributeName="gradientTransform" dur="2s" from="-26.0251" repeatCount="indefinite" to="-26.0251" type="rotate"/>
      <animateTransform additive="sum" attributeName="gradientTransform" dur="2s" from="0.0246 0.0168" repeatCount="indefinite" to="0.0246 0.0168" type="scale"/>
      <animateTransform additive="sum" attributeName="gradientTransform" dur="2s" from="0.003" repeatCount="indefinite" to="0.003" type="skewX"/>
      <stop offset="0.0" stop-color="#960a0a">
        <animate attributeName="offset" dur="2s" repeatCount="indefinite" values="0.0;0.0"/>
        <animate attributeName="stop-color" dur="2s" repeatCount="indefinite" values="#960a0a;#960a0b"/>
        <animate attributeName="stop-opacity" dur="2s" repeatCount="indefinite" values="1.0;1.0"/>
      </stop>
      <stop offset="0.5764705882352941" stop-color="#f74a33">
        <animate attributeName="offset" dur="2s" repeatCount="indefinite" values="0.5764705882352941;0.5764705882352941"/>
        <animate attributeName="stop-color" dur="2s" repeatCount="indefinite" values="#f74a33;#f74a34"/>
        <animate attributeName="stop-opacity" dur="2s" repeatCount="indefinite" values="1.0;1.0"/>
      </stop>
      <stop offset="1.0" stop-color="#ffffff">
        <animate attributeName="offset" dur="2s" repeatCount="indefinite" values="1.0;1.0"/>
        <animate attributeName="stop-color" dur="2s" repeatCount="indefinite" values="#ffffff;#ffffff"/>
        <animate attributeName="stop-opacity" dur="2s" repeatCount="indefinite" values="1.0;1.0"/>
      </stop>
    </radialGradient>
  </defs>
</svg>
