<?xml version="1.0" encoding="UTF-8" standalone="no"?>
<svg xmlns:xlink="http://www.w3.org/1999/xlink" height="36.5px" width="40.75px" xmlns="http://www.w3.org/2000/svg">
  <g transform="matrix(1.0, 0.0, 0.0, 1.0, 20.75, 17.75)">
    <path d="M-19.75 0.0 L-19.75 0.1 Q-19.65 1.75 -14.8 4.0 -10.6 6.0 -9.05 6.85 L-8.15 7.4 Q-7.65 7.85 -4.3 13.35 -1.95 17.15 -0.25 17.65 L0.25 17.75 Q2.1 17.75 4.5 13.35 7.0 8.9 8.1 7.4 8.6 6.95 14.4 4.0 17.5 2.45 18.5 1.15 L19.0 0.0 Q19.0 -1.7 14.4 -4.05 11.25 -5.75 8.1 -7.45 7.6 -7.9 4.5 -12.85 2.1 -16.75 0.05 -16.75 -1.75 -16.55 -4.3 -12.85 -7.8 -7.75 -8.9 -6.95 -11.85 -5.5 -14.8 -4.05 -19.75 -1.7 -19.75 0.0" fill="url(#gradient0)" fill-rule="evenodd" stroke="none">
      <animate attributeName="d" dur="2s" repeatCount="indefinite" values="M-19.75 0.0 L-19.75 0.1 Q-19.65 1.75 -14.8 4.0 -10.6 6.0 -9.05 6.85 L-8.15 7.4 Q-7.65 7.85 -4.3 13.35 -1.95 17.15 -0.25 17.65 L0.25 17.75 Q2.1 17.75 4.5 13.35 7.0 8.9 8.1 7.4 8.6 6.95 14.4 4.0 17.5 2.45 18.5 1.15 L19.0 0.0 Q19.0 -1.7 14.4 -4.05 11.25 -5.75 8.1 -7.45 7.6 -7.9 4.5 -12.85 2.1 -16.75 0.05 -16.75 -1.75 -16.55 -4.3 -12.85 -7.8 -7.75 -8.9 -6.95 -11.85 -5.5 -14.8 -4.05 -19.75 -1.7 -19.75 0.0;M-11.5 0.0 L-11.5 0.0 Q-11.5 2.35 -10.55 4.3 -9.7 6.0 -8.15 7.4 L-7.6 7.9 Q-5.75 9.35 -3.55 10.0 -1.75 10.25 0.0 10.5 L0.5 10.5 Q2.8 10.4 4.8 9.55 6.6 8.8 8.3 7.2 10.3 5.3 11.05 3.0 11.5 1.6 11.5 0.0 L11.5 -0.6 Q11.35 -2.85 10.25 -4.75 9.45 -6.2 7.7 -7.8 5.95 -9.3 3.85 -9.95 1.9 -10.25 0.0 -10.5 -2.05 -10.15 -4.1 -9.85 -6.0 -9.2 -8.15 -7.45 -9.85 -5.85 -10.7 -3.95 -11.5 -2.1 -11.5 0.0"/>
    </path>
    <path d="M-19.75 0.0 Q-19.75 -1.7 -14.8 -4.05 -11.85 -5.5 -8.9 -6.95 -7.8 -7.75 -4.3 -12.85 -1.75 -16.55 0.05 -16.75 2.1 -16.75 4.5 -12.85 7.6 -7.9 8.1 -7.45 11.25 -5.75 14.4 -4.05 19.0 -1.7 19.0 0.0 L18.5 1.15 Q17.5 2.45 14.4 4.0 8.6 6.95 8.1 7.4 7.0 8.9 4.5 13.35 2.1 17.75 0.25 17.75 L-0.25 17.65 Q-1.95 17.15 -4.3 13.35 -7.65 7.85 -8.15 7.4 L-9.05 6.85 Q-10.6 6.0 -14.8 4.0 -19.65 1.75 -19.75 0.1 M-19.75 0.0 Q-19.75 -1.7 -14.8 -4.05 -11.85 -5.5 -8.9 -6.95 -7.8 -7.75 -4.3 -12.85 -1.75 -16.55 0.05 -16.75 2.1 -16.75 4.5 -12.85 7.6 -7.9 8.1 -7.45 11.25 -5.75 14.4 -4.05 19.0 -1.7 19.0 0.0 L18.5 1.15 Q17.5 2.45 14.4 4.0 8.6 6.95 8.1 7.4 7.0 8.9 4.5 13.35 2.1 17.75 0.25 17.75 L-0.25 17.65 Q-1.95 17.15 -4.3 13.35 -7.65 7.85 -8.15 7.4 L-9.05 6.85 Q-10.6 6.0 -14.8 4.0 -19.65 1.75 -19.75 0.1 L-19.75 0.0" fill="none" stroke="#000000" stroke-linecap="round" stroke-linejoin="round" stroke-width="2.0">
      <animate attributeName="stroke" dur="2s" repeatCount="indefinite" values="#000000;#000001"/>
      <animate attributeName="stroke-width" dur="2s" repeatCount="indefinite" values="2.0;2.0"/>
      <animate attributeName="fill-opacity" dur="2s" repeatCount="indefinite" values="1.0;1.0"/>
      <animate attributeName="d" dur="2s" repeatCount="indefinite" values="M-19.75 0.0 Q-19.75 -1.7 -14.8 -4.05 -11.85 -5.5 -8.9 -6.95 -7.8 -7.75 -4.3 -12.85 -1.75 -16.55 0.05 -16.75 2.1 -16.75 4.5 -12.85 7.6 -7.9 8.1 -7.45 11.25 -5.75 14.4 -4.05 19.0 -1.7 19.0 0.0 L18.5 1.15 Q17.5 2.45 14.4 4.0 8.6 6.95 8.1 7.4 7.0 8.9 4.5 13.35 2.1 17.75 0.25 17.75 L-0.25 17.65 Q-1.95 17.15 -4.3 13.35 -7.65 7.85 -8.15 7.4 L-9.05 6.85 Q-10.6 6.0 -14.8 4.0 -19.65 1.75 -19.75 0.1 M-19.75 0.0 Q-19.75 -1.7 -14.8 -4.05 -11.85 -5.5 -8.9 -6.95 -7.8 -7.75 -4.3 -12.85 -1.75 -16.55 0.05 -16.75 2.1 -16.75 4.5 -12.85 7.6 -7.9 8.1 -7.45 11.25 -5.75 14.4 -4.05 19.0 -1.7 19.0 0.0 L18.5 1.15 Q17.5 2.45 14.4 4.0 8.6 6.95 8.1 7.4 7.0 8.9 4.5 13.35 2.1 17.75 0.25 17.75 L-0.25 17.65 Q-1.95 17.15 -4.3 13.35 -7.65 7.85 -8.15 7.4 L-9.05 6.85 Q-10.6 6.0 -14.8 4.0 -19.65 1.75 -19.75 0.1 L-19.75 0.0;M-11.5 0.0 Q-11.5 -2.1 -10.7 -3.95 -9.85 -5.85 -8.15 -7.45 -6.0 -9.2 -4.1 -9.85 -2.05 -10.15 0.0 -10.5 1.9 -10.25 3.85 -9.95 5.95 -9.3 7.7 -7.8 9.45 -6.2 10.25 -4.75 11.35 -2.85 11.5 -0.6 L11.5 0.0 Q11.5 1.6 11.05 3.0 10.3 5.3 8.3 7.2 6.6 8.8 4.8 9.55 2.8 10.4 0.5 10.5 L0.0 10.5 Q-1.75 10.25 -3.55 10.0 -5.75 9.35 -7.6 7.9 L-8.15 7.4 Q-9.7 6.0 -10.55 4.3 -11.5 2.35 -11.5 0.0 M-11.5 0.0 Q-11.5 -2.1 -10.7 -3.95 -9.85 -5.85 -8.15 -7.45 -6.0 -9.2 -4.1 -9.85 -2.05 -10.15 0.0 -10.5 1.9 -10.25 3.85 -9.95 5.95 -9.3 7.7 -7.8 9.45 -6.2 10.25 -4.75 11.35 -2.85 11.5 -0.6 L11.5 0.0 Q11.5 1.6 11.05 3.0 10.3 5.3 8.3 7.2 6.6 8.8 4.8 9.55 2.8 10.4 0.5 10.5 L0.0 10.5 Q-1.75 10.25 -3.55 10.0 -5.75 9.35 -7.6 7.9 L-8.15 7.4 Q-9.7 6.0 -10.55 4.3 -11.5 2.35 -11.5 0.0 L-11.5 0.0"/>
    </path>
  </g>
  <defs>
    <radialGradient cx="0" cy="0" gradientTransform="matrix(0.0273, -0.0133, 0.0091, 0.0186, 3.0, 2.5)" gradientUnits="userSpaceOnUse" id="gradient0" r="819.2" spreadMethod="pad">
      <animateTransform additive="replace" attributeName="gradientTransform" dur="2s" from="1" repeatCount="indefinite" to="1" type="scale"/>
      <animateTransform additive="sum" attributeName="gradientTransform" dur="2s" from="3.0 2.5" repeatCount="indefinite" to="3.0 2.5" type="translate"/>
      <animateTransform additive="sum" attributeName="gradientTransform" dur="2s" from="-26.0374" repeatCount="indefinite" to="-26.0251" type="rotate"/>
      <animateTransform additive="sum" attributeName="gradientTransform" dur="2s" from="0.0304 0.0207" repeatCount="indefinite" to="0.0246 0.0168" type="scale"/>
      <animateTransform additive="sum" attributeName="gradientTransform" dur="2s" from="-5.0E-4" repeatCount="indefinite" to="0.003" type="skewX"/>
      <stop offset="0.0" stop-color="#96960a">
        <animate attributeName="offset" dur="2s" repeatCount="indefinite" values="0.0;0.0"/>
        <animate attributeName="stop-color" dur="2s" repeatCount="indefinite" values="#96960a;#96960b"/>
        <animate attributeName="stop-opacity" dur="2s" repeatCount="indefinite" values="1.0;1.0"/>
      </stop>
      <stop offset="0.5764705882352941" stop-color="#e9e841">
        <animate attributeName="offset" dur="2s" repeatCount="indefinite" values="0.5764705882352941;0.5764705882352941"/>
        <animate attributeName="stop-color" dur="2s" repeatCount="indefinite" values="#e9e841;#e9e842"/>
        <animate attributeName="stop-opacity" dur="2s" repeatCount="indefinite" values="1.0;1.0"/>
      </stop>
      <stop offset="1.0" stop-color="#ffffff">
        <animate attributeName="offset" dur="2s" repeatCount="indefinite" values="1.0;1.0"/>
        <animate attributeName="stop-color" dur="2s" repeatCount="indefinite" values="#ffffff;#ffffff"/>
        <animate attributeName="stop-opacity" dur="2s" repeatCount="indefinite" values="1.0;1.0"/>
      </stop>
    </radialGradient>
  </defs>
</svg>
