<?xml version="1.0" encoding="UTF-8" standalone="no"?>
<svg xmlns:xlink="http://www.w3.org/1999/xlink" height="30.8px" width="32.05px" xmlns="http://www.w3.org/2000/svg">
  <g transform="matrix(1.0, 0.0, 0.0, 1.0, 16.5, 14.95)">
    <path d="M-11.5 0.0 L-11.5 0.1 Q-11.5 2.6 -10.3 4.7 -9.5 6.15 -8.15 7.4 L-7.35 8.05 Q-5.4 9.55 -3.05 10.15 -1.5 10.35 0.0 10.5 0.45 10.45 0.9 10.45 2.95 10.35 4.7 9.6 6.45 8.85 8.1 7.4 9.95 5.75 10.8 3.65 11.5 1.95 11.5 0.0 11.5 -2.25 10.6 -4.15 9.75 -5.95 8.1 -7.45 6.25 -9.1 4.0 -9.9 2.0 -10.2 0.0 -10.5 -2.05 -10.15 -4.05 -9.85 -5.95 -9.25 -8.15 -7.45 -9.8 -5.9 -10.65 -4.0 -11.5 -2.15 -11.5 0.0" fill="url(#gradient0)" fill-rule="evenodd" stroke="none">
      <animate attributeName="d" dur="2s" repeatCount="indefinite" values="M-11.5 0.0 L-11.5 0.1 Q-11.5 2.6 -10.3 4.7 -9.5 6.15 -8.15 7.4 L-7.35 8.05 Q-5.4 9.55 -3.05 10.15 -1.5 10.35 0.0 10.5 0.45 10.45 0.9 10.45 2.95 10.35 4.7 9.6 6.45 8.85 8.1 7.4 9.95 5.75 10.8 3.65 11.5 1.95 11.5 0.0 11.5 -2.25 10.6 -4.15 9.75 -5.95 8.1 -7.45 6.25 -9.1 4.0 -9.9 2.0 -10.2 0.0 -10.5 -2.05 -10.15 -4.05 -9.85 -5.95 -9.25 -8.15 -7.45 -9.8 -5.9 -10.65 -4.0 -11.5 -2.15 -11.5 0.0;M-15.0 14.5 L-15.0 14.5 Q-13.7 15.65 -7.85 13.25 -4.9 12.15 -2.0 11.05 L0.0 10.5 Q0.75 10.5 7.35 12.25 10.95 13.25 12.75 13.0 13.6 12.9 14.0 12.5 15.3 11.3 13.6 6.55 11.5 0.8 11.5 -0.2 11.7 -1.35 13.45 -7.05 15.0 -12.15 13.75 -13.5 12.45 -14.7 7.2 -12.75 1.95 -10.85 0.0 -10.5 -0.85 -10.5 -7.35 -12.5 -12.7 -14.2 -14.1 -12.9 -15.2 -11.55 -13.6 -6.8 -11.5 -0.75 -11.8 1.2 -12.95 4.4 -14.1 7.55 -16.3 13.3 -15.0 14.5"/>
    </path>
    <path d="M-11.5 0.0 Q-11.5 -2.15 -10.65 -4.0 -9.8 -5.9 -8.15 -7.45 -5.95 -9.25 -4.05 -9.85 -2.05 -10.15 0.0 -10.5 2.0 -10.2 4.0 -9.9 6.25 -9.1 8.1 -7.45 9.75 -5.95 10.6 -4.15 11.5 -2.25 11.5 0.0 11.5 1.95 10.8 3.65 9.95 5.75 8.1 7.4 6.45 8.85 4.7 9.6 2.95 10.35 0.9 10.45 0.45 10.45 0.0 10.5 -1.5 10.35 -3.05 10.15 -5.4 9.55 -7.35 8.05 L-8.15 7.4 Q-9.5 6.15 -10.3 4.7 -11.5 2.6 -11.5 0.1 M-11.5 0.0 Q-11.5 -2.15 -10.65 -4.0 -9.8 -5.9 -8.15 -7.45 -5.95 -9.25 -4.05 -9.85 -2.05 -10.15 0.0 -10.5 2.0 -10.2 4.0 -9.9 6.25 -9.1 8.1 -7.45 9.75 -5.95 10.6 -4.15 11.5 -2.25 11.5 0.0 11.5 1.95 10.8 3.65 9.95 5.75 8.1 7.4 6.45 8.85 4.7 9.6 2.95 10.35 0.9 10.45 0.45 10.45 0.0 10.5 -1.5 10.35 -3.05 10.15 -5.4 9.55 -7.35 8.05 L-8.15 7.4 Q-9.5 6.15 -10.3 4.7 -11.5 2.6 -11.5 0.1 L-11.5 0.0" fill="none" stroke="#000000" stroke-linecap="round" stroke-linejoin="round" stroke-width="2.0">
      <animate attributeName="stroke" dur="2s" repeatCount="indefinite" values="#000000;#000001"/>
      <animate attributeName="stroke-width" dur="2s" repeatCount="indefinite" values="2.0;2.0"/>
      <animate attributeName="fill-opacity" dur="2s" repeatCount="indefinite" values="1.0;1.0"/>
      <animate attributeName="d" dur="2s" repeatCount="indefinite" values="M-11.5 0.0 Q-11.5 -2.15 -10.65 -4.0 -9.8 -5.9 -8.15 -7.45 -5.95 -9.25 -4.05 -9.85 -2.05 -10.15 0.0 -10.5 2.0 -10.2 4.0 -9.9 6.25 -9.1 8.1 -7.45 9.75 -5.95 10.6 -4.15 11.5 -2.25 11.5 0.0 11.5 1.95 10.8 3.65 9.95 5.75 8.1 7.4 6.45 8.85 4.7 9.6 2.95 10.35 0.9 10.45 0.45 10.45 0.0 10.5 -1.5 10.35 -3.05 10.15 -5.4 9.55 -7.35 8.05 L-8.15 7.4 Q-9.5 6.15 -10.3 4.7 -11.5 2.6 -11.5 0.1 M-11.5 0.0 Q-11.5 -2.15 -10.65 -4.0 -9.8 -5.9 -8.15 -7.45 -5.95 -9.25 -4.05 -9.85 -2.05 -10.15 0.0 -10.5 2.0 -10.2 4.0 -9.9 6.25 -9.1 8.1 -7.45 9.75 -5.95 10.6 -4.15 11.5 -2.25 11.5 0.0 11.5 1.95 10.8 3.65 9.95 5.75 8.1 7.4 6.45 8.85 4.7 9.6 2.95 10.35 0.9 10.45 0.45 10.45 0.0 10.5 -1.5 10.35 -3.05 10.15 -5.4 9.55 -7.35 8.05 L-8.15 7.4 Q-9.5 6.15 -10.3 4.7 -11.5 2.6 -11.5 0.1 L-11.5 0.0;M-15.0 14.5 Q-16.3 13.3 -14.1 7.55 -12.95 4.4 -11.8 1.2 -11.5 -0.75 -13.6 -6.8 -15.2 -11.55 -14.1 -12.9 -12.7 -14.2 -7.35 -12.5 -0.85 -10.5 0.0 -10.5 1.95 -10.85 7.2 -12.75 12.45 -14.7 13.75 -13.5 15.0 -12.15 13.45 -7.05 11.7 -1.35 11.5 -0.2 11.5 0.8 13.6 6.55 15.3 11.3 14.0 12.5 13.6 12.9 12.75 13.0 10.95 13.25 7.35 12.25 0.75 10.5 0.0 10.5 L-2.0 11.05 Q-4.9 12.15 -7.85 13.25 -13.7 15.65 -15.0 14.5 M-15.0 14.5 Q-16.3 13.3 -14.1 7.55 -12.95 4.4 -11.8 1.2 -11.5 -0.75 -13.6 -6.8 -15.2 -11.55 -14.1 -12.9 -12.7 -14.2 -7.35 -12.5 -0.85 -10.5 0.0 -10.5 1.95 -10.85 7.2 -12.75 12.45 -14.7 13.75 -13.5 15.0 -12.15 13.45 -7.05 11.7 -1.35 11.5 -0.2 11.5 0.8 13.6 6.55 15.3 11.3 14.0 12.5 13.6 12.9 12.75 13.0 10.95 13.25 7.35 12.25 0.75 10.5 0.0 10.5 L-2.0 11.05 Q-4.9 12.15 -7.85 13.25 -13.7 15.65 -15.0 14.5 L-15.0 14.5"/>
    </path>
  </g>
  <defs>
    <radialGradient cx="0" cy="0" gradientTransform="matrix(0.0221, -0.0108, 0.0074, 0.0151, 3.0, 2.5)" gradientUnits="userSpaceOnUse" id="gradient0" r="819.2" spreadMethod="pad">
      <animateTransform additive="replace" attributeName="gradientTransform" dur="2s" from="1" repeatCount="indefinite" to="1" type="scale"/>
      <animateTransform additive="sum" attributeName="gradientTransform" dur="2s" from="3.0 2.5" repeatCount="indefinite" to="3.0 2.5" type="translate"/>
      <animateTransform additive="sum" attributeName="gradientTransform" dur="2s" from="-26.0251" repeatCount="indefinite" to="-26.8151" type="rotate"/>
      <animateTransform additive="sum" attributeName="gradientTransform" dur="2s" from="0.0246 0.0168" repeatCount="indefinite" to="0.0281 0.0219" type="scale"/>
      <animateTransform additive="sum" attributeName="gradientTransform" dur="2s" from="0.003" repeatCount="indefinite" to="-0.028" type="skewX"/>
      <stop offset="0.0" stop-color="#96960a">
        <animate attributeName="offset" dur="2s" repeatCount="indefinite" values="0.0;0.0"/>
        <animate attributeName="stop-color" dur="2s" repeatCount="indefinite" values="#96960a;#96960b"/>
        <animate attributeName="stop-opacity" dur="2s" repeatCount="indefinite" values="1.0;1.0"/>
      </stop>
      <stop offset="0.5764705882352941" stop-color="#e9e841">
        <animate attributeName="offset" dur="2s" repeatCount="indefinite" values="0.5764705882352941;0.5764705882352941"/>
        <animate attributeName="stop-color" dur="2s" repeatCount="indefinite" values="#e9e841;#e9e842"/>
        <animate attributeName="stop-opacity" dur="2s" repeatCount="indefinite" values="1.0;1.0"/>
      </stop>
      <stop offset="1.0" stop-color="#ffffff">
        <animate attributeName="offset" dur="2s" repeatCount="indefinite" values="1.0;1.0"/>
        <animate attributeName="stop-color" dur="2s" repeatCount="indefinite" values="#ffffff;#ffffff"/>
        <animate attributeName="stop-opacity" dur="2s" repeatCount="indefinite" values="1.0;1.0"/>
      </stop>
    </radialGradient>
  </defs>
</svg>
