<?xml version="1.0" encoding="UTF-8" standalone="no"?>
<svg xmlns:xlink="http://www.w3.org/1999/xlink" height="25.9px" width="25.0px" xmlns="http://www.w3.org/2000/svg">
  <g transform="matrix(1.0, 0.0, 0.0, 1.0, 12.5, 14.4)">
    <path d="M-11.5 0.0 L-11.5 0.0 Q-11.5 4.15 -8.15 7.4 -5.0 10.25 -0.7 10.5 L0.0 10.5 Q4.15 10.5 7.25 8.15 L8.1 7.4 Q10.95 4.85 11.4 1.4 L11.5 0.0 Q11.5 -3.5 8.1 -7.45 6.8 -8.65 5.25 -9.4 3.15 -10.4 0.0 -10.5 -2.35 -10.5 -4.4 -9.75 -6.45 -9.0 -8.35 -7.25 -11.5 -4.2 -11.5 0.0" fill="url(#gradient0)" fill-rule="evenodd" stroke="none">
      <animate attributeName="d" dur="2s" repeatCount="indefinite" values="M-11.5 0.0 L-11.5 0.0 Q-11.5 4.15 -8.15 7.4 -5.0 10.25 -0.7 10.5 L0.0 10.5 Q4.15 10.5 7.25 8.15 L8.1 7.4 Q10.95 4.85 11.4 1.4 L11.5 0.0 Q11.5 -3.5 8.1 -7.45 6.8 -8.65 5.25 -9.4 3.15 -10.4 0.0 -10.5 -2.35 -10.5 -4.4 -9.75 -6.45 -9.0 -8.35 -7.25 -11.5 -4.2 -11.5 0.0;M-11.5 0.0 L-11.5 0.1 Q-11.45 4.4 -7.85 7.7 -4.55 10.5 0.0 10.5 L0.85 10.45 Q5.05 10.2 8.1 7.4 L8.95 6.6 Q11.5 3.8 11.5 0.0 L11.4 -1.5 Q10.9 -4.9 6.95 -8.55 5.6 -9.9 4.3 -11.2 1.8 -13.45 -0.8 -13.4 -2.5 -13.1 -4.5 -11.2 -6.35 -9.3 -8.15 -7.45 -11.5 -4.35 -11.5 0.0"/>
    </path>
    <path d="M-11.5 0.0 Q-11.5 -4.2 -8.35 -7.25 -6.45 -9.0 -4.4 -9.75 -2.35 -10.5 0.0 -10.5 3.15 -10.4 5.25 -9.4 6.8 -8.65 8.1 -7.45 11.5 -3.5 11.5 0.0 L11.4 1.4 Q10.95 4.85 8.1 7.4 L7.25 8.15 Q4.15 10.5 0.0 10.5 L-0.7 10.5 Q-5.0 10.25 -8.15 7.4 -11.5 4.15 -11.5 0.0 -11.5 -4.2 -8.35 -7.25 -6.45 -9.0 -4.4 -9.75 -2.35 -10.5 0.0 -10.5 3.15 -10.4 5.25 -9.4 6.8 -8.65 8.1 -7.45 11.5 -3.5 11.5 0.0 L11.4 1.4 Q10.95 4.85 8.1 7.4 L7.25 8.15 Q4.15 10.5 0.0 10.5 L-0.7 10.5 Q-5.0 10.25 -8.15 7.4 -11.5 4.15 -11.5 0.0 L-11.5 0.0" fill="none" stroke="#000000" stroke-linecap="round" stroke-linejoin="round" stroke-width="2.0">
      <animate attributeName="stroke" dur="2s" repeatCount="indefinite" values="#000000;#000001"/>
      <animate attributeName="stroke-width" dur="2s" repeatCount="indefinite" values="2.0;2.0"/>
      <animate attributeName="fill-opacity" dur="2s" repeatCount="indefinite" values="1.0;1.0"/>
      <animate attributeName="d" dur="2s" repeatCount="indefinite" values="M-11.5 0.0 Q-11.5 -4.2 -8.35 -7.25 -6.45 -9.0 -4.4 -9.75 -2.35 -10.5 0.0 -10.5 3.15 -10.4 5.25 -9.4 6.8 -8.65 8.1 -7.45 11.5 -3.5 11.5 0.0 L11.4 1.4 Q10.95 4.85 8.1 7.4 L7.25 8.15 Q4.15 10.5 0.0 10.5 L-0.7 10.5 Q-5.0 10.25 -8.15 7.4 -11.5 4.15 -11.5 0.0 -11.5 -4.2 -8.35 -7.25 -6.45 -9.0 -4.4 -9.75 -2.35 -10.5 0.0 -10.5 3.15 -10.4 5.25 -9.4 6.8 -8.65 8.1 -7.45 11.5 -3.5 11.5 0.0 L11.4 1.4 Q10.95 4.85 8.1 7.4 L7.25 8.15 Q4.15 10.5 0.0 10.5 L-0.7 10.5 Q-5.0 10.25 -8.15 7.4 -11.5 4.15 -11.5 0.0 L-11.5 0.0;M-11.5 0.0 Q-11.5 -4.35 -8.15 -7.45 -6.35 -9.3 -4.5 -11.2 -2.5 -13.1 -0.8 -13.4 1.8 -13.45 4.3 -11.2 5.6 -9.9 6.95 -8.55 10.9 -4.9 11.4 -1.5 L11.5 0.0 Q11.5 3.8 8.95 6.6 L8.1 7.4 Q5.05 10.2 0.85 10.45 L0.0 10.5 Q-4.55 10.5 -7.85 7.7 -11.45 4.4 -11.5 0.1 -11.5 -4.35 -8.15 -7.45 -6.35 -9.3 -4.5 -11.2 -2.5 -13.1 -0.8 -13.4 1.8 -13.45 4.3 -11.2 5.6 -9.9 6.95 -8.55 10.9 -4.9 11.4 -1.5 L11.5 0.0 Q11.5 3.8 8.95 6.6 L8.1 7.4 Q5.05 10.2 0.85 10.45 L0.0 10.5 Q-4.55 10.5 -7.85 7.7 -11.45 4.4 -11.5 0.1 L-11.5 0.0"/>
    </path>
  </g>
  <defs>
    <radialGradient cx="0" cy="0" gradientTransform="matrix(0.0221, -0.0108, 0.0074, 0.0151, 3.0, 2.5)" gradientUnits="userSpaceOnUse" id="gradient0" r="819.2" spreadMethod="pad">
      <animateTransform additive="replace" attributeName="gradientTransform" dur="2s" from="1" repeatCount="indefinite" to="1" type="scale"/>
      <animateTransform additive="sum" attributeName="gradientTransform" dur="2s" from="3.0 2.5" repeatCount="indefinite" to="3.0 2.5" type="translate"/>
      <animateTransform additive="sum" attributeName="gradientTransform" dur="2s" from="-26.0251" repeatCount="indefinite" to="-26.0251" type="rotate"/>
      <animateTransform additive="sum" attributeName="gradientTransform" dur="2s" from="0.0246 0.0168" repeatCount="indefinite" to="0.0246 0.0168" type="scale"/>
      <animateTransform additive="sum" attributeName="gradientTransform" dur="2s" from="0.003" repeatCount="indefinite" to="0.003" type="skewX"/>
      <stop offset="0.0" stop-color="#7d3d22">
        <animate attributeName="offset" dur="2s" repeatCount="indefinite" values="0.0;0.0"/>
        <animate attributeName="stop-color" dur="2s" repeatCount="indefinite" values="#7d3d22;#7d3d23"/>
        <animate attributeName="stop-opacity" dur="2s" repeatCount="indefinite" values="1.0;1.0"/>
      </stop>
      <stop offset="0.5764705882352941" stop-color="#d28557">
        <animate attributeName="offset" dur="2s" repeatCount="indefinite" values="0.5764705882352941;0.5764705882352941"/>
        <animate attributeName="stop-color" dur="2s" repeatCount="indefinite" values="#d28557;#d28558"/>
        <animate attributeName="stop-opacity" dur="2s" repeatCount="indefinite" values="1.0;1.0"/>
      </stop>
      <stop offset="1.0" stop-color="#ffffff">
        <animate attributeName="offset" dur="2s" repeatCount="indefinite" values="1.0;1.0"/>
        <animate attributeName="stop-color" dur="2s" repeatCount="indefinite" values="#ffffff;#ffffff"/>
        <animate attributeName="stop-opacity" dur="2s" repeatCount="indefinite" values="1.0;1.0"/>
      </stop>
    </radialGradient>
  </defs>
</svg>
