<?xml version="1.0" encoding="UTF-8" standalone="no"?>
<svg xmlns:xlink="http://www.w3.org/1999/xlink" height="25.95px" width="25.1px" xmlns="http://www.w3.org/2000/svg">
  <g transform="matrix(1.0, 0.0, 0.0, 1.0, 12.55, 14.45)">
    <path d="M-11.5 0.0 L-11.5 0.0 Q-11.5 2.45 -10.4 4.5 -9.6 6.1 -8.15 7.4 -6.55 8.85 -4.65 9.65 -2.5 10.5 0.0 10.5 L4.1 9.85 Q6.3 9.05 8.1 7.4 9.6 6.05 10.45 4.5 11.5 2.45 11.5 0.0 11.5 -1.8 10.9 -3.4 10.1 -5.65 8.0 -7.55 6.35 -9.15 4.75 -10.7 L4.3 -11.2 Q2.4 -12.9 -0.2 -13.45 -1.8 -13.45 -4.5 -11.2 L-8.15 -7.45 Q-9.7 -6.0 -10.55 -4.3 -11.5 -2.35 -11.5 0.0" fill="url(#gradient0)" fill-rule="evenodd" stroke="none">
      <animate attributeName="d" dur="2s" repeatCount="indefinite" values="M-11.5 0.0 L-11.5 0.0 Q-11.5 2.45 -10.4 4.5 -9.6 6.1 -8.15 7.4 -6.55 8.85 -4.65 9.65 -2.5 10.5 0.0 10.5 L4.1 9.85 Q6.3 9.05 8.1 7.4 9.6 6.05 10.45 4.5 11.5 2.45 11.5 0.0 11.5 -1.8 10.9 -3.4 10.1 -5.65 8.0 -7.55 6.35 -9.15 4.75 -10.7 L4.3 -11.2 Q2.4 -12.9 -0.2 -13.45 -1.8 -13.45 -4.5 -11.2 L-8.15 -7.45 Q-9.7 -6.0 -10.55 -4.3 -11.5 -2.35 -11.5 0.0;M-11.55 -4.9 L-11.55 -4.8 Q-11.5 -2.4 -11.5 0.0 -11.5 2.15 -10.7 4.0 -9.85 5.85 -8.15 7.4 -6.3 9.1 -4.0 9.85 L0.0 10.5 Q2.65 10.5 4.9 9.5 6.65 8.75 8.1 7.4 10.05 5.65 10.9 3.45 11.5 1.85 11.5 0.0 11.55 -2.7 11.55 -5.35 11.35 -8.75 9.9 -10.05 L9.4 -10.4 Q8.0 -11.25 4.25 -10.9 1.6 -10.7 -1.0 -10.5 L-5.9 -10.55 Q-8.6 -10.3 -9.9 -9.15 -11.35 -7.85 -11.55 -4.9"/>
    </path>
    <path d="M-11.5 0.0 Q-11.5 -2.35 -10.55 -4.3 -9.7 -6.0 -8.15 -7.45 L-4.5 -11.2 Q-1.8 -13.45 -0.2 -13.45 2.4 -12.9 4.3 -11.2 L4.75 -10.7 Q6.35 -9.15 8.0 -7.55 10.1 -5.65 10.9 -3.4 11.5 -1.8 11.5 0.0 11.5 2.45 10.45 4.5 9.6 6.05 8.1 7.4 6.3 9.05 4.1 9.85 L0.0 10.5 Q-2.5 10.5 -4.65 9.65 -6.55 8.85 -8.15 7.4 -9.6 6.1 -10.4 4.5 -11.5 2.45 -11.5 0.0 -11.5 -2.35 -10.55 -4.3 -9.7 -6.0 -8.15 -7.45 L-4.5 -11.2 Q-1.8 -13.45 -0.2 -13.45 2.4 -12.9 4.3 -11.2 L4.75 -10.7 Q6.35 -9.15 8.0 -7.55 10.1 -5.65 10.9 -3.4 11.5 -1.8 11.5 0.0 11.5 2.45 10.45 4.5 9.6 6.05 8.1 7.4 6.3 9.05 4.1 9.85 L0.0 10.5 Q-2.5 10.5 -4.65 9.65 -6.55 8.85 -8.15 7.4 -9.6 6.1 -10.4 4.5 -11.5 2.45 -11.5 0.0 L-11.5 0.0" fill="none" stroke="#000000" stroke-linecap="round" stroke-linejoin="round" stroke-width="2.0">
      <animate attributeName="stroke" dur="2s" repeatCount="indefinite" values="#000000;#000001"/>
      <animate attributeName="stroke-width" dur="2s" repeatCount="indefinite" values="2.0;2.0"/>
      <animate attributeName="fill-opacity" dur="2s" repeatCount="indefinite" values="1.0;1.0"/>
      <animate attributeName="d" dur="2s" repeatCount="indefinite" values="M-11.5 0.0 Q-11.5 -2.35 -10.55 -4.3 -9.7 -6.0 -8.15 -7.45 L-4.5 -11.2 Q-1.8 -13.45 -0.2 -13.45 2.4 -12.9 4.3 -11.2 L4.75 -10.7 Q6.35 -9.15 8.0 -7.55 10.1 -5.65 10.9 -3.4 11.5 -1.8 11.5 0.0 11.5 2.45 10.45 4.5 9.6 6.05 8.1 7.4 6.3 9.05 4.1 9.85 L0.0 10.5 Q-2.5 10.5 -4.65 9.65 -6.55 8.85 -8.15 7.4 -9.6 6.1 -10.4 4.5 -11.5 2.45 -11.5 0.0 -11.5 -2.35 -10.55 -4.3 -9.7 -6.0 -8.15 -7.45 L-4.5 -11.2 Q-1.8 -13.45 -0.2 -13.45 2.4 -12.9 4.3 -11.2 L4.75 -10.7 Q6.35 -9.15 8.0 -7.55 10.1 -5.65 10.9 -3.4 11.5 -1.8 11.5 0.0 11.5 2.45 10.45 4.5 9.6 6.05 8.1 7.4 6.3 9.05 4.1 9.85 L0.0 10.5 Q-2.5 10.5 -4.65 9.65 -6.55 8.85 -8.15 7.4 -9.6 6.1 -10.4 4.5 -11.5 2.45 -11.5 0.0 L-11.5 0.0;M-11.55 -4.9 Q-11.35 -7.85 -9.9 -9.15 -8.6 -10.3 -5.9 -10.55 L-1.0 -10.5 Q1.6 -10.7 4.25 -10.9 8.0 -11.25 9.4 -10.4 L9.9 -10.05 Q11.35 -8.75 11.55 -5.35 11.55 -2.7 11.5 0.0 11.5 1.85 10.9 3.45 10.05 5.65 8.1 7.4 6.65 8.75 4.9 9.5 2.65 10.5 0.0 10.5 L-4.0 9.85 Q-6.3 9.1 -8.15 7.4 -9.85 5.85 -10.7 4.0 -11.5 2.15 -11.5 0.0 -11.5 -2.4 -11.55 -4.8 -11.35 -7.85 -9.9 -9.15 -8.6 -10.3 -5.9 -10.55 L-1.0 -10.5 Q1.6 -10.7 4.25 -10.9 8.0 -11.25 9.4 -10.4 L9.9 -10.05 Q11.35 -8.75 11.55 -5.35 11.55 -2.7 11.5 0.0 11.5 1.85 10.9 3.45 10.05 5.65 8.1 7.4 6.65 8.75 4.9 9.5 2.65 10.5 0.0 10.5 L-4.0 9.85 Q-6.3 9.1 -8.15 7.4 -9.85 5.85 -10.7 4.0 -11.5 2.15 -11.5 0.0 -11.5 -2.4 -11.55 -4.8 L-11.55 -4.9"/>
    </path>
  </g>
  <defs>
    <radialGradient cx="0" cy="0" gradientTransform="matrix(0.0221, -0.0108, 0.0074, 0.0151, 3.0, 2.5)" gradientUnits="userSpaceOnUse" id="gradient0" r="819.2" spreadMethod="pad">
      <animateTransform additive="replace" attributeName="gradientTransform" dur="2s" from="1" repeatCount="indefinite" to="1" type="scale"/>
      <animateTransform additive="sum" attributeName="gradientTransform" dur="2s" from="3.0 2.5" repeatCount="indefinite" to="3.0 2.5" type="translate"/>
      <animateTransform additive="sum" attributeName="gradientTransform" dur="2s" from="-26.0251" repeatCount="indefinite" to="-26.0251" type="rotate"/>
      <animateTransform additive="sum" attributeName="gradientTransform" dur="2s" from="0.0246 0.0168" repeatCount="indefinite" to="0.0246 0.0168" type="scale"/>
      <animateTransform additive="sum" attributeName="gradientTransform" dur="2s" from="0.003" repeatCount="indefinite" to="0.003" type="skewX"/>
      <stop offset="0.0" stop-color="#7d3d22">
        <animate attributeName="offset" dur="2s" repeatCount="indefinite" values="0.0;0.0"/>
        <animate attributeName="stop-color" dur="2s" repeatCount="indefinite" values="#7d3d22;#7d3d23"/>
        <animate attributeName="stop-opacity" dur="2s" repeatCount="indefinite" values="1.0;1.0"/>
      </stop>
      <stop offset="0.5764705882352941" stop-color="#d28557">
        <animate attributeName="offset" dur="2s" repeatCount="indefinite" values="0.5764705882352941;0.5764705882352941"/>
        <animate attributeName="stop-color" dur="2s" repeatCount="indefinite" values="#d28557;#d28558"/>
        <animate attributeName="stop-opacity" dur="2s" repeatCount="indefinite" values="1.0;1.0"/>
      </stop>
      <stop offset="1.0" stop-color="#ffffff">
        <animate attributeName="offset" dur="2s" repeatCount="indefinite" values="1.0;1.0"/>
        <animate attributeName="stop-color" dur="2s" repeatCount="indefinite" values="#ffffff;#ffffff"/>
        <animate attributeName="stop-opacity" dur="2s" repeatCount="indefinite" values="1.0;1.0"/>
      </stop>
    </radialGradient>
  </defs>
</svg>
