<?xml version="1.0" encoding="UTF-8" standalone="no"?>
<svg xmlns:xlink="http://www.w3.org/1999/xlink" height="25.55px" width="26.05px" xmlns="http://www.w3.org/2000/svg">
  <g transform="matrix(1.0, 0.0, 0.0, 1.0, 13.15, 11.5)">
    <path d="M-12.1 4.8 L-12.1 4.9 Q-12.35 7.7 -11.0 8.95 -9.7 10.1 -6.65 10.4 L-5.85 10.5 -1.4 10.5 0.0 10.5 Q1.9 10.5 3.8 10.5 L5.65 10.5 Q7.35 10.15 9.0 9.85 10.0 9.5 10.6 8.95 11.75 7.95 11.85 5.85 L11.9 4.8 Q11.5 0.95 11.1 -2.9 10.3 -5.45 8.1 -7.45 6.85 -8.6 5.45 -9.3 3.0 -10.5 0.0 -10.5 L-4.05 -9.85 Q-6.3 -9.1 -8.15 -7.45 -9.9 -5.85 -10.75 -3.9 -11.5 -2.1 -11.5 0.0 -11.5 1.45 -12.1 4.8" fill="url(#gradient0)" fill-rule="evenodd" stroke="none">
      <animate attributeName="d" dur="2s" repeatCount="indefinite" values="M-12.1 4.8 L-12.1 4.9 Q-12.35 7.7 -11.0 8.95 -9.7 10.1 -6.65 10.4 L-5.85 10.5 -1.4 10.5 0.0 10.5 Q1.9 10.5 3.8 10.5 L5.65 10.5 Q7.35 10.15 9.0 9.85 10.0 9.5 10.6 8.95 11.75 7.95 11.85 5.85 L11.9 4.8 Q11.5 0.95 11.1 -2.9 10.3 -5.45 8.1 -7.45 6.85 -8.6 5.45 -9.3 3.0 -10.5 0.0 -10.5 L-4.05 -9.85 Q-6.3 -9.1 -8.15 -7.45 -9.9 -5.85 -10.75 -3.9 -11.5 -2.1 -11.5 0.0 -11.5 1.45 -12.1 4.8;M-11.5 0.0 L-11.5 0.0 Q-11.5 2.2 -10.65 4.05 -9.8 5.9 -8.15 7.4 L-7.55 7.95 -4.25 11.0 -3.05 11.85 Q-1.15 13.05 0.35 13.05 L2.05 12.7 Q3.25 12.2 4.55 11.0 5.15 10.4 5.75 9.8 6.95 8.6 8.1 7.4 L8.95 6.6 Q10.5 4.85 11.5 0.0 11.5 -2.75 10.15 -5.0 9.1 -6.25 8.1 -7.45 6.1 -9.25 3.65 -10.0 L0.0 -10.5 Q-2.5 -10.5 -4.6 -9.65 -6.55 -8.9 -8.15 -7.45 -9.35 -5.9 -10.5 -4.4 -11.5 -2.4 -11.5 0.0"/>
    </path>
    <path d="M-12.1 4.8 Q-11.5 1.45 -11.5 0.0 -11.5 -2.1 -10.75 -3.9 -9.9 -5.85 -8.15 -7.45 -6.3 -9.1 -4.05 -9.85 L0.0 -10.5 Q3.0 -10.5 5.45 -9.3 6.85 -8.6 8.1 -7.45 10.3 -5.45 11.1 -2.9 11.5 0.95 11.9 4.8 L11.85 5.85 Q11.75 7.95 10.6 8.95 10.0 9.5 9.0 9.85 7.35 10.15 5.65 10.5 L3.8 10.5 Q1.9 10.5 0.0 10.5 L-1.4 10.5 -5.85 10.5 -6.65 10.4 Q-9.7 10.1 -11.0 8.95 -12.35 7.7 -12.1 4.9 M-12.1 4.8 Q-11.5 1.45 -11.5 0.0 -11.5 -2.1 -10.75 -3.9 -9.9 -5.85 -8.15 -7.45 -6.3 -9.1 -4.05 -9.85 L0.0 -10.5 Q3.0 -10.5 5.45 -9.3 6.85 -8.6 8.1 -7.45 10.3 -5.45 11.1 -2.9 11.5 0.95 11.9 4.8 L11.85 5.85 Q11.75 7.95 10.6 8.95 10.0 9.5 9.0 9.85 7.35 10.15 5.65 10.5 L3.8 10.5 Q1.9 10.5 0.0 10.5 L-1.4 10.5 -5.85 10.5 -6.65 10.4 Q-9.7 10.1 -11.0 8.95 -12.35 7.7 -12.1 4.9 L-12.1 4.8" fill="none" stroke="#000000" stroke-linecap="round" stroke-linejoin="round" stroke-width="2.0">
      <animate attributeName="stroke" dur="2s" repeatCount="indefinite" values="#000000;#000001"/>
      <animate attributeName="stroke-width" dur="2s" repeatCount="indefinite" values="2.0;2.0"/>
      <animate attributeName="fill-opacity" dur="2s" repeatCount="indefinite" values="1.0;1.0"/>
      <animate attributeName="d" dur="2s" repeatCount="indefinite" values="M-12.1 4.8 Q-11.5 1.45 -11.5 0.0 -11.5 -2.1 -10.75 -3.9 -9.9 -5.85 -8.15 -7.45 -6.3 -9.1 -4.05 -9.85 L0.0 -10.5 Q3.0 -10.5 5.45 -9.3 6.85 -8.6 8.1 -7.45 10.3 -5.45 11.1 -2.9 11.5 0.95 11.9 4.8 L11.85 5.85 Q11.75 7.95 10.6 8.95 10.0 9.5 9.0 9.85 7.35 10.15 5.65 10.5 L3.8 10.5 Q1.9 10.5 0.0 10.5 L-1.4 10.5 -5.85 10.5 -6.65 10.4 Q-9.7 10.1 -11.0 8.95 -12.35 7.7 -12.1 4.9 M-12.1 4.8 Q-11.5 1.45 -11.5 0.0 -11.5 -2.1 -10.75 -3.9 -9.9 -5.85 -8.15 -7.45 -6.3 -9.1 -4.05 -9.85 L0.0 -10.5 Q3.0 -10.5 5.45 -9.3 6.85 -8.6 8.1 -7.45 10.3 -5.45 11.1 -2.9 11.5 0.95 11.9 4.8 L11.85 5.85 Q11.75 7.95 10.6 8.95 10.0 9.5 9.0 9.85 7.35 10.15 5.65 10.5 L3.8 10.5 Q1.9 10.5 0.0 10.5 L-1.4 10.5 -5.85 10.5 -6.65 10.4 Q-9.7 10.1 -11.0 8.95 -12.35 7.7 -12.1 4.9 L-12.1 4.8;M-11.5 0.0 Q-11.5 -2.4 -10.5 -4.4 -9.35 -5.9 -8.15 -7.45 -6.55 -8.9 -4.6 -9.65 -2.5 -10.5 0.0 -10.5 L3.65 -10.0 Q6.1 -9.25 8.1 -7.45 9.1 -6.25 10.15 -5.0 11.5 -2.75 11.5 0.0 10.5 4.85 8.95 6.6 L8.1 7.4 Q6.95 8.6 5.75 9.8 5.15 10.4 4.55 11.0 3.25 12.2 2.05 12.7 L0.35 13.05 Q-1.15 13.05 -3.05 11.85 L-4.25 11.0 -7.55 7.95 -8.15 7.4 Q-9.8 5.9 -10.65 4.05 -11.5 2.2 -11.5 0.0 M-11.5 0.0 Q-11.5 -2.4 -10.5 -4.4 -9.35 -5.9 -8.15 -7.45 -6.55 -8.9 -4.6 -9.65 -2.5 -10.5 0.0 -10.5 L3.65 -10.0 Q6.1 -9.25 8.1 -7.45 9.1 -6.25 10.15 -5.0 11.5 -2.75 11.5 0.0 10.5 4.85 8.95 6.6 L8.1 7.4 Q6.95 8.6 5.75 9.8 5.15 10.4 4.55 11.0 3.25 12.2 2.05 12.7 L0.35 13.05 Q-1.15 13.05 -3.05 11.85 L-4.25 11.0 -7.55 7.95 -8.15 7.4 Q-9.8 5.9 -10.65 4.05 -11.5 2.2 -11.5 0.0 L-11.5 0.0"/>
    </path>
  </g>
  <defs>
    <radialGradient cx="0" cy="0" gradientTransform="matrix(0.0221, -0.0108, 0.0074, 0.0151, 3.0, 2.5)" gradientUnits="userSpaceOnUse" id="gradient0" r="819.2" spreadMethod="pad">
      <animateTransform additive="replace" attributeName="gradientTransform" dur="2s" from="1" repeatCount="indefinite" to="1" type="scale"/>
      <animateTransform additive="sum" attributeName="gradientTransform" dur="2s" from="3.0 2.5" repeatCount="indefinite" to="3.0 2.5" type="translate"/>
      <animateTransform additive="sum" attributeName="gradientTransform" dur="2s" from="-26.0251" repeatCount="indefinite" to="-26.0251" type="rotate"/>
      <animateTransform additive="sum" attributeName="gradientTransform" dur="2s" from="0.0246 0.0168" repeatCount="indefinite" to="0.0246 0.0168" type="scale"/>
      <animateTransform additive="sum" attributeName="gradientTransform" dur="2s" from="0.003" repeatCount="indefinite" to="0.003" type="skewX"/>
      <stop offset="0.0" stop-color="#7d3d22">
        <animate attributeName="offset" dur="2s" repeatCount="indefinite" values="0.0;0.0"/>
        <animate attributeName="stop-color" dur="2s" repeatCount="indefinite" values="#7d3d22;#7d3d23"/>
        <animate attributeName="stop-opacity" dur="2s" repeatCount="indefinite" values="1.0;1.0"/>
      </stop>
      <stop offset="0.5764705882352941" stop-color="#d28557">
        <animate attributeName="offset" dur="2s" repeatCount="indefinite" values="0.5764705882352941;0.5764705882352941"/>
        <animate attributeName="stop-color" dur="2s" repeatCount="indefinite" values="#d28557;#d28558"/>
        <animate attributeName="stop-opacity" dur="2s" repeatCount="indefinite" values="1.0;1.0"/>
      </stop>
      <stop offset="1.0" stop-color="#ffffff">
        <animate attributeName="offset" dur="2s" repeatCount="indefinite" values="1.0;1.0"/>
        <animate attributeName="stop-color" dur="2s" repeatCount="indefinite" values="#ffffff;#ffffff"/>
        <animate attributeName="stop-opacity" dur="2s" repeatCount="indefinite" values="1.0;1.0"/>
      </stop>
    </radialGradient>
  </defs>
</svg>
