<?xml version="1.0" encoding="UTF-8" standalone="no"?>
<svg xmlns:xlink="http://www.w3.org/1999/xlink" height="25.55px" width="25.0px" xmlns="http://www.w3.org/2000/svg">
  <g transform="matrix(1.0, 0.0, 0.0, 1.0, 12.5, 11.5)">
    <path d="M-11.5 0.0 L-11.5 0.1 Q-11.45 4.4 -8.15 7.4 L-7.85 7.65 Q-6.05 9.35 -4.25 11.0 -1.95 12.8 0.35 13.05 2.3 13.05 4.55 11.0 L7.1 8.4 8.1 7.4 Q11.1 4.75 11.5 0.0 11.5 -4.0 8.1 -7.45 4.95 -10.35 0.0 -10.5 -4.6 -10.5 -8.15 -7.45 -11.5 -4.35 -11.5 0.0" fill="url(#gradient0)" fill-rule="evenodd" stroke="none">
      <animate attributeName="d" dur="2s" repeatCount="indefinite" values="M-11.5 0.0 L-11.5 0.1 Q-11.45 4.4 -8.15 7.4 L-7.85 7.65 Q-6.05 9.35 -4.25 11.0 -1.95 12.8 0.35 13.05 2.3 13.05 4.55 11.0 L7.1 8.4 8.1 7.4 Q11.1 4.75 11.5 0.0 11.5 -4.0 8.1 -7.45 4.95 -10.35 0.0 -10.5 -4.6 -10.5 -8.15 -7.45 -11.5 -4.35 -11.5 0.0;M-11.5 0.0 L-11.5 0.0 Q-11.5 4.2 -8.35 7.2 L-8.15 7.4 Q-6.3 9.1 -4.05 9.85 -1.7 10.2 0.6 10.5 3.1 10.4 5.2 9.4 L8.1 7.4 9.05 6.45 Q11.5 3.7 11.45 -1.0 11.1 -4.7 7.55 -7.9 4.35 -10.5 -0.5 -10.5 -4.95 -10.35 -8.35 -7.25 -11.5 -4.25 -11.5 0.0"/>
    </path>
    <path d="M-11.5 0.0 Q-11.5 -4.35 -8.15 -7.45 -4.6 -10.5 0.0 -10.5 4.95 -10.35 8.1 -7.45 11.5 -4.0 11.5 0.0 11.1 4.75 8.1 7.4 L7.1 8.4 4.55 11.0 Q2.3 13.05 0.35 13.05 -1.95 12.8 -4.25 11.0 -6.05 9.35 -7.85 7.65 L-8.15 7.4 Q-11.45 4.4 -11.5 0.1 M-11.5 0.0 Q-11.5 -4.35 -8.15 -7.45 -4.6 -10.5 0.0 -10.5 4.95 -10.35 8.1 -7.45 11.5 -4.0 11.5 0.0 11.1 4.75 8.1 7.4 L7.1 8.4 4.55 11.0 Q2.3 13.05 0.35 13.05 -1.95 12.8 -4.25 11.0 -6.05 9.35 -7.85 7.65 L-8.15 7.4 Q-11.45 4.4 -11.5 0.1 L-11.5 0.0" fill="none" stroke="#000000" stroke-linecap="round" stroke-linejoin="round" stroke-width="2.0">
      <animate attributeName="stroke" dur="2s" repeatCount="indefinite" values="#000000;#000001"/>
      <animate attributeName="stroke-width" dur="2s" repeatCount="indefinite" values="2.0;2.0"/>
      <animate attributeName="fill-opacity" dur="2s" repeatCount="indefinite" values="1.0;1.0"/>
      <animate attributeName="d" dur="2s" repeatCount="indefinite" values="M-11.5 0.0 Q-11.5 -4.35 -8.15 -7.45 -4.6 -10.5 0.0 -10.5 4.95 -10.35 8.1 -7.45 11.5 -4.0 11.5 0.0 11.1 4.75 8.1 7.4 L7.1 8.4 4.55 11.0 Q2.3 13.05 0.35 13.05 -1.95 12.8 -4.25 11.0 -6.05 9.35 -7.85 7.65 L-8.15 7.4 Q-11.45 4.4 -11.5 0.1 M-11.5 0.0 Q-11.5 -4.35 -8.15 -7.45 -4.6 -10.5 0.0 -10.5 4.95 -10.35 8.1 -7.45 11.5 -4.0 11.5 0.0 11.1 4.75 8.1 7.4 L7.1 8.4 4.55 11.0 Q2.3 13.05 0.35 13.05 -1.95 12.8 -4.25 11.0 -6.05 9.35 -7.85 7.65 L-8.15 7.4 Q-11.45 4.4 -11.5 0.1 L-11.5 0.0;M-11.5 0.0 Q-11.5 -4.25 -8.35 -7.25 -4.95 -10.35 -0.5 -10.5 4.35 -10.5 7.55 -7.9 11.1 -4.7 11.45 -1.0 11.5 3.7 9.05 6.45 L8.1 7.4 5.2 9.4 Q3.1 10.4 0.6 10.5 -1.7 10.2 -4.05 9.85 -6.3 9.1 -8.15 7.4 L-8.35 7.2 Q-11.5 4.2 -11.5 0.0 M-11.5 0.0 Q-11.5 -4.25 -8.35 -7.25 -4.95 -10.35 -0.5 -10.5 4.35 -10.5 7.55 -7.9 11.1 -4.7 11.45 -1.0 11.5 3.7 9.05 6.45 L8.1 7.4 5.2 9.4 Q3.1 10.4 0.6 10.5 -1.7 10.2 -4.05 9.85 -6.3 9.1 -8.15 7.4 L-8.35 7.2 Q-11.5 4.2 -11.5 0.0 L-11.5 0.0"/>
    </path>
  </g>
  <defs>
    <radialGradient cx="0" cy="0" gradientTransform="matrix(0.0221, -0.0108, 0.0074, 0.0151, 3.0, 2.5)" gradientUnits="userSpaceOnUse" id="gradient0" r="819.2" spreadMethod="pad">
      <animateTransform additive="replace" attributeName="gradientTransform" dur="2s" from="1" repeatCount="indefinite" to="1" type="scale"/>
      <animateTransform additive="sum" attributeName="gradientTransform" dur="2s" from="3.0 2.5" repeatCount="indefinite" to="3.0 2.5" type="translate"/>
      <animateTransform additive="sum" attributeName="gradientTransform" dur="2s" from="-26.0251" repeatCount="indefinite" to="-26.0251" type="rotate"/>
      <animateTransform additive="sum" attributeName="gradientTransform" dur="2s" from="0.0246 0.0168" repeatCount="indefinite" to="0.0246 0.0168" type="scale"/>
      <animateTransform additive="sum" attributeName="gradientTransform" dur="2s" from="0.003" repeatCount="indefinite" to="0.003" type="skewX"/>
      <stop offset="0.0" stop-color="#7d3d22">
        <animate attributeName="offset" dur="2s" repeatCount="indefinite" values="0.0;0.0"/>
        <animate attributeName="stop-color" dur="2s" repeatCount="indefinite" values="#7d3d22;#7d3d23"/>
        <animate attributeName="stop-opacity" dur="2s" repeatCount="indefinite" values="1.0;1.0"/>
      </stop>
      <stop offset="0.5764705882352941" stop-color="#d28557">
        <animate attributeName="offset" dur="2s" repeatCount="indefinite" values="0.5764705882352941;0.5764705882352941"/>
        <animate attributeName="stop-color" dur="2s" repeatCount="indefinite" values="#d28557;#d28558"/>
        <animate attributeName="stop-opacity" dur="2s" repeatCount="indefinite" values="1.0;1.0"/>
      </stop>
      <stop offset="1.0" stop-color="#ffffff">
        <animate attributeName="offset" dur="2s" repeatCount="indefinite" values="1.0;1.0"/>
        <animate attributeName="stop-color" dur="2s" repeatCount="indefinite" values="#ffffff;#ffffff"/>
        <animate attributeName="stop-opacity" dur="2s" repeatCount="indefinite" values="1.0;1.0"/>
      </stop>
    </radialGradient>
  </defs>
</svg>
