<?xml version="1.0" encoding="UTF-8" standalone="no"?>
<svg xmlns:xlink="http://www.w3.org/1999/xlink" height="13.0px" width="22.05px" xmlns="http://www.w3.org/2000/svg">
  <g transform="matrix(1.0, 0.0, 0.0, 1.0, -11.0, 10.1)">
    <path d="M11.25 1.3 L11.95 -1.95 15.7 -1.3 19.6 -0.8 22.8 -0.95 26.2 -2.0 Q27.8 -2.65 29.25 -3.9 30.55 -5.15 31.55 -6.7 32.4 -8.1 32.5 -9.85 33.05 -8.05 32.6 -5.9 32.2 -4.2 31.2 -3.0 L28.95 -0.9 25.45 1.45 Q23.95 2.4 22.1 2.6 L18.05 2.45 13.95 1.8 11.25 1.3" fill="url(#gradient0)" fill-rule="evenodd" stroke="none"/>
    <path d="M11.25 1.3 L11.95 -1.95 15.7 -1.3 19.6 -0.8 22.8 -0.95 26.2 -2.0 Q27.8 -2.65 29.25 -3.9 30.55 -5.15 31.55 -6.7 32.4 -8.1 32.5 -9.85 33.05 -8.05 32.6 -5.9 32.2 -4.2 31.2 -3.0 L28.95 -0.9 25.45 1.45 Q23.95 2.4 22.1 2.6 L18.05 2.45 13.95 1.8 11.25 1.3 Z" fill="none" stroke="#000000" stroke-linecap="round" stroke-linejoin="round" stroke-width="0.5"/>
  </g>
  <defs>
    <linearGradient gradientTransform="matrix(-0.0016, 0.0089, -0.0119, -0.0021, 22.25, -4.15)" gradientUnits="userSpaceOnUse" id="gradient0" spreadMethod="pad" x1="-819.2" x2="819.2">
      <stop offset="0.0" stop-color="#a632cd"/>
      <stop offset="0.3176470588235294" stop-color="#830f9f"/>
      <stop offset="0.8235294117647058" stop-color="#000000"/>
    </linearGradient>
  </defs>
</svg>
