<?xml version="1.0" encoding="UTF-8" standalone="no"?>
<svg xmlns:xlink="http://www.w3.org/1999/xlink" height="14.3px" width="8.2px" xmlns="http://www.w3.org/2000/svg">
  <g transform="matrix(1.0, 0.0, 0.0, 1.0, 12.45, 21.45)">
    <path d="M-5.55 -7.4 L-4.5 -9.1 -6.35 -10.45 -8.25 -11.9 -9.5 -13.3 -10.55 -15.2 -10.95 -17.25 -10.75 -19.4 Q-10.55 -20.4 -9.85 -21.2 -10.85 -20.65 -11.5 -19.55 -12.15 -18.65 -12.2 -17.7 L-12.15 -15.9 -11.65 -13.4 Q-11.4 -12.4 -10.75 -11.5 L-8.9 -9.85 -6.9 -8.35 -5.55 -7.4" fill="url(#gradient0)" fill-rule="evenodd" stroke="none"/>
    <path d="M-5.55 -7.4 L-4.5 -9.1 -6.35 -10.45 -8.25 -11.9 -9.5 -13.3 -10.55 -15.2 -10.95 -17.25 -10.75 -19.4 Q-10.55 -20.4 -9.85 -21.2 -10.85 -20.65 -11.5 -19.55 -12.15 -18.65 -12.2 -17.7 L-12.15 -15.9 -11.65 -13.4 Q-11.4 -12.4 -10.75 -11.5 L-8.9 -9.85 -6.9 -8.35 -5.55 -7.4 Z" fill="none" stroke="#000000" stroke-linecap="round" stroke-linejoin="round" stroke-width="0.5"/>
  </g>
  <defs>
    <linearGradient gradientTransform="matrix(-0.0031, 0.0044, 0.0059, 0.0042, -7.9, -14.45)" gradientUnits="userSpaceOnUse" id="gradient0" spreadMethod="pad" x1="-819.2" x2="819.2">
      <stop offset="0.0" stop-color="#a632cd"/>
      <stop offset="0.3176470588235294" stop-color="#830f9f"/>
      <stop offset="0.8235294117647058" stop-color="#000000"/>
    </linearGradient>
  </defs>
</svg>
