<?xml version="1.0" encoding="UTF-8" standalone="no"?>
<svg xmlns:xlink="http://www.w3.org/1999/xlink" height="182.8px" width="287.95px" xmlns="http://www.w3.org/2000/svg">
  <g transform="matrix(1.0, 0.0, 0.0, 1.0, 144.5, 88.9)">
    <path d="M126.95 -87.4 L-128.0 -87.4 Q-134.2 -87.4 -138.6 -83.9 -143.0 -80.45 -143.0 -75.5 L-143.0 80.55 Q-143.0 85.45 -138.6 88.9 -134.2 92.4 -128.0 92.4 L126.95 92.4 Q133.15 92.4 137.55 88.9 141.95 85.45 141.95 80.55 L141.95 -75.5 Q141.95 -80.45 137.55 -83.9 133.15 -87.4 126.95 -87.4 Z" fill="none" stroke="#009900" stroke-linecap="round" stroke-linejoin="round" stroke-width="3.0"/>
    <path d="M137.55 -83.9 Q141.95 -80.45 141.95 -75.5 L141.95 80.55 Q141.95 85.45 137.55 88.9 133.15 92.4 126.95 92.4 L-128.0 92.4 Q-134.2 92.4 -138.6 88.9 -143.0 85.45 -143.0 80.55 L-143.0 -75.5 Q-143.0 -80.45 -138.6 -83.9 -134.2 -87.4 -128.0 -87.4 L126.95 -87.4 Q133.15 -87.4 137.55 -83.9" fill="#000000" fill-rule="evenodd" stroke="none"/>
  </g>
</svg>
