<?xml version="1.0" encoding="UTF-8" standalone="no"?>
<svg xmlns:xlink="http://www.w3.org/1999/xlink" height="48.5px" width="297.4px" xmlns="http://www.w3.org/2000/svg">
  <g transform="matrix(1.0, 0.0, 0.0, 1.0, 145.2, 25.0)">
    <path d="M139.7 -24.5 Q144.65 -24.5 148.15 -21.6 151.7 -18.65 151.7 -14.5 L151.7 13.0 Q151.7 17.15 148.15 20.05 144.65 23.0 139.7 23.0 L-132.7 23.0 Q-137.7 23.0 -141.2 20.05 -144.7 17.15 -144.7 13.0 L-144.7 -14.5 Q-144.7 -18.65 -141.2 -21.6 -137.7 -24.5 -132.7 -24.5 L139.7 -24.5" fill="url(#gradient0)" fill-rule="evenodd" stroke="none"/>
    <path d="M139.7 -24.5 L-132.7 -24.5 Q-137.7 -24.5 -141.2 -21.6 -144.7 -18.65 -144.7 -14.5 L-144.7 13.0 Q-144.7 17.15 -141.2 20.05 -137.7 23.0 -132.7 23.0 L139.7 23.0 Q144.65 23.0 148.15 20.05 151.7 17.15 151.7 13.0 L151.7 -14.5 Q151.7 -18.65 148.15 -21.6 144.65 -24.5 139.7 -24.5 Z" fill="none" stroke="#009900" stroke-linecap="round" stroke-linejoin="round" stroke-width="1.0"/>
  </g>
  <defs>
    <radialGradient cx="0" cy="0" gradientTransform="matrix(0.1432, 0.0677, -0.1264, 0.1856, 3.5, -0.75)" gradientUnits="userSpaceOnUse" id="gradient0" r="819.2" spreadMethod="pad">
      <stop offset="0.0" stop-color="#02b718"/>
      <stop offset="1.0" stop-color="#ffffff"/>
    </radialGradient>
  </defs>
</svg>
