<?xml version="1.0" encoding="UTF-8" standalone="no"?>
<svg xmlns:xlink="http://www.w3.org/1999/xlink" height="48.5px" width="248.0px" xmlns="http://www.w3.org/2000/svg">
  <g transform="matrix(1.0, 0.0, 0.0, 1.0, 120.5, 25.0)">
    <path d="M124.05 -21.6 Q127.0 -18.65 127.0 -14.5 L127.0 13.0 Q127.0 17.15 124.05 20.05 121.15 23.0 117.0 23.0 L-110.0 23.0 Q-114.15 23.0 -117.1 20.05 -120.0 17.15 -120.0 13.0 L-120.0 -14.5 Q-120.0 -18.65 -117.1 -21.6 -114.15 -24.5 -110.0 -24.5 L117.0 -24.5 Q121.15 -24.5 124.05 -21.6" fill="url(#gradient0)" fill-rule="evenodd" stroke="none"/>
    <path d="M124.05 -21.6 Q121.15 -24.5 117.0 -24.5 L-110.0 -24.5 Q-114.15 -24.5 -117.1 -21.6 -120.0 -18.65 -120.0 -14.5 L-120.0 13.0 Q-120.0 17.15 -117.1 20.05 -114.15 23.0 -110.0 23.0 L117.0 23.0 Q121.15 23.0 124.05 20.05 127.0 17.15 127.0 13.0 L127.0 -14.5 Q127.0 -18.65 124.05 -21.6 Z" fill="none" stroke="#009900" stroke-linecap="round" stroke-linejoin="round" stroke-width="1.0"/>
  </g>
  <defs>
    <radialGradient cx="0" cy="0" gradientTransform="matrix(0.1193, 0.0677, -0.1053, 0.1856, 3.5, -0.75)" gradientUnits="userSpaceOnUse" id="gradient0" r="819.2" spreadMethod="pad">
      <stop offset="0.0" stop-color="#02b718"/>
      <stop offset="1.0" stop-color="#ffffff"/>
    </radialGradient>
  </defs>
</svg>
