<?xml version="1.0" encoding="UTF-8" standalone="no"?>
<svg xmlns:xlink="http://www.w3.org/1999/xlink" height="54.0px" width="156.0px" xmlns="http://www.w3.org/2000/svg">
  <g transform="matrix(1.0, 0.0, 0.0, 1.0, 81.5, 26.5)">
    <path d="M72.15 -24.2 Q70.85 -25.5 69.0 -25.5 L-76.0 -25.5 Q-77.85 -25.5 -79.2 -24.2 -80.5 -22.85 -80.5 -21.0 L-80.5 22.0 Q-80.5 23.85 -79.2 25.15 -77.85 26.5 -76.0 26.5 L69.0 26.5 Q70.85 26.5 72.15 25.15 73.5 23.85 73.5 22.0 L73.5 -21.0 Q73.5 -22.85 72.15 -24.2 M69.0 -26.5 Q71.25 -26.5 72.85 -24.9 74.5 -23.25 74.5 -21.0 L74.5 22.0 Q74.5 24.25 72.85 25.85 71.25 27.5 69.0 27.5 L-76.0 27.5 Q-78.25 27.5 -79.9 25.85 -81.5 24.25 -81.5 22.0 L-81.5 -21.0 Q-81.5 -23.25 -79.9 -24.9 -78.25 -26.5 -76.0 -26.5 L69.0 -26.5" fill="#ffffff" fill-rule="evenodd" stroke="none"/>
    <path d="M72.15 -24.2 Q73.5 -22.85 73.5 -21.0 L73.5 22.0 Q73.5 23.85 72.15 25.15 70.85 26.5 69.0 26.5 L-76.0 26.5 Q-77.85 26.5 -79.2 25.15 -80.5 23.85 -80.5 22.0 L-80.5 -21.0 Q-80.5 -22.85 -79.2 -24.2 -77.85 -25.5 -76.0 -25.5 L69.0 -25.5 Q70.85 -25.5 72.15 -24.2" fill="#000000" fill-opacity="0.5019608" fill-rule="evenodd" stroke="none"/>
  </g>
</svg>
