<?xml version="1.0" encoding="UTF-8" standalone="no"?>
<svg xmlns:xlink="http://www.w3.org/1999/xlink" height="71.05px" width="58.0px" xmlns="http://www.w3.org/2000/svg">
  <g transform="matrix(1.0, 0.0, 0.0, 1.0, 29.0, 35.5)">
    <path d="M13.5 -21.65 L25.5 -34.5 28.0 -32.15 16.15 -19.5 14.35 -20.4 13.0 -21.1 13.5 -21.65 14.35 -20.4 13.5 -21.65" fill="url(#gradient0)" fill-rule="evenodd" stroke="none"/>
    <path d="M16.15 -19.5 L20.85 -15.5 -24.1 34.55 Q-39.95 19.3 8.9 -25.5 L13.5 -21.65 13.0 -21.1 14.35 -20.4 16.15 -19.5 M20.85 -15.5 L15.45 -18.75 14.35 -20.4 15.45 -18.75 20.85 -15.5" fill="url(#gradient1)" fill-rule="evenodd" stroke="none"/>
    <path d="M13.5 -21.65 L25.5 -34.5 28.0 -32.15 16.15 -19.5 20.85 -15.5 -24.1 34.55 Q-39.95 19.3 8.9 -25.5 L13.5 -21.65 14.35 -20.4 16.15 -19.5 M14.35 -20.4 L13.0 -21.1 13.5 -21.65 M14.35 -20.4 L15.45 -18.75 20.85 -15.5" fill="none" stroke="#050505" stroke-linecap="round" stroke-linejoin="round" stroke-width="2.0"/>
  </g>
  <defs>
    <linearGradient gradientTransform="matrix(0.0092, 0.0, 0.0, 0.0096, 20.45, -26.6)" gradientUnits="userSpaceOnUse" id="gradient0" spreadMethod="pad" x1="-819.2" x2="819.2">
      <stop offset="0.0" stop-color="#9a5609"/>
      <stop offset="0.7725490196078432" stop-color="#d0b08d"/>
      <stop offset="1.0" stop-color="#ffffff"/>
    </linearGradient>
    <linearGradient gradientTransform="matrix(0.0302, 0.0, 0.0, 0.0367, -3.3, 4.5)" gradientUnits="userSpaceOnUse" id="gradient1" spreadMethod="pad" x1="-819.2" x2="819.2">
      <stop offset="0.0" stop-color="#9b9b9b"/>
      <stop offset="0.4588235294117647" stop-color="#9b9b9b"/>
      <stop offset="1.0" stop-color="#ffffff"/>
    </linearGradient>
  </defs>
</svg>
