<?xml version="1.0" encoding="UTF-8" standalone="no"?>
<svg xmlns:xlink="http://www.w3.org/1999/xlink" height="226.65px" width="232.05px" xmlns="http://www.w3.org/2000/svg">
  <g transform="matrix(1.0, 0.0, 0.0, 1.0, 128.5, 65.75)">
    <path d="M61.75 -65.5 L99.85 -62.9 103.55 -62.75 92.25 -50.15 Q70.6 -26.65 46.9 -5.5 25.4 13.7 7.65 37.35 -7.95 58.2 -24.5 78.45 -30.85 86.25 -37.85 93.7 L-41.25 97.4 Q-51.25 108.2 -60.55 120.05 L-67.75 129.0 Q-72.45 134.7 -77.3 140.2 L-81.9 145.85 Q-89.45 155.75 -99.95 160.7 -101.0 161.2 -102.25 160.4 -110.15 155.2 -113.9 146.1 -117.4 137.6 -120.4 129.0 L-125.95 111.85 Q-129.35 100.35 -128.25 88.15 -127.65 81.6 -125.4 75.5 -121.95 66.25 -119.55 56.85 -117.05 47.0 -111.75 38.6 -102.0 16.7 -86.5 -1.75 -78.05 -11.8 -70.4 -22.45 -59.25 -37.95 -44.2 -50.1 -35.95 -56.75 -28.5 -64.1 L-20.15 -63.85 Q-11.45 -63.65 -3.7 -62.0 9.5 -59.2 22.15 -61.45 37.5 -64.15 52.55 -65.6 56.2 -65.95 61.75 -65.5" fill="#3300cc" fill-rule="evenodd" stroke="none"/>
  </g>
</svg>
