<?xml version="1.0" encoding="UTF-8" standalone="no"?>
<svg xmlns:xlink="http://www.w3.org/1999/xlink" height="233.05px" width="237.45px" xmlns="http://www.w3.org/2000/svg">
  <g transform="matrix(1.0, 0.0, 0.0, 1.0, 128.5, 72.15)">
    <path d="M61.7 -71.9 L99.8 -69.3 108.95 -69.0 Q100.75 -59.4 92.25 -50.15 70.6 -26.65 46.9 -5.5 25.4 13.7 7.65 37.35 -7.95 58.2 -24.5 78.45 -30.85 86.25 -37.85 93.7 L-41.25 97.4 Q-51.25 108.2 -60.55 120.05 L-67.75 129.0 Q-72.45 134.7 -77.3 140.2 L-81.9 145.85 Q-89.45 155.75 -99.95 160.7 -101.0 161.2 -102.25 160.4 -110.15 155.2 -113.9 146.1 -117.4 137.6 -120.4 129.0 L-125.95 111.85 Q-129.35 100.35 -128.25 88.15 -127.65 81.6 -125.4 75.5 -121.95 66.25 -119.55 56.85 -117.05 47.0 -111.75 38.6 -102.0 16.7 -86.5 -1.75 -78.05 -11.8 -70.4 -22.45 -59.25 -37.95 -44.2 -50.1 -32.55 -59.45 -22.6 -70.3 L-20.2 -70.25 Q-11.5 -70.05 -3.75 -68.4 9.45 -65.6 22.1 -67.85 37.45 -70.55 52.5 -72.0 56.15 -72.35 61.7 -71.9" fill="#3300cc" fill-rule="evenodd" stroke="none"/>
  </g>
</svg>
