<?xml version="1.0" encoding="UTF-8" standalone="no"?>
<svg xmlns:xlink="http://www.w3.org/1999/xlink" height="239.45px" width="242.75px" xmlns="http://www.w3.org/2000/svg">
  <g transform="matrix(1.0, 0.0, 0.0, 1.0, 128.5, 78.55)">
    <path d="M61.65 -78.3 L99.75 -75.7 Q106.9 -75.35 114.25 -75.35 103.55 -62.45 92.25 -50.15 70.6 -26.65 46.9 -5.5 25.4 13.7 7.65 37.35 -7.95 58.2 -24.5 78.45 -30.85 86.25 -37.85 93.7 L-41.25 97.4 Q-51.25 108.2 -60.55 120.05 L-67.75 129.0 Q-72.45 134.7 -77.3 140.2 L-81.9 145.85 Q-89.45 155.75 -99.95 160.7 -101.0 161.2 -102.25 160.4 -110.15 155.2 -113.9 146.1 -117.4 137.6 -120.4 129.0 L-125.95 111.85 Q-129.35 100.35 -128.25 88.15 -127.65 81.6 -125.4 75.5 -121.95 66.25 -119.55 56.85 -117.05 47.0 -111.75 38.6 -102.0 16.7 -86.5 -1.75 -78.05 -11.8 -70.4 -22.45 -59.25 -37.95 -44.2 -50.1 -29.3 -62.1 -17.1 -76.5 -10.15 -76.15 -3.8 -74.8 9.4 -72.0 22.05 -74.25 37.4 -76.95 52.45 -78.4 56.1 -78.75 61.65 -78.3" fill="#3300cc" fill-rule="evenodd" stroke="none"/>
  </g>
</svg>
