<?xml version="1.0" encoding="UTF-8" standalone="no"?>
<svg xmlns:xlink="http://www.w3.org/1999/xlink" height="97.3px" width="105.55px" xmlns="http://www.w3.org/2000/svg">
  <g transform="matrix(1.0, 0.0, 0.0, 1.0, 53.2, 31.85)">
    <path d="M28.85 9.5 L29.15 11.15 28.45 9.8 M17.1 11.3 L16.6 11.05 16.25 10.85 M-29.7 9.6 L-30.0 11.25 -29.3 9.9" fill="none" stroke="#000000" stroke-linecap="round" stroke-linejoin="round" stroke-width="0.5"/>
    <path d="M-29.7 9.6 Q-28.6 6.55 -28.1 3.5 -26.45 3.5 -25.7 4.45 -25.8 2.9 -27.5 2.25 L-27.9 2.1 -27.75 0.75 Q-25.5 1.1 -24.0 2.5 -24.25 0.55 -25.65 -0.65 -26.35 -1.25 -27.6 -1.25 L-27.65 -3.75 Q-27.85 -7.05 -30.5 -7.75 -33.05 -8.45 -34.5 -6.7 -36.75 -3.95 -37.35 0.3 -37.85 3.7 -39.25 6.75 -41.1 10.75 -43.5 12.0 -41.4 7.95 -42.4 3.6 -43.05 0.75 -45.05 -0.55 L-44.2 -3.95 -46.35 -1.9 Q-46.9 -1.85 -46.9 -1.35 -50.4 -2.35 -51.75 1.0 -53.3 -1.55 -52.85 -4.7 -52.2 -9.35 -50.7 -13.9 -49.15 -18.65 -46.7 -22.35 -45.15 -24.7 -42.4 -26.4 -40.15 -24.1 -38.8 -21.25 -38.6 -24.2 -40.05 -26.85 L-40.45 -27.45 -39.1 -28.05 Q-37.3 -25.75 -36.75 -22.25 -36.1 -25.9 -37.5 -28.75 L-35.7 -29.45 Q-34.95 -27.8 -34.5 -25.75 -33.85 -27.15 -33.85 -29.25 L-33.95 -29.7 -34.0 -30.05 -31.8 -30.7 Q-27.15 -32.0 -22.25 -31.2 -17.5 -30.5 -13.9 -27.1 -10.3 -23.8 -7.75 -19.85 -5.45 -16.35 -1.8 -14.6 L-0.55 -14.1 -0.3 -14.2 0.95 -14.7 Q4.6 -16.45 6.9 -19.95 9.1 -23.35 12.05 -26.2 L14.95 -22.95 Q15.55 -25.45 13.2 -27.35 16.75 -30.6 21.4 -31.3 26.3 -32.1 30.95 -30.8 35.6 -29.5 39.75 -27.5 43.8 -25.55 45.85 -22.45 48.25 -18.85 49.8 -14.2 46.25 -13.5 45.55 -11.65 47.5 -12.9 50.0 -12.25 L50.45 -12.1 50.85 -10.6 Q47.4 -10.85 45.8 -8.2 48.55 -9.5 51.3 -8.75 L52.0 -4.8 Q52.45 -1.65 50.9 0.9 49.5 -2.55 45.8 -1.4 42.4 -0.35 41.55 3.5 40.55 7.85 42.65 11.9 40.25 10.65 38.4 6.65 37.0 3.6 36.5 0.2 35.9 -4.05 33.65 -6.8 32.55 -8.1 30.85 -8.05 L30.75 -8.5 30.65 -8.75 Q28.75 -13.05 24.6 -12.9 27.65 -10.6 29.25 -7.7 28.35 -7.4 27.75 -6.7 24.4 -9.3 20.55 -9.6 24.0 -8.4 26.65 -5.75 L26.85 -5.55 27.05 -5.25 27.0 -5.0 26.8 -3.85 Q26.5 2.95 28.85 9.5 L28.45 9.8 Q27.65 8.65 26.05 7.55 24.0 6.1 21.55 7.05 18.3 8.25 17.1 11.3 L16.25 10.85 Q14.05 9.75 13.2 8.25 11.95 12.8 16.35 15.0 16.05 21.0 22.05 24.45 26.55 27.0 30.15 23.9 L27.65 30.8 25.8 34.9 25.75 34.75 Q23.95 32.9 21.55 32.7 L24.2 36.4 24.65 36.75 23.7 38.05 23.5 38.1 Q21.9 36.1 20.05 34.7 21.65 37.0 21.75 39.25 L21.9 39.75 22.0 40.05 21.15 40.9 Q19.7 39.25 17.5 37.65 L19.75 42.2 19.2 42.65 Q15.2 46.0 11.9 50.15 L5.05 58.55 4.1 59.6 3.35 60.3 Q1.2 62.6 0.1 65.2 -1.4 62.6 -3.75 60.75 L-3.9 60.65 -5.9 58.65 -12.75 50.25 -14.5 48.15 Q-13.55 46.4 -13.3 44.95 L-15.75 46.8 -16.95 45.6 -16.25 44.5 -13.2 39.55 -18.15 44.45 -20.05 42.75 Q-23.65 39.8 -26.1 35.9 -27.6 33.45 -28.5 30.9 L-31.0 24.0 Q-27.4 27.1 -22.9 24.55 -19.2 22.4 -17.85 19.3 -14.05 20.3 -15.45 24.0 -13.35 20.1 -15.75 15.75 -16.2 15.0 -17.2 15.0 -17.5 8.95 -22.4 7.15 -24.85 6.2 -26.9 7.65 -28.5 8.75 -29.3 9.9 L-29.7 9.6 M-7.8 -1.4 Q-9.1 -0.8 -10.25 0.0 -7.45 -0.05 -4.95 2.45 -1.6 5.8 -1.65 10.75 L-1.95 20.65 -1.25 15.25 Q-0.3 9.75 -1.3 4.25 -2.05 0.0 -2.25 -4.5 -2.35 -6.75 -2.75 -8.75 -3.3 -3.5 -7.8 -1.4 M4.3 -4.3 Q2.7 -5.6 1.9 -7.55 L1.25 -9.0 1.55 0.5 1.8 10.25 Q1.85 15.1 0.75 19.7 0.55 20.3 0.75 21.5 2.05 19.05 2.45 16.0 2.9 12.45 2.95 8.75 3.0 3.3 6.25 -0.3 L8.5 -2.5 Q6.7 -2.45 4.3 -4.3 M2.85 52.75 Q2.85 46.95 -0.5 41.75 L0.3 51.5 0.75 59.0 Q2.9 56.5 2.85 52.75 M-2.0 21.25 L-1.95 20.65 -2.0 21.25 M-2.25 41.5 L-3.35 43.8 Q-5.4 49.6 -2.85 55.3 L-1.0 58.75 Q-0.85 54.9 -1.55 51.25 -2.45 46.45 -2.25 41.5" fill="url(#gradient0)" fill-rule="evenodd" stroke="none"/>
    <path d="M-29.7 9.6 Q-28.6 6.55 -28.1 3.5 -26.45 3.5 -25.7 4.45 -25.8 2.9 -27.5 2.25 L-27.9 2.1 -27.75 0.75 Q-25.5 1.1 -24.0 2.5 -24.25 0.55 -25.65 -0.65 -26.35 -1.25 -27.6 -1.25 L-27.65 -3.75 Q-27.85 -7.05 -30.5 -7.75 -33.05 -8.45 -34.5 -6.7 -36.75 -3.95 -37.35 0.3 -37.85 3.7 -39.25 6.75 -41.1 10.75 -43.5 12.0 -41.4 7.95 -42.4 3.6 -43.05 0.75 -45.05 -0.55 L-44.2 -3.95 -46.35 -1.9 Q-46.9 -1.85 -46.9 -1.35 -50.4 -2.35 -51.75 1.0 -53.3 -1.55 -52.85 -4.7 -52.2 -9.35 -50.7 -13.9 -49.15 -18.65 -46.7 -22.35 -45.15 -24.7 -42.4 -26.4 -40.15 -24.1 -38.8 -21.25 -38.6 -24.2 -40.05 -26.85 L-40.45 -27.45 -39.1 -28.05 Q-37.3 -25.75 -36.75 -22.25 -36.1 -25.9 -37.5 -28.75 L-35.7 -29.45 Q-34.95 -27.8 -34.5 -25.75 -33.85 -27.15 -33.85 -29.25 L-33.95 -29.7 -34.0 -30.05 -31.8 -30.7 Q-27.15 -32.0 -22.25 -31.2 -17.5 -30.5 -13.9 -27.1 -10.3 -23.8 -7.75 -19.85 -5.45 -16.35 -1.8 -14.6 L-0.55 -14.1 -0.3 -14.2 0.95 -14.7 Q4.6 -16.45 6.9 -19.95 9.1 -23.35 12.05 -26.2 L14.95 -22.95 Q15.55 -25.45 13.2 -27.35 16.75 -30.6 21.4 -31.3 26.3 -32.1 30.95 -30.8 35.6 -29.5 39.75 -27.5 43.8 -25.55 45.85 -22.45 48.25 -18.85 49.8 -14.2 46.25 -13.5 45.55 -11.65 47.5 -12.9 50.0 -12.25 L50.45 -12.1 50.85 -10.6 Q47.4 -10.85 45.8 -8.2 48.55 -9.5 51.3 -8.75 L52.0 -4.8 Q52.45 -1.65 50.9 0.9 49.5 -2.55 45.8 -1.4 42.4 -0.35 41.55 3.5 40.55 7.85 42.65 11.9 40.25 10.65 38.4 6.65 37.0 3.6 36.5 0.2 35.9 -4.05 33.65 -6.8 32.55 -8.1 30.85 -8.05 L30.75 -8.5 30.65 -8.75 Q28.75 -13.05 24.6 -12.9 27.65 -10.6 29.25 -7.7 28.35 -7.4 27.75 -6.7 24.4 -9.3 20.55 -9.6 24.0 -8.4 26.65 -5.75 L26.85 -5.55 27.05 -5.25 27.0 -5.0 26.8 -3.85 Q26.5 2.95 28.85 9.5 M28.45 9.8 Q27.65 8.65 26.05 7.55 24.0 6.1 21.55 7.05 18.3 8.25 17.1 11.3 M16.25 10.85 Q14.05 9.75 13.2 8.25 11.95 12.8 16.35 15.0 16.05 21.0 22.05 24.45 26.55 27.0 30.15 23.9 L27.65 30.8 25.8 34.9 25.75 34.75 Q23.95 32.9 21.55 32.7 L24.2 36.4 24.65 36.75 23.7 38.05 23.5 38.1 Q21.9 36.1 20.05 34.7 21.65 37.0 21.75 39.25 L21.9 39.75 22.0 40.05 21.15 40.9 Q19.7 39.25 17.5 37.65 L19.75 42.2 19.2 42.65 Q15.2 46.0 11.9 50.15 L5.05 58.55 4.1 59.6 3.35 60.3 Q1.2 62.6 0.1 65.2 -1.4 62.6 -3.75 60.75 L-3.9 60.65 -5.9 58.65 -12.75 50.25 -14.5 48.15 Q-13.55 46.4 -13.3 44.95 L-15.75 46.8 -16.95 45.6 -16.25 44.5 -13.2 39.55 -18.15 44.45 -20.05 42.75 Q-23.65 39.8 -26.1 35.9 -27.6 33.45 -28.5 30.9 L-31.0 24.0 Q-27.4 27.1 -22.9 24.55 -19.2 22.4 -17.85 19.3 -14.05 20.3 -15.45 24.0 -13.35 20.1 -15.75 15.75 -16.2 15.0 -17.2 15.0 -17.5 8.95 -22.4 7.15 -24.85 6.2 -26.9 7.65 -28.5 8.75 -29.3 9.9 M-7.8 -1.4 Q-9.1 -0.8 -10.25 0.0 -7.45 -0.05 -4.95 2.45 -1.6 5.8 -1.65 10.75 L-1.95 20.65 -1.25 15.25 Q-0.3 9.75 -1.3 4.25 -2.05 0.0 -2.25 -4.5 -2.35 -6.75 -2.75 -8.75 -3.3 -3.5 -7.8 -1.4 M4.3 -4.3 Q2.7 -5.6 1.9 -7.55 L1.25 -9.0 1.55 0.5 1.8 10.25 Q1.85 15.1 0.75 19.7 0.55 20.3 0.75 21.5 2.05 19.05 2.45 16.0 2.9 12.45 2.95 8.75 3.0 3.3 6.25 -0.3 L8.5 -2.5 Q6.7 -2.45 4.3 -4.3 M2.85 52.75 Q2.85 46.95 -0.5 41.75 L0.3 51.5 0.75 59.0 Q2.9 56.5 2.85 52.75 M-1.95 20.65 L-2.0 21.25 M-2.25 41.5 Q-2.45 46.45 -1.55 51.25 -0.85 54.9 -1.0 58.75 L-2.85 55.3 Q-5.4 49.6 -3.35 43.8 L-2.25 41.5 Z" fill="none" stroke="#000000" stroke-linecap="round" stroke-linejoin="round" stroke-width="0.5"/>
  </g>
  <defs>
    <radialGradient cx="0" cy="0" gradientTransform="matrix(0.0625, 0.0192, -0.021, 0.0686, -1.25, 5.25)" gradientUnits="userSpaceOnUse" id="gradient0" r="819.2" spreadMethod="pad">
      <stop offset="0.0" stop-color="#986807"/>
      <stop offset="0.5764705882352941" stop-color="#efca3a"/>
      <stop offset="1.0" stop-color="#ffffff"/>
    </radialGradient>
  </defs>
</svg>
