<?xml version="1.0" encoding="UTF-8" standalone="no"?>
<svg xmlns:xlink="http://www.w3.org/1999/xlink" height="20.4px" width="20.4px" xmlns="http://www.w3.org/2000/svg">
  <g transform="matrix(1.0, 0.0, 0.0, 1.0, 10.05, 10.15)">
    <path d="M5.65 -6.3 L4.95 -6.15 Q3.45 -6.85 4.6 -8.0 4.85 -8.3 5.2 -8.3 7.05 -7.6 5.65 -6.3 M0.95 -9.75 L1.0 -9.65 0.9 -9.5 0.7 -9.3 Q0.0 -9.05 -0.3 -9.6 L-0.3 -9.75 -0.05 -10.1 0.1 -10.1 0.15 -10.15 Q0.7 -10.25 0.95 -9.75 M1.45 -8.05 L1.25 -8.0 Q0.9 -8.0 0.8 -8.35 L0.95 -8.75 1.05 -8.85 1.25 -8.85 1.25 -8.9 1.7 -8.5 1.7 -8.4 1.55 -8.15 1.45 -8.05 M2.7 -4.2 Q2.3 -4.25 2.25 -4.55 2.15 -4.85 2.35 -4.95 L2.5 -5.05 2.7 -5.1 3.1 -4.75 3.15 -4.6 3.0 -4.35 2.85 -4.25 2.7 -4.2 M2.35 -1.35 Q1.95 -1.35 1.9 -1.7 1.8 -1.95 2.0 -2.1 L2.15 -2.2 2.3 -2.2 2.35 -2.25 2.75 -1.85 2.8 -1.75 2.6 -1.5 2.5 -1.4 2.35 -1.35 M9.4 -3.9 L9.5 -4.0 9.7 -4.0 9.7 -4.05 10.25 -3.65 10.3 -3.55 10.1 -3.3 10.0 -3.2 Q9.45 -3.0 9.25 -3.5 L9.4 -3.9 M6.65 -3.55 L6.65 -3.6 Q8.2 -2.95 6.85 -2.05 L6.3 -2.0 Q5.55 -2.35 5.85 -3.05 L6.25 -3.5 6.65 -3.55 M9.5 0.2 Q11.05 0.8 9.75 1.7 L9.15 1.75 Q8.4 1.45 8.75 0.7 L9.1 0.3 9.5 0.2 M6.65 1.3 L6.45 1.35 6.0 1.0 Q5.95 0.75 6.15 0.6 L6.3 0.5 6.45 0.5 6.45 0.45 6.9 0.85 6.9 0.95 6.75 1.2 6.65 1.3 M8.3 4.05 L8.35 4.2 8.2 4.45 8.1 4.55 7.9 4.6 Q7.55 4.55 7.45 4.25 7.4 4.0 7.6 3.85 L7.7 3.75 7.9 3.7 8.3 4.05 M2.6 1.7 L2.45 1.95 2.35 2.1 2.15 2.1 1.7 1.75 Q1.65 1.5 1.85 1.35 L1.95 1.25 2.15 1.25 2.15 1.2 2.55 1.6 2.6 1.7 M0.4 3.0 L0.45 3.1 0.3 3.35 0.15 3.45 0.0 3.5 -0.45 3.15 -0.3 2.75 -0.2 2.65 0.0 2.65 0.0 2.6 0.4 3.0 M3.7 3.75 Q4.75 4.1 4.75 4.75 4.9 5.1 4.35 5.55 L4.15 5.75 3.5 5.85 Q2.0 5.2 3.1 4.05 3.4 3.75 3.7 3.75 M1.25 8.05 L1.25 8.0 Q1.55 8.1 1.7 8.35 L1.7 8.5 1.55 8.75 1.45 8.85 1.25 8.9 0.8 8.55 Q0.75 8.3 0.95 8.15 L1.05 8.05 1.25 8.05 M8.45 6.45 L8.85 6.8 8.9 6.95 8.75 7.2 8.6 7.3 8.45 7.35 8.0 6.95 Q7.9 6.7 8.1 6.55 L8.25 6.5 8.45 6.45 M5.4 7.25 Q7.5 7.75 6.6 9.6 6.2 10.35 5.4 10.25 3.5 10.05 4.0 8.25 4.25 7.45 5.1 7.3 L5.4 7.25 M-3.3 -7.1 L-2.45 -7.6 -2.15 -7.65 Q-0.05 -7.15 -0.95 -5.3 -1.3 -4.55 -2.15 -4.65 -3.9 -4.9 -3.55 -6.35 L-3.5 -6.85 -3.3 -7.1 M-6.0 -6.55 L-6.3 -6.7 -6.8 -7.2 Q-7.0 -7.7 -6.35 -8.35 L-5.75 -8.65 Q-3.9 -8.0 -5.3 -6.65 L-6.0 -6.55 M-7.0 -3.55 L-7.0 -3.6 Q-5.45 -2.95 -6.8 -2.05 L-7.35 -2.0 Q-8.1 -2.35 -7.8 -3.05 L-7.4 -3.5 -7.0 -3.55 M-6.1 -0.1 L-5.7 0.3 -5.65 0.4 -5.8 0.65 -5.95 0.75 -6.1 0.8 Q-6.5 0.8 -6.55 0.45 L-6.45 0.05 -6.3 -0.05 -6.1 -0.05 -6.1 -0.1 M-4.45 -5.45 L-4.55 -5.35 -4.7 -5.3 Q-5.1 -5.3 -5.15 -5.65 L-5.05 -6.05 -4.9 -6.15 -4.75 -6.15 -4.7 -6.2 -4.3 -5.8 -4.25 -5.7 -4.45 -5.45 M-3.1 -1.65 L-2.75 -2.05 -2.35 -2.1 -2.35 -2.15 Q-0.8 -1.55 -2.1 -0.6 L-2.7 -0.55 Q-3.45 -0.9 -3.1 -1.65 M-3.85 4.95 Q-4.2 5.7 -5.0 5.6 -6.9 5.35 -6.4 3.6 -6.15 2.8 -5.3 2.6 L-5.05 2.55 Q-4.3 2.75 -3.9 3.15 -3.25 3.5 -3.55 4.0 L-3.85 4.95 M-9.55 2.1 L-9.15 2.05 Q-7.6 2.65 -8.95 3.55 L-9.5 3.6 Q-10.25 3.3 -9.95 2.55 L-9.55 2.1 M-6.9 5.7 L-6.9 5.65 Q-6.55 5.75 -6.45 6.05 L-6.45 6.15 -6.6 6.4 -6.7 6.5 -6.9 6.55 -7.35 6.2 -7.2 5.8 -7.05 5.7 -6.9 5.7 M-6.65 7.65 L-6.25 8.0 -6.2 8.15 -6.35 8.4 -6.45 8.5 -6.65 8.55 -7.1 8.2 -6.95 7.8 -6.85 7.7 -6.65 7.65 M-2.3 8.9 L-2.85 8.95 Q-3.6 8.65 -3.3 7.9 L-2.95 7.45 -2.55 7.4 -2.5 7.4 Q-0.95 8.0 -2.3 8.9" fill="#ffffff" fill-rule="evenodd" stroke="none"/>
  </g>
</svg>
