<?xml version="1.0" encoding="UTF-8" standalone="no"?>
<svg xmlns:xlink="http://www.w3.org/1999/xlink" height="4.35px" width="3.7px" xmlns="http://www.w3.org/2000/svg">
  <g transform="matrix(1.0, 0.0, 0.0, 1.0, 2.65, -18.25)">
    <path d="M0.6 18.25 Q1.4 18.75 0.85 19.75 L0.8 19.85 0.55 21.15 0.45 21.45 -0.2 21.6 Q-0.35 22.95 -1.55 22.45 L-1.9 22.1 Q-2.35 21.8 -2.25 21.25 L-2.2 21.15 -2.3 21.05 -2.45 20.85 Q-3.0 19.7 -1.95 19.7 -1.75 19.7 -1.7 19.85 -1.5 20.2 -1.45 20.6 L-1.05 20.85 -1.0 20.9 Q-1.05 20.3 -0.5 20.2 L-0.3 20.2 -0.15 19.7 -0.1 19.45 0.0 19.35 0.25 18.5 0.35 18.35 0.45 18.3 0.6 18.3 0.6 18.25" fill="#000000" fill-rule="evenodd" stroke="none"/>
  </g>
</svg>
