<?xml version="1.0" encoding="UTF-8" standalone="no"?>
<svg xmlns:xlink="http://www.w3.org/1999/xlink" height="4.5px" width="3.75px" xmlns="http://www.w3.org/2000/svg">
  <g transform="matrix(1.0, 0.0, 0.0, 1.0, 0.7, -18.2)">
    <path d="M2.5 18.2 Q2.95 18.15 3.05 18.6 L3.05 18.7 Q3.05 19.6 2.6 20.2 L2.3 20.45 0.95 21.8 0.25 22.45 Q-0.2 22.95 -0.7 22.45 -0.5 21.7 0.15 21.05 L0.35 20.75 0.35 20.6 0.4 20.3 Q0.7 19.85 1.2 20.15 L1.35 20.1 1.95 18.9 2.05 18.8 2.05 18.7 2.05 18.6 2.05 18.5 Q2.15 18.2 2.5 18.2" fill="#000000" fill-rule="evenodd" stroke="none"/>
  </g>
</svg>
