<?xml version="1.0" encoding="UTF-8" standalone="no"?>
<svg xmlns:xlink="http://www.w3.org/1999/xlink" height="6.8px" width="7.5px" xmlns="http://www.w3.org/2000/svg">
  <g transform="matrix(1.0, 0.0, 0.0, 1.0, 3.7, 5.55)">
    <path d="M3.3 -2.15 Q3.3 -0.95 2.4 -0.15 1.4 0.75 0.1 0.75 -1.3 0.75 -2.2 -0.15 -3.2 -0.95 -3.2 -2.15 -3.2 -3.35 -2.2 -4.25 -1.3 -5.05 0.1 -5.05 1.4 -5.05 2.4 -4.25 3.3 -3.35 3.3 -2.15" fill="#f74931" fill-rule="evenodd" stroke="none"/>
    <path d="M3.3 -2.15 Q3.3 -0.95 2.4 -0.15 1.4 0.75 0.1 0.75 -1.3 0.75 -2.2 -0.15 -3.2 -0.95 -3.2 -2.15 -3.2 -3.35 -2.2 -4.25 -1.3 -5.05 0.1 -5.05 1.4 -5.05 2.4 -4.25 3.3 -3.35 3.3 -2.15 Z" fill="none" stroke="#000000" stroke-linecap="round" stroke-linejoin="round" stroke-width="1.0"/>
  </g>
</svg>
