<?xml version="1.0" encoding="UTF-8" standalone="no"?>
<svg xmlns:xlink="http://www.w3.org/1999/xlink" height="12.45px" width="9.4px" xmlns="http://www.w3.org/2000/svg">
  <g transform="matrix(1.0, 0.0, 0.0, 1.0, 2.4, 11.55)">
    <path d="M6.25 -9.2 L6.5 -7.0 Q5.7 -8.85 3.5 -8.7 1.75 -8.55 1.2 -6.85 0.7 -5.35 1.25 -3.9 1.85 -2.25 1.95 -0.5 2.0 0.3 1.25 0.4 0.1 -0.9 -1.85 0.4 -2.05 -1.75 -1.65 -3.3 -1.25 -4.95 -1.4 -7.0 -1.55 -9.25 -0.05 -10.2 1.3 -11.1 3.4 -11.05 5.7 -10.95 6.25 -9.2" fill="#f74931" fill-rule="evenodd" stroke="none"/>
    <path d="M6.25 -9.2 L6.5 -7.0 Q5.7 -8.85 3.5 -8.7 1.75 -8.55 1.2 -6.85 0.7 -5.35 1.25 -3.9 1.85 -2.25 1.95 -0.5 2.0 0.3 1.25 0.4 0.1 -0.9 -1.85 0.4 -2.05 -1.75 -1.65 -3.3 -1.25 -4.95 -1.4 -7.0 -1.55 -9.25 -0.05 -10.2 1.3 -11.1 3.4 -11.05 5.7 -10.95 6.25 -9.2 Z" fill="none" stroke="#000000" stroke-linecap="round" stroke-linejoin="round" stroke-width="1.0"/>
  </g>
</svg>
