<?xml version="1.0" encoding="UTF-8" standalone="no"?>
<svg xmlns:xlink="http://www.w3.org/1999/xlink" height="13.8px" width="9.6px" xmlns="http://www.w3.org/2000/svg">
  <g transform="matrix(1.0, 0.0, 0.0, 1.0, 2.75, 13.15)">
    <path d="M4.4 -12.55 Q6.55 -12.15 6.35 -9.85 L6.0 -8.25 Q5.7 -9.9 3.5 -9.5 1.55 -9.2 1.35 -7.5 1.1 -5.45 1.9 -3.8 2.85 -1.9 1.85 -0.65 1.3 0.05 -0.25 -0.2 -1.55 -0.45 -2.25 0.15 -2.3 -1.95 -1.45 -3.15 -0.75 -4.15 -0.7 -5.6 L-0.4 -9.5 Q-0.25 -10.85 0.9 -11.75 2.25 -12.9 4.4 -12.55" fill="#f74931" fill-rule="evenodd" stroke="none"/>
    <path d="M4.4 -12.55 Q6.55 -12.15 6.35 -9.85 L6.0 -8.25 Q5.7 -9.9 3.5 -9.5 1.55 -9.2 1.35 -7.5 1.1 -5.45 1.9 -3.8 2.85 -1.9 1.85 -0.65 1.3 0.05 -0.25 -0.2 -1.55 -0.45 -2.25 0.15 -2.3 -1.95 -1.45 -3.15 -0.75 -4.15 -0.7 -5.6 L-0.4 -9.5 Q-0.25 -10.85 0.9 -11.75 2.25 -12.9 4.4 -12.55 Z" fill="none" stroke="#000000" stroke-linecap="round" stroke-linejoin="round" stroke-width="1.0"/>
  </g>
</svg>
