<?xml version="1.0" encoding="UTF-8" standalone="no"?>
<svg xmlns:xlink="http://www.w3.org/1999/xlink" height="19.05px" width="6.3px" xmlns="http://www.w3.org/2000/svg">
  <g transform="matrix(1.0, 0.0, 0.0, 1.0, 2.3, 17.9)">
    <path d="M0.45 -9.5 Q0.5 -11.55 -0.85 -12.8 -1.2 -15.3 -0.05 -16.4 L0.95 -17.1 3.5 -17.25 Q1.7 -17.25 1.35 -15.7 0.8 -13.55 1.9 -12.2 2.75 -11.15 2.85 -9.35 L3.0 -5.5 Q3.1 -3.5 2.2 -2.25 L1.8 -1.2 1.65 0.5 Q0.35 -1.7 -1.3 -0.35 L-1.75 0.65 Q-1.95 -1.45 -1.15 -2.7 -0.25 -4.1 0.1 -5.85 0.45 -7.5 0.45 -9.5" fill="#f74931" fill-rule="evenodd" stroke="none"/>
    <path d="M0.45 -9.5 Q0.5 -11.55 -0.85 -12.8 -1.2 -15.3 -0.05 -16.4 L0.95 -17.1 3.5 -17.25 Q1.7 -17.25 1.35 -15.7 0.8 -13.55 1.9 -12.2 2.75 -11.15 2.85 -9.35 L3.0 -5.5 Q3.1 -3.5 2.2 -2.25 L1.8 -1.2 1.65 0.5 Q0.35 -1.7 -1.3 -0.35 L-1.75 0.65 Q-1.95 -1.45 -1.15 -2.7 -0.25 -4.1 0.1 -5.85 0.45 -7.5 0.45 -9.5 Z" fill="none" stroke="#000000" stroke-linecap="round" stroke-linejoin="round" stroke-width="1.0"/>
  </g>
</svg>
