<?xml version="1.0" encoding="UTF-8" standalone="no"?>
<svg xmlns:xlink="http://www.w3.org/1999/xlink" height="20.55px" width="8.7px" xmlns="http://www.w3.org/2000/svg">
  <g transform="matrix(1.0, 0.0, 0.0, 1.0, 4.6, 19.4)">
    <path d="M0.85 -9.25 Q0.9 -11.4 -0.35 -12.35 -1.75 -13.4 -1.75 -15.6 -1.8 -16.35 -2.15 -16.8 L-4.1 -18.75 Q-2.1 -19.2 -0.7 -18.1 0.9 -16.8 1.35 -15.15 1.6 -14.25 2.3 -13.5 3.25 -12.5 3.45 -10.75 L3.6 -6.85 Q3.55 -5.05 2.65 -3.85 1.85 -2.85 1.8 -1.5 1.7 -0.25 1.15 0.45 -0.3 -1.0 -1.85 0.65 -2.1 -1.6 -1.25 -2.75 -0.3 -4.05 0.35 -5.8 0.85 -7.3 0.85 -9.25" fill="#f74931" fill-rule="evenodd" stroke="none"/>
    <path d="M0.85 -9.25 Q0.9 -11.4 -0.35 -12.35 -1.75 -13.4 -1.75 -15.6 -1.8 -16.35 -2.15 -16.8 L-4.1 -18.75 Q-2.1 -19.2 -0.7 -18.1 0.9 -16.8 1.35 -15.15 1.6 -14.25 2.3 -13.5 3.25 -12.5 3.45 -10.75 L3.6 -6.85 Q3.55 -5.05 2.65 -3.85 1.85 -2.85 1.8 -1.5 1.7 -0.25 1.15 0.45 -0.3 -1.0 -1.85 0.65 -2.1 -1.6 -1.25 -2.75 -0.3 -4.05 0.35 -5.8 0.85 -7.3 0.85 -9.25 Z" fill="none" stroke="#000000" stroke-linecap="round" stroke-linejoin="round" stroke-width="1.0"/>
  </g>
</svg>
