<?xml version="1.0" encoding="UTF-8" standalone="no"?>
<svg xmlns:xlink="http://www.w3.org/1999/xlink" height="19.15px" width="9.75px" xmlns="http://www.w3.org/2000/svg">
  <g transform="matrix(1.0, 0.0, 0.0, 1.0, 6.0, 18.0)">
    <path d="M0.95 -10.0 Q1.1 -12.1 0.35 -13.35 L-0.7 -14.9 Q-1.75 -16.2 -3.15 -16.9 -4.2 -17.45 -5.5 -17.35 L-1.8 -17.2 Q0.5 -16.55 1.5 -14.6 2.35 -13.0 2.7 -11.25 L3.25 -6.85 Q3.3 -5.1 2.55 -3.95 1.8 -2.8 1.4 -1.35 1.15 -0.55 1.25 0.65 0.1 -1.0 -1.65 0.05 L-2.1 0.65 Q-2.05 -1.3 -0.75 -2.45 -0.5 -2.65 -0.4 -3.0 L0.5 -6.25 0.95 -10.0" fill="#f74931" fill-rule="evenodd" stroke="none"/>
    <path d="M0.95 -10.0 Q1.1 -12.1 0.35 -13.35 L-0.7 -14.9 Q-1.75 -16.2 -3.15 -16.9 -4.2 -17.45 -5.5 -17.35 L-1.8 -17.2 Q0.5 -16.55 1.5 -14.6 2.35 -13.0 2.7 -11.25 L3.25 -6.85 Q3.3 -5.1 2.55 -3.95 1.8 -2.8 1.4 -1.35 1.15 -0.55 1.25 0.65 0.1 -1.0 -1.65 0.05 L-2.1 0.65 Q-2.05 -1.3 -0.75 -2.45 -0.5 -2.65 -0.4 -3.0 L0.5 -6.25 0.95 -10.0 Z" fill="none" stroke="#000000" stroke-linecap="round" stroke-linejoin="round" stroke-width="1.0"/>
  </g>
</svg>
