<?xml version="1.0" encoding="UTF-8" standalone="no"?>
<svg xmlns:xlink="http://www.w3.org/1999/xlink" height="17.3px" width="14.8px" xmlns="http://www.w3.org/2000/svg">
  <g transform="matrix(1.0, 0.0, 0.0, 1.0, 9.1, 16.05)">
    <path d="M4.65 -4.85 Q4.2 -3.15 3.15 -2.1 1.9 -0.95 1.75 0.75 -0.4 -0.75 -1.85 0.75 -1.85 -1.15 -1.15 -2.45 -0.6 -3.5 0.6 -4.05 2.05 -4.7 2.15 -6.35 L2.4 -9.85 Q2.5 -12.15 0.75 -13.15 -0.6 -13.85 -2.5 -13.8 L-5.9 -13.5 Q-7.45 -13.2 -8.6 -12.6 L-7.65 -13.4 Q-6.6 -14.25 -5.2 -14.8 -3.55 -15.45 -1.5 -15.55 0.75 -15.7 1.9 -14.5 L4.1 -12.1 Q5.3 -10.75 5.2 -8.6 5.15 -6.6 4.65 -4.85" fill="#f74931" fill-rule="evenodd" stroke="none"/>
    <path d="M4.65 -4.85 Q5.15 -6.6 5.2 -8.6 5.3 -10.75 4.1 -12.1 L1.9 -14.5 Q0.75 -15.7 -1.5 -15.55 -3.55 -15.45 -5.2 -14.8 -6.6 -14.25 -7.65 -13.4 L-8.6 -12.6 Q-7.45 -13.2 -5.9 -13.5 L-2.5 -13.8 Q-0.6 -13.85 0.75 -13.15 2.5 -12.15 2.4 -9.85 L2.15 -6.35 Q2.05 -4.7 0.6 -4.05 -0.6 -3.5 -1.15 -2.45 -1.85 -1.15 -1.85 0.75 -0.4 -0.75 1.75 0.75 1.9 -0.95 3.15 -2.1 4.2 -3.15 4.65 -4.85 Z" fill="none" stroke="#000000" stroke-linecap="round" stroke-linejoin="round" stroke-width="1.0"/>
  </g>
</svg>
