<?xml version="1.0" encoding="UTF-8" standalone="no"?>
<svg xmlns:xlink="http://www.w3.org/1999/xlink" height="17.45px" width="15.05px" xmlns="http://www.w3.org/2000/svg">
  <g transform="matrix(1.0, 0.0, 0.0, 1.0, 9.35, 15.55)">
    <path d="M2.4 -7.15 Q2.65 -9.05 2.5 -11.0 L1.95 -11.95 Q0.75 -12.95 -1.15 -13.3 L-4.8 -13.1 -7.85 -11.65 -8.85 -10.75 Q-8.4 -12.45 -7.1 -13.6 -5.85 -14.7 -4.0 -14.9 -2.0 -15.15 -0.25 -14.9 1.5 -14.7 3.05 -13.9 3.9 -13.45 4.35 -12.55 5.15 -10.95 5.2 -8.85 5.3 -6.5 4.8 -4.3 4.65 -3.8 4.1 -3.55 2.3 -2.8 2.05 -0.85 L1.5 1.25 Q0.95 0.1 -1.5 1.4 -1.75 -0.75 -0.65 -2.05 L1.3 -4.4 Q2.2 -5.6 2.4 -7.15" fill="#f74931" fill-rule="evenodd" stroke="none"/>
    <path d="M2.4 -7.15 Q2.65 -9.05 2.5 -11.0 L1.95 -11.95 Q0.75 -12.95 -1.15 -13.3 L-4.8 -13.1 -7.85 -11.65 -8.85 -10.75 Q-8.4 -12.45 -7.1 -13.6 -5.85 -14.7 -4.0 -14.9 -2.0 -15.15 -0.25 -14.9 1.5 -14.7 3.05 -13.9 3.9 -13.45 4.35 -12.55 5.15 -10.95 5.2 -8.85 5.3 -6.5 4.8 -4.3 4.65 -3.8 4.1 -3.55 2.3 -2.8 2.05 -0.85 L1.5 1.25 Q0.95 0.1 -1.5 1.4 -1.75 -0.75 -0.65 -2.05 L1.3 -4.4 Q2.2 -5.6 2.4 -7.15 Z" fill="none" stroke="#000000" stroke-linecap="round" stroke-linejoin="round" stroke-width="1.0"/>
  </g>
</svg>
