<?xml version="1.0" encoding="UTF-8" standalone="no"?>
<svg xmlns:xlink="http://www.w3.org/1999/xlink" height="16.75px" width="15.25px" xmlns="http://www.w3.org/2000/svg">
  <g transform="matrix(1.0, 0.0, 0.0, 1.0, 9.0, 14.75)">
    <path d="M3.0 -5.85 L3.4 -7.6 Q3.7 -9.75 2.5 -11.15 1.45 -12.35 -0.85 -12.1 -2.75 -11.85 -4.3 -11.15 -5.7 -10.55 -6.8 -9.4 L-8.4 -7.9 Q-8.8 -9.9 -7.45 -11.2 L-5.25 -13.25 Q-4.05 -14.3 -2.1 -14.25 L1.85 -13.8 Q4.25 -13.35 5.05 -11.3 5.65 -9.8 5.75 -8.0 5.9 -5.7 4.6 -4.1 L2.3 -1.4 Q1.45 -0.45 1.65 1.5 0.0 0.25 -1.6 1.5 -1.45 -0.3 -0.25 -1.5 L1.8 -3.7 Q2.6 -4.7 3.0 -5.85" fill="#f74931" fill-rule="evenodd" stroke="none"/>
    <path d="M3.0 -5.85 L3.4 -7.6 Q3.7 -9.75 2.5 -11.15 1.45 -12.35 -0.85 -12.1 -2.75 -11.85 -4.3 -11.15 -5.7 -10.55 -6.8 -9.4 L-8.4 -7.9 Q-8.8 -9.9 -7.45 -11.2 L-5.25 -13.25 Q-4.05 -14.3 -2.1 -14.25 L1.85 -13.8 Q4.25 -13.35 5.05 -11.3 5.65 -9.8 5.75 -8.0 5.9 -5.7 4.6 -4.1 L2.3 -1.4 Q1.45 -0.45 1.65 1.5 0.0 0.25 -1.6 1.5 -1.45 -0.3 -0.25 -1.5 L1.8 -3.7 Q2.6 -4.7 3.0 -5.85 Z" fill="none" stroke="#000000" stroke-linecap="round" stroke-linejoin="round" stroke-width="1.0"/>
  </g>
</svg>
