<?xml version="1.0" encoding="UTF-8" standalone="no"?>
<svg xmlns:xlink="http://www.w3.org/1999/xlink" height="14.15px" width="16.65px" xmlns="http://www.w3.org/2000/svg">
  <g transform="matrix(1.0, 0.0, 0.0, 1.0, 8.35, 7.1)">
    <path d="M4.65 -0.95 Q5.1 -3.1 3.55 -3.95 2.45 -4.55 0.95 -4.6 -1.15 -4.6 -2.55 -3.45 L-5.0 -1.1 Q-6.15 0.2 -6.5 1.6 L-6.7 3.55 Q-8.05 2.5 -7.8 -0.05 -7.6 -2.3 -5.7 -3.65 L-3.15 -5.4 Q-1.25 -6.65 1.2 -6.6 L4.65 -6.15 Q6.55 -5.65 7.45 -3.85 7.9 -3.0 7.8 -1.95 7.6 0.15 6.35 1.6 L3.7 4.15 Q2.55 5.05 1.8 6.2 0.8 5.15 -1.55 6.55 -1.4 4.75 0.05 3.8 L2.8 1.95 Q4.25 0.85 4.65 -0.95" fill="#f74931" fill-rule="evenodd" stroke="none"/>
    <path d="M4.65 -0.95 Q5.1 -3.1 3.55 -3.95 2.45 -4.55 0.95 -4.6 -1.15 -4.6 -2.55 -3.45 L-5.0 -1.1 Q-6.15 0.2 -6.5 1.6 L-6.7 3.55 Q-8.05 2.5 -7.8 -0.05 -7.6 -2.3 -5.7 -3.65 L-3.15 -5.4 Q-1.25 -6.65 1.2 -6.6 L4.65 -6.15 Q6.55 -5.65 7.45 -3.85 7.9 -3.0 7.8 -1.95 7.6 0.15 6.35 1.6 L3.7 4.15 Q2.55 5.05 1.8 6.2 0.8 5.15 -1.55 6.55 -1.4 4.75 0.05 3.8 L2.8 1.95 Q4.25 0.85 4.65 -0.95 Z" fill="none" stroke="#000000" stroke-linecap="round" stroke-linejoin="round" stroke-width="1.0"/>
  </g>
</svg>
