<?xml version="1.0" encoding="UTF-8" standalone="no"?>
<svg xmlns:xlink="http://www.w3.org/1999/xlink" height="3.65px" width="4.1px" xmlns="http://www.w3.org/2000/svg">
  <g transform="matrix(1.0, 0.0, 0.0, 1.0, 2.15, 2.5)">
    <path d="M0.8 -0.85 Q0.9 -1.3 0.6 -1.45 L0.1 -1.6 -0.6 -1.35 -1.1 -0.9 -1.4 -0.35 -1.45 0.05 Q-1.7 -0.15 -1.65 -0.65 -1.65 -1.1 -1.25 -1.4 L-0.75 -1.75 0.15 -2.0 0.8 -1.9 1.4 -1.45 1.45 -1.05 1.15 -0.35 0.65 0.15 0.25 0.6 -0.4 0.65 -0.1 0.1 0.45 -0.25 0.8 -0.85" fill="#f74931" fill-rule="evenodd" stroke="none"/>
    <path d="M0.8 -0.85 Q0.9 -1.3 0.6 -1.45 L0.1 -1.6 -0.6 -1.35 -1.1 -0.9 -1.4 -0.35 -1.45 0.05 Q-1.7 -0.15 -1.65 -0.65 -1.65 -1.1 -1.25 -1.4 L-0.75 -1.75 0.15 -2.0 0.8 -1.9 1.4 -1.45 1.45 -1.05 1.15 -0.35 0.65 0.15 0.25 0.6 -0.4 0.65 -0.1 0.1 0.45 -0.25 0.8 -0.85 Z" fill="none" stroke="#000000" stroke-linecap="round" stroke-linejoin="round" stroke-width="1.0"/>
  </g>
</svg>
