<?xml version="1.0" encoding="UTF-8" standalone="no"?>
<svg xmlns:xlink="http://www.w3.org/1999/xlink" height="106.2px" width="64.15px" xmlns="http://www.w3.org/2000/svg">
  <g transform="matrix(1.0, 0.0, 0.0, 1.0, 32.05, 98.1)">
    <path d="M-30.3 -32.75 L-31.55 -34.65 Q-32.65 -37.05 -31.3 -39.5 L-30.3 -40.95 Q-27.25 -44.6 -23.8 -37.55 -23.35 -36.9 -24.5 -33.1 -28.15 -30.65 -30.3 -32.75 M-19.3 -33.05 Q-16.95 -33.15 -18.1 -31.7 -21.0 -28.05 -19.3 -33.05 M-21.8 -90.05 Q-12.15 -91.05 -15.75 -78.25 -27.6 -78.75 -21.8 -90.05 M22.15 -31.05 Q16.8 -28.0 21.2 -34.55 23.95 -32.05 22.15 -31.05 M13.7 -70.7 Q12.25 -62.3 10.7 -71.05 14.0 -72.55 13.7 -70.7 M1.5 -90.25 Q4.7 -91.45 6.2 -89.35 11.75 -81.6 6.9 -72.2 2.6 -64.0 -0.05 -55.0 -2.8 -45.75 -1.15 -36.1 -0.1 -30.05 5.25 -29.9 9.8 -29.75 9.15 -36.15 8.2 -45.8 8.95 -55.5 9.55 -63.05 16.5 -64.85 28.05 -67.9 26.15 -56.05 24.6 -46.75 18.5 -39.75 12.85 -33.3 14.0 -22.55 15.05 -12.3 12.55 -3.1 10.0 6.5 1.05 7.85 -10.4 9.55 -9.8 -1.55 -10.4 -3.45 -9.95 -6.55 -8.65 -15.65 -11.0 -25.25 -13.0 -33.45 -20.0 -39.75 -26.3 -45.4 -27.4 -54.6 -27.8 -58.05 -26.6 -61.1 -22.5 -71.6 -15.2 -60.8 -12.75 -57.2 -9.7 -55.7 -6.35 -54.0 -5.95 -56.75 -4.45 -66.45 -6.05 -75.9 -7.9 -86.85 1.5 -90.25 M31.7 -95.05 Q32.25 -94.85 32.0 -91.55 31.25 -80.95 24.25 -76.0 15.1 -69.6 15.8 -84.1 16.1 -89.7 18.65 -93.35 24.65 -101.9 31.7 -95.05" fill="#54d261" fill-opacity="0.4509804" fill-rule="evenodd" stroke="none"/>
  </g>
</svg>
