<?xml version="1.0" encoding="UTF-8" standalone="no"?>
<svg xmlns:xlink="http://www.w3.org/1999/xlink" height="89.45px" width="63.25px" xmlns="http://www.w3.org/2000/svg">
  <g transform="matrix(1.0, 0.0, 0.0, 1.0, 31.85, 80.75)">
    <path d="M11.7 -51.35 Q15.35 -53.0 15.0 -57.4 14.15 -67.95 20.55 -71.8 29.7 -77.2 31.15 -64.95 32.45 -54.15 27.55 -47.55 24.7 -43.65 22.6 -39.5 18.5 -31.3 18.9 -21.0 19.35 -10.5 15.95 -3.4 14.0 0.6 11.75 3.9 8.3 8.85 -0.35 8.7 -11.3 8.5 -12.85 -0.5 -10.25 -4.9 -14.25 -10.75 -19.6 -18.7 -27.75 -21.75 -29.9 -22.55 -30.35 -23.5 -35.15 -33.15 -24.8 -34.05 -19.4 -34.5 -17.25 -30.05 -14.4 -24.3 -8.7 -23.25 -3.1 -22.25 -3.7 -29.1 -4.55 -38.5 -9.1 -46.4 -13.9 -54.75 -10.7 -64.1 -7.55 -73.15 -1.5 -79.15 1.95 -82.65 3.8 -78.6 7.75 -69.9 5.15 -60.25 1.55 -46.7 11.7 -51.35" fill="#49d057" fill-opacity="0.8509804" fill-rule="evenodd" stroke="none"/>
  </g>
</svg>
