<?xml version="1.0" encoding="UTF-8" standalone="no"?>
<svg xmlns:xlink="http://www.w3.org/1999/xlink" height="111.35px" width="64.8px" xmlns="http://www.w3.org/2000/svg">
  <g transform="matrix(1.0, 0.0, 0.0, 1.0, 33.4, 102.65)">
    <path d="M-16.35 -38.0 L-13.25 -38.1 Q-13.85 -29.95 -16.35 -38.0 M-8.35 -82.5 Q-7.4 -82.2 -8.1 -79.2 -16.0 -77.4 -8.35 -82.5 M-32.85 -54.0 Q-33.8 -57.45 -30.9 -57.75 -22.35 -58.6 -20.1 -51.25 -17.7 -43.4 -24.35 -43.3 -35.7 -43.15 -32.85 -54.0 M16.6 -93.95 Q15.95 -89.35 11.85 -90.05 0.8 -91.9 7.15 -102.5 18.05 -103.8 16.6 -93.95 M5.15 -60.25 Q1.55 -46.7 11.7 -51.35 15.35 -53.0 15.0 -57.4 14.15 -67.95 20.55 -71.8 29.7 -77.2 31.15 -64.95 32.45 -54.15 27.55 -47.55 24.7 -43.65 22.6 -39.5 18.5 -31.3 18.9 -21.0 19.35 -10.5 15.95 -3.4 14.0 0.6 11.75 3.9 8.3 8.85 -0.35 8.7 -11.3 8.5 -12.85 -0.5 -10.25 -4.9 -14.25 -10.75 -19.6 -18.7 -27.75 -21.75 -29.9 -22.55 -30.35 -23.5 -35.15 -33.15 -24.8 -34.05 -19.4 -34.5 -17.25 -30.05 -14.4 -24.3 -8.7 -23.25 -3.1 -22.25 -3.7 -29.1 -4.55 -38.5 -9.1 -46.4 -13.9 -54.75 -10.7 -64.1 -7.55 -73.15 -1.5 -79.15 1.95 -82.65 3.8 -78.6 7.75 -69.9 5.15 -60.25 M19.15 -85.5 Q22.95 -85.05 21.8 -80.6 13.4 -77.85 19.15 -85.5" fill="#49d057" fill-opacity="0.050980393" fill-rule="evenodd" stroke="none"/>
  </g>
</svg>
