<?xml version="1.0" encoding="UTF-8" standalone="no"?>
<svg xmlns:xlink="http://www.w3.org/1999/xlink" height="56.2px" width="67.6px" xmlns="http://www.w3.org/2000/svg">
  <g transform="matrix(1.0, 0.0, 0.0, 1.0, 37.5, 47.6)">
    <path d="M26.85 -29.75 L27.9 -28.95 29.7 -27.1 30.0 -26.75 Q30.7 -21.85 27.15 -18.55 23.2 -14.95 19.75 -10.85 L18.7 -9.35 Q17.45 -7.05 16.9 -4.6 L13.7 0.05 Q8.8 7.9 -0.9 8.5 -11.15 9.15 -18.9 4.7 -34.35 7.95 -32.15 -3.25 -31.6 -6.15 -25.65 -3.8 -25.75 -9.6 -32.15 -12.6 -34.45 -16.05 -37.5 -19.15 L-37.5 -20.65 -37.5 -22.15 -37.5 -22.5 -36.8 -23.3 -36.05 -24.4 -35.9 -24.75 -33.25 -25.0 Q-31.6 -23.85 -30.4 -22.15 L-29.2 -20.6 Q-26.3 -17.35 -22.45 -16.25 -20.6 -14.0 -17.95 -12.85 -9.2 -9.0 -12.9 -17.55 L-15.2 -22.15 Q-15.25 -25.55 -19.0 -28.65 -20.65 -33.95 -20.95 -39.5 L-21.0 -42.15 -20.55 -42.55 -18.25 -44.4 -17.75 -44.75 -16.0 -44.75 -15.75 -44.65 Q-11.9 -41.4 -11.55 -36.35 -11.05 -29.3 -3.75 -29.75 -2.05 -29.85 -1.15 -31.3 2.7 -37.55 1.5 -45.4 L1.75 -45.7 2.95 -46.9 3.25 -47.25 Q6.05 -48.3 8.1 -46.35 L8.35 -46.0 Q8.6 -43.6 8.15 -41.2 6.9 -33.95 6.0 -26.5 5.8 -24.75 6.7 -23.35 7.55 -20.9 9.8 -18.45 11.1 -16.95 12.8 -18.3 L14.65 -19.8 Q16.0 -20.05 17.55 -20.7 19.25 -21.4 19.85 -23.15 21.75 -28.75 26.85 -29.75" fill="#49d057" fill-opacity="0.8509804" fill-rule="evenodd" stroke="none"/>
  </g>
</svg>
