<?xml version="1.0" encoding="UTF-8" standalone="no"?>
<svg xmlns:xlink="http://www.w3.org/1999/xlink" height="11.15px" width="5.75px" xmlns="http://www.w3.org/2000/svg">
  <g transform="matrix(1.0, 0.0, 0.0, 1.0, 3.35, 8.8)">
    <path d="M2.15 -0.05 Q2.15 0.85 1.45 1.45 0.8 2.1 -0.1 2.1 -1.05 2.1 -1.75 1.45 -3.1 0.25 -3.1 -2.45 L-2.4 -5.55 -1.3 -8.55 Q-0.7 -3.65 -0.1 -3.6 L1.45 -1.6 Q2.15 -0.95 2.15 -0.05" fill="url(#gradient0)" fill-rule="evenodd" stroke="none"/>
    <path d="M2.15 -0.05 Q2.15 0.85 1.45 1.45 0.8 2.1 -0.1 2.1 -1.05 2.1 -1.75 1.45 -3.1 0.25 -3.1 -2.45 L-2.4 -5.55 -1.3 -8.55 Q-0.7 -3.65 -0.1 -3.6 L1.45 -1.6 Q2.15 -0.95 2.15 -0.05 Z" fill="none" stroke="#000000" stroke-linecap="round" stroke-linejoin="round" stroke-width="0.5"/>
  </g>
  <defs>
    <radialGradient cx="0" cy="0" gradientTransform="matrix(0.0036, 0.0, 0.0, 0.0036, -0.1, -0.05)" gradientUnits="userSpaceOnUse" id="gradient0" r="819.2" spreadMethod="pad">
      <stop offset="0.0" stop-color="#bebe4b"/>
      <stop offset="1.0" stop-color="#ffffff"/>
    </radialGradient>
  </defs>
</svg>
