<?xml version="1.0" encoding="UTF-8" standalone="no"?>
<svg xmlns:xlink="http://www.w3.org/1999/xlink" height="71.0px" width="58.0px" xmlns="http://www.w3.org/2000/svg">
  <g transform="matrix(1.0, 0.0, 0.0, 1.0, 57.9, 9.5)">
    <path d="M-15.4 4.35 L-3.4 -8.5 -0.9 -6.2 -12.8 6.55 -13.45 7.25 -15.95 4.95 -15.4 4.35" fill="url(#gradient0)" fill-rule="evenodd" stroke="none"/>
    <path d="M-12.8 6.55 L-8.05 10.5 -7.5 11.0 -53.0 60.5 Q-68.9 45.3 -20.05 0.5 L-15.4 4.35 -15.95 4.95 -13.45 7.25 -12.8 6.55" fill="url(#gradient1)" fill-rule="evenodd" stroke="none"/>
    <path d="M-15.4 4.35 L-3.4 -8.5 -0.9 -6.2 -12.8 6.55 -13.45 7.25 -15.95 4.95 -15.4 4.35" fill="none" stroke="#000000" stroke-linecap="round" stroke-linejoin="round" stroke-width="2.0"/>
    <path d="M-12.8 6.55 L-8.05 10.5 M-7.5 11.0 L-7.05 10.5 M-15.4 4.35 L-20.05 0.5 Q-68.9 45.3 -53.0 60.5 L-7.5 11.0" fill="none" stroke="#000000" stroke-linecap="round" stroke-linejoin="round" stroke-width="2.0"/>
  </g>
  <defs>
    <linearGradient gradientTransform="matrix(0.0092, 0.0, 0.0, 0.0096, -8.45, -0.6)" gradientUnits="userSpaceOnUse" id="gradient0" spreadMethod="pad" x1="-819.2" x2="819.2">
      <stop offset="0.0" stop-color="#9e5605"/>
      <stop offset="0.7725490196078432" stop-color="#d2b08b"/>
      <stop offset="1.0" stop-color="#ffffff"/>
    </linearGradient>
    <linearGradient gradientTransform="matrix(0.0302, 0.0, 0.0, 0.0367, -32.2, 30.5)" gradientUnits="userSpaceOnUse" id="gradient1" spreadMethod="pad" x1="-819.2" x2="819.2">
      <stop offset="0.0" stop-color="#999999"/>
      <stop offset="0.4588235294117647" stop-color="#999999"/>
      <stop offset="1.0" stop-color="#ffffff"/>
    </linearGradient>
  </defs>
</svg>
