<?xml version="1.0" encoding="UTF-8" standalone="no"?>
<svg xmlns:xlink="http://www.w3.org/1999/xlink" height="27.4px" width="37.6px" xmlns="http://www.w3.org/2000/svg">
  <g transform="matrix(1.0, 0.0, 0.0, 1.0, 19.1, 8.0)">
    <path d="M-16.25 -2.15 L-16.25 -2.1 Q-17.25 -1.55 -17.9 -0.45 L-17.85 -0.05 -17.8 0.3 -17.25 0.6 -17.0 0.55 -16.8 0.45 -16.65 0.25 Q-15.85 -0.55 -15.65 -1.65 L-15.75 -1.8 -16.25 -2.15 M-0.3 -6.05 Q7.45 -6.1 12.95 -4.05 18.45 -1.95 18.5 1.0 18.45 3.95 12.95 6.0 7.45 8.1 -0.3 8.1 -8.1 8.1 -13.6 6.0 -19.1 3.95 -19.1 1.0 -19.1 -1.95 -13.6 -4.05 -8.1 -6.1 -0.3 -6.05 M15.6 1.25 L12.6 4.35 Q12.75 4.85 13.25 4.85 15.65 3.9 16.6 1.6 L16.45 1.45 16.0 1.1 16.0 1.15 15.6 1.25" fill="#2b2b2b" fill-rule="evenodd" stroke="none"/>
    <path d="M-16.25 -2.15 L-15.75 -1.8 -15.65 -1.65 Q-15.85 -0.55 -16.65 0.25 L-16.8 0.45 -17.0 0.55 -17.25 0.6 -17.8 0.3 -17.85 -0.05 -17.9 -0.45 Q-17.25 -1.55 -16.25 -2.1 L-16.25 -2.15 M15.6 1.25 L16.0 1.15 16.0 1.1 16.45 1.45 16.6 1.6 Q15.65 3.9 13.25 4.85 12.75 4.85 12.6 4.35 L15.6 1.25" fill="#ffffff" fill-rule="evenodd" stroke="none"/>
    <path d="M12.5 7.6 L11.45 6.75 12.5 6.75 12.5 7.6 M9.25 6.75 L6.85 9.8 6.5 9.95 Q6.05 10.2 5.65 10.6 L5.05 11.3 Q4.75 11.8 4.6 12.35 L4.55 12.5 4.5 13.0 3.35 13.0 3.4 12.85 3.55 11.85 3.45 11.0 3.4 10.85 2.95 9.85 2.3 9.1 1.55 8.5 0.5 8.1 -0.5 8.0 -1.5 8.1 -2.5 8.45 -3.35 9.1 -3.95 9.8 -4.4 10.85 -4.45 11.0 -4.5 11.85 -4.4 12.85 -4.35 13.0 -5.25 13.0 -5.3 12.75 -5.35 12.6 Q-5.5 12.05 -5.8 11.6 L-6.45 10.85 -7.2 10.25 Q-7.35 10.15 -7.45 10.15 L-7.05 9.85 -9.5 6.75 9.25 6.75 M11.15 10.4 L12.5 8.7 12.5 12.95 12.45 12.5 12.4 12.35 11.95 11.35 11.3 10.6 11.15 10.4 M-11.45 10.35 L-12.1 10.85 -12.7 11.55 -12.75 11.65 -12.75 8.75 -11.45 10.35 M-12.0 6.75 L-12.75 7.35 -12.75 6.75 -12.0 6.75" fill="#acacac" fill-rule="evenodd" stroke="none"/>
    <path d="M11.45 6.75 L12.5 7.6 13.05 8.05 12.5 8.7 11.15 10.4 10.55 10.0 9.5 9.6 8.5 9.5 7.5 9.6 6.85 9.8 9.25 6.75 10.1 5.7 11.45 6.75 M9.95 10.55 L10.65 11.0 10.8 11.15 11.4 11.9 10.95 12.35 9.5 12.35 9.5 11.0 9.95 10.55 M11.6 12.35 L11.65 12.5 11.75 13.0 11.8 13.35 11.6 14.35 10.95 14.35 9.95 13.4 10.95 12.35 11.6 12.35 M11.4 14.8 L10.8 15.55 9.9 16.2 9.5 15.8 9.5 16.35 8.5 16.5 7.5 16.35 7.5 15.85 7.15 16.2 Q6.6 15.95 6.15 15.55 L5.65 14.9 6.15 14.35 7.5 14.35 7.5 15.85 8.55 14.8 9.5 15.8 9.5 14.35 10.95 14.35 11.4 14.8 M5.4 14.35 Q5.2 13.9 5.25 13.35 L5.25 13.0 5.35 12.5 5.4 12.35 6.1 12.35 7.15 13.4 6.15 14.35 5.4 14.35 M5.6 11.85 L6.2 11.15 6.2 11.1 Q6.6 10.75 7.1 10.55 L7.5 10.95 7.5 12.35 6.1 12.35 5.6 11.85 M7.5 10.35 L8.5 10.25 9.5 10.4 9.5 11.0 8.55 12.0 7.5 10.95 7.5 10.35 M0.95 9.05 L1.8 9.65 2.4 10.4 1.95 10.85 0.5 10.85 0.5 9.5 0.95 9.05 M2.6 10.85 L2.65 11.0 2.8 11.85 2.6 12.85 1.95 12.85 0.95 11.9 1.95 10.85 2.6 10.85 M2.4 13.3 L1.8 14.05 0.9 14.7 0.5 14.3 0.5 14.85 -0.5 15.0 -1.5 14.85 -1.5 14.35 -0.45 13.3 0.5 14.3 0.5 12.85 1.95 12.85 2.4 13.3 M-1.85 14.7 L-2.85 14.05 -3.35 13.4 -2.85 12.85 -1.5 12.85 -1.5 14.35 -1.85 14.7 M-3.6 12.85 L-3.75 11.85 -3.65 11.0 -3.6 10.85 -2.9 10.85 -1.85 11.9 -2.85 12.85 -3.6 12.85 M-3.4 10.35 L-2.8 9.65 -2.8 9.6 Q-2.4 9.25 -1.9 9.05 L-1.5 9.45 -1.5 10.85 -2.9 10.85 -3.4 10.35 M-1.5 8.85 L-0.5 8.75 0.5 8.9 0.5 9.5 -0.45 10.5 -1.5 9.45 -1.5 8.85 M0.5 12.35 L0.0 12.85 -0.9 12.85 -1.5 12.3 -1.5 11.5 -0.85 10.85 -0.05 10.85 0.5 11.45 0.5 12.35 M8.95 12.35 L9.5 12.95 9.5 13.85 9.0 14.35 8.1 14.35 7.5 13.8 7.5 13.0 8.15 12.35 8.95 12.35 M-8.25 10.65 L-8.25 11.25 -9.2 12.25 -10.25 11.2 -10.25 10.6 -9.25 10.5 -8.25 10.65 M-10.65 10.8 L-10.25 11.2 -10.25 12.6 -11.65 12.6 -10.6 13.65 -11.6 14.6 -10.25 14.6 -10.25 16.1 -9.2 15.05 -8.25 16.05 -8.25 14.6 -6.8 14.6 -7.8 13.65 -6.8 12.6 -8.25 12.6 -8.25 11.25 -7.8 10.8 -6.95 11.4 -6.35 12.15 -6.8 12.6 -6.15 12.6 -6.1 12.75 -6.0 13.0 -5.95 13.6 -6.15 14.6 -6.8 14.6 -6.35 15.05 -6.95 15.8 -7.85 16.45 -8.25 16.05 -8.25 16.6 -9.25 16.75 -10.25 16.6 -10.25 16.1 -10.6 16.45 -11.6 15.8 -12.1 15.15 -11.6 14.6 -12.35 14.6 -12.5 13.6 -12.45 13.0 -12.4 12.75 -12.35 12.6 -11.65 12.6 -12.15 12.1 -11.55 11.4 -11.55 11.35 -10.95 10.95 -10.65 10.8 M-7.45 10.15 L-8.25 9.85 -9.25 9.75 -10.25 9.85 -11.25 10.2 -11.45 10.35 -12.75 8.75 -13.4 7.9 -12.75 7.35 -12.0 6.75 -10.5 5.55 -9.5 6.75 -7.05 9.85 -7.45 10.15 M-10.25 13.25 L-9.6 12.6 -8.8 12.6 -8.25 13.2 -8.25 14.1 -8.75 14.6 -9.65 14.6 -10.25 14.05 -10.25 13.25" fill="#333333" fill-rule="evenodd" stroke="none"/>
    <path d="M6.85 9.8 L7.5 9.6 8.5 9.5 9.5 9.6 10.55 10.0 11.15 10.4 11.3 10.6 11.95 11.35 12.4 12.35 12.45 12.5 12.5 12.95 12.55 13.35 12.4 14.35 11.95 15.35 11.3 16.1 11.35 16.1 10.45 16.75 9.5 17.1 8.5 17.25 7.5 17.1 6.6 16.75 5.65 16.1 5.1 15.4 4.6 14.35 4.5 13.35 4.5 13.0 4.55 12.5 4.6 12.35 Q4.75 11.8 5.05 11.3 L5.65 10.6 Q6.05 10.2 6.5 9.95 L6.85 9.8 M11.4 11.9 L10.8 11.15 10.65 11.0 9.95 10.55 9.5 10.4 8.5 10.25 7.5 10.35 7.25 10.45 7.1 10.55 Q6.6 10.75 6.2 11.1 L6.15 11.15 6.2 11.15 5.6 11.85 5.4 12.35 5.35 12.5 5.25 13.0 5.25 13.35 Q5.2 13.9 5.4 14.35 L5.65 14.9 6.15 15.55 Q6.6 15.95 7.15 16.2 L7.5 16.35 8.5 16.5 9.5 16.35 9.9 16.2 10.8 15.55 11.4 14.8 11.6 14.35 11.8 13.35 11.75 13.0 11.65 12.5 11.6 12.35 11.4 11.9 M-4.35 13.0 L-4.4 12.85 -4.5 11.85 -4.45 11.0 -4.4 10.85 -3.95 9.8 -3.35 9.1 -2.5 8.45 -1.5 8.1 -0.5 8.0 0.5 8.1 1.55 8.5 2.3 9.1 2.95 9.85 3.4 10.85 3.45 11.0 3.55 11.85 3.4 12.85 3.35 13.0 2.95 13.85 2.3 14.6 2.35 14.6 1.45 15.25 0.5 15.6 -0.5 15.75 -1.5 15.6 -2.4 15.25 -3.35 14.6 -3.9 13.9 -4.35 13.0 M0.95 9.05 L0.5 8.9 -0.5 8.75 -1.5 8.85 -1.9 9.05 Q-2.4 9.25 -2.8 9.6 L-2.85 9.65 -2.8 9.65 -3.4 10.35 -3.6 10.85 -3.65 11.0 -3.75 11.85 -3.6 12.85 -3.55 13.0 -3.35 13.4 -2.85 14.05 -1.85 14.7 -1.5 14.85 -0.5 15.0 0.5 14.85 0.9 14.7 1.8 14.05 2.4 13.3 2.55 13.0 2.6 12.85 2.8 11.85 2.65 11.0 2.6 10.85 2.4 10.4 1.8 9.65 0.95 9.05 M-8.25 10.65 L-9.25 10.5 -10.25 10.6 -10.65 10.8 -10.95 10.95 -11.55 11.35 -11.6 11.4 -11.55 11.4 -12.15 12.1 -12.35 12.6 -12.4 12.75 -12.45 13.0 -12.5 13.6 -12.35 14.6 -12.1 15.15 -11.6 15.8 -10.6 16.45 -10.25 16.6 -9.25 16.75 -8.25 16.6 -7.85 16.45 -6.95 15.8 -6.35 15.05 -6.15 14.6 -5.95 13.6 -6.0 13.0 -6.1 12.75 -6.15 12.6 -6.35 12.15 -6.95 11.4 -7.8 10.8 -8.1 10.65 -8.25 10.65 M-11.45 10.35 L-11.25 10.2 -10.25 9.85 -9.25 9.75 -8.25 9.85 -7.45 10.15 Q-7.35 10.15 -7.2 10.25 L-6.45 10.85 -5.8 11.6 Q-5.5 12.05 -5.35 12.6 L-5.3 12.75 -5.25 13.0 -5.2 13.6 -5.35 14.6 -5.8 15.6 -6.45 16.35 -6.4 16.35 -7.3 17.0 -8.25 17.35 -9.25 17.5 -10.25 17.35 -11.15 17.0 -12.1 16.35 -12.65 15.65 -13.15 14.6 -13.25 13.6 -13.2 12.75 -13.15 12.6 -12.75 11.65 -12.7 11.55 -12.1 10.85 -11.45 10.35" fill="#525252" fill-rule="evenodd" stroke="none"/>
    <path d="M11.4 11.9 L11.6 12.35 10.95 12.35 9.95 13.4 10.95 14.35 11.6 14.35 11.4 14.8 10.95 14.35 9.5 14.35 9.5 15.8 8.55 14.8 7.5 15.85 7.5 14.35 6.15 14.35 5.65 14.9 5.4 14.35 6.15 14.35 7.15 13.4 6.1 12.35 5.4 12.35 5.6 11.85 6.1 12.35 7.5 12.35 7.5 10.95 7.1 10.55 7.25 10.45 7.5 10.35 7.5 10.95 8.55 12.0 9.5 11.0 9.5 10.4 9.95 10.55 9.5 11.0 9.5 12.35 10.95 12.35 11.4 11.9 M9.9 16.2 L9.5 16.35 9.5 15.8 9.9 16.2 M7.5 16.35 L7.15 16.2 7.5 15.85 7.5 16.35 M0.5 8.9 L0.95 9.05 0.5 9.5 0.5 8.9 M2.4 10.4 L2.6 10.85 1.95 10.85 0.95 11.9 1.95 12.85 2.6 12.85 2.55 13.0 2.4 13.3 1.95 12.85 0.5 12.85 0.5 14.3 -0.45 13.3 -1.5 14.35 -1.5 14.85 -1.85 14.7 -1.5 14.35 -1.5 12.85 -2.85 12.85 -3.35 13.4 -3.55 13.0 -3.6 12.85 -2.85 12.85 -1.85 11.9 -2.9 10.85 -3.6 10.85 -3.4 10.35 -2.9 10.85 -1.5 10.85 -1.5 9.45 -1.9 9.05 -1.5 8.85 -1.5 9.45 -0.45 10.5 0.5 9.5 0.5 10.85 1.95 10.85 2.4 10.4 M0.9 14.7 L0.5 14.85 0.5 14.3 0.9 14.7 M0.5 12.35 L0.5 11.45 -0.05 10.85 -0.85 10.85 -1.5 11.5 -1.5 12.3 -0.9 12.85 0.0 12.85 0.5 12.35 M8.95 12.35 L8.15 12.35 7.5 13.0 7.5 13.8 8.1 14.35 9.0 14.35 9.5 13.85 9.5 12.95 8.95 12.35 M-10.25 10.6 L-10.25 11.2 -9.2 12.25 -8.25 11.25 -8.25 10.65 -8.1 10.65 -7.8 10.8 -8.25 11.25 -8.25 12.6 -6.8 12.6 -7.8 13.65 -6.8 14.6 -8.25 14.6 -8.25 16.05 -9.2 15.05 -10.25 16.1 -10.25 14.6 -11.6 14.6 -10.6 13.65 -11.65 12.6 -10.25 12.6 -10.25 11.2 -10.65 10.8 -10.25 10.6 M-6.35 12.15 L-6.15 12.6 -6.8 12.6 -6.35 12.15 M-6.15 14.6 L-6.35 15.05 -6.8 14.6 -6.15 14.6 M-7.85 16.45 L-8.25 16.6 -8.25 16.05 -7.85 16.45 M-10.25 16.6 L-10.6 16.45 -10.25 16.1 -10.25 16.6 M-12.1 15.15 L-12.35 14.6 -11.6 14.6 -12.1 15.15 M-12.35 12.6 L-12.15 12.1 -11.65 12.6 -12.35 12.6 M-10.25 13.25 L-10.25 14.05 -9.65 14.6 -8.75 14.6 -8.25 14.1 -8.25 13.2 -8.8 12.6 -9.6 12.6 -10.25 13.25" fill="#ffff00" fill-rule="evenodd" stroke="none"/>
    <path d="M6.2 11.15 L6.15 11.15 6.2 11.1 6.2 11.15 M-2.8 9.65 L-2.85 9.65 -2.8 9.6 -2.8 9.65 M-11.55 11.4 L-11.6 11.4 -11.55 11.35 -11.55 11.4" fill="#e7e7e7" fill-rule="evenodd" stroke="none"/>
    <path d="M1.0 -6.4 L1.0 -6.35 -3.25 -6.1 Q-3.95 -6.05 -3.9 -5.4 L-3.6 -5.2 2.5 -4.95 2.65 -5.1 2.8 -5.25 2.85 -5.45 2.85 -5.6 Q2.15 -6.45 1.0 -6.4 M5.5 -7.4 L5.25 -7.3 4.85 -7.0 4.85 -6.65 4.85 -6.25 5.05 -6.05 5.1 -5.9 5.1 -5.7 5.1 -5.5 5.3 -5.3 5.35 -5.15 5.2 -4.75 5.1 -4.4 Q5.6 -3.55 6.45 -4.05 L6.5 -4.25 Q7.0 -6.25 5.5 -7.4 M11.55 -3.1 L11.45 -3.2 11.4 -3.85 10.95 -4.6 Q10.6 -4.9 10.15 -4.85 9.7 -4.8 9.4 -4.45 9.1 -4.1 9.15 -3.65 L9.25 -2.75 -9.9 -2.75 -9.85 -3.75 Q-9.85 -4.2 -10.2 -4.55 -10.55 -4.9 -11.0 -4.85 L-11.8 -4.55 -12.1 -4.0 -12.5 -5.25 -10.95 -6.95 -7.75 -8.0 6.25 -8.0 Q9.9 -7.25 10.2 -6.95 L11.5 -5.5 11.75 -3.75 11.55 -3.1 M-7.0 -7.65 L-7.2 -7.5 Q-8.0 -6.9 -8.4 -5.95 L-8.4 -5.4 -8.3 -3.7 -7.75 -3.4 -7.5 -3.45 -7.3 -3.55 -7.25 -3.95 Q-7.35 -5.7 -6.15 -6.95 L-6.15 -7.1 Q-6.4 -7.65 -7.0 -7.65" fill="#a2a2a2" fill-rule="evenodd" stroke="none"/>
    <path d="M5.5 -7.4 Q7.0 -6.25 6.5 -4.25 L6.45 -4.05 Q5.6 -3.55 5.1 -4.4 L5.2 -4.75 5.35 -5.15 5.3 -5.3 5.1 -5.5 5.1 -5.7 5.1 -5.9 5.05 -6.05 4.85 -6.25 4.85 -6.65 4.85 -7.0 5.25 -7.3 5.5 -7.4 M1.0 -6.4 Q2.15 -6.45 2.85 -5.6 L2.85 -5.45 2.8 -5.25 2.65 -5.1 2.5 -4.95 -3.6 -5.2 -3.9 -5.4 Q-3.95 -6.05 -3.25 -6.1 L1.0 -6.35 1.0 -6.4 M-7.0 -7.65 Q-6.4 -7.65 -6.15 -7.1 L-6.15 -6.95 Q-7.35 -5.7 -7.25 -3.95 L-7.3 -3.55 -7.5 -3.45 -7.75 -3.4 -8.3 -3.7 -8.4 -5.4 -8.4 -5.95 Q-8.0 -6.9 -7.2 -7.5 L-7.0 -7.65" fill="#333333" fill-rule="evenodd" stroke="none"/>
    <path d="M9.25 -2.75 L9.15 -3.65 Q9.1 -4.1 9.4 -4.45 9.7 -4.8 10.15 -4.85 10.6 -4.9 10.95 -4.6 L11.4 -3.85 11.45 -3.2 11.55 -3.1 Q15.35 1.15 12.05 8.5 L11.9 8.75 Q10.95 8.2 9.9 8.05 L10.0 7.55 Q12.7 1.5 9.55 -1.95 9.25 -2.25 9.25 -2.65 L9.25 -2.75 M-12.1 -4.0 L-11.8 -4.55 -11.0 -4.85 Q-10.55 -4.9 -10.2 -4.55 -9.85 -4.2 -9.85 -3.75 L-9.9 -2.75 -10.1 -2.1 Q-12.95 2.05 -10.75 6.25 -10.55 6.65 -10.65 7.1 L-11.2 7.75 -12.05 7.85 -12.75 7.3 Q-15.5 2.1 -12.15 -3.1 L-12.1 -3.75 -12.1 -4.0" fill="#848284" fill-rule="evenodd" stroke="none"/>
    <path d="M9.9 8.05 Q10.95 8.2 11.9 8.75 L13.05 9.6 Q14.8 11.25 14.8 13.55 14.8 15.85 13.05 17.5 11.3 19.15 8.85 19.15 6.4 19.15 4.65 17.5 L3.7 16.35 4.05 16.0 Q5.8 14.35 5.8 12.05 5.8 10.5 5.05 9.3 6.65 7.95 8.85 7.95 L9.9 8.05" fill="url(#gradient0)" fill-rule="evenodd" stroke="none"/>
    <path d="M-3.85 16.4 L-4.95 17.75 Q-6.7 19.4 -9.15 19.4 -11.6 19.4 -13.35 17.75 -15.1 16.1 -15.1 13.8 -15.1 11.5 -13.35 9.85 -11.6 8.2 -9.15 8.2 -7.0 8.2 -5.4 9.45 -6.1 10.6 -6.1 12.05 -6.1 14.35 -4.35 16.0 L-3.85 16.4" fill="url(#gradient1)" fill-rule="evenodd" stroke="none"/>
    <path d="M3.7 16.35 Q2.05 17.65 -0.15 17.65 -2.3 17.65 -3.85 16.4 L-4.35 16.0 Q-6.1 14.35 -6.1 12.05 -6.1 10.6 -5.4 9.45 L-4.35 8.1 Q-2.6 6.45 -0.15 6.45 2.3 6.45 4.05 8.1 L5.05 9.3 Q5.8 10.5 5.8 12.05 5.8 14.35 4.05 16.0 L3.7 16.35" fill="url(#gradient2)" fill-rule="evenodd" stroke="none"/>
  </g>
  <defs>
    <radialGradient cx="0" cy="0" gradientTransform="matrix(0.0078, 0.0, 0.0, 0.0078, 8.85, 13.55)" gradientUnits="userSpaceOnUse" id="gradient0" r="819.2" spreadMethod="pad">
      <stop offset="0.0" stop-color="#ffec0b" stop-opacity="0.7137255"/>
      <stop offset="1.0" stop-color="#ffe00b" stop-opacity="0.0"/>
    </radialGradient>
    <radialGradient cx="0" cy="0" gradientTransform="matrix(0.0078, 0.0, 0.0, 0.0078, -9.15, 13.8)" gradientUnits="userSpaceOnUse" id="gradient1" r="819.2" spreadMethod="pad">
      <stop offset="0.0" stop-color="#ffec0b" stop-opacity="0.7137255"/>
      <stop offset="1.0" stop-color="#ffe00b" stop-opacity="0.0"/>
    </radialGradient>
    <radialGradient cx="0" cy="0" gradientTransform="matrix(0.0078, 0.0, 0.0, 0.0078, -0.15, 12.05)" gradientUnits="userSpaceOnUse" id="gradient2" r="819.2" spreadMethod="pad">
      <stop offset="0.0" stop-color="#ffec0b" stop-opacity="0.7137255"/>
      <stop offset="1.0" stop-color="#ffe00b" stop-opacity="0.0"/>
    </radialGradient>
  </defs>
</svg>
