<?xml version="1.0" encoding="UTF-8" standalone="no"?>
<svg xmlns:xlink="http://www.w3.org/1999/xlink" height="26.3px" width="20.15px" xmlns="http://www.w3.org/2000/svg">
  <g transform="matrix(1.0, 0.0, 0.0, 1.0, 9.25, 16.55)">
    <path d="M8.3 -2.0 Q8.75 -0.7 8.75 0.85 8.75 4.55 6.1 7.1 3.5 9.7 -0.25 9.75 -4.0 9.7 -6.65 7.1 -9.25 4.55 -9.25 0.85 L-8.8 -2.0 -8.05 -1.75 7.6 -1.75 Q8.0 -1.75 8.3 -2.0 M5.35 6.1 L5.2 5.95 4.75 5.6 Q2.95 6.6 1.85 8.1 2.1 8.7 2.75 8.6 4.6 7.8 5.35 6.1" fill="#000000" fill-rule="evenodd" stroke="none"/>
    <path d="M5.35 6.1 Q4.6 7.8 2.75 8.6 2.1 8.7 1.85 8.1 2.95 6.6 4.75 5.6 L5.2 5.95 5.35 6.1" fill="#ffffff" fill-rule="evenodd" stroke="none"/>
    <path d="M7.25 -8.7 L7.7 -8.45 8.0 -8.0 7.6 -8.05 7.2 -8.05 7.25 -8.5 7.25 -8.7 M-8.2 -8.05 L-7.95 -8.45 -7.25 -8.75 -0.5 -8.75 -0.5 -8.05 -8.05 -8.05 -8.2 -8.05 M2.25 -8.75 L3.0 -8.75 3.0 -8.5 3.05 -8.05 2.25 -8.05 2.25 -8.75" fill="#454545" fill-rule="evenodd" stroke="none"/>
    <path d="M8.0 -8.0 L8.4 -7.75 8.7 -6.95 8.7 -2.85 8.4 -2.05 8.3 -2.0 Q8.0 -1.75 7.6 -1.75 L-8.05 -1.75 -8.8 -2.0 -8.85 -2.05 Q-9.2 -2.4 -9.15 -2.85 L-9.15 -6.95 Q-9.2 -7.4 -8.85 -7.75 L-8.2 -8.05 -8.05 -8.05 -0.5 -8.05 2.25 -8.05 3.05 -8.05 7.2 -8.05 7.6 -8.05 8.0 -8.0 M7.2 -6.3 L6.75 -6.65 6.75 -6.6 6.35 -6.5 6.2 -6.3 6.1 -6.15 6.1 -5.75 6.1 -5.5 6.1 -4.25 2.9 -4.25 Q1.15 -4.4 0.85 -3.15 L1.15 -2.9 Q3.65 -2.55 6.25 -2.9 L6.75 -2.65 7.05 -2.8 7.35 -3.15 7.35 -3.5 7.35 -3.7 7.35 -3.85 7.35 -3.95 7.35 -6.15 7.2 -6.3 M-2.65 -6.7 Q-2.6 -7.05 -2.95 -7.1 L-4.2 -7.2 -7.15 -7.35 -7.5 -7.65 -7.5 -7.6 -7.9 -7.5 -8.0 -7.3 Q-8.35 -7.25 -8.35 -6.8 L-8.35 -6.75 -8.4 -6.75 -8.4 -6.65 -8.4 -6.4 -8.3 -3.95 -8.0 -3.75 -7.75 -3.65 -7.45 -3.8 -7.15 -4.15 -7.15 -4.5 -7.15 -4.95 -7.05 -6.15 -5.9 -6.15 -3.0 -6.2 -2.7 -6.5 -2.65 -6.7" fill="#cacaca" fill-rule="evenodd" stroke="none"/>
    <path d="M6.7 -11.6 Q7.25 -11.0 7.25 -10.25 L7.25 -8.7 7.25 -8.5 7.2 -8.05 3.05 -8.05 3.0 -8.5 3.0 -8.75 3.0 -10.25 Q3.0 -11.05 3.6 -11.65 L4.05 -11.95 Q3.1 -10.4 4.9 -9.6 5.6 -9.35 6.1 -9.95 6.85 -10.9 6.7 -11.6" fill="#7a747a" fill-rule="evenodd" stroke="none"/>
    <path d="M-0.5 -8.75 L-0.5 -9.9 Q-0.5 -10.45 -0.1 -10.85 L0.0 -10.9 -0.15 -10.05 Q1.05 -9.0 1.7 -10.4 L1.65 -10.55 1.4 -11.15 1.85 -10.85 Q2.25 -10.45 2.25 -9.9 L2.25 -8.75 2.25 -8.05 -0.5 -8.05 -0.5 -8.75" fill="#787278" fill-rule="evenodd" stroke="none"/>
    <path d="M-2.65 -6.7 L-2.7 -6.5 -3.0 -6.2 -5.9 -6.15 -7.05 -6.15 -7.15 -4.95 -7.15 -4.5 -7.15 -4.15 -7.45 -3.8 -7.75 -3.65 -8.0 -3.75 -8.3 -3.95 -8.4 -6.4 -8.4 -6.65 -8.4 -6.75 -8.35 -6.75 -8.35 -6.8 Q-8.35 -7.25 -8.0 -7.3 L-7.9 -7.5 -7.5 -7.6 -7.5 -7.65 -7.15 -7.35 -4.2 -7.2 -2.95 -7.1 Q-2.6 -7.05 -2.65 -6.7" fill="#eae9eb" fill-rule="evenodd" stroke="none"/>
    <path d="M7.2 -6.3 L7.35 -6.15 7.35 -3.95 7.35 -3.85 7.35 -3.7 7.35 -3.5 7.35 -3.15 7.05 -2.8 6.75 -2.65 6.25 -2.9 Q3.65 -2.55 1.15 -2.9 L0.85 -3.15 Q1.15 -4.4 2.9 -4.25 L6.1 -4.25 6.1 -5.5 6.1 -5.75 6.1 -6.15 6.2 -6.3 6.35 -6.5 6.75 -6.6 6.75 -6.65 7.2 -6.3" fill="#a8a5a9" fill-rule="evenodd" stroke="none"/>
    <path d="M0.0 -10.9 L0.0 -10.95 0.3 -11.3 0.45 -11.35 0.75 -11.4 0.75 -11.45 1.4 -11.15 1.65 -10.55 1.7 -10.4 Q1.05 -9.0 -0.15 -10.05 L0.0 -10.9 M4.05 -11.95 L4.15 -12.2 Q4.6 -12.8 5.25 -12.8 6.55 -12.35 6.7 -11.6 6.85 -10.9 6.1 -9.95 5.6 -9.35 4.9 -9.6 3.1 -10.4 4.05 -11.95" fill="#ffe308" fill-rule="evenodd" stroke="none"/>
    <path d="M5.0 -5.75 Q2.55 -5.75 0.8 -7.35 -0.9 -8.9 -0.9 -11.15 -0.9 -13.4 0.8 -15.0 2.55 -16.55 5.0 -16.55 7.45 -16.55 9.15 -15.0 10.9 -13.4 10.9 -11.15 10.9 -8.9 9.15 -7.35 7.45 -5.75 5.0 -5.75" fill="url(#gradient0)" fill-rule="evenodd" stroke="none"/>
  </g>
  <defs>
    <radialGradient cx="0" cy="0" gradientTransform="matrix(0.0076, 0.0, 0.0, 0.0076, 5.0, -11.15)" gradientUnits="userSpaceOnUse" id="gradient0" r="819.2" spreadMethod="pad">
      <stop offset="0.0" stop-color="#ffec0b" stop-opacity="0.7137255"/>
      <stop offset="1.0" stop-color="#ffe00b" stop-opacity="0.0"/>
    </radialGradient>
  </defs>
</svg>
