<?xml version="1.0" encoding="UTF-8" standalone="no"?>
<svg xmlns:xlink="http://www.w3.org/1999/xlink" height="21.6px" width="20.75px" xmlns="http://www.w3.org/2000/svg">
  <g transform="matrix(1.0, 0.0, 0.0, 1.0, 10.35, 10.8)">
    <path d="M0.35 -4.55 L0.55 -5.05 0.35 -5.6 -0.1 -5.8 -0.55 -5.6 -0.75 -5.05 -0.55 -4.55 -0.1 -4.3 0.35 -4.55 M-1.55 -9.45 L0.05 -9.6 1.65 -9.45 1.65 3.7 1.65 4.0 -1.55 4.0 -1.55 3.7 -1.55 -9.45 M0.8 -8.05 L0.5 -8.75 -0.1 -9.05 -0.75 -8.75 -1.0 -8.05 -0.75 -7.35 Q-0.45 -7.05 -0.1 -7.05 0.25 -7.05 0.5 -7.35 L0.8 -8.05" fill="#780101" fill-rule="evenodd" stroke="none"/>
    <path d="M0.35 -4.55 L-0.1 -4.3 -0.55 -4.55 -0.75 -5.05 -0.55 -5.6 -0.1 -5.8 0.35 -5.6 0.55 -5.05 0.35 -4.55 M0.8 -8.05 L0.5 -7.35 Q0.25 -7.05 -0.1 -7.05 -0.45 -7.05 -0.75 -7.35 L-1.0 -8.05 -0.75 -8.75 -0.1 -9.05 0.5 -8.75 0.8 -8.05" fill="#000000" fill-rule="evenodd" stroke="none"/>
    <path d="M1.65 -9.45 L1.65 -10.8 Q4.25 -10.1 6.35 -7.8 9.5 -4.35 9.5 0.45 L9.05 4.0 1.95 4.0 1.95 3.7 1.65 3.7 1.65 -9.45" fill="#c90101" fill-rule="evenodd" stroke="none"/>
    <path d="M-8.95 4.0 Q-9.45 2.3 -9.4 0.45 -9.45 -4.35 -6.35 -7.8 -4.25 -10.1 -1.55 -10.8 L-1.55 -9.45 -1.55 3.7 -1.9 3.7 -1.9 4.0 -8.95 4.0 M-3.35 -8.05 L-3.3 -8.45 -3.45 -8.6 -4.0 -8.8 Q-5.15 -8.3 -6.05 -7.25 -8.25 -4.55 -7.45 -1.45 L-6.55 -1.5 -6.4 -1.9 Q-6.0 -5.45 -3.45 -7.9 L-3.35 -8.05" fill="#ce0000" fill-rule="evenodd" stroke="none"/>
    <path d="M-3.35 -8.05 L-3.45 -7.9 Q-6.0 -5.45 -6.4 -1.9 L-6.55 -1.5 -7.45 -1.45 Q-8.25 -4.55 -6.05 -7.25 -5.15 -8.3 -4.0 -8.8 L-3.45 -8.6 -3.3 -8.45 -3.35 -8.05" fill="#fe6b6b" fill-rule="evenodd" stroke="none"/>
    <path d="M9.05 4.0 L10.1 4.0 10.2 3.7 10.4 3.7 Q9.55 5.5 8.15 7.0 5.9 9.5 3.0 10.35 L0.05 10.8 -2.95 10.35 Q-5.85 9.55 -8.15 7.0 -9.55 5.5 -10.35 3.7 L-10.15 3.7 -10.05 4.0 -8.95 4.0 -1.9 4.0 -1.9 3.7 -1.55 3.7 -1.55 4.0 1.65 4.0 1.65 3.7 1.95 3.7 1.95 4.0 9.05 4.0 M6.3 5.6 L6.0 5.45 6.0 5.5 1.55 8.85 1.7 9.05 2.0 9.2 Q5.35 8.4 6.45 5.75 L6.3 5.6" fill="#a30101" fill-rule="evenodd" stroke="none"/>
    <path d="M6.3 5.6 L6.45 5.75 Q5.35 8.4 2.0 9.2 L1.7 9.05 1.55 8.85 6.0 5.5 6.0 5.45 6.3 5.6" fill="#550000" fill-rule="evenodd" stroke="none"/>
  </g>
</svg>
