<?xml version="1.0" encoding="UTF-8" standalone="no"?>
<svg xmlns:xlink="http://www.w3.org/1999/xlink" height="75.05px" width="52.75px" xmlns="http://www.w3.org/2000/svg">
  <g transform="matrix(1.0, 0.0, 0.0, 1.0, 52.6, 9.55)">
    <path d="M-14.35 5.25 L-3.55 -8.55 -0.85 -6.5 -11.55 7.2 -12.15 8.0 -14.85 5.9 -14.35 5.25" fill="url(#gradient0)" fill-rule="evenodd" stroke="none"/>
    <path d="M-11.55 7.2 L-6.5 10.7 -5.95 11.15 -46.85 64.5 Q-64.0 50.75 -19.3 1.8 L-14.35 5.25 -14.85 5.9 -12.15 8.0 -11.55 7.2" fill="url(#gradient1)" fill-rule="evenodd" stroke="none"/>
    <path d="M-14.35 5.25 L-3.55 -8.55 -0.85 -6.5 -11.55 7.2 -12.15 8.0 -14.85 5.9 -14.35 5.25" fill="none" stroke="#000000" stroke-linecap="round" stroke-linejoin="round" stroke-width="2.0"/>
    <path d="M-11.55 7.2 L-6.5 10.7 M-5.95 11.15 L-5.5 10.6 M-14.35 5.25 L-19.3 1.8 Q-64.0 50.75 -46.85 64.5 L-5.95 11.15" fill="none" stroke="#000000" stroke-linecap="round" stroke-linejoin="round" stroke-width="2.0"/>
  </g>
  <defs>
    <linearGradient gradientTransform="matrix(0.0091, -8.0E-4, 8.0E-4, 0.0096, -7.9, -0.3)" gradientUnits="userSpaceOnUse" id="gradient0" spreadMethod="pad" x1="-819.2" x2="819.2">
      <stop offset="0.0" stop-color="#9e5605"/>
      <stop offset="0.7725490196078432" stop-color="#d2b08b"/>
      <stop offset="1.0" stop-color="#ffffff"/>
    </linearGradient>
    <linearGradient gradientTransform="matrix(0.03, -0.0027, 0.0032, 0.0365, -28.8, 32.8)" gradientUnits="userSpaceOnUse" id="gradient1" spreadMethod="pad" x1="-819.2" x2="819.2">
      <stop offset="0.0" stop-color="#999999"/>
      <stop offset="0.4588235294117647" stop-color="#999999"/>
      <stop offset="1.0" stop-color="#ffffff"/>
    </linearGradient>
  </defs>
</svg>
