<?xml version="1.0" encoding="UTF-8" standalone="no"?>
<svg xmlns:xlink="http://www.w3.org/1999/xlink" height="71.0px" width="75.85px" xmlns="http://www.w3.org/2000/svg">
  <g transform="matrix(1.0, 0.0, 0.0, 1.0, 57.9, 9.5)">
    <path d="M-15.4 4.35 L-3.4 -8.5 -0.9 -6.2 -12.8 6.55 -13.45 7.25 -15.95 4.95 -15.4 4.35" fill="url(#gradient0)" fill-rule="evenodd" stroke="none"/>
    <path d="M-12.8 6.55 L-8.05 10.5 -7.5 11.0 -53.0 60.5 Q-68.9 45.3 -20.05 0.5 L-15.4 4.35 -15.95 4.95 -13.45 7.25 -12.8 6.55" fill="url(#gradient1)" fill-rule="evenodd" stroke="none"/>
    <path d="M-15.4 4.35 L-3.4 -8.5 -0.9 -6.2 -12.8 6.55 -13.45 7.25 -15.95 4.95 -15.4 4.35" fill="none" stroke="#000000" stroke-linecap="round" stroke-linejoin="round" stroke-width="2.0"/>
    <path d="M-12.8 6.55 L-8.05 10.5 M-7.5 11.0 L-7.05 10.5 M-15.4 4.35 L-20.05 0.5 Q-68.9 45.3 -53.0 60.5 L-7.5 11.0" fill="none" stroke="#000000" stroke-linecap="round" stroke-linejoin="round" stroke-width="2.0"/>
    <path d="M6.3 -5.0 Q9.55 -4.65 12.2 -3.7 16.95 -2.0 16.95 0.4 16.95 2.8 12.2 4.45 9.25 5.5 5.6 5.9 L5.95 5.55 Q8.25 3.3 8.25 0.1 8.25 -2.85 6.3 -5.0 M-4.7 5.8 Q-7.95 5.4 -10.55 4.45 -15.25 2.8 -15.25 0.4 -15.25 -2.0 -10.55 -3.7 -8.2 -4.5 -5.4 -4.9 -7.25 -2.75 -7.25 0.1 -7.25 3.3 -5.0 5.55 L-4.7 5.8" fill="url(#gradient2)" fill-rule="evenodd" stroke="none"/>
    <path d="M-5.4 -4.9 L-5.0 -5.4 Q-2.7 -7.65 0.5 -7.65 3.7 -7.65 5.95 -5.4 L6.3 -5.0 Q8.25 -2.85 8.25 0.1 8.25 3.3 5.95 5.55 L5.6 5.9 Q3.45 7.85 0.5 7.85 -2.5 7.85 -4.7 5.8 L-5.0 5.55 Q-7.25 3.3 -7.25 0.1 -7.25 -2.75 -5.4 -4.9" fill="url(#gradient3)" fill-rule="evenodd" stroke="none"/>
    <path d="M-5.4 -4.9 L-5.0 -5.4 Q-2.7 -7.65 0.5 -7.65 3.7 -7.65 5.95 -5.4 L6.3 -5.0 Q9.55 -4.65 12.2 -3.7 16.95 -2.0 16.95 0.4 16.95 2.8 12.2 4.45 9.25 5.5 5.6 5.9 3.45 7.85 0.5 7.85 -2.5 7.85 -4.7 5.8 -7.95 5.4 -10.55 4.45 -15.25 2.8 -15.25 0.4 -15.25 -2.0 -10.55 -3.7 -8.2 -4.5 -5.4 -4.9 -7.25 -2.75 -7.25 0.1 -7.25 3.3 -5.0 5.55 L-4.7 5.8 M6.3 -5.0 Q8.25 -2.85 8.25 0.1 8.25 3.3 5.95 5.55 L5.6 5.9" fill="none" stroke="#000000" stroke-linecap="round" stroke-linejoin="round" stroke-width="2.0"/>
  </g>
  <defs>
    <linearGradient gradientTransform="matrix(0.0092, 0.0, 0.0, 0.0096, -8.45, -0.6)" gradientUnits="userSpaceOnUse" id="gradient0" spreadMethod="pad" x1="-819.2" x2="819.2">
      <stop offset="0.0" stop-color="#9e5605"/>
      <stop offset="0.7725490196078432" stop-color="#d2b08b"/>
      <stop offset="1.0" stop-color="#ffffff"/>
    </linearGradient>
    <linearGradient gradientTransform="matrix(0.0302, 0.0, 0.0, 0.0367, -32.2, 30.5)" gradientUnits="userSpaceOnUse" id="gradient1" spreadMethod="pad" x1="-819.2" x2="819.2">
      <stop offset="0.0" stop-color="#999999"/>
      <stop offset="0.4588235294117647" stop-color="#999999"/>
      <stop offset="1.0" stop-color="#ffffff"/>
    </linearGradient>
    <linearGradient gradientTransform="matrix(0.0196, 0.0, 0.0, 0.007, 0.8, 0.4)" gradientUnits="userSpaceOnUse" id="gradient2" spreadMethod="pad" x1="-819.2" x2="819.2">
      <stop offset="0.0" stop-color="#0066ff"/>
      <stop offset="0.4588235294117647" stop-color="#0066ff"/>
      <stop offset="1.0" stop-color="#ffffff"/>
    </linearGradient>
    <linearGradient gradientTransform="matrix(0.0095, 0.0, 0.0, 0.0095, 0.5, 0.1)" gradientUnits="userSpaceOnUse" id="gradient3" spreadMethod="pad" x1="-819.2" x2="819.2">
      <stop offset="0.0" stop-color="#ffcc99"/>
      <stop offset="0.6901960784313725" stop-color="#ffe6cf"/>
      <stop offset="0.7411764705882353" stop-color="#ffe6cf"/>
      <stop offset="0.792156862745098" stop-color="#ffe6cf"/>
      <stop offset="0.8352941176470589" stop-color="#ffe7d0"/>
      <stop offset="1.0" stop-color="#ffffff"/>
    </linearGradient>
  </defs>
</svg>
