<?xml version="1.0" encoding="UTF-8" standalone="no"?>
<svg xmlns:xlink="http://www.w3.org/1999/xlink" height="17.5px" width="34.2px" xmlns="http://www.w3.org/2000/svg">
  <g transform="matrix(1.0, 0.0, 0.0, 1.0, 16.25, 8.65)">
    <path d="M5.6 5.9 L5.95 5.55 Q8.25 3.3 8.25 0.1 8.25 -2.85 6.3 -5.0 9.55 -4.65 12.2 -3.7 16.95 -2.0 16.95 0.4 16.95 2.8 12.2 4.45 9.25 5.5 5.6 5.9 M-5.4 -4.9 Q-7.25 -2.75 -7.25 0.1 -7.25 3.3 -5.0 5.55 L-4.7 5.8 Q-7.95 5.4 -10.55 4.45 -15.25 2.8 -15.25 0.4 -15.25 -2.0 -10.55 -3.7 -8.2 -4.5 -5.4 -4.9" fill="url(#gradient0)" fill-rule="evenodd" stroke="none"/>
    <path d="M6.3 -5.0 Q8.25 -2.85 8.25 0.1 8.25 3.3 5.95 5.55 L5.6 5.9 Q3.45 7.85 0.5 7.85 -2.5 7.85 -4.7 5.8 L-5.0 5.55 Q-7.25 3.3 -7.25 0.1 -7.25 -2.75 -5.4 -4.9 L-5.0 -5.4 Q-2.7 -7.65 0.5 -7.65 3.7 -7.65 5.95 -5.4 L6.3 -5.0" fill="url(#gradient1)" fill-rule="evenodd" stroke="none"/>
    <path d="M5.6 5.9 Q9.25 5.5 12.2 4.45 16.95 2.8 16.95 0.4 16.95 -2.0 12.2 -3.7 9.55 -4.65 6.3 -5.0 M-4.7 5.8 Q-7.95 5.4 -10.55 4.45 -15.25 2.8 -15.25 0.4 -15.25 -2.0 -10.55 -3.7 -8.2 -4.5 -5.4 -4.9" fill="none" stroke="#000000" stroke-linecap="round" stroke-linejoin="round" stroke-width="2.0"/>
    <path d="M6.3 -5.0 Q8.25 -2.85 8.25 0.1 8.25 3.3 5.95 5.55 L5.6 5.9 Q3.45 7.85 0.5 7.85 -2.5 7.85 -4.7 5.8 L-5.0 5.55 Q-7.25 3.3 -7.25 0.1 -7.25 -2.75 -5.4 -4.9 L-5.0 -5.4 Q-2.7 -7.65 0.5 -7.65 3.7 -7.65 5.95 -5.4 L6.3 -5.0 Z" fill="none" stroke="#000000" stroke-linecap="round" stroke-linejoin="round" stroke-width="2.0"/>
  </g>
  <defs>
    <linearGradient gradientTransform="matrix(0.0196, 0.0, 0.0, 0.007, 0.8, 0.4)" gradientUnits="userSpaceOnUse" id="gradient0" spreadMethod="pad" x1="-819.2" x2="819.2">
      <stop offset="0.0" stop-color="#0066ff"/>
      <stop offset="0.4588235294117647" stop-color="#0066ff"/>
      <stop offset="1.0" stop-color="#ffffff"/>
    </linearGradient>
    <linearGradient gradientTransform="matrix(0.0095, 0.0, 0.0, 0.0095, 0.5, 0.1)" gradientUnits="userSpaceOnUse" id="gradient1" spreadMethod="pad" x1="-819.2" x2="819.2">
      <stop offset="0.0" stop-color="#ffcc99"/>
      <stop offset="0.6901960784313725" stop-color="#ffe6cf"/>
      <stop offset="0.7411764705882353" stop-color="#ffe6cf"/>
      <stop offset="0.792156862745098" stop-color="#ffe6cf"/>
      <stop offset="0.8352941176470589" stop-color="#ffe7d0"/>
      <stop offset="1.0" stop-color="#ffffff"/>
    </linearGradient>
  </defs>
</svg>
