<?xml version="1.0" encoding="UTF-8" standalone="no"?>
<svg xmlns:xlink="http://www.w3.org/1999/xlink" height="60.1px" width="68.2px" xmlns="http://www.w3.org/2000/svg">
  <g transform="matrix(1.0, 0.0, 0.0, 1.0, 70.45, 6.9)">
    <path d="M-19.5 4.35 L-5.25 -5.9 -3.25 -3.2 -17.35 7.0 -18.15 7.55 -20.15 4.85 -19.5 4.35" fill="url(#gradient0)" fill-rule="evenodd" stroke="none"/>
    <path d="M-17.35 7.0 L-13.45 11.8 -13.0 12.4 -67.15 52.2 Q-79.8 34.25 -23.3 -0.35 L-19.5 4.35 -20.15 4.85 -18.15 7.55 -17.35 7.0" fill="url(#gradient1)" fill-rule="evenodd" stroke="none"/>
    <path d="M-19.5 4.35 L-5.25 -5.9 -3.25 -3.2 -17.35 7.0 -18.15 7.55 -20.15 4.85 -19.5 4.35" fill="none" stroke="#000000" stroke-linecap="round" stroke-linejoin="round" stroke-width="2.0"/>
    <path d="M-17.35 7.0 L-13.45 11.8 M-13.0 12.4 L-12.45 12.0 M-19.5 4.35 L-23.3 -0.35 Q-79.8 34.25 -67.15 52.2 L-13.0 12.4" fill="none" stroke="#000000" stroke-linecap="round" stroke-linejoin="round" stroke-width="2.0"/>
  </g>
  <defs>
    <linearGradient gradientTransform="matrix(0.009, 0.0018, -0.0018, 0.0094, -11.75, 0.8)" gradientUnits="userSpaceOnUse" id="gradient0" spreadMethod="pad" x1="-819.2" x2="819.2">
      <stop offset="0.0" stop-color="#9e5605"/>
      <stop offset="0.7725490196078432" stop-color="#d2b08b"/>
      <stop offset="1.0" stop-color="#ffffff"/>
    </linearGradient>
    <linearGradient gradientTransform="matrix(0.0296, 0.0058, -0.007, 0.0359, -41.0, 26.75)" gradientUnits="userSpaceOnUse" id="gradient1" spreadMethod="pad" x1="-819.2" x2="819.2">
      <stop offset="0.0" stop-color="#999999"/>
      <stop offset="0.4588235294117647" stop-color="#999999"/>
      <stop offset="1.0" stop-color="#ffffff"/>
    </linearGradient>
  </defs>
</svg>
