<?xml version="1.0" encoding="UTF-8" standalone="no"?>
<svg xmlns:xlink="http://www.w3.org/1999/xlink" height="85.5px" width="98.85px" xmlns="http://www.w3.org/2000/svg">
  <g transform="matrix(1.0, 0.0, 0.0, 1.0, 91.8, 83.6)">
    <path d="M-91.8 -13.15 Q-88.1 -35.85 -73.0 -51.0 -48.5 -76.15 -24.0 -82.0 L-15.0 -16.1 -16.0 -16.0 Q-24.45 -14.95 -29.0 -6.0 L-29.0 -5.0 -32.4 1.8 -32.45 1.9 -91.0 -13.0 -91.8 -13.1 -91.8 -13.15" fill="url(#gradient0)" fill-rule="evenodd" stroke="none"/>
    <path d="M0.15 -17.8 L2.35 -0.45 -1.0 -0.05 -3.2 -17.25 -3.35 -18.2 0.0 -18.65 0.15 -17.8" fill="url(#gradient1)" fill-rule="evenodd" stroke="none"/>
    <path d="M-3.2 -17.25 L-9.25 -16.15 -10.0 -16.0 -19.1 -82.5 Q2.7 -85.0 6.05 -18.95 L0.15 -17.8 0.0 -18.65 -3.35 -18.2 -3.2 -17.25" fill="url(#gradient2)" fill-rule="evenodd" stroke="none"/>
    <path d="M0.15 -17.8 L2.35 -0.45 -1.0 -0.05 -3.2 -17.25 -3.35 -18.2 0.0 -18.65 0.15 -17.8" fill="none" stroke="#000000" stroke-linecap="round" stroke-linejoin="round" stroke-width="2.0"/>
    <path d="M-3.2 -17.25 L-9.25 -16.15 M-10.0 -16.0 L-9.9 -15.35 M0.15 -17.8 L6.05 -18.95 Q2.7 -85.0 -19.1 -82.5 L-10.0 -16.0" fill="none" stroke="#000000" stroke-linecap="round" stroke-linejoin="round" stroke-width="2.0"/>
  </g>
  <defs>
    <radialGradient cx="0" cy="0" gradientTransform="matrix(0.1145, 0.0203, -0.0119, 0.0672, -59.45, -21.05)" gradientUnits="userSpaceOnUse" id="gradient0" r="819.2" spreadMethod="pad">
      <stop offset="0.0" stop-color="#ffffff" stop-opacity="0.5019608"/>
      <stop offset="1.0" stop-color="#666666" stop-opacity="0.5019608"/>
    </radialGradient>
    <linearGradient gradientTransform="matrix(-0.0058, 0.007, -0.0074, -0.0061, -0.45, -9.35)" gradientUnits="userSpaceOnUse" id="gradient1" spreadMethod="pad" x1="-819.2" x2="819.2">
      <stop offset="0.0" stop-color="#9e5605"/>
      <stop offset="0.7725490196078432" stop-color="#d2b08b"/>
      <stop offset="1.0" stop-color="#ffffff"/>
    </linearGradient>
    <linearGradient gradientTransform="matrix(-0.0192, 0.0232, -0.0282, -0.0233, -9.25, -47.4)" gradientUnits="userSpaceOnUse" id="gradient2" spreadMethod="pad" x1="-819.2" x2="819.2">
      <stop offset="0.0" stop-color="#999999"/>
      <stop offset="0.4588235294117647" stop-color="#999999"/>
      <stop offset="1.0" stop-color="#ffffff"/>
    </linearGradient>
  </defs>
</svg>
