<?xml version="1.0" encoding="UTF-8" standalone="no"?>
<svg xmlns:xlink="http://www.w3.org/1999/xlink" height="86.9px" width="141.65px" xmlns="http://www.w3.org/2000/svg">
  <g transform="matrix(1.0, 0.0, 0.0, 1.0, 91.8, 85.0)">
    <path d="M4.0 -22.0 Q-4.55 -22.55 -13.15 -19.2 L-17.5 -18.1 -18.0 -17.0 Q-24.45 -14.95 -29.0 -6.0 L-29.25 -4.75 -32.4 1.8 -32.45 1.9 -91.0 -13.0 -91.8 -13.1 -91.8 -13.15 Q-88.1 -35.85 -73.0 -51.0 -48.5 -76.15 -24.0 -82.0 18.25 -89.9 37.95 -77.0 L5.0 -22.0 4.0 -22.0" fill="url(#gradient0)" fill-rule="evenodd" stroke="none"/>
    <path d="M17.05 -15.2 L7.85 -0.4 5.0 -2.15 14.1 -16.85 14.6 -17.7 17.5 -15.95 17.05 -15.2" fill="url(#gradient1)" fill-rule="evenodd" stroke="none"/>
    <path d="M14.1 -16.85 L8.7 -19.8 8.05 -20.2 42.9 -77.35 Q61.35 -65.6 22.35 -12.35 L17.05 -15.2 17.5 -15.95 14.6 -17.7 14.1 -16.85" fill="url(#gradient2)" fill-rule="evenodd" stroke="none"/>
    <path d="M17.05 -15.2 L7.85 -0.4 5.0 -2.15 14.1 -16.85 14.6 -17.7 17.5 -15.95 17.05 -15.2" fill="none" stroke="#000000" stroke-linecap="round" stroke-linejoin="round" stroke-width="2.0"/>
    <path d="M14.1 -16.85 L8.7 -19.8 M8.05 -20.2 L7.75 -19.6 M17.05 -15.2 L22.35 -12.35 Q61.35 -65.6 42.9 -77.35 L8.05 -20.2" fill="none" stroke="#000000" stroke-linecap="round" stroke-linejoin="round" stroke-width="2.0"/>
  </g>
  <defs>
    <radialGradient cx="0" cy="0" gradientTransform="matrix(0.14, -0.0596, 0.0428, 0.1006, -55.95, -23.55)" gradientUnits="userSpaceOnUse" id="gradient0" r="819.2" spreadMethod="pad">
      <stop offset="0.0" stop-color="#ffffff" stop-opacity="0.5019608"/>
      <stop offset="1.0" stop-color="#666666" stop-opacity="0.5019608"/>
    </radialGradient>
    <linearGradient gradientTransform="matrix(-0.009, 0.0018, -0.0019, -0.0094, 11.25, -9.0)" gradientUnits="userSpaceOnUse" id="gradient1" spreadMethod="pad" x1="-819.2" x2="819.2">
      <stop offset="0.0" stop-color="#9e5605"/>
      <stop offset="0.7725490196078432" stop-color="#d2b08b"/>
      <stop offset="1.0" stop-color="#ffffff"/>
    </linearGradient>
    <linearGradient gradientTransform="matrix(-0.0294, 0.0058, -0.0071, -0.0358, 28.4, -44.05)" gradientUnits="userSpaceOnUse" id="gradient2" spreadMethod="pad" x1="-819.2" x2="819.2">
      <stop offset="0.0" stop-color="#999999"/>
      <stop offset="0.4588235294117647" stop-color="#999999"/>
      <stop offset="1.0" stop-color="#ffffff"/>
    </linearGradient>
  </defs>
</svg>
