<?xml version="1.0" encoding="UTF-8" standalone="no"?>
<svg xmlns:xlink="http://www.w3.org/1999/xlink" height="52.1px" width="73.6px" xmlns="http://www.w3.org/2000/svg">
  <g transform="matrix(1.0, 0.0, 0.0, 1.0, -5.55, 44.3)">
    <path d="M23.55 -1.65 L8.2 6.8 6.55 3.85 21.75 -4.5 22.6 -5.0 24.25 -2.0 23.55 -1.65" fill="url(#gradient0)" fill-rule="evenodd" stroke="none"/>
    <path d="M21.75 -4.5 L18.45 -9.7 18.15 -10.4 76.6 -43.3 Q87.0 -23.95 26.75 3.45 L23.55 -1.65 24.25 -2.0 22.6 -5.0 21.75 -4.5" fill="url(#gradient1)" fill-rule="evenodd" stroke="none"/>
    <path d="M23.55 -1.65 L8.2 6.8 6.55 3.85 21.75 -4.5 22.6 -5.0 24.25 -2.0 23.55 -1.65" fill="none" stroke="#000000" stroke-linecap="round" stroke-linejoin="round" stroke-width="2.0"/>
    <path d="M21.75 -4.5 L18.45 -9.7 M18.15 -10.4 L17.5 -10.0 M23.55 -1.65 L26.75 3.45 Q87.0 -23.95 76.6 -43.3 L18.15 -10.4" fill="none" stroke="#000000" stroke-linecap="round" stroke-linejoin="round" stroke-width="2.0"/>
  </g>
  <defs>
    <linearGradient gradientTransform="matrix(-0.0087, -0.0028, 0.003, -0.0091, 15.45, 0.9)" gradientUnits="userSpaceOnUse" id="gradient0" spreadMethod="pad" x1="-819.2" x2="819.2">
      <stop offset="0.0" stop-color="#9e5605"/>
      <stop offset="0.7725490196078432" stop-color="#d2b08b"/>
      <stop offset="1.0" stop-color="#ffffff"/>
    </linearGradient>
    <linearGradient gradientTransform="matrix(-0.0286, -0.0093, 0.0114, -0.0348, 47.6, -21.25)" gradientUnits="userSpaceOnUse" id="gradient1" spreadMethod="pad" x1="-819.2" x2="819.2">
      <stop offset="0.0" stop-color="#999999"/>
      <stop offset="0.4588235294117647" stop-color="#999999"/>
      <stop offset="1.0" stop-color="#ffffff"/>
    </linearGradient>
  </defs>
</svg>
