<?xml version="1.0" encoding="UTF-8" standalone="no"?>
<svg xmlns:xlink="http://www.w3.org/1999/xlink" height="17.6px" width="32.75px" xmlns="http://www.w3.org/2000/svg">
  <g transform="matrix(1.0, 0.0, 0.0, 1.0, 15.65, 8.75)">
    <path d="M7.6 -2.95 Q10.55 -1.6 12.75 0.15 16.75 3.25 15.95 5.55 15.2 7.8 10.2 7.85 L3.45 7.15 3.95 6.9 Q6.8 5.55 7.8 2.5 8.75 -0.3 7.6 -2.95 M-6.25 3.8 Q-9.15 2.35 -11.35 0.65 -15.3 -2.4 -14.55 -4.65 -13.75 -6.95 -8.8 -7.05 L-3.5 -6.6 Q-5.95 -5.15 -6.85 -2.45 -7.85 0.6 -6.45 3.45 L-6.25 3.8" fill="url(#gradient0)" fill-rule="evenodd" stroke="none"/>
    <path d="M3.45 7.15 L-1.95 7.4 Q-4.8 6.45 -6.25 3.8 L-6.45 3.45 Q-7.85 0.6 -6.85 -2.45 -5.95 -5.15 -3.5 -6.6 L-3.0 -6.9 Q-0.05 -8.35 3.0 -7.3 6.0 -6.3 7.4 -3.45 L7.6 -2.95 Q8.75 -0.3 7.8 2.5 6.8 5.55 3.95 6.9 L3.45 7.15" fill="url(#gradient1)" fill-rule="evenodd" stroke="none"/>
    <path d="M7.6 -2.95 Q10.55 -1.6 12.75 0.15 16.75 3.25 15.95 5.55 15.2 7.8 10.2 7.85 L3.45 7.15 M-6.25 3.8 Q-9.15 2.35 -11.35 0.65 -15.3 -2.4 -14.55 -4.65 -13.75 -6.95 -8.8 -7.05 L-3.5 -6.6" fill="none" stroke="#000000" stroke-linecap="round" stroke-linejoin="round" stroke-width="2.0"/>
    <path d="M3.45 7.15 L-1.95 7.4 Q-4.8 6.45 -6.25 3.8 L-6.45 3.45 Q-7.85 0.6 -6.85 -2.45 -5.95 -5.15 -3.5 -6.6 L-3.0 -6.9 Q-0.05 -8.35 3.0 -7.3 6.0 -6.3 7.4 -3.45 L7.6 -2.95 Q8.75 -0.3 7.8 2.5 6.8 5.55 3.95 6.9 L3.45 7.15 Z" fill="none" stroke="#000000" stroke-linecap="round" stroke-linejoin="round" stroke-width="2.0"/>
  </g>
  <defs>
    <linearGradient gradientTransform="matrix(0.0186, 0.0062, -0.0022, 0.0067, 0.65, 0.45)" gradientUnits="userSpaceOnUse" id="gradient0" spreadMethod="pad" x1="-819.2" x2="819.2">
      <stop offset="0.0" stop-color="#0066ff"/>
      <stop offset="0.4588235294117647" stop-color="#0066ff"/>
      <stop offset="1.0" stop-color="#ffffff"/>
    </linearGradient>
    <linearGradient gradientTransform="matrix(0.009, 0.003, -0.003, 0.009, 0.5, 0.05)" gradientUnits="userSpaceOnUse" id="gradient1" spreadMethod="pad" x1="-819.2" x2="819.2">
      <stop offset="0.0" stop-color="#ffcc99"/>
      <stop offset="0.6901960784313725" stop-color="#ffe6cf"/>
      <stop offset="0.7411764705882353" stop-color="#ffe6cf"/>
      <stop offset="0.792156862745098" stop-color="#ffe6cf"/>
      <stop offset="0.8352941176470589" stop-color="#ffe7d0"/>
      <stop offset="1.0" stop-color="#ffffff"/>
    </linearGradient>
  </defs>
</svg>
