<?xml version="1.0" encoding="UTF-8" standalone="no"?>
<svg xmlns:xlink="http://www.w3.org/1999/xlink" height="86.9px" width="165.05px" xmlns="http://www.w3.org/2000/svg">
  <g transform="matrix(1.0, 0.0, 0.0, 1.0, 91.8, 85.0)">
    <path d="M37.95 -77.0 L37.9 -76.85 Q61.5 -62.55 73.25 -45.75 L16.25 -13.25 16.0 -13.25 Q13.35 -19.95 5.0 -21.95 L5.0 -22.0 4.75 -22.0 4.0 -22.0 Q-4.55 -22.55 -13.15 -19.2 L-17.5 -17.1 -18.0 -17.0 Q-24.45 -14.95 -29.0 -6.0 L-29.25 -4.75 -32.4 1.8 -32.45 1.9 -91.0 -13.0 -91.8 -13.1 -91.8 -13.15 Q-88.1 -35.85 -73.0 -51.0 -48.5 -76.15 -24.0 -82.0 18.25 -89.9 37.95 -77.0" fill="url(#gradient0)" fill-rule="evenodd" stroke="none"/>
    <path d="M4.75 -22.0 L5.0 -21.95" fill="none" stroke="#999999" stroke-linecap="round" stroke-linejoin="round" stroke-opacity="0.5019608" stroke-width="1.0"/>
  </g>
  <defs>
    <radialGradient cx="0" cy="0" gradientTransform="matrix(0.2294, -0.1084, 0.0488, 0.1032, -50.3, -31.55)" gradientUnits="userSpaceOnUse" id="gradient0" r="819.2" spreadMethod="pad">
      <stop offset="0.0" stop-color="#ffffff" stop-opacity="0.3019608"/>
      <stop offset="1.0" stop-color="#666666" stop-opacity="0.3019608"/>
    </radialGradient>
  </defs>
</svg>
