<?xml version="1.0" encoding="UTF-8" standalone="no"?>
<svg xmlns:xlink="http://www.w3.org/1999/xlink" height="38.0px" width="278.0px" xmlns="http://www.w3.org/2000/svg">
  <g transform="matrix(1.0, 0.0, 0.0, 1.0, 139.5, 18.0)">
    <path d="M124.55 -14.0 Q123.5 -14.85 122.0 -14.85 L-120.1 -14.85 Q-121.6 -14.85 -122.65 -14.0 -123.7 -13.1 -123.7 -11.85 L-123.7 9.9 Q-123.7 11.1 -122.65 12.0 -121.6 12.9 -120.1 12.9 L122.0 12.9 Q123.5 12.9 124.55 12.0 125.6 11.1 125.6 9.9 L125.6 -11.85 Q125.6 -13.1 124.55 -14.0 M136.8 -16.35 Q138.0 -15.15 138.0 -13.5 L138.0 15.5 Q138.0 17.15 136.8 18.3 135.65 19.5 134.0 19.5 L-135.0 19.5 Q-136.65 19.5 -137.85 18.3 -139.0 17.15 -139.0 15.5 L-139.0 -13.5 Q-139.0 -15.15 -137.85 -16.35 -136.65 -17.5 -135.0 -17.5 L134.0 -17.5 Q135.65 -17.5 136.8 -16.35" fill="url(#gradient0)" fill-rule="evenodd" stroke="none"/>
    <path d="M124.55 -14.0 Q125.6 -13.1 125.6 -11.85 L125.6 9.9 Q125.6 11.1 124.55 12.0 123.5 12.9 122.0 12.9 L-120.1 12.9 Q-121.6 12.9 -122.65 12.0 -123.7 11.1 -123.7 9.9 L-123.7 -11.85 Q-123.7 -13.1 -122.65 -14.0 -121.6 -14.85 -120.1 -14.85 L122.0 -14.85 Q123.5 -14.85 124.55 -14.0" fill="url(#gradient1)" fill-rule="evenodd" stroke="none"/>
    <path d="M136.8 -16.35 Q135.65 -17.5 134.0 -17.5 L-135.0 -17.5 Q-136.65 -17.5 -137.85 -16.35 -139.0 -15.15 -139.0 -13.5 L-139.0 15.5 Q-139.0 17.15 -137.85 18.3 -136.65 19.5 -135.0 19.5 L134.0 19.5 Q135.65 19.5 136.8 18.3 138.0 17.15 138.0 15.5 L138.0 -13.5 Q138.0 -15.15 136.8 -16.35 Z" fill="none" stroke="#000000" stroke-linecap="round" stroke-linejoin="round" stroke-width="1.0"/>
  </g>
  <defs>
    <linearGradient gradientTransform="matrix(0.2162, -0.0584, 0.0059, 0.0218, -5.85, 43.5)" gradientUnits="userSpaceOnUse" id="gradient0" spreadMethod="pad" x1="-819.2" x2="819.2">
      <stop offset="0.0" stop-color="#3a3a3a"/>
      <stop offset="1.0" stop-color="#c7c7c7"/>
    </linearGradient>
    <radialGradient cx="0" cy="0" gradientTransform="matrix(0.0, -0.0227, 0.1756, 2.0E-4, 1.5, -1.0)" gradientUnits="userSpaceOnUse" id="gradient1" r="819.2" spreadMethod="pad">
      <stop offset="0.1411764705882353" stop-color="#dfdfdf"/>
      <stop offset="1.0" stop-color="#3a3a3a"/>
    </radialGradient>
  </defs>
</svg>
