<?xml version="1.0" encoding="UTF-8" standalone="no"?>
<svg xmlns:xlink="http://www.w3.org/1999/xlink" height="481.85px" width="641.75px" xmlns="http://www.w3.org/2000/svg">
  <g transform="matrix(1.0, 0.0, 0.0, 1.0, 320.85, 240.9)">
    <path d="M320.9 -240.9 L320.9 240.95 -320.85 240.95 -320.85 -240.9 320.9 -240.9" fill="#000000" fill-opacity="0.3019608" fill-rule="evenodd" stroke="none"/>
    <path d="M25.85 102.25 L27.15 103.75 27.6 105.7 Q27.6 107.45 26.0 108.75 24.45 109.9 22.45 109.9 20.5 109.9 19.3 108.8 18.05 107.7 18.05 105.95 18.05 104.0 19.55 102.8 21.05 101.5 23.2 101.5 24.7 101.5 25.85 102.25 M17.55 103.1 L17.1 103.25 15.6 103.25 15.3 103.3 15.25 103.65 15.25 106.4 15.45 107.2 Q15.7 107.5 16.05 107.5 L16.9 107.25 17.2 107.15 17.55 107.4 17.7 107.95 Q17.7 108.4 17.1 108.9 15.95 109.9 14.35 109.9 13.05 109.9 12.2 109.15 11.4 108.4 11.4 107.2 L11.4 103.4 11.35 103.15 11.15 103.1 10.3 103.1 10.0 103.05 9.95 102.7 9.95 102.3 Q9.95 102.05 10.1 101.95 L13.85 99.6 14.25 99.55 14.85 99.55 15.2 99.65 15.25 100.0 15.25 101.1 15.3 101.45 15.65 101.5 17.1 101.5 17.55 101.6 17.65 102.05 17.65 102.6 17.55 103.1 M21.75 104.35 L21.95 105.75 22.35 107.2 Q22.65 107.9 23.2 107.9 23.95 107.9 23.95 106.95 L23.75 105.35 23.3 103.95 Q23.0 103.4 22.55 103.35 22.15 103.35 21.95 103.65 L21.75 104.35 M5.55 101.6 L5.7 102.05 5.7 102.6 5.55 103.1 5.15 103.25 3.65 103.25 3.3 103.3 3.25 103.65 3.25 106.4 Q3.25 106.95 3.5 107.2 3.75 107.5 4.1 107.5 L4.95 107.25 5.2 107.15 Q5.4 107.15 5.55 107.4 5.75 107.6 5.75 107.95 5.75 108.4 5.15 108.9 4.0 109.9 2.35 109.9 1.05 109.9 0.2 109.15 -0.55 108.4 -0.55 107.2 L-0.55 103.4 -0.6 103.15 -0.85 103.1 -1.65 103.1 -2.0 103.05 -2.05 102.7 -2.05 102.3 -1.9 101.95 1.9 99.6 2.25 99.55 2.9 99.55 3.2 99.65 3.25 100.0 3.25 101.1 3.3 101.45 3.7 101.5 5.15 101.5 5.55 101.6 M45.8 100.9 L45.6 103.7 45.8 107.35 45.95 107.9 46.45 108.3 Q46.8 108.5 46.8 108.85 46.8 109.4 46.0 109.6 L45.15 109.85 43.85 109.85 41.75 109.65 Q41.0 109.4 41.0 108.9 L41.1 108.55 Q41.2 108.45 41.65 108.1 L41.9 107.45 42.0 105.8 41.95 104.9 41.7 104.7 41.2 105.0 40.6 106.25 39.6 108.45 39.15 109.25 38.85 109.4 Q38.65 109.4 38.55 109.25 L38.1 108.55 37.6 107.45 36.5 105.0 Q36.3 104.45 36.0 104.45 35.75 104.45 35.75 104.95 L35.7 106.75 35.75 107.9 35.9 108.15 36.45 108.4 36.7 108.95 Q36.7 109.85 34.35 109.85 32.35 109.85 32.35 108.95 L32.45 108.6 33.0 108.3 33.35 108.0 33.5 107.15 33.65 105.0 33.7 102.45 33.5 100.6 33.35 100.4 33.0 100.15 Q32.4 99.85 32.4 99.45 L32.6 98.9 Q32.8 98.65 33.2 98.55 L34.2 98.4 35.2 98.3 36.65 98.5 37.0 98.7 37.4 99.3 39.05 102.45 39.45 103.05 39.75 103.15 40.05 103.05 40.35 102.6 41.5 100.35 41.8 99.75 Q42.15 98.9 42.6 98.65 L44.35 98.35 Q46.75 98.35 46.75 99.4 L46.65 99.75 46.25 100.1 45.8 100.9 M47.2 107.6 Q47.2 106.8 47.9 106.1 49.0 105.1 51.15 105.05 L51.7 105.0 51.85 104.55 51.65 103.25 Q51.45 102.9 51.1 102.9 50.85 102.9 50.6 103.05 L50.15 103.6 Q49.4 104.65 48.6 104.65 48.2 104.65 48.0 104.35 47.75 104.15 47.75 103.75 47.75 103.35 48.05 102.95 L48.9 102.25 Q50.35 101.5 52.0 101.5 53.4 101.5 54.4 102.2 L55.15 103.1 55.35 104.45 55.35 105.7 Q55.35 106.95 55.5 107.3 L55.7 107.55 56.05 107.7 56.3 108.0 55.95 108.85 55.2 109.5 53.85 109.9 Q53.05 109.9 52.5 109.3 L52.2 109.1 51.75 109.3 Q50.95 109.9 49.9 109.9 48.85 109.9 48.15 109.4 L47.45 108.6 47.2 107.6 M67.5 102.9 L67.95 102.6 Q68.7 101.55 70.0 101.55 71.05 101.55 71.8 102.1 L72.5 103.0 72.7 104.55 72.9 107.4 73.0 107.9 73.45 108.5 73.6 108.9 Q73.6 109.4 72.95 109.6 L70.6 109.85 69.05 109.6 Q68.5 109.4 68.5 109.0 L68.55 108.75 68.95 108.35 Q69.25 108.0 69.25 106.05 L69.0 104.35 Q68.8 103.95 68.2 103.95 67.65 103.95 67.45 104.3 L67.25 105.6 67.25 107.2 67.3 107.9 67.75 108.55 67.8 108.9 Q67.8 109.4 67.1 109.6 L65.0 109.85 Q62.75 109.85 62.75 108.9 L62.8 108.6 63.15 108.3 63.45 107.95 63.55 106.95 63.6 105.0 63.5 104.25 Q63.45 104.1 63.0 103.85 62.65 103.65 62.65 103.25 62.65 102.95 62.95 102.75 L64.1 102.2 65.65 101.75 66.65 101.55 67.05 101.75 67.2 102.15 67.2 102.35 67.2 102.5 Q67.2 102.9 67.5 102.9 M61.4 102.05 L61.4 106.85 61.5 107.7 61.9 108.15 62.2 108.45 62.35 108.8 Q62.35 109.85 59.65 109.85 L57.35 109.6 56.85 109.3 56.7 108.85 56.8 108.5 57.25 108.1 57.6 107.5 57.7 106.2 57.7 105.2 57.65 104.35 57.2 103.85 Q56.65 103.65 56.65 103.15 56.65 102.65 57.35 102.45 58.25 102.05 59.3 101.8 L60.9 101.55 Q61.4 101.55 61.4 102.05 M60.85 98.75 Q61.3 99.0 61.3 99.45 61.3 100.1 60.65 100.5 59.65 101.05 58.25 101.05 L57.3 100.8 Q56.8 100.55 56.8 100.0 56.8 99.3 57.8 98.9 L59.75 98.5 60.85 98.75 M51.45 106.25 Q51.1 106.25 50.85 106.5 50.55 106.85 50.55 107.25 L50.7 107.9 51.25 108.1 Q51.9 108.1 51.9 107.0 L51.85 106.4 51.45 106.25 M88.4 98.65 L90.2 98.35 Q92.55 98.35 92.55 99.4 L92.45 99.75 92.1 100.1 91.6 100.9 91.4 103.7 91.6 107.35 91.8 107.9 92.3 108.3 Q92.6 108.5 92.6 108.85 92.6 109.4 91.85 109.6 L91.0 109.85 89.7 109.85 87.6 109.65 Q86.85 109.4 86.85 108.9 L86.95 108.55 87.45 108.1 87.75 107.45 87.85 105.8 87.8 104.9 87.55 104.7 Q87.25 104.7 87.05 105.0 L86.4 106.25 85.45 108.45 85.0 109.25 84.7 109.4 84.4 109.25 83.95 108.55 83.45 107.45 82.35 105.0 81.85 104.45 Q81.6 104.45 81.6 104.95 L81.55 106.75 81.6 107.9 81.75 108.15 82.3 108.4 82.55 108.95 Q82.55 109.85 80.2 109.85 78.2 109.85 78.2 108.95 L78.3 108.6 Q78.4 108.5 78.8 108.3 L79.2 108.0 79.35 107.15 79.5 105.0 79.55 102.45 Q79.55 101.05 79.35 100.6 L79.2 100.4 78.8 100.15 Q78.25 99.85 78.25 99.45 L78.45 98.9 79.0 98.55 80.0 98.4 81.0 98.3 82.5 98.5 82.85 98.7 83.2 99.3 84.9 102.45 85.25 103.05 85.6 103.15 85.9 103.05 86.15 102.6 87.3 100.35 87.65 99.75 Q88.0 98.9 88.4 98.65 M106.8 102.9 L107.2 102.6 Q107.95 101.55 109.25 101.55 110.3 101.55 111.05 102.1 L111.8 103.0 112.0 104.55 112.15 107.4 112.25 107.9 112.75 108.5 112.9 108.9 Q112.9 109.4 112.2 109.6 L109.9 109.85 108.3 109.6 Q107.8 109.4 107.8 109.0 L107.85 108.75 108.2 108.35 Q108.55 108.0 108.55 106.05 108.55 104.95 108.25 104.35 108.05 103.95 107.5 103.95 106.9 103.95 106.75 104.3 L106.55 105.6 106.55 107.2 106.6 107.9 107.0 108.55 107.05 108.9 Q107.05 109.4 106.35 109.6 L104.25 109.85 Q102.0 109.85 102.0 108.9 L102.05 108.6 102.45 108.3 102.7 107.95 102.8 106.95 102.85 105.0 102.75 104.25 102.3 103.85 Q101.9 103.65 101.9 103.25 101.9 102.95 102.25 102.75 102.5 102.55 103.4 102.2 L104.9 101.75 105.9 101.55 106.3 101.75 106.5 102.15 106.5 102.35 106.5 102.5 Q106.5 102.9 106.8 102.9 M101.5 104.8 L101.3 105.7 100.7 106.0 96.85 106.0 Q96.6 106.0 96.6 106.2 96.6 106.75 97.2 107.2 97.75 107.7 98.45 107.7 L99.3 107.55 100.05 107.15 100.55 107.0 Q100.75 107.0 100.95 107.25 L101.2 107.8 Q101.2 108.35 100.45 108.95 99.15 109.9 97.4 109.9 95.7 109.9 94.5 108.9 L93.6 107.75 Q93.1 106.8 93.1 105.75 93.1 104.35 93.95 103.25 94.65 102.3 95.75 101.85 L97.6 101.5 Q99.15 101.5 100.25 102.35 L101.1 103.4 Q101.5 104.1 101.5 104.8 M97.5 103.0 Q97.05 103.0 96.75 103.3 L96.55 104.0 96.65 104.35 97.1 104.45 97.9 104.45 Q98.45 104.45 98.45 104.0 L98.2 103.25 97.5 103.0 M123.4 107.35 Q123.4 107.7 123.85 107.9 124.3 108.1 124.3 108.45 124.3 109.2 122.5 109.6 L120.55 109.85 120.0 109.8 119.8 109.4 Q119.75 108.9 119.5 108.9 L119.35 108.95 118.8 109.25 Q118.05 109.85 117.05 109.85 115.45 109.85 114.85 108.95 114.3 108.15 114.3 106.35 L114.3 105.2 114.3 104.85 114.15 103.8 113.7 103.25 113.3 103.0 113.2 102.75 Q113.2 102.1 114.15 101.9 L117.35 101.55 Q117.85 101.55 117.85 101.95 L117.85 106.4 Q117.85 107.85 118.8 107.85 L119.25 107.75 119.6 107.35 119.75 105.65 119.65 103.8 119.55 103.5 119.25 103.25 Q118.75 103.0 118.75 102.65 118.75 102.1 119.6 101.95 L122.6 101.55 Q123.45 101.55 123.45 102.45 L123.45 102.8 123.4 103.8 123.4 107.35 M-104.15 102.5 L-102.8 101.95 -100.65 101.55 Q-100.2 101.55 -100.1 101.7 L-99.95 102.5 -99.7 102.85 -99.35 102.6 Q-98.75 101.55 -97.65 101.55 -96.9 101.55 -96.45 102.05 L-96.05 102.65 Q-95.9 103.0 -95.9 103.35 L-96.1 104.15 -96.55 104.85 -97.85 105.3 -98.55 105.2 -99.25 104.6 -99.65 104.4 -99.9 104.7 -100.0 105.75 -99.9 107.45 -99.75 107.8 -99.25 108.0 Q-98.55 108.2 -98.55 108.8 L-98.8 109.35 -99.4 109.65 -101.75 109.85 -103.95 109.55 Q-104.6 109.35 -104.6 108.8 -104.6 108.35 -104.1 108.05 L-103.8 107.75 -103.7 107.4 -103.5 104.65 -103.6 104.1 -103.95 103.85 Q-104.5 103.65 -104.5 103.15 -104.5 102.8 -104.15 102.5 M-110.85 103.25 L-110.75 103.65 -110.15 103.75 Q-109.6 103.75 -109.25 103.4 -108.7 103.0 -108.7 101.95 -108.7 100.9 -109.3 100.45 -109.7 100.1 -110.3 100.1 -110.85 100.1 -110.85 100.45 L-110.85 103.25 M-106.85 98.9 Q-105.0 99.85 -105.0 101.95 -105.0 103.65 -106.3 104.65 -107.5 105.6 -109.2 105.6 L-110.3 105.5 -110.7 105.45 Q-110.9 105.45 -110.9 105.75 L-110.85 107.15 -110.7 107.75 -110.25 108.15 Q-109.65 108.4 -109.65 108.8 -109.65 109.3 -110.45 109.55 L-112.7 109.85 Q-115.75 109.85 -115.75 108.8 L-115.6 108.4 -114.95 108.05 -114.65 107.6 -114.6 105.8 -114.6 101.5 -114.7 100.45 Q-114.8 100.2 -115.35 100.05 -116.05 99.85 -116.05 99.35 L-115.75 98.75 -114.85 98.55 -113.85 98.6 -113.4 98.6 -111.75 98.6 -110.1 98.45 -109.25 98.4 Q-107.9 98.4 -106.85 98.9 M-81.95 101.7 L-81.65 101.7 -81.1 101.6 -80.8 101.5 -80.0 101.95 Q-79.7 102.35 -79.55 102.85 L-79.3 103.65 -79.55 104.15 Q-79.8 104.35 -80.1 104.35 L-80.65 104.25 -81.35 103.65 Q-81.9 103.1 -82.2 103.1 L-82.6 103.25 -82.8 103.7 Q-82.8 104.1 -82.0 104.4 -80.65 105.05 -79.9 105.8 -79.25 106.4 -79.25 107.3 -79.25 108.45 -80.25 109.25 -81.1 109.9 -82.35 109.9 L-83.5 109.8 -84.4 109.65 -84.65 109.7 -85.05 109.8 -85.6 109.55 -86.25 108.6 -86.55 107.45 Q-86.55 106.75 -85.95 106.75 -85.7 106.75 -85.5 106.9 L-84.7 107.7 -84.15 108.2 -83.65 108.3 -83.25 108.2 -83.1 107.8 Q-83.1 107.4 -83.75 107.1 L-85.6 105.8 Q-86.2 105.1 -86.2 104.2 -86.2 103.2 -85.6 102.55 -84.8 101.5 -83.3 101.5 L-81.95 101.7 M-87.95 106.0 L-91.75 106.0 -92.0 106.2 Q-92.0 106.75 -91.45 107.2 L-90.2 107.7 -89.35 107.55 Q-88.8 107.4 -88.55 107.15 L-88.1 107.0 -87.65 107.25 -87.45 107.8 Q-87.45 108.35 -88.2 108.95 -89.5 109.9 -91.25 109.9 -92.9 109.9 -94.1 108.9 L-95.0 107.75 Q-95.55 106.8 -95.55 105.75 -95.55 104.35 -94.7 103.25 -93.95 102.3 -92.85 101.85 -92.0 101.5 -91.0 101.5 -89.5 101.5 -88.4 102.35 -87.8 102.85 -87.5 103.4 -87.15 104.1 -87.15 104.8 L-87.35 105.7 Q-87.55 106.0 -87.95 106.0 M-90.45 103.25 Q-90.7 103.0 -91.15 103.0 -91.6 103.0 -91.85 103.3 L-92.05 104.0 -91.95 104.35 -91.55 104.45 -90.7 104.45 Q-90.2 104.45 -90.2 104.0 -90.2 103.55 -90.45 103.25 M-59.2 99.3 Q-59.2 98.75 -58.6 98.55 L-56.5 98.3 -54.85 98.5 Q-54.1 98.7 -54.1 99.35 -54.1 99.75 -54.5 99.95 L-55.25 100.1 Q-55.7 100.1 -56.1 100.45 L-57.1 101.55 -58.1 102.75 -58.2 102.95 -58.1 103.1 -54.95 107.05 -54.55 107.5 -54.05 107.75 -53.45 108.05 Q-53.3 108.25 -53.3 108.55 L-53.5 109.1 -54.0 109.5 -55.2 109.8 -57.25 109.85 -59.35 109.65 -60.0 109.35 -60.25 108.9 -59.95 108.3 -59.6 107.95 Q-59.6 107.5 -60.55 106.25 L-60.8 106.1 -60.95 106.25 -61.6 107.2 -61.95 107.8 -61.6 108.2 Q-61.25 108.45 -61.25 108.85 -61.25 109.4 -61.95 109.55 L-63.95 109.85 -65.95 109.6 -66.4 109.3 -66.6 108.8 -66.35 108.2 -65.65 108.0 Q-65.15 108.0 -64.75 107.7 L-63.45 106.15 -62.15 104.6 -62.05 104.35 -62.15 104.2 -64.25 101.55 -64.95 100.75 -65.4 100.5 -66.1 100.2 -66.35 99.6 Q-66.35 98.85 -65.2 98.6 L-62.4 98.35 -60.15 98.55 -59.8 98.85 Q-59.65 99.05 -59.65 99.35 -59.65 99.75 -59.9 99.95 L-60.15 100.1 -60.15 100.2 -59.9 100.85 -59.4 101.2 -58.95 100.8 -58.6 100.2 -58.65 100.05 -58.95 99.8 -59.2 99.3 M-73.6 101.7 L-73.05 101.6 -72.75 101.5 Q-72.4 101.5 -71.95 101.95 L-71.5 102.85 -71.3 103.65 -71.5 104.15 -72.05 104.35 -72.6 104.25 Q-72.8 104.1 -73.35 103.65 -73.85 103.1 -74.15 103.1 -74.45 103.1 -74.6 103.25 L-74.75 103.7 Q-74.75 104.1 -73.95 104.4 -72.6 105.05 -71.85 105.8 -71.25 106.4 -71.25 107.3 -71.25 108.45 -72.25 109.25 -73.05 109.9 -74.35 109.9 L-75.5 109.8 -76.4 109.65 -76.65 109.7 -77.0 109.8 -77.6 109.55 -78.2 108.6 -78.55 107.45 Q-78.55 106.75 -77.9 106.75 L-77.5 106.9 -76.7 107.7 -76.1 108.2 -75.65 108.3 -75.2 108.2 -75.05 107.8 Q-75.05 107.4 -75.7 107.1 -77.0 106.45 -77.6 105.8 -78.15 105.1 -78.15 104.2 -78.15 103.2 -77.6 102.55 -76.75 101.5 -75.25 101.5 L-73.9 101.7 -73.6 101.7 M-42.0 103.25 L-43.5 103.25 -43.85 103.3 -43.9 103.65 -43.9 106.4 -43.65 107.2 Q-43.4 107.5 -43.05 107.5 L-42.2 107.25 -41.95 107.15 Q-41.75 107.15 -41.55 107.4 -41.4 107.6 -41.4 107.95 -41.4 108.4 -42.0 108.9 -43.15 109.9 -44.75 109.9 -46.1 109.9 -46.9 109.15 -47.7 108.4 -47.7 107.2 L-47.7 103.4 -47.75 103.15 -47.95 103.1 -48.8 103.1 -49.15 103.05 -49.2 102.7 -49.2 102.3 -49.0 101.95 -45.25 99.6 -44.9 99.55 -44.25 99.55 -43.95 99.65 -43.9 100.0 -43.9 101.1 -43.85 101.45 -43.45 101.5 -42.0 101.5 -41.55 101.6 -41.45 102.05 -41.45 102.6 -41.55 103.1 -42.0 103.25 M-41.05 105.95 Q-41.05 104.0 -39.55 102.8 -38.05 101.5 -35.9 101.5 -34.45 101.5 -33.25 102.25 L-31.95 103.75 Q-31.5 104.7 -31.5 105.7 -31.5 107.45 -33.1 108.75 -34.65 109.9 -36.7 109.9 -38.65 109.9 -39.85 108.8 -41.05 107.7 -41.05 105.95 M-17.85 102.55 Q-17.85 102.05 -17.0 101.8 L-14.5 101.55 -12.6 101.7 Q-11.9 101.85 -11.9 102.35 L-12.15 102.95 -12.2 103.15 -11.95 103.65 -11.6 103.95 -11.1 103.65 -10.85 103.05 -11.0 102.7 -11.15 102.3 -11.05 101.95 -10.7 101.7 -9.45 101.55 -8.4 101.7 Q-7.95 101.9 -7.95 102.3 L-8.15 102.65 -8.7 102.95 -9.05 103.2 -9.95 104.4 -10.55 105.25 -10.65 105.45 -10.55 105.65 -10.05 106.4 -8.9 107.95 -8.35 108.3 Q-7.9 108.45 -7.9 108.9 -7.9 109.4 -8.65 109.6 L-11.15 109.85 -13.1 109.7 Q-13.85 109.5 -13.85 108.95 -13.85 108.6 -13.45 108.4 L-13.15 108.05 -13.55 107.3 -14.05 106.85 -14.65 107.4 -15.0 108.3 -14.8 108.65 -14.65 109.15 Q-14.65 109.85 -16.3 109.85 L-17.65 109.65 Q-18.05 109.45 -18.05 109.05 L-17.9 108.65 -17.45 108.5 -16.9 108.2 -15.75 106.4 -15.15 105.45 -15.05 105.25 -15.15 105.1 -15.85 104.2 -16.6 103.4 -17.2 103.15 Q-17.85 103.0 -17.85 102.55 M-23.05 103.3 L-23.25 104.0 -23.15 104.35 -22.7 104.45 -21.9 104.45 Q-21.35 104.45 -21.35 104.0 -21.35 103.55 -21.6 103.25 L-22.3 103.0 Q-22.75 103.0 -23.05 103.3 M-22.2 101.5 Q-20.65 101.5 -19.55 102.35 L-18.7 103.4 Q-18.3 104.1 -18.3 104.8 L-18.5 105.7 Q-18.75 106.0 -19.1 106.0 L-22.95 106.0 Q-23.2 106.0 -23.2 106.2 -23.2 106.75 -22.6 107.2 -22.05 107.7 -21.35 107.7 L-20.5 107.55 Q-20.0 107.4 -19.75 107.15 L-19.25 107.0 -18.85 107.25 -18.65 107.8 Q-18.65 108.35 -19.35 108.95 -20.65 109.9 -22.4 109.9 -24.1 109.9 -25.3 108.9 L-26.2 107.75 Q-26.7 106.8 -26.7 105.75 -26.7 104.35 -25.85 103.25 -25.15 102.3 -24.05 101.85 -23.2 101.5 -22.2 101.5 M-35.8 103.95 Q-36.1 103.4 -36.6 103.35 -36.95 103.35 -37.15 103.65 L-37.35 104.35 -37.15 105.75 -36.75 107.2 Q-36.5 107.9 -35.9 107.9 -35.15 107.9 -35.15 106.95 L-35.35 105.35 -35.8 103.95 M-3.15 99.45 Q-3.15 100.1 -3.75 100.5 -4.75 101.05 -6.2 101.05 L-7.15 100.8 Q-7.6 100.55 -7.6 100.0 -7.6 99.3 -6.6 98.9 L-4.65 98.5 -3.55 98.75 Q-3.15 99.0 -3.15 99.45 M-3.05 102.05 L-3.05 106.85 -2.95 107.7 -2.5 108.15 -2.2 108.45 -2.1 108.8 Q-2.1 109.85 -4.75 109.85 L-7.1 109.6 -7.55 109.3 -7.7 108.85 -7.6 108.5 -7.2 108.1 -6.8 107.5 -6.7 106.2 -6.7 105.2 -6.75 104.35 Q-6.8 104.0 -7.25 103.85 -7.75 103.65 -7.75 103.15 -7.75 102.65 -7.1 102.45 -6.2 102.05 -5.15 101.8 L-3.5 101.55 Q-3.05 101.55 -3.05 102.05" fill="#000000" fill-rule="evenodd" stroke="none"/>
  </g>
</svg>
