<?xml version="1.0" encoding="UTF-8" standalone="no"?>
<svg xmlns:xlink="http://www.w3.org/1999/xlink" height="313.0px" width="412.0px" xmlns="http://www.w3.org/2000/svg">
  <g transform="matrix(1.0, 0.0, 0.0, 1.0, 252.15, 164.65)">
    <path d="M63.05 -147.85 L63.35 -147.85 67.0 -145.95 Q65.05 -144.9 63.1 -143.55 L65.3 -142.3 62.8 -141.8 61.35 -142.5 Q58.65 -141.6 55.85 -141.05 L55.65 -141.45 55.3 -142.15 53.05 -143.7 54.55 -143.4 56.85 -144.5 Q40.45 -151.65 23.55 -157.65 L23.9 -158.0 26.55 -158.9 29.4 -158.6 Q45.7 -152.95 59.8 -145.4 L61.05 -145.65 63.05 -147.85 M48.2 -158.25 L45.75 -159.5 Q58.85 -157.35 70.85 -151.25 L77.55 -151.9 80.65 -151.75 77.45 -149.8 74.7 -149.15 75.7 -148.5 73.9 -147.05 73.55 -146.65 74.1 -146.5 74.25 -146.45 73.35 -145.9 Q72.2 -146.4 71.1 -147.05 L71.05 -147.1 Q66.1 -151.3 59.15 -154.15 53.75 -156.4 48.2 -158.25 M127.9 -149.95 Q127.35 -152.65 128.05 -155.65 L128.8 -156.4 128.95 -157.1 Q130.0 -160.0 132.45 -161.15 127.6 -157.7 130.3 -149.85 L130.25 -148.4 130.3 -147.65 132.5 -144.55 132.55 -144.15 133.3 -143.4 133.3 -142.65 133.35 -141.9 133.55 -141.15 134.55 -140.6 136.3 -139.4 136.5 -139.15 138.5 -137.15 Q138.2 -135.4 138.25 -133.7 L134.55 -137.4 133.55 -137.65 132.1 -139.2 Q130.6 -140.85 129.8 -142.9 130.05 -144.45 129.45 -145.75 126.55 -143.55 123.8 -140.9 120.3 -140.6 117.05 -139.65 110.1 -142.2 103.5 -145.5 96.15 -149.15 89.2 -150.1 L88.85 -150.35 89.25 -150.5 90.0 -150.8 Q104.15 -148.7 117.55 -142.65 L119.9 -143.0 121.6 -143.2 122.8 -143.4 122.85 -143.9 123.05 -144.65 Q125.0 -145.8 126.75 -147.25 L128.05 -146.15 129.05 -146.65 127.9 -149.95 M134.3 -151.15 L136.05 -152.4 137.05 -150.9 134.75 -149.5 134.3 -151.15 M148.7 -153.9 L148.8 -153.9 150.6 -151.45 Q155.1 -144.5 152.3 -136.15 151.15 -134.55 149.8 -133.5 150.25 -129.6 148.55 -126.15 L147.05 -125.45 145.6 -124.7 145.9 -125.45 146.3 -126.9 146.85 -127.6 147.55 -128.4 147.55 -129.05 147.45 -129.2 Q148.05 -130.75 148.1 -132.4 145.15 -130.95 141.45 -131.45 141.25 -133.15 141.2 -134.9 L146.8 -134.9 147.65 -135.65 147.6 -135.8 Q149.15 -136.55 150.8 -137.9 151.3 -141.35 151.05 -144.6 151.25 -148.45 149.45 -151.75 L148.7 -153.9 M137.95 -114.7 Q138.0 -111.75 138.5 -108.9 L135.3 -106.05 Q135.2 -110.1 135.8 -114.0 L137.95 -114.7 M146.45 -110.65 L152.8 -110.65 154.35 -109.5 Q155.05 -109.05 155.8 -108.65 157.35 -106.65 157.6 -104.2 158.05 -99.7 156.3 -96.1 L156.0 -95.95 155.3 -94.9 151.85 -94.45 153.75 -97.05 153.8 -97.15 153.8 -97.2 Q156.1 -101.55 154.55 -106.9 153.95 -107.3 153.3 -107.65 L152.05 -108.4 146.3 -108.65 Q141.6 -106.55 139.3 -102.15 140.7 -96.3 145.05 -94.35 L144.3 -94.4 Q138.85 -96.6 136.25 -100.5 139.25 -106.75 145.55 -110.4 L146.45 -110.65 M136.4 -95.55 Q134.5 -88.05 133.85 -80.2 133.55 -76.85 133.8 -73.65 131.1 -84.15 134.6 -96.3 L134.8 -97.0 136.4 -95.55 M143.65 -70.05 L145.05 -70.15 145.95 -69.55 146.3 -68.9 146.3 -68.6 Q144.8 -64.35 140.7 -61.0 L140.85 -61.55 142.8 -63.9 142.5 -64.65 142.0 -65.7 143.65 -70.05 M145.85 -82.85 L145.05 -84.15 Q143.2 -84.55 141.35 -85.1 L141.05 -85.4 141.05 -86.1 141.55 -86.9 145.05 -87.15 Q147.7 -85.8 148.85 -82.5 L149.0 -82.05 148.8 -82.4 Q147.95 -82.9 147.1 -83.5 L147.05 -83.65 145.95 -83.0 145.85 -82.85 M151.2 -72.2 Q151.55 -68.5 151.3 -64.65 150.2 -63.25 149.4 -61.75 L148.8 -60.9 145.8 -60.75 148.65 -65.25 148.8 -65.4 148.8 -65.5 149.6 -67.0 Q150.9 -69.5 151.2 -72.2 M148.05 -49.35 Q152.05 -44.05 154.1 -37.35 156.4 -30.05 155.65 -23.45 L153.75 -25.55 Q153.6 -36.1 147.15 -44.7 143.9 -49.05 140.2 -53.05 138.65 -42.6 144.25 -33.55 L141.1 -34.75 141.05 -34.9 140.05 -34.7 Q138.75 -36.6 137.85 -39.1 L137.7 -39.6 138.45 -39.7 138.8 -40.15 Q138.65 -43.65 136.7 -47.0 L136.55 -47.65 Q136.65 -48.35 136.9 -48.95 L137.6 -48.15 138.05 -47.65 138.8 -48.2 139.55 -48.9 139.7 -53.7 140.05 -54.05 Q143.5 -51.1 148.05 -49.35 M156.1 -0.5 Q159.55 9.0 156.1 20.05 154.05 26.75 150.05 32.05 145.5 33.8 142.05 36.8 L141.7 36.4 141.55 31.6 140.8 30.9 140.05 30.35 139.6 30.85 138.9 31.65 138.55 30.35 Q138.55 30.0 138.7 29.7 140.65 26.35 140.8 22.85 L140.45 22.4 139.7 22.35 139.85 21.8 Q140.75 19.3 142.05 17.4 L143.05 17.6 143.1 17.45 146.25 16.25 Q140.65 25.3 142.2 35.8 L149.15 27.4 Q156.0 18.25 155.75 6.85 155.7 4.85 155.3 2.95 L155.1 2.1 154.45 -2.05 155.05 -2.95 156.1 -0.5 M147.8 43.45 L150.8 43.6 151.4 44.45 Q152.2 45.95 153.3 47.35 153.55 51.2 153.2 54.95 152.9 52.2 151.6 49.7 L150.8 48.25 150.8 48.1 150.65 47.95 147.8 43.45 M151.0 64.75 L150.85 65.2 Q149.7 68.5 147.05 69.85 L143.55 69.6 143.05 68.8 143.05 68.1 143.35 67.8 147.05 66.85 147.85 65.6 147.95 65.7 149.05 66.35 149.1 66.2 150.8 65.1 151.0 64.75 M148.3 51.35 L148.3 51.6 147.95 52.25 147.05 52.85 145.65 52.75 144.0 48.45 144.5 47.35 144.8 46.6 142.85 44.3 142.7 43.75 Q146.8 47.05 148.3 51.35 M135.8 56.35 Q135.55 59.55 135.85 62.9 136.5 70.75 138.4 78.25 L136.8 79.7 136.6 79.0 Q133.1 66.85 135.8 56.35 M158.3 78.85 Q160.05 82.4 159.6 86.9 159.35 89.35 157.8 91.35 L156.35 92.2 154.8 93.35 148.45 93.35 147.55 93.1 Q141.25 89.45 138.25 83.25 140.85 79.3 146.3 77.1 L147.05 77.05 Q142.7 79.0 141.3 84.85 143.6 89.25 148.3 91.35 L154.05 91.1 Q154.7 90.75 155.3 90.35 L156.55 89.6 Q158.1 84.25 155.8 79.95 L155.8 79.85 155.75 79.8 153.85 77.15 157.3 77.6 158.0 78.65 158.3 78.85 M140.5 91.6 Q140.0 94.45 139.95 97.45 L137.8 96.7 Q137.2 92.8 137.3 88.8 138.7 90.3 140.5 91.6 M147.6 107.45 L149.05 108.15 150.55 108.85 Q152.25 112.3 151.8 116.2 153.15 117.25 154.3 118.85 157.1 127.2 152.6 134.15 L150.8 136.6 150.7 136.65 151.45 134.5 Q153.25 131.15 153.05 127.35 153.3 124.05 152.8 120.6 151.15 119.25 149.6 118.55 L149.65 118.35 148.8 117.6 143.2 117.6 Q143.25 115.85 143.45 114.15 147.15 113.65 150.1 115.15 150.05 113.45 149.45 111.95 L149.55 111.75 149.55 111.1 148.85 110.3 148.3 109.6 147.9 108.15 147.6 107.45 M136.75 132.2 L139.05 133.6 138.05 135.1 136.3 133.85 136.75 132.2 M134.45 143.9 Q132.0 142.7 130.95 139.8 130.8 139.5 130.8 139.1 L130.05 138.35 Q129.35 135.35 129.9 132.65 L131.05 129.35 130.05 128.85 Q129.35 129.35 128.75 129.95 127.0 128.5 125.05 127.35 L124.85 126.6 124.8 126.1 123.6 125.95 121.9 125.7 119.55 125.35 Q106.15 131.4 92.0 133.5 L91.25 133.2 90.85 133.05 91.2 132.85 Q98.15 131.85 105.5 128.2 112.1 124.9 119.05 122.35 122.3 123.3 125.8 123.6 128.55 126.25 131.45 128.5 132.05 127.15 131.8 125.6 132.6 123.55 134.1 121.9 L135.55 120.35 136.55 120.1 140.25 116.4 Q140.2 118.1 140.5 119.9 139.5 120.7 138.5 121.85 L138.3 122.1 136.55 123.3 135.55 123.85 135.35 124.6 135.3 125.35 135.3 126.1 134.55 126.85 134.5 127.3 132.3 130.35 132.25 131.1 132.3 132.55 Q129.6 140.4 134.45 143.9 M82.65 134.5 L79.55 134.6 72.85 133.95 Q60.85 140.05 47.75 142.25 L50.2 140.95 Q55.75 139.1 61.15 136.85 68.1 134.0 73.05 129.8 L73.1 129.75 75.35 128.6 76.25 129.2 76.1 129.2 75.55 129.35 75.9 129.75 77.7 131.25 76.7 131.85 79.45 132.55 82.65 134.5 M65.05 130.55 Q63.9 129.6 63.05 128.35 L61.8 128.1 Q47.7 135.65 31.4 141.3 L28.55 141.6 25.9 140.7 25.55 140.35 Q42.45 134.35 58.85 127.2 L56.55 126.1 55.05 126.4 57.3 124.85 57.65 124.15 57.85 123.8 63.35 125.2 64.8 124.55 67.3 125.05 65.1 126.3 69.0 128.7 65.35 130.55 65.05 130.55 M45.65 128.0 Q34.65 128.1 25.65 134.5 24.05 135.6 22.05 135.65 4.4 136.25 -10.85 127.75 L-8.05 127.35 Q-5.0 128.25 -1.95 130.35 5.2 135.25 11.05 134.35 L7.3 131.65 Q12.0 132.8 16.5 132.85 L17.55 133.35 17.05 132.85 Q26.55 132.8 35.2 127.75 38.5 125.85 42.25 124.95 L44.6 124.5 49.05 124.15 54.05 123.6 54.35 123.6 48.6 127.35 47.2 127.55 45.65 128.0 M-23.0 126.0 Q-36.3 126.9 -45.4 137.65 L-46.2 138.1 Q-43.85 134.5 -40.0 130.8 L-38.7 129.85 Q-28.4 121.75 -16.3 123.5 L-17.75 123.7 Q-21.05 124.35 -23.0 126.0 M80.15 126.85 L83.55 126.1 81.95 127.9 80.15 126.85 M142.5 107.75 L140.55 107.35 Q139.05 103.45 138.25 99.45 L140.05 100.4 Q140.4 102.75 141.8 104.85 L142.1 105.15 143.85 105.55 142.5 107.75 M133.05 51.1 Q133.6 44.75 138.2 39.95 L138.25 40.05 138.3 40.75 Q136.45 43.15 135.1 46.0 133.9 48.5 133.05 51.1 M136.2 -57.2 Q131.6 -62.0 131.05 -68.4 131.9 -65.8 133.1 -63.3 134.45 -60.45 136.3 -58.05 L136.25 -57.35 136.2 -57.2 M136.25 -116.75 Q137.05 -120.75 138.55 -124.65 L140.5 -125.05 141.85 -122.8 140.1 -122.45 139.8 -122.15 Q138.4 -120.05 138.05 -117.65 L136.25 -116.75 M79.95 -145.2 L81.55 -143.4 78.15 -144.1 79.95 -145.2 M40.25 -142.25 Q36.5 -143.15 33.2 -145.05 24.55 -150.1 15.05 -150.15 L15.55 -150.65 14.5 -150.15 Q10.0 -150.1 5.3 -148.95 L9.05 -151.65 Q3.2 -152.55 -3.95 -147.65 -7.0 -145.55 -10.05 -144.65 L-12.85 -145.05 Q2.4 -153.55 20.05 -152.95 22.05 -152.9 23.65 -151.8 32.65 -145.4 43.65 -145.25 L45.2 -144.85 46.6 -144.65 Q49.6 -142.95 52.35 -140.9 L52.05 -140.9 47.05 -141.45 42.6 -141.8 40.25 -142.25 M-18.3 -140.75 Q-30.4 -139.05 -40.7 -147.15 L-42.0 -148.1 -45.7 -152.05 Q-47.55 -149.75 -50.05 -147.35 -50.6 -146.8 -51.35 -146.4 -61.65 -138.3 -73.75 -140.0 L-72.3 -140.25 Q-69.0 -140.85 -67.05 -142.55 -54.85 -143.4 -46.1 -152.55 L-48.2 -155.4 -47.4 -154.95 -45.65 -153.05 -44.65 -154.2 Q-44.35 -154.55 -43.85 -154.65 L-45.25 -152.65 Q-36.75 -144.1 -25.0 -143.3 -23.05 -141.6 -19.75 -141.0 L-18.3 -140.75 M-107.05 -149.4 Q-116.6 -149.35 -125.25 -144.3 -128.55 -142.4 -132.3 -141.5 L-134.65 -141.05 -139.1 -140.7 -144.05 -140.15 -144.4 -140.15 Q-141.65 -142.2 -138.65 -143.9 L-137.25 -144.1 -135.65 -144.5 Q-124.7 -144.65 -115.7 -151.05 -114.1 -152.15 -112.1 -152.2 -94.45 -152.8 -79.2 -144.3 L-81.95 -143.9 Q-85.05 -144.8 -88.1 -146.9 -95.25 -151.8 -101.1 -150.9 L-97.3 -148.2 Q-102.05 -149.35 -106.55 -149.4 L-107.6 -149.9 -107.05 -149.4 M-170.2 -143.35 L-173.6 -142.65 -172.0 -144.45 -170.2 -143.35 M-181.25 -149.35 Q-188.2 -148.4 -195.55 -144.75 -202.15 -141.45 -209.1 -138.9 L-215.85 -140.15 -221.45 -145.0 Q-222.1 -143.7 -221.85 -142.15 -222.65 -140.1 -224.15 -138.45 L-225.6 -136.9 -226.6 -136.65 -230.3 -132.95 Q-230.25 -134.65 -230.55 -136.4 L-228.55 -138.4 -228.35 -138.65 -226.6 -139.85 -225.6 -140.4 -225.4 -141.15 -225.35 -141.9 -225.35 -142.65 -224.6 -143.4 -224.55 -143.8 -222.35 -146.9 -222.3 -147.65 -222.35 -149.1 Q-219.65 -156.95 -224.5 -160.4 -222.05 -159.25 -221.0 -156.35 L-220.85 -155.65 -220.1 -154.9 Q-219.4 -151.9 -219.9 -149.2 L-221.1 -145.9 -220.1 -145.4 -218.8 -146.5 -215.1 -143.9 -214.9 -143.15 -214.85 -142.65 -213.6 -142.45 -211.9 -142.25 -209.6 -141.9 Q-196.2 -147.95 -182.0 -150.05 L-181.3 -149.75 -180.85 -149.6 -181.25 -149.35 M-232.5 -124.3 L-230.6 -123.9 Q-229.1 -120.0 -228.3 -116.0 L-230.1 -116.9 Q-230.45 -119.3 -231.85 -121.4 L-232.15 -121.7 -233.85 -122.05 -232.5 -124.3 M-223.05 -67.65 Q-223.65 -61.25 -228.2 -56.45 L-228.25 -56.6 -228.35 -57.3 Q-226.5 -59.7 -225.15 -62.55 -223.95 -65.05 -223.05 -67.65 M-229.7 -38.85 L-229.9 -38.35 Q-230.8 -35.85 -232.1 -33.95 L-233.1 -34.15 -233.15 -34.0 -236.25 -32.8 Q-230.7 -41.85 -232.25 -52.3 -235.95 -48.3 -239.2 -43.95 -245.65 -35.35 -245.8 -24.75 L-247.7 -22.75 Q-248.4 -29.35 -246.15 -36.6 -244.1 -43.3 -240.1 -48.6 -235.55 -50.35 -232.1 -53.3 L-231.7 -52.95 -231.6 -48.15 -230.85 -47.45 -230.1 -46.9 -229.65 -47.4 -228.95 -48.2 -228.6 -46.9 Q-228.6 -46.55 -228.75 -46.25 -230.7 -42.9 -230.85 -39.4 L-230.5 -38.95 -229.7 -38.85 M-234.35 18.4 Q-233.05 20.3 -232.15 22.8 L-231.95 23.35 -232.75 23.4 -233.1 23.85 Q-232.95 27.35 -231.0 30.7 L-230.85 31.35 Q-230.95 32.05 -231.2 32.65 L-231.9 31.85 -232.35 31.35 -233.1 31.9 -233.85 32.6 -233.95 37.4 -234.35 37.8 Q-237.8 34.8 -242.35 33.05 -246.35 27.75 -248.4 21.05 -251.95 9.65 -248.15 -0.1 L-247.35 -1.95 -246.75 -1.05 -247.4 3.1 -247.45 3.4 Q-248.0 5.55 -248.05 7.85 -248.3 19.25 -241.45 28.4 -238.2 32.75 -234.5 36.8 -232.95 26.3 -238.5 17.25 L-235.4 18.45 -235.35 18.6 -234.35 18.4 M-230.45 40.95 Q-225.9 45.75 -225.3 52.1 -226.2 49.5 -227.4 47.0 -228.75 44.15 -230.6 41.75 L-230.5 41.05 -230.45 40.95 M-230.55 100.45 Q-231.35 104.45 -232.85 108.35 L-234.75 108.75 -236.1 106.55 -234.4 106.15 -234.1 105.85 Q-232.7 103.75 -232.35 101.4 L-230.55 100.45 M-232.55 117.4 L-228.85 121.1 -227.85 121.35 -226.4 122.9 Q-224.9 124.55 -224.1 126.6 -224.35 128.15 -223.7 129.5 -220.85 127.25 -218.1 124.6 -214.6 124.3 -211.35 123.35 -204.4 125.9 -197.8 129.2 -190.45 132.85 -183.5 133.85 L-183.1 134.05 -183.55 134.2 -184.25 134.5 Q-198.45 132.4 -211.85 126.35 L-214.15 126.7 -215.85 126.95 -217.1 127.1 -217.15 127.6 -217.35 128.35 -221.05 130.95 -222.35 129.85 -223.35 130.35 -222.15 133.65 Q-221.65 136.35 -222.35 139.35 L-223.1 140.1 -223.25 140.8 Q-224.3 143.7 -226.75 144.9 -221.9 141.4 -224.6 133.55 L-224.55 132.1 -224.6 131.35 -226.8 128.3 -226.85 127.85 -227.6 127.1 -227.6 126.35 -227.65 125.6 -227.85 124.85 -228.85 124.3 -230.6 123.1 -230.8 122.85 Q-231.8 121.7 -232.8 120.9 -232.5 119.1 -232.55 117.4 M-174.25 128.9 L-175.85 127.1 -172.45 127.85 -174.25 128.9 M-134.55 125.95 Q-130.8 126.85 -127.5 128.75 -118.85 133.8 -109.3 133.85 L-109.85 134.35 -108.8 133.85 Q-104.3 133.8 -99.55 132.65 L-103.35 135.35 Q-97.5 136.25 -90.35 131.35 -87.3 129.25 -84.2 128.35 L-81.45 128.75 Q-96.7 137.25 -114.35 136.65 -116.35 136.6 -117.95 135.5 -126.95 129.1 -137.9 129.0 L-139.5 128.55 -140.9 128.35 Q-143.9 126.65 -146.65 124.6 L-146.3 124.6 -141.35 125.15 -136.9 125.5 -134.55 125.95 M-76.0 124.5 Q-63.9 122.75 -53.6 130.85 L-52.3 131.8 Q-48.45 135.5 -46.1 139.1 L-46.9 138.65 Q-56.0 127.9 -69.3 127.0 -71.25 125.35 -74.55 124.7 L-76.0 124.5 M-147.35 127.4 L-148.85 127.1 -151.1 128.2 Q-134.75 135.35 -117.85 141.35 L-118.2 141.7 -120.85 142.6 -123.7 142.3 Q-140.0 136.65 -154.05 129.1 L-155.35 129.35 -157.3 131.55 -157.65 131.55 -161.3 129.7 -157.4 127.3 -159.6 126.05 -157.1 125.55 -155.6 126.2 -150.1 124.8 -149.95 125.15 -149.6 125.85 -147.35 127.4 M-140.05 143.25 Q-153.15 141.05 -165.1 134.95 L-171.85 135.6 -174.9 135.5 -171.75 133.55 -168.95 132.85 -169.95 132.25 -168.2 130.75 -167.85 130.35 -168.4 130.2 -168.5 130.2 -167.65 129.6 Q-166.5 130.1 -165.4 130.75 L-165.3 130.8 Q-160.4 135.0 -153.45 137.85 -148.05 140.1 -142.5 141.95 L-140.05 143.25 M-228.6 134.85 L-230.35 136.1 -231.35 134.6 -229.0 133.2 -228.6 134.85 M-242.95 137.65 L-243.1 137.6 -244.9 135.15 Q-249.4 128.2 -246.6 119.85 -245.45 118.25 -244.05 117.2 -244.55 113.3 -242.85 109.85 L-241.35 109.15 -239.9 108.45 -240.2 109.15 -240.6 110.6 -241.15 111.3 -241.85 112.1 -241.85 112.75 -241.75 112.95 Q-242.35 114.45 -242.4 116.15 -239.45 114.65 -235.7 115.15 L-235.45 118.6 -241.1 118.6 -241.95 119.35 -241.9 119.55 Q-243.45 120.25 -245.1 121.6 -245.6 125.05 -245.3 128.35 -245.55 132.15 -243.7 135.5 L-242.95 137.65 M-232.25 98.45 Q-232.3 95.45 -232.75 92.6 L-229.55 89.8 Q-229.5 93.8 -230.05 97.7 L-232.25 98.45 M-240.7 94.35 L-247.1 94.35 Q-247.85 93.75 -248.65 93.2 L-250.1 92.35 Q-251.65 90.35 -251.9 87.9 -252.35 83.4 -250.6 79.85 L-250.3 79.65 -249.6 78.6 -246.1 78.15 Q-247.25 79.4 -248.0 80.8 L-248.1 80.85 -248.1 80.95 Q-250.4 85.25 -248.85 90.6 L-247.6 91.35 -246.35 92.1 -240.6 92.35 Q-235.9 90.25 -233.6 85.85 -235.0 80.0 -239.35 78.05 L-238.6 78.1 Q-233.15 80.3 -230.5 84.25 -233.55 90.45 -239.85 94.1 L-240.7 94.35 M-230.7 79.25 Q-228.8 71.75 -228.15 63.9 -227.85 60.55 -228.05 57.35 -225.4 67.85 -228.9 80.0 L-229.1 80.7 -230.7 79.25 M-237.95 53.75 L-239.35 53.85 -240.25 53.25 -240.6 52.6 -240.6 52.35 Q-239.1 48.05 -235.0 44.75 L-235.1 45.3 -237.1 47.6 -236.8 48.35 -236.25 49.45 -237.95 53.75 M-240.1 66.6 L-239.35 67.85 -235.65 68.8 -235.35 69.1 -235.35 69.8 -235.85 70.6 -239.35 70.85 Q-242.0 69.5 -243.15 66.2 L-243.3 65.75 -243.1 66.1 -241.4 67.2 -241.35 67.35 -240.25 66.7 -240.1 66.6 M-245.45 55.95 Q-245.85 52.2 -245.6 48.35 L-243.7 45.45 -243.1 44.6 -240.05 44.45 -242.95 48.95 -243.1 49.1 -243.1 49.25 -243.9 50.7 Q-245.2 53.2 -245.45 55.95 M-237.8 -60.0 L-240.85 -60.15 -241.45 -61.0 Q-242.25 -62.5 -243.35 -63.9 -243.6 -67.75 -243.2 -71.45 -242.95 -68.75 -241.65 -66.25 L-240.85 -64.75 -240.85 -64.65 -240.7 -64.5 -237.8 -60.0 M-241.05 -81.3 L-240.9 -81.75 Q-239.75 -85.05 -237.1 -86.4 L-233.6 -86.15 -233.1 -85.35 -233.1 -84.65 -233.4 -84.35 Q-235.25 -83.8 -237.1 -83.4 L-237.85 -82.1 -238.0 -82.25 -239.1 -82.9 -239.15 -82.75 -240.85 -81.65 -241.05 -81.3 M-238.35 -67.85 L-238.35 -68.15 -238.0 -68.8 -237.1 -69.4 -235.7 -69.3 -234.0 -64.95 -234.55 -63.9 -234.85 -63.15 -232.85 -60.8 -232.75 -60.25 Q-236.85 -63.6 -238.35 -67.85 M-225.8 -72.9 Q-225.6 -76.1 -225.9 -79.45 -226.55 -87.3 -228.45 -94.8 L-226.85 -96.25 -226.65 -95.55 Q-223.15 -83.4 -225.8 -72.9 M-248.35 -95.35 Q-250.1 -98.95 -249.65 -103.45 -249.4 -105.9 -247.85 -107.9 L-246.4 -108.75 -244.85 -109.9 -238.45 -109.9 -237.6 -109.65 Q-231.3 -106.0 -228.25 -99.75 -230.9 -95.85 -236.35 -93.65 L-237.1 -93.6 Q-232.75 -95.55 -231.35 -101.4 -233.65 -105.8 -238.35 -107.9 L-244.1 -107.65 -245.35 -106.9 -246.6 -106.15 Q-248.15 -100.8 -245.85 -96.45 L-245.85 -96.4 -245.75 -96.3 Q-245.0 -94.95 -243.85 -93.7 L-247.35 -94.15 -248.05 -95.2 -248.35 -95.35 M-230.5 -108.15 Q-230.05 -111.0 -230.0 -113.95 -228.85 -113.75 -227.8 -113.25 -227.25 -109.35 -227.3 -105.3 L-230.5 -108.15 M-237.65 -123.95 L-239.1 -124.7 -240.6 -125.4 Q-242.3 -128.85 -241.8 -132.75 -243.2 -133.8 -244.35 -135.4 -247.15 -143.75 -242.65 -150.7 L-240.85 -153.15 -240.7 -153.15 -241.45 -151.0 Q-243.3 -147.7 -243.05 -143.85 -243.35 -140.6 -242.85 -137.15 -241.2 -135.8 -239.65 -135.05 L-239.7 -134.9 -238.85 -134.15 -233.2 -134.15 Q-233.25 -132.4 -233.45 -130.7 -237.2 -130.2 -240.15 -131.65 -240.1 -130.0 -239.5 -128.45 L-239.6 -128.3 -239.6 -127.65 -238.9 -126.85 -238.35 -126.15 -237.95 -124.7 -237.65 -123.95 M-226.75 -148.75 L-229.1 -150.15 -228.1 -151.65 -226.35 -150.4 -226.75 -148.75 M-172.65 -151.0 L-169.6 -151.15 -162.85 -150.5 Q-150.9 -156.6 -137.8 -158.75 L-140.25 -157.5 Q-145.8 -155.65 -151.2 -153.4 -158.15 -150.55 -163.05 -146.35 L-163.15 -146.3 Q-164.25 -145.65 -165.4 -145.15 L-166.25 -145.7 -166.15 -145.75 -165.6 -145.9 -165.95 -146.3 -167.7 -147.75 -166.7 -148.4 -169.5 -149.05 -172.65 -151.0 M-155.05 -147.1 Q-153.95 -146.15 -153.1 -144.9 L-151.8 -144.65 Q-137.75 -152.2 -121.45 -157.85 L-118.6 -158.15 Q-117.25 -157.8 -115.95 -157.25 L-115.6 -156.9 Q-132.5 -150.9 -148.85 -143.75 L-146.6 -142.65 -145.1 -142.95 -147.35 -141.4 -147.7 -140.7 -147.85 -140.3 -153.35 -141.75 -154.85 -141.05 -157.35 -141.55 -155.15 -142.8 -159.05 -145.2 -155.4 -147.1 -155.05 -147.1 M145.7 -140.75 L147.05 -140.9 Q146.4 -139.0 144.25 -139.1 L143.65 -139.35 143.4 -139.55 144.8 -139.9 145.7 -140.75 M144.05 -126.1 L143.8 -125.4 143.05 -124.2 142.65 -125.5 143.3 -125.65 144.05 -126.1 M145.85 -27.6 L147.15 -26.2 145.8 -26.4 145.55 -26.3 145.85 -27.6 M152.45 -15.25 L153.0 -18.2 153.7 -15.7 153.05 -14.3 152.45 -15.25 M142.15 -27.4 Q140.7 -23.95 140.6 -20.3 L139.65 -19.5 Q139.75 -23.2 141.05 -26.65 L142.15 -27.4 M145.25 -11.65 L146.95 -11.65 146.85 -11.55 146.4 -10.95 Q145.9 -11.0 145.3 -11.4 L145.25 -11.65 M149.15 8.9 L146.7 11.3 146.35 11.15 Q144.95 10.7 143.7 9.85 L143.05 9.35 Q141.75 5.9 141.65 2.2 L142.1 2.6 Q142.95 3.35 143.95 3.65 L144.05 4.9 Q144.35 7.45 146.6 8.65 L147.8 9.1 149.15 8.9 M151.45 -8.4 L151.8 -8.4 152.8 -7.0 152.2 -5.7 151.9 -5.8 151.55 -5.9 149.95 -8.05 149.65 -8.4 151.45 -8.4 M144.85 -8.0 Q146.25 -8.15 147.3 -7.4 L148.8 -5.8 148.85 -5.75 148.95 -5.65 148.8 -5.65 146.05 -5.65 145.3 -4.1 144.95 -3.15 Q144.3 -1.35 144.05 0.55 L143.55 -0.4 Q144.1 -1.75 143.65 -3.15 L143.5 -3.45 Q143.2 -4.15 143.05 -4.8 L142.9 -5.5 Q143.6 -6.95 144.85 -8.0 M149.7 -8.9 L150.15 -9.35 149.8 -8.9 149.7 -8.9 M145.05 106.95 L145.8 108.1 146.05 108.8 145.3 108.35 144.65 108.2 145.05 106.95 M146.25 121.8 Q148.4 121.7 149.05 123.6 L147.7 123.5 146.8 122.6 145.4 122.25 145.65 122.05 146.25 121.8 M-236.3 -138.35 Q-238.45 -138.25 -239.1 -140.15 L-237.7 -140.0 -236.85 -139.15 -235.4 -138.8 -235.7 -138.6 -236.3 -138.35 M-234.7 -124.75 L-235.1 -123.45 -235.85 -124.65 -236.05 -125.35 -235.35 -124.9 -234.7 -124.75 M-238.1 -26.65 L-237.9 -25.65 -239.2 -25.45 -238.1 -26.65 M-244.5 -14.5 L-245.1 -13.55 -245.85 -15.25 -245.05 -17.8 -244.5 -14.5 M-234.65 -26.95 L-233.1 -25.9 Q-231.8 -22.45 -231.7 -18.75 -232.25 -19.35 -232.9 -19.7 -233.1 -23.4 -234.65 -26.95 M-237.45 -10.9 L-237.6 -10.4 Q-237.95 -10.15 -238.3 -10.05 L-238.9 -10.8 -238.95 -10.9 -237.45 -10.9 M-241.95 -7.4 L-242.25 -7.05 -243.85 -4.9 -243.95 -4.85 -244.45 -4.7 -245.05 -6.0 -244.1 -7.4 -243.5 -7.4 -241.95 -7.4 M-241.2 -4.65 L-241.15 -4.75 -240.85 -5.15 -239.6 -6.4 Q-238.55 -7.15 -237.15 -7.0 L-235.65 -5.3 -235.15 -4.5 Q-235.35 -3.5 -235.8 -2.45 L-235.8 -2.4 Q-236.45 -0.9 -235.85 0.6 L-236.35 1.55 Q-236.6 -0.5 -237.3 -2.4 L-237.35 -2.5 -238.35 -4.65 -240.85 -4.65 -241.2 -4.65 M-241.45 9.9 L-240.1 10.1 -238.55 9.45 Q-236.65 8.3 -236.35 5.9 L-236.25 4.65 Q-235.05 4.3 -234.1 3.4 L-233.95 3.2 Q-234.05 6.9 -235.35 10.35 L-235.75 10.7 Q-237.3 11.75 -238.95 12.3 L-239.9 11.55 -241.45 9.9 M-238.3 109.8 L-238.1 109.1 -237.35 107.95 -236.95 109.2 -237.6 109.35 -238.3 109.8 M-237.65 123.25 L-239.1 123.6 -239.95 124.5 -241.35 124.6 Q-240.7 122.7 -238.55 122.8 L-237.95 123.05 -237.65 123.25" fill="#017801" fill-rule="evenodd" stroke="none"/>
    <path d="M36.65 -161.75 Q40.9 -158.8 45.35 -156.2 37.6 -159.45 29.8 -162.15 L30.05 -162.15 34.05 -161.65 35.05 -162.15 36.65 -161.75 M63.35 -147.85 L64.05 -147.9 Q64.3 -147.9 64.55 -148.15 L64.0 -148.55 Q59.05 -152.0 53.95 -155.0 L48.2 -158.25 Q53.75 -156.4 59.15 -154.15 66.1 -151.3 71.05 -147.1 L72.8 -145.5 73.35 -145.9 74.25 -146.45 75.55 -146.4 77.35 -147.4 Q78.3 -147.9 79.35 -148.2 L81.55 -148.65 81.8 -147.9 82.25 -146.75 79.95 -145.2 78.15 -144.1 75.4 -142.65 75.8 -142.15 74.55 -141.65 74.15 -142.1 Q70.4 -140.45 66.35 -139.45 40.25 -133.1 19.8 -149.15 28.35 -145.35 37.55 -142.9 L40.25 -142.25 42.6 -141.8 52.05 -140.9 52.35 -140.9 Q49.6 -142.95 46.6 -144.65 L47.8 -144.65 48.15 -145.0 48.4 -145.5 48.55 -146.15 Q35.8 -151.55 22.8 -157.4 25.8 -154.35 29.35 -151.9 23.0 -154.75 17.8 -158.4 L21.9 -157.75 Q38.7 -153.25 53.05 -143.7 L55.3 -142.15 55.65 -141.45 55.85 -141.05 55.9 -141.0 62.8 -141.8 65.3 -142.3 66.3 -142.55 Q68.55 -143.1 70.5 -144.1 L67.0 -145.95 63.35 -147.85 M87.0 -152.65 Q92.8 -154.55 99.05 -155.15 101.7 -154.75 104.6 -153.45 L104.85 -153.3 104.75 -152.9 104.3 -151.4 104.05 -150.45 Q98.6 -152.1 92.8 -152.4 91.45 -151.45 90.0 -150.8 L89.25 -150.5 88.85 -150.35 87.1 -151.2 85.8 -151.65 86.9 -152.55 87.0 -152.65 M132.45 -161.15 Q134.25 -162.45 137.05 -163.15 L139.05 -162.9 Q141.05 -162.65 141.05 -160.9 138.7 -158.15 134.3 -157.4 L134.05 -156.65 133.8 -155.9 133.55 -155.15 133.9 -153.65 134.3 -151.15 134.75 -149.5 Q135.6 -146.75 137.3 -144.4 135.2 -146.0 133.8 -148.9 L133.75 -150.4 133.65 -150.8 133.55 -151.15 132.0 -152.05 131.55 -152.15 Q130.55 -151.2 130.35 -149.95 L130.3 -149.85 Q127.6 -157.7 132.45 -161.15 M147.35 -143.25 L147.45 -144.65 Q147.6 -148.2 146.55 -151.4 L145.9 -152.2 145.55 -152.9 145.6 -153.65 145.75 -154.4 145.8 -155.15 146.55 -155.9 147.7 -155.7 148.3 -155.15 148.7 -153.9 149.45 -151.75 149.55 -151.4 Q150.75 -148.1 151.05 -144.6 151.3 -141.35 150.8 -137.9 149.15 -136.55 147.6 -135.8 144.25 -134.3 141.15 -135.55 L141.3 -139.2 142.6 -139.4 144.25 -139.1 Q146.4 -139.0 147.05 -140.9 L147.2 -141.65 148.55 -141.65 147.35 -143.25 M145.6 -124.7 L144.75 -121.7 143.8 -122.15 143.45 -123.1 143.05 -124.2 143.8 -125.4 144.05 -126.1 144.05 -126.15 144.55 -127.65 145.55 -128.4 147.05 -129.65 147.1 -129.5 147.45 -129.2 147.55 -129.05 147.55 -128.4 146.85 -127.6 146.3 -126.9 145.9 -125.45 145.6 -124.7 M144.4 -119.7 L144.3 -118.65 Q142.35 -116.45 139.8 -114.9 L137.95 -114.7 135.8 -114.0 Q134.4 -113.3 133.3 -112.15 L133.75 -109.15 Q133.75 -106.9 134.3 -104.95 L135.3 -106.05 138.5 -108.9 Q142.1 -111.55 147.05 -113.15 L148.45 -112.5 149.05 -111.9 148.45 -111.4 Q147.45 -110.95 146.45 -110.65 L145.55 -110.4 Q139.25 -106.75 136.25 -100.5 138.85 -96.6 144.3 -94.4 L145.05 -94.35 Q148.5 -94.15 151.85 -94.45 L155.3 -94.9 156.0 -95.95 156.3 -96.1 156.55 -96.15 157.25 -94.75 Q157.95 -93.7 157.8 -92.4 151.3 -88.5 143.05 -90.15 141.5 -92.2 139.4 -93.45 137.75 -94.45 136.4 -95.55 L134.8 -97.0 134.6 -96.3 Q131.1 -84.15 133.8 -73.65 L134.9 -70.1 134.55 -69.15 134.45 -68.75 134.05 -67.65 134.95 -65.5 135.4 -64.8 135.55 -64.65 136.8 -64.65 137.15 -65.05 137.8 -63.85 136.85 -60.9 136.3 -58.05 Q134.45 -60.45 133.1 -63.3 131.9 -65.8 131.05 -68.4 127.7 -78.05 128.4 -88.7 128.9 -96.0 131.8 -101.25 129.3 -106.55 131.05 -113.65 133.6 -115.35 136.25 -116.75 L138.05 -117.65 141.8 -119.4 Q141.8 -120.15 141.95 -120.9 L142.25 -122.25 144.4 -119.7 M146.3 -68.6 Q148.4 -74.6 145.55 -82.4 L145.85 -82.85 145.95 -83.0 147.05 -83.65 147.1 -83.5 Q147.95 -82.9 148.8 -82.4 L149.0 -82.05 Q150.9 -78.7 151.2 -74.9 L151.2 -72.2 Q150.9 -69.5 149.6 -67.0 L148.8 -65.5 148.65 -65.25 145.8 -60.75 142.8 -56.95 143.65 -56.0 Q147.05 -52.3 148.55 -49.15 L148.05 -49.35 Q143.5 -51.1 140.05 -54.05 L139.7 -53.7 Q139.95 -57.45 140.7 -61.0 144.8 -64.35 146.3 -68.6 M150.05 32.05 L150.55 31.85 Q149.05 35.0 145.65 38.7 L144.8 39.7 147.8 43.45 150.65 47.95 150.8 48.25 151.6 49.7 Q152.9 52.2 153.2 54.95 L153.2 57.6 Q152.9 61.4 151.0 64.75 L150.8 65.1 149.1 66.2 149.05 66.35 147.95 65.7 147.85 65.6 147.55 65.1 Q150.4 57.3 148.3 51.35 146.8 47.05 142.7 43.75 141.95 40.15 141.7 36.4 L142.05 36.8 Q145.5 33.8 150.05 32.05 M139.8 46.6 L139.15 47.8 138.8 47.35 137.55 47.35 137.4 47.55 136.95 48.2 136.05 50.35 136.45 51.45 136.55 51.85 136.9 52.8 135.8 56.35 Q133.1 66.85 136.6 79.0 L136.8 79.7 138.4 78.25 Q139.75 77.15 141.4 76.15 143.5 74.9 145.05 72.85 153.3 71.2 159.8 75.1 159.95 76.4 159.25 77.45 L158.55 78.85 158.3 78.85 158.0 78.65 157.3 77.6 153.85 77.15 Q150.5 76.85 147.05 77.05 L146.3 77.1 Q140.85 79.3 138.25 83.25 141.25 89.45 147.55 93.1 L148.45 93.35 Q149.45 93.65 150.45 94.1 L151.05 94.6 150.45 95.2 149.05 95.85 Q144.1 94.25 140.5 91.6 138.7 90.3 137.3 88.8 L136.3 87.65 Q135.75 89.6 135.75 91.85 L135.3 94.85 137.8 96.7 139.95 97.45 141.8 97.6 Q144.35 99.15 146.3 101.35 L146.4 102.4 144.25 104.95 143.95 103.6 Q143.8 102.85 143.8 102.1 L140.05 100.4 138.25 99.45 133.05 96.35 Q131.3 89.25 133.8 84.0 130.9 78.7 130.4 71.4 129.7 60.75 133.05 51.1 133.9 48.5 135.1 46.0 136.45 43.15 138.3 40.75 L138.85 43.6 139.8 46.6 M146.75 104.4 L147.6 107.45 147.9 108.15 148.3 109.6 148.85 110.3 149.55 111.1 149.55 111.75 149.45 111.95 149.1 112.2 149.05 112.35 147.55 111.1 146.55 110.35 146.05 108.85 146.05 108.8 145.8 108.1 145.05 106.95 145.45 105.8 145.8 104.85 146.75 104.4 M150.7 136.65 L150.3 137.85 149.7 138.4 148.55 138.6 147.8 137.85 147.75 137.1 147.6 136.35 147.55 135.6 147.9 134.9 148.55 134.1 Q149.6 130.9 149.45 127.35 L149.35 125.95 150.55 124.35 149.2 124.4 149.05 123.6 Q148.4 121.7 146.25 121.8 L144.6 122.1 143.3 121.95 143.15 118.25 Q146.25 117.0 149.6 118.55 151.15 119.25 152.8 120.6 153.3 124.05 153.05 127.35 152.75 130.8 151.55 134.1 L151.45 134.5 150.7 136.65 M139.3 127.1 Q137.6 129.45 136.75 132.2 L136.3 133.85 135.9 136.35 135.55 137.85 135.8 138.6 136.05 139.35 136.3 140.1 Q140.7 140.85 143.05 143.6 143.05 145.35 141.05 145.6 L139.05 145.85 Q136.25 145.15 134.45 143.9 129.6 140.4 132.3 132.55 L132.35 132.65 Q132.55 133.9 133.55 134.85 L134.0 134.75 135.55 133.85 135.65 133.55 135.75 133.1 135.8 131.6 Q137.2 128.7 139.3 127.1 M106.85 136.05 L106.6 136.15 Q103.7 137.45 101.05 137.85 94.8 137.25 89.0 135.35 L88.9 135.25 87.8 134.35 89.1 133.9 90.85 133.05 91.25 133.2 92.0 133.5 Q93.45 134.15 94.8 135.1 100.6 134.8 106.05 133.15 L106.3 134.1 106.75 135.6 106.85 136.05 M38.65 144.45 L37.05 144.85 36.05 144.35 32.05 144.85 31.8 144.85 Q39.6 142.15 47.35 138.95 L38.65 144.45 M55.05 126.4 Q40.7 135.95 23.9 140.45 L19.8 141.1 Q25.0 137.45 31.35 134.65 27.8 137.05 24.8 140.1 37.8 134.25 50.55 128.85 L50.4 128.2 50.15 127.75 49.8 127.35 48.6 127.35 54.35 123.6 54.05 123.6 44.6 124.5 42.25 124.95 39.55 125.6 Q30.35 128.05 21.8 131.85 42.25 115.8 68.35 122.15 72.4 123.15 76.15 124.8 L76.55 124.35 77.8 124.85 77.4 125.4 Q78.8 126.05 80.15 126.85 L81.95 127.9 84.25 129.45 83.8 130.6 83.55 131.35 81.35 130.9 Q80.3 130.6 79.35 130.1 L77.55 129.1 76.25 129.2 75.35 128.6 74.8 128.2 73.05 129.8 Q68.1 134.0 61.15 136.85 55.75 139.1 50.2 140.95 L55.95 137.75 66.0 131.25 66.55 130.85 66.05 130.6 65.35 130.55 69.0 128.7 72.5 126.8 Q70.55 125.8 68.3 125.25 L67.3 125.05 64.8 124.55 57.9 123.7 57.85 123.8 57.65 124.15 57.3 124.85 55.05 126.4 M-10.85 127.75 Q-15.65 128.65 -20.45 130.85 -15.3 131.75 -9.15 135.6 -6.2 137.45 -5.7 140.6 L-5.8 141.3 Q-6.45 143.55 -8.65 144.35 L-9.95 144.85 Q-20.2 147.25 -25.85 139.5 -27.5 137.3 -27.2 134.35 -31.1 134.6 -34.7 136.1 -38.85 137.85 -41.95 136.6 -37.3 134.05 -31.85 132.8 L-25.8 131.45 -25.95 133.85 -25.45 134.6 -24.65 135.75 -24.4 138.05 -23.95 139.6 Q-17.5 144.5 -9.2 141.85 -9.8 136.65 -17.35 135.1 L-19.85 134.7 Q-21.25 133.5 -21.95 131.6 L-21.05 130.05 -20.45 128.6 Q-16.8 126.8 -13.15 126.7 -10.6 126.6 -8.05 127.35 L-10.85 127.75 M-4.85 124.8 Q4.2 124.9 13.45 130.2 15.4 131.3 17.05 132.85 L17.55 133.35 16.5 132.85 Q13.8 131.55 9.75 129.95 5.15 128.15 0.65 127.55 L-1.65 126.25 -4.85 124.8 M138.2 39.95 Q133.4 30.85 139.55 22.35 L139.7 22.35 140.45 22.4 140.8 22.85 Q140.65 26.35 138.7 29.7 138.55 30.0 138.55 30.35 L138.9 31.65 138.3 32.35 138.3 32.85 138.25 33.1 Q137.85 36.65 138.2 39.9 L138.25 40.05 138.2 39.95 M142.05 17.4 Q137.6 16.45 134.3 13.1 L133.55 12.35 Q131.5 1.65 137.6 -6.15 L138.5 -7.25 139.35 -8.2 139.45 -5.4 Q138.65 -4.5 138.25 -3.35 137.85 -2.45 137.75 -1.35 137.7 -0.65 137.8 0.1 136.3 3.25 136.65 6.9 L136.8 10.35 138.25 11.2 139.55 12.35 141.55 12.9 142.0 13.05 144.05 12.85 144.35 12.7 146.6 11.35 146.7 11.3 149.15 8.9 Q151.6 5.75 151.65 1.15 L153.9 -1.25 154.45 -2.05 155.1 2.1 155.15 3.4 Q155.05 12.15 146.25 16.25 L143.1 17.45 143.05 17.6 142.05 17.4 M137.35 -9.05 L136.5 -10.05 Q129.35 -18.2 131.55 -29.65 L132.3 -30.4 Q135.6 -33.75 140.05 -34.7 L141.05 -34.9 141.1 -34.75 144.25 -33.55 Q149.4 -31.15 151.6 -27.15 150.2 -28.0 148.55 -28.65 L147.75 -27.75 147.55 -27.15 149.6 -24.55 Q151.9 -21.35 153.0 -18.2 L152.45 -15.25 151.9 -16.0 149.65 -18.45 Q149.6 -23.05 147.15 -26.2 L145.85 -27.6 146.55 -30.9 145.8 -31.65 144.55 -31.65 143.45 -30.05 143.2 -29.55 142.05 -30.15 140.0 -30.35 137.55 -29.65 136.25 -28.5 134.8 -27.65 134.65 -24.2 Q134.3 -20.55 135.8 -17.4 L135.75 -15.95 Q136.0 -13.55 137.45 -11.9 L137.35 -9.05 M137.7 -39.6 L137.55 -39.65 Q131.4 -48.15 136.2 -57.2 L136.25 -57.35 136.2 -57.2 Q135.85 -53.95 136.25 -50.4 L136.3 -50.15 136.3 -49.65 136.9 -48.95 Q136.65 -48.35 136.55 -47.65 L136.7 -47.0 Q138.65 -43.65 138.8 -40.15 L138.45 -39.7 137.7 -39.6 M15.05 -150.15 Q13.4 -148.6 11.45 -147.5 2.2 -142.2 -6.85 -142.05 L-3.65 -143.55 -1.35 -144.8 Q3.15 -145.45 7.75 -147.25 11.8 -148.85 14.5 -150.15 L15.55 -150.65 15.05 -150.15 M-85.2 -141.3 Q-94.25 -141.45 -103.5 -146.75 -105.45 -147.85 -107.05 -149.4 L-107.6 -149.9 -106.55 -149.4 Q-103.85 -148.1 -99.8 -146.5 -95.2 -144.7 -90.65 -144.05 L-88.4 -142.8 -85.2 -141.3 M-132.3 -141.5 L-129.6 -142.15 Q-120.4 -144.6 -111.85 -148.4 -132.3 -132.35 -158.4 -138.7 -162.45 -139.7 -166.15 -141.35 L-166.6 -140.9 -167.85 -141.4 -167.4 -141.9 -170.2 -143.35 -172.0 -144.45 -174.3 -146.0 -173.85 -147.15 -173.6 -147.9 -171.4 -147.45 -169.35 -146.65 -167.6 -145.65 -166.25 -145.7 -165.4 -145.15 -164.8 -144.75 -163.05 -146.35 Q-158.15 -150.55 -151.2 -153.4 -145.8 -155.65 -140.25 -157.5 L-145.95 -154.25 Q-151.1 -151.25 -156.0 -147.8 L-156.6 -147.4 Q-156.35 -147.15 -156.1 -147.15 L-155.4 -147.1 -159.05 -145.2 -162.55 -143.35 Q-160.6 -142.35 -158.35 -141.8 L-157.35 -141.55 -154.85 -141.05 -147.9 -140.25 -147.85 -140.3 -147.7 -140.7 -147.35 -141.4 -145.1 -142.95 Q-130.75 -152.5 -113.95 -157.0 L-109.85 -157.65 Q-115.05 -154.0 -121.35 -151.15 -117.85 -153.6 -114.85 -156.65 -127.85 -150.8 -140.6 -145.4 L-140.45 -144.75 -140.15 -144.25 -139.85 -143.9 -138.65 -143.9 Q-141.65 -142.2 -144.4 -140.15 L-144.05 -140.15 -134.65 -141.05 -132.3 -141.5 M-228.3 -116.0 Q-225.65 -114.6 -223.1 -112.9 -221.35 -105.8 -223.85 -100.5 -220.95 -95.25 -220.45 -87.95 -219.75 -77.3 -223.05 -67.65 -223.95 -65.05 -225.15 -62.55 -226.5 -59.7 -228.35 -57.3 L-228.9 -60.15 Q-229.3 -61.7 -229.85 -63.1 L-229.15 -64.3 -228.85 -63.9 -227.6 -63.9 -227.45 -64.05 -227.0 -64.75 -226.1 -66.9 -226.45 -68.0 -226.6 -68.4 -226.9 -69.35 -225.8 -72.9 Q-223.15 -83.4 -226.65 -95.55 L-226.85 -96.25 -228.45 -94.8 Q-229.8 -93.7 -231.45 -92.7 -233.55 -91.45 -235.1 -89.4 -243.35 -87.75 -249.85 -91.65 -250.0 -92.95 -249.3 -94.0 L-248.6 -95.4 -248.35 -95.35 -248.05 -95.2 -247.35 -94.15 -243.85 -93.7 Q-240.55 -93.4 -237.1 -93.6 L-236.35 -93.65 Q-230.9 -95.85 -228.25 -99.75 -231.3 -106.0 -237.6 -109.65 L-238.45 -109.9 -240.5 -110.65 -241.1 -111.15 -240.5 -111.75 -239.1 -112.4 Q-234.15 -110.8 -230.5 -108.15 L-227.3 -105.3 -226.3 -104.2 Q-225.8 -106.15 -225.8 -108.4 L-225.35 -111.4 Q-226.45 -112.55 -227.8 -113.25 -228.85 -113.75 -230.0 -113.95 L-231.85 -114.15 Q-234.4 -115.7 -236.35 -117.9 L-236.45 -118.95 -234.3 -121.5 -234.0 -120.15 Q-233.85 -119.4 -233.85 -118.65 -231.95 -117.85 -230.1 -116.9 L-228.3 -116.0 M-228.2 -56.45 Q-223.45 -47.4 -229.6 -38.9 L-229.7 -38.85 -230.5 -38.95 -230.85 -39.4 Q-230.7 -42.9 -228.75 -46.25 -228.6 -46.55 -228.6 -46.9 L-228.95 -48.2 -228.35 -48.9 -228.3 -49.4 -228.3 -49.65 Q-227.9 -53.2 -228.25 -56.45 L-228.25 -56.6 -228.2 -56.45 M-232.1 -33.95 Q-227.65 -33.0 -224.35 -29.65 L-223.6 -28.9 Q-221.4 -17.45 -228.55 -9.3 L-229.4 -8.3 -229.45 -11.15 Q-228.05 -12.8 -227.8 -15.2 L-227.85 -16.65 Q-226.35 -19.8 -226.7 -23.45 L-226.85 -26.9 -228.3 -27.75 -229.6 -28.9 -232.05 -29.6 -234.1 -29.4 -235.5 -28.6 -235.75 -29.05 -236.85 -30.65 -238.1 -30.65 -238.85 -29.9 -238.1 -26.65 -239.2 -25.45 Q-241.65 -22.3 -241.65 -17.7 L-243.9 -15.25 -244.5 -14.5 -245.05 -17.8 Q-244.0 -20.65 -241.9 -23.55 L-239.85 -26.15 -240.05 -26.75 -240.85 -27.65 Q-242.4 -27.05 -243.7 -26.25 -241.55 -30.35 -236.25 -32.8 L-233.15 -34.0 -233.1 -34.15 -232.1 -33.95 M-229.7 -4.9 Q-223.85 2.85 -225.85 13.35 L-226.6 14.1 Q-229.9 17.45 -234.35 18.4 L-235.35 18.6 -235.4 18.45 -238.5 17.25 Q-247.8 12.95 -247.4 3.55 L-247.4 3.1 -246.75 -1.05 -246.15 -0.25 -243.9 2.15 Q-243.9 6.75 -241.45 9.9 L-239.9 11.55 -238.95 12.3 -236.45 13.8 -236.35 13.85 Q-235.35 14.5 -234.3 14.05 L-233.7 13.85 -231.85 13.35 -230.55 12.2 -229.1 11.35 -228.95 7.9 Q-228.6 4.25 -230.1 1.1 L-230.05 -0.35 -230.45 -2.25 Q-230.9 -3.45 -231.7 -4.4 -231.6 -5.8 -231.65 -7.2 L-230.8 -6.25 -229.7 -4.9 M-231.95 23.35 L-231.85 23.35 Q-225.7 31.85 -230.45 40.95 L-230.5 41.05 -230.5 40.9 Q-230.15 37.65 -230.55 34.1 L-230.55 33.85 -230.6 33.35 -231.2 32.65 Q-230.95 32.05 -230.85 31.35 L-231.0 30.7 Q-232.95 27.35 -233.1 23.85 L-232.75 23.4 -231.95 23.35 M-225.3 52.1 Q-222.0 61.75 -222.7 72.4 -223.2 79.7 -226.1 85.0 -223.6 90.25 -225.35 97.35 L-230.55 100.45 -232.35 101.4 -236.1 103.1 -236.25 104.6 -236.55 105.95 -238.7 103.4 -238.6 102.35 Q-236.65 100.15 -234.1 98.6 L-232.25 98.45 -230.05 97.7 -227.6 95.85 -228.05 92.85 Q-228.05 90.6 -228.55 88.65 L-229.55 89.8 -232.75 92.6 Q-236.4 95.25 -241.35 96.85 L-242.75 96.2 -243.35 95.6 -242.75 95.1 -240.7 94.35 -239.85 94.1 Q-233.55 90.45 -230.5 84.25 -233.15 80.3 -238.6 78.1 L-239.35 78.05 Q-242.8 77.85 -246.1 78.15 L-249.6 78.6 -250.3 79.65 -250.6 79.85 -250.85 79.85 -251.55 78.45 Q-252.25 77.4 -252.1 76.1 -245.6 72.2 -237.35 73.85 -235.8 75.9 -233.7 77.15 -232.05 78.15 -230.7 79.25 L-229.1 80.7 -228.9 80.0 Q-225.4 67.85 -228.05 57.35 L-229.15 53.8 -228.85 52.85 -228.7 52.45 -228.35 51.35 -229.25 49.2 -229.7 48.55 -229.85 48.35 -231.1 48.35 -231.4 48.8 -232.1 47.6 -231.15 44.6 -230.6 41.75 Q-228.75 44.15 -227.4 47.0 -226.2 49.5 -225.3 52.1 M-176.55 130.45 L-174.25 128.9 -172.45 127.85 Q-171.1 127.05 -169.65 126.4 L-170.1 125.85 -168.85 125.35 -168.4 125.8 Q-164.7 124.15 -160.65 123.15 -134.55 116.8 -114.1 132.85 -122.65 129.05 -131.85 126.6 L-134.55 125.95 -136.9 125.5 -146.3 124.6 -146.65 124.6 Q-143.9 126.65 -140.9 128.35 L-142.1 128.35 -142.4 128.75 -142.7 129.2 -142.85 129.85 Q-130.1 135.25 -117.1 141.1 -120.1 138.05 -123.6 135.65 -117.3 138.45 -112.1 142.1 L-116.2 141.45 Q-133.0 136.95 -147.35 127.4 L-149.6 125.85 -149.95 125.15 -150.1 124.8 -150.15 124.7 -157.1 125.55 -159.6 126.05 -160.6 126.25 Q-162.85 126.8 -164.8 127.8 L-161.3 129.7 -157.65 131.55 -158.35 131.6 -158.85 131.85 -158.25 132.25 Q-153.35 135.7 -148.2 138.75 L-142.5 141.95 Q-148.05 140.1 -153.45 137.85 -160.4 135.0 -165.3 130.8 L-167.05 129.2 -167.65 129.6 -168.5 130.2 -169.85 130.1 -171.6 131.1 -173.65 131.9 -175.85 132.35 -176.1 131.6 -176.55 130.45 M-109.3 133.85 Q-107.7 132.3 -105.75 131.2 -96.5 125.9 -87.45 125.8 -89.05 126.4 -90.65 127.25 L-92.9 128.55 Q-97.45 129.15 -102.05 130.95 -106.1 132.55 -108.8 133.85 L-109.85 134.35 -109.3 133.85 M-66.45 132.45 L-60.45 133.8 Q-55.0 135.05 -50.35 137.6 -53.45 138.85 -57.6 137.1 -61.2 135.6 -65.1 135.35 -64.8 138.3 -66.45 140.5 -72.1 148.25 -82.35 145.85 L-83.65 145.35 Q-85.85 144.55 -86.5 142.3 L-86.6 141.6 Q-86.1 138.45 -83.15 136.6 -77.0 132.75 -71.85 131.85 -76.65 129.65 -81.45 128.75 L-84.2 128.35 Q-81.7 127.6 -79.15 127.7 -75.5 127.8 -71.85 129.6 L-71.25 131.05 -70.35 132.6 Q-71.05 134.5 -72.4 135.7 L-74.95 136.1 Q-82.5 137.65 -83.1 142.85 -74.8 145.5 -68.35 140.6 L-67.9 139.05 Q-67.7 137.9 -67.65 136.75 L-66.85 135.6 -66.35 134.85 -66.45 132.45 M-139.65 139.95 Q-131.9 143.15 -124.1 145.85 L-124.35 145.85 -128.35 145.35 -129.35 145.85 -130.9 145.45 Q-135.2 142.5 -139.65 139.95 M-181.3 136.35 Q-187.1 138.25 -193.35 138.85 -196.0 138.45 -198.9 137.15 L-199.15 137.05 -199.05 136.6 -198.6 135.1 -198.35 134.15 Q-192.9 135.8 -187.1 136.1 -185.75 135.15 -184.25 134.5 L-183.55 134.2 -183.1 134.05 -181.35 134.9 -180.1 135.35 -181.2 136.25 -181.3 136.35 M-226.75 144.9 Q-228.55 146.15 -231.35 146.85 L-233.35 146.6 Q-235.35 146.35 -235.35 144.6 -233.0 141.85 -228.6 141.1 L-228.35 140.35 -228.1 139.6 -227.85 138.85 -228.2 137.35 -228.6 134.85 -229.0 133.2 Q-229.9 130.45 -231.6 128.1 -229.5 129.7 -228.1 132.6 L-228.05 134.1 -227.95 134.55 -227.85 134.85 -226.3 135.75 -225.85 135.85 Q-224.85 134.9 -224.6 133.65 L-224.6 133.55 Q-221.9 141.4 -226.75 144.9 M-241.65 126.95 L-241.75 128.35 Q-241.9 131.9 -240.85 135.1 L-240.2 135.9 -239.85 136.6 -239.9 137.35 -240.05 138.1 -240.1 138.85 -240.85 139.6 -242.0 139.4 -242.6 138.85 -242.95 137.65 -243.7 135.5 -243.85 135.1 Q-245.05 131.8 -245.3 128.35 -245.6 125.05 -245.1 121.6 -243.45 120.25 -241.9 119.55 -238.55 118.0 -235.45 119.25 L-235.55 122.95 -236.9 123.1 -238.55 122.8 Q-240.7 122.7 -241.35 124.6 L-241.45 125.4 -242.85 125.35 -241.65 126.95 M-239.9 108.45 L-239.0 105.4 -238.1 105.85 -237.75 106.8 -237.35 107.95 -238.1 109.1 -238.3 109.8 -238.35 109.85 -238.85 111.35 -239.85 112.1 -241.35 113.35 -241.4 113.2 -241.75 112.95 -241.85 112.75 -241.85 112.1 -241.15 111.3 -240.6 110.6 -240.2 109.15 -239.9 108.45 M-240.6 52.35 Q-242.7 58.3 -239.85 66.1 L-240.1 66.6 -240.25 66.7 -241.35 67.35 -241.4 67.2 -243.1 66.1 -243.3 65.75 Q-245.2 62.4 -245.5 58.6 L-245.45 55.95 Q-245.2 53.2 -243.9 50.7 L-243.1 49.25 -242.95 48.95 -240.05 44.45 -237.05 40.7 -237.95 39.7 Q-241.35 36.0 -242.85 32.85 L-242.35 33.05 Q-237.8 34.8 -234.35 37.8 L-233.95 37.4 Q-234.25 41.15 -235.0 44.75 -239.1 48.05 -240.6 52.35 M-240.1 -48.6 L-240.6 -48.4 Q-239.1 -51.55 -235.7 -55.25 L-234.8 -56.2 -237.8 -60.0 -240.7 -64.5 -240.85 -64.75 -241.65 -66.25 Q-242.95 -68.75 -243.2 -71.45 L-243.25 -74.15 Q-242.95 -77.95 -241.05 -81.3 L-240.85 -81.65 -239.15 -82.75 -239.1 -82.9 -238.0 -82.25 -237.85 -82.1 -237.6 -81.65 Q-240.45 -73.85 -238.35 -67.85 -236.85 -63.6 -232.75 -60.25 -232.0 -56.7 -231.7 -52.95 L-232.1 -53.3 Q-235.55 -50.35 -240.1 -48.6 M-236.75 -120.95 L-237.65 -123.95 -237.95 -124.7 -238.35 -126.15 -238.9 -126.85 -239.6 -127.65 -239.6 -128.3 -239.5 -128.45 -239.15 -128.75 -239.1 -128.9 -237.6 -127.65 -236.6 -126.9 -236.1 -125.4 -236.05 -125.35 -235.85 -124.65 -235.1 -123.45 -235.5 -122.35 -235.85 -121.4 -236.75 -120.95 M-240.7 -153.15 L-240.35 -154.4 -239.75 -154.95 -238.6 -155.15 -237.85 -154.4 -237.8 -153.65 -237.65 -152.9 -237.6 -152.15 -237.95 -151.45 -238.6 -150.65 Q-239.65 -147.45 -239.5 -143.9 L-239.4 -142.5 -240.6 -140.9 -239.2 -140.9 -239.1 -140.15 Q-238.45 -138.25 -236.3 -138.35 L-234.65 -138.65 -233.3 -138.45 -233.2 -134.8 Q-236.3 -133.55 -239.65 -135.05 -241.2 -135.8 -242.85 -137.15 -243.35 -140.6 -243.05 -143.85 -242.8 -147.35 -241.6 -150.65 L-241.45 -151.0 -240.7 -153.15 M-229.35 -143.65 Q-227.65 -146.0 -226.75 -148.75 L-226.35 -150.4 -225.95 -152.9 -225.6 -154.4 -225.85 -155.15 -226.1 -155.9 -226.35 -156.65 Q-230.75 -157.4 -233.1 -160.15 -233.1 -161.9 -231.1 -162.15 L-229.1 -162.4 Q-226.3 -161.7 -224.5 -160.4 -219.65 -156.95 -222.35 -149.1 L-222.35 -149.2 Q-222.6 -150.45 -223.6 -151.4 L-224.05 -151.3 -225.6 -150.4 -225.7 -150.05 -225.8 -149.65 -225.85 -148.15 Q-227.25 -145.25 -229.35 -143.65 M-196.9 -152.55 L-196.65 -152.7 Q-193.75 -154.0 -191.1 -154.4 -184.85 -153.8 -179.05 -151.9 L-178.95 -151.8 -177.85 -150.9 -179.1 -150.45 -180.85 -149.6 -181.3 -149.75 -182.0 -150.05 -184.85 -151.65 Q-190.65 -151.35 -196.1 -149.7 L-196.35 -150.65 -196.8 -152.15 -196.9 -152.55 M-128.65 -161.0 L-127.1 -161.4 -126.1 -160.9 -122.1 -161.4 -121.85 -161.4 Q-129.65 -158.7 -137.4 -155.45 -132.95 -158.05 -128.65 -161.0 M-79.2 -144.3 Q-74.4 -145.2 -69.6 -147.4 -74.75 -148.3 -80.9 -152.15 -83.85 -154.0 -84.35 -157.15 L-84.25 -157.85 Q-83.6 -160.1 -81.4 -160.9 L-80.1 -161.4 Q-69.85 -163.8 -64.2 -156.05 -62.55 -153.85 -62.85 -150.9 -58.95 -151.15 -55.35 -152.65 -51.2 -154.4 -48.1 -153.15 -52.75 -150.6 -58.2 -149.35 L-64.2 -147.95 -64.1 -150.4 -64.6 -151.15 -65.4 -152.25 -65.65 -154.6 -66.1 -156.15 Q-72.55 -161.05 -80.85 -158.4 -80.25 -153.2 -72.7 -151.65 L-70.15 -151.2 Q-68.8 -150.05 -68.1 -148.15 L-69.0 -146.6 -69.6 -145.15 Q-73.25 -143.35 -76.9 -143.25 L-81.95 -143.9 -79.2 -144.3 M-27.8 -148.7 L-33.85 -150.1 Q-39.3 -151.35 -43.95 -153.9 -40.85 -155.15 -36.7 -153.4 -33.1 -151.9 -29.2 -151.65 -29.5 -154.6 -27.85 -156.8 -22.2 -164.55 -11.95 -162.15 L-10.65 -161.65 Q-8.45 -160.85 -7.8 -158.6 L-7.7 -157.9 Q-8.2 -154.75 -11.15 -152.9 -17.3 -149.05 -22.45 -148.15 -17.65 -145.95 -12.85 -145.05 L-10.05 -144.65 Q-12.6 -143.9 -15.15 -144.0 -18.8 -144.1 -22.45 -145.9 L-23.05 -147.35 -23.95 -148.9 Q-23.25 -150.8 -21.85 -151.95 L-19.35 -152.4 Q-11.8 -153.95 -11.2 -159.15 -19.5 -161.8 -25.95 -156.9 L-26.4 -155.35 -26.65 -153.0 -27.45 -151.9 -27.95 -151.15 -27.8 -148.7 M106.2 -149.75 L106.05 -150.4 107.2 -152.25 Q115.3 -148.4 121.8 -143.4 L121.6 -143.2 119.9 -143.0 Q118.85 -143.2 117.6 -144.05 112.1 -147.7 106.2 -149.75 M133.15 -143.75 Q134.95 -141.5 137.05 -139.4 L138.9 -139.2 138.55 -137.5 138.5 -137.15 136.5 -139.15 136.3 -139.4 Q134.5 -141.5 133.15 -143.75 M146.95 -11.65 L147.3 -12.1 147.3 -11.4 Q146.95 -10.95 146.4 -10.95 L146.85 -11.55 146.95 -11.65 M152.2 -5.7 L151.95 -5.2 151.7 -4.85 150.8 -3.4 148.95 -5.65 148.85 -5.75 148.8 -5.8 147.3 -7.4 Q146.25 -8.15 144.85 -8.0 L144.05 -7.9 142.8 -7.55 143.0 -9.0 143.05 -9.15 143.25 -9.05 145.15 -8.25 148.05 -8.0 148.8 -8.15 149.15 -8.4 149.45 -8.65 149.65 -8.4 149.95 -8.05 151.55 -5.9 151.9 -5.8 152.2 -5.7 M123.6 125.95 L123.8 126.1 Q117.3 131.1 109.2 135.0 L108.05 133.1 108.2 132.5 Q114.1 130.4 119.6 126.75 120.85 125.9 121.9 125.7 L123.6 125.95 M140.5 119.9 L140.55 120.2 140.9 121.9 139.05 122.1 Q136.95 124.2 135.15 126.5 136.5 124.2 138.3 122.1 L138.5 121.85 Q139.5 120.7 140.5 119.9 M-213.6 -142.45 L-213.85 -142.65 Q-207.35 -147.65 -199.25 -151.5 L-198.1 -149.65 -198.2 -149.0 Q-204.15 -146.95 -209.65 -143.3 -210.9 -142.45 -211.9 -142.25 L-213.6 -142.45 M-228.35 -138.65 L-228.55 -138.4 -230.55 -136.4 -230.6 -136.75 -230.95 -138.45 -229.1 -138.65 -225.15 -143.0 Q-226.55 -140.75 -228.35 -138.65 M-200.45 133.5 L-200.35 134.1 -201.5 136.0 Q-209.6 132.1 -216.1 127.1 L-215.85 126.95 -214.15 126.7 Q-213.15 126.9 -211.9 127.75 -206.4 131.4 -200.45 133.5 M-238.3 -10.05 Q-239.1 -9.8 -239.6 -10.4 L-239.6 -11.65 -238.95 -10.9 -238.9 -10.8 -238.3 -10.05 M-244.45 -4.7 L-243.95 -4.85 -243.85 -4.9 -242.25 -7.05 -241.95 -7.4 -241.75 -7.65 -241.45 -7.4 -241.1 -7.15 -240.3 -7.0 -237.4 -7.25 Q-236.35 -7.55 -235.35 -8.15 L-235.05 -6.55 -236.35 -6.9 -237.15 -7.0 Q-238.55 -7.15 -239.6 -6.4 L-240.85 -5.15 -241.15 -4.75 -241.2 -4.65 -243.1 -2.4 -244.0 -3.8 -244.0 -3.85 -244.45 -4.7 M-227.4 127.5 L-231.35 123.1 -233.2 122.9 -232.85 121.2 -232.8 120.9 Q-231.8 121.7 -230.8 122.85 L-230.6 123.1 -227.4 127.5" fill="#7ab46b" fill-rule="evenodd" stroke="none"/>
    <path d="M36.65 -161.75 L33.55 -163.9 34.55 -164.65 35.05 -164.55 Q40.5 -162.25 45.75 -159.5 L48.2 -158.25 53.95 -155.0 Q59.05 -152.0 64.0 -148.55 L64.55 -148.15 Q64.3 -147.9 64.05 -147.9 L63.35 -147.85 63.05 -147.85 61.55 -147.9 60.5 -148.5 Q52.7 -151.9 45.35 -156.2 40.9 -158.8 36.65 -161.75 M80.65 -151.75 Q83.55 -153.35 86.8 -154.4 L87.05 -154.4 87.5 -154.3 87.8 -153.9 87.0 -152.65 86.9 -152.55 85.8 -151.65 87.1 -151.2 88.85 -150.35 89.2 -150.1 90.05 -149.6 Q91.65 -148.55 91.3 -146.65 L90.7 -146.05 Q86.8 -143.25 82.8 -145.65 L82.4 -146.45 82.25 -146.75 81.8 -147.9 81.55 -148.65 79.35 -148.2 Q78.3 -147.9 77.35 -147.4 L75.55 -146.4 74.25 -146.45 74.1 -146.5 73.55 -146.65 73.9 -147.05 75.7 -148.5 77.45 -149.8 80.65 -151.75 M104.85 -153.3 L105.05 -154.4 105.6 -155.1 Q109.5 -159.75 116.05 -159.4 L116.1 -159.25 117.05 -158.9 Q118.5 -157.55 120.35 -156.75 125.6 -154.65 127.9 -149.95 L129.05 -146.65 128.05 -146.15 126.75 -147.25 Q125.65 -148.35 124.75 -149.75 L123.05 -151.9 121.05 -152.35 120.7 -152.3 120.55 -151.9 120.25 -151.2 119.55 -150.4 118.8 -149.65 115.05 -149.4 114.1 -149.95 113.35 -150.7 112.8 -151.4 112.6 -152.15 112.55 -152.9 112.6 -153.65 112.8 -154.4 113.65 -155.0 116.05 -155.9 113.8 -156.15 Q110.7 -155.5 108.5 -153.65 L107.2 -152.25 106.05 -150.4 106.2 -149.75 106.2 -149.7 106.55 -148.9 105.8 -148.15 Q105.05 -148.3 104.45 -148.65 L104.05 -149.15 104.05 -150.45 104.3 -151.4 104.75 -152.9 104.85 -153.3 M137.3 -144.4 Q138.6 -143.45 140.15 -142.95 L140.55 -143.9 141.7 -143.7 142.3 -143.15 142.2 -142.5 143.8 -142.4 144.1 -142.9 144.55 -143.65 146.8 -143.65 147.35 -143.25 148.55 -141.65 147.2 -141.65 146.3 -141.4 145.7 -140.75 144.8 -139.9 143.4 -139.55 142.6 -139.4 141.3 -139.2 141.15 -135.55 141.2 -134.9 Q141.25 -133.15 141.45 -131.45 141.8 -128.4 142.65 -125.5 L143.05 -124.2 143.45 -123.1 143.8 -122.15 144.75 -121.7 Q145.45 -121.05 144.8 -119.9 L144.4 -119.7 142.25 -122.25 141.85 -122.8 140.5 -125.05 Q138.3 -129.15 138.25 -133.7 138.2 -135.4 138.5 -137.15 L138.55 -137.5 138.9 -139.2 137.05 -139.4 Q134.95 -141.5 133.15 -143.75 L132.5 -144.55 130.3 -147.65 130.25 -148.4 130.3 -149.85 130.35 -149.95 Q130.55 -151.2 131.55 -152.15 L132.0 -152.05 133.55 -151.15 133.65 -150.8 133.75 -150.4 133.8 -148.9 Q135.2 -146.0 137.3 -144.4 M134.9 -70.1 Q136.1 -73.95 136.3 -78.15 L136.8 -78.9 Q138.55 -81.5 141.55 -82.15 L142.05 -82.15 143.8 -81.9 144.1 -81.4 144.05 -79.9 143.5 -79.5 Q140.85 -79.05 139.8 -76.65 L139.75 -75.15 139.05 -68.4 138.65 -67.65 137.15 -65.05 136.8 -64.65 135.55 -64.65 135.4 -64.8 134.95 -65.5 134.05 -67.65 134.45 -68.75 134.55 -69.15 134.9 -70.1 M137.8 -63.85 Q139.9 -69.3 144.55 -73.65 145.5 -73.9 145.4 -73.65 L143.65 -70.05 142.0 -65.7 Q141.3 -63.7 140.85 -61.55 L140.7 -61.0 Q139.95 -57.45 139.7 -53.7 L139.55 -48.9 138.8 -48.2 138.05 -47.65 137.6 -48.15 136.9 -48.95 136.3 -49.65 136.3 -50.15 136.25 -50.4 Q135.85 -53.95 136.2 -57.2 L136.25 -57.35 136.3 -58.05 136.85 -60.9 137.8 -63.85 M155.65 -23.45 Q159.2 -18.5 157.75 -10.35 157.2 -7.35 156.05 -4.85 L156.1 -0.5 155.05 -2.95 154.45 -2.05 153.9 -1.25 151.65 1.15 Q151.6 5.75 149.15 8.9 L147.8 9.1 146.6 8.65 147.6 7.25 Q149.5 4.6 150.55 2.05 L149.05 3.1 147.55 2.85 146.9 2.05 146.55 1.35 Q149.1 -1.0 150.8 -3.4 L151.7 -4.85 151.95 -5.2 152.2 -5.7 152.8 -7.0 151.8 -8.4 151.45 -8.4 150.8 -10.25 150.8 -10.15 150.15 -9.35 149.7 -8.9 149.5 -8.7 149.45 -8.65 149.15 -8.4 148.8 -8.15 148.05 -8.0 145.15 -8.25 143.25 -9.05 143.05 -9.15 143.0 -9.0 142.8 -7.55 144.05 -7.9 144.85 -8.0 Q143.6 -6.95 142.9 -5.5 L143.05 -4.8 Q143.2 -4.15 143.5 -3.45 L143.65 -3.15 Q144.1 -1.75 143.55 -0.4 L144.05 0.55 Q144.3 -1.35 144.95 -3.15 L145.3 -3.15 145.3 -3.65 145.3 -4.1 146.05 -5.65 148.8 -5.65 148.8 -4.9 148.8 -1.15 Q146.9 0.6 144.7 1.25 145.2 1.75 145.95 2.1 L146.3 2.6 145.95 3.2 145.1 3.7 145.05 3.85 143.95 3.65 Q142.95 3.35 142.1 2.6 L141.65 2.2 Q141.75 5.9 143.05 9.35 L143.7 9.85 144.35 12.7 144.05 12.85 142.0 13.05 141.55 12.9 141.45 12.75 Q137.4 5.65 139.05 -2.15 L138.25 -3.35 Q138.65 -4.5 139.45 -5.4 L139.35 -8.2 138.5 -7.25 137.6 -6.15 137.35 -9.05 137.45 -11.9 Q137.7 -15.3 138.8 -18.65 L139.55 -19.4 139.65 -19.5 140.6 -20.3 Q140.7 -23.95 142.15 -27.4 L143.2 -29.55 143.45 -30.05 144.55 -31.65 145.8 -31.65 146.55 -30.9 145.85 -27.6 145.55 -26.3 144.2 -21.1 144.1 -20.35 144.3 -19.9 144.15 -19.55 144.3 -18.9 144.65 -18.85 144.9 -19.35 145.55 -20.15 147.05 -20.4 149.65 -18.45 151.9 -16.0 152.45 -15.25 153.05 -14.3 153.95 -12.65 153.7 -15.7 153.0 -18.2 Q151.9 -21.35 149.6 -24.55 L147.55 -27.15 147.75 -27.75 148.55 -28.65 Q150.2 -28.0 151.6 -27.15 L153.75 -25.55 155.65 -23.45 M145.65 52.75 L147.4 56.35 Q147.5 56.6 146.55 56.35 141.9 52.0 139.8 46.6 L138.85 43.6 138.3 40.75 138.25 40.05 138.2 39.9 Q137.85 36.65 138.25 33.1 L138.3 32.85 138.3 32.35 138.9 31.65 139.6 30.85 140.05 30.35 140.8 30.9 141.55 31.6 141.7 36.4 Q141.95 40.15 142.7 43.75 L142.85 44.3 144.0 48.45 145.65 52.75 M139.15 47.8 Q140.0 48.95 140.65 50.35 L141.05 51.1 141.75 57.85 141.8 59.35 Q142.85 61.75 145.5 62.2 L146.05 62.6 146.1 64.1 145.8 64.6 144.05 64.85 143.55 64.85 Q140.55 64.2 138.8 61.6 L138.3 60.85 Q138.1 56.65 136.9 52.8 L136.55 51.85 136.45 51.45 136.05 50.35 136.95 48.2 137.4 47.55 137.55 47.35 138.8 47.35 139.15 47.8 M146.4 102.4 L146.8 102.6 Q147.45 103.75 146.75 104.4 L145.8 104.85 145.45 105.8 145.05 106.95 144.65 108.2 Q143.8 111.1 143.45 114.15 143.25 115.85 143.2 117.6 L143.15 118.25 143.3 121.95 144.6 122.1 145.4 122.25 146.8 122.6 147.7 123.5 148.3 124.1 149.2 124.4 150.55 124.35 149.35 125.95 148.8 126.35 146.55 126.35 146.1 125.6 145.8 125.1 144.2 125.2 144.3 125.85 143.7 126.4 142.55 126.6 142.15 125.65 Q140.6 126.15 139.3 127.1 137.2 128.7 135.8 131.6 L135.75 133.1 135.65 133.55 135.55 133.85 134.0 134.75 133.55 134.85 Q132.55 133.9 132.35 132.65 L132.3 132.55 132.25 131.1 132.3 130.35 134.5 127.3 135.15 126.5 Q136.95 124.2 139.05 122.1 L140.9 121.9 140.55 120.2 140.5 119.9 Q140.2 118.1 140.25 116.4 140.3 111.85 142.5 107.75 L143.85 105.55 144.25 104.95 146.4 102.4 M129.9 132.65 Q127.6 137.35 122.35 139.45 120.5 140.25 119.05 141.6 L118.1 141.95 118.05 142.1 Q111.5 142.45 107.6 137.8 L107.05 137.1 106.85 136.05 106.75 135.6 106.3 134.1 106.05 133.15 106.05 131.85 106.45 131.35 Q107.05 131.0 107.8 130.85 L108.55 131.6 108.2 132.4 108.2 132.5 108.05 133.1 109.2 135.0 110.5 136.35 Q112.7 138.2 115.8 138.85 L118.05 138.6 115.65 137.7 114.8 137.1 114.6 136.35 114.55 135.6 114.6 134.85 114.8 134.1 115.35 133.4 116.1 132.65 117.05 132.1 120.8 132.35 121.55 133.1 122.25 133.9 122.55 134.6 122.7 135.0 123.05 135.05 125.05 134.6 126.75 132.45 Q127.65 131.05 128.75 129.95 129.35 129.35 130.05 128.85 L131.05 129.35 129.9 132.65 M89.0 135.35 L89.8 136.6 89.5 137.0 89.05 137.1 88.8 137.1 Q85.55 136.05 82.65 134.5 L79.45 132.55 77.7 131.25 75.9 129.75 75.55 129.35 76.1 129.2 76.25 129.2 77.55 129.1 79.35 130.1 Q80.3 130.6 81.35 130.9 L83.55 131.35 83.8 130.6 84.25 129.45 84.4 129.15 84.8 128.35 Q88.8 125.95 92.7 128.75 L93.3 129.35 Q93.65 131.25 92.05 132.3 L91.2 132.85 90.85 133.05 89.1 133.9 87.8 134.35 88.9 135.25 89.0 135.35 M47.75 142.25 Q42.5 144.95 37.05 147.25 L36.55 147.35 35.55 146.6 38.65 144.45 47.35 138.95 Q54.7 134.6 62.5 131.2 L63.55 130.6 65.05 130.55 65.35 130.55 66.05 130.6 66.55 130.85 66.0 131.25 55.95 137.75 50.2 140.95 47.75 142.25 M31.35 134.65 Q37.65 130.3 45.65 128.0 L47.2 127.55 48.6 127.35 49.8 127.35 50.15 127.75 50.4 128.2 50.55 128.85 Q37.8 134.25 24.8 140.1 27.8 137.05 31.35 134.65 M-25.8 131.45 Q-25.3 128.0 -23.0 126.0 -21.05 124.35 -17.75 123.7 L-16.3 123.5 Q-10.4 122.7 -4.85 124.8 L-1.65 126.25 0.65 127.55 7.3 131.65 11.05 134.35 Q5.2 135.25 -1.95 130.35 -5.0 128.25 -8.05 127.35 -10.6 126.6 -13.15 126.7 -16.8 126.8 -20.45 128.6 L-21.05 130.05 -21.95 131.6 Q-21.25 133.5 -19.85 134.7 L-17.95 135.85 -16.7 136.35 Q-15.85 137.7 -16.55 139.2 -17.05 140.3 -17.95 140.35 -22.0 139.2 -24.65 135.75 L-25.45 134.6 -25.95 133.85 -25.8 131.45 M-6.85 -142.05 Q-12.4 -140.0 -18.3 -140.75 L-19.75 -141.0 Q-23.05 -141.6 -25.0 -143.3 -27.3 -145.3 -27.8 -148.7 L-27.95 -151.15 -27.45 -151.9 -26.65 -153.0 Q-24.0 -156.5 -19.95 -157.65 -19.05 -157.6 -18.55 -156.5 -17.85 -155.0 -18.7 -153.65 L-19.95 -153.15 -21.85 -151.95 Q-23.25 -150.8 -23.95 -148.9 L-23.05 -147.35 -22.45 -145.9 Q-18.8 -144.1 -15.15 -144.0 -12.6 -143.9 -10.05 -144.65 -7.0 -145.55 -3.95 -147.65 3.2 -152.55 9.05 -151.65 L5.3 -148.95 Q2.1 -146.8 -1.35 -144.8 L-3.65 -143.55 -6.85 -142.05 M-73.75 -140.0 Q-79.65 -139.25 -85.2 -141.3 L-88.4 -142.8 -90.65 -144.05 -97.3 -148.2 -101.1 -150.9 Q-95.25 -151.8 -88.1 -146.9 -85.05 -144.8 -81.95 -143.9 L-76.9 -143.25 Q-73.25 -143.35 -69.6 -145.15 L-69.0 -146.6 -68.1 -148.15 Q-68.8 -150.05 -70.15 -151.2 -71.0 -151.95 -72.1 -152.4 L-73.35 -152.9 Q-74.2 -154.25 -73.5 -155.75 -73.0 -156.85 -72.1 -156.9 -68.05 -155.75 -65.4 -152.25 L-64.6 -151.15 -64.1 -150.4 -64.2 -147.95 Q-64.75 -144.55 -67.05 -142.55 -69.0 -140.85 -72.3 -140.25 L-73.75 -140.0 M-174.3 -146.0 L-174.45 -145.7 -174.85 -144.9 Q-178.85 -142.5 -182.75 -145.3 L-183.35 -145.9 Q-183.7 -147.8 -182.1 -148.85 L-181.25 -149.35 -180.85 -149.6 -179.1 -150.45 -177.85 -150.9 -178.95 -151.8 -179.05 -151.9 -179.85 -153.15 -179.55 -153.55 -179.1 -153.65 -178.85 -153.65 Q-175.6 -152.6 -172.65 -151.0 L-169.5 -149.05 -167.7 -147.75 -165.95 -146.3 -165.6 -145.9 -166.15 -145.75 -166.25 -145.7 -167.6 -145.65 -169.35 -146.65 -171.4 -147.45 -173.6 -147.9 -173.85 -147.15 -174.3 -146.0 M-230.3 -132.95 Q-230.35 -128.4 -232.5 -124.3 L-233.85 -122.05 -234.3 -121.5 -236.45 -118.95 Q-236.5 -118.9 -236.85 -119.15 -237.5 -120.3 -236.75 -120.95 L-235.85 -121.4 -235.5 -122.35 -235.1 -123.45 -234.7 -124.75 Q-233.85 -127.65 -233.45 -130.7 -233.25 -132.4 -233.2 -134.15 L-233.2 -134.8 -233.3 -138.45 -234.65 -138.65 -235.4 -138.8 -236.85 -139.15 -237.7 -140.0 -238.35 -140.65 -239.2 -140.9 -240.6 -140.9 -239.4 -142.5 -238.85 -142.9 -236.6 -142.9 -236.15 -142.15 -235.85 -141.65 -234.25 -141.75 -234.35 -142.4 -233.75 -142.95 -232.6 -143.15 -232.2 -142.2 Q-230.65 -142.7 -229.35 -143.65 -227.25 -145.25 -225.85 -148.15 L-225.8 -149.65 -225.7 -150.05 -225.6 -150.4 -224.05 -151.3 -223.6 -151.4 Q-222.6 -150.45 -222.35 -149.2 L-222.35 -149.1 -222.3 -147.65 -222.35 -146.9 -224.55 -143.8 -225.15 -143.0 -229.1 -138.65 -230.95 -138.45 -230.6 -136.75 -230.55 -136.4 Q-230.25 -134.65 -230.3 -132.95 M-229.4 -8.3 L-229.7 -4.9 -230.8 -6.25 -231.65 -7.2 Q-231.6 -5.8 -231.7 -4.4 -230.9 -3.45 -230.45 -2.25 L-231.1 -1.4 Q-229.45 6.4 -233.5 13.5 L-233.7 13.85 -234.3 14.05 Q-235.35 14.5 -236.35 13.85 L-236.45 13.8 -235.75 10.7 -235.35 10.35 Q-234.05 6.9 -233.95 3.2 L-234.1 3.4 Q-235.05 4.3 -236.25 4.65 L-237.35 4.85 -237.4 4.7 -238.25 4.2 -238.6 3.6 -238.25 3.1 Q-237.35 2.65 -236.7 2.0 -238.95 1.35 -240.85 -0.4 L-240.85 -4.15 -240.85 -4.65 -238.35 -4.65 -237.35 -2.5 -237.35 -2.4 -237.3 -2.4 Q-236.6 -0.5 -236.35 1.55 L-235.85 0.6 Q-236.45 -0.9 -235.8 -2.4 L-235.8 -2.45 Q-235.35 -3.5 -235.15 -4.5 L-235.15 -4.55 -235.35 -5.15 -235.65 -5.3 -237.15 -7.0 -236.35 -6.9 -235.05 -6.55 -235.35 -8.15 Q-236.35 -7.55 -237.4 -7.25 L-240.3 -7.0 -241.1 -7.15 -241.45 -7.4 -241.75 -7.65 -241.8 -7.7 -243.0 -9.05 -243.5 -7.4 -244.1 -7.4 -245.05 -6.0 -244.45 -4.7 -244.0 -3.85 -244.0 -3.8 -243.1 -2.4 Q-241.4 0.0 -238.85 2.35 L-239.2 3.05 -239.85 3.85 -241.35 4.1 -242.3 3.45 Q-241.3 5.7 -239.65 8.0 L-238.55 9.45 -240.1 10.1 -241.45 9.9 Q-243.9 6.75 -243.9 2.15 L-246.15 -0.25 -246.75 -1.05 -247.35 -1.95 -248.15 -0.1 -248.15 -3.45 Q-249.45 -6.1 -250.05 -9.35 -251.55 -17.75 -247.7 -22.75 L-245.8 -24.75 -243.7 -26.25 Q-242.4 -27.05 -240.85 -27.65 L-240.05 -26.75 -239.85 -26.15 -241.9 -23.55 Q-244.0 -20.65 -245.05 -17.8 L-245.85 -15.25 Q-246.3 -13.3 -246.25 -11.35 L-245.1 -13.55 -244.5 -14.5 -243.9 -15.25 -241.65 -17.7 -239.1 -19.65 -237.6 -19.4 -236.95 -18.6 -236.6 -17.9 Q-236.2 -18.95 -236.5 -20.1 L-237.9 -25.65 -238.1 -26.65 -238.85 -29.9 -238.1 -30.65 -236.85 -30.65 -235.75 -29.05 -235.5 -28.6 -234.65 -26.95 Q-233.1 -23.4 -232.9 -19.7 -232.25 -19.35 -231.7 -18.75 L-231.6 -18.65 -230.85 -17.9 Q-229.75 -14.55 -229.45 -11.15 L-229.4 -8.3 M-234.75 108.75 Q-232.6 112.85 -232.55 117.4 -232.5 119.1 -232.8 120.9 L-232.85 121.2 -233.2 122.9 -231.35 123.1 -227.4 127.5 -226.8 128.3 -224.6 131.35 -224.55 132.1 -224.6 133.55 -224.6 133.65 Q-224.85 134.9 -225.85 135.85 L-226.3 135.75 -227.85 134.85 -227.95 134.55 -228.05 134.1 -228.1 132.6 Q-229.5 129.7 -231.6 128.1 -232.9 127.15 -234.45 126.65 L-234.85 127.6 -236.0 127.4 -236.6 126.85 -236.5 126.2 -238.1 126.1 -238.4 126.6 -238.85 127.35 -241.1 127.35 -241.65 126.95 -242.85 125.35 -241.45 125.4 -240.6 125.1 -239.95 124.5 -239.1 123.6 -237.65 123.25 -236.9 123.1 -235.55 122.95 -235.45 119.25 -235.45 118.6 -235.7 115.15 Q-236.1 112.1 -236.95 109.2 L-237.35 107.95 -237.75 106.8 -238.1 105.85 -239.0 105.4 Q-239.75 104.75 -239.1 103.6 L-238.7 103.4 -236.55 105.95 -236.1 106.55 -234.75 108.75 M-183.5 133.85 L-184.35 133.3 Q-185.95 132.25 -185.6 130.35 L-185.0 129.75 Q-181.1 126.95 -177.1 129.35 L-176.7 130.15 -176.55 130.45 -176.1 131.6 -175.85 132.35 -173.65 131.9 -171.6 131.1 -169.85 130.1 -168.5 130.2 -168.4 130.2 -167.85 130.35 -168.2 130.75 -169.95 132.25 -171.75 133.55 -174.9 135.5 Q-177.85 137.05 -181.1 138.1 L-181.35 138.1 -181.8 138.0 -182.1 137.6 -181.3 136.35 -181.2 136.25 -180.1 135.35 -181.35 134.9 -183.1 134.05 -183.5 133.85 M-87.45 125.8 Q-81.9 123.7 -76.0 124.5 L-74.55 124.7 Q-71.25 125.35 -69.3 127.0 -67.0 129.0 -66.45 132.45 L-66.35 134.85 -66.85 135.6 -67.65 136.75 Q-70.3 140.2 -74.35 141.35 -75.25 141.3 -75.75 140.2 -76.45 138.7 -75.6 137.35 L-74.35 136.85 Q-73.25 136.4 -72.4 135.7 -71.05 134.5 -70.35 132.6 L-71.25 131.05 -71.85 129.6 Q-75.5 127.8 -79.15 127.7 -81.7 127.6 -84.2 128.35 -87.3 129.25 -90.35 131.35 -97.5 136.25 -103.35 135.35 L-99.55 132.65 Q-96.4 130.5 -92.9 128.55 L-90.65 127.25 Q-89.05 126.4 -87.45 125.8 M-137.9 129.0 Q-129.95 131.3 -123.6 135.65 -120.1 138.05 -117.1 141.1 -130.1 135.25 -142.85 129.85 L-142.7 129.2 -142.4 128.75 -142.1 128.35 -140.9 128.35 -139.5 128.55 -137.9 129.0 M-157.3 131.55 L-155.85 131.6 -154.8 132.2 Q-147.0 135.6 -139.65 139.95 -135.2 142.5 -130.9 145.45 L-127.85 147.6 -128.85 148.35 -129.35 148.25 Q-134.8 145.95 -140.05 143.25 L-142.5 141.95 -148.2 138.75 Q-153.35 135.7 -158.25 132.25 L-158.85 131.85 -158.35 131.6 -157.65 131.55 -157.3 131.55 M-199.15 137.05 L-199.35 138.1 -199.9 138.8 Q-203.8 143.45 -210.35 143.1 L-210.4 142.95 -211.35 142.6 Q-212.8 141.25 -214.65 140.45 -219.9 138.35 -222.15 133.65 L-223.35 130.35 -222.35 129.85 -221.05 130.95 -219.05 133.45 -217.35 135.6 -215.35 136.05 -215.0 136.0 -214.85 135.6 -214.55 134.9 -213.85 134.1 -213.1 133.35 -209.35 133.1 -208.4 133.65 -207.65 134.4 -207.1 135.1 -206.9 135.85 -206.85 136.6 -206.9 137.35 -207.1 138.1 Q-207.5 138.5 -207.95 138.7 -209.1 139.25 -210.35 139.6 L-208.1 139.85 Q-205.0 139.2 -202.8 137.35 L-201.5 136.0 -200.35 134.1 -200.45 133.5 -200.5 133.4 -200.85 132.6 -200.1 131.85 -198.75 132.35 -198.35 132.85 -198.35 134.15 -198.6 135.1 -199.05 136.6 -199.15 137.05 M-229.15 53.8 Q-230.4 57.65 -230.6 61.85 L-231.1 62.6 Q-232.85 65.2 -235.85 65.85 L-236.35 65.85 -238.1 65.6 -238.4 65.1 -238.35 63.6 -237.8 63.2 Q-235.15 62.75 -234.1 60.35 L-234.05 58.85 -233.35 52.1 -232.95 51.35 -231.4 48.8 -231.1 48.35 -229.85 48.35 -229.7 48.55 -229.25 49.2 -228.35 51.35 -228.7 52.45 -228.85 52.85 -229.15 53.8 M-232.1 47.6 Q-234.2 53.0 -238.85 57.35 -239.8 57.6 -239.7 57.35 L-237.95 53.75 -236.25 49.45 -235.1 45.3 -235.0 44.75 Q-234.25 41.15 -233.95 37.4 L-233.85 32.6 -233.1 31.9 -232.35 31.35 -231.9 31.85 -231.2 32.65 -230.6 33.35 -230.55 33.85 -230.55 34.1 Q-230.15 37.65 -230.5 40.9 L-230.5 41.05 -230.6 41.75 -231.15 44.6 -232.1 47.6 M-235.7 -69.3 L-237.45 -72.9 Q-237.55 -73.15 -236.6 -72.9 -231.95 -68.55 -229.85 -63.1 -229.3 -61.7 -228.9 -60.15 L-228.35 -57.3 -228.25 -56.6 -228.25 -56.45 Q-227.9 -53.2 -228.3 -49.65 L-228.3 -49.4 -228.35 -48.9 -228.95 -48.2 -229.65 -47.4 -230.1 -46.9 -230.85 -47.45 -231.6 -48.15 -231.7 -52.95 Q-232.0 -56.7 -232.75 -60.25 L-232.85 -60.8 Q-233.35 -62.95 -234.0 -64.95 L-235.7 -69.3 M-229.15 -64.3 L-230.7 -66.9 -231.1 -67.65 -231.8 -74.4 -231.85 -75.9 Q-232.9 -78.3 -235.55 -78.75 L-236.1 -79.15 -236.15 -80.65 -235.85 -81.15 -234.1 -81.4 -233.6 -81.4 Q-230.6 -80.75 -228.85 -78.15 L-228.35 -77.4 Q-228.15 -73.2 -226.9 -69.35 L-226.6 -68.4 -226.45 -68.0 -226.1 -66.9 -227.0 -64.75 -227.45 -64.05 -227.6 -63.9 -228.85 -63.9 -229.15 -64.3 M-219.9 -149.2 Q-217.65 -153.9 -212.4 -156.0 -210.55 -156.8 -209.1 -158.15 L-208.15 -158.5 -208.1 -158.65 Q-201.55 -159.0 -197.65 -154.35 L-197.1 -153.65 -196.9 -152.55 -196.8 -152.15 -196.35 -150.65 -196.1 -149.7 -196.1 -148.4 -196.5 -147.9 Q-197.1 -147.55 -197.85 -147.4 L-198.6 -148.15 -198.25 -148.95 -198.2 -149.0 -198.1 -149.65 -199.25 -151.5 -200.55 -152.9 Q-202.75 -154.75 -205.85 -155.4 L-208.1 -155.15 Q-206.85 -154.8 -205.7 -154.25 L-204.85 -153.65 -204.65 -152.9 -204.6 -152.15 -204.65 -151.4 -204.85 -150.65 -205.4 -149.95 -206.15 -149.2 -207.1 -148.65 -210.85 -148.9 -211.6 -149.65 -212.3 -150.45 -212.6 -151.15 -212.75 -151.55 -213.1 -151.6 -215.1 -151.15 -216.8 -149.0 Q-217.7 -147.6 -218.8 -146.5 L-220.1 -145.4 -221.1 -145.9 -219.9 -149.2 M-137.8 -158.75 Q-132.55 -161.5 -127.1 -163.8 L-126.6 -163.9 -125.6 -163.15 -128.65 -161.0 Q-132.95 -158.05 -137.4 -155.45 -144.75 -151.15 -152.55 -147.75 L-153.6 -147.15 -155.05 -147.1 -155.4 -147.1 -156.1 -147.15 Q-156.35 -147.15 -156.6 -147.4 L-156.0 -147.8 Q-151.1 -151.25 -145.95 -154.25 L-140.25 -157.5 -137.8 -158.75 M-121.35 -151.15 Q-127.7 -146.85 -135.65 -144.5 L-137.25 -144.1 -138.65 -143.9 -139.85 -143.9 -140.15 -144.25 -140.45 -144.75 -140.6 -145.4 Q-127.85 -150.8 -114.85 -156.65 -117.85 -153.6 -121.35 -151.15 M43.65 -145.25 Q35.65 -147.6 29.35 -151.9 25.8 -154.35 22.8 -157.4 35.8 -151.55 48.55 -146.15 L48.4 -145.5 48.15 -145.0 47.8 -144.65 46.6 -144.65 45.2 -144.85 43.65 -145.25 M88.8 -147.4 L87.75 -147.95 85.05 -148.65 84.7 -148.3 Q85.55 -146.3 88.8 -147.4 M153.8 -97.2 L153.8 -97.15 153.75 -97.05 Q148.85 -92.8 144.55 -97.4 L144.2 -98.9 144.3 -99.65 144.9 -100.3 146.05 -100.9 147.05 -100.65 147.75 -99.85 148.3 -99.15 150.3 -99.9 150.3 -101.4 150.3 -102.15 149.85 -102.9 149.05 -104.4 Q147.4 -105.1 146.55 -106.65 L146.9 -107.35 147.55 -108.15 149.05 -108.4 149.75 -108.05 153.8 -104.65 153.8 -101.65 153.8 -97.2 M147.3 -12.1 L147.3 -13.65 147.3 -14.15 145.05 -14.15 Q144.8 -12.9 145.25 -11.65 L145.3 -11.4 Q145.9 -11.0 146.4 -10.95 146.95 -10.95 147.3 -11.4 L147.3 -12.1 M146.7 11.3 L146.6 11.35 146.55 11.35 146.35 11.15 146.7 11.3 M155.1 2.1 L155.3 2.95 155.15 3.4 155.1 2.1 M155.8 79.95 L155.8 84.35 155.8 87.35 151.75 90.75 151.05 91.1 149.55 90.85 148.9 90.05 148.55 89.35 Q149.4 87.8 151.05 87.1 L151.85 85.6 152.3 84.85 152.3 84.1 152.3 82.6 150.3 81.85 149.75 82.55 149.05 83.35 148.05 83.6 146.9 83.0 146.3 82.35 146.2 81.6 146.55 80.1 Q150.85 75.5 155.75 79.8 L155.8 79.85 155.8 79.95 M90.8 130.1 Q87.55 129.0 86.7 131.0 L87.05 131.35 89.75 130.65 90.8 130.1 M-245.85 -96.45 L-245.85 -100.9 -245.85 -103.9 -241.8 -107.3 -241.1 -107.65 -239.6 -107.4 -238.95 -106.6 -238.6 -105.9 Q-239.45 -104.35 -241.1 -103.65 L-241.9 -102.15 -242.35 -101.4 -242.35 -100.65 -242.35 -99.15 -240.35 -98.4 -239.8 -99.1 -239.1 -99.9 -238.1 -100.15 -236.95 -99.55 -236.35 -98.9 -236.25 -98.15 -236.6 -96.65 Q-240.9 -92.05 -245.75 -96.3 L-245.85 -96.4 -245.85 -96.45 M-180.85 -146.65 Q-177.6 -145.55 -176.75 -147.55 L-177.1 -147.9 -179.8 -147.2 -180.85 -146.65 M-183.1 131.1 L-182.05 131.65 -179.35 132.35 -179.0 132.0 Q-179.85 130.0 -183.1 131.1 M-239.6 -11.65 L-239.6 -10.4 Q-239.1 -9.8 -238.3 -10.05 -237.95 -10.15 -237.6 -10.4 L-237.45 -10.9 Q-237.15 -12.05 -237.35 -13.15 L-239.6 -13.15 -239.6 -12.65 -239.6 -11.65 M-247.4 3.1 L-247.4 3.55 -247.45 3.4 -247.4 3.1 M-248.1 80.95 L-248.1 80.85 -248.0 80.8 Q-243.15 76.5 -238.85 81.1 L-238.5 82.6 -238.6 83.35 -239.2 84.0 -240.35 84.6 -241.35 84.35 -242.05 83.55 -242.6 82.85 -244.6 83.6 -244.6 85.1 -244.6 85.85 -244.15 86.6 -243.35 88.1 Q-241.7 88.8 -240.85 90.35 L-241.2 91.05 -241.85 91.85 -243.35 92.1 -244.05 91.75 -248.1 88.35 -248.1 85.35 -248.1 80.95" fill="#dfeeca" fill-rule="evenodd" stroke="none"/>
  </g>
</svg>
