<?xml version="1.0" encoding="UTF-8" standalone="no"?>
<svg xmlns:xlink="http://www.w3.org/1999/xlink" height="29.0px" width="432.7px" xmlns="http://www.w3.org/2000/svg">
  <g transform="matrix(1.0, 0.0, 0.0, 1.0, 216.35, 14.5)">
    <path d="M204.15 -14.0 Q209.0 -14.0 212.4 -11.1 215.85 -8.15 215.85 -4.0 L215.85 4.0 Q215.85 8.15 212.4 11.05 209.0 14.0 204.15 14.0 L-204.15 14.0 Q-209.0 14.0 -212.45 11.05 -215.85 8.15 -215.85 4.0 L-215.85 -4.0 Q-215.85 -8.15 -212.45 -11.1 -209.0 -14.0 -204.15 -14.0 L204.15 -14.0" fill="#000000" fill-rule="evenodd" stroke="none"/>
    <path d="M204.15 -14.0 L-204.15 -14.0 Q-209.0 -14.0 -212.45 -11.1 -215.85 -8.15 -215.85 -4.0 L-215.85 4.0 Q-215.85 8.15 -212.45 11.05 -209.0 14.0 -204.15 14.0 L204.15 14.0 Q209.0 14.0 212.4 11.05 215.85 8.15 215.85 4.0 L215.85 -4.0 Q215.85 -8.15 212.4 -11.1 209.0 -14.0 204.15 -14.0 Z" fill="none" stroke="#009a00" stroke-linecap="round" stroke-linejoin="round" stroke-width="1.0"/>
  </g>
</svg>
