<?xml version="1.0" encoding="UTF-8" standalone="no"?>
<svg xmlns:xlink="http://www.w3.org/1999/xlink" height="13.9px" width="91.45px" xmlns="http://www.w3.org/2000/svg">
  <g transform="matrix(1.0, 0.0, 0.0, 1.0, 203.75, 6.95)">
    <path d="M-203.75 -5.65 Q-203.75 -6.55 -202.15 -6.8 L-200.2 -6.9 -199.1 -6.75 -198.25 -6.2 -193.35 -1.95 Q-192.7 -1.35 -192.4 -1.35 -191.9 -1.35 -191.9 -2.45 -191.9 -3.65 -192.05 -4.1 -192.15 -4.55 -192.65 -4.8 L-193.2 -5.2 -193.35 -5.75 Q-193.35 -6.55 -192.2 -6.8 L-190.6 -6.9 -188.55 -6.7 Q-187.65 -6.45 -187.65 -5.65 -187.65 -5.05 -188.4 -4.7 L-188.8 -4.5 -189.0 -4.2 -189.25 -1.75 -189.25 1.45 -189.25 3.45 -189.45 5.9 Q-189.7 6.85 -190.4 6.85 L-190.95 6.75 -191.65 6.15 -197.45 0.95 Q-198.05 0.4 -198.45 0.4 -199.05 0.4 -199.05 2.05 L-198.9 3.9 -198.3 4.65 Q-197.65 4.95 -197.65 5.5 -197.65 6.85 -200.55 6.85 L-202.6 6.5 Q-203.35 6.15 -203.35 5.5 L-203.2 5.0 -202.55 4.55 Q-202.1 4.3 -202.0 3.6 -201.85 2.35 -201.85 0.0 -201.85 -2.55 -202.15 -3.7 L-202.4 -4.3 -202.95 -4.7 -203.55 -5.15 -203.75 -5.65 M-183.9 -2.65 L-181.75 -3.1 Q-179.85 -3.1 -178.55 -2.0 L-177.5 -0.75 Q-177.05 0.05 -177.05 0.85 -177.05 1.45 -177.3 1.85 -177.6 2.3 -178.0 2.3 L-182.6 2.3 -182.9 2.55 Q-182.9 3.15 -182.2 3.75 -181.5 4.3 -180.75 4.3 L-179.7 4.1 -178.75 3.65 -178.2 3.45 -177.7 3.75 -177.5 4.4 Q-177.5 5.1 -178.35 5.75 -179.9 6.9 -181.95 6.9 -184.0 6.9 -185.4 5.7 L-186.5 4.3 Q-187.05 3.2 -187.05 2.0 -187.05 0.35 -186.05 -0.95 -185.2 -2.1 -183.9 -2.65 M-183.0 -0.1 L-182.85 0.35 -182.35 0.45 -181.35 0.45 Q-180.75 0.45 -180.75 -0.15 -180.75 -0.65 -181.05 -1.0 L-181.8 -1.3 Q-182.35 -1.3 -182.7 -0.9 L-183.0 -0.1 M-172.5 -3.1 L-170.95 -2.85 -170.55 -2.8 -169.9 -3.0 -169.55 -3.1 Q-169.1 -3.1 -168.65 -2.5 L-168.0 -1.5 -167.8 -0.55 Q-167.8 -0.15 -168.05 0.1 L-168.75 0.35 -169.35 0.2 -170.2 -0.55 Q-170.85 -1.15 -171.25 -1.15 L-171.7 -0.95 -171.95 -0.5 Q-171.95 0.0 -171.0 0.4 -169.35 1.15 -168.5 2.05 -167.75 2.8 -167.75 3.85 -167.75 5.2 -168.95 6.1 -169.95 6.9 -171.45 6.9 L-172.85 6.8 -173.9 6.7 -174.2 6.7 -174.6 6.75 -175.3 6.5 -176.05 5.4 -176.4 4.05 Q-176.4 3.15 -175.7 3.15 -175.4 3.15 -175.2 3.35 L-174.25 4.3 -173.55 4.9 -173.0 5.05 -172.5 4.85 -172.3 4.4 Q-172.3 3.95 -173.05 3.6 -174.6 2.85 -175.3 2.0 -176.0 1.2 -176.0 0.15 -176.0 -1.05 -175.3 -1.9 -174.3 -3.1 -172.5 -3.1 M-167.4 -1.65 L-167.4 -2.1 -167.15 -2.55 -162.7 -5.35 -162.3 -5.45 -161.5 -5.45 -161.15 -5.3 -161.1 -4.85 -161.1 -3.55 -161.0 -3.15 -160.6 -3.1 -158.8 -3.1 -158.3 -2.95 -158.2 -2.4 -158.2 -1.8 Q-158.2 -1.35 -158.35 -1.15 L-158.85 -1.0 -160.6 -1.0 -161.0 -0.9 -161.1 -0.5 -161.1 2.8 -160.8 3.75 Q-160.5 4.1 -160.05 4.1 L-159.05 3.75 -158.75 3.65 Q-158.5 3.65 -158.3 3.95 L-158.15 4.55 Q-158.15 5.2 -158.8 5.75 -160.2 6.9 -162.15 6.9 -163.7 6.9 -164.65 6.05 -165.6 5.15 -165.6 3.7 L-165.6 -0.8 -165.65 -1.1 -165.95 -1.15 -166.95 -1.15 -167.3 -1.25 -167.4 -1.65 M-142.85 -6.65 Q-142.2 -6.65 -141.45 -5.6 -140.75 -4.55 -140.75 -3.6 -140.75 -3.1 -141.05 -2.7 -141.4 -2.3 -141.85 -2.3 L-142.5 -2.5 -143.55 -3.4 Q-144.75 -4.5 -145.85 -4.5 L-146.75 -4.25 -147.05 -3.55 Q-147.05 -2.7 -145.6 -2.25 L-143.0 -1.4 Q-140.5 -0.2 -140.5 2.15 -140.5 4.25 -142.2 5.55 -143.95 6.9 -146.75 6.9 L-149.4 6.6 -151.4 5.9 -152.2 4.55 Q-152.6 3.5 -152.6 2.5 L-152.4 1.8 Q-152.15 1.45 -151.8 1.45 -151.4 1.45 -151.1 1.85 L-150.1 3.25 -148.95 4.15 -147.35 4.5 -146.15 4.25 Q-145.7 3.95 -145.7 3.55 -145.7 3.15 -146.05 2.85 L-147.2 2.35 -149.35 1.55 -150.7 0.6 Q-152.25 -0.75 -152.25 -2.5 -152.25 -3.35 -151.85 -4.15 L-150.7 -5.6 Q-149.05 -6.95 -146.7 -6.95 L-144.05 -6.45 -143.75 -6.4 -143.2 -6.55 -142.85 -6.65 M-134.9 -6.35 Q-134.4 -6.05 -134.4 -5.5 -134.4 -4.75 -135.15 -4.3 -136.35 -3.6 -138.0 -3.6 -138.75 -3.6 -139.15 -3.9 -139.7 -4.25 -139.7 -4.85 -139.7 -5.7 -138.5 -6.2 L-136.25 -6.7 -134.9 -6.35 M-139.9 -1.1 Q-139.9 -1.7 -139.1 -2.0 L-136.75 -2.7 -134.85 -3.0 Q-134.3 -3.0 -134.3 -2.4 L-134.3 3.25 -134.15 4.25 -133.7 4.85 Q-133.4 5.05 -133.25 5.2 L-133.2 5.6 Q-133.2 6.85 -136.35 6.85 L-139.1 6.55 -139.65 6.25 -139.85 5.65 -139.75 5.25 -139.2 4.8 -138.75 4.05 -138.65 2.55 -138.7 1.35 -138.75 0.3 Q-138.8 -0.1 -139.3 -0.3 -139.9 -0.55 -139.9 -1.1 M-132.2 -2.2 Q-131.65 -3.2 -131.15 -3.2 L-130.8 -3.1 -129.95 -2.9 -127.6 -2.85 -125.0 -2.85 -123.85 -2.8 -123.5 -2.65 -123.3 -2.2 Q-123.3 -1.85 -123.65 -1.25 L-126.2 3.35 -126.55 4.15 Q-126.55 4.6 -125.85 4.6 L-125.05 4.4 -124.5 3.7 -124.1 3.1 Q-124.0 2.95 -123.75 2.95 -123.35 2.95 -123.05 3.3 -122.8 3.65 -122.8 4.2 -122.8 4.8 -123.15 5.5 L-123.95 6.6 Q-124.35 6.95 -124.7 6.95 L-125.05 6.85 -126.2 6.65 -131.3 6.65 Q-132.6 6.65 -132.6 5.9 L-132.5 5.55 -131.85 4.4 -129.6 0.8 -129.0 -0.45 Q-129.0 -0.85 -129.8 -0.85 L-130.45 -0.7 -131.0 -0.1 -131.5 0.6 -131.95 0.75 Q-132.3 0.75 -132.55 0.45 L-132.8 -0.3 Q-132.8 -1.2 -132.2 -2.2 M-117.0 -3.1 Q-115.1 -3.1 -113.8 -2.0 L-112.75 -0.75 Q-112.3 0.05 -112.3 0.85 -112.3 1.45 -112.55 1.85 L-113.25 2.3 -117.85 2.3 -118.15 2.55 Q-118.15 3.15 -117.45 3.75 -116.75 4.3 -116.0 4.3 L-114.95 4.1 -114.0 3.65 -113.45 3.45 Q-113.2 3.45 -112.95 3.75 L-112.75 4.4 Q-112.75 5.1 -113.6 5.75 -115.15 6.9 -117.2 6.9 -119.25 6.9 -120.65 5.7 L-121.75 4.3 Q-122.3 3.2 -122.3 2.0 -122.3 0.35 -121.3 -0.95 -120.45 -2.1 -119.15 -2.65 L-117.0 -3.1 M-117.05 -1.3 Q-117.6 -1.3 -117.95 -0.9 L-118.25 -0.1 -118.1 0.35 -117.6 0.45 -116.6 0.45 Q-116.0 0.45 -116.0 -0.15 -116.0 -0.65 -116.3 -1.0 L-117.05 -1.3" fill="#ffffff" fill-rule="evenodd" stroke="none"/>
  </g>
</svg>
