<?xml version="1.0" encoding="UTF-8" standalone="no"?>
<svg xmlns:xlink="http://www.w3.org/1999/xlink" height="24.0px" width="83.9px" xmlns="http://www.w3.org/2000/svg">
  <g transform="matrix(1.0, 0.0, 0.0, 1.0, 41.95, 12.0)">
    <path d="M13.1 -2.55 Q14.55 -1.1 14.55 1.15 L14.35 3.3 15.4 3.8 15.5 3.9 Q16.05 3.4 16.85 3.35 L17.6 -3.4 Q16.85 -3.35 16.4 -3.8 15.95 -4.25 15.95 -5.0 15.95 -5.9 16.55 -6.45 17.15 -7.0 18.1 -7.0 L20.05 -7.0 Q20.8 -7.0 21.3 -6.55 21.75 -6.15 21.7 -5.4 L21.7 -5.15 20.6 5.1 Q20.4 7.0 18.6 7.0 L16.5 7.0 Q15.8 7.0 15.3 6.55 L15.2 6.45 Q14.7 7.0 13.7 7.0 L12.05 7.0 Q10.7 7.0 10.6 6.1 9.3 7.3 7.3 7.3 5.3 7.3 4.0 5.9 2.7 4.5 2.7 2.4 2.7 -0.35 4.65 -2.15 6.6 -3.95 9.35 -3.95 11.65 -3.95 13.1 -2.55 M27.35 -6.55 Q27.8 -6.15 27.75 -5.4 L27.75 -5.15 26.65 5.1 Q26.45 7.0 24.65 7.0 L22.55 7.0 Q21.85 7.0 21.35 6.55 20.9 6.1 20.9 5.4 20.9 4.5 21.45 3.95 22.05 3.4 22.9 3.35 L23.65 -3.4 Q22.9 -3.35 22.45 -3.8 22.0 -4.25 22.0 -5.0 22.0 -5.9 22.6 -6.45 23.2 -7.0 24.15 -7.0 L26.1 -7.0 Q26.85 -7.0 27.35 -6.55 M10.15 0.2 Q9.65 -0.35 8.85 -0.35 7.95 -0.35 7.25 0.35 6.6 1.0 6.6 1.9 6.6 2.7 7.1 3.2 7.6 3.7 8.4 3.7 9.3 3.7 10.0 3.05 10.65 2.4 10.65 1.5 10.65 0.7 10.15 0.2 M1.55 5.1 Q1.4 6.45 0.45 6.8 L-1.7 7.0 Q-2.45 7.0 -2.95 6.6 -3.45 6.15 -3.45 5.4 -3.45 4.15 -2.2 3.55 L-1.95 0.7 Q-1.95 0.2 -2.25 -0.05 L-3.0 -0.35 Q-4.2 -0.35 -4.4 1.2 L-4.65 3.5 -4.0 4.1 -3.8 5.0 Q-3.8 5.9 -4.4 6.45 -5.05 7.0 -5.95 7.0 L-7.95 7.0 Q-8.75 7.0 -9.25 6.6 -9.75 6.15 -9.75 5.4 L-9.4 4.25 -8.55 3.5 -8.3 0.7 Q-8.3 0.25 -8.6 -0.05 L-9.4 -0.35 Q-10.6 -0.35 -10.75 1.1 L-11.0 3.55 Q-10.15 4.1 -10.15 5.0 -10.15 5.9 -10.7 6.45 -11.3 7.0 -12.15 7.0 L-13.45 7.0 Q-15.1 7.0 -15.1 5.4 L-15.1 5.0 -14.7 1.15 Q-14.45 -1.15 -12.9 -2.55 -11.35 -3.95 -9.05 -3.95 -6.95 -3.95 -5.95 -2.6 -4.7 -3.95 -2.45 -3.95 -0.45 -3.95 0.75 -2.7 2.0 -1.45 2.0 0.55 L1.8 2.8 1.55 5.1 M-20.7 -7.0 L-17.25 -7.0 Q-16.5 -7.0 -16.05 -6.55 -15.55 -6.1 -15.55 -5.4 L-15.7 -3.85 Q-16.1 -2.1 -17.8 -2.1 L-18.9 -2.4 Q-19.45 -2.75 -19.35 -3.35 L-20.95 -3.35 Q-21.9 -3.35 -21.9 -2.45 -21.9 -1.85 -20.8 -1.85 L-20.35 -1.85 -19.9 -1.9 Q-17.9 -1.9 -16.7 -0.9 -15.35 0.15 -15.35 2.05 -15.35 4.2 -16.8 5.6 -18.25 7.0 -20.4 7.0 L-24.9 7.0 Q-25.65 7.0 -26.15 6.55 -26.6 6.15 -26.6 5.4 L-26.5 4.45 -26.4 3.5 Q-26.3 2.75 -25.65 2.3 -25.0 1.8 -24.3 1.8 -23.65 1.8 -23.2 2.15 -22.7 2.5 -22.7 3.1 L-22.75 3.35 -20.4 3.35 Q-19.3 3.35 -19.3 2.6 -19.3 1.75 -20.35 1.75 L-20.85 1.8 -21.35 1.8 Q-23.25 1.8 -24.5 0.85 -25.85 -0.2 -25.85 -2.05 -25.85 -4.25 -24.4 -5.65 -22.9 -7.0 -20.7 -7.0" fill="#666666" fill-rule="evenodd" stroke="none"/>
    <path d="M33.15 -11.0 L-33.15 -11.0 Q-36.4 -11.0 -38.65 -9.25 -40.95 -7.5 -40.95 -5.0 L-40.95 5.0 Q-40.95 7.5 -38.65 9.25 -36.4 11.0 -33.15 11.0 L33.15 11.0 Q36.4 11.0 38.7 9.25 40.95 7.5 40.95 5.0 L40.95 -5.0 Q40.95 -7.5 38.7 -9.25 36.4 -11.0 33.15 -11.0 Z" fill="none" stroke="#666666" stroke-linecap="round" stroke-linejoin="round" stroke-width="2.0"/>
  </g>
</svg>
