<?xml version="1.0" encoding="UTF-8" standalone="no"?>
<svg xmlns:xlink="http://www.w3.org/1999/xlink" height="17.1px" width="164.35px" xmlns="http://www.w3.org/2000/svg">
  <g transform="matrix(1.0, 0.0, 0.0, 1.0, 211.2, 6.9)">
    <path d="M-203.2 -6.9 L-199.65 -6.4 Q-197.7 -5.65 -196.75 -3.85 -195.85 -2.25 -195.85 -0.05 -195.85 1.05 -196.2 2.15 -196.5 3.25 -197.05 4.05 -198.2 5.7 -200.2 6.35 L-202.7 6.75 -204.9 6.7 -206.95 6.65 -207.65 6.65 -209.05 6.7 -209.7 6.75 -210.8 6.45 Q-211.2 6.15 -211.2 5.65 L-211.0 5.15 -210.4 4.8 -209.9 4.5 -209.65 3.65 -209.55 0.8 -209.45 -3.4 Q-209.45 -4.25 -209.6 -4.5 L-210.2 -4.95 Q-210.85 -5.2 -210.85 -5.8 -210.85 -6.3 -210.4 -6.55 L-209.1 -6.85 -208.45 -6.85 -207.25 -6.8 -204.1 -6.9 -203.2 -6.9 M-204.9 -3.95 L-204.9 3.6 -204.65 4.5 -203.75 4.75 Q-200.9 4.75 -200.9 0.4 -200.9 -1.95 -201.6 -3.3 -202.3 -4.75 -204.05 -4.75 L-204.7 -4.55 -204.9 -3.95 M-194.4 -2.0 L-192.05 -2.7 -190.15 -3.0 Q-189.6 -3.0 -189.6 -2.4 L-189.6 3.25 -189.45 4.25 -189.0 4.85 Q-188.7 5.05 -188.55 5.2 L-188.5 5.6 Q-188.5 6.85 -191.65 6.85 L-194.4 6.55 -194.95 6.25 -195.15 5.65 -195.05 5.25 -194.5 4.8 -194.05 4.05 -193.95 2.55 -194.0 1.35 -194.05 0.3 Q-194.1 -0.1 -194.6 -0.3 -195.2 -0.55 -195.2 -1.1 -195.2 -1.7 -194.4 -2.0 M-195.0 -4.85 Q-195.0 -5.7 -193.8 -6.2 L-191.55 -6.7 -190.2 -6.35 Q-189.7 -6.05 -189.7 -5.5 -189.7 -4.75 -190.45 -4.3 -191.65 -3.6 -193.3 -3.6 -194.05 -3.6 -194.45 -3.9 -195.0 -4.25 -195.0 -4.85 M-187.8 -3.75 Q-187.8 -4.95 -187.0 -5.7 -185.8 -6.8 -183.55 -6.8 -181.7 -6.8 -180.6 -5.9 -179.75 -5.25 -179.75 -4.35 -179.75 -3.75 -180.15 -3.3 -180.6 -2.85 -181.2 -2.85 -181.9 -2.85 -182.55 -3.35 L-183.3 -4.1 Q-183.7 -4.55 -184.15 -4.55 L-184.6 -4.4 -184.8 -3.9 Q-184.8 -3.15 -183.35 -2.25 L-182.7 -1.8 -182.45 -1.4 Q-182.35 -1.25 -182.15 -1.25 L-180.9 -1.25 -180.5 -1.15 -180.35 -0.85 -180.45 0.3 -180.55 0.75 -180.95 0.85 -181.25 0.8 -181.55 0.8 Q-181.95 0.8 -182.1 1.1 L-182.25 2.1 -182.05 3.85 -181.8 4.3 -181.25 4.5 Q-180.4 4.8 -180.4 5.45 -180.4 6.2 -181.35 6.5 L-184.65 6.85 Q-188.05 6.85 -188.05 5.5 L-187.9 5.0 -187.3 4.65 Q-186.8 4.4 -186.65 3.8 L-186.5 1.75 Q-186.5 1.25 -186.65 1.05 L-187.3 0.85 -187.95 0.8 -188.1 0.55 -188.05 -0.65 -187.9 -1.05 -187.45 -1.15 Q-187.1 -1.15 -187.1 -1.5 L-187.35 -2.1 -187.8 -3.75 M-178.5 -5.7 Q-177.3 -6.8 -175.05 -6.8 -173.2 -6.8 -172.1 -5.9 -171.25 -5.25 -171.25 -4.35 -171.25 -3.75 -171.65 -3.3 -172.1 -2.85 -172.7 -2.85 -173.4 -2.85 -174.05 -3.35 L-174.8 -4.1 Q-175.2 -4.55 -175.65 -4.55 L-176.1 -4.4 -176.3 -3.9 Q-176.3 -3.15 -174.85 -2.25 L-174.2 -1.8 -173.95 -1.4 Q-173.85 -1.25 -173.65 -1.25 L-172.4 -1.25 -172.0 -1.15 -171.85 -0.85 -171.95 0.3 -172.05 0.75 -172.45 0.85 -172.75 0.8 -173.05 0.8 Q-173.45 0.8 -173.6 1.1 L-173.75 2.1 -173.55 3.85 -173.3 4.3 -172.75 4.5 Q-171.9 4.8 -171.9 5.45 -171.9 6.2 -172.85 6.5 L-176.15 6.85 Q-179.55 6.85 -179.55 5.5 L-179.4 5.0 -178.8 4.65 Q-178.3 4.4 -178.15 3.8 L-178.0 1.75 Q-178.0 1.25 -178.15 1.05 L-178.8 0.85 -179.45 0.8 -179.6 0.55 -179.55 -0.65 -179.4 -1.05 -178.95 -1.15 Q-178.6 -1.15 -178.6 -1.5 L-178.85 -2.1 -179.3 -3.75 Q-179.3 -4.95 -178.5 -5.7 M-167.4 -6.7 Q-166.55 -6.7 -166.05 -6.35 -165.55 -6.05 -165.55 -5.5 -165.55 -4.75 -166.3 -4.3 -167.5 -3.6 -169.15 -3.6 L-170.3 -3.9 Q-170.85 -4.25 -170.85 -4.85 -170.85 -5.7 -169.65 -6.2 L-167.4 -6.7 M-171.05 -1.1 Q-171.05 -1.7 -170.25 -2.0 L-167.9 -2.7 -166.0 -3.0 Q-165.45 -3.0 -165.45 -2.4 L-165.45 3.25 -165.3 4.25 -164.85 4.85 Q-164.55 5.05 -164.4 5.2 L-164.35 5.6 Q-164.35 6.85 -167.5 6.85 L-170.25 6.55 -170.8 6.25 -171.0 5.65 -170.9 5.25 -170.35 4.8 -169.9 4.05 -169.8 2.55 -169.85 1.35 -169.9 0.3 Q-169.95 -0.1 -170.45 -0.3 -171.05 -0.55 -171.05 -1.1 M-153.85 -0.15 Q-153.85 0.7 -154.4 1.25 -154.95 1.75 -155.75 1.75 -156.55 1.75 -156.95 1.15 L-157.35 0.2 Q-157.6 -0.65 -158.35 -0.65 -158.9 -0.65 -159.25 -0.15 -159.6 0.3 -159.6 1.0 -159.6 2.15 -158.75 3.1 -158.1 3.8 -157.05 3.8 L-156.25 3.75 -155.35 3.4 -155.05 3.3 Q-154.7 3.3 -154.45 3.65 -154.2 3.95 -154.2 4.35 -154.2 4.8 -154.6 5.3 L-155.55 6.15 Q-156.8 6.9 -158.5 6.9 -160.55 6.9 -161.95 5.75 -163.75 4.25 -163.75 1.95 -163.75 -0.25 -162.1 -1.7 -160.45 -3.1 -158.15 -3.1 -156.4 -3.1 -155.1 -2.2 -153.85 -1.4 -153.85 -0.15 M-152.25 -2.6 L-148.4 -3.0 Q-147.85 -3.0 -147.85 -2.5 L-147.85 2.75 Q-147.85 4.45 -146.7 4.45 L-146.15 4.3 -145.75 3.9 Q-145.55 3.45 -145.55 1.85 L-145.65 -0.35 -145.8 -0.7 -146.15 -1.0 Q-146.7 -1.25 -146.7 -1.7 -146.7 -2.3 -145.75 -2.55 L-142.2 -3.0 Q-141.2 -3.0 -141.2 -1.95 L-141.2 -1.5 -141.25 -0.4 -141.25 3.95 -140.65 4.55 Q-140.2 4.75 -140.2 5.2 -140.2 6.1 -142.25 6.55 L-144.65 6.85 -145.25 6.75 -145.45 6.35 Q-145.5 5.7 -145.85 5.7 L-146.05 5.8 -146.65 6.15 Q-147.65 6.85 -148.75 6.85 -150.65 6.85 -151.4 5.75 -152.1 4.85 -152.1 2.7 L-152.05 1.35 -152.05 0.9 Q-152.05 0.05 -152.2 -0.35 L-152.75 -0.95 Q-153.15 -1.15 -153.25 -1.3 L-153.35 -1.6 Q-153.35 -2.35 -152.25 -2.6 M-134.6 -6.7 Q-133.8 -6.7 -133.8 -5.75 L-133.9 -4.3 -134.05 -1.1 -134.05 2.05 -134.0 4.45 -133.5 5.0 -133.0 5.3 -132.9 5.65 -133.1 6.25 -133.75 6.65 -136.1 6.85 -138.75 6.55 -139.35 6.15 -139.55 5.6 -139.45 5.25 -138.9 4.95 Q-138.55 4.8 -138.45 4.05 -138.3 2.75 -138.3 0.4 L-138.4 -2.65 Q-138.55 -3.35 -139.1 -3.65 L-139.65 -4.1 -139.8 -4.6 -139.35 -5.45 Q-138.9 -5.8 -137.9 -6.1 L-136.15 -6.5 -134.6 -6.7 M-132.75 -1.25 L-132.85 -1.65 -132.85 -2.1 -132.6 -2.55 -128.15 -5.35 -127.75 -5.45 -126.95 -5.45 -126.6 -5.3 -126.55 -4.85 -126.55 -3.55 -126.45 -3.15 -126.05 -3.1 -124.25 -3.1 -123.75 -2.95 -123.65 -2.4 -123.65 -1.8 Q-123.65 -1.35 -123.8 -1.15 -123.95 -1.0 -124.3 -1.0 L-126.05 -1.0 -126.45 -0.9 -126.55 -0.5 -126.55 2.8 -126.25 3.75 Q-125.95 4.1 -125.5 4.1 -125.1 4.1 -124.5 3.75 L-124.2 3.65 Q-123.95 3.65 -123.75 3.95 L-123.6 4.55 Q-123.6 5.2 -124.25 5.75 -125.65 6.9 -127.6 6.9 -129.15 6.9 -130.1 6.05 -131.05 5.15 -131.05 3.7 L-131.05 -0.8 -131.1 -1.1 -131.4 -1.15 -132.4 -1.15 -132.75 -1.25 M-123.3 -1.2 L-123.45 -1.65 Q-123.45 -2.5 -121.7 -2.8 L-119.1 -3.0 -117.45 -2.8 Q-116.65 -2.5 -116.65 -1.85 L-116.9 -1.25 -117.1 -0.7 -117.0 -0.2 -116.55 0.65 -115.9 1.35 Q-115.6 1.35 -115.3 0.75 -114.95 0.15 -114.95 -0.45 L-115.2 -1.15 -115.6 -1.9 Q-115.6 -2.4 -114.9 -2.7 L-113.15 -3.0 Q-111.05 -3.0 -111.05 -2.0 L-111.25 -1.45 Q-111.5 -1.2 -112.05 -1.0 -112.5 -0.85 -112.8 -0.45 L-113.75 1.75 -115.05 5.25 -116.0 7.45 -117.1 8.85 Q-118.4 10.05 -120.2 10.05 -121.6 10.05 -122.5 9.3 -123.2 8.7 -123.2 7.8 -123.2 7.05 -122.75 6.55 -122.25 6.05 -121.55 6.05 -120.85 6.05 -120.4 6.5 L-120.15 6.85 -119.95 7.6 -119.45 8.05 -118.95 7.75 -118.75 7.1 Q-118.75 6.65 -119.25 5.6 L-121.6 0.6 -122.15 -0.4 -122.95 -0.9 -123.3 -1.2 M-101.95 -6.7 L-101.2 -6.65 -98.85 -6.8 -97.55 -6.85 Q-95.45 -6.85 -94.1 -5.85 -92.85 -4.95 -92.85 -3.3 -92.85 -2.4 -93.3 -1.7 -93.75 -0.95 -94.5 -0.6 L-94.8 -0.2 Q-94.8 0.1 -94.3 0.25 -93.3 0.6 -92.8 1.4 -92.35 2.15 -92.1 3.7 L-91.85 4.5 -91.1 4.9 -90.8 5.15 Q-90.65 5.3 -90.65 5.55 L-90.9 6.15 -91.5 6.65 -93.75 7.05 Q-95.65 7.05 -96.45 6.05 L-97.1 4.9 -97.7 2.75 Q-97.95 1.85 -98.3 1.45 -98.65 1.05 -99.25 1.05 L-99.75 1.25 -99.85 2.3 -99.7 4.25 -99.55 4.55 -99.15 4.8 Q-98.6 5.15 -98.6 5.65 -98.6 6.3 -99.4 6.6 L-102.15 6.85 Q-105.8 6.85 -105.8 5.5 L-105.65 5.1 -105.2 4.7 -104.6 4.05 -104.4 2.7 -104.35 -2.25 Q-104.35 -3.6 -104.5 -4.1 -104.6 -4.6 -105.05 -4.8 L-105.65 -5.2 -105.8 -5.65 -105.5 -6.25 Q-105.25 -6.55 -104.75 -6.65 L-103.6 -6.8 -101.95 -6.7 M-99.85 -3.95 L-99.95 -1.55 -99.85 -1.1 -99.45 -1.0 Q-98.55 -1.0 -98.2 -1.45 -97.8 -1.9 -97.8 -2.85 -97.8 -4.75 -99.15 -4.75 L-99.65 -4.55 -99.85 -3.95 M-85.65 -1.45 L-86.15 -1.25 -86.75 -0.6 Q-87.6 0.65 -88.55 0.65 L-89.35 0.35 -89.65 -0.4 Q-89.65 -0.85 -89.25 -1.35 L-88.25 -2.15 Q-86.5 -3.1 -84.55 -3.1 -82.85 -3.1 -81.65 -2.25 L-80.8 -1.15 Q-80.55 -0.6 -80.55 0.45 L-80.55 1.9 -80.35 3.85 -80.15 4.15 -79.75 4.25 Q-79.45 4.3 -79.45 4.65 -79.45 5.15 -79.8 5.65 L-80.75 6.5 Q-81.5 6.9 -82.3 6.9 -83.35 6.9 -83.95 6.2 L-84.3 5.95 -84.85 6.2 Q-85.8 6.9 -87.05 6.9 -88.3 6.9 -89.1 6.35 L-89.95 5.45 -90.25 4.2 Q-90.25 3.2 -89.4 2.4 -88.15 1.2 -85.6 1.15 L-84.85 1.05 -84.75 0.55 -84.95 -0.95 Q-85.15 -1.45 -85.65 -1.45 M-77.75 -2.1 Q-75.25 -3.0 -74.05 -3.0 -73.5 -3.0 -73.5 -2.2 L-73.5 -2.05 -73.5 -1.8 Q-73.5 -1.25 -73.2 -1.25 L-72.65 -1.7 -71.35 -2.65 -69.7 -3.0 Q-68.05 -3.0 -67.45 -1.8 L-67.05 -1.4 Q-66.9 -1.4 -66.5 -1.75 -65.25 -3.0 -63.65 -3.0 -62.4 -3.0 -61.6 -2.3 -60.75 -1.6 -60.75 -0.15 L-60.75 0.9 -60.8 2.45 -60.8 3.6 -60.8 3.9 Q-60.8 4.5 -60.4 5.0 L-60.1 5.35 -60.05 5.6 Q-60.05 6.85 -63.0 6.85 L-65.1 6.55 Q-65.9 6.25 -65.9 5.7 L-65.85 5.45 -65.45 4.9 Q-65.15 4.5 -65.15 2.2 L-65.35 0.4 Q-65.55 -0.25 -66.2 -0.25 L-66.8 -0.05 -67.1 0.45 -67.2 2.35 -67.1 4.35 -66.6 5.3 -66.5 5.7 Q-66.5 6.85 -69.55 6.85 L-72.0 6.55 Q-72.5 6.35 -72.5 5.8 L-72.45 5.45 -72.0 5.0 -71.75 4.65 -71.65 3.95 -71.6 1.8 Q-71.6 -0.1 -72.55 -0.1 -73.3 -0.1 -73.45 0.7 L-73.55 2.9 -73.5 4.35 -73.25 5.0 -73.05 5.7 Q-73.05 6.35 -73.9 6.6 L-76.05 6.85 -78.25 6.6 Q-78.95 6.35 -78.95 5.85 L-78.85 5.5 -78.45 5.1 Q-78.0 4.7 -77.95 4.0 L-77.8 1.45 -77.9 0.2 -78.3 -0.4 -78.7 -0.75 -78.75 -1.05 Q-78.75 -1.75 -77.75 -2.1 M-59.65 -0.65 L-59.4 -1.35 -58.5 -1.9 Q-56.1 -3.0 -54.7 -3.05 L-53.95 -2.9 Q-53.8 -2.8 -53.8 -2.4 -53.8 -2.05 -53.55 -2.05 -53.45 -2.05 -52.9 -2.4 L-51.85 -2.9 -50.65 -3.1 Q-49.45 -3.1 -48.45 -2.25 -47.7 -1.55 -47.3 -0.6 -46.85 0.45 -46.85 1.6 -46.85 4.1 -48.55 5.65 -49.8 6.9 -51.45 6.9 L-53.15 6.5 -53.45 6.45 Q-53.75 6.45 -53.75 7.05 -53.75 7.8 -53.2 8.15 L-52.65 8.6 -52.55 8.95 Q-52.55 9.55 -53.2 9.85 L-55.05 10.2 Q-57.15 10.2 -58.75 9.35 -59.55 8.9 -59.55 8.25 L-59.45 7.8 -58.95 7.5 Q-58.45 7.25 -58.35 6.65 L-58.2 3.1 -58.35 0.4 -58.45 0.3 -58.95 0.2 -59.45 -0.1 -59.65 -0.65 M-52.15 0.1 Q-52.5 -0.25 -52.95 -0.25 -53.65 -0.25 -53.75 0.65 L-53.85 3.35 -53.9 3.65 -53.6 4.15 -52.9 4.35 Q-51.55 4.35 -51.55 2.15 -51.55 0.7 -52.15 0.1 M-85.2 2.55 Q-85.65 2.55 -85.95 2.9 -86.25 3.25 -86.25 3.75 L-86.05 4.5 Q-85.8 4.8 -85.45 4.8 -84.65 4.8 -84.65 3.5 -84.65 2.95 -84.8 2.75 -84.9 2.6 -85.2 2.55" fill="#ffffff" fill-rule="evenodd" stroke="none"/>
  </g>
</svg>
