<?xml version="1.0" encoding="UTF-8" standalone="no"?>
<svg xmlns:xlink="http://www.w3.org/1999/xlink" height="24.0px" width="83.9px" xmlns="http://www.w3.org/2000/svg">
  <g transform="matrix(1.0, 0.0, 0.0, 1.0, 41.95, 12.0)">
    <path d="M0.95 -1.0 Q1.75 -1.0 2.2 -0.5 2.7 0.05 2.7 0.85 2.7 1.9 2.1 2.6 1.45 3.4 0.45 3.4 -0.3 3.4 -0.8 2.85 -1.25 2.3 -1.25 1.5 -1.25 0.5 -0.65 -0.25 0.0 -1.0 0.95 -1.0 M5.2 -3.2 Q3.7 -4.45 1.3 -4.45 -1.5 -4.45 -3.4 -2.75 -5.4 -1.0 -5.4 1.8 -5.4 4.1 -3.8 5.5 -2.3 6.8 0.05 6.8 2.9 6.8 4.8 5.1 6.85 3.3 6.85 0.5 6.85 -1.8 5.2 -3.2 M9.05 -3.95 Q8.1 -3.55 7.95 -2.1 L7.55 1.8 7.5 2.4 Q7.5 4.4 8.85 5.6 10.15 6.8 12.15 6.8 13.95 6.8 15.6 5.4 L17.0 6.45 18.75 6.8 Q21.0 6.8 22.6 5.4 24.2 4.0 24.45 1.8 L24.9 -2.2 24.9 -2.45 Q24.9 -4.15 23.15 -4.15 L22.0 -4.15 Q21.05 -4.15 20.45 -3.6 19.8 -3.0 19.8 -2.1 19.8 -1.05 20.75 -0.7 L20.45 1.7 Q20.3 3.2 19.05 3.2 17.95 3.2 17.9 2.0 L18.2 -0.7 Q19.5 -1.2 19.5 -2.5 19.5 -3.25 19.0 -3.7 18.5 -4.15 17.75 -4.15 L15.45 -4.15 Q14.6 -4.15 13.95 -3.6 13.3 -3.0 13.3 -2.2 13.3 -1.05 14.25 -0.7 L14.0 1.8 Q13.85 3.2 12.6 3.2 11.45 3.2 11.45 2.0 L11.75 -0.7 11.9 -0.75 Q12.95 -1.1 12.95 -2.45 12.95 -4.15 11.15 -4.15 L9.05 -3.95 M33.15 -11.0 Q36.4 -11.0 38.7 -9.25 40.95 -7.5 40.95 -5.0 L40.95 5.0 Q40.95 7.5 38.7 9.25 36.4 11.0 33.15 11.0 L-33.15 11.0 Q-36.4 11.0 -38.65 9.25 -40.95 7.5 -40.95 5.0 L-40.95 -5.0 Q-40.95 -7.5 -38.65 -9.25 -36.4 -11.0 -33.15 -11.0 L33.15 -11.0 M-11.3 -5.5 Q-11.3 -4.75 -10.85 -4.3 -10.4 -3.85 -9.65 -3.9 L-10.4 2.85 Q-11.25 2.9 -11.85 3.45 -12.4 4.0 -12.4 4.9 L-11.95 6.05 -10.75 6.5 -8.65 6.5 Q-6.85 6.5 -6.65 4.6 L-5.55 -5.65 -5.55 -5.9 Q-5.5 -6.65 -5.95 -7.05 -6.45 -7.5 -7.2 -7.5 L-9.15 -7.5 Q-10.1 -7.5 -10.7 -6.95 -11.3 -6.4 -11.3 -5.5 M-20.8 -6.15 Q-22.25 -4.75 -22.25 -2.55 -22.25 -0.7 -20.9 0.35 -19.65 1.3 -17.75 1.3 L-17.25 1.3 -16.75 1.25 Q-15.7 1.25 -15.7 2.1 -15.7 2.85 -16.8 2.85 L-19.15 2.85 -19.1 2.6 Q-19.1 2.0 -19.6 1.65 -20.05 1.3 -20.7 1.3 -21.4 1.3 -22.05 1.8 -22.7 2.25 -22.8 3.0 L-22.9 3.95 -23.0 4.9 Q-23.0 5.65 -22.55 6.05 -22.05 6.5 -21.3 6.5 L-16.8 6.5 Q-14.65 6.5 -13.2 5.1 -11.75 3.7 -11.75 1.55 -11.75 -0.35 -13.1 -1.4 -14.3 -2.4 -16.3 -2.4 L-16.75 -2.35 -17.2 -2.35 Q-18.3 -2.35 -18.3 -2.95 -18.3 -3.85 -17.35 -3.85 L-15.75 -3.85 Q-15.85 -3.25 -15.3 -2.9 -14.8 -2.6 -14.2 -2.6 -12.5 -2.6 -12.1 -4.35 L-11.95 -5.9 Q-11.95 -6.6 -12.45 -7.05 -12.9 -7.5 -13.65 -7.5 L-17.1 -7.5 Q-19.3 -7.5 -20.8 -6.15" fill="url(#gradient0)" fill-rule="evenodd" stroke="none"/>
    <path d="M9.05 -3.95 L11.15 -4.15 Q12.95 -4.15 12.95 -2.45 12.95 -1.1 11.9 -0.75 L11.75 -0.7 11.45 2.0 Q11.45 3.2 12.6 3.2 13.85 3.2 14.0 1.8 L14.25 -0.7 Q13.3 -1.05 13.3 -2.2 13.3 -3.0 13.95 -3.6 14.6 -4.15 15.45 -4.15 L17.75 -4.15 Q18.5 -4.15 19.0 -3.7 19.5 -3.25 19.5 -2.5 19.5 -1.2 18.2 -0.7 L17.9 2.0 Q17.95 3.2 19.05 3.2 20.3 3.2 20.45 1.7 L20.75 -0.7 Q19.8 -1.05 19.8 -2.1 19.8 -3.0 20.45 -3.6 21.05 -4.15 22.0 -4.15 L23.15 -4.15 Q24.9 -4.15 24.9 -2.45 L24.9 -2.2 24.45 1.8 Q24.2 4.0 22.6 5.4 21.0 6.8 18.75 6.8 L17.0 6.45 15.6 5.4 Q13.95 6.8 12.15 6.8 10.15 6.8 8.85 5.6 7.5 4.4 7.5 2.4 L7.55 1.8 7.95 -2.1 Q8.1 -3.55 9.05 -3.95 M5.2 -3.2 Q6.85 -1.8 6.85 0.5 6.85 3.3 4.8 5.1 2.9 6.8 0.05 6.8 -2.3 6.8 -3.8 5.5 -5.4 4.1 -5.4 1.8 -5.4 -1.0 -3.4 -2.75 -1.5 -4.45 1.3 -4.45 3.7 -4.45 5.2 -3.2 M0.95 -1.0 Q0.0 -1.0 -0.65 -0.25 -1.25 0.5 -1.25 1.5 -1.25 2.3 -0.8 2.85 -0.3 3.4 0.45 3.4 1.45 3.4 2.1 2.6 2.7 1.9 2.7 0.85 2.7 0.05 2.2 -0.5 1.75 -1.0 0.95 -1.0 M-20.8 -6.15 Q-19.3 -7.5 -17.1 -7.5 L-13.65 -7.5 Q-12.9 -7.5 -12.45 -7.05 -11.95 -6.6 -11.95 -5.9 L-12.1 -4.35 Q-12.5 -2.6 -14.2 -2.6 -14.8 -2.6 -15.3 -2.9 -15.85 -3.25 -15.75 -3.85 L-17.35 -3.85 Q-18.3 -3.85 -18.3 -2.95 -18.3 -2.35 -17.2 -2.35 L-16.75 -2.35 -16.3 -2.4 Q-14.3 -2.4 -13.1 -1.4 -11.75 -0.35 -11.75 1.55 -11.75 3.7 -13.2 5.1 -14.65 6.5 -16.8 6.5 L-21.3 6.5 Q-22.05 6.5 -22.55 6.05 -23.0 5.65 -23.0 4.9 L-22.9 3.95 -22.8 3.0 Q-22.7 2.25 -22.05 1.8 -21.4 1.3 -20.7 1.3 -20.05 1.3 -19.6 1.65 -19.1 2.0 -19.1 2.6 L-19.15 2.85 -16.8 2.85 Q-15.7 2.85 -15.7 2.1 -15.7 1.25 -16.75 1.25 L-17.25 1.3 -17.75 1.3 Q-19.65 1.3 -20.9 0.35 -22.25 -0.7 -22.25 -2.55 -22.25 -4.75 -20.8 -6.15 M-11.3 -5.5 Q-11.3 -6.4 -10.7 -6.95 -10.1 -7.5 -9.15 -7.5 L-7.2 -7.5 Q-6.45 -7.5 -5.95 -7.05 -5.5 -6.65 -5.55 -5.9 L-5.55 -5.65 -6.65 4.6 Q-6.85 6.5 -8.65 6.5 L-10.75 6.5 -11.95 6.05 -12.4 4.9 Q-12.4 4.0 -11.85 3.45 -11.25 2.9 -10.4 2.85 L-9.65 -3.9 Q-10.4 -3.85 -10.85 -4.3 -11.3 -4.75 -11.3 -5.5" fill="#000000" fill-rule="evenodd" stroke="none"/>
    <path d="M33.15 -11.0 L-33.15 -11.0 Q-36.4 -11.0 -38.65 -9.25 -40.95 -7.5 -40.95 -5.0 L-40.95 5.0 Q-40.95 7.5 -38.65 9.25 -36.4 11.0 -33.15 11.0 L33.15 11.0 Q36.4 11.0 38.7 9.25 40.95 7.5 40.95 5.0 L40.95 -5.0 Q40.95 -7.5 38.7 -9.25 36.4 -11.0 33.15 -11.0 Z" fill="none" stroke="#009a00" stroke-linecap="round" stroke-linejoin="round" stroke-width="2.0"/>
  </g>
  <defs>
    <radialGradient cx="0" cy="0" gradientTransform="matrix(0.0519, 0.0, 0.0, 0.0519, -0.5, 0.5)" gradientUnits="userSpaceOnUse" id="gradient0" r="819.2" spreadMethod="pad">
      <stop offset="0.0" stop-color="#0a9709"/>
      <stop offset="0.5764705882352941" stop-color="#52d862"/>
      <stop offset="1.0" stop-color="#ffffff"/>
    </radialGradient>
  </defs>
</svg>
