<?xml version="1.0" encoding="UTF-8" standalone="no"?>
<svg xmlns:xlink="http://www.w3.org/1999/xlink" height="24.0px" width="83.9px" xmlns="http://www.w3.org/2000/svg">
  <g transform="matrix(1.0, 0.0, 0.0, 1.0, 41.95, 12.0)">
    <path d="M6.55 -1.0 L6.5 -0.65 Q6.5 -0.5 7.0 -0.5 L7.75 -0.55 8.5 -0.6 Q10.0 -0.6 10.95 0.1 12.05 0.9 12.05 2.4 12.05 3.95 11.0 4.95 9.95 6.0 8.4 6.0 L3.75 6.0 Q2.3 6.0 2.2 4.7 L1.75 5.4 Q1.25 6.0 0.25 6.0 L-1.4 6.0 Q-2.75 6.0 -2.85 5.1 -4.15 6.3 -6.15 6.3 -8.15 6.3 -9.45 4.9 -10.75 3.5 -10.75 1.4 -10.75 -1.35 -8.8 -3.15 -6.85 -4.95 -4.1 -4.95 -1.8 -4.95 -0.35 -3.55 1.1 -2.1 1.1 0.15 L0.9 2.3 1.95 2.8 2.25 3.25 2.3 2.5 7.85 2.5 8.2 2.35 8.1 2.0 7.2 1.9 6.2 2.0 Q4.7 2.0 3.75 1.25 2.65 0.45 2.65 -1.0 2.65 -2.65 3.85 -3.7 4.95 -4.65 6.7 -4.65 L10.65 -4.65 Q12.4 -4.65 12.4 -2.95 L12.2 -1.15 6.85 -1.15 6.55 -1.0 M17.7 -4.65 L22.2 -4.65 Q22.9 -4.65 23.4 -4.25 23.85 -3.85 23.85 -3.1 23.85 -2.25 23.25 -1.75 22.65 -1.3 21.75 -1.3 L17.35 -1.3 17.1 1.1 17.1 1.4 17.05 1.75 Q17.05 2.2 17.35 2.45 17.7 2.8 18.1 2.8 18.95 2.8 19.4 1.95 L20.2 0.45 Q20.75 -0.35 21.75 -0.35 22.45 -0.35 22.9 0.1 23.4 0.55 23.4 1.25 23.4 3.35 21.55 4.9 19.8 6.3 17.65 6.3 15.7 6.3 14.4 5.1 13.15 3.85 13.15 1.9 L13.15 1.3 13.95 -6.05 Q14.05 -7.0 14.6 -7.6 15.2 -8.3 16.1 -8.3 16.9 -8.3 17.4 -7.8 L17.85 -6.45 17.7 -4.65 M-20.65 -6.45 Q-19.0 -8.0 -16.35 -8.0 L-12.85 -8.0 Q-11.0 -8.0 -11.05 -6.4 -11.1 -4.55 -11.35 -3.85 -11.85 -2.6 -13.3 -2.6 -14.1 -2.6 -14.55 -3.1 -15.05 -3.6 -14.95 -4.35 L-16.45 -4.35 Q-17.45 -4.35 -17.9 -3.95 -18.35 -3.6 -18.6 -2.6 L-15.8 -2.6 Q-15.0 -2.6 -14.5 -2.15 -13.95 -1.75 -13.95 -0.95 -13.95 -0.1 -14.6 0.5 -15.25 1.05 -16.15 1.05 L-18.95 1.05 -19.1 2.3 Q-17.4 2.45 -17.4 3.9 -17.4 4.8 -18.0 5.4 -18.6 6.0 -19.5 6.0 L-21.55 6.0 Q-22.3 6.0 -22.8 5.55 -23.25 5.1 -23.25 4.35 L-22.55 -2.2 Q-22.3 -4.9 -20.65 -6.45 M-6.2 -0.65 Q-6.85 0.0 -6.85 0.9 -6.85 1.7 -6.35 2.2 -5.85 2.7 -5.05 2.7 -4.15 2.7 -3.45 2.05 -2.8 1.4 -2.8 0.5 -2.8 -0.3 -3.3 -0.8 -3.8 -1.35 -4.6 -1.35 -5.5 -1.35 -6.2 -0.65" fill="#666666" fill-rule="evenodd" stroke="none"/>
    <path d="M33.15 -11.0 L-33.15 -11.0 Q-36.4 -11.0 -38.65 -9.25 -40.95 -7.5 -40.95 -5.0 L-40.95 5.0 Q-40.95 7.5 -38.65 9.25 -36.4 11.0 -33.15 11.0 L33.15 11.0 Q36.4 11.0 38.7 9.25 40.95 7.5 40.95 5.0 L40.95 -5.0 Q40.95 -7.5 38.7 -9.25 36.4 -11.0 33.15 -11.0 Z" fill="none" stroke="#666666" stroke-linecap="round" stroke-linejoin="round" stroke-width="2.0"/>
  </g>
</svg>
