<?xml version="1.0" encoding="UTF-8" standalone="no"?>
<svg xmlns:xlink="http://www.w3.org/1999/xlink" height="24.0px" width="83.9px" xmlns="http://www.w3.org/2000/svg">
  <g transform="matrix(1.0, 0.0, 0.0, 1.0, 41.95, 12.0)">
    <path d="M28.75 -0.35 L29.55 -0.05 29.85 0.7 29.6 3.5 Q29.1 3.65 28.75 4.25 28.4 4.8 28.4 5.4 28.4 6.15 28.9 6.6 29.4 7.0 30.2 7.0 L32.2 7.0 Q33.1 7.0 33.75 6.45 34.35 5.9 34.35 5.0 L34.15 4.1 33.5 3.5 33.75 1.2 Q33.95 -0.35 35.15 -0.35 L35.9 -0.05 36.2 0.7 35.95 3.55 Q34.7 4.15 34.7 5.4 34.7 6.15 35.2 6.6 35.7 7.0 36.45 7.0 L38.6 6.8 Q39.55 6.45 39.7 5.1 L39.95 2.8 40.15 0.55 Q40.15 -1.45 38.9 -2.7 37.7 -3.95 35.7 -3.95 33.45 -3.95 32.2 -2.6 31.2 -3.95 29.1 -3.95 26.8 -3.95 25.25 -2.55 23.7 -1.15 23.45 1.15 L23.05 5.0 23.05 5.4 Q23.05 7.0 24.7 7.0 L26.0 7.0 Q26.85 7.0 27.45 6.45 28.0 5.9 28.0 5.0 28.0 4.1 27.15 3.55 L27.4 1.1 Q27.55 -0.35 28.75 -0.35 M18.0 -3.1 Q17.3 -2.55 17.3 -1.65 17.3 -0.4 18.55 0.0 L18.3 2.2 Q18.05 3.8 16.55 3.8 15.95 3.8 15.55 3.4 15.15 3.0 15.15 2.4 L15.4 0.0 Q17.0 -0.4 17.0 -1.95 17.0 -3.65 15.1 -3.65 L12.8 -3.45 Q11.8 -3.1 11.65 -1.65 L11.2 2.55 11.2 3.15 Q11.2 5.25 12.6 6.35 13.85 7.3 16.0 7.3 21.8 7.3 22.25 2.15 L22.6 -1.55 22.65 -2.05 Q22.65 -3.65 20.8 -3.65 L19.6 -3.65 Q18.7 -3.65 18.0 -3.1 M6.75 -3.65 Q5.85 -3.65 5.25 -3.15 4.7 -2.6 4.7 -1.7 4.7 -0.2 6.35 0.0 L6.0 3.35 Q5.1 3.3 4.55 3.9 3.95 4.45 3.95 5.35 3.95 6.05 4.45 6.55 4.95 7.0 5.65 7.0 L7.75 7.0 Q8.55 7.0 9.1 6.5 9.7 6.0 9.75 5.15 L10.5 -1.75 10.5 -2.0 Q10.55 -2.75 10.05 -3.2 9.55 -3.65 8.8 -3.65 L6.75 -3.65 M2.95 -7.0 L1.1 -7.0 Q0.25 -7.0 -0.4 -6.45 -1.05 -5.9 -1.05 -5.05 L-0.6 -4.0 Q-0.15 -3.5 0.4 -3.5 L0.7 -3.5 0.55 -2.35 Q-0.35 -3.8 -2.35 -3.8 -4.7 -3.8 -6.35 -1.85 -7.85 0.0 -7.85 2.4 -7.85 4.7 -6.3 6.05 -4.8 7.35 -2.45 7.35 0.3 7.35 2.05 5.7 3.8 4.05 4.1 1.3 L4.75 -4.85 4.75 -5.4 Q4.75 -7.0 2.95 -7.0 M8.65 -8.1 Q7.8 -8.1 7.2 -7.5 6.6 -6.9 6.6 -6.1 6.6 -5.2 7.2 -4.6 7.75 -4.0 8.65 -4.0 9.5 -4.0 10.1 -4.55 10.7 -5.2 10.7 -6.05 10.7 -6.9 10.1 -7.5 9.5 -8.1 8.65 -8.1 M33.15 -11.0 Q36.4 -11.0 38.7 -9.25 40.95 -7.5 40.95 -5.0 L40.95 5.0 Q40.95 7.5 38.7 9.25 36.4 11.0 33.15 11.0 L-33.15 11.0 Q-36.4 11.0 -38.65 9.25 -40.95 7.5 -40.95 5.0 L-40.95 -5.0 Q-40.95 -7.5 -38.65 -9.25 -36.4 -11.0 -33.15 -11.0 L33.15 -11.0 M-0.55 3.05 Q-1.2 3.65 -2.1 3.65 -2.85 3.65 -3.35 3.15 -3.85 2.65 -3.85 1.9 -3.85 1.05 -3.2 0.4 -2.55 -0.25 -1.7 -0.25 -0.95 -0.25 -0.45 0.25 0.05 0.75 0.05 1.5 0.05 2.4 -0.55 3.05 M-13.35 -4.0 Q-16.15 -4.0 -18.1 -2.2 -20.1 -0.35 -20.1 2.45 -20.1 4.7 -18.45 6.1 -16.9 7.35 -14.6 7.35 -13.2 7.35 -11.95 6.75 -10.45 6.0 -10.45 4.75 -10.45 4.1 -10.9 3.7 -11.3 3.25 -11.95 3.25 L-13.0 3.45 -14.1 3.7 Q-15.5 3.7 -15.8 2.65 L-10.15 2.65 Q-9.2 2.65 -8.65 2.1 -8.1 1.5 -8.1 0.6 -8.1 -1.45 -9.7 -2.75 -11.25 -4.0 -13.35 -4.0 M-13.7 -0.75 L-12.6 -0.3 Q-12.1 0.1 -12.15 0.7 L-15.6 0.7 Q-15.1 -0.75 -13.7 -0.75 M-32.45 -3.3 Q-32.05 -2.85 -32.05 -2.05 L-32.05 -1.7 -32.6 3.35 Q-33.35 3.5 -33.85 4.05 -34.3 4.55 -34.3 5.35 -34.3 6.1 -33.85 6.55 -33.35 7.0 -32.55 7.0 L-29.5 7.0 Q-28.6 7.0 -27.95 6.45 -27.3 5.85 -27.3 4.95 -27.3 4.3 -27.7 3.85 -28.1 3.4 -28.7 3.4 L-28.15 -1.75 Q-28.05 -2.6 -27.55 -3.2 -27.0 -3.8 -26.15 -3.8 -25.5 -3.8 -25.05 -3.35 -24.6 -2.95 -24.6 -2.3 L-24.65 -1.65 -25.15 3.35 Q-25.9 3.35 -26.4 4.0 -26.95 4.6 -26.95 5.4 -26.95 6.1 -26.45 6.55 -26.0 7.0 -25.3 7.0 L-22.8 6.9 Q-21.55 6.55 -21.4 5.05 L-20.7 -1.4 -20.7 -2.25 Q-20.7 -4.55 -22.1 -5.95 -23.5 -7.35 -25.85 -7.35 L-28.0 -6.9 -29.7 -5.55 Q-30.7 -7.35 -33.15 -7.35 -35.8 -7.35 -37.5 -5.7 -39.2 -4.05 -39.5 -1.4 L-40.2 5.05 -40.2 5.35 Q-40.2 7.0 -38.4 7.0 L-36.0 6.8 Q-34.7 6.4 -34.7 4.95 -34.7 4.35 -35.1 3.85 -35.5 3.35 -36.1 3.35 L-35.6 -1.65 Q-35.4 -3.8 -33.6 -3.8 -32.85 -3.8 -32.45 -3.3" fill="url(#gradient0)" fill-rule="evenodd" stroke="none"/>
    <path d="M8.65 -8.1 Q9.5 -8.1 10.1 -7.5 10.7 -6.9 10.7 -6.05 10.7 -5.2 10.1 -4.55 9.5 -4.0 8.65 -4.0 7.75 -4.0 7.2 -4.6 6.6 -5.2 6.6 -6.1 6.6 -6.9 7.2 -7.5 7.8 -8.1 8.65 -8.1 M2.95 -7.0 Q4.75 -7.0 4.75 -5.4 L4.75 -4.85 4.1 1.3 Q3.8 4.05 2.05 5.7 0.3 7.35 -2.45 7.35 -4.8 7.35 -6.3 6.05 -7.85 4.7 -7.85 2.4 -7.85 0.0 -6.35 -1.85 -4.7 -3.8 -2.35 -3.8 -0.35 -3.8 0.55 -2.35 L0.7 -3.5 0.4 -3.5 Q-0.15 -3.5 -0.6 -4.0 L-1.05 -5.05 Q-1.05 -5.9 -0.4 -6.45 0.25 -7.0 1.1 -7.0 L2.95 -7.0 M6.75 -3.65 L8.8 -3.65 Q9.55 -3.65 10.05 -3.2 10.55 -2.75 10.5 -2.0 L10.5 -1.75 9.75 5.15 Q9.7 6.0 9.1 6.5 8.55 7.0 7.75 7.0 L5.65 7.0 Q4.95 7.0 4.45 6.55 3.95 6.05 3.95 5.35 3.95 4.45 4.55 3.9 5.1 3.3 6.0 3.35 L6.35 0.0 Q4.7 -0.2 4.7 -1.7 4.7 -2.6 5.25 -3.15 5.85 -3.65 6.75 -3.65 M18.0 -3.1 Q18.7 -3.65 19.6 -3.65 L20.8 -3.65 Q22.65 -3.65 22.65 -2.05 L22.6 -1.55 22.25 2.15 Q21.8 7.3 16.0 7.3 13.85 7.3 12.6 6.35 11.2 5.25 11.2 3.15 L11.2 2.55 11.65 -1.65 Q11.8 -3.1 12.8 -3.45 L15.1 -3.65 Q17.0 -3.65 17.0 -1.95 17.0 -0.4 15.4 0.0 L15.15 2.4 Q15.15 3.0 15.55 3.4 15.95 3.8 16.55 3.8 18.05 3.8 18.3 2.2 L18.55 0.0 Q17.3 -0.4 17.3 -1.65 17.3 -2.55 18.0 -3.1 M28.75 -0.35 Q27.55 -0.35 27.4 1.1 L27.15 3.55 Q28.0 4.1 28.0 5.0 28.0 5.9 27.45 6.45 26.85 7.0 26.0 7.0 L24.7 7.0 Q23.05 7.0 23.05 5.4 L23.05 5.0 23.45 1.15 Q23.7 -1.15 25.25 -2.55 26.8 -3.95 29.1 -3.95 31.2 -3.95 32.2 -2.6 33.45 -3.95 35.7 -3.95 37.7 -3.95 38.9 -2.7 40.15 -1.45 40.15 0.55 L39.95 2.8 39.7 5.1 Q39.55 6.45 38.6 6.8 L36.45 7.0 Q35.7 7.0 35.2 6.6 34.7 6.15 34.7 5.4 34.7 4.15 35.95 3.55 L36.2 0.7 35.9 -0.05 35.15 -0.35 Q33.95 -0.35 33.75 1.2 L33.5 3.5 34.15 4.1 34.35 5.0 Q34.35 5.9 33.75 6.45 33.1 7.0 32.2 7.0 L30.2 7.0 Q29.4 7.0 28.9 6.6 28.4 6.15 28.4 5.4 28.4 4.8 28.75 4.25 29.1 3.65 29.6 3.5 L29.85 0.7 29.55 -0.05 28.75 -0.35 M-32.45 -3.3 Q-32.85 -3.8 -33.6 -3.8 -35.4 -3.8 -35.6 -1.65 L-36.1 3.35 Q-35.5 3.35 -35.1 3.85 -34.7 4.35 -34.7 4.95 -34.7 6.4 -36.0 6.8 L-38.4 7.0 Q-40.2 7.0 -40.2 5.35 L-40.2 5.05 -39.5 -1.4 Q-39.2 -4.05 -37.5 -5.7 -35.8 -7.35 -33.15 -7.35 -30.7 -7.35 -29.7 -5.55 L-28.0 -6.9 -25.85 -7.35 Q-23.5 -7.35 -22.1 -5.95 -20.7 -4.55 -20.7 -2.25 L-20.7 -1.4 -21.4 5.05 Q-21.55 6.55 -22.8 6.9 L-25.3 7.0 Q-26.0 7.0 -26.45 6.55 -26.95 6.1 -26.95 5.4 -26.95 4.6 -26.4 4.0 -25.9 3.35 -25.15 3.35 L-24.65 -1.65 -24.6 -2.3 Q-24.6 -2.95 -25.05 -3.35 -25.5 -3.8 -26.15 -3.8 -27.0 -3.8 -27.55 -3.2 -28.05 -2.6 -28.15 -1.75 L-28.7 3.4 Q-28.1 3.4 -27.7 3.85 -27.3 4.3 -27.3 4.95 -27.3 5.85 -27.95 6.45 -28.6 7.0 -29.5 7.0 L-32.55 7.0 Q-33.35 7.0 -33.85 6.55 -34.3 6.1 -34.3 5.35 -34.3 4.55 -33.85 4.05 -33.35 3.5 -32.6 3.35 L-32.05 -1.7 -32.05 -2.05 Q-32.05 -2.85 -32.45 -3.3 M-13.7 -0.75 Q-15.1 -0.75 -15.6 0.7 L-12.15 0.7 Q-12.1 0.1 -12.6 -0.3 L-13.7 -0.75 M-13.35 -4.0 Q-11.25 -4.0 -9.7 -2.75 -8.1 -1.45 -8.1 0.6 -8.1 1.5 -8.65 2.1 -9.2 2.65 -10.15 2.65 L-15.8 2.65 Q-15.5 3.7 -14.1 3.7 L-13.0 3.45 -11.95 3.25 Q-11.3 3.25 -10.9 3.7 -10.45 4.1 -10.45 4.75 -10.45 6.0 -11.95 6.75 -13.2 7.35 -14.6 7.35 -16.9 7.35 -18.45 6.1 -20.1 4.7 -20.1 2.45 -20.1 -0.35 -18.1 -2.2 -16.15 -4.0 -13.35 -4.0 M-0.55 3.05 Q0.05 2.4 0.05 1.5 0.05 0.75 -0.45 0.25 -0.95 -0.25 -1.7 -0.25 -2.55 -0.25 -3.2 0.4 -3.85 1.05 -3.85 1.9 -3.85 2.65 -3.35 3.15 -2.85 3.65 -2.1 3.65 -1.2 3.65 -0.55 3.05" fill="#000000" fill-rule="evenodd" stroke="none"/>
    <path d="M33.15 -11.0 L-33.15 -11.0 Q-36.4 -11.0 -38.65 -9.25 -40.95 -7.5 -40.95 -5.0 L-40.95 5.0 Q-40.95 7.5 -38.65 9.25 -36.4 11.0 -33.15 11.0 L33.15 11.0 Q36.4 11.0 38.7 9.25 40.95 7.5 40.95 5.0 L40.95 -5.0 Q40.95 -7.5 38.7 -9.25 36.4 -11.0 33.15 -11.0 Z" fill="none" stroke="#009a00" stroke-linecap="round" stroke-linejoin="round" stroke-width="2.0"/>
  </g>
  <defs>
    <radialGradient cx="0" cy="0" gradientTransform="matrix(0.0521, 0.0, 0.0, 0.0521, 0.5, 0.5)" gradientUnits="userSpaceOnUse" id="gradient0" r="819.2" spreadMethod="pad">
      <stop offset="0.0" stop-color="#0a9709"/>
      <stop offset="0.5764705882352941" stop-color="#52d862"/>
      <stop offset="1.0" stop-color="#ffffff"/>
    </radialGradient>
  </defs>
</svg>
