<?xml version="1.0" encoding="UTF-8" standalone="no"?>
<svg xmlns:xlink="http://www.w3.org/1999/xlink" height="9.25px" width="10.15px" xmlns="http://www.w3.org/2000/svg">
  <g transform="matrix(1.0, 0.0, 0.0, 1.0, -11.9, -10.75)">
    <path d="M15.35 18.8 L15.2 19.2 15.1 19.2 14.85 20.0 11.9 20.0 15.4 10.75 18.5 10.75 22.05 20.0 19.0 20.0 18.8 19.2 18.7 19.2 18.55 18.8 20.5 18.8 18.05 12.35 15.9 12.35 13.45 18.8 15.35 18.8 M18.35 18.5 L15.6 18.5 15.8 17.75 18.1 17.75 18.35 18.5 M16.3 16.3 L17.65 16.3 17.65 16.35 16.25 16.35 16.3 16.3" fill="url(#gradient0)" fill-rule="evenodd" stroke="none"/>
    <path d="M18.55 18.8 L18.4 18.8 18.35 18.5 18.1 17.75 15.8 17.75 15.6 18.5 15.5 18.8 15.35 18.8 13.45 18.8 15.9 12.35 18.05 12.35 20.5 18.8 18.55 18.8 M17.65 16.3 L16.95 14.05 16.3 16.3 16.25 16.35 17.65 16.35 17.65 16.3" fill="#02f702" fill-rule="evenodd" stroke="none"/>
  </g>
  <defs>
    <radialGradient cx="0" cy="0" gradientTransform="matrix(0.0084, 0.0, 0.0, 0.0084, 17.0, 15.35)" gradientUnits="userSpaceOnUse" id="gradient0" r="819.2" spreadMethod="pad">
      <stop offset="0.0" stop-color="#4bd91c"/>
      <stop offset="1.0" stop-color="#96fc7c" stop-opacity="0.5019608"/>
    </radialGradient>
  </defs>
</svg>
