<?xml version="1.0" encoding="UTF-8" standalone="no"?>
<svg xmlns:xlink="http://www.w3.org/1999/xlink" height="22.15px" width="37.05px" xmlns="http://www.w3.org/2000/svg">
  <g transform="matrix(1.0, 0.0, 0.0, 1.0, 18.5, 11.05)">
    <path d="M16.95 -7.45 Q16.95 -0.45 11.95 4.5 7.0 9.5 0.0 9.5 -6.6 9.5 -11.35 5.1 L-12.0 4.5 Q-16.9 -0.45 -16.9 -7.45 -15.2 -10.9 -13.5 -7.45 -13.55 -1.85 -9.6 2.1 L-9.1 2.6 Q-5.25 6.1 0.0 6.1 5.6 6.1 9.55 2.1 13.55 -1.85 13.55 -7.45 15.25 -10.6 16.95 -7.45" fill="#000000" fill-rule="evenodd" stroke="none"/>
    <path d="M18.5 -7.45 L18.55 -7.45 Q18.55 0.25 13.1 5.65 7.7 11.1 0.0 11.1 -7.2 11.1 -12.45 6.3 L-13.1 5.65 Q-18.5 0.25 -18.5 -7.45 -15.35 -14.2 -12.25 -7.45 L-12.1 -7.45 Q-12.1 -2.45 -8.55 1.1 L-8.15 1.55 Q-4.7 4.65 0.0 4.65 5.0 4.65 8.55 1.1 12.1 -2.45 12.1 -7.45 L12.15 -7.45 Q15.35 -14.65 18.5 -7.45 M16.95 -7.45 Q15.25 -10.6 13.55 -7.45 13.55 -1.85 9.55 2.1 5.6 6.1 0.0 6.1 -5.25 6.1 -9.1 2.6 L-9.6 2.1 Q-13.55 -1.85 -13.5 -7.45 -15.2 -10.9 -16.9 -7.45 -16.9 -0.45 -12.0 4.5 L-11.35 5.1 Q-6.6 9.5 0.0 9.5 7.0 9.5 11.95 4.5 16.95 -0.45 16.95 -7.45" fill="url(#gradient0)" fill-rule="evenodd" stroke="none"/>
    <path d="M16.95 -7.45 Q16.95 -0.45 11.95 4.5 7.0 9.5 0.0 9.5 -6.6 9.5 -11.35 5.1 L-12.0 4.5 Q-16.9 -0.45 -16.9 -7.45 -15.2 -10.9 -13.5 -7.45 -13.55 -1.85 -9.6 2.1 L-9.1 2.6 Q-5.25 6.1 0.0 6.1 5.6 6.1 9.55 2.1 13.55 -1.85 13.55 -7.45 15.25 -10.6 16.95 -7.45" fill="url(#gradient1)" fill-rule="evenodd" stroke="none"/>
  </g>
  <defs>
    <linearGradient gradientTransform="matrix(1.0E-4, 0.0097, -0.0135, 2.0E-4, 0.05, 0.95)" gradientUnits="userSpaceOnUse" id="gradient0" spreadMethod="pad" x1="-819.2" x2="819.2">
      <stop offset="0.0" stop-color="#575757"/>
      <stop offset="1.0" stop-color="#979797"/>
    </linearGradient>
    <linearGradient gradientTransform="matrix(0.0207, 0.0, 0.0, 0.0114, 0.0, 0.15)" gradientUnits="userSpaceOnUse" id="gradient1" spreadMethod="pad" x1="-819.2" x2="819.2">
      <stop offset="0.0" stop-color="#177b0f"/>
      <stop offset="1.0" stop-color="#43e74a"/>
    </linearGradient>
  </defs>
</svg>
