<?xml version="1.0" encoding="UTF-8" standalone="no"?>
<svg xmlns:xlink="http://www.w3.org/1999/xlink" height="34.55px" width="33.05px" xmlns="http://www.w3.org/2000/svg">
  <g transform="matrix(1.0, 0.0, 0.0, 1.0, 17.25, 19.25)">
    <path d="M10.15 -17.35 L10.2 -17.35 9.2 -17.6 Q8.4 -17.45 7.7 -16.8 L7.65 -16.8 6.55 -15.3 6.6 -15.3 5.75 -13.75 7.5 -14.25 7.45 -14.2 9.15 -15.1 Q9.85 -15.7 10.2 -16.45 10.4 -17.05 10.15 -17.35 M10.55 -17.7 Q11.0 -17.25 10.65 -16.25 10.25 -15.4 9.5 -14.7 L9.45 -14.7 Q9.15 -14.45 7.65 -13.75 L5.3 -13.1 5.15 -13.1 5.0 -13.2 4.95 -13.3 5.0 -13.45 6.15 -15.55 7.35 -17.2 Q8.2 -17.95 9.1 -18.1 10.05 -18.3 10.55 -17.7 M12.1 -13.05 L10.9 -12.85 11.85 -12.1 13.15 -11.4 13.15 -11.45 14.35 -11.4 14.35 -11.35 Q14.75 -11.5 14.85 -11.8 L14.65 -12.4 Q14.2 -12.8 13.55 -13.0 L12.15 -13.05 12.1 -13.05 M3.35 -19.25 L4.15 -18.7 4.2 -18.65 4.5 -17.45 4.3 -16.2 4.3 -16.15 3.75 -14.75 3.6 -14.6 3.45 -14.6 3.3 -14.75 2.7 -16.1 2.25 -17.3 2.25 -17.35 Q2.2 -18.1 2.5 -18.6 2.8 -19.25 3.35 -19.25 M10.3 -13.3 L12.1 -13.55 13.7 -13.45 13.7 -13.5 Q14.5 -13.3 15.0 -12.75 15.5 -12.2 15.35 -11.7 15.25 -11.2 14.5 -10.9 L14.45 -10.9 13.0 -10.95 Q12.65 -11.05 11.6 -11.65 L11.55 -11.7 10.15 -12.85 10.05 -13.0 10.1 -13.2 10.3 -13.3 M4.0 -17.4 L4.0 -17.45 3.75 -18.4 3.35 -18.75 2.95 -18.4 2.95 -18.35 Q2.7 -18.0 2.75 -17.35 L3.15 -16.3 3.5 -15.45 3.85 -16.3 3.8 -16.3 4.0 -17.4 M5.95 -6.9 L6.0 -6.75 6.1 -5.75 6.1 -5.6 6.1 -5.5 6.25 -4.3 Q7.0 -5.7 7.0 -7.35 7.0 -10.0 5.2 -11.8 3.35 -13.65 0.75 -13.65 -1.9 -13.65 -3.7 -11.8 -4.95 -10.6 -5.35 -9.0 L-5.55 -7.35 -5.35 -5.75 -4.75 -4.25 -4.75 -7.5 -4.7 -7.6 -4.6 -7.7 -4.45 -7.75 5.8 -7.0 5.95 -6.9 M5.55 -12.15 Q7.5 -10.2 7.5 -7.35 7.5 -5.1 6.2 -3.35 L6.05 -3.25 6.0 -3.25 6.0 -3.2 5.95 -3.0 5.55 -2.6 5.55 -2.55 4.7 -1.85 5.8 -1.05 6.3 -0.45 9.5 -2.75 9.65 -2.8 9.7 -2.85 9.95 -3.05 10.45 -3.65 Q11.3 -4.5 12.55 -4.5 13.75 -4.5 14.65 -3.65 15.5 -2.85 15.5 -1.65 L15.35 -0.75 15.4 -0.6 15.4 -0.45 15.4 -0.4 15.4 -0.3 15.8 11.3 15.75 11.45 15.75 11.6 Q15.6 12.8 14.7 13.7 L14.65 13.7 13.2 14.45 13.15 14.45 12.15 14.55 12.1 14.55 Q10.65 14.45 9.75 13.45 L9.7 13.45 Q8.75 12.3 8.85 10.9 L8.85 10.85 10.15 2.25 8.65 3.35 Q7.9 3.85 7.05 3.75 L7.0 3.75 6.9 3.75 6.0 11.85 6.0 11.9 Q6.0 13.25 5.0 14.3 3.95 15.3 2.55 15.3 L0.3 15.3 Q-1.15 15.3 -2.15 14.3 -3.15 13.25 -3.15 11.9 L-3.15 11.85 -3.85 5.6 -7.25 7.5 -9.3 7.75 -9.35 7.75 -9.55 7.65 -9.65 7.65 Q-10.55 7.7 -11.35 7.15 L-11.35 7.2 Q-12.35 6.55 -12.65 5.35 L-12.6 5.25 -12.7 5.15 -17.05 -8.15 -17.05 -8.3 -17.15 -8.45 Q-17.5 -10.2 -16.6 -11.65 L-15.1 -13.05 -13.85 -13.55 -13.8 -13.55 Q-12.1 -13.9 -10.6 -13.0 -9.15 -12.05 -8.7 -10.3 L-8.7 -10.1 -8.7 -10.0 -7.25 1.15 -5.0 -0.05 -3.5 -0.35 -2.95 -1.05 -3.0 -1.05 -2.6 -1.45 -3.55 -2.1 -3.65 -2.25 -3.65 -2.3 -3.8 -2.3 -3.9 -2.3 -4.45 -2.25 -4.65 -2.3 -4.75 -2.45 -4.7 -2.6 -4.75 -2.75 -4.75 -3.2 -4.7 -3.3 Q-5.55 -4.35 -5.85 -5.65 L-6.05 -7.35 -5.85 -9.1 Q-5.45 -10.8 -4.05 -12.15 -2.1 -14.15 0.75 -14.15 3.55 -14.15 5.55 -12.15 M4.25 -1.5 Q2.65 -0.6 0.75 -0.6 -0.8 -0.6 -2.05 -1.15 L-2.6 -0.7 -2.95 -0.3 -2.9 -0.3 Q-1.85 -0.05 -1.3 1.05 L-1.3 1.25 -1.4 1.4 -1.6 1.4 -1.75 1.3 Q-2.25 0.45 -3.05 0.2 L-3.3 0.15 -3.45 0.15 Q-4.15 0.0 -4.75 0.4 L-7.15 1.7 -6.85 4.1 -6.9 4.25 -7.05 4.35 -7.25 4.3 -7.35 4.15 -7.65 1.7 -7.7 1.5 -9.2 -9.95 -9.15 -10.1 -9.2 -10.2 Q-9.55 -11.75 -10.85 -12.6 L-10.85 -12.55 Q-12.2 -13.4 -13.7 -13.05 L-13.75 -13.05 -14.85 -12.6 Q-15.7 -12.2 -16.2 -11.4 L-16.15 -11.4 Q-17.0 -10.1 -16.65 -8.55 L-16.65 -8.45 -16.55 -8.3 -12.2 5.0 -12.2 5.15 -12.15 5.25 Q-11.95 6.25 -11.1 6.75 -10.4 7.2 -9.65 7.15 L-9.6 7.15 -9.15 7.25 -7.5 7.05 -2.6 4.35 -2.4 4.3 -2.25 4.45 -2.25 4.65 -2.35 4.8 -3.35 5.35 -3.35 5.45 -2.65 11.85 -2.65 11.9 Q-2.65 13.05 -1.8 13.95 -0.95 14.8 0.3 14.8 L2.55 14.8 Q3.75 14.8 4.65 13.95 5.5 13.05 5.5 11.9 L5.5 11.85 6.4 3.45 6.4 3.35 6.55 1.95 6.65 1.75 6.85 1.7 7.0 1.8 7.05 2.0 6.95 3.2 7.1 3.25 8.35 2.95 10.35 1.55 10.35 1.5 10.45 1.45 12.05 0.3 Q12.6 -0.15 12.75 -0.8 L12.75 -0.85 Q12.85 -1.55 12.4 -2.1 L12.35 -2.25 12.45 -2.45 12.65 -2.5 12.8 -2.4 Q13.35 -1.65 13.25 -0.75 13.1 0.15 12.35 0.7 L10.75 1.85 9.35 10.95 Q9.25 12.15 10.1 13.1 10.85 13.95 12.1 14.05 L12.15 14.05 13.05 13.95 14.35 13.35 14.35 13.3 Q15.1 12.55 15.25 11.55 L15.35 11.4 15.3 11.3 14.9 -0.3 14.95 -0.4 14.95 -0.45 14.85 -0.8 14.9 -0.9 15.0 -1.65 Q15.0 -2.65 14.3 -3.3 13.55 -4.0 12.55 -4.0 11.5 -4.0 10.8 -3.3 L10.4 -2.75 10.25 -2.65 10.15 -2.65 10.05 -2.5 9.9 -2.45 9.8 -2.35 6.4 0.1 6.2 0.15 6.05 0.05 6.0 -0.05 5.9 -0.15 5.45 -0.7 Q4.9 -1.3 4.25 -1.5 M4.1 -2.0 L4.15 -2.05 5.15 -2.9 5.2 -2.9 5.4 -3.15 -3.05 -2.35 -2.0 -1.65 Q-0.75 -1.1 0.75 -1.1 2.6 -1.1 4.1 -2.0 M5.6 -5.7 L5.55 -6.5 -4.25 -7.2 -4.25 -4.95 5.6 -5.7 M5.75 -3.7 L5.85 -3.7 5.75 -3.85 5.65 -5.2 -4.25 -4.45 -4.25 -3.85 -4.3 -3.65 -4.35 -3.65 -4.3 -3.6 -4.25 -3.4 -4.25 -3.3 -4.25 -3.2 -4.25 -2.75 -4.0 -2.8 -3.8 -2.75 -3.7 -2.8 5.75 -3.7" fill="#000000" fill-rule="evenodd" stroke="none"/>
    <path d="M10.15 -17.35 Q10.4 -17.05 10.2 -16.45 9.85 -15.7 9.15 -15.1 L7.45 -14.2 7.5 -14.25 5.75 -13.75 6.6 -15.3 6.55 -15.3 7.65 -16.8 7.7 -16.8 Q8.4 -17.45 9.2 -17.6 L10.2 -17.35 10.15 -17.35 M12.1 -13.05 L12.15 -13.05 13.55 -13.0 Q14.2 -12.8 14.65 -12.4 L14.85 -11.8 Q14.75 -11.5 14.35 -11.35 L14.35 -11.4 13.15 -11.45 13.15 -11.4 11.85 -12.1 10.9 -12.85 12.1 -13.05 M4.0 -17.4 L3.8 -16.3 3.85 -16.3 3.5 -15.45 3.15 -16.3 2.75 -17.35 Q2.7 -18.0 2.95 -18.35 L2.95 -18.4 3.35 -18.75 3.75 -18.4 4.0 -17.45 4.0 -17.4" fill="#96e4fe" fill-rule="evenodd" stroke="none"/>
    <path d="M5.95 -6.9 L5.8 -7.0 -4.45 -7.75 -4.6 -7.7 -4.7 -7.6 -4.75 -7.5 -4.75 -4.25 -5.35 -5.75 -5.55 -7.35 -5.35 -9.0 Q-4.95 -10.6 -3.7 -11.8 -1.9 -13.65 0.75 -13.65 3.35 -13.65 5.2 -11.8 7.0 -10.0 7.0 -7.35 7.0 -5.7 6.25 -4.3 L6.1 -5.5 6.1 -5.6 6.1 -5.75 6.0 -6.75 5.95 -6.9 M4.1 -2.0 Q2.6 -1.1 0.75 -1.1 -0.75 -1.1 -2.0 -1.65 L-3.05 -2.35 5.4 -3.15 5.2 -2.9 5.15 -2.9 4.15 -2.05 4.1 -2.0" fill="url(#gradient0)" fill-rule="evenodd" stroke="none"/>
    <path d="M4.25 -1.5 Q4.9 -1.3 5.45 -0.7 L5.9 -0.15 6.0 -0.05 6.05 0.05 6.2 0.15 6.4 0.1 9.8 -2.35 9.9 -2.45 10.05 -2.5 10.15 -2.65 10.25 -2.65 10.4 -2.75 10.8 -3.3 Q11.5 -4.0 12.55 -4.0 13.55 -4.0 14.3 -3.3 15.0 -2.65 15.0 -1.65 L14.9 -0.9 14.85 -0.8 14.95 -0.45 14.95 -0.4 14.9 -0.3 15.3 11.3 15.35 11.4 15.25 11.55 Q15.1 12.55 14.35 13.3 L14.35 13.35 13.05 13.95 12.15 14.05 12.1 14.05 Q10.85 13.95 10.1 13.1 9.25 12.15 9.35 10.95 L10.75 1.85 12.35 0.7 Q13.1 0.15 13.25 -0.75 13.35 -1.65 12.8 -2.4 L12.65 -2.5 12.45 -2.45 12.35 -2.25 12.4 -2.1 Q12.85 -1.55 12.75 -0.85 L12.75 -0.8 Q12.6 -0.15 12.05 0.3 L10.45 1.45 10.35 1.5 10.35 1.55 8.35 2.95 7.1 3.25 6.95 3.2 7.05 2.0 7.0 1.8 6.85 1.7 6.65 1.75 6.55 1.95 6.4 3.35 6.4 3.45 5.5 11.85 5.5 11.9 Q5.5 13.05 4.65 13.95 3.75 14.8 2.55 14.8 L0.3 14.8 Q-0.95 14.8 -1.8 13.95 -2.65 13.05 -2.65 11.9 L-2.65 11.85 -3.35 5.45 -3.35 5.35 -2.35 4.8 -2.25 4.65 -2.25 4.45 -2.4 4.3 -2.6 4.35 -7.5 7.05 -9.15 7.25 -9.6 7.15 -9.65 7.15 Q-10.4 7.2 -11.1 6.75 -11.95 6.25 -12.15 5.25 L-12.2 5.15 -12.2 5.0 -16.55 -8.3 -16.65 -8.45 -16.65 -8.55 Q-17.0 -10.1 -16.15 -11.4 L-16.2 -11.4 Q-15.7 -12.2 -14.85 -12.6 L-13.75 -13.05 -13.7 -13.05 Q-12.2 -13.4 -10.85 -12.55 L-10.85 -12.6 Q-9.55 -11.75 -9.2 -10.2 L-9.15 -10.1 -9.2 -9.95 -7.7 1.5 -7.65 1.7 -7.35 4.15 -7.25 4.3 -7.05 4.35 -6.9 4.25 -6.85 4.1 -7.15 1.7 -4.75 0.4 Q-4.15 0.0 -3.45 0.15 L-3.3 0.15 -3.05 0.2 Q-2.25 0.45 -1.75 1.3 L-1.6 1.4 -1.4 1.4 -1.3 1.25 -1.3 1.05 Q-1.85 -0.05 -2.9 -0.3 L-2.95 -0.3 -2.6 -0.7 -2.05 -1.15 Q-0.8 -0.6 0.75 -0.6 2.65 -0.6 4.25 -1.5" fill="url(#gradient1)" fill-rule="evenodd" stroke="none"/>
    <path d="M5.6 -5.7 L-4.25 -4.95 -4.25 -7.2 5.55 -6.5 5.6 -5.7" fill="url(#gradient2)" fill-rule="evenodd" stroke="none"/>
    <path d="M5.75 -3.7 L-3.7 -2.8 -3.8 -2.75 -4.0 -2.8 -4.25 -2.75 -4.25 -3.2 -4.25 -3.3 -4.25 -3.4 -4.3 -3.6 -4.35 -3.65 -4.3 -3.65 -4.25 -3.85 -4.25 -4.45 5.65 -5.2 5.75 -3.85 5.85 -3.7 5.75 -3.7" fill="url(#gradient3)" fill-rule="evenodd" stroke="none"/>
  </g>
  <defs>
    <linearGradient gradientTransform="matrix(0.008, 0.0, 0.0, 0.008, 0.7, -7.4)" gradientUnits="userSpaceOnUse" id="gradient0" spreadMethod="pad" x1="-819.2" x2="819.2">
      <stop offset="0.0" stop-color="#ffcc99"/>
      <stop offset="0.6901960784313725" stop-color="#feac70"/>
      <stop offset="1.0" stop-color="#5e3a02"/>
    </linearGradient>
    <radialGradient cx="0" cy="0" gradientTransform="matrix(0.0306, 0.0, 0.0, 0.0306, 1.5, 5.25)" gradientUnits="userSpaceOnUse" id="gradient1" r="819.2" spreadMethod="pad">
      <stop offset="0.3843137254901961" stop-color="#0066ff"/>
      <stop offset="1.0" stop-color="#000000"/>
    </radialGradient>
    <linearGradient gradientTransform="matrix(0.0063, 0.0, 0.0, 0.0017, 0.65, -6.1)" gradientUnits="userSpaceOnUse" id="gradient2" spreadMethod="pad" x1="-819.2" x2="819.2">
      <stop offset="0.0" stop-color="#ffffff"/>
      <stop offset="0.6666666666666666" stop-color="#ffffff"/>
      <stop offset="1.0" stop-color="#000000"/>
    </linearGradient>
    <linearGradient gradientTransform="matrix(0.0064, 0.0, 0.0, 0.0018, 0.75, -4.0)" gradientUnits="userSpaceOnUse" id="gradient3" spreadMethod="pad" x1="-819.2" x2="819.2">
      <stop offset="0.0" stop-color="#ffffff"/>
      <stop offset="0.6666666666666666" stop-color="#ffffff"/>
      <stop offset="1.0" stop-color="#000000"/>
    </linearGradient>
  </defs>
</svg>
