<?xml version="1.0" encoding="UTF-8" standalone="no"?>
<svg xmlns:xlink="http://www.w3.org/1999/xlink" height="34.55px" width="33.05px" xmlns="http://www.w3.org/2000/svg">
  <g transform="matrix(1.0, 0.0, 0.0, 1.0, 17.25, 19.25)">
    <path d="M4.2 -1.8 L5.6 -0.9 6.25 -0.1 9.85 -2.7 10.15 -2.9 10.6 -3.5 Q11.4 -4.25 12.55 -4.25 13.65 -4.25 14.45 -3.5 15.25 -2.75 15.25 -1.65 L15.1 -0.8 15.15 -0.3 15.55 11.3 Q15.45 12.6 14.5 13.5 L13.1 14.2 12.15 14.3 12.1 14.3 Q10.75 14.2 9.9 13.25 9.0 12.2 9.1 10.9 L10.5 1.7 8.5 3.15 Q7.85 3.6 7.05 3.5 L6.65 3.4 5.75 11.85 Q5.75 13.15 4.8 14.1 3.85 15.05 2.55 15.05 L0.3 15.05 Q-1.05 15.05 -2.0 14.1 -2.9 13.15 -2.9 11.85 L-3.6 5.2 -7.4 7.25 -9.25 7.5 -9.6 7.4 Q-10.45 7.45 -11.25 6.95 -12.15 6.4 -12.4 5.3 L-16.9 -8.5 Q-17.25 -10.15 -16.4 -11.55 L-15.0 -12.85 -13.8 -13.3 -13.75 -13.3 Q-12.15 -13.65 -10.75 -12.8 -9.35 -11.9 -8.95 -10.25 L-7.45 1.55 -4.9 0.15 -3.4 -0.1 -2.8 -0.9 -2.1 -1.45 Q-0.8 -0.85 0.75 -0.85 2.65 -0.85 4.2 -1.8 M-7.45 1.55 L-7.1 4.1 -7.45 1.55 M-2.5 4.55 L-3.6 5.2 -2.5 4.55 M-3.4 -0.1 L-3.0 -0.05 Q-2.05 0.2 -1.55 1.15 -2.05 0.2 -3.0 -0.05 L-3.4 -0.1 M6.65 3.4 L6.8 1.95 6.65 3.4 M12.6 -2.25 Q13.1 -1.6 13.0 -0.8 12.85 0.0 12.2 0.5 L10.5 1.7 12.2 0.5 Q12.85 0.0 13.0 -0.8 13.1 -1.6 12.6 -2.25" fill="#626262" fill-rule="evenodd" stroke="none"/>
    <path d="M-4.5 -3.45 Q-5.3 -4.45 -5.6 -5.7 L-5.8 -7.35 -5.6 -9.05 Q-5.2 -10.7 -3.9 -12.0 -2.0 -13.9 0.75 -13.9 3.45 -13.9 5.35 -12.0 7.25 -10.1 7.25 -7.35 7.25 -5.2 6.0 -3.5 L5.35 -2.75 4.2 -1.8 Q2.65 -0.85 0.75 -0.85 -0.8 -0.85 -2.1 -1.45 L-3.7 -2.55 6.0 -3.5 5.85 -5.5 5.75 -6.75 -4.5 -7.5 -4.5 -4.7 -4.5 -3.45" fill="#cccccc" fill-rule="evenodd" stroke="none"/>
    <path d="M-3.7 -2.55 L-4.5 -2.5 -4.5 -3.45 -4.5 -4.7 -4.5 -7.5 5.75 -6.75 5.85 -5.5 6.0 -3.5 -3.7 -2.55 M5.85 -5.5 L-4.5 -4.7 5.85 -5.5" fill="#ffffff" fill-rule="evenodd" stroke="none"/>
    <path d="M12.1 -13.3 L13.6 -13.25 Q14.35 -13.05 14.8 -12.6 15.2 -12.15 15.1 -11.75 15.0 -11.35 14.4 -11.15 L13.05 -11.2 11.7 -11.9 10.3 -13.05 12.1 -13.3 M10.4 -16.35 Q10.05 -15.55 9.3 -14.9 L7.55 -14.0 5.2 -13.35 6.35 -15.45 7.5 -17.0 Q8.3 -17.7 9.15 -17.85 9.95 -18.0 10.35 -17.55 10.7 -17.15 10.4 -16.35 M3.95 -18.55 L4.25 -17.45 4.05 -16.25 3.5 -14.85 2.9 -16.2 2.5 -17.35 Q2.45 -18.05 2.7 -18.5 2.95 -19.0 3.35 -19.0 L3.95 -18.55" fill="#eaeaea" fill-rule="evenodd" stroke="none"/>
    <path d="M12.1 -13.3 L13.6 -13.25 Q14.35 -13.05 14.8 -12.6 15.2 -12.15 15.1 -11.75 15.0 -11.35 14.4 -11.15 L13.05 -11.2 11.7 -11.9 10.3 -13.05 12.1 -13.3 M10.4 -16.35 Q10.05 -15.55 9.3 -14.9 L7.55 -14.0 5.2 -13.35 6.35 -15.45 7.5 -17.0 Q8.3 -17.7 9.15 -17.85 9.95 -18.0 10.35 -17.55 10.7 -17.15 10.4 -16.35 M3.95 -18.55 L4.25 -17.45 4.05 -16.25 3.5 -14.85 2.9 -16.2 2.5 -17.35 Q2.45 -18.05 2.7 -18.5 2.95 -19.0 3.35 -19.0 L3.95 -18.55 M-4.5 -3.45 Q-5.3 -4.45 -5.6 -5.7 L-5.8 -7.35 -5.6 -9.05 Q-5.2 -10.7 -3.9 -12.0 -2.0 -13.9 0.75 -13.9 3.45 -13.9 5.35 -12.0 7.25 -10.1 7.25 -7.35 7.25 -5.2 6.0 -3.5 L5.35 -2.75 4.2 -1.8 5.6 -0.9 6.25 -0.1 9.85 -2.7 10.15 -2.9 10.6 -3.5 Q11.4 -4.25 12.55 -4.25 13.65 -4.25 14.45 -3.5 15.25 -2.75 15.25 -1.65 L15.1 -0.8 15.15 -0.3 15.55 11.3 Q15.45 12.6 14.5 13.5 L13.1 14.2 12.15 14.3 12.1 14.3 Q10.75 14.2 9.9 13.25 9.0 12.2 9.1 10.9 L10.5 1.7 8.5 3.15 Q7.85 3.6 7.05 3.5 L6.65 3.4 5.75 11.85 Q5.75 13.15 4.8 14.1 3.85 15.05 2.55 15.05 L0.3 15.05 Q-1.05 15.05 -2.0 14.1 -2.9 13.15 -2.9 11.85 L-3.6 5.2 -7.4 7.25 -9.25 7.5 -9.3 7.5 -9.6 7.4 Q-10.45 7.45 -11.25 6.95 -12.15 6.4 -12.4 5.3 L-16.9 -8.5 Q-17.25 -10.15 -16.4 -11.55 L-15.0 -12.85 -13.8 -13.3 -13.75 -13.3 Q-12.15 -13.65 -10.75 -12.8 -9.35 -11.9 -8.95 -10.25 L-7.45 1.55 -4.9 0.15 -3.4 -0.1 -2.8 -0.9 -2.1 -1.45 -3.7 -2.55 -4.5 -2.5 -4.5 -3.45 -4.5 -4.7 -4.5 -7.5 5.75 -6.75 5.85 -5.5 6.0 -3.5 -3.7 -2.55 M4.2 -1.8 Q2.65 -0.85 0.75 -0.85 -0.8 -0.85 -2.1 -1.45 M10.5 1.7 L12.2 0.5 Q12.85 0.0 13.0 -0.8 13.1 -1.6 12.6 -2.25 M6.8 1.95 L6.65 3.4 M-1.55 1.15 Q-2.05 0.2 -3.0 -0.05 L-3.4 -0.1 M-3.6 5.2 L-2.5 4.55 M-7.1 4.1 L-7.45 1.55 M-9.6 7.4 L-9.25 7.5 M-4.5 -4.7 L5.85 -5.5" fill="none" stroke="#999999" stroke-linecap="round" stroke-linejoin="round" stroke-width="0.5"/>
  </g>
</svg>
