<?xml version="1.0" encoding="UTF-8" standalone="no"?>
<svg xmlns:xlink="http://www.w3.org/1999/xlink" height="30.1px" width="30.0px" xmlns="http://www.w3.org/2000/svg">
  <g transform="matrix(1.0, 0.0, 0.0, 1.0, 14.45, 15.3)">
    <path d="M1.75 14.45 L1.75 14.55 1.7 14.65 1.55 14.75 0.2 14.8 -3.05 14.45 -3.15 14.4 -3.3 14.4 -3.35 14.4 -6.35 13.25 Q-8.4 12.15 -10.1 10.45 -14.05 6.45 -14.45 1.05 L-14.45 1.0 -14.4 0.85 -14.35 0.85 -14.2 0.75 -10.75 0.75 -10.8 -0.35 -10.6 -2.5 -13.8 -2.5 -13.9 -2.5 -14.1 -2.5 -14.25 -2.6 -14.3 -2.8 Q-13.6 -7.4 -10.1 -10.85 L-6.7 -13.4 -6.65 -13.45 -6.5 -13.55 Q-4.95 -14.5 -3.1 -14.9 L0.2 -15.3 1.95 -15.2 3.1 -15.05 3.45 -15.0 3.65 -14.95 4.55 -14.75 4.6 -14.75 Q8.3 -13.8 11.2 -10.85 14.65 -7.4 15.4 -2.8 L15.4 -2.75 15.35 -2.6 15.35 -2.55 15.2 -2.5 11.0 -2.5 11.2 -0.35 11.15 0.8 11.15 0.9 11.15 1.0 11.1 1.2 10.9 1.25 -4.6 1.25 -4.4 3.4 Q-4.0 7.05 -2.6 9.9 L-2.6 10.05 Q-2.5 10.05 -2.45 10.15 -1.1 13.0 0.75 13.95 L1.1 14.1 1.2 14.25 1.2 14.3 1.5 14.25 1.65 14.3 1.75 14.45 M11.35 1.0 L11.45 0.85 11.65 0.75 11.75 0.8 11.85 0.75 15.05 0.75 15.2 0.8 15.35 0.75 15.5 0.85 15.55 1.05 Q15.15 6.5 11.2 10.45 8.3 13.4 4.6 14.35 L4.55 14.35 3.7 14.6 3.5 14.6 3.4 14.45 3.4 14.4 3.2 14.45 3.15 14.45 2.35 14.65 2.2 14.65 2.1 14.55 2.05 14.45 2.1 14.3 2.25 14.15 3.05 13.95 Q5.95 13.0 8.15 10.05 11.05 6.25 11.35 1.0 M1.9 -14.7 L0.75 -14.3 Q-1.0 -13.45 -2.3 -10.8 L-2.45 -10.7 -2.45 -10.6 -2.6 -10.5 -2.6 -10.35 Q-4.15 -7.15 -4.45 -3.0 L11.25 -3.0 Q10.65 -7.3 8.15 -10.6 6.0 -13.45 3.25 -14.35 L2.95 -14.45 1.9 -14.7 M0.55 -14.75 L0.6 -14.8 0.2 -14.8 -2.8 -14.45 -2.9 -14.35 -2.95 -14.35 -4.35 -13.25 Q-5.4 -12.3 -6.2 -10.6 L-6.2 -10.55 -7.05 -8.65 Q-5.15 -10.35 -2.8 -11.0 L-2.75 -11.05 Q-1.3 -13.85 0.55 -14.75 M10.7 -0.35 L10.5 -2.5 -4.75 -2.5 -4.95 -2.55 -5.0 -2.75 Q-4.7 -7.05 -3.15 -10.35 -5.45 -9.6 -7.2 -7.8 L-7.35 -7.75 -7.35 -7.7 Q-8.05 -5.45 -8.25 -2.7 L-8.3 -2.55 -8.5 -2.5 -8.65 -2.5 -8.75 -2.5 -10.1 -2.5 -10.1 -2.45 -10.3 -0.35 -10.2 0.75 -8.6 0.75 -8.4 0.85 -8.35 1.0 Q-8.25 4.05 -7.55 6.7 L-7.55 6.8 -7.35 7.0 -7.3 7.05 -7.2 7.1 Q-5.5 8.8 -3.3 9.6 -4.55 6.85 -4.9 3.45 L-5.1 1.0 -5.0 0.85 -4.85 0.75 -4.7 0.8 -4.6 0.75 10.65 0.75 10.7 -0.35 M11.75 -3.0 L14.85 -3.0 Q14.05 -7.3 10.85 -10.5 8.35 -13.0 5.25 -14.0 7.05 -12.95 8.55 -10.9 11.15 -7.5 11.75 -3.0 M-6.35 -13.1 L-6.45 -12.95 Q-8.25 -12.05 -9.75 -10.5 -13.0 -7.3 -13.75 -3.0 L-10.3 -3.0 -10.15 -2.95 -10.05 -3.0 -8.7 -3.0 Q-8.5 -5.65 -7.85 -7.85 L-7.7 -8.0 -7.65 -8.05 -7.6 -8.1 -7.65 -8.15 -7.7 -8.35 -6.65 -10.8 Q-5.8 -12.6 -4.7 -13.6 L-4.4 -13.95 -4.3 -14.0 -6.25 -13.1 -6.35 -13.1 M-7.95 7.05 L-8.0 6.95 -8.05 6.85 Q-8.7 4.25 -8.85 1.25 L-10.4 1.25 -10.45 1.25 -13.9 1.25 Q-13.45 6.35 -9.75 10.1 -8.1 11.75 -6.1 12.8 L-4.5 13.5 -5.05 12.9 -6.65 10.35 -6.65 10.4 -7.85 7.55 -7.8 7.35 -7.75 7.25 -7.85 7.2 -7.95 7.05 M-6.2 10.15 L-4.65 12.6 -3.15 13.9 -3.1 13.95 -3.05 14.0 -2.95 13.95 0.2 14.3 0.4 14.3 Q-1.5 13.3 -2.9 10.35 L-2.95 10.25 -3.05 10.15 -3.2 10.15 Q-5.45 9.45 -7.2 7.8 L-6.2 10.15 M15.05 1.25 L11.85 1.25 Q11.5 6.55 8.55 10.35 6.9 12.6 4.85 13.75 8.2 12.75 10.85 10.1 14.55 6.4 15.05 1.25" fill="#000000" fill-rule="evenodd" stroke="none"/>
    <path d="M1.9 -14.7 L2.95 -14.45 3.25 -14.35 Q6.0 -13.45 8.15 -10.6 10.65 -7.3 11.25 -3.0 L-4.45 -3.0 Q-4.15 -7.15 -2.6 -10.35 L-2.6 -10.5 -2.45 -10.6 -2.45 -10.7 -2.3 -10.8 Q-1.0 -13.45 0.75 -14.3 L1.9 -14.7" fill="url(#gradient0)" fill-rule="evenodd" stroke="none"/>
    <path d="M0.55 -14.75 Q-1.3 -13.85 -2.75 -11.05 L-2.8 -11.0 Q-5.15 -10.35 -7.05 -8.65 L-6.2 -10.55 -6.2 -10.6 Q-5.4 -12.3 -4.35 -13.25 L-2.95 -14.35 -2.9 -14.35 -2.8 -14.45 0.2 -14.8 0.6 -14.8 0.55 -14.75" fill="url(#gradient1)" fill-rule="evenodd" stroke="none"/>
    <path d="M10.7 -0.35 L10.65 0.75 -4.6 0.75 -4.7 0.8 -4.85 0.75 -5.0 0.85 -5.1 1.0 -4.9 3.45 Q-4.55 6.85 -3.3 9.6 -5.5 8.8 -7.2 7.1 L-7.3 7.05 -7.35 7.0 -7.55 6.8 -7.55 6.7 Q-8.25 4.05 -8.35 1.0 L-8.4 0.85 -8.6 0.75 -10.2 0.75 -10.3 -0.35 -10.1 -2.45 -10.1 -2.5 -8.75 -2.5 -8.65 -2.5 -8.5 -2.5 -8.3 -2.55 -8.25 -2.7 Q-8.05 -5.45 -7.35 -7.7 L-7.35 -7.75 -7.2 -7.8 Q-5.45 -9.6 -3.15 -10.35 -4.7 -7.05 -5.0 -2.75 L-4.95 -2.55 -4.75 -2.5 10.5 -2.5 10.7 -0.35" fill="url(#gradient2)" fill-rule="evenodd" stroke="none"/>
    <path d="M11.75 -3.0 Q11.15 -7.5 8.55 -10.9 7.05 -12.95 5.25 -14.0 8.35 -13.0 10.85 -10.5 14.05 -7.3 14.85 -3.0 L11.75 -3.0" fill="url(#gradient3)" fill-rule="evenodd" stroke="none"/>
    <path d="M-6.35 -13.1 L-6.25 -13.1 -4.3 -14.0 -4.4 -13.95 -4.7 -13.6 Q-5.8 -12.6 -6.65 -10.8 L-7.7 -8.35 -7.65 -8.15 -7.6 -8.1 -7.65 -8.05 -7.7 -8.0 -7.85 -7.85 Q-8.5 -5.65 -8.7 -3.0 L-10.05 -3.0 -10.15 -2.95 -10.3 -3.0 -13.75 -3.0 Q-13.0 -7.3 -9.75 -10.5 -8.25 -12.05 -6.45 -12.95 L-6.35 -13.1" fill="url(#gradient4)" fill-rule="evenodd" stroke="none"/>
    <path d="M1.75 14.45 L1.65 14.3 1.5 14.25 1.2 14.3 1.2 14.25 1.1 14.1 0.75 13.95 Q-1.1 13.0 -2.45 10.15 -2.5 10.05 -2.6 10.05 L-2.6 9.9 Q-4.0 7.05 -4.4 3.4 L-4.6 1.25 10.9 1.25 11.1 1.2 11.15 1.0 11.35 1.0 Q11.05 6.25 8.15 10.05 5.95 13.0 3.05 13.95 L2.25 14.15 2.1 14.3 2.05 14.45 1.75 14.45" fill="url(#gradient5)" fill-rule="evenodd" stroke="none"/>
    <path d="M-7.95 7.05 L-7.85 7.2 -7.75 7.25 -7.8 7.35 -7.85 7.55 -6.65 10.4 -6.65 10.35 -5.05 12.9 -4.5 13.5 -6.1 12.8 Q-8.1 11.75 -9.75 10.1 -13.45 6.35 -13.9 1.25 L-10.45 1.25 -10.4 1.25 -8.85 1.25 Q-8.7 4.25 -8.05 6.85 L-8.0 6.95 -7.95 7.05" fill="url(#gradient6)" fill-rule="evenodd" stroke="none"/>
    <path d="M-6.2 10.15 L-7.2 7.8 Q-5.45 9.45 -3.2 10.15 L-3.05 10.15 -2.95 10.25 -2.9 10.35 Q-1.5 13.3 0.4 14.3 L0.2 14.3 -2.95 13.95 -3.05 14.0 -3.1 13.95 -3.15 13.9 -4.65 12.6 -6.2 10.15" fill="url(#gradient7)" fill-rule="evenodd" stroke="none"/>
    <path d="M15.05 1.25 Q14.55 6.4 10.85 10.1 8.2 12.75 4.85 13.75 6.9 12.6 8.55 10.35 11.5 6.55 11.85 1.25 L15.05 1.25" fill="url(#gradient8)" fill-rule="evenodd" stroke="none"/>
  </g>
  <defs>
    <radialGradient cx="0" cy="0" gradientTransform="matrix(0.0181, 0.0, 0.0, 0.0181, -2.75, -4.0)" gradientUnits="userSpaceOnUse" id="gradient0" r="819.2" spreadMethod="pad">
      <stop offset="0.0" stop-color="#e1e1e1"/>
      <stop offset="1.0" stop-color="#6a6a6a"/>
    </radialGradient>
    <radialGradient cx="0" cy="0" gradientTransform="matrix(0.0072, 0.0, 0.0, 0.0072, -3.0, -11.75)" gradientUnits="userSpaceOnUse" id="gradient1" r="819.2" spreadMethod="pad">
      <stop offset="0.0" stop-color="#7a7a7a"/>
      <stop offset="1.0" stop-color="#323232"/>
    </radialGradient>
    <radialGradient cx="0" cy="0" gradientTransform="matrix(0.014, 0.0, 0.0, 0.014, 0.0, 0.25)" gradientUnits="userSpaceOnUse" id="gradient2" r="819.2" spreadMethod="pad">
      <stop offset="0.0" stop-color="#681717"/>
      <stop offset="1.0" stop-color="#bc4332"/>
    </radialGradient>
    <radialGradient cx="0" cy="0" gradientTransform="matrix(0.0173, 0.0, 0.0, 0.0173, 12.0, -3.75)" gradientUnits="userSpaceOnUse" id="gradient3" r="819.2" spreadMethod="pad">
      <stop offset="0.0" stop-color="#7a7a7a"/>
      <stop offset="1.0" stop-color="#323232"/>
    </radialGradient>
    <radialGradient cx="0" cy="0" gradientTransform="matrix(0.0151, 0.0, 0.0, 0.0151, -9.75, -4.5)" gradientUnits="userSpaceOnUse" id="gradient4" r="819.2" spreadMethod="pad">
      <stop offset="0.0" stop-color="#e1e1e1"/>
      <stop offset="1.0" stop-color="#6a6a6a"/>
    </radialGradient>
    <radialGradient cx="0" cy="0" gradientTransform="matrix(0.0183, 0.0, 0.0, 0.0183, -3.25, 3.0)" gradientUnits="userSpaceOnUse" id="gradient5" r="819.2" spreadMethod="pad">
      <stop offset="0.0" stop-color="#e1e1e1"/>
      <stop offset="1.0" stop-color="#6a6a6a"/>
    </radialGradient>
    <radialGradient cx="0" cy="0" gradientTransform="matrix(0.0166, 0.0, 0.0, 0.0166, -9.5, 2.25)" gradientUnits="userSpaceOnUse" id="gradient6" r="819.2" spreadMethod="pad">
      <stop offset="0.0" stop-color="#e1e1e1"/>
      <stop offset="1.0" stop-color="#6a6a6a"/>
    </radialGradient>
    <radialGradient cx="0" cy="0" gradientTransform="matrix(0.0074, 0.0, 0.0, 0.0074, -3.25, 10.75)" gradientUnits="userSpaceOnUse" id="gradient7" r="819.2" spreadMethod="pad">
      <stop offset="0.0" stop-color="#7a7a7a"/>
      <stop offset="1.0" stop-color="#323232"/>
    </radialGradient>
    <radialGradient cx="0" cy="0" gradientTransform="matrix(0.02, 0.0, 0.0, 0.02, 12.75, 2.0)" gradientUnits="userSpaceOnUse" id="gradient8" r="819.2" spreadMethod="pad">
      <stop offset="0.0" stop-color="#7a7a7a"/>
      <stop offset="1.0" stop-color="#323232"/>
    </radialGradient>
  </defs>
</svg>
