<?xml version="1.0" encoding="UTF-8" standalone="no"?>
<svg xmlns:xlink="http://www.w3.org/1999/xlink" height="30.1px" width="30.0px" xmlns="http://www.w3.org/2000/svg">
  <g transform="matrix(1.0, 0.0, 0.0, 1.0, 14.45, 15.3)">
    <path d="M1.9 -14.95 L0.65 -14.55 Q-1.25 -13.6 -2.7 -10.75 -5.35 -10.05 -7.4 -8.0 -5.35 -10.05 -2.7 -10.75 -1.25 -13.6 0.65 -14.55 L1.9 -14.95 3.0 -14.7 3.05 -14.8 3.6 -14.7 4.5 -14.5 Q8.15 -13.55 11.0 -10.7 14.4 -7.3 15.15 -2.75 L11.5 -2.75 Q10.95 -7.3 8.35 -10.75 6.05 -13.85 3.0 -14.7 6.05 -13.85 8.35 -10.75 10.95 -7.3 11.5 -2.75 L10.7 -2.75 10.95 -0.35 10.9 1.0 -4.85 1.0 Q-4.65 6.2 -2.85 10.0 -5.4 9.25 -7.4 7.25 -5.4 9.25 -2.85 10.0 -4.65 6.2 -4.85 1.0 L10.9 1.0 11.6 1.0 15.3 1.0 Q14.9 6.4 11.0 10.25 8.15 13.15 4.5 14.1 L2.3 14.5 2.3 14.4 3.1 14.2 Q6.1 13.25 8.35 10.2 11.3 6.35 11.6 1.0 11.3 6.35 8.35 10.2 6.1 13.25 3.1 14.2 L2.3 14.4 1.5 14.5 0.2 14.55 -3.0 14.2 Q-4.7 13.8 -6.25 13.0 -8.25 11.95 -9.95 10.25 -13.8 6.4 -14.2 1.0 L-10.45 1.0 -10.55 -0.35 -10.3 -2.75 -8.5 -2.75 Q-8.3 -5.5 -7.6 -7.8 -8.3 -5.5 -8.5 -2.75 L-10.3 -2.75 -14.05 -2.75 Q-13.35 -7.3 -9.95 -10.7 -8.4 -12.25 -6.6 -13.2 -4.95 -14.15 -3.0 -14.6 L-3.05 -14.65 0.2 -15.05 1.9 -14.95 M-7.5 -8.05 L-6.45 -10.7 Q-5.6 -12.45 -4.55 -13.45 L-3.0 -14.6 -4.55 -13.45 Q-5.6 -12.45 -6.45 -10.7 L-7.5 -8.05 -7.6 -7.8 -7.4 -8.0 -7.5 -8.05 M-7.75 6.95 Q-8.5 4.25 -8.6 1.0 L-10.45 1.0 -8.6 1.0 Q-8.5 4.25 -7.75 6.95 L-7.6 7.35 -7.4 7.25 -7.75 6.95 M-2.7 -10.75 L-2.7 -10.7 Q-4.4 -7.3 -4.75 -2.75 L10.7 -2.75 -4.75 -2.75 Q-4.4 -7.3 -2.7 -10.7 L-2.7 -10.75 M-2.85 10.0 L-2.7 10.25 Q-1.25 13.2 0.65 14.15 L1.5 14.5 0.65 14.15 Q-1.25 13.2 -2.7 10.25 L-2.85 10.0 M-3.0 14.2 L-4.85 12.75 -6.45 10.25 -7.6 7.35 -6.45 10.25 -4.85 12.75 -3.0 14.2" fill="#000000" fill-rule="evenodd" stroke="none"/>
    <path d="M-7.4 -8.0 Q-5.35 -10.05 -2.7 -10.75 -1.25 -13.6 0.65 -14.55 L1.9 -14.95 0.2 -15.05 -3.05 -14.65 Q-4.95 -14.25 -6.6 -13.2 -8.4 -12.25 -9.95 -10.7 -13.35 -7.3 -14.05 -2.75 L-10.3 -2.75 -10.55 -0.35 -10.45 1.0 -8.6 1.0 Q-8.5 4.25 -7.75 6.95 L-7.4 7.25 Q-5.4 9.25 -2.85 10.0 -4.65 6.2 -4.85 1.0 L10.9 1.0 10.95 -0.35 10.7 -2.75 -4.75 -2.75 Q-4.4 -7.3 -2.7 -10.7 L-2.7 -10.75 M-3.0 -14.6 L-4.55 -13.45 Q-5.6 -12.45 -6.45 -10.7 L-7.5 -8.05 -7.6 -7.8 Q-8.3 -5.5 -8.5 -2.75 L-10.3 -2.75 M-7.4 -8.0 L-7.6 -7.8 M3.05 -14.8 L1.9 -14.95 3.0 -14.7 Q6.05 -13.85 8.35 -10.75 10.95 -7.3 11.5 -2.75 L15.15 -2.75 Q14.4 -7.3 11.0 -10.7 8.15 -13.55 4.5 -14.5 L3.6 -14.7 3.05 -14.8 1.9 -14.95 M10.7 -2.75 L11.5 -2.75 M11.6 1.0 L10.9 1.0 M2.3 14.5 L4.5 14.1 Q8.15 13.15 11.0 10.25 14.9 6.4 15.3 1.0 L11.6 1.0 Q11.3 6.35 8.35 10.2 6.1 13.25 3.1 14.2 L2.3 14.4 1.6 14.5 1.5 14.5 0.2 14.55 -3.0 14.2 Q-4.7 13.8 -6.25 13.0 -8.25 11.95 -9.95 10.25 -13.8 6.4 -14.2 1.0 L-10.45 1.0 M2.3 14.5 L1.9 14.55 1.6 14.5 M2.3 14.4 L1.5 14.5 0.65 14.15 Q-1.25 13.2 -2.7 10.25 L-2.85 10.0 M-6.6 -13.2 Q-4.95 -14.15 -3.0 -14.6 M-7.6 7.35 L-6.45 10.25 -4.85 12.75 -3.0 14.2 M-7.75 6.95 L-7.6 7.35" fill="none" stroke="#000000" stroke-linecap="round" stroke-linejoin="round" stroke-width="0.5"/>
  </g>
</svg>
