<?xml version="1.0" encoding="UTF-8" standalone="no"?>
<svg xmlns:xlink="http://www.w3.org/1999/xlink" height="16.75px" width="17.0px" xmlns="http://www.w3.org/2000/svg">
  <g transform="matrix(1.0, 0.0, 0.0, 1.0, 8.25, 8.55)">
    <path d="M0.75 5.9 L0.75 6.9 Q3.95 6.75 6.25 4.7 8.25 3.0 8.65 0.65 8.25 2.6 6.25 4.05 3.95 5.75 0.75 5.9 M8.75 -0.65 L8.75 -0.75 Q8.6 -2.2 6.25 -3.25 3.95 -4.3 0.75 -4.4 L0.75 -2.85 6.25 -2.1 Q8.3 -1.5 8.7 -0.65 L8.75 -0.65 M-8.2 -0.95 L-8.25 -0.65 -8.15 -0.65 Q-7.8 -1.5 -5.75 -2.1 L-0.5 -2.85 -0.5 -4.35 Q-3.5 -4.25 -5.75 -3.25 -7.95 -2.3 -8.2 -0.95 M-0.5 6.9 L-0.5 5.85 Q-3.5 5.7 -5.75 4.05 -7.75 2.6 -8.15 0.65 -7.75 3.0 -5.75 4.7 -3.5 6.7 -0.5 6.9" fill="#393c39" fill-rule="evenodd" stroke="none"/>
    <path d="M8.65 0.65 Q8.25 3.0 6.25 4.7 3.95 6.75 0.75 6.9 L0.75 8.2 Q3.95 8.05 6.25 5.8 8.75 3.35 8.75 -0.15 L8.75 -0.3 8.65 0.65 M8.75 -0.75 Q8.55 -3.85 6.25 -6.1 3.95 -8.35 0.75 -8.55 L0.75 -5.85 0.75 -4.4 Q3.95 -4.3 6.25 -3.25 8.6 -2.2 8.75 -0.75 M-0.5 -5.85 L-0.5 -8.55 Q-3.5 -8.3 -5.75 -6.1 -7.95 -3.95 -8.2 -0.95 -7.95 -2.3 -5.75 -3.25 -3.5 -4.25 -0.5 -4.35 L-0.5 -5.85 M-8.25 -0.3 L-8.25 -0.15 Q-8.25 3.35 -5.75 5.8 -3.5 8.0 -0.5 8.2 L-0.5 6.9 Q-3.5 6.7 -5.75 4.7 -7.75 3.0 -8.15 0.65 L-8.25 -0.3" fill="url(#gradient0)" fill-rule="evenodd" stroke="none"/>
    <path d="M0.75 -5.85 L0.7 -5.85 0.1 -5.85 -0.5 -5.85 -0.5 -4.35 -0.5 -2.85 -0.5 -0.65 -0.5 5.55 0.1 5.55 0.7 5.55 0.75 5.55 0.75 -0.65 0.75 -2.85 0.75 -4.4 0.75 -5.85" fill="url(#gradient1)" fill-rule="evenodd" stroke="none"/>
    <path d="M0.75 5.9 Q3.95 5.75 6.25 4.05 8.25 2.6 8.65 0.65 L8.75 -0.3 8.75 -0.4 8.75 -0.6 8.75 -0.65 8.7 -0.65 0.75 -0.65 0.75 5.55 0.75 5.9 M-8.25 -0.65 L-8.25 -0.6 -8.25 -0.4 -8.25 -0.3 -8.15 0.65 Q-7.75 2.6 -5.75 4.05 -3.5 5.7 -0.5 5.85 L-0.5 5.55 -0.5 -0.65 -8.15 -0.65 -8.25 -0.65" fill="url(#gradient2)" fill-rule="evenodd" stroke="none"/>
    <path d="M8.7 -0.65 Q8.3 -1.5 6.25 -2.1 L0.75 -2.85 0.75 -0.65 8.7 -0.65 M-0.5 -0.65 L-0.5 -2.85 -5.75 -2.1 Q-7.8 -1.5 -8.15 -0.65 L-0.5 -0.65" fill="url(#gradient3)" fill-rule="evenodd" stroke="none"/>
  </g>
  <defs>
    <radialGradient cx="0" cy="0" gradientTransform="matrix(0.0108, 0.0, 0.0, -0.0108, 0.25, -0.55)" gradientUnits="userSpaceOnUse" id="gradient0" r="819.2" spreadMethod="pad">
      <stop offset="0.0" stop-color="#e1e1e1"/>
      <stop offset="1.0" stop-color="#6a6a6a"/>
    </radialGradient>
    <radialGradient cx="0" cy="0" gradientTransform="matrix(0.0071, 0.0, 0.0, -0.0071, 0.1, -0.15)" gradientUnits="userSpaceOnUse" id="gradient1" r="819.2" spreadMethod="pad">
      <stop offset="0.0" stop-color="#681717"/>
      <stop offset="1.0" stop-color="#bc4332"/>
    </radialGradient>
    <radialGradient cx="0" cy="0" gradientTransform="matrix(0.0108, 0.0, 0.0, 0.0081, 0.25, -0.1)" gradientUnits="userSpaceOnUse" id="gradient2" r="819.2" spreadMethod="pad">
      <stop offset="0.0" stop-color="#e1e1e1"/>
      <stop offset="1.0" stop-color="#6a6a6a"/>
    </radialGradient>
    <radialGradient cx="0" cy="0" gradientTransform="matrix(0.0108, 0.0, 0.0, -0.0032, 0.25, -0.4)" gradientUnits="userSpaceOnUse" id="gradient3" r="819.2" spreadMethod="pad">
      <stop offset="0.0" stop-color="#e1e1e1"/>
      <stop offset="1.0" stop-color="#6a6a6a"/>
    </radialGradient>
  </defs>
</svg>
