<?xml version="1.0" encoding="UTF-8" standalone="no"?>
<svg xmlns:xlink="http://www.w3.org/1999/xlink" height="21.9px" width="26.2px" xmlns="http://www.w3.org/2000/svg">
  <g transform="matrix(1.0, 0.0, 0.0, 1.0, 13.0, 7.6)">
    <path d="M8.05 -6.75 Q10.2 -6.2 11.55 -4.1 12.95 -1.8 12.95 1.05 10.85 -2.3 8.3 1.3 6.3 4.15 8.35 7.05 11.1 10.95 8.2 14.05 8.45 11.35 4.95 11.4 6.0 7.15 1.75 6.9 1.05 6.85 0.45 5.95 L0.05 5.2 -0.25 5.65 Q-0.85 6.55 -1.55 6.6 -5.8 6.85 -4.75 11.1 -8.25 11.05 -8.0 13.75 -10.9 10.65 -8.15 6.75 -6.1 3.85 -8.1 1.0 -10.65 -2.6 -12.75 0.75 -12.75 -2.1 -11.35 -4.4 -10.0 -6.5 -7.85 -7.05 -2.6 -8.3 -0.2 -4.5 L0.15 -3.45 0.4 -4.2 Q2.8 -8.0 8.05 -6.75" fill="url(#gradient0)" fill-rule="evenodd" stroke="none"/>
    <path d="M8.05 -6.75 Q10.2 -6.2 11.55 -4.1 12.95 -1.8 12.95 1.05 10.85 -2.3 8.3 1.3 6.3 4.15 8.35 7.05 11.1 10.95 8.2 14.05 8.45 11.35 4.95 11.4 6.0 7.15 1.75 6.9 1.05 6.85 0.45 5.95 L0.05 5.2 -0.25 5.65 Q-0.85 6.55 -1.55 6.6 -5.8 6.85 -4.75 11.1 -8.25 11.05 -8.0 13.75 -10.9 10.65 -8.15 6.75 -6.1 3.85 -8.1 1.0 -10.65 -2.6 -12.75 0.75 -12.75 -2.1 -11.35 -4.4 -10.0 -6.5 -7.85 -7.05 -2.6 -8.3 -0.2 -4.5 L0.15 -3.45 0.4 -4.2 Q2.8 -8.0 8.05 -6.75 Z" fill="none" stroke="#000000" stroke-linecap="round" stroke-linejoin="round" stroke-width="0.5"/>
  </g>
  <defs>
    <radialGradient cx="0" cy="0" gradientTransform="matrix(0.0155, 0.0119, -0.0132, 0.0172, 1.0, -1.25)" gradientUnits="userSpaceOnUse" id="gradient0" r="819.2" spreadMethod="pad">
      <stop offset="0.0" stop-color="#986807"/>
      <stop offset="0.5764705882352941" stop-color="#efca3a"/>
      <stop offset="1.0" stop-color="#ffffff"/>
    </radialGradient>
  </defs>
</svg>
