<?xml version="1.0" encoding="UTF-8" standalone="no"?>
<svg xmlns:xlink="http://www.w3.org/1999/xlink" height="39.25px" width="13.25px" xmlns="http://www.w3.org/2000/svg">
  <g transform="matrix(1.0, 0.0, 0.0, 1.0, 6.75, 19.25)">
    <path d="M-2.75 -15.6 L-2.75 -16.4 Q-2.75 -17.45 -2.0 -18.25 -1.2 -19.0 -0.15 -19.0 L-0.1 -19.0 Q0.95 -19.0 1.7 -18.25 L2.4 -17.1 2.5 -16.4 2.5 -15.6 1.75 -15.75 1.35 -15.75 -2.0 -15.75 -2.75 -15.6 -2.0 -15.75 1.35 -15.75 1.75 -15.75 2.5 -15.6 3.15 -15.15 Q3.75 -14.55 3.75 -13.75 L3.75 -12.9 4.5 -12.9 Q5.2 -12.9 5.75 -12.35 L6.25 -11.5 4.55 -11.5 4.55 -8.5 6.25 -8.5 5.75 -7.6 Q5.2 -7.1 4.5 -7.05 L3.75 -7.05 3.75 -6.25 Q3.75 -5.45 3.15 -4.85 L3.0 -4.7 3.0 0.15 3.0 8.5 2.1 8.5 Q1.55 14.4 0.25 19.75 -1.55 14.25 -2.25 8.5 L-3.5 8.5 -3.5 8.35 -3.4 8.35 -3.5 8.3 -3.5 0.35 -3.5 -4.85 -3.4 -4.85 -3.5 -4.95 Q-4.0 -5.5 -4.0 -6.25 L-4.0 -7.05 -4.75 -7.05 Q-5.45 -7.1 -6.0 -7.6 L-6.5 -8.5 -5.3 -8.5 -5.3 -11.5 -6.5 -11.5 -6.0 -12.35 Q-5.45 -12.9 -4.75 -12.9 L-4.0 -12.9 -4.0 -13.75 Q-4.0 -14.55 -3.4 -15.15 L-2.75 -15.6 M-4.0 -12.9 L-0.9 -12.9 3.75 -12.9 -0.9 -12.9 -4.0 -12.9 M-3.5 0.35 L2.3 -7.05 3.75 -7.05 2.3 -7.05 -3.5 0.35 M-2.25 8.5 L-1.5 8.5 -1.5 5.9 -1.5 -0.5 0.75 -0.5 0.75 3.05 0.75 8.5 2.1 8.5 0.75 8.5 0.75 3.05 0.75 -0.5 -1.5 -0.5 -1.5 5.9 -1.5 8.5 -2.25 8.5 M1.35 -15.75 L-0.9 -12.9 1.35 -15.75 M-4.0 -7.05 L2.3 -7.05 -4.0 -7.05 M-5.3 -11.5 L4.55 -11.5 -5.3 -11.5 M-5.3 -8.5 L4.55 -8.5 -5.3 -8.5 M0.75 3.05 L3.0 0.15 0.75 3.05 M-3.4 8.35 L-1.5 5.9 -3.4 8.35" fill="#000000" fill-rule="evenodd" stroke="none"/>
    <path d="M2.5 -15.6 L2.5 -16.4 2.4 -17.1 1.7 -18.25 Q0.95 -19.0 -0.1 -19.0 L-0.15 -19.0 Q-1.2 -19.0 -2.0 -18.25 -2.75 -17.45 -2.75 -16.4 L-2.75 -15.6 -2.0 -15.75 1.35 -15.75 1.75 -15.75 2.5 -15.6 3.15 -15.15 Q3.75 -14.55 3.75 -13.75 L3.75 -12.9 4.5 -12.9 Q5.2 -12.9 5.75 -12.35 L6.25 -11.5 4.55 -11.5 4.55 -8.5 6.25 -8.5 5.75 -7.6 Q5.2 -7.1 4.5 -7.05 L3.75 -7.05 3.75 -6.25 Q3.75 -5.45 3.15 -4.85 L3.0 -4.7 3.0 0.15 3.0 8.5 2.1 8.5 Q1.55 14.4 0.25 19.75 -1.55 14.25 -2.25 8.5 L-3.5 8.5 -3.5 8.35 -3.5 8.3 -3.5 0.35 -3.5 -4.85 -3.5 -4.95 Q-4.0 -5.5 -4.0 -6.25 L-4.0 -7.05 -4.75 -7.05 Q-5.45 -7.1 -6.0 -7.6 L-6.5 -8.5 -5.3 -8.5 -5.3 -11.5 -6.5 -11.5 -6.0 -12.35 Q-5.45 -12.9 -4.75 -12.9 L-4.0 -12.9 -4.0 -13.75 Q-4.0 -14.55 -3.4 -15.15 L-2.75 -15.6 M3.75 -7.05 L2.3 -7.05 -3.5 0.35 M3.75 -12.9 L-0.9 -12.9 -4.0 -12.9 M2.1 8.5 L0.75 8.5 0.75 3.05 0.75 -0.5 -1.5 -0.5 -1.5 5.9 -1.5 8.5 -2.25 8.5 M-3.4 8.35 L-3.5 8.3 M-1.5 5.9 L-3.4 8.35 M3.0 0.15 L0.75 3.05 M4.55 -8.5 L-5.3 -8.5 M4.55 -11.5 L-5.3 -11.5 M2.3 -7.05 L-4.0 -7.05 M-0.9 -12.9 L1.35 -15.75" fill="none" stroke="#000000" stroke-linecap="round" stroke-linejoin="round" stroke-width="0.5"/>
  </g>
</svg>
