<?xml version="1.0" encoding="UTF-8" standalone="no"?>
<svg xmlns:xlink="http://www.w3.org/1999/xlink" height="20.0px" width="20.0px" xmlns="http://www.w3.org/2000/svg">
  <g transform="matrix(1.0, 0.0, 0.0, 1.0, 10.0, 10.0)">
    <path d="M7.1 -7.05 Q10.0 -4.15 10.0 0.0 10.0 4.15 7.1 7.1 4.15 10.0 0.0 10.0 -4.15 10.0 -7.05 7.1 -10.0 4.15 -10.0 0.0 -10.0 -4.15 -7.05 -7.05 -4.15 -10.0 0.0 -10.0 4.15 -10.0 7.1 -7.05 M1.45 -1.4 Q0.85 -2.0 0.0 -2.0 -0.85 -2.0 -1.4 -1.4 -2.0 -0.85 -2.0 0.0 -2.0 0.85 -1.4 1.45 -0.85 2.0 0.0 2.0 0.85 2.0 1.45 1.45 2.0 0.85 2.0 0.0 2.0 -0.85 1.45 -1.4" fill="url(#gradient0)" fill-rule="evenodd" stroke="none"/>
  </g>
  <defs>
    <radialGradient cx="0" cy="0" gradientTransform="matrix(0.0125, 0.0, 0.0, 0.0125, -0.1, -0.15)" gradientUnits="userSpaceOnUse" id="gradient0" r="819.2" spreadMethod="pad">
      <stop offset="0.8549019607843137" stop-color="#e9e9e9"/>
      <stop offset="1.0" stop-color="#ffffff" stop-opacity="0.4"/>
    </radialGradient>
  </defs>
</svg>
