<?xml version="1.0" encoding="UTF-8" standalone="no"?>
<svg xmlns:xlink="http://www.w3.org/1999/xlink" height="72.4px" width="72.4px" xmlns="http://www.w3.org/2000/svg">
  <g transform="matrix(1.0, 0.0, 0.0, 1.0, 36.2, 36.2)">
    <path d="M25.65 -25.6 Q36.2 -15.0 36.2 0.0 36.2 15.0 25.65 25.65 15.0 36.2 0.0 36.2 -15.0 36.2 -25.6 25.65 -36.2 15.0 -36.2 0.0 -36.2 -15.0 -25.6 -25.6 -15.0 -36.2 0.0 -36.2 15.0 -36.2 25.65 -25.6 M20.75 -20.7 Q12.15 -29.3 0.0 -29.3 -12.15 -29.3 -20.7 -20.7 -29.3 -12.15 -29.3 0.0 -29.3 12.15 -20.7 20.75 -12.15 29.3 0.0 29.3 12.15 29.3 20.75 20.75 29.3 12.15 29.3 0.0 29.3 -12.15 20.75 -20.7" fill="url(#gradient0)" fill-rule="evenodd" stroke="none"/>
  </g>
  <defs>
    <radialGradient cx="0" cy="0" gradientTransform="matrix(0.0447, 0.0, 0.0, 0.0447, -0.05, -0.15)" gradientUnits="userSpaceOnUse" id="gradient0" r="819.2" spreadMethod="pad">
      <stop offset="0.8549019607843137" stop-color="#e9e9e9"/>
      <stop offset="1.0" stop-color="#ffffff" stop-opacity="0.4"/>
    </radialGradient>
  </defs>
</svg>
