<?xml version="1.0" encoding="UTF-8" standalone="no"?>
<svg xmlns:xlink="http://www.w3.org/1999/xlink" height="98.6px" width="98.6px" xmlns="http://www.w3.org/2000/svg">
  <g transform="matrix(1.0, 0.0, 0.0, 1.0, 49.3, 49.3)">
    <path d="M34.9 -34.85 Q49.3 -20.45 49.3 0.0 49.3 20.45 34.9 34.9 20.45 49.3 0.0 49.3 -20.45 49.3 -34.85 34.9 -49.3 20.45 -49.3 0.0 -49.3 -20.45 -34.85 -34.85 -20.45 -49.3 0.0 -49.3 20.45 -49.3 34.9 -34.85 M30.4 -30.35 Q17.8 -42.95 0.0 -42.95 -17.8 -42.95 -30.35 -30.35 -42.95 -17.8 -42.95 0.0 -42.95 17.8 -30.35 30.4 -17.8 42.95 0.0 42.95 17.8 42.95 30.4 30.4 42.95 17.8 42.95 0.0 42.95 -17.8 30.4 -30.35" fill="url(#gradient0)" fill-rule="evenodd" stroke="none"/>
  </g>
  <defs>
    <radialGradient cx="0" cy="0" gradientTransform="matrix(0.0609, 0.0, 0.0, 0.0609, -0.05, -0.15)" gradientUnits="userSpaceOnUse" id="gradient0" r="819.2" spreadMethod="pad">
      <stop offset="0.8549019607843137" stop-color="#e9e9e9"/>
      <stop offset="1.0" stop-color="#ffffff" stop-opacity="0.4"/>
    </radialGradient>
  </defs>
</svg>
