<?xml version="1.0" encoding="UTF-8" standalone="no"?>
<svg xmlns:xlink="http://www.w3.org/1999/xlink" height="111.7px" width="111.7px" xmlns="http://www.w3.org/2000/svg">
  <g transform="matrix(1.0, 0.0, 0.0, 1.0, 55.85, 55.85)">
    <path d="M39.55 -39.5 Q55.85 -23.15 55.85 0.0 55.85 23.15 39.55 39.55 23.15 55.85 0.0 55.85 -23.15 55.85 -39.5 39.55 -55.85 23.15 -55.85 0.0 -55.85 -23.15 -39.5 -39.5 -23.15 -55.85 0.0 -55.85 23.15 -55.85 39.55 -39.5 M35.25 -35.2 Q20.65 -49.8 0.0 -49.8 -20.65 -49.8 -35.2 -35.2 -49.8 -20.65 -49.8 0.0 -49.8 20.65 -35.2 35.25 -20.65 49.8 0.0 49.8 20.65 49.8 35.25 35.25 49.8 20.65 49.8 0.0 49.8 -20.65 35.25 -35.2" fill="url(#gradient0)" fill-rule="evenodd" stroke="none"/>
  </g>
  <defs>
    <radialGradient cx="0" cy="0" gradientTransform="matrix(0.0689, 0.0, 0.0, 0.0689, -0.05, -0.15)" gradientUnits="userSpaceOnUse" id="gradient0" r="819.2" spreadMethod="pad">
      <stop offset="0.8549019607843137" stop-color="#e9e9e9"/>
      <stop offset="1.0" stop-color="#ffffff" stop-opacity="0.4"/>
    </radialGradient>
  </defs>
</svg>
