<?xml version="1.0" encoding="UTF-8" standalone="no"?>
<svg xmlns:xlink="http://www.w3.org/1999/xlink" height="137.9px" width="137.9px" xmlns="http://www.w3.org/2000/svg">
  <g transform="matrix(1.0, 0.0, 0.0, 1.0, 68.95, 68.95)">
    <path d="M48.8 -48.75 Q68.95 -28.55 68.95 0.0 68.95 28.55 48.8 48.8 28.55 68.95 0.0 68.95 -28.55 68.95 -48.75 48.8 -68.95 28.55 -68.95 0.0 -68.95 -28.55 -48.75 -48.75 -28.55 -68.95 0.0 -68.95 28.55 -68.95 48.8 -48.75 M44.9 -44.85 Q26.3 -63.45 0.0 -63.45 -26.3 -63.45 -44.85 -44.85 -63.45 -26.3 -63.45 0.0 -63.45 26.3 -44.85 44.9 -26.3 63.45 0.0 63.45 26.3 63.45 44.9 44.9 63.45 26.3 63.45 0.0 63.45 -26.3 44.9 -44.85" fill="url(#gradient0)" fill-rule="evenodd" stroke="none"/>
  </g>
  <defs>
    <radialGradient cx="0" cy="0" gradientTransform="matrix(0.0851, 0.0, 0.0, 0.0851, 0.0, -0.15)" gradientUnits="userSpaceOnUse" id="gradient0" r="819.2" spreadMethod="pad">
      <stop offset="0.8549019607843137" stop-color="#e9e9e9"/>
      <stop offset="1.0" stop-color="#ffffff" stop-opacity="0.4"/>
    </radialGradient>
  </defs>
</svg>
