<?xml version="1.0" encoding="UTF-8" standalone="no"?>
<svg xmlns:xlink="http://www.w3.org/1999/xlink" height="164.1px" width="164.1px" xmlns="http://www.w3.org/2000/svg">
  <g transform="matrix(1.0, 0.0, 0.0, 1.0, 82.05, 82.05)">
    <path d="M58.05 -58.0 Q82.05 -34.0 82.05 0.0 82.05 34.0 58.05 58.05 34.0 82.05 0.0 82.05 -34.0 82.05 -58.0 58.05 -82.05 34.0 -82.05 0.0 -82.05 -34.0 -58.0 -58.0 -34.0 -82.05 0.0 -82.05 34.0 -82.05 58.05 -58.0 M54.55 -54.5 Q31.95 -77.1 0.0 -77.1 -31.95 -77.1 -54.5 -54.5 -77.1 -31.95 -77.1 0.0 -77.1 31.95 -54.5 54.55 -31.95 77.1 0.0 77.1 31.95 77.1 54.55 54.55 77.1 31.95 77.1 0.0 77.1 -31.95 54.55 -54.5" fill="url(#gradient0)" fill-rule="evenodd" stroke="none"/>
  </g>
  <defs>
    <radialGradient cx="0" cy="0" gradientTransform="matrix(0.1012, 0.0, 0.0, 0.1012, 0.0, -0.15)" gradientUnits="userSpaceOnUse" id="gradient0" r="819.2" spreadMethod="pad">
      <stop offset="0.8549019607843137" stop-color="#e9e9e9"/>
      <stop offset="1.0" stop-color="#ffffff" stop-opacity="0.4"/>
    </radialGradient>
  </defs>
</svg>
