<?xml version="1.0" encoding="UTF-8" standalone="no"?>
<svg xmlns:xlink="http://www.w3.org/1999/xlink" height="177.2px" width="177.2px" xmlns="http://www.w3.org/2000/svg">
  <g transform="matrix(1.0, 0.0, 0.0, 1.0, 88.6, 88.6)">
    <path d="M62.7 -62.65 Q88.6 -36.7 88.6 0.0 88.6 36.7 62.7 62.7 36.7 88.6 0.0 88.6 -36.7 88.6 -62.65 62.7 -88.6 36.7 -88.6 0.0 -88.6 -36.7 -62.65 -62.65 -36.7 -88.6 0.0 -88.6 36.7 -88.6 62.7 -62.65 M59.4 -59.35 Q34.8 -83.95 0.0 -83.95 -34.8 -83.95 -59.35 -59.35 -83.95 -34.8 -83.95 0.0 -83.95 34.8 -59.35 59.4 -34.8 83.95 0.0 83.95 34.8 83.95 59.4 59.4 83.95 34.8 83.95 0.0 83.95 -34.8 59.4 -59.35" fill="url(#gradient0)" fill-rule="evenodd" stroke="none"/>
  </g>
  <defs>
    <radialGradient cx="0" cy="0" gradientTransform="matrix(0.1093, 0.0, 0.0, 0.1093, 0.0, -0.15)" gradientUnits="userSpaceOnUse" id="gradient0" r="819.2" spreadMethod="pad">
      <stop offset="0.8549019607843137" stop-color="#e9e9e9"/>
      <stop offset="1.0" stop-color="#ffffff" stop-opacity="0.4"/>
    </radialGradient>
  </defs>
</svg>
