<?xml version="1.0" encoding="UTF-8" standalone="no"?>
<svg xmlns:xlink="http://www.w3.org/1999/xlink" height="190.3px" width="190.3px" xmlns="http://www.w3.org/2000/svg">
  <g transform="matrix(1.0, 0.0, 0.0, 1.0, 95.15, 95.15)">
    <path d="M67.35 -67.3 Q95.15 -39.45 95.15 0.0 95.15 39.45 67.35 67.35 39.45 95.15 0.0 95.15 -39.45 95.15 -67.3 67.35 -95.15 39.45 -95.15 0.0 -95.15 -39.45 -67.3 -67.3 -39.45 -95.15 0.0 -95.15 39.45 -95.15 67.35 -67.3 M64.2 -64.15 Q37.6 -90.75 0.0 -90.75 -37.6 -90.75 -64.15 -64.15 -90.75 -37.6 -90.75 0.0 -90.75 37.6 -64.15 64.2 -37.6 90.75 0.0 90.75 37.6 90.75 64.2 64.2 90.75 37.6 90.75 0.0 90.75 -37.6 64.2 -64.15" fill="url(#gradient0)" fill-rule="evenodd" stroke="none"/>
  </g>
  <defs>
    <radialGradient cx="0" cy="0" gradientTransform="matrix(0.1173, 0.0, 0.0, 0.1173, 0.0, -0.15)" gradientUnits="userSpaceOnUse" id="gradient0" r="819.2" spreadMethod="pad">
      <stop offset="0.8549019607843137" stop-color="#e9e9e9"/>
      <stop offset="1.0" stop-color="#ffffff" stop-opacity="0.4"/>
    </radialGradient>
  </defs>
</svg>
