<?xml version="1.0" encoding="UTF-8" standalone="no"?>
<svg xmlns:xlink="http://www.w3.org/1999/xlink" height="216.6px" width="216.6px" xmlns="http://www.w3.org/2000/svg">
  <g transform="matrix(1.0, 0.0, 0.0, 1.0, 108.3, 108.3)">
    <path d="M76.6 -76.55 Q108.3 -44.85 108.3 0.0 108.3 44.85 76.6 76.6 44.85 108.3 0.0 108.3 -44.85 108.3 -76.55 76.6 -108.3 44.85 -108.3 0.0 -108.3 -44.85 -76.55 -76.55 -44.85 -108.3 0.0 -108.3 44.85 -108.3 76.6 -76.55 M73.85 -73.8 Q43.25 -104.4 0.0 -104.4 -43.25 -104.4 -73.8 -73.8 -104.4 -43.25 -104.4 0.0 -104.4 43.25 -73.8 73.85 -43.25 104.4 0.0 104.4 43.25 104.4 73.85 73.85 104.4 43.25 104.4 0.0 104.4 -43.25 73.85 -73.8" fill="url(#gradient0)" fill-rule="evenodd" stroke="none"/>
  </g>
  <defs>
    <radialGradient cx="0" cy="0" gradientTransform="matrix(0.1335, 0.0, 0.0, 0.1335, 0.05, -0.15)" gradientUnits="userSpaceOnUse" id="gradient0" r="819.2" spreadMethod="pad">
      <stop offset="0.8549019607843137" stop-color="#e9e9e9"/>
      <stop offset="1.0" stop-color="#ffffff" stop-opacity="0.4"/>
    </radialGradient>
  </defs>
</svg>
