<?xml version="1.0" encoding="UTF-8" standalone="no"?>
<svg xmlns:xlink="http://www.w3.org/1999/xlink" height="334.5px" width="334.5px" xmlns="http://www.w3.org/2000/svg">
  <g transform="matrix(1.0, 0.0, 0.0, 1.0, 167.25, 167.25)">
    <path d="M118.3 -118.25 Q167.25 -69.3 167.25 0.0 167.25 69.3 118.3 118.3 69.3 167.25 0.0 167.25 -69.3 167.25 -118.25 118.3 -167.25 69.3 -167.25 0.0 -167.25 -69.3 -118.25 -118.25 -69.3 -167.25 0.0 -167.25 69.3 -167.25 118.3 -118.25 M117.3 -117.25 Q68.7 -165.85 0.0 -165.85 -68.7 -165.85 -117.25 -117.25 -165.85 -68.7 -165.85 0.0 -165.85 68.7 -117.25 117.3 -68.7 165.85 0.0 165.85 68.7 165.85 117.3 117.3 165.85 68.7 165.85 0.0 165.85 -68.7 117.3 -117.25" fill="url(#gradient0)" fill-rule="evenodd" stroke="none"/>
  </g>
  <defs>
    <radialGradient cx="0" cy="0" gradientTransform="matrix(0.2061, 0.0, 0.0, 0.2061, 0.1, -0.15)" gradientUnits="userSpaceOnUse" id="gradient0" r="819.2" spreadMethod="pad">
      <stop offset="0.8549019607843137" stop-color="#e9e9e9"/>
      <stop offset="1.0" stop-color="#ffffff" stop-opacity="0.4"/>
    </radialGradient>
  </defs>
</svg>
