<?xml version="1.0" encoding="UTF-8" standalone="no"?>
<svg xmlns:xlink="http://www.w3.org/1999/xlink" height="360.7px" width="360.7px" xmlns="http://www.w3.org/2000/svg">
  <g transform="matrix(1.0, 0.0, 0.0, 1.0, 180.35, 180.35)">
    <path d="M127.55 -127.5 Q180.35 -74.7 180.35 0.0 180.35 74.7 127.55 127.55 74.7 180.35 0.0 180.35 -74.7 180.35 -127.5 127.55 -180.35 74.7 -180.35 0.0 -180.35 -74.7 -127.5 -127.5 -74.7 -180.35 0.0 -180.35 74.7 -180.35 127.55 -127.5 M126.95 -126.9 Q74.35 -179.5 0.0 -179.5 -74.35 -179.5 -126.9 -126.9 -179.5 -74.35 -179.5 0.0 -179.5 74.35 -126.9 126.95 -74.35 179.5 0.0 179.5 74.35 179.5 126.95 126.95 179.5 74.35 179.5 0.0 179.5 -74.35 126.95 -126.9" fill="url(#gradient0)" fill-rule="evenodd" stroke="none"/>
  </g>
  <defs>
    <radialGradient cx="0" cy="0" gradientTransform="matrix(0.2222, 0.0, 0.0, 0.2222, 0.1, -0.15)" gradientUnits="userSpaceOnUse" id="gradient0" r="819.2" spreadMethod="pad">
      <stop offset="0.8549019607843137" stop-color="#e9e9e9"/>
      <stop offset="1.0" stop-color="#ffffff" stop-opacity="0.4"/>
    </radialGradient>
  </defs>
</svg>
