<?xml version="1.0" encoding="UTF-8" standalone="no"?>
<svg xmlns:xlink="http://www.w3.org/1999/xlink" height="373.8px" width="373.8px" xmlns="http://www.w3.org/2000/svg">
  <g transform="matrix(1.0, 0.0, 0.0, 1.0, 186.9, 186.9)">
    <path d="M132.2 -132.15 Q186.9 -77.4 186.9 0.0 186.9 77.4 132.2 132.2 77.4 186.9 0.0 186.9 -77.4 186.9 -132.15 132.2 -186.9 77.4 -186.9 0.0 -186.9 -77.4 -132.15 -132.15 -77.4 -186.9 0.0 -186.9 77.4 -186.9 132.2 -132.15 M131.8 -131.75 Q77.2 -186.35 0.0 -186.35 -77.2 -186.35 -131.75 -131.75 -186.35 -77.2 -186.35 0.0 -186.35 77.2 -131.75 131.8 -77.2 186.35 0.0 186.35 77.2 186.35 131.8 131.8 186.35 77.2 186.35 0.0 186.35 -77.2 131.8 -131.75" fill="url(#gradient0)" fill-rule="evenodd" stroke="none"/>
  </g>
  <defs>
    <radialGradient cx="0" cy="0" gradientTransform="matrix(0.2303, 0.0, 0.0, 0.2303, 0.15, -0.15)" gradientUnits="userSpaceOnUse" id="gradient0" r="819.2" spreadMethod="pad">
      <stop offset="0.8549019607843137" stop-color="#e9e9e9"/>
      <stop offset="1.0" stop-color="#ffffff" stop-opacity="0.4"/>
    </radialGradient>
  </defs>
</svg>
