<?xml version="1.0" encoding="UTF-8" standalone="no"?>
<svg xmlns:xlink="http://www.w3.org/1999/xlink" height="386.9px" width="386.9px" xmlns="http://www.w3.org/2000/svg">
  <g transform="matrix(1.0, 0.0, 0.0, 1.0, 193.45, 193.45)">
    <path d="M136.8 -136.75 Q193.45 -80.15 193.45 0.0 193.45 80.15 136.8 136.8 80.15 193.45 0.0 193.45 -80.15 193.45 -136.75 136.8 -193.45 80.15 -193.45 0.0 -193.45 -80.15 -136.75 -136.75 -80.15 -193.45 0.0 -193.45 80.15 -193.45 136.8 -136.75 M136.6 -136.55 Q80.0 -193.15 0.0 -193.15 -80.0 -193.15 -136.55 -136.55 -193.15 -80.0 -193.15 0.0 -193.15 80.0 -136.55 136.6 -80.0 193.15 0.0 193.15 80.0 193.15 136.6 136.6 193.15 80.0 193.15 0.0 193.15 -80.0 136.6 -136.55" fill="url(#gradient0)" fill-rule="evenodd" stroke="none"/>
  </g>
  <defs>
    <radialGradient cx="0" cy="0" gradientTransform="matrix(0.2383, 0.0, 0.0, 0.2383, 0.15, -0.15)" gradientUnits="userSpaceOnUse" id="gradient0" r="819.2" spreadMethod="pad">
      <stop offset="0.8549019607843137" stop-color="#e9e9e9"/>
      <stop offset="1.0" stop-color="#ffffff" stop-opacity="0.4"/>
    </radialGradient>
  </defs>
</svg>
