<?xml version="1.0" encoding="UTF-8" standalone="no"?>
<svg xmlns:xlink="http://www.w3.org/1999/xlink" height="6.65px" width="5.85px" xmlns="http://www.w3.org/2000/svg">
  <g transform="matrix(1.0, 0.0, 0.0, 1.0, -13.75, -12.75)">
    <path d="M19.4 14.7 L17.55 14.8 17.2 14.15 16.55 13.95 16.05 14.1 15.85 14.45 16.0 14.75 16.65 15.0 18.55 15.55 19.35 16.25 19.6 17.2 19.3 18.35 18.3 19.15 16.75 19.4 Q15.1 19.4 14.5 18.8 13.85 18.15 13.75 17.15 L15.65 17.05 15.9 17.75 Q16.2 18.15 16.8 18.15 L17.45 17.95 17.7 17.5 17.45 17.05 16.45 16.65 Q15.15 16.35 14.55 15.9 14.0 15.4 14.0 14.65 14.0 14.15 14.3 13.7 L15.15 13.0 16.75 12.75 Q18.0 12.75 18.65 13.25 19.3 13.7 19.4 14.7" fill="#000000" fill-rule="evenodd" stroke="none"/>
  </g>
</svg>
