<?xml version="1.0" encoding="UTF-8" standalone="no"?>
<svg xmlns:xlink="http://www.w3.org/1999/xlink" height="9.95px" width="8.75px" xmlns="http://www.w3.org/2000/svg">
  <g transform="matrix(1.0, 0.0, 0.0, 1.0, -12.25, -11.1)">
    <path d="M18.05 14.8 L19.45 15.3 Q20.25 15.75 20.65 16.35 21.0 17.0 21.0 17.75 21.0 18.75 20.55 19.5 L19.05 20.7 16.75 21.05 Q14.25 21.05 13.35 20.15 12.4 19.2 12.25 17.7 L13.85 17.6 Q14.0 18.3 14.5 18.8 15.1 19.4 16.75 19.4 L18.3 19.15 19.3 18.35 19.6 17.2 19.35 16.25 18.55 15.55 16.65 15.0 16.0 14.75 15.85 14.45 15.95 14.25 16.6 14.45 17.5 14.65 17.55 14.8 18.05 14.8 M17.7 17.45 Q17.35 17.2 16.3 16.95 14.35 16.5 13.45 15.8 12.6 15.05 12.6 13.95 12.6 13.2 13.05 12.5 13.5 11.85 14.35 11.45 L16.75 11.1 Q18.6 11.1 19.6 11.85 20.55 12.5 20.7 14.0 L19.3 14.1 18.65 13.25 Q18.0 12.75 16.75 12.75 L15.15 13.0 14.3 13.7 Q14.0 14.15 14.0 14.65 14.0 15.4 14.55 15.9 15.15 16.35 16.45 16.65 L17.45 17.05 17.7 17.45" fill="url(#gradient0)" fill-rule="evenodd" stroke="none"/>
    <path d="M13.85 17.6 L13.75 17.15 15.65 17.05 15.9 17.75 Q16.2 18.15 16.8 18.15 L17.45 17.95 17.7 17.5 17.7 17.45 17.45 17.05 16.45 16.65 Q15.15 16.35 14.55 15.9 14.0 15.4 14.0 14.65 14.0 14.15 14.3 13.7 L15.15 13.0 16.75 12.75 Q18.0 12.75 18.65 13.25 L19.3 14.1 19.4 14.7 18.05 14.8 17.55 14.8 17.5 14.65 17.2 14.15 16.55 13.95 16.05 14.1 15.95 14.25 15.85 14.45 16.0 14.75 16.65 15.0 18.55 15.55 19.35 16.25 19.6 17.2 19.3 18.35 18.3 19.15 16.75 19.4 Q15.1 19.4 14.5 18.8 14.0 18.3 13.85 17.6" fill="#02f702" fill-rule="evenodd" stroke="none"/>
  </g>
  <defs>
    <radialGradient cx="0" cy="0" gradientTransform="matrix(0.0077, 0.0, 0.0, 0.0077, 16.65, 16.1)" gradientUnits="userSpaceOnUse" id="gradient0" r="819.2" spreadMethod="pad">
      <stop offset="0.0" stop-color="#4bd91c"/>
      <stop offset="1.0" stop-color="#96fc7c" stop-opacity="0.5019608"/>
    </radialGradient>
  </defs>
</svg>
