<?xml version="1.0" encoding="UTF-8" standalone="no"?>
<svg xmlns:xlink="http://www.w3.org/1999/xlink" height="32.7px" width="32.15px" xmlns="http://www.w3.org/2000/svg">
  <g transform="matrix(1.0, 0.0, 0.0, 1.0, 15.5, 17.7)">
    <path d="M6.35 11.35 L6.25 12.5 6.3 13.2 4.0 13.2 3.7 11.9 6.35 11.35 M-6.45 11.9 L-6.65 13.45 -8.05 13.45 -8.0 12.5 -8.05 11.4 -6.35 11.75 -6.45 11.9" fill="#4a494a" fill-rule="evenodd" stroke="none"/>
    <path d="M12.35 -15.65 Q11.8 -17.5 9.7 -17.15 L8.9 -16.9 8.25 -16.55 7.8 -16.3 7.3 -15.95 Q6.45 -15.4 5.45 -15.15 L4.3 -14.45 Q3.95 -14.15 3.75 -13.55 L3.75 -13.5 3.7 -11.95 Q3.75 -10.95 3.1 -10.75 L2.45 -11.65 Q2.2 -11.95 2.1 -12.35 L2.1 -12.4 1.55 -13.3 0.55 -14.05 -0.45 -14.35 Q-2.15 -14.7 -3.1 -13.35 L-3.1 -13.3 Q-3.6 -12.6 -3.75 -11.75 -4.0 -10.25 -3.75 -8.7 L-3.65 -8.55 -3.45 -8.5 -3.3 -8.6 -3.25 -8.8 Q-3.5 -10.25 -3.25 -11.65 L-2.7 -13.05 Q-1.95 -14.1 -0.55 -13.85 L0.4 -13.6 0.35 -13.6 1.15 -13.0 1.65 -12.2 2.05 -11.35 2.8 -10.35 2.9 -10.25 3.05 -10.25 Q4.3 -10.35 4.2 -12.0 L4.25 -13.45 4.25 -13.4 4.65 -14.1 5.55 -14.65 5.6 -14.65 Q6.95 -15.0 8.1 -15.9 L8.45 -16.1 8.5 -16.1 9.8 -16.65 Q11.4 -16.9 11.85 -15.5 L11.9 -15.5 Q12.15 -14.85 11.9 -14.15 L11.9 -14.1 11.25 -12.25 Q11.0 -11.35 11.35 -10.55 11.55 -10.05 12.15 -9.8 L12.2 -9.8 13.7 -8.85 14.9 -6.95 15.45 -6.35 15.65 -5.5 15.65 -5.0 Q15.65 -4.35 15.3 -3.8 L15.3 -3.75 13.55 -1.45 Q12.45 -0.45 12.3 0.8 12.25 1.3 12.6 1.85 L12.95 2.4 Q13.2 2.95 12.85 3.4 L12.3 3.9 11.7 4.2 11.75 4.2 Q11.35 4.3 11.1 4.6 L11.0 4.75 11.1 4.95 11.25 5.0 11.45 4.95 Q11.65 4.7 11.9 4.65 L12.55 4.35 13.25 3.75 13.25 3.7 Q13.8 3.05 13.4 2.2 L13.0 1.55 Q12.75 1.2 12.8 0.85 12.95 -0.25 13.9 -1.1 L15.75 -3.5 15.7 -3.5 Q16.15 -4.15 16.15 -5.0 L16.15 -5.45 16.15 -5.5 Q16.2 -6.5 15.7 -6.8 L15.65 -6.8 15.35 -7.15 14.1 -9.15 Q13.5 -9.85 12.35 -10.25 L11.8 -10.75 Q11.5 -11.35 11.75 -12.1 L12.35 -13.95 Q12.65 -14.85 12.35 -15.7 L12.35 -15.65 M10.8 -12.4 L11.4 -14.3 Q11.6 -14.85 11.4 -15.3 L11.4 -15.35 Q11.05 -16.35 9.9 -16.15 L8.75 -15.7 8.7 -15.65 8.4 -15.5 Q7.2 -14.55 5.7 -14.15 L5.0 -13.75 4.75 -13.3 4.7 -12.05 Q4.85 -9.85 3.1 -9.75 L2.7 -9.8 2.4 -10.05 1.7 -11.0 1.65 -11.05 Q1.35 -11.5 1.2 -12.0 L0.75 -12.7 0.15 -13.15 -0.65 -13.35 Q-1.7 -13.55 -2.25 -12.8 L-2.75 -11.55 Q-3.0 -10.25 -2.75 -8.85 -2.7 -8.55 -2.9 -8.3 L-3.35 -8.0 -3.9 -8.15 -4.25 -8.6 Q-4.5 -10.25 -4.25 -11.8 L-4.2 -11.85 Q-4.05 -12.8 -3.5 -13.6 -2.4 -15.2 -0.35 -14.8 L0.7 -14.55 0.75 -14.5 1.95 -13.6 2.55 -12.6 2.55 -12.5 2.85 -11.9 2.85 -11.95 3.2 -11.5 3.2 -11.95 3.25 -13.6 3.3 -13.7 Q3.5 -14.4 3.95 -14.8 4.5 -15.45 5.35 -15.6 L5.3 -15.6 Q5.85 -15.75 6.35 -16.0 L7.5 -16.7 8.05 -17.0 7.95 -17.0 9.15 -17.5 9.6 -17.6 9.65 -17.65 Q12.15 -18.05 12.85 -15.8 13.2 -14.85 12.8 -13.75 L12.8 -13.8 12.25 -12.0 Q12.05 -11.4 12.25 -10.95 L12.55 -10.75 12.5 -10.75 Q13.8 -10.25 14.5 -9.45 L15.8 -7.35 15.9 -7.25 15.95 -7.2 Q16.7 -6.85 16.65 -5.5 L16.65 -5.45 16.65 -5.0 Q16.65 -4.05 16.15 -3.25 L16.15 -3.2 14.25 -0.75 Q13.45 0.0 13.3 0.9 L13.45 1.3 13.85 2.0 Q14.4 3.1 13.65 4.05 L12.8 4.75 12.1 5.1 12.05 5.1 Q11.9 5.15 11.8 5.3 L11.25 5.5 Q10.95 5.5 10.75 5.3 L10.5 4.75 10.75 4.25 Q11.1 3.85 11.6 3.7 L11.5 3.7 12.05 3.45 12.5 3.05 12.5 3.1 12.5 2.65 12.2 2.15 Q11.7 1.45 11.8 0.75 L11.8 0.7 Q11.95 -0.7 13.2 -1.85 L13.2 -1.8 14.85 -4.0 14.9 -4.05 15.15 -5.0 15.15 -5.5 15.15 -5.55 15.15 -5.95 14.45 -6.7 14.4 -6.75 13.35 -8.5 Q12.9 -9.05 12.0 -9.35 11.2 -9.65 10.9 -10.3 L10.85 -10.35 Q10.45 -11.3 10.8 -12.4" fill="#ef0000" fill-rule="evenodd" stroke="none"/>
    <path d="M12.35 -15.65 L12.35 -15.7 Q12.65 -14.85 12.35 -13.95 L11.75 -12.1 Q11.5 -11.35 11.8 -10.75 L12.35 -10.25 Q13.5 -9.85 14.1 -9.15 L15.35 -7.15 15.65 -6.8 15.7 -6.8 Q16.2 -6.5 16.15 -5.5 L16.15 -5.45 16.15 -5.0 Q16.15 -4.15 15.7 -3.5 L15.75 -3.5 13.9 -1.1 Q12.95 -0.25 12.8 0.85 12.75 1.2 13.0 1.55 L13.4 2.2 Q13.8 3.05 13.25 3.7 L13.25 3.75 12.55 4.35 11.9 4.65 Q11.65 4.7 11.45 4.95 L11.25 5.0 11.1 4.95 11.0 4.75 11.1 4.6 Q11.35 4.3 11.75 4.2 L11.7 4.2 12.3 3.9 12.85 3.4 Q13.2 2.95 12.95 2.4 L12.6 1.85 Q12.25 1.3 12.3 0.8 12.45 -0.45 13.55 -1.45 L15.3 -3.75 15.3 -3.8 Q15.65 -4.35 15.65 -5.0 L15.65 -5.5 15.45 -6.35 14.9 -6.95 13.7 -8.85 12.2 -9.8 12.15 -9.8 Q11.55 -10.05 11.35 -10.55 11.0 -11.35 11.25 -12.25 L11.9 -14.1 11.9 -14.15 Q12.15 -14.85 11.9 -15.5 L11.85 -15.5 Q11.4 -16.9 9.8 -16.65 L8.5 -16.1 8.45 -16.1 8.1 -15.9 Q6.95 -15.0 5.6 -14.65 L5.55 -14.65 4.65 -14.1 4.25 -13.4 4.25 -13.45 4.2 -12.0 Q4.3 -10.35 3.05 -10.25 L2.9 -10.25 2.8 -10.35 2.05 -11.35 1.65 -12.2 1.15 -13.0 0.35 -13.6 0.4 -13.6 -0.55 -13.85 Q-1.95 -14.1 -2.7 -13.05 L-3.25 -11.65 Q-3.5 -10.25 -3.25 -8.8 L-3.3 -8.6 -3.45 -8.5 -3.65 -8.55 -3.75 -8.7 Q-4.0 -10.25 -3.75 -11.75 -3.6 -12.6 -3.1 -13.3 L-3.1 -13.35 Q-2.15 -14.7 -0.45 -14.35 L0.55 -14.05 1.55 -13.3 2.1 -12.4 2.1 -12.35 Q2.2 -11.95 2.45 -11.65 L3.1 -10.75 Q3.75 -10.95 3.7 -11.95 L3.75 -13.5 3.75 -13.55 Q3.95 -14.15 4.3 -14.45 L5.45 -15.15 Q6.45 -15.4 7.3 -15.95 L7.8 -16.3 8.25 -16.55 8.9 -16.9 9.7 -17.15 Q11.8 -17.5 12.35 -15.65" fill="#ffffff" fill-rule="evenodd" stroke="none"/>
    <path d="M7.0 2.25 L2.0 2.25 Q2.05 1.25 2.75 0.55 3.45 -0.25 4.5 -0.25 5.55 -0.25 6.3 0.55 6.95 1.25 7.0 2.25" fill="url(#gradient0)" fill-rule="evenodd" stroke="none"/>
    <path d="M7.25 4.75 L1.75 4.75 1.75 2.75 7.25 2.75 7.25 4.75" fill="url(#gradient1)" fill-rule="evenodd" stroke="none"/>
    <path d="M7.75 5.0 L7.75 4.5 8.0 4.5 Q8.7 4.5 9.25 5.05 9.75 5.55 9.75 6.25 L9.75 7.75 Q8.65 7.85 7.8 8.65 L7.8 8.7 7.3 9.15 Q6.75 9.9 6.5 10.8 L3.45 11.4 3.4 11.4 Q-1.25 12.05 -5.9 11.3 L-6.0 11.35 -6.15 11.25 -8.25 10.8 -8.25 10.65 -9.1 9.15 -9.9 8.35 Q-10.7 7.75 -11.75 7.75 L-12.0 7.75 -12.0 6.25 -11.8 5.6 -11.8 5.55 -11.45 5.05 Q-10.95 4.5 -10.25 4.5 L1.25 4.5 1.25 5.0 1.35 5.2 1.5 5.25 7.5 5.25 7.7 5.2 7.75 5.0" fill="url(#gradient2)" fill-rule="evenodd" stroke="none"/>
    <path d="M8.15 9.05 Q8.95 8.25 10.0 8.25 11.35 8.25 12.25 9.45 13.25 10.75 13.25 12.5 13.25 13.6 12.9 14.5 L7.15 14.5 6.85 13.45 6.85 13.4 6.75 12.5 6.95 11.1 6.95 11.0 Q7.2 10.15 7.7 9.45 L8.1 9.05 8.15 9.05" fill="url(#gradient3)" fill-rule="evenodd" stroke="none"/>
    <path d="M-5.05 -6.95 L-4.8 -6.95 -2.2 -6.35 Q-7.05 -1.95 -10.15 4.0 L-10.25 4.0 Q-11.15 4.0 -11.8 4.7 L-12.05 5.0 -12.55 4.05 -12.55 4.0 -12.65 3.8 Q-9.75 -2.5 -5.05 -6.95" fill="url(#gradient4)" fill-rule="evenodd" stroke="none"/>
    <path d="M-2.2 -6.35 L-2.1 -6.25 -0.75 -5.4 -0.75 4.0 -10.15 4.0 Q-7.05 -1.95 -2.2 -6.35 M-12.65 3.8 Q-13.25 2.4 -13.25 0.8 -13.25 -2.45 -10.95 -4.7 -8.7 -7.0 -5.45 -7.0 L-5.05 -6.95 Q-9.75 -2.5 -12.65 3.8" fill="url(#gradient5)" fill-rule="evenodd" stroke="none"/>
    <path d="M-8.7 10.9 L-8.7 10.95 -8.65 11.15 -8.55 11.25 -8.6 11.35 -8.5 12.5 -8.55 13.45 -8.5 13.55 -8.6 13.7 -8.55 13.8 -8.6 13.85 -8.85 14.5 -14.65 14.5 Q-15.0 13.6 -15.0 12.5 L-15.0 12.25 -15.0 12.2 Q-14.9 10.65 -14.05 9.45 -13.25 8.5 -12.2 8.3 L-12.1 8.25 -12.0 8.25 -11.75 8.25 Q-10.9 8.25 -10.2 8.75 L-9.5 9.45 -8.7 10.85 -8.7 10.9" fill="url(#gradient6)" fill-rule="evenodd" stroke="none"/>
    <path d="M10.25 7.75 Q11.65 7.85 12.65 9.15 13.75 10.55 13.75 12.5 13.75 13.8 13.3 14.85 L13.2 14.95 13.05 15.0 6.95 15.0 6.8 14.95 6.75 14.85 6.4 13.7 3.8 13.7 3.7 13.65 3.6 13.55 Q3.25 12.8 3.2 11.95 -1.4 12.55 -5.95 11.8 L-5.95 11.9 -6.2 13.6 -6.3 13.7 -6.35 13.9 -6.55 13.95 -8.15 13.95 -8.15 14.05 -8.45 14.85 -8.55 14.95 -8.7 15.0 -14.8 15.0 -14.9 14.95 -15.0 14.85 Q-15.5 13.8 -15.5 12.5 L-15.5 12.2 Q-15.4 10.45 -14.45 9.15 -13.6 8.1 -12.5 7.85 L-12.5 6.25 -12.35 5.5 -13.0 4.2 Q-13.75 2.65 -13.75 0.8 -13.75 -2.65 -11.3 -5.05 -8.9 -7.5 -5.45 -7.5 L-4.8 -7.45 -4.75 -7.45 Q-3.25 -7.4 -1.9 -6.7 -1.05 -6.35 -0.3 -5.75 L-0.25 -5.65 -0.25 -5.55 -0.25 4.0 1.25 4.0 1.25 2.5 1.35 2.35 Q1.4 2.25 1.5 2.25 1.6 1.05 2.4 0.2 3.25 -0.75 4.5 -0.75 5.75 -0.75 6.65 0.2 7.4 1.05 7.5 2.25 L7.7 2.35 7.75 2.5 7.75 4.0 8.0 4.0 Q8.9 4.0 9.6 4.7 10.25 5.35 10.25 6.25 L10.25 7.75 M7.0 2.25 Q6.95 1.25 6.3 0.55 5.55 -0.25 4.5 -0.25 3.45 -0.25 2.75 0.55 2.05 1.25 2.0 2.25 L7.0 2.25 M7.75 5.0 L7.7 5.2 7.5 5.25 1.5 5.25 1.35 5.2 1.25 5.0 1.25 4.5 -10.25 4.5 Q-10.95 4.5 -11.45 5.05 L-11.8 5.55 -11.8 5.6 -12.0 6.25 -12.0 7.75 -11.75 7.75 Q-10.7 7.75 -9.9 8.35 L-9.1 9.15 -8.25 10.65 -8.25 10.8 -6.15 11.25 -6.0 11.35 -5.9 11.3 Q-1.25 12.05 3.4 11.4 L3.45 11.4 6.5 10.8 Q6.75 9.9 7.3 9.15 L7.8 8.7 7.8 8.65 Q8.65 7.85 9.75 7.75 L9.75 6.25 Q9.75 5.55 9.25 5.05 8.7 4.5 8.0 4.5 L7.75 4.5 7.75 5.0 M7.25 4.75 L7.25 2.75 1.75 2.75 1.75 4.75 7.25 4.75 M8.15 9.05 L8.1 9.05 7.7 9.45 Q7.2 10.15 6.95 11.0 L6.95 11.1 6.75 12.5 6.85 13.4 6.85 13.45 7.15 14.5 12.9 14.5 Q13.25 13.6 13.25 12.5 13.25 10.75 12.25 9.45 11.35 8.25 10.0 8.25 8.95 8.25 8.15 9.05 M6.35 11.35 L3.7 11.9 4.0 13.2 6.3 13.2 6.25 12.5 6.35 11.35 M-2.2 -6.35 L-4.8 -6.95 -5.05 -6.95 -5.45 -7.0 Q-8.7 -7.0 -10.95 -4.7 -13.25 -2.45 -13.25 0.8 -13.25 2.4 -12.65 3.8 L-12.55 4.0 -12.55 4.05 -12.05 5.0 -11.8 4.7 Q-11.15 4.0 -10.25 4.0 L-10.15 4.0 -0.75 4.0 -0.75 -5.4 -2.1 -6.25 -2.2 -6.35 M-8.7 10.9 L-8.7 10.85 -9.5 9.45 -10.2 8.75 Q-10.9 8.25 -11.75 8.25 L-12.0 8.25 -12.1 8.25 -12.2 8.3 Q-13.25 8.5 -14.05 9.45 -14.9 10.65 -15.0 12.2 L-15.0 12.25 -15.0 12.5 Q-15.0 13.6 -14.65 14.5 L-8.85 14.5 -8.6 13.85 -8.55 13.8 -8.6 13.7 -8.5 13.55 -8.55 13.45 -8.5 12.5 -8.6 11.35 -8.55 11.25 -8.65 11.15 -8.7 10.95 -8.7 10.9 M-6.45 11.9 L-6.35 11.75 -8.05 11.4 -8.0 12.5 -8.05 13.45 -6.65 13.45 -6.45 11.9" fill="#000000" fill-rule="evenodd" stroke="none"/>
  </g>
  <defs>
    <radialGradient cx="0" cy="0" gradientTransform="matrix(0.0052, 0.0, 0.0, 0.0052, 4.0, 0.75)" gradientUnits="userSpaceOnUse" id="gradient0" r="819.2" spreadMethod="pad">
      <stop offset="0.0" stop-color="#ffffff"/>
      <stop offset="0.25882352941176473" stop-color="#3ac53a"/>
      <stop offset="1.0" stop-color="#2b2b2b"/>
    </radialGradient>
    <linearGradient gradientTransform="matrix(0.0037, 0.0, 0.0, 0.0015, 4.5, 3.75)" gradientUnits="userSpaceOnUse" id="gradient1" spreadMethod="pad" x1="-819.2" x2="819.2">
      <stop offset="0.0" stop-color="#9c9a9c"/>
      <stop offset="1.0" stop-color="#6b696b"/>
    </linearGradient>
    <linearGradient gradientTransform="matrix(0.0136, 0.0, 0.0, 0.0047, -1.15, 8.1)" gradientUnits="userSpaceOnUse" id="gradient2" spreadMethod="pad" x1="-819.2" x2="819.2">
      <stop offset="0.0" stop-color="#9c9a9c"/>
      <stop offset="1.0" stop-color="#6b696b"/>
    </linearGradient>
    <radialGradient cx="0" cy="0" gradientTransform="matrix(0.0074, 0.0, 0.0, 0.0074, 8.5, 11.5)" gradientUnits="userSpaceOnUse" id="gradient3" r="819.2" spreadMethod="pad">
      <stop offset="0.0" stop-color="#d7d7d7"/>
      <stop offset="1.0" stop-color="#2b2b2b"/>
    </radialGradient>
    <linearGradient gradientTransform="matrix(0.0056, 0.0034, -0.004, 0.0066, -8.1, -1.4)" gradientUnits="userSpaceOnUse" id="gradient4" spreadMethod="pad" x1="-819.2" x2="819.2">
      <stop offset="0.16470588235294117" stop-color="#000000"/>
      <stop offset="0.5098039215686274" stop-color="#ea0000"/>
      <stop offset="0.8352941176470589" stop-color="#000000"/>
    </linearGradient>
    <radialGradient cx="0" cy="0" gradientTransform="matrix(0.0051, 0.0053, -0.0098, 0.0095, -9.25, -4.4)" gradientUnits="userSpaceOnUse" id="gradient5" r="819.2" spreadMethod="pad">
      <stop offset="0.0" stop-color="#f1f1f1"/>
      <stop offset="0.34509803921568627" stop-color="#000000"/>
    </radialGradient>
    <radialGradient cx="0" cy="0" gradientTransform="matrix(0.0073, 0.0, 0.0, 0.0073, -13.25, 11.0)" gradientUnits="userSpaceOnUse" id="gradient6" r="819.2" spreadMethod="pad">
      <stop offset="0.0" stop-color="#d7d7d7"/>
      <stop offset="1.0" stop-color="#2b2b2b"/>
    </radialGradient>
  </defs>
</svg>
