<?xml version="1.0" encoding="UTF-8" standalone="no"?>
<svg xmlns:xlink="http://www.w3.org/1999/xlink" height="32.7px" width="32.15px" xmlns="http://www.w3.org/2000/svg">
  <g transform="matrix(1.0, 0.0, 0.0, 1.0, 15.5, 17.7)">
    <path d="M11.9 -15.5 L11.85 -15.5 Q11.4 -16.9 9.8 -16.65 L8.5 -16.1 8.45 -16.1 8.1 -15.9 Q6.95 -15.0 5.6 -14.65 L5.55 -14.65 4.65 -14.1 4.25 -13.4 4.25 -13.45 4.2 -12.0 Q4.3 -10.35 3.05 -10.25 L2.9 -10.25 2.8 -10.35 2.05 -11.35 1.65 -12.2 1.15 -13.0 0.35 -13.6 0.4 -13.6 -0.55 -13.85 Q-1.95 -14.1 -2.7 -13.05 L-3.25 -11.65 Q-3.5 -10.25 -3.25 -8.8 L-3.3 -8.6 -3.45 -8.5 -3.65 -8.55 -3.75 -8.7 Q-4.0 -10.25 -3.75 -11.75 -3.6 -12.6 -3.1 -13.3 L-3.1 -13.35 Q-2.15 -14.7 -0.45 -14.35 L0.55 -14.05 1.55 -13.3 2.1 -12.4 2.1 -12.35 Q2.2 -11.95 2.45 -11.65 L3.1 -10.75 Q3.75 -10.95 3.7 -11.95 L3.75 -13.5 3.75 -13.55 Q3.95 -14.15 4.3 -14.45 L5.45 -15.15 Q6.75 -15.5 7.8 -16.3 L8.25 -16.55 9.7 -17.15 Q11.8 -17.5 12.35 -15.65 L12.35 -15.7 Q12.65 -14.85 12.35 -13.95 L11.75 -12.1 Q11.5 -11.35 11.8 -10.75 L12.35 -10.25 Q13.5 -9.85 14.1 -9.15 L15.35 -7.15 15.65 -6.8 15.7 -6.8 Q16.2 -6.5 16.15 -5.5 L16.15 -5.45 16.15 -5.0 Q16.15 -4.15 15.7 -3.5 L15.75 -3.5 13.9 -1.1 Q12.95 -0.25 12.8 0.85 12.75 1.2 13.0 1.55 L13.4 2.2 Q13.8 3.05 13.25 3.7 L13.25 3.75 12.55 4.35 11.9 4.65 Q11.65 4.7 11.45 4.95 L11.25 5.0 11.1 4.95 11.0 4.75 11.1 4.6 Q11.35 4.3 11.75 4.2 L11.7 4.2 12.3 3.9 12.85 3.4 Q13.2 2.95 12.95 2.4 L12.6 1.85 Q12.25 1.3 12.3 0.8 12.45 -0.45 13.55 -1.45 L15.3 -3.75 15.3 -3.8 Q15.65 -4.35 15.65 -5.0 L15.65 -5.5 15.45 -6.35 14.9 -6.95 13.7 -8.85 12.2 -9.8 12.15 -9.8 Q11.55 -10.05 11.35 -10.55 11.0 -11.35 11.25 -12.25 L11.9 -14.1 11.9 -14.15 Q12.15 -14.85 11.9 -15.5 M1.75 2.5 Q1.75 1.25 2.55 0.35 3.35 -0.5 4.5 -0.5 5.65 -0.5 6.45 0.35 7.25 1.25 7.25 2.5 L1.75 2.5" fill="#ffffff" fill-rule="evenodd" stroke="none"/>
    <path d="M6.6 13.45 L3.8 13.45 Q3.45 12.65 3.45 11.65 L6.7 11.0 6.5 12.5 6.6 13.45 M-6.2 11.5 L-6.2 11.9 Q-6.2 12.9 -6.55 13.7 L-8.35 13.7 -8.25 12.5 -8.45 11.0 -6.2 11.5" fill="#4a494a" fill-rule="evenodd" stroke="none"/>
    <path d="M11.9 -15.5 Q12.15 -14.85 11.9 -14.15 L11.9 -14.1 11.25 -12.25 Q11.0 -11.35 11.35 -10.55 11.55 -10.05 12.15 -9.8 L12.2 -9.8 13.7 -8.85 14.9 -6.95 15.45 -6.35 15.65 -5.5 15.65 -5.0 Q15.65 -4.35 15.3 -3.8 L15.3 -3.75 13.55 -1.45 Q12.45 -0.45 12.3 0.8 12.25 1.3 12.6 1.85 L12.95 2.4 Q13.2 2.95 12.85 3.4 L12.3 3.9 11.7 4.2 11.75 4.2 Q11.35 4.3 11.1 4.6 L11.0 4.75 11.1 4.95 11.25 5.0 11.45 4.95 Q11.65 4.7 11.9 4.65 L12.55 4.35 13.25 3.75 13.25 3.7 Q13.8 3.05 13.4 2.2 L13.0 1.55 Q12.75 1.2 12.8 0.85 12.95 -0.25 13.9 -1.1 L15.75 -3.5 15.7 -3.5 Q16.15 -4.15 16.15 -5.0 L16.15 -5.45 16.15 -5.5 Q16.2 -6.5 15.7 -6.8 L15.65 -6.8 15.35 -7.15 14.1 -9.15 Q13.5 -9.85 12.35 -10.25 L11.8 -10.75 Q11.5 -11.35 11.75 -12.1 L12.35 -13.95 Q12.65 -14.85 12.35 -15.7 L12.35 -15.65 Q11.8 -17.5 9.7 -17.15 L8.25 -16.55 7.8 -16.3 Q6.75 -15.5 5.45 -15.15 L4.3 -14.45 Q3.95 -14.15 3.75 -13.55 L3.75 -13.5 3.7 -11.95 Q3.75 -10.95 3.1 -10.75 L2.45 -11.65 Q2.2 -11.95 2.1 -12.35 L2.1 -12.4 1.55 -13.3 0.55 -14.05 -0.45 -14.35 Q-2.15 -14.7 -3.1 -13.35 L-3.1 -13.3 Q-3.6 -12.6 -3.75 -11.75 -4.0 -10.25 -3.75 -8.7 L-3.65 -8.55 -3.45 -8.5 -3.3 -8.6 -3.25 -8.8 Q-3.5 -10.25 -3.25 -11.65 L-2.7 -13.05 Q-1.95 -14.1 -0.55 -13.85 L0.4 -13.6 0.35 -13.6 1.15 -13.0 1.65 -12.2 2.05 -11.35 2.8 -10.35 2.9 -10.25 3.05 -10.25 Q4.3 -10.35 4.2 -12.0 L4.25 -13.45 4.25 -13.4 4.65 -14.1 5.55 -14.65 5.6 -14.65 Q6.95 -15.0 8.1 -15.9 L8.45 -16.1 8.5 -16.1 9.8 -16.65 Q11.4 -16.9 11.85 -15.5 L11.9 -15.5 M11.4 -14.3 Q11.6 -14.85 11.4 -15.3 L11.4 -15.35 Q11.05 -16.35 9.9 -16.15 L8.75 -15.7 8.7 -15.65 8.4 -15.5 Q7.2 -14.55 5.7 -14.15 L5.0 -13.75 4.75 -13.3 4.7 -12.05 Q4.85 -9.85 3.1 -9.75 L2.7 -9.8 2.4 -10.05 1.7 -11.0 1.65 -11.05 Q1.35 -11.5 1.2 -12.0 L0.75 -12.7 0.15 -13.15 -0.65 -13.35 Q-1.7 -13.55 -2.25 -12.8 L-2.75 -11.55 Q-3.0 -10.25 -2.75 -8.85 -2.7 -8.55 -2.9 -8.3 L-3.35 -8.0 -3.9 -8.15 -4.25 -8.6 Q-4.5 -10.25 -4.25 -11.8 L-4.2 -11.85 Q-4.05 -12.8 -3.5 -13.6 -2.4 -15.2 -0.35 -14.8 L0.7 -14.55 0.75 -14.5 1.95 -13.6 2.55 -12.6 2.55 -12.5 2.85 -11.9 2.85 -11.95 3.2 -11.5 3.2 -11.95 3.25 -13.6 3.3 -13.7 Q3.5 -14.4 3.95 -14.8 4.5 -15.45 5.35 -15.6 L5.3 -15.6 Q6.5 -15.95 7.5 -16.7 L8.05 -17.0 7.95 -17.0 9.6 -17.6 9.65 -17.65 Q12.15 -18.05 12.85 -15.8 13.2 -14.85 12.8 -13.75 L12.8 -13.8 12.25 -12.0 Q12.05 -11.4 12.25 -10.95 L12.55 -10.75 12.5 -10.75 Q13.8 -10.25 14.5 -9.45 L15.8 -7.35 15.9 -7.25 15.95 -7.2 Q16.7 -6.85 16.65 -5.5 L16.65 -5.45 16.65 -5.0 Q16.65 -4.05 16.15 -3.25 L16.15 -3.2 14.25 -0.75 Q13.45 0.0 13.3 0.9 L13.45 1.3 13.85 2.0 Q14.4 3.1 13.65 4.05 L12.8 4.75 12.1 5.1 12.05 5.1 Q11.9 5.15 11.8 5.3 L11.25 5.5 Q10.95 5.5 10.75 5.3 L10.5 4.75 10.75 4.25 Q11.1 3.85 11.6 3.7 L11.5 3.7 12.05 3.45 12.5 3.05 12.5 3.1 12.5 2.65 12.2 2.15 Q11.7 1.45 11.8 0.75 L11.8 0.7 Q11.95 -0.7 13.2 -1.85 L13.2 -1.8 14.85 -4.0 14.9 -4.05 15.15 -5.0 15.15 -5.5 15.15 -5.55 15.15 -5.95 14.45 -6.7 14.4 -6.75 13.35 -8.5 Q12.9 -9.05 12.0 -9.35 11.2 -9.65 10.9 -10.3 L10.85 -10.35 Q10.45 -11.3 10.8 -12.4 L11.4 -14.3" fill="#a7a7a7" fill-rule="evenodd" stroke="none"/>
    <path d="M-12.05 5.45 L-12.8 4.1 Q-9.8 -2.55 -4.8 -7.2 -3.3 -7.15 -2.0 -6.5 -7.05 -1.95 -10.25 4.25 -11.05 4.25 -11.65 4.85 L-12.05 5.45" fill="#606060" fill-rule="evenodd" stroke="none"/>
    <path d="M-12.8 4.1 Q-13.5 2.6 -13.5 0.8 -13.5 -2.55 -11.15 -4.9 -8.8 -7.25 -5.45 -7.25 L-4.8 -7.2 Q-9.8 -2.55 -12.8 4.1 M-2.0 -6.5 L-0.5 -5.55 -0.5 4.25 -10.25 4.25 Q-7.05 -1.95 -2.0 -6.5" fill="#000000" fill-rule="evenodd" stroke="none"/>
    <path d="M7.25 2.5 L7.5 2.5 7.5 4.25 8.0 4.25 Q8.8 4.25 9.4 4.85 10.0 5.45 10.0 6.25 L10.0 8.0 Q8.85 8.0 7.95 8.85 L7.5 9.3 Q6.95 10.05 6.7 11.0 L3.45 11.65 Q-1.4 12.3 -6.2 11.5 L-8.45 11.0 Q-8.7 10.05 -9.3 9.3 L-10.05 8.55 Q-10.8 8.0 -11.75 8.0 L-12.0 8.0 -12.25 8.05 -12.25 6.25 -12.05 5.45 -11.65 4.85 Q-11.05 4.25 -10.25 4.25 L-0.5 4.25 1.5 4.25 1.5 2.5 1.75 2.5 7.25 2.5 M7.5 4.25 L7.5 5.0 1.5 5.0 1.5 4.25 1.5 5.0 7.5 5.0 7.5 4.25" fill="#9c9a9c" fill-rule="evenodd" stroke="none"/>
    <path d="M10.0 8.0 Q11.45 8.0 12.45 9.3 13.5 10.65 13.5 12.5 13.5 13.75 13.05 14.75 L6.95 14.75 6.6 13.45 6.5 12.5 6.7 11.0 Q6.95 10.05 7.5 9.3 L7.95 8.85 Q8.85 8.0 10.0 8.0 M-8.35 13.7 L-8.7 14.75 -14.8 14.75 Q-15.25 13.75 -15.25 12.5 L-15.25 12.2 Q-15.15 10.55 -14.25 9.3 -13.4 8.25 -12.25 8.05 L-12.0 8.0 -11.75 8.0 Q-10.8 8.0 -10.05 8.55 L-9.3 9.3 Q-8.7 10.05 -8.45 11.0 L-8.25 12.5 -8.35 13.7" fill="#d6d3d6" fill-rule="evenodd" stroke="none"/>
    <path d="M1.75 2.5 Q1.75 1.25 2.55 0.35 3.35 -0.5 4.5 -0.5 5.65 -0.5 6.45 0.35 7.25 1.25 7.25 2.5 L7.5 2.5 7.5 4.25 8.0 4.25 Q8.8 4.25 9.4 4.85 10.0 5.45 10.0 6.25 L10.0 8.0 Q11.45 8.0 12.45 9.3 13.5 10.65 13.5 12.5 13.5 13.75 13.05 14.75 L6.95 14.75 6.6 13.45 3.8 13.45 Q3.45 12.65 3.45 11.65 -1.4 12.3 -6.2 11.5 L-6.2 11.9 Q-6.2 12.9 -6.55 13.7 L-8.35 13.7 -8.7 14.75 -14.8 14.75 Q-15.25 13.75 -15.25 12.5 L-15.25 12.2 Q-15.15 10.55 -14.25 9.3 -13.4 8.25 -12.25 8.05 L-12.25 6.25 -12.05 5.45 -12.8 4.1 Q-13.5 2.6 -13.5 0.8 -13.5 -2.55 -11.15 -4.9 -8.8 -7.25 -5.45 -7.25 L-4.8 -7.2 Q-3.3 -7.15 -2.0 -6.5 L-0.5 -5.55 -0.5 4.25 1.5 4.25 1.5 2.5 1.75 2.5 7.25 2.5 M1.5 4.25 L1.5 5.0 7.5 5.0 7.5 4.25 M10.0 8.0 Q8.85 8.0 7.95 8.85 L7.5 9.3 Q6.95 10.05 6.7 11.0 L6.5 12.5 6.6 13.45 M6.7 11.0 L3.45 11.65 M-8.45 11.0 Q-8.7 10.05 -9.3 9.3 L-10.05 8.55 Q-10.8 8.0 -11.75 8.0 L-12.0 8.0 -12.25 8.05 M-6.2 11.5 L-8.45 11.0 -8.25 12.5 -8.35 13.7 M-12.05 5.45 L-11.65 4.85 Q-11.05 4.25 -10.25 4.25 L-0.5 4.25" fill="none" stroke="#666666" stroke-linecap="round" stroke-linejoin="round" stroke-width="0.5"/>
  </g>
</svg>
