<?xml version="1.0" encoding="UTF-8" standalone="no"?>
<svg xmlns:xlink="http://www.w3.org/1999/xlink" height="8.4px" width="4.85px" xmlns="http://www.w3.org/2000/svg">
  <g transform="matrix(1.0, 0.0, 0.0, 1.0, 2.45, 4.2)">
    <path d="M0.0 -2.8 Q0.65 -2.85 1.15 -2.35 1.65 -1.85 1.65 -1.2 L1.65 1.15 Q1.65 1.8 1.15 2.3 0.65 2.8 0.0 2.8 -0.65 2.8 -1.15 2.3 -1.65 1.8 -1.6 1.15 L-1.6 -1.2 Q-1.65 -1.85 -1.15 -2.35 -0.65 -2.85 0.0 -2.8" fill="#ffffff" fill-rule="evenodd" stroke="none"/>
    <path d="M1.7 -3.5 Q2.4 -2.8 2.4 -1.8 L2.4 1.75 Q2.4 2.75 1.7 3.45 0.95 4.15 -0.05 4.2 -1.05 4.15 -1.75 3.45 -2.5 2.75 -2.45 1.75 L-2.45 -1.8 Q-2.5 -2.8 -1.75 -3.5 -1.05 -4.25 -0.05 -4.2 0.95 -4.25 1.7 -3.5 M0.0 -2.8 Q-0.65 -2.85 -1.15 -2.35 -1.65 -1.85 -1.6 -1.2 L-1.6 1.15 Q-1.65 1.8 -1.15 2.3 -0.65 2.8 0.0 2.8 0.65 2.8 1.15 2.3 1.65 1.8 1.65 1.15 L1.65 -1.2 Q1.65 -1.85 1.15 -2.35 0.65 -2.85 0.0 -2.8" fill="#ffffff" fill-opacity="0.4" fill-rule="evenodd" stroke="none"/>
  </g>
</svg>
