<?xml version="1.0" encoding="UTF-8" standalone="no"?>
<svg xmlns:xlink="http://www.w3.org/1999/xlink" height="48.6px" width="53.1px" xmlns="http://www.w3.org/2000/svg">
  <g transform="matrix(1.0, 0.0, 0.0, 1.0, 26.55, 45.45)">
    <path d="M18.7 -4.05 L16.65 -2.3 Q13.8 -0.05 10.5 1.3 L4.95 2.85 0.0 3.15 Q-11.0 3.15 -18.9 -4.05 L-21.65 -6.95 -21.9 -7.25 -22.5 -8.1 Q-23.85 -9.95 -24.75 -12.0 -26.55 -16.2 -26.55 -21.15 -26.55 -31.25 -18.9 -38.45 -11.0 -45.45 0.0 -45.45 11.05 -45.45 18.7 -38.45 26.55 -31.25 26.55 -21.15 26.55 -11.0 18.7 -4.05" fill="url(#gradient0)" fill-rule="evenodd" stroke="none"/>
  </g>
  <defs>
    <radialGradient cx="0" cy="0" gradientTransform="matrix(0.0343, 0.0, 0.0, 0.0343, 0.0, -21.15)" gradientUnits="userSpaceOnUse" id="gradient0" r="819.2" spreadMethod="pad">
      <stop offset="0.0" stop-color="#ffffff" stop-opacity="0.7137255"/>
      <stop offset="1.0" stop-color="#ffffff" stop-opacity="0.0"/>
    </radialGradient>
  </defs>
</svg>
