<?xml version="1.0" encoding="UTF-8" standalone="no"?>
<svg xmlns:xlink="http://www.w3.org/1999/xlink" height="22.75px" width="22.75px" xmlns="http://www.w3.org/2000/svg">
  <g transform="matrix(1.0, 0.0, 0.0, 1.0, 12.0, 11.5)">
    <path d="M1.25 -11.25 L1.25 -1.3 10.5 -1.3 10.5 1.2 1.25 1.2 1.25 11.0 -1.25 11.0 -1.25 1.2 -11.75 1.2 -11.75 -1.3 -1.25 -1.3 -1.25 -11.25 1.25 -11.25" fill="#666666" fill-rule="evenodd" stroke="none"/>
    <path d="M1.25 -11.25 L1.25 -1.3 10.5 -1.3 M10.5 1.2 L1.25 1.2 1.25 11.0 M-1.25 11.0 L-1.25 1.2 -11.75 1.2 M-11.75 -1.3 L-1.25 -1.3 -1.25 -11.25" fill="none" stroke="#000000" stroke-linecap="round" stroke-linejoin="round" stroke-width="0.5"/>
    <path d="M10.5 -1.3 L10.5 1.2 M1.25 11.0 L-1.25 11.0 M-11.75 1.2 L-11.75 -1.3 M-1.25 -11.25 L1.25 -11.25" fill="none" stroke="#000000" stroke-linecap="round" stroke-linejoin="round" stroke-width="0.5"/>
  </g>
</svg>
