<?xml version="1.0" encoding="UTF-8" standalone="no"?>
<svg xmlns:xlink="http://www.w3.org/1999/xlink" height="12.35px" width="16.05px" xmlns="http://www.w3.org/2000/svg">
  <g transform="matrix(1.0, 0.0, 0.0, 1.0, 8.05, 6.3)">
    <path d="M-2.25 3.0 L-2.25 -0.45 -1.95 -1.15 -1.25 -1.45 1.0 -1.45 1.7 -1.15 2.0 -0.45 2.0 3.0 2.0 5.05 1.7 5.75 1.0 6.05 -1.25 6.05 -1.95 5.75 -2.25 5.05 -2.25 3.0" fill="#9c9a9c" fill-rule="evenodd" stroke="none"/>
    <path d="M2.0 3.0 L2.0 -0.45 1.7 -1.15 1.0 -1.45 -1.25 -1.45 -1.95 -1.15 -2.25 -0.45 -2.25 3.0 -5.65 3.0 -7.8 0.85 -1.45 -5.5 Q-0.85 -6.1 -0.05 -6.05 0.8 -6.05 1.4 -5.45 L7.75 0.9 5.65 3.0 2.0 3.0" fill="#636563" fill-rule="evenodd" stroke="none"/>
    <path d="M7.75 0.9 L1.4 -5.45 Q0.8 -6.05 -0.05 -6.05 -0.85 -6.1 -1.45 -5.5 L-7.8 0.85" fill="none" stroke="#000000" stroke-linecap="round" stroke-linejoin="round" stroke-width="0.5"/>
  </g>
</svg>
