<?xml version="1.0" encoding="UTF-8" standalone="no"?>
<svg xmlns:xlink="http://www.w3.org/1999/xlink" height="5.3px" width="32.9px" xmlns="http://www.w3.org/2000/svg">
  <g transform="matrix(1.0, 0.0, 0.0, 1.0, 16.5, 2.6)">
    <path d="M8.9 1.95 L6.85 1.95 6.7 1.95 -7.6 1.95 -7.85 1.95 -9.3 1.95 -9.3 -1.85 8.9 -1.85 8.9 1.95" fill="#5b636f" fill-rule="evenodd" stroke="none"/>
    <path d="M15.5 -2.1 L10.0 -2.1 10.0 2.2 15.5 2.2 15.5 -2.1 M8.9 -1.85 L8.9 -2.6 16.4 -2.6 16.4 2.7 8.9 2.7 8.9 1.95 8.9 -1.85 M-9.3 1.95 L-9.3 2.7 -16.5 2.7 -16.5 -2.6 -9.3 -2.6 -9.3 -1.85 -9.3 1.95 M-10.35 -2.25 L-15.85 -2.25 -15.85 2.05 -10.35 2.05 -10.35 -2.25" fill="#353940" fill-rule="evenodd" stroke="none"/>
    <path d="M8.9 -1.85 L8.9 1.95 M-9.3 1.95 L-9.3 -1.85" fill="none" stroke="#000000" stroke-linecap="round" stroke-linejoin="round" stroke-width="0.5"/>
  </g>
</svg>
