<?xml version="1.0" encoding="UTF-8" standalone="no"?>
<svg xmlns:xlink="http://www.w3.org/1999/xlink" height="26.65px" width="37.5px" xmlns="http://www.w3.org/2000/svg">
  <g transform="matrix(1.0, 0.0, 0.0, 1.0, 19.0, 13.45)">
    <path d="M-19.0 4.2 L-19.0 -5.05 Q-15.35 -17.7 -3.5 -11.25 -6.6 -8.9 -7.25 -5.05 L-7.25 4.2 -19.0 4.2" fill="url(#gradient0)" fill-rule="evenodd" stroke="none"/>
    <path d="M-10.3 -2.3 L-10.3 2.0 -15.8 2.0 -15.8 -2.3 -10.3 -2.3" fill="#ffffff" fill-rule="evenodd" stroke="none"/>
    <path d="M18.5 -4.4 L18.5 4.8 Q14.85 17.45 3.0 11.05 6.1 8.7 6.75 4.8 L6.75 -4.4 18.5 -4.4" fill="url(#gradient1)" fill-rule="evenodd" stroke="none"/>
    <path d="M15.5 -2.1 L15.5 2.2 10.0 2.2 10.0 -2.1 15.5 -2.1" fill="#ffffff" fill-rule="evenodd" stroke="none"/>
  </g>
  <defs>
    <radialGradient cx="0" cy="0" gradientTransform="matrix(0.0186, 0.0, 0.0, 0.0186, -13.0, 0.45)" gradientUnits="userSpaceOnUse" id="gradient0" r="819.2" spreadMethod="pad">
      <stop offset="0.1803921568627451" stop-color="#2eb7f1"/>
      <stop offset="1.0" stop-color="#70cfef" stop-opacity="0.0"/>
    </radialGradient>
    <radialGradient cx="0" cy="0" gradientTransform="matrix(-0.0186, 0.0, 0.0, -0.0185, 12.5, -0.65)" gradientUnits="userSpaceOnUse" id="gradient1" r="819.2" spreadMethod="pad">
      <stop offset="0.1803921568627451" stop-color="#2eb7f1"/>
      <stop offset="1.0" stop-color="#70cfef" stop-opacity="0.0"/>
    </radialGradient>
  </defs>
</svg>
