<?xml version="1.0" encoding="UTF-8" standalone="no"?>
<svg xmlns:xlink="http://www.w3.org/1999/xlink" height="4.35px" width="15.2px" xmlns="http://www.w3.org/2000/svg">
  <g transform="matrix(1.0, 0.0, 0.0, 1.0, 7.5, 2.05)">
    <path d="M3.9 -1.4 Q3.3 -0.75 3.35 0.1 3.3 0.8 3.75 1.35 L-3.55 1.35 Q-3.2 0.8 -3.15 0.1 -3.15 -0.75 -3.75 -1.4 L3.9 -1.4" fill="#3e425b" fill-rule="evenodd" stroke="none"/>
    <path d="M3.9 -1.4 L3.95 -1.45 4.0 -1.5 4.05 -1.5 Q4.65 -2.1 5.5 -2.05 6.35 -2.1 7.0 -1.5 L7.05 -1.45 Q7.7 -0.8 7.7 0.1 7.65 0.85 7.25 1.45 L7.05 1.65 Q6.4 2.3 5.5 2.3 4.6 2.3 3.95 1.65 L3.8 1.4 3.8 1.45 3.75 1.35 Q3.3 0.8 3.35 0.1 3.3 -0.75 3.9 -1.4 M4.2 -1.3 L4.15 -1.25 Q3.6 -0.7 3.6 0.1 3.6 0.75 4.0 1.3 L4.15 1.45 Q4.7 2.0 5.5 2.05 6.3 2.0 6.85 1.45 L7.05 1.25 7.05 1.3 Q7.45 0.75 7.45 0.1 7.4 -0.7 6.85 -1.25 L6.8 -1.3 6.85 -1.3 Q6.25 -1.8 5.5 -1.8 4.75 -1.8 4.2 -1.3 M-3.55 1.35 L-3.6 1.45 -3.8 1.65 Q-4.45 2.3 -5.35 2.3 -6.25 2.3 -6.9 1.65 -7.55 1.0 -7.5 0.1 -7.55 -0.8 -6.9 -1.45 -6.25 -2.1 -5.35 -2.05 -4.5 -2.1 -3.85 -1.5 L-3.8 -1.45 -3.75 -1.4 Q-3.15 -0.75 -3.15 0.1 -3.2 0.8 -3.55 1.35 M-5.35 -1.8 Q-6.15 -1.8 -6.7 -1.25 -7.25 -0.7 -7.25 0.1 -7.25 0.9 -6.7 1.45 -6.15 2.0 -5.35 2.05 -4.55 2.0 -4.0 1.45 L-3.8 1.25 -3.8 1.3 Q-3.4 0.75 -3.4 0.1 -3.45 -0.7 -4.0 -1.25 L-4.05 -1.3 -4.0 -1.3 Q-4.6 -1.8 -5.35 -1.8" fill="#313842" fill-rule="evenodd" stroke="none"/>
  </g>
</svg>
