<?xml version="1.0" encoding="UTF-8" standalone="no"?>
<svg xmlns:xlink="http://www.w3.org/1999/xlink" height="105.4px" width="69.6px" xmlns="http://www.w3.org/2000/svg">
  <g transform="matrix(1.0, 0.0, 0.0, 1.0, 33.8, 33.7)">
    <path d="M-0.1 -33.7 Q13.9 -33.7 23.75 -23.75 33.6 -13.85 33.6 0.3 33.6 5.35 32.35 9.9 30.85 15.15 27.7 19.7 L23.75 24.3 23.5 24.6 35.25 56.55 Q36.9 64.85 33.65 68.25 30.45 71.7 25.9 71.7 L-23.5 71.7 Q-28.1 71.7 -31.3 68.25 -34.5 64.85 -32.85 55.4 L-23.0 25.2 -23.95 24.3 Q-33.8 14.35 -33.8 0.3 -33.8 -13.85 -23.95 -23.75 -14.1 -33.7 -0.1 -33.7" fill="url(#gradient0)" fill-rule="evenodd" stroke="none"/>
  </g>
  <defs>
    <radialGradient cx="0" cy="0" gradientTransform="matrix(0.058, 0.0, 0.0, 0.1006, 1.0, 24.65)" gradientUnits="userSpaceOnUse" id="gradient0" r="819.2" spreadMethod="pad">
      <stop offset="0.5098039215686274" stop-color="#000000" stop-opacity="0.8"/>
      <stop offset="1.0" stop-color="#000000" stop-opacity="0.2"/>
    </radialGradient>
  </defs>
</svg>
