<?xml version="1.0" encoding="UTF-8" standalone="no"?>
<svg xmlns:xlink="http://www.w3.org/1999/xlink" height="13.45px" width="18.45px" xmlns="http://www.w3.org/2000/svg">
  <g transform="matrix(1.0, 0.0, 0.0, 1.0, 9.25, 6.7)">
    <path d="M-2.8 -2.75 L-2.7 -2.65 Q-1.55 -1.55 -1.55 0.05 -1.55 1.35 -2.3 2.4 -2.45 3.7 -1.1 5.6 0.25 7.5 -3.15 6.2 -6.6 4.85 -7.9 3.25 -9.25 1.6 -9.25 0.05 -9.25 -1.55 -8.1 -2.65 -7.0 -3.8 -5.4 -3.8 -3.9 -3.8 -2.75 -2.75 L-2.8 -2.75" fill="url(#gradient0)" fill-rule="evenodd" stroke="none"/>
    <path d="M-4.0 -1.25 Q-3.45 -0.7 -3.4 0.1 -3.4 0.75 -3.8 1.3 L-3.8 1.25 -4.0 1.45 Q-4.55 2.0 -5.35 2.05 -6.15 2.0 -6.7 1.45 -7.25 0.9 -7.25 0.1 -7.25 -0.7 -6.7 -1.25 -6.15 -1.8 -5.35 -1.8 -4.6 -1.8 -4.0 -1.3 L-4.05 -1.3 -4.0 -1.25" fill="#ffffff" fill-rule="evenodd" stroke="none"/>
    <path d="M2.25 -2.4 Q2.4 -3.7 1.1 -5.6 -0.3 -7.5 3.15 -6.15 6.55 -4.85 7.85 -3.2 9.2 -1.6 9.2 -0.05 9.2 1.55 8.05 2.65 6.95 3.8 5.35 3.8 3.85 3.8 2.7 2.75 L2.75 2.75 2.65 2.65 Q1.5 1.55 1.5 -0.05 1.5 -1.35 2.25 -2.4" fill="url(#gradient1)" fill-rule="evenodd" stroke="none"/>
    <path d="M6.8 -1.3 L6.85 -1.25 Q7.4 -0.7 7.45 0.1 7.45 0.75 7.05 1.3 L7.05 1.25 6.85 1.45 Q6.3 2.0 5.5 2.05 4.7 2.0 4.15 1.45 L4.0 1.3 Q3.6 0.75 3.6 0.1 3.6 -0.7 4.15 -1.25 L4.2 -1.3 Q4.75 -1.8 5.5 -1.8 6.25 -1.8 6.85 -1.3 L6.8 -1.3" fill="#ffffff" fill-rule="evenodd" stroke="none"/>
  </g>
  <defs>
    <radialGradient cx="0" cy="0" gradientTransform="matrix(0.0101, 0.0, 0.0, 0.0101, -5.5, -0.15)" gradientUnits="userSpaceOnUse" id="gradient0" r="819.2" spreadMethod="pad">
      <stop offset="0.1803921568627451" stop-color="#2eb7f1"/>
      <stop offset="1.0" stop-color="#70cfef" stop-opacity="0.0"/>
    </radialGradient>
    <radialGradient cx="0" cy="0" gradientTransform="matrix(0.01, 0.0, 0.0, 0.01, 5.4, 0.0)" gradientUnits="userSpaceOnUse" id="gradient1" r="819.2" spreadMethod="pad">
      <stop offset="0.1803921568627451" stop-color="#2eb7f1"/>
      <stop offset="1.0" stop-color="#70cfef" stop-opacity="0.0"/>
    </radialGradient>
  </defs>
</svg>
