<?xml version="1.0" encoding="UTF-8" standalone="no"?>
<svg xmlns:xlink="http://www.w3.org/1999/xlink" height="30.6px" width="35.85px" xmlns="http://www.w3.org/2000/svg">
  <g transform="matrix(1.0, 0.0, 0.0, 1.0, 18.15, 18.85)">
    <path d="M4.5 -17.4 Q3.65 -17.65 3.15 -17.1 L2.55 -16.45 2.55 -16.5 1.5 -15.5 Q-0.3 -14.1 -2.8 -14.5 L-2.9 -14.55 -3.0 -14.65 -3.0 -14.8 Q-2.8 -15.6 -1.95 -16.05 L-3.0 -16.9 -4.0 -17.65 -4.05 -17.65 -5.15 -17.6 -5.7 -16.7 Q-6.05 -14.25 -6.0 -11.75 L-6.05 -11.6 -6.2 -11.5 -6.35 -11.5 -7.35 -11.9 -8.75 -12.1 -9.95 -11.75 -9.95 -11.8 -10.6 -11.15 Q-10.85 -10.75 -11.25 -10.7 -12.55 -10.4 -12.7 -8.7 L-12.65 -8.4 -12.6 -8.35 Q-12.35 -8.1 -11.95 -8.05 -10.9 -7.9 -10.45 -7.35 -10.0 -6.8 -10.25 -5.9 L-11.0 -3.65 -11.15 -3.5 -11.35 -3.5 -11.45 -3.65 -11.45 -3.85 -10.75 -6.05 Q-10.6 -6.7 -10.85 -7.05 -11.2 -7.4 -12.0 -7.55 L-12.05 -7.55 Q-12.65 -7.6 -13.0 -8.0 L-12.95 -8.0 Q-13.25 -8.2 -13.2 -8.75 -13.05 -10.9 -11.35 -11.2 -11.15 -11.25 -11.0 -11.45 L-10.2 -12.2 Q-9.55 -12.6 -8.75 -12.6 L-7.2 -12.4 -6.5 -12.15 -6.2 -16.75 Q-6.15 -17.5 -5.45 -18.0 L-3.75 -18.05 -2.7 -17.3 -1.3 -16.15 -1.25 -16.0 -1.25 -15.85 -1.4 -15.75 -2.4 -14.95 Q-0.3 -14.7 1.2 -15.9 L2.15 -16.8 2.8 -17.45 Q3.45 -18.25 4.65 -17.9 5.3 -17.7 5.65 -17.35 L6.6 -15.9 6.7 -15.25 6.35 -14.0 Q7.45 -13.0 8.75 -12.65 L9.85 -11.8 9.85 -11.75 10.55 -10.6 10.55 -10.45 10.0 -9.25 10.0 -9.3 Q9.65 -8.8 9.8 -8.05 L9.95 -7.8 Q10.95 -7.1 10.35 -5.6 L10.3 -5.3 10.5 -5.25 10.75 -5.25 10.95 -5.15 11.0 -5.0 10.95 -4.8 10.75 -4.75 10.5 -4.75 Q9.95 -4.75 9.85 -5.05 9.65 -5.3 9.9 -5.8 10.35 -6.9 9.65 -7.4 L9.35 -7.9 9.3 -7.95 Q9.05 -8.9 9.6 -9.6 L10.05 -10.45 9.45 -11.5 Q9.1 -12.0 8.6 -12.15 7.1 -12.55 5.9 -13.75 L5.8 -13.9 5.85 -14.05 6.2 -15.3 6.2 -15.35 6.15 -15.7 5.3 -17.0 4.5 -17.4 M0.8 -10.9 L0.8 -10.95 0.5 -11.05 -0.5 -11.15 -1.35 -10.65 Q-2.1 -9.65 -1.5 -8.6 L-1.55 -8.6 Q-1.25 -8.15 -1.25 -7.75 -1.25 -6.65 -1.8 -5.6 L-1.8 -5.65 Q-2.05 -5.15 -2.35 -5.2 -2.65 -5.15 -2.95 -5.6 L-3.0 -5.8 -2.9 -5.95 -2.7 -6.0 -2.55 -5.9 -2.35 -5.7 -2.25 -5.85 Q-1.75 -6.75 -1.75 -7.75 L-1.95 -8.35 Q-2.7 -9.65 -1.75 -10.95 -1.2 -11.65 -0.5 -11.65 L-0.45 -11.65 0.55 -11.55 Q1.05 -11.5 1.2 -11.2 1.55 -10.8 1.35 -10.2 L1.35 -10.25 0.9 -9.35 0.85 -9.35 0.7 -9.15 0.9 -8.9 1.4 -8.35 1.45 -8.25 1.75 -7.7 1.85 -7.7 2.05 -7.75 2.2 -7.65 2.25 -7.45 2.15 -7.3 Q1.75 -7.0 1.4 -7.3 L1.0 -8.05 0.6 -8.5 Q0.2 -8.8 0.25 -9.1 0.2 -9.45 0.55 -9.7 L0.55 -9.75 0.85 -10.35 0.9 -10.35 0.8 -10.9" fill="#ffffff" fill-rule="evenodd" stroke="none"/>
    <path d="M4.5 -17.4 L5.3 -17.0 6.15 -15.7 6.2 -15.35 6.2 -15.3 5.85 -14.05 5.8 -13.9 5.9 -13.75 Q7.1 -12.55 8.6 -12.15 9.1 -12.0 9.45 -11.5 L10.05 -10.45 9.6 -9.6 Q9.05 -8.9 9.3 -7.95 L9.35 -7.9 9.65 -7.4 Q10.35 -6.9 9.9 -5.8 9.65 -5.3 9.85 -5.05 9.95 -4.75 10.5 -4.75 L10.75 -4.75 10.95 -4.8 11.0 -5.0 10.95 -5.15 10.75 -5.25 10.5 -5.25 10.3 -5.3 10.35 -5.6 Q10.95 -7.1 9.95 -7.8 L9.8 -8.05 Q9.65 -8.8 10.0 -9.3 L10.0 -9.25 10.55 -10.45 10.55 -10.6 9.85 -11.75 9.85 -11.8 8.75 -12.65 Q7.45 -13.0 6.35 -14.0 L6.7 -15.25 6.6 -15.9 5.65 -17.35 Q5.3 -17.7 4.65 -17.9 3.45 -18.25 2.8 -17.45 L2.15 -16.8 1.2 -15.9 Q-0.3 -14.7 -2.4 -14.95 L-1.4 -15.75 -1.25 -15.85 -1.25 -16.0 -1.3 -16.15 -2.7 -17.3 -3.75 -18.05 -5.45 -18.0 Q-6.15 -17.5 -6.2 -16.75 L-6.5 -12.15 -7.2 -12.4 -8.75 -12.6 Q-9.55 -12.6 -10.2 -12.2 L-11.0 -11.45 Q-11.15 -11.25 -11.35 -11.2 -13.05 -10.9 -13.2 -8.75 -13.25 -8.2 -12.95 -8.0 L-13.0 -8.0 Q-12.65 -7.6 -12.05 -7.55 L-12.0 -7.55 Q-11.2 -7.4 -10.85 -7.05 -10.6 -6.7 -10.75 -6.05 L-11.45 -3.85 -11.45 -3.65 -11.35 -3.5 -11.15 -3.5 -11.0 -3.65 -10.25 -5.9 Q-10.0 -6.8 -10.45 -7.35 -10.9 -7.9 -11.95 -8.05 -12.35 -8.1 -12.6 -8.35 L-12.65 -8.4 -12.7 -8.7 Q-12.55 -10.4 -11.25 -10.7 -10.85 -10.75 -10.6 -11.15 L-9.95 -11.8 -9.95 -11.75 -8.75 -12.1 -7.35 -11.9 -6.35 -11.5 -6.2 -11.5 -6.05 -11.6 -6.0 -11.75 Q-6.05 -14.25 -5.7 -16.7 L-5.15 -17.6 -4.05 -17.65 -4.0 -17.65 -3.0 -16.9 -1.95 -16.05 Q-2.8 -15.6 -3.0 -14.8 L-3.0 -14.65 -2.9 -14.55 -2.8 -14.5 Q-0.3 -14.1 1.5 -15.5 L2.55 -16.5 2.55 -16.45 3.15 -17.1 Q3.65 -17.65 4.5 -17.4 M-11.9 -3.4 L-11.9 -3.45 -11.95 -4.0 -11.2 -6.2 Q-11.15 -6.55 -11.25 -6.7 -11.5 -6.95 -12.1 -7.05 -12.85 -7.15 -13.3 -7.65 -13.8 -8.0 -13.7 -8.8 L-13.7 -8.85 Q-13.5 -11.35 -11.45 -11.65 L-11.4 -11.7 -10.5 -12.6 -10.45 -12.65 Q-9.7 -13.1 -8.75 -13.1 L-7.1 -12.85 -7.0 -12.85 -6.7 -16.85 Q-6.65 -17.7 -5.75 -18.35 L-5.75 -18.4 -3.45 -18.45 -3.5 -18.45 -2.35 -17.65 -2.4 -17.7 -0.95 -16.5 -0.75 -16.1 -0.85 -15.6 -0.95 -15.45 Q0.05 -15.65 0.9 -16.25 L0.9 -16.3 1.8 -17.1 1.8 -17.15 2.4 -17.8 2.45 -17.8 Q3.3 -18.8 4.8 -18.35 L4.75 -18.35 Q5.55 -18.15 6.0 -17.7 L7.05 -16.1 7.2 -15.15 6.95 -14.15 Q7.85 -13.4 8.85 -13.1 9.7 -12.9 10.3 -12.05 L11.0 -10.8 11.05 -10.3 10.4 -8.95 10.4 -9.0 Q10.2 -8.7 10.3 -8.2 L10.3 -8.15 Q11.5 -7.35 10.95 -5.7 L11.3 -5.5 11.5 -5.0 11.3 -4.45 10.75 -4.25 10.5 -4.25 Q9.6 -4.25 9.4 -4.8 9.05 -5.2 9.4 -6.0 9.7 -6.65 9.4 -6.95 L9.3 -7.05 Q9.0 -7.3 8.85 -7.7 L8.85 -7.8 Q8.55 -9.05 9.2 -9.9 L9.25 -9.95 9.5 -10.4 9.05 -11.25 9.05 -11.2 8.5 -11.65 8.45 -11.65 Q6.85 -12.1 5.55 -13.4 L5.3 -13.8 5.4 -14.3 5.7 -15.35 5.75 -15.45 5.7 -15.45 5.7 -15.5 4.95 -16.65 4.9 -16.7 4.4 -16.9 4.35 -16.9 3.5 -16.8 3.5 -16.75 2.95 -16.15 1.85 -15.1 1.8 -15.1 Q-0.15 -13.55 -2.85 -14.0 L-3.25 -14.15 -3.45 -14.5 -3.45 -14.9 Q-3.35 -15.65 -2.75 -16.1 L-3.25 -16.45 -3.3 -16.5 -4.3 -17.2 Q-4.6 -17.4 -4.8 -17.2 L-4.85 -17.2 -5.2 -16.7 -5.2 -16.65 Q-5.55 -14.2 -5.5 -11.75 -5.5 -11.5 -5.65 -11.3 L-6.05 -11.0 -6.55 -11.05 -7.5 -11.4 -8.75 -11.6 -9.7 -11.35 -10.15 -10.85 Q-10.55 -10.3 -11.15 -10.2 -12.1 -10.0 -12.2 -8.7 L-12.2 -8.65 -11.9 -8.55 -11.85 -8.55 Q-10.6 -8.35 -10.1 -7.65 -9.45 -7.0 -9.75 -5.8 L-10.55 -3.45 -10.7 -3.25 -10.9 -3.35 -11.05 -3.25 -11.15 -3.1 -11.15 -3.0 -11.45 -3.0 -11.45 -3.15 -11.5 -3.3 -11.7 -3.4 -11.9 -3.4 M0.6 -12.05 Q1.45 -11.95 1.65 -11.4 2.05 -10.9 1.8 -10.05 L1.85 -10.1 Q1.7 -9.55 1.35 -9.15 L1.85 -8.6 1.9 -8.4 2.0 -8.25 2.1 -8.25 2.6 -7.95 2.75 -7.4 2.45 -6.9 Q1.7 -6.35 1.1 -6.9 L0.55 -7.8 0.3 -8.1 Q-0.3 -8.6 -0.25 -9.1 -0.35 -9.6 0.2 -10.05 L0.25 -10.1 0.4 -10.45 0.4 -10.5 0.45 -10.55 0.4 -10.55 -0.5 -10.65 -0.95 -10.35 Q-1.5 -9.6 -1.1 -8.85 L-1.1 -8.9 Q-0.75 -8.3 -0.75 -7.75 -0.75 -6.55 -1.35 -5.4 L-1.4 -5.35 Q-1.8 -4.6 -2.35 -4.7 -2.9 -4.6 -3.35 -5.3 L-3.45 -5.9 -3.15 -6.35 -2.6 -6.45 -2.5 -6.45 -2.25 -7.75 -2.35 -8.1 -2.4 -8.1 Q-3.3 -9.7 -2.15 -11.25 -1.45 -12.2 -0.5 -12.15 L-0.4 -12.15 0.6 -12.05 M0.8 -10.9 L0.9 -10.35 0.85 -10.35 0.55 -9.75 0.55 -9.7 Q0.2 -9.45 0.25 -9.1 0.2 -8.8 0.6 -8.5 L1.0 -8.05 1.4 -7.3 Q1.75 -7.0 2.15 -7.3 L2.25 -7.45 2.2 -7.65 2.05 -7.75 1.85 -7.7 1.75 -7.7 1.45 -8.25 1.4 -8.35 0.9 -8.9 0.7 -9.15 0.85 -9.35 0.9 -9.35 1.35 -10.25 1.35 -10.2 Q1.55 -10.8 1.2 -11.2 1.05 -11.5 0.55 -11.55 L-0.45 -11.65 -0.5 -11.65 Q-1.2 -11.65 -1.75 -10.95 -2.7 -9.65 -1.95 -8.35 L-1.75 -7.75 Q-1.75 -6.75 -2.25 -5.85 L-2.35 -5.7 -2.55 -5.9 -2.7 -6.0 -2.9 -5.95 -3.0 -5.8 -2.95 -5.6 Q-2.65 -5.15 -2.35 -5.2 -2.05 -5.15 -1.8 -5.65 L-1.8 -5.6 Q-1.25 -6.65 -1.25 -7.75 -1.25 -8.15 -1.55 -8.6 L-1.5 -8.6 Q-2.1 -9.65 -1.35 -10.65 L-0.5 -11.15 0.5 -11.05 0.8 -10.95 0.8 -10.9" fill="#0033cc" fill-rule="evenodd" stroke="none"/>
    <path d="M-11.9 -3.4 L-11.7 -3.4 -11.5 -3.3 -11.45 -3.15 -11.45 -3.0 -11.5 -2.95 -11.7 -2.9 -11.95 -2.9 -11.95 3.25 Q-11.95 3.8 -11.45 4.3 L-11.4 4.35 -10.5 4.7 -3.8 4.7 -3.65 4.75 -3.5 4.7 -3.35 4.75 -3.25 4.7 10.05 4.7 10.95 4.4 Q10.95 4.25 11.1 4.25 L11.5 3.25 11.5 -2.9 10.7 -2.9 Q10.55 -1.85 9.75 -1.05 L9.2 -0.6 9.2 1.75 9.15 1.95 8.95 2.0 -9.4 2.0 -9.55 1.95 -9.65 1.75 -9.65 -0.6 -10.15 -1.05 -10.2 -1.1 Q-11.05 -1.95 -11.15 -3.0 L-11.15 -3.1 -11.05 -3.25 -10.9 -3.35 -10.7 -3.25 -10.65 -3.1 Q-10.6 -2.15 -9.8 -1.4 L-9.25 -0.95 -9.15 -0.85 -9.15 -0.75 -9.15 1.5 -2.2 1.5 -2.2 1.05 -5.1 1.05 -5.9 0.8 -5.95 0.75 -6.35 -0.15 -6.35 -2.5 -6.9 -2.85 Q-7.4 -3.35 -7.35 -3.9 L-7.35 -3.95 Q-7.4 -4.6 -6.9 -5.05 L-6.4 -5.4 -6.35 -5.4 -4.5 -5.65 -4.4 -5.6 -4.3 -5.5 -4.25 -5.4 -4.25 -3.7 -4.25 -3.55 -4.25 -1.25 3.25 -1.2 3.25 -5.35 3.3 -5.45 3.4 -5.55 3.55 -5.6 4.65 -5.45 4.75 -5.45 5.45 -5.3 5.9 -5.0 5.95 -4.95 Q6.3 -4.55 6.3 -3.9 6.3 -3.35 5.95 -2.9 L5.85 -2.8 5.3 -2.45 5.3 -0.1 5.0 0.7 4.9 0.8 4.15 1.1 1.3 1.1 1.3 1.5 8.7 1.5 8.7 -0.75 8.75 -0.85 8.8 -0.95 9.4 -1.4 Q10.15 -2.15 10.2 -3.15 L10.3 -3.3 10.45 -3.4 11.75 -3.4 11.95 -3.3 12.0 -3.15 12.0 3.3 11.4 4.65 11.35 4.7 Q10.75 5.2 10.05 5.2 L3.3 5.2 3.45 6.0 3.45 6.85 3.2 7.8 4.75 8.25 Q5.0 7.6 5.75 7.05 L5.8 7.0 6.1 6.75 6.15 6.75 6.8 6.4 6.9 6.35 8.6 6.3 8.65 6.3 9.2 6.3 Q11.5 6.35 13.35 7.0 L13.3 6.95 13.7 7.05 13.75 7.1 14.8 7.55 15.6 7.95 15.9 8.15 Q16.85 8.8 17.15 9.55 L17.55 9.95 17.7 10.45 17.35 10.85 17.2 10.9 17.15 10.9 15.55 11.3 9.8 11.75 8.0 11.7 7.8 11.7 7.75 11.7 Q6.7 11.5 6.45 11.15 L5.8 10.45 5.65 10.95 5.6 11.1 5.5 11.15 5.35 11.15 0.8 9.85 0.65 9.75 0.6 9.55 0.8 8.85 -1.45 8.85 -1.25 9.55 -1.25 9.75 -1.4 9.85 -5.95 11.15 -6.15 11.15 -6.25 11.0 -6.4 10.45 -6.8 10.85 -6.95 10.95 -7.0 11.0 Q-7.3 11.35 -8.35 11.6 L-8.4 11.6 -8.55 11.6 -10.3 11.65 -10.4 11.65 -10.55 11.65 -16.1 11.2 -16.2 11.2 -16.35 11.2 -17.75 10.85 -17.85 10.8 -17.9 10.75 -18.15 10.2 Q-18.2 9.95 -17.85 9.7 L-17.8 9.65 -17.75 9.55 Q-17.45 8.75 -16.5 8.05 L-16.15 7.85 -16.1 7.85 Q-15.8 7.6 -15.4 7.45 -14.9 7.15 -14.3 7.0 L-14.3 6.95 -13.9 6.85 -9.75 6.2 -9.2 6.2 -7.45 6.3 -7.35 6.3 -6.65 6.65 -6.35 6.9 -6.3 6.95 Q-5.6 7.45 -5.3 8.2 L-5.25 8.15 -3.85 7.8 -4.1 6.85 -4.1 6.25 -4.05 6.15 -4.1 6.05 -3.95 5.2 -10.5 5.2 Q-11.25 5.2 -11.75 4.7 L-11.8 4.65 Q-12.45 4.0 -12.45 3.25 L-12.45 -3.15 -12.35 -3.3 -12.2 -3.4 -11.9 -3.4 M4.85 -4.95 L4.8 -4.95 4.6 -4.95 4.55 -4.95 3.75 -5.05 3.75 -3.6 4.05 -3.15 4.05 -3.2 Q4.35 -2.9 4.8 -2.9 L5.0 -2.9 5.55 -3.15 5.6 -3.2 5.8 -3.9 5.55 -4.6 5.6 -4.6 5.55 -4.65 5.25 -4.85 5.2 -4.85 4.85 -4.95 M3.75 -2.75 L3.75 -0.95 3.7 -0.75 3.5 -0.7 -4.5 -0.75 -4.65 -0.8 -4.75 -1.0 -4.75 -2.8 Q-5.2 -2.45 -5.75 -2.4 L-5.85 -2.4 -5.85 -0.15 -5.65 0.35 -5.5 0.45 -5.1 0.55 4.15 0.6 4.6 0.45 4.65 0.4 4.8 -0.1 4.8 -2.4 Q4.2 -2.4 3.75 -2.75 M-6.85 -3.9 Q-6.9 -3.55 -6.6 -3.25 L-6.55 -3.2 -6.0 -2.95 -5.95 -2.9 -5.8 -2.9 Q-5.35 -2.95 -5.0 -3.25 L-5.0 -3.2 -4.75 -3.7 -4.75 -5.1 -6.3 -4.9 -6.55 -4.7 Q-6.9 -4.4 -6.85 -3.95 L-6.85 -3.9 M-3.6 6.0 L-3.6 6.15 -3.6 6.25 -3.6 6.9 -3.35 7.65 -2.15 7.3 -1.95 7.35 -1.85 7.5 -1.6 8.35 0.95 8.35 1.2 7.5 1.35 7.35 1.55 7.3 2.7 7.65 2.95 6.85 2.95 6.0 2.7 5.2 -3.25 5.2 -3.35 5.2 Q-3.65 5.5 -3.6 6.0 M-1.7 1.05 L-1.7 1.5 0.8 1.5 0.8 1.1 -1.7 1.05 M-6.95 7.05 L-7.5 6.8 -9.2 6.7 -9.75 6.7 Q-11.95 6.75 -13.75 7.35 L-13.8 7.35 -14.2 7.45 -14.15 7.45 -15.2 7.9 -15.85 8.25 -15.9 8.3 -16.2 8.45 Q-17.05 9.05 -17.3 9.75 L-17.45 9.9 -17.5 10.05 -17.7 10.25 -17.6 10.35 -17.55 10.4 -17.5 10.4 -16.3 10.7 -16.25 10.75 -16.05 10.7 -10.5 11.15 -10.4 11.2 -10.25 11.15 -8.65 11.1 -8.6 11.1 -8.45 11.1 -7.4 10.7 -7.2 10.6 -7.2 10.55 -6.7 10.0 -6.6 9.95 -6.5 9.8 -5.55 8.75 -5.7 8.6 Q-5.95 7.85 -6.65 7.3 L-6.95 7.05 M-5.25 8.7 L-5.15 8.75 -5.1 8.9 -5.15 9.1 -6.1 10.05 -6.0 10.2 -5.9 10.6 -1.8 9.45 -2.25 7.9 -3.35 8.2 -3.4 8.2 -5.15 8.65 -5.2 8.65 -5.25 8.7 M-9.5 7.05 L-9.4 6.9 -9.2 6.85 Q-9.1 6.85 -9.05 6.95 -8.2 8.1 -8.3 10.3 L-8.35 10.5 -8.55 10.55 -8.7 10.5 -8.8 10.3 Q-8.7 8.3 -9.45 7.25 L-9.5 7.05 M-8.6 6.95 L-8.45 6.85 -8.25 6.95 Q-7.0 8.15 -7.1 10.15 L-7.15 10.3 -7.35 10.35 -7.5 10.3 -7.6 10.1 Q-7.5 8.35 -8.6 7.3 L-8.7 7.1 -8.6 6.95 M14.6 8.0 L13.6 7.55 13.2 7.45 Q11.4 6.85 9.2 6.8 L8.65 6.8 8.6 6.8 6.95 6.85 6.4 7.15 6.35 7.2 6.15 7.35 6.1 7.4 Q5.35 7.95 5.15 8.6 L5.15 8.65 5.1 8.75 5.05 8.85 5.05 8.9 6.8 10.8 7.85 11.2 8.0 11.2 8.05 11.2 9.75 11.25 15.5 10.8 16.95 10.45 17.15 10.4 17.2 10.3 16.8 9.9 16.75 9.8 Q16.45 9.1 15.6 8.55 L15.3 8.35 Q14.95 8.1 14.6 8.0 M4.65 9.2 L4.6 9.1 4.55 8.75 1.65 7.9 1.2 9.45 5.25 10.6 5.4 10.0 4.65 9.2 M8.65 6.95 L8.8 7.0 8.9 7.2 8.85 7.35 Q8.05 8.4 8.25 10.4 L8.2 10.55 8.05 10.65 7.85 10.6 7.75 10.45 Q7.55 8.2 8.45 7.05 L8.65 6.95 M8.05 7.05 L8.1 7.2 8.05 7.4 Q6.9 8.4 7.05 10.15 L7.0 10.3 6.85 10.4 6.65 10.35 6.55 10.2 Q6.4 8.2 7.7 7.05 7.75 6.95 7.85 6.95 L8.05 7.05" fill="#000000" fill-rule="evenodd" stroke="none"/>
    <path d="M4.85 -4.95 L5.2 -4.85 5.25 -4.85 5.55 -4.65 5.6 -4.6 5.55 -4.6 5.8 -3.9 5.6 -3.2 5.55 -3.15 5.0 -2.9 4.8 -2.9 Q4.35 -2.9 4.05 -3.2 L4.05 -3.15 3.75 -3.6 3.75 -5.05 4.55 -4.95 4.6 -4.95 4.8 -4.95 4.85 -4.95" fill="url(#gradient0)" fill-rule="evenodd" stroke="none"/>
    <path d="M3.75 -2.75 Q4.2 -2.4 4.8 -2.4 L4.8 -0.1 4.65 0.4 4.6 0.45 4.15 0.6 -5.1 0.55 -5.5 0.45 -5.65 0.35 -5.85 -0.15 -5.85 -2.4 -5.75 -2.4 Q-5.2 -2.45 -4.75 -2.8 L-4.75 -1.0 -4.65 -0.8 -4.5 -0.75 3.5 -0.7 3.7 -0.75 3.75 -0.95 3.75 -2.75" fill="url(#gradient1)" fill-rule="evenodd" stroke="none"/>
    <path d="M-11.45 -3.0 L-11.15 -3.0 Q-11.05 -1.95 -10.2 -1.1 L-10.15 -1.05 -9.65 -0.6 -9.65 1.75 -9.55 1.95 -9.4 2.0 8.95 2.0 9.15 1.95 9.2 1.75 9.2 -0.6 9.75 -1.05 Q10.55 -1.85 10.7 -2.9 L11.5 -2.9 11.5 3.25 11.1 4.25 Q10.95 4.25 10.95 4.4 L10.05 4.7 -3.25 4.7 -3.35 4.75 -3.5 4.7 -3.65 4.75 -3.8 4.7 -10.5 4.7 -11.4 4.35 -11.45 4.3 Q-11.95 3.8 -11.95 3.25 L-11.95 -2.9 -11.7 -2.9 -11.5 -2.95 -11.45 -3.0" fill="url(#gradient2)" fill-rule="evenodd" stroke="none"/>
    <path d="M14.6 8.0 Q14.95 8.1 15.3 8.35 L15.6 8.55 Q16.45 9.1 16.75 9.8 L16.8 9.9 17.2 10.3 17.15 10.4 16.95 10.45 15.5 10.8 9.75 11.25 8.05 11.2 8.0 11.2 7.85 11.2 6.8 10.8 5.05 8.9 5.05 8.85 5.1 8.75 5.15 8.65 5.15 8.6 Q5.35 7.95 6.1 7.4 L6.15 7.35 6.35 7.2 6.4 7.15 6.95 6.85 8.6 6.8 8.65 6.8 9.2 6.8 Q11.4 6.85 13.2 7.45 L13.6 7.55 14.6 8.0 M8.05 7.05 L7.85 6.95 Q7.75 6.95 7.7 7.05 6.4 8.2 6.55 10.2 L6.65 10.35 6.85 10.4 7.0 10.3 7.05 10.15 Q6.9 8.4 8.05 7.4 L8.1 7.2 8.05 7.05 M8.65 6.95 L8.45 7.05 Q7.55 8.2 7.75 10.45 L7.85 10.6 8.05 10.65 8.2 10.55 8.25 10.4 Q8.05 8.4 8.85 7.35 L8.9 7.2 8.8 7.0 8.65 6.95" fill="url(#gradient3)" fill-rule="evenodd" stroke="none"/>
    <path d="M-1.7 1.05 L0.8 1.1 0.8 1.5 -1.7 1.5 -1.7 1.05 M-3.6 6.0 Q-3.65 5.5 -3.35 5.2 L-3.25 5.2 2.7 5.2 2.95 6.0 2.95 6.85 2.7 7.65 1.55 7.3 1.35 7.35 1.2 7.5 0.95 8.35 -1.6 8.35 -1.85 7.5 -1.95 7.35 -2.15 7.3 -3.35 7.65 -3.6 6.9 -3.6 6.25 -3.6 6.15 -3.6 6.0" fill="#39415a" fill-rule="evenodd" stroke="none"/>
    <path d="M-5.25 8.7 L-5.2 8.65 -5.15 8.65 -3.4 8.2 -3.35 8.2 -2.25 7.9 -1.8 9.45 -5.9 10.6 -6.0 10.2 -6.1 10.05 -5.15 9.1 -5.1 8.9 -5.15 8.75 -5.25 8.7 M4.65 9.2 L5.4 10.0 5.25 10.6 1.2 9.45 1.65 7.9 4.55 8.75 4.6 9.1 4.65 9.2" fill="#627097" fill-rule="evenodd" stroke="none"/>
    <path d="M-6.85 -3.9 L-6.85 -3.95 Q-6.9 -4.4 -6.55 -4.7 L-6.3 -4.9 -4.75 -5.1 -4.75 -3.7 -5.0 -3.2 -5.0 -3.25 Q-5.35 -2.95 -5.8 -2.9 L-5.95 -2.9 -6.0 -2.95 -6.55 -3.2 -6.6 -3.25 Q-6.9 -3.55 -6.85 -3.9" fill="url(#gradient4)" fill-rule="evenodd" stroke="none"/>
    <path d="M-6.95 7.05 L-6.65 7.3 Q-5.95 7.85 -5.7 8.6 L-5.55 8.75 -6.5 9.8 -6.6 9.95 -6.7 10.0 -7.2 10.55 -7.2 10.6 -7.4 10.7 -8.45 11.1 -8.6 11.1 -8.65 11.1 -10.25 11.15 -10.4 11.2 -10.5 11.15 -16.05 10.7 -16.25 10.75 -16.3 10.7 -17.5 10.4 -17.55 10.4 -17.6 10.35 -17.7 10.25 -17.5 10.05 -17.45 9.9 -17.3 9.75 Q-17.05 9.05 -16.2 8.45 L-15.9 8.3 -15.85 8.25 -15.2 7.9 -14.15 7.45 -14.2 7.45 -13.8 7.35 -13.75 7.35 Q-11.95 6.75 -9.75 6.7 L-9.2 6.7 -7.5 6.8 -6.95 7.05 M-8.6 6.95 L-8.7 7.1 -8.6 7.3 Q-7.5 8.35 -7.6 10.1 L-7.5 10.3 -7.35 10.35 -7.15 10.3 -7.1 10.15 Q-7.0 8.15 -8.25 6.95 L-8.45 6.85 -8.6 6.95 M-9.5 7.05 L-9.45 7.25 Q-8.7 8.3 -8.8 10.3 L-8.7 10.5 -8.55 10.55 -8.35 10.5 -8.3 10.3 Q-8.2 8.1 -9.05 6.95 -9.1 6.85 -9.2 6.85 L-9.4 6.9 -9.5 7.05" fill="url(#gradient5)" fill-rule="evenodd" stroke="none"/>
  </g>
  <defs>
    <radialGradient cx="0" cy="0" gradientTransform="matrix(0.0023, 0.0, 0.0, 0.0023, 4.7, -3.85)" gradientUnits="userSpaceOnUse" id="gradient0" r="819.2" spreadMethod="pad">
      <stop offset="0.16862745098039217" stop-color="#ffffff"/>
      <stop offset="0.49019607843137253" stop-color="#7bcfef"/>
    </radialGradient>
    <linearGradient gradientTransform="matrix(0.0068, 0.0, 0.0, 0.0027, -0.55, -1.4)" gradientUnits="userSpaceOnUse" id="gradient1" spreadMethod="pad" x1="-819.2" x2="819.2">
      <stop offset="0.0" stop-color="#b0b5bd"/>
      <stop offset="0.5215686274509804" stop-color="#39415a"/>
      <stop offset="1.0" stop-color="#5a616b"/>
    </linearGradient>
    <linearGradient gradientTransform="matrix(0.0146, 0.0, 0.0, 0.005, -0.2, 0.9)" gradientUnits="userSpaceOnUse" id="gradient2" spreadMethod="pad" x1="-819.2" x2="819.2">
      <stop offset="0.0" stop-color="#b0b5bd"/>
      <stop offset="0.5215686274509804" stop-color="#39415a"/>
      <stop offset="1.0" stop-color="#5a616b"/>
    </linearGradient>
    <radialGradient cx="0" cy="0" gradientTransform="matrix(0.0098, 0.0, 0.0, 0.0098, 12.3, 8.25)" gradientUnits="userSpaceOnUse" id="gradient3" r="819.2" spreadMethod="pad">
      <stop offset="0.0" stop-color="#ffffff"/>
      <stop offset="0.5215686274509804" stop-color="#454545"/>
      <stop offset="1.0" stop-color="#636563"/>
    </radialGradient>
    <radialGradient cx="0" cy="0" gradientTransform="matrix(0.0028, 0.0, 0.0, 0.0028, -5.5, -3.65)" gradientUnits="userSpaceOnUse" id="gradient4" r="819.2" spreadMethod="pad">
      <stop offset="0.16862745098039217" stop-color="#ffffff"/>
      <stop offset="0.49019607843137253" stop-color="#7bcfef"/>
    </radialGradient>
    <radialGradient cx="0" cy="0" gradientTransform="matrix(0.0099, 0.0, 0.0, 0.0099, -10.95, 7.5)" gradientUnits="userSpaceOnUse" id="gradient5" r="819.2" spreadMethod="pad">
      <stop offset="0.0" stop-color="#ffffff"/>
      <stop offset="0.5215686274509804" stop-color="#454545"/>
      <stop offset="1.0" stop-color="#636563"/>
    </radialGradient>
  </defs>
</svg>
