<?xml version="1.0" encoding="UTF-8" standalone="no"?>
<svg xmlns:xlink="http://www.w3.org/1999/xlink" height="30.6px" width="35.95px" xmlns="http://www.w3.org/2000/svg">
  <g transform="matrix(1.0, 0.0, 0.0, 1.0, 18.25, 18.85)">
    <path d="M0.8 -10.9 L0.8 -10.95 0.5 -11.05 -0.5 -11.15 -1.35 -10.65 Q-2.1 -9.65 -1.5 -8.6 L-1.55 -8.6 Q-1.25 -8.15 -1.25 -7.75 -1.25 -6.65 -1.8 -5.6 L-1.8 -5.65 Q-2.05 -5.15 -2.35 -5.2 -2.65 -5.15 -2.95 -5.6 L-3.0 -5.8 -2.9 -5.95 -2.7 -6.0 -2.55 -5.9 -2.35 -5.7 -2.25 -5.85 Q-1.75 -6.75 -1.75 -7.75 L-1.95 -8.35 Q-2.7 -9.65 -1.75 -10.95 -1.2 -11.65 -0.5 -11.65 L-0.45 -11.65 0.55 -11.55 Q1.05 -11.5 1.2 -11.2 1.55 -10.8 1.35 -10.2 L1.35 -10.25 0.9 -9.35 0.85 -9.35 0.7 -9.15 0.9 -8.9 1.4 -8.35 1.45 -8.25 1.75 -7.7 1.85 -7.7 2.05 -7.75 2.2 -7.65 2.25 -7.45 2.15 -7.3 Q1.75 -7.0 1.4 -7.3 L1.0 -8.05 0.6 -8.5 Q0.2 -8.8 0.25 -9.1 0.2 -9.45 0.55 -9.7 L0.55 -9.75 0.85 -10.35 0.9 -10.35 0.8 -10.9 M4.5 -17.4 Q3.65 -17.65 3.15 -17.1 L2.55 -16.45 2.55 -16.5 1.5 -15.5 Q-0.3 -14.1 -2.8 -14.5 L-2.9 -14.55 -3.0 -14.65 -3.0 -14.8 Q-2.8 -15.6 -1.95 -16.05 L-3.0 -16.9 -4.0 -17.65 -4.05 -17.65 -5.15 -17.6 -5.7 -16.7 Q-6.05 -14.25 -6.0 -11.75 L-6.05 -11.6 -6.2 -11.5 -6.35 -11.5 -7.35 -11.9 -8.75 -12.1 -9.95 -11.75 -9.95 -11.8 -10.6 -11.15 Q-10.85 -10.75 -11.25 -10.7 -12.55 -10.4 -12.7 -8.7 L-12.65 -8.4 -12.6 -8.35 Q-12.35 -8.1 -11.95 -8.05 -10.9 -7.9 -10.45 -7.35 -10.0 -6.8 -10.25 -5.9 L-11.0 -3.65 -11.15 -3.5 -11.35 -3.5 -11.45 -3.65 -11.45 -3.85 -10.75 -6.05 Q-10.6 -6.7 -10.85 -7.05 -11.2 -7.4 -12.0 -7.55 L-12.05 -7.55 Q-12.65 -7.6 -13.0 -8.0 L-12.95 -8.0 Q-13.25 -8.2 -13.2 -8.75 -13.05 -10.9 -11.35 -11.2 -11.15 -11.25 -11.0 -11.45 L-10.2 -12.2 Q-9.55 -12.6 -8.75 -12.6 L-7.2 -12.4 -6.5 -12.15 -6.2 -16.75 Q-6.15 -17.5 -5.45 -18.0 L-3.75 -18.05 -2.7 -17.3 -1.3 -16.15 -1.25 -16.0 -1.25 -15.85 -1.4 -15.75 -2.4 -14.95 Q-0.3 -14.7 1.2 -15.9 L2.15 -16.8 2.8 -17.45 Q3.45 -18.25 4.65 -17.9 5.3 -17.7 5.65 -17.35 L6.6 -15.9 6.7 -15.25 6.35 -14.0 Q7.45 -13.0 8.75 -12.65 L9.85 -11.8 9.85 -11.75 10.55 -10.6 10.55 -10.45 10.0 -9.25 10.0 -9.3 Q9.65 -8.8 9.8 -8.05 L9.95 -7.8 Q10.95 -7.1 10.35 -5.6 L10.3 -5.3 10.5 -5.25 10.75 -5.25 10.95 -5.15 11.0 -5.0 10.95 -4.8 10.75 -4.75 10.5 -4.75 Q9.95 -4.75 9.85 -5.05 9.65 -5.3 9.9 -5.8 10.35 -6.9 9.65 -7.4 L9.35 -7.9 9.3 -7.95 Q9.05 -8.9 9.6 -9.6 L10.05 -10.45 9.45 -11.5 Q9.1 -12.0 8.6 -12.15 7.1 -12.55 5.9 -13.75 L5.8 -13.9 5.85 -14.05 6.2 -15.3 6.2 -15.35 6.15 -15.7 5.3 -17.0 4.5 -17.4" fill="#ffffff" fill-rule="evenodd" stroke="none"/>
    <path d="M-11.7 -3.15 L-11.9 -3.45 -11.95 -4.0 -11.2 -6.2 Q-11.15 -6.55 -11.25 -6.7 -11.5 -6.95 -12.1 -7.05 -12.85 -7.15 -13.3 -7.65 -13.8 -8.0 -13.7 -8.8 L-13.7 -8.85 Q-13.5 -11.35 -11.45 -11.65 L-11.4 -11.7 -10.5 -12.6 -10.45 -12.65 Q-9.7 -13.1 -8.75 -13.1 L-7.1 -12.85 -7.0 -12.85 -6.7 -16.85 Q-6.65 -17.7 -5.75 -18.35 L-5.75 -18.4 -3.45 -18.45 -3.5 -18.45 -2.35 -17.65 -2.4 -17.7 -0.95 -16.5 -0.75 -16.1 -0.85 -15.6 -0.95 -15.45 Q0.05 -15.65 0.9 -16.25 L0.9 -16.3 1.8 -17.1 1.8 -17.15 2.4 -17.8 2.45 -17.8 Q3.3 -18.8 4.8 -18.35 L4.75 -18.35 Q5.55 -18.15 6.0 -17.7 L7.05 -16.1 7.2 -15.15 6.95 -14.15 Q7.85 -13.4 8.85 -13.1 9.7 -12.9 10.3 -12.05 L11.0 -10.8 11.05 -10.3 10.4 -8.95 10.4 -9.0 Q10.2 -8.7 10.3 -8.2 L10.3 -8.15 Q11.5 -7.35 10.95 -5.7 L11.3 -5.5 11.5 -5.0 11.3 -4.45 10.75 -4.25 10.5 -4.25 Q9.6 -4.25 9.4 -4.8 9.05 -5.2 9.4 -6.0 9.7 -6.65 9.4 -6.95 L9.3 -7.05 Q9.0 -7.3 8.85 -7.7 L8.85 -7.8 Q8.55 -9.05 9.2 -9.9 L9.25 -9.95 9.5 -10.4 9.05 -11.25 9.05 -11.2 8.5 -11.65 8.45 -11.65 Q6.85 -12.1 5.55 -13.4 L5.3 -13.8 5.4 -14.3 5.7 -15.35 5.75 -15.45 5.7 -15.45 5.7 -15.5 4.95 -16.65 4.9 -16.7 4.4 -16.9 4.35 -16.9 3.5 -16.8 3.5 -16.75 2.95 -16.15 1.85 -15.1 1.8 -15.1 Q-0.15 -13.55 -2.85 -14.0 L-3.25 -14.15 -3.45 -14.5 -3.45 -14.9 Q-3.35 -15.65 -2.75 -16.1 L-3.25 -16.45 -3.3 -16.5 -4.3 -17.2 Q-4.6 -17.4 -4.8 -17.2 L-4.85 -17.2 -5.2 -16.7 -5.2 -16.65 Q-5.55 -14.2 -5.5 -11.75 -5.5 -11.5 -5.65 -11.3 L-6.05 -11.0 -6.55 -11.05 -7.5 -11.4 -8.75 -11.6 -9.7 -11.35 -10.15 -10.85 Q-10.55 -10.3 -11.15 -10.2 -12.1 -10.0 -12.2 -8.7 L-12.2 -8.65 -11.9 -8.55 -11.85 -8.55 Q-10.6 -8.35 -10.1 -7.65 -9.45 -7.0 -9.75 -5.8 L-10.55 -3.45 Q-10.65 -3.2 -10.9 -3.1 L-10.95 -3.05 -11.5 -3.05 -11.7 -3.15 M4.5 -17.4 L5.3 -17.0 6.15 -15.7 6.2 -15.35 6.2 -15.3 5.85 -14.05 5.8 -13.9 5.9 -13.75 Q7.1 -12.55 8.6 -12.15 9.1 -12.0 9.45 -11.5 L10.05 -10.45 9.6 -9.6 Q9.05 -8.9 9.3 -7.95 L9.35 -7.9 9.65 -7.4 Q10.35 -6.9 9.9 -5.8 9.65 -5.3 9.85 -5.05 9.95 -4.75 10.5 -4.75 L10.75 -4.75 10.95 -4.8 11.0 -5.0 10.95 -5.15 10.75 -5.25 10.5 -5.25 10.3 -5.3 10.35 -5.6 Q10.95 -7.1 9.95 -7.8 L9.8 -8.05 Q9.65 -8.8 10.0 -9.3 L10.0 -9.25 10.55 -10.45 10.55 -10.6 9.85 -11.75 9.85 -11.8 8.75 -12.65 Q7.45 -13.0 6.35 -14.0 L6.7 -15.25 6.6 -15.9 5.65 -17.35 Q5.3 -17.7 4.65 -17.9 3.45 -18.25 2.8 -17.45 L2.15 -16.8 1.2 -15.9 Q-0.3 -14.7 -2.4 -14.95 L-1.4 -15.75 -1.25 -15.85 -1.25 -16.0 -1.3 -16.15 -2.7 -17.3 -3.75 -18.05 -5.45 -18.0 Q-6.15 -17.5 -6.2 -16.75 L-6.5 -12.15 -7.2 -12.4 -8.75 -12.6 Q-9.55 -12.6 -10.2 -12.2 L-11.0 -11.45 Q-11.15 -11.25 -11.35 -11.2 -13.05 -10.9 -13.2 -8.75 -13.25 -8.2 -12.95 -8.0 L-13.0 -8.0 Q-12.65 -7.6 -12.05 -7.55 L-12.0 -7.55 Q-11.2 -7.4 -10.85 -7.05 -10.6 -6.7 -10.75 -6.05 L-11.45 -3.85 -11.45 -3.65 -11.35 -3.5 -11.15 -3.5 -11.0 -3.65 -10.25 -5.9 Q-10.0 -6.8 -10.45 -7.35 -10.9 -7.9 -11.95 -8.05 -12.35 -8.1 -12.6 -8.35 L-12.65 -8.4 -12.7 -8.7 Q-12.55 -10.4 -11.25 -10.7 -10.85 -10.75 -10.6 -11.15 L-9.95 -11.8 -9.95 -11.75 -8.75 -12.1 -7.35 -11.9 -6.35 -11.5 -6.2 -11.5 -6.05 -11.6 -6.0 -11.75 Q-6.05 -14.25 -5.7 -16.7 L-5.15 -17.6 -4.05 -17.65 -4.0 -17.65 -3.0 -16.9 -1.95 -16.05 Q-2.8 -15.6 -3.0 -14.8 L-3.0 -14.65 -2.9 -14.55 -2.8 -14.5 Q-0.3 -14.1 1.5 -15.5 L2.55 -16.5 2.55 -16.45 3.15 -17.1 Q3.65 -17.65 4.5 -17.4 M0.8 -10.9 L0.9 -10.35 0.85 -10.35 0.55 -9.75 0.55 -9.7 Q0.2 -9.45 0.25 -9.1 0.2 -8.8 0.6 -8.5 L1.0 -8.05 1.4 -7.3 Q1.75 -7.0 2.15 -7.3 L2.25 -7.45 2.2 -7.65 2.05 -7.75 1.85 -7.7 1.75 -7.7 1.45 -8.25 1.4 -8.35 0.9 -8.9 0.7 -9.15 0.85 -9.35 0.9 -9.35 1.35 -10.25 1.35 -10.2 Q1.55 -10.8 1.2 -11.2 1.05 -11.5 0.55 -11.55 L-0.45 -11.65 -0.5 -11.65 Q-1.2 -11.65 -1.75 -10.95 -2.7 -9.65 -1.95 -8.35 L-1.75 -7.75 Q-1.75 -6.75 -2.25 -5.85 L-2.35 -5.7 -2.55 -5.9 -2.7 -6.0 -2.9 -5.95 -3.0 -5.8 -2.95 -5.6 Q-2.65 -5.15 -2.35 -5.2 -2.05 -5.15 -1.8 -5.65 L-1.8 -5.6 Q-1.25 -6.65 -1.25 -7.75 -1.25 -8.15 -1.55 -8.6 L-1.5 -8.6 Q-2.1 -9.65 -1.35 -10.65 L-0.5 -11.15 0.5 -11.05 0.8 -10.95 0.8 -10.9 M0.6 -12.05 Q1.45 -11.95 1.65 -11.4 2.05 -10.9 1.8 -10.05 L1.85 -10.1 Q1.7 -9.55 1.35 -9.15 L1.85 -8.6 1.9 -8.4 2.0 -8.25 2.1 -8.25 2.6 -7.95 2.75 -7.4 2.45 -6.9 Q1.7 -6.35 1.1 -6.9 L0.55 -7.8 0.3 -8.1 Q-0.3 -8.6 -0.25 -9.1 -0.35 -9.6 0.2 -10.05 L0.25 -10.1 0.4 -10.45 0.4 -10.5 0.45 -10.55 0.4 -10.55 -0.5 -10.65 -0.95 -10.35 Q-1.5 -9.6 -1.1 -8.85 L-1.1 -8.9 Q-0.75 -8.3 -0.75 -7.75 -0.75 -6.55 -1.35 -5.4 L-1.4 -5.35 Q-1.8 -4.6 -2.35 -4.7 -2.9 -4.6 -3.35 -5.3 L-3.45 -5.9 -3.15 -6.35 -2.6 -6.45 -2.5 -6.45 -2.25 -7.75 -2.35 -8.1 -2.4 -8.1 Q-3.3 -9.7 -2.15 -11.25 -1.45 -12.2 -0.5 -12.15 L-0.4 -12.15 0.6 -12.05" fill="#999999" fill-rule="evenodd" stroke="none"/>
    <path d="M4.9 8.55 Q5.1 7.8 5.95 7.2 L6.25 6.95 6.9 6.6 8.6 6.55 8.65 6.55 9.2 6.55 Q11.45 6.6 13.25 7.2 L13.65 7.3 14.7 7.75 15.45 8.15 15.75 8.35 Q16.65 8.95 16.95 9.7 L17.35 10.1 Q17.6 10.35 17.2 10.65 L17.1 10.65 15.5 11.05 9.75 11.5 8.0 11.45 7.8 11.45 Q6.85 11.25 6.6 10.95 L5.65 9.95 4.8 9.0 4.8 8.85 4.9 8.55 M6.8 10.15 Q6.65 8.3 7.85 7.2 6.65 8.3 6.8 10.15 M8.0 10.4 Q7.8 8.3 8.65 7.2 7.8 8.3 8.0 10.4" fill="#373737" fill-rule="evenodd" stroke="none"/>
    <path d="M-6.35 9.95 L-7.2 10.85 Q-7.45 11.15 -8.4 11.35 L-8.6 11.35 -10.3 11.4 -16.1 10.95 -17.65 10.6 -17.75 10.55 Q-18.15 10.25 -17.9 10.0 L-17.55 9.65 Q-17.25 8.9 -16.35 8.25 L-16.0 8.05 -15.3 7.65 -14.25 7.2 -13.85 7.1 Q-12.0 6.5 -9.75 6.45 L-9.2 6.45 -7.45 6.55 Q-7.1 6.65 -6.8 6.85 L-6.5 7.1 Q-5.7 7.7 -5.45 8.5 L-5.4 8.75 -5.35 8.9 -6.35 9.95 M-8.55 10.3 Q-8.45 8.2 -9.25 7.1 -8.45 8.2 -8.55 10.3 M-7.35 10.1 Q-7.25 8.25 -8.45 7.1 -7.25 8.25 -7.35 10.1" fill="#3d3d3d" fill-rule="evenodd" stroke="none"/>
    <path d="M-11.7 -3.15 L-11.5 -3.05 -10.95 -3.05 -10.9 -3.1 Q-10.85 -2.05 -10.0 -1.25 L-9.4 -0.75 -9.4 1.75 -1.95 1.75 1.05 1.75 8.95 1.75 8.95 -0.75 9.55 -1.25 Q10.4 -2.05 10.45 -3.15 L11.75 -3.15 11.75 3.25 11.2 4.45 11.15 4.5 Q10.65 4.95 10.05 4.95 L2.8 4.95 -3.5 4.95 -10.5 4.95 Q-11.15 4.95 -11.6 4.5 L-11.65 4.45 Q-12.2 3.9 -12.2 3.25 L-12.2 -3.15 -11.7 -3.15 M-1.95 0.8 L-5.1 0.8 Q-5.5 0.8 -5.75 0.6 L-5.8 0.55 -6.1 -0.15 -6.1 -2.7 -5.8 -2.65 Q-5.25 -2.7 -4.85 -3.05 -4.6 -3.3 -4.5 -3.65 L-4.5 -1.0 3.5 -0.95 3.5 -3.6 3.85 -3.0 Q4.25 -2.65 4.8 -2.65 L5.05 -2.65 5.05 -0.1 4.8 0.55 4.75 0.6 4.15 0.85 1.05 0.85 -1.95 0.8" fill="#808080" fill-rule="evenodd" stroke="none"/>
    <path d="M-1.95 1.75 L-1.95 0.8 1.05 0.85 1.05 1.75 -1.95 1.75 M2.8 4.95 Q3.2 5.4 3.2 6.0 L3.2 6.85 Q3.2 7.45 2.8 7.95 L1.45 7.55 1.15 8.6 -1.8 8.6 -2.1 7.55 -3.45 7.95 Q-3.9 7.45 -3.85 6.85 L-3.85 6.0 Q-3.9 5.4 -3.5 4.95 L2.8 4.95" fill="#a7a7a7" fill-rule="evenodd" stroke="none"/>
    <path d="M-6.1 -2.7 L-6.75 -3.05 Q-7.15 -3.45 -7.1 -3.95 L-6.75 -4.9 -6.35 -5.15 -4.5 -5.4 -4.5 -3.65 Q-4.6 -3.3 -4.85 -3.05 -5.25 -2.7 -5.8 -2.65 L-6.1 -2.7 M3.5 -3.6 L3.5 -5.35 4.6 -5.2 4.8 -5.2 5.3 -5.1 5.7 -4.85 5.75 -4.8 6.05 -3.9 5.75 -3.05 5.7 -3.0 Q5.4 -2.75 5.05 -2.65 L4.8 -2.65 Q4.25 -2.65 3.85 -3.0 L3.5 -3.6" fill="#e4e4e4" fill-rule="evenodd" stroke="none"/>
    <path d="M2.8 7.95 L4.9 8.55 4.8 8.85 4.8 9.0 5.65 9.95 5.4 10.9 0.85 9.6 1.15 8.6 1.45 7.55 2.8 7.95 M-1.8 8.6 L-1.5 9.6 -6.05 10.9 -6.35 9.95 -5.35 8.9 -5.4 8.75 -5.45 8.5 -3.45 7.95 -2.1 7.55 -1.8 8.6" fill="#757575" fill-rule="evenodd" stroke="none"/>
    <path d="M-10.9 -3.1 Q-10.85 -2.05 -10.0 -1.25 L-9.4 -0.75 -9.4 1.75 -1.95 1.75 -1.95 0.8 -5.1 0.8 Q-5.5 0.8 -5.75 0.6 L-5.8 0.55 -6.1 -0.15 -6.1 -2.7 -6.75 -3.05 Q-7.15 -3.45 -7.1 -3.95 L-6.75 -4.9 -6.35 -5.15 -4.5 -5.4 -4.5 -3.65 -4.5 -1.0 3.5 -0.95 3.5 -3.6 3.5 -5.35 4.6 -5.2 4.8 -5.2 5.3 -5.1 5.7 -4.85 5.75 -4.8 6.05 -3.9 5.75 -3.05 5.7 -3.0 Q5.4 -2.75 5.05 -2.65 L5.05 -0.1 4.8 0.55 4.75 0.6 4.15 0.85 1.05 0.85 1.05 1.75 8.95 1.75 8.95 -0.75 9.55 -1.25 Q10.4 -2.05 10.45 -3.15 L11.75 -3.15 11.75 3.25 11.2 4.45 11.15 4.5 Q10.65 4.95 10.05 4.95 L2.8 4.95 Q3.2 5.4 3.2 6.0 L3.2 6.85 Q3.2 7.45 2.8 7.95 L4.9 8.55 Q5.1 7.8 5.95 7.2 L6.25 6.95 6.9 6.6 8.6 6.55 8.65 6.55 9.2 6.55 Q11.45 6.6 13.25 7.2 L13.65 7.3 14.7 7.75 15.45 8.15 15.75 8.35 Q16.65 8.95 16.95 9.7 L17.35 10.1 Q17.6 10.35 17.2 10.65 L17.1 10.65 15.5 11.05 9.75 11.5 8.0 11.45 7.8 11.45 Q6.85 11.25 6.6 10.95 L5.65 9.95 5.4 10.9 0.85 9.6 1.15 8.6 -1.8 8.6 -1.5 9.6 -6.05 10.9 -6.35 9.95 -7.2 10.85 Q-7.45 11.15 -8.4 11.35 L-8.6 11.35 -10.3 11.4 -16.1 10.95 -17.65 10.6 -17.75 10.55 Q-18.15 10.25 -17.9 10.0 L-17.55 9.65 Q-17.25 8.9 -16.35 8.25 L-16.0 8.05 -15.3 7.65 -14.25 7.2 -13.85 7.1 Q-12.0 6.5 -9.75 6.45 L-9.2 6.45 -7.45 6.55 Q-7.1 6.65 -6.8 6.85 L-6.5 7.1 Q-5.7 7.7 -5.45 8.5 L-3.45 7.95 Q-3.9 7.45 -3.85 6.85 L-3.85 6.0 Q-3.9 5.4 -3.5 4.95 L-10.5 4.95 Q-11.15 4.95 -11.6 4.5 L-11.65 4.45 Q-12.2 3.9 -12.2 3.25 L-12.2 -3.15 -11.7 -3.15 M5.05 -2.65 L4.8 -2.65 Q4.25 -2.65 3.85 -3.0 L3.5 -3.6 M4.9 8.55 L4.8 8.85 4.8 9.0 5.65 9.95 M2.8 7.95 L1.45 7.55 1.15 8.6 M8.65 7.2 Q7.8 8.3 8.0 10.4 M7.85 7.2 Q6.65 8.3 6.8 10.15 M-4.5 -3.65 Q-4.6 -3.3 -4.85 -3.05 -5.25 -2.7 -5.8 -2.65 L-6.1 -2.7 M-5.45 8.5 L-5.4 8.75 -5.35 8.9 -6.35 9.95 M-8.45 7.1 Q-7.25 8.25 -7.35 10.1 M-9.25 7.1 Q-8.45 8.2 -8.55 10.3 M-3.45 7.95 L-2.1 7.55 -1.8 8.6 M-1.95 0.8 L1.05 0.85 M-3.5 4.95 L2.8 4.95 M-1.95 1.75 L1.05 1.75" fill="none" stroke="#666666" stroke-linecap="round" stroke-linejoin="round" stroke-width="0.5"/>
  </g>
</svg>
