<?xml version="1.0" encoding="UTF-8" standalone="no"?>
<svg xmlns:xlink="http://www.w3.org/1999/xlink" height="104.0px" width="14.2px" xmlns="http://www.w3.org/2000/svg">
  <g transform="matrix(1.0, 0.0, 0.0, 1.0, 8.9, 101.5)">
    <path d="M0.0 0.5 L0.0 -4.5 Q0.0 -5.0 -0.45 -5.55 -1.95 -7.4 -1.6 -9.95 L-1.2 -11.1 0.15 -13.4 0.8 -14.6 1.05 -15.5 Q1.2 -18.2 2.85 -20.6 3.95 -22.25 2.25 -23.8 1.75 -24.25 1.45 -25.0 L-0.7 -30.45 -1.5 -32.0 Q-4.45 -36.25 -2.6 -41.2 -2.5 -41.5 -3.0 -42.0 -5.95 -45.1 -3.55 -48.55 L1.05 -54.85 Q1.75 -55.75 2.1 -56.95 L2.3 -58.0 Q2.6 -60.65 0.55 -62.55 L-0.9 -64.05 Q-1.75 -65.15 -1.9 -66.45 -2.0 -67.5 -2.55 -68.45 -3.45 -69.95 -5.0 -71.05 -6.0 -71.75 -6.65 -72.75 -7.0 -73.25 -6.85 -73.95 L-5.75 -80.45 Q-5.5 -82.0 -4.75 -83.35 L-4.05 -84.1 Q-1.3 -86.25 -1.65 -89.05 L-1.5 -91.0 Q-1.25 -91.95 -1.75 -92.65 L-2.15 -93.45 Q-2.5 -94.4 -2.4 -95.5 -2.35 -96.9 -1.9 -98.15 -1.75 -98.5 -2.05 -98.95 L-2.5 -99.5" fill="none" stroke="#00cccc" stroke-linecap="round" stroke-linejoin="round" stroke-width="4.0"/>
    <path d="M0.0 0.5 L0.0 -4.5 Q0.0 -5.0 -0.45 -5.55 -1.95 -7.4 -1.6 -9.95 L-1.2 -11.1 0.15 -13.4 0.8 -14.6 1.05 -15.5 Q1.2 -18.2 2.85 -20.6 3.95 -22.25 2.25 -23.8 1.75 -24.25 1.45 -25.0 L-0.7 -30.45 -1.5 -32.0 Q-4.45 -36.25 -2.6 -41.2 -2.5 -41.5 -3.0 -42.0 -5.95 -45.1 -3.55 -48.55 L1.05 -54.85 Q1.75 -55.75 2.1 -56.95 L2.3 -58.0 Q2.6 -60.65 0.55 -62.55 L-0.9 -64.05 Q-1.75 -65.15 -1.9 -66.45 -2.0 -67.5 -2.55 -68.45 -3.45 -69.95 -5.0 -71.05 -6.0 -71.75 -6.65 -72.75 -7.0 -73.25 -6.85 -73.95 L-5.75 -80.45 Q-5.5 -82.0 -4.75 -83.35 L-4.05 -84.1 Q-1.3 -86.25 -1.65 -89.05 L-1.5 -91.0 Q-1.25 -91.95 -1.75 -92.65 L-2.15 -93.45 Q-2.5 -94.4 -2.4 -95.5 -2.35 -96.9 -1.9 -98.15 -1.75 -98.5 -2.05 -98.95 L-2.5 -99.5" fill="none" stroke="#ffffff" stroke-linecap="round" stroke-linejoin="round" stroke-width="2.5"/>
  </g>
</svg>
