<?xml version="1.0" encoding="UTF-8" standalone="no"?>
<svg xmlns:xlink="http://www.w3.org/1999/xlink" height="17.5px" width="34.0px" xmlns="http://www.w3.org/2000/svg">
  <g transform="matrix(1.0, 0.0, 0.0, 1.0, 16.5, 8.75)">
    <path d="M12.15 5.25 Q9.65 6.15 6.6 6.6 4.15 8.75 0.85 8.75 -2.35 8.75 -4.7 6.75 -8.3 6.3 -11.2 5.25 L-11.15 5.25 Q-16.7 3.3 -16.5 0.25 -16.7 -2.8 -11.2 -4.8 L-11.15 -4.8 Q-8.6 -5.75 -5.45 -6.1 L-5.35 -6.2 Q-2.75 -8.75 0.85 -8.75 4.45 -8.75 7.0 -6.2 L7.2 -6.0 Q9.9 -5.6 12.15 -4.8 17.7 -2.8 17.5 0.25 17.7 3.3 12.15 5.25" fill="url(#gradient0)" fill-rule="evenodd" stroke="none"/>
  </g>
  <defs>
    <radialGradient cx="0" cy="0" gradientTransform="matrix(0.0, -0.011, 0.0265, 1.0E-4, 0.5, 0.0)" gradientUnits="userSpaceOnUse" id="gradient0" r="819.2" spreadMethod="pad">
      <stop offset="0.1803921568627451" stop-color="#2eb7f1"/>
      <stop offset="0.5803921568627451" stop-color="#ffffff"/>
      <stop offset="0.7450980392156863" stop-color="#2eb7f1"/>
    </radialGradient>
  </defs>
</svg>
