<?xml version="1.0" encoding="UTF-8" standalone="no"?>
<svg xmlns:xlink="http://www.w3.org/1999/xlink" height="15.75px" width="30.6px" xmlns="http://www.w3.org/2000/svg">
  <g transform="matrix(1.0, 0.0, 0.0, 1.0, 14.8, 7.85)">
    <path d="M6.55 -5.4 Q8.95 -5.05 11.0 -4.3 15.95 -2.5 15.8 0.25 15.95 2.95 11.0 4.75 L11.0 4.7 6.0 5.95 Q3.8 7.9 0.85 7.9 -2.05 7.85 -4.15 6.05 -7.4 5.65 -10.0 4.75 -14.95 2.95 -14.8 0.25 -14.95 -2.5 -10.0 -4.3 L-4.85 -5.5 -4.75 -5.55 -4.75 -5.6 Q-2.45 -7.9 0.85 -7.85 4.05 -7.85 6.35 -5.55 L6.55 -5.4" fill="url(#gradient0)" fill-rule="evenodd" stroke="none"/>
  </g>
  <defs>
    <radialGradient cx="0" cy="0" gradientTransform="matrix(0.0, -0.0073, 0.0177, 1.0E-4, 0.5, 0.0)" gradientUnits="userSpaceOnUse" id="gradient0" r="819.2" spreadMethod="pad">
      <stop offset="0.1803921568627451" stop-color="#2eb7f1"/>
      <stop offset="0.5803921568627451" stop-color="#ffffff"/>
      <stop offset="0.7450980392156863" stop-color="#2eb7f1"/>
    </radialGradient>
  </defs>
</svg>
