<?xml version="1.0" encoding="UTF-8" standalone="no"?>
<svg xmlns:xlink="http://www.w3.org/1999/xlink" height="9.95px" width="19.3px" xmlns="http://www.w3.org/2000/svg">
  <g transform="matrix(1.0, 0.0, 0.0, 1.0, 9.15, 4.95)">
    <path d="M0.7 -4.95 Q2.75 -4.95 4.2 -3.5 L4.3 -3.4 7.1 -2.7 Q10.25 -1.6 10.15 0.15 10.25 1.85 7.1 3.0 L7.1 2.95 3.95 3.75 Q2.55 4.95 0.7 5.0 -1.1 4.95 -2.45 3.85 L-6.1 3.0 Q-9.25 1.85 -9.15 0.15 -9.25 -1.6 -6.1 -2.7 -4.65 -3.25 -2.85 -3.45 L-2.8 -3.5 Q-1.35 -4.95 0.7 -4.95" fill="url(#gradient0)" fill-rule="evenodd" stroke="none"/>
  </g>
  <defs>
    <radialGradient cx="0" cy="0" gradientTransform="matrix(0.0, -0.0013, 0.0031, 0.0, 0.5, 0.0)" gradientUnits="userSpaceOnUse" id="gradient0" r="819.2" spreadMethod="pad">
      <stop offset="0.1803921568627451" stop-color="#2eb7f1"/>
      <stop offset="0.5803921568627451" stop-color="#ffffff"/>
      <stop offset="0.7450980392156863" stop-color="#2eb7f1"/>
    </radialGradient>
  </defs>
</svg>
