<?xml version="1.0" encoding="UTF-8" standalone="no"?>
<svg xmlns:xlink="http://www.w3.org/1999/xlink" height="58.0px" width="59.0px" xmlns="http://www.w3.org/2000/svg">
  <g transform="matrix(1.0, 0.0, 0.0, 1.0, 30.0, 29.0)">
    <path d="M27.0 -0.5 Q27.0 11.3 18.65 19.65 10.3 28.0 -1.5 28.0 -13.3 28.0 -21.65 19.65 -30.0 11.3 -30.0 -0.5 -30.0 -12.3 -21.65 -20.65 -13.3 -29.0 -1.5 -29.0 10.3 -29.0 18.65 -20.65 27.0 -12.3 27.0 -0.5" fill="#6d581d" fill-rule="evenodd" stroke="none"/>
    <path d="M11.25 -26.25 Q16.1 -24.2 20.15 -20.15 28.5 -11.8 28.5 0.0 L28.5 0.5 Q28.35 11.7 20.55 19.8 L20.15 20.15 Q12.05 28.25 0.75 28.5 L0.0 28.5 Q-6.1 28.5 -11.25 26.3 -15.1 24.6 -18.45 21.75 L-20.15 20.15 Q-23.7 16.6 -25.7 12.5 -28.4 7.05 -28.5 0.5 L-28.5 0.0 Q-28.5 -6.15 -26.2 -11.35 -24.4 -15.55 -21.1 -19.1 L-20.15 -20.15 Q-16.55 -23.75 -12.25 -25.8 -6.7 -28.5 0.0 -28.5 6.1 -28.5 11.25 -26.25" fill="url(#gradient0)" fill-rule="evenodd" stroke="none"/>
    <path d="M11.25 -26.25 L8.75 -21.5 M0.0 -28.25 L0.0 -22.75 M22.55 0.5 L28.5 0.5 M25.0 -12.25 L20.75 -10.25 M19.25 -20.25 L16.0 -17.25 M0.75 28.5 L0.75 23.25 M20.55 19.8 L16.25 16.75 M11.5 25.5 L9.25 22.0 M-23.0 0.75 L-28.5 0.5 M25.25 12.25 L21.25 10.0 M22.55 0.5 L22.25 0.5 M-12.25 -25.8 L-10.5 -21.0 M-21.1 -19.1 L-17.25 -16.0 M-21.3 -8.65 L-21.0 -8.5 M-21.3 -8.65 L-26.5 -11.5 M-18.45 21.75 L-15.25 18.75 M-25.7 12.5 L-20.75 10.25 M-11.25 26.3 L-8.75 22.0 M-23.0 0.75 L-22.25 0.75" fill="none" stroke="#8a7024" stroke-linecap="round" stroke-linejoin="round" stroke-width="1.0"/>
    <path d="M-21.3 -8.65 Q-19.6 -12.45 -16.35 -15.55 -9.65 -22.0 -0.25 -22.0 9.15 -22.0 15.85 -15.55 22.55 -9.15 22.55 -0.05 L22.55 0.5 Q22.3 9.2 15.85 15.45 9.15 21.85 -0.25 21.85 -9.65 21.85 -16.35 15.45 -22.75 9.25 -23.0 0.75 L-23.05 -0.05 Q-23.05 -4.7 -21.3 -8.65 Z" fill="none" stroke="#a8882d" stroke-linecap="round" stroke-linejoin="round" stroke-width="0.75"/>
  </g>
  <defs>
    <linearGradient gradientTransform="matrix(-0.03, 0.0154, -0.0158, -0.0309, 4.3, 3.75)" gradientUnits="userSpaceOnUse" id="gradient0" spreadMethod="pad" x1="-819.2" x2="819.2">
      <stop offset="0.0" stop-color="#e2ce92"/>
      <stop offset="1.0" stop-color="#917524"/>
    </linearGradient>
  </defs>
</svg>
