<?xml version="1.0" encoding="UTF-8" standalone="no"?>
<svg xmlns:xlink="http://www.w3.org/1999/xlink" height="36.5px" width="27.8px" xmlns="http://www.w3.org/2000/svg">
  <g transform="matrix(1.0, 0.0, 0.0, 1.0, 12.05, 18.1)">
    <path d="M4.95 -12.95 L5.1 -12.9 8.15 -11.65 8.25 -11.6 8.45 -11.5 8.6 -11.45 11.4 -10.3 11.5 -10.25 11.7 -10.15 11.85 -10.1 13.9 -9.25 14.0 -9.2 14.2 -9.1 14.35 -9.05 15.55 -8.6 15.6 -8.55 15.7 -8.5 15.75 -8.45 15.75 -8.35 15.75 -5.9 15.75 -5.8 15.75 -3.8 15.75 -3.65 15.75 -3.55 15.75 -0.85 15.75 -0.7 15.75 -0.6 15.75 2.45 15.75 2.6 15.75 2.7 15.75 5.8 15.75 5.95 15.75 6.05 15.75 8.2 15.75 8.35 15.75 8.45 15.75 11.0 15.7 11.2 15.5 11.25 15.45 11.25 15.35 11.35 14.35 11.65 14.2 11.65 14.2 11.7 14.0 11.75 13.9 11.75 13.85 11.8 11.85 12.45 11.7 12.45 11.5 12.5 11.4 12.6 8.6 13.45 8.4 13.45 8.25 13.5 8.15 13.6 5.1 14.55 4.95 14.55 4.75 14.6 4.65 14.7 0.1 16.1 -0.05 16.1 -0.05 16.15 -0.25 16.2 -0.3 16.2 -0.4 16.25 -7.05 18.35 -7.25 18.35 -7.4 18.4 -7.55 18.35 -7.6 18.25 -7.75 18.25 -11.7 16.0 -11.85 15.85 -11.95 15.8 -12.05 15.6 -12.05 10.75 -12.0 10.65 -12.05 10.5 -12.05 5.9 -12.0 5.8 -12.05 5.65 -12.05 1.15 -12.0 1.05 -12.05 0.9 -12.05 -2.6 -12.0 -2.7 -12.05 -2.85 -12.05 -7.15 -12.0 -7.25 -12.05 -7.4 -12.05 -11.55 -12.0 -11.65 -12.05 -11.8 -12.05 -17.4 -11.95 -17.55 -11.8 -17.65 -11.65 -17.6 -11.55 -17.65 -7.65 -18.05 -7.55 -18.0 -7.4 -18.1 -7.2 -18.0 -7.05 -17.95 -0.35 -15.15 -0.25 -15.1 -0.05 -15.0 0.1 -14.95 4.65 -13.1 4.75 -13.05 4.95 -12.95 M-7.65 11.7 L-7.7 11.7 -11.55 11.05 -11.55 15.5 -11.45 15.55 -7.65 17.7 -7.65 11.7 M-7.1 11.7 L-7.15 11.7 -7.15 17.85 -0.55 15.75 -0.5 15.75 -0.5 10.8 -3.45 11.2 -3.55 11.2 -3.7 11.25 -7.1 11.7 M-7.15 6.5 L-7.15 11.2 -3.75 10.75 -3.75 6.4 -7.15 6.5 M-7.55 6.25 L-7.65 6.25 -11.55 5.9 -11.55 10.55 -11.5 10.55 -7.65 11.2 -7.65 6.5 -7.55 6.35 -7.55 6.3 -7.55 6.25 M-7.65 5.75 L-7.65 1.5 -11.55 1.4 -11.55 5.4 -11.5 5.4 -7.65 5.75 M-0.5 2.0 L-3.5 1.8 -3.65 1.8 -3.75 1.8 -7.15 1.6 -7.15 6.0 -3.5 5.9 -3.35 5.95 -3.25 5.9 -0.5 5.85 -0.5 2.0 M-7.65 -2.5 L-11.55 -2.6 -11.55 0.9 -7.65 1.0 -7.65 -2.5 M-3.75 -2.25 L-7.15 -2.6 -7.15 1.1 -3.75 1.3 -3.75 -2.25 M-3.65 -6.45 L-3.8 -6.45 -7.15 -7.0 -7.15 -3.1 -7.1 -3.1 -3.45 -2.75 -3.35 -2.7 -3.2 -2.75 -0.5 -2.5 -0.5 -5.9 -0.55 -5.9 -3.55 -6.4 -3.65 -6.45 M-3.7 -11.3 L-3.8 -11.3 -7.15 -12.25 -7.3 -7.5 -7.2 -7.45 -7.1 -7.5 -3.75 -6.95 -3.75 -11.2 -3.7 -11.3 M-11.5 -6.95 L-11.55 -6.95 -11.55 -3.1 -7.65 -3.0 -7.65 -7.25 -11.5 -6.95 M-11.5 -11.55 L-11.55 -11.55 -11.55 -7.45 -7.8 -7.7 -7.65 -11.95 -11.5 -11.55 M-7.55 -12.45 L-7.65 -12.65 -7.65 -17.55 -11.5 -17.15 -11.55 -17.15 -11.55 -12.05 -7.55 -12.45 M-7.15 -12.8 L-7.05 -12.8 -3.65 -11.8 -3.55 -11.75 -3.4 -11.75 -0.5 -10.85 -0.5 -14.7 -0.55 -14.7 -7.15 -17.45 -7.15 -12.8 M5.05 10.1 L5.0 10.1 5.0 14.05 8.0 13.15 8.0 9.7 7.05 9.85 6.9 9.85 6.8 9.85 5.05 10.1 M0.05 10.75 L0.0 10.75 0.0 15.6 4.5 14.2 4.5 10.15 2.8 10.4 2.65 10.4 2.55 10.4 0.05 10.75 M2.5 6.3 L0.0 6.35 -0.1 6.35 -0.25 6.35 -0.35 6.35 -0.5 6.35 -3.25 6.4 -3.25 10.7 -0.5 10.3 -0.35 10.35 -0.25 10.3 -0.15 10.35 -0.05 10.25 2.45 9.9 2.5 9.9 2.5 6.3 M5.0 6.25 L4.9 6.25 4.75 6.25 4.65 6.25 4.5 6.25 3.0 6.3 3.0 9.9 4.5 9.65 4.65 9.7 4.75 9.65 4.85 9.7 Q4.9 9.6 5.0 9.6 L6.5 9.4 6.5 6.2 5.0 6.25 M0.0 1.5 L2.5 1.65 2.5 -1.7 0.0 -1.95 -0.15 -2.0 -0.25 -2.0 -0.35 -2.0 -0.5 -2.0 -3.25 -2.25 -3.25 1.35 -0.45 1.5 -0.35 1.55 -0.25 1.5 -0.1 1.55 0.0 1.5 M2.75 2.2 L2.6 2.15 2.5 2.15 0.0 2.0 0.0 5.85 2.5 5.8 2.65 5.85 2.75 5.8 4.5 5.75 4.5 2.3 2.75 2.2 M10.0 6.15 L8.5 6.15 8.4 6.15 8.25 6.15 8.15 6.15 8.05 6.15 7.0 6.2 7.0 9.35 8.0 9.2 8.1 9.25 8.25 9.15 8.4 9.2 8.5 9.15 10.0 8.95 10.0 6.15 M6.75 2.45 L6.6 2.4 6.5 2.4 5.0 2.3 5.0 5.75 6.5 5.7 6.65 5.75 6.75 5.7 8.0 5.65 8.0 2.5 6.75 2.45 M11.25 12.1 L11.25 9.3 10.3 9.4 10.2 9.4 10.05 9.45 8.55 9.65 8.5 9.65 8.5 12.95 11.25 12.1 M14.3 8.9 L14.25 8.9 14.25 11.15 15.2 10.85 15.25 10.85 15.25 8.75 14.3 8.9 M13.75 8.95 L12.8 9.1 12.75 9.1 11.8 9.2 11.75 9.2 11.75 11.95 13.7 11.35 13.75 11.3 13.75 8.95 M14.0 6.05 L13.9 6.05 13.8 6.05 13.0 6.1 13.0 8.55 13.7 8.45 13.85 8.5 Q13.9 8.4 14.0 8.4 L14.15 8.45 14.2 8.4 15.2 8.25 15.25 8.25 15.25 6.05 14.25 6.05 14.15 6.05 14.0 6.05 M12.5 5.6 L12.65 5.65 12.75 5.6 13.75 5.55 13.75 2.85 11.75 2.7 11.75 5.6 12.5 5.6 M11.4 6.1 L11.3 6.1 10.5 6.15 10.5 8.9 11.25 8.8 11.35 8.85 11.5 8.75 11.6 8.8 Q11.65 8.7 11.75 8.7 L12.5 8.65 12.5 6.1 11.75 6.1 11.65 6.1 11.5 6.1 11.4 6.1 M11.25 2.7 L10.25 2.65 10.1 2.6 10.0 2.6 8.5 2.55 8.5 5.65 10.0 5.65 10.15 5.7 10.25 5.65 11.25 5.6 11.25 2.7 M15.25 5.55 L15.25 2.9 14.25 2.85 14.25 5.55 15.25 5.55 M14.25 -1.2 L14.3 -1.2 15.25 -1.1 15.25 -3.35 15.2 -3.35 14.25 -3.5 14.25 -1.2 M13.85 -0.75 L13.75 -0.75 13.0 -0.8 13.0 2.35 13.75 2.35 13.9 2.4 14.0 2.35 14.15 2.4 14.25 2.35 15.25 2.4 15.25 -0.6 14.25 -0.7 14.15 -0.7 14.0 -0.7 13.85 -0.75 M11.4 -0.95 L11.25 -0.95 10.5 -1.0 10.5 2.15 11.3 2.2 11.4 2.25 11.5 2.2 11.65 2.25 11.8 2.2 12.5 2.3 12.5 -0.8 11.75 -0.9 11.6 -0.95 11.5 -0.95 11.4 -0.95 M13.7 -3.55 L12.95 -3.7 12.85 -3.75 12.7 -3.75 11.75 -3.9 11.75 -1.4 11.8 -1.4 12.8 -1.3 12.9 -1.25 13.05 -1.3 13.75 -1.25 13.75 -3.55 13.7 -3.55 M14.05 -6.05 L14.0 -6.05 13.85 -6.1 13.7 -6.1 13.0 -6.3 13.0 -4.2 13.05 -4.2 13.8 -4.05 13.9 -4.0 14.0 -4.05 14.2 -3.95 14.3 -4.0 15.25 -3.85 15.25 -5.65 14.2 -5.95 14.05 -6.05 M14.25 -6.45 L14.3 -6.45 15.25 -6.15 15.25 -8.15 14.25 -8.55 14.25 -6.45 M11.85 -7.2 L12.6 -6.95 12.7 -6.9 12.85 -6.9 13.75 -6.6 13.75 -8.8 13.7 -8.8 11.75 -9.6 11.75 -7.2 11.85 -7.2 M11.3 -6.85 L11.2 -6.85 10.5 -7.0 10.5 -4.6 10.55 -4.6 11.3 -4.5 11.45 -4.4 11.5 -4.45 11.7 -4.35 11.8 -4.4 12.5 -4.3 12.5 -6.35 12.55 -6.45 12.45 -6.45 11.7 -6.7 11.6 -6.75 11.5 -6.75 11.35 -6.8 11.3 -6.85 M10.0 -1.1 L8.5 -1.2 8.35 -1.25 8.25 -1.25 8.15 -1.25 8.0 -1.25 7.0 -1.3 7.0 1.95 8.05 2.0 8.15 2.05 8.25 2.0 8.4 2.05 8.55 2.05 10.0 2.1 10.0 -1.1 M10.1 -4.2 L9.95 -4.2 8.5 -4.45 8.5 -1.7 8.55 -1.7 10.05 -1.6 10.2 -1.55 10.3 -1.55 11.25 -1.45 11.25 -4.0 10.5 -4.1 10.35 -4.15 10.25 -4.15 10.1 -4.2 M4.85 -1.55 L4.75 -1.55 4.65 -1.55 4.5 -1.55 3.0 -1.7 3.0 1.75 4.55 1.8 4.65 1.85 4.75 1.8 4.9 1.85 5.05 1.8 6.5 1.9 6.5 -1.4 5.0 -1.5 4.85 -1.55 M5.0 -2.0 L5.05 -2.0 6.55 -1.9 6.7 -1.85 6.8 -1.85 8.0 -1.75 8.0 -4.5 7.95 -4.5 6.7 -4.7 6.6 -4.75 6.45 -4.75 5.0 -5.0 5.0 -2.0 M4.5 -5.1 L4.45 -5.1 2.7 -5.35 2.6 -5.4 2.45 -5.4 0.0 -5.8 0.0 -2.45 0.05 -2.45 2.8 -2.2 2.9 -2.15 3.05 -2.2 4.5 -2.05 4.5 -5.1 M2.55 -9.45 L2.45 -9.45 -0.05 -10.2 -0.15 -10.25 -0.25 -10.25 -0.4 -10.3 -0.45 -10.35 -0.55 -10.35 -3.25 -11.15 -3.25 -6.85 -0.45 -6.4 -0.3 -6.3 -0.25 -6.35 -0.05 -6.25 0.05 -6.3 2.5 -5.9 2.5 -9.35 2.55 -9.45 M9.95 -7.2 L8.45 -7.65 8.3 -7.75 8.25 -7.75 8.1 -7.8 7.95 -7.8 7.0 -8.1 7.0 -5.15 8.05 -5.0 8.2 -4.9 8.25 -4.95 8.4 -4.9 8.55 -4.95 10.0 -4.7 10.0 -7.2 9.95 -7.2 M8.6 -8.15 L10.1 -7.7 10.2 -7.65 10.25 -7.65 10.45 -7.55 10.6 -7.55 11.25 -7.35 11.25 -9.85 11.2 -9.85 8.5 -10.95 8.5 -8.15 8.6 -8.15 M6.5 -8.25 L4.95 -8.7 4.8 -8.8 4.75 -8.8 4.6 -8.85 4.45 -8.85 3.0 -9.3 3.0 -5.8 4.55 -5.6 4.7 -5.5 4.75 -5.55 4.95 -5.45 5.05 -5.5 6.5 -5.25 6.5 -8.25 M8.0 -11.2 L7.95 -11.2 5.0 -12.4 5.0 -9.2 5.1 -9.2 6.65 -8.75 6.75 -8.7 Q6.75 -8.7 6.85 -8.65 L8.0 -8.3 8.0 -11.2 M4.45 -12.65 L0.0 -14.45 0.0 -10.7 0.1 -10.7 2.6 -9.95 2.7 -9.9 2.85 -9.9 4.5 -9.35 4.5 -12.65 4.45 -12.65" fill="#000000" fill-rule="evenodd" stroke="none"/>
    <path d="M4.45 -12.65 L4.5 -12.65 4.5 -9.35 2.85 -9.9 2.7 -9.9 2.6 -9.95 0.1 -10.7 0.0 -10.7 0.0 -14.45 4.45 -12.65 M8.0 -11.2 L8.0 -8.3 6.85 -8.65 Q6.75 -8.7 6.75 -8.7 L6.65 -8.75 5.1 -9.2 5.0 -9.2 5.0 -12.4 7.95 -11.2 8.0 -11.2 M6.5 -8.25 L6.5 -5.25 5.05 -5.5 4.95 -5.45 4.75 -5.55 4.7 -5.5 4.55 -5.6 3.0 -5.8 3.0 -9.3 4.45 -8.85 4.6 -8.85 4.75 -8.8 4.8 -8.8 4.95 -8.7 6.5 -8.25 M8.6 -8.15 L8.5 -8.15 8.5 -10.95 11.2 -9.85 11.25 -9.85 11.25 -7.35 10.6 -7.55 10.45 -7.55 10.25 -7.65 10.2 -7.65 10.1 -7.7 8.6 -8.15 M9.95 -7.2 L10.0 -7.2 10.0 -4.7 8.55 -4.95 8.4 -4.9 8.25 -4.95 8.2 -4.9 8.05 -5.0 7.0 -5.15 7.0 -8.1 7.95 -7.8 8.1 -7.8 8.25 -7.75 8.3 -7.75 8.45 -7.65 9.95 -7.2 M2.55 -9.45 L2.5 -9.35 2.5 -5.9 0.05 -6.3 -0.05 -6.25 -0.25 -6.35 -0.3 -6.3 -0.45 -6.4 -3.25 -6.85 -3.25 -11.15 -0.55 -10.35 -0.45 -10.35 -0.4 -10.3 -0.25 -10.25 -0.15 -10.25 -0.05 -10.2 2.45 -9.45 2.55 -9.45 M4.5 -5.1 L4.5 -2.05 3.05 -2.2 2.9 -2.15 2.8 -2.2 0.05 -2.45 0.0 -2.45 0.0 -5.8 2.45 -5.4 2.6 -5.4 2.7 -5.35 4.45 -5.1 4.5 -5.1 M5.0 -2.0 L5.0 -5.0 6.45 -4.75 6.6 -4.75 6.7 -4.7 7.95 -4.5 8.0 -4.5 8.0 -1.75 6.8 -1.85 6.7 -1.85 6.55 -1.9 5.05 -2.0 5.0 -2.0 M4.85 -1.55 L5.0 -1.5 6.5 -1.4 6.5 1.9 5.05 1.8 4.9 1.85 4.75 1.8 4.65 1.85 4.55 1.8 3.0 1.75 3.0 -1.7 4.5 -1.55 4.65 -1.55 4.75 -1.55 4.85 -1.55 M10.1 -4.2 L10.25 -4.15 10.35 -4.15 10.5 -4.1 11.25 -4.0 11.25 -1.45 10.3 -1.55 10.2 -1.55 10.05 -1.6 8.55 -1.7 8.5 -1.7 8.5 -4.45 9.95 -4.2 10.1 -4.2 M10.0 -1.1 L10.0 2.1 8.55 2.05 8.4 2.05 8.25 2.0 8.15 2.05 8.05 2.0 7.0 1.95 7.0 -1.3 8.0 -1.25 8.15 -1.25 8.25 -1.25 8.35 -1.25 8.5 -1.2 10.0 -1.1 M11.3 -6.85 L11.35 -6.8 11.5 -6.75 11.6 -6.75 11.7 -6.7 12.45 -6.45 12.55 -6.45 12.5 -6.35 12.5 -4.3 11.8 -4.4 11.7 -4.35 11.5 -4.45 11.45 -4.4 11.3 -4.5 10.55 -4.6 10.5 -4.6 10.5 -7.0 11.2 -6.85 11.3 -6.85 M11.85 -7.2 L11.75 -7.2 11.75 -9.6 13.7 -8.8 13.75 -8.8 13.75 -6.6 12.85 -6.9 12.7 -6.9 12.6 -6.95 11.85 -7.2 M14.25 -6.45 L14.25 -8.55 15.25 -8.15 15.25 -6.15 14.3 -6.45 14.25 -6.45 M14.05 -6.05 L14.2 -5.95 15.25 -5.65 15.25 -3.85 14.3 -4.0 14.2 -3.95 14.0 -4.05 13.9 -4.0 13.8 -4.05 13.05 -4.2 13.0 -4.2 13.0 -6.3 13.7 -6.1 13.85 -6.1 14.0 -6.05 14.05 -6.05 M13.7 -3.55 L13.75 -3.55 13.75 -1.25 13.05 -1.3 12.9 -1.25 12.8 -1.3 11.8 -1.4 11.75 -1.4 11.75 -3.9 12.7 -3.75 12.85 -3.75 12.95 -3.7 13.7 -3.55 M11.4 -0.95 L11.5 -0.95 11.6 -0.95 11.75 -0.9 12.5 -0.8 12.5 2.3 11.8 2.2 11.65 2.25 11.5 2.2 11.4 2.25 11.3 2.2 10.5 2.15 10.5 -1.0 11.25 -0.95 11.4 -0.95 M13.85 -0.75 L14.0 -0.7 14.15 -0.7 14.25 -0.7 15.25 -0.6 15.25 2.4 14.25 2.35 14.15 2.4 14.0 2.35 13.9 2.4 13.75 2.35 13.0 2.35 13.0 -0.8 13.75 -0.75 13.85 -0.75 M14.25 -1.2 L14.25 -3.5 15.2 -3.35 15.25 -3.35 15.25 -1.1 14.3 -1.2 14.25 -1.2 M15.25 5.55 L14.25 5.55 14.25 2.85 15.25 2.9 15.25 5.55 M11.25 2.7 L11.25 5.6 10.25 5.65 10.15 5.7 10.0 5.65 8.5 5.65 8.5 2.55 10.0 2.6 10.1 2.6 10.25 2.65 11.25 2.7 M11.4 6.1 L11.5 6.1 11.65 6.1 11.75 6.1 12.5 6.1 12.5 8.65 11.75 8.7 Q11.65 8.7 11.6 8.8 L11.5 8.75 11.35 8.85 11.25 8.8 10.5 8.9 10.5 6.15 11.3 6.1 11.4 6.1 M12.5 5.6 L11.75 5.6 11.75 2.7 13.75 2.85 13.75 5.55 12.75 5.6 12.65 5.65 12.5 5.6 M14.0 6.05 L14.15 6.05 14.25 6.05 15.25 6.05 15.25 8.25 15.2 8.25 14.2 8.4 14.15 8.45 14.0 8.4 Q13.9 8.4 13.85 8.5 L13.7 8.45 13.0 8.55 13.0 6.1 13.8 6.05 13.9 6.05 14.0 6.05 M13.75 8.95 L13.75 11.3 13.7 11.35 11.75 11.95 11.75 9.2 11.8 9.2 12.75 9.1 12.8 9.1 13.75 8.95 M14.3 8.9 L15.25 8.75 15.25 10.85 15.2 10.85 14.25 11.15 14.25 8.9 14.3 8.9 M11.25 12.1 L8.5 12.95 8.5 9.65 8.55 9.65 10.05 9.45 10.2 9.4 10.3 9.4 11.25 9.3 11.25 12.1 M6.75 2.45 L8.0 2.5 8.0 5.65 6.75 5.7 6.65 5.75 6.5 5.7 5.0 5.75 5.0 2.3 6.5 2.4 6.6 2.4 6.75 2.45 M10.0 6.15 L10.0 8.95 8.5 9.15 8.4 9.2 8.25 9.15 8.1 9.25 8.0 9.2 7.0 9.35 7.0 6.2 8.05 6.15 8.15 6.15 8.25 6.15 8.4 6.15 8.5 6.15 10.0 6.15 M2.75 2.2 L4.5 2.3 4.5 5.75 2.75 5.8 2.65 5.85 2.5 5.8 0.0 5.85 0.0 2.0 2.5 2.15 2.6 2.15 2.75 2.2 M0.0 1.5 L-0.1 1.55 -0.25 1.5 -0.35 1.55 -0.45 1.5 -3.25 1.35 -3.25 -2.25 -0.5 -2.0 -0.35 -2.0 -0.25 -2.0 -0.15 -2.0 0.0 -1.95 2.5 -1.7 2.5 1.65 0.0 1.5 M5.0 6.25 L6.5 6.2 6.5 9.4 5.0 9.6 Q4.9 9.6 4.85 9.7 L4.75 9.65 4.65 9.7 4.5 9.65 3.0 9.9 3.0 6.3 4.5 6.25 4.65 6.25 4.75 6.25 4.9 6.25 5.0 6.25 M2.5 6.3 L2.5 9.9 2.45 9.9 -0.05 10.25 -0.15 10.35 -0.25 10.3 -0.35 10.35 -0.5 10.3 -3.25 10.7 -3.25 6.4 -0.5 6.35 -0.35 6.35 -0.25 6.35 -0.1 6.35 0.0 6.35 2.5 6.3 M0.05 10.75 L2.55 10.4 2.65 10.4 2.8 10.4 4.5 10.15 4.5 14.2 0.0 15.6 0.0 10.75 0.05 10.75 M5.05 10.1 L6.8 9.85 6.9 9.85 7.05 9.85 8.0 9.7 8.0 13.15 5.0 14.05 5.0 10.1 5.05 10.1 M-7.15 -12.8 L-7.15 -17.45 -0.55 -14.7 -0.5 -14.7 -0.5 -10.85 -3.4 -11.75 -3.55 -11.75 -3.65 -11.8 -7.05 -12.8 -7.15 -12.8 M-7.55 -12.45 L-11.55 -12.05 -11.55 -17.15 -11.5 -17.15 -7.65 -17.55 -7.65 -12.65 -7.55 -12.45 M-11.5 -11.55 L-7.65 -11.95 -7.8 -7.7 -11.55 -7.45 -11.55 -11.55 -11.5 -11.55 M-11.5 -6.95 L-7.65 -7.25 -7.65 -3.0 -11.55 -3.1 -11.55 -6.95 -11.5 -6.95 M-3.7 -11.3 L-3.75 -11.2 -3.75 -6.95 -7.1 -7.5 -7.2 -7.45 -7.3 -7.5 -7.15 -12.25 -3.8 -11.3 -3.7 -11.3 M-3.65 -6.45 L-3.55 -6.4 -0.55 -5.9 -0.5 -5.9 -0.5 -2.5 -3.2 -2.75 -3.35 -2.7 -3.45 -2.75 -7.1 -3.1 -7.15 -3.1 -7.15 -7.0 -3.8 -6.45 -3.65 -6.45 M-3.75 -2.25 L-3.75 1.3 -7.15 1.1 -7.15 -2.6 -3.75 -2.25 M-7.65 -2.5 L-7.65 1.0 -11.55 0.9 -11.55 -2.6 -7.65 -2.5 M-0.5 2.0 L-0.5 5.85 -3.25 5.9 -3.35 5.95 -3.5 5.9 -7.15 6.0 -7.15 1.6 -3.75 1.8 -3.65 1.8 -3.5 1.8 -0.5 2.0 M-7.65 5.75 L-11.5 5.4 -11.55 5.4 -11.55 1.4 -7.65 1.5 -7.65 5.75 M-7.55 6.25 L-7.55 6.3 -7.55 6.35 -7.65 6.5 -7.65 11.2 -11.5 10.55 -11.55 10.55 -11.55 5.9 -7.65 6.25 -7.55 6.25 M-7.15 6.5 L-3.75 6.4 -3.75 10.75 -7.15 11.2 -7.15 6.5 M-7.1 11.7 L-3.7 11.25 -3.55 11.2 -3.45 11.2 -0.5 10.8 -0.5 15.75 -0.55 15.75 -7.15 17.85 -7.15 11.7 -7.1 11.7 M-7.65 11.7 L-7.65 17.7 -11.45 15.55 -11.55 15.5 -11.55 11.05 -7.7 11.7 -7.65 11.7" fill="url(#gradient0)" fill-rule="evenodd" stroke="none"/>
  </g>
  <defs>
    <radialGradient cx="0" cy="0" gradientTransform="matrix(0.028, 0.0, 0.0, 0.028, 2.25, 0.75)" gradientUnits="userSpaceOnUse" id="gradient0" r="819.2" spreadMethod="pad">
      <stop offset="0.0" stop-color="#bcbcbc"/>
      <stop offset="1.0" stop-color="#757575"/>
    </radialGradient>
  </defs>
</svg>
