<?xml version="1.0" encoding="UTF-8" standalone="no"?>
<svg xmlns:xlink="http://www.w3.org/1999/xlink" height="6.9px" width="23.0px" xmlns="http://www.w3.org/2000/svg">
  <g transform="matrix(1.0, 0.0, 0.0, 1.0, 11.5, 3.45)">
    <path d="M10.25 -2.25 Q11.25 -1.3 11.25 0.0 11.25 1.3 10.25 2.25 9.3 3.2 8.0 3.2 L0.0 3.2 -8.05 3.2 Q-9.35 3.2 -10.25 2.25 -11.25 1.3 -11.25 0.0 -11.25 -1.3 -10.25 -2.25 -9.35 -3.15 -8.05 -3.2 L0.0 -3.2 8.0 -3.2 Q9.3 -3.15 10.25 -2.25 M9.85 -0.8 Q9.5 -1.2 9.0 -1.2 8.5 -1.2 8.1 -0.8 7.75 -0.4 7.75 0.15 7.75 0.7 8.1 1.1 8.5 1.5 9.0 1.5 9.5 1.5 9.85 1.1 10.25 0.7 10.25 0.15 10.25 -0.4 9.85 -0.8 M0.0 -3.2 L0.0 3.2 0.0 -3.2 M-8.0 -0.8 Q-8.35 -1.2 -8.85 -1.2 L-9.75 -0.8 -10.1 0.15 -9.75 1.1 Q-9.35 1.5 -8.85 1.5 -8.35 1.5 -8.0 1.1 -7.6 0.7 -7.6 0.15 -7.6 -0.4 -8.0 -0.8" fill="url(#gradient0)" fill-rule="evenodd" stroke="none"/>
    <path d="M9.85 -0.8 Q10.25 -0.4 10.25 0.15 10.25 0.7 9.85 1.1 9.5 1.5 9.0 1.5 8.5 1.5 8.1 1.1 7.75 0.7 7.75 0.15 7.75 -0.4 8.1 -0.8 8.5 -1.2 9.0 -1.2 9.5 -1.2 9.85 -0.8 M-8.0 -0.8 Q-7.6 -0.4 -7.6 0.15 -7.6 0.7 -8.0 1.1 -8.35 1.5 -8.85 1.5 -9.35 1.5 -9.75 1.1 L-10.1 0.15 -9.75 -0.8 -8.85 -1.2 Q-8.35 -1.2 -8.0 -0.8" fill="#fefe50" fill-rule="evenodd" stroke="none"/>
    <path d="M10.25 -2.25 Q11.25 -1.3 11.25 0.0 11.25 1.3 10.25 2.25 9.3 3.2 8.0 3.2 L0.0 3.2 -8.05 3.2 Q-9.35 3.2 -10.25 2.25 -11.25 1.3 -11.25 0.0 -11.25 -1.3 -10.25 -2.25 -9.35 -3.15 -8.05 -3.2 L0.0 -3.2 8.0 -3.2 Q9.3 -3.15 10.25 -2.25 M9.85 -0.8 Q10.25 -0.4 10.25 0.15 10.25 0.7 9.85 1.1 9.5 1.5 9.0 1.5 8.5 1.5 8.1 1.1 7.75 0.7 7.75 0.15 7.75 -0.4 8.1 -0.8 8.5 -1.2 9.0 -1.2 9.5 -1.2 9.85 -0.8 M0.0 3.2 L0.0 -3.2 M-8.0 -0.8 Q-7.6 -0.4 -7.6 0.15 -7.6 0.7 -8.0 1.1 -8.35 1.5 -8.85 1.5 -9.35 1.5 -9.75 1.1 L-10.1 0.15 -9.75 -0.8 -8.85 -1.2 Q-8.35 -1.2 -8.0 -0.8 Z" fill="none" stroke="#000000" stroke-linecap="round" stroke-linejoin="round" stroke-width="0.5"/>
  </g>
  <defs>
    <radialGradient cx="0" cy="0" gradientTransform="matrix(0.0, 0.0093, -0.032, 0.0, 0.0, 0.0)" gradientUnits="userSpaceOnUse" id="gradient0" r="819.2" spreadMethod="pad">
      <stop offset="0.09019607843137255" stop-color="#a5a5a5"/>
      <stop offset="0.45098039215686275" stop-color="#000000"/>
    </radialGradient>
  </defs>
</svg>
