<?xml version="1.0" encoding="UTF-8" standalone="no"?>
<svg xmlns:xlink="http://www.w3.org/1999/xlink" height="20.3px" width="29.1px" xmlns="http://www.w3.org/2000/svg">
  <g transform="matrix(1.0, 0.0, 0.0, 1.0, 14.55, 10.3)">
    <path d="M3.5 1.1 L3.5 2.6 -3.85 2.6 -3.85 1.1 3.5 1.1 M-3.85 -1.0 L-3.85 -2.65 3.5 -2.65 3.5 -1.0 -3.85 -1.0" fill="#ffff52" fill-rule="evenodd" stroke="none"/>
    <path d="M3.5 -1.0 L4.5 -1.0 4.5 1.1 3.5 1.1 -3.85 1.1 -4.5 1.1 -4.5 -1.0 -3.85 -1.0 3.5 -1.0" fill="#f3f301" fill-rule="evenodd" stroke="none"/>
    <path d="M12.0 -1.35 Q11.5 -1.35 11.1 -0.95 10.75 -0.55 10.75 0.0 10.75 0.55 11.1 0.95 11.5 1.35 12.0 1.35 12.5 1.35 12.85 0.95 13.25 0.55 13.25 0.0 13.25 -0.55 12.85 -0.95 12.5 -1.35 12.0 -1.35 M13.3 -2.25 Q14.3 -1.3 14.3 0.0 14.3 1.3 13.3 2.25 12.35 3.2 11.05 3.2 L3.0 3.2 3.0 -3.2 11.05 -3.2 Q12.35 -3.15 13.3 -2.25" fill="url(#gradient0)" fill-rule="evenodd" stroke="none"/>
    <path d="M-11.15 -0.7 Q-11.5 -1.1 -12.0 -1.1 -12.5 -1.1 -12.9 -0.7 -13.25 -0.3 -13.25 0.25 -13.25 0.8 -12.9 1.2 -12.5 1.6 -12.0 1.6 -11.5 1.6 -11.15 1.2 -10.75 0.8 -10.75 0.25 -10.75 -0.3 -11.15 -0.7 M-3.0 -3.2 L-3.0 3.2 -11.05 3.2 Q-12.4 3.2 -13.3 2.25 -14.35 1.3 -14.3 0.0 -14.35 -1.3 -13.3 -2.25 -12.4 -3.15 -11.05 -3.2 L-3.0 -3.2" fill="url(#gradient1)" fill-rule="evenodd" stroke="none"/>
    <path d="M12.0 -1.35 Q12.5 -1.35 12.85 -0.95 13.25 -0.55 13.25 0.0 13.25 0.55 12.85 0.95 12.5 1.35 12.0 1.35 11.5 1.35 11.1 0.95 10.75 0.55 10.75 0.0 10.75 -0.55 11.1 -0.95 11.5 -1.35 12.0 -1.35 M13.3 -2.25 Q14.3 -1.3 14.3 0.0 14.3 1.3 13.3 2.25 12.35 3.2 11.05 3.2 L3.0 3.2 3.0 -3.2 11.05 -3.2 Q12.35 -3.15 13.3 -2.25 M-11.15 -0.7 Q-10.75 -0.3 -10.75 0.25 -10.75 0.8 -11.15 1.2 -11.5 1.6 -12.0 1.6 -12.5 1.6 -12.9 1.2 -13.25 0.8 -13.25 0.25 -13.25 -0.3 -12.9 -0.7 -12.5 -1.1 -12.0 -1.1 -11.5 -1.1 -11.15 -0.7 M-3.0 -3.2 L-3.0 3.2 -11.05 3.2 Q-12.4 3.2 -13.3 2.25 -14.35 1.3 -14.3 0.0 -14.35 -1.3 -13.3 -2.25 -12.4 -3.15 -11.05 -3.2 L-3.0 -3.2 Z" fill="none" stroke="#000000" stroke-linecap="round" stroke-linejoin="round" stroke-width="0.5"/>
    <path d="M5.8 -0.15 Q5.8 4.05 4.05 7.0 2.35 10.0 -0.1 10.0 -2.55 10.0 -4.3 7.0 -6.0 4.05 -6.0 -0.15 -6.0 -4.35 -4.3 -7.35 -2.55 -10.3 -0.1 -10.3 2.35 -10.3 4.05 -7.35 5.8 -4.35 5.8 -0.15" fill="url(#gradient2)" fill-rule="evenodd" stroke="none"/>
  </g>
  <defs>
    <radialGradient cx="0" cy="0" gradientTransform="matrix(0.0, 0.0093, -0.0322, 0.0, 3.0, 0.0)" gradientUnits="userSpaceOnUse" id="gradient0" r="819.2" spreadMethod="pad">
      <stop offset="0.09019607843137255" stop-color="#a5a5a5"/>
      <stop offset="0.45098039215686275" stop-color="#000000"/>
    </radialGradient>
    <radialGradient cx="0" cy="0" gradientTransform="matrix(0.0, 0.0093, -0.0322, 0.0, -3.0, 0.0)" gradientUnits="userSpaceOnUse" id="gradient1" r="819.2" spreadMethod="pad">
      <stop offset="0.09019607843137255" stop-color="#a5a5a5"/>
      <stop offset="0.45098039215686275" stop-color="#000000"/>
    </radialGradient>
    <radialGradient cx="0" cy="0" gradientTransform="matrix(0.0081, 0.0, 0.0, 0.0153, -0.1, -0.15)" gradientUnits="userSpaceOnUse" id="gradient2" r="819.2" spreadMethod="pad">
      <stop offset="0.4980392156862745" stop-color="#ffff35" stop-opacity="0.8"/>
      <stop offset="1.0" stop-color="#ffffff" stop-opacity="0.0"/>
    </radialGradient>
  </defs>
</svg>
