<?xml version="1.0" encoding="UTF-8" standalone="no"?>
<svg xmlns:xlink="http://www.w3.org/1999/xlink" height="20.95px" width="49.5px" xmlns="http://www.w3.org/2000/svg">
  <g transform="matrix(1.0, 0.0, 0.0, 1.0, 23.4, 10.0)">
    <path d="M6.0 -6.65 L6.1 -6.55 6.3 -6.55 6.45 -6.7 6.45 -6.9 6.65 -7.65 7.0 -8.15 7.0 -8.1 Q7.5 -9.0 8.7 -8.85 L8.75 -8.85 Q9.3 -8.75 9.3 -8.25 9.3 -6.45 7.7 -6.0 L7.65 -5.95 Q6.05 -5.2 6.0 -3.75 L5.9 -3.65 5.85 -3.65 Q5.4 -3.3 5.5 -2.85 4.5 -2.35 4.25 -1.7 L4.15 -1.5 3.75 -1.2 Q3.4 -1.2 2.95 -1.5 L2.3 -1.8 Q1.9 -2.05 2.0 -2.6 L2.0 -2.65 2.25 -3.05 Q2.65 -3.15 2.65 -3.5 L2.9 -3.95 2.95 -3.95 4.35 -4.6 4.7 -4.9 4.7 -4.95 4.8 -5.45 4.8 -5.4 Q5.0 -6.0 5.85 -6.25 L6.0 -6.35 6.0 -6.55 5.95 -6.65 6.0 -6.65 M12.45 -1.8 L12.5 -1.75 13.55 -1.7 16.75 -2.1 17.4 -2.05 20.25 -1.85 20.3 -1.85 22.55 -2.0 22.65 -2.0 22.7 -2.1 Q23.05 -2.7 23.75 -2.65 L24.5 -2.6 24.7 -2.6 Q25.55 -2.4 25.6 -1.5 L25.6 -1.45 Q25.7 -0.05 24.45 0.2 23.45 0.45 23.15 -0.15 L23.0 -0.25 22.8 -0.25 22.0 -0.15 21.95 -0.15 21.5 -0.1 Q20.45 -0.1 19.6 0.5 L19.25 0.65 19.2 0.65 18.45 0.6 17.25 0.45 17.2 0.45 15.2 0.2 13.95 0.25 12.75 0.4 Q11.5 0.55 10.35 1.0 L10.25 1.05 10.0 0.65 9.85 0.25 9.85 0.2 Q9.7 -1.3 10.55 -2.05 L10.75 -2.05 11.75 -2.0 12.45 -1.8 M16.05 4.55 L16.55 4.45 Q17.55 4.3 17.7 4.85 L17.75 5.25 Q17.65 6.2 17.15 6.55 L15.5 6.9 Q14.85 6.75 14.4 5.95 L14.25 5.85 14.05 5.75 13.6 5.4 13.05 5.1 Q11.75 4.85 10.5 4.2 L10.35 4.15 10.2 4.2 9.4 4.15 9.35 4.1 Q9.1 3.9 8.8 3.85 L7.8 3.7 7.45 3.65 7.45 3.55 7.65 2.9 Q8.0 2.05 8.4 1.5 9.05 1.55 9.35 1.85 L9.55 2.1 10.4 2.75 12.3 3.1 Q13.0 3.05 13.3 3.4 13.8 4.3 14.9 4.65 L14.8 4.9 14.8 5.1 14.9 5.25 15.1 5.25 15.25 5.1 15.55 4.75 15.6 4.7 Q15.75 4.55 16.0 4.55 L16.05 4.55 M-18.05 -9.4 Q-16.9 -9.15 -16.75 -8.0 L-16.75 -7.95 -16.75 -7.75 -16.75 -7.7 -16.65 -7.5 -16.5 -7.45 Q-14.55 -7.3 -13.15 -5.8 -12.7 -5.25 -11.55 -5.1 L-11.5 -5.1 -10.3 -4.4 Q-9.5 -3.6 -8.5 -3.6 -7.7 -3.55 -7.15 -2.8 L-6.7 -2.35 Q-7.2 -1.3 -8.05 -1.05 L-8.7 -0.95 -8.75 -0.95 -8.9 -1.2 -9.0 -1.3 Q-9.45 -2.2 -10.15 -2.45 L-10.6 -2.75 -10.65 -2.75 -10.9 -2.85 -10.9 -2.9 Q-12.3 -3.3 -13.3 -4.4 L-13.5 -4.65 -13.45 -4.6 Q-14.9 -7.05 -17.85 -6.75 L-18.45 -7.05 -19.3 -7.3 -19.35 -7.3 -19.55 -7.6 Q-19.8 -8.6 -19.5 -9.05 -19.25 -9.5 -18.5 -9.5 L-18.1 -9.4 -18.05 -9.4 M-10.9 1.35 L-10.7 1.3 Q-9.5 1.0 -8.4 1.9 L-8.0 2.1 -7.8 2.25 -7.75 2.35 -13.3 4.65 -13.25 4.65 -14.1 5.15 -15.2 6.3 -16.15 7.0 -16.2 7.0 -16.8 7.4 -16.8 7.45 Q-17.2 7.85 -17.7 7.75 -18.65 7.6 -19.35 8.1 L-19.7 8.35 -19.7 8.65 -20.0 8.75 -20.05 9.0 -20.2 8.9 -20.25 8.75 -20.8 9.8 -21.1 10.1 -21.1 10.15 Q-21.5 10.5 -21.95 10.45 -23.0 10.35 -22.9 9.3 L-22.85 8.55 -22.85 8.5 Q-22.7 7.05 -21.5 6.8 L-21.25 6.8 Q-19.55 6.8 -18.35 5.4 L-18.35 5.35 -17.95 5.15 -16.35 4.6 -15.65 4.4 Q-14.9 4.25 -14.1 3.65 L-11.1 1.75 -11.05 1.7 -10.95 1.65 -10.9 1.45 -10.9 1.35" fill="#ffffff" fill-rule="evenodd" stroke="none"/>
    <path d="M7.25 4.1 L7.4 4.05 7.5 3.9 7.5 3.95 7.55 4.1 7.7 4.2 7.25 4.1" fill="#009a00" fill-rule="evenodd" stroke="none"/>
    <path d="M6.0 -6.65 L6.0 -6.7 Q5.75 -7.2 6.25 -7.95 L6.3 -7.95 6.55 -8.35 Q7.2 -9.55 8.8 -9.35 9.8 -9.15 9.8 -8.25 9.8 -6.05 7.85 -5.5 6.55 -4.9 6.5 -3.75 6.55 -3.45 6.15 -3.2 5.9 -3.05 6.0 -2.85 L6.0 -2.65 5.85 -2.5 Q4.95 -2.1 4.7 -1.5 L4.65 -1.45 4.65 -1.4 4.65 -1.25 Q4.3 -0.7 3.8 -0.7 3.3 -0.65 2.65 -1.1 L2.15 -1.35 2.1 -1.35 Q1.3 -1.75 1.5 -2.7 1.5 -3.25 2.1 -3.5 L2.15 -3.55 Q2.2 -4.15 2.7 -4.4 3.35 -4.85 4.2 -5.1 L4.3 -5.55 4.35 -5.55 Q4.6 -6.4 5.7 -6.75 L5.9 -6.7 5.95 -6.65 6.0 -6.55 6.0 -6.35 5.85 -6.25 Q5.0 -6.0 4.8 -5.4 L4.8 -5.45 4.7 -4.95 4.7 -4.9 4.35 -4.6 2.95 -3.95 2.9 -3.95 2.65 -3.5 Q2.65 -3.15 2.25 -3.05 L2.0 -2.65 2.0 -2.6 Q1.9 -2.05 2.3 -1.8 L2.95 -1.5 Q3.4 -1.2 3.75 -1.2 L4.15 -1.5 4.25 -1.7 Q4.5 -2.35 5.5 -2.85 5.4 -3.3 5.85 -3.65 L5.9 -3.65 6.0 -3.75 Q6.05 -5.2 7.65 -5.95 L7.7 -6.0 Q9.3 -6.45 9.3 -8.25 9.3 -8.75 8.75 -8.85 L8.7 -8.85 Q7.5 -9.0 7.0 -8.1 L7.0 -8.15 6.65 -7.65 6.45 -6.9 6.45 -6.7 6.3 -6.55 6.1 -6.55 6.0 -6.65 M12.45 -1.8 L11.75 -2.0 10.75 -2.05 10.55 -2.05 Q9.7 -1.3 9.85 0.2 L9.85 0.25 10.0 0.65 10.25 1.05 10.35 1.0 Q11.5 0.55 12.75 0.4 L13.95 0.25 15.2 0.2 17.2 0.45 17.25 0.45 18.45 0.6 19.2 0.65 19.25 0.65 19.6 0.5 Q20.45 -0.1 21.5 -0.1 L21.95 -0.15 22.0 -0.15 22.8 -0.25 23.0 -0.25 23.15 -0.15 Q23.45 0.45 24.45 0.2 25.7 -0.05 25.6 -1.45 L25.6 -1.5 Q25.55 -2.4 24.7 -2.6 L24.5 -2.6 23.75 -2.65 Q23.05 -2.7 22.7 -2.1 L22.65 -2.0 22.55 -2.0 20.3 -1.85 20.25 -1.85 17.4 -2.05 16.75 -2.1 13.55 -1.7 12.5 -1.75 12.45 -1.8 M10.75 -2.55 L10.8 -2.55 11.75 -2.5 12.75 -2.2 13.45 -2.2 16.75 -2.6 17.5 -2.55 20.25 -2.35 22.4 -2.5 Q22.9 -3.2 23.8 -3.15 L24.5 -3.1 24.75 -3.1 24.8 -3.1 Q26.0 -2.8 26.1 -1.5 26.2 0.35 24.55 0.7 23.3 1.0 22.8 0.25 L22.05 0.35 21.5 0.4 Q20.65 0.4 19.9 0.9 L19.3 1.15 18.25 1.05 17.3 0.95 14.95 0.65 14.9 0.6 14.05 0.75 12.8 0.9 Q11.6 1.05 10.5 1.5 L10.4 1.5 10.3 1.55 10.2 1.55 10.05 1.5 9.55 0.85 9.35 0.3 Q9.15 -1.65 10.3 -2.5 L10.45 -2.55 10.75 -2.55 M16.05 4.55 L16.0 4.55 Q15.75 4.55 15.6 4.7 L15.55 4.75 15.25 5.1 15.1 5.25 14.9 5.25 14.8 5.1 14.8 4.9 14.9 4.65 Q13.8 4.3 13.3 3.4 13.0 3.05 12.3 3.1 L10.4 2.75 9.55 2.1 9.35 1.85 Q9.05 1.55 8.4 1.5 8.0 2.05 7.65 2.9 L7.45 3.55 7.45 3.65 7.8 3.7 8.8 3.85 Q9.1 3.9 9.35 4.1 L9.4 4.15 10.2 4.2 10.35 4.15 10.5 4.2 Q11.75 4.85 13.05 5.1 L13.6 5.4 14.05 5.75 14.25 5.85 14.4 5.95 Q14.85 6.75 15.5 6.9 L17.15 6.55 Q17.65 6.2 17.75 5.25 L17.7 4.85 Q17.55 4.3 16.55 4.45 L16.05 4.55 M7.25 4.1 L7.2 4.1 6.5 4.0 6.3 3.9 6.25 3.75 6.35 3.55 6.55 3.5 6.95 3.55 6.95 3.5 6.95 3.45 Q7.0 3.1 7.2 2.7 L8.05 1.15 8.1 1.1 8.2 1.0 8.25 1.0 Q9.3 1.0 9.75 1.55 L9.8 1.6 9.9 1.75 10.65 2.3 Q11.3 2.7 12.25 2.6 13.35 2.55 13.7 3.1 L13.75 3.15 Q14.25 4.0 15.35 4.25 L15.95 4.05 16.45 3.95 Q17.95 3.7 18.2 4.7 L18.25 5.25 18.25 5.3 Q18.15 6.55 17.4 7.0 16.25 7.6 15.4 7.4 14.55 7.2 13.95 6.25 L13.85 6.2 13.25 5.75 13.2 5.7 12.95 5.6 Q11.65 5.35 10.35 4.7 9.7 5.05 9.05 4.5 L8.7 4.35 7.75 4.2 7.7 4.2 7.55 4.1 7.5 3.95 7.5 3.9 7.4 4.05 7.25 4.1 M-18.05 -9.4 L-18.1 -9.4 -18.5 -9.5 Q-19.25 -9.5 -19.5 -9.05 -19.8 -8.6 -19.55 -7.6 L-19.35 -7.3 -19.3 -7.3 -18.45 -7.05 -17.85 -6.75 Q-14.9 -7.05 -13.45 -4.6 L-13.5 -4.65 -13.3 -4.4 Q-12.3 -3.3 -10.9 -2.9 L-10.9 -2.85 -10.65 -2.75 -10.6 -2.75 -10.15 -2.45 Q-9.45 -2.2 -9.0 -1.3 L-8.9 -1.2 -8.75 -0.95 -8.7 -0.95 -8.05 -1.05 Q-7.2 -1.3 -6.7 -2.35 L-7.15 -2.8 Q-7.7 -3.55 -8.5 -3.6 -9.5 -3.6 -10.3 -4.4 L-11.5 -5.1 -11.55 -5.1 Q-12.7 -5.25 -13.15 -5.8 -14.55 -7.3 -16.5 -7.45 L-16.65 -7.5 -16.75 -7.7 -16.75 -7.75 -16.75 -7.95 -16.75 -8.0 Q-16.9 -9.15 -18.05 -9.4 M-19.95 -9.3 Q-19.6 -10.0 -18.5 -10.0 L-17.95 -9.9 Q-16.4 -9.55 -16.25 -8.0 L-16.25 -7.9 Q-14.25 -7.7 -12.8 -6.15 -12.4 -5.75 -11.45 -5.6 L-9.95 -4.75 Q-9.3 -4.1 -8.5 -4.1 L-8.45 -4.1 Q-7.4 -4.05 -6.75 -3.1 L-6.3 -2.7 -6.15 -2.6 -6.15 -2.4 Q-6.75 -0.85 -7.9 -0.55 L-8.85 -0.5 -8.95 -0.5 -9.3 -0.85 -9.45 -1.1 Q-9.8 -1.8 -10.35 -2.0 L-10.9 -2.35 -11.05 -2.4 Q-12.6 -2.8 -13.7 -4.05 L-13.65 -4.05 -13.9 -4.35 Q-15.2 -6.55 -17.9 -6.25 L-18.1 -6.3 -18.55 -6.55 -19.55 -6.85 Q-20.0 -7.1 -20.05 -7.5 -20.35 -8.7 -19.95 -9.3 M-7.75 2.35 L-7.7 2.35 -7.5 2.35 Q-7.4 2.35 -7.35 2.45 L-7.35 2.65 -7.5 2.8 -13.1 5.1 Q-13.5 5.2 -13.75 5.5 L-14.85 6.65 -15.9 7.45 -15.9 7.4 -16.5 7.8 Q-17.05 8.35 -17.8 8.25 -18.55 8.1 -19.05 8.5 L-19.0 8.5 -19.8 8.95 -20.4 10.1 -20.75 10.5 -20.8 10.5 Q-21.35 11.0 -22.0 10.95 -23.6 10.75 -23.4 9.25 L-23.35 8.5 Q-23.2 6.65 -21.6 6.3 L-21.55 6.3 -21.25 6.3 Q-19.75 6.3 -18.75 5.05 L-18.7 5.05 Q-18.5 4.8 -18.1 4.7 L-18.1 4.65 -16.55 4.15 -16.5 4.1 -15.8 3.9 Q-15.1 3.75 -14.4 3.25 -12.95 2.2 -11.35 1.3 L-11.3 1.25 -11.15 1.2 -10.95 1.3 -10.9 1.35 -10.9 1.45 -10.95 1.65 -11.05 1.7 -11.1 1.75 -14.1 3.65 Q-14.9 4.25 -15.65 4.4 L-16.35 4.6 -17.95 5.15 -18.35 5.35 -18.35 5.4 Q-19.55 6.8 -21.25 6.8 L-21.5 6.8 Q-22.7 7.05 -22.85 8.5 L-22.85 8.55 -22.9 9.3 Q-23.0 10.35 -21.95 10.45 -21.5 10.5 -21.1 10.15 L-21.1 10.1 -20.8 9.8 -20.25 8.75 -20.2 8.9 -20.05 9.0 -20.0 9.0 -19.85 8.95 -19.75 8.8 -19.7 8.65 -19.7 8.35 -19.35 8.1 Q-18.65 7.6 -17.7 7.75 -17.2 7.85 -16.8 7.45 L-16.8 7.4 -16.2 7.0 -16.15 7.0 -15.2 6.3 -14.1 5.15 -13.25 4.65 -13.3 4.65 -7.75 2.35" fill="#ffff00" fill-rule="evenodd" stroke="none"/>
    <path d="M3.25 -2.75 L4.85 -2.55 5.2 -2.45 5.55 -2.65 5.75 -2.75 6.25 -2.9 Q8.15 -3.15 9.2 -2.2 L9.6 -1.85 Q10.45 -1.3 10.35 -0.2 L10.25 0.2 Q10.85 1.45 9.8 2.75 8.45 4.35 6.7 3.7 L5.7 4.2 3.5 4.55 2.85 4.35 1.2 3.8 1.05 3.75 Q0.2 4.45 -1.0 4.2 L-3.3 3.8 -3.5 3.75 -4.05 4.1 -5.0 4.3 -5.95 4.3 -6.5 4.25 Q-8.3 4.25 -9.5 2.8 -11.3 2.6 -10.95 0.25 L-10.8 -0.5 Q-10.6 -1.55 -9.8 -1.75 L-9.75 -1.75 -9.7 -2.0 -9.3 -2.6 -8.5 -3.25 Q-7.25 -4.35 -5.5 -4.2 L-4.25 -4.1 Q-3.35 -4.1 -2.8 -3.45 -2.35 -3.0 -1.7 -2.6 L-0.8 -3.1 0.25 -3.4 Q1.85 -3.5 3.25 -2.75" fill="#ffffff" fill-rule="evenodd" stroke="none"/>
  </g>
</svg>
