<?xml version="1.0" encoding="UTF-8" standalone="no"?>
<svg xmlns:xlink="http://www.w3.org/1999/xlink" height="36.45px" width="74.75px" xmlns="http://www.w3.org/2000/svg">
  <g transform="matrix(1.0, 0.0, 0.0, 1.0, 35.4, 17.75)">
    <path d="M11.8 -14.45 L11.85 -14.4 12.05 -14.35 12.2 -14.45 12.25 -14.65 12.4 -15.1 Q13.15 -16.15 14.05 -16.2 14.65 -16.25 15.05 -15.6 L15.15 -15.25 15.0 -14.7 15.0 -14.65 Q14.2 -13.1 12.3 -13.25 L12.15 -13.2 Q11.25 -12.75 10.45 -11.5 L10.25 -10.75 10.2 -10.5 10.2 -10.45 9.9 -10.15 Q7.8 -8.3 6.7 -5.9 L6.4 -5.3 6.3 -4.7 Q6.5 -3.75 5.9 -3.1 L5.85 -3.1 5.6 -2.6 5.55 -2.55 5.45 -2.15 5.25 -1.85 4.95 -1.6 2.35 -1.45 1.85 -1.65 1.8 -1.7 Q0.95 -1.9 0.65 -2.45 L1.25 -2.8 1.7 -3.1 3.05 -4.65 3.1 -4.65 4.15 -5.9 4.15 -5.95 4.3 -6.25 6.4 -8.1 6.7 -8.25 6.65 -8.25 Q7.7 -8.95 8.25 -10.15 L8.25 -10.1 8.5 -10.5 8.5 -10.55 8.9 -10.85 10.25 -11.8 10.7 -12.25 10.7 -12.2 Q11.0 -13.25 11.7 -14.1 L11.75 -14.25 11.7 -14.4 11.8 -14.45 M8.8 -2.0 L12.25 -1.9 13.25 -1.85 13.55 -1.9 15.3 -2.1 16.9 -1.9 18.05 -1.85 18.55 -1.9 19.2 -1.8 19.25 -1.75 20.35 -1.8 22.65 -1.75 23.3 -1.65 28.0 -1.85 28.45 -2.0 30.95 -1.95 30.9 -1.95 31.5 -1.95 35.5 -2.25 35.7 -2.3 Q37.0 -3.5 38.6 -2.7 L38.85 -2.25 Q38.85 -0.8 37.65 -0.35 L37.6 -0.35 36.95 -0.15 36.05 -0.3 35.95 -0.4 35.8 -0.5 34.3 -0.85 33.75 -1.0 30.25 -1.1 30.2 -1.1 29.7 -1.05 28.0 -0.8 26.55 -0.85 26.5 -0.85 25.45 -0.75 19.8 -0.2 18.65 -0.1 18.65 -0.05 18.0 0.0 17.05 -0.15 17.05 -0.1 16.3 -0.3 15.85 -0.4 15.8 -0.45 13.6 -0.25 Q12.75 0.05 12.25 0.4 L12.3 0.4 11.75 0.6 11.75 0.65 9.35 0.5 9.25 0.45 9.15 0.35 9.1 0.35 8.6 0.15 8.25 -0.2 7.95 -0.25 7.65 -0.2 7.65 -0.25 7.65 -0.5 Q7.7 -1.6 8.65 -1.9 L8.8 -2.0 M23.2 9.2 L23.8 9.1 24.55 8.95 Q25.5 8.8 26.05 9.45 L26.05 9.4 Q26.35 9.8 26.2 10.4 L25.85 11.2 25.25 11.7 25.2 11.7 24.1 11.6 Q23.25 11.2 23.05 10.5 L23.05 10.4 Q22.9 10.15 22.7 10.2 L22.35 10.0 Q20.9 8.5 18.6 7.75 L18.6 7.8 Q17.4 7.4 16.6 6.85 L15.55 6.35 15.5 6.35 14.55 6.1 14.55 6.15 14.05 5.95 14.1 6.0 12.85 5.5 10.8 4.65 Q9.75 4.2 8.5 4.15 L8.3 4.1 6.1 2.7 6.05 2.65 5.55 2.35 Q5.9 1.15 7.15 0.5 L7.1 0.5 7.3 0.4 7.9 1.0 8.1 1.0 8.25 0.9 8.25 0.7 8.15 0.55 Q7.9 0.4 7.8 0.25 L8.0 0.25 8.05 0.25 8.2 0.45 8.35 0.6 8.75 0.75 8.8 1.1 Q8.9 1.35 9.25 1.35 L9.35 1.45 9.4 1.5 9.5 1.55 9.6 1.8 9.65 1.85 9.65 2.05 9.65 2.25 9.65 2.3 Q9.7 3.2 10.75 3.3 L11.3 3.5 11.95 3.8 12.0 3.8 Q13.7 4.0 15.1 4.8 15.6 5.1 15.85 5.35 L15.9 5.4 16.25 5.75 Q17.1 6.75 18.45 7.15 19.4 7.45 20.35 8.15 L20.8 8.5 Q21.45 9.2 22.85 9.05 L23.2 9.2 M-32.2 14.6 L-32.2 14.75 -32.05 14.9 -31.9 14.9 -32.0 14.9 -31.4 14.7 -31.5 14.7 -31.45 14.7 -31.4 14.65 -31.4 14.7 Q-29.8 13.75 -28.45 12.25 L-27.1 10.9 -26.8 10.55 -26.75 10.55 -25.9 9.85 -25.95 9.85 -25.2 9.75 Q-24.45 10.3 -23.8 9.4 -23.2 8.45 -22.15 7.9 L-22.2 7.9 -21.55 7.45 -21.55 7.4 -19.4 5.1 -18.65 4.5 -17.0 4.05 -16.3 3.7 -16.3 3.65 Q-15.35 2.55 -13.95 2.2 L-13.25 2.15 -12.45 2.05 -11.55 1.6 -9.75 0.25 Q-7.8 0.25 -6.6 1.4 L-6.2 1.75 Q-5.6 2.15 -5.45 2.75 L-7.0 2.95 -8.8 3.55 -8.85 3.55 -9.6 3.85 -10.5 4.0 Q-11.65 4.05 -12.4 4.9 -12.95 5.5 -13.75 5.6 L-13.8 5.6 -14.25 5.65 -14.3 5.65 Q-14.85 5.75 -15.25 6.0 L-16.3 6.4 -17.05 6.7 -20.6 8.55 -21.1 8.95 Q-22.05 10.2 -23.35 11.1 L-23.85 11.4 -23.85 11.35 Q-26.15 12.05 -27.25 13.55 L-27.7 14.0 -28.3 14.35 -28.35 14.35 -28.8 14.55 -28.85 14.55 Q-30.7 14.85 -31.6 16.35 L-31.85 16.8 -31.9 16.9 Q-31.95 17.45 -32.35 17.9 L-32.4 17.9 -32.6 18.05 -32.6 18.1 -34.4 18.05 -34.6 17.8 Q-35.35 16.4 -34.0 15.25 L-34.0 15.2 -33.9 15.2 -33.85 15.1 -33.7 14.85 -33.6 14.95 -33.4 14.95 -33.25 14.8 -33.25 14.65 -33.25 14.6 Q-32.8 14.45 -32.25 14.6 L-32.2 14.6 M-29.1 -16.05 Q-27.9 -15.25 -27.45 -13.65 L-27.4 -13.65 -27.1 -13.15 -26.3 -12.6 -25.6 -12.2 -24.35 -11.15 Q-24.1 -10.85 -23.75 -10.85 -22.85 -10.85 -22.1 -10.35 -21.0 -9.6 -19.8 -9.35 L-18.75 -9.2 -16.9 -8.7 -16.05 -8.3 -15.5 -7.95 -14.85 -7.35 -14.35 -7.0 -12.9 -6.35 -12.4 -5.9 Q-11.75 -5.1 -10.7 -5.2 -10.35 -5.25 -10.2 -5.0 L-9.6 -4.3 -5.85 -1.9 -5.85 -1.85 Q-5.95 -1.35 -6.15 -1.2 L-6.1 -1.2 Q-7.5 -0.35 -9.1 -0.9 L-9.25 -0.9 -9.35 -0.95 -10.7 -2.6 -11.15 -3.1 -12.05 -3.75 -12.7 -4.1 -12.9 -4.25 Q-14.2 -5.65 -15.85 -6.25 L-16.15 -6.35 -16.2 -6.4 Q-18.6 -7.0 -20.65 -8.65 L-21.0 -8.95 -21.05 -9.0 -21.8 -9.55 Q-22.85 -10.3 -24.25 -10.35 L-24.75 -10.35 Q-25.25 -10.35 -25.35 -10.8 L-25.6 -11.15 -27.25 -12.7 Q-28.15 -13.85 -30.25 -13.75 L-30.35 -13.7 -30.5 -13.75 Q-31.8 -13.75 -32.85 -14.25 L-32.9 -14.3 -33.0 -15.75 -32.9 -16.1 -32.9 -16.05 Q-32.3 -17.3 -30.75 -17.25 L-30.45 -17.2 -29.3 -16.2 -29.2 -16.15 -29.1 -16.05" fill="#ffffff" fill-rule="evenodd" stroke="none"/>
    <path d="M11.7 -14.4 L11.75 -14.25 11.7 -14.1 Q11.0 -13.25 10.7 -12.2 L10.7 -12.25 10.25 -11.8 8.9 -10.85 8.5 -10.55 8.5 -10.5 8.25 -10.1 8.25 -10.15 Q7.7 -8.95 6.65 -8.25 L6.7 -8.25 6.4 -8.1 4.3 -6.25 4.15 -5.95 4.15 -5.9 3.1 -4.65 3.05 -4.65 1.7 -3.1 1.25 -2.8 0.65 -2.45 Q0.95 -1.9 1.8 -1.7 L1.85 -1.65 2.35 -1.45 4.95 -1.6 5.25 -1.85 5.45 -2.15 5.55 -2.55 5.6 -2.6 5.85 -3.1 5.9 -3.1 Q6.5 -3.75 6.3 -4.7 L6.4 -5.3 6.7 -5.9 Q7.8 -8.3 9.9 -10.15 L10.2 -10.45 10.2 -10.5 10.25 -10.75 10.45 -11.5 Q11.25 -12.75 12.15 -13.2 L12.3 -13.25 Q14.2 -13.1 15.0 -14.65 L15.0 -14.7 15.15 -15.25 15.05 -15.6 Q14.65 -16.25 14.05 -16.2 13.15 -16.15 12.4 -15.1 L12.25 -14.65 12.2 -14.45 12.05 -14.35 11.85 -14.4 11.8 -14.45 11.75 -14.55 Q11.65 -14.85 12.0 -15.35 L12.0 -15.4 Q12.85 -16.65 14.0 -16.7 14.95 -16.75 15.5 -15.85 L15.65 -15.25 15.45 -14.45 15.4 -14.4 Q14.5 -12.65 12.35 -12.75 11.55 -12.3 10.85 -11.25 L10.9 -11.3 10.75 -10.75 10.6 -10.2 10.65 -10.2 10.2 -9.75 10.25 -9.75 Q8.2 -8.0 7.15 -5.7 L6.85 -5.1 Q6.75 -4.95 6.8 -4.8 7.0 -3.6 6.25 -2.8 L6.25 -2.75 6.05 -2.45 5.9 -1.95 5.6 -1.45 5.5 -1.4 5.25 -1.2 5.2 -1.15 2.15 -1.0 1.7 -1.2 Q0.45 -1.5 0.15 -2.45 L0.1 -2.6 0.2 -2.75 1.1 -3.25 1.15 -3.3 1.3 -3.4 2.75 -5.0 2.75 -5.05 3.7 -6.15 3.9 -6.55 Q4.75 -7.6 6.1 -8.5 L6.2 -8.5 6.35 -8.6 6.4 -8.65 Q7.3 -9.25 7.8 -10.35 L8.1 -10.85 8.15 -10.9 8.55 -11.2 Q9.15 -11.9 10.1 -12.25 L10.15 -12.3 10.2 -12.35 10.25 -12.35 Q10.6 -13.45 11.3 -14.4 L11.5 -14.5 11.65 -14.45 11.7 -14.4 M7.15 -0.05 L7.15 -0.25 7.15 -0.5 Q7.2 -1.9 8.5 -2.35 L8.45 -2.35 8.65 -2.45 8.75 -2.5 12.3 -2.4 13.25 -2.35 13.4 -2.35 13.5 -2.4 15.25 -2.6 17.05 -2.35 17.05 -2.4 17.95 -2.35 18.0 -2.35 18.45 -2.4 19.5 -2.2 20.2 -2.3 22.85 -2.2 22.9 -2.2 23.2 -2.15 23.25 -2.15 28.0 -2.35 28.15 -2.4 28.25 -2.4 31.1 -2.45 31.1 -2.4 31.35 -2.4 31.4 -2.45 35.45 -2.75 Q36.95 -4.05 38.8 -3.15 39.35 -2.9 39.35 -2.25 39.35 -0.5 37.8 0.1 L37.05 0.35 Q36.2 0.5 35.7 0.05 L35.65 0.0 Q34.8 -0.05 34.1 -0.4 L33.8 -0.5 33.75 -0.5 30.2 -0.6 29.8 -0.55 28.05 -0.3 26.5 -0.35 25.6 -0.25 25.55 -0.25 19.75 0.3 18.8 0.4 18.0 0.5 16.9 0.35 16.25 0.2 16.2 0.2 15.7 0.05 13.8 0.2 Q13.05 0.45 12.55 0.8 L12.55 0.85 11.9 1.1 9.85 1.2 10.1 1.7 10.15 2.05 10.15 2.25 Q10.2 2.75 10.8 2.8 L11.6 3.1 12.05 3.3 Q13.9 3.5 15.35 4.35 L16.25 5.05 16.6 5.4 Q17.4 6.25 18.6 6.65 L18.6 6.7 Q19.6 7.05 20.65 7.75 L21.1 8.1 21.15 8.15 Q21.7 8.7 22.95 8.5 L23.15 8.55 23.25 8.7 23.3 8.7 23.65 8.65 23.7 8.6 24.45 8.45 24.5 8.45 Q25.7 8.25 26.45 9.1 26.95 9.7 26.65 10.55 L26.3 11.4 Q25.95 12.1 25.3 12.2 L23.9 12.05 Q22.9 11.55 22.6 10.75 L22.5 10.65 22.05 10.4 Q20.65 8.95 18.45 8.25 17.2 7.8 16.35 7.25 L16.3 7.25 15.4 6.85 14.4 6.6 14.35 6.6 13.95 6.45 12.65 5.95 10.6 5.1 Q9.65 4.7 8.5 4.65 L8.1 4.55 5.75 3.05 5.15 2.75 5.05 2.65 5.0 2.45 Q5.3 0.9 6.9 0.05 L7.15 -0.05 M23.2 9.2 L22.85 9.05 Q21.45 9.2 20.8 8.5 L20.35 8.15 Q19.4 7.45 18.45 7.15 17.1 6.75 16.25 5.75 L15.9 5.4 15.85 5.35 Q15.6 5.1 15.1 4.8 13.7 4.0 12.0 3.8 L11.95 3.8 11.3 3.5 10.75 3.3 Q9.7 3.2 9.65 2.3 L9.65 2.25 9.65 2.05 9.65 1.85 9.6 1.8 9.5 1.55 9.4 1.5 9.35 1.45 9.25 1.35 Q8.9 1.35 8.8 1.1 L8.75 0.75 8.35 0.6 8.2 0.45 8.05 0.25 8.0 0.25 7.8 0.25 Q7.9 0.4 8.15 0.55 L8.25 0.7 8.25 0.9 8.1 1.0 7.9 1.0 7.3 0.4 7.1 0.5 7.15 0.5 Q5.9 1.15 5.55 2.35 L6.05 2.65 6.1 2.7 8.3 4.1 8.5 4.15 Q9.75 4.2 10.8 4.65 L12.85 5.5 14.1 6.0 14.05 5.95 14.55 6.15 14.55 6.1 15.5 6.35 15.55 6.35 16.6 6.85 Q17.4 7.4 18.6 7.8 L18.6 7.75 Q20.9 8.5 22.35 10.0 L22.7 10.2 Q22.9 10.15 23.05 10.4 L23.05 10.5 Q23.25 11.2 24.1 11.6 L25.2 11.7 25.25 11.7 25.85 11.2 26.2 10.4 Q26.35 9.8 26.05 9.4 L26.05 9.45 Q25.5 8.8 24.55 8.95 L23.8 9.1 23.2 9.2 M8.8 -2.0 L8.65 -1.9 Q7.7 -1.6 7.65 -0.5 L7.65 -0.25 7.65 -0.2 7.95 -0.25 8.25 -0.2 8.6 0.15 9.1 0.35 9.15 0.35 9.25 0.45 9.35 0.5 11.75 0.65 11.75 0.6 12.3 0.4 12.25 0.4 Q12.75 0.05 13.6 -0.25 L15.8 -0.45 15.85 -0.4 16.3 -0.3 17.05 -0.1 17.05 -0.15 18.0 0.0 18.65 -0.05 18.65 -0.1 19.8 -0.2 25.45 -0.75 26.5 -0.85 26.55 -0.85 28.0 -0.8 29.7 -1.05 30.2 -1.1 30.25 -1.1 33.75 -1.0 34.3 -0.85 35.8 -0.5 35.95 -0.4 36.05 -0.3 36.95 -0.15 37.6 -0.35 37.65 -0.35 Q38.85 -0.8 38.85 -2.25 L38.6 -2.7 Q37.0 -3.5 35.7 -2.3 L35.5 -2.25 31.5 -1.95 30.9 -1.95 30.95 -1.95 28.45 -2.0 28.0 -1.85 23.3 -1.65 22.65 -1.75 20.35 -1.8 19.25 -1.75 19.2 -1.8 18.55 -1.9 18.05 -1.85 16.9 -1.9 15.3 -2.1 13.55 -1.9 13.25 -1.85 12.25 -1.9 8.8 -2.0 M-32.2 14.6 L-32.1 14.45 -31.7 14.25 -31.65 14.25 Q-30.1 13.35 -28.85 11.9 L-27.45 10.5 -27.45 10.55 -27.1 10.2 -27.1 10.15 -26.25 9.45 -24.9 9.35 Q-24.55 9.6 -24.2 9.1 L-24.2 9.15 Q-23.5 8.05 -22.4 7.45 L-21.95 7.1 -21.9 7.1 -19.75 4.75 -19.8 4.75 -18.85 4.05 -17.1 3.55 -17.05 3.55 -16.7 3.35 -16.65 3.35 Q-15.6 2.05 -14.05 1.7 L-14.0 1.7 -13.25 1.65 -12.6 1.6 -11.85 1.15 -11.8 1.15 -10.0 -0.15 -9.65 -0.55 -11.15 -2.35 -11.45 -2.7 -12.35 -3.35 -12.9 -3.65 -13.25 -3.9 Q-14.5 -5.25 -16.05 -5.8 L-16.0 -5.8 -16.3 -5.9 Q-18.8 -6.5 -20.95 -8.25 L-21.35 -8.6 -22.1 -9.15 Q-23.05 -9.8 -24.25 -9.85 L-24.75 -9.85 Q-25.65 -9.85 -25.85 -10.7 L-25.85 -10.75 -25.9 -10.75 Q-26.95 -11.45 -27.65 -12.4 -28.45 -13.35 -30.2 -13.25 L-30.35 -13.25 -30.5 -13.25 Q-31.9 -13.25 -33.05 -13.8 L-33.0 -13.8 -33.35 -14.15 -33.4 -14.2 -33.5 -15.75 -33.35 -16.3 Q-32.6 -17.8 -30.75 -17.75 L-30.2 -17.6 -30.15 -17.6 -28.95 -16.55 -28.9 -16.45 -28.85 -16.45 Q-27.5 -15.55 -26.95 -13.8 L-26.95 -13.85 -26.8 -13.55 -26.75 -13.5 -26.05 -13.05 -25.4 -12.65 -25.35 -12.65 Q-24.6 -12.25 -23.95 -11.45 -23.85 -11.35 -23.75 -11.35 -22.65 -11.35 -21.8 -10.75 -20.8 -10.1 -19.7 -9.85 L-18.7 -9.7 Q-17.65 -9.6 -16.7 -9.15 L-15.85 -8.75 -15.8 -8.75 -15.2 -8.35 -15.15 -8.35 -14.5 -7.7 -14.15 -7.45 -14.1 -7.45 -12.75 -6.8 -12.75 -6.85 -12.0 -6.2 Q-11.55 -5.6 -10.8 -5.7 L-10.75 -5.7 Q-10.05 -5.8 -9.75 -5.2 L-9.35 -4.75 -5.4 -2.2 -5.3 -2.05 -5.3 -1.9 -5.35 -1.8 -5.35 -1.75 Q-5.45 -1.05 -5.85 -0.8 -7.35 0.15 -9.1 -0.35 L-9.15 -0.35 -9.25 -0.25 Q-7.4 -0.1 -6.25 1.05 L-5.9 1.35 Q-5.1 1.9 -4.95 2.7 L-4.95 2.75 -4.9 2.9 -4.9 3.05 -5.0 3.2 -5.15 3.25 -5.2 3.25 -6.85 3.45 -8.65 4.0 -9.4 4.3 -10.5 4.5 Q-11.45 4.55 -12.0 5.25 -12.65 6.0 -13.7 6.1 L-14.2 6.15 -15.05 6.45 -15.0 6.45 -16.2 6.9 -16.85 7.15 Q-18.65 8.0 -20.35 9.0 L-20.7 9.25 Q-21.65 10.6 -23.05 11.5 L-23.7 11.85 Q-25.85 12.45 -26.85 13.85 L-27.4 14.4 -28.05 14.75 -28.75 15.05 Q-30.4 15.3 -31.15 16.6 L-31.2 16.6 -31.4 16.95 Q-31.45 17.65 -32.0 18.2 L-32.0 18.25 -32.5 18.55 -32.45 18.55 -34.6 18.5 -35.05 18.0 -35.05 18.05 Q-36.05 16.3 -34.35 14.85 L-34.35 14.9 -34.2 14.8 -34.1 14.6 -34.1 14.55 Q-33.85 14.15 -33.65 14.25 -33.45 14.2 -33.25 14.6 L-33.25 14.65 -33.25 14.8 -33.4 14.95 -33.6 14.95 -33.7 14.85 -33.85 15.1 -33.9 15.2 -34.0 15.2 -34.0 15.25 Q-35.35 16.4 -34.6 17.8 L-34.4 18.05 -32.6 18.1 -32.6 18.05 -32.4 17.9 -32.35 17.9 Q-31.95 17.45 -31.9 16.9 L-31.85 16.8 -31.6 16.35 Q-30.7 14.85 -28.85 14.55 L-28.8 14.55 -28.35 14.35 -28.3 14.35 -27.7 14.0 -27.25 13.55 Q-26.15 12.05 -23.85 11.35 L-23.85 11.4 -23.35 11.1 Q-22.05 10.2 -21.1 8.95 L-20.6 8.55 -17.05 6.7 -16.3 6.4 -15.25 6.0 Q-14.85 5.75 -14.3 5.65 L-14.25 5.65 -13.8 5.6 -13.75 5.6 Q-12.95 5.5 -12.4 4.9 -11.65 4.05 -10.5 4.0 L-9.6 3.85 -8.85 3.55 -8.8 3.55 -7.0 2.95 -5.45 2.75 Q-5.6 2.15 -6.2 1.75 L-6.6 1.4 Q-7.8 0.25 -9.75 0.25 L-11.55 1.6 -12.45 2.05 -13.25 2.15 -13.95 2.2 Q-15.35 2.55 -16.3 3.65 L-16.3 3.7 -17.0 4.05 -18.65 4.5 -19.4 5.1 -21.55 7.4 -21.55 7.45 -22.2 7.9 -22.15 7.9 Q-23.2 8.45 -23.8 9.4 -24.45 10.3 -25.2 9.75 L-25.95 9.85 -25.9 9.85 -26.75 10.55 -26.8 10.55 -27.1 10.9 -28.45 12.25 Q-29.8 13.75 -31.4 14.7 L-31.4 14.65 -31.45 14.7 -31.5 14.7 -31.4 14.7 -32.0 14.9 -31.9 14.9 -32.05 14.9 -32.2 14.75 -32.2 14.6 M-29.1 -16.05 L-29.2 -16.15 -29.3 -16.2 -30.45 -17.2 -30.75 -17.25 Q-32.3 -17.3 -32.9 -16.05 L-32.9 -16.1 -33.0 -15.75 -32.9 -14.3 -32.85 -14.25 Q-31.8 -13.75 -30.5 -13.75 L-30.35 -13.7 -30.25 -13.75 Q-28.15 -13.85 -27.25 -12.7 L-25.6 -11.15 -25.35 -10.8 Q-25.25 -10.35 -24.75 -10.35 L-24.25 -10.35 Q-22.85 -10.3 -21.8 -9.55 L-21.05 -9.0 -21.0 -8.95 -20.65 -8.65 Q-18.6 -7.0 -16.2 -6.4 L-16.15 -6.35 -15.85 -6.25 Q-14.2 -5.65 -12.9 -4.25 L-12.7 -4.1 -12.05 -3.75 -11.15 -3.1 -10.7 -2.6 -9.35 -0.95 -9.25 -0.9 -9.1 -0.9 Q-7.5 -0.35 -6.1 -1.2 L-6.15 -1.2 Q-5.95 -1.35 -5.85 -1.85 L-5.85 -1.9 -9.6 -4.3 -10.2 -5.0 Q-10.35 -5.25 -10.7 -5.2 -11.75 -5.1 -12.4 -5.9 L-12.9 -6.35 -14.35 -7.0 -14.85 -7.35 -15.5 -7.95 -16.05 -8.3 -16.9 -8.7 -18.75 -9.2 -19.8 -9.35 Q-21.0 -9.6 -22.1 -10.35 -22.85 -10.85 -23.75 -10.85 -24.1 -10.85 -24.35 -11.15 L-25.6 -12.2 -26.3 -12.6 -27.1 -13.15 -27.4 -13.65 -27.45 -13.65 Q-27.9 -15.25 -29.1 -16.05" fill="#ffff00" fill-rule="evenodd" stroke="none"/>
    <path d="M7.75 -5.15 Q9.15 -5.0 10.05 -4.3 L10.6 -3.65 10.65 -3.6 11.05 -3.2 Q11.15 -3.15 11.35 -3.05 L12.0 -2.7 12.65 -2.15 13.3 -1.25 13.4 -1.0 Q13.6 0.35 13.2 1.5 L13.25 2.0 13.3 2.25 Q13.35 2.8 12.95 3.2 L12.55 3.55 Q11.55 4.5 10.0 4.75 L8.0 5.25 5.25 5.95 4.75 5.95 2.85 5.55 2.45 5.65 1.75 5.8 1.0 5.9 Q-1.25 6.1 -3.1 4.85 -4.4 5.7 -6.0 5.9 L-8.7 5.65 -8.95 5.7 -9.5 5.8 Q-11.15 6.1 -12.2 4.95 L-12.55 4.55 -13.2 3.25 Q-13.35 1.8 -12.9 0.45 L-12.8 0.45 -12.85 0.25 -13.0 -0.75 -12.8 -2.25 -11.95 -3.4 -11.3 -3.85 Q-10.15 -4.6 -8.7 -4.65 -6.7 -5.75 -4.2 -5.55 L-3.8 -5.65 -0.25 -5.95 1.25 -5.85 5.1 -5.25 5.6 -5.1 6.0 -5.15 7.75 -5.15" fill="#ffffff" fill-rule="evenodd" stroke="none"/>
  </g>
</svg>
