<?xml version="1.0" encoding="UTF-8" standalone="no"?>
<svg xmlns:xlink="http://www.w3.org/1999/xlink" height="55.65px" width="115.95px" xmlns="http://www.w3.org/2000/svg">
  <g transform="matrix(1.0, 0.0, 0.0, 1.0, 55.3, 27.35)">
    <path d="M21.7 -25.05 L22.6 -24.35 22.65 -24.25 22.3 -23.15 Q21.25 -21.6 19.5 -20.55 L19.05 -20.2 17.2 -18.6 16.8 -18.3 16.8 -18.25 Q15.45 -17.05 14.7 -15.65 L14.35 -15.15 12.95 -13.5 12.95 -13.45 12.85 -13.3 12.8 -13.25 12.5 -12.75 12.25 -12.5 11.45 -11.4 11.15 -11.2 11.5 -11.8 11.55 -11.8 13.2 -14.9 13.2 -14.85 13.55 -15.6 13.55 -15.55 Q14.75 -17.6 16.65 -19.05 L18.4 -20.6 18.45 -20.75 18.5 -20.8 18.55 -20.9 Q18.65 -21.85 18.9 -22.65 19.25 -23.75 20.15 -24.6 L20.25 -24.75 20.3 -24.75 Q20.95 -24.85 21.5 -25.1 L21.7 -25.05 M40.4 -1.4 L40.7 -1.65 42.5 -2.0 42.7 -1.95 42.75 -1.95 Q45.7 -1.55 48.75 -1.85 L48.8 -1.85 49.8 -1.9 53.75 -2.1 53.8 -2.1 55.75 -1.8 55.95 -1.8 Q57.5 -2.45 58.7 -3.2 L58.65 -3.15 59.0 -3.25 Q60.15 -3.15 60.15 -2.0 L60.15 -1.85 60.1 -1.75 Q59.95 -0.6 58.95 -0.1 L57.15 -0.25 56.15 -0.75 55.9 -0.9 Q55.05 -1.4 54.0 -1.4 L53.95 -1.4 53.5 -1.35 52.75 -1.3 52.7 -1.25 52.4 -1.15 52.2 -1.1 49.4 -1.15 49.4 -1.1 48.5 -0.95 48.45 -0.95 47.7 -0.75 44.9 -0.8 44.9 -0.85 42.8 -1.25 40.8 -0.95 40.75 -0.95 40.6 -0.9 40.55 -0.85 40.5 -0.85 40.4 -0.9 40.15 -1.1 40.35 -1.4 40.4 -1.4 M24.75 11.95 L24.75 11.85 24.35 11.15 24.15 10.75 25.45 11.15 25.85 11.35 Q27.3 12.15 28.65 13.65 L28.9 13.95 28.9 14.0 Q29.3 14.65 29.95 14.75 L30.0 14.75 30.15 14.75 Q30.7 15.3 31.45 15.5 L31.4 15.5 32.05 15.75 32.75 16.05 32.8 16.05 36.0 16.25 Q36.95 16.25 37.55 16.95 L37.6 16.95 37.75 17.25 Q37.8 18.25 36.65 19.0 L36.6 19.0 36.2 19.2 34.2 19.05 34.1 19.0 33.8 18.95 33.75 18.95 Q32.85 18.85 32.25 18.3 30.7 16.8 29.95 15.2 L29.95 15.25 29.7 14.85 29.65 14.8 27.65 13.15 Q26.7 12.25 25.45 11.85 L25.3 11.8 25.2 11.9 25.0 12.0 24.95 12.0 24.75 12.0 24.75 11.95 M-47.0 -26.85 L-44.7 -26.45 -44.55 -26.45 -44.5 -26.4 -43.65 -26.0 -43.55 -26.0 -43.2 -25.7 Q-42.2 -24.8 -41.9 -23.45 L-41.85 -23.4 -41.85 -23.3 -41.75 -23.1 -41.2 -22.35 Q-40.45 -21.3 -39.4 -20.7 -38.35 -20.1 -37.0 -20.1 L-36.05 -20.0 -36.0 -20.0 Q-35.1 -19.9 -34.6 -18.95 L-34.05 -18.35 Q-31.55 -17.0 -29.55 -14.65 L-29.45 -14.65 -26.3 -12.8 -25.55 -12.55 -25.5 -12.55 Q-23.7 -12.15 -22.05 -11.15 L-20.65 -9.85 -20.6 -9.85 -19.8 -9.3 -15.0 -7.35 -14.9 -6.25 -14.95 -6.2 Q-15.45 -6.15 -15.75 -6.45 L-17.35 -7.7 -17.4 -7.7 -18.5 -8.1 Q-19.2 -8.25 -19.85 -8.7 L-21.25 -9.55 -23.4 -10.85 Q-23.75 -11.1 -24.2 -11.2 -25.65 -11.35 -26.9 -11.95 -27.75 -12.35 -28.55 -13.0 L-31.65 -15.15 -31.7 -15.15 -32.1 -15.55 -32.95 -16.1 -33.35 -16.3 -33.3 -16.3 -36.85 -18.4 -37.45 -18.65 -38.35 -18.9 -40.15 -19.9 -42.1 -21.2 -45.2 -22.85 -45.3 -22.9 -45.35 -22.95 -45.5 -23.05 -46.65 -23.7 Q-47.25 -24.0 -47.65 -24.65 -48.4 -25.95 -47.3 -26.75 L-47.0 -26.85 M-27.15 14.4 L-27.1 14.4 -26.85 14.15 -26.95 14.3 -26.95 14.35 -27.15 14.4 M-26.5 14.15 L-26.55 14.1 -26.75 14.05 Q-27.65 14.2 -28.25 14.65 L-32.35 17.1 -33.1 17.45 -33.1 17.4 Q-35.25 18.0 -36.9 19.3 -38.15 20.3 -39.55 20.9 L-39.5 20.9 -40.35 21.4 -41.25 22.15 Q-42.5 23.1 -43.2 24.3 L-43.45 24.75 -43.5 24.8 -43.6 25.2 -43.6 25.3 Q-43.7 25.95 -44.15 26.65 -44.85 27.75 -46.0 27.8 -46.9 27.85 -47.5 27.3 L-47.6 27.0 Q-47.6 26.15 -47.2 25.55 -46.95 25.2 -46.55 25.0 L-46.5 24.9 Q-44.65 22.55 -41.95 21.65 L-39.8 20.55 -39.8 20.6 -39.15 20.1 -36.2 17.9 -36.15 17.9 -35.95 17.7 -35.3 17.55 -33.5 16.6 -32.1 15.75 Q-30.05 14.55 -28.25 13.05 L-27.65 12.6 -26.8 12.0 -26.75 12.0 -25.4 10.9 -24.55 10.2 -24.6 10.2 Q-24.25 9.9 -23.85 10.05 L-23.8 10.15 -23.55 10.75 -23.45 10.9 -23.4 10.9 -23.5 10.95 -24.2 11.55 -24.8 12.2 -26.5 14.15" fill="#ffffff" fill-rule="evenodd" stroke="none"/>
    <path d="M21.35 -25.55 L21.45 -25.6 21.85 -25.5 21.8 -25.55 Q22.55 -25.45 23.05 -24.6 L23.0 -24.65 23.15 -24.25 Q23.15 -23.5 22.7 -22.85 21.55 -21.2 19.75 -20.1 L19.7 -20.1 19.4 -19.85 17.5 -18.2 17.15 -17.9 17.1 -17.9 Q15.85 -16.75 15.15 -15.4 L15.15 -15.45 14.75 -14.85 13.35 -13.15 13.4 -13.25 13.25 -13.0 12.95 -12.5 12.9 -12.45 12.6 -12.15 11.9 -11.2 Q11.7 -10.8 10.85 -10.55 L10.7 -10.55 10.55 -10.65 10.5 -10.8 10.6 -11.1 11.1 -12.1 11.1 -12.05 12.75 -15.1 13.1 -15.8 Q14.35 -17.9 16.35 -19.45 17.25 -20.1 17.95 -20.9 L18.05 -21.05 Q18.15 -22.0 18.4 -22.8 18.75 -24.05 19.8 -24.95 L20.2 -25.25 21.35 -25.55 M21.7 -25.05 L21.5 -25.1 Q20.95 -24.85 20.3 -24.75 L20.25 -24.75 20.15 -24.6 Q19.25 -23.75 18.9 -22.65 18.65 -21.85 18.55 -20.9 L18.5 -20.8 18.45 -20.75 18.4 -20.6 16.65 -19.05 Q14.75 -17.6 13.55 -15.55 L13.55 -15.6 13.2 -14.85 13.2 -14.9 11.55 -11.8 11.5 -11.8 11.15 -11.2 11.45 -11.4 12.25 -12.5 12.5 -12.75 12.8 -13.25 12.85 -13.3 12.95 -13.45 12.95 -13.5 14.35 -15.15 14.7 -15.65 Q15.45 -17.05 16.8 -18.25 L16.8 -18.3 17.2 -18.6 19.05 -20.2 19.5 -20.55 Q21.25 -21.6 22.3 -23.15 L22.65 -24.25 22.6 -24.35 21.7 -25.05 M40.05 -1.75 L40.05 -1.8 40.4 -2.05 40.45 -2.05 42.5 -2.5 42.85 -2.4 42.8 -2.45 Q45.7 -2.05 48.75 -2.35 L49.75 -2.4 53.75 -2.6 55.85 -2.3 Q57.3 -2.9 58.45 -3.6 L59.0 -3.75 59.05 -3.75 Q60.65 -3.65 60.65 -2.0 L60.6 -1.7 Q60.4 -0.3 59.15 0.35 L56.9 0.2 56.85 0.15 55.95 -0.3 56.0 -0.3 55.6 -0.5 55.65 -0.45 54.05 -0.9 53.5 -0.85 52.8 -0.8 52.85 -0.8 52.55 -0.7 52.3 -0.6 52.2 -0.6 52.1 -0.6 49.5 -0.65 49.55 -0.65 48.55 -0.45 48.6 -0.45 47.85 -0.25 44.75 -0.35 42.75 -0.75 40.9 -0.5 40.85 -0.45 40.5 -0.35 40.1 -0.5 40.15 -0.45 Q39.65 -0.75 39.7 -1.05 39.6 -1.4 40.05 -1.75 M40.4 -1.4 L40.35 -1.4 40.15 -1.1 40.4 -0.9 40.5 -0.85 40.55 -0.85 40.6 -0.9 40.75 -0.95 40.8 -0.95 42.8 -1.25 44.9 -0.85 44.9 -0.8 47.7 -0.75 48.45 -0.95 48.5 -0.95 49.4 -1.1 49.4 -1.15 52.2 -1.1 52.4 -1.15 52.7 -1.25 52.75 -1.3 53.5 -1.35 53.95 -1.4 54.0 -1.4 Q55.05 -1.4 55.9 -0.9 L56.15 -0.75 57.15 -0.25 58.95 -0.1 Q59.95 -0.6 60.1 -1.75 L60.15 -1.85 60.15 -2.0 Q60.15 -3.15 59.0 -3.25 L58.65 -3.15 58.7 -3.2 Q57.5 -2.45 55.95 -1.8 L55.75 -1.8 53.8 -2.1 53.75 -2.1 49.8 -1.9 48.8 -1.85 48.75 -1.85 Q45.7 -1.55 42.75 -1.95 L42.7 -1.95 42.5 -2.0 40.7 -1.65 40.4 -1.4 M23.65 10.8 Q23.6 10.55 23.7 10.45 23.75 10.3 24.0 10.25 L24.05 10.25 Q24.9 10.3 25.65 10.7 L26.05 10.9 26.1 10.9 Q27.6 11.75 29.0 13.3 L29.35 13.75 29.3 13.75 30.05 14.25 30.25 14.25 30.45 14.35 31.6 15.0 31.6 15.05 32.3 15.35 32.35 15.35 32.85 15.55 36.0 15.75 Q37.25 15.75 37.95 16.6 L38.25 17.25 Q38.3 18.45 36.9 19.4 L36.3 19.7 33.95 19.5 33.75 19.45 Q32.65 19.35 31.9 18.65 30.3 17.1 29.5 15.4 L29.35 15.2 Q28.25 14.4 27.3 13.5 26.45 12.7 25.45 12.35 L25.05 12.5 24.5 12.45 24.25 12.0 23.95 11.45 23.65 10.8 M24.75 11.95 L24.75 12.0 24.95 12.0 25.0 12.0 25.2 11.9 25.3 11.8 25.45 11.85 Q26.7 12.25 27.65 13.15 L29.65 14.8 29.7 14.85 29.95 15.25 29.95 15.2 Q30.7 16.8 32.25 18.3 32.85 18.85 33.75 18.95 L33.8 18.95 34.1 19.0 34.2 19.05 36.2 19.2 36.6 19.0 36.65 19.0 Q37.8 18.25 37.75 17.25 L37.6 16.95 37.55 16.95 Q36.95 16.25 36.0 16.25 L32.8 16.05 32.75 16.05 32.05 15.75 31.4 15.5 31.45 15.5 Q30.7 15.3 30.15 14.75 L30.0 14.75 29.95 14.75 Q29.3 14.65 28.9 14.0 L28.9 13.95 28.65 13.65 Q27.3 12.15 25.85 11.35 L25.45 11.15 24.15 10.75 24.35 11.15 24.75 11.85 24.75 11.95 M-47.6 -27.15 L-47.0 -27.35 -44.55 -26.95 -44.45 -26.9 -44.35 -26.85 -43.45 -26.5 -43.35 -26.45 -42.85 -26.05 -42.85 -26.1 Q-41.7 -25.1 -41.4 -23.55 L-41.35 -23.4 -40.75 -22.6 -39.15 -21.15 Q-38.25 -20.6 -37.0 -20.6 L-35.95 -20.5 Q-34.8 -20.4 -34.15 -19.15 L-33.85 -18.8 -33.8 -18.8 Q-31.25 -17.4 -29.15 -15.0 L-29.2 -15.05 -26.05 -13.25 -25.45 -13.05 Q-23.5 -12.65 -21.8 -11.55 L-20.25 -10.25 -20.25 -10.2 -19.6 -9.75 Q-17.1 -8.65 -14.65 -7.75 L-14.55 -7.7 -14.5 -7.55 -14.5 -7.45 -14.4 -6.25 -14.4 -6.2 -14.4 -6.05 -14.6 -5.7 -14.8 -5.7 Q-15.6 -5.6 -16.1 -6.1 -16.75 -6.8 -17.6 -7.25 L-18.6 -7.6 Q-19.4 -7.75 -20.15 -8.3 -20.75 -8.8 -21.45 -9.1 L-23.7 -10.45 -24.25 -10.7 -24.3 -10.7 Q-25.8 -10.85 -27.1 -11.5 L-28.85 -12.6 -31.9 -14.7 -32.5 -15.25 -33.15 -15.65 -33.55 -15.85 -37.15 -18.0 -37.1 -17.95 -37.55 -18.15 -38.55 -18.45 -40.45 -19.5 -42.35 -20.8 -42.35 -20.75 -45.4 -22.4 -45.5 -22.55 -45.55 -22.55 Q-45.7 -22.55 -45.8 -22.65 L-46.85 -23.25 Q-47.65 -23.6 -48.1 -24.4 -49.1 -26.05 -47.6 -27.15 M-47.0 -26.85 L-47.3 -26.75 Q-48.4 -25.95 -47.65 -24.65 -47.25 -24.0 -46.65 -23.7 L-45.5 -23.05 -45.35 -22.95 -45.3 -22.9 -45.2 -22.85 -42.1 -21.2 -40.15 -19.9 -38.35 -18.9 -37.45 -18.65 -36.85 -18.4 -33.3 -16.3 -33.35 -16.3 -32.95 -16.1 -32.1 -15.55 -31.7 -15.15 -31.65 -15.15 -28.55 -13.0 Q-27.75 -12.35 -26.9 -11.95 -25.65 -11.35 -24.2 -11.2 -23.75 -11.1 -23.4 -10.85 L-21.25 -9.55 -19.85 -8.7 Q-19.2 -8.25 -18.5 -8.1 L-17.4 -7.7 -17.35 -7.7 -15.75 -6.45 Q-15.45 -6.15 -14.95 -6.2 L-14.9 -6.25 -15.0 -7.35 -19.8 -9.3 -20.6 -9.85 -20.65 -9.85 -22.05 -11.15 Q-23.7 -12.15 -25.5 -12.55 L-25.55 -12.55 -26.3 -12.8 -29.45 -14.65 -29.55 -14.65 Q-31.55 -17.0 -34.05 -18.35 L-34.6 -18.95 Q-35.1 -19.9 -36.0 -20.0 L-36.05 -20.0 -37.0 -20.1 Q-38.35 -20.1 -39.4 -20.7 -40.45 -21.3 -41.2 -22.35 L-41.75 -23.1 -41.85 -23.3 -41.85 -23.4 -41.9 -23.45 Q-42.2 -24.8 -43.2 -25.7 L-43.55 -26.0 -43.65 -26.0 -44.5 -26.4 -44.55 -26.45 -44.7 -26.45 -47.0 -26.85 M-27.15 14.4 L-27.7 14.8 -27.9 14.7 -27.85 14.9 -27.95 15.05 Q-29.95 16.4 -32.1 17.55 L-32.95 17.9 Q-35.05 18.5 -36.6 19.7 -37.85 20.7 -39.35 21.35 L-40.0 21.75 -40.95 22.55 Q-42.1 23.4 -42.75 24.55 L-42.8 24.55 -43.0 24.9 -43.1 25.3 -43.1 25.35 Q-43.2 26.15 -43.75 26.95 -44.6 28.25 -45.95 28.3 L-46.0 28.3 Q-47.1 28.35 -47.85 27.65 L-47.9 27.6 -48.1 27.0 Q-48.1 25.95 -47.6 25.25 L-47.6 25.3 -46.85 24.55 -46.8 24.55 Q-44.9 22.15 -42.1 21.2 L-40.05 20.15 -39.45 19.7 -36.5 17.55 -36.5 17.5 -36.2 17.25 -36.05 17.2 -35.45 17.1 -35.45 17.05 -33.8 16.2 -32.35 15.3 -28.55 12.65 -27.95 12.2 -27.9 12.2 -27.1 11.6 -25.7 10.5 -24.95 9.85 -24.9 9.8 -23.5 9.7 -23.4 9.8 -23.4 9.9 -23.35 9.95 -23.1 10.6 -23.1 10.75 -23.25 10.9 -23.4 10.9 -23.45 10.9 -23.55 10.75 -23.8 10.15 -23.85 10.05 Q-24.25 9.9 -24.6 10.2 L-24.55 10.2 -25.4 10.9 -26.75 12.0 -26.8 12.0 -27.65 12.6 -28.25 13.05 Q-30.05 14.55 -32.1 15.75 L-33.5 16.6 -35.3 17.55 -35.95 17.7 -36.15 17.9 -36.2 17.9 -39.15 20.1 -39.8 20.6 -39.8 20.55 -41.95 21.65 Q-44.65 22.55 -46.5 24.9 L-46.55 25.0 Q-46.95 25.2 -47.2 25.55 -47.6 26.15 -47.6 27.0 L-47.5 27.3 Q-46.9 27.85 -46.0 27.8 -44.85 27.75 -44.15 26.65 -43.7 25.95 -43.6 25.3 L-43.6 25.2 -43.5 24.8 -43.45 24.75 -43.2 24.3 Q-42.5 23.1 -41.25 22.15 L-40.35 21.4 -39.5 20.9 -39.55 20.9 Q-38.15 20.3 -36.9 19.3 -35.25 18.0 -33.1 17.4 L-33.1 17.45 -32.35 17.1 -28.25 14.65 Q-27.65 14.2 -26.75 14.05 L-26.55 14.1 -26.5 14.15 -26.45 14.25 -26.5 14.45 -26.5 14.5 -26.55 14.55 -26.65 14.55 -26.7 14.55 -26.85 14.5 -26.95 14.35 -26.95 14.3 -26.85 14.15 -27.1 14.4 -27.15 14.4" fill="#ffff00" fill-rule="evenodd" stroke="none"/>
    <path d="M15.95 -19.15 L17.55 -18.55 Q20.9 -17.25 24.5 -18.0 L26.5 -18.2 33.75 -18.25 33.75 -18.05 34.2 -18.25 35.05 -18.7 37.05 -19.3 41.0 -19.2 Q43.1 -18.7 44.5 -16.75 L46.6 -13.55 46.95 -12.95 47.5 -11.45 48.2 -11.35 Q49.85 -11.05 49.8 -9.25 L49.9 -8.05 Q50.6 -5.45 50.8 -2.75 50.9 -1.85 51.15 -1.05 52.3 2.2 50.75 4.85 L50.5 5.25 50.95 5.75 51.15 7.0 51.05 8.25 50.5 12.75 Q50.25 14.8 49.0 16.5 L47.45 17.65 Q46.5 18.25 45.45 18.4 43.9 18.6 42.5 19.3 L42.25 19.45 Q40.8 20.15 39.45 20.9 38.2 21.65 36.75 21.9 L35.5 22.1 33.75 22.35 31.0 22.35 Q29.55 22.2 28.35 21.7 L27.75 21.45 26.25 21.7 22.75 22.0 21.5 21.95 17.75 21.85 14.5 21.55 11.0 21.2 10.0 21.35 4.25 21.75 4.1 21.1 3.5 21.2 Q-1.1 21.85 -5.75 21.2 L-7.0 21.2 Q-8.55 21.4 -9.5 20.25 L-9.6 19.85 -9.7 19.85 -12.55 21.2 Q-13.1 21.5 -13.75 21.6 L-16.25 21.8 -21.0 21.25 -21.05 20.85 -21.5 20.9 -23.0 20.95 -27.25 21.1 -28.7 21.0 -33.25 20.75 -33.5 20.25 Q-34.55 20.8 -35.75 20.95 L-42.25 21.7 -43.05 21.5 Q-43.8 20.95 -44.75 21.0 -47.25 21.1 -49.3 20.2 L-49.7 20.0 Q-50.4 19.95 -50.95 19.45 L-51.85 18.3 -53.05 16.3 -53.35 15.7 -55.25 10.25 -55.3 9.25 -54.5 5.25 -54.3 4.25 -53.75 2.25 -53.35 2.2 Q-53.7 1.45 -53.65 0.5 -53.55 -1.55 -54.75 -3.25 L-55.05 -4.0 Q-55.25 -6.8 -54.7 -9.5 L-54.4 -10.45 Q-53.35 -12.4 -51.7 -13.7 L-50.55 -14.55 Q-49.8 -15.1 -49.25 -15.25 L-48.85 -14.95 -48.35 -15.6 Q-47.6 -16.35 -46.25 -16.55 L-44.75 -16.8 -43.25 -17.05 -37.25 -17.25 -35.75 -17.15 -33.45 -16.75 -31.0 -17.45 -28.75 -18.05 -28.0 -18.15 -24.25 -18.3 -18.0 -18.0 -11.75 -17.75 -10.8 -17.6 -8.75 -17.55 -6.3 -17.95 -5.6 -18.25 -5.45 -18.3 -2.5 -18.6 -1.0 -18.6 0.75 -18.6 2.0 -18.7 3.45 -18.6 6.0 -18.65 Q7.4 -19.0 8.4 -18.3 11.2 -19.8 14.5 -19.45 L15.95 -19.15" fill="#ffffff" fill-rule="evenodd" stroke="none"/>
    <path d="M1.05 -13.7 L0.9 -13.9 0.85 -14.05 Q2.15 -14.8 3.75 -14.7 L3.75 -14.75 Q7.35 -14.5 10.55 -13.15 11.9 -12.6 13.05 -11.7 15.6 -9.75 17.05 -6.8 L16.9 -6.45 16.85 -6.3 16.75 -6.25 16.5 -6.2 13.4 -9.75 12.1 -11.05 Q9.25 -13.4 5.5 -13.65 L1.05 -13.7 M10.0 -1.05 L10.25 -1.45 10.45 -1.65 Q10.6 -3.45 9.95 -5.15 L9.8 -5.75 Q9.15 -5.8 9.1 -6.3 L9.25 -6.5 9.5 -6.65 10.25 -6.45 10.55 -6.3 Q11.6 -4.3 11.5 -2.0 L11.5 -1.45 Q10.7 -0.7 10.25 0.25 L10.1 0.45 9.95 0.35 9.75 0.05 10.0 -0.7 10.0 -1.05 M32.0 -13.45 Q36.35 -12.45 38.8 -8.65 40.3 -6.35 40.2 -3.7 L40.05 -3.3 39.75 -3.2 39.35 -3.3 Q38.75 -7.35 36.0 -10.15 L33.95 -11.95 31.95 -12.4 Q31.4 -12.55 31.35 -13.05 L31.75 -13.35 32.0 -13.4 32.0 -13.45 M41.45 9.8 Q41.05 11.05 40.0 11.75 L39.5 11.5 40.0 10.2 40.05 10.0 Q40.85 8.15 40.85 6.05 L40.85 5.85 Q40.55 5.45 40.6 4.95 L40.55 4.75 40.65 4.65 40.75 4.6 40.85 4.55 Q42.3 6.85 41.45 9.8 M20.95 8.3 Q17.7 14.0 11.25 13.95 10.65 13.95 10.6 13.45 L14.85 12.3 Q16.2 11.9 17.25 10.85 20.25 7.75 21.95 3.8 L22.1 2.95 22.0 1.45 22.15 1.35 22.5 1.2 Q23.15 1.45 23.45 2.05 L23.55 2.25 Q23.6 5.05 21.65 7.3 L20.95 8.3 M29.0 17.35 L27.3 17.3 27.0 16.9 26.95 16.75 Q27.6 16.35 28.7 16.45 29.65 15.5 31.1 15.6 L31.5 15.25 31.4 14.5 31.45 14.3 31.55 14.25 31.85 14.2 32.45 15.3 32.5 15.5 Q31.45 17.15 29.3 17.2 29.15 17.2 29.0 17.35 M5.3 4.2 Q5.35 5.2 4.8 6.0 L4.0 6.95 Q-0.6 7.3 -3.65 4.1 L-3.65 3.55 -3.5 3.35 -3.45 3.35 Q-2.8 3.85 -2.3 4.5 L-2.2 4.7 Q0.6 6.0 3.7 5.85 L4.5 4.55 4.7 4.2 4.85 4.05 5.1 4.0 5.3 4.2 M0.35 15.8 Q-1.6 17.2 -3.9 16.2 L-4.05 16.05 Q-3.05 15.3 -1.1 15.55 L-0.45 15.5 -0.15 15.45 0.25 15.65 0.35 15.8 M-41.7 -3.15 L-41.9 -2.95 -42.2 -2.95 -42.4 -3.15 Q-42.55 -4.65 -41.55 -5.95 -41.25 -6.35 -41.2 -6.9 -40.3 -8.6 -38.4 -8.75 L-38.2 -8.55 Q-40.85 -6.7 -41.65 -3.3 L-41.7 -3.15 M-26.7 -9.5 L-26.65 -9.4 Q-27.45 -8.05 -29.05 -7.3 L-29.25 -7.15 Q-30.0 -6.9 -30.15 -7.55 L-27.0 -9.7 -26.7 -9.5 M-23.45 -11.45 L-23.75 -11.65 Q-22.45 -12.75 -20.5 -13.0 L-16.25 -13.3 Q-13.25 -13.6 -10.7 -12.5 L-10.65 -12.4 -10.6 -12.2 -10.7 -12.0 -10.75 -11.9 -11.0 -11.8 -22.65 -11.45 -23.45 -11.45 M-16.75 -4.9 L-16.4 -4.7 -16.2 -4.55 Q-19.15 -2.55 -18.95 1.05 L-18.95 1.45 -17.55 2.65 -17.45 2.75 -17.55 2.85 -17.95 3.0 -18.7 2.7 -19.0 2.8 Q-19.5 2.9 -19.8 2.5 L-20.0 2.3 Q-20.8 -1.85 -17.5 -4.45 L-16.75 -4.9 M-4.5 -6.9 L-3.65 -6.65 -3.5 -6.5 Q-5.0 -5.9 -5.75 -4.4 L-5.95 -4.0 -6.0 -3.9 -6.25 -3.8 -6.55 -3.95 -6.65 -4.3 -6.7 -4.7 Q-5.95 -5.95 -4.75 -6.75 L-4.5 -6.9 M-12.55 11.75 L-12.55 12.1 -12.65 12.45 Q-18.9 13.0 -24.25 9.6 -28.3 6.95 -29.55 2.65 L-29.75 1.35 -29.75 0.8 -29.55 0.6 -29.25 0.55 -29.25 0.5 -28.95 0.6 Q-28.65 4.6 -25.35 7.3 -19.95 11.7 -13.0 11.6 -12.8 11.6 -12.55 11.75 M-40.3 12.6 L-40.1 13.75 -40.15 13.95 -40.3 14.1 -40.5 14.2 -40.8 14.05 -41.2 13.1 -41.25 12.95 Q-43.05 11.45 -43.9 9.2 L-43.8 8.6 -43.75 8.45 -43.5 8.35 -43.4 8.3 Q-42.4 10.75 -40.4 12.45 L-40.3 12.6 M-31.9 13.35 L-31.65 13.25 -31.4 13.2 Q-30.0 15.45 -27.45 16.2 L-27.3 16.3 Q-27.2 16.75 -27.6 17.05 L-27.75 17.2 -28.0 17.25 Q-30.75 16.15 -31.85 13.55 L-31.9 13.35 M-43.2 0.1 L-42.95 0.3 -43.2 3.3 -43.2 3.5 -43.7 3.75 Q-44.25 2.15 -43.65 0.55 L-43.65 0.35 -43.25 0.15 -43.2 0.1" fill="#bfbfbf" fill-rule="evenodd" stroke="none"/>
  </g>
</svg>
