<?xml version="1.0" encoding="UTF-8" standalone="no"?>
<svg xmlns:xlink="http://www.w3.org/1999/xlink" height="59.2px" width="170.75px" xmlns="http://www.w3.org/2000/svg">
  <g transform="matrix(1.0, 0.0, 0.0, 1.0, 84.95, 28.45)">
    <path d="M34.55 -25.5 L37.75 -26.5 Q41.2 -27.25 44.6 -26.55 L50.95 -25.9 Q52.6 -25.85 54.2 -25.05 L55.3 -24.4 55.85 -24.1 57.25 -23.2 57.05 -24.25 58.95 -24.65 61.65 -25.1 72.4 -24.3 74.5 -23.55 76.55 -22.6 Q77.85 -21.9 79.25 -21.3 82.2 -20.1 83.65 -17.0 L84.65 -14.6 Q85.05 -13.45 85.05 -12.25 L84.15 -11.75 85.05 -10.3 Q85.7 -9.15 85.7 -7.85 L85.8 -4.8 Q85.9 -1.0 84.3 2.65 L83.15 5.65 Q82.4 8.05 81.1 10.15 L82.3 11.15 Q82.1 15.3 79.8 18.85 L78.0 21.15 Q75.95 23.4 73.4 24.7 69.95 26.5 66.05 27.2 L59.45 26.8 57.55 26.55 57.0 25.5 55.9 26.0 54.5 26.5 51.2 27.4 Q46.65 28.7 41.85 29.0 L34.45 28.7 31.7 28.45 Q27.55 28.4 23.65 27.2 L17.2 29.3 Q13.5 30.25 9.7 30.35 4.6 30.4 -0.5 30.1 L-5.45 29.75 -9.4 28.85 -10.1 28.2 -10.55 28.45 Q-14.85 31.0 -19.75 30.75 L-22.65 30.3 -28.0 28.9 -29.25 28.3 -29.95 28.0 -30.0 27.7 -30.25 27.75 -34.6 28.8 -40.15 29.75 -44.5 30.05 -48.9 30.35 -53.3 30.45 -57.15 30.3 Q-62.25 30.0 -66.5 27.9 L-66.55 26.9 -67.3 26.9 Q-70.05 26.95 -72.25 25.5 -75.3 23.45 -77.55 20.5 L-78.65 18.75 -79.95 16.1 -80.4 14.95 Q-80.7 14.0 -79.75 13.8 L-80.5 12.35 Q-81.85 9.65 -82.7 6.75 L-83.65 3.75 Q-85.4 -1.05 -84.65 -5.9 L-84.1 -7.65 Q-82.5 -10.6 -80.5 -13.05 L-80.0 -13.0 -79.95 -13.35 -79.25 -15.75 Q-77.45 -20.85 -72.8 -23.5 -68.1 -26.4 -62.35 -25.65 L-59.35 -25.2 Q-54.15 -24.4 -49.15 -22.65 L-49.25 -22.2 -48.8 -22.5 Q-47.65 -23.15 -46.35 -23.6 L-44.0 -24.5 Q-39.05 -26.3 -33.75 -26.05 L-31.85 -25.9 -21.6 -25.0 -21.1 -25.2 -20.25 -25.55 Q-18.5 -26.0 -16.7 -26.85 -13.6 -28.4 -10.1 -28.45 L-1.85 -28.2 2.55 -27.75 4.75 -27.55 6.45 -27.2 10.25 -25.7 10.75 -25.75 18.45 -26.0 20.7 -25.5 Q23.1 -24.8 25.65 -24.95 L28.9 -24.45 29.2 -24.35 Q31.9 -24.45 34.55 -25.5" fill="#303030" fill-rule="evenodd" stroke="none"/>
    <path d="M4.45 -24.65 L6.05 -24.3 9.7 -22.95 10.15 -23.05 17.45 -23.25 19.6 -22.8 24.3 -22.3 27.4 -21.85 27.7 -21.75 Q30.25 -21.85 32.75 -22.8 L35.8 -23.7 Q39.1 -24.4 42.35 -23.75 L48.35 -23.15 Q49.9 -23.1 51.45 -22.4 L52.5 -21.8 53.0 -21.55 54.35 -20.7 54.15 -21.7 55.95 -22.05 58.55 -22.45 68.7 -21.7 70.7 -21.05 72.7 -20.2 Q73.95 -19.55 75.25 -19.05 78.05 -17.95 79.45 -15.15 L80.4 -13.0 80.75 -10.85 79.9 -10.45 80.75 -9.15 Q81.35 -8.1 81.35 -6.9 L81.5 -4.2 Q81.55 -0.75 80.05 2.55 L78.95 5.2 Q78.25 7.4 77.0 9.25 L78.15 10.15 Q77.95 13.9 75.8 17.1 L74.05 19.15 Q72.1 21.2 69.65 22.4 66.4 24.0 62.7 24.6 L56.45 24.3 54.6 24.05 54.1 23.1 53.05 23.55 51.75 24.0 48.6 24.8 Q44.25 26.0 39.7 26.25 L32.65 25.95 30.05 25.75 Q26.15 25.7 22.45 24.65 L16.3 26.5 Q12.8 27.4 9.15 27.45 L-0.5 27.25 -5.2 26.9 -8.95 26.1 -9.65 25.5 -10.1 25.75 Q-14.15 28.05 -18.8 27.85 L-21.55 27.4 Q-24.1 26.7 -26.65 26.15 L-27.85 25.6 Q-28.2 25.4 -28.5 25.35 L-28.55 25.05 -28.75 25.1 -32.9 26.05 -38.15 26.9 -42.3 27.2 -46.5 27.45 -50.65 27.55 -54.3 27.4 Q-59.2 27.15 -63.2 25.25 L-63.25 24.35 -64.0 24.35 Q-66.6 24.4 -68.7 23.1 -71.6 21.25 -73.7 18.6 L-74.75 17.0 -76.0 14.6 -76.45 13.6 Q-76.7 12.75 -75.8 12.55 L-76.55 11.25 Q-77.8 8.8 -78.6 6.2 L-79.5 3.55 Q-81.2 -0.8 -80.45 -5.15 L-79.95 -6.75 Q-78.45 -9.4 -76.55 -11.6 L-76.05 -11.55 -76.0 -11.85 -75.3 -14.05 Q-73.6 -18.6 -69.2 -21.0 -64.75 -23.6 -59.3 -22.95 L-56.4 -22.55 Q-51.5 -21.8 -46.7 -20.25 L-46.85 -19.8 -46.4 -20.1 -44.1 -21.1 -41.85 -21.9 Q-37.15 -23.5 -32.1 -23.3 L-30.3 -23.15 -20.55 -22.35 -20.1 -22.55 -19.25 -22.85 Q-17.6 -23.25 -15.9 -24.05 -12.95 -25.45 -9.65 -25.45 L-1.8 -25.2 2.35 -24.8 4.45 -24.65" fill="url(#gradient0)" fill-rule="evenodd" stroke="none"/>
    <path d="M2.55 -25.65 Q2.75 -25.05 2.25 -24.5 L2.2 -24.3 Q2.15 -23.9 2.4 -23.55 L2.45 -23.4 0.1 -22.45 -0.3 -22.5 -1.3 -21.0 -1.35 -20.8 -1.4 -20.65 -1.5 -20.6 Q0.05 -19.35 -1.25 -17.1 -1.85 -16.05 -2.75 -15.2 -1.85 -14.8 -0.65 -14.7 L0.85 -13.55 Q1.1 -12.35 0.6 -11.25 L0.25 -10.45 Q-0.15 -11.45 0.4 -12.5 L0.55 -13.4 0.4 -13.55 0.3 -13.7 Q-0.45 -13.65 -1.0 -14.2 L-3.15 -14.55 -3.25 -15.15 -3.25 -15.3 -2.05 -16.45 -2.0 -16.65 -2.0 -16.8 Q-1.25 -17.5 -1.05 -18.5 L-1.0 -19.05 -2.0 -20.55 -2.95 -20.8 Q-3.95 -21.55 -4.3 -22.7 L-4.45 -23.05 Q-4.9 -23.4 -5.65 -23.55 -5.95 -24.45 -5.35 -25.25 L-4.9 -25.45 Q-4.75 -24.9 -5.15 -24.3 L-5.25 -24.15 Q-4.85 -23.65 -4.15 -23.7 -3.9 -22.6 -3.2 -21.85 L-2.7 -21.3 -1.7 -20.75 -0.4 -22.8 2.0 -23.5 Q1.55 -24.75 2.5 -25.6 L2.55 -25.65 M19.85 -19.7 Q19.85 -18.05 18.75 -16.5 L18.6 -16.3 Q18.35 -15.9 17.8 -15.9 18.5 -15.15 19.45 -14.55 L19.5 -13.8 19.45 -13.65 19.75 -13.35 21.95 -14.9 Q23.05 -15.65 24.3 -15.8 L23.0 -16.5 22.8 -16.9 22.75 -17.25 22.8 -17.4 23.0 -17.5 23.8 -17.25 23.85 -17.2 23.75 -17.15 23.5 -16.95 23.5 -16.9 24.8 -16.15 24.8 -15.8 Q26.8 -16.15 27.8 -17.9 27.6 -18.5 27.55 -19.2 L27.55 -19.4 Q27.9 -19.7 27.85 -20.15 L27.2 -20.45 27.1 -20.45 27.15 -20.45 25.6 -21.4 25.1 -22.15 Q25.15 -23.0 25.65 -23.75 L25.8 -23.9 25.55 -22.55 25.5 -22.4 Q26.1 -21.55 26.95 -20.9 L27.5 -20.75 30.8 -23.7 31.3 -23.9 Q30.5 -22.2 28.6 -20.9 L27.85 -20.55 28.35 -20.05 27.7 -17.3 27.7 -17.25 28.5 -17.7 29.75 -18.0 30.6 -17.95 Q32.1 -17.5 32.4 -16.25 L32.3 -15.55 32.25 -15.55 33.3 -15.4 33.4 -15.2 33.45 -14.85 33.55 -14.7 34.85 -15.0 35.25 -15.2 35.3 -15.2 Q37.45 -16.55 39.2 -18.3 L39.35 -18.55 39.45 -18.9 38.55 -19.05 Q37.15 -21.1 34.35 -20.55 34.15 -21.55 34.25 -22.65 L34.25 -22.8 34.0 -23.2 34.75 -24.35 34.8 -24.4 Q35.15 -23.9 34.75 -23.45 L34.6 -23.25 34.75 -21.4 34.75 -21.2 Q37.2 -21.4 38.8 -19.65 39.5 -19.5 39.95 -19.05 L39.9 -18.6 41.7 -18.75 42.25 -19.5 Q42.2 -20.4 41.6 -21.05 L41.55 -21.2 43.0 -22.5 43.25 -22.3 44.55 -22.3 45.2 -23.35 45.3 -23.4 Q45.5 -22.65 44.8 -22.05 L44.55 -21.9 43.05 -21.9 42.1 -21.3 42.55 -20.0 42.7 -19.65 41.85 -18.5 39.9 -18.45 Q39.4 -16.5 37.05 -15.7 L36.3 -15.3 35.85 -15.0 35.85 -14.95 Q38.6 -14.2 40.95 -12.35 42.05 -11.5 42.15 -10.4 L45.8 -10.9 Q46.2 -10.95 46.4 -10.6 47.5 -11.5 48.85 -12.0 L49.45 -13.9 49.55 -14.65 Q49.0 -15.6 48.0 -16.15 48.25 -18.15 50.1 -18.15 L49.9 -18.8 49.85 -19.0 Q49.25 -19.7 48.1 -19.65 48.85 -21.25 48.15 -22.8 L48.05 -23.0 48.05 -23.4 48.05 -23.55 48.25 -23.75 48.35 -24.05 48.5 -24.1 48.55 -24.15 Q48.85 -23.75 48.5 -23.35 L48.45 -23.2 Q49.4 -21.75 48.6 -20.15 L48.55 -20.05 50.05 -19.45 50.35 -18.1 51.3 -17.95 Q52.8 -17.55 54.5 -18.3 L55.0 -19.6 55.25 -20.2 55.15 -20.95 55.05 -21.3 54.45 -21.9 54.35 -22.25 54.45 -22.45 54.6 -22.65 55.5 -22.8 55.55 -22.8 55.35 -22.45 55.25 -22.3 54.75 -22.2 Q54.85 -21.8 55.3 -21.65 L55.6 -20.7 55.7 -20.3 Q55.1 -17.4 52.05 -17.05 49.95 -18.45 48.5 -16.7 50.8 -14.6 49.15 -11.8 L49.05 -11.65 Q47.6 -11.15 46.45 -10.25 L46.45 -9.95 Q47.25 -8.9 47.55 -7.65 L47.7 -6.55 Q46.6 -5.7 45.25 -5.2 L45.8 -4.65 46.2 -4.25 47.85 -3.95 48.3 -4.0 48.9 -4.55 49.1 -4.75 49.3 -5.5 49.3 -6.25 50.2 -7.75 50.55 -8.3 Q50.95 -8.6 51.45 -8.3 L51.55 -8.25 Q52.4 -8.3 53.05 -8.9 L53.05 -9.45 53.05 -9.65 53.05 -9.8 Q53.55 -11.0 54.75 -11.2 L54.75 -11.25 55.1 -11.2 55.25 -11.0 55.35 -10.8 56.05 -10.65 56.15 -10.45 56.2 -10.05 Q56.3 -9.6 56.95 -9.95 L57.1 -10.15 57.3 -10.3 57.55 -10.4 57.5 -10.0 57.45 -9.8 Q56.9 -9.35 56.1 -9.4 L55.95 -9.55 55.8 -9.75 55.8 -9.95 55.8 -10.15 55.1 -10.3 54.95 -10.5 54.95 -10.65 53.95 -10.45 53.55 -9.9 53.45 -9.7 53.45 -9.15 53.45 -8.95 53.45 -8.75 52.25 -7.95 52.0 -7.8 50.95 -8.0 Q50.35 -7.5 50.1 -6.75 L49.7 -6.2 49.5 -5.45 49.35 -4.5 48.75 -4.05 48.3 -3.7 46.1 -3.95 45.35 -4.7 45.0 -5.05 Q45.75 -5.85 47.3 -6.55 L47.3 -7.15 47.3 -7.7 47.3 -7.9 46.45 -9.2 46.05 -9.75 46.05 -9.95 46.0 -10.2 45.85 -10.2 45.95 -10.3 Q44.1 -10.0 42.15 -10.3 L41.95 -9.3 Q41.0 -8.2 39.5 -8.0 39.8 -6.6 38.95 -5.2 L40.2 -3.5 Q40.05 -1.5 38.35 -0.3 L38.35 -0.05 38.8 0.1 39.95 1.3 40.75 2.05 41.85 2.1 42.6 2.35 42.85 2.5 43.45 2.45 Q45.45 1.35 47.6 1.75 L48.35 1.6 Q48.0 1.4 48.15 1.15 L48.25 1.1 48.25 1.05 48.8 1.35 48.95 1.45 51.05 1.6 Q51.5 2.45 52.4 2.6 53.25 2.75 54.0 3.25 54.7 3.2 55.3 2.75 L55.25 2.75 56.25 1.8 56.3 -1.4 56.25 -1.95 58.15 -2.15 58.15 -2.2 58.7 -2.3 59.3 -3.5 Q59.75 -4.4 59.75 -5.5 L59.55 -5.7 59.05 -6.05 58.95 -6.2 58.35 -6.3 Q58.15 -6.55 58.3 -6.85 L58.4 -7.45 58.7 -8.2 58.35 -8.95 57.9 -9.9 57.75 -10.25 59.95 -11.7 60.15 -11.75 60.7 -12.2 60.8 -12.95 60.75 -13.3 Q60.25 -13.8 60.05 -14.45 L60.0 -14.8 59.5 -15.4 Q61.0 -16.5 61.0 -18.4 L61.0 -18.75 Q61.3 -19.15 61.85 -19.2 L62.05 -19.55 63.6 -20.4 63.95 -20.15 64.05 -20.05 Q64.95 -20.05 65.05 -21.0 L65.05 -21.4 64.1 -22.15 Q64.2 -22.6 64.85 -22.8 L65.15 -23.25 65.3 -23.3 65.3 -23.15 65.25 -22.95 64.6 -22.4 Q64.7 -22.0 65.35 -21.8 65.7 -20.75 64.9 -20.0 L64.25 -19.55 63.85 -19.65 63.6 -20.0 61.5 -18.55 Q61.8 -17.0 60.65 -15.95 L60.2 -15.55 60.5 -15.0 Q60.4 -14.3 60.95 -13.85 L61.1 -13.7 61.15 -12.55 61.1 -12.2 61.25 -12.25 62.1 -12.1 62.25 -12.0 Q60.5 -11.8 59.0 -10.75 L58.35 -10.4 58.5 -9.6 59.05 -8.7 59.15 -8.4 Q62.05 -9.15 64.5 -7.6 64.85 -7.4 65.35 -7.6 L66.45 -7.8 66.75 -8.2 66.75 -9.7 66.75 -10.05 Q67.3 -11.35 68.55 -11.55 L69.85 -12.9 70.75 -13.0 70.65 -13.15 70.8 -13.15 70.9 -13.05 71.2 -13.8 71.3 -14.0 71.1 -15.5 71.0 -15.9 69.35 -16.15 68.35 -16.9 68.3 -17.4 68.2 -17.25 68.1 -17.15 67.6 -17.15 66.8 -18.65 66.7 -18.8 Q65.45 -19.5 64.1 -19.3 L66.8 -19.4 66.9 -19.2 66.95 -19.0 67.8 -17.7 67.85 -17.55 68.3 -17.95 68.45 -18.15 68.65 -18.55 68.85 -18.9 71.5 -19.5 Q72.5 -20.6 73.8 -21.4 L73.8 -21.95 73.8 -22.15 Q73.3 -22.6 73.2 -23.25 L73.3 -23.3 73.9 -22.55 74.1 -22.4 74.2 -21.65 74.2 -21.25 Q71.95 -19.05 69.05 -18.45 L68.7 -17.5 68.7 -17.15 Q69.95 -16.35 71.45 -16.0 L71.7 -14.15 71.75 -13.75 71.3 -12.8 71.25 -12.65 Q72.85 -10.75 71.45 -8.9 71.1 -8.35 71.25 -7.7 L71.35 -7.3 72.85 -6.4 72.95 -5.8 72.95 -5.65 73.05 -5.45 73.2 -5.3 73.7 -5.3 75.1 -7.4 77.2 -7.2 Q77.2 -6.6 77.8 -6.8 L78.75 -7.75 78.8 -8.5 78.75 -8.65 78.6 -8.65 78.3 -8.9 78.1 -9.05 78.2 -9.05 77.95 -9.35 77.75 -9.7 77.1 -9.9 Q77.0 -10.35 77.05 -10.8 L77.05 -11.55 77.6 -12.15 77.75 -12.3 Q77.8 -14.1 76.3 -15.25 75.85 -14.9 75.25 -14.65 L74.15 -15.65 73.85 -15.9 Q73.75 -16.6 73.8 -17.4 L73.8 -18.15 Q72.55 -18.85 71.1 -19.05 L72.35 -19.15 Q73.0 -18.8 73.65 -18.7 L74.05 -18.65 74.2 -16.95 74.2 -16.2 75.05 -15.25 75.2 -15.05 Q76.25 -15.4 77.0 -16.3 L77.05 -16.9 77.05 -17.05 Q78.4 -18.25 80.3 -17.65 81.15 -16.75 82.25 -16.95 L82.45 -16.75 82.05 -16.4 Q81.05 -16.55 80.25 -17.25 L77.5 -17.0 Q77.2 -15.95 76.35 -15.25 78.15 -14.4 78.2 -12.45 L78.2 -12.25 78.1 -12.1 78.1 -12.05 79.55 -12.05 79.75 -12.25 79.9 -12.45 80.05 -12.65 80.05 -13.4 80.05 -13.95 80.5 -14.25 80.8 -14.4 81.0 -14.3 81.55 -14.15 81.7 -13.9 81.8 -13.75 81.95 -13.55 81.8 -13.4 81.65 -13.4 81.45 -13.7 80.85 -13.9 80.6 -14.0 80.45 -13.8 80.45 -13.05 80.45 -12.5 79.95 -11.95 79.6 -11.65 Q78.55 -11.05 78.0 -11.8 L77.95 -11.95 77.7 -11.7 77.5 -11.5 77.4 -10.95 77.45 -10.4 78.45 -9.4 78.65 -9.1 78.8 -9.15 78.95 -9.05 79.8 -9.05 80.0 -9.25 80.1 -9.4 Q82.2 -9.4 83.2 -7.25 L83.8 -7.25 84.0 -7.45 84.05 -7.65 84.05 -7.8 84.3 -7.9 84.4 -7.7 84.45 -7.55 84.75 -7.35 84.85 -7.2 84.1 -7.15 83.95 -7.0 83.75 -6.9 83.1 -6.95 Q82.1 -8.95 80.2 -8.95 L80.15 -8.75 80.1 -8.65 79.2 -8.65 79.3 -8.35 79.35 -8.2 Q78.8 -7.15 77.85 -6.4 L77.6 -6.25 78.5 -5.6 78.75 -5.45 78.9 -4.5 78.8 -3.95 77.65 -2.8 77.55 -2.65 Q77.05 -2.2 76.45 -2.0 L76.75 -1.65 76.95 -1.05 77.05 -0.7 79.05 -0.65 79.65 -0.1 80.5 -1.55 80.55 -1.75 80.35 -2.15 Q80.55 -2.9 81.55 -3.15 L81.9 -1.8 81.95 -1.65 82.55 -1.4 Q83.1 -0.95 83.25 -0.25 L84.1 0.3 83.1 0.35 Q82.85 -0.05 82.75 -0.55 82.4 -1.0 81.85 -1.15 L81.25 -2.65 80.85 -2.3 Q81.0 -1.05 80.1 -0.05 L79.8 0.3 79.7 0.3 79.35 0.8 Q80.1 1.55 81.2 1.9 L81.8 2.1 82.1 2.7 82.2 2.85 81.75 3.4 81.5 3.55 Q81.3 3.3 81.7 3.0 L81.8 2.85 Q80.3 2.05 79.3 0.9 L78.4 1.65 78.2 1.8 77.85 1.85 Q78.2 1.1 79.0 0.55 L78.95 0.5 Q78.85 0.35 79.05 0.45 L79.1 0.5 79.35 0.35 79.5 0.25 79.25 0.1 79.1 0.05 79.1 -0.05 79.1 -0.1 79.05 -0.25 76.85 -0.15 76.75 -0.9 76.55 -1.45 Q75.85 -1.55 75.6 -1.9 L77.25 -2.7 78.35 -3.85 78.55 -4.0 78.65 -4.55 78.6 -5.15 77.4 -6.25 Q77.15 -6.3 77.0 -6.55 L76.85 -6.75 75.2 -6.95 Q74.6 -5.85 73.8 -4.9 L73.1 -4.9 72.55 -5.45 72.55 -5.8 72.55 -6.0 Q72.0 -6.7 71.05 -6.95 70.25 -8.75 71.75 -9.95 71.6 -11.3 70.95 -12.6 L69.95 -12.45 67.3 -10.2 Q67.85 -6.95 64.5 -7.0 L63.35 -7.15 Q61.55 -9.1 59.05 -7.8 L59.0 -7.75 58.9 -7.4 58.8 -7.0 59.4 -6.4 59.85 -5.9 60.2 -5.5 60.0 -4.2 Q59.75 -3.0 59.0 -2.0 L60.35 -1.45 61.7 -1.15 Q62.45 -2.05 62.5 -3.2 L62.5 -3.55 Q63.55 -4.35 64.1 -5.55 L64.3 -5.65 Q64.45 -4.7 63.8 -4.0 L64.4 -3.75 64.8 -3.55 64.85 -3.4 64.85 -3.0 65.2 -2.65 65.35 -2.45 65.35 -1.9 65.35 -1.5 Q66.25 -0.1 67.8 -0.4 L68.0 0.75 67.85 1.3 Q67.2 2.15 66.35 2.6 66.6 1.8 67.55 1.1 L67.55 0.55 67.55 0.2 Q66.1 0.0 65.05 -1.2 L65.1 -1.75 65.1 -2.15 64.7 -2.9 64.6 -3.25 63.75 -3.8 63.55 -3.75 63.2 -3.55 63.0 -3.4 Q63.1 -1.05 61.05 -0.55 59.05 -1.9 56.75 -1.65 56.7 -0.55 56.95 0.45 L57.0 1.0 56.75 1.35 56.7 1.95 56.7 2.1 55.9 2.95 56.15 3.45 56.15 3.6 Q56.15 4.3 56.45 4.95 55.95 6.2 54.85 7.0 L53.2 8.3 55.6 10.05 56.2 10.7 60.3 10.6 60.55 10.8 60.75 10.95 61.6 10.6 61.65 10.65 62.3 10.05 Q62.45 9.7 62.75 9.5 L62.75 7.05 62.75 5.95 63.0 5.6 63.25 5.55 63.35 5.55 Q64.0 5.9 64.75 6.05 L65.05 6.1 Q65.6 6.95 65.5 8.0 L65.45 8.95 65.65 9.3 65.75 9.45 66.45 9.6 66.65 9.7 66.8 9.7 67.95 11.15 68.1 11.35 67.8 12.3 67.7 12.7 Q67.0 13.0 66.7 13.6 66.7 14.0 67.1 14.2 L67.2 14.75 67.2 14.95 67.5 15.25 71.75 14.1 72.05 14.2 72.1 14.35 72.1 14.5 Q72.95 14.5 73.55 15.05 L71.85 14.8 71.85 14.6 71.8 14.45 70.0 14.8 Q68.85 15.65 67.35 15.6 L66.8 15.05 66.8 14.7 66.8 14.5 66.35 14.1 66.3 13.55 66.3 13.35 66.85 12.6 67.35 12.45 67.55 11.7 67.7 11.5 66.7 9.9 65.6 9.85 65.3 9.5 65.2 9.3 65.05 9.1 65.05 8.0 65.05 6.85 64.75 6.5 64.55 6.3 63.3 6.2 Q63.2 7.35 63.25 8.55 L63.25 9.7 62.85 10.0 62.6 10.35 62.45 10.55 62.15 10.85 Q63.3 11.5 63.15 13.05 62.95 14.45 62.2 15.5 63.85 16.85 65.95 17.55 L67.1 18.35 67.2 18.95 67.3 18.95 67.4 19.3 67.45 19.45 68.0 19.75 68.75 19.7 70.8 18.35 70.95 19.1 71.0 19.3 71.45 19.85 71.1 20.1 Q70.55 19.7 70.55 19.0 69.65 19.45 68.8 20.1 67.75 20.25 67.2 19.7 L65.95 20.05 Q65.5 20.35 65.45 20.8 L66.1 21.55 66.35 21.75 66.95 22.1 67.1 22.9 67.15 23.05 67.25 23.6 67.7 24.35 67.75 24.55 67.45 25.45 66.25 25.5 Q66.45 24.95 67.1 24.8 L67.25 24.7 Q67.25 24.2 66.8 23.95 L66.65 23.2 66.6 23.0 66.5 22.7 Q65.95 23.85 64.5 24.45 L63.85 24.35 63.55 24.0 63.55 23.6 63.1 22.7 62.8 22.6 62.2 22.3 Q61.35 22.4 60.75 22.75 L60.35 23.4 60.2 23.8 60.2 24.0 60.2 24.55 60.2 25.1 60.3 25.3 61.05 25.9 61.2 26.05 61.15 26.2 60.7 27.0 60.55 27.35 60.4 27.3 Q60.2 27.1 60.35 26.8 60.45 26.45 60.75 26.25 L60.65 26.1 60.0 25.5 59.8 25.3 59.8 24.55 Q59.8 23.45 60.45 22.5 59.35 21.25 57.7 21.9 57.35 22.05 57.1 22.35 L57.0 22.4 56.1 22.55 55.9 22.75 Q55.55 23.05 55.35 23.5 L55.25 23.8 55.25 24.0 55.3 24.1 56.35 24.5 57.05 24.45 57.25 24.25 57.35 24.1 57.5 24.1 57.8 24.2 57.65 24.35 57.1 24.85 57.0 24.9 54.85 24.7 54.8 24.5 54.75 24.1 Q53.25 24.75 51.1 24.7 L50.8 25.1 50.7 25.25 Q50.55 25.5 50.85 25.8 50.1 26.8 49.3 26.6 49.65 26.2 50.3 25.85 L50.05 25.5 50.75 24.55 50.7 24.5 50.3 23.9 50.25 23.75 50.1 23.65 48.7 23.55 48.5 23.75 Q48.05 25.4 46.2 25.9 L44.75 25.6 44.7 25.45 44.5 24.3 44.5 24.1 44.6 23.95 45.5 22.8 45.5 22.6 45.5 22.45 45.6 22.25 46.55 20.75 46.55 20.55 46.4 20.2 46.35 20.05 46.35 20.0 45.85 19.85 45.7 19.7 45.55 19.5 45.55 19.3 45.55 18.75 45.55 18.35 Q45.4 18.0 44.95 18.0 L42.55 18.05 42.25 18.85 42.2 19.05 42.1 19.8 42.0 20.0 Q40.95 20.7 39.55 20.7 39.0 20.3 38.3 20.3 37.85 21.45 38.0 22.75 L38.0 23.25 38.6 24.05 38.7 24.25 39.55 24.45 39.95 24.05 40.1 23.85 42.0 23.55 Q42.7 23.5 42.8 24.05 L40.2 24.3 39.8 24.65 39.55 24.85 38.6 24.85 37.75 23.6 37.7 23.55 Q37.0 24.25 36.0 24.5 L35.6 24.45 35.4 23.7 35.35 23.55 34.7 23.55 34.7 23.7 34.45 24.05 34.45 24.2 33.6 24.35 33.4 24.75 33.3 24.95 33.7 25.5 33.8 25.7 34.85 26.25 35.0 27.35 35.0 27.75 34.75 28.15 34.7 28.3 34.1 28.3 34.4 27.55 34.5 27.35 34.5 27.0 34.5 26.8 33.25 25.85 32.95 25.1 32.8 24.95 Q32.85 23.75 34.3 23.6 L34.25 22.3 34.35 21.75 Q34.3 21.3 33.9 21.0 L33.75 20.85 32.0 20.45 32.0 20.55 32.0 20.75 Q30.15 21.9 27.85 21.6 L27.1 20.8 27.05 20.75 Q26.65 21.3 25.75 21.6 L25.3 21.75 25.35 22.1 25.45 22.3 26.05 22.7 26.05 23.4 25.8 23.95 25.95 24.15 27.05 24.35 27.25 24.95 27.3 25.1 27.45 25.5 27.0 26.05 27.55 26.35 27.7 26.95 27.85 27.1 27.9 27.65 27.8 27.85 27.05 26.85 26.55 26.2 Q26.55 25.85 26.85 25.6 L26.9 25.05 26.8 24.85 26.8 24.75 25.75 24.6 25.25 24.95 25.0 25.1 Q23.85 25.5 23.0 25.1 22.05 25.4 20.85 26.05 L19.3 26.05 19.2 27.05 19.2 27.25 18.8 27.6 18.6 27.6 18.75 27.25 18.8 26.3 18.95 25.2 18.8 24.8 16.6 24.85 16.1 24.15 15.55 23.45 Q13.55 23.5 12.7 22.7 L12.7 22.75 12.8 22.9 12.95 23.05 12.75 23.8 12.75 24.0 12.45 24.1 12.6 25.35 12.6 25.55 Q13.85 25.7 14.85 26.5 L14.8 28.2 14.75 28.3 Q14.5 27.65 14.6 26.85 L14.6 26.7 Q13.75 25.95 12.5 25.85 L12.15 24.2 Q11.45 24.45 10.85 24.9 L11.05 24.95 10.9 25.3 10.95 25.5 10.9 25.55 10.95 25.6 Q10.95 26.05 10.65 25.95 L10.55 25.85 9.3 26.05 8.95 26.8 8.95 26.85 9.1 27.35 9.3 28.0 9.45 28.35 9.2 28.4 9.2 28.5 8.95 28.45 8.85 28.45 8.85 28.4 8.8 28.3 8.55 27.3 8.5 26.95 Q7.6 26.55 7.05 25.8 L7.05 25.05 7.05 24.7 6.95 24.5 6.8 24.3 6.9 23.75 7.0 23.55 6.2 21.85 6.1 21.7 Q4.6 21.3 3.45 22.6 L0.1 22.75 -0.1 23.2 -0.3 24.1 -0.65 24.45 -0.95 24.7 -1.05 24.9 -1.15 25.05 -1.2 25.2 -1.15 25.3 -1.25 25.35 -1.25 25.45 -1.1 25.75 -1.0 25.8 -0.45 26.1 Q-0.25 27.05 0.55 27.6 L1.3 28.55 1.45 28.95 1.35 29.1 1.2 29.3 1.0 29.35 0.6 29.3 0.75 29.15 1.0 28.95 0.8 28.35 0.65 28.0 0.3 27.5 0.25 27.45 -0.15 27.35 -0.4 27.0 -0.5 26.8 -0.65 26.45 -1.0 26.2 -1.4 26.1 -1.5 25.95 -1.55 25.75 -1.65 25.55 Q-2.9 26.25 -3.4 27.65 L-3.5 27.85 -3.5 28.25 -3.5 28.45 -3.15 28.8 -3.0 29.35 -3.05 29.55 Q-3.15 30.0 -3.65 29.95 -3.95 29.65 -3.7 29.4 L-3.55 29.35 Q-4.1 28.7 -4.0 27.85 L-4.0 27.5 -3.65 27.1 Q-2.95 25.8 -1.65 25.2 L-1.45 24.8 -1.15 24.45 -0.7 24.05 -0.6 23.6 -0.65 23.6 -0.55 23.05 -0.45 22.95 -0.45 22.65 -0.9 22.45 -0.95 22.05 -2.5 21.5 -3.2 21.3 -3.3 21.5 -3.35 21.7 -3.4 21.8 Q-5.45 22.45 -7.25 21.75 L-9.3 23.1 -9.35 24.45 -9.4 24.6 -8.65 25.45 Q-8.15 27.4 -10.05 27.85 L-10.5 28.35 Q-10.85 28.1 -10.45 27.7 -8.7 27.45 -8.95 25.7 -9.3 25.15 -9.95 24.95 L-9.9 24.8 -9.95 24.8 -10.5 24.65 -12.8 24.5 -12.8 24.65 -12.65 24.9 -12.65 25.05 -12.8 25.7 -13.8 27.5 -13.9 27.6 -14.0 27.65 -14.4 27.7 Q-14.15 28.4 -14.45 29.1 L-14.65 29.8 -14.7 29.95 -14.9 30.05 -14.75 28.8 -14.7 28.0 -15.9 27.6 -15.95 27.25 -16.0 27.05 -16.65 26.5 -17.15 26.35 -17.4 25.95 -17.45 25.8 -18.9 24.85 -18.95 24.3 -18.95 23.95 -17.75 23.0 -17.75 22.8 -17.75 22.6 -17.5 22.25 -17.4 22.05 Q-16.5 22.15 -16.0 22.8 L-15.7 22.8 -15.5 22.6 -15.5 21.5 -15.5 20.55 Q-14.85 19.6 -13.75 19.0 L-14.45 18.15 -14.7 16.7 -14.1 15.65 Q-15.8 15.85 -17.5 15.05 L-18.2 15.05 Q-20.05 16.15 -20.6 18.25 -20.95 19.6 -20.05 20.6 -20.1 21.65 -20.5 22.7 L-20.55 22.85 Q-22.0 25.1 -24.55 23.45 L-27.15 21.2 Q-29.35 20.85 -31.7 21.25 L-33.8 18.85 -39.95 19.05 -40.95 22.8 Q-41.5 24.85 -43.9 25.0 L-44.0 25.2 -44.05 25.35 Q-45.3 25.55 -46.2 26.35 L-47.75 26.55 Q-48.6 27.55 -48.55 28.8 L-48.55 29.0 -48.95 29.55 -49.05 29.75 -49.4 29.8 -49.05 29.05 -48.95 28.85 Q-49.05 27.6 -48.25 26.6 L-48.2 26.45 Q-47.3 25.8 -46.2 25.95 -44.3 24.35 -41.9 23.7 -41.35 22.3 -41.1 20.85 L-40.55 18.6 -40.9 18.6 -41.95 17.95 -42.45 17.6 -44.25 17.6 -45.2 18.7 -45.8 19.45 Q-47.25 19.3 -48.2 17.95 L-48.5 17.55 -48.5 17.35 -48.5 16.6 -48.5 16.25 -49.3 15.5 -50.15 14.95 -50.2 14.75 -50.25 14.55 -50.45 14.35 -50.7 14.0 -50.8 13.85 -51.05 13.9 -51.05 14.3 -51.05 14.5 Q-51.45 14.8 -51.45 14.3 L-51.45 13.95 -53.05 14.0 -53.1 14.05 -53.45 14.2 Q-54.2 13.85 -55.0 14.2 L-55.25 14.3 -55.3 14.5 -55.4 14.7 -55.5 14.85 -55.5 15.25 -55.5 16.0 -55.65 16.2 -55.75 16.35 -55.75 16.55 -55.75 16.75 -55.9 16.9 -56.1 17.15 -56.0 17.3 -55.65 17.2 -55.45 17.05 -53.15 17.55 -53.0 17.95 -53.0 18.1 -52.9 18.3 -52.75 18.5 -52.9 19.25 -53.05 19.6 -54.05 20.55 -53.9 21.3 -53.8 21.7 Q-53.5 21.95 -53.35 22.35 L-53.25 22.3 -53.25 22.25 -49.65 23.8 -48.65 24.05 -47.7 25.1 -47.3 25.75 Q-47.9 25.9 -48.3 25.2 -48.45 24.85 -48.75 24.6 L-50.95 24.2 -52.85 22.9 -53.0 22.85 -53.0 23.25 -53.05 23.8 -53.05 23.95 Q-54.05 23.95 -54.8 24.5 L-54.9 24.85 -55.05 25.45 -55.05 25.6 -55.2 25.8 -55.35 26.0 -55.5 26.2 -55.65 26.75 -55.8 27.3 -56.0 27.35 -56.25 27.3 -56.15 26.6 -55.95 25.8 -55.75 25.6 -55.55 25.45 -55.5 25.05 -55.35 24.5 -55.3 24.3 Q-54.6 23.6 -53.5 23.35 L-53.5 23.0 -53.7 22.8 -54.2 21.45 -54.5 20.55 -53.75 19.5 -53.3 18.85 Q-53.2 18.55 -53.45 18.25 L-53.5 18.1 -55.2 17.55 -55.75 18.1 -56.15 18.2 -56.7 17.2 -56.7 17.05 -56.65 17.05 -56.7 16.8 -56.75 16.05 -56.8 16.0 -57.0 16.1 -57.25 16.25 -57.6 16.15 -57.75 16.0 Q-57.95 16.6 -58.85 16.9 L-59.0 17.0 -59.0 17.95 -59.0 18.85 Q-59.95 20.0 -61.45 19.95 L-61.85 19.4 -62.0 19.2 Q-62.85 19.05 -63.5 18.55 L-65.45 18.35 -65.8 19.15 -66.0 19.5 -66.8 19.85 -67.1 20.25 -67.25 20.35 Q-67.6 20.1 -67.15 19.65 L-66.9 19.3 -66.4 19.1 -66.0 18.35 -65.65 17.8 -63.4 17.8 -61.25 19.3 Q-60.3 19.5 -59.5 18.6 L-59.5 17.1 -59.25 16.35 -57.95 15.65 -57.7 15.7 -57.75 16.0 -57.1 15.4 -56.7 15.05 -56.4 15.05 -56.3 15.25 -56.25 15.8 -56.25 16.05 Q-55.9 15.85 -55.95 15.35 L-56.0 14.8 -56.0 14.6 -55.8 14.45 -55.75 14.25 -55.75 14.05 -55.75 13.85 -54.5 13.55 -54.25 13.5 -53.2 13.8 -53.15 13.85 Q-52.95 13.6 -52.5 13.5 L-52.0 13.35 -52.5 12.8 Q-52.3 12.25 -51.7 11.85 -51.6 10.3 -53.1 9.85 L-53.25 9.75 -54.0 9.95 -54.4 9.85 Q-55.25 8.95 -55.25 7.75 L-55.45 7.85 -55.9 7.85 Q-56.05 7.4 -56.5 7.1 L-56.95 6.75 -57.25 6.85 -57.4 7.25 -57.45 7.45 -57.55 7.6 -59.7 7.55 -60.15 8.3 -60.3 8.85 -60.5 9.05 -60.5 11.1 -60.55 12.2 -62.35 12.4 -62.5 12.5 -64.75 13.0 -65.15 12.95 -65.7 11.65 -65.95 11.1 -67.65 11.2 Q-67.9 10.85 -68.4 10.85 L-68.6 10.7 Q-69.45 11.3 -70.7 11.2 L-71.3 10.8 Q-71.85 10.9 -72.2 11.3 L-72.25 11.7 -72.25 11.85 -72.0 12.25 -72.05 13.55 -71.95 14.5 -71.25 15.25 -71.15 15.45 Q-71.0 15.8 -71.1 16.2 L-71.1 16.3 -71.05 16.35 -70.95 16.55 Q-70.9 17.3 -71.2 18.05 L-71.3 18.25 Q-71.2 19.0 -70.2 19.2 L-69.85 20.3 -69.8 20.5 -69.95 20.7 -70.05 20.85 -70.05 21.8 -70.05 22.0 -70.45 22.35 -71.3 22.45 -71.3 23.2 -71.3 23.35 -71.1 23.75 -71.15 23.95 Q-71.35 24.15 -71.55 23.75 L-71.7 23.55 -71.65 22.05 -71.65 21.85 -70.5 21.95 -70.35 20.65 -70.25 20.45 -70.4 19.65 -70.45 19.5 Q-71.3 19.1 -71.65 18.35 -71.1 17.5 -71.2 16.6 L-71.5 16.65 -73.9 16.85 Q-74.4 17.35 -74.9 17.2 -74.65 16.5 -73.75 16.3 L-71.45 15.95 Q-72.7 14.5 -72.7 12.55 L-72.75 11.8 -72.75 11.25 -72.5 10.9 -73.15 10.55 -73.3 10.0 -73.95 9.3 -75.0 9.0 -75.25 8.85 -75.3 9.05 -75.4 9.25 -75.5 9.45 -75.45 9.6 -75.4 9.8 -75.25 10.0 -75.4 10.55 -75.5 11.3 -75.5 11.5 -75.95 11.9 -76.3 12.25 -76.5 12.35 -76.7 12.3 -76.75 12.25 -78.25 12.45 -78.7 12.5 Q-78.6 11.7 -77.35 11.8 L-76.65 11.8 -76.4 11.6 -76.15 11.35 -76.0 11.0 -76.0 10.8 -75.9 10.45 -75.95 9.85 -76.0 9.3 -76.0 9.1 -75.85 8.9 -75.75 8.75 -75.65 8.4 -75.5 8.3 -75.5 8.25 -75.15 8.3 Q-73.55 8.8 -72.9 10.2 L-72.9 10.35 -72.35 10.75 -71.7 10.3 -68.95 10.35 -68.85 10.3 -68.9 10.0 -68.75 9.95 -68.9 9.6 -69.2 9.25 Q-69.6 6.85 -68.8 4.85 L-68.4 4.35 -67.65 4.1 -67.0 4.4 -67.1 4.3 -68.75 2.45 -68.8 2.25 -68.8 2.05 -68.9 1.95 Q-70.15 1.45 -70.3 0.2 L-70.45 0.0 Q-70.8 -0.4 -70.8 -0.95 L-71.9 -1.35 Q-73.05 -0.8 -73.5 0.5 L-73.55 0.7 -73.15 1.45 -73.05 2.0 -73.05 2.2 -72.3 3.1 -73.5 4.8 -73.75 5.1 Q-74.05 4.7 -74.5 4.5 L-74.7 4.7 -74.75 4.85 -74.65 5.25 -74.75 5.35 -75.0 5.25 -75.2 4.7 -75.25 4.5 Q-75.0 4.0 -74.4 4.05 L-73.8 4.45 -72.8 3.3 -72.7 3.1 -73.4 2.35 -73.45 1.8 -73.45 1.6 -73.95 1.05 -73.95 0.85 -73.95 0.5 Q-73.45 -0.7 -72.45 -1.5 L-73.25 -1.7 -74.3 -2.4 Q-74.2 -3.85 -73.1 -4.95 -72.4 -5.7 -72.35 -6.7 L-72.3 -8.55 -72.35 -8.7 Q-73.35 -9.55 -74.7 -9.5 L-74.9 -9.7 -76.25 -10.45 -76.25 -10.65 -76.3 -11.15 -78.75 -11.2 -79.25 -11.25 -79.15 -11.4 -79.0 -11.65 -78.75 -11.7 -78.75 -11.75 -76.15 -11.7 -76.0 -11.5 -75.75 -10.75 -75.6 -10.7 Q-74.95 -10.6 -74.5 -10.15 L-72.95 -9.75 Q-72.25 -9.55 -71.75 -9.05 L-71.5 -9.75 -71.4 -9.9 -70.55 -9.8 -69.9 -9.95 Q-68.2 -9.6 -67.45 -11.0 L-67.75 -11.95 -67.75 -12.15 -67.1 -12.85 -66.95 -12.9 -67.05 -12.5 -67.2 -12.3 Q-67.35 -11.6 -66.95 -10.85 L-66.9 -10.7 -68.8 -9.3 -71.05 -9.5 -71.3 -9.15 -71.3 -9.0 -71.7 -8.65 Q-71.7 -7.55 -71.85 -6.45 -72.05 -4.5 -73.5 -3.0 L-73.65 -2.55 -72.15 -2.15 -70.25 -1.4 -70.2 -1.2 Q-70.15 -0.55 -69.7 -0.05 -69.6 0.95 -68.75 1.45 L-67.75 2.35 -67.5 2.95 -67.35 3.1 -67.0 3.3 -66.95 3.5 -66.75 3.8 Q-64.4 3.9 -63.25 1.65 -61.9 -1.0 -61.3 -3.9 L-61.15 -4.05 -60.95 -4.25 -56.8 -3.7 Q-56.2 -3.65 -55.75 -4.15 L-53.75 -6.05 -53.75 -6.25 -53.75 -7.55 -53.6 -7.7 -53.1 -8.05 -53.2 -8.05 -54.2 -9.65 -54.9 -10.05 -55.0 -11.4 Q-54.95 -12.0 -55.25 -12.5 L-56.75 -12.55 Q-56.95 -12.0 -57.4 -11.6 L-58.0 -11.05 Q-60.1 -11.05 -61.35 -12.35 L-61.9 -13.15 -62.25 -14.05 -63.05 -14.2 -63.45 -14.3 -63.4 -14.5 -63.0 -14.8 -62.15 -14.75 -61.6 -14.2 Q-61.5 -15.0 -61.0 -15.75 L-60.8 -15.95 -61.6 -17.25 -61.7 -17.45 -62.0 -17.65 -62.15 -17.75 Q-62.8 -17.8 -63.3 -17.3 L-63.5 -17.3 -63.9 -17.3 -64.6 -18.25 -64.75 -18.45 -64.75 -18.65 -64.75 -19.0 Q-63.75 -20.1 -62.2 -20.45 L-61.0 -20.65 -60.95 -20.8 -60.8 -21.2 -60.95 -21.4 -61.05 -21.55 -62.15 -21.8 -62.1 -23.1 -62.0 -23.5 Q-62.55 -23.75 -62.35 -24.15 L-62.25 -24.25 -61.9 -24.15 -61.65 -24.0 Q-61.4 -23.35 -61.65 -22.65 L-61.7 -22.4 -60.9 -22.2 -60.35 -21.45 -60.25 -21.25 -60.5 -20.5 -60.55 -20.15 -64.0 -19.15 -64.15 -18.9 -64.25 -18.75 -63.8 -18.2 -63.65 -18.0 Q-63.25 -17.85 -62.9 -18.15 L-62.75 -18.25 Q-61.05 -17.85 -60.3 -16.05 -61.0 -15.2 -61.1 -14.2 L-61.15 -14.0 -61.25 -13.9 -61.4 -13.9 -61.0 -12.85 -60.7 -12.2 -58.9 -12.0 -58.7 -11.8 -58.5 -11.75 -58.2 -11.75 -57.4 -12.65 -56.95 -13.25 -55.15 -13.25 -54.75 -12.85 -54.45 -12.3 -54.55 -11.55 -54.5 -10.65 -54.35 -10.5 -53.65 -10.2 -53.35 -9.65 -53.05 -8.7 -52.95 -8.6 -51.95 -8.55 -51.95 -8.4 -51.9 -8.4 Q-50.85 -8.0 -49.8 -7.95 L-50.0 -8.15 -50.0 -9.05 -49.75 -9.8 -51.25 -11.4 -51.15 -11.4 Q-49.7 -11.25 -49.35 -10.15 L-49.0 -10.25 -47.45 -12.35 -47.0 -12.9 Q-47.1 -13.9 -48.05 -14.55 L-48.3 -14.75 -50.65 -14.9 -50.85 -16.0 -50.9 -16.4 -51.15 -16.7 -51.45 -16.95 -51.75 -17.5 -51.95 -17.9 Q-51.65 -19.65 -49.75 -19.5 L-49.4 -19.9 -49.25 -20.05 Q-49.3 -20.55 -49.9 -20.65 L-49.9 -20.8 -49.75 -20.9 -49.75 -20.95 Q-49.15 -20.85 -48.9 -20.3 L-48.8 -20.15 Q-49.0 -19.65 -49.35 -19.35 L-49.55 -19.2 -50.9 -19.0 -51.45 -18.25 -51.5 -18.05 Q-51.4 -17.3 -50.75 -16.9 L-50.55 -16.75 -50.4 -15.8 -50.4 -15.3 -47.7 -14.9 -47.35 -14.5 -45.5 -15.65 -44.95 -15.55 -44.5 -15.3 -42.45 -17.3 Q-42.75 -18.4 -42.65 -19.55 L-42.65 -19.9 -39.9 -20.7 -40.6 -23.1 -40.65 -23.25 -40.4 -23.4 -40.15 -23.45 Q-39.7 -22.75 -39.75 -21.95 L-39.75 -21.75 -39.4 -21.2 Q-39.25 -20.85 -39.55 -20.45 -40.95 -19.9 -42.3 -19.45 -42.45 -18.55 -42.1 -17.75 L-42.05 -17.55 -41.55 -16.9 -41.9 -16.65 -42.3 -16.95 -44.45 -14.9 -44.95 -15.25 -45.7 -15.25 Q-46.5 -14.6 -47.3 -14.35 L-46.65 -13.35 -46.55 -13.2 -48.2 -10.65 Q-48.6 -10.1 -49.25 -9.9 L-49.25 -9.7 -49.25 -9.5 -49.5 -9.15 -49.5 -8.75 -49.5 -8.55 -49.5 -8.4 Q-48.05 -6.75 -45.95 -6.4 L-45.0 -7.25 -44.7 -7.45 -44.4 -7.45 -44.0 -7.15 Q-42.15 -7.15 -40.8 -8.75 L-40.1 -9.3 -38.25 -10.2 -36.65 -9.95 Q-36.0 -8.35 -36.5 -6.7 L-36.5 -6.0 -36.3 -5.25 -35.75 -4.9 -33.9 -4.9 -32.5 -5.75 -31.8 -5.55 Q-30.65 -6.55 -30.2 -8.15 L-29.95 -9.05 -27.5 -9.2 Q-27.25 -9.45 -27.95 -9.7 L-28.6 -11.25 -28.45 -11.4 Q-27.95 -10.9 -27.75 -10.25 L-27.7 -10.05 -26.9 -9.3 Q-27.8 -8.1 -29.7 -8.65 L-29.9 -8.45 Q-30.1 -6.95 -31.1 -5.75 L-31.55 -5.25 -31.6 -5.2 -30.8 -2.75 -30.4 -2.15 Q-30.2 -0.6 -30.45 0.9 L-30.65 1.8 -30.8 2.0 -30.35 2.35 -30.15 2.6 -29.15 2.55 -28.9 2.75 -28.75 2.85 Q-27.2 3.0 -25.95 2.05 -25.3 1.6 -24.4 1.55 -22.9 2.45 -23.05 4.2 L-23.05 5.1 Q-22.1 5.9 -20.9 6.05 L-22.4 6.1 -23.4 5.35 -23.45 4.05 -23.45 3.3 Q-23.7 2.65 -24.2 2.2 L-24.45 2.0 -25.95 2.1 Q-27.1 3.55 -28.95 3.45 L-29.15 3.25 -29.4 3.05 -30.4 3.2 Q-31.0 2.3 -31.9 1.65 L-32.05 1.5 Q-32.85 1.15 -33.75 2.05 L-33.8 2.0 Q-34.7 2.65 -35.95 3.05 L-36.2 3.2 -36.2 3.75 -36.2 4.1 -36.2 4.5 -37.05 5.25 -37.5 5.55 -37.95 5.5 Q-38.7 4.9 -39.6 4.8 L-39.5 4.85 Q-39.5 5.35 -40.05 4.95 L-40.8 5.5 Q-41.15 6.3 -41.1 7.2 L-41.05 8.1 -42.15 9.45 -42.45 9.8 -43.5 10.2 -43.85 10.0 -43.9 9.95 Q-42.3 9.4 -41.5 7.85 L-41.4 6.35 -41.2 5.45 Q-40.75 5.0 -40.15 4.75 L-40.45 4.75 -40.65 4.35 -40.8 4.0 Q-41.8 2.9 -43.3 3.35 L-43.5 3.55 Q-43.45 4.1 -43.75 4.55 -44.25 5.3 -45.15 5.45 -45.15 4.8 -44.4 4.2 -43.9 3.8 -44.0 3.2 L-43.75 3.0 -43.8 2.95 -43.95 2.8 -44.45 2.7 -44.6 2.5 -44.75 2.3 -44.85 1.55 -45.0 1.2 Q-45.65 0.8 -46.45 0.75 L-47.1 -0.35 -47.25 -0.55 -47.65 -0.55 -51.15 3.75 -51.25 3.95 -51.5 4.05 Q-53.15 3.9 -54.25 2.7 L-55.25 2.7 Q-55.55 2.9 -55.65 3.25 L-55.75 3.45 -56.0 3.55 -56.5 3.25 -55.55 2.1 -55.45 2.0 -54.15 2.0 Q-53.25 3.0 -52.0 3.25 L-51.7 3.25 -47.9 -0.95 -47.15 -1.25 Q-46.5 -0.8 -46.2 -0.1 L-46.15 0.05 Q-44.5 0.35 -44.25 1.85 L-44.25 2.05 -43.45 2.75 -43.4 2.8 -41.15 2.75 -40.45 3.55 -40.2 3.85 Q-39.05 4.25 -37.75 4.8 -37.35 4.8 -37.05 4.45 L-36.8 4.25 -36.8 3.7 -36.8 3.3 -36.8 2.95 -35.9 2.15 -35.7 2.0 -33.9 1.85 -33.95 1.75 -33.95 1.55 Q-33.2 0.95 -32.25 0.8 L-32.25 0.75 -31.9 0.8 -30.85 1.95 Q-30.7 0.55 -30.7 -0.95 L-30.7 -1.9 -31.0 -2.2 -31.4 -2.4 Q-31.8 -3.35 -31.8 -4.45 -31.75 -4.85 -32.05 -5.15 -33.8 -4.25 -35.95 -4.3 L-36.75 -4.9 Q-37.6 -6.7 -36.85 -8.45 -36.65 -8.8 -36.9 -9.2 -37.05 -9.5 -37.5 -9.7 L-37.5 -9.75 Q-39.35 -9.35 -41.05 -8.45 -41.75 -7.35 -42.8 -6.65 L-42.8 -6.55 -44.2 -6.55 -44.65 -6.9 -45.4 -6.15 -45.55 -5.8 Q-48.05 -6.05 -49.75 -7.9 L-50.25 -7.55 -50.5 -7.55 -52.25 -7.95 -52.6 -7.75 -53.2 -7.4 -53.2 -7.2 -53.2 -5.9 -53.2 -5.7 -53.35 -5.5 -55.15 -4.2 Q-56.4 -1.95 -58.75 -3.25 -59.65 -3.8 -60.7 -3.55 -61.3 -0.15 -63.2 2.7 -63.9 3.75 -65.0 4.1 L-66.75 4.5 -66.7 4.5 -66.65 4.55 -67.65 4.5 Q-69.75 5.25 -69.0 7.6 L-68.8 9.05 -68.35 10.0 -68.25 10.35 -68.3 10.45 -67.9 10.65 -67.65 10.75 Q-67.1 10.8 -66.75 10.5 L-65.65 10.55 Q-65.25 11.15 -65.1 11.9 L-65.0 12.25 -62.7 12.1 -62.15 11.35 -61.7 11.35 -61.85 11.7 -61.0 11.6 -61.0 9.95 -61.0 8.8 -60.4 7.7 -60.25 7.1 -60.0 7.0 -57.9 7.1 -57.75 6.75 -57.7 6.55 -57.25 6.25 -56.9 6.3 -56.25 6.9 -55.8 7.25 -55.15 7.25 -55.0 7.2 -54.65 7.0 Q-54.95 5.8 -53.9 4.95 L-53.5 4.35 -52.6 4.0 -52.45 3.95 -52.55 4.2 -53.25 4.5 -54.05 5.7 -54.3 6.2 -54.15 6.55 -54.1 6.75 -54.05 6.95 -54.9 7.55 -54.5 9.05 -54.45 9.25 -53.5 9.3 Q-50.75 10.05 -51.65 12.45 L-51.75 12.6 Q-51.8 13.0 -51.2 13.2 L-51.2 13.25 Q-50.5 13.25 -50.1 13.85 L-49.9 14.05 Q-49.65 14.9 -48.85 15.2 L-48.15 15.55 -47.95 16.1 -48.0 17.25 -47.2 18.2 -46.45 18.85 -46.3 18.9 -46.0 18.85 -45.05 17.8 -44.45 17.05 Q-42.0 16.95 -40.15 18.55 L-33.65 18.25 Q-32.45 19.25 -31.55 20.5 -29.25 20.1 -26.9 20.5 -24.95 23.5 -21.55 23.35 -20.95 22.3 -20.5 21.1 -21.25 20.0 -21.25 18.7 L-21.25 17.95 -19.5 15.5 -19.3 15.3 -19.25 15.1 -19.25 14.95 Q-18.85 14.6 -18.25 14.5 -17.35 14.6 -16.7 15.2 L-12.55 14.95 Q-12.35 13.85 -12.45 12.7 L-12.45 12.3 -11.25 11.0 Q-11.25 9.95 -10.6 9.1 L-10.45 8.95 Q-7.95 9.2 -5.45 9.0 L-5.5 8.0 -5.55 7.85 -5.5 7.65 -5.55 7.5 -5.5 7.4 -5.65 7.15 -5.8 6.75 -6.15 6.55 -6.4 6.35 -6.45 6.2 -6.45 6.0 -6.45 5.8 Q-5.45 5.5 -5.0 4.8 L-5.05 4.75 -5.0 4.6 -4.9 4.65 Q-4.65 4.05 -4.7 3.2 L-4.7 2.6 Q-6.05 1.5 -7.9 0.8 -8.3 0.65 -7.9 0.7 -6.1 1.3 -4.6 2.25 L-4.4 2.45 Q-4.15 3.65 -4.7 4.7 L-4.7 4.85 -4.65 5.05 Q-3.5 5.65 -2.3 5.05 L3.85 7.0 3.9 7.1 3.95 7.05 4.0 6.9 4.3 6.5 4.35 5.55 Q4.25 4.85 4.55 4.25 L4.5 4.1 4.35 3.85 4.55 3.7 4.4 3.45 4.25 3.25 2.1 3.05 2.1 2.5 2.05 2.3 1.6 1.75 1.6 1.2 2.35 0.45 3.3 0.25 Q4.65 -0.6 5.5 -1.8 L5.3 -2.4 5.25 -2.55 4.5 -3.15 Q4.3 -3.45 4.5 -3.55 L4.55 -3.55 4.7 -3.4 4.8 -3.25 5.3 -3.05 5.65 -2.35 5.8 -2.15 Q5.2 -0.5 3.45 0.5 L2.45 0.75 1.9 1.35 1.85 1.5 2.2 2.1 2.35 2.25 2.35 2.75 4.3 2.85 Q4.75 3.1 4.85 3.55 5.95 2.9 7.5 2.95 7.9 2.95 8.2 2.6 L9.25 1.25 Q9.6 -1.2 11.3 -3.2 11.7 -3.65 11.4 -4.2 10.65 -5.95 8.6 -5.65 L8.6 -5.8 8.75 -5.9 8.75 -5.95 Q12.2 -6.0 11.55 -2.85 L10.8 -1.45 Q9.75 -0.3 9.4 1.25 L9.05 2.05 Q8.3 3.25 7.0 3.7 L6.35 3.6 6.0 3.5 5.75 3.55 4.85 3.7 4.85 3.85 4.95 4.25 Q4.55 4.65 4.6 5.2 L4.6 6.5 4.5 6.65 4.1 7.25 3.95 7.35 4.0 7.95 4.0 9.05 4.0 10.0 3.8 10.35 Q5.7 10.7 7.6 10.35 L7.9 10.15 8.55 9.2 Q10.85 8.75 12.0 10.8 L12.35 11.3 Q13.6 13.05 12.0 14.85 11.4 15.6 10.5 15.8 12.55 16.7 14.8 16.7 L15.55 15.95 Q19.3 15.65 21.8 12.7 L22.0 12.55 Q23.85 13.2 25.4 14.5 26.05 15.1 25.95 16.0 L25.25 16.75 25.15 16.95 24.95 17.3 Q24.8 17.8 25.55 18.1 L25.75 18.25 25.85 18.45 25.95 19.2 25.95 19.35 26.75 20.15 27.3 20.6 27.95 21.2 Q29.8 21.55 31.45 20.6 L31.5 20.4 31.35 20.35 31.3 19.85 31.25 19.7 31.25 19.5 33.05 17.2 Q33.6 16.0 33.5 14.6 L35.1 13.4 Q35.75 12.95 36.0 12.2 L35.8 11.25 35.5 9.55 35.5 9.2 41.1 8.0 Q41.55 6.6 40.9 5.3 40.55 4.55 40.5 3.7 40.45 2.9 40.55 2.2 L39.55 1.45 38.3 0.3 38.25 0.3 37.85 0.3 37.8 0.5 37.8 0.7 37.7 1.45 Q36.1 1.85 35.0 0.5 L34.55 -0.4 Q32.15 -1.1 31.3 1.1 32.4 2.55 31.7 4.35 31.15 5.65 30.1 6.35 L31.35 3.65 Q31.85 2.35 30.75 1.55 30.75 0.85 31.1 0.2 L31.3 -0.1 28.35 -0.95 28.65 -1.7 28.75 -2.05 Q28.4 -2.95 28.75 -3.8 L28.75 -4.7 27.8 -4.75 27.35 -4.45 Q24.65 -3.9 22.55 -5.45 L22.55 -5.6 22.5 -5.8 Q21.55 -6.45 20.3 -6.55 L20.0 -6.95 20.15 -7.85 20.25 -8.65 21.25 -8.8 23.2 -11.05 23.35 -11.25 Q22.7 -12.85 21.15 -13.8 L21.15 -14.0 21.3 -14.15 Q22.75 -13.05 23.8 -11.5 L23.95 -11.3 22.9 -9.95 22.55 -9.65 22.5 -9.45 22.5 -9.25 20.7 -8.2 20.6 -7.65 20.55 -7.25 Q21.4 -6.7 22.7 -6.3 L22.9 -5.75 22.95 -5.55 Q25.2 -4.05 27.85 -5.05 L28.8 -5.05 29.15 -4.15 29.1 -3.55 28.85 -3.2 28.85 -2.8 28.85 -2.65 29.0 -2.45 29.1 -2.25 28.9 -1.7 28.85 -1.3 30.3 -0.9 31.3 -0.15 32.5 -1.0 Q34.55 -1.55 35.2 0.05 35.65 1.1 36.85 1.25 L37.3 1.2 37.3 1.0 37.35 0.8 37.5 0.05 37.65 -0.05 38.0 -0.1 38.1 -0.5 Q39.75 -1.5 39.8 -3.3 L38.55 -5.0 39.3 -7.45 39.3 -7.65 39.05 -8.0 Q40.25 -8.6 41.5 -9.3 L41.75 -10.25 41.8 -10.35 41.6 -10.4 41.8 -10.4 41.8 -10.45 Q39.65 -13.8 35.45 -14.6 35.25 -14.65 35.15 -14.75 L34.2 -14.4 33.35 -14.15 33.25 -14.3 33.1 -14.7 33.05 -14.9 33.05 -14.95 32.1 -15.15 31.95 -15.3 31.9 -15.5 32.05 -15.9 Q31.4 -18.15 28.65 -17.2 L27.95 -17.0 27.55 -17.0 27.4 -16.85 27.2 -16.5 25.5 -15.65 24.8 -15.75 24.55 -15.35 24.45 -15.05 Q22.7 -15.1 21.1 -14.25 19.9 -12.6 18.0 -11.7 17.9 -10.45 16.9 -9.6 L16.35 -9.15 16.25 -9.1 15.85 -9.15 14.5 -10.8 14.3 -10.95 Q11.2 -10.65 9.75 -7.7 L9.65 -7.55 9.7 -7.4 Q9.9 -6.75 10.45 -6.25 L10.35 -6.1 10.25 -6.0 10.1 -6.05 Q9.35 -6.85 8.95 -7.9 L8.25 -9.2 Q5.3 -10.4 4.7 -7.75 L4.55 -7.6 4.4 -7.45 Q5.3 -5.7 4.5 -3.85 L4.45 -3.7 3.5 -3.45 Q2.35 -4.05 1.45 -5.05 L-0.15 -3.7 -2.4 -3.7 -3.2 -4.35 -3.25 -4.25 -4.75 -3.1 -5.05 -2.8 -8.05 -2.4 -8.6 -0.5 -8.25 1.0 -8.35 1.55 -8.3 1.95 -8.3 2.1 -8.4 2.25 -8.65 2.35 -8.8 1.35 Q-11.2 2.75 -14.5 2.8 L-15.05 3.0 Q-16.25 3.95 -15.55 5.45 L-15.65 6.0 -15.75 6.35 -16.75 6.75 -17.2 6.75 Q-18.6 5.85 -20.3 6.35 -21.35 7.05 -21.8 8.2 L-22.0 9.35 -22.0 9.55 Q-20.7 9.65 -19.55 10.35 -18.95 11.55 -19.3 12.85 L-19.55 14.85 -19.55 15.05 -19.9 15.4 -20.15 15.45 -20.05 14.1 -20.0 13.0 -20.0 12.6 -19.8 12.45 -19.75 11.7 -19.75 11.3 -19.75 11.1 Q-20.85 10.05 -22.5 9.8 L-22.45 9.3 -25.4 8.6 -25.85 9.55 -25.95 10.1 -26.2 10.85 -26.05 11.65 -26.1 12.35 -26.25 12.75 Q-27.65 13.65 -29.45 13.45 L-29.6 13.25 -29.75 13.05 -29.9 12.85 -30.0 12.9 -30.2 13.05 -30.3 13.2 -30.45 13.2 -31.15 14.3 -31.25 14.5 -31.05 15.05 -31.0 15.45 -31.1 15.55 -31.4 15.7 Q-31.95 14.85 -31.6 14.0 L-31.5 13.6 -30.9 13.1 Q-30.95 12.75 -30.45 12.5 L-30.0 12.25 -29.65 12.3 -29.5 12.5 -29.4 12.7 -26.9 12.6 -26.65 12.45 Q-26.5 12.15 -26.5 11.85 L-26.6 11.5 -26.65 11.3 -26.75 11.1 -26.4 9.6 Q-26.25 8.8 -25.6 8.25 L-25.2 8.1 -22.45 9.15 Q-22.1 6.05 -18.85 5.7 L-16.7 5.95 -16.2 5.95 Q-16.75 3.9 -15.45 2.65 -14.05 1.3 -11.95 1.7 L-11.0 1.7 -8.8 1.2 -8.85 -1.2 -8.6 -2.55 -8.75 -2.55 -9.0 -2.7 Q-10.25 -5.5 -12.6 -7.3 L-13.2 -7.7 -13.95 -7.65 -14.75 -6.9 -14.75 -6.7 -14.75 -6.5 Q-16.15 -4.9 -18.4 -5.05 L-18.5 -5.4 Q-20.4 -4.2 -22.0 -6.05 L-22.05 -6.2 -22.45 -6.2 -22.95 -5.25 -23.05 -4.7 -23.0 -4.5 -22.8 -4.15 -23.2 -3.2 -23.45 -2.65 Q-25.55 -3.9 -27.65 -2.95 L-27.6 -3.1 -27.4 -3.65 Q-25.45 -4.15 -23.7 -3.15 L-23.45 -3.7 -23.25 -4.05 -23.3 -4.25 -23.45 -4.45 -23.2 -5.8 -22.5 -6.7 -21.95 -6.65 Q-20.95 -4.95 -19.2 -5.45 L-18.9 -5.55 -18.5 -5.5 -18.9 -7.1 -19.0 -8.05 Q-20.15 -8.9 -19.8 -10.1 L-19.5 -11.25 -19.65 -11.8 -19.7 -12.0 Q-20.4 -12.7 -20.25 -13.7 L-20.25 -14.05 -20.05 -14.25 Q-21.15 -15.5 -23.2 -15.45 -25.05 -15.35 -26.8 -14.45 -28.1 -13.75 -29.25 -14.85 -30.65 -16.2 -30.2 -18.2 L-30.3 -18.35 -30.45 -18.55 -30.5 -20.0 -30.7 -20.0 -30.5 -20.25 -30.5 -20.45 -31.05 -20.95 -31.9 -20.9 -32.5 -20.55 -33.25 -20.9 -33.25 -21.45 -33.25 -21.65 -33.7 -22.4 -33.75 -22.55 -33.65 -22.65 -33.5 -22.7 -33.4 -22.7 Q-32.85 -22.2 -32.75 -21.55 L-32.75 -21.4 -32.7 -21.25 -32.5 -21.15 -31.95 -21.45 -30.15 -21.2 -30.0 -20.55 -29.05 -21.55 -28.8 -21.9 -29.65 -22.6 -30.15 -22.8 -30.25 -23.2 -30.25 -23.4 -30.25 -23.55 Q-29.7 -24.15 -28.9 -24.25 L-28.7 -24.3 Q-28.7 -23.7 -29.65 -23.5 L-29.75 -23.4 -28.6 -22.2 -28.4 -22.05 Q-28.8 -20.85 -29.95 -20.2 L-30.0 -19.3 -30.0 -18.95 -29.7 -18.55 -29.55 -18.4 Q-29.9 -17.4 -29.6 -16.35 L-29.4 -15.55 Q-27.1 -13.8 -24.5 -15.65 L-23.0 -16.25 Q-20.8 -15.8 -19.3 -14.45 -19.15 -14.0 -19.7 -13.9 -19.3 -12.3 -19.3 -10.7 L-19.25 -9.75 Q-19.2 -8.9 -18.5 -8.25 L-18.2 -6.35 -18.15 -5.8 -15.75 -6.15 -15.25 -6.7 -15.25 -6.9 -15.25 -7.05 Q-13.05 -9.35 -10.95 -6.75 -9.6 -5.15 -8.75 -3.3 L-8.25 -3.25 -8.05 -3.05 -8.05 -2.95 -5.25 -3.4 -3.8 -4.55 -3.45 -4.9 -3.55 -6.05 -3.7 -6.95 -1.55 -8.45 -1.95 -8.55 -1.05 -9.15 -0.25 -10.15 0.0 -10.2 0.0 -10.25 Q2.4 -10.15 3.05 -7.75 L3.2 -7.55 4.0 -7.55 4.25 -7.75 Q4.85 -10.15 7.15 -9.9 7.6 -11.05 7.7 -12.55 L7.55 -13.5 6.8 -14.2 4.35 -14.9 Q4.2 -15.85 4.75 -16.75 6.35 -17.55 7.85 -18.65 L8.35 -18.5 8.7 -18.55 10.5 -19.8 Q9.75 -21.85 7.35 -21.65 L7.1 -22.2 7.05 -22.4 7.1 -22.55 7.25 -22.75 7.3 -23.15 7.3 -23.3 8.0 -23.8 8.05 -23.8 7.85 -23.45 7.7 -23.25 7.55 -22.5 7.5 -22.3 Q8.75 -22.1 10.0 -21.25 10.65 -20.75 10.7 -19.95 L11.75 -20.45 13.2 -18.55 13.75 -18.55 Q14.7 -19.6 14.5 -21.0 L13.75 -22.15 14.0 -24.0 14.0 -24.2 14.25 -24.4 14.35 -24.45 Q14.05 -22.8 14.85 -21.45 L15.0 -21.25 15.0 -19.95 15.0 -19.75 13.85 -18.15 13.1 -18.15 11.75 -19.8 10.9 -19.6 10.75 -19.5 10.6 -19.45 10.6 -19.5 8.95 -18.2 8.1 -18.25 Q6.3 -17.4 5.05 -16.05 L4.7 -15.4 7.8 -13.9 Q8.7 -11.7 7.25 -9.9 L8.3 -9.65 9.6 -7.7 Q10.4 -10.2 13.4 -11.2 L14.3 -11.4 15.85 -10.05 15.95 -9.9 16.0 -9.7 16.15 -9.6 16.35 -9.65 17.45 -10.95 17.55 -11.15 17.5 -11.3 17.35 -11.5 17.25 -11.7 19.4 -13.15 19.35 -13.15 19.05 -13.5 18.95 -14.45 18.85 -14.65 18.1 -14.9 17.25 -16.0 Q17.5 -16.6 18.2 -16.65 18.6 -17.9 19.45 -18.9 L19.5 -19.05 18.5 -19.9 Q18.45 -22.1 20.4 -23.25 L20.55 -23.3 Q19.5 -21.95 19.0 -20.3 L19.0 -20.15 19.3 -19.8 19.85 -19.7 M1.05 -9.65 L0.05 -9.65 -0.1 -9.45 Q-0.45 -8.95 -1.05 -8.7 L-1.05 -8.6 -1.0 -8.7 -0.75 -8.6 -0.65 -8.45 Q-2.0 -7.95 -3.2 -7.05 -3.55 -6.3 -3.25 -5.5 L-3.15 -4.6 Q-2.8 -4.5 -2.25 -3.95 L-0.2 -4.0 1.35 -5.3 3.35 -3.7 Q4.5 -4.1 4.4 -5.6 L4.25 -7.3 3.75 -7.05 3.1 -7.15 2.95 -7.3 2.1 -8.05 2.0 -8.25 2.0 -8.45 2.0 -8.8 1.85 -9.0 1.25 -9.55 1.05 -9.65 M13.55 -3.15 L12.1 -3.2 12.15 -3.3 12.5 -3.5 12.75 -3.7 Q14.7 -3.05 15.95 -1.35 L16.65 -0.8 16.85 -0.65 17.1 0.7 17.1 2.0 17.0 2.1 16.55 2.25 15.35 3.3 15.05 3.55 Q16.4 4.8 18.5 4.7 L18.2 4.75 Q16.15 5.2 14.6 3.85 14.65 3.15 15.35 2.75 L16.05 2.35 16.15 2.2 16.25 2.0 16.35 1.85 16.5 1.8 16.8 1.75 16.7 0.8 16.55 -0.3 Q14.9 -1.25 13.75 -2.9 L13.55 -3.15 M29.05 -13.8 L29.25 -11.95 29.25 -11.75 29.5 -11.55 29.55 -11.65 29.75 -11.75 Q30.9 -11.85 31.6 -11.2 L31.35 -10.95 28.85 -11.05 Q28.75 -12.35 28.95 -13.8 L29.05 -13.8 M29.1 -5.15 L30.95 -6.7 31.05 -7.65 31.05 -7.8 Q31.75 -8.7 31.75 -9.9 L31.75 -10.05 31.4 -10.75 31.55 -10.8 32.0 -10.25 32.1 -10.05 31.95 -8.7 35.25 -8.8 35.55 -10.65 35.55 -10.8 35.75 -11.0 35.85 -11.3 36.0 -11.35 36.05 -11.4 Q36.35 -11.1 36.05 -10.8 L35.95 -10.65 35.7 -8.75 35.7 -8.55 32.0 -8.3 31.85 -8.4 31.55 -7.8 31.45 -7.65 31.4 -6.7 31.35 -6.4 30.85 -6.3 29.45 -5.0 29.1 -5.15 M71.05 -0.15 L70.95 0.25 70.8 0.45 Q70.65 0.9 70.75 1.35 L70.75 1.55 71.2 2.1 Q71.1 2.85 70.5 3.25 L70.45 3.45 70.45 3.6 69.45 3.85 Q69.2 4.35 68.6 4.45 L68.5 4.8 68.5 5.0 68.25 5.35 68.25 5.55 68.25 5.75 67.95 6.1 67.95 6.3 67.95 6.5 67.1 7.45 Q66.15 7.9 65.8 7.2 L66.95 6.95 67.55 6.35 67.95 4.5 68.0 4.3 Q68.25 3.85 69.0 3.7 L69.0 3.5 69.05 3.3 69.25 3.1 70.1 3.1 70.3 2.75 70.45 2.55 Q70.65 2.3 70.25 2.0 L70.25 1.8 70.25 1.6 70.0 1.25 70.2 0.7 70.25 0.5 Q70.55 0.05 71.0 -0.1 L71.05 -0.15 M81.45 3.5 L81.5 3.7 82.1 4.1 81.0 4.0 80.45 4.25 80.05 4.8 79.9 6.5 79.8 6.85 79.0 7.55 Q78.9 7.2 79.4 6.85 L79.55 6.7 79.75 5.95 79.85 5.55 79.65 4.95 79.6 4.8 Q80.2 4.05 81.0 3.5 L81.1 3.2 81.25 3.15 81.3 3.1 81.45 3.5 M77.95 1.45 L78.05 1.45 Q77.0 3.3 74.8 2.55 L74.8 2.5 74.2 2.55 74.05 3.65 73.95 4.05 74.1 4.45 74.15 4.8 74.2 5.0 Q73.75 5.65 72.95 5.55 72.5 5.85 72.45 6.3 L75.85 8.6 76.05 9.55 76.1 9.8 76.3 9.75 77.4 8.45 77.55 8.25 77.6 8.05 77.6 7.85 77.6 7.7 77.8 7.5 78.0 7.4 78.0 7.35 78.9 7.65 79.1 7.8 79.1 8.0 79.1 8.2 79.1 8.5 79.8 8.7 80.05 8.85 80.05 9.25 80.25 9.8 80.3 9.95 80.1 10.05 79.95 9.85 79.9 9.7 79.85 9.3 79.8 9.0 79.75 8.95 78.85 8.8 78.85 8.6 78.85 8.25 78.8 7.85 78.6 7.8 77.95 7.75 Q77.75 8.75 77.0 9.45 L76.45 10.0 75.9 10.1 73.7 12.2 73.35 12.55 73.35 13.5 73.35 13.7 Q74.4 14.8 76.05 15.15 L76.2 15.25 Q76.4 15.9 77.35 15.55 L77.7 16.1 77.75 16.3 Q78.4 16.6 78.7 17.05 78.55 17.4 78.05 17.2 L77.25 16.6 77.2 16.45 77.2 16.25 76.1 16.2 75.85 15.6 75.8 15.45 Q75.15 14.95 74.1 14.85 L73.1 14.1 73.1 12.8 73.1 12.45 Q73.95 11.05 75.4 10.3 L75.7 10.1 75.1 9.7 75.2 9.55 Q75.4 9.75 75.75 9.8 L75.6 9.05 75.55 8.85 Q75.1 8.1 74.1 8.1 L72.1 6.6 72.05 6.25 72.05 6.05 72.85 5.1 73.75 4.95 73.55 4.55 73.75 3.05 73.8 2.5 74.1 2.1 75.2 2.3 Q76.3 2.95 77.25 1.8 77.8 1.85 77.95 1.45 M60.75 11.35 L60.5 11.25 60.3 11.05 58.15 11.25 58.2 11.45 57.2 12.55 55.85 12.6 55.75 12.45 55.7 12.3 53.95 12.55 Q53.45 14.1 51.95 14.55 L51.5 14.85 51.2 14.75 Q50.6 15.0 50.1 15.35 L47.35 15.35 47.35 13.1 47.4 12.55 47.5 12.0 47.05 11.05 46.95 10.85 41.6 10.6 Q40.65 10.05 40.1 9.1 L40.1 8.95 36.0 9.5 36.1 10.25 36.35 11.0 36.5 12.3 35.75 13.3 34.1 14.75 33.65 17.15 Q33.2 18.7 31.75 19.6 L31.85 20.0 33.0 20.3 33.85 20.3 34.85 21.25 34.8 22.55 34.75 23.15 35.6 23.05 36.0 23.8 Q36.7 23.75 37.35 23.2 L37.65 20.55 Q37.7 20.1 38.05 19.8 40.05 20.3 41.8 19.45 L41.8 19.05 41.75 19.05 41.8 18.8 41.85 18.0 Q41.9 17.9 42.0 17.95 L42.05 17.75 41.0 16.25 Q41.15 15.65 41.6 15.3 41.35 14.25 41.95 13.25 L42.1 13.05 44.7 13.2 45.95 10.95 46.05 10.95 Q45.8 12.3 44.95 13.6 L44.95 13.7 42.3 13.6 42.0 14.75 42.0 14.95 42.25 15.5 41.55 16.25 42.75 17.55 42.75 17.6 45.5 17.8 45.8 17.85 45.85 18.05 45.9 19.2 45.95 19.35 46.0 19.45 46.55 19.6 46.65 19.8 46.95 20.95 46.95 21.1 46.8 21.3 46.45 22.05 46.35 22.25 46.4 22.45 46.45 22.6 46.1 22.95 Q44.9 23.75 45.0 25.05 L45.15 25.2 45.55 25.45 45.95 25.35 Q47.15 25.05 47.95 24.05 L48.0 23.85 48.0 23.7 48.2 23.5 48.6 23.1 50.35 23.05 50.5 23.25 50.85 23.8 51.0 24.0 51.15 24.05 Q51.2 23.95 51.3 23.95 L51.3 24.1 Q53.2 24.45 55.0 23.25 L55.2 23.45 Q55.25 22.9 55.7 22.5 L56.05 22.2 56.25 22.1 57.05 21.95 57.25 21.75 57.6 21.45 57.75 21.3 Q59.6 21.0 60.8 22.3 L60.9 22.45 Q61.45 21.85 62.55 21.85 62.65 22.25 62.9 22.15 L63.05 22.1 63.35 22.5 63.95 23.8 Q63.95 24.35 64.75 23.95 65.6 23.2 66.5 22.65 L66.45 22.45 65.65 21.7 65.5 21.5 65.1 21.1 65.05 20.95 65.05 20.55 65.65 19.8 65.85 19.6 66.8 19.45 66.8 19.05 66.8 18.95 66.8 18.7 Q65.15 17.35 63.0 16.45 L61.8 15.75 61.8 15.55 61.8 15.35 61.85 15.2 62.1 15.0 62.7 13.7 Q62.95 12.75 62.6 11.8 L62.55 11.6 Q62.1 11.0 61.3 11.05 L60.75 11.35 M76.3 16.2 L76.2 17.7 76.2 17.85 76.85 18.8 Q76.0 20.05 75.5 21.45 L75.85 22.1 75.3 22.2 75.0 21.8 Q75.15 20.1 76.3 18.8 76.25 18.35 75.8 18.05 L76.1 16.25 76.3 16.2 M55.8 4.2 Q55.85 3.6 55.55 3.05 55.2 3.1 54.6 3.5 L54.35 3.6 54.25 3.7 Q52.75 3.2 51.35 2.45 L51.0 2.05 48.7 2.05 48.65 2.15 48.5 2.25 47.6 2.2 47.5 2.05 47.35 2.0 Q45.7 2.1 44.1 2.7 L43.7 2.95 42.45 2.8 41.55 2.6 41.0 2.6 41.6 7.9 Q41.65 8.4 41.1 8.6 L40.4 8.85 Q40.7 9.75 41.6 10.2 L47.05 10.35 Q47.95 11.4 47.75 12.6 L47.65 13.75 47.7 14.85 Q49.65 15.7 51.25 14.3 L51.5 14.35 Q51.95 14.0 52.55 13.95 L53.55 12.6 53.6 12.25 53.6 12.1 55.8 11.85 56.0 12.05 56.05 12.2 57.0 12.2 Q57.35 11.65 57.8 11.25 L56.1 11.1 Q55.15 9.8 53.7 9.25 52.95 9.0 52.8 8.3 53.75 7.25 54.9 6.35 L55.95 5.1 55.85 4.35 55.8 4.2 M30.45 8.45 L30.3 8.25 30.1 7.15 30.0 6.8 28.35 6.6 Q27.8 6.1 27.65 5.3 L27.6 5.1 Q26.7 5.45 26.0 6.65 L25.6 7.25 25.6 7.6 25.55 7.8 25.25 8.2 25.1 8.3 23.15 8.2 23.1 8.1 25.05 8.0 25.25 7.8 25.35 7.6 Q25.55 6.6 26.2 5.7 L26.35 5.35 27.5 4.6 27.5 4.55 27.8 4.6 28.3 5.95 28.35 6.1 Q29.55 6.05 30.45 6.75 L30.65 7.9 30.7 8.2 32.05 8.6 32.2 9.55 32.2 9.75 31.0 11.45 Q30.8 12.1 31.3 12.55 L31.5 12.75 Q32.75 12.65 33.75 11.5 L35.2 12.8 Q34.35 12.95 33.7 12.25 L31.75 13.45 Q30.65 12.8 30.55 11.6 L30.55 11.45 31.7 9.5 31.8 9.05 30.6 8.6 30.45 8.45 M23.05 6.1 L23.1 6.5 23.3 7.25 23.35 7.45 22.9 8.15 22.6 8.95 Q21.55 9.7 20.55 10.6 L20.35 10.8 20.5 11.4 20.6 12.1 20.95 12.45 Q21.3 12.7 21.3 13.05 L20.95 12.85 20.35 12.55 20.3 11.8 20.1 10.85 Q20.75 9.85 21.85 9.2 L22.25 9.0 22.6 8.25 23.0 7.5 22.9 7.15 22.85 6.35 Q21.45 4.55 19.3 4.6 L19.8 4.5 20.85 4.6 Q22.15 5.0 23.05 6.1 M21.75 13.05 Q19.45 16.05 15.75 16.6 L14.8 17.1 12.2 16.8 11.3 17.95 11.2 18.1 11.2 18.3 11.2 18.5 11.05 18.7 10.95 18.85 12.6 21.1 12.7 22.45 12.7 22.7 12.8 22.7 15.25 23.05 15.8 23.1 16.2 23.7 16.55 24.05 16.7 24.25 Q18.0 24.15 19.3 24.7 L19.45 24.8 19.3 25.75 19.3 25.95 Q21.25 25.85 22.85 24.7 L23.15 24.9 23.3 25.0 25.05 24.75 25.65 23.65 25.85 23.05 25.35 22.8 25.25 22.6 25.25 22.5 24.85 22.35 24.95 22.0 25.05 21.6 27.0 20.7 Q26.4 20.05 25.6 19.6 L25.55 18.85 25.55 18.7 24.85 18.05 24.35 17.85 Q24.3 17.5 24.55 17.1 L24.8 16.8 25.55 15.8 Q25.05 14.65 23.85 13.85 L22.35 13.0 21.75 13.05 M10.75 9.8 L9.75 9.55 9.5 9.55 8.8 9.55 8.2 10.35 7.95 10.6 7.0 11.2 3.7 10.45 3.5 10.75 3.35 10.95 2.95 11.45 2.5 11.5 Q0.7 12.55 -0.7 14.1 L-0.8 14.25 -2.55 14.2 -3.45 14.95 -2.65 16.25 Q-2.45 16.6 -2.5 17.0 L-3.0 17.75 -3.25 18.1 -3.25 18.5 -3.25 18.85 -3.05 19.05 Q-1.3 19.55 -0.6 21.35 L-0.5 21.85 -0.2 21.85 -0.15 21.95 0.25 22.25 0.15 22.7 3.2 22.5 Q4.4 21.35 6.05 21.1 L7.25 23.0 7.35 23.2 7.3 23.95 7.25 24.1 7.45 25.25 7.45 25.6 8.8 26.5 Q8.85 26.05 9.05 25.7 9.5 25.4 10.05 25.7 L10.35 25.5 10.0 25.25 Q10.7 24.0 12.25 23.6 L12.3 21.75 12.3 21.35 10.55 18.95 10.7 18.55 10.8 18.35 10.8 18.2 10.8 18.0 12.0 16.75 10.35 16.0 10.3 16.05 10.25 16.25 10.1 16.45 9.8 16.45 9.6 16.3 Q8.55 15.65 7.25 16.1 L7.2 16.3 Q6.9 16.75 7.05 17.25 L6.95 17.75 6.75 17.75 5.2 17.3 5.25 17.15 5.65 16.65 5.85 16.55 5.75 16.75 5.75 16.8 6.35 16.85 6.45 16.75 6.65 16.4 6.75 15.8 6.8 15.65 7.0 15.55 7.0 15.5 10.1 15.8 Q12.05 14.75 12.35 12.55 12.5 11.45 11.5 10.7 L10.75 9.8 M3.25 7.3 Q2.45 6.75 1.45 6.6 L0.35 6.45 0.25 6.3 0.1 6.25 Q-1.0 6.35 -1.9 5.65 L-2.15 5.5 Q-3.9 6.05 -4.9 4.95 L-5.0 5.1 -6.05 6.0 -5.3 6.9 -5.15 7.1 -5.2 7.5 -5.25 7.7 -5.15 9.1 -5.15 9.3 Q-7.65 9.75 -10.25 9.3 -10.85 9.95 -10.8 10.8 L-10.8 11.0 -12.05 12.3 -12.05 14.55 -12.05 14.95 -14.0 15.6 Q-14.5 17.05 -13.9 18.45 L-13.8 18.6 -11.0 19.0 -11.0 18.8 -10.8 18.45 -10.75 18.05 -10.75 17.5 -10.75 17.3 Q-10.0 16.5 -8.4 17.1 L-8.15 17.0 -8.1 16.8 -8.05 16.6 -7.9 16.45 -7.8 15.85 -7.8 15.1 -7.8 14.95 Q-7.4 14.3 -6.7 14.0 L-6.0 13.7 -5.15 13.75 -4.4 14.15 -3.85 14.45 -2.7 13.5 -2.4 13.5 -2.2 13.6 -2.05 13.7 -1.05 13.6 Q0.5 12.0 2.5 10.9 L2.75 10.75 2.85 10.8 3.05 10.5 3.2 10.3 3.25 10.25 3.1 10.2 3.25 10.25 3.45 9.95 3.5 9.2 3.5 8.8 3.5 7.85 3.5 7.55 3.45 7.55 Q3.0 7.8 2.85 7.45 L3.0 7.4 3.25 7.3 M10.65 25.05 L10.6 25.05 10.65 25.1 10.65 25.05 M-81.7 -1.7 L-81.0 -1.9 -80.8 -2.65 Q-80.55 -3.25 -79.9 -3.2 -77.95 -2.7 -77.35 -0.95 L-77.3 -0.75 -77.15 -0.6 -76.95 -1.5 -76.8 -1.7 -76.7 -1.9 -76.7 -2.05 -76.75 -2.25 -76.65 -2.45 -76.5 -2.65 -76.25 -2.7 -76.25 -2.75 -74.45 -2.3 -74.4 -2.2 -75.35 -2.2 -75.65 -2.25 -76.2 -2.2 -76.3 -2.0 -76.35 -1.8 -76.4 -1.65 -76.55 -1.45 -76.65 -0.25 -76.65 -0.2 -77.1 2.35 -77.5 3.45 Q-77.8 4.1 -78.4 4.35 L-78.75 3.65 -79.05 2.85 -79.25 2.5 -80.55 2.35 -80.9 2.35 -80.9 2.2 -80.75 2.0 -80.65 1.85 Q-79.25 1.65 -78.6 2.8 L-78.3 3.75 Q-77.55 2.55 -77.35 0.9 L-77.2 -0.1 -77.4 -0.15 Q-77.8 -2.05 -79.7 -2.6 L-80.05 -2.7 -80.3 -2.5 -80.4 -2.1 -80.5 -1.75 -80.55 -1.4 -81.5 -1.1 -81.75 -1.0 -82.2 -1.05 -82.75 -1.65 -83.45 -2.2 -83.35 -2.3 -82.9 -2.45 -82.35 -2.05 -82.05 -1.7 -81.7 -1.7 M-64.15 -19.85 L-64.2 -19.7 Q-64.9 -19.25 -65.45 -20.4 L-66.3 -19.45 -67.15 -19.4 Q-68.25 -20.2 -69.65 -20.65 L-69.65 -21.2 -69.65 -21.4 -70.3 -22.3 -70.2 -22.3 -69.7 -22.0 -69.45 -21.8 -69.4 -21.45 -69.4 -21.25 Q-68.45 -20.35 -67.05 -19.8 L-66.45 -19.8 -65.5 -20.95 -64.5 -19.95 Q-64.2 -20.25 -64.15 -19.85 M-67.65 -19.0 L-68.8 -18.55 -68.8 -17.65 -68.8 -17.05 Q-69.35 -16.05 -70.55 -16.15 L-70.8 -15.8 Q-72.1 -15.55 -72.55 -16.75 L-73.7 -16.8 -74.15 -17.2 -74.65 -16.5 -75.8 -15.55 -76.0 -15.4 -76.45 -15.3 -76.65 -15.5 -75.3 -16.65 Q-75.2 -16.7 -75.05 -16.8 L-74.55 -17.55 -74.45 -17.7 Q-73.85 -17.85 -73.5 -17.4 L-72.75 -17.5 -72.4 -17.45 -71.9 -16.7 -71.7 -16.4 -71.05 -16.4 -71.0 -16.55 -70.95 -16.7 -69.45 -16.8 -69.25 -17.0 -69.15 -17.95 -69.2 -18.7 Q-68.7 -19.25 -67.8 -19.25 L-67.6 -19.5 -67.45 -19.55 -67.55 -19.2 -67.65 -19.0 M-65.15 -9.95 L-64.7 -8.45 -64.5 -7.7 -64.7 -6.95 -65.0 -6.4 -64.9 -6.2 -64.75 -6.0 -65.2 -5.8 -65.45 -6.2 -65.5 -6.4 Q-64.85 -7.55 -65.35 -8.8 L-65.5 -9.5 Q-66.35 -9.65 -67.1 -10.1 L-67.4 -10.25 -67.0 -10.35 -66.95 -10.4 -65.55 -10.05 -65.15 -9.95 M-10.0 -26.5 Q-10.15 -26.9 -9.75 -26.95 L-9.65 -26.95 Q-9.75 -25.7 -10.25 -24.4 L-10.15 -23.95 -9.9 -23.55 Q-9.75 -23.1 -9.85 -22.65 L-9.9 -22.45 Q-11.75 -20.8 -14.4 -20.9 L-14.85 -21.2 -14.65 -20.65 -14.9 -20.4 -15.15 -20.5 Q-17.85 -18.75 -20.5 -17.25 L-20.65 -16.9 -20.4 -15.55 Q-20.95 -15.7 -20.9 -16.7 L-20.95 -17.65 -20.65 -18.15 Q-18.4 -18.65 -16.55 -20.0 L-16.4 -20.4 Q-15.7 -20.45 -15.2 -20.95 L-15.15 -22.25 -15.25 -22.8 -15.75 -23.4 -17.0 -23.05 -17.25 -23.2 -17.5 -23.75 -17.5 -23.95 Q-16.55 -24.3 -16.0 -25.05 L-15.95 -25.05 -15.8 -24.7 -15.75 -24.5 Q-16.1 -23.95 -16.75 -23.75 -16.45 -23.7 -15.75 -24.0 L-14.9 -23.25 Q-14.75 -22.4 -14.85 -21.55 L-14.85 -21.25 -14.65 -21.3 -14.4 -21.2 Q-12.05 -21.25 -10.25 -22.55 L-10.2 -23.15 -10.2 -23.3 Q-10.3 -23.75 -10.75 -23.9 -11.45 -25.3 -10.1 -26.35 L-10.0 -26.5 M-36.45 -18.05 L-36.8 -16.4 -36.9 -16.2 Q-37.7 -16.05 -38.3 -15.55 L-38.3 -14.45 -38.3 -14.3 -36.45 -14.15 -35.4 -13.05 Q-34.5 -13.25 -33.95 -14.0 L-33.9 -14.4 -33.9 -14.55 -34.3 -15.35 -34.4 -15.7 -33.6 -16.55 -33.5 -16.65 -33.2 -16.55 -33.9 -15.8 -34.15 -15.65 -33.85 -15.05 -33.7 -14.9 -33.65 -14.3 -33.7 -13.95 Q-34.2 -13.2 -35.0 -12.9 L-35.3 -12.95 -34.4 -11.9 Q-35.7 -10.3 -37.65 -10.3 -36.1 -10.8 -34.8 -11.65 L-36.3 -13.5 -38.65 -13.9 -38.7 -14.65 -38.7 -14.8 -38.95 -15.2 Q-38.45 -16.3 -37.2 -16.55 L-36.55 -18.0 -36.45 -18.05 M-22.95 -3.3 L-22.85 -2.4 -22.9 -2.2 -22.05 -1.25 -22.15 -0.3 -22.15 -0.15 Q-22.55 0.1 -22.45 0.45 -22.85 0.7 -23.2 0.2 -22.65 0.0 -22.4 -0.45 L-22.5 -1.4 -23.15 -1.95 -23.05 -3.25 -22.95 -3.3 M-10.25 18.2 L-10.5 18.95 -10.55 19.1 Q-9.45 19.4 -8.4 19.85 -7.3 20.3 -7.05 21.45 L-7.25 21.75 -3.65 21.55 -3.45 21.2 -3.35 21.0 -3.25 20.95 -3.15 20.95 -1.1 21.75 -1.7 20.8 -2.25 19.85 -3.2 19.7 -3.55 19.3 -3.75 19.1 -3.75 18.35 -3.75 17.8 -3.2 17.05 -3.05 16.85 Q-3.0 16.2 -3.6 15.75 L-4.05 15.35 -4.05 15.0 -4.05 14.65 -4.2 14.7 Q-5.95 13.85 -7.2 15.2 L-7.2 15.75 -7.2 16.3 -7.2 16.5 -7.5 17.1 -8.0 17.6 -10.25 17.6 -10.25 18.2 M-17.25 23.0 L-17.3 23.2 Q-18.25 23.5 -18.55 24.3 L-18.1 25.05 -18.0 25.2 Q-17.4 25.15 -17.05 25.55 L-15.65 26.9 -15.55 27.05 -15.3 27.25 -15.2 27.2 -15.1 27.35 -14.75 27.5 -14.65 27.45 -14.2 27.35 -14.05 27.2 -13.25 25.7 -13.0 25.3 -13.0 25.15 -13.05 24.95 -13.2 24.75 -13.2 24.55 -13.2 24.35 -13.1 24.2 -13.0 24.1 -10.0 24.4 -9.75 24.45 -9.7 24.35 -9.7 23.25 -9.7 23.05 -7.5 21.55 Q-8.9 18.9 -12.25 19.25 L-13.35 19.15 -14.8 20.6 -15.0 20.8 -15.0 21.95 -15.0 22.85 Q-15.9 23.95 -17.0 22.7 L-17.25 23.0 M-26.9 10.55 L-26.95 10.7 -27.15 10.8 -31.6 8.75 Q-32.4 8.35 -33.0 9.0 L-33.0 9.2 -33.05 9.35 -34.05 10.1 -34.5 10.7 -34.6 11.3 -34.75 12.0 -34.75 12.2 -36.3 13.6 -36.5 14.25 -37.7 14.45 -39.8 13.0 Q-40.5 12.6 -41.25 12.6 L-41.55 12.95 -41.9 13.2 -41.9 12.8 -41.45 12.05 Q-39.3 11.95 -37.95 13.55 L-37.5 13.95 -37.0 13.85 Q-36.9 13.05 -36.15 12.6 L-35.3 12.0 -35.25 11.6 -35.25 11.25 -35.25 11.05 -35.2 10.9 -35.0 10.7 -35.0 10.5 -34.95 10.3 -34.2 9.55 -33.55 9.0 -33.5 8.8 -33.5 8.6 -32.8 8.25 -32.25 8.0 Q-31.35 8.15 -30.6 8.65 L-30.45 8.8 Q-28.95 9.85 -26.95 10.45 L-26.9 10.55 M-36.4 23.2 L-34.9 24.5 -35.0 26.15 -35.15 27.1 -36.05 27.75 -36.25 27.95 -36.3 28.5 -36.25 28.85 -36.65 29.05 -36.65 28.5 -36.7 28.1 -35.75 27.1 -35.45 26.95 Q-35.1 26.25 -35.1 25.45 L-35.15 24.7 Q-35.8 24.1 -36.65 23.55 -36.25 20.95 -33.95 19.45 L-33.7 19.45 Q-35.45 20.8 -36.3 23.0 L-36.4 23.2 M-25.2 14.1 Q-26.1 14.0 -26.25 13.35 L-26.15 13.35 -25.2 13.65 -24.95 13.8 -24.85 14.0 -24.8 14.15 -24.65 14.35 -24.95 16.45 -25.45 17.2 -25.2 17.55 -24.9 17.95 -24.85 18.1 -24.8 18.3 -24.8 18.5 -25.0 18.55 -25.15 18.45 -25.2 18.1 -25.25 18.05 -25.6 17.85 -25.75 17.7 -25.85 17.5 -25.9 17.3 -25.9 17.1 -25.55 16.7 -25.3 16.2 -25.3 16.0 -25.45 15.8 -25.25 15.4 -24.95 14.7 -25.05 14.5 -25.15 14.3 -25.2 14.1 M-29.55 22.75 L-26.5 25.3 -26.3 25.55 Q-25.2 25.7 -24.3 26.25 L-24.3 27.05 -22.95 26.7 -22.35 27.05 -21.95 27.2 Q-20.9 27.95 -19.9 28.85 L-19.8 29.45 -19.8 30.0 -20.15 29.9 -20.2 29.8 -20.25 29.25 -20.4 28.85 -20.9 28.6 Q-21.85 27.65 -23.05 26.95 L-23.8 27.25 -24.3 27.5 -24.3 27.95 Q-25.2 28.7 -26.4 28.95 L-26.15 29.5 -26.05 29.7 -26.1 29.8 -26.4 29.95 -26.95 29.0 -27.0 28.8 -24.75 27.85 -24.65 27.5 -25.15 27.2 -24.65 27.1 -24.65 26.95 -24.75 26.35 -26.65 25.85 -26.85 25.3 -26.95 25.1 Q-28.6 24.4 -29.95 23.0 -29.85 21.9 -28.65 21.5 L-28.25 21.3 -27.7 21.5 -27.65 21.55 Q-28.85 21.75 -29.55 22.75 M-57.5 21.3 Q-56.5 21.6 -56.6 22.7 L-56.75 23.25 -56.65 23.45 -56.6 23.6 -56.55 24.0 Q-57.8 25.05 -59.4 25.7 L-59.55 27.0 -59.5 27.95 -59.6 28.05 -59.9 28.2 -60.05 26.5 -60.0 25.55 Q-58.65 24.5 -56.95 23.8 L-56.95 23.65 -57.05 23.45 -57.2 23.25 -57.15 23.05 -57.05 22.85 -56.95 22.5 -56.95 22.3 -57.05 22.1 -57.2 21.8 -57.25 21.8 -57.75 21.85 -58.0 21.95 -58.25 21.9 -58.9 21.8 -59.25 21.45 -59.7 21.05 -59.7 20.85 -59.7 20.7 -60.75 19.95 -60.65 19.95 -60.35 20.0 -59.7 20.1 -59.45 20.3 -59.35 20.5 -59.3 20.7 -59.3 20.85 -59.25 21.05 -59.05 21.25 -58.9 21.45 Q-58.35 21.75 -57.75 21.45 L-57.5 21.3 M-76.55 9.15 L-76.15 9.35 -76.95 9.45 -78.2 8.8 -78.55 8.85 -78.85 9.6 -79.4 10.95 -79.9 10.6 -80.1 10.0 -80.2 9.8 -79.95 9.7 -79.75 9.8 -79.65 10.0 -79.55 10.05 -79.35 9.35 Q-79.25 8.55 -78.75 8.25 L-78.15 8.3 Q-77.45 8.9 -76.55 9.15 M-66.25 24.3 L-63.45 24.2 Q-63.3 22.9 -63.85 21.8 L-64.15 21.35 -64.2 21.0 -64.2 20.8 -62.9 19.25 -62.75 19.05 -62.45 19.2 -63.75 20.9 -63.8 21.05 -63.8 21.15 -63.45 21.35 -63.35 21.75 -63.3 21.95 -63.15 22.1 -63.0 23.8 -63.15 24.55 -66.65 24.8 -66.4 24.45 -66.25 24.3" fill="url(#gradient1)" fill-rule="evenodd" stroke="none"/>
  </g>
  <defs>
    <radialGradient cx="0" cy="0" gradientTransform="matrix(-2.0E-4, -0.0521, 0.0952, -5.0E-4, 0.4, 1.2)" gradientUnits="userSpaceOnUse" id="gradient0" r="819.2" spreadMethod="pad">
      <stop offset="0.0" stop-color="#bcbcbc"/>
      <stop offset="1.0" stop-color="#757575"/>
    </radialGradient>
    <radialGradient cx="0" cy="0" gradientTransform="matrix(-3.0E-4, -0.0765, 0.2378, -8.0E-4, 0.5, 0.25)" gradientUnits="userSpaceOnUse" id="gradient1" r="819.2" spreadMethod="pad">
      <stop offset="0.3333333333333333" stop-color="#000000"/>
      <stop offset="0.7568627450980392" stop-color="#000000" stop-opacity="0.0"/>
    </radialGradient>
  </defs>
</svg>
