<?xml version="1.0" encoding="UTF-8" standalone="no"?>
<svg xmlns:xlink="http://www.w3.org/1999/xlink" height="36.25px" width="43.45px" xmlns="http://www.w3.org/2000/svg">
  <g transform="matrix(1.0, 0.0, 0.0, 1.0, 20.85, 19.2)">
    <path d="M-2.1 -18.65 L0.0 -18.95 2.35 -18.6 3.0 -18.45 Q4.5 -18.0 5.75 -17.0 L6.75 -16.15 Q9.45 -13.5 9.45 -9.75 9.45 -7.05 8.05 -4.9 L7.05 -4.9 11.65 -3.95 Q15.95 -2.7 15.95 -0.85 15.9 0.35 14.2 0.65 L14.2 -1.5 12.8 -1.5 12.8 0.75 11.75 0.7 11.4 0.65 11.4 -2.3 10.0 -2.3 10.0 0.55 9.75 0.55 11.5 2.95 14.95 2.1 Q17.55 3.85 21.65 2.95 L17.55 4.05 18.3 6.75 22.35 5.65 Q18.35 7.3 17.05 9.8 L6.9 12.8 5.75 12.5 5.3 13.1 Q4.35 14.05 3.05 14.05 L2.65 14.05 2.0 16.8 -2.2 16.8 -2.7 14.05 -2.85 14.05 Q-4.1 14.05 -5.05 13.2 L-15.05 10.9 Q-16.5 8.45 -20.6 7.1 L-16.45 7.95 -15.9 5.25 -20.0 4.35 Q-15.9 5.0 -13.4 3.1 L-12.55 3.25 -9.65 -0.35 -9.65 -2.25 -11.05 -2.25 -11.05 0.7 -11.4 0.75 -12.45 0.75 -12.45 -1.45 -13.85 -1.45 -13.85 0.7 Q-15.6 0.4 -15.6 -0.8 -15.6 -2.65 -11.3 -3.9 L-7.05 -4.8 -7.7 -4.8 Q-9.15 -7.0 -9.15 -9.75 -9.15 -13.5 -6.45 -16.15 L-5.65 -16.9 Q-4.45 -17.9 -3.0 -18.35 L-2.05 -18.6 -2.1 -18.65 M2.2 -16.25 L0.0 -16.55 -2.05 -16.25 -2.05 -18.6 -2.05 -16.25 0.0 -16.55 2.2 -16.25 2.35 -16.2 2.35 -16.55 2.2 -16.25 M2.35 -18.6 L2.35 -16.55 2.35 -18.6 M6.35 -4.9 L4.45 -4.85 3.85 -4.85 2.35 -4.85 2.35 -16.2 2.35 -4.85 3.85 -4.85 4.45 -4.85 6.35 -4.9 5.4 -3.75 5.35 -3.65 3.7 -2.4 3.75 -2.4 3.5 -2.3 3.7 -2.4 3.5 -2.3 3.75 -2.4 5.9 -3.9 6.75 -4.9 6.35 -4.9 M7.05 -4.9 L6.75 -4.9 7.05 -4.9 M0.2 -0.45 L-2.95 -2.05 -2.2 -4.15 0.0 -3.85 2.2 -4.15 2.95 -2.0 Q1.6 -1.45 0.2 -0.45 L0.0 -3.85 0.2 -0.45 Q1.6 -1.45 2.95 -2.0 L2.2 -4.15 0.0 -3.85 -2.2 -4.15 -2.95 -2.05 0.2 -0.45 M2.25 -7.4 Q2.25 -8.25 1.65 -8.85 1.0 -9.45 0.2 -9.45 -0.65 -9.45 -1.25 -8.85 -1.85 -8.25 -1.85 -7.4 -1.85 -6.55 -1.25 -5.95 -0.65 -5.35 0.2 -5.35 1.0 -5.35 1.65 -5.95 2.25 -6.55 2.25 -7.4 2.25 -6.55 1.65 -5.95 1.0 -5.35 0.2 -5.35 -0.65 -5.35 -1.25 -5.95 -1.85 -6.55 -1.85 -7.4 -1.85 -8.25 -1.25 -8.85 -0.65 -9.45 0.2 -9.45 1.0 -9.45 1.65 -8.85 2.25 -8.25 2.25 -7.4 M0.95 -8.1 L0.2 -8.4 -0.5 -8.1 -0.8 -7.35 -0.5 -6.65 Q-0.2 -6.35 0.2 -6.35 0.6 -6.35 0.95 -6.65 L1.25 -7.35 0.95 -8.1 1.25 -7.35 0.95 -6.65 Q0.6 -6.35 0.2 -6.35 -0.2 -6.35 -0.5 -6.65 L-0.8 -7.35 -0.5 -8.1 0.2 -8.4 0.95 -8.1 M0.75 -11.25 L0.95 -11.8 0.75 -12.35 0.2 -12.55 -0.35 -12.35 -0.55 -11.8 -0.35 -11.25 0.2 -11.05 0.75 -11.25 0.2 -11.05 -0.35 -11.25 -0.55 -11.8 -0.35 -12.35 0.2 -12.55 0.75 -12.35 0.95 -11.8 0.75 -11.25 M1.25 -12.85 Q0.8 -13.3 0.2 -13.3 -0.45 -13.3 -0.85 -12.85 L-1.3 -11.8 Q-1.3 -11.2 -0.85 -10.75 -0.45 -10.3 0.2 -10.25 0.8 -10.3 1.25 -10.75 1.7 -11.2 1.75 -11.8 1.7 -12.45 1.25 -12.85 1.7 -12.45 1.75 -11.8 1.7 -11.2 1.25 -10.75 0.8 -10.3 0.2 -10.25 -0.45 -10.3 -0.85 -10.75 -1.3 -11.2 -1.3 -11.8 L-0.85 -12.85 Q-0.45 -13.3 0.2 -13.3 0.8 -13.3 1.25 -12.85 M-5.55 -3.85 L-5.4 -3.75 -5.35 -3.65 Q-4.25 -2.6 -2.95 -2.05 L-0.95 -0.05 1.55 -0.05 2.95 -2.0 3.5 -2.3 2.95 -2.0 1.55 -0.05 -0.95 -0.05 -2.95 -2.05 Q-4.25 -2.6 -5.35 -3.65 L-5.4 -3.75 -5.55 -3.85 -6.3 -4.8 -6.35 -4.8 -5.55 -3.85 M4.45 -4.85 L5.4 -3.75 4.45 -4.85 M2.2 -4.15 L3.85 -4.85 2.2 -4.15 M-7.05 -4.8 L-6.65 -4.8 -6.45 -4.8 -6.35 -4.8 -6.45 -4.8 -6.65 -4.8 -7.05 -4.8 M8.4 -1.2 L8.4 -2.9 7.0 -2.9 7.0 -1.7 7.3 -1.65 8.4 -1.2 8.4 0.5 9.75 0.55 8.4 0.5 8.4 -1.2 7.3 -1.65 7.0 -1.7 7.0 -0.75 Q7.8 0.25 7.8 1.6 7.8 0.25 7.0 -0.75 L7.0 -1.7 7.0 -2.9 8.4 -2.9 8.4 -1.2 M5.05 12.35 L5.75 12.5 5.05 12.35 5.0 12.4 2.8 13.4 2.65 14.05 2.8 13.4 2.8 13.3 2.7 13.35 1.95 13.55 1.65 13.6 0.7 13.75 0.3 13.7 -0.5 13.55 -0.85 13.45 Q-1.8 13.25 -2.3 12.5 L-2.35 12.55 -2.7 12.65 -2.8 13.6 -2.7 14.05 -2.8 13.6 -2.7 12.65 -2.35 12.55 -2.3 12.5 Q-1.8 13.25 -0.85 13.45 L-0.5 13.55 0.3 13.7 0.7 13.75 1.65 13.6 1.95 13.55 2.7 13.35 2.8 13.3 2.8 13.4 5.0 12.4 5.05 12.35 4.5 12.2 4.45 12.2 3.1 13.2 2.8 13.3 3.1 13.2 4.45 12.2 4.5 12.2 5.05 12.35 M2.75 12.75 L2.75 12.85 2.7 13.35 2.75 12.85 2.75 12.75 2.15 13.35 1.65 13.6 2.15 13.35 2.75 12.75 3.1 12.05 3.15 11.85 3.6 9.7 Q3.75 8.7 3.25 7.85 L2.1 6.95 3.25 7.85 Q3.75 8.7 3.6 9.7 L3.15 11.85 3.1 12.05 2.75 12.75 M6.05 4.35 Q5.8 2.35 5.0 0.4 L7.0 0.45 7.0 -0.75 7.0 0.45 5.0 0.4 Q5.8 2.35 6.05 4.35 L11.5 2.95 6.05 4.35 4.5 4.75 3.0 6.65 2.95 6.65 3.0 6.65 2.95 6.65 3.0 6.65 4.5 4.75 6.05 4.35 M2.3 6.4 L2.95 6.65 2.3 6.4 1.25 6.45 0.85 6.55 0.65 6.65 0.55 6.6 Q-0.4 6.4 -1.15 6.9 L-1.2 6.9 -2.2 5.75 -2.0 2.6 Q0.15 5.05 2.0 2.6 L2.3 6.4 2.0 2.6 Q0.15 5.05 -2.0 2.6 L-2.2 5.75 -2.8 5.1 -6.2 4.45 -12.55 3.25 -6.2 4.45 -2.8 5.1 -2.2 5.75 -1.2 6.9 -1.15 6.9 Q-0.4 6.4 0.55 6.6 L0.65 6.65 0.85 6.55 1.25 6.45 2.3 6.4 M0.85 6.55 L0.95 6.7 0.65 6.65 0.95 6.7 0.85 6.55 M15.65 8.55 L4.55 12.15 4.5 12.15 4.45 12.2 4.55 12.1 Q5.05 11.2 4.75 10.25 L4.2 8.15 Q3.9 7.2 3.05 6.7 L3.0 6.65 3.05 6.65 14.45 4.05 3.05 6.65 3.0 6.65 3.05 6.7 Q3.9 7.2 4.2 8.15 L4.75 10.25 Q5.05 11.2 4.55 12.1 L4.45 12.2 4.5 12.15 4.55 12.15 15.65 8.55 M18.3 6.75 L15.6 7.5 14.9 4.8 17.55 4.05 14.9 4.8 15.6 7.5 18.3 6.75 M-3.9 13.0 L-2.7 12.65 -3.9 13.0 -2.8 13.6 -3.9 13.0 -4.7 13.25 -5.05 13.2 -4.7 13.25 -3.9 13.0 M-0.5 13.55 L-0.65 12.65 Q-0.95 10.25 0.25 7.85 L0.95 6.7 1.75 6.85 2.1 6.95 1.65 7.8 1.0 9.55 Q0.45 11.45 0.65 13.55 L0.7 13.75 0.65 13.55 Q0.45 11.45 1.0 9.55 L1.65 7.8 2.1 6.95 1.75 6.85 0.95 6.7 0.25 7.85 Q-0.95 10.25 -0.65 12.65 L-0.5 13.55 M-16.45 7.95 L-13.75 8.55 -13.15 5.8 -15.9 5.25 -13.15 5.8 -13.75 8.55 -16.45 7.95 M-6.65 -0.95 L-6.65 0.5 -5.0 0.45 Q-5.9 2.5 -6.2 4.45 -5.9 2.5 -5.0 0.45 L-6.65 0.5 -6.65 -0.95 -6.75 -0.85 Q-7.6 0.2 -7.6 1.6 -7.6 0.2 -6.75 -0.85 L-6.65 -0.95 -6.65 -1.6 -7.65 -1.7 -8.05 -1.6 -8.05 0.55 -9.65 0.6 -9.65 -0.35 -9.65 0.6 -8.05 0.55 -8.05 -1.6 -7.65 -1.7 -6.65 -1.6 -6.65 -0.95 M-1.2 6.9 L-1.15 6.9 -1.2 6.9 -1.25 6.95 Q-2.1 7.5 -2.3 8.45 L-2.75 10.65 Q-2.9 11.25 -2.65 11.85 L-2.35 12.4 -2.3 12.5 -2.35 12.5 -2.4 12.5 -13.7 9.55 -2.4 12.5 -2.35 12.5 -2.3 12.5 -2.35 12.4 -2.65 11.85 Q-2.9 11.25 -2.75 10.65 L-2.3 8.45 Q-2.1 7.5 -1.25 6.95 L-1.2 6.9 -1.25 6.9 -12.75 5.05 -1.25 6.9 -1.2 6.9 -1.15 6.9 -1.2 6.9 M-5.4 -3.75 L-4.45 -4.85 -6.3 -4.8 -4.45 -4.85 -3.75 -4.85 -2.05 -4.85 -2.05 -16.25 -2.05 -4.85 -3.75 -4.85 -4.45 -4.85 -5.4 -3.75 M-3.75 -4.85 L-2.2 -4.15 -3.75 -4.85 M-8.05 -1.6 L-8.05 -2.85 -6.65 -2.85 -6.65 -1.6 -6.65 -2.85 -8.05 -2.85 -8.05 -1.6" fill="#000000" fill-rule="evenodd" stroke="none"/>
    <path d="M-2.1 -18.65 L0.0 -18.95 2.35 -18.6 3.0 -18.45 Q4.5 -18.0 5.75 -17.0 L6.75 -16.15 Q9.45 -13.5 9.45 -9.75 9.45 -7.05 8.05 -4.9 L7.05 -4.9 11.65 -3.95 Q15.95 -2.7 15.95 -0.85 15.9 0.35 14.2 0.65 L14.2 -1.5 12.8 -1.5 12.8 0.75 11.75 0.7 11.4 0.65 11.4 -2.3 10.0 -2.3 10.0 0.55 9.75 0.55 11.5 2.95 14.95 2.1 Q17.55 3.85 21.65 2.95 L17.55 4.05 18.3 6.75 22.35 5.65 Q18.35 7.3 17.05 9.8 L6.9 12.8 5.75 12.5 5.3 13.1 Q4.35 14.05 3.05 14.05 L2.65 14.05 2.0 16.8 -2.2 16.8 -2.7 14.05 -2.85 14.05 Q-4.1 14.05 -5.05 13.2 L-15.05 10.9 Q-16.5 8.45 -20.6 7.1 L-16.45 7.95 -15.9 5.25 -20.0 4.35 Q-15.9 5.0 -13.4 3.1 L-12.55 3.25 -9.65 -0.35 -9.65 -2.25 -11.05 -2.25 -11.05 0.7 -11.4 0.75 -12.45 0.75 -12.45 -1.45 -13.85 -1.45 -13.85 0.7 Q-15.6 0.4 -15.6 -0.8 -15.6 -2.65 -11.3 -3.9 L-7.05 -4.8 -7.7 -4.8 Q-9.15 -7.0 -9.15 -9.75 -9.15 -13.5 -6.45 -16.15 L-5.65 -16.9 Q-4.45 -17.9 -3.0 -18.35 L-2.1 -18.65 M-2.05 -18.6 L-2.05 -16.25 0.0 -16.55 2.2 -16.25 2.35 -16.55 2.35 -18.6 M2.35 -16.55 L2.35 -16.2 2.35 -4.85 3.85 -4.85 4.45 -4.85 6.35 -4.9 6.75 -4.9 7.05 -4.9 M2.35 -16.2 L2.2 -16.25 M1.25 -12.85 Q1.7 -12.45 1.75 -11.8 1.7 -11.2 1.25 -10.75 0.8 -10.3 0.2 -10.25 -0.45 -10.3 -0.85 -10.75 -1.3 -11.2 -1.3 -11.8 L-0.85 -12.85 Q-0.45 -13.3 0.2 -13.3 0.8 -13.3 1.25 -12.85 M0.75 -11.25 L0.2 -11.05 -0.35 -11.25 -0.55 -11.8 -0.35 -12.35 0.2 -12.55 0.75 -12.35 0.95 -11.8 0.75 -11.25 M0.95 -8.1 L1.25 -7.35 0.95 -6.65 Q0.6 -6.35 0.2 -6.35 -0.2 -6.35 -0.5 -6.65 L-0.8 -7.35 -0.5 -8.1 0.2 -8.4 0.95 -8.1 M2.25 -7.4 Q2.25 -6.55 1.65 -5.95 1.0 -5.35 0.2 -5.35 -0.65 -5.35 -1.25 -5.95 -1.85 -6.55 -1.85 -7.4 -1.85 -8.25 -1.25 -8.85 -0.65 -9.45 0.2 -9.45 1.0 -9.45 1.65 -8.85 2.25 -8.25 2.25 -7.4 M0.0 -3.85 L0.2 -0.45 Q1.6 -1.45 2.95 -2.0 L2.2 -4.15 0.0 -3.85 -2.2 -4.15 -2.95 -2.05 0.2 -0.45 M3.7 -2.4 L3.5 -2.3 3.75 -2.4 3.7 -2.4 5.35 -3.65 5.4 -3.75 4.45 -4.85 M3.5 -2.3 L2.95 -2.0 1.55 -0.05 -0.95 -0.05 -2.95 -2.05 Q-4.25 -2.6 -5.35 -3.65 L-5.4 -3.75 -5.55 -3.85 -6.35 -4.8 -6.45 -4.8 -6.65 -4.8 -7.05 -4.8 M3.85 -4.85 L2.2 -4.15 M6.75 -4.9 L5.9 -3.9 3.75 -2.4 M6.35 -4.9 L5.4 -3.75 M9.75 0.55 L8.4 0.5 8.4 -1.2 7.3 -1.65 7.0 -1.7 7.0 -0.75 Q7.8 0.25 7.8 1.6 M7.0 -1.7 L7.0 -2.9 8.4 -2.9 8.4 -1.2 M-2.05 -18.6 L-3.0 -18.35 M-5.55 -3.85 L-6.3 -4.8 -6.35 -4.8 M-7.6 1.6 Q-7.6 0.2 -6.75 -0.85 L-6.65 -0.95 -6.65 -1.6 -7.65 -1.7 -8.05 -1.6 -8.05 0.55 -9.65 0.6 -9.65 -0.35 M-6.65 -1.6 L-6.65 -2.85 -8.05 -2.85 -8.05 -1.6 M-6.3 -4.8 L-4.45 -4.85 -3.75 -4.85 -2.05 -4.85 -2.05 -16.25 M-2.2 -4.15 L-3.75 -4.85 M-4.45 -4.85 L-5.4 -3.75 M-2.2 5.75 L-1.2 6.9 -1.15 6.9 Q-0.4 6.4 0.55 6.6 L0.65 6.65 0.85 6.55 1.25 6.45 2.3 6.4 2.0 2.6 Q0.15 5.05 -2.0 2.6 L-2.2 5.75 -2.8 5.1 -6.2 4.45 -12.55 3.25 M-13.7 9.55 L-2.4 12.5 -2.35 12.5 -2.3 12.5 -2.35 12.4 -2.65 11.85 Q-2.9 11.25 -2.75 10.65 L-2.3 8.45 Q-2.1 7.5 -1.25 6.95 L-1.2 6.9 -1.25 6.9 -12.75 5.05 M-1.2 6.9 L-1.15 6.9 -1.2 6.9 M-6.2 4.45 Q-5.9 2.5 -5.0 0.45 L-6.65 0.5 -6.65 -0.95 M-15.9 5.25 L-13.15 5.8 -13.75 8.55 -16.45 7.95 M2.65 14.05 L2.8 13.4 2.8 13.3 2.7 13.35 1.95 13.55 1.65 13.6 0.7 13.75 0.3 13.7 -0.5 13.55 -0.85 13.45 Q-1.8 13.25 -2.3 12.5 L-2.35 12.55 -2.7 12.65 -2.8 13.6 -2.7 14.05 M0.7 13.75 L0.65 13.55 Q0.45 11.45 1.0 9.55 L1.65 7.8 2.1 6.95 1.75 6.85 0.95 6.7 0.25 7.85 Q-0.95 10.25 -0.65 12.65 L-0.5 13.55 M-2.8 13.6 L-3.9 13.0 -4.7 13.25 -5.05 13.2 M-2.7 12.65 L-3.9 13.0 M17.55 4.05 L14.9 4.8 15.6 7.5 18.3 6.75 M14.45 4.05 L3.05 6.65 3.0 6.65 3.05 6.7 Q3.9 7.2 4.2 8.15 L4.75 10.25 Q5.05 11.2 4.55 12.1 L4.45 12.2 4.5 12.15 4.55 12.15 15.65 8.55 M11.5 2.95 L6.05 4.35 4.5 4.75 3.0 6.65 2.95 6.65 3.0 6.65 M0.65 6.65 L0.95 6.7 0.85 6.55 M1.65 13.6 L2.15 13.35 2.75 12.75 3.1 12.05 3.15 11.85 3.6 9.7 Q3.75 8.7 3.25 7.85 L2.1 6.95 M2.8 13.4 L5.0 12.4 5.05 12.35 4.5 12.2 4.45 12.2 3.1 13.2 2.8 13.3 M2.95 6.65 L2.3 6.4 M7.0 -0.75 L7.0 0.45 5.0 0.4 Q5.8 2.35 6.05 4.35 M2.7 13.35 L2.75 12.85 2.75 12.75 M5.75 12.5 L5.05 12.35" fill="none" stroke="#000000" stroke-linecap="round" stroke-linejoin="round" stroke-width="0.5"/>
  </g>
</svg>
