<?xml version="1.0" encoding="UTF-8" standalone="no"?>
<svg xmlns:xlink="http://www.w3.org/1999/xlink" height="17.1px" width="43.8px" xmlns="http://www.w3.org/2000/svg">
  <g transform="matrix(1.0, 0.0, 0.0, 1.0, 21.9, 8.45)">
    <path d="M3.9 -7.5 L6.75 -7.2 7.65 -7.05 7.65 -8.4 10.5 -7.8 10.5 -6.5 12.55 -6.0 12.55 -7.25 14.85 -6.45 15.15 -6.35 15.15 -5.05 17.15 -4.1 17.15 -5.45 Q20.65 -3.65 21.55 -1.45 L21.9 0.15 21.6 1.55 Q20.8 3.85 17.15 5.7 L17.15 4.4 15.15 5.4 15.15 6.55 14.85 6.65 12.55 7.5 12.55 6.3 10.5 6.85 10.5 8.05 7.65 8.65 7.65 7.4 0.9 7.9 0.9 7.85 -0.25 7.85 -0.85 7.85 -7.6 7.35 -7.6 8.55 -10.5 7.95 -10.5 6.75 -12.55 6.25 -12.55 7.45 -14.85 6.6 -15.15 6.5 -15.15 5.3 -17.15 4.35 -17.15 5.65 Q-20.8 3.8 -21.6 1.5 L-21.9 0.05 -21.55 -1.5 Q-20.65 -3.7 -17.15 -5.5 L-17.15 -4.15 -15.15 -5.15 -15.15 -6.4 -14.85 -6.55 -12.55 -7.35 -12.55 -6.05 -10.5 -6.6 -10.5 -7.9 -7.6 -8.45 -7.6 -7.1 -0.85 -7.65 -0.25 -7.65 3.9 -7.5" fill="#000000" fill-rule="evenodd" stroke="none"/>
    <path d="M7.3 -6.45 L7.3 -7.7 10.05 -7.15 10.05 -5.95 10.05 -1.4 11.95 -1.4 11.95 -5.5 11.95 -6.65 14.15 -5.95 14.45 -5.85 14.45 -4.65 14.45 -1.4 16.35 -1.4 16.35 -3.75 16.35 -5.0 Q19.7 -3.4 20.55 -1.4 L20.85 0.1 20.6 1.35 Q19.8 3.45 16.35 5.1 L16.35 3.95 16.35 1.35 14.45 1.35 14.45 4.85 14.45 5.9 14.15 6.0 11.95 6.75 11.95 5.65 11.95 1.35 10.05 1.35 10.05 6.15 10.05 7.25 7.3 7.8 7.3 6.7 7.3 -6.45" fill="url(#gradient0)" fill-rule="evenodd" stroke="none"/>
    <path d="M7.3 6.7 L0.85 7.15 0.85 7.1 -0.25 7.1 -0.8 7.1 -7.25 6.6 -7.25 -6.5 -0.8 -7.0 -0.25 -7.0 3.75 -6.85 6.45 -6.6 7.3 -6.45 7.3 6.7" fill="url(#gradient1)" fill-rule="evenodd" stroke="none"/>
    <path d="M10.05 -5.95 L11.95 -5.5 11.95 -1.4 10.05 -1.4 10.05 -5.95" fill="url(#gradient2)" fill-rule="evenodd" stroke="none"/>
    <path d="M14.45 -4.65 L16.35 -3.75 16.35 -1.4 14.45 -1.4 14.45 -4.65" fill="url(#gradient3)" fill-rule="evenodd" stroke="none"/>
    <path d="M16.35 3.95 L14.45 4.85 14.45 1.35 16.35 1.35 16.35 3.95" fill="url(#gradient4)" fill-rule="evenodd" stroke="none"/>
    <path d="M11.95 5.65 L10.05 6.15 10.05 1.35 11.95 1.35 11.95 5.65" fill="url(#gradient5)" fill-rule="evenodd" stroke="none"/>
    <path d="M-7.25 6.6 L-7.25 7.75 -10.0 7.2 -10.0 6.1 -10.0 1.3 -11.9 1.3 -11.9 5.6 -11.9 6.7 -14.1 5.95 -14.4 5.85 -14.4 4.8 -14.4 1.3 -16.3 1.3 -16.3 3.9 -16.3 5.05 Q-19.8 3.4 -20.55 1.3 L-20.8 0.0 Q-20.85 -0.75 -20.5 -1.45 -19.65 -3.45 -16.3 -5.05 L-16.3 -3.85 -16.3 -1.45 -14.4 -1.45 -14.4 -4.7 -14.4 -5.9 -14.1 -6.0 -11.9 -6.7 -11.9 -5.55 -11.9 -1.45 -10.0 -1.45 -10.0 -6.05 -10.0 -7.2 -7.25 -7.75 -7.25 -6.5 -7.25 6.6" fill="url(#gradient6)" fill-rule="evenodd" stroke="none"/>
    <path d="M-16.3 -3.85 L-14.4 -4.7 -14.4 -1.45 -16.3 -1.45 -16.3 -3.85" fill="url(#gradient7)" fill-rule="evenodd" stroke="none"/>
    <path d="M-11.9 -5.55 L-10.0 -6.05 -10.0 -1.45 -11.9 -1.45 -11.9 -5.55" fill="url(#gradient8)" fill-rule="evenodd" stroke="none"/>
    <path d="M-10.0 6.1 L-11.9 5.6 -11.9 1.3 -10.0 1.3 -10.0 6.1" fill="url(#gradient9)" fill-rule="evenodd" stroke="none"/>
    <path d="M-14.4 4.8 L-16.3 3.9 -16.3 1.3 -14.4 1.3 -14.4 4.8" fill="url(#gradient10)" fill-rule="evenodd" stroke="none"/>
  </g>
  <defs>
    <radialGradient cx="0" cy="0" gradientTransform="matrix(0.0126, 0.0, 0.0, 0.0126, 14.05, 0.05)" gradientUnits="userSpaceOnUse" id="gradient0" r="819.2" spreadMethod="pad">
      <stop offset="0.0" stop-color="#21cff3"/>
      <stop offset="0.5764705882352941" stop-color="#d0f2f9"/>
      <stop offset="1.0" stop-color="#ffffff"/>
    </radialGradient>
    <radialGradient cx="0" cy="0" gradientTransform="matrix(0.0126, 0.0, 0.0, 0.0126, 0.0, 0.05)" gradientUnits="userSpaceOnUse" id="gradient1" r="819.2" spreadMethod="pad">
      <stop offset="0.0" stop-color="#21cff3"/>
      <stop offset="0.5764705882352941" stop-color="#d0f2f9"/>
      <stop offset="1.0" stop-color="#ffffff"/>
    </radialGradient>
    <radialGradient cx="0" cy="0" gradientTransform="matrix(0.0031, 0.0, 0.0, 0.0031, 11.0, -3.7)" gradientUnits="userSpaceOnUse" id="gradient2" r="819.2" spreadMethod="pad">
      <stop offset="0.0" stop-color="#21cff3"/>
      <stop offset="0.5764705882352941" stop-color="#d0f2f9"/>
      <stop offset="1.0" stop-color="#ffffff"/>
    </radialGradient>
    <radialGradient cx="0" cy="0" gradientTransform="matrix(0.0023, 0.0, 0.0, 0.0023, 15.4, -3.05)" gradientUnits="userSpaceOnUse" id="gradient3" r="819.2" spreadMethod="pad">
      <stop offset="0.0" stop-color="#21cff3"/>
      <stop offset="0.5764705882352941" stop-color="#d0f2f9"/>
      <stop offset="1.0" stop-color="#ffffff"/>
    </radialGradient>
    <radialGradient cx="0" cy="0" gradientTransform="matrix(0.0024, 0.0, 0.0, 0.0024, 15.4, 3.1)" gradientUnits="userSpaceOnUse" id="gradient4" r="819.2" spreadMethod="pad">
      <stop offset="0.0" stop-color="#21cff3"/>
      <stop offset="0.5764705882352941" stop-color="#d0f2f9"/>
      <stop offset="1.0" stop-color="#ffffff"/>
    </radialGradient>
    <radialGradient cx="0" cy="0" gradientTransform="matrix(0.0032, 0.0, 0.0, 0.0032, 11.0, 3.75)" gradientUnits="userSpaceOnUse" id="gradient5" r="819.2" spreadMethod="pad">
      <stop offset="0.0" stop-color="#21cff3"/>
      <stop offset="0.5764705882352941" stop-color="#d0f2f9"/>
      <stop offset="1.0" stop-color="#ffffff"/>
    </radialGradient>
    <radialGradient cx="0" cy="0" gradientTransform="matrix(0.0126, 0.0, 0.0, 0.0126, -14.05, 0.0)" gradientUnits="userSpaceOnUse" id="gradient6" r="819.2" spreadMethod="pad">
      <stop offset="0.0" stop-color="#21cff3"/>
      <stop offset="0.5764705882352941" stop-color="#d0f2f9"/>
      <stop offset="1.0" stop-color="#ffffff"/>
    </radialGradient>
    <radialGradient cx="0" cy="0" gradientTransform="matrix(0.0023, 0.0, 0.0, 0.0023, -15.35, -3.1)" gradientUnits="userSpaceOnUse" id="gradient7" r="819.2" spreadMethod="pad">
      <stop offset="0.0" stop-color="#21cff3"/>
      <stop offset="0.5764705882352941" stop-color="#d0f2f9"/>
      <stop offset="1.0" stop-color="#ffffff"/>
    </radialGradient>
    <radialGradient cx="0" cy="0" gradientTransform="matrix(0.0031, 0.0, 0.0, 0.0031, -10.95, -3.75)" gradientUnits="userSpaceOnUse" id="gradient8" r="819.2" spreadMethod="pad">
      <stop offset="0.0" stop-color="#21cff3"/>
      <stop offset="0.5764705882352941" stop-color="#d0f2f9"/>
      <stop offset="1.0" stop-color="#ffffff"/>
    </radialGradient>
    <radialGradient cx="0" cy="0" gradientTransform="matrix(0.0032, 0.0, 0.0, 0.0032, -10.95, 3.7)" gradientUnits="userSpaceOnUse" id="gradient9" r="819.2" spreadMethod="pad">
      <stop offset="0.0" stop-color="#21cff3"/>
      <stop offset="0.5764705882352941" stop-color="#d0f2f9"/>
      <stop offset="1.0" stop-color="#ffffff"/>
    </radialGradient>
    <radialGradient cx="0" cy="0" gradientTransform="matrix(0.0024, 0.0, 0.0, 0.0024, -15.35, 3.05)" gradientUnits="userSpaceOnUse" id="gradient10" r="819.2" spreadMethod="pad">
      <stop offset="0.0" stop-color="#21cff3"/>
      <stop offset="0.5764705882352941" stop-color="#d0f2f9"/>
      <stop offset="1.0" stop-color="#ffffff"/>
    </radialGradient>
  </defs>
</svg>
