<?xml version="1.0" encoding="UTF-8" standalone="no"?>
<svg xmlns:xlink="http://www.w3.org/1999/xlink" height="23.8px" width="22.85px" xmlns="http://www.w3.org/2000/svg">
  <g transform="matrix(1.0, 0.0, 0.0, 1.0, 11.4, 11.9)">
    <path d="M1.8 -10.4 L1.8 -11.9 Q4.65 -11.1 7.0 -8.6 10.45 -4.8 10.45 0.5 10.45 2.55 9.95 4.4 L11.1 4.4 11.2 4.05 11.45 4.05 Q10.5 6.05 8.95 7.7 6.5 10.45 3.3 11.4 L0.05 11.9 -3.25 11.4 Q-6.45 10.5 -8.95 7.7 -10.5 6.05 -11.4 4.05 L-11.15 4.05 -11.05 4.4 -9.85 4.4 Q-10.4 2.55 -10.35 0.5 -10.4 -4.8 -7.0 -8.6 -4.65 -11.1 -1.7 -11.9 L-1.7 -10.4 0.05 -10.55 1.8 -10.4" fill="#000000" fill-rule="evenodd" stroke="none"/>
    <path d="M-1.55 -9.45 L0.05 -9.6 1.65 -9.45 1.65 3.7 1.65 4.0 -1.55 4.0 -1.55 3.7 -1.55 -9.45 M0.55 -5.05 L0.35 -5.6 -0.1 -5.8 -0.55 -5.6 -0.75 -5.05 -0.55 -4.55 -0.1 -4.3 0.35 -4.55 0.55 -5.05 M0.5 -7.35 L0.8 -8.05 0.5 -8.75 -0.1 -9.05 -0.75 -8.75 -1.0 -8.05 -0.75 -7.35 Q-0.45 -7.05 -0.1 -7.05 0.25 -7.05 0.5 -7.35" fill="url(#gradient0)" fill-rule="evenodd" stroke="none"/>
    <path d="M0.5 -7.35 Q0.25 -7.05 -0.1 -7.05 -0.45 -7.05 -0.75 -7.35 L-1.0 -8.05 -0.75 -8.75 -0.1 -9.05 0.5 -8.75 0.8 -8.05 0.5 -7.35" fill="url(#gradient1)" fill-rule="evenodd" stroke="none"/>
    <path d="M0.55 -5.05 L0.35 -4.55 -0.1 -4.3 -0.55 -4.55 -0.75 -5.05 -0.55 -5.6 -0.1 -5.8 0.35 -5.6 0.55 -5.05" fill="url(#gradient2)" fill-rule="evenodd" stroke="none"/>
    <path d="M1.65 -9.45 L1.65 -10.8 Q4.25 -10.1 6.35 -7.8 9.5 -4.35 9.5 0.45 L9.05 4.0 1.95 4.0 1.95 3.7 1.65 3.7 1.65 -9.45" fill="url(#gradient3)" fill-rule="evenodd" stroke="none"/>
    <path d="M9.05 4.0 L10.1 4.0 10.2 3.7 10.4 3.7 Q9.55 5.5 8.15 7.0 5.9 9.5 3.0 10.35 L0.05 10.8 -2.95 10.35 Q-5.85 9.55 -8.15 7.0 -9.55 5.5 -10.35 3.7 L-10.15 3.7 -10.05 4.0 -8.95 4.0 -1.9 4.0 -1.9 3.7 -1.55 3.7 -1.55 4.0 1.65 4.0 1.65 3.7 1.95 3.7 1.95 4.0 9.05 4.0 M6.0 5.45 L6.0 5.5 1.55 8.85 1.7 9.05 2.0 9.2 Q5.35 8.4 6.45 5.75 L6.3 5.6 6.0 5.45" fill="url(#gradient4)" fill-rule="evenodd" stroke="none"/>
    <path d="M6.0 5.45 L6.3 5.6 6.45 5.75 Q5.35 8.4 2.0 9.2 L1.7 9.05 1.55 8.85 6.0 5.5 6.0 5.45" fill="url(#gradient5)" fill-rule="evenodd" stroke="none"/>
    <path d="M-8.95 4.0 Q-9.45 2.3 -9.4 0.45 -9.45 -4.35 -6.35 -7.8 -4.25 -10.1 -1.55 -10.8 L-1.55 -9.45 -1.55 3.7 -1.9 3.7 -1.9 4.0 -8.95 4.0 M-3.45 -8.6 L-4.0 -8.8 Q-5.15 -8.3 -6.05 -7.25 -8.25 -4.55 -7.45 -1.45 L-6.55 -1.5 -6.4 -1.9 Q-6.0 -5.45 -3.45 -7.9 L-3.35 -8.05 -3.3 -8.45 -3.45 -8.6" fill="url(#gradient6)" fill-rule="evenodd" stroke="none"/>
    <path d="M-3.45 -8.6 L-3.3 -8.45 -3.35 -8.05 -3.45 -7.9 Q-6.0 -5.45 -6.4 -1.9 L-6.55 -1.5 -7.45 -1.45 Q-8.25 -4.55 -6.05 -7.25 -5.15 -8.3 -4.0 -8.8 L-3.45 -8.6" fill="url(#gradient7)" fill-rule="evenodd" stroke="none"/>
  </g>
  <defs>
    <radialGradient cx="0" cy="0" gradientTransform="matrix(0.0085, 0.0, 0.0, 0.0085, 0.05, -2.8)" gradientUnits="userSpaceOnUse" id="gradient0" r="819.2" spreadMethod="pad">
      <stop offset="0.0" stop-color="#21cff3"/>
      <stop offset="0.5764705882352941" stop-color="#d0f2f9"/>
      <stop offset="1.0" stop-color="#ffffff"/>
    </radialGradient>
    <radialGradient cx="0" cy="0" gradientTransform="matrix(0.0016, 0.0, 0.0, 0.0016, -0.1, -8.05)" gradientUnits="userSpaceOnUse" id="gradient1" r="819.2" spreadMethod="pad">
      <stop offset="0.0" stop-color="#21cff3"/>
      <stop offset="0.5764705882352941" stop-color="#d0f2f9"/>
      <stop offset="1.0" stop-color="#ffffff"/>
    </radialGradient>
    <radialGradient cx="0" cy="0" gradientTransform="matrix(0.0012, 0.0, 0.0, 0.0012, -0.1, -5.05)" gradientUnits="userSpaceOnUse" id="gradient2" r="819.2" spreadMethod="pad">
      <stop offset="0.0" stop-color="#21cff3"/>
      <stop offset="0.5764705882352941" stop-color="#d0f2f9"/>
      <stop offset="1.0" stop-color="#ffffff"/>
    </radialGradient>
    <radialGradient cx="0" cy="0" gradientTransform="matrix(0.0104, 0.0, 0.0, 0.0104, 5.55, -3.4)" gradientUnits="userSpaceOnUse" id="gradient3" r="819.2" spreadMethod="pad">
      <stop offset="0.0" stop-color="#21cff3"/>
      <stop offset="0.5764705882352941" stop-color="#d0f2f9"/>
      <stop offset="1.0" stop-color="#ffffff"/>
    </radialGradient>
    <radialGradient cx="0" cy="0" gradientTransform="matrix(0.0139, 0.0, 0.0, 0.0139, 0.0, 7.25)" gradientUnits="userSpaceOnUse" id="gradient4" r="819.2" spreadMethod="pad">
      <stop offset="0.0" stop-color="#21cff3"/>
      <stop offset="0.5764705882352941" stop-color="#d0f2f9"/>
      <stop offset="1.0" stop-color="#ffffff"/>
    </radialGradient>
    <radialGradient cx="0" cy="0" gradientTransform="matrix(0.0036, 0.0, 0.0, 0.0036, 4.0, 7.35)" gradientUnits="userSpaceOnUse" id="gradient5" r="819.2" spreadMethod="pad">
      <stop offset="0.0" stop-color="#21cff3"/>
      <stop offset="0.5764705882352941" stop-color="#d0f2f9"/>
      <stop offset="1.0" stop-color="#ffffff"/>
    </radialGradient>
    <radialGradient cx="0" cy="0" gradientTransform="matrix(0.0103, 0.0, 0.0, 0.0103, -5.5, -3.4)" gradientUnits="userSpaceOnUse" id="gradient6" r="819.2" spreadMethod="pad">
      <stop offset="0.0" stop-color="#21cff3"/>
      <stop offset="0.5764705882352941" stop-color="#d0f2f9"/>
      <stop offset="1.0" stop-color="#ffffff"/>
    </radialGradient>
    <radialGradient cx="0" cy="0" gradientTransform="matrix(0.0057, 0.0, 0.0, 0.0057, -5.5, -5.05)" gradientUnits="userSpaceOnUse" id="gradient7" r="819.2" spreadMethod="pad">
      <stop offset="0.0" stop-color="#21cff3"/>
      <stop offset="0.5764705882352941" stop-color="#d0f2f9"/>
      <stop offset="1.0" stop-color="#ffffff"/>
    </radialGradient>
  </defs>
</svg>
