<?xml version="1.0" encoding="UTF-8" standalone="no"?>
<svg xmlns:xlink="http://www.w3.org/1999/xlink" height="48.0px" width="61.1px" xmlns="http://www.w3.org/2000/svg">
  <g transform="matrix(1.0, 0.0, 0.0, 1.0, 32.6, 22.5)">
    <path d="M1.0 -13.0 Q4.45 -12.35 6.25 -9.5 L6.75 -8.75 Q13.95 -6.75 21.0 -3.55 21.6 -3.25 22.0 -2.5 22.7 3.25 17.9 6.15 15.5 7.6 12.75 8.0 5.4 15.4 -2.5 7.95 L-4.5 6.0 Q-12.4 6.95 -17.5 1.75 -17.5 -0.55 -17.85 -2.8 -18.1 -4.45 -16.75 -5.5 L-9.0 -8.2 -7.0 -8.75 Q-4.25 -13.15 1.0 -12.9 L1.0 -13.0" fill="#ff0000" fill-rule="evenodd" stroke="none"/>
    <path d="M16.5 -19.75 Q17.4 -18.75 16.6 -17.6 L15.75 -16.75 Q15.25 -14.7 14.0 -13.0 L13.5 -12.25 Q13.35 -11.1 13.55 -9.95 L13.5 -9.25 Q11.45 -6.5 9.75 -3.5 L8.0 -2.75 7.5 -2.0 7.25 -1.5 6.95 -1.35 6.0 -1.0 4.0 -2.25 Q3.05 -9.9 10.25 -13.5 L11.0 -15.0 12.5 -15.75 Q12.95 -18.1 14.75 -19.45 L15.25 -19.75 16.0 -19.75 16.5 -19.75 M13.25 -3.25 Q16.25 -6.85 21.0 -7.0 22.95 -6.85 24.1 -5.4 L24.5 -4.75 22.9 -3.6 21.75 -3.0 Q19.3 2.1 14.25 1.25 13.0 -0.05 13.05 -1.75 L13.25 -3.25 M21.3 11.45 L21.0 10.75 20.0 11.0 17.5 10.0 Q12.9 10.15 9.5 6.75 8.9 5.25 9.4 3.7 9.85 2.35 11.25 1.75 11.5 1.6 11.75 1.6 L12.95 1.35 13.0 1.25 Q20.6 3.95 25.85 10.65 L26.75 11.5 26.6 12.15 26.0 13.0 22.95 12.75 21.75 12.25 21.3 11.45 M1.25 8.25 L0.75 9.0 0.75 9.75 0.75 10.5 0.25 11.25 -0.25 12.0 Q-0.6 15.75 -3.3 18.7 L-4.0 19.5 -4.4 20.95 -5.0 22.25 Q-6.15 20.75 -5.95 18.75 L-5.75 17.25 -6.0 16.5 -6.5 15.0 Q-5.8 10.35 -3.95 6.0 L-3.25 4.5 -1.1 3.4 -1.0 3.25 Q1.85 3.8 1.75 6.75 L1.75 7.5 1.25 8.25 M-26.5 -10.75 Q-16.8 -11.2 -8.6 -5.85 L-8.0 -5.25 Q-10.4 3.0 -18.8 -4.2 -21.0 -6.15 -23.5 -7.5 L-26.75 -8.25 -27.25 -8.75 -27.5 -9.0 Q-28.5 -9.25 -29.4 -9.75 L-29.75 -10.25 -29.0 -10.6 -27.0 -10.75 -26.5 -10.75 M-7.85 1.35 L-7.25 2.0 -7.15 3.5 -7.25 5.0 Q-13.1 10.35 -20.5 13.25 -20.6 8.85 -17.1 5.9 L-14.75 4.25 Q-13.85 2.6 -12.5 1.25 L-11.75 0.5 -10.05 0.1 -10.0 0.0 Q-8.9 0.6 -7.85 1.35" fill="#ff0000" fill-rule="evenodd" stroke="none"/>
    <path d="M18.5 -19.75 Q17.95 -18.1 16.4 -17.15 15.75 -16.75 15.0 -16.5 L12.75 -17.75 Q12.3 -18.85 12.55 -20.0 L13.0 -21.5 14.05 -22.15 15.0 -22.5 Q17.4 -22.7 18.35 -20.45 L18.5 -19.75 M26.5 -7.5 L26.35 -6.05 26.0 -4.5 25.45 -4.1 24.0 -3.5 21.75 -4.75 Q21.3 -5.85 21.55 -7.0 L22.0 -8.5 23.05 -9.15 24.0 -9.5 25.9 -8.15 26.5 -7.5 M27.9 10.85 L28.5 11.5 28.5 13.0 28.5 14.5 27.1 15.85 26.0 16.5 23.75 15.25 Q23.3 14.15 23.4 13.0 L23.5 11.5 23.8 10.8 24.5 10.0 25.95 9.65 26.0 9.5 Q27.0 10.1 27.9 10.85 M-25.65 -10.45 L-25.5 -9.75 -25.85 -9.1 -27.0 -7.75 Q-30.85 -6.4 -32.5 -9.5 -32.9 -10.95 -31.75 -11.7 -30.7 -12.35 -30.0 -12.5 -27.0 -13.1 -25.65 -10.45 M-17.65 11.55 Q-17.5 11.85 -17.5 12.25 -18.8 15.35 -22.0 16.5 L-24.25 15.25 -24.45 13.75 -24.5 12.25 Q-23.25 10.45 -21.0 9.75 L-20.0 9.5 Q-18.3 9.9 -17.65 11.55 M-6.5 19.0 L-5.05 18.65 -5.0 18.5 -3.1 19.85 -2.5 20.5 -2.5 22.0 -2.5 23.5 -3.9 24.85 -5.0 25.5 -7.25 24.25 -7.6 22.0 -7.5 20.5 -7.2 19.8 -6.5 19.0" fill="#f9dc1c" fill-rule="evenodd" stroke="none"/>
  </g>
</svg>
