<?xml version="1.0" encoding="UTF-8" standalone="no"?>
<svg xmlns:xlink="http://www.w3.org/1999/xlink" height="140.0px" width="180.05px" xmlns="http://www.w3.org/2000/svg">
  <g transform="matrix(1.0, 0.0, 0.0, 1.0, 91.6, 69.5)">
    <path d="M38.5 -28.85 Q42.75 -25.05 45.1 -19.95 L45.25 -19.25 Q48.15 -14.3 53.2 -11.65 58.95 -8.7 58.7 -2.5 61.95 4.45 59.55 12.6 58.55 16.1 57.8 19.85 56.9 24.3 53.05 26.4 42.95 31.9 33.65 38.6 29.7 41.45 24.9 42.0 23.75 42.1 22.5 41.5 11.7 41.3 0.75 41.45 -8.55 41.6 -16.05 36.5 -19.0 34.5 -22.8 33.35 -28.85 31.45 -34.25 28.0 L-44.75 21.25 -45.25 20.5 -45.7 19.7 -46.15 19.1 -47.75 16.75 -47.45 12.3 Q-46.65 7.2 -49.45 2.85 -50.45 1.4 -52.0 0.25 L-52.2 -1.25 Q-52.4 -3.9 -52.1 -6.45 L-51.25 -11.75 -49.55 -14.05 Q-46.75 -17.9 -42.8 -20.8 L-42.0 -21.5 -41.85 -22.25 -41.75 -23.0 -41.2 -23.7 -40.25 -24.5 -39.9 -25.3 -39.65 -25.95 -39.25 -26.75 -38.25 -27.5 Q-35.9 -32.2 -31.7 -35.65 -25.8 -40.55 -17.75 -39.75 -16.3 -41.4 -14.3 -42.15 L-4.0 -45.5 Q7.45 -47.6 15.05 -40.3 L15.75 -39.75 Q15.85 -39.65 15.95 -39.65 19.9 -40.05 22.9 -37.95 L23.75 -37.25 Q26.8 -37.25 29.55 -35.9 33.5 -33.95 37.0 -31.25 37.5 -29.75 38.5 -28.85 M5.0 -30.3 L-0.8 -31.0 -8.75 -29.75 Q-11.1 -29.25 -12.85 -30.6 -19.9 -29.4 -26.35 -26.1 -27.05 -25.3 -28.25 -25.0 -31.7 -20.6 -34.6 -16.05 L-35.0 -15.5 -34.75 -15.25 -35.55 -13.75 -36.35 -11.55 -37.25 -10.0 -37.45 -9.85 -37.65 -9.35 Q-36.9 -7.65 -36.45 -5.75 L-36.25 -5.0 -36.85 -3.55 -37.25 -2.75 Q-36.25 -0.5 -37.25 1.75 L-37.5 2.5 Q-36.8 3.5 -36.6 4.75 L-36.5 5.5 -30.5 14.5 Q-30.5 15.65 -31.05 16.7 L-31.2 17.05 -28.95 19.0 -28.75 18.75 -28.5 18.55 -28.0 18.5 -27.75 18.5 Q-16.65 26.45 -2.25 26.4 2.65 26.4 4.7 29.55 L9.3 30.8 10.0 30.75 12.9 31.45 Q16.9 31.9 21.0 31.6 L21.3 31.6 Q24.9 31.05 28.3 29.3 33.15 25.4 38.75 21.5 L39.5 21.0 40.0 20.8 40.95 20.6 41.0 20.5 42.25 21.2 Q47.7 12.4 50.4 2.6 L50.95 2.25 51.15 2.35 51.15 1.7 50.95 1.75 48.95 3.0 Q48.1 2.75 47.4 2.25 L46.0 1.0 46.0 0.25 46.0 -0.5 46.0 -1.25 45.65 -1.95 45.0 -2.75 44.25 -3.5 44.0 -4.25 44.0 -4.75 Q42.0 -5.65 40.65 -7.5 L40.6 -7.55 Q38.95 -7.95 38.2 -9.5 L37.75 -10.25 37.8 -11.75 Q37.9 -12.95 37.5 -14.0 36.4 -14.95 35.65 -16.1 32.3 -15.05 29.05 -19.25 L26.7 -21.55 Q25.6 -22.4 24.75 -23.5 18.95 -24.9 14.25 -28.5 L14.3 -29.25 14.5 -29.85 Q14.1 -30.05 13.65 -30.3 L13.0 -30.75 Q11.1 -29.8 9.35 -28.65 8.75 -28.25 8.0 -28.0 L5.55 -29.4 5.0 -30.0 5.0 -30.3 M9.75 -36.0 Q8.05 -36.85 6.05 -37.35 L9.05 -35.55 9.75 -36.0 M43.6 -10.25 L43.4 -10.45 43.5 -10.3 43.6 -10.25 M50.7 20.9 L50.6 21.2 52.2 19.5 52.2 19.1 50.7 20.9 M26.25 36.0 L27.0 35.5 26.0 35.9 26.25 36.0 M-45.95 -9.7 L-45.95 -10.35 -46.7 -9.0 -45.95 -9.7 M-28.5 22.75 L-28.4 22.8 -28.6 22.55 -28.5 22.75" fill="#e20101" fill-rule="evenodd" stroke="none"/>
    <path d="M42.45 -64.55 L42.0 -64.75 42.5 -64.75 42.45 -64.55 M66.2 41.0 L66.8 40.25 69.1 41.9 69.45 42.5 68.5 42.8 66.45 42.25 66.4 41.5 66.2 41.0 M87.25 -20.7 L87.15 -21.05 87.45 -20.75 87.25 -20.7" fill="#780101" fill-rule="evenodd" stroke="none"/>
    <path d="M42.0 -64.75 L42.45 -64.55 Q36.55 -49.4 25.75 -35.5 L25.25 -34.75 Q22.35 -28.3 18.7 -22.0 L18.25 -21.25 Q17.45 -17.2 14.85 -13.7 L14.5 -13.0 14.65 -12.25 14.75 -11.5 12.9 -8.1 14.25 -8.65 Q36.2 -15.9 58.9 -17.65 72.35 -18.7 84.95 -21.5 L87.15 -21.05 87.25 -20.7 Q57.75 -13.5 29.3 -3.35 23.25 -1.2 17.15 0.25 34.55 9.0 48.35 23.15 L53.6 28.2 63.95 37.25 64.25 37.95 64.7 38.75 66.8 40.25 66.2 41.0 Q56.4 34.15 45.55 29.7 42.3 28.4 39.5 26.25 25.5 15.55 10.55 6.45 7.4 4.55 8.5 1.0 L8.85 0.45 Q8.55 -0.1 8.5 -0.9 L7.9 -0.05 Q7.35 0.75 5.95 0.8 L4.75 0.65 Q7.5 3.65 5.55 9.1 3.35 15.25 -0.75 20.25 -2.7 26.55 -5.2 32.9 L-6.0 34.5 Q-5.75 36.5 -6.85 38.15 -7.55 39.2 -7.25 40.5 L-7.75 41.25 -8.25 42.0 Q-9.25 53.8 -13.65 64.85 L-15.0 67.25 Q-16.35 40.1 -6.65 14.0 L-2.65 3.7 -3.35 4.1 -5.25 5.0 Q-12.1 10.85 -19.75 16.25 -33.7 29.45 -51.3 37.95 -56.95 40.7 -62.5 43.25 -39.9 28.25 -21.1 8.65 -16.6 3.95 -11.5 0.55 -16.0 -1.0 -19.95 -4.8 -23.15 -7.85 -27.8 -8.65 -51.85 -12.75 -74.0 -21.65 -78.95 -23.65 -83.75 -26.0 -85.35 -27.2 -86.2 -28.95 L-86.75 -29.75 -85.0 -30.65 -84.5 -30.75 -84.1 -29.95 -84.0 -29.5 Q-69.45 -19.4 -52.0 -19.5 -27.85 -20.65 -9.0 -7.75 -3.95 -7.2 -4.15 -2.55 -1.95 -2.0 -1.35 0.6 -0.25 -1.15 2.0 -1.25 L3.2 -0.6 3.0 -1.0 Q3.4 -11.25 10.05 -19.7 L11.5 -21.25 12.0 -22.75 12.25 -23.5 Q16.15 -29.75 20.75 -35.5 L20.8 -36.25 21.0 -37.0 Q26.3 -45.8 32.75 -53.5 L41.25 -64.75 42.0 -64.75" fill="url(#gradient0)" fill-rule="evenodd" stroke="none"/>
    <path d="M44.9 -68.15 L45.5 -67.5 Q45.8 -63.65 42.0 -62.5 39.95 -62.65 39.5 -64.5 39.65 -66.45 40.8 -68.2 L41.5 -69.0 42.95 -69.35 43.0 -69.5 44.9 -68.15 M88.35 -21.45 L88.45 -20.75 87.6 -19.35 86.95 -18.75 Q83.8 -17.65 82.45 -20.5 82.1 -22.45 84.0 -23.2 L84.95 -23.5 Q87.4 -23.7 88.35 -21.45 M72.35 42.55 L72.45 43.25 71.6 44.65 70.95 45.25 Q67.8 46.35 66.45 43.5 66.1 41.55 68.0 40.8 L68.95 40.5 Q71.4 40.3 72.35 42.55 M-91.6 -32.0 L-91.5 -33.5 -91.2 -34.2 -90.5 -35.0 -89.05 -35.35 -89.0 -35.5 Q-86.6 -34.6 -85.75 -32.0 L-85.5 -31.25 Q-85.45 -29.85 -86.8 -29.1 L-88.0 -28.5 Q-90.0 -28.25 -91.25 -29.75 -91.65 -30.85 -91.6 -32.0 M-66.25 45.25 Q-66.65 44.15 -66.45 43.0 L-66.0 41.5 -64.95 40.85 -64.0 40.5 Q-61.6 40.3 -60.65 42.55 -60.5 42.85 -60.5 43.25 -61.05 44.9 -62.6 45.85 L-64.0 46.5 -66.25 45.25 M-13.0 62.5 L-11.1 63.85 -10.5 64.5 -11.65 68.2 -12.25 69.75 -13.05 70.15 -14.0 70.5 -16.25 69.25 -16.6 67.0 -16.5 65.5 Q-15.6 62.9 -13.05 62.6 L-13.0 62.5" fill="#f9dc1c" fill-rule="evenodd" stroke="none"/>
  </g>
  <defs>
    <radialGradient cx="0" cy="0" gradientTransform="matrix(0.1168, 0.0, 0.0, 0.1168, -6.0, 0.0)" gradientUnits="userSpaceOnUse" id="gradient0" r="819.2" spreadMethod="pad">
      <stop offset="0.0" stop-color="#000000"/>
      <stop offset="0.5215686274509804" stop-color="#c20101"/>
      <stop offset="1.0" stop-color="#f76868"/>
    </radialGradient>
  </defs>
</svg>
