<?xml version="1.0" encoding="UTF-8" standalone="no"?>
<svg xmlns:xlink="http://www.w3.org/1999/xlink" height="235.0px" width="286.0px" xmlns="http://www.w3.org/2000/svg">
  <g transform="matrix(1.0, 0.0, 0.0, 1.0, 134.55, 110.5)">
    <path d="M5.0 -56.1 L-8.5 -56.5 -9.55 -55.85 Q-12.45 -54.3 -14.35 -56.1 -24.45 -50.65 -34.8 -46.1 L-33.8 -46.0 -33.5 -45.75 -36.0 -45.0 -36.3 -44.3 -36.75 -43.5 -44.9 -39.2 -44.5 -39.25 -43.75 -38.5 Q-46.4 -32.15 -51.8 -26.5 L-52.5 -25.75 Q-52.6 -22.25 -55.25 -19.75 L-56.0 -19.0 Q-58.85 -12.4 -59.55 -5.8 -60.05 -0.95 -59.35 3.95 L-59.35 4.15 -59.15 6.15 -58.85 6.35 -58.7 6.45 -58.5 6.25 -58.2 4.1 Q-58.15 3.85 -57.75 3.75 L-57.55 5.25 -57.5 6.0 Q-56.6 7.4 -54.75 8.25 L-54.2 10.55 Q-46.5 17.9 -43.6 28.45 L-43.5 28.5 Q-42.8 29.5 -42.5 30.75 L-42.5 30.8 -26.5 44.35 Q-26.35 43.75 -25.7 43.4 L-24.05 42.65 -24.0 42.5 Q-18.1 45.15 -12.0 46.9 -4.05 45.75 3.05 48.1 3.5 48.25 3.75 49.0 L2.6 49.9 12.25 50.6 Q12.5 50.6 12.75 51.0 L12.95 51.35 29.2 50.5 Q38.6 49.15 46.35 44.45 53.55 36.9 61.9 30.35 62.4 28.3 63.5 26.35 L63.95 25.0 Q64.8 23.6 66.15 22.6 L66.7 22.0 Q67.7 18.15 69.25 14.5 L69.95 13.0 69.85 9.35 69.2 8.75 69.2 8.6 68.95 8.25 68.8 7.5 68.7 6.75 68.7 6.0 69.25 5.25 69.55 4.95 69.85 3.4 Q70.05 2.55 70.4 1.8 70.5 -3.8 69.95 -9.45 L69.45 -10.0 69.4 -12.25 69.2 -13.0 Q66.05 -15.7 63.65 -19.15 L63.45 -19.75 Q63.3 -20.95 64.1 -21.75 L58.2 -26.25 58.2 -26.4 40.9 -40.3 Q33.3 -43.65 26.3 -48.15 L26.0 -48.5 Q24.1 -49.0 22.3 -49.65 20.3 -50.4 18.75 -51.5 L18.35 -52.3 18.25 -53.0 18.35 -53.7 18.65 -54.3 18.35 -54.5 Q15.6 -51.6 10.15 -54.4 7.75 -55.6 5.0 -56.1 M33.0 -53.25 Q53.6 -51.55 61.15 -33.15 81.3 -25.4 78.1 -3.4 77.45 1.4 75.4 5.8 L77.45 8.0 77.95 8.75 Q78.4 25.2 67.7 36.95 L67.7 37.0 Q61.05 52.35 43.8 55.85 40.75 56.45 37.95 57.6 32.3 60.05 26.85 58.75 L17.3 58.35 Q-0.15 60.95 -17.7 59.55 -18.75 59.5 -19.85 58.9 -26.35 55.25 -31.2 50.4 -34.35 50.1 -37.95 47.5 -47.95 40.3 -55.25 30.75 L-57.55 28.9 Q-60.15 27.7 -62.0 25.25 L-62.5 24.5 -62.7 23.75 -62.85 22.25 -63.0 21.5 Q-65.55 17.8 -67.6 13.9 -68.25 12.65 -69.5 11.75 -74.05 -4.05 -70.75 -20.4 -66.9 -39.9 -48.55 -48.5 -35.65 -54.55 -23.65 -62.35 -16.7 -66.85 -9.0 -68.25 -5.65 -69.0 -3.45 -67.15 -0.6 -68.2 2.0 -68.25 22.55 -68.3 33.0 -53.15 L33.0 -53.25 M48.75 47.2 L51.85 45.5 49.6 46.4 49.05 46.75 48.75 47.2" fill="#c20101" fill-rule="evenodd" stroke="none"/>
    <path d="M147.15 -32.1 L147.45 -31.75 147.25 -31.7 147.15 -32.1 M104.85 73.65 L104.95 74.0 Q106.45 74.2 107.6 75.0 L108.95 76.25 111.2 76.75 111.5 77.5 111.7 78.0 112.0 78.2 113.45 79.25 112.95 79.35 111.45 79.25 110.75 78.45 110.45 78.0 110.45 77.85 108.45 77.25 107.7 76.5 106.95 75.75 104.45 75.25 104.05 74.45 103.95 74.0 104.85 73.65 M-23.5 109.25 L-23.5 111.25 Q-25.75 114.8 -26.3 119.5 L-26.5 121.0 -27.5 121.25 -27.2 119.35 -25.8 113.05 Q-25.5 111.75 -24.5 110.75 L-24.45 109.25 -23.5 109.25" fill="#780101" fill-rule="evenodd" stroke="none"/>
    <path d="M-129.5 -51.75 L-129.9 -53.3 -129.9 -54.25 -129.75 -54.25 Q-124.9 -49.5 -118.55 -46.4 L-118.0 -46.0 Q-106.65 -43.15 -97.85 -35.45 L-97.5 -35.0 Q-69.85 -23.95 -39.95 -21.3 -23.25 -19.8 -17.5 -6.25 L-17.8 -5.8 -18.05 -5.6 -19.0 -5.25 Q-46.25 -14.6 -75.1 -20.55 -95.45 -24.7 -109.75 -38.75 -120.75 -42.15 -128.1 -50.75 L-129.5 -51.75" fill="url(#gradient0)" fill-rule="evenodd" stroke="none"/>
    <path d="M60.7 -103.0 L60.95 -103.75 63.45 -104.5 65.75 -108.1 66.2 -108.25 65.55 -105.25 65.45 -104.5 Q64.3 -103.5 63.45 -102.25 L63.3 -101.5 63.2 -100.75 Q57.55 -94.35 53.45 -86.5 L53.4 -85.0 53.2 -84.25 Q51.8 -81.55 49.95 -79.0 46.25 -70.7 41.6 -62.6 L40.5 -61.0 Q34.1 -46.65 24.35 -33.75 20.6 -28.8 19.25 -22.75 17.95 -21.05 16.25 -19.75 16.0 -17.7 14.75 -16.0 L12.75 -14.75 11.5 -13.25 10.95 -11.95 10.5 -11.75 10.65 -14.0 11.0 -14.75 Q10.3 -16.8 10.8 -19.25 L11.0 -20.0 12.25 -21.5 Q11.7 -30.35 18.45 -37.75 20.95 -40.55 23.1 -43.55 29.75 -53.0 34.0 -63.5 39.0 -70.7 43.35 -78.45 L44.0 -79.25 Q50.7 -91.5 60.2 -101.75 L60.7 -103.0" fill="url(#gradient1)" fill-rule="evenodd" stroke="none"/>
    <path d="M147.25 -31.7 Q118.45 -25.7 90.35 -17.8 67.2 -11.3 43.25 -8.75 L42.5 -8.0 42.0 -7.5 Q39.0 -6.4 35.9 -7.5 L35.0 -7.5 Q33.05 -7.75 32.25 -9.5 L32.45 -11.0 32.5 -11.75 Q47.95 -22.9 67.75 -21.05 L71.2 -21.25 Q99.85 -27.55 129.0 -30.3 L132.95 -30.6 Q139.85 -30.9 145.95 -32.5 L147.15 -32.1 147.25 -31.7" fill="url(#gradient2)" fill-rule="evenodd" stroke="none"/>
    <path d="M104.85 73.65 L103.95 74.0 Q95.25 67.45 85.65 62.35 83.65 61.3 81.95 59.75 67.4 53.4 58.7 39.5 57.75 38.0 56.1 36.9 38.8 25.5 20.8 14.9 19.95 14.4 20.05 13.25 L20.25 11.75 Q21.5 9.55 24.0 9.6 L24.0 9.5 26.45 10.55 26.75 10.75 Q48.85 18.5 65.55 35.65 71.1 41.35 75.6 48.05 L77.3 50.15 Q85.4 58.5 95.95 64.0 96.8 65.0 97.2 66.25 L97.45 67.0 Q100.3 68.85 102.65 71.3 L104.2 72.5 104.65 73.25 104.85 73.65" fill="url(#gradient3)" fill-rule="evenodd" stroke="none"/>
    <path d="M-24.45 109.25 Q-24.35 108.05 -24.75 107.0 L-24.3 105.45 Q-24.15 104.2 -23.25 103.25 -23.2 96.15 -21.35 89.1 -21.0 87.85 -20.25 86.75 L-20.15 86.0 -20.25 84.5 -20.0 83.75 -19.25 82.25 -19.45 81.45 -19.5 80.75 -18.25 77.75 -17.5 76.25 Q-18.55 71.75 -17.35 67.2 -17.0 66.0 -16.25 65.0 -14.65 44.9 -8.6 25.9 -8.25 24.85 -8.25 23.75 -7.4 21.85 -5.45 21.1 L-4.0 20.75 Q3.4 25.2 -1.2 34.4 -2.85 37.75 -3.65 41.5 -6.0 53.0 -9.75 64.0 -13.85 81.55 -19.75 98.4 L-20.5 100.0 -20.6 102.25 Q-20.7 103.6 -21.75 104.5 L-21.95 105.25 -22.0 106.0 -22.6 106.65 -23.5 107.5 -23.5 109.0 -23.5 109.25 -24.45 109.25" fill="url(#gradient4)" fill-rule="evenodd" stroke="none"/>
    <path d="M-21.0 15.5 L-19.75 15.75 Q-28.9 29.95 -45.65 36.75 -47.65 37.55 -49.6 38.65 -70.05 50.15 -91.0 60.75 -103.75 65.35 -117.0 68.0 L-121.5 68.25 -121.2 67.55 -120.5 66.75 Q-108.85 62.95 -98.0 58.25 -79.75 53.3 -65.65 40.7 -63.4 38.7 -60.75 36.95 -42.95 25.3 -23.8 16.4 L-21.8 15.8 -21.0 15.5" fill="url(#gradient5)" fill-rule="evenodd" stroke="none"/>
    <path d="M69.35 -108.45 L69.45 -107.75 67.2 -104.0 66.7 -103.25 Q66.35 -103.0 65.95 -102.85 L64.95 -102.5 Q63.85 -103.15 62.7 -103.75 L62.55 -105.25 62.45 -106.75 Q63.3 -108.9 65.1 -110.1 65.45 -110.4 65.95 -110.5 68.4 -110.7 69.35 -108.45 M151.3 -31.4 L151.45 -30.75 151.1 -30.1 149.95 -28.75 Q145.5 -27.1 143.45 -30.5 143.45 -31.25 143.8 -31.8 144.65 -33.35 145.95 -33.5 149.65 -34.45 151.3 -31.4 M116.3 78.6 L116.45 79.25 115.6 80.65 114.95 81.25 Q111.95 82.35 109.7 80.25 109.3 79.15 109.55 78.0 L109.95 76.5 Q110.45 76.1 111.0 75.85 111.45 75.6 111.95 75.5 114.8 76.3 116.3 78.6 M-132.45 -52.5 L-132.5 -53.25 -134.15 -54.85 -134.5 -55.5 Q-134.9 -57.45 -133.0 -58.2 L-132.0 -58.5 Q-126.35 -57.6 -127.9 -52.05 L-128.25 -51.25 Q-128.65 -51.0 -129.05 -50.85 L-130.0 -50.5 -132.25 -51.75 -132.45 -52.5 M-126.2 67.2 Q-125.3 65.65 -124.0 65.5 -120.35 64.55 -118.65 67.55 -118.5 67.85 -118.5 68.25 L-118.85 68.9 -120.0 70.25 Q-124.5 71.9 -126.5 68.5 L-126.2 67.2 M-28.0 118.5 L-26.1 119.85 -25.5 120.5 -25.65 121.95 -26.0 123.5 -26.55 123.9 -28.0 124.5 -30.25 123.25 Q-30.65 122.15 -30.45 121.0 L-30.0 119.5 -28.95 118.85 Q-28.5 118.6 -28.0 118.5" fill="#f9dc1c" fill-rule="evenodd" stroke="none"/>
  </g>
  <defs>
    <radialGradient cx="0" cy="0" gradientTransform="matrix(0.1408, 0.0, 0.0, 0.1408, -24.0, -9.0)" gradientUnits="userSpaceOnUse" id="gradient0" r="819.2" spreadMethod="pad">
      <stop offset="0.0" stop-color="#000000"/>
      <stop offset="0.5215686274509804" stop-color="#c20101"/>
      <stop offset="1.0" stop-color="#f76868"/>
    </radialGradient>
    <radialGradient cx="0" cy="0" gradientTransform="matrix(0.1252, 0.0, 0.0, 0.1252, 14.0, -20.0)" gradientUnits="userSpaceOnUse" id="gradient1" r="819.2" spreadMethod="pad">
      <stop offset="0.0" stop-color="#000000"/>
      <stop offset="0.5215686274509804" stop-color="#c20101"/>
      <stop offset="1.0" stop-color="#f76868"/>
    </radialGradient>
    <radialGradient cx="0" cy="0" gradientTransform="matrix(0.1371, 0.0, 0.0, 0.1371, 37.0, -11.0)" gradientUnits="userSpaceOnUse" id="gradient2" r="819.2" spreadMethod="pad">
      <stop offset="0.0" stop-color="#000000"/>
      <stop offset="0.5215686274509804" stop-color="#c20101"/>
      <stop offset="1.0" stop-color="#f76868"/>
    </radialGradient>
    <radialGradient cx="0" cy="0" gradientTransform="matrix(0.1226, 0.0, 0.0, 0.1226, 24.0, 14.0)" gradientUnits="userSpaceOnUse" id="gradient3" r="819.2" spreadMethod="pad">
      <stop offset="0.0" stop-color="#000000"/>
      <stop offset="0.5215686274509804" stop-color="#c20101"/>
      <stop offset="1.0" stop-color="#f76868"/>
    </radialGradient>
    <radialGradient cx="0" cy="0" gradientTransform="matrix(0.1035, 0.0, 0.0, 0.1035, -4.0, 27.0)" gradientUnits="userSpaceOnUse" id="gradient4" r="819.2" spreadMethod="pad">
      <stop offset="0.0" stop-color="#000000"/>
      <stop offset="0.5215686274509804" stop-color="#c20101"/>
      <stop offset="1.0" stop-color="#f76868"/>
    </radialGradient>
    <radialGradient cx="0" cy="0" gradientTransform="matrix(0.1319, 0.0, 0.0, 0.1319, -25.0, 20.0)" gradientUnits="userSpaceOnUse" id="gradient5" r="819.2" spreadMethod="pad">
      <stop offset="0.0" stop-color="#000000"/>
      <stop offset="0.5215686274509804" stop-color="#c20101"/>
      <stop offset="1.0" stop-color="#f76868"/>
    </radialGradient>
  </defs>
</svg>
