<?xml version="1.0" encoding="UTF-8" standalone="no"?>
<svg xmlns:xlink="http://www.w3.org/1999/xlink" height="304.0px" width="384.95px" xmlns="http://www.w3.org/2000/svg">
  <g transform="matrix(1.0, 0.0, 0.0, 1.0, 181.5, 139.5)">
    <path d="M83.45 -136.75 Q82.55 -134.45 79.95 -133.75 L78.95 -133.5 Q76.95 -133.65 76.45 -135.5 76.2 -137.45 77.95 -138.55 L78.45 -139.0 79.0 -139.15 79.95 -139.35 79.95 -139.5 Q82.4 -139.7 83.35 -137.45 L83.45 -136.75 M197.45 -42.5 Q197.1 -44.45 199.0 -45.2 L199.95 -45.5 Q202.35 -45.7 203.35 -43.45 L203.45 -42.75 202.6 -41.35 201.95 -40.75 Q198.8 -39.65 197.45 -42.5 M156.45 102.5 L156.45 103.25 156.2 104.7 155.95 105.5 155.45 105.95 154.95 106.2 153.95 106.5 Q151.0 105.9 148.85 104.05 L148.45 103.5 Q148.45 102.75 148.8 102.15 149.65 100.65 150.95 100.5 154.0 99.65 155.9 101.8 L156.45 102.5 M-165.0 -99.5 Q-164.0 -98.9 -163.1 -98.15 L-162.5 -97.5 -162.5 -96.75 -162.5 -96.0 -162.0 -95.25 -161.5 -94.5 -161.65 -93.05 Q-161.75 -92.25 -162.0 -91.5 L-162.55 -91.1 -164.0 -90.5 Q-166.45 -91.4 -167.5 -94.0 L-167.35 -97.0 -167.0 -98.5 -165.95 -99.15 -165.0 -99.5 M-49.5 159.5 Q-49.8 162.1 -51.9 163.8 L-53.0 164.5 -55.25 163.25 -55.45 161.7 -55.5 160.25 -54.25 158.75 -53.5 158.0 -52.05 157.6 -52.0 157.5 -50.1 158.85 -49.5 159.5 M-179.0 79.5 Q-175.95 79.45 -174.8 82.25 L-174.5 83.0 -174.75 83.75 -175.1 84.45 -175.5 85.0 Q-180.15 86.55 -181.5 82.0 L-180.9 80.55 -180.5 80.0 -180.0 79.8 -179.05 79.6 -179.0 79.5" fill="#f9dc1c" fill-rule="evenodd" stroke="none"/>
  </g>
</svg>
