<?xml version="1.0" encoding="UTF-8" standalone="no"?>
<svg xmlns:xlink="http://www.w3.org/1999/xlink" height="312.25px" width="399.9px" xmlns="http://www.w3.org/2000/svg">
  <g transform="matrix(1.0, 0.0, 0.0, 1.0, 190.2, 145.5)">
    <path d="M81.95 -145.5 L83.45 -145.25 84.2 -144.5 Q82.7 -130.6 71.95 -122.25 L69.7 -123.5 69.4 -124.3 69.2 -125.75 Q71.1 -130.0 74.2 -133.25 L74.35 -133.95 74.7 -134.75 75.65 -135.55 76.2 -136.25 Q76.75 -138.8 78.2 -140.75 L78.7 -141.5 78.8 -142.25 78.95 -143.0 Q79.85 -144.4 81.25 -145.2 L81.95 -145.5 M193.05 -43.75 L193.2 -44.5 Q200.0 -46.25 206.95 -46.75 L208.2 -46.25 209.7 -45.5 208.95 -44.0 208.2 -42.75 Q199.9 -39.0 191.7 -40.75 L191.9 -41.4 192.95 -43.0 193.05 -43.75 M162.15 105.45 L161.75 106.25 161.45 106.75 Q151.95 108.85 145.5 100.7 L144.95 100.0 Q144.8 98.8 145.35 97.8 L146.2 96.5 146.75 96.3 147.95 96.1 147.95 96.0 161.85 104.15 162.45 104.75 162.15 105.45 M-169.75 -103.5 L-168.95 -103.85 -168.05 -104.1 -168.0 -104.25 Q-162.2 -98.8 -158.45 -91.05 L-158.0 -90.25 Q-159.8 -82.05 -165.8 -89.8 L-168.25 -93.0 Q-168.8 -97.25 -170.15 -101.3 -170.55 -102.55 -169.75 -103.5 M-48.05 149.35 L-48.0 149.25 Q-46.9 149.85 -45.9 150.65 L-45.5 151.25 Q-47.95 160.95 -57.0 166.75 L-58.2 166.1 -58.75 165.5 Q-57.55 161.45 -55.05 157.95 L-54.5 157.25 -53.25 156.5 Q-52.7 153.1 -50.5 150.5 L-49.75 149.75 -48.05 149.35 M-189.75 80.0 Q-179.55 78.95 -170.0 77.0 -162.9 82.75 -173.15 84.5 -181.45 85.9 -189.5 83.75 -190.4 82.75 -190.15 81.5 L-189.75 80.0" fill="#000000" fill-rule="evenodd" stroke="none"/>
  </g>
</svg>
