<?xml version="1.0" encoding="UTF-8" standalone="no"?>
<svg xmlns:xlink="http://www.w3.org/1999/xlink" height="168.25px" width="185.5px" xmlns="http://www.w3.org/2000/svg">
  <g transform="matrix(1.0, 0.0, 0.0, 1.0, 90.9, 87.75)">
    <path d="M69.45 -64.75 Q71.15 -64.05 71.5 -62.55 L71.95 -61.75 Q72.4 -60.3 72.3 -58.75 L72.2 -57.25 71.85 -56.65 70.95 -56.0 69.7 -56.5 69.7 -58.75 69.7 -60.25 Q68.15 -62.25 68.45 -64.5 68.5 -65.0 69.45 -64.75 M25.2 -83.95 L26.5 -83.25 26.75 -82.5 27.0 -81.75 Q27.65 -80.35 25.0 -80.0 L14.75 -83.75 Q13.55 -85.6 15.0 -86.95 L16.0 -87.75 Q20.7 -86.0 25.2 -83.95 M91.2 -20.75 L92.25 -22.0 Q92.6 -22.45 93.2 -22.25 L93.95 -21.5 94.45 -20.75 94.6 -19.25 94.45 -18.5 92.95 -17.25 91.7 -17.75 Q90.95 -18.7 91.15 -20.0 L91.2 -20.75 M93.1 27.9 L93.45 28.5 Q93.8 30.05 92.75 31.5 L92.2 32.25 90.95 32.75 89.2 31.5 Q89.2 30.3 89.75 29.25 L90.2 28.5 91.9 27.4 91.95 27.25 Q92.6 27.5 93.1 27.9 M11.25 79.2 L12.5 80.0 Q12.25 80.25 11.95 80.3 L10.5 80.5 9.5 79.75 8.5 79.0 Q8.75 78.75 9.05 78.65 L10.0 78.5 10.25 78.5 11.25 79.2 M60.1 72.9 L60.45 73.5 Q60.9 74.7 59.8 75.8 L59.2 76.5 57.95 77.0 Q55.3 77.3 54.95 75.0 55.95 72.5 58.95 72.25 59.6 72.5 60.1 72.9 M-89.5 -10.1 L-90.0 -9.5 Q-91.65 -11.2 -90.3 -13.5 L-89.5 -13.75 Q-88.8 -12.05 -89.5 -10.1 M-69.3 -56.75 L-69.75 -56.0 -70.1 -55.65 Q-70.5 -55.4 -71.0 -55.25 L-72.75 -56.5 Q-71.35 -65.45 -63.45 -69.35 L-62.75 -69.5 Q-65.45 -63.2 -69.3 -56.75 M-66.45 48.6 L-66.25 49.25 Q-70.4 48.55 -73.2 43.8 L-73.0 43.5 -72.75 43.3 -72.0 43.25 -71.5 43.25 Q-68.6 45.55 -66.45 48.6 M-35.25 73.25 L-35.0 73.5 Q-32.4 73.6 -31.5 76.0 L-33.0 77.25 Q-38.1 75.6 -35.95 72.8 L-35.75 72.75 -35.25 73.25 M-84.85 27.55 L-84.25 28.25 -85.2 29.15 -85.75 29.0 Q-85.75 27.9 -86.3 26.85 -86.45 26.55 -85.75 26.75 L-84.85 27.55" fill="#400000" fill-rule="evenodd" stroke="none"/>
  </g>
</svg>
