<?xml version="1.0" encoding="UTF-8" standalone="no"?>
<svg xmlns:xlink="http://www.w3.org/1999/xlink" height="39.7px" width="33.1px" xmlns="http://www.w3.org/2000/svg">
  <g transform="matrix(1.0, 0.0, 0.0, 1.0, 13.8, 20.35)">
    <path d="M3.0 -15.95 L3.05 -16.05 Q4.0 -16.75 5.35 -16.75 L5.75 -16.7 4.95 -17.6 Q2.75 -19.85 -0.4 -19.85 L-1.7 -19.75 Q-4.05 -19.35 -5.75 -17.6 L-7.1 -15.9 -2.4 -15.75 -2.35 -15.85 -2.05 -16.15 -1.9 -16.35 Q-1.2 -16.95 -0.15 -16.95 0.9 -16.95 1.7 -16.15 L1.75 -16.0 1.75 -15.95 3.0 -15.95 M-0.05 -15.75 L0.1 -15.9 0.3 -15.95 Q0.65 -15.85 1.0 -15.55 L1.05 -15.5 1.5 -14.65 1.5 -14.6 1.55 -14.35 1.55 -14.25 Q1.5 -13.6 1.05 -13.1 0.5 -12.6 -0.15 -12.6 -0.85 -12.6 -1.35 -13.1 -1.85 -13.6 -1.85 -14.3 L-1.85 -14.6 -1.85 -14.65 -1.35 -15.5 -1.35 -15.55 -0.6 -15.95 -0.4 -15.9 -0.3 -15.75 -0.3 -15.7 -0.3 -15.55 -0.45 -15.45 -1.0 -15.15 -1.05 -15.15 -1.35 -14.55 -1.35 -14.3 Q-1.35 -13.8 -1.0 -13.45 -0.65 -13.1 -0.15 -13.1 0.3 -13.1 0.7 -13.45 L1.05 -14.3 1.0 -14.55 0.7 -15.15 0.15 -15.45 0.0 -15.55 -0.05 -15.7 -0.05 -15.75 M3.25 -15.6 L3.2 -15.5 3.0 -15.45 2.95 -15.25 2.6 -14.9 2.45 -14.8 2.45 -14.75 2.4 -14.6 2.35 -14.55 2.35 -14.35 Q2.0 -13.8 2.0 -13.1 L2.0 -12.95 2.0 -12.8 1.95 -12.65 2.0 -12.5 2.1 -11.95 2.1 -11.8 2.05 -11.7 2.35 -11.25 2.35 -11.1 2.95 -10.5 3.5 -10.1 3.55 -10.05 Q4.3 -9.55 5.35 -9.55 L6.95 -9.95 7.1 -10.0 7.15 -10.1 7.7 -10.5 Q8.7 -11.5 8.7 -12.9 8.7 -14.3 7.7 -15.25 L7.65 -15.3 7.45 -15.5 7.4 -15.6 7.25 -15.65 6.5 -16.05 6.4 -16.1 6.25 -16.1 5.35 -16.25 Q4.2 -16.25 3.35 -15.65 L3.25 -15.6 M1.5 -15.75 L1.35 -15.8 Q0.7 -16.45 -0.15 -16.45 -1.0 -16.45 -1.6 -15.95 L-1.65 -15.9 -1.7 -15.8 -1.95 -15.55 -2.0 -15.5 -2.05 -15.35 -2.25 -14.8 -2.3 -14.65 -2.3 -14.6 -2.3 -14.3 -2.3 -14.25 Q-2.35 -13.4 -1.7 -12.75 L-1.6 -12.65 -1.55 -12.6 Q-1.0 -12.15 -0.15 -12.15 L0.25 -12.2 0.4 -12.15 0.55 -12.25 0.8 -12.25 0.8 -12.3 0.95 -12.45 1.3 -12.75 1.55 -13.0 1.5 -13.1 Q1.5 -13.9 1.9 -14.6 L1.95 -14.7 1.75 -15.3 1.7 -15.45 1.65 -15.5 1.55 -15.7 1.55 -15.75 1.5 -15.75 M2.25 -15.45 L2.3 -15.3 2.4 -15.45 2.25 -15.45 M3.85 -14.4 Q3.2 -13.8 3.2 -12.9 3.2 -12.0 3.85 -11.35 L3.9 -11.3 Q4.5 -10.75 5.35 -10.75 6.1 -10.75 6.65 -11.15 L6.65 -11.2 6.8 -11.3 Q6.8 -11.4 6.95 -11.4 7.5 -12.05 7.5 -12.9 7.5 -13.8 6.9 -14.4 6.25 -15.05 5.35 -15.05 4.45 -15.05 3.85 -14.4 M2.7 -12.9 Q2.7 -14.0 3.5 -14.75 4.25 -15.55 5.35 -15.55 6.45 -15.55 7.25 -14.75 8.0 -14.0 8.0 -12.9 8.0 -11.8 7.25 -11.0 L7.1 -10.9 7.0 -10.8 6.95 -10.8 Q6.3 -10.25 5.35 -10.25 4.3 -10.25 3.55 -10.95 L3.5 -11.0 Q2.7 -11.8 2.7 -12.9 M7.85 -15.85 L8.05 -15.9 9.1 -15.35 Q9.6 -14.85 9.6 -14.1 L9.6 -13.95 9.6 -13.85 9.6 -12.2 11.9 -12.35 Q13.1 -11.95 13.8 -10.85 L13.8 -10.75 13.9 -10.65 19.15 2.6 19.15 2.75 19.25 2.9 19.25 3.95 18.6 4.85 18.45 4.9 18.35 5.0 17.05 5.1 17.0 5.1 16.2 5.3 Q15.2 5.4 14.35 4.8 L14.3 4.7 14.15 4.65 8.15 0.2 5.8 12.15 Q5.8 13.2 5.05 14.0 4.25 14.75 3.15 14.75 L-2.25 14.75 Q-3.35 14.75 -4.1 14.0 -4.8 13.25 -4.85 12.4 L-4.8 12.3 -4.9 12.2 -7.5 3.8 -8.55 7.25 -8.6 7.35 -3.95 15.25 -3.95 15.4 -3.85 15.5 Q-3.5 16.4 -3.75 17.4 -4.15 18.45 -5.05 19.05 L-5.2 19.05 -7.2 19.25 Q-8.2 18.95 -8.75 18.2 L-8.8 18.05 -8.9 17.95 -13.5 9.05 -13.55 8.85 -13.45 8.7 -13.55 8.7 -13.65 8.55 Q-13.9 7.85 -13.65 7.15 L-13.55 6.9 -13.65 6.8 -13.7 6.6 -11.55 -2.7 -11.45 -2.8 -11.45 -2.95 Q-11.15 -3.9 -10.2 -4.45 -9.25 -5.05 -8.1 -4.7 L-7.65 -4.55 Q-6.45 -5.5 -4.95 -5.55 -5.6 -6.0 -6.1 -6.55 L-7.35 -8.1 -8.0 -9.55 -8.05 -9.65 -8.15 -9.65 -8.8 -9.65 -8.9 -9.65 -9.05 -9.65 Q-9.8 -9.65 -10.3 -10.15 -10.9 -10.75 -10.9 -11.5 L-10.85 -11.6 -10.9 -11.75 -10.9 -14.1 -10.8 -14.25 -10.85 -14.35 -10.3 -15.4 -10.3 -15.35 Q-9.8 -15.95 -9.05 -15.95 L-7.65 -15.9 -6.1 -17.95 Q-4.25 -19.85 -1.8 -20.25 L-0.4 -20.35 Q2.95 -20.35 5.3 -17.95 L6.3 -16.8 6.35 -16.6 6.4 -16.6 6.5 -16.5 6.65 -16.5 7.55 -16.05 7.65 -15.95 7.75 -15.9 7.85 -15.8 7.85 -15.85 M9.15 -11.9 L9.1 -12.0 9.1 -11.9 9.15 -11.9 M9.15 -13.95 L9.1 -14.1 Q9.1 -14.65 8.75 -15.0 L8.35 -15.3 Q8.9 -14.65 9.1 -13.8 L9.1 -13.85 9.15 -13.95 M9.15 -11.3 L8.95 -11.25 8.85 -11.25 8.1 -10.25 8.15 -10.2 8.2 -10.05 8.15 -9.9 8.15 -9.8 Q7.9 -8.8 8.45 -7.8 L8.4 -7.8 9.75 -5.8 9.8 -5.65 9.75 -5.55 9.8 -5.5 9.85 -5.35 9.85 -5.3 10.0 -5.35 10.15 -5.25 16.35 4.0 16.4 4.2 16.3 4.35 16.1 4.4 15.95 4.3 9.75 -4.95 9.7 -5.1 9.6 -5.1 9.45 -5.15 9.3 -5.25 Q8.6 -5.7 7.75 -5.6 7.25 -5.55 6.85 -5.3 L6.85 -5.25 6.3 -4.8 6.15 -4.7 6.05 -4.7 5.95 -4.65 5.75 -4.65 4.15 -5.05 3.3 -5.05 Q1.65 -4.15 -0.4 -4.15 -2.45 -4.15 -4.1 -5.05 L-4.85 -5.05 Q-6.3 -5.05 -7.4 -4.05 L-7.55 -4.0 -7.7 -4.0 -8.2 -4.2 -8.25 -4.2 -9.95 -4.0 Q-10.75 -3.6 -10.95 -2.8 L-11.05 -2.65 -11.05 -2.6 -13.05 6.05 -12.5 5.65 -12.3 5.6 -12.15 5.75 -12.15 5.95 -12.25 6.1 Q-13.0 6.45 -13.15 7.25 L-13.15 7.3 -13.2 8.4 -13.2 8.55 -13.3 8.65 -13.2 8.65 -13.05 8.8 -8.45 17.7 -8.45 17.85 -8.35 17.9 Q-7.9 18.55 -7.05 18.75 L-5.4 18.6 -5.3 18.55 -5.25 18.55 Q-4.55 18.1 -4.2 17.25 L-4.25 17.25 Q-4.0 16.4 -4.3 15.7 L-4.35 15.6 -4.4 15.5 -9.05 7.55 -9.1 7.35 -9.05 7.25 -9.4 6.9 -9.5 6.7 -9.4 6.55 -9.25 6.45 -9.05 6.55 -8.9 6.7 -7.9 3.25 -7.75 3.1 -7.8 2.95 -7.8 2.8 -7.85 2.7 -9.1 -1.2 -9.05 -1.4 -8.9 -1.55 -8.7 -1.5 -8.6 -1.35 -7.35 2.55 -7.35 2.7 -7.3 2.8 -4.4 12.05 -4.4 12.2 -4.35 12.35 Q-4.3 13.05 -3.75 13.65 -3.15 14.25 -2.25 14.25 L3.15 14.25 Q4.05 14.25 4.7 13.65 5.3 13.0 5.3 12.1 L5.3 12.05 7.7 -0.15 6.35 -1.15 6.25 -1.3 6.3 -1.5 6.45 -1.6 6.65 -1.55 14.45 4.25 14.55 4.35 14.65 4.4 Q15.3 4.9 16.15 4.8 L16.85 4.65 16.95 4.6 17.05 4.6 17.15 4.65 18.1 4.55 18.25 4.5 18.3 4.45 18.75 3.8 18.8 3.8 18.8 3.05 18.75 2.9 18.7 2.8 13.45 -10.45 13.4 -10.55 13.35 -10.6 Q12.8 -11.55 11.75 -11.85 L9.65 -11.6 9.5 -11.6 9.4 -11.5 9.15 -11.3 M7.6 -9.7 L7.55 -9.75 7.45 -9.7 7.3 -9.65 7.25 -9.55 Q6.65 -7.95 5.3 -6.55 L4.1 -5.55 4.15 -5.55 Q5.15 -5.55 5.95 -5.15 L6.6 -5.7 6.55 -5.7 7.7 -6.1 9.1 -5.9 8.0 -7.55 Q7.4 -8.6 7.6 -9.7 M6.6 -9.25 L5.35 -9.05 Q4.15 -9.05 3.25 -9.65 L2.3 -9.65 2.2 -9.65 2.0 -9.35 Q1.5 -8.9 0.8 -8.9 0.1 -8.9 -0.4 -9.35 L-0.5 -9.5 -0.45 -9.65 -7.55 -9.65 -6.9 -8.35 -5.75 -6.9 -3.9 -5.5 Q-2.35 -4.65 -0.4 -4.65 1.55 -4.65 3.1 -5.5 4.05 -6.05 4.95 -6.9 6.0 -8.0 6.6 -9.25 M2.6 -10.15 L2.55 -10.2 2.45 -10.3 2.45 -10.15 2.6 -10.15 M1.55 -12.1 L1.55 -12.25 1.4 -12.15 1.55 -12.1 M1.4 -11.35 L1.5 -11.25 1.75 -10.55 1.5 -9.9 1.45 -9.85 1.1 -9.65 0.8 -9.6 0.5 -9.65 Q0.2 -9.7 0.1 -9.85 L0.05 -9.9 -0.2 -10.55 0.1 -11.25 0.15 -11.35 0.8 -11.55 1.4 -11.35 M1.9 -11.05 L1.65 -11.4 Q1.3 -11.8 0.85 -11.75 L0.8 -11.75 0.55 -11.75 0.5 -11.75 0.35 -11.7 0.0 -11.65 0.0 -11.6 -0.05 -11.4 -0.25 -11.2 -0.3 -11.15 -0.35 -10.95 -0.35 -10.8 -0.4 -10.55 -0.35 -10.2 -0.35 -10.1 -0.3 -10.05 -0.25 -9.9 -0.25 -9.8 -0.05 -9.7 Q0.3 -9.4 0.8 -9.4 1.3 -9.4 1.65 -9.7 L1.85 -10.0 1.9 -10.05 1.9 -10.15 2.0 -10.55 1.95 -10.9 1.95 -10.95 1.9 -11.05 M0.45 -10.95 L0.45 -10.9 Q0.3 -10.8 0.3 -10.55 0.3 -10.4 0.45 -10.2 L0.6 -10.15 0.65 -10.1 0.8 -10.1 0.9 -10.1 0.95 -10.1 1.15 -10.2 1.25 -10.55 1.15 -10.9 1.1 -10.95 0.8 -11.05 0.45 -10.95 M-10.0 -14.0 L-9.55 -14.55 -8.4 -14.85 -2.75 -14.85 -2.65 -15.25 -9.05 -15.45 Q-9.6 -15.45 -9.95 -15.0 L-10.35 -14.3 -10.4 -14.15 -10.4 -14.1 -10.4 -11.75 -10.4 -11.6 -10.4 -11.5 Q-10.4 -10.95 -9.95 -10.5 -9.6 -10.15 -9.05 -10.15 L-8.9 -10.1 -8.8 -10.15 -8.15 -10.15 -8.0 -10.1 -7.9 -10.15 -0.85 -10.15 -0.9 -10.55 -0.85 -10.9 -8.4 -10.9 -8.5 -10.9 -8.65 -10.9 -9.5 -11.15 -9.55 -11.2 -10.0 -11.75 -10.0 -11.9 -10.1 -12.1 -10.1 -13.65 -10.0 -13.8 -10.0 -14.0 M-9.6 -13.7 L-9.6 -13.65 -9.6 -12.1 -9.6 -12.0 -9.55 -11.95 -9.25 -11.6 -8.6 -11.4 -8.5 -11.35 -8.4 -11.4 -0.7 -11.4 -0.65 -11.5 -0.5 -11.65 Q-1.3 -11.75 -1.9 -12.25 L-2.05 -12.4 Q-2.85 -13.2 -2.8 -14.3 L-2.8 -14.35 -8.4 -14.35 -9.25 -14.15 -9.55 -13.8 -9.6 -13.7" fill="#000000" fill-rule="evenodd" stroke="none"/>
    <path d="M3.25 -15.6 L3.35 -15.65 Q4.2 -16.25 5.35 -16.25 L6.25 -16.1 6.4 -16.1 6.5 -16.05 7.25 -15.65 7.4 -15.6 7.45 -15.5 7.65 -15.3 7.7 -15.25 Q8.7 -14.3 8.7 -12.9 8.7 -11.5 7.7 -10.5 L7.15 -10.1 7.1 -10.0 6.95 -9.95 5.35 -9.55 Q4.3 -9.55 3.55 -10.05 L3.5 -10.1 2.95 -10.5 2.35 -11.1 2.35 -11.25 2.05 -11.7 2.1 -11.8 2.1 -11.95 2.0 -12.5 1.95 -12.65 2.0 -12.8 2.0 -12.95 2.0 -13.1 Q2.0 -13.8 2.35 -14.35 L2.35 -14.55 2.4 -14.6 2.45 -14.75 2.45 -14.8 2.6 -14.9 2.95 -15.25 3.0 -15.45 3.2 -15.5 3.25 -15.6 M-0.3 -15.75 L-0.4 -15.9 -0.6 -15.95 -1.35 -15.55 -1.35 -15.5 -1.85 -14.65 -1.85 -14.6 -1.85 -14.3 Q-1.85 -13.6 -1.35 -13.1 -0.85 -12.6 -0.15 -12.6 0.5 -12.6 1.05 -13.1 1.5 -13.6 1.55 -14.25 L1.55 -14.35 1.5 -14.6 1.5 -14.65 1.05 -15.5 1.0 -15.55 Q0.65 -15.85 0.3 -15.95 L0.1 -15.9 -0.05 -15.75 -0.15 -15.75 -0.3 -15.75 M1.5 -15.75 L1.55 -15.75 1.55 -15.7 1.65 -15.5 1.7 -15.45 1.75 -15.3 1.95 -14.7 1.9 -14.6 Q1.5 -13.9 1.5 -13.1 L1.55 -13.0 1.3 -12.75 0.95 -12.45 0.8 -12.3 0.8 -12.25 0.55 -12.25 0.4 -12.15 0.25 -12.2 -0.15 -12.15 Q-1.0 -12.15 -1.55 -12.6 L-1.6 -12.65 -1.7 -12.75 Q-2.35 -13.4 -2.3 -14.25 L-2.3 -14.3 -2.3 -14.6 -2.3 -14.65 -2.25 -14.8 -2.05 -15.35 -2.0 -15.5 -1.95 -15.55 -1.7 -15.8 -1.65 -15.9 -1.6 -15.95 Q-1.0 -16.45 -0.15 -16.45 0.7 -16.45 1.35 -15.8 L1.5 -15.75 M2.7 -12.9 Q2.7 -11.8 3.5 -11.0 L3.55 -10.95 Q4.3 -10.25 5.35 -10.25 6.3 -10.25 6.95 -10.8 L7.0 -10.8 7.1 -10.9 7.25 -11.0 Q8.0 -11.8 8.0 -12.9 8.0 -14.0 7.25 -14.75 6.45 -15.55 5.35 -15.55 4.25 -15.55 3.5 -14.75 2.7 -14.0 2.7 -12.9 M1.9 -11.05 L1.95 -10.95 1.95 -10.9 2.0 -10.55 1.9 -10.15 1.9 -10.05 1.85 -10.0 1.65 -9.7 Q1.3 -9.4 0.8 -9.4 0.3 -9.4 -0.05 -9.7 L-0.25 -9.8 -0.25 -9.9 -0.3 -10.05 -0.35 -10.1 -0.35 -10.2 -0.4 -10.55 -0.35 -10.8 -0.35 -10.95 -0.3 -11.15 -0.25 -11.2 -0.05 -11.4 0.0 -11.6 0.0 -11.65 0.35 -11.7 0.5 -11.75 0.55 -11.75 0.8 -11.75 0.85 -11.75 Q1.3 -11.8 1.65 -11.4 L1.9 -11.05 M1.4 -11.35 L0.8 -11.55 0.15 -11.35 0.1 -11.25 -0.2 -10.55 0.05 -9.9 0.1 -9.85 Q0.2 -9.7 0.5 -9.65 L0.8 -9.6 1.1 -9.65 1.45 -9.85 1.5 -9.9 1.75 -10.55 1.5 -11.25 1.4 -11.35" fill="#898b89" fill-rule="evenodd" stroke="none"/>
    <path d="M3.0 -15.95 L1.75 -15.95 1.75 -16.0 1.7 -16.15 Q0.9 -16.95 -0.15 -16.95 -1.2 -16.95 -1.9 -16.35 L-2.05 -16.15 -2.35 -15.85 -2.4 -15.75 -7.1 -15.9 -5.75 -17.6 Q-4.05 -19.35 -1.7 -19.75 L-0.4 -19.85 Q2.75 -19.85 4.95 -17.6 L5.75 -16.7 5.35 -16.75 Q4.0 -16.75 3.05 -16.05 L3.0 -15.95 M-0.05 -15.75 L-0.05 -15.7 -0.3 -15.7 -0.3 -15.75 -0.15 -15.75 -0.05 -15.75 M6.6 -9.25 Q6.0 -8.0 4.95 -6.9 4.05 -6.05 3.1 -5.5 1.55 -4.65 -0.4 -4.65 -2.35 -4.65 -3.9 -5.5 L-5.75 -6.9 -6.9 -8.35 -7.55 -9.65 -0.45 -9.65 -0.5 -9.5 -0.4 -9.35 Q0.1 -8.9 0.8 -8.9 1.5 -8.9 2.0 -9.35 L2.2 -9.65 2.3 -9.65 3.25 -9.65 Q4.15 -9.05 5.35 -9.05 L6.6 -9.25" fill="url(#gradient0)" fill-rule="evenodd" stroke="none"/>
    <path d="M2.25 -15.45 L2.4 -15.45 2.3 -15.3 2.25 -15.45 M9.15 -13.95 L9.1 -13.85 9.1 -13.8 Q8.9 -14.65 8.35 -15.3 L8.75 -15.0 Q9.1 -14.65 9.1 -14.1 L9.15 -13.95 M9.15 -11.9 L9.1 -11.9 9.1 -12.0 9.15 -11.9 M2.6 -10.15 L2.45 -10.15 2.45 -10.3 2.55 -10.2 2.6 -10.15 M-10.0 -14.0 L-10.0 -13.8 -10.1 -13.65 -10.1 -12.1 -10.0 -11.9 -10.0 -11.75 -9.55 -11.2 -9.5 -11.15 -8.65 -10.9 -8.5 -10.9 -8.4 -10.9 -0.85 -10.9 -0.9 -10.55 -0.85 -10.15 -7.9 -10.15 -8.0 -10.1 -8.15 -10.15 -8.8 -10.15 -8.9 -10.1 -9.05 -10.15 Q-9.6 -10.15 -9.95 -10.5 -10.4 -10.95 -10.4 -11.5 L-10.4 -11.6 -10.4 -11.75 -10.4 -14.1 -10.4 -14.15 -10.35 -14.3 -9.95 -15.0 Q-9.6 -15.45 -9.05 -15.45 L-2.65 -15.25 -2.75 -14.85 -8.4 -14.85 -9.55 -14.55 -10.0 -14.0" fill="url(#gradient1)" fill-rule="evenodd" stroke="none"/>
    <path d="M-0.05 -15.7 L0.0 -15.55 0.15 -15.45 0.7 -15.15 1.0 -14.55 1.05 -14.3 0.7 -13.45 Q0.3 -13.1 -0.15 -13.1 -0.65 -13.1 -1.0 -13.45 -1.35 -13.8 -1.35 -14.3 L-1.35 -14.55 -1.05 -15.15 -1.0 -15.15 -0.45 -15.45 -0.3 -15.55 -0.3 -15.7 -0.05 -15.7" fill="url(#gradient2)" fill-rule="evenodd" stroke="none"/>
    <path d="M3.85 -14.4 Q4.45 -15.05 5.35 -15.05 6.25 -15.05 6.9 -14.4 7.5 -13.8 7.5 -12.9 7.5 -12.05 6.95 -11.4 6.8 -11.4 6.8 -11.3 L6.65 -11.2 6.65 -11.15 Q6.1 -10.75 5.35 -10.75 4.5 -10.75 3.9 -11.3 L3.85 -11.35 Q3.2 -12.0 3.2 -12.9 3.2 -13.8 3.85 -14.4" fill="url(#gradient3)" fill-rule="evenodd" stroke="none"/>
    <path d="M9.15 -11.3 L9.4 -11.5 9.5 -11.6 9.65 -11.6 11.75 -11.85 Q12.8 -11.55 13.35 -10.6 L13.4 -10.55 13.45 -10.45 18.7 2.8 18.75 2.9 18.8 3.05 18.8 3.8 18.75 3.8 18.3 4.45 18.25 4.5 18.1 4.55 17.15 4.65 17.05 4.6 16.95 4.6 16.85 4.65 16.15 4.8 Q15.3 4.9 14.65 4.4 L14.55 4.35 14.45 4.25 6.65 -1.55 6.45 -1.6 6.3 -1.5 6.25 -1.3 6.35 -1.15 7.7 -0.15 5.3 12.05 5.3 12.1 Q5.3 13.0 4.7 13.65 4.05 14.25 3.15 14.25 L-2.25 14.25 Q-3.15 14.25 -3.75 13.65 -4.3 13.05 -4.35 12.35 L-4.4 12.2 -4.4 12.05 -7.3 2.8 -7.35 2.7 -7.35 2.55 -8.6 -1.35 -8.7 -1.5 -8.9 -1.55 -9.05 -1.4 -9.1 -1.2 -7.85 2.7 -7.8 2.8 -7.8 2.95 -7.75 3.1 -7.9 3.25 -8.9 6.7 -9.05 6.55 -9.25 6.45 -9.4 6.55 -9.5 6.7 -9.4 6.9 -9.05 7.25 -9.1 7.35 -9.05 7.55 -4.4 15.5 -4.35 15.6 -4.3 15.7 Q-4.0 16.4 -4.25 17.25 L-4.2 17.25 Q-4.55 18.1 -5.25 18.55 L-5.3 18.55 -5.4 18.6 -7.05 18.75 Q-7.9 18.55 -8.35 17.9 L-8.45 17.85 -8.45 17.7 -13.05 8.8 -13.2 8.65 -13.3 8.65 -13.2 8.55 -13.2 8.4 -13.15 7.3 -13.15 7.25 Q-13.0 6.45 -12.25 6.1 L-12.15 5.95 -12.15 5.75 -12.3 5.6 -12.5 5.65 -13.05 6.05 -11.05 -2.6 -11.05 -2.65 -10.95 -2.8 Q-10.75 -3.6 -9.95 -4.0 L-8.25 -4.2 -8.2 -4.2 -7.7 -4.0 -7.55 -4.0 -7.4 -4.05 Q-6.3 -5.05 -4.85 -5.05 L-4.1 -5.05 Q-2.45 -4.15 -0.4 -4.15 1.65 -4.15 3.3 -5.05 L4.15 -5.05 5.75 -4.65 5.95 -4.65 6.05 -4.7 6.15 -4.7 6.3 -4.8 6.85 -5.25 6.85 -5.3 Q7.25 -5.55 7.75 -5.6 8.6 -5.7 9.3 -5.25 L9.45 -5.15 9.6 -5.1 9.7 -5.1 9.75 -4.95 15.95 4.3 16.1 4.4 16.3 4.35 16.4 4.2 16.35 4.0 10.15 -5.25 10.0 -5.35 9.85 -5.3 9.85 -5.35 9.8 -5.5 9.75 -5.55 9.8 -5.65 9.75 -5.8 8.4 -7.8 8.45 -7.8 Q7.9 -8.8 8.15 -9.8 L8.15 -9.9 8.2 -10.05 8.15 -10.2 8.1 -10.25 8.85 -11.25 8.95 -11.25 9.15 -11.3" fill="url(#gradient4)" fill-rule="evenodd" stroke="none"/>
    <path d="M1.55 -12.1 L1.4 -12.15 1.55 -12.25 1.55 -12.1 M-9.6 -13.7 L-9.55 -13.8 -9.25 -14.15 -8.4 -14.35 -2.8 -14.35 -2.8 -14.3 Q-2.85 -13.2 -2.05 -12.4 L-1.9 -12.25 Q-1.3 -11.75 -0.5 -11.65 L-0.65 -11.5 -0.7 -11.4 -8.4 -11.4 -8.5 -11.35 -8.6 -11.4 -9.25 -11.6 -9.55 -11.95 -9.6 -12.0 -9.6 -12.1 -9.6 -13.65 -9.6 -13.7" fill="url(#gradient5)" fill-rule="evenodd" stroke="none"/>
    <path d="M0.45 -10.95 L0.8 -11.05 1.1 -10.95 1.15 -10.9 1.25 -10.55 1.15 -10.2 0.95 -10.1 0.9 -10.1 0.8 -10.1 0.65 -10.1 0.6 -10.15 0.45 -10.2 Q0.3 -10.4 0.3 -10.55 0.3 -10.8 0.45 -10.9 L0.45 -10.95" fill="url(#gradient6)" fill-rule="evenodd" stroke="none"/>
  </g>
  <defs>
    <radialGradient cx="0" cy="0" gradientTransform="matrix(0.0037, 0.0064, -0.0083, 0.0048, -4.05, -16.3)" gradientUnits="userSpaceOnUse" id="gradient0" r="819.2" spreadMethod="pad">
      <stop offset="0.11372549019607843" stop-color="#ffffff"/>
      <stop offset="0.43529411764705883" stop-color="#000000"/>
    </radialGradient>
    <linearGradient gradientTransform="matrix(0.0122, 0.0, 0.0, 0.0035, -0.65, -12.8)" gradientUnits="userSpaceOnUse" id="gradient1" spreadMethod="pad" x1="-819.2" x2="819.2">
      <stop offset="0.0" stop-color="#e1e1e1"/>
      <stop offset="1.0" stop-color="#979797"/>
    </linearGradient>
    <radialGradient cx="0" cy="0" gradientTransform="matrix(0.0025, 0.0, 0.0, 0.0025, -0.5, -14.1)" gradientUnits="userSpaceOnUse" id="gradient2" r="819.2" spreadMethod="pad">
      <stop offset="0.0" stop-color="#cdcd01"/>
      <stop offset="1.0" stop-color="#fefe16"/>
    </radialGradient>
    <radialGradient cx="0" cy="0" gradientTransform="matrix(0.0034, 0.0, 0.0, 0.0034, 5.05, -12.7)" gradientUnits="userSpaceOnUse" id="gradient3" r="819.2" spreadMethod="pad">
      <stop offset="0.0" stop-color="#cdcd01"/>
      <stop offset="1.0" stop-color="#fefe16"/>
    </radialGradient>
    <radialGradient cx="0" cy="0" gradientTransform="matrix(0.0322, 0.0, 0.0, 0.0322, -5.85, -3.5)" gradientUnits="userSpaceOnUse" id="gradient4" r="819.2" spreadMethod="pad">
      <stop offset="0.11372549019607843" stop-color="#ffffff"/>
      <stop offset="0.43529411764705883" stop-color="#000000"/>
    </radialGradient>
    <radialGradient cx="0" cy="0" gradientTransform="matrix(0.008, 0.0, 0.0, 0.008, -5.85, -12.7)" gradientUnits="userSpaceOnUse" id="gradient5" r="819.2" spreadMethod="pad">
      <stop offset="0.0" stop-color="#ffffce"/>
      <stop offset="1.0" stop-color="#ffff04"/>
    </radialGradient>
    <radialGradient cx="0" cy="0" gradientTransform="matrix(0.0014, 0.0, 0.0, 0.0014, 0.9, -10.6)" gradientUnits="userSpaceOnUse" id="gradient6" r="819.2" spreadMethod="pad">
      <stop offset="0.0" stop-color="#cdcd01"/>
      <stop offset="1.0" stop-color="#fefe16"/>
    </radialGradient>
  </defs>
</svg>
