<?xml version="1.0" encoding="UTF-8" standalone="no"?>
<svg xmlns:xlink="http://www.w3.org/1999/xlink" height="39.7px" width="33.2px" xmlns="http://www.w3.org/2000/svg">
  <g transform="matrix(1.0, 0.0, 0.0, 1.0, 13.9, 20.35)">
    <path d="M3.0 -15.7 L2.75 -15.45 2.2 -14.75 1.8 -15.7 3.0 -15.7 M2.1 -11.15 L2.2 -11.15 2.75 -10.35 3.35 -9.9 2.05 -9.9 2.25 -10.55 2.1 -11.15 M7.3 -9.9 L7.85 -10.35 Q8.95 -11.4 8.95 -12.9 8.95 -14.4 7.85 -15.45 L7.6 -15.7 7.75 -15.7 Q8.4 -15.7 8.9 -15.2 9.35 -14.75 9.35 -14.1 L9.35 -11.8 Q8.3 -11.2 7.95 -10.05 L7.9 -9.9 7.75 -9.9 7.3 -9.9" fill="url(#gradient0)" fill-rule="evenodd" stroke="none"/>
    <path d="M-0.55 -15.7 L-0.15 -15.75 0.2 -15.7 -0.55 -15.7" fill="url(#gradient1)" fill-rule="evenodd" stroke="none"/>
    <path d="M2.1 -11.15 L1.8 -11.6 Q1.4 -12.05 0.8 -12.0 L0.55 -12.0 1.5 -12.6 1.75 -12.85 Q1.75 -11.9 2.2 -11.15 L2.1 -11.15" fill="url(#gradient2)" fill-rule="evenodd" stroke="none"/>
    <path d="M-7.5 -15.7 L-2.15 -15.7 -2.55 -14.6 -8.4 -14.6 -9.4 -14.35 -9.85 -13.65 -9.85 -12.1 Q-9.85 -11.7 -9.4 -11.4 L-8.4 -11.15 -0.55 -11.15 -0.65 -10.55 -0.5 -9.9 -7.9 -9.9 -9.05 -9.9 Q-9.7 -9.9 -10.15 -10.35 -10.65 -10.85 -10.65 -11.5 L-10.65 -14.1 Q-10.65 -14.75 -10.15 -15.2 -9.7 -15.7 -9.05 -15.7 L-7.5 -15.7" fill="#cccccc" fill-rule="evenodd" stroke="none"/>
    <path d="M0.2 -15.7 L0.85 -15.35 1.25 -14.6 1.3 -14.3 Q1.25 -13.7 0.85 -13.3 0.4 -12.85 -0.15 -12.85 -0.75 -12.85 -1.2 -13.3 -1.6 -13.7 -1.6 -14.3 L-1.6 -14.6 -1.2 -15.35 -0.55 -15.7 0.2 -15.7 M3.65 -14.6 Q4.35 -15.3 5.35 -15.3 6.35 -15.3 7.05 -14.6 7.75 -13.9 7.75 -12.9 7.75 -11.9 7.05 -11.2 L7.0 -11.15 6.8 -11.0 Q6.2 -10.5 5.35 -10.5 4.4 -10.5 3.7 -11.15 L3.65 -11.2 Q2.95 -11.9 2.95 -12.9 2.95 -13.9 3.65 -14.6 M0.3 -11.15 L0.8 -11.3 1.25 -11.15 1.3 -11.1 1.5 -10.55 1.3 -10.05 1.0 -9.9 0.8 -9.85 0.55 -9.9 Q0.35 -9.95 0.25 -10.05 L0.05 -10.55 0.25 -11.1 0.3 -11.15 M0.3 -11.95 L-0.25 -11.6 -0.55 -11.15 -8.4 -11.15 -9.4 -11.4 Q-9.85 -11.7 -9.85 -12.1 L-9.85 -13.65 -9.4 -14.35 -8.4 -14.6 -2.55 -14.6 -2.55 -14.3 Q-2.6 -13.3 -1.9 -12.6 L-1.75 -12.45 Q-1.1 -11.9 -0.15 -11.9 L0.3 -11.95" fill="#ffffff" fill-rule="evenodd" stroke="none"/>
    <path d="M3.0 -15.7 L1.8 -15.7 2.2 -14.75 2.75 -15.45 3.0 -15.7 Q4.0 -16.5 5.35 -16.5 L6.3 -16.35 5.35 -16.5 Q4.0 -16.5 3.0 -15.7 M-7.5 -15.7 Q-6.95 -16.85 -5.95 -17.8 -4.15 -19.6 -1.75 -20.0 L-0.4 -20.1 Q2.85 -20.1 5.1 -17.8 L6.3 -16.35 Q7.0 -16.2 7.6 -15.7 L7.85 -15.45 Q8.95 -14.4 8.95 -12.9 8.95 -11.4 7.85 -10.35 L7.3 -9.9 7.15 -9.8 7.05 -9.75 Q6.3 -9.3 5.35 -9.3 4.2 -9.3 3.35 -9.9 4.2 -9.3 5.35 -9.3 6.3 -9.3 7.05 -9.75 6.45 -8.1 5.1 -6.75 4.2 -5.85 3.2 -5.3 L4.15 -5.3 6.0 -4.85 6.05 -4.9 6.1 -4.95 6.7 -5.5 7.7 -5.85 Q8.65 -5.95 9.4 -5.5 L9.6 -5.35 9.95 -5.1 8.2 -7.7 Q7.6 -8.75 7.9 -9.9 L7.95 -10.05 Q8.3 -11.2 9.35 -11.8 L9.45 -11.85 9.5 -11.85 11.8 -12.1 Q13.05 -11.7 13.65 -10.55 L18.9 2.7 Q19.15 3.25 19.0 3.85 L18.25 4.75 18.2 4.75 17.05 4.85 16.95 4.85 16.15 5.05 Q15.25 5.15 14.5 4.6 L7.95 -0.25 5.55 12.1 Q5.55 13.1 4.85 13.8 4.15 14.5 3.15 14.5 L-2.25 14.5 Q-3.25 14.5 -3.95 13.8 -4.65 13.1 -4.65 12.1 L-7.55 2.85 -8.85 7.4 -4.2 15.35 Q-3.75 16.25 -4.0 17.3 -4.35 18.3 -5.2 18.8 L-5.3 18.8 -7.15 19.0 Q-8.2 18.7 -8.7 17.8 L-13.3 8.9 -13.45 8.45 Q-13.65 7.85 -13.4 7.2 L-13.55 7.1 -11.3 -2.65 Q-11.05 -3.65 -10.1 -4.25 L-8.2 -4.45 -8.15 -4.45 -7.6 -4.25 Q-6.4 -5.3 -4.85 -5.3 L-4.05 -5.3 Q-5.1 -5.85 -5.95 -6.75 L-7.15 -8.25 -7.9 -9.9 -0.5 -9.9 -0.65 -10.55 -0.55 -11.15 -0.25 -11.6 0.3 -11.95 0.55 -12.0 0.3 -11.95 -0.15 -11.9 Q-1.1 -11.9 -1.75 -12.45 L-1.9 -12.6 Q-2.6 -13.3 -2.55 -14.3 L-2.55 -14.6 -2.15 -15.7 -7.5 -15.7 M1.8 -15.7 L1.5 -16.0 Q0.8 -16.7 -0.15 -16.7 -1.1 -16.7 -1.75 -16.15 L-1.9 -16.0 -2.15 -15.7 -1.9 -16.0 -1.75 -16.15 Q-1.1 -16.7 -0.15 -16.7 0.8 -16.7 1.5 -16.0 L1.8 -15.7 M2.2 -11.15 Q1.75 -11.9 1.75 -12.85 L1.5 -12.6 0.55 -12.0 0.8 -12.0 Q1.4 -12.05 1.8 -11.6 L2.1 -11.15 2.25 -10.55 2.05 -9.9 3.35 -9.9 2.75 -10.35 2.2 -11.15 M-0.55 -15.7 L-1.2 -15.35 -1.6 -14.6 -1.6 -14.3 Q-1.6 -13.7 -1.2 -13.3 -0.75 -12.85 -0.15 -12.85 0.4 -12.85 0.85 -13.3 1.25 -13.7 1.3 -14.3 L1.25 -14.6 0.85 -15.35 0.2 -15.7 -0.15 -15.75 -0.55 -15.7 M2.2 -14.75 L2.15 -14.6 Q1.75 -13.85 1.75 -12.9 L1.75 -12.85 1.75 -12.9 Q1.75 -13.85 2.15 -14.6 L2.2 -14.75 M3.65 -14.6 Q2.95 -13.9 2.95 -12.9 2.95 -11.9 3.65 -11.2 L3.7 -11.15 Q4.4 -10.5 5.35 -10.5 6.2 -10.5 6.8 -11.0 L7.0 -11.15 7.05 -11.2 Q7.75 -11.9 7.75 -12.9 7.75 -13.9 7.05 -14.6 6.35 -15.3 5.35 -15.3 4.35 -15.3 3.65 -14.6 M16.15 4.15 L9.95 -5.1 16.15 4.15 M0.3 -11.15 L0.25 -11.1 0.05 -10.55 0.25 -10.05 Q0.35 -9.95 0.55 -9.9 L0.8 -9.85 1.0 -9.9 1.3 -10.05 1.5 -10.55 1.3 -11.1 1.25 -11.15 0.8 -11.3 0.3 -11.15 M2.05 -9.9 L1.8 -9.55 Q1.4 -9.15 0.8 -9.15 0.2 -9.15 -0.25 -9.55 L-0.5 -9.9 -0.25 -9.55 Q0.2 -9.15 0.8 -9.15 1.4 -9.15 1.8 -9.55 L2.05 -9.9 M7.95 -0.25 L6.5 -1.35 7.95 -0.25 M-4.05 -5.3 Q-2.4 -4.4 -0.4 -4.4 1.6 -4.4 3.2 -5.3 1.6 -4.4 -0.4 -4.4 -2.4 -4.4 -4.05 -5.3 M-9.25 6.7 L-8.85 7.4 -9.25 6.7 M-12.4 5.85 Q-13.2 6.3 -13.4 7.2 -13.2 6.3 -12.4 5.85 M-8.85 -1.3 L-7.55 2.85 -8.85 -1.3" fill="#bfbfbf" fill-rule="evenodd" stroke="none"/>
    <path d="M3.0 -15.7 L1.8 -15.7 2.2 -14.75 2.75 -15.45 3.0 -15.7 Q4.0 -16.5 5.35 -16.5 L6.3 -16.35 5.1 -17.8 Q2.85 -20.1 -0.4 -20.1 L-1.75 -20.0 Q-4.15 -19.6 -5.95 -17.8 -6.95 -16.85 -7.5 -15.7 L-2.15 -15.7 -1.9 -16.0 -1.75 -16.15 Q-1.1 -16.7 -0.15 -16.7 0.8 -16.7 1.5 -16.0 L1.8 -15.7 M2.2 -11.15 Q1.75 -11.9 1.75 -12.85 L1.5 -12.6 0.55 -12.0 0.8 -12.0 Q1.4 -12.05 1.8 -11.6 L2.1 -11.15 2.2 -11.15 2.75 -10.35 3.35 -9.9 Q4.2 -9.3 5.35 -9.3 6.3 -9.3 7.05 -9.75 L7.15 -9.8 7.3 -9.9 7.85 -10.35 Q8.95 -11.4 8.95 -12.9 8.95 -14.4 7.85 -15.45 L7.6 -15.7 Q7.0 -16.2 6.3 -16.35 M0.2 -15.7 L0.85 -15.35 1.25 -14.6 1.3 -14.3 Q1.25 -13.7 0.85 -13.3 0.4 -12.85 -0.15 -12.85 -0.75 -12.85 -1.2 -13.3 -1.6 -13.7 -1.6 -14.3 L-1.6 -14.6 -1.2 -15.35 -0.55 -15.7 -0.15 -15.75 0.2 -15.7 -0.55 -15.7 M1.75 -12.85 L1.75 -12.9 Q1.75 -13.85 2.15 -14.6 L2.2 -14.75 M3.65 -14.6 Q4.35 -15.3 5.35 -15.3 6.35 -15.3 7.05 -14.6 7.75 -13.9 7.75 -12.9 7.75 -11.9 7.05 -11.2 L7.0 -11.15 6.8 -11.0 Q6.2 -10.5 5.35 -10.5 4.4 -10.5 3.7 -11.15 L3.65 -11.2 Q2.95 -11.9 2.95 -12.9 2.95 -13.9 3.65 -14.6 M9.35 -11.8 L9.35 -14.1 Q9.35 -14.75 8.9 -15.2 8.4 -15.7 7.75 -15.7 L7.6 -15.7 M7.9 -9.9 L7.95 -10.05 Q8.3 -11.2 9.35 -11.8 L9.45 -11.85 9.5 -11.85 11.8 -12.1 Q13.05 -11.7 13.65 -10.55 L18.9 2.7 Q19.15 3.25 19.0 3.85 L18.25 4.75 18.2 4.75 17.05 4.85 16.95 4.85 16.15 5.05 Q15.25 5.15 14.5 4.6 L7.95 -0.25 5.55 12.1 Q5.55 13.1 4.85 13.8 4.15 14.5 3.15 14.5 L-2.25 14.5 Q-3.25 14.5 -3.95 13.8 -4.65 13.1 -4.65 12.1 L-7.55 2.85 -8.85 7.4 -4.2 15.35 Q-3.75 16.25 -4.0 17.3 -4.35 18.3 -5.2 18.8 L-5.3 18.8 -7.15 19.0 Q-8.2 18.7 -8.7 17.8 L-13.3 8.9 -13.45 8.45 -13.6 7.2 -13.55 7.1 -11.3 -2.65 Q-11.05 -3.65 -10.1 -4.25 L-8.2 -4.45 -8.15 -4.45 -7.6 -4.25 Q-6.4 -5.3 -4.85 -5.3 L-4.05 -5.3 Q-5.1 -5.85 -5.95 -6.75 L-7.15 -8.25 -7.9 -9.9 -9.05 -9.9 Q-9.7 -9.9 -10.15 -10.35 -10.65 -10.85 -10.65 -11.5 L-10.65 -14.1 Q-10.65 -14.75 -10.15 -15.2 -9.7 -15.7 -9.05 -15.7 L-7.5 -15.7 M7.3 -9.9 L7.75 -9.9 7.9 -9.9 Q7.6 -8.75 8.2 -7.7 L9.95 -5.1 16.15 4.15 M7.05 -9.75 Q6.45 -8.1 5.1 -6.75 4.2 -5.85 3.2 -5.3 L4.15 -5.3 6.0 -4.85 6.05 -4.9 6.1 -4.95 6.7 -5.5 7.7 -5.85 Q8.65 -5.95 9.4 -5.5 L9.6 -5.35 9.95 -5.1 M0.3 -11.15 L0.8 -11.3 1.25 -11.15 1.3 -11.1 1.5 -10.55 1.3 -10.05 1.0 -9.9 0.8 -9.85 0.55 -9.9 Q0.35 -9.95 0.25 -10.05 L0.05 -10.55 0.25 -11.1 0.3 -11.15 M0.55 -12.0 L0.3 -11.95 -0.25 -11.6 -0.55 -11.15 -0.65 -10.55 -0.5 -9.9 -0.25 -9.55 Q0.2 -9.15 0.8 -9.15 1.4 -9.15 1.8 -9.55 L2.05 -9.9 2.25 -10.55 2.1 -11.15 M2.05 -9.9 L3.35 -9.9 M6.5 -1.35 L7.95 -0.25 M-0.55 -11.15 L-8.4 -11.15 -9.4 -11.4 Q-9.85 -11.7 -9.85 -12.1 L-9.85 -13.65 -9.4 -14.35 -8.4 -14.6 -2.55 -14.6 -2.15 -15.7 M-2.55 -14.6 L-2.55 -14.3 Q-2.6 -13.3 -1.9 -12.6 L-1.75 -12.45 Q-1.1 -11.9 -0.15 -11.9 L0.3 -11.95 M3.2 -5.3 Q1.6 -4.4 -0.4 -4.4 -2.4 -4.4 -4.05 -5.3 M-7.9 -9.9 L-0.5 -9.9 M-8.85 7.4 L-9.25 6.7 M-13.4 7.2 Q-13.2 6.3 -12.4 5.85 M-13.4 7.2 Q-13.65 7.85 -13.45 8.45 M-7.55 2.85 L-8.85 -1.3" fill="none" stroke="#8a8a8a" stroke-linecap="round" stroke-linejoin="round" stroke-width="0.5"/>
  </g>
  <defs>
    <linearGradient gradientTransform="matrix(0.0122, 0.0, 0.0, 0.0035, -0.65, -12.8)" gradientUnits="userSpaceOnUse" id="gradient0" spreadMethod="pad" x1="-819.2" x2="819.2">
      <stop offset="0.0" stop-color="#e1e1e1"/>
      <stop offset="1.0" stop-color="#979797"/>
    </linearGradient>
    <radialGradient cx="0" cy="0" gradientTransform="matrix(0.0037, 0.0064, -0.0083, 0.0048, -4.05, -16.3)" gradientUnits="userSpaceOnUse" id="gradient1" r="819.2" spreadMethod="pad">
      <stop offset="0.11372549019607843" stop-color="#ffffff"/>
      <stop offset="0.43529411764705883" stop-color="#000000"/>
    </radialGradient>
    <radialGradient cx="0" cy="0" gradientTransform="matrix(0.008, 0.0, 0.0, 0.008, -5.85, -12.7)" gradientUnits="userSpaceOnUse" id="gradient2" r="819.2" spreadMethod="pad">
      <stop offset="0.0" stop-color="#ffffce"/>
      <stop offset="1.0" stop-color="#ffff04"/>
    </radialGradient>
  </defs>
</svg>
