<?xml version="1.0" encoding="UTF-8" standalone="no"?>
<svg xmlns:xlink="http://www.w3.org/1999/xlink" height="9.1px" width="10.0px" xmlns="http://www.w3.org/2000/svg">
  <g transform="matrix(1.0, 0.0, 0.0, 1.0, 4.5, 2.4)">
    <path d="M0.8 -2.35 L1.55 -2.15 1.8 -2.1 3.0 -1.8 Q5.15 -0.95 5.5 1.45 5.1 1.05 4.5 1.0 2.85 0.9 3.35 2.85 3.0 2.2 2.3 2.2 2.85 4.8 1.85 6.7 L1.9 6.15 Q1.7 3.55 -0.35 2.05 -0.2 3.85 -0.7 5.05 -0.95 4.1 -1.6 3.2 -2.0 4.85 -2.0 6.7 L-2.45 5.75 Q-3.35 3.7 -2.6 1.7 -4.0 2.85 -4.5 4.05 L-4.45 2.7 Q-4.4 0.1 -2.25 -1.5 -0.75 -2.65 0.8 -2.35" fill="#000000" fill-rule="evenodd" stroke="none"/>
  </g>
</svg>
