<?xml version="1.0" encoding="UTF-8" standalone="no"?>
<svg xmlns:xlink="http://www.w3.org/1999/xlink" height="14.4px" width="7.65px" xmlns="http://www.w3.org/2000/svg">
  <g transform="matrix(1.0, 0.0, 0.0, 1.0, 4.5, 5.8)">
    <path d="M0.4 -1.05 L0.35 -1.95 Q0.3 -3.45 -0.35 -4.8 1.05 -3.1 1.9 -1.05 2.9 1.35 3.1 3.95 3.25 5.4 2.75 6.45 L2.7 5.2 Q2.65 4.2 2.1 3.95 L1.4 6.45 1.4 5.3 Q1.4 3.85 0.4 3.05 L0.2 4.9 Q-0.5 7.6 -1.4 8.6 -0.25 6.4 -1.3 4.8 -1.8 5.85 -2.6 6.05 -1.25 3.95 -1.3 1.45 -1.4 -1.3 -3.6 -2.55 -4.35 -3.2 -3.85 -3.4 -2.9 -3.0 -2.15 -2.95 -2.95 -4.7 -4.5 -5.8 -3.3 -5.5 -2.25 -4.85 -0.1 -3.55 0.4 -1.05" fill="#000000" fill-rule="evenodd" stroke="none"/>
  </g>
</svg>
