<?xml version="1.0" encoding="UTF-8" standalone="no"?>
<svg xmlns:xlink="http://www.w3.org/1999/xlink" height="8.9px" width="9.8px" xmlns="http://www.w3.org/2000/svg">
  <g transform="matrix(1.0, 0.0, 0.0, 1.0, 5.5, 4.65)">
    <path d="M1.5 -4.65 Q4.05 -1.6 1.5 1.6 4.05 1.5 4.0 -1.55 4.95 1.45 2.65 3.4 1.6 4.3 0.15 4.25 -2.8 4.15 -4.0 1.45 -3.2 2.35 -2.0 2.55 -4.85 0.35 -5.4 -3.3 L-5.5 -4.2 -3.6 -0.95 Q-3.8 -3.15 -2.1 -4.55 -1.95 -4.1 -2.1 -3.3 -2.9 -0.65 -0.65 -1.2 -0.05 -1.3 0.1 -2.05 0.35 -3.15 -0.35 -3.8 0.9 -3.25 1.1 -1.8 2.25 -2.75 1.5 -4.65" fill="#000000" fill-rule="evenodd" stroke="none"/>
  </g>
</svg>
