<?xml version="1.0" encoding="UTF-8" standalone="no"?>
<svg xmlns:xlink="http://www.w3.org/1999/xlink" height="12.15px" width="8.0px" xmlns="http://www.w3.org/2000/svg">
  <g transform="matrix(1.0, 0.0, 0.0, 1.0, 4.55, 4.2)">
    <path d="M1.55 -2.55 Q1.85 -2.9 2.25 -2.95 0.9 -0.1 2.25 2.45 L3.2 4.45 Q3.6 5.55 3.3 6.7 3.25 5.75 2.55 5.15 L1.75 4.2 Q1.6 4.85 1.6 5.55 1.6 7.15 2.0 7.95 1.1 7.5 1.1 6.45 1.1 5.05 0.4 4.2 L-0.2 5.2 Q-0.1 3.9 -1.1 2.95 L-1.15 3.9 -2.5 7.55 -2.65 6.55 Q-2.7 5.65 -3.2 5.1 -4.45 5.75 -4.55 6.65 -4.25 4.25 -2.8 2.25 -1.35 0.25 -1.75 -2.2 L-1.65 -3.2 Q-1.65 -3.8 -1.25 -4.2 -1.35 -3.0 -0.75 -2.05 -0.3 -1.3 -0.2 -0.6 L0.0 -2.05 Q0.25 -3.1 1.1 -3.45 0.9 -3.2 1.55 -2.55" fill="#000000" fill-rule="evenodd" stroke="none"/>
  </g>
</svg>
