<?xml version="1.0" encoding="UTF-8" standalone="no"?>
<svg xmlns:xlink="http://www.w3.org/1999/xlink" height="13.6px" width="8.6px" xmlns="http://www.w3.org/2000/svg">
  <g transform="matrix(1.0, 0.0, 0.0, 1.0, 3.6, 7.1)">
    <path d="M2.6 -6.5 L0.5 -6.55 0.35 -6.45 -0.5 -5.8 -0.8 -5.65 Q-0.95 -5.05 -1.4 -4.6 L-1.85 -3.95 -2.05 -3.55 -2.05 -3.4 -2.05 -3.2 -2.3 -2.65 -2.3 -2.45 -2.15 -2.3 -1.9 -2.25 -1.5 -2.85 -1.45 -3.0 -1.45 -3.2 -1.45 -3.4 Q-1.15 -3.7 -1.0 -4.15 L-0.95 -4.3 0.25 -5.25 Q1.35 -6.05 2.75 -6.15 L2.75 -6.3 2.6 -6.5 M2.75 6.5 L-2.75 5.5 Q-4.7 -0.65 -2.25 -5.0 0.45 -8.65 5.0 -6.0 -2.45 -2.9 2.75 6.5" fill="#999999" fill-rule="evenodd" stroke="none"/>
    <path d="M2.6 -6.5 L2.75 -6.3 2.75 -6.15 Q1.35 -6.05 0.25 -5.25 L-0.95 -4.3 -1.0 -4.15 Q-1.15 -3.7 -1.45 -3.4 L-1.45 -3.2 -1.45 -3.0 -1.5 -2.85 -1.9 -2.25 -2.15 -2.3 -2.3 -2.45 -2.3 -2.65 -2.05 -3.2 -2.05 -3.4 -2.05 -3.55 -1.85 -3.95 -1.4 -4.6 Q-0.95 -5.05 -0.8 -5.65 L-0.5 -5.8 0.35 -6.45 0.5 -6.55 2.6 -6.5" fill="#bfbfbf" fill-rule="evenodd" stroke="none"/>
  </g>
</svg>
