<?xml version="1.0" encoding="UTF-8" standalone="no"?>
<svg xmlns:xlink="http://www.w3.org/1999/xlink" height="21.0px" width="14.75px" xmlns="http://www.w3.org/2000/svg">
  <g transform="matrix(1.0, 0.0, 0.0, 1.0, 6.75, 10.0)">
    <path d="M5.05 -6.2 L5.05 -6.55 4.85 -6.75 4.75 -6.75 4.5 -6.7 4.2 -6.15 4.15 -5.95 Q4.15 -5.3 3.7 -4.8 L3.7 -4.65 3.7 -4.45 3.5 -4.05 Q3.0 -2.45 3.2 -0.7 L3.8 0.25 Q4.4 0.35 4.3 -0.2 L4.05 -0.55 4.05 -0.75 4.0 -0.95 3.8 -1.15 3.8 -1.5 3.8 -3.4 4.55 -4.7 4.6 -4.85 4.8 -5.65 5.05 -6.0 5.05 -6.2 M4.5 -3.5 Q3.0 1.05 8.0 0.0 7.45 3.7 2.25 4.75 -2.4 6.45 -0.5 11.0 L-6.0 7.25 Q-3.3 0.8 -6.75 -3.75 -0.15 -3.35 5.0 -10.0 6.7 -7.3 4.5 -3.5 M-5.0 -1.7 L-5.05 -1.55 -5.05 -1.4 -5.05 -1.2 -4.95 -1.0 -4.55 -0.65 -4.55 -0.45 -4.5 -0.05 -4.3 0.1 -4.3 0.7 -4.4 2.95 -4.55 3.1 -4.6 3.5 -4.7 5.75 -4.4 5.75 -4.2 5.55 -4.2 5.35 -4.2 5.2 -4.05 5.0 -3.95 4.8 -3.9 4.45 Q-3.55 2.05 -3.75 -0.45 L-3.95 -0.65 -3.95 -0.8 -4.0 -1.2 -4.25 -1.4 -4.65 -1.75 -4.75 -1.75 -4.95 -1.75 -5.0 -1.7 M4.75 3.35 L4.75 3.2 4.6 3.0 3.75 2.95 3.45 3.15 3.25 3.3 Q0.55 3.55 -1.05 5.3 L-1.4 5.55 -1.55 5.7 -1.55 5.85 -1.55 6.05 -2.0 6.8 -1.95 7.75 -1.55 7.6 -1.45 7.5 -1.45 7.3 -1.45 7.1 -1.0 6.35 -0.9 6.0 -0.45 5.7 Q2.0 4.25 4.75 3.35" fill="#b1b1b1" fill-rule="evenodd" stroke="none"/>
    <path d="M5.05 -6.2 L5.05 -6.0 4.8 -5.65 4.6 -4.85 4.55 -4.7 3.8 -3.4 3.8 -1.5 3.8 -1.15 4.0 -0.95 4.05 -0.75 4.05 -0.55 4.3 -0.2 Q4.4 0.35 3.8 0.25 L3.2 -0.7 Q3.0 -2.45 3.5 -4.05 L3.7 -4.45 3.7 -4.65 3.7 -4.8 Q4.15 -5.3 4.15 -5.95 L4.2 -6.15 4.5 -6.7 4.75 -6.75 4.85 -6.75 5.05 -6.55 5.05 -6.2 M4.75 3.35 Q2.0 4.25 -0.45 5.7 L-0.9 6.0 -1.0 6.35 -1.45 7.1 -1.45 7.3 -1.45 7.5 -1.55 7.6 -1.95 7.75 -2.0 6.8 -1.55 6.05 -1.55 5.85 -1.55 5.7 -1.4 5.55 -1.05 5.3 Q0.55 3.55 3.25 3.3 L3.45 3.15 3.75 2.95 4.6 3.0 4.75 3.2 4.75 3.35 M-5.0 -1.7 L-4.95 -1.75 -4.75 -1.75 -4.65 -1.75 -4.25 -1.4 -4.0 -1.2 -3.95 -0.8 -3.95 -0.65 -3.75 -0.45 Q-3.55 2.05 -3.9 4.45 L-3.95 4.8 -4.05 5.0 -4.2 5.2 -4.2 5.35 -4.2 5.55 -4.4 5.75 -4.7 5.75 -4.6 3.5 -4.55 3.1 -4.4 2.95 -4.3 0.7 -4.3 0.1 -4.5 -0.05 -4.55 -0.45 -4.55 -0.65 -4.95 -1.0 -5.05 -1.2 -5.05 -1.4 -5.05 -1.55 -5.0 -1.7" fill="#8a8a8a" fill-rule="evenodd" stroke="none"/>
  </g>
</svg>
