<?xml version="1.0" encoding="UTF-8" standalone="no"?>
<svg xmlns:xlink="http://www.w3.org/1999/xlink" height="9.25px" width="17.0px" xmlns="http://www.w3.org/2000/svg">
  <g transform="matrix(1.0, 0.0, 0.0, 1.0, 7.5, 4.25)">
    <path d="M1.5 -0.8 L1.35 -1.0 Q-2.15 -0.9 -4.9 -2.75 L-5.5 -2.8 -5.7 -2.75 -5.75 -2.5 -5.55 -2.35 -5.55 -2.05 -5.55 -1.9 -4.55 -0.4 -4.6 0.2 -4.45 3.0 -3.95 2.75 -3.95 2.2 -3.95 -0.8 -4.1 -1.0 -4.55 -1.7 Q-1.75 -0.15 1.5 -0.65 L1.5 -0.8 M4.5 3.5 Q-0.9 1.45 -5.25 5.0 -4.2 -0.5 -7.5 -4.25 0.5 1.15 9.5 -4.25 4.55 1.2 4.5 3.5" fill="#8a8a8a" fill-rule="evenodd" stroke="none"/>
    <path d="M1.5 -0.8 L1.5 -0.65 Q-1.75 -0.15 -4.55 -1.7 L-4.1 -1.0 -3.95 -0.8 -3.95 2.2 -3.95 2.75 -4.45 3.0 -4.6 0.2 -4.55 -0.4 -5.55 -1.9 -5.55 -2.05 -5.55 -2.35 -5.75 -2.5 -5.7 -2.75 -5.5 -2.8 -4.9 -2.75 Q-2.15 -0.9 1.35 -1.0 L1.5 -0.8" fill="#b1b1b1" fill-rule="evenodd" stroke="none"/>
  </g>
</svg>
