<?xml version="1.0" encoding="UTF-8" standalone="no"?>
<svg xmlns:xlink="http://www.w3.org/1999/xlink" height="15.2px" width="7.4px" xmlns="http://www.w3.org/2000/svg">
  <g transform="matrix(1.0, 0.0, 0.0, 1.0, 4.0, 8.0)">
    <path d="M1.5 -6.55 L1.35 -6.75 1.0 -6.7 Q0.35 -6.65 0.0 -6.2 L-1.2 -6.0 -1.55 -5.65 -1.55 -5.45 -1.55 -4.9 -1.55 -4.15 -1.3 -3.75 -1.5 -2.1 -1.55 -0.2 -1.7 0.0 -1.8 0.2 -1.8 0.95 -1.9 1.7 -2.05 1.85 -2.1 2.25 -1.95 3.0 -1.45 2.75 -1.45 2.55 -1.45 2.2 -1.3 2.0 -1.2 1.8 -1.1 0.1 Q-0.9 -0.6 -0.95 -1.4 L-0.7 -1.75 -0.65 -2.9 -0.75 -4.4 -0.95 -4.55 -0.95 -4.75 -0.95 -5.3 Q0.65 -5.4 1.55 -6.4 L1.5 -6.55 M3.0 5.5 Q3.05 8.1 -4.0 6.75 -1.8 -0.3 -2.25 -6.5 L2.5 -8.0 Q4.05 -2.1 3.0 5.5" fill="#b1b1b1" fill-rule="evenodd" stroke="none"/>
    <path d="M1.5 -6.55 L1.55 -6.4 Q0.65 -5.4 -0.95 -5.3 L-0.95 -4.75 -0.95 -4.55 -0.75 -4.4 -0.65 -2.9 -0.7 -1.75 -0.95 -1.4 Q-0.9 -0.6 -1.1 0.1 L-1.2 1.8 -1.3 2.0 -1.45 2.2 -1.45 2.55 -1.45 2.75 -1.95 3.0 -2.1 2.25 -2.05 1.85 -1.9 1.7 -1.8 0.95 -1.8 0.2 -1.7 0.0 -1.55 -0.2 -1.5 -2.1 -1.3 -3.75 -1.55 -4.15 -1.55 -4.9 -1.55 -5.45 -1.55 -5.65 -1.2 -6.0 0.0 -6.2 Q0.35 -6.65 1.0 -6.7 L1.35 -6.75 1.5 -6.55" fill="#979797" fill-rule="evenodd" stroke="none"/>
  </g>
</svg>
