<?xml version="1.0" encoding="UTF-8" standalone="no"?>
<svg xmlns:xlink="http://www.w3.org/1999/xlink" height="13.85px" width="16.75px" xmlns="http://www.w3.org/2000/svg">
  <g transform="matrix(1.0, 0.0, 0.0, 1.0, 7.8, 6.85)">
    <path d="M1.1 -6.25 L0.0 -6.3 -3.2 -5.25 Q-6.7 -3.85 -6.55 -0.2 L-6.7 0.0 -6.8 0.2 -6.8 0.95 -6.8 1.7 -6.8 2.6 -6.65 2.8 -6.45 3.0 -6.05 2.85 -5.95 2.75 -6.05 2.55 -6.2 2.35 -6.2 1.8 -6.2 1.25 -6.15 0.5 -5.95 0.3 -5.95 -0.05 -5.95 -0.8 -5.95 -1.4 -5.8 -1.6 -5.7 -1.75 -5.7 -1.95 -5.7 -2.15 -5.15 -2.75 Q-2.5 -5.3 1.25 -5.9 L1.25 -6.05 1.1 -6.25 M7.0 7.0 Q-0.2 -0.55 -5.75 4.5 -10.0 0.75 -5.5 -4.5 0.75 -9.2 7.0 -4.5 10.9 0.75 7.0 7.0" fill="#979797" fill-rule="evenodd" stroke="none"/>
    <path d="M1.1 -6.25 L1.25 -6.05 1.25 -5.9 Q-2.5 -5.3 -5.15 -2.75 L-5.7 -2.15 -5.7 -1.95 -5.7 -1.75 -5.8 -1.6 -5.95 -1.4 -5.95 -0.8 -5.95 -0.05 -5.95 0.3 -6.15 0.5 -6.2 1.25 -6.2 1.8 -6.2 2.35 -6.05 2.55 -5.95 2.75 -6.05 2.85 -6.45 3.0 -6.65 2.8 -6.8 2.6 -6.8 1.7 -6.8 0.95 -6.8 0.2 -6.7 0.0 -6.55 -0.2 Q-6.7 -3.85 -3.2 -5.25 L0.0 -6.3 1.1 -6.25" fill="#bababa" fill-rule="evenodd" stroke="none"/>
  </g>
</svg>
