<?xml version="1.0" encoding="UTF-8" standalone="no"?>
<svg xmlns:xlink="http://www.w3.org/1999/xlink" height="24.5px" width="13.5px" xmlns="http://www.w3.org/2000/svg">
  <g transform="matrix(1.0, 0.0, 0.0, 1.0, 7.0, 12.5)">
    <path d="M3.5 9.1 L3.5 10.0 1.6 10.0 1.0 10.0 1.0 8.75 -2.25 8.75 -2.25 10.0 -4.25 10.0 -4.25 8.9 -4.25 -1.35 -4.25 -5.75 -2.75 -8.0 -2.75 7.75 2.0 7.75 2.0 -8.25 3.5 -6.0 3.5 -1.55 3.5 9.1" fill="url(#gradient0)" fill-rule="evenodd" stroke="none"/>
    <path d="M-4.25 8.9 L-4.85 8.35 Q-6.75 6.45 -6.75 3.75 -6.75 1.05 -4.85 -0.85 L-4.25 -1.35 -4.25 8.9" fill="url(#gradient1)" fill-rule="evenodd" stroke="none"/>
    <path d="M-2.75 -8.0 L-2.75 -12.25 2.0 -12.25 2.0 -8.25 2.0 7.75 -2.75 7.75 -2.75 -8.0" fill="url(#gradient2)" fill-rule="evenodd" stroke="none"/>
    <path d="M3.5 -1.55 L4.35 -0.85 Q6.25 1.05 6.25 3.75 6.25 6.45 4.35 8.35 L3.5 9.1 3.5 -1.55" fill="url(#gradient3)" fill-rule="evenodd" stroke="none"/>
    <path d="M1.0 10.15 L1.0 11.75 -2.25 11.75 -2.25 10.0 -2.25 8.75 1.0 8.75 1.0 10.0 1.0 10.15" fill="url(#gradient4)" fill-rule="evenodd" stroke="none"/>
    <path d="M3.5 -1.55 L4.35 -0.85 Q6.25 1.05 6.25 3.75 6.25 6.45 4.35 8.35 L3.5 9.1 3.5 10.0 1.6 10.0 1.0 10.15 1.0 11.75 -2.25 11.75 -2.25 10.0 -4.25 10.0 -4.25 8.9 -4.85 8.35 Q-6.75 6.45 -6.75 3.75 -6.75 1.05 -4.85 -0.85 L-4.25 -1.35 -4.25 -5.75 -2.75 -8.0 -2.75 -12.25 2.0 -12.25 2.0 -8.25 3.5 -6.0 3.5 -1.55 3.5 9.1 M1.0 10.0 L1.0 8.75 -2.25 8.75 -2.25 10.0 M1.6 10.0 L1.0 10.0 1.0 10.15 M-2.75 -8.0 L-2.75 7.75 2.0 7.75 2.0 -8.25 M-4.25 8.9 L-4.25 -1.35" fill="none" stroke="#000000" stroke-linecap="round" stroke-linejoin="round" stroke-width="0.5"/>
    <path d="M-3.3 4.15 L-4.05 3.4 -4.05 2.9 4.95 2.9 5.5 4.15 -3.3 4.15" fill="url(#gradient5)" fill-rule="evenodd" stroke="none"/>
    <path d="M5.55 6.65 L4.95 8.15 -4.05 8.15 -4.05 7.7 -3.0 6.65 5.55 6.65" fill="url(#gradient6)" fill-rule="evenodd" stroke="none"/>
    <path d="M-3.0 6.65 Q-2.3 5.4 -3.3 4.15 L5.5 4.15 Q5.85 5.4 5.55 6.65 L-3.0 6.65" fill="#b7b7b7" fill-rule="evenodd" stroke="none"/>
    <path d="M5.55 6.65 L4.95 8.15 -4.05 8.15 -4.05 7.7 M-4.05 3.4 L-4.05 2.9 4.95 2.9 5.5 4.15 Q5.85 5.4 5.55 6.65 L-3.0 6.65 M-3.3 4.15 L5.5 4.15" fill="none" stroke="#000000" stroke-linecap="round" stroke-linejoin="round" stroke-width="0.5"/>
  </g>
  <defs>
    <linearGradient gradientTransform="matrix(0.0047, 0.0, 0.0, 0.0111, -0.4, 0.85)" gradientUnits="userSpaceOnUse" id="gradient0" spreadMethod="pad" x1="-819.2" x2="819.2">
      <stop offset="0.0" stop-color="#3c464f"/>
      <stop offset="1.0" stop-color="#000000"/>
    </linearGradient>
    <linearGradient gradientTransform="matrix(0.0015, 0.0, 0.0, 0.0063, -5.5, 3.75)" gradientUnits="userSpaceOnUse" id="gradient1" spreadMethod="pad" x1="-819.2" x2="819.2">
      <stop offset="0.0" stop-color="#3c464f"/>
      <stop offset="1.0" stop-color="#000000"/>
    </linearGradient>
    <linearGradient gradientTransform="matrix(0.0029, 0.0, 0.0, 0.0122, -0.4, -2.25)" gradientUnits="userSpaceOnUse" id="gradient2" spreadMethod="pad" x1="-819.2" x2="819.2">
      <stop offset="0.0" stop-color="#3c464f"/>
      <stop offset="1.0" stop-color="#000000"/>
    </linearGradient>
    <linearGradient gradientTransform="matrix(0.0017, 0.0, 0.0, 0.0065, 4.85, 3.75)" gradientUnits="userSpaceOnUse" id="gradient3" spreadMethod="pad" x1="-819.2" x2="819.2">
      <stop offset="0.0" stop-color="#3c464f"/>
      <stop offset="1.0" stop-color="#000000"/>
    </linearGradient>
    <linearGradient gradientTransform="matrix(0.002, 0.0, 0.0, 0.0018, -0.65, 10.25)" gradientUnits="userSpaceOnUse" id="gradient4" spreadMethod="pad" x1="-819.2" x2="819.2">
      <stop offset="0.0" stop-color="#3c464f"/>
      <stop offset="1.0" stop-color="#000000"/>
    </linearGradient>
    <linearGradient gradientTransform="matrix(0.0058, 0.0, 0.0, 8.0E-4, 0.7, 3.5)" gradientUnits="userSpaceOnUse" id="gradient5" spreadMethod="pad" x1="-819.2" x2="819.2">
      <stop offset="0.0" stop-color="#5f717a"/>
      <stop offset="1.0" stop-color="#000000"/>
    </linearGradient>
    <linearGradient gradientTransform="matrix(0.0059, 0.0, 0.0, 9.0E-4, 0.75, 7.4)" gradientUnits="userSpaceOnUse" id="gradient6" spreadMethod="pad" x1="-819.2" x2="819.2">
      <stop offset="0.0" stop-color="#5f717a"/>
      <stop offset="1.0" stop-color="#000000"/>
    </linearGradient>
  </defs>
</svg>
