<?xml version="1.0" encoding="UTF-8" standalone="no"?>
<svg xmlns:xlink="http://www.w3.org/1999/xlink" height="25.45px" width="11.5px" xmlns="http://www.w3.org/2000/svg">
  <g transform="matrix(1.0, 0.0, 0.0, 1.0, 5.75, 12.7)">
    <path d="M5.4 -6.25 L5.2 -6.3 Q4.75 -6.3 4.5 -5.95 4.2 -5.6 4.2 -5.1 4.2 -4.6 4.5 -4.25 4.75 -3.9 5.2 -3.9 L5.4 -3.9 5.4 -1.25 5.15 -1.3 Q4.7 -1.3 4.45 -0.95 4.15 -0.6 4.15 -0.1 4.15 0.4 4.45 0.75 4.7 1.1 5.15 1.1 L5.4 1.05 5.4 4.05 5.1 3.95 Q4.65 3.95 4.4 4.3 4.1 4.65 4.1 5.15 4.1 5.65 4.4 6.0 4.65 6.35 5.1 6.35 L5.4 6.3 5.4 9.0 5.2 8.95 Q4.75 8.95 4.5 9.3 4.2 9.65 4.2 10.15 4.2 10.65 4.5 11.0 4.75 11.35 5.2 11.35 L5.4 11.35 5.4 12.4 -5.4 12.4 -5.4 11.35 -4.9 11.0 Q-4.6 10.65 -4.6 10.15 -4.6 9.65 -4.9 9.3 -5.1 9.05 -5.4 9.0 L-5.4 6.3 -5.0 6.0 Q-4.7 5.65 -4.7 5.15 -4.7 4.65 -5.0 4.3 L-5.4 4.0 -5.4 1.1 -4.95 0.75 Q-4.65 0.4 -4.65 -0.1 -4.65 -0.6 -4.95 -0.95 L-5.4 -1.25 -5.4 -3.9 -4.9 -4.25 Q-4.6 -4.6 -4.6 -5.1 -4.6 -5.6 -4.9 -5.95 -5.1 -6.2 -5.4 -6.25 L-5.4 -8.95 -5.0 -9.25 Q-4.7 -9.6 -4.7 -10.1 -4.7 -10.6 -5.0 -10.95 L-5.4 -11.25 -5.4 -12.35 5.4 -12.35 5.4 -11.2 5.1 -11.3 Q4.65 -11.3 4.4 -10.95 4.1 -10.6 4.1 -10.1 4.1 -9.6 4.4 -9.25 4.65 -8.9 5.1 -8.9 L5.4 -8.95 5.4 -6.25 M1.05 -0.1 L0.75 -0.95 0.05 -1.3 -0.65 -0.95 Q-0.95 -0.6 -0.9 -0.1 -0.95 0.4 -0.65 0.75 -0.35 1.1 0.05 1.1 0.45 1.1 0.75 0.75 L1.05 -0.1 M1.1 -5.1 L0.8 -5.95 Q0.5 -6.3 0.1 -6.3 -0.3 -6.3 -0.6 -5.95 L-0.85 -5.1 Q-0.9 -4.6 -0.6 -4.25 -0.3 -3.9 0.1 -3.9 0.5 -3.9 0.8 -4.25 L1.1 -5.1 M0.7 -9.25 L1.0 -10.1 0.7 -10.95 Q0.4 -11.3 0.0 -11.3 -0.4 -11.3 -0.7 -10.95 L-0.95 -10.1 Q-1.0 -9.6 -0.7 -9.25 -0.4 -8.9 0.0 -8.9 0.4 -8.9 0.7 -9.25 M0.85 5.8 L1.0 5.15 0.7 4.3 Q0.4 3.95 0.0 3.95 -0.4 3.95 -0.7 4.3 -1.0 4.65 -0.95 5.15 L-0.75 5.9 -1.45 6.4 Q-2.15 7.05 -2.15 8.05 -2.15 9.0 -1.45 9.7 L-0.85 10.1 -0.85 10.15 -0.6 11.0 Q-0.3 11.35 0.1 11.35 0.5 11.35 0.8 11.0 L1.1 10.2 1.8 9.7 Q2.5 9.0 2.5 8.05 2.5 7.05 1.8 6.4 L0.85 5.8" fill="#304b18" fill-rule="evenodd" stroke="none"/>
    <path d="M5.4 -3.9 L5.2 -3.9 Q4.75 -3.9 4.5 -4.25 4.2 -4.6 4.2 -5.1 4.2 -5.6 4.5 -5.95 4.75 -6.3 5.2 -6.3 L5.4 -6.25 5.4 -3.9 M5.4 -8.95 L5.1 -8.9 Q4.65 -8.9 4.4 -9.25 4.1 -9.6 4.1 -10.1 4.1 -10.6 4.4 -10.95 4.65 -11.3 5.1 -11.3 L5.4 -11.2 5.4 -8.95 M-5.4 -11.25 L-5.0 -10.95 Q-4.7 -10.6 -4.7 -10.1 -4.7 -9.6 -5.0 -9.25 L-5.4 -8.95 -5.4 -11.25 M-5.4 -6.25 Q-5.1 -6.2 -4.9 -5.95 -4.6 -5.6 -4.6 -5.1 -4.6 -4.6 -4.9 -4.25 L-5.4 -3.9 -5.4 -6.25 M-5.4 -1.25 L-4.95 -0.95 Q-4.65 -0.6 -4.65 -0.1 -4.65 0.4 -4.95 0.75 L-5.4 1.1 -5.4 -1.25 M-5.4 4.0 L-5.0 4.3 Q-4.7 4.65 -4.7 5.15 -4.7 5.65 -5.0 6.0 L-5.4 6.3 -5.4 4.0 M-5.4 9.0 Q-5.1 9.05 -4.9 9.3 -4.6 9.65 -4.6 10.15 -4.6 10.65 -4.9 11.0 L-5.4 11.35 -5.4 9.0 M5.4 11.35 L5.2 11.35 Q4.75 11.35 4.5 11.0 4.2 10.65 4.2 10.15 4.2 9.65 4.5 9.3 4.75 8.95 5.2 8.95 L5.4 9.0 5.4 11.35 M5.4 6.3 L5.1 6.35 Q4.65 6.35 4.4 6.0 4.1 5.65 4.1 5.15 4.1 4.65 4.4 4.3 4.65 3.95 5.1 3.95 L5.4 4.05 5.4 6.3 M5.4 1.05 L5.15 1.1 Q4.7 1.1 4.45 0.75 4.15 0.4 4.15 -0.1 4.15 -0.6 4.45 -0.95 4.7 -1.3 5.15 -1.3 L5.4 -1.25 5.4 1.05 M0.7 -9.25 Q0.4 -8.9 0.0 -8.9 -0.4 -8.9 -0.7 -9.25 -1.0 -9.6 -0.95 -10.1 L-0.7 -10.95 Q-0.4 -11.3 0.0 -11.3 0.4 -11.3 0.7 -10.95 L1.0 -10.1 0.7 -9.25 M1.1 -5.1 L0.8 -4.25 Q0.5 -3.9 0.1 -3.9 -0.3 -3.9 -0.6 -4.25 -0.9 -4.6 -0.85 -5.1 L-0.6 -5.95 Q-0.3 -6.3 0.1 -6.3 0.5 -6.3 0.8 -5.95 L1.1 -5.1 M1.05 -0.1 L0.75 0.75 Q0.45 1.1 0.05 1.1 -0.35 1.1 -0.65 0.75 -0.95 0.4 -0.9 -0.1 -0.95 -0.6 -0.65 -0.95 L0.05 -1.3 0.75 -0.95 1.05 -0.1 M0.85 5.8 L0.2 5.7 -0.75 5.9 -0.95 5.15 Q-1.0 4.65 -0.7 4.3 -0.4 3.95 0.0 3.95 0.4 3.95 0.7 4.3 L1.0 5.15 0.85 5.8 M-0.85 10.1 L0.2 10.35 1.1 10.2 0.8 11.0 Q0.5 11.35 0.1 11.35 -0.3 11.35 -0.6 11.0 L-0.85 10.15 -0.85 10.1" fill="#456822" fill-rule="evenodd" stroke="none"/>
    <path d="M-0.75 5.9 L0.2 5.7 0.85 5.8 1.8 6.4 Q2.5 7.05 2.5 8.05 2.5 9.0 1.8 9.7 L1.1 10.2 0.2 10.35 -0.85 10.1 -1.45 9.7 Q-2.15 9.0 -2.15 8.05 -2.15 7.05 -1.45 6.4 L-0.75 5.9" fill="#000000" fill-rule="evenodd" stroke="none"/>
    <path d="M5.4 -6.25 L5.4 -8.95 5.4 -11.2 5.4 -12.35 -5.4 -12.35 -5.4 -11.25 -5.4 -8.95 -5.4 -6.25 -5.4 -3.9 -5.4 -1.25 -5.4 1.1 -5.4 4.0 -5.4 6.3 -5.4 9.0 -5.4 11.35 -5.4 12.4 5.4 12.4 5.4 11.35 5.4 9.0 5.4 6.3 5.4 4.05 5.4 1.05 5.4 -1.25 5.4 -3.9 5.4 -6.25" fill="none" stroke="#000000" stroke-linecap="round" stroke-linejoin="round" stroke-width="0.75"/>
    <path d="M-0.75 5.9 L0.2 5.7 0.85 5.8 1.8 6.4 Q2.5 7.05 2.5 8.05 2.5 9.0 1.8 9.7 L1.1 10.2 0.2 10.35 -0.85 10.1 -1.45 9.7 Q-2.15 9.0 -2.15 8.05 -2.15 7.05 -1.45 6.4 L-0.75 5.9 Z" fill="none" stroke="#333333" stroke-linecap="round" stroke-linejoin="round" stroke-width="1.25"/>
  </g>
</svg>
