<?xml version="1.0" encoding="UTF-8" standalone="no"?>
<svg xmlns:xlink="http://www.w3.org/1999/xlink" height="12.3px" width="12.4px" xmlns="http://www.w3.org/2000/svg">
  <g transform="matrix(1.0, 0.0, 0.0, 1.0, 6.2, 6.15)">
    <path d="M2.35 -2.2 L2.25 -2.2 2.45 -3.95 2.0 -5.05 Q1.55 -5.5 0.9 -5.5 -0.35 -5.5 -0.8 -4.4 L-1.2 -2.2 -1.9 -2.2 -1.4 -4.8 Q-0.85 -6.15 0.7 -6.15 1.5 -6.15 2.05 -5.6 2.6 -5.05 2.6 -4.25 L2.35 -2.2 M-3.4 -2.05 L-3.5 -2.05 Q-4.7 -1.7 -4.7 -0.35 -4.7 0.85 -3.6 1.15 L-1.55 1.25 -1.7 2.95 -1.25 4.1 Q-0.85 4.55 -0.15 4.55 1.1 4.55 1.55 3.4 L1.9 1.25 4.25 1.1 Q5.4 0.7 5.4 -0.75 5.4 -1.7 4.5 -2.05 L4.8 -2.0 Q6.2 -1.65 6.2 -0.35 6.2 1.45 4.75 1.9 L1.95 2.1 1.5 4.75 Q0.95 6.15 -0.55 6.15 -1.45 6.15 -1.95 5.55 -2.5 5.0 -2.5 4.15 L-2.3 2.1 -4.8 1.95 Q-6.2 1.6 -6.2 0.15 -6.2 -1.5 -4.7 -1.95 L-3.4 -2.05" fill="#000000" fill-rule="evenodd" stroke="none"/>
    <path d="M-1.9 -2.2 L-1.2 -2.2 -0.8 -4.4 Q-0.35 -5.5 0.9 -5.5 1.55 -5.5 2.0 -5.05 L2.45 -3.95 2.25 -2.2 2.35 -2.2 4.3 -2.1 4.5 -2.05 Q5.4 -1.7 5.4 -0.75 5.4 0.7 4.25 1.1 L1.9 1.25 1.55 3.4 Q1.1 4.55 -0.15 4.55 -0.85 4.55 -1.25 4.1 L-1.7 2.95 -1.55 1.25 -3.6 1.15 Q-4.7 0.85 -4.7 -0.35 -4.7 -1.7 -3.5 -2.05 L-3.4 -2.05 -1.9 -2.2" fill="#ffffff" fill-rule="evenodd" stroke="none"/>
  </g>
</svg>
