<?xml version="1.0" encoding="UTF-8" standalone="no"?>
<svg xmlns:xlink="http://www.w3.org/1999/xlink" height="15.4px" width="12.5px" xmlns="http://www.w3.org/2000/svg">
  <g transform="matrix(1.0, 0.0, 0.0, 1.0, 6.0, 15.45)">
    <path d="M2.75 -0.05 L2.75 -13.75 1.25 -13.75 1.25 -0.05 -1.0 -0.05 -1.0 -13.75 -2.5 -13.75 -2.5 -0.05 -6.0 -0.05 -6.0 -3.35 -3.5 -3.35 -3.5 -5.55 -6.0 -5.55 -6.0 -9.75 -3.5 -9.75 -3.5 -11.95 -6.0 -11.95 -6.0 -15.45 6.5 -15.45 6.5 -11.95 4.0 -11.95 4.0 -9.75 6.5 -9.75 6.5 -5.55 4.0 -5.55 4.0 -3.35 6.5 -3.35 6.5 -0.05 2.75 -0.05" fill="#2f322e" fill-rule="evenodd" stroke="none"/>
    <path d="M1.25 -0.05 L1.25 -13.75 2.75 -13.75 2.75 -0.05 1.25 -0.05 M-2.5 -0.05 L-2.5 -13.75 -1.0 -13.75 -1.0 -0.05 -2.5 -0.05" fill="#60665e" fill-rule="evenodd" stroke="none"/>
  </g>
</svg>
