<?xml version="1.0" encoding="UTF-8" standalone="no"?>
<svg xmlns:xlink="http://www.w3.org/1999/xlink" height="46.35px" width="17.7px" xmlns="http://www.w3.org/2000/svg">
  <g transform="matrix(1.0, 0.0, 0.0, 1.0, 16.9, 54.5)">
    <path d="M-8.35 -54.35 L-8.0 -54.5 -7.65 -54.35 -7.5 -54.0 -7.5 -16.25 -7.65 -15.9 Q-7.8 -15.75 -8.0 -15.75 L-8.35 -15.9 -8.5 -16.25 -8.5 -54.0 -8.35 -54.35" fill="url(#gradient0)" fill-rule="evenodd" stroke="none"/>
    <path d="M-7.35 -16.05 L-7.5 -16.25 -7.85 -16.3 -8.0 -16.1 Q-8.25 -15.75 -7.8 -15.5 L-7.5 -15.5 -7.35 -15.7 -7.3 -15.9 -7.35 -16.05 M-9.7 -16.35 L-9.7 -16.4 Q-9.2 -16.8 -8.45 -16.8 -7.55 -16.8 -6.9 -16.15 -6.3 -15.55 -6.3 -14.65 -6.3 -13.75 -6.9 -13.1 L-7.4 -12.7 -7.55 -12.7 -7.6 -12.7 -7.6 -12.75 -7.6 -12.85 -7.6 -13.2 -7.55 -13.2 -7.55 -14.0 -9.3 -15.9 -9.75 -16.3 -9.7 -16.35" fill="#ff0000" fill-rule="evenodd" stroke="none"/>
    <path d="M-7.35 -16.05 L-7.3 -15.9 -7.35 -15.7 -7.5 -15.5 -7.8 -15.5 Q-8.25 -15.75 -8.0 -16.1 L-7.85 -16.3 -7.5 -16.25 -7.35 -16.05" fill="#ffffff" fill-rule="evenodd" stroke="none"/>
    <path d="M-1.8 -22.0 Q0.8 -19.6 0.8 -16.25 0.8 -12.85 -1.8 -10.55 L-2.5 -9.95 Q-3.45 -9.2 -4.55 -8.75 L-6.4 -8.25 -8.05 -8.15 Q-11.7 -8.15 -14.35 -10.55 L-15.25 -11.5 -15.35 -11.6 -15.55 -11.9 -16.3 -13.2 Q-16.9 -14.6 -16.9 -16.25 -16.9 -19.6 -14.35 -22.0 -11.7 -24.35 -8.05 -24.35 -4.35 -24.35 -1.8 -22.0" fill="url(#gradient1)" fill-rule="evenodd" stroke="none"/>
  </g>
  <defs>
    <radialGradient cx="0" cy="0" gradientTransform="matrix(0.0084, 0.0, 0.0, 0.0233, -7.75, -54.6)" gradientUnits="userSpaceOnUse" id="gradient0" r="819.2" spreadMethod="pad">
      <stop offset="0.0" stop-color="#f90000" stop-opacity="0.0"/>
      <stop offset="1.0" stop-color="#fe1010"/>
    </radialGradient>
    <radialGradient cx="0" cy="0" gradientTransform="matrix(0.0114, 0.0, 0.0, 0.0114, -8.05, -16.25)" gradientUnits="userSpaceOnUse" id="gradient1" r="819.2" spreadMethod="pad">
      <stop offset="0.0" stop-color="#ff0b0b" stop-opacity="0.7137255"/>
      <stop offset="1.0" stop-color="#ff0b0b" stop-opacity="0.0"/>
    </radialGradient>
  </defs>
</svg>
