<?xml version="1.0" encoding="UTF-8" standalone="no"?>
<svg xmlns:xlink="http://www.w3.org/1999/xlink" height="10.75px" width="3.75px" xmlns="http://www.w3.org/2000/svg">
  <g transform="matrix(1.0, 0.0, 0.0, 1.0, 1.9, 9.0)">
    <path d="M1.35 1.25 L-1.4 1.25 -1.4 -1.25 1.35 -1.25 1.35 1.25" fill="url(#gradient0)" fill-rule="evenodd" stroke="none"/>
    <path d="M-1.35 -1.75 L-1.35 -9.0 1.4 -9.0 1.4 -1.75 -1.35 -1.75" fill="url(#gradient1)" fill-rule="evenodd" stroke="none"/>
    <path d="M1.4 -1.75 L1.6 -1.75 1.8 -1.65 1.85 -1.5 1.85 1.5 1.8 1.7 1.6 1.75 -1.65 1.75 -1.8 1.7 -1.9 1.5 -1.9 -1.5 -1.8 -1.65 -1.65 -1.75 -1.35 -1.75 1.4 -1.75 M1.35 1.25 L1.35 -1.25 -1.4 -1.25 -1.4 1.25 1.35 1.25" fill="#000000" fill-rule="evenodd" stroke="none"/>
  </g>
  <defs>
    <linearGradient gradientTransform="matrix(0.002, 0.0, 0.0, 0.0018, -0.05, 0.0)" gradientUnits="userSpaceOnUse" id="gradient0" spreadMethod="pad" x1="-819.2" x2="819.2">
      <stop offset="0.0" stop-color="#3c464f"/>
      <stop offset="1.0" stop-color="#000000"/>
    </linearGradient>
    <linearGradient gradientTransform="matrix(0.0017, 0.0, 0.0, 0.0044, 0.0, -5.4)" gradientUnits="userSpaceOnUse" id="gradient1" spreadMethod="pad" x1="-819.2" x2="819.2">
      <stop offset="0.0" stop-color="#bb9113"/>
      <stop offset="1.0" stop-color="#eedb91"/>
    </linearGradient>
  </defs>
</svg>
