<?xml version="1.0" encoding="UTF-8" standalone="no"?>
<svg xmlns:xlink="http://www.w3.org/1999/xlink" height="11.15px" width="13.5px" xmlns="http://www.w3.org/2000/svg">
  <g transform="matrix(1.0, 0.0, 0.0, 1.0, 7.0, 6.05)">
    <path d="M3.5 -5.8 L4.35 -5.1 Q6.25 -3.2 6.25 -0.5 6.25 2.2 4.35 4.1 L3.5 4.85 3.5 -5.8" fill="url(#gradient0)" fill-rule="evenodd" stroke="none"/>
    <path d="M-4.25 4.65 L-4.85 4.1 Q-6.75 2.2 -6.75 -0.5 -6.75 -3.2 -4.85 -5.1 L-4.25 -5.6 -4.25 4.65" fill="url(#gradient1)" fill-rule="evenodd" stroke="none"/>
    <path d="M3.5 -5.8 L4.35 -5.1 Q6.25 -3.2 6.25 -0.5 6.25 2.2 4.35 4.1 L3.5 4.85 M-4.25 4.65 L-4.85 4.1 Q-6.75 2.2 -6.75 -0.5 -6.75 -3.2 -4.85 -5.1 L-4.25 -5.6" fill="none" stroke="#000000" stroke-linecap="round" stroke-linejoin="round" stroke-width="0.5"/>
  </g>
  <defs>
    <linearGradient gradientTransform="matrix(0.0017, 0.0, 0.0, 0.0065, 4.85, -0.5)" gradientUnits="userSpaceOnUse" id="gradient0" spreadMethod="pad" x1="-819.2" x2="819.2">
      <stop offset="0.0" stop-color="#3c464f"/>
      <stop offset="1.0" stop-color="#000000"/>
    </linearGradient>
    <linearGradient gradientTransform="matrix(0.0015, 0.0, 0.0, 0.0063, -5.5, -0.5)" gradientUnits="userSpaceOnUse" id="gradient1" spreadMethod="pad" x1="-819.2" x2="819.2">
      <stop offset="0.0" stop-color="#3c464f"/>
      <stop offset="1.0" stop-color="#000000"/>
    </linearGradient>
  </defs>
</svg>
