<?xml version="1.0" encoding="UTF-8" standalone="no"?>
<svg xmlns:xlink="http://www.w3.org/1999/xlink" height="22.75px" width="8.25px" xmlns="http://www.w3.org/2000/svg">
  <g transform="matrix(1.0, 0.0, 0.0, 1.0, 4.15, 11.4)">
    <path d="M-2.4 -6.9 L-2.4 -11.15 2.35 -11.15 2.35 -7.15 2.35 8.85 -2.4 8.85 -2.4 -6.9" fill="url(#gradient0)" fill-rule="evenodd" stroke="none"/>
    <path d="M2.35 -7.15 L3.85 -4.9 3.85 11.1 1.35 11.1 1.35 9.85 -1.9 9.85 -1.9 11.1 -3.9 11.1 -3.9 -4.65 -2.4 -6.9 -2.4 8.85 2.35 8.85 2.35 -7.15" fill="url(#gradient1)" fill-rule="evenodd" stroke="none"/>
    <path d="M2.35 -7.15 L3.85 -4.9 3.85 11.1 1.35 11.1 M-1.9 11.1 L-3.9 11.1 -3.9 -4.65 -2.4 -6.9 -2.4 -11.15 2.35 -11.15 2.35 -7.15 2.35 8.85 -2.4 8.85 -2.4 -6.9" fill="none" stroke="#000000" stroke-linecap="round" stroke-linejoin="round" stroke-width="0.5"/>
  </g>
  <defs>
    <linearGradient gradientTransform="matrix(0.0029, 0.0, 0.0, 0.0122, -0.05, -1.15)" gradientUnits="userSpaceOnUse" id="gradient0" spreadMethod="pad" x1="-819.2" x2="819.2">
      <stop offset="0.0" stop-color="#3c464f"/>
      <stop offset="1.0" stop-color="#000000"/>
    </linearGradient>
    <linearGradient gradientTransform="matrix(0.0047, 0.0, 0.0, 0.0111, -0.05, 1.95)" gradientUnits="userSpaceOnUse" id="gradient1" spreadMethod="pad" x1="-819.2" x2="819.2">
      <stop offset="0.0" stop-color="#3c464f"/>
      <stop offset="1.0" stop-color="#000000"/>
    </linearGradient>
  </defs>
</svg>
