<?xml version="1.0" encoding="UTF-8" standalone="no"?>
<svg xmlns:xlink="http://www.w3.org/1999/xlink" height="9.3px" width="9.3px" xmlns="http://www.w3.org/2000/svg">
  <g transform="matrix(1.0, 0.0, 0.0, 1.0, 4.65, 4.55)">
    <path d="M0.35 -1.0 L0.85 -0.7 1.2 0.15 0.85 0.95 0.5 1.2 0.05 1.3 -0.5 1.15 -0.8 0.95 -1.15 0.15 -0.8 -0.7 -0.45 -0.95 0.05 -1.05 0.35 -1.0" fill="#000000" fill-rule="evenodd" stroke="none"/>
    <path d="M3.25 -3.15 Q4.65 -1.8 4.65 0.1 4.65 2.05 3.25 3.4 2.6 4.05 1.8 4.4 L0.0 4.75 Q-1.15 4.75 -2.1 4.25 L-3.3 3.4 Q-4.65 2.05 -4.65 0.1 -4.65 -1.8 -3.3 -3.15 L-1.9 -4.15 0.0 -4.55 1.3 -4.35 Q2.4 -4.05 3.25 -3.15" fill="url(#gradient0)" fill-rule="evenodd" stroke="none"/>
  </g>
  <defs>
    <radialGradient cx="0" cy="0" gradientTransform="matrix(0.0076, 0.0, 0.0, 0.0076, 0.05, 0.15)" gradientUnits="userSpaceOnUse" id="gradient0" r="819.2" spreadMethod="pad">
      <stop offset="0.0" stop-color="#000000" stop-opacity="0.0"/>
      <stop offset="1.0" stop-color="#000000" stop-opacity="0.0"/>
    </radialGradient>
  </defs>
</svg>
