<?xml version="1.0" encoding="UTF-8" standalone="no"?>
<svg xmlns:xlink="http://www.w3.org/1999/xlink" height="22.85px" width="43.75px" xmlns="http://www.w3.org/2000/svg">
  <g transform="matrix(1.0, 0.0, 0.0, 1.0, 22.3, 12.8)">
    <path d="M8.1 -3.25 L8.1 -11.2 9.9 -8.2 9.9 -6.55 8.1 -3.25" fill="url(#gradient0)" fill-rule="evenodd" stroke="none"/>
    <path d="M5.4 -9.7 Q6.15 -9.65 6.75 -9.05 7.35 -8.4 7.35 -7.45 L7.3 -6.9 6.75 -5.85 5.85 -5.3 5.4 -5.2 5.25 -5.2 4.95 -5.2 Q4.25 -5.3 3.75 -5.85 L3.35 -6.5 3.15 -7.45 Q3.15 -8.2 3.55 -8.75 L3.75 -9.05 Q4.2 -9.55 4.85 -9.65 L5.25 -9.7 5.4 -9.7" fill="url(#gradient1)" fill-rule="evenodd" stroke="none"/>
    <path d="M5.4 -5.2 L5.85 -5.3 6.75 -5.85 7.3 -6.9 7.35 -7.45 Q7.35 -8.4 6.75 -9.05 6.15 -9.65 5.4 -9.7 L5.4 -10.3 8.1 -11.2 8.1 -3.25 6.95 -3.75 5.65 -4.3 5.45 -4.4 5.4 -4.45 5.4 -5.2" fill="url(#gradient2)" fill-rule="evenodd" stroke="none"/>
    <path d="M5.65 -4.3 L6.95 -3.75 6.2 -2.9 6.0 -2.65 Q6.0 -3.5 5.6 -4.15 L5.65 -4.3 M4.85 -9.65 Q4.2 -9.55 3.75 -9.05 L3.55 -8.75 2.4 -8.95 1.3 -8.75 0.95 -8.9 0.85 -8.95 0.65 -9.0 Q1.8 -9.95 3.3 -9.95 L4.85 -9.65" fill="url(#gradient3)" fill-rule="evenodd" stroke="none"/>
    <path d="M5.4 -5.2 L5.4 -4.45 4.95 -5.0 4.95 -5.2 5.25 -5.2 5.4 -5.2 M5.45 -4.4 L5.65 -4.3 5.6 -4.15 5.45 -4.4 M3.55 -8.75 Q3.15 -8.2 3.15 -7.45 L3.35 -6.5 1.85 -6.7 2.05 -7.45 Q2.05 -8.05 1.65 -8.5 L1.6 -8.55 1.3 -8.75 2.4 -8.95 3.55 -8.75" fill="url(#gradient4)" fill-rule="evenodd" stroke="none"/>
    <path d="M0.65 -9.0 L0.85 -8.95 0.95 -8.9 1.3 -8.75 1.6 -8.55 1.65 -8.5 Q2.05 -8.05 2.05 -7.45 L1.85 -6.7 1.65 -6.4 1.6 -6.35 1.35 -6.15 1.3 -6.1 0.9 -5.95 0.75 -5.9 0.5 -5.9 -1.45 -5.3 -1.0 -5.7 -0.95 -5.75 -0.55 -6.3 -0.3 -7.0 -0.25 -7.45 -0.25 -7.5 -0.3 -7.7 -0.3 -7.85 -0.4 -8.3 -0.55 -8.6 -0.95 -9.15 -1.0 -9.2 -1.45 -9.55 -0.85 -9.4 0.65 -9.0" fill="url(#gradient5)" fill-rule="evenodd" stroke="none"/>
    <path d="M3.35 -6.5 L3.75 -5.85 Q4.25 -5.3 4.95 -5.2 L4.95 -5.0 4.95 -4.65 4.6 -4.05 3.75 -3.8 0.4 -3.2 0.9 -3.45 1.25 -3.8 1.45 -4.35 1.45 -5.75 1.4 -5.9 1.35 -6.15 1.6 -6.35 1.65 -6.4 1.85 -6.7 3.35 -6.5" fill="url(#gradient6)" fill-rule="evenodd" stroke="none"/>
    <path d="M5.4 -4.45 L5.45 -4.4 5.6 -4.15 Q6.0 -3.5 6.0 -2.65 6.0 -1.2 5.0 -0.2 L4.85 -0.1 0.2 -0.1 0.1 -0.2 Q-0.9 -1.2 -0.9 -2.65 L-0.85 -3.05 -0.35 -3.05 -0.25 -3.05 -0.1 -3.1 0.4 -3.2 3.75 -3.8 4.6 -4.05 4.95 -4.65 4.95 -5.0 5.4 -4.45" fill="url(#gradient7)" fill-rule="evenodd" stroke="none"/>
    <path d="M1.35 -6.15 L1.4 -5.9 1.45 -5.75 1.45 -4.35 1.25 -3.8 0.9 -3.45 0.4 -3.2 -0.1 -3.1 -0.25 -3.05 -0.35 -3.05 -0.85 -3.05 -5.3 -3.05 Q-6.05 -3.05 -6.55 -3.45 -7.1 -3.85 -7.1 -4.35 L-7.1 -5.25 -5.7 -5.8 -4.8 -6.05 -4.5 -5.7 Q-3.8 -4.95 -2.75 -4.95 L-2.35 -5.0 -2.15 -5.05 -1.45 -5.3 0.5 -5.9 0.75 -5.9 0.9 -5.95 1.3 -6.1 1.35 -6.15" fill="url(#gradient8)" fill-rule="evenodd" stroke="none"/>
    <path d="M4.85 -0.1 L6.0 -0.1 Q6.5 -0.1 6.85 0.25 7.2 0.6 7.2 1.1 L7.2 2.6 7.05 3.25 6.85 3.05 6.9 2.65 Q6.85 1.9 6.35 1.35 L5.8 1.0 5.0 0.85 Q4.3 0.85 3.85 1.2 L3.65 1.35 Q3.1 1.9 3.1 2.65 3.1 3.3 3.6 3.8 L0.0 3.8 Q0.5 3.3 0.5 2.65 0.45 1.9 -0.1 1.35 L-0.25 1.2 Q-0.75 0.85 -1.4 0.85 L-1.75 0.85 -1.45 0.25 Q-1.1 -0.1 -0.6 -0.1 L0.2 -0.1 4.85 -0.1" fill="url(#gradient9)" fill-rule="evenodd" stroke="none"/>
    <path d="M13.55 -0.45 L19.4 -0.45 Q20.15 -0.45 20.7 0.05 21.2 0.6 21.2 1.35 L21.2 9.6 15.35 9.6 15.35 1.45 Q15.35 0.7 14.85 0.15 14.3 -0.35 13.55 -0.45 M18.75 1.45 L18.3 1.25 Q18.05 1.25 17.9 1.45 L17.7 1.85 17.7 1.9 17.9 2.3 18.3 2.45 18.75 2.3 18.9 1.85 18.75 1.45 M20.55 8.3 L20.4 7.9 19.95 7.7 19.55 7.9 19.35 8.3 19.55 8.75 Q19.7 8.9 19.95 8.9 L20.4 8.75 20.55 8.3 M20.55 6.8 L20.4 6.4 19.95 6.2 19.55 6.4 19.35 6.8 19.55 7.25 Q19.7 7.4 19.95 7.4 L20.4 7.25 20.55 6.8 M20.4 2.3 L20.55 1.85 20.4 1.45 19.95 1.25 19.55 1.45 19.35 1.85 19.55 2.3 Q19.7 2.45 19.95 2.45 L20.4 2.3 M20.4 3.95 L20.55 3.5 20.4 3.1 19.95 2.9 19.55 3.1 19.35 3.5 19.55 3.95 Q19.7 4.1 19.95 4.1 L20.4 3.95 M20.55 5.15 L20.4 4.75 19.95 4.55 19.55 4.75 19.35 5.15 19.55 5.6 Q19.7 5.75 19.95 5.75 L20.4 5.6 20.55 5.15 M18.3 2.9 Q18.05 2.9 17.9 3.1 L17.7 3.5 17.7 3.55 17.9 3.95 18.3 4.1 18.75 3.95 18.9 3.5 18.75 3.1 18.3 2.9 M17.1 1.45 L16.65 1.25 16.25 1.45 16.05 1.85 16.25 2.3 16.65 2.45 17.1 2.3 17.25 1.85 17.1 1.45 M17.1 3.1 L16.65 2.9 16.25 3.1 16.05 3.5 16.25 3.95 16.65 4.1 17.1 3.95 17.25 3.5 17.1 3.1 M16.05 5.15 L16.05 5.2 16.25 5.6 16.65 5.75 17.1 5.6 17.25 5.15 17.1 4.75 16.65 4.55 16.25 4.75 16.05 5.15 M17.7 5.15 L17.7 5.2 17.9 5.6 18.3 5.75 18.75 5.6 18.9 5.15 18.75 4.75 18.3 4.55 Q18.05 4.55 17.9 4.75 L17.7 5.15 M18.9 6.8 L18.75 6.4 18.3 6.2 Q18.05 6.2 17.9 6.4 L17.7 6.8 17.7 6.85 17.8 7.1 17.9 7.25 18.3 7.4 18.75 7.25 18.9 6.8 M18.9 8.3 L18.75 7.9 18.3 7.7 Q18.05 7.7 17.9 7.9 L17.7 8.3 17.7 8.35 17.85 8.65 17.9 8.75 18.3 8.9 18.75 8.75 18.9 8.3 M16.1 8.5 L16.25 8.75 16.65 8.9 17.1 8.75 17.2 8.6 17.25 8.3 17.1 7.9 16.65 7.7 16.25 7.9 16.05 8.3 16.05 8.35 16.1 8.5 M17.1 6.4 L16.65 6.2 16.25 6.4 16.05 6.8 16.05 6.85 16.1 6.9 16.25 7.25 16.65 7.4 17.1 7.25 17.2 7.05 17.25 6.8 17.1 6.4" fill="url(#gradient10)" fill-rule="evenodd" stroke="none"/>
    <path d="M20.55 5.15 L20.4 5.6 19.95 5.75 Q19.7 5.75 19.55 5.6 L19.35 5.15 19.55 4.75 19.95 4.55 20.4 4.75 20.55 5.15 M20.4 3.95 L19.95 4.1 Q19.7 4.1 19.55 3.95 L19.35 3.5 19.55 3.1 19.95 2.9 20.4 3.1 20.55 3.5 20.4 3.95 M20.4 2.3 L19.95 2.45 Q19.7 2.45 19.55 2.3 L19.35 1.85 19.55 1.45 19.95 1.25 20.4 1.45 20.55 1.85 20.4 2.3 M20.55 6.8 L20.4 7.25 19.95 7.4 Q19.7 7.4 19.55 7.25 L19.35 6.8 19.55 6.4 19.95 6.2 20.4 6.4 20.55 6.8 M20.55 8.3 L20.4 8.75 19.95 8.9 Q19.7 8.9 19.55 8.75 L19.35 8.3 19.55 7.9 19.95 7.7 20.4 7.9 20.55 8.3 M18.75 1.45 L18.9 1.85 18.75 2.3 18.3 2.45 17.9 2.3 17.7 1.9 17.7 1.85 17.9 1.45 Q18.05 1.25 18.3 1.25 L18.75 1.45 M18.55 2.1 L18.65 1.85 18.55 1.6 18.3 1.5 18.05 1.6 17.95 1.85 18.05 2.1 18.3 2.2 18.55 2.1 M18.3 2.9 L18.75 3.1 18.9 3.5 18.75 3.95 18.3 4.1 17.9 3.95 17.7 3.55 17.7 3.5 17.9 3.1 Q18.05 2.9 18.3 2.9 M19.6 1.85 L19.7 2.1 19.95 2.2 20.2 2.1 20.3 1.85 20.2 1.6 19.95 1.5 Q19.8 1.5 19.7 1.6 L19.6 1.85 M17.1 1.45 L17.25 1.85 17.1 2.3 16.65 2.45 16.25 2.3 16.05 1.85 16.25 1.45 16.65 1.25 17.1 1.45 M16.4 1.6 L16.3 1.85 16.4 2.1 16.65 2.2 16.9 2.1 17.0 1.85 16.9 1.6 16.65 1.5 16.4 1.6 M17.1 3.1 L17.25 3.5 17.1 3.95 16.65 4.1 16.25 3.95 16.05 3.5 16.25 3.1 16.65 2.9 17.1 3.1 M16.9 3.75 L17.0 3.5 16.9 3.25 16.65 3.15 16.4 3.25 16.3 3.5 16.4 3.75 16.65 3.85 16.9 3.75 M16.05 5.15 L16.25 4.75 16.65 4.55 17.1 4.75 17.25 5.15 17.1 5.6 16.65 5.75 16.25 5.6 16.05 5.2 16.05 5.15 M16.3 5.15 L16.4 5.4 16.65 5.5 16.9 5.4 17.0 5.15 16.9 4.9 16.65 4.8 16.4 4.9 16.3 5.15 M17.7 5.15 L17.9 4.75 Q18.05 4.55 18.3 4.55 L18.75 4.75 18.9 5.15 18.75 5.6 18.3 5.75 17.9 5.6 17.7 5.2 17.7 5.15 M20.2 4.9 L19.95 4.8 Q19.8 4.8 19.7 4.9 L19.6 5.15 19.7 5.4 19.95 5.5 20.2 5.4 20.3 5.15 20.2 4.9 M18.55 5.4 L18.65 5.15 18.55 4.9 18.3 4.8 18.05 4.9 17.95 5.15 18.05 5.4 18.3 5.5 18.55 5.4 M18.65 3.5 L18.55 3.25 18.3 3.15 18.05 3.25 17.95 3.5 18.05 3.75 18.3 3.85 18.55 3.75 18.65 3.5 M20.2 3.25 L19.95 3.15 Q19.8 3.15 19.7 3.25 L19.6 3.5 19.7 3.75 19.95 3.85 20.2 3.75 20.3 3.5 20.2 3.25 M20.2 6.55 L19.95 6.45 Q19.8 6.45 19.7 6.55 L19.6 6.8 19.7 7.05 19.95 7.15 20.2 7.05 20.3 6.8 20.2 6.55 M18.9 6.8 L18.75 7.25 18.3 7.4 17.9 7.25 17.8 7.1 17.7 6.85 17.7 6.8 17.9 6.4 Q18.05 6.2 18.3 6.2 L18.75 6.4 18.9 6.8 M18.65 6.8 L18.55 6.55 18.3 6.45 18.05 6.55 17.95 6.8 18.05 7.05 18.15 7.15 18.3 7.15 18.55 7.05 18.65 6.8 M18.9 8.3 L18.75 8.75 18.3 8.9 17.9 8.75 17.85 8.65 17.7 8.35 17.7 8.3 17.9 7.9 Q18.05 7.7 18.3 7.7 L18.75 7.9 18.9 8.3 M17.0 6.8 L16.9 6.55 16.65 6.45 16.4 6.55 16.3 6.8 16.35 6.95 16.4 7.05 16.65 7.15 16.9 7.05 16.95 7.0 17.0 6.8 M20.2 8.05 L19.95 7.95 Q19.8 7.95 19.7 8.05 L19.6 8.3 19.7 8.55 19.95 8.65 20.2 8.55 20.3 8.3 20.2 8.05 M18.65 8.3 L18.55 8.05 18.3 7.95 18.05 8.05 17.95 8.3 18.05 8.55 18.3 8.65 18.55 8.55 18.65 8.3 M17.1 6.4 L17.25 6.8 17.2 7.05 17.1 7.25 16.65 7.4 16.25 7.25 16.1 6.9 16.05 6.85 16.05 6.8 16.25 6.4 16.65 6.2 17.1 6.4 M16.1 8.5 L16.05 8.35 16.05 8.3 16.25 7.9 16.65 7.7 17.1 7.9 17.25 8.3 17.2 8.6 17.1 8.75 16.65 8.9 16.25 8.75 16.1 8.5 M16.4 8.05 L16.3 8.3 16.35 8.5 16.4 8.55 16.65 8.65 16.9 8.55 17.0 8.3 16.9 8.05 16.65 7.95 16.4 8.05 M-17.1 1.4 Q-16.95 1.55 -16.95 1.8 L-17.1 2.2 Q-17.3 2.4 -17.55 2.4 -17.8 2.4 -17.95 2.2 L-18.15 1.8 -17.95 1.4 -17.55 1.2 -17.1 1.4 M-17.3 1.55 L-17.55 1.45 -17.8 1.55 -17.9 1.8 -17.8 2.05 -17.55 2.15 -17.3 2.05 -17.2 1.8 -17.3 1.55 M-17.1 3.05 Q-16.95 3.2 -16.95 3.45 L-17.1 3.85 Q-17.3 4.05 -17.55 4.05 -17.8 4.05 -17.95 3.85 L-18.15 3.45 -17.95 3.05 -17.55 2.85 -17.1 3.05 M-19.2 1.45 L-19.45 1.55 -19.55 1.8 -19.45 2.05 -19.2 2.15 -18.95 2.05 -18.85 1.8 -18.95 1.55 -19.2 1.45 M-19.2 1.2 Q-18.95 1.2 -18.75 1.4 L-18.6 1.8 -18.75 2.2 Q-18.95 2.4 -19.2 2.4 L-19.6 2.2 -19.8 1.8 -19.6 1.4 -19.2 1.2 M-19.2 2.85 Q-18.95 2.85 -18.75 3.05 L-18.6 3.45 -18.75 3.85 Q-18.95 4.05 -19.2 4.05 L-19.6 3.85 -19.8 3.45 -19.6 3.05 -19.2 2.85 M-18.95 3.7 L-18.85 3.45 -18.95 3.2 -19.2 3.1 -19.45 3.2 -19.55 3.45 -19.45 3.7 -19.2 3.8 -18.95 3.7 M-17.9 3.45 L-17.8 3.7 -17.55 3.8 -17.3 3.7 -17.2 3.45 -17.3 3.2 -17.55 3.1 -17.8 3.2 -17.9 3.45 M-19.8 5.1 L-19.6 4.7 -19.2 4.5 Q-18.95 4.5 -18.75 4.7 L-18.6 5.1 -18.75 5.5 Q-18.95 5.7 -19.2 5.7 L-19.6 5.5 -19.8 5.1 M-19.45 4.85 L-19.55 5.1 -19.45 5.35 -19.2 5.45 -18.95 5.35 -18.85 5.1 -18.95 4.85 -19.2 4.75 -19.45 4.85 M-17.95 4.7 L-17.55 4.5 -17.1 4.7 Q-16.95 4.85 -16.95 5.1 L-17.1 5.5 Q-17.3 5.7 -17.55 5.7 -17.8 5.7 -17.95 5.5 L-18.15 5.1 -17.95 4.7 M-17.55 7.1 L-17.3 7.0 -17.2 6.75 -17.3 6.5 -17.55 6.4 -17.8 6.5 -17.9 6.75 -17.8 7.0 -17.55 7.1 M-17.8 4.85 L-17.9 5.1 -17.8 5.35 -17.55 5.45 -17.3 5.35 -17.2 5.1 -17.3 4.85 -17.55 4.75 -17.8 4.85 M-17.55 7.35 Q-17.8 7.35 -17.95 7.15 L-18.15 6.75 -17.95 6.35 -17.55 6.15 -17.1 6.35 Q-16.95 6.5 -16.95 6.75 L-17.1 7.15 Q-17.3 7.35 -17.55 7.35 M-17.55 8.85 Q-17.8 8.85 -17.95 8.65 L-18.15 8.25 -17.95 7.85 -17.55 7.65 -17.1 7.85 Q-16.95 8.0 -16.95 8.25 L-17.1 8.65 Q-17.3 8.85 -17.55 8.85 M-17.3 8.0 L-17.55 7.9 -17.8 8.0 -17.9 8.25 -17.8 8.5 -17.55 8.6 -17.3 8.5 -17.2 8.25 -17.3 8.0 M-18.85 6.75 L-18.95 6.5 -19.2 6.4 -19.45 6.5 -19.55 6.75 -19.45 7.0 -19.2 7.1 -18.95 7.0 -18.85 6.75 M-18.6 6.75 L-18.75 7.15 Q-18.95 7.35 -19.2 7.35 L-19.6 7.15 -19.8 6.75 -19.6 6.35 -19.2 6.15 Q-18.95 6.15 -18.75 6.35 L-18.6 6.75 M-19.6 8.65 L-19.8 8.25 -19.6 7.85 -19.2 7.65 Q-18.95 7.65 -18.75 7.85 L-18.6 8.25 -18.75 8.65 Q-18.95 8.85 -19.2 8.85 L-19.6 8.65 M-19.45 8.5 L-19.2 8.6 -18.95 8.5 -18.85 8.25 -18.95 8.0 -19.2 7.9 -19.45 8.0 -19.55 8.25 -19.45 8.5 M-20.85 1.45 L-21.1 1.55 -21.2 1.8 -21.1 2.05 -20.85 2.15 -20.6 2.05 -20.5 1.8 -20.6 1.55 -20.85 1.45 M-20.4 1.4 Q-20.25 1.55 -20.25 1.8 L-20.4 2.2 -20.85 2.4 Q-21.1 2.4 -21.25 2.2 L-21.45 1.8 -21.25 1.4 -20.85 1.2 -20.4 1.4 M-20.4 3.05 Q-20.25 3.2 -20.25 3.45 L-20.4 3.85 -20.85 4.05 Q-21.1 4.05 -21.25 3.85 L-21.45 3.45 -21.25 3.05 -20.85 2.85 -20.4 3.05 M-20.5 5.1 L-20.6 4.85 -20.85 4.75 -21.1 4.85 -21.2 5.1 -21.1 5.35 -20.85 5.45 -20.6 5.35 -20.5 5.1 M-20.85 3.8 L-20.6 3.7 -20.5 3.45 -20.6 3.2 -20.85 3.1 -21.1 3.2 -21.2 3.45 -21.1 3.7 -20.85 3.8 M-21.25 4.7 L-20.85 4.5 -20.4 4.7 Q-20.25 4.85 -20.25 5.1 L-20.4 5.5 -20.85 5.7 Q-21.1 5.7 -21.25 5.5 L-21.45 5.1 -21.25 4.7 M-20.6 6.5 L-20.85 6.4 -21.1 6.5 -21.2 6.75 -21.1 7.0 -20.85 7.1 -20.6 7.0 -20.5 6.75 -20.6 6.5 M-21.25 6.35 L-20.85 6.15 -20.4 6.35 Q-20.25 6.5 -20.25 6.75 L-20.4 7.15 -20.85 7.35 Q-21.1 7.35 -21.25 7.15 L-21.45 6.75 -21.25 6.35 M-20.6 8.5 L-20.5 8.25 -20.6 8.0 -20.85 7.9 -21.1 8.0 -21.2 8.25 -21.1 8.5 -20.85 8.6 -20.6 8.5 M-21.25 7.85 L-20.85 7.65 -20.4 7.85 Q-20.25 8.0 -20.25 8.25 L-20.4 8.65 -20.85 8.85 Q-21.1 8.85 -21.25 8.65 L-21.45 8.25 -21.25 7.85" fill="#294518" fill-rule="evenodd" stroke="none"/>
    <path d="M18.55 2.1 L18.3 2.2 18.05 2.1 17.95 1.85 18.05 1.6 18.3 1.5 18.55 1.6 18.65 1.85 18.55 2.1 M19.6 1.85 L19.7 1.6 Q19.8 1.5 19.95 1.5 L20.2 1.6 20.3 1.85 20.2 2.1 19.95 2.2 19.7 2.1 19.6 1.85 M16.4 1.6 L16.65 1.5 16.9 1.6 17.0 1.85 16.9 2.1 16.65 2.2 16.4 2.1 16.3 1.85 16.4 1.6 M16.9 3.75 L16.65 3.85 16.4 3.75 16.3 3.5 16.4 3.25 16.65 3.15 16.9 3.25 17.0 3.5 16.9 3.75 M16.3 5.15 L16.4 4.9 16.65 4.8 16.9 4.9 17.0 5.15 16.9 5.4 16.65 5.5 16.4 5.4 16.3 5.15 M20.2 3.25 L20.3 3.5 20.2 3.75 19.95 3.85 19.7 3.75 19.6 3.5 19.7 3.25 Q19.8 3.15 19.95 3.15 L20.2 3.25 M18.65 3.5 L18.55 3.75 18.3 3.85 18.05 3.75 17.95 3.5 18.05 3.25 18.3 3.15 18.55 3.25 18.65 3.5 M18.55 5.4 L18.3 5.5 18.05 5.4 17.95 5.15 18.05 4.9 18.3 4.8 18.55 4.9 18.65 5.15 18.55 5.4 M20.2 4.9 L20.3 5.15 20.2 5.4 19.95 5.5 19.7 5.4 19.6 5.15 19.7 4.9 Q19.8 4.8 19.95 4.8 L20.2 4.9 M20.2 6.55 L20.3 6.8 20.2 7.05 19.95 7.15 19.7 7.05 19.6 6.8 19.7 6.55 Q19.8 6.45 19.95 6.45 L20.2 6.55 M18.65 6.8 L18.55 7.05 18.3 7.15 18.15 7.15 18.05 7.05 17.95 6.8 18.05 6.55 18.3 6.45 18.55 6.55 18.65 6.8 M18.65 8.3 L18.55 8.55 18.3 8.65 18.05 8.55 17.95 8.3 18.05 8.05 18.3 7.95 18.55 8.05 18.65 8.3 M20.2 8.05 L20.3 8.3 20.2 8.55 19.95 8.65 19.7 8.55 19.6 8.3 19.7 8.05 Q19.8 7.95 19.95 7.95 L20.2 8.05 M17.0 6.8 L16.95 7.0 16.9 7.05 16.65 7.15 16.4 7.05 16.35 6.95 16.3 6.8 16.4 6.55 16.65 6.45 16.9 6.55 17.0 6.8 M16.4 8.05 L16.65 7.95 16.9 8.05 17.0 8.3 16.9 8.55 16.65 8.65 16.4 8.55 16.35 8.5 16.3 8.3 16.4 8.05 M-17.3 1.55 L-17.2 1.8 -17.3 2.05 -17.55 2.15 -17.8 2.05 -17.9 1.8 -17.8 1.55 -17.55 1.45 -17.3 1.55 M-19.2 1.45 L-18.95 1.55 -18.85 1.8 -18.95 2.05 -19.2 2.15 -19.45 2.05 -19.55 1.8 -19.45 1.55 -19.2 1.45 M-17.9 3.45 L-17.8 3.2 -17.55 3.1 -17.3 3.2 -17.2 3.45 -17.3 3.7 -17.55 3.8 -17.8 3.7 -17.9 3.45 M-18.95 3.7 L-19.2 3.8 -19.45 3.7 -19.55 3.45 -19.45 3.2 -19.2 3.1 -18.95 3.2 -18.85 3.45 -18.95 3.7 M-19.45 4.85 L-19.2 4.75 -18.95 4.85 -18.85 5.1 -18.95 5.35 -19.2 5.45 -19.45 5.35 -19.55 5.1 -19.45 4.85 M-17.8 4.85 L-17.55 4.75 -17.3 4.85 -17.2 5.1 -17.3 5.35 -17.55 5.45 -17.8 5.35 -17.9 5.1 -17.8 4.85 M-17.55 7.1 L-17.8 7.0 -17.9 6.75 -17.8 6.5 -17.55 6.4 -17.3 6.5 -17.2 6.75 -17.3 7.0 -17.55 7.1 M-17.3 8.0 L-17.2 8.25 -17.3 8.5 -17.55 8.6 -17.8 8.5 -17.9 8.25 -17.8 8.0 -17.55 7.9 -17.3 8.0 M-18.85 6.75 L-18.95 7.0 -19.2 7.1 -19.45 7.0 -19.55 6.75 -19.45 6.5 -19.2 6.4 -18.95 6.5 -18.85 6.75 M-19.45 8.5 L-19.55 8.25 -19.45 8.0 -19.2 7.9 -18.95 8.0 -18.85 8.25 -18.95 8.5 -19.2 8.6 -19.45 8.5 M-20.85 1.45 L-20.6 1.55 -20.5 1.8 -20.6 2.05 -20.85 2.15 -21.1 2.05 -21.2 1.8 -21.1 1.55 -20.85 1.45 M-20.85 3.8 L-21.1 3.7 -21.2 3.45 -21.1 3.2 -20.85 3.1 -20.6 3.2 -20.5 3.45 -20.6 3.7 -20.85 3.8 M-20.5 5.1 L-20.6 5.35 -20.85 5.45 -21.1 5.35 -21.2 5.1 -21.1 4.85 -20.85 4.75 -20.6 4.85 -20.5 5.1 M-20.6 6.5 L-20.5 6.75 -20.6 7.0 -20.85 7.1 -21.1 7.0 -21.2 6.75 -21.1 6.5 -20.85 6.4 -20.6 6.5 M-20.6 8.5 L-20.85 8.6 -21.1 8.5 -21.2 8.25 -21.1 8.0 -20.85 7.9 -20.6 8.0 -20.5 8.25 -20.6 8.5" fill="#7bba39" fill-rule="evenodd" stroke="none"/>
    <path d="M14.45 6.75 L14.45 1.65 14.2 1.0 Q13.95 0.7 13.55 0.7 L13.55 -0.45 Q14.3 -0.35 14.85 0.15 15.35 0.7 15.35 1.45 L15.35 9.6 14.45 9.6 14.45 8.3 14.45 6.75 M-15.3 8.75 L-15.3 9.8 -16.2 9.8 -16.2 1.65 Q-16.2 0.9 -15.7 0.35 -15.15 -0.15 -14.4 -0.25 L-14.4 0.9 Q-14.8 0.95 -15.05 1.2 L-15.3 1.85 -15.3 7.2 -15.3 8.75" fill="#2f322e" fill-rule="evenodd" stroke="none"/>
    <path d="M8.75 4.5 L9.0 4.2 Q9.65 3.5 10.65 3.5 L10.7 3.5 Q11.7 3.5 12.45 4.2 13.05 4.85 13.1 5.8 L13.1 5.95 13.05 6.6 8.3 6.15 8.3 5.95 8.3 5.8 Q8.3 5.05 8.75 4.5 M11.9 8.05 L10.7 8.35 10.65 8.35 Q9.75 8.35 9.15 7.8 L11.9 8.05 M10.7 3.5 L11.0 4.2 11.1 5.45 11.1 5.8 12.15 5.8 12.15 5.65 11.7 4.2 Q11.3 3.5 10.7 3.5" fill="url(#gradient11)" fill-rule="evenodd" stroke="none"/>
    <path d="M-8.3 3.8 L-8.25 3.8 -8.5 4.45 -8.65 5.7 -8.65 6.05 -9.7 6.05 Q-9.65 5.15 -9.25 4.45 -8.85 3.8 -8.3 3.8 M10.7 3.5 Q11.3 3.5 11.7 4.2 L12.15 5.65 12.15 5.8 11.1 5.8 11.1 5.45 11.0 4.2 10.7 3.5" fill="#7b7573" fill-rule="evenodd" stroke="none"/>
    <path d="M13.05 6.6 L14.45 6.75 14.45 8.3 11.9 8.05 9.15 7.8 7.8 7.65 7.8 6.55 7.8 6.1 8.3 6.15 13.05 6.6 M-5.8 7.15 L-5.8 7.8 -6.5 7.9 -9.65 8.2 -15.3 8.75 -15.3 7.2 -10.6 6.75 -5.8 6.25 -5.8 7.15" fill="#293029" fill-rule="evenodd" stroke="none"/>
    <path d="M3.95 4.15 L3.65 3.9 3.6 3.8 Q3.1 3.3 3.1 2.65 3.1 1.9 3.65 1.35 L3.85 1.2 4.05 1.7 4.8 2.15 5.55 1.7 5.8 1.0 6.35 1.35 Q6.85 1.9 6.9 2.65 L6.85 3.05 6.55 3.7 6.35 3.9 Q5.75 4.45 5.0 4.45 L3.95 4.15" fill="url(#gradient12)" fill-rule="evenodd" stroke="none"/>
    <path d="M-2.2 1.0 L-1.75 0.85 -1.4 0.85 Q-0.75 0.85 -0.25 1.2 L-0.45 1.7 -1.2 2.15 -1.8 1.9 -1.95 1.7 -2.2 1.0 M5.8 1.0 L5.55 1.7 4.8 2.15 4.05 1.7 3.85 1.2 Q4.3 0.85 5.0 0.85 L5.8 1.0" fill="#8c827b" fill-rule="evenodd" stroke="none"/>
    <path d="M7.05 3.25 L8.75 4.5 Q8.3 5.05 8.3 5.8 L8.3 5.95 8.3 6.15 7.8 6.1 7.8 6.55 Q6.5 6.3 4.85 6.55 3.8 5.95 3.95 4.15 L5.0 4.45 Q5.75 4.45 6.35 3.9 L6.55 3.7 6.85 3.05 7.05 3.25" fill="url(#gradient13)" fill-rule="evenodd" stroke="none"/>
    <path d="M0.0 3.8 L-0.1 3.9 -0.4 4.15 -1.4 4.45 Q-2.2 4.45 -2.75 3.9 L-3.25 3.05 -3.3 2.65 Q-3.3 1.9 -2.75 1.35 L-2.2 1.0 -1.95 1.7 -1.8 1.9 -1.2 2.15 -0.45 1.7 -0.25 1.2 -0.1 1.35 Q0.45 1.9 0.5 2.65 0.5 3.3 0.0 3.8" fill="url(#gradient14)" fill-rule="evenodd" stroke="none"/>
    <path d="M-9.25 -10.75 L-8.6 -11.65 Q-7.75 -12.5 -6.55 -12.5 L-6.25 -12.5 -5.7 -12.4 -4.5 -11.65 -4.4 -11.6 Q-3.7 -10.85 -3.65 -9.8 L-4.5 -9.2 -4.65 -9.05 Q-5.15 -9.4 -5.7 -9.4 L-5.85 -9.4 -9.15 -10.7 -9.25 -10.75" fill="url(#gradient15)" fill-rule="evenodd" stroke="none"/>
    <path d="M-9.25 -10.75 L-9.15 -10.7 -8.4 -10.1 Q-7.6 -9.25 -7.4 -8.15 L-7.35 -7.6 -7.4 -7.0 -7.4 -6.85 Q-7.65 -5.85 -8.4 -5.05 -8.8 -4.7 -9.25 -4.45 -9.7 -4.2 -10.2 -4.05 L-10.95 -4.0 Q-12.4 -4.0 -13.45 -5.05 -14.55 -6.15 -14.55 -7.6 -14.55 -9.05 -13.45 -10.1 -12.4 -11.2 -10.95 -11.2 L-10.2 -11.1 -9.25 -10.75 M-12.75 -7.6 Q-12.75 -6.9 -12.2 -6.35 -11.65 -5.8 -10.95 -5.8 -10.25 -5.8 -9.7 -6.35 -9.15 -6.9 -9.15 -7.6 -9.15 -8.3 -9.7 -8.85 -10.25 -9.4 -10.95 -9.4 -11.65 -9.4 -12.2 -8.85 -12.75 -8.3 -12.75 -7.6" fill="url(#gradient16)" fill-rule="evenodd" stroke="none"/>
    <path d="M-10.75 -6.85 L-10.6 -7.6 -10.75 -8.35 -11.0 -8.65 -11.25 -8.35 -11.4 -7.6 -11.25 -6.85 -11.0 -6.55 -10.75 -6.85 M-12.75 -7.6 Q-12.75 -8.3 -12.2 -8.85 -11.65 -9.4 -10.95 -9.4 -10.25 -9.4 -9.7 -8.85 -9.15 -8.3 -9.15 -7.6 -9.15 -6.9 -9.7 -6.35 -10.25 -5.8 -10.95 -5.8 -11.65 -5.8 -12.2 -6.35 -12.75 -6.9 -12.75 -7.6" fill="url(#gradient17)" fill-rule="evenodd" stroke="none"/>
    <path d="M-10.75 -6.85 L-11.0 -6.55 -11.25 -6.85 -11.4 -7.6 -11.25 -8.35 -11.0 -8.65 -10.75 -8.35 -10.6 -7.6 -10.75 -6.85 M-5.1 -7.95 L-5.05 -7.6 -5.1 -7.25 -5.2 -7.05 -5.35 -7.25 -5.4 -7.6 -5.35 -7.95 -5.2 -8.1 -5.15 -8.1 -5.1 -7.95 M-6.45 -8.65 L-6.15 -8.35 -6.05 -7.6 -6.15 -6.85 -6.25 -6.75 -6.45 -6.55 -6.6 -6.65 -6.65 -6.7 -6.7 -6.85 -6.85 -7.6 -6.7 -8.35 -6.45 -8.65" fill="#000000" fill-rule="evenodd" stroke="none"/>
    <path d="M-16.2 9.8 L-22.05 9.8 -22.05 1.55 Q-22.05 0.8 -21.55 0.25 -21.0 -0.25 -20.25 -0.25 L-14.4 -0.25 Q-15.15 -0.15 -15.7 0.35 -16.2 0.9 -16.2 1.65 L-16.2 9.8 M-17.1 1.4 L-17.55 1.2 -17.95 1.4 -18.15 1.8 -17.95 2.2 Q-17.8 2.4 -17.55 2.4 -17.3 2.4 -17.1 2.2 L-16.95 1.8 Q-16.95 1.55 -17.1 1.4 M-17.1 3.05 L-17.55 2.85 -17.95 3.05 -18.15 3.45 -17.95 3.85 Q-17.8 4.05 -17.55 4.05 -17.3 4.05 -17.1 3.85 L-16.95 3.45 Q-16.95 3.2 -17.1 3.05 M-19.2 2.85 L-19.6 3.05 -19.8 3.45 -19.6 3.85 -19.2 4.05 Q-18.95 4.05 -18.75 3.85 L-18.6 3.45 -18.75 3.05 Q-18.95 2.85 -19.2 2.85 M-19.2 1.2 L-19.6 1.4 -19.8 1.8 -19.6 2.2 -19.2 2.4 Q-18.95 2.4 -18.75 2.2 L-18.6 1.8 -18.75 1.4 Q-18.95 1.2 -19.2 1.2 M-19.8 5.1 L-19.6 5.5 -19.2 5.7 Q-18.95 5.7 -18.75 5.5 L-18.6 5.1 -18.75 4.7 Q-18.95 4.5 -19.2 4.5 L-19.6 4.7 -19.8 5.1 M-17.95 4.7 L-18.15 5.1 -17.95 5.5 Q-17.8 5.7 -17.55 5.7 -17.3 5.7 -17.1 5.5 L-16.95 5.1 Q-16.95 4.85 -17.1 4.7 L-17.55 4.5 -17.95 4.7 M-17.55 8.85 Q-17.3 8.85 -17.1 8.65 L-16.95 8.25 Q-16.95 8.0 -17.1 7.85 L-17.55 7.65 -17.95 7.85 -18.15 8.25 -17.95 8.65 Q-17.8 8.85 -17.55 8.85 M-17.55 7.35 Q-17.3 7.35 -17.1 7.15 L-16.95 6.75 Q-16.95 6.5 -17.1 6.35 L-17.55 6.15 -17.95 6.35 -18.15 6.75 -17.95 7.15 Q-17.8 7.35 -17.55 7.35 M-19.6 8.65 L-19.2 8.85 Q-18.95 8.85 -18.75 8.65 L-18.6 8.25 -18.75 7.85 Q-18.95 7.65 -19.2 7.65 L-19.6 7.85 -19.8 8.25 -19.6 8.65 M-18.6 6.75 L-18.75 6.35 Q-18.95 6.15 -19.2 6.15 L-19.6 6.35 -19.8 6.75 -19.6 7.15 -19.2 7.35 Q-18.95 7.35 -18.75 7.15 L-18.6 6.75 M-20.4 3.05 L-20.85 2.85 -21.25 3.05 -21.45 3.45 -21.25 3.85 Q-21.1 4.05 -20.85 4.05 L-20.4 3.85 -20.25 3.45 Q-20.25 3.2 -20.4 3.05 M-20.4 1.4 L-20.85 1.2 -21.25 1.4 -21.45 1.8 -21.25 2.2 Q-21.1 2.4 -20.85 2.4 L-20.4 2.2 -20.25 1.8 Q-20.25 1.55 -20.4 1.4 M-21.25 4.7 L-21.45 5.1 -21.25 5.5 Q-21.1 5.7 -20.85 5.7 L-20.4 5.5 -20.25 5.1 Q-20.25 4.85 -20.4 4.7 L-20.85 4.5 -21.25 4.7 M-21.25 6.35 L-21.45 6.75 -21.25 7.15 Q-21.1 7.35 -20.85 7.35 L-20.4 7.15 -20.25 6.75 Q-20.25 6.5 -20.4 6.35 L-20.85 6.15 -21.25 6.35 M-21.25 7.85 L-21.45 8.25 -21.25 8.65 Q-21.1 8.85 -20.85 8.85 L-20.4 8.65 -20.25 8.25 Q-20.25 8.0 -20.4 7.85 L-20.85 7.65 -21.25 7.85" fill="url(#gradient18)" fill-rule="evenodd" stroke="none"/>
    <path d="M-3.65 -9.8 Q-3.7 -10.85 -4.4 -11.6 L-4.5 -11.65 -5.7 -12.4 -3.05 -11.9 Q-2.2 -11.85 -1.55 -11.25 -0.85 -10.55 -0.85 -9.6 L-0.85 -9.4 -1.45 -9.55 -2.05 -9.8 -2.5 -9.9 -2.75 -9.95 -2.8 -9.95 -3.65 -9.8" fill="url(#gradient19)" fill-rule="evenodd" stroke="none"/>
    <path d="M-1.45 -5.3 L-2.15 -5.05 -2.35 -5.0 -2.75 -4.95 Q-3.8 -4.95 -4.5 -5.7 L-4.8 -6.05 -4.45 -6.35 -4.3 -6.45 -2.85 -6.8 -2.65 -6.95 -2.4 -7.4 -2.4 -7.45 -2.4 -7.6 -2.4 -7.75 -2.5 -8.05 -2.65 -8.2 -2.85 -8.35 -3.1 -8.45 -3.25 -8.5 -3.3 -8.5 -4.3 -8.75 -4.45 -8.85 -4.65 -9.05 -4.5 -9.2 -3.65 -9.8 -2.8 -9.95 -2.75 -9.95 -2.5 -9.9 -2.05 -9.8 -1.45 -9.55 -1.0 -9.2 -0.95 -9.15 -0.55 -8.6 -0.4 -8.3 -0.3 -7.85 -0.3 -7.7 -0.25 -7.5 -0.25 -7.45 -0.3 -7.0 -0.55 -6.3 -0.95 -5.75 -1.0 -5.7 -1.45 -5.3" fill="url(#gradient20)" fill-rule="evenodd" stroke="none"/>
    <path d="M-4.3 -8.75 L-3.3 -8.5 -3.25 -8.5 -3.1 -8.45 -2.85 -8.35 -2.65 -8.2 -2.5 -8.05 -2.4 -7.75 -2.4 -7.6 -2.4 -7.45 -2.4 -7.4 -2.65 -6.95 -2.85 -6.8 -4.3 -6.45 Q-4.05 -6.8 -3.95 -7.1 L-3.9 -7.6 -4.0 -8.2 -4.3 -8.75" fill="url(#gradient21)" fill-rule="evenodd" stroke="none"/>
    <path d="M-4.8 -6.05 L-5.7 -5.8 -7.1 -5.25 -9.25 -4.45 Q-8.8 -4.7 -8.4 -5.05 -7.65 -5.85 -7.4 -6.85 L-7.4 -7.0 -7.35 -7.6 -7.4 -8.15 Q-7.6 -9.25 -8.4 -10.1 L-9.15 -10.7 -5.85 -9.4 -5.7 -9.4 Q-5.15 -9.4 -4.65 -9.05 L-4.45 -8.85 -4.3 -8.75 -4.0 -8.2 -3.9 -7.6 -3.95 -7.1 Q-4.05 -6.8 -4.3 -6.45 L-4.45 -6.35 -4.8 -6.05 M-6.45 -8.65 L-6.7 -8.35 -6.85 -7.6 -6.7 -6.85 -6.65 -6.7 -6.6 -6.65 -6.45 -6.55 -6.25 -6.75 -6.15 -6.85 -6.05 -7.6 -6.15 -8.35 -6.45 -8.65 M-5.1 -7.95 L-5.15 -8.1 -5.2 -8.1 -5.35 -7.95 -5.4 -7.6 -5.35 -7.25 -5.2 -7.05 -5.1 -7.25 -5.05 -7.6 -5.1 -7.95" fill="url(#gradient22)" fill-rule="evenodd" stroke="none"/>
    <path d="M-0.4 4.15 Q-0.25 5.95 -1.3 6.55 -4.15 6.1 -5.8 7.15 L-5.8 6.25 -5.8 6.2 -5.8 6.05 -6.1 5.0 Q-4.5 4.3 -3.25 3.05 L-2.75 3.9 Q-2.2 4.45 -1.4 4.45 L-0.4 4.15" fill="url(#gradient23)" fill-rule="evenodd" stroke="none"/>
    <path d="M-6.5 7.9 L-6.55 7.9 Q-7.25 8.6 -8.2 8.65 L-8.25 8.65 Q-9.05 8.6 -9.65 8.2 L-6.5 7.9 M-10.6 6.75 L-10.65 6.2 -10.65 6.05 Q-10.65 5.15 -10.0 4.45 -9.3 3.8 -8.3 3.8 -8.85 3.8 -9.25 4.45 -9.65 5.15 -9.7 6.05 L-8.65 6.05 -8.65 5.7 -8.5 4.45 -8.25 3.8 -8.2 3.8 Q-7.25 3.8 -6.55 4.45 L-6.1 5.0 -5.8 6.05 -5.8 6.2 -5.8 6.25 -10.6 6.75" fill="url(#gradient24)" fill-rule="evenodd" stroke="none"/>
    <path d="M-15.85 0.2 L-15.65 0.0 -20.25 0.0 Q-20.9 0.0 -21.35 0.45 L-21.75 1.35 -21.8 1.5 -21.8 1.55 -21.8 9.55 -16.45 9.55 -16.45 1.65 -16.35 1.5 -16.4 1.4 Q-16.35 0.7 -15.85 0.2 M-14.65 0.7 L-14.65 0.05 -15.5 0.55 -15.9 1.45 -15.95 1.6 -15.95 1.65 -15.95 9.55 -15.55 9.55 -15.55 7.45 -15.5 7.35 -15.55 7.25 -15.5 7.1 -15.55 6.95 -15.55 1.85 -15.5 1.7 -15.5 1.55 -15.25 1.05 -15.2 1.05 Q-15.0 0.8 -14.65 0.7 M-8.3 8.45 L-8.2 8.4 -7.4 8.2 -8.7 8.35 -8.4 8.4 -8.3 8.45 M-6.0 7.05 L-6.05 6.9 -6.05 6.55 -10.3 6.95 -10.4 6.95 -10.55 7.0 -15.05 7.45 -15.05 8.5 -9.9 7.95 -9.75 8.0 -9.65 7.95 -6.9 7.65 -6.75 7.7 -6.7 7.75 -6.55 7.65 -6.45 7.7 -6.35 7.6 -6.05 7.6 -6.05 7.4 -6.0 7.3 -6.05 7.1 -6.0 7.05 M-9.5 4.4 L-9.8 4.65 Q-10.4 5.25 -10.4 6.05 L-10.4 6.2 -10.4 6.45 -10.35 6.45 -8.8 6.3 -9.7 6.3 -9.8 6.3 -9.9 6.2 -9.95 6.05 Q-9.9 5.1 -9.5 4.4 M-8.75 4.45 L-8.75 4.4 -8.7 4.2 -9.05 4.6 -9.0 4.6 -9.4 5.8 -8.9 5.8 -8.9 5.7 -8.75 4.45 M-8.2 4.05 L-8.25 4.5 -8.4 5.7 -8.4 5.75 -8.4 6.05 -8.45 6.25 -8.5 6.3 -6.05 6.05 -6.2 5.35 -6.25 5.2 -6.3 5.15 -6.7 4.65 Q-7.35 4.05 -8.2 4.05 M-2.9 4.1 L-3.35 3.5 Q-4.4 4.5 -5.75 5.15 L-5.55 6.05 -5.55 6.2 -5.55 6.75 Q-3.9 5.9 -1.3 6.3 L-1.25 6.2 Q-0.6 5.7 -0.6 4.55 L-1.4 4.7 Q-2.3 4.7 -2.9 4.1 M-0.55 1.3 L-1.4 1.1 -1.55 1.05 -1.6 1.05 -1.75 1.1 -1.95 1.0 -1.95 1.1 -1.9 1.2 -1.75 1.55 -1.7 1.6 -1.6 1.75 -1.2 1.9 Q-0.9 1.9 -0.65 1.55 L-0.55 1.3 M-6.45 -8.4 L-6.45 -8.25 -6.6 -7.6 -6.45 -6.95 -6.45 -6.9 -6.65 -6.95 -6.45 -6.8 -6.45 -6.85 -6.45 -6.9 -6.4 -6.95 -6.3 -7.6 -6.4 -8.25 -6.35 -8.25 -6.45 -8.4 M-4.9 -8.1 L-4.85 -8.05 -4.85 -8.0 -4.8 -7.6 -4.85 -7.15 -5.0 -6.85 -5.15 -6.8 -5.3 -6.8 -5.55 -7.1 -5.65 -7.6 -5.55 -8.1 -5.4 -8.3 -5.15 -8.35 -4.95 -8.25 -4.9 -8.1 M-3.75 -8.25 L-3.75 -8.3 -3.65 -7.6 -3.7 -7.05 -3.7 -7.0 -3.8 -6.8 -3.65 -6.85 -3.5 -6.85 -3.4 -6.95 -2.9 -7.05 -2.85 -7.05 -2.85 -7.1 -2.65 -7.45 -2.65 -7.6 -2.65 -7.75 -2.7 -7.9 -2.8 -8.0 -2.95 -8.1 -3.0 -8.15 -3.1 -8.2 -3.2 -8.2 -3.25 -8.25 -3.3 -8.25 -3.35 -8.25 -3.8 -8.35 -3.75 -8.25 M-4.55 -11.4 L-4.65 -11.45 -5.5 -12.1 -5.55 -12.1 -5.6 -12.15 -5.8 -12.15 -6.25 -12.25 -6.3 -12.25 -6.45 -12.25 -6.55 -12.25 Q-7.65 -12.25 -8.4 -11.45 L-8.95 -10.8 -8.9 -10.8 -8.85 -10.8 -5.8 -9.65 -5.7 -9.65 -4.7 -9.35 -3.9 -9.95 Q-4.0 -10.8 -4.55 -11.4 M-2.0 -10.05 L-1.3 -9.75 -1.1 -9.7 Q-1.15 -10.5 -1.7 -11.05 -2.3 -11.6 -3.05 -11.65 L-3.1 -11.65 -4.4 -11.9 -4.35 -11.85 -4.2 -11.75 Q-3.55 -11.05 -3.4 -10.1 L-2.8 -10.2 -2.75 -10.2 -2.5 -10.15 -2.0 -10.05 M-12.35 -9.0 Q-11.75 -9.65 -10.95 -9.65 -10.15 -9.65 -9.5 -9.0 -8.9 -8.4 -8.9 -7.6 -8.9 -6.8 -9.5 -6.15 -10.15 -5.55 -10.95 -5.55 -11.75 -5.55 -12.35 -6.15 -13.0 -6.8 -13.0 -7.6 -13.0 -8.4 -12.35 -9.0 M-12.5 -7.6 Q-12.5 -7.0 -12.0 -6.5 -11.55 -6.05 -10.95 -6.05 -10.35 -6.05 -9.85 -6.5 -9.4 -7.0 -9.4 -7.6 -9.4 -8.2 -9.85 -8.65 -10.35 -9.15 -10.95 -9.15 -11.55 -9.15 -12.0 -8.65 -12.5 -8.2 -12.5 -7.6 M-10.5 -8.4 L-10.35 -7.6 -10.35 -7.55 -10.5 -6.75 Q-10.7 -6.25 -11.0 -6.3 -11.3 -6.25 -11.45 -6.75 L-11.65 -7.6 -11.45 -8.45 -11.45 -8.4 Q-11.3 -8.95 -11.0 -8.9 -10.7 -8.95 -10.5 -8.4 M-11.0 -8.25 L-10.95 -8.25 -11.0 -8.35 -11.0 -8.25 -11.15 -7.6 -11.0 -6.95 -11.0 -6.9 -11.0 -6.85 -10.95 -6.9 -11.0 -6.9 -10.85 -7.55 -10.85 -7.6 -11.0 -8.25 M-10.2 -10.85 L-10.25 -10.85 -10.95 -10.95 Q-12.3 -10.95 -13.25 -9.9 -14.3 -8.95 -14.3 -7.6 -14.3 -6.25 -13.25 -5.2 -12.3 -4.25 -10.95 -4.25 L-10.25 -4.3 -9.35 -4.65 -9.2 -4.7 -9.05 -4.75 -8.6 -4.9 -8.65 -5.05 -8.55 -5.2 Q-7.9 -5.95 -7.65 -6.9 L-7.65 -7.0 -7.65 -7.05 -7.6 -7.6 -7.65 -8.1 Q-7.85 -9.15 -8.55 -9.9 L-9.15 -10.35 -9.3 -10.5 -9.35 -10.5 -9.45 -10.6 -9.55 -10.6 -10.2 -10.85 M0.25 2.7 L0.25 2.65 -0.15 1.65 -0.2 1.8 -0.25 1.85 Q-0.7 2.4 -1.2 2.4 L-1.95 2.1 -2.15 1.85 -2.35 1.4 -2.55 1.55 -2.6 1.55 Q-3.05 2.0 -3.05 2.65 L-3.0 3.0 -3.0 3.1 -2.9 3.25 -2.6 3.7 -2.55 3.75 Q-2.1 4.2 -1.4 4.2 L-0.55 3.95 -0.5 3.95 -0.25 3.75 -0.15 3.65 Q0.25 3.2 0.25 2.7 M6.95 3.5 L6.75 3.85 6.75 3.9 6.55 4.1 Q5.85 4.7 5.0 4.7 L4.2 4.55 Q4.2 5.8 4.95 6.3 L7.55 6.25 7.55 6.1 7.65 5.95 Q7.7 5.85 7.8 5.85 L8.05 5.9 8.05 5.8 Q8.05 5.15 8.4 4.6 7.6 4.15 6.95 3.5 M5.35 1.55 L5.55 1.2 5.0 1.1 4.15 1.3 4.2 1.35 4.25 1.55 Q4.5 1.9 4.8 1.9 L5.35 1.55 M6.2 1.55 L6.0 1.4 5.8 1.8 5.75 1.85 4.8 2.4 Q4.3 2.4 3.85 1.85 L3.85 1.8 3.75 1.6 Q3.35 2.05 3.35 2.65 3.35 3.2 3.8 3.65 L3.85 3.75 3.9 3.9 4.1 3.95 5.0 4.2 Q5.65 4.2 6.2 3.75 L6.35 3.55 6.6 3.0 6.7 2.85 6.65 2.7 Q6.6 2.0 6.2 1.55 M14.2 7.0 L14.15 7.0 13.05 6.85 13.0 6.85 8.3 6.4 8.25 6.4 8.05 6.4 8.05 7.45 8.95 7.5 9.1 7.6 9.15 7.55 9.35 7.65 9.4 7.7 9.45 7.65 9.65 7.6 11.7 7.9 11.75 7.85 11.95 7.8 14.2 8.05 14.2 7.0 M11.2 4.0 L11.25 4.15 11.25 4.2 11.35 5.45 11.35 5.55 11.9 5.55 11.5 4.35 11.2 4.0 M12.3 4.4 L11.95 4.15 12.4 5.65 12.4 5.7 12.4 5.85 12.3 6.0 12.15 6.05 11.1 6.05 10.95 6.0 10.85 5.85 10.85 5.45 10.75 4.25 10.65 3.75 Q9.75 3.75 9.2 4.4 L9.0 4.45 9.0 4.65 8.85 4.75 8.85 4.85 Q8.55 5.25 8.55 5.8 L8.55 5.95 12.85 6.35 12.85 5.95 12.85 5.85 12.85 5.8 Q12.8 4.95 12.3 4.4 M15.1 1.45 Q15.1 0.8 14.7 0.35 14.3 0.0 13.8 -0.15 L13.8 0.5 14.4 0.85 14.7 1.3 14.7 1.5 14.7 1.55 14.7 1.65 14.7 6.75 14.7 6.9 14.7 7.0 14.7 8.05 14.7 8.2 14.7 8.35 14.7 8.45 14.7 8.55 14.7 9.35 15.1 9.35 15.1 1.45 M14.8 -0.2 L15.05 0.0 Q15.6 0.6 15.6 1.45 L15.6 9.35 20.95 9.35 20.95 1.35 21.0 1.25 20.95 1.15 20.55 0.25 Q20.05 -0.2 19.4 -0.2 L14.8 -0.2 M6.05 -3.85 L6.3 -3.3 6.55 -3.65 6.05 -3.85 M1.2 -5.75 L0.85 -5.65 0.65 -5.65 0.6 -5.65 -1.35 -5.05 -1.5 -5.05 -1.6 -4.95 -2.1 -4.8 -2.3 -4.85 -2.4 -5.0 -2.35 -5.2 -2.2 -5.3 -1.8 -5.4 -1.65 -5.45 -1.5 -5.55 -1.15 -5.65 -1.2 -5.75 -1.1 -5.9 -0.75 -6.4 -0.55 -7.05 -0.5 -7.45 -0.55 -7.7 -0.55 -7.8 -0.65 -8.2 -0.75 -8.5 -1.1 -8.95 -1.15 -9.0 Q-1.35 -9.25 -1.5 -9.3 L-1.55 -9.3 -1.6 -9.35 -2.1 -9.55 -2.15 -9.55 -2.5 -9.65 -2.55 -9.65 -2.75 -9.7 -2.8 -9.7 -3.55 -9.55 -4.3 -9.0 -4.35 -9.0 -4.25 -9.0 -4.1 -8.9 -4.05 -8.85 -3.85 -8.9 -3.25 -8.75 -3.2 -8.75 -3.05 -8.7 -2.75 -8.55 -2.7 -8.55 -2.45 -8.35 -2.3 -8.2 -2.25 -8.1 -2.15 -7.8 -2.15 -7.75 -2.15 -7.6 -2.15 -7.45 -2.15 -7.35 -2.45 -6.8 -2.6 -6.7 -2.65 -6.65 -2.8 -6.55 -3.3 -6.45 -3.45 -6.45 -3.5 -6.4 -3.8 -6.3 -4.0 -6.3 -4.05 -6.35 -4.1 -6.3 -4.25 -6.2 -4.45 -6.25 -4.5 -6.3 -4.55 -6.4 -4.5 -6.6 -4.15 -7.15 -4.2 -7.15 -4.15 -7.6 -4.2 -8.1 -4.5 -8.6 -4.55 -8.75 -4.55 -8.8 -4.65 -8.8 -4.8 -8.85 -5.7 -9.15 -5.85 -9.15 -5.95 -9.15 -7.9 -9.9 Q-7.35 -9.15 -7.15 -8.2 L-7.1 -7.65 -6.9 -8.45 -6.9 -8.4 Q-6.75 -8.95 -6.45 -8.9 -6.15 -8.95 -5.9 -8.45 L-5.9 -8.4 -5.8 -7.6 -5.9 -6.75 -5.95 -6.65 -6.05 -6.6 -6.45 -6.3 Q-6.65 -6.3 -6.75 -6.45 L-6.85 -6.6 -6.95 -6.8 -7.1 -7.55 -7.15 -6.95 -7.15 -6.85 -7.15 -6.8 Q-7.4 -5.9 -7.95 -5.15 L-7.35 -5.35 -7.3 -5.4 -7.2 -5.45 -5.8 -6.0 -5.6 -6.0 -5.55 -6.0 -5.5 -6.05 -5.1 -6.15 -5.0 -6.2 -4.9 -6.25 -4.7 -6.25 -4.6 -6.2 -4.55 -6.15 -4.35 -5.9 -4.3 -5.85 Q-3.7 -5.2 -2.75 -5.2 L-2.55 -5.1 -2.5 -4.95 -2.55 -4.75 -2.75 -4.7 Q-3.9 -4.7 -4.65 -5.5 L-4.85 -5.7 -4.9 -5.7 -5.4 -5.55 -5.55 -5.55 -5.6 -5.55 -6.85 -5.05 -6.85 -4.95 -6.85 -4.6 -6.85 -4.45 -6.85 -4.35 Q-6.85 -3.95 -6.4 -3.65 -5.95 -3.3 -5.3 -3.3 L-5.15 -3.25 -5.05 -3.3 -1.1 -3.3 -0.95 -3.25 -0.8 -3.3 -0.6 -3.15 -0.6 -3.05 -0.5 -3.2 -0.35 -3.3 -0.3 -3.3 -0.1 -3.35 0.05 -3.35 0.25 -3.35 0.35 -3.45 0.8 -3.5 0.85 -3.7 1.05 -3.9 1.2 -4.4 1.2 -5.75 M4.75 -3.8 L4.05 -3.6 3.95 -3.6 3.8 -3.55 0.45 -2.95 0.3 -2.95 0.25 -2.9 -0.1 -2.85 -0.25 -2.8 -0.35 -2.8 -0.5 -2.85 -0.6 -3.0 -0.65 -2.65 Q-0.65 -1.35 0.25 -0.4 L0.3 -0.35 4.85 -0.35 4.9 -0.4 Q5.75 -1.35 5.75 -2.65 L5.85 -2.8 5.9 -2.85 5.5 -3.9 5.5 -4.05 5.5 -4.1 5.45 -4.2 5.35 -4.2 5.25 -4.25 5.2 -4.3 5.15 -4.35 4.75 -3.85 4.75 -3.8 M2.0 -6.4 L1.85 -6.25 1.75 -6.15 1.55 -5.95 1.65 -5.9 1.7 -5.75 1.7 -4.3 1.5 -3.65 1.45 -3.65 3.7 -4.05 3.85 -4.0 4.0 -4.1 4.5 -4.25 4.7 -4.65 4.7 -5.0 Q4.05 -5.15 3.6 -5.65 L3.55 -5.7 3.2 -6.25 3.05 -6.25 2.0 -6.4 M2.4 -8.7 L1.85 -8.65 Q2.3 -8.15 2.3 -7.45 L2.25 -6.9 3.0 -6.75 2.9 -7.45 Q2.9 -8.1 3.15 -8.6 L2.4 -8.7 M4.1 -9.6 L3.3 -9.7 Q2.0 -9.7 0.95 -8.9 L0.8 -8.8 0.65 -8.75 Q0.5 -8.75 0.45 -8.85 L0.4 -8.85 -0.55 -9.05 -0.3 -8.7 -0.3 -8.65 -0.2 -8.45 -0.15 -8.35 -0.05 -7.9 -0.05 -7.85 -0.05 -7.7 0.0 -7.6 0.0 -7.5 0.0 -7.4 -0.05 -7.0 -0.05 -6.9 -0.3 -6.2 -0.55 -5.85 0.45 -6.15 0.65 -6.1 0.7 -6.15 1.1 -6.25 1.25 -6.35 1.35 -6.4 1.4 -6.5 1.45 -6.55 1.5 -6.6 1.6 -6.8 1.65 -6.8 1.8 -7.45 1.55 -8.25 1.35 -8.5 1.2 -8.5 1.1 -8.65 1.1 -8.85 1.2 -8.95 2.4 -9.2 3.5 -9.0 3.5 -9.05 3.6 -9.2 4.1 -9.6 M9.65 -6.6 L9.65 -8.1 8.35 -10.25 8.35 -4.25 9.65 -6.6 M5.65 -10.1 L5.65 -9.9 Q6.35 -9.8 6.95 -9.2 7.6 -8.5 7.6 -7.45 L7.55 -6.85 6.95 -5.65 Q6.5 -5.2 5.95 -5.05 L5.65 -4.95 5.65 -4.55 5.75 -4.5 7.05 -3.95 7.15 -3.9 7.3 -3.85 7.85 -3.6 7.85 -10.85 5.65 -10.1 M7.95 -11.4 L8.0 -11.4 8.15 -11.45 8.2 -11.4 8.3 -11.35 8.35 -11.3 10.15 -8.3 10.15 -8.2 10.15 -6.55 10.15 -6.4 8.35 -3.1 8.2 -3.0 8.0 -3.0 7.95 -3.05 7.1 -3.4 7.05 -3.45 7.0 -3.4 6.45 -2.75 6.25 -2.6 Q6.25 -1.3 5.5 -0.35 L5.75 -0.35 5.9 -0.3 6.0 -0.35 Q6.6 -0.35 7.05 0.1 7.45 0.5 7.45 1.1 L7.45 1.25 7.45 1.35 7.45 2.6 7.4 3.05 7.35 3.2 8.75 4.2 8.85 4.05 Q9.55 3.25 10.65 3.25 L10.7 3.25 10.8 3.25 Q11.85 3.3 12.65 4.05 13.3 4.75 13.35 5.8 L13.35 5.95 13.35 6.4 14.2 6.5 14.2 1.65 14.25 1.55 14.25 1.5 14.05 1.2 14.0 1.15 Q13.85 0.95 13.55 0.95 L13.4 0.9 13.3 0.7 13.3 -0.45 13.4 -0.6 13.4 -0.65 13.55 -0.7 19.4 -0.7 Q20.25 -0.7 20.9 -0.1 21.35 0.4 21.45 1.05 L21.45 1.25 21.45 1.35 21.45 9.6 21.4 9.8 21.2 9.85 21.1 9.85 20.95 9.85 14.45 9.85 14.3 9.8 14.2 9.6 14.2 8.55 11.9 8.3 11.8 8.4 10.95 8.6 10.8 8.6 10.65 8.6 Q9.65 8.6 9.0 8.0 L8.9 8.0 7.8 7.9 7.65 7.85 7.55 7.65 7.55 6.8 Q6.35 6.6 4.9 6.8 L4.75 6.8 Q3.65 6.15 3.7 4.45 L3.75 4.3 3.7 4.2 3.7 4.15 3.65 4.15 3.5 4.1 3.45 4.05 0.1 4.05 0.1 4.1 -0.15 4.3 Q-0.05 5.9 -0.95 6.6 L-1.05 6.65 -1.15 6.75 -1.35 6.8 Q-4.0 6.35 -5.55 7.3 L-5.55 7.4 -5.55 7.8 -5.6 7.95 -5.75 8.05 -6.25 8.1 -6.35 8.1 Q-7.15 8.85 -8.15 8.9 L-8.3 8.9 -8.45 8.9 -9.35 8.65 -9.5 8.5 -9.5 8.45 -9.6 8.45 -9.75 8.45 -9.85 8.45 -15.05 9.0 -15.05 9.8 -15.1 10.0 -15.3 10.05 -15.95 10.05 -16.05 10.05 -16.2 10.05 -16.3 10.05 -16.45 10.05 -21.8 10.05 -21.9 10.05 -22.05 10.05 -22.2 10.0 -22.3 9.8 -22.3 1.55 -22.2 1.4 -22.25 1.3 Q-22.2 0.6 -21.7 0.1 -21.1 -0.5 -20.25 -0.5 L-14.4 -0.5 -14.25 -0.45 -14.2 -0.4 -14.15 -0.25 -14.15 0.9 -14.2 1.1 -14.35 1.15 -14.85 1.35 -14.85 1.4 -15.0 1.65 -15.05 1.8 -15.05 1.85 -15.05 6.95 -10.9 6.55 -10.9 6.5 -10.9 6.2 -10.9 6.05 Q-10.9 5.05 -10.15 4.3 -9.45 3.6 -8.5 3.55 L-8.45 3.55 -8.35 3.6 -8.3 3.6 -8.2 3.55 Q-7.15 3.55 -6.35 4.3 L-6.0 4.7 -5.95 4.7 Q-4.65 4.05 -3.6 3.1 L-3.5 3.0 -3.55 2.65 Q-3.55 1.8 -2.9 1.2 L-2.9 1.15 -2.3 0.8 -2.1 0.8 -2.0 0.85 -1.6 0.1 Q-1.2 -0.35 -0.6 -0.35 L-0.4 -0.25 -0.35 -0.1 -0.4 0.1 -0.6 0.15 Q-1.0 0.15 -1.25 0.45 L-1.4 0.6 Q-0.8 0.6 -0.3 0.9 L-0.25 0.95 -0.15 1.0 0.0 1.1 0.0 1.15 0.15 1.25 Q0.7 1.8 0.75 2.65 L0.5 3.55 3.1 3.55 2.85 2.65 Q2.85 1.8 3.5 1.2 3.55 1.1 3.65 1.1 L3.7 1.0 Q4.2 0.6 5.0 0.6 L5.9 0.8 6.05 0.9 6.15 0.95 6.55 1.2 6.95 1.85 6.95 1.35 7.0 1.25 6.95 1.1 6.7 0.45 Q6.4 0.15 6.0 0.15 L5.9 0.15 5.75 0.15 5.25 0.15 5.1 0.1 5.05 0.05 5.05 0.1 4.85 0.15 0.2 0.15 0.05 0.1 0.0 0.0 -0.1 -0.05 -0.15 -0.1 Q-1.15 -1.15 -1.15 -2.65 L-1.15 -2.8 -5.05 -2.8 -5.15 -2.8 -5.3 -2.8 Q-6.15 -2.8 -6.7 -3.25 -7.35 -3.75 -7.35 -4.35 L-7.3 -4.45 -7.35 -4.6 -7.35 -4.85 -8.9 -4.3 -9.0 -4.3 -9.1 -4.2 -10.1 -3.8 -10.15 -3.8 -10.95 -3.75 Q-12.5 -3.75 -13.6 -4.85 -14.8 -6.05 -14.8 -7.6 -14.8 -9.15 -13.6 -10.25 -12.5 -11.45 -10.95 -11.45 L-10.1 -11.35 -10.15 -11.35 -9.35 -11.05 -8.75 -11.8 Q-7.85 -12.75 -6.55 -12.75 L-6.25 -12.75 -5.6 -12.6 -5.55 -12.6 -5.4 -12.6 -3.0 -12.15 Q-2.1 -12.1 -1.35 -11.4 -0.6 -10.65 -0.6 -9.6 L0.5 -9.35 0.6 -9.25 Q1.8 -10.2 3.3 -10.2 L4.95 -9.85 5.1 -9.75 5.1 -9.7 5.1 -9.55 4.95 -9.4 4.75 -9.4 4.7 -9.45 4.7 -9.4 4.55 -9.25 Q4.2 -9.15 3.95 -8.85 L3.8 -8.8 3.8 -8.65 3.65 -8.5 3.65 -8.45 3.4 -7.45 3.5 -6.75 3.5 -6.7 3.6 -6.6 3.95 -6.0 Q4.4 -5.55 5.0 -5.45 L5.1 -5.4 5.25 -5.45 5.4 -5.45 5.75 -5.5 5.8 -5.55 6.6 -6.0 7.05 -6.95 7.1 -7.45 Q7.1 -8.3 6.6 -8.85 6.05 -9.4 5.4 -9.45 L5.25 -9.5 5.15 -9.7 5.15 -10.3 5.2 -10.45 5.35 -10.5 7.95 -11.4" fill="#000000" fill-rule="evenodd" stroke="none"/>
  </g>
  <defs>
    <linearGradient gradientTransform="matrix(0.0011, 0.0, 0.0, 0.0049, 9.0, -7.25)" gradientUnits="userSpaceOnUse" id="gradient0" spreadMethod="pad" x1="-819.2" x2="819.2">
      <stop offset="0.0" stop-color="#3c464f"/>
      <stop offset="1.0" stop-color="#000000"/>
    </linearGradient>
    <radialGradient cx="0" cy="0" gradientTransform="matrix(0.0041, 0.0, 0.0, 0.0041, 4.5, -8.35)" gradientUnits="userSpaceOnUse" id="gradient1" r="819.2" spreadMethod="pad">
      <stop offset="0.0784313725490196" stop-color="#ffdfdf"/>
      <stop offset="0.4235294117647059" stop-color="#ff0000"/>
    </radialGradient>
    <linearGradient gradientTransform="matrix(0.0016, 0.0, 0.0, 0.0049, 6.75, -7.25)" gradientUnits="userSpaceOnUse" id="gradient2" spreadMethod="pad" x1="-819.2" x2="819.2">
      <stop offset="0.0" stop-color="#3c464f"/>
      <stop offset="1.0" stop-color="#000000"/>
    </linearGradient>
    <linearGradient gradientTransform="matrix(-0.0048, 8.0E-4, -9.0E-4, -0.005, 2.2, -3.0)" gradientUnits="userSpaceOnUse" id="gradient3" spreadMethod="pad" x1="-819.2" x2="819.2">
      <stop offset="0.0" stop-color="#3c464f"/>
      <stop offset="1.0" stop-color="#000000"/>
    </linearGradient>
    <radialGradient cx="0" cy="0" gradientTransform="matrix(0.0066, 0.0, 0.0, 0.0066, 0.9, -4.9)" gradientUnits="userSpaceOnUse" id="gradient4" r="819.2" spreadMethod="pad">
      <stop offset="0.0" stop-color="#6a7d8a"/>
      <stop offset="0.32941176470588235" stop-color="#3c464f"/>
      <stop offset="1.0" stop-color="#000000"/>
    </radialGradient>
    <radialGradient cx="0" cy="0" gradientTransform="matrix(0.0044, 0.0, 0.0, 0.0044, 0.9, -6.85)" gradientUnits="userSpaceOnUse" id="gradient5" r="819.2" spreadMethod="pad">
      <stop offset="0.0" stop-color="#6a7d8a"/>
      <stop offset="0.32941176470588235" stop-color="#3c464f"/>
      <stop offset="1.0" stop-color="#000000"/>
    </radialGradient>
    <radialGradient cx="0" cy="0" gradientTransform="matrix(0.0058, 0.0, 0.0, 0.0058, 4.5, -4.9)" gradientUnits="userSpaceOnUse" id="gradient6" r="819.2" spreadMethod="pad">
      <stop offset="0.0" stop-color="#6a7d8a"/>
      <stop offset="0.32941176470588235" stop-color="#3c464f"/>
      <stop offset="1.0" stop-color="#000000"/>
    </radialGradient>
    <radialGradient cx="0" cy="0" gradientTransform="matrix(0.0075, 0.0, 0.0, 0.0075, 0.0, -2.35)" gradientUnits="userSpaceOnUse" id="gradient7" r="819.2" spreadMethod="pad">
      <stop offset="0.0" stop-color="#a2aeb7"/>
      <stop offset="0.42745098039215684" stop-color="#3c464f"/>
      <stop offset="1.0" stop-color="#000000"/>
    </radialGradient>
    <linearGradient gradientTransform="matrix(0.0052, 0.0, 0.0, 0.0024, -2.85, -5.05)" gradientUnits="userSpaceOnUse" id="gradient8" spreadMethod="pad" x1="-819.2" x2="819.2">
      <stop offset="0.0" stop-color="#3c464f"/>
      <stop offset="1.0" stop-color="#000000"/>
    </linearGradient>
    <radialGradient cx="0" cy="0" gradientTransform="matrix(0.0066, 0.0, 0.0, 0.0066, 3.15, 1.85)" gradientUnits="userSpaceOnUse" id="gradient9" r="819.2" spreadMethod="pad">
      <stop offset="0.0" stop-color="#44501f"/>
      <stop offset="1.0" stop-color="#000000"/>
    </radialGradient>
    <radialGradient cx="0" cy="0" gradientTransform="matrix(0.0105, 0.0, 0.0, 0.0105, 16.35, 2.45)" gradientUnits="userSpaceOnUse" id="gradient10" r="819.2" spreadMethod="pad">
      <stop offset="0.00392156862745098" stop-color="#7aba3a"/>
      <stop offset="0.6" stop-color="#2b4015"/>
    </radialGradient>
    <linearGradient gradientTransform="matrix(0.0029, 0.0, 0.0, 0.003, 10.7, 5.95)" gradientUnits="userSpaceOnUse" id="gradient11" spreadMethod="pad" x1="-819.2" x2="819.2">
      <stop offset="0.0" stop-color="#413a38"/>
      <stop offset="1.0" stop-color="#000000"/>
    </linearGradient>
    <linearGradient gradientTransform="matrix(0.0023, 0.0, 0.0, 0.0021, 5.0, 2.7)" gradientUnits="userSpaceOnUse" id="gradient12" spreadMethod="pad" x1="-819.2" x2="819.2">
      <stop offset="0.0" stop-color="#413a38"/>
      <stop offset="1.0" stop-color="#000000"/>
    </linearGradient>
    <linearGradient gradientTransform="matrix(0.0054, 0.0, 0.0, 0.0028, 8.35, 5.35)" gradientUnits="userSpaceOnUse" id="gradient13" spreadMethod="pad" x1="-819.2" x2="819.2">
      <stop offset="0.0" stop-color="#413a38"/>
      <stop offset="1.0" stop-color="#000000"/>
    </linearGradient>
    <linearGradient gradientTransform="matrix(0.0023, 0.0, 0.0, 0.0021, -1.4, 2.7)" gradientUnits="userSpaceOnUse" id="gradient14" spreadMethod="pad" x1="-819.2" x2="819.2">
      <stop offset="0.0" stop-color="#413a38"/>
      <stop offset="1.0" stop-color="#000000"/>
    </linearGradient>
    <radialGradient cx="0" cy="0" gradientTransform="matrix(0.006, 0.0, 0.0, 0.006, -8.55, -10.0)" gradientUnits="userSpaceOnUse" id="gradient15" r="819.2" spreadMethod="pad">
      <stop offset="0.0" stop-color="#6a7d8a"/>
      <stop offset="0.32941176470588235" stop-color="#3c464f"/>
      <stop offset="1.0" stop-color="#000000"/>
    </radialGradient>
    <linearGradient gradientTransform="matrix(0.0044, 0.0, 0.0, 0.0044, -10.95, -7.6)" gradientUnits="userSpaceOnUse" id="gradient16" spreadMethod="pad" x1="-819.2" x2="819.2">
      <stop offset="0.0" stop-color="#b7b7b7"/>
      <stop offset="1.0" stop-color="#606060"/>
    </linearGradient>
    <linearGradient gradientTransform="matrix(0.0022, 0.0, 0.0, 0.0022, -10.95, -7.6)" gradientUnits="userSpaceOnUse" id="gradient17" spreadMethod="pad" x1="-819.2" x2="819.2">
      <stop offset="0.0" stop-color="#6c6c6c"/>
      <stop offset="1.0" stop-color="#101010"/>
    </linearGradient>
    <radialGradient cx="0" cy="0" gradientTransform="matrix(0.0105, 0.0, 0.0, 0.0105, -20.4, 2.3)" gradientUnits="userSpaceOnUse" id="gradient18" r="819.2" spreadMethod="pad">
      <stop offset="0.00392156862745098" stop-color="#7aba3a"/>
      <stop offset="0.6" stop-color="#2b4015"/>
    </radialGradient>
    <radialGradient cx="0" cy="0" gradientTransform="matrix(0.0048, 0.0, 0.0, 0.0048, -3.35, -9.6)" gradientUnits="userSpaceOnUse" id="gradient19" r="819.2" spreadMethod="pad">
      <stop offset="0.0" stop-color="#a2aeb7"/>
      <stop offset="0.42745098039215684" stop-color="#3c464f"/>
      <stop offset="1.0" stop-color="#000000"/>
    </radialGradient>
    <radialGradient cx="0" cy="0" gradientTransform="matrix(0.0046, 0.0, 0.0, 0.0046, -3.75, -7.15)" gradientUnits="userSpaceOnUse" id="gradient20" r="819.2" spreadMethod="pad">
      <stop offset="0.0" stop-color="#6a7d8a"/>
      <stop offset="0.32941176470588235" stop-color="#3c464f"/>
      <stop offset="1.0" stop-color="#000000"/>
    </radialGradient>
    <linearGradient gradientTransform="matrix(0.0012, 0.0, 0.0, 0.0014, -3.35, -7.6)" gradientUnits="userSpaceOnUse" id="gradient21" spreadMethod="pad" x1="-819.2" x2="819.2">
      <stop offset="0.0" stop-color="#3c464f"/>
      <stop offset="1.0" stop-color="#000000"/>
    </linearGradient>
    <linearGradient gradientTransform="matrix(0.0033, 0.0, 0.0, 0.0038, -6.55, -7.55)" gradientUnits="userSpaceOnUse" id="gradient22" spreadMethod="pad" x1="-819.2" x2="819.2">
      <stop offset="0.0" stop-color="#b7b7b7"/>
      <stop offset="1.0" stop-color="#606060"/>
    </linearGradient>
    <linearGradient gradientTransform="matrix(0.0054, 0.0, 0.0, 0.0028, -4.8, 5.35)" gradientUnits="userSpaceOnUse" id="gradient23" spreadMethod="pad" x1="-819.2" x2="819.2">
      <stop offset="0.0" stop-color="#413a38"/>
      <stop offset="1.0" stop-color="#000000"/>
    </linearGradient>
    <linearGradient gradientTransform="matrix(0.003, 0.0, 0.0, 0.003, -8.25, 6.2)" gradientUnits="userSpaceOnUse" id="gradient24" spreadMethod="pad" x1="-819.2" x2="819.2">
      <stop offset="0.0" stop-color="#413a38"/>
      <stop offset="1.0" stop-color="#000000"/>
    </linearGradient>
  </defs>
</svg>
