<?xml version="1.0" encoding="UTF-8" standalone="no"?>
<svg xmlns:xlink="http://www.w3.org/1999/xlink" height="22.85px" width="43.75px" xmlns="http://www.w3.org/2000/svg">
  <g transform="matrix(1.0, 0.0, 0.0, 1.0, 22.3, 12.8)">
    <path d="M5.4 -4.45 L5.45 -4.4 5.4 -4.45" fill="url(#gradient0)" fill-rule="evenodd" stroke="none"/>
    <path d="M5.4 -5.2 L5.4 -4.45 4.95 -5.0 4.95 -5.2 5.25 -5.2 5.4 -5.2 M5.45 -4.4 L5.65 -4.3 5.6 -4.15 5.45 -4.4" fill="url(#gradient1)" fill-rule="evenodd" stroke="none"/>
    <path d="M11.9 8.05 L10.7 8.35 10.65 8.35 Q9.75 8.35 9.15 7.8 L11.9 8.05" fill="url(#gradient2)" fill-rule="evenodd" stroke="none"/>
    <path d="M-2.85 -6.8 L-3.1 -6.7 -3.3 -6.7 -3.35 -6.7 -2.85 -6.8" fill="url(#gradient3)" fill-rule="evenodd" stroke="none"/>
    <path d="M-6.5 7.9 L-6.55 7.9 -6.5 7.9" fill="url(#gradient4)" fill-rule="evenodd" stroke="none"/>
    <path d="M-7.1 -5.25 L-9.25 -4.45 Q-8.8 -4.7 -8.4 -5.05 -7.65 -5.85 -7.4 -6.85 L-7.4 -7.0 -7.35 -7.6 -7.4 -8.15 Q-7.6 -9.25 -8.4 -10.1 L-9.15 -10.7 -5.85 -9.4 -5.7 -9.4 Q-5.15 -9.4 -4.65 -9.05 L-4.45 -8.85 -4.3 -8.75 -4.0 -8.2 -3.9 -7.6 -3.95 -7.1 Q-4.05 -6.8 -4.3 -6.45 L-4.45 -6.35 -4.8 -6.05 -5.7 -5.8 -7.1 -5.25 M20.2 8.05 L20.3 8.3 20.2 8.55 19.95 8.65 19.7 8.55 19.6 8.3 19.7 8.05 Q19.8 7.95 19.95 7.95 L20.2 8.05 M-6.45 -8.65 L-6.7 -8.35 -6.85 -7.6 -6.7 -6.85 -6.65 -6.7 -6.6 -6.65 -6.45 -6.55 -6.25 -6.75 -6.15 -6.85 -6.05 -7.6 -6.15 -8.35 -6.45 -8.65 M-5.1 -7.95 L-5.15 -8.1 -5.2 -8.1 -5.35 -7.95 -5.4 -7.6 -5.35 -7.25 -5.2 -7.05 -5.1 -7.25 -5.05 -7.6 -5.1 -7.95" fill="#afafaf" fill-rule="evenodd" stroke="none"/>
    <path d="M4.85 -9.65 L5.25 -9.7 5.4 -9.7 Q6.15 -9.65 6.75 -9.05 7.35 -8.4 7.35 -7.45 L7.3 -6.9 6.75 -5.85 5.85 -5.3 5.4 -5.2 5.25 -5.2 4.95 -5.2 Q4.25 -5.3 3.75 -5.85 L3.35 -6.5 3.15 -7.45 Q3.15 -8.2 3.55 -8.75 L3.75 -9.05 Q4.2 -9.55 4.85 -9.65" fill="#e7e7e7" fill-rule="evenodd" stroke="none"/>
    <path d="M20.4 3.95 L19.95 4.1 Q19.7 4.1 19.55 3.95 L19.35 3.5 19.55 3.1 19.95 2.9 20.4 3.1 20.55 3.5 20.4 3.95 M20.55 5.15 L20.4 5.6 19.95 5.75 Q19.7 5.75 19.55 5.6 L19.35 5.15 19.55 4.75 19.95 4.55 20.4 4.75 20.55 5.15 M20.55 1.85 L20.4 2.3 19.95 2.45 Q19.7 2.45 19.55 2.3 L19.35 1.85 19.55 1.45 19.95 1.25 20.4 1.45 20.55 1.85 M20.55 6.8 L20.4 7.25 19.95 7.4 Q19.7 7.4 19.55 7.25 L19.35 6.8 19.55 6.4 19.95 6.2 20.4 6.4 20.55 6.8 M20.55 8.3 L20.4 8.75 19.95 8.9 Q19.7 8.9 19.55 8.75 L19.35 8.3 19.55 7.9 19.95 7.7 20.4 7.9 20.55 8.3 M18.3 1.25 L18.75 1.45 18.9 1.85 18.75 2.3 18.3 2.45 17.9 2.3 17.7 1.9 17.7 1.85 17.9 1.45 Q18.05 1.25 18.3 1.25 M18.65 1.85 L18.55 1.6 18.3 1.5 18.05 1.6 17.95 1.85 18.05 2.1 18.3 2.2 18.55 2.1 18.65 1.85 M18.3 2.9 L18.75 3.1 18.9 3.5 18.75 3.95 18.3 4.1 17.9 3.95 17.7 3.55 17.7 3.5 17.9 3.1 Q18.05 2.9 18.3 2.9 M19.7 2.1 L19.95 2.2 20.2 2.1 20.3 1.85 20.2 1.6 19.95 1.5 Q19.8 1.5 19.7 1.6 L19.6 1.85 19.7 2.1 M17.1 1.45 L17.25 1.85 17.1 2.3 16.65 2.45 16.25 2.3 16.05 1.85 16.25 1.45 16.65 1.25 17.1 1.45 M16.4 1.6 L16.3 1.85 16.4 2.1 16.65 2.2 16.9 2.1 17.0 1.85 16.9 1.6 16.65 1.5 16.4 1.6 M17.1 3.1 L17.25 3.5 17.1 3.95 16.65 4.1 16.25 3.95 16.05 3.5 16.25 3.1 16.65 2.9 17.1 3.1 M16.4 4.9 L16.3 5.15 16.4 5.4 16.65 5.5 16.9 5.4 17.0 5.15 16.9 4.9 16.65 4.8 16.4 4.9 M16.9 3.25 L16.65 3.15 16.4 3.25 16.3 3.5 16.4 3.75 16.65 3.85 16.9 3.75 17.0 3.5 16.9 3.25 M16.25 4.75 L16.65 4.55 17.1 4.75 17.25 5.15 17.1 5.6 16.65 5.75 16.25 5.6 16.05 5.2 16.05 5.15 16.25 4.75 M17.7 5.15 L17.9 4.75 Q18.05 4.55 18.3 4.55 L18.75 4.75 18.9 5.15 18.75 5.6 18.3 5.75 17.9 5.6 17.7 5.2 17.7 5.15 M19.95 4.8 Q19.8 4.8 19.7 4.9 L19.6 5.15 19.7 5.4 19.95 5.5 20.2 5.4 20.3 5.15 20.2 4.9 19.95 4.8 M18.55 5.4 L18.65 5.15 18.55 4.9 18.3 4.8 18.05 4.9 17.95 5.15 18.05 5.4 18.3 5.5 18.55 5.4 M18.65 3.5 L18.55 3.25 18.3 3.15 18.05 3.25 17.95 3.5 18.05 3.75 18.3 3.85 18.55 3.75 18.65 3.5 M19.7 3.75 L19.95 3.85 20.2 3.75 20.3 3.5 20.2 3.25 19.95 3.15 Q19.8 3.15 19.7 3.25 L19.6 3.5 19.7 3.75 M20.2 6.55 L19.95 6.45 Q19.8 6.45 19.7 6.55 L19.6 6.8 19.7 7.05 19.95 7.15 20.2 7.05 20.3 6.8 20.2 6.55 M18.9 6.8 L18.75 7.25 18.3 7.4 17.9 7.25 17.8 7.1 17.7 6.85 17.7 6.8 17.9 6.4 Q18.05 6.2 18.3 6.2 L18.75 6.4 18.9 6.8 M18.65 6.8 L18.55 6.55 18.3 6.45 18.05 6.55 17.95 6.8 18.05 7.05 18.15 7.15 18.3 7.15 18.55 7.05 18.65 6.8 M18.9 8.3 L18.75 8.75 18.3 8.9 17.9 8.75 17.85 8.65 17.7 8.35 17.7 8.3 17.9 7.9 Q18.05 7.7 18.3 7.7 L18.75 7.9 18.9 8.3 M18.65 8.3 L18.55 8.05 18.3 7.95 18.05 8.05 17.95 8.3 18.05 8.55 18.3 8.65 18.55 8.55 18.65 8.3 M20.2 8.05 L19.95 7.95 Q19.8 7.95 19.7 8.05 L19.6 8.3 19.7 8.55 19.95 8.65 20.2 8.55 20.3 8.3 20.2 8.05 M17.1 6.4 L17.25 6.8 17.2 7.05 17.1 7.25 16.65 7.4 16.25 7.25 16.1 6.9 16.05 6.85 16.05 6.8 16.25 6.4 16.65 6.2 17.1 6.4 M16.3 8.3 L16.35 8.5 16.4 8.55 16.65 8.65 16.9 8.55 17.0 8.3 16.9 8.05 16.65 7.95 16.4 8.05 16.3 8.3 M17.0 6.8 L16.9 6.55 16.65 6.45 16.4 6.55 16.3 6.8 16.35 6.95 16.4 7.05 16.65 7.15 16.9 7.05 16.95 7.0 17.0 6.8 M16.05 8.3 L16.25 7.9 16.65 7.7 17.1 7.9 17.25 8.3 17.2 8.6 17.1 8.75 16.65 8.9 16.25 8.75 16.1 8.5 16.05 8.35 16.05 8.3 M-17.3 1.55 L-17.55 1.45 -17.8 1.55 -17.9 1.8 -17.8 2.05 -17.55 2.15 -17.3 2.05 -17.2 1.8 -17.3 1.55 M-17.1 1.4 Q-16.95 1.55 -16.95 1.8 L-17.1 2.2 Q-17.3 2.4 -17.55 2.4 -17.8 2.4 -17.95 2.2 L-18.15 1.8 -17.95 1.4 -17.55 1.2 -17.1 1.4 M-17.1 3.05 Q-16.95 3.2 -16.95 3.45 L-17.1 3.85 Q-17.3 4.05 -17.55 4.05 -17.8 4.05 -17.95 3.85 L-18.15 3.45 -17.95 3.05 -17.55 2.85 -17.1 3.05 M-19.2 1.2 Q-18.95 1.2 -18.75 1.4 L-18.6 1.8 -18.75 2.2 Q-18.95 2.4 -19.2 2.4 L-19.6 2.2 -19.8 1.8 -19.6 1.4 -19.2 1.2 M-19.2 1.45 L-19.45 1.55 -19.55 1.8 -19.45 2.05 -19.2 2.15 -18.95 2.05 -18.85 1.8 -18.95 1.55 -19.2 1.45 M-19.2 2.85 Q-18.95 2.85 -18.75 3.05 L-18.6 3.45 -18.75 3.85 Q-18.95 4.05 -19.2 4.05 L-19.6 3.85 -19.8 3.45 -19.6 3.05 -19.2 2.85 M-17.8 3.2 L-17.9 3.45 -17.8 3.7 -17.55 3.8 -17.3 3.7 -17.2 3.45 -17.3 3.2 -17.55 3.1 -17.8 3.2 M-18.95 3.7 L-18.85 3.45 -18.95 3.2 -19.2 3.1 -19.45 3.2 -19.55 3.45 -19.45 3.7 -19.2 3.8 -18.95 3.7 M-19.8 5.1 L-19.6 4.7 -19.2 4.5 Q-18.95 4.5 -18.75 4.7 L-18.6 5.1 -18.75 5.5 Q-18.95 5.7 -19.2 5.7 L-19.6 5.5 -19.8 5.1 M-19.55 5.1 L-19.45 5.35 -19.2 5.45 -18.95 5.35 -18.85 5.1 -18.95 4.85 -19.2 4.75 -19.45 4.85 -19.55 5.1 M-17.95 4.7 L-17.55 4.5 -17.1 4.7 Q-16.95 4.85 -16.95 5.1 L-17.1 5.5 Q-17.3 5.7 -17.55 5.7 -17.8 5.7 -17.95 5.5 L-18.15 5.1 -17.95 4.7 M-17.55 7.1 L-17.3 7.0 -17.2 6.75 -17.3 6.5 -17.55 6.4 -17.8 6.5 -17.9 6.75 -17.8 7.0 -17.55 7.1 M-17.9 5.1 L-17.8 5.35 -17.55 5.45 -17.3 5.35 -17.2 5.1 -17.3 4.85 -17.55 4.75 -17.8 4.85 -17.9 5.1 M-17.1 7.15 Q-17.3 7.35 -17.55 7.35 -17.8 7.35 -17.95 7.15 L-18.15 6.75 -17.95 6.35 -17.55 6.15 -17.1 6.35 Q-16.95 6.5 -16.95 6.75 L-17.1 7.15 M-17.55 8.85 Q-17.8 8.85 -17.95 8.65 L-18.15 8.25 -17.95 7.85 -17.55 7.65 -17.1 7.85 Q-16.95 8.0 -16.95 8.25 L-17.1 8.65 Q-17.3 8.85 -17.55 8.85 M-17.3 8.5 L-17.2 8.25 -17.3 8.0 -17.55 7.9 -17.8 8.0 -17.9 8.25 -17.8 8.5 -17.55 8.6 -17.3 8.5 M-18.6 6.75 L-18.75 7.15 Q-18.95 7.35 -19.2 7.35 L-19.6 7.15 -19.8 6.75 -19.6 6.35 -19.2 6.15 Q-18.95 6.15 -18.75 6.35 L-18.6 6.75 M-18.85 6.75 L-18.95 6.5 -19.2 6.4 -19.45 6.5 -19.55 6.75 -19.45 7.0 -19.2 7.1 -18.95 7.0 -18.85 6.75 M-19.8 8.25 L-19.6 7.85 -19.2 7.65 Q-18.95 7.65 -18.75 7.85 L-18.6 8.25 -18.75 8.65 Q-18.95 8.85 -19.2 8.85 L-19.6 8.65 -19.8 8.25 M-19.2 7.9 L-19.45 8.0 -19.55 8.25 -19.45 8.5 -19.2 8.6 -18.95 8.5 -18.85 8.25 -18.95 8.0 -19.2 7.9 M-20.4 1.4 Q-20.25 1.55 -20.25 1.8 L-20.4 2.2 -20.85 2.4 Q-21.1 2.4 -21.25 2.2 L-21.45 1.8 -21.25 1.4 -20.85 1.2 -20.4 1.4 M-20.6 1.55 L-20.85 1.45 -21.1 1.55 -21.2 1.8 -21.1 2.05 -20.85 2.15 -20.6 2.05 -20.5 1.8 -20.6 1.55 M-20.4 3.05 Q-20.25 3.2 -20.25 3.45 L-20.4 3.85 -20.85 4.05 Q-21.1 4.05 -21.25 3.85 L-21.45 3.45 -21.25 3.05 -20.85 2.85 -20.4 3.05 M-20.6 5.35 L-20.5 5.1 -20.6 4.85 -20.85 4.75 -21.1 4.85 -21.2 5.1 -21.1 5.35 -20.85 5.45 -20.6 5.35 M-20.85 3.8 L-20.6 3.7 -20.5 3.45 -20.6 3.2 -20.85 3.1 -21.1 3.2 -21.2 3.45 -21.1 3.7 -20.85 3.8 M-21.45 5.1 L-21.25 4.7 -20.85 4.5 -20.4 4.7 Q-20.25 4.85 -20.25 5.1 L-20.4 5.5 -20.85 5.7 Q-21.1 5.7 -21.25 5.5 L-21.45 5.1 M-20.5 6.75 L-20.6 6.5 -20.85 6.4 -21.1 6.5 -21.2 6.75 -21.1 7.0 -20.85 7.1 -20.6 7.0 -20.5 6.75 M-21.25 6.35 L-20.85 6.15 -20.4 6.35 Q-20.25 6.5 -20.25 6.75 L-20.4 7.15 -20.85 7.35 Q-21.1 7.35 -21.25 7.15 L-21.45 6.75 -21.25 6.35 M-20.6 8.5 L-20.5 8.25 -20.6 8.0 -20.85 7.9 -21.1 8.0 -21.2 8.25 -21.1 8.5 -20.85 8.6 -20.6 8.5 M-21.25 7.85 L-20.85 7.65 -20.4 7.85 Q-20.25 8.0 -20.25 8.25 L-20.4 8.65 -20.85 8.85 Q-21.1 8.85 -21.25 8.65 L-21.45 8.25 -21.25 7.85" fill="#413f41" fill-rule="evenodd" stroke="none"/>
    <path d="M5.4 -9.7 L5.4 -10.3 8.1 -11.2 9.9 -8.2 9.9 -6.55 8.1 -3.25 6.95 -3.75 6.2 -2.9 6.0 -2.65 Q6.0 -1.2 5.0 -0.2 L4.85 -0.1 6.0 -0.1 Q6.5 -0.1 6.85 0.25 7.2 0.6 7.2 1.1 L7.2 2.6 7.05 3.25 6.85 3.05 6.9 2.65 Q6.85 1.9 6.35 1.35 L5.8 1.0 5.0 0.85 Q4.3 0.85 3.85 1.2 L3.65 1.35 Q3.1 1.9 3.1 2.65 3.1 3.3 3.6 3.8 L0.0 3.8 Q0.5 3.3 0.5 2.65 0.45 1.9 -0.1 1.35 L-0.25 1.2 Q-0.75 0.85 -1.4 0.85 L-1.75 0.85 -1.45 0.25 Q-1.1 -0.1 -0.6 -0.1 L0.2 -0.1 0.1 -0.2 Q-0.9 -1.2 -0.9 -2.65 L-0.85 -3.05 -5.3 -3.05 Q-6.05 -3.05 -6.55 -3.45 -7.1 -3.85 -7.1 -4.35 L-7.1 -5.25 -5.7 -5.8 -4.8 -6.05 -4.5 -5.7 Q-3.8 -4.95 -2.75 -4.95 L-2.35 -5.0 -2.15 -5.05 -1.45 -5.3 0.5 -5.9 0.75 -5.9 0.9 -5.95 1.3 -6.1 1.35 -6.15 1.3 -6.1 0.9 -5.95 0.75 -5.9 0.5 -5.9 -1.45 -5.3 -2.15 -5.05 -2.35 -5.0 -2.75 -4.95 Q-3.8 -4.95 -4.5 -5.7 L-4.8 -6.05 -4.45 -6.35 -4.3 -6.45 -3.35 -6.7 -3.3 -6.7 -3.1 -6.7 -2.85 -6.8 -2.65 -6.95 -2.4 -7.4 -2.4 -7.45 -2.4 -7.6 -2.4 -7.75 -2.5 -8.05 -2.65 -8.2 -2.85 -8.35 -3.1 -8.45 -3.25 -8.5 -3.3 -8.5 -4.3 -8.75 -4.45 -8.85 -4.65 -9.05 Q-5.15 -9.4 -5.7 -9.4 L-5.85 -9.4 -9.15 -10.7 -9.25 -10.75 -8.6 -11.65 Q-7.75 -12.5 -6.55 -12.5 L-6.25 -12.5 -5.7 -12.4 -3.05 -11.9 Q-2.2 -11.85 -1.55 -11.25 -0.85 -10.55 -0.85 -9.6 L-0.85 -9.4 0.65 -9.0 Q1.8 -9.95 3.3 -9.95 L4.85 -9.65 Q4.2 -9.55 3.75 -9.05 L3.55 -8.75 Q3.15 -8.2 3.15 -7.45 L3.35 -6.5 1.85 -6.7 2.05 -7.45 Q2.05 -8.05 1.65 -8.5 L1.6 -8.55 1.3 -8.75 2.4 -8.95 3.55 -8.75 2.4 -8.95 1.3 -8.75 1.6 -8.55 1.65 -8.5 Q2.05 -8.05 2.05 -7.45 L1.85 -6.7 3.35 -6.5 3.75 -5.85 Q4.25 -5.3 4.95 -5.2 L4.95 -5.0 4.95 -4.65 4.6 -4.05 3.75 -3.8 0.4 -3.2 0.9 -3.45 1.25 -3.8 1.45 -4.35 1.45 -5.75 1.4 -5.9 1.35 -6.15 1.6 -6.35 1.65 -6.4 1.85 -6.7 1.65 -6.4 1.6 -6.35 1.35 -6.15 1.4 -5.9 1.45 -5.75 1.45 -4.35 1.25 -3.8 0.9 -3.45 0.4 -3.2 3.75 -3.8 4.6 -4.05 4.95 -4.65 4.95 -5.0 5.4 -4.45 5.4 -5.2 5.85 -5.3 6.75 -5.85 7.3 -6.9 7.35 -7.45 Q7.35 -8.4 6.75 -9.05 6.15 -9.65 5.4 -9.7 M13.05 6.6 L14.45 6.75 14.45 1.65 14.2 1.0 Q13.95 0.7 13.55 0.7 L13.55 -0.45 Q14.3 -0.35 14.85 0.15 15.35 0.7 15.35 1.45 L15.35 9.6 14.45 9.6 14.45 8.3 11.9 8.05 9.15 7.8 7.8 7.65 7.8 6.55 7.8 6.1 8.3 6.15 13.05 6.6 M-5.8 7.15 L-5.8 7.8 -6.5 7.9 -6.55 7.9 -9.65 8.2 -15.3 8.75 -15.3 9.8 -16.2 9.8 -16.2 1.65 Q-16.2 0.9 -15.7 0.35 -15.15 -0.15 -14.4 -0.25 L-14.4 0.9 Q-14.8 0.95 -15.05 1.2 L-15.3 1.85 -15.3 7.2 -10.6 6.75 -5.8 6.25 -5.8 7.15 M5.45 -4.4 L5.4 -4.45 5.45 -4.4 5.6 -4.15 5.65 -4.3 5.45 -4.4 M6.95 -3.75 L5.65 -4.3 6.95 -3.75 M0.65 -9.0 L0.85 -8.95 0.95 -8.9 1.3 -8.75 0.95 -8.9 0.85 -8.95 0.65 -9.0 M0.2 -0.1 L4.85 -0.1 0.2 -0.1 M6.0 -2.65 Q6.0 -3.5 5.6 -4.15 6.0 -3.5 6.0 -2.65 M8.1 -3.25 L8.1 -11.2 8.1 -3.25 M14.45 6.75 L14.45 8.3 14.45 6.75 M-0.85 -9.4 L-1.45 -9.55 -2.05 -9.8 -2.5 -9.9 -2.75 -9.95 -2.8 -9.95 -3.65 -9.8 Q-3.7 -10.85 -4.4 -11.6 L-4.5 -11.65 -5.7 -12.4 -4.5 -11.65 -4.4 -11.6 Q-3.7 -10.85 -3.65 -9.8 L-2.8 -9.95 -2.75 -9.95 -2.5 -9.9 -2.05 -9.8 -1.45 -9.55 -0.85 -9.4 M-4.65 -9.05 L-4.5 -9.2 -3.65 -9.8 -4.5 -9.2 -4.65 -9.05 M-1.45 -9.55 L-1.0 -9.2 -0.95 -9.15 -0.55 -8.6 -0.4 -8.3 -0.3 -7.85 -0.3 -7.7 -0.25 -7.5 -0.25 -7.45 -0.3 -7.0 -0.55 -6.3 -0.95 -5.75 -1.0 -5.7 -1.45 -5.3 -1.0 -5.7 -0.95 -5.75 -0.55 -6.3 -0.3 -7.0 -0.25 -7.45 -0.25 -7.5 -0.3 -7.7 -0.3 -7.85 -0.4 -8.3 -0.55 -8.6 -0.95 -9.15 -1.0 -9.2 -1.45 -9.55 M0.4 -3.2 L-0.1 -3.1 -0.25 -3.05 -0.35 -3.05 -0.85 -3.05 -0.35 -3.05 -0.25 -3.05 -0.1 -3.1 0.4 -3.2 M-15.3 8.75 L-15.3 7.2 -15.3 8.75" fill="#959496" fill-rule="evenodd" stroke="none"/>
    <path d="M7.05 3.25 L8.75 4.5 9.0 4.2 Q9.65 3.5 10.65 3.5 L10.7 3.5 Q11.7 3.5 12.45 4.2 13.05 4.85 13.1 5.8 L13.1 5.95 13.05 6.6 8.3 6.15 7.8 6.1 7.8 6.55 Q6.5 6.3 4.85 6.55 3.8 5.95 3.95 4.15 L3.65 3.9 3.6 3.8 Q3.1 3.3 3.1 2.65 3.1 1.9 3.65 1.35 L3.85 1.2 4.05 1.7 4.8 2.15 5.55 1.7 5.8 1.0 6.35 1.35 Q6.85 1.9 6.9 2.65 L6.85 3.05 7.05 3.25 M0.0 3.8 L-0.1 3.9 -0.4 4.15 Q-0.25 5.95 -1.3 6.55 -4.15 6.1 -5.8 7.15 L-5.8 6.25 -5.8 6.2 -5.8 6.05 -6.1 5.0 -5.8 6.05 -5.8 6.2 -5.8 6.25 -10.6 6.75 -10.65 6.2 -10.65 6.05 Q-10.65 5.15 -10.0 4.45 -9.3 3.8 -8.3 3.8 -8.85 3.8 -9.25 4.45 -9.65 5.15 -9.7 6.05 L-8.65 6.05 -8.65 5.7 -8.5 4.45 -8.25 3.8 -8.2 3.8 Q-7.25 3.8 -6.55 4.45 L-6.1 5.0 Q-4.5 4.3 -3.25 3.05 L-3.3 2.65 Q-3.3 1.9 -2.75 1.35 L-2.2 1.0 -1.95 1.7 -1.8 1.9 -1.2 2.15 -0.45 1.7 -0.25 1.2 -0.1 1.35 Q0.45 1.9 0.5 2.65 0.5 3.3 0.0 3.8 M-6.55 7.9 Q-7.25 8.6 -8.2 8.65 L-8.25 8.65 Q-9.05 8.6 -9.65 8.2 L-6.55 7.9 M11.0 4.2 L11.1 5.45 11.1 5.8 12.15 5.8 12.15 5.65 11.7 4.2 Q11.3 3.5 10.7 3.5 L11.0 4.2 M3.95 4.15 L5.0 4.45 Q5.75 4.45 6.35 3.9 L6.55 3.7 6.85 3.05 6.55 3.7 6.35 3.9 Q5.75 4.45 5.0 4.45 L3.95 4.15 M8.75 4.5 Q8.3 5.05 8.3 5.8 L8.3 5.95 8.3 6.15 8.3 5.95 8.3 5.8 Q8.3 5.05 8.75 4.5 M-10.75 -8.35 L-11.0 -8.65 -11.25 -8.35 -11.4 -7.6 -11.25 -6.85 -11.0 -6.55 -10.75 -6.85 -10.6 -7.6 -10.75 -8.35 -10.6 -7.6 -10.75 -6.85 -11.0 -6.55 -11.25 -6.85 -11.4 -7.6 -11.25 -8.35 -11.0 -8.65 -10.75 -8.35 M-12.75 -7.6 Q-12.75 -8.3 -12.2 -8.85 -11.65 -9.4 -10.95 -9.4 -10.25 -9.4 -9.7 -8.85 -9.15 -8.3 -9.15 -7.6 -9.15 -6.9 -9.7 -6.35 -10.25 -5.8 -10.95 -5.8 -11.65 -5.8 -12.2 -6.35 -12.75 -6.9 -12.75 -7.6 M-4.3 -8.75 L-3.3 -8.5 -3.25 -8.5 -3.1 -8.45 -2.85 -8.35 -2.65 -8.2 -2.5 -8.05 -2.4 -7.75 -2.4 -7.6 -2.4 -7.45 -2.4 -7.4 -2.65 -6.95 -2.85 -6.8 -3.35 -6.7 -4.3 -6.45 Q-4.05 -6.8 -3.95 -7.1 L-3.9 -7.6 -4.0 -8.2 -4.3 -8.75 M-5.1 -7.95 L-5.05 -7.6 -5.1 -7.25 -5.2 -7.05 -5.35 -7.25 -5.4 -7.6 -5.35 -7.95 -5.2 -8.1 -5.15 -8.1 -5.1 -7.95 M-6.45 -8.65 L-6.15 -8.35 -6.05 -7.6 -6.15 -6.85 -6.25 -6.75 -6.45 -6.55 -6.6 -6.65 -6.65 -6.7 -6.7 -6.85 -6.85 -7.6 -6.7 -8.35 -6.45 -8.65 M-3.25 3.05 L-2.75 3.9 Q-2.2 4.45 -1.4 4.45 L-0.4 4.15 -1.4 4.45 Q-2.2 4.45 -2.75 3.9 L-3.25 3.05" fill="#6d6b6d" fill-rule="evenodd" stroke="none"/>
    <path d="M13.55 -0.45 L19.4 -0.45 Q20.15 -0.45 20.7 0.05 21.2 0.6 21.2 1.35 L21.2 9.6 15.35 9.6 15.35 1.45 Q15.35 0.7 14.85 0.15 14.3 -0.35 13.55 -0.45 M-16.2 9.8 L-22.05 9.8 -22.05 1.55 Q-22.05 0.8 -21.55 0.25 -21.0 -0.25 -20.25 -0.25 L-14.4 -0.25 Q-15.15 -0.15 -15.7 0.35 -16.2 0.9 -16.2 1.65 L-16.2 9.8 M-8.3 3.8 L-8.25 3.8 -8.5 4.45 -8.65 5.7 -8.65 6.05 -9.7 6.05 Q-9.65 5.15 -9.25 4.45 -8.85 3.8 -8.3 3.8 M-2.2 1.0 L-1.75 0.85 -1.4 0.85 Q-0.75 0.85 -0.25 1.2 L-0.45 1.7 -1.2 2.15 -1.8 1.9 -1.95 1.7 -2.2 1.0 M-9.25 -4.45 Q-9.7 -4.2 -10.2 -4.05 L-10.95 -4.0 Q-12.4 -4.0 -13.45 -5.05 -14.55 -6.15 -14.55 -7.6 -14.55 -9.05 -13.45 -10.1 -12.4 -11.2 -10.95 -11.2 L-10.2 -11.1 -9.25 -10.75 -9.15 -10.7 -8.4 -10.1 Q-7.6 -9.25 -7.4 -8.15 L-7.35 -7.6 -7.4 -7.0 -7.4 -6.85 Q-7.65 -5.85 -8.4 -5.05 -8.8 -4.7 -9.25 -4.45 M18.3 1.25 Q18.05 1.25 17.9 1.45 L17.7 1.85 17.7 1.9 17.9 2.3 18.3 2.45 18.75 2.3 18.9 1.85 18.75 1.45 18.3 1.25 M20.55 8.3 L20.4 7.9 19.95 7.7 19.55 7.9 19.35 8.3 19.55 8.75 Q19.7 8.9 19.95 8.9 L20.4 8.75 20.55 8.3 M20.55 6.8 L20.4 6.4 19.95 6.2 19.55 6.4 19.35 6.8 19.55 7.25 Q19.7 7.4 19.95 7.4 L20.4 7.25 20.55 6.8 M20.55 1.85 L20.4 1.45 19.95 1.25 19.55 1.45 19.35 1.85 19.55 2.3 Q19.7 2.45 19.95 2.45 L20.4 2.3 20.55 1.85 M20.55 5.15 L20.4 4.75 19.95 4.55 19.55 4.75 19.35 5.15 19.55 5.6 Q19.7 5.75 19.95 5.75 L20.4 5.6 20.55 5.15 M20.4 3.95 L20.55 3.5 20.4 3.1 19.95 2.9 19.55 3.1 19.35 3.5 19.55 3.95 Q19.7 4.1 19.95 4.1 L20.4 3.95 M18.65 1.85 L18.55 2.1 18.3 2.2 18.05 2.1 17.95 1.85 18.05 1.6 18.3 1.5 18.55 1.6 18.65 1.85 M18.3 2.9 Q18.05 2.9 17.9 3.1 L17.7 3.5 17.7 3.55 17.9 3.95 18.3 4.1 18.75 3.95 18.9 3.5 18.75 3.1 18.3 2.9 M19.7 2.1 L19.6 1.85 19.7 1.6 Q19.8 1.5 19.95 1.5 L20.2 1.6 20.3 1.85 20.2 2.1 19.95 2.2 19.7 2.1 M17.1 1.45 L16.65 1.25 16.25 1.45 16.05 1.85 16.25 2.3 16.65 2.45 17.1 2.3 17.25 1.85 17.1 1.45 M16.4 1.6 L16.65 1.5 16.9 1.6 17.0 1.85 16.9 2.1 16.65 2.2 16.4 2.1 16.3 1.85 16.4 1.6 M17.1 3.1 L16.65 2.9 16.25 3.1 16.05 3.5 16.25 3.95 16.65 4.1 17.1 3.95 17.25 3.5 17.1 3.1 M16.9 3.25 L17.0 3.5 16.9 3.75 16.65 3.85 16.4 3.75 16.3 3.5 16.4 3.25 16.65 3.15 16.9 3.25 M16.4 4.9 L16.65 4.8 16.9 4.9 17.0 5.15 16.9 5.4 16.65 5.5 16.4 5.4 16.3 5.15 16.4 4.9 M17.7 5.15 L17.7 5.2 17.9 5.6 18.3 5.75 18.75 5.6 18.9 5.15 18.75 4.75 18.3 4.55 Q18.05 4.55 17.9 4.75 L17.7 5.15 M16.25 4.75 L16.05 5.15 16.05 5.2 16.25 5.6 16.65 5.75 17.1 5.6 17.25 5.15 17.1 4.75 16.65 4.55 16.25 4.75 M19.7 3.75 L19.6 3.5 19.7 3.25 Q19.8 3.15 19.95 3.15 L20.2 3.25 20.3 3.5 20.2 3.75 19.95 3.85 19.7 3.75 M18.65 3.5 L18.55 3.75 18.3 3.85 18.05 3.75 17.95 3.5 18.05 3.25 18.3 3.15 18.55 3.25 18.65 3.5 M18.55 5.4 L18.3 5.5 18.05 5.4 17.95 5.15 18.05 4.9 18.3 4.8 18.55 4.9 18.65 5.15 18.55 5.4 M19.95 4.8 L20.2 4.9 20.3 5.15 20.2 5.4 19.95 5.5 19.7 5.4 19.6 5.15 19.7 4.9 Q19.8 4.8 19.95 4.8 M11.0 4.2 L10.7 3.5 Q11.3 3.5 11.7 4.2 L12.15 5.65 12.15 5.8 11.1 5.8 11.1 5.45 11.0 4.2 M20.2 6.55 L20.3 6.8 20.2 7.05 19.95 7.15 19.7 7.05 19.6 6.8 19.7 6.55 Q19.8 6.45 19.95 6.45 L20.2 6.55 M18.9 6.8 L18.75 6.4 18.3 6.2 Q18.05 6.2 17.9 6.4 L17.7 6.8 17.7 6.85 17.8 7.1 17.9 7.25 18.3 7.4 18.75 7.25 18.9 6.8 M18.65 6.8 L18.55 7.05 18.3 7.15 18.15 7.15 18.05 7.05 17.95 6.8 18.05 6.55 18.3 6.45 18.55 6.55 18.65 6.8 M18.9 8.3 L18.75 7.9 18.3 7.7 Q18.05 7.7 17.9 7.9 L17.7 8.3 17.7 8.35 17.85 8.65 17.9 8.75 18.3 8.9 18.75 8.75 18.9 8.3 M18.65 8.3 L18.55 8.55 18.3 8.65 18.05 8.55 17.95 8.3 18.05 8.05 18.3 7.95 18.55 8.05 18.65 8.3 M17.1 6.4 L16.65 6.2 16.25 6.4 16.05 6.8 16.05 6.85 16.1 6.9 16.25 7.25 16.65 7.4 17.1 7.25 17.2 7.05 17.25 6.8 17.1 6.4 M17.0 6.8 L16.95 7.0 16.9 7.05 16.65 7.15 16.4 7.05 16.35 6.95 16.3 6.8 16.4 6.55 16.65 6.45 16.9 6.55 17.0 6.8 M16.3 8.3 L16.4 8.05 16.65 7.95 16.9 8.05 17.0 8.3 16.9 8.55 16.65 8.65 16.4 8.55 16.35 8.5 16.3 8.3 M16.05 8.3 L16.05 8.35 16.1 8.5 16.25 8.75 16.65 8.9 17.1 8.75 17.2 8.6 17.25 8.3 17.1 7.9 16.65 7.7 16.25 7.9 16.05 8.3 M5.8 1.0 L5.55 1.7 4.8 2.15 4.05 1.7 3.85 1.2 Q4.3 0.85 5.0 0.85 L5.8 1.0 M-12.75 -7.6 Q-12.75 -6.9 -12.2 -6.35 -11.65 -5.8 -10.95 -5.8 -10.25 -5.8 -9.7 -6.35 -9.15 -6.9 -9.15 -7.6 -9.15 -8.3 -9.7 -8.85 -10.25 -9.4 -10.95 -9.4 -11.65 -9.4 -12.2 -8.85 -12.75 -8.3 -12.75 -7.6 M-17.3 1.55 L-17.2 1.8 -17.3 2.05 -17.55 2.15 -17.8 2.05 -17.9 1.8 -17.8 1.55 -17.55 1.45 -17.3 1.55 M-17.1 3.05 L-17.55 2.85 -17.95 3.05 -18.15 3.45 -17.95 3.85 Q-17.8 4.05 -17.55 4.05 -17.3 4.05 -17.1 3.85 L-16.95 3.45 Q-16.95 3.2 -17.1 3.05 M-17.1 1.4 L-17.55 1.2 -17.95 1.4 -18.15 1.8 -17.95 2.2 Q-17.8 2.4 -17.55 2.4 -17.3 2.4 -17.1 2.2 L-16.95 1.8 Q-16.95 1.55 -17.1 1.4 M-19.2 1.2 L-19.6 1.4 -19.8 1.8 -19.6 2.2 -19.2 2.4 Q-18.95 2.4 -18.75 2.2 L-18.6 1.8 -18.75 1.4 Q-18.95 1.2 -19.2 1.2 M-19.2 1.45 L-18.95 1.55 -18.85 1.8 -18.95 2.05 -19.2 2.15 -19.45 2.05 -19.55 1.8 -19.45 1.55 -19.2 1.45 M-19.2 2.85 L-19.6 3.05 -19.8 3.45 -19.6 3.85 -19.2 4.05 Q-18.95 4.05 -18.75 3.85 L-18.6 3.45 -18.75 3.05 Q-18.95 2.85 -19.2 2.85 M-18.95 3.7 L-19.2 3.8 -19.45 3.7 -19.55 3.45 -19.45 3.2 -19.2 3.1 -18.95 3.2 -18.85 3.45 -18.95 3.7 M-17.8 3.2 L-17.55 3.1 -17.3 3.2 -17.2 3.45 -17.3 3.7 -17.55 3.8 -17.8 3.7 -17.9 3.45 -17.8 3.2 M-19.8 5.1 L-19.6 5.5 -19.2 5.7 Q-18.95 5.7 -18.75 5.5 L-18.6 5.1 -18.75 4.7 Q-18.95 4.5 -19.2 4.5 L-19.6 4.7 -19.8 5.1 M-19.55 5.1 L-19.45 4.85 -19.2 4.75 -18.95 4.85 -18.85 5.1 -18.95 5.35 -19.2 5.45 -19.45 5.35 -19.55 5.1 M-17.95 4.7 L-18.15 5.1 -17.95 5.5 Q-17.8 5.7 -17.55 5.7 -17.3 5.7 -17.1 5.5 L-16.95 5.1 Q-16.95 4.85 -17.1 4.7 L-17.55 4.5 -17.95 4.7 M-17.9 5.1 L-17.8 4.85 -17.55 4.75 -17.3 4.85 -17.2 5.1 -17.3 5.35 -17.55 5.45 -17.8 5.35 -17.9 5.1 M-17.55 7.1 L-17.8 7.0 -17.9 6.75 -17.8 6.5 -17.55 6.4 -17.3 6.5 -17.2 6.75 -17.3 7.0 -17.55 7.1 M-17.55 8.85 Q-17.3 8.85 -17.1 8.65 L-16.95 8.25 Q-16.95 8.0 -17.1 7.85 L-17.55 7.65 -17.95 7.85 -18.15 8.25 -17.95 8.65 Q-17.8 8.85 -17.55 8.85 M-17.1 7.15 L-16.95 6.75 Q-16.95 6.5 -17.1 6.35 L-17.55 6.15 -17.95 6.35 -18.15 6.75 -17.95 7.15 Q-17.8 7.35 -17.55 7.35 -17.3 7.35 -17.1 7.15 M-17.3 8.5 L-17.55 8.6 -17.8 8.5 -17.9 8.25 -17.8 8.0 -17.55 7.9 -17.3 8.0 -17.2 8.25 -17.3 8.5 M-18.6 6.75 L-18.75 6.35 Q-18.95 6.15 -19.2 6.15 L-19.6 6.35 -19.8 6.75 -19.6 7.15 -19.2 7.35 Q-18.95 7.35 -18.75 7.15 L-18.6 6.75 M-18.85 6.75 L-18.95 7.0 -19.2 7.1 -19.45 7.0 -19.55 6.75 -19.45 6.5 -19.2 6.4 -18.95 6.5 -18.85 6.75 M-19.8 8.25 L-19.6 8.65 -19.2 8.85 Q-18.95 8.85 -18.75 8.65 L-18.6 8.25 -18.75 7.85 Q-18.95 7.65 -19.2 7.65 L-19.6 7.85 -19.8 8.25 M-19.2 7.9 L-18.95 8.0 -18.85 8.25 -18.95 8.5 -19.2 8.6 -19.45 8.5 -19.55 8.25 -19.45 8.0 -19.2 7.9 M-20.4 1.4 L-20.85 1.2 -21.25 1.4 -21.45 1.8 -21.25 2.2 Q-21.1 2.4 -20.85 2.4 L-20.4 2.2 -20.25 1.8 Q-20.25 1.55 -20.4 1.4 M-20.6 1.55 L-20.5 1.8 -20.6 2.05 -20.85 2.15 -21.1 2.05 -21.2 1.8 -21.1 1.55 -20.85 1.45 -20.6 1.55 M-20.4 3.05 L-20.85 2.85 -21.25 3.05 -21.45 3.45 -21.25 3.85 Q-21.1 4.05 -20.85 4.05 L-20.4 3.85 -20.25 3.45 Q-20.25 3.2 -20.4 3.05 M-20.85 3.8 L-21.1 3.7 -21.2 3.45 -21.1 3.2 -20.85 3.1 -20.6 3.2 -20.5 3.45 -20.6 3.7 -20.85 3.8 M-20.6 5.35 L-20.85 5.45 -21.1 5.35 -21.2 5.1 -21.1 4.85 -20.85 4.75 -20.6 4.85 -20.5 5.1 -20.6 5.35 M-21.45 5.1 L-21.25 5.5 Q-21.1 5.7 -20.85 5.7 L-20.4 5.5 -20.25 5.1 Q-20.25 4.85 -20.4 4.7 L-20.85 4.5 -21.25 4.7 -21.45 5.1 M-20.5 6.75 L-20.6 7.0 -20.85 7.1 -21.1 7.0 -21.2 6.75 -21.1 6.5 -20.85 6.4 -20.6 6.5 -20.5 6.75 M-21.25 6.35 L-21.45 6.75 -21.25 7.15 Q-21.1 7.35 -20.85 7.35 L-20.4 7.15 -20.25 6.75 Q-20.25 6.5 -20.4 6.35 L-20.85 6.15 -21.25 6.35 M-20.6 8.5 L-20.85 8.6 -21.1 8.5 -21.2 8.25 -21.1 8.0 -20.85 7.9 -20.6 8.0 -20.5 8.25 -20.6 8.5 M-21.25 7.85 L-21.45 8.25 -21.25 8.65 Q-21.1 8.85 -20.85 8.85 L-20.4 8.65 -20.25 8.25 Q-20.25 8.0 -20.4 7.85 L-20.85 7.65 -21.25 7.85" fill="#bfbfbf" fill-rule="evenodd" stroke="none"/>
    <path d="M5.4 -9.7 L5.4 -10.3 8.1 -11.2 9.9 -8.2 9.9 -6.55 8.1 -3.25 6.95 -3.75 6.2 -2.9 6.0 -2.65 Q6.0 -1.2 5.0 -0.2 L4.85 -0.1 6.0 -0.1 Q6.5 -0.1 6.85 0.25 7.2 0.6 7.2 1.1 L7.2 2.6 7.05 3.25 8.75 4.5 9.0 4.2 Q9.65 3.5 10.65 3.5 L10.7 3.5 Q11.7 3.5 12.45 4.2 13.05 4.85 13.1 5.8 L13.1 5.95 13.05 6.6 14.45 6.75 14.45 1.65 14.2 1.0 Q13.95 0.7 13.55 0.7 L13.55 -0.45 19.4 -0.45 Q20.15 -0.45 20.7 0.05 21.2 0.6 21.2 1.35 L21.2 9.6 15.35 9.6 14.45 9.6 14.45 8.3 11.9 8.05 10.7 8.35 10.65 8.35 Q9.75 8.35 9.15 7.8 L7.8 7.65 7.8 6.55 Q6.5 6.3 4.85 6.55 3.8 5.95 3.95 4.15 L3.65 3.9 3.6 3.8 0.0 3.8 -0.1 3.9 -0.4 4.15 Q-0.25 5.95 -1.3 6.55 -4.15 6.1 -5.8 7.15 L-5.8 7.8 -6.5 7.9 -6.55 7.9 Q-7.25 8.6 -8.2 8.65 L-8.25 8.65 Q-9.05 8.6 -9.65 8.2 L-15.3 8.75 -15.3 9.8 -16.2 9.8 -22.05 9.8 -22.05 1.55 Q-22.05 0.8 -21.55 0.25 -21.0 -0.25 -20.25 -0.25 L-14.4 -0.25 -14.4 0.9 Q-14.8 0.95 -15.05 1.2 L-15.3 1.85 -15.3 7.2 -10.6 6.75 -10.65 6.2 -10.65 6.05 Q-10.65 5.15 -10.0 4.45 -9.3 3.8 -8.3 3.8 L-8.25 3.8 -8.2 3.8 Q-7.25 3.8 -6.55 4.45 L-6.1 5.0 Q-4.5 4.3 -3.25 3.05 L-3.3 2.65 Q-3.3 1.9 -2.75 1.35 L-2.2 1.0 -1.75 0.85 -1.45 0.25 Q-1.1 -0.1 -0.6 -0.1 L0.2 -0.1 0.1 -0.2 Q-0.9 -1.2 -0.9 -2.65 L-0.85 -3.05 -5.3 -3.05 Q-6.05 -3.05 -6.55 -3.45 -7.1 -3.85 -7.1 -4.35 L-7.1 -5.25 -9.25 -4.45 Q-9.7 -4.2 -10.2 -4.05 L-10.95 -4.0 Q-12.4 -4.0 -13.45 -5.05 -14.55 -6.15 -14.55 -7.6 -14.55 -9.05 -13.45 -10.1 -12.4 -11.2 -10.95 -11.2 L-10.2 -11.1 -9.25 -10.75 -8.6 -11.65 Q-7.75 -12.5 -6.55 -12.5 L-6.25 -12.5 -5.7 -12.4 -3.05 -11.9 Q-2.2 -11.85 -1.55 -11.25 -0.85 -10.55 -0.85 -9.6 L-0.85 -9.4 0.65 -9.0 Q1.8 -9.95 3.3 -9.95 L4.85 -9.65 5.25 -9.7 5.4 -9.7 Q6.15 -9.65 6.75 -9.05 7.35 -8.4 7.35 -7.45 L7.3 -6.9 6.75 -5.85 5.85 -5.3 5.4 -5.2 5.4 -4.45 5.45 -4.4 5.65 -4.3 6.95 -3.75 M3.55 -8.75 L2.4 -8.95 1.3 -8.75 1.6 -8.55 1.65 -8.5 Q2.05 -8.05 2.05 -7.45 L1.85 -6.7 3.35 -6.5 3.15 -7.45 Q3.15 -8.2 3.55 -8.75 L3.75 -9.05 Q4.2 -9.55 4.85 -9.65 M1.3 -8.75 L0.95 -8.9 0.85 -8.95 0.65 -9.0 M1.85 -6.7 L1.65 -6.4 1.6 -6.35 1.35 -6.15 1.4 -5.9 1.45 -5.75 1.45 -4.35 1.25 -3.8 0.9 -3.45 0.4 -3.2 3.75 -3.8 4.6 -4.05 4.95 -4.65 4.95 -5.0 4.95 -5.2 Q4.25 -5.3 3.75 -5.85 L3.35 -6.5 M1.35 -6.15 L1.3 -6.1 0.9 -5.95 0.75 -5.9 0.5 -5.9 -1.45 -5.3 -2.15 -5.05 -2.35 -5.0 -2.75 -4.95 Q-3.8 -4.95 -4.5 -5.7 L-4.8 -6.05 -5.7 -5.8 -7.1 -5.25 M4.85 -0.1 L0.2 -0.1 M5.4 -5.2 L5.25 -5.2 4.95 -5.2 M5.45 -4.4 L5.6 -4.15 5.65 -4.3 M5.6 -4.15 Q6.0 -3.5 6.0 -2.65 M5.4 -4.45 L4.95 -5.0 M8.1 -11.2 L8.1 -3.25 M11.0 4.2 L11.1 5.45 11.1 5.8 12.15 5.8 12.15 5.65 11.7 4.2 Q11.3 3.5 10.7 3.5 L11.0 4.2 M14.45 8.3 L14.45 6.75 M15.35 9.6 L15.35 1.45 Q15.35 0.7 14.85 0.15 14.3 -0.35 13.55 -0.45 M5.8 1.0 L6.35 1.35 Q6.85 1.9 6.9 2.65 L6.85 3.05 7.05 3.25 M3.85 1.2 L4.05 1.7 4.8 2.15 5.55 1.7 5.8 1.0 5.0 0.85 Q4.3 0.85 3.85 1.2 L3.65 1.35 Q3.1 1.9 3.1 2.65 3.1 3.3 3.6 3.8 M6.85 3.05 L6.55 3.7 6.35 3.9 Q5.75 4.45 5.0 4.45 L3.95 4.15 M13.05 6.6 L8.3 6.15 7.8 6.1 7.8 6.55 M8.3 6.15 L8.3 5.95 8.3 5.8 Q8.3 5.05 8.75 4.5 M-0.25 1.2 L-0.1 1.35 Q0.45 1.9 0.5 2.65 0.5 3.3 0.0 3.8 M9.15 7.8 L11.9 8.05 M-10.75 -8.35 L-10.6 -7.6 -10.75 -6.85 -11.0 -6.55 -11.25 -6.85 -11.4 -7.6 -11.25 -8.35 -11.0 -8.65 -10.75 -8.35 M-12.75 -7.6 Q-12.75 -8.3 -12.2 -8.85 -11.65 -9.4 -10.95 -9.4 -10.25 -9.4 -9.7 -8.85 -9.15 -8.3 -9.15 -7.6 -9.15 -6.9 -9.7 -6.35 -10.25 -5.8 -10.95 -5.8 -11.65 -5.8 -12.2 -6.35 -12.75 -6.9 -12.75 -7.6 M-5.7 -12.4 L-4.5 -11.65 -4.4 -11.6 Q-3.7 -10.85 -3.65 -9.8 L-2.8 -9.95 -2.75 -9.95 -2.5 -9.9 -2.05 -9.8 -1.45 -9.55 -0.85 -9.4 M-4.3 -8.75 L-3.3 -8.5 -3.25 -8.5 -3.1 -8.45 -2.85 -8.35 -2.65 -8.2 -2.5 -8.05 -2.4 -7.75 -2.4 -7.6 -2.4 -7.45 -2.4 -7.4 -2.65 -6.95 -2.85 -6.8 -3.1 -6.7 -3.3 -6.7 -3.35 -6.7 -4.3 -6.45 -4.45 -6.35 -4.8 -6.05 M-4.3 -8.75 L-4.45 -8.85 -4.65 -9.05 Q-5.15 -9.4 -5.7 -9.4 L-5.85 -9.4 -9.15 -10.7 -8.4 -10.1 Q-7.6 -9.25 -7.4 -8.15 L-7.35 -7.6 -7.4 -7.0 -7.4 -6.85 Q-7.65 -5.85 -8.4 -5.05 -8.8 -4.7 -9.25 -4.45 M-4.3 -6.45 Q-4.05 -6.8 -3.95 -7.1 L-3.9 -7.6 -4.0 -8.2 -4.3 -8.75 M-3.65 -9.8 L-4.5 -9.2 -4.65 -9.05 M-2.85 -6.8 L-3.35 -6.7 M-1.45 -5.3 L-1.0 -5.7 -0.95 -5.75 -0.55 -6.3 -0.3 -7.0 -0.25 -7.45 -0.25 -7.5 -0.3 -7.7 -0.3 -7.85 -0.4 -8.3 -0.55 -8.6 -0.95 -9.15 -1.0 -9.2 -1.45 -9.55 M-9.15 -10.7 L-9.25 -10.75 M-5.1 -7.95 L-5.05 -7.6 -5.1 -7.25 -5.2 -7.05 -5.35 -7.25 -5.4 -7.6 -5.35 -7.95 -5.2 -8.1 -5.15 -8.1 -5.1 -7.95 M-6.45 -8.65 L-6.15 -8.35 -6.05 -7.6 -6.15 -6.85 -6.25 -6.75 -6.45 -6.55 -6.6 -6.65 -6.65 -6.7 -6.7 -6.85 -6.85 -7.6 -6.7 -8.35 -6.45 -8.65 M-0.85 -3.05 L-0.35 -3.05 -0.25 -3.05 -0.1 -3.1 0.4 -3.2 M-0.25 1.2 Q-0.75 0.85 -1.4 0.85 L-1.75 0.85 M-2.2 1.0 L-1.95 1.7 -1.8 1.9 -1.2 2.15 -0.45 1.7 -0.25 1.2 M-0.4 4.15 L-1.4 4.45 Q-2.2 4.45 -2.75 3.9 L-3.25 3.05 M-8.3 3.8 Q-8.85 3.8 -9.25 4.45 -9.65 5.15 -9.7 6.05 L-8.65 6.05 -8.65 5.7 -8.5 4.45 -8.25 3.8 M-6.1 5.0 L-5.8 6.05 -5.8 6.2 -5.8 6.25 -5.8 7.15 M-6.5 7.9 L-6.55 7.9 -9.65 8.2 M-14.4 -0.25 Q-15.15 -0.15 -15.7 0.35 -16.2 0.9 -16.2 1.65 L-16.2 9.8 M-15.3 7.2 L-15.3 8.75 M-5.8 6.25 L-10.6 6.75" fill="none" stroke="#5c5c5c" stroke-linecap="round" stroke-linejoin="round" stroke-width="0.5"/>
  </g>
  <defs>
    <linearGradient gradientTransform="matrix(0.0016, 0.0, 0.0, 0.0049, 6.75, -7.25)" gradientUnits="userSpaceOnUse" id="gradient0" spreadMethod="pad" x1="-819.2" x2="819.2">
      <stop offset="0.0" stop-color="#3c464f"/>
      <stop offset="1.0" stop-color="#000000"/>
    </linearGradient>
    <radialGradient cx="0" cy="0" gradientTransform="matrix(0.0066, 0.0, 0.0, 0.0066, 0.9, -4.9)" gradientUnits="userSpaceOnUse" id="gradient1" r="819.2" spreadMethod="pad">
      <stop offset="0.0" stop-color="#6a7d8a"/>
      <stop offset="0.32941176470588235" stop-color="#3c464f"/>
      <stop offset="1.0" stop-color="#000000"/>
    </radialGradient>
    <linearGradient gradientTransform="matrix(0.0029, 0.0, 0.0, 0.003, 10.7, 5.95)" gradientUnits="userSpaceOnUse" id="gradient2" spreadMethod="pad" x1="-819.2" x2="819.2">
      <stop offset="0.0" stop-color="#413a38"/>
      <stop offset="1.0" stop-color="#000000"/>
    </linearGradient>
    <radialGradient cx="0" cy="0" gradientTransform="matrix(0.0046, 0.0, 0.0, 0.0046, -3.75, -7.15)" gradientUnits="userSpaceOnUse" id="gradient3" r="819.2" spreadMethod="pad">
      <stop offset="0.0" stop-color="#6a7d8a"/>
      <stop offset="0.32941176470588235" stop-color="#3c464f"/>
      <stop offset="1.0" stop-color="#000000"/>
    </radialGradient>
    <linearGradient gradientTransform="matrix(0.003, 0.0, 0.0, 0.003, -8.25, 6.2)" gradientUnits="userSpaceOnUse" id="gradient4" spreadMethod="pad" x1="-819.2" x2="819.2">
      <stop offset="0.0" stop-color="#413a38"/>
      <stop offset="1.0" stop-color="#000000"/>
    </linearGradient>
  </defs>
</svg>
