<?xml version="1.0" encoding="UTF-8" standalone="no"?>
<svg xmlns:xlink="http://www.w3.org/1999/xlink" height="22.85px" width="43.75px" xmlns="http://www.w3.org/2000/svg">
  <g transform="matrix(1.0, 0.0, 0.0, 1.0, 22.3, 12.8)">
    <path d="M8.1 -11.2 L9.9 -8.2 9.9 -6.55 8.1 -3.25 6.95 -3.75 6.2 -2.9 6.0 -2.65 Q6.0 -1.2 5.0 -0.2 L4.85 -0.1 6.0 -0.1 Q6.5 -0.1 6.85 0.25 7.2 0.6 7.2 1.1 L7.2 2.6 7.05 3.25 8.75 4.5 9.0 4.2 Q9.65 3.5 10.65 3.5 L10.7 3.5 Q11.7 3.5 12.45 4.2 13.05 4.85 13.1 5.8 L13.1 5.95 13.05 6.6 14.45 6.75 14.45 1.65 14.2 1.0 Q13.95 0.7 13.55 0.7 L13.55 -0.45 19.4 -0.45 Q20.15 -0.45 20.7 0.05 21.2 0.6 21.2 1.35 L21.2 9.6 15.35 9.6 14.45 9.6 14.45 8.3 11.9 8.05 10.7 8.35 10.65 8.35 Q9.75 8.35 9.15 7.8 L7.8 7.65 7.8 6.55 Q6.5 6.3 4.85 6.55 3.8 5.95 3.95 4.15 L3.65 3.9 3.6 3.8 0.0 3.8 -0.1 3.9 -0.4 4.15 Q-0.25 5.95 -1.3 6.55 -4.15 6.1 -5.8 7.15 L-5.8 7.8 -6.5 7.9 -6.55 7.9 Q-7.25 8.6 -8.2 8.65 L-8.25 8.65 Q-9.05 8.6 -9.65 8.2 L-15.3 8.75 -15.3 9.8 -16.2 9.8 -22.05 9.8 -22.05 1.55 Q-22.05 0.8 -21.55 0.25 -21.0 -0.25 -20.25 -0.25 L-14.4 -0.25 -14.4 0.9 Q-14.8 0.95 -15.05 1.2 L-15.3 1.85 -15.3 7.2 -10.6 6.75 -10.65 6.2 -10.65 6.05 Q-10.65 5.15 -10.0 4.45 -9.3 3.8 -8.3 3.8 L-8.25 3.8 -8.2 3.8 Q-7.25 3.8 -6.55 4.45 L-6.1 5.0 Q-4.5 4.3 -3.25 3.05 L-3.3 2.65 Q-3.3 1.9 -2.75 1.35 L-2.2 1.0 -1.75 0.85 -1.45 0.25 Q-1.1 -0.1 -0.6 -0.1 L0.2 -0.1 0.1 -0.2 Q-0.9 -1.2 -0.9 -2.65 L-0.85 -3.05 -5.3 -3.05 Q-6.05 -3.05 -6.55 -3.45 -7.1 -3.85 -7.1 -4.35 L-7.1 -5.25 -9.25 -4.45 Q-9.7 -4.2 -10.2 -4.05 L-10.95 -4.0 Q-12.4 -4.0 -13.45 -5.05 -14.55 -6.15 -14.55 -7.6 -14.55 -9.05 -13.45 -10.1 -12.4 -11.2 -10.95 -11.2 L-10.2 -11.1 -9.25 -10.75 -8.6 -11.65 Q-7.75 -12.5 -6.55 -12.5 L-6.25 -12.5 -5.7 -12.4 -3.05 -11.9 Q-2.2 -11.85 -1.55 -11.25 -0.85 -10.55 -0.85 -9.6 L-0.85 -9.4 0.65 -9.0 Q1.8 -9.95 3.3 -9.95 L4.85 -9.65 5.25 -9.7 5.4 -9.7 5.4 -10.3 8.1 -11.2 8.1 -3.25 8.1 -11.2 M-10.6 6.75 L-5.8 6.25 -5.8 6.2 -5.8 6.05 -6.1 5.0 -5.8 6.05 -5.8 6.2 -5.8 6.25 -5.8 7.15 -5.8 6.25 -10.6 6.75 M-15.3 8.75 L-15.3 7.2 -15.3 8.75 M-16.2 9.8 L-16.2 1.65 Q-16.2 0.9 -15.7 0.35 -15.15 -0.15 -14.4 -0.25 -15.15 -0.15 -15.7 0.35 -16.2 0.9 -16.2 1.65 L-16.2 9.8 M-6.5 7.9 L-9.65 8.2 -6.5 7.9 M-8.25 3.8 L-8.5 4.45 -8.65 5.7 -8.65 6.05 -9.7 6.05 Q-9.65 5.15 -9.25 4.45 -8.85 3.8 -8.3 3.8 -8.85 3.8 -9.25 4.45 -9.65 5.15 -9.7 6.05 L-8.65 6.05 -8.65 5.7 -8.5 4.45 -8.25 3.8 M-3.25 3.05 L-2.75 3.9 Q-2.2 4.45 -1.4 4.45 L-0.4 4.15 -1.4 4.45 Q-2.2 4.45 -2.75 3.9 L-3.25 3.05 M-1.75 0.85 L-1.4 0.85 Q-0.75 0.85 -0.25 1.2 L-0.1 1.35 Q0.45 1.9 0.5 2.65 0.5 3.3 0.0 3.8 0.5 3.3 0.5 2.65 0.45 1.9 -0.1 1.35 L-0.25 1.2 -0.45 1.7 -1.2 2.15 -1.8 1.9 -1.95 1.7 -2.2 1.0 -1.95 1.7 -1.8 1.9 -1.2 2.15 -0.45 1.7 -0.25 1.2 Q-0.75 0.85 -1.4 0.85 L-1.75 0.85 M0.4 -3.2 L-0.1 -3.1 -0.25 -3.05 -0.35 -3.05 -0.85 -3.05 -0.35 -3.05 -0.25 -3.05 -0.1 -3.1 0.4 -3.2 0.9 -3.45 1.25 -3.8 1.45 -4.35 1.45 -5.75 1.4 -5.9 1.35 -6.15 1.6 -6.35 1.65 -6.4 1.85 -6.7 2.05 -7.45 Q2.05 -8.05 1.65 -8.5 L1.6 -8.55 1.3 -8.75 2.4 -8.95 3.55 -8.75 Q3.15 -8.2 3.15 -7.45 L3.35 -6.5 1.85 -6.7 3.35 -6.5 3.15 -7.45 Q3.15 -8.2 3.55 -8.75 L2.4 -8.95 1.3 -8.75 0.95 -8.9 0.85 -8.95 0.65 -9.0 0.85 -8.95 0.95 -8.9 1.3 -8.75 1.6 -8.55 1.65 -8.5 Q2.05 -8.05 2.05 -7.45 L1.85 -6.7 1.65 -6.4 1.6 -6.35 1.35 -6.15 1.4 -5.9 1.45 -5.75 1.45 -4.35 1.25 -3.8 0.9 -3.45 0.4 -3.2 3.75 -3.8 4.6 -4.05 4.95 -4.65 4.95 -5.0 4.95 -5.2 Q4.25 -5.3 3.75 -5.85 L3.35 -6.5 3.75 -5.85 Q4.25 -5.3 4.95 -5.2 L4.95 -5.0 4.95 -4.65 4.6 -4.05 3.75 -3.8 0.4 -3.2 M-6.45 -8.65 L-6.7 -8.35 -6.85 -7.6 -6.7 -6.85 -6.65 -6.7 -6.6 -6.65 -6.45 -6.55 -6.25 -6.75 -6.15 -6.85 -6.05 -7.6 -6.15 -8.35 -6.45 -8.65 -6.15 -8.35 -6.05 -7.6 -6.15 -6.85 -6.25 -6.75 -6.45 -6.55 -6.6 -6.65 -6.65 -6.7 -6.7 -6.85 -6.85 -7.6 -6.7 -8.35 -6.45 -8.65 M-5.1 -7.95 L-5.15 -8.1 -5.2 -8.1 -5.35 -7.95 -5.4 -7.6 -5.35 -7.25 -5.2 -7.05 -5.1 -7.25 -5.05 -7.6 -5.1 -7.95 -5.05 -7.6 -5.1 -7.25 -5.2 -7.05 -5.35 -7.25 -5.4 -7.6 -5.35 -7.95 -5.2 -8.1 -5.15 -8.1 -5.1 -7.95 M-9.25 -10.75 L-9.15 -10.7 -5.85 -9.4 -5.7 -9.4 Q-5.15 -9.4 -4.65 -9.05 L-4.5 -9.2 -3.65 -9.8 Q-3.7 -10.85 -4.4 -11.6 L-4.5 -11.65 -5.7 -12.4 -4.5 -11.65 -4.4 -11.6 Q-3.7 -10.85 -3.65 -9.8 L-2.8 -9.95 -2.75 -9.95 -2.5 -9.9 -2.05 -9.8 -1.45 -9.55 -0.85 -9.4 -1.45 -9.55 -2.05 -9.8 -2.5 -9.9 -2.75 -9.95 -2.8 -9.95 -3.65 -9.8 -4.5 -9.2 -4.65 -9.05 -4.45 -8.85 -4.3 -8.75 -3.3 -8.5 -3.25 -8.5 -3.1 -8.45 -2.85 -8.35 -2.65 -8.2 -2.5 -8.05 -2.4 -7.75 -2.4 -7.6 -2.4 -7.45 -2.4 -7.4 -2.65 -6.95 -2.85 -6.8 -3.1 -6.7 -3.3 -6.7 -3.35 -6.7 -4.3 -6.45 -4.45 -6.35 -4.8 -6.05 -4.45 -6.35 -4.3 -6.45 -3.35 -6.7 -3.3 -6.7 -3.1 -6.7 -2.85 -6.8 -2.65 -6.95 -2.4 -7.4 -2.4 -7.45 -2.4 -7.6 -2.4 -7.75 -2.5 -8.05 -2.65 -8.2 -2.85 -8.35 -3.1 -8.45 -3.25 -8.5 -3.3 -8.5 -4.3 -8.75 -4.45 -8.85 -4.65 -9.05 Q-5.15 -9.4 -5.7 -9.4 L-5.85 -9.4 -9.15 -10.7 -8.4 -10.1 Q-7.6 -9.25 -7.4 -8.15 L-7.35 -7.6 -7.4 -7.0 -7.4 -6.85 Q-7.65 -5.85 -8.4 -5.05 -8.8 -4.7 -9.25 -4.45 -8.8 -4.7 -8.4 -5.05 -7.65 -5.85 -7.4 -6.85 L-7.4 -7.0 -7.35 -7.6 -7.4 -8.15 Q-7.6 -9.25 -8.4 -10.1 L-9.15 -10.7 -9.25 -10.75 M-1.45 -9.55 L-1.0 -9.2 -0.95 -9.15 -0.55 -8.6 -0.4 -8.3 -0.3 -7.85 -0.3 -7.7 -0.25 -7.5 -0.25 -7.45 -0.3 -7.0 -0.55 -6.3 -0.95 -5.75 -1.0 -5.7 -1.45 -5.3 0.5 -5.9 0.75 -5.9 0.9 -5.95 1.3 -6.1 1.35 -6.15 1.3 -6.1 0.9 -5.95 0.75 -5.9 0.5 -5.9 -1.45 -5.3 -2.15 -5.05 -2.35 -5.0 -2.75 -4.95 Q-3.8 -4.95 -4.5 -5.7 L-4.8 -6.05 -5.7 -5.8 -7.1 -5.25 -5.7 -5.8 -4.8 -6.05 -4.5 -5.7 Q-3.8 -4.95 -2.75 -4.95 L-2.35 -5.0 -2.15 -5.05 -1.45 -5.3 -1.0 -5.7 -0.95 -5.75 -0.55 -6.3 -0.3 -7.0 -0.25 -7.45 -0.25 -7.5 -0.3 -7.7 -0.3 -7.85 -0.4 -8.3 -0.55 -8.6 -0.95 -9.15 -1.0 -9.2 -1.45 -9.55 M-3.35 -6.7 L-2.85 -6.8 -3.35 -6.7 M-4.3 -8.75 L-4.0 -8.2 -3.9 -7.6 -3.95 -7.1 Q-4.05 -6.8 -4.3 -6.45 -4.05 -6.8 -3.95 -7.1 L-3.9 -7.6 -4.0 -8.2 -4.3 -8.75 M-12.75 -7.6 Q-12.75 -6.9 -12.2 -6.35 -11.65 -5.8 -10.95 -5.8 -10.25 -5.8 -9.7 -6.35 -9.15 -6.9 -9.15 -7.6 -9.15 -8.3 -9.7 -8.85 -10.25 -9.4 -10.95 -9.4 -11.65 -9.4 -12.2 -8.85 -12.75 -8.3 -12.75 -7.6 -12.75 -8.3 -12.2 -8.85 -11.65 -9.4 -10.95 -9.4 -10.25 -9.4 -9.7 -8.85 -9.15 -8.3 -9.15 -7.6 -9.15 -6.9 -9.7 -6.35 -10.25 -5.8 -10.95 -5.8 -11.65 -5.8 -12.2 -6.35 -12.75 -6.9 -12.75 -7.6 M-10.75 -6.85 L-10.6 -7.6 -10.75 -8.35 -11.0 -8.65 -11.25 -8.35 -11.4 -7.6 -11.25 -6.85 -11.0 -6.55 -10.75 -6.85 -11.0 -6.55 -11.25 -6.85 -11.4 -7.6 -11.25 -8.35 -11.0 -8.65 -10.75 -8.35 -10.6 -7.6 -10.75 -6.85 M11.9 8.05 L9.15 7.8 11.9 8.05 M3.85 1.2 Q4.3 0.85 5.0 0.85 L5.8 1.0 6.35 1.35 Q6.85 1.9 6.9 2.65 L6.85 3.05 6.55 3.7 6.35 3.9 Q5.75 4.45 5.0 4.45 L3.95 4.15 5.0 4.45 Q5.75 4.45 6.35 3.9 L6.55 3.7 6.85 3.05 6.9 2.65 Q6.85 1.9 6.35 1.35 L5.8 1.0 5.55 1.7 4.8 2.15 4.05 1.7 3.85 1.2 3.65 1.35 Q3.1 1.9 3.1 2.65 3.1 3.3 3.6 3.8 3.1 3.3 3.1 2.65 3.1 1.9 3.65 1.35 L3.85 1.2 4.05 1.7 4.8 2.15 5.55 1.7 5.8 1.0 5.0 0.85 Q4.3 0.85 3.85 1.2 M6.85 3.05 L7.05 3.25 6.85 3.05 M8.75 4.5 Q8.3 5.05 8.3 5.8 L8.3 5.95 8.3 6.15 13.05 6.6 8.3 6.15 7.8 6.1 7.8 6.55 7.8 6.1 8.3 6.15 8.3 5.95 8.3 5.8 Q8.3 5.05 8.75 4.5 M13.55 -0.45 Q14.3 -0.35 14.85 0.15 15.35 0.7 15.35 1.45 L15.35 9.6 15.35 1.45 Q15.35 0.7 14.85 0.15 14.3 -0.35 13.55 -0.45 M14.45 6.75 L14.45 8.3 14.45 6.75 M11.0 4.2 L10.7 3.5 Q11.3 3.5 11.7 4.2 L12.15 5.65 12.15 5.8 11.1 5.8 11.1 5.45 11.0 4.2 11.1 5.45 11.1 5.8 12.15 5.8 12.15 5.65 11.7 4.2 Q11.3 3.5 10.7 3.5 L11.0 4.2 M4.95 -5.0 L5.4 -4.45 5.4 -5.2 5.85 -5.3 6.75 -5.85 7.3 -6.9 7.35 -7.45 Q7.35 -8.4 6.75 -9.05 6.15 -9.65 5.4 -9.7 6.15 -9.65 6.75 -9.05 7.35 -8.4 7.35 -7.45 L7.3 -6.9 6.75 -5.85 5.85 -5.3 5.4 -5.2 5.4 -4.45 5.45 -4.4 5.65 -4.3 6.95 -3.75 5.65 -4.3 5.45 -4.4 5.4 -4.45 4.95 -5.0 M5.6 -4.15 Q6.0 -3.5 6.0 -2.65 6.0 -3.5 5.6 -4.15 L5.45 -4.4 5.6 -4.15 5.65 -4.3 5.6 -4.15 M4.95 -5.2 L5.25 -5.2 5.4 -5.2 5.25 -5.2 4.95 -5.2 M0.2 -0.1 L4.85 -0.1 0.2 -0.1 M4.85 -9.65 Q4.2 -9.55 3.75 -9.05 L3.55 -8.75 3.75 -9.05 Q4.2 -9.55 4.85 -9.65" fill="#000000" fill-rule="evenodd" stroke="none"/>
    <path d="M8.1 -11.2 L9.9 -8.2 9.9 -6.55 8.1 -3.25 6.95 -3.75 6.2 -2.9 6.0 -2.65 Q6.0 -1.2 5.0 -0.2 L4.85 -0.1 6.0 -0.1 Q6.5 -0.1 6.85 0.25 7.2 0.6 7.2 1.1 L7.2 2.6 7.05 3.25 8.75 4.5 9.0 4.2 Q9.65 3.5 10.65 3.5 L10.7 3.5 Q11.7 3.5 12.45 4.2 13.05 4.85 13.1 5.8 L13.1 5.95 13.05 6.6 14.45 6.75 14.45 1.65 14.2 1.0 Q13.95 0.7 13.55 0.7 L13.55 -0.45 19.4 -0.45 Q20.15 -0.45 20.7 0.05 21.2 0.6 21.2 1.35 L21.2 9.6 15.35 9.6 14.45 9.6 14.45 8.3 11.9 8.05 10.7 8.35 10.65 8.35 Q9.75 8.35 9.15 7.8 L7.8 7.65 7.8 6.55 Q6.5 6.3 4.85 6.55 3.8 5.95 3.95 4.15 L3.65 3.9 3.6 3.8 0.0 3.8 -0.1 3.9 -0.4 4.15 Q-0.25 5.95 -1.3 6.55 -4.15 6.1 -5.8 7.15 L-5.8 7.8 -6.5 7.9 -6.55 7.9 Q-7.25 8.6 -8.2 8.65 L-8.25 8.65 Q-9.05 8.6 -9.65 8.2 L-15.3 8.75 -15.3 9.8 -16.2 9.8 -22.05 9.8 -22.05 1.55 Q-22.05 0.8 -21.55 0.25 -21.0 -0.25 -20.25 -0.25 L-14.4 -0.25 -14.4 0.9 Q-14.8 0.95 -15.05 1.2 L-15.3 1.85 -15.3 7.2 -10.6 6.75 -10.65 6.2 -10.65 6.05 Q-10.65 5.15 -10.0 4.45 -9.3 3.8 -8.3 3.8 L-8.25 3.8 -8.2 3.8 Q-7.25 3.8 -6.55 4.45 L-6.1 5.0 Q-4.5 4.3 -3.25 3.05 L-3.3 2.65 Q-3.3 1.9 -2.75 1.35 L-2.2 1.0 -1.75 0.85 -1.45 0.25 Q-1.1 -0.1 -0.6 -0.1 L0.2 -0.1 0.1 -0.2 Q-0.9 -1.2 -0.9 -2.65 L-0.85 -3.05 -5.3 -3.05 Q-6.05 -3.05 -6.55 -3.45 -7.1 -3.85 -7.1 -4.35 L-7.1 -5.25 -9.25 -4.45 Q-9.7 -4.2 -10.2 -4.05 L-10.95 -4.0 Q-12.4 -4.0 -13.45 -5.05 -14.55 -6.15 -14.55 -7.6 -14.55 -9.05 -13.45 -10.1 -12.4 -11.2 -10.95 -11.2 L-10.2 -11.1 -9.25 -10.75 -8.6 -11.65 Q-7.75 -12.5 -6.55 -12.5 L-6.25 -12.5 -5.7 -12.4 -3.05 -11.9 Q-2.2 -11.85 -1.55 -11.25 -0.85 -10.55 -0.85 -9.6 L-0.85 -9.4 0.65 -9.0 Q1.8 -9.95 3.3 -9.95 L4.85 -9.65 5.25 -9.7 5.4 -9.7 5.4 -10.3 8.1 -11.2 8.1 -3.25 M5.4 -9.7 Q6.15 -9.65 6.75 -9.05 7.35 -8.4 7.35 -7.45 L7.3 -6.9 6.75 -5.85 5.85 -5.3 5.4 -5.2 5.4 -4.45 5.45 -4.4 5.65 -4.3 6.95 -3.75 M1.3 -8.75 L1.6 -8.55 1.65 -8.5 Q2.05 -8.05 2.05 -7.45 L1.85 -6.7 3.35 -6.5 3.15 -7.45 Q3.15 -8.2 3.55 -8.75 L2.4 -8.95 1.3 -8.75 0.95 -8.9 0.85 -8.95 0.65 -9.0 M1.85 -6.7 L1.65 -6.4 1.6 -6.35 1.35 -6.15 1.4 -5.9 1.45 -5.75 1.45 -4.35 1.25 -3.8 0.9 -3.45 0.4 -3.2 3.75 -3.8 4.6 -4.05 4.95 -4.65 4.95 -5.0 4.95 -5.2 Q4.25 -5.3 3.75 -5.85 L3.35 -6.5 M3.55 -8.75 L3.75 -9.05 Q4.2 -9.55 4.85 -9.65 M1.35 -6.15 L1.3 -6.1 0.9 -5.95 0.75 -5.9 0.5 -5.9 -1.45 -5.3 -2.15 -5.05 -2.35 -5.0 -2.75 -4.95 Q-3.8 -4.95 -4.5 -5.7 L-4.8 -6.05 -5.7 -5.8 -7.1 -5.25 M4.85 -0.1 L0.2 -0.1 M5.4 -5.2 L5.25 -5.2 4.95 -5.2 M5.45 -4.4 L5.6 -4.15 5.65 -4.3 M6.0 -2.65 Q6.0 -3.5 5.6 -4.15 M5.4 -4.45 L4.95 -5.0 M11.0 4.2 L11.1 5.45 11.1 5.8 12.15 5.8 12.15 5.65 11.7 4.2 Q11.3 3.5 10.7 3.5 L11.0 4.2 M14.45 8.3 L14.45 6.75 M15.35 9.6 L15.35 1.45 Q15.35 0.7 14.85 0.15 14.3 -0.35 13.55 -0.45 M3.95 4.15 L5.0 4.45 Q5.75 4.45 6.35 3.9 L6.55 3.7 6.85 3.05 6.9 2.65 Q6.85 1.9 6.35 1.35 L5.8 1.0 5.55 1.7 4.8 2.15 4.05 1.7 3.85 1.2 3.65 1.35 Q3.1 1.9 3.1 2.65 3.1 3.3 3.6 3.8 M13.05 6.6 L8.3 6.15 7.8 6.1 7.8 6.55 M8.3 6.15 L8.3 5.95 8.3 5.8 Q8.3 5.05 8.75 4.5 M7.05 3.25 L6.85 3.05 M5.8 1.0 L5.0 0.85 Q4.3 0.85 3.85 1.2 M0.0 3.8 Q0.5 3.3 0.5 2.65 0.45 1.9 -0.1 1.35 L-0.25 1.2 -0.45 1.7 -1.2 2.15 -1.8 1.9 -1.95 1.7 -2.2 1.0 M9.15 7.8 L11.9 8.05 M-10.75 -6.85 L-11.0 -6.55 -11.25 -6.85 -11.4 -7.6 -11.25 -8.35 -11.0 -8.65 -10.75 -8.35 -10.6 -7.6 -10.75 -6.85 M-12.75 -7.6 Q-12.75 -8.3 -12.2 -8.85 -11.65 -9.4 -10.95 -9.4 -10.25 -9.4 -9.7 -8.85 -9.15 -8.3 -9.15 -7.6 -9.15 -6.9 -9.7 -6.35 -10.25 -5.8 -10.95 -5.8 -11.65 -5.8 -12.2 -6.35 -12.75 -6.9 -12.75 -7.6 M-5.7 -12.4 L-4.5 -11.65 -4.4 -11.6 Q-3.7 -10.85 -3.65 -9.8 L-2.8 -9.95 -2.75 -9.95 -2.5 -9.9 -2.05 -9.8 -1.45 -9.55 -0.85 -9.4 M-3.65 -9.8 L-4.5 -9.2 -4.65 -9.05 -4.45 -8.85 -4.3 -8.75 -3.3 -8.5 -3.25 -8.5 -3.1 -8.45 -2.85 -8.35 -2.65 -8.2 -2.5 -8.05 -2.4 -7.75 -2.4 -7.6 -2.4 -7.45 -2.4 -7.4 -2.65 -6.95 -2.85 -6.8 -3.1 -6.7 -3.3 -6.7 -3.35 -6.7 -4.3 -6.45 -4.45 -6.35 -4.8 -6.05 M-4.3 -6.45 Q-4.05 -6.8 -3.95 -7.1 L-3.9 -7.6 -4.0 -8.2 -4.3 -8.75 M-2.85 -6.8 L-3.35 -6.7 M-1.45 -5.3 L-1.0 -5.7 -0.95 -5.75 -0.55 -6.3 -0.3 -7.0 -0.25 -7.45 -0.25 -7.5 -0.3 -7.7 -0.3 -7.85 -0.4 -8.3 -0.55 -8.6 -0.95 -9.15 -1.0 -9.2 -1.45 -9.55 M-4.65 -9.05 Q-5.15 -9.4 -5.7 -9.4 L-5.85 -9.4 -9.15 -10.7 -8.4 -10.1 Q-7.6 -9.25 -7.4 -8.15 L-7.35 -7.6 -7.4 -7.0 -7.4 -6.85 Q-7.65 -5.85 -8.4 -5.05 -8.8 -4.7 -9.25 -4.45 M-9.15 -10.7 L-9.25 -10.75 M-5.1 -7.95 L-5.05 -7.6 -5.1 -7.25 -5.2 -7.05 -5.35 -7.25 -5.4 -7.6 -5.35 -7.95 -5.2 -8.1 -5.15 -8.1 -5.1 -7.95 M-6.45 -8.65 L-6.15 -8.35 -6.05 -7.6 -6.15 -6.85 -6.25 -6.75 -6.45 -6.55 -6.6 -6.65 -6.65 -6.7 -6.7 -6.85 -6.85 -7.6 -6.7 -8.35 -6.45 -8.65 M-0.85 -3.05 L-0.35 -3.05 -0.25 -3.05 -0.1 -3.1 0.4 -3.2 M-0.25 1.2 Q-0.75 0.85 -1.4 0.85 L-1.75 0.85 M-0.4 4.15 L-1.4 4.45 Q-2.2 4.45 -2.75 3.9 L-3.25 3.05 M-8.3 3.8 Q-8.85 3.8 -9.25 4.45 -9.65 5.15 -9.7 6.05 L-8.65 6.05 -8.65 5.7 -8.5 4.45 -8.25 3.8 M-6.1 5.0 L-5.8 6.05 -5.8 6.2 -5.8 6.25 -5.8 7.15 M-9.65 8.2 L-6.5 7.9 M-14.4 -0.25 Q-15.15 -0.15 -15.7 0.35 -16.2 0.9 -16.2 1.65 L-16.2 9.8 M-15.3 7.2 L-15.3 8.75 M-5.8 6.25 L-10.6 6.75" fill="none" stroke="#000000" stroke-linecap="round" stroke-linejoin="round" stroke-width="0.5"/>
  </g>
</svg>
