<?xml version="1.0" encoding="UTF-8" standalone="no"?>
<svg xmlns:xlink="http://www.w3.org/1999/xlink" height="37.55px" width="18.3px" xmlns="http://www.w3.org/2000/svg">
  <g transform="matrix(1.0, 0.0, 0.0, 1.0, 4.75, 18.8)">
    <path d="M2.9 -3.15 Q6.3 -4.8 6.3 -7.15 6.3 -9.5 2.9 -11.15 -0.3 -12.7 -4.75 -12.8 L-4.75 -18.8 -4.6 -18.8 Q2.9 -18.8 8.2 -15.4 13.55 -12.0 13.55 -7.15 13.55 -2.3 8.2 1.1 5.3 2.95 1.75 3.8 L1.75 11.0 -4.75 11.0 -4.75 -1.5 Q-1.05 -1.6 1.75 -2.65 L2.9 -3.15" fill="url(#gradient0)" fill-rule="evenodd" stroke="none"/>
    <path d="M1.75 15.6 Q1.75 16.9 0.8 17.8 -0.15 18.75 -1.5 18.75 -2.85 18.75 -3.8 17.8 -4.75 16.9 -4.75 15.6 -4.75 14.3 -3.8 13.35 -2.85 12.45 -1.5 12.45 -0.15 12.45 0.8 13.35 1.75 14.3 1.75 15.6" fill="url(#gradient1)" fill-rule="evenodd" stroke="none"/>
  </g>
  <defs>
    <linearGradient gradientTransform="matrix(0.0159, -0.0078, 0.008, 0.0163, 1.4, -4.65)" gradientUnits="userSpaceOnUse" id="gradient0" spreadMethod="pad" x1="-819.2" x2="819.2">
      <stop offset="0.0" stop-color="#4d3128"/>
      <stop offset="1.0" stop-color="#e4d8c9"/>
    </linearGradient>
    <linearGradient gradientTransform="matrix(0.0038, -0.0012, 0.0012, 0.0036, -1.5, 15.6)" gradientUnits="userSpaceOnUse" id="gradient1" spreadMethod="pad" x1="-819.2" x2="819.2">
      <stop offset="0.0" stop-color="#4d3128"/>
      <stop offset="1.0" stop-color="#e4d8c9"/>
    </linearGradient>
  </defs>
</svg>
