<?xml version="1.0" encoding="UTF-8" standalone="no"?>
<svg xmlns:xlink="http://www.w3.org/1999/xlink" height="51.05px" width="54.75px" xmlns="http://www.w3.org/2000/svg">
  <g transform="matrix(1.0, 0.0, 0.0, 1.0, 24.75, 40.4)">
    <path d="M-12.6 2.45 Q-8.25 3.0 -6.55 5.7 -7.6 9.55 -11.25 10.3 L-18.05 10.05 Q-16.4 9.6 -16.1 8.7 L-18.3 8.75 Q-22.1 8.9 -24.75 6.65 L-23.15 6.7 Q-21.05 6.6 -19.55 5.35 -21.15 4.4 -21.0 3.8 -16.15 3.1 -12.6 3.85 L-12.6 2.45 M25.95 5.25 Q22.55 6.05 24.25 8.65 19.9 5.9 15.5 7.75 15.9 8.55 16.85 8.8 L11.65 8.35 Q6.1 7.8 8.4 3.9 12.4 1.4 15.55 2.2 L14.8 4.0 Q16.35 3.5 17.7 2.5 20.9 0.0 23.8 0.75 L21.55 2.9 22.95 3.1 Q26.85 3.25 30.0 4.75 L25.95 5.25" fill="#ffffff" fill-rule="evenodd" stroke="none"/>
    <path d="M0.75 -40.4 Q0.65 -39.35 1.15 -37.95 L1.2 -37.75 Q1.9 -35.1 3.2 -35.75 2.25 -32.85 4.45 -31.55 5.95 -30.7 6.65 -32.15 5.55 -28.65 5.3 -24.95 4.95 -19.85 7.8 -20.55 4.95 -16.45 5.9 -11.55 6.6 -7.85 9.05 -10.55 L7.35 -7.8 Q4.85 -4.65 2.2 -2.6 1.05 -1.25 -0.45 -1.3 -2.65 -1.35 -3.9 -4.4 -6.15 -6.65 -7.35 -10.35 -8.2 -12.85 -8.35 -15.35 L-6.75 -12.15 Q-5.7 -14.75 -6.8 -17.5 -8.4 -21.4 -8.35 -25.95 -6.2 -22.4 -5.85 -27.4 L-5.35 -35.95 Q-3.7 -32.2 -2.65 -36.1 L-2.6 -36.35 -2.35 -38.75 Q-0.9 -36.25 0.75 -40.4" fill="#ffffff" fill-rule="evenodd" stroke="none"/>
  </g>
</svg>
