<?xml version="1.0" encoding="UTF-8" standalone="no"?>
<svg xmlns:xlink="http://www.w3.org/1999/xlink" height="46.0px" width="46.5px" xmlns="http://www.w3.org/2000/svg">
  <g transform="matrix(1.0, 0.0, 0.0, 1.0, 23.35, 23.15)">
    <path d="M22.65 -0.15 Q22.65 9.15 15.95 15.75 9.3 22.35 -0.1 22.35 -9.5 22.35 -16.2 15.75 -22.85 9.15 -22.85 -0.15 -22.85 -9.45 -16.2 -16.05 -9.5 -22.65 -0.1 -22.65 9.3 -22.65 15.95 -16.05 22.65 -9.45 22.65 -0.15 Z" fill="none" stroke="#000000" stroke-linecap="round" stroke-linejoin="round" stroke-width="1.0"/>
    <path d="M0.35 -12.95 L-1.35 -12.95 -1.35 -20.95 0.35 -20.95 0.35 -12.95 M4.3 -4.9 Q-0.05 -6.15 -5.1 -4.5 L-5.1 -12.0 4.4 -12.0 4.3 -4.9 M-4.65 12.65 Q0.0 14.35 4.4 12.75 L4.25 20.25 -2.75 20.25 Q-4.45 17.05 -4.65 12.65" fill="#000000" fill-rule="evenodd" stroke="none"/>
    <path d="M12.65 -13.25 Q15.5 -13.25 17.5 -11.2 19.55 -9.15 19.55 -6.25 19.55 -3.35 17.5 -1.3 15.5 0.75 12.65 0.75 L12.5 0.75 11.8 0.7 Q10.9 0.8 11.15 2.0 11.55 3.0 11.55 4.1 11.55 6.35 9.85 8.15 9.75 9.3 11.0 9.45 12.35 9.55 13.4 10.6 14.55 11.75 14.55 13.35 14.55 14.95 13.4 16.1 12.25 17.25 10.65 17.25 9.05 17.25 7.9 16.1 6.75 14.95 6.75 13.35 L6.85 12.45 Q6.9 10.65 5.6 10.8 3.2 11.65 0.3 11.65 -4.4 11.65 -7.7 9.45 -9.4 8.3 -10.2 6.9 -11.65 5.8 -12.3 6.7 L-12.45 6.95 -13.0 7.7 Q-14.45 9.5 -16.5 9.5 -18.55 9.5 -20.05 7.7 -21.5 5.9 -21.5 3.35 -21.5 0.8 -20.05 -1.0 -18.55 -2.8 -16.5 -2.8 -14.45 -2.8 -13.0 -1.0 L-12.45 -0.2 -12.35 -0.05 Q-11.15 1.9 -9.6 0.4 -8.85 -0.5 -7.7 -1.25 -4.4 -3.5 0.3 -3.45 L5.0 -2.8 Q6.15 -3.1 6.0 -4.3 5.75 -5.25 5.75 -6.25 5.75 -9.15 7.75 -11.2 9.8 -13.25 12.65 -13.25" fill="#000000" fill-rule="evenodd" stroke="none"/>
  </g>
</svg>
