<?xml version="1.0" encoding="UTF-8" standalone="no"?>
<svg xmlns:xlink="http://www.w3.org/1999/xlink" height="5.45px" width="5.45px" xmlns="http://www.w3.org/2000/svg">
  <g transform="matrix(1.0, 0.0, 0.0, 1.0, 2.7, 2.7)">
    <path d="M1.9 -1.95 Q2.75 -1.1 2.75 0.0 2.75 1.1 1.9 1.9 1.1 2.75 0.0 2.75 -1.1 2.75 -1.95 1.9 -2.75 1.1 -2.7 0.0 -2.75 -1.1 -1.95 -1.95 -1.1 -2.75 0.0 -2.7 1.1 -2.75 1.9 -1.95 M0.9 0.95 Q1.35 0.55 1.35 0.0 1.35 -0.55 0.9 -0.95 0.5 -1.35 0.0 -1.35 -0.55 -1.35 -1.0 -0.95 -1.4 -0.55 -1.4 0.0 -1.4 0.55 -1.0 0.95 -0.55 1.4 0.0 1.4 0.5 1.4 0.9 0.95" fill="url(#gradient0)" fill-rule="evenodd" stroke="none"/>
    <path d="M0.9 0.95 Q0.5 1.4 0.0 1.4 -0.55 1.4 -1.0 0.95 -1.4 0.55 -1.4 0.0 -1.4 -0.55 -1.0 -0.95 -0.55 -1.35 0.0 -1.35 0.5 -1.35 0.9 -0.95 1.35 -0.55 1.35 0.0 1.35 0.55 0.9 0.95" fill="url(#gradient1)" fill-rule="evenodd" stroke="none"/>
  </g>
  <defs>
    <linearGradient gradientTransform="matrix(0.0033, 0.0, 0.0, 0.0033, 0.0, 0.0)" gradientUnits="userSpaceOnUse" id="gradient0" spreadMethod="pad" x1="-819.2" x2="819.2">
      <stop offset="0.0" stop-color="#644d06"/>
      <stop offset="1.0" stop-color="#eebc2b"/>
    </linearGradient>
    <linearGradient gradientTransform="matrix(0.0017, 0.0, 0.0, 0.0017, -0.05, 0.0)" gradientUnits="userSpaceOnUse" id="gradient1" spreadMethod="pad" x1="-819.2" x2="819.2">
      <stop offset="0.0" stop-color="#b88c0c"/>
      <stop offset="1.0" stop-color="#f3ca76"/>
    </linearGradient>
  </defs>
</svg>
