<?xml version="1.0" encoding="UTF-8" standalone="no"?>
<svg xmlns:xlink="http://www.w3.org/1999/xlink" height="15.75px" width="12.75px" xmlns="http://www.w3.org/2000/svg">
  <g transform="matrix(1.0, 0.0, 0.0, 1.0, 6.5, 8.5)">
    <path d="M1.35 -5.25 L1.0 -5.3 0.8 -5.25 0.75 -5.2 0.25 -4.7 Q-3.3 -1.5 -4.4 3.2 L-4.55 3.35 -4.55 3.75 -4.55 4.1 -4.25 4.25 -4.05 4.1 -3.95 3.95 -3.65 2.8 Q-3.25 1.15 -2.2 -0.2 L-2.05 -0.55 -1.95 -1.15 -1.7 -1.5 Q-0.4 -3.6 1.55 -5.05 L1.35 -5.25 M6.25 4.75 Q0.35 1.7 -6.5 7.25 -3.95 -4.15 5.0 -8.5 2.75 -1.4 6.25 4.75" fill="#111a16" fill-rule="evenodd" stroke="none"/>
    <path d="M1.35 -5.25 L1.55 -5.05 Q-0.4 -3.6 -1.7 -1.5 L-1.95 -1.15 -2.05 -0.55 -2.2 -0.2 Q-3.25 1.15 -3.65 2.8 L-3.95 3.95 -4.05 4.1 -4.25 4.25 -4.55 4.1 -4.55 3.75 -4.55 3.35 -4.4 3.2 Q-3.3 -1.5 0.25 -4.7 L0.75 -5.2 0.8 -5.25 1.0 -5.3 1.35 -5.25" fill="#667684" fill-rule="evenodd" stroke="none"/>
  </g>
</svg>
