<?xml version="1.0" encoding="UTF-8" standalone="no"?>
<svg xmlns:xlink="http://www.w3.org/1999/xlink" height="15.5px" width="22.5px" xmlns="http://www.w3.org/2000/svg">
  <g transform="matrix(1.0, 0.0, 0.0, 1.0, 10.25, 8.5)">
    <path d="M7.5 2.95 L6.85 2.0 6.5 1.95 6.3 2.2 6.6 3.1 4.7 4.8 Q4.95 5.25 5.45 5.0 L5.5 4.85 5.55 4.7 6.5 3.95 Q7.4 3.9 7.55 3.1 L7.5 2.95 M-6.15 -6.25 L-6.4 -6.3 -6.65 -6.5 -6.95 -6.35 -7.05 -6.05 -7.0 -5.9 -6.3 -5.15 -6.3 -4.95 -6.25 -4.55 -6.05 -4.4 -6.05 -4.2 -6.0 -3.8 -5.8 -3.65 -5.8 -3.05 -5.8 -2.15 -5.95 -1.9 Q-6.05 -1.6 -6.3 -1.4 L-6.35 -1.2 -6.4 -0.8 -6.55 -0.65 -6.6 -0.45 -6.65 -0.05 -6.8 0.15 -6.8 0.3 -6.25 0.45 -6.1 0.25 -5.7 -0.5 -5.7 -0.7 -5.7 -0.9 -5.5 -1.05 -5.45 -1.25 -5.45 -1.45 -5.3 -1.65 -5.2 -1.8 -5.2 -2.4 -5.2 -4.05 -5.35 -4.25 -5.45 -4.45 -5.45 -4.65 -5.45 -4.7 -5.2 -4.5 -1.5 -4.4 -1.5 -4.55 -1.65 -4.75 Q-4.4 -4.45 -6.15 -6.25 M12.25 -8.0 Q4.35 -2.95 8.75 3.5 0.2 10.55 -10.25 3.5 -4.3 -1.35 -8.75 -8.5 0.2 -2.0 12.25 -8.0" fill="#1c2824" fill-rule="evenodd" stroke="none"/>
    <path d="M-6.15 -6.25 Q-4.4 -4.45 -1.65 -4.75 L-1.5 -4.55 -1.5 -4.4 -5.2 -4.5 -5.45 -4.7 -5.45 -4.65 -5.45 -4.45 -5.35 -4.25 -5.2 -4.05 -5.2 -2.4 -5.2 -1.8 -5.3 -1.65 -5.45 -1.45 -5.45 -1.25 -5.5 -1.05 -5.7 -0.9 -5.7 -0.7 -5.7 -0.5 -6.1 0.25 -6.25 0.45 -6.8 0.3 -6.8 0.15 -6.65 -0.05 -6.6 -0.45 -6.55 -0.65 -6.4 -0.8 -6.35 -1.2 -6.3 -1.4 Q-6.05 -1.6 -5.95 -1.9 L-5.8 -2.15 -5.8 -3.05 -5.8 -3.65 -6.0 -3.8 -6.05 -4.2 -6.05 -4.4 -6.25 -4.55 -6.3 -4.95 -6.3 -5.15 -7.0 -5.9 -7.05 -6.05 -6.95 -6.35 -6.65 -6.5 -6.4 -6.3 -6.15 -6.25 M7.5 2.95 L7.55 3.1 Q7.4 3.9 6.5 3.95 L5.55 4.7 5.5 4.85 5.45 5.0 Q4.95 5.25 4.7 4.8 L6.6 3.1 6.3 2.2 6.5 1.95 6.85 2.0 7.5 2.95" fill="#5a6774" fill-rule="evenodd" stroke="none"/>
  </g>
</svg>
