<?xml version="1.0" encoding="UTF-8" standalone="no"?>
<svg xmlns:xlink="http://www.w3.org/1999/xlink" height="18.3px" width="50.3px" xmlns="http://www.w3.org/2000/svg">
  <g transform="matrix(1.0, 0.0, 0.0, 1.0, 24.35, 7.4)">
    <path d="M2.9 -6.55 L2.9 -6.5 2.95 -6.55 2.9 -6.55 2.85 -6.55 2.9 -6.55 M3.55 -6.7 L3.55 -6.55 3.4 -6.4 5.3 -5.0 Q6.8 -3.5 7.25 -1.55 L7.4 -0.95 Q17.35 -2.25 25.05 0.6 L25.6 0.8 25.8 0.9 25.95 1.05 25.95 1.2 25.8 1.35 25.6 1.35 25.5 1.3 Q15.8 0.5 7.45 2.25 L7.3 2.2 7.15 2.05 7.15 2.0 7.1 2.05 7.15 2.1 7.15 2.3 Q6.75 3.6 5.8 4.75 L5.75 4.8 5.8 4.9 Q7.0 6.95 4.55 8.4 2.25 9.75 -3.3 10.6 L-3.45 10.6 -3.55 10.6 -5.6 10.9 -5.8 10.85 -5.9 10.7 -5.85 10.55 -5.7 10.45 -5.65 10.4 Q-1.7 9.0 -0.1 7.55 -3.05 7.45 -5.1 5.4 -6.45 4.05 -6.95 2.45 L-6.9 2.25 -6.95 2.2 -7.0 2.2 -7.2 2.3 -7.25 2.35 Q-15.1 4.5 -24.2 0.55 L-24.3 0.4 -24.35 0.25 -24.25 0.1 -24.05 0.05 Q-10.1 0.95 -7.65 -0.35 L-7.5 -0.4 -7.25 -0.35 -7.1 -1.5 Q-6.7 -3.45 -5.1 -5.0 -3.6 -6.55 -1.65 -7.0 L-1.45 -6.95 -1.35 -6.85 -0.85 -7.05 -0.75 -7.05 -0.65 -7.1 1.05 -7.4 Q2.3 -7.4 3.4 -6.85 L3.55 -6.7 M2.55 -6.65 L1.05 -6.9 -0.5 -6.65 -0.55 -6.65 -0.7 -6.55 Q-1.6 -6.3 -2.3 -5.65 L-2.25 -5.65 -2.1 -5.6 -2.0 -5.65 -1.8 -5.7 -1.1 -5.5 -1.0 -5.45 -0.9 -5.4 Q-0.5 -5.25 -0.25 -4.75 0.15 -3.9 0.05 -2.7 -0.05 -1.6 -0.7 -0.8 L-1.55 -0.15 -1.7 -0.15 -1.8 -0.2 -1.9 -0.2 -2.55 -0.35 -2.7 -0.45 -2.75 -0.45 -2.85 -0.45 -2.85 -0.4 -3.05 -0.35 -3.45 -0.35 -4.25 -0.65 -4.75 -1.3 -4.95 0.15 -0.1 0.15 -0.05 0.1 -0.1 -0.05 Q0.05 -2.55 0.85 -4.45 1.55 -6.25 2.55 -6.65 M3.1 -6.0 Q2.7 -5.5 2.35 -4.25 1.7 -2.1 1.7 0.95 L1.7 1.05 4.9 0.45 6.2 -0.05 6.35 -0.1 6.4 -0.05 6.4 -0.1 6.5 -0.25 6.75 -0.45 6.9 -0.75 6.75 -1.45 Q6.3 -3.3 4.95 -4.65 L3.15 -5.95 3.1 -6.0 M1.3 -4.25 Q0.55 -2.45 0.4 0.0 L0.4 0.05 1.2 0.55 Q1.25 -2.35 1.85 -4.4 L2.55 -6.1 Q1.85 -5.65 1.3 -4.25 M7.35 -0.45 L7.2 -0.15 7.15 -0.1 7.1 -0.05 6.8 0.15 6.9 0.25 6.9 0.45 6.8 0.8 7.2 0.7 7.25 0.7 Q14.2 -0.8 21.8 0.1 L7.45 -0.45 7.35 -0.45 M23.9 0.7 L23.7 0.65 23.7 0.7 23.9 0.7 M6.4 1.2 L6.35 1.05 6.3 0.9 6.4 0.4 5.05 0.95 1.9 1.5 3.7 2.8 3.75 2.85 5.1 2.5 5.1 2.55 Q6.2 2.15 6.7 1.75 L6.5 1.45 6.5 1.3 6.4 1.2 M7.3 1.2 L6.95 1.25 7.1 1.45 7.15 1.6 7.2 1.65 7.25 1.8 7.35 1.75 Q14.15 0.35 21.8 0.6 L7.3 1.2 M5.25 3.0 L4.25 3.25 5.45 4.45 6.55 2.45 5.25 3.0 M5.35 5.15 L5.3 5.05 5.2 4.95 3.8 3.5 3.7 3.35 3.5 3.3 3.4 3.2 3.35 3.15 Q2.25 2.15 1.25 1.8 L1.15 1.65 1.1 1.6 0.45 1.6 0.4 1.6 Q1.55 2.35 2.3 3.15 4.15 5.0 3.3 6.75 L3.3 6.8 Q2.5 8.3 -0.55 9.6 2.7 8.9 4.3 8.0 6.25 6.75 5.35 5.15 M1.05 1.1 L0.2 0.55 0.2 0.6 0.0 0.65 -4.2 0.65 -4.2 0.7 -4.15 0.7 -3.8 0.9 -3.25 0.85 -3.2 0.85 -1.75 1.0 -1.6 1.1 -1.55 1.2 -0.95 1.05 -0.75 1.1 -0.7 1.15 -0.55 1.05 0.25 1.05 0.4 1.15 0.45 1.1 1.05 1.1 M0.1 7.05 L0.45 7.05 0.55 7.1 Q1.25 6.2 0.8 5.4 0.3 4.45 -1.55 3.55 L-1.7 3.55 -5.1 3.0 -6.35 2.55 Q-5.85 3.9 -4.75 5.05 -2.75 7.05 0.1 7.05 M0.75 7.55 L0.6 7.55 Q-0.6 8.85 -3.55 10.1 L-3.45 10.15 -3.35 10.1 -2.25 9.95 -2.2 9.8 Q-2.2 9.7 -2.05 9.7 1.95 8.2 2.85 6.55 3.55 5.1 1.95 3.5 1.1 2.6 -0.25 1.8 L-0.4 1.6 -0.4 1.55 -0.5 1.55 -0.7 1.5 -0.85 1.55 Q-1.9 1.7 -2.95 2.4 L-1.95 2.85 -1.8 2.95 -1.8 3.05 -1.65 3.05 -1.55 3.1 -1.5 3.1 -1.35 3.1 Q0.65 4.05 1.25 5.15 1.85 6.25 0.9 7.45 L0.75 7.55 M-5.1 -2.05 L-5.1 -2.1 -5.15 -3.3 -4.8 -4.6 Q-6.2 -3.2 -6.6 -1.4 L-6.75 -0.3 -6.75 -0.2 -6.35 -0.05 -6.25 0.15 -6.15 0.2 -6.1 0.2 -5.9 0.2 -5.45 0.35 -5.15 -1.95 -5.1 -2.05 M-1.1 -4.95 L-1.15 -5.0 -1.25 -5.0 -1.65 -5.1 -1.55 -4.95 Q-1.15 -4.1 -1.25 -2.9 -1.35 -1.8 -2.0 -1.1 L-2.0 -1.05 -2.25 -0.8 -1.8 -0.7 -1.7 -0.65 -1.1 -1.15 Q-0.55 -1.8 -0.45 -2.75 -0.35 -3.8 -0.7 -4.55 L-1.1 -4.95 M-2.45 -5.55 L-2.6 -5.4 -2.8 -5.4 -2.95 -5.45 Q-3.55 -5.5 -4.0 -4.95 L-4.0 -4.9 Q-4.55 -4.3 -4.65 -3.25 L-4.6 -2.2 -4.65 -2.0 -4.65 -1.8 -4.65 -1.7 -4.5 -1.7 -4.35 -1.6 -3.95 -1.05 -3.45 -0.85 -3.4 -0.85 -3.05 -0.85 -2.95 -0.9 -2.4 -1.4 -2.35 -1.4 Q-1.85 -2.0 -1.75 -2.95 -1.65 -4.0 -2.0 -4.75 L-2.0 -4.7 -2.4 -5.2 -2.5 -5.35 -2.45 -5.55 M-3.05 -5.95 L-2.95 -5.95 -2.9 -5.95 -2.7 -5.9 -2.65 -5.95 -2.35 -6.25 -3.05 -5.95 M-3.25 1.35 L-3.9 1.4 -4.05 1.35 -4.35 1.15 -4.4 1.15 -5.15 0.95 -5.9 0.7 -5.95 1.05 -6.55 1.85 -4.95 2.5 -2.95 2.9 -3.3 2.8 -3.4 2.7 -3.55 2.7 -3.7 2.6 -3.75 2.4 -3.65 2.25 -2.3 1.45 -3.25 1.35 M-6.4 0.9 L-6.5 0.55 -6.6 0.4 -6.65 0.35 -6.85 0.3 -7.0 0.3 -7.5 0.15 -22.6 0.65 Q-14.5 3.8 -7.4 1.85 L-7.2 1.7 -7.05 1.65 -7.0 1.55 -6.4 0.9" fill="#000000" fill-rule="evenodd" stroke="none"/>
    <path d="M2.9 -6.55 L2.85 -6.55 2.9 -6.55 M2.55 -6.65 Q1.55 -6.25 0.85 -4.45 0.05 -2.55 -0.1 -0.05 L-0.05 0.1 -0.1 0.15 -4.95 0.15 -4.75 -1.3 -4.25 -0.65 -3.45 -0.35 -3.05 -0.35 -2.85 -0.4 -2.85 -0.45 -2.75 -0.45 -2.7 -0.45 -2.55 -0.35 -1.9 -0.2 -1.8 -0.2 -1.7 -0.15 -1.55 -0.15 -0.7 -0.8 Q-0.05 -1.6 0.05 -2.7 0.15 -3.9 -0.25 -4.75 -0.5 -5.25 -0.9 -5.4 L-1.0 -5.45 -1.1 -5.5 -1.8 -5.7 -2.0 -5.65 -2.1 -5.6 -2.25 -5.65 -2.3 -5.65 Q-1.6 -6.3 -0.7 -6.55 L-0.55 -6.65 -0.5 -6.65 1.05 -6.9 2.55 -6.65" fill="url(#gradient0)" fill-rule="evenodd" stroke="none"/>
    <path d="M1.3 -4.25 Q1.85 -5.65 2.55 -6.1 L1.85 -4.4 Q1.25 -2.35 1.2 0.55 L0.4 0.05 0.4 0.0 Q0.55 -2.45 1.3 -4.25" fill="#636163" fill-rule="evenodd" stroke="none"/>
    <path d="M3.1 -6.0 L3.15 -5.95 4.95 -4.65 Q6.3 -3.3 6.75 -1.45 L6.9 -0.75 6.75 -0.45 6.5 -0.25 6.4 -0.1 6.4 -0.05 6.35 -0.1 6.2 -0.05 4.9 0.45 1.7 1.05 1.7 0.95 Q1.7 -2.1 2.35 -4.25 2.7 -5.5 3.1 -6.0 M1.05 1.1 L0.45 1.1 0.4 1.15 0.25 1.05 -0.55 1.05 -0.7 1.15 -0.75 1.1 -0.95 1.05 -1.55 1.2 -1.6 1.1 -1.75 1.0 -3.2 0.85 -3.25 0.85 -3.8 0.9 -4.15 0.7 -4.2 0.7 -4.2 0.65 0.0 0.65 0.2 0.6 0.2 0.55 1.05 1.1" fill="url(#gradient1)" fill-rule="evenodd" stroke="none"/>
    <path d="M7.35 -0.45 L7.45 -0.45 21.8 0.1 Q14.2 -0.8 7.25 0.7 L7.2 0.7 6.8 0.8 6.9 0.45 6.9 0.25 6.8 0.15 7.1 -0.05 7.15 -0.1 7.2 -0.15 7.35 -0.45" fill="url(#gradient2)" fill-rule="evenodd" stroke="none"/>
    <path d="M23.9 0.7 L23.7 0.7 23.7 0.65 23.9 0.7 M7.3 1.2 L21.8 0.6 Q14.15 0.35 7.35 1.75 L7.25 1.8 7.2 1.65 7.15 1.6 7.1 1.45 6.95 1.25 7.3 1.2 M0.75 7.55 L0.9 7.45 Q1.85 6.25 1.25 5.15 0.65 4.05 -1.35 3.1 L-1.5 3.1 -1.55 3.1 -1.65 3.05 -1.8 3.05 -1.8 2.95 -1.95 2.85 -2.95 2.4 Q-1.9 1.7 -0.85 1.55 L-0.7 1.5 -0.5 1.55 -0.4 1.55 -0.4 1.6 -0.25 1.8 Q1.1 2.6 1.95 3.5 3.55 5.1 2.85 6.55 1.95 8.2 -2.05 9.7 -2.2 9.7 -2.2 9.8 L-2.25 9.95 -3.35 10.1 -3.45 10.15 -3.55 10.1 Q-0.6 8.85 0.6 7.55 L0.75 7.55" fill="#ffffff" fill-rule="evenodd" stroke="none"/>
    <path d="M6.4 1.2 L6.5 1.3 6.5 1.45 6.7 1.75 Q6.2 2.15 5.1 2.55 L5.1 2.5 3.75 2.85 3.7 2.8 1.9 1.5 5.05 0.95 6.4 0.4 6.3 0.9 6.35 1.05 6.4 1.2 M-3.25 1.35 L-2.3 1.45 -3.65 2.25 -3.75 2.4 -3.7 2.6 -3.55 2.7 -3.4 2.7 -3.3 2.8 -2.95 2.9 -4.95 2.5 -6.55 1.85 -5.95 1.05 -5.9 0.7 -5.15 0.95 -4.4 1.15 -4.35 1.15 -4.05 1.35 -3.9 1.4 -3.25 1.35" fill="#333333" fill-rule="evenodd" stroke="none"/>
    <path d="M5.25 3.0 L6.55 2.45 5.45 4.45 4.25 3.25 5.25 3.0 M0.1 7.05 Q-2.75 7.05 -4.75 5.05 -5.85 3.9 -6.35 2.55 L-5.1 3.0 -1.7 3.55 -1.55 3.55 Q0.3 4.45 0.8 5.4 1.25 6.2 0.55 7.1 L0.45 7.05 0.1 7.05" fill="url(#gradient3)" fill-rule="evenodd" stroke="none"/>
    <path d="M5.35 5.15 Q6.25 6.75 4.3 8.0 2.7 8.9 -0.55 9.6 2.5 8.3 3.3 6.8 L3.3 6.75 Q4.15 5.0 2.3 3.15 1.55 2.35 0.4 1.6 L0.45 1.6 1.1 1.6 1.15 1.65 1.25 1.8 Q2.25 2.15 3.35 3.15 L3.4 3.2 3.5 3.3 3.7 3.35 3.8 3.5 5.2 4.95 5.3 5.05 5.35 5.15" fill="url(#gradient4)" fill-rule="evenodd" stroke="none"/>
    <path d="M-5.1 -2.05 L-5.15 -1.95 -5.45 0.35 -5.9 0.2 -6.1 0.2 -6.15 0.2 -6.25 0.15 -6.35 -0.05 -6.75 -0.2 -6.75 -0.3 -6.6 -1.4 Q-6.2 -3.2 -4.8 -4.6 L-5.15 -3.3 -5.1 -2.1 -5.1 -2.05 M-3.05 -5.95 L-2.35 -6.25 -2.65 -5.95 -2.7 -5.9 -2.9 -5.95 -2.95 -5.95 -3.05 -5.95" fill="#8c8a8c" fill-rule="evenodd" stroke="none"/>
    <path d="M-1.1 -4.95 L-0.7 -4.55 Q-0.35 -3.8 -0.45 -2.75 -0.55 -1.8 -1.1 -1.15 L-1.7 -0.65 -1.8 -0.7 -2.25 -0.8 -2.0 -1.05 -2.0 -1.1 Q-1.35 -1.8 -1.25 -2.9 -1.15 -4.1 -1.55 -4.95 L-1.65 -5.1 -1.25 -5.0 -1.15 -5.0 -1.1 -4.95" fill="#303030" fill-rule="evenodd" stroke="none"/>
    <path d="M-2.45 -5.55 L-2.5 -5.35 -2.4 -5.2 -2.0 -4.7 -2.0 -4.75 Q-1.65 -4.0 -1.75 -2.95 -1.85 -2.0 -2.35 -1.4 L-2.4 -1.4 -2.95 -0.9 -3.05 -0.85 -3.4 -0.85 -3.45 -0.85 -3.95 -1.05 -4.35 -1.6 -4.5 -1.7 -4.65 -1.7 -4.65 -1.8 -4.65 -2.0 -4.6 -2.2 -4.65 -3.25 Q-4.55 -4.3 -4.0 -4.9 L-4.0 -4.95 Q-3.55 -5.5 -2.95 -5.45 L-2.8 -5.4 -2.6 -5.4 -2.45 -5.55" fill="url(#gradient5)" fill-rule="evenodd" stroke="none"/>
    <path d="M-6.4 0.9 L-7.0 1.55 -7.05 1.65 -7.2 1.7 -7.4 1.85 Q-14.5 3.8 -22.6 0.65 L-7.5 0.15 -7.0 0.3 -6.85 0.3 -6.65 0.35 -6.6 0.4 -6.5 0.55 -6.4 0.9" fill="url(#gradient6)" fill-rule="evenodd" stroke="none"/>
  </g>
  <defs>
    <linearGradient gradientTransform="matrix(0.0052, 0.0, 0.0, 0.0046, -1.0, -3.4)" gradientUnits="userSpaceOnUse" id="gradient0" spreadMethod="pad" x1="-819.2" x2="819.2">
      <stop offset="0.0" stop-color="#8f8f8f"/>
      <stop offset="1.0" stop-color="#4a4a4a"/>
    </linearGradient>
    <radialGradient cx="0" cy="0" gradientTransform="matrix(0.0059, 0.0, 0.0, 0.0058, 3.55, -3.95)" gradientUnits="userSpaceOnUse" id="gradient1" r="819.2" spreadMethod="pad">
      <stop offset="0.0" stop-color="#ffffff"/>
      <stop offset="0.7215686274509804" stop-color="#bfbfbf"/>
      <stop offset="1.0" stop-color="#606060"/>
    </radialGradient>
    <linearGradient gradientTransform="matrix(0.0112, 0.0, 0.0, 0.0013, 15.75, -0.05)" gradientUnits="userSpaceOnUse" id="gradient2" spreadMethod="pad" x1="-819.2" x2="819.2">
      <stop offset="0.0" stop-color="#677b92"/>
      <stop offset="1.0" stop-color="#ffffff"/>
    </linearGradient>
    <radialGradient cx="0" cy="0" gradientTransform="matrix(-1.0E-4, 0.0048, -0.007, -2.0E-4, -0.05, 1.9)" gradientUnits="userSpaceOnUse" id="gradient3" r="819.2" spreadMethod="pad">
      <stop offset="0.0" stop-color="#ffffff"/>
      <stop offset="0.7215686274509804" stop-color="#bfbfbf"/>
      <stop offset="1.0" stop-color="#606060"/>
    </radialGradient>
    <linearGradient gradientTransform="matrix(-0.0036, 0.0043, -0.0043, -0.0035, 3.55, 5.6)" gradientUnits="userSpaceOnUse" id="gradient4" spreadMethod="pad" x1="-819.2" x2="819.2">
      <stop offset="0.0" stop-color="#677b92"/>
      <stop offset="1.0" stop-color="#ffffff"/>
    </linearGradient>
    <radialGradient cx="0" cy="0" gradientTransform="matrix(0.0048, 0.0, 0.0, 0.0048, -3.45, -4.4)" gradientUnits="userSpaceOnUse" id="gradient5" r="819.2" spreadMethod="pad">
      <stop offset="0.1411764705882353" stop-color="#ffffff"/>
      <stop offset="0.5137254901960784" stop-color="#e3ec33"/>
    </radialGradient>
    <linearGradient gradientTransform="matrix(-4.0E-4, -0.0013, 0.0019, -6.0E-4, -12.95, 1.75)" gradientUnits="userSpaceOnUse" id="gradient6" spreadMethod="pad" x1="-819.2" x2="819.2">
      <stop offset="0.0" stop-color="#677b92"/>
      <stop offset="1.0" stop-color="#ffffff"/>
    </linearGradient>
  </defs>
</svg>
