<?xml version="1.0" encoding="UTF-8" standalone="no"?>
<svg xmlns:xlink="http://www.w3.org/1999/xlink" height="18.3px" width="50.3px" xmlns="http://www.w3.org/2000/svg">
  <g transform="matrix(1.0, 0.0, 0.0, 1.0, 24.35, 7.4)">
    <path d="M3.25 -6.6 L2.65 -6.45 3.0 -6.3 5.1 -4.85 Q6.55 -3.4 7.0 -1.5 L7.15 -0.6 Q6.9 -0.15 6.3 0.15 L6.65 0.35 Q6.85 -0.15 7.4 -0.7 17.3 -2.0 24.95 0.8 L25.5 1.0 25.5 1.05 Q15.8 0.25 7.4 2.0 L7.05 1.75 7.0 1.8 Q6.6 3.5 5.4 4.8 8.0 8.65 -3.35 10.35 L-5.65 10.65 Q-0.7 8.9 0.7 7.3 L0.1 7.3 Q-2.85 7.3 -4.95 5.2 -6.35 3.8 -6.8 2.0 L-6.85 1.75 -7.35 2.1 Q-15.1 4.25 -24.1 0.3 -10.0 1.2 -7.55 -0.15 -6.7 0.05 -6.35 0.35 L-6.2 0.3 -7.0 -0.35 -6.85 -1.45 Q-6.45 -3.35 -4.95 -4.85 -3.1 -6.7 -0.6 -6.9 L1.05 -7.15 3.3 -6.65 3.25 -6.6 M-2.8 -0.65 L-1.65 -0.4 -0.9 -1.0 Q-0.3 -1.7 -0.2 -2.75 -0.1 -3.85 -0.5 -4.65 L-1.0 -5.2 -1.9 -5.45 -2.25 -5.4 -2.7 -5.65 Q-1.75 -6.55 -0.6 -6.9 -1.75 -6.55 -2.7 -5.65 L-2.25 -5.4 -1.9 -5.45 -1.0 -5.2 -0.5 -4.65 Q-0.1 -3.85 -0.2 -2.75 -0.3 -1.7 -0.9 -1.0 L-1.65 -0.4 -2.8 -0.65 -2.85 -0.7 -2.95 -0.65 -2.8 -0.65 M0.15 0.4 L-5.2 0.4 Q-5.2 -1.0 -4.85 -2.15 L-4.6 -1.5 -4.1 -0.85 -3.45 -0.6 -2.95 -0.65 -3.45 -0.6 -4.1 -0.85 -4.6 -1.5 -4.85 -2.15 Q-5.2 -1.0 -5.2 0.4 L0.15 0.4 0.2 0.25 0.15 0.2 0.15 0.4 M2.65 -6.45 Q1.75 -6.05 1.05 -4.35 0.25 -2.4 0.15 0.2 0.25 -2.4 1.05 -4.35 1.75 -6.05 2.65 -6.45 M3.0 -6.3 Q2.55 -5.8 2.1 -4.35 1.45 -2.15 1.45 0.95 1.45 -2.15 2.1 -4.35 2.55 -5.8 3.0 -6.3 M24.95 0.8 Q15.65 -0.85 7.25 0.95 L6.6 1.1 Q6.65 1.45 7.05 1.75 6.65 1.45 6.6 1.1 6.5 0.75 6.65 0.35 6.5 0.75 6.6 1.1 L7.25 0.95 Q15.65 -0.85 24.95 0.8 M5.4 4.8 L3.7 3.1 3.65 3.1 5.15 2.75 Q6.5 2.3 7.0 1.8 6.5 2.3 5.15 2.75 L3.65 3.1 3.7 3.1 5.4 4.8 M1.45 0.95 L1.4 0.95 1.45 0.95 M0.2 0.25 L1.4 0.95 0.2 0.25 M-2.85 -0.7 L-2.2 -1.25 Q-1.6 -1.9 -1.5 -2.95 -1.4 -4.05 -1.8 -4.85 L-2.25 -5.4 -1.8 -4.85 Q-1.4 -4.05 -1.5 -2.95 -1.6 -1.9 -2.2 -1.25 L-2.85 -0.7 M0.7 7.3 Q2.4 5.2 -1.45 3.3 L-3.5 2.45 Q-2.2 1.5 -0.9 1.3 L-0.55 1.3 -0.5 1.35 2.1 3.3 Q3.85 5.05 3.05 6.65 2.0 8.65 -3.35 10.35 2.0 8.65 3.05 6.65 3.85 5.05 2.1 3.3 L-0.5 1.35 -0.55 1.3 -0.9 1.3 Q-2.2 1.5 -3.5 2.45 L-1.45 3.3 Q2.4 5.2 0.7 7.3 M3.65 3.1 Q2.1 1.6 0.45 1.35 L4.95 0.7 6.3 0.15 4.95 0.7 0.45 1.35 Q2.1 1.6 3.65 3.1 M-0.55 1.3 L0.45 1.35 -0.55 1.3 M-5.2 0.4 L-4.3 0.9 -3.9 1.15 -3.25 1.1 -0.9 1.3 -3.25 1.1 -3.9 1.15 -4.3 0.9 -5.1 0.7 -6.2 0.3 -5.1 0.7 -4.3 0.9 -5.2 0.4 M-1.45 3.3 L-5.05 2.75 -6.8 2.0 -5.05 2.75 -1.45 3.3 M-6.85 1.75 Q-5.75 0.9 -6.35 0.35 -5.75 0.9 -6.85 1.75 M-2.7 -5.65 L-2.95 -5.7 Q-3.65 -5.75 -4.2 -5.1 -4.8 -4.4 -4.9 -3.3 L-4.85 -2.15 -4.9 -3.3 Q-4.8 -4.4 -4.2 -5.1 -3.65 -5.75 -2.95 -5.7 L-2.7 -5.65" fill="#000000" fill-rule="evenodd" stroke="none"/>
    <path d="M3.25 -6.6 L2.65 -6.45 3.0 -6.3 3.35 -6.6 3.25 -6.6 M3.3 -6.65 L1.05 -7.15 -0.6 -6.9 Q-1.75 -6.55 -2.7 -5.65 L-2.25 -5.4 -1.9 -5.45 -1.0 -5.2 -0.5 -4.65 Q-0.1 -3.85 -0.2 -2.75 -0.3 -1.7 -0.9 -1.0 L-1.65 -0.4 -2.8 -0.65 -2.95 -0.65 -3.45 -0.6 -4.1 -0.85 -4.6 -1.5 -4.85 -2.15 Q-5.2 -1.0 -5.2 0.4 L0.15 0.4 0.15 0.2 Q0.25 -2.4 1.05 -4.35 1.75 -6.05 2.65 -6.45 M3.35 -6.6 L3.3 -6.65 M3.0 -6.3 L5.1 -4.85 Q6.55 -3.4 7.0 -1.5 L7.15 -0.6 Q6.9 -0.15 6.3 0.15 L6.65 0.35 Q6.85 -0.15 7.4 -0.7 17.3 -2.0 24.95 0.8 L25.5 1.0 25.7 1.1 25.5 1.05 Q15.8 0.25 7.4 2.0 L7.05 1.75 7.0 1.8 Q6.6 3.5 5.4 4.8 8.0 8.65 -3.35 10.35 L-5.65 10.65 Q-0.7 8.9 0.7 7.3 L0.1 7.3 Q-2.85 7.3 -4.95 5.2 -6.35 3.8 -6.8 2.0 L-6.85 1.75 -7.35 2.1 Q-15.1 4.25 -24.1 0.3 -10.0 1.2 -7.55 -0.15 -6.7 0.05 -6.35 0.35 L-6.2 0.3 -7.0 -0.35 -6.85 -1.45 Q-6.45 -3.35 -4.95 -4.85 -3.1 -6.7 -0.6 -6.9 M1.45 0.95 Q1.45 -2.15 2.1 -4.35 2.55 -5.8 3.0 -6.3 M7.0 1.8 Q6.5 2.3 5.15 2.75 L3.65 3.1 3.7 3.1 5.4 4.8 M7.05 1.75 Q6.65 1.45 6.6 1.1 6.5 0.75 6.65 0.35 M6.6 1.1 L7.25 0.95 Q15.65 -0.85 24.95 0.8 M1.45 0.95 L1.4 0.95 0.2 0.25 0.15 0.2 M6.3 0.15 L4.95 0.7 0.45 1.35 Q2.1 1.6 3.65 3.1 M-3.35 10.35 Q2.0 8.65 3.05 6.65 3.85 5.05 2.1 3.3 L-0.5 1.35 -0.55 1.3 -0.9 1.3 Q-2.2 1.5 -3.5 2.45 L-1.45 3.3 Q2.4 5.2 0.7 7.3 M-2.25 -5.4 L-1.8 -4.85 Q-1.4 -4.05 -1.5 -2.95 -1.6 -1.9 -2.2 -1.25 L-2.85 -0.7 -2.95 -0.65 M-2.8 -0.65 L-2.85 -0.7 M-4.85 -2.15 L-4.9 -3.3 Q-4.8 -4.4 -4.2 -5.1 -3.65 -5.75 -2.95 -5.7 L-2.7 -5.65 M-0.9 1.3 L-3.25 1.1 -3.9 1.15 -4.3 0.9 -5.1 0.7 -6.2 0.3 M-6.35 0.35 Q-5.75 0.9 -6.85 1.75 M-6.8 2.0 L-5.05 2.75 -1.45 3.3 M-4.3 0.9 L-5.2 0.4 M0.45 1.35 L-0.55 1.3" fill="none" stroke="#000000" stroke-linecap="round" stroke-linejoin="round" stroke-width="0.5"/>
  </g>
</svg>
