<?xml version="1.0" encoding="UTF-8" standalone="no"?>
<svg xmlns:xlink="http://www.w3.org/1999/xlink" height="64.95px" width="14.95px" xmlns="http://www.w3.org/2000/svg">
  <g transform="matrix(1.0, 0.0, 0.0, 1.0, 10.85, 95.25)">
    <path d="M3.95 -81.3 L4.1 -80.9 3.95 -80.95 3.95 -81.3" fill="url(#gradient0)" fill-rule="evenodd" stroke="none"/>
    <path d="M-6.65 -39.95 L-4.8 -36.0 -4.8 -34.4 -5.8 -33.3 -6.8 -32.15 -7.3 -32.95 -7.25 -34.05 -6.5 -34.5 Q-7.05 -34.9 -7.2 -35.4 L-7.15 -35.9 Q-6.7 -37.9 -6.7 -39.85 L-6.65 -39.95 M-7.5 -31.2 L-8.05 -30.3 -8.45 -31.3 -8.0 -31.15 -7.5 -31.2 M-10.05 -34.7 L-10.05 -35.0 -10.0 -35.4 -9.0 -36.0 -8.65 -35.85 -8.75 -34.9 -7.85 -34.0 -7.7 -33.4 Q-8.6 -34.3 -10.0 -34.65 L-10.05 -34.7" fill="url(#gradient1)" fill-rule="evenodd" stroke="none"/>
    <path d="M-7.05 -95.2 L-6.9 -95.25 -6.45 -94.7 -7.05 -95.2" fill="url(#gradient2)" fill-rule="evenodd" stroke="none"/>
    <path d="M-9.15 -43.6 L-9.2 -43.75 -8.65 -43.75 -8.2 -43.3 -8.15 -42.75 -8.25 -42.4 -8.25 -42.3 -9.15 -43.6 M-8.65 -35.85 L-8.55 -36.75 -8.5 -36.75 -8.35 -37.0 Q-7.35 -38.35 -6.7 -39.85 -6.7 -37.9 -7.15 -35.9 L-7.25 -35.65 -7.2 -35.4 Q-7.05 -34.9 -6.5 -34.5 L-7.25 -34.05 -7.5 -33.9 -7.85 -34.0 -8.75 -34.9 -8.65 -35.85" fill="url(#gradient3)" fill-rule="evenodd" stroke="none"/>
    <path d="M-6.8 -32.15 L-7.5 -31.2 -8.0 -31.15 -8.45 -31.3 -9.4 -33.25 -10.15 -34.8 -10.05 -34.7 -10.0 -34.65 Q-8.6 -34.3 -7.7 -33.4 L-7.3 -32.95 -6.8 -32.15" fill="url(#gradient4)" fill-rule="evenodd" stroke="none"/>
    <path d="M-8.25 -42.3 L-8.25 -42.4 -8.15 -42.75 -8.2 -43.3 -8.0 -42.9 -6.65 -39.95 -6.7 -39.85 Q-7.35 -38.35 -8.35 -37.0 L-8.5 -36.75 -8.55 -36.75 -10.4 -36.9 -10.75 -37.65 -10.25 -38.4 -9.75 -38.5 Q-9.15 -39.2 -8.8 -40.0 -8.35 -41.05 -8.25 -42.3" fill="url(#gradient5)" fill-rule="evenodd" stroke="none"/>
    <path d="M-9.15 -43.6 L-8.25 -42.3 Q-8.35 -41.05 -8.8 -40.0 L-10.0 -41.5 -10.85 -42.8 -10.4 -43.75 -9.3 -43.75 -9.15 -43.6" fill="url(#gradient6)" fill-rule="evenodd" stroke="none"/>
  </g>
  <defs>
    <radialGradient cx="0" cy="0" gradientTransform="matrix(0.0045, 0.0, 0.0, 0.0045, 3.45, -84.3)" gradientUnits="userSpaceOnUse" id="gradient0" r="819.2" spreadMethod="pad">
      <stop offset="0.0" stop-color="#4e0707"/>
      <stop offset="0.16470588235294117" stop-color="#b41010"/>
      <stop offset="0.5294117647058824" stop-color="#e23612"/>
      <stop offset="0.807843137254902" stop-color="#fd5037"/>
      <stop offset="1.0" stop-color="#fd5037" stop-opacity="0.0"/>
    </radialGradient>
    <radialGradient cx="0" cy="0" gradientTransform="matrix(0.0424, 0.0, 0.0, 0.0424, -4.65, -63.2)" gradientUnits="userSpaceOnUse" id="gradient1" r="819.2" spreadMethod="pad">
      <stop offset="0.0" stop-color="#4e0707"/>
      <stop offset="0.16470588235294117" stop-color="#b41010"/>
      <stop offset="0.5294117647058824" stop-color="#e23612"/>
      <stop offset="0.807843137254902" stop-color="#fd5037"/>
      <stop offset="1.0" stop-color="#fd5037" stop-opacity="0.0"/>
    </radialGradient>
    <radialGradient cx="0" cy="0" gradientTransform="matrix(0.0018, 0.0, 0.0, 0.0018, -6.55, -94.05)" gradientUnits="userSpaceOnUse" id="gradient2" r="819.2" spreadMethod="pad">
      <stop offset="0.0" stop-color="#4e0707"/>
      <stop offset="0.16470588235294117" stop-color="#b41010"/>
      <stop offset="0.5294117647058824" stop-color="#e23612"/>
      <stop offset="0.807843137254902" stop-color="#fd5037"/>
      <stop offset="1.0" stop-color="#fd5037" stop-opacity="0.0"/>
    </radialGradient>
    <radialGradient cx="0" cy="0" gradientTransform="matrix(0.0325, 0.0, 0.0, 0.0325, -12.65, -59.55)" gradientUnits="userSpaceOnUse" id="gradient3" r="819.2" spreadMethod="pad">
      <stop offset="0.0" stop-color="#4e0707"/>
      <stop offset="0.16470588235294117" stop-color="#b41010"/>
      <stop offset="0.5294117647058824" stop-color="#e23612"/>
      <stop offset="0.807843137254902" stop-color="#fd5037"/>
      <stop offset="1.0" stop-color="#fd5037" stop-opacity="0.0"/>
    </radialGradient>
    <radialGradient cx="0" cy="0" gradientTransform="matrix(0.0386, 0.0, 0.0, 0.0386, -18.3, -59.9)" gradientUnits="userSpaceOnUse" id="gradient4" r="819.2" spreadMethod="pad">
      <stop offset="0.0" stop-color="#4e0707"/>
      <stop offset="0.16470588235294117" stop-color="#b41010"/>
      <stop offset="0.5294117647058824" stop-color="#e23612"/>
      <stop offset="0.807843137254902" stop-color="#fd5037"/>
      <stop offset="1.0" stop-color="#fd5037" stop-opacity="0.0"/>
    </radialGradient>
    <radialGradient cx="0" cy="0" gradientTransform="matrix(0.0172, 0.0, 0.0, 0.0172, -8.2, -50.75)" gradientUnits="userSpaceOnUse" id="gradient5" r="819.2" spreadMethod="pad">
      <stop offset="0.0" stop-color="#4e0707"/>
      <stop offset="0.16470588235294117" stop-color="#b41010"/>
      <stop offset="0.5294117647058824" stop-color="#e23612"/>
      <stop offset="0.807843137254902" stop-color="#fd5037"/>
      <stop offset="1.0" stop-color="#fd5037" stop-opacity="0.0"/>
    </radialGradient>
    <radialGradient cx="0" cy="0" gradientTransform="matrix(0.017, 0.0, 0.0, 0.017, -11.3, -51.85)" gradientUnits="userSpaceOnUse" id="gradient6" r="819.2" spreadMethod="pad">
      <stop offset="0.0" stop-color="#4e0707"/>
      <stop offset="0.16470588235294117" stop-color="#b41010"/>
      <stop offset="0.5294117647058824" stop-color="#e23612"/>
      <stop offset="0.807843137254902" stop-color="#fd5037"/>
      <stop offset="1.0" stop-color="#fd5037" stop-opacity="0.0"/>
    </radialGradient>
  </defs>
</svg>
