<?xml version="1.0" encoding="UTF-8" standalone="no"?>
<svg xmlns:xlink="http://www.w3.org/1999/xlink" height="23.5px" width="26.1px" xmlns="http://www.w3.org/2000/svg">
  <g transform="matrix(1.0, 0.0, 0.0, 1.0, 13.05, 11.3)">
    <path d="M3.8 -10.3 L6.25 -7.95 Q8.95 -4.7 10.65 -0.05 12.35 4.55 12.0 7.8 11.6 11.05 9.5 11.05 7.3 11.05 4.6 7.8 1.85 4.55 0.15 -0.05 L0.05 -0.4 -0.15 0.1 Q-1.85 4.7 -4.55 7.95 -7.3 11.2 -9.45 11.2 -11.6 11.2 -11.95 7.95 -12.35 4.7 -10.65 0.1 -8.95 -4.55 -6.2 -7.8 L-3.9 -10.05 -3.3 -10.45 -2.95 -10.65 -1.35 -11.05 Q-0.6 -11.05 -0.1 -10.7 0.5 -11.2 1.35 -11.2 L3.0 -10.8 3.6 -10.45 3.8 -10.3" fill="url(#gradient0)" fill-rule="evenodd" stroke="none"/>
    <path d="M3.8 -10.3 L6.25 -7.95 Q8.95 -4.7 10.65 -0.05 12.35 4.55 12.0 7.8 11.6 11.05 9.5 11.05 7.3 11.05 4.6 7.8 1.85 4.55 0.15 -0.05 L0.05 -0.4 -0.15 0.1 Q-1.85 4.7 -4.55 7.95 -7.3 11.2 -9.45 11.2 -11.6 11.2 -11.95 7.95 -12.35 4.7 -10.65 0.1 -8.95 -4.55 -6.2 -7.8 L-3.9 -10.05" fill="none" stroke="#000000" stroke-linecap="round" stroke-linejoin="round" stroke-width="2.0"/>
  </g>
  <defs>
    <radialGradient cx="0" cy="0" gradientTransform="matrix(0.0363, 0.0, 0.0, 0.0271, -6.95, -4.4)" gradientUnits="userSpaceOnUse" id="gradient0" r="819.2" spreadMethod="pad">
      <stop offset="0.0" stop-color="#0066ff"/>
      <stop offset="1.0" stop-color="#ffffff"/>
    </radialGradient>
  </defs>
</svg>
