<?xml version="1.0" encoding="UTF-8" standalone="no"?>
<svg xmlns:xlink="http://www.w3.org/1999/xlink" height="13.5px" width="34.0px" xmlns="http://www.w3.org/2000/svg">
  <g transform="matrix(1.0, 0.0, 0.0, 1.0, 17.0, 6.75)">
    <path d="M11.3 -4.1 Q16.0 -2.4 16.0 0.0 16.0 2.4 11.3 4.05 6.65 5.75 0.0 5.75 -6.65 5.75 -11.35 4.05 -16.0 2.4 -16.0 0.0 -16.0 -2.4 -11.35 -4.1 -6.65 -5.75 0.0 -5.75 6.65 -5.75 11.3 -4.1" fill="url(#gradient0)" fill-rule="evenodd" stroke="none"/>
    <path d="M11.3 -4.1 Q16.0 -2.4 16.0 0.0 16.0 2.4 11.3 4.05 6.65 5.75 0.0 5.75 -6.65 5.75 -11.35 4.05 -16.0 2.4 -16.0 0.0 -16.0 -2.4 -11.35 -4.1 -6.65 -5.75 0.0 -5.75 6.65 -5.75 11.3 -4.1 Z" fill="none" stroke="#000000" stroke-linecap="round" stroke-linejoin="round" stroke-width="2.0"/>
  </g>
  <defs>
    <radialGradient cx="0" cy="0" gradientTransform="matrix(0.0257, 0.0, 0.0, 0.0196, -6.5, -0.5)" gradientUnits="userSpaceOnUse" id="gradient0" r="819.2" spreadMethod="pad">
      <stop offset="0.3843137254901961" stop-color="#0066ff"/>
      <stop offset="1.0" stop-color="#ffffff"/>
    </radialGradient>
  </defs>
</svg>
