<?xml version="1.0" encoding="UTF-8" standalone="no"?>
<svg xmlns:xlink="http://www.w3.org/1999/xlink" height="17.5px" width="17.5px" xmlns="http://www.w3.org/2000/svg">
  <g transform="matrix(1.0, 0.0, 0.0, 1.0, 8.75, 8.75)">
    <path d="M5.45 -5.5 L5.8 -5.1 Q7.75 -2.95 7.75 0.0 7.75 3.2 5.45 5.45 L5.1 5.8 Q2.95 7.75 0.0 7.75 -3.0 7.75 -5.2 5.7 L-5.5 5.45 Q-7.75 3.2 -7.75 0.0 -7.75 -2.85 -5.9 -5.0 L-5.5 -5.5 Q-3.2 -7.75 0.0 -7.75 3.2 -7.75 5.45 -5.5" fill="url(#gradient0)" fill-rule="evenodd" stroke="none"/>
    <path d="M5.45 -5.5 L5.8 -5.1 Q7.75 -2.95 7.75 0.0 7.75 3.2 5.45 5.45 L5.1 5.8 Q2.95 7.75 0.0 7.75 -3.0 7.75 -5.2 5.7 L-5.5 5.45 Q-7.75 3.2 -7.75 0.0 -7.75 -2.85 -5.9 -5.0 L-5.5 -5.5 Q-3.2 -7.75 0.0 -7.75 3.2 -7.75 5.45 -5.5 Z" fill="none" stroke="#000000" stroke-linecap="round" stroke-linejoin="round" stroke-width="2.0"/>
  </g>
  <defs>
    <linearGradient gradientTransform="matrix(0.0095, 0.0, 0.0, 0.0095, 0.0, 0.0)" gradientUnits="userSpaceOnUse" id="gradient0" spreadMethod="pad" x1="-819.2" x2="819.2">
      <stop offset="0.0" stop-color="#ffcc99"/>
      <stop offset="0.6901960784313725" stop-color="#ffe6cf"/>
      <stop offset="0.7411764705882353" stop-color="#ffe6cf"/>
      <stop offset="0.792156862745098" stop-color="#ffe6cf"/>
      <stop offset="0.8352941176470589" stop-color="#ffe7d0"/>
      <stop offset="1.0" stop-color="#ffffff"/>
    </linearGradient>
  </defs>
</svg>
