<?xml version="1.0" encoding="UTF-8" standalone="no"?>
<svg xmlns:xlink="http://www.w3.org/1999/xlink" height="66.55px" width="44.8px" xmlns="http://www.w3.org/2000/svg">
  <g transform="matrix(1.0, 0.0, 0.0, 1.0, 34.65, 95.25)">
    <path d="M3.95 -80.95 L3.95 -81.3 4.1 -80.9 3.95 -80.95" fill="url(#gradient0)" fill-rule="evenodd" stroke="none"/>
    <path d="M8.85 -76.5 L10.05 -76.3 Q10.3 -73.85 9.8 -71.25 L9.6 -70.9 Q8.65 -73.35 8.85 -76.5" fill="url(#gradient1)" fill-rule="evenodd" stroke="none"/>
    <path d="M7.85 -52.9 L7.75 -53.6 Q8.35 -53.85 9.0 -54.55 9.0 -53.95 9.15 -53.3 L9.1 -53.15 8.95 -52.8 8.9 -52.8 8.25 -53.15 7.85 -52.9" fill="url(#gradient2)" fill-rule="evenodd" stroke="none"/>
    <path d="M8.95 -52.8 L9.25 -52.75 Q9.55 -51.65 10.15 -50.5 L10.1 -50.4 Q9.05 -49.75 7.85 -50.4 L7.25 -52.25 7.25 -52.65 7.85 -52.9 8.25 -53.15 8.9 -52.8 8.95 -52.8" fill="url(#gradient3)" fill-rule="evenodd" stroke="none"/>
    <path d="M-6.3 -40.95 L-4.75 -41.25 Q-4.55 -44.9 -4.65 -48.65 L-4.65 -49.4 -4.15 -50.15 -4.15 -50.5 -4.15 -50.9 Q-1.0 -57.75 -2.0 -65.9 L-1.3 -72.5 Q-0.8 -72.0 -0.05 -71.8 L0.25 -68.55 Q0.35 -67.8 0.65 -67.3 L0.55 -66.1 Q0.15 -59.85 -0.7 -53.8 -1.15 -50.65 -2.05 -47.65 -2.4 -46.45 -2.25 -45.15 L-2.2 -44.65 -2.75 -45.65 -3.35 -45.55 -3.65 -45.4 -3.6 -44.7 Q-3.1 -43.15 -3.0 -41.65 L-2.7 -41.25 -2.5 -40.9 -2.45 -40.4 Q-2.8 -39.0 -3.4 -37.65 L-4.75 -37.15 -4.75 -31.15 -4.75 -30.95 -4.85 -30.65 -5.5 -29.25 Q-7.75 -27.85 -9.25 -30.15 L-10.0 -32.4 -9.15 -32.15 -8.65 -31.4 -8.0 -31.15 Q-7.0 -31.15 -6.75 -32.0 L-7.3 -32.95 -7.25 -34.05 -6.5 -34.5 Q-7.05 -34.9 -7.2 -35.4 L-7.15 -35.9 Q-6.7 -37.9 -6.7 -39.85 L-6.3 -40.95 M-10.05 -34.7 L-10.05 -35.0 -10.0 -35.4 -9.0 -36.0 -8.65 -35.85 -8.75 -34.9 -7.85 -34.0 -7.7 -33.4 Q-8.6 -34.3 -10.0 -34.65 L-10.05 -34.7" fill="url(#gradient4)" fill-rule="evenodd" stroke="none"/>
    <path d="M-6.45 -94.7 L-7.05 -95.2 -6.9 -95.25 -6.45 -94.7" fill="url(#gradient5)" fill-rule="evenodd" stroke="none"/>
    <path d="M-8.65 -35.85 L-8.55 -36.75 -8.5 -36.75 -8.35 -37.0 Q-7.35 -38.35 -6.7 -39.85 -6.7 -37.9 -7.15 -35.9 L-7.25 -35.65 -7.2 -35.4 Q-7.05 -34.9 -6.5 -34.5 L-7.25 -34.05 -7.5 -33.9 -7.85 -34.0 -8.75 -34.9 -8.65 -35.85 M-11.95 -56.35 L-12.0 -58.75 -12.0 -60.0 -12.1 -60.05 -12.2 -61.15 -12.4 -62.5 -11.9 -65.25 -11.8 -65.2 -11.35 -63.0 -11.25 -62.65 Q-9.2 -58.25 -9.7 -52.85 -9.9 -50.6 -9.4 -48.5 L-9.25 -46.9 -8.5 -46.0 -8.25 -45.45 -8.25 -45.4 -8.15 -42.75 -8.25 -42.4 -8.25 -42.3 -9.15 -43.6 -10.05 -46.55 -11.45 -53.8 -11.95 -56.35" fill="url(#gradient6)" fill-rule="evenodd" stroke="none"/>
    <path d="M-5.25 -75.65 L-4.9 -75.25 Q-4.1 -71.2 -4.65 -67.0 L-4.75 -66.65 -5.5 -66.0 -6.15 -66.25 Q-7.05 -70.7 -6.15 -75.25 L-6.0 -75.5 -5.9 -75.6 -5.25 -75.65" fill="url(#gradient7)" fill-rule="evenodd" stroke="none"/>
    <path d="M-10.0 -32.4 Q-14.4 -34.1 -14.15 -39.4 -15.9 -42.75 -16.1 -46.5 L-16.15 -46.9 -18.0 -48.15 -18.05 -48.5 -18.15 -48.9 -19.45 -50.6 -19.3 -53.1 -17.75 -49.15 -17.0 -48.9 -16.55 -49.05 -16.25 -49.25 -16.05 -49.65 -15.9 -50.0 -16.0 -50.65 Q-13.3 -48.0 -12.95 -43.65 -12.75 -41.75 -12.2 -39.8 -11.7 -37.8 -10.85 -35.85 L-10.05 -34.7 -10.0 -34.65 Q-8.6 -34.3 -7.7 -33.4 L-7.3 -32.95 -6.75 -32.0 Q-7.0 -31.15 -8.0 -31.15 L-8.65 -31.4 -9.15 -32.15 -10.0 -32.4" fill="url(#gradient8)" fill-rule="evenodd" stroke="none"/>
    <path d="M-31.5 -79.5 L-31.05 -79.55 Q-30.95 -77.15 -31.35 -74.75 -31.45 -74.15 -31.9 -73.65 L-32.5 -73.4 -33.25 -73.65 -34.35 -76.25 -34.65 -77.0 Q-34.7 -77.85 -33.75 -78.15 -33.2 -79.0 -33.65 -80.05 L-33.65 -80.15 Q-32.7 -79.45 -31.5 -79.5" fill="url(#gradient9)" fill-rule="evenodd" stroke="none"/>
    <path d="M-28.75 -65.0 L-28.25 -64.65 -29.4 -64.15 -29.75 -64.5 -30.0 -64.9 -29.9 -65.1 -29.25 -65.4 -28.75 -65.0" fill="url(#gradient10)" fill-rule="evenodd" stroke="none"/>
    <path d="M-19.3 -53.1 Q-19.3 -55.5 -20.0 -57.95 -20.5 -59.55 -20.0 -61.15 L-19.55 -63.05 -19.35 -62.6 Q-19.2 -59.4 -18.35 -56.1 -17.85 -54.15 -16.65 -53.3 L-16.65 -52.75 -16.3 -52.4 -16.05 -50.75 -16.0 -50.65 -15.9 -50.0 -16.05 -49.65 -16.25 -49.25 -16.55 -49.05 -17.0 -48.9 -17.75 -49.15 -19.3 -53.1" fill="url(#gradient11)" fill-rule="evenodd" stroke="none"/>
    <path d="M-10.05 -64.65 L-9.85 -64.65 -10.0 -64.65 -10.05 -64.65" fill="url(#gradient12)" fill-rule="evenodd" stroke="none"/>
    <path d="M-8.55 -36.75 L-10.4 -36.9 -10.75 -37.65 -10.25 -38.4 -9.75 -38.5 Q-9.15 -39.2 -8.8 -40.0 -8.35 -41.05 -8.25 -42.3 L-8.25 -42.4 -8.15 -42.75 -8.25 -45.4 -8.25 -45.45 -8.25 -45.75 -8.5 -46.0 -9.25 -46.9 -9.4 -48.5 -9.4 -50.65 -9.4 -51.0 Q-8.6 -52.4 -8.35 -53.95 -7.55 -53.2 -6.0 -53.25 L-5.75 -53.25 Q-5.85 -50.5 -6.1 -47.85 -6.15 -47.3 -5.75 -46.75 -5.45 -43.65 -6.3 -40.95 L-6.7 -39.85 Q-7.35 -38.35 -8.35 -37.0 L-8.5 -36.75 -8.55 -36.75 M-8.1 -62.25 Q-8.4 -63.5 -8.1 -64.7 L-7.9 -64.75 -7.4 -62.85 -8.1 -62.25" fill="url(#gradient13)" fill-rule="evenodd" stroke="none"/>
    <path d="M-8.8 -40.0 L-10.0 -41.5 Q-12.15 -44.5 -13.2 -48.4 L-14.15 -52.8 -13.35 -52.95 Q-12.15 -53.25 -12.05 -54.4 L-11.95 -56.35 -11.45 -53.8 -10.05 -46.55 -9.5 -44.0 -9.15 -43.6 -8.25 -42.3 Q-8.35 -41.05 -8.8 -40.0" fill="url(#gradient14)" fill-rule="evenodd" stroke="none"/>
    <path d="M-16.65 -53.3 Q-15.95 -52.85 -15.0 -52.75 L-14.9 -52.5 -15.9 -52.0 -16.3 -52.4 -16.65 -52.75 -16.65 -53.3" fill="url(#gradient15)" fill-rule="evenodd" stroke="none"/>
    <path d="M-2.2 -44.65 L-1.1 -42.7 -2.5 -39.7 -2.45 -40.4 -2.5 -40.9 -2.7 -41.25 -3.0 -41.65 Q-3.1 -43.15 -3.6 -44.7 L-3.65 -45.4 -3.35 -45.55 -2.75 -45.65 -2.2 -44.65" fill="url(#gradient16)" fill-rule="evenodd" stroke="none"/>
    <path d="M-19.25 -38.65 L-19.15 -39.0 -19.1 -39.05 -17.75 -35.9 -16.0 -33.65 -16.35 -32.05 -16.8 -33.15 Q-17.45 -34.7 -18.4 -35.85 -18.5 -37.05 -19.25 -38.65" fill="url(#gradient17)" fill-rule="evenodd" stroke="none"/>
  </g>
  <defs>
    <radialGradient cx="0" cy="0" gradientTransform="matrix(0.0045, 0.0, 0.0, 0.0045, 3.45, -84.3)" gradientUnits="userSpaceOnUse" id="gradient0" r="819.2" spreadMethod="pad">
      <stop offset="0.0" stop-color="#4e0707"/>
      <stop offset="0.16470588235294117" stop-color="#b41010"/>
      <stop offset="0.5294117647058824" stop-color="#e23612"/>
      <stop offset="0.807843137254902" stop-color="#fd5037"/>
      <stop offset="1.0" stop-color="#fd5037" stop-opacity="0.0"/>
    </radialGradient>
    <radialGradient cx="0" cy="0" gradientTransform="matrix(0.0062, 0.0, 0.0, 0.0062, 9.45, -75.6)" gradientUnits="userSpaceOnUse" id="gradient1" r="819.2" spreadMethod="pad">
      <stop offset="0.0" stop-color="#4e0707"/>
      <stop offset="0.16470588235294117" stop-color="#b41010"/>
      <stop offset="0.5294117647058824" stop-color="#e23612"/>
      <stop offset="0.807843137254902" stop-color="#fd5037"/>
      <stop offset="1.0" stop-color="#fd5037" stop-opacity="0.0"/>
    </radialGradient>
    <radialGradient cx="0" cy="0" gradientTransform="matrix(0.006, 0.0, 0.0, 0.006, 8.5, -57.45)" gradientUnits="userSpaceOnUse" id="gradient2" r="819.2" spreadMethod="pad">
      <stop offset="0.0" stop-color="#4e0707"/>
      <stop offset="0.16470588235294117" stop-color="#b41010"/>
      <stop offset="0.5294117647058824" stop-color="#e23612"/>
      <stop offset="0.807843137254902" stop-color="#fd5037"/>
      <stop offset="1.0" stop-color="#fd5037" stop-opacity="0.0"/>
    </radialGradient>
    <radialGradient cx="0" cy="0" gradientTransform="matrix(0.0071, 0.0, 0.0, 0.0071, 9.4, -55.55)" gradientUnits="userSpaceOnUse" id="gradient3" r="819.2" spreadMethod="pad">
      <stop offset="0.0" stop-color="#4e0707"/>
      <stop offset="0.16470588235294117" stop-color="#b41010"/>
      <stop offset="0.5294117647058824" stop-color="#e23612"/>
      <stop offset="0.807843137254902" stop-color="#fd5037"/>
      <stop offset="1.0" stop-color="#fd5037" stop-opacity="0.0"/>
    </radialGradient>
    <radialGradient cx="0" cy="0" gradientTransform="matrix(0.0424, 0.0, 0.0, 0.0424, -4.65, -63.2)" gradientUnits="userSpaceOnUse" id="gradient4" r="819.2" spreadMethod="pad">
      <stop offset="0.0" stop-color="#4e0707"/>
      <stop offset="0.16470588235294117" stop-color="#b41010"/>
      <stop offset="0.5294117647058824" stop-color="#e23612"/>
      <stop offset="0.807843137254902" stop-color="#fd5037"/>
      <stop offset="1.0" stop-color="#fd5037" stop-opacity="0.0"/>
    </radialGradient>
    <radialGradient cx="0" cy="0" gradientTransform="matrix(0.0018, 0.0, 0.0, 0.0018, -6.55, -94.05)" gradientUnits="userSpaceOnUse" id="gradient5" r="819.2" spreadMethod="pad">
      <stop offset="0.0" stop-color="#4e0707"/>
      <stop offset="0.16470588235294117" stop-color="#b41010"/>
      <stop offset="0.5294117647058824" stop-color="#e23612"/>
      <stop offset="0.807843137254902" stop-color="#fd5037"/>
      <stop offset="1.0" stop-color="#fd5037" stop-opacity="0.0"/>
    </radialGradient>
    <radialGradient cx="0" cy="0" gradientTransform="matrix(0.0325, 0.0, 0.0, 0.0325, -12.65, -59.55)" gradientUnits="userSpaceOnUse" id="gradient6" r="819.2" spreadMethod="pad">
      <stop offset="0.0" stop-color="#4e0707"/>
      <stop offset="0.16470588235294117" stop-color="#b41010"/>
      <stop offset="0.5294117647058824" stop-color="#e23612"/>
      <stop offset="0.807843137254902" stop-color="#fd5037"/>
      <stop offset="1.0" stop-color="#fd5037" stop-opacity="0.0"/>
    </radialGradient>
    <radialGradient cx="0" cy="0" gradientTransform="matrix(0.006, 0.0, 0.0, 0.006, -5.5, -70.8)" gradientUnits="userSpaceOnUse" id="gradient7" r="819.2" spreadMethod="pad">
      <stop offset="0.0" stop-color="#4e0707"/>
      <stop offset="0.16470588235294117" stop-color="#b41010"/>
      <stop offset="0.5294117647058824" stop-color="#e23612"/>
      <stop offset="0.807843137254902" stop-color="#fd5037"/>
      <stop offset="1.0" stop-color="#fd5037" stop-opacity="0.0"/>
    </radialGradient>
    <radialGradient cx="0" cy="0" gradientTransform="matrix(0.0386, 0.0, 0.0, 0.0386, -18.3, -59.9)" gradientUnits="userSpaceOnUse" id="gradient8" r="819.2" spreadMethod="pad">
      <stop offset="0.0" stop-color="#4e0707"/>
      <stop offset="0.16470588235294117" stop-color="#b41010"/>
      <stop offset="0.5294117647058824" stop-color="#e23612"/>
      <stop offset="0.807843137254902" stop-color="#fd5037"/>
      <stop offset="1.0" stop-color="#fd5037" stop-opacity="0.0"/>
    </radialGradient>
    <radialGradient cx="0" cy="0" gradientTransform="matrix(0.0093, 0.0, 0.0, 0.0093, -33.35, -80.3)" gradientUnits="userSpaceOnUse" id="gradient9" r="819.2" spreadMethod="pad">
      <stop offset="0.0" stop-color="#4e0707"/>
      <stop offset="0.16470588235294117" stop-color="#b41010"/>
      <stop offset="0.5294117647058824" stop-color="#e23612"/>
      <stop offset="0.807843137254902" stop-color="#fd5037"/>
      <stop offset="1.0" stop-color="#fd5037" stop-opacity="0.0"/>
    </radialGradient>
    <radialGradient cx="0" cy="0" gradientTransform="matrix(0.0012, 0.0, 0.0, 0.0012, -29.1, -64.75)" gradientUnits="userSpaceOnUse" id="gradient10" r="819.2" spreadMethod="pad">
      <stop offset="0.0" stop-color="#4e0707"/>
      <stop offset="0.16470588235294117" stop-color="#b41010"/>
      <stop offset="0.5294117647058824" stop-color="#e23612"/>
      <stop offset="0.807843137254902" stop-color="#fd5037"/>
      <stop offset="1.0" stop-color="#fd5037" stop-opacity="0.0"/>
    </radialGradient>
    <radialGradient cx="0" cy="0" gradientTransform="matrix(0.0107, 0.0, 0.0, 0.0107, -19.25, -57.25)" gradientUnits="userSpaceOnUse" id="gradient11" r="819.2" spreadMethod="pad">
      <stop offset="0.0" stop-color="#4e0707"/>
      <stop offset="0.16470588235294117" stop-color="#b41010"/>
      <stop offset="0.5294117647058824" stop-color="#e23612"/>
      <stop offset="0.807843137254902" stop-color="#fd5037"/>
      <stop offset="1.0" stop-color="#fd5037" stop-opacity="0.0"/>
    </radialGradient>
    <radialGradient cx="0" cy="0" gradientTransform="matrix(0.0035, 0.0, 0.0, 0.0035, -10.25, -67.25)" gradientUnits="userSpaceOnUse" id="gradient12" r="819.2" spreadMethod="pad">
      <stop offset="0.0" stop-color="#4e0707"/>
      <stop offset="0.16470588235294117" stop-color="#b41010"/>
      <stop offset="0.5294117647058824" stop-color="#e23612"/>
      <stop offset="0.807843137254902" stop-color="#fd5037"/>
      <stop offset="1.0" stop-color="#fd5037" stop-opacity="0.0"/>
    </radialGradient>
    <radialGradient cx="0" cy="0" gradientTransform="matrix(0.0172, 0.0, 0.0, 0.0172, -8.2, -50.75)" gradientUnits="userSpaceOnUse" id="gradient13" r="819.2" spreadMethod="pad">
      <stop offset="0.0" stop-color="#4e0707"/>
      <stop offset="0.16470588235294117" stop-color="#b41010"/>
      <stop offset="0.5294117647058824" stop-color="#e23612"/>
      <stop offset="0.807843137254902" stop-color="#fd5037"/>
      <stop offset="1.0" stop-color="#fd5037" stop-opacity="0.0"/>
    </radialGradient>
    <radialGradient cx="0" cy="0" gradientTransform="matrix(0.017, 0.0, 0.0, 0.017, -11.3, -51.85)" gradientUnits="userSpaceOnUse" id="gradient14" r="819.2" spreadMethod="pad">
      <stop offset="0.0" stop-color="#4e0707"/>
      <stop offset="0.16470588235294117" stop-color="#b41010"/>
      <stop offset="0.5294117647058824" stop-color="#e23612"/>
      <stop offset="0.807843137254902" stop-color="#fd5037"/>
      <stop offset="1.0" stop-color="#fd5037" stop-opacity="0.0"/>
    </radialGradient>
    <radialGradient cx="0" cy="0" gradientTransform="matrix(0.0051, 0.0, 0.0, 0.0051, -16.75, -56.0)" gradientUnits="userSpaceOnUse" id="gradient15" r="819.2" spreadMethod="pad">
      <stop offset="0.0" stop-color="#4e0707"/>
      <stop offset="0.16470588235294117" stop-color="#b41010"/>
      <stop offset="0.5294117647058824" stop-color="#e23612"/>
      <stop offset="0.807843137254902" stop-color="#fd5037"/>
      <stop offset="1.0" stop-color="#fd5037" stop-opacity="0.0"/>
    </radialGradient>
    <radialGradient cx="0" cy="0" gradientTransform="matrix(0.0116, 0.0, 0.0, 0.0116, -2.55, -36.25)" gradientUnits="userSpaceOnUse" id="gradient16" r="819.2" spreadMethod="pad">
      <stop offset="0.0" stop-color="#4e0707"/>
      <stop offset="0.16470588235294117" stop-color="#b41010"/>
      <stop offset="0.5294117647058824" stop-color="#e23612"/>
      <stop offset="0.807843137254902" stop-color="#fd5037"/>
      <stop offset="1.0" stop-color="#fd5037" stop-opacity="0.0"/>
    </radialGradient>
    <radialGradient cx="0" cy="0" gradientTransform="matrix(0.0084, 0.0, 0.0, 0.0084, -19.25, -36.8)" gradientUnits="userSpaceOnUse" id="gradient17" r="819.2" spreadMethod="pad">
      <stop offset="0.0" stop-color="#4e0707"/>
      <stop offset="0.16470588235294117" stop-color="#b41010"/>
      <stop offset="0.5294117647058824" stop-color="#e23612"/>
      <stop offset="0.807843137254902" stop-color="#fd5037"/>
      <stop offset="1.0" stop-color="#fd5037" stop-opacity="0.0"/>
    </radialGradient>
  </defs>
</svg>
