<?xml version="1.0" encoding="UTF-8" standalone="no"?>
<svg xmlns:xlink="http://www.w3.org/1999/xlink" height="46.0px" width="46.5px" xmlns="http://www.w3.org/2000/svg">
  <g transform="matrix(1.0, 0.0, 0.0, 1.0, 23.35, 23.15)">
    <path d="M22.65 -0.15 Q22.65 9.15 15.95 15.75 9.3 22.35 -0.1 22.35 -9.5 22.35 -16.2 15.75 -22.85 9.15 -22.85 -0.15 -22.85 -9.45 -16.2 -16.05 -9.5 -22.65 -0.1 -22.65 9.3 -22.65 15.95 -16.05 22.65 -9.45 22.65 -0.15 Z" fill="none" stroke="#000000" stroke-linecap="round" stroke-linejoin="round" stroke-width="1.0"/>
    <path d="M4.3 -4.9 Q-0.05 -6.15 -5.1 -4.5 L-5.1 -12.0 4.4 -12.0 4.3 -4.9 M0.35 -12.95 L-1.35 -12.95 -1.35 -20.95 0.35 -20.95 0.35 -12.95 M-4.65 12.65 Q0.0 14.35 4.4 12.75 L4.25 20.25 -2.75 20.25 Q-4.45 17.05 -4.65 12.65" fill="#000000" fill-rule="evenodd" stroke="none"/>
    <path d="M8.25 -1.25 Q11.55 0.95 11.55 4.1 11.55 7.25 8.25 9.45 4.95 11.65 0.3 11.65 -4.4 11.65 -7.7 9.45 -11.0 7.25 -10.95 4.1 -11.0 0.95 -7.7 -1.25 -4.4 -3.5 0.3 -3.45 4.95 -3.5 8.25 -1.25 M5.95 -0.8 L4.75 -1.25 Q4.05 -1.25 3.5 -0.8 3.0 -0.35 3.0 0.25 3.0 0.85 3.5 1.3 4.05 1.75 4.75 1.75 L5.95 1.3 Q6.5 0.85 6.5 0.25 6.5 -0.35 5.95 -0.8 M12.0 10.75 Q12.5 10.75 12.85 11.1 13.25 11.5 13.25 12.0 13.25 12.5 12.85 12.85 12.5 13.25 12.0 13.25 11.5 13.25 11.1 12.85 10.75 12.5 10.75 12.0 10.75 11.5 11.1 11.1 11.5 10.75 12.0 10.75 M1.3 7.5 Q1.3 6.8 0.75 6.25 0.2 5.75 -0.6 5.75 -1.4 5.75 -1.95 6.25 -2.5 6.8 -2.5 7.5 -2.5 8.2 -1.95 8.7 -1.4 9.25 -0.6 9.25 0.2 9.25 0.75 8.7 1.3 8.2 1.3 7.5 M5.9 5.9 Q6.5 5.35 6.5 4.5 6.5 3.65 5.9 3.05 5.35 2.5 4.5 2.5 3.65 2.5 3.05 3.05 2.5 3.65 2.5 4.5 2.5 5.35 3.05 5.9 3.65 6.5 4.5 6.5 5.35 6.5 5.9 5.9 M7.05 16.45 Q6.5 15.95 6.5 15.25 6.5 14.55 7.05 14.0 7.6 13.5 8.4 13.5 9.2 13.5 9.75 14.0 10.3 14.55 10.3 15.25 10.3 15.95 9.75 16.45 9.2 17.0 8.4 17.0 7.6 17.0 7.05 16.45 M-3.95 5.1 Q-3.95 4.3 -4.5 3.75 -5.05 3.2 -5.85 3.2 -6.65 3.2 -7.2 3.75 -7.75 4.3 -7.75 5.1 -7.75 5.9 -7.2 6.45 -6.65 7.0 -5.85 7.0 -5.05 7.0 -4.5 6.45 -3.95 5.9 -3.95 5.1 M-1.75 4.25 Q-0.9 4.25 -0.35 3.6 0.25 3.0 0.25 2.1 0.25 1.2 -0.35 0.55 -0.9 -0.05 -1.75 -0.05 -2.6 -0.05 -3.2 0.55 -3.75 1.2 -3.75 2.1 -3.75 3.0 -3.2 3.6 -2.6 4.25 -1.75 4.25 M-13.0 14.25 L-13.9 13.95 -14.25 13.25 -13.9 12.55 -13.0 12.25 Q-12.5 12.25 -12.15 12.55 -11.75 12.85 -11.75 13.25 L-12.15 13.95 -13.0 14.25 M-9.5 17.75 Q-9.5 17.05 -8.95 16.5 -8.35 16.0 -7.5 16.0 -6.65 16.0 -6.1 16.5 -5.5 17.05 -5.5 17.75 -5.5 18.45 -6.1 18.95 -6.65 19.5 -7.5 19.5 -8.35 19.5 -8.95 18.95 -9.5 18.45 -9.5 17.75" fill="#000000" fill-rule="evenodd" stroke="none"/>
  </g>
</svg>
