<?xml version="1.0" encoding="UTF-8" standalone="no"?>
<svg xmlns:xlink="http://www.w3.org/1999/xlink" height="4.4px" width="7.75px" xmlns="http://www.w3.org/2000/svg">
  <g transform="matrix(1.0, 0.0, 0.0, 1.0, 3.5, 6.65)">
    <path d="M1.7 -5.9 L1.75 -5.5 Q1.25 -5.0 1.25 -4.4 L4.25 -3.9 1.75 -3.0 1.75 -2.65 1.75 -2.4 -0.75 -2.25 -1.5 -3.0 -2.25 -3.15 Q-3.15 -3.9 -3.5 -5.0 -2.7 -5.95 -2.15 -4.65 L0.5 -4.75 Q0.75 -5.75 1.35 -6.55 L1.6 -6.65 1.7 -5.9 M0.8 -3.3 L0.6 -3.4 0.25 -3.4 -0.5 -3.0 1.25 -3.0 0.8 -3.3" fill="url(#gradient0)" fill-rule="evenodd" stroke="none"/>
  </g>
  <defs>
    <radialGradient cx="0" cy="0" gradientTransform="matrix(0.0054, 0.0, 0.0, 0.0054, 0.4, -4.45)" gradientUnits="userSpaceOnUse" id="gradient0" r="819.2" spreadMethod="pad">
      <stop offset="0.0" stop-color="#4e0707"/>
      <stop offset="0.16470588235294117" stop-color="#b41010"/>
      <stop offset="0.5294117647058824" stop-color="#e23612"/>
      <stop offset="0.807843137254902" stop-color="#fd5037"/>
      <stop offset="1.0" stop-color="#fd5037" stop-opacity="0.0"/>
    </radialGradient>
  </defs>
</svg>
