<?xml version="1.0" encoding="UTF-8" standalone="no"?>
<svg xmlns:xlink="http://www.w3.org/1999/xlink" height="5.55px" width="7.75px" xmlns="http://www.w3.org/2000/svg">
  <g transform="matrix(1.0, 0.0, 0.0, 1.0, 3.5, 12.15)">
    <path d="M-1.55 -8.5 L-2.25 -8.65 Q-3.15 -9.4 -3.5 -10.5 -2.7 -11.45 -2.15 -10.15 L0.5 -10.25 Q0.75 -11.25 1.35 -12.05 L1.6 -12.15 1.7 -11.4 1.75 -11.0 Q1.25 -10.5 1.25 -9.9 L4.25 -9.4 1.75 -8.5 1.75 -8.15 1.75 -7.9 1.05 -7.85 0.75 -8.1 0.85 -8.4 0.85 -8.5 1.25 -8.5 0.95 -8.7 Q1.45 -9.35 1.1 -9.9 L0.6 -10.25 0.5 -10.25 0.15 -9.95 0.0 -9.65 -0.2 -9.45 -0.25 -9.5 -0.5 -9.5 -0.85 -9.4 -1.15 -9.15 -0.5 -8.5 -0.45 -8.4 -0.5 -8.4 -0.9 -8.75 -1.35 -8.6 -1.55 -8.5" fill="url(#gradient0)" fill-rule="evenodd" stroke="none"/>
    <path d="M1.05 -7.85 L1.1 -7.7 1.1 -7.4 0.7 -7.55 0.35 -7.4 0.25 -7.15 -0.05 -6.6 -0.2 -6.8 -0.25 -7.15 -0.45 -7.35 -1.15 -7.4 Q-1.55 -7.05 -2.05 -6.9 L-2.4 -7.0 -2.4 -7.75 -2.4 -8.15 -1.55 -8.5 -1.35 -8.6 -0.9 -8.75 -0.5 -8.4 -0.45 -8.4 -0.2 -8.2 0.75 -8.1 1.05 -7.85" fill="url(#gradient1)" fill-rule="evenodd" stroke="none"/>
    <path d="M-0.45 -8.4 L-0.5 -8.5 -1.15 -9.15 -0.85 -9.4 -0.5 -9.5 -0.25 -9.5 -0.2 -9.45 0.0 -9.65 0.15 -9.95 0.5 -10.25 0.6 -10.25 1.1 -9.9 Q1.45 -9.35 0.95 -8.7 L0.85 -8.5 0.85 -8.4 0.75 -8.1 -0.2 -8.2 -0.45 -8.4" fill="#000000" fill-rule="evenodd" stroke="none"/>
  </g>
  <defs>
    <radialGradient cx="0" cy="0" gradientTransform="matrix(0.0054, 0.0, 0.0, 0.0054, 0.4, -9.95)" gradientUnits="userSpaceOnUse" id="gradient0" r="819.2" spreadMethod="pad">
      <stop offset="0.0" stop-color="#4e0707"/>
      <stop offset="0.16470588235294117" stop-color="#b41010"/>
      <stop offset="0.5294117647058824" stop-color="#e23612"/>
      <stop offset="0.807843137254902" stop-color="#fd5037"/>
      <stop offset="1.0" stop-color="#fd5037" stop-opacity="0.0"/>
    </radialGradient>
    <radialGradient cx="0" cy="0" gradientTransform="matrix(0.0023, 0.0, 0.0, 0.0023, -0.6, -7.65)" gradientUnits="userSpaceOnUse" id="gradient1" r="819.2" spreadMethod="pad">
      <stop offset="0.0" stop-color="#4e0707"/>
      <stop offset="0.16470588235294117" stop-color="#b41010"/>
      <stop offset="0.5294117647058824" stop-color="#e23612"/>
      <stop offset="0.807843137254902" stop-color="#fd5037"/>
      <stop offset="1.0" stop-color="#fd5037" stop-opacity="0.0"/>
    </radialGradient>
  </defs>
</svg>
