<?xml version="1.0" encoding="UTF-8" standalone="no"?>
<svg xmlns:xlink="http://www.w3.org/1999/xlink" height="22.25px" width="36.0px" xmlns="http://www.w3.org/2000/svg">
  <g transform="matrix(1.0, 0.0, 0.0, 1.0, 19.5, 18.75)">
    <path d="M-18.25 1.0 L-18.05 -2.0 -17.9 -3.25 Q-17.8 -4.15 -17.0 -4.55 L-16.2 -4.9 -14.9 -4.85 -14.5 -4.8 Q-13.65 -4.95 -12.95 -5.35 -12.6 -5.5 -12.55 -6.0 -12.35 -8.05 -10.75 -9.5 -10.1 -10.1 -10.05 -11.0 L-9.65 -12.45 -8.05 -14.5 -7.05 -14.75 -6.25 -14.15 Q-5.75 -13.25 -5.6 -12.25 L-5.4 -10.5 -5.25 -10.0 Q-3.95 -11.1 -2.5 -11.0 -2.1 -11.0 -1.75 -10.5 L0.4 -12.6 1.2 -13.8 Q2.15 -15.95 4.0 -17.5 L5.75 -16.1 Q6.25 -15.75 7.0 -15.8 L8.5 -15.9 11.0 -15.85 Q11.75 -15.75 12.15 -15.25 L12.7 -13.75 Q12.75 -12.65 13.05 -11.6 L13.6 -10.4 14.0 -9.25 Q14.3 -7.5 13.4 -6.15 L13.15 -5.55 12.9 -4.7 12.75 -3.5 12.9 -2.7 Q13.45 -1.55 13.1 -0.45 12.85 0.4 13.5 1.0 14.2 1.55 15.0 1.0 14.9 1.7 15.25 2.25" fill="none" stroke="#000000" stroke-linecap="round" stroke-linejoin="round" stroke-opacity="0.5019608" stroke-width="2.5"/>
    <path d="M-18.25 1.0 L-18.05 -2.0 -17.9 -3.25 Q-17.8 -4.15 -17.0 -4.55 L-16.2 -4.9 -14.9 -4.85 -14.5 -4.8 Q-13.65 -4.95 -12.95 -5.35 -12.6 -5.5 -12.55 -6.0 -12.35 -8.05 -10.75 -9.5 -10.1 -10.1 -10.05 -11.0 L-9.65 -12.45 -8.05 -14.5 -7.05 -14.75 -6.25 -14.15 Q-5.75 -13.25 -5.6 -12.25 L-5.4 -10.5 -5.25 -10.0 Q-3.95 -11.1 -2.5 -11.0 -2.1 -11.0 -1.75 -10.5 L0.4 -12.6 1.2 -13.8 Q2.15 -15.95 4.0 -17.5 L5.75 -16.1 Q6.25 -15.75 7.0 -15.8 L8.5 -15.9 11.0 -15.85 Q11.75 -15.75 12.15 -15.25 L12.7 -13.75 Q12.75 -12.65 13.05 -11.6 L13.6 -10.4 14.0 -9.25 Q14.3 -7.5 13.4 -6.15 L13.15 -5.55 12.9 -4.7 12.75 -3.5 12.9 -2.7 Q13.45 -1.55 13.1 -0.45 12.85 0.4 13.5 1.0 14.2 1.55 15.0 1.0 14.9 1.7 15.25 2.25" fill="none" stroke="#000000" stroke-linecap="round" stroke-linejoin="round" stroke-width="1.0"/>
  </g>
</svg>
