<?xml version="1.0" encoding="UTF-8" standalone="no"?>
<svg xmlns:xlink="http://www.w3.org/1999/xlink" height="46.0px" width="46.5px" xmlns="http://www.w3.org/2000/svg">
  <g transform="matrix(1.0, 0.0, 0.0, 1.0, 23.35, 23.15)">
    <path d="M22.65 -0.15 Q22.65 9.15 15.95 15.75 9.3 22.35 -0.1 22.35 -9.5 22.35 -16.2 15.75 -22.85 9.15 -22.85 -0.15 -22.85 -9.45 -16.2 -16.05 -9.5 -22.65 -0.1 -22.65 9.3 -22.65 15.95 -16.05 22.65 -9.45 22.65 -0.15 Z" fill="none" stroke="#000000" stroke-linecap="round" stroke-linejoin="round" stroke-width="1.0"/>
    <path d="M0.2 -13.75 L0.2 -20.15 -1.15 -20.15 -1.15 -13.75 0.2 -13.75 M0.35 -12.95 L-1.35 -12.95 -1.35 -20.95 0.35 -20.95 0.35 -12.95 M6.3 -3.15 L6.25 -3.25 Q4.65 -5.4 2.65 -4.45 L3.7 -5.25 3.75 -5.35 3.95 -5.6 4.0 -5.65 Q4.7 -6.8 4.2 -8.4 L4.55 -7.7 4.65 -7.55 Q5.8 -6.0 8.0 -6.85 5.6 -5.65 6.35 -3.15 L6.3 -3.15 M6.8 -2.1 L8.25 -1.25 Q10.05 -0.05 10.9 1.45 L10.15 2.45 Q9.55 0.65 7.5 -0.75 4.5 -2.75 0.3 -2.7 L-1.8 -2.6 -1.65 -2.75 -1.85 -2.6 Q-4.35 -2.25 -6.3 -1.1 L-7.3 -1.5 Q-4.15 -3.5 0.3 -3.45 3.85 -3.5 6.6 -2.2 L6.85 -1.85 6.8 -2.1 M3.35 -5.6 L3.05 -5.2 Q-0.75 -5.9 -5.1 -4.5 L-5.1 -10.15 -4.1 -10.3 -4.1 -5.25 3.35 -5.6 M4.2 -8.6 L3.7 -9.55 Q4.45 -7.25 3.4 -5.65 L3.5 -11.25 -2.9 -11.25 -3.1 -12.0 4.4 -12.0 4.35 -8.4 4.2 -8.6 M14.35 -10.65 Q12.8 -8.85 14.55 -7.15 12.7 -8.6 11.05 -7.0 12.3 -9.2 10.85 -10.5 12.65 -9.1 14.35 -10.65 M-2.85 -14.15 Q-3.75 -13.0 -3.55 -11.95 L-3.45 -11.4 -3.4 -11.35 -2.35 -10.15 Q-3.35 -10.8 -4.25 -10.75 L-4.95 -10.65 -5.05 -10.6 Q-5.8 -10.4 -6.5 -9.6 -5.15 -12.25 -7.0 -13.65 -4.7 -12.15 -2.85 -14.15 M-13.55 -7.4 Q-12.1 -5.55 -10.25 -7.05 -11.9 -5.45 -10.6 -3.5 -12.45 -5.15 -13.9 -3.85 -12.3 -5.5 -13.55 -7.4 M-2.85 -1.5 Q-4.95 1.05 -2.75 3.65 -5.85 1.55 -7.85 3.65 -6.4 1.85 -6.85 0.15 L-7.1 -0.5 -7.2 -0.65 -7.7 -1.45 -6.9 -0.9 -6.7 -0.75 Q-6.35 -0.55 -6.0 -0.45 -4.45 -0.05 -2.9 -1.5 L-2.85 -1.5 M-7.85 -1.15 L-7.5 -0.25 Q-9.85 1.6 -9.8 4.1 -9.85 6.95 -6.85 8.9 L-6.7 9.0 -8.2 8.75 -9.65 7.7 -9.35 8.05 Q-11.0 6.3 -10.95 4.1 -11.0 1.05 -7.85 -1.15 M-8.6 8.75 L-7.85 9.25 -6.8 9.45 -6.1 9.25 -5.15 8.55 -5.75 9.45 -5.9 9.95 -5.95 10.35 -5.95 10.6 Q-5.95 11.4 -5.3 12.25 L-5.35 12.35 -8.85 12.45 Q-7.35 10.6 -8.65 8.8 L-8.6 8.75 M-5.55 10.6 L-5.55 10.3 -5.45 9.75 Q-2.95 10.9 0.3 10.9 4.5 10.9 7.5 8.9 10.45 6.95 10.45 4.1 L10.25 2.7 Q10.75 2.45 11.25 2.4 L11.55 4.1 Q11.55 7.25 8.25 9.45 4.95 11.65 0.3 11.65 -2.95 11.65 -5.55 10.6 M-18.15 4.0 Q-15.0 5.15 -13.75 2.0 -14.65 5.15 -11.65 6.55 -15.15 5.95 -16.05 8.55 -15.25 5.4 -18.15 4.0 M-3.75 13.45 Q-3.6 16.95 -2.25 19.5 L3.35 19.5 3.5 13.5 Q-0.05 14.8 -3.75 13.45 M-4.4 13.3 L-4.6 13.0 -4.65 12.65 Q0.0 14.35 4.4 12.75 L4.25 20.25 -2.75 20.25 Q-4.35 17.2 -4.6 13.15 L-4.4 13.3 M7.55 5.15 Q4.4 6.05 4.8 9.35 3.45 6.05 0.75 6.65 3.85 5.7 3.5 2.5 4.2 5.75 7.55 5.15 M9.5 10.8 Q8.85 12.9 10.75 14.1 8.7 13.1 7.85 15.2 8.5 13.05 6.6 11.9 8.85 12.55 9.5 10.8" fill="#000000" fill-rule="evenodd" stroke="none"/>
    <path d="M6.35 -3.15 L6.4 -3.0 6.3 -3.15 6.35 -3.15 M-7.7 -1.45 L-7.85 -1.6 -7.7 -1.45 M-2.85 -1.5 L-2.9 -1.5 -2.85 -1.55 -2.75 -1.6 -2.85 -1.5 M-5.3 12.25 L-5.25 12.35 -5.15 12.45 -5.3 12.35 -5.35 12.35 -5.3 12.25 M-8.65 8.8 L-8.85 8.55 -8.6 8.75 -8.65 8.8" fill="#0030ff" fill-rule="evenodd" stroke="none"/>
    <path d="M16.45 -1.95 Q13.8 0.25 15.6 3.2 13.65 1.4 11.95 1.75 L11.2 1.95 11.05 2.05 10.55 2.35 11.0 1.95 11.15 1.75 11.7 1.05 Q12.65 -0.7 11.45 -2.8 13.55 0.05 16.45 -1.95" fill="#000000" fill-rule="evenodd" stroke="none"/>
  </g>
</svg>
