<?xml version="1.0" encoding="UTF-8" standalone="no"?>
<svg xmlns:xlink="http://www.w3.org/1999/xlink" height="9.15px" width="6.05px" xmlns="http://www.w3.org/2000/svg">
  <g transform="matrix(1.0, 0.0, 0.0, 1.0, 2.85, 6.1)">
    <path d="M0.5 -5.6 L0.5 -3.0 Q1.55 -2.9 2.3 -2.15 3.2 -1.25 3.2 0.0 3.15 1.25 2.3 2.1 L2.25 2.15 Q1.4 3.0 0.15 3.05 -1.1 3.05 -2.0 2.15 -2.9 1.25 -2.85 0.0 -2.9 -1.25 -2.0 -2.15 -1.35 -2.8 -0.5 -2.95 L-0.5 -5.6 -0.35 -5.95 0.0 -6.1 0.35 -5.95 0.5 -5.6 M1.75 -1.6 Q1.2 -2.15 0.5 -2.25 L0.5 -1.75 0.35 -1.4 0.0 -1.25 -0.35 -1.4 -0.5 -1.75 -0.5 -2.2 -1.45 -1.65 -1.5 -1.6 Q-2.1 -0.95 -2.1 0.0 -2.1 0.95 -1.45 1.6 -0.8 2.25 0.15 2.3 1.1 2.3 1.75 1.6 2.45 0.95 2.45 0.0 2.4 -0.95 1.75 -1.6" fill="url(#gradient0)" fill-rule="evenodd" stroke="none"/>
  </g>
  <defs>
    <linearGradient gradientTransform="matrix(0.002, -0.0031, 0.0047, 0.003, -0.45, -0.55)" gradientUnits="userSpaceOnUse" id="gradient0" spreadMethod="pad" x1="-819.2" x2="819.2">
      <stop offset="0.0" stop-color="#1f2830"/>
      <stop offset="0.5137254901960784" stop-color="#e1e1e1"/>
      <stop offset="0.8705882352941177" stop-color="#1f2830"/>
    </linearGradient>
  </defs>
</svg>
