<?xml version="1.0" encoding="UTF-8" standalone="no"?>
<svg xmlns:xlink="http://www.w3.org/1999/xlink" height="35.7px" width="35.7px" xmlns="http://www.w3.org/2000/svg">
  <g transform="matrix(1.0, 0.0, 0.0, 1.0, 17.85, 17.85)">
    <path d="M12.2 -8.6 L14.3 -10.7 15.0 -9.75 Q16.55 -7.4 17.25 -4.75 L17.7 -2.5 17.8 -1.75 17.85 0.0 17.8 1.75 17.7 2.5 Q17.1 7.1 14.25 10.75 L12.15 8.6 Q14.15 5.85 14.7 2.5 L14.8 1.75 14.9 0.0 14.8 -1.75 14.7 -2.5 14.15 -4.75 Q13.5 -6.8 12.2 -8.6 M10.45 -14.55 L10.8 -14.25 8.65 -12.1 5.9 -13.75 Q3.2 -14.9 0.0 -14.9 -3.2 -14.9 -5.9 -13.75 L-8.65 -12.15 -10.75 -14.25 -10.4 -14.55 Q-8.95 -15.6 -7.35 -16.3 -4.0 -17.85 0.0 -17.85 4.0 -17.85 7.4 -16.3 8.95 -15.6 10.45 -14.55 M0.0 17.85 Q-4.0 17.8 -7.35 16.3 L-10.4 14.5 -10.7 14.3 -8.55 12.15 -5.85 13.7 Q-3.2 14.85 0.0 14.85 3.2 14.85 5.9 13.7 L8.6 12.15 10.75 14.25 10.45 14.5 7.4 16.3 Q4.0 17.8 0.0 17.85 M-14.25 -10.75 L-12.15 -8.6 Q-13.45 -6.8 -14.15 -4.75 L-14.65 -2.5 -14.75 -1.75 -14.85 0.0 -14.75 1.75 -14.65 2.5 Q-14.15 5.9 -12.1 8.65 L-14.2 10.75 Q-17.1 7.1 -17.7 2.5 L-17.75 1.75 -17.85 0.0 -17.75 -1.75 -17.7 -2.5 -17.25 -4.75 Q-16.55 -7.4 -15.0 -9.75 L-14.25 -10.75" fill="#01f301" fill-rule="evenodd" stroke="none"/>
  </g>
</svg>
