<?xml version="1.0" encoding="UTF-8" standalone="no"?>
<svg xmlns:xlink="http://www.w3.org/1999/xlink" height="51.0px" width="50.8px" xmlns="http://www.w3.org/2000/svg">
  <g transform="matrix(1.0, 0.0, 0.0, 1.0, 25.4, 25.5)">
    <path d="M0.0 21.25 Q4.55 21.25 8.4 19.6 L10.55 23.3 Q5.75 25.5 0.0 25.5 -5.7 25.5 -10.55 23.3 L-8.4 19.6 Q-4.55 21.25 0.0 21.25 M21.15 2.5 L25.4 2.5 Q24.7 10.25 19.7 16.2 L18.0 18.0 16.2 19.7 14.9 20.75 12.75 17.05 13.15 16.7 15.0 15.0 16.7 13.15 Q20.5 8.5 21.15 2.5 M8.4 -19.6 Q4.55 -21.25 0.0 -21.25 -4.55 -21.25 -8.4 -19.6 L-10.55 -23.3 Q-5.75 -25.5 0.0 -25.5 5.75 -25.5 10.55 -23.3 L8.4 -19.6 M16.25 -19.7 L18.0 -18.05 19.75 -16.15 Q22.25 -13.15 23.65 -9.75 24.65 -7.35 25.1 -4.75 L25.4 -2.5 21.15 -2.5 20.75 -4.75 Q20.2 -7.4 18.95 -9.75 L16.75 -13.15 15.0 -15.05 13.2 -16.65 12.75 -17.05 14.9 -20.75 16.25 -19.7 M-23.65 -9.75 Q-22.25 -13.2 -19.7 -16.2 L-18.05 -18.05 -16.2 -19.7 -14.85 -20.75 -12.75 -17.05 -13.15 -16.7 -15.05 -15.05 -16.7 -13.2 Q-18.05 -11.55 -18.95 -9.75 -20.2 -7.4 -20.75 -4.75 L-21.1 -2.5 -25.4 -2.5 -25.1 -4.75 Q-24.65 -7.35 -23.65 -9.75 M-13.1 16.7 L-12.7 17.05 -14.85 20.75 -16.15 19.75 -18.05 18.0 -19.7 16.25 Q-24.7 10.25 -25.4 2.5 L-21.1 2.5 Q-20.5 8.5 -16.65 13.2 L-15.05 15.0 -13.1 16.7" fill="#01f301" fill-rule="evenodd" stroke="none"/>
  </g>
</svg>
