<?xml version="1.0" encoding="UTF-8" standalone="no"?>
<svg xmlns:xlink="http://www.w3.org/1999/xlink" height="26.8px" width="26.75px" xmlns="http://www.w3.org/2000/svg">
  <g transform="matrix(1.0, 0.0, 0.0, 1.0, 13.4, 13.4)">
    <path d="M10.5 7.1 L10.7 7.7 10.05 7.7 10.5 7.1 M-1.5 0.55 L-1.65 0.55 0.0 -5.0 0.1 -4.7 -1.5 0.55" fill="#a2fea0" fill-rule="evenodd" stroke="none"/>
    <path d="M-1.5 0.55 L0.1 -4.7 1.7 0.55 -1.5 0.55" fill="#7bff7b" fill-rule="evenodd" stroke="none"/>
    <path d="M10.05 7.7 L8.9 8.95 Q5.25 12.65 0.0 12.65 -5.25 12.65 -9.0 8.95 -12.65 5.25 -12.65 0.0 -12.65 -5.25 -9.0 -8.95 -6.0 -11.9 -2.05 -12.5 L0.0 -12.65 2.1 -12.5 Q6.0 -11.9 8.9 -8.95 12.6 -5.25 12.6 0.0 12.6 4.0 10.5 7.1 L10.05 7.7 M2.7 -9.05 L-2.5 -9.05 -8.4 6.4 -3.45 6.4 -2.7 3.9 2.8 3.9 3.5 6.4 8.55 6.4 2.7 -9.05" fill="url(#gradient0)" fill-rule="evenodd" stroke="none"/>
    <path d="M0.1 -4.7 L0.0 -5.0 -1.65 0.55 -1.5 0.55 1.7 0.55 0.1 -4.7 M2.7 -9.05 L8.55 6.4 3.5 6.4 2.8 3.9 -2.7 3.9 -3.45 6.4 -8.4 6.4 -2.5 -9.05 2.7 -9.05" fill="#017801" fill-rule="evenodd" stroke="none"/>
    <path d="M10.05 7.7 L8.9 8.95 Q5.25 12.65 0.0 12.65 -5.25 12.65 -9.0 8.95 -12.65 5.25 -12.65 0.0 -12.65 -5.25 -9.0 -8.95 -6.0 -11.9 -2.05 -12.5 L0.0 -12.65 2.1 -12.5 Q6.0 -11.9 8.9 -8.95 12.6 -5.25 12.6 0.0 12.6 4.0 10.5 7.1" fill="none" stroke="#03c102" stroke-linecap="round" stroke-linejoin="round" stroke-width="1.5"/>
  </g>
  <defs>
    <linearGradient gradientTransform="matrix(0.0154, 0.0, 0.0, 0.0155, -0.05, 0.05)" gradientUnits="userSpaceOnUse" id="gradient0" spreadMethod="pad" x1="-819.2" x2="819.2">
      <stop offset="0.0" stop-color="#65fe65"/>
      <stop offset="1.0" stop-color="#d9ffd9"/>
    </linearGradient>
  </defs>
</svg>
