<?xml version="1.0" encoding="UTF-8" standalone="no"?>
<svg xmlns:xlink="http://www.w3.org/1999/xlink" height="35.0px" width="43.0px" xmlns="http://www.w3.org/2000/svg">
  <g transform="matrix(1.0, 0.0, 0.0, 1.0, 22.5, 21.5)">
    <path d="M20.0 -4.0 Q20.0 3.05 13.85 8.0 7.7 13.0 -1.0 13.0 -9.7 13.0 -15.85 8.0 -22.0 3.05 -22.0 -4.0 -22.0 -11.05 -15.85 -16.05 -9.7 -21.0 -1.0 -21.0 7.7 -21.0 13.85 -16.05 20.0 -11.05 20.0 -4.0" fill="#ffffff" fill-rule="evenodd" stroke="none"/>
    <path d="M20.0 -4.0 Q20.0 3.05 13.85 8.0 7.7 13.0 -1.0 13.0 -9.7 13.0 -15.85 8.0 -22.0 3.05 -22.0 -4.0 -22.0 -11.05 -15.85 -16.05 -9.7 -21.0 -1.0 -21.0 7.7 -21.0 13.85 -16.05 20.0 -11.05 20.0 -4.0 Z" fill="none" stroke="#ffffff" stroke-linecap="round" stroke-linejoin="round" stroke-width="1.0"/>
  </g>
</svg>
