<?xml version="1.0" encoding="UTF-8" standalone="no"?>
<svg xmlns:xlink="http://www.w3.org/1999/xlink" height="26.8px" width="26.75px" xmlns="http://www.w3.org/2000/svg">
  <g transform="matrix(1.0, 0.0, 0.0, 1.0, 13.4, 13.4)">
    <path d="M-0.1 -8.3 Q-2.5 -8.3 -3.9 -7.7 -5.25 -7.1 -6.0 -6.0 -6.7 -4.9 -6.7 -3.7 -6.7 -1.95 -5.4 -0.7 -3.95 0.35 -0.8 1.1 1.1 1.55 1.6 2.05 2.2 2.5 2.2 3.1 2.2 3.7 1.6 4.2 0.95 4.7 0.0 4.7 -1.4 4.65 -2.1 3.7 -2.6 3.1 -2.7 2.05 L-7.3 2.3 Q-7.05 4.7 -5.5 6.25 -4.05 7.7 -0.1 7.7 L3.6 7.1 Q5.15 6.35 6.0 5.2 6.75 3.95 6.75 2.4 6.75 1.2 6.15 0.1 5.55 -0.85 4.2 -1.55 2.9 -2.3 -0.3 -2.9 -1.55 -3.25 -1.9 -3.5 L-2.25 -4.2 -1.8 -5.0 Q-1.45 -5.4 -0.6 -5.4 0.5 -5.4 1.0 -4.9 1.55 -4.45 1.8 -3.35 L6.3 -3.6 Q6.05 -6.0 4.5 -7.1 2.9 -8.3 -0.1 -8.3 M10.05 7.7 L8.9 8.95 Q5.25 12.65 0.0 12.65 -5.25 12.65 -9.0 8.95 -12.65 5.25 -12.65 0.0 -12.65 -5.25 -9.0 -8.95 -5.25 -12.65 0.0 -12.65 5.25 -12.65 8.9 -8.95 12.6 -5.25 12.6 0.0 12.6 4.0 10.5 7.1 L10.05 7.7" fill="url(#gradient0)" fill-rule="evenodd" stroke="none"/>
    <path d="M-0.1 -8.3 Q2.9 -8.3 4.5 -7.1 6.05 -6.0 6.3 -3.6 L1.8 -3.35 Q1.55 -4.45 1.0 -4.9 0.5 -5.4 -0.6 -5.4 -1.45 -5.4 -1.8 -5.0 L-2.25 -4.2 -1.9 -3.5 Q-1.55 -3.25 -0.3 -2.9 2.9 -2.3 4.2 -1.55 5.55 -0.85 6.15 0.1 6.75 1.2 6.75 2.4 6.75 3.95 6.0 5.2 5.15 6.35 3.6 7.1 L-0.1 7.7 Q-4.05 7.7 -5.5 6.25 -7.05 4.7 -7.3 2.3 L-2.7 2.05 Q-2.6 3.1 -2.1 3.7 -1.4 4.65 0.0 4.7 0.95 4.7 1.6 4.2 2.2 3.7 2.2 3.1 2.2 2.5 1.6 2.05 1.1 1.55 -0.8 1.1 -3.95 0.35 -5.4 -0.7 -6.7 -1.95 -6.7 -3.7 -6.7 -4.9 -6.0 -6.0 -5.25 -7.1 -3.9 -7.7 -2.5 -8.3 -0.1 -8.3" fill="#017801" fill-rule="evenodd" stroke="none"/>
    <path d="M10.5 7.1 L10.7 7.7 10.05 7.7 10.5 7.1" fill="#a2fea0" fill-rule="evenodd" stroke="none"/>
    <path d="M10.05 7.7 L8.9 8.95 Q5.25 12.65 0.0 12.65 -5.25 12.65 -9.0 8.95 -12.65 5.25 -12.65 0.0 -12.65 -5.25 -9.0 -8.95 -5.25 -12.65 0.0 -12.65 5.25 -12.65 8.9 -8.95 12.6 -5.25 12.6 0.0 12.6 4.0 10.5 7.1" fill="none" stroke="#03c102" stroke-linecap="round" stroke-linejoin="round" stroke-width="1.5"/>
  </g>
  <defs>
    <linearGradient gradientTransform="matrix(0.0154, 0.0, 0.0, 0.0155, -0.05, 0.05)" gradientUnits="userSpaceOnUse" id="gradient0" spreadMethod="pad" x1="-819.2" x2="819.2">
      <stop offset="0.0" stop-color="#65fe65"/>
      <stop offset="1.0" stop-color="#d9ffd9"/>
    </linearGradient>
  </defs>
</svg>
