<?xml version="1.0" encoding="UTF-8" standalone="no"?>
<svg xmlns:xlink="http://www.w3.org/1999/xlink" height="26.8px" width="26.75px" xmlns="http://www.w3.org/2000/svg">
  <g transform="matrix(1.0, 0.0, 0.0, 1.0, 13.4, 13.4)">
    <path d="M10.05 7.7 L8.9 8.95 Q5.25 12.65 0.0 12.65 -5.25 12.65 -9.0 8.95 -12.65 5.25 -12.65 0.0 -12.65 -5.25 -9.0 -8.95 -5.25 -12.65 0.0 -12.65 5.25 -12.65 8.9 -8.95 12.6 -5.25 12.6 0.0 12.6 4.0 10.5 7.1 L10.05 7.7 M4.0 -7.4 Q2.75 -8.0 0.6 -8.0 L-6.45 -8.0 -6.45 7.45 0.6 7.45 3.5 7.0 Q4.6 6.75 5.7 5.8 6.6 4.95 7.2 3.5 7.8 2.15 7.8 -0.35 L7.35 -3.35 Q7.0 -4.65 6.15 -5.75 5.3 -6.85 4.0 -7.4" fill="url(#gradient0)" fill-rule="evenodd" stroke="none"/>
    <path d="M4.0 -7.4 Q5.3 -6.85 6.15 -5.75 7.0 -4.65 7.35 -3.35 L7.8 -0.35 Q7.8 2.15 7.2 3.5 6.6 4.95 5.7 5.8 4.6 6.75 3.5 7.0 L0.6 7.45 -6.45 7.45 -6.45 -8.0 0.6 -8.0 Q2.75 -8.0 4.0 -7.4 M2.2 -3.6 Q1.35 -4.45 -0.45 -4.4 L-1.65 -4.4 -1.65 4.0 -0.6 4.0 1.6 3.6 Q2.3 3.25 2.7 2.4 3.0 1.7 3.0 -0.2 3.0 -2.65 2.2 -3.6" fill="#017801" fill-rule="evenodd" stroke="none"/>
    <path d="M2.2 -3.6 Q3.0 -2.65 3.0 -0.2 3.0 1.7 2.7 2.4 2.3 3.25 1.6 3.6 L-0.6 4.0 -1.65 4.0 -1.65 -4.4 -0.45 -4.4 Q1.35 -4.45 2.2 -3.6" fill="url(#gradient1)" fill-rule="evenodd" stroke="none"/>
    <path d="M10.5 7.1 L10.7 7.7 10.05 7.7 10.5 7.1" fill="#a2fea0" fill-rule="evenodd" stroke="none"/>
    <path d="M10.05 7.7 L8.9 8.95 Q5.25 12.65 0.0 12.65 -5.25 12.65 -9.0 8.95 -12.65 5.25 -12.65 0.0 -12.65 -5.25 -9.0 -8.95 -5.25 -12.65 0.0 -12.65 5.25 -12.65 8.9 -8.95 12.6 -5.25 12.6 0.0 12.6 4.0 10.5 7.1" fill="none" stroke="#03c102" stroke-linecap="round" stroke-linejoin="round" stroke-width="1.5"/>
  </g>
  <defs>
    <linearGradient gradientTransform="matrix(0.0154, 0.0, 0.0, 0.0155, -0.05, 0.05)" gradientUnits="userSpaceOnUse" id="gradient0" spreadMethod="pad" x1="-819.2" x2="819.2">
      <stop offset="0.0" stop-color="#65fe65"/>
      <stop offset="1.0" stop-color="#d9ffd9"/>
    </linearGradient>
    <linearGradient gradientTransform="matrix(0.0029, 0.0, 0.0, 0.0051, 0.7, -0.25)" gradientUnits="userSpaceOnUse" id="gradient1" spreadMethod="pad" x1="-819.2" x2="819.2">
      <stop offset="0.0" stop-color="#65fe65"/>
      <stop offset="1.0" stop-color="#d9ffd9"/>
    </linearGradient>
  </defs>
</svg>
