<?xml version="1.0" encoding="UTF-8" standalone="no"?>
<svg xmlns:xlink="http://www.w3.org/1999/xlink" height="38.55px" width="23.5px" xmlns="http://www.w3.org/2000/svg">
  <g transform="matrix(1.0, 0.0, 0.0, 1.0, 11.0, 4.6)">
    <path d="M-8.45 10.85 L-8.45 4.65 Q-8.45 1.0 -5.9 -1.55 -3.35 -4.1 0.3 -4.1 3.95 -4.1 6.5 -1.55 9.05 1.0 9.1 4.65 L9.1 10.6 8.25 10.5 6.1 10.5 6.1 5.95 Q6.1 3.1 4.4 1.15 2.7 -0.85 0.25 -0.85 -2.2 -0.85 -3.9 1.15 -5.6 3.1 -5.6 5.95 L-5.6 10.5 -7.0 10.5 Q-7.8 10.5 -8.45 10.85" fill="url(#gradient0)" fill-rule="evenodd" stroke="none"/>
    <path d="M-8.45 10.85 Q-7.8 10.5 -7.0 10.5 L-5.6 10.5 6.1 10.5 8.25 10.5 9.1 10.6 Q9.8 10.8 10.35 11.35 11.25 12.25 12.0 14.75 8.0 21.2 11.25 28.0 11.25 29.25 10.35 30.1 L8.5 31.75 Q0.65 35.15 -7.0 31.75 L-9.15 30.1 Q-10.0 29.25 -10.0 28.0 -7.5 21.75 -10.5 15.5 -10.0 12.25 -9.15 11.35 L-8.45 10.85 M3.05 21.0 Q4.3 19.9 4.3 18.3 4.3 16.75 3.05 15.65 L3.05 15.6 Q1.9 14.55 0.25 14.55 -1.4 14.55 -2.55 15.6 L-2.6 15.65 Q-3.8 16.75 -3.75 18.3 -3.8 19.85 -2.6 21.0 L-2.55 21.0 -2.0 21.45 -3.05 25.4 -3.0 25.9 -2.7 26.35 -2.2 26.5 2.9 26.5 3.4 26.3 3.75 25.9 3.75 25.35 2.6 21.4 3.05 21.05 3.1 21.0 3.05 21.0" fill="url(#gradient1)" fill-rule="evenodd" stroke="none"/>
    <path d="M3.05 21.05 L2.6 21.4 3.75 25.35 3.75 25.9 3.4 26.3 2.9 26.5 -2.2 26.5 -2.7 26.35 -3.0 25.9 -3.05 25.4 -2.0 21.45 -2.55 21.0 -2.6 21.0 Q-3.8 19.85 -3.75 18.3 -3.8 16.75 -2.6 15.65 L-2.55 15.6 Q-1.4 14.55 0.25 14.55 1.9 14.55 3.05 15.6 L3.05 15.65 Q4.3 16.75 4.3 18.3 4.3 19.9 3.05 21.0 L3.05 21.05 M-1.4 16.9 Q-2.0 17.5 -2.0 18.3 -2.0 19.1 -1.4 19.7 L-1.4 19.75 -0.65 20.2 Q-0.35 20.35 -0.2 20.65 -0.05 20.9 -0.15 21.25 L-1.05 24.75 1.75 24.75 0.7 21.2 Q0.6 20.9 0.8 20.6 0.9 20.25 1.25 20.15 L1.85 19.75 1.9 19.7 Q2.5 19.1 2.55 18.3 2.5 17.5 1.9 16.9 L1.85 16.9 Q1.2 16.25 0.25 16.3 -0.7 16.25 -1.4 16.9" fill="url(#gradient2)" fill-rule="evenodd" stroke="none"/>
    <path d="M3.05 21.05 L3.05 21.0 3.1 21.0 3.05 21.05 M-1.4 16.9 Q-0.7 16.25 0.25 16.3 1.2 16.25 1.85 16.9 L1.9 16.9 Q2.5 17.5 2.55 18.3 2.5 19.1 1.9 19.7 L1.85 19.75 1.25 20.15 Q0.9 20.25 0.8 20.6 0.6 20.9 0.7 21.2 L1.75 24.75 -1.05 24.75 -0.15 21.25 Q-0.05 20.9 -0.2 20.65 -0.35 20.35 -0.65 20.2 L-1.4 19.75 -1.4 19.7 Q-2.0 19.1 -2.0 18.3 -2.0 17.5 -1.4 16.9" fill="#000000" fill-rule="evenodd" stroke="none"/>
    <path d="M9.1 10.6 L9.1 4.65 Q9.05 1.0 6.5 -1.55 3.95 -4.1 0.3 -4.1 -3.35 -4.1 -5.9 -1.55 -8.45 1.0 -8.45 4.65 L-8.45 10.85 Q-7.8 10.5 -7.0 10.5 L-5.6 10.5 -5.6 5.95 Q-5.6 3.1 -3.9 1.15 -2.2 -0.85 0.25 -0.85 2.7 -0.85 4.4 1.15 6.1 3.1 6.1 5.95 L6.1 10.5 8.25 10.5 9.1 10.6 Q9.8 10.8 10.35 11.35 11.25 12.25 12.0 14.75 8.0 21.2 11.25 28.0 11.25 29.25 10.35 30.1 L8.5 31.75 Q0.65 35.15 -7.0 31.75 L-9.15 30.1 Q-10.0 29.25 -10.0 28.0 -7.5 21.75 -10.5 15.5 -10.0 12.25 -9.15 11.35 L-8.45 10.85 M6.1 10.5 L-5.6 10.5" fill="none" stroke="#000000" stroke-linecap="round" stroke-linejoin="round" stroke-width="1.0"/>
  </g>
  <defs>
    <linearGradient gradientTransform="matrix(0.0107, 0.0, 0.0, 0.0144, 0.3, 7.7)" gradientUnits="userSpaceOnUse" id="gradient0" spreadMethod="pad" x1="-819.2" x2="819.2">
      <stop offset="0.0" stop-color="#edc03d"/>
      <stop offset="0.20784313725490197" stop-color="#f7ed7d"/>
      <stop offset="0.40784313725490196" stop-color="#f4f4f4"/>
      <stop offset="0.592156862745098" stop-color="#eedd6a"/>
      <stop offset="0.9607843137254902" stop-color="#e0aa0a"/>
    </linearGradient>
    <linearGradient gradientTransform="matrix(0.0137, 0.0, 0.0, 0.014, 0.75, 21.95)" gradientUnits="userSpaceOnUse" id="gradient1" spreadMethod="pad" x1="-819.2" x2="819.2">
      <stop offset="0.0" stop-color="#edc03d"/>
      <stop offset="0.20784313725490197" stop-color="#f7ed7d"/>
      <stop offset="0.40784313725490196" stop-color="#f4f4f4"/>
      <stop offset="0.592156862745098" stop-color="#eedd6a"/>
      <stop offset="0.9607843137254902" stop-color="#e0aa0a"/>
    </linearGradient>
    <linearGradient gradientTransform="matrix(0.0049, 0.0, 0.0, 0.0073, 0.25, 20.5)" gradientUnits="userSpaceOnUse" id="gradient2" spreadMethod="pad" x1="-819.2" x2="819.2">
      <stop offset="0.0" stop-color="#b88d12"/>
      <stop offset="0.20784313725490197" stop-color="#d1b80e"/>
      <stop offset="0.40784313725490196" stop-color="#2d2d2d"/>
      <stop offset="0.592156862745098" stop-color="#60540b"/>
      <stop offset="0.9607843137254902" stop-color="#372902"/>
    </linearGradient>
  </defs>
</svg>
