<?xml version="1.0" encoding="UTF-8" standalone="no"?>
<svg xmlns:xlink="http://www.w3.org/1999/xlink" height="45.3px" width="23.5px" xmlns="http://www.w3.org/2000/svg">
  <g transform="matrix(1.0, 0.0, 0.0, 1.0, 10.5, 16.85)">
    <path d="M-7.95 5.35 L-7.95 -7.6 Q-7.95 -11.25 -5.4 -13.8 -2.85 -16.35 0.8 -16.35 4.45 -16.35 7.0 -13.8 9.55 -11.25 9.6 -7.6 L9.6 0.5 6.6 0.5 6.6 -6.3 Q6.6 -9.15 4.9 -11.1 3.2 -13.1 0.75 -13.1 -1.7 -13.1 -3.4 -11.1 -5.1 -9.15 -5.1 -6.3 L-5.1 5.0 -6.5 5.0 Q-7.3 5.0 -7.95 5.35" fill="url(#gradient0)" fill-rule="evenodd" stroke="none"/>
    <path d="M-5.1 5.0 L8.75 5.0 Q10.0 5.0 10.85 5.85 11.75 6.75 12.5 9.25 8.5 15.7 11.75 22.5 11.75 23.75 10.85 24.6 L9.0 26.25 Q1.15 29.65 -6.5 26.25 L-8.65 24.6 Q-9.5 23.75 -9.5 22.5 -7.0 16.25 -10.0 10.0 -9.5 6.75 -8.65 5.85 L-7.95 5.35 Q-7.3 5.0 -6.5 5.0 L-5.1 5.0 M3.55 15.5 Q4.8 14.4 4.8 12.8 4.8 11.25 3.55 10.15 L3.55 10.1 Q2.4 9.05 0.75 9.05 -0.9 9.05 -2.05 10.1 L-2.1 10.15 Q-3.3 11.25 -3.25 12.8 -3.3 14.35 -2.1 15.5 L-2.05 15.5 -1.5 15.95 -2.55 19.9 -2.5 20.4 -2.2 20.85 -1.7 21.0 3.4 21.0 3.9 20.8 4.25 20.4 4.25 19.85 3.1 15.9 3.55 15.55 3.6 15.5 3.55 15.5" fill="url(#gradient1)" fill-rule="evenodd" stroke="none"/>
    <path d="M-0.9 11.4 Q-1.5 12.0 -1.5 12.8 -1.5 13.6 -0.9 14.2 L-0.9 14.25 -0.15 14.7 0.3 15.15 0.35 15.75 -0.55 19.25 2.25 19.25 1.2 15.7 Q1.1 15.4 1.3 15.1 1.4 14.75 1.75 14.65 L2.35 14.25 2.4 14.2 Q3.0 13.6 3.05 12.8 3.0 12.0 2.4 11.4 L2.35 11.4 Q1.7 10.75 0.75 10.8 -0.2 10.75 -0.9 11.4 M3.55 15.55 L3.1 15.9 4.25 19.85 4.25 20.4 3.9 20.8 3.4 21.0 -1.7 21.0 -2.2 20.85 -2.5 20.4 -2.55 19.9 -1.5 15.95 -2.05 15.5 -2.1 15.5 Q-3.3 14.35 -3.25 12.8 -3.3 11.25 -2.1 10.15 L-2.05 10.1 Q-0.9 9.05 0.75 9.05 2.4 9.05 3.55 10.1 L3.55 10.15 Q4.8 11.25 4.8 12.8 4.8 14.4 3.55 15.5 L3.55 15.55" fill="url(#gradient2)" fill-rule="evenodd" stroke="none"/>
    <path d="M-0.9 11.4 Q-0.2 10.75 0.75 10.8 1.7 10.75 2.35 11.4 L2.4 11.4 Q3.0 12.0 3.05 12.8 3.0 13.6 2.4 14.2 L2.35 14.25 1.75 14.65 Q1.4 14.75 1.3 15.1 1.1 15.4 1.2 15.7 L2.25 19.25 -0.55 19.25 0.35 15.75 0.3 15.15 -0.15 14.7 -0.9 14.25 -0.9 14.2 Q-1.5 13.6 -1.5 12.8 -1.5 12.0 -0.9 11.4 M3.55 15.55 L3.55 15.5 3.6 15.5 3.55 15.55" fill="#000000" fill-rule="evenodd" stroke="none"/>
    <path d="M-7.95 5.35 L-7.95 -7.6 Q-7.95 -11.25 -5.4 -13.8 -2.85 -16.35 0.8 -16.35 4.45 -16.35 7.0 -13.8 9.55 -11.25 9.6 -7.6 L9.6 0.5 6.6 0.5 6.6 -6.3 Q6.6 -9.15 4.9 -11.1 3.2 -13.1 0.75 -13.1 -1.7 -13.1 -3.4 -11.1 -5.1 -9.15 -5.1 -6.3 L-5.1 5.0 8.75 5.0 Q10.0 5.0 10.85 5.85 11.75 6.75 12.5 9.25 8.5 15.7 11.75 22.5 11.75 23.75 10.85 24.6 L9.0 26.25 Q1.15 29.65 -6.5 26.25 L-8.65 24.6 Q-9.5 23.75 -9.5 22.5 -7.0 16.25 -10.0 10.0 -9.5 6.75 -8.65 5.85 L-7.95 5.35 Q-7.3 5.0 -6.5 5.0 L-5.1 5.0" fill="none" stroke="#000000" stroke-linecap="round" stroke-linejoin="round" stroke-width="1.0"/>
  </g>
  <defs>
    <linearGradient gradientTransform="matrix(0.0107, 0.0, 0.0, 0.0144, 0.8, -4.55)" gradientUnits="userSpaceOnUse" id="gradient0" spreadMethod="pad" x1="-819.2" x2="819.2">
      <stop offset="0.0" stop-color="#edc03d"/>
      <stop offset="0.20784313725490197" stop-color="#f7ed7d"/>
      <stop offset="0.40784313725490196" stop-color="#f4f4f4"/>
      <stop offset="0.592156862745098" stop-color="#eedd6a"/>
      <stop offset="0.9607843137254902" stop-color="#e0aa0a"/>
    </linearGradient>
    <linearGradient gradientTransform="matrix(0.0137, 0.0, 0.0, 0.014, 1.25, 16.45)" gradientUnits="userSpaceOnUse" id="gradient1" spreadMethod="pad" x1="-819.2" x2="819.2">
      <stop offset="0.0" stop-color="#edc03d"/>
      <stop offset="0.20784313725490197" stop-color="#f7ed7d"/>
      <stop offset="0.40784313725490196" stop-color="#f4f4f4"/>
      <stop offset="0.592156862745098" stop-color="#eedd6a"/>
      <stop offset="0.9607843137254902" stop-color="#e0aa0a"/>
    </linearGradient>
    <linearGradient gradientTransform="matrix(0.0049, 0.0, 0.0, 0.0073, 0.75, 15.0)" gradientUnits="userSpaceOnUse" id="gradient2" spreadMethod="pad" x1="-819.2" x2="819.2">
      <stop offset="0.0" stop-color="#b88d12"/>
      <stop offset="0.20784313725490197" stop-color="#d1b80e"/>
      <stop offset="0.40784313725490196" stop-color="#2d2d2d"/>
      <stop offset="0.592156862745098" stop-color="#60540b"/>
      <stop offset="0.9607843137254902" stop-color="#372902"/>
    </linearGradient>
  </defs>
</svg>
