<?xml version="1.0" encoding="UTF-8" standalone="no"?>
<svg xmlns:xlink="http://www.w3.org/1999/xlink" height="42.85px" width="37.8px" xmlns="http://www.w3.org/2000/svg">
  <g transform="matrix(1.0, 0.0, 0.0, 1.0, 19.25, 5.85)">
    <path d="M1.15 16.8 Q1.85 17.65 1.85 18.8 1.85 19.95 1.15 20.85 L0.2 21.55 0.05 21.6 -0.15 21.9 -0.25 22.25 -0.2 22.25 -0.2 22.35 -0.15 22.45 -0.05 22.55 1.4 25.85 Q0.45 25.3 -0.5 25.4 -1.55 25.4 -2.55 26.05 -2.05 24.1 -0.85 22.4 L-0.75 22.1 -0.8 21.85 -0.9 21.65 -1.0 21.55 -1.15 21.45 -1.9 20.85 Q-2.6 19.95 -2.6 18.8 -2.65 17.65 -1.9 16.8 -1.55 16.25 -1.0 16.1 L-0.75 16.0 -0.6 15.75 -0.35 15.25 -0.05 15.8 0.3 16.15 1.15 16.8" fill="#000000" fill-rule="evenodd" stroke="none"/>
    <path d="M-3.85 -4.5 Q-2.1 -5.35 0.05 -5.35 1.85 -5.35 3.4 -4.7 4.95 -4.1 6.25 -2.8 7.85 -1.2 8.45 0.8 L8.85 3.4 8.85 8.1 5.85 9.0 5.85 4.7 Q5.85 1.85 4.15 -0.1 L2.3 -1.6 Q1.25 -2.1 0.0 -2.1 L-1.45 -1.9 -2.95 -1.2 -4.15 -0.1 Q-5.15 1.05 -5.55 2.55 L-5.8 3.85 -5.85 4.7 -5.85 9.15 -6.85 9.15 -7.5 9.15 -7.45 9.0 -8.7 8.55 -8.7 3.4 -8.6 2.0 -8.25 0.5 Q-7.65 -1.35 -6.15 -2.8 -5.1 -3.85 -3.85 -4.5 M-6.85 9.15 L-7.45 9.0 -6.85 9.15" fill="url(#gradient0)" fill-rule="evenodd" stroke="none"/>
    <path d="M3.4 -4.7 Q9.7 -6.05 11.45 -2.9 8.15 -3.65 8.45 0.8 7.85 -1.2 6.25 -2.8 4.95 -4.1 3.4 -4.7" fill="url(#gradient1)" fill-rule="evenodd" stroke="none"/>
    <path d="M8.85 8.1 Q10.6 7.3 12.15 5.95 13.75 4.6 15.7 5.6 L17.0 6.5 Q12.85 8.7 17.25 13.45 17.95 14.25 18.05 15.5 18.1 16.5 17.75 17.0 15.3 12.1 11.25 15.2 10.3 15.95 9.8 17.25 10.3 15.3 11.5 13.4 10.75 10.9 9.85 10.0 9.4 9.55 8.85 9.35 L7.75 9.15 3.8 9.15 5.85 9.0 8.85 8.1" fill="url(#gradient2)" fill-rule="evenodd" stroke="none"/>
    <path d="M9.8 17.25 L9.6 18.05 Q8.7 22.0 10.5 26.1 L10.75 26.65 Q10.75 27.9 9.85 28.75 L8.0 30.4 Q7.45 30.65 6.95 30.85 L6.3 31.1 Q4.2 31.75 2.15 32.0 L-3.7 31.65 -5.45 31.2 -6.4 30.85 -7.5 30.4 -9.65 28.75 Q-10.5 27.9 -10.5 26.65 L-10.2 25.85 -10.1 25.55 Q-8.6 20.9 -10.15 16.3 L-11.0 14.15 -10.75 12.75 -10.5 11.85 Q-10.15 10.5 -9.65 10.0 L-8.8 9.45 -8.7 9.4 -7.5 9.15 -6.85 9.15 -5.85 9.15 -5.75 9.15 3.8 9.15 7.75 9.15 8.85 9.35 Q9.4 9.55 9.85 10.0 10.75 10.9 11.5 13.4 10.3 15.3 9.8 17.25 M1.0 15.1 L0.2 13.8 -0.1 13.6 -0.5 13.55 Q-0.7 13.6 -0.8 13.8 L-1.6 15.0 -2.85 16.0 Q-3.85 17.2 -3.85 18.8 -3.85 20.4 -2.85 21.6 L-2.85 21.65 -2.2 22.2 Q-3.75 24.65 -4.1 27.55 L-4.0 27.95 -3.75 28.2 -3.35 28.25 -3.0 28.05 Q-1.75 26.65 -0.45 26.6 0.75 26.55 2.05 27.9 L2.4 28.1 2.8 28.0 3.05 27.75 3.1 27.35 Q2.5 24.65 1.25 22.4 L2.1 21.65 2.1 21.6 Q3.05 20.4 3.1 18.8 3.05 17.2 2.1 16.0 L1.0 15.1" fill="url(#gradient3)" fill-rule="evenodd" stroke="none"/>
    <path d="M1.0 15.1 L2.1 16.0 Q3.05 17.2 3.1 18.8 3.05 20.4 2.1 21.6 L2.1 21.65 1.25 22.4 Q2.5 24.65 3.1 27.35 L3.05 27.75 2.8 28.0 2.4 28.1 2.05 27.9 Q0.75 26.55 -0.45 26.6 -1.75 26.65 -3.0 28.05 L-3.35 28.25 -3.75 28.2 -4.0 27.95 -4.1 27.55 Q-3.75 24.65 -2.2 22.2 L-2.85 21.65 -2.85 21.6 Q-3.85 20.4 -3.85 18.8 -3.85 17.2 -2.85 16.0 L-1.6 15.0 -0.8 13.8 Q-0.7 13.6 -0.5 13.55 L-0.1 13.6 0.2 13.8 1.0 15.1 M1.15 16.8 L0.3 16.15 -0.05 15.8 -0.35 15.25 -0.6 15.75 -0.75 16.0 -1.0 16.1 Q-1.55 16.25 -1.9 16.8 -2.65 17.65 -2.6 18.8 -2.6 19.95 -1.9 20.85 L-1.15 21.45 -1.0 21.55 -0.9 21.65 -0.8 21.85 -0.75 22.1 -0.85 22.4 Q-2.05 24.1 -2.55 26.05 -1.55 25.4 -0.5 25.4 0.45 25.3 1.4 25.85 L-0.05 22.55 -0.15 22.45 -0.2 22.35 -0.2 22.25 -0.25 22.25 -0.15 21.9 0.05 21.6 0.2 21.55 1.15 20.85 Q1.85 19.95 1.85 18.8 1.85 17.65 1.15 16.8" fill="url(#gradient4)" fill-rule="evenodd" stroke="none"/>
    <path d="M10.85 26.65 Q12.8 29.8 16.5 28.3 13.95 31.9 8.4 30.85 7.65 30.7 6.95 30.85 7.45 30.65 8.0 30.4 L9.85 28.75 Q10.75 27.9 10.75 26.65 L10.85 26.65" fill="url(#gradient5)" fill-rule="evenodd" stroke="none"/>
    <path d="M2.15 32.0 Q0.35 34.15 0.2 36.5 -0.85 33.0 -3.7 31.65 L2.15 32.0" fill="url(#gradient6)" fill-rule="evenodd" stroke="none"/>
    <path d="M-8.25 0.5 Q-7.9 -3.5 -11.75 -3.35 -9.2 -5.55 -3.85 -4.5 -5.1 -3.85 -6.15 -2.8 -7.65 -1.35 -8.25 0.5" fill="url(#gradient7)" fill-rule="evenodd" stroke="none"/>
    <path d="M-5.75 9.15 L-5.85 9.15 -5.85 4.7 -5.8 3.85 Q-5.6 5.55 -3.5 5.5 -5.1 6.8 -5.75 9.15" fill="url(#gradient8)" fill-rule="evenodd" stroke="none"/>
    <path d="M-10.15 16.3 Q-14.6 12.65 -17.75 18.5 -18.0 16.75 -17.4 15.65 -16.5 14.05 -15.95 12.3 -14.35 7.35 -18.75 8.75 -17.6 6.9 -16.05 6.2 -13.8 5.2 -11.85 6.7 -10.3 7.9 -8.7 8.55 L-7.45 9.0 -7.5 9.15 -8.7 9.4 -8.8 9.45 -9.65 10.0 Q-10.15 10.5 -10.5 11.85 L-10.75 12.75 -11.0 14.15 -10.15 16.3" fill="url(#gradient9)" fill-rule="evenodd" stroke="none"/>
    <path d="M-6.4 30.85 L-7.8 30.7 -10.15 31.05 Q-13.75 31.9 -16.5 30.25 -12.25 30.2 -10.55 26.7 L-10.5 26.65 Q-10.5 27.9 -9.65 28.75 L-7.5 30.4 -6.4 30.85" fill="url(#gradient10)" fill-rule="evenodd" stroke="none"/>
    <path d="M-3.85 -4.5 Q-2.1 -5.35 0.05 -5.35 1.85 -5.35 3.4 -4.7 9.7 -6.05 11.45 -2.9 8.15 -3.65 8.45 0.8 L8.85 3.4 8.85 8.1 Q10.6 7.3 12.15 5.95 13.75 4.6 15.7 5.6 L17.0 6.5 Q12.85 8.7 17.25 13.45 17.95 14.25 18.05 15.5 18.1 16.5 17.75 17.0 15.3 12.1 11.25 15.2 10.3 15.95 9.8 17.25 L9.6 18.05 Q8.7 22.0 10.5 26.1 L10.85 26.65 Q12.8 29.8 16.5 28.3 13.95 31.9 8.4 30.85 7.65 30.7 6.95 30.85 L6.3 31.1 Q4.2 31.75 2.15 32.0 0.35 34.15 0.2 36.5 -0.85 33.0 -3.7 31.65 L-5.45 31.2 -6.4 30.85 -7.8 30.7 -10.15 31.05 Q-13.75 31.9 -16.5 30.25 -12.25 30.2 -10.55 26.7 L-10.2 25.85 -10.1 25.55 Q-8.6 20.9 -10.15 16.3 -14.6 12.65 -17.75 18.5 -18.0 16.75 -17.4 15.65 -16.5 14.05 -15.95 12.3 -14.35 7.35 -18.75 8.75 -17.6 6.9 -16.05 6.2 -13.8 5.2 -11.85 6.7 -10.3 7.9 -8.7 8.55 L-8.7 3.4 -8.6 2.0 -8.25 0.5 Q-7.9 -3.5 -11.75 -3.35 -9.2 -5.55 -3.85 -4.5 M-1.45 -1.9 Q-0.3 -1.9 0.1 0.25 0.5 -1.1 2.3 -1.6 L4.15 -0.1 Q5.85 1.85 5.85 4.7 L5.85 9.0 8.85 8.1 M3.8 9.15 L-5.75 9.15 -5.85 9.15 -6.85 9.15 -7.45 9.0 -8.7 8.55 M-11.0 14.15 L-10.15 16.3 M5.85 9.0 L3.8 9.15 M9.8 17.25 Q10.3 15.3 11.5 13.4 M10.75 26.65 L10.5 26.1 M-5.8 3.85 L-5.55 2.55 Q-5.15 1.05 -4.15 -0.1 L-2.95 -1.2 -1.45 -1.9 M-5.8 3.85 L-5.85 4.7 M-5.75 9.15 Q-5.1 6.8 -3.5 5.5 -5.6 5.55 -5.8 3.85 M-10.5 26.65 L-10.2 25.85" fill="none" stroke="#000000" stroke-linecap="round" stroke-linejoin="round" stroke-width="1.0"/>
  </g>
  <defs>
    <linearGradient gradientTransform="matrix(0.0107, 0.0, 0.0, 0.0144, 0.05, 6.45)" gradientUnits="userSpaceOnUse" id="gradient0" spreadMethod="pad" x1="-819.2" x2="819.2">
      <stop offset="0.0" stop-color="#212839"/>
      <stop offset="0.20784313725490197" stop-color="#6b8aad"/>
      <stop offset="0.40784313725490196" stop-color="#f4f4f4"/>
      <stop offset="0.592156862745098" stop-color="#637d9c"/>
      <stop offset="0.9607843137254902" stop-color="#101829"/>
    </linearGradient>
    <linearGradient gradientTransform="matrix(0.0049, 0.0, 0.0, 0.0036, 7.4, -2.15)" gradientUnits="userSpaceOnUse" id="gradient1" spreadMethod="pad" x1="-819.2" x2="819.2">
      <stop offset="0.0" stop-color="#212839"/>
      <stop offset="0.20784313725490197" stop-color="#6b8aad"/>
      <stop offset="0.40784313725490196" stop-color="#f4f4f4"/>
      <stop offset="0.592156862745098" stop-color="#637d9c"/>
      <stop offset="0.9607843137254902" stop-color="#101829"/>
    </linearGradient>
    <linearGradient gradientTransform="matrix(0.0087, 0.0, 0.0, 0.0074, 10.9, 11.2)" gradientUnits="userSpaceOnUse" id="gradient2" spreadMethod="pad" x1="-819.2" x2="819.2">
      <stop offset="0.0" stop-color="#212839"/>
      <stop offset="0.20784313725490197" stop-color="#6b8aad"/>
      <stop offset="0.40784313725490196" stop-color="#f4f4f4"/>
      <stop offset="0.592156862745098" stop-color="#637d9c"/>
      <stop offset="0.9607843137254902" stop-color="#101829"/>
    </linearGradient>
    <linearGradient gradientTransform="matrix(0.0137, 0.0, 0.0, 0.014, 0.25, 20.6)" gradientUnits="userSpaceOnUse" id="gradient3" spreadMethod="pad" x1="-819.2" x2="819.2">
      <stop offset="0.0" stop-color="#212839"/>
      <stop offset="0.20784313725490197" stop-color="#6b8aad"/>
      <stop offset="0.40784313725490196" stop-color="#f4f4f4"/>
      <stop offset="0.592156862745098" stop-color="#637d9c"/>
      <stop offset="0.9607843137254902" stop-color="#101829"/>
    </linearGradient>
    <linearGradient gradientTransform="matrix(0.0044, 0.0, 0.0, 0.009, -0.5, 20.9)" gradientUnits="userSpaceOnUse" id="gradient4" spreadMethod="pad" x1="-819.2" x2="819.2">
      <stop offset="0.0" stop-color="#000000"/>
      <stop offset="0.20784313725490197" stop-color="#4a6784"/>
      <stop offset="0.40784313725490196" stop-color="#5c5c5c"/>
      <stop offset="0.592156862745098" stop-color="#44586a"/>
      <stop offset="0.9607843137254902" stop-color="#000000"/>
    </linearGradient>
    <linearGradient gradientTransform="matrix(0.0058, 0.0, 0.0, 0.0027, 11.7, 28.85)" gradientUnits="userSpaceOnUse" id="gradient5" spreadMethod="pad" x1="-819.2" x2="819.2">
      <stop offset="0.0" stop-color="#212839"/>
      <stop offset="0.20784313725490197" stop-color="#6b8aad"/>
      <stop offset="0.40784313725490196" stop-color="#f4f4f4"/>
      <stop offset="0.592156862745098" stop-color="#637d9c"/>
      <stop offset="0.9607843137254902" stop-color="#101829"/>
    </linearGradient>
    <linearGradient gradientTransform="matrix(0.0036, 0.0, 0.0, 0.003, -0.8, 34.05)" gradientUnits="userSpaceOnUse" id="gradient6" spreadMethod="pad" x1="-819.2" x2="819.2">
      <stop offset="0.0" stop-color="#212839"/>
      <stop offset="0.20784313725490197" stop-color="#6b8aad"/>
      <stop offset="0.40784313725490196" stop-color="#f4f4f4"/>
      <stop offset="0.592156862745098" stop-color="#637d9c"/>
      <stop offset="0.9607843137254902" stop-color="#101829"/>
    </linearGradient>
    <linearGradient gradientTransform="matrix(0.0048, 0.0, 0.0, 0.0033, -7.8, -2.2)" gradientUnits="userSpaceOnUse" id="gradient7" spreadMethod="pad" x1="-819.2" x2="819.2">
      <stop offset="0.0" stop-color="#212839"/>
      <stop offset="0.20784313725490197" stop-color="#6b8aad"/>
      <stop offset="0.40784313725490196" stop-color="#f4f4f4"/>
      <stop offset="0.592156862745098" stop-color="#637d9c"/>
      <stop offset="0.9607843137254902" stop-color="#101829"/>
    </linearGradient>
    <linearGradient gradientTransform="matrix(0.0014, 0.0, 0.0, 0.0034, -4.7, 6.65)" gradientUnits="userSpaceOnUse" id="gradient8" spreadMethod="pad" x1="-819.2" x2="819.2">
      <stop offset="0.0" stop-color="#212839"/>
      <stop offset="0.20784313725490197" stop-color="#6b8aad"/>
      <stop offset="0.40784313725490196" stop-color="#f4f4f4"/>
      <stop offset="0.592156862745098" stop-color="#637d9c"/>
      <stop offset="0.9607843137254902" stop-color="#101829"/>
    </linearGradient>
    <linearGradient gradientTransform="matrix(0.0069, 0.0, 0.0, 0.0078, -13.1, 12.15)" gradientUnits="userSpaceOnUse" id="gradient9" spreadMethod="pad" x1="-819.2" x2="819.2">
      <stop offset="0.0" stop-color="#212839"/>
      <stop offset="0.20784313725490197" stop-color="#6b8aad"/>
      <stop offset="0.40784313725490196" stop-color="#f4f4f4"/>
      <stop offset="0.592156862745098" stop-color="#637d9c"/>
      <stop offset="0.9607843137254902" stop-color="#101829"/>
    </linearGradient>
    <linearGradient gradientTransform="matrix(0.0062, 0.0, 0.0, 0.0029, -11.45, 29.0)" gradientUnits="userSpaceOnUse" id="gradient10" spreadMethod="pad" x1="-819.2" x2="819.2">
      <stop offset="0.0" stop-color="#212839"/>
      <stop offset="0.20784313725490197" stop-color="#6b8aad"/>
      <stop offset="0.40784313725490196" stop-color="#f4f4f4"/>
      <stop offset="0.592156862745098" stop-color="#637d9c"/>
      <stop offset="0.9607843137254902" stop-color="#101829"/>
    </linearGradient>
  </defs>
</svg>
