<?xml version="1.0" encoding="UTF-8" standalone="no"?>
<svg xmlns:xlink="http://www.w3.org/1999/xlink" height="31.9px" width="13.0px" xmlns="http://www.w3.org/2000/svg">
  <g transform="matrix(1.0, 0.0, 0.0, 1.0, 6.25, 3.3)">
    <path d="M0.6 27.85 L-2.1 27.85 -2.1 6.7 -1.95 6.7 Q-3.1 6.3 -4.0 5.55 -5.75 4.15 -5.75 2.1 -5.75 0.05 -4.0 -1.4 -2.25 -2.8 0.25 -2.8 2.75 -2.8 4.5 -1.4 6.25 0.05 6.25 2.1 6.25 4.15 4.5 5.55 2.85 6.9 0.6 7.0 L0.6 20.9 0.6 27.85 M2.8 4.2 Q3.85 3.35 3.85 2.1 3.85 0.85 2.8 0.0 1.75 -0.85 0.25 -0.8 -1.25 -0.85 -2.3 0.0 -3.35 0.85 -3.35 2.1 -3.35 3.35 -2.3 4.2 -1.25 5.05 0.25 5.05 1.75 5.05 2.8 4.2" fill="url(#gradient0)" fill-rule="evenodd" stroke="none"/>
    <path d="M0.6 20.9 L6.1 20.9 6.1 22.9 3.7 22.9 3.7 25.9 6.1 25.9 6.1 28.1 0.6 27.85 0.6 20.9" fill="url(#gradient1)" fill-rule="evenodd" stroke="none"/>
    <path d="M0.6 27.85 L-2.1 27.85 -2.1 6.7 -1.95 6.7 Q-3.1 6.3 -4.0 5.55 -5.75 4.15 -5.75 2.1 -5.75 0.05 -4.0 -1.4 -2.25 -2.8 0.25 -2.8 2.75 -2.8 4.5 -1.4 6.25 0.05 6.25 2.1 6.25 4.15 4.5 5.55 2.85 6.9 0.6 7.0 L0.6 20.9 6.1 20.9 6.1 22.9 3.7 22.9 3.7 25.9 6.1 25.9 6.1 28.1 0.6 27.85 M2.8 4.2 Q1.75 5.05 0.25 5.05 -1.25 5.05 -2.3 4.2 -3.35 3.35 -3.35 2.1 -3.35 0.85 -2.3 0.0 -1.25 -0.85 0.25 -0.8 1.75 -0.85 2.8 0.0 3.85 0.85 3.85 2.1 3.85 3.35 2.8 4.2 Z" fill="none" stroke="#000000" stroke-linecap="round" stroke-linejoin="round" stroke-width="1.0"/>
  </g>
  <defs>
    <linearGradient gradientTransform="matrix(0.0069, 0.0024, -0.0061, 0.0177, -0.95, 12.0)" gradientUnits="userSpaceOnUse" id="gradient0" spreadMethod="pad" x1="-819.2" x2="819.2">
      <stop offset="0.0" stop-color="#edc03d"/>
      <stop offset="0.20784313725490197" stop-color="#f7ed7d"/>
      <stop offset="0.40784313725490196" stop-color="#f4f4f4"/>
      <stop offset="0.592156862745098" stop-color="#eedd6a"/>
      <stop offset="0.9607843137254902" stop-color="#e0aa0a"/>
    </linearGradient>
    <linearGradient gradientTransform="matrix(0.0032, 9.0E-4, -0.0013, 0.0042, 2.6, 22.75)" gradientUnits="userSpaceOnUse" id="gradient1" spreadMethod="pad" x1="-819.2" x2="819.2">
      <stop offset="0.0" stop-color="#edc03d"/>
      <stop offset="0.20784313725490197" stop-color="#f7ed7d"/>
      <stop offset="0.40784313725490196" stop-color="#f4f4f4"/>
      <stop offset="0.592156862745098" stop-color="#eedd6a"/>
      <stop offset="0.9607843137254902" stop-color="#e0aa0a"/>
    </linearGradient>
  </defs>
</svg>
