<?xml version="1.0" encoding="UTF-8" standalone="no"?>
<svg xmlns:xlink="http://www.w3.org/1999/xlink" height="36.4px" width="15.15px" xmlns="http://www.w3.org/2000/svg">
  <g transform="matrix(1.0, 0.0, 0.0, 1.0, 6.9, 6.3)">
    <path d="M3.9 -1.8 Q4.7 -1.5 5.55 -2.15 7.0 -3.3 7.5 -5.75 8.35 -1.6 6.25 2.0 6.2 0.0 4.5 -1.4 L3.9 -1.8" fill="url(#gradient0)" fill-rule="evenodd" stroke="none"/>
    <path d="M6.25 2.0 L6.25 2.1 Q6.25 4.15 4.5 5.55 2.85 6.9 0.6 7.0 1.6 13.95 0.6 20.9 L0.6 27.85 -2.85 29.6 Q-2.1 24.1 -1.9 19.0 L-1.8 12.0 -2.1 6.7 -1.95 6.7 Q-3.1 6.3 -4.0 5.55 -5.7 4.2 -5.75 2.25 L-5.75 2.1 Q-5.75 0.05 -4.0 -1.4 L-3.65 -1.65 Q-2.0 -2.8 0.25 -2.8 2.35 -2.8 3.9 -1.8 L4.5 -1.4 Q6.2 0.0 6.25 2.0 M0.25 5.05 Q1.75 5.05 2.8 4.2 3.85 3.35 3.85 2.1 3.85 0.85 2.8 0.0 1.75 -0.85 0.25 -0.8 -1.25 -0.85 -2.3 0.0 -3.35 0.85 -3.35 2.1 -3.35 3.35 -2.3 4.2 -1.25 5.05 0.25 5.05" fill="url(#gradient1)" fill-rule="evenodd" stroke="none"/>
    <path d="M-5.8 2.1 Q-7.25 -2.35 -5.3 -5.8 -5.6 -3.65 -3.65 -1.65 L-4.0 -1.4 Q-5.75 0.05 -5.75 2.1 L-5.8 2.1" fill="url(#gradient2)" fill-rule="evenodd" stroke="none"/>
    <path d="M-1.9 19.0 Q-1.85 15.7 -4.75 15.2 -2.45 14.3 -1.8 12.0 L-1.9 19.0" fill="url(#gradient3)" fill-rule="evenodd" stroke="none"/>
    <path d="M0.6 20.9 L7.1 19.9 6.1 22.9 3.7 22.65 Q1.45 24.55 3.2 26.65 L6.1 25.9 6.85 28.85 0.6 27.85 0.6 20.9" fill="url(#gradient4)" fill-rule="evenodd" stroke="none"/>
    <path d="M3.9 -1.8 Q4.7 -1.5 5.55 -2.15 7.0 -3.3 7.5 -5.75 8.35 -1.6 6.25 2.0 L6.25 2.1 Q6.25 4.15 4.5 5.55 2.85 6.9 0.6 7.0 1.6 13.95 0.6 20.9 L7.1 19.9 6.1 22.9 3.7 22.65 Q1.45 24.55 3.2 26.65 L6.1 25.9 6.85 28.85 0.6 27.85 -2.85 29.6 Q-2.1 24.1 -1.9 19.0 -1.85 15.7 -4.75 15.2 -2.45 14.3 -1.8 12.0 L-2.1 6.7 -1.95 6.7 Q-3.1 6.3 -4.0 5.55 -5.7 4.2 -5.75 2.25 L-5.8 2.1 Q-7.25 -2.35 -5.3 -5.8 -5.6 -3.65 -3.65 -1.65 -2.0 -2.8 0.25 -2.8 2.35 -2.8 3.9 -1.8 M0.25 5.05 Q-1.25 5.05 -2.3 4.2 -3.35 3.35 -3.35 2.1 -3.35 0.85 -2.3 0.0 -1.25 -0.85 0.25 -0.8 1.75 -0.85 2.8 0.0 3.85 0.85 3.85 2.1 3.85 3.35 2.8 4.2 1.75 5.05 0.25 5.05 M-5.75 2.25 L-5.75 2.1" fill="none" stroke="#000000" stroke-linecap="round" stroke-linejoin="round" stroke-width="1.0"/>
  </g>
  <defs>
    <linearGradient gradientTransform="matrix(0.0023, 0.0, 0.0, 0.0047, 5.8, -1.9)" gradientUnits="userSpaceOnUse" id="gradient0" spreadMethod="pad" x1="-819.2" x2="819.2">
      <stop offset="0.0" stop-color="#212839"/>
      <stop offset="0.20784313725490197" stop-color="#6b8aad"/>
      <stop offset="0.40784313725490196" stop-color="#f4f4f4"/>
      <stop offset="0.592156862745098" stop-color="#637d9c"/>
      <stop offset="0.9607843137254902" stop-color="#101829"/>
    </linearGradient>
    <linearGradient gradientTransform="matrix(0.0069, 0.0024, -0.0061, 0.0177, -0.95, 12.0)" gradientUnits="userSpaceOnUse" id="gradient1" spreadMethod="pad" x1="-819.2" x2="819.2">
      <stop offset="0.0" stop-color="#212839"/>
      <stop offset="0.20784313725490197" stop-color="#6b8aad"/>
      <stop offset="0.40784313725490196" stop-color="#f4f4f4"/>
      <stop offset="0.592156862745098" stop-color="#637d9c"/>
      <stop offset="0.9607843137254902" stop-color="#101829"/>
    </linearGradient>
    <linearGradient gradientTransform="matrix(0.0017, 0.0, 0.0, 0.0048, -5.05, -1.85)" gradientUnits="userSpaceOnUse" id="gradient2" spreadMethod="pad" x1="-819.2" x2="819.2">
      <stop offset="0.0" stop-color="#212839"/>
      <stop offset="0.20784313725490197" stop-color="#6b8aad"/>
      <stop offset="0.40784313725490196" stop-color="#f4f4f4"/>
      <stop offset="0.592156862745098" stop-color="#637d9c"/>
      <stop offset="0.9607843137254902" stop-color="#101829"/>
    </linearGradient>
    <linearGradient gradientTransform="matrix(0.0018, 0.0, 0.0, 0.0043, -3.3, 15.5)" gradientUnits="userSpaceOnUse" id="gradient3" spreadMethod="pad" x1="-819.2" x2="819.2">
      <stop offset="0.0" stop-color="#212839"/>
      <stop offset="0.20784313725490197" stop-color="#6b8aad"/>
      <stop offset="0.40784313725490196" stop-color="#f4f4f4"/>
      <stop offset="0.592156862745098" stop-color="#637d9c"/>
      <stop offset="0.9607843137254902" stop-color="#101829"/>
    </linearGradient>
    <linearGradient gradientTransform="matrix(0.004, 0.0, 0.0, 0.0055, 3.85, 24.35)" gradientUnits="userSpaceOnUse" id="gradient4" spreadMethod="pad" x1="-819.2" x2="819.2">
      <stop offset="0.0" stop-color="#212839"/>
      <stop offset="0.20784313725490197" stop-color="#6b8aad"/>
      <stop offset="0.40784313725490196" stop-color="#f4f4f4"/>
      <stop offset="0.592156862745098" stop-color="#637d9c"/>
      <stop offset="0.9607843137254902" stop-color="#101829"/>
    </linearGradient>
  </defs>
</svg>
