<?xml version="1.0" encoding="UTF-8" standalone="no"?>
<svg xmlns:xlink="http://www.w3.org/1999/xlink" height="18.35px" width="18.35px" xmlns="http://www.w3.org/2000/svg">
  <g transform="matrix(1.0, 0.0, 0.0, 1.0, 9.2, -17.15)">
    <path d="M7.0 31.05 L7.15 31.45 6.7 31.45 7.0 31.05" fill="#a2fea0" fill-rule="evenodd" stroke="none"/>
    <path d="M6.7 31.45 L5.95 32.3 Q3.5 34.75 0.0 34.75 -3.5 34.75 -6.0 32.3 -8.45 29.85 -8.45 26.35 -8.45 22.85 -6.0 20.35 -3.5 17.9 0.0 17.9 3.5 17.9 5.95 20.35 8.4 22.85 8.4 26.35 8.4 29.0 7.0 31.05 L6.7 31.45 M2.65 21.4 L0.4 21.0 -4.3 21.0 -4.3 31.3 0.4 31.3 2.35 31.0 Q3.05 30.8 3.8 30.2 L4.8 28.65 Q5.2 27.8 5.2 26.1 L4.9 24.1 4.1 22.5 Q3.55 21.8 2.65 21.4" fill="url(#gradient0)" fill-rule="evenodd" stroke="none"/>
    <path d="M1.8 27.95 L1.05 28.75 -0.4 29.0 -1.1 29.0 -1.1 23.4 -0.3 23.4 Q0.9 23.35 1.45 23.95 2.0 24.55 2.0 26.2 L1.8 27.95" fill="url(#gradient1)" fill-rule="evenodd" stroke="none"/>
    <path d="M2.65 21.4 Q3.55 21.8 4.1 22.5 L4.9 24.1 5.2 26.1 Q5.2 27.8 4.8 28.65 L3.8 30.2 Q3.05 30.8 2.35 31.0 L0.4 31.3 -4.3 31.3 -4.3 21.0 0.4 21.0 2.65 21.4 M1.8 27.95 L2.0 26.2 Q2.0 24.55 1.45 23.95 0.9 23.35 -0.3 23.4 L-1.1 23.4 -1.1 29.0 -0.4 29.0 1.05 28.75 1.8 27.95" fill="#017801" fill-rule="evenodd" stroke="none"/>
    <path d="M6.7 31.45 L7.0 31.05" fill="none" stroke="#00df00" stroke-linecap="round" stroke-linejoin="round" stroke-width="1.5"/>
    <path d="M6.7 31.45 L5.95 32.3 Q3.5 34.75 0.0 34.75 -3.5 34.75 -6.0 32.3 -8.45 29.85 -8.45 26.35 -8.45 22.85 -6.0 20.35 -3.5 17.9 0.0 17.9 3.5 17.9 5.95 20.35 8.4 22.85 8.4 26.35 8.4 29.0 7.0 31.05" fill="none" stroke="#03c102" stroke-linecap="round" stroke-linejoin="round" stroke-width="1.5"/>
  </g>
  <defs>
    <linearGradient gradientTransform="matrix(0.0103, 0.0, 0.0, 0.0103, -0.05, 26.35)" gradientUnits="userSpaceOnUse" id="gradient0" spreadMethod="pad" x1="-819.2" x2="819.2">
      <stop offset="0.0" stop-color="#65fe65"/>
      <stop offset="1.0" stop-color="#d9ffd9"/>
    </linearGradient>
    <linearGradient gradientTransform="matrix(0.0019, 0.0, 0.0, 0.0034, 0.45, 26.15)" gradientUnits="userSpaceOnUse" id="gradient1" spreadMethod="pad" x1="-819.2" x2="819.2">
      <stop offset="0.0" stop-color="#65fe65"/>
      <stop offset="1.0" stop-color="#d9ffd9"/>
    </linearGradient>
  </defs>
</svg>
