<?xml version="1.0" encoding="UTF-8" standalone="no"?>
<svg xmlns:xlink="http://www.w3.org/1999/xlink" height="34.25px" width="215.75px" xmlns="http://www.w3.org/2000/svg">
  <g transform="matrix(1.0, 0.0, 0.0, 1.0, 29.95, 17.15)">
    <path d="M18.6 -4.2 L18.55 -4.4 18.1 -5.0 17.65 -5.3 Q17.5 -5.4 17.5 -5.65 L17.75 -6.15 18.35 -6.45 19.3 -6.55 20.55 -6.45 21.2 -6.45 23.05 -6.55 24.1 -6.6 Q25.75 -6.6 26.85 -5.8 27.85 -5.05 27.85 -3.8 27.85 -3.05 27.5 -2.45 L27.2 -2.05 Q27.15 -3.1 26.3 -3.75 25.35 -4.45 23.9 -4.45 L23.7 -4.45 Q23.45 -4.9 22.85 -4.9 L22.4 -4.75 22.25 -4.35 21.35 -4.3 20.8 -4.35 19.7 -4.4 18.85 -4.3 18.6 -4.2 M26.9 -0.8 L27.9 0.0 28.45 1.85 28.65 2.5 Q28.8 2.65 29.25 2.8 L29.5 3.0 29.6 3.35 29.45 3.8 28.95 4.2 28.7 4.3 28.7 4.25 28.65 3.95 28.4 3.75 27.9 3.5 27.7 2.9 Q27.55 1.85 27.2 1.3 L26.15 0.5 25.85 0.2 26.05 -0.05 26.9 -0.8 M22.3 1.75 L22.4 2.3 22.5 2.5 22.8 2.75 23.25 3.4 23.05 3.95 22.75 3.7 22.5 3.55 22.4 3.3 22.3 1.95 22.3 1.75 M18.15 4.05 Q17.5 3.75 17.5 3.25 L17.6 2.95 18.0 2.65 18.45 2.1 18.65 1.05 18.65 -2.95 18.65 -3.05 19.05 -2.55 19.15 -1.25 19.1 2.25 18.95 3.15 18.55 3.65 Q18.3 3.8 18.2 3.9 L18.15 4.05 M23.65 -2.3 L23.75 -1.65 Q23.75 -0.95 23.45 -0.65 23.2 -0.35 22.6 -0.35 22.35 -0.35 22.3 -0.45 L22.2 -0.75 22.3 -1.95 22.6 -1.9 Q23.3 -1.9 23.6 -2.25 L23.65 -2.3 M33.45 -1.75 L32.25 -1.5 30.75 -0.35 Q30.15 0.45 30.1 1.4 29.95 0.95 29.95 0.45 29.95 -0.85 30.75 -1.9 31.45 -2.8 32.5 -3.25 L34.25 -3.6 Q35.7 -3.6 36.75 -2.75 L37.6 -1.75 37.95 -0.45 37.75 0.4 37.2 0.7 37.05 0.7 36.7 -0.2 36.0 -1.05 35.0 -1.6 34.8 -1.9 34.15 -2.15 Q33.7 -2.15 33.45 -1.85 L33.45 -1.75 M36.7 3.7 L36.75 3.4 36.55 2.95 Q36.4 2.75 36.25 2.75 36.1 2.75 35.85 2.9 L35.2 3.25 34.45 3.35 Q33.9 3.35 33.45 2.95 32.95 2.55 32.95 2.1 L33.15 1.95 34.0 1.95 Q34.5 2.3 35.05 2.3 L35.85 2.2 36.45 1.95 36.8 1.7 37.05 1.65 Q37.25 1.65 37.45 1.9 L37.65 2.4 Q37.65 2.95 36.95 3.5 L36.7 3.7 M33.1 -0.3 Q33.3 -0.6 33.7 -0.6 L34.25 -0.35 34.45 0.25 Q34.45 0.65 34.05 0.65 L33.35 0.65 33.0 0.6 32.9 0.3 33.1 -0.3 M43.65 4.3 L44.6 2.6 Q44.85 2.15 45.1 2.15 L44.2 3.7 43.65 4.3 M48.65 4.3 L48.95 3.7 50.65 0.4 51.05 -0.25 51.45 -0.5 51.95 -0.7 52.15 -1.05 51.95 -1.45 51.55 -1.65 50.85 -1.75 50.85 -1.8 50.6 -2.25 50.4 -2.75 Q50.4 -3.15 50.75 -3.3 L52.25 -3.55 53.45 -3.4 53.95 -3.15 54.1 -2.75 53.9 -2.3 53.35 -2.1 52.9 -1.8 52.45 -1.05 50.45 2.75 Q49.6 4.4 48.95 4.4 L48.65 4.3 M49.0 -1.4 L48.9 -1.05 49.05 -0.65 49.25 -0.25 49.0 0.4 48.35 1.1 Q48.15 1.1 47.85 0.55 L47.55 -0.2 47.6 -0.45 47.9 -0.8 47.95 -1.05 47.5 -1.6 46.0 -1.75 44.95 -1.7 44.35 -2.15 Q44.1 -2.35 44.1 -2.6 44.1 -3.25 45.35 -3.4 L47.15 -3.55 48.85 -3.35 Q49.35 -3.15 49.35 -2.7 L49.3 -2.4 48.95 -2.0 48.9 -1.75 49.0 -1.4 M43.55 -1.3 L43.35 -0.95 43.6 -0.6 44.1 -0.15 44.2 0.15 43.95 0.7 43.55 1.05 42.95 0.4 Q42.65 -0.2 42.65 -0.35 L42.7 -0.5 42.9 -0.95 Q42.9 -1.75 40.7 -1.75 L39.1 -1.6 39.05 -1.65 38.5 -1.9 38.2 -2.1 38.1 -2.45 Q38.1 -3.05 39.0 -3.3 L41.05 -3.55 Q43.55 -3.55 43.55 -2.6 L43.3 -2.1 43.25 -1.95 43.55 -1.3 M54.75 -1.2 L54.7 -1.45 Q54.7 -1.8 55.0 -2.2 L55.8 -2.85 Q57.2 -3.6 58.75 -3.6 60.1 -3.6 61.05 -2.9 L61.75 -2.05 61.95 -0.75 61.95 0.4 Q61.95 1.6 62.1 1.95 L62.3 2.2 62.6 2.3 62.85 2.6 62.55 3.4 61.8 4.05 60.55 4.4 60.5 4.4 60.55 4.3 60.8 3.6 60.6 3.3 60.3 3.25 60.15 3.05 Q60.0 2.75 60.0 1.7 L60.0 0.65 59.85 -0.5 59.25 -1.2 58.55 -1.55 58.45 -1.9 57.9 -2.25 57.45 -2.1 57.15 -1.8 Q55.9 -1.8 54.75 -1.2 M54.3 1.7 L54.85 0.8 Q55.65 0.1 57.05 -0.1 L57.1 0.7 57.0 1.1 56.5 1.15 Q55.15 1.15 54.3 1.7 M69.4 0.05 L69.4 -0.25 69.25 -0.85 68.95 -1.35 Q68.55 -1.75 67.95 -1.75 67.05 -1.75 66.5 -0.9 L66.25 -0.7 Q66.05 -0.7 66.05 -1.0 L65.9 -1.65 65.45 -1.75 63.65 -1.45 Q63.3 -1.65 63.3 -2.0 63.3 -2.35 63.65 -2.65 64.05 -2.9 64.95 -3.15 L67.0 -3.55 67.5 -3.4 67.65 -2.65 Q67.7 -2.3 67.9 -2.3 L68.2 -2.55 Q68.8 -3.55 69.85 -3.55 70.55 -3.55 71.0 -3.05 L71.35 -2.5 71.5 -1.8 71.3 -1.05 70.9 -0.4 Q70.4 0.05 69.65 0.05 L69.4 0.05 M67.2 4.35 L67.2 4.25 Q67.2 3.8 66.55 3.6 L66.2 3.45 66.05 3.15 66.0 1.75 66.05 0.85 Q66.1 0.6 66.3 0.6 L66.55 0.75 67.2 1.25 67.65 1.4 67.7 2.1 67.85 2.4 68.3 2.6 Q69.0 2.8 69.0 3.35 L68.75 3.9 68.15 4.2 67.2 4.35 M75.15 -3.55 L74.85 -3.1 75.25 -2.6 75.7 -2.35 75.8 -2.0 Q75.8 -1.4 75.6 -1.4 L75.4 -1.45 74.0 -1.8 72.6 -1.45 72.2 -1.2 72.45 -1.7 Q73.05 -2.65 74.0 -3.15 74.55 -3.45 75.15 -3.55 M79.4 4.3 L79.45 4.05 79.4 3.75 79.05 3.45 78.8 3.15 78.75 2.45 78.75 -3.8 Q78.75 -4.35 78.15 -4.35 L77.5 -4.25 77.05 -4.5 Q76.55 -4.65 76.55 -5.05 76.55 -5.6 77.7 -5.9 L80.35 -6.5 Q81.05 -6.5 81.05 -5.85 L81.05 1.3 81.1 2.1 81.35 2.4 81.75 2.75 81.85 3.1 Q81.85 3.75 80.6 4.05 L79.4 4.3 M75.8 1.8 L75.6 3.0 74.95 3.5 Q74.55 3.5 74.3 3.2 74.0 2.7 74.0 1.8 74.0 0.75 74.35 0.15 74.6 -0.35 75.05 -0.35 L75.6 -0.05 75.65 0.0 75.6 0.5 75.8 1.8 M86.65 -3.45 L86.9 -4.45 87.85 -5.6 Q89.15 -6.7 91.05 -6.7 L93.15 -6.3 93.4 -6.25 93.85 -6.4 94.15 -6.4 Q94.65 -6.4 95.25 -5.6 95.8 -4.75 95.8 -4.0 L95.7 -3.5 95.6 -3.45 95.35 -3.1 94.9 -3.0 94.4 -3.1 93.55 -3.85 Q92.6 -4.7 91.7 -4.7 L91.0 -4.5 90.85 -4.3 89.5 -4.5 Q87.85 -4.5 86.7 -3.55 L86.65 -3.45 M97.0 -4.05 L96.55 -4.4 96.45 -4.8 Q96.45 -5.2 96.8 -5.5 L98.0 -6.0 99.4 -6.3 100.65 -6.45 Q101.25 -6.45 101.25 -5.7 L101.2 -4.55 101.05 -2.0 101.05 0.5 101.1 2.45 101.5 2.85 101.65 2.95 101.95 3.65 101.8 3.9 101.3 4.2 100.1 4.35 100.1 4.3 100.05 4.05 99.7 3.85 99.35 3.45 99.3 1.75 99.3 -0.4 99.4 -2.65 99.5 -3.65 Q99.5 -4.35 98.95 -4.35 L97.85 -4.2 97.0 -4.05 M102.6 -0.65 Q102.95 -1.65 103.8 -2.35 105.25 -3.6 107.3 -3.6 108.7 -3.6 109.8 -2.85 L111.0 -1.55 110.75 -1.45 110.6 -1.1 110.6 -0.8 110.65 -0.5 110.9 -0.45 111.4 -0.45 111.5 0.4 Q111.5 2.1 109.95 3.3 109.1 3.95 108.1 4.2 109.45 3.15 109.45 1.65 109.45 0.8 109.0 0.05 L107.95 -1.15 107.15 -1.55 106.65 -1.8 106.4 -1.75 105.75 -1.8 Q103.95 -1.8 102.7 -0.75 L102.6 -0.65 M111.8 -2.05 L111.75 -2.1 111.7 -2.45 111.7 -2.8 111.85 -3.15 115.45 -5.4 115.8 -5.45 116.4 -5.45 116.7 -5.35 116.75 -5.0 116.75 -3.95 116.8 -3.65 117.15 -3.6 118.55 -3.6 118.95 -3.5 119.05 -3.05 119.05 -2.55 118.95 -2.05 Q118.8 -1.9 118.55 -1.9 L117.1 -1.9 116.8 -1.85 116.8 -1.8 116.65 -1.8 115.35 -1.8 Q115.15 -1.8 115.1 -1.9 L115.0 -2.15 115.0 -3.05 114.95 -3.35 114.75 -3.45 114.2 -3.45 113.9 -3.4 111.8 -2.05 M116.75 -0.35 L116.75 1.1 116.95 1.85 Q117.2 2.15 117.55 2.15 L118.35 1.9 118.6 1.8 118.95 2.05 119.1 2.55 Q119.1 3.0 118.55 3.45 117.7 4.2 116.6 4.35 L117.1 3.55 116.95 3.1 Q116.8 2.9 116.65 2.9 L116.45 3.0 115.75 3.2 Q115.4 3.2 115.25 2.95 L115.0 2.3 115.0 0.0 115.1 -0.3 115.35 -0.35 116.6 -0.35 116.75 -0.35 M93.7 -2.35 L94.0 -2.25 Q96.0 -1.25 96.0 0.6 96.0 2.3 94.65 3.35 93.8 4.0 92.7 4.25 93.85 3.3 93.85 1.85 93.85 0.2 92.1 -0.65 L90.3 -1.25 Q89.25 -1.55 89.25 -2.15 L89.5 -2.6 Q89.7 -2.8 90.1 -2.8 90.9 -2.8 91.7 -2.05 L92.45 -1.4 92.9 -1.3 93.45 -1.55 93.7 -2.2 93.7 -2.35 M86.35 1.6 L86.3 0.9 86.4 0.5 86.7 0.8 87.65 1.4 88.65 1.85 89.25 2.2 90.1 2.45 90.2 2.85 89.9 3.3 89.05 3.5 87.95 3.25 87.1 2.6 86.45 1.65 86.35 1.6 M124.55 -4.35 L124.4 -4.75 124.25 -4.95 123.85 -5.1 Q123.4 -5.25 123.4 -5.7 L123.55 -6.15 123.95 -6.4 125.15 -6.45 129.15 -6.45 130.95 -6.5 132.0 -6.7 132.25 -6.75 Q132.7 -6.75 133.0 -6.35 133.5 -5.6 133.5 -4.6 L133.3 -3.8 Q133.1 -3.5 132.7 -3.5 L132.3 -3.6 131.9 -4.1 Q131.55 -4.6 131.05 -4.8 L129.3 -4.95 128.2 -4.65 128.1 -4.35 127.9 -4.35 124.55 -4.35 M131.35 -1.8 L131.35 -1.4 Q131.35 -0.15 131.0 0.65 130.75 1.05 130.35 1.05 L129.95 0.95 129.85 0.6 129.85 0.1 129.75 -0.95 129.5 -1.65 129.0 -1.9 128.7 -1.8 128.5 -1.55 128.4 -1.0 128.25 -0.55 127.8 -0.45 127.1 -0.55 Q126.95 -0.65 126.95 -1.05 L127.0 -2.35 127.1 -2.75 Q127.25 -3.05 128.05 -3.05 L128.1 -3.05 128.1 -2.7 Q128.1 -2.25 128.25 -2.15 L129.05 -2.0 Q129.4 -2.0 129.55 -2.15 L129.7 -2.65 129.75 -2.75 130.3 -2.25 130.65 -1.85 131.0 -1.75 131.35 -1.8 M128.25 1.05 L128.25 1.45 128.35 2.25 128.7 2.55 129.8 2.65 130.8 2.6 130.0 3.4 128.5 3.65 127.55 3.55 Q127.25 3.5 127.2 3.3 L127.1 2.6 127.05 1.8 127.15 1.05 127.6 0.85 128.25 1.05 M132.1 1.95 L132.55 1.25 132.95 0.65 Q133.1 0.5 133.4 0.5 L133.95 0.8 134.15 1.5 134.1 2.1 Q133.55 2.6 133.55 3.3 L133.55 3.45 133.3 3.9 133.0 4.3 132.7 4.35 132.3 4.3 131.85 4.25 132.05 3.65 132.3 2.65 132.1 2.0 132.1 1.95 M134.55 1.7 L135.1 0.8 Q135.9 0.05 137.35 -0.1 L137.4 0.7 137.3 1.1 136.8 1.15 Q135.4 1.15 134.55 1.7 M135.0 -1.15 L134.95 -1.45 135.25 -2.2 136.05 -2.85 Q137.45 -3.6 139.0 -3.6 140.35 -3.6 141.3 -2.9 L142.0 -2.05 142.2 -0.75 142.2 0.4 Q142.2 1.6 142.35 1.95 L142.55 2.2 142.85 2.3 Q143.1 2.3 143.1 2.6 L142.8 3.4 142.05 4.05 140.8 4.4 140.85 4.3 141.1 3.6 140.9 3.3 140.6 3.25 140.45 3.05 Q140.3 2.75 140.3 1.7 L140.3 0.65 140.15 -0.5 139.55 -1.2 138.8 -1.6 138.7 -1.9 138.15 -2.25 137.7 -2.1 137.4 -1.8 Q136.15 -1.8 135.0 -1.15 M123.55 3.85 L123.5 3.55 123.6 3.2 123.95 3.0 123.85 3.3 123.7 3.7 123.55 3.85 M147.5 4.3 L147.5 4.25 Q147.5 3.8 146.85 3.6 L146.5 3.45 146.35 3.15 146.3 1.75 146.35 0.85 Q146.4 0.6 146.6 0.6 146.75 0.6 146.85 0.75 L147.5 1.25 147.9 1.4 147.95 2.1 148.1 2.4 148.55 2.6 Q149.25 2.8 149.25 3.35 L149.0 3.9 148.4 4.2 147.5 4.3 M149.7 0.05 L149.7 -0.25 149.55 -0.85 149.25 -1.35 Q148.85 -1.75 148.25 -1.75 147.35 -1.75 146.8 -0.9 L146.55 -0.7 Q146.35 -0.7 146.35 -1.0 L146.2 -1.65 145.75 -1.75 143.95 -1.45 143.9 -1.4 Q143.55 -1.65 143.55 -2.0 143.55 -2.35 143.9 -2.65 L145.2 -3.15 147.25 -3.55 147.75 -3.4 147.9 -2.65 Q147.95 -2.3 148.15 -2.3 L148.45 -2.55 Q149.05 -3.55 150.1 -3.55 150.8 -3.55 151.25 -3.05 L151.6 -2.5 151.75 -1.8 151.55 -1.05 151.5 -0.95 151.2 -0.75 150.95 -0.3 150.95 -0.25 Q150.5 0.05 149.9 0.05 L149.7 0.05 M152.45 -1.3 L152.35 -1.35 Q152.0 -1.55 152.0 -1.9 152.0 -2.2 152.3 -2.4 L153.4 -2.9 154.85 -3.35 155.8 -3.55 156.2 -3.35 156.35 -2.95 156.35 -2.75 156.35 -2.65 Q156.35 -2.25 156.65 -2.25 156.85 -2.25 157.05 -2.55 157.75 -3.55 159.0 -3.55 160.0 -3.55 160.7 -3.0 L161.4 -2.15 161.6 -0.7 161.7 0.55 Q161.45 1.1 161.45 1.75 161.45 2.6 161.85 3.35 L162.25 3.95 161.8 4.15 160.05 4.35 159.95 4.0 159.55 3.5 159.45 3.1 159.35 0.7 159.15 -0.55 158.55 -1.3 Q157.9 -1.75 157.05 -1.75 155.95 -1.75 155.35 -0.9 L155.0 -0.65 Q154.75 -0.65 154.75 -1.0 L154.75 -1.1 154.75 -1.25 154.6 -1.6 154.25 -1.75 153.45 -1.6 152.45 -1.3 M163.3 -1.3 L163.65 -1.9 Q164.35 -2.8 165.4 -3.25 L167.15 -3.6 Q168.6 -3.6 169.65 -2.75 L170.5 -1.75 170.85 -0.75 170.35 -0.15 170.0 0.7 168.45 0.7 168.1 -0.2 167.7 -0.75 167.95 -1.2 167.7 -1.9 167.05 -2.15 Q166.6 -2.15 166.35 -1.85 L166.25 -1.65 165.15 -1.8 163.65 -1.5 163.3 -1.3 M171.85 -1.5 L171.95 -1.7 Q172.55 -2.65 173.5 -3.15 L174.05 -3.4 173.95 -3.1 Q173.95 -2.75 174.35 -2.6 L174.8 -2.35 174.9 -2.0 Q174.9 -1.4 174.7 -1.4 L174.5 -1.45 173.1 -1.8 171.85 -1.5 M176.95 -4.3 L176.55 -4.5 Q176.05 -4.65 176.05 -5.05 176.05 -5.6 177.2 -5.9 L179.85 -6.5 Q180.55 -6.5 180.55 -5.85 L180.55 -3.5 Q180.25 -3.0 180.25 -2.25 L180.5 -0.85 180.55 -0.65 180.55 1.3 180.6 2.1 180.85 2.4 181.0 2.5 180.8 2.7 Q180.4 3.1 180.4 3.7 L180.45 3.95 180.1 4.05 178.5 4.35 178.55 4.05 178.5 3.75 178.15 3.45 177.9 3.15 177.85 2.45 177.85 -3.8 Q177.85 -4.35 177.25 -4.35 L176.95 -4.3 M182.15 -4.2 Q182.2 -5.05 182.55 -5.6 183.05 -6.35 183.95 -6.35 184.65 -6.35 185.15 -5.85 185.8 -5.2 185.8 -4.0 L185.5 -2.3 Q185.25 -1.35 184.8 -0.65 L183.95 0.15 Q183.7 0.15 183.2 -0.6 L183.2 -0.65 183.45 -2.15 Q183.45 -3.2 182.9 -3.8 L182.15 -4.2 M182.3 2.25 Q182.45 1.85 182.75 1.55 183.25 1.05 184.0 1.05 184.7 1.05 185.15 1.55 185.65 2.05 185.65 2.7 185.65 3.4 185.15 3.9 184.65 4.4 183.95 4.4 L183.25 4.25 183.35 3.7 Q183.35 3.1 182.9 2.65 L182.3 2.25 M170.2 3.2 L169.85 3.5 Q168.8 4.25 167.55 4.4 L167.55 4.35 Q168.15 3.9 168.15 3.4 L167.95 2.95 Q167.8 2.75 167.65 2.75 L167.25 2.9 166.6 3.25 165.85 3.35 Q165.3 3.35 164.85 2.95 164.35 2.55 164.35 2.1 L164.55 1.95 166.9 1.95 Q167.4 2.3 167.95 2.3 L168.75 2.2 169.5 1.8 169.85 1.7 Q169.85 2.45 170.2 3.2 M155.9 4.25 L155.25 4.35 155.15 4.1 154.8 3.5 154.75 2.95 154.75 1.6 154.95 0.5 Q155.1 0.25 155.55 0.25 156.05 0.25 156.2 0.6 L156.4 1.25 156.4 1.85 156.45 2.5 Q156.4 3.65 156.15 3.9 L155.9 4.2 155.9 4.25 M165.1 -0.6 L165.65 -0.35 165.85 0.25 Q165.85 0.65 165.45 0.65 L164.75 0.65 164.4 0.6 164.3 0.3 164.5 -0.3 Q164.7 -0.6 165.1 -0.6 M174.15 -0.35 L174.7 -0.05 174.9 1.35 174.7 3.0 174.05 3.5 Q173.65 3.5 173.4 3.2 173.1 2.7 173.1 1.8 173.1 0.75 173.45 0.15 L174.15 -0.35 M105.05 2.95 L104.7 1.7 104.55 0.6 Q104.55 0.2 104.7 0.0 L105.2 -0.25 Q105.6 -0.2 105.8 0.25 L106.2 1.45 106.35 2.75 Q106.35 3.5 105.75 3.5 105.25 3.5 105.05 2.95 M137.35 2.3 L137.45 2.8 Q137.45 3.7 136.9 3.7 136.6 3.7 136.45 3.5 136.3 3.3 136.3 3.0 L136.55 2.4 Q136.75 2.15 137.05 2.15 L137.35 2.3 M56.25 2.4 Q56.45 2.15 56.75 2.15 L57.05 2.3 57.15 2.8 Q57.15 3.7 56.6 3.7 56.3 3.7 56.15 3.5 L56.0 3.0 Q56.0 2.65 56.25 2.4" fill="#000000" fill-rule="evenodd" stroke="none"/>
    <path d="M27.2 -2.05 L27.2 -2.0 26.9 -0.85 26.9 -0.8 26.05 -0.05 25.85 0.2 26.15 0.5 27.2 1.3 Q27.55 1.85 27.7 2.9 L27.9 3.5 28.4 3.75 28.65 3.95 28.7 4.25 28.7 4.3 28.55 4.65 28.15 5.0 26.55 5.25 Q25.25 5.25 24.65 4.55 L24.2 3.75 23.8 2.3 23.4 1.35 Q23.15 1.1 22.7 1.1 22.45 1.1 22.35 1.25 L22.3 1.75 22.3 1.95 22.4 3.3 22.5 3.55 22.75 3.7 23.05 3.95 23.15 4.3 Q23.15 4.75 22.6 4.95 L20.65 5.15 Q18.15 5.15 18.15 4.2 L18.15 4.05 18.2 3.9 Q18.3 3.8 18.55 3.65 L18.95 3.15 19.1 2.25 19.15 -1.25 19.05 -2.55 18.65 -3.05 18.25 -3.3 18.15 -3.6 18.35 -4.05 18.6 -4.2 18.85 -4.3 19.7 -4.4 20.8 -4.35 21.35 -4.3 22.25 -4.35 23.0 -4.4 23.7 -4.45 23.9 -4.45 Q25.35 -4.45 26.3 -3.75 27.15 -3.1 27.2 -2.05 M23.65 -2.3 Q23.45 -2.95 22.8 -2.95 L22.4 -2.85 22.3 -2.4 22.3 -1.95 22.2 -0.75 22.3 -0.45 Q22.35 -0.35 22.6 -0.35 23.2 -0.35 23.45 -0.65 23.75 -0.95 23.75 -1.65 L23.65 -2.3 M30.1 1.4 Q30.15 0.45 30.75 -0.35 L32.25 -1.5 33.45 -1.75 33.75 -1.8 35.0 -1.6 36.0 -1.05 36.7 -0.2 37.05 0.7 37.05 0.95 36.85 1.65 36.8 1.7 36.45 1.95 34.0 1.95 33.15 1.95 32.95 2.1 Q32.95 2.55 33.45 2.95 33.9 3.35 34.45 3.35 L35.2 3.25 35.85 2.9 Q36.1 2.75 36.25 2.75 36.4 2.75 36.55 2.95 L36.75 3.4 36.7 3.7 36.15 4.35 Q35.05 5.2 33.6 5.2 32.2 5.2 31.2 4.35 L30.45 3.35 Q30.05 2.6 30.05 1.75 L30.1 1.4 M33.1 -0.3 L32.9 0.3 33.0 0.6 33.35 0.65 34.05 0.65 Q34.45 0.65 34.45 0.25 L34.25 -0.35 33.7 -0.6 Q33.3 -0.6 33.1 -0.3 M43.65 4.3 L43.45 4.6 42.75 5.15 Q42.45 5.15 42.25 4.95 L41.8 4.4 39.75 0.95 38.95 -0.1 38.45 -0.35 38.2 -0.5 38.1 -0.8 Q38.1 -1.35 38.9 -1.55 L39.1 -1.6 40.7 -1.75 Q42.9 -1.75 42.9 -0.95 L42.7 -0.5 42.65 -0.35 Q42.65 -0.2 42.95 0.4 L43.55 1.05 43.95 0.7 44.2 0.15 44.1 -0.15 43.6 -0.6 43.35 -0.95 43.55 -1.3 Q43.8 -1.55 44.45 -1.65 L44.95 -1.7 46.0 -1.75 47.5 -1.6 47.95 -1.05 47.9 -0.8 47.6 -0.45 47.55 -0.2 47.85 0.55 Q48.15 1.1 48.35 1.1 L49.0 0.4 49.25 -0.25 49.05 -0.65 48.9 -1.05 49.0 -1.4 49.2 -1.55 50.5 -1.75 50.85 -1.75 51.55 -1.65 51.95 -1.45 52.15 -1.05 51.95 -0.7 51.45 -0.5 51.05 -0.25 50.65 0.4 48.95 3.7 48.65 4.3 47.6 5.15 47.05 4.85 46.3 3.8 45.6 2.7 45.3 2.25 45.1 2.15 Q44.85 2.15 44.6 2.6 L43.65 4.3 M60.5 4.4 L59.85 4.9 58.8 5.2 Q58.05 5.2 57.65 4.7 L57.4 4.5 57.0 4.7 55.45 5.2 Q54.55 5.2 54.0 4.8 L53.45 4.15 53.25 3.3 Q53.25 2.6 53.8 2.05 L54.3 1.7 Q55.15 1.15 56.5 1.15 L57.0 1.1 57.1 0.7 57.05 -0.1 56.95 -0.35 Q56.8 -0.65 56.45 -0.65 L56.1 -0.55 55.7 -0.1 Q55.05 0.8 54.4 0.8 54.1 0.8 53.85 0.6 L53.65 0.05 53.9 -0.6 54.65 -1.15 54.75 -1.2 Q55.9 -1.8 57.15 -1.8 L57.2 -1.8 58.55 -1.55 59.25 -1.2 59.85 -0.5 60.0 0.65 60.0 1.7 Q60.0 2.75 60.15 3.05 L60.3 3.25 60.6 3.3 60.8 3.6 60.55 4.3 60.5 4.4 M63.65 -1.45 L65.45 -1.75 65.9 -1.65 66.05 -1.0 Q66.05 -0.7 66.25 -0.7 L66.5 -0.9 Q67.05 -1.75 67.95 -1.75 68.55 -1.75 68.95 -1.35 L69.25 -0.85 69.4 -0.25 69.4 0.05 69.25 0.4 68.85 0.95 Q68.4 1.4 67.8 1.4 L67.65 1.4 67.2 1.25 66.55 0.75 66.3 0.6 Q66.1 0.6 66.05 0.85 L66.0 1.75 66.05 3.15 66.2 3.45 66.55 3.6 Q67.2 3.8 67.2 4.25 L67.2 4.35 67.0 4.75 66.45 5.0 64.55 5.15 62.7 4.9 Q62.15 4.75 62.15 4.25 62.15 3.9 62.55 3.65 L62.8 3.4 62.9 3.1 63.05 0.8 62.95 0.35 62.7 0.15 Q62.2 -0.05 62.2 -0.4 62.2 -0.75 62.55 -0.95 L63.65 -1.45 M72.2 -1.2 L72.6 -1.45 74.0 -1.8 75.4 -1.45 75.6 -1.4 Q75.8 -1.4 75.8 -2.0 L75.7 -2.35 75.25 -2.6 74.85 -3.1 75.15 -3.55 75.8 -3.85 77.5 -4.25 78.15 -4.35 Q78.75 -4.35 78.75 -3.8 L78.75 2.45 78.8 3.15 79.05 3.45 79.4 3.75 79.45 4.05 79.4 4.3 Q79.2 4.65 78.35 4.9 L76.4 5.15 76.1 5.1 76.0 4.75 Q76.0 4.4 75.75 4.4 L75.4 4.6 Q74.7 5.2 73.85 5.2 72.8 5.2 71.95 4.4 L71.15 3.3 Q70.75 2.5 70.75 1.7 70.75 0.75 71.25 -0.15 L72.2 -1.2 M75.65 0.0 L75.6 -0.05 75.05 -0.35 Q74.6 -0.35 74.35 0.15 74.0 0.75 74.0 1.8 74.0 2.7 74.3 3.2 74.55 3.5 74.95 3.5 L75.6 3.0 75.8 1.8 75.8 1.35 75.65 0.0 M86.4 0.5 Q85.65 -0.4 85.65 -1.4 L85.9 -2.55 Q86.2 -3.1 86.65 -3.45 L86.7 -3.55 Q87.85 -4.5 89.5 -4.5 L90.85 -4.3 91.35 -4.15 91.55 -4.15 92.0 -4.25 92.2 -4.3 Q92.65 -4.3 93.2 -3.55 L93.7 -2.35 93.7 -2.2 93.45 -1.55 92.9 -1.3 92.45 -1.4 91.7 -2.05 Q90.9 -2.8 90.1 -2.8 89.7 -2.8 89.5 -2.6 L89.25 -2.15 Q89.25 -1.55 90.3 -1.25 L92.1 -0.65 Q93.85 0.2 93.85 1.85 93.85 3.3 92.7 4.25 L92.65 4.25 Q91.45 5.2 89.5 5.2 L87.65 5.0 86.25 4.5 85.65 3.55 85.4 2.1 85.5 1.6 85.95 1.4 86.35 1.6 86.45 1.65 87.1 2.6 87.95 3.25 89.05 3.5 89.9 3.3 90.2 2.85 90.1 2.45 89.95 2.35 89.15 2.0 88.65 1.85 87.65 1.4 86.7 0.8 86.4 0.5 M95.7 -3.5 L96.65 -3.95 97.0 -4.05 97.85 -4.2 98.95 -4.35 Q99.5 -4.35 99.5 -3.65 L99.4 -2.65 99.3 -0.4 99.3 1.75 99.35 3.45 99.7 3.85 100.05 4.05 100.1 4.3 100.1 4.35 99.95 4.75 99.55 5.0 97.85 5.15 96.0 4.95 95.6 4.65 95.45 4.25 95.55 4.0 95.9 3.8 96.25 3.15 96.35 0.65 96.25 -1.5 95.8 -2.2 95.4 -2.55 95.3 -2.9 95.35 -3.1 95.6 -3.45 95.7 -3.5 M101.65 2.95 L101.5 1.9 Q101.5 0.35 102.6 -0.65 L102.7 -0.75 Q103.95 -1.8 105.75 -1.8 L106.4 -1.75 107.15 -1.55 107.95 -1.15 109.0 0.05 Q109.45 0.8 109.45 1.65 109.45 3.15 108.1 4.2 106.8 5.2 105.1 5.2 103.5 5.2 102.45 4.25 L101.95 3.65 101.65 2.95 M111.0 -1.55 L111.8 -2.05 113.9 -3.4 114.2 -3.45 114.75 -3.45 114.95 -3.35 115.0 -3.05 115.0 -2.15 115.1 -1.9 Q115.15 -1.8 115.35 -1.8 L116.65 -1.8 116.8 -1.8 116.95 -1.7 117.05 -1.35 117.05 -0.95 116.95 -0.45 116.75 -0.35 116.6 -0.35 115.35 -0.35 115.1 -0.3 115.0 0.0 115.0 2.3 115.25 2.95 Q115.4 3.2 115.75 3.2 L116.45 3.0 116.65 2.9 Q116.8 2.9 116.95 3.1 L117.1 3.55 116.6 4.35 Q115.65 5.2 114.25 5.2 113.15 5.2 112.5 4.55 111.85 3.95 111.85 2.95 L111.85 -0.2 111.8 -0.4 111.6 -0.45 111.4 -0.45 110.9 -0.45 110.65 -0.5 110.6 -0.8 110.6 -1.1 110.75 -1.45 111.0 -1.55 M128.1 -4.35 L129.45 -4.35 130.4 -4.55 130.65 -4.6 Q131.0 -4.6 131.25 -4.2 131.7 -3.6 131.7 -2.7 L131.55 -2.0 131.35 -1.8 131.0 -1.75 130.65 -1.85 130.3 -2.25 129.75 -2.75 129.55 -2.85 128.1 -3.05 128.05 -3.05 Q127.25 -3.05 127.1 -2.75 L127.0 -2.35 126.95 -1.05 Q126.95 -0.65 127.1 -0.55 L127.8 -0.45 128.25 -0.55 128.4 -1.0 128.5 -1.55 128.7 -1.8 129.0 -1.9 129.5 -1.65 129.75 -0.95 129.85 0.1 129.85 0.6 129.5 1.9 128.95 2.25 128.65 2.15 128.5 1.65 128.25 1.05 127.6 0.85 127.15 1.05 127.05 1.8 127.1 2.6 127.2 3.3 Q127.25 3.5 127.55 3.55 L128.5 3.65 130.0 3.4 130.8 2.6 130.85 2.45 131.2 1.9 Q131.35 1.75 131.6 1.75 L132.1 1.95 132.1 2.0 132.3 2.65 132.05 3.65 131.85 4.25 131.55 4.75 131.3 5.05 131.05 5.15 130.65 5.1 129.5 5.0 123.7 5.0 123.15 4.85 122.95 4.4 123.05 4.15 Q123.1 4.05 123.4 3.9 L123.55 3.85 123.7 3.7 123.85 3.3 123.95 3.0 124.1 0.5 Q124.1 -2.1 123.75 -2.8 L123.6 -3.0 123.25 -3.15 Q122.9 -3.25 122.9 -3.65 L123.0 -4.05 123.35 -4.25 124.4 -4.35 124.55 -4.35 127.9 -4.35 128.1 -4.35 M134.1 2.1 L134.1 2.05 134.55 1.7 Q135.4 1.15 136.8 1.15 L137.3 1.1 137.4 0.7 137.35 -0.1 137.25 -0.35 136.75 -0.65 136.4 -0.55 136.0 -0.1 Q135.35 0.8 134.7 0.8 L134.15 0.6 133.95 0.05 134.2 -0.6 134.95 -1.15 135.0 -1.15 Q136.15 -1.8 137.4 -1.8 L137.5 -1.8 138.8 -1.6 139.55 -1.2 140.15 -0.5 140.3 0.65 140.3 1.7 Q140.3 2.75 140.45 3.05 L140.6 3.25 140.9 3.3 141.1 3.6 140.85 4.3 140.8 4.4 140.15 4.9 139.1 5.2 Q138.35 5.2 137.95 4.7 L137.7 4.5 137.3 4.7 Q136.65 5.2 135.75 5.2 134.85 5.2 134.3 4.8 L133.75 4.15 133.55 3.45 133.55 3.3 Q133.55 2.6 134.1 2.1 M147.5 4.3 L147.3 4.75 146.75 5.0 144.85 5.15 143.0 4.9 Q142.45 4.75 142.45 4.25 142.45 3.9 142.85 3.65 L143.1 3.4 143.2 3.1 143.35 0.8 143.25 0.35 Q143.2 0.2 143.0 0.15 142.5 -0.05 142.5 -0.4 142.5 -0.75 142.85 -0.95 L143.9 -1.4 143.95 -1.45 145.75 -1.75 146.2 -1.65 146.35 -1.0 Q146.35 -0.7 146.55 -0.7 L146.8 -0.9 Q147.35 -1.75 148.25 -1.75 148.85 -1.75 149.25 -1.35 L149.55 -0.85 149.7 -0.25 149.7 0.05 149.55 0.4 149.15 0.95 Q148.7 1.4 148.1 1.4 L147.9 1.4 147.5 1.25 146.85 0.75 Q146.75 0.6 146.6 0.6 146.4 0.6 146.35 0.85 L146.3 1.75 146.35 3.15 146.5 3.45 146.85 3.6 Q147.5 3.8 147.5 4.25 L147.5 4.3 M151.5 -0.95 L152.15 -1.2 152.45 -1.3 153.45 -1.6 154.25 -1.75 154.6 -1.6 154.75 -1.25 154.75 -1.1 154.75 -1.0 Q154.75 -0.65 155.0 -0.65 L155.35 -0.9 Q155.95 -1.75 157.05 -1.75 157.9 -1.75 158.55 -1.3 L159.15 -0.55 159.35 0.7 159.45 3.1 159.55 3.5 159.95 4.0 160.05 4.35 Q160.05 4.8 159.5 4.95 L157.6 5.15 156.25 4.95 155.85 4.4 155.9 4.25 155.9 4.2 156.15 3.9 Q156.4 3.65 156.45 2.5 L156.45 2.0 156.4 1.25 156.2 0.6 Q156.05 0.25 155.55 0.25 155.1 0.25 154.95 0.5 L154.75 1.6 154.75 2.95 154.8 3.5 155.15 4.1 155.25 4.35 Q155.25 4.75 154.65 4.95 L152.9 5.15 Q151.0 5.15 151.0 4.35 L151.1 4.1 151.35 3.85 151.6 3.55 151.65 2.75 151.7 1.1 151.65 0.5 151.25 0.15 150.95 -0.25 150.95 -0.3 151.2 -0.75 151.5 -0.95 M161.7 0.55 L162.15 -0.35 163.3 -1.3 163.65 -1.5 165.15 -1.8 166.25 -1.65 167.4 -1.05 167.7 -0.75 168.1 -0.2 168.45 0.7 168.45 0.95 168.25 1.65 167.8 1.95 166.9 1.95 164.55 1.95 164.35 2.1 Q164.35 2.55 164.85 2.95 165.3 3.35 165.85 3.35 L166.6 3.25 167.25 2.9 167.65 2.75 Q167.8 2.75 167.95 2.95 L168.15 3.4 Q168.15 3.9 167.55 4.35 L167.55 4.4 Q166.45 5.2 165.0 5.2 163.6 5.2 162.6 4.35 L162.25 3.95 161.85 3.35 Q161.45 2.6 161.45 1.75 161.45 1.1 161.7 0.55 M170.85 -0.75 L171.7 -1.45 171.85 -1.5 173.1 -1.8 174.5 -1.45 174.7 -1.4 Q174.9 -1.4 174.9 -2.0 L174.8 -2.35 174.35 -2.6 Q173.95 -2.75 173.95 -3.1 L174.05 -3.4 174.9 -3.85 176.95 -4.3 177.25 -4.35 Q177.85 -4.35 177.85 -3.8 L177.85 2.45 177.9 3.15 178.15 3.45 178.5 3.75 178.55 4.05 178.5 4.35 Q178.25 4.7 177.45 4.9 L175.5 5.15 175.2 5.1 175.1 4.75 174.85 4.4 174.5 4.6 Q173.8 5.2 172.95 5.2 171.9 5.2 171.05 4.4 L170.25 3.3 170.2 3.2 Q169.85 2.45 169.85 1.7 169.85 1.2 170.0 0.7 L170.35 -0.15 170.85 -0.75 M180.55 -3.5 L180.6 -3.6 Q181.05 -4.25 181.85 -4.25 L182.15 -4.2 182.9 -3.8 Q183.45 -3.2 183.45 -2.15 L183.2 -0.65 183.2 -0.6 182.55 0.75 181.85 1.45 Q181.55 1.45 181.05 0.55 L180.55 -0.65 180.5 -0.85 180.25 -2.25 Q180.25 -3.0 180.55 -3.5 M181.0 2.5 Q181.4 2.2 181.9 2.2 L182.3 2.25 182.9 2.65 Q183.35 3.1 183.35 3.7 L183.25 4.25 182.9 4.75 Q182.45 5.2 181.85 5.2 181.25 5.2 180.85 4.8 180.5 4.45 180.45 3.95 L180.4 3.7 Q180.4 3.1 180.8 2.7 L181.0 2.5 M165.1 -0.6 Q164.7 -0.6 164.5 -0.3 L164.3 0.3 164.4 0.6 164.75 0.65 165.45 0.65 Q165.85 0.65 165.85 0.25 L165.65 -0.35 165.1 -0.6 M174.15 -0.35 L173.45 0.15 Q173.1 0.75 173.1 1.8 173.1 2.7 173.4 3.2 173.65 3.5 174.05 3.5 L174.7 3.0 174.9 1.35 174.7 -0.05 174.15 -0.35 M137.35 2.3 L137.05 2.15 Q136.75 2.15 136.55 2.4 L136.3 3.0 Q136.3 3.3 136.45 3.5 136.6 3.7 136.9 3.7 137.45 3.7 137.45 2.8 L137.35 2.3 M105.05 2.95 Q105.25 3.5 105.75 3.5 106.35 3.5 106.35 2.75 L106.2 1.45 105.8 0.25 Q105.6 -0.2 105.2 -0.25 L104.7 0.0 Q104.55 0.2 104.55 0.6 L104.7 1.7 105.05 2.95 M56.25 2.4 Q56.0 2.65 56.0 3.0 L56.15 3.5 Q56.3 3.7 56.6 3.7 57.15 3.7 57.15 2.8 L57.05 2.3 56.75 2.15 Q56.45 2.15 56.25 2.4" fill="#ffffff" fill-rule="evenodd" stroke="none"/>
    <path d="M-21.4 -2.45 L-21.5 -2.45 -21.3 -4.2 Q-21.3 -4.85 -21.75 -5.3 -22.2 -5.75 -22.85 -5.75 -24.1 -5.75 -24.55 -4.65 L-24.95 -2.45 -25.65 -2.45 -25.15 -5.05 Q-24.6 -6.4 -23.05 -6.4 -22.25 -6.4 -21.7 -5.85 -21.15 -5.3 -21.15 -4.5 L-21.4 -2.45 M-27.15 -2.3 L-27.25 -2.3 Q-28.45 -1.95 -28.45 -0.6 -28.45 0.6 -27.35 0.9 L-25.3 1.0 -25.45 2.7 -25.0 3.85 -23.9 4.3 Q-22.65 4.3 -22.2 3.15 L-21.85 1.0 -19.5 0.85 Q-18.35 0.45 -18.35 -1.0 -18.35 -1.95 -19.25 -2.3 L-18.95 -2.25 Q-17.55 -1.9 -17.55 -0.6 -17.55 1.2 -19.0 1.65 L-21.8 1.85 Q-22.05 3.9 -22.25 4.5 -22.8 5.9 -24.3 5.9 -25.2 5.9 -25.7 5.3 -26.25 4.75 -26.25 3.9 L-26.05 1.85 -28.55 1.7 Q-29.95 1.35 -29.95 -0.1 -29.95 -1.75 -28.45 -2.2 L-27.15 -2.3" fill="#000000" fill-rule="evenodd" stroke="none"/>
    <path d="M-25.65 -2.45 L-24.95 -2.45 -24.55 -4.65 Q-24.1 -5.75 -22.85 -5.75 -22.2 -5.75 -21.75 -5.3 -21.3 -4.85 -21.3 -4.2 L-21.5 -2.45 -21.4 -2.45 -19.45 -2.35 -19.25 -2.3 Q-18.35 -1.95 -18.35 -1.0 -18.35 0.45 -19.5 0.85 L-21.85 1.0 -22.2 3.15 Q-22.65 4.3 -23.9 4.3 L-25.0 3.85 -25.45 2.7 -25.3 1.0 -27.35 0.9 Q-28.45 0.6 -28.45 -0.6 -28.45 -1.95 -27.25 -2.3 L-27.15 -2.3 -25.65 -2.45" fill="#ffffff" fill-rule="evenodd" stroke="none"/>
    <path d="M9.4 -7.35 L8.4 -8.4 7.4 -9.35 7.15 -9.55 8.35 -11.6 9.1 -11.0 10.1 -10.1 11.05 -9.05 12.55 -6.85 11.7 -8.25 13.75 -10.3 14.4 -9.35 Q15.9 -7.1 16.55 -4.55 L17.0 -2.4 17.1 -1.7 17.15 0.0 17.1 1.65 17.0 2.4 Q16.4 6.8 13.7 10.3 L11.65 8.25 11.05 9.05 10.1 10.1 9.05 11.05 8.35 11.6 7.15 9.55 7.4 9.35 8.4 8.4 9.35 7.4 Q11.45 4.75 11.85 1.4 L14.25 1.4 14.3 0.0 14.25 -1.4 14.2 -1.7 14.1 -2.4 14.05 -2.65 14.25 -1.4 11.85 -1.4 11.65 -2.65 Q11.3 -4.15 10.6 -5.45 L9.4 -7.35 M0.0 -14.25 Q3.2 -14.3 5.9 -13.05 L4.7 -10.95 Q2.55 -11.9 0.0 -11.9 -2.55 -11.9 -4.7 -10.95 L-5.9 -13.05 Q-3.2 -14.3 0.0 -14.25 M7.1 -15.65 Q8.6 -15.0 10.0 -13.95 L10.4 -13.7 8.3 -11.65 5.65 -13.2 Q3.05 -14.3 0.0 -14.3 -3.05 -14.3 -5.65 -13.2 L-8.3 -11.7 -10.3 -13.7 -9.95 -13.95 Q-8.6 -15.0 -7.05 -15.65 -3.85 -17.15 0.0 -17.15 3.85 -17.15 7.1 -15.65 M-11.05 -9.05 L-10.1 -10.1 -9.05 -11.05 -8.3 -11.6 -7.15 -9.55 -7.35 -9.35 -8.4 -8.4 -9.35 -7.4 -10.6 -5.45 Q-11.3 -4.15 -11.6 -2.65 L-11.8 -1.4 -14.2 -1.4 -14.25 0.0 -14.2 1.4 -11.8 1.4 Q-11.45 4.75 -9.35 7.4 L-8.4 8.4 -7.35 9.35 -7.1 9.55 -8.3 11.65 -9.05 11.05 -10.1 10.1 -11.0 9.1 -11.65 8.3 -13.65 10.35 Q-16.4 6.8 -17.0 2.4 L-17.05 1.65 -17.1 0.0 -17.05 -1.7 -17.0 -2.4 -16.55 -4.55 Q-15.9 -7.1 -14.4 -9.35 L-13.7 -10.3 -11.65 -8.25 -11.05 -9.05 M-14.05 -2.65 L-13.95 -3.2 -14.1 -2.4 -14.05 -2.65 M-7.05 15.65 L-9.95 13.95 -10.25 13.7 -8.2 11.7 -5.85 13.05 -4.7 10.95 Q-2.55 11.9 0.0 11.9 2.55 11.9 4.7 10.95 L5.9 13.05 8.25 11.65 10.3 13.7 10.0 13.9 7.1 15.65 Q3.85 17.1 0.0 17.1 -3.85 17.1 -7.05 15.65" fill="#01f301" fill-rule="evenodd" stroke="none"/>
    <path d="M1.45 -2.65 L5.05 -2.85 Q4.85 -4.8 3.6 -5.65 2.35 -6.65 -0.05 -6.65 L-3.15 -6.15 -4.8 -4.8 Q-5.35 -3.95 -5.35 -2.95 -5.35 -1.55 -4.3 -0.55 -3.15 0.3 -0.65 0.85 0.9 1.25 1.25 1.65 1.75 2.0 1.75 2.5 L1.25 3.35 Q0.75 3.75 0.0 3.75 -1.15 3.75 -1.7 2.95 -2.1 2.5 -2.15 1.65 L-5.85 1.85 Q-5.65 3.75 -4.4 5.0 -3.25 6.15 -0.05 6.15 L2.9 5.65 Q4.15 5.1 4.8 4.15 5.4 3.2 5.4 1.95 5.4 0.95 4.95 0.1 L3.35 -1.25 Q2.3 -1.85 -0.25 -2.3 L-1.5 -2.8 -1.8 -3.35 -1.45 -4.0 -0.45 -4.3 Q0.4 -4.35 0.8 -3.95 L1.45 -2.65 M8.05 6.15 L7.15 7.15 Q4.2 10.1 0.0 10.1 -4.2 10.1 -7.2 7.15 -10.15 4.2 -10.15 0.0 -10.15 -4.2 -7.2 -7.15 -4.2 -10.1 0.0 -10.1 4.2 -10.1 7.15 -7.15 10.1 -4.2 10.1 0.0 10.1 3.2 8.4 5.65 L8.05 6.15" fill="url(#gradient0)" fill-rule="evenodd" stroke="none"/>
    <path d="M1.45 -2.65 L0.8 -3.95 Q0.4 -4.35 -0.45 -4.3 L-1.45 -4.0 -1.8 -3.35 -1.5 -2.8 -0.25 -2.3 Q2.3 -1.85 3.35 -1.25 L4.95 0.1 Q5.4 0.95 5.4 1.95 5.4 3.2 4.8 4.15 4.15 5.1 2.9 5.65 L-0.05 6.15 Q-3.25 6.15 -4.4 5.0 -5.65 3.75 -5.85 1.85 L-2.15 1.65 Q-2.1 2.5 -1.7 2.95 -1.15 3.75 0.0 3.75 0.75 3.75 1.25 3.35 L1.75 2.5 Q1.75 2.0 1.25 1.65 0.9 1.25 -0.65 0.85 -3.15 0.3 -4.3 -0.55 -5.35 -1.55 -5.35 -2.95 -5.35 -3.95 -4.8 -4.8 L-3.15 -6.15 -0.05 -6.65 Q2.35 -6.65 3.6 -5.65 4.85 -4.8 5.05 -2.85 L1.45 -2.65" fill="#017801" fill-rule="evenodd" stroke="none"/>
    <path d="M8.4 5.65 L8.55 6.15 8.05 6.15 8.4 5.65" fill="#a2fea0" fill-rule="evenodd" stroke="none"/>
    <path d="M8.05 6.15 L7.15 7.15 Q4.2 10.1 0.0 10.1 -4.2 10.1 -7.2 7.15 -10.15 4.2 -10.15 0.0 -10.15 -4.2 -7.2 -7.15 -4.2 -10.1 0.0 -10.1 4.2 -10.1 7.15 -7.15 10.1 -4.2 10.1 0.0 10.1 3.2 8.4 5.65" fill="none" stroke="#03c102" stroke-linecap="round" stroke-linejoin="round" stroke-width="1.5"/>
  </g>
  <defs>
    <linearGradient gradientTransform="matrix(0.0123, 0.0, 0.0, 0.0124, -0.05, 0.05)" gradientUnits="userSpaceOnUse" id="gradient0" spreadMethod="pad" x1="-819.2" x2="819.2">
      <stop offset="0.0" stop-color="#65fe65"/>
      <stop offset="1.0" stop-color="#d9ffd9"/>
    </linearGradient>
  </defs>
</svg>
