<?xml version="1.0" encoding="UTF-8" standalone="no"?>
<svg xmlns:xlink="http://www.w3.org/1999/xlink" height="47.85px" width="207.95px" xmlns="http://www.w3.org/2000/svg">
  <g transform="matrix(1.0, 0.0, 0.0, 1.0, 29.95, 27.2)">
    <path d="M12.55 -10.45 Q13.75 -12.75 12.75 -15.45 L12.35 -16.3 Q13.05 -15.4 14.45 -15.6 16.8 -15.95 18.95 -18.4 17.2 -13.2 12.55 -10.45" fill="url(#gradient0)" fill-rule="evenodd" stroke="none"/>
    <path d="M12.35 -16.3 L12.75 -15.45 Q13.75 -12.75 12.55 -10.45 L12.45 -10.35 Q11.15 -8.05 8.25 -7.6 5.55 -7.15 2.9 -8.5 -0.45 -0.05 -6.05 7.15 L-10.55 14.95 -15.55 14.75 Q-11.2 9.0 -7.6 3.4 L-3.0 -4.4 0.1 -10.6 0.3 -10.5 Q-0.75 -11.65 -1.3 -13.1 -2.35 -15.7 -1.15 -17.95 L-1.05 -18.1 Q0.25 -20.45 3.2 -20.9 L3.7 -21.0 Q6.3 -21.2 8.9 -19.75 11.2 -18.4 12.35 -16.3 M9.95 -14.95 Q9.3 -16.55 7.6 -17.5 5.9 -18.5 4.2 -18.25 2.45 -17.95 1.65 -16.55 0.85 -15.2 1.5 -13.55 2.1 -11.9 3.8 -10.9 5.5 -9.95 7.25 -10.25 8.95 -10.55 9.75 -11.9 10.55 -13.3 9.95 -14.95" fill="url(#gradient1)" fill-rule="evenodd" stroke="none"/>
    <path d="M3.7 -21.0 L3.2 -20.9 Q0.25 -20.45 -1.05 -18.1 L-1.1 -18.15 Q0.1 -24.1 4.55 -26.7 2.8 -24.5 3.7 -21.0" fill="url(#gradient2)" fill-rule="evenodd" stroke="none"/>
    <path d="M-3.0 -4.4 L-7.6 3.4 Q-5.45 -0.3 -8.4 -2.7 -5.2 -2.25 -3.0 -4.4" fill="url(#gradient3)" fill-rule="evenodd" stroke="none"/>
    <path d="M-10.55 14.95 L-6.05 7.15 1.95 10.25 -1.15 12.95 -3.65 11.15 Q-7.4 11.8 -6.8 15.3 L-3.05 16.35 -4.15 20.15 -10.55 14.95" fill="url(#gradient4)" fill-rule="evenodd" stroke="none"/>
    <path d="M23.25 -4.0 Q21.9 -3.9 20.9 -3.1 L20.1 -2.1 19.85 -1.05 Q19.1 -1.95 19.1 -3.05 19.1 -3.75 19.4 -4.4 L20.35 -5.55 Q21.65 -6.65 23.55 -6.65 L25.65 -6.25 25.9 -6.2 26.35 -6.35 26.65 -6.35 Q27.15 -6.35 27.75 -5.55 28.3 -4.7 28.3 -3.95 L28.05 -3.25 Q27.85 -3.0 27.5 -2.95 L27.4 -3.1 26.4 -3.85 26.2 -3.8 26.1 -3.75 26.05 -3.8 Q25.1 -4.65 24.2 -4.65 L23.5 -4.45 23.25 -4.0 M23.5 2.5 L24.15 2.8 24.4 3.3 24.1 3.75 23.25 3.95 22.15 3.7 Q21.6 3.45 21.3 3.05 L20.65 2.1 20.15 1.85 19.7 2.05 19.6 2.55 19.75 3.6 Q19.4 3.35 19.15 2.6 18.8 1.75 18.8 0.95 L19.0 0.35 Q19.15 0.1 19.45 0.1 19.75 0.1 20.05 0.4 L20.8 1.5 21.75 2.25 23.05 2.55 23.5 2.5 M28.05 2.4 L28.05 2.3 Q28.05 0.65 26.3 -0.2 L24.5 -0.8 Q23.45 -1.1 23.45 -1.7 L23.7 -2.15 24.3 -2.35 Q25.1 -2.35 25.9 -1.6 L26.65 -0.95 27.1 -0.85 Q27.45 -0.85 27.65 -1.1 L27.8 -1.25 Q28.5 -0.45 28.5 0.65 L28.05 2.4 M30.05 -0.4 L30.0 -0.75 29.9 -0.85 29.5 -0.9 Q29.25 -0.95 29.1 -1.15 28.95 -1.35 28.95 -1.6 L29.2 -2.15 29.9 -2.6 Q31.8 -3.5 32.95 -3.5 L33.5 -3.4 33.65 -3.0 Q33.65 -2.7 33.8 -2.7 L34.35 -3.0 35.2 -3.4 36.15 -3.55 Q37.15 -3.55 37.9 -2.85 L38.85 -1.55 39.2 0.25 Q39.2 1.8 38.35 2.95 L38.45 1.95 38.15 0.4 37.35 -0.75 Q36.65 -1.35 35.8 -1.35 L34.95 -1.25 34.75 -1.15 34.3 -1.25 Q33.8 -1.25 33.7 -0.65 L33.6 -0.9 33.5 -1.25 32.95 -1.3 Q32.0 -1.3 30.3 -0.55 L30.05 -0.4 M33.95 5.35 L34.1 5.45 34.55 5.8 34.65 6.1 34.3 6.7 34.0 6.5 Q33.65 6.25 33.65 5.7 33.65 5.3 33.85 5.3 L33.95 5.35 M29.6 6.35 Q29.05 6.0 29.05 5.55 L29.15 5.2 29.5 4.95 30.0 4.25 30.15 1.4 30.15 0.95 30.3 1.0 30.4 1.1 30.5 3.0 30.4 5.45 29.95 6.05 29.65 6.25 29.6 6.35 M43.05 -1.3 L42.1 -1.05 Q41.2 -0.65 40.6 0.1 40.05 0.9 39.95 1.8 39.7 1.15 39.7 0.5 39.7 -0.8 40.5 -1.85 41.2 -2.75 42.25 -3.2 L44.0 -3.55 Q45.45 -3.55 46.5 -2.7 L47.35 -1.7 Q47.7 -1.05 47.7 -0.4 L47.5 0.45 46.95 0.75 46.8 0.75 46.55 0.25 45.85 -0.6 44.8 -1.15 44.55 -1.85 43.9 -2.1 43.2 -1.8 43.05 -1.3 M46.55 3.65 L46.4 3.4 46.1 3.2 Q45.95 3.2 45.7 3.35 L45.05 3.7 44.3 3.8 Q43.75 3.8 43.3 3.4 42.8 3.0 42.8 2.55 L43.0 2.4 46.25 2.4 46.7 2.1 46.9 1.7 47.2 1.95 47.4 2.45 Q47.4 3.0 46.7 3.55 L46.55 3.65 M53.2 -1.25 Q52.95 -1.55 52.55 -1.55 L52.0 -1.35 Q50.55 -1.3 49.45 -0.4 48.5 0.4 48.35 1.6 L48.2 0.5 Q48.2 -1.25 49.55 -2.4 50.85 -3.55 52.7 -3.55 54.1 -3.55 55.15 -2.85 56.15 -2.15 56.15 -1.2 56.15 -0.5 55.7 -0.1 L55.2 0.25 Q55.0 -0.35 54.35 -0.75 L53.2 -1.25 M54.95 3.75 L54.8 3.35 54.4 3.1 54.15 3.15 53.55 3.4 53.0 3.45 Q52.25 3.45 51.8 2.95 51.2 2.3 51.2 1.5 51.2 1.0 51.45 0.7 L51.7 0.5 52.2 1.4 Q52.75 2.0 53.6 2.0 L53.8 2.0 53.9 2.0 Q54.35 2.0 54.65 1.8 L54.95 1.65 55.2 1.6 55.65 1.85 55.85 2.4 55.55 3.15 54.95 3.75 M60.25 -3.45 L60.55 -3.5 Q61.0 -3.5 61.0 -3.0 L61.0 1.55 61.1 2.35 61.5 2.8 61.8 3.1 61.9 3.4 Q61.9 4.0 60.95 4.25 L60.9 4.2 60.55 3.8 60.45 3.1 60.45 -0.9 Q60.45 -1.3 60.1 -1.3 L58.75 -1.1 57.45 -0.7 57.45 -0.8 57.0 -1.3 Q56.5 -1.5 56.5 -1.95 L56.7 -2.4 57.05 -1.95 57.85 -1.75 Q59.05 -1.75 59.85 -2.25 60.4 -2.55 60.4 -3.05 L60.25 -3.45 M57.05 4.15 L56.7 3.9 56.55 3.45 56.65 3.15 57.05 2.75 57.4 2.2 57.4 2.6 57.35 3.65 57.05 4.15 M56.65 -4.95 Q56.65 -5.65 57.6 -6.0 L59.45 -6.4 60.5 -6.15 Q60.9 -5.9 60.9 -5.5 60.9 -4.85 60.3 -4.5 59.35 -3.95 58.0 -3.95 L57.1 -4.2 Q56.65 -4.45 56.65 -4.95 M63.8 -0.55 L63.6 -0.55 Q63.2 -0.55 63.0 -0.8 62.75 -1.0 62.75 -1.4 L63.05 -2.15 63.85 -2.8 Q65.25 -3.55 66.8 -3.55 68.15 -3.55 69.1 -2.85 L69.8 -2.0 70.0 -0.7 70.0 0.45 Q70.0 1.65 70.15 2.0 L70.35 2.25 70.65 2.35 70.9 2.65 70.6 3.45 70.15 3.95 69.95 3.75 69.65 3.7 69.5 3.5 Q69.35 3.2 69.35 2.15 L69.35 1.1 69.2 -0.05 68.6 -0.75 Q67.75 -1.35 66.65 -1.35 L66.5 -1.85 65.95 -2.2 65.5 -2.05 65.05 -1.55 64.55 -0.95 64.0 -0.7 63.8 -0.55 M62.65 3.5 L62.5 3.25 62.25 2.3 Q62.25 1.5 62.9 0.85 L63.05 0.75 63.2 1.05 Q63.45 1.25 63.75 1.25 64.4 1.25 65.05 0.35 L65.45 -0.1 65.5 -0.1 66.0 -0.15 66.05 -0.15 66.3 0.1 66.45 1.05 66.3 1.0 Q65.95 1.0 65.7 1.25 L65.5 1.6 Q63.95 1.7 63.15 2.5 62.7 2.95 62.65 3.5 M72.35 -3.3 L71.8 -4.0 71.35 -4.35 71.25 -4.75 Q71.25 -5.15 71.6 -5.45 L72.8 -5.95 74.2 -6.25 75.45 -6.4 Q76.05 -6.4 76.05 -5.65 L76.0 -4.5 75.85 -1.95 75.85 0.55 75.9 2.5 76.3 2.9 76.7 3.15 76.8 3.45 76.6 3.95 76.1 4.25 75.9 4.3 75.55 3.9 75.5 2.2 75.5 0.05 75.6 -2.2 75.7 -3.2 Q75.7 -3.9 75.15 -3.9 L74.05 -3.75 72.85 -3.5 72.35 -3.3 M72.2 4.25 L72.1 4.2 Q71.8 4.1 71.65 3.85 L71.45 3.4 71.55 3.15 72.0 2.9 72.35 2.15 72.5 -0.65 72.55 1.1 72.45 3.6 72.2 4.25 M86.9 -3.4 L87.15 -3.75 87.7 -4.75 87.6 -5.15 Q87.45 -5.35 87.45 -5.5 87.45 -6.1 88.1 -6.35 L90.25 -6.55 92.0 -6.4 Q92.7 -6.2 92.7 -5.6 L92.6 -5.1 Q92.45 -4.9 92.2 -4.85 L91.45 -4.8 90.85 -4.7 90.3 -4.3 90.0 -4.0 88.2 -3.8 Q87.65 -3.6 87.65 -3.1 L87.75 -2.8 87.9 -2.4 87.35 -1.55 86.8 -0.85 Q86.65 -0.7 86.45 -0.7 86.2 -0.7 86.2 -1.3 L86.3 -2.0 86.5 -2.45 86.9 -2.8 86.95 -3.15 86.9 -3.4 M89.7 -1.55 L92.4 1.65 92.95 2.2 93.4 2.45 94.0 2.85 94.2 3.4 Q94.2 4.1 93.35 4.25 L92.85 3.9 92.45 3.65 92.0 3.15 89.45 0.2 89.1 -0.25 89.0 -0.6 89.4 -1.3 89.7 -1.55 M86.4 2.7 L86.55 2.75 Q86.95 3.05 86.95 3.45 L86.65 4.0 Q86.35 3.75 86.35 3.15 L86.4 2.7 M82.4 4.35 L81.85 4.25 81.4 3.95 81.2 3.5 Q81.2 3.05 81.7 2.75 L82.0 2.45 82.15 1.9 82.3 -0.8 82.3 -2.65 82.5 -2.45 82.85 -2.15 83.0 -1.7 83.15 1.0 83.0 3.4 82.85 3.9 82.6 4.15 82.4 4.35 M82.25 -3.4 L82.15 -3.9 82.0 -4.45 81.6 -4.8 Q81.15 -5.05 81.15 -5.5 81.15 -5.85 81.45 -6.1 L82.3 -6.4 84.3 -6.6 86.15 -6.35 Q86.65 -6.1 86.65 -5.55 L86.6 -5.2 86.15 -4.8 85.95 -4.25 85.85 -3.95 84.9 -4.0 83.15 -3.9 82.35 -3.6 82.25 -3.4 M99.55 -1.2 L99.3 -1.85 98.65 -2.1 Q98.2 -2.1 97.95 -1.8 L97.75 -1.25 97.0 -1.05 Q96.1 -0.65 95.5 0.1 94.85 1.0 94.8 2.1 94.45 1.35 94.45 0.5 94.45 -0.8 95.25 -1.85 95.95 -2.75 97.0 -3.2 L98.75 -3.55 Q100.2 -3.55 101.25 -2.7 L102.1 -1.7 102.45 -0.4 102.25 0.45 Q102.05 0.75 101.7 0.75 L101.45 0.25 100.75 -0.6 99.55 -1.2 M103.95 -1.1 L103.75 -1.4 103.1 -1.75 102.8 -2.0 102.7 -2.35 Q102.7 -3.05 104.1 -3.3 L106.2 -3.5 107.5 -3.3 Q108.15 -3.1 108.15 -2.55 L107.95 -2.1 107.8 -1.65 107.85 -1.25 108.2 -0.55 108.7 0.0 108.9 0.5 108.65 1.3 108.25 1.7 107.75 1.25 107.45 0.65 107.4 0.3 107.55 -0.1 107.7 -0.5 Q107.7 -0.95 107.15 -1.15 L106.0 -1.3 104.15 -1.15 103.95 -1.1 M109.5 -1.25 L109.5 -1.4 109.3 -2.0 Q109.0 -2.35 109.0 -2.6 109.0 -3.0 109.55 -3.25 L110.95 -3.5 Q112.6 -3.5 112.6 -2.7 L112.45 -2.2 111.85 -1.9 111.25 -1.4 111.1 -1.15 110.15 -1.3 109.5 -1.25 M110.35 0.6 L109.4 3.15 108.7 4.85 108.8 4.5 109.7 2.0 Q110.05 1.05 110.35 0.6 M103.15 6.0 Q102.9 5.65 102.9 5.15 102.9 4.55 103.3 4.15 103.65 3.75 104.2 3.75 104.8 3.75 105.15 4.15 L105.35 4.45 105.5 5.0 105.9 5.35 106.15 5.3 106.25 5.8 106.1 6.25 105.75 6.4 105.4 6.1 105.25 5.6 105.1 5.35 Q104.8 5.0 104.3 5.0 103.8 5.0 103.45 5.35 L103.15 6.0 M124.8 -1.2 L125.1 -0.85 125.9 -0.55 Q126.35 -0.55 126.65 -0.9 L126.85 -1.25 128.3 -1.05 Q129.15 -0.8 129.15 -0.1 L128.95 0.4 128.45 0.65 128.1 0.75 127.9 1.15 Q127.7 0.9 127.35 0.8 L125.4 0.6 124.3 0.7 124.25 0.65 123.8 0.65 123.25 0.45 123.05 -0.1 Q123.05 -0.75 123.9 -1.0 L124.8 -1.2 M126.85 -2.6 L126.4 -3.45 125.65 -3.9 125.4 -3.85 125.05 -3.75 Q124.2 -4.75 123.1 -4.75 122.1 -4.75 121.5 -4.0 L121.45 -3.95 120.1 -3.5 Q118.8 -2.85 118.1 -1.65 117.45 -0.55 117.45 0.7 L117.5 1.15 Q117.0 0.05 117.0 -1.2 117.0 -2.6 117.75 -3.85 118.55 -5.25 120.0 -6.0 121.3 -6.65 122.9 -6.65 L124.85 -6.35 125.4 -6.2 126.05 -6.4 126.4 -6.45 Q126.85 -6.45 127.25 -5.95 127.85 -5.1 127.85 -4.1 L127.55 -3.05 126.85 -2.6 M126.95 2.95 L127.0 2.75 127.15 2.4 127.45 2.3 126.95 2.95 M122.85 2.05 L122.95 2.1 Q123.1 2.3 123.4 2.3 L123.8 2.3 123.95 2.4 124.15 2.85 123.9 3.45 123.35 3.7 122.45 3.45 121.7 2.75 Q120.85 1.6 120.85 0.0 120.85 -0.55 121.0 -0.95 121.15 0.25 121.85 1.2 L122.75 1.95 122.85 2.05 M132.0 -1.15 L130.8 -0.7 130.6 -0.55 130.25 -0.8 Q130.0 -1.0 130.0 -1.4 L130.3 -2.15 131.1 -2.8 Q132.5 -3.55 134.05 -3.55 135.4 -3.55 136.35 -2.85 L137.05 -2.0 137.25 -0.7 137.25 0.45 Q137.25 1.65 137.4 2.0 L137.6 2.25 137.9 2.35 138.15 2.65 137.85 3.45 137.1 4.1 136.95 4.2 136.95 4.05 136.75 3.75 136.45 3.7 136.3 3.5 Q136.15 3.2 136.15 2.15 L136.15 1.1 136.0 -0.05 135.4 -0.75 Q134.75 -1.2 133.9 -1.3 L133.75 -1.85 Q133.55 -2.2 133.2 -2.2 L132.75 -2.05 132.3 -1.55 132.0 -1.15 M130.0 1.05 L130.55 1.25 Q131.2 1.25 131.85 0.35 L132.2 -0.05 132.9 -0.1 133.1 0.1 133.25 1.05 Q133.1 1.1 132.95 1.25 L132.75 1.6 132.65 1.6 Q130.85 1.6 129.95 2.5 L129.6 2.95 129.5 2.3 Q129.5 1.6 130.0 1.05 M142.05 -3.45 L142.55 -3.5 Q143.0 -3.5 143.0 -3.0 L143.0 1.55 143.1 2.35 143.5 2.8 143.8 3.1 143.9 3.4 Q143.9 4.05 142.8 4.3 L142.65 4.2 142.3 3.8 142.2 3.1 142.2 -0.9 Q142.2 -1.3 141.85 -1.3 L140.5 -1.1 139.45 -0.8 139.0 -1.3 Q138.5 -1.5 138.5 -1.95 L138.55 -2.15 138.8 -1.95 139.6 -1.75 Q140.8 -1.75 141.6 -2.25 142.15 -2.55 142.15 -3.05 L142.05 -3.45 M138.9 4.05 L138.7 3.9 138.55 3.45 138.65 3.15 139.05 2.75 139.15 2.7 139.1 3.65 138.9 4.05 M138.65 -4.95 Q138.65 -5.65 139.6 -6.0 L141.45 -6.4 142.5 -6.15 Q142.9 -5.9 142.9 -5.5 142.9 -4.85 142.3 -4.5 141.35 -3.95 140.0 -3.95 139.45 -3.95 139.1 -4.2 138.65 -4.45 138.65 -4.95 M145.1 -0.6 L145.0 -0.9 144.55 -1.3 Q144.2 -1.5 144.2 -1.85 144.2 -2.15 144.5 -2.35 L145.6 -2.85 147.05 -3.3 148.0 -3.5 148.4 -3.3 148.55 -2.9 148.55 -2.7 148.55 -2.6 Q148.55 -2.2 148.85 -2.2 149.05 -2.2 149.25 -2.5 149.95 -3.5 151.2 -3.5 152.2 -3.5 152.9 -2.95 L153.6 -2.1 153.8 -0.65 153.95 2.1 154.05 2.55 154.5 3.15 154.65 3.5 Q154.65 4.0 154.0 4.2 L153.2 4.35 152.9 3.95 152.8 3.55 152.7 1.15 152.5 -0.1 151.9 -0.85 Q151.25 -1.3 150.4 -1.3 L149.7 -1.2 149.5 -1.2 Q148.95 -1.2 148.8 -0.85 L148.65 -0.4 148.35 -0.2 Q148.1 -0.2 148.1 -0.55 L148.1 -0.65 148.1 -0.8 147.95 -1.15 147.6 -1.3 146.8 -1.15 145.5 -0.75 145.1 -0.6 M148.6 0.75 L148.6 1.9 148.65 2.55 149.05 3.2 149.1 3.5 Q149.1 4.0 148.45 4.2 L148.3 4.25 148.15 3.95 148.1 3.4 148.1 2.05 Q148.1 1.25 148.3 0.95 148.4 0.8 148.6 0.75 M144.85 4.2 Q144.3 3.95 144.3 3.5 L144.35 3.25 144.7 2.95 144.95 2.6 145.05 1.65 145.0 3.2 144.95 4.0 144.85 4.2 M155.1 0.85 L155.05 0.5 Q155.05 -0.8 155.85 -1.85 156.55 -2.75 157.6 -3.2 L159.35 -3.55 Q160.8 -3.55 161.85 -2.7 L162.7 -1.7 Q163.05 -1.05 163.05 -0.4 L162.85 0.45 162.3 0.75 161.7 0.75 161.45 0.25 160.75 -0.6 160.15 -1.0 160.15 -1.15 159.9 -1.85 159.25 -2.1 Q158.8 -2.1 158.55 -1.8 L158.4 -1.35 157.0 -1.05 Q156.1 -0.65 155.5 0.1 L155.1 0.85 M161.75 1.85 L162.15 1.7 162.55 1.95 162.75 2.45 Q162.75 3.0 162.05 3.55 L161.5 3.9 161.5 3.85 161.3 3.4 161.0 3.2 160.6 3.35 159.95 3.7 159.2 3.8 Q158.65 3.8 158.2 3.4 157.7 3.0 157.7 2.55 L157.9 2.4 161.15 2.4 161.6 2.1 161.75 1.85 M163.55 0.6 L163.55 0.45 Q163.55 -0.65 164.15 -1.65 164.75 -2.6 165.7 -3.1 L167.3 -3.55 168.3 -3.4 168.25 -3.4 Q167.3 -3.15 167.3 -2.65 167.3 -2.3 167.7 -2.15 L168.15 -1.9 168.25 -1.8 167.7 -1.3 167.6 -1.1 166.45 -1.35 165.05 -1.0 Q164.2 -0.55 163.7 0.3 L163.55 0.6 M169.35 -3.7 L169.35 -3.75 169.25 -4.15 168.75 -4.45 Q168.25 -4.6 168.25 -5.0 168.25 -5.55 169.4 -5.85 L172.05 -6.45 Q172.75 -6.45 172.75 -5.8 L172.75 1.35 172.8 2.15 173.05 2.45 173.45 2.8 173.55 3.15 Q173.55 3.8 172.3 4.1 L171.85 4.2 171.5 3.9 171.25 3.6 171.2 2.9 171.2 -3.35 Q171.2 -3.9 170.6 -3.9 L169.35 -3.7 M176.5 0.05 L176.55 -0.2 176.8 -1.7 Q176.8 -2.75 176.25 -3.35 L175.2 -3.8 174.4 -3.55 174.35 -4.05 Q174.35 -4.95 174.75 -5.55 175.25 -6.3 176.15 -6.3 176.85 -6.3 177.35 -5.8 178.0 -5.15 178.0 -3.95 L177.7 -2.25 Q177.45 -1.3 177.0 -0.6 L176.5 0.05 M174.9 1.7 L175.2 1.9 175.9 1.2 175.95 1.15 176.2 1.1 Q176.9 1.1 177.35 1.6 177.85 2.1 177.85 2.75 177.85 3.45 177.35 3.95 L176.7 4.4 176.7 4.15 Q176.7 3.55 176.25 3.1 175.85 2.65 175.25 2.65 L174.45 2.9 174.45 2.75 Q174.45 2.15 174.9 1.7 M167.35 0.15 L167.3 0.55 Q167.3 1.65 167.65 2.15 L168.25 2.55 168.05 3.45 Q167.85 3.95 167.4 3.95 167.0 3.95 166.75 3.65 166.45 3.15 166.45 2.25 166.45 1.2 166.8 0.6 L167.35 0.15 M159.2 0.75 L158.65 0.75 Q158.4 0.75 158.4 0.95 L158.45 1.1 158.1 1.1 157.75 1.05 157.65 0.75 157.85 0.15 158.45 -0.15 159.0 0.1 159.2 0.7 159.2 0.75 M133.2 2.75 L133.3 3.25 Q133.3 4.15 132.75 4.15 132.45 4.15 132.3 3.95 L132.15 3.45 Q132.15 3.1 132.4 2.85 132.6 2.6 132.9 2.6 L133.2 2.75 M101.75 1.8 L101.95 1.95 102.15 2.45 Q102.15 3.0 101.45 3.55 L101.45 3.6 101.3 3.4 101.0 3.2 100.6 3.35 99.95 3.7 99.2 3.8 Q98.65 3.8 98.2 3.4 97.7 3.0 97.7 2.55 L97.9 2.4 101.15 2.4 101.6 2.1 101.75 1.8 M97.8 1.1 L97.75 1.05 97.65 0.75 97.85 0.15 98.45 -0.15 99.0 0.1 99.2 0.7 99.2 0.75 98.05 0.75 Q97.8 0.75 97.8 0.95 L97.8 1.1 M66.35 2.7 L66.4 2.75 66.5 3.25 Q66.5 4.15 65.95 4.15 L65.5 3.95 65.35 3.45 Q65.35 3.1 65.6 2.85 L65.8 2.7 66.1 2.75 66.35 2.7 M43.05 1.1 L42.85 1.05 42.75 0.75 42.95 0.15 43.55 -0.15 44.1 0.1 44.3 0.7 44.3 0.75 43.3 0.75 Q43.05 0.75 43.05 0.95 L43.05 1.1 M35.15 2.05 L35.15 2.3 Q35.15 3.85 34.2 3.85 L33.7 3.7 Q33.55 3.6 33.55 3.35 L33.55 3.15 33.6 2.1 33.8 2.25 34.35 2.4 Q34.85 2.4 35.15 2.05" fill="#000000" fill-rule="evenodd" stroke="none"/>
    <path d="M19.85 -1.05 L20.1 -2.1 20.9 -3.1 Q21.9 -3.9 23.25 -4.0 L23.7 -4.05 25.55 -3.7 25.75 -3.7 26.1 -3.75 26.2 -3.8 26.4 -3.85 27.4 -3.1 27.5 -2.95 Q27.9 -2.35 27.9 -1.75 L27.8 -1.25 27.65 -1.1 Q27.45 -0.85 27.1 -0.85 L26.65 -0.95 25.9 -1.6 Q25.1 -2.35 24.3 -2.35 L23.7 -2.15 23.45 -1.7 Q23.45 -1.1 24.5 -0.8 L26.3 -0.2 Q28.05 0.65 28.05 2.3 L28.05 2.4 Q28.0 3.8 26.85 4.7 25.65 5.65 23.7 5.65 L21.85 5.45 20.45 4.95 Q20.1 4.7 19.85 4.0 L19.75 3.6 19.6 2.55 19.7 2.05 20.15 1.85 20.65 2.1 21.3 3.05 Q21.6 3.45 22.15 3.7 L23.25 3.95 24.1 3.75 24.4 3.3 24.15 2.8 23.5 2.5 23.35 2.45 21.85 1.85 20.9 1.25 Q19.85 0.25 19.85 -0.95 L19.85 -1.05 M38.35 2.95 Q38.1 4.0 37.25 4.75 36.4 5.65 35.25 5.65 L34.05 5.35 33.95 5.35 33.85 5.3 Q33.65 5.3 33.65 5.7 33.65 6.25 34.0 6.5 L34.3 6.7 34.4 6.8 34.45 7.05 34.0 7.7 32.7 7.9 Q31.25 7.9 30.1 7.3 29.55 7.0 29.55 6.6 L29.6 6.35 29.65 6.25 29.95 6.05 30.4 5.45 30.5 3.0 30.4 1.1 30.3 1.0 30.15 0.95 30.0 0.9 29.6 0.75 29.5 0.35 29.7 -0.15 30.05 -0.4 30.3 -0.55 Q32.0 -1.3 32.95 -1.3 L33.5 -1.25 33.6 -0.9 33.7 -0.65 33.75 -0.65 34.2 -0.9 34.75 -1.15 34.95 -1.25 35.8 -1.35 Q36.65 -1.35 37.35 -0.75 L38.15 0.4 38.45 1.95 38.35 2.95 M39.95 1.8 Q40.05 0.9 40.6 0.1 41.2 -0.65 42.1 -1.05 L43.05 -1.3 43.6 -1.35 44.8 -1.15 45.85 -0.6 46.55 0.25 46.8 0.75 46.9 1.4 46.9 1.7 46.7 2.1 46.25 2.4 43.0 2.4 42.8 2.55 Q42.8 3.0 43.3 3.4 43.75 3.8 44.3 3.8 L45.05 3.7 45.7 3.35 Q45.95 3.2 46.1 3.2 L46.4 3.4 46.55 3.65 46.6 3.85 Q46.6 4.35 46.0 4.8 44.9 5.65 43.45 5.65 42.05 5.65 41.05 4.8 40.6 4.4 40.3 3.8 39.9 3.05 39.9 2.2 L39.95 1.8 M52.0 -1.35 L52.2 -1.35 53.2 -1.25 54.35 -0.75 Q55.0 -0.35 55.2 0.25 L55.25 0.7 54.8 1.65 54.65 1.8 Q54.35 2.0 53.9 2.0 L53.8 2.0 53.05 1.6 52.8 0.95 Q52.6 0.35 52.1 0.35 51.85 0.35 51.7 0.5 L51.45 0.7 Q51.2 1.0 51.2 1.5 51.2 2.3 51.8 2.95 52.25 3.45 53.0 3.45 L53.55 3.4 54.15 3.15 54.4 3.1 54.8 3.35 54.95 3.75 54.95 3.85 54.7 4.5 54.05 5.1 Q53.15 5.65 51.95 5.65 50.55 5.65 49.55 4.8 48.3 3.8 48.3 2.15 L48.35 1.6 Q48.5 0.4 49.45 -0.4 50.55 -1.3 52.0 -1.35 M60.25 -3.45 L60.4 -3.05 Q60.4 -2.55 59.85 -2.25 59.05 -1.75 57.85 -1.75 L57.05 -1.95 56.7 -2.4 56.65 -2.6 Q56.65 -3.2 57.5 -3.55 L59.1 -3.9 60.05 -3.65 60.25 -3.45 M57.45 -0.7 L58.75 -1.1 60.1 -1.3 Q60.45 -1.3 60.45 -0.9 L60.45 3.1 60.55 3.8 60.9 4.2 60.95 4.25 61.2 4.45 61.25 4.7 Q61.25 5.6 59.0 5.6 L57.1 5.4 Q56.85 5.35 56.7 5.15 L56.55 4.75 56.65 4.5 57.05 4.15 57.35 3.65 57.4 2.6 57.4 2.2 57.4 1.75 57.35 1.0 56.95 0.6 56.55 0.05 Q56.55 -0.4 57.1 -0.6 L57.45 -0.7 M70.15 3.95 L70.15 4.05 69.9 4.75 69.2 5.35 68.15 5.65 Q67.4 5.65 67.0 5.15 L66.75 4.95 66.35 5.15 Q65.7 5.65 64.8 5.65 63.9 5.65 63.35 5.25 L62.8 4.6 62.6 3.75 62.65 3.5 Q62.7 2.95 63.15 2.5 63.95 1.7 65.5 1.6 L65.85 1.6 66.35 1.55 66.45 1.15 66.45 1.05 66.3 0.1 66.05 -0.15 65.8 -0.2 65.5 -0.1 65.45 -0.1 65.05 0.35 Q64.4 1.25 63.75 1.25 63.45 1.25 63.2 1.05 L63.05 0.75 63.0 0.5 63.25 -0.15 63.8 -0.55 64.0 -0.7 64.55 -0.95 66.55 -1.35 66.65 -1.35 Q67.75 -1.35 68.6 -0.75 L69.2 -0.05 69.35 1.1 69.35 2.15 Q69.35 3.2 69.5 3.5 L69.65 3.7 69.95 3.75 70.15 3.95 M75.9 4.3 L76.25 4.5 76.3 4.75 76.15 5.2 75.75 5.45 74.05 5.6 72.2 5.4 71.8 5.1 71.65 4.7 71.75 4.45 72.1 4.25 72.2 4.25 72.45 3.6 72.55 1.1 72.5 -0.65 72.45 -1.05 72.0 -1.75 71.6 -2.1 71.5 -2.45 Q71.5 -2.75 71.8 -3.0 L72.35 -3.3 72.85 -3.5 74.05 -3.75 75.15 -3.9 Q75.7 -3.9 75.7 -3.2 L75.6 -2.2 75.5 0.05 75.5 2.2 75.55 3.9 75.9 4.3 M90.0 -4.0 L90.05 -4.0 91.65 -3.9 Q92.25 -3.7 92.25 -3.15 L92.1 -2.75 91.8 -2.5 91.15 -2.45 90.6 -2.35 90.15 -2.0 89.7 -1.55 89.4 -1.3 89.0 -0.6 89.1 -0.25 89.45 0.2 92.0 3.15 92.45 3.65 92.85 3.9 93.35 4.25 93.5 4.75 Q93.5 5.45 92.5 5.45 L89.9 5.45 89.5 5.35 89.0 4.75 87.6 3.1 87.05 2.55 86.75 2.4 Q86.5 2.4 86.4 2.7 L86.35 3.15 Q86.35 3.75 86.65 4.0 L86.85 4.15 87.2 4.75 Q87.2 5.2 86.6 5.4 L84.6 5.6 82.75 5.45 82.35 5.2 82.2 4.8 82.4 4.35 82.6 4.15 82.85 3.9 83.0 3.4 83.15 1.0 83.0 -1.7 82.85 -2.15 82.5 -2.45 82.3 -2.65 82.15 -3.05 82.25 -3.4 82.35 -3.6 83.15 -3.9 84.9 -4.0 85.85 -3.95 86.5 -3.8 86.9 -3.4 86.95 -3.15 86.9 -2.8 86.5 -2.45 86.3 -2.0 86.2 -1.3 Q86.2 -0.7 86.45 -0.7 86.65 -0.7 86.8 -0.85 L87.35 -1.55 87.9 -2.4 87.75 -2.8 87.65 -3.1 Q87.65 -3.6 88.2 -3.8 L90.0 -4.0 M97.75 -1.25 L98.5 -1.35 99.55 -1.2 100.75 -0.6 101.45 0.25 101.7 0.75 101.8 1.4 101.75 1.8 101.6 2.1 101.15 2.4 97.9 2.4 97.7 2.55 Q97.7 3.0 98.2 3.4 98.65 3.8 99.2 3.8 L99.95 3.7 100.6 3.35 101.0 3.2 101.3 3.4 101.45 3.6 101.5 3.85 Q101.5 4.35 100.9 4.8 99.8 5.65 98.35 5.65 96.95 5.65 95.95 4.8 95.5 4.4 95.2 3.8 94.8 3.05 94.8 2.2 L94.8 2.1 Q94.85 1.0 95.5 0.1 96.1 -0.65 97.0 -1.05 L97.75 -1.25 M108.7 0.0 L108.45 -0.55 Q108.45 -0.9 108.9 -1.1 L109.5 -1.25 110.15 -1.3 111.1 -1.15 Q111.6 -1.0 111.6 -0.6 L111.45 -0.2 110.95 0.1 Q110.6 0.2 110.4 0.5 L110.35 0.6 Q110.05 1.05 109.7 2.0 L108.8 4.5 108.7 4.85 108.65 4.9 108.15 6.0 107.4 7.0 Q106.5 7.85 105.25 7.85 104.25 7.85 103.6 7.3 103.1 6.9 103.1 6.25 L103.15 6.0 103.45 5.35 Q103.8 5.0 104.3 5.0 104.8 5.0 105.1 5.35 L105.25 5.6 105.4 6.1 105.75 6.4 106.1 6.25 106.25 5.8 106.15 5.3 105.9 4.7 104.25 1.2 103.85 0.5 103.3 0.2 103.05 -0.05 102.95 -0.35 Q102.95 -0.9 103.95 -1.1 L104.15 -1.15 106.0 -1.3 107.15 -1.15 Q107.7 -0.95 107.7 -0.5 L107.55 -0.1 107.4 0.3 107.45 0.65 107.75 1.25 108.25 1.7 108.65 1.3 108.9 0.5 108.7 0.0 M124.8 -1.2 L124.55 -1.5 Q123.8 -2.4 122.8 -2.4 121.9 -2.4 121.4 -1.75 L121.0 -0.95 Q120.85 -0.55 120.85 0.0 120.85 1.6 121.7 2.75 L122.45 3.45 123.35 3.7 123.9 3.45 124.15 2.85 123.95 2.4 123.8 2.3 123.4 2.3 Q123.1 2.3 122.95 2.1 L122.85 2.05 122.75 1.65 Q122.75 1.1 123.5 0.85 L124.3 0.7 125.4 0.6 127.35 0.8 Q127.7 0.9 127.9 1.15 L128.1 1.65 127.9 2.1 127.45 2.3 127.15 2.4 127.0 2.75 126.95 2.95 Q126.65 3.9 125.85 4.6 125.25 5.05 124.45 5.35 L122.7 5.65 Q121.2 5.65 119.95 4.95 118.65 4.25 118.0 3.0 117.55 2.1 117.5 1.15 L117.45 0.7 Q117.45 -0.55 118.1 -1.65 118.8 -2.85 120.1 -3.5 L121.45 -3.95 122.65 -4.05 124.3 -3.8 124.8 -3.7 125.05 -3.75 125.4 -3.85 125.65 -3.9 126.4 -3.45 126.85 -2.6 126.95 -1.85 126.85 -1.25 126.65 -0.9 Q126.35 -0.55 125.9 -0.55 L125.1 -0.85 124.8 -1.2 M130.6 -0.55 L130.8 -0.7 132.0 -1.15 133.35 -1.35 133.9 -1.3 Q134.75 -1.2 135.4 -0.75 L136.0 -0.05 136.15 1.1 136.15 2.15 Q136.15 3.2 136.3 3.5 L136.45 3.7 136.75 3.75 136.95 4.05 136.95 4.2 136.7 4.75 136.0 5.35 134.95 5.65 Q134.2 5.65 133.8 5.15 L133.55 4.95 133.15 5.15 Q132.5 5.65 131.6 5.65 130.7 5.65 130.15 5.25 L129.6 4.6 129.4 3.75 129.6 2.95 129.95 2.5 Q130.85 1.6 132.65 1.6 L132.75 1.6 133.15 1.55 133.25 1.15 133.25 1.05 133.1 0.1 132.9 -0.1 132.6 -0.2 132.25 -0.1 132.2 -0.05 131.85 0.35 Q131.2 1.25 130.55 1.25 L130.0 1.05 129.8 0.5 Q129.8 0.2 130.05 -0.15 L130.6 -0.55 M138.55 -2.15 Q138.4 -2.35 138.4 -2.6 138.4 -3.2 139.25 -3.55 L140.85 -3.9 141.8 -3.65 142.05 -3.45 142.15 -3.05 Q142.15 -2.55 141.6 -2.25 140.8 -1.75 139.6 -1.75 L138.8 -1.95 138.55 -2.15 M142.8 4.3 L142.95 4.45 143.0 4.7 Q143.0 5.6 140.75 5.6 L138.85 5.4 Q138.6 5.35 138.45 5.15 L138.3 4.75 138.4 4.5 138.8 4.15 138.9 4.05 139.1 3.65 139.15 2.7 139.15 2.6 139.15 1.75 139.1 1.0 138.7 0.6 138.3 0.05 Q138.3 -0.4 138.85 -0.6 L139.45 -0.8 140.5 -1.1 141.85 -1.3 Q142.2 -1.3 142.2 -0.9 L142.2 3.1 142.3 3.8 142.65 4.2 142.8 4.3 M145.05 1.65 L145.05 1.55 145.0 0.95 144.6 0.6 144.3 0.15 144.55 -0.3 145.1 -0.6 145.5 -0.75 146.8 -1.15 147.6 -1.3 147.95 -1.15 148.1 -0.8 148.1 -0.65 148.1 -0.55 Q148.1 -0.2 148.35 -0.2 L148.65 -0.4 148.7 -0.45 Q149.1 -1.0 149.7 -1.2 L150.4 -1.3 Q151.25 -1.3 151.9 -0.85 L152.5 -0.1 152.7 1.15 152.8 3.55 152.9 3.95 153.2 4.35 153.3 4.45 153.4 4.8 Q153.4 5.25 152.85 5.4 L150.95 5.6 149.6 5.4 Q149.2 5.25 149.2 4.85 L149.25 4.65 149.5 4.35 Q149.8 4.05 149.8 2.45 L149.55 1.05 148.9 0.7 148.6 0.75 Q148.4 0.8 148.3 0.95 148.1 1.25 148.1 2.05 L148.1 3.4 148.15 3.95 148.3 4.25 148.5 4.55 148.6 4.8 Q148.6 5.2 148.0 5.4 L146.25 5.6 Q144.35 5.6 144.35 4.8 L144.45 4.55 144.7 4.3 144.85 4.2 144.95 4.0 145.0 3.2 145.05 1.65 M161.7 0.75 L161.8 1.4 161.75 1.85 161.6 2.1 161.15 2.4 157.9 2.4 157.7 2.55 Q157.7 3.0 158.2 3.4 158.65 3.8 159.2 3.8 L159.95 3.7 160.6 3.35 161.0 3.2 161.3 3.4 161.5 3.85 161.5 3.9 160.9 4.8 Q159.8 5.65 158.35 5.65 156.95 5.65 155.95 4.8 155.5 4.4 155.2 3.8 154.8 3.05 154.8 2.2 154.8 1.5 155.1 0.85 L155.5 0.1 Q156.1 -0.65 157.0 -1.05 L158.4 -1.35 158.5 -1.35 160.15 -1.0 160.75 -0.6 161.45 0.25 161.7 0.75 M163.55 0.6 L163.7 0.3 Q164.2 -0.55 165.05 -1.0 L166.45 -1.35 167.6 -1.1 167.85 -1.0 168.05 -0.95 Q168.25 -0.95 168.25 -1.55 L168.25 -1.8 168.15 -1.9 167.7 -2.15 Q167.3 -2.3 167.3 -2.65 167.3 -3.15 168.25 -3.4 L168.3 -3.4 169.35 -3.7 170.6 -3.9 Q171.2 -3.9 171.2 -3.35 L171.2 2.9 171.25 3.6 171.5 3.9 171.85 4.2 171.9 4.5 Q171.9 5.05 170.8 5.35 L168.85 5.6 168.55 5.55 168.45 5.2 168.2 4.85 167.85 5.05 Q167.15 5.65 166.3 5.65 165.25 5.65 164.4 4.85 L163.6 3.75 Q163.2 2.95 163.2 2.15 163.2 1.35 163.55 0.6 M174.4 -3.55 L175.2 -3.8 176.25 -3.35 Q176.8 -2.75 176.8 -1.7 L176.55 -0.2 176.5 0.05 175.95 1.15 175.9 1.2 175.2 1.9 174.9 1.7 174.4 1.0 Q174.05 0.35 173.85 -0.4 L173.6 -1.8 Q173.6 -2.6 173.95 -3.15 L174.4 -3.55 M174.45 2.9 L175.25 2.65 Q175.85 2.65 176.25 3.1 176.7 3.55 176.7 4.15 L176.7 4.4 176.25 5.2 175.2 5.65 Q174.6 5.65 174.2 5.25 173.75 4.8 173.75 4.15 173.75 3.55 174.15 3.15 L174.45 2.9 M168.25 2.55 L168.25 1.8 168.05 0.4 Q167.85 0.1 167.5 0.1 L167.35 0.15 166.8 0.6 Q166.45 1.2 166.45 2.25 166.45 3.15 166.75 3.65 167.0 3.95 167.4 3.95 167.85 3.95 168.05 3.45 L168.25 2.55 M159.2 0.75 L159.2 0.7 159.0 0.1 158.45 -0.15 157.85 0.15 157.65 0.75 157.75 1.05 158.1 1.1 158.45 1.1 158.8 1.1 159.2 0.75 M133.2 2.75 L132.9 2.6 Q132.6 2.6 132.4 2.85 132.15 3.1 132.15 3.45 L132.3 3.95 Q132.45 4.15 132.75 4.15 133.3 4.15 133.3 3.25 L133.2 2.75 M99.2 0.75 L99.2 0.7 99.0 0.1 98.45 -0.15 97.85 0.15 97.65 0.75 97.75 1.05 97.8 1.1 98.1 1.1 98.8 1.1 99.2 0.75 M65.8 2.7 L65.6 2.85 Q65.35 3.1 65.35 3.45 L65.5 3.95 65.95 4.15 Q66.5 4.15 66.5 3.25 L66.4 2.75 66.35 2.7 66.1 2.6 65.8 2.7 M44.3 0.75 L44.3 0.7 44.1 0.1 43.55 -0.15 42.95 0.15 42.75 0.75 42.85 1.05 43.05 1.1 43.2 1.1 43.9 1.1 44.3 0.75 M35.15 2.05 Q35.1 1.25 34.75 0.85 L34.15 0.6 Q33.7 0.6 33.65 1.25 L33.6 2.1 33.55 3.15 33.55 3.35 Q33.55 3.6 33.7 3.7 L34.2 3.85 Q35.15 3.85 35.15 2.3 L35.15 2.05" fill="#ffffff" fill-rule="evenodd" stroke="none"/>
    <path d="M12.55 -10.45 Q17.2 -13.2 18.95 -18.4 16.8 -15.95 14.45 -15.6 13.05 -15.4 12.35 -16.3 11.2 -18.4 8.9 -19.75 6.3 -21.2 3.7 -21.0 2.8 -24.5 4.55 -26.7 0.1 -24.1 -1.1 -18.15 L-1.15 -17.95 Q-2.35 -15.7 -1.3 -13.1 -0.75 -11.65 0.3 -10.5 L0.1 -10.6 -3.0 -4.4 Q-5.2 -2.25 -8.4 -2.7 -5.45 -0.3 -7.6 3.4 -11.2 9.0 -15.55 14.75 L-10.55 14.95 -4.15 20.15 -3.05 16.35 -6.8 15.3 Q-7.4 11.8 -3.65 11.15 L-1.15 12.95 1.95 10.25 -6.05 7.15 Q-0.45 -0.05 2.9 -8.5 5.55 -7.15 8.25 -7.6 11.15 -8.05 12.45 -10.35 L12.55 -10.45 M-1.05 -18.1 L-1.15 -17.95 M9.95 -14.95 Q10.55 -13.3 9.75 -11.9 8.95 -10.55 7.25 -10.25 5.5 -9.95 3.8 -10.9 2.1 -11.9 1.5 -13.55 0.85 -15.2 1.65 -16.55 2.45 -17.95 4.2 -18.25 5.9 -18.5 7.6 -17.5 9.3 -16.55 9.95 -14.95 Z" fill="none" stroke="#000000" stroke-linecap="round" stroke-linejoin="round" stroke-width="1.0"/>
    <path d="M-21.4 -2.45 L-21.5 -2.45 -21.3 -4.2 Q-21.3 -4.85 -21.75 -5.3 -22.2 -5.75 -22.85 -5.75 -24.1 -5.75 -24.55 -4.65 L-24.95 -2.45 -25.65 -2.45 -25.15 -5.05 Q-24.6 -6.4 -23.05 -6.4 -22.25 -6.4 -21.7 -5.85 -21.15 -5.3 -21.15 -4.5 L-21.4 -2.45 M-27.15 -2.3 L-27.25 -2.3 Q-28.45 -1.95 -28.45 -0.6 -28.45 0.6 -27.35 0.9 L-25.3 1.0 -25.45 2.7 -25.0 3.85 -23.9 4.3 Q-22.65 4.3 -22.2 3.15 L-21.85 1.0 -19.5 0.85 Q-18.35 0.45 -18.35 -1.0 -18.35 -1.95 -19.25 -2.3 L-18.95 -2.25 Q-17.55 -1.9 -17.55 -0.6 -17.55 1.2 -19.0 1.65 L-21.8 1.85 Q-22.05 3.9 -22.25 4.5 -22.8 5.9 -24.3 5.9 -25.2 5.9 -25.7 5.3 -26.25 4.75 -26.25 3.9 L-26.05 1.85 -28.55 1.7 Q-29.95 1.35 -29.95 -0.1 -29.95 -1.75 -28.45 -2.2 L-27.15 -2.3" fill="#000000" fill-rule="evenodd" stroke="none"/>
    <path d="M-25.65 -2.45 L-24.95 -2.45 -24.55 -4.65 Q-24.1 -5.75 -22.85 -5.75 -22.2 -5.75 -21.75 -5.3 -21.3 -4.85 -21.3 -4.2 L-21.5 -2.45 -21.4 -2.45 -19.45 -2.35 -19.25 -2.3 Q-18.35 -1.95 -18.35 -1.0 -18.35 0.45 -19.5 0.85 L-21.85 1.0 -22.2 3.15 Q-22.65 4.3 -23.9 4.3 L-25.0 3.85 -25.45 2.7 -25.3 1.0 -27.35 0.9 Q-28.45 0.6 -28.45 -0.6 -28.45 -1.95 -27.25 -2.3 L-27.15 -2.3 -25.65 -2.45" fill="#ffffff" fill-rule="evenodd" stroke="none"/>
  </g>
  <defs>
    <linearGradient gradientTransform="matrix(0.0026, 0.0015, -0.0031, 0.0053, 14.55, -15.15)" gradientUnits="userSpaceOnUse" id="gradient0" spreadMethod="pad" x1="-819.2" x2="819.2">
      <stop offset="0.0" stop-color="#212839"/>
      <stop offset="0.20784313725490197" stop-color="#6b8aad"/>
      <stop offset="0.40784313725490196" stop-color="#f4f4f4"/>
      <stop offset="0.592156862745098" stop-color="#637d9c"/>
      <stop offset="0.9607843137254902" stop-color="#101829"/>
    </linearGradient>
    <linearGradient gradientTransform="matrix(0.0062, 0.0072, -0.0183, 0.016, -2.05, -3.9)" gradientUnits="userSpaceOnUse" id="gradient1" spreadMethod="pad" x1="-819.2" x2="819.2">
      <stop offset="0.0" stop-color="#212839"/>
      <stop offset="0.20784313725490197" stop-color="#6b8aad"/>
      <stop offset="0.40784313725490196" stop-color="#f4f4f4"/>
      <stop offset="0.592156862745098" stop-color="#637d9c"/>
      <stop offset="0.9607843137254902" stop-color="#101829"/>
    </linearGradient>
    <linearGradient gradientTransform="matrix(0.0019, 0.0011, -0.0031, 0.0054, 2.25, -22.15)" gradientUnits="userSpaceOnUse" id="gradient2" spreadMethod="pad" x1="-819.2" x2="819.2">
      <stop offset="0.0" stop-color="#212839"/>
      <stop offset="0.20784313725490197" stop-color="#6b8aad"/>
      <stop offset="0.40784313725490196" stop-color="#f4f4f4"/>
      <stop offset="0.592156862745098" stop-color="#637d9c"/>
      <stop offset="0.9607843137254902" stop-color="#101829"/>
    </linearGradient>
    <linearGradient gradientTransform="matrix(0.002, 0.0012, -0.0028, 0.0048, -6.95, -1.45)" gradientUnits="userSpaceOnUse" id="gradient3" spreadMethod="pad" x1="-819.2" x2="819.2">
      <stop offset="0.0" stop-color="#212839"/>
      <stop offset="0.20784313725490197" stop-color="#6b8aad"/>
      <stop offset="0.40784313725490196" stop-color="#f4f4f4"/>
      <stop offset="0.592156862745098" stop-color="#637d9c"/>
      <stop offset="0.9607843137254902" stop-color="#101829"/>
    </linearGradient>
    <linearGradient gradientTransform="matrix(0.0045, 0.0026, -0.0035, 0.0061, -4.6, 13.1)" gradientUnits="userSpaceOnUse" id="gradient4" spreadMethod="pad" x1="-819.2" x2="819.2">
      <stop offset="0.0" stop-color="#212839"/>
      <stop offset="0.20784313725490197" stop-color="#6b8aad"/>
      <stop offset="0.40784313725490196" stop-color="#f4f4f4"/>
      <stop offset="0.592156862745098" stop-color="#637d9c"/>
      <stop offset="0.9607843137254902" stop-color="#101829"/>
    </linearGradient>
  </defs>
</svg>
