<?xml version="1.0" encoding="UTF-8" standalone="no"?>
<svg xmlns:xlink="http://www.w3.org/1999/xlink" height="46.0px" width="46.5px" xmlns="http://www.w3.org/2000/svg">
  <g transform="matrix(1.0, 0.0, 0.0, 1.0, 23.35, 23.15)">
    <path d="M22.65 -0.15 Q22.65 9.15 15.95 15.75 9.3 22.35 -0.1 22.35 -9.5 22.35 -16.2 15.75 -22.85 9.15 -22.85 -0.15 -22.85 -9.45 -16.2 -16.05 -9.5 -22.65 -0.1 -22.65 9.3 -22.65 15.95 -16.05 22.65 -9.45 22.65 -0.15 Z" fill="none" stroke="#000000" stroke-linecap="round" stroke-linejoin="round" stroke-width="1.0"/>
    <path d="M0.35 -12.95 L-1.35 -12.95 -1.35 -20.95 0.35 -20.95 0.35 -12.95 M4.4 -10.0 L0.3 -10.35 -5.1 -9.75 -5.1 -12.0 4.4 -12.0 4.4 -10.0 M4.25 20.25 L-2.75 20.25 -3.65 18.1 0.15 18.35 4.3 18.0 4.25 20.25" fill="#000000" fill-rule="evenodd" stroke="none"/>
    <path d="M4.2 -8.25 Q8.6 -7.45 12.0 -4.85 16.85 -1.15 16.85 4.15 16.85 9.45 12.0 13.2 8.6 15.8 4.2 16.55 L3.9 16.6 0.15 16.95 -3.3 16.7 -4.5 16.45 Q-8.55 15.6 -11.7 13.2 -16.6 9.45 -16.55 4.15 -16.6 -0.9 -12.15 -4.5 -11.75 -3.7 -11.7 -2.9 -14.85 0.1 -14.85 4.15 -14.85 8.9 -10.5 12.3 -7.65 14.45 -4.0 15.2 L-2.9 15.4 0.2 15.65 3.55 15.35 3.8 15.3 Q7.75 14.6 10.85 12.3 15.2 8.9 15.25 4.15 15.2 -0.65 10.85 -3.95 7.75 -6.3 3.85 -7.0 L0.2 -7.35 -4.6 -6.8 Q-7.4 -6.1 -9.75 -4.5 -10.7 -4.3 -11.75 -4.8 L-11.7 -4.85 Q-8.8 -7.1 -5.15 -8.0 L0.15 -8.6 4.2 -8.25 M-10.2 -3.5 L-8.65 -3.35 Q-7.9 -3.35 -5.85 -4.75 -8.7 -2.2 -6.4 0.8 -9.3 -1.45 -11.55 0.65 -10.6 -1.05 -10.65 -1.8 L-10.9 -3.1 Q-11.05 -3.65 -11.6 -4.2 -10.95 -3.7 -10.2 -3.5" fill="#000000" fill-rule="evenodd" stroke="none"/>
  </g>
</svg>
