<?xml version="1.0" encoding="UTF-8" standalone="no"?>
<svg xmlns:xlink="http://www.w3.org/1999/xlink" height="46.0px" width="46.5px" xmlns="http://www.w3.org/2000/svg">
  <g transform="matrix(1.0, 0.0, 0.0, 1.0, 23.25, 23.0)">
    <path d="M0.0 -22.5 Q9.4 -22.5 16.05 -15.9 22.75 -9.3 22.75 0.0 22.75 9.3 16.05 15.9 9.4 22.5 0.0 22.5 -9.4 22.5 -16.1 15.9 -22.75 9.3 -22.75 0.0 -22.75 -9.3 -16.1 -15.9 -9.4 -22.5 0.0 -22.5 Z" fill="none" stroke="#000000" stroke-linecap="round" stroke-linejoin="round" stroke-width="1.0"/>
    <path d="M4.4 -16.0 L2.65 -8.45 0.4 -8.95 Q0.65 -12.45 1.8 -16.55 L4.4 -16.0 M4.15 -19.8 L3.6 -16.95 2.9 -17.1 3.4 -19.95 4.15 -19.8" fill="#000000" fill-rule="evenodd" stroke="none"/>
    <path d="M-10.65 -1.8 L-11.0 -2.8 -11.15 -3.35 -9.1 -4.8 -8.65 -5.25 -8.65 -5.35 -8.6 -5.55 -8.35 -5.8 -7.8 -6.6 -6.75 -7.1 Q-5.95 -6.85 -5.15 -7.5 L-4.9 -7.6 -3.25 -7.85 -3.0 -7.4 -3.05 -7.2 -3.35 -6.35 Q-5.0 -5.35 -6.25 -3.85 L-6.25 -3.65 Q-6.25 -2.2 -5.4 -0.95 L-5.4 -0.9 -6.05 -1.45 Q-6.55 -1.95 -7.15 -1.75 L-9.15 -0.45 -9.4 -0.65 -9.7 -0.95 -10.65 -1.8 M1.55 17.7 L1.4 17.75 0.65 18.65 -0.35 18.65 -2.1 18.6 Q-3.4 17.65 -4.7 16.95 L-5.4 17.1 -5.4 16.95 -5.3 15.7 Q-3.9 15.65 -3.65 14.35 L-3.55 14.25 -1.0 14.15 -0.85 15.1 -0.25 15.95 Q0.6 16.65 1.7 16.95 L1.65 17.4 1.55 17.7 M0.2 3.95 Q0.4 4.35 0.9 4.4 L2.85 4.45 2.85 4.5 4.1 5.9 4.65 6.4 Q4.2 6.85 4.0 7.45 L4.05 7.85 4.75 9.1 4.75 9.2 4.75 9.3 4.7 9.4 Q4.35 10.05 3.5 10.0 L2.5 9.85 Q0.95 9.3 -0.25 10.2 L-0.3 10.95 -0.25 12.25 -0.9 13.45 -1.6 13.35 Q-2.8 13.25 -3.7 13.7 -3.9 12.95 -4.75 12.7 L-4.8 12.45 -4.8 11.95 -4.55 11.75 Q-3.9 11.55 -3.75 10.9 -3.3 9.4 -4.5 8.65 -4.4 8.25 -4.55 7.8 -5.05 6.15 -6.0 4.85 L-5.95 4.7 -5.35 3.75 -5.15 3.6 -4.5 3.35 Q-4.3 2.5 -3.4 2.4 L-3.2 1.95 Q-2.95 0.8 -1.7 1.05 L-1.65 1.55 -1.55 1.65 -1.35 1.7 -1.25 1.65 -1.15 1.6 -1.05 1.35 -0.9 1.55 0.2 3.95 M11.85 10.0 L12.15 10.0 12.7 10.9 12.55 10.95 Q11.35 11.45 11.65 12.65 L11.55 13.4 10.25 14.7 9.7 15.2 9.3 15.0 9.0 14.8 Q8.2 14.05 7.6 15.0 L7.6 15.1 7.6 15.3 7.1 15.85 Q6.75 16.9 5.45 16.65 L5.25 17.0 4.8 17.9 3.85 18.15 2.25 17.95 Q2.5 17.3 2.35 16.6 1.85 16.05 1.05 16.0 0.5 15.95 0.2 15.6 -0.65 14.45 -0.05 13.2 0.6 11.95 0.4 10.45 L0.5 10.35 1.8 10.55 Q4.0 11.25 5.35 9.6 L5.3 9.1 4.6 7.65 4.8 7.4 4.9 7.0 5.05 6.9 5.35 6.65 5.55 6.7 5.8 6.6 6.65 6.75 9.25 6.3 9.35 6.4 9.6 6.75 9.55 7.15 Q9.5 7.7 9.05 8.1 L9.05 8.2 8.85 8.55 8.85 8.75 8.85 9.0 9.3 9.5 9.35 9.6 9.5 10.05 11.85 10.0 M11.75 4.85 L12.6 4.1 12.8 4.1 13.5 4.15 13.6 4.0 14.3 2.95 14.35 3.25 14.55 3.6 14.65 4.4 14.6 4.4 Q14.0 4.7 13.85 5.4 13.25 5.95 13.6 6.7 14.05 7.7 14.0 8.75 13.95 9.85 13.25 10.5 L12.9 9.95 Q12.2 8.9 11.3 9.6 L10.15 9.6 10.1 9.55 9.95 9.35 9.95 9.25 9.95 9.2 Q9.8 8.85 9.45 8.8 L9.7 8.5 Q10.5 7.5 10.0 6.35 11.35 6.3 11.75 4.85 M10.3 3.5 L10.55 3.7 10.55 3.75 11.1 4.0 11.1 4.1 11.15 4.2 11.25 4.3 11.35 4.35 11.15 4.45 11.1 4.65 11.05 5.0 10.3 5.75 9.9 5.75 9.8 5.65 9.65 5.6 9.4 5.75 Q9.0 5.55 8.45 5.75 L6.15 6.1 Q5.6 5.7 4.85 5.85 L4.65 5.6 3.45 4.2 3.5 4.15 Q4.1 3.55 4.85 3.1 L6.5 2.95 Q8.05 2.75 8.75 1.5 L8.9 0.85 10.25 1.85 10.1 2.6 10.1 3.25 10.3 3.5 M8.2 -3.5 L9.15 -4.15 Q9.75 -3.7 10.6 -3.7 L11.2 -3.5 12.95 -1.15 12.85 -0.95 Q12.6 -0.4 13.0 0.1 L13.05 0.35 13.35 1.3 13.5 1.5 13.5 1.7 13.5 2.05 13.85 2.35 13.5 2.85 13.5 2.95 13.2 3.5 13.05 3.5 12.65 3.55 12.05 3.95 11.65 3.65 Q11.1 3.35 10.7 2.95 10.7 2.5 10.85 2.1 L10.85 1.75 Q10.15 0.4 8.55 0.25 L8.1 -0.05 Q7.85 -0.15 7.7 -0.4 7.0 -1.6 5.85 -2.3 L5.85 -2.4 5.9 -2.45 6.0 -2.5 6.15 -2.65 6.2 -2.75 6.05 -2.9 6.1 -3.0 7.4 -3.2 8.2 -3.5 M0.65 -3.8 L1.1 -4.25 1.25 -4.4 Q2.55 -2.4 4.85 -2.9 L5.25 -2.55 5.25 -2.4 5.3 -2.2 6.6 -0.8 6.6 -0.75 6.6 -0.65 6.65 -0.55 Q7.1 0.3 8.0 0.55 L8.1 0.65 8.15 0.65 8.25 0.95 Q8.1 1.8 7.3 2.15 L6.5 2.3 Q4.25 2.2 2.85 3.85 L2.85 3.95 0.85 3.7 0.75 3.5 -0.3 1.3 Q-0.55 0.8 -1.0 0.65 L-1.15 -0.05 -1.3 -0.45 -1.3 -0.55 -1.15 -0.65 -1.05 -0.75 Q0.0 -0.75 0.85 -1.3 1.35 -1.7 1.1 -2.2 0.7 -3.0 0.65 -3.8 M0.6 -6.45 L0.65 -6.6 0.95 -7.55 3.9 -7.75 4.2 -7.75 Q6.1 -7.25 7.8 -6.2 L8.75 -5.05 8.75 -4.95 8.75 -4.7 7.3 -3.75 Q6.2 -4.0 5.5 -3.25 L3.35 -3.5 3.2 -3.55 1.85 -4.65 1.85 -4.75 1.85 -4.8 1.8 -4.9 1.65 -5.0 Q1.55 -5.9 0.6 -6.45 M0.0 -7.0 L0.0 -6.7 0.0 -5.95 Q0.75 -5.7 1.0 -5.05 L0.9 -5.05 0.85 -5.0 0.6 -4.65 0.55 -4.55 0.1 -4.0 Q-0.1 -3.45 0.1 -2.9 L0.4 -2.4 0.5 -2.25 0.5 -2.15 0.5 -1.95 0.45 -1.85 0.1 -1.75 -0.25 -1.5 Q-1.25 -1.55 -1.9 -0.9 L-1.95 -0.3 -1.9 0.05 -1.8 0.15 -1.7 0.45 Q-3.35 0.2 -3.8 1.8 L-4.55 2.0 -4.6 2.05 -4.9 2.6 -4.95 2.8 -4.95 2.9 -5.05 2.95 -5.15 3.05 -5.35 2.95 -5.6 2.7 Q-5.85 2.15 -5.7 1.55 L-4.95 -0.45 Q-4.8 -0.7 -4.9 -0.95 -5.45 -2.2 -5.65 -3.6 L-3.85 -5.25 -2.85 -6.05 -2.55 -6.85 -2.65 -8.2 -0.5 -8.35 0.3 -7.75 0.0 -7.0 M-11.75 -2.9 Q-11.7 -1.25 -10.15 -0.65 L-10.1 -0.6 -10.05 -0.5 -9.95 -0.4 -9.95 -0.3 -9.9 -0.25 -9.7 0.0 -10.5 0.35 Q-11.85 1.25 -11.25 2.5 L-11.2 2.9 -11.15 3.1 -10.8 3.75 -10.55 4.6 Q-11.35 5.55 -12.6 5.05 L-12.7 4.75 -13.1 4.4 -13.4 3.95 -14.1 3.5 -14.1 3.15 -13.75 1.75 -13.55 1.45 -13.55 1.25 Q-13.55 0.85 -13.85 0.5 L-13.85 0.35 -13.4 -0.9 -13.1 -2.0 -11.95 -3.45 -11.75 -2.9 M-9.65 10.95 L-9.45 10.6 Q-9.2 9.85 -9.35 9.1 L-7.45 9.2 -6.65 9.7 -5.35 9.65 -4.75 9.2 -4.7 9.2 Q-4.25 9.65 -4.2 10.3 L-4.25 10.45 -5.4 11.6 -5.45 11.7 Q-5.75 13.15 -4.5 13.55 L-4.4 13.75 -4.35 13.95 -4.4 14.0 -4.4 14.2 -4.4 14.4 -4.3 14.45 -4.6 14.85 Q-5.35 14.85 -5.9 15.35 L-5.9 15.55 -5.95 16.4 -6.0 17.15 -7.4 17.1 -7.45 17.05 -7.8 16.55 -7.8 16.35 Q-7.9 15.55 -8.65 15.15 L-8.65 15.05 -8.65 14.85 -8.9 14.6 Q-9.15 14.4 -9.45 14.45 L-11.5 14.2 -12.1 13.55 -12.1 13.35 Q-11.7 12.95 -11.85 12.35 L-12.15 11.7 -11.95 11.5 -11.65 11.5 -11.25 11.8 Q-9.85 12.25 -9.65 10.95 M-9.9 8.95 L-9.9 9.1 Q-9.8 10.15 -10.25 11.1 L-10.6 11.25 -11.05 11.25 -11.3 11.05 -12.5 11.2 Q-13.0 10.6 -13.8 10.25 L-13.8 9.95 Q-13.75 9.6 -13.85 9.2 L-14.9 8.5 -15.35 5.3 -14.45 4.15 -14.1 4.25 -14.05 4.25 -13.95 4.4 -13.3 5.1 -13.25 5.2 -13.25 5.25 -13.05 5.45 Q-12.05 6.0 -11.15 5.8 L-10.65 6.25 -10.7 7.4 Q-10.8 8.65 -9.9 8.95 M-6.05 -0.65 L-5.65 -0.35 -6.4 1.0 Q-6.5 1.85 -6.25 2.6 L-5.9 3.35 Q-6.55 4.2 -6.65 5.25 L-6.4 5.6 Q-5.45 6.85 -5.0 8.35 L-5.5 9.1 -6.55 9.1 -7.0 8.7 -7.2 8.55 -9.05 8.35 -9.5 8.4 -9.55 8.4 -9.65 8.4 Q-9.7 8.3 -9.8 8.3 L-10.0 7.9 Q-9.75 6.5 -10.5 5.45 L-9.9 4.85 Q-9.85 4.3 -10.1 3.75 L-10.9 1.85 -10.75 1.6 Q-10.2 0.6 -9.1 0.5 L-8.95 0.35 -8.9 0.25 -8.9 0.2 -8.9 0.15 -7.35 -1.15 -7.0 -1.2 -6.65 -1.15 -6.05 -0.65" fill="#000000" fill-rule="evenodd" stroke="none"/>
  </g>
</svg>
