<?xml version="1.0" encoding="UTF-8" standalone="no"?>
<svg xmlns:xlink="http://www.w3.org/1999/xlink" height="46.0px" width="46.5px" xmlns="http://www.w3.org/2000/svg">
  <g transform="matrix(1.0, 0.0, 0.0, 1.0, 23.35, 23.15)">
    <path d="M22.65 -0.15 Q22.65 9.15 15.95 15.75 9.3 22.35 -0.1 22.35 -9.5 22.35 -16.2 15.75 -22.85 9.15 -22.85 -0.15 -22.85 -9.45 -16.2 -16.05 -9.5 -22.65 -0.1 -22.65 9.3 -22.65 15.95 -16.05 22.65 -9.45 22.65 -0.15 Z" fill="none" stroke="#000000" stroke-linecap="round" stroke-linejoin="round" stroke-width="1.0"/>
    <path d="M4.3 -4.9 Q-0.05 -6.15 -5.1 -4.5 L-5.1 -12.0 4.4 -12.0 4.3 -4.9 M0.35 -12.95 L-1.35 -12.95 -1.35 -20.95 0.35 -20.95 0.35 -12.95 M-4.65 12.65 Q0.0 14.35 4.4 12.75 L4.25 20.25 -2.75 20.25 Q-4.45 17.05 -4.65 12.65" fill="#000000" fill-rule="evenodd" stroke="none"/>
    <path d="M8.25 -1.25 Q11.55 0.95 11.55 4.1 11.55 7.25 8.25 9.45 4.95 11.65 0.3 11.65 -4.4 11.65 -7.7 9.45 -11.0 7.25 -10.95 4.1 -11.0 0.95 -7.7 -1.25 -4.4 -3.5 0.3 -3.45 4.95 -3.5 8.25 -1.25 M-7.8 10.5 Q-6.2 11.15 -5.4 12.15 -5.05 12.65 -5.4 13.15 -6.15 14.3 -5.7 16.15 -5.4 17.25 -5.75 18.35 L-5.85 18.45 -6.0 18.5 -6.1 18.5 Q-8.45 17.05 -7.4 15.05 -7.05 14.25 -7.4 13.25 L-7.35 13.25 -7.7 12.45 -7.8 13.2 -8.0 14.6 Q-8.1 15.25 -8.45 15.3 -8.75 15.45 -9.2 14.95 L-9.15 14.95 Q-9.8 14.25 -9.6 13.05 -9.4 11.7 -10.35 11.15 L-10.4 11.1 -10.9 10.3 -10.75 8.2 -10.65 8.05 -10.5 8.0 -10.35 8.05 -10.25 8.15 Q-9.45 9.7 -7.8 10.5 M-1.15 -0.4 L-1.2 -0.5 -2.0 -0.75 -2.65 -0.6 -3.65 -0.5 Q-6.25 0.05 -7.5 2.45 L-7.5 2.85 -7.35 3.2 -7.15 3.2 -6.75 2.8 Q-5.2 1.15 -3.0 0.3 -1.95 0.15 -1.15 -0.4 M9.25 16.65 L9.3 16.75 9.35 16.65 9.25 16.65 M11.45 7.8 Q12.25 8.45 11.8 9.85 11.2 11.55 11.55 13.45 11.8 14.7 11.55 15.1 11.35 15.4 11.0 15.4 10.7 15.35 10.35 15.1 L10.25 15.0 10.2 14.9 Q10.3 13.55 10.0 12.75 9.55 13.25 9.75 14.2 10.05 15.75 9.75 17.15 L9.65 17.3 9.5 17.35 Q8.9 17.3 8.75 16.8 L8.8 16.8 8.75 16.65 Q8.35 17.3 8.25 18.25 L7.95 18.75 7.4 18.75 6.7 18.2 Q6.55 17.8 6.8 17.25 L6.75 17.25 7.25 14.8 7.3 13.8 7.0 14.05 Q6.85 14.25 6.85 14.5 L6.85 14.55 6.45 15.65 6.35 15.75 6.2 15.75 6.05 15.65 Q5.35 14.8 5.5 13.5 L5.5 13.45 5.4 12.2 5.35 12.05 5.45 11.95 5.55 11.85 Q7.35 11.4 9.05 10.45 10.65 9.5 11.05 7.95 L11.15 7.8 11.3 7.75 11.45 7.8" fill="#000000" fill-rule="evenodd" stroke="none"/>
  </g>
</svg>
