<?xml version="1.0" encoding="UTF-8" standalone="no"?>
<svg xmlns:xlink="http://www.w3.org/1999/xlink" height="566.0px" width="574.65px" xmlns="http://www.w3.org/2000/svg">
  <g transform="matrix(1.0, 0.0, 0.0, 1.0, 362.2, 279.75)">
    <path d="M208.95 -209.0 L211.1 -207.65 211.7 -207.0 211.85 -205.5 211.7 -204.0 210.3 -202.7 208.95 -202.0 Q206.85 -202.15 205.95 -204.0 L205.95 -205.5 205.95 -207.0 206.5 -207.7 207.2 -208.5 208.95 -208.85 208.95 -209.0 M5.25 -273.75 L5.3 -273.0 5.0 -271.5 3.7 -270.85 Q2.85 -270.5 2.0 -270.25 1.1 -270.5 0.35 -270.95 L-0.25 -271.5 -0.5 -273.0 -0.25 -274.5 0.35 -275.05 Q1.1 -275.5 2.0 -275.75 L4.85 -274.3 5.25 -273.75 M69.7 -228.5 L71.9 -229.6 71.95 -229.75 Q74.0 -229.6 74.5 -227.75 L74.7 -227.0 Q74.5 -225.6 73.4 -224.9 72.7 -224.5 71.95 -224.25 L69.7 -225.5 Q69.45 -226.25 69.45 -227.0 69.45 -227.75 69.7 -228.5 M94.95 -211.25 L97.4 -209.85 97.95 -209.25 Q97.65 -202.4 91.95 -206.75 L91.8 -207.5 91.7 -209.0 92.25 -209.7 92.95 -210.5 93.75 -210.9 94.95 -211.25 M92.95 -104.0 L91.7 -105.25 92.3 -105.85 92.95 -106.0 93.45 -106.0 94.2 -105.25 92.95 -104.0 M136.45 -124.0 L137.0 -123.2 136.95 -122.5 Q134.5 -120.05 131.7 -122.75 L131.9 -123.35 Q132.45 -124.1 132.95 -124.25 L136.45 -124.0 M60.95 -189.25 L59.45 -188.25 Q58.65 -189.95 58.9 -192.0 L58.95 -192.75 60.05 -193.65 60.45 -193.75 Q61.3 -192.05 61.0 -190.0 L60.95 -189.25 M78.45 -163.5 L78.15 -162.0 77.95 -161.5 76.95 -161.25 74.95 -162.5 Q74.35 -164.45 76.95 -164.65 L76.95 -164.75 78.1 -164.1 78.45 -163.5 M17.5 -151.75 Q15.25 -150.4 13.75 -152.5 12.9 -154.2 13.3 -156.25 L13.75 -157.75 14.8 -158.4 16.0 -158.75 Q20.4 -156.75 17.9 -152.3 L17.5 -151.75 M39.0 -124.5 L40.5 -124.25 41.15 -123.45 41.5 -122.75 40.9 -122.1 40.0 -121.5 38.25 -121.75 37.65 -122.6 Q37.5 -122.9 37.5 -123.25 L38.05 -123.9 39.0 -124.5 M9.25 -106.0 Q10.15 -107.65 12.0 -107.65 L13.5 -107.5 32.6 -122.3 33.25 -122.5 Q25.4 -114.2 15.25 -106.7 L14.5 -106.0 14.65 -105.25 14.75 -104.5 14.25 -103.75 13.75 -103.0 Q12.3 -101.6 10.5 -102.75 L-33.5 -63.25 -38.0 -59.75 Q-17.85 -79.45 4.75 -99.2 L9.0 -103.0 Q9.65 -103.95 9.3 -105.3 L9.25 -106.0 M77.2 -147.25 Q77.25 -144.5 78.0 -141.95 L77.95 -141.25 Q77.4 -139.9 75.95 -139.75 L73.95 -141.0 Q73.4 -142.15 73.95 -143.25 74.9 -144.2 76.2 -144.5 76.65 -145.7 76.55 -147.0 76.5 -147.45 77.2 -147.25 M44.15 -119.35 L44.7 -118.75 Q41.15 -112.65 34.15 -108.0 21.4 -99.45 11.65 -88.55 6.5 -82.75 0.9 -77.3 L-41.75 -35.75 -48.95 -28.7 -47.5 -29.0 Q-29.4 -40.65 -13.35 -55.05 L-12.75 -55.25 Q-13.6 -53.1 -15.75 -51.45 L-16.5 -50.75 -16.6 -50.0 -16.75 -49.25 Q-26.85 -39.55 -37.9 -31.3 -25.0 -34.75 -12.5 -40.0 L-11.75 -39.25 Q-26.65 -31.5 -43.2 -27.5 -52.3 -21.15 -62.0 -15.75 L-62.2 -15.85 -67.0 -11.25 -68.0 -11.0 Q-70.0 -11.3 -70.0 -13.0 -68.75 -15.3 -66.75 -17.5 L-66.0 -18.25 -60.15 -25.25 Q-62.35 -26.1 -64.5 -26.25 L-58.65 -27.0 Q-44.7 -43.25 -29.1 -58.6 L-26.1 -61.85 Q-8.45 -82.4 13.25 -97.65 28.5 -108.4 43.0 -120.0 L44.15 -119.35 M72.9 -89.55 L72.2 -88.75 70.9 -89.7 Q70.7 -89.9 70.7 -90.25 L71.3 -90.8 72.45 -91.0 73.2 -90.25 72.9 -89.55 M60.45 -80.75 Q42.3 -66.4 23.45 -52.95 L41.0 -60.2 41.25 -60.25 15.5 -47.3 12.45 -45.2 9.0 -42.5 8.0 -42.25 6.95 -43.0 1.1 -40.05 Q-0.95 -39.05 -2.25 -37.0 L-3.5 -36.75 Q-2.6 -38.85 -1.0 -40.5 -0.1 -41.5 0.5 -42.75 L8.8 -46.5 Q16.95 -55.7 28.45 -62.05 44.0 -70.55 58.0 -81.65 58.6 -82.15 59.45 -82.25 L60.15 -81.45 60.45 -80.75 M52.2 -51.25 Q61.15 -58.25 70.95 -63.0 73.6 -62.65 74.7 -60.25 L74.95 -59.5 Q68.2 -49.65 54.95 -47.0 53.7 -47.65 52.55 -48.4 L51.95 -49.0 52.0 -49.75 52.2 -51.25 M80.2 -73.75 Q86.5 -79.4 93.95 -82.0 L95.95 -81.9 96.95 -82.0 98.7 -80.75 Q95.5 -71.0 83.8 -68.85 80.6 -68.25 80.0 -71.5 79.8 -72.65 80.2 -73.75 M37.15 -38.4 L37.75 -37.75 37.55 -36.3 37.25 -35.5 Q8.2 -28.85 -21.0 -22.85 L-29.0 -21.0 Q-39.7 -20.3 -50.35 -16.2 -56.4 -13.85 -61.5 -14.25 -44.8 -17.45 -30.25 -24.5 -4.05 -32.95 23.15 -36.75 29.85 -37.7 36.0 -39.0 L37.15 -38.4 M14.75 -11.9 L2.75 -11.8 Q2.8 -10.1 -0.75 -10.0 L-6.15 -9.75 Q11.25 -9.0 28.45 -6.5 L31.5 -6.0 32.0 -5.2 32.0 -4.5 -29.0 -6.6 Q-30.0 -6.65 -31.0 -7.25 L-37.3 -6.7 -48.95 -5.2 5.15 -0.4 Q19.35 1.1 33.4 3.9 62.25 9.65 91.7 7.5 106.5 6.4 120.1 9.15 L120.7 10.0 Q120.4 12.4 117.95 12.65 101.4 14.5 85.0 14.5 85.05 15.4 83.45 15.35 L82.95 15.0 82.85 14.5 Q56.5 14.2 30.45 9.05 3.0 3.6 -24.7 0.8 L-28.05 0.4 -53.75 -2.75 -54.35 -3.6 -54.45 -4.0 -58.55 -2.9 -59.5 -2.75 Q-57.9 -4.5 -55.25 -5.0 L-53.0 -5.4 -53.0 -5.5 -52.6 -5.45 -45.5 -6.6 -59.5 -7.25 -30.4 -9.3 -29.95 -9.6 -29.05 -9.9 -29.0 -10.0 -22.05 -10.1 -5.35 -11.8 -21.75 -12.0 Q-22.4 -12.0 -23.0 -12.75 L-23.2 -13.5 -23.25 -15.0 Q-13.85 -19.8 -1.45 -19.0 7.6 -18.4 16.7 -18.85 L26.45 -19.35 Q30.55 -20.85 35.0 -21.75 36.9 -21.6 37.45 -19.9 L104.95 -23.9 111.95 -24.5 114.45 -23.2 114.95 -22.75 129.45 -23.0 130.0 -22.2 129.95 -21.5 Q115.45 -18.75 100.15 -16.9 71.8 -13.45 43.25 -12.55 L25.45 -12.05 Q22.35 -11.15 18.9 -10.75 16.1 -10.45 14.75 -11.9 M72.95 -39.5 Q74.7 -39.1 75.35 -37.45 L75.45 -36.75 Q70.85 -31.25 63.45 -29.75 L63.4 -30.5 62.95 -32.0 Q66.8 -36.95 72.95 -39.35 L72.95 -39.5 M135.7 -80.75 Q136.25 -79.65 135.75 -78.5 L135.45 -77.75 134.9 -77.35 133.95 -77.0 131.95 -78.25 Q131.5 -80.35 133.1 -81.6 133.45 -81.9 133.95 -82.0 L135.15 -81.4 135.7 -80.75 M197.45 -139.25 L198.2 -138.5 Q198.65 -137.05 198.5 -135.5 L198.45 -134.75 196.2 -133.75 195.45 -134.5 195.45 -137.5 195.45 -138.25 197.0 -139.15 197.45 -139.25 M186.6 -52.6 Q186.45 -52.9 186.45 -53.25 L187.05 -53.9 187.95 -54.5 190.45 -54.25 191.15 -53.45 191.45 -52.75 190.9 -52.1 189.95 -51.5 187.2 -51.75 186.6 -52.6 M175.1 -3.4 L175.7 -2.75 175.55 -1.3 175.2 -0.5 173.95 0.0 Q172.0 -0.3 171.95 -2.0 171.95 -2.4 172.1 -2.7 L172.7 -3.5 173.9 -3.85 173.95 -4.0 175.1 -3.4 M196.7 -14.75 L196.55 -13.3 196.2 -12.5 194.95 -12.0 192.45 -12.75 Q192.75 -14.35 193.9 -15.25 L194.95 -16.0 196.1 -15.4 196.7 -14.75 M209.95 -26.5 Q211.7 -26.1 212.35 -24.45 L212.45 -23.75 Q211.8 -21.75 209.9 -20.85 L208.95 -20.5 Q206.95 -20.65 206.45 -22.5 206.2 -24.45 207.95 -25.55 L208.45 -26.0 209.0 -26.2 209.95 -26.4 209.95 -26.5 M19.25 -206.5 Q8.5 -185.45 -3.5 -164.35 L-3.5 -163.75 Q-18.1 -138.55 -30.45 -112.2 L-48.75 -73.75 Q-48.65 -78.15 -45.5 -84.25 L-45.0 -85.0 Q-34.4 -111.15 -21.15 -136.85 -7.35 -163.55 7.75 -189.65 13.1 -198.9 19.25 -206.5 M168.7 141.0 Q169.75 142.75 168.9 144.7 L168.45 145.5 167.9 145.9 166.95 146.25 165.45 145.75 Q164.3 143.7 164.85 141.25 164.95 140.85 165.2 140.5 L166.0 140.05 166.95 139.75 168.1 140.35 168.7 141.0 M189.2 129.75 Q189.65 131.25 189.3 132.75 L189.2 133.5 Q191.4 135.85 191.2 138.75 191.05 139.85 189.95 140.2 L188.95 140.5 Q185.35 139.3 185.45 135.5 L186.45 134.0 186.6 130.25 186.7 129.5 188.0 129.05 188.45 129.0 189.2 129.75 M125.7 4.5 L117.45 4.5 23.55 0.65 24.0 0.5 Q40.6 1.3 57.2 0.7 84.65 -0.25 112.0 1.05 123.65 1.65 134.45 4.25 L125.7 4.5 M91.7 43.5 Q87.15 50.3 77.9 45.6 L70.95 42.0 70.4 40.45 Q70.2 39.75 70.4 39.05 L70.7 38.25 71.45 37.7 71.75 37.6 72.95 37.35 72.95 37.25 Q82.5 39.55 90.9 42.95 L91.7 43.5 M83.45 28.0 L84.0 28.8 83.95 29.5 Q82.4 31.35 80.7 29.25 L80.9 28.65 Q81.45 27.9 81.95 27.75 L83.45 28.0 M82.95 86.35 L82.95 86.25 Q91.2 93.85 99.4 101.8 L99.95 102.5 99.9 103.25 99.7 104.0 Q101.7 106.15 104.2 107.75 102.0 107.9 99.45 105.5 L98.5 105.6 97.05 106.0 Q102.05 109.85 105.8 115.1 L105.95 115.75 Q108.95 118.85 112.4 121.5 113.75 122.5 114.2 124.0 L113.85 124.5 112.2 125.0 106.45 119.75 104.7 118.25 Q94.75 113.45 86.2 105.5 L86.05 104.75 85.95 104.0 85.95 103.25 86.3 102.55 86.95 101.75 Q87.35 101.5 87.75 101.4 L88.95 101.1 88.95 101.0 Q90.4 101.7 91.8 102.5 87.55 99.2 84.15 95.0 L78.7 89.75 Q78.5 89.55 79.2 89.75 L81.55 91.45 80.4 89.65 80.2 89.0 Q80.2 88.6 80.35 88.3 L81.2 86.75 82.95 86.35 M154.95 64.25 L156.2 64.75 Q156.6 66.75 157.35 68.55 L157.45 69.25 156.6 70.65 155.95 71.25 154.95 71.5 152.7 70.25 Q152.2 67.15 154.2 64.7 154.45 64.35 154.95 64.25 M149.2 82.25 Q124.75 74.1 100.45 65.0 60.55 49.85 19.35 37.15 L-10.8 27.75 Q-15.5 26.25 -20.15 24.25 -24.5 22.35 -22.5 21.75 -2.7 31.85 19.35 35.5 30.6 37.4 41.5 40.9 69.2 49.7 96.0 61.1 122.35 72.3 149.2 82.25 M56.7 35.0 L57.1 34.4 Q57.45 34.1 58.0 34.05 L58.45 34.0 67.85 39.45 68.2 40.0 67.85 40.5 66.2 41.0 Q61.3 38.9 57.1 35.55 L56.7 35.0 M69.2 47.2 L68.95 47.4 67.95 47.75 Q43.55 35.9 18.75 29.6 L19.0 29.5 Q46.7 30.3 69.5 46.3 L69.45 46.75 69.2 47.2 M2.5 69.25 L-4.25 60.0 Q-13.7 50.35 -23.3 40.95 L-30.5 35.2 Q-37.45 31.85 -44.15 26.85 -46.75 26.05 -48.75 24.5 -48.9 23.8 -48.65 23.35 L-63.95 10.7 Q-65.1 9.75 -63.75 9.75 L-47.1 22.3 -47.0 22.25 -46.6 22.35 -56.7 14.25 Q-58.45 12.85 -56.75 12.75 -48.3 18.35 -40.1 24.3 L-36.0 25.65 -65.0 3.75 -64.5 3.75 -54.75 9.75 -53.5 10.5 Q-35.05 20.2 -17.5 32.5 -15.7 33.8 -13.6 34.9 13.5 49.35 41.2 62.55 48.2 65.9 52.45 71.25 L52.15 71.95 51.65 72.65 50.95 73.25 49.95 73.5 48.05 72.45 46.2 73.25 45.6 72.4 45.45 71.75 46.05 71.4 21.65 58.45 40.95 71.9 42.0 72.65 53.2 82.0 51.2 83.0 40.5 75.5 Q26.0 69.5 12.4 59.9 5.9 55.3 -0.75 50.95 18.1 71.25 39.2 89.35 47.1 96.1 55.85 101.65 60.55 104.6 63.0 109.1 L63.45 110.5 70.45 115.75 70.15 116.4 69.45 117.25 68.35 117.25 82.95 126.75 83.4 127.5 83.7 128.25 83.95 129.0 83.7 129.75 83.4 130.45 83.15 130.95 85.35 132.5 Q97.95 141.3 109.55 151.35 L154.75 189.85 Q161.25 195.3 168.55 199.65 177.05 204.65 185.2 209.25 154.6 196.15 130.85 172.35 120.4 161.8 108.9 152.3 L83.05 131.15 82.95 131.25 Q75.8 131.15 68.95 126.25 L47.0 110.6 44.95 112.0 Q56.15 125.25 69.35 136.85 71.85 139.0 72.2 142.25 76.9 146.35 80.45 151.25 L78.2 152.25 70.2 144.25 Q57.75 136.05 47.95 123.65 L45.95 121.1 Q43.25 120.3 40.5 120.25 L38.0 121.5 32.4 117.45 Q24.65 119.7 17.55 114.05 11.85 109.5 8.4 103.05 5.55 97.8 9.0 95.25 L4.1 89.2 Q-2.4 80.7 -9.15 72.35 -17.1 66.5 -24.75 60.2 -38.6 48.75 -53.2 39.0 L-52.9 40.2 Q-50.6 45.0 -48.45 49.95 L-48.0 50.75 -49.05 51.5 Q-43.8 62.95 -40.55 75.8 L-40.15 77.45 Q-33.15 88.6 -27.05 100.25 L-14.9 123.95 -14.75 123.0 Q-16.45 120.6 -16.8 117.8 -16.95 116.7 -15.75 116.75 L-15.0 116.85 -14.0 116.75 -12.75 117.25 -11.05 120.25 -10.75 121.0 Q-5.15 125.95 -2.1 133.7 5.3 152.25 6.45 171.55 6.55 172.9 5.1 173.2 -2.1 174.85 -3.6 166.65 -4.65 160.95 -6.7 155.3 -12.2 140.15 -14.8 124.9 L-38.65 83.25 -34.5 98.45 -33.95 98.1 -33.5 98.0 -32.75 98.75 -31.25 109.5 -28.55 118.2 -26.35 125.35 Q-23.65 134.4 -26.3 142.4 -26.65 143.35 -27.95 143.2 -32.65 142.7 -33.45 137.6 -36.5 116.85 -43.7 96.7 -48.65 82.75 -51.95 68.35 L-54.7 57.1 -55.5 55.95 Q-51.0 73.85 -48.3 92.2 -48.1 93.3 -48.25 94.5 L-48.75 95.25 -49.25 96.0 -49.0 97.45 -48.75 98.25 -49.5 99.25 -50.25 97.7 -50.5 97.0 -50.8 96.9 -50.9 97.15 -51.5 98.0 -52.75 98.0 -53.5 97.25 Q-54.75 91.95 -56.4 86.7 L-56.75 85.25 Q-59.7 78.35 -62.25 71.25 L-60.45 82.5 Q-58.8 86.5 -57.8 90.8 -57.75 91.0 -58.0 91.25 L-59.75 87.75 -59.0 95.45 Q-57.55 113.0 -53.75 130.0 L-55.1 131.1 -56.0 131.5 Q-60.95 126.05 -61.85 117.55 -64.9 88.6 -69.45 59.85 -70.45 53.75 -72.75 48.05 -75.35 41.65 -72.2 38.25 L-72.4 37.45 Q-73.35 33.3 -75.0 29.05 -75.6 27.5 -75.0 26.0 L-74.3 25.65 -74.95 22.1 -75.15 19.75 -74.75 19.75 -73.75 20.5 -72.25 25.05 -71.75 25.25 Q-67.1 37.6 -63.3 50.35 L-65.35 40.15 Q-67.25 30.6 -70.45 21.4 -71.5 18.3 -71.25 15.25 L-69.95 14.35 -69.5 14.25 Q-65.05 26.0 -61.5 38.25 L-61.25 39.0 -60.0 39.75 -61.95 34.25 Q-64.1 28.3 -63.0 22.75 -66.25 14.6 -70.15 6.85 L-69.75 6.75 Q-65.45 13.5 -62.3 21.0 L-62.0 21.75 Q-56.3 25.6 -54.5 33.8 L-53.85 36.4 Q-35.9 48.4 -18.3 61.0 L-31.75 44.5 Q-32.35 43.0 -32.1 41.45 -32.0 40.75 -32.25 40.0 L-30.95 39.1 -30.5 39.0 Q-19.55 48.45 -9.85 60.2 L-4.5 66.7 -2.45 69.15 -1.95 68.85 -1.5 68.75 -0.85 69.55 -0.5 70.25 -1.25 70.6 1.7 74.0 15.7 82.6 18.1 84.1 22.75 86.95 Q12.35 77.2 2.5 66.95 L0.95 65.35 2.45 67.5 3.0 68.25 3.15 68.8 2.5 69.25 M14.35 88.35 L14.4 88.45 14.4 88.4 14.35 88.35 M44.55 119.25 L39.8 112.75 36.65 111.9 40.75 116.4 41.5 117.75 Q43.2 118.4 44.55 119.25 M0.0 109.75 Q-13.9 100.8 -25.25 89.0 L-24.9 88.4 Q-24.5 88.1 -24.0 88.0 L-23.5 88.0 Q-11.45 97.7 1.1 106.9 L1.5 107.5 1.55 108.2 1.25 109.0 1.0 109.5 0.0 109.75 M34.25 169.5 Q50.1 194.55 65.15 220.05 73.35 233.95 83.15 246.6 L86.95 251.25 87.1 251.8 86.45 252.25 Q71.0 235.7 60.45 215.35 55.55 205.9 49.6 196.9 40.6 183.35 33.85 169.5 L34.25 169.5 M13.25 151.25 L11.5 152.25 Q10.0 151.25 11.35 150.15 11.75 149.85 12.25 149.75 L12.9 150.55 13.25 151.25 M51.55 151.0 L51.45 151.75 Q51.0 153.0 49.45 153.0 L48.2 153.0 Q47.45 152.0 47.6 150.7 L47.7 149.25 Q47.95 149.0 48.25 148.9 L49.45 148.75 Q51.2 149.35 51.55 151.0 M117.7 190.0 L117.8 191.45 117.45 192.75 115.45 193.15 114.45 193.25 Q113.8 192.15 113.75 191.0 L113.7 190.25 115.05 189.15 Q115.45 188.85 115.95 188.75 L117.15 189.35 117.7 190.0 M140.8 243.7 L140.7 243.0 140.7 242.25 141.05 241.55 142.2 240.25 142.75 240.05 143.95 239.85 143.95 239.75 Q147.0 240.4 147.95 243.25 L148.2 244.0 147.6 245.4 146.7 246.75 Q143.15 247.9 140.95 244.5 L140.8 243.7 M82.8 268.45 L82.45 269.75 81.95 269.95 80.95 270.25 78.95 269.0 78.85 267.5 78.95 266.75 80.0 266.1 80.95 265.75 82.15 266.35 82.7 267.0 82.8 268.45 M17.4 249.45 L18.0 250.0 Q15.45 252.15 15.6 249.5 L16.0 249.0 17.4 249.45 M11.0 283.25 Q11.5 282.75 12.05 282.35 L12.5 282.25 14.15 284.55 14.5 285.25 12.25 286.25 11.5 285.5 11.2 284.0 11.0 283.25 M-336.9 -196.1 L-336.5 -195.5 -336.8 -194.0 -337.0 -193.5 -338.0 -193.25 -339.75 -194.5 Q-339.95 -195.75 -338.9 -196.35 -338.5 -196.65 -338.0 -196.75 L-336.9 -196.1 M-334.75 -156.25 L-322.7 -141.3 -322.0 -140.5 Q-306.05 -131.05 -290.75 -119.25 -290.1 -118.15 -290.4 -117.0 L-290.5 -116.25 -289.1 -113.95 -288.75 -113.25 -289.0 -113.0 -290.0 -113.25 Q-290.4 -114.5 -291.25 -115.55 L-291.75 -116.25 Q-308.5 -124.15 -322.75 -135.75 -323.15 -136.85 -322.85 -137.95 L-322.5 -138.75 Q-328.5 -147.25 -335.15 -155.35 -335.95 -156.3 -334.75 -156.25 M-348.0 -122.0 L-346.85 -121.4 -346.25 -120.75 Q-346.25 -120.0 -346.4 -119.3 L-346.75 -118.5 -348.0 -118.0 Q-350.0 -118.25 -350.0 -120.0 L-349.85 -120.7 -349.25 -121.5 -348.05 -121.85 -348.0 -122.0 M-349.75 -67.5 L-349.25 -67.7 -348.0 -68.0 Q-346.1 -67.75 -345.3 -66.0 L-345.0 -65.25 -345.6 -63.8 -346.25 -62.5 Q-349.3 -61.1 -351.0 -64.0 -351.15 -65.2 -350.6 -66.2 L-349.75 -67.5 M-348.9 -44.0 L-348.5 -43.5 Q-348.4 -43.15 -348.45 -42.8 L-349.0 -41.5 Q-351.35 -40.55 -352.75 -42.5 -352.95 -43.75 -351.9 -44.4 L-351.0 -44.75 -348.9 -44.0 M-360.0 -13.0 L-358.75 -12.5 -358.05 -11.0 -357.75 -10.25 -358.0 -9.5 -358.5 -8.25 -359.0 -8.05 -360.0 -7.75 -362.0 -9.0 Q-362.75 -11.2 -360.9 -12.6 L-360.0 -13.0 M-94.5 -278.25 Q-95.55 -276.1 -97.0 -278.0 -97.5 -279.65 -96.0 -279.75 L-95.5 -279.75 -95.0 -279.0 -94.5 -278.25 M-134.75 -267.25 Q-133.3 -256.1 -132.8 -244.75 L-132.75 -244.0 Q-128.05 -235.9 -127.25 -225.3 -126.4 -213.5 -122.75 -202.1 -121.35 -197.7 -125.0 -194.75 -135.65 -216.05 -136.0 -241.0 -135.2 -242.4 -133.75 -243.25 -134.4 -255.15 -135.45 -267.0 -135.45 -267.45 -134.75 -267.25 M-104.0 -246.2 L-103.5 -246.25 -102.75 -245.5 -102.4 -187.0 Q-102.3 -179.0 -103.5 -171.25 L-103.2 -170.55 -102.75 -169.75 Q-102.65 -169.4 -102.8 -169.2 -103.0 -168.9 -103.5 -168.75 L-104.3 -170.25 -104.75 -171.0 Q-106.2 -171.1 -107.0 -172.25 -109.75 -201.75 -106.35 -230.8 -105.45 -238.25 -105.25 -245.75 L-104.0 -246.2 M-115.0 -229.0 Q-114.15 -231.85 -111.05 -232.15 L-111.0 -232.25 -109.85 -231.6 -109.25 -231.0 Q-109.15 -230.25 -109.2 -229.5 L-109.5 -228.25 -113.0 -227.0 Q-114.0 -227.65 -114.85 -228.45 L-115.0 -229.0 M-95.75 -199.5 Q-94.15 -178.05 -92.85 -156.6 L-92.25 -169.55 Q-92.1 -172.35 -90.75 -173.25 L-92.0 -141.95 -91.95 -141.0 -91.85 -139.7 -89.55 -112.0 -89.5 -112.0 -88.75 -111.25 -88.75 -110.9 -87.5 -111.0 -87.35 -110.85 Q-86.8 -116.4 -86.5 -122.0 -86.5 -122.45 -85.8 -122.25 L-84.45 -133.2 Q-84.4 -133.7 -83.75 -133.5 L-84.05 -129.4 -79.15 -154.45 -78.75 -154.5 -83.95 -119.3 -83.75 -119.25 -85.3 -106.15 Q-85.6 -96.7 -85.5 -87.1 L-84.7 -73.9 -83.1 -80.4 Q-77.3 -102.55 -69.7 -124.3 -69.0 -126.35 -67.0 -126.5 -63.95 -124.3 -63.55 -120.95 L-61.25 -130.75 Q-56.35 -158.45 -48.35 -186.25 L-48.0 -187.75 -47.25 -188.5 -46.05 -188.85 -46.0 -189.0 -44.85 -188.35 -44.25 -187.75 Q-49.85 -159.2 -59.4 -131.55 L-59.75 -130.75 -68.0 -90.75 -60.65 -111.45 Q-60.5 -112.0 -59.5 -111.75 -65.6 -89.7 -72.4 -67.4 -76.15 -48.65 -80.85 -30.2 L-79.75 -23.25 -81.0 -22.0 -82.25 -22.5 -82.9 -26.1 -84.0 -25.0 -85.25 -25.5 -85.1 -26.3 -86.25 -26.8 -86.8 -25.65 -86.75 -24.75 -86.95 -25.35 -87.55 -24.15 -88.5 -21.75 -88.65 -21.6 -88.0 -15.75 -88.85 -18.95 -88.9 -18.85 -89.5 -18.0 -90.75 -18.0 Q-91.55 -19.0 -91.2 -20.25 L-91.0 -20.75 -90.75 -20.9 -90.0 -20.95 -90.0 -21.0 -91.5 -21.5 -92.5 -21.75 -92.1 -23.3 -91.75 -24.75 -91.45 -29.55 -92.0 -31.9 Q-91.4 -27.45 -92.65 -23.3 -93.85 -19.3 -97.65 -21.45 -99.15 -22.3 -100.25 -23.55 L-99.55 -22.0 -99.25 -21.25 -99.45 -20.75 Q-99.9 -20.4 -100.5 -20.25 -101.85 -21.95 -102.75 -24.0 L-103.0 -24.75 Q-119.65 -50.35 -133.25 -78.25 -138.6 -89.35 -141.8 -101.05 -142.7 -104.45 -142.95 -108.05 L-142.75 -109.5 -142.0 -109.95 -141.0 -110.25 -139.75 -109.75 Q-136.95 -103.95 -135.0 -97.75 L-134.75 -97.0 Q-123.05 -70.05 -109.65 -43.55 L-103.2 -31.3 -107.3 -51.45 -108.7 -58.2 -108.7 -58.35 -109.75 -59.15 Q-109.0 -55.9 -108.75 -52.75 -110.8 -55.2 -111.0 -59.5 L-112.5 -61.0 -112.65 -61.7 Q-119.95 -65.55 -122.9 -74.45 -125.6 -82.5 -123.65 -89.75 -123.1 -91.8 -122.2 -93.45 L-125.75 -112.0 -126.0 -113.5 Q-130.95 -124.2 -132.95 -136.7 L-137.0 -160.0 -136.85 -160.7 -136.25 -161.5 -135.05 -161.85 -135.0 -162.0 -133.75 -161.5 Q-128.4 -139.2 -124.1 -116.5 L-124.0 -115.75 -124.5 -115.0 -125.0 -114.25 -121.3 -94.9 Q-120.1 -96.7 -118.35 -97.95 L-119.1 -105.5 -123.55 -127.15 Q-124.7 -132.9 -123.1 -138.35 -123.8 -140.35 -124.0 -143.0 L-125.25 -164.75 Q-124.2 -166.4 -122.65 -167.25 L-122.5 -169.0 -122.4 -169.2 -123.25 -174.0 -121.95 -174.9 -121.5 -175.0 -120.75 -174.25 -119.2 -166.5 Q-116.85 -163.45 -115.55 -159.65 L-116.9 -167.3 -117.0 -168.75 -116.7 -169.45 -116.0 -170.25 -115.25 -170.65 -114.0 -171.0 Q-107.4 -164.55 -110.15 -155.55 L-110.5 -154.75 -109.0 -147.95 -109.0 -146.75 Q-110.85 -149.55 -111.4 -153.25 L-111.75 -154.75 Q-113.5 -154.65 -114.5 -156.0 L-114.65 -156.25 Q-114.2 -153.65 -114.15 -150.75 -114.15 -148.6 -113.75 -146.3 -113.1 -142.8 -113.1 -139.4 L-112.75 -139.25 -112.0 -131.65 -110.25 -124.5 -109.75 -124.5 -109.35 -120.6 -108.05 -114.95 Q-108.15 -122.85 -107.75 -130.75 -107.05 -132.2 -105.5 -132.65 L-104.0 -133.0 Q-101.55 -131.3 -100.05 -128.8 -101.25 -136.6 -96.75 -142.75 L-96.25 -142.9 -95.15 -143.05 -98.55 -191.2 Q-98.9 -195.85 -98.0 -200.0 L-97.75 -200.15 -96.5 -200.25 -95.75 -199.5 M-74.7 -224.9 Q-76.05 -215.2 -76.1 -205.5 -76.15 -200.8 -80.0 -199.0 -82.1 -199.15 -83.0 -201.0 -81.0 -217.35 -80.55 -234.0 L-80.25 -235.5 Q-79.15 -236.0 -78.05 -236.6 L-78.0 -236.75 Q-73.65 -232.55 -74.7 -224.9 M-23.5 -228.5 L-23.85 -227.0 -24.0 -226.5 -25.0 -226.25 -26.75 -227.5 Q-27.0 -228.75 -25.95 -229.35 L-25.0 -229.75 -23.9 -229.1 -23.5 -228.5 M-250.0 -267.0 L-247.9 -266.05 -247.5 -265.5 -247.45 -264.8 Q-247.65 -264.15 -248.0 -263.5 L-249.0 -263.25 -250.0 -263.0 -251.8 -264.45 -252.0 -265.0 -251.85 -265.7 -251.25 -266.5 -250.05 -266.85 -250.0 -267.0 M-294.9 -265.85 L-295.5 -265.0 -298.25 -265.75 -297.6 -266.85 Q-297.4 -267.15 -297.0 -267.25 L-296.0 -267.25 -295.75 -267.25 -294.75 -266.5 -294.9 -265.85 M-253.3 -234.4 L-252.0 -233.75 Q-242.95 -218.95 -232.1 -205.55 -230.85 -204.0 -232.55 -202.65 -238.45 -198.1 -243.3 -204.7 -247.05 -209.85 -250.45 -215.2 -255.45 -223.1 -258.15 -231.75 -258.7 -233.5 -256.9 -234.3 L-255.0 -235.0 -253.3 -234.4 M-202.9 -243.45 L-202.5 -244.0 -202.0 -244.15 -201.05 -244.35 -201.0 -244.5 Q-199.15 -244.75 -198.05 -243.25 L-197.5 -242.5 -197.65 -241.0 -198.0 -239.5 -198.55 -239.05 -199.0 -238.8 -200.0 -238.5 Q-203.0 -239.2 -203.5 -242.0 L-202.9 -243.45 M-195.75 -236.25 L-186.3 -195.75 -186.25 -195.25 Q-181.55 -192.25 -180.0 -186.25 -180.15 -184.5 -181.5 -183.25 -181.0 -181.75 -180.8 -180.2 -180.75 -180.0 -181.0 -179.75 -182.3 -180.75 -182.5 -182.5 L-182.5 -183.0 Q-188.85 -185.9 -188.75 -193.25 L-187.5 -194.75 Q-192.35 -215.9 -195.9 -236.25 L-195.75 -236.25 M-187.5 -156.75 L-165.85 -102.2 -159.35 -86.2 Q-156.9 -84.2 -154.85 -81.25 L-151.8 -77.0 -143.65 -68.6 -122.25 -46.25 -121.5 -45.0 -121.75 -44.25 -122.25 -42.75 Q-113.55 -32.1 -106.0 -20.45 -104.5 -18.15 -103.75 -15.75 L-108.55 -22.3 Q-104.25 -16.1 -101.9 -8.75 -101.5 -7.5 -100.75 -6.5 -100.75 -6.15 -100.9 -5.85 L-101.5 -5.0 -102.75 -5.0 -106.15 -10.75 -108.25 -13.75 -144.05 -56.8 -150.95 -65.15 Q-169.05 -83.65 -186.3 -102.7 L-188.75 -105.75 -188.95 -106.5 -189.0 -107.25 -189.0 -108.0 -188.45 -108.7 -187.75 -109.5 -186.05 -109.85 -186.0 -110.0 -163.85 -89.05 -160.8 -87.3 Q-170.45 -107.35 -178.7 -128.2 -184.45 -142.55 -188.15 -156.75 L-187.5 -156.75 M-226.75 -172.25 Q-216.65 -164.15 -210.0 -153.0 L-209.5 -152.25 Q-211.3 -151.3 -214.0 -154.3 L-214.75 -154.75 Q-218.1 -159.1 -221.0 -163.75 -221.65 -164.75 -221.75 -166.0 -224.8 -168.85 -227.15 -172.15 L-226.75 -172.25 M-233.75 -114.25 Q-242.15 -117.15 -250.2 -123.35 L-249.5 -123.25 -235.0 -115.0 -233.75 -114.25 M-210.5 -100.25 Q-212.4 -98.9 -213.3 -102.4 L-212.75 -102.5 -211.05 -100.95 -210.5 -100.25 M-260.9 -181.35 L-260.5 -180.75 Q-261.05 -174.7 -266.25 -177.5 L-266.6 -178.3 -266.75 -179.75 -265.7 -181.2 -265.0 -182.0 -264.2 -182.4 -263.0 -182.75 Q-261.9 -182.15 -260.9 -181.35 M-274.5 -168.75 L-274.25 -168.0 -274.55 -167.3 -275.5 -165.75 -279.0 -164.75 -280.25 -165.25 Q-280.45 -166.75 -279.8 -168.25 L-279.25 -169.75 -278.2 -170.4 -277.0 -170.75 Q-274.95 -170.6 -274.5 -168.75 M-316.5 -150.75 Q-319.55 -149.2 -320.25 -151.35 L-320.0 -151.5 -316.8 -151.05 -316.5 -150.75 M-279.5 -105.5 Q-279.2 -103.95 -280.15 -102.45 L-280.5 -101.75 -281.05 -101.35 -282.0 -101.0 Q-284.0 -101.25 -284.0 -103.0 -283.55 -105.9 -281.05 -106.6 L-281.0 -106.75 -279.9 -106.1 -279.5 -105.5 M-263.85 -62.35 L-263.25 -61.75 Q-262.7 -60.5 -263.75 -59.5 L-264.5 -58.75 -265.75 -58.75 -266.85 -60.35 -267.0 -61.0 -266.85 -61.7 -266.25 -62.5 -265.05 -62.85 -265.0 -63.0 -263.85 -62.35 M-310.0 -61.5 L-284.8 -57.05 -284.5 -56.75 Q-298.1 -57.8 -310.25 -61.4 L-310.0 -61.5 M-290.95 -51.45 L-288.95 -52.95 -288.0 -53.5 Q-268.45 -52.75 -249.1 -49.15 -239.5 -47.35 -229.75 -46.75 -222.25 -46.25 -215.95 -43.4 -215.4 -43.15 -215.0 -42.5 L-213.55 -42.1 -211.0 -41.0 Q-211.25 -40.65 -211.6 -40.55 L-213.5 -40.3 -215.5 -40.5 -216.05 -39.8 -216.75 -39.25 Q-245.6 -39.7 -272.45 -47.95 -281.7 -50.8 -291.5 -50.75 L-290.95 -51.45 M-300.85 -0.65 L-300.25 0.0 -299.85 1.5 -299.75 2.25 Q-317.75 7.0 -335.75 6.5 -338.85 6.4 -339.5 4.75 L-335.75 4.0 -335.25 3.5 -335.0 3.25 -302.0 -1.25 -300.85 -0.65 M-303.0 -13.0 L-302.0 -14.5 -301.0 -14.7 -300.5 -14.75 Q-299.55 -12.45 -302.5 -12.6 L-303.0 -13.0 M-176.25 -64.0 L-175.05 -64.85 -175.0 -65.0 Q-161.8 -57.05 -149.9 -47.1 L-149.5 -46.5 -149.45 -45.8 -149.75 -45.0 -150.0 -44.5 -151.0 -44.25 Q-164.6 -52.9 -177.0 -62.75 L-176.25 -64.0 M-224.5 -66.25 Q-198.15 -54.1 -170.85 -44.3 -162.0 -41.1 -153.5 -37.0 L-154.75 -36.75 -209.2 -58.6 Q-217.55 -61.95 -225.0 -66.15 L-224.5 -66.25 M-211.25 -42.75 L-211.15 -43.45 -210.7 -43.9 -210.0 -44.0 -209.5 -44.0 Q-182.5 -33.15 -154.3 -24.75 -148.05 -22.9 -142.35 -20.05 L-139.0 -20.15 -139.0 -20.25 Q-128.65 -17.7 -123.75 -9.6 -117.45 -7.8 -110.8 -7.15 L-110.5 -6.75 Q-116.55 -5.4 -122.4 -6.95 L-122.05 -6.2 -121.3 -5.65 Q-117.2 -2.65 -112.5 0.0 L-113.5 0.25 -121.2 -3.8 Q-120.7 -2.2 -120.35 -0.5 L-120.25 0.25 -120.55 0.95 -121.0 1.75 -121.5 2.5 -121.2 3.45 -115.6 4.35 Q-112.65 4.9 -110.5 7.0 L-111.5 7.25 Q-116.1 4.9 -121.0 3.95 L-119.6 7.75 -117.75 12.25 Q-117.65 12.6 -117.8 12.8 L-118.2 13.15 Q-113.25 13.7 -108.95 16.1 L-109.0 16.5 -137.2 18.15 Q-146.85 22.35 -157.6 24.35 L-158.0 24.0 Q-152.0 21.35 -145.85 18.85 L-176.05 22.1 Q-200.0 25.15 -223.5 20.75 L-224.25 19.5 Q-234.5 19.3 -243.5 17.75 -196.85 17.2 -149.5 14.95 L-133.55 14.05 -128.7 12.2 -127.5 12.0 -126.75 12.75 -128.25 13.65 -120.0 13.0 -118.55 13.1 -120.85 7.15 -122.25 3.7 Q-128.85 2.6 -136.1 3.85 L-141.0 4.05 -200.0 2.0 Q-185.6 -0.9 -170.0 -0.15 L-170.0 -0.25 Q-145.85 -0.3 -122.5 3.25 L-122.75 2.75 -123.0 2.7 -124.75 2.25 Q-126.95 -4.2 -131.05 -8.55 -146.35 -15.6 -162.45 -20.9 -183.0 -27.6 -202.05 -37.15 L-203.45 -37.9 Q-207.65 -40.05 -211.25 -42.75 M-237.0 -23.5 Q-208.25 -16.2 -178.8 -12.4 L-176.5 -11.75 Q-205.95 -14.55 -234.9 -21.5 -238.1 -22.25 -237.0 -23.5 M-69.7 -100.4 Q-76.35 -75.0 -80.6 -49.1 -77.2 -63.65 -72.45 -77.9 L-70.95 -85.8 -65.2 -113.5 Q-67.9 -107.15 -69.7 -100.4 M-46.75 -117.25 Q-53.35 -95.85 -61.1 -74.55 L-61.5 -73.75 Q-63.4 -63.1 -67.8 -53.25 L-67.75 -53.25 Q-69.7 -45.35 -72.4 -37.55 L-72.6 -36.95 -73.55 -32.5 -73.75 -31.75 Q-74.3 -38.0 -72.1 -46.05 L-72.0 -46.75 -72.75 -48.25 Q-63.55 -76.7 -52.8 -104.7 -50.1 -111.8 -46.75 -117.25 M-9.75 -102.5 L-9.75 -101.75 Q-9.45 -100.1 -11.75 -101.0 -12.55 -101.95 -12.2 -103.25 L-12.0 -103.75 -11.75 -103.9 -10.5 -104.0 -9.75 -103.25 -9.75 -102.5 M-128.25 -196.75 L-128.4 -195.3 -128.75 -194.5 -130.0 -194.0 Q-132.0 -194.25 -132.0 -196.0 L-131.85 -196.7 -131.25 -197.5 -130.05 -197.85 -130.0 -198.0 -128.85 -197.4 -128.25 -196.75 M-89.0 -105.5 L-88.85 -104.15 -88.9 -107.2 -89.0 -105.5 M-117.7 -92.4 L-117.75 -92.65 -118.8 -89.5 -119.25 -88.0 -118.5 -85.55 -118.5 -86.25 -117.95 -87.05 -117.7 -92.4 M-91.75 -47.75 Q-91.7 -46.95 -92.0 -46.2 L-92.2 -44.55 -92.2 -43.35 -91.5 -39.2 -91.65 -47.25 -91.8 -48.3 -91.8 -48.2 -91.75 -47.75 M-64.0 -53.75 L-57.6 -72.05 Q-57.5 -72.45 -56.75 -72.25 -58.45 -62.9 -63.6 -54.3 L-64.0 -53.75 M-42.9 -57.35 L-42.5 -56.75 Q-47.15 -46.9 -54.05 -37.5 -59.95 -29.4 -67.85 -24.25 L-71.5 -15.0 -71.75 -14.25 -73.0 -13.75 -74.25 -14.25 -71.4 -23.8 -71.6 -24.3 -71.75 -25.75 -70.15 -27.65 -68.6 -32.2 Q-71.95 -28.3 -76.0 -24.25 L-76.75 -23.5 Q-77.4 -21.8 -76.85 -19.75 L-76.5 -18.25 Q-75.75 -16.95 -74.25 -16.0 -76.05 -15.05 -77.75 -16.75 L-78.55 -21.25 -78.75 -22.75 -67.4 -35.55 -64.4 -43.45 -64.0 -44.0 -63.75 -44.15 -62.5 -44.25 -61.75 -43.5 -64.25 -34.95 Q-55.6 -45.85 -47.55 -57.25 L-47.0 -58.0 -46.25 -58.4 -45.0 -58.75 Q-43.9 -58.15 -42.9 -57.35 M-71.1 -45.95 L-70.75 -47.2 -71.0 -46.75 -71.1 -45.95 M-81.0 -31.75 L-81.45 -34.15 -80.9 -30.35 -77.2 -52.05 Q-79.65 -43.9 -81.25 -35.55 L-80.8 -32.2 Q-80.75 -32.0 -81.0 -31.75 M-62.0 -3.25 Q-45.4 2.2 -27.85 3.7 -26.45 3.8 -26.5 5.25 L-26.8 5.95 -27.35 6.7 -28.0 7.25 Q-47.55 8.45 -64.25 -0.25 L-64.05 -1.7 Q-63.6 -3.3 -62.0 -3.15 L-62.0 -3.25 M-76.75 21.75 Q-75.95 37.85 -75.55 54.0 L-75.5 54.75 -74.5 56.25 Q-74.1 58.45 -74.35 60.75 L-74.5 61.5 -76.0 62.75 -77.25 62.25 Q-78.1 59.4 -77.75 56.25 L-76.5 54.75 -77.45 22.0 Q-77.45 21.55 -76.75 21.75 M-55.15 55.5 Q-57.25 47.85 -59.8 40.4 -57.7 47.4 -55.85 54.55 L-55.15 55.5 M-92.75 11.75 L-92.55 13.25 -92.5 14.0 -95.5 17.75 -95.5 18.5 -100.15 24.2 -101.25 25.95 -100.1 26.85 Q-99.75 27.1 -99.5 27.5 L-106.95 39.9 -105.45 38.5 Q-102.9 36.1 -99.75 34.75 L-110.6 45.75 Q-120.4 61.4 -131.2 76.65 -143.35 93.8 -158.9 106.7 -159.4 107.1 -160.7 106.35 L-161.5 105.75 Q-159.25 97.0 -152.4 89.4 L-146.5 82.55 -147.25 82.25 -144.25 78.75 -143.25 77.25 Q-142.85 75.8 -142.9 74.25 L-142.75 73.5 -141.25 71.35 -142.55 72.45 -143.5 73.25 -143.4 74.0 -143.5 74.75 Q-163.15 97.55 -183.55 119.2 -187.4 123.3 -192.0 126.25 L-194.0 125.0 -194.15 123.5 -194.0 122.75 Q-172.3 101.3 -151.85 78.65 L-146.0 72.5 -143.5 72.0 Q-139.65 68.05 -135.4 64.7 L-132.0 61.75 -122.95 49.55 -133.95 60.4 -133.85 60.55 -133.5 61.25 -135.75 62.25 -135.8 62.2 Q-145.05 70.85 -154.65 79.0 L-162.0 86.5 Q-168.2 92.75 -174.0 99.5 L-175.0 99.75 -176.75 98.5 Q-174.6 93.95 -170.55 90.2 L-169.75 89.5 -169.55 88.7 -169.5 88.0 -164.2 82.95 -165.7 82.55 Q-168.8 81.5 -167.75 78.25 -155.2 68.15 -143.3 57.2 L-138.85 52.4 -140.35 51.05 Q-161.05 64.1 -182.45 75.95 L-191.75 85.05 Q-199.8 93.45 -208.5 101.25 L-209.75 101.25 -210.5 100.5 Q-200.2 89.05 -188.7 78.75 L-189.25 78.5 Q-203.6 86.15 -218.5 85.75 -203.6 85.0 -190.5 77.5 -182.15 71.5 -173.45 65.85 L-170.8 63.8 Q-163.25 58.0 -155.05 53.2 -150.5 50.55 -145.75 48.75 -150.85 51.75 -155.7 55.0 -148.8 50.95 -141.65 47.15 -141.35 44.5 -138.3 41.45 -134.5 37.65 -129.75 34.75 L-129.25 34.55 -128.05 34.35 -128.0 34.25 Q-125.5 34.7 -124.05 36.9 L-111.65 24.15 Q-121.5 26.95 -131.1 31.2 -141.55 35.9 -152.75 38.0 L-168.0 41.0 -169.05 40.3 -170.0 39.0 Q-162.2 34.1 -151.65 32.45 -129.7 29.05 -109.8 19.15 L-107.0 18.0 -105.6 18.15 -97.0 10.5 -95.75 10.75 -96.35 11.4 -97.25 12.25 -97.55 13.75 -97.75 14.5 -97.95 14.8 -97.25 15.0 -95.75 15.5 -95.6 16.1 -93.5 13.5 Q-93.9 12.25 -93.0 11.8 L-92.75 11.75 M-82.75 19.5 Q-78.45 41.85 -82.55 64.45 L-82.75 65.25 Q-81.5 66.6 -81.25 68.25 -81.6 69.75 -83.0 70.5 L-86.15 103.9 -85.3 110.05 -85.5 110.75 -86.65 109.15 -88.25 128.2 Q-89.1 138.5 -92.0 148.25 L-88.2 105.35 Q-88.8 103.05 -88.8 100.25 -88.75 91.55 -90.15 83.0 -91.45 74.9 -90.75 68.75 L-87.35 95.3 -87.0 90.75 -85.25 71.25 Q-85.8 70.0 -86.75 69.0 L-86.7 67.5 -86.5 66.75 -85.0 65.25 Q-80.4 42.6 -83.35 19.7 -83.4 19.3 -82.75 19.5 M-92.85 43.6 Q-92.5 43.85 -92.25 44.25 -95.85 55.65 -100.25 66.75 L-100.35 67.5 -100.5 68.25 -101.15 68.9 Q-104.15 76.3 -107.5 83.6 -106.65 84.2 -105.95 84.95 L-105.75 84.85 -104.5 84.75 -103.75 85.5 -104.35 87.4 Q-103.05 90.6 -104.2 95.2 -105.6 100.6 -107.95 105.75 -109.75 109.65 -112.7 112.05 L-123.05 141.25 Q-127.0 152.05 -133.5 161.25 L-134.75 161.25 -135.5 160.5 Q-126.4 137.75 -117.95 114.75 L-118.0 114.75 Q-120.2 114.45 -121.5 112.75 -121.15 110.45 -120.25 108.15 -123.85 114.4 -127.75 120.5 L-128.05 120.65 -129.5 121.0 Q-136.35 134.8 -144.5 148.0 L-145.5 148.25 Q-137.8 134.55 -130.5 120.5 L-130.9 119.7 -131.0 119.0 Q-124.0 106.1 -117.45 92.9 -125.35 107.45 -134.6 121.5 -146.25 139.2 -158.75 156.25 L-159.05 156.4 -160.5 156.75 Q-165.6 163.15 -171.0 169.25 -167.8 162.95 -162.0 156.75 L-161.8 155.2 -161.75 154.5 Q-144.1 129.55 -128.55 103.15 L-109.15 69.95 Q-108.7 69.1 -108.0 69.0 -107.4 69.25 -106.85 69.6 L-106.55 69.9 -104.2 64.65 Q-102.15 60.1 -100.4 55.5 L-100.15 46.3 Q-106.35 59.0 -113.35 71.45 -116.5 77.1 -120.0 82.25 -107.15 56.65 -94.5 29.75 -91.55 23.4 -87.75 18.75 -93.4 32.45 -99.9 45.8 L-99.75 45.75 -99.5 53.05 -97.45 46.85 Q-96.45 43.7 -94.0 43.0 L-92.85 43.6 M-122.75 68.75 Q-133.85 85.45 -146.95 101.0 L-147.5 101.75 -147.65 103.25 -147.5 104.0 Q-158.35 121.7 -172.3 136.95 L-173.0 137.75 Q-177.3 138.0 -181.0 137.0 -170.3 131.3 -163.6 119.6 L-157.65 109.25 Q-154.35 103.6 -149.0 101.5 -135.75 85.8 -123.7 69.0 -123.4 68.55 -122.75 68.75 M-132.0 92.5 Q-131.15 91.45 -130.85 90.2 L-130.75 89.5 -129.05 88.4 -129.0 88.25 -126.9 89.0 -126.5 89.5 Q-126.6 91.9 -128.45 94.0 L-129.0 94.75 Q-134.0 107.8 -143.95 119.0 L-164.75 142.5 Q-167.0 143.35 -168.25 141.5 L-168.7 139.95 -168.75 139.25 Q-150.3 117.1 -133.6 93.8 -133.0 93.0 -132.0 92.5 M-114.75 98.1 L-116.65 101.7 Q-114.2 98.3 -112.85 94.5 L-114.75 98.1 M-111.75 121.8 L-111.0 121.75 -110.5 121.75 -109.75 122.5 -120.5 151.0 -120.75 151.75 -122.0 152.25 -123.25 151.75 Q-119.65 136.65 -112.4 122.55 L-112.0 122.0 -111.75 121.8 M-102.75 120.75 Q-103.7 129.8 -106.75 138.4 L-105.6 139.15 -105.0 139.75 Q-109.25 167.9 -119.75 195.55 -121.6 200.4 -125.8 203.0 -127.0 203.75 -128.5 204.0 L-129.35 205.4 -130.5 207.0 -131.05 206.95 Q-133.8 216.25 -137.35 225.45 L-137.75 226.25 Q-138.15 222.2 -136.05 216.3 L-131.05 201.95 Q-131.3 192.0 -126.65 181.95 -121.65 171.1 -118.3 159.65 -115.1 148.6 -110.0 138.8 L-106.6 125.95 -106.5 125.25 -103.25 120.9 -102.75 120.75 M-139.0 146.5 Q-137.3 146.9 -136.65 148.55 -136.5 148.85 -136.5 149.25 L-137.4 150.65 -138.0 151.25 -139.0 151.5 Q-141.05 151.3 -141.5 149.5 -141.9 147.55 -140.0 146.8 L-139.0 146.5 M-159.25 181.5 Q-158.25 179.55 -156.0 179.6 L-156.0 179.5 Q-152.7 179.2 -151.75 182.25 L-151.5 183.0 Q-154.15 189.1 -159.25 184.5 L-159.4 183.0 -159.25 181.5 M-24.5 120.0 L-22.95 118.85 -22.0 118.5 Q-17.0 124.05 -15.9 132.4 -15.5 135.4 -15.25 138.5 L-16.25 140.0 -16.75 140.75 -16.55 141.5 -16.25 143.0 Q-17.6 144.1 -18.0 142.25 L-18.25 141.0 -18.3 140.85 -19.75 140.25 Q-23.25 131.2 -24.45 121.45 L-24.5 120.0 M-51.95 122.45 L-50.75 123.25 -50.5 124.0 -50.25 124.75 Q-44.4 134.05 -42.3 145.6 -41.35 151.0 -39.8 156.25 -35.5 170.95 -33.05 185.55 -32.9 186.6 -33.25 187.75 L-33.85 188.35 -35.0 189.0 Q-39.95 185.75 -42.45 180.25 L-42.75 180.25 -43.5 179.5 -44.05 175.6 -44.15 175.2 -48.6 156.2 Q-51.95 141.95 -53.95 127.65 -54.0 127.0 -53.5 126.25 -53.3 124.35 -53.6 122.5 -53.8 121.5 -52.75 121.75 L-51.95 122.45 M-54.5 147.25 Q-51.6 158.35 -49.2 169.7 L-49.0 170.5 -49.5 172.0 -50.75 172.0 Q-54.1 159.85 -55.45 147.45 -55.5 147.0 -54.5 147.25 M-182.5 43.25 Q-183.95 46.6 -189.7 48.65 L-244.95 68.8 -252.0 69.0 Q-223.25 58.4 -194.35 47.0 -188.5 44.7 -182.5 43.25 M-226.5 27.25 L-232.5 27.5 -232.5 26.85 -232.05 26.4 -232.0 26.25 -226.8 26.95 -226.5 27.25 M-235.0 73.5 Q-205.65 67.1 -183.0 49.25 L-181.75 49.75 Q-181.35 51.6 -181.25 53.5 L-181.25 54.25 Q-204.2 72.25 -234.0 76.75 L-235.75 75.5 -235.35 74.05 -235.0 73.5 M-237.75 89.5 Q-237.4 90.6 -238.25 91.75 L-238.75 92.5 Q-240.15 92.2 -240.45 90.25 L-240.5 89.5 Q-240.15 89.1 -239.7 88.95 L-238.5 88.75 -237.75 89.5 M-245.5 25.25 Q-273.0 26.05 -300.55 23.95 -309.6 23.3 -317.25 21.6 L-317.0 21.5 -275.7 23.65 -245.5 25.25 M-323.5 69.25 L-324.1 69.9 -325.0 70.5 -326.75 70.25 -327.35 69.4 -327.5 68.75 -326.9 68.1 -326.0 67.5 -324.5 67.75 -323.85 68.55 -323.5 69.25 M-290.05 78.9 L-290.0 78.75 Q-289.4 79.0 -288.85 79.35 L-288.25 80.0 Q-287.4 82.45 -287.95 85.2 L-288.25 86.0 -288.85 86.6 -290.0 87.25 -291.5 86.75 Q-292.75 83.95 -292.2 80.75 L-292.0 80.0 -290.05 78.9 M-276.5 60.25 L-278.75 61.25 -279.35 60.4 -279.5 59.75 -277.95 58.85 -277.5 58.75 -276.85 59.55 -276.5 60.25 M-270.3 107.75 L-270.0 108.5 -270.3 109.95 Q-270.8 111.8 -272.5 112.75 -288.6 114.95 -303.45 121.45 -304.4 121.85 -305.65 121.05 L-306.25 120.5 -306.45 119.7 -306.45 119.0 -306.25 117.5 Q-294.15 107.8 -278.5 105.25 L-277.0 105.0 Q-272.45 104.0 -270.3 107.75 M-293.0 122.25 Q-290.35 121.9 -289.5 124.25 L-289.25 125.0 Q-291.2 129.65 -295.25 126.5 L-295.5 125.0 -295.25 123.5 -293.05 122.4 -293.0 122.25 M-320.5 167.25 L-322.75 168.25 -323.35 167.4 -323.5 166.75 -321.95 165.85 -321.5 165.75 -320.85 166.55 -320.5 167.25 M-271.5 151.25 Q-248.2 133.9 -226.8 113.95 L-225.75 113.75 Q-246.05 134.55 -270.85 151.05 L-271.5 151.25 M-268.0 196.25 Q-260.35 189.1 -250.55 181.55 -246.2 178.15 -242.6 173.9 -239.9 170.65 -236.75 168.75 -249.05 184.9 -267.05 195.7 L-268.0 196.25 M-164.75 113.75 Q-173.0 123.05 -183.4 130.75 -183.9 131.1 -184.5 131.25 L-165.6 114.15 -164.75 113.75 M-195.5 108.75 L-194.85 109.55 -194.5 110.25 -196.5 112.5 -197.0 113.0 -198.0 113.25 -200.0 112.0 -200.15 110.5 -200.0 109.75 Q-198.7 108.4 -196.75 108.65 L-195.5 108.75 M-232.5 189.5 L-232.8 190.95 -233.0 191.5 Q-235.1 192.85 -236.25 191.25 -236.15 189.65 -234.9 188.65 L-234.0 188.25 -232.9 188.9 -232.5 189.5 M-190.75 162.75 Q-191.1 164.25 -192.5 165.0 L-194.25 164.25 -193.45 162.8 -193.0 162.25 -192.75 162.05 -192.0 162.0 -191.5 162.0 -190.75 162.75 M-172.2 190.85 L-171.05 190.35 -171.0 190.25 -170.05 190.35 -168.75 190.75 -168.45 192.25 -168.5 193.75 -168.8 194.2 -169.05 194.4 -170.0 194.75 Q-172.9 193.95 -172.75 191.25 L-172.2 190.85 M-176.0 223.5 Q-174.15 223.25 -173.05 224.75 L-172.5 225.5 -172.65 226.95 -173.0 228.5 -173.55 228.95 -174.0 229.2 -175.0 229.5 Q-178.0 228.8 -178.5 226.0 L-177.9 224.55 -177.5 224.0 -177.0 223.8 -176.05 223.6 -176.0 223.5 M-221.0 236.0 Q-221.5 234.3 -220.0 234.25 L-219.5 234.25 Q-218.05 236.35 -220.5 236.35 L-221.0 236.0 M-16.75 208.5 Q-11.2 224.7 -4.8 240.75 L-4.5 241.5 -4.7 242.05 -5.5 242.5 Q-13.0 226.1 -17.25 208.6 L-16.75 208.5 M-59.75 272.75 Q-59.15 275.85 -57.65 278.65 L-57.0 279.5 -56.8 281.0 -56.75 281.75 -57.75 283.25 -59.25 282.5 Q-59.0 279.35 -60.35 276.5 L-60.75 275.75 -60.5 273.0 Q-60.5 272.5 -59.75 272.75" fill="#ffffff" fill-rule="evenodd" stroke="none"/>
  </g>
</svg>
