<?xml version="1.0" encoding="UTF-8" standalone="no"?>
<svg xmlns:xlink="http://www.w3.org/1999/xlink" height="23.5px" width="24.5px" xmlns="http://www.w3.org/2000/svg">
  <g transform="matrix(1.0, 0.0, 0.0, 1.0, 12.25, 11.7)">
    <path d="M8.75 -4.0 L-6.25 -4.0 Q-7.3 -4.0 -8.05 -4.75 -8.75 -5.45 -8.75 -6.5 L-8.75 -11.7 8.75 -11.7 8.75 -4.0 M10.5 9.2 L10.05 9.4 Q9.3 10.25 10.35 10.7 L10.8 10.6 Q11.8 9.7 10.5 9.2 M9.25 -3.0 L9.6 -3.15 9.75 -3.5 9.75 -11.7 11.5 -11.7 12.0 -11.5 12.25 -11.0 12.25 11.05 12.0 11.55 11.5 11.8 -11.5 11.8 -12.0 11.55 -12.25 11.05 -12.25 -11.0 -12.0 -11.5 -11.5 -11.7 -9.75 -11.7 -9.75 -6.5 Q-9.75 -5.05 -8.75 -4.05 -7.7 -3.0 -6.25 -3.0 L9.25 -3.0" fill="#ffffff" fill-rule="evenodd" stroke="none"/>
  </g>
</svg>
