<?xml version="1.0" encoding="UTF-8" standalone="no"?>
<svg xmlns:xlink="http://www.w3.org/1999/xlink" height="456.65px" width="564.65px" xmlns="http://www.w3.org/2000/svg">
  <g transform="matrix(1.0, 0.0, 0.0, 1.0, 6.35, 6.35)">
    <path d="M553.95 -6.0 Q555.6 -6.0 556.75 -4.85 557.95 -3.65 557.95 -2.0 L557.95 445.95 Q557.95 447.6 556.75 448.75 555.6 449.95 553.95 449.95 L-2.0 449.95 Q-3.65 449.95 -4.85 448.75 -6.0 447.6 -6.0 445.95 L-6.0 -2.0 Q-6.0 -3.65 -4.85 -4.85 -3.65 -6.0 -2.0 -6.0 L553.95 -6.0" fill="#000000" fill-rule="evenodd" stroke="none"/>
    <path d="M553.95 -6.0 L-2.0 -6.0 Q-3.65 -6.0 -4.85 -4.85 -6.0 -3.65 -6.0 -2.0 L-6.0 445.95 Q-6.0 447.6 -4.85 448.75 -3.65 449.95 -2.0 449.95 L553.95 449.95 Q555.6 449.95 556.75 448.75 557.95 447.6 557.95 445.95 L557.95 -2.0 Q557.95 -3.65 556.75 -4.85 555.6 -6.0 553.95 -6.0 Z" fill="none" stroke="#000000" stroke-linecap="round" stroke-linejoin="round" stroke-width="0.75"/>
  </g>
</svg>
