<?xml version="1.0" encoding="UTF-8" standalone="no"?>
<svg xmlns:xlink="http://www.w3.org/1999/xlink" height="14.7px" width="83.6px" xmlns="http://www.w3.org/2000/svg">
  <g transform="matrix(1.0, 0.0, 0.0, 1.0, 51.15, 7.6)">
    <path d="M30.85 -2.5 Q32.45 -1.3 32.45 0.65 32.45 1.55 31.9 2.1 31.35 2.6 30.45 2.6 L25.05 2.6 Q25.4 3.6 26.75 3.6 L27.75 3.4 28.75 3.2 Q29.35 3.2 29.75 3.6 30.2 4.0 30.2 4.6 30.2 5.8 28.75 6.55 L26.25 7.1 Q24.05 7.1 22.55 5.9 21.0 4.6 21.0 2.4 21.0 -0.2 22.9 -2.0 24.75 -3.7 27.45 -3.7 29.4 -3.7 30.85 -2.5 M27.1 -0.6 Q25.75 -0.6 25.25 0.75 L28.55 0.75 Q28.6 0.2 28.15 -0.2 27.7 -0.6 27.1 -0.6" fill="#009900" fill-rule="evenodd" stroke="none"/>
    <path d="M18.1 -2.95 L18.15 -3.05 Q18.6 -3.7 19.4 -3.7 21.0 -3.7 21.0 -2.3 L20.8 -0.1 Q20.7 0.65 20.2 1.15 19.7 1.65 18.9 1.65 18.2 1.65 17.75 1.15 L17.1 0.2 Q16.65 -0.25 15.9 -0.25 15.0 -0.25 14.45 0.35 13.85 1.0 13.85 1.85 13.85 2.6 14.3 3.1 14.8 3.6 15.55 3.6 L17.15 3.0 Q18.2 2.45 18.55 2.45 L19.65 2.85 Q20.1 3.3 20.1 3.95 20.1 4.85 18.9 5.8 17.3 7.05 15.0 7.05 12.8 7.05 11.4 5.85 9.85 4.6 9.85 2.4 9.85 -0.1 11.55 -1.9 13.25 -3.7 15.75 -3.7 17.25 -3.7 18.1 -2.95" fill="#009900" fill-rule="evenodd" stroke="none"/>
    <path d="M9.05 -7.05 Q9.65 -6.45 9.65 -5.65 9.65 -4.8 9.05 -4.25 8.45 -3.7 7.65 -3.7 6.85 -3.7 6.25 -4.25 5.7 -4.85 5.7 -5.65 5.7 -6.45 6.3 -7.05 6.85 -7.6 7.65 -7.6 8.45 -7.6 9.05 -7.05 M4.45 -2.85 Q5.0 -3.35 5.85 -3.35 L7.8 -3.35 Q8.5 -3.35 9.0 -2.95 9.5 -2.55 9.45 -1.8 L9.4 -1.55 8.7 5.0 Q8.65 5.8 8.1 6.25 7.6 6.75 6.8 6.75 L4.8 6.75 3.7 6.3 Q3.25 5.85 3.25 5.15 3.25 4.35 3.75 3.8 4.3 3.25 5.15 3.3 L5.5 0.1 Q3.9 -0.05 3.9 -1.5 3.9 -2.35 4.45 -2.85" fill="#009900" fill-rule="evenodd" stroke="none"/>
    <path d="M2.0 -0.15 L-2.15 -0.15 -2.4 2.1 -2.4 2.4 -2.45 2.7 -2.15 3.4 Q-1.85 3.7 -1.45 3.7 -0.65 3.7 -0.2 2.9 L0.55 1.5 Q1.1 0.7 2.05 0.7 2.7 0.7 3.15 1.15 3.55 1.6 3.55 2.25 3.55 4.25 1.8 5.7 0.15 7.05 -1.85 7.05 -3.75 7.05 -4.95 5.9 -6.15 4.7 -6.15 2.85 L-6.15 2.3 -5.4 -4.7 Q-5.3 -5.6 -4.8 -6.2 -4.2 -6.85 -3.35 -6.85 -2.6 -6.85 -2.15 -6.35 -1.7 -5.85 -1.7 -5.1 L-1.85 -3.35 2.45 -3.35 Q3.15 -3.35 3.6 -3.0 4.05 -2.6 4.05 -1.9 4.05 -1.1 3.45 -0.65 2.85 -0.15 2.0 -0.15" fill="#009900" fill-rule="evenodd" stroke="none"/>
    <path d="M-9.35 -2.95 L-9.3 -3.05 Q-8.85 -3.7 -8.05 -3.7 -6.45 -3.7 -6.45 -2.3 L-6.65 -0.1 Q-6.75 0.65 -7.25 1.15 -7.75 1.65 -8.55 1.65 -9.25 1.65 -9.7 1.15 L-10.35 0.2 Q-10.8 -0.25 -11.55 -0.25 -12.45 -0.25 -13.0 0.35 -13.6 1.0 -13.6 1.85 L-13.15 3.1 Q-12.65 3.6 -11.9 3.6 -11.35 3.6 -10.3 3.0 L-8.9 2.45 Q-8.3 2.45 -7.8 2.85 -7.35 3.3 -7.35 3.95 -7.35 4.85 -8.55 5.8 -10.15 7.05 -12.45 7.05 -14.65 7.05 -16.05 5.85 -17.6 4.6 -17.6 2.4 -17.6 -0.1 -15.9 -1.9 -14.2 -3.7 -11.7 -3.7 -10.2 -3.7 -9.35 -2.95" fill="#009900" fill-rule="evenodd" stroke="none"/>
    <path d="M-20.1 -2.3 Q-18.75 -0.95 -18.75 1.2 L-18.9 3.25 -17.95 3.7 Q-17.6 3.95 -17.6 4.65 -17.6 5.6 -18.1 6.15 -18.6 6.75 -19.55 6.75 L-21.1 6.75 Q-22.4 6.75 -22.5 5.9 -23.7 7.0 -25.6 7.0 -27.55 7.0 -28.75 5.7 -30.0 4.35 -30.0 2.4 -30.0 -0.2 -28.15 -1.95 -26.3 -3.65 -23.65 -3.65 -21.5 -3.65 -20.1 -2.3 M-22.45 1.5 Q-22.45 0.75 -22.9 0.25 -23.4 -0.2 -24.15 -0.2 -25.0 -0.2 -25.65 0.4 -26.3 1.05 -26.3 1.9 -26.3 2.65 -25.8 3.15 -25.3 3.65 -24.6 3.65 -23.7 3.65 -23.1 3.0 -22.45 2.35 -22.45 1.5" fill="#009900" fill-rule="evenodd" stroke="none"/>
    <path d="M-34.55 -3.65 Q-32.7 -3.65 -31.45 -2.45 -30.15 -1.25 -30.15 0.55 -30.15 1.4 -30.7 2.0 -31.25 2.6 -32.05 2.6 -32.95 2.6 -33.35 1.85 L-33.85 0.55 Q-34.25 -0.2 -34.85 -0.2 -35.9 -0.2 -36.2 1.05 L-36.45 3.3 Q-34.8 3.4 -34.8 4.85 -34.8 5.75 -35.4 6.25 -36.0 6.75 -36.9 6.75 L-38.75 6.75 Q-39.4 6.75 -39.9 6.3 L-40.35 5.15 -40.1 2.9 -39.95 1.4 Q-39.75 -0.85 -38.25 -2.25 -36.75 -3.65 -34.55 -3.65" fill="#009900" fill-rule="evenodd" stroke="none"/>
    <path d="M-48.75 -5.4 Q-47.25 -6.85 -44.7 -6.85 -42.8 -6.85 -41.55 -5.8 -40.25 -4.6 -40.25 -2.75 -40.25 -0.5 -41.75 0.95 -43.3 2.4 -45.5 2.4 L-47.15 2.4 -47.25 3.25 Q-46.5 3.25 -46.05 3.65 -45.6 4.05 -45.6 4.75 -45.6 5.6 -46.2 6.15 -46.8 6.75 -47.6 6.75 L-49.4 6.75 Q-51.15 6.75 -51.15 5.25 L-50.9 1.9 -50.5 -1.45 Q-50.2 -4.0 -48.75 -5.4 M-46.8 -0.85 L-45.2 -0.85 Q-44.55 -0.85 -44.1 -1.25 -43.7 -1.7 -43.7 -2.35 -43.7 -3.55 -45.0 -3.55 -46.1 -3.55 -46.45 -2.7 L-46.8 -0.85" fill="#009900" fill-rule="evenodd" stroke="none"/>
  </g>
</svg>
