<?xml version="1.0" encoding="UTF-8" standalone="no"?>
<svg xmlns:xlink="http://www.w3.org/1999/xlink" height="46.0px" width="46.5px" xmlns="http://www.w3.org/2000/svg">
  <g transform="matrix(1.0, 0.0, 0.0, 1.0, 23.35, 23.15)">
    <path d="M22.65 -0.15 Q22.65 9.15 15.95 15.75 9.3 22.35 -0.1 22.35 -9.5 22.35 -16.2 15.75 -22.85 9.15 -22.85 -0.15 -22.85 -9.45 -16.2 -16.05 -9.5 -22.65 -0.1 -22.65 9.3 -22.65 15.95 -16.05 22.65 -9.45 22.65 -0.15 Z" fill="none" stroke="#000000" stroke-linecap="round" stroke-linejoin="round" stroke-width="1.0"/>
    <path d="M11.85 -0.15 L12.05 -0.4 12.35 -0.55 12.7 -0.45 Q13.9 0.55 15.5 0.85 17.3 1.15 18.9 0.4 L19.75 -0.25 20.05 -0.45 20.4 -0.4 20.6 -0.25 20.9 -0.05 21.0 0.35 Q20.1 6.85 16.3 12.45 L16.2 12.6 16.15 12.6 16.1 12.65 16.0 12.75 15.65 13.45 15.45 13.7 15.1 13.75 14.8 13.6 14.65 13.35 Q14.5 12.05 13.25 11.6 L13.2 11.55 Q11.35 10.8 10.05 11.15 L9.7 11.1 9.45 10.9 9.4 10.55 9.6 10.25 Q14.95 5.95 11.9 0.2 L11.85 -0.15 M8.25 -1.25 Q11.55 0.95 11.55 4.1 11.55 7.25 8.25 9.45 4.95 11.65 0.3 11.65 -4.4 11.65 -7.7 9.45 -11.0 7.25 -10.95 4.1 -11.0 0.95 -7.7 -1.25 -4.4 -3.5 0.3 -3.45 4.95 -3.5 8.25 -1.25 M0.35 -12.95 L-1.35 -12.95 -1.35 -20.95 0.35 -20.95 0.35 -12.95 M4.3 -4.9 Q-0.05 -6.15 -5.1 -4.5 L-5.1 -12.0 4.4 -12.0 4.3 -4.9 M14.75 8.55 L14.6 8.55 14.0 8.7 Q13.35 8.6 12.75 9.1 L13.25 10.1 14.35 10.95 14.5 10.9 14.75 10.95 Q15.85 11.05 16.3 10.0 16.95 8.55 15.4 8.35 L15.2 8.4 14.75 8.55 M13.5 7.2 L13.45 7.15 13.4 7.2 13.45 7.2 13.5 7.2 M13.85 7.65 L13.75 7.55 13.75 7.65 13.85 7.65 M14.75 5.1 Q14.35 5.15 14.2 5.5 13.6 6.65 14.8 7.25 15.75 7.7 16.05 6.8 16.55 5.25 14.75 5.1 M16.75 2.4 Q16.4 2.4 16.2 2.7 15.7 3.6 16.55 4.25 L16.7 4.65 Q16.85 5.25 17.5 5.15 L17.6 5.1 Q18.85 5.2 18.7 3.8 L18.75 3.7 Q19.3 2.45 18.0 2.2 L16.75 2.4 M4.25 20.25 L-2.75 20.25 Q-4.45 17.05 -4.65 12.65 0.0 14.35 4.4 12.75 L4.25 20.25" fill="#000000" fill-rule="evenodd" stroke="none"/>
    <path d="M-15.95 9.75 L-16.05 10.2 -15.6 11.4 -14.45 11.35 Q-13.25 10.85 -13.15 9.45 -13.1 8.85 -13.45 8.5 -15.2 8.45 -15.95 9.75 M-18.9 6.2 L-18.85 6.35 -18.8 6.2 -18.9 6.2 M-18.3 7.75 L-18.25 7.75 -18.3 7.7 -18.4 7.6 -18.35 7.75 -18.3 7.75 M-16.85 5.1 L-17.25 5.15 Q-19.1 5.3 -18.65 7.05 L-17.9 7.8 Q-16.85 8.1 -16.3 7.1 -15.55 5.75 -16.85 5.1 M-14.6 5.4 L-14.35 5.3 Q-13.2 4.3 -14.6 3.7 -15.1 3.75 -15.3 4.25 -15.8 5.3 -14.6 5.4 M-11.75 -0.65 L-11.55 -0.45 -11.5 -0.4 -11.25 -0.1 -11.3 0.25 Q-14.75 6.15 -9.45 10.2 L-9.25 10.55 -9.3 10.9 -9.6 11.1 Q-12.45 11.8 -13.65 14.45 L-13.4 14.65 -13.25 15.0 -13.4 15.35 -13.75 15.5 -14.1 15.35 -14.5 15.0 -14.55 14.95 -14.6 14.9 -14.65 14.85 Q-19.5 10.1 -20.65 3.4 L-20.6 3.1 -20.4 2.9 -20.2 2.8 -20.0 2.85 -19.95 2.85 -19.9 2.9 -18.65 3.1 Q-14.7 3.65 -12.45 -0.5 L-12.15 -0.7 -11.75 -0.65" fill="#000000" fill-rule="evenodd" stroke="none"/>
  </g>
</svg>
