<?xml version="1.0" encoding="UTF-8" standalone="no"?>
<svg xmlns:xlink="http://www.w3.org/1999/xlink" height="46.0px" width="46.5px" xmlns="http://www.w3.org/2000/svg">
  <g transform="matrix(1.0, 0.0, 0.0, 1.0, 23.35, 23.15)">
    <path d="M22.65 -0.15 Q22.65 9.15 15.95 15.75 9.3 22.35 -0.1 22.35 -9.5 22.35 -16.2 15.75 -22.85 9.15 -22.85 -0.15 -22.85 -9.45 -16.2 -16.05 -9.5 -22.65 -0.1 -22.65 9.3 -22.65 15.95 -16.05 22.65 -9.45 22.65 -0.15 Z" fill="none" stroke="#000000" stroke-linecap="round" stroke-linejoin="round" stroke-width="1.0"/>
    <path d="M0.35 -12.95 L-1.35 -12.95 -1.35 -20.95 0.35 -20.95 0.35 -12.95 M2.05 -8.9 L1.85 -9.1 1.75 -9.1 1.45 -9.1 1.3 -9.05 1.0 -9.05 -0.4 -8.5 Q-2.9 -7.65 -5.1 -6.1 L-5.1 -12.0 4.4 -12.0 4.4 -8.95 3.35 -7.55 3.0 -7.15 2.95 -7.1 2.3 -6.45 1.15 -6.55 0.9 -6.55 1.45 -7.25 2.1 -8.6 2.05 -8.9 M-4.65 12.65 Q0.0 14.35 4.4 12.75 L4.25 20.25 -2.75 20.25 Q-4.45 17.05 -4.65 12.65" fill="#000000" fill-rule="evenodd" stroke="none"/>
    <path d="M6.65 -0.15 Q4.0 -1.95 0.3 -1.9 -3.45 -1.95 -6.1 -0.15 -8.75 1.6 -8.7 4.15 -8.75 6.65 -6.1 8.4 -3.45 10.15 0.3 10.2 4.0 10.15 6.65 8.4 9.3 6.65 9.3 4.15 9.3 1.6 6.65 -0.15 M14.25 -14.55 L14.0 -14.3 Q11.95 -13.15 13.4 -9.65 L15.05 -9.6 Q15.85 -10.1 16.3 -11.6 L16.5 -11.9 16.9 -11.95 17.2 -11.75 Q17.75 -10.95 17.4 -9.4 16.9 -7.55 16.05 -5.9 15.25 -4.5 15.35 -4.25 L17.05 -4.95 17.35 -5.0 17.65 -4.85 17.75 -4.55 17.7 -4.2 Q17.0 -3.1 15.35 -2.0 13.55 -0.85 13.45 1.1 13.25 5.3 10.9 7.85 L9.05 9.25 7.95 10.15 Q4.6 12.4 -0.1 12.4 -4.85 12.4 -8.15 10.15 -11.6 7.8 -11.6 4.35 -11.3 2.2 -10.0 0.0 L-8.55 -2.0 -5.75 -4.75 -5.65 -4.8 -5.65 -4.85 -5.35 -5.1 -4.35 -5.8 Q-2.2 -7.3 0.2 -8.15 L0.35 -8.2 0.65 -8.2 0.75 -8.2 0.95 -8.0 1.0 -7.7 0.9 -7.4 0.7 -7.2 0.6 -7.1 0.0 -6.35 -0.5 -5.7 -0.45 -5.7 -0.2 -5.65 0.05 -5.65 1.2 -5.55 2.3 -5.45 3.0 -6.1 3.7 -6.8 3.75 -6.85 4.1 -7.25 5.15 -8.65 5.95 -10.3 6.2 -10.55 Q6.65 -10.75 6.85 -10.35 8.1 -8.15 6.9 -5.4 L7.9 -5.85 Q8.25 -6.25 8.15 -7.1 L8.15 -7.15 Q7.25 -14.6 13.7 -15.25 L14.05 -15.15 14.25 -14.9 14.25 -14.55" fill="#000000" fill-rule="evenodd" stroke="none"/>
  </g>
</svg>
