<?xml version="1.0" encoding="UTF-8" standalone="no"?>
<svg xmlns:xlink="http://www.w3.org/1999/xlink" height="17.85px" width="108.5px" xmlns="http://www.w3.org/2000/svg">
  <g transform="matrix(1.0, 0.0, 0.0, 1.0, 57.85, 8.1)">
    <path d="M46.0 -4.95 Q48.1 -4.95 49.35 -3.9 50.65 -2.85 50.65 -0.75 L50.65 -0.5 50.25 3.65 Q50.05 5.5 48.25 5.5 L46.9 5.5 Q46.15 5.5 45.6 5.05 45.1 4.65 45.1 3.9 45.1 3.2 45.55 2.7 L46.65 2.05 46.85 -0.05 Q46.85 -1.45 45.55 -1.45 44.85 -1.45 44.4 -1.05 43.9 -0.65 43.85 0.0 L43.6 2.05 Q44.15 2.2 44.45 2.6 44.8 3.05 44.8 3.6 44.8 4.4 44.15 4.95 43.5 5.5 42.65 5.5 L41.3 5.5 Q39.7 5.5 39.7 4.0 L39.8 3.0 40.2 -0.65 Q40.65 -2.7 42.0 -3.75 43.55 -4.95 46.0 -4.95" fill="#009900" fill-rule="evenodd" stroke="none"/>
    <path d="M30.0 -4.45 L32.15 -4.6 Q33.95 -4.6 33.95 -3.0 33.95 -1.55 32.45 -1.15 L32.2 1.15 Q32.2 1.7 32.6 2.1 32.95 2.45 33.5 2.45 35.0 2.45 35.2 0.95 L35.4 -1.15 Q34.25 -1.5 34.25 -2.7 34.25 -3.6 34.9 -4.1 35.55 -4.6 36.45 -4.6 L37.55 -4.6 Q39.35 -4.6 39.35 -3.1 L39.3 -2.6 38.95 0.9 Q38.5 5.8 33.05 5.8 31.0 5.8 29.75 4.85 28.45 3.85 28.45 1.85 L28.45 1.3 28.9 -2.75 Q29.0 -4.1 30.0 -4.45" fill="#009900" fill-rule="evenodd" stroke="none"/>
    <path d="M19.4 -6.7 Q20.95 -8.1 23.3 -8.1 25.3 -8.1 26.6 -6.95 27.95 -5.8 27.95 -3.85 27.95 -2.5 27.2 -1.25 26.5 0.0 25.25 0.55 L25.85 2.05 27.4 2.3 Q28.05 2.7 28.05 3.6 28.05 4.45 27.45 5.0 26.8 5.5 25.9 5.5 L23.85 5.5 23.35 5.05 21.55 1.05 20.9 1.05 20.4 5.5 18.5 5.5 Q16.9 5.5 16.9 4.0 L16.9 3.8 17.6 -2.95 Q17.85 -5.35 19.4 -6.7 M22.9 -2.15 Q23.6 -2.15 24.05 -2.5 24.45 -2.9 24.45 -3.55 24.45 -4.1 24.05 -4.45 23.7 -4.8 23.15 -4.8 21.95 -4.8 21.55 -3.95 21.35 -3.55 21.25 -2.15 L22.9 -2.15" fill="#009900" fill-rule="evenodd" stroke="none"/>
    <path d="M2.6 -4.6 L3.8 -4.6 Q5.6 -4.6 5.6 -3.05 5.6 -2.35 5.15 -1.8 L4.05 -1.15 3.95 -0.1 Q3.95 0.45 4.35 0.8 4.75 1.2 5.3 1.2 6.95 1.2 7.15 -1.2 6.55 -1.25 6.25 -1.65 5.9 -2.1 5.9 -2.7 5.9 -3.5 6.5 -4.05 7.05 -4.6 7.85 -4.6 L9.35 -4.6 Q11.05 -4.6 11.05 -3.05 L11.05 -2.8 10.3 3.9 Q10.05 6.55 8.6 8.1 7.05 9.75 4.5 9.75 3.0 9.75 1.45 8.8 -0.25 7.75 -0.25 6.35 -0.25 5.65 0.3 5.1 0.85 4.55 1.5 4.55 2.05 4.55 3.1 5.4 4.2 6.25 4.75 6.25 5.7 6.25 6.2 5.5 6.65 4.85 6.6 3.85 5.75 4.6 4.25 4.6 2.45 4.6 1.3 3.5 0.15 2.35 0.15 0.55 L0.45 -2.65 Q0.65 -4.6 2.6 -4.6" fill="#009900" fill-rule="evenodd" stroke="none"/>
    <path d="M-7.6 -8.1 Q-6.85 -8.1 -6.4 -7.6 -5.95 -7.1 -5.95 -6.35 L-6.1 -4.6 -1.8 -4.6 Q-1.1 -4.6 -0.65 -4.25 -0.2 -3.85 -0.2 -3.15 -0.2 -2.35 -0.8 -1.9 -1.4 -1.4 -2.25 -1.4 L-6.4 -1.4 -6.65 0.85 -6.65 1.15 -6.7 1.45 -6.4 2.15 -5.7 2.45 Q-4.9 2.45 -4.45 1.65 L-3.7 0.25 Q-3.15 -0.55 -2.2 -0.55 -1.55 -0.55 -1.1 -0.1 -0.7 0.35 -0.7 1.0 -0.7 3.0 -2.45 4.45 -4.1 5.8 -6.1 5.8 -8.0 5.8 -9.2 4.65 -10.4 3.45 -10.4 1.6 L-10.4 1.05 -9.65 -5.95 Q-9.55 -6.85 -9.05 -7.45 -8.45 -8.1 -7.6 -8.1" fill="#009900" fill-rule="evenodd" stroke="none"/>
    <path d="M-16.0 -4.95 Q-13.9 -4.95 -12.65 -3.9 -11.35 -2.85 -11.35 -0.75 L-11.35 -0.5 -11.75 3.65 Q-11.95 5.5 -13.75 5.5 L-15.1 5.5 -16.4 5.05 Q-16.9 4.65 -16.9 3.9 -16.9 3.2 -16.45 2.7 -16.0 2.2 -15.35 2.05 L-15.15 -0.05 Q-15.15 -1.45 -16.45 -1.45 -17.15 -1.45 -17.6 -1.05 L-18.15 0.0 -18.4 2.05 Q-17.85 2.2 -17.55 2.6 -17.2 3.05 -17.2 3.6 -17.2 4.4 -17.85 4.95 -18.5 5.5 -19.35 5.5 L-20.7 5.5 Q-22.3 5.5 -22.3 4.0 L-22.2 3.0 -21.8 -0.65 Q-21.35 -2.7 -20.0 -3.75 -18.45 -4.95 -16.0 -4.95" fill="#009900" fill-rule="evenodd" stroke="none"/>
    <path d="M-32.0 -4.45 L-29.85 -4.6 Q-28.05 -4.6 -28.05 -3.0 -28.05 -1.55 -29.55 -1.15 L-29.8 1.15 Q-29.8 1.7 -29.4 2.1 -29.05 2.45 -28.5 2.45 -27.0 2.45 -26.8 0.95 L-26.6 -1.15 Q-27.75 -1.5 -27.75 -2.7 -27.75 -3.6 -27.1 -4.1 L-25.55 -4.6 -24.45 -4.6 Q-22.65 -4.6 -22.65 -3.1 L-22.7 -2.6 -23.05 0.9 Q-23.5 5.8 -28.95 5.8 -31.0 5.8 -32.25 4.85 -33.55 3.85 -33.55 1.85 L-33.55 1.3 -33.1 -2.75 Q-33.0 -4.1 -32.0 -4.45" fill="#009900" fill-rule="evenodd" stroke="none"/>
    <path d="M-35.75 -3.7 Q-34.2 -2.4 -34.2 -0.2 -34.2 2.45 -36.15 4.15 -37.95 5.8 -40.65 5.8 -42.9 5.8 -44.3 4.55 -45.8 3.25 -45.8 1.0 -45.8 -1.6 -43.95 -3.3 -42.15 -4.9 -39.45 -4.9 -37.2 -4.9 -35.75 -3.7 M-39.8 -1.65 Q-40.75 -1.65 -41.3 -0.9 -41.9 -0.2 -41.9 0.75 -41.9 1.5 -41.45 2.05 -41.0 2.55 -40.25 2.55 -39.35 2.55 -38.7 1.8 -38.15 1.1 -38.15 0.15 -38.15 -0.6 -38.6 -1.15 -39.05 -1.65 -39.8 -1.65" fill="#009900" fill-rule="evenodd" stroke="none"/>
    <path d="M-52.95 -0.1 L-53.1 1.2 Q-53.1 2.3 -51.7 2.3 -51.1 2.3 -50.65 1.9 -50.2 1.5 -50.2 0.9 -50.2 0.45 -50.55 0.2 L-51.3 -0.1 -52.95 -0.1 M-52.55 -4.35 L-52.7 -2.6 -51.1 -2.6 Q-50.1 -2.6 -50.1 -3.65 -50.1 -4.35 -50.85 -4.35 L-52.55 -4.35 M-55.8 -7.8 L-49.5 -7.8 Q-48.15 -7.8 -47.25 -7.0 -46.3 -6.2 -46.3 -4.85 -46.3 -3.25 -47.5 -2.15 -46.35 -1.25 -46.35 0.4 -46.35 2.85 -48.15 4.35 -49.85 5.8 -52.35 5.8 -54.35 5.8 -55.55 4.65 -56.8 3.5 -56.8 1.55 L-56.75 0.95 -56.2 -4.35 Q-57.85 -4.5 -57.85 -5.9 -57.85 -6.75 -57.25 -7.25 -56.65 -7.8 -55.8 -7.8" fill="#009900" fill-rule="evenodd" stroke="none"/>
  </g>
</svg>
