<?xml version="1.0" encoding="UTF-8" standalone="no"?>
<svg xmlns:xlink="http://www.w3.org/1999/xlink" height="18.35px" width="76.05px" xmlns="http://www.w3.org/2000/svg">
  <g transform="matrix(1.0, 0.0, 0.0, 1.0, 37.5, 7.6)">
    <path d="M33.15 -3.35 L36.9 -3.35 Q38.55 -3.35 38.55 -1.75 L38.4 -0.05 33.3 -0.05 33.0 0.1 32.95 0.4 Q32.95 0.6 33.45 0.6 L34.15 0.55 34.85 0.5 Q36.3 0.5 37.2 1.15 38.25 1.95 38.25 3.3 38.25 4.8 37.25 5.75 36.25 6.75 34.75 6.75 L30.35 6.75 Q28.8 6.75 28.8 5.2 L28.95 3.45 34.2 3.45 Q34.5 3.45 34.6 3.3 L34.5 2.95 33.6 2.85 32.7 2.95 Q31.25 2.95 30.35 2.25 29.3 1.5 29.3 0.1 29.3 -1.5 30.45 -2.45 31.5 -3.35 33.15 -3.35" fill="#009900" fill-rule="evenodd" stroke="none"/>
    <path d="M27.05 -2.65 Q28.35 -1.6 28.35 0.5 L28.35 0.75 27.95 4.9 Q27.75 6.75 25.95 6.75 L24.6 6.75 Q23.85 6.75 23.3 6.3 22.8 5.9 22.8 5.15 22.8 4.45 23.25 3.95 23.7 3.45 24.35 3.3 L24.55 1.2 Q24.55 -0.2 23.25 -0.2 22.55 -0.2 22.1 0.2 21.6 0.6 21.55 1.25 L21.3 3.3 22.15 3.85 22.5 4.85 Q22.5 5.65 21.85 6.2 21.2 6.75 20.35 6.75 L19.0 6.75 Q17.4 6.75 17.4 5.25 L17.5 4.25 17.9 0.6 Q18.35 -1.45 19.7 -2.5 21.25 -3.7 23.7 -3.7 25.8 -3.7 27.05 -2.65" fill="#009900" fill-rule="evenodd" stroke="none"/>
    <path d="M15.45 -2.45 Q17.0 -1.15 17.0 1.05 17.0 3.7 15.05 5.4 13.25 7.05 10.55 7.05 8.3 7.05 6.9 5.8 5.4 4.5 5.4 2.25 5.4 -0.35 7.25 -2.05 9.05 -3.65 11.75 -3.65 14.0 -3.65 15.45 -2.45 M12.5 3.05 Q13.05 2.35 13.05 1.4 13.05 0.65 12.6 0.1 12.15 -0.4 11.4 -0.4 10.45 -0.4 9.9 0.35 9.3 1.05 9.3 2.0 9.3 2.75 9.75 3.3 10.2 3.8 10.95 3.8 11.85 3.8 12.5 3.05" fill="#009900" fill-rule="evenodd" stroke="none"/>
    <path d="M4.5 -7.05 Q5.1 -6.45 5.1 -5.65 5.1 -4.8 4.5 -4.25 3.9 -3.7 3.1 -3.7 2.3 -3.7 1.7 -4.25 1.15 -4.85 1.15 -5.65 1.15 -6.45 1.75 -7.05 2.3 -7.6 3.1 -7.6 3.9 -7.6 4.5 -7.05 M3.25 -3.35 Q3.95 -3.35 4.45 -2.95 4.95 -2.55 4.9 -1.8 L4.85 -1.55 4.15 5.0 Q4.1 5.8 3.55 6.25 3.05 6.75 2.25 6.75 L0.25 6.75 Q-0.4 6.75 -0.85 6.3 -1.3 5.85 -1.3 5.15 -1.3 4.35 -0.8 3.8 -0.25 3.25 0.6 3.3 L0.95 0.1 Q-0.65 -0.05 -0.65 -1.5 -0.65 -2.35 -0.1 -2.85 0.45 -3.35 1.3 -3.35 L3.25 -3.35" fill="#009900" fill-rule="evenodd" stroke="none"/>
    <path d="M-7.9 -6.85 Q-7.15 -6.85 -6.7 -6.35 -6.25 -5.85 -6.25 -5.1 L-6.4 -3.35 -2.1 -3.35 Q-1.4 -3.35 -0.95 -3.0 -0.5 -2.6 -0.5 -1.9 -0.5 -1.1 -1.1 -0.65 -1.7 -0.15 -2.55 -0.15 L-6.7 -0.15 -6.95 2.1 -6.95 2.4 -7.0 2.7 -6.7 3.4 Q-6.4 3.7 -6.0 3.7 -5.2 3.7 -4.75 2.9 L-4.0 1.5 Q-3.45 0.7 -2.5 0.7 -1.85 0.7 -1.4 1.15 -1.0 1.6 -1.0 2.25 -1.0 4.25 -2.75 5.7 -4.4 7.05 -6.4 7.05 -8.3 7.05 -9.5 5.9 -10.7 4.7 -10.7 2.85 L-10.7 2.3 -9.95 -4.7 Q-9.85 -5.6 -9.35 -6.2 -8.75 -6.85 -7.9 -6.85" fill="#009900" fill-rule="evenodd" stroke="none"/>
    <path d="M-12.9 -2.3 Q-11.45 -0.95 -11.45 1.2 -11.45 3.55 -13.05 5.25 -14.65 7.05 -17.0 7.05 -18.55 7.05 -19.45 6.2 L-19.55 7.3 Q-18.85 7.3 -18.45 7.7 -18.0 8.1 -18.0 8.8 -18.0 9.65 -18.6 10.2 -19.2 10.75 -20.1 10.75 L-21.8 10.75 Q-22.55 10.75 -23.0 10.4 -23.5 10.0 -23.45 9.25 L-23.45 8.95 -22.65 1.15 Q-22.4 -1.0 -20.5 -2.35 -18.75 -3.6 -16.5 -3.6 -14.3 -3.6 -12.9 -2.3 M-15.25 1.45 Q-15.25 0.7 -15.7 0.2 -16.15 -0.3 -16.9 -0.3 -17.85 -0.3 -18.4 0.35 -19.05 1.05 -19.05 2.0 -19.05 2.75 -18.55 3.25 -18.1 3.75 -17.35 3.75 -16.4 3.75 -15.85 3.1 -15.25 2.4 -15.25 1.45" fill="#009900" fill-rule="evenodd" stroke="none"/>
    <path d="M-27.8 -2.55 Q-28.65 -3.45 -30.0 -3.45 -31.65 -3.45 -32.75 -2.3 -33.85 -1.15 -33.85 0.5 -33.85 1.85 -33.0 2.75 -32.2 3.65 -30.8 3.65 -29.15 3.65 -28.05 2.5 -26.95 1.35 -26.95 -0.3 -26.95 -1.7 -27.8 -2.55 M-25.1 -5.15 Q-23.25 -3.4 -23.25 -0.65 -23.25 2.55 -25.6 4.8 -27.9 7.05 -31.15 7.05 -33.9 7.05 -35.7 5.3 -37.5 3.6 -37.5 0.85 -37.5 -2.35 -35.2 -4.6 -32.9 -6.85 -29.65 -6.85 -26.9 -6.85 -25.1 -5.15" fill="#009900" fill-rule="evenodd" stroke="none"/>
  </g>
</svg>
