<?xml version="1.0" encoding="UTF-8" standalone="no"?>
<svg xmlns:xlink="http://www.w3.org/1999/xlink" height="44.0px" width="44.5px" xmlns="http://www.w3.org/2000/svg">
  <g transform="matrix(1.0, 0.0, 0.0, 1.0, 22.35, 22.15)">
    <path d="M17.25 -0.2 Q16.1 -1.65 14.15 -1.6 L13.05 -1.4 Q11.7 -1.2 11.8 0.0 11.9 0.6 12.45 0.65 L13.75 0.55 Q15.45 0.05 15.9 1.55 16.3 2.75 17.05 3.75 18.2 5.2 19.55 4.0 19.85 3.7 19.75 3.25 19.45 2.2 18.35 2.4 L18.05 1.35 17.6 0.55 17.25 -0.2 M4.3 -4.9 L4.4 -12.0 -5.1 -12.0 -5.1 -4.5 Q-0.05 -6.15 4.3 -4.9 M8.25 -1.25 Q4.95 -3.5 0.3 -3.45 -4.4 -3.5 -7.7 -1.25 -11.0 0.95 -10.95 4.1 -11.0 7.25 -7.7 9.45 -4.4 11.65 0.3 11.65 4.95 11.65 8.25 9.45 11.55 7.25 11.55 4.1 11.55 0.95 8.25 -1.25 M0.35 -12.95 L0.35 -20.95 -1.35 -20.95 -1.35 -12.95 0.35 -12.95 M10.9 -14.05 Q11.9 -15.2 10.4 -15.7 L9.35 -15.3 Q8.35 -14.8 7.65 -13.9 6.85 -12.9 6.8 -11.65 6.7 -9.7 8.15 -8.3 8.65 -7.8 8.5 -7.15 8.2 -5.55 7.4 -4.1 6.8 -3.0 8.0 -2.55 8.4 -2.4 8.65 -2.75 9.95 -4.5 10.5 -6.6 L10.5 -7.55 Q9.9 -9.5 8.6 -11.15 8.6 -11.95 9.15 -12.65 L10.15 -13.45 10.9 -14.05 M22.15 -0.15 Q22.15 8.95 15.6 15.4 9.1 21.85 -0.1 21.85 -9.3 21.85 -15.85 15.4 -22.35 8.95 -22.35 -0.15 -22.35 -9.25 -15.85 -15.7 -9.3 -22.15 -0.1 -22.15 9.1 -22.15 15.6 -15.7 22.15 -9.25 22.15 -0.15 M10.6 11.85 L10.65 11.8 Q11.45 10.3 9.9 9.9 9.6 9.9 9.35 10.15 8.75 10.8 8.6 11.7 8.25 13.9 10.1 15.0 L11.35 15.05 Q13.1 14.4 14.25 12.9 L15.6 12.35 Q16.25 12.15 16.25 11.5 16.15 10.45 15.05 10.65 12.85 11.15 11.5 13.05 L10.95 13.25 10.8 13.15 10.6 13.0 10.6 12.55 10.6 11.85 M0.3 7.9 Q-2.05 7.9 -3.7 6.8 -5.35 5.65 -5.3 4.1 -5.35 2.55 -3.7 1.45 -2.05 0.3 0.3 0.35 2.65 0.3 4.3 1.45 5.9 2.55 5.95 4.1 5.9 5.65 4.3 6.8 2.65 7.9 0.3 7.9 M-10.75 10.45 Q-9.9 9.15 -11.5 8.8 -12.45 9.0 -12.85 9.9 -13.9 12.05 -11.8 13.4 -10.8 14.05 -9.95 14.8 L-10.1 15.4 Q-10.6 16.5 -9.35 16.7 -8.9 16.8 -8.65 16.45 -7.7 15.25 -8.3 13.8 -8.5 13.35 -8.95 13.15 -10.5 12.45 -11.4 11.15 L-11.4 11.05 -11.4 10.95 -11.3 10.85 -10.95 10.65 -10.75 10.45 M-15.6 -0.6 L-16.3 -0.3 Q-18.35 0.9 -19.0 3.2 -19.15 3.7 -19.6 3.8 -20.15 3.95 -20.3 4.4 -20.85 5.75 -19.25 5.75 L-18.7 5.55 Q-17.25 4.65 -16.8 2.85 L-16.25 1.95 -15.8 1.45 Q-14.8 1.15 -13.95 1.7 L-13.65 2.1 Q-12.85 3.0 -11.95 2.4 -11.65 2.25 -11.7 1.9 -11.85 0.15 -13.6 -0.3 L-15.6 -0.6 M-14.0 -13.95 Q-14.45 -13.9 -14.7 -13.5 -15.3 -12.5 -14.15 -12.15 L-13.15 -11.75 -12.55 -11.2 Q-12.1 -10.45 -12.35 -9.7 L-12.95 -7.2 Q-13.35 -4.05 -10.7 -2.4 -10.1 -2.0 -9.35 -1.9 -8.25 -1.8 -8.15 -2.9 -8.15 -3.6 -8.85 -3.7 -10.8 -4.0 -11.15 -6.05 -11.25 -6.85 -10.9 -7.5 -9.95 -9.45 -10.7 -11.45 -11.55 -13.8 -14.0 -13.95 M4.25 20.25 L4.4 12.75 Q0.0 14.35 -4.65 12.65 -4.45 17.05 -2.75 20.25 L4.25 20.25" fill="#000000" fill-rule="evenodd" stroke="none"/>
  </g>
</svg>
