<?xml version="1.0" encoding="UTF-8" standalone="no"?>
<svg xmlns:xlink="http://www.w3.org/1999/xlink" height="46.0px" width="46.5px" xmlns="http://www.w3.org/2000/svg">
  <g transform="matrix(1.0, 0.0, 0.0, 1.0, 23.25, 23.0)">
    <path d="M0.0 -22.5 Q9.4 -22.5 16.05 -15.9 22.75 -9.3 22.75 0.0 22.75 9.3 16.05 15.9 9.4 22.5 0.0 22.5 -9.4 22.5 -16.1 15.9 -22.75 9.3 -22.75 0.0 -22.75 -9.3 -16.1 -15.9 -9.4 -22.5 0.0 -22.5 Z" fill="none" stroke="#000000" stroke-linecap="round" stroke-linejoin="round" stroke-width="1.0"/>
    <path d="M5.1 -3.25 L5.4 -3.0 12.15 4.5 6.75 9.65 -14.95 -13.1 Q-10.5 -17.1 -0.25 -8.35 L0.15 -8.0 5.1 -3.25 M5.7 -4.45 L0.75 -9.2 Q10.4 -17.2 14.75 -13.35 L6.0 -4.2 5.7 -4.45 M16.2 12.25 L14.45 13.9 9.3 8.45 11.05 6.8 16.2 12.25 M-6.95 9.4 L-12.4 4.25 -6.45 -2.35 -1.1 3.25 -6.95 9.4 M-9.55 8.2 L-14.7 13.65 -16.45 12.0 -11.25 6.55 -9.55 8.2" fill="#000000" fill-rule="evenodd" stroke="none"/>
  </g>
</svg>
