<?xml version="1.0" encoding="UTF-8" standalone="no"?>
<svg xmlns:xlink="http://www.w3.org/1999/xlink" height="46.0px" width="46.5px" xmlns="http://www.w3.org/2000/svg">
  <g transform="matrix(1.0, 0.0, 0.0, 1.0, 23.25, 23.0)">
    <path d="M0.0 -22.5 Q9.4 -22.5 16.05 -15.9 22.75 -9.3 22.75 0.0 22.75 9.3 16.05 15.9 9.4 22.5 0.0 22.5 -9.4 22.5 -16.1 15.9 -22.75 9.3 -22.75 0.0 -22.75 -9.3 -16.1 -15.9 -9.4 -22.5 0.0 -22.5 Z" fill="none" stroke="#000000" stroke-linecap="round" stroke-linejoin="round" stroke-width="1.0"/>
    <path d="M16.45 13.75 L14.7 15.4 9.55 9.95 11.3 8.3 16.45 13.75 M9.9 4.0 L10.0 3.2 12.4 6.0 9.15 9.1 9.3 8.4 9.5 7.2 9.85 4.55 9.9 4.0 M10.25 -6.9 L10.25 -7.35 10.05 -12.9 Q13.05 -13.55 15.0 -11.85 L10.25 -6.9 M-9.8 -6.45 L-14.7 -11.6 Q-12.75 -13.4 -9.55 -12.65 L-9.8 -7.15 -9.8 -6.45 M-9.4 4.8 L-9.15 6.8 -8.95 7.95 -8.8 8.9 -12.15 5.75 -9.55 2.8 -9.45 4.25 -9.4 4.8 M-16.2 13.5 L-11.0 8.05 -9.3 9.7 -14.45 15.15 -16.2 13.5" fill="#000000" fill-rule="evenodd" stroke="none"/>
    <path d="M6.2 -19.7 L6.2 -12.2 3.8 -12.2 3.8 -19.7 6.2 -19.7 M8.55 -11.2 L8.55 -10.9 8.75 -5.35 8.75 -4.9 8.8 -4.1 8.8 -1.2 8.75 -0.85 8.75 0.85 8.7 1.8 8.5 5.2 8.4 6.0 8.35 6.55 8.0 9.2 7.8 10.4 7.65 11.1 Q5.85 19.9 0.95 20.1 L1.1 -11.3 8.55 -11.3 8.55 -11.2 M-8.55 -10.9 L-8.55 -11.1 -8.55 -11.3 -1.1 -11.3 -1.0 20.1 Q-6.0 19.9 -7.8 10.65 L-7.95 9.7 -8.15 8.55 -8.4 6.55 -8.45 6.0 -8.55 4.55 -8.7 1.85 -8.75 0.9 -8.8 -0.85 -8.8 -1.2 -8.8 -4.15 -8.8 -4.7 -8.8 -5.4 -8.55 -10.9 M-6.2 -19.7 L-3.8 -19.7 -3.8 -12.2 -6.2 -12.2 -6.2 -19.7" fill="#000000" fill-rule="evenodd" stroke="none"/>
  </g>
</svg>
