<?xml version="1.0" encoding="UTF-8" standalone="no"?>
<svg xmlns:xlink="http://www.w3.org/1999/xlink" height="13.2px" width="80.0px" xmlns="http://www.w3.org/2000/svg">
  <g transform="matrix(1.0, 0.0, 0.0, 1.0, 42.35, 7.85)">
    <path d="M29.95 -3.7 Q31.0 -4.6 32.5 -4.6 L36.1 -4.6 Q37.65 -4.6 37.65 -3.05 L37.5 -1.45 32.7 -1.45 32.4 -1.3 32.35 -1.0 Q32.35 -0.85 32.8 -0.85 L33.45 -0.9 34.15 -0.9 Q35.5 -0.9 36.35 -0.3 37.35 0.45 37.35 1.75 37.35 3.15 36.4 4.05 35.5 5.0 34.05 5.0 L29.9 5.0 Q28.4 5.0 28.4 3.55 L28.6 1.85 33.55 1.85 33.9 1.75 33.8 1.4 33.0 1.3 32.1 1.4 Q30.75 1.4 29.9 0.75 28.9 0.0 28.9 -1.3 28.9 -2.8 29.95 -3.7" fill="#009900" fill-rule="evenodd" stroke="none"/>
    <path d="M25.2 -7.6 L26.9 -7.6 Q28.55 -7.6 28.55 -6.15 L28.5 -5.7 27.9 -0.1 Q27.65 2.35 26.1 3.85 24.5 5.3 22.05 5.3 19.9 5.3 18.6 4.15 17.15 2.9 17.15 0.85 17.15 -1.3 18.55 -2.95 20.0 -4.7 22.15 -4.7 23.9 -4.7 24.75 -3.4 L24.85 -4.45 24.6 -4.45 Q24.1 -4.45 23.7 -4.9 23.3 -5.35 23.3 -5.85 23.3 -6.6 23.9 -7.1 24.45 -7.6 25.2 -7.6 M21.35 -0.95 Q20.75 -0.35 20.75 0.4 20.75 1.1 21.2 1.55 21.65 2.0 22.35 2.0 23.15 2.0 23.75 1.4 24.3 0.85 24.3 0.05 L23.85 -1.1 22.7 -1.55 Q21.95 -1.55 21.35 -0.95" fill="#009900" fill-rule="evenodd" stroke="none"/>
    <path d="M17.0 -0.85 Q17.0 -0.05 16.5 0.5 16.0 1.05 15.2 1.05 14.35 1.05 14.0 0.4 L13.5 -0.9 Q13.15 -1.6 12.55 -1.6 11.6 -1.6 11.3 -0.4 L11.1 1.7 Q12.6 1.8 12.6 3.2 12.6 4.05 12.05 4.5 11.45 5.0 10.6 5.0 L8.9 5.0 Q8.25 5.0 7.8 4.6 7.35 4.15 7.35 3.5 L7.6 1.35 7.75 -0.05 Q7.95 -2.2 9.35 -3.55 10.75 -4.85 12.9 -4.85 14.6 -4.85 15.8 -3.7 17.0 -2.6 17.0 -0.85" fill="#009900" fill-rule="evenodd" stroke="none"/>
    <path d="M6.35 -0.25 L6.15 1.7 7.1 2.1 7.4 3.0 Q7.4 3.9 6.95 4.45 6.45 5.0 5.55 5.0 L4.05 5.0 Q2.85 5.0 2.8 4.2 1.6 5.25 -0.15 5.25 -2.0 5.25 -3.15 4.0 -4.35 2.75 -4.35 0.9 -4.35 -1.6 -2.6 -3.25 -0.85 -4.85 1.65 -4.85 3.7 -4.85 5.05 -3.6 6.35 -2.3 6.35 -0.25 M1.2 -1.6 Q0.4 -1.6 -0.2 -1.0 -0.85 -0.4 -0.85 0.4 -0.85 1.1 -0.35 1.6 0.1 2.05 0.8 2.05 1.6 2.05 2.2 1.45 2.85 0.85 2.85 0.05 2.85 -0.65 2.4 -1.15 1.9 -1.6 1.2 -1.6" fill="#009900" fill-rule="evenodd" stroke="none"/>
    <path d="M-16.55 -1.45 L-16.8 0.95 Q-16.8 2.0 -15.75 2.0 -14.6 2.0 -14.5 0.75 L-14.25 -1.45 Q-15.1 -1.8 -15.1 -2.8 -15.1 -3.55 -14.55 -4.1 -14.0 -4.6 -13.2 -4.6 L-11.1 -4.6 Q-10.45 -4.6 -10.0 -4.2 -9.55 -3.8 -9.55 -3.1 -9.55 -1.9 -10.75 -1.45 L-11.0 0.95 Q-10.95 2.0 -9.95 2.0 -8.8 2.0 -8.65 0.7 L-8.45 -1.45 Q-9.3 -1.8 -9.3 -2.75 -9.3 -3.55 -8.7 -4.05 -8.15 -4.6 -7.3 -4.6 L-6.25 -4.6 Q-4.7 -4.6 -4.7 -3.05 L-4.7 -2.85 -5.1 0.75 Q-5.3 2.75 -6.75 4.0 -8.2 5.25 -10.25 5.25 L-11.8 4.95 -13.05 4.0 Q-14.55 5.25 -16.15 5.25 -17.95 5.25 -19.15 4.2 -20.35 3.1 -20.35 1.3 L-20.3 0.75 -19.95 -2.75 Q-19.8 -4.05 -18.95 -4.4 L-17.05 -4.6 Q-15.4 -4.6 -15.4 -3.05 -15.4 -1.85 -16.35 -1.5 L-16.55 -1.45" fill="#009900" fill-rule="evenodd" stroke="none"/>
    <path d="M-22.25 -3.8 Q-20.75 -2.6 -20.75 -0.75 -20.75 0.05 -21.25 0.6 -21.75 1.1 -22.6 1.1 L-27.75 1.1 Q-27.45 2.05 -26.15 2.05 L-25.2 1.8 -24.25 1.6 Q-23.7 1.6 -23.3 2.0 -22.9 2.4 -22.9 2.95 -22.9 4.1 -24.25 4.8 -25.35 5.35 -26.65 5.35 -28.7 5.35 -30.1 4.15 -31.6 2.95 -31.6 0.9 -31.6 -1.6 -29.8 -3.3 -28.05 -4.9 -25.5 -4.9 -23.65 -4.9 -22.25 -3.8 M-25.8 -1.95 Q-27.1 -1.95 -27.55 -0.7 L-24.4 -0.7 Q-24.4 -1.2 -24.85 -1.6 -25.25 -1.95 -25.8 -1.95" fill="#009900" fill-rule="evenodd" stroke="none"/>
    <path d="M-36.25 -7.85 Q-34.4 -7.85 -33.15 -6.8 -31.85 -5.7 -31.85 -3.85 -31.85 -2.55 -32.55 -1.4 -33.25 -0.2 -34.45 0.3 L-33.85 1.7 -32.4 2.0 Q-31.75 2.35 -31.75 3.2 -31.75 4.0 -32.35 4.5 -32.95 5.0 -33.8 5.0 L-35.75 5.0 -36.25 4.55 -37.95 0.8 -38.55 0.8 -39.0 5.0 -40.85 5.0 Q-42.35 5.0 -42.35 3.55 L-42.35 3.4 -41.65 -3.0 Q-41.45 -5.25 -40.0 -6.55 -38.55 -7.85 -36.25 -7.85 M-36.65 -2.25 Q-36.0 -2.25 -35.6 -2.6 -35.2 -2.95 -35.2 -3.6 -35.2 -4.1 -35.55 -4.45 L-36.45 -4.75 Q-37.55 -4.75 -37.95 -3.95 L-38.2 -2.25 -36.65 -2.25" fill="#009900" fill-rule="evenodd" stroke="none"/>
  </g>
</svg>
