<?xml version="1.0" encoding="UTF-8" standalone="no"?>
<svg xmlns:xlink="http://www.w3.org/1999/xlink" height="17.4px" width="38.55px" xmlns="http://www.w3.org/2000/svg">
  <g transform="matrix(1.0, 0.0, 0.0, 1.0, 19.2, 7.1)">
    <path d="M17.8 -3.1 Q19.35 -3.1 19.35 -1.55 L19.2 0.05 14.4 0.05 14.1 0.2 14.05 0.5 Q14.05 0.65 14.5 0.65 L15.15 0.6 15.85 0.6 Q17.2 0.6 18.05 1.2 19.05 1.95 19.05 3.25 19.05 4.65 18.1 5.55 17.2 6.5 15.75 6.5 L11.6 6.5 Q10.1 6.5 10.1 5.05 L10.3 3.35 15.25 3.35 15.6 3.25 15.5 2.9 14.7 2.8 13.8 2.9 Q12.45 2.9 11.6 2.25 10.6 1.5 10.6 0.2 10.6 -1.3 11.65 -2.2 12.7 -3.1 14.2 -3.1 L17.8 -3.1" fill="#009900" fill-rule="evenodd" stroke="none"/>
    <path d="M5.15 -3.35 Q7.2 -3.35 8.55 -2.05 9.9 -0.8 9.9 1.25 9.9 3.5 8.4 5.1 6.85 6.8 4.65 6.8 3.2 6.8 2.3 6.0 L2.2 7.0 Q2.9 7.0 3.3 7.4 3.7 7.75 3.7 8.4 3.7 9.25 3.1 9.8 2.55 10.3 1.7 10.3 L0.1 10.3 Q-0.6 10.3 -1.05 9.95 -1.5 9.6 -1.5 8.9 L-1.5 8.6 -0.7 1.2 Q-0.5 -0.85 1.35 -2.15 3.0 -3.35 5.15 -3.35 M6.3 1.5 Q6.3 0.8 5.9 0.3 5.45 -0.2 4.75 -0.2 3.85 -0.2 3.3 0.45 2.7 1.1 2.7 2.0 2.7 2.7 3.15 3.2 3.6 3.7 4.3 3.7 5.2 3.7 5.75 3.05 6.3 2.4 6.3 1.5" fill="#009900" fill-rule="evenodd" stroke="none"/>
    <path d="M-1.85 -6.55 Q-1.3 -6.0 -1.3 -5.25 -1.3 -4.45 -1.85 -3.9 -2.4 -3.4 -3.2 -3.4 -3.95 -3.4 -4.5 -3.95 -5.0 -4.5 -5.0 -5.25 -5.0 -6.0 -4.45 -6.55 -3.9 -7.1 -3.2 -7.1 -2.4 -7.1 -1.85 -6.55 M-6.2 -2.6 Q-5.7 -3.1 -4.85 -3.1 L-3.05 -3.1 Q-2.35 -3.1 -1.9 -2.7 -1.45 -2.3 -1.5 -1.6 L-1.5 -1.35 -2.15 4.85 Q-2.25 5.6 -2.75 6.05 -3.25 6.5 -4.0 6.5 L-5.85 6.5 Q-6.5 6.5 -6.95 6.1 -7.35 5.65 -7.35 5.0 -7.35 4.2 -6.85 3.7 -6.35 3.2 -5.55 3.2 L-5.25 0.2 Q-6.7 0.05 -6.7 -1.35 -6.7 -2.15 -6.2 -2.6" fill="#009900" fill-rule="evenodd" stroke="none"/>
    <path d="M-17.7 -1.25 Q-18.35 -1.25 -18.8 -1.65 -19.2 -2.1 -19.2 -2.7 L-19.1 -3.85 -18.85 -4.95 Q-18.4 -6.1 -17.15 -6.1 L-8.15 -6.1 Q-6.7 -6.1 -6.7 -4.6 L-6.85 -2.75 Q-6.95 -2.05 -7.45 -1.65 -8.0 -1.25 -8.7 -1.25 -9.4 -1.25 -9.75 -1.75 -10.1 -2.2 -10.1 -2.95 L-11.25 -2.95 -11.9 3.2 Q-10.35 3.2 -10.35 4.6 -10.35 5.45 -10.9 5.95 -11.45 6.5 -12.3 6.5 L-15.75 6.5 Q-16.4 6.5 -16.85 6.1 -17.25 5.7 -17.25 5.05 -17.25 4.3 -16.7 3.75 -16.2 3.2 -15.4 3.2 L-14.75 -2.95 -15.85 -2.95 Q-16.25 -1.25 -17.7 -1.25" fill="#009900" fill-rule="evenodd" stroke="none"/>
  </g>
</svg>
