<?xml version="1.0" encoding="UTF-8" standalone="no"?>
<svg xmlns:xlink="http://www.w3.org/1999/xlink" height="16.0px" width="16.0px" xmlns="http://www.w3.org/2000/svg">
  <g transform="matrix(1.0, 0.0, 0.0, 1.0, 6.9, 8.15)">
    <path d="M2.1 -6.15 L8.1 -6.15 8.1 -5.15 7.1 -5.15 7.1 -4.15 6.1 -4.15 5.1 -4.15 5.1 -3.15 4.1 -3.15 4.1 -2.15 3.1 -2.15 3.1 -1.15 2.1 -1.15 2.1 -0.15 3.1 -0.15 3.1 0.85 4.1 0.85 4.1 1.85 5.1 1.85 5.1 2.85 5.1 3.85 6.1 3.85 6.1 4.85 7.1 4.85 8.1 4.85 8.1 5.85 8.1 6.85 9.1 6.85 9.1 7.85 -6.9 7.85 -6.9 6.85 -5.9 6.85 -5.9 5.85 -5.9 4.85 -4.9 4.85 -3.9 4.85 -3.9 3.85 -3.9 -4.15 -4.9 -4.15 -4.9 -5.15 -5.9 -5.15 -5.9 -6.15 0.1 -6.15 0.1 -5.15 -0.9 -5.15 -1.9 -5.15 -1.9 -4.15 -1.9 -1.15 -1.9 -0.15 -0.9 -0.15 0.1 -0.15 0.1 -1.15 1.1 -1.15 1.1 -2.15 2.1 -2.15 2.1 -3.15 3.1 -3.15 3.1 -4.15 3.1 -5.15 2.1 -5.15 2.1 -6.15 M1.1 0.85 L0.1 0.85 -0.9 0.85 -0.9 1.85 -1.9 1.85 -1.9 2.85 -1.9 3.85 -1.9 4.85 -0.9 4.85 0.1 4.85 0.1 5.85 0.1 6.85 1.1 6.85 2.1 6.85 2.1 5.85 2.1 4.85 3.1 4.85 3.1 3.85 3.1 2.85 2.1 2.85 2.1 1.85 2.1 0.85 1.1 0.85" fill="#ffffff" fill-rule="evenodd" stroke="none"/>
    <path d="M1.1 -3.15 L1.1 -4.15 2.1 -4.15 2.1 -3.15 1.1 -3.15 M0.1 -4.15 L0.1 -2.15 -0.9 -2.15 -0.9 -4.15 0.1 -4.15 M8.1 -4.15 L8.1 -3.15 7.1 -3.15 7.1 -4.15 8.1 -4.15 M5.1 1.85 L5.1 0.85 6.1 0.85 6.1 1.85 5.1 1.85 M0.1 1.85 L1.1 1.85 1.1 2.85 0.1 2.85 0.1 1.85 M0.1 2.85 L0.1 3.85 -0.9 3.85 -0.9 2.85 0.1 2.85 M-5.9 -4.15 L-4.9 -4.15 -4.9 3.85 -5.9 3.85 -5.9 -4.15" fill="#940000" fill-rule="evenodd" stroke="none"/>
    <path d="M2.1 -5.15 L3.1 -5.15 3.1 -4.15 2.1 -4.15 2.1 -5.15 M0.1 -1.15 L0.1 -0.15 -0.9 -0.15 -0.9 -1.15 0.1 -1.15 M-0.9 -5.15 L0.1 -5.15 0.1 -4.15 -0.9 -4.15 -0.9 -5.15 M-5.9 -5.15 L-4.9 -5.15 -4.9 -4.15 -3.9 -4.15 -3.9 3.85 -4.9 3.85 -4.9 -4.15 -5.9 -4.15 -5.9 -5.15 M4.1 0.85 L3.1 0.85 3.1 -0.15 4.1 -0.15 4.1 0.85 M7.1 -4.15 L7.1 -5.15 8.1 -5.15 8.1 -4.15 7.1 -4.15 M2.1 2.85 L3.1 2.85 3.1 3.85 2.1 3.85 2.1 2.85 M-1.9 2.85 L-1.9 1.85 -0.9 1.85 -0.9 2.85 -1.9 2.85" fill="#e7bebd" fill-rule="evenodd" stroke="none"/>
    <path d="M2.1 -8.15 L2.1 -7.15 1.1 -7.15 0.1 -7.15 0.1 -8.15 2.1 -8.15" fill="#9c0008" fill-rule="evenodd" stroke="none"/>
    <path d="M8.1 -7.15 L8.1 -8.15 9.1 -8.15 9.1 -6.15 8.1 -6.15 8.1 -7.15 M0.1 -7.15 L1.1 -7.15 1.1 -6.15 0.1 -6.15 0.1 -7.15 M0.1 -5.15 L1.1 -5.15 1.1 -4.15 0.1 -4.15 0.1 -5.15 M0.1 -2.15 L0.1 -1.15 -0.9 -1.15 -0.9 -2.15 0.1 -2.15 M0.1 5.85 L0.1 4.85 1.1 4.85 1.1 5.85 0.1 5.85 M-5.9 -8.15 L-5.9 -7.15 -6.9 -7.15 -6.9 -8.15 -5.9 -8.15" fill="#9c0808" fill-rule="evenodd" stroke="none"/>
    <path d="M8.1 -5.15 L9.1 -5.15 9.1 -4.15 8.1 -4.15 8.1 -5.15 M0.1 -6.15 L1.1 -6.15 1.1 -5.15 0.1 -5.15 0.1 -6.15 M-5.9 4.85 L-5.9 5.85 -6.9 5.85 -6.9 3.85 -5.9 3.85 -5.9 4.85 M4.1 -1.15 L4.1 -2.15 5.1 -2.15 5.1 -1.15 4.1 -1.15 M8.1 3.85 L9.1 3.85 9.1 4.85 8.1 4.85 8.1 3.85" fill="#9c1010" fill-rule="evenodd" stroke="none"/>
    <path d="M2.1 -6.15 L2.1 -5.15 1.1 -5.15 1.1 -6.15 2.1 -6.15" fill="#b55152" fill-rule="evenodd" stroke="none"/>
    <path d="M1.1 -7.15 L2.1 -7.15 2.1 -6.15 1.1 -6.15 1.1 -7.15 M6.1 -3.15 L6.1 -2.15 5.1 -2.15 5.1 -3.15 6.1 -3.15 M6.1 2.85 L7.1 2.85 7.1 3.85 6.1 3.85 6.1 2.85 M1.1 4.85 L1.1 3.85 2.1 3.85 2.1 4.85 1.1 4.85" fill="#a52021" fill-rule="evenodd" stroke="none"/>
    <path d="M8.1 -7.15 L8.1 -6.15 2.1 -6.15 2.1 -7.15 8.1 -7.15 M0.1 -7.15 L0.1 -6.15 -5.9 -6.15 -5.9 -7.15 0.1 -7.15 M2.1 1.85 L2.1 2.85 1.1 2.85 1.1 1.85 2.1 1.85" fill="#c6696b" fill-rule="evenodd" stroke="none"/>
    <path d="M8.1 5.85 L8.1 4.85 9.1 4.85 9.1 5.85 8.1 5.85 M2.1 -5.15 L2.1 -4.15 1.1 -4.15 1.1 -5.15 2.1 -5.15" fill="#a52829" fill-rule="evenodd" stroke="none"/>
    <path d="M8.1 -8.15 L8.1 -7.15 2.1 -7.15 2.1 -8.15 8.1 -8.15 M0.1 -8.15 L0.1 -7.15 -5.9 -7.15 -5.9 -8.15 0.1 -8.15 M8.1 -4.15 L9.1 -4.15 9.1 3.85 8.1 3.85 7.1 3.85 7.1 2.85 6.1 2.85 6.1 1.85 6.1 0.85 5.1 0.85 4.1 0.85 4.1 -0.15 4.1 -1.15 5.1 -1.15 5.1 -2.15 6.1 -2.15 6.1 -3.15 7.1 -3.15 8.1 -3.15 8.1 -4.15 M0.1 -4.15 L1.1 -4.15 1.1 -3.15 1.1 -2.15 0.1 -2.15 0.1 -4.15 M0.1 1.85 L0.1 2.85 1.1 2.85 2.1 2.85 2.1 3.85 1.1 3.85 1.1 4.85 0.1 4.85 0.1 3.85 0.1 2.85 -0.9 2.85 -0.9 1.85 0.1 1.85 M-6.9 -4.15 L-5.9 -4.15 -5.9 3.85 -6.9 3.85 -6.9 -4.15" fill="#9c0000" fill-rule="evenodd" stroke="none"/>
    <path d="M8.1 -6.15 L9.1 -6.15 9.1 -5.15 8.1 -5.15 8.1 -6.15 M3.1 -0.15 L3.1 -1.15 4.1 -1.15 4.1 -0.15 3.1 -0.15 M-6.9 -4.15 L-6.9 -5.15 -5.9 -5.15 -5.9 -4.15 -6.9 -4.15" fill="#a51818" fill-rule="evenodd" stroke="none"/>
    <path d="M-1.9 -4.15 L-1.9 -5.15 -0.9 -5.15 -0.9 -4.15 -1.9 -4.15 M6.1 3.85 L5.1 3.85 5.1 2.85 6.1 2.85 6.1 3.85 M5.1 -3.15 L5.1 -4.15 6.1 -4.15 6.1 -3.15 5.1 -3.15" fill="#f7efef" fill-rule="evenodd" stroke="none"/>
    <path d="M4.1 -2.15 L4.1 -3.15 5.1 -3.15 5.1 -2.15 4.1 -2.15" fill="#efd7d6" fill-rule="evenodd" stroke="none"/>
    <path d="M6.1 -4.15 L7.1 -4.15 7.1 -3.15 6.1 -3.15 6.1 -4.15" fill="#b54142" fill-rule="evenodd" stroke="none"/>
    <path d="M-0.9 -0.15 L-1.9 -0.15 -1.9 -1.15 -0.9 -1.15 -0.9 -0.15 M3.1 -1.15 L3.1 -2.15 4.1 -2.15 4.1 -1.15 3.1 -1.15" fill="#e7b6b5" fill-rule="evenodd" stroke="none"/>
    <path d="M3.1 -4.15 L3.1 -3.15 2.1 -3.15 2.1 -4.15 3.1 -4.15 M8.1 4.85 L7.1 4.85 7.1 3.85 8.1 3.85 8.1 4.85 M0.1 4.85 L-0.9 4.85 -0.9 3.85 0.1 3.85 0.1 4.85" fill="#ce797b" fill-rule="evenodd" stroke="none"/>
    <path d="M2.1 -3.15 L2.1 -2.15 1.1 -2.15 1.1 -3.15 2.1 -3.15" fill="#d69694" fill-rule="evenodd" stroke="none"/>
    <path d="M1.1 -2.15 L1.1 -1.15 0.1 -1.15 0.1 -2.15 1.1 -2.15 M3.1 3.85 L3.1 4.85 2.1 4.85 2.1 3.85 3.1 3.85 M-0.9 1.85 L-0.9 0.85 0.1 0.85 0.1 1.85 -0.9 1.85" fill="#deaead" fill-rule="evenodd" stroke="none"/>
    <path d="M0.1 0.85 L1.1 0.85 1.1 1.85 0.1 1.85 0.1 0.85" fill="#ad3031" fill-rule="evenodd" stroke="none"/>
    <path d="M3.1 -0.15 L2.1 -0.15 2.1 -1.15 3.1 -1.15 3.1 -0.15 M1.1 0.85 L2.1 0.85 2.1 1.85 1.1 1.85 1.1 0.85" fill="#fff7f7" fill-rule="evenodd" stroke="none"/>
    <path d="M-5.9 5.85 L-5.9 6.85 -6.9 6.85 -6.9 5.85 -5.9 5.85 M1.1 6.85 L0.1 6.85 0.1 5.85 1.1 5.85 1.1 6.85" fill="#e7c7c6" fill-rule="evenodd" stroke="none"/>
    <path d="M9.1 6.85 L8.1 6.85 8.1 5.85 9.1 5.85 9.1 6.85 M2.1 5.85 L2.1 6.85 1.1 6.85 1.1 5.85 2.1 5.85" fill="#efcfce" fill-rule="evenodd" stroke="none"/>
    <path d="M2.1 4.85 L2.1 5.85 1.1 5.85 1.1 4.85 2.1 4.85" fill="#ad3839" fill-rule="evenodd" stroke="none"/>
    <path d="M5.1 2.85 L5.1 1.85 6.1 1.85 6.1 2.85 5.1 2.85" fill="#bd5152" fill-rule="evenodd" stroke="none"/>
    <path d="M7.1 4.85 L6.1 4.85 6.1 3.85 7.1 3.85 7.1 4.85" fill="#f7dfde" fill-rule="evenodd" stroke="none"/>
    <path d="M5.1 1.85 L4.1 1.85 4.1 0.85 5.1 0.85 5.1 1.85" fill="#ce8e8c" fill-rule="evenodd" stroke="none"/>
    <path d="M-6.9 -7.15 L-5.9 -7.15 -5.9 -6.15 -6.9 -6.15 -6.9 -7.15" fill="#a51010" fill-rule="evenodd" stroke="none"/>
    <path d="M-5.9 -6.15 L-5.9 -5.15 -6.9 -5.15 -6.9 -6.15 -5.9 -6.15" fill="#ad2829" fill-rule="evenodd" stroke="none"/>
    <path d="M-1.9 -1.15 L-1.9 -4.15 -0.9 -4.15 -0.9 -2.15 -0.9 -1.15 -1.9 -1.15 M-1.9 3.85 L-1.9 2.85 -0.9 2.85 -0.9 3.85 -1.9 3.85" fill="#dea6a5" fill-rule="evenodd" stroke="none"/>
    <path d="M-4.9 4.85 L-5.9 4.85 -5.9 3.85 -4.9 3.85 -4.9 4.85" fill="#d68e8c" fill-rule="evenodd" stroke="none"/>
    <path d="M-3.9 3.85 L-3.9 4.85 -4.9 4.85 -4.9 3.85 -3.9 3.85 M-0.9 4.85 L-1.9 4.85 -1.9 3.85 -0.9 3.85 -0.9 4.85" fill="#f7e7e7" fill-rule="evenodd" stroke="none"/>
  </g>
</svg>
