<?xml version="1.0" encoding="UTF-8" standalone="no"?>
<svg xmlns:xlink="http://www.w3.org/1999/xlink" height="46.0px" width="46.5px" xmlns="http://www.w3.org/2000/svg">
  <g transform="matrix(1.0, 0.0, 0.0, 1.0, 23.25, 23.0)">
    <path d="M16.05 -15.9 Q22.75 -9.3 22.75 0.0 22.75 9.3 16.05 15.9 9.4 22.5 0.0 22.5 -9.4 22.5 -16.1 15.9 -22.75 9.3 -22.75 0.0 -22.75 -9.3 -16.1 -15.9 -9.4 -22.5 0.0 -22.5 9.4 -22.5 16.05 -15.9 Z" fill="none" stroke="#000000" stroke-linecap="round" stroke-linejoin="round" stroke-width="1.0"/>
    <path d="M1.6 -14.3 L1.6 -7.9 0.25 -7.9 0.25 -14.3 1.6 -14.3 M6.75 -12.25 Q8.9 -11.3 7.15 -9.45 L5.65 -7.75 5.5 -7.45 Q6.25 -6.3 6.45 -5.25 L6.5 -4.55 Q6.45 -3.65 6.0 -2.75 L4.9 -1.3 4.85 -1.25 4.75 -1.2 4.3 -1.25 4.25 -1.3 4.15 -1.35 Q3.55 -1.7 3.55 -2.25 L3.55 -2.35 3.6 -2.8 4.0 -4.5 3.85 -4.85 3.75 -5.45 Q3.0 -6.6 3.0 -7.65 2.95 -9.3 4.85 -10.7 5.6 -11.25 6.2 -12.15 L6.75 -12.2 6.75 -12.25 M3.1 -4.35 L3.25 -4.0 2.85 -2.3 2.8 -1.85 -0.05 -1.75 -0.2 -1.75 -2.45 -1.25 -2.35 -1.7 -2.5 -2.0 -2.55 -2.05 -2.75 -2.35 -2.75 -7.15 2.25 -7.15 Q2.25 -6.1 3.0 -4.95 L3.1 -4.35 M1.85 -0.3 L2.0 -0.3 2.45 -0.3 2.65 -0.25 Q4.4 -0.15 5.95 0.45 7.0 0.8 7.9 1.45 10.55 3.2 10.55 5.75 L10.5 6.3 Q10.25 8.35 8.1 9.9 L8.0 9.95 7.9 10.0 7.0 10.55 Q4.65 11.75 1.55 11.8 L-1.8 11.4 -2.6 10.85 -3.05 9.9 -3.55 9.3 -6.2 7.05 -6.75 6.65 -7.45 6.15 -7.45 5.75 Q-7.5 3.2 -4.85 1.45 -2.7 0.0 0.25 -0.25 L1.55 -0.3 1.85 -0.3 M1.9 -0.75 L1.7 -0.8 1.25 -0.8 1.1 -0.8 3.4 -0.85 3.5 -0.8 3.55 -0.75 4.0 -0.7 4.1 -0.75 4.5 -0.7 5.5 -0.45 5.5 -0.7 5.6 -0.75 5.65 -0.8 6.75 -2.25 Q7.2 -3.15 7.25 -4.05 L8.15 -3.2 8.4 -2.85 7.9 -2.0 Q7.65 -1.25 7.7 -0.25 7.75 0.3 8.25 0.5 L8.55 0.6 9.0 1.0 10.6 0.95 10.9 0.65 11.0 0.45 Q11.7 1.4 11.85 2.3 L11.7 2.5 11.2 3.5 11.1 3.75 Q10.4 2.45 8.9 1.45 7.25 0.3 5.2 -0.05 3.65 -0.65 1.9 -0.75 M8.45 -0.5 Q8.4 -1.5 8.65 -2.25 L9.15 -3.1 Q9.9 -4.0 11.5 -4.1 L13.25 -3.7 Q13.55 -3.55 13.95 -3.5 L14.15 -4.45 14.3 -5.0 15.15 -5.65 15.5 -5.75 Q17.4 -4.85 16.3 -2.7 14.75 0.5 11.55 -1.65 L11.2 -1.65 11.0 -0.3 10.9 -0.1 10.6 0.2 9.0 0.25 8.55 -0.15 8.45 -0.5 M-20.5 -9.85 Q-18.9 -13.1 -16.1 -15.9 L-13.55 -18.1 -13.55 -17.95 -13.7 -12.85 -13.7 -12.6 -13.7 -12.05 -13.65 -11.8 -13.55 -10.15 -13.3 -6.6 -13.2 -5.7 -12.75 -0.75 -12.4 1.45 -12.8 2.6 -12.75 3.55 -12.8 3.85 Q-15.9 3.85 -16.0 6.8 L-15.9 7.25 -16.0 7.85 -16.0 8.05 -15.75 8.7 -14.6 9.35 -14.15 9.25 -13.85 9.35 Q-13.05 9.4 -12.7 8.05 L-12.65 7.85 Q-10.75 7.75 -9.9 6.7 L-9.55 6.05 -9.35 6.15 -9.15 6.3 -8.45 6.75 -8.2 6.9 -7.5 7.4 -6.95 7.8 -4.3 10.05 -3.8 10.65 -3.55 11.05 -3.65 11.1 Q-5.45 12.05 -5.65 13.45 L-5.55 14.7 -6.55 14.85 -6.6 14.85 -7.65 15.1 -7.85 15.1 -9.2 15.05 -10.9 14.25 -12.05 13.85 Q-13.25 13.45 -14.3 11.7 L-15.65 9.85 -16.5 8.85 -17.25 7.3 -18.1 4.15 -19.35 -0.4 -20.7 -4.25 -20.7 -4.3 Q-20.95 -7.25 -20.5 -9.85 M14.75 1.5 Q18.15 2.15 17.6 5.75 L17.5 7.45 Q18.75 9.65 16.2 9.4 15.85 9.4 15.55 9.1 L15.05 8.5 15.0 5.85 15.0 4.35 Q14.65 4.35 14.4 4.7 L13.75 5.5 Q13.3 7.6 11.8 7.15 L11.4 6.95 11.15 6.85 11.1 6.8 Q10.7 6.6 10.75 6.05 10.85 5.6 11.2 5.3 L11.35 5.0 11.45 4.75 11.95 3.75 12.1 3.55 Q12.75 2.6 13.8 1.9 L14.2 1.6 14.35 1.6 14.75 1.55 14.75 1.5 M11.15 7.85 L11.4 7.95 11.4 8.0 Q11.0 8.45 10.85 9.2 L10.7 10.15 10.7 10.2 Q10.6 10.8 10.1 11.0 L9.0 10.8 Q10.7 9.5 11.15 7.85 M7.5 11.5 L7.75 11.55 8.85 11.75 Q11.45 12.45 11.4 15.55 L11.35 15.75 Q13.15 16.35 12.35 17.95 12.1 18.45 11.5 18.5 9.75 18.65 8.8 17.25 L8.7 16.7 Q8.65 15.9 8.85 15.2 L8.95 15.0 8.95 14.85 8.25 14.25 8.1 14.1 Q7.1 14.6 6.3 14.45 5.45 14.35 4.8 13.6 L4.75 13.5 4.55 13.0 4.5 12.9 4.55 12.5 Q5.35 11.45 6.8 11.5 L7.5 11.5 M-12.55 -10.15 L-12.65 -11.8 -12.6 -11.8 Q-8.3 -12.4 -3.45 -10.65 L-3.4 -10.6 -1.0 -8.95 -1.0 -7.9 0.0 -7.9 0.0 -7.65 -3.5 -7.65 -3.5 -7.15 -3.85 -7.15 Q-4.65 -9.15 -7.25 -9.25 L-7.25 -9.2 -7.3 -9.2 -7.65 -9.15 -7.8 -9.15 -8.2 -8.8 -8.25 -8.7 -8.5 -8.75 -8.5 -8.7 -8.55 -8.7 -8.9 -8.65 -9.05 -8.65 -9.45 -8.3 -9.85 -7.7 -9.9 -7.5 -9.95 -6.6 Q-10.15 -4.8 -8.15 -5.65 -9.1 -5.5 -9.2 -6.35 L-9.15 -7.25 -9.1 -7.45 -8.7 -8.05 -8.3 -8.4 -8.15 -8.4 -7.8 -8.45 -7.75 -8.45 -7.75 -8.5 -7.5 -8.45 Q-5.1 -8.3 -4.35 -6.4 L-4.25 -6.2 Q-4.05 -5.55 -4.0 -4.65 -4.0 -3.95 -4.25 -3.35 L-4.5 -2.95 -4.25 -2.7 -3.25 -1.6 -3.05 -1.3 -3.0 -1.25 -2.85 -0.95 -2.95 -0.5 -3.2 -0.25 Q-4.3 0.6 -5.6 -0.05 -6.6 -0.5 -7.2 -1.5 L-7.25 -2.8 -7.05 -3.55 -6.95 -3.85 -6.7 -4.3 -6.6 -4.4 -6.55 -4.5 -6.55 -4.7 -6.65 -5.05 -6.75 -5.45 -6.9 -5.6 -7.1 -5.8 -7.3 -5.95 Q-7.7 -5.75 -8.0 -5.65 L-7.85 -5.55 -7.65 -5.35 -7.5 -5.2 -7.4 -4.8 -7.35 -4.65 -7.45 -4.55 -7.7 -4.1 -10.95 -5.25 -12.2 -5.7 -12.3 -6.6 -12.55 -10.15 M3.25 13.75 L3.3 13.85 Q3.95 14.6 4.8 14.7 L4.7 18.65 -0.9 18.65 -1.35 17.7 Q-1.0 16.25 -1.8 14.75 L-1.65 14.55 -1.4 14.5 -1.2 14.35 Q-0.35 13.7 -0.25 13.15 1.4 13.4 3.0 13.15 L3.05 13.25 3.25 13.75 M-9.5 3.7 Q-9.5 4.6 -9.8 5.3 L-10.15 5.95 Q-11.0 7.0 -12.9 7.1 L-12.95 7.1 -12.95 7.3 Q-13.2 8.25 -13.65 8.5 L-14.1 8.6 Q-14.6 8.55 -15.25 7.95 L-15.5 7.3 -15.5 7.1 -15.4 6.5 Q-14.95 4.3 -12.2 4.35 L-12.3 3.1 -12.25 2.8 -11.9 1.95 -10.75 0.95 -10.0 0.75 Q-6.85 1.1 -8.45 3.4 -8.85 3.9 -9.5 3.7 M-3.3 11.8 L-3.15 11.7 -2.5 11.5 -2.35 11.6 -1.55 12.15 -1.3 12.5 -1.25 12.9 Q-1.35 13.45 -2.2 14.1 L-2.4 14.25 -2.65 14.3 -2.8 14.5 Q-2.0 16.0 -2.35 17.45 -2.6 18.4 -3.35 19.3 -5.0 21.3 -5.85 18.95 -6.2 17.85 -5.4 17.1 L-4.8 16.55 -5.3 15.45 -5.4 14.2 Q-5.2 12.8 -3.4 11.85 L-3.3 11.8" fill="#000000" fill-rule="evenodd" stroke="none"/>
    <path d="M-13.55 -18.1 Q-7.65 -22.5 0.0 -22.5 9.4 -22.5 16.05 -15.9 22.75 -9.3 22.75 0.0 22.75 9.3 16.05 15.9 9.4 22.5 0.0 22.5 -9.4 22.5 -16.1 15.9 -22.75 9.3 -22.75 0.0 -22.75 -5.4 -20.5 -9.85 -18.9 -13.1 -16.1 -15.9 L-13.55 -18.1 Z" fill="none" stroke="#000000" stroke-linecap="round" stroke-linejoin="round" stroke-width="1.0"/>
  </g>
</svg>
