<?xml version="1.0" encoding="UTF-8" standalone="no"?>
<svg xmlns:xlink="http://www.w3.org/1999/xlink" height="434.95px" width="585.95px" xmlns="http://www.w3.org/2000/svg">
  <g transform="matrix(1.0, 0.0, 0.0, 1.0, 18.0, 17.0)">
    <path d="M-13.0 -12.0 L562.95 -12.0 562.95 412.95 -13.0 412.95 -13.0 -12.0" fill="#000000" fill-rule="evenodd" stroke="none"/>
    <path d="M-13.0 -12.0 L562.95 -12.0 562.95 412.95 -13.0 412.95 -13.0 -12.0 Z" fill="none" stroke="#000000" stroke-linecap="round" stroke-linejoin="round" stroke-width="10.0"/>
    <path d="M361.5 364.1 Q364.35 364.1 366.4 366.0 368.4 367.85 368.4 370.7 368.4 372.1 367.55 373.0 366.7 373.9 365.4 373.9 363.95 373.9 363.35 372.8 L362.55 370.7 Q361.95 369.5 361.0 369.5 359.35 369.5 358.9 371.5 L358.5 375.0 Q361.05 375.2 361.05 377.45 361.05 378.9 360.1 379.7 359.15 380.5 357.7 380.5 L354.85 380.5 Q353.8 380.5 353.05 379.8 352.35 379.15 352.3 378.15 L351.6 379.6 Q350.75 380.5 349.3 380.5 L346.8 380.5 Q344.75 380.5 344.65 379.2 342.7 380.9 339.75 380.9 336.65 380.9 334.75 378.85 332.8 376.7 332.8 373.65 332.8 369.5 335.7 366.8 338.6 364.1 342.8 364.1 346.2 364.1 348.4 366.2 350.6 368.35 350.6 371.7 L350.3 375.0 351.85 375.65 Q352.3 376.05 352.4 376.85 L352.7 374.4 352.9 372.05 Q353.3 368.5 355.6 366.3 358.0 364.1 361.5 364.1 M329.55 369.55 L322.95 369.55 322.55 373.15 322.55 373.65 322.5 374.1 Q322.5 374.75 323.0 375.2 323.45 375.65 324.1 375.65 325.35 375.65 326.05 374.45 L327.25 372.2 Q328.05 370.95 329.6 370.95 330.6 370.95 331.3 371.65 332.0 372.35 332.0 373.4 332.0 376.55 329.25 378.85 326.65 381.0 323.4 381.0 320.5 381.0 318.55 379.1 316.65 377.25 316.65 374.3 L316.65 373.5 317.85 362.4 Q318.0 360.95 318.8 360.1 319.7 359.05 321.1 359.05 322.3 359.05 323.0 359.85 323.7 360.6 323.7 361.8 L323.45 364.55 330.2 364.55 Q331.3 364.55 332.0 365.15 332.7 365.75 332.7 366.8 332.7 368.15 331.8 368.85 330.9 369.55 329.55 369.55 M342.05 369.5 Q340.7 369.5 339.65 370.5 338.6 371.5 338.6 372.85 338.6 374.05 339.4 374.8 340.2 375.6 341.35 375.6 342.7 375.6 343.7 374.6 344.75 373.55 344.75 372.2 344.75 371.05 344.0 370.3 343.2 369.5 342.05 369.5 M371.25 360.1 Q372.15 359.05 373.55 359.05 374.75 359.05 375.45 359.85 376.15 360.6 376.15 361.8 L375.9 364.55 382.65 364.55 Q383.75 364.55 384.45 365.15 385.15 365.75 385.15 366.8 385.15 368.15 384.25 368.85 383.35 369.55 382.0 369.55 L375.4 369.55 375.0 373.15 375.0 373.65 374.95 374.1 Q374.95 374.75 375.45 375.2 375.9 375.65 376.55 375.65 377.8 375.65 378.5 374.45 L379.7 372.2 Q380.5 370.95 382.05 370.95 383.05 370.95 383.75 371.65 384.45 372.35 384.45 373.4 384.45 376.55 381.7 378.85 379.1 381.0 375.85 381.0 372.95 381.0 371.0 379.1 369.1 377.25 369.1 374.3 L369.1 373.5 370.3 362.4 Q370.45 360.95 371.25 360.1 M188.3 360.3 Q189.35 358.8 190.9 358.8 192.05 358.8 192.7 359.45 193.4 360.15 193.4 361.35 193.4 363.9 192.95 365.3 192.25 367.55 190.2 367.55 189.2 367.55 188.2 366.8 L186.45 365.4 Q185.25 364.65 183.7 364.65 181.2 364.65 179.5 366.4 177.75 368.1 177.75 370.6 177.75 372.55 179.15 373.9 180.5 375.25 182.45 375.25 184.0 375.25 185.4 374.4 L187.55 372.8 Q188.65 371.95 189.55 371.95 190.55 371.95 191.35 372.7 192.1 373.4 192.1 374.45 192.1 375.9 190.1 377.85 186.8 381.0 181.9 381.0 177.45 381.0 174.6 378.25 171.6 375.45 171.6 371.05 171.6 366.05 175.2 362.55 178.8 359.0 183.8 359.0 186.85 359.0 188.3 360.3 M201.7 360.15 Q202.45 360.8 202.35 361.85 L200.7 377.6 Q200.45 380.5 197.75 380.5 L194.6 380.5 Q193.45 380.5 192.75 379.85 192.05 379.2 192.05 378.05 192.05 376.75 192.9 375.95 193.8 375.1 195.1 375.05 L196.2 364.9 Q195.1 364.95 194.4 364.3 193.7 363.6 193.7 362.55 193.7 361.15 194.6 360.3 195.5 359.5 196.9 359.5 L199.9 359.5 Q201.0 359.5 201.7 360.15 M202.1 375.85 Q202.95 375.0 204.25 375.05 L204.8 369.95 Q202.3 369.75 202.3 367.45 202.3 366.1 203.15 365.3 204.05 364.55 205.4 364.55 L208.45 364.55 Q209.6 364.55 210.35 365.2 211.15 365.85 211.05 367.0 L209.9 377.75 Q209.8 379.0 208.95 379.75 208.1 380.5 206.85 380.5 L203.75 380.5 Q202.65 380.5 201.95 379.8 201.25 379.1 201.25 378.0 201.25 376.7 202.1 375.85 M229.35 364.25 Q228.65 363.5 228.65 362.45 228.65 361.2 229.6 360.35 230.55 359.5 231.85 359.5 L234.65 359.5 Q237.3 359.5 237.3 361.95 L237.3 362.4 236.45 370.55 240.3 370.55 240.4 369.85 Q238.1 369.45 238.1 367.5 238.1 366.25 239.1 365.4 240.05 364.55 241.35 364.55 L244.2 364.55 Q245.35 364.55 246.05 365.2 246.8 365.85 246.8 367.0 246.8 368.3 246.2 369.8 245.6 371.25 244.7 372.1 L246.05 374.2 Q246.65 375.45 246.65 376.55 246.65 380.5 243.4 380.5 L241.0 380.5 Q239.9 380.5 239.15 379.85 238.4 379.15 238.4 378.05 238.4 376.05 240.6 375.05 L240.65 374.2 236.05 374.2 235.95 375.1 Q237.95 375.4 237.95 377.55 237.95 378.8 237.1 379.65 236.15 380.5 234.9 380.5 L232.6 380.5 Q229.6 380.5 229.75 378.05 L231.1 364.95 Q230.1 365.05 229.35 364.25 M226.75 364.0 Q229.25 364.0 229.25 366.15 L228.9 369.65 Q228.75 370.9 227.95 371.7 227.2 372.45 225.95 372.45 224.85 372.45 224.15 371.65 L223.1 370.2 Q222.4 369.4 221.2 369.4 219.8 369.4 218.9 370.4 217.95 371.4 217.95 372.75 217.95 373.95 218.7 374.75 219.45 375.5 220.65 375.5 221.55 375.5 223.2 374.6 224.85 373.7 225.35 373.7 226.35 373.7 227.1 374.4 227.85 375.05 227.85 376.05 227.85 377.55 225.9 379.05 223.45 381.0 219.8 381.0 216.3 381.0 214.05 379.1 211.7 377.1 211.7 373.65 211.7 369.65 214.35 366.8 217.0 364.0 220.95 364.0 223.35 364.0 224.7 365.15 L224.75 365.0 Q225.45 364.0 226.75 364.0 M210.45 358.75 Q211.35 359.65 211.35 360.95 211.35 362.25 210.45 363.15 209.5 364.05 208.2 364.05 206.95 364.05 206.05 363.1 205.15 362.15 205.15 360.9 205.15 359.65 206.05 358.75 207.0 357.85 208.2 357.85 209.5 357.85 210.45 358.75 M269.6 369.55 L263.0 369.55 262.6 373.15 262.6 373.65 262.55 374.1 Q262.55 374.75 263.05 375.2 263.5 375.65 264.15 375.65 265.4 375.65 266.1 374.45 L267.3 372.2 Q268.1 370.95 269.65 370.95 270.65 370.95 271.35 371.65 272.05 372.35 272.05 373.4 272.05 376.55 269.3 378.85 266.7 381.0 263.45 381.0 260.55 381.0 258.6 379.1 256.7 377.25 256.7 374.3 L256.7 373.5 257.9 362.4 Q258.05 360.95 258.85 360.1 259.75 359.05 261.15 359.05 262.35 359.05 263.05 359.85 263.75 360.6 263.75 361.8 L263.5 364.55 270.25 364.55 Q271.35 364.55 272.05 365.15 272.75 365.75 272.75 366.8 272.75 368.15 271.85 368.85 270.95 369.55 269.6 369.55 M282.9 364.05 Q286.45 364.05 288.75 366.0 291.2 368.0 291.2 371.5 291.2 375.7 288.15 378.4 285.25 380.95 281.0 380.95 277.5 380.95 275.25 379.0 272.9 376.9 272.9 373.4 272.9 369.25 275.8 366.6 278.65 364.05 282.9 364.05 M280.0 370.4 Q279.05 371.55 279.05 373.05 279.05 374.2 279.75 375.0 280.45 375.85 281.65 375.85 283.15 375.85 284.1 374.65 285.0 373.55 285.0 372.05 285.0 370.85 284.3 370.05 283.55 369.2 282.4 369.2 280.9 369.2 280.0 370.4 M309.6 370.65 Q311.9 370.65 313.3 371.7 315.0 372.9 315.0 375.05 315.0 377.4 313.4 378.95 311.85 380.5 309.5 380.5 L302.5 380.5 Q300.05 380.5 300.05 378.05 L300.35 375.25 308.6 375.25 309.2 375.05 309.05 374.45 307.7 374.35 306.2 374.45 Q303.95 374.45 302.5 373.4 300.85 372.2 300.85 370.05 300.85 367.5 302.65 365.95 304.35 364.55 306.9 364.55 L312.85 364.55 Q315.5 364.55 315.5 367.05 L315.2 369.8 307.15 369.8 306.7 370.0 306.6 370.5 Q306.65 370.75 307.35 370.75 L308.5 370.7 309.6 370.65" fill="#ffffff" fill-rule="evenodd" stroke="none"/>
    <path d="M286.5 20.9 Q285.05 22.25 283.1 22.25 281.1 22.25 279.75 20.8 278.4 19.4 278.4 17.4 278.4 15.55 279.8 14.15 281.2 12.8 283.1 12.8 285.05 12.8 286.5 14.15 287.85 15.55 287.85 17.5 287.85 19.5 286.5 20.9" fill="url(#gradient0)" fill-rule="evenodd" stroke="none"/>
    <path d="M298.1 35.95 Q298.1 37.8 299.2 39.05 300.3 40.3 302.15 40.3 304.4 40.3 305.85 38.65 307.25 37.0 307.25 34.7 307.25 32.9 306.15 31.65 305.05 30.45 303.25 30.45 301.0 30.45 299.55 32.05 298.1 33.65 298.1 35.95 M296.8 48.8 Q298.5 48.8 299.5 49.75 300.55 50.75 300.55 52.4 300.55 54.6 299.1 55.9 297.7 57.15 295.5 57.15 L291.35 57.15 Q289.55 57.15 288.45 56.35 287.25 55.35 287.3 53.6 L287.3 52.85 289.3 33.95 Q289.85 28.7 294.5 25.4 298.75 22.4 304.25 22.4 309.45 22.4 312.95 25.6 316.4 28.85 316.4 34.0 316.4 39.75 312.55 43.9 308.65 48.25 303.0 48.25 299.25 48.25 297.05 46.15 L296.8 48.8" fill="url(#gradient1)" fill-rule="evenodd" stroke="none"/>
    <path d="M284.2 46.35 Q282.9 47.5 281.0 47.5 L276.25 47.5 Q274.55 47.5 273.45 46.4 272.35 45.35 272.35 43.7 272.35 41.65 273.65 40.35 275.0 39.05 277.0 39.1 L277.85 31.35 Q274.05 31.0 274.05 27.5 274.05 25.4 275.35 24.2 276.65 23.0 278.75 23.0 L283.4 23.0 Q285.2 23.0 286.4 24.05 287.55 25.05 287.4 26.8 L285.65 43.3 Q285.5 45.15 284.2 46.35" fill="url(#gradient2)" fill-rule="evenodd" stroke="none"/>
    <path d="M273.6 23.85 Q273.45 25.6 272.1 26.7 270.75 27.75 269.0 27.75 267.2 27.75 266.2 26.4 265.35 25.2 265.35 23.35 L262.45 23.35 260.8 39.1 Q264.75 39.1 264.75 42.65 264.75 44.8 263.3 46.15 261.9 47.5 259.75 47.5 L250.95 47.5 Q249.3 47.5 248.2 46.45 247.05 45.45 247.05 43.8 247.05 41.9 248.45 40.45 249.85 39.1 251.75 39.1 L253.45 23.35 250.65 23.35 Q249.6 27.75 245.95 27.75 244.3 27.75 243.2 26.7 242.05 25.6 242.15 23.95 L242.35 21.0 Q242.55 18.65 242.95 18.25 244.15 15.3 247.4 15.3 L270.3 15.3 Q274.1 15.3 274.1 19.1 L273.6 23.85" fill="url(#gradient3)" fill-rule="evenodd" stroke="none"/>
  </g>
  <defs>
    <radialGradient cx="0" cy="0" gradientTransform="matrix(0.0063, 0.0, 0.0, 0.0063, 283.15, 17.55)" gradientUnits="userSpaceOnUse" id="gradient0" r="819.2" spreadMethod="pad">
      <stop offset="0.0" stop-color="#00cc00"/>
      <stop offset="1.0" stop-color="#ffffff"/>
    </radialGradient>
    <radialGradient cx="0" cy="0" gradientTransform="matrix(0.0273, 0.0, 0.0, 0.0273, 301.85, 39.8)" gradientUnits="userSpaceOnUse" id="gradient1" r="819.2" spreadMethod="pad">
      <stop offset="0.0" stop-color="#00cc00"/>
      <stop offset="1.0" stop-color="#ffffff"/>
    </radialGradient>
    <radialGradient cx="0" cy="0" gradientTransform="matrix(0.0159, 0.0, 0.0, 0.0159, 279.9, 35.25)" gradientUnits="userSpaceOnUse" id="gradient2" r="819.2" spreadMethod="pad">
      <stop offset="0.0" stop-color="#00cc00"/>
      <stop offset="1.0" stop-color="#ffffff"/>
    </radialGradient>
    <radialGradient cx="0" cy="0" gradientTransform="matrix(0.0265, 0.0, 0.0, 0.0265, 258.1, 31.4)" gradientUnits="userSpaceOnUse" id="gradient3" r="819.2" spreadMethod="pad">
      <stop offset="0.0" stop-color="#00cc00"/>
      <stop offset="1.0" stop-color="#ffffff"/>
    </radialGradient>
  </defs>
</svg>
