<?xml version="1.0" encoding="UTF-8" standalone="no"?>
<svg xmlns:xlink="http://www.w3.org/1999/xlink" height="27.3px" width="28.5px" xmlns="http://www.w3.org/2000/svg">
  <g transform="matrix(1.0, 0.0, 0.0, 1.0, 14.25, 13.65)">
    <path d="M-0.25 6.5 L0.0 6.5 Q2.85 6.5 4.85 4.55 6.9 2.65 6.9 -0.1 L6.9 -0.2 10.25 -0.2 10.25 0.0 Q10.2 4.1 7.2 7.0 4.2 9.85 -0.1 9.9 L-0.25 9.9 Q-4.4 9.8 -7.4 7.0 -10.4 4.1 -10.4 0.0 L-10.4 -0.2 -6.85 -0.2 -6.85 -0.1 Q-6.85 2.65 -4.85 4.55 -2.95 6.4 -0.25 6.5 L-0.25 9.9 -0.25 6.5 M3.2 -0.2 L3.2 -0.1 Q3.2 1.25 2.2 2.25 1.2 3.2 -0.25 3.2 L-0.25 -0.2 3.2 -0.2 -0.25 -0.2 -0.25 3.2 Q-1.65 3.2 -2.65 2.25 -3.65 1.25 -3.65 -0.1 L-3.65 -0.2 Q-3.65 -1.5 -2.65 -2.4 -1.65 -3.4 -0.25 -3.35 L-0.25 -0.2 -3.65 -0.2 -0.25 -0.2 -0.25 -3.35 Q1.2 -3.4 2.2 -2.4 3.15 -1.5 3.2 -0.2 M-0.25 -9.85 Q-4.4 -9.8 -7.4 -6.95 -10.35 -4.15 -10.4 -0.2 L-13.75 -0.2 Q-13.7 -5.5 -9.75 -9.3 -5.8 -13.05 -0.25 -13.15 L0.0 -13.15 Q5.7 -13.15 9.7 -9.3 13.7 -5.5 13.75 -0.2 L10.25 -0.2 Q10.15 -4.15 7.2 -6.95 4.2 -9.85 -0.1 -9.85 L-0.25 -9.85 -0.25 -13.15 -0.25 -9.85" fill="#08bec6" fill-rule="evenodd" stroke="none"/>
    <path d="M-0.25 6.5 L0.0 6.5 Q2.85 6.5 4.85 4.55 6.9 2.65 6.9 -0.1 L6.9 -0.2 Q6.85 -2.85 4.85 -4.75 2.85 -6.65 0.0 -6.65 L-0.25 -6.65 Q-2.95 -6.6 -4.85 -4.75 -6.85 -2.85 -6.85 -0.2 L-6.85 -0.1 Q-6.85 2.65 -4.85 4.55 -2.95 6.4 -0.25 6.5 M3.2 -0.2 L3.2 -0.1 Q3.2 1.25 2.2 2.25 1.2 3.2 -0.25 3.2 -1.65 3.2 -2.65 2.25 -3.65 1.25 -3.65 -0.1 L-3.65 -0.2 Q-3.65 -1.5 -2.65 -2.4 -1.65 -3.4 -0.25 -3.35 1.2 -3.4 2.2 -2.4 3.15 -1.5 3.2 -0.2 M-10.4 -0.2 L-10.4 0.0 Q-10.4 4.1 -7.4 7.0 -4.4 9.8 -0.25 9.9 L-0.1 9.9 Q4.2 9.85 7.2 7.0 10.2 4.1 10.25 0.0 L10.25 -0.2 Q10.15 -4.15 7.2 -6.95 4.2 -9.85 -0.1 -9.85 L-0.25 -9.85 Q-4.4 -9.8 -7.4 -6.95 -10.35 -4.15 -10.4 -0.2 M-13.75 -0.2 L-13.75 0.0 Q-13.75 5.45 -9.75 9.3 -5.8 13.05 -0.25 13.15 L0.0 13.15 Q5.7 13.15 9.7 9.3 13.75 5.45 13.75 0.0 L13.75 -0.2 Q13.7 -5.5 9.7 -9.3 5.7 -13.15 0.0 -13.15 L-0.25 -13.15 Q-5.8 -13.05 -9.75 -9.3 -13.7 -5.5 -13.75 -0.2" fill="none" stroke="#09bdc6" stroke-linecap="round" stroke-linejoin="round" stroke-width="1.0"/>
    <path d="M6.9 -0.2 L3.2 -0.2 -0.25 -0.2 -0.25 3.2 -0.25 6.5 -0.25 9.9 -0.25 13.15 M-6.85 -0.2 L-10.4 -0.2 -13.75 -0.2 M-3.65 -0.2 L-6.85 -0.2 M-0.25 -6.65 L-0.25 -9.85 -0.25 -13.15 M10.25 -0.2 L6.9 -0.2 M-0.25 -6.65 L-0.25 -3.35 -0.25 -0.2 -3.65 -0.2 M10.25 -0.2 L13.75 -0.2" fill="none" stroke="#09bdc6" stroke-linecap="round" stroke-linejoin="round" stroke-width="1.0"/>
  </g>
</svg>
