<?xml version="1.0" encoding="UTF-8" standalone="no"?>
<svg xmlns:xlink="http://www.w3.org/1999/xlink" height="71.05px" width="58.0px" xmlns="http://www.w3.org/2000/svg">
  <g transform="matrix(1.0, 0.0, 0.0, 1.0, 57.45, 9.05)">
    <path d="M-12.3 6.95 L-7.6 10.95 -7.05 11.45 -52.55 61.0 Q-68.4 45.75 -19.55 0.95 L-14.95 4.8 -15.45 5.35 -13.0 7.7 -12.3 6.95" fill="url(#gradient0)" fill-rule="evenodd" stroke="none"/>
    <path d="M-14.95 4.8 L-2.95 -8.05 -0.45 -5.7 -12.3 6.95 -13.0 7.7 -15.45 5.35 -14.95 4.8" fill="url(#gradient1)" fill-rule="evenodd" stroke="none"/>
    <path d="M-14.95 4.8 L-2.95 -8.05 -0.45 -5.7 -12.3 6.95 -13.0 7.7 -15.45 5.35 -14.95 4.8" fill="none" stroke="#000000" stroke-linecap="round" stroke-linejoin="round" stroke-width="2.0"/>
    <path d="M-12.3 6.95 L-7.6 10.95 M-7.05 11.45 L-6.6 10.95 M-14.95 4.8 L-19.55 0.95 Q-68.4 45.75 -52.55 61.0 L-7.05 11.45" fill="none" stroke="#000000" stroke-linecap="round" stroke-linejoin="round" stroke-width="2.0"/>
  </g>
  <defs>
    <linearGradient gradientTransform="matrix(0.0302, 0.0, 0.0, 0.0367, -31.75, 30.95)" gradientUnits="userSpaceOnUse" id="gradient0" spreadMethod="pad" x1="-819.2" x2="819.2">
      <stop offset="0.0" stop-color="#999999"/>
      <stop offset="0.4588235294117647" stop-color="#999999"/>
      <stop offset="1.0" stop-color="#ffffff"/>
    </linearGradient>
    <linearGradient gradientTransform="matrix(0.0092, 0.0, 0.0, 0.0096, -8.0, -0.15)" gradientUnits="userSpaceOnUse" id="gradient1" spreadMethod="pad" x1="-819.2" x2="819.2">
      <stop offset="0.0" stop-color="#9e5605"/>
      <stop offset="0.7725490196078432" stop-color="#d2b08b"/>
      <stop offset="1.0" stop-color="#ffffff"/>
    </linearGradient>
  </defs>
</svg>
