<?xml version="1.0" encoding="UTF-8" standalone="no"?>
<svg xmlns:xlink="http://www.w3.org/1999/xlink" height="93.95px" width="73.1px" xmlns="http://www.w3.org/2000/svg">
  <g transform="matrix(1.0, 0.0, 0.0, 1.0, 68.55, 14.2)">
    <path d="M-4.85 -7.6 L-4.65 -9.0 Q-4.3 -12.3 -1.75 -13.7 -2.85 -8.9 1.9 -9.8 6.25 -3.9 1.75 -3.9 -0.1 -3.9 -1.95 -3.05 L-1.85 -3.25 -1.85 -3.65 -2.45 -4.5 -3.95 -6.7 -4.15 -7.2 Q-4.2 -7.75 -4.75 -7.65 L-4.85 -7.6 M-9.25 6.3 L-9.15 7.05 -8.55 8.4 Q-8.25 9.6 -9.2 10.35 -11.85 12.5 -13.1 15.55 L-13.6 16.55 -13.9 17.6 Q-16.15 18.65 -18.05 17.15 -17.6 18.15 -16.2 18.9 L-14.05 19.15 -13.9 20.9 Q-13.55 22.9 -13.35 25.05 -12.9 28.6 -15.4 30.75 -18.0 32.95 -20.9 34.0 -20.55 33.15 -20.7 32.15 -21.15 29.6 -22.65 27.65 -24.1 25.6 -24.05 23.5 L-25.75 24.7 Q-27.25 25.95 -28.55 27.55 L-29.1 28.3 Q-30.2 26.15 -32.7 26.5 L-35.5 27.3 -32.3 27.55 Q-31.0 28.0 -30.4 29.1 L-30.15 29.65 Q-31.45 29.2 -32.85 29.15 L-34.75 29.2 Q-33.2 29.5 -32.1 30.4 L-31.4 31.3 Q-33.35 30.45 -35.55 30.55 -36.75 30.6 -37.9 31.2 -36.0 31.3 -34.3 31.95 -33.45 32.25 -33.0 33.2 L-33.0 33.25 -33.05 33.3 -34.9 33.25 -35.75 33.6 Q-35.0 33.4 -34.45 33.85 L-34.0 34.35 -37.65 35.1 Q-38.65 35.3 -39.2 36.15 -37.55 35.35 -35.85 35.7 -35.3 35.85 -34.9 36.15 L-35.9 37.75 Q-37.1 39.55 -37.55 42.45 -38.15 45.35 -38.2 48.7 -38.35 54.1 -37.45 58.5 L-40.6 58.2 -41.9 58.45 -43.2 54.6 Q-43.85 52.45 -43.25 50.4 -43.15 50.05 -43.2 49.7 -43.75 51.3 -44.1 53.4 -44.35 54.6 -44.05 55.8 L-43.2 58.1 Q-44.15 58.25 -44.9 56.75 L-45.75 54.25 -45.9 53.6 -46.2 55.7 Q-46.35 56.85 -45.75 57.95 L-44.85 59.5 Q-45.95 59.55 -46.75 58.65 L-47.45 57.8 -46.7 59.6 -46.05 60.3 Q-48.7 61.9 -50.9 64.4 L-56.3 70.55 Q-59.75 74.6 -62.8 79.25 -64.2 76.8 -65.15 73.7 L-66.25 70.1 -65.9 69.55 Q-64.8 67.95 -63.2 67.4 -65.05 67.65 -66.65 68.5 L-67.6 63.8 Q-68.55 58.65 -67.55 53.55 L-67.1 51.25 Q-66.5 50.75 -65.7 50.85 L-62.85 51.0 Q-64.35 49.4 -66.55 49.3 -65.7 46.55 -64.45 43.95 -62.25 39.3 -59.2 35.05 L-56.05 30.85 -52.8 26.85 -46.6 20.15 -46.15 19.8 -44.1 18.4 Q-39.5 15.25 -36.8 12.25 L-39.8 12.3 -44.2 12.45 Q-39.95 9.65 -34.85 7.6 -29.9 5.5 -24.75 4.0 -20.0 2.55 -16.05 2.95 L-15.75 2.95 -15.5 2.9 -14.25 2.65 -14.0 2.8 Q-12.95 3.35 -12.15 4.5 -11.3 5.65 -10.3 6.1 L-9.25 6.3" fill="url(#gradient0)" fill-rule="evenodd" stroke="none"/>
    <path d="M-9.15 7.05 L-8.95 7.5 -8.55 8.4 -9.15 7.05" fill="url(#gradient1)" fill-rule="evenodd" stroke="none"/>
    <path d="M-14.25 2.65 L-14.45 2.5 -14.7 2.05 -14.65 1.6 -13.7 0.6 -13.3 0.25 -12.0 0.3 -11.95 0.35 Q-12.0 -1.55 -10.3 -1.05 L-9.85 -0.8 Q-10.4 -2.05 -9.5 -2.45 L-9.0 -2.6 -8.45 -2.55 Q-8.7 -2.85 -8.65 -3.45 L-8.65 -3.7 Q-8.7 -4.25 -8.0 -4.3 L-7.75 -4.3 -7.5 -4.25 -7.2 -4.1 Q-7.65 -5.2 -6.7 -5.6 L-6.25 -5.7 -5.75 -5.65 Q-6.4 -7.0 -5.5 -7.4 L-4.85 -7.6 -4.75 -7.65 Q-4.2 -7.75 -4.15 -7.2 L-3.95 -6.7 -2.45 -4.5 -1.85 -3.65 -1.85 -3.25 -1.95 -3.05 -2.7 -2.1 -3.1 -1.8 -3.45 -1.75 -3.45 -1.7 Q-3.25 -0.65 -4.25 -0.6 L-4.5 -0.5 -4.85 -0.45 Q-4.9 0.4 -5.5 0.8 L-5.7 1.05 -6.2 1.35 Q-6.1 2.05 -6.75 2.15 L-7.0 2.2 Q-7.5 2.2 -7.75 2.55 L-7.35 3.4 -7.35 3.75 Q-7.5 4.05 -8.0 4.15 L-8.25 4.2 -8.55 4.15 Q-7.45 5.0 -8.05 6.05 L-8.25 6.2 -9.25 6.3 -10.3 6.1 Q-11.3 5.65 -12.15 4.5 -12.95 3.35 -14.0 2.8 L-14.25 2.65 M-3.45 -1.75 L-3.55 -2.0 -3.6 -2.15 Q-4.1 -3.35 -5.05 -4.7 L-5.15 -4.95 Q-5.25 -5.35 -5.5 -5.55 L-5.75 -5.65 -5.5 -5.55 Q-5.25 -5.35 -5.15 -4.95 L-5.05 -4.7 Q-4.1 -3.35 -3.6 -2.15 L-3.55 -2.0 -3.45 -1.75 M-6.3 0.95 L-6.5 0.55 -6.6 0.35 -7.2 -0.95 -7.6 -1.6 -7.8 -2.0 -7.85 -2.05 Q-8.05 -2.5 -8.45 -2.55 -8.05 -2.5 -7.85 -2.05 L-7.8 -2.0 -7.6 -1.6 -7.2 -0.95 -6.6 0.35 -6.5 0.55 -6.3 0.95 Q-6.45 1.3 -6.2 1.35 L-6.3 1.05 -6.3 0.95 M-7.2 -4.1 L-6.55 -3.55 -5.9 -2.75 -5.2 -1.7 -4.95 -1.2 -4.85 -0.45 -4.95 -1.2 -5.2 -1.7 -5.9 -2.75 -6.55 -3.55 -7.2 -4.1 M-8.55 4.15 L-8.75 4.0 -8.9 3.85 -8.95 3.8 -10.05 2.6 -11.1 1.35 -11.3 1.0 -11.6 0.6 -11.95 0.35 -11.6 0.6 -11.3 1.0 -11.1 1.35 -10.05 2.6 -8.95 3.8 -8.9 3.85 -8.75 4.0 -8.55 4.15 M-7.75 2.55 L-7.75 2.3 -7.85 1.85 Q-8.6 0.55 -9.45 -0.4 L-9.75 -0.7 -9.85 -0.8 -9.75 -0.7 -9.45 -0.4 Q-8.6 0.55 -7.85 1.85 L-7.75 2.3 -7.75 2.55" fill="#b27838" fill-rule="evenodd" stroke="none"/>
    <path d="M-9.15 7.05 L-8.95 7.5 -8.55 8.4 Q-8.25 9.6 -9.2 10.35 -11.85 12.5 -13.1 15.55 L-13.6 16.55 -13.9 17.6 Q-16.15 18.65 -18.05 17.15 -17.6 18.15 -16.2 18.9 L-14.05 19.15 -13.9 20.9 Q-13.55 22.9 -13.35 25.05 -12.9 28.6 -15.4 30.75 -18.0 32.95 -20.9 34.0 -20.55 33.15 -20.7 32.15 -21.15 29.6 -22.65 27.65 -24.1 25.6 -24.05 23.5 L-25.75 24.7 Q-27.25 25.95 -28.55 27.55 L-29.1 28.3 Q-30.2 26.15 -32.7 26.5 L-35.5 27.3 -32.3 27.55 Q-31.0 28.0 -30.4 29.1 L-30.15 29.65 Q-31.45 29.2 -32.85 29.15 L-34.75 29.2 Q-33.2 29.5 -32.1 30.4 L-31.4 31.3 Q-33.35 30.45 -35.55 30.55 -36.75 30.6 -37.9 31.2 -36.0 31.3 -34.3 31.95 -33.45 32.25 -33.0 33.2 L-33.0 33.25 -33.05 33.3 -34.9 33.25 -35.75 33.6 Q-35.0 33.4 -34.45 33.85 L-34.0 34.35 -37.65 35.1 Q-38.65 35.3 -39.2 36.15 -37.55 35.35 -35.85 35.7 -35.3 35.85 -34.9 36.15 L-35.9 37.75 Q-37.1 39.55 -37.55 42.45 -38.15 45.35 -38.2 48.7 -38.35 54.1 -37.45 58.5 L-40.6 58.2 -41.9 58.45 -43.2 54.6 Q-43.85 52.45 -43.25 50.4 -43.15 50.05 -43.2 49.7 -43.75 51.3 -44.1 53.4 -44.35 54.6 -44.05 55.8 L-43.2 58.1 Q-44.15 58.25 -44.9 56.75 L-45.75 54.25 -45.9 53.6 -46.2 55.7 Q-46.35 56.85 -45.75 57.95 L-44.85 59.5 Q-45.95 59.55 -46.75 58.65 L-47.45 57.8 -46.7 59.6 -46.05 60.3 Q-48.7 61.9 -50.9 64.4 L-56.3 70.55 Q-59.75 74.6 -62.8 79.25 -64.2 76.8 -65.15 73.7 L-66.25 70.1 -65.9 69.55 Q-64.8 67.95 -63.2 67.4 -65.05 67.65 -66.65 68.5 L-67.6 63.8 Q-68.55 58.65 -67.55 53.55 L-67.1 51.25 Q-66.5 50.75 -65.7 50.85 L-62.85 51.0 Q-64.35 49.4 -66.55 49.3 -65.7 46.55 -64.45 43.95 -62.25 39.3 -59.2 35.05 L-56.05 30.85 -52.8 26.85 -46.6 20.15 -46.15 19.8 -44.1 18.4 Q-39.5 15.25 -36.8 12.25 L-39.8 12.3 -44.2 12.45 Q-39.95 9.65 -34.85 7.6 -29.9 5.5 -24.75 4.0 -20.0 2.55 -16.05 2.95 L-15.75 2.95 -15.5 2.9" fill="none" stroke="#000000" stroke-linecap="round" stroke-linejoin="round" stroke-width="1.0"/>
    <path d="M-4.85 -7.6 L-4.65 -9.0 Q-4.3 -12.3 -1.75 -13.7 -2.85 -8.9 1.9 -9.8 6.25 -3.9 1.75 -3.9 -0.1 -3.9 -1.95 -3.05 M-9.25 6.3 L-9.15 7.05 -8.55 8.4 M-15.5 2.9 L-14.25 2.65" fill="none" stroke="#000000" stroke-linecap="round" stroke-linejoin="round" stroke-width="1.0"/>
    <path d="M-14.25 2.65 L-14.45 2.5 -14.7 2.05 -14.65 1.6 -13.7 0.6 -13.3 0.25 -12.0 0.3 -11.95 0.35 Q-12.0 -1.55 -10.3 -1.05 L-9.85 -0.8 Q-10.4 -2.05 -9.5 -2.45 L-9.0 -2.6 -8.45 -2.55 Q-8.7 -2.85 -8.65 -3.45 L-8.65 -3.7 Q-8.7 -4.25 -8.0 -4.3 L-7.75 -4.3 -7.5 -4.25 -7.2 -4.1 Q-7.65 -5.2 -6.7 -5.6 L-6.25 -5.7 -5.75 -5.65 Q-6.4 -7.0 -5.5 -7.4 L-4.85 -7.6 -4.75 -7.65 Q-4.2 -7.75 -4.15 -7.2 L-3.95 -6.7 -2.45 -4.5 -1.85 -3.65 -1.85 -3.25 -1.95 -3.05 -2.7 -2.1 -3.1 -1.8 -3.45 -1.75 -3.45 -1.7 Q-3.25 -0.65 -4.25 -0.6 L-4.5 -0.5 -4.85 -0.45 Q-4.9 0.4 -5.5 0.8 L-5.7 1.05 -6.2 1.35 Q-6.1 2.05 -6.75 2.15 L-7.0 2.2 Q-7.5 2.2 -7.75 2.55 L-7.35 3.4 -7.35 3.75 Q-7.5 4.05 -8.0 4.15 L-8.25 4.2 -8.55 4.15 Q-7.45 5.0 -8.05 6.05 L-8.25 6.2 -9.25 6.3 -10.3 6.1 Q-11.3 5.65 -12.15 4.5 -12.95 3.35 -14.0 2.8 L-14.25 2.65 M-5.75 -5.65 L-5.5 -5.55 Q-5.25 -5.35 -5.15 -4.95 L-5.05 -4.7 Q-4.1 -3.35 -3.6 -2.15 L-3.55 -2.0 -3.45 -1.75 M-4.85 -0.45 L-4.95 -1.2 -5.2 -1.7 -5.9 -2.75 -6.55 -3.55 -7.2 -4.1 M-8.45 -2.55 Q-8.05 -2.5 -7.85 -2.05 L-7.8 -2.0 -7.6 -1.6 -7.2 -0.95 -6.6 0.35 -6.5 0.55 -6.3 0.95 -6.3 1.05 -6.2 1.35 Q-6.45 1.3 -6.3 0.95 M-9.85 -0.8 L-9.75 -0.7 -9.45 -0.4 Q-8.6 0.55 -7.85 1.85 L-7.75 2.3 -7.75 2.55 M-11.95 0.35 L-11.6 0.6 -11.3 1.0 -11.1 1.35 -10.05 2.6 -8.95 3.8 -8.9 3.85 -8.75 4.0 -8.55 4.15" fill="none" stroke="#000000" stroke-linecap="round" stroke-linejoin="round" stroke-width="0.75"/>
  </g>
  <defs>
    <radialGradient cx="0" cy="0" gradientTransform="matrix(0.0258, 0.0193, -0.0388, 0.0517, -46.75, 23.8)" gradientUnits="userSpaceOnUse" id="gradient0" r="819.2" spreadMethod="pad">
      <stop offset="0.0" stop-color="#986807"/>
      <stop offset="0.5764705882352941" stop-color="#efca3a"/>
      <stop offset="1.0" stop-color="#ffffff"/>
    </radialGradient>
    <radialGradient cx="0" cy="0" gradientTransform="matrix(0.0287, 0.0264, 0.043, -0.0469, -48.3, 26.45)" gradientUnits="userSpaceOnUse" id="gradient1" r="819.2" spreadMethod="pad">
      <stop offset="0.0" stop-color="#986807"/>
      <stop offset="0.5764705882352941" stop-color="#efca3a"/>
      <stop offset="1.0" stop-color="#ffffff"/>
    </radialGradient>
  </defs>
</svg>
