<?xml version="1.0" encoding="UTF-8" standalone="no"?>
<svg xmlns:xlink="http://www.w3.org/1999/xlink" height="12.75px" width="26.1px" xmlns="http://www.w3.org/2000/svg">
  <g transform="matrix(1.0, 0.0, 0.0, 1.0, 12.9, 2.95)">
    <path d="M3.95 -1.95 L6.4 -0.8 Q9.1 0.85 10.8 3.15 12.5 5.45 12.15 7.1 11.75 8.7 9.65 8.7 7.45 8.7 4.75 7.1 2.0 5.45 0.3 3.15 L0.2 3.0 0.0 3.25 Q-1.7 5.55 -4.4 7.15 -7.15 8.8 -9.3 8.8 -11.45 8.8 -11.8 7.15 -12.2 5.55 -10.5 3.25 -8.8 0.9 -6.05 -0.7 L-3.75 -1.85 -3.15 -2.05 -2.8 -2.15 -1.2 -2.35 0.05 -2.15 1.5 -2.4 3.15 -2.2 3.75 -2.05 3.95 -1.95" fill="url(#gradient0)" fill-rule="evenodd" stroke="none"/>
    <path d="M3.95 -1.95 L6.4 -0.8 Q9.1 0.85 10.8 3.15 12.5 5.45 12.15 7.1 11.75 8.7 9.65 8.7 7.45 8.7 4.75 7.1 2.0 5.45 0.3 3.15 L0.2 3.0 0.0 3.25 Q-1.7 5.55 -4.4 7.15 -7.15 8.8 -9.3 8.8 -11.45 8.8 -11.8 7.15 -12.2 5.55 -10.5 3.25 -8.8 0.9 -6.05 -0.7 L-3.75 -1.85" fill="none" stroke="#000000" stroke-linecap="round" stroke-linejoin="round" stroke-width="2.0"/>
  </g>
  <defs>
    <radialGradient cx="0" cy="0" gradientTransform="matrix(0.0363, 0.0, 0.0, 0.0136, -6.8, 1.0)" gradientUnits="userSpaceOnUse" id="gradient0" r="819.2" spreadMethod="pad">
      <stop offset="0.0" stop-color="#0066ff"/>
      <stop offset="1.0" stop-color="#ffffff"/>
    </radialGradient>
  </defs>
</svg>
