<?xml version="1.0" encoding="UTF-8" standalone="no"?>
<svg xmlns:xlink="http://www.w3.org/1999/xlink" height="46.0px" width="46.5px" xmlns="http://www.w3.org/2000/svg">
  <g transform="matrix(1.0, 0.0, 0.0, 1.0, 23.25, 23.0)">
    <path d="M0.0 -22.5 Q9.4 -22.5 16.05 -15.9 22.75 -9.3 22.75 0.0 22.75 9.3 16.05 15.9 9.4 22.5 0.0 22.5 -9.4 22.5 -16.1 15.9 -22.75 9.3 -22.75 0.0 -22.75 -9.3 -16.1 -15.9 -9.4 -22.5 0.0 -22.5 Z" fill="none" stroke="#000000" stroke-linecap="round" stroke-linejoin="round" stroke-width="1.0"/>
    <path d="M1.25 -20.5 Q1.4 -16.8 2.25 -13.5 L1.05 -12.7 0.45 -12.05 -0.45 -11.45 -1.85 -9.7 Q-2.4 -8.65 -2.55 -7.35 L-2.95 -3.65 -3.2 -3.9 Q-3.75 -4.35 -4.5 -4.35 L-4.55 -4.35 Q-2.9 -6.15 -2.9 -8.0 L-3.0 -9.05 -2.9 -10.0 Q-2.9 -12.05 -4.45 -13.2 L-5.15 -13.65 Q-2.55 -17.3 1.25 -20.5 M10.0 -7.85 L9.45 -2.3 9.2 -1.0 Q8.8 0.15 8.0 1.1 L7.3 1.8 Q5.5 3.4 2.95 3.4 0.75 3.4 -0.85 1.95 L-1.4 1.35 -2.0 0.3 -2.25 -0.65 -2.35 -1.75 -2.2 -3.4 -1.8 -7.1 Q-1.65 -8.4 -1.1 -9.45 L0.3 -11.2 1.2 -11.8 1.5 -12.0 2.0 -12.25 Q3.2 -12.75 4.65 -12.75 6.9 -12.75 8.45 -11.45 10.05 -10.1 10.0 -7.85 M5.65 -7.3 Q5.75 -8.85 4.45 -8.9 L4.3 -8.9 3.65 -8.75 3.45 -8.6 Q2.95 -8.3 2.65 -7.55 2.25 -6.55 2.15 -4.7 L2.0 -2.2 2.1 -1.45 Q2.35 -0.5 3.4 -0.5 4.65 -0.5 5.05 -1.75 L5.2 -2.55 5.3 -3.4 5.35 -3.7 5.5 -5.15 5.6 -6.6 5.65 -6.8 5.65 -7.3 M3.4 -7.05 L3.65 -7.5 4.3 -7.65 4.45 -7.65 4.85 -6.85 4.75 -5.4 4.6 -3.95 4.55 -3.65 4.45 -2.8 4.3 -2.0 4.15 -2.0 Q3.1 -2.0 2.85 -2.95 L2.9 -4.2 Q3.0 -6.05 3.4 -7.05 M-7.0 -12.55 L-5.9 -12.15 -5.2 -11.7 Q-3.65 -10.55 -3.65 -8.5 L-3.75 -7.55 Q-4.1 -6.2 -5.3 -4.85 L-9.0 -0.85 -7.45 -0.85 Q-7.3 -2.85 -5.3 -2.85 L-5.25 -2.85 -3.95 -2.4 Q-3.4 -1.95 -3.45 -1.2 L-3.55 0.1 -3.65 1.0 -4.05 2.0 Q-4.65 3.0 -5.85 3.0 L-13.7 3.0 Q-14.5 3.0 -15.05 2.6 -15.65 2.15 -15.65 1.4 -15.65 0.45 -15.0 -0.2 L-8.6 -6.7 Q-8.15 -7.15 -8.15 -7.8 -8.15 -8.45 -8.6 -8.7 L-9.0 -8.8 -9.2 -8.8 Q-10.5 -8.8 -10.5 -7.25 L-10.45 -6.8 -10.45 -6.3 Q-10.45 -5.45 -11.05 -4.85 -11.7 -4.25 -12.6 -4.25 -13.65 -4.25 -14.2 -5.25 -14.7 -6.0 -14.7 -7.15 -14.7 -9.65 -12.95 -11.25 -11.3 -12.75 -8.75 -12.75 L-7.0 -12.55 M-2.4 20.0 Q-4.4 20.45 -5.85 20.0 L-7.65 18.8 12.7 2.25 16.65 7.1 Q4.1 18.5 -2.4 20.0 M-2.15 1.1 Q-1.8 2.25 -0.85 3.2 0.75 4.65 2.95 4.65 5.5 4.65 7.3 3.05 L8.0 2.35 8.05 2.3 Q9.4 1.15 9.95 -0.5 L11.75 1.0 11.75 1.5 -8.25 17.75 Q-10.65 10.6 -10.7 4.25 L-5.85 4.25 Q-4.65 4.25 -4.05 3.25 -3.2 2.8 -2.9 1.5 L-2.75 0.05 -2.15 1.1 M14.7 3.55 L19.55 -0.4 20.8 1.15 15.95 5.1 14.7 3.55" fill="#000000" fill-rule="evenodd" stroke="none"/>
  </g>
</svg>
