<?xml version="1.0" encoding="UTF-8" standalone="no"?>
<svg xmlns:xlink="http://www.w3.org/1999/xlink" height="13.5px" width="34.0px" xmlns="http://www.w3.org/2000/svg">
  <g transform="matrix(1.0, 0.0, 0.0, 1.0, 16.5, 11.05)">
    <path d="M11.8 -8.4 Q16.5 -6.7 16.5 -4.3 16.5 -1.9 11.8 -0.25 7.15 1.45 0.5 1.45 -6.15 1.45 -10.85 -0.25 -15.5 -1.9 -15.5 -4.3 -15.5 -6.7 -10.85 -8.4 -6.15 -10.05 0.5 -10.05 7.15 -10.05 11.8 -8.4" fill="url(#gradient0)" fill-rule="evenodd" stroke="none"/>
    <path d="M11.8 -8.4 Q16.5 -6.7 16.5 -4.3 16.5 -1.9 11.8 -0.25 7.15 1.45 0.5 1.45 -6.15 1.45 -10.85 -0.25 -15.5 -1.9 -15.5 -4.3 -15.5 -6.7 -10.85 -8.4 -6.15 -10.05 0.5 -10.05 7.15 -10.05 11.8 -8.4 Z" fill="none" stroke="#000000" stroke-linecap="round" stroke-linejoin="round" stroke-width="2.0"/>
  </g>
  <defs>
    <radialGradient cx="0" cy="0" gradientTransform="matrix(0.0257, 0.0, 0.0, 0.0196, -6.0, -4.8)" gradientUnits="userSpaceOnUse" id="gradient0" r="819.2" spreadMethod="pad">
      <stop offset="0.3843137254901961" stop-color="#0066ff"/>
      <stop offset="1.0" stop-color="#ffffff"/>
    </radialGradient>
  </defs>
</svg>
