<?xml version="1.0" encoding="UTF-8" standalone="no"?>
<svg xmlns:xlink="http://www.w3.org/1999/xlink" height="17.5px" width="17.5px" xmlns="http://www.w3.org/2000/svg">
  <g transform="matrix(1.0, 0.0, 0.0, 1.0, 8.8, 24.7)">
    <path d="M5.4 -21.45 L5.75 -21.05 Q7.7 -18.9 7.7 -15.95 7.7 -12.75 5.4 -10.5 L5.05 -10.15 Q2.9 -8.2 -0.05 -8.2 -3.05 -8.2 -5.25 -10.25 L-5.55 -10.5 Q-7.8 -12.75 -7.8 -15.95 -7.8 -18.8 -5.95 -20.95 L-5.55 -21.45 Q-3.25 -23.7 -0.05 -23.7 3.15 -23.7 5.4 -21.45" fill="url(#gradient0)" fill-rule="evenodd" stroke="none"/>
    <path d="M5.4 -21.45 L5.75 -21.05 Q7.7 -18.9 7.7 -15.95 7.7 -12.75 5.4 -10.5 L5.05 -10.15 Q2.9 -8.2 -0.05 -8.2 -3.05 -8.2 -5.25 -10.25 L-5.55 -10.5 Q-7.8 -12.75 -7.8 -15.95 -7.8 -18.8 -5.95 -20.95 L-5.55 -21.45 Q-3.25 -23.7 -0.05 -23.7 3.15 -23.7 5.4 -21.45 Z" fill="none" stroke="#000000" stroke-linecap="round" stroke-linejoin="round" stroke-width="2.0"/>
  </g>
  <defs>
    <linearGradient gradientTransform="matrix(0.0095, 0.0, 0.0, 0.0095, -0.05, -15.95)" gradientUnits="userSpaceOnUse" id="gradient0" spreadMethod="pad" x1="-819.2" x2="819.2">
      <stop offset="0.0" stop-color="#ffcc99"/>
      <stop offset="0.6901960784313725" stop-color="#ffe6cf"/>
      <stop offset="0.7411764705882353" stop-color="#ffe6cf"/>
      <stop offset="0.792156862745098" stop-color="#ffe6cf"/>
      <stop offset="0.8352941176470589" stop-color="#ffe7d0"/>
      <stop offset="1.0" stop-color="#ffffff"/>
    </linearGradient>
  </defs>
</svg>
