<?xml version="1.0" encoding="UTF-8" standalone="no"?>
<svg xmlns:xlink="http://www.w3.org/1999/xlink" height="17.5px" width="17.5px" xmlns="http://www.w3.org/2000/svg">
  <g transform="matrix(1.0, 0.0, 0.0, 1.0, 8.6, -6.65)">
    <path d="M5.6 9.9 L5.95 10.3 Q7.9 12.45 7.9 15.4 7.9 18.6 5.6 20.85 L5.25 21.2 Q3.1 23.15 0.15 23.15 -2.85 23.15 -5.05 21.1 L-5.35 20.85 Q-7.6 18.6 -7.6 15.4 -7.6 12.55 -5.75 10.4 L-5.35 9.9 Q-3.05 7.65 0.15 7.65 3.35 7.65 5.6 9.9" fill="url(#gradient0)" fill-rule="evenodd" stroke="none"/>
    <path d="M5.6 9.9 L5.95 10.3 Q7.9 12.45 7.9 15.4 7.9 18.6 5.6 20.85 L5.25 21.2 Q3.1 23.15 0.15 23.15 -2.85 23.15 -5.05 21.1 L-5.35 20.85 Q-7.6 18.6 -7.6 15.4 -7.6 12.55 -5.75 10.4 L-5.35 9.9 Q-3.05 7.65 0.15 7.65 3.35 7.65 5.6 9.9 Z" fill="none" stroke="#000000" stroke-linecap="round" stroke-linejoin="round" stroke-width="2.0"/>
  </g>
  <defs>
    <linearGradient gradientTransform="matrix(0.0095, 0.0, 0.0, 0.0095, 0.15, 15.4)" gradientUnits="userSpaceOnUse" id="gradient0" spreadMethod="pad" x1="-819.2" x2="819.2">
      <stop offset="0.0" stop-color="#ffcc99"/>
      <stop offset="0.6901960784313725" stop-color="#ffe6cf"/>
      <stop offset="0.7411764705882353" stop-color="#ffe6cf"/>
      <stop offset="0.792156862745098" stop-color="#ffe6cf"/>
      <stop offset="0.8352941176470589" stop-color="#ffe7d0"/>
      <stop offset="1.0" stop-color="#ffffff"/>
    </linearGradient>
  </defs>
</svg>
