<?xml version="1.0" encoding="UTF-8" standalone="no"?>
<svg xmlns:xlink="http://www.w3.org/1999/xlink" height="13.5px" width="34.0px" xmlns="http://www.w3.org/2000/svg">
  <g transform="matrix(1.0, 0.0, 0.0, 1.0, 16.5, 2.9)">
    <path d="M11.8 -0.25 Q16.5 1.45 16.5 3.85 16.5 6.25 11.8 7.9 7.15 9.6 0.5 9.6 -6.15 9.6 -10.85 7.9 -15.5 6.25 -15.5 3.85 -15.5 1.45 -10.85 -0.25 -6.15 -1.9 0.5 -1.9 7.15 -1.9 11.8 -0.25" fill="url(#gradient0)" fill-rule="evenodd" stroke="none"/>
    <path d="M11.8 -0.25 Q16.5 1.45 16.5 3.85 16.5 6.25 11.8 7.9 7.15 9.6 0.5 9.6 -6.15 9.6 -10.85 7.9 -15.5 6.25 -15.5 3.85 -15.5 1.45 -10.85 -0.25 -6.15 -1.9 0.5 -1.9 7.15 -1.9 11.8 -0.25 Z" fill="none" stroke="#000000" stroke-linecap="round" stroke-linejoin="round" stroke-width="2.0"/>
  </g>
  <defs>
    <radialGradient cx="0" cy="0" gradientTransform="matrix(0.0257, 0.0, 0.0, 0.0196, -6.0, 3.35)" gradientUnits="userSpaceOnUse" id="gradient0" r="819.2" spreadMethod="pad">
      <stop offset="0.3843137254901961" stop-color="#0066ff"/>
      <stop offset="1.0" stop-color="#ffffff"/>
    </radialGradient>
  </defs>
</svg>
