<?xml version="1.0" encoding="UTF-8" standalone="no"?>
<svg xmlns:xlink="http://www.w3.org/1999/xlink" height="23.5px" width="26.1px" xmlns="http://www.w3.org/2000/svg">
  <g transform="matrix(1.0, 0.0, 0.0, 1.0, 12.9, 22.3)">
    <path d="M-3.75 -0.05 L-3.15 0.35 -2.8 0.55 -1.2 0.95 Q-0.45 0.95 0.05 0.6 0.65 1.1 1.5 1.1 L3.15 0.7 3.75 0.35 3.95 0.2 Q5.1 -0.6 6.4 -2.15 9.1 -5.4 10.8 -10.05 12.5 -14.65 12.15 -17.9 11.75 -21.15 9.65 -21.15 7.45 -21.15 4.75 -17.9 2.0 -14.65 0.3 -10.05 L0.2 -9.7 0.0 -10.2 Q-1.7 -14.8 -4.4 -18.05 -7.15 -21.3 -9.3 -21.3 -11.45 -21.3 -11.8 -18.05 -12.2 -14.8 -10.5 -10.2 -8.8 -5.55 -6.05 -2.3 -4.85 -0.85 -3.75 -0.05" fill="url(#gradient0)" fill-rule="evenodd" stroke="none"/>
    <path d="M3.95 0.2 Q5.1 -0.6 6.4 -2.15 9.1 -5.4 10.8 -10.05 12.5 -14.65 12.15 -17.9 11.75 -21.15 9.65 -21.15 7.45 -21.15 4.75 -17.9 2.0 -14.65 0.3 -10.05 L0.2 -9.7 0.0 -10.2 Q-1.7 -14.8 -4.4 -18.05 -7.15 -21.3 -9.3 -21.3 -11.45 -21.3 -11.8 -18.05 -12.2 -14.8 -10.5 -10.2 -8.8 -5.55 -6.05 -2.3 -4.85 -0.85 -3.75 -0.05" fill="none" stroke="#000000" stroke-linecap="round" stroke-linejoin="round" stroke-width="2.0"/>
  </g>
  <defs>
    <radialGradient cx="0" cy="0" gradientTransform="matrix(0.0363, 0.0, 0.0, -0.0271, -6.8, -5.7)" gradientUnits="userSpaceOnUse" id="gradient0" r="819.2" spreadMethod="pad">
      <stop offset="0.0" stop-color="#0066ff"/>
      <stop offset="1.0" stop-color="#ffffff"/>
    </radialGradient>
  </defs>
</svg>
