<?xml version="1.0" encoding="UTF-8" standalone="no"?>
<svg xmlns:xlink="http://www.w3.org/1999/xlink" height="17.5px" width="17.5px" xmlns="http://www.w3.org/2000/svg">
  <g transform="matrix(1.0, 0.0, 0.0, 1.0, 8.4, -6.3)">
    <path d="M5.8 9.55 L6.15 9.95 Q8.1 12.1 8.1 15.05 8.1 18.25 5.8 20.5 L5.45 20.85 Q3.3 22.8 0.35 22.8 -2.65 22.8 -4.85 20.75 L-5.15 20.5 Q-7.4 18.25 -7.4 15.05 -7.4 12.2 -5.55 10.05 L-5.15 9.55 Q-2.85 7.3 0.35 7.3 3.55 7.3 5.8 9.55" fill="url(#gradient0)" fill-rule="evenodd" stroke="none"/>
    <path d="M5.8 9.55 L6.15 9.95 Q8.1 12.1 8.1 15.05 8.1 18.25 5.8 20.5 L5.45 20.85 Q3.3 22.8 0.35 22.8 -2.65 22.8 -4.85 20.75 L-5.15 20.5 Q-7.4 18.25 -7.4 15.05 -7.4 12.2 -5.55 10.05 L-5.15 9.55 Q-2.85 7.3 0.35 7.3 3.55 7.3 5.8 9.55 Z" fill="none" stroke="#000000" stroke-linecap="round" stroke-linejoin="round" stroke-width="2.0"/>
  </g>
  <defs>
    <linearGradient gradientTransform="matrix(0.0095, 0.0, 0.0, 0.0095, 0.35, 15.05)" gradientUnits="userSpaceOnUse" id="gradient0" spreadMethod="pad" x1="-819.2" x2="819.2">
      <stop offset="0.0" stop-color="#ffcc99"/>
      <stop offset="0.6901960784313725" stop-color="#ffe6cf"/>
      <stop offset="0.7411764705882353" stop-color="#ffe6cf"/>
      <stop offset="0.792156862745098" stop-color="#ffe6cf"/>
      <stop offset="0.8352941176470589" stop-color="#ffe7d0"/>
      <stop offset="1.0" stop-color="#ffffff"/>
    </linearGradient>
  </defs>
</svg>
