<?xml version="1.0" encoding="UTF-8" standalone="no"?>
<svg xmlns:xlink="http://www.w3.org/1999/xlink" height="17.5px" width="34.0px" xmlns="http://www.w3.org/2000/svg">
  <g transform="matrix(1.0, 0.0, 0.0, 1.0, 16.5, 8.7)">
    <path d="M-3.75 4.0 L-3.15 4.2 -2.8 4.3 -1.2 4.5 0.05 4.35 1.5 4.6 3.15 4.4 3.75 4.2 3.95 4.15 6.4 2.95 Q9.1 1.35 10.8 -1.0 12.5 -3.3 12.15 -4.9 11.75 -6.55 9.65 -6.55 7.45 -6.55 4.75 -4.9 2.0 -3.3 0.3 -1.0 L0.2 -0.8 0.0 -1.05 Q-1.7 -3.35 -4.4 -5.0 -7.15 -6.6 -9.3 -6.6 -11.45 -6.6 -11.8 -5.0 -12.2 -3.35 -10.5 -1.05 -8.8 1.25 -6.05 2.9 L-3.75 4.0" fill="url(#gradient0)" fill-rule="evenodd" stroke="none"/>
    <path d="M3.95 4.15 L6.4 2.95 Q9.1 1.35 10.8 -1.0 12.5 -3.3 12.15 -4.9 11.75 -6.55 9.65 -6.55 7.45 -6.55 4.75 -4.9 2.0 -3.3 0.3 -1.0 L0.2 -0.8 0.0 -1.05 Q-1.7 -3.35 -4.4 -5.0 -7.15 -6.6 -9.3 -6.6 -11.45 -6.6 -11.8 -5.0 -12.2 -3.35 -10.5 -1.05 -8.8 1.25 -6.05 2.9 L-3.75 4.0" fill="none" stroke="#000000" stroke-linecap="round" stroke-linejoin="round" stroke-width="2.0"/>
    <path d="M11.8 -3.85 Q16.5 -2.15 16.5 0.25 16.5 2.65 11.8 4.3 7.15 6.0 0.5 6.0 -6.15 6.0 -10.85 4.3 -15.5 2.65 -15.5 0.25 -15.5 -2.15 -10.85 -3.85 -6.15 -5.5 0.5 -5.5 7.15 -5.5 11.8 -3.85" fill="url(#gradient1)" fill-rule="evenodd" stroke="none"/>
    <path d="M11.8 -3.85 Q16.5 -2.15 16.5 0.25 16.5 2.65 11.8 4.3 7.15 6.0 0.5 6.0 -6.15 6.0 -10.85 4.3 -15.5 2.65 -15.5 0.25 -15.5 -2.15 -10.85 -3.85 -6.15 -5.5 0.5 -5.5 7.15 -5.5 11.8 -3.85 Z" fill="none" stroke="#000000" stroke-linecap="round" stroke-linejoin="round" stroke-width="2.0"/>
    <path d="M6.4 -5.45 L6.75 -5.05 Q8.7 -2.9 8.7 0.05 8.7 3.25 6.4 5.5 L6.05 5.85 Q3.9 7.8 0.95 7.8 -2.05 7.8 -4.25 5.75 L-4.55 5.5 Q-6.8 3.25 -6.8 0.05 -6.8 -2.8 -4.95 -4.95 L-4.55 -5.45 Q-2.25 -7.7 0.95 -7.7 4.15 -7.7 6.4 -5.45" fill="url(#gradient2)" fill-rule="evenodd" stroke="none"/>
    <path d="M6.4 -5.45 L6.75 -5.05 Q8.7 -2.9 8.7 0.05 8.7 3.25 6.4 5.5 L6.05 5.85 Q3.9 7.8 0.95 7.8 -2.05 7.8 -4.25 5.75 L-4.55 5.5 Q-6.8 3.25 -6.8 0.05 -6.8 -2.8 -4.95 -4.95 L-4.55 -5.45 Q-2.25 -7.7 0.95 -7.7 4.15 -7.7 6.4 -5.45 Z" fill="none" stroke="#000000" stroke-linecap="round" stroke-linejoin="round" stroke-width="2.0"/>
  </g>
  <defs>
    <radialGradient cx="0" cy="0" gradientTransform="matrix(0.0363, 0.0, 0.0, -0.0136, -6.8, 1.2)" gradientUnits="userSpaceOnUse" id="gradient0" r="819.2" spreadMethod="pad">
      <stop offset="0.0" stop-color="#0066ff"/>
      <stop offset="1.0" stop-color="#ffffff"/>
    </radialGradient>
    <radialGradient cx="0" cy="0" gradientTransform="matrix(0.0257, 0.0, 0.0, 0.0196, -6.0, -0.25)" gradientUnits="userSpaceOnUse" id="gradient1" r="819.2" spreadMethod="pad">
      <stop offset="0.3843137254901961" stop-color="#0066ff"/>
      <stop offset="1.0" stop-color="#ffffff"/>
    </radialGradient>
    <linearGradient gradientTransform="matrix(0.0095, 0.0, 0.0, 0.0095, 0.95, 0.05)" gradientUnits="userSpaceOnUse" id="gradient2" spreadMethod="pad" x1="-819.2" x2="819.2">
      <stop offset="0.0" stop-color="#ffcc99"/>
      <stop offset="0.6901960784313725" stop-color="#ffe6cf"/>
      <stop offset="0.7411764705882353" stop-color="#ffe6cf"/>
      <stop offset="0.792156862745098" stop-color="#ffe6cf"/>
      <stop offset="0.8352941176470589" stop-color="#ffe7d0"/>
      <stop offset="1.0" stop-color="#ffffff"/>
    </linearGradient>
  </defs>
</svg>
