<?xml version="1.0" encoding="UTF-8" standalone="no"?>
<svg xmlns:xlink="http://www.w3.org/1999/xlink" height="46.0px" width="46.5px" xmlns="http://www.w3.org/2000/svg">
  <g transform="matrix(1.0, 0.0, 0.0, 1.0, 23.25, 23.0)">
    <path d="M0.0 -22.5 Q9.4 -22.5 16.05 -15.9 22.75 -9.3 22.75 0.0 22.75 9.3 16.05 15.9 9.4 22.5 0.0 22.5 -9.4 22.5 -16.1 15.9 -22.75 9.3 -22.75 0.0 -22.75 -9.3 -16.1 -15.9 -9.4 -22.5 0.0 -22.5 Z" fill="none" stroke="#000000" stroke-linecap="round" stroke-linejoin="round" stroke-width="1.0"/>
    <path d="M2.45 -12.75 L2.4 -12.75 Q1.0 -12.4 -0.1 -11.45 L-0.9 -10.6 -1.1 -10.45 Q-2.3 -9.4 -2.85 -7.9 L-2.65 -9.85 Q-2.6 -11.0 -3.4 -11.4 L-3.45 -11.4 Q-3.6 -12.1 -4.15 -12.4 L-5.35 -12.65 -5.85 -12.65 Q-3.1 -16.85 1.25 -20.5 1.4 -16.35 2.45 -12.75 M9.6 -7.35 L9.05 -1.8 9.0 -1.5 8.9 -1.0 8.2 0.8 6.9 2.3 6.2 2.85 Q4.6 3.9 2.55 3.9 L2.2 3.9 Q0.2 3.8 -1.25 2.45 L-1.8 1.8 -2.65 -0.15 -2.75 -1.25 -2.6 -3.0 -2.2 -6.6 Q-2.0 -8.5 -0.9 -9.85 L-0.1 -10.7 Q1.0 -11.65 2.4 -12.0 L2.45 -12.0 3.65 -12.2 4.25 -12.25 Q6.5 -12.25 8.05 -10.95 9.65 -9.6 9.6 -7.35 M4.25 -8.35 L3.9 -8.4 3.05 -8.15 2.85 -8.0 2.25 -7.05 Q1.85 -6.05 1.75 -4.2 L1.6 -1.7 Q1.6 -0.6 2.2 -0.2 L2.4 -0.1 3.0 0.0 3.5 -0.05 3.6 -0.05 Q4.65 -0.4 4.8 -2.05 L5.2 -6.1 5.25 -6.8 Q5.3 -7.7 4.9 -8.1 L4.25 -8.35 M3.05 -6.9 L3.9 -7.15 4.25 -7.1 4.25 -6.55 4.2 -5.85 3.8 -1.8 3.6 -0.8 3.5 -0.8 3.0 -0.75 2.4 -0.85 2.35 -1.45 2.5 -3.95 Q2.6 -5.8 3.0 -6.8 L3.05 -6.9 M14.7 3.55 L19.55 -0.4 20.8 1.15 15.95 5.1 14.7 3.55 M11.75 1.0 L11.75 1.5 -8.25 17.75 Q-10.5 11.1 -10.7 5.15 L-10.1 5.15 Q-8.05 5.15 -6.45 4.1 L-5.65 3.45 -4.65 2.2 Q-3.95 1.45 -3.55 0.55 -3.2 1.75 -2.25 2.7 L-1.8 3.05 -1.25 3.7 Q0.2 5.05 2.2 5.15 L2.55 5.15 Q4.6 5.15 6.2 4.1 L6.9 3.55 8.2 2.05 Q9.3 0.85 9.65 -0.75 L11.75 1.0 M12.7 2.25 L16.65 7.1 Q4.1 18.5 -2.4 20.0 -4.4 20.45 -5.85 20.0 L-7.65 18.8 12.7 2.25 M-11.85 -11.9 L-5.35 -11.9 -4.15 -11.65 Q-3.6 -11.35 -3.45 -10.65 L-3.4 -10.1 -3.6 -8.15 -3.65 -8.0 -3.7 -7.8 Q-4.05 -7.05 -4.65 -6.7 L-4.85 -6.6 -5.55 -6.4 -5.9 -6.4 Q-6.75 -6.4 -7.25 -6.9 L-7.6 -7.7 -7.6 -8.2 -10.0 -8.2 -10.15 -6.55 -9.8 -6.55 -9.5 -6.55 -8.4 -6.5 -8.15 -6.5 -8.05 -6.5 -7.5 -6.4 -7.0 -6.25 Q-5.9 -5.95 -5.1 -5.15 L-4.7 -4.7 -4.3 -4.1 -4.25 -3.95 Q-3.85 -3.15 -3.85 -2.1 -3.85 -0.8 -4.3 0.3 L-4.65 0.95 -5.65 2.2 -6.45 2.85 Q-8.05 3.9 -10.1 3.9 L-10.7 3.9 -11.1 3.85 Q-12.5 3.65 -13.8 2.9 -15.8 1.7 -15.8 -0.1 -15.8 -0.95 -15.15 -1.6 -14.45 -2.25 -13.6 -2.25 -12.85 -2.25 -12.4 -1.7 L-11.4 -0.55 -11.25 -0.4 -10.95 -0.25 -10.9 -0.25 -10.4 -0.05 -10.0 -0.05 -9.5 -0.1 -9.45 -0.1 -8.9 -0.45 Q-8.45 -0.8 -8.45 -1.45 -8.45 -2.0 -8.9 -2.3 L-9.45 -2.5 -9.7 -2.55 -11.25 -2.55 -12.75 -2.55 Q-14.75 -2.65 -14.75 -4.35 L-14.15 -9.9 Q-13.9 -11.9 -11.85 -11.9 M-3.7 -6.55 L-2.9 -7.75 -3.2 -6.35 -3.5 -3.7 -4.3 -4.85 -4.7 -5.45 -4.65 -5.45 Q-4.05 -5.8 -3.7 -6.55 M-10.4 -0.8 L-10.3 -1.3 -9.7 -1.3 -9.45 -1.25 -9.45 -1.2 -9.45 -0.85 -9.5 -0.85 -10.0 -0.8 -10.4 -0.8" fill="#000000" fill-rule="evenodd" stroke="none"/>
  </g>
</svg>
