<?xml version="1.0" encoding="UTF-8" standalone="no"?>
<svg xmlns:xlink="http://www.w3.org/1999/xlink" height="9.55px" width="33.2px" xmlns="http://www.w3.org/2000/svg">
  <g transform="matrix(1.0, 0.0, 0.0, 1.0, 15.9, 4.55)">
    <path d="M-14.9 -1.3 L-9.65 -0.95 -4.35 -0.8 Q-3.5 -0.6 -3.5 0.2 -3.5 0.9 -4.5 1.05 L-9.65 1.35 -15.05 1.55 Q-15.8 1.45 -15.6 0.9 L-15.3 0.1 -15.55 -0.65 Q-15.65 -1.15 -14.9 -1.3" fill="url(#gradient0)" fill-rule="evenodd" stroke="none"/>
    <path d="M-14.9 -1.3 L-9.65 -0.95 -4.35 -0.8 Q-3.5 -0.6 -3.5 0.2 -3.5 0.9 -4.5 1.05 L-9.65 1.35 -15.05 1.55 Q-15.8 1.45 -15.6 0.9 L-15.3 0.1 -15.55 -0.65 Q-15.65 -1.15 -14.9 -1.3 Z" fill="none" stroke="#000000" stroke-linecap="round" stroke-linejoin="round" stroke-width="0.5"/>
    <path d="M5.75 -0.95 L11.05 -1.1 16.3 -1.45 Q17.05 -1.3 16.95 -0.8 L16.7 -0.05 17.0 0.75 Q17.2 1.3 16.45 1.4 L11.05 1.2 5.9 0.9 Q4.9 0.75 4.9 0.05 4.9 -0.75 5.75 -0.95" fill="url(#gradient1)" fill-rule="evenodd" stroke="none"/>
    <path d="M5.75 -0.95 Q4.9 -0.75 4.9 0.05 4.9 0.75 5.9 0.9 L11.05 1.2 16.45 1.4 Q17.2 1.3 17.0 0.75 L16.7 -0.05 16.95 -0.8 Q17.05 -1.3 16.3 -1.45 L11.05 -1.1 5.75 -0.95 Z" fill="none" stroke="#000000" stroke-linecap="round" stroke-linejoin="round" stroke-width="0.5"/>
    <path d="M1.65 -3.0 L1.4 -3.95 1.3 -4.1 Q4.0 -4.05 5.95 -2.85 8.05 -1.55 8.05 0.25 8.05 2.05 5.95 3.3 3.95 4.55 1.15 4.6 L1.4 4.35 1.7 3.55 1.7 3.45 1.4 2.5 3.25 1.85 Q4.3 1.25 4.3 0.35 4.3 -0.55 3.25 -1.2 2.35 -1.75 1.2 -1.8 L1.4 -2.1 1.65 -2.95 1.65 -3.0 M0.35 -4.05 L0.2 -3.95 -0.05 -3.0 -0.05 -2.95 Q-0.05 -2.45 0.2 -2.1 L0.45 -1.85 Q-0.85 -1.8 -1.8 -1.2 -2.8 -0.55 -2.8 0.35 -2.8 1.25 -1.8 1.85 -1.05 2.3 -0.05 2.45 L-0.1 2.5 -0.4 3.45 -0.4 3.5 -0.1 4.35 0.15 4.6 Q-2.3 4.4 -4.1 3.3 -6.15 2.05 -6.15 0.25 -6.15 -1.55 -4.1 -2.85 -2.25 -3.95 0.35 -4.05 M1.65 -2.95 Q3.5 -2.85 4.85 -2.05 6.55 -1.05 6.55 0.3 6.55 1.65 4.85 2.6 3.5 3.4 1.7 3.55 3.5 3.4 4.85 2.6 6.55 1.65 6.55 0.3 6.55 -1.05 4.85 -2.05 3.5 -2.85 1.65 -2.95 M-0.4 3.5 Q-1.95 3.3 -3.15 2.6 -4.8 1.65 -4.8 0.3 -4.8 -1.05 -3.15 -2.05 -1.85 -2.8 -0.05 -2.95 -1.85 -2.8 -3.15 -2.05 -4.8 -1.05 -4.8 0.3 -4.8 1.65 -3.15 2.6 -1.95 3.3 -0.4 3.5" fill="url(#gradient2)" fill-rule="evenodd" stroke="none"/>
    <path d="M1.3 -4.1 L1.4 -3.95 1.65 -3.0 1.65 -2.95 1.4 -2.1 1.2 -1.8 0.8 -1.7 Q0.6 -1.7 0.45 -1.85 L0.2 -2.1 Q-0.05 -2.45 -0.05 -2.95 L-0.05 -3.0 0.2 -3.95 0.35 -4.05 0.8 -4.3 1.3 -4.1" fill="url(#gradient3)" fill-rule="evenodd" stroke="none"/>
    <path d="M1.4 2.5 L1.7 3.45 1.7 3.55 1.4 4.35 1.15 4.6 0.65 4.75 0.15 4.6 -0.1 4.35 -0.4 3.5 -0.4 3.45 -0.1 2.5 -0.05 2.45 Q0.25 2.15 0.65 2.15 1.1 2.15 1.4 2.5" fill="url(#gradient4)" fill-rule="evenodd" stroke="none"/>
    <path d="M1.3 -4.1 L0.8 -4.3 0.35 -4.05 Q-2.25 -3.95 -4.1 -2.85 -6.15 -1.55 -6.15 0.25 -6.15 2.05 -4.1 3.3 -2.3 4.4 0.15 4.6 L0.65 4.75 1.15 4.6 1.4 4.35 1.7 3.55 Q3.5 3.4 4.85 2.6 6.55 1.65 6.55 0.3 6.55 -1.05 4.85 -2.05 3.5 -2.85 1.65 -2.95 L1.65 -3.0 M-0.05 -3.0 L-0.05 -2.95 Q-1.85 -2.8 -3.15 -2.05 -4.8 -1.05 -4.8 0.3 -4.8 1.65 -3.15 2.6 -1.95 3.3 -0.4 3.5 L-0.1 4.35 0.15 4.6 M0.45 -1.85 Q0.6 -1.7 0.8 -1.7 L1.2 -1.8 Q2.35 -1.75 3.25 -1.2 4.3 -0.55 4.3 0.35 4.3 1.25 3.25 1.85 L1.4 2.5 1.7 3.45 1.7 3.55 M1.3 -4.1 Q4.0 -4.05 5.95 -2.85 8.05 -1.55 8.05 0.25 8.05 2.05 5.95 3.3 3.95 4.55 1.15 4.6 M1.4 2.5 Q1.1 2.15 0.65 2.15 0.25 2.15 -0.05 2.45 L-0.1 2.5 -0.4 3.45 -0.4 3.5 M-0.05 2.45 Q-1.05 2.3 -1.8 1.85 -2.8 1.25 -2.8 0.35 -2.8 -0.55 -1.8 -1.2 -0.85 -1.8 0.45 -1.85" fill="none" stroke="#000000" stroke-linecap="round" stroke-linejoin="round" stroke-width="0.5"/>
  </g>
  <defs>
    <radialGradient cx="0" cy="0" gradientTransform="matrix(0.0078, 0.0, 0.0, 0.0078, -9.65, 0.2)" gradientUnits="userSpaceOnUse" id="gradient0" r="819.2" spreadMethod="pad">
      <stop offset="0.0" stop-color="#e9cf1b"/>
      <stop offset="1.0" stop-color="#ffffff"/>
    </radialGradient>
    <radialGradient cx="0" cy="0" gradientTransform="matrix(-0.0078, 0.0, 0.0, 0.0078, 11.05, 0.05)" gradientUnits="userSpaceOnUse" id="gradient1" r="819.2" spreadMethod="pad">
      <stop offset="0.0" stop-color="#e9cf1b"/>
      <stop offset="1.0" stop-color="#ffffff"/>
    </radialGradient>
    <radialGradient cx="0" cy="0" gradientTransform="matrix(0.0093, 0.0, 0.0, 0.0093, 0.95, 0.25)" gradientUnits="userSpaceOnUse" id="gradient2" r="819.2" spreadMethod="pad">
      <stop offset="0.0" stop-color="#e9cf1b"/>
      <stop offset="1.0" stop-color="#ffffff"/>
    </radialGradient>
    <radialGradient cx="0" cy="0" gradientTransform="matrix(0.0021, 0.0, 0.0, 0.0021, 0.8, -3.0)" gradientUnits="userSpaceOnUse" id="gradient3" r="819.2" spreadMethod="pad">
      <stop offset="0.0" stop-color="#e9cf1b"/>
      <stop offset="1.0" stop-color="#ffffff"/>
    </radialGradient>
    <radialGradient cx="0" cy="0" gradientTransform="matrix(0.0021, 0.0, 0.0, 0.0021, 0.65, 3.45)" gradientUnits="userSpaceOnUse" id="gradient4" r="819.2" spreadMethod="pad">
      <stop offset="0.0" stop-color="#e9cf1b"/>
      <stop offset="1.0" stop-color="#ffffff"/>
    </radialGradient>
  </defs>
</svg>
