<?xml version="1.0" encoding="UTF-8" standalone="no"?>
<svg xmlns:xlink="http://www.w3.org/1999/xlink" height="5.95px" width="12.65px" xmlns="http://www.w3.org/2000/svg">
  <g transform="matrix(1.0, 0.0, 0.0, 1.0, 6.3, 2.9)">
    <path d="M-5.4 -2.15 L-2.95 -0.45 -0.4 1.05 Q0.05 1.45 -0.1 2.25 -0.15 2.9 -0.7 2.75 -1.4 2.7 -3.2 1.75 -4.0 1.3 -5.85 0.55 -6.2 0.25 -6.0 -0.25 L-5.75 -0.9 -5.8 -1.75 Q-5.8 -2.2 -5.4 -2.15" fill="url(#gradient0)" fill-rule="evenodd" stroke="none"/>
    <path d="M-5.4 -2.15 L-2.95 -0.45 -0.4 1.05 Q0.05 1.45 -0.1 2.25 -0.15 2.9 -0.7 2.75 -1.4 2.7 -3.2 1.75 -4.0 1.3 -5.85 0.55 -6.2 0.25 -6.0 -0.25 L-5.75 -0.9 -5.8 -1.75 Q-5.8 -2.2 -5.4 -2.15 Z" fill="none" stroke="#000000" stroke-linecap="round" stroke-linejoin="round" stroke-width="0.5"/>
    <path d="M0.65 -2.65 L3.25 -1.45 Q4.05 -1.0 5.8 -0.45 6.2 -0.1 6.1 0.35 L5.85 1.05 5.9 1.85 Q5.9 2.45 5.55 2.35 L3.0 0.75 Q1.2 -0.2 0.5 -0.85 0.05 -1.3 0.1 -1.95 0.25 -2.75 0.65 -2.65" fill="url(#gradient1)" fill-rule="evenodd" stroke="none"/>
    <path d="M0.65 -2.65 Q0.25 -2.75 0.1 -1.95 0.05 -1.3 0.5 -0.85 1.2 -0.2 3.0 0.75 L5.55 2.35 Q5.9 2.45 5.9 1.85 L5.85 1.05 6.1 0.35 Q6.2 -0.1 5.8 -0.45 4.05 -1.0 3.25 -1.45 L0.65 -2.65 Z" fill="none" stroke="#000000" stroke-linecap="round" stroke-linejoin="round" stroke-width="0.5"/>
  </g>
  <defs>
    <radialGradient cx="0" cy="0" gradientTransform="matrix(0.0038, 0.002, -0.001, 0.0076, -3.1, 0.65)" gradientUnits="userSpaceOnUse" id="gradient0" r="819.2" spreadMethod="pad">
      <stop offset="0.0" stop-color="#e9cf1b"/>
      <stop offset="1.0" stop-color="#ffffff"/>
    </radialGradient>
    <radialGradient cx="0" cy="0" gradientTransform="matrix(-0.0038, -0.002, -0.001, 0.0076, 3.1, -0.35)" gradientUnits="userSpaceOnUse" id="gradient1" r="819.2" spreadMethod="pad">
      <stop offset="0.0" stop-color="#e9cf1b"/>
      <stop offset="1.0" stop-color="#ffffff"/>
    </radialGradient>
  </defs>
</svg>
