<?xml version="1.0" encoding="UTF-8" standalone="no"?>
<svg xmlns:xlink="http://www.w3.org/1999/xlink" height="46.0px" width="46.5px" xmlns="http://www.w3.org/2000/svg">
  <g transform="matrix(1.0, 0.0, 0.0, 1.0, 23.25, 23.0)">
    <path d="M0.0 -22.5 Q9.4 -22.5 16.05 -15.9 22.75 -9.3 22.75 0.0 22.75 9.3 16.05 15.9 9.4 22.5 0.0 22.5 -9.4 22.5 -16.1 15.9 -22.75 9.3 -22.75 0.0 -22.75 -9.3 -16.1 -15.9 -9.4 -22.5 0.0 -22.5 Z" fill="none" stroke="#000000" stroke-linecap="round" stroke-linejoin="round" stroke-width="1.0"/>
    <path d="M2.25 -13.4 L1.6 -13.4 1.55 -13.4 Q0.05 -13.35 -0.45 -12.3 -1.2 -12.1 -1.6 -11.5 L-2.25 -12.0 -2.6 -12.5 Q-3.4 -13.4 -5.25 -13.4 L-5.35 -13.4 Q-2.7 -17.2 1.25 -20.5 1.4 -16.7 2.25 -13.4 M9.55 -10.35 L9.35 -8.4 Q8.8 -6.65 7.05 -6.65 6.2 -6.65 5.7 -7.15 5.25 -7.6 5.35 -8.45 L2.95 -8.45 2.8 -6.8 3.1 -6.8 3.25 -6.8 4.05 -6.8 4.15 -6.8 4.25 -6.8 4.8 -6.75 Q6.7 -6.55 7.85 -5.4 9.1 -4.2 9.1 -2.35 L8.9 -0.75 8.7 -0.05 Q8.25 1.05 7.3 1.95 L6.95 2.25 Q5.45 3.45 3.5 3.65 L2.85 3.65 2.35 3.65 Q0.7 3.5 -0.85 2.65 -2.4 1.75 -2.75 0.45 L-2.85 -0.35 -2.55 -1.4 -2.35 -1.65 -2.2 -1.85 Q-1.7 -2.3 -1.15 -2.4 L-0.65 -2.5 -0.05 -2.4 0.55 -1.95 1.55 -0.8 1.75 -0.65 1.9 -0.55 2.95 -0.3 3.2 -0.3 3.55 -0.4 4.05 -0.7 Q4.5 -1.05 4.5 -1.7 4.5 -2.3 4.0 -2.55 L3.25 -2.8 2.95 -2.8 2.45 -2.8 1.7 -2.8 1.45 -2.8 1.0 -2.8 0.7 -2.8 0.2 -2.8 Q-1.0 -2.85 -1.45 -3.45 L-1.75 -4.25 -1.8 -4.6 -1.35 -8.65 -1.25 -9.6 -1.2 -10.15 -0.95 -11.05 Q-0.45 -12.1 1.05 -12.15 L1.1 -12.15 7.6 -12.15 Q9.6 -12.15 9.55 -10.35 M2.4 -1.8 L2.2 -2.05 2.7 -2.05 3.0 -2.05 3.75 -1.8 3.7 -1.55 3.45 -1.55 2.4 -1.8 M14.7 3.55 L19.55 -0.4 20.8 1.15 15.95 5.1 14.7 3.55 M11.75 1.0 L11.75 1.5 -8.25 17.75 Q-10.7 10.45 -10.7 3.95 L-10.25 3.5 -9.7 3.4 Q-8.9 3.1 -8.2 2.1 L-2.35 -6.5 -2.55 -4.85 Q-2.55 -4.0 -2.0 -3.5 L-1.85 -2.9 -2.05 -2.65 -2.95 -2.1 Q-3.6 -1.45 -3.6 -0.6 -3.6 0.4 -3.0 1.2 -2.65 2.5 -1.1 3.4 0.45 4.25 2.1 4.4 L2.6 4.4 3.25 4.4 Q5.2 4.2 6.7 3.0 7.85 2.55 8.8 1.7 9.75 0.8 10.2 -0.3 L11.75 1.0 M12.7 2.25 L16.65 7.1 Q4.1 18.5 -2.4 20.0 -4.4 20.45 -5.85 20.0 L-7.65 18.8 12.7 2.25 M-12.55 -12.15 L-5.75 -12.15 Q-3.9 -12.15 -3.1 -11.25 L-2.75 -10.75 -2.5 -9.4 Q-2.5 -8.3 -3.55 -6.7 L-9.7 2.35 -10.0 2.75 -10.45 3.2 -11.2 3.65 -11.9 3.75 -12.2 3.75 Q-12.9 3.65 -13.4 3.2 -14.0 2.65 -14.0 1.8 -14.0 1.15 -13.5 0.4 L-9.95 -4.75 -8.05 -7.6 -7.95 -7.75 Q-7.95 -8.15 -8.4 -8.15 L-10.95 -8.15 Q-11.1 -7.2 -11.7 -6.65 -12.3 -6.05 -13.2 -6.05 -14.0 -6.05 -14.5 -6.55 -15.05 -7.05 -15.05 -7.9 L-14.8 -10.15 Q-14.55 -12.15 -12.55 -12.15" fill="#000000" fill-rule="evenodd" stroke="none"/>
  </g>
</svg>
