<?xml version="1.0" encoding="UTF-8" standalone="no"?>
<svg xmlns:xlink="http://www.w3.org/1999/xlink" height="7.75px" width="11.85px" xmlns="http://www.w3.org/2000/svg">
  <g transform="matrix(1.0, 0.0, 0.0, 1.0, 4.95, 3.6)">
    <path d="M1.5 -2.3 L1.3 -3.05 1.25 -3.2 Q3.4 -3.15 4.95 -2.2 6.65 -1.15 6.65 0.3 6.65 1.75 4.95 2.75 3.35 3.75 1.1 3.8 L1.3 3.6 1.55 2.95 Q3.0 2.8 4.1 2.2 5.45 1.4 5.45 0.35 5.45 -0.75 4.1 -1.55 3.0 -2.2 1.5 -2.25 3.0 -2.2 4.1 -1.55 5.45 -0.75 5.45 0.35 5.45 1.4 4.1 2.2 3.0 2.8 1.55 2.95 L1.55 2.85 1.3 2.1 2.8 1.6 Q3.65 1.1 3.65 0.4 3.65 -0.35 2.8 -0.85 2.1 -1.3 1.15 -1.35 L1.3 -1.6 1.5 -2.25 1.5 -2.3 M0.5 -3.15 L0.35 -3.05 0.15 -2.3 0.15 -2.25 0.35 -1.6 0.55 -1.4 -1.25 -0.85 Q-2.05 -0.35 -2.05 0.4 -2.05 1.1 -1.25 1.6 L0.15 2.05 0.1 2.1 -0.1 2.85 -0.1 2.9 0.1 3.6 0.3 3.8 Q-1.65 3.6 -3.1 2.75 -4.7 1.75 -4.7 0.3 -4.7 -1.15 -3.1 -2.2 -1.6 -3.05 0.5 -3.15 M-0.1 2.9 L-2.3 2.2 Q-3.65 1.4 -3.65 0.35 -3.65 -0.75 -2.3 -1.55 -1.3 -2.15 0.15 -2.25 -1.3 -2.15 -2.3 -1.55 -3.65 -0.75 -3.65 0.35 -3.65 1.4 -2.3 2.2 L-0.1 2.9" fill="url(#gradient0)" fill-rule="evenodd" stroke="none"/>
    <path d="M1.25 -3.2 L1.3 -3.05 1.5 -2.3 1.5 -2.25 1.3 -1.6 1.15 -1.35 0.85 -1.25 Q0.7 -1.25 0.55 -1.4 L0.35 -1.6 0.15 -2.25 0.15 -2.3 0.35 -3.05 0.5 -3.15 Q0.65 -3.35 0.85 -3.35 L1.25 -3.2" fill="url(#gradient1)" fill-rule="evenodd" stroke="none"/>
    <path d="M1.55 2.95 L1.3 3.6 1.1 3.8 0.7 3.9 0.3 3.8 0.1 3.6 -0.1 2.9 -0.1 2.85 0.1 2.1 0.15 2.05 Q0.4 1.8 0.7 1.8 1.1 1.8 1.3 2.1 L1.55 2.85 1.55 2.95" fill="url(#gradient2)" fill-rule="evenodd" stroke="none"/>
    <path d="M1.25 -3.2 L0.85 -3.35 Q0.65 -3.35 0.5 -3.15 -1.6 -3.05 -3.1 -2.2 -4.7 -1.15 -4.7 0.3 -4.7 1.75 -3.1 2.75 -1.65 3.6 0.3 3.8 L0.7 3.9 1.1 3.8 Q3.35 3.75 4.95 2.75 6.65 1.75 6.65 0.3 6.65 -1.15 4.95 -2.2 3.4 -3.15 1.25 -3.2 M0.15 -2.3 L0.15 -2.25 Q-1.3 -2.15 -2.3 -1.55 -3.65 -0.75 -3.65 0.35 -3.65 1.4 -2.3 2.2 L-0.1 2.9 0.1 3.6 0.3 3.8 M0.55 -1.4 Q0.7 -1.25 0.85 -1.25 L1.15 -1.35 Q2.1 -1.3 2.8 -0.85 3.65 -0.35 3.65 0.4 3.65 1.1 2.8 1.6 L1.3 2.1 1.55 2.85 1.55 2.95 1.3 3.6 1.1 3.8 M1.5 -2.25 L1.5 -2.3 M1.5 -2.25 Q3.0 -2.2 4.1 -1.55 5.45 -0.75 5.45 0.35 5.45 1.4 4.1 2.2 3.0 2.8 1.55 2.95 M1.3 2.1 Q1.1 1.8 0.7 1.8 0.4 1.8 0.15 2.05 L0.1 2.1 -0.1 2.85 -0.1 2.9 M0.15 2.05 L-1.25 1.6 Q-2.05 1.1 -2.05 0.4 -2.05 -0.35 -1.25 -0.85 L0.55 -1.4" fill="none" stroke="#000000" stroke-linecap="round" stroke-linejoin="round" stroke-width="0.5"/>
  </g>
  <defs>
    <radialGradient cx="0" cy="0" gradientTransform="matrix(0.0075, 0.0, 0.0, 0.0075, 0.95, 0.3)" gradientUnits="userSpaceOnUse" id="gradient0" r="819.2" spreadMethod="pad">
      <stop offset="0.0" stop-color="#e9cf1b"/>
      <stop offset="1.0" stop-color="#ffffff"/>
    </radialGradient>
    <radialGradient cx="0" cy="0" gradientTransform="matrix(0.0017, 0.0, 0.0, 0.0017, 0.85, -2.3)" gradientUnits="userSpaceOnUse" id="gradient1" r="819.2" spreadMethod="pad">
      <stop offset="0.0" stop-color="#e9cf1b"/>
      <stop offset="1.0" stop-color="#ffffff"/>
    </radialGradient>
    <radialGradient cx="0" cy="0" gradientTransform="matrix(0.0017, 0.0, 0.0, 0.0017, 0.7, 2.85)" gradientUnits="userSpaceOnUse" id="gradient2" r="819.2" spreadMethod="pad">
      <stop offset="0.0" stop-color="#e9cf1b"/>
      <stop offset="1.0" stop-color="#ffffff"/>
    </radialGradient>
  </defs>
</svg>
