<?xml version="1.0" encoding="UTF-8" standalone="no"?>
<svg xmlns:xlink="http://www.w3.org/1999/xlink" height="7.75px" width="11.85px" xmlns="http://www.w3.org/2000/svg">
  <g transform="matrix(1.0, 0.0, 0.0, 1.0, 4.95, 3.55)">
    <path d="M0.45 -3.1 L0.85 -3.3 1.25 -3.1 1.35 -3.0 1.55 -2.25 1.55 -2.2 1.35 -1.5 1.15 -1.3 0.85 -1.2 0.55 -1.3 0.35 -1.5 0.15 -2.2 0.15 -2.25 0.35 -3.0 0.45 -3.1" fill="url(#gradient0)" fill-rule="evenodd" stroke="none"/>
    <path d="M1.25 -3.1 Q3.4 -3.05 4.95 -2.1 6.65 -1.1 6.65 0.35 6.65 1.8 4.95 2.8 3.35 3.8 1.15 3.85 L1.35 3.65 1.55 3.0 Q3.0 2.85 4.1 2.25 5.45 1.5 5.45 0.4 5.45 -0.7 4.1 -1.5 3.0 -2.1 1.55 -2.2 3.0 -2.1 4.1 -1.5 5.45 -0.7 5.45 0.4 5.45 1.5 4.1 2.25 3.0 2.85 1.55 3.0 L1.55 2.9 1.35 2.15 1.3 2.15 2.8 1.65 Q3.6 1.1 3.65 0.4 3.6 -0.3 2.8 -0.8 2.1 -1.25 1.15 -1.3 L1.35 -1.5 1.55 -2.2 1.55 -2.25 1.35 -3.0 1.25 -3.1 M0.3 3.8 Q-1.65 3.7 -3.05 2.8 -4.7 1.8 -4.7 0.35 -4.7 -1.1 -3.05 -2.1 -1.6 -3.0 0.45 -3.1 L0.35 -3.0 0.15 -2.25 0.15 -2.2 0.35 -1.5 0.55 -1.3 Q-0.5 -1.25 -1.25 -0.8 -2.05 -0.3 -2.05 0.4 -2.05 1.1 -1.25 1.65 L0.15 2.1 0.15 2.15 -0.1 2.9 -0.1 2.95 0.15 3.65 0.3 3.8 M0.15 -2.2 Q-1.25 -2.1 -2.35 -1.5 -3.65 -0.7 -3.65 0.4 -3.65 1.5 -2.35 2.25 L-0.1 2.95 -2.35 2.25 Q-3.65 1.5 -3.65 0.4 -3.65 -0.7 -2.35 -1.5 -1.25 -2.1 0.15 -2.2" fill="url(#gradient1)" fill-rule="evenodd" stroke="none"/>
    <path d="M1.15 3.85 L0.75 3.95 0.3 3.8 0.15 3.65 -0.1 2.95 -0.1 2.9 0.15 2.15 0.15 2.1 Q0.4 1.85 0.75 1.9 1.05 1.85 1.3 2.15 L1.35 2.15 1.55 2.9 1.55 3.0 1.35 3.65 1.15 3.85" fill="url(#gradient2)" fill-rule="evenodd" stroke="none"/>
    <path d="M0.45 -3.1 L0.85 -3.3 1.25 -3.1 Q3.4 -3.05 4.95 -2.1 6.65 -1.1 6.65 0.35 6.65 1.8 4.95 2.8 3.35 3.8 1.15 3.85 L0.75 3.95 0.3 3.8 Q-1.65 3.7 -3.05 2.8 -4.7 1.8 -4.7 0.35 -4.7 -1.1 -3.05 -2.1 -1.6 -3.0 0.45 -3.1 M0.15 -2.25 L0.15 -2.2 Q-1.25 -2.1 -2.35 -1.5 -3.65 -0.7 -3.65 0.4 -3.65 1.5 -2.35 2.25 L-0.1 2.95 -0.1 2.9 0.15 2.15 0.15 2.1 -1.25 1.65 Q-2.05 1.1 -2.05 0.4 -2.05 -0.3 -1.25 -0.8 -0.5 -1.25 0.55 -1.3 L0.85 -1.2 1.15 -1.3 Q2.1 -1.25 2.8 -0.8 3.6 -0.3 3.65 0.4 3.6 1.1 2.8 1.65 L1.3 2.15 1.35 2.15 1.55 2.9 1.55 3.0 1.35 3.65 1.15 3.85 M1.55 -2.2 L1.55 -2.25 M1.55 -2.2 Q3.0 -2.1 4.1 -1.5 5.45 -0.7 5.45 0.4 5.45 1.5 4.1 2.25 3.0 2.85 1.55 3.0 M1.3 2.15 Q1.05 1.85 0.75 1.9 0.4 1.85 0.15 2.1 M0.3 3.8 L0.15 3.65 -0.1 2.95" fill="none" stroke="#000000" stroke-linecap="round" stroke-linejoin="round" stroke-width="0.5"/>
  </g>
  <defs>
    <radialGradient cx="0" cy="0" gradientTransform="matrix(0.0017, 0.0, 0.0, 0.0017, 0.85, -2.25)" gradientUnits="userSpaceOnUse" id="gradient0" r="819.2" spreadMethod="pad">
      <stop offset="0.0" stop-color="#e9cf1b"/>
      <stop offset="1.0" stop-color="#ffffff"/>
    </radialGradient>
    <radialGradient cx="0" cy="0" gradientTransform="matrix(0.0075, 0.0, 0.0, 0.0075, 0.95, 0.35)" gradientUnits="userSpaceOnUse" id="gradient1" r="819.2" spreadMethod="pad">
      <stop offset="0.0" stop-color="#e9cf1b"/>
      <stop offset="1.0" stop-color="#ffffff"/>
    </radialGradient>
    <radialGradient cx="0" cy="0" gradientTransform="matrix(0.0017, 0.0, 0.0, 0.0017, 0.7, 2.9)" gradientUnits="userSpaceOnUse" id="gradient2" r="819.2" spreadMethod="pad">
      <stop offset="0.0" stop-color="#e9cf1b"/>
      <stop offset="1.0" stop-color="#ffffff"/>
    </radialGradient>
  </defs>
</svg>
