<?xml version="1.0" encoding="UTF-8" standalone="no"?>
<svg xmlns:xlink="http://www.w3.org/1999/xlink" height="9.6px" width="12.85px" xmlns="http://www.w3.org/2000/svg">
  <g transform="matrix(1.0, 0.0, 0.0, 1.0, 5.6, -2.4)">
    <path d="M1.85 4.95 L3.25 4.05 Q4.3 3.45 5.1 3.15 L6.05 3.05 5.45 3.75 3.75 4.9 1.95 5.8 1.9 5.8 1.5 5.95 1.0 5.95 Q0.9 5.8 1.35 5.4 L1.55 5.2 1.85 4.95" fill="url(#gradient0)" fill-rule="evenodd" stroke="none"/>
    <path d="M2.0 6.35 L3.8 5.75 5.95 5.35 7.0 5.5 6.15 6.15 4.1 6.9 2.0 7.3 1.85 7.3 1.6 7.35 0.9 7.15 Q0.8 6.9 1.55 6.55 L1.65 6.5 2.0 6.35" fill="url(#gradient1)" fill-rule="evenodd" stroke="none"/>
    <path d="M1.35 5.4 Q0.9 5.8 1.0 5.95 L1.5 5.95 1.55 6.55 Q0.8 6.9 0.9 7.15 L1.6 7.35 1.6 7.5 1.6 8.0 1.1 8.15 0.35 7.9 0.2 7.9 0.2 7.5 0.2 7.35 0.75 7.15 0.25 6.65 0.35 5.85 0.55 5.8 0.45 5.55 Q0.6 4.85 0.9 4.85 L1.35 5.4" fill="url(#gradient2)" fill-rule="evenodd" stroke="none"/>
    <path d="M-0.25 5.75 L-0.35 5.7 -2.2 4.8 -3.9 3.65 Q-4.6 3.05 -4.5 2.9 L-3.55 3.05 Q-2.75 3.3 -1.7 3.95 L-0.15 4.95 0.0 5.1 0.45 5.55 0.55 5.8 0.35 5.85 -0.25 5.75" fill="url(#gradient3)" fill-rule="evenodd" stroke="none"/>
    <path d="M1.95 5.8 L2.0 6.35 1.65 6.5 1.55 6.55 1.5 5.95 1.9 5.8 1.95 5.8 M2.0 7.3 L2.0 7.95 1.65 8.0 1.6 8.0 1.6 7.5 1.6 7.35 1.85 7.3 2.0 7.3 M1.95 8.75 L1.9 9.25 1.55 9.2 1.45 9.2 1.55 8.7 1.65 8.7 1.95 8.75 M1.7 10.15 L1.65 10.4 Q1.35 11.75 0.85 11.75 0.35 11.75 0.0 10.4 L-0.05 10.15 0.35 9.95 0.55 9.8 0.9 10.15 1.2 9.9 1.35 10.0 1.7 10.15 M-0.2 9.2 L-0.25 8.7 0.25 8.65 0.35 9.15 0.15 9.15 -0.2 9.2 M-0.3 7.85 L-0.3 7.3 0.2 7.35 0.2 7.5 0.2 7.9 -0.3 7.85 M-0.25 6.4 L-0.25 5.75 0.35 5.85 0.25 6.65 -0.05 6.5 -0.25 6.4 M-0.15 4.95 L0.0 3.95 Q0.35 2.65 0.85 2.65 1.35 2.65 1.65 3.95 L1.85 4.95 1.55 5.2 1.35 5.4 0.9 4.85 Q0.6 4.85 0.45 5.55 L0.0 5.1 -0.15 4.95" fill="url(#gradient4)" fill-rule="evenodd" stroke="none"/>
    <path d="M-0.3 7.3 L-2.45 6.95 -4.6 6.15 -5.35 5.55 Q-5.3 5.3 -4.35 5.35 L-2.15 5.75 -0.25 6.4 -0.05 6.5 0.25 6.65 0.75 7.15 0.2 7.35 -0.3 7.3" fill="url(#gradient5)" fill-rule="evenodd" stroke="none"/>
    <path d="M-0.25 8.7 L-1.7 8.75 -3.75 8.6 -4.6 8.25 Q-4.6 8.05 -3.75 7.9 L-1.7 7.75 -0.3 7.85 0.2 7.9 0.35 7.9 1.1 8.15 1.2 8.25 1.15 8.35 1.1 8.3 0.95 8.3 0.7 8.2 0.6 8.2 0.55 8.25 0.5 8.3 0.5 8.6 0.35 8.6 0.25 8.65 -0.25 8.7" fill="url(#gradient6)" fill-rule="evenodd" stroke="none"/>
    <path d="M1.15 8.35 L1.25 8.4 1.3 8.45 1.3 8.65 1.3 9.1 1.35 9.2 1.25 9.4 1.15 9.45 1.05 9.45 0.9 9.6 0.8 9.6 0.6 9.5 0.5 9.4 0.5 9.2 0.5 8.65 0.5 8.6 0.5 8.3 0.55 8.25 0.6 8.2 0.7 8.2 0.95 8.3 1.1 8.3 1.15 8.35" fill="url(#gradient7)" fill-rule="evenodd" stroke="none"/>
    <path d="M2.0 7.95 L3.7 7.85 5.75 8.0 Q6.6 8.15 6.6 8.35 6.6 8.55 5.75 8.7 L3.7 8.85 1.95 8.75 1.65 8.7 1.55 8.7 1.3 8.65 1.3 8.45 1.25 8.4 1.15 8.35 1.2 8.25 1.1 8.15 1.6 8.0 1.65 8.0 2.0 7.95" fill="url(#gradient8)" fill-rule="evenodd" stroke="none"/>
    <path d="M0.5 8.6 L0.5 8.65 0.5 9.2 0.35 9.15 0.25 8.65 0.35 8.6 0.5 8.6 M0.8 9.6 L0.9 9.6 1.2 9.9 0.9 10.15 0.55 9.8 0.8 9.6 M1.35 9.2 L1.3 9.1 1.3 8.65 1.55 8.7 1.45 9.2 1.35 9.2" fill="url(#gradient9)" fill-rule="evenodd" stroke="none"/>
    <path d="M-0.05 10.15 L-1.0 10.45 -2.45 10.7 -3.15 10.45 Q-3.2 10.2 -2.65 9.9 L-1.3 9.4 -0.2 9.2 0.15 9.15 0.35 9.15 0.5 9.2 0.5 9.4 0.6 9.5 0.8 9.6 0.55 9.8 0.35 9.95 -0.05 10.15" fill="url(#gradient10)" fill-rule="evenodd" stroke="none"/>
    <path d="M1.9 9.25 L3.0 9.45 Q3.85 9.65 4.4 9.95 L4.85 10.5 Q4.8 10.75 4.15 10.75 L2.75 10.5 1.7 10.15 1.35 10.0 1.2 9.9 0.9 9.6 1.05 9.45 1.15 9.45 1.25 9.4 1.35 9.2 1.45 9.2 1.55 9.2 1.9 9.25" fill="url(#gradient11)" fill-rule="evenodd" stroke="none"/>
    <path d="M1.85 4.95 L3.25 4.05 Q4.3 3.45 5.1 3.15 L6.05 3.05 5.45 3.75 3.75 4.9 1.95 5.8 2.0 6.35 3.8 5.75 5.95 5.35 7.0 5.5 6.15 6.15 4.1 6.9 2.0 7.3 2.0 7.95 3.7 7.85 5.75 8.0 Q6.6 8.15 6.6 8.35 6.6 8.55 5.75 8.7 L3.7 8.85 1.95 8.75 1.9 9.25 3.0 9.45 Q3.85 9.65 4.4 9.95 L4.85 10.5 Q4.8 10.75 4.15 10.75 L2.75 10.5 1.7 10.15 1.65 10.4 Q1.35 11.75 0.85 11.75 0.35 11.75 0.0 10.4 L-0.05 10.15 -1.0 10.45 -2.45 10.7 -3.15 10.45 Q-3.2 10.2 -2.65 9.9 L-1.3 9.4 -0.2 9.2 -0.25 8.7 -1.7 8.75 -3.75 8.6 -4.6 8.25 Q-4.6 8.05 -3.75 7.9 L-1.7 7.75 -0.3 7.85 -0.3 7.3 -2.45 6.95 -4.6 6.15 -5.35 5.55 Q-5.3 5.3 -4.35 5.35 L-2.15 5.75 -0.25 6.4 -0.25 5.75 -0.35 5.7 -2.2 4.8 -3.9 3.65 Q-4.6 3.05 -4.5 2.9 L-3.55 3.05 Q-2.75 3.3 -1.7 3.95 L-0.15 4.95 0.0 3.95 Q0.35 2.65 0.85 2.65 1.35 2.65 1.65 3.95 L1.85 4.95 1.55 5.2 1.35 5.4 0.9 4.85 Q0.6 4.85 0.45 5.55 L0.0 5.1 -0.15 4.95 M1.5 5.95 L1.9 5.8 1.95 5.8 M0.35 5.85 L0.25 6.65 -0.05 6.5 -0.25 6.4 M0.2 7.35 L0.2 7.5 0.2 7.9 -0.3 7.85 M1.6 8.0 L1.6 7.5 1.6 7.35 1.85 7.3 2.0 7.3 M1.55 6.55 L1.5 5.95 M1.55 6.55 L1.65 6.5 2.0 6.35 M1.55 8.7 L1.65 8.7 1.95 8.75 M0.35 9.15 L0.15 9.15 -0.2 9.2 M0.35 9.15 L0.25 8.65 -0.25 8.7 M1.6 8.0 L1.65 8.0 2.0 7.95 M1.55 8.7 L1.45 9.2 1.55 9.2 1.9 9.25 M1.2 9.9 L1.35 10.0 1.7 10.15 M-0.05 10.15 L0.35 9.95 0.55 9.8 0.9 10.15 1.2 9.9 M0.2 7.35 L-0.3 7.3 M0.35 5.85 L-0.25 5.75" fill="none" stroke="#000000" stroke-linecap="round" stroke-linejoin="round" stroke-width="0.5"/>
  </g>
  <defs>
    <radialGradient cx="0" cy="0" gradientTransform="matrix(0.0031, -0.0018, 0.0018, 0.0031, 3.5, 4.45)" gradientUnits="userSpaceOnUse" id="gradient0" r="819.2" spreadMethod="pad">
      <stop offset="0.0" stop-color="#ebcc54"/>
      <stop offset="1.0" stop-color="#ffffff"/>
    </radialGradient>
    <radialGradient cx="0" cy="0" gradientTransform="matrix(0.0073, 0.0, 0.0, 0.0073, 1.2, 7.0)" gradientUnits="userSpaceOnUse" id="gradient1" r="819.2" spreadMethod="pad">
      <stop offset="0.0" stop-color="#ebcc54"/>
      <stop offset="1.0" stop-color="#ffffff"/>
    </radialGradient>
    <radialGradient cx="0" cy="0" gradientTransform="matrix(0.0043, 0.0, 0.0, 0.0043, 0.95, 7.65)" gradientUnits="userSpaceOnUse" id="gradient2" r="819.2" spreadMethod="pad">
      <stop offset="0.0" stop-color="#ebcc54"/>
      <stop offset="1.0" stop-color="#ffffff"/>
    </radialGradient>
    <radialGradient cx="0" cy="0" gradientTransform="matrix(0.0031, 0.0018, -0.0018, 0.0031, -2.0, 4.35)" gradientUnits="userSpaceOnUse" id="gradient3" r="819.2" spreadMethod="pad">
      <stop offset="0.0" stop-color="#ebcc54"/>
      <stop offset="1.0" stop-color="#ffffff"/>
    </radialGradient>
    <radialGradient cx="0" cy="0" gradientTransform="matrix(0.0056, 0.0, 0.0, 0.0056, 0.85, 7.2)" gradientUnits="userSpaceOnUse" id="gradient4" r="819.2" spreadMethod="pad">
      <stop offset="0.0" stop-color="#ebcc54"/>
      <stop offset="1.0" stop-color="#ffffff"/>
    </radialGradient>
    <radialGradient cx="0" cy="0" gradientTransform="matrix(0.0065, 0.0, 0.0, 0.0065, -0.2, 6.8)" gradientUnits="userSpaceOnUse" id="gradient5" r="819.2" spreadMethod="pad">
      <stop offset="0.0" stop-color="#ebcc54"/>
      <stop offset="1.0" stop-color="#ffffff"/>
    </radialGradient>
    <radialGradient cx="0" cy="0" gradientTransform="matrix(0.0069, 0.0, 0.0, 0.0069, 1.05, 8.15)" gradientUnits="userSpaceOnUse" id="gradient6" r="819.2" spreadMethod="pad">
      <stop offset="0.0" stop-color="#ebcc54"/>
      <stop offset="1.0" stop-color="#ffffff"/>
    </radialGradient>
    <radialGradient cx="0" cy="0" gradientTransform="matrix(0.0014, 0.0, 0.0, 0.0014, 0.95, 8.5)" gradientUnits="userSpaceOnUse" id="gradient7" r="819.2" spreadMethod="pad">
      <stop offset="0.0" stop-color="#ebcc54"/>
      <stop offset="1.0" stop-color="#ffffff"/>
    </radialGradient>
    <radialGradient cx="0" cy="0" gradientTransform="matrix(0.0063, 0.0, 0.0, 0.0063, 1.45, 8.25)" gradientUnits="userSpaceOnUse" id="gradient8" r="819.2" spreadMethod="pad">
      <stop offset="0.0" stop-color="#ebcc54"/>
      <stop offset="1.0" stop-color="#ffffff"/>
    </radialGradient>
    <radialGradient cx="0" cy="0" gradientTransform="matrix(0.0042, 0.0, 0.0, 0.0042, 0.9, 7.5)" gradientUnits="userSpaceOnUse" id="gradient9" r="819.2" spreadMethod="pad">
      <stop offset="0.0" stop-color="#ebcc54"/>
      <stop offset="1.0" stop-color="#ffffff"/>
    </radialGradient>
    <radialGradient cx="0" cy="0" gradientTransform="matrix(0.0031, -8.0E-4, 8.0E-4, 0.0031, -1.15, 9.9)" gradientUnits="userSpaceOnUse" id="gradient10" r="819.2" spreadMethod="pad">
      <stop offset="0.0" stop-color="#ebcc54"/>
      <stop offset="1.0" stop-color="#ffffff"/>
    </radialGradient>
    <radialGradient cx="0" cy="0" gradientTransform="matrix(0.0031, 8.0E-4, -8.0E-4, 0.0031, 2.85, 10.0)" gradientUnits="userSpaceOnUse" id="gradient11" r="819.2" spreadMethod="pad">
      <stop offset="0.0" stop-color="#ebcc54"/>
      <stop offset="1.0" stop-color="#ffffff"/>
    </radialGradient>
  </defs>
</svg>
