<?xml version="1.0" encoding="UTF-8" standalone="no"?>
<svg xmlns:xlink="http://www.w3.org/1999/xlink" height="27.5px" width="21.3px" xmlns="http://www.w3.org/2000/svg">
  <g transform="matrix(1.0, 0.0, 0.0, 1.0, 11.7, 16.4)">
    <path d="M4.55 -10.1 L5.65 -8.8 4.85 -9.0 4.25 -9.7 4.25 -10.0 4.55 -10.1 M8.2 -7.5 L9.0 -7.35 Q9.6 -6.85 9.6 -6.1 L9.55 -5.5 8.9 -6.5 8.25 -7.45 8.2 -7.5 M6.3 -2.55 L5.85 -2.15 5.5 -1.3 4.4 -1.25 4.5 -0.45 Q4.6 0.75 3.6 1.35 L6.0 4.15 7.3 6.9 6.8 7.6 6.3 8.6 3.5 8.3 2.95 7.75 Q2.55 7.3 2.05 7.35 L1.9 6.5 1.9 6.45 1.0 5.85 0.8 5.65 0.5 5.65 0.25 5.8 -0.25 6.15 Q-0.6 8.55 -2.3 10.35 L-2.9 11.05 -4.65 10.9 -5.15 10.2 -5.7 9.4 -5.75 8.15 -5.7 6.8 -4.8 5.85 Q-4.2 5.05 -4.2 4.05 L-3.7 2.75 -3.2 2.4 -3.6 1.95 Q-3.6 1.1 -3.95 0.4 L-3.7 -0.65 -3.8 -0.8 -4.15 -1.1 Q-4.4 -2.15 -5.1 -3.0 L-5.35 -3.35 Q-4.5 -2.8 -3.35 -2.6 L-2.35 -2.55 -1.95 -2.05 -2.15 -1.35 Q-2.4 0.1 -1.8 1.25 L-1.9 1.85 -2.9 2.65 Q-3.8 3.55 -3.7 4.95 -3.65 5.7 -3.0 6.05 -0.65 7.4 0.5 4.95 L0.8 4.85 1.1 4.8 1.95 4.45 2.1 4.35 2.15 4.3 Q3.1 3.9 3.15 2.95 L3.15 2.85 Q3.75 1.45 3.25 -0.2 L3.5 -0.9 3.55 -1.05 Q3.95 -1.8 3.75 -2.45 L5.9 -2.65 6.25 -2.55 6.3 -2.55 M-7.8 -4.8 L-7.95 -4.8 -9.0 -4.85 -8.5 -5.25 -7.8 -4.8 M-8.7 -7.95 L-6.7 -8.1 -6.15 -8.25 -5.35 -8.45 -4.0 -8.55 -4.4 -8.0 -5.15 -7.9 -5.6 -7.75 -7.75 -7.9 Q-8.55 -7.85 -8.95 -7.15 L-8.75 -7.8 -8.7 -7.95 M-3.2 -9.2 L-2.95 -9.8 -2.85 -9.6 -2.9 -9.35 -3.2 -9.2" fill="url(#gradient0)" fill-rule="evenodd" stroke="none"/>
    <path d="M-5.35 -3.35 L-5.55 -3.65 -5.7 -3.85 -5.1 -3.7 -4.15 -3.4 -2.8 -3.15 -2.7 -3.05 -2.35 -2.55 -3.35 -2.6 Q-4.5 -2.8 -5.35 -3.35" fill="url(#gradient1)" fill-rule="evenodd" stroke="none"/>
    <path d="M3.25 -0.2 L3.15 -0.55 3.5 -0.9 3.25 -0.2 M-1.95 -2.05 L-2.35 -2.55 -2.7 -3.05 -1.85 -2.2 -1.95 -2.05" fill="url(#gradient2)" fill-rule="evenodd" stroke="none"/>
    <path d="M3.9 -13.5 L4.05 -11.7 3.65 -11.65 3.5 -13.2 3.9 -13.5 M-3.25 -11.6 L-3.75 -14.1 -3.65 -14.2 -3.1 -14.85 Q-3.2 -13.9 -2.5 -13.1 -3.15 -12.5 -3.25 -11.6" fill="url(#gradient3)" fill-rule="evenodd" stroke="none"/>
    <path d="M3.7 -14.25 L3.9 -13.5 3.5 -13.2 3.05 -14.0 3.15 -14.05 3.7 -14.25 M5.65 -8.8 Q7.0 -8.45 8.2 -7.5 L8.25 -7.45 8.9 -6.5 7.65 -6.85 5.65 -6.05 Q5.8 -7.65 4.85 -9.0 L5.65 -8.8 M-5.7 -3.85 L-6.25 -4.35 -6.0 -4.35 -5.75 -4.1 -5.1 -3.7 -5.7 -3.85 M-2.95 -9.8 L-2.9 -10.3 -3.0 -11.0 -3.25 -11.6 Q-3.15 -12.5 -2.5 -13.1 L-2.15 -12.75 Q-2.9 -11.75 -2.6 -10.5 L-2.8 -9.95 -2.85 -9.6 -2.95 -9.8 M3.65 -2.6 L4.6 -3.6 Q5.0 -2.95 5.9 -2.65 L3.75 -2.45 3.65 -2.6 M-1.8 1.25 Q-2.4 0.1 -2.15 -1.35 L-1.95 -2.05 -1.85 -2.2 -0.75 -0.85 -1.45 0.25 -1.8 1.25 M-3.4 -3.65 L-2.8 -3.15 -4.15 -3.4 Q-3.75 -3.45 -3.4 -3.65 M-4.4 -8.0 L-4.65 -7.4 -5.6 -7.75 -5.15 -7.9 -4.4 -8.0" fill="url(#gradient4)" fill-rule="evenodd" stroke="none"/>
    <path d="M-6.25 -4.35 Q-6.95 -4.85 -7.8 -4.8 L-8.5 -5.25 -8.2 -5.65 Q-8.2 -6.15 -8.65 -6.3 -9.1 -6.4 -9.15 -6.85 L-8.95 -7.15 Q-8.55 -7.85 -7.75 -7.9 L-5.6 -7.75 -4.65 -7.4 Q-5.4 -6.7 -5.05 -5.3 -5.0 -4.9 -4.65 -4.65 L-3.4 -3.65 Q-3.75 -3.45 -4.15 -3.4 L-5.1 -3.7 -5.75 -4.1 -6.0 -4.35 -6.25 -4.35" fill="url(#gradient5)" fill-rule="evenodd" stroke="none"/>
    <path d="M9.55 -5.5 Q9.35 -4.5 8.75 -3.6 7.75 -2.85 6.5 -2.6 L6.3 -2.55 6.25 -2.55 5.9 -2.65 Q5.0 -2.95 4.6 -3.6 L4.8 -3.9 5.4 -5.05 5.65 -6.05 7.65 -6.85 8.9 -6.5 9.55 -5.5" fill="url(#gradient6)" fill-rule="evenodd" stroke="none"/>
    <path d="M3.15 2.85 L3.15 2.95 Q3.1 3.9 2.15 4.3 L2.1 4.35 3.15 2.85 M0.8 4.85 L0.5 4.95 Q-0.65 7.4 -3.0 6.05 -3.65 5.7 -3.7 4.95 -3.8 3.55 -2.9 2.65 L-1.9 1.85 -1.9 2.0 Q-2.15 4.95 0.8 4.85" fill="url(#gradient7)" fill-rule="evenodd" stroke="none"/>
    <path d="M-3.1 -14.85 Q-2.1 -15.95 -0.6 -16.3 L-1.1 -15.75 Q-1.65 -14.5 -1.45 -13.45 L-2.15 -12.75 -2.5 -13.1 Q-3.2 -13.9 -3.1 -14.85" fill="url(#gradient8)" fill-rule="evenodd" stroke="none"/>
    <path d="M3.2 -15.65 L3.2 -15.55 3.3 -15.25 3.45 -14.9 3.7 -14.25 3.15 -14.05 3.05 -14.0 2.45 -14.55 3.05 -15.4 3.2 -15.65" fill="url(#gradient9)" fill-rule="evenodd" stroke="none"/>
    <path d="M-4.0 -8.55 L-3.2 -9.2 -2.9 -9.35 -2.95 -8.1 Q-4.15 -7.95 -4.65 -7.4 L-4.4 -8.0 -4.0 -8.55 M-1.45 -13.45 L-1.1 -12.45 -2.2 -11.35 -2.6 -10.5 Q-2.9 -11.75 -2.15 -12.75 L-1.45 -13.45 M-1.2 -5.85 L-0.55 -5.65 -0.8 -5.5 -1.15 -5.8 -1.2 -5.85" fill="url(#gradient10)" fill-rule="evenodd" stroke="none"/>
    <path d="M1.0 -8.5 Q0.4 -8.35 0.2 -8.65 L0.25 -8.8 0.5 -9.4 Q0.6 -8.9 1.0 -8.5" fill="url(#gradient11)" fill-rule="evenodd" stroke="none"/>
    <path d="M-0.55 -5.65 L0.75 -4.7 Q-0.3 -4.05 0.0 -2.9 0.15 -2.4 0.6 -2.25 2.35 -1.65 3.65 -2.6 L3.75 -2.45 Q3.95 -1.8 3.55 -1.05 L3.5 -0.9 3.15 -0.55 3.25 -0.2 Q3.75 1.45 3.15 2.85 L2.1 4.35 1.95 4.45 1.1 4.8 0.8 4.85 Q-2.15 4.95 -1.9 2.0 L-1.9 1.85 -1.8 1.25 -1.45 0.25 -0.75 -0.85 -1.85 -2.2 -2.7 -3.05 -2.8 -3.15 -3.4 -3.65 -4.65 -4.65 Q-5.0 -4.9 -5.05 -5.3 -5.4 -6.7 -4.65 -7.4 -4.15 -7.95 -2.95 -8.1 -2.85 -7.25 -2.35 -6.45 L-1.65 -5.95 -1.2 -5.85 -1.15 -5.8 -0.8 -5.5 -0.55 -5.65" fill="url(#gradient12)" fill-rule="evenodd" stroke="none"/>
    <path d="M-1.1 -12.45 Q-0.65 -11.6 0.45 -10.95 L1.5 -10.9 Q3.85 -12.15 1.65 -14.0 L2.45 -14.55 3.05 -14.0 3.5 -13.2 3.65 -11.65 Q3.05 -11.55 2.75 -11.05 L2.7 -10.6 2.8 -9.05 Q3.4 -8.35 4.1 -8.95 L4.2 -9.4 4.25 -9.7 4.85 -9.0 Q5.8 -7.65 5.65 -6.05 L5.4 -5.05 4.8 -3.9 4.6 -3.6 3.65 -2.6 Q2.35 -1.65 0.6 -2.25 0.15 -2.4 0.0 -2.9 -0.3 -4.05 0.75 -4.7 L-0.55 -5.65 -1.2 -5.85 -1.65 -5.95 -2.35 -6.45 Q-2.85 -7.25 -2.95 -8.1 L-2.9 -9.35 -2.85 -9.6 -2.8 -9.95 -2.6 -10.5 -2.2 -11.35 -1.1 -12.45 M1.0 -8.5 Q0.6 -8.9 0.5 -9.4 L0.25 -8.8 0.2 -8.65 Q0.4 -8.35 1.0 -8.5" fill="url(#gradient13)" fill-rule="evenodd" stroke="none"/>
    <path d="M-0.6 -16.3 L-0.3 -16.4 2.4 -16.35 2.55 -16.2 3.2 -15.65 3.05 -15.4 2.45 -14.55 1.65 -14.0 Q3.85 -12.15 1.5 -10.9 L0.45 -10.95 Q-0.65 -11.6 -1.1 -12.45 L-1.45 -13.45 Q-1.65 -14.5 -1.1 -15.75 L-0.6 -16.3" fill="url(#gradient14)" fill-rule="evenodd" stroke="none"/>
    <path d="M-9.0 -4.85 Q-10.65 -5.1 -11.7 -6.45 -11.85 -7.65 -10.55 -7.8 L-8.7 -7.95 -8.75 -7.8 -8.95 -7.15 -9.15 -6.85 Q-9.1 -6.4 -8.65 -6.3 -8.2 -6.15 -8.2 -5.65 L-8.5 -5.25 -9.0 -4.85" fill="url(#gradient15)" fill-rule="evenodd" stroke="none"/>
    <path d="M4.05 -11.7 L4.05 -11.25 4.15 -10.7 4.55 -10.1 4.25 -10.0 4.25 -9.7 4.2 -9.4 4.1 -8.95 Q3.4 -8.35 2.8 -9.05 L2.7 -10.6 2.75 -11.05 Q3.05 -11.55 3.65 -11.65 L4.05 -11.7" fill="url(#gradient16)" fill-rule="evenodd" stroke="none"/>
  </g>
  <defs>
    <radialGradient cx="0" cy="0" gradientTransform="matrix(0.0228, 0.0, 0.0, 0.0228, -0.1, -0.85)" gradientUnits="userSpaceOnUse" id="gradient0" r="819.2" spreadMethod="pad">
      <stop offset="0.0" stop-color="#4e0707"/>
      <stop offset="0.16470588235294117" stop-color="#b41010"/>
      <stop offset="0.5294117647058824" stop-color="#e23612"/>
      <stop offset="0.807843137254902" stop-color="#fd5037"/>
      <stop offset="1.0" stop-color="#fd5037" stop-opacity="0.0"/>
    </radialGradient>
    <radialGradient cx="0" cy="0" gradientTransform="matrix(0.0056, 0.0, 0.0, 0.0056, -3.15, -5.15)" gradientUnits="userSpaceOnUse" id="gradient1" r="819.2" spreadMethod="pad">
      <stop offset="0.0" stop-color="#4e0707"/>
      <stop offset="0.16470588235294117" stop-color="#b41010"/>
      <stop offset="0.5294117647058824" stop-color="#e23612"/>
      <stop offset="0.807843137254902" stop-color="#fd5037"/>
      <stop offset="1.0" stop-color="#fd5037" stop-opacity="0.0"/>
    </radialGradient>
    <radialGradient cx="0" cy="0" gradientTransform="matrix(0.0074, 0.0, 0.0, 0.0074, 0.2, -3.75)" gradientUnits="userSpaceOnUse" id="gradient2" r="819.2" spreadMethod="pad">
      <stop offset="0.0" stop-color="#4e0707"/>
      <stop offset="0.16470588235294117" stop-color="#b41010"/>
      <stop offset="0.5294117647058824" stop-color="#e23612"/>
      <stop offset="0.807843137254902" stop-color="#fd5037"/>
      <stop offset="1.0" stop-color="#fd5037" stop-opacity="0.0"/>
    </radialGradient>
    <radialGradient cx="0" cy="0" gradientTransform="matrix(0.0079, 0.0, 0.0, 0.0079, 0.4, -14.1)" gradientUnits="userSpaceOnUse" id="gradient3" r="819.2" spreadMethod="pad">
      <stop offset="0.0" stop-color="#4e0707"/>
      <stop offset="0.16470588235294117" stop-color="#b41010"/>
      <stop offset="0.5294117647058824" stop-color="#e23612"/>
      <stop offset="0.807843137254902" stop-color="#fd5037"/>
      <stop offset="1.0" stop-color="#fd5037" stop-opacity="0.0"/>
    </radialGradient>
    <radialGradient cx="0" cy="0" gradientTransform="matrix(0.0151, 0.0, 0.0, 0.0151, 0.85, -6.9)" gradientUnits="userSpaceOnUse" id="gradient4" r="819.2" spreadMethod="pad">
      <stop offset="0.0" stop-color="#4e0707"/>
      <stop offset="0.16470588235294117" stop-color="#b41010"/>
      <stop offset="0.5294117647058824" stop-color="#e23612"/>
      <stop offset="0.807843137254902" stop-color="#fd5037"/>
      <stop offset="1.0" stop-color="#fd5037" stop-opacity="0.0"/>
    </radialGradient>
    <radialGradient cx="0" cy="0" gradientTransform="matrix(0.0049, 0.0, 0.0, 0.0049, -5.9, -5.7)" gradientUnits="userSpaceOnUse" id="gradient5" r="819.2" spreadMethod="pad">
      <stop offset="0.0" stop-color="#4e0707"/>
      <stop offset="0.16470588235294117" stop-color="#b41010"/>
      <stop offset="0.5294117647058824" stop-color="#e23612"/>
      <stop offset="0.807843137254902" stop-color="#fd5037"/>
      <stop offset="1.0" stop-color="#fd5037" stop-opacity="0.0"/>
    </radialGradient>
    <radialGradient cx="0" cy="0" gradientTransform="matrix(0.0037, 0.0, 0.0, 0.0037, 6.95, -4.65)" gradientUnits="userSpaceOnUse" id="gradient6" r="819.2" spreadMethod="pad">
      <stop offset="0.0" stop-color="#4e0707"/>
      <stop offset="0.16470588235294117" stop-color="#b41010"/>
      <stop offset="0.5294117647058824" stop-color="#e23612"/>
      <stop offset="0.807843137254902" stop-color="#fd5037"/>
      <stop offset="1.0" stop-color="#fd5037" stop-opacity="0.0"/>
    </radialGradient>
    <radialGradient cx="0" cy="0" gradientTransform="matrix(0.0052, 0.0, 0.0, 0.0052, -0.3, 3.8)" gradientUnits="userSpaceOnUse" id="gradient7" r="819.2" spreadMethod="pad">
      <stop offset="0.0" stop-color="#4e0707"/>
      <stop offset="0.16470588235294117" stop-color="#b41010"/>
      <stop offset="0.5294117647058824" stop-color="#e23612"/>
      <stop offset="0.807843137254902" stop-color="#fd5037"/>
      <stop offset="1.0" stop-color="#fd5037" stop-opacity="0.0"/>
    </radialGradient>
    <radialGradient cx="0" cy="0" gradientTransform="matrix(0.0046, 0.0, 0.0, 0.0046, -0.25, -14.65)" gradientUnits="userSpaceOnUse" id="gradient8" r="819.2" spreadMethod="pad">
      <stop offset="0.0" stop-color="#4e0707"/>
      <stop offset="0.16470588235294117" stop-color="#b41010"/>
      <stop offset="0.5294117647058824" stop-color="#e23612"/>
      <stop offset="0.807843137254902" stop-color="#fd5037"/>
      <stop offset="1.0" stop-color="#fd5037" stop-opacity="0.0"/>
    </radialGradient>
    <radialGradient cx="0" cy="0" gradientTransform="matrix(0.0033, 0.0, 0.0, 0.0033, 2.4, -15.65)" gradientUnits="userSpaceOnUse" id="gradient9" r="819.2" spreadMethod="pad">
      <stop offset="0.0" stop-color="#4e0707"/>
      <stop offset="0.16470588235294117" stop-color="#b41010"/>
      <stop offset="0.5294117647058824" stop-color="#e23612"/>
      <stop offset="0.807843137254902" stop-color="#fd5037"/>
      <stop offset="1.0" stop-color="#fd5037" stop-opacity="0.0"/>
    </radialGradient>
    <radialGradient cx="0" cy="0" gradientTransform="matrix(0.0067, 0.0, 0.0, 0.0067, -1.15, -9.25)" gradientUnits="userSpaceOnUse" id="gradient10" r="819.2" spreadMethod="pad">
      <stop offset="0.0" stop-color="#4e0707"/>
      <stop offset="0.16470588235294117" stop-color="#b41010"/>
      <stop offset="0.5294117647058824" stop-color="#e23612"/>
      <stop offset="0.807843137254902" stop-color="#fd5037"/>
      <stop offset="1.0" stop-color="#fd5037" stop-opacity="0.0"/>
    </radialGradient>
    <radialGradient cx="0" cy="0" gradientTransform="matrix(0.005, 0.0, 0.0, 0.005, 2.25, -9.0)" gradientUnits="userSpaceOnUse" id="gradient11" r="819.2" spreadMethod="pad">
      <stop offset="0.0" stop-color="#4e0707"/>
      <stop offset="0.16470588235294117" stop-color="#b41010"/>
      <stop offset="0.5294117647058824" stop-color="#e23612"/>
      <stop offset="0.807843137254902" stop-color="#fd5037"/>
      <stop offset="1.0" stop-color="#fd5037" stop-opacity="0.0"/>
    </radialGradient>
    <radialGradient cx="0" cy="0" gradientTransform="matrix(0.0095, 0.0, 0.0, 0.0095, -0.25, -1.65)" gradientUnits="userSpaceOnUse" id="gradient12" r="819.2" spreadMethod="pad">
      <stop offset="0.0" stop-color="#4e0707"/>
      <stop offset="0.16470588235294117" stop-color="#b41010"/>
      <stop offset="0.5294117647058824" stop-color="#e23612"/>
      <stop offset="0.807843137254902" stop-color="#fd5037"/>
      <stop offset="1.0" stop-color="#fd5037" stop-opacity="0.0"/>
    </radialGradient>
    <radialGradient cx="0" cy="0" gradientTransform="matrix(0.0081, 0.0, 0.0, 0.0081, 1.35, -8.45)" gradientUnits="userSpaceOnUse" id="gradient13" r="819.2" spreadMethod="pad">
      <stop offset="0.0" stop-color="#4e0707"/>
      <stop offset="0.16470588235294117" stop-color="#b41010"/>
      <stop offset="0.5294117647058824" stop-color="#e23612"/>
      <stop offset="0.807843137254902" stop-color="#fd5037"/>
      <stop offset="1.0" stop-color="#fd5037" stop-opacity="0.0"/>
    </radialGradient>
    <radialGradient cx="0" cy="0" gradientTransform="matrix(0.0054, 0.0, 0.0, 0.0054, 1.05, -14.75)" gradientUnits="userSpaceOnUse" id="gradient14" r="819.2" spreadMethod="pad">
      <stop offset="0.0" stop-color="#4e0707"/>
      <stop offset="0.16470588235294117" stop-color="#b41010"/>
      <stop offset="0.5294117647058824" stop-color="#e23612"/>
      <stop offset="0.807843137254902" stop-color="#fd5037"/>
      <stop offset="1.0" stop-color="#fd5037" stop-opacity="0.0"/>
    </radialGradient>
    <radialGradient cx="0" cy="0" gradientTransform="matrix(0.0046, 0.0, 0.0, 0.0046, -10.9, -6.4)" gradientUnits="userSpaceOnUse" id="gradient15" r="819.2" spreadMethod="pad">
      <stop offset="0.0" stop-color="#4e0707"/>
      <stop offset="0.16470588235294117" stop-color="#b41010"/>
      <stop offset="0.5294117647058824" stop-color="#e23612"/>
      <stop offset="0.807843137254902" stop-color="#fd5037"/>
      <stop offset="1.0" stop-color="#fd5037" stop-opacity="0.0"/>
    </radialGradient>
    <radialGradient cx="0" cy="0" gradientTransform="matrix(0.0043, 0.0, 0.0, 0.0043, 4.55, -11.55)" gradientUnits="userSpaceOnUse" id="gradient16" r="819.2" spreadMethod="pad">
      <stop offset="0.0" stop-color="#4e0707"/>
      <stop offset="0.16470588235294117" stop-color="#b41010"/>
      <stop offset="0.5294117647058824" stop-color="#e23612"/>
      <stop offset="0.807843137254902" stop-color="#fd5037"/>
      <stop offset="1.0" stop-color="#fd5037" stop-opacity="0.0"/>
    </radialGradient>
  </defs>
</svg>
