<?xml version="1.0" encoding="UTF-8" standalone="no"?>
<svg xmlns:xlink="http://www.w3.org/1999/xlink" height="22.6px" width="14.1px" xmlns="http://www.w3.org/2000/svg">
  <g transform="matrix(1.0, 0.0, 0.0, 1.0, 7.55, 13.45)">
    <path d="M3.95 -2.45 L3.8 -2.05 3.75 -2.45 3.95 -2.45 M3.55 -1.0 L3.5 -0.4 Q3.5 0.5 3.8 1.25 L3.6 1.35 4.2 2.15 4.75 2.85 4.7 3.8 Q4.55 5.05 3.75 6.1 L3.4 6.1 Q2.0 5.35 1.05 5.9 L1.0 5.85 0.8 5.65 0.5 5.65 0.25 5.8 -0.25 6.15 Q-0.45 7.35 -0.95 8.45 -2.3 9.0 -3.7 9.15 L-4.3 8.65 -4.4 7.5 -4.4 5.1 -3.95 4.75 -3.7 4.65 -3.7 4.95 Q-3.65 5.7 -3.0 6.05 -0.65 7.4 0.5 4.95 L0.8 4.85 1.1 4.8 1.95 4.45 2.1 4.35 2.15 4.3 Q3.1 3.9 3.15 2.95 L3.15 2.85 Q3.75 1.45 3.25 -0.2 L3.5 -0.9 3.55 -1.0 M-2.15 2.0 L-2.15 1.95 Q-2.2 0.85 -3.05 0.2 L-3.65 -0.45 -3.7 -0.55 -3.7 -0.65 -3.8 -0.8 -4.65 -1.6 -4.85 -1.9 -6.0 -2.25 Q-6.4 -3.4 -7.5 -4.1 L-7.5 -4.65 -6.85 -4.45 -6.25 -4.05 Q-5.15 -2.95 -3.35 -2.6 L-2.35 -2.55 -1.95 -2.05 -2.15 -1.35 Q-2.4 0.1 -1.8 1.25 L-1.9 1.85 -2.15 2.0 M-6.05 -7.85 Q-5.4 -8.6 -4.45 -8.85 -4.05 -8.95 -3.75 -9.2 L-3.3 -9.2 -3.35 -9.9 -3.3 -10.4 -3.3 -10.65 -3.25 -10.75 -3.15 -10.7 -2.85 -9.6 -2.9 -9.35 Q-3.95 -8.85 -4.4 -8.0 L-5.15 -7.9 -5.6 -7.75 -6.05 -7.85" fill="url(#gradient0)" fill-rule="evenodd" stroke="none"/>
    <path d="M-2.8 -3.15 L-2.7 -3.05 -2.35 -2.55 -3.35 -2.6 Q-5.15 -2.95 -6.25 -4.05 L-6.0 -3.95 -5.1 -3.7 -4.15 -3.4 -2.8 -3.15" fill="url(#gradient1)" fill-rule="evenodd" stroke="none"/>
    <path d="M-2.7 -3.05 L-1.85 -2.2 -1.95 -2.05 -2.35 -2.55 -2.7 -3.05 M3.25 -0.2 L3.15 -0.55 3.5 -0.9 3.25 -0.2" fill="url(#gradient2)" fill-rule="evenodd" stroke="none"/>
    <path d="M-3.25 -10.75 L-3.2 -10.95 -3.15 -10.7 -3.25 -10.75" fill="url(#gradient3)" fill-rule="evenodd" stroke="none"/>
    <path d="M5.6 -7.3 L6.45 -6.4 5.65 -6.05 5.6 -7.3 M4.75 -3.35 L4.0 -2.55 3.95 -2.45 3.75 -2.45 3.65 -2.6 4.6 -3.6 4.75 -3.35 M-3.2 -10.95 L-3.0 -11.25 -2.65 -11.6 -2.6 -10.5 -2.8 -9.95 -2.85 -9.6 -3.15 -10.7 -3.2 -10.95 M-3.4 -3.65 L-2.8 -3.15 -4.15 -3.4 Q-3.75 -3.45 -3.4 -3.65 M-1.85 -2.2 L-0.75 -0.85 -1.45 0.25 -1.8 1.25 Q-2.4 0.1 -2.15 -1.35 L-1.95 -2.05 -1.85 -2.2 M-4.65 -7.4 L-5.6 -7.75 -5.15 -7.9 -4.4 -8.0 -4.65 -7.4 M-6.85 -4.45 L-6.0 -4.35 -5.75 -4.1 -5.1 -3.7 -6.0 -3.95 -6.25 -4.05 -6.85 -4.45" fill="url(#gradient4)" fill-rule="evenodd" stroke="none"/>
    <path d="M-7.5 -4.65 L-7.55 -5.05 -7.4 -6.65 -7.05 -6.8 -6.45 -7.3 -6.05 -7.85 -5.6 -7.75 -4.65 -7.4 Q-5.4 -6.7 -5.05 -5.3 -5.0 -4.9 -4.65 -4.65 L-3.4 -3.65 Q-3.75 -3.45 -4.15 -3.4 L-5.1 -3.7 -5.75 -4.1 -6.0 -4.35 -6.85 -4.45 -7.5 -4.65" fill="url(#gradient5)" fill-rule="evenodd" stroke="none"/>
    <path d="M6.45 -6.4 L6.55 -6.3 6.55 -5.75 6.35 -4.6 6.0 -4.15 Q5.8 -3.8 5.45 -3.7 L4.75 -3.35 4.6 -3.6 4.8 -3.9 5.4 -5.05 5.65 -6.05 6.45 -6.4" fill="url(#gradient6)" fill-rule="evenodd" stroke="none"/>
    <path d="M-3.7 4.65 L-2.7 3.8 Q-2.1 3.0 -2.15 2.0 L-1.9 1.85 -1.9 2.0 Q-2.15 4.95 0.8 4.85 L0.5 4.95 Q-0.65 7.4 -3.0 6.05 -3.65 5.7 -3.7 4.95 L-3.7 4.65 M2.1 4.35 L3.15 2.85 3.15 2.95 Q3.1 3.9 2.15 4.3 L2.1 4.35" fill="url(#gradient7)" fill-rule="evenodd" stroke="none"/>
    <path d="M-1.3 -12.9 L-1.1 -12.45 -2.2 -11.35 -2.6 -10.5 -2.65 -11.6 -1.3 -12.9 M-0.55 -5.65 L-0.8 -5.5 -1.15 -5.8 -1.2 -5.85 -0.55 -5.65 M-2.95 -8.1 Q-4.15 -7.95 -4.65 -7.4 L-4.4 -8.0 Q-3.95 -8.85 -2.9 -9.35 L-2.95 -8.1" fill="url(#gradient8)" fill-rule="evenodd" stroke="none"/>
    <path d="M1.0 -8.5 Q0.4 -8.35 0.2 -8.65 L0.25 -8.8 0.5 -9.4 Q0.6 -8.9 1.0 -8.5" fill="url(#gradient9)" fill-rule="evenodd" stroke="none"/>
    <path d="M3.8 -2.05 L3.55 -1.05 3.55 -1.0 3.5 -0.9 3.15 -0.55 3.25 -0.2 Q3.75 1.45 3.15 2.85 L2.1 4.35 1.95 4.45 1.1 4.8 0.8 4.85 Q-2.15 4.95 -1.9 2.0 L-1.9 1.85 -1.8 1.25 -1.45 0.25 -0.75 -0.85 -1.85 -2.2 -2.7 -3.05 -2.8 -3.15 -3.4 -3.65 -4.65 -4.65 Q-5.0 -4.9 -5.05 -5.3 -5.4 -6.7 -4.65 -7.4 -4.15 -7.95 -2.95 -8.1 -2.85 -7.25 -2.35 -6.45 L-1.65 -5.95 -1.2 -5.85 -1.15 -5.8 -0.8 -5.5 -0.55 -5.65 0.75 -4.7 Q-0.3 -4.05 0.0 -2.9 0.15 -2.4 0.6 -2.25 2.35 -1.65 3.65 -2.6 L3.75 -2.45 3.8 -2.05" fill="url(#gradient10)" fill-rule="evenodd" stroke="none"/>
    <path d="M-1.1 -12.45 Q-0.65 -11.6 0.45 -10.95 L1.5 -10.9 2.15 -11.3 2.5 -10.8 2.5 -10.45 Q2.5 -10.0 2.75 -9.65 L2.8 -9.05 Q3.3 -8.45 3.9 -8.8 4.35 -8.25 5.05 -8.15 L5.2 -7.85 5.6 -7.3 5.65 -6.05 5.4 -5.05 4.8 -3.9 4.6 -3.6 3.65 -2.6 Q2.35 -1.65 0.6 -2.25 0.15 -2.4 0.0 -2.9 -0.3 -4.05 0.75 -4.7 L-0.55 -5.65 -1.2 -5.85 -1.65 -5.95 -2.35 -6.45 Q-2.85 -7.25 -2.95 -8.1 L-2.9 -9.35 -2.85 -9.6 -2.8 -9.95 -2.6 -10.5 -2.2 -11.35 -1.1 -12.45 M1.0 -8.5 Q0.6 -8.9 0.5 -9.4 L0.25 -8.8 0.2 -8.65 Q0.4 -8.35 1.0 -8.5" fill="url(#gradient11)" fill-rule="evenodd" stroke="none"/>
    <path d="M-1.3 -12.9 L-0.75 -13.45 0.6 -13.45 0.65 -13.4 Q1.1 -12.6 1.95 -12.45 L1.95 -11.95 2.15 -11.3 1.5 -10.9 0.45 -10.95 Q-0.65 -11.6 -1.1 -12.45 L-1.3 -12.9" fill="url(#gradient12)" fill-rule="evenodd" stroke="none"/>
    <path d="M2.75 -9.65 Q3.05 -9.25 3.7 -9.1 L3.7 -9.05 3.9 -8.8 Q3.3 -8.45 2.8 -9.05 L2.75 -9.65" fill="url(#gradient13)" fill-rule="evenodd" stroke="none"/>
  </g>
  <defs>
    <radialGradient cx="0" cy="0" gradientTransform="matrix(0.0228, 0.0, 0.0, 0.0228, -0.1, -0.85)" gradientUnits="userSpaceOnUse" id="gradient0" r="819.2" spreadMethod="pad">
      <stop offset="0.0" stop-color="#4e0707"/>
      <stop offset="0.16470588235294117" stop-color="#b41010"/>
      <stop offset="0.5294117647058824" stop-color="#e23612"/>
      <stop offset="0.807843137254902" stop-color="#fd5037"/>
      <stop offset="1.0" stop-color="#fd5037" stop-opacity="0.0"/>
    </radialGradient>
    <radialGradient cx="0" cy="0" gradientTransform="matrix(0.0056, 0.0, 0.0, 0.0056, -3.15, -5.15)" gradientUnits="userSpaceOnUse" id="gradient1" r="819.2" spreadMethod="pad">
      <stop offset="0.0" stop-color="#4e0707"/>
      <stop offset="0.16470588235294117" stop-color="#b41010"/>
      <stop offset="0.5294117647058824" stop-color="#e23612"/>
      <stop offset="0.807843137254902" stop-color="#fd5037"/>
      <stop offset="1.0" stop-color="#fd5037" stop-opacity="0.0"/>
    </radialGradient>
    <radialGradient cx="0" cy="0" gradientTransform="matrix(0.0074, 0.0, 0.0, 0.0074, 0.2, -3.75)" gradientUnits="userSpaceOnUse" id="gradient2" r="819.2" spreadMethod="pad">
      <stop offset="0.0" stop-color="#4e0707"/>
      <stop offset="0.16470588235294117" stop-color="#b41010"/>
      <stop offset="0.5294117647058824" stop-color="#e23612"/>
      <stop offset="0.807843137254902" stop-color="#fd5037"/>
      <stop offset="1.0" stop-color="#fd5037" stop-opacity="0.0"/>
    </radialGradient>
    <radialGradient cx="0" cy="0" gradientTransform="matrix(0.0079, 0.0, 0.0, 0.0079, 0.4, -14.1)" gradientUnits="userSpaceOnUse" id="gradient3" r="819.2" spreadMethod="pad">
      <stop offset="0.0" stop-color="#4e0707"/>
      <stop offset="0.16470588235294117" stop-color="#b41010"/>
      <stop offset="0.5294117647058824" stop-color="#e23612"/>
      <stop offset="0.807843137254902" stop-color="#fd5037"/>
      <stop offset="1.0" stop-color="#fd5037" stop-opacity="0.0"/>
    </radialGradient>
    <radialGradient cx="0" cy="0" gradientTransform="matrix(0.0151, 0.0, 0.0, 0.0151, 0.85, -6.9)" gradientUnits="userSpaceOnUse" id="gradient4" r="819.2" spreadMethod="pad">
      <stop offset="0.0" stop-color="#4e0707"/>
      <stop offset="0.16470588235294117" stop-color="#b41010"/>
      <stop offset="0.5294117647058824" stop-color="#e23612"/>
      <stop offset="0.807843137254902" stop-color="#fd5037"/>
      <stop offset="1.0" stop-color="#fd5037" stop-opacity="0.0"/>
    </radialGradient>
    <radialGradient cx="0" cy="0" gradientTransform="matrix(0.0049, 0.0, 0.0, 0.0049, -5.9, -5.7)" gradientUnits="userSpaceOnUse" id="gradient5" r="819.2" spreadMethod="pad">
      <stop offset="0.0" stop-color="#4e0707"/>
      <stop offset="0.16470588235294117" stop-color="#b41010"/>
      <stop offset="0.5294117647058824" stop-color="#e23612"/>
      <stop offset="0.807843137254902" stop-color="#fd5037"/>
      <stop offset="1.0" stop-color="#fd5037" stop-opacity="0.0"/>
    </radialGradient>
    <radialGradient cx="0" cy="0" gradientTransform="matrix(0.0037, 0.0, 0.0, 0.0037, 6.95, -4.65)" gradientUnits="userSpaceOnUse" id="gradient6" r="819.2" spreadMethod="pad">
      <stop offset="0.0" stop-color="#4e0707"/>
      <stop offset="0.16470588235294117" stop-color="#b41010"/>
      <stop offset="0.5294117647058824" stop-color="#e23612"/>
      <stop offset="0.807843137254902" stop-color="#fd5037"/>
      <stop offset="1.0" stop-color="#fd5037" stop-opacity="0.0"/>
    </radialGradient>
    <radialGradient cx="0" cy="0" gradientTransform="matrix(0.0052, 0.0, 0.0, 0.0052, -0.3, 3.8)" gradientUnits="userSpaceOnUse" id="gradient7" r="819.2" spreadMethod="pad">
      <stop offset="0.0" stop-color="#4e0707"/>
      <stop offset="0.16470588235294117" stop-color="#b41010"/>
      <stop offset="0.5294117647058824" stop-color="#e23612"/>
      <stop offset="0.807843137254902" stop-color="#fd5037"/>
      <stop offset="1.0" stop-color="#fd5037" stop-opacity="0.0"/>
    </radialGradient>
    <radialGradient cx="0" cy="0" gradientTransform="matrix(0.0067, 0.0, 0.0, 0.0067, -1.15, -9.25)" gradientUnits="userSpaceOnUse" id="gradient8" r="819.2" spreadMethod="pad">
      <stop offset="0.0" stop-color="#4e0707"/>
      <stop offset="0.16470588235294117" stop-color="#b41010"/>
      <stop offset="0.5294117647058824" stop-color="#e23612"/>
      <stop offset="0.807843137254902" stop-color="#fd5037"/>
      <stop offset="1.0" stop-color="#fd5037" stop-opacity="0.0"/>
    </radialGradient>
    <radialGradient cx="0" cy="0" gradientTransform="matrix(0.005, 0.0, 0.0, 0.005, 2.25, -9.0)" gradientUnits="userSpaceOnUse" id="gradient9" r="819.2" spreadMethod="pad">
      <stop offset="0.0" stop-color="#4e0707"/>
      <stop offset="0.16470588235294117" stop-color="#b41010"/>
      <stop offset="0.5294117647058824" stop-color="#e23612"/>
      <stop offset="0.807843137254902" stop-color="#fd5037"/>
      <stop offset="1.0" stop-color="#fd5037" stop-opacity="0.0"/>
    </radialGradient>
    <radialGradient cx="0" cy="0" gradientTransform="matrix(0.0095, 0.0, 0.0, 0.0095, -0.25, -1.65)" gradientUnits="userSpaceOnUse" id="gradient10" r="819.2" spreadMethod="pad">
      <stop offset="0.0" stop-color="#4e0707"/>
      <stop offset="0.16470588235294117" stop-color="#b41010"/>
      <stop offset="0.5294117647058824" stop-color="#e23612"/>
      <stop offset="0.807843137254902" stop-color="#fd5037"/>
      <stop offset="1.0" stop-color="#fd5037" stop-opacity="0.0"/>
    </radialGradient>
    <radialGradient cx="0" cy="0" gradientTransform="matrix(0.0081, 0.0, 0.0, 0.0081, 1.35, -8.45)" gradientUnits="userSpaceOnUse" id="gradient11" r="819.2" spreadMethod="pad">
      <stop offset="0.0" stop-color="#4e0707"/>
      <stop offset="0.16470588235294117" stop-color="#b41010"/>
      <stop offset="0.5294117647058824" stop-color="#e23612"/>
      <stop offset="0.807843137254902" stop-color="#fd5037"/>
      <stop offset="1.0" stop-color="#fd5037" stop-opacity="0.0"/>
    </radialGradient>
    <radialGradient cx="0" cy="0" gradientTransform="matrix(0.0054, 0.0, 0.0, 0.0054, 1.05, -14.75)" gradientUnits="userSpaceOnUse" id="gradient12" r="819.2" spreadMethod="pad">
      <stop offset="0.0" stop-color="#4e0707"/>
      <stop offset="0.16470588235294117" stop-color="#b41010"/>
      <stop offset="0.5294117647058824" stop-color="#e23612"/>
      <stop offset="0.807843137254902" stop-color="#fd5037"/>
      <stop offset="1.0" stop-color="#fd5037" stop-opacity="0.0"/>
    </radialGradient>
    <radialGradient cx="0" cy="0" gradientTransform="matrix(0.0043, 0.0, 0.0, 0.0043, 4.55, -11.55)" gradientUnits="userSpaceOnUse" id="gradient13" r="819.2" spreadMethod="pad">
      <stop offset="0.0" stop-color="#4e0707"/>
      <stop offset="0.16470588235294117" stop-color="#b41010"/>
      <stop offset="0.5294117647058824" stop-color="#e23612"/>
      <stop offset="0.807843137254902" stop-color="#fd5037"/>
      <stop offset="1.0" stop-color="#fd5037" stop-opacity="0.0"/>
    </radialGradient>
  </defs>
</svg>
