<?xml version="1.0" encoding="UTF-8" standalone="no"?>
<svg xmlns:xlink="http://www.w3.org/1999/xlink" height="13.05px" width="8.6px" xmlns="http://www.w3.org/2000/svg">
  <g transform="matrix(1.0, 0.0, 0.0, 1.0, 4.25, 9.55)">
    <path d="M3.5 -0.95 Q3.65 -0.1 4.3 0.65 L3.6 1.35 4.0 1.85 Q3.55 2.15 3.25 2.6 3.7 1.3 3.25 -0.2 L3.5 -0.9 3.5 -0.95 M-2.35 2.15 L-2.35 1.85 -2.25 1.25 -2.05 0.6 -1.8 1.25 -1.9 1.85 -2.35 2.15 M-2.0 -1.85 L-2.1 -2.25 -1.95 -2.05 -2.0 -1.85" fill="url(#gradient0)" fill-rule="evenodd" stroke="none"/>
    <path d="M-2.1 -2.25 L-2.25 -2.6 -1.85 -2.2 -1.95 -2.05 -2.1 -2.25 M3.5 -0.9 L3.25 -0.2 3.15 -0.55 3.5 -0.9" fill="url(#gradient1)" fill-rule="evenodd" stroke="none"/>
    <path d="M-2.05 0.6 L-1.95 -0.25 -2.0 -1.85 -1.95 -2.05 -1.85 -2.2 -0.75 -0.85 -1.45 0.25 -1.8 1.25 -2.05 0.6" fill="url(#gradient2)" fill-rule="evenodd" stroke="none"/>
    <path d="M-1.9 2.65 L-2.35 2.35 -2.35 2.15 -1.9 1.85 -1.9 2.0 -1.9 2.65" fill="url(#gradient3)" fill-rule="evenodd" stroke="none"/>
    <path d="M-1.2 -5.85 L-0.55 -5.65 -0.8 -5.5 -1.15 -5.8 -1.2 -5.85" fill="url(#gradient4)" fill-rule="evenodd" stroke="none"/>
    <path d="M0.2 -8.65 L0.25 -8.8 0.5 -9.4 Q0.6 -8.9 1.0 -8.5 0.4 -8.35 0.2 -8.65" fill="url(#gradient5)" fill-rule="evenodd" stroke="none"/>
    <path d="M-2.85 -7.55 L-2.35 -6.45 -1.65 -5.95 -1.2 -5.85 -1.15 -5.8 -0.8 -5.5 -0.55 -5.65 0.75 -4.7 Q-0.3 -4.05 0.0 -2.9 0.15 -2.4 0.6 -2.25 2.3 -1.7 3.6 -2.55 3.35 -1.75 3.5 -0.95 L3.5 -0.9 3.15 -0.55 3.25 -0.2 Q3.7 1.3 3.25 2.6 L2.9 3.1 2.4 3.45 Q0.05 3.7 -1.9 2.65 L-1.9 2.0 -1.9 1.85 -1.8 1.25 -1.45 0.25 -0.75 -0.85 -1.85 -2.2 -2.25 -2.6 Q-2.8 -3.95 -4.2 -4.95 L-4.25 -6.1 -4.1 -6.45 -2.85 -7.55" fill="url(#gradient6)" fill-rule="evenodd" stroke="none"/>
    <path d="M0.2 -8.65 Q0.4 -8.35 1.0 -8.5 0.6 -8.9 0.5 -9.4 L0.25 -8.8 0.2 -8.65 M-2.85 -7.55 L-1.35 -9.55 1.5 -9.5 1.75 -9.4 3.7 -7.05 Q4.6 -5.9 4.25 -4.3 L3.9 -3.4 3.6 -2.55 Q2.3 -1.7 0.6 -2.25 0.15 -2.4 0.0 -2.9 -0.3 -4.05 0.75 -4.7 L-0.55 -5.65 -1.2 -5.85 -1.65 -5.95 -2.35 -6.45 -2.85 -7.55" fill="url(#gradient7)" fill-rule="evenodd" stroke="none"/>
  </g>
  <defs>
    <radialGradient cx="0" cy="0" gradientTransform="matrix(0.0228, 0.0, 0.0, 0.0228, -0.1, -0.85)" gradientUnits="userSpaceOnUse" id="gradient0" r="819.2" spreadMethod="pad">
      <stop offset="0.0" stop-color="#4e0707"/>
      <stop offset="0.16470588235294117" stop-color="#b41010"/>
      <stop offset="0.5294117647058824" stop-color="#e23612"/>
      <stop offset="0.807843137254902" stop-color="#fd5037"/>
      <stop offset="1.0" stop-color="#fd5037" stop-opacity="0.0"/>
    </radialGradient>
    <radialGradient cx="0" cy="0" gradientTransform="matrix(0.0074, 0.0, 0.0, 0.0074, 0.2, -3.75)" gradientUnits="userSpaceOnUse" id="gradient1" r="819.2" spreadMethod="pad">
      <stop offset="0.0" stop-color="#4e0707"/>
      <stop offset="0.16470588235294117" stop-color="#b41010"/>
      <stop offset="0.5294117647058824" stop-color="#e23612"/>
      <stop offset="0.807843137254902" stop-color="#fd5037"/>
      <stop offset="1.0" stop-color="#fd5037" stop-opacity="0.0"/>
    </radialGradient>
    <radialGradient cx="0" cy="0" gradientTransform="matrix(0.0151, 0.0, 0.0, 0.0151, 0.85, -6.9)" gradientUnits="userSpaceOnUse" id="gradient2" r="819.2" spreadMethod="pad">
      <stop offset="0.0" stop-color="#4e0707"/>
      <stop offset="0.16470588235294117" stop-color="#b41010"/>
      <stop offset="0.5294117647058824" stop-color="#e23612"/>
      <stop offset="0.807843137254902" stop-color="#fd5037"/>
      <stop offset="1.0" stop-color="#fd5037" stop-opacity="0.0"/>
    </radialGradient>
    <radialGradient cx="0" cy="0" gradientTransform="matrix(0.0052, 0.0, 0.0, 0.0052, -0.3, 3.8)" gradientUnits="userSpaceOnUse" id="gradient3" r="819.2" spreadMethod="pad">
      <stop offset="0.0" stop-color="#4e0707"/>
      <stop offset="0.16470588235294117" stop-color="#b41010"/>
      <stop offset="0.5294117647058824" stop-color="#e23612"/>
      <stop offset="0.807843137254902" stop-color="#fd5037"/>
      <stop offset="1.0" stop-color="#fd5037" stop-opacity="0.0"/>
    </radialGradient>
    <radialGradient cx="0" cy="0" gradientTransform="matrix(0.0067, 0.0, 0.0, 0.0067, -1.15, -9.25)" gradientUnits="userSpaceOnUse" id="gradient4" r="819.2" spreadMethod="pad">
      <stop offset="0.0" stop-color="#4e0707"/>
      <stop offset="0.16470588235294117" stop-color="#b41010"/>
      <stop offset="0.5294117647058824" stop-color="#e23612"/>
      <stop offset="0.807843137254902" stop-color="#fd5037"/>
      <stop offset="1.0" stop-color="#fd5037" stop-opacity="0.0"/>
    </radialGradient>
    <radialGradient cx="0" cy="0" gradientTransform="matrix(0.005, 0.0, 0.0, 0.005, 2.25, -9.0)" gradientUnits="userSpaceOnUse" id="gradient5" r="819.2" spreadMethod="pad">
      <stop offset="0.0" stop-color="#4e0707"/>
      <stop offset="0.16470588235294117" stop-color="#b41010"/>
      <stop offset="0.5294117647058824" stop-color="#e23612"/>
      <stop offset="0.807843137254902" stop-color="#fd5037"/>
      <stop offset="1.0" stop-color="#fd5037" stop-opacity="0.0"/>
    </radialGradient>
    <radialGradient cx="0" cy="0" gradientTransform="matrix(0.0095, 0.0, 0.0, 0.0095, -0.25, -1.65)" gradientUnits="userSpaceOnUse" id="gradient6" r="819.2" spreadMethod="pad">
      <stop offset="0.0" stop-color="#4e0707"/>
      <stop offset="0.16470588235294117" stop-color="#b41010"/>
      <stop offset="0.5294117647058824" stop-color="#e23612"/>
      <stop offset="0.807843137254902" stop-color="#fd5037"/>
      <stop offset="1.0" stop-color="#fd5037" stop-opacity="0.0"/>
    </radialGradient>
    <radialGradient cx="0" cy="0" gradientTransform="matrix(0.0081, 0.0, 0.0, 0.0081, 1.35, -8.45)" gradientUnits="userSpaceOnUse" id="gradient7" r="819.2" spreadMethod="pad">
      <stop offset="0.0" stop-color="#4e0707"/>
      <stop offset="0.16470588235294117" stop-color="#b41010"/>
      <stop offset="0.5294117647058824" stop-color="#e23612"/>
      <stop offset="0.807843137254902" stop-color="#fd5037"/>
      <stop offset="1.0" stop-color="#fd5037" stop-opacity="0.0"/>
    </radialGradient>
  </defs>
</svg>
