<?xml version="1.0" encoding="UTF-8" standalone="no"?>
<svg xmlns:xlink="http://www.w3.org/1999/xlink" height="5.35px" width="2.75px" xmlns="http://www.w3.org/2000/svg">
  <g transform="matrix(1.0, 0.0, 0.0, 1.0, -7.1, 8.85)">
    <path d="M7.35 -4.75 Q7.65 -5.6 7.55 -6.6 8.3 -6.35 8.25 -5.25 8.65 -6.65 8.55 -8.6 9.7 -6.95 8.95 -4.95 L9.55 -5.65 Q9.85 -4.15 8.05 -3.75 7.55 -4.15 7.35 -4.75" fill="#8c6931" fill-rule="evenodd" stroke="none"/>
    <path d="M7.35 -4.75 Q7.65 -5.6 7.55 -6.6 8.3 -6.35 8.25 -5.25 8.65 -6.65 8.55 -8.6 9.7 -6.95 8.95 -4.95 L9.55 -5.65 Q9.85 -4.15 8.05 -3.75" fill="none" stroke="#000000" stroke-linecap="round" stroke-linejoin="round" stroke-width="0.5"/>
  </g>
</svg>
