<?xml version="1.0" encoding="UTF-8" standalone="no"?>
<svg xmlns:xlink="http://www.w3.org/1999/xlink" height="6.0px" width="3.05px" xmlns="http://www.w3.org/2000/svg">
  <g transform="matrix(1.0, 0.0, 0.0, 1.0, -6.8, 9.2)">
    <path d="M7.85 -3.45 Q7.3 -3.95 7.05 -4.55 7.35 -5.55 7.3 -6.75 8.1 -6.4 8.05 -5.15 8.5 -6.75 8.4 -8.95 9.7 -7.1 8.85 -4.85 L9.55 -5.6 Q9.9 -3.9 7.85 -3.45" fill="#8c6931" fill-rule="evenodd" stroke="none"/>
    <path d="M7.05 -4.55 Q7.35 -5.55 7.3 -6.75 8.1 -6.4 8.05 -5.15 8.5 -6.75 8.4 -8.95 9.7 -7.1 8.85 -4.85 L9.55 -5.6 Q9.9 -3.9 7.85 -3.45" fill="none" stroke="#000000" stroke-linecap="round" stroke-linejoin="round" stroke-width="0.5"/>
  </g>
</svg>
