<?xml version="1.0" encoding="UTF-8" standalone="no"?>
<svg xmlns:xlink="http://www.w3.org/1999/xlink" height="6.0px" width="3.05px" xmlns="http://www.w3.org/2000/svg">
  <g transform="matrix(1.0, 0.0, 0.0, 1.0, 5.75, 12.15)">
    <path d="M-3.75 -6.4 Q-3.2 -6.9 -2.95 -7.5 -3.25 -8.5 -3.2 -9.7 -4.0 -9.35 -3.95 -8.1 -4.4 -9.7 -4.3 -11.9 -5.6 -10.05 -4.75 -7.8 L-5.45 -8.55 Q-5.8 -6.85 -3.75 -6.4" fill="#8c6931" fill-rule="evenodd" stroke="none"/>
    <path d="M-2.95 -7.5 Q-3.25 -8.5 -3.2 -9.7 -4.0 -9.35 -3.95 -8.1 -4.4 -9.7 -4.3 -11.9 -5.6 -10.05 -4.75 -7.8 L-5.45 -8.55 Q-5.8 -6.85 -3.75 -6.4" fill="none" stroke="#000000" stroke-linecap="round" stroke-linejoin="round" stroke-width="0.5"/>
  </g>
</svg>
