<?xml version="1.0" encoding="UTF-8" standalone="no"?>
<svg xmlns:xlink="http://www.w3.org/1999/xlink" height="4.75px" width="4.45px" xmlns="http://www.w3.org/2000/svg">
  <g transform="matrix(1.0, 0.0, 0.0, 1.0, 13.95, 3.6)">
    <path d="M-9.75 0.55 Q-11.6 1.5 -12.45 -0.05 L-11.4 0.1 Q-13.55 -1.05 -13.7 -3.35 -12.4 -1.55 -11.05 -0.7 -11.9 -1.55 -11.45 -2.35 -10.75 -1.4 -9.85 -0.9 -9.65 -0.2 -9.75 0.55" fill="#8c6931" fill-rule="evenodd" stroke="none"/>
    <path d="M-9.85 -0.9 Q-10.75 -1.4 -11.45 -2.35 -11.9 -1.55 -11.05 -0.7 -12.4 -1.55 -13.7 -3.35 -13.55 -1.05 -11.4 0.1 L-12.45 -0.05 Q-11.6 1.5 -9.75 0.55" fill="none" stroke="#000000" stroke-linecap="round" stroke-linejoin="round" stroke-width="0.5"/>
  </g>
</svg>
