<?xml version="1.0" encoding="UTF-8" standalone="no"?>
<svg xmlns:xlink="http://www.w3.org/1999/xlink" height="7.4px" width="3.7px" xmlns="http://www.w3.org/2000/svg">
  <g transform="matrix(1.0, 0.0, 0.0, 1.0, -6.85, 10.45)">
    <path d="M7.1 -4.7 Q7.5 -5.95 7.4 -7.4 8.45 -7.0 8.35 -5.45 8.95 -7.45 8.8 -10.2 10.45 -7.85 9.35 -5.05 10.0 -5.45 10.25 -6.0 10.65 -3.85 8.1 -3.3 7.4 -3.9 7.1 -4.7" fill="#8c6931" fill-rule="evenodd" stroke="none"/>
    <path d="M7.1 -4.7 Q7.5 -5.95 7.4 -7.4 8.45 -7.0 8.35 -5.45 8.95 -7.45 8.8 -10.2 10.45 -7.85 9.35 -5.05 10.0 -5.45 10.25 -6.0 10.65 -3.85 8.1 -3.3" fill="none" stroke="#000000" stroke-linecap="round" stroke-linejoin="round" stroke-width="0.5"/>
  </g>
</svg>
