<?xml version="1.0" encoding="UTF-8" standalone="no"?>
<svg xmlns:xlink="http://www.w3.org/1999/xlink" height="5.8px" width="5.5px" xmlns="http://www.w3.org/2000/svg">
  <g transform="matrix(1.0, 0.0, 0.0, 1.0, 14.45, 4.15)">
    <path d="M-9.2 0.9 Q-11.5 2.15 -12.6 0.25 L-11.3 0.4 Q-13.95 -1.05 -14.2 -3.9 -12.55 -1.7 -10.8 -0.6 -11.9 -1.7 -11.3 -2.65 -10.45 -1.5 -9.3 -0.85 -9.05 0.0 -9.2 0.9" fill="#8c6931" fill-rule="evenodd" stroke="none"/>
    <path d="M-9.3 -0.85 Q-10.45 -1.5 -11.3 -2.65 -11.9 -1.7 -10.8 -0.6 -12.55 -1.7 -14.2 -3.9 -13.95 -1.05 -11.3 0.4 L-12.6 0.25 Q-11.5 2.15 -9.2 0.9" fill="none" stroke="#000000" stroke-linecap="round" stroke-linejoin="round" stroke-width="0.5"/>
  </g>
</svg>
