<?xml version="1.0" encoding="UTF-8" standalone="no"?>
<svg xmlns:xlink="http://www.w3.org/1999/xlink" height="12.75px" width="26.1px" xmlns="http://www.w3.org/2000/svg">
  <g transform="matrix(1.0, 0.0, 0.0, 1.0, 12.9, 22.4)">
    <path d="M-3.75 -21.3 L-3.15 -21.5 -2.8 -21.6 -1.2 -21.8 0.05 -21.6 1.5 -21.85 3.15 -21.65 3.75 -21.5 3.95 -21.4 6.4 -20.25 Q9.1 -18.6 10.8 -16.3 12.5 -14.0 12.15 -12.35 11.75 -10.75 9.65 -10.75 7.45 -10.75 4.75 -12.35 2.0 -14.0 0.3 -16.3 L0.2 -16.45 0.0 -16.2 Q-1.7 -13.9 -4.4 -12.3 -7.15 -10.65 -9.3 -10.65 -11.45 -10.65 -11.8 -12.3 -12.2 -13.9 -10.5 -16.2 -8.8 -18.55 -6.05 -20.15 L-3.75 -21.3" fill="url(#gradient0)" fill-rule="evenodd" stroke="none"/>
    <path d="M3.95 -21.4 L6.4 -20.25 Q9.1 -18.6 10.8 -16.3 12.5 -14.0 12.15 -12.35 11.75 -10.75 9.65 -10.75 7.45 -10.75 4.75 -12.35 2.0 -14.0 0.3 -16.3 L0.2 -16.45 0.0 -16.2 Q-1.7 -13.9 -4.4 -12.3 -7.15 -10.65 -9.3 -10.65 -11.45 -10.65 -11.8 -12.3 -12.2 -13.9 -10.5 -16.2 -8.8 -18.55 -6.05 -20.15 L-3.75 -21.3" fill="none" stroke="#000000" stroke-linecap="round" stroke-linejoin="round" stroke-width="2.0"/>
  </g>
  <defs>
    <radialGradient cx="0" cy="0" gradientTransform="matrix(0.0363, 0.0, 0.0, 0.0136, -6.8, -18.45)" gradientUnits="userSpaceOnUse" id="gradient0" r="819.2" spreadMethod="pad">
      <stop offset="0.0" stop-color="#0066ff"/>
      <stop offset="1.0" stop-color="#ffffff"/>
    </radialGradient>
  </defs>
</svg>
