<?xml version="1.0" encoding="UTF-8" standalone="no"?>
<svg xmlns:xlink="http://www.w3.org/1999/xlink" height="12.75px" width="19.75px" xmlns="http://www.w3.org/2000/svg">
  <g transform="matrix(1.0, 0.0, 0.0, 1.0, 9.8, 1.85)">
    <path d="M-5.35 10.65 L-5.35 9.05 -6.45 10.5 Q-6.8 8.9 -6.2 7.1 -7.3 8.35 -8.0 9.7 L-7.95 8.35 Q-7.75 5.9 -6.95 4.3 -9.1 5.65 -9.55 7.85 -9.55 6.6 -9.15 5.35 -8.55 3.3 -7.35 1.55 -6.25 -0.2 -4.8 -1.35 -4.35 -0.8 -4.35 -0.15 L-4.3 2.8 -4.5 5.95 -4.75 8.25 Q-4.85 9.55 -5.35 10.65" fill="url(#gradient0)" fill-rule="evenodd" stroke="none"/>
    <path d="M-4.8 -1.35 Q-6.25 -0.2 -7.35 1.55 -8.55 3.3 -9.15 5.35 -9.55 6.6 -9.55 7.85 -9.1 5.65 -6.95 4.3 -7.75 5.9 -7.95 8.35 L-8.0 9.7 Q-7.3 8.35 -6.2 7.1 -6.8 8.9 -6.45 10.5 L-5.35 9.05 -5.35 10.65" fill="none" stroke="#000000" stroke-linecap="round" stroke-linejoin="round" stroke-width="0.5"/>
    <path d="M4.95 -1.6 Q4.5 -1.05 4.5 -0.4 L4.45 2.55 4.65 5.7 4.9 8.0 Q5.0 9.3 5.5 10.4 L5.5 8.8 6.6 10.25 Q6.95 8.65 6.35 6.85 L8.1 9.45 8.1 8.1 Q7.9 5.65 7.1 4.05 9.25 5.4 9.7 7.6 9.7 6.35 9.3 5.1 8.7 3.05 7.5 1.3 6.4 -0.45 4.95 -1.6" fill="url(#gradient1)" fill-rule="evenodd" stroke="none"/>
    <path d="M4.95 -1.6 Q6.4 -0.45 7.5 1.3 8.7 3.05 9.3 5.1 9.7 6.35 9.7 7.6 9.25 5.4 7.1 4.05 7.9 5.65 8.1 8.1 L8.1 9.45 6.35 6.85 Q6.95 8.65 6.6 10.25 L5.5 8.8 5.5 10.4" fill="none" stroke="#000000" stroke-linecap="round" stroke-linejoin="round" stroke-width="0.5"/>
  </g>
  <defs>
    <radialGradient cx="0" cy="0" gradientTransform="matrix(0.0102, -0.0037, 0.0, 0.0109, -5.65, 1.85)" gradientUnits="userSpaceOnUse" id="gradient0" r="819.2" spreadMethod="pad">
      <stop offset="0.3215686274509804" stop-color="#8c6b37"/>
      <stop offset="1.0" stop-color="#3c301a"/>
    </radialGradient>
    <radialGradient cx="0" cy="0" gradientTransform="matrix(-0.0102, -0.0037, 0.0, 0.0109, 5.8, 1.6)" gradientUnits="userSpaceOnUse" id="gradient1" r="819.2" spreadMethod="pad">
      <stop offset="0.3215686274509804" stop-color="#8c6b37"/>
      <stop offset="1.0" stop-color="#3c301a"/>
    </radialGradient>
  </defs>
</svg>
