<?xml version="1.0" encoding="UTF-8" standalone="no"?>
<svg xmlns:xlink="http://www.w3.org/1999/xlink" height="17.5px" width="17.5px" xmlns="http://www.w3.org/2000/svg">
  <g transform="matrix(1.0, 0.0, 0.0, 1.0, 5.15, 21.75)">
    <path d="M9.05 -18.5 L9.4 -18.1 Q11.35 -15.95 11.35 -13.0 11.35 -9.8 9.05 -7.55 L8.7 -7.2 Q6.55 -5.25 3.6 -5.25 0.6 -5.25 -1.6 -7.3 L-1.9 -7.55 Q-4.15 -9.8 -4.15 -13.0 -4.15 -15.85 -2.3 -18.0 L-1.9 -18.5 Q0.4 -20.75 3.6 -20.75 6.8 -20.75 9.05 -18.5" fill="url(#gradient0)" fill-rule="evenodd" stroke="none"/>
    <path d="M9.05 -18.5 L9.4 -18.1 Q11.35 -15.95 11.35 -13.0 11.35 -9.8 9.05 -7.55 L8.7 -7.2 Q6.55 -5.25 3.6 -5.25 0.6 -5.25 -1.6 -7.3 L-1.9 -7.55 Q-4.15 -9.8 -4.15 -13.0 -4.15 -15.85 -2.3 -18.0 L-1.9 -18.5 Q0.4 -20.75 3.6 -20.75 6.8 -20.75 9.05 -18.5 Z" fill="none" stroke="#000000" stroke-linecap="round" stroke-linejoin="round" stroke-width="2.0"/>
  </g>
  <defs>
    <linearGradient gradientTransform="matrix(0.0095, 0.0, 0.0, 0.0095, 3.6, -13.0)" gradientUnits="userSpaceOnUse" id="gradient0" spreadMethod="pad" x1="-819.2" x2="819.2">
      <stop offset="0.0" stop-color="#ffcc99"/>
      <stop offset="0.6901960784313725" stop-color="#ffe6cf"/>
      <stop offset="0.7411764705882353" stop-color="#ffe6cf"/>
      <stop offset="0.792156862745098" stop-color="#ffe6cf"/>
      <stop offset="0.8352941176470589" stop-color="#ffe7d0"/>
      <stop offset="1.0" stop-color="#ffffff"/>
    </linearGradient>
  </defs>
</svg>
