<?xml version="1.0" encoding="UTF-8" standalone="no"?>
<svg xmlns:xlink="http://www.w3.org/1999/xlink" height="12.5px" width="5.5px" xmlns="http://www.w3.org/2000/svg">
  <g transform="matrix(1.0, 0.0, 0.0, 1.0, -4.45, 1.85)">
    <path d="M4.95 -1.6 Q4.5 -1.05 4.5 -0.4 L4.45 2.55 4.65 5.7 4.9 8.0 Q5.0 9.3 5.5 10.4 L5.5 8.8 6.6 10.25 Q6.95 8.65 6.35 6.85 L8.1 9.45 8.1 8.1 Q7.9 5.65 7.1 4.05 9.25 5.4 9.7 7.6 9.7 6.35 9.3 5.1 8.7 3.05 7.5 1.3 6.4 -0.45 4.95 -1.6" fill="url(#gradient0)" fill-rule="evenodd" stroke="none"/>
    <path d="M4.95 -1.6 Q6.4 -0.45 7.5 1.3 8.7 3.05 9.3 5.1 9.7 6.35 9.7 7.6 9.25 5.4 7.1 4.05 7.9 5.65 8.1 8.1 L8.1 9.45 6.35 6.85 Q6.95 8.65 6.6 10.25 L5.5 8.8 5.5 10.4" fill="none" stroke="#000000" stroke-linecap="round" stroke-linejoin="round" stroke-width="0.5"/>
  </g>
  <defs>
    <radialGradient cx="0" cy="0" gradientTransform="matrix(-0.0102, -0.0037, 0.0, 0.0109, 5.8, 1.6)" gradientUnits="userSpaceOnUse" id="gradient0" r="819.2" spreadMethod="pad">
      <stop offset="0.3215686274509804" stop-color="#8c6b37"/>
      <stop offset="1.0" stop-color="#3c301a"/>
    </radialGradient>
  </defs>
</svg>
