<?xml version="1.0" encoding="UTF-8" standalone="no"?>
<svg xmlns:xlink="http://www.w3.org/1999/xlink" height="25.9px" width="26.1px" xmlns="http://www.w3.org/2000/svg">
  <g transform="matrix(1.0, 0.0, 0.0, 1.0, 15.6, 17.65)">
    <path d="M-2.1 -16.65 L-1.4 -16.9 -1.0 -17.0 Q-0.1 -17.2 0.65 -17.0 L1.75 -16.35 3.3 -16.45 Q4.05 -16.25 4.8 -15.65 L5.25 -15.15 5.4 -14.95 Q6.3 -13.9 7.2 -12.05 8.95 -8.2 9.4 -3.25 9.8 1.65 8.7 4.65 7.45 7.7 5.4 7.15 3.3 6.6 1.55 2.75 -0.3 -1.1 -0.75 -5.95 L-0.75 -6.35 -1.1 -5.9 Q-3.9 -1.9 -7.35 0.5 -10.85 2.95 -12.95 2.4 -15.0 1.85 -14.5 -1.4 -14.05 -4.6 -11.25 -8.6 -8.4 -12.7 -4.9 -15.1 -3.35 -16.2 -2.1 -16.65" fill="url(#gradient0)" fill-rule="evenodd" stroke="none"/>
    <path d="M5.4 -14.95 Q6.3 -13.9 7.2 -12.05 8.95 -8.2 9.4 -3.25 9.8 1.65 8.7 4.65 7.45 7.7 5.4 7.15 3.3 6.6 1.55 2.75 -0.3 -1.1 -0.75 -5.95 L-0.75 -6.35 -1.1 -5.9 Q-3.9 -1.9 -7.35 0.5 -10.85 2.95 -12.95 2.4 -15.0 1.85 -14.5 -1.4 -14.05 -4.6 -11.25 -8.6 -8.4 -12.7 -4.9 -15.1 -3.35 -16.2 -2.1 -16.65" fill="none" stroke="#000000" stroke-linecap="round" stroke-linejoin="round" stroke-width="2.0"/>
  </g>
  <defs>
    <radialGradient cx="0" cy="0" gradientTransform="matrix(0.035, 0.0094, -0.007, 0.0262, -6.5, -12.0)" gradientUnits="userSpaceOnUse" id="gradient0" r="819.2" spreadMethod="pad">
      <stop offset="0.0" stop-color="#0066ff"/>
      <stop offset="1.0" stop-color="#ffffff"/>
    </radialGradient>
  </defs>
</svg>
