<?xml version="1.0" encoding="UTF-8" standalone="no"?>
<svg xmlns:xlink="http://www.w3.org/1999/xlink" height="15.85px" width="33.1px" xmlns="http://www.w3.org/2000/svg">
  <g transform="matrix(1.0, 0.0, 0.0, 1.0, 14.45, 22.3)">
    <path d="M14.05 -15.4 Q18.15 -12.6 17.55 -10.25 16.9 -7.95 11.95 -7.55 7.0 -7.1 0.6 -8.8 -5.85 -10.55 -9.95 -13.4 -14.0 -16.2 -13.35 -18.5 -12.75 -20.85 -7.85 -21.25 -2.9 -21.65 3.55 -19.9 9.95 -18.2 14.05 -15.4" fill="url(#gradient0)" fill-rule="evenodd" stroke="none"/>
    <path d="M14.05 -15.4 Q18.15 -12.6 17.55 -10.25 16.9 -7.95 11.95 -7.55 7.0 -7.1 0.6 -8.8 -5.85 -10.55 -9.95 -13.4 -14.0 -16.2 -13.35 -18.5 -12.75 -20.85 -7.85 -21.25 -2.9 -21.65 3.55 -19.9 9.95 -18.2 14.05 -15.4 Z" fill="none" stroke="#000000" stroke-linecap="round" stroke-linejoin="round" stroke-width="2.0"/>
  </g>
  <defs>
    <radialGradient cx="0" cy="0" gradientTransform="matrix(0.0248, 0.0067, -0.0051, 0.0189, -4.1, -16.55)" gradientUnits="userSpaceOnUse" id="gradient0" r="819.2" spreadMethod="pad">
      <stop offset="0.3843137254901961" stop-color="#0066ff"/>
      <stop offset="1.0" stop-color="#ffffff"/>
    </radialGradient>
  </defs>
</svg>
