<?xml version="1.0" encoding="UTF-8" standalone="no"?>
<svg xmlns:xlink="http://www.w3.org/1999/xlink" height="6.7px" width="17.1px" xmlns="http://www.w3.org/2000/svg">
  <g transform="matrix(1.0, 0.0, 0.0, 1.0, 8.5, 2.8)">
    <path d="M-6.15 3.45 L-6.15 2.65 -6.7 3.4 Q-6.9 2.65 -6.55 1.7 L-7.45 3.0 -7.45 2.35 Q-7.35 1.1 -6.95 0.3 -8.05 1.0 -8.25 2.1 L-8.05 0.8 -7.15 -1.05 -5.85 -2.55 -5.65 -1.9 -5.65 -0.4 -5.7 1.1 -5.85 2.3 -6.15 3.45" fill="url(#gradient0)" fill-rule="evenodd" stroke="none"/>
    <path d="M-5.85 -2.55 L-7.15 -1.05 -8.05 0.8 -8.25 2.1 Q-8.05 1.0 -6.95 0.3 -7.35 1.1 -7.45 2.35 L-7.45 3.0 -6.55 1.7 Q-6.9 2.65 -6.7 3.4 L-6.15 2.65 -6.15 3.45" fill="none" stroke="#000000" stroke-linecap="round" stroke-linejoin="round" stroke-width="0.5"/>
    <path d="M5.95 -2.35 L5.75 -1.7 5.75 -0.2 5.8 1.3 5.95 2.5 6.25 3.65 6.25 2.85 6.8 3.65 6.65 1.9 7.55 3.2 7.55 2.55 Q7.45 1.3 7.05 0.5 8.15 1.2 8.35 2.3 L8.15 1.0 Q7.85 0.0 7.25 -0.85 L5.95 -2.35" fill="url(#gradient1)" fill-rule="evenodd" stroke="none"/>
    <path d="M5.95 -2.35 L7.25 -0.85 Q7.85 0.0 8.15 1.0 L8.35 2.3 Q8.15 1.2 7.05 0.5 7.45 1.3 7.55 2.55 L7.55 3.2 6.65 1.9 6.8 3.65 6.25 2.85 6.25 3.65" fill="none" stroke="#000000" stroke-linecap="round" stroke-linejoin="round" stroke-width="0.5"/>
  </g>
  <defs>
    <radialGradient cx="0" cy="0" gradientTransform="matrix(0.0051, -0.0019, 0.0, 0.0054, -6.3, -0.95)" gradientUnits="userSpaceOnUse" id="gradient0" r="819.2" spreadMethod="pad">
      <stop offset="0.3215686274509804" stop-color="#8c6b37"/>
      <stop offset="1.0" stop-color="#3c301a"/>
    </radialGradient>
    <radialGradient cx="0" cy="0" gradientTransform="matrix(-0.0051, -0.0019, 0.0, 0.0054, 6.4, -0.75)" gradientUnits="userSpaceOnUse" id="gradient1" r="819.2" spreadMethod="pad">
      <stop offset="0.3215686274509804" stop-color="#8c6b37"/>
      <stop offset="1.0" stop-color="#3c301a"/>
    </radialGradient>
  </defs>
</svg>
