<?xml version="1.0" encoding="UTF-8" standalone="no"?>
<svg xmlns:xlink="http://www.w3.org/1999/xlink" height="17.5px" width="17.5px" xmlns="http://www.w3.org/2000/svg">
  <g transform="matrix(1.0, 0.0, 0.0, 1.0, 4.8, 30.3)">
    <path d="M9.4 -27.05 L9.75 -26.65 Q11.7 -24.5 11.7 -21.55 11.7 -18.35 9.4 -16.1 L9.05 -15.75 Q6.9 -13.8 3.95 -13.8 0.95 -13.8 -1.25 -15.85 L-1.55 -16.1 Q-3.8 -18.35 -3.8 -21.55 -3.8 -24.4 -1.95 -26.55 L-1.55 -27.05 Q0.75 -29.3 3.95 -29.3 7.15 -29.3 9.4 -27.05" fill="url(#gradient0)" fill-rule="evenodd" stroke="none"/>
    <path d="M9.4 -27.05 L9.75 -26.65 Q11.7 -24.5 11.7 -21.55 11.7 -18.35 9.4 -16.1 L9.05 -15.75 Q6.9 -13.8 3.95 -13.8 0.95 -13.8 -1.25 -15.85 L-1.55 -16.1 Q-3.8 -18.35 -3.8 -21.55 -3.8 -24.4 -1.95 -26.55 L-1.55 -27.05 Q0.75 -29.3 3.95 -29.3 7.15 -29.3 9.4 -27.05 Z" fill="none" stroke="#000000" stroke-linecap="round" stroke-linejoin="round" stroke-width="2.0"/>
  </g>
  <defs>
    <linearGradient gradientTransform="matrix(0.0095, 0.0, 0.0, 0.0095, 3.95, -21.55)" gradientUnits="userSpaceOnUse" id="gradient0" spreadMethod="pad" x1="-819.2" x2="819.2">
      <stop offset="0.0" stop-color="#ffcc99"/>
      <stop offset="0.6901960784313725" stop-color="#ffe6cf"/>
      <stop offset="0.7411764705882353" stop-color="#ffe6cf"/>
      <stop offset="0.792156862745098" stop-color="#ffe6cf"/>
      <stop offset="0.8352941176470589" stop-color="#ffe7d0"/>
      <stop offset="1.0" stop-color="#ffffff"/>
    </linearGradient>
  </defs>
</svg>
