<?xml version="1.0" encoding="UTF-8" standalone="no"?>
<svg xmlns:xlink="http://www.w3.org/1999/xlink" height="6.4px" width="3.0px" xmlns="http://www.w3.org/2000/svg">
  <g transform="matrix(1.0, 0.0, 0.0, 1.0, 8.0, -2.5)">
    <path d="M-5.55 8.65 L-5.55 7.85 -6.15 8.4 Q-6.3 7.55 -6.0 6.75 L-6.95 7.7 -6.9 7.05 Q-6.8 5.85 -6.4 5.2 -7.55 5.5 -7.75 6.5 L-7.55 5.3 Q-7.25 4.4 -6.6 3.75 -6.0 3.1 -5.25 2.75 L-5.0 3.45 -5.0 4.95 -5.1 6.45 -5.2 7.6 -5.55 8.65" fill="url(#gradient0)" fill-rule="evenodd" stroke="none"/>
    <path d="M-5.25 2.75 Q-6.0 3.1 -6.6 3.75 -7.25 4.4 -7.55 5.3 L-7.75 6.5 Q-7.55 5.5 -6.4 5.2 -6.8 5.85 -6.9 7.05 L-6.95 7.7 -6.0 6.75 Q-6.3 7.55 -6.15 8.4 L-5.55 7.85 -5.55 8.65" fill="none" stroke="#000000" stroke-linecap="round" stroke-linejoin="round" stroke-width="0.5"/>
  </g>
  <defs>
    <radialGradient cx="0" cy="0" gradientTransform="matrix(0.0054, 0.0, 0.0, 0.0054, -5.7, 4.2)" gradientUnits="userSpaceOnUse" id="gradient0" r="819.2" spreadMethod="pad">
      <stop offset="0.3215686274509804" stop-color="#8c6b37"/>
      <stop offset="1.0" stop-color="#3c301a"/>
    </radialGradient>
  </defs>
</svg>
