<?xml version="1.0" encoding="UTF-8" standalone="no"?>
<svg xmlns:xlink="http://www.w3.org/1999/xlink" height="6.4px" width="3.05px" xmlns="http://www.w3.org/2000/svg">
  <g transform="matrix(1.0, 0.0, 0.0, 1.0, -5.0, -2.45)">
    <path d="M5.25 2.7 L5.05 3.4 5.0 4.9 5.1 6.4 5.25 7.55 5.55 8.6 5.55 7.8 6.15 8.35 Q6.35 7.5 6.0 6.7 L6.95 7.65 6.95 7.0 Q6.85 5.8 6.4 5.15 7.55 5.45 7.8 6.45 L7.6 5.25 6.65 3.7 5.25 2.7" fill="url(#gradient0)" fill-rule="evenodd" stroke="none"/>
    <path d="M5.25 2.7 L6.65 3.7 7.6 5.25 7.8 6.45 Q7.55 5.45 6.4 5.15 6.85 5.8 6.95 7.0 L6.95 7.65 6.0 6.7 Q6.35 7.5 6.15 8.35 L5.55 7.8 5.55 8.6" fill="none" stroke="#000000" stroke-linecap="round" stroke-linejoin="round" stroke-width="0.5"/>
  </g>
  <defs>
    <radialGradient cx="0" cy="0" gradientTransform="matrix(-0.0054, 0.0, 0.0, 0.0054, 5.7, 4.15)" gradientUnits="userSpaceOnUse" id="gradient0" r="819.2" spreadMethod="pad">
      <stop offset="0.3215686274509804" stop-color="#8c6b37"/>
      <stop offset="1.0" stop-color="#3c301a"/>
    </radialGradient>
  </defs>
</svg>
