<?xml version="1.0" encoding="UTF-8" standalone="no"?>
<svg xmlns:xlink="http://www.w3.org/1999/xlink" height="9.95px" width="4.7px" xmlns="http://www.w3.org/2000/svg">
  <g transform="matrix(1.0, 0.0, 0.0, 1.0, 9.05, -0.75)">
    <path d="M-5.25 10.45 L-5.25 9.15 -6.2 10.0 Q-6.5 8.65 -5.95 7.35 L-7.5 8.9 -7.45 7.85 Q-7.3 5.95 -6.6 4.9 -8.45 5.35 -8.8 7.0 L-8.5 5.1 Q-7.95 3.65 -6.95 2.55 -6.0 1.5 -4.75 1.0 -4.4 1.55 -4.4 2.1 L-4.35 4.5 -4.55 6.9 -4.75 8.7 Q-4.85 9.7 -5.25 10.45" fill="url(#gradient0)" fill-rule="evenodd" stroke="none"/>
    <path d="M-4.75 1.0 Q-6.0 1.5 -6.95 2.55 -7.95 3.65 -8.5 5.1 L-8.8 7.0 Q-8.45 5.35 -6.6 4.9 -7.3 5.95 -7.45 7.85 L-7.5 8.9 -5.95 7.35 Q-6.5 8.65 -6.2 10.0 L-5.25 9.15 -5.25 10.45" fill="none" stroke="#000000" stroke-linecap="round" stroke-linejoin="round" stroke-width="0.5"/>
  </g>
  <defs>
    <radialGradient cx="0" cy="0" gradientTransform="matrix(0.0087, 0.0, 0.0, 0.0087, -5.5, 3.3)" gradientUnits="userSpaceOnUse" id="gradient0" r="819.2" spreadMethod="pad">
      <stop offset="0.3215686274509804" stop-color="#8c6b37"/>
      <stop offset="1.0" stop-color="#3c301a"/>
    </radialGradient>
  </defs>
</svg>
