<?xml version="1.0" encoding="UTF-8" standalone="no"?>
<svg xmlns:xlink="http://www.w3.org/1999/xlink" height="9.95px" width="4.7px" xmlns="http://www.w3.org/2000/svg">
  <g transform="matrix(1.0, 0.0, 0.0, 1.0, -4.55, -0.6)">
    <path d="M4.95 0.85 Q4.6 1.4 4.6 1.95 L4.55 4.35 4.75 6.75 4.95 8.55 Q5.05 9.55 5.45 10.3 L5.45 9.0 6.4 9.85 Q6.7 8.5 6.15 7.2 L7.7 8.75 7.65 7.7 Q7.5 5.8 6.8 4.75 8.65 5.2 9.0 6.85 L8.7 4.95 Q8.15 3.5 7.15 2.4 6.2 1.35 4.95 0.85" fill="url(#gradient0)" fill-rule="evenodd" stroke="none"/>
    <path d="M4.95 0.85 Q6.2 1.35 7.15 2.4 8.15 3.5 8.7 4.95 L9.0 6.85 Q8.65 5.2 6.8 4.75 7.5 5.8 7.65 7.7 L7.7 8.75 6.15 7.2 Q6.7 8.5 6.4 9.85 L5.45 9.0 5.45 10.3" fill="none" stroke="#000000" stroke-linecap="round" stroke-linejoin="round" stroke-width="0.5"/>
  </g>
  <defs>
    <radialGradient cx="0" cy="0" gradientTransform="matrix(-0.0087, 0.0, 0.0, 0.0087, 5.7, 3.15)" gradientUnits="userSpaceOnUse" id="gradient0" r="819.2" spreadMethod="pad">
      <stop offset="0.3215686274509804" stop-color="#8c6b37"/>
      <stop offset="1.0" stop-color="#3c301a"/>
    </radialGradient>
  </defs>
</svg>
