<?xml version="1.0" encoding="UTF-8" standalone="no"?>
<svg xmlns:xlink="http://www.w3.org/1999/xlink" height="12.3px" width="5.8px" xmlns="http://www.w3.org/2000/svg">
  <g transform="matrix(1.0, 0.0, 0.0, 1.0, 9.95, 1.35)">
    <path d="M-5.25 10.7 L-5.25 9.1 -6.45 10.15 Q-6.8 8.45 -6.15 6.85 -7.35 7.7 -8.05 8.8 L-8.0 7.45 Q-7.8 5.1 -6.95 3.8 -9.25 4.35 -9.7 6.4 -9.7 5.15 -9.3 4.0 -8.65 2.2 -7.4 0.85 -6.2 -0.45 -4.65 -1.1 -4.2 -0.4 -4.2 0.25 L-4.15 3.25 -4.35 6.3 -4.6 8.55 Q-4.75 9.8 -5.25 10.7" fill="url(#gradient0)" fill-rule="evenodd" stroke="none"/>
    <path d="M-4.65 -1.1 Q-6.2 -0.45 -7.4 0.85 -8.65 2.2 -9.3 4.0 -9.7 5.15 -9.7 6.4 -9.25 4.35 -6.95 3.8 -7.8 5.1 -8.0 7.45 L-8.05 8.8 Q-7.35 7.7 -6.15 6.85 -6.8 8.45 -6.45 10.15 L-5.25 9.1 -5.25 10.7" fill="none" stroke="#000000" stroke-linecap="round" stroke-linejoin="round" stroke-width="0.5"/>
  </g>
  <defs>
    <radialGradient cx="0" cy="0" gradientTransform="matrix(0.0109, 0.0, 0.0, 0.0109, -5.55, 1.8)" gradientUnits="userSpaceOnUse" id="gradient0" r="819.2" spreadMethod="pad">
      <stop offset="0.3215686274509804" stop-color="#8c6b37"/>
      <stop offset="1.0" stop-color="#3c301a"/>
    </radialGradient>
  </defs>
</svg>
