<?xml version="1.0" encoding="UTF-8" standalone="no"?>
<svg xmlns:xlink="http://www.w3.org/1999/xlink" height="12.3px" width="5.8px" xmlns="http://www.w3.org/2000/svg">
  <g transform="matrix(1.0, 0.0, 0.0, 1.0, -4.3, 1.15)">
    <path d="M5.4 10.9 L5.4 9.3 6.6 10.35 Q6.95 8.65 6.3 7.05 7.5 7.9 8.2 9.0 L8.15 7.65 Q7.95 5.3 7.1 4.0 9.4 4.55 9.85 6.6 9.85 5.35 9.45 4.2 8.8 2.4 7.55 1.05 6.35 -0.25 4.8 -0.9 4.35 -0.2 4.35 0.45 L4.3 3.45 4.5 6.5 4.75 8.75 Q4.9 10.0 5.4 10.9" fill="url(#gradient0)" fill-rule="evenodd" stroke="none"/>
    <path d="M4.8 -0.9 Q6.35 -0.25 7.55 1.05 8.8 2.4 9.45 4.2 9.85 5.35 9.85 6.6 9.4 4.55 7.1 4.0 7.95 5.3 8.15 7.65 L8.2 9.0 Q7.5 7.9 6.3 7.05 6.95 8.65 6.6 10.35 L5.4 9.3 5.4 10.9" fill="none" stroke="#000000" stroke-linecap="round" stroke-linejoin="round" stroke-width="0.5"/>
  </g>
  <defs>
    <radialGradient cx="0" cy="0" gradientTransform="matrix(-0.0109, 0.0, 0.0, 0.0109, 5.7, 2.0)" gradientUnits="userSpaceOnUse" id="gradient0" r="819.2" spreadMethod="pad">
      <stop offset="0.3215686274509804" stop-color="#8c6b37"/>
      <stop offset="1.0" stop-color="#3c301a"/>
    </radialGradient>
  </defs>
</svg>
