<?xml version="1.0" encoding="UTF-8" standalone="no"?>
<svg xmlns:xlink="http://www.w3.org/1999/xlink" height="17.5px" width="17.5px" xmlns="http://www.w3.org/2000/svg">
  <g transform="matrix(1.0, 0.0, 0.0, 1.0, 5.1, 33.6)">
    <path d="M9.1 -30.35 L9.45 -29.95 Q11.4 -27.8 11.4 -24.85 11.4 -21.65 9.1 -19.4 L8.75 -19.05 Q6.6 -17.1 3.65 -17.1 0.65 -17.1 -1.55 -19.15 L-1.85 -19.4 Q-4.1 -21.65 -4.1 -24.85 -4.1 -27.7 -2.25 -29.85 L-1.85 -30.35 Q0.45 -32.6 3.65 -32.6 6.85 -32.6 9.1 -30.35" fill="url(#gradient0)" fill-rule="evenodd" stroke="none"/>
    <path d="M9.1 -30.35 L9.45 -29.95 Q11.4 -27.8 11.4 -24.85 11.4 -21.65 9.1 -19.4 L8.75 -19.05 Q6.6 -17.1 3.65 -17.1 0.65 -17.1 -1.55 -19.15 L-1.85 -19.4 Q-4.1 -21.65 -4.1 -24.85 -4.1 -27.7 -2.25 -29.85 L-1.85 -30.35 Q0.45 -32.6 3.65 -32.6 6.85 -32.6 9.1 -30.35 Z" fill="none" stroke="#000000" stroke-linecap="round" stroke-linejoin="round" stroke-width="2.0"/>
  </g>
  <defs>
    <linearGradient gradientTransform="matrix(0.0095, 0.0, 0.0, 0.0095, 3.65, -24.85)" gradientUnits="userSpaceOnUse" id="gradient0" spreadMethod="pad" x1="-819.2" x2="819.2">
      <stop offset="0.0" stop-color="#ffcc99"/>
      <stop offset="0.6901960784313725" stop-color="#ffe6cf"/>
      <stop offset="0.7411764705882353" stop-color="#ffe6cf"/>
      <stop offset="0.792156862745098" stop-color="#ffe6cf"/>
      <stop offset="0.8352941176470589" stop-color="#ffe7d0"/>
      <stop offset="1.0" stop-color="#ffffff"/>
    </linearGradient>
  </defs>
</svg>
