<?xml version="1.0" encoding="UTF-8" standalone="no"?>
<svg xmlns:xlink="http://www.w3.org/1999/xlink" height="26.1px" width="29.2px" xmlns="http://www.w3.org/2000/svg">
  <g transform="matrix(1.0, 0.0, 0.0, 1.0, 14.7, 14.75)">
    <path d="M0.1 -9.85 Q0.1 -9.4 -0.25 -9.1 -0.6 -8.75 -1.05 -8.75 -1.5 -8.75 -1.8 -9.1 -2.15 -9.4 -2.15 -9.85 -2.15 -10.6 -1.75 -11.0 L-1.15 -13.45 -0.35 -10.9 Q0.1 -10.5 0.1 -9.85" fill="url(#gradient0)" fill-rule="evenodd" stroke="none"/>
    <path d="M0.1 -9.85 Q0.1 -9.4 -0.25 -9.1 -0.6 -8.75 -1.05 -8.75 -1.5 -8.75 -1.8 -9.1 -2.15 -9.4 -2.15 -9.85 -2.15 -10.6 -1.75 -11.0 L-1.15 -13.45 -0.35 -10.9 Q0.1 -10.5 0.1 -9.85 Z" fill="none" stroke="#000000" stroke-linecap="round" stroke-linejoin="round" stroke-width="0.5"/>
    <path d="M2.45 -9.85 Q2.45 -9.4 2.1 -9.1 1.75 -8.75 1.3 -8.75 0.85 -8.75 0.55 -9.1 0.2 -9.4 0.2 -9.85 0.2 -10.6 0.6 -11.0 L1.2 -13.45 Q1.75 -11.15 2.0 -10.9 L2.45 -9.85" fill="url(#gradient1)" fill-rule="evenodd" stroke="none"/>
    <path d="M2.45 -9.85 Q2.45 -9.4 2.1 -9.1 1.75 -8.75 1.3 -8.75 0.85 -8.75 0.55 -9.1 0.2 -9.4 0.2 -9.85 0.2 -10.6 0.6 -11.0 L1.2 -13.45 Q1.75 -11.15 2.0 -10.9 L2.45 -9.85 Z" fill="none" stroke="#000000" stroke-linecap="round" stroke-linejoin="round" stroke-width="0.5"/>
    <path d="M-1.95 -9.65 Q-1.95 -9.05 -2.4 -8.65 -2.85 -8.2 -3.45 -8.2 -4.05 -8.2 -4.5 -8.65 -4.9 -9.05 -4.9 -9.65 -4.9 -10.7 -4.4 -11.2 L-3.6 -14.5 Q-2.85 -11.4 -2.5 -11.1 -1.95 -10.5 -1.95 -9.65" fill="url(#gradient2)" fill-rule="evenodd" stroke="none"/>
    <path d="M-1.95 -9.65 Q-1.95 -9.05 -2.4 -8.65 -2.85 -8.2 -3.45 -8.2 -4.05 -8.2 -4.5 -8.65 -4.9 -9.05 -4.9 -9.65 -4.9 -10.7 -4.4 -11.2 L-3.6 -14.5 Q-2.85 -11.4 -2.5 -11.1 -1.95 -10.5 -1.95 -9.65 Z" fill="none" stroke="#000000" stroke-linecap="round" stroke-linejoin="round" stroke-width="0.5"/>
    <path d="M5.1 -9.5 L4.65 -8.5 Q4.2 -8.05 3.6 -8.05 3.0 -8.05 2.55 -8.5 2.15 -8.9 2.15 -9.5 2.15 -10.55 2.65 -11.05 L3.45 -14.35 Q4.2 -11.25 4.55 -10.95 5.1 -10.35 5.1 -9.5" fill="url(#gradient3)" fill-rule="evenodd" stroke="none"/>
    <path d="M5.1 -9.5 L4.65 -8.5 Q4.2 -8.05 3.6 -8.05 3.0 -8.05 2.55 -8.5 2.15 -8.9 2.15 -9.5 2.15 -10.55 2.65 -11.05 L3.45 -14.35 Q4.2 -11.25 4.55 -10.95 5.1 -10.35 5.1 -9.5 Z" fill="none" stroke="#000000" stroke-linecap="round" stroke-linejoin="round" stroke-width="0.5"/>
    <path d="M-4.55 -8.8 Q-4.55 -8.4 -4.8 -8.15 -5.1 -7.9 -5.45 -7.9 L-6.1 -8.15 Q-6.4 -8.4 -6.4 -8.8 -6.4 -9.45 -6.05 -9.75 L-5.55 -11.8 -4.9 -9.7 Q-4.55 -9.35 -4.55 -8.8" fill="url(#gradient4)" fill-rule="evenodd" stroke="none"/>
    <path d="M-4.55 -8.8 Q-4.55 -8.4 -4.8 -8.15 -5.1 -7.9 -5.45 -7.9 L-6.1 -8.15 Q-6.4 -8.4 -6.4 -8.8 -6.4 -9.45 -6.05 -9.75 L-5.55 -11.8 -4.9 -9.7 Q-4.55 -9.35 -4.55 -8.8 Z" fill="none" stroke="#000000" stroke-linecap="round" stroke-linejoin="round" stroke-width="0.5"/>
    <path d="M6.4 -9.0 L6.15 -8.35 5.5 -8.1 Q5.1 -8.1 4.85 -8.35 4.55 -8.6 4.55 -9.0 4.55 -9.65 4.9 -9.95 L5.4 -12.0 Q5.85 -10.1 6.05 -9.9 6.4 -9.55 6.4 -9.0" fill="url(#gradient5)" fill-rule="evenodd" stroke="none"/>
    <path d="M6.4 -9.0 L6.15 -8.35 5.5 -8.1 Q5.1 -8.1 4.85 -8.35 4.55 -8.6 4.55 -9.0 4.55 -9.65 4.9 -9.95 L5.4 -12.0 Q5.85 -10.1 6.05 -9.9 6.4 -9.55 6.4 -9.0 Z" fill="none" stroke="#000000" stroke-linecap="round" stroke-linejoin="round" stroke-width="0.5"/>
    <path d="M14.15 -1.1 Q13.9 -1.8 13.0 -2.1 L13.55 4.7 Q13.15 2.85 12.25 3.65 11.95 3.95 11.9 4.5 11.85 6.2 11.2 7.45 9.85 5.25 8.6 8.05 L8.35 8.6 7.85 7.95 Q8.1 9.05 7.2 9.75 7.35 8.8 6.7 8.35 6.55 9.7 5.4 10.2 4.7 8.65 3.65 10.3 2.8 9.1 1.8 10.9 1.55 9.65 0.5 10.4 0.5 9.9 0.0 9.9 L-0.6 10.6 Q-1.15 11.45 -1.7 10.35 -2.3 9.85 -3.45 11.1 -3.35 10.25 -3.6 9.8 -4.5 11.2 -5.1 9.4 L-6.1 10.4 -6.45 9.6 Q-6.7 8.5 -7.1 8.2 L-8.0 8.3 -10.2 6.25 -10.7 7.65 Q-11.7 5.65 -12.05 3.4 L-13.15 5.0 -13.05 -1.2 -14.45 -0.2 -14.3 -1.75 Q-13.65 -4.45 -11.95 -6.0 -13.05 -5.75 -13.75 -4.95 -13.35 -6.45 -12.4 -7.75 -11.05 -9.65 -8.95 -10.45 L-11.1 -10.15 -10.6 -10.75 Q-9.1 -11.85 -7.35 -12.2 L-6.4 -12.35 -3.6 -12.6 0.3 -12.6 4.35 -12.7 8.25 -12.25 Q9.5 -11.95 10.35 -10.85 L8.45 -11.2 13.1 -6.7 11.5 -7.0 Q13.65 -4.5 14.15 -1.1 M7.6 7.35 L7.85 7.95 7.6 7.35" fill="url(#gradient6)" fill-rule="evenodd" stroke="none"/>
    <path d="M14.15 -1.1 Q13.9 -1.8 13.0 -2.1 L13.55 4.7 Q13.15 2.85 12.25 3.65 11.95 3.95 11.9 4.5 11.85 6.2 11.2 7.45 9.85 5.25 8.6 8.05 L8.35 8.6 7.85 7.95 Q8.1 9.05 7.2 9.75 7.35 8.8 6.7 8.35 6.55 9.7 5.4 10.2 4.7 8.65 3.65 10.3 2.8 9.1 1.8 10.9 1.55 9.65 0.5 10.4 0.5 9.9 0.0 9.9 L-0.6 10.6 Q-1.15 11.45 -1.7 10.35 -2.3 9.85 -3.45 11.1 -3.35 10.25 -3.6 9.8 -4.5 11.2 -5.1 9.4 L-6.1 10.4 -6.45 9.6 Q-6.7 8.5 -7.1 8.2 L-8.0 8.3 -10.2 6.25 -10.7 7.65 Q-11.7 5.65 -12.05 3.4 L-13.15 5.0 -13.05 -1.2 -14.45 -0.2 -14.3 -1.75 Q-13.65 -4.45 -11.95 -6.0 -13.05 -5.75 -13.75 -4.95 -13.35 -6.45 -12.4 -7.75 -11.05 -9.65 -8.95 -10.45 L-11.1 -10.15 -10.6 -10.75 Q-9.1 -11.85 -7.35 -12.2 L-6.4 -12.35 -3.6 -12.6 0.3 -12.6 4.35 -12.7 8.25 -12.25 Q9.5 -11.95 10.35 -10.85 L8.45 -11.2 13.1 -6.7 11.5 -7.0 Q13.65 -4.5 14.15 -1.1 L14.25 -0.3 M7.85 7.95 L7.6 7.35" fill="none" stroke="#000000" stroke-linecap="round" stroke-linejoin="round" stroke-width="0.5"/>
  </g>
  <defs>
    <radialGradient cx="0" cy="0" gradientTransform="matrix(0.0018, 0.0, 0.0, 0.0018, -1.05, -9.85)" gradientUnits="userSpaceOnUse" id="gradient0" r="819.2" spreadMethod="pad">
      <stop offset="0.0" stop-color="#bebe4b"/>
      <stop offset="1.0" stop-color="#ffffff"/>
    </radialGradient>
    <radialGradient cx="0" cy="0" gradientTransform="matrix(0.0018, 0.0, 0.0, 0.0018, 1.3, -9.85)" gradientUnits="userSpaceOnUse" id="gradient1" r="819.2" spreadMethod="pad">
      <stop offset="0.0" stop-color="#bebe4b"/>
      <stop offset="1.0" stop-color="#ffffff"/>
    </radialGradient>
    <radialGradient cx="0" cy="0" gradientTransform="matrix(0.0023, 0.0, 0.0, 0.0023, -3.45, -9.65)" gradientUnits="userSpaceOnUse" id="gradient2" r="819.2" spreadMethod="pad">
      <stop offset="0.0" stop-color="#bebe4b"/>
      <stop offset="1.0" stop-color="#ffffff"/>
    </radialGradient>
    <radialGradient cx="0" cy="0" gradientTransform="matrix(0.0023, 0.0, 0.0, 0.0023, 3.6, -9.5)" gradientUnits="userSpaceOnUse" id="gradient3" r="819.2" spreadMethod="pad">
      <stop offset="0.0" stop-color="#bebe4b"/>
      <stop offset="1.0" stop-color="#ffffff"/>
    </radialGradient>
    <radialGradient cx="0" cy="0" gradientTransform="matrix(0.0015, 0.0, 0.0, 0.0015, -5.45, -8.8)" gradientUnits="userSpaceOnUse" id="gradient4" r="819.2" spreadMethod="pad">
      <stop offset="0.0" stop-color="#bebe4b"/>
      <stop offset="1.0" stop-color="#ffffff"/>
    </radialGradient>
    <radialGradient cx="0" cy="0" gradientTransform="matrix(0.0015, 0.0, 0.0, 0.0015, 5.5, -9.0)" gradientUnits="userSpaceOnUse" id="gradient5" r="819.2" spreadMethod="pad">
      <stop offset="0.0" stop-color="#bebe4b"/>
      <stop offset="1.0" stop-color="#ffffff"/>
    </radialGradient>
    <radialGradient cx="0" cy="0" gradientTransform="matrix(0.0185, 0.0, 0.0, 0.0185, 0.15, -1.3)" gradientUnits="userSpaceOnUse" id="gradient6" r="819.2" spreadMethod="pad">
      <stop offset="0.3215686274509804" stop-color="#8c6b37"/>
      <stop offset="1.0" stop-color="#3c301a"/>
    </radialGradient>
  </defs>
</svg>
