<?xml version="1.0" encoding="UTF-8" standalone="no"?>
<svg xmlns:xlink="http://www.w3.org/1999/xlink" height="12.5px" width="5.5px" xmlns="http://www.w3.org/2000/svg">
  <g transform="matrix(1.0, 0.0, 0.0, 1.0, 10.15, 10.15)">
    <path d="M-5.7 2.1 L-5.7 0.5 -6.8 1.95 Q-7.15 0.35 -6.55 -1.45 L-8.3 1.15 -8.3 -0.2 Q-8.1 -2.65 -7.3 -4.25 -9.45 -2.9 -9.9 -0.7 -9.9 -1.95 -9.5 -3.2 -8.9 -5.25 -7.7 -7.0 -6.6 -8.75 -5.15 -9.9 -4.7 -9.35 -4.7 -8.7 L-4.65 -5.75 -4.85 -2.6 -5.1 -0.3 Q-5.2 1.0 -5.7 2.1" fill="url(#gradient0)" fill-rule="evenodd" stroke="none"/>
    <path d="M-5.15 -9.9 Q-6.6 -8.75 -7.7 -7.0 -8.9 -5.25 -9.5 -3.2 -9.9 -1.95 -9.9 -0.7 -9.45 -2.9 -7.3 -4.25 -8.1 -2.65 -8.3 -0.2 L-8.3 1.15 -6.55 -1.45 Q-7.15 0.35 -6.8 1.95 L-5.7 0.5 -5.7 2.1" fill="none" stroke="#000000" stroke-linecap="round" stroke-linejoin="round" stroke-width="0.5"/>
  </g>
  <defs>
    <radialGradient cx="0" cy="0" gradientTransform="matrix(0.0102, -0.0037, 0.0, 0.0109, -6.0, -6.7)" gradientUnits="userSpaceOnUse" id="gradient0" r="819.2" spreadMethod="pad">
      <stop offset="0.3215686274509804" stop-color="#8c6b37"/>
      <stop offset="1.0" stop-color="#3c301a"/>
    </radialGradient>
  </defs>
</svg>
