<?xml version="1.0" encoding="UTF-8" standalone="no"?>
<svg xmlns:xlink="http://www.w3.org/1999/xlink" height="12.5px" width="5.5px" xmlns="http://www.w3.org/2000/svg">
  <g transform="matrix(1.0, 0.0, 0.0, 1.0, -4.1, 9.95)">
    <path d="M4.6 -9.7 Q4.15 -9.15 4.15 -8.5 L4.1 -5.55 4.3 -2.4 4.55 -0.1 Q4.65 1.2 5.15 2.3 L5.15 0.7 6.25 2.15 Q6.6 0.55 6.0 -1.25 L7.75 1.35 7.75 0.0 Q7.55 -2.45 6.75 -4.05 8.9 -2.7 9.35 -0.5 9.35 -1.75 8.95 -3.0 8.35 -5.05 7.15 -6.8 6.05 -8.55 4.6 -9.7" fill="url(#gradient0)" fill-rule="evenodd" stroke="none"/>
    <path d="M4.6 -9.7 Q6.05 -8.55 7.15 -6.8 8.35 -5.05 8.95 -3.0 9.35 -1.75 9.35 -0.5 8.9 -2.7 6.75 -4.05 7.55 -2.45 7.75 0.0 L7.75 1.35 6.0 -1.25 Q6.6 0.55 6.25 2.15 L5.15 0.7 5.15 2.3" fill="none" stroke="#000000" stroke-linecap="round" stroke-linejoin="round" stroke-width="0.5"/>
  </g>
  <defs>
    <radialGradient cx="0" cy="0" gradientTransform="matrix(-0.0102, -0.0037, 0.0, 0.0109, 5.45, -6.5)" gradientUnits="userSpaceOnUse" id="gradient0" r="819.2" spreadMethod="pad">
      <stop offset="0.3215686274509804" stop-color="#8c6b37"/>
      <stop offset="1.0" stop-color="#3c301a"/>
    </radialGradient>
  </defs>
</svg>
