<?xml version="1.0" encoding="UTF-8" standalone="no"?>
<svg xmlns:xlink="http://www.w3.org/1999/xlink" height="17.5px" width="17.5px" xmlns="http://www.w3.org/2000/svg">
  <g transform="matrix(1.0, 0.0, 0.0, 1.0, 6.1, 31.35)">
    <path d="M8.1 -28.1 L8.45 -27.7 Q10.4 -25.55 10.4 -22.6 10.4 -19.4 8.1 -17.15 L7.75 -16.8 Q5.6 -14.85 2.65 -14.85 -0.35 -14.85 -2.55 -16.9 L-2.85 -17.15 Q-5.1 -19.4 -5.1 -22.6 -5.1 -25.45 -3.25 -27.6 L-2.85 -28.1 Q-0.55 -30.35 2.65 -30.35 5.85 -30.35 8.1 -28.1" fill="url(#gradient0)" fill-rule="evenodd" stroke="none"/>
    <path d="M8.1 -28.1 L8.45 -27.7 Q10.4 -25.55 10.4 -22.6 10.4 -19.4 8.1 -17.15 L7.75 -16.8 Q5.6 -14.85 2.65 -14.85 -0.35 -14.85 -2.55 -16.9 L-2.85 -17.15 Q-5.1 -19.4 -5.1 -22.6 -5.1 -25.45 -3.25 -27.6 L-2.85 -28.1 Q-0.55 -30.35 2.65 -30.35 5.85 -30.35 8.1 -28.1 Z" fill="none" stroke="#000000" stroke-linecap="round" stroke-linejoin="round" stroke-width="2.0"/>
  </g>
  <defs>
    <linearGradient gradientTransform="matrix(0.0095, 0.0, 0.0, 0.0095, 2.65, -22.6)" gradientUnits="userSpaceOnUse" id="gradient0" spreadMethod="pad" x1="-819.2" x2="819.2">
      <stop offset="0.0" stop-color="#ffcc99"/>
      <stop offset="0.6901960784313725" stop-color="#ffe6cf"/>
      <stop offset="0.7411764705882353" stop-color="#ffe6cf"/>
      <stop offset="0.792156862745098" stop-color="#ffe6cf"/>
      <stop offset="0.8352941176470589" stop-color="#ffe7d0"/>
      <stop offset="1.0" stop-color="#ffffff"/>
    </linearGradient>
  </defs>
</svg>
