<?xml version="1.0" encoding="UTF-8" standalone="no"?>
<svg xmlns:xlink="http://www.w3.org/1999/xlink" height="24.3px" width="29.2px" xmlns="http://www.w3.org/2000/svg">
  <g transform="matrix(1.0, 0.0, 0.0, 1.0, 14.7, 12.95)">
    <path d="M14.15 -1.1 Q13.9 -1.8 13.0 -2.1 L13.55 4.7 Q13.15 2.85 12.25 3.65 11.95 3.95 11.9 4.5 11.85 6.2 11.2 7.45 9.85 5.25 8.6 8.05 L8.35 8.6 7.85 7.95 Q8.1 9.05 7.2 9.75 7.35 8.8 6.7 8.35 6.55 9.7 5.4 10.2 4.7 8.65 3.65 10.3 2.8 9.1 1.8 10.9 1.55 9.65 0.5 10.4 0.5 9.9 0.0 9.9 L-0.6 10.6 Q-1.15 11.45 -1.7 10.35 -2.3 9.85 -3.45 11.1 -3.35 10.25 -3.6 9.8 -4.5 11.2 -5.1 9.4 L-6.1 10.4 -6.45 9.6 Q-6.7 8.5 -7.1 8.2 L-8.0 8.3 -10.2 6.25 -10.7 7.65 Q-11.7 5.65 -12.05 3.4 L-13.15 5.0 -13.05 -1.2 -14.45 -0.2 -14.3 -1.75 Q-13.65 -4.45 -11.95 -6.0 -13.05 -5.75 -13.75 -4.95 -13.35 -6.45 -12.4 -7.75 -11.05 -9.65 -8.95 -10.45 L-11.1 -10.15 -10.6 -10.75 Q-9.1 -11.85 -7.35 -12.2 L-6.4 -12.35 -3.6 -12.6 0.3 -12.6 4.35 -12.7 8.25 -12.25 Q9.5 -11.95 10.35 -10.85 L8.45 -11.2 13.1 -6.7 11.5 -7.0 Q13.65 -4.5 14.15 -1.1 M7.6 7.35 L7.85 7.95 7.6 7.35" fill="url(#gradient0)" fill-rule="evenodd" stroke="none"/>
    <path d="M14.15 -1.1 Q13.9 -1.8 13.0 -2.1 L13.55 4.7 Q13.15 2.85 12.25 3.65 11.95 3.95 11.9 4.5 11.85 6.2 11.2 7.45 9.85 5.25 8.6 8.05 L8.35 8.6 7.85 7.95 Q8.1 9.05 7.2 9.75 7.35 8.8 6.7 8.35 6.55 9.7 5.4 10.2 4.7 8.65 3.65 10.3 2.8 9.1 1.8 10.9 1.55 9.65 0.5 10.4 0.5 9.9 0.0 9.9 L-0.6 10.6 Q-1.15 11.45 -1.7 10.35 -2.3 9.85 -3.45 11.1 -3.35 10.25 -3.6 9.8 -4.5 11.2 -5.1 9.4 L-6.1 10.4 -6.45 9.6 Q-6.7 8.5 -7.1 8.2 L-8.0 8.3 -10.2 6.25 -10.7 7.65 Q-11.7 5.65 -12.05 3.4 L-13.15 5.0 -13.05 -1.2 -14.45 -0.2 -14.3 -1.75 Q-13.65 -4.45 -11.95 -6.0 -13.05 -5.75 -13.75 -4.95 -13.35 -6.45 -12.4 -7.75 -11.05 -9.65 -8.95 -10.45 L-11.1 -10.15 -10.6 -10.75 Q-9.1 -11.85 -7.35 -12.2 L-6.4 -12.35 -3.6 -12.6 0.3 -12.6 4.35 -12.7 8.25 -12.25 Q9.5 -11.95 10.35 -10.85 L8.45 -11.2 13.1 -6.7 11.5 -7.0 Q13.65 -4.5 14.15 -1.1 L14.25 -0.3 M7.85 7.95 L7.6 7.35" fill="none" stroke="#000000" stroke-linecap="round" stroke-linejoin="round" stroke-width="0.5"/>
  </g>
  <defs>
    <radialGradient cx="0" cy="0" gradientTransform="matrix(0.0185, 0.0, 0.0, 0.0185, 0.15, -1.3)" gradientUnits="userSpaceOnUse" id="gradient0" r="819.2" spreadMethod="pad">
      <stop offset="0.3215686274509804" stop-color="#8c6b37"/>
      <stop offset="1.0" stop-color="#3c301a"/>
    </radialGradient>
  </defs>
</svg>
