<?xml version="1.0" encoding="UTF-8" standalone="no"?>
<svg xmlns:xlink="http://www.w3.org/1999/xlink" height="12.3px" width="5.8px" xmlns="http://www.w3.org/2000/svg">
  <g transform="matrix(1.0, 0.0, 0.0, 1.0, 9.95, 10.0)">
    <path d="M-5.25 2.05 L-5.25 0.45 -6.45 1.5 Q-6.8 -0.2 -6.15 -1.8 -7.35 -0.95 -8.05 0.15 L-8.0 -1.2 Q-7.8 -3.55 -6.95 -4.85 -9.25 -4.3 -9.7 -2.25 -9.7 -3.5 -9.3 -4.65 -8.65 -6.45 -7.4 -7.8 -6.2 -9.1 -4.65 -9.75 -4.2 -9.05 -4.2 -8.4 L-4.15 -5.4 -4.35 -2.35 -4.6 -0.1 Q-4.75 1.15 -5.25 2.05" fill="url(#gradient0)" fill-rule="evenodd" stroke="none"/>
    <path d="M-4.65 -9.75 Q-6.2 -9.1 -7.4 -7.8 -8.65 -6.45 -9.3 -4.65 -9.7 -3.5 -9.7 -2.25 -9.25 -4.3 -6.95 -4.85 -7.8 -3.55 -8.0 -1.2 L-8.05 0.15 Q-7.35 -0.95 -6.15 -1.8 -6.8 -0.2 -6.45 1.5 L-5.25 0.45 -5.25 2.05" fill="none" stroke="#000000" stroke-linecap="round" stroke-linejoin="round" stroke-width="0.5"/>
  </g>
  <defs>
    <radialGradient cx="0" cy="0" gradientTransform="matrix(0.0109, 0.0, 0.0, 0.0109, -5.55, -6.85)" gradientUnits="userSpaceOnUse" id="gradient0" r="819.2" spreadMethod="pad">
      <stop offset="0.3215686274509804" stop-color="#8c6b37"/>
      <stop offset="1.0" stop-color="#3c301a"/>
    </radialGradient>
  </defs>
</svg>
