<?xml version="1.0" encoding="UTF-8" standalone="no"?>
<svg xmlns:xlink="http://www.w3.org/1999/xlink" height="12.3px" width="5.8px" xmlns="http://www.w3.org/2000/svg">
  <g transform="matrix(1.0, 0.0, 0.0, 1.0, -4.3, 9.8)">
    <path d="M5.4 2.25 Q4.9 1.35 4.75 0.1 L4.5 -2.15 4.3 -5.2 4.35 -8.2 Q4.35 -8.85 4.8 -9.55 6.35 -8.9 7.55 -7.6 8.8 -6.25 9.45 -4.45 9.85 -3.3 9.85 -2.05 9.4 -4.1 7.1 -4.65 7.95 -3.35 8.15 -1.0 L8.2 0.35 Q7.5 -0.75 6.3 -1.6 6.95 0.0 6.6 1.7 L5.4 0.65 5.4 2.25" fill="url(#gradient0)" fill-rule="evenodd" stroke="none"/>
    <path d="M4.8 -9.55 Q6.35 -8.9 7.55 -7.6 8.8 -6.25 9.45 -4.45 9.85 -3.3 9.85 -2.05 9.4 -4.1 7.1 -4.65 7.95 -3.35 8.15 -1.0 L8.2 0.35 Q7.5 -0.75 6.3 -1.6 6.95 0.0 6.6 1.7 L5.4 0.65 5.4 2.25" fill="none" stroke="#000000" stroke-linecap="round" stroke-linejoin="round" stroke-width="0.5"/>
  </g>
  <defs>
    <radialGradient cx="0" cy="0" gradientTransform="matrix(-0.0109, 0.0, 0.0, 0.0109, 5.7, -6.65)" gradientUnits="userSpaceOnUse" id="gradient0" r="819.2" spreadMethod="pad">
      <stop offset="0.3215686274509804" stop-color="#8c6b37"/>
      <stop offset="1.0" stop-color="#3c301a"/>
    </radialGradient>
  </defs>
</svg>
