<?xml version="1.0" encoding="UTF-8" standalone="no"?>
<svg xmlns:xlink="http://www.w3.org/1999/xlink" height="17.5px" width="17.5px" xmlns="http://www.w3.org/2000/svg">
  <g transform="matrix(1.0, 0.0, 0.0, 1.0, 10.35, 32.05)">
    <path d="M3.85 -28.8 L4.2 -28.4 Q6.15 -26.25 6.15 -23.3 6.15 -20.1 3.85 -17.85 L3.5 -17.5 Q1.35 -15.55 -1.6 -15.55 -4.6 -15.55 -6.8 -17.6 L-7.1 -17.85 Q-9.35 -20.1 -9.35 -23.3 -9.35 -26.15 -7.5 -28.3 L-7.1 -28.8 Q-4.8 -31.05 -1.6 -31.05 1.6 -31.05 3.85 -28.8" fill="url(#gradient0)" fill-rule="evenodd" stroke="none"/>
    <path d="M3.85 -28.8 L4.2 -28.4 Q6.15 -26.25 6.15 -23.3 6.15 -20.1 3.85 -17.85 L3.5 -17.5 Q1.35 -15.55 -1.6 -15.55 -4.6 -15.55 -6.8 -17.6 L-7.1 -17.85 Q-9.35 -20.1 -9.35 -23.3 -9.35 -26.15 -7.5 -28.3 L-7.1 -28.8 Q-4.8 -31.05 -1.6 -31.05 1.6 -31.05 3.85 -28.8 Z" fill="none" stroke="#000000" stroke-linecap="round" stroke-linejoin="round" stroke-width="2.0"/>
  </g>
  <defs>
    <linearGradient gradientTransform="matrix(0.0095, 0.0, 0.0, 0.0095, -1.6, -23.3)" gradientUnits="userSpaceOnUse" id="gradient0" spreadMethod="pad" x1="-819.2" x2="819.2">
      <stop offset="0.0" stop-color="#ffcc99"/>
      <stop offset="0.6901960784313725" stop-color="#ffe6cf"/>
      <stop offset="0.7411764705882353" stop-color="#ffe6cf"/>
      <stop offset="0.792156862745098" stop-color="#ffe6cf"/>
      <stop offset="0.8352941176470589" stop-color="#ffe7d0"/>
      <stop offset="1.0" stop-color="#ffffff"/>
    </linearGradient>
  </defs>
</svg>
