<?xml version="1.0" encoding="UTF-8" standalone="no"?>
<svg xmlns:xlink="http://www.w3.org/1999/xlink" height="46.0px" width="46.5px" xmlns="http://www.w3.org/2000/svg">
  <g transform="matrix(1.0, 0.0, 0.0, 1.0, 23.25, 23.0)">
    <path d="M0.0 -22.5 Q9.4 -22.5 16.05 -15.9 22.75 -9.3 22.75 0.0 22.75 9.3 16.05 15.9 9.4 22.5 0.0 22.5 -9.4 22.5 -16.1 15.9 -22.75 9.3 -22.75 0.0 -22.75 -9.3 -16.1 -15.9 -9.4 -22.5 0.0 -22.5 Z" fill="none" stroke="#000000" stroke-linecap="round" stroke-linejoin="round" stroke-width="1.0"/>
    <path d="M-11.5 3.3 L-11.2 0.5 -15.5 0.5 -15.8 3.3 Q-16.75 3.45 -17.35 4.0 -18.0 4.6 -18.0 5.55 -18.0 6.3 -17.5 6.85 -17.0 7.35 -16.2 7.35 L-11.9 7.35 Q-10.95 7.35 -10.3 6.65 -9.65 6.0 -9.65 5.05 -9.65 3.3 -11.5 3.3 M-10.45 -6.3 Q-10.3 -8.05 -12.45 -8.05 L-14.9 -8.05 Q-15.9 -8.05 -16.55 -7.45 -17.25 -6.8 -17.25 -5.85 -17.25 -4.1 -15.0 -4.1 L-15.25 -1.5 -10.95 -1.5 -10.5 -6.05 -10.45 -6.3 M2.65 6.15 Q4.5 4.55 4.8 2.05 L5.0 0.5 0.7 0.5 0.55 1.8 Q0.35 3.85 -1.25 3.85 -2.65 3.85 -2.65 2.15 L-2.55 0.5 -6.8 0.5 -7.0 2.6 Q-7.05 4.8 -5.5 6.3 -3.9 7.75 -1.7 7.75 0.85 7.75 2.65 6.15 M17.6 2.05 L17.8 0.5 13.5 0.5 13.35 1.8 Q13.15 3.85 11.55 3.85 10.15 3.85 10.15 2.15 L10.25 0.5 6.0 0.5 5.8 2.6 Q5.75 4.8 7.3 6.3 8.9 7.75 11.1 7.75 13.65 7.75 15.45 6.15 17.3 4.55 17.6 2.05 M20.35 -8.05 Q21.75 -6.55 21.8 -4.5 L21.8 4.5 Q21.75 6.55 20.35 8.0 19.0 9.5 17.05 9.5 L-17.0 9.5 Q-18.95 9.5 -20.35 8.0 -21.7 6.55 -21.7 4.5 L-21.7 -4.5 Q-21.7 -6.55 -20.35 -8.05 -18.95 -9.5 -17.0 -9.5 L17.05 -9.5 Q19.0 -9.5 20.35 -8.05 M8.45 -6.85 Q6.65 -5.3 6.35 -2.75 L6.2 -1.5 10.4 -1.5 10.8 -3.2 Q11.35 -4.55 12.45 -4.55 13.9 -4.55 13.8 -2.95 L13.7 -1.5 18.0 -1.5 18.15 -3.5 Q18.2 -5.75 16.6 -7.1 15.05 -8.4 12.8 -8.4 10.25 -8.4 8.45 -6.85 M0.9 -1.5 L5.2 -1.5 5.35 -3.5 Q5.4 -5.75 3.8 -7.1 2.25 -8.4 0.0 -8.4 -2.55 -8.4 -4.35 -6.85 -6.15 -5.3 -6.45 -2.75 L-6.6 -1.5 -2.4 -1.5 -2.0 -3.2 Q-1.45 -4.55 -0.35 -4.55 1.1 -4.55 1.0 -2.95 L0.9 -1.5" fill="#000000" fill-rule="evenodd" stroke="none"/>
  </g>
</svg>
