<?xml version="1.0" encoding="UTF-8" standalone="no"?>
<svg xmlns:xlink="http://www.w3.org/1999/xlink" height="30.35px" width="29.4px" xmlns="http://www.w3.org/2000/svg">
  <g transform="matrix(1.0, 0.0, 0.0, 1.0, 11.2, 6.25)">
    <path d="M-0.45 -0.75 Q-0.3 -0.3 -0.6 0.1 L-1.25 0.6 -2.1 0.5 -2.6 -0.2 Q-2.8 -0.95 -2.55 -1.4 L-2.55 -3.95 -1.15 -1.7 -0.45 -0.75" fill="url(#gradient0)" fill-rule="evenodd" stroke="none"/>
    <path d="M-0.45 -0.75 Q-0.3 -0.3 -0.6 0.1 L-1.25 0.6 -2.1 0.5 -2.6 -0.2 Q-2.8 -0.95 -2.55 -1.4 L-2.55 -3.95 -1.15 -1.7 -0.45 -0.75 Z" fill="none" stroke="#000000" stroke-linecap="round" stroke-linejoin="round" stroke-width="0.5"/>
    <path d="M1.8 -1.4 Q1.95 -0.95 1.65 -0.55 L1.0 -0.05 0.15 -0.15 -0.35 -0.85 Q-0.55 -1.6 -0.3 -2.05 L-0.3 -4.6 1.1 -2.35 1.8 -1.4" fill="url(#gradient1)" fill-rule="evenodd" stroke="none"/>
    <path d="M1.8 -1.4 Q1.95 -0.95 1.65 -0.55 L1.0 -0.05 0.15 -0.15 -0.35 -0.85 Q-0.55 -1.6 -0.3 -2.05 L-0.3 -4.6 1.1 -2.35 1.8 -1.4 Z" fill="none" stroke="#000000" stroke-linecap="round" stroke-linejoin="round" stroke-width="0.5"/>
    <path d="M-2.4 0.0 Q-2.25 0.55 -2.55 1.05 -2.85 1.6 -3.4 1.75 L-4.55 1.6 Q-5.1 1.3 -5.25 0.75 -5.5 -0.25 -5.15 -0.9 L-5.2 -4.3 Q-3.7 -1.5 -3.25 -1.3 -2.6 -0.85 -2.4 0.0" fill="url(#gradient2)" fill-rule="evenodd" stroke="none"/>
    <path d="M-2.4 0.0 Q-2.25 0.55 -2.55 1.05 -2.85 1.6 -3.4 1.75 L-4.55 1.6 Q-5.1 1.3 -5.25 0.75 -5.5 -0.25 -5.15 -0.9 L-5.2 -4.3 Q-3.7 -1.5 -3.25 -1.3 -2.6 -0.85 -2.4 0.0 Z" fill="none" stroke="#000000" stroke-linecap="round" stroke-linejoin="round" stroke-width="0.5"/>
    <path d="M4.45 -1.7 L4.3 -0.65 Q4.0 -0.1 3.45 0.05 L2.3 -0.1 Q1.75 -0.4 1.6 -0.95 1.35 -1.95 1.7 -2.6 1.5 -5.95 1.65 -6.0 3.15 -3.2 3.6 -3.0 4.25 -2.55 4.45 -1.7" fill="url(#gradient3)" fill-rule="evenodd" stroke="none"/>
    <path d="M4.45 -1.7 L4.3 -0.65 Q4.0 -0.1 3.45 0.05 L2.3 -0.1 Q1.75 -0.4 1.6 -0.95 1.35 -1.95 1.7 -2.6 1.5 -5.95 1.65 -6.0 3.15 -3.2 3.6 -3.0 4.25 -2.55 4.45 -1.7 Z" fill="none" stroke="#000000" stroke-linecap="round" stroke-linejoin="round" stroke-width="0.5"/>
    <path d="M-4.7 1.4 Q-4.6 1.75 -4.8 2.1 L-5.35 2.5 -6.05 2.4 -6.5 1.9 Q-6.65 1.3 -6.4 0.85 L-6.5 -1.25 -5.3 0.65 Q-4.85 0.85 -4.7 1.4" fill="url(#gradient4)" fill-rule="evenodd" stroke="none"/>
    <path d="M-4.7 1.4 Q-4.6 1.75 -4.8 2.1 L-5.35 2.5 -6.05 2.4 -6.5 1.9 Q-6.65 1.3 -6.4 0.85 L-6.5 -1.25 -5.3 0.65 Q-4.85 0.85 -4.7 1.4 Z" fill="none" stroke="#000000" stroke-linecap="round" stroke-linejoin="round" stroke-width="0.5"/>
    <path d="M5.85 -1.6 L5.75 -0.9 5.2 -0.5 4.5 -0.6 Q4.15 -0.75 4.05 -1.1 3.9 -1.7 4.15 -2.15 L4.05 -4.25 Q5.0 -2.5 5.25 -2.35 L5.85 -1.6" fill="url(#gradient5)" fill-rule="evenodd" stroke="none"/>
    <path d="M5.85 -1.6 L5.75 -0.9 5.2 -0.5 4.5 -0.6 Q4.15 -0.75 4.05 -1.1 3.9 -1.7 4.15 -2.15 L4.05 -4.25 Q5.0 -2.5 5.25 -2.35 L5.85 -1.6 Z" fill="none" stroke="#000000" stroke-linecap="round" stroke-linejoin="round" stroke-width="0.5"/>
    <path d="M17.0 7.5 Q16.6 6.85 15.65 6.85 L17.95 13.25 Q17.05 11.55 16.45 12.6 16.2 12.9 16.3 13.45 16.7 15.15 16.35 16.5 14.5 14.75 14.0 17.75 L13.9 18.35 13.3 17.85 Q13.8 18.85 13.1 19.75 13.0 18.8 12.25 18.5 12.5 19.9 11.5 20.65 10.45 19.35 9.85 21.2 8.7 20.3 8.2 22.3 7.65 21.15 6.85 22.1 6.7 21.6 6.2 21.75 L5.8 22.6 4.65 22.65 Q4.0 22.3 3.15 23.85 3.05 22.95 2.65 22.6 2.2 24.15 1.1 22.6 L0.45 23.85 -0.15 23.15 Q-0.6 22.15 -1.1 22.0 -1.55 21.8 -1.95 22.25 L-4.6 20.9 -4.75 22.35 Q-6.2 20.7 -7.15 18.6 L-7.75 20.45 -9.25 14.45 -10.35 15.75 -10.6 14.2 Q-10.7 11.45 -9.45 9.5 -10.45 10.05 -10.95 10.95 -10.95 9.45 -10.35 7.9 -9.5 5.75 -7.7 4.4 -9.15 4.75 -9.7 5.25 L-9.4 4.55 Q-8.25 3.1 -6.6 2.3 L-5.75 1.95 Q-4.45 1.4 -3.1 1.0 L0.7 -0.05 4.55 -1.2 8.4 -1.8 Q9.75 -1.8 10.85 -0.95 L8.9 -0.8 Q11.8 0.5 14.55 2.35 L12.9 2.45 Q15.65 4.3 17.0 7.5 M12.9 17.35 L13.3 17.85 12.9 17.35" fill="url(#gradient6)" fill-rule="evenodd" stroke="none"/>
    <path d="M17.0 7.5 Q16.6 6.85 15.65 6.85 L17.95 13.25 Q17.05 11.55 16.45 12.6 16.2 12.9 16.3 13.45 16.7 15.15 16.35 16.5 14.5 14.75 14.0 17.75 L13.9 18.35 13.3 17.85 Q13.8 18.85 13.1 19.75 13.0 18.8 12.25 18.5 12.5 19.9 11.5 20.65 10.45 19.35 9.85 21.2 8.7 20.3 8.2 22.3 7.65 21.15 6.85 22.1 6.7 21.6 6.2 21.75 L5.8 22.6 4.65 22.65 Q4.0 22.3 3.15 23.85 3.05 22.95 2.65 22.6 2.2 24.15 1.1 22.6 L0.45 23.85 -0.15 23.15 Q-0.6 22.15 -1.1 22.0 -1.55 21.8 -1.95 22.25 L-4.6 20.9 -4.75 22.35 Q-6.2 20.7 -7.15 18.6 L-7.75 20.45 -9.25 14.45 -10.35 15.75 -10.6 14.2 Q-10.7 11.45 -9.45 9.5 -10.45 10.05 -10.95 10.95 -10.95 9.45 -10.35 7.9 -9.5 5.75 -7.7 4.4 -9.15 4.75 -9.7 5.25 L-9.4 4.55 Q-8.25 3.1 -6.6 2.3 L-5.75 1.95 Q-4.45 1.4 -3.1 1.0 L0.7 -0.05 4.55 -1.2 8.4 -1.8 Q9.75 -1.8 10.85 -0.95 L8.9 -0.8 Q11.8 0.5 14.55 2.35 L12.9 2.45 Q15.65 4.3 17.0 7.5 L17.3 8.2 M13.3 17.85 L12.9 17.35" fill="none" stroke="#000000" stroke-linecap="round" stroke-linejoin="round" stroke-width="0.5"/>
  </g>
  <defs>
    <radialGradient cx="0" cy="0" gradientTransform="matrix(0.0017, -5.0E-4, 5.0E-4, 0.0017, -1.55, -0.45)" gradientUnits="userSpaceOnUse" id="gradient0" r="819.2" spreadMethod="pad">
      <stop offset="0.0" stop-color="#bebe4b"/>
      <stop offset="1.0" stop-color="#ffffff"/>
    </radialGradient>
    <radialGradient cx="0" cy="0" gradientTransform="matrix(0.0017, -5.0E-4, 5.0E-4, 0.0017, 0.7, -1.1)" gradientUnits="userSpaceOnUse" id="gradient1" r="819.2" spreadMethod="pad">
      <stop offset="0.0" stop-color="#bebe4b"/>
      <stop offset="1.0" stop-color="#ffffff"/>
    </radialGradient>
    <radialGradient cx="0" cy="0" gradientTransform="matrix(0.0023, -6.0E-4, 6.0E-4, 0.0023, -3.8, 0.35)" gradientUnits="userSpaceOnUse" id="gradient2" r="819.2" spreadMethod="pad">
      <stop offset="0.0" stop-color="#bebe4b"/>
      <stop offset="1.0" stop-color="#ffffff"/>
    </radialGradient>
    <radialGradient cx="0" cy="0" gradientTransform="matrix(0.0023, -6.0E-4, 6.0E-4, 0.0023, 3.05, -1.35)" gradientUnits="userSpaceOnUse" id="gradient3" r="819.2" spreadMethod="pad">
      <stop offset="0.0" stop-color="#bebe4b"/>
      <stop offset="1.0" stop-color="#ffffff"/>
    </radialGradient>
    <radialGradient cx="0" cy="0" gradientTransform="matrix(0.0014, -4.0E-4, 4.0E-4, 0.0014, -5.6, 1.65)" gradientUnits="userSpaceOnUse" id="gradient4" r="819.2" spreadMethod="pad">
      <stop offset="0.0" stop-color="#bebe4b"/>
      <stop offset="1.0" stop-color="#ffffff"/>
    </radialGradient>
    <radialGradient cx="0" cy="0" gradientTransform="matrix(0.0014, -4.0E-4, 4.0E-4, 0.0014, 4.95, -1.35)" gradientUnits="userSpaceOnUse" id="gradient5" r="819.2" spreadMethod="pad">
      <stop offset="0.0" stop-color="#bebe4b"/>
      <stop offset="1.0" stop-color="#ffffff"/>
    </radialGradient>
    <radialGradient cx="0" cy="0" gradientTransform="matrix(0.0179, -0.0048, 0.0048, 0.0179, 3.45, 10.9)" gradientUnits="userSpaceOnUse" id="gradient6" r="819.2" spreadMethod="pad">
      <stop offset="0.3215686274509804" stop-color="#8c6b37"/>
      <stop offset="1.0" stop-color="#3c301a"/>
    </radialGradient>
  </defs>
</svg>
