<?xml version="1.0" encoding="UTF-8" standalone="no"?>
<svg xmlns:xlink="http://www.w3.org/1999/xlink" height="21.75px" width="22.8px" xmlns="http://www.w3.org/2000/svg">
  <g transform="matrix(1.0, 0.0, 0.0, 1.0, 10.7, 17.35)">
    <path d="M4.8 -11.55 Q4.45 -10.05 2.55 -10.75 L2.25 -10.9 2.35 -10.9 Q3.25 -10.95 3.85 -11.6 L4.8 -11.55" fill="url(#gradient0)" fill-rule="evenodd" stroke="none"/>
    <path d="M9.9 -12.1 Q10.1 -11.7 9.85 -11.3 9.15 -10.3 7.85 -10.1 4.65 -9.5 1.55 -10.15 L1.1 -10.15 1.2 -10.7 1.25 -10.9 2.25 -10.9 2.55 -10.75 Q4.45 -10.05 4.8 -11.55 L5.55 -11.55 Q5.95 -11.4 6.3 -11.35 8.3 -11.25 9.9 -12.1 M-1.05 -10.35 L-2.25 -10.5 -4.3 -10.45 Q-5.8 -10.1 -6.8 -11.0 L-4.65 -10.95 -2.05 -10.9 -1.45 -10.9 -1.05 -10.45 -1.05 -10.35 M-9.35 -13.35 Q-9.4 -14.1 -8.55 -14.4 L-7.75 -14.6 Q-7.75 -14.1 -7.35 -13.7 L-9.35 -13.35 M4.2 -14.7 L4.75 -15.0 4.65 -14.9 4.2 -14.7" fill="url(#gradient1)" fill-rule="evenodd" stroke="none"/>
    <path d="M-2.05 -10.9 L-4.65 -10.95 -2.05 -10.9" fill="url(#gradient2)" fill-rule="evenodd" stroke="none"/>
    <path d="M4.75 -15.0 Q6.2 -16.3 8.1 -17.05 9.85 -17.75 10.05 -16.0 L10.6 -15.3 10.75 -14.8 Q12.5 -14.55 11.95 -13.1 11.7 -12.45 11.0 -12.35 L9.95 -12.15 9.9 -12.1 Q8.3 -11.25 6.3 -11.35 5.95 -11.4 5.55 -11.55 L4.8 -11.55 3.85 -11.6 Q3.25 -10.95 2.35 -10.9 L2.25 -10.9 1.25 -10.9 1.35 -11.65 1.2 -11.85 Q0.45 -12.6 -0.6 -12.55 L-1.15 -12.4 Q-2.0 -12.15 -1.95 -11.35 L-1.85 -11.2 -1.45 -10.9 -2.05 -10.9 -4.65 -10.95 -6.8 -11.0 -10.15 -11.1 Q-10.45 -11.1 -10.6 -11.45 -11.05 -12.85 -9.7 -13.25 L-9.35 -13.35 -7.35 -13.7 Q-7.75 -14.1 -7.75 -14.6 L-7.75 -14.75 -7.75 -15.45 -7.7 -16.15 -6.4 -17.1 -6.2 -17.2 -6.05 -17.25 -5.7 -17.3 -5.7 -17.35 Q-4.95 -17.4 -4.5 -16.85 L-4.4 -16.75 Q-2.1 -16.9 -0.15 -16.0 1.4 -16.55 2.45 -15.45 L3.05 -14.65 4.2 -14.7 4.65 -14.9 4.75 -15.0" fill="url(#gradient3)" fill-rule="evenodd" stroke="none"/>
    <path d="M1.1 -10.15 L1.05 -9.85 0.9 -9.6 0.75 -9.4 0.75 -5.1 -1.05 -4.7 -1.05 -9.3 -1.05 -10.35 -1.05 -10.45 -1.45 -10.9 -1.85 -11.2 -1.95 -11.35 Q-2.0 -12.15 -1.15 -12.4 L-0.6 -12.55 Q0.45 -12.6 1.2 -11.85 L1.35 -11.65 1.25 -10.9 1.2 -10.7 1.1 -10.15" fill="url(#gradient4)" fill-rule="evenodd" stroke="none"/>
    <path d="M0.75 -5.1 L0.9 -5.15 Q5.85 -5.45 5.95 -0.9 6.05 2.4 2.75 3.7 L1.55 4.1 Q-2.5 5.25 -4.95 2.3 -5.6 1.5 -5.5 0.4 -5.3 -1.35 -4.0 -2.7 -2.7 -4.1 -1.05 -4.7 L0.75 -5.1" fill="url(#gradient5)" fill-rule="evenodd" stroke="none"/>
  </g>
  <defs>
    <radialGradient cx="0" cy="0" gradientTransform="matrix(0.003, 0.0, 0.0, 0.003, 2.8, -12.45)" gradientUnits="userSpaceOnUse" id="gradient0" r="819.2" spreadMethod="pad">
      <stop offset="0.0" stop-color="#4e0707"/>
      <stop offset="0.16470588235294117" stop-color="#b41010"/>
      <stop offset="0.5294117647058824" stop-color="#e23612"/>
      <stop offset="0.807843137254902" stop-color="#fd5037"/>
      <stop offset="1.0" stop-color="#fd5037" stop-opacity="0.0"/>
    </radialGradient>
    <radialGradient cx="0" cy="0" gradientTransform="matrix(0.0125, 0.0, 0.0, 0.0125, 0.3, -12.8)" gradientUnits="userSpaceOnUse" id="gradient1" r="819.2" spreadMethod="pad">
      <stop offset="0.0" stop-color="#4e0707"/>
      <stop offset="0.16470588235294117" stop-color="#b41010"/>
      <stop offset="0.5294117647058824" stop-color="#e23612"/>
      <stop offset="0.807843137254902" stop-color="#fd5037"/>
      <stop offset="1.0" stop-color="#fd5037" stop-opacity="0.0"/>
    </radialGradient>
    <radialGradient cx="0" cy="0" gradientTransform="matrix(0.0042, 0.0, 0.0, 0.0042, -3.2, -12.5)" gradientUnits="userSpaceOnUse" id="gradient2" r="819.2" spreadMethod="pad">
      <stop offset="0.0" stop-color="#4e0707"/>
      <stop offset="0.16470588235294117" stop-color="#b41010"/>
      <stop offset="0.5294117647058824" stop-color="#e23612"/>
      <stop offset="0.807843137254902" stop-color="#fd5037"/>
      <stop offset="1.0" stop-color="#fd5037" stop-opacity="0.0"/>
    </radialGradient>
    <radialGradient cx="0" cy="0" gradientTransform="matrix(0.0148, 0.0, 0.0, 0.0148, 0.7, -14.1)" gradientUnits="userSpaceOnUse" id="gradient3" r="819.2" spreadMethod="pad">
      <stop offset="0.0" stop-color="#4e0707"/>
      <stop offset="0.16470588235294117" stop-color="#b41010"/>
      <stop offset="0.5294117647058824" stop-color="#e23612"/>
      <stop offset="0.807843137254902" stop-color="#fd5037"/>
      <stop offset="1.0" stop-color="#fd5037" stop-opacity="0.0"/>
    </radialGradient>
    <radialGradient cx="0" cy="0" gradientTransform="matrix(0.0085, 0.0, 0.0, 0.0085, -0.45, -6.0)" gradientUnits="userSpaceOnUse" id="gradient4" r="819.2" spreadMethod="pad">
      <stop offset="0.0" stop-color="#4e0707"/>
      <stop offset="0.16470588235294117" stop-color="#b41010"/>
      <stop offset="0.5294117647058824" stop-color="#e23612"/>
      <stop offset="0.807843137254902" stop-color="#fd5037"/>
      <stop offset="1.0" stop-color="#fd5037" stop-opacity="0.0"/>
    </radialGradient>
    <radialGradient cx="0" cy="0" gradientTransform="matrix(0.008, 0.0, 0.0, 0.008, 0.2, -0.35)" gradientUnits="userSpaceOnUse" id="gradient5" r="819.2" spreadMethod="pad">
      <stop offset="0.0" stop-color="#4e0707"/>
      <stop offset="0.16470588235294117" stop-color="#b41010"/>
      <stop offset="0.5294117647058824" stop-color="#e23612"/>
      <stop offset="0.807843137254902" stop-color="#fd5037"/>
      <stop offset="1.0" stop-color="#fd5037" stop-opacity="0.0"/>
    </radialGradient>
  </defs>
</svg>
