<?xml version="1.0" encoding="UTF-8" standalone="no"?>
<svg xmlns:xlink="http://www.w3.org/1999/xlink" height="17.5px" width="17.5px" xmlns="http://www.w3.org/2000/svg">
  <g transform="matrix(1.0, 0.0, 0.0, 1.0, 7.4, 36.0)">
    <path d="M6.8 -32.75 L7.15 -32.35 Q9.1 -30.2 9.1 -27.25 9.1 -24.05 6.8 -21.8 L6.45 -21.45 Q4.3 -19.5 1.35 -19.5 -1.65 -19.5 -3.85 -21.55 L-4.15 -21.8 Q-6.4 -24.05 -6.4 -27.25 -6.4 -30.1 -4.55 -32.25 L-4.15 -32.75 Q-1.85 -35.0 1.35 -35.0 4.55 -35.0 6.8 -32.75" fill="url(#gradient0)" fill-rule="evenodd" stroke="none"/>
    <path d="M6.8 -32.75 L7.15 -32.35 Q9.1 -30.2 9.1 -27.25 9.1 -24.05 6.8 -21.8 L6.45 -21.45 Q4.3 -19.5 1.35 -19.5 -1.65 -19.5 -3.85 -21.55 L-4.15 -21.8 Q-6.4 -24.05 -6.4 -27.25 -6.4 -30.1 -4.55 -32.25 L-4.15 -32.75 Q-1.85 -35.0 1.35 -35.0 4.55 -35.0 6.8 -32.75 Z" fill="none" stroke="#000000" stroke-linecap="round" stroke-linejoin="round" stroke-width="2.0"/>
  </g>
  <defs>
    <linearGradient gradientTransform="matrix(0.0095, 0.0, 0.0, 0.0095, 1.35, -27.25)" gradientUnits="userSpaceOnUse" id="gradient0" spreadMethod="pad" x1="-819.2" x2="819.2">
      <stop offset="0.0" stop-color="#ffcc99"/>
      <stop offset="0.6901960784313725" stop-color="#ffe6cf"/>
      <stop offset="0.7411764705882353" stop-color="#ffe6cf"/>
      <stop offset="0.792156862745098" stop-color="#ffe6cf"/>
      <stop offset="0.8352941176470589" stop-color="#ffe7d0"/>
      <stop offset="1.0" stop-color="#ffffff"/>
    </linearGradient>
  </defs>
</svg>
