<?xml version="1.0" encoding="UTF-8" standalone="no"?>
<svg xmlns:xlink="http://www.w3.org/1999/xlink" height="11.7px" width="7.25px" xmlns="http://www.w3.org/2000/svg">
  <g transform="matrix(1.0, 0.0, 0.0, 1.0, -4.5, -0.8)">
    <path d="M8.35 12.25 Q7.65 11.55 7.2 10.35 L6.35 8.25 5.35 5.4 4.65 2.45 Q4.45 1.8 4.75 1.05 6.4 1.25 7.9 2.2 9.45 3.15 10.55 4.75 L11.5 6.95 Q10.6 5.1 8.2 5.15 9.4 6.2 10.15 8.45 L10.55 9.75 Q9.6 8.85 8.25 8.3 9.25 9.7 9.4 11.45 9.15 11.2 7.9 10.75 L8.35 12.25" fill="url(#gradient0)" fill-rule="evenodd" stroke="none"/>
    <path d="M4.75 1.05 Q6.4 1.25 7.9 2.2 9.45 3.15 10.55 4.75 L11.5 6.95 Q10.6 5.1 8.2 5.15 9.4 6.2 10.15 8.45 L10.55 9.75 Q9.6 8.85 8.25 8.3 9.25 9.7 9.4 11.45 9.15 11.2 7.9 10.75 L8.35 12.25" fill="none" stroke="#000000" stroke-linecap="round" stroke-linejoin="round" stroke-width="0.5"/>
  </g>
  <defs>
    <radialGradient cx="0" cy="0" gradientTransform="matrix(-0.0105, 0.0028, 0.0028, 0.0105, 6.35, 3.6)" gradientUnits="userSpaceOnUse" id="gradient0" r="819.2" spreadMethod="pad">
      <stop offset="0.3215686274509804" stop-color="#8c6b37"/>
      <stop offset="1.0" stop-color="#3c301a"/>
    </radialGradient>
  </defs>
</svg>
