<?xml version="1.0" encoding="UTF-8" standalone="no"?>
<svg xmlns:xlink="http://www.w3.org/1999/xlink" height="16.3px" width="20.6px" xmlns="http://www.w3.org/2000/svg">
  <g transform="matrix(1.0, 0.0, 0.0, 1.0, 10.3, 14.2)">
    <path d="M-6.45 -10.8 Q-9.05 -8.95 -9.05 -6.35 -9.05 -3.75 -6.45 -1.9 -3.85 -0.05 -0.2 -0.05 3.45 -0.05 6.05 -1.9 8.65 -3.75 8.65 -6.35 8.65 -8.95 6.05 -10.8 3.45 -12.65 -0.2 -12.65 -3.85 -12.65 -6.45 -10.8 M-7.1 -11.3 Q-4.15 -13.55 0.0 -13.55 4.15 -13.55 7.1 -11.3 10.05 -9.05 10.05 -5.85 10.05 -2.65 7.1 -0.4 4.15 1.85 0.0 1.85 -4.15 1.85 -7.1 -0.4 -10.05 -2.65 -10.05 -5.85 -10.05 -9.05 -7.1 -11.3" fill="url(#gradient0)" fill-rule="evenodd" stroke="none"/>
    <path d="M-6.45 -10.8 Q-3.85 -12.65 -0.2 -12.65 3.45 -12.65 6.05 -10.8 8.65 -8.95 8.65 -6.35 8.65 -3.75 6.05 -1.9 3.45 -0.05 -0.2 -0.05 -3.85 -0.05 -6.45 -1.9 -9.05 -3.75 -9.05 -6.35 -9.05 -8.95 -6.45 -10.8" fill="url(#gradient1)" fill-rule="evenodd" stroke="none"/>
    <path d="M-6.45 -10.8 Q-3.85 -12.65 -0.2 -12.65 3.45 -12.65 6.05 -10.8 8.65 -8.95 8.65 -6.35 8.65 -3.75 6.05 -1.9 3.45 -0.05 -0.2 -0.05 -3.85 -0.05 -6.45 -1.9 -9.05 -3.75 -9.05 -6.35 -9.05 -8.95 -6.45 -10.8 M-7.1 -11.3 Q-4.15 -13.55 0.0 -13.55 4.15 -13.55 7.1 -11.3 10.05 -9.05 10.05 -5.85 10.05 -2.65 7.1 -0.4 4.15 1.85 0.0 1.85 -4.15 1.85 -7.1 -0.4 -10.05 -2.65 -10.05 -5.85 -10.05 -9.05 -7.1 -11.3 Z" fill="none" stroke="#000000" stroke-linecap="round" stroke-linejoin="round" stroke-width="0.5"/>
    <path d="M-4.8 -12.45 L-4.6 -13.25 -3.9 -13.65 -3.05 -13.5 Q-2.7 -13.25 -2.65 -12.8 -2.5 -12.05 -2.8 -11.6 L-2.95 -9.05 Q-3.9 -11.25 -4.2 -11.45 L-4.8 -12.45" fill="url(#gradient2)" fill-rule="evenodd" stroke="none"/>
    <path d="M-4.8 -12.45 L-4.6 -13.25 -3.9 -13.65 -3.05 -13.5 Q-2.7 -13.25 -2.65 -12.8 -2.5 -12.05 -2.8 -11.6 L-2.95 -9.05 Q-3.9 -11.25 -4.2 -11.45 L-4.8 -12.45 Z" fill="none" stroke="#000000" stroke-linecap="round" stroke-linejoin="round" stroke-width="0.5"/>
    <path d="M6.45 -10.7 L7.15 -11.2 8.0 -11.1 8.5 -10.4 Q8.65 -10.0 8.4 -9.6 8.0 -8.95 7.45 -8.8 L5.75 -6.95 Q6.4 -9.2 6.3 -9.55 6.15 -10.15 6.45 -10.7" fill="url(#gradient3)" fill-rule="evenodd" stroke="none"/>
    <path d="M6.45 -10.7 L7.15 -11.2 8.0 -11.1 8.5 -10.4 Q8.65 -10.0 8.4 -9.6 8.0 -8.95 7.45 -8.8 L5.75 -6.95 Q6.4 -9.2 6.3 -9.55 6.15 -10.15 6.45 -10.7 Z" fill="none" stroke="#000000" stroke-linecap="round" stroke-linejoin="round" stroke-width="0.5"/>
    <path d="M-2.3 -13.05 L-1.95 -13.55 -1.15 -13.75 -0.4 -13.55 -0.05 -13.05 Q-0.05 -12.5 -0.45 -12.25 L-1.05 -10.6 Q-1.6 -12.15 -1.85 -12.3 -2.3 -12.6 -2.3 -13.05" fill="url(#gradient4)" fill-rule="evenodd" stroke="none"/>
    <path d="M-2.3 -13.05 L-1.95 -13.55 -1.15 -13.75 -0.4 -13.55 -0.05 -13.05 Q-0.05 -12.5 -0.45 -12.25 L-1.05 -10.6 Q-1.6 -12.15 -1.85 -12.3 -2.3 -12.6 -2.3 -13.05 Z" fill="none" stroke="#000000" stroke-linecap="round" stroke-linejoin="round" stroke-width="0.5"/>
    <path d="M0.05 -13.05 L0.4 -13.55 1.2 -13.75 1.95 -13.55 2.3 -13.05 Q2.3 -12.5 1.9 -12.25 L1.3 -10.6 0.5 -12.3 Q0.05 -12.6 0.05 -13.05" fill="url(#gradient5)" fill-rule="evenodd" stroke="none"/>
    <path d="M0.05 -13.05 L0.4 -13.55 1.2 -13.75 1.95 -13.55 2.3 -13.05 Q2.3 -12.5 1.9 -12.25 L1.3 -10.6 0.5 -12.3 Q0.05 -12.6 0.05 -13.05 Z" fill="none" stroke="#000000" stroke-linecap="round" stroke-linejoin="round" stroke-width="0.5"/>
    <path d="M2.65 -13.05 Q2.7 -13.5 3.05 -13.75 L3.85 -13.95 4.6 -13.5 4.8 -12.7 4.25 -11.6 3.2 -9.25 2.85 -11.95 Q2.5 -12.4 2.65 -13.05" fill="url(#gradient6)" fill-rule="evenodd" stroke="none"/>
    <path d="M2.65 -13.05 Q2.7 -13.5 3.05 -13.75 L3.85 -13.95 4.6 -13.5 4.8 -12.7 4.25 -11.6 3.2 -9.25 2.85 -11.95 Q2.5 -12.4 2.65 -13.05 Z" fill="none" stroke="#000000" stroke-linecap="round" stroke-linejoin="round" stroke-width="0.5"/>
    <path d="M-6.7 -11.2 L-6.65 -12.05 -6.0 -12.6 -5.15 -12.6 -4.6 -11.95 Q-4.35 -11.25 -4.6 -10.7 -4.2 -8.25 -4.3 -8.2 L-5.95 -10.3 Q-6.5 -10.6 -6.7 -11.2" fill="url(#gradient7)" fill-rule="evenodd" stroke="none"/>
    <path d="M-6.7 -11.2 L-6.65 -12.05 -6.0 -12.6 -5.15 -12.6 -4.6 -11.95 Q-4.35 -11.25 -4.6 -10.7 -4.2 -8.25 -4.3 -8.2 L-5.95 -10.3 Q-6.5 -10.6 -6.7 -11.2 Z" fill="none" stroke="#000000" stroke-linecap="round" stroke-linejoin="round" stroke-width="0.5"/>
    <path d="M4.6 -12.0 L5.15 -12.65 6.0 -12.7 6.65 -12.1 6.7 -11.25 Q6.45 -10.55 5.9 -10.3 L4.5 -8.2 4.65 -10.9 Q4.4 -11.4 4.6 -12.0" fill="url(#gradient8)" fill-rule="evenodd" stroke="none"/>
    <path d="M4.6 -12.0 L5.15 -12.65 6.0 -12.7 6.65 -12.1 6.7 -11.25 Q6.45 -10.55 5.9 -10.3 L4.5 -8.2 4.65 -10.9 Q4.4 -11.4 4.6 -12.0 Z" fill="none" stroke="#000000" stroke-linecap="round" stroke-linejoin="round" stroke-width="0.5"/>
    <path d="M-8.3 -9.7 Q-8.55 -10.1 -8.4 -10.55 L-7.85 -11.2 -7.05 -11.3 Q-6.6 -11.2 -6.35 -10.8 -5.95 -10.15 -6.15 -9.65 L-5.4 -7.2 -7.35 -8.95 Q-8.0 -9.15 -8.3 -9.7" fill="url(#gradient9)" fill-rule="evenodd" stroke="none"/>
    <path d="M-8.3 -9.7 Q-8.55 -10.1 -8.4 -10.55 L-7.85 -11.2 -7.05 -11.3 Q-6.6 -11.2 -6.35 -10.8 -5.95 -10.15 -6.15 -9.65 L-5.4 -7.2 -7.35 -8.95 Q-8.0 -9.15 -8.3 -9.7 Z" fill="none" stroke="#000000" stroke-linecap="round" stroke-linejoin="round" stroke-width="0.5"/>
  </g>
  <defs>
    <radialGradient cx="0" cy="0" gradientTransform="matrix(0.0123, 0.0, 0.0, 0.0123, 0.0, -5.85)" gradientUnits="userSpaceOnUse" id="gradient0" r="819.2" spreadMethod="pad">
      <stop offset="0.3215686274509804" stop-color="#8c6b37"/>
      <stop offset="1.0" stop-color="#3c301a"/>
    </radialGradient>
    <radialGradient cx="0" cy="0" gradientTransform="matrix(0.0108, 0.0, 0.0, 0.0108, -0.2, -6.35)" gradientUnits="userSpaceOnUse" id="gradient1" r="819.2" spreadMethod="pad">
      <stop offset="0.3215686274509804" stop-color="#f32121"/>
      <stop offset="1.0" stop-color="#3c301a"/>
    </radialGradient>
    <radialGradient cx="0" cy="0" gradientTransform="matrix(-0.0017, 3.0E-4, -3.0E-4, -0.0017, -3.75, -12.6)" gradientUnits="userSpaceOnUse" id="gradient2" r="819.2" spreadMethod="pad">
      <stop offset="0.0" stop-color="#bebe4b"/>
      <stop offset="1.0" stop-color="#ffffff"/>
    </radialGradient>
    <radialGradient cx="0" cy="0" gradientTransform="matrix(-0.0015, -9.0E-4, 9.0E-4, -0.0015, 7.45, -10.15)" gradientUnits="userSpaceOnUse" id="gradient3" r="819.2" spreadMethod="pad">
      <stop offset="0.0" stop-color="#bebe4b"/>
      <stop offset="1.0" stop-color="#ffffff"/>
    </radialGradient>
    <radialGradient cx="0" cy="0" gradientTransform="matrix(-0.0018, 0.0, 0.0, -0.0012, -1.15, -13.05)" gradientUnits="userSpaceOnUse" id="gradient4" r="819.2" spreadMethod="pad">
      <stop offset="0.0" stop-color="#bebe4b"/>
      <stop offset="1.0" stop-color="#ffffff"/>
    </radialGradient>
    <radialGradient cx="0" cy="0" gradientTransform="matrix(-0.0018, 0.0, 0.0, -0.0012, 1.2, -13.05)" gradientUnits="userSpaceOnUse" id="gradient5" r="819.2" spreadMethod="pad">
      <stop offset="0.0" stop-color="#bebe4b"/>
      <stop offset="1.0" stop-color="#ffffff"/>
    </radialGradient>
    <radialGradient cx="0" cy="0" gradientTransform="matrix(-0.0017, -3.0E-4, 3.0E-4, -0.0017, 3.7, -12.9)" gradientUnits="userSpaceOnUse" id="gradient6" r="819.2" spreadMethod="pad">
      <stop offset="0.0" stop-color="#bebe4b"/>
      <stop offset="1.0" stop-color="#ffffff"/>
    </radialGradient>
    <radialGradient cx="0" cy="0" gradientTransform="matrix(-0.0016, 6.0E-4, -6.0E-4, -0.0016, -5.65, -11.55)" gradientUnits="userSpaceOnUse" id="gradient7" r="819.2" spreadMethod="pad">
      <stop offset="0.0" stop-color="#bebe4b"/>
      <stop offset="1.0" stop-color="#ffffff"/>
    </radialGradient>
    <radialGradient cx="0" cy="0" gradientTransform="matrix(-0.0016, -6.0E-4, 6.0E-4, -0.0016, 5.65, -11.65)" gradientUnits="userSpaceOnUse" id="gradient8" r="819.2" spreadMethod="pad">
      <stop offset="0.0" stop-color="#bebe4b"/>
      <stop offset="1.0" stop-color="#ffffff"/>
    </radialGradient>
    <radialGradient cx="0" cy="0" gradientTransform="matrix(-0.0015, 9.0E-4, -9.0E-4, -0.0015, -7.3, -10.25)" gradientUnits="userSpaceOnUse" id="gradient9" r="819.2" spreadMethod="pad">
      <stop offset="0.0" stop-color="#bebe4b"/>
      <stop offset="1.0" stop-color="#ffffff"/>
    </radialGradient>
  </defs>
</svg>
