<?xml version="1.0" encoding="UTF-8" standalone="no"?>
<svg xmlns:xlink="http://www.w3.org/1999/xlink" height="17.2px" width="29.2px" xmlns="http://www.w3.org/2000/svg">
  <g transform="matrix(1.0, 0.0, 0.0, 1.0, 14.7, 4.15)">
    <path d="M14.15 4.25 Q13.9 3.75 13.0 3.55 L13.55 8.3 Q13.15 7.0 12.25 7.55 11.95 7.75 11.9 8.15 11.85 9.35 11.2 10.2 9.85 8.7 8.6 10.65 L8.35 11.05 7.85 10.55 Q8.1 11.35 7.2 11.85 7.35 11.15 6.7 10.85 6.55 11.8 5.4 12.15 L3.65 12.2 Q2.8 11.4 1.8 12.65 1.55 11.75 0.5 12.3 0.5 11.95 0.0 11.95 L-0.6 12.45 Q-1.15 13.0 -1.7 12.25 -2.3 11.9 -3.45 12.8 -3.35 12.2 -3.6 11.85 -4.5 12.85 -5.1 11.6 L-6.1 12.3 -6.45 11.75 Q-6.7 10.95 -7.1 10.75 L-8.0 10.8 -10.2 9.4 -10.7 10.35 Q-11.7 8.95 -12.05 7.4 L-13.15 8.5 -13.05 4.15 -14.45 4.85 -14.3 3.8 Q-13.65 1.9 -11.95 0.8 -13.05 1.0 -13.75 1.55 -13.35 0.5 -12.4 -0.4 -11.05 -1.75 -8.95 -2.3 L-11.1 -2.1 -10.6 -2.5 Q-9.1 -3.3 -7.35 -3.55 L-6.4 -3.65 -3.6 -3.8 0.3 -3.8 4.35 -3.9 8.25 -3.55 Q9.5 -3.35 10.35 -2.6 L8.45 -2.85 Q10.9 -1.45 13.1 0.3 L11.5 0.1 Q13.65 1.85 14.15 4.25 M7.6 10.15 L7.85 10.55 7.6 10.15" fill="url(#gradient0)" fill-rule="evenodd" stroke="none"/>
    <path d="M14.15 4.25 Q13.9 3.75 13.0 3.55 L13.55 8.3 Q13.15 7.0 12.25 7.55 11.95 7.75 11.9 8.15 11.85 9.35 11.2 10.2 9.85 8.7 8.6 10.65 L8.35 11.05 7.85 10.55 Q8.1 11.35 7.2 11.85 7.35 11.15 6.7 10.85 6.55 11.8 5.4 12.15 L3.65 12.2 Q2.8 11.4 1.8 12.65 1.55 11.75 0.5 12.3 0.5 11.95 0.0 11.95 L-0.6 12.45 Q-1.15 13.0 -1.7 12.25 -2.3 11.9 -3.45 12.8 -3.35 12.2 -3.6 11.85 -4.5 12.85 -5.1 11.6 L-6.1 12.3 -6.45 11.75 Q-6.7 10.95 -7.1 10.75 L-8.0 10.8 -10.2 9.4 -10.7 10.35 Q-11.7 8.95 -12.05 7.4 L-13.15 8.5 -13.05 4.15 -14.45 4.85 -14.3 3.8 Q-13.65 1.9 -11.95 0.8 -13.05 1.0 -13.75 1.55 -13.35 0.5 -12.4 -0.4 -11.05 -1.75 -8.95 -2.3 L-11.1 -2.1 -10.6 -2.5 Q-9.1 -3.3 -7.35 -3.55 L-6.4 -3.65 -3.6 -3.8 0.3 -3.8 4.35 -3.9 8.25 -3.55 Q9.5 -3.35 10.35 -2.6 L8.45 -2.85 Q10.9 -1.45 13.1 0.3 L11.5 0.1 Q13.65 1.85 14.15 4.25 L14.25 4.8 M7.85 10.55 L7.6 10.15" fill="none" stroke="#000000" stroke-linecap="round" stroke-linejoin="round" stroke-width="0.5"/>
  </g>
  <defs>
    <radialGradient cx="0" cy="0" gradientTransform="matrix(0.0185, 0.0, 0.0, 0.0129, 0.15, 4.1)" gradientUnits="userSpaceOnUse" id="gradient0" r="819.2" spreadMethod="pad">
      <stop offset="0.3215686274509804" stop-color="#8c6b37"/>
      <stop offset="1.0" stop-color="#3c301a"/>
    </radialGradient>
  </defs>
</svg>
