<?xml version="1.0" encoding="UTF-8" standalone="no"?>
<svg xmlns:xlink="http://www.w3.org/1999/xlink" height="12.5px" width="20.0px" xmlns="http://www.w3.org/2000/svg">
  <g transform="matrix(1.0, 0.0, 0.0, 1.0, 9.85, 1.0)">
    <path d="M-4.55 -0.75 Q-4.1 -0.05 -4.1 0.6 L-4.05 3.6 -4.25 6.65 -4.5 8.9 Q-4.65 10.15 -5.15 11.05 L-5.15 9.45 -6.35 10.5 Q-6.7 8.8 -6.05 7.2 -7.25 8.05 -7.95 9.15 L-7.9 7.8 Q-7.7 5.45 -6.85 4.15 -9.15 4.7 -9.6 6.75 -9.6 5.5 -9.2 4.35 -8.55 2.55 -7.3 1.2 -6.1 -0.1 -4.55 -0.75" fill="url(#gradient0)" fill-rule="evenodd" stroke="none"/>
    <path d="M-4.55 -0.75 Q-6.1 -0.1 -7.3 1.2 -8.55 2.55 -9.2 4.35 -9.6 5.5 -9.6 6.75 -9.15 4.7 -6.85 4.15 -7.7 5.45 -7.9 7.8 L-7.95 9.15 Q-7.25 8.05 -6.05 7.2 -6.7 8.8 -6.35 10.5 L-5.15 9.45 -5.15 11.05" fill="none" stroke="#000000" stroke-linecap="round" stroke-linejoin="round" stroke-width="0.5"/>
    <path d="M4.85 -0.55 Q6.4 0.1 7.6 1.4 8.85 2.75 9.5 4.55 9.9 5.7 9.9 6.95 9.45 4.9 7.15 4.35 8.0 5.65 8.2 8.0 L8.25 9.35 Q7.55 8.25 6.35 7.4 7.0 9.0 6.65 10.7 L5.45 9.65 5.45 11.25 Q4.95 10.35 4.8 9.1 L4.55 6.85 4.35 3.8 4.4 0.8 Q4.4 0.15 4.85 -0.55" fill="url(#gradient1)" fill-rule="evenodd" stroke="none"/>
    <path d="M4.85 -0.55 Q6.4 0.1 7.6 1.4 8.85 2.75 9.5 4.55 9.9 5.7 9.9 6.95 9.45 4.9 7.15 4.35 8.0 5.65 8.2 8.0 L8.25 9.35 Q7.55 8.25 6.35 7.4 7.0 9.0 6.65 10.7 L5.45 9.65 5.45 11.25" fill="none" stroke="#000000" stroke-linecap="round" stroke-linejoin="round" stroke-width="0.5"/>
  </g>
  <defs>
    <radialGradient cx="0" cy="0" gradientTransform="matrix(0.0109, 0.0, 0.0, 0.0109, -5.45, 2.15)" gradientUnits="userSpaceOnUse" id="gradient0" r="819.2" spreadMethod="pad">
      <stop offset="0.3215686274509804" stop-color="#8c6b37"/>
      <stop offset="1.0" stop-color="#3c301a"/>
    </radialGradient>
    <radialGradient cx="0" cy="0" gradientTransform="matrix(-0.0109, 0.0, 0.0, 0.0109, 5.75, 2.35)" gradientUnits="userSpaceOnUse" id="gradient1" r="819.2" spreadMethod="pad">
      <stop offset="0.3215686274509804" stop-color="#8c6b37"/>
      <stop offset="1.0" stop-color="#3c301a"/>
    </radialGradient>
  </defs>
</svg>
