<?xml version="1.0" encoding="UTF-8" standalone="no"?>
<svg xmlns:xlink="http://www.w3.org/1999/xlink" height="46.0px" width="46.5px" xmlns="http://www.w3.org/2000/svg">
  <g transform="matrix(1.0, 0.0, 0.0, 1.0, 23.25, 23.0)">
    <path d="M0.0 -22.5 Q9.4 -22.5 16.05 -15.9 22.75 -9.3 22.75 0.0 22.75 9.3 16.05 15.9 9.4 22.5 0.0 22.5 -9.4 22.5 -16.1 15.9 -22.75 9.3 -22.75 0.0 -22.75 -9.3 -16.1 -15.9 -9.4 -22.5 0.0 -22.5 Z" fill="none" stroke="#000000" stroke-linecap="round" stroke-linejoin="round" stroke-width="1.0"/>
    <path d="M-7.05 5.5 L-6.85 3.3 Q-6.8 2.55 -7.35 2.1 -7.9 1.65 -8.65 1.65 -10.7 1.65 -10.85 3.65 L-12.4 3.65 -9.95 1.0 -15.15 1.0 -18.4 4.3 Q-19.05 4.95 -19.05 5.9 -19.05 6.65 -18.45 7.1 -17.9 7.5 -17.1 7.5 L-9.25 7.5 Q-7.55 7.5 -7.05 5.5 M-18.1 -2.65 Q-18.1 -1.7 -17.75 -1.0 L-14.0 -1.0 Q-13.85 -1.35 -13.85 -1.8 L-13.85 -2.3 -13.9 -2.75 Q-13.9 -4.3 -12.6 -4.3 -11.55 -4.3 -11.55 -3.3 -11.55 -2.65 -12.0 -2.2 L-13.15 -1.0 -8.15 -1.0 Q-7.05 -2.5 -7.05 -4.0 -7.05 -6.05 -8.6 -7.2 -10.0 -8.25 -12.15 -8.25 -14.7 -8.25 -16.35 -6.75 -18.1 -5.15 -18.1 -2.65 M6.2 1.0 L1.95 1.0 1.8 1.95 Q1.6 4.0 0.0 4.0 -1.4 4.0 -1.4 2.3 L-1.3 1.0 -5.55 1.0 -5.75 2.75 Q-5.8 4.95 -4.25 6.45 -2.65 7.9 -0.45 7.9 2.1 7.9 3.9 6.3 5.75 4.7 6.05 2.2 L6.2 1.0 M18.85 2.2 L19.0 1.0 14.75 1.0 14.6 1.95 Q14.4 4.0 12.8 4.0 11.4 4.0 11.4 2.3 L11.5 1.0 7.25 1.0 7.05 2.75 Q7.0 4.95 8.55 6.45 10.15 7.9 12.35 7.9 14.9 7.9 16.7 6.3 18.55 4.7 18.85 2.2 M20.35 -8.05 Q21.75 -6.55 21.8 -4.5 L21.8 4.5 Q21.75 6.55 20.35 8.0 19.0 9.5 17.05 9.5 L-17.0 9.5 Q-18.95 9.5 -20.35 8.0 -21.7 6.55 -21.7 4.5 L-21.7 -4.5 Q-21.7 -6.55 -20.35 -8.05 -18.95 -9.5 -17.0 -9.5 L17.05 -9.5 Q19.0 -9.5 20.35 -8.05 M9.7 -6.7 Q7.9 -5.15 7.6 -2.6 L7.45 -1.0 11.6 -1.0 Q11.75 -2.3 12.05 -3.05 12.6 -4.4 13.7 -4.4 15.15 -4.4 15.05 -2.8 L14.9 -1.0 19.2 -1.0 19.4 -3.35 Q19.45 -5.6 17.85 -6.95 16.3 -8.25 14.05 -8.25 11.5 -8.25 9.7 -6.7 M6.4 -1.0 L6.6 -3.35 Q6.65 -5.6 5.05 -6.95 3.5 -8.25 1.25 -8.25 -1.3 -8.25 -3.1 -6.7 -4.9 -5.15 -5.2 -2.6 L-5.35 -1.0 -1.2 -1.0 -0.75 -3.05 Q-0.2 -4.4 0.9 -4.4 2.35 -4.4 2.25 -2.8 L2.1 -1.0 6.4 -1.0" fill="#000000" fill-rule="evenodd" stroke="none"/>
  </g>
</svg>
