<?xml version="1.0" encoding="UTF-8" standalone="no"?>
<svg xmlns:xlink="http://www.w3.org/1999/xlink" height="16.3px" width="20.6px" xmlns="http://www.w3.org/2000/svg">
  <g transform="matrix(1.0, 0.0, 0.0, 1.0, 10.3, 16.85)">
    <path d="M-7.1 -13.95 Q-4.15 -16.2 0.0 -16.2 4.15 -16.2 7.1 -13.95 10.05 -11.7 10.05 -8.5 10.05 -5.3 7.1 -3.05 4.15 -0.8 0.0 -0.8 -4.15 -0.8 -7.1 -3.05 -10.05 -5.3 -10.05 -8.5 -10.05 -11.7 -7.1 -13.95 M-9.05 -9.0 Q-9.05 -6.4 -6.45 -4.55 -3.85 -2.7 -0.2 -2.7 3.45 -2.7 6.05 -4.55 8.65 -6.4 8.65 -9.0 8.65 -11.6 6.05 -13.45 3.45 -15.3 -0.2 -15.3 -3.85 -15.3 -6.45 -13.45 -9.05 -11.6 -9.05 -9.0" fill="url(#gradient0)" fill-rule="evenodd" stroke="none"/>
    <path d="M-9.05 -9.0 Q-9.05 -11.6 -6.45 -13.45 -3.85 -15.3 -0.2 -15.3 3.45 -15.3 6.05 -13.45 8.65 -11.6 8.65 -9.0 8.65 -6.4 6.05 -4.55 3.45 -2.7 -0.2 -2.7 -3.85 -2.7 -6.45 -4.55 -9.05 -6.4 -9.05 -9.0" fill="url(#gradient1)" fill-rule="evenodd" stroke="none"/>
    <path d="M-7.1 -13.95 Q-4.15 -16.2 0.0 -16.2 4.15 -16.2 7.1 -13.95 10.05 -11.7 10.05 -8.5 10.05 -5.3 7.1 -3.05 4.15 -0.8 0.0 -0.8 -4.15 -0.8 -7.1 -3.05 -10.05 -5.3 -10.05 -8.5 -10.05 -11.7 -7.1 -13.95 M-9.05 -9.0 Q-9.05 -11.6 -6.45 -13.45 -3.85 -15.3 -0.2 -15.3 3.45 -15.3 6.05 -13.45 8.65 -11.6 8.65 -9.0 8.65 -6.4 6.05 -4.55 3.45 -2.7 -0.2 -2.7 -3.85 -2.7 -6.45 -4.55 -9.05 -6.4 -9.05 -9.0 Z" fill="none" stroke="#000000" stroke-linecap="round" stroke-linejoin="round" stroke-width="0.5"/>
    <path d="M-4.8 -15.1 L-4.6 -15.9 -3.9 -16.3 -3.05 -16.15 Q-2.7 -15.9 -2.65 -15.45 -2.5 -14.7 -2.8 -14.25 L-2.95 -11.7 Q-3.9 -13.9 -4.2 -14.1 L-4.8 -15.1" fill="url(#gradient2)" fill-rule="evenodd" stroke="none"/>
    <path d="M-4.8 -15.1 L-4.6 -15.9 -3.9 -16.3 -3.05 -16.15 Q-2.7 -15.9 -2.65 -15.45 -2.5 -14.7 -2.8 -14.25 L-2.95 -11.7 Q-3.9 -13.9 -4.2 -14.1 L-4.8 -15.1 Z" fill="none" stroke="#000000" stroke-linecap="round" stroke-linejoin="round" stroke-width="0.5"/>
    <path d="M6.45 -13.35 L7.15 -13.85 8.0 -13.75 8.5 -13.05 Q8.65 -12.65 8.4 -12.25 8.0 -11.6 7.45 -11.45 L5.75 -9.6 Q6.4 -11.85 6.3 -12.2 6.15 -12.8 6.45 -13.35" fill="url(#gradient3)" fill-rule="evenodd" stroke="none"/>
    <path d="M6.45 -13.35 L7.15 -13.85 8.0 -13.75 8.5 -13.05 Q8.65 -12.65 8.4 -12.25 8.0 -11.6 7.45 -11.45 L5.75 -9.6 Q6.4 -11.85 6.3 -12.2 6.15 -12.8 6.45 -13.35 Z" fill="none" stroke="#000000" stroke-linecap="round" stroke-linejoin="round" stroke-width="0.5"/>
    <path d="M-2.3 -15.7 L-1.95 -16.2 -1.15 -16.4 -0.4 -16.2 -0.05 -15.7 Q-0.05 -15.15 -0.45 -14.9 L-1.05 -13.25 Q-1.6 -14.8 -1.85 -14.95 -2.3 -15.25 -2.3 -15.7" fill="url(#gradient4)" fill-rule="evenodd" stroke="none"/>
    <path d="M-2.3 -15.7 L-1.95 -16.2 -1.15 -16.4 -0.4 -16.2 -0.05 -15.7 Q-0.05 -15.15 -0.45 -14.9 L-1.05 -13.25 Q-1.6 -14.8 -1.85 -14.95 -2.3 -15.25 -2.3 -15.7 Z" fill="none" stroke="#000000" stroke-linecap="round" stroke-linejoin="round" stroke-width="0.5"/>
    <path d="M0.05 -15.7 L0.4 -16.2 1.2 -16.4 1.95 -16.2 2.3 -15.7 Q2.3 -15.15 1.9 -14.9 L1.3 -13.25 0.5 -14.95 Q0.05 -15.25 0.05 -15.7" fill="url(#gradient5)" fill-rule="evenodd" stroke="none"/>
    <path d="M0.05 -15.7 L0.4 -16.2 1.2 -16.4 1.95 -16.2 2.3 -15.7 Q2.3 -15.15 1.9 -14.9 L1.3 -13.25 0.5 -14.95 Q0.05 -15.25 0.05 -15.7 Z" fill="none" stroke="#000000" stroke-linecap="round" stroke-linejoin="round" stroke-width="0.5"/>
    <path d="M2.65 -15.7 Q2.7 -16.15 3.05 -16.4 L3.85 -16.6 4.6 -16.15 4.8 -15.35 4.25 -14.25 3.2 -11.9 2.85 -14.6 Q2.5 -15.05 2.65 -15.7" fill="url(#gradient6)" fill-rule="evenodd" stroke="none"/>
    <path d="M2.65 -15.7 Q2.7 -16.15 3.05 -16.4 L3.85 -16.6 4.6 -16.15 4.8 -15.35 4.25 -14.25 3.2 -11.9 2.85 -14.6 Q2.5 -15.05 2.65 -15.7 Z" fill="none" stroke="#000000" stroke-linecap="round" stroke-linejoin="round" stroke-width="0.5"/>
    <path d="M-6.7 -13.85 L-6.65 -14.7 -6.0 -15.25 -5.15 -15.25 -4.6 -14.6 Q-4.35 -13.9 -4.6 -13.35 -4.2 -10.9 -4.3 -10.85 L-5.95 -12.95 Q-6.5 -13.25 -6.7 -13.85" fill="url(#gradient7)" fill-rule="evenodd" stroke="none"/>
    <path d="M-6.7 -13.85 L-6.65 -14.7 -6.0 -15.25 -5.15 -15.25 -4.6 -14.6 Q-4.35 -13.9 -4.6 -13.35 -4.2 -10.9 -4.3 -10.85 L-5.95 -12.95 Q-6.5 -13.25 -6.7 -13.85 Z" fill="none" stroke="#000000" stroke-linecap="round" stroke-linejoin="round" stroke-width="0.5"/>
    <path d="M4.6 -14.65 L5.15 -15.3 6.0 -15.35 6.65 -14.75 6.7 -13.9 Q6.45 -13.2 5.9 -12.95 L4.5 -10.85 4.65 -13.55 Q4.4 -14.05 4.6 -14.65" fill="url(#gradient8)" fill-rule="evenodd" stroke="none"/>
    <path d="M4.6 -14.65 L5.15 -15.3 6.0 -15.35 6.65 -14.75 6.7 -13.9 Q6.45 -13.2 5.9 -12.95 L4.5 -10.85 4.65 -13.55 Q4.4 -14.05 4.6 -14.65 Z" fill="none" stroke="#000000" stroke-linecap="round" stroke-linejoin="round" stroke-width="0.5"/>
    <path d="M-8.3 -12.35 Q-8.55 -12.75 -8.4 -13.2 L-7.85 -13.85 -7.05 -13.95 Q-6.6 -13.85 -6.35 -13.45 -5.95 -12.8 -6.15 -12.3 L-5.4 -9.85 -7.35 -11.6 Q-8.0 -11.8 -8.3 -12.35" fill="url(#gradient9)" fill-rule="evenodd" stroke="none"/>
    <path d="M-8.3 -12.35 Q-8.55 -12.75 -8.4 -13.2 L-7.85 -13.85 -7.05 -13.95 Q-6.6 -13.85 -6.35 -13.45 -5.95 -12.8 -6.15 -12.3 L-5.4 -9.85 -7.35 -11.6 Q-8.0 -11.8 -8.3 -12.35 Z" fill="none" stroke="#000000" stroke-linecap="round" stroke-linejoin="round" stroke-width="0.5"/>
  </g>
  <defs>
    <radialGradient cx="0" cy="0" gradientTransform="matrix(0.0123, 0.0, 0.0, 0.0123, 0.0, -8.5)" gradientUnits="userSpaceOnUse" id="gradient0" r="819.2" spreadMethod="pad">
      <stop offset="0.3215686274509804" stop-color="#8c6b37"/>
      <stop offset="1.0" stop-color="#3c301a"/>
    </radialGradient>
    <radialGradient cx="0" cy="0" gradientTransform="matrix(0.0108, 0.0, 0.0, 0.0108, -0.2, -9.0)" gradientUnits="userSpaceOnUse" id="gradient1" r="819.2" spreadMethod="pad">
      <stop offset="0.3215686274509804" stop-color="#f32121"/>
      <stop offset="1.0" stop-color="#3c301a"/>
    </radialGradient>
    <radialGradient cx="0" cy="0" gradientTransform="matrix(-0.0017, 3.0E-4, -3.0E-4, -0.0017, -3.75, -15.25)" gradientUnits="userSpaceOnUse" id="gradient2" r="819.2" spreadMethod="pad">
      <stop offset="0.0" stop-color="#bebe4b"/>
      <stop offset="1.0" stop-color="#ffffff"/>
    </radialGradient>
    <radialGradient cx="0" cy="0" gradientTransform="matrix(-0.0015, -9.0E-4, 9.0E-4, -0.0015, 7.45, -12.8)" gradientUnits="userSpaceOnUse" id="gradient3" r="819.2" spreadMethod="pad">
      <stop offset="0.0" stop-color="#bebe4b"/>
      <stop offset="1.0" stop-color="#ffffff"/>
    </radialGradient>
    <radialGradient cx="0" cy="0" gradientTransform="matrix(-0.0018, 0.0, 0.0, -0.0012, -1.15, -15.7)" gradientUnits="userSpaceOnUse" id="gradient4" r="819.2" spreadMethod="pad">
      <stop offset="0.0" stop-color="#bebe4b"/>
      <stop offset="1.0" stop-color="#ffffff"/>
    </radialGradient>
    <radialGradient cx="0" cy="0" gradientTransform="matrix(-0.0018, 0.0, 0.0, -0.0012, 1.2, -15.7)" gradientUnits="userSpaceOnUse" id="gradient5" r="819.2" spreadMethod="pad">
      <stop offset="0.0" stop-color="#bebe4b"/>
      <stop offset="1.0" stop-color="#ffffff"/>
    </radialGradient>
    <radialGradient cx="0" cy="0" gradientTransform="matrix(-0.0017, -3.0E-4, 3.0E-4, -0.0017, 3.7, -15.55)" gradientUnits="userSpaceOnUse" id="gradient6" r="819.2" spreadMethod="pad">
      <stop offset="0.0" stop-color="#bebe4b"/>
      <stop offset="1.0" stop-color="#ffffff"/>
    </radialGradient>
    <radialGradient cx="0" cy="0" gradientTransform="matrix(-0.0016, 6.0E-4, -6.0E-4, -0.0016, -5.65, -14.2)" gradientUnits="userSpaceOnUse" id="gradient7" r="819.2" spreadMethod="pad">
      <stop offset="0.0" stop-color="#bebe4b"/>
      <stop offset="1.0" stop-color="#ffffff"/>
    </radialGradient>
    <radialGradient cx="0" cy="0" gradientTransform="matrix(-0.0016, -6.0E-4, 6.0E-4, -0.0016, 5.65, -14.3)" gradientUnits="userSpaceOnUse" id="gradient8" r="819.2" spreadMethod="pad">
      <stop offset="0.0" stop-color="#bebe4b"/>
      <stop offset="1.0" stop-color="#ffffff"/>
    </radialGradient>
    <radialGradient cx="0" cy="0" gradientTransform="matrix(-0.0015, 9.0E-4, -9.0E-4, -0.0015, -7.3, -12.9)" gradientUnits="userSpaceOnUse" id="gradient9" r="819.2" spreadMethod="pad">
      <stop offset="0.0" stop-color="#bebe4b"/>
      <stop offset="1.0" stop-color="#ffffff"/>
    </radialGradient>
  </defs>
</svg>
