<?xml version="1.0" encoding="UTF-8" standalone="no"?>
<svg xmlns:xlink="http://www.w3.org/1999/xlink" height="12.5px" width="21.6px" xmlns="http://www.w3.org/2000/svg">
  <g transform="matrix(1.0, 0.0, 0.0, 1.0, 10.4, 17.55)">
    <path d="M10.35 -16.35 Q11.5 -15.75 11.1 -14.6 10.95 -14.05 10.35 -13.9 L9.7 -13.75 Q10.6 -13.5 10.9 -12.65 11.1 -12.05 10.5 -11.75 10.65 -10.35 9.0 -10.15 L8.55 -10.0 7.65 -9.5 Q8.5 -8.85 8.35 -8.0 8.25 -7.5 7.75 -7.45 L6.2 -7.3 Q6.45 -6.6 5.85 -6.15 5.2 -5.7 4.45 -5.9 L2.1 -6.0 1.95 -6.25 Q0.35 -4.85 -1.65 -5.8 -2.0 -5.05 -2.75 -5.4 L-3.2 -5.9 Q-3.25 -5.1 -4.0 -5.05 -4.7 -5.05 -4.8 -5.75 -6.05 -6.3 -6.95 -7.55 L-7.5 -8.5 Q-7.85 -9.45 -8.6 -10.2 L-8.8 -10.7 -8.8 -10.9 Q-9.85 -10.9 -10.3 -11.95 -10.6 -12.7 -9.8 -12.9 L-8.7 -13.05 Q-9.65 -14.6 -7.95 -15.25 L-7.2 -15.5 Q-6.25 -15.85 -5.45 -15.1 L-5.5 -15.4 -5.45 -15.9 -5.4 -16.0 Q-5.8 -16.35 -5.7 -16.9 -5.6 -17.5 -5.0 -17.55 L-1.6 -16.15 -1.45 -16.1 Q-1.35 -16.6 -0.85 -16.65 L1.6 -16.95 2.15 -17.15 5.0 -17.4 6.05 -16.9 6.25 -16.7 Q7.7 -16.7 9.05 -17.2 9.8 -17.45 10.2 -16.9 L10.35 -16.35" fill="url(#gradient0)" fill-rule="evenodd" stroke="none"/>
    <path d="M4.05 -11.6 L4.8 -11.55 4.45 -10.85 4.05 -11.6" fill="url(#gradient1)" fill-rule="evenodd" stroke="none"/>
    <path d="M4.75 -15.0 L4.65 -14.9 4.2 -14.7 4.75 -15.0 M-5.7 -10.4 Q-6.35 -10.55 -6.8 -11.0 L-6.05 -10.95 -5.7 -10.4" fill="url(#gradient2)" fill-rule="evenodd" stroke="none"/>
    <path d="M4.45 -10.85 L4.5 -10.65 4.55 -10.45 5.15 -9.8 7.45 -6.7 7.45 -6.1 Q7.05 -5.2 6.05 -5.15 0.6 -4.8 -4.45 -6.3 -5.0 -6.45 -5.4 -6.95 L-5.45 -9.25 -5.45 -10.15 -5.7 -10.4 -6.05 -10.95 -6.35 -11.75 -6.3 -12.4 -5.3 -13.2 -4.85 -13.35 Q-3.4 -13.3 -2.85 -12.05 L-2.8 -11.9 0.45 -11.35 Q2.9 -13.3 4.05 -11.6 L4.45 -10.85" fill="url(#gradient3)" fill-rule="evenodd" stroke="none"/>
  </g>
  <defs>
    <radialGradient cx="0" cy="0" gradientTransform="matrix(0.0142, 0.0, 0.0, 0.0142, 0.4, -11.3)" gradientUnits="userSpaceOnUse" id="gradient0" r="819.2" spreadMethod="pad">
      <stop offset="0.0" stop-color="#4e0707"/>
      <stop offset="0.16470588235294117" stop-color="#b41010"/>
      <stop offset="0.5294117647058824" stop-color="#e23612"/>
      <stop offset="0.807843137254902" stop-color="#fd5037"/>
      <stop offset="1.0" stop-color="#fd5037" stop-opacity="0.0"/>
    </radialGradient>
    <radialGradient cx="0" cy="0" gradientTransform="matrix(0.003, 0.0, 0.0, 0.003, 2.8, -12.45)" gradientUnits="userSpaceOnUse" id="gradient1" r="819.2" spreadMethod="pad">
      <stop offset="0.0" stop-color="#4e0707"/>
      <stop offset="0.16470588235294117" stop-color="#b41010"/>
      <stop offset="0.5294117647058824" stop-color="#e23612"/>
      <stop offset="0.807843137254902" stop-color="#fd5037"/>
      <stop offset="1.0" stop-color="#fd5037" stop-opacity="0.0"/>
    </radialGradient>
    <radialGradient cx="0" cy="0" gradientTransform="matrix(0.0125, 0.0, 0.0, 0.0125, 0.3, -12.8)" gradientUnits="userSpaceOnUse" id="gradient2" r="819.2" spreadMethod="pad">
      <stop offset="0.0" stop-color="#4e0707"/>
      <stop offset="0.16470588235294117" stop-color="#b41010"/>
      <stop offset="0.5294117647058824" stop-color="#e23612"/>
      <stop offset="0.807843137254902" stop-color="#fd5037"/>
      <stop offset="1.0" stop-color="#fd5037" stop-opacity="0.0"/>
    </radialGradient>
    <radialGradient cx="0" cy="0" gradientTransform="matrix(0.0095, 0.0, 0.0, 0.0095, 0.6, -9.2)" gradientUnits="userSpaceOnUse" id="gradient3" r="819.2" spreadMethod="pad">
      <stop offset="0.0" stop-color="#4e0707"/>
      <stop offset="0.16470588235294117" stop-color="#b41010"/>
      <stop offset="0.5294117647058824" stop-color="#e23612"/>
      <stop offset="0.807843137254902" stop-color="#fd5037"/>
      <stop offset="1.0" stop-color="#fd5037" stop-opacity="0.0"/>
    </radialGradient>
  </defs>
</svg>
