<?xml version="1.0" encoding="UTF-8" standalone="no"?>
<svg xmlns:xlink="http://www.w3.org/1999/xlink" height="15.65px" width="26.4px" xmlns="http://www.w3.org/2000/svg">
  <g transform="matrix(1.0, 0.0, 0.0, 1.0, 13.4, 18.55)">
    <path d="M-8.4 -16.0 L-7.95 -16.25 -7.2 -16.5 Q-6.25 -16.85 -5.45 -16.1 L-5.5 -16.4 -5.45 -16.9 -5.4 -17.0 Q-5.8 -17.35 -5.7 -17.9 -5.6 -18.5 -5.0 -18.55 L-1.6 -17.15 -1.45 -17.1 Q-1.35 -17.6 -0.85 -17.65 L1.6 -17.95 2.15 -18.15 5.0 -18.4 6.05 -17.9 6.25 -17.7 Q7.7 -17.7 9.05 -18.2 9.8 -18.45 10.2 -17.9 L10.35 -17.35 Q11.5 -16.75 11.1 -15.6 L11.0 -15.3 10.6 -15.3 10.3 -15.2 9.9 -15.0 5.55 -12.85 1.1 -12.85 -0.05 -13.25 -3.7 -13.05 Q-3.75 -13.75 -4.5 -13.8 -5.25 -13.8 -5.3 -13.05 L-6.5 -13.55 -6.95 -14.05 -6.85 -14.7 Q-6.8 -15.8 -7.95 -15.6 L-8.0 -15.65 -8.4 -16.0 M8.05 -10.7 L7.65 -10.5 Q8.5 -9.85 8.35 -9.0 8.25 -8.5 7.75 -8.45 L6.2 -8.3 Q6.45 -7.6 5.85 -7.15 5.2 -6.7 4.45 -6.9 L2.1 -7.0 1.95 -7.25 Q0.35 -5.85 -1.65 -6.8 -2.0 -6.05 -2.75 -6.4 L-3.2 -6.9 Q-3.25 -6.1 -4.0 -6.05 -4.7 -6.05 -4.8 -6.75 -5.65 -7.1 -6.3 -7.8 L-5.75 -8.3 Q-5.1 -8.6 -5.15 -9.3 L-5.25 -9.65 -0.1 -10.25 1.2 -10.2 Q2.35 -9.9 2.95 -10.65 L6.0 -10.7 6.95 -10.7 8.05 -10.7 M-7.65 -9.85 L-8.6 -11.2 -8.75 -11.5 -6.8 -11.65 -6.65 -11.7 -5.65 -11.35 -5.9 -11.3 -6.2 -11.1 -7.25 -10.2 -7.55 -9.95 -7.65 -9.85" fill="url(#gradient0)" fill-rule="evenodd" stroke="none"/>
    <path d="M-8.75 -11.5 L-9.65 -11.65 Q-10.2 -11.8 -10.4 -12.3 -12.25 -12.75 -13.35 -14.3 L-13.35 -14.6 -12.65 -15.1 -10.7 -15.15 -10.7 -15.95 Q-10.55 -16.5 -10.0 -16.55 -9.15 -16.5 -8.4 -16.0 L-8.0 -15.65 -7.95 -15.6 Q-6.8 -15.8 -6.85 -14.7 L-6.95 -14.05 -6.5 -13.55 -6.55 -13.55 Q-7.7 -14.3 -7.9 -13.0 L-7.8 -12.55 -6.65 -11.7 -6.8 -11.65 -8.75 -11.5" fill="url(#gradient1)" fill-rule="evenodd" stroke="none"/>
    <path d="M11.0 -15.3 Q12.45 -15.3 12.95 -13.85 L12.8 -13.1 Q12.2 -12.45 11.2 -12.55 L10.95 -12.5 Q11.75 -11.4 10.3 -11.05 L8.05 -10.7 6.95 -10.7 6.0 -10.7 2.95 -10.65 Q2.35 -9.9 1.2 -10.2 L-0.1 -10.25 -5.25 -9.65 -5.15 -9.3 Q-5.1 -8.6 -5.75 -8.3 L-6.3 -7.8 -7.4 -7.65 -7.8 -7.6 Q-8.95 -7.3 -8.85 -8.5 -8.8 -8.95 -8.4 -9.25 L-7.65 -9.85 -7.55 -9.95 -7.25 -10.2 -6.2 -11.1 -5.9 -11.3 -5.65 -11.35 -6.65 -11.7 -7.8 -12.55 -7.9 -13.0 Q-7.7 -14.3 -6.55 -13.55 L-6.5 -13.55 -5.3 -13.05 Q-5.25 -13.8 -4.5 -13.8 -3.75 -13.75 -3.7 -13.05 L-0.05 -13.25 1.1 -12.85 5.55 -12.85 9.9 -15.0 10.3 -15.2 10.6 -15.3 11.0 -15.3" fill="url(#gradient2)" fill-rule="evenodd" stroke="none"/>
    <path d="M3.95 -11.6 L4.8 -11.55 Q4.65 -10.95 4.25 -10.7 L3.95 -11.6" fill="url(#gradient3)" fill-rule="evenodd" stroke="none"/>
    <path d="M3.95 -11.6 L4.25 -10.7 4.25 -10.65 4.25 -9.8 4.25 -9.55 Q6.7 -8.4 6.3 -6.15 6.1 -5.3 5.45 -4.65 3.95 -3.15 1.8 -3.0 -1.25 -2.8 -4.3 -3.1 -4.9 -3.2 -5.05 -3.8 -5.5 -5.2 -4.6 -6.3 -4.5 -6.7 -4.55 -7.2 L-4.55 -7.65 -4.55 -7.85 Q-4.5 -8.5 -4.85 -9.0 -5.85 -9.35 -6.8 -10.25 L-6.9 -10.45 -6.95 -11.0 Q-6.95 -11.75 -6.15 -12.25 L-5.45 -12.4 -3.65 -12.2 -3.25 -12.05 3.6 -11.8 3.95 -11.6" fill="url(#gradient4)" fill-rule="evenodd" stroke="none"/>
  </g>
  <defs>
    <radialGradient cx="0" cy="0" gradientTransform="matrix(0.0142, 0.0, 0.0, 0.0142, 0.4, -12.3)" gradientUnits="userSpaceOnUse" id="gradient0" r="819.2" spreadMethod="pad">
      <stop offset="0.0" stop-color="#4e0707"/>
      <stop offset="0.16470588235294117" stop-color="#b41010"/>
      <stop offset="0.5294117647058824" stop-color="#e23612"/>
      <stop offset="0.807843137254902" stop-color="#fd5037"/>
      <stop offset="1.0" stop-color="#fd5037" stop-opacity="0.0"/>
    </radialGradient>
    <radialGradient cx="0" cy="0" gradientTransform="matrix(0.0053, 0.0, 0.0, 0.0053, -9.8, -14.0)" gradientUnits="userSpaceOnUse" id="gradient1" r="819.2" spreadMethod="pad">
      <stop offset="0.0" stop-color="#4e0707"/>
      <stop offset="0.16470588235294117" stop-color="#b41010"/>
      <stop offset="0.5294117647058824" stop-color="#e23612"/>
      <stop offset="0.807843137254902" stop-color="#fd5037"/>
      <stop offset="1.0" stop-color="#fd5037" stop-opacity="0.0"/>
    </radialGradient>
    <radialGradient cx="0" cy="0" gradientTransform="matrix(0.0138, 0.0, 0.0, 0.0138, 2.05, -11.45)" gradientUnits="userSpaceOnUse" id="gradient2" r="819.2" spreadMethod="pad">
      <stop offset="0.0" stop-color="#4e0707"/>
      <stop offset="0.16470588235294117" stop-color="#b41010"/>
      <stop offset="0.5294117647058824" stop-color="#e23612"/>
      <stop offset="0.807843137254902" stop-color="#fd5037"/>
      <stop offset="1.0" stop-color="#fd5037" stop-opacity="0.0"/>
    </radialGradient>
    <radialGradient cx="0" cy="0" gradientTransform="matrix(0.003, 0.0, 0.0, 0.003, 2.8, -12.45)" gradientUnits="userSpaceOnUse" id="gradient3" r="819.2" spreadMethod="pad">
      <stop offset="0.0" stop-color="#4e0707"/>
      <stop offset="0.16470588235294117" stop-color="#b41010"/>
      <stop offset="0.5294117647058824" stop-color="#e23612"/>
      <stop offset="0.807843137254902" stop-color="#fd5037"/>
      <stop offset="1.0" stop-color="#fd5037" stop-opacity="0.0"/>
    </radialGradient>
    <radialGradient cx="0" cy="0" gradientTransform="matrix(0.0093, 0.0, 0.0, 0.0093, -0.3, -7.75)" gradientUnits="userSpaceOnUse" id="gradient4" r="819.2" spreadMethod="pad">
      <stop offset="0.0" stop-color="#4e0707"/>
      <stop offset="0.16470588235294117" stop-color="#b41010"/>
      <stop offset="0.5294117647058824" stop-color="#e23612"/>
      <stop offset="0.807843137254902" stop-color="#fd5037"/>
      <stop offset="1.0" stop-color="#fd5037" stop-opacity="0.0"/>
    </radialGradient>
  </defs>
</svg>
