<?xml version="1.0" encoding="UTF-8" standalone="no"?>
<svg xmlns:xlink="http://www.w3.org/1999/xlink" height="19.6px" width="26.4px" xmlns="http://www.w3.org/2000/svg">
  <g transform="matrix(1.0, 0.0, 0.0, 1.0, 13.4, 18.8)">
    <path d="M-8.4 -16.25 L-7.95 -16.5 -7.2 -16.75 Q-6.25 -17.1 -5.45 -16.35 L-5.5 -16.65 -5.45 -17.15 -5.4 -17.25 Q-5.8 -17.6 -5.7 -18.15 -5.6 -18.75 -5.0 -18.8 L-1.6 -17.4 -1.45 -17.35 Q-1.35 -17.85 -0.85 -17.9 L1.6 -18.2 2.15 -18.4 5.0 -18.65 6.05 -18.15 6.25 -17.95 Q7.7 -17.95 9.05 -18.45 9.8 -18.7 10.2 -18.15 L10.35 -17.6 Q11.5 -17.0 11.1 -15.85 L11.0 -15.55 10.6 -15.55 10.3 -15.45 9.9 -15.25 5.55 -13.1 1.1 -13.1 -0.05 -13.5 -3.7 -13.3 Q-3.75 -14.0 -4.5 -14.05 -5.25 -14.05 -5.3 -13.3 L-6.5 -13.8 -6.95 -14.3 -6.85 -14.95 Q-6.8 -16.05 -7.95 -15.85 L-8.0 -15.9 -8.4 -16.25 M8.05 -10.95 L7.65 -10.75 Q8.5 -10.1 8.35 -9.25 8.25 -8.75 7.75 -8.7 L6.2 -8.55 Q6.45 -7.85 5.85 -7.4 5.2 -6.95 4.45 -7.15 L2.1 -7.25 1.95 -7.5 Q0.35 -6.1 -1.65 -7.05 -2.0 -6.3 -2.75 -6.65 L-3.2 -7.15 Q-3.25 -6.35 -4.0 -6.3 -4.7 -6.3 -4.8 -7.0 -5.65 -7.35 -6.3 -8.05 L-5.75 -8.55 Q-5.1 -8.85 -5.15 -9.55 L-5.25 -9.9 -0.1 -10.5 1.2 -10.45 Q2.35 -10.15 2.95 -10.9 L6.0 -10.95 6.95 -10.95 8.05 -10.95 M-7.65 -10.1 L-8.6 -11.45 -8.75 -11.75 -6.8 -11.9 -6.65 -11.95 -5.65 -11.6 -5.9 -11.55 -6.2 -11.35 -7.25 -10.45 -7.55 -10.2 -7.65 -10.1" fill="url(#gradient0)" fill-rule="evenodd" stroke="none"/>
    <path d="M11.0 -15.55 Q12.45 -15.55 12.95 -14.1 L12.8 -13.35 Q12.2 -12.7 11.2 -12.8 L10.95 -12.75 Q11.75 -11.65 10.3 -11.3 L8.05 -10.95 6.95 -10.95 6.0 -10.95 2.95 -10.9 Q2.35 -10.15 1.2 -10.45 L-0.1 -10.5 -5.25 -9.9 -5.15 -9.55 Q-5.1 -8.85 -5.75 -8.55 L-6.3 -8.05 -7.4 -7.9 -7.8 -7.85 Q-8.95 -7.55 -8.85 -8.75 -8.8 -9.2 -8.4 -9.5 L-7.65 -10.1 -7.55 -10.2 -7.25 -10.45 -6.2 -11.35 -5.9 -11.55 -5.65 -11.6 -6.65 -11.95 -7.8 -12.8 -7.9 -13.25 Q-7.7 -14.55 -6.55 -13.8 L-6.5 -13.8 -5.3 -13.3 Q-5.25 -14.05 -4.5 -14.05 -3.75 -14.0 -3.7 -13.3 L-0.05 -13.5 1.1 -13.1 5.55 -13.1 9.9 -15.25 10.3 -15.45 10.6 -15.55 11.0 -15.55" fill="url(#gradient1)" fill-rule="evenodd" stroke="none"/>
    <path d="M-8.75 -11.75 L-9.65 -11.9 Q-10.2 -12.05 -10.4 -12.55 -12.25 -13.0 -13.35 -14.55 L-13.35 -14.85 -12.65 -15.35 -10.7 -15.4 -10.7 -16.2 Q-10.55 -16.75 -10.0 -16.8 -9.15 -16.75 -8.4 -16.25 L-8.0 -15.9 -7.95 -15.85 Q-6.8 -16.05 -6.85 -14.95 L-6.95 -14.3 -6.5 -13.8 -6.55 -13.8 Q-7.7 -14.55 -7.9 -13.25 L-7.8 -12.8 -6.65 -11.95 -6.8 -11.9 -8.75 -11.75" fill="url(#gradient2)" fill-rule="evenodd" stroke="none"/>
    <path d="M4.15 -10.6 L4.2 -11.0 4.25 -11.55 4.8 -11.55 4.15 -10.6" fill="url(#gradient3)" fill-rule="evenodd" stroke="none"/>
    <path d="M-6.35 -10.95 L-5.95 -10.55 -5.85 -10.45 -6.8 -11.0 -6.35 -10.95" fill="url(#gradient4)" fill-rule="evenodd" stroke="none"/>
    <path d="M4.25 -11.55 L4.2 -11.0 4.15 -10.6 3.85 -9.85 Q3.55 -9.1 3.05 -8.5 L3.05 -8.25 3.05 -8.0 3.05 -7.8 3.05 -7.55 3.25 -7.35 4.65 -5.7 4.85 -4.85 5.05 -4.6 Q5.6 -3.8 5.4 -2.8 5.25 -2.05 4.6 -1.65 4.65 0.0 3.05 0.35 -0.9 1.25 -4.45 0.4 -5.95 0.65 -6.75 -0.45 -7.85 -2.0 -6.45 -3.25 L-5.55 -4.15 -5.5 -4.4 -5.2 -8.05 -5.15 -9.6 -5.85 -10.45 -5.95 -10.55 -6.35 -10.95 Q-7.85 -12.65 -5.4 -13.45 L-3.95 -13.95 Q-0.35 -14.5 2.95 -13.25 4.15 -12.75 4.25 -11.55" fill="url(#gradient5)" fill-rule="evenodd" stroke="none"/>
  </g>
  <defs>
    <radialGradient cx="0" cy="0" gradientTransform="matrix(0.0142, 0.0, 0.0, 0.0142, 0.4, -12.55)" gradientUnits="userSpaceOnUse" id="gradient0" r="819.2" spreadMethod="pad">
      <stop offset="0.0" stop-color="#4e0707"/>
      <stop offset="0.16470588235294117" stop-color="#b41010"/>
      <stop offset="0.5294117647058824" stop-color="#e23612"/>
      <stop offset="0.807843137254902" stop-color="#fd5037"/>
      <stop offset="1.0" stop-color="#fd5037" stop-opacity="0.0"/>
    </radialGradient>
    <radialGradient cx="0" cy="0" gradientTransform="matrix(0.0138, 0.0, 0.0, 0.0138, 2.05, -11.7)" gradientUnits="userSpaceOnUse" id="gradient1" r="819.2" spreadMethod="pad">
      <stop offset="0.0" stop-color="#4e0707"/>
      <stop offset="0.16470588235294117" stop-color="#b41010"/>
      <stop offset="0.5294117647058824" stop-color="#e23612"/>
      <stop offset="0.807843137254902" stop-color="#fd5037"/>
      <stop offset="1.0" stop-color="#fd5037" stop-opacity="0.0"/>
    </radialGradient>
    <radialGradient cx="0" cy="0" gradientTransform="matrix(0.0053, 0.0, 0.0, 0.0053, -9.8, -14.25)" gradientUnits="userSpaceOnUse" id="gradient2" r="819.2" spreadMethod="pad">
      <stop offset="0.0" stop-color="#4e0707"/>
      <stop offset="0.16470588235294117" stop-color="#b41010"/>
      <stop offset="0.5294117647058824" stop-color="#e23612"/>
      <stop offset="0.807843137254902" stop-color="#fd5037"/>
      <stop offset="1.0" stop-color="#fd5037" stop-opacity="0.0"/>
    </radialGradient>
    <radialGradient cx="0" cy="0" gradientTransform="matrix(0.003, 0.0, 0.0, 0.003, 2.8, -12.45)" gradientUnits="userSpaceOnUse" id="gradient3" r="819.2" spreadMethod="pad">
      <stop offset="0.0" stop-color="#4e0707"/>
      <stop offset="0.16470588235294117" stop-color="#b41010"/>
      <stop offset="0.5294117647058824" stop-color="#e23612"/>
      <stop offset="0.807843137254902" stop-color="#fd5037"/>
      <stop offset="1.0" stop-color="#fd5037" stop-opacity="0.0"/>
    </radialGradient>
    <radialGradient cx="0" cy="0" gradientTransform="matrix(0.0125, 0.0, 0.0, 0.0125, 0.3, -12.8)" gradientUnits="userSpaceOnUse" id="gradient4" r="819.2" spreadMethod="pad">
      <stop offset="0.0" stop-color="#4e0707"/>
      <stop offset="0.16470588235294117" stop-color="#b41010"/>
      <stop offset="0.5294117647058824" stop-color="#e23612"/>
      <stop offset="0.807843137254902" stop-color="#fd5037"/>
      <stop offset="1.0" stop-color="#fd5037" stop-opacity="0.0"/>
    </radialGradient>
    <radialGradient cx="0" cy="0" gradientTransform="matrix(0.0109, 0.0, 0.0, 0.0109, -0.9, -6.65)" gradientUnits="userSpaceOnUse" id="gradient5" r="819.2" spreadMethod="pad">
      <stop offset="0.0" stop-color="#4e0707"/>
      <stop offset="0.16470588235294117" stop-color="#b41010"/>
      <stop offset="0.5294117647058824" stop-color="#e23612"/>
      <stop offset="0.807843137254902" stop-color="#fd5037"/>
      <stop offset="1.0" stop-color="#fd5037" stop-opacity="0.0"/>
    </radialGradient>
  </defs>
</svg>
