<?xml version="1.0" encoding="UTF-8" standalone="no"?>
<svg xmlns:xlink="http://www.w3.org/1999/xlink" height="17.2px" width="20.4px" xmlns="http://www.w3.org/2000/svg">
  <g transform="matrix(1.0, 0.0, 0.0, 1.0, 10.2, 7.55)">
    <path d="M-8.25 -1.95 Q-6.0 -4.85 -2.0 -5.95 2.0 -7.0 5.45 -5.6 8.85 -4.2 9.7 -1.1 10.55 1.95 8.25 4.95 6.0 7.85 2.0 8.9 L-5.45 8.6 Q-8.85 7.15 -9.7 4.1 -10.55 1.0 -8.25 -1.95 M-7.5 -1.6 Q-9.55 0.85 -8.9 3.35 -8.2 5.85 -5.2 7.0 -2.2 8.1 1.3 7.15 4.85 6.25 6.85 3.75 8.9 1.3 8.2 -1.2 7.55 -3.7 4.55 -4.85 L-1.95 -5.05 Q-5.45 -4.1 -7.5 -1.6" fill="url(#gradient0)" fill-rule="evenodd" stroke="none"/>
    <path d="M-7.5 -1.6 Q-5.45 -4.1 -1.95 -5.05 L4.55 -4.85 Q7.55 -3.7 8.2 -1.2 8.9 1.3 6.85 3.75 4.85 6.25 1.3 7.15 -2.2 8.1 -5.2 7.0 -8.2 5.85 -8.9 3.35 -9.55 0.85 -7.5 -1.6" fill="url(#gradient1)" fill-rule="evenodd" stroke="none"/>
    <path d="M-8.25 -1.95 Q-6.0 -4.85 -2.0 -5.95 2.0 -7.0 5.45 -5.6 8.85 -4.2 9.7 -1.1 10.55 1.95 8.25 4.95 6.0 7.85 2.0 8.9 L-5.45 8.6 Q-8.85 7.15 -9.7 4.1 -10.55 1.0 -8.25 -1.95 M-7.5 -1.6 Q-5.45 -4.1 -1.95 -5.05 L4.55 -4.85 Q7.55 -3.7 8.2 -1.2 8.9 1.3 6.85 3.75 4.85 6.25 1.3 7.15 -2.2 8.1 -5.2 7.0 -8.2 5.85 -8.9 3.35 -9.55 0.85 -7.5 -1.6 Z" fill="none" stroke="#000000" stroke-linecap="round" stroke-linejoin="round" stroke-width="0.5"/>
    <path d="M-6.35 -3.6 L-6.35 -4.45 -5.8 -5.1 Q-5.35 -5.3 -4.9 -5.1 -4.45 -5.0 -4.3 -4.55 -3.95 -3.85 -4.15 -3.35 L-3.65 -0.9 -5.5 -2.85 -6.35 -3.6" fill="url(#gradient2)" fill-rule="evenodd" stroke="none"/>
    <path d="M-6.35 -3.6 L-6.35 -4.45 -5.8 -5.1 Q-5.35 -5.3 -4.9 -5.1 -4.45 -5.0 -4.3 -4.55 -3.95 -3.85 -4.15 -3.35 L-3.65 -0.9 -5.5 -2.85 -6.35 -3.6 Z" fill="none" stroke="#000000" stroke-linecap="round" stroke-linejoin="round" stroke-width="0.5"/>
    <path d="M5.0 -4.85 L5.55 -5.5 6.4 -5.6 Q6.85 -5.5 7.05 -5.1 7.3 -4.75 7.15 -4.3 6.95 -3.55 6.5 -3.3 L5.3 -1.05 5.2 -3.7 Q4.85 -4.25 5.0 -4.85" fill="url(#gradient3)" fill-rule="evenodd" stroke="none"/>
    <path d="M5.0 -4.85 L5.55 -5.5 6.4 -5.6 Q6.85 -5.5 7.05 -5.1 7.3 -4.75 7.15 -4.3 6.95 -3.55 6.5 -3.3 L5.3 -1.05 5.2 -3.7 Q4.85 -4.25 5.0 -4.85 Z" fill="none" stroke="#000000" stroke-linecap="round" stroke-linejoin="round" stroke-width="0.5"/>
    <path d="M-4.15 -4.85 L-3.9 -5.45 -3.2 -5.85 -2.4 -5.85 -2.0 -5.4 Q-1.85 -4.9 -2.15 -4.55 L-2.3 -2.8 -3.5 -4.25 Q-4.0 -4.4 -4.15 -4.85" fill="url(#gradient4)" fill-rule="evenodd" stroke="none"/>
    <path d="M-4.15 -4.85 L-3.9 -5.45 -3.2 -5.85 -2.4 -5.85 -2.0 -5.4 Q-1.85 -4.9 -2.15 -4.55 L-2.3 -2.8 -3.5 -4.25 Q-4.0 -4.4 -4.15 -4.85 Z" fill="none" stroke="#000000" stroke-linecap="round" stroke-linejoin="round" stroke-width="0.5"/>
    <path d="M-1.85 -5.45 L-1.6 -6.05 -0.9 -6.45 -0.1 -6.45 0.3 -6.0 Q0.45 -5.5 0.15 -5.15 L0.0 -3.4 -1.2 -4.85 Q-1.7 -5.0 -1.85 -5.45" fill="url(#gradient5)" fill-rule="evenodd" stroke="none"/>
    <path d="M-1.85 -5.45 L-1.6 -6.05 -0.9 -6.45 -0.1 -6.45 0.3 -6.0 Q0.45 -5.5 0.15 -5.15 L0.0 -3.4 -1.2 -4.85 Q-1.7 -5.0 -1.85 -5.45 Z" fill="none" stroke="#000000" stroke-linecap="round" stroke-linejoin="round" stroke-width="0.5"/>
    <path d="M0.65 -6.1 Q0.6 -6.55 0.95 -6.85 L1.65 -7.3 Q2.1 -7.35 2.5 -7.0 L2.85 -6.3 Q2.95 -5.55 2.6 -5.1 L2.25 -2.6 1.2 -5.1 Q0.7 -5.45 0.65 -6.1" fill="url(#gradient6)" fill-rule="evenodd" stroke="none"/>
    <path d="M0.65 -6.1 Q0.6 -6.55 0.95 -6.85 L1.65 -7.3 Q2.1 -7.35 2.5 -7.0 L2.85 -6.3 Q2.95 -5.55 2.6 -5.1 L2.25 -2.6 1.2 -5.1 Q0.7 -5.45 0.65 -6.1 Z" fill="none" stroke="#000000" stroke-linecap="round" stroke-linejoin="round" stroke-width="0.5"/>
    <path d="M-7.9 -1.95 Q-8.15 -2.3 -8.0 -2.75 L-7.55 -3.45 -6.75 -3.6 Q-6.3 -3.55 -6.05 -3.2 -5.6 -2.55 -5.7 -2.0 L-4.75 0.35 Q-6.55 -1.2 -6.9 -1.3 L-7.9 -1.95" fill="url(#gradient7)" fill-rule="evenodd" stroke="none"/>
    <path d="M-7.9 -1.95 Q-8.15 -2.3 -8.0 -2.75 L-7.55 -3.45 -6.75 -3.6 Q-6.3 -3.55 -6.05 -3.2 -5.6 -2.55 -5.7 -2.0 L-4.75 0.35 Q-6.55 -1.2 -6.9 -1.3 L-7.9 -1.95 Z" fill="none" stroke="#000000" stroke-linecap="round" stroke-linejoin="round" stroke-width="0.5"/>
    <path d="M2.8 -5.65 Q2.85 -6.1 3.2 -6.35 3.55 -6.7 4.0 -6.65 L4.75 -6.25 5.0 -5.45 4.55 -4.35 3.7 -1.95 3.15 -4.55 Q2.75 -5.0 2.8 -5.65" fill="url(#gradient8)" fill-rule="evenodd" stroke="none"/>
    <path d="M2.8 -5.65 Q2.85 -6.1 3.2 -6.35 3.55 -6.7 4.0 -6.65 L4.75 -6.25 5.0 -5.45 4.55 -4.35 3.7 -1.95 3.15 -4.55 Q2.75 -5.0 2.8 -5.65 Z" fill="none" stroke="#000000" stroke-linecap="round" stroke-linejoin="round" stroke-width="0.5"/>
    <path d="M-8.95 -0.1 L-9.3 -0.85 -8.95 -1.6 -8.2 -1.95 -7.4 -1.65 Q-6.85 -1.1 -6.85 -0.5 L-5.55 1.6 -7.95 0.35 -8.95 -0.1" fill="url(#gradient9)" fill-rule="evenodd" stroke="none"/>
    <path d="M-8.95 -0.1 L-9.3 -0.85 -8.95 -1.6 -8.2 -1.95 -7.4 -1.65 Q-6.85 -1.1 -6.85 -0.5 L-5.55 1.6 -7.95 0.35 -8.95 -0.1 Z" fill="none" stroke="#000000" stroke-linecap="round" stroke-linejoin="round" stroke-width="0.5"/>
  </g>
  <defs>
    <radialGradient cx="0" cy="0" gradientTransform="matrix(0.0119, -0.0032, 0.0032, 0.0119, 0.0, 1.5)" gradientUnits="userSpaceOnUse" id="gradient0" r="819.2" spreadMethod="pad">
      <stop offset="0.3215686274509804" stop-color="#8c6b37"/>
      <stop offset="1.0" stop-color="#3c301a"/>
    </radialGradient>
    <radialGradient cx="0" cy="0" gradientTransform="matrix(0.0104, -0.0028, 0.0028, 0.0104, -0.35, 1.05)" gradientUnits="userSpaceOnUse" id="gradient1" r="819.2" spreadMethod="pad">
      <stop offset="0.3215686274509804" stop-color="#f32121"/>
      <stop offset="1.0" stop-color="#3c301a"/>
    </radialGradient>
    <radialGradient cx="0" cy="0" gradientTransform="matrix(-0.0016, 7.0E-4, -7.0E-4, -0.0016, -5.35, -4.1)" gradientUnits="userSpaceOnUse" id="gradient2" r="819.2" spreadMethod="pad">
      <stop offset="0.0" stop-color="#bebe4b"/>
      <stop offset="1.0" stop-color="#ffffff"/>
    </radialGradient>
    <radialGradient cx="0" cy="0" gradientTransform="matrix(-0.0017, -5.0E-4, 5.0E-4, -0.0017, 6.1, -4.55)" gradientUnits="userSpaceOnUse" id="gradient3" r="819.2" spreadMethod="pad">
      <stop offset="0.0" stop-color="#bebe4b"/>
      <stop offset="1.0" stop-color="#ffffff"/>
    </radialGradient>
    <radialGradient cx="0" cy="0" gradientTransform="matrix(-0.0017, 5.0E-4, -3.0E-4, -0.0011, -3.05, -5.15)" gradientUnits="userSpaceOnUse" id="gradient4" r="819.2" spreadMethod="pad">
      <stop offset="0.0" stop-color="#bebe4b"/>
      <stop offset="1.0" stop-color="#ffffff"/>
    </radialGradient>
    <radialGradient cx="0" cy="0" gradientTransform="matrix(-0.0017, 5.0E-4, -3.0E-4, -0.0011, -0.75, -5.75)" gradientUnits="userSpaceOnUse" id="gradient5" r="819.2" spreadMethod="pad">
      <stop offset="0.0" stop-color="#bebe4b"/>
      <stop offset="1.0" stop-color="#ffffff"/>
    </radialGradient>
    <radialGradient cx="0" cy="0" gradientTransform="matrix(-0.0018, 2.0E-4, -2.0E-4, -0.0018, 1.75, -6.2)" gradientUnits="userSpaceOnUse" id="gradient6" r="819.2" spreadMethod="pad">
      <stop offset="0.0" stop-color="#bebe4b"/>
      <stop offset="1.0" stop-color="#ffffff"/>
    </radialGradient>
    <radialGradient cx="0" cy="0" gradientTransform="matrix(-0.0014, 0.001, -0.001, -0.0014, -6.95, -2.6)" gradientUnits="userSpaceOnUse" id="gradient7" r="819.2" spreadMethod="pad">
      <stop offset="0.0" stop-color="#bebe4b"/>
      <stop offset="1.0" stop-color="#ffffff"/>
    </radialGradient>
    <radialGradient cx="0" cy="0" gradientTransform="matrix(-0.0018, -2.0E-4, 2.0E-4, -0.0018, 3.9, -5.55)" gradientUnits="userSpaceOnUse" id="gradient8" r="819.2" spreadMethod="pad">
      <stop offset="0.0" stop-color="#bebe4b"/>
      <stop offset="1.0" stop-color="#ffffff"/>
    </radialGradient>
    <radialGradient cx="0" cy="0" gradientTransform="matrix(-0.0012, 0.0012, -0.0012, -0.0012, -8.2, -0.85)" gradientUnits="userSpaceOnUse" id="gradient9" r="819.2" spreadMethod="pad">
      <stop offset="0.0" stop-color="#bebe4b"/>
      <stop offset="1.0" stop-color="#ffffff"/>
    </radialGradient>
  </defs>
</svg>
