<?xml version="1.0" encoding="UTF-8" standalone="no"?>
<svg xmlns:xlink="http://www.w3.org/1999/xlink" height="13.95px" width="17.95px" xmlns="http://www.w3.org/2000/svg">
  <g transform="matrix(1.0, 0.0, 0.0, 1.0, 6.2, -0.8)">
    <path d="M-2.8 2.9 Q-2.15 3.5 -2.0 4.1 L-1.15 7.0 -0.6 10.0 -0.25 12.25 Q-0.05 13.5 -0.3 14.5 L-0.7 12.95 -1.65 14.25 Q-2.35 12.75 -2.2 11.0 -3.1 12.1 -3.5 13.35 L-3.8 12.05 Q-4.25 9.75 -3.7 8.25 -5.85 9.35 -5.7 11.5 L-5.95 9.05 Q-5.8 7.15 -4.95 5.55 -4.1 3.95 -2.8 2.9" fill="url(#gradient0)" fill-rule="evenodd" stroke="none"/>
    <path d="M-2.8 2.9 Q-4.1 3.95 -4.95 5.55 -5.8 7.15 -5.95 9.05 L-5.7 11.5 Q-5.85 9.35 -3.7 8.25 -4.25 9.75 -3.8 12.05 L-3.5 13.35 Q-3.1 12.1 -2.2 11.0 -2.35 12.75 -1.65 14.25 L-0.7 12.95 -0.3 14.5" fill="none" stroke="#000000" stroke-linecap="round" stroke-linejoin="round" stroke-width="0.5"/>
    <path d="M4.75 1.05 Q6.4 1.25 7.9 2.2 9.45 3.15 10.55 4.75 L11.5 6.95 Q10.6 5.1 8.2 5.15 9.4 6.2 10.15 8.45 L10.55 9.75 Q9.6 8.85 8.25 8.3 9.25 9.7 9.4 11.45 9.15 11.2 7.9 10.75 L8.35 12.25 Q7.65 11.55 7.2 10.35 L6.35 8.25 5.35 5.4 4.65 2.45 Q4.45 1.8 4.75 1.05" fill="url(#gradient1)" fill-rule="evenodd" stroke="none"/>
    <path d="M4.75 1.05 Q6.4 1.25 7.9 2.2 9.45 3.15 10.55 4.75 L11.5 6.95 Q10.6 5.1 8.2 5.15 9.4 6.2 10.15 8.45 L10.55 9.75 Q9.6 8.85 8.25 8.3 9.25 9.7 9.4 11.45 9.15 11.2 7.9 10.75 L8.35 12.25" fill="none" stroke="#000000" stroke-linecap="round" stroke-linejoin="round" stroke-width="0.5"/>
  </g>
  <defs>
    <radialGradient cx="0" cy="0" gradientTransform="matrix(0.0105, -0.0028, 0.0028, 0.0105, -2.9, 5.95)" gradientUnits="userSpaceOnUse" id="gradient0" r="819.2" spreadMethod="pad">
      <stop offset="0.3215686274509804" stop-color="#8c6b37"/>
      <stop offset="1.0" stop-color="#3c301a"/>
    </radialGradient>
    <radialGradient cx="0" cy="0" gradientTransform="matrix(-0.0105, 0.0028, 0.0028, 0.0105, 6.35, 3.6)" gradientUnits="userSpaceOnUse" id="gradient1" r="819.2" spreadMethod="pad">
      <stop offset="0.3215686274509804" stop-color="#8c6b37"/>
      <stop offset="1.0" stop-color="#3c301a"/>
    </radialGradient>
  </defs>
</svg>
