<?xml version="1.0" encoding="UTF-8" standalone="no"?>
<svg xmlns:xlink="http://www.w3.org/1999/xlink" height="16.15px" width="26.4px" xmlns="http://www.w3.org/2000/svg">
  <g transform="matrix(1.0, 0.0, 0.0, 1.0, 13.15, 20.05)">
    <path d="M7.25 -19.2 L9.3 -19.7 Q10.05 -19.95 10.45 -19.4 L10.6 -18.85 Q11.75 -18.25 11.35 -17.1 L11.25 -16.8 10.85 -16.8 10.55 -16.7 10.15 -16.5 8.0 -15.35 7.95 -15.65 6.6 -16.65 Q7.05 -17.4 6.9 -18.45 L7.0 -18.55 7.25 -19.2 M8.3 -12.2 L7.9 -12.0 Q8.75 -11.35 8.6 -10.5 8.5 -10.0 8.0 -9.95 L6.45 -9.8 Q6.7 -9.1 6.1 -8.65 5.45 -8.2 4.7 -8.4 L2.35 -8.5 2.2 -8.75 Q0.6 -7.35 -1.4 -8.3 -1.75 -7.55 -2.5 -7.9 L-2.7 -8.45 -2.7 -8.7 -2.25 -10.15 Q-2.15 -10.65 -2.55 -10.95 L-2.95 -11.25 0.15 -11.75 1.45 -11.7 Q2.6 -11.4 3.2 -12.15 L6.25 -12.2 7.2 -12.2 8.3 -12.2 M-7.4 -11.35 L-8.35 -12.7 -8.5 -13.0 -6.55 -13.15 -6.5 -13.15 -7.0 -11.95 -7.0 -11.7 -7.3 -11.45 -7.4 -11.35 M-5.25 -18.25 L-5.2 -18.4 -5.15 -18.5 Q-5.55 -18.85 -5.45 -19.4 -5.35 -20.0 -4.75 -20.05 L-1.35 -18.65 -1.2 -18.6 Q-1.1 -19.1 -0.6 -19.15 L1.85 -19.45 Q2.1 -19.5 2.4 -19.65 L5.25 -19.9 5.8 -19.7 Q5.2 -19.3 5.3 -18.4 4.8 -17.9 5.05 -17.25 L5.45 -16.6 4.7 -15.5 4.2 -15.05 Q4.0 -14.8 4.15 -14.5 L4.25 -14.35 1.35 -14.35 0.2 -14.75 -3.45 -14.55 Q-3.5 -15.25 -4.25 -15.3 L-4.7 -15.15 Q-5.05 -15.8 -5.75 -16.2 L-4.05 -16.05 -3.6 -16.15 Q-2.55 -17.2 -4.05 -17.7 L-4.75 -18.0 -5.25 -18.25 M-7.2 -17.1 L-7.45 -17.1 -7.65 -17.3 -7.55 -17.3 -7.2 -17.1 M-4.9 -10.45 L-3.9 -10.05 -4.15 -9.6 -4.3 -9.05 -5.25 -9.35 -5.3 -9.4 -5.35 -9.5 -5.55 -9.75 -5.5 -9.8 Q-5.0 -10.0 -4.9 -10.45" fill="url(#gradient0)" fill-rule="evenodd" stroke="none"/>
    <path d="M11.25 -16.8 Q12.7 -16.8 13.2 -15.35 L13.05 -14.6 Q12.45 -13.95 11.45 -14.05 L11.2 -14.0 Q12.0 -12.9 10.55 -12.55 L8.3 -12.2 7.2 -12.2 6.25 -12.2 3.2 -12.15 Q2.6 -11.4 1.45 -11.7 L0.15 -11.75 -2.95 -11.25 Q-3.9 -11.9 -5.0 -12.25 -4.6 -12.8 -4.45 -13.5 -4.35 -14.15 -4.55 -14.75 L-4.7 -15.15 -4.25 -15.3 Q-3.5 -15.25 -3.45 -14.55 L0.2 -14.75 1.35 -14.35 4.25 -14.35 Q4.6 -13.75 5.4 -13.65 7.45 -13.4 8.0 -15.35 L10.15 -16.5 10.55 -16.7 10.85 -16.8 11.25 -16.8 M-7.65 -9.05 Q-8.7 -8.85 -8.6 -10.0 L-8.15 -10.75 -7.4 -11.35 -7.3 -11.45 -7.0 -11.7 -6.9 -11.55 -4.9 -10.45 Q-5.0 -10.0 -5.5 -9.8 L-5.55 -9.75 -6.05 -10.1 -6.25 -10.15 -6.55 -10.4 Q-7.8 -10.65 -7.75 -9.4 L-7.65 -9.05 M-7.5 -14.95 L-6.0 -13.95 -5.95 -13.95 -6.0 -13.9 -6.45 -13.2 -7.55 -14.05 -7.65 -14.5 -7.5 -14.95" fill="url(#gradient1)" fill-rule="evenodd" stroke="none"/>
    <path d="M5.8 -19.7 L6.5 -20.0 6.5 -20.05 Q7.25 -19.75 7.25 -19.2 L7.0 -18.55 6.9 -18.45 Q7.05 -17.4 6.6 -16.65 L6.35 -16.35 6.1 -16.3 Q5.7 -16.4 5.45 -16.6 L5.05 -17.25 Q4.8 -17.9 5.3 -18.4 5.2 -19.3 5.8 -19.7" fill="url(#gradient2)" fill-rule="evenodd" stroke="none"/>
    <path d="M6.6 -16.65 L7.95 -15.65 8.0 -15.35 Q7.45 -13.4 5.4 -13.65 4.6 -13.75 4.25 -14.35 L4.15 -14.5 Q4.0 -14.8 4.2 -15.05 L4.7 -15.5 5.45 -16.6 Q5.7 -16.4 6.1 -16.3 L6.35 -16.35 6.6 -16.65" fill="url(#gradient3)" fill-rule="evenodd" stroke="none"/>
    <path d="M-2.5 -7.9 Q-2.3 -6.8 -3.85 -6.5 -4.65 -6.35 -5.3 -5.8 L-6.75 -4.55 Q-7.3 -4.05 -8.0 -3.95 -9.35 -3.75 -9.25 -5.05 L-8.95 -5.9 -9.0 -6.15 Q-9.2 -7.1 -8.25 -7.35 L-7.7 -7.65 -7.7 -7.75 -7.65 -8.3 -7.45 -8.75 -7.65 -9.05 -7.75 -9.4 Q-7.8 -10.65 -6.55 -10.4 L-6.25 -10.15 -6.05 -10.1 -5.55 -9.75 -5.35 -9.5 -5.3 -9.4 -5.25 -9.35 -4.3 -9.05 -4.15 -9.6 -3.9 -10.05 -4.9 -10.45 -6.9 -11.55 -7.0 -11.7 -7.0 -11.95 -6.5 -13.15 -6.45 -13.2 -6.0 -13.9 -5.95 -13.95 Q-4.85 -13.45 -4.65 -14.7 L-4.8 -15.1 Q-5.9 -16.0 -7.25 -16.55 L-7.85 -16.2 -8.0 -15.7 -9.45 -16.35 -9.8 -16.5 -10.5 -17.2 -11.2 -18.05 -11.2 -18.35 Q-10.75 -19.2 -9.6 -19.05 L-9.25 -19.05 Q-7.15 -19.25 -5.25 -18.25 L-4.75 -18.0 -4.05 -17.7 Q-2.55 -17.2 -3.6 -16.15 L-4.05 -16.05 -5.75 -16.2 Q-5.05 -15.8 -4.7 -15.15 L-4.55 -14.75 Q-4.35 -14.15 -4.45 -13.5 -4.6 -12.8 -5.0 -12.25 -3.9 -11.9 -2.95 -11.25 L-2.55 -10.95 Q-2.15 -10.65 -2.25 -10.15 L-2.7 -8.7 -2.7 -8.45 -2.5 -7.9 M-7.45 -17.1 L-7.15 -17.05 -7.05 -17.05 -7.2 -17.1 -7.55 -17.3 -7.65 -17.3 -7.45 -17.1" fill="url(#gradient4)" fill-rule="evenodd" stroke="none"/>
    <path d="M-8.5 -13.0 L-9.4 -13.15 Q-9.95 -13.3 -10.15 -13.8 -12.0 -14.25 -13.1 -15.8 L-13.1 -16.1 Q-12.9 -16.6 -12.4 -16.6 L-10.45 -16.65 -10.5 -17.2 -9.8 -16.5 -9.45 -16.35 -8.0 -15.7 -7.85 -15.35 -7.5 -14.95 -7.65 -14.5 -7.55 -14.05 -6.45 -13.2 -6.5 -13.15 -6.55 -13.15 -8.5 -13.0 M-7.45 -17.1 L-7.2 -17.1 -7.05 -17.05 -7.15 -17.05 -7.45 -17.1" fill="url(#gradient5)" fill-rule="evenodd" stroke="none"/>
    <path d="M-8.0 -15.7 L-7.85 -16.2 -7.25 -16.55 Q-5.9 -16.0 -4.8 -15.1 L-4.65 -14.7 Q-4.85 -13.45 -5.95 -13.95 L-6.0 -13.95 -7.5 -14.95 -7.85 -15.35 -8.0 -15.7" fill="url(#gradient6)" fill-rule="evenodd" stroke="none"/>
  </g>
  <defs>
    <radialGradient cx="0" cy="0" gradientTransform="matrix(0.0142, 0.0, 0.0, 0.0142, 0.65, -13.8)" gradientUnits="userSpaceOnUse" id="gradient0" r="819.2" spreadMethod="pad">
      <stop offset="0.0" stop-color="#4e0707"/>
      <stop offset="0.16470588235294117" stop-color="#b41010"/>
      <stop offset="0.5294117647058824" stop-color="#e23612"/>
      <stop offset="0.807843137254902" stop-color="#fd5037"/>
      <stop offset="1.0" stop-color="#fd5037" stop-opacity="0.0"/>
    </radialGradient>
    <radialGradient cx="0" cy="0" gradientTransform="matrix(0.0138, 0.0, 0.0, 0.0138, 2.3, -12.95)" gradientUnits="userSpaceOnUse" id="gradient1" r="819.2" spreadMethod="pad">
      <stop offset="0.0" stop-color="#4e0707"/>
      <stop offset="0.16470588235294117" stop-color="#b41010"/>
      <stop offset="0.5294117647058824" stop-color="#e23612"/>
      <stop offset="0.807843137254902" stop-color="#fd5037"/>
      <stop offset="1.0" stop-color="#fd5037" stop-opacity="0.0"/>
    </radialGradient>
    <radialGradient cx="0" cy="0" gradientTransform="matrix(0.0029, 0.0, 0.0, 0.0029, 6.1, -18.15)" gradientUnits="userSpaceOnUse" id="gradient2" r="819.2" spreadMethod="pad">
      <stop offset="0.0" stop-color="#4e0707"/>
      <stop offset="0.16470588235294117" stop-color="#b41010"/>
      <stop offset="0.5294117647058824" stop-color="#e23612"/>
      <stop offset="0.807843137254902" stop-color="#fd5037"/>
      <stop offset="1.0" stop-color="#fd5037" stop-opacity="0.0"/>
    </radialGradient>
    <radialGradient cx="0" cy="0" gradientTransform="matrix(0.0034, 0.0, 0.0, 0.0034, 6.05, -15.25)" gradientUnits="userSpaceOnUse" id="gradient3" r="819.2" spreadMethod="pad">
      <stop offset="0.0" stop-color="#4e0707"/>
      <stop offset="0.16470588235294117" stop-color="#b41010"/>
      <stop offset="0.5294117647058824" stop-color="#e23612"/>
      <stop offset="0.807843137254902" stop-color="#fd5037"/>
      <stop offset="1.0" stop-color="#fd5037" stop-opacity="0.0"/>
    </radialGradient>
    <radialGradient cx="0" cy="0" gradientTransform="matrix(0.0103, 0.0, 0.0, 0.0103, -6.75, -11.5)" gradientUnits="userSpaceOnUse" id="gradient4" r="819.2" spreadMethod="pad">
      <stop offset="0.0" stop-color="#4e0707"/>
      <stop offset="0.16470588235294117" stop-color="#b41010"/>
      <stop offset="0.5294117647058824" stop-color="#e23612"/>
      <stop offset="0.807843137254902" stop-color="#fd5037"/>
      <stop offset="1.0" stop-color="#fd5037" stop-opacity="0.0"/>
    </radialGradient>
    <radialGradient cx="0" cy="0" gradientTransform="matrix(0.0053, 0.0, 0.0, 0.0053, -9.55, -15.5)" gradientUnits="userSpaceOnUse" id="gradient5" r="819.2" spreadMethod="pad">
      <stop offset="0.0" stop-color="#4e0707"/>
      <stop offset="0.16470588235294117" stop-color="#b41010"/>
      <stop offset="0.5294117647058824" stop-color="#e23612"/>
      <stop offset="0.807843137254902" stop-color="#fd5037"/>
      <stop offset="1.0" stop-color="#fd5037" stop-opacity="0.0"/>
    </radialGradient>
    <radialGradient cx="0" cy="0" gradientTransform="matrix(0.0029, 0.0, 0.0, 0.0029, -6.3, -15.2)" gradientUnits="userSpaceOnUse" id="gradient6" r="819.2" spreadMethod="pad">
      <stop offset="0.0" stop-color="#4e0707"/>
      <stop offset="0.16470588235294117" stop-color="#b41010"/>
      <stop offset="0.5294117647058824" stop-color="#e23612"/>
      <stop offset="0.807843137254902" stop-color="#fd5037"/>
      <stop offset="1.0" stop-color="#fd5037" stop-opacity="0.0"/>
    </radialGradient>
  </defs>
</svg>
