<?xml version="1.0" encoding="UTF-8" standalone="no"?>
<svg xmlns:xlink="http://www.w3.org/1999/xlink" height="18.15px" width="26.4px" xmlns="http://www.w3.org/2000/svg">
  <g transform="matrix(1.0, 0.0, 0.0, 1.0, 12.9, 22.9)">
    <path d="M8.65 -20.25 L9.55 -20.55 Q10.3 -20.8 10.7 -20.25 L10.85 -19.7 Q12.0 -19.1 11.6 -17.95 L11.5 -17.65 11.1 -17.65 10.8 -17.55 10.4 -17.35 8.25 -16.2 8.2 -16.5 6.85 -17.5 Q7.3 -18.2 7.2 -19.2 L7.35 -19.3 Q8.25 -19.6 8.65 -20.25 M8.55 -13.05 L8.15 -12.85 Q9.0 -12.2 8.85 -11.35 8.75 -10.85 8.25 -10.8 L7.4 -10.7 Q6.2 -11.45 5.45 -10.45 L5.35 -10.5 5.3 -10.55 4.5 -11.05 4.3 -11.0 Q3.85 -10.85 3.7 -10.4 3.05 -10.45 2.8 -9.85 L2.8 -9.45 3.05 -9.1 2.6 -9.35 2.45 -9.6 Q0.85 -8.2 -1.15 -9.15 -1.5 -8.4 -2.25 -8.75 L-2.45 -9.3 -2.45 -9.55 -2.0 -11.0 Q-1.9 -11.5 -2.3 -11.8 L-2.7 -12.1 0.4 -12.6 1.7 -12.55 Q2.85 -12.25 3.45 -13.0 L6.5 -13.05 7.45 -13.05 8.55 -13.05 M-7.25 -12.4 L-8.1 -13.55 -8.25 -13.85 -7.55 -13.85 -7.55 -13.75 Q-7.65 -12.95 -6.95 -12.45 L-7.25 -12.4 M-4.55 -20.9 L-4.5 -20.9 -1.1 -19.5 -1.0 -19.45 -0.95 -19.45 Q-0.85 -19.95 -0.35 -20.0 L2.1 -20.3 2.65 -20.5 5.5 -20.75 5.9 -20.6 5.95 -20.45 5.65 -20.0 Q4.8 -19.45 3.85 -19.1 L-1.0 -19.45 -4.4 -19.85 -4.4 -20.1 -4.65 -20.55 -4.6 -20.65 -4.55 -20.9 M5.35 -18.0 L5.7 -17.45 Q5.2 -17.0 4.95 -16.35 L4.45 -15.9 Q4.25 -15.65 4.4 -15.35 L4.5 -15.2 1.6 -15.2 Q1.1 -15.5 0.45 -15.6 L-3.2 -15.4 Q-3.25 -16.1 -4.0 -16.15 L-4.45 -16.0 Q-4.8 -16.65 -5.5 -17.05 L-3.8 -16.9 Q-3.55 -16.8 -3.35 -17.0 -2.6 -17.75 -3.1 -18.2 L-1.0 -18.0 4.4 -17.6 Q4.75 -17.65 5.05 -17.85 L5.35 -18.0 M-7.2 -17.95 L-7.4 -18.15 -7.3 -18.15 -6.95 -17.95 -7.2 -17.95 M-4.6 -11.3 L-3.65 -10.9 -3.9 -10.45 -4.05 -9.9 -5.0 -10.2 -5.05 -10.25 -5.1 -10.35 -5.3 -10.6 -5.25 -10.65 Q-4.85 -10.85 -4.7 -11.2 L-4.6 -11.3" fill="url(#gradient0)" fill-rule="evenodd" stroke="none"/>
    <path d="M11.5 -17.65 Q12.95 -17.65 13.45 -16.2 L13.3 -15.45 Q12.7 -14.8 11.7 -14.9 L11.45 -14.85 Q12.25 -13.75 10.8 -13.4 L8.55 -13.05 7.45 -13.05 6.5 -13.05 3.45 -13.0 Q2.85 -12.25 1.7 -12.55 L0.4 -12.6 -2.7 -12.1 Q-3.65 -12.75 -4.75 -13.1 -4.35 -13.65 -4.2 -14.35 -4.1 -15.0 -4.3 -15.6 L-4.45 -16.0 -4.0 -16.15 Q-3.25 -16.1 -3.2 -15.4 L0.45 -15.6 Q1.1 -15.5 1.6 -15.2 L4.5 -15.2 Q4.85 -14.6 5.65 -14.5 7.7 -14.25 8.25 -16.2 L10.4 -17.35 10.8 -17.55 11.1 -17.65 11.5 -17.65 M-7.4 -9.9 Q-8.45 -9.7 -8.35 -10.85 L-8.0 -11.5 Q-8.15 -10.85 -7.6 -10.45 L-7.5 -10.35 -7.5 -10.25 -7.4 -9.9 M-5.3 -10.6 L-5.35 -10.65 -5.3 -10.8 -5.0 -10.95 -4.7 -11.2 Q-4.85 -10.85 -5.25 -10.65 L-5.3 -10.6" fill="url(#gradient1)" fill-rule="evenodd" stroke="none"/>
    <path d="M7.2 -19.2 Q7.3 -18.2 6.85 -17.5 L6.6 -17.2 6.35 -17.15 Q5.95 -17.25 5.7 -17.45 L5.35 -18.0 5.65 -18.2 7.1 -19.15 7.2 -19.2 M5.95 -20.45 L6.0 -20.3 5.65 -20.0 5.95 -20.45" fill="url(#gradient2)" fill-rule="evenodd" stroke="none"/>
    <path d="M6.85 -17.5 L8.2 -16.5 8.25 -16.2 Q7.7 -14.25 5.65 -14.5 4.85 -14.6 4.5 -15.2 L4.4 -15.35 Q4.25 -15.65 4.45 -15.9 L4.95 -16.35 Q5.2 -17.0 5.7 -17.45 5.95 -17.25 6.35 -17.15 L6.6 -17.2 6.85 -17.5" fill="url(#gradient3)" fill-rule="evenodd" stroke="none"/>
    <path d="M-2.25 -8.75 Q-2.05 -7.65 -3.6 -7.35 -4.4 -7.2 -5.05 -6.65 L-6.5 -5.4 Q-7.05 -4.9 -7.75 -4.8 -9.1 -4.6 -9.0 -5.9 L-8.7 -6.75 -8.75 -7.0 Q-8.95 -7.95 -8.0 -8.2 L-7.45 -8.5 -7.45 -8.6 -7.4 -9.15 -7.2 -9.6 -7.4 -9.9 -7.5 -10.25 -7.5 -10.35 Q-6.2 -9.45 -5.35 -10.65 L-5.3 -10.6 -5.1 -10.35 -5.05 -10.25 -5.0 -10.2 -4.05 -9.9 -3.9 -10.45 -3.65 -10.9 -4.6 -11.3 Q-3.75 -12.2 -4.75 -13.1 L-5.0 -13.3 -5.6 -14.75 Q-4.6 -14.4 -4.4 -15.55 L-4.55 -15.95 -7.0 -17.4 -7.6 -17.05 -7.65 -17.05 -8.0 -16.9 -8.15 -16.75 -9.2 -17.2 -9.55 -17.35 -10.25 -18.05 -10.95 -18.9 -10.95 -19.2 Q-10.5 -20.05 -9.35 -19.9 L-9.0 -19.9 -7.8 -19.9 Q-8.0 -19.2 -6.9 -18.9 L-6.25 -18.65 -5.15 -18.35 -3.2 -18.2 -3.1 -18.2 Q-2.6 -17.75 -3.35 -17.0 -3.55 -16.8 -3.8 -16.9 L-5.5 -17.05 Q-4.8 -16.65 -4.45 -16.0 L-4.3 -15.6 Q-4.1 -15.0 -4.2 -14.35 -4.35 -13.65 -4.75 -13.1 -3.65 -12.75 -2.7 -12.1 L-2.3 -11.8 Q-1.9 -11.5 -2.0 -11.0 L-2.45 -9.55 -2.45 -9.3 -2.25 -8.75 M-6.95 -17.95 L-7.3 -18.15 -7.4 -18.15 -7.2 -17.95 -6.9 -17.9 -6.8 -17.9 -6.95 -17.95" fill="url(#gradient4)" fill-rule="evenodd" stroke="none"/>
    <path d="M-8.25 -13.85 L-9.15 -14.0 Q-9.7 -14.15 -9.9 -14.65 -11.75 -15.1 -12.85 -16.65 L-12.85 -16.95 -12.15 -17.45 -10.2 -17.5 -10.25 -18.05 -9.55 -17.35 -9.2 -17.2 -8.15 -16.75 -8.25 -16.65 Q-8.45 -15.3 -7.55 -14.25 L-7.55 -13.85 -8.25 -13.85 M-7.2 -17.95 L-6.95 -17.95 -6.8 -17.9 -6.9 -17.9 -7.2 -17.95" fill="url(#gradient5)" fill-rule="evenodd" stroke="none"/>
    <path d="M-7.6 -17.05 L-7.0 -17.4 -4.55 -15.95 -4.4 -15.55 Q-4.6 -14.4 -5.6 -14.75 L-5.8 -15.25 Q-6.35 -16.7 -7.6 -17.05" fill="url(#gradient6)" fill-rule="evenodd" stroke="none"/>
    <path d="M-7.8 -19.9 L-7.6 -20.35 -6.95 -20.8 -6.9 -21.55 -6.7 -21.95 Q-6.75 -22.65 -6.1 -22.85 L-5.9 -22.9 Q-4.45 -22.4 -4.55 -20.9 L-4.6 -20.65 -4.65 -20.55 -4.4 -20.1 -4.4 -19.85 -1.0 -19.45 3.85 -19.1 Q4.8 -19.45 5.65 -20.0 L6.0 -20.3 5.95 -20.45 5.9 -20.6 Q5.6 -21.75 6.95 -22.05 7.75 -22.25 8.45 -21.75 L8.8 -20.9 8.65 -20.25 Q8.25 -19.6 7.35 -19.3 L7.2 -19.2 7.1 -19.15 5.65 -18.2 5.35 -18.0 5.05 -17.85 Q4.75 -17.65 4.4 -17.6 L-1.0 -18.0 -3.1 -18.2 -3.2 -18.2 -5.15 -18.35 -6.25 -18.65 -6.9 -18.9 Q-8.0 -19.2 -7.8 -19.9" fill="url(#gradient7)" fill-rule="evenodd" stroke="none"/>
    <path d="M7.4 -10.7 L7.55 -10.6 Q8.65 -9.75 8.05 -8.75 7.9 -8.5 7.6 -8.5 L6.95 -8.55 6.85 -8.35 6.75 -8.25 Q7.5 -7.8 7.55 -6.95 7.55 -6.55 7.2 -6.4 6.35 -6.05 5.75 -6.7 L4.8 -7.45 Q3.7 -8.15 3.05 -9.1 L2.8 -9.45 2.8 -9.85 Q3.05 -10.45 3.7 -10.4 3.85 -10.85 4.3 -11.0 L4.5 -11.05 5.3 -10.55 5.35 -10.5 5.45 -10.45 Q6.2 -11.45 7.4 -10.7" fill="url(#gradient8)" fill-rule="evenodd" stroke="none"/>
    <path d="M-8.0 -11.5 L-8.0 -11.55 Q-7.9 -12.25 -7.25 -12.4 L-6.95 -12.45 Q-7.65 -12.95 -7.55 -13.75 L-7.55 -13.85 -7.55 -14.25 Q-8.45 -15.3 -8.25 -16.65 L-8.15 -16.75 -8.0 -16.9 -7.65 -17.05 -7.6 -17.05 Q-6.35 -16.7 -5.8 -15.25 L-5.6 -14.75 -5.0 -13.3 -4.75 -13.1 Q-3.75 -12.2 -4.6 -11.3 L-4.7 -11.2 -5.0 -10.95 -5.3 -10.8 -5.35 -10.65 Q-6.2 -9.45 -7.5 -10.35 L-7.6 -10.45 Q-8.15 -10.85 -8.0 -11.5" fill="url(#gradient9)" fill-rule="evenodd" stroke="none"/>
  </g>
  <defs>
    <radialGradient cx="0" cy="0" gradientTransform="matrix(0.0142, 0.0, 0.0, 0.0142, 0.9, -14.65)" gradientUnits="userSpaceOnUse" id="gradient0" r="819.2" spreadMethod="pad">
      <stop offset="0.0" stop-color="#4e0707"/>
      <stop offset="0.16470588235294117" stop-color="#b41010"/>
      <stop offset="0.5294117647058824" stop-color="#e23612"/>
      <stop offset="0.807843137254902" stop-color="#fd5037"/>
      <stop offset="1.0" stop-color="#fd5037" stop-opacity="0.0"/>
    </radialGradient>
    <radialGradient cx="0" cy="0" gradientTransform="matrix(0.0138, 0.0, 0.0, 0.0138, 2.55, -13.8)" gradientUnits="userSpaceOnUse" id="gradient1" r="819.2" spreadMethod="pad">
      <stop offset="0.0" stop-color="#4e0707"/>
      <stop offset="0.16470588235294117" stop-color="#b41010"/>
      <stop offset="0.5294117647058824" stop-color="#e23612"/>
      <stop offset="0.807843137254902" stop-color="#fd5037"/>
      <stop offset="1.0" stop-color="#fd5037" stop-opacity="0.0"/>
    </radialGradient>
    <radialGradient cx="0" cy="0" gradientTransform="matrix(0.0029, 0.0, 0.0, 0.0029, 6.35, -19.0)" gradientUnits="userSpaceOnUse" id="gradient2" r="819.2" spreadMethod="pad">
      <stop offset="0.0" stop-color="#4e0707"/>
      <stop offset="0.16470588235294117" stop-color="#b41010"/>
      <stop offset="0.5294117647058824" stop-color="#e23612"/>
      <stop offset="0.807843137254902" stop-color="#fd5037"/>
      <stop offset="1.0" stop-color="#fd5037" stop-opacity="0.0"/>
    </radialGradient>
    <radialGradient cx="0" cy="0" gradientTransform="matrix(0.0034, 0.0, 0.0, 0.0034, 6.3, -16.1)" gradientUnits="userSpaceOnUse" id="gradient3" r="819.2" spreadMethod="pad">
      <stop offset="0.0" stop-color="#4e0707"/>
      <stop offset="0.16470588235294117" stop-color="#b41010"/>
      <stop offset="0.5294117647058824" stop-color="#e23612"/>
      <stop offset="0.807843137254902" stop-color="#fd5037"/>
      <stop offset="1.0" stop-color="#fd5037" stop-opacity="0.0"/>
    </radialGradient>
    <radialGradient cx="0" cy="0" gradientTransform="matrix(0.0103, 0.0, 0.0, 0.0103, -6.5, -12.35)" gradientUnits="userSpaceOnUse" id="gradient4" r="819.2" spreadMethod="pad">
      <stop offset="0.0" stop-color="#4e0707"/>
      <stop offset="0.16470588235294117" stop-color="#b41010"/>
      <stop offset="0.5294117647058824" stop-color="#e23612"/>
      <stop offset="0.807843137254902" stop-color="#fd5037"/>
      <stop offset="1.0" stop-color="#fd5037" stop-opacity="0.0"/>
    </radialGradient>
    <radialGradient cx="0" cy="0" gradientTransform="matrix(0.0053, 0.0, 0.0, 0.0053, -9.3, -16.35)" gradientUnits="userSpaceOnUse" id="gradient5" r="819.2" spreadMethod="pad">
      <stop offset="0.0" stop-color="#4e0707"/>
      <stop offset="0.16470588235294117" stop-color="#b41010"/>
      <stop offset="0.5294117647058824" stop-color="#e23612"/>
      <stop offset="0.807843137254902" stop-color="#fd5037"/>
      <stop offset="1.0" stop-color="#fd5037" stop-opacity="0.0"/>
    </radialGradient>
    <radialGradient cx="0" cy="0" gradientTransform="matrix(0.0029, 0.0, 0.0, 0.0029, -6.05, -16.05)" gradientUnits="userSpaceOnUse" id="gradient6" r="819.2" spreadMethod="pad">
      <stop offset="0.0" stop-color="#4e0707"/>
      <stop offset="0.16470588235294117" stop-color="#b41010"/>
      <stop offset="0.5294117647058824" stop-color="#e23612"/>
      <stop offset="0.807843137254902" stop-color="#fd5037"/>
      <stop offset="1.0" stop-color="#fd5037" stop-opacity="0.0"/>
    </radialGradient>
    <radialGradient cx="0" cy="0" gradientTransform="matrix(0.0108, 0.0, 0.0, 0.0108, 0.45, -20.2)" gradientUnits="userSpaceOnUse" id="gradient7" r="819.2" spreadMethod="pad">
      <stop offset="0.0" stop-color="#4e0707"/>
      <stop offset="0.16470588235294117" stop-color="#b41010"/>
      <stop offset="0.5294117647058824" stop-color="#e23612"/>
      <stop offset="0.807843137254902" stop-color="#fd5037"/>
      <stop offset="1.0" stop-color="#fd5037" stop-opacity="0.0"/>
    </radialGradient>
    <radialGradient cx="0" cy="0" gradientTransform="matrix(0.004, 0.0, 0.0, 0.004, 5.5, -8.65)" gradientUnits="userSpaceOnUse" id="gradient8" r="819.2" spreadMethod="pad">
      <stop offset="0.0" stop-color="#4e0707"/>
      <stop offset="0.16470588235294117" stop-color="#b41010"/>
      <stop offset="0.5294117647058824" stop-color="#e23612"/>
      <stop offset="0.807843137254902" stop-color="#fd5037"/>
      <stop offset="1.0" stop-color="#fd5037" stop-opacity="0.0"/>
    </radialGradient>
    <radialGradient cx="0" cy="0" gradientTransform="matrix(0.0048, 0.0, 0.0, 0.0048, -6.25, -13.5)" gradientUnits="userSpaceOnUse" id="gradient9" r="819.2" spreadMethod="pad">
      <stop offset="0.0" stop-color="#4e0707"/>
      <stop offset="0.16470588235294117" stop-color="#b41010"/>
      <stop offset="0.5294117647058824" stop-color="#e23612"/>
      <stop offset="0.807843137254902" stop-color="#fd5037"/>
      <stop offset="1.0" stop-color="#fd5037" stop-opacity="0.0"/>
    </radialGradient>
  </defs>
</svg>
