<?xml version="1.0" encoding="UTF-8" standalone="no"?>
<svg xmlns:xlink="http://www.w3.org/1999/xlink" height="23.6px" width="16.9px" xmlns="http://www.w3.org/2000/svg">
  <g transform="matrix(1.0, 0.0, 0.0, 1.0, 7.45, 21.55)">
    <path d="M4.75 -15.0 L4.65 -14.9 4.2 -14.7 4.75 -15.0" fill="url(#gradient0)" fill-rule="evenodd" stroke="none"/>
    <path d="M0.15 -10.3 L0.15 -10.05 0.25 -9.95 0.3 -9.85 0.3 -9.55 0.3 -9.4 0.4 -9.3 0.75 -9.15 0.95 -9.2 1.2 -9.55 1.25 -9.55 1.15 -9.25 Q0.9 -8.35 1.25 -7.5 1.8 -6.1 1.8 -4.55 3.9 -3.85 5.4 -2.65 5.85 -2.3 5.85 -1.65 5.75 1.9 2.4 0.7 1.85 0.5 1.65 0.0 L-1.2 0.3 Q-2.2 3.15 -4.75 1.35 L-5.3 0.4 Q-5.6 -1.35 -4.85 -2.7 -4.35 -3.6 -3.35 -4.0 L-2.1 -4.4 -2.1 -4.85 -1.95 -5.3 -1.9 -5.5 -2.6 -10.15 -2.6 -10.2 Q-1.85 -8.45 -0.05 -9.0 L0.0 -9.25 -0.15 -10.0 0.15 -10.3 M-2.75 -11.5 L-2.75 -11.55 -2.7 -11.55 -2.75 -11.5 M-1.85 -13.5 L-1.6 -13.55 -1.7 -13.45 -1.75 -13.4 -1.85 -13.5" fill="url(#gradient1)" fill-rule="evenodd" stroke="none"/>
    <path d="M0.3 -14.05 L1.25 -14.95 Q1.55 -15.15 1.7 -14.8 L1.8 -14.0 Q2.9 -14.7 3.3 -13.7 L3.2 -13.5 3.0 -13.3 2.95 -13.15 2.85 -12.95 2.9 -12.85 2.95 -12.65 Q2.9 -12.25 2.5 -12.0 L2.3 -11.8 Q2.3 -10.65 1.5 -9.8 L1.25 -9.55 1.2 -9.55 0.95 -9.2 0.75 -9.15 0.4 -9.3 0.3 -9.4 0.3 -9.55 0.3 -9.85 0.25 -9.95 0.15 -10.05 0.15 -10.3 0.3 -10.95 0.35 -11.5 Q0.5 -12.75 -0.6 -13.15 L-0.1 -13.55 -0.05 -13.55 0.0 -13.65 0.2 -13.9 0.3 -14.05 M-2.75 -11.55 L-3.0 -11.95 -3.2 -12.35 -3.4 -12.3 -2.95 -12.7 -3.35 -13.4 -4.35 -14.45 -4.35 -14.55 -4.25 -14.65 -4.1 -14.85 Q-3.75 -15.9 -4.45 -16.25 L-4.45 -16.5 Q-4.35 -16.8 -4.0 -16.8 -2.8 -15.9 -2.35 -14.35 L-1.85 -13.5 -1.75 -13.4 -1.7 -13.45 -1.6 -13.55 -1.55 -13.65 -2.4 -15.6 -2.45 -15.9 -1.3 -16.1 -1.4 -15.9 Q-1.35 -15.0 -0.7 -14.3 L-0.75 -14.25 -1.65 -13.4 -1.75 -13.4 Q-2.3 -13.4 -2.6 -13.05 L-2.65 -12.75 -2.6 -12.3 -2.05 -11.95 Q-2.55 -11.9 -2.7 -11.55 L-2.75 -11.55" fill="url(#gradient2)" fill-rule="evenodd" stroke="none"/>
    <path d="M0.3 -14.05 L0.2 -13.9 0.0 -13.65 -0.1 -13.55 -0.6 -13.15 Q0.5 -12.75 0.35 -11.5 L0.3 -10.95 0.15 -10.3 -0.15 -10.0 0.0 -9.25 -0.05 -9.0 Q-1.85 -8.45 -2.6 -10.2 L-2.65 -10.3 -2.75 -10.8 -2.75 -11.5 -2.7 -11.55 Q-2.55 -11.9 -2.05 -11.95 L-2.6 -12.3 -2.65 -12.75 -2.6 -13.05 Q-2.3 -13.4 -1.75 -13.4 L-1.65 -13.4 -0.75 -14.25 -0.7 -14.3 Q-1.35 -15.0 -1.4 -15.9 L-1.3 -16.1 -1.2 -16.15 -1.15 -16.2 -1.0 -16.2 -1.0 -16.25 Q-0.25 -15.65 0.2 -14.7 L0.3 -14.05" fill="url(#gradient3)" fill-rule="evenodd" stroke="none"/>
    <path d="M6.35 -20.5 Q7.9 -20.8 9.1 -19.95 L9.2 -19.9 9.35 -19.4 Q9.35 -18.4 8.2 -18.55 L8.3 -18.3 Q8.65 -17.85 9.35 -17.75 L9.4 -17.65 9.45 -17.45 9.35 -17.25 9.3 -17.15 8.55 -16.8 8.0 -16.35 6.95 -15.4 7.45 -14.9 Q7.75 -14.45 8.3 -14.2 L8.45 -13.95 8.45 -13.85 8.35 -13.75 8.3 -13.65 8.2 -13.55 Q8.0 -12.4 6.5 -12.4 L6.25 -12.35 5.45 -12.1 Q5.4 -11.15 4.25 -11.0 3.5 -10.9 3.05 -11.55 L3.05 -11.75 3.05 -11.85 3.25 -12.3 3.35 -12.4 3.35 -12.5 3.4 -12.6 3.4 -12.7 3.6 -12.85 3.9 -13.0 4.7 -13.15 5.05 -13.5 6.05 -14.75 6.05 -14.8 6.05 -14.9 6.05 -15.0 6.05 -15.3 6.05 -15.4 5.9 -15.55 5.9 -15.65 5.9 -16.05 6.05 -16.2 6.2 -16.25 Q6.45 -16.3 6.3 -16.55 L6.25 -16.6 6.05 -16.7 5.8 -16.9 5.9 -17.3 Q6.4 -17.7 7.1 -17.8 L7.35 -17.85 7.35 -17.95 7.3 -18.05 7.3 -18.15 7.3 -18.3 7.15 -18.45 6.9 -18.6 6.75 -18.7 6.55 -18.65 6.45 -18.6 6.15 -18.5 5.95 -18.3 5.1 -18.1 4.65 -18.4 4.65 -18.55 4.6 -18.65 4.6 -19.05 4.6 -19.15 4.75 -19.3 4.85 -19.4 5.3 -19.8 5.4 -19.95 5.5 -20.05 6.2 -20.45 6.35 -20.45 6.35 -20.5" fill="url(#gradient4)" fill-rule="evenodd" stroke="none"/>
    <path d="M-3.4 -12.3 L-4.7 -12.45 -5.2 -12.9 -5.2 -13.05 -5.2 -13.35 -5.25 -13.45 -5.35 -13.55 -5.45 -14.1 -5.45 -14.5 -5.95 -15.05 -5.95 -15.25 -6.95 -15.9 -7.15 -16.8 -7.15 -17.55 -7.45 -18.05 -7.45 -18.25 -7.2 -18.5 -7.0 -18.6 -7.0 -18.7 -6.95 -18.9 -6.95 -19.0 Q-6.5 -19.6 -5.65 -19.35 L-5.45 -19.65 -5.25 -19.8 -5.6 -20.05 -5.7 -20.15 -5.75 -20.9 Q-5.8 -21.3 -5.45 -21.5 L-5.4 -21.55 -5.25 -21.55 -4.85 -21.35 -4.75 -21.25 -4.65 -21.2 -4.25 -21.3 Q-3.8 -21.25 -3.8 -20.8 L-3.8 -20.5 Q-2.95 -19.1 -4.65 -19.0 L-4.6 -18.45 -4.55 -18.05 -4.55 -17.95 -4.7 -17.75 Q-4.65 -17.4 -4.95 -17.2 L-5.3 -17.05 -5.15 -16.7 -4.95 -16.4 -4.45 -16.25 Q-3.75 -15.9 -4.1 -14.85 L-4.25 -14.65 -4.35 -14.55 -4.4 -14.5 -4.35 -14.45 -3.35 -13.4 -2.95 -12.7 -3.4 -12.3" fill="url(#gradient5)" fill-rule="evenodd" stroke="none"/>
    <path d="M0.2 -17.5 Q-0.1 -16.7 -0.9 -17.35 L-1.95 -18.15 -1.95 -18.4 -1.9 -18.6 -1.7 -18.75 -1.65 -18.8 -1.5 -18.8 Q-0.45 -18.7 0.15 -17.95 L0.2 -17.5" fill="url(#gradient6)" fill-rule="evenodd" stroke="none"/>
    <path d="M3.05 -16.2 L2.6 -15.8 1.25 -15.55 1.05 -15.6 0.8 -15.8 0.8 -15.9 0.8 -16.25 0.8 -16.45 0.9 -16.55 Q1.0 -16.75 1.25 -16.7 L1.25 -16.75 Q2.2 -17.0 2.9 -16.5 L3.05 -16.2" fill="url(#gradient7)" fill-rule="evenodd" stroke="none"/>
  </g>
  <defs>
    <radialGradient cx="0" cy="0" gradientTransform="matrix(0.0125, 0.0, 0.0, 0.0125, 0.3, -12.8)" gradientUnits="userSpaceOnUse" id="gradient0" r="819.2" spreadMethod="pad">
      <stop offset="0.0" stop-color="#4e0707"/>
      <stop offset="0.16470588235294117" stop-color="#b41010"/>
      <stop offset="0.5294117647058824" stop-color="#e23612"/>
      <stop offset="0.807843137254902" stop-color="#fd5037"/>
      <stop offset="1.0" stop-color="#fd5037" stop-opacity="0.0"/>
    </radialGradient>
    <radialGradient cx="0" cy="0" gradientTransform="matrix(0.0107, 0.0, 0.0, 0.0107, 0.25, -5.8)" gradientUnits="userSpaceOnUse" id="gradient1" r="819.2" spreadMethod="pad">
      <stop offset="0.0" stop-color="#4e0707"/>
      <stop offset="0.16470588235294117" stop-color="#b41010"/>
      <stop offset="0.5294117647058824" stop-color="#e23612"/>
      <stop offset="0.807843137254902" stop-color="#fd5037"/>
      <stop offset="1.0" stop-color="#fd5037" stop-opacity="0.0"/>
    </radialGradient>
    <radialGradient cx="0" cy="0" gradientTransform="matrix(0.0066, 0.0, 0.0, 0.0066, -0.85, -12.95)" gradientUnits="userSpaceOnUse" id="gradient2" r="819.2" spreadMethod="pad">
      <stop offset="0.0" stop-color="#4e0707"/>
      <stop offset="0.16470588235294117" stop-color="#b41010"/>
      <stop offset="0.5294117647058824" stop-color="#e23612"/>
      <stop offset="0.807843137254902" stop-color="#fd5037"/>
      <stop offset="1.0" stop-color="#fd5037" stop-opacity="0.0"/>
    </radialGradient>
    <radialGradient cx="0" cy="0" gradientTransform="matrix(0.0046, 0.0, 0.0, 0.0046, -1.2, -12.55)" gradientUnits="userSpaceOnUse" id="gradient3" r="819.2" spreadMethod="pad">
      <stop offset="0.0" stop-color="#4e0707"/>
      <stop offset="0.16470588235294117" stop-color="#b41010"/>
      <stop offset="0.5294117647058824" stop-color="#e23612"/>
      <stop offset="0.807843137254902" stop-color="#fd5037"/>
      <stop offset="1.0" stop-color="#fd5037" stop-opacity="0.0"/>
    </radialGradient>
    <radialGradient cx="0" cy="0" gradientTransform="matrix(0.0074, 0.0, 0.0, 0.0074, 6.25, -15.8)" gradientUnits="userSpaceOnUse" id="gradient4" r="819.2" spreadMethod="pad">
      <stop offset="0.0" stop-color="#4e0707"/>
      <stop offset="0.16470588235294117" stop-color="#b41010"/>
      <stop offset="0.5294117647058824" stop-color="#e23612"/>
      <stop offset="0.807843137254902" stop-color="#fd5037"/>
      <stop offset="1.0" stop-color="#fd5037" stop-opacity="0.0"/>
    </radialGradient>
    <radialGradient cx="0" cy="0" gradientTransform="matrix(0.006, 0.0, 0.0, 0.006, -5.2, -16.9)" gradientUnits="userSpaceOnUse" id="gradient5" r="819.2" spreadMethod="pad">
      <stop offset="0.0" stop-color="#4e0707"/>
      <stop offset="0.16470588235294117" stop-color="#b41010"/>
      <stop offset="0.5294117647058824" stop-color="#e23612"/>
      <stop offset="0.807843137254902" stop-color="#fd5037"/>
      <stop offset="1.0" stop-color="#fd5037" stop-opacity="0.0"/>
    </radialGradient>
    <radialGradient cx="0" cy="0" gradientTransform="matrix(0.002, 0.0, 0.0, 0.002, -0.85, -17.95)" gradientUnits="userSpaceOnUse" id="gradient6" r="819.2" spreadMethod="pad">
      <stop offset="0.0" stop-color="#4e0707"/>
      <stop offset="0.16470588235294117" stop-color="#b41010"/>
      <stop offset="0.5294117647058824" stop-color="#e23612"/>
      <stop offset="0.807843137254902" stop-color="#fd5037"/>
      <stop offset="1.0" stop-color="#fd5037" stop-opacity="0.0"/>
    </radialGradient>
    <radialGradient cx="0" cy="0" gradientTransform="matrix(0.002, 0.0, 0.0, 0.002, 1.95, -16.2)" gradientUnits="userSpaceOnUse" id="gradient7" r="819.2" spreadMethod="pad">
      <stop offset="0.0" stop-color="#4e0707"/>
      <stop offset="0.16470588235294117" stop-color="#b41010"/>
      <stop offset="0.5294117647058824" stop-color="#e23612"/>
      <stop offset="0.807843137254902" stop-color="#fd5037"/>
      <stop offset="1.0" stop-color="#fd5037" stop-opacity="0.0"/>
    </radialGradient>
  </defs>
</svg>
