<?xml version="1.0" encoding="UTF-8" standalone="no"?>
<svg xmlns:xlink="http://www.w3.org/1999/xlink" height="46.0px" width="46.5px" xmlns="http://www.w3.org/2000/svg">
  <g transform="matrix(1.0, 0.0, 0.0, 1.0, 23.25, 23.0)">
    <path d="M0.0 -22.5 Q9.4 -22.5 16.05 -15.9 22.75 -9.3 22.75 0.0 22.75 9.3 16.05 15.9 9.4 22.5 0.0 22.5 -9.4 22.5 -16.1 15.9 -22.75 9.3 -22.75 0.0 -22.75 -9.3 -16.1 -15.9 -9.4 -22.5 0.0 -22.5 Z" fill="none" stroke="#000000" stroke-linecap="round" stroke-linejoin="round" stroke-width="1.0"/>
    <path d="M13.75 1.0 L13.6 1.95 Q13.4 4.0 11.8 4.0 10.4 4.0 10.4 2.3 L10.5 1.0 6.25 1.0 6.05 2.75 Q6.0 4.95 7.55 6.45 9.15 7.9 11.35 7.9 13.9 7.9 15.7 6.3 17.55 4.7 17.85 2.2 L18.0 1.0 13.75 1.0 M-7.8 2.45 Q-7.8 1.65 -8.1 1.0 L-17.55 1.0 Q-17.15 1.85 -15.75 1.85 L-13.4 1.85 Q-12.35 1.85 -12.35 2.75 -12.35 3.9 -14.1 3.9 -14.9 3.9 -15.8 3.0 -16.7 2.1 -17.35 2.1 -18.3 2.1 -18.95 2.75 -19.6 3.4 -19.6 4.3 -19.6 6.0 -17.8 7.0 -16.25 7.9 -14.5 7.9 -11.95 7.9 -10.0 6.45 -7.8 4.9 -7.8 2.45 M-3.95 1.45 L-2.45 1.45 -0.9 1.45 Q0.35 1.6 0.35 2.55 L-0.1 3.55 Q-0.55 3.95 -1.2 3.95 -2.05 3.95 -2.6 3.45 L-3.6 2.3 Q-4.05 1.75 -4.8 1.75 -5.65 1.75 -6.35 2.4 -7.0 3.05 -7.0 3.9 -7.0 5.7 -5.0 6.9 -3.25 7.9 -1.3 7.9 1.3 7.9 3.15 6.2 4.95 4.5 4.95 1.9 L4.9 1.0 -5.4 1.0 -3.95 1.45 M-17.8 -7.5 Q-18.55 -7.05 -18.65 -6.35 L-18.9 -3.65 Q-18.9 -2.85 -18.4 -2.35 -17.9 -1.8 -17.1 -1.8 -16.2 -1.8 -15.6 -2.4 -15.0 -3.0 -14.9 -3.9 L-12.95 -3.9 Q-11.85 -3.9 -11.85 -3.0 -11.85 -1.8 -13.35 -1.65 L-15.5 -1.65 -17.0 -1.2 -17.2 -1.0 -8.7 -1.0 Q-7.85 -2.1 -7.85 -3.75 -7.85 -5.7 -8.95 -6.8 -10.1 -7.9 -12.0 -7.9 L-16.45 -7.9 Q-17.2 -7.9 -17.8 -7.5 M20.35 -8.05 Q21.75 -6.55 21.8 -4.5 L21.8 4.5 Q21.75 6.55 20.35 8.0 19.0 9.5 17.05 9.5 L-17.0 9.5 Q-18.95 9.5 -20.35 8.0 -21.7 6.55 -21.7 4.5 L-21.7 -4.5 Q-21.7 -6.55 -20.35 -8.05 -18.95 -9.5 -17.0 -9.5 L17.05 -9.5 Q19.0 -9.5 20.35 -8.05 M6.6 -2.6 L6.45 -1.0 10.6 -1.0 Q10.75 -2.3 11.05 -3.05 11.6 -4.4 12.7 -4.4 14.15 -4.4 14.05 -2.8 L13.9 -1.0 18.2 -1.0 18.4 -3.35 Q18.45 -5.6 16.85 -6.95 15.3 -8.25 13.05 -8.25 10.5 -8.25 8.7 -6.7 6.9 -5.15 6.6 -2.6 M1.55 -2.9 Q2.05 -2.4 2.9 -2.4 4.65 -2.4 5.2 -4.15 L5.4 -6.1 Q5.45 -7.9 3.45 -7.9 L-3.05 -7.9 Q-5.1 -7.9 -5.35 -5.9 L-5.85 -1.0 3.85 -1.0 3.7 -1.15 Q2.55 -2.3 0.65 -2.5 L-1.35 -2.55 -1.2 -4.2 1.2 -4.2 Q1.1 -3.35 1.55 -2.9" fill="#000000" fill-rule="evenodd" stroke="none"/>
  </g>
</svg>
