<?xml version="1.0" encoding="UTF-8" standalone="no"?>
<svg xmlns:xlink="http://www.w3.org/1999/xlink" height="28.05px" width="16.75px" xmlns="http://www.w3.org/2000/svg">
  <g transform="matrix(1.0, 0.0, 0.0, 1.0, 6.4, 24.25)">
    <path d="M4.75 -15.0 L4.65 -14.9 4.2 -14.7 4.75 -15.0" fill="url(#gradient0)" fill-rule="evenodd" stroke="none"/>
    <path d="M4.35 -3.45 Q5.05 0.4 0.9 1.75 0.2 2.0 -0.45 2.4 -1.55 3.1 -2.75 3.55 -5.45 4.45 -6.15 2.3 -6.85 0.0 -5.4 -1.7 -3.6 -3.7 -1.2 -4.55 L3.6 -4.15 Q4.25 -4.1 4.35 -3.45" fill="url(#gradient1)" fill-rule="evenodd" stroke="none"/>
    <path d="M8.2 -22.4 Q9.3 -22.2 9.55 -21.05 L9.45 -20.1 9.9 -19.55 9.95 -18.6 10.35 -17.75 Q10.4 -17.2 10.05 -16.8 L10.05 -16.75 10.05 -16.65 10.05 -16.55 10.0 -16.45 9.9 -16.25 9.75 -16.15 9.7 -16.05 9.4 -15.6 9.2 -15.4 Q9.45 -13.55 7.4 -13.2 L6.5 -12.75 5.6 -12.7 Q5.25 -12.3 4.75 -12.4 4.5 -12.4 4.3 -12.65 L4.3 -12.75 4.35 -13.1 4.55 -13.3 4.75 -14.05 Q5.0 -14.6 5.55 -14.75 L5.55 -14.85 5.95 -15.3 6.1 -15.35 6.8 -16.35 7.55 -16.8 7.6 -16.9 7.75 -17.05 7.85 -17.15 Q7.9 -18.4 7.45 -19.55 L7.35 -20.05 7.35 -20.9 7.35 -20.95 Q6.95 -21.0 6.65 -21.3 L6.65 -21.4 6.65 -21.55 6.7 -21.75 6.6 -21.85 6.5 -22.05 6.4 -22.15 6.4 -22.25 6.45 -22.6 6.6 -22.75 6.7 -22.8 6.85 -22.8 Q7.65 -23.05 8.15 -22.45 L8.2 -22.4" fill="url(#gradient2)" fill-rule="evenodd" stroke="none"/>
    <path d="M-4.4 -24.05 L-4.3 -24.0 Q-2.55 -24.35 -2.8 -22.8 L-2.95 -22.6 Q-2.95 -21.7 -3.35 -20.85 L-3.65 -20.3 -3.9 -20.05 -4.05 -19.5 -4.15 -19.25 -3.7 -16.45 -3.55 -16.1 -2.1 -14.05 -1.65 -13.45 -1.5 -13.05 -1.3 -12.75 -1.2 -12.55 Q-1.35 -11.8 -2.1 -12.2 L-2.45 -12.55 -3.05 -13.0 -3.1 -13.05 Q-4.2 -14.55 -5.8 -15.7 -6.25 -16.05 -6.35 -16.55 L-6.4 -16.75 Q-6.15 -17.1 -5.7 -17.15 L-5.75 -17.7 -5.7 -18.15 -5.7 -18.35 -5.75 -18.45 -5.85 -18.55 -5.9 -19.4 -5.9 -20.4 Q-6.45 -21.7 -5.85 -22.95 L-5.2 -23.8 -5.2 -23.9 -5.2 -24.0 Q-5.05 -24.2 -4.75 -24.2 L-4.75 -24.25 -4.4 -24.05" fill="url(#gradient3)" fill-rule="evenodd" stroke="none"/>
    <path d="M0.1 -20.45 L0.25 -20.45 0.25 -20.5 Q0.9 -20.65 1.25 -20.15 L1.35 -20.05 1.4 -19.95 1.45 -19.85 1.45 -19.75 1.45 -19.65 1.4 -19.55 1.35 -19.5 Q0.55 -19.15 -0.2 -19.8 L-0.2 -19.9 -0.15 -20.25 0.05 -20.4 0.1 -20.45" fill="url(#gradient4)" fill-rule="evenodd" stroke="none"/>
    <path d="M3.95 -16.4 L3.95 -16.3 Q3.35 -15.35 2.3 -16.05 2.2 -16.8 3.1 -16.8 L3.25 -16.8 Q3.85 -16.9 3.95 -16.4" fill="url(#gradient5)" fill-rule="evenodd" stroke="none"/>
  </g>
  <defs>
    <radialGradient cx="0" cy="0" gradientTransform="matrix(0.0125, 0.0, 0.0, 0.0125, 0.3, -12.8)" gradientUnits="userSpaceOnUse" id="gradient0" r="819.2" spreadMethod="pad">
      <stop offset="0.0" stop-color="#4e0707"/>
      <stop offset="0.16470588235294117" stop-color="#b41010"/>
      <stop offset="0.5294117647058824" stop-color="#e23612"/>
      <stop offset="0.807843137254902" stop-color="#fd5037"/>
      <stop offset="1.0" stop-color="#fd5037" stop-opacity="0.0"/>
    </radialGradient>
    <radialGradient cx="0" cy="0" gradientTransform="matrix(0.0084, 0.0, 0.0, 0.0084, -0.95, -0.35)" gradientUnits="userSpaceOnUse" id="gradient1" r="819.2" spreadMethod="pad">
      <stop offset="0.0" stop-color="#4e0707"/>
      <stop offset="0.16470588235294117" stop-color="#b41010"/>
      <stop offset="0.5294117647058824" stop-color="#e23612"/>
      <stop offset="0.807843137254902" stop-color="#fd5037"/>
      <stop offset="1.0" stop-color="#fd5037" stop-opacity="0.0"/>
    </radialGradient>
    <radialGradient cx="0" cy="0" gradientTransform="matrix(0.0076, 0.0, 0.0, 0.0076, 7.3, -17.65)" gradientUnits="userSpaceOnUse" id="gradient2" r="819.2" spreadMethod="pad">
      <stop offset="0.0" stop-color="#4e0707"/>
      <stop offset="0.16470588235294117" stop-color="#b41010"/>
      <stop offset="0.5294117647058824" stop-color="#e23612"/>
      <stop offset="0.807843137254902" stop-color="#fd5037"/>
      <stop offset="1.0" stop-color="#fd5037" stop-opacity="0.0"/>
    </radialGradient>
    <radialGradient cx="0" cy="0" gradientTransform="matrix(0.0079, 0.0, 0.0, 0.0079, -3.8, -18.15)" gradientUnits="userSpaceOnUse" id="gradient3" r="819.2" spreadMethod="pad">
      <stop offset="0.0" stop-color="#4e0707"/>
      <stop offset="0.16470588235294117" stop-color="#b41010"/>
      <stop offset="0.5294117647058824" stop-color="#e23612"/>
      <stop offset="0.807843137254902" stop-color="#fd5037"/>
      <stop offset="1.0" stop-color="#fd5037" stop-opacity="0.0"/>
    </radialGradient>
    <radialGradient cx="0" cy="0" gradientTransform="matrix(0.0015, 0.0, 0.0, 0.0015, 0.6, -19.95)" gradientUnits="userSpaceOnUse" id="gradient4" r="819.2" spreadMethod="pad">
      <stop offset="0.0" stop-color="#4e0707"/>
      <stop offset="0.16470588235294117" stop-color="#b41010"/>
      <stop offset="0.5294117647058824" stop-color="#e23612"/>
      <stop offset="0.807843137254902" stop-color="#fd5037"/>
      <stop offset="1.0" stop-color="#fd5037" stop-opacity="0.0"/>
    </radialGradient>
    <radialGradient cx="0" cy="0" gradientTransform="matrix(0.0018, 0.0, 0.0, 0.0018, 3.1, -16.3)" gradientUnits="userSpaceOnUse" id="gradient5" r="819.2" spreadMethod="pad">
      <stop offset="0.0" stop-color="#4e0707"/>
      <stop offset="0.16470588235294117" stop-color="#b41010"/>
      <stop offset="0.5294117647058824" stop-color="#e23612"/>
      <stop offset="0.807843137254902" stop-color="#fd5037"/>
      <stop offset="1.0" stop-color="#fd5037" stop-opacity="0.0"/>
    </radialGradient>
  </defs>
</svg>
