<?xml version="1.0" encoding="UTF-8" standalone="no"?>
<svg xmlns:xlink="http://www.w3.org/1999/xlink" height="9.05px" width="12.95px" xmlns="http://www.w3.org/2000/svg">
  <g transform="matrix(1.0, 0.0, 0.0, 1.0, 6.8, 6.25)">
    <path d="M-0.45 -0.75 Q-0.3 -0.3 -0.6 0.1 L-1.25 0.6 -2.1 0.5 -2.6 -0.2 Q-2.8 -0.95 -2.55 -1.4 L-2.55 -3.95 -1.15 -1.7 -0.45 -0.75" fill="url(#gradient0)" fill-rule="evenodd" stroke="none"/>
    <path d="M-0.45 -0.75 Q-0.3 -0.3 -0.6 0.1 L-1.25 0.6 -2.1 0.5 -2.6 -0.2 Q-2.8 -0.95 -2.55 -1.4 L-2.55 -3.95 -1.15 -1.7 -0.45 -0.75 Z" fill="none" stroke="#000000" stroke-linecap="round" stroke-linejoin="round" stroke-width="0.5"/>
    <path d="M1.8 -1.4 Q1.95 -0.95 1.65 -0.55 L1.0 -0.05 0.15 -0.15 -0.35 -0.85 Q-0.55 -1.6 -0.3 -2.05 L-0.3 -4.6 1.1 -2.35 1.8 -1.4" fill="url(#gradient1)" fill-rule="evenodd" stroke="none"/>
    <path d="M1.8 -1.4 Q1.95 -0.95 1.65 -0.55 L1.0 -0.05 0.15 -0.15 -0.35 -0.85 Q-0.55 -1.6 -0.3 -2.05 L-0.3 -4.6 1.1 -2.35 1.8 -1.4 Z" fill="none" stroke="#000000" stroke-linecap="round" stroke-linejoin="round" stroke-width="0.5"/>
    <path d="M-2.4 0.0 Q-2.25 0.55 -2.55 1.05 -2.85 1.6 -3.4 1.75 L-4.55 1.6 Q-5.1 1.3 -5.25 0.75 -5.5 -0.25 -5.15 -0.9 L-5.2 -4.3 Q-3.7 -1.5 -3.25 -1.3 -2.6 -0.85 -2.4 0.0" fill="url(#gradient2)" fill-rule="evenodd" stroke="none"/>
    <path d="M-2.4 0.0 Q-2.25 0.55 -2.55 1.05 -2.85 1.6 -3.4 1.75 L-4.55 1.6 Q-5.1 1.3 -5.25 0.75 -5.5 -0.25 -5.15 -0.9 L-5.2 -4.3 Q-3.7 -1.5 -3.25 -1.3 -2.6 -0.85 -2.4 0.0 Z" fill="none" stroke="#000000" stroke-linecap="round" stroke-linejoin="round" stroke-width="0.5"/>
    <path d="M4.45 -1.7 L4.3 -0.65 Q4.0 -0.1 3.45 0.05 L2.3 -0.1 Q1.75 -0.4 1.6 -0.95 1.35 -1.95 1.7 -2.6 1.5 -5.95 1.65 -6.0 3.15 -3.2 3.6 -3.0 4.25 -2.55 4.45 -1.7" fill="url(#gradient3)" fill-rule="evenodd" stroke="none"/>
    <path d="M4.45 -1.7 L4.3 -0.65 Q4.0 -0.1 3.45 0.05 L2.3 -0.1 Q1.75 -0.4 1.6 -0.95 1.35 -1.95 1.7 -2.6 1.5 -5.95 1.65 -6.0 3.15 -3.2 3.6 -3.0 4.25 -2.55 4.45 -1.7 Z" fill="none" stroke="#000000" stroke-linecap="round" stroke-linejoin="round" stroke-width="0.5"/>
    <path d="M-4.7 1.4 Q-4.6 1.75 -4.8 2.1 L-5.35 2.5 -6.05 2.4 -6.5 1.9 Q-6.65 1.3 -6.4 0.85 L-6.5 -1.25 -5.3 0.65 Q-4.85 0.85 -4.7 1.4" fill="url(#gradient4)" fill-rule="evenodd" stroke="none"/>
    <path d="M-4.7 1.4 Q-4.6 1.75 -4.8 2.1 L-5.35 2.5 -6.05 2.4 -6.5 1.9 Q-6.65 1.3 -6.4 0.85 L-6.5 -1.25 -5.3 0.65 Q-4.85 0.85 -4.7 1.4 Z" fill="none" stroke="#000000" stroke-linecap="round" stroke-linejoin="round" stroke-width="0.5"/>
    <path d="M5.85 -1.6 L5.75 -0.9 5.2 -0.5 4.5 -0.6 Q4.15 -0.75 4.05 -1.1 3.9 -1.7 4.15 -2.15 L4.05 -4.25 Q5.0 -2.5 5.25 -2.35 L5.85 -1.6" fill="url(#gradient5)" fill-rule="evenodd" stroke="none"/>
    <path d="M5.85 -1.6 L5.75 -0.9 5.2 -0.5 4.5 -0.6 Q4.15 -0.75 4.05 -1.1 3.9 -1.7 4.15 -2.15 L4.05 -4.25 Q5.0 -2.5 5.25 -2.35 L5.85 -1.6 Z" fill="none" stroke="#000000" stroke-linecap="round" stroke-linejoin="round" stroke-width="0.5"/>
  </g>
  <defs>
    <radialGradient cx="0" cy="0" gradientTransform="matrix(0.0017, -5.0E-4, 5.0E-4, 0.0017, -1.55, -0.45)" gradientUnits="userSpaceOnUse" id="gradient0" r="819.2" spreadMethod="pad">
      <stop offset="0.0" stop-color="#bebe4b"/>
      <stop offset="1.0" stop-color="#ffffff"/>
    </radialGradient>
    <radialGradient cx="0" cy="0" gradientTransform="matrix(0.0017, -5.0E-4, 5.0E-4, 0.0017, 0.7, -1.1)" gradientUnits="userSpaceOnUse" id="gradient1" r="819.2" spreadMethod="pad">
      <stop offset="0.0" stop-color="#bebe4b"/>
      <stop offset="1.0" stop-color="#ffffff"/>
    </radialGradient>
    <radialGradient cx="0" cy="0" gradientTransform="matrix(0.0023, -6.0E-4, 6.0E-4, 0.0023, -3.8, 0.35)" gradientUnits="userSpaceOnUse" id="gradient2" r="819.2" spreadMethod="pad">
      <stop offset="0.0" stop-color="#bebe4b"/>
      <stop offset="1.0" stop-color="#ffffff"/>
    </radialGradient>
    <radialGradient cx="0" cy="0" gradientTransform="matrix(0.0023, -6.0E-4, 6.0E-4, 0.0023, 3.05, -1.35)" gradientUnits="userSpaceOnUse" id="gradient3" r="819.2" spreadMethod="pad">
      <stop offset="0.0" stop-color="#bebe4b"/>
      <stop offset="1.0" stop-color="#ffffff"/>
    </radialGradient>
    <radialGradient cx="0" cy="0" gradientTransform="matrix(0.0014, -4.0E-4, 4.0E-4, 0.0014, -5.6, 1.65)" gradientUnits="userSpaceOnUse" id="gradient4" r="819.2" spreadMethod="pad">
      <stop offset="0.0" stop-color="#bebe4b"/>
      <stop offset="1.0" stop-color="#ffffff"/>
    </radialGradient>
    <radialGradient cx="0" cy="0" gradientTransform="matrix(0.0014, -4.0E-4, 4.0E-4, 0.0014, 4.95, -1.35)" gradientUnits="userSpaceOnUse" id="gradient5" r="819.2" spreadMethod="pad">
      <stop offset="0.0" stop-color="#bebe4b"/>
      <stop offset="1.0" stop-color="#ffffff"/>
    </radialGradient>
  </defs>
</svg>
