<?xml version="1.0" encoding="UTF-8" standalone="no"?>
<svg xmlns:xlink="http://www.w3.org/1999/xlink" height="26.15px" width="29.4px" xmlns="http://www.w3.org/2000/svg">
  <g transform="matrix(1.0, 0.0, 0.0, 1.0, 11.2, 2.05)">
    <path d="M17.0 7.5 Q16.6 6.85 15.65 6.85 L17.95 13.25 Q17.05 11.55 16.45 12.6 16.2 12.9 16.3 13.45 16.7 15.15 16.35 16.5 14.5 14.75 14.0 17.75 L13.9 18.35 13.3 17.85 Q13.8 18.85 13.1 19.75 13.0 18.8 12.25 18.5 12.5 19.9 11.5 20.65 10.45 19.35 9.85 21.2 8.7 20.3 8.2 22.3 7.65 21.15 6.85 22.1 6.7 21.6 6.2 21.75 L5.8 22.6 4.65 22.65 Q4.0 22.3 3.15 23.85 3.05 22.95 2.65 22.6 2.2 24.15 1.1 22.6 L0.45 23.85 -0.15 23.15 Q-0.6 22.15 -1.1 22.0 -1.55 21.8 -1.95 22.25 L-4.6 20.9 -4.75 22.35 Q-6.2 20.7 -7.15 18.6 L-7.75 20.45 -9.25 14.45 -10.35 15.75 -10.6 14.2 Q-10.7 11.45 -9.45 9.5 -10.45 10.05 -10.95 10.95 -10.95 9.45 -10.35 7.9 -9.5 5.75 -7.7 4.4 -9.15 4.75 -9.7 5.25 L-9.4 4.55 Q-8.25 3.1 -6.6 2.3 L-5.75 1.95 Q-4.45 1.4 -3.1 1.0 L0.7 -0.05 4.55 -1.2 8.4 -1.8 Q9.75 -1.8 10.85 -0.95 L8.9 -0.8 Q11.8 0.5 14.55 2.35 L12.9 2.45 Q15.65 4.3 17.0 7.5 M12.9 17.35 L13.3 17.85 12.9 17.35" fill="url(#gradient0)" fill-rule="evenodd" stroke="none"/>
    <path d="M17.0 7.5 Q16.6 6.85 15.65 6.85 L17.95 13.25 Q17.05 11.55 16.45 12.6 16.2 12.9 16.3 13.45 16.7 15.15 16.35 16.5 14.5 14.75 14.0 17.75 L13.9 18.35 13.3 17.85 Q13.8 18.85 13.1 19.75 13.0 18.8 12.25 18.5 12.5 19.9 11.5 20.65 10.45 19.35 9.85 21.2 8.7 20.3 8.2 22.3 7.65 21.15 6.85 22.1 6.7 21.6 6.2 21.75 L5.8 22.6 4.65 22.65 Q4.0 22.3 3.15 23.85 3.05 22.95 2.65 22.6 2.2 24.15 1.1 22.6 L0.45 23.85 -0.15 23.15 Q-0.6 22.15 -1.1 22.0 -1.55 21.8 -1.95 22.25 L-4.6 20.9 -4.75 22.35 Q-6.2 20.7 -7.15 18.6 L-7.75 20.45 -9.25 14.45 -10.35 15.75 -10.6 14.2 Q-10.7 11.45 -9.45 9.5 -10.45 10.05 -10.95 10.95 -10.95 9.45 -10.35 7.9 -9.5 5.75 -7.7 4.4 -9.15 4.75 -9.7 5.25 L-9.4 4.55 Q-8.25 3.1 -6.6 2.3 L-5.75 1.95 Q-4.45 1.4 -3.1 1.0 L0.7 -0.05 4.55 -1.2 8.4 -1.8 Q9.75 -1.8 10.85 -0.95 L8.9 -0.8 Q11.8 0.5 14.55 2.35 L12.9 2.45 Q15.65 4.3 17.0 7.5 L17.3 8.2 M13.3 17.85 L12.9 17.35" fill="none" stroke="#000000" stroke-linecap="round" stroke-linejoin="round" stroke-width="0.5"/>
  </g>
  <defs>
    <radialGradient cx="0" cy="0" gradientTransform="matrix(0.0179, -0.0048, 0.0048, 0.0179, 3.45, 10.9)" gradientUnits="userSpaceOnUse" id="gradient0" r="819.2" spreadMethod="pad">
      <stop offset="0.3215686274509804" stop-color="#8c6b37"/>
      <stop offset="1.0" stop-color="#3c301a"/>
    </radialGradient>
  </defs>
</svg>
