<?xml version="1.0" encoding="UTF-8" standalone="no"?>
<svg xmlns:xlink="http://www.w3.org/1999/xlink" height="17.5px" width="17.5px" xmlns="http://www.w3.org/2000/svg">
  <g transform="matrix(1.0, 0.0, 0.0, 1.0, 5.25, 40.55)">
    <path d="M8.95 -37.3 L9.3 -36.9 Q11.25 -34.75 11.25 -31.8 11.25 -28.6 8.95 -26.35 L8.6 -26.0 Q6.45 -24.05 3.5 -24.05 0.5 -24.05 -1.7 -26.1 L-2.0 -26.35 Q-4.25 -28.6 -4.25 -31.8 -4.25 -34.65 -2.4 -36.8 L-2.0 -37.3 Q0.3 -39.55 3.5 -39.55 6.7 -39.55 8.95 -37.3" fill="url(#gradient0)" fill-rule="evenodd" stroke="none"/>
    <path d="M8.95 -37.3 L9.3 -36.9 Q11.25 -34.75 11.25 -31.8 11.25 -28.6 8.95 -26.35 L8.6 -26.0 Q6.45 -24.05 3.5 -24.05 0.5 -24.05 -1.7 -26.1 L-2.0 -26.35 Q-4.25 -28.6 -4.25 -31.8 -4.25 -34.65 -2.4 -36.8 L-2.0 -37.3 Q0.3 -39.55 3.5 -39.55 6.7 -39.55 8.95 -37.3 Z" fill="none" stroke="#000000" stroke-linecap="round" stroke-linejoin="round" stroke-width="2.0"/>
  </g>
  <defs>
    <linearGradient gradientTransform="matrix(0.0095, 0.0, 0.0, 0.0095, 3.5, -31.8)" gradientUnits="userSpaceOnUse" id="gradient0" spreadMethod="pad" x1="-819.2" x2="819.2">
      <stop offset="0.0" stop-color="#ffcc99"/>
      <stop offset="0.6901960784313725" stop-color="#ffe6cf"/>
      <stop offset="0.7411764705882353" stop-color="#ffe6cf"/>
      <stop offset="0.792156862745098" stop-color="#ffe6cf"/>
      <stop offset="0.8352941176470589" stop-color="#ffe7d0"/>
      <stop offset="1.0" stop-color="#ffffff"/>
    </linearGradient>
  </defs>
</svg>
