<?xml version="1.0" encoding="UTF-8" standalone="no"?>
<svg xmlns:xlink="http://www.w3.org/1999/xlink" height="25.9px" width="26.6px" xmlns="http://www.w3.org/2000/svg">
  <g transform="matrix(1.0, 0.0, 0.0, 1.0, 15.6, 17.65)">
    <path d="M5.4 -14.95 Q6.3 -13.9 7.2 -12.05 8.95 -8.2 9.4 -3.25 9.8 1.65 8.7 4.65 7.45 7.7 5.4 7.15 3.3 6.6 1.55 2.75 -0.3 -1.1 -0.75 -5.95 L-0.75 -6.35 -1.1 -5.9 Q-3.9 -1.9 -7.35 0.5 -10.85 2.95 -12.95 2.4 -15.0 1.85 -14.5 -1.4 -14.05 -4.6 -11.25 -8.6 -8.4 -12.7 -4.9 -15.1 -3.35 -16.2 -2.1 -16.65 L-1.4 -16.9 -1.0 -17.0 Q-0.1 -17.2 0.65 -17.0 L1.75 -16.35 3.3 -16.45 Q4.05 -16.25 4.8 -15.65 L5.25 -15.15 5.4 -14.95" fill="url(#gradient0)" fill-rule="evenodd" stroke="none"/>
    <path d="M5.4 -14.95 Q6.3 -13.9 7.2 -12.05 8.95 -8.2 9.4 -3.25 9.8 1.65 8.7 4.65 7.45 7.7 5.4 7.15 3.3 6.6 1.55 2.75 -0.3 -1.1 -0.75 -5.95 L-0.75 -6.35 -1.1 -5.9 Q-3.9 -1.9 -7.35 0.5 -10.85 2.95 -12.95 2.4 -15.0 1.85 -14.5 -1.4 -14.05 -4.6 -11.25 -8.6 -8.4 -12.7 -4.9 -15.1 -3.35 -16.2 -2.1 -16.65" fill="none" stroke="#000000" stroke-linecap="round" stroke-linejoin="round" stroke-width="2.0"/>
    <path d="M-8.35 -3.5 Q-8.35 -0.9 -5.75 0.95 -3.15 2.8 0.5 2.8 4.15 2.8 6.75 0.95 9.35 -0.9 9.35 -3.5 9.35 -6.1 6.75 -7.95 4.15 -9.8 0.5 -9.8 -3.15 -9.8 -5.75 -7.95 -8.35 -6.1 -8.35 -3.5 M-6.4 -8.45 Q-3.45 -10.7 0.7 -10.7 4.85 -10.7 7.8 -8.45 10.75 -6.2 10.75 -3.0 10.75 0.2 7.8 2.45 4.85 4.7 0.7 4.7 -3.45 4.7 -6.4 2.45 -9.35 0.2 -9.35 -3.0 -9.35 -6.2 -6.4 -8.45" fill="url(#gradient1)" fill-rule="evenodd" stroke="none"/>
    <path d="M-8.35 -3.5 Q-8.35 -6.1 -5.75 -7.95 -3.15 -9.8 0.5 -9.8 4.15 -9.8 6.75 -7.95 9.35 -6.1 9.35 -3.5 9.35 -0.9 6.75 0.95 4.15 2.8 0.5 2.8 -3.15 2.8 -5.75 0.95 -8.35 -0.9 -8.35 -3.5" fill="url(#gradient2)" fill-rule="evenodd" stroke="none"/>
    <path d="M-8.35 -3.5 Q-8.35 -6.1 -5.75 -7.95 -3.15 -9.8 0.5 -9.8 4.15 -9.8 6.75 -7.95 9.35 -6.1 9.35 -3.5 9.35 -0.9 6.75 0.95 4.15 2.8 0.5 2.8 -3.15 2.8 -5.75 0.95 -8.35 -0.9 -8.35 -3.5 M-6.4 -8.45 Q-3.45 -10.7 0.7 -10.7 4.85 -10.7 7.8 -8.45 10.75 -6.2 10.75 -3.0 10.75 0.2 7.8 2.45 4.85 4.7 0.7 4.7 -3.45 4.7 -6.4 2.45 -9.35 0.2 -9.35 -3.0 -9.35 -6.2 -6.4 -8.45 Z" fill="none" stroke="#000000" stroke-linecap="round" stroke-linejoin="round" stroke-width="0.5"/>
    <path d="M-4.1 -9.6 L-3.9 -10.4 -3.2 -10.8 -2.35 -10.65 Q-2.0 -10.4 -1.95 -9.95 -1.8 -9.2 -2.1 -8.75 L-2.25 -6.2 Q-3.2 -8.4 -3.5 -8.6 -3.95 -8.95 -4.1 -9.6" fill="url(#gradient3)" fill-rule="evenodd" stroke="none"/>
    <path d="M-4.1 -9.6 L-3.9 -10.4 -3.2 -10.8 -2.35 -10.65 Q-2.0 -10.4 -1.95 -9.95 -1.8 -9.2 -2.1 -8.75 L-2.25 -6.2 Q-3.2 -8.4 -3.5 -8.6 -3.95 -8.95 -4.1 -9.6 Z" fill="none" stroke="#000000" stroke-linecap="round" stroke-linejoin="round" stroke-width="0.5"/>
    <path d="M7.15 -7.85 L7.85 -8.35 8.7 -8.25 9.2 -7.55 Q9.35 -7.15 9.1 -6.75 8.7 -6.1 8.15 -5.95 L6.45 -4.1 Q7.1 -6.35 7.0 -6.7 6.85 -7.3 7.15 -7.85" fill="url(#gradient4)" fill-rule="evenodd" stroke="none"/>
    <path d="M7.15 -7.85 L7.85 -8.35 8.7 -8.25 9.2 -7.55 Q9.35 -7.15 9.1 -6.75 8.7 -6.1 8.15 -5.95 L6.45 -4.1 Q7.1 -6.35 7.0 -6.7 6.85 -7.3 7.15 -7.85 Z" fill="none" stroke="#000000" stroke-linecap="round" stroke-linejoin="round" stroke-width="0.5"/>
    <path d="M-1.6 -10.2 L-1.25 -10.7 -0.45 -10.9 0.3 -10.7 0.65 -10.2 Q0.65 -9.65 0.25 -9.4 L-0.35 -7.75 Q-0.9 -9.3 -1.15 -9.45 -1.6 -9.75 -1.6 -10.2" fill="url(#gradient5)" fill-rule="evenodd" stroke="none"/>
    <path d="M-1.6 -10.2 L-1.25 -10.7 -0.45 -10.9 0.3 -10.7 0.65 -10.2 Q0.65 -9.65 0.25 -9.4 L-0.35 -7.75 Q-0.9 -9.3 -1.15 -9.45 -1.6 -9.75 -1.6 -10.2 Z" fill="none" stroke="#000000" stroke-linecap="round" stroke-linejoin="round" stroke-width="0.5"/>
    <path d="M0.75 -10.2 L1.1 -10.7 1.9 -10.9 2.65 -10.7 3.0 -10.2 Q3.0 -9.65 2.6 -9.4 L2.0 -7.75 1.2 -9.45 Q0.75 -9.75 0.75 -10.2" fill="url(#gradient6)" fill-rule="evenodd" stroke="none"/>
    <path d="M0.75 -10.2 L1.1 -10.7 1.9 -10.9 2.65 -10.7 3.0 -10.2 Q3.0 -9.65 2.6 -9.4 L2.0 -7.75 1.2 -9.45 Q0.75 -9.75 0.75 -10.2 Z" fill="none" stroke="#000000" stroke-linecap="round" stroke-linejoin="round" stroke-width="0.5"/>
    <path d="M3.35 -10.2 Q3.4 -10.65 3.75 -10.9 L4.55 -11.1 5.3 -10.65 5.5 -9.85 4.95 -8.75 3.9 -6.4 3.55 -9.1 Q3.2 -9.55 3.35 -10.2" fill="url(#gradient7)" fill-rule="evenodd" stroke="none"/>
    <path d="M3.35 -10.2 Q3.4 -10.65 3.75 -10.9 L4.55 -11.1 5.3 -10.65 5.5 -9.85 4.95 -8.75 3.9 -6.4 3.55 -9.1 Q3.2 -9.55 3.35 -10.2 Z" fill="none" stroke="#000000" stroke-linecap="round" stroke-linejoin="round" stroke-width="0.5"/>
    <path d="M-6.0 -8.35 L-5.95 -9.2 -5.3 -9.75 -4.45 -9.75 -3.9 -9.1 Q-3.65 -8.4 -3.9 -7.85 -3.5 -5.4 -3.6 -5.35 -4.95 -7.35 -5.25 -7.45 -5.8 -7.75 -6.0 -8.35" fill="url(#gradient8)" fill-rule="evenodd" stroke="none"/>
    <path d="M-6.0 -8.35 L-5.95 -9.2 -5.3 -9.75 -4.45 -9.75 -3.9 -9.1 Q-3.65 -8.4 -3.9 -7.85 -3.5 -5.4 -3.6 -5.35 -4.95 -7.35 -5.25 -7.45 -5.8 -7.75 -6.0 -8.35 Z" fill="none" stroke="#000000" stroke-linecap="round" stroke-linejoin="round" stroke-width="0.5"/>
    <path d="M5.3 -9.15 L5.85 -9.8 6.7 -9.85 7.35 -9.25 7.4 -8.4 Q7.15 -7.7 6.6 -7.45 L5.2 -5.35 5.35 -8.05 Q5.1 -8.55 5.3 -9.15" fill="url(#gradient9)" fill-rule="evenodd" stroke="none"/>
    <path d="M5.3 -9.15 L5.85 -9.8 6.7 -9.85 7.35 -9.25 7.4 -8.4 Q7.15 -7.7 6.6 -7.45 L5.2 -5.35 5.35 -8.05 Q5.1 -8.55 5.3 -9.15 Z" fill="none" stroke="#000000" stroke-linecap="round" stroke-linejoin="round" stroke-width="0.5"/>
    <path d="M-7.6 -6.85 Q-7.85 -7.25 -7.7 -7.7 L-7.15 -8.35 -6.35 -8.45 -5.65 -7.95 Q-5.25 -7.3 -5.45 -6.8 L-4.7 -4.35 -6.65 -6.1 Q-7.3 -6.3 -7.6 -6.85" fill="url(#gradient10)" fill-rule="evenodd" stroke="none"/>
    <path d="M-7.6 -6.85 Q-7.85 -7.25 -7.7 -7.7 L-7.15 -8.35 -6.35 -8.45 -5.65 -7.95 Q-5.25 -7.3 -5.45 -6.8 L-4.7 -4.35 -6.65 -6.1 Q-7.3 -6.3 -7.6 -6.85 Z" fill="none" stroke="#000000" stroke-linecap="round" stroke-linejoin="round" stroke-width="0.5"/>
  </g>
  <defs>
    <radialGradient cx="0" cy="0" gradientTransform="matrix(0.035, 0.0094, -0.007, 0.0262, -6.5, -12.0)" gradientUnits="userSpaceOnUse" id="gradient0" r="819.2" spreadMethod="pad">
      <stop offset="0.0" stop-color="#0066ff"/>
      <stop offset="1.0" stop-color="#ffffff"/>
    </radialGradient>
    <radialGradient cx="0" cy="0" gradientTransform="matrix(0.0123, 0.0, 0.0, 0.0123, 0.7, -3.0)" gradientUnits="userSpaceOnUse" id="gradient1" r="819.2" spreadMethod="pad">
      <stop offset="0.3215686274509804" stop-color="#8c6b37"/>
      <stop offset="1.0" stop-color="#3c301a"/>
    </radialGradient>
    <radialGradient cx="0" cy="0" gradientTransform="matrix(0.0108, 0.0, 0.0, 0.0108, 0.5, -3.5)" gradientUnits="userSpaceOnUse" id="gradient2" r="819.2" spreadMethod="pad">
      <stop offset="0.3215686274509804" stop-color="#f32121"/>
      <stop offset="1.0" stop-color="#3c301a"/>
    </radialGradient>
    <radialGradient cx="0" cy="0" gradientTransform="matrix(-0.0017, 3.0E-4, -3.0E-4, -0.0017, -3.05, -9.75)" gradientUnits="userSpaceOnUse" id="gradient3" r="819.2" spreadMethod="pad">
      <stop offset="0.0" stop-color="#bebe4b"/>
      <stop offset="1.0" stop-color="#ffffff"/>
    </radialGradient>
    <radialGradient cx="0" cy="0" gradientTransform="matrix(-0.0015, -9.0E-4, 9.0E-4, -0.0015, 8.15, -7.3)" gradientUnits="userSpaceOnUse" id="gradient4" r="819.2" spreadMethod="pad">
      <stop offset="0.0" stop-color="#bebe4b"/>
      <stop offset="1.0" stop-color="#ffffff"/>
    </radialGradient>
    <radialGradient cx="0" cy="0" gradientTransform="matrix(-0.0018, 0.0, 0.0, -0.0012, -0.45, -10.2)" gradientUnits="userSpaceOnUse" id="gradient5" r="819.2" spreadMethod="pad">
      <stop offset="0.0" stop-color="#bebe4b"/>
      <stop offset="1.0" stop-color="#ffffff"/>
    </radialGradient>
    <radialGradient cx="0" cy="0" gradientTransform="matrix(-0.0018, 0.0, 0.0, -0.0012, 1.9, -10.2)" gradientUnits="userSpaceOnUse" id="gradient6" r="819.2" spreadMethod="pad">
      <stop offset="0.0" stop-color="#bebe4b"/>
      <stop offset="1.0" stop-color="#ffffff"/>
    </radialGradient>
    <radialGradient cx="0" cy="0" gradientTransform="matrix(-0.0017, -3.0E-4, 3.0E-4, -0.0017, 4.4, -10.05)" gradientUnits="userSpaceOnUse" id="gradient7" r="819.2" spreadMethod="pad">
      <stop offset="0.0" stop-color="#bebe4b"/>
      <stop offset="1.0" stop-color="#ffffff"/>
    </radialGradient>
    <radialGradient cx="0" cy="0" gradientTransform="matrix(-0.0016, 6.0E-4, -6.0E-4, -0.0016, -4.95, -8.7)" gradientUnits="userSpaceOnUse" id="gradient8" r="819.2" spreadMethod="pad">
      <stop offset="0.0" stop-color="#bebe4b"/>
      <stop offset="1.0" stop-color="#ffffff"/>
    </radialGradient>
    <radialGradient cx="0" cy="0" gradientTransform="matrix(-0.0016, -6.0E-4, 6.0E-4, -0.0016, 6.35, -8.8)" gradientUnits="userSpaceOnUse" id="gradient9" r="819.2" spreadMethod="pad">
      <stop offset="0.0" stop-color="#bebe4b"/>
      <stop offset="1.0" stop-color="#ffffff"/>
    </radialGradient>
    <radialGradient cx="0" cy="0" gradientTransform="matrix(-0.0015, 9.0E-4, -9.0E-4, -0.0015, -6.6, -7.4)" gradientUnits="userSpaceOnUse" id="gradient10" r="819.2" spreadMethod="pad">
      <stop offset="0.0" stop-color="#bebe4b"/>
      <stop offset="1.0" stop-color="#ffffff"/>
    </radialGradient>
  </defs>
</svg>
