<?xml version="1.0" encoding="UTF-8" standalone="no"?>
<svg xmlns:xlink="http://www.w3.org/1999/xlink" height="46.0px" width="46.5px" xmlns="http://www.w3.org/2000/svg">
  <g transform="matrix(1.0, 0.0, 0.0, 1.0, 23.25, 23.0)">
    <path d="M0.0 -22.5 Q9.4 -22.5 16.05 -15.9 22.75 -9.3 22.75 0.0 22.75 9.3 16.05 15.9 9.4 22.5 0.0 22.5 -9.4 22.5 -16.1 15.9 -22.75 9.3 -22.75 0.0 -22.75 -9.3 -16.1 -15.9 -9.4 -22.5 0.0 -22.5 Z" fill="none" stroke="#000000" stroke-linecap="round" stroke-linejoin="round" stroke-width="1.0"/>
    <path d="M-9.15 6.7 Q-7.35 5.0 -7.35 2.4 -7.35 1.8 -7.5 1.25 L-17.9 1.25 Q-17.45 1.9 -16.25 1.95 L-14.75 1.95 -13.2 1.95 Q-11.95 2.1 -11.95 3.05 -11.95 3.7 -12.4 4.05 -12.85 4.45 -13.5 4.45 -14.35 4.45 -14.9 3.95 L-15.9 2.8 Q-16.35 2.25 -17.1 2.25 -17.95 2.25 -18.65 2.9 -19.3 3.55 -19.3 4.4 -19.3 6.2 -17.3 7.4 -15.55 8.4 -13.6 8.4 -11.0 8.4 -9.15 6.7 M-11.65 -2.0 L-13.65 -2.05 -13.5 -3.7 -11.1 -3.7 Q-11.2 -2.85 -10.75 -2.4 -10.25 -1.9 -9.4 -1.9 -7.65 -1.9 -7.1 -3.65 L-6.9 -5.6 Q-6.85 -7.4 -8.85 -7.4 L-15.35 -7.4 Q-17.4 -7.4 -17.65 -5.4 L-18.1 -0.75 -8.7 -0.75 Q-9.85 -1.8 -11.65 -2.0 M3.4 6.8 Q5.25 5.2 5.55 2.7 L5.7 1.25 1.45 1.25 1.3 2.45 Q1.1 4.5 -0.5 4.5 -1.9 4.5 -1.9 2.8 L-1.8 1.25 -6.05 1.25 -6.25 3.25 Q-6.3 5.45 -4.75 6.95 -3.15 8.4 -0.95 8.4 1.6 8.4 3.4 6.8 M18.5 1.25 L14.25 1.25 14.1 2.45 Q13.9 4.5 12.3 4.5 10.9 4.5 10.9 2.8 L11.0 1.25 6.75 1.25 6.55 3.25 Q6.5 5.45 8.05 6.95 9.65 8.4 11.85 8.4 14.4 8.4 16.2 6.8 18.05 5.2 18.35 2.7 L18.5 1.25 M20.35 -8.05 Q21.75 -6.55 21.8 -4.5 L21.8 4.5 Q21.75 6.55 20.35 8.0 19.0 9.5 17.05 9.5 L-17.0 9.5 Q-18.95 9.5 -20.35 8.0 -21.7 6.55 -21.7 4.5 L-21.7 -4.5 Q-21.7 -6.55 -20.35 -8.05 -18.95 -9.5 -17.0 -9.5 L17.05 -9.5 Q19.0 -9.5 20.35 -8.05 M1.65 -0.75 L5.95 -0.75 6.1 -2.85 Q6.15 -5.1 4.55 -6.45 3.0 -7.75 0.75 -7.75 -1.8 -7.75 -3.6 -6.2 -5.4 -4.65 -5.7 -2.1 L-5.85 -0.75 -1.65 -0.75 -1.25 -2.55 Q-0.7 -3.9 0.4 -3.9 1.85 -3.9 1.75 -2.3 L1.65 -0.75 M9.2 -6.2 Q7.4 -4.65 7.1 -2.1 L6.95 -0.75 11.15 -0.75 11.55 -2.55 Q12.1 -3.9 13.2 -3.9 14.65 -3.9 14.55 -2.3 L14.45 -0.75 18.75 -0.75 18.9 -2.85 Q18.95 -5.1 17.35 -6.45 15.8 -7.75 13.55 -7.75 11.0 -7.75 9.2 -6.2" fill="#000000" fill-rule="evenodd" stroke="none"/>
  </g>
</svg>
