<?xml version="1.0" encoding="UTF-8" standalone="no"?>
<svg xmlns:xlink="http://www.w3.org/1999/xlink" height="37.7px" width="41.1px" xmlns="http://www.w3.org/2000/svg">
  <g transform="matrix(1.0, 0.0, 0.0, 1.0, 20.55, 18.85)">
    <path d="M13.8 -12.65 Q19.55 -7.4 19.55 0.0 19.55 7.4 13.8 12.6 8.1 17.85 0.0 17.85 -8.05 17.85 -13.85 12.6 -19.55 7.4 -19.55 0.0 -19.55 -7.4 -13.85 -12.65 -8.05 -17.85 0.0 -17.85 8.1 -17.85 13.8 -12.65" fill="url(#gradient0)" fill-rule="evenodd" stroke="none"/>
    <path d="M13.8 -12.65 Q19.55 -7.4 19.55 0.0 19.55 7.4 13.8 12.6 8.1 17.85 0.0 17.85 -8.05 17.85 -13.85 12.6 -19.55 7.4 -19.55 0.0 -19.55 -7.4 -13.85 -12.65 -8.05 -17.85 0.0 -17.85 8.1 -17.85 13.8 -12.65 Z" fill="none" stroke="#000000" stroke-linecap="round" stroke-linejoin="round" stroke-width="2.0"/>
  </g>
  <defs>
    <radialGradient cx="0" cy="0" gradientTransform="matrix(0.0376, -0.0184, 0.0125, 0.0257, 5.1, 4.25)" gradientUnits="userSpaceOnUse" id="gradient0" r="819.2" spreadMethod="pad">
      <stop offset="0.0" stop-color="#505050"/>
      <stop offset="0.5764705882352941" stop-color="#959595"/>
      <stop offset="1.0" stop-color="#ffffff"/>
    </radialGradient>
  </defs>
</svg>
