<?xml version="1.0" encoding="UTF-8" standalone="no"?>
<svg xmlns:xlink="http://www.w3.org/1999/xlink" height="17.1px" width="8.75px" xmlns="http://www.w3.org/2000/svg">
  <g transform="matrix(1.0, 0.0, 0.0, 1.0, 4.25, 2.5)">
    <path d="M-3.7 -0.4 L-3.65 -0.7 -3.2 -1.5 -3.15 -1.55 Q-2.6 -2.1 -1.85 -2.15 L-1.75 -2.15 2.0 -2.15 Q2.8 -2.15 3.4 -1.55 L3.6 -1.35 4.0 -0.3 4.0 -0.15 4.0 12.6 4.0 12.8 Q3.95 13.4 3.5 13.9 L3.4 14.0 Q2.8 14.6 2.0 14.6 L-1.75 14.6 -2.35 14.5 Q-2.8 14.35 -3.15 14.0 L-3.25 13.85 -3.65 13.2 -3.7 12.9 -3.75 12.6 -3.75 -0.15 -3.7 -0.35 -3.65 13.2 -3.7 -0.35 -3.7 -0.4" fill="url(#gradient0)" fill-rule="evenodd" stroke="none"/>
    <path d="M4.0 -0.3 L4.0 -1.85 M4.0 -0.3 L4.0 -0.15 4.0 12.6 4.0 12.8 4.0 14.05 M-3.65 13.2 L-3.65 13.85 M-3.7 -0.4 L-3.7 -2.0 M-3.7 -0.35 L-3.7 -0.4 M-3.65 13.2 L-3.7 -0.35" fill="none" stroke="#000000" stroke-linecap="round" stroke-linejoin="round" stroke-width="1.0"/>
    <path d="M-3.7 -0.35 L-3.75 -0.15 -3.75 12.6 -3.7 12.9" fill="none" stroke="#000000" stroke-linecap="round" stroke-linejoin="round" stroke-width="1.0"/>
  </g>
  <defs>
    <linearGradient gradientTransform="matrix(0.0042, 0.0, 0.0, 0.0102, 2.25, 6.2)" gradientUnits="userSpaceOnUse" id="gradient0" spreadMethod="pad" x1="-819.2" x2="819.2">
      <stop offset="0.0" stop-color="#ffffff"/>
      <stop offset="0.5764705882352941" stop-color="#959595"/>
      <stop offset="1.0" stop-color="#505050"/>
    </linearGradient>
  </defs>
</svg>
