<?xml version="1.0" encoding="UTF-8" standalone="no"?>
<svg xmlns:xlink="http://www.w3.org/1999/xlink" height="20.4px" width="11.2px" xmlns="http://www.w3.org/2000/svg">
  <g transform="matrix(1.0, 0.0, 0.0, 1.0, 5.9, 4.35)">
    <path d="M-0.3 -3.85 Q1.8 -3.85 3.3 -1.0 4.8 1.85 4.8 5.85 4.8 9.85 3.3 12.7 1.8 15.55 -0.3 15.55 -2.4 15.55 -3.9 12.7 -5.4 9.85 -5.4 5.85 -5.4 1.85 -3.9 -1.0 -2.4 -3.85 -0.3 -3.85" fill="url(#gradient0)" fill-rule="evenodd" stroke="none"/>
    <path d="M-0.3 -3.85 Q1.8 -3.85 3.3 -1.0 4.8 1.85 4.8 5.85 4.8 9.85 3.3 12.7 1.8 15.55 -0.3 15.55 -2.4 15.55 -3.9 12.7 -5.4 9.85 -5.4 5.85 -5.4 1.85 -3.9 -1.0 -2.4 -3.85 -0.3 -3.85 Z" fill="none" stroke="#000000" stroke-linecap="round" stroke-linejoin="round" stroke-width="1.0"/>
  </g>
  <defs>
    <linearGradient gradientTransform="matrix(0.0062, 0.0, 0.0, 0.0118, 1.45, 5.85)" gradientUnits="userSpaceOnUse" id="gradient0" spreadMethod="pad" x1="-819.2" x2="819.2">
      <stop offset="0.0" stop-color="#ffffff"/>
      <stop offset="0.5764705882352941" stop-color="#959595"/>
      <stop offset="1.0" stop-color="#505050"/>
    </linearGradient>
  </defs>
</svg>
