<?xml version="1.0" encoding="UTF-8" standalone="no"?>
<svg xmlns:xlink="http://www.w3.org/1999/xlink" height="6.8px" width="4.05px" xmlns="http://www.w3.org/2000/svg">
  <g transform="matrix(1.0, 0.0, 0.0, 1.0, 2.3, -2.45)">
    <path d="M-0.3 2.95 Q0.35 2.95 0.8 3.8 1.25 4.65 1.25 5.85 1.25 7.05 0.8 7.9 0.35 8.75 -0.3 8.75 -0.9 8.75 -1.35 7.9 -1.8 7.05 -1.8 5.85 -1.8 4.65 -1.35 3.8 -0.9 2.95 -0.3 2.95" fill="url(#gradient0)" fill-rule="evenodd" stroke="none"/>
    <path d="M-0.3 2.95 Q0.35 2.95 0.8 3.8 1.25 4.65 1.25 5.85 1.25 7.05 0.8 7.9 0.35 8.75 -0.3 8.75 -0.9 8.75 -1.35 7.9 -1.8 7.05 -1.8 5.85 -1.8 4.65 -1.35 3.8 -0.9 2.95 -0.3 2.95 Z" fill="none" stroke="#000000" stroke-linecap="round" stroke-linejoin="round" stroke-width="1.0"/>
  </g>
  <defs>
    <linearGradient gradientTransform="matrix(0.0019, 0.0, 0.0, 0.0036, 0.25, 5.85)" gradientUnits="userSpaceOnUse" id="gradient0" spreadMethod="pad" x1="-819.2" x2="819.2">
      <stop offset="0.0" stop-color="#ffffff"/>
      <stop offset="0.5764705882352941" stop-color="#959595"/>
      <stop offset="1.0" stop-color="#505050"/>
    </linearGradient>
  </defs>
</svg>
