<?xml version="1.0" encoding="UTF-8" standalone="no"?>
<svg xmlns:xlink="http://www.w3.org/1999/xlink" height="24.65px" width="9.0px" xmlns="http://www.w3.org/2000/svg">
  <g transform="matrix(1.0, 0.0, 0.0, 1.0, 4.5, 24.6)">
    <path d="M-3.9 -1.15 L-4.0 -4.5 Q-4.0 -11.55 -2.85 -16.55 -1.0 -24.1 -0.15 -24.1 1.1 -24.1 2.8 -16.55 4.0 -11.55 4.0 -4.5 L3.95 -1.15 Q3.1 -0.75 2.4 -0.05 L-2.55 0.05 -3.3 -0.55 -3.9 -1.15" fill="url(#gradient0)" fill-rule="evenodd" stroke="none"/>
    <path d="M3.95 -1.15 L4.0 -4.5 Q4.0 -11.55 2.8 -16.55 1.1 -24.1 -0.15 -24.1 -1.0 -24.1 -2.85 -16.55 -4.0 -11.55 -4.0 -4.5 L-3.9 -1.15" fill="none" stroke="#000000" stroke-linecap="round" stroke-linejoin="round" stroke-width="1.0"/>
  </g>
  <defs>
    <linearGradient gradientTransform="matrix(0.0049, 0.0, 0.0, 0.0208, 2.4, -4.25)" gradientUnits="userSpaceOnUse" id="gradient0" spreadMethod="pad" x1="-819.2" x2="819.2">
      <stop offset="0.0" stop-color="#ffffff"/>
      <stop offset="0.5764705882352941" stop-color="#959595"/>
      <stop offset="1.0" stop-color="#505050"/>
    </linearGradient>
  </defs>
</svg>
