<?xml version="1.0" encoding="UTF-8" standalone="no"?>
<svg xmlns:xlink="http://www.w3.org/1999/xlink" height="29.5px" width="9.7px" xmlns="http://www.w3.org/2000/svg">
  <g transform="matrix(1.0, 0.0, 0.0, 1.0, 4.85, 25.05)">
    <path d="M3.05 -0.25 Q1.8 3.95 0.0 3.95 -1.8 3.95 -3.1 -0.25 -4.35 -4.4 -4.35 -10.3 -4.35 -16.2 -3.1 -20.4 -1.8 -24.55 0.0 -24.55 1.8 -24.55 3.05 -20.4 4.35 -16.2 4.35 -10.3 4.35 -4.4 3.05 -0.25" fill="url(#gradient0)" fill-rule="evenodd" stroke="none"/>
    <path d="M3.05 -0.25 Q1.8 3.95 0.0 3.95 -1.8 3.95 -3.1 -0.25 -4.35 -4.4 -4.35 -10.3 -4.35 -16.2 -3.1 -20.4 -1.8 -24.55 0.0 -24.55 1.8 -24.55 3.05 -20.4 4.35 -16.2 4.35 -10.3 4.35 -4.4 3.05 -0.25 Z" fill="none" stroke="#000000" stroke-linecap="round" stroke-linejoin="round" stroke-width="1.0"/>
  </g>
  <defs>
    <linearGradient gradientTransform="matrix(0.0053, 0.0, 0.0, 0.0174, 2.15, -10.3)" gradientUnits="userSpaceOnUse" id="gradient0" spreadMethod="pad" x1="-819.2" x2="819.2">
      <stop offset="0.0" stop-color="#ffffff"/>
      <stop offset="0.5764705882352941" stop-color="#959595"/>
      <stop offset="1.0" stop-color="#505050"/>
    </linearGradient>
  </defs>
</svg>
