<?xml version="1.0" encoding="UTF-8" standalone="no"?>
<svg xmlns:xlink="http://www.w3.org/1999/xlink" height="9.55px" width="3.6px" xmlns="http://www.w3.org/2000/svg">
  <g transform="matrix(1.0, 0.0, 0.0, 1.0, 1.8, 15.05)">
    <path d="M0.9 -7.25 Q0.55 -6.0 0.0 -6.0 -0.55 -6.0 -0.95 -7.25 -1.3 -8.5 -1.3 -10.3 -1.3 -12.05 -0.95 -13.3 -0.55 -14.55 0.0 -14.55 0.55 -14.55 0.9 -13.3 1.3 -12.05 1.3 -10.3 1.3 -8.5 0.9 -7.25" fill="url(#gradient0)" fill-rule="evenodd" stroke="none"/>
    <path d="M0.9 -7.25 Q0.55 -6.0 0.0 -6.0 -0.55 -6.0 -0.95 -7.25 -1.3 -8.5 -1.3 -10.3 -1.3 -12.05 -0.95 -13.3 -0.55 -14.55 0.0 -14.55 0.55 -14.55 0.9 -13.3 1.3 -12.05 1.3 -10.3 1.3 -8.5 0.9 -7.25 Z" fill="none" stroke="#000000" stroke-linecap="round" stroke-linejoin="round" stroke-width="1.0"/>
  </g>
  <defs>
    <linearGradient gradientTransform="matrix(0.0016, 0.0, 0.0, 0.0052, 0.65, -10.3)" gradientUnits="userSpaceOnUse" id="gradient0" spreadMethod="pad" x1="-819.2" x2="819.2">
      <stop offset="0.0" stop-color="#ffffff"/>
      <stop offset="0.5764705882352941" stop-color="#959595"/>
      <stop offset="1.0" stop-color="#505050"/>
    </linearGradient>
  </defs>
</svg>
