<?xml version="1.0" encoding="UTF-8" standalone="no"?>
<svg xmlns:xlink="http://www.w3.org/1999/xlink" height="12.75px" width="26.1px" xmlns="http://www.w3.org/2000/svg">
  <g transform="matrix(1.0, 0.0, 0.0, 1.0, 13.4, 21.45)">
    <path d="M-4.25 -20.35 L-3.65 -20.55 -3.3 -20.65 -1.7 -20.85 -0.45 -20.65 1.0 -20.9 2.65 -20.7 3.25 -20.55 3.45 -20.45 5.9 -19.3 Q8.6 -17.65 10.3 -15.35 12.0 -13.05 11.65 -11.4 11.25 -9.8 9.15 -9.8 6.95 -9.8 4.25 -11.4 1.5 -13.05 -0.2 -15.35 L-0.3 -15.5 -0.5 -15.25 Q-2.2 -12.95 -4.9 -11.35 -7.65 -9.7 -9.8 -9.7 -11.95 -9.7 -12.3 -11.35 -12.7 -12.95 -11.0 -15.25 -9.3 -17.6 -6.55 -19.2 L-4.25 -20.35" fill="url(#gradient0)" fill-rule="evenodd" stroke="none"/>
    <path d="M3.45 -20.45 L5.9 -19.3 Q8.6 -17.65 10.3 -15.35 12.0 -13.05 11.65 -11.4 11.25 -9.8 9.15 -9.8 6.95 -9.8 4.25 -11.4 1.5 -13.05 -0.2 -15.35 L-0.3 -15.5 -0.5 -15.25 Q-2.2 -12.95 -4.9 -11.35 -7.65 -9.7 -9.8 -9.7 -11.95 -9.7 -12.3 -11.35 -12.7 -12.95 -11.0 -15.25 -9.3 -17.6 -6.55 -19.2 L-4.25 -20.35" fill="none" stroke="#000000" stroke-linecap="round" stroke-linejoin="round" stroke-width="2.0"/>
  </g>
  <defs>
    <radialGradient cx="0" cy="0" gradientTransform="matrix(0.0363, 0.0, 0.0, 0.0136, -7.3, -17.5)" gradientUnits="userSpaceOnUse" id="gradient0" r="819.2" spreadMethod="pad">
      <stop offset="0.0" stop-color="#0066ff"/>
      <stop offset="1.0" stop-color="#ffffff"/>
    </radialGradient>
  </defs>
</svg>
