<?xml version="1.0" encoding="UTF-8" standalone="no"?>
<svg xmlns:xlink="http://www.w3.org/1999/xlink" height="13.5px" width="34.0px" xmlns="http://www.w3.org/2000/svg">
  <g transform="matrix(1.0, 0.0, 0.0, 1.0, 17.0, 25.0)">
    <path d="M11.3 -22.35 Q16.0 -20.65 16.0 -18.25 16.0 -15.85 11.3 -14.2 6.65 -12.5 0.0 -12.5 -6.65 -12.5 -11.35 -14.2 -16.0 -15.85 -16.0 -18.25 -16.0 -20.65 -11.35 -22.35 -6.65 -24.0 0.0 -24.0 6.65 -24.0 11.3 -22.35" fill="url(#gradient0)" fill-rule="evenodd" stroke="none"/>
    <path d="M11.3 -22.35 Q16.0 -20.65 16.0 -18.25 16.0 -15.85 11.3 -14.2 6.65 -12.5 0.0 -12.5 -6.65 -12.5 -11.35 -14.2 -16.0 -15.85 -16.0 -18.25 -16.0 -20.65 -11.35 -22.35 -6.65 -24.0 0.0 -24.0 6.65 -24.0 11.3 -22.35 Z" fill="none" stroke="#000000" stroke-linecap="round" stroke-linejoin="round" stroke-width="2.0"/>
  </g>
  <defs>
    <radialGradient cx="0" cy="0" gradientTransform="matrix(0.0257, 0.0, 0.0, 0.0196, -6.5, -18.75)" gradientUnits="userSpaceOnUse" id="gradient0" r="819.2" spreadMethod="pad">
      <stop offset="0.3843137254901961" stop-color="#0066ff"/>
      <stop offset="1.0" stop-color="#ffffff"/>
    </radialGradient>
  </defs>
</svg>
