<?xml version="1.0" encoding="UTF-8" standalone="no"?>
<svg xmlns:xlink="http://www.w3.org/1999/xlink" height="12.55px" width="10.35px" xmlns="http://www.w3.org/2000/svg">
  <g transform="matrix(1.0, 0.0, 0.0, 1.0, 5.4, 24.8)">
    <path d="M0.45 -22.7 L0.45 -22.4 0.45 -22.1 Q1.1 -21.4 1.2 -20.45 L1.2 -20.3 Q1.95 -19.55 2.05 -18.65 L2.05 -18.5 Q1.35 -18.0 0.45 -18.25 L0.3 -17.95 0.25 -17.8 0.35 -17.4 0.35 -17.1 1.5 -16.75 1.75 -16.8 1.75 -16.9 Q1.75 -17.35 2.2 -17.4 2.8 -17.2 3.05 -16.6 L3.05 -16.35 3.05 -16.05 3.4 -15.5 3.4 -15.4 3.35 -15.45 3.15 -15.55 2.95 -15.5 2.9 -15.45 1.65 -15.65 1.5 -15.75 0.85 -15.85 0.7 -15.95 0.4 -15.9 -0.9 -16.1 -1.1 -16.05 -1.5 -15.8 -2.1 -15.85 -3.4 -15.9 -3.4 -16.15 -3.3 -16.3 -3.2 -16.45 -3.2 -16.85 -3.2 -17.1 Q-2.7 -17.65 -2.8 -18.35 L-2.75 -18.65 -0.7 -18.6 0.1 -19.3 0.0 -20.4 -0.05 -20.65 -0.2 -20.95 -0.25 -21.1 -0.3 -21.15 -0.65 -21.2 Q-1.25 -20.35 -2.05 -20.95 L-2.1 -21.35 -2.1 -21.65 Q-1.75 -22.05 -1.75 -22.6 L-1.25 -23.3 -1.2 -23.45 -1.2 -23.7 -1.05 -23.85 -1.0 -23.85 -1.0 -23.55 -0.95 -23.3 -0.8 -23.2 -0.55 -23.05 -0.25 -23.25 -0.15 -23.25 0.0 -23.3 0.1 -23.25 0.1 -23.05 0.15 -22.95 0.45 -22.7 M-0.7 -17.25 L-1.3 -16.9 -1.5 -16.8 -0.6 -16.9 -0.6 -17.15 -0.6 -17.3 -0.65 -17.3 -0.7 -17.25" fill="url(#gradient0)" fill-rule="evenodd" stroke="none"/>
    <path d="M-1.0 -23.85 L-0.9 -24.55 -0.8 -24.65 -0.7 -24.65 -0.55 -24.75 Q0.4 -25.0 0.95 -24.35 L1.0 -24.2 1.0 -24.1 1.0 -23.65 1.0 -23.55 1.1 -23.4 1.2 -23.25 1.2 -23.1 1.15 -23.0 1.05 -22.85 0.95 -22.75 0.75 -22.7 0.45 -22.7 0.15 -22.95 0.1 -23.05 0.1 -23.25 0.1 -23.5 0.1 -23.7 0.1 -23.75 -0.1 -23.7 -0.1 -23.55 -0.1 -23.45 -0.2 -23.3 -0.25 -23.25 -0.55 -23.05 -0.8 -23.2 -0.95 -23.3 -1.0 -23.55 -1.0 -23.85" fill="url(#gradient1)" fill-rule="evenodd" stroke="none"/>
    <path d="M3.4 -15.4 L3.6 -15.2 3.5 -15.3 3.35 -15.45 3.4 -15.4 M3.6 -14.8 L3.6 -14.75 3.6 -14.65 3.5 -14.5 3.6 -14.8 M2.9 -15.45 L2.8 -15.35 2.7 -15.1 2.6 -14.8 2.5 -14.75 -0.05 -14.95 -0.35 -14.95 -1.4 -15.05 -1.65 -15.25 -1.75 -15.35 -1.75 -15.5 -1.9 -15.7 -1.5 -15.8 -1.1 -16.05 -0.9 -16.1 0.4 -15.9 0.85 -15.85 1.5 -15.75 1.65 -15.65 2.9 -15.45" fill="url(#gradient2)" fill-rule="evenodd" stroke="none"/>
    <path d="M-3.65 -14.65 L-3.9 -14.85 -3.95 -15.0 -3.9 -15.55 -3.85 -15.7 -3.75 -15.75 -3.5 -15.85 -3.5 -15.9 -3.4 -15.9 -2.1 -15.85 -1.9 -15.7 -1.75 -15.5 -1.75 -15.35 -1.65 -15.25 -1.4 -15.05 -3.1 -15.15 -3.45 -15.0 -3.55 -14.75 -3.6 -14.65 -3.65 -14.65" fill="url(#gradient3)" fill-rule="evenodd" stroke="none"/>
    <path d="M3.6 -15.2 L3.6 -15.05 3.6 -14.8 3.5 -14.5 3.9 -14.2 3.95 -14.15 Q4.75 -14.2 4.95 -13.55 L4.8 -13.25 4.65 -13.15 2.65 -12.9 Q1.85 -11.75 0.8 -12.7 L-0.95 -12.65 -1.0 -12.55 Q-2.1 -11.75 -2.85 -12.95 L-2.8 -13.0 -5.2 -13.35 -5.4 -13.5 -5.25 -13.9 -5.1 -14.05 -5.05 -14.15 -5.05 -14.3 Q-4.5 -14.85 -3.65 -14.65 L-3.6 -14.65 -3.55 -14.75 -3.45 -15.0 -3.1 -15.15 -1.4 -15.05 -0.35 -14.95 -0.05 -14.95 2.5 -14.75 2.6 -14.8 2.7 -15.1 2.8 -15.35 2.9 -15.45 2.95 -15.5 3.15 -15.55 3.35 -15.45 3.5 -15.3 3.6 -15.2" fill="url(#gradient4)" fill-rule="evenodd" stroke="none"/>
  </g>
  <defs>
    <radialGradient cx="0" cy="0" gradientTransform="matrix(0.0067, 0.0, 0.0, 0.0067, 0.0, -19.5)" gradientUnits="userSpaceOnUse" id="gradient0" r="819.2" spreadMethod="pad">
      <stop offset="0.0" stop-color="#4e0707"/>
      <stop offset="0.16470588235294117" stop-color="#b41010"/>
      <stop offset="0.5294117647058824" stop-color="#e23612"/>
      <stop offset="0.807843137254902" stop-color="#fd5037"/>
      <stop offset="1.0" stop-color="#fd5037" stop-opacity="0.0"/>
    </radialGradient>
    <radialGradient cx="0" cy="0" gradientTransform="matrix(0.0018, 0.0, 0.0, 0.0018, 0.1, -23.75)" gradientUnits="userSpaceOnUse" id="gradient1" r="819.2" spreadMethod="pad">
      <stop offset="0.0" stop-color="#4e0707"/>
      <stop offset="0.16470588235294117" stop-color="#b41010"/>
      <stop offset="0.5294117647058824" stop-color="#e23612"/>
      <stop offset="0.807843137254902" stop-color="#fd5037"/>
      <stop offset="1.0" stop-color="#fd5037" stop-opacity="0.0"/>
    </radialGradient>
    <radialGradient cx="0" cy="0" gradientTransform="matrix(0.0046, 0.0, 0.0, 0.0046, 0.05, -14.85)" gradientUnits="userSpaceOnUse" id="gradient2" r="819.2" spreadMethod="pad">
      <stop offset="0.0" stop-color="#4e0707"/>
      <stop offset="0.16470588235294117" stop-color="#b41010"/>
      <stop offset="0.5294117647058824" stop-color="#e23612"/>
      <stop offset="0.807843137254902" stop-color="#fd5037"/>
      <stop offset="1.0" stop-color="#fd5037" stop-opacity="0.0"/>
    </radialGradient>
    <radialGradient cx="0" cy="0" gradientTransform="matrix(0.0026, 0.0, 0.0, 0.0026, -2.35, -14.8)" gradientUnits="userSpaceOnUse" id="gradient3" r="819.2" spreadMethod="pad">
      <stop offset="0.0" stop-color="#4e0707"/>
      <stop offset="0.16470588235294117" stop-color="#b41010"/>
      <stop offset="0.5294117647058824" stop-color="#e23612"/>
      <stop offset="0.807843137254902" stop-color="#fd5037"/>
      <stop offset="1.0" stop-color="#fd5037" stop-opacity="0.0"/>
    </radialGradient>
    <radialGradient cx="0" cy="0" gradientTransform="matrix(0.0071, 0.0, 0.0, 0.0071, -0.25, -13.9)" gradientUnits="userSpaceOnUse" id="gradient4" r="819.2" spreadMethod="pad">
      <stop offset="0.0" stop-color="#4e0707"/>
      <stop offset="0.16470588235294117" stop-color="#b41010"/>
      <stop offset="0.5294117647058824" stop-color="#e23612"/>
      <stop offset="0.807843137254902" stop-color="#fd5037"/>
      <stop offset="1.0" stop-color="#fd5037" stop-opacity="0.0"/>
    </radialGradient>
  </defs>
</svg>
