<?xml version="1.0" encoding="UTF-8" standalone="no"?>
<svg xmlns:xlink="http://www.w3.org/1999/xlink" height="13.5px" width="34.0px" xmlns="http://www.w3.org/2000/svg">
  <g transform="matrix(1.0, 0.0, 0.0, 1.0, 17.0, 15.5)">
    <path d="M11.3 -12.85 Q16.0 -11.15 16.0 -8.75 16.0 -6.35 11.3 -4.7 6.65 -3.0 0.0 -3.0 -6.65 -3.0 -11.35 -4.7 -16.0 -6.35 -16.0 -8.75 -16.0 -11.15 -11.35 -12.85 -6.65 -14.5 0.0 -14.5 6.65 -14.5 11.3 -12.85" fill="url(#gradient0)" fill-rule="evenodd" stroke="none"/>
    <path d="M11.3 -12.85 Q16.0 -11.15 16.0 -8.75 16.0 -6.35 11.3 -4.7 6.65 -3.0 0.0 -3.0 -6.65 -3.0 -11.35 -4.7 -16.0 -6.35 -16.0 -8.75 -16.0 -11.15 -11.35 -12.85 -6.65 -14.5 0.0 -14.5 6.65 -14.5 11.3 -12.85 Z" fill="none" stroke="#000000" stroke-linecap="round" stroke-linejoin="round" stroke-width="2.0"/>
  </g>
  <defs>
    <radialGradient cx="0" cy="0" gradientTransform="matrix(0.0257, 0.0, 0.0, 0.0196, -6.5, -9.25)" gradientUnits="userSpaceOnUse" id="gradient0" r="819.2" spreadMethod="pad">
      <stop offset="0.3843137254901961" stop-color="#0066ff"/>
      <stop offset="1.0" stop-color="#ffffff"/>
    </radialGradient>
  </defs>
</svg>
