<?xml version="1.0" encoding="UTF-8" standalone="no"?>
<svg xmlns:xlink="http://www.w3.org/1999/xlink" height="23.5px" width="26.1px" xmlns="http://www.w3.org/2000/svg">
  <g transform="matrix(1.0, 0.0, 0.0, 1.0, 12.9, 13.0)">
    <path d="M-3.75 -11.75 L-3.15 -12.15 -2.8 -12.35 -1.2 -12.75 Q-0.45 -12.75 0.05 -12.4 0.65 -12.9 1.5 -12.9 L3.15 -12.5 3.75 -12.15 3.95 -12.0 6.4 -9.65 Q9.1 -6.4 10.8 -1.75 12.5 2.85 12.15 6.1 11.75 9.35 9.65 9.35 7.45 9.35 4.75 6.1 2.0 2.85 0.3 -1.75 L0.2 -2.1 0.0 -1.6 Q-1.7 3.0 -4.4 6.25 -7.15 9.5 -9.3 9.5 -11.45 9.5 -11.8 6.25 -12.2 3.0 -10.5 -1.6 -8.8 -6.25 -6.05 -9.5 L-3.75 -11.75" fill="url(#gradient0)" fill-rule="evenodd" stroke="none"/>
    <path d="M3.95 -12.0 L6.4 -9.65 Q9.1 -6.4 10.8 -1.75 12.5 2.85 12.15 6.1 11.75 9.35 9.65 9.35 7.45 9.35 4.75 6.1 2.0 2.85 0.3 -1.75 L0.2 -2.1 0.0 -1.6 Q-1.7 3.0 -4.4 6.25 -7.15 9.5 -9.3 9.5 -11.45 9.5 -11.8 6.25 -12.2 3.0 -10.5 -1.6 -8.8 -6.25 -6.05 -9.5 L-3.75 -11.75" fill="none" stroke="#000000" stroke-linecap="round" stroke-linejoin="round" stroke-width="2.0"/>
  </g>
  <defs>
    <radialGradient cx="0" cy="0" gradientTransform="matrix(0.0363, 0.0, 0.0, 0.0271, -6.8, -6.1)" gradientUnits="userSpaceOnUse" id="gradient0" r="819.2" spreadMethod="pad">
      <stop offset="0.0" stop-color="#0066ff"/>
      <stop offset="1.0" stop-color="#ffffff"/>
    </radialGradient>
  </defs>
</svg>
