<?xml version="1.0" encoding="UTF-8" standalone="no"?>
<svg xmlns:xlink="http://www.w3.org/1999/xlink" height="17.5px" width="17.5px" xmlns="http://www.w3.org/2000/svg">
  <g transform="matrix(1.0, 0.0, 0.0, 1.0, 8.3, 11.7)">
    <path d="M5.9 -8.45 L6.25 -8.05 Q8.2 -5.9 8.2 -2.95 8.2 0.25 5.9 2.5 L5.55 2.85 Q3.4 4.8 0.45 4.8 -2.55 4.8 -4.75 2.75 L-5.05 2.5 Q-7.3 0.25 -7.3 -2.95 -7.3 -5.8 -5.45 -7.95 L-5.05 -8.45 Q-2.75 -10.7 0.45 -10.7 3.65 -10.7 5.9 -8.45" fill="url(#gradient0)" fill-rule="evenodd" stroke="none"/>
    <path d="M5.9 -8.45 L6.25 -8.05 Q8.2 -5.9 8.2 -2.95 8.2 0.25 5.9 2.5 L5.55 2.85 Q3.4 4.8 0.45 4.8 -2.55 4.8 -4.75 2.75 L-5.05 2.5 Q-7.3 0.25 -7.3 -2.95 -7.3 -5.8 -5.45 -7.95 L-5.05 -8.45 Q-2.75 -10.7 0.45 -10.7 3.65 -10.7 5.9 -8.45 Z" fill="none" stroke="#000000" stroke-linecap="round" stroke-linejoin="round" stroke-width="2.0"/>
  </g>
  <defs>
    <linearGradient gradientTransform="matrix(0.0095, 0.0, 0.0, 0.0095, 0.45, -2.95)" gradientUnits="userSpaceOnUse" id="gradient0" spreadMethod="pad" x1="-819.2" x2="819.2">
      <stop offset="0.0" stop-color="#ffcc99"/>
      <stop offset="0.6901960784313725" stop-color="#ffe6cf"/>
      <stop offset="0.7411764705882353" stop-color="#ffe6cf"/>
      <stop offset="0.792156862745098" stop-color="#ffe6cf"/>
      <stop offset="0.8352941176470589" stop-color="#ffe7d0"/>
      <stop offset="1.0" stop-color="#ffffff"/>
    </linearGradient>
  </defs>
</svg>
