<?xml version="1.0" encoding="UTF-8" standalone="no"?>
<svg xmlns:xlink="http://www.w3.org/1999/xlink" height="23.6px" width="10.9px" xmlns="http://www.w3.org/2000/svg">
  <g transform="matrix(1.0, 0.0, 0.0, 1.0, 5.4, 24.8)">
    <path d="M0.45 -22.7 L0.45 -22.4 0.45 -22.1 Q1.1 -21.4 1.2 -20.45 L1.2 -20.3 Q1.95 -19.55 2.05 -18.65 L2.05 -18.5 Q1.35 -18.0 0.45 -18.25 L0.3 -17.95 0.25 -17.8 0.35 -17.4 0.35 -17.1 1.5 -16.75 1.75 -16.8 1.75 -16.9 Q1.75 -17.35 2.2 -17.4 2.8 -17.2 3.05 -16.6 L3.05 -16.35 3.05 -16.05 3.4 -15.5 3.4 -15.4 3.35 -15.45 3.15 -15.55 2.95 -15.5 2.9 -15.45 1.65 -15.65 1.5 -15.75 0.85 -15.85 0.7 -15.95 0.4 -15.9 -0.9 -16.1 -1.1 -16.05 -1.5 -15.8 -2.1 -15.85 -3.4 -15.9 -3.4 -16.15 -3.3 -16.3 -3.2 -16.45 -3.2 -16.85 -3.2 -17.1 Q-2.7 -17.65 -2.8 -18.35 L-2.75 -18.65 -0.7 -18.6 0.1 -19.3 0.0 -20.4 -0.05 -20.65 -0.2 -20.95 -0.25 -21.1 -0.3 -21.15 -0.65 -21.2 Q-1.25 -20.35 -2.05 -20.95 L-2.1 -21.35 -2.1 -21.65 Q-1.75 -22.05 -1.75 -22.6 L-1.25 -23.3 -1.2 -23.45 -1.2 -23.7 -1.05 -23.85 -1.0 -23.85 -1.0 -23.55 -0.95 -23.3 -0.8 -23.2 -0.55 -23.05 -0.25 -23.25 -0.15 -23.25 0.0 -23.3 0.1 -23.25 0.1 -23.05 0.15 -22.95 0.45 -22.7 M-0.65 -17.3 L-0.7 -17.25 -1.3 -16.9 -1.5 -16.8 -0.6 -16.9 -0.6 -17.15 -0.6 -17.3 -0.65 -17.3" fill="url(#gradient0)" fill-rule="evenodd" stroke="none"/>
    <path d="M-1.0 -23.85 L-0.9 -24.55 -0.8 -24.65 -0.7 -24.65 -0.55 -24.75 Q0.4 -25.0 0.95 -24.35 L1.0 -24.2 1.0 -24.1 1.0 -23.65 1.0 -23.55 1.1 -23.4 1.2 -23.25 1.2 -23.1 1.15 -23.0 1.05 -22.85 0.95 -22.75 0.75 -22.7 0.45 -22.7 0.15 -22.95 0.1 -23.05 0.1 -23.25 0.1 -23.5 0.1 -23.7 0.1 -23.75 -0.1 -23.7 -0.1 -23.55 -0.1 -23.45 -0.2 -23.3 -0.25 -23.25 -0.55 -23.05 -0.8 -23.2 -0.95 -23.3 -1.0 -23.55 -1.0 -23.85" fill="url(#gradient1)" fill-rule="evenodd" stroke="none"/>
    <path d="M3.4 -15.4 L3.6 -15.2 3.5 -15.3 3.35 -15.45 3.4 -15.4 M3.6 -14.8 L3.6 -14.75 3.6 -14.65 3.5 -14.5 3.6 -14.8 M0.4 -15.9 L0.85 -15.85 1.5 -15.75 1.65 -15.65 2.9 -15.45 2.8 -15.35 2.7 -15.1 2.6 -14.8 2.5 -14.75 -0.05 -14.95 -0.35 -14.95 -1.4 -15.05 -1.65 -15.25 -1.75 -15.35 -1.75 -15.5 -1.9 -15.7 -1.5 -15.8 -1.1 -16.05 -0.9 -16.1 0.4 -15.9" fill="url(#gradient2)" fill-rule="evenodd" stroke="none"/>
    <path d="M-3.65 -14.65 L-3.9 -14.85 -3.95 -15.0 -3.9 -15.55 -3.85 -15.7 -3.75 -15.75 -3.5 -15.85 -3.5 -15.9 -3.4 -15.9 -2.1 -15.85 -1.9 -15.7 -1.75 -15.5 -1.75 -15.35 -1.65 -15.25 -1.4 -15.05 -3.1 -15.15 -3.45 -15.0 -3.55 -14.75 -3.6 -14.65 -3.65 -14.65" fill="url(#gradient3)" fill-rule="evenodd" stroke="none"/>
    <path d="M3.6 -15.2 L3.6 -15.05 3.6 -14.8 3.5 -14.5 3.9 -14.2 3.95 -14.15 Q4.75 -14.2 4.95 -13.55 L4.8 -13.25 4.65 -13.15 2.65 -12.9 Q1.85 -11.75 0.8 -12.7 L-0.95 -12.65 -1.0 -12.55 Q-2.1 -11.75 -2.85 -12.95 L-2.8 -13.0 -5.2 -13.35 -5.4 -13.5 -5.25 -13.9 -5.1 -14.05 -5.05 -14.15 -5.05 -14.3 Q-4.5 -14.85 -3.65 -14.65 L-3.6 -14.65 -3.55 -14.75 -3.45 -15.0 -3.1 -15.15 -1.4 -15.05 -0.35 -14.95 -0.05 -14.95 2.5 -14.75 2.6 -14.8 2.7 -15.1 2.8 -15.35 2.9 -15.45 2.95 -15.5 3.15 -15.55 3.35 -15.45 3.5 -15.3 3.6 -15.2" fill="url(#gradient4)" fill-rule="evenodd" stroke="none"/>
    <path d="M4.25 -2.65 L4.2 -2.55 4.0 -2.15 3.95 -2.35 4.05 -2.55 4.25 -2.65 M-4.0 -2.25 L-4.3 -2.5 -4.25 -2.5 -4.15 -2.5 -4.15 -2.4 -4.0 -2.25 M-4.55 -3.2 Q-4.65 -3.8 -4.2 -4.3 L-4.3 -4.15 -4.3 -4.05 -4.3 -3.9 -3.7 -3.4 -3.5 -3.45 -3.35 -3.5 -3.15 -3.4 -4.4 -3.25 -4.55 -3.2 M-2.6 -4.35 L-1.9 -4.3 -2.15 -4.15 -2.2 -4.1 -2.6 -4.35 M1.45 -3.65 L1.35 -3.55 0.55 -3.6 1.45 -3.65" fill="url(#gradient5)" fill-rule="evenodd" stroke="none"/>
    <path d="M2.65 -1.95 L-0.45 -1.9 -0.5 -2.05 -0.8 -2.45 1.35 -2.4 Q1.65 -2.2 2.0 -2.4 L2.7 -2.35 2.65 -2.1 2.65 -1.95 M-1.7 -1.9 L-2.7 -1.9 -2.45 -2.2 -1.75 -2.25 -1.7 -1.9 M-3.9 -2.15 L-4.0 -2.25 -4.15 -2.4 -4.15 -2.5 -3.6 -2.5 -3.75 -2.35 -3.9 -2.15 M1.35 -3.55 L0.35 -3.6 0.55 -3.6 1.35 -3.55" fill="url(#gradient6)" fill-rule="evenodd" stroke="none"/>
    <path d="M-4.2 -4.3 L-4.15 -4.45 -4.15 -4.6 -4.1 -4.85 -4.05 -5.0 -3.95 -5.05 -3.7 -5.15 -3.7 -5.2 Q-3.2 -5.3 -2.95 -4.95 L-2.85 -4.8 -2.85 -4.7 -2.85 -4.55 -2.6 -4.35 -2.2 -4.1 -2.3 -3.75 -2.25 -3.65 -2.1 -3.5 -3.15 -3.4 -3.35 -3.5 -3.5 -3.45 -3.7 -3.4 -4.3 -3.9 -4.3 -4.05 -4.3 -4.15 -4.2 -4.3" fill="url(#gradient7)" fill-rule="evenodd" stroke="none"/>
    <path d="M1.45 -3.65 L1.85 -3.7 2.15 -3.65 2.4 -3.6 2.95 -3.55 2.7 -3.5 1.35 -3.55 1.45 -3.65" fill="url(#gradient8)" fill-rule="evenodd" stroke="none"/>
    <path d="M5.15 -4.25 L5.25 -4.15 4.6 -3.55 4.8 -3.85 5.15 -4.25 M4.5 -3.45 L4.5 -3.25 4.55 -3.0 4.25 -2.65 4.05 -2.55 4.05 -2.6 4.15 -3.0 4.05 -3.15 3.7 -3.4 3.7 -3.35 3.5 -3.35 3.4 -3.3 3.35 -3.2 2.7 -2.4 2.7 -2.35 2.0 -2.4 Q1.65 -2.2 1.35 -2.4 L-0.8 -2.45 -1.2 -2.8 Q-1.7 -3.55 -2.75 -3.2 L-2.95 -3.15 -3.6 -2.5 -4.15 -2.5 -4.25 -2.5 -4.3 -2.5 -4.7 -2.85 -4.55 -3.2 -4.4 -3.25 -3.15 -3.4 -2.1 -3.5 -2.25 -3.65 -2.3 -3.75 -2.2 -4.1 -2.15 -4.15 -1.9 -4.3 -1.7 -5.25 -1.65 -5.4 -1.55 -5.5 -1.3 -5.6 Q-0.95 -5.55 -0.85 -5.2 L-0.8 -5.1 Q-0.15 -4.9 0.5 -5.1 L0.65 -5.4 0.65 -5.5 0.8 -5.65 0.95 -5.75 1.1 -5.75 1.1 -5.8 1.45 -5.55 1.6 -5.4 1.6 -5.0 1.6 -4.75 Q2.55 -5.35 3.05 -4.6 L3.8 -4.7 3.45 -4.15 3.6 -3.9 4.25 -3.4 4.45 -3.45 4.5 -3.45 M1.35 -3.55 L2.7 -3.5 2.95 -3.55 2.4 -3.6 2.15 -3.65 1.85 -3.7 1.45 -3.65 0.55 -3.6 0.35 -3.6 1.35 -3.55" fill="url(#gradient9)" fill-rule="evenodd" stroke="none"/>
    <path d="M-2.7 -1.9 L-2.85 -1.75 Q-3.2 -1.3 -3.7 -1.2 L-3.95 -1.3 -4.1 -1.4 -4.1 -1.55 -4.15 -1.8 -4.15 -1.95 -3.9 -2.15 -3.75 -2.35 -3.6 -2.5 -2.95 -3.15 -2.75 -3.2 Q-1.7 -3.55 -1.2 -2.8 L-1.3 -2.85 -1.3 -2.8 -1.45 -2.8 -1.6 -2.7 -1.75 -2.55 -1.75 -2.3 -1.75 -2.25 -2.45 -2.2 -2.7 -1.9" fill="url(#gradient10)" fill-rule="evenodd" stroke="none"/>
    <path d="M-0.45 -1.9 L-0.6 -1.65 -0.75 -1.55 Q-1.3 -1.35 -1.7 -1.75 L-1.7 -1.9 -1.75 -2.25 -1.75 -2.3 -1.75 -2.55 -1.6 -2.7 -1.45 -2.8 -1.3 -2.8 -1.3 -2.85 -1.2 -2.8 -0.8 -2.45 -0.5 -2.05 -0.45 -1.9" fill="url(#gradient11)" fill-rule="evenodd" stroke="none"/>
    <path d="M4.0 -2.15 L4.05 -2.05 4.1 -1.9 4.15 -1.8 4.05 -1.5 2.75 -1.55 2.65 -1.95 2.65 -2.1 2.7 -2.35 2.7 -2.4 3.35 -3.2 3.4 -3.3 3.5 -3.35 3.7 -3.35 3.7 -3.4 4.05 -3.15 4.15 -3.0 4.05 -2.6 4.05 -2.55 3.95 -2.35 4.0 -2.15" fill="url(#gradient12)" fill-rule="evenodd" stroke="none"/>
    <path d="M3.8 -4.7 L4.2 -5.1 4.3 -5.15 4.5 -5.15 4.5 -5.2 Q5.15 -5.35 5.45 -4.8 L5.5 -4.7 5.15 -4.25 4.8 -3.85 4.6 -3.55 4.55 -3.5 4.5 -3.45 4.45 -3.45 4.25 -3.4 3.6 -3.9 3.45 -4.15 3.8 -4.7" fill="url(#gradient13)" fill-rule="evenodd" stroke="none"/>
  </g>
  <defs>
    <radialGradient cx="0" cy="0" gradientTransform="matrix(0.0067, 0.0, 0.0, 0.0067, 0.0, -19.5)" gradientUnits="userSpaceOnUse" id="gradient0" r="819.2" spreadMethod="pad">
      <stop offset="0.0" stop-color="#4e0707"/>
      <stop offset="0.16470588235294117" stop-color="#b41010"/>
      <stop offset="0.5294117647058824" stop-color="#e23612"/>
      <stop offset="0.807843137254902" stop-color="#fd5037"/>
      <stop offset="1.0" stop-color="#fd5037" stop-opacity="0.0"/>
    </radialGradient>
    <radialGradient cx="0" cy="0" gradientTransform="matrix(0.0018, 0.0, 0.0, 0.0018, 0.1, -23.75)" gradientUnits="userSpaceOnUse" id="gradient1" r="819.2" spreadMethod="pad">
      <stop offset="0.0" stop-color="#4e0707"/>
      <stop offset="0.16470588235294117" stop-color="#b41010"/>
      <stop offset="0.5294117647058824" stop-color="#e23612"/>
      <stop offset="0.807843137254902" stop-color="#fd5037"/>
      <stop offset="1.0" stop-color="#fd5037" stop-opacity="0.0"/>
    </radialGradient>
    <radialGradient cx="0" cy="0" gradientTransform="matrix(0.0046, 0.0, 0.0, 0.0046, 0.05, -14.85)" gradientUnits="userSpaceOnUse" id="gradient2" r="819.2" spreadMethod="pad">
      <stop offset="0.0" stop-color="#4e0707"/>
      <stop offset="0.16470588235294117" stop-color="#b41010"/>
      <stop offset="0.5294117647058824" stop-color="#e23612"/>
      <stop offset="0.807843137254902" stop-color="#fd5037"/>
      <stop offset="1.0" stop-color="#fd5037" stop-opacity="0.0"/>
    </radialGradient>
    <radialGradient cx="0" cy="0" gradientTransform="matrix(0.0026, 0.0, 0.0, 0.0026, -2.35, -14.8)" gradientUnits="userSpaceOnUse" id="gradient3" r="819.2" spreadMethod="pad">
      <stop offset="0.0" stop-color="#4e0707"/>
      <stop offset="0.16470588235294117" stop-color="#b41010"/>
      <stop offset="0.5294117647058824" stop-color="#e23612"/>
      <stop offset="0.807843137254902" stop-color="#fd5037"/>
      <stop offset="1.0" stop-color="#fd5037" stop-opacity="0.0"/>
    </radialGradient>
    <radialGradient cx="0" cy="0" gradientTransform="matrix(0.0071, 0.0, 0.0, 0.0071, -0.25, -13.9)" gradientUnits="userSpaceOnUse" id="gradient4" r="819.2" spreadMethod="pad">
      <stop offset="0.0" stop-color="#4e0707"/>
      <stop offset="0.16470588235294117" stop-color="#b41010"/>
      <stop offset="0.5294117647058824" stop-color="#e23612"/>
      <stop offset="0.807843137254902" stop-color="#fd5037"/>
      <stop offset="1.0" stop-color="#fd5037" stop-opacity="0.0"/>
    </radialGradient>
    <radialGradient cx="0" cy="0" gradientTransform="matrix(0.0064, 0.0, 0.0, 0.0064, -0.15, -3.25)" gradientUnits="userSpaceOnUse" id="gradient5" r="819.2" spreadMethod="pad">
      <stop offset="0.0" stop-color="#4e0707"/>
      <stop offset="0.16470588235294117" stop-color="#b41010"/>
      <stop offset="0.5294117647058824" stop-color="#e23612"/>
      <stop offset="0.807843137254902" stop-color="#fd5037"/>
      <stop offset="1.0" stop-color="#fd5037" stop-opacity="0.0"/>
    </radialGradient>
    <radialGradient cx="0" cy="0" gradientTransform="matrix(0.0058, 0.0, 0.0, 0.0058, -0.25, -2.8)" gradientUnits="userSpaceOnUse" id="gradient6" r="819.2" spreadMethod="pad">
      <stop offset="0.0" stop-color="#4e0707"/>
      <stop offset="0.16470588235294117" stop-color="#b41010"/>
      <stop offset="0.5294117647058824" stop-color="#e23612"/>
      <stop offset="0.807843137254902" stop-color="#fd5037"/>
      <stop offset="1.0" stop-color="#fd5037" stop-opacity="0.0"/>
    </radialGradient>
    <radialGradient cx="0" cy="0" gradientTransform="matrix(0.0026, 0.0, 0.0, 0.0026, -2.45, -4.1)" gradientUnits="userSpaceOnUse" id="gradient7" r="819.2" spreadMethod="pad">
      <stop offset="0.0" stop-color="#4e0707"/>
      <stop offset="0.16470588235294117" stop-color="#b41010"/>
      <stop offset="0.5294117647058824" stop-color="#e23612"/>
      <stop offset="0.807843137254902" stop-color="#fd5037"/>
      <stop offset="1.0" stop-color="#fd5037" stop-opacity="0.0"/>
    </radialGradient>
    <radialGradient cx="0" cy="0" gradientTransform="matrix(0.0027, 0.0, 0.0, 0.0027, 2.8, -3.45)" gradientUnits="userSpaceOnUse" id="gradient8" r="819.2" spreadMethod="pad">
      <stop offset="0.0" stop-color="#4e0707"/>
      <stop offset="0.16470588235294117" stop-color="#b41010"/>
      <stop offset="0.5294117647058824" stop-color="#e23612"/>
      <stop offset="0.807843137254902" stop-color="#fd5037"/>
      <stop offset="1.0" stop-color="#fd5037" stop-opacity="0.0"/>
    </radialGradient>
    <radialGradient cx="0" cy="0" gradientTransform="matrix(0.0068, 0.0, 0.0, 0.0068, 0.25, -4.05)" gradientUnits="userSpaceOnUse" id="gradient9" r="819.2" spreadMethod="pad">
      <stop offset="0.0" stop-color="#4e0707"/>
      <stop offset="0.16470588235294117" stop-color="#b41010"/>
      <stop offset="0.5294117647058824" stop-color="#e23612"/>
      <stop offset="0.807843137254902" stop-color="#fd5037"/>
      <stop offset="1.0" stop-color="#fd5037" stop-opacity="0.0"/>
    </radialGradient>
    <radialGradient cx="0" cy="0" gradientTransform="matrix(0.0024, 0.0, 0.0, 0.0024, -2.65, -2.25)" gradientUnits="userSpaceOnUse" id="gradient10" r="819.2" spreadMethod="pad">
      <stop offset="0.0" stop-color="#4e0707"/>
      <stop offset="0.16470588235294117" stop-color="#b41010"/>
      <stop offset="0.5294117647058824" stop-color="#e23612"/>
      <stop offset="0.807843137254902" stop-color="#fd5037"/>
      <stop offset="1.0" stop-color="#fd5037" stop-opacity="0.0"/>
    </radialGradient>
    <radialGradient cx="0" cy="0" gradientTransform="matrix(0.0015, 0.0, 0.0, 0.0015, -1.1, -2.15)" gradientUnits="userSpaceOnUse" id="gradient11" r="819.2" spreadMethod="pad">
      <stop offset="0.0" stop-color="#4e0707"/>
      <stop offset="0.16470588235294117" stop-color="#b41010"/>
      <stop offset="0.5294117647058824" stop-color="#e23612"/>
      <stop offset="0.807843137254902" stop-color="#fd5037"/>
      <stop offset="1.0" stop-color="#fd5037" stop-opacity="0.0"/>
    </radialGradient>
    <radialGradient cx="0" cy="0" gradientTransform="matrix(0.0013, 0.0, 0.0, 0.0013, 3.4, -2.35)" gradientUnits="userSpaceOnUse" id="gradient12" r="819.2" spreadMethod="pad">
      <stop offset="0.0" stop-color="#4e0707"/>
      <stop offset="0.16470588235294117" stop-color="#b41010"/>
      <stop offset="0.5294117647058824" stop-color="#e23612"/>
      <stop offset="0.807843137254902" stop-color="#fd5037"/>
      <stop offset="1.0" stop-color="#fd5037" stop-opacity="0.0"/>
    </radialGradient>
    <radialGradient cx="0" cy="0" gradientTransform="matrix(0.0021, 0.0, 0.0, 0.0021, 4.5, -4.3)" gradientUnits="userSpaceOnUse" id="gradient13" r="819.2" spreadMethod="pad">
      <stop offset="0.0" stop-color="#4e0707"/>
      <stop offset="0.16470588235294117" stop-color="#b41010"/>
      <stop offset="0.5294117647058824" stop-color="#e23612"/>
      <stop offset="0.807843137254902" stop-color="#fd5037"/>
      <stop offset="1.0" stop-color="#fd5037" stop-opacity="0.0"/>
    </radialGradient>
  </defs>
</svg>
