<?xml version="1.0" encoding="UTF-8" standalone="no"?>
<svg xmlns:xlink="http://www.w3.org/1999/xlink" height="46.0px" width="46.5px" xmlns="http://www.w3.org/2000/svg">
  <g transform="matrix(1.0, 0.0, 0.0, 1.0, 23.25, 23.0)">
    <path d="M0.0 -22.5 Q9.4 -22.5 16.05 -15.9 22.75 -9.3 22.75 0.0 22.75 9.3 16.05 15.9 9.4 22.5 0.0 22.5 -9.4 22.5 -16.1 15.9 -22.75 9.3 -22.75 0.0 -22.75 -9.3 -16.1 -15.9 -9.4 -22.5 0.0 -22.5 Z" fill="none" stroke="#000000" stroke-linecap="round" stroke-linejoin="round" stroke-width="1.0"/>
    <path d="M-14.85 0.55 L-15.15 1.05 -17.65 4.65 Q-18.15 5.4 -18.15 6.05 -18.15 6.9 -17.55 7.45 -16.95 8.0 -16.05 8.0 -14.85 8.0 -13.85 6.6 L-9.75 0.6 -14.85 0.55 M-18.65 -2.3 Q-18.15 -1.8 -17.35 -1.8 -16.45 -1.8 -15.85 -2.4 -15.25 -2.95 -15.1 -3.9 L-12.55 -3.9 Q-12.1 -3.9 -12.1 -3.5 L-12.2 -3.35 -13.5 -1.45 -8.4 -1.4 -7.7 -2.45 Q-6.65 -4.05 -6.65 -5.15 -6.65 -7.9 -9.9 -7.9 L-16.7 -7.9 Q-18.7 -7.9 -18.95 -5.9 L-19.2 -3.65 Q-19.2 -2.8 -18.65 -2.3 M3.15 6.2 Q4.95 4.5 4.95 1.9 L4.9 1.15 4.8 0.65 -5.7 0.6 -5.25 1.1 -3.95 1.45 -2.45 1.45 -0.9 1.45 Q0.35 1.6 0.35 2.55 L-0.1 3.55 Q-0.55 3.95 -1.2 3.95 -2.05 3.95 -2.6 3.45 L-3.6 2.3 Q-4.05 1.75 -4.8 1.75 -5.65 1.75 -6.35 2.4 -7.0 3.05 -7.0 3.9 -7.0 5.7 -5.0 6.9 -3.25 7.9 -1.3 7.9 1.3 7.9 3.15 6.2 M17.85 2.2 L17.95 1.2 18.0 0.7 13.75 0.65 13.7 1.2 13.6 1.95 Q13.4 4.0 11.8 4.0 10.4 4.0 10.4 2.3 L10.5 1.15 10.5 0.65 6.25 0.65 6.2 1.15 6.05 2.75 Q6.0 4.95 7.55 6.45 9.15 7.9 11.35 7.9 13.9 7.9 15.7 6.3 17.55 4.7 17.85 2.2 M20.35 -8.05 Q21.75 -6.55 21.8 -4.5 L21.8 4.5 Q21.75 6.55 20.35 8.0 19.0 9.5 17.05 9.5 L-17.0 9.5 Q-18.95 9.5 -20.35 8.0 -21.7 6.55 -21.7 4.5 L-21.7 -4.5 Q-21.7 -6.55 -20.35 -8.05 -18.95 -9.5 -17.0 -9.5 L17.05 -9.5 Q19.0 -9.5 20.35 -8.05 M5.4 -6.1 Q5.45 -7.9 3.45 -7.9 L-3.05 -7.9 Q-5.1 -7.9 -5.35 -5.9 L-5.8 -1.4 3.45 -1.35 Q2.35 -2.3 0.65 -2.5 L-1.35 -2.55 -1.2 -4.2 1.2 -4.2 Q1.1 -3.35 1.55 -2.9 2.05 -2.4 2.9 -2.4 4.65 -2.4 5.2 -4.15 L5.4 -6.1 M6.6 -2.6 L6.45 -1.35 10.65 -1.35 11.05 -3.05 Q11.6 -4.4 12.7 -4.4 14.15 -4.4 14.05 -2.8 L13.95 -1.3 18.25 -1.3 18.4 -3.35 Q18.45 -5.6 16.85 -6.95 15.3 -8.25 13.05 -8.25 10.5 -8.25 8.7 -6.7 6.9 -5.15 6.6 -2.6" fill="#000000" fill-rule="evenodd" stroke="none"/>
  </g>
</svg>
