<?xml version="1.0" encoding="UTF-8" standalone="no"?>
<svg xmlns:xlink="http://www.w3.org/1999/xlink" height="17.5px" width="17.5px" xmlns="http://www.w3.org/2000/svg">
  <g transform="matrix(1.0, 0.0, 0.0, 1.0, 8.3, 18.2)">
    <path d="M5.9 -14.95 L6.25 -14.55 Q8.2 -12.4 8.2 -9.45 8.2 -6.25 5.9 -4.0 L5.55 -3.65 Q3.4 -1.7 0.45 -1.7 -2.55 -1.7 -4.75 -3.75 L-5.05 -4.0 Q-7.3 -6.25 -7.3 -9.45 -7.3 -12.3 -5.45 -14.45 L-5.05 -14.95 Q-2.75 -17.2 0.45 -17.2 3.65 -17.2 5.9 -14.95" fill="url(#gradient0)" fill-rule="evenodd" stroke="none"/>
    <path d="M5.9 -14.95 L6.25 -14.55 Q8.2 -12.4 8.2 -9.45 8.2 -6.25 5.9 -4.0 L5.55 -3.65 Q3.4 -1.7 0.45 -1.7 -2.55 -1.7 -4.75 -3.75 L-5.05 -4.0 Q-7.3 -6.25 -7.3 -9.45 -7.3 -12.3 -5.45 -14.45 L-5.05 -14.95 Q-2.75 -17.2 0.45 -17.2 3.65 -17.2 5.9 -14.95 Z" fill="none" stroke="#000000" stroke-linecap="round" stroke-linejoin="round" stroke-width="2.0"/>
  </g>
  <defs>
    <linearGradient gradientTransform="matrix(0.0095, 0.0, 0.0, 0.0095, 0.45, -9.45)" gradientUnits="userSpaceOnUse" id="gradient0" spreadMethod="pad" x1="-819.2" x2="819.2">
      <stop offset="0.0" stop-color="#ffcc99"/>
      <stop offset="0.6901960784313725" stop-color="#ffe6cf"/>
      <stop offset="0.7411764705882353" stop-color="#ffe6cf"/>
      <stop offset="0.792156862745098" stop-color="#ffe6cf"/>
      <stop offset="0.8352941176470589" stop-color="#ffe7d0"/>
      <stop offset="1.0" stop-color="#ffffff"/>
    </linearGradient>
  </defs>
</svg>
