<?xml version="1.0" encoding="UTF-8" standalone="no"?>
<svg xmlns:xlink="http://www.w3.org/1999/xlink" height="12.75px" width="26.1px" xmlns="http://www.w3.org/2000/svg">
  <g transform="matrix(1.0, 0.0, 0.0, 1.0, 13.4, 16.3)">
    <path d="M-4.25 -4.7 L-3.65 -4.5 -3.3 -4.4 -1.7 -4.2 -0.45 -4.35 1.0 -4.1 2.65 -4.3 3.25 -4.5 3.45 -4.55 5.9 -5.75 Q8.6 -7.35 10.3 -9.7 12.0 -12.0 11.65 -13.6 11.25 -15.25 9.15 -15.25 6.95 -15.25 4.25 -13.6 1.5 -12.0 -0.2 -9.7 L-0.3 -9.5 -0.5 -9.75 Q-2.2 -12.05 -4.9 -13.7 -7.65 -15.3 -9.8 -15.3 -11.95 -15.3 -12.3 -13.7 -12.7 -12.05 -11.0 -9.75 -9.3 -7.45 -6.55 -5.8 L-4.25 -4.7" fill="url(#gradient0)" fill-rule="evenodd" stroke="none"/>
    <path d="M3.45 -4.55 L5.9 -5.75 Q8.6 -7.35 10.3 -9.7 12.0 -12.0 11.65 -13.6 11.25 -15.25 9.15 -15.25 6.95 -15.25 4.25 -13.6 1.5 -12.0 -0.2 -9.7 L-0.3 -9.5 -0.5 -9.75 Q-2.2 -12.05 -4.9 -13.7 -7.65 -15.3 -9.8 -15.3 -11.95 -15.3 -12.3 -13.7 -12.7 -12.05 -11.0 -9.75 -9.3 -7.45 -6.55 -5.8 L-4.25 -4.7" fill="none" stroke="#000000" stroke-linecap="round" stroke-linejoin="round" stroke-width="2.0"/>
  </g>
  <defs>
    <radialGradient cx="0" cy="0" gradientTransform="matrix(0.0363, 0.0, 0.0, -0.0136, -7.3, -7.5)" gradientUnits="userSpaceOnUse" id="gradient0" r="819.2" spreadMethod="pad">
      <stop offset="0.0" stop-color="#0066ff"/>
      <stop offset="1.0" stop-color="#ffffff"/>
    </radialGradient>
  </defs>
</svg>
