<?xml version="1.0" encoding="UTF-8" standalone="no"?>
<svg xmlns:xlink="http://www.w3.org/1999/xlink" height="23.5px" width="26.1px" xmlns="http://www.w3.org/2000/svg">
  <g transform="matrix(1.0, 0.0, 0.0, 1.0, 13.4, 29.9)">
    <path d="M3.45 -7.4 Q4.6 -8.2 5.9 -9.75 8.6 -13.0 10.3 -17.65 12.0 -22.25 11.65 -25.5 11.25 -28.75 9.15 -28.75 6.95 -28.75 4.25 -25.5 1.5 -22.25 -0.2 -17.65 L-0.3 -17.3 -0.5 -17.8 Q-2.2 -22.4 -4.9 -25.65 -7.65 -28.9 -9.8 -28.9 -11.95 -28.9 -12.3 -25.65 -12.7 -22.4 -11.0 -17.8 -9.3 -13.15 -6.55 -9.9 -5.35 -8.45 -4.25 -7.65 L-3.65 -7.25 -3.3 -7.05 Q-2.45 -6.65 -1.7 -6.65 -0.95 -6.65 -0.45 -7.0 0.15 -6.5 1.0 -6.5 1.8 -6.5 2.65 -6.9 L3.25 -7.25 3.45 -7.4" fill="url(#gradient0)" fill-rule="evenodd" stroke="none"/>
    <path d="M3.45 -7.4 Q4.6 -8.2 5.9 -9.75 8.6 -13.0 10.3 -17.65 12.0 -22.25 11.65 -25.5 11.25 -28.75 9.15 -28.75 6.95 -28.75 4.25 -25.5 1.5 -22.25 -0.2 -17.65 L-0.3 -17.3 -0.5 -17.8 Q-2.2 -22.4 -4.9 -25.65 -7.65 -28.9 -9.8 -28.9 -11.95 -28.9 -12.3 -25.65 -12.7 -22.4 -11.0 -17.8 -9.3 -13.15 -6.55 -9.9 -5.35 -8.45 -4.25 -7.65" fill="none" stroke="#000000" stroke-linecap="round" stroke-linejoin="round" stroke-width="2.0"/>
  </g>
  <defs>
    <radialGradient cx="0" cy="0" gradientTransform="matrix(0.0363, 0.0, 0.0, -0.0271, -7.3, -13.3)" gradientUnits="userSpaceOnUse" id="gradient0" r="819.2" spreadMethod="pad">
      <stop offset="0.0" stop-color="#0066ff"/>
      <stop offset="1.0" stop-color="#ffffff"/>
    </radialGradient>
  </defs>
</svg>
