<?xml version="1.0" encoding="UTF-8" standalone="no"?>
<svg xmlns:xlink="http://www.w3.org/1999/xlink" height="17.5px" width="17.5px" xmlns="http://www.w3.org/2000/svg">
  <g transform="matrix(1.0, 0.0, 0.0, 1.0, 8.3, 23.7)">
    <path d="M5.9 -20.45 L6.25 -20.05 Q8.2 -17.9 8.2 -14.95 8.2 -11.75 5.9 -9.5 L5.55 -9.15 Q3.4 -7.2 0.45 -7.2 -2.55 -7.2 -4.75 -9.25 L-5.05 -9.5 Q-7.3 -11.75 -7.3 -14.95 -7.3 -17.8 -5.45 -19.95 L-5.05 -20.45 Q-2.75 -22.7 0.45 -22.7 3.65 -22.7 5.9 -20.45" fill="url(#gradient0)" fill-rule="evenodd" stroke="none"/>
    <path d="M5.9 -20.45 L6.25 -20.05 Q8.2 -17.9 8.2 -14.95 8.2 -11.75 5.9 -9.5 L5.55 -9.15 Q3.4 -7.2 0.45 -7.2 -2.55 -7.2 -4.75 -9.25 L-5.05 -9.5 Q-7.3 -11.75 -7.3 -14.95 -7.3 -17.8 -5.45 -19.95 L-5.05 -20.45 Q-2.75 -22.7 0.45 -22.7 3.65 -22.7 5.9 -20.45 Z" fill="none" stroke="#000000" stroke-linecap="round" stroke-linejoin="round" stroke-width="2.0"/>
  </g>
  <defs>
    <linearGradient gradientTransform="matrix(0.0095, 0.0, 0.0, 0.0095, 0.45, -14.95)" gradientUnits="userSpaceOnUse" id="gradient0" spreadMethod="pad" x1="-819.2" x2="819.2">
      <stop offset="0.0" stop-color="#ffcc99"/>
      <stop offset="0.6901960784313725" stop-color="#ffe6cf"/>
      <stop offset="0.7411764705882353" stop-color="#ffe6cf"/>
      <stop offset="0.792156862745098" stop-color="#ffe6cf"/>
      <stop offset="0.8352941176470589" stop-color="#ffe7d0"/>
      <stop offset="1.0" stop-color="#ffffff"/>
    </linearGradient>
  </defs>
</svg>
