<?xml version="1.0" encoding="UTF-8" standalone="no"?>
<svg xmlns:xlink="http://www.w3.org/1999/xlink" height="13.5px" width="34.0px" xmlns="http://www.w3.org/2000/svg">
  <g transform="matrix(1.0, 0.0, 0.0, 1.0, 16.5, 10.8)">
    <path d="M16.5 -4.05 Q16.5 -1.65 11.8 0.0 7.15 1.7 0.5 1.7 -6.15 1.7 -10.85 0.0 -15.5 -1.65 -15.5 -4.05 -15.5 -6.45 -10.85 -8.15 -6.15 -9.8 0.5 -9.8 7.15 -9.8 11.8 -8.15 16.5 -6.45 16.5 -4.05 M2.95 -2.8 Q3.2 -5.15 0.4 -5.0 L-0.55 -4.8 -1.5 -4.4 Q-3.05 -3.6 -2.25 -2.65 -2.45 -1.85 -1.6 -1.5 L1.85 -1.25 Q2.45 -1.4 2.7 -1.95 L2.85 -2.5 2.95 -2.8" fill="url(#gradient0)" fill-rule="evenodd" stroke="none"/>
    <path d="M16.5 -4.05 Q16.5 -1.65 11.8 0.0 7.15 1.7 0.5 1.7 -6.15 1.7 -10.85 0.0 -15.5 -1.65 -15.5 -4.05 -15.5 -6.45 -10.85 -8.15 -6.15 -9.8 0.5 -9.8 7.15 -9.8 11.8 -8.15 16.5 -6.45 16.5 -4.05 Z" fill="none" stroke="#000000" stroke-linecap="round" stroke-linejoin="round" stroke-width="2.0"/>
  </g>
  <defs>
    <radialGradient cx="0" cy="0" gradientTransform="matrix(0.0257, 0.0, 0.0, 0.0196, -6.0, -4.55)" gradientUnits="userSpaceOnUse" id="gradient0" r="819.2" spreadMethod="pad">
      <stop offset="0.3843137254901961" stop-color="#0066ff"/>
      <stop offset="1.0" stop-color="#ffffff"/>
    </radialGradient>
  </defs>
</svg>
