<?xml version="1.0" encoding="UTF-8" standalone="no"?>
<svg xmlns:xlink="http://www.w3.org/1999/xlink" height="13.5px" width="34.0px" xmlns="http://www.w3.org/2000/svg">
  <g transform="matrix(1.0, 0.0, 0.0, 1.0, 16.5, 10.55)">
    <path d="M11.8 -7.9 Q16.5 -6.2 16.5 -3.8 16.5 -1.4 11.8 0.25 7.15 1.95 0.5 1.95 -6.15 1.95 -10.85 0.25 -15.5 -1.4 -15.5 -3.8 -15.5 -6.2 -10.85 -7.9 -6.15 -9.55 0.5 -9.55 7.15 -9.55 11.8 -7.9" fill="url(#gradient0)" fill-rule="evenodd" stroke="none"/>
    <path d="M11.8 -7.9 Q16.5 -6.2 16.5 -3.8 16.5 -1.4 11.8 0.25 7.15 1.95 0.5 1.95 -6.15 1.95 -10.85 0.25 -15.5 -1.4 -15.5 -3.8 -15.5 -6.2 -10.85 -7.9 -6.15 -9.55 0.5 -9.55 7.15 -9.55 11.8 -7.9 Z" fill="none" stroke="#000000" stroke-linecap="round" stroke-linejoin="round" stroke-width="2.0"/>
  </g>
  <defs>
    <radialGradient cx="0" cy="0" gradientTransform="matrix(0.0257, 0.0, 0.0, 0.0196, -6.0, -4.3)" gradientUnits="userSpaceOnUse" id="gradient0" r="819.2" spreadMethod="pad">
      <stop offset="0.3843137254901961" stop-color="#0066ff"/>
      <stop offset="1.0" stop-color="#ffffff"/>
    </radialGradient>
  </defs>
</svg>
