<?xml version="1.0" encoding="UTF-8" standalone="no"?>
<svg xmlns:xlink="http://www.w3.org/1999/xlink" height="9.25px" width="11.7px" xmlns="http://www.w3.org/2000/svg">
  <g transform="matrix(1.0, 0.0, 0.0, 1.0, 5.95, 10.2)">
    <path d="M-1.7 -2.3 Q-2.55 -2.55 -3.4 -3.4 -4.7 -3.4 -5.55 -4.4 L-5.95 -5.35 Q-6.05 -6.3 -5.45 -7.0 -5.75 -8.65 -4.15 -8.95 L-2.85 -9.25 -1.3 -9.5 1.8 -9.5 2.35 -9.35 3.25 -10.0 3.8 -10.2 Q6.55 -9.75 5.4 -7.2 4.95 -6.2 4.15 -5.5 L3.85 -5.25 4.05 -5.15 Q5.65 -4.15 4.45 -2.75 4.0 -2.2 3.3 -2.0 L1.55 -2.05 1.7 -2.4 1.9 -2.55 1.95 -2.7 2.0 -2.85 1.95 -3.0 1.9 -3.15 1.7 -3.3 Q2.25 -3.55 2.7 -4.05 L2.8 -4.15 3.7 -5.2 Q4.9 -7.3 2.8 -8.2 L2.75 -8.15 Q1.95 -9.2 0.15 -8.85 L-0.45 -8.65 -0.85 -8.2 -1.0 -7.55 Q-1.65 -8.85 -3.5 -8.4 -5.3 -7.9 -4.95 -5.9 L-4.75 -5.55 Q-4.05 -5.05 -3.4 -4.9 -3.3 -4.4 -2.8 -3.95 -2.85 -3.45 -2.45 -3.1 L-1.8 -2.7 -1.85 -2.55 -1.75 -2.4 -1.7 -2.3 M-0.75 -6.55 Q-0.35 -6.1 0.8 -6.25 L0.9 -6.15 0.9 -6.1 -0.6 -5.7 -0.7 -5.8 -1.0 -6.1 -0.95 -6.25 -0.75 -6.55" fill="url(#gradient0)" fill-rule="evenodd" stroke="none"/>
    <path d="M2.75 -8.15 L2.8 -8.2 Q4.9 -7.3 3.7 -5.2 L2.8 -4.15 Q1.85 -3.6 0.7 -4.6 0.45 -4.85 0.55 -5.2 L0.9 -6.1 0.9 -6.15 2.9 -6.05 3.25 -6.85 Q3.1 -7.7 2.75 -8.15" fill="url(#gradient1)" fill-rule="evenodd" stroke="none"/>
    <path d="M-1.8 -2.7 L-2.45 -3.1 Q-2.85 -3.45 -2.8 -3.95 -3.3 -4.4 -3.4 -4.9 -3.55 -5.35 -3.3 -5.9 -3.0 -6.6 -2.3 -6.6 -1.55 -6.55 -1.0 -6.1 L-0.7 -5.8 -0.6 -5.7 0.9 -6.1 0.55 -5.2 Q0.45 -4.85 0.7 -4.6 1.85 -3.6 2.8 -4.15 L2.7 -4.05 Q2.25 -3.55 1.7 -3.3 L0.75 -3.55 0.55 -3.5 -0.25 -3.35 Q-1.5 -3.55 -1.8 -2.7" fill="url(#gradient2)" fill-rule="evenodd" stroke="none"/>
    <path d="M-1.0 -7.55 L-0.85 -8.2 -0.45 -8.65 0.15 -8.85 Q1.95 -9.2 2.75 -8.15 3.1 -7.7 3.25 -6.85 L2.9 -6.05 0.9 -6.15 0.8 -6.25 Q-0.35 -6.1 -0.75 -6.55 -1.05 -6.9 -1.0 -7.55" fill="url(#gradient3)" fill-rule="evenodd" stroke="none"/>
    <path d="M4.05 -5.15 L3.85 -5.25 4.15 -5.5 4.05 -5.15" fill="url(#gradient4)" fill-rule="evenodd" stroke="none"/>
    <path d="M-1.7 -2.3 L-1.75 -2.4 -1.85 -2.55 -1.8 -2.7 Q-1.5 -3.55 -0.25 -3.35 L0.55 -3.5 0.75 -3.55 1.7 -3.3 1.9 -3.15 1.95 -3.0 2.0 -2.85 1.95 -2.7 1.9 -2.55 1.7 -2.4 1.55 -2.05 1.2 -1.65 0.95 -1.2 -2.25 -1.4 -2.1 -1.85 -1.75 -2.15 -1.7 -2.25 -1.7 -2.3" fill="url(#gradient5)" fill-rule="evenodd" stroke="none"/>
    <path d="M-3.4 -4.9 Q-4.05 -5.05 -4.75 -5.55 L-4.95 -5.9 Q-5.3 -7.9 -3.5 -8.4 -1.65 -8.85 -1.0 -7.55 -1.05 -6.9 -0.75 -6.55 L-0.95 -6.25 -1.0 -6.1 Q-1.55 -6.55 -2.3 -6.6 -3.0 -6.6 -3.3 -5.9 -3.55 -5.35 -3.4 -4.9" fill="url(#gradient6)" fill-rule="evenodd" stroke="none"/>
  </g>
  <defs>
    <radialGradient cx="0" cy="0" gradientTransform="matrix(0.0084, 0.0, 0.0, 0.0084, -0.1, -6.05)" gradientUnits="userSpaceOnUse" id="gradient0" r="819.2" spreadMethod="pad">
      <stop offset="0.0" stop-color="#4e0707"/>
      <stop offset="0.16470588235294117" stop-color="#b41010"/>
      <stop offset="0.5294117647058824" stop-color="#e23612"/>
      <stop offset="0.807843137254902" stop-color="#fd5037"/>
      <stop offset="1.0" stop-color="#fd5037" stop-opacity="0.0"/>
    </radialGradient>
    <radialGradient cx="0" cy="0" gradientTransform="matrix(0.0033, 0.0, 0.0, 0.0033, 2.35, -6.1)" gradientUnits="userSpaceOnUse" id="gradient1" r="819.2" spreadMethod="pad">
      <stop offset="0.0" stop-color="#4e0707"/>
      <stop offset="0.16470588235294117" stop-color="#b41010"/>
      <stop offset="0.5294117647058824" stop-color="#e23612"/>
      <stop offset="0.807843137254902" stop-color="#fd5037"/>
      <stop offset="1.0" stop-color="#fd5037" stop-opacity="0.0"/>
    </radialGradient>
    <radialGradient cx="0" cy="0" gradientTransform="matrix(0.0045, 0.0, 0.0, 0.0045, -0.25, -4.6)" gradientUnits="userSpaceOnUse" id="gradient2" r="819.2" spreadMethod="pad">
      <stop offset="0.0" stop-color="#4e0707"/>
      <stop offset="0.16470588235294117" stop-color="#b41010"/>
      <stop offset="0.5294117647058824" stop-color="#e23612"/>
      <stop offset="0.807843137254902" stop-color="#fd5037"/>
      <stop offset="1.0" stop-color="#fd5037" stop-opacity="0.0"/>
    </radialGradient>
    <radialGradient cx="0" cy="0" gradientTransform="matrix(0.0036, 0.0, 0.0, 0.0036, 1.1, -7.3)" gradientUnits="userSpaceOnUse" id="gradient3" r="819.2" spreadMethod="pad">
      <stop offset="0.0" stop-color="#4e0707"/>
      <stop offset="0.16470588235294117" stop-color="#b41010"/>
      <stop offset="0.5294117647058824" stop-color="#e23612"/>
      <stop offset="0.807843137254902" stop-color="#fd5037"/>
      <stop offset="1.0" stop-color="#fd5037" stop-opacity="0.0"/>
    </radialGradient>
    <radialGradient cx="0" cy="0" gradientTransform="matrix(0.0062, 0.0, 0.0, 0.0062, -0.05, -6.5)" gradientUnits="userSpaceOnUse" id="gradient4" r="819.2" spreadMethod="pad">
      <stop offset="0.0" stop-color="#4e0707"/>
      <stop offset="0.16470588235294117" stop-color="#b41010"/>
      <stop offset="0.5294117647058824" stop-color="#e23612"/>
      <stop offset="0.807843137254902" stop-color="#fd5037"/>
      <stop offset="1.0" stop-color="#fd5037" stop-opacity="0.0"/>
    </radialGradient>
    <radialGradient cx="0" cy="0" gradientTransform="matrix(0.0032, 0.0, 0.0, 0.0032, -0.15, -2.25)" gradientUnits="userSpaceOnUse" id="gradient5" r="819.2" spreadMethod="pad">
      <stop offset="0.0" stop-color="#4e0707"/>
      <stop offset="0.16470588235294117" stop-color="#b41010"/>
      <stop offset="0.5294117647058824" stop-color="#e23612"/>
      <stop offset="0.807843137254902" stop-color="#fd5037"/>
      <stop offset="1.0" stop-color="#fd5037" stop-opacity="0.0"/>
    </radialGradient>
    <radialGradient cx="0" cy="0" gradientTransform="matrix(0.003, 0.0, 0.0, 0.003, -2.9, -6.7)" gradientUnits="userSpaceOnUse" id="gradient6" r="819.2" spreadMethod="pad">
      <stop offset="0.0" stop-color="#4e0707"/>
      <stop offset="0.16470588235294117" stop-color="#b41010"/>
      <stop offset="0.5294117647058824" stop-color="#e23612"/>
      <stop offset="0.807843137254902" stop-color="#fd5037"/>
      <stop offset="1.0" stop-color="#fd5037" stop-opacity="0.0"/>
    </radialGradient>
  </defs>
</svg>
