<?xml version="1.0" encoding="UTF-8" standalone="no"?>
<svg xmlns:xlink="http://www.w3.org/1999/xlink" height="15.75px" width="26.1px" xmlns="http://www.w3.org/2000/svg">
  <g transform="matrix(1.0, 0.0, 0.0, 1.0, 12.9, 6.15)">
    <path d="M3.1 -4.15 Q5.35 -3.45 3.75 -1.8 3.55 -1.55 3.25 -1.55 L-2.55 -1.75 Q-3.75 -1.85 -4.0 -2.9 -4.2 -3.75 -3.4 -4.25 -2.65 -6.35 -0.4 -5.85 L-0.1 -5.85 1.2 -6.15 Q2.5 -5.7 3.0 -4.3 L3.1 -4.15" fill="url(#gradient0)" fill-rule="evenodd" stroke="none"/>
    <path d="M3.95 -2.15 L6.4 -1.0 Q9.1 0.65 10.8 2.95 12.5 5.25 12.15 6.9 11.75 8.5 9.65 8.5 7.45 8.5 4.75 6.9 2.0 5.25 0.3 2.95 L0.2 2.8 0.0 3.05 Q-1.7 5.35 -4.4 6.95 -7.15 8.6 -9.3 8.6 -11.45 8.6 -11.8 6.95 -12.2 5.35 -10.5 3.05 -8.8 0.7 -6.05 -0.9 L-3.75 -2.05 -3.15 -2.25 -2.8 -2.35 -1.2 -2.55 0.05 -2.35 1.5 -2.6 3.15 -2.4 3.75 -2.25 3.95 -2.15" fill="url(#gradient1)" fill-rule="evenodd" stroke="none"/>
    <path d="M3.95 -2.15 L6.4 -1.0 Q9.1 0.65 10.8 2.95 12.5 5.25 12.15 6.9 11.75 8.5 9.65 8.5 7.45 8.5 4.75 6.9 2.0 5.25 0.3 2.95 L0.2 2.8 0.0 3.05 Q-1.7 5.35 -4.4 6.95 -7.15 8.6 -9.3 8.6 -11.45 8.6 -11.8 6.95 -12.2 5.35 -10.5 3.05 -8.8 0.7 -6.05 -0.9 L-3.75 -2.05" fill="none" stroke="#000000" stroke-linecap="round" stroke-linejoin="round" stroke-width="2.0"/>
  </g>
  <defs>
    <radialGradient cx="0" cy="0" gradientTransform="matrix(0.0062, 0.0, 0.0, 0.0062, 0.2, -3.85)" gradientUnits="userSpaceOnUse" id="gradient0" r="819.2" spreadMethod="pad">
      <stop offset="0.0" stop-color="#4e0707"/>
      <stop offset="0.16470588235294117" stop-color="#b41010"/>
      <stop offset="0.5294117647058824" stop-color="#e23612"/>
      <stop offset="0.807843137254902" stop-color="#fd5037"/>
      <stop offset="1.0" stop-color="#fd5037" stop-opacity="0.0"/>
    </radialGradient>
    <radialGradient cx="0" cy="0" gradientTransform="matrix(0.0363, 0.0, 0.0, 0.0136, -6.8, 0.8)" gradientUnits="userSpaceOnUse" id="gradient1" r="819.2" spreadMethod="pad">
      <stop offset="0.0" stop-color="#0066ff"/>
      <stop offset="1.0" stop-color="#ffffff"/>
    </radialGradient>
  </defs>
</svg>
