<?xml version="1.0" encoding="UTF-8" standalone="no"?>
<svg xmlns:xlink="http://www.w3.org/1999/xlink" height="12.75px" width="26.1px" xmlns="http://www.w3.org/2000/svg">
  <g transform="matrix(1.0, 0.0, 0.0, 1.0, 12.9, 9.25)">
    <path d="M3.95 2.5 L6.4 1.3 Q9.1 -0.3 10.8 -2.65 12.5 -4.95 12.15 -6.55 11.75 -8.2 9.65 -8.2 7.45 -8.2 4.75 -6.55 2.0 -4.95 0.3 -2.65 L0.2 -2.45 0.0 -2.7 Q-1.7 -5.0 -4.4 -6.65 -7.15 -8.25 -9.3 -8.25 -11.45 -8.25 -11.8 -6.65 -12.2 -5.0 -10.5 -2.7 -8.8 -0.4 -6.05 1.25 L-3.75 2.35 -3.15 2.55 -2.8 2.65 -1.2 2.85 0.05 2.7 1.5 2.95 3.15 2.75 3.75 2.55 3.95 2.5" fill="url(#gradient0)" fill-rule="evenodd" stroke="none"/>
    <path d="M3.95 2.5 L6.4 1.3 Q9.1 -0.3 10.8 -2.65 12.5 -4.95 12.15 -6.55 11.75 -8.2 9.65 -8.2 7.45 -8.2 4.75 -6.55 2.0 -4.95 0.3 -2.65 L0.2 -2.45 0.0 -2.7 Q-1.7 -5.0 -4.4 -6.65 -7.15 -8.25 -9.3 -8.25 -11.45 -8.25 -11.8 -6.65 -12.2 -5.0 -10.5 -2.7 -8.8 -0.4 -6.05 1.25 L-3.75 2.35" fill="none" stroke="#000000" stroke-linecap="round" stroke-linejoin="round" stroke-width="2.0"/>
  </g>
  <defs>
    <radialGradient cx="0" cy="0" gradientTransform="matrix(0.0363, 0.0, 0.0, -0.0136, -6.8, -0.45)" gradientUnits="userSpaceOnUse" id="gradient0" r="819.2" spreadMethod="pad">
      <stop offset="0.0" stop-color="#0066ff"/>
      <stop offset="1.0" stop-color="#ffffff"/>
    </radialGradient>
  </defs>
</svg>
