<?xml version="1.0" encoding="UTF-8" standalone="no"?>
<svg xmlns:xlink="http://www.w3.org/1999/xlink" height="9.25px" width="11.7px" xmlns="http://www.w3.org/2000/svg">
  <g transform="matrix(1.0, 0.0, 0.0, 1.0, 5.7, 0.5)">
    <path d="M3.05 2.7 L3.95 3.75 Q5.15 5.85 3.05 6.75 L3.0 6.7 Q2.2 7.75 0.4 7.4 L-0.2 7.2 -0.6 6.75 -0.75 6.1 Q-1.4 7.4 -3.25 6.95 -5.05 6.45 -4.7 4.45 L-4.5 4.1 Q-3.8 3.6 -3.15 3.45 -3.05 2.95 -2.55 2.5 -2.6 2.0 -2.2 1.65 L-1.55 1.25 -1.6 1.1 -1.5 0.95 -1.45 0.85 -3.15 1.95 Q-4.45 1.95 -5.3 2.95 L-5.7 3.9 Q-5.8 4.85 -5.2 5.55 -5.5 7.2 -3.9 7.5 L-2.6 7.8 -1.05 8.05 2.05 8.05 2.6 7.9 3.5 8.55 4.05 8.75 Q6.8 8.3 5.65 5.75 5.2 4.75 4.4 4.05 L4.1 3.8 4.3 3.7 Q5.9 2.7 4.7 1.3 4.25 0.75 3.55 0.55 L1.8 0.6 1.95 0.95 2.15 1.1 2.2 1.25 2.25 1.4 2.2 1.55 2.15 1.7 1.95 1.85 2.95 2.6 3.05 2.7 M1.15 4.7 L1.15 4.65 -0.35 4.25 -0.45 4.35 -0.75 4.65 -0.7 4.8 -0.5 5.1 Q-0.1 4.65 1.05 4.8 L1.15 4.7" fill="url(#gradient0)" fill-rule="evenodd" stroke="none"/>
    <path d="M3.0 6.7 L3.05 6.75 Q5.15 5.85 3.95 3.75 L3.05 2.7 Q2.1 2.15 0.95 3.15 0.7 3.4 0.8 3.75 L1.15 4.65 1.15 4.7 3.15 4.6 Q3.55 4.9 3.5 5.4 3.35 6.25 3.0 6.7" fill="url(#gradient1)" fill-rule="evenodd" stroke="none"/>
    <path d="M3.05 2.7 L2.95 2.6 1.95 1.85 1.0 2.1 0.8 2.05 0.0 1.9 Q-1.25 2.1 -1.55 1.25 L-2.2 1.65 Q-2.6 2.0 -2.55 2.5 -3.05 2.95 -3.15 3.45 -3.3 3.9 -3.05 4.45 -2.75 5.15 -2.05 5.15 -1.3 5.1 -0.75 4.65 L-0.45 4.35 -0.35 4.25 1.15 4.65 0.8 3.75 Q0.7 3.4 0.95 3.15 2.1 2.15 3.05 2.7" fill="url(#gradient2)" fill-rule="evenodd" stroke="none"/>
    <path d="M-0.75 6.1 L-0.6 6.75 -0.2 7.2 0.4 7.4 Q2.2 7.75 3.0 6.7 3.35 6.25 3.5 5.4 3.55 4.9 3.15 4.6 L1.15 4.7 1.05 4.8 Q-0.1 4.65 -0.5 5.1 -0.8 5.45 -0.75 6.1" fill="url(#gradient3)" fill-rule="evenodd" stroke="none"/>
    <path d="M4.3 3.7 L4.1 3.8 4.4 4.05 4.3 3.7" fill="url(#gradient4)" fill-rule="evenodd" stroke="none"/>
    <path d="M1.95 1.85 L2.15 1.7 2.2 1.55 2.25 1.4 2.2 1.25 2.15 1.1 1.95 0.95 1.8 0.6 1.45 0.2 1.2 -0.25 -2.0 -0.05 -1.85 0.4 -1.5 0.7 -1.45 0.8 -1.45 0.85 -1.5 0.95 -1.6 1.1 -1.55 1.25 Q-1.25 2.1 0.0 1.9 L0.8 2.05 1.0 2.1 1.95 1.85" fill="url(#gradient5)" fill-rule="evenodd" stroke="none"/>
    <path d="M-3.15 3.45 Q-3.8 3.6 -4.5 4.1 L-4.7 4.45 Q-5.05 6.45 -3.25 6.95 -1.4 7.4 -0.75 6.1 -0.8 5.45 -0.5 5.1 L-0.7 4.8 -0.75 4.65 Q-1.3 5.1 -2.05 5.15 -2.75 5.15 -3.05 4.45 -3.3 3.9 -3.15 3.45" fill="url(#gradient6)" fill-rule="evenodd" stroke="none"/>
  </g>
  <defs>
    <radialGradient cx="0" cy="0" gradientTransform="matrix(0.0084, 0.0, 0.0, -0.0084, 0.15, 4.6)" gradientUnits="userSpaceOnUse" id="gradient0" r="819.2" spreadMethod="pad">
      <stop offset="0.0" stop-color="#4e0707"/>
      <stop offset="0.16470588235294117" stop-color="#b41010"/>
      <stop offset="0.5294117647058824" stop-color="#e23612"/>
      <stop offset="0.807843137254902" stop-color="#fd5037"/>
      <stop offset="1.0" stop-color="#fd5037" stop-opacity="0.0"/>
    </radialGradient>
    <radialGradient cx="0" cy="0" gradientTransform="matrix(0.0033, 0.0, 0.0, -0.0033, 2.6, 4.65)" gradientUnits="userSpaceOnUse" id="gradient1" r="819.2" spreadMethod="pad">
      <stop offset="0.0" stop-color="#4e0707"/>
      <stop offset="0.16470588235294117" stop-color="#b41010"/>
      <stop offset="0.5294117647058824" stop-color="#e23612"/>
      <stop offset="0.807843137254902" stop-color="#fd5037"/>
      <stop offset="1.0" stop-color="#fd5037" stop-opacity="0.0"/>
    </radialGradient>
    <radialGradient cx="0" cy="0" gradientTransform="matrix(0.0045, 0.0, 0.0, -0.0045, 0.0, 3.15)" gradientUnits="userSpaceOnUse" id="gradient2" r="819.2" spreadMethod="pad">
      <stop offset="0.0" stop-color="#4e0707"/>
      <stop offset="0.16470588235294117" stop-color="#b41010"/>
      <stop offset="0.5294117647058824" stop-color="#e23612"/>
      <stop offset="0.807843137254902" stop-color="#fd5037"/>
      <stop offset="1.0" stop-color="#fd5037" stop-opacity="0.0"/>
    </radialGradient>
    <radialGradient cx="0" cy="0" gradientTransform="matrix(0.0036, 0.0, 0.0, -0.0036, 1.35, 5.85)" gradientUnits="userSpaceOnUse" id="gradient3" r="819.2" spreadMethod="pad">
      <stop offset="0.0" stop-color="#4e0707"/>
      <stop offset="0.16470588235294117" stop-color="#b41010"/>
      <stop offset="0.5294117647058824" stop-color="#e23612"/>
      <stop offset="0.807843137254902" stop-color="#fd5037"/>
      <stop offset="1.0" stop-color="#fd5037" stop-opacity="0.0"/>
    </radialGradient>
    <radialGradient cx="0" cy="0" gradientTransform="matrix(0.0062, 0.0, 0.0, -0.0062, 0.2, 5.05)" gradientUnits="userSpaceOnUse" id="gradient4" r="819.2" spreadMethod="pad">
      <stop offset="0.0" stop-color="#4e0707"/>
      <stop offset="0.16470588235294117" stop-color="#b41010"/>
      <stop offset="0.5294117647058824" stop-color="#e23612"/>
      <stop offset="0.807843137254902" stop-color="#fd5037"/>
      <stop offset="1.0" stop-color="#fd5037" stop-opacity="0.0"/>
    </radialGradient>
    <radialGradient cx="0" cy="0" gradientTransform="matrix(0.0032, 0.0, 0.0, -0.0032, 0.1, 0.8)" gradientUnits="userSpaceOnUse" id="gradient5" r="819.2" spreadMethod="pad">
      <stop offset="0.0" stop-color="#4e0707"/>
      <stop offset="0.16470588235294117" stop-color="#b41010"/>
      <stop offset="0.5294117647058824" stop-color="#e23612"/>
      <stop offset="0.807843137254902" stop-color="#fd5037"/>
      <stop offset="1.0" stop-color="#fd5037" stop-opacity="0.0"/>
    </radialGradient>
    <radialGradient cx="0" cy="0" gradientTransform="matrix(0.003, 0.0, 0.0, -0.003, -2.65, 5.25)" gradientUnits="userSpaceOnUse" id="gradient6" r="819.2" spreadMethod="pad">
      <stop offset="0.0" stop-color="#4e0707"/>
      <stop offset="0.16470588235294117" stop-color="#b41010"/>
      <stop offset="0.5294117647058824" stop-color="#e23612"/>
      <stop offset="0.807843137254902" stop-color="#fd5037"/>
      <stop offset="1.0" stop-color="#fd5037" stop-opacity="0.0"/>
    </radialGradient>
  </defs>
</svg>
