<?xml version="1.0" encoding="UTF-8" standalone="no"?>
<svg xmlns:xlink="http://www.w3.org/1999/xlink" height="13.5px" width="34.0px" xmlns="http://www.w3.org/2000/svg">
  <g transform="matrix(1.0, 0.0, 0.0, 1.0, 16.5, 3.3)">
    <path d="M11.8 -0.65 Q16.5 1.05 16.5 3.45 16.5 5.85 11.8 7.5 7.15 9.2 0.5 9.2 -6.15 9.2 -10.85 7.5 -15.5 5.85 -15.5 3.45 -15.5 1.05 -10.85 -0.65 -6.15 -2.3 0.5 -2.3 7.15 -2.3 11.8 -0.65" fill="url(#gradient0)" fill-rule="evenodd" stroke="none"/>
    <path d="M11.8 -0.65 Q16.5 1.05 16.5 3.45 16.5 5.85 11.8 7.5 7.15 9.2 0.5 9.2 -6.15 9.2 -10.85 7.5 -15.5 5.85 -15.5 3.45 -15.5 1.05 -10.85 -0.65 -6.15 -2.3 0.5 -2.3 7.15 -2.3 11.8 -0.65 Z" fill="none" stroke="#000000" stroke-linecap="round" stroke-linejoin="round" stroke-width="2.0"/>
    <path d="M-1.45 1.45 L-3.15 2.55 Q-4.45 2.55 -5.3 3.55 L-5.7 4.5 Q-5.8 5.45 -5.2 6.15 -5.5 7.8 -3.9 8.1 L-2.6 8.4 -1.05 8.65 2.05 8.65 2.6 8.5 3.5 9.15 4.05 9.35 Q6.8 8.9 5.65 6.35 5.2 5.35 4.4 4.65 L4.1 4.4 4.3 4.3 Q5.9 3.3 4.7 1.9 4.25 1.35 3.55 1.15 L1.8 1.2 1.95 1.55 2.15 1.7 2.2 1.85 2.25 2.0 2.2 2.15 2.15 2.3 1.95 2.45 2.95 3.2 3.05 3.3 3.95 4.35 Q5.15 6.45 3.05 7.35 L3.0 7.3 Q2.2 8.35 0.4 8.0 L-0.2 7.8 -0.6 7.35 -0.75 6.7 Q-1.4 8.0 -3.25 7.55 -5.05 7.05 -4.7 5.05 L-4.5 4.7 Q-3.8 4.2 -3.15 4.05 -3.05 3.55 -2.55 3.1 -2.6 2.6 -2.2 2.25 L-1.55 1.85 -1.6 1.7 -1.5 1.55 -1.45 1.45 M-0.5 5.7 Q-0.1 5.25 1.05 5.4 L1.15 5.3 1.15 5.25 -0.35 4.85 -0.45 4.95 -0.75 5.25 -0.7 5.4 -0.5 5.7" fill="url(#gradient1)" fill-rule="evenodd" stroke="none"/>
    <path d="M3.0 7.3 L3.05 7.35 Q5.15 6.45 3.95 4.35 L3.05 3.3 Q2.1 2.75 0.95 3.75 0.7 4.0 0.8 4.35 L1.15 5.25 1.15 5.3 3.15 5.2 Q3.55 5.5 3.5 6.0 3.35 6.85 3.0 7.3" fill="url(#gradient2)" fill-rule="evenodd" stroke="none"/>
    <path d="M-1.55 1.85 L-2.2 2.25 Q-2.6 2.6 -2.55 3.1 -3.05 3.55 -3.15 4.05 -3.3 4.5 -3.05 5.05 -2.75 5.75 -2.05 5.75 -1.3 5.7 -0.75 5.25 L-0.45 4.95 -0.35 4.85 1.15 5.25 0.8 4.35 Q0.7 4.0 0.95 3.75 2.1 2.75 3.05 3.3 L2.95 3.2 1.95 2.45 1.0 2.7 0.8 2.65 0.0 2.5 Q-1.25 2.7 -1.55 1.85" fill="url(#gradient3)" fill-rule="evenodd" stroke="none"/>
    <path d="M-0.75 6.7 L-0.6 7.35 -0.2 7.8 0.4 8.0 Q2.2 8.35 3.0 7.3 3.35 6.85 3.5 6.0 3.55 5.5 3.15 5.2 L1.15 5.3 1.05 5.4 Q-0.1 5.25 -0.5 5.7 -0.8 6.05 -0.75 6.7" fill="url(#gradient4)" fill-rule="evenodd" stroke="none"/>
    <path d="M4.3 4.3 L4.1 4.4 4.4 4.65 4.3 4.3" fill="url(#gradient5)" fill-rule="evenodd" stroke="none"/>
    <path d="M-1.45 1.45 L-1.5 1.55 -1.6 1.7 -1.55 1.85 Q-1.25 2.7 0.0 2.5 L0.8 2.65 1.0 2.7 1.95 2.45 2.15 2.3 2.2 2.15 2.25 2.0 2.2 1.85 2.15 1.7 1.95 1.55 1.8 1.2 1.45 0.8 1.2 0.35 -2.0 0.55 -1.85 1.0 -1.5 1.3 -1.45 1.4 -1.45 1.45" fill="url(#gradient6)" fill-rule="evenodd" stroke="none"/>
    <path d="M-3.15 4.05 Q-3.8 4.2 -4.5 4.7 L-4.7 5.05 Q-5.05 7.05 -3.25 7.55 -1.4 8.0 -0.75 6.7 -0.8 6.05 -0.5 5.7 L-0.7 5.4 -0.75 5.25 Q-1.3 5.7 -2.05 5.75 -2.75 5.75 -3.05 5.05 -3.3 4.5 -3.15 4.05" fill="url(#gradient7)" fill-rule="evenodd" stroke="none"/>
  </g>
  <defs>
    <radialGradient cx="0" cy="0" gradientTransform="matrix(0.0257, 0.0, 0.0, 0.0196, -6.0, 2.95)" gradientUnits="userSpaceOnUse" id="gradient0" r="819.2" spreadMethod="pad">
      <stop offset="0.3843137254901961" stop-color="#0066ff"/>
      <stop offset="1.0" stop-color="#ffffff"/>
    </radialGradient>
    <radialGradient cx="0" cy="0" gradientTransform="matrix(0.0084, 0.0, 0.0, -0.0084, 0.15, 5.2)" gradientUnits="userSpaceOnUse" id="gradient1" r="819.2" spreadMethod="pad">
      <stop offset="0.0" stop-color="#4e0707"/>
      <stop offset="0.16470588235294117" stop-color="#b41010"/>
      <stop offset="0.5294117647058824" stop-color="#e23612"/>
      <stop offset="0.807843137254902" stop-color="#fd5037"/>
      <stop offset="1.0" stop-color="#fd5037" stop-opacity="0.0"/>
    </radialGradient>
    <radialGradient cx="0" cy="0" gradientTransform="matrix(0.0033, 0.0, 0.0, -0.0033, 2.6, 5.25)" gradientUnits="userSpaceOnUse" id="gradient2" r="819.2" spreadMethod="pad">
      <stop offset="0.0" stop-color="#4e0707"/>
      <stop offset="0.16470588235294117" stop-color="#b41010"/>
      <stop offset="0.5294117647058824" stop-color="#e23612"/>
      <stop offset="0.807843137254902" stop-color="#fd5037"/>
      <stop offset="1.0" stop-color="#fd5037" stop-opacity="0.0"/>
    </radialGradient>
    <radialGradient cx="0" cy="0" gradientTransform="matrix(0.0045, 0.0, 0.0, -0.0045, 0.0, 3.75)" gradientUnits="userSpaceOnUse" id="gradient3" r="819.2" spreadMethod="pad">
      <stop offset="0.0" stop-color="#4e0707"/>
      <stop offset="0.16470588235294117" stop-color="#b41010"/>
      <stop offset="0.5294117647058824" stop-color="#e23612"/>
      <stop offset="0.807843137254902" stop-color="#fd5037"/>
      <stop offset="1.0" stop-color="#fd5037" stop-opacity="0.0"/>
    </radialGradient>
    <radialGradient cx="0" cy="0" gradientTransform="matrix(0.0036, 0.0, 0.0, -0.0036, 1.35, 6.45)" gradientUnits="userSpaceOnUse" id="gradient4" r="819.2" spreadMethod="pad">
      <stop offset="0.0" stop-color="#4e0707"/>
      <stop offset="0.16470588235294117" stop-color="#b41010"/>
      <stop offset="0.5294117647058824" stop-color="#e23612"/>
      <stop offset="0.807843137254902" stop-color="#fd5037"/>
      <stop offset="1.0" stop-color="#fd5037" stop-opacity="0.0"/>
    </radialGradient>
    <radialGradient cx="0" cy="0" gradientTransform="matrix(0.0062, 0.0, 0.0, -0.0062, 0.2, 5.65)" gradientUnits="userSpaceOnUse" id="gradient5" r="819.2" spreadMethod="pad">
      <stop offset="0.0" stop-color="#4e0707"/>
      <stop offset="0.16470588235294117" stop-color="#b41010"/>
      <stop offset="0.5294117647058824" stop-color="#e23612"/>
      <stop offset="0.807843137254902" stop-color="#fd5037"/>
      <stop offset="1.0" stop-color="#fd5037" stop-opacity="0.0"/>
    </radialGradient>
    <radialGradient cx="0" cy="0" gradientTransform="matrix(0.0032, 0.0, 0.0, -0.0032, 0.1, 1.4)" gradientUnits="userSpaceOnUse" id="gradient6" r="819.2" spreadMethod="pad">
      <stop offset="0.0" stop-color="#4e0707"/>
      <stop offset="0.16470588235294117" stop-color="#b41010"/>
      <stop offset="0.5294117647058824" stop-color="#e23612"/>
      <stop offset="0.807843137254902" stop-color="#fd5037"/>
      <stop offset="1.0" stop-color="#fd5037" stop-opacity="0.0"/>
    </radialGradient>
    <radialGradient cx="0" cy="0" gradientTransform="matrix(0.003, 0.0, 0.0, -0.003, -2.65, 5.85)" gradientUnits="userSpaceOnUse" id="gradient7" r="819.2" spreadMethod="pad">
      <stop offset="0.0" stop-color="#4e0707"/>
      <stop offset="0.16470588235294117" stop-color="#b41010"/>
      <stop offset="0.5294117647058824" stop-color="#e23612"/>
      <stop offset="0.807843137254902" stop-color="#fd5037"/>
      <stop offset="1.0" stop-color="#fd5037" stop-opacity="0.0"/>
    </radialGradient>
  </defs>
</svg>
