<?xml version="1.0" encoding="UTF-8" standalone="no"?>
<svg xmlns:xlink="http://www.w3.org/1999/xlink" height="13.5px" width="34.0px" xmlns="http://www.w3.org/2000/svg">
  <g transform="matrix(1.0, 0.0, 0.0, 1.0, 16.5, 3.1)">
    <path d="M11.8 -0.45 Q16.5 1.25 16.5 3.65 16.5 6.05 11.8 7.7 7.15 9.4 0.5 9.4 -6.15 9.4 -10.85 7.7 -15.5 6.05 -15.5 3.65 -15.5 1.25 -10.85 -0.45 -6.15 -2.1 0.5 -2.1 7.15 -2.1 11.8 -0.45 M3.2 5.15 Q3.35 4.25 2.65 3.8 1.4 2.9 -0.2 3.35 -1.2 3.6 -2.2 4.25 -3.0 4.8 -2.5 5.65 -1.7 7.0 0.2 6.6 2.7 7.55 3.2 5.15" fill="url(#gradient0)" fill-rule="evenodd" stroke="none"/>
    <path d="M11.8 -0.45 Q16.5 1.25 16.5 3.65 16.5 6.05 11.8 7.7 7.15 9.4 0.5 9.4 -6.15 9.4 -10.85 7.7 -15.5 6.05 -15.5 3.65 -15.5 1.25 -10.85 -0.45 -6.15 -2.1 0.5 -2.1 7.15 -2.1 11.8 -0.45 Z" fill="none" stroke="#000000" stroke-linecap="round" stroke-linejoin="round" stroke-width="2.0"/>
  </g>
  <defs>
    <radialGradient cx="0" cy="0" gradientTransform="matrix(0.0257, 0.0, 0.0, 0.0196, -6.0, 3.15)" gradientUnits="userSpaceOnUse" id="gradient0" r="819.2" spreadMethod="pad">
      <stop offset="0.3843137254901961" stop-color="#0066ff"/>
      <stop offset="1.0" stop-color="#ffffff"/>
    </radialGradient>
  </defs>
</svg>
