<?xml version="1.0" encoding="UTF-8" standalone="no"?>
<svg xmlns:xlink="http://www.w3.org/1999/xlink" height="9.9px" width="11.6px" xmlns="http://www.w3.org/2000/svg">
  <g transform="matrix(1.0, 0.0, 0.0, 1.0, 5.2, 0.9)">
    <path d="M5.1 7.6 L4.7 7.4 4.8 6.95 4.95 6.2 4.95 6.05 4.9 5.9 4.8 5.75 4.65 5.6 4.7 5.45 4.75 4.85 4.75 4.75 6.1 4.85 6.4 4.4 6.35 4.3 5.6 3.7 5.55 3.55 5.45 3.25 5.35 3.1 4.25 2.9 3.95 2.85 3.75 2.6 3.15 1.8 3.15 1.65 3.45 1.15 3.7 1.0 4.0 0.75 5.05 0.5 5.3 0.3 5.3 0.15 5.25 -0.15 5.2 -0.3 Q3.75 -1.1 2.65 0.0 L2.15 0.35 2.15 0.5 2.1 0.95 2.1 1.05 2.1 1.1 1.55 1.05 Q0.55 0.5 -0.65 0.3 L-1.0 0.2 -0.95 0.05 Q-0.9 -0.35 -1.15 -0.7 L-1.5 -0.85 Q-2.1 -1.0 -2.5 -0.6 L-2.55 -0.45 -2.55 -0.15 -2.55 0.0 -2.45 0.15 -2.0 0.6 -3.8 1.6 -3.75 1.7 -3.6 2.05 -3.55 2.1 -4.2 2.6 -4.2 2.75 -3.85 3.2 -3.8 3.5 -3.8 4.4 -3.8 4.55 -4.95 5.15 -5.2 5.4 -5.2 5.55 -5.2 6.0 -5.2 6.15 -5.05 6.25 Q-4.7 6.45 -4.5 6.75 L-4.45 6.9 -4.45 7.05 -4.3 7.2 -4.0 7.5 -4.0 7.65 -4.0 8.6 -3.8 8.75 -3.65 8.85 -3.5 8.85 -3.45 8.9 Q-2.6 9.2 -2.05 8.65 L-1.95 8.5 -1.95 8.35 -1.95 8.25 Q-0.45 8.8 0.45 7.8 0.95 8.7 1.95 8.6 L2.5 8.15 4.8 8.6 Q5.15 8.6 5.3 8.3 L5.3 8.15 5.25 7.85 5.2 7.65 5.1 7.6 M3.1 6.05 L3.1 6.15 2.95 6.3 2.75 6.2 2.7 6.2 Q2.05 6.05 1.55 6.45 L1.4 6.6 Q0.55 6.15 -0.05 6.6 L-0.4 6.95 -0.5 7.1 -0.8 7.25 -1.15 7.15 Q-1.75 6.95 -2.0 6.35 L-2.05 6.2 -2.3 6.05 -2.15 6.35 -2.2 6.5 Q-2.35 7.05 -2.85 7.2 L-3.15 7.1 -3.3 6.95 -3.35 6.8 -3.4 6.5 -3.3 6.05 -2.9 5.8 -2.55 5.45 -2.55 5.4 -2.6 4.45 -2.7 3.9 -2.75 3.35 Q-1.8 3.9 -1.15 3.15 L-1.15 2.55 -1.15 2.15 -0.75 2.25 Q-0.1 2.35 0.3 1.8 L0.45 1.85 1.8 2.25 1.85 2.3 2.9 3.1 2.95 3.7 2.95 3.9 2.95 4.0 3.15 4.2 3.35 4.45 3.5 4.65 3.5 4.7 3.55 4.95 3.55 5.1 3.15 5.85 3.1 6.05" fill="url(#gradient0)" fill-rule="evenodd" stroke="none"/>
    <path d="M2.75 6.2 L2.8 6.2 3.1 6.05 3.15 5.85 3.55 5.1 3.55 4.95 3.5 4.7 3.45 4.65 3.3 4.45 3.15 4.3 3.15 4.2 2.95 4.0 2.95 3.9 1.95 4.15 1.85 4.1 1.85 4.25 2.0 4.45 2.1 4.6 2.3 5.05 2.35 5.05 2.65 5.05 2.85 5.1 2.95 5.15 3.05 5.25 3.1 5.4 3.15 5.7 3.15 5.85 3.0 6.0 2.7 6.2 2.75 6.2 M1.8 2.25 L0.45 1.85 0.5 2.95 1.05 2.9 1.2 3.05 1.25 3.1 1.25 3.05 1.45 2.9 1.45 2.75 1.45 2.6 1.5 2.45 1.8 2.25 M-0.75 2.25 L-1.15 2.15 -1.15 2.55 -1.15 3.15 -1.1 3.2 -1.1 3.15 -0.6 3.05 -0.75 2.25 M-2.55 5.4 L-2.55 5.45 -2.9 5.8 -2.85 5.8 -2.5 5.8 -2.15 5.5 -2.45 5.45 -2.45 5.4 -2.55 5.4 M-0.4 6.95 L-0.05 6.6 -0.1 6.6 -0.15 6.3 -0.05 5.75 -0.7 5.7 -0.85 5.55 -1.1 5.45 -1.5 5.2 -1.65 5.35 Q-1.35 5.4 -0.95 5.6 L-0.85 5.9 -0.8 6.95 -0.4 6.95 M1.1 5.9 L1.1 5.85 1.05 5.85 1.1 5.9" fill="url(#gradient1)" fill-rule="evenodd" stroke="none"/>
    <path d="M1.55 6.45 Q2.05 6.05 2.7 6.2 L3.0 6.0 3.15 5.85 3.15 5.7 3.1 5.4 3.05 5.25 2.95 5.15 2.85 5.1 2.65 5.05 2.35 5.05 Q1.65 5.15 1.1 5.5 L1.05 5.65 1.1 5.85 1.1 5.9 1.1 6.1 1.15 6.25 1.25 6.35 1.55 6.45" fill="url(#gradient2)" fill-rule="evenodd" stroke="none"/>
    <path d="M-0.05 6.6 Q0.55 6.15 1.4 6.6 L1.55 6.45 1.25 6.35 1.15 6.25 1.1 6.1 1.1 5.9 1.05 5.85 Q0.7 5.1 -0.05 5.7 L-0.05 5.75 -0.15 6.3 -0.1 6.6 -0.05 6.6" fill="url(#gradient3)" fill-rule="evenodd" stroke="none"/>
    <path d="M2.95 3.9 L2.95 3.7 2.9 3.1 1.85 2.3 1.8 2.25 1.5 2.45 1.45 2.6 1.45 2.75 1.45 2.9 1.25 3.05 1.25 3.1 1.05 3.35 Q1.0 3.75 1.35 3.9 L1.85 4.1 1.95 4.15 2.95 3.9" fill="url(#gradient4)" fill-rule="evenodd" stroke="none"/>
    <path d="M0.45 1.85 L0.3 1.8 Q-0.1 2.35 -0.75 2.25 L-0.6 3.05 -0.35 3.6 -0.2 3.7 0.0 3.75 0.35 3.5 0.5 3.35 0.5 2.95 0.45 1.85" fill="url(#gradient5)" fill-rule="evenodd" stroke="none"/>
    <path d="M-2.3 6.05 L-2.05 6.2 -2.0 6.35 Q-1.75 6.95 -1.15 7.15 L-0.8 7.25 -0.8 6.95 -0.85 5.9 -0.95 5.6 Q-1.35 5.4 -1.65 5.35 L-2.15 5.5 -2.5 5.8 -2.3 6.05" fill="url(#gradient6)" fill-rule="evenodd" stroke="none"/>
    <path d="M-2.9 5.8 L-3.3 6.05 -3.4 6.5 -3.35 6.8 -3.3 6.95 -3.15 7.1 -2.85 7.2 Q-2.35 7.05 -2.2 6.5 L-2.15 6.35 -2.3 6.05 -2.5 5.8 -2.85 5.8 -2.9 5.8" fill="url(#gradient7)" fill-rule="evenodd" stroke="none"/>
    <path d="M-2.6 4.45 L-2.55 5.4 -2.45 5.4 -2.45 5.45 -2.15 5.5 -1.65 5.35 -1.5 5.2 -1.35 5.0 -1.35 4.9 -1.4 4.75 -1.5 4.6 -1.65 4.45 Q-2.25 4.25 -2.6 4.45" fill="url(#gradient8)" fill-rule="evenodd" stroke="none"/>
    <path d="M-1.15 3.15 Q-1.8 3.9 -2.75 3.35 L-2.7 3.9 -2.6 4.45 Q-2.25 4.25 -1.65 4.45 L-1.5 4.6 -1.35 4.35 -1.35 4.2 -0.95 3.85 -0.8 3.6 -0.85 3.45 -1.1 3.2 -1.15 3.15" fill="url(#gradient9)" fill-rule="evenodd" stroke="none"/>
  </g>
  <defs>
    <radialGradient cx="0" cy="0" gradientTransform="matrix(0.0082, 0.0, 0.0, -0.0082, 0.6, 4.05)" gradientUnits="userSpaceOnUse" id="gradient0" r="819.2" spreadMethod="pad">
      <stop offset="0.0" stop-color="#4e0707"/>
      <stop offset="0.16470588235294117" stop-color="#b41010"/>
      <stop offset="0.5294117647058824" stop-color="#e23612"/>
      <stop offset="0.807843137254902" stop-color="#fd5037"/>
      <stop offset="1.0" stop-color="#fd5037" stop-opacity="0.0"/>
    </radialGradient>
    <radialGradient cx="0" cy="0" gradientTransform="matrix(0.0046, 0.0, 0.0, -0.0046, 0.3, 4.35)" gradientUnits="userSpaceOnUse" id="gradient1" r="819.2" spreadMethod="pad">
      <stop offset="0.0" stop-color="#4e0707"/>
      <stop offset="0.16470588235294117" stop-color="#b41010"/>
      <stop offset="0.5294117647058824" stop-color="#e23612"/>
      <stop offset="0.807843137254902" stop-color="#fd5037"/>
      <stop offset="1.0" stop-color="#fd5037" stop-opacity="0.0"/>
    </radialGradient>
    <radialGradient cx="0" cy="0" gradientTransform="matrix(0.0018, 0.0, 0.0, -0.0018, 2.1, 5.75)" gradientUnits="userSpaceOnUse" id="gradient2" r="819.2" spreadMethod="pad">
      <stop offset="0.0" stop-color="#4e0707"/>
      <stop offset="0.16470588235294117" stop-color="#b41010"/>
      <stop offset="0.5294117647058824" stop-color="#e23612"/>
      <stop offset="0.807843137254902" stop-color="#fd5037"/>
      <stop offset="1.0" stop-color="#fd5037" stop-opacity="0.0"/>
    </radialGradient>
    <radialGradient cx="0" cy="0" gradientTransform="matrix(0.0015, 0.0, 0.0, -0.0015, 0.8, 6.5)" gradientUnits="userSpaceOnUse" id="gradient3" r="819.2" spreadMethod="pad">
      <stop offset="0.0" stop-color="#4e0707"/>
      <stop offset="0.16470588235294117" stop-color="#b41010"/>
      <stop offset="0.5294117647058824" stop-color="#e23612"/>
      <stop offset="0.807843137254902" stop-color="#fd5037"/>
      <stop offset="1.0" stop-color="#fd5037" stop-opacity="0.0"/>
    </radialGradient>
    <radialGradient cx="0" cy="0" gradientTransform="matrix(0.002, 0.0, 0.0, -0.002, 2.2, 3.15)" gradientUnits="userSpaceOnUse" id="gradient4" r="819.2" spreadMethod="pad">
      <stop offset="0.0" stop-color="#4e0707"/>
      <stop offset="0.16470588235294117" stop-color="#b41010"/>
      <stop offset="0.5294117647058824" stop-color="#e23612"/>
      <stop offset="0.807843137254902" stop-color="#fd5037"/>
      <stop offset="1.0" stop-color="#fd5037" stop-opacity="0.0"/>
    </radialGradient>
    <radialGradient cx="0" cy="0" gradientTransform="matrix(0.0017, 0.0, 0.0, -0.0017, -0.15, 2.55)" gradientUnits="userSpaceOnUse" id="gradient5" r="819.2" spreadMethod="pad">
      <stop offset="0.0" stop-color="#4e0707"/>
      <stop offset="0.16470588235294117" stop-color="#b41010"/>
      <stop offset="0.5294117647058824" stop-color="#e23612"/>
      <stop offset="0.807843137254902" stop-color="#fd5037"/>
      <stop offset="1.0" stop-color="#fd5037" stop-opacity="0.0"/>
    </radialGradient>
    <radialGradient cx="0" cy="0" gradientTransform="matrix(0.0017, 0.0, 0.0, -0.0017, -1.65, 6.6)" gradientUnits="userSpaceOnUse" id="gradient6" r="819.2" spreadMethod="pad">
      <stop offset="0.0" stop-color="#4e0707"/>
      <stop offset="0.16470588235294117" stop-color="#b41010"/>
      <stop offset="0.5294117647058824" stop-color="#e23612"/>
      <stop offset="0.807843137254902" stop-color="#fd5037"/>
      <stop offset="1.0" stop-color="#fd5037" stop-opacity="0.0"/>
    </radialGradient>
    <radialGradient cx="0" cy="0" gradientTransform="matrix(0.0012, 0.0, 0.0, -0.0012, -2.75, 6.5)" gradientUnits="userSpaceOnUse" id="gradient7" r="819.2" spreadMethod="pad">
      <stop offset="0.0" stop-color="#4e0707"/>
      <stop offset="0.16470588235294117" stop-color="#b41010"/>
      <stop offset="0.5294117647058824" stop-color="#e23612"/>
      <stop offset="0.807843137254902" stop-color="#fd5037"/>
      <stop offset="1.0" stop-color="#fd5037" stop-opacity="0.0"/>
    </radialGradient>
    <radialGradient cx="0" cy="0" gradientTransform="matrix(0.0017, 0.0, 0.0, -0.0017, -2.15, 4.95)" gradientUnits="userSpaceOnUse" id="gradient8" r="819.2" spreadMethod="pad">
      <stop offset="0.0" stop-color="#4e0707"/>
      <stop offset="0.16470588235294117" stop-color="#b41010"/>
      <stop offset="0.5294117647058824" stop-color="#e23612"/>
      <stop offset="0.807843137254902" stop-color="#fd5037"/>
      <stop offset="1.0" stop-color="#fd5037" stop-opacity="0.0"/>
    </radialGradient>
    <radialGradient cx="0" cy="0" gradientTransform="matrix(0.0021, 0.0, 0.0, -0.0021, -2.1, 3.95)" gradientUnits="userSpaceOnUse" id="gradient9" r="819.2" spreadMethod="pad">
      <stop offset="0.0" stop-color="#4e0707"/>
      <stop offset="0.16470588235294117" stop-color="#b41010"/>
      <stop offset="0.5294117647058824" stop-color="#e23612"/>
      <stop offset="0.807843137254902" stop-color="#fd5037"/>
      <stop offset="1.0" stop-color="#fd5037" stop-opacity="0.0"/>
    </radialGradient>
  </defs>
</svg>
