<?xml version="1.0" encoding="UTF-8" standalone="no"?>
<svg xmlns:xlink="http://www.w3.org/1999/xlink" height="27.05px" width="34.0px" xmlns="http://www.w3.org/2000/svg">
  <g transform="matrix(1.0, 0.0, 0.0, 1.0, 16.5, 2.9)">
    <path d="M5.6 9.9 L5.95 10.3 Q7.9 12.45 7.9 15.4 7.9 18.6 5.6 20.85 L5.25 21.2 Q3.1 23.15 0.15 23.15 -2.85 23.15 -5.05 21.1 L-5.35 20.85 Q-7.6 18.6 -7.6 15.4 -7.6 12.55 -5.75 10.4 L-5.35 9.9 Q-3.05 7.65 0.15 7.65 3.35 7.65 5.6 9.9" fill="url(#gradient0)" fill-rule="evenodd" stroke="none"/>
    <path d="M5.6 9.9 L5.95 10.3 Q7.9 12.45 7.9 15.4 7.9 18.6 5.6 20.85 L5.25 21.2 Q3.1 23.15 0.15 23.15 -2.85 23.15 -5.05 21.1 L-5.35 20.85 Q-7.6 18.6 -7.6 15.4 -7.6 12.55 -5.75 10.4 L-5.35 9.9 Q-3.05 7.65 0.15 7.65 3.35 7.65 5.6 9.9 Z" fill="none" stroke="#000000" stroke-linecap="round" stroke-linejoin="round" stroke-width="2.0"/>
    <path d="M11.8 -0.25 Q16.5 1.45 16.5 3.85 16.5 6.25 11.8 7.9 7.15 9.6 0.5 9.6 -6.15 9.6 -10.85 7.9 -15.5 6.25 -15.5 3.85 -15.5 1.45 -10.85 -0.25 -6.15 -1.9 0.5 -1.9 7.15 -1.9 11.8 -0.25 M3.6 5.4 Q3.6 3.25 1.0 2.95 L0.5 3.0 Q-2.35 2.75 -2.35 5.25 -2.35 5.7 -2.0 5.9 L3.1 6.1 Q3.6 5.9 3.6 5.4" fill="url(#gradient1)" fill-rule="evenodd" stroke="none"/>
    <path d="M11.8 -0.25 Q16.5 1.45 16.5 3.85 16.5 6.25 11.8 7.9 7.15 9.6 0.5 9.6 -6.15 9.6 -10.85 7.9 -15.5 6.25 -15.5 3.85 -15.5 1.45 -10.85 -0.25 -6.15 -1.9 0.5 -1.9 7.15 -1.9 11.8 -0.25 Z" fill="none" stroke="#000000" stroke-linecap="round" stroke-linejoin="round" stroke-width="2.0"/>
  </g>
  <defs>
    <linearGradient gradientTransform="matrix(0.0095, 0.0, 0.0, 0.0095, 0.15, 15.4)" gradientUnits="userSpaceOnUse" id="gradient0" spreadMethod="pad" x1="-819.2" x2="819.2">
      <stop offset="0.0" stop-color="#ffcc99"/>
      <stop offset="0.6901960784313725" stop-color="#ffe6cf"/>
      <stop offset="0.7411764705882353" stop-color="#ffe6cf"/>
      <stop offset="0.792156862745098" stop-color="#ffe6cf"/>
      <stop offset="0.8352941176470589" stop-color="#ffe7d0"/>
      <stop offset="1.0" stop-color="#ffffff"/>
    </linearGradient>
    <radialGradient cx="0" cy="0" gradientTransform="matrix(0.0257, 0.0, 0.0, 0.0196, -6.0, 3.35)" gradientUnits="userSpaceOnUse" id="gradient1" r="819.2" spreadMethod="pad">
      <stop offset="0.3843137254901961" stop-color="#0066ff"/>
      <stop offset="1.0" stop-color="#ffffff"/>
    </radialGradient>
  </defs>
</svg>
