<?xml version="1.0" encoding="UTF-8" standalone="no"?>
<svg xmlns:xlink="http://www.w3.org/1999/xlink" height="23.5px" width="26.1px" xmlns="http://www.w3.org/2000/svg">
  <g transform="matrix(1.0, 0.0, 0.0, 1.0, 12.7, 22.55)">
    <path d="M-3.55 -0.3 L-2.95 0.1 -2.6 0.3 -1.0 0.7 0.25 0.35 Q0.85 0.85 1.7 0.85 2.5 0.85 3.35 0.45 L3.95 0.1 4.15 -0.05 Q5.3 -0.85 6.6 -2.4 9.3 -5.65 11.0 -10.3 12.7 -14.9 12.35 -18.15 11.95 -21.4 9.85 -21.4 7.65 -21.4 4.95 -18.15 2.2 -14.9 0.5 -10.3 L0.4 -9.95 0.2 -10.45 Q-1.5 -15.05 -4.2 -18.3 -6.95 -21.55 -9.1 -21.55 -11.25 -21.55 -11.6 -18.3 -12.0 -15.05 -10.3 -10.45 -8.6 -5.8 -5.85 -2.55 -4.65 -1.1 -3.55 -0.3" fill="url(#gradient0)" fill-rule="evenodd" stroke="none"/>
    <path d="M4.15 -0.05 Q5.3 -0.85 6.6 -2.4 9.3 -5.65 11.0 -10.3 12.7 -14.9 12.35 -18.15 11.95 -21.4 9.85 -21.4 7.65 -21.4 4.95 -18.15 2.2 -14.9 0.5 -10.3 L0.4 -9.95 0.2 -10.45 Q-1.5 -15.05 -4.2 -18.3 -6.95 -21.55 -9.1 -21.55 -11.25 -21.55 -11.6 -18.3 -12.0 -15.05 -10.3 -10.45 -8.6 -5.8 -5.85 -2.55 -4.65 -1.1 -3.55 -0.3" fill="none" stroke="#000000" stroke-linecap="round" stroke-linejoin="round" stroke-width="2.0"/>
  </g>
  <defs>
    <radialGradient cx="0" cy="0" gradientTransform="matrix(0.0363, 0.0, 0.0, -0.0271, -6.6, -5.95)" gradientUnits="userSpaceOnUse" id="gradient0" r="819.2" spreadMethod="pad">
      <stop offset="0.0" stop-color="#0066ff"/>
      <stop offset="1.0" stop-color="#ffffff"/>
    </radialGradient>
  </defs>
</svg>
