<?xml version="1.0" encoding="UTF-8" standalone="no"?>
<svg xmlns:xlink="http://www.w3.org/1999/xlink" height="9.25px" width="11.7px" xmlns="http://www.w3.org/2000/svg">
  <g transform="matrix(1.0, 0.0, 0.0, 1.0, 5.5, 2.75)">
    <path d="M3.25 0.45 L4.15 1.5 Q5.35 3.6 3.25 4.5 L3.2 4.45 Q2.4 5.5 0.6 5.15 L0.0 4.95 -0.4 4.5 -0.55 3.85 Q-1.2 5.15 -3.05 4.7 -4.85 4.2 -4.5 2.2 L-4.3 1.85 Q-3.6 1.35 -2.95 1.2 -2.85 0.7 -2.35 0.25 L-2.0 -0.6 -1.35 -1.0 -1.4 -1.15 -1.3 -1.3 -1.25 -1.4 Q-2.1 -1.15 -2.95 -0.3 -4.25 -0.3 -5.1 0.7 L-5.5 1.65 Q-5.6 2.6 -5.0 3.3 -5.3 4.95 -3.7 5.25 L-2.4 5.55 -0.85 5.8 2.25 5.8 2.8 5.65 3.7 6.3 4.25 6.5 Q7.0 6.05 5.85 3.5 5.4 2.5 4.6 1.8 L4.3 1.55 4.5 1.45 Q6.1 0.45 4.9 -0.95 L3.75 -1.7 2.0 -1.65 2.15 -1.3 2.35 -1.15 2.4 -1.0 2.45 -0.85 2.4 -0.7 2.35 -0.55 2.15 -0.4 3.15 0.35 3.25 0.45 M1.35 2.45 L1.35 2.4 -0.15 2.0 -0.25 2.1 -0.55 2.4 -0.5 2.55 -0.3 2.85 Q0.1 2.4 1.25 2.55 L1.35 2.45" fill="url(#gradient0)" fill-rule="evenodd" stroke="none"/>
    <path d="M3.2 4.45 L3.25 4.5 Q5.35 3.6 4.15 1.5 L3.25 0.45 Q2.3 -0.1 1.15 0.9 0.9 1.15 1.0 1.5 L1.35 2.4 1.35 2.45 3.35 2.35 3.7 3.15 Q3.55 4.0 3.2 4.45" fill="url(#gradient1)" fill-rule="evenodd" stroke="none"/>
    <path d="M3.25 0.45 L3.15 0.35 2.15 -0.4 Q1.7 -0.1 1.2 -0.15 L1.0 -0.2 0.2 -0.35 Q-1.05 -0.15 -1.35 -1.0 L-2.0 -0.6 -2.35 0.25 Q-2.85 0.7 -2.95 1.2 -3.1 1.65 -2.85 2.2 -2.55 2.9 -1.85 2.9 -1.1 2.85 -0.55 2.4 L-0.25 2.1 -0.15 2.0 1.35 2.4 1.0 1.5 Q0.9 1.15 1.15 0.9 2.3 -0.1 3.25 0.45" fill="url(#gradient2)" fill-rule="evenodd" stroke="none"/>
    <path d="M-0.55 3.85 L-0.4 4.5 0.0 4.95 0.6 5.15 Q2.4 5.5 3.2 4.45 3.55 4.0 3.7 3.15 L3.35 2.35 1.35 2.45 1.25 2.55 Q0.1 2.4 -0.3 2.85 -0.6 3.2 -0.55 3.85" fill="url(#gradient3)" fill-rule="evenodd" stroke="none"/>
    <path d="M4.5 1.45 L4.3 1.55 4.6 1.8 4.5 1.45" fill="url(#gradient4)" fill-rule="evenodd" stroke="none"/>
    <path d="M2.15 -0.4 L2.35 -0.55 2.4 -0.7 2.45 -0.85 2.4 -1.0 2.35 -1.15 2.15 -1.3 2.0 -1.65 1.65 -2.05 1.4 -2.5 -1.8 -2.3 -1.65 -1.85 -1.3 -1.55 -1.25 -1.45 -1.25 -1.4 -1.3 -1.3 -1.4 -1.15 -1.35 -1.0 Q-1.05 -0.15 0.2 -0.35 L1.0 -0.2 1.2 -0.15 Q1.7 -0.1 2.15 -0.4" fill="url(#gradient5)" fill-rule="evenodd" stroke="none"/>
    <path d="M-2.95 1.2 Q-3.6 1.35 -4.3 1.85 L-4.5 2.2 Q-4.85 4.2 -3.05 4.7 -1.2 5.15 -0.55 3.85 -0.6 3.2 -0.3 2.85 L-0.5 2.55 -0.55 2.4 Q-1.1 2.85 -1.85 2.9 -2.55 2.9 -2.85 2.2 -3.1 1.65 -2.95 1.2" fill="url(#gradient6)" fill-rule="evenodd" stroke="none"/>
  </g>
  <defs>
    <radialGradient cx="0" cy="0" gradientTransform="matrix(0.0084, 0.0, 0.0, -0.0084, 0.35, 2.35)" gradientUnits="userSpaceOnUse" id="gradient0" r="819.2" spreadMethod="pad">
      <stop offset="0.0" stop-color="#4e0707"/>
      <stop offset="0.16470588235294117" stop-color="#b41010"/>
      <stop offset="0.5294117647058824" stop-color="#e23612"/>
      <stop offset="0.807843137254902" stop-color="#fd5037"/>
      <stop offset="1.0" stop-color="#fd5037" stop-opacity="0.0"/>
    </radialGradient>
    <radialGradient cx="0" cy="0" gradientTransform="matrix(0.0033, 0.0, 0.0, -0.0033, 2.8, 2.4)" gradientUnits="userSpaceOnUse" id="gradient1" r="819.2" spreadMethod="pad">
      <stop offset="0.0" stop-color="#4e0707"/>
      <stop offset="0.16470588235294117" stop-color="#b41010"/>
      <stop offset="0.5294117647058824" stop-color="#e23612"/>
      <stop offset="0.807843137254902" stop-color="#fd5037"/>
      <stop offset="1.0" stop-color="#fd5037" stop-opacity="0.0"/>
    </radialGradient>
    <radialGradient cx="0" cy="0" gradientTransform="matrix(0.0045, 0.0, 0.0, -0.0045, 0.2, 0.9)" gradientUnits="userSpaceOnUse" id="gradient2" r="819.2" spreadMethod="pad">
      <stop offset="0.0" stop-color="#4e0707"/>
      <stop offset="0.16470588235294117" stop-color="#b41010"/>
      <stop offset="0.5294117647058824" stop-color="#e23612"/>
      <stop offset="0.807843137254902" stop-color="#fd5037"/>
      <stop offset="1.0" stop-color="#fd5037" stop-opacity="0.0"/>
    </radialGradient>
    <radialGradient cx="0" cy="0" gradientTransform="matrix(0.0036, 0.0, 0.0, -0.0036, 1.55, 3.6)" gradientUnits="userSpaceOnUse" id="gradient3" r="819.2" spreadMethod="pad">
      <stop offset="0.0" stop-color="#4e0707"/>
      <stop offset="0.16470588235294117" stop-color="#b41010"/>
      <stop offset="0.5294117647058824" stop-color="#e23612"/>
      <stop offset="0.807843137254902" stop-color="#fd5037"/>
      <stop offset="1.0" stop-color="#fd5037" stop-opacity="0.0"/>
    </radialGradient>
    <radialGradient cx="0" cy="0" gradientTransform="matrix(0.0062, 0.0, 0.0, -0.0062, 0.4, 2.8)" gradientUnits="userSpaceOnUse" id="gradient4" r="819.2" spreadMethod="pad">
      <stop offset="0.0" stop-color="#4e0707"/>
      <stop offset="0.16470588235294117" stop-color="#b41010"/>
      <stop offset="0.5294117647058824" stop-color="#e23612"/>
      <stop offset="0.807843137254902" stop-color="#fd5037"/>
      <stop offset="1.0" stop-color="#fd5037" stop-opacity="0.0"/>
    </radialGradient>
    <radialGradient cx="0" cy="0" gradientTransform="matrix(0.0032, 0.0, 0.0, -0.0032, 0.3, -1.45)" gradientUnits="userSpaceOnUse" id="gradient5" r="819.2" spreadMethod="pad">
      <stop offset="0.0" stop-color="#4e0707"/>
      <stop offset="0.16470588235294117" stop-color="#b41010"/>
      <stop offset="0.5294117647058824" stop-color="#e23612"/>
      <stop offset="0.807843137254902" stop-color="#fd5037"/>
      <stop offset="1.0" stop-color="#fd5037" stop-opacity="0.0"/>
    </radialGradient>
    <radialGradient cx="0" cy="0" gradientTransform="matrix(0.003, 0.0, 0.0, -0.003, -2.45, 3.0)" gradientUnits="userSpaceOnUse" id="gradient6" r="819.2" spreadMethod="pad">
      <stop offset="0.0" stop-color="#4e0707"/>
      <stop offset="0.16470588235294117" stop-color="#b41010"/>
      <stop offset="0.5294117647058824" stop-color="#e23612"/>
      <stop offset="0.807843137254902" stop-color="#fd5037"/>
      <stop offset="1.0" stop-color="#fd5037" stop-opacity="0.0"/>
    </radialGradient>
  </defs>
</svg>
