<?xml version="1.0" encoding="UTF-8" standalone="no"?>
<svg xmlns:xlink="http://www.w3.org/1999/xlink" height="46.0px" width="46.5px" xmlns="http://www.w3.org/2000/svg">
  <g transform="matrix(1.0, 0.0, 0.0, 1.0, 23.25, 23.0)">
    <path d="M0.0 -22.5 Q9.4 -22.5 16.05 -15.9 22.75 -9.3 22.75 0.0 22.75 9.3 16.05 15.9 9.4 22.5 0.0 22.5 -9.4 22.5 -16.1 15.9 -22.75 9.3 -22.75 0.0 -22.75 -9.3 -16.1 -15.9 -9.4 -22.5 0.0 -22.5 Z" fill="none" stroke="#000000" stroke-linecap="round" stroke-linejoin="round" stroke-width="1.0"/>
    <path d="M-14.45 5.9 Q-13.9 5.3 -13.9 4.5 -13.9 3.0 -15.45 3.0 L-15.25 1.0 -18.95 1.0 -19.2 3.0 Q-20.0 3.1 -20.55 3.6 -21.1 4.15 -21.1 4.95 -21.1 5.6 -20.65 6.05 -20.2 6.5 -19.55 6.5 L-15.8 6.5 Q-15.0 6.5 -14.45 5.9 M-1.45 1.7 L-1.5 1.0 -10.25 1.0 -9.15 1.3 -7.8 1.3 -6.5 1.3 Q-5.45 1.4 -5.45 2.25 -5.45 2.8 -5.8 3.1 -6.2 3.4 -6.8 3.4 -7.5 3.4 -7.95 3.0 L-8.8 2.0 Q-9.2 1.55 -9.85 1.55 -10.6 1.55 -11.2 2.1 -11.8 2.65 -11.8 3.4 -11.8 4.95 -10.05 5.95 -8.55 6.8 -6.85 6.8 -4.6 6.8 -3.0 5.35 -1.45 3.9 -1.45 1.7 M-10.35 -5.05 L-10.75 -1.0 -2.5 -1.0 Q-3.55 -2.0 -5.15 -2.15 L-6.9 -2.15 -6.75 -3.6 -4.7 -3.6 Q-4.8 -2.9 -4.35 -2.45 -3.95 -2.05 -3.2 -2.05 -1.7 -2.05 -1.25 -3.55 L-1.05 -5.25 Q-1.0 -6.8 -2.75 -6.8 L-8.35 -6.8 Q-10.15 -6.8 -10.35 -5.05 M-18.5 -3.4 L-18.75 -1.0 -15.0 -1.0 -14.6 -5.05 -14.6 -5.3 Q-14.45 -6.8 -16.3 -6.8 L-18.4 -6.8 Q-19.25 -6.8 -19.85 -6.25 -20.45 -5.75 -20.45 -4.9 -20.45 -3.4 -18.5 -3.4 M9.8 1.0 L6.15 1.0 6.05 1.7 Q5.85 3.5 4.45 3.5 3.3 3.5 3.3 2.0 L3.35 1.0 -0.35 1.0 -0.5 2.4 Q-0.55 4.3 0.8 5.55 2.15 6.85 4.1 6.85 6.25 6.85 7.85 5.45 9.45 4.05 9.7 1.95 L9.8 1.0 M20.75 1.95 L20.85 1.0 17.2 1.0 17.1 1.7 Q16.9 3.5 15.5 3.5 14.35 3.5 14.35 2.0 L14.4 1.0 10.7 1.0 10.55 2.4 Q10.5 4.3 11.85 5.55 13.2 6.85 15.15 6.85 17.3 6.85 18.9 5.45 20.5 4.05 20.75 1.95 M20.35 -8.05 Q21.75 -6.55 21.8 -4.5 L21.8 4.5 Q21.75 6.55 20.35 8.0 19.0 9.5 17.05 9.5 L-17.0 9.5 Q-18.95 9.5 -20.35 8.0 -21.7 6.55 -21.7 4.5 L-21.7 -4.5 Q-21.7 -6.55 -20.35 -8.05 -18.95 -9.5 -17.0 -9.5 L17.05 -9.5 Q19.0 -9.5 20.35 -8.05 M12.85 -5.75 Q11.3 -4.4 11.05 -2.25 L10.9 -1.0 14.55 -1.0 Q14.65 -2.0 14.9 -2.6 15.35 -3.8 16.3 -3.8 17.55 -3.8 17.5 -2.4 L17.4 -1.0 21.1 -1.0 21.25 -2.9 Q21.25 -4.8 19.85 -6.0 18.55 -7.1 16.6 -7.1 14.4 -7.1 12.85 -5.75 M1.8 -5.75 Q0.25 -4.4 0.0 -2.25 L-0.15 -1.0 3.5 -1.0 Q3.6 -2.0 3.85 -2.6 4.3 -3.8 5.25 -3.8 6.5 -3.8 6.45 -2.4 L6.35 -1.0 10.05 -1.0 10.2 -2.9 Q10.2 -4.8 8.8 -6.0 7.5 -7.1 5.55 -7.1 3.35 -7.1 1.8 -5.75" fill="#000000" fill-rule="evenodd" stroke="none"/>
  </g>
</svg>
