<?xml version="1.0" encoding="UTF-8" standalone="no"?>
<svg xmlns:xlink="http://www.w3.org/1999/xlink" height="11.05px" width="10.7px" xmlns="http://www.w3.org/2000/svg">
  <g transform="matrix(1.0, 0.0, 0.0, 1.0, 5.2, 5.4)">
    <path d="M-2.65 -1.35 Q-1.9 -2.9 -0.4 -4.25 1.1 -5.6 3.25 -4.1 3.1 -2.25 4.3 -0.6 5.15 0.55 5.0 1.8 4.75 4.1 2.35 3.4 L0.7 3.45 Q0.15 3.6 -0.15 4.4 -0.4 5.0 -1.1 5.1 -3.65 5.5 -3.55 3.35 -3.55 2.85 -4.0 2.65 -4.85 2.3 -4.65 1.45 -4.2 -0.35 -2.65 -1.35" fill="url(#gradient0)" fill-rule="evenodd" stroke="none"/>
    <path d="M-2.65 -1.35 Q-4.2 -0.35 -4.65 1.45 -4.85 2.3 -4.0 2.65 -3.55 2.85 -3.55 3.35 -3.65 5.5 -1.1 5.1 -0.4 5.0 -0.15 4.4 0.15 3.6 0.7 3.45 L2.35 3.4 Q4.75 4.1 5.0 1.8 5.15 0.55 4.3 -0.6 3.1 -2.25 3.25 -4.1 1.1 -5.6 -0.4 -4.25 -1.9 -2.9 -2.65 -1.35 Z" fill="none" stroke="#000000" stroke-linecap="round" stroke-linejoin="round" stroke-width="1.0"/>
  </g>
  <defs>
    <radialGradient cx="0" cy="0" gradientTransform="matrix(0.0084, 0.0, 0.0, 0.0084, 2.05, 0.8)" gradientUnits="userSpaceOnUse" id="gradient0" r="819.2" spreadMethod="pad">
      <stop offset="0.0" stop-color="#4e0707"/>
      <stop offset="0.16470588235294117" stop-color="#b41010"/>
      <stop offset="0.5294117647058824" stop-color="#e23612"/>
      <stop offset="0.807843137254902" stop-color="#fd5037"/>
    </radialGradient>
  </defs>
</svg>
