<?xml version="1.0" encoding="UTF-8" standalone="no"?>
<svg xmlns:xlink="http://www.w3.org/1999/xlink" height="12.75px" width="9.4px" xmlns="http://www.w3.org/2000/svg">
  <g transform="matrix(1.0, 0.0, 0.0, 1.0, 4.7, 6.25)">
    <path d="M-4.05 -3.95 Q-3.55 -5.95 -1.4 -5.75 0.55 -5.9 2.15 -4.6 2.5 -3.5 3.3 -2.65 3.9 -1.95 4.05 -1.1 4.45 0.85 3.85 2.65 3.3 4.5 1.55 5.95 0.35 6.2 -0.9 5.45 -2.7 4.4 -1.5 3.45 -0.15 2.4 -1.3 1.35 L-3.25 -0.5 Q-4.6 -1.9 -4.05 -3.95" fill="url(#gradient0)" fill-rule="evenodd" stroke="none"/>
    <path d="M-4.05 -3.95 Q-4.6 -1.9 -3.25 -0.5 L-1.3 1.35 Q-0.15 2.4 -1.5 3.45 -2.7 4.4 -0.9 5.45 0.35 6.2 1.55 5.95 3.3 4.5 3.85 2.65 4.45 0.85 4.05 -1.1 3.9 -1.95 3.3 -2.65 2.5 -3.5 2.15 -4.6 0.55 -5.9 -1.4 -5.75 -3.55 -5.95 -4.05 -3.95 Z" fill="none" stroke="#000000" stroke-linecap="round" stroke-linejoin="round" stroke-width="1.0"/>
  </g>
  <defs>
    <radialGradient cx="0" cy="0" gradientTransform="matrix(0.0106, 0.0, 0.0, 0.0106, -0.15, -2.6)" gradientUnits="userSpaceOnUse" id="gradient0" r="819.2" spreadMethod="pad">
      <stop offset="0.0" stop-color="#4e0707"/>
      <stop offset="0.16470588235294117" stop-color="#b41010"/>
      <stop offset="0.5294117647058824" stop-color="#e23612"/>
      <stop offset="0.807843137254902" stop-color="#fd5037"/>
    </radialGradient>
  </defs>
</svg>
