<?xml version="1.0" encoding="UTF-8" standalone="no"?>
<svg xmlns:xlink="http://www.w3.org/1999/xlink" height="28.4px" width="24.0px" xmlns="http://www.w3.org/2000/svg">
  <g transform="matrix(1.0, 0.0, 0.0, 1.0, 12.0, 14.2)">
    <path d="M4.8 -10.4 L7.25 -10.5 Q4.1 -8.35 4.3 -7.85 L3.5 -5.9 Q3.3 -5.1 2.7 -4.8 L1.35 -4.9 Q0.65 -5.25 0.3 -6.0 -0.05 -6.75 0.15 -7.55 0.4 -9.1 2.3 -10.0 L4.8 -10.4" fill="url(#gradient0)" fill-rule="evenodd" stroke="none"/>
    <path d="M4.8 -10.4 L7.25 -10.5 Q4.1 -8.35 4.3 -7.85 L3.5 -5.9 Q3.3 -5.1 2.7 -4.8 L1.35 -4.9 Q0.65 -5.25 0.3 -6.0 -0.05 -6.75 0.15 -7.55 0.4 -9.1 2.3 -10.0 L4.8 -10.4 Z" fill="none" stroke="#000000" stroke-linecap="round" stroke-linejoin="round" stroke-width="0.5"/>
    <path d="M9.9 7.05 L10.35 9.95 Q8.0 5.95 7.6 6.15 L5.7 4.95 Q4.95 4.65 4.6 3.9 4.25 3.15 4.55 2.4 4.7 1.65 5.35 1.35 L6.75 1.4 Q8.15 1.95 9.2 4.2 L9.9 7.05" fill="url(#gradient1)" fill-rule="evenodd" stroke="none"/>
    <path d="M9.9 7.05 L10.35 9.95 Q8.0 5.95 7.6 6.15 L5.7 4.95 Q4.95 4.65 4.6 3.9 4.25 3.15 4.55 2.4 4.7 1.65 5.35 1.35 L6.75 1.4 Q8.15 1.95 9.2 4.2 L9.9 7.05 Z" fill="none" stroke="#000000" stroke-linecap="round" stroke-linejoin="round" stroke-width="0.5"/>
    <path d="M-4.35 9.75 L-6.8 9.85 Q-3.65 7.7 -3.85 7.2 L-3.05 5.25 Q-2.85 4.45 -2.25 4.15 L-0.9 4.25 Q-0.2 4.6 0.15 5.35 0.5 6.1 0.3 6.9 0.05 8.45 -1.85 9.35 L-4.35 9.75" fill="url(#gradient2)" fill-rule="evenodd" stroke="none"/>
    <path d="M-4.35 9.75 L-6.8 9.85 Q-3.65 7.7 -3.85 7.2 L-3.05 5.25 Q-2.85 4.45 -2.25 4.15 L-0.9 4.25 Q-0.2 4.6 0.15 5.35 0.5 6.1 0.3 6.9 0.05 8.45 -1.85 9.35 L-4.35 9.75 Z" fill="none" stroke="#000000" stroke-linecap="round" stroke-linejoin="round" stroke-width="0.5"/>
    <path d="M-9.1 -6.65 L-9.55 -9.55 Q-7.2 -5.55 -6.8 -5.75 L-4.9 -4.55 Q-4.15 -4.25 -3.8 -3.5 -3.45 -2.75 -3.75 -2.0 -3.9 -1.25 -4.55 -0.95 L-5.95 -1.0 Q-7.35 -1.55 -8.4 -3.8 L-9.1 -6.65" fill="url(#gradient3)" fill-rule="evenodd" stroke="none"/>
    <path d="M-9.1 -6.65 L-9.55 -9.55 Q-7.2 -5.55 -6.8 -5.75 L-4.9 -4.55 Q-4.15 -4.25 -3.8 -3.5 -3.45 -2.75 -3.75 -2.0 -3.9 -1.25 -4.55 -0.95 L-5.95 -1.0 Q-7.35 -1.55 -8.4 -3.8 L-9.1 -6.65 Z" fill="none" stroke="#000000" stroke-linecap="round" stroke-linejoin="round" stroke-width="0.5"/>
    <path d="M9.7 -2.15 L11.75 -0.15 Q7.8 -1.45 7.7 -1.0 6.2 -0.65 5.8 -0.4 5.15 -0.05 4.45 -0.4 3.75 -0.7 3.45 -1.55 3.1 -2.3 3.3 -3.05 3.5 -3.8 4.15 -4.15 5.35 -4.85 7.45 -3.85 L9.7 -2.15" fill="url(#gradient4)" fill-rule="evenodd" stroke="none"/>
    <path d="M9.7 -2.15 L11.75 -0.15 Q7.8 -1.45 7.7 -1.0 6.2 -0.65 5.8 -0.4 5.15 -0.05 4.45 -0.4 3.75 -0.7 3.45 -1.55 3.1 -2.3 3.3 -3.05 3.5 -3.8 4.15 -4.15 5.35 -4.85 7.45 -3.85 L9.7 -2.15 Z" fill="none" stroke="#000000" stroke-linecap="round" stroke-linejoin="round" stroke-width="0.5"/>
    <path d="M3.7 11.85 Q2.55 13.8 2.2 13.95 2.85 9.65 2.4 9.45 L1.6 7.2 Q1.2 6.45 1.4 5.7 1.6 4.95 2.3 4.7 L3.65 4.75 Q4.35 5.05 4.75 5.85 5.55 7.3 4.95 9.55 L3.7 11.85" fill="url(#gradient5)" fill-rule="evenodd" stroke="none"/>
    <path d="M3.7 11.85 Q2.55 13.8 2.2 13.95 2.85 9.65 2.4 9.45 L1.6 7.2 Q1.2 6.45 1.4 5.7 1.6 4.95 2.3 4.7 L3.65 4.75 Q4.35 5.05 4.75 5.85 5.55 7.3 4.95 9.55 L3.7 11.85 Z" fill="none" stroke="#000000" stroke-linecap="round" stroke-linejoin="round" stroke-width="0.5"/>
    <path d="M-9.7 2.2 L-11.75 0.2 Q-7.8 1.5 -7.7 1.05 -6.2 0.7 -5.8 0.45 -5.15 0.1 -4.45 0.45 -3.75 0.75 -3.45 1.6 -3.1 2.35 -3.3 3.1 -3.5 3.85 -4.15 4.2 -5.35 4.9 -7.45 3.9 L-9.7 2.2" fill="url(#gradient6)" fill-rule="evenodd" stroke="none"/>
    <path d="M-9.7 2.2 L-11.75 0.2 Q-7.8 1.5 -7.7 1.05 -6.2 0.7 -5.8 0.45 -5.15 0.1 -4.45 0.45 -3.75 0.75 -3.45 1.6 -3.1 2.35 -3.3 3.1 -3.5 3.85 -4.15 4.2 -5.35 4.9 -7.45 3.9 L-9.7 2.2 Z" fill="none" stroke="#000000" stroke-linecap="round" stroke-linejoin="round" stroke-width="0.5"/>
    <path d="M-3.5 -11.85 Q-2.35 -13.8 -2.0 -13.95 -2.65 -9.65 -2.2 -9.45 L-1.4 -7.2 Q-1.0 -6.45 -1.2 -5.7 -1.4 -4.95 -2.1 -4.7 L-3.45 -4.75 Q-4.15 -5.05 -4.55 -5.85 -5.35 -7.3 -4.75 -9.55 L-3.5 -11.85" fill="url(#gradient7)" fill-rule="evenodd" stroke="none"/>
    <path d="M-3.5 -11.85 Q-2.35 -13.8 -2.0 -13.95 -2.65 -9.65 -2.2 -9.45 L-1.4 -7.2 Q-1.0 -6.45 -1.2 -5.7 -1.4 -4.95 -2.1 -4.7 L-3.45 -4.75 Q-4.15 -5.05 -4.55 -5.85 -5.35 -7.3 -4.75 -9.55 L-3.5 -11.85 Z" fill="none" stroke="#000000" stroke-linecap="round" stroke-linejoin="round" stroke-width="0.5"/>
  </g>
  <defs>
    <radialGradient cx="0" cy="0" gradientTransform="matrix(0.0014, 0.0031, -0.0025, 0.0012, 1.8, -6.7)" gradientUnits="userSpaceOnUse" id="gradient0" r="819.2" spreadMethod="pad">
      <stop offset="0.0" stop-color="#bebe4b"/>
      <stop offset="1.0" stop-color="#ffffff"/>
    </radialGradient>
    <radialGradient cx="0" cy="0" gradientTransform="matrix(-0.0025, 0.0012, -0.0014, -0.0031, 6.2, 3.15)" gradientUnits="userSpaceOnUse" id="gradient1" r="819.2" spreadMethod="pad">
      <stop offset="0.0" stop-color="#bebe4b"/>
      <stop offset="1.0" stop-color="#ffffff"/>
    </radialGradient>
    <radialGradient cx="0" cy="0" gradientTransform="matrix(-0.0014, -0.0031, 0.0025, -0.0012, -1.35, 6.05)" gradientUnits="userSpaceOnUse" id="gradient2" r="819.2" spreadMethod="pad">
      <stop offset="0.0" stop-color="#bebe4b"/>
      <stop offset="1.0" stop-color="#ffffff"/>
    </radialGradient>
    <radialGradient cx="0" cy="0" gradientTransform="matrix(0.0025, -0.0012, 0.0014, 0.0031, -5.4, -2.75)" gradientUnits="userSpaceOnUse" id="gradient3" r="819.2" spreadMethod="pad">
      <stop offset="0.0" stop-color="#bebe4b"/>
      <stop offset="1.0" stop-color="#ffffff"/>
    </radialGradient>
    <radialGradient cx="0" cy="0" gradientTransform="matrix(-8.0E-4, 0.003, -0.0028, -0.0013, 4.95, -2.3)" gradientUnits="userSpaceOnUse" id="gradient4" r="819.2" spreadMethod="pad">
      <stop offset="0.0" stop-color="#bebe4b"/>
      <stop offset="1.0" stop-color="#ffffff"/>
    </radialGradient>
    <radialGradient cx="0" cy="0" gradientTransform="matrix(-0.0028, -0.0013, 8.0E-4, -0.003, 3.15, 6.55)" gradientUnits="userSpaceOnUse" id="gradient5" r="819.2" spreadMethod="pad">
      <stop offset="0.0" stop-color="#bebe4b"/>
      <stop offset="1.0" stop-color="#ffffff"/>
    </radialGradient>
    <radialGradient cx="0" cy="0" gradientTransform="matrix(8.0E-4, -0.003, 0.0028, 0.0013, -4.95, 2.35)" gradientUnits="userSpaceOnUse" id="gradient6" r="819.2" spreadMethod="pad">
      <stop offset="0.0" stop-color="#bebe4b"/>
      <stop offset="1.0" stop-color="#ffffff"/>
    </radialGradient>
    <radialGradient cx="0" cy="0" gradientTransform="matrix(0.0028, 0.0013, -8.0E-4, 0.003, -2.95, -6.55)" gradientUnits="userSpaceOnUse" id="gradient7" r="819.2" spreadMethod="pad">
      <stop offset="0.0" stop-color="#bebe4b"/>
      <stop offset="1.0" stop-color="#ffffff"/>
    </radialGradient>
  </defs>
</svg>
