<?xml version="1.0" encoding="UTF-8" standalone="no"?>
<svg xmlns:xlink="http://www.w3.org/1999/xlink" height="35.65px" width="36.75px" xmlns="http://www.w3.org/2000/svg">
  <g transform="matrix(1.0, 0.0, 0.0, 1.0, 18.35, 15.7)">
    <path d="M15.65 -9.75 Q15.5 -8.35 16.0 -7.2 17.8 -2.8 18.35 1.75 18.9 6.0 14.7 6.25 8.7 6.6 9.5 12.3 10.2 17.35 5.05 19.15 0.45 20.75 -4.0 19.05 -5.55 18.45 -5.7 17.15 -6.1 14.75 -5.6 12.65 -4.45 8.05 -11.65 5.75 -11.75 0.75 -15.7 -1.7 -16.8 -2.4 -17.5 -3.55 -20.3 -8.25 -13.95 -9.35 -9.15 -10.2 -5.5 -12.25 -1.95 -14.35 3.25 -14.25 4.2 -14.95 4.85 -14.5 L6.35 -14.55 Q8.1 -15.8 11.0 -15.7 16.25 -15.55 15.65 -9.75" fill="#358bf4" fill-rule="evenodd" stroke="none"/>
  </g>
</svg>
