<?xml version="1.0" encoding="UTF-8" standalone="no"?>
<svg xmlns:xlink="http://www.w3.org/1999/xlink" height="6.35px" width="6.85px" xmlns="http://www.w3.org/2000/svg">
  <g transform="matrix(1.0, 0.0, 0.0, 1.0, 2.1, 1.8)">
    <path d="M3.4 -0.55 Q4.25 0.25 4.25 1.35 4.25 2.45 3.4 3.25 2.5 4.05 1.3 4.05 0.1 4.05 -0.75 3.25 -1.65 2.45 -1.6 1.35 -1.65 0.25 -0.75 -0.55 0.1 -1.35 1.3 -1.3 2.5 -1.35 3.4 -0.55" fill="url(#gradient0)" fill-rule="evenodd" stroke="none"/>
    <path d="M3.4 -0.55 Q4.25 0.25 4.25 1.35 4.25 2.45 3.4 3.25 2.5 4.05 1.3 4.05 0.1 4.05 -0.75 3.25 -1.65 2.45 -1.6 1.35 -1.65 0.25 -0.75 -0.55 0.1 -1.35 1.3 -1.3 2.5 -1.35 3.4 -0.55 Z" fill="none" stroke="#000000" stroke-linecap="round" stroke-linejoin="round" stroke-width="1.0"/>
  </g>
  <defs>
    <radialGradient cx="0" cy="0" gradientTransform="matrix(0.0056, -0.0027, 0.0019, 0.0038, 2.1, 2.0)" gradientUnits="userSpaceOnUse" id="gradient0" r="819.2" spreadMethod="pad">
      <stop offset="0.0" stop-color="#0d2f93"/>
      <stop offset="0.5764705882352941" stop-color="#358bf4"/>
      <stop offset="1.0" stop-color="#ffffff"/>
    </radialGradient>
  </defs>
</svg>
