<?xml version="1.0" encoding="UTF-8" standalone="no"?>
<svg xmlns:xlink="http://www.w3.org/1999/xlink" height="8.7px" width="4.55px" xmlns="http://www.w3.org/2000/svg">
  <g transform="matrix(1.0, 0.0, 0.0, 1.0, 3.15, 6.8)">
    <path d="M-2.35 -4.25 L-1.5 -6.55 Q-1.05 -2.75 -0.6 -2.75 L0.6 -1.2 Q1.15 -0.7 1.15 0.0 1.15 0.7 0.6 1.15 0.1 1.65 -0.6 1.65 -1.3 1.65 -1.85 1.15 -2.9 0.25 -2.9 -1.85 L-2.35 -4.25" fill="url(#gradient0)" fill-rule="evenodd" stroke="none"/>
    <path d="M-2.35 -4.25 L-1.5 -6.55 Q-1.05 -2.75 -0.6 -2.75 L0.6 -1.2 Q1.15 -0.7 1.15 0.0 1.15 0.7 0.6 1.15 0.1 1.65 -0.6 1.65 -1.3 1.65 -1.85 1.15 -2.9 0.25 -2.9 -1.85 L-2.35 -4.25 Z" fill="none" stroke="#000000" stroke-linecap="round" stroke-linejoin="round" stroke-width="0.5"/>
  </g>
  <defs>
    <radialGradient cx="0" cy="0" gradientTransform="matrix(0.0028, 0.0, 0.0, 0.0028, -0.6, 0.0)" gradientUnits="userSpaceOnUse" id="gradient0" r="819.2" spreadMethod="pad">
      <stop offset="0.0" stop-color="#bebe4b"/>
      <stop offset="1.0" stop-color="#ffffff"/>
    </radialGradient>
  </defs>
</svg>
