<?xml version="1.0" encoding="UTF-8" standalone="no"?>
<svg xmlns:xlink="http://www.w3.org/1999/xlink" height="23.0px" width="25.0px" xmlns="http://www.w3.org/2000/svg">
  <g transform="matrix(1.0, 0.0, 0.0, 1.0, 12.5, 11.5)">
    <path d="M8.1 -7.45 Q11.5 -4.35 11.5 0.0 11.5 4.35 8.1 7.4 4.75 10.5 0.0 10.5 -4.75 10.5 -8.15 7.4 -11.5 4.35 -11.5 0.0 -11.5 -4.35 -8.15 -7.45 -4.75 -10.5 0.0 -10.5 4.75 -10.5 8.1 -7.45" fill="url(#gradient0)" fill-rule="evenodd" stroke="none"/>
    <path d="M8.1 -7.45 Q11.5 -4.35 11.5 0.0 11.5 4.35 8.1 7.4 4.75 10.5 0.0 10.5 -4.75 10.5 -8.15 7.4 -11.5 4.35 -11.5 0.0 -11.5 -4.35 -8.15 -7.45 -4.75 -10.5 0.0 -10.5 4.75 -10.5 8.1 -7.45 Z" fill="none" stroke="#000000" stroke-linecap="round" stroke-linejoin="round" stroke-width="2.0"/>
    <path d="M-5.7 1.55 L-5.3 0.4 -4.85 2.3 -4.25 3.05 Q-3.95 3.3 -3.95 3.65 -3.95 4.0 -4.25 4.25 L-4.85 4.5 -5.45 4.25 Q-6.0 3.8 -6.0 2.75 L-5.7 1.55" fill="url(#gradient1)" fill-rule="evenodd" stroke="none"/>
    <path d="M-5.7 1.55 L-5.3 0.4 -4.85 2.3 -4.25 3.05 Q-3.95 3.3 -3.95 3.65 -3.95 4.0 -4.25 4.25 L-4.85 4.5 -5.45 4.25 Q-6.0 3.8 -6.0 2.75 L-5.7 1.55 Z" fill="none" stroke="#000000" stroke-linecap="round" stroke-linejoin="round" stroke-width="0.5"/>
  </g>
  <defs>
    <radialGradient cx="0" cy="0" gradientTransform="matrix(0.0221, -0.0108, 0.0074, 0.0151, 3.0, 2.5)" gradientUnits="userSpaceOnUse" id="gradient0" r="819.2" spreadMethod="pad">
      <stop offset="0.0" stop-color="#0d2f93"/>
      <stop offset="0.5764705882352941" stop-color="#358bf4"/>
      <stop offset="1.0" stop-color="#ffffff"/>
    </radialGradient>
    <radialGradient cx="0" cy="0" gradientTransform="matrix(0.0014, 0.0, 0.0, 0.0014, -4.85, 3.65)" gradientUnits="userSpaceOnUse" id="gradient1" r="819.2" spreadMethod="pad">
      <stop offset="0.0" stop-color="#bebe4b"/>
      <stop offset="1.0" stop-color="#ffffff"/>
    </radialGradient>
  </defs>
</svg>
