<?xml version="1.0" encoding="UTF-8" standalone="no"?>
<svg xmlns:xlink="http://www.w3.org/1999/xlink" height="7.9px" width="7.9px" xmlns="http://www.w3.org/2000/svg">
  <g transform="matrix(1.0, 0.0, 0.0, 1.0, 3.8, 3.8)">
    <path d="M2.75 -1.0 L3.2 -0.45 Q3.6 0.15 3.6 0.9 3.6 1.65 3.2 2.25 L2.75 2.8 2.2 3.2 Q1.5 3.6 0.65 3.6 -0.55 3.6 -1.4 2.8 -2.3 2.0 -2.25 0.9 -2.3 -0.2 -1.4 -1.0 -0.55 -1.8 0.65 -1.75 1.5 -1.8 2.2 -1.35 L2.75 -1.0" fill="url(#gradient0)" fill-rule="evenodd" stroke="none"/>
    <path d="M2.75 -1.0 L3.2 -0.45 Q3.6 0.15 3.6 0.9 3.6 1.65 3.2 2.25 L2.75 2.8 2.2 3.2 Q1.5 3.6 0.65 3.6 -0.55 3.6 -1.4 2.8 -2.3 2.0 -2.25 0.9 -2.3 -0.2 -1.4 -1.0 -0.55 -1.8 0.65 -1.75 1.5 -1.8 2.2 -1.35 L2.75 -1.0 Z" fill="none" stroke="#000000" stroke-linecap="round" stroke-linejoin="round" stroke-width="1.0"/>
    <path d="M-1.45 -3.4 L-1.25 -3.2 -0.05 -1.65 Q0.5 -1.15 0.5 -0.45 0.5 0.25 -0.05 0.7 -0.55 1.2 -1.25 1.2 -1.95 1.2 -2.5 0.7 -3.55 -0.2 -3.55 -2.3 L-3.3 -3.55 -1.45 -3.4" fill="url(#gradient1)" fill-rule="evenodd" stroke="none"/>
    <path d="M-1.45 -3.4 L-1.25 -3.2 -0.05 -1.65 Q0.5 -1.15 0.5 -0.45 0.5 0.25 -0.05 0.7 -0.55 1.2 -1.25 1.2 -1.95 1.2 -2.5 0.7 -3.55 -0.2 -3.55 -2.3 L-3.3 -3.55" fill="none" stroke="#000000" stroke-linecap="round" stroke-linejoin="round" stroke-width="0.5"/>
  </g>
  <defs>
    <radialGradient cx="0" cy="0" gradientTransform="matrix(0.0056, -0.0027, 0.0019, 0.0038, 1.45, 1.55)" gradientUnits="userSpaceOnUse" id="gradient0" r="819.2" spreadMethod="pad">
      <stop offset="0.0" stop-color="#0d2f93"/>
      <stop offset="0.5764705882352941" stop-color="#358bf4"/>
      <stop offset="1.0" stop-color="#ffffff"/>
    </radialGradient>
    <radialGradient cx="0" cy="0" gradientTransform="matrix(0.0028, 0.0, 0.0, 0.0028, -1.25, -0.45)" gradientUnits="userSpaceOnUse" id="gradient1" r="819.2" spreadMethod="pad">
      <stop offset="0.0" stop-color="#bebe4b"/>
      <stop offset="1.0" stop-color="#ffffff"/>
    </radialGradient>
  </defs>
</svg>
