<?xml version="1.0" encoding="UTF-8" standalone="no"?>
<svg xmlns:xlink="http://www.w3.org/1999/xlink" height="7.9px" width="7.9px" xmlns="http://www.w3.org/2000/svg">
  <g transform="matrix(1.0, 0.0, 0.0, 1.0, 1.3, 1.05)">
    <path d="M5.25 1.75 L5.7 2.3 Q6.1 2.9 6.1 3.65 6.1 4.4 5.7 5.0 L5.25 5.55 4.7 5.95 Q4.0 6.35 3.15 6.35 1.95 6.35 1.1 5.55 0.2 4.75 0.25 3.65 0.2 2.55 1.1 1.75 1.95 0.95 3.15 1.0 4.0 0.95 4.7 1.4 L5.25 1.75" fill="url(#gradient0)" fill-rule="evenodd" stroke="none"/>
    <path d="M5.25 1.75 L5.7 2.3 Q6.1 2.9 6.1 3.65 6.1 4.4 5.7 5.0 L5.25 5.55 4.7 5.95 Q4.0 6.35 3.15 6.35 1.95 6.35 1.1 5.55 0.2 4.75 0.25 3.65 0.2 2.55 1.1 1.75 1.95 0.95 3.15 1.0 4.0 0.95 4.7 1.4 L5.25 1.75 Z" fill="none" stroke="#000000" stroke-linecap="round" stroke-linejoin="round" stroke-width="1.0"/>
    <path d="M1.05 -0.65 L1.25 -0.45 2.45 1.1 Q3.0 1.6 3.0 2.3 3.0 3.0 2.45 3.45 1.95 3.95 1.25 3.95 0.55 3.95 0.0 3.45 -1.05 2.55 -1.05 0.45 L-0.8 -0.8 1.05 -0.65" fill="url(#gradient1)" fill-rule="evenodd" stroke="none"/>
    <path d="M1.05 -0.65 L1.25 -0.45 2.45 1.1 Q3.0 1.6 3.0 2.3 3.0 3.0 2.45 3.45 1.95 3.95 1.25 3.95 0.55 3.95 0.0 3.45 -1.05 2.55 -1.05 0.45 L-0.8 -0.8" fill="none" stroke="#000000" stroke-linecap="round" stroke-linejoin="round" stroke-width="0.5"/>
  </g>
  <defs>
    <radialGradient cx="0" cy="0" gradientTransform="matrix(0.0056, -0.0027, 0.0019, 0.0038, 3.95, 4.3)" gradientUnits="userSpaceOnUse" id="gradient0" r="819.2" spreadMethod="pad">
      <stop offset="0.0" stop-color="#0d2f93"/>
      <stop offset="0.5764705882352941" stop-color="#358bf4"/>
      <stop offset="1.0" stop-color="#ffffff"/>
    </radialGradient>
    <radialGradient cx="0" cy="0" gradientTransform="matrix(0.0028, 0.0, 0.0, 0.0028, 1.25, 2.3)" gradientUnits="userSpaceOnUse" id="gradient1" r="819.2" spreadMethod="pad">
      <stop offset="0.0" stop-color="#bebe4b"/>
      <stop offset="1.0" stop-color="#ffffff"/>
    </radialGradient>
  </defs>
</svg>
