<?xml version="1.0" encoding="UTF-8" standalone="no"?>
<svg xmlns:xlink="http://www.w3.org/1999/xlink" height="7.65px" width="7.65px" xmlns="http://www.w3.org/2000/svg">
  <g transform="matrix(1.0, 0.0, 0.0, 1.0, 3.7, 3.65)">
    <path d="M3.05 2.15 L2.6 2.7 2.05 3.1 0.5 3.5 Q-0.7 3.5 -1.55 2.7 -2.45 1.9 -2.4 0.8 -2.45 -0.3 -1.55 -1.1 -0.7 -1.9 0.5 -1.85 L2.05 -1.45 2.6 -1.1 3.05 -0.55 Q3.45 0.05 3.45 0.8 3.45 1.55 3.05 2.15" fill="url(#gradient0)" fill-rule="evenodd" stroke="none"/>
    <path d="M3.05 2.15 L2.6 2.7 2.05 3.1 0.5 3.5 Q-0.7 3.5 -1.55 2.7 -2.45 1.9 -2.4 0.8 -2.45 -0.3 -1.55 -1.1 -0.7 -1.9 0.5 -1.85 L2.05 -1.45 2.6 -1.1 3.05 -0.55 Q3.45 0.05 3.45 0.8 3.45 1.55 3.05 2.15 Z" fill="none" stroke="#000000" stroke-linecap="round" stroke-linejoin="round" stroke-width="1.0"/>
    <path d="M-3.45 -2.8 L-3.3 -2.9 -3.05 -2.95 Q-2.45 -3.05 -1.95 -3.45 L-1.3 -3.4 -0.65 -2.55 Q-0.2 -2.15 -0.2 -1.6 -0.2 -1.05 -0.65 -0.65 -1.05 -0.25 -1.6 -0.25 -2.15 -0.25 -2.6 -0.65 -3.35 -1.35 -3.45 -2.8" fill="url(#gradient1)" fill-rule="evenodd" stroke="none"/>
    <path d="M-3.45 -2.8 Q-3.35 -1.35 -2.6 -0.65 -2.15 -0.25 -1.6 -0.25 -1.05 -0.25 -0.65 -0.65 -0.2 -1.05 -0.2 -1.6 -0.2 -2.15 -0.65 -2.55 L-1.3 -3.4" fill="none" stroke="#000000" stroke-linecap="round" stroke-linejoin="round" stroke-width="0.5"/>
  </g>
  <defs>
    <radialGradient cx="0" cy="0" gradientTransform="matrix(0.0056, -0.0027, 0.0019, 0.0038, 1.3, 1.45)" gradientUnits="userSpaceOnUse" id="gradient0" r="819.2" spreadMethod="pad">
      <stop offset="0.0" stop-color="#0d2f93"/>
      <stop offset="0.5764705882352941" stop-color="#358bf4"/>
      <stop offset="1.0" stop-color="#ffffff"/>
    </radialGradient>
    <radialGradient cx="0" cy="0" gradientTransform="matrix(0.0022, 0.0, 0.0, 0.0022, -1.6, -1.6)" gradientUnits="userSpaceOnUse" id="gradient1" r="819.2" spreadMethod="pad">
      <stop offset="0.0" stop-color="#bebe4b"/>
      <stop offset="1.0" stop-color="#ffffff"/>
    </radialGradient>
  </defs>
</svg>
