<?xml version="1.0" encoding="UTF-8" standalone="no"?>
<svg xmlns:xlink="http://www.w3.org/1999/xlink" height="34.55px" width="34.0px" xmlns="http://www.w3.org/2000/svg">
  <g transform="matrix(1.0, 0.0, 0.0, 1.0, 16.5, 11.05)">
    <path d="M-3.75 1.25 L-3.15 0.85 -2.8 0.65 -1.2 0.25 Q-0.45 0.25 0.05 0.6 0.65 0.1 1.5 0.1 L3.15 0.5 3.75 0.85 3.95 1.0 Q5.1 1.8 6.4 3.35 9.1 6.6 10.8 11.25 12.5 15.85 12.15 19.1 11.75 22.35 9.65 22.35 7.45 22.35 4.75 19.1 2.0 15.85 0.3 11.25 L0.2 10.9 0.0 11.4 Q-1.7 16.0 -4.4 19.25 -7.15 22.5 -9.3 22.5 -11.45 22.5 -11.8 19.25 -12.2 16.0 -10.5 11.4 -8.8 6.75 -6.05 3.5 -4.85 2.05 -3.75 1.25" fill="url(#gradient0)" fill-rule="evenodd" stroke="none"/>
    <path d="M3.95 1.0 Q5.1 1.8 6.4 3.35 9.1 6.6 10.8 11.25 12.5 15.85 12.15 19.1 11.75 22.35 9.65 22.35 7.45 22.35 4.75 19.1 2.0 15.85 0.3 11.25 L0.2 10.9 0.0 11.4 Q-1.7 16.0 -4.4 19.25 -7.15 22.5 -9.3 22.5 -11.45 22.5 -11.8 19.25 -12.2 16.0 -10.5 11.4 -8.8 6.75 -6.05 3.5 -4.85 2.05 -3.75 1.25" fill="none" stroke="#000000" stroke-linecap="round" stroke-linejoin="round" stroke-width="2.0"/>
    <path d="M2.6 -3.5 Q3.1 -6.35 0.2 -6.6 L-0.8 -6.35 Q-2.3 -5.7 -2.3 -4.2 -2.35 -1.2 0.9 -1.8 2.35 -2.1 2.6 -3.5 M16.5 -4.3 Q16.5 -1.9 11.8 -0.25 7.15 1.45 0.5 1.45 -6.15 1.45 -10.85 -0.25 -15.5 -1.9 -15.5 -4.3 -15.5 -6.7 -10.85 -8.4 -6.15 -10.05 0.5 -10.05 7.15 -10.05 11.8 -8.4 16.5 -6.7 16.5 -4.3" fill="url(#gradient1)" fill-rule="evenodd" stroke="none"/>
    <path d="M16.5 -4.3 Q16.5 -1.9 11.8 -0.25 7.15 1.45 0.5 1.45 -6.15 1.45 -10.85 -0.25 -15.5 -1.9 -15.5 -4.3 -15.5 -6.7 -10.85 -8.4 -6.15 -10.05 0.5 -10.05 7.15 -10.05 11.8 -8.4 16.5 -6.7 16.5 -4.3 Z" fill="none" stroke="#000000" stroke-linecap="round" stroke-linejoin="round" stroke-width="2.0"/>
  </g>
  <defs>
    <radialGradient cx="0" cy="0" gradientTransform="matrix(0.0363, 0.0, 0.0, 0.0271, -6.8, 6.9)" gradientUnits="userSpaceOnUse" id="gradient0" r="819.2" spreadMethod="pad">
      <stop offset="0.0" stop-color="#0066ff"/>
      <stop offset="1.0" stop-color="#ffffff"/>
    </radialGradient>
    <radialGradient cx="0" cy="0" gradientTransform="matrix(0.0257, 0.0, 0.0, 0.0196, -6.0, -4.8)" gradientUnits="userSpaceOnUse" id="gradient1" r="819.2" spreadMethod="pad">
      <stop offset="0.3843137254901961" stop-color="#0066ff"/>
      <stop offset="1.0" stop-color="#ffffff"/>
    </radialGradient>
  </defs>
</svg>
