<?xml version="1.0" encoding="UTF-8" standalone="no"?>
<svg xmlns:xlink="http://www.w3.org/1999/xlink" height="12.75px" width="26.1px" xmlns="http://www.w3.org/2000/svg">
  <g transform="matrix(1.0, 0.0, 0.0, 1.0, 12.9, 4.45)">
    <path d="M-3.75 7.15 L-3.15 7.35 -2.8 7.45 -1.2 7.65 0.05 7.5 1.5 7.75 3.15 7.55 3.75 7.35 3.95 7.3 6.4 6.1 Q9.1 4.5 10.8 2.15 12.5 -0.15 12.15 -1.75 11.75 -3.4 9.65 -3.4 7.45 -3.4 4.75 -1.75 2.0 -0.15 0.3 2.15 L0.2 2.35 0.0 2.1 Q-1.7 -0.2 -4.4 -1.85 -7.15 -3.45 -9.3 -3.45 -11.45 -3.45 -11.8 -1.85 -12.2 -0.2 -10.5 2.1 -8.8 4.4 -6.05 6.05 L-3.75 7.15" fill="url(#gradient0)" fill-rule="evenodd" stroke="none"/>
    <path d="M3.95 7.3 L6.4 6.1 Q9.1 4.5 10.8 2.15 12.5 -0.15 12.15 -1.75 11.75 -3.4 9.65 -3.4 7.45 -3.4 4.75 -1.75 2.0 -0.15 0.3 2.15 L0.2 2.35 0.0 2.1 Q-1.7 -0.2 -4.4 -1.85 -7.15 -3.45 -9.3 -3.45 -11.45 -3.45 -11.8 -1.85 -12.2 -0.2 -10.5 2.1 -8.8 4.4 -6.05 6.05 L-3.75 7.15" fill="none" stroke="#000000" stroke-linecap="round" stroke-linejoin="round" stroke-width="2.0"/>
  </g>
  <defs>
    <radialGradient cx="0" cy="0" gradientTransform="matrix(0.0363, 0.0, 0.0, -0.0136, -6.8, 4.35)" gradientUnits="userSpaceOnUse" id="gradient0" r="819.2" spreadMethod="pad">
      <stop offset="0.0" stop-color="#0066ff"/>
      <stop offset="1.0" stop-color="#ffffff"/>
    </radialGradient>
  </defs>
</svg>
