<?xml version="1.0" encoding="UTF-8" standalone="no"?>
<svg xmlns:xlink="http://www.w3.org/1999/xlink" height="9.75px" width="10.6px" xmlns="http://www.w3.org/2000/svg">
  <g transform="matrix(1.0, 0.0, 0.0, 1.0, 5.1, -1.85)">
    <path d="M1.7 1.85 Q2.4 1.9 2.7 2.5 L2.8 2.7 Q5.45 2.95 4.95 5.5 L4.65 6.05 Q5.45 6.6 5.5 7.6 5.55 8.1 5.2 8.45 5.5 10.35 3.25 10.4 L1.95 10.65 0.8 11.0 -1.3 11.05 -1.55 10.75 Q-3.2 10.95 -4.35 9.7 L-4.65 8.95 -4.6 7.4 Q-5.05 7.1 -5.1 6.55 L-5.0 6.05 Q-3.05 3.8 -0.25 3.7 L0.85 2.25 Q1.25 1.9 1.7 1.85" fill="url(#gradient0)" fill-rule="evenodd" stroke="none"/>
  </g>
  <defs>
    <radialGradient cx="0" cy="0" gradientTransform="matrix(0.0074, 0.0, 0.0, 0.0074, 0.2, 6.7)" gradientUnits="userSpaceOnUse" id="gradient0" r="819.2" spreadMethod="pad">
      <stop offset="0.0" stop-color="#4e0707"/>
      <stop offset="0.16470588235294117" stop-color="#b41010"/>
      <stop offset="0.5294117647058824" stop-color="#e23612"/>
      <stop offset="0.807843137254902" stop-color="#fd5037"/>
      <stop offset="1.0" stop-color="#fd5037" stop-opacity="0.0"/>
    </radialGradient>
  </defs>
</svg>
