<?xml version="1.0" encoding="UTF-8" standalone="no"?>
<svg xmlns:xlink="http://www.w3.org/1999/xlink" height="46.0px" width="46.5px" xmlns="http://www.w3.org/2000/svg">
  <g transform="matrix(1.0, 0.0, 0.0, 1.0, 23.25, 23.0)">
    <path d="M0.0 -22.5 Q9.4 -22.5 16.05 -15.9 22.75 -9.3 22.75 0.0 22.75 9.3 16.05 15.9 9.4 22.5 0.0 22.5 -9.4 22.5 -16.1 15.9 -22.75 9.3 -22.75 0.0 -22.75 -9.3 -16.1 -15.9 -9.4 -22.5 0.0 -22.5 Z" fill="none" stroke="#000000" stroke-linecap="round" stroke-linejoin="round" stroke-width="1.0"/>
    <path d="M-11.35 2.45 Q-11.35 1.95 -11.5 1.5 L-19.2 1.5 Q-18.8 1.95 -17.85 1.95 L-16.0 1.95 Q-15.1 1.95 -15.1 2.65 -15.1 3.6 -16.55 3.6 -17.2 3.6 -17.95 2.9 -18.7 2.15 -19.2 2.15 -19.95 2.15 -20.5 2.65 -21.0 3.2 -21.0 3.95 -21.0 5.3 -19.55 6.15 -18.3 6.85 -16.85 6.85 -14.8 6.85 -13.15 5.7 -11.35 4.4 -11.35 2.45 M-4.3 1.5 L-4.35 2.0 Q-4.55 3.7 -5.85 3.7 -6.95 3.7 -6.95 2.3 L-6.9 1.5 -10.45 1.5 -10.55 2.65 Q-10.55 4.45 -9.3 5.65 -8.0 6.9 -6.2 6.9 -4.15 6.9 -2.65 5.55 -1.15 4.25 -0.9 2.2 L-0.8 1.5 -4.3 1.5 M-6.75 -0.5 L-6.45 -2.05 Q-6.0 -3.2 -5.1 -3.2 -3.9 -3.2 -4.0 -1.9 L-4.1 -0.5 -0.55 -0.5 -0.4 -2.35 Q-0.4 -4.15 -1.7 -5.25 -2.95 -6.35 -4.8 -6.35 -6.9 -6.35 -8.35 -5.1 -9.85 -3.8 -10.05 -1.75 L-10.2 -0.5 -6.75 -0.5 M-19.6 -5.75 Q-20.2 -5.35 -20.25 -4.8 L-20.45 -2.55 Q-20.45 -1.95 -20.05 -1.5 -19.65 -1.1 -19.0 -1.1 -18.25 -1.1 -17.75 -1.55 -17.3 -2.05 -17.2 -2.8 L-15.6 -2.8 Q-14.7 -2.8 -14.7 -2.05 -14.7 -1.05 -15.9 -0.95 L-17.65 -0.95 -18.95 -0.6 -19.05 -0.5 -12.0 -0.5 Q-11.4 -1.4 -11.4 -2.65 -11.4 -4.25 -12.35 -5.15 -13.25 -6.05 -14.8 -6.05 L-18.45 -6.05 -19.6 -5.75 M9.6 2.2 L9.7 1.5 6.2 1.5 6.15 2.0 Q5.95 3.7 4.65 3.7 3.55 3.7 3.55 2.3 L3.6 1.5 0.05 1.5 -0.05 2.65 Q-0.05 4.45 1.2 5.65 2.5 6.9 4.3 6.9 6.35 6.9 7.85 5.55 9.35 4.25 9.6 2.2 M18.35 5.55 Q19.85 4.25 20.1 2.2 L20.2 1.5 16.7 1.5 16.65 2.0 Q16.45 3.7 15.15 3.7 14.05 3.7 14.05 2.3 L14.1 1.5 10.55 1.5 10.45 2.65 Q10.45 4.45 11.7 5.65 13.0 6.9 14.8 6.9 16.85 6.9 18.35 5.55 M20.35 -8.05 Q21.75 -6.55 21.8 -4.5 L21.8 4.5 Q21.75 6.55 20.35 8.0 19.0 9.5 17.05 9.5 L-17.0 9.5 Q-18.95 9.5 -20.35 8.0 -21.7 6.55 -21.7 4.5 L-21.7 -4.5 Q-21.7 -6.55 -20.35 -8.05 -18.95 -9.5 -17.0 -9.5 L17.05 -9.5 Q19.0 -9.5 20.35 -8.05 M12.65 -5.1 Q11.15 -3.8 10.95 -1.75 L10.8 -0.5 14.25 -0.5 14.55 -2.05 Q15.0 -3.2 15.9 -3.2 17.1 -3.2 17.0 -1.9 L16.9 -0.5 20.45 -0.5 20.6 -2.35 Q20.6 -4.15 19.3 -5.25 18.05 -6.35 16.2 -6.35 14.1 -6.35 12.65 -5.1 M2.15 -5.1 Q0.65 -3.8 0.45 -1.75 L0.3 -0.5 3.75 -0.5 4.05 -2.05 Q4.5 -3.2 5.4 -3.2 6.6 -3.2 6.5 -1.9 L6.4 -0.5 9.95 -0.5 10.1 -2.35 Q10.1 -4.15 8.8 -5.25 7.55 -6.35 5.7 -6.35 3.6 -6.35 2.15 -5.1" fill="#000000" fill-rule="evenodd" stroke="none"/>
  </g>
</svg>
