<?xml version="1.0" encoding="UTF-8" standalone="no"?>
<svg xmlns:xlink="http://www.w3.org/1999/xlink" height="37.0px" width="34.0px" xmlns="http://www.w3.org/2000/svg">
  <g transform="matrix(1.0, 0.0, 0.0, 1.0, 16.5, 13.5)">
    <path d="M-3.75 1.25 L-3.15 0.85 -2.8 0.65 -1.2 0.25 Q-0.45 0.25 0.05 0.6 0.65 0.1 1.5 0.1 L3.15 0.5 3.75 0.85 3.95 1.0 Q5.1 1.8 6.4 3.35 9.1 6.6 10.8 11.25 12.5 15.85 12.15 19.1 11.75 22.35 9.65 22.35 7.45 22.35 4.75 19.1 2.0 15.85 0.3 11.25 L0.2 10.9 0.0 11.4 Q-1.7 16.0 -4.4 19.25 -7.15 22.5 -9.3 22.5 -11.45 22.5 -11.8 19.25 -12.2 16.0 -10.5 11.4 -8.8 6.75 -6.05 3.5 -4.85 2.05 -3.75 1.25" fill="url(#gradient0)" fill-rule="evenodd" stroke="none"/>
    <path d="M3.95 1.0 Q5.1 1.8 6.4 3.35 9.1 6.6 10.8 11.25 12.5 15.85 12.15 19.1 11.75 22.35 9.65 22.35 7.45 22.35 4.75 19.1 2.0 15.85 0.3 11.25 L0.2 10.9 0.0 11.4 Q-1.7 16.0 -4.4 19.25 -7.15 22.5 -9.3 22.5 -11.45 22.5 -11.8 19.25 -12.2 16.0 -10.5 11.4 -8.8 6.75 -6.05 3.5 -4.85 2.05 -3.75 1.25" fill="none" stroke="#000000" stroke-linecap="round" stroke-linejoin="round" stroke-width="2.0"/>
    <path d="M11.8 -9.35 Q16.5 -7.65 16.5 -5.25 16.5 -2.85 11.8 -1.2 7.15 0.5 0.5 0.5 -6.15 0.5 -10.85 -1.2 -15.5 -2.85 -15.5 -5.25 -15.5 -7.65 -10.85 -9.35 -6.15 -11.0 0.5 -11.0 7.15 -11.0 11.8 -9.35" fill="url(#gradient1)" fill-rule="evenodd" stroke="none"/>
    <path d="M11.8 -9.35 Q16.5 -7.65 16.5 -5.25 16.5 -2.85 11.8 -1.2 7.15 0.5 0.5 0.5 -6.15 0.5 -10.85 -1.2 -15.5 -2.85 -15.5 -5.25 -15.5 -7.65 -10.85 -9.35 -6.15 -11.0 0.5 -11.0 7.15 -11.0 11.8 -9.35 Z" fill="none" stroke="#000000" stroke-linecap="round" stroke-linejoin="round" stroke-width="2.0"/>
    <path d="M-1.9 -12.2 L-1.9 -11.0 Q-1.85 -10.5 -1.4 -10.3 L-0.9 -10.1 Q-0.3 -8.35 1.25 -9.55 L1.7 -10.05 Q3.05 -10.3 3.8 -11.45 L3.95 -11.85 Q5.1 -11.75 5.75 -10.85 6.25 -10.15 5.55 -9.6 L4.75 -9.15 Q4.65 -8.05 3.55 -8.0 L-2.35 -8.15 Q-2.7 -8.15 -2.85 -8.5 L-3.0 -8.85 Q-4.5 -8.7 -4.85 -10.05 L-4.85 -11.2 -4.8 -11.55 Q-4.4 -12.2 -3.7 -12.15 L-1.9 -12.2" fill="url(#gradient2)" fill-rule="evenodd" stroke="none"/>
    <path d="M3.95 -11.85 L3.8 -11.45 Q3.05 -10.3 1.7 -10.05 L1.25 -9.55 Q-0.3 -8.35 -0.9 -10.1 L-1.4 -10.3 Q-1.85 -10.5 -1.9 -11.0 L-1.9 -12.2 -1.8 -12.7 -1.5 -13.05 -1.3 -13.2 -0.7 -13.4 Q2.15 -13.9 3.75 -12.2 L3.95 -11.85" fill="url(#gradient3)" fill-rule="evenodd" stroke="none"/>
  </g>
  <defs>
    <radialGradient cx="0" cy="0" gradientTransform="matrix(0.0363, 0.0, 0.0, 0.0271, -6.8, 6.9)" gradientUnits="userSpaceOnUse" id="gradient0" r="819.2" spreadMethod="pad">
      <stop offset="0.0" stop-color="#0066ff"/>
      <stop offset="1.0" stop-color="#ffffff"/>
    </radialGradient>
    <radialGradient cx="0" cy="0" gradientTransform="matrix(0.0257, 0.0, 0.0, 0.0196, -6.0, -5.75)" gradientUnits="userSpaceOnUse" id="gradient1" r="819.2" spreadMethod="pad">
      <stop offset="0.3843137254901961" stop-color="#0066ff"/>
      <stop offset="1.0" stop-color="#ffffff"/>
    </radialGradient>
    <radialGradient cx="0" cy="0" gradientTransform="matrix(0.0071, 0.0, 0.0, 0.0071, 0.5, -10.2)" gradientUnits="userSpaceOnUse" id="gradient2" r="819.2" spreadMethod="pad">
      <stop offset="0.0" stop-color="#4e0707"/>
      <stop offset="0.16470588235294117" stop-color="#b41010"/>
      <stop offset="0.5294117647058824" stop-color="#e23612"/>
      <stop offset="0.807843137254902" stop-color="#fd5037"/>
      <stop offset="1.0" stop-color="#fd5037" stop-opacity="0.0"/>
    </radialGradient>
    <radialGradient cx="0" cy="0" gradientTransform="matrix(0.0043, 0.0, 0.0, 0.0043, 1.0, -11.3)" gradientUnits="userSpaceOnUse" id="gradient3" r="819.2" spreadMethod="pad">
      <stop offset="0.0" stop-color="#4e0707"/>
      <stop offset="0.16470588235294117" stop-color="#b41010"/>
      <stop offset="0.5294117647058824" stop-color="#e23612"/>
      <stop offset="0.807843137254902" stop-color="#fd5037"/>
      <stop offset="1.0" stop-color="#fd5037" stop-opacity="0.0"/>
    </radialGradient>
  </defs>
</svg>
