<?xml version="1.0" encoding="UTF-8" standalone="no"?>
<svg xmlns:xlink="http://www.w3.org/1999/xlink" height="13.5px" width="34.0px" xmlns="http://www.w3.org/2000/svg">
  <g transform="matrix(1.0, 0.0, 0.0, 1.0, 16.5, 12.0)">
    <path d="M11.8 -9.35 Q16.5 -7.65 16.5 -5.25 16.5 -2.85 11.8 -1.2 7.15 0.5 0.5 0.5 -6.15 0.5 -10.85 -1.2 -15.5 -2.85 -15.5 -5.25 -15.5 -7.65 -10.85 -9.35 -6.15 -11.0 0.5 -11.0 7.15 -11.0 11.8 -9.35" fill="url(#gradient0)" fill-rule="evenodd" stroke="none"/>
    <path d="M11.8 -9.35 Q16.5 -7.65 16.5 -5.25 16.5 -2.85 11.8 -1.2 7.15 0.5 0.5 0.5 -6.15 0.5 -10.85 -1.2 -15.5 -2.85 -15.5 -5.25 -15.5 -7.65 -10.85 -9.35 -6.15 -11.0 0.5 -11.0 7.15 -11.0 11.8 -9.35 Z" fill="none" stroke="#000000" stroke-linecap="round" stroke-linejoin="round" stroke-width="2.0"/>
  </g>
  <defs>
    <radialGradient cx="0" cy="0" gradientTransform="matrix(0.0257, 0.0, 0.0, 0.0196, -6.0, -5.75)" gradientUnits="userSpaceOnUse" id="gradient0" r="819.2" spreadMethod="pad">
      <stop offset="0.3843137254901961" stop-color="#0066ff"/>
      <stop offset="1.0" stop-color="#ffffff"/>
    </radialGradient>
  </defs>
</svg>
