<?xml version="1.0" encoding="UTF-8" standalone="no"?>
<svg xmlns:xlink="http://www.w3.org/1999/xlink" height="46.0px" width="46.5px" xmlns="http://www.w3.org/2000/svg">
  <g transform="matrix(1.0, 0.0, 0.0, 1.0, 23.25, 23.0)">
    <path d="M0.0 -22.5 Q9.4 -22.5 16.05 -15.9 22.75 -9.3 22.75 0.0 22.75 9.3 16.05 15.9 9.4 22.5 0.0 22.5 -9.4 22.5 -16.1 15.9 -22.75 9.3 -22.75 0.0 -22.75 -9.3 -16.1 -15.9 -9.4 -22.5 0.0 -22.5 Z" fill="none" stroke="#000000" stroke-linecap="round" stroke-linejoin="round" stroke-width="1.0"/>
    <path d="M-11.45 4.25 L-11.25 2.45 Q-11.25 1.85 -11.7 1.5 -12.15 1.1 -12.75 1.1 -14.45 1.1 -14.55 2.75 L-15.8 2.75 -13.7 0.5 -18.0 0.5 -20.75 3.25 Q-21.25 3.8 -21.25 4.55 -21.25 5.2 -20.75 5.55 L-19.65 5.9 -13.2 5.9 Q-11.85 5.9 -11.45 4.25 M-2.25 4.85 Q-0.75 3.45 -0.75 1.35 L-0.8 0.5 -9.35 0.5 Q-8.95 0.9 -8.1 0.95 L-6.8 0.95 -5.55 0.95 Q-4.55 1.05 -4.55 1.85 -4.55 2.4 -4.9 2.7 -5.3 3.0 -5.85 3.0 -6.5 3.0 -6.95 2.55 L-7.75 1.65 Q-8.15 1.2 -8.75 1.2 -9.45 1.2 -10.0 1.75 -10.55 2.25 -10.55 2.95 -10.55 4.45 -8.9 5.4 -7.5 6.2 -5.9 6.2 -3.75 6.2 -2.25 4.85 M-5.95 -2.3 L-5.8 -3.7 -3.85 -3.7 Q-3.95 -3.0 -3.55 -2.6 -3.15 -2.2 -2.45 -2.2 -1.0 -2.2 -0.55 -3.65 L-0.4 -5.25 Q-0.4 -6.7 -2.0 -6.7 L-7.3 -6.7 Q-9.0 -6.7 -9.2 -5.05 L-9.6 -1.5 -2.15 -1.5 Q-3.0 -2.15 -4.3 -2.25 L-5.95 -2.3 M-20.5 -2.4 L-20.35 -1.5 -17.0 -1.5 -17.0 -1.75 -17.0 -2.1 -17.05 -2.45 Q-17.05 -3.75 -16.0 -3.75 -15.1 -3.75 -15.1 -2.95 -15.1 -2.4 -15.5 -2.05 L-16.05 -1.5 -12.0 -1.5 Q-11.4 -2.5 -11.4 -3.5 -11.4 -5.2 -12.7 -6.15 -13.85 -7.0 -15.6 -7.0 -17.7 -7.0 -19.05 -5.75 -20.5 -4.45 -20.5 -2.4 M8.0 4.9 Q9.5 3.6 9.75 1.55 L9.9 0.5 6.4 0.5 6.3 1.35 Q6.1 3.05 4.8 3.05 3.7 3.05 3.7 1.65 L3.75 0.5 0.25 0.5 0.1 2.0 Q0.1 3.8 1.35 5.0 2.65 6.25 4.45 6.25 6.5 6.25 8.0 4.9 M20.25 1.55 L20.4 0.5 16.9 0.5 16.8 1.35 Q16.6 3.05 15.3 3.05 14.2 3.05 14.2 1.65 L14.25 0.5 10.75 0.5 10.6 2.0 Q10.6 3.8 11.85 5.0 13.15 6.25 14.95 6.25 17.0 6.25 18.5 4.9 20.0 3.6 20.25 1.55 M20.3 -8.3 Q21.7 -6.8 21.75 -4.75 L21.75 4.25 Q21.7 6.3 20.3 7.75 18.95 9.25 17.0 9.25 L-17.05 9.25 Q-19.0 9.25 -20.4 7.75 -21.75 6.3 -21.75 4.25 L-21.75 -4.75 Q-21.75 -6.8 -20.4 -8.3 -19.0 -9.75 -17.05 -9.75 L17.0 -9.75 Q18.95 -9.75 20.3 -8.3 M14.4 -1.5 L14.7 -2.7 Q15.15 -3.85 16.05 -3.85 17.25 -3.85 17.15 -2.55 L17.1 -1.5 20.6 -1.5 20.75 -3.0 Q20.75 -4.8 19.45 -5.9 18.2 -7.0 16.35 -7.0 14.25 -7.0 12.8 -5.75 11.3 -4.45 11.1 -2.4 L11.0 -1.5 14.4 -1.5 M2.3 -5.75 Q0.8 -4.45 0.6 -2.4 L0.5 -1.5 3.9 -1.5 4.2 -2.7 Q4.65 -3.85 5.55 -3.85 6.75 -3.85 6.65 -2.55 L6.6 -1.5 10.1 -1.5 10.25 -3.0 Q10.25 -4.8 8.95 -5.9 7.7 -7.0 5.85 -7.0 3.75 -7.0 2.3 -5.75" fill="#000000" fill-rule="evenodd" stroke="none"/>
  </g>
</svg>
