<?xml version="1.0" encoding="UTF-8" standalone="no"?>
<svg xmlns:xlink="http://www.w3.org/1999/xlink" height="76.0px" width="107.3px" xmlns="http://www.w3.org/2000/svg">
  <g transform="matrix(1.0, 0.0, 0.0, 1.0, 50.9, 42.3)">
    <path d="M8.5 -41.95 Q13.45 -43.15 17.1 -40.05 20.8 -36.95 22.2 -32.0 23.45 -27.4 25.2 -23.35 26.1 -21.2 28.4 -21.55 33.1 -22.3 37.75 -20.55 42.3 -18.85 46.2 -15.95 50.0 -13.15 52.8 -9.4 55.55 -5.85 55.3 -1.25 55.05 3.8 56.1 8.55 57.4 14.1 52.8 16.8 48.95 19.05 45.6 22.6 L42.65 26.05 Q39.55 30.0 34.75 28.3 30.1 26.65 26.6 23.6 22.6 20.1 17.95 21.2 16.6 21.5 15.65 22.1 11.9 24.4 9.15 28.75 L8.2 30.1 Q4.85 34.3 -0.55 33.6 -5.05 33.05 -9.1 30.9 -13.4 28.65 -16.25 25.0 -16.85 24.25 -17.65 24.0 L-26.6 23.65 -35.95 24.05 Q-40.8 23.35 -44.4 19.6 -47.6 16.3 -49.55 12.15 -50.6 9.85 -50.85 7.45 -51.3 2.2 -46.9 -0.3 L-38.25 -4.75 Q-34.9 -6.35 -34.5 -9.3 -33.85 -14.25 -35.95 -18.65 -37.95 -22.95 -37.8 -28.0 -37.7 -33.35 -32.45 -34.75 -27.95 -36.0 -23.6 -37.55 -19.55 -39.0 -15.25 -39.15 -10.8 -39.35 -6.75 -37.75 -3.45 -37.95 -0.45 -39.1 3.8 -40.8 8.5 -41.95" fill="url(#gradient0)" fill-rule="evenodd" stroke="none"/>
  </g>
  <defs>
    <radialGradient cx="0" cy="0" gradientTransform="matrix(0.0559, 0.0, 0.0, 0.0563, -7.0, -14.0)" gradientUnits="userSpaceOnUse" id="gradient0" r="819.2" spreadMethod="pad">
      <stop offset="0.0" stop-color="#21cff3"/>
      <stop offset="1.0" stop-color="#d0f2f9"/>
    </radialGradient>
  </defs>
</svg>
