<?xml version="1.0" encoding="UTF-8" standalone="no"?>
<svg xmlns:xlink="http://www.w3.org/1999/xlink" height="6.8px" width="7.8px" xmlns="http://www.w3.org/2000/svg">
  <g transform="matrix(1.0, 0.0, 0.0, 1.0, 3.75, 3.65)">
    <path d="M0.35 -2.75 L0.85 -2.75 1.05 -2.75 Q1.25 -2.8 1.45 -2.95 L1.6 -3.0 2.1 -3.0 2.2 -3.05 2.6 -3.1 3.0 -2.85 3.25 -2.7 3.35 -2.6 3.5 -2.45 3.55 -2.25 3.5 -2.05 3.45 -1.85 3.45 -1.75 3.35 -0.85 3.35 -0.75 3.3 -0.6 3.15 -0.05 3.1 0.0 2.85 0.25 2.8 0.3 2.5 0.65 2.35 0.95 2.35 1.5 Q2.4 2.05 2.0 2.3 L1.85 2.4 1.65 2.4 1.4 2.35 0.85 2.25 0.8 2.25 0.25 2.2 0.05 2.1 -0.3 2.0 -0.35 2.05 -0.45 2.15 -1.15 2.6 -1.25 2.65 -1.75 2.5 -1.9 2.35 Q-2.35 2.0 -2.9 1.8 L-3.0 1.7 -3.05 1.6 -3.0 1.55 -2.95 1.4 -2.95 1.3 -3.15 0.95 -3.2 0.45 -3.2 0.35 -3.25 0.1 -3.2 -0.35 -2.8 -1.0 -2.7 -1.1 -2.15 -1.1 -1.9 -1.1 -1.75 -1.2 -1.7 -1.3 -1.55 -1.7 -1.45 -1.8 -1.15 -2.05 -1.1 -2.15 -0.9 -2.4 -0.75 -2.5 0.35 -2.75" fill="url(#gradient0)" fill-rule="evenodd" stroke="none"/>
    <path d="M0.35 -2.75 L-0.75 -2.5 -0.9 -2.4 -1.1 -2.15 -1.15 -2.05 -1.45 -1.8 -1.55 -1.7 -1.7 -1.3 -1.75 -1.2 -1.9 -1.1 -2.15 -1.1 -2.7 -1.1 -2.8 -1.0 -3.2 -0.35 -3.25 0.1 -3.2 0.35 -3.2 0.45 -3.15 0.95 -2.95 1.3 -2.95 1.4 -3.0 1.55 -3.05 1.6 -3.0 1.7 -2.9 1.8 Q-2.35 2.0 -1.9 2.35 L-1.75 2.5 -1.25 2.65 -1.15 2.6 -0.45 2.15 -0.35 2.05 -0.3 2.0 0.05 2.1 0.25 2.2 0.8 2.25 0.85 2.25 1.4 2.35 1.65 2.4 1.85 2.4 2.0 2.3 Q2.4 2.05 2.35 1.5 L2.35 0.95 2.5 0.65 2.8 0.3 2.85 0.25 3.1 0.0 3.15 -0.05 3.3 -0.6 3.35 -0.75 3.35 -0.85 3.45 -1.75 3.45 -1.85 3.5 -2.05 3.55 -2.25 3.5 -2.45 3.35 -2.6 3.25 -2.7 3.0 -2.85 2.6 -3.1 2.2 -3.05 2.1 -3.0 1.6 -3.0 1.45 -2.95 Q1.25 -2.8 1.05 -2.75 L0.85 -2.75 0.35 -2.75 Z" fill="none" stroke="#000000" stroke-linecap="round" stroke-linejoin="round" stroke-width="1.0"/>
  </g>
  <defs>
    <radialGradient cx="0" cy="0" gradientTransform="matrix(0.0036, 0.0, 0.0, 0.0036, 0.3, -0.2)" gradientUnits="userSpaceOnUse" id="gradient0" r="819.2" spreadMethod="pad">
      <stop offset="0.0" stop-color="#21cff3"/>
      <stop offset="0.3686274509803922" stop-color="#88e9f7"/>
      <stop offset="1.0" stop-color="#ffffff"/>
    </radialGradient>
  </defs>
</svg>
