<?xml version="1.0" encoding="UTF-8" standalone="no"?>
<svg xmlns:xlink="http://www.w3.org/1999/xlink" height="70.55px" width="57.5px" xmlns="http://www.w3.org/2000/svg">
  <g transform="matrix(1.0, 0.0, 0.0, 1.0, 57.45, 8.55)">
    <path d="M-14.95 4.8 L-2.95 -8.05 -0.45 -5.7 -12.3 6.95 -13.0 7.7 -15.45 5.35 -14.95 4.8" fill="url(#gradient0)" fill-rule="evenodd" stroke="none"/>
    <path d="M-52.75 39.35 Q-46.75 40.5 -42.8 35.95 -39.9 32.65 -36.15 34.05 -33.15 35.2 -29.6 35.0 L-29.1 35.45 -52.55 61.0 Q-60.2 53.65 -52.8 39.45 L-52.75 39.35" fill="#999999" fill-rule="evenodd" stroke="none"/>
    <path d="M-12.3 6.95 L-7.6 10.95 -7.05 11.45 -29.1 35.45 -29.6 35.0 Q-33.15 35.2 -36.15 34.05 -39.9 32.65 -42.8 35.95 -46.75 40.5 -52.75 39.35 -44.8 24.1 -19.55 0.95 L-14.95 4.8 -15.45 5.35 -13.0 7.7 -12.3 6.95" fill="url(#gradient1)" fill-rule="evenodd" stroke="none"/>
    <path d="M-12.3 6.95 L-7.6 10.95 M-7.05 11.45 L-6.6 10.95 M-14.95 4.8 L-19.55 0.95 Q-44.8 24.1 -52.75 39.35 M-29.1 35.45 L-7.05 11.45 M-52.8 39.45 Q-60.2 53.65 -52.55 61.0 L-29.1 35.45" fill="none" stroke="#000000" stroke-linecap="round" stroke-linejoin="round" stroke-width="2.0"/>
    <path d="M-14.95 4.8 L-2.95 -8.05 -0.45 -5.7 -12.3 6.95 -13.0 7.7 -15.45 5.35 -14.95 4.8" fill="none" stroke="#000000" stroke-linecap="round" stroke-linejoin="round" stroke-width="1.0"/>
    <path d="M-52.75 39.35 Q-46.75 40.5 -42.8 35.95 -39.9 32.65 -36.15 34.05 -33.15 35.2 -29.6 35.0 M-52.75 39.35 L-52.8 39.45" fill="none" stroke="#000000" stroke-linecap="round" stroke-linejoin="round" stroke-width="1.0"/>
  </g>
  <defs>
    <radialGradient cx="0" cy="0" gradientTransform="matrix(0.0115, 0.0, 0.0, 0.0115, -7.95, -0.2)" gradientUnits="userSpaceOnUse" id="gradient0" r="819.2" spreadMethod="pad">
      <stop offset="0.0" stop-color="#21cff3"/>
      <stop offset="0.5764705882352941" stop-color="#d0f2f9"/>
      <stop offset="1.0" stop-color="#ffffff"/>
    </radialGradient>
    <radialGradient cx="0" cy="0" gradientTransform="matrix(0.0269, 0.0, 0.0, 0.0269, -22.8, 14.2)" gradientUnits="userSpaceOnUse" id="gradient1" r="819.2" spreadMethod="pad">
      <stop offset="0.0" stop-color="#21cff3"/>
      <stop offset="0.5764705882352941" stop-color="#d0f2f9"/>
      <stop offset="1.0" stop-color="#ffffff"/>
    </radialGradient>
  </defs>
</svg>
