<?xml version="1.0" encoding="UTF-8" standalone="no"?>
<svg xmlns:xlink="http://www.w3.org/1999/xlink" height="28.1px" width="29.7px" xmlns="http://www.w3.org/2000/svg">
  <g transform="matrix(1.0, 0.0, 0.0, 1.0, 14.9, 14.15)">
    <path d="M0.0 -6.75 L0.15 -6.75 Q3.1 -6.75 5.2 -4.8 7.25 -2.85 7.3 -0.15 L14.3 -0.15 14.3 -0.1 Q14.3 5.5 10.1 9.45 5.9 13.45 0.0 13.45 L0.0 6.8 0.15 6.8 Q3.1 6.8 5.2 4.8 7.3 2.8 7.3 0.0 L7.3 -0.15 4.4 -0.15 Q4.35 -1.7 3.15 -2.85 1.85 -4.05 0.1 -4.05 L0.0 -4.05 0.0 -6.75 Q-2.9 -6.75 -4.95 -4.8 -7.0 -2.85 -7.05 -0.15 L-4.2 -0.15 Q-4.15 -1.7 -2.95 -2.85 -1.75 -4.0 0.0 -4.05 L0.0 -0.15 -4.2 -0.15 -4.2 0.05 Q-4.2 1.7 -2.95 2.9 -1.75 4.05 0.0 4.1 L0.0 6.8 Q-2.9 6.75 -4.95 4.8 -7.05 2.8 -7.05 0.0 L-7.05 -0.15 -14.4 -0.15 Q-14.4 -5.7 -10.2 -9.7 -6.0 -13.65 -0.05 -13.65 L0.0 -13.65 0.0 -6.75 M0.0 4.1 L0.0 -0.15 4.4 -0.15 4.4 0.05 Q4.4 1.7 3.15 2.9 1.85 4.05 0.1 4.1 L0.0 4.1" fill="#6633cc" fill-rule="evenodd" stroke="none"/>
    <path d="M7.3 -0.15 L14.3 -0.15 M0.0 -13.65 L0.0 -6.75 0.0 -4.05 0.0 -0.15 0.0 4.1 0.0 6.8 0.0 13.45 M4.4 -0.15 L7.3 -0.15 M4.4 -0.15 L0.0 -0.15 -4.2 -0.15 -7.05 -0.15 -14.4 -0.15" fill="none" stroke="#6633cc" stroke-linecap="round" stroke-linejoin="round" stroke-width="1.0"/>
    <path d="M0.0 -6.75 L0.15 -6.75 Q3.1 -6.75 5.2 -4.8 7.25 -2.85 7.3 -0.15 L7.3 0.0 Q7.3 2.8 5.2 4.8 3.1 6.8 0.15 6.8 L0.0 6.8 Q-2.9 6.75 -4.95 4.8 -7.05 2.8 -7.05 0.0 L-7.05 -0.15 Q-7.0 -2.85 -4.95 -4.8 -2.9 -6.75 0.0 -6.75 M14.3 -0.15 Q14.3 -5.7 10.1 -9.7 5.9 -13.65 0.0 -13.65 L-0.05 -13.65 Q-6.0 -13.65 -10.2 -9.7 -14.4 -5.7 -14.4 -0.15 L-14.4 -0.1 Q-14.4 5.5 -10.2 9.45 -6.0 13.45 -0.05 13.45 L0.0 13.45 Q5.9 13.45 10.1 9.45 14.3 5.5 14.3 -0.1 L14.3 -0.15 M0.0 -4.05 L0.1 -4.05 Q1.85 -4.05 3.15 -2.85 4.35 -1.7 4.4 -0.15 L4.4 0.05 Q4.4 1.7 3.15 2.9 1.85 4.05 0.1 4.1 L0.0 4.1 Q-1.75 4.05 -2.95 2.9 -4.2 1.7 -4.2 0.05 L-4.2 -0.15 Q-4.15 -1.7 -2.95 -2.85 -1.75 -4.0 0.0 -4.05 Z" fill="none" stroke="#6633cc" stroke-linecap="round" stroke-linejoin="round" stroke-width="1.0"/>
  </g>
</svg>
