<?xml version="1.0" encoding="UTF-8" standalone="no"?>
<svg xmlns:xlink="http://www.w3.org/1999/xlink" height="5.45px" width="5.95px" xmlns="http://www.w3.org/2000/svg">
  <g transform="matrix(1.0, 0.0, 0.0, 1.0, 2.95, -5.75)">
    <path d="M2.9 8.5 Q2.9 9.55 2.05 10.35 1.2 11.1 0.0 11.1 -1.2 11.1 -2.0 10.35 -2.85 9.55 -2.85 8.5 -2.85 7.4 -2.0 6.65 -1.2 5.85 0.0 5.85 1.2 5.85 2.05 6.65 2.9 7.4 2.9 8.5" fill="url(#gradient0)" fill-rule="evenodd" stroke="none"/>
    <path d="M2.9 8.5 Q2.9 9.55 2.05 10.35 1.2 11.1 0.0 11.1 -1.2 11.1 -2.0 10.35 -2.85 9.55 -2.85 8.5 -2.85 7.4 -2.0 6.65 -1.2 5.85 0.0 5.85 1.2 5.85 2.05 6.65 2.9 7.4 2.9 8.5 Z" fill="none" stroke="#000000" stroke-linecap="round" stroke-linejoin="round" stroke-width="0.25"/>
  </g>
  <defs>
    <radialGradient cx="0" cy="0" gradientTransform="matrix(0.0055, -0.0027, 0.0018, 0.0038, 0.75, 9.1)" gradientUnits="userSpaceOnUse" id="gradient0" r="819.2" spreadMethod="pad">
      <stop offset="0.0" stop-color="#517030"/>
      <stop offset="0.5764705882352941" stop-color="#b0d852"/>
      <stop offset="1.0" stop-color="#ffffff"/>
    </radialGradient>
  </defs>
</svg>
