<?xml version="1.0" encoding="UTF-8" standalone="no"?>
<svg xmlns:xlink="http://www.w3.org/1999/xlink" height="9.55px" width="7.15px" xmlns="http://www.w3.org/2000/svg">
  <g transform="matrix(1.0, 0.0, 0.0, 1.0, 3.55, 4.9)">
    <path d="M3.35 -0.15 Q3.35 1.75 2.35 3.05 1.4 4.4 0.0 4.4 -1.35 4.4 -2.35 3.05 -3.3 1.75 -3.3 -0.15 -3.3 -2.05 -2.35 -3.4 -1.35 -4.7 0.0 -4.65 1.4 -4.7 2.35 -3.4 3.35 -2.05 3.35 -0.15" fill="url(#gradient0)" fill-rule="evenodd" stroke="none"/>
    <path d="M3.35 -0.15 Q3.35 1.75 2.35 3.05 1.4 4.4 0.0 4.4 -1.35 4.4 -2.35 3.05 -3.3 1.75 -3.3 -0.15 -3.3 -2.05 -2.35 -3.4 -1.35 -4.7 0.0 -4.65 1.4 -4.7 2.35 -3.4 3.35 -2.05 3.35 -0.15 Z" fill="none" stroke="#000000" stroke-linecap="round" stroke-linejoin="round" stroke-width="0.5"/>
  </g>
  <defs>
    <radialGradient cx="0" cy="0" gradientTransform="matrix(0.0064, -0.0047, 0.0021, 0.0065, 0.9, 0.95)" gradientUnits="userSpaceOnUse" id="gradient0" r="819.2" spreadMethod="pad">
      <stop offset="0.0" stop-color="#960a0a"/>
      <stop offset="1.0" stop-color="#f74a33"/>
    </radialGradient>
  </defs>
</svg>
