<?xml version="1.0" encoding="UTF-8" standalone="no"?>
<svg xmlns:xlink="http://www.w3.org/1999/xlink" height="12.25px" width="5.15px" xmlns="http://www.w3.org/2000/svg">
  <g transform="matrix(1.0, 0.0, 0.0, 1.0, 2.55, 6.25)">
    <path d="M2.35 -0.15 Q2.35 2.3 1.65 4.0 1.0 5.75 0.0 5.75 -0.95 5.75 -1.65 4.0 -2.3 2.3 -2.3 -0.15 -2.3 -2.6 -1.65 -4.35 -0.95 -6.05 0.0 -6.0 1.0 -6.05 1.65 -4.35 2.35 -2.6 2.35 -0.15" fill="url(#gradient0)" fill-rule="evenodd" stroke="none"/>
    <path d="M2.35 -0.15 Q2.35 2.3 1.65 4.0 1.0 5.75 0.0 5.75 -0.95 5.75 -1.65 4.0 -2.3 2.3 -2.3 -0.15 -2.3 -2.6 -1.65 -4.35 -0.95 -6.05 0.0 -6.0 1.0 -6.05 1.65 -4.35 2.35 -2.6 2.35 -0.15 Z" fill="none" stroke="#000000" stroke-linecap="round" stroke-linejoin="round" stroke-width="0.5"/>
  </g>
  <defs>
    <radialGradient cx="0" cy="0" gradientTransform="matrix(0.0045, -0.0061, 0.0015, 0.0085, 0.65, 1.3)" gradientUnits="userSpaceOnUse" id="gradient0" r="819.2" spreadMethod="pad">
      <stop offset="0.0" stop-color="#960a0a"/>
      <stop offset="1.0" stop-color="#f74a33"/>
    </radialGradient>
  </defs>
</svg>
