<?xml version="1.0" encoding="UTF-8" standalone="no"?>
<svg xmlns:xlink="http://www.w3.org/1999/xlink" height="27.0px" width="28.15px" xmlns="http://www.w3.org/2000/svg">
  <g transform="matrix(1.0, 0.0, 0.0, 1.0, 14.05, 13.5)">
    <path d="M0.0 -2.55 L0.0 -13.0 0.05 -13.0 Q5.65 -13.0 9.6 -9.15 13.6 -5.4 13.6 0.0 L13.6 0.25 2.8 0.25 2.8 0.05 Q2.8 -1.05 2.0 -1.75 1.2 -2.55 0.1 -2.55 L0.0 -2.55 0.0 0.25 2.8 0.25 Q2.7 1.2 2.0 1.9 1.2 2.65 0.1 2.65 L0.0 2.65 0.0 13.0 Q-5.6 12.95 -9.55 9.2 -13.45 5.45 -13.55 0.25 L-2.6 0.25 -2.6 0.05 Q-2.6 -1.05 -1.8 -1.75 -1.05 -2.5 0.0 -2.55 M0.0 2.65 L0.0 0.25 -2.6 0.25 Q-2.55 1.2 -1.8 1.9 -1.05 2.6 0.0 2.65" fill="#ffff00" fill-rule="evenodd" stroke="none"/>
    <path d="M0.0 -2.55 L0.1 -2.55 Q1.2 -2.55 2.0 -1.75 2.8 -1.05 2.8 0.05 L2.8 0.25 Q2.7 1.2 2.0 1.9 1.2 2.65 0.1 2.65 L0.0 2.65 Q-1.05 2.6 -1.8 1.9 -2.55 1.2 -2.6 0.25 L-2.6 0.05 Q-2.6 -1.05 -1.8 -1.75 -1.05 -2.5 0.0 -2.55 M13.6 0.25 L13.6 0.0 Q13.6 -5.4 9.6 -9.15 5.65 -13.0 0.05 -13.0 L0.0 -13.0 Q-5.6 -13.0 -9.55 -9.15 -13.55 -5.4 -13.55 0.0 L-13.55 0.25 Q-13.45 5.45 -9.55 9.2 -5.6 12.95 0.0 13.0 L0.05 13.0 Q5.65 12.95 9.6 9.2 13.5 5.45 13.6 0.25" fill="none" stroke="#ffff00" stroke-linecap="round" stroke-linejoin="round" stroke-width="1.0"/>
    <path d="M0.0 -13.0 L0.0 -2.55 0.0 0.25 2.8 0.25 13.6 0.25 M-13.55 0.25 L-2.6 0.25 0.0 0.25 0.0 2.65 0.0 13.0" fill="none" stroke="#ffff00" stroke-linecap="round" stroke-linejoin="round" stroke-width="1.0"/>
  </g>
</svg>
