<?xml version="1.0" encoding="UTF-8" standalone="no"?>
<svg xmlns:xlink="http://www.w3.org/1999/xlink" height="46.0px" width="46.5px" xmlns="http://www.w3.org/2000/svg">
  <g transform="matrix(1.0, 0.0, 0.0, 1.0, 23.25, 23.0)">
    <path d="M16.05 -15.9 Q22.75 -9.3 22.75 0.0 22.75 9.3 16.05 15.9 9.4 22.5 0.0 22.5 -9.4 22.5 -16.1 15.9 -22.75 9.3 -22.75 0.0 -22.75 -9.3 -16.1 -15.9 -9.4 -22.5 0.0 -22.5 9.4 -22.5 16.05 -15.9 Z" fill="none" stroke="#000000" stroke-linecap="round" stroke-linejoin="round" stroke-width="1.0"/>
    <path d="M2.0 -19.35 Q2.0 -18.65 1.45 -18.1 1.1 -17.8 0.7 -17.65 L0.65 -17.65 0.2 -17.6 -0.55 -17.75 -0.65 -17.8 -1.05 -18.1 Q-1.6 -18.65 -1.6 -19.35 -1.6 -20.1 -1.05 -20.6 -0.55 -21.15 0.2 -21.15 0.95 -21.15 1.45 -20.6 2.0 -20.1 2.0 -19.35 M0.8 -17.1 L1.7 -17.2 Q3.45 -17.25 4.3 -15.6 4.75 -14.7 4.25 -13.7 3.6 -12.3 2.95 -12.25 2.5 -13.1 2.55 -13.75 2.6 -14.45 3.2 -15.05 L3.3 -15.2 3.25 -15.35 3.15 -15.45 Q2.75 -15.65 2.5 -15.8 L2.35 -15.85 2.2 -15.85 2.1 -15.7 1.55 -13.9 Q1.35 -12.65 1.6 -11.5 L1.6 -11.45 1.6 -11.35 2.45 -8.65 3.8 -3.85 Q2.9 -4.85 1.6 -4.75 1.5 -7.5 0.65 -9.8 L0.55 -9.95 0.4 -9.95 0.25 -9.9 Q-0.55 -9.4 -0.8 -8.55 L-0.8 -8.5 Q-1.5 -6.6 -1.8 -4.6 -2.85 -4.55 -4.05 -3.6 L-3.35 -6.2 Q-2.8 -8.4 -1.5 -10.45 L-1.45 -10.45 -1.25 -10.4 -1.05 -10.55 -1.05 -10.75 Q-1.7 -12.9 -1.3 -15.2 L-1.35 -15.35 -1.45 -15.45 -1.6 -15.5 -1.75 -15.4 Q-2.75 -14.55 -2.85 -13.3 -3.6 -13.45 -4.2 -13.85 L-3.6 -15.75 -3.5 -15.8 -3.35 -15.9 Q-2.85 -16.85 -1.1 -17.2 L-0.75 -17.25 0.1 -17.05 0.2 -17.05 0.8 -17.1 M5.25 0.95 Q5.0 0.7 4.7 0.75 L4.2 1.05 Q3.95 1.25 4.0 1.6 L4.45 5.5 2.4 4.4 2.0 4.05 1.45 4.1 1.05 4.5 0.25 6.75 -1.1 2.45 -1.45 2.05 -1.95 1.9 -2.4 2.15 -4.75 4.8 -4.75 2.25 -4.95 1.75 Q-5.2 1.5 -5.5 1.5 -5.8 1.5 -6.0 1.75 L-6.1 1.85 -7.65 2.3 -4.35 -1.9 Q0.35 -7.8 5.2 -1.2 L7.25 1.65 5.5 1.05 5.35 1.0 5.25 0.95 M5.65 2.65 L8.7 3.7 11.6 8.15 Q13.15 10.8 14.0 15.4 -0.05 27.0 -14.0 15.75 -12.9 10.75 -11.0 7.35 L-9.1 4.35 -6.25 3.45 -6.25 6.75 -6.1 7.2 -5.75 7.45 -5.3 7.5 -4.95 7.25 -2.15 4.15 -0.5 9.3 -0.25 9.65 0.2 9.8 0.65 9.7 0.9 9.3 2.15 5.9 4.9 7.4 5.45 7.5 5.9 7.1 6.0 6.55 5.9 6.4 6.0 5.95 5.65 2.65 M-5.35 -16.35 L-6.35 -16.55 -5.8 -19.75 -4.75 -19.6 -5.35 -16.35 M6.7 12.5 Q7.45 12.5 7.4 13.3 L7.15 15.75 Q7.05 16.8 6.25 16.8 5.55 16.8 5.55 15.9 L5.6 14.65 Q5.65 13.7 5.85 13.2 6.15 12.5 6.7 12.5 M8.8 11.2 Q8.05 10.55 6.9 10.55 5.6 10.55 4.7 11.3 3.75 12.1 3.65 13.4 L3.3 16.15 Q3.3 17.25 4.1 18.0 4.9 18.75 6.05 18.75 7.3 18.75 8.25 17.95 9.2 17.1 9.35 15.85 L9.6 13.05 Q9.6 11.9 8.8 11.2 M3.0 11.65 Q3.0 10.7 2.0 10.7 L-1.3 10.7 Q-2.35 10.7 -2.45 11.75 L-2.8 14.55 Q-2.8 15.4 -1.8 15.5 L-1.0 15.5 -0.2 15.5 Q0.4 15.55 0.4 16.05 L0.2 16.55 Q-0.05 16.75 -0.4 16.75 L-1.1 16.5 -1.6 15.95 Q-1.85 15.6 -2.2 15.6 -2.65 15.6 -3.0 15.95 -3.35 16.25 -3.35 16.75 -3.35 17.65 -2.3 18.25 -1.45 18.7 -0.45 18.75 0.9 18.7 1.85 17.9 2.75 17.05 2.75 15.75 2.75 14.8 2.1 14.15 1.5 13.55 0.6 13.5 L-0.45 13.45 -0.35 12.6 0.85 12.6 Q0.8 13.0 1.05 13.3 L1.7 13.5 Q2.6 13.5 2.9 12.65 L3.0 11.65 M-4.6 -16.6 L-4.35 -17.3 -4.0 -16.4 -4.6 -16.6 M-4.2 -15.8 L-6.6 -2.2 -7.3 -2.5 Q-10.25 -4.35 -7.45 -16.35 L-4.2 -15.8 M-8.15 10.7 Q-8.55 10.7 -8.85 10.95 -9.2 11.15 -9.25 11.5 L-9.4 12.9 -9.1 13.55 -8.5 13.8 -7.7 13.5 Q-7.4 13.2 -7.35 12.75 L-6.35 12.75 Q-5.8 12.75 -5.8 13.2 -5.8 13.85 -6.55 13.9 L-7.65 13.9 -8.4 14.1 Q-8.75 14.4 -8.75 14.85 -8.75 15.7 -7.75 15.7 L-6.6 15.7 Q-6.05 15.65 -6.05 16.15 -6.05 16.7 -6.95 16.75 L-7.8 16.3 Q-8.3 15.8 -8.6 15.85 L-9.4 16.15 -9.7 16.95 Q-9.7 17.8 -8.8 18.3 L-7.1 18.75 Q-5.85 18.75 -4.85 18.05 -3.75 17.2 -3.7 16.0 -3.75 15.05 -4.55 14.6 -3.75 13.95 -3.75 12.8 -3.75 11.85 -4.3 11.3 -4.9 10.7 -5.85 10.7 L-8.15 10.7" fill="#000000" fill-rule="evenodd" stroke="none"/>
  </g>
</svg>
