<?xml version="1.0" encoding="UTF-8" standalone="no"?>
<svg xmlns:xlink="http://www.w3.org/1999/xlink" height="14.35px" width="8.15px" xmlns="http://www.w3.org/2000/svg">
  <g transform="matrix(1.0, 0.0, 0.0, 1.0, 3.85, 10.8)">
    <path d="M1.85 -10.75 L2.05 -10.55 2.05 -10.4 2.05 -10.0 2.25 -9.8 2.55 -9.45 2.55 -9.25 3.35 -9.25 3.55 -9.05 4.25 -8.15 4.3 -7.95 4.3 -6.45 4.3 -6.25 4.2 -6.1 4.05 -5.9 4.05 -5.7 4.05 -5.5 3.95 -5.35 3.8 -5.15 3.8 -4.95 3.8 -4.75 3.7 -4.6 3.35 -4.2 3.35 -4.0 3.3 -2.9 3.3 -2.7 3.4 -2.5 3.55 -2.3 3.35 0.65 Q3.15 1.9 2.5 2.95 L2.05 3.15 0.75 3.55 0.05 3.45 -0.7 3.25 -0.85 3.05 -1.05 2.7 -1.4 2.45 -2.0 1.95 -2.1 1.0 -2.05 -1.65 -2.25 -1.8 -2.3 -2.0 -2.3 -2.4 -2.5 -2.6 -3.55 -4.45 -3.55 -4.65 -3.55 -5.25 -3.7 -5.25 -3.85 -6.0 -3.8 -6.4 -3.65 -6.55 -3.55 -7.9 -3.55 -8.25 -3.3 -8.6 -3.0 -8.8 -2.65 -8.75 -2.45 -8.55 -2.25 -8.4 -2.2 -7.45 -2.2 -7.05 -2.15 -7.0 -0.2 -8.4 0.45 -8.95 0.45 -9.05 0.45 -9.65 0.95 -10.55 1.25 -10.8 1.85 -10.75" fill="#36536d" fill-rule="evenodd" stroke="none"/>
  </g>
</svg>
