<?xml version="1.0" encoding="UTF-8" standalone="no"?>
<svg xmlns:xlink="http://www.w3.org/1999/xlink" height="20.25px" width="10.65px" xmlns="http://www.w3.org/2000/svg">
  <g transform="matrix(1.0, 0.0, 0.0, 1.0, 5.8, 17.3)">
    <path d="M3.55 -15.8 L4.5 -14.9 4.55 -14.7 4.55 -14.3 4.55 -14.15 4.75 -13.95 4.85 -12.8 4.8 -10.95 4.7 -10.75 4.55 -10.55 4.5 -10.2 3.8 -8.9 3.8 -8.7 3.8 -8.5 3.7 -8.35 3.55 -8.15 3.55 -7.95 3.55 -7.75 3.45 -7.6 3.3 -7.4 3.3 -7.2 3.3 -6.8 3.2 -6.65 3.05 -6.45 3.05 -6.25 2.85 -5.3 2.8 -4.95 2.95 -4.75 3.05 -4.55 3.05 -4.4 3.05 -3.8 3.05 -3.65 3.25 -3.45 3.3 -3.25 3.3 -2.9 Q3.85 -2.25 3.85 -1.4 L3.8 0.5 3.7 0.65 3.55 0.85 3.55 1.05 3.55 1.25 Q1.5 3.8 -1.95 2.5 L-2.1 2.3 -2.55 1.55 -2.55 1.0 -2.55 -0.9 -2.4 -1.05 -2.35 -1.25 -2.3 -1.65 -2.15 -1.8 -2.1 -2.0 -2.05 -2.55 -2.05 -2.75 -2.4 -3.3 -3.05 -4.65 -3.05 -4.8 -3.05 -5.0 -4.7 -6.45 -5.5 -7.05 -5.65 -8.05 -5.8 -9.9 -4.95 -10.4 -3.4 -10.5 -3.15 -10.3 -2.2 -9.4 -1.65 -9.4 -1.4 -9.55 -1.3 -9.75 -0.9 -10.3 -0.8 -10.9 -0.8 -12.75 -0.75 -12.9 -0.55 -13.15 -0.55 -13.3 -0.55 -13.7 -0.55 -13.9 -0.4 -14.05 0.3 -15.0 0.7 -15.2 0.75 -15.35 Q1.15 -15.9 1.75 -16.05 L3.35 -16.0 3.55 -15.8 M1.6 -17.25 L1.75 -17.05 1.8 -16.9 Q1.5 -15.95 0.3 -16.1 L0.2 -16.2 0.2 -16.8 0.75 -17.3 1.6 -17.25 M1.8 -13.95 L1.25 -13.2 1.1 -13.0 1.05 -10.95 1.05 -10.55 1.25 -10.4 1.3 -10.0 1.3 -9.8 1.75 -9.45 2.25 -9.45 Q2.7 -10.3 2.7 -11.3 L2.7 -11.5 2.75 -11.7 2.95 -11.9 2.95 -12.65 2.95 -13.0 Q2.6 -13.65 1.9 -13.95 L1.8 -13.95 M-2.55 -8.3 L-2.55 -8.5 -3.95 -8.6 -4.0 -8.55 -4.4 -8.45 Q-4.05 -7.2 -2.7 -7.15 L-2.5 -7.2 -2.35 -7.55 -2.3 -7.75 -2.4 -7.95 -2.55 -8.15 -2.55 -8.3 M-5.05 -8.75 L-5.2 -8.75 -5.2 -8.15 -5.05 -8.0 -5.05 -8.75 M-4.95 -7.75 L-4.95 -7.55 -4.8 -7.35 -4.55 -7.0 -4.45 -6.9 -4.05 -6.8 -4.5 -7.05 -4.55 -7.25 -4.95 -7.75" fill="#36536d" fill-rule="evenodd" stroke="none"/>
  </g>
</svg>
