<?xml version="1.0" encoding="UTF-8" standalone="no"?>
<svg xmlns:xlink="http://www.w3.org/1999/xlink" height="23.9px" width="14.65px" xmlns="http://www.w3.org/2000/svg">
  <g transform="matrix(1.0, 0.0, 0.0, 1.0, 8.05, 21.3)">
    <path d="M1.95 -20.9 L2.45 -21.15 2.55 -21.25 2.75 -21.3 3.1 -21.25 3.15 -21.2 3.95 -21.0 4.75 -20.65 4.8 -20.5 Q5.75 -19.85 6.35 -18.65 L6.5 -18.45 6.6 -17.5 6.55 -15.8 6.45 -15.65 6.3 -15.45 6.3 -15.25 6.3 -14.9 6.3 -14.5 6.2 -14.35 6.05 -14.15 6.0 -13.95 5.75 -13.2 5.55 -12.8 5.55 -12.65 5.55 -12.45 5.45 -12.25 5.3 -12.05 5.3 -11.9 5.3 -11.7 5.3 -11.5 5.2 -11.35 4.9 -10.75 4.8 -10.55 4.8 -10.4 4.8 -10.2 4.7 -10.0 4.55 -9.8 4.55 -9.65 4.55 -9.45 4.45 -9.25 4.1 -8.5 4.0 -8.15 3.8 -7.95 3.8 -7.75 3.75 -7.55 Q2.85 -6.65 2.3 -5.55 2.0 -4.9 2.05 -4.2 L1.9 -4.0 1.8 -3.8 1.85 -3.65 2.0 -3.45 2.05 -3.25 2.05 -2.9 2.05 -2.7 2.85 -1.75 3.8 -0.8 Q3.45 2.9 -0.7 2.6 L-1.25 2.3 -3.05 0.1 -3.05 -0.05 -3.05 -0.25 -3.15 -0.45 -3.3 -0.65 -3.25 -0.95 Q-3.0 -1.5 -3.05 -2.15 L-3.05 -2.3 -2.95 -2.5 -2.55 -2.9 -2.55 -3.05 -2.55 -3.65 -2.55 -4.0 -2.65 -4.2 -2.85 -4.55 -2.95 -4.75 Q-5.15 -5.55 -7.0 -6.8 L-7.35 -7.65 -8.05 -8.7 -8.05 -9.25 -7.8 -10.55 -6.9 -11.85 -5.95 -12.75 -4.4 -12.75 -4.15 -12.55 -3.75 -12.2 -3.7 -12.0 -3.7 -11.25 -3.7 -10.7 Q-4.15 -10.05 -4.9 -9.8 L-5.7 -9.2 -5.65 -9.0 -5.5 -8.6 -5.4 -8.25 Q-4.05 -7.25 -2.5 -7.3 L-2.4 -7.4 -3.0 -7.95 -3.8 -8.7 -3.8 -8.9 -3.8 -9.05 -3.8 -9.25 -3.6 -9.65 -2.95 -10.5 -2.4 -10.45 Q-1.75 -10.25 -1.4 -9.75 L-1.2 -9.65 -0.65 -9.65 -0.6 -9.75 -0.55 -9.95 -0.55 -10.3 -0.7 -10.5 -0.8 -10.7 -0.8 -10.9 -0.8 -11.05 -0.95 -11.25 -1.05 -11.45 -1.05 -14.05 -1.05 -16.3 -0.95 -16.5 -0.8 -16.7 -0.8 -16.9 -0.8 -17.25 -0.8 -17.65 Q0.2 -19.35 1.65 -20.65 L1.95 -20.9 M4.95 -16.3 L5.15 -16.7 5.2 -16.9 Q4.55 -19.15 2.3 -19.2 L1.45 -17.9 1.3 -17.7 1.3 -17.5 1.25 -17.3 1.05 -17.15 1.05 -16.95 1.05 -16.75 0.95 -16.6 0.8 -16.4 0.8 -13.95 0.8 -13.4 1.0 -13.2 1.05 -12.65 1.05 -12.45 1.5 -11.7 1.6 -11.5 Q3.05 -11.1 3.85 -12.4 L3.95 -12.95 3.95 -13.15 4.3 -13.65 4.45 -13.9 4.45 -14.05 4.45 -14.25 4.5 -14.4 4.7 -14.65 4.7 -14.8 4.7 -15.0 4.75 -15.2 4.95 -15.4 4.95 -15.95 4.95 -16.3 M3.7 -11.05 L3.7 -11.0 3.7 -11.05 M5.05 -8.05 L4.85 -6.55 4.8 -6.2 4.25 -5.45 4.1 -5.25 3.05 -5.25 2.95 -5.65 2.95 -6.0 Q3.5 -7.2 4.35 -8.2 L4.5 -8.3 4.85 -8.25 5.05 -8.05" fill="#36536d" fill-rule="evenodd" stroke="none"/>
  </g>
</svg>
