<?xml version="1.0" encoding="UTF-8" standalone="no"?>
<svg xmlns:xlink="http://www.w3.org/1999/xlink" height="36.8px" width="25.35px" xmlns="http://www.w3.org/2000/svg">
  <g transform="matrix(1.0, 0.0, 0.0, 1.0, 13.05, 33.05)">
    <path d="M5.55 -32.65 L5.55 -32.45 5.55 -32.25 5.45 -32.1 5.3 -31.9 5.3 -31.7 5.3 -31.5 4.8 -31.25 4.6 -31.45 4.45 -31.65 4.45 -32.4 4.45 -32.75 4.55 -32.9 4.75 -33.05 5.0 -33.05 5.35 -33.0 5.55 -32.8 5.55 -32.65 M7.3 -31.5 L7.5 -31.55 8.6 -31.5 8.9 -30.9 Q9.05 -30.45 9.5 -30.2 L9.55 -30.0 9.55 -29.05 9.75 -28.9 Q10.2 -27.6 10.1 -26.25 L10.05 -24.95 9.85 -24.75 8.8 -24.75 6.55 -27.75 6.2 -28.15 6.3 -29.4 6.45 -30.55 6.55 -30.75 7.25 -31.45 7.3 -31.5 M4.25 -29.3 L4.5 -29.15 4.55 -27.65 4.55 -27.25 2.6 -24.25 Q2.5 -22.85 2.55 -21.45 L2.55 -20.9 2.75 -20.7 2.8 -20.5 2.8 -20.15 3.0 -19.95 Q3.15 -17.95 2.8 -16.05 L2.8 -15.25 2.7 -15.1 2.55 -14.9 2.55 -14.7 2.55 -14.5 1.5 -12.6 1.45 -12.5 1.25 -12.45 0.8 -12.5 0.6 -12.7 0.45 -12.9 0.45 -13.65 0.45 -14.0 0.5 -14.15 0.7 -14.4 0.7 -14.75 0.7 -15.15 0.85 -15.3 0.95 -17.2 0.95 -17.55 0.8 -17.75 0.7 -17.95 0.7 -18.7 0.7 -19.05 0.55 -19.25 0.45 -19.45 0.45 -19.65 0.45 -20.0 0.35 -20.15 0.2 -20.4 0.2 -20.55 0.2 -20.75 0.1 -20.9 -0.05 -21.15 0.15 -24.3 0.2 -24.9 0.35 -25.05 0.4 -25.25 0.45 -25.65 Q1.45 -28.3 3.85 -29.5 L4.25 -29.3 M12.05 -23.3 L12.25 -23.15 12.3 -22.75 12.3 -22.55 12.2 -22.4 12.05 -22.2 12.0 -21.8 11.95 -21.5 11.3 -21.5 Q11.1 -22.0 11.15 -22.65 L11.2 -23.0 11.45 -23.35 11.55 -23.5 11.75 -23.5 11.85 -23.5 12.05 -23.3 M11.05 -16.3 L11.25 -15.95 11.3 -15.75 11.3 -15.55 11.5 -15.4 11.6 -14.45 11.55 -13.5 11.45 -13.35 11.3 -13.15 11.25 -12.55 11.0 -11.65 Q10.75 -11.2 10.3 -11.0 L9.95 -10.75 9.75 -10.7 9.3 -10.75 9.1 -10.95 8.75 -11.3 Q8.55 -13.65 9.45 -15.8 9.65 -16.35 10.0 -16.55 L10.85 -16.5 11.05 -16.3 M9.25 -22.7 Q9.5 -21.05 9.05 -19.5 L8.55 -18.55 8.55 -18.4 8.55 -18.2 8.45 -18.0 8.3 -17.8 8.3 -17.65 8.3 -17.45 7.55 -16.6 6.75 -16.0 6.45 -16.15 6.25 -16.3 Q6.0 -17.0 6.3 -17.65 L6.45 -18.75 6.35 -18.9 6.2 -19.15 6.2 -19.7 6.2 -20.8 6.3 -21.0 6.45 -21.2 6.45 -21.4 6.45 -21.55 6.8 -22.35 7.5 -23.2 7.55 -23.25 7.75 -23.3 8.85 -23.25 9.05 -23.05 9.25 -22.7 M1.15 -13.55 L1.1 -13.6 1.05 -13.45 1.15 -13.55 M5.0 -14.3 L5.6 -14.25 5.8 -14.05 6.0 -13.7 Q6.1 -12.05 5.65 -10.5 L5.55 -9.95 5.35 -9.75 5.3 -9.2 5.25 -8.65 Q4.55 -6.7 2.55 -6.75 L2.0 -7.3 1.7 -7.7 1.7 -8.8 1.7 -9.55 1.8 -9.75 1.95 -9.95 1.95 -10.15 1.95 -10.5 2.0 -10.7 2.2 -10.9 Q2.75 -12.95 4.75 -14.2 L4.8 -14.25 5.0 -14.3 M7.25 -8.35 L7.3 -8.2 7.25 -8.0 7.05 -7.65 7.05 -7.45 7.05 -7.25 6.95 -7.1 6.75 -6.95 6.05 -7.0 Q5.85 -7.45 5.9 -7.95 L5.95 -8.3 6.05 -8.5 6.25 -8.7 6.5 -8.8 Q7.0 -8.85 7.25 -8.35 M1.1 -10.5 L1.3 -10.3 1.5 -10.15 1.55 -9.2 1.55 -8.8 1.3 -8.45 1.1 -8.25 0.55 -8.25 0.05 -9.0 -0.05 -9.2 -0.05 -9.55 -0.05 -9.95 Q0.05 -10.45 0.75 -10.55 L1.1 -10.5 M3.5 -3.2 L3.55 -3.0 3.55 -2.45 3.35 -2.25 3.15 -0.15 3.05 0.75 Q2.0 3.85 -1.2 3.75 L-2.0 3.15 -2.3 2.8 -2.3 2.45 -2.3 1.5 Q-1.7 -0.15 0.25 0.0 L0.7 -0.15 0.65 -0.3 0.45 -0.7 Q0.5 -2.15 1.7 -3.15 L2.0 -3.7 2.25 -3.8 3.1 -3.75 3.3 -3.55 3.5 -3.2 M0.25 -5.95 L0.35 -5.2 0.3 -4.25 0.0 -3.7 -0.5 -3.2 -1.45 -3.25 -1.7 -3.65 -2.05 -4.2 -2.05 -4.4 -2.05 -4.55 -3.95 -5.25 -4.15 -5.45 Q-4.65 -5.45 -5.0 -5.8 L-5.3 -6.2 -5.3 -6.4 -5.3 -6.95 -5.3 -7.15 Q-4.3 -7.8 -3.65 -8.85 L-3.5 -9.2 -3.1 -9.35 -2.75 -9.55 Q-1.4 -9.3 -0.55 -8.0 L-0.45 -7.8 -0.45 -7.65 -0.45 -7.45 -0.35 -7.25 -0.2 -7.05 -0.15 -6.9 0.05 -6.3 0.05 -6.15 0.25 -5.95 M-7.75 -26.4 L-7.85 -26.0 -7.95 -25.8 -7.95 -25.45 -7.95 -25.25 Q-8.05 -24.85 -8.5 -24.75 L-9.0 -25.05 -9.1 -25.65 -9.05 -26.0 -8.65 -26.55 -8.5 -26.7 -8.45 -26.75 -8.25 -26.75 -8.15 -26.75 -7.95 -26.55 -7.75 -26.4 M-3.25 -21.8 L-2.65 -21.75 -2.45 -21.55 -2.25 -21.2 -2.2 -21.0 -2.2 -20.8 -2.0 -20.65 -1.95 -18.95 -1.95 -18.2 -2.45 -17.65 -2.9 -17.25 -3.7 -17.25 -3.9 -17.45 -4.05 -17.65 -4.05 -19.3 -4.05 -20.05 -3.95 -20.25 -3.8 -20.45 -3.8 -20.8 -3.8 -21.4 -3.65 -21.55 -3.5 -21.7 -3.45 -21.75 -3.25 -21.8 M-6.4 -20.5 L-6.2 -20.3 -5.7 -19.55 -5.7 -19.4 -5.7 -19.0 -5.8 -18.85 -5.95 -18.65 -5.95 -18.45 -5.95 -17.7 -5.95 -17.5 -6.65 -16.35 -7.3 -15.5 Q-8.9 -15.3 -9.8 -16.65 L-9.8 -16.8 -9.8 -17.55 -9.7 -17.75 -9.4 -18.15 Q-9.15 -19.25 -8.25 -20.05 L-7.5 -20.55 -6.4 -20.5 M-8.45 -14.55 L-8.25 -14.2 -8.2 -14.0 -8.2 -13.45 -8.1 -13.25 -7.95 -13.05 -7.95 -12.9 -7.95 -12.7 Q-7.0 -11.1 -5.45 -10.05 L-5.45 -9.5 -5.45 -8.75 -5.55 -8.6 -5.8 -8.25 -7.7 -8.5 Q-9.8 -10.15 -9.8 -12.65 L-9.8 -13.4 -10.0 -13.6 -10.05 -13.75 -9.85 -14.3 -9.5 -14.7 Q-9.4 -14.7 -9.25 -14.8 L-8.65 -14.75 -8.45 -14.55 M-8.9 -13.6 L-9.0 -13.65 -9.0 -13.6 -8.9 -13.6 M-3.4 -15.5 L-3.2 -15.3 -3.2 -14.4 -3.2 -13.8 Q-3.35 -13.4 -3.9 -13.3 L-4.2 -13.25 -4.4 -13.45 -4.65 -13.55 -4.8 -13.7 -4.65 -14.45 -4.55 -15.0 -4.5 -15.15 -4.0 -15.55 -3.4 -15.5 M-12.75 -20.3 L-12.15 -20.0 -12.0 -19.9 Q-11.9 -19.6 -11.95 -19.3 L-11.95 -18.95 -12.05 -18.75 -12.25 -18.4 -12.5 -18.25 -12.8 -18.4 -13.0 -18.55 -13.0 -20.05 -12.75 -20.3 M-7.65 -6.8 L-7.5 -6.95 -7.45 -7.0 -7.25 -7.05 -6.9 -7.0 -6.7 -6.8 -6.7 -6.45 -6.7 -6.05 Q-7.0 -5.45 -7.7 -5.5 L-7.85 -6.25 -7.8 -6.65 -7.65 -6.8" fill="#36536d" fill-rule="evenodd" stroke="none"/>
  </g>
</svg>
