<?xml version="1.0" encoding="UTF-8" standalone="no"?>
<svg xmlns:xlink="http://www.w3.org/1999/xlink" height="44.1px" width="33.4px" xmlns="http://www.w3.org/2000/svg">
  <g transform="matrix(1.0, 0.0, 0.0, 1.0, 14.6, 40.8)">
    <path d="M7.1 -40.75 L7.3 -40.55 7.3 -40.4 7.3 -40.0 6.9 -39.4 6.75 -39.05 6.5 -38.95 6.05 -39.0 Q5.85 -39.35 5.9 -39.75 L5.95 -40.3 6.05 -40.5 6.25 -40.7 6.5 -40.8 7.1 -40.75 M7.6 -34.95 L7.25 -35.3 7.2 -35.7 7.2 -36.25 7.2 -36.65 7.6 -36.95 8.25 -37.3 Q10.3 -36.75 12.0 -35.4 L12.25 -35.2 12.85 -34.05 13.5 -32.95 Q13.7 -32.15 13.4 -31.4 13.1 -30.6 12.45 -30.0 L11.05 -30.0 10.3 -30.65 9.95 -30.95 9.95 -32.05 9.95 -33.55 9.35 -34.15 8.8 -34.5 7.8 -34.75 7.6 -34.95 M5.0 -35.8 L5.05 -35.65 Q4.3 -33.95 2.9 -32.7 L2.3 -32.05 Q2.15 -30.05 2.55 -28.1 L3.05 -26.05 3.25 -25.9 3.3 -23.8 3.3 -22.5 3.2 -22.35 3.05 -22.15 3.05 -21.95 3.05 -21.75 2.85 -21.35 2.3 -20.45 2.3 -20.25 2.3 -19.7 2.15 -19.5 1.8 -19.15 1.75 -18.95 1.55 -18.2 1.35 -18.0 1.0 -17.7 0.05 -17.75 -0.05 -17.95 -0.55 -18.7 -0.55 -18.9 -0.55 -19.8 -0.45 -20.0 -0.3 -20.2 -0.3 -20.4 -0.3 -20.55 -0.2 -20.75 -0.05 -20.95 -0.05 -21.15 -0.05 -21.3 0.45 -22.25 0.75 -23.2 0.95 -23.4 0.95 -24.5 0.95 -25.65 0.75 -25.8 0.7 -26.0 0.7 -26.4 0.5 -26.55 0.4 -27.7 0.45 -28.8 0.3 -29.0 0.2 -29.2 0.2 -30.5 0.2 -31.65 0.35 -31.8 0.4 -32.0 0.45 -32.4 0.85 -32.85 Q1.15 -33.2 1.25 -33.7 L1.6 -33.9 1.85 -34.05 Q2.2 -34.85 2.9 -35.4 L3.5 -35.95 3.75 -36.05 4.85 -36.0 5.0 -35.8 M1.7 -31.6 L1.65 -31.45 1.7 -31.4 1.7 -31.6 M6.95 -26.25 L7.2 -26.6 7.55 -27.0 8.35 -26.95 8.6 -27.1 Q8.75 -27.3 9.0 -27.3 10.45 -27.1 11.2 -26.0 L11.3 -25.8 11.3 -25.05 11.3 -24.5 11.2 -24.35 11.05 -24.15 11.05 -23.75 11.05 -23.4 11.05 -23.2 10.85 -23.0 10.55 -22.8 10.5 -22.65 10.45 -22.5 Q7.95 -22.45 7.0 -24.55 L6.9 -25.3 6.95 -26.25 M18.6 -37.0 L18.8 -36.8 18.8 -35.7 18.8 -35.5 Q18.5 -34.65 17.75 -34.25 L17.25 -34.55 17.15 -35.7 17.2 -35.9 Q17.55 -36.65 18.3 -37.0 L18.5 -37.0 18.6 -37.0 M16.05 -19.55 Q16.6 -16.65 14.75 -14.6 L14.25 -14.2 13.8 -14.25 13.6 -14.45 13.45 -14.65 13.45 -14.8 13.45 -15.2 13.45 -15.4 13.6 -15.55 13.65 -15.75 13.7 -15.95 13.7 -16.15 13.85 -16.35 13.95 -16.5 13.0 -17.85 12.7 -18.2 Q12.55 -19.2 12.95 -20.05 L13.6 -20.65 13.7 -20.8 14.0 -21.2 14.25 -21.3 14.85 -21.25 15.5 -20.7 15.8 -20.3 15.8 -20.15 15.8 -19.95 15.95 -19.75 16.05 -19.55 M14.45 -15.2 L14.3 -15.3 14.05 -14.95 14.45 -15.2 M1.1 -15.5 L1.3 -15.3 1.3 -15.15 1.3 -14.75 1.2 -14.6 1.05 -14.4 1.05 -14.0 1.05 -13.45 0.85 -13.25 0.05 -13.25 -0.1 -14.4 -0.05 -15.15 0.1 -15.3 0.25 -15.45 0.3 -15.5 0.5 -15.55 1.1 -15.5 M1.95 -13.9 Q2.75 -16.05 4.55 -17.4 L5.25 -17.8 6.6 -17.75 6.8 -17.55 6.8 -17.4 6.8 -16.45 6.4 -15.85 5.6 -14.95 Q5.5 -14.1 5.75 -13.3 L5.8 -11.95 5.7 -11.75 5.55 -11.55 5.55 -11.4 5.55 -11.0 5.45 -10.85 4.75 -10.45 Q2.75 -10.45 1.95 -12.2 L1.95 -12.55 1.95 -13.9 M8.75 -13.3 L9.6 -13.25 9.75 -13.05 9.8 -12.9 9.75 -12.7 9.6 -12.5 9.6 -12.3 9.5 -11.4 9.35 -11.2 8.75 -10.7 7.8 -10.75 7.7 -11.15 7.7 -11.9 7.85 -12.05 8.2 -12.45 8.2 -12.65 8.2 -12.8 8.3 -13.0 8.5 -13.2 8.75 -13.3 M3.2 -4.85 L3.55 -4.3 3.75 -3.95 3.75 -2.65 3.25 -1.3 2.7 -1.0 2.5 -0.95 1.3 -1.0 0.4 -2.0 -0.05 -2.7 -0.05 -3.05 -0.05 -3.25 -0.05 -3.65 0.1 -3.8 0.15 -4.0 0.2 -4.2 0.2 -4.4 0.45 -4.75 0.7 -5.1 1.0 -5.45 1.05 -5.5 1.25 -5.55 1.9 -5.4 2.85 -5.25 3.2 -4.85 M0.5 3.3 L-1.95 3.25 -2.7 1.55 -2.8 0.45 -2.7 0.25 -2.55 0.05 -2.55 -0.15 -2.55 -0.3 -2.1 -1.25 -1.5 -1.8 -1.0 -1.8 -0.15 -1.75 2.2 0.5 2.55 1.05 Q2.35 2.05 1.55 2.65 L0.5 3.3 M-10.2 -33.0 L-10.05 -33.2 -10.05 -33.55 -10.05 -33.75 -9.8 -34.1 -9.7 -34.25 -9.5 -34.25 -9.4 -34.25 -9.2 -34.05 -9.0 -33.9 -8.95 -33.1 -8.95 -32.95 -9.55 -32.25 Q-10.05 -32.0 -10.3 -32.45 L-10.2 -33.0 M-9.25 -28.95 L-8.7 -29.25 -8.5 -29.3 -8.15 -29.25 -7.95 -29.05 -7.75 -28.9 -7.7 -28.7 -7.7 -28.3 -7.8 -28.15 -7.95 -27.95 -7.95 -26.8 -7.95 -26.45 -7.55 -25.95 -7.25 -25.7 Q-7.05 -24.5 -7.6 -23.4 L-7.75 -23.05 -8.95 -22.75 Q-9.65 -23.05 -10.05 -23.7 L-10.05 -24.25 -10.05 -24.65 -9.7 -25.0 -9.55 -25.2 -9.55 -25.75 -9.55 -26.15 -9.75 -26.3 -9.85 -27.65 -9.8 -28.0 -9.35 -28.75 -9.25 -28.95 M-2.5 -24.95 L-2.45 -24.55 -2.45 -24.4 -2.45 -24.2 -2.25 -23.8 -2.2 -23.65 -2.35 -23.25 -2.45 -23.05 -2.4 -22.3 -2.5 -21.4 -2.8 -21.0 -3.0 -20.65 -3.05 -20.5 -3.95 -20.5 -4.7 -21.4 -5.0 -21.8 Q-5.15 -23.15 -4.85 -24.4 -4.75 -24.85 -4.8 -25.4 L-4.65 -25.55 -4.5 -25.7 -4.45 -25.75 -4.25 -25.8 -3.7 -25.65 -3.15 -25.5 -2.75 -25.15 -2.5 -24.95 M-8.65 -19.05 L-8.75 -18.15 -8.9 -17.95 -9.3 -17.25 -9.5 -17.2 -10.45 -17.25 -10.65 -17.45 -10.8 -17.65 -10.8 -17.8 -10.8 -18.55 -10.7 -18.75 -10.55 -18.95 -10.55 -19.15 -10.55 -19.5 -10.45 -19.65 -9.75 -20.05 -8.9 -20.0 -8.7 -19.8 -8.65 -19.05 M-6.65 -19.45 L-6.25 -19.95 -6.2 -20.0 -6.0 -20.05 -5.8 -20.0 -5.75 -20.0 -5.65 -20.0 -5.55 -19.9 -5.25 -19.8 -5.0 -19.65 Q-4.85 -18.95 -5.25 -18.3 L-5.65 -17.75 -6.45 -17.75 -6.65 -17.95 -6.8 -18.15 -6.8 -18.5 -6.8 -19.05 -6.65 -19.45 M-8.15 -16.8 L-8.0 -16.65 -7.9 -15.9 -7.95 -14.75 -8.0 -14.55 -8.45 -13.8 -8.45 -13.65 -8.45 -13.45 -8.65 -13.25 -9.0 -12.95 -9.95 -13.0 -10.05 -13.2 Q-10.35 -13.6 -10.3 -14.15 L-10.5 -14.3 -10.6 -14.9 -10.55 -16.0 -10.5 -16.15 -9.75 -16.95 -9.5 -17.05 -8.4 -17.0 -8.15 -16.8 M-4.95 -12.75 L-4.4 -13.45 -4.25 -13.55 Q-2.4 -13.7 -1.85 -12.0 L-1.7 -11.8 -1.7 -11.25 -1.7 -9.75 -1.8 -9.6 -2.4 -9.0 -3.35 -9.0 -3.3 -8.85 -3.15 -8.5 Q-2.1 -8.0 -1.6 -7.0 L-1.45 -6.8 -1.45 -6.45 -1.45 -6.05 -1.5 -5.9 -1.65 -5.7 -1.9 -5.5 -3.2 -5.5 -4.55 -6.4 -5.2 -6.5 -5.85 -7.25 -6.05 -7.65 Q-6.2 -8.9 -5.8 -10.05 L-5.25 -10.8 -4.9 -10.75 -4.65 -10.5 -4.8 -10.7 -4.8 -10.9 -4.8 -11.05 -4.95 -11.25 -5.05 -11.45 -5.05 -11.65 -5.05 -12.2 -5.05 -12.55 -4.95 -12.75 M-13.45 -24.3 L-13.45 -23.2 -13.45 -23.0 Q-13.55 -22.6 -14.0 -22.5 L-14.5 -22.8 -14.6 -23.4 -14.55 -23.55 -14.0 -24.45 -13.95 -24.5 -13.65 -24.5 -13.45 -24.3 M-10.65 -12.0 L-10.45 -11.8 -10.55 -10.15 -10.55 -10.0 -11.2 -10.0 -11.55 -10.4 -11.3 -11.5 -11.25 -11.7 -11.05 -11.9 -10.95 -12.0 -10.75 -12.0 -10.65 -12.0" fill="#36536d" fill-rule="evenodd" stroke="none"/>
  </g>
</svg>
