<?xml version="1.0" encoding="UTF-8" standalone="no"?>
<svg xmlns:xlink="http://www.w3.org/1999/xlink" height="68.3px" width="59.65px" xmlns="http://www.w3.org/2000/svg">
  <g transform="matrix(1.0, 0.0, 0.0, 1.0, 22.6, 66.25)">
    <path d="M11.55 -66.05 L11.55 -65.7 11.55 -65.5 11.05 -65.25 10.9 -65.8 10.95 -66.0 11.25 -66.2 11.35 -66.25 11.55 -66.05 M1.5 -54.3 L1.85 -54.25 2.05 -54.05 2.05 -53.7 2.05 -53.3 1.95 -53.15 1.75 -53.0 1.5 -53.15 1.45 -53.3 Q1.25 -53.75 1.4 -54.15 L1.5 -54.3 M17.1 -55.95 L16.75 -56.3 16.7 -56.5 16.7 -57.25 16.75 -57.4 17.0 -57.55 18.1 -57.5 18.3 -57.3 18.3 -57.15 18.3 -56.2 18.15 -56.0 17.75 -55.7 17.3 -55.75 17.1 -55.95 M37.05 -56.3 L37.05 -55.95 37.05 -55.75 36.75 -55.45 Q36.2 -55.3 35.95 -55.7 L35.95 -56.05 36.05 -56.25 36.85 -56.5 37.05 -56.3 M26.95 -39.3 L27.1 -39.45 27.35 -39.5 27.6 -39.15 27.75 -38.95 27.8 -38.4 27.8 -38.2 28.05 -37.8 27.8 -36.3 27.75 -36.15 27.35 -35.75 27.05 -35.75 Q26.85 -36.65 26.9 -37.65 L26.95 -38.0 26.7 -38.4 26.7 -38.55 Q26.65 -38.9 26.9 -39.15 L26.95 -39.3 M18.3 -47.3 L18.3 -46.95 18.3 -46.75 18.05 -46.4 18.05 -46.2 18.05 -46.0 17.55 -45.75 Q17.1 -45.95 16.75 -46.3 L16.65 -46.9 16.7 -47.05 18.1 -47.5 18.3 -47.3 M3.05 -49.3 L2.95 -49.15 2.8 -48.95 2.8 -48.75 2.75 -48.55 2.5 -48.4 2.25 -48.25 2.0 -48.4 1.95 -48.55 2.3 -49.4 2.5 -49.55 2.85 -49.5 3.05 -49.3 M1.5 -45.8 L1.55 -45.65 1.4 -45.25 1.3 -45.05 1.3 -44.9 1.3 -44.7 1.0 -44.15 0.75 -44.0 0.45 -44.15 0.45 -44.7 0.45 -44.9 0.95 -45.8 1.0 -45.95 1.05 -46.0 1.35 -46.0 1.5 -45.8 M9.0 -40.55 L9.35 -40.5 9.55 -40.3 9.55 -40.15 9.55 -39.75 9.45 -39.6 9.25 -39.45 8.8 -39.5 8.7 -39.9 8.7 -40.25 8.8 -40.4 9.0 -40.55 M7.35 -39.5 L7.55 -39.3 7.75 -39.15 8.05 -37.8 8.05 -37.45 7.8 -37.05 7.7 -36.75 7.5 -36.7 7.05 -36.75 Q6.7 -37.05 6.55 -37.5 L6.45 -37.7 6.45 -38.65 6.45 -39.0 6.7 -39.35 7.0 -39.55 7.35 -39.5 M6.75 -21.3 L7.85 -21.25 8.1 -21.05 8.5 -20.7 8.55 -20.5 8.55 -20.15 8.55 -19.95 8.4 -19.75 7.95 -19.25 7.75 -19.2 7.05 -19.25 6.85 -19.45 6.5 -19.8 6.35 -20.35 Q6.3 -21.1 6.75 -21.3 M-10.4 -55.5 L-10.2 -55.3 -10.45 -54.95 -10.45 -54.9 -10.5 -54.7 -10.65 -54.5 -10.95 -54.5 -11.05 -54.95 -11.05 -55.3 -10.75 -55.55 -10.4 -55.5 M-7.45 -47.65 L-7.45 -47.45 -7.65 -47.25 -7.95 -47.25 -8.05 -49.3 -8.0 -49.45 -7.95 -49.45 -7.65 -49.5 -7.45 -49.3 -7.45 -47.65 M-4.15 -38.25 L-3.95 -38.05 -4.0 -37.45 -4.0 -37.15 -4.35 -36.2 -4.45 -35.8 -4.55 -35.65 -4.75 -35.5 -5.05 -35.65 -5.05 -36.75 -5.05 -37.15 -4.9 -37.3 -4.75 -38.05 -4.5 -38.3 -4.15 -38.25 M-19.95 -47.25 L-19.75 -47.25 -19.65 -47.25 -19.25 -47.05 -19.0 -46.9 -19.0 -46.7 -19.0 -46.6 -18.95 -46.55 -19.25 -46.25 -19.5 -46.5 -19.95 -46.5 -20.0 -46.9 -20.0 -47.2 -19.95 -47.25 M-15.25 -38.05 L-15.0 -38.3 -14.65 -38.25 -14.45 -38.05 -14.55 -37.9 -14.7 -37.7 -14.7 -37.5 -14.7 -37.3 -14.8 -37.15 -15.0 -37.0 -15.3 -37.15 -15.25 -38.05 M-13.25 -33.8 L-12.9 -33.75 -12.7 -33.55 -12.7 -32.8 -12.7 -32.45 -12.9 -32.25 -13.2 -32.25 -13.4 -32.45 -13.55 -32.65 -13.4 -33.65 -13.25 -33.8 M-5.4 -25.5 L-4.8 -24.75 -4.7 -24.4 -5.0 -23.65 -5.25 -23.05 -5.5 -22.95 -5.95 -23.0 Q-6.45 -23.65 -6.35 -24.5 L-6.3 -25.25 -6.2 -25.4 -6.0 -25.55 -5.4 -25.5 M-21.95 -27.3 L-21.95 -26.95 -21.95 -26.75 -22.45 -26.5 -22.6 -27.05 -22.55 -27.25 -22.25 -27.45 -22.15 -27.5 -21.95 -27.3 M-10.25 -18.7 Q-10.15 -18.05 -10.2 -17.4 L-10.2 -17.0 -10.3 -16.85 -10.5 -16.7 -11.2 -16.75 -11.55 -17.15 -11.75 -17.3 -11.85 -18.25 -11.8 -18.65 -11.45 -19.0 -11.25 -19.2 -11.0 -19.25 -10.9 -19.25 -10.45 -18.85 -10.25 -18.7 M-0.95 1.5 L-1.05 2.0 -1.25 2.05 -1.95 2.0 -2.05 1.8 -2.15 1.6 -2.5 1.45 -2.65 0.5 Q-2.65 0.0 -2.25 -0.05 L-1.65 0.0 Q-0.95 0.6 -0.95 1.5" fill="#36536d" fill-rule="evenodd" stroke="none"/>
  </g>
</svg>
