<?xml version="1.0" encoding="UTF-8" standalone="no"?>
<svg xmlns:xlink="http://www.w3.org/1999/xlink" height="14.2px" width="3.35px" xmlns="http://www.w3.org/2000/svg">
  <g transform="matrix(1.0, 0.0, 0.0, 1.0, 1.55, 8.45)">
    <path d="M1.35 -2.1 L1.55 1.75 1.4 5.5 Q1.1 4.65 -0.05 4.5 -1.0 4.35 -0.7 3.35 -0.2 1.95 -1.3 0.95 L-0.1 -2.15 Q-0.65 -2.75 -0.3 -3.55 0.05 -4.45 -1.0 -5.0 -1.3 -5.2 -1.25 -5.6 -0.95 -7.0 -0.05 -7.95 0.8 -8.8 1.0 -6.75 L1.25 -6.0 Q1.15 -4.0 1.35 -2.1" fill="url(#gradient0)" fill-rule="evenodd" stroke="none"/>
    <path d="M1.35 -2.1 L1.55 1.75 1.4 5.5 Q1.1 4.65 -0.05 4.5 -1.0 4.35 -0.7 3.35 -0.2 1.95 -1.3 0.95 L-0.1 -2.15 Q-0.65 -2.75 -0.3 -3.55 0.05 -4.45 -1.0 -5.0 -1.3 -5.2 -1.25 -5.6 -0.95 -7.0 -0.05 -7.95 0.8 -8.8 1.0 -6.75 L1.25 -6.0 Q1.15 -4.0 1.35 -2.1 Z" fill="none" stroke="#000000" stroke-linecap="round" stroke-linejoin="round" stroke-width="0.5"/>
  </g>
  <defs>
    <radialGradient cx="0" cy="0" gradientTransform="matrix(0.0028, 0.0, 0.0, 0.0084, -0.45, -0.75)" gradientUnits="userSpaceOnUse" id="gradient0" r="819.2" spreadMethod="pad">
      <stop offset="0.0" stop-color="#bebe4b"/>
      <stop offset="1.0" stop-color="#ffffff"/>
    </radialGradient>
  </defs>
</svg>
