<?xml version="1.0" encoding="UTF-8" standalone="no"?>
<svg xmlns:xlink="http://www.w3.org/1999/xlink" height="32.15px" width="4.75px" xmlns="http://www.w3.org/2000/svg">
  <g transform="matrix(1.0, 0.0, 0.0, 1.0, 2.35, 16.0)">
    <path d="M2.1 5.3 Q2.4 7.1 1.8 8.8 L0.9 12.35 0.3 16.05 Q-0.6 14.85 -0.95 13.15 L-1.6 9.55 -2.2 5.9 Q-2.6 3.85 -0.35 3.6 1.8 3.4 2.1 5.3" fill="url(#gradient0)" fill-rule="evenodd" stroke="none"/>
    <path d="M2.1 5.3 Q1.8 3.4 -0.35 3.6 -2.6 3.85 -2.2 5.9 L-1.6 9.55 -0.95 13.15 Q-0.6 14.85 0.3 16.05 L0.9 12.35 1.8 8.8 Q2.4 7.1 2.1 5.3 Z" fill="none" stroke="#000000" stroke-linecap="round" stroke-linejoin="round" stroke-width="0.25"/>
    <path d="M1.0 -13.0 L1.65 -9.4 2.25 -5.75 Q2.65 -3.7 0.4 -3.45 -1.75 -3.25 -2.05 -5.15 -2.35 -6.95 -1.75 -8.65 L-0.85 -12.2 -0.25 -15.9 Q0.65 -14.7 1.0 -13.0" fill="url(#gradient1)" fill-rule="evenodd" stroke="none"/>
    <path d="M1.0 -13.0 Q0.65 -14.7 -0.25 -15.9 L-0.85 -12.2 -1.75 -8.65 Q-2.35 -6.95 -2.05 -5.15 -1.75 -3.25 0.4 -3.45 2.65 -3.7 2.25 -5.75 L1.65 -9.4 1.0 -13.0 Z" fill="none" stroke="#000000" stroke-linecap="round" stroke-linejoin="round" stroke-width="0.25"/>
    <path d="M1.85 1.05 Q1.55 2.0 0.75 2.05 -1.35 2.3 -1.65 0.3 -2.0 -1.85 -0.25 -2.5 0.25 -2.8 1.15 -2.05 2.5 -0.95 1.85 1.05" fill="url(#gradient2)" fill-rule="evenodd" stroke="none"/>
    <path d="M1.85 1.05 Q2.5 -0.95 1.15 -2.05 0.25 -2.8 -0.25 -2.5 -2.0 -1.85 -1.65 0.3 -1.35 2.3 0.75 2.05 1.55 2.0 1.85 1.05 Z" fill="none" stroke="#000000" stroke-linecap="round" stroke-linejoin="round" stroke-width="0.25"/>
  </g>
  <defs>
    <radialGradient cx="0" cy="0" gradientTransform="matrix(-0.0036, 0.0, 0.0, -0.006, -0.05, 6.5)" gradientUnits="userSpaceOnUse" id="gradient0" r="819.2" spreadMethod="pad">
      <stop offset="0.0" stop-color="#bebe4b"/>
      <stop offset="1.0" stop-color="#ffffff"/>
    </radialGradient>
    <radialGradient cx="0" cy="0" gradientTransform="matrix(0.0036, 0.0, 0.0, 0.006, 0.1, -6.35)" gradientUnits="userSpaceOnUse" id="gradient1" r="819.2" spreadMethod="pad">
      <stop offset="0.0" stop-color="#bebe4b"/>
      <stop offset="1.0" stop-color="#ffffff"/>
    </radialGradient>
    <radialGradient cx="0" cy="0" gradientTransform="matrix(0.0038, 0.0, 0.0, 0.0038, 0.4, -0.4)" gradientUnits="userSpaceOnUse" id="gradient2" r="819.2" spreadMethod="pad">
      <stop offset="0.0" stop-color="#ffffff"/>
      <stop offset="1.0" stop-color="#bebe4b"/>
    </radialGradient>
  </defs>
</svg>
