<?xml version="1.0" encoding="UTF-8" standalone="no"?>
<svg xmlns:xlink="http://www.w3.org/1999/xlink" height="17.55px" width="4.15px" xmlns="http://www.w3.org/2000/svg">
  <g transform="matrix(1.0, 0.0, 0.0, 1.0, 2.3, 8.4)">
    <path d="M1.25 5.6 Q0.65 7.3 0.3 9.05 L-0.3 7.85 -1.8 4.85 Q-2.35 3.55 -2.1 2.1 -1.8 0.35 0.35 1.0 1.4 1.3 1.55 2.2 1.85 3.95 1.25 5.6" fill="url(#gradient0)" fill-rule="evenodd" stroke="none"/>
    <path d="M1.25 5.6 Q1.85 3.95 1.55 2.2 1.4 1.3 0.35 1.0 -1.8 0.35 -2.1 2.1 -2.35 3.55 -1.8 4.85 L-0.3 7.85 0.3 9.05 Q0.65 7.3 1.25 5.6 Z" fill="none" stroke="#000000" stroke-linecap="round" stroke-linejoin="round" stroke-width="0.25"/>
    <path d="M-0.15 -7.1 L1.35 -4.1 Q1.9 -2.8 1.65 -1.35 1.35 0.4 -0.8 -0.25 -1.85 -0.55 -2.0 -1.45 -2.3 -3.2 -1.7 -4.85 L-0.75 -8.3 -0.15 -7.1" fill="url(#gradient1)" fill-rule="evenodd" stroke="none"/>
    <path d="M-0.15 -7.1 L-0.75 -8.3 -1.7 -4.85 Q-2.3 -3.2 -2.0 -1.45 -1.85 -0.55 -0.8 -0.25 1.35 0.4 1.65 -1.35 1.9 -2.8 1.35 -4.1 L-0.15 -7.1 Z" fill="none" stroke="#000000" stroke-linecap="round" stroke-linejoin="round" stroke-width="0.25"/>
  </g>
  <defs>
    <radialGradient cx="0" cy="0" gradientTransform="matrix(-0.0054, 0.0, 0.0, -0.0054, -0.1, 2.65)" gradientUnits="userSpaceOnUse" id="gradient0" r="819.2" spreadMethod="pad">
      <stop offset="0.0" stop-color="#bebe4b"/>
      <stop offset="1.0" stop-color="#ffffff"/>
    </radialGradient>
    <radialGradient cx="0" cy="0" gradientTransform="matrix(0.0054, 0.0, 0.0, 0.0054, -0.35, -1.9)" gradientUnits="userSpaceOnUse" id="gradient1" r="819.2" spreadMethod="pad">
      <stop offset="0.0" stop-color="#bebe4b"/>
      <stop offset="1.0" stop-color="#ffffff"/>
    </radialGradient>
  </defs>
</svg>
