<?xml version="1.0" encoding="UTF-8" standalone="no"?>
<svg xmlns:xlink="http://www.w3.org/1999/xlink" height="17.6px" width="4.05px" xmlns="http://www.w3.org/2000/svg">
  <g transform="matrix(1.0, 0.0, 0.0, 1.0, 1.6, 8.35)">
    <path d="M2.25 2.3 Q2.55 4.05 1.95 5.7 1.35 7.4 1.0 9.15 L0.4 7.95 -1.1 4.95 Q-1.65 3.65 -1.4 2.2 -1.1 0.45 1.05 1.1 2.1 1.4 2.25 2.3" fill="url(#gradient0)" fill-rule="evenodd" stroke="none"/>
    <path d="M2.25 2.3 Q2.1 1.4 1.05 1.1 -1.1 0.45 -1.4 2.2 -1.65 3.65 -1.1 4.95 L0.4 7.95 1.0 9.15 Q1.35 7.4 1.95 5.7 2.55 4.05 2.25 2.3 Z" fill="none" stroke="#000000" stroke-linecap="round" stroke-linejoin="round" stroke-width="0.25"/>
    <path d="M1.95 -4.05 Q2.5 -2.75 2.25 -1.3 1.95 0.45 -0.2 -0.2 -1.25 -0.5 -1.4 -1.4 -1.7 -3.15 -1.1 -4.8 -0.5 -6.5 -0.15 -8.25 L0.45 -7.05 1.95 -4.05" fill="url(#gradient1)" fill-rule="evenodd" stroke="none"/>
    <path d="M1.95 -4.05 L0.45 -7.05 -0.15 -8.25 Q-0.5 -6.5 -1.1 -4.8 -1.7 -3.15 -1.4 -1.4 -1.25 -0.5 -0.2 -0.2 1.95 0.45 2.25 -1.3 2.5 -2.75 1.95 -4.05 Z" fill="none" stroke="#000000" stroke-linecap="round" stroke-linejoin="round" stroke-width="0.25"/>
  </g>
  <defs>
    <radialGradient cx="0" cy="0" gradientTransform="matrix(-0.0054, 0.0, 0.0, -0.0054, 0.6, 2.75)" gradientUnits="userSpaceOnUse" id="gradient0" r="819.2" spreadMethod="pad">
      <stop offset="0.0" stop-color="#bebe4b"/>
      <stop offset="1.0" stop-color="#ffffff"/>
    </radialGradient>
    <radialGradient cx="0" cy="0" gradientTransform="matrix(0.0054, 0.0, 0.0, 0.0054, 0.25, -1.85)" gradientUnits="userSpaceOnUse" id="gradient1" r="819.2" spreadMethod="pad">
      <stop offset="0.0" stop-color="#bebe4b"/>
      <stop offset="1.0" stop-color="#ffffff"/>
    </radialGradient>
  </defs>
</svg>
