<?xml version="1.0" encoding="UTF-8" standalone="no"?>
<svg xmlns:xlink="http://www.w3.org/1999/xlink" height="29.7px" width="29.55px" xmlns="http://www.w3.org/2000/svg">
  <g transform="matrix(1.0, 0.0, 0.0, 1.0, 13.1, 14.5)">
    <path d="M6.55 -12.3 Q6.9 -12.75 7.4 -12.75 8.85 -12.45 8.65 -10.95 L8.65 -10.85 Q9.9 -10.7 10.7 -9.55 11.9 -11.25 13.8 -10.35 L14.4 -9.8 14.65 -9.15 Q16.25 -8.0 15.35 -6.15 L15.05 -5.45 16.1 -4.2 Q17.05 -2.85 15.55 -2.1 L15.2 -2.0 15.55 0.05 15.4 0.7 15.25 1.0 Q14.95 2.8 13.45 3.7 L12.8 3.8 Q12.25 3.65 12.0 3.15 L10.35 5.55 10.9 6.7 11.0 7.75 Q12.5 8.8 11.4 10.15 L10.75 10.5 8.25 10.35 Q6.8 12.7 4.2 12.05 L3.45 11.55 Q2.9 10.85 3.35 10.05 2.25 9.2 3.0 8.05 3.25 7.7 3.7 7.65 L4.55 7.55 4.9 7.05 Q4.35 6.8 4.25 6.1 4.15 5.45 4.4 4.9 L4.0 4.9 3.35 5.25 Q3.4 7.2 1.8 8.2 L1.05 8.35 0.45 8.05 Q-1.2 8.95 -2.65 8.05 L-2.7 8.1 Q-2.9 8.8 -3.45 9.3 -2.35 11.3 -4.35 12.5 -5.4 13.1 -5.95 14.3 -6.65 15.8 -8.15 14.85 L-8.55 14.35 Q-9.25 12.4 -7.75 11.0 L-7.75 9.9 -7.6 9.3 -7.6 9.2 -8.05 9.4 Q-9.35 9.8 -9.7 8.5 L-9.7 7.6 -10.35 6.3 -10.35 5.9 Q-11.4 5.8 -12.25 4.9 -13.0 4.1 -12.85 2.9 L-12.65 2.0 -12.45 1.7 Q-13.55 -0.15 -12.85 -2.2 -12.65 -2.75 -12.1 -3.0 L-12.7 -4.15 Q-13.05 -5.05 -12.5 -5.85 -11.85 -6.95 -10.6 -7.2 -10.8 -9.25 -9.05 -10.35 L-8.95 -10.5 Q-8.55 -11.1 -7.85 -11.15 -6.1 -10.85 -6.75 -9.2 -7.05 -8.4 -7.8 -7.9 L-8.1 -7.65 Q-7.55 -6.9 -7.5 -5.95 L-7.5 -5.5 Q-6.5 -5.6 -5.9 -4.75 L-5.85 -4.7 -4.75 -6.35 -5.2 -6.85 Q-5.75 -7.6 -5.25 -8.35 L-5.0 -8.65 -4.85 -9.15 -4.6 -9.6 -4.5 -9.9 -4.55 -9.95 -4.55 -10.05 -4.6 -10.15 Q-6.15 -11.0 -5.35 -12.7 -5.0 -13.35 -4.25 -13.45 L-3.6 -14.15 -2.75 -14.5 Q-1.4 -14.65 -0.4 -13.8 -0.1 -13.55 -0.05 -13.15 0.0 -12.65 -0.1 -12.2 L2.15 -11.9 Q3.0 -11.8 3.2 -11.05 4.55 -11.15 5.85 -10.5 L5.9 -10.9 Q6.05 -11.7 6.55 -12.3 M6.5 -7.4 L6.3 -7.35 5.6 -7.2 4.4 -6.95 Q5.05 -6.25 4.75 -5.0 4.55 -4.05 3.8 -3.45 L3.75 -2.25 Q4.55 -2.75 5.5 -2.8 L6.1 -2.95 7.15 -3.3 Q6.45 -3.65 6.35 -4.7 6.25 -6.0 6.4 -7.2 L6.5 -7.4 M4.65 1.5 L5.35 0.95 Q3.55 1.2 3.0 -0.05 2.35 0.8 1.05 0.45 L1.85 1.25 2.05 1.55 Q2.9 1.65 3.45 2.1 L3.75 1.95 4.65 1.5 M0.75 0.35 Q-0.15 0.0 -0.05 -1.05 L0.0 -1.3 -0.2 -1.8 -0.25 -2.15 -0.25 -2.35 -0.8 -3.25 Q-1.1 -2.55 -1.8 -1.9 L-1.55 -1.4 Q-1.3 -0.8 -1.35 -0.15 L-1.25 0.1 -0.7 -0.15 -0.5 -0.15 Q0.05 -0.15 0.4 0.25 L0.45 0.3 0.75 0.35 M-5.0 1.25 Q-5.7 1.25 -6.2 0.8 L-6.65 0.3 -7.6 0.8 Q-6.8 2.65 -7.2 4.65 L-7.7 5.7 -7.25 6.05 -6.75 5.4 -6.0 4.9 -5.9 3.75 Q-5.8 3.2 -5.25 3.0 L-3.65 2.75 -3.45 1.55 -3.65 1.0 -5.0 1.25" fill="url(#gradient0)" fill-rule="evenodd" stroke="none"/>
  </g>
  <defs>
    <radialGradient cx="0" cy="0" gradientTransform="matrix(0.0214, 0.0, 0.0, 0.0214, 1.65, 0.35)" gradientUnits="userSpaceOnUse" id="gradient0" r="819.2" spreadMethod="pad">
      <stop offset="0.0" stop-color="#644426"/>
      <stop offset="0.6627450980392157" stop-color="#9f6a35"/>
      <stop offset="0.9882352941176471" stop-color="#9f6a35" stop-opacity="0.0"/>
    </radialGradient>
  </defs>
</svg>
