<?xml version="1.0" encoding="UTF-8" standalone="no"?>
<svg xmlns:xlink="http://www.w3.org/1999/xlink" height="26.1px" width="28.1px" xmlns="http://www.w3.org/2000/svg">
  <g transform="matrix(1.0, 0.0, 0.0, 1.0, 13.35, 13.25)">
    <path d="M0.9 -12.65 L1.25 -12.5 1.75 -12.35 2.15 -12.2 2.45 -12.25 3.75 -12.2 5.65 -11.15 5.85 -11.1 6.5 -11.4 6.9 -11.55 Q7.55 -11.55 8.0 -12.0 L8.7 -12.35 9.45 -12.1 9.8 -11.75 10.0 -11.35 10.65 -10.0 11.1 -9.55 12.4 -8.25 12.65 -7.65 Q12.8 -7.15 13.25 -6.95 L13.75 -6.7 14.15 -6.55 Q14.85 -6.55 14.75 -5.9 L14.1 -3.9 Q13.85 -3.35 13.9 -2.75 L13.85 -2.0 13.75 0.0 13.85 0.75 14.25 1.6 14.3 1.8 13.65 2.75 13.2 3.3 12.95 3.85 12.85 4.6 Q12.7 5.8 11.65 6.5 L11.1 6.75 10.65 6.9 10.15 7.05 9.75 7.2 8.5 7.95 8.0 8.35 Q7.6 8.7 7.7 9.25 L7.5 9.75 6.95 10.0 6.55 10.2 5.85 10.45 5.3 10.7 Q4.9 10.85 4.55 11.15 L3.9 11.6 3.55 11.9 2.9 12.55 2.5 12.7 1.25 12.35 0.95 12.05 0.25 11.55 0.0 11.55 -0.5 11.7 -1.0 11.75 -1.75 11.9 -2.6 12.15 -5.1 12.35 -5.7 12.45 -7.85 12.85 -8.45 12.75 Q-9.95 12.35 -11.0 11.25 L-11.15 11.0 -11.1 10.6 Q-10.85 9.6 -10.25 8.75 L-9.95 8.05 -9.9 7.5 -9.95 7.0 -9.95 6.25 Q-9.85 5.35 -10.5 4.75 L-10.95 4.3 -11.35 3.6 Q-11.45 2.9 -11.15 2.25 -10.95 1.75 -11.1 1.25 L-11.3 1.1 Q-11.85 0.95 -11.75 0.35 L-11.75 -0.05 -12.85 -1.65 -13.0 -1.9 -13.35 -3.65 -13.25 -4.1 -12.35 -5.25 -11.1 -6.15 -9.6 -7.5 -9.45 -7.9 -9.5 -8.75 -9.45 -9.0 -9.35 -9.25 -8.6 -10.05 -8.35 -10.2 -7.5 -10.5 -7.25 -10.55 Q-6.4 -10.85 -6.05 -11.75 L-5.85 -11.85 -5.35 -11.9 -4.5 -12.05 -4.35 -12.15 -4.15 -12.3 -4.0 -12.4 -3.9 -12.55 -3.9 -12.65 -3.8 -12.85 -3.6 -13.05 -3.5 -13.1 -2.35 -13.2 -2.15 -13.1 -1.6 -12.75 -1.35 -12.6 -1.1 -12.5 0.0 -12.45 0.35 -12.6 0.9 -12.65 M7.0 -7.2 L6.4 -7.65 5.9 -7.75 5.75 -7.7 4.9 -7.85 Q4.3 -8.15 3.85 -8.6 L3.55 -8.8 3.1 -9.05 2.75 -9.2 1.65 -9.1 1.1 -8.7 0.9 -8.5 Q0.55 -8.15 0.0 -8.2 L-0.35 -8.3 -0.75 -8.45 -1.85 -8.65 -2.75 -8.65 -3.0 -8.7 Q-3.55 -8.65 -3.85 -8.4 L-4.05 -8.2 -4.25 -8.15 -4.75 -8.05 -5.0 -8.0 -5.95 -7.7 -6.1 -7.5 -6.2 -7.35 -6.8 -6.65 -7.0 -6.0 Q-7.0 -5.05 -7.45 -4.4 L-7.6 -4.15 -7.95 -3.25 -8.1 -2.5 -8.05 -1.9 -7.95 -1.5 -7.7 -1.2 -7.6 -0.75 -7.55 -0.15 -7.5 0.25 -7.45 0.6 -7.4 0.75 -7.35 1.0 -7.3 2.75 -7.3 3.0 -7.2 3.35 -7.15 3.5 -7.1 3.75 -7.1 5.1 -6.9 5.55 -6.7 5.7 Q-6.4 6.1 -5.85 6.0 -5.45 5.9 -5.2 6.2 L-5.0 6.4 Q-4.65 6.65 -4.65 7.1 L-4.65 7.5 -4.55 7.7 -4.35 7.85 -3.85 8.05 -3.75 8.05 -2.0 7.85 -0.3 7.65 0.4 7.75 1.75 7.6 2.2 7.7 2.4 7.75 3.2 7.7 3.65 7.65 4.45 7.4 4.65 7.1 Q5.1 6.25 5.85 5.7 L6.15 5.6 6.65 5.55 7.0 5.4 7.85 4.65 8.15 4.35 8.45 3.6 8.45 2.6 8.55 2.25 8.85 1.7 8.95 1.5 9.15 1.1 10.0 -1.15 9.95 -2.0 9.9 -2.4 Q9.95 -2.95 9.55 -3.1 L9.4 -3.25 8.85 -4.35 8.5 -4.7 8.15 -4.85 7.9 -5.0 7.6 -5.5 7.55 -5.9 7.2 -6.95 7.0 -7.2" fill="url(#gradient0)" fill-rule="evenodd" stroke="none"/>
    <path d="M7.0 -7.2 L7.2 -6.95 7.55 -5.9 7.6 -5.5 7.9 -5.0 8.15 -4.85 8.5 -4.7 8.85 -4.35 9.4 -3.25 9.55 -3.1 Q9.95 -2.95 9.9 -2.4 L9.95 -2.0 10.0 -1.15 9.15 1.1 8.95 1.5 8.85 1.7 8.55 2.25 8.45 2.6 8.45 3.6 8.15 4.35 7.85 4.65 7.0 5.4 6.65 5.55 6.15 5.6 5.85 5.7 Q5.1 6.25 4.65 7.1 L4.45 7.4 3.65 7.65 3.2 7.7 2.4 7.75 2.2 7.7 1.75 7.6 0.4 7.75 -0.3 7.65 -2.0 7.85 -3.75 8.05 -3.85 8.05 -4.35 7.85 -4.55 7.7 -4.65 7.5 -4.65 7.1 Q-4.65 6.65 -5.0 6.4 L-5.2 6.2 Q-5.45 5.9 -5.85 6.0 -6.4 6.1 -6.7 5.7 L-6.9 5.55 -7.1 5.1 -7.1 3.75 -7.15 3.5 -7.2 3.35 -7.3 3.0 -7.3 2.75 -7.35 1.0 -7.4 0.75 -7.45 0.6 -7.5 0.25 -7.55 -0.15 -7.6 -0.75 -7.7 -1.2 -7.95 -1.5 -8.05 -1.9 -8.1 -2.5 -7.95 -3.25 -7.6 -4.15 -7.45 -4.4 Q-7.0 -5.05 -7.0 -6.0 L-6.8 -6.65 -6.2 -7.35 -6.1 -7.5 -5.95 -7.7 -5.0 -8.0 -4.75 -8.05 -4.25 -8.15 -4.05 -8.2 -3.85 -8.4 Q-3.55 -8.65 -3.0 -8.7 L-2.75 -8.65 -1.85 -8.65 -0.75 -8.45 -0.35 -8.3 0.0 -8.2 Q0.55 -8.15 0.9 -8.5 L1.1 -8.7 1.65 -9.1 2.75 -9.2 3.1 -9.05 3.55 -8.8 3.85 -8.6 Q4.3 -8.15 4.9 -7.85 L5.75 -7.7 5.9 -7.75 6.4 -7.65 7.0 -7.2" fill="url(#gradient1)" fill-rule="evenodd" stroke="none"/>
    <path d="M7.0 -7.2 L6.4 -7.65 5.9 -7.75 5.75 -7.7 4.9 -7.85 Q4.3 -8.15 3.85 -8.6 L3.55 -8.8 3.1 -9.05 2.75 -9.2 1.65 -9.1 1.1 -8.7 0.9 -8.5 Q0.55 -8.15 0.0 -8.2 L-0.35 -8.3 -0.75 -8.45 -1.85 -8.65 -2.75 -8.65 -3.0 -8.7 Q-3.55 -8.65 -3.85 -8.4 L-4.05 -8.2 -4.25 -8.15 -4.75 -8.05 -5.0 -8.0 -5.95 -7.7 -6.1 -7.5 -6.2 -7.35 -6.8 -6.65 -7.0 -6.0 Q-7.0 -5.05 -7.45 -4.4 L-7.6 -4.15 -7.95 -3.25 -8.1 -2.5 -8.05 -1.9 -7.95 -1.5 -7.7 -1.2 -7.6 -0.75 -7.55 -0.15 -7.5 0.25 -7.45 0.6 -7.4 0.75 -7.35 1.0 -7.3 2.75 -7.3 3.0 -7.2 3.35 -7.15 3.5 -7.1 3.75 -7.1 5.1 -6.9 5.55 -6.7 5.7 Q-6.4 6.1 -5.85 6.0 -5.45 5.9 -5.2 6.2 L-5.0 6.4 Q-4.65 6.65 -4.65 7.1 L-4.65 7.5 -4.55 7.7 -4.35 7.85 -3.85 8.05 -3.75 8.05 -2.0 7.85 -0.3 7.65 0.4 7.75 1.75 7.6 2.2 7.7 2.4 7.75 3.2 7.7 3.65 7.65 4.45 7.4 4.65 7.1 Q5.1 6.25 5.85 5.7 L6.15 5.6 6.65 5.55 7.0 5.4 7.85 4.65 8.15 4.35 8.45 3.6 8.45 2.6 8.55 2.25 8.85 1.7 8.95 1.5 9.15 1.1 10.0 -1.15 9.95 -2.0 9.9 -2.4 Q9.95 -2.95 9.55 -3.1 L9.4 -3.25 8.85 -4.35 8.5 -4.7 8.15 -4.85 7.9 -5.0 7.6 -5.5 7.55 -5.9 7.2 -6.95 7.0 -7.2 Z" fill="none" stroke="#432f1d" stroke-linecap="round" stroke-linejoin="round" stroke-width="0.5"/>
  </g>
  <defs>
    <radialGradient cx="0" cy="0" gradientTransform="matrix(0.0199, 0.0, 0.0, 0.0199, 0.65, -0.15)" gradientUnits="userSpaceOnUse" id="gradient0" r="819.2" spreadMethod="pad">
      <stop offset="0.3607843137254902" stop-color="#9f6a35"/>
      <stop offset="0.7137254901960784" stop-color="#4d311e"/>
      <stop offset="1.0" stop-color="#ffffff" stop-opacity="0.0"/>
    </radialGradient>
    <radialGradient cx="0" cy="0" gradientTransform="matrix(0.0128, 0.0, 0.0, 0.0128, 0.95, -0.55)" gradientUnits="userSpaceOnUse" id="gradient1" r="819.2" spreadMethod="pad">
      <stop offset="0.32941176470588235" stop-color="#000000"/>
      <stop offset="1.0" stop-color="#6b4723"/>
    </radialGradient>
  </defs>
</svg>
