<?xml version="1.0" encoding="UTF-8" standalone="no"?>
<svg xmlns:xlink="http://www.w3.org/1999/xlink" height="8.6px" width="18.05px" xmlns="http://www.w3.org/2000/svg">
  <g transform="matrix(1.0, 0.0, 0.0, 1.0, 9.05, 4.3)">
    <path d="M-1.1 0.95 L-0.4 -1.05 Q0.0 -0.85 0.05 0.05 L0.05 0.7 0.5 -1.0 Q1.0 -0.9 1.3 0.05 1.7 0.3 1.9 -1.2 2.05 -2.05 1.65 -2.55 3.0 -3.2 3.15 -1.45 L3.1 0.2 Q2.9 1.45 3.8 -0.2 L4.65 -1.45 Q4.95 -1.75 4.9 -2.3 5.7 -1.55 5.45 -0.1 5.35 0.55 5.55 1.1 7.0 0.15 7.05 -1.7 7.15 -3.15 6.3 -4.05 8.15 -3.8 8.45 -1.95 L8.75 0.7 Q8.8 2.35 7.85 3.4 6.8 4.6 5.8 3.2 5.1 2.2 4.15 2.25 2.95 2.35 2.8 1.2 2.15 2.65 1.55 1.7 L1.05 1.05 Q0.85 1.95 -0.45 1.85 -0.95 1.8 -1.1 0.95" fill="url(#gradient0)" fill-rule="evenodd" stroke="none"/>
    <path d="M-2.9 0.8 Q-2.8 2.45 -3.7 2.0 -4.1 1.8 -4.6 1.7 -4.3 3.4 -5.55 3.95 L-6.85 3.8 Q-8.35 2.75 -8.7 0.75 -9.0 -1.2 -8.15 -2.95 L-7.6 -3.8 Q-8.1 -2.35 -7.4 -0.35 L-6.85 0.2 Q-5.75 0.75 -5.35 1.8 L-4.95 2.55 Q-4.8 0.9 -5.2 -0.5 -5.4 -1.3 -5.2 -2.1 -5.05 -1.35 -3.85 -0.45 -3.05 0.15 -2.9 0.8" fill="url(#gradient1)" fill-rule="evenodd" stroke="none"/>
    <path d="M-1.1 0.95 Q-1.3 2.45 -2.85 1.45 L-2.6 -1.2 -2.35 -2.45 Q-2.25 -1.25 -1.45 -0.45 -0.95 0.0 -1.1 0.95" fill="url(#gradient2)" fill-rule="evenodd" stroke="none"/>
    <path d="M-1.1 0.95 L-0.4 -1.05 Q0.0 -0.85 0.05 0.05 L0.05 0.7 0.5 -1.0 Q1.0 -0.9 1.3 0.05 1.7 0.3 1.9 -1.2 2.05 -2.05 1.65 -2.55 3.0 -3.2 3.15 -1.45 L3.1 0.2 Q2.9 1.45 3.8 -0.2 L4.65 -1.45 Q4.95 -1.75 4.9 -2.3 5.7 -1.55 5.45 -0.1 5.35 0.55 5.55 1.1 7.0 0.15 7.05 -1.7 7.15 -3.15 6.3 -4.05 8.15 -3.8 8.45 -1.95 L8.75 0.7 Q8.8 2.35 7.85 3.4 6.8 4.6 5.8 3.2 5.1 2.2 4.15 2.25 2.95 2.35 2.8 1.2 2.15 2.65 1.55 1.7 L1.05 1.05 Q0.85 1.95 -0.45 1.85 -0.95 1.8 -1.1 0.95 -1.3 2.45 -2.85 1.45 L-2.9 0.8 Q-2.8 2.45 -3.7 2.0 -4.1 1.8 -4.6 1.7 -4.3 3.4 -5.55 3.95 L-6.85 3.8 Q-8.35 2.75 -8.7 0.75 -9.0 -1.2 -8.15 -2.95 L-7.6 -3.8 Q-8.1 -2.35 -7.4 -0.35 L-6.85 0.2 Q-5.75 0.75 -5.35 1.8 L-4.95 2.55 Q-4.8 0.9 -5.2 -0.5 -5.4 -1.3 -5.2 -2.1 -5.05 -1.35 -3.85 -0.45 -3.05 0.15 -2.9 0.8 M-2.85 1.45 L-2.6 -1.2 -2.35 -2.45 Q-2.25 -1.25 -1.45 -0.45 -0.95 0.0 -1.1 0.95" fill="none" stroke="#000000" stroke-linecap="round" stroke-linejoin="round" stroke-width="0.5"/>
  </g>
  <defs>
    <radialGradient cx="0" cy="0" gradientTransform="matrix(8.0E-4, -0.0032, 0.0064, 0.0016, 4.3, 2.15)" gradientUnits="userSpaceOnUse" id="gradient0" r="819.2" spreadMethod="pad">
      <stop offset="0.0" stop-color="#bebe4b"/>
      <stop offset="1.0" stop-color="#ffffff"/>
    </radialGradient>
    <radialGradient cx="0" cy="0" gradientTransform="matrix(0.0011, 0.0021, -0.0049, 0.0026, -6.05, 2.45)" gradientUnits="userSpaceOnUse" id="gradient1" r="819.2" spreadMethod="pad">
      <stop offset="0.0" stop-color="#bebe4b"/>
      <stop offset="1.0" stop-color="#ffffff"/>
    </radialGradient>
    <radialGradient cx="0" cy="0" gradientTransform="matrix(0.0043, 0.0, 0.0, 0.0043, -1.85, 0.95)" gradientUnits="userSpaceOnUse" id="gradient2" r="819.2" spreadMethod="pad">
      <stop offset="0.0" stop-color="#ffffff"/>
      <stop offset="1.0" stop-color="#ffffff"/>
    </radialGradient>
  </defs>
</svg>
