<?xml version="1.0" encoding="UTF-8" standalone="no"?>
<svg xmlns:xlink="http://www.w3.org/1999/xlink" height="8.8px" width="5.35px" xmlns="http://www.w3.org/2000/svg">
  <g transform="matrix(1.0, 0.0, 0.0, 1.0, 2.7, 4.4)">
    <path d="M-1.75 -2.95 L-1.0 -1.7 Q-0.4 -0.5 0.65 0.4 L1.65 1.2 2.0 1.55 Q2.5 2.05 2.35 3.1 2.1 4.5 0.45 4.05 L-0.05 3.95 Q-0.55 3.95 -0.8 3.6 L-2.05 1.35 -2.2 0.85 -2.4 -0.15 -2.45 -1.65 -2.3 -4.15 -1.75 -2.95" fill="url(#gradient0)" fill-rule="evenodd" stroke="none"/>
    <path d="M-1.75 -2.95 L-1.0 -1.7 Q-0.4 -0.5 0.65 0.4 L1.65 1.2 2.0 1.55 Q2.5 2.05 2.35 3.1 2.1 4.5 0.45 4.05 L-0.05 3.95 Q-0.55 3.95 -0.8 3.6 L-2.05 1.35 -2.2 0.85 -2.4 -0.15 -2.45 -1.65 -2.3 -4.15 -1.75 -2.95 Z" fill="none" stroke="#000000" stroke-linecap="round" stroke-linejoin="round" stroke-width="0.5"/>
  </g>
  <defs>
    <radialGradient cx="0" cy="0" gradientTransform="matrix(0.0029, 0.0, 0.0, 0.0029, 0.85, 2.45)" gradientUnits="userSpaceOnUse" id="gradient0" r="819.2" spreadMethod="pad">
      <stop offset="0.0" stop-color="#bebe4b"/>
      <stop offset="1.0" stop-color="#ffffff"/>
    </radialGradient>
  </defs>
</svg>
