<?xml version="1.0" encoding="UTF-8" standalone="no"?>
<svg xmlns:xlink="http://www.w3.org/1999/xlink" height="20.0px" width="6.5px" xmlns="http://www.w3.org/2000/svg">
  <g transform="matrix(1.0, 0.0, 0.0, 1.0, 3.25, 10.0)">
    <path d="M-0.3 -9.75 L0.05 -8.0 Q0.5 -3.3 2.3 1.0 3.7 4.35 2.2 7.5 0.75 10.55 -0.55 9.5 L-1.2 8.65 Q-3.55 4.55 -2.85 -0.55 L-2.5 -2.5 Q-1.75 -6.3 -0.3 -9.75" fill="url(#gradient0)" fill-rule="evenodd" stroke="none"/>
    <path d="M-0.3 -9.75 Q-1.75 -6.3 -2.5 -2.5 L-2.85 -0.55 Q-3.55 4.55 -1.2 8.65 L-0.55 9.5 Q0.75 10.55 2.2 7.5 3.7 4.35 2.3 1.0 0.5 -3.3 0.05 -8.0 L-0.3 -9.75 Z" fill="none" stroke="#000000" stroke-linecap="round" stroke-linejoin="round" stroke-width="0.5"/>
  </g>
  <defs>
    <radialGradient cx="0" cy="0" gradientTransform="matrix(0.004, -6.0E-4, 0.0011, 0.007, 0.65, 3.3)" gradientUnits="userSpaceOnUse" id="gradient0" r="819.2" spreadMethod="pad">
      <stop offset="0.0" stop-color="#bebe4b"/>
      <stop offset="1.0" stop-color="#ffffff"/>
    </radialGradient>
  </defs>
</svg>
