<?xml version="1.0" encoding="UTF-8" standalone="no"?>
<svg xmlns:xlink="http://www.w3.org/1999/xlink" height="46.0px" width="46.5px" xmlns="http://www.w3.org/2000/svg">
  <g transform="matrix(1.0, 0.0, 0.0, 1.0, 23.25, 23.0)">
    <path d="M0.0 -22.5 Q9.4 -22.5 16.05 -15.9 22.75 -9.3 22.75 0.0 22.75 9.3 16.05 15.9 9.4 22.5 0.0 22.5 -9.4 22.5 -16.1 15.9 -22.75 9.3 -22.75 0.0 -22.75 -9.3 -16.1 -15.9 -9.4 -22.5 0.0 -22.5 Z" fill="none" stroke="#000000" stroke-linecap="round" stroke-linejoin="round" stroke-width="1.0"/>
    <path d="M0.85 -1.0 L4.2 -2.95 4.85 -1.9 1.5 0.05 0.85 -1.0 0.85 -0.8 -0.35 -0.8 -0.35 -1.1 -1.0 0.0 -4.3 -1.95 -3.7 -3.0 -0.35 -1.1 -0.35 -4.65 0.85 -4.65 0.85 -1.0 M-3.4 -4.45 L-5.3 -1.1 Q-19.6 -8.4 -17.4 -12.55 L-3.4 -4.45 M2.25 -21.3 L2.25 -5.15 -1.6 -5.15 Q-2.5 -21.15 2.25 -21.3 M5.9 -0.9 L4.0 -4.25 Q17.4 -13.0 19.95 -9.0 L5.9 -0.9 M-0.35 1.1 L-3.65 3.0 -4.3 1.95 -0.95 0.0 -0.35 1.1 M-5.4 0.95 L-3.45 4.3 Q-16.9 13.05 -19.35 9.05 L-5.4 0.95 M-0.3 1.1 L0.9 1.1 1.5 0.1 4.8 2.05 4.2 3.1 0.95 1.25 0.95 4.95 -0.3 4.95 -0.3 1.1 M3.9 4.55 L5.8 1.2 Q20.1 8.45 17.9 12.65 L3.9 4.55 M-1.7 21.6 L-1.7 5.4 2.15 5.4 Q3.0 21.4 -1.7 21.6" fill="#000000" fill-rule="evenodd" stroke="none"/>
  </g>
</svg>
