<?xml version="1.0" encoding="UTF-8" standalone="no"?>
<svg xmlns:xlink="http://www.w3.org/1999/xlink" height="6.55px" width="3.1px" xmlns="http://www.w3.org/2000/svg">
  <g transform="matrix(1.0, 0.0, 0.0, 1.0, 1.55, 3.3)">
    <path d="M1.25 1.2 Q1.45 2.45 0.75 2.75 L0.45 2.85 -0.35 2.95 -0.7 2.65 -1.1 1.95 -1.25 1.2 Q-1.45 -0.2 -1.05 -1.05 -0.55 -1.95 -0.3 -3.05 0.15 -2.75 0.1 -1.8 L0.2 -1.3 0.85 0.0 1.25 1.2" fill="url(#gradient0)" fill-rule="evenodd" stroke="none"/>
    <path d="M1.25 1.2 Q1.45 2.45 0.75 2.75 L0.45 2.85 -0.35 2.95 -0.7 2.65 -1.1 1.95 -1.25 1.2 Q-1.45 -0.2 -1.05 -1.05 -0.55 -1.95 -0.3 -3.05 0.15 -2.75 0.1 -1.8 L0.2 -1.3 0.85 0.0 1.25 1.2 Z" fill="none" stroke="#000000" stroke-linecap="round" stroke-linejoin="round" stroke-width="0.5"/>
  </g>
  <defs>
    <radialGradient cx="0" cy="0" gradientTransform="matrix(0.0026, 0.0, 0.0, 0.0027, 0.2, 1.35)" gradientUnits="userSpaceOnUse" id="gradient0" r="819.2" spreadMethod="pad">
      <stop offset="0.0" stop-color="#bebe4b"/>
      <stop offset="1.0" stop-color="#ffffff"/>
    </radialGradient>
  </defs>
</svg>
