<?xml version="1.0" encoding="UTF-8" standalone="no"?>
<svg xmlns:xlink="http://www.w3.org/1999/xlink" height="43.25px" width="48.7px" xmlns="http://www.w3.org/2000/svg">
  <g transform="matrix(1.0, 0.0, 0.0, 1.0, 24.5, 21.55)">
    <path d="M-0.85 -17.5 L-0.6 -19.5 Q-0.5 -20.5 -0.05 -21.3 L0.8 -19.95 1.25 -18.25 1.25 -18.2 1.05 -16.65 Q0.9 -15.7 1.55 -14.85 L2.15 -7.35 1.95 -6.9 Q1.3 -6.2 2.3 -5.4 L2.3 -5.25 2.25 -5.0 2.25 -4.8 2.25 -4.75 2.2 -4.5 2.15 -4.3 Q2.05 -4.0 1.65 -4.0 L1.25 -3.9 1.65 -4.0 Q2.05 -4.0 2.15 -4.3 L2.2 -4.5 2.25 -4.75 2.8 -4.45 3.1 -4.3 4.4 -5.1 6.05 -5.5 6.4 -5.85 6.45 -6.1 6.65 -6.5 7.05 -6.75 11.45 -9.45 13.05 -10.25 14.35 -10.7 14.6 -10.75 14.15 -9.35 13.25 -8.1 13.2 -8.05 11.95 -7.45 Q11.2 -7.05 11.0 -6.1 L6.25 -1.95 9.45 -1.75 11.45 -1.05 12.1 -1.15 Q12.35 -1.5 12.8 -1.55 L13.35 -1.5 19.8 -1.05 22.0 -0.8 23.95 -0.25 22.45 0.6 20.65 1.05 20.55 1.05 18.85 0.85 Q17.8 0.7 16.9 1.35 L8.7 1.95 Q8.4 1.95 8.2 1.75 7.35 1.1 6.55 2.1 L6.4 2.1 6.1 2.05 5.85 2.05 5.55 2.0 5.35 1.95 5.25 1.95 5.1 2.25 6.75 4.15 7.5 5.8 Q7.6 6.15 7.9 6.1 L8.6 6.25 8.9 6.65 9.2 6.95 12.45 10.75 13.55 12.25 14.35 13.8 12.85 13.55 11.45 12.75 11.4 12.7 10.5 11.55 Q10.0 10.85 9.0 10.75 L3.7 6.3 3.55 5.85 Q3.5 4.9 2.3 5.15 L2.2 5.05 2.15 4.95 2.05 4.85 0.0 5.15 -1.8 4.9 -1.85 4.95 -3.95 6.75 -5.65 7.5 -5.95 7.9 -6.1 8.6 -6.45 8.9 -10.6 12.45 -12.1 13.55 Q-12.8 14.1 -13.65 14.35 -13.7 13.65 -13.35 12.85 L-12.6 11.45 -12.55 11.4 -11.35 10.5 Q-10.7 10.0 -10.6 9.0 L-8.65 6.7 -6.1 3.7 -5.7 3.55 Q-4.85 3.5 -4.95 2.5 L-4.95 2.3 -4.85 2.2 -4.9 2.25 -5.05 2.35 -5.15 2.1 -5.25 2.2 -6.25 2.4 -6.35 2.4 -9.75 2.2 -11.75 1.55 -12.35 1.6 -13.05 2.0 -13.65 1.95 -20.1 1.55 -22.25 1.25 -24.25 0.75 Q-23.75 0.2 -22.75 -0.15 L-20.9 -0.6 -20.85 -0.6 -19.1 -0.4 Q-18.1 -0.25 -17.15 -0.9 L-8.95 -1.5 -8.45 -1.3 Q-7.65 -0.65 -6.8 -1.65 L-6.65 -1.65 -6.35 -1.6 -6.15 -1.6 -5.85 -1.55 -5.6 -1.5 -5.4 -1.4 -5.25 -1.8 -5.65 -1.8 -6.05 -1.9 -11.0 -6.25 Q-11.25 -7.2 -12.0 -7.55 L-13.2 -8.2 -13.25 -8.25 -14.2 -9.45 -14.65 -10.9 -14.35 -10.85 -13.05 -10.4 -11.5 -9.6 -7.05 -6.9 -6.7 -6.65 -6.45 -6.0 -6.1 -5.65 -4.4 -5.25 -3.0 -4.35 -2.1 -3.85 -1.55 -3.15 -1.55 -2.95 -1.7 -2.55 -1.55 -2.95 -1.55 -3.15 -2.1 -3.85 -3.0 -4.35 -2.25 -4.7 -1.75 -4.9 -1.75 -5.0 -1.55 -8.05 -0.85 -9.9 Q-0.7 -10.25 -0.95 -10.45 L-1.35 -11.1 -1.3 -11.6 -0.85 -17.5 M-0.95 -3.75 L-1.35 -3.85 -1.5 -4.0 Q-1.8 -4.4 -1.75 -4.9 -1.8 -4.4 -1.5 -4.0 L-1.35 -3.85 -0.95 -3.75 M2.1 -3.7 L3.1 -4.3 2.1 -3.7 1.5 -2.95 1.5 -2.75 1.7 -2.4 1.5 -2.75 1.5 -2.95 2.1 -3.7 M1.35 -0.9 L0.05 -1.15 -0.4 -1.15 Q-0.9 -1.1 -1.05 -0.65 L-1.4 -0.2 Q-1.9 0.45 -1.7 1.4 L-1.6 1.8 Q-1.05 2.75 0.0 2.95 0.75 3.1 1.1 2.7 L1.35 2.35 1.7 1.4 1.75 1.0 1.75 -0.2 1.7 -0.4 1.35 -0.9 M3.1 -0.7 L3.4 -0.45 Q3.6 -0.1 3.9 -0.15 L4.05 -0.25 4.3 -0.35 4.45 -0.45 4.65 -0.55 4.45 -0.45 4.3 -0.35 4.05 -0.25 3.9 -0.15 Q3.6 -0.1 3.4 -0.45 L3.1 -0.7 M4.75 -0.65 L4.65 -0.55 4.7 -0.55 4.85 -0.75 4.75 -0.65 4.75 -0.9 Q4.8 -1.8 5.6 -1.7 L6.05 -1.75 6.25 -1.95 6.05 -1.75 5.6 -1.7 Q4.8 -1.8 4.75 -0.9 L4.75 -0.65 M4.9 1.05 L5.0 1.45 5.0 1.6 5.25 1.95 5.0 1.6 5.0 1.45 4.9 1.05 M3.55 1.75 Q3.65 1.6 3.9 1.55 L4.1 1.5 Q4.55 1.6 4.9 2.0 4.55 1.6 4.1 1.5 L3.9 1.55 Q3.65 1.6 3.55 1.75 M2.05 4.85 L1.95 4.7 1.8 4.45 1.7 4.3 Q1.55 4.05 1.85 3.75 L2.1 3.45 1.85 3.75 Q1.55 4.05 1.7 4.3 L1.8 4.45 1.95 4.7 2.05 4.85 M4.9 2.0 L5.1 2.25 4.9 2.0 M-5.2 -0.6 L-5.3 -1.0 -5.4 -1.4 -5.3 -1.0 -5.2 -0.6 M-4.65 -0.7 L-4.8 -0.75 -4.9 -0.85 -4.75 -0.7 -4.65 -0.7 -4.45 -0.6 -4.3 -0.5 -4.1 -0.4 -3.9 -0.3 -3.4 -0.6 -3.1 -0.85 -3.4 -0.6 -3.9 -0.3 -4.1 -0.4 -4.3 -0.5 -4.45 -0.6 -4.65 -0.7 M-5.25 -1.8 Q-4.75 -1.7 -4.8 -0.75 -4.75 -1.7 -5.25 -1.8 M-4.85 2.2 L-4.65 2.05 -4.5 1.95 -4.3 1.8 -4.15 1.7 Q-3.9 1.55 -3.6 1.85 L-3.25 2.1 -3.6 1.85 Q-3.9 1.55 -4.15 1.7 L-4.3 1.8 -4.5 1.95 -4.65 2.05 -4.85 2.2 M-1.5 3.65 L-1.35 3.9 -1.35 4.1 -1.35 4.15 -1.8 4.9 -1.35 4.15 -1.35 4.1 -1.35 3.9 -1.5 3.65 M-5.0 1.6 L-5.1 2.0 -5.15 2.1 -5.1 2.0 -5.0 1.6" fill="url(#gradient0)" fill-rule="evenodd" stroke="none"/>
    <path d="M2.15 4.95 L2.15 5.1 1.95 8.2 1.3 10.0 Q1.1 10.35 1.35 10.6 L1.75 11.25 1.7 11.75 1.3 17.65 1.0 19.65 0.5 21.45 Q-0.05 20.95 -0.4 20.05 L-0.85 18.4 -0.85 18.3 -0.65 16.75 Q-0.5 15.8 -1.15 14.95 L-1.75 7.5 -1.55 7.05 Q-0.9 6.3 -1.9 5.55 L-1.9 5.4 -1.85 5.1 -1.85 4.95 -1.8 4.9 0.0 5.15 2.05 4.85 2.15 4.95" fill="url(#gradient1)" fill-rule="evenodd" stroke="none"/>
    <path d="M1.35 -0.9 L1.7 -0.4 1.75 -0.2 1.75 1.0 1.7 1.4 1.35 2.35 1.1 2.7 Q0.75 3.1 0.0 2.95 -1.05 2.75 -1.6 1.8 L-1.7 1.4 Q-1.9 0.45 -1.4 -0.2 L-1.05 -0.65 Q-0.9 -1.1 -0.4 -1.15 L0.05 -1.15 1.35 -0.9 M6.65 2.15 L10.35 4.6 Q10.6 5.45 11.25 5.7 L12.4 6.05 12.45 6.1 13.35 7.05 13.8 8.3 12.4 8.15 10.95 7.7 9.2 6.95 8.9 6.65 8.6 6.25 7.9 6.1 Q7.6 6.15 7.5 5.8 L6.75 4.15 5.1 2.25 5.25 1.95 5.35 1.95 5.55 2.0 5.85 2.05 6.1 2.05 6.4 2.1 6.45 2.15 6.65 2.15 M-8.65 6.7 Q-9.5 6.45 -10.05 6.9 L-11.0 7.6 -11.05 7.65 -12.35 7.8 -13.65 7.5 -12.7 6.45 -11.55 5.5 -7.85 3.1 -7.55 2.85 -6.95 3.0 -6.5 2.85 -6.25 2.4 -5.25 2.2 -5.15 2.1 -5.05 2.35 -5.05 2.45 -5.0 2.35 -4.95 2.5 Q-4.85 3.5 -5.7 3.55 L-6.1 3.7 -8.65 6.7 M-14.35 -10.85 L-14.4 -10.95 Q-13.8 -11.15 -12.95 -10.95 L-11.6 -10.5 -11.55 -10.45 -10.65 -9.5 Q-10.1 -8.95 -9.15 -9.0 L-3.8 -5.75 -3.6 -5.35 Q-3.5 -4.5 -2.4 -4.9 L-2.3 -4.8 -2.25 -4.7 -3.0 -4.35 -4.4 -5.25 -6.1 -5.65 -6.45 -6.0 -6.7 -6.65 -7.05 -6.9 -11.5 -9.6 -13.05 -10.4 -14.35 -10.85 M0.35 0.35 L0.15 0.75 0.35 0.35" fill="#ffffff" fill-rule="evenodd" stroke="none"/>
    <path d="M2.25 -4.75 L2.25 -4.8 2.25 -5.0 2.3 -5.25 2.3 -5.4 Q1.3 -6.2 1.95 -6.9 L2.15 -7.35 1.55 -14.85 Q0.9 -15.7 1.05 -16.65 L1.25 -18.2 1.25 -18.25 0.8 -19.95 -0.05 -21.3 Q-0.5 -20.5 -0.6 -19.5 L-0.85 -17.5 M-1.3 -11.6 L-1.35 -11.1 -0.95 -10.45 Q-0.7 -10.25 -0.85 -9.9 L-1.55 -8.05 M-1.75 -5.0 L-1.75 -4.9 Q-1.8 -4.4 -1.5 -4.0 L-1.35 -3.85 -0.95 -3.75 M6.65 -6.5 L7.05 -6.75 M11.45 -9.45 L13.05 -10.25 14.35 -10.7 14.4 -11.15 Q13.55 -11.1 12.9 -10.65 L11.4 -9.9 M7.25 -7.25 L6.85 -7.05 6.65 -6.5 6.45 -6.1 6.4 -5.85 6.05 -5.5 4.4 -5.1 M2.1 -3.7 L1.5 -2.95 1.5 -2.75 1.7 -2.4 M2.8 -4.45 L3.1 -4.3 M2.3 -5.25 L2.35 -5.3 2.3 -5.55 2.3 -5.4 M2.25 -4.75 L2.2 -4.5 2.15 -4.3 Q2.05 -4.0 1.65 -4.0 L1.25 -3.9 M1.35 -0.9 L0.05 -1.15 -0.4 -1.15 Q-0.9 -1.1 -1.05 -0.65 L-1.4 -0.2 Q-1.9 0.45 -1.7 1.4 L-1.6 1.8 Q-1.05 2.75 0.0 2.95 0.75 3.1 1.1 2.7 L1.35 2.35 1.7 1.4 1.75 1.0 1.75 -0.2 1.7 -0.4 1.35 -0.9 M4.65 -0.55 L4.45 -0.45 4.3 -0.35 4.05 -0.25 3.9 -0.15 Q3.6 -0.1 3.4 -0.45 L3.1 -0.7 M4.75 -0.65 L4.65 -0.55 4.7 -0.55 4.85 -0.75 4.75 -0.65 4.75 -0.9 Q4.8 -1.8 5.6 -1.7 L6.05 -1.75 6.25 -1.95 11.0 -6.1 Q11.2 -7.05 11.95 -7.45 L13.2 -8.05 13.25 -8.1 14.15 -9.35 14.6 -10.75 14.35 -10.7 M2.8 -4.45 L2.25 -4.75 M6.45 -6.1 L6.35 -6.05 4.7 -5.65 M9.45 -1.75 L11.45 -1.05 12.1 -1.15 Q12.35 -1.5 12.8 -1.55 L13.35 -1.5 M19.8 -1.05 L22.0 -0.8 23.95 -0.25 22.45 0.6 20.65 1.05 20.55 1.05 18.85 0.85 Q17.8 0.7 16.9 1.35 L8.7 1.95 Q8.4 1.95 8.2 1.75 7.35 1.1 6.55 2.1 L6.6 2.1 6.7 2.1 6.65 2.15 10.35 4.6 Q10.6 5.45 11.25 5.7 L12.4 6.05 12.45 6.1 13.35 7.05 13.8 8.3 12.4 8.15 10.95 7.7 M12.45 10.75 L13.55 12.25 14.35 13.8 12.85 13.55 11.45 12.75 11.4 12.7 10.5 11.55 Q10.0 10.85 9.0 10.75 L3.7 6.3 3.55 5.85 Q3.5 4.9 2.3 5.15 L2.45 5.25 Q2.3 5.25 2.25 5.1 L2.2 5.05 2.15 4.95 2.15 5.1 M1.95 8.2 L1.3 10.0 Q1.1 10.35 1.35 10.6 L1.75 11.25 1.7 11.75 M1.3 17.65 L1.0 19.65 0.5 21.45 Q-0.05 20.95 -0.4 20.05 L-0.85 18.4 -0.85 18.3 -0.65 16.75 Q-0.5 15.8 -1.15 14.95 L-1.75 7.5 -1.55 7.05 Q-0.9 6.3 -1.9 5.55 L-1.85 5.7 -1.9 5.45 -1.9 5.4 -1.85 5.1 -1.85 4.95 M-3.95 6.75 L-5.65 7.5 -5.95 7.9 -6.1 8.6 -6.45 8.9 M-10.6 12.45 L-12.1 13.55 Q-12.8 14.1 -13.65 14.35 -13.7 13.65 -13.35 12.85 L-12.6 11.45 -12.55 11.4 -11.35 10.5 Q-10.7 10.0 -10.6 9.0 L-8.65 6.7 Q-9.5 6.45 -10.05 6.9 L-11.0 7.6 -11.05 7.65 -12.35 7.8 -13.65 7.5 -12.7 6.45 -11.55 5.5 M-7.85 3.1 L-7.55 2.85 -6.95 3.0 -6.5 2.85 -6.25 2.4 -6.35 2.4 M-9.75 2.2 L-11.75 1.55 -12.35 1.6 -13.05 2.0 -13.65 1.95 M-20.1 1.55 L-22.25 1.25 -24.25 0.75 Q-23.75 0.2 -22.75 -0.15 L-20.9 -0.6 -20.85 -0.6 -19.1 -0.4 Q-18.1 -0.25 -17.15 -0.9 L-8.95 -1.5 -8.45 -1.3 Q-7.65 -0.65 -6.8 -1.65 L-7.0 -1.6 -6.75 -1.65 -6.65 -1.65 -6.35 -1.6 -6.15 -1.6 -5.85 -1.55 -5.6 -1.5 -5.4 -1.4 -5.25 -1.8 -5.65 -1.8 -6.05 -1.9 -11.0 -6.25 Q-11.25 -7.2 -12.0 -7.55 L-13.2 -8.2 -13.25 -8.25 -14.2 -9.45 -14.65 -10.9 -14.35 -10.85 -14.4 -10.95 Q-13.8 -11.15 -12.95 -10.95 L-11.6 -10.5 -11.55 -10.45 -10.65 -9.5 Q-10.1 -8.95 -9.15 -9.0 L-3.8 -5.75 -3.6 -5.35 Q-3.5 -4.5 -2.4 -4.9 L-2.55 -4.95 -2.35 -4.85 -2.3 -4.8 -2.25 -4.7 -1.75 -4.9 M6.4 2.1 L6.1 2.05 5.85 2.05 5.55 2.0 5.35 1.95 5.25 1.95 5.1 2.25 M6.75 4.15 L7.5 5.8 Q7.6 6.15 7.9 6.1 L8.6 6.25 8.9 6.65 M6.65 2.15 L6.6 2.1 6.55 2.1 6.4 2.1 6.45 2.15 6.65 2.15 M4.9 2.0 Q4.55 1.6 4.1 1.5 L3.9 1.55 Q3.65 1.6 3.55 1.75 M5.25 1.95 L5.0 1.6 5.0 1.45 4.9 1.05 M0.15 0.75 L0.35 0.35 M2.1 3.45 L1.85 3.75 Q1.55 4.05 1.7 4.3 L1.8 4.45 1.95 4.7 2.05 4.85 2.15 4.95 M2.2 5.05 L2.3 5.15 M2.05 4.85 L0.0 5.15 -1.8 4.9 -1.35 4.15 -1.35 4.1 -1.35 3.9 -1.5 3.65 M-11.5 -9.6 L-13.05 -10.4 -14.35 -10.85 M-4.4 -5.25 L-6.1 -5.65 -6.45 -6.0 -6.7 -6.65 -7.05 -6.9 M-6.65 -1.65 L-6.8 -1.65 M-5.4 -1.4 L-5.3 -1.0 -5.2 -0.6 M-2.4 -4.9 L-2.3 -4.8 M-2.1 -3.85 L-1.55 -3.15 -1.55 -2.95 -1.7 -2.55 M-4.8 -0.75 L-4.65 -0.7 -4.45 -0.6 -4.3 -0.5 -4.1 -0.4 -3.9 -0.3 -3.4 -0.6 -3.1 -0.85 M-4.65 -0.7 L-4.75 -0.7 -4.9 -0.85 -4.8 -0.75 Q-4.75 -1.7 -5.25 -1.8 M-2.25 -4.7 L-3.0 -4.35 M-3.25 2.1 L-3.6 1.85 Q-3.9 1.55 -4.15 1.7 L-4.3 1.8 -4.5 1.95 -4.65 2.05 -4.85 2.2 -4.95 2.3 -4.95 2.5 Q-4.85 3.5 -5.7 3.55 L-6.1 3.7 -8.65 6.7 M-4.85 2.2 L-4.9 2.25 -5.05 2.35 -5.0 2.35 -4.95 2.3 M-4.95 2.5 L-5.0 2.35 -5.05 2.45 -5.05 2.35 -5.15 2.1 -5.25 2.2 -6.25 2.4 M-1.9 5.4 L-1.9 5.55 M-5.15 2.1 L-5.1 2.0 -5.0 1.6" fill="none" stroke="#000000" stroke-linecap="round" stroke-linejoin="round" stroke-width="0.5"/>
    <path d="M-0.85 -17.5 L-1.3 -11.6 M-1.55 -8.05 L-1.75 -5.0 M7.05 -6.75 L11.45 -9.45 M11.4 -9.9 L7.25 -7.25 M4.4 -5.1 L3.1 -4.3 2.1 -3.7 M4.7 -5.65 L2.8 -4.45 M6.25 -1.95 L9.45 -1.75 M13.35 -1.5 L19.8 -1.05 M10.95 7.7 L9.2 6.95 12.45 10.75 M2.15 5.1 L1.95 8.2 M1.7 11.75 L1.3 17.65 M-1.85 4.95 L-3.95 6.75 M-6.45 8.9 L-10.6 12.45 M-11.55 5.5 L-7.85 3.1 M-6.35 2.4 L-9.75 2.2 M-13.65 1.95 L-20.1 1.55 M5.1 2.25 L6.75 4.15 M8.9 6.65 L9.2 6.95 M-1.8 4.9 L-1.85 4.95 M5.1 2.25 L4.9 2.0 M-7.05 -6.9 L-11.5 -9.6 M-3.0 -4.35 L-4.4 -5.25 M-3.0 -4.35 L-2.1 -3.85" fill="none" stroke="#000000" stroke-linecap="round" stroke-linejoin="round" stroke-width="0.5"/>
  </g>
  <defs>
    <radialGradient cx="0" cy="0" gradientTransform="matrix(0.0331, 0.0, 0.0, 0.0331, -2.5, 2.5)" gradientUnits="userSpaceOnUse" id="gradient0" r="819.2" spreadMethod="pad">
      <stop offset="0.0" stop-color="#bebe4b"/>
      <stop offset="0.4196078431372549" stop-color="#ffffff"/>
    </radialGradient>
    <radialGradient cx="0" cy="0" gradientTransform="matrix(0.0197, 0.0, 0.0, 0.0197, 0.0, 5.75)" gradientUnits="userSpaceOnUse" id="gradient1" r="819.2" spreadMethod="pad">
      <stop offset="0.0" stop-color="#bebe4b"/>
      <stop offset="0.4196078431372549" stop-color="#ffffff"/>
    </radialGradient>
  </defs>
</svg>
