<?xml version="1.0" encoding="UTF-8" standalone="no"?>
<svg xmlns:xlink="http://www.w3.org/1999/xlink" height="39.05px" width="48.7px" xmlns="http://www.w3.org/2000/svg">
  <g transform="matrix(1.0, 0.0, 0.0, 1.0, 24.5, 19.45)">
    <path d="M-0.85 -15.8 L-0.6 -17.6 -0.05 -19.2 0.8 -18.0 1.25 -16.5 1.25 -16.4 1.05 -15.0 Q0.9 -14.15 1.55 -13.4 L2.15 -6.6 1.95 -6.2 Q1.3 -5.55 2.3 -4.85 L2.3 -4.7 2.25 -4.45 2.25 -4.25 2.2 -4.05 2.15 -3.85 2.15 -3.8 Q2.0 -3.6 1.65 -3.6 L1.25 -3.5 1.65 -3.6 Q2.0 -3.6 2.15 -3.8 L2.15 -3.85 2.2 -4.05 2.25 -4.25 2.25 -4.45 2.3 -4.7 2.55 -4.6 3.7 -3.85 4.8 -4.3 6.55 -4.45 Q6.85 -4.45 6.95 -4.75 L7.25 -5.35 7.7 -5.5 10.7 -6.75 12.45 -7.5 14.15 -8.05 15.8 -8.3 15.15 -6.95 14.0 -5.9 13.95 -5.85 12.65 -5.45 Q11.85 -5.2 11.5 -4.25 L7.65 -1.85 5.95 -0.75 5.5 -0.75 4.85 -0.7 4.45 0.15 4.85 -0.7 5.5 -0.75 5.95 -0.75 7.65 -1.85 9.45 -1.75 11.45 -1.05 12.1 -1.15 Q12.35 -1.5 12.8 -1.55 L13.35 -1.5 19.8 -1.05 22.0 -0.8 23.95 -0.25 22.45 0.6 20.65 1.05 20.55 1.05 18.85 0.85 Q17.8 0.7 16.9 1.35 L8.7 1.95 Q8.4 1.95 8.2 1.75 7.75 1.4 7.3 1.55 6.9 1.65 6.55 2.1 L6.4 2.1 6.1 2.05 5.85 2.05 5.55 2.0 5.35 1.95 5.25 1.95 5.15 2.15 5.25 2.3 7.2 4.55 7.45 5.05 7.95 6.25 Q8.1 6.6 8.4 6.6 L9.15 6.75 9.45 7.1 13.15 11.45 14.35 13.0 15.2 14.6 13.65 14.3 12.2 13.45 12.15 13.4 11.2 12.2 Q10.65 11.45 9.65 11.35 L4.1 6.65 3.95 6.2 Q3.85 5.25 2.65 5.45 L2.55 5.35 2.4 5.1 2.3 4.95 2.15 4.8 2.1 4.75 2.0 4.6 Q1.9 4.3 2.2 4.0 L2.4 3.7 2.2 4.0 Q1.9 4.3 2.0 4.6 L2.1 4.75 2.15 4.8 1.4 5.0 1.3 5.45 1.0 6.15 0.5 6.75 -0.4 6.3 -0.85 5.75 -0.85 5.7 -0.65 5.2 -0.6 5.15 -1.85 4.9 -1.9 4.95 -1.95 5.0 -2.2 5.3 -4.45 7.25 -6.15 8.0 Q-6.55 8.15 -6.5 8.45 L-6.7 9.2 -7.05 9.5 -11.35 13.2 -12.9 14.4 -14.5 15.25 Q-14.6 14.55 -14.2 13.7 L-13.4 12.25 -13.35 12.2 -12.1 11.25 Q-11.4 10.7 -11.25 9.7 L-7.35 5.05 -6.6 4.15 -6.15 4.0 Q-5.2 3.9 -5.35 2.7 L-5.25 2.6 -5.05 2.45 -5.0 2.4 -4.9 2.35 -4.65 2.15 -4.5 2.05 Q-4.25 1.95 -3.95 2.25 L-3.6 2.45 -3.95 2.25 Q-4.25 1.95 -4.5 2.05 L-4.65 2.15 -4.9 2.35 -5.0 2.4 -5.15 2.1 -5.25 2.2 -6.35 2.4 -8.45 2.3 -9.75 2.2 -11.75 1.55 -12.35 1.6 -13.05 2.0 -13.65 1.95 -20.1 1.55 -22.25 1.25 -24.25 0.75 Q-23.75 0.2 -22.75 -0.15 L-20.9 -0.6 -20.85 -0.6 -19.1 -0.4 Q-18.1 -0.25 -17.15 -0.9 L-8.95 -1.5 -8.45 -1.3 -7.05 -1.4 -11.55 -4.2 Q-11.95 -5.1 -12.75 -5.35 L-14.05 -5.8 -14.1 -5.85 -15.2 -6.9 Q-15.75 -7.6 -15.85 -8.25 L-14.25 -8.0 -12.55 -7.45 -9.65 -6.25 -7.75 -5.45 -7.35 -5.3 Q-7.1 -5.1 -7.0 -4.7 -6.95 -4.4 -6.6 -4.4 L-4.9 -4.25 -3.8 -3.8 -2.4 -3.25 -1.7 -2.6 -1.65 -2.4 -1.8 -2.05 -1.65 -2.4 -1.7 -2.6 -2.4 -3.25 -3.8 -3.8 -2.25 -4.75 -1.7 -4.9 -1.55 -7.25 -0.85 -8.9 Q-0.7 -9.25 -0.95 -9.4 L-1.35 -10.0 -1.3 -10.45 -0.85 -15.8 M-1.75 -4.45 L-1.7 -4.9 -1.75 -4.45 Q-1.8 -3.95 -1.5 -3.55 L-1.35 -3.45 -0.95 -3.35 -1.35 -3.45 -1.5 -3.55 Q-1.8 -3.95 -1.75 -4.45 M1.7 -2.1 L1.6 -2.45 1.65 -2.65 2.3 -3.3 1.65 -2.65 1.6 -2.45 1.7 -2.1 M2.3 -3.3 L3.7 -3.85 2.3 -3.3 M4.35 0.2 L4.4 0.2 4.6 0.1 4.45 0.15 4.35 0.2 4.15 0.3 3.95 0.35 3.7 0.45 3.55 0.45 3.1 0.15 2.85 -0.15 3.1 0.15 3.55 0.45 3.7 0.45 3.95 0.35 4.15 0.3 4.35 0.2 M1.95 2.35 L1.3 2.95 Q1.1 3.05 1.35 3.15 L1.75 3.35 1.7 3.55 1.75 3.35 1.35 3.15 Q1.1 3.05 1.3 2.95 L1.95 2.35 2.15 1.35 1.95 2.35 M3.85 2.0 Q3.95 1.85 4.2 1.8 L4.4 1.75 5.15 2.15 4.4 1.75 4.2 1.8 Q3.95 1.85 3.85 2.0 M4.9 1.05 L5.0 1.45 Q5.0 1.8 5.25 1.95 5.0 1.8 5.0 1.45 L4.9 1.05 M1.35 0.95 L1.75 1.0 1.95 1.05 2.15 1.35 1.95 1.05 1.75 1.0 1.35 0.95 M1.7 3.55 L1.4 5.0 1.7 3.55 M-4.55 0.2 Q-4.7 -0.75 -5.25 -0.75 L-5.55 -0.7 -6.0 -0.7 -7.05 -1.4 -6.0 -0.7 -5.55 -0.7 -5.25 -0.75 Q-4.7 -0.75 -4.55 0.2 L-4.65 0.15 -4.5 0.25 -4.4 0.3 -4.55 0.2 M-2.9 -0.1 L-3.15 0.2 -3.6 0.55 -3.8 0.5 -4.0 0.4 -4.2 0.35 -4.4 0.3 -4.2 0.35 -4.0 0.4 -3.8 0.5 -3.6 0.55 -3.15 0.2 -2.9 -0.1 M-0.85 1.0 L-1.25 1.05 -1.75 1.15 -1.8 1.2 -1.85 1.3 -1.85 1.35 -1.9 1.45 -1.85 1.35 -1.85 1.3 -1.8 1.2 -1.75 1.15 -1.25 1.05 -0.85 1.0 M-1.9 1.45 L-1.85 1.55 -1.9 1.5 -1.9 1.45 M-1.9 1.5 Q-0.9 1.75 -1.55 2.0 L-1.75 2.15 -1.15 4.6 Q-0.6 4.85 -0.6 5.15 -0.6 4.85 -1.15 4.6 L-1.75 2.15 -1.55 2.0 Q-0.9 1.75 -1.9 1.5 M-1.95 3.9 L-1.8 4.1 -1.7 4.25 -1.7 4.45 -1.85 4.9 -1.7 4.45 -1.7 4.25 -1.8 4.1 -1.95 3.9 M-5.0 1.6 L-5.1 2.0 -5.15 2.1 -5.1 2.0 -5.0 1.6" fill="url(#gradient0)" fill-rule="evenodd" stroke="none"/>
    <path d="M4.95 -6.25 L6.65 -6.8 7.0 -7.15 7.2 -7.85 7.6 -8.1 11.95 -11.1 13.55 -12.0 Q14.25 -12.5 15.1 -12.6 15.1 -11.95 14.7 -11.15 L13.85 -9.9 13.8 -9.85 12.55 -9.1 Q11.85 -8.7 11.65 -7.7 L10.7 -6.75 7.7 -5.5 7.25 -5.35 6.95 -4.75 Q6.85 -4.45 6.55 -4.45 L4.8 -4.3 3.7 -3.85 2.55 -4.6 2.7 -4.7 4.95 -6.25 M7.3 1.55 L10.5 3.15 Q10.8 3.95 11.5 4.1 L12.6 4.3 12.7 4.35 13.65 5.2 14.25 6.35 12.85 6.35 11.4 6.1 7.45 5.05 7.2 4.55 5.25 2.3 5.15 2.15 5.25 1.95 5.35 1.95 5.55 2.0 5.85 2.05 6.1 2.05 6.4 2.1 6.45 2.15 6.7 2.1 6.55 2.1 Q6.9 1.65 7.3 1.55 M2.15 4.8 L1.95 7.35 1.3 9.05 Q1.1 9.35 1.35 9.55 L1.75 10.15 1.7 10.6 1.3 15.9 1.0 17.7 0.5 19.35 -0.4 18.1 -0.85 16.6 -0.85 16.55 -0.65 15.1 Q-0.5 14.25 -1.15 13.5 L-1.75 6.75 -1.55 6.35 Q-0.9 5.65 -1.9 4.95 L-1.85 4.9 -0.6 5.15 -0.65 5.2 -0.85 5.7 -0.85 5.75 -0.4 6.3 0.5 6.75 1.0 6.15 1.3 5.45 1.4 5.0 2.15 4.8 M-7.35 5.05 L-9.15 5.55 -10.5 5.5 -11.5 6.1 -11.55 6.15 -12.85 6.15 -14.1 5.7 -13.05 4.75 -11.8 3.95 -8.45 2.3 -6.35 2.4 -5.25 2.2 -5.15 2.1 -5.0 2.4 -5.05 2.45 -5.25 2.6 -5.3 2.65 -5.45 2.85 -5.35 2.7 Q-5.2 3.9 -6.15 4.0 L-6.6 4.15 -7.35 5.05 M-9.65 -6.25 L-13.15 -9.55 -14.35 -10.9 Q-15.0 -11.55 -15.3 -12.35 L-13.8 -12.25 -12.35 -11.65 -12.3 -11.6 -11.35 -10.55 Q-10.75 -9.95 -9.75 -9.95 L-4.2 -6.15 -4.0 -5.8 Q-3.9 -4.9 -2.7 -5.2 L-2.6 -5.1 -2.45 -4.95 -2.3 -4.8 -2.25 -4.75 -3.8 -3.8 -4.9 -4.25 -6.6 -4.4 Q-6.95 -4.4 -7.0 -4.7 -7.1 -5.1 -7.35 -5.3 L-7.75 -5.45 -9.65 -6.25" fill="#ffffff" fill-rule="evenodd" stroke="none"/>
    <path d="M2.3 -4.7 L2.3 -4.85 Q1.3 -5.55 1.95 -6.2 L2.15 -6.6 1.55 -13.4 Q0.9 -14.15 1.05 -15.0 L1.25 -16.4 1.25 -16.5 0.8 -18.0 -0.05 -19.2 -0.6 -17.6 -0.85 -15.8 M-1.3 -10.45 L-1.35 -10.0 -0.95 -9.4 Q-0.7 -9.25 -0.85 -8.9 L-1.55 -7.25 M-1.75 -4.45 Q-1.8 -3.95 -1.5 -3.55 L-1.35 -3.45 -0.95 -3.35 M7.6 -8.1 L7.2 -7.85 7.0 -7.15 6.65 -6.8 4.95 -6.25 M2.7 -4.7 L2.55 -4.6 3.7 -3.85 M4.8 -4.3 L6.55 -4.45 Q6.85 -4.45 6.95 -4.75 L7.25 -5.35 7.7 -5.5 M10.7 -6.75 L11.65 -7.7 Q11.85 -8.7 12.55 -9.1 L13.8 -9.85 13.85 -9.9 14.7 -11.15 Q15.1 -11.95 15.1 -12.6 14.25 -12.5 13.55 -12.0 L11.95 -11.1 M2.3 -4.7 L2.35 -4.75 2.3 -5.0 2.3 -4.85 M2.3 -4.7 L2.25 -4.45 2.25 -4.25 2.2 -4.05 2.15 -3.85 2.15 -3.8 Q2.0 -3.6 1.65 -3.6 L1.25 -3.5 M2.3 -3.3 L1.65 -2.65 1.6 -2.45 1.7 -2.1 M2.55 -4.6 L2.3 -4.7 M7.65 -1.85 L5.95 -0.75 5.5 -0.75 4.85 -0.7 4.45 0.15 4.6 0.1 4.4 0.2 4.35 0.2 4.15 0.3 3.95 0.35 3.7 0.45 3.55 0.45 3.1 0.15 2.85 -0.15 M9.45 -1.75 L11.45 -1.05 12.1 -1.15 Q12.35 -1.5 12.8 -1.55 L13.35 -1.5 M19.8 -1.05 L22.0 -0.8 23.95 -0.25 22.45 0.6 20.65 1.05 20.55 1.05 18.85 0.85 Q17.8 0.7 16.9 1.35 L8.7 1.95 Q8.4 1.95 8.2 1.75 7.75 1.4 7.3 1.55 L10.5 3.15 Q10.8 3.95 11.5 4.1 L12.6 4.3 12.7 4.35 13.65 5.2 14.25 6.35 12.85 6.35 11.4 6.1 M7.45 5.05 L7.95 6.25 Q8.1 6.6 8.4 6.6 L9.15 6.75 9.45 7.1 M13.15 11.45 L14.35 13.0 15.2 14.6 13.65 14.3 12.2 13.45 12.15 13.4 11.2 12.2 Q10.65 11.45 9.65 11.35 L4.1 6.65 3.95 6.2 Q3.85 5.25 2.65 5.45 L2.8 5.55 2.6 5.4 2.55 5.35 2.4 5.1 2.3 4.95 2.15 4.8 2.1 4.75 2.0 4.6 Q1.9 4.3 2.2 4.0 L2.4 3.7 M1.95 7.35 L1.3 9.05 Q1.1 9.35 1.35 9.55 L1.75 10.15 1.7 10.6 M1.3 15.9 L1.0 17.7 0.5 19.35 -0.4 18.1 -0.85 16.6 -0.85 16.55 -0.65 15.1 Q-0.5 14.25 -1.15 13.5 L-1.75 6.75 -1.55 6.35 Q-0.9 5.65 -1.9 4.95 L-1.85 5.1 -1.95 5.0 -2.2 5.3 M-4.45 7.25 L-6.15 8.0 Q-6.55 8.15 -6.5 8.45 L-6.7 9.2 -7.05 9.5 M-11.35 13.2 L-12.9 14.4 -14.5 15.25 Q-14.6 14.55 -14.2 13.7 L-13.4 12.25 -13.35 12.2 -12.1 11.25 Q-11.4 10.7 -11.25 9.7 L-7.35 5.05 -9.15 5.55 -10.5 5.5 -11.5 6.1 -11.55 6.15 -12.85 6.15 -14.1 5.7 -13.05 4.75 -11.8 3.95 M-9.75 2.2 L-11.75 1.55 -12.35 1.6 -13.05 2.0 -13.65 1.95 M-20.1 1.55 L-22.25 1.25 -24.25 0.75 Q-23.75 0.2 -22.75 -0.15 L-20.9 -0.6 -20.85 -0.6 -19.1 -0.4 Q-18.1 -0.25 -17.15 -0.9 L-8.95 -1.5 -8.45 -1.3 -7.05 -1.4 -11.55 -4.2 Q-11.95 -5.1 -12.75 -5.35 L-14.05 -5.8 -14.1 -5.85 -15.2 -6.9 Q-15.75 -7.6 -15.85 -8.25 L-14.25 -8.0 -12.55 -7.45 M-13.15 -9.55 L-14.35 -10.9 Q-15.0 -11.55 -15.3 -12.35 L-13.8 -12.25 -12.35 -11.65 -12.3 -11.6 -11.35 -10.55 Q-10.75 -9.95 -9.75 -9.95 L-4.2 -6.15 -4.0 -5.8 Q-3.9 -4.9 -2.7 -5.2 L-2.85 -5.25 -2.65 -5.15 -2.6 -5.1 -2.45 -4.95 -2.3 -4.8 -2.25 -4.75 -1.7 -4.9 M12.45 -7.5 L14.15 -8.05 15.8 -8.3 15.15 -6.95 14.0 -5.9 13.95 -5.85 12.65 -5.45 Q11.85 -5.2 11.5 -4.25 L7.65 -1.85 M6.4 2.1 L6.1 2.05 5.85 2.05 5.55 2.0 5.35 1.95 5.25 1.95 5.15 2.15 5.25 2.3 M7.2 4.55 L7.45 5.05 M6.55 2.1 L6.7 2.1 6.45 2.15 6.4 2.1 6.55 2.1 Q6.9 1.65 7.3 1.55 M4.45 0.15 L4.35 0.2 M5.25 1.95 Q5.0 1.8 5.0 1.45 L4.9 1.05 M5.15 2.15 L4.4 1.75 4.2 1.8 Q3.95 1.85 3.85 2.0 M1.7 3.55 L1.75 3.35 1.35 3.15 Q1.1 3.05 1.3 2.95 L1.95 2.35 M2.15 1.35 L1.95 1.05 1.75 1.0 1.35 0.95 M2.15 4.8 L1.4 5.0 M1.3 5.45 L1.0 6.15 0.5 6.75 -0.4 6.3 -0.85 5.75 -0.85 5.7 -0.65 5.2 -0.6 5.15 -1.85 4.9 -1.9 4.95 -1.95 5.0 M2.65 5.45 L2.55 5.35 M-7.05 -1.4 L-6.0 -0.7 -5.55 -0.7 -5.25 -0.75 Q-4.7 -0.75 -4.55 0.2 L-4.4 0.3 -4.2 0.35 -4.0 0.4 -3.8 0.5 -3.6 0.55 -3.15 0.2 -2.9 -0.1 M-4.9 -4.25 L-6.6 -4.4 Q-6.95 -4.4 -7.0 -4.7 -7.1 -5.1 -7.35 -5.3 L-7.75 -5.45 M-2.7 -5.2 L-2.6 -5.1 M-2.4 -3.25 L-1.7 -2.6 -1.65 -2.4 -1.8 -2.05 M-2.25 -4.75 L-3.8 -3.8 M-1.9 1.45 L-1.85 1.35 -1.85 1.3 -1.8 1.2 -1.75 1.15 -1.25 1.05 -0.85 1.0 M-1.9 1.45 L-1.85 1.55 -1.9 1.5 -1.9 1.45 M-0.6 5.15 Q-0.6 4.85 -1.15 4.6 L-1.75 2.15 -1.55 2.0 Q-0.9 1.75 -1.9 1.5 M-4.55 0.2 L-4.65 0.15 -4.5 0.25 -4.4 0.3 M-3.6 2.45 L-3.95 2.25 Q-4.25 1.95 -4.5 2.05 L-4.65 2.15 -4.9 2.35 -5.0 2.4 -5.05 2.45 -5.25 2.6 -5.35 2.7 Q-5.2 3.9 -6.15 4.0 L-6.6 4.15 -7.35 5.05 M-1.85 4.9 L-1.7 4.45 -1.7 4.25 -1.8 4.1 -1.95 3.9 M-5.15 2.1 L-5.1 2.0 -5.0 1.6 M-6.35 2.4 L-5.25 2.2 -5.15 2.1 -5.0 2.4 M-5.25 2.6 L-5.3 2.65 -5.45 2.85 -5.35 2.7" fill="none" stroke="#000000" stroke-linecap="round" stroke-linejoin="round" stroke-width="0.5"/>
    <path d="M-0.85 -15.8 L-1.3 -10.45 M-1.55 -7.25 L-1.7 -4.9 -1.75 -4.45 M4.95 -6.25 L2.7 -4.7 M3.7 -3.85 L4.8 -4.3 M7.7 -5.5 L10.7 -6.75 12.45 -7.5 M11.95 -11.1 L7.6 -8.1 M3.7 -3.85 L2.3 -3.3 M7.65 -1.85 L9.45 -1.75 M13.35 -1.5 L19.8 -1.05 M11.4 6.1 L7.45 5.05 M9.45 7.1 L13.15 11.45 M2.15 4.8 L1.95 7.35 M1.7 10.6 L1.3 15.9 M-2.2 5.3 L-4.45 7.25 M-7.05 9.5 L-11.35 13.2 M-11.8 3.95 L-8.45 2.3 -9.75 2.2 M-13.65 1.95 L-20.1 1.55 M-12.55 -7.45 L-9.65 -6.25 -13.15 -9.55 M5.25 2.3 L7.2 4.55 M1.95 2.35 L2.15 1.35 M1.4 5.0 L1.3 5.45 M1.4 5.0 L1.7 3.55 M-7.75 -5.45 L-9.65 -6.25 M-3.8 -3.8 L-4.9 -4.25 M-3.8 -3.8 L-2.4 -3.25 M-8.45 2.3 L-6.35 2.4" fill="none" stroke="#000000" stroke-linecap="round" stroke-linejoin="round" stroke-width="0.5"/>
  </g>
  <defs>
    <radialGradient cx="0" cy="0" gradientTransform="matrix(0.032, 0.0, 0.0, 0.032, -1.75, 0.0)" gradientUnits="userSpaceOnUse" id="gradient0" r="819.2" spreadMethod="pad">
      <stop offset="0.0" stop-color="#bebe4b"/>
      <stop offset="0.4196078431372549" stop-color="#ffffff"/>
    </radialGradient>
  </defs>
</svg>
