<?xml version="1.0" encoding="UTF-8" standalone="no"?>
<svg xmlns:xlink="http://www.w3.org/1999/xlink" height="35.1px" width="48.7px" xmlns="http://www.w3.org/2000/svg">
  <g transform="matrix(1.0, 0.0, 0.0, 1.0, 24.5, 17.2)">
    <path d="M13.65 -14.55 L15.4 -15.9 Q16.2 -16.6 17.15 -16.95 17.15 -16.25 16.75 -15.25 L15.75 -13.65 15.7 -13.6 14.35 -12.5 Q13.5 -11.9 13.35 -10.8 L7.95 -4.55 7.45 -4.35 Q6.45 -4.25 6.55 -2.95 L6.4 -2.8 6.2 -2.65 6.0 -2.5 5.95 -2.4 5.75 -2.3 5.6 -2.2 5.1 -2.2 5.3 -1.85 5.0 -1.7 4.85 -1.55 4.75 -1.2 3.9 -1.4 4.75 -1.2 6.5 -0.75 8.0 0.15 Q8.25 0.35 8.5 0.15 8.75 -0.15 9.1 -0.15 L9.55 -0.05 14.6 1.15 15.45 1.45 16.25 1.7 Q17.05 1.9 17.75 2.45 17.25 2.9 16.45 3.15 L14.9 3.35 14.85 3.35 13.5 2.95 Q12.7 2.7 11.9 3.2 L5.95 2.85 5.35 2.8 4.95 2.55 4.35 3.3 4.0 3.65 3.15 4.25 2.05 4.8 1.95 5.7 1.7 6.35 1.3 7.0 Q1.1 7.25 1.35 7.4 L1.5 7.5 1.75 7.85 1.7 8.2 1.3 12.4 1.0 13.85 0.5 15.1 -0.4 14.15 -0.85 12.95 -0.85 12.9 -0.65 11.8 Q-0.5 11.1 -1.15 10.5 L-1.75 5.2 -1.65 4.95 -2.65 4.55 -4.0 3.65 -4.4 3.2 -4.75 2.8 -4.85 2.95 -4.9 3.0 -5.25 3.25 -5.85 3.3 -11.8 3.65 Q-12.65 3.15 -13.45 3.4 L-14.75 3.8 -14.85 3.8 -16.35 3.6 Q-17.2 3.35 -17.65 2.9 -17.0 2.35 -16.2 2.15 L-15.2 1.85 -14.5 1.6 -9.45 0.4 -9.05 0.3 Q-8.7 0.3 -8.45 0.6 -8.2 0.8 -7.9 0.6 L-6.45 -0.3 -5.2 -0.6 -5.3 -1.0 -5.4 -1.4 -5.15 -2.15 -5.05 -2.25 -5.3 -2.25 Q-5.85 -2.4 -6.25 -2.85 L-8.45 -5.4 -9.4 -7.3 -9.9 -7.7 -10.7 -7.9 -11.05 -8.35 -15.3 -13.2 -16.65 -14.95 Q-17.35 -15.75 -17.7 -16.7 L-16.0 -16.25 Q-15.15 -15.95 -14.4 -15.3 L-14.35 -15.2 -13.25 -13.85 Q-12.65 -13.05 -11.55 -12.85 L-5.3 -7.45 -5.1 -7.0 Q-5.0 -6.0 -3.7 -6.05 L-3.55 -5.95 -3.4 -5.7 -3.25 -5.55 -3.05 -5.3 -2.95 -5.1 Q-2.8 -4.8 -3.05 -4.5 L-3.25 -4.2 -1.6 -4.95 -0.95 -5.05 -1.1 -5.25 -1.5 -5.55 -1.45 -5.85 -1.35 -6.6 -1.1 -8.2 -1.0 -8.9 -0.75 -9.95 -0.2 -10.85 0.65 -10.15 1.1 -9.3 1.1 -9.25 0.9 -8.45 Q0.75 -7.95 1.4 -7.5 L1.8 -5.0 1.8 -4.85 2.75 -4.5 2.75 -4.55 3.35 -5.5 5.85 -7.7 7.75 -8.65 8.15 -9.15 8.4 -9.95 8.8 -10.3 13.65 -14.55 M2.95 -3.95 L2.75 -4.3 2.75 -4.5 2.75 -4.3 2.95 -3.95 M2.15 -2.6 Q1.15 -3.0 1.8 -3.4 L2.0 -3.6 1.8 -4.85 2.0 -3.6 1.8 -3.4 Q1.15 -3.0 2.15 -2.6 L2.15 -2.5 2.2 -2.55 2.15 -2.7 2.15 -2.6 M1.1 -1.8 L1.5 -1.85 2.0 -2.05 2.05 -2.15 2.1 -2.25 2.1 -2.4 2.15 -2.5 2.1 -2.4 2.1 -2.25 2.05 -2.15 2.0 -2.05 1.5 -1.85 1.1 -1.8 M2.7 -0.75 L2.8 -1.15 2.95 -1.3 3.9 -1.4 2.95 -1.3 2.8 -1.15 2.7 -0.75 M4.65 -2.5 L5.0 -2.3 5.1 -2.2 5.0 -2.3 4.65 -2.5 M3.6 2.7 L3.5 2.65 3.55 2.7 3.75 2.7 3.6 2.7 Q4.4 1.85 4.95 2.55 4.4 1.85 3.6 2.7 M1.35 2.6 L1.75 2.7 1.95 2.8 2.15 3.5 1.95 2.8 1.75 2.7 1.35 2.6 M2.5 1.45 L2.5 1.85 Q2.45 2.2 2.7 2.4 L2.85 2.45 3.1 2.55 3.25 2.6 3.5 2.65 3.25 2.6 3.1 2.55 2.85 2.45 2.7 2.4 Q2.45 2.2 2.5 1.85 L2.5 1.45 M2.15 3.5 L2.05 4.8 2.15 3.5 M-3.8 -0.95 L-5.2 -0.6 -3.8 -0.95 -2.9 -0.85 -2.75 -0.7 -2.6 -0.3 -2.75 -0.7 -2.9 -0.85 -3.8 -0.95 M-1.7 -4.0 L-1.0 -4.95 -0.95 -5.05 -1.0 -4.95 -1.7 -4.0 -1.9 -2.4 -1.7 -4.0 M-1.1 -1.75 L-1.5 -1.8 -1.65 -1.85 -1.9 -2.4 -1.65 -1.85 -1.5 -1.8 -1.1 -1.75 M-0.85 2.75 L-1.25 2.8 -1.75 3.0 -1.8 3.15 -1.85 3.35 -1.85 3.5 -1.9 3.7 -1.85 3.5 -1.85 3.35 -1.8 3.15 -1.75 3.0 -1.25 2.8 -0.85 2.75 M-2.4 1.9 L-2.45 2.3 Q-2.4 2.65 -2.6 2.85 L-2.75 2.9 -3.0 3.0 -3.2 3.05 -3.4 3.1 -3.2 3.05 -3.0 3.0 -2.75 2.9 -2.6 2.85 Q-2.4 2.65 -2.45 2.3 L-2.4 1.9 M-4.7 -2.5 L-5.05 -2.25 -4.7 -2.5 M-3.55 3.15 Q-4.25 2.4 -4.75 2.8 -4.25 2.4 -3.55 3.15 L-3.7 3.15 -3.45 3.15 -3.4 3.1 -3.55 3.15 M-1.9 3.8 L-1.9 3.7 -1.9 3.75 -1.85 3.9 -1.9 3.8 Q-0.9 4.3 -1.55 4.85 L-1.65 4.95 -1.55 4.85 Q-0.9 4.3 -1.9 3.8" fill="url(#gradient0)" fill-rule="evenodd" stroke="none"/>
    <path d="M-0.8 -13.4 L-0.55 -14.95 0.0 -16.35 0.85 -15.3 1.3 -14.0 1.3 -13.95 1.1 -12.75 Q0.95 -12.05 1.6 -11.4 L2.2 -5.65 2.0 -5.3 1.8 -5.0 1.4 -7.5 Q0.75 -7.95 0.9 -8.45 L1.1 -9.25 1.1 -9.3 0.65 -10.15 -0.2 -10.85 -0.75 -9.95 -1.0 -8.9 -1.1 -8.2 -1.3 -8.5 -1.25 -8.9 -0.8 -13.4 M4.75 -1.2 L4.85 -1.55 5.0 -1.7 5.3 -1.85 5.1 -2.2 5.6 -2.2 5.75 -2.3 5.95 -2.4 10.1 -2.45 Q10.75 -1.9 11.4 -2.1 L12.4 -2.45 12.45 -2.45 13.65 -2.15 14.65 -1.4 19.8 -1.05 22.0 -0.8 23.95 -0.25 22.45 0.6 20.65 1.05 20.55 1.05 18.85 0.85 Q17.8 0.7 16.9 1.35 L15.45 1.45 14.6 1.15 9.55 -0.05 9.1 -0.15 Q8.75 -0.15 8.5 0.15 8.25 0.35 8.0 0.15 L6.5 -0.75 4.75 -1.2 M5.95 2.85 L6.2 3.1 8.45 5.6 9.4 7.5 9.9 7.9 10.65 8.15 11.0 8.55 15.3 13.4 16.65 15.15 17.65 16.9 16.0 16.5 14.4 15.5 14.3 15.45 13.25 14.1 Q12.6 13.25 11.5 13.1 L5.3 7.7 5.05 7.2 Q4.95 6.2 3.65 6.3 L3.55 6.15 3.35 5.95 3.2 5.75 3.05 5.5 2.9 5.35 Q2.75 5.0 3.05 4.75 L3.15 4.25 4.0 3.65 4.35 3.3 4.95 2.55 5.35 2.8 5.95 2.85 M-2.65 4.55 L-2.5 5.05 -2.5 5.25 Q-2.65 5.8 -3.1 6.2 L-5.65 8.45 Q-6.55 9.0 -7.55 9.4 L-7.95 9.9 -8.15 10.65 -8.6 11.0 -13.45 15.3 -15.2 16.65 Q-16.0 17.3 -16.95 17.65 L-16.5 16.0 Q-16.2 15.1 -15.55 14.4 L-15.45 14.3 -14.1 13.25 Q-13.3 12.6 -13.1 11.5 L-7.7 5.3 Q-7.55 5.1 -7.25 5.05 -6.25 4.95 -6.3 3.65 L-6.2 3.55 -5.95 3.35 -5.85 3.3 -5.25 3.25 -4.9 3.0 -4.85 2.95 -4.75 3.05 -4.4 3.2 -4.0 3.65 -2.65 4.55 M-15.2 1.85 L-20.1 1.55 -22.25 1.25 -24.25 0.75 Q-23.75 0.2 -22.75 -0.15 L-20.9 -0.6 -20.85 -0.6 -19.1 -0.4 Q-18.1 -0.25 -17.15 -0.9 L-14.05 -1.1 -14.5 -1.8 -13.25 -2.15 -11.85 -2.25 -7.85 -2.2 -7.5 -2.2 -7.1 -1.75 -7.0 -1.6 -6.85 -1.6 Q-7.7 -0.7 -8.45 -1.3 L-8.95 -1.5 -14.05 -1.1 -8.95 -1.5 -8.45 -1.3 Q-7.7 -0.7 -6.85 -1.6 L-6.8 -1.65 -6.75 -1.65 -6.65 -1.65 -6.35 -1.6 -6.15 -1.6 -5.85 -1.55 -5.6 -1.5 -5.4 -1.4 -5.3 -1.0 -5.2 -0.6 -6.45 -0.3 -7.9 0.6 Q-8.2 0.8 -8.45 0.6 -8.7 0.3 -9.05 0.3 L-9.45 0.4 -14.5 1.6 -15.2 1.85 M6.1 -1.95 L5.3 -1.85 6.1 -1.95 9.45 -1.75 6.1 -1.95 M13.35 -1.5 L12.8 -1.55 Q12.35 -1.5 12.1 -1.15 L11.45 -1.05 9.45 -1.75 11.45 -1.05 12.1 -1.15 Q12.35 -1.5 12.8 -1.55 L13.35 -1.5 14.65 -1.4 13.35 -1.5" fill="#ffffff" fill-rule="evenodd" stroke="none"/>
    <path d="M5.95 -2.4 L6.0 -2.5 6.2 -2.65 6.4 -2.8 6.55 -2.95 Q6.45 -4.25 7.45 -4.35 L7.95 -4.55 13.35 -10.8 Q13.5 -11.9 14.35 -12.5 L15.7 -13.6 15.75 -13.65 16.75 -15.25 Q17.15 -16.25 17.15 -16.95 16.2 -16.6 15.4 -15.9 L13.65 -14.55 M8.8 -10.3 L8.4 -9.95 8.15 -9.15 7.75 -8.65 5.85 -7.7 M3.35 -5.5 L2.75 -4.55 2.75 -4.5 2.75 -4.3 2.95 -3.95 M1.8 -5.0 L2.0 -5.3 2.2 -5.65 1.6 -11.4 Q0.95 -12.05 1.1 -12.75 L1.3 -13.95 1.3 -14.0 0.85 -15.3 0.0 -16.35 -0.55 -14.95 -0.8 -13.4 M-1.25 -8.9 L-1.3 -8.5 -1.1 -8.2 M-1.0 -8.9 L-0.75 -9.95 -0.2 -10.85 0.65 -10.15 1.1 -9.3 1.1 -9.25 0.9 -8.45 Q0.75 -7.95 1.4 -7.5 L1.8 -5.0 1.8 -4.85 2.75 -4.5 M1.8 -4.85 L2.0 -3.6 1.8 -3.4 Q1.15 -3.0 2.15 -2.6 L2.15 -2.7 2.2 -2.55 2.15 -2.5 2.1 -2.4 2.1 -2.25 2.05 -2.15 2.0 -2.05 1.5 -1.85 1.1 -1.8 M2.15 -2.6 L2.15 -2.5 M3.9 -1.4 L2.95 -1.3 2.8 -1.15 2.7 -0.75 M4.75 -1.2 L4.85 -1.55 5.0 -1.7 5.3 -1.85 5.1 -2.2 5.0 -2.3 4.65 -2.5 M6.55 -2.95 L6.65 -3.1 6.5 -2.85 6.4 -2.8 M5.1 -2.2 L5.6 -2.2 5.75 -2.3 5.95 -2.4 10.1 -2.45 Q10.75 -1.9 11.4 -2.1 L12.4 -2.45 12.45 -2.45 13.65 -2.15 14.65 -1.4 M19.8 -1.05 L22.0 -0.8 23.95 -0.25 22.45 0.6 20.65 1.05 20.55 1.05 18.85 0.85 Q17.8 0.7 16.9 1.35 L15.45 1.45 16.25 1.7 Q17.05 1.9 17.75 2.45 17.25 2.9 16.45 3.15 L14.9 3.35 14.85 3.35 13.5 2.95 Q12.7 2.7 11.9 3.2 L5.95 2.85 6.2 3.1 M8.45 5.6 L9.4 7.5 9.9 7.9 10.65 8.15 11.0 8.55 M15.3 13.4 L16.65 15.15 17.65 16.9 16.0 16.5 14.4 15.5 14.3 15.45 13.25 14.1 Q12.6 13.25 11.5 13.1 L5.3 7.7 5.05 7.2 Q4.95 6.2 3.65 6.3 L3.8 6.4 3.6 6.25 3.55 6.15 3.35 5.95 3.2 5.75 3.05 5.5 2.9 5.35 Q2.75 5.0 3.05 4.75 L3.15 4.25 2.05 4.8 M1.95 5.7 L1.7 6.35 1.3 7.0 Q1.1 7.25 1.35 7.4 L1.5 7.5 1.75 7.85 1.7 8.2 M1.3 12.4 L1.0 13.85 0.5 15.1 -0.4 14.15 -0.85 12.95 -0.85 12.9 -0.65 11.8 Q-0.5 11.1 -1.15 10.5 L-1.75 5.2 -1.65 4.95 -2.65 4.55 -2.5 5.05 -2.5 5.25 Q-2.65 5.8 -3.1 6.2 M-5.65 8.45 Q-6.55 9.0 -7.55 9.4 L-7.95 9.9 -8.15 10.65 -8.6 11.0 M-13.45 15.3 L-15.2 16.65 Q-16.0 17.3 -16.95 17.65 L-16.5 16.0 Q-16.2 15.1 -15.55 14.4 L-15.45 14.3 -14.1 13.25 Q-13.3 12.6 -13.1 11.5 L-7.7 5.3 Q-7.55 5.1 -7.25 5.05 -6.25 4.95 -6.3 3.65 L-6.4 3.8 -6.25 3.6 -6.2 3.55 -5.95 3.35 -5.85 3.3 -11.8 3.65 Q-12.65 3.15 -13.45 3.4 L-14.75 3.8 -14.85 3.8 -16.35 3.6 Q-17.2 3.35 -17.65 2.9 -17.0 2.35 -16.2 2.15 L-15.2 1.85 -14.5 1.6 M-20.1 1.55 L-22.25 1.25 -24.25 0.75 Q-23.75 0.2 -22.75 -0.15 L-20.9 -0.6 -20.85 -0.6 -19.1 -0.4 Q-18.1 -0.25 -17.15 -0.9 L-14.05 -1.1 -14.5 -1.8 -13.25 -2.15 -11.85 -2.25 M-7.85 -2.2 L-7.5 -2.2 -7.1 -1.75 -7.0 -1.6 -6.75 -1.65 -6.7 -1.65 -5.4 -2.15 M-5.15 -2.15 L-5.05 -2.25 -5.3 -2.25 Q-5.85 -2.4 -6.25 -2.85 M-8.45 -5.4 L-9.4 -7.3 -9.9 -7.7 -10.7 -7.9 -11.05 -8.35 M-15.3 -13.2 L-16.65 -14.95 Q-17.35 -15.75 -17.7 -16.7 L-16.0 -16.25 Q-15.15 -15.95 -14.4 -15.3 L-14.35 -15.2 -13.25 -13.85 Q-12.65 -13.05 -11.55 -12.85 L-5.3 -7.45 -5.1 -7.0 Q-5.0 -6.0 -3.7 -6.05 L-3.85 -6.15 -3.6 -6.0 -3.55 -5.95 -3.4 -5.7 -3.25 -5.55 -3.05 -5.3 -2.95 -5.1 Q-2.8 -4.8 -3.05 -4.5 L-3.25 -4.2 -1.6 -4.95 -0.95 -5.05 -1.0 -4.95 -1.7 -4.0 M-1.5 -6.15 L-1.35 -6.6 M5.3 -1.85 L6.1 -1.95 M9.45 -1.75 L11.45 -1.05 12.1 -1.15 Q12.35 -1.5 12.8 -1.55 L13.35 -1.5 M9.55 -0.05 L9.1 -0.15 Q8.75 -0.15 8.5 0.15 8.25 0.35 8.0 0.15 L6.5 -0.75 M15.45 1.45 L14.6 1.15 M5.95 2.85 L5.35 2.8 4.95 2.55 4.35 3.3 4.0 3.65 3.15 4.25 M3.6 2.7 L3.5 2.65 3.55 2.7 3.75 2.7 3.6 2.7 Q4.4 1.85 4.95 2.55 M3.5 2.65 L3.25 2.6 3.1 2.55 2.85 2.45 2.7 2.4 Q2.45 2.2 2.5 1.85 L2.5 1.45 M2.15 3.5 L1.95 2.8 1.75 2.7 1.35 2.6 M3.55 6.15 L3.65 6.3 M-14.05 -1.1 L-8.95 -1.5 -8.45 -1.3 Q-7.7 -0.7 -6.85 -1.6 L-7.0 -1.6 -6.8 -1.65 -6.75 -1.65 -6.7 -1.65 -6.65 -1.65 -6.35 -1.6 -6.15 -1.6 -5.85 -1.55 -5.6 -1.5 -5.4 -1.4 -5.15 -2.15 M-6.85 -1.6 L-6.8 -1.65 M-6.75 -1.65 L-6.65 -1.65 M-5.4 -1.4 L-5.3 -1.0 -5.2 -0.6 M-3.8 -0.95 L-2.9 -0.85 -2.75 -0.7 -2.6 -0.3 M-6.45 -0.3 L-7.9 0.6 Q-8.2 0.8 -8.45 0.6 -8.7 0.3 -9.05 0.3 L-9.45 0.4 M-1.9 -2.4 L-1.65 -1.85 -1.5 -1.8 -1.1 -1.75 M-1.45 -5.85 L-1.5 -5.55 -1.1 -5.25 -0.95 -5.05 M-3.55 -5.95 L-3.7 -6.05 M-5.05 -2.25 L-4.7 -2.5 M-3.4 3.1 L-3.2 3.05 -3.0 3.0 -2.75 2.9 -2.6 2.85 Q-2.4 2.65 -2.45 2.3 L-2.4 1.9 M-1.9 3.7 L-1.85 3.5 -1.85 3.35 -1.8 3.15 -1.75 3.0 -1.25 2.8 -0.85 2.75 M-4.85 2.95 L-4.75 2.8 Q-4.25 2.4 -3.55 3.15 L-3.4 3.1 -3.45 3.15 -3.7 3.15 -3.55 3.15 M-5.85 3.3 L-5.25 3.25 -4.9 3.0 -4.85 2.95 -4.75 3.05 -4.4 3.2 -4.75 2.8 M-4.4 3.2 L-4.0 3.65 -2.65 4.55 M-1.9 3.7 L-1.9 3.8 Q-0.9 4.3 -1.55 4.85 L-1.65 4.95 M-1.9 3.8 L-1.85 3.9 -1.9 3.75 -1.9 3.7 M-6.3 3.65 L-6.2 3.55" fill="none" stroke="#000000" stroke-linecap="round" stroke-linejoin="round" stroke-width="0.5"/>
    <path d="M13.65 -14.55 L8.8 -10.3 M5.85 -7.7 L3.35 -5.5 M-0.8 -13.4 L-1.25 -8.9 M-1.1 -8.2 L-1.0 -8.9 M4.75 -1.2 L3.9 -1.4 M14.65 -1.4 L19.8 -1.05 M6.2 3.1 L8.45 5.6 M11.0 8.55 L15.3 13.4 M2.05 4.8 L1.95 5.7 M1.7 6.35 L1.5 7.5 M1.7 8.2 L1.3 12.4 M-3.1 6.2 L-5.65 8.45 M-8.6 11.0 L-13.45 15.3 M-15.2 1.85 L-20.1 1.55 M-11.85 -2.25 L-7.85 -2.2 M-5.4 -2.15 L-5.15 -2.15 M-6.25 -2.85 L-8.45 -5.4 M-11.05 -8.35 L-15.3 -13.2 M-1.6 -4.95 L-1.5 -6.15 M-1.35 -6.6 L-1.1 -8.2 M6.1 -1.95 L9.45 -1.75 M13.35 -1.5 L14.65 -1.4 M6.5 -0.75 L4.75 -1.2 M14.6 1.15 L9.55 -0.05 M2.05 4.8 L2.15 3.5 M-5.2 -0.6 L-3.8 -0.95 M-5.2 -0.6 L-6.45 -0.3 M-9.45 0.4 L-14.5 1.6 M-1.7 -4.0 L-1.9 -2.4 M-1.35 -6.6 L-1.45 -5.85" fill="none" stroke="#000000" stroke-linecap="round" stroke-linejoin="round" stroke-width="0.5"/>
  </g>
  <defs>
    <radialGradient cx="0" cy="0" gradientTransform="matrix(0.0324, 0.0, 0.0, 0.0324, -0.75, 2.0)" gradientUnits="userSpaceOnUse" id="gradient0" r="819.2" spreadMethod="pad">
      <stop offset="0.0" stop-color="#bebe4b"/>
      <stop offset="0.4196078431372549" stop-color="#ffffff"/>
    </radialGradient>
  </defs>
</svg>
