<?xml version="1.0" encoding="UTF-8" standalone="no"?>
<svg xmlns:xlink="http://www.w3.org/1999/xlink" height="36.3px" width="48.7px" xmlns="http://www.w3.org/2000/svg">
  <g transform="matrix(1.0, 0.0, 0.0, 1.0, 24.5, 18.9)">
    <path d="M12.85 -13.75 L14.55 -15.05 Q15.3 -15.7 16.2 -16.0 L15.85 -14.35 14.9 -12.8 14.85 -12.75 13.6 -11.75 Q12.8 -11.15 12.65 -10.05 L7.55 -4.15 Q7.35 -4.0 7.1 -3.95 6.4 -3.9 6.25 -3.3 L6.25 -2.6 6.1 -2.5 5.9 -2.35 5.75 -2.2 5.5 -2.0 5.35 -1.9 5.3 -1.85 6.1 -1.95 9.45 -1.75 10.8 -1.35 11.45 -1.05 12.1 -1.15 Q12.35 -1.5 12.8 -1.55 L13.35 -1.5 19.8 -1.05 22.0 -0.8 23.95 -0.25 22.45 0.6 20.65 1.05 20.55 1.05 18.85 0.85 Q17.8 0.7 16.9 1.35 L10.35 1.85 14.15 3.4 15.75 4.2 17.1 5.2 15.65 5.65 14.15 5.65 14.05 5.6 12.85 5.0 11.2 5.05 6.95 4.05 4.75 3.55 4.45 3.3 4.4 3.25 4.0 3.65 2.65 4.55 2.1 4.8 1.95 6.45 1.3 7.95 Q1.1 8.2 1.35 8.4 L1.75 8.9 1.7 9.35 1.3 14.1 1.0 15.7 0.5 17.15 -0.4 16.05 -0.85 14.7 -0.85 14.65 -0.65 13.4 Q-0.5 12.6 -1.15 11.95 L-1.75 5.9 -1.55 5.5 -1.3 5.2 -1.3 5.05 -1.35 5.0 -1.95 4.85 -4.0 3.65 -4.15 3.5 -2.9 3.6 -4.15 3.5 -4.25 3.7 -4.6 3.95 -6.95 4.5 -11.0 5.45 -12.65 5.4 -13.9 6.0 -13.95 6.05 -15.5 6.05 -16.9 5.6 Q-16.35 4.95 -15.55 4.6 L-14.0 3.8 -9.95 2.15 -11.75 1.55 -12.35 1.6 -13.05 2.0 -13.65 1.95 -20.1 1.55 -22.25 1.25 -24.25 0.75 Q-23.75 0.2 -22.75 -0.15 L-20.9 -0.6 -20.85 -0.6 -19.1 -0.4 Q-18.1 -0.25 -17.15 -0.9 L-10.5 -1.35 -8.95 -1.5 -8.45 -1.3 Q-7.65 -0.65 -6.8 -1.65 L-6.65 -1.65 -6.35 -1.6 -6.15 -1.6 -5.85 -1.55 -5.6 -1.5 -5.4 -1.4 -5.2 -2.0 -5.85 -2.5 -6.1 -2.75 -7.95 -4.9 -8.85 -6.75 -9.35 -7.1 -10.05 -7.3 -10.4 -7.7 -14.45 -12.35 -15.75 -14.0 Q-16.4 -14.75 -16.7 -15.7 L-15.05 -15.3 Q-14.25 -15.0 -13.5 -14.4 L-13.45 -14.35 -12.45 -13.05 Q-11.85 -12.3 -10.75 -12.1 L-4.85 -7.0 -4.65 -6.55 Q-4.55 -5.55 -3.3 -5.65 L-3.2 -5.55 -3.05 -5.35 -2.9 -5.15 -2.7 -4.95 -2.6 -4.75 -2.55 -4.6 -2.75 -4.15 -2.95 -3.85 -2.75 -4.15 -2.55 -4.6 -1.65 -4.9 -1.35 -5.0 -1.0 -7.1 -0.75 -7.95 -0.2 -8.75 0.65 -8.15 1.1 -7.45 1.1 -7.4 0.9 -6.75 Q0.75 -6.35 1.4 -6.0 L1.6 -4.95 2.35 -4.7 2.4 -4.65 2.6 -4.6 3.05 -5.15 5.45 -7.25 Q6.3 -7.8 7.3 -8.15 L7.65 -8.65 Q7.6 -9.05 7.85 -9.35 L8.25 -9.7 12.85 -13.75 M2.7 -3.7 L2.5 -4.05 2.5 -4.25 2.6 -4.6 2.5 -4.25 2.5 -4.05 2.7 -3.7 M2.15 -1.9 L2.2 -1.95 2.15 -2.05 2.15 -2.0 2.15 -1.9 2.1 -1.8 2.1 -1.7 2.05 -1.6 2.0 -1.5 1.5 -1.4 1.1 -1.35 1.5 -1.4 2.0 -1.5 2.05 -1.6 2.1 -1.7 2.1 -1.8 2.15 -1.9 M4.4 -2.25 Q4.6 -2.25 4.75 -2.05 5.0 -1.8 5.3 -1.85 L5.0 -1.7 4.85 -1.55 4.75 -1.15 4.85 -1.55 5.0 -1.7 5.3 -1.85 Q5.0 -1.8 4.75 -2.05 4.6 -2.25 4.4 -2.25 M2.7 -0.35 L2.9 -0.7 3.05 -0.8 4.0 -0.75 3.05 -0.8 2.9 -0.7 2.7 -0.35 M1.6 -4.95 L2.0 -2.8 1.8 -2.6 Q1.15 -2.3 2.15 -2.0 1.15 -2.3 1.8 -2.6 L2.0 -2.8 1.6 -4.95 M9.35 1.45 L10.35 1.85 9.35 1.45 8.95 1.25 Q8.6 1.2 8.3 1.45 L7.8 1.4 6.5 0.25 7.8 1.4 8.3 1.45 Q8.6 1.2 8.95 1.25 L9.35 1.45 M4.0 -0.75 L6.5 0.25 4.0 -0.75 M3.0 3.2 L2.95 3.15 2.75 3.05 2.6 3.0 2.35 2.85 2.2 2.75 Q2.0 2.55 2.15 2.2 L2.15 1.8 2.15 2.2 Q2.0 2.55 2.2 2.75 L2.35 2.85 2.6 3.0 2.75 3.05 2.95 3.15 3.0 3.2 3.25 3.25 3.1 3.2 3.0 3.2 M1.35 3.0 L1.75 3.05 1.95 3.15 2.15 3.95 1.95 3.15 1.75 3.05 1.35 3.0 M4.4 3.25 L3.1 3.2 4.4 3.25 M2.15 3.95 L2.1 4.8 2.15 3.95 M-9.2 1.85 L-9.95 2.15 -9.2 1.85 -8.8 1.65 -8.15 1.85 -7.65 1.8 -6.3 0.65 -7.65 1.8 -8.15 1.85 -8.8 1.65 -9.2 1.85 M-3.8 -0.35 L-6.3 0.65 -3.8 -0.35 -2.9 -0.4 -2.75 -0.3 -2.55 0.05 -2.75 -0.3 -2.9 -0.4 -3.8 -0.35 M-4.4 -2.15 L-4.75 -1.95 -4.95 -1.9 -5.2 -2.0 -4.95 -1.9 -4.75 -1.95 -4.4 -2.15 M-5.2 -0.6 L-5.3 -1.0 -5.4 -1.4 -5.3 -1.0 -5.2 -0.6 M-1.45 -4.6 L-1.35 -5.0 -1.45 -4.6 -1.5 -4.4 -1.1 -4.15 Q-0.85 -4.05 -1.0 -3.9 L-1.7 -3.1 -1.0 -3.9 Q-0.85 -4.05 -1.1 -4.15 L-1.5 -4.4 -1.45 -4.6 M-1.9 -1.8 L-1.7 -3.1 -1.9 -1.8 -1.65 -1.4 -1.5 -1.3 -1.1 -1.3 -1.5 -1.3 -1.65 -1.4 -1.9 -1.8 M-2.8 3.55 L-2.6 3.45 -2.4 3.35 -2.2 3.25 -2.05 3.15 Q-1.85 2.95 -1.95 2.6 L-2.0 2.2 -1.95 2.6 Q-1.85 2.95 -2.05 3.15 L-2.2 3.25 -2.4 3.35 -2.6 3.45 -2.8 3.55 -2.9 3.6 -3.05 3.6 -2.85 3.6 -2.8 3.55 M-1.9 4.3 Q-1.3 4.65 -1.3 5.05 -1.3 4.65 -1.9 4.3 L-1.9 4.2 -1.9 4.25 -1.85 4.45 -1.9 4.3 M-0.85 3.1 L-1.25 3.2 Q-1.65 3.15 -1.75 3.4 L-1.8 3.6 -1.85 3.8 -1.85 3.95 -1.9 4.2 -1.85 3.95 -1.85 3.8 -1.8 3.6 -1.75 3.4 Q-1.65 3.15 -1.25 3.2 L-0.85 3.1" fill="url(#gradient0)" fill-rule="evenodd" stroke="none"/>
    <path d="M-0.8 -15.3 L-0.55 -17.05 0.0 -18.65 0.85 -17.45 1.3 -16.0 1.3 -15.9 1.1 -14.55 Q0.95 -13.75 1.6 -13.0 L2.2 -6.45 2.0 -6.05 Q1.35 -5.4 2.35 -4.7 L1.6 -4.95 1.4 -6.0 Q0.75 -6.35 0.9 -6.75 L1.1 -7.4 1.1 -7.45 0.65 -8.15 -0.2 -8.75 -0.75 -7.95 -1.0 -7.1 -1.35 -5.0 -1.65 -4.9 -1.5 -7.05 -0.8 -8.65 Q-0.65 -8.95 -0.9 -9.15 L-1.3 -9.7 -1.25 -10.15 -0.8 -15.3 M6.1 -2.5 L6.2 -2.5 6.35 -2.75 6.25 -2.6 6.25 -3.3 9.9 -3.8 Q10.6 -3.3 11.2 -3.55 L12.25 -4.05 12.3 -4.05 13.55 -3.9 Q14.2 -3.75 14.65 -3.3 14.2 -2.7 13.55 -2.45 L12.25 -1.85 10.8 -1.35 9.45 -1.75 6.1 -1.95 5.3 -1.85 5.35 -1.9 5.5 -2.0 5.75 -2.2 5.9 -2.35 6.1 -2.5 M10.3 7.6 L14.45 11.9 15.75 13.5 16.75 15.1 15.1 14.8 Q14.3 14.5 13.6 14.0 L13.5 13.95 12.5 12.75 Q11.85 12.0 10.8 11.9 L4.8 7.2 4.6 6.8 Q4.45 5.8 3.25 6.0 L3.15 5.9 2.95 5.7 2.8 5.5 2.65 5.3 2.55 5.15 Q2.4 4.85 2.65 4.55 L4.0 3.65 4.4 3.25 4.45 3.3 4.75 3.55 6.95 4.05 7.8 5.0 8.75 6.7 9.25 7.05 9.95 7.2 10.3 7.6 M-6.1 -2.75 L-5.85 -2.5 -5.2 -2.0 -5.4 -1.4 -5.6 -1.5 -5.85 -1.55 -6.15 -1.6 -6.35 -1.6 -6.65 -1.65 -6.75 -1.65 -7.0 -1.6 -6.8 -1.65 Q-7.65 -0.65 -8.45 -1.3 L-8.95 -1.5 -10.5 -1.35 Q-10.9 -1.9 -11.45 -1.95 L-12.55 -2.0 -12.6 -2.05 -13.65 -2.75 Q-14.2 -3.25 -14.35 -3.85 L-13.0 -4.0 -11.6 -3.95 -7.5 -3.35 -7.15 -3.3 -6.8 -2.85 Q-6.7 -2.6 -6.4 -2.65 L-6.1 -2.75 M-4.15 3.5 L-4.0 3.65 -1.95 4.85 -1.95 4.9 -2.55 5.75 -5.0 7.7 Q-5.85 8.15 -6.8 8.45 -7.2 8.55 -7.2 8.9 L-7.4 9.65 -7.8 9.95 -12.5 13.65 -14.2 14.8 Q-14.95 15.4 -15.9 15.65 L-15.45 14.1 -14.5 12.6 -14.45 12.55 -13.15 11.65 Q-12.4 11.1 -12.15 10.05 L-6.95 4.5 -4.6 3.95 -4.25 3.7 -4.15 3.5" fill="#ffffff" fill-rule="evenodd" stroke="none"/>
    <path d="M6.25 -3.3 Q6.4 -3.9 7.1 -3.95 7.35 -4.0 7.55 -4.15 L12.65 -10.05 Q12.8 -11.15 13.6 -11.75 L14.85 -12.75 14.9 -12.8 15.85 -14.35 16.2 -16.0 Q15.3 -15.7 14.55 -15.05 L12.85 -13.75 M8.25 -9.7 L7.85 -9.35 Q7.6 -9.05 7.65 -8.65 L7.3 -8.15 Q6.3 -7.8 5.45 -7.25 M3.05 -5.15 L2.6 -4.6 2.5 -4.25 2.5 -4.05 2.7 -3.7 M2.35 -4.7 Q1.35 -5.4 2.0 -6.05 L2.2 -6.45 1.6 -13.0 Q0.95 -13.75 1.1 -14.55 L1.3 -15.9 1.3 -16.0 0.85 -17.45 0.0 -18.65 -0.55 -17.05 -0.8 -15.3 M-1.25 -10.15 L-1.3 -9.7 -0.9 -9.15 Q-0.65 -8.95 -0.8 -8.65 L-1.5 -7.05 M-1.65 -4.9 L-1.35 -5.0 M-1.0 -7.1 L-0.75 -7.95 -0.2 -8.75 0.65 -8.15 1.1 -7.45 1.1 -7.4 0.9 -6.75 Q0.75 -6.35 1.4 -6.0 L1.6 -4.95 2.35 -4.7 2.4 -4.65 2.35 -4.85 2.35 -4.7 M2.15 -2.0 L2.15 -2.05 2.2 -1.95 2.15 -1.9 2.1 -1.8 2.1 -1.7 2.05 -1.6 2.0 -1.5 1.5 -1.4 1.1 -1.35 M2.15 -1.9 L2.15 -2.0 Q1.15 -2.3 1.8 -2.6 L2.0 -2.8 1.6 -4.95 M4.0 -0.75 L3.05 -0.8 2.9 -0.7 2.7 -0.35 M5.3 -1.85 L5.0 -1.7 4.85 -1.55 4.75 -1.15 M5.3 -1.85 Q5.0 -1.8 4.75 -2.05 4.6 -2.25 4.4 -2.25 M2.6 -4.6 L2.4 -4.65 M6.1 -2.5 L6.2 -2.5 6.35 -2.75 6.25 -2.6 6.1 -2.5 5.9 -2.35 5.75 -2.2 5.5 -2.0 5.35 -1.9 5.3 -1.85 6.1 -1.95 M9.45 -1.75 L10.8 -1.35 11.45 -1.05 12.1 -1.15 Q12.35 -1.5 12.8 -1.55 L13.35 -1.5 M12.25 -1.85 L13.55 -2.45 Q14.2 -2.7 14.65 -3.3 14.2 -3.75 13.55 -3.9 L12.3 -4.05 12.25 -4.05 11.2 -3.55 Q10.6 -3.3 9.9 -3.8 L6.25 -3.3 6.25 -2.6 M10.35 1.85 L16.9 1.35 Q17.8 0.7 18.85 0.85 L20.55 1.05 20.65 1.05 22.45 0.6 23.95 -0.25 22.0 -0.8 19.8 -1.05 M6.95 4.05 L11.2 5.05 12.85 5.0 14.05 5.6 14.15 5.65 15.65 5.65 17.1 5.2 15.75 4.2 14.15 3.4 M9.35 1.45 L8.95 1.25 Q8.6 1.2 8.3 1.45 L7.8 1.4 6.5 0.25 M10.3 7.6 L9.95 7.2 9.25 7.05 8.75 6.7 7.8 5.0 M6.95 4.05 L4.75 3.55 4.45 3.3 4.4 3.25 4.0 3.65 2.65 4.55 Q2.4 4.85 2.55 5.15 L2.65 5.3 2.8 5.5 2.95 5.7 3.15 5.9 3.25 6.0 Q4.45 5.8 4.6 6.8 L4.8 7.2 10.8 11.9 Q11.85 12.0 12.5 12.75 L13.5 13.95 13.6 14.0 Q14.3 14.5 15.1 14.8 L16.75 15.1 15.75 13.5 14.45 11.9 M2.15 1.8 L2.15 2.2 Q2.0 2.55 2.2 2.75 L2.35 2.85 2.6 3.0 2.75 3.05 2.95 3.15 3.0 3.2 3.1 3.2 4.4 3.25 M2.15 3.95 L1.95 3.15 1.75 3.05 1.35 3.0 M3.0 3.2 L3.25 3.25 3.1 3.2 M3.15 5.9 L3.15 5.95 3.4 6.1 3.25 6.0 M2.1 4.8 L2.65 4.55 M1.7 9.35 L1.75 8.9 1.35 8.4 Q1.1 8.2 1.3 7.95 L1.95 6.45 M-1.3 5.05 L-1.3 5.2 -1.55 5.5 -1.75 5.9 -1.15 11.95 Q-0.5 12.6 -0.65 13.4 L-0.85 14.65 -0.85 14.7 -0.4 16.05 0.5 17.15 1.0 15.7 1.3 14.1 M-10.5 -1.35 L-17.15 -0.9 Q-18.1 -0.25 -19.1 -0.4 L-20.85 -0.6 -20.9 -0.6 -22.75 -0.15 Q-23.75 0.2 -24.25 0.75 L-22.25 1.25 -20.1 1.55 M-13.65 1.95 L-13.05 2.0 -12.35 1.6 -11.75 1.55 -9.95 2.15 M-9.2 1.85 L-8.8 1.65 -8.15 1.85 -7.65 1.8 -6.3 0.65 M-3.8 -0.35 L-2.9 -0.4 -2.75 -0.3 -2.55 0.05 M-2.55 -4.6 L-2.6 -4.75 -2.7 -4.95 -2.9 -5.15 -3.05 -5.35 -3.2 -5.55 -3.3 -5.65 Q-4.55 -5.55 -4.65 -6.55 L-4.85 -7.0 -10.75 -12.1 Q-11.85 -12.3 -12.45 -13.05 L-13.45 -14.35 -13.5 -14.4 Q-14.25 -15.0 -15.05 -15.3 L-16.7 -15.7 Q-16.4 -14.75 -15.75 -14.0 L-14.45 -12.35 M-10.4 -7.7 L-10.05 -7.3 -9.35 -7.1 -8.85 -6.75 -7.95 -4.9 M-5.85 -2.5 L-5.2 -2.0 -4.95 -1.9 -4.75 -1.95 -4.4 -2.15 M-11.6 -3.95 L-13.0 -4.0 -14.35 -3.85 Q-14.2 -3.25 -13.65 -2.75 L-12.6 -2.05 -12.55 -2.0 -11.45 -1.95 Q-10.9 -1.9 -10.5 -1.35 L-8.95 -1.5 -8.45 -1.3 Q-7.65 -0.65 -6.8 -1.65 L-7.0 -1.6 -6.75 -1.65 -6.65 -1.65 -6.35 -1.6 -6.15 -1.6 -5.85 -1.55 -5.6 -1.5 -5.4 -1.4 -5.2 -2.0 M-6.1 -2.75 L-6.4 -2.65 Q-6.7 -2.6 -6.8 -2.85 L-7.15 -3.3 -7.5 -3.35 M-6.8 -1.65 L-6.65 -1.65 M-5.4 -1.4 L-5.3 -1.0 -5.2 -0.6 M-1.45 -4.6 L-1.5 -4.4 -1.1 -4.15 Q-0.85 -4.05 -1.0 -3.9 L-1.7 -3.1 M-1.9 -1.8 L-1.65 -1.4 -1.5 -1.3 -1.1 -1.3 M-3.2 -5.55 L-3.2 -5.6 -3.45 -5.75 -3.3 -5.65 M-2.55 -4.6 L-2.75 -4.15 -2.95 -3.85 M-1.65 -4.9 L-2.55 -4.6 M-2.0 2.2 L-1.95 2.6 Q-1.85 2.95 -2.05 3.15 L-2.2 3.25 -2.4 3.35 -2.6 3.45 -2.8 3.55 -2.85 3.6 -3.05 3.6 -2.9 3.6 -4.15 3.5 -4.0 3.65 -1.95 4.85 -1.35 5.0 -1.3 5.05 Q-1.3 4.65 -1.9 4.3 L-1.85 4.45 -1.9 4.25 -1.9 4.2 -1.85 3.95 -1.85 3.8 -1.8 3.6 -1.75 3.4 Q-1.65 3.15 -1.25 3.2 L-0.85 3.1 M-2.8 3.55 L-2.9 3.6 M-4.15 3.5 L-4.25 3.7 -4.6 3.95 -6.95 4.5 -12.15 10.05 Q-12.4 11.1 -13.15 11.65 L-14.45 12.55 -14.5 12.6 -15.45 14.1 -15.9 15.65 Q-14.95 15.4 -14.2 14.8 L-12.5 13.65 M-7.8 9.95 L-7.4 9.65 -7.2 8.9 Q-7.2 8.55 -6.8 8.45 -5.85 8.15 -5.0 7.7 M-2.55 5.75 L-1.95 4.9 -1.95 4.85 M-1.9 4.3 L-1.9 4.2 M-1.35 5.0 L-1.3 5.2 M-14.0 3.8 L-15.55 4.6 Q-16.35 4.95 -16.9 5.6 L-15.5 6.05 -13.95 6.05 -13.9 6.0 -12.65 5.4 -11.0 5.45 -6.95 4.5" fill="none" stroke="#000000" stroke-linecap="round" stroke-linejoin="round" stroke-width="0.5"/>
    <path d="M12.85 -13.75 L8.25 -9.7 M5.45 -7.25 L3.05 -5.15 M-0.8 -15.3 L-1.25 -10.15 M-1.5 -7.05 L-1.65 -4.9 M-1.35 -5.0 L-1.0 -7.1 M6.1 -1.95 L9.45 -1.75 M10.8 -1.35 L12.25 -1.85 M19.8 -1.05 L13.35 -1.5 M14.15 3.4 L10.35 1.85 9.35 1.45 M6.5 0.25 L4.0 -0.75 M14.45 11.9 L10.3 7.6 M7.8 5.0 L6.95 4.05 M2.1 4.8 L2.15 3.95 M1.95 6.45 L2.1 4.8 M1.3 14.1 L1.7 9.35 M-20.1 1.55 L-13.65 1.95 M-9.95 2.15 L-9.2 1.85 M-6.3 0.65 L-3.8 -0.35 M-14.45 -12.35 L-10.4 -7.7 M-7.95 -4.9 L-6.1 -2.75 -5.85 -2.5 M-7.5 -3.35 L-11.6 -3.95 M-1.35 -5.0 L-1.45 -4.6 M-1.7 -3.1 L-1.9 -1.8 M-12.5 13.65 L-7.8 9.95 M-5.0 7.7 L-2.55 5.75 M-9.95 2.15 L-14.0 3.8" fill="none" stroke="#000000" stroke-linecap="round" stroke-linejoin="round" stroke-width="0.5"/>
  </g>
  <defs>
    <radialGradient cx="0" cy="0" gradientTransform="matrix(0.0312, 0.0, 0.0, 0.0312, -1.0, 2.0)" gradientUnits="userSpaceOnUse" id="gradient0" r="819.2" spreadMethod="pad">
      <stop offset="0.0" stop-color="#bebe4b"/>
      <stop offset="0.4196078431372549" stop-color="#ffffff"/>
    </radialGradient>
  </defs>
</svg>
