<?xml version="1.0" encoding="UTF-8" standalone="no"?>
<svg xmlns:xlink="http://www.w3.org/1999/xlink" height="45.3px" width="48.7px" xmlns="http://www.w3.org/2000/svg">
  <g transform="matrix(1.0, 0.0, 0.0, 1.0, 24.5, 23.65)">
    <path d="M11.25 -12.1 L12.75 -13.2 14.3 -14.05 14.05 -12.5 13.25 -11.1 13.2 -11.05 12.05 -10.15 Q11.35 -9.65 11.25 -8.6 L9.35 -6.35 6.75 -3.3 6.3 -3.1 Q5.35 -3.1 5.55 -1.9 L5.45 -1.8 5.5 -1.8 5.65 -1.95 6.1 -1.95 6.9 -1.9 9.45 -1.75 11.45 -1.05 12.1 -1.15 Q12.35 -1.5 12.8 -1.55 L13.35 -1.5 19.8 -1.05 22.0 -0.8 23.95 -0.25 22.45 0.6 20.65 1.05 20.55 1.05 18.85 0.85 Q17.8 0.7 16.9 1.35 L8.7 1.95 Q8.4 1.95 8.2 1.75 7.35 1.1 6.55 2.1 L6.4 2.1 6.1 2.05 5.95 2.05 6.45 2.5 7.35 3.95 Q7.5 4.25 7.8 4.2 8.15 4.05 8.5 4.2 L8.8 4.5 12.75 7.85 14.0 9.1 14.95 10.45 14.45 10.55 13.5 10.5 Q12.7 10.35 12.05 10.0 L12.0 9.95 11.0 8.95 Q10.4 8.4 9.45 8.5 L3.8 5.1 3.55 4.75 3.25 4.2 2.35 4.7 2.15 4.8 2.15 5.05 1.95 8.15 1.3 9.95 Q1.1 10.3 1.35 10.55 L1.75 11.2 1.7 11.7 1.3 17.6 1.0 19.6 0.5 21.4 Q-0.05 20.9 -0.4 20.0 L-0.85 18.35 -0.85 18.25 -0.65 16.7 Q-0.5 15.75 -1.15 14.9 L-1.75 7.45 -1.55 7.0 Q-0.9 6.25 -1.9 5.5 L-1.9 5.35 -1.85 5.05 -1.85 4.9 -1.85 4.85 -1.8 4.6 -1.75 4.4 -1.6 4.2 -1.7 4.3 -1.85 4.45 -1.95 4.55 -2.85 4.45 Q-3.15 4.55 -3.25 5.05 L-3.45 5.4 -5.55 6.65 -6.05 6.95 -9.1 8.8 Q-10.1 8.7 -10.65 9.25 L-11.65 10.25 -11.7 10.25 -13.15 10.75 -13.65 10.85 -14.65 10.75 -13.65 9.4 -12.4 8.15 -8.5 4.8 -8.15 4.5 Q-7.85 4.35 -7.5 4.5 -7.2 4.55 -7.0 4.25 L-6.8 3.85 -6.1 2.8 -5.55 2.35 -6.35 2.4 -9.75 2.2 -11.75 1.55 -12.35 1.6 -13.05 2.0 -13.65 1.95 -20.1 1.55 -22.25 1.25 -24.25 0.75 Q-23.75 0.2 -22.75 -0.15 L-20.9 -0.6 -20.85 -0.6 -19.1 -0.4 Q-18.1 -0.25 -17.15 -0.9 L-8.95 -1.5 -8.45 -1.3 Q-7.65 -0.65 -6.8 -1.65 L-6.65 -1.65 -6.35 -1.6 -6.2 -1.6 -6.15 -1.6 -5.85 -1.55 -5.6 -1.5 -5.4 -1.4 -5.25 -1.85 -7.1 -4.0 -7.85 -5.65 -8.25 -6.0 -8.95 -6.15 -9.25 -6.5 -9.6 -6.85 -12.85 -10.65 -13.95 -12.2 Q-14.55 -12.9 -14.8 -13.75 L-13.25 -13.45 -11.85 -12.65 -11.8 -12.6 -10.9 -11.45 Q-10.4 -10.75 -9.35 -10.65 L-4.05 -6.1 -3.85 -5.7 Q-3.85 -4.75 -2.65 -4.95 L-2.55 -4.85 -2.4 -4.65 -1.65 -4.9 0.0 -5.15 2.2 -4.75 2.55 -4.6 4.6 -6.35 6.25 -7.1 6.6 -7.5 Q6.5 -7.95 6.75 -8.2 L7.1 -8.5 11.25 -12.1 M2.4 -4.5 L2.55 -4.6 2.4 -4.5 Q2.0 -4.15 1.9 -3.65 L1.95 -3.45 Q2.0 -3.25 2.2 -3.1 2.0 -3.25 1.95 -3.45 L1.9 -3.65 Q2.0 -4.15 2.4 -4.5 M0.05 -3.4 L-0.4 -3.4 Q-0.9 -3.35 -1.05 -2.9 L-1.4 -2.45 Q-1.9 -1.8 -1.7 -0.85 L-1.6 -0.45 Q-1.05 0.5 0.0 0.7 0.75 0.85 1.1 0.45 L1.35 0.1 1.7 -0.85 1.75 -1.25 1.75 -2.45 1.7 -2.65 1.35 -3.15 0.05 -3.4 M5.45 -1.8 L5.25 -1.65 5.1 -1.5 4.9 -1.35 4.75 -1.25 Q4.45 -1.15 4.2 -1.4 L3.85 -1.65 4.2 -1.4 Q4.45 -1.15 4.75 -1.25 L4.9 -1.35 5.1 -1.5 5.25 -1.65 5.45 -1.8 M4.4 0.75 L5.95 2.05 4.4 0.75 Q4.0 0.4 3.55 0.4 L3.35 0.45 3.05 0.75 3.35 0.45 3.55 0.4 Q4.0 0.4 4.4 0.75 M1.85 2.65 L1.7 3.0 Q1.45 3.3 1.6 3.55 L1.7 3.7 1.9 3.85 2.05 4.0 2.2 4.15 2.05 4.0 1.9 3.85 1.7 3.7 1.6 3.55 Q1.45 3.3 1.7 3.0 L1.85 2.65 M2.25 4.2 Q2.3 4.35 2.45 4.3 L2.3 4.25 2.2 4.15 2.25 4.2 M1.35 3.85 L1.75 3.9 1.95 4.05 2.15 4.8 1.95 4.05 1.75 3.9 1.35 3.85 M2.3 4.25 L3.25 4.2 2.3 4.25 M-5.05 1.9 L-5.55 2.35 -5.05 1.9 -4.9 1.75 -5.05 1.9 M-4.05 1.05 L-4.9 1.75 -4.05 1.05 Q-3.7 0.7 -3.2 0.7 L-3.0 0.75 -2.7 1.05 -3.0 0.75 -3.2 0.7 Q-3.7 0.7 -4.05 1.05 M-5.25 -1.8 L-5.25 -1.85 -5.25 -1.8 Q-4.9 -1.4 -4.4 -1.3 L-4.2 -1.35 -3.85 -1.55 -4.2 -1.35 -4.4 -1.3 Q-4.9 -1.4 -5.25 -1.8 M-5.4 -1.4 L-5.3 -1.1 -5.3 -1.0 -5.2 -0.6 -5.3 -1.0 -5.3 -1.1 -5.4 -1.4 M-2.4 -3.25 L-2.15 -3.55 -2.05 -3.7 -2.0 -4.1 -2.1 -4.3 -2.25 -4.5 -2.4 -4.65 -2.25 -4.5 -2.1 -4.3 -2.0 -4.1 -2.05 -3.7 -2.15 -3.55 -2.4 -3.25 M-0.85 4.0 L-1.25 4.1 -1.55 4.15 -1.6 4.2 -1.55 4.15 -1.4 4.0 -1.3 3.85 Q-1.15 3.6 -1.35 3.3 L-1.5 2.9 -1.35 3.3 Q-1.15 3.6 -1.3 3.85 L-1.4 4.0 -1.55 4.15 -1.25 4.1 -0.85 4.0" fill="url(#gradient0)" fill-rule="evenodd" stroke="none"/>
    <path d="M-0.8 -19.25 L-0.55 -21.4 0.0 -23.4 0.85 -21.9 1.3 -20.05 1.3 -20.0 1.1 -18.25 Q0.95 -17.25 1.6 -16.3 L2.2 -8.1 2.0 -7.6 Q1.35 -6.8 2.35 -5.95 L2.35 -5.8 2.3 -5.5 2.3 -5.3 2.25 -5.0 2.2 -4.75 0.0 -5.15 -1.65 -4.9 -1.7 -5.5 -1.5 -8.9 -0.8 -10.9 Q-0.65 -11.3 -0.9 -11.5 L-1.3 -12.2 -1.25 -12.8 -0.8 -19.25 M9.35 -6.35 L9.4 -6.4 10.8 -6.55 11.75 -7.25 11.8 -7.3 13.1 -7.5 14.4 -7.2 13.45 -6.1 12.3 -5.15 8.6 -2.7 8.3 -2.5 7.7 -2.6 7.3 -2.5 6.9 -1.9 6.1 -1.95 5.65 -1.95 5.65 -2.0 5.6 -1.9 5.55 -1.9 Q5.35 -3.1 6.3 -3.1 L6.75 -3.3 9.35 -6.35 M0.05 -3.4 L1.35 -3.15 1.7 -2.65 1.75 -2.45 1.75 -1.25 1.7 -0.85 1.35 0.1 1.1 0.45 Q0.75 0.85 0.0 0.7 -1.05 0.5 -1.6 -0.45 L-1.7 -0.85 Q-1.9 -1.8 -1.4 -2.45 L-1.05 -2.9 Q-0.9 -3.35 -0.4 -3.4 L0.05 -3.4 M0.35 -1.9 L0.15 -1.5 0.35 -1.9 M2.35 4.7 L3.25 4.2 3.55 4.75 3.8 5.1 9.45 8.5 Q10.4 8.4 11.0 8.95 L12.0 9.95 12.05 10.0 Q12.7 10.35 13.5 10.5 L14.45 10.55 14.9 11.35 Q14.25 11.55 13.45 11.35 L12.05 10.85 12.0 10.8 11.05 9.85 Q10.5 9.25 9.55 9.35 L4.15 5.95 3.95 5.55 Q3.85 4.65 2.75 5.05 L2.65 5.0 2.5 4.8 2.35 4.7 M-9.6 -6.85 L-9.25 -6.5 -8.95 -6.15 -8.25 -6.0 -7.85 -5.65 -7.1 -4.0 -5.25 -1.85 -5.4 -1.4 -5.6 -1.5 -5.85 -1.55 -6.15 -1.6 -6.2 -1.6 -10.2 -4.3 Q-10.45 -5.15 -11.1 -5.35 L-12.25 -5.75 -12.3 -5.75 -13.2 -6.75 Q-13.6 -7.4 -13.65 -8.0 L-12.25 -7.8 -10.8 -7.35 -9.6 -6.85 M-13.65 10.85 L-13.15 10.75 -11.7 10.25 -11.65 10.25 -10.65 9.25 Q-10.1 8.7 -9.1 8.8 L-6.05 6.95 -6.05 7.0 -6.25 7.65 -6.6 7.9 -10.85 10.6 -12.35 11.4 -13.9 11.9 -13.65 10.85" fill="#ffffff" fill-rule="evenodd" stroke="none"/>
    <path d="M9.35 -6.35 L11.25 -8.6 Q11.35 -9.65 12.05 -10.15 L13.2 -11.05 13.25 -11.1 14.05 -12.5 14.3 -14.05 12.75 -13.2 11.25 -12.1 M7.1 -8.5 L6.75 -8.2 Q6.5 -7.95 6.6 -7.5 L6.25 -7.1 4.6 -6.35 M2.4 -4.5 Q2.0 -4.15 1.9 -3.65 L1.95 -3.45 Q2.0 -3.25 2.2 -3.1 M2.2 -4.75 L2.25 -5.0 2.3 -5.3 2.3 -5.5 2.35 -5.8 2.35 -5.95 Q1.35 -6.8 2.0 -7.6 L2.2 -8.1 1.6 -16.3 Q0.95 -17.25 1.1 -18.25 L1.3 -20.0 1.3 -20.05 0.85 -21.9 0.0 -23.4 -0.55 -21.4 -0.8 -19.25 M-1.25 -12.8 L-1.3 -12.2 -0.9 -11.5 Q-0.65 -11.3 -0.8 -10.9 L-1.5 -8.9 M-1.7 -5.5 L-1.65 -4.9 0.0 -5.15 2.2 -4.75 2.55 -4.6 M12.3 -5.15 L13.45 -6.1 14.4 -7.2 13.1 -7.5 11.8 -7.3 11.75 -7.25 10.8 -6.55 9.4 -6.4 9.35 -6.35 6.75 -3.3 6.3 -3.1 Q5.35 -3.1 5.55 -1.9 L5.6 -1.9 5.65 -2.0 5.65 -1.95 6.1 -1.95 M6.9 -1.9 L7.3 -2.5 7.7 -2.6 8.3 -2.5 8.6 -2.7 M2.35 -5.8 L2.4 -5.9 2.35 -6.15 2.35 -5.95 M0.05 -3.4 L-0.4 -3.4 Q-0.9 -3.35 -1.05 -2.9 L-1.4 -2.45 Q-1.9 -1.8 -1.7 -0.85 L-1.6 -0.45 Q-1.05 0.5 0.0 0.7 0.75 0.85 1.1 0.45 L1.35 0.1 1.7 -0.85 1.75 -1.25 1.75 -2.45 1.7 -2.65 1.35 -3.15 0.05 -3.4 M0.15 -1.5 L0.35 -1.9 M3.85 -1.65 L4.2 -1.4 Q4.45 -1.15 4.75 -1.25 L4.9 -1.35 5.1 -1.5 5.25 -1.65 5.45 -1.8 5.55 -1.9 5.6 -1.9 5.65 -1.95 5.5 -1.8 5.45 -1.8 M13.35 -1.5 L12.8 -1.55 Q12.35 -1.5 12.1 -1.15 L11.45 -1.05 9.45 -1.75 M5.95 2.05 L6.1 2.05 6.4 2.1 6.55 2.1 Q7.35 1.1 8.2 1.75 8.4 1.95 8.7 1.95 L16.9 1.35 Q17.8 0.7 18.85 0.85 L20.55 1.05 20.65 1.05 22.45 0.6 23.95 -0.25 22.0 -0.8 19.8 -1.05 M14.45 10.55 L14.95 10.45 14.0 9.1 12.75 7.85 M8.8 4.5 L8.5 4.2 Q8.15 4.05 7.8 4.2 7.5 4.25 7.35 3.95 L6.45 2.5 M4.4 0.75 Q4.0 0.4 3.55 0.4 L3.35 0.45 3.05 0.75 M14.45 10.55 L13.5 10.5 Q12.7 10.35 12.05 10.0 L12.0 9.95 11.0 8.95 Q10.4 8.4 9.45 8.5 L3.8 5.1 3.55 4.75 3.25 4.2 2.35 4.7 2.5 4.8 2.65 5.0 2.75 5.05 Q3.85 4.65 3.95 5.55 L4.15 5.95 9.55 9.35 Q10.5 9.25 11.05 9.85 L12.0 10.8 12.05 10.85 13.45 11.35 Q14.25 11.55 14.9 11.35 L14.45 10.55 M6.4 2.1 L6.45 2.15 6.7 2.1 6.55 2.1 M2.2 4.15 L2.05 4.0 1.9 3.85 1.7 3.7 1.6 3.55 Q1.45 3.3 1.7 3.0 L1.85 2.65 M2.25 4.2 Q2.3 4.35 2.45 4.3 L2.3 4.25 2.2 4.15 2.25 4.2 M2.15 4.8 L1.95 4.05 1.75 3.9 1.35 3.85 M2.15 5.05 L2.15 4.8 2.35 4.7 M2.65 5.0 L2.65 5.05 2.85 5.15 2.75 5.05 M3.25 4.2 L2.3 4.25 M1.7 11.7 L1.75 11.2 1.35 10.55 Q1.1 10.3 1.3 9.95 L1.95 8.15 M-1.6 4.2 L-1.75 4.4 -1.8 4.6 -1.85 4.85 -1.85 4.9 -1.85 5.05 -1.9 5.35 -1.9 5.5 Q-0.9 6.25 -1.55 7.0 L-1.75 7.45 -1.15 14.9 Q-0.5 15.75 -0.65 16.7 L-0.85 18.25 -0.85 18.35 -0.4 20.0 Q-0.05 20.9 0.5 21.4 L1.0 19.6 1.3 17.6 M-6.2 -1.6 L-6.35 -1.6 -6.65 -1.65 -6.8 -1.65 Q-7.65 -0.65 -8.45 -1.3 L-8.95 -1.5 -17.15 -0.9 Q-18.1 -0.25 -19.1 -0.4 L-20.85 -0.6 -20.9 -0.6 -22.75 -0.15 Q-23.75 0.2 -24.25 0.75 L-22.25 1.25 -20.1 1.55 M-13.65 1.95 L-13.05 2.0 -12.35 1.6 -11.75 1.55 -9.75 2.2 M-6.35 2.4 L-5.55 2.35 M-5.05 1.9 L-4.9 1.75 M-4.05 1.05 Q-3.7 0.7 -3.2 0.7 L-3.0 0.75 -2.7 1.05 M-2.4 -4.65 L-2.55 -4.85 -2.65 -4.95 Q-3.85 -4.75 -3.85 -5.7 L-4.05 -6.1 -9.35 -10.65 Q-10.4 -10.75 -10.9 -11.45 L-11.8 -12.6 -11.85 -12.65 -13.25 -13.45 -14.8 -13.75 Q-14.55 -12.9 -13.95 -12.2 L-12.85 -10.65 M-9.25 -6.5 L-8.95 -6.15 -8.25 -6.0 -7.85 -5.65 -7.1 -4.0 M-5.25 -1.8 Q-4.9 -1.4 -4.4 -1.3 L-4.2 -1.35 -3.85 -1.55 M-10.8 -7.35 L-12.25 -7.8 -13.65 -8.0 Q-13.6 -7.4 -13.2 -6.75 L-12.3 -5.75 -12.25 -5.75 -11.1 -5.35 Q-10.45 -5.15 -10.2 -4.3 L-6.2 -1.6 -6.15 -1.6 -5.85 -1.55 -5.6 -1.5 -5.4 -1.4 -5.25 -1.85 M-6.65 -1.65 L-6.75 -1.65 -7.0 -1.6 -6.8 -1.65 M-5.2 -0.6 L-5.3 -1.0 -5.3 -1.1 -5.4 -1.4 M-1.65 -4.9 L-2.4 -4.65 -2.25 -4.5 -2.1 -4.3 -2.0 -4.1 -2.05 -3.7 -2.15 -3.55 -2.4 -3.25 M-2.55 -4.85 L-2.55 -4.9 -2.75 -5.05 -2.65 -4.95 M-2.85 4.45 Q-3.15 4.55 -3.25 5.05 L-3.45 5.4 -5.55 6.65 -4.05 6.25 M-1.9 4.85 L-2.85 4.45 -1.95 4.55 -1.85 4.45 -1.7 4.3 -1.6 4.2 -1.55 4.15 -1.4 4.0 -1.3 3.85 Q-1.15 3.6 -1.35 3.3 L-1.5 2.9 M-1.55 4.15 L-1.25 4.1 -0.85 4.0 M-1.85 4.45 L-1.9 4.5 -2.1 4.6 -1.95 4.55 M-1.9 5.35 L-1.9 5.4 -1.85 5.65 -1.9 5.5 M-1.9 4.85 L-1.85 4.9 M-6.1 2.8 L-6.8 3.85 -7.0 4.25 Q-7.2 4.55 -7.5 4.5 -7.85 4.35 -8.15 4.5 L-8.5 4.8 M-12.4 8.15 L-13.65 9.4 -14.65 10.75 -13.65 10.85 -13.15 10.75 -11.7 10.25 -11.65 10.25 -10.65 9.25 Q-10.1 8.7 -9.1 8.8 L-6.05 6.95 -5.55 6.65 M-6.8 3.85 L-7.5 4.5 M-6.6 7.9 L-6.25 7.65 -6.05 7.0 -6.05 6.95 M-13.65 10.85 L-13.9 11.9 -12.35 11.4 -10.85 10.6" fill="none" stroke="#000000" stroke-linecap="round" stroke-linejoin="round" stroke-width="0.5"/>
    <path d="M11.25 -12.1 L7.1 -8.5 M4.6 -6.35 L2.55 -4.6 2.4 -4.5 M-0.8 -19.25 L-1.25 -12.8 M-1.5 -8.9 L-1.7 -5.5 M6.1 -1.95 L6.9 -1.9 9.45 -1.75 M8.6 -2.7 L12.3 -5.15 M19.8 -1.05 L13.35 -1.5 M12.75 7.85 L8.8 4.5 M6.45 2.5 L5.95 2.05 4.4 0.75 M1.95 8.15 L2.15 5.05 M1.3 17.6 L1.7 11.7 M-20.1 1.55 L-13.65 1.95 M-9.75 2.2 L-6.35 2.4 M-5.55 2.35 L-5.05 1.9 M-4.9 1.75 L-4.05 1.05 M-12.85 -10.65 L-9.6 -6.85 -9.25 -6.5 M-7.1 -4.0 L-5.25 -1.85 -5.25 -1.8 M-9.6 -6.85 L-10.8 -7.35 M-4.05 6.25 L-1.9 4.85 M-5.55 2.35 L-6.1 2.8 M-8.5 4.8 L-12.4 8.15 M-10.85 10.6 L-6.6 7.9" fill="none" stroke="#000000" stroke-linecap="round" stroke-linejoin="round" stroke-width="0.5"/>
  </g>
  <defs>
    <radialGradient cx="0" cy="0" gradientTransform="matrix(0.0312, 0.0, 0.0, 0.0312, -1.0, 2.25)" gradientUnits="userSpaceOnUse" id="gradient0" r="819.2" spreadMethod="pad">
      <stop offset="0.0" stop-color="#bebe4b"/>
      <stop offset="0.4196078431372549" stop-color="#ffffff"/>
    </radialGradient>
  </defs>
</svg>
