<?xml version="1.0" encoding="UTF-8" standalone="no"?>
<svg xmlns:xlink="http://www.w3.org/1999/xlink" height="12.75px" width="26.1px" xmlns="http://www.w3.org/2000/svg">
  <g transform="matrix(1.0, 0.0, 0.0, 1.0, 13.4, 10.45)">
    <path d="M3.45 -9.45 L5.9 -8.3 Q8.6 -6.65 10.3 -4.35 12.0 -2.05 11.65 -0.4 11.25 1.2 9.15 1.2 6.95 1.2 4.25 -0.4 1.5 -2.05 -0.2 -4.35 L-0.3 -4.5 -0.5 -4.25 Q-2.2 -1.95 -4.9 -0.35 -7.65 1.3 -9.8 1.3 -11.95 1.3 -12.3 -0.35 -12.7 -1.95 -11.0 -4.25 -9.3 -6.6 -6.55 -8.2 L-4.25 -9.35 -3.65 -9.55 -3.3 -9.65 -1.7 -9.85 -0.45 -9.65 1.0 -9.9 2.65 -9.7 3.25 -9.55 3.45 -9.45" fill="url(#gradient0)" fill-rule="evenodd" stroke="none"/>
    <path d="M3.45 -9.45 L5.9 -8.3 Q8.6 -6.65 10.3 -4.35 12.0 -2.05 11.65 -0.4 11.25 1.2 9.15 1.2 6.95 1.2 4.25 -0.4 1.5 -2.05 -0.2 -4.35 L-0.3 -4.5 -0.5 -4.25 Q-2.2 -1.95 -4.9 -0.35 -7.65 1.3 -9.8 1.3 -11.95 1.3 -12.3 -0.35 -12.7 -1.95 -11.0 -4.25 -9.3 -6.6 -6.55 -8.2 L-4.25 -9.35" fill="none" stroke="#000000" stroke-linecap="round" stroke-linejoin="round" stroke-width="2.0"/>
  </g>
  <defs>
    <radialGradient cx="0" cy="0" gradientTransform="matrix(0.0363, 0.0, 0.0, 0.0136, -7.3, -6.5)" gradientUnits="userSpaceOnUse" id="gradient0" r="819.2" spreadMethod="pad">
      <stop offset="0.0" stop-color="#0066ff"/>
      <stop offset="1.0" stop-color="#ffffff"/>
    </radialGradient>
  </defs>
</svg>
