<?xml version="1.0" encoding="UTF-8" standalone="no"?>
<svg xmlns:xlink="http://www.w3.org/1999/xlink" height="27.2px" width="5.65px" xmlns="http://www.w3.org/2000/svg">
  <g transform="matrix(1.0, 0.0, 0.0, 1.0, 2.7, 26.75)">
    <path d="M-1.35 -21.45 L-1.0 -24.1 -0.35 -26.5 Q0.3 -25.9 0.75 -24.7 L1.3 -22.5 1.3 -22.4 1.05 -20.3 Q0.9 -19.1 1.7 -17.95 L2.45 -8.1 2.2 -7.5 Q1.4 -6.5 2.65 -5.5 L2.65 -5.3 2.6 -4.95 2.55 -4.7 2.5 -4.3 2.45 -4.05 Q2.3 -3.65 1.8 -3.65 L1.3 -3.5 1.15 -3.45 0.9 -3.25 0.9 -2.7 0.95 -2.55 1.1 -2.35 1.2 -2.2 1.4 -1.8 1.45 -1.05 1.3 -0.55 0.55 0.1 0.3 0.15 -0.6 0.1 -0.85 0.0 -1.15 -0.35 -1.2 -0.55 -1.15 -1.2 -1.05 -1.35 -1.0 -1.45 -0.85 -1.6 -0.75 -1.7 -0.6 -1.95 Q-0.3 -2.35 -0.4 -2.7 L-0.6 -3.0 -0.95 -3.15 -1.1 -3.25 -1.45 -3.35 -1.95 -3.45 -2.15 -3.65 Q-2.5 -4.2 -2.45 -4.95 L-2.15 -9.0 -1.35 -11.45 Q-1.15 -11.9 -1.45 -12.2 L-1.9 -13.0 -1.85 -13.7 -1.35 -21.45" fill="url(#gradient0)" fill-rule="evenodd" stroke="none"/>
    <path d="M-2.45 -4.95 Q-2.5 -4.2 -2.15 -3.65 L-1.95 -3.45 -1.45 -3.35 -1.1 -3.25 -0.95 -3.15 -0.6 -3.0 -0.4 -2.7 Q-0.3 -2.35 -0.6 -1.95 L-0.75 -1.7 -0.85 -1.6 -1.0 -1.45 -1.05 -1.35 -1.15 -1.2 -1.2 -0.55 -1.15 -0.35 -0.85 0.0 -0.6 0.1 0.3 0.15 0.55 0.1 1.3 -0.55 1.45 -1.05 1.4 -1.8 1.2 -2.2 1.1 -2.35 0.95 -2.55 0.9 -2.7 0.9 -3.25 1.15 -3.45 1.3 -3.5 1.8 -3.65 Q2.3 -3.65 2.45 -4.05 L2.5 -4.3 2.55 -4.7 2.6 -4.95 2.65 -5.3 2.65 -5.5 Q1.4 -6.5 2.2 -7.5 L2.45 -8.1 1.7 -17.95 Q0.9 -19.1 1.05 -20.3 L1.3 -22.4 1.3 -22.5 0.75 -24.7 Q0.3 -25.9 -0.35 -26.5 L-1.0 -24.1 -1.35 -21.45 M-1.85 -13.7 L-1.9 -13.0 -1.45 -12.2 Q-1.15 -11.9 -1.35 -11.45 L-2.15 -9.0 M2.65 -5.3 L2.65 -5.4 2.6 -5.75 2.65 -5.5" fill="none" stroke="#000000" stroke-linecap="round" stroke-linejoin="round" stroke-width="0.5"/>
    <path d="M-1.35 -21.45 L-1.85 -13.7 M-2.15 -9.0 L-2.45 -4.95" fill="none" stroke="#000000" stroke-linecap="round" stroke-linejoin="round" stroke-width="0.5"/>
  </g>
  <defs>
    <radialGradient cx="0" cy="0" gradientTransform="matrix(0.004, 0.0, 0.0, 0.0118, 0.1, -7.45)" gradientUnits="userSpaceOnUse" id="gradient0" r="819.2" spreadMethod="pad">
      <stop offset="0.0" stop-color="#bebe4b"/>
      <stop offset="1.0" stop-color="#ffffff"/>
    </radialGradient>
  </defs>
</svg>
