<?xml version="1.0" encoding="UTF-8" standalone="no"?>
<svg xmlns:xlink="http://www.w3.org/1999/xlink" height="8.65px" width="5.9px" xmlns="http://www.w3.org/2000/svg">
  <g transform="matrix(1.0, 0.0, 0.0, 1.0, 2.95, 9.8)">
    <path d="M0.9 -3.75 L1.2 -3.2 Q1.8 -0.8 -0.7 -1.6 -2.95 -2.35 -1.0 -3.35 L-1.85 -3.85 Q-2.4 -4.0 -2.45 -4.4 -2.9 -6.4 -2.45 -8.15 -1.85 -8.9 -0.85 -8.95 0.15 -9.0 0.85 -9.35 2.55 -10.15 2.7 -7.5 2.75 -7.0 2.25 -6.15 2.05 -5.7 2.2 -5.4 3.1 -3.45 0.9 -3.75" fill="url(#gradient0)" fill-rule="evenodd" stroke="none"/>
    <path d="M0.9 -3.75 Q3.1 -3.45 2.2 -5.4 2.05 -5.7 2.25 -6.15 2.75 -7.0 2.7 -7.5 2.55 -10.15 0.85 -9.35 0.15 -9.0 -0.85 -8.95 -1.85 -8.9 -2.45 -8.15 -2.9 -6.4 -2.45 -4.4 -2.4 -4.0 -1.85 -3.85 L-1.0 -3.35 Q-2.95 -2.35 -0.7 -1.6 1.8 -0.8 1.2 -3.2 L0.9 -3.75 Z" fill="none" stroke="#000000" stroke-linecap="round" stroke-linejoin="round" stroke-width="0.5"/>
  </g>
  <defs>
    <radialGradient cx="0" cy="0" gradientTransform="matrix(0.0069, 0.0, 0.0, 0.0069, -0.1, -7.0)" gradientUnits="userSpaceOnUse" id="gradient0" r="819.2" spreadMethod="pad">
      <stop offset="0.0" stop-color="#bebe4b"/>
      <stop offset="0.5372549019607843" stop-color="#ffffff"/>
    </radialGradient>
  </defs>
</svg>
