<?xml version="1.0" encoding="UTF-8" standalone="no"?>
<svg xmlns:xlink="http://www.w3.org/1999/xlink" height="8.4px" width="11.9px" xmlns="http://www.w3.org/2000/svg">
  <g transform="matrix(1.0, 0.0, 0.0, 1.0, 6.95, 13.7)">
    <path d="M1.4 -8.55 Q1.6 -8.0 1.25 -7.6 -0.4 -5.85 -1.1 -7.8 -0.4 -5.85 1.25 -7.6 1.6 -8.0 1.4 -8.55 M2.6 -7.5 Q2.5 -6.7 2.0 -6.25 0.55 -5.0 -1.15 -6.05 -2.05 -6.6 -2.2 -7.35 -2.6 -9.45 -1.6 -10.55 L-0.1 -10.95 Q1.3 -11.05 1.95 -10.15 2.8 -9.05 2.6 -7.5 M-0.45 -9.4 Q-0.3 -9.75 0.15 -9.8 -0.3 -9.75 -0.45 -9.4" fill="url(#gradient0)" fill-rule="evenodd" stroke="none"/>
    <path d="M-1.1 -7.8 Q-0.4 -5.85 1.25 -7.6 1.6 -8.0 1.4 -8.55 M2.6 -7.5 Q2.8 -9.05 1.95 -10.15 1.3 -11.05 -0.1 -10.95 L-1.6 -10.55 Q-2.6 -9.45 -2.2 -7.35 -2.05 -6.6 -1.15 -6.05 0.55 -5.0 2.0 -6.25 2.5 -6.7 2.6 -7.5 M0.15 -9.8 Q-0.3 -9.75 -0.45 -9.4" fill="none" stroke="#000000" stroke-linecap="round" stroke-linejoin="round" stroke-width="0.5"/>
    <path d="M-3.3 -11.45 L-3.0 -11.95 -2.7 -12.3 -2.55 -12.35 -2.25 -12.4 -2.25 -12.45 Q-0.6 -11.5 -1.85 -9.6 L-2.1 -8.55 -1.8 -6.9 Q-2.55 -5.4 -3.9 -6.55 -4.2 -8.0 -3.95 -9.35 -3.1 -9.25 -2.8 -10.15 L-2.85 -10.3 -3.3 -11.45" fill="url(#gradient1)" fill-rule="evenodd" stroke="none"/>
    <path d="M2.85 -8.6 L2.15 -9.65 1.45 -10.3 1.1 -10.65 Q1.0 -11.0 1.05 -11.4 L1.55 -12.05 1.7 -12.1 2.0 -12.15 2.0 -12.2 Q4.2 -11.3 4.9 -9.05 L4.95 -8.9 4.8 -8.7 Q4.5 -9.25 3.75 -9.2 L3.45 -9.1 2.85 -8.65 2.85 -8.6" fill="url(#gradient2)" fill-rule="evenodd" stroke="none"/>
    <path d="M4.8 -8.7 L4.9 -8.3 4.95 -8.15 4.65 -7.55 4.5 -7.2 2.85 -7.3 2.75 -8.05 2.85 -8.6 2.85 -8.65 3.45 -9.1 3.75 -9.2 Q4.5 -9.25 4.8 -8.7" fill="url(#gradient3)" fill-rule="evenodd" stroke="none"/>
    <path d="M-3.95 -9.35 L-4.0 -9.35 Q-4.55 -9.4 -4.9 -9.8 -5.2 -11.1 -6.45 -11.75 L-6.9 -12.05 -6.9 -12.45 -6.95 -13.0 -6.45 -13.55 -6.0 -13.7 Q-4.1 -13.0 -3.3 -11.45 L-2.85 -10.3 -2.8 -10.15 Q-3.1 -9.25 -3.95 -9.35" fill="url(#gradient4)" fill-rule="evenodd" stroke="none"/>
  </g>
  <defs>
    <radialGradient cx="0" cy="0" gradientTransform="matrix(0.0046, 0.0, 0.0, 0.0046, 0.25, -8.65)" gradientUnits="userSpaceOnUse" id="gradient0" r="819.2" spreadMethod="pad">
      <stop offset="0.0" stop-color="#bebe4b"/>
      <stop offset="0.5372549019607843" stop-color="#ffffff"/>
    </radialGradient>
    <radialGradient cx="0" cy="0" gradientTransform="matrix(0.0042, 0.0, 0.0, 0.0042, -2.7, -9.25)" gradientUnits="userSpaceOnUse" id="gradient1" r="819.2" spreadMethod="pad">
      <stop offset="0.0" stop-color="#4e0707"/>
      <stop offset="0.16470588235294117" stop-color="#b41010"/>
      <stop offset="0.5294117647058824" stop-color="#e23612"/>
      <stop offset="0.807843137254902" stop-color="#fd5037"/>
      <stop offset="1.0" stop-color="#fd5037" stop-opacity="0.0"/>
    </radialGradient>
    <radialGradient cx="0" cy="0" gradientTransform="matrix(0.0034, 0.0, 0.0, 0.0034, 3.0, -10.2)" gradientUnits="userSpaceOnUse" id="gradient2" r="819.2" spreadMethod="pad">
      <stop offset="0.0" stop-color="#4e0707"/>
      <stop offset="0.16470588235294117" stop-color="#b41010"/>
      <stop offset="0.5294117647058824" stop-color="#e23612"/>
      <stop offset="0.807843137254902" stop-color="#fd5037"/>
      <stop offset="1.0" stop-color="#fd5037" stop-opacity="0.0"/>
    </radialGradient>
    <radialGradient cx="0" cy="0" gradientTransform="matrix(0.0018, 0.0, 0.0, 0.0018, 3.85, -8.05)" gradientUnits="userSpaceOnUse" id="gradient3" r="819.2" spreadMethod="pad">
      <stop offset="0.0" stop-color="#4e0707"/>
      <stop offset="0.16470588235294117" stop-color="#b41010"/>
      <stop offset="0.5294117647058824" stop-color="#e23612"/>
      <stop offset="0.807843137254902" stop-color="#fd5037"/>
      <stop offset="1.0" stop-color="#fd5037" stop-opacity="0.0"/>
    </radialGradient>
    <radialGradient cx="0" cy="0" gradientTransform="matrix(0.0036, 0.0, 0.0, 0.0036, -4.85, -11.5)" gradientUnits="userSpaceOnUse" id="gradient4" r="819.2" spreadMethod="pad">
      <stop offset="0.0" stop-color="#4e0707"/>
      <stop offset="0.16470588235294117" stop-color="#b41010"/>
      <stop offset="0.5294117647058824" stop-color="#e23612"/>
      <stop offset="0.807843137254902" stop-color="#fd5037"/>
      <stop offset="1.0" stop-color="#fd5037" stop-opacity="0.0"/>
    </radialGradient>
  </defs>
</svg>
