<?xml version="1.0" encoding="UTF-8" standalone="no"?>
<svg xmlns:xlink="http://www.w3.org/1999/xlink" height="5.9px" width="5.45px" xmlns="http://www.w3.org/2000/svg">
  <g transform="matrix(1.0, 0.0, 0.0, 1.0, 2.55, 12.55)">
    <path d="M2.6 -8.85 Q2.5 -8.05 2.0 -7.6 0.55 -6.35 -1.15 -7.4 -2.05 -7.95 -2.2 -8.7 -2.6 -10.8 -1.6 -11.9 L-0.1 -12.3 Q1.3 -12.4 1.95 -11.5 2.8 -10.4 2.6 -8.85 M-0.45 -10.75 Q-0.3 -11.1 0.15 -11.15 -0.3 -11.1 -0.45 -10.75 M1.4 -9.9 Q1.6 -9.35 1.25 -8.95 -0.4 -7.2 -1.1 -9.15 -0.4 -7.2 1.25 -8.95 1.6 -9.35 1.4 -9.9" fill="url(#gradient0)" fill-rule="evenodd" stroke="none"/>
    <path d="M2.6 -8.85 Q2.8 -10.4 1.95 -11.5 1.3 -12.4 -0.1 -12.3 L-1.6 -11.9 Q-2.6 -10.8 -2.2 -8.7 -2.05 -7.95 -1.15 -7.4 0.55 -6.35 2.0 -7.6 2.5 -8.05 2.6 -8.85" fill="none" stroke="#000000" stroke-linecap="round" stroke-linejoin="round" stroke-width="0.5"/>
    <path d="M-1.1 -9.15 Q-0.4 -7.2 1.25 -8.95 1.6 -9.35 1.4 -9.9 M0.15 -11.15 Q-0.3 -11.1 -0.45 -10.75" fill="none" stroke="#000000" stroke-linecap="round" stroke-linejoin="round" stroke-width="0.5"/>
  </g>
  <defs>
    <radialGradient cx="0" cy="0" gradientTransform="matrix(0.0043, 0.0, 0.0, 0.0043, 0.0, -9.5)" gradientUnits="userSpaceOnUse" id="gradient0" r="819.2" spreadMethod="pad">
      <stop offset="0.0" stop-color="#bebe4b"/>
      <stop offset="0.5372549019607843" stop-color="#ffffff"/>
    </radialGradient>
  </defs>
</svg>
