<?xml version="1.0" encoding="UTF-8" standalone="no"?>
<svg xmlns:xlink="http://www.w3.org/1999/xlink" height="9.45px" width="19.0px" xmlns="http://www.w3.org/2000/svg">
  <g transform="matrix(1.0, 0.0, 0.0, 1.0, 9.4, 16.4)">
    <path d="M0.8 -13.1 L0.8 -13.15 Q0.9 -13.6 1.3 -13.8 L1.45 -13.85 1.75 -13.9 1.75 -13.95 Q3.15 -13.35 3.95 -12.25 L3.8 -11.95 3.5 -11.8 Q3.05 -11.6 3.1 -11.15 L3.35 -10.95 3.5 -10.95 3.2 -10.85 2.6 -10.4 2.6 -10.35 1.9 -11.4 1.45 -11.9 1.55 -12.05 1.6 -12.25 1.55 -12.4 0.8 -13.1 M4.55 -11.15 L4.65 -10.8 4.7 -10.65 4.55 -10.45 Q4.25 -11.0 3.55 -10.95 L4.55 -11.15" fill="url(#gradient0)" fill-rule="evenodd" stroke="none"/>
    <path d="M3.5 -10.95 L3.35 -10.95 3.1 -11.15 Q3.05 -11.6 3.5 -11.8 L3.8 -11.95 3.95 -12.25 5.05 -13.65 4.85 -13.45 4.9 -13.05 4.95 -12.7 5.5 -12.4 6.05 -12.75 Q5.55 -11.6 4.55 -11.15 L3.55 -10.95 3.5 -10.95" fill="url(#gradient1)" fill-rule="evenodd" stroke="none"/>
    <path d="M2.6 -10.35 L2.6 -10.4 3.2 -10.85 3.5 -10.95 3.55 -10.95 Q4.25 -11.0 4.55 -10.45 L4.65 -10.05 4.7 -9.9 4.4 -9.3 4.25 -8.95 2.6 -9.05 2.5 -9.8 2.6 -10.35" fill="url(#gradient2)" fill-rule="evenodd" stroke="none"/>
    <path d="M-7.2 -14.65 L-7.25 -14.65 Q-8.0 -14.8 -8.15 -15.5 L-8.0 -15.85 -7.9 -16.0 -7.75 -16.05 -7.5 -16.1 -7.5 -16.15 Q-7.05 -16.2 -6.75 -15.8 L-6.65 -15.65 -6.65 -15.3 -6.65 -15.25 -6.75 -14.9 -6.9 -14.75 -7.0 -14.7 -7.2 -14.65" fill="url(#gradient3)" fill-rule="evenodd" stroke="none"/>
    <path d="M-5.5 -12.45 Q-8.05 -12.05 -9.4 -13.75 L-9.25 -14.1 -9.15 -14.25 -9.0 -14.3 -8.75 -14.35 -8.75 -14.4 -7.15 -14.0 -5.15 -13.05 -5.15 -12.95 -5.35 -12.6 -5.5 -12.45" fill="url(#gradient4)" fill-rule="evenodd" stroke="none"/>
    <path d="M-4.2 -11.1 L-4.25 -11.1 Q-4.8 -11.15 -5.15 -11.55 L-5.5 -12.45 -5.35 -12.6 -5.15 -12.95 -5.15 -13.05 -7.15 -14.0 -7.15 -14.2 -7.2 -14.65 -7.0 -14.7 -6.9 -14.75 -6.75 -14.9 -6.65 -15.25 -6.65 -15.3 -6.25 -15.45 Q-4.35 -14.75 -3.55 -13.2 L-3.1 -12.05 -3.05 -11.9 Q-3.35 -11.0 -4.2 -11.1" fill="url(#gradient5)" fill-rule="evenodd" stroke="none"/>
    <path d="M-2.1 -11.35 L-2.35 -10.3 -2.05 -8.75 -2.5 -8.9 -2.75 -8.8 -3.0 -8.65 -3.1 -8.25 -3.05 -7.8 Q-3.55 -7.8 -4.15 -8.3 -4.45 -9.75 -4.2 -11.1 -3.35 -11.0 -3.05 -11.9 L-3.1 -12.05 -3.55 -13.2 -3.25 -13.7 -2.95 -14.05 -2.8 -14.1 -2.5 -14.15 -2.5 -14.2 Q-1.7 -13.75 -1.55 -13.05 L-1.7 -12.95 Q-2.3 -12.4 -2.4 -11.65 L-2.3 -11.5 -2.1 -11.35" fill="url(#gradient6)" fill-rule="evenodd" stroke="none"/>
    <path d="M-2.05 -8.75 L-0.7 -7.65 -0.65 -7.5 -0.8 -7.15 -0.9 -7.0 Q-2.1 -6.8 -3.05 -7.7 L-3.05 -7.8 -3.1 -8.25 -3.0 -8.65 -2.75 -8.8 -2.5 -8.9 -2.05 -8.75" fill="url(#gradient7)" fill-rule="evenodd" stroke="none"/>
    <path d="M5.05 -13.65 L5.1 -13.8 5.3 -14.2 Q5.15 -14.45 5.15 -14.75 L5.1 -15.15 5.2 -15.3 5.35 -15.5 5.75 -15.6 5.75 -15.65 6.6 -14.85 Q5.7 -14.4 5.35 -13.4 5.5 -12.9 6.0 -12.9 L6.2 -12.95 6.25 -12.95 6.05 -12.75 5.5 -12.4 4.95 -12.7 4.9 -13.05 4.85 -13.45 5.05 -13.65" fill="url(#gradient8)" fill-rule="evenodd" stroke="none"/>
    <path d="M6.6 -14.85 L8.05 -15.25 8.1 -15.45 8.2 -15.8 9.0 -16.35 9.0 -16.4 9.45 -16.05 9.6 -15.9 Q9.25 -13.5 6.6 -13.25 L6.25 -12.95 6.2 -12.95 6.0 -12.9 Q5.5 -12.9 5.35 -13.4 5.7 -14.4 6.6 -14.85" fill="url(#gradient9)" fill-rule="evenodd" stroke="none"/>
    <path d="M0.8 -13.1 L1.55 -12.4 1.6 -12.25 1.55 -12.05 1.45 -11.9 1.35 -11.75 0.4 -11.8 0.05 -12.05 -0.25 -12.1 -0.55 -12.05 -1.35 -11.35 Q-1.55 -11.2 -1.75 -11.15 L-2.1 -11.35 -2.3 -11.5 -2.4 -11.65 Q-2.3 -12.4 -1.7 -12.95 L-1.55 -13.05 -1.15 -13.5 -0.75 -13.6 -0.75 -13.65 0.8 -13.1" fill="url(#gradient10)" fill-rule="evenodd" stroke="none"/>
  </g>
  <defs>
    <radialGradient cx="0" cy="0" gradientTransform="matrix(0.0034, 0.0, 0.0, 0.0034, 2.75, -11.95)" gradientUnits="userSpaceOnUse" id="gradient0" r="819.2" spreadMethod="pad">
      <stop offset="0.0" stop-color="#4e0707"/>
      <stop offset="0.16470588235294117" stop-color="#b41010"/>
      <stop offset="0.5294117647058824" stop-color="#e23612"/>
      <stop offset="0.807843137254902" stop-color="#fd5037"/>
      <stop offset="1.0" stop-color="#fd5037" stop-opacity="0.0"/>
    </radialGradient>
    <radialGradient cx="0" cy="0" gradientTransform="matrix(0.0027, 0.0, 0.0, 0.0027, 4.7, -12.55)" gradientUnits="userSpaceOnUse" id="gradient1" r="819.2" spreadMethod="pad">
      <stop offset="0.0" stop-color="#4e0707"/>
      <stop offset="0.16470588235294117" stop-color="#b41010"/>
      <stop offset="0.5294117647058824" stop-color="#e23612"/>
      <stop offset="0.807843137254902" stop-color="#fd5037"/>
      <stop offset="1.0" stop-color="#fd5037" stop-opacity="0.0"/>
    </radialGradient>
    <radialGradient cx="0" cy="0" gradientTransform="matrix(0.0018, 0.0, 0.0, 0.0018, 3.6, -9.8)" gradientUnits="userSpaceOnUse" id="gradient2" r="819.2" spreadMethod="pad">
      <stop offset="0.0" stop-color="#4e0707"/>
      <stop offset="0.16470588235294117" stop-color="#b41010"/>
      <stop offset="0.5294117647058824" stop-color="#e23612"/>
      <stop offset="0.807843137254902" stop-color="#fd5037"/>
      <stop offset="1.0" stop-color="#fd5037" stop-opacity="0.0"/>
    </radialGradient>
    <radialGradient cx="0" cy="0" gradientTransform="matrix(0.0017, 0.0, 0.0, 0.0017, -7.4, -15.4)" gradientUnits="userSpaceOnUse" id="gradient3" r="819.2" spreadMethod="pad">
      <stop offset="0.0" stop-color="#4e0707"/>
      <stop offset="0.16470588235294117" stop-color="#b41010"/>
      <stop offset="0.5294117647058824" stop-color="#e23612"/>
      <stop offset="0.807843137254902" stop-color="#fd5037"/>
      <stop offset="1.0" stop-color="#fd5037" stop-opacity="0.0"/>
    </radialGradient>
    <radialGradient cx="0" cy="0" gradientTransform="matrix(0.0031, 0.0, 0.0, 0.0031, -7.25, -13.4)" gradientUnits="userSpaceOnUse" id="gradient4" r="819.2" spreadMethod="pad">
      <stop offset="0.0" stop-color="#4e0707"/>
      <stop offset="0.16470588235294117" stop-color="#b41010"/>
      <stop offset="0.5294117647058824" stop-color="#e23612"/>
      <stop offset="0.807843137254902" stop-color="#fd5037"/>
      <stop offset="1.0" stop-color="#fd5037" stop-opacity="0.0"/>
    </radialGradient>
    <radialGradient cx="0" cy="0" gradientTransform="matrix(0.0036, 0.0, 0.0, 0.0036, -5.1, -13.25)" gradientUnits="userSpaceOnUse" id="gradient5" r="819.2" spreadMethod="pad">
      <stop offset="0.0" stop-color="#4e0707"/>
      <stop offset="0.16470588235294117" stop-color="#b41010"/>
      <stop offset="0.5294117647058824" stop-color="#e23612"/>
      <stop offset="0.807843137254902" stop-color="#fd5037"/>
      <stop offset="1.0" stop-color="#fd5037" stop-opacity="0.0"/>
    </radialGradient>
    <radialGradient cx="0" cy="0" gradientTransform="matrix(0.0042, 0.0, 0.0, 0.0042, -2.95, -11.0)" gradientUnits="userSpaceOnUse" id="gradient6" r="819.2" spreadMethod="pad">
      <stop offset="0.0" stop-color="#4e0707"/>
      <stop offset="0.16470588235294117" stop-color="#b41010"/>
      <stop offset="0.5294117647058824" stop-color="#e23612"/>
      <stop offset="0.807843137254902" stop-color="#fd5037"/>
      <stop offset="1.0" stop-color="#fd5037" stop-opacity="0.0"/>
    </radialGradient>
    <radialGradient cx="0" cy="0" gradientTransform="matrix(0.002, 0.0, 0.0, 0.002, -1.9, -7.95)" gradientUnits="userSpaceOnUse" id="gradient7" r="819.2" spreadMethod="pad">
      <stop offset="0.0" stop-color="#4e0707"/>
      <stop offset="0.16470588235294117" stop-color="#b41010"/>
      <stop offset="0.5294117647058824" stop-color="#e23612"/>
      <stop offset="0.807843137254902" stop-color="#fd5037"/>
      <stop offset="1.0" stop-color="#fd5037" stop-opacity="0.0"/>
    </radialGradient>
    <radialGradient cx="0" cy="0" gradientTransform="matrix(0.0026, 0.0, 0.0, 0.0026, 5.75, -14.0)" gradientUnits="userSpaceOnUse" id="gradient8" r="819.2" spreadMethod="pad">
      <stop offset="0.0" stop-color="#4e0707"/>
      <stop offset="0.16470588235294117" stop-color="#b41010"/>
      <stop offset="0.5294117647058824" stop-color="#e23612"/>
      <stop offset="0.807843137254902" stop-color="#fd5037"/>
      <stop offset="1.0" stop-color="#fd5037" stop-opacity="0.0"/>
    </radialGradient>
    <radialGradient cx="0" cy="0" gradientTransform="matrix(0.0037, 0.0, 0.0, 0.0037, 7.5, -14.65)" gradientUnits="userSpaceOnUse" id="gradient9" r="819.2" spreadMethod="pad">
      <stop offset="0.0" stop-color="#4e0707"/>
      <stop offset="0.16470588235294117" stop-color="#b41010"/>
      <stop offset="0.5294117647058824" stop-color="#e23612"/>
      <stop offset="0.807843137254902" stop-color="#fd5037"/>
      <stop offset="1.0" stop-color="#fd5037" stop-opacity="0.0"/>
    </radialGradient>
    <radialGradient cx="0" cy="0" gradientTransform="matrix(0.0032, 0.0, 0.0, 0.0032, -0.4, -12.4)" gradientUnits="userSpaceOnUse" id="gradient10" r="819.2" spreadMethod="pad">
      <stop offset="0.0" stop-color="#4e0707"/>
      <stop offset="0.16470588235294117" stop-color="#b41010"/>
      <stop offset="0.5294117647058824" stop-color="#e23612"/>
      <stop offset="0.807843137254902" stop-color="#fd5037"/>
      <stop offset="1.0" stop-color="#fd5037" stop-opacity="0.0"/>
    </radialGradient>
  </defs>
</svg>
