<?xml version="1.0" encoding="UTF-8" standalone="no"?>
<svg xmlns:xlink="http://www.w3.org/1999/xlink" height="17.5px" width="17.5px" xmlns="http://www.w3.org/2000/svg">
  <g transform="matrix(1.0, 0.0, 0.0, 1.0, 8.8, 31.95)">
    <path d="M5.4 -28.7 L5.75 -28.3 Q7.7 -26.15 7.7 -23.2 7.7 -20.0 5.4 -17.75 L5.05 -17.4 Q2.9 -15.45 -0.05 -15.45 -3.05 -15.45 -5.25 -17.5 L-5.55 -17.75 Q-7.8 -20.0 -7.8 -23.2 -7.8 -26.05 -5.95 -28.2 L-5.55 -28.7 Q-3.25 -30.95 -0.05 -30.95 3.15 -30.95 5.4 -28.7" fill="url(#gradient0)" fill-rule="evenodd" stroke="none"/>
    <path d="M5.4 -28.7 L5.75 -28.3 Q7.7 -26.15 7.7 -23.2 7.7 -20.0 5.4 -17.75 L5.05 -17.4 Q2.9 -15.45 -0.05 -15.45 -3.05 -15.45 -5.25 -17.5 L-5.55 -17.75 Q-7.8 -20.0 -7.8 -23.2 -7.8 -26.05 -5.95 -28.2 L-5.55 -28.7 Q-3.25 -30.95 -0.05 -30.95 3.15 -30.95 5.4 -28.7 Z" fill="none" stroke="#000000" stroke-linecap="round" stroke-linejoin="round" stroke-width="2.0"/>
  </g>
  <defs>
    <linearGradient gradientTransform="matrix(0.0095, 0.0, 0.0, 0.0095, -0.05, -23.2)" gradientUnits="userSpaceOnUse" id="gradient0" spreadMethod="pad" x1="-819.2" x2="819.2">
      <stop offset="0.0" stop-color="#ffcc99"/>
      <stop offset="0.6901960784313725" stop-color="#ffe6cf"/>
      <stop offset="0.7411764705882353" stop-color="#ffe6cf"/>
      <stop offset="0.792156862745098" stop-color="#ffe6cf"/>
      <stop offset="0.8352941176470589" stop-color="#ffe7d0"/>
      <stop offset="1.0" stop-color="#ffffff"/>
    </linearGradient>
  </defs>
</svg>
