<?xml version="1.0" encoding="UTF-8" standalone="no"?>
<svg xmlns:xlink="http://www.w3.org/1999/xlink" height="6.4px" width="2.85px" xmlns="http://www.w3.org/2000/svg">
  <g transform="matrix(1.0, 0.0, 0.0, 1.0, 1.55, 5.2)">
    <path d="M-0.25 -4.95 Q0.4 -4.5 0.7 -3.9 0.95 -3.45 0.75 -2.85 0.45 -1.55 0.9 -0.3 1.45 0.95 -0.05 0.95 -1.45 0.95 -1.1 -0.1 -0.75 -1.05 -1.15 -1.95 -1.75 -3.35 -0.25 -4.95" fill="#607d9e" fill-rule="evenodd" stroke="none"/>
    <path d="M-0.25 -4.95 Q-1.75 -3.35 -1.15 -1.95 -0.75 -1.05 -1.1 -0.1 -1.45 0.95 -0.05 0.95 1.45 0.95 0.9 -0.3 0.45 -1.55 0.75 -2.85 0.95 -3.45 0.7 -3.9 0.4 -4.5 -0.25 -4.95 Z" fill="none" stroke="#000000" stroke-linecap="round" stroke-linejoin="round" stroke-width="0.5"/>
  </g>
</svg>
