<?xml version="1.0" encoding="UTF-8" standalone="no"?>
<svg xmlns:xlink="http://www.w3.org/1999/xlink" height="28.65px" width="28.7px" xmlns="http://www.w3.org/2000/svg">
  <g transform="matrix(1.0, 0.0, 0.0, 1.0, 14.35, 14.3)">
    <path d="M6.1 -9.0 L8.15 -11.95 8.05 -10.8 6.7 -7.1 5.35 -3.6 Q4.75 -1.85 3.55 -3.0 2.3 -4.25 3.9 -6.05 L6.1 -9.0 M1.85 -5.8 Q2.4 -4.05 0.75 -4.25 -1.0 -4.5 -0.8 -6.9 L-0.8 -10.55 -0.9 -14.2 -0.25 -13.2 0.85 -9.45 1.85 -5.8 M1.95 4.0 Q3.3 3.15 3.7 4.95 4.3 7.45 4.45 9.95 L4.5 11.75 4.3 14.25 3.35 12.0 2.15 8.6 1.4 5.5 1.3 4.85 Q1.35 4.3 1.95 4.0 M13.3 6.7 Q12.65 6.9 12.1 6.7 L8.5 5.2 Q6.75 4.45 4.95 4.05 2.4 3.3 4.0 2.1 5.35 1.1 7.25 2.35 L10.45 4.35 Q12.2 5.4 13.3 6.7 M4.3 -0.3 Q4.55 -2.1 6.95 -1.85 8.75 -1.7 10.65 -1.8 L14.25 -1.9 Q13.85 -1.5 13.25 -1.25 L9.45 -0.2 5.85 0.8 Q4.05 1.35 4.3 -0.3 M-10.6 -1.7 L-6.85 -1.7 Q-4.8 -1.85 -3.65 -0.5 -3.3 -0.05 -3.75 0.3 L-7.2 0.45 -10.7 -0.7 Q-12.65 -1.15 -14.25 -1.95 L-10.6 -1.7 M-4.6 2.45 L-4.05 2.15 Q-3.55 2.0 -3.0 2.45 -1.75 3.4 -3.25 4.4 -5.4 5.8 -7.7 6.8 L-9.4 7.45 -11.8 8.1 -10.05 6.5 -7.3 4.2 -4.6 2.45 M-9.25 -9.45 L-6.15 -7.1 -3.0 -5.05 Q-0.7 -3.75 -2.55 -3.0 -4.15 -2.35 -5.65 -4.0 L-8.2 -6.75 Q-9.65 -8.25 -10.4 -9.75 L-9.25 -9.45 M-2.6 10.55 L-4.7 13.7 -3.5 10.2 -2.55 6.45 Q-2.2 4.4 -0.55 3.6 -0.1 3.4 0.2 3.95 0.8 5.55 -0.55 7.35 L-2.6 10.55" fill="#ffffff" fill-rule="evenodd" stroke="none"/>
    <path d="M6.1 -9.0 L3.9 -6.05 Q2.3 -4.25 3.55 -3.0 4.75 -1.85 5.35 -3.6 L6.7 -7.1 8.05 -10.8 8.15 -11.95 6.1 -9.0 M1.85 -5.8 L0.85 -9.45 -0.25 -13.2 -0.9 -14.2 -0.8 -10.55 -0.8 -6.9 Q-1.0 -4.5 0.75 -4.25 2.4 -4.05 1.85 -5.8 M4.3 -0.3 Q4.05 1.35 5.85 0.8 L9.45 -0.2 13.25 -1.25 Q13.85 -1.5 14.25 -1.9 L10.65 -1.8 Q8.75 -1.7 6.95 -1.85 4.55 -2.1 4.3 -0.3 M13.3 6.7 Q12.2 5.4 10.45 4.35 L7.25 2.35 Q5.35 1.1 4.0 2.1 2.4 3.3 4.95 4.05 6.75 4.45 8.5 5.2 L12.1 6.7 Q12.65 6.9 13.3 6.7 M1.95 4.0 Q1.35 4.3 1.3 4.85 L1.4 5.5 2.15 8.6 3.35 12.0 4.3 14.25 4.5 11.75 4.45 9.95 Q4.3 7.45 3.7 4.95 3.3 3.15 1.95 4.0 M-10.6 -1.7 L-6.85 -1.7 Q-4.8 -1.85 -3.65 -0.5 -3.3 -0.05 -3.75 0.3 L-7.2 0.45 -10.7 -0.7 Q-12.65 -1.15 -14.25 -1.95 L-10.6 -1.7 M-9.25 -9.45 L-10.4 -9.75 Q-9.65 -8.25 -8.2 -6.75 L-5.65 -4.0 Q-4.15 -2.35 -2.55 -3.0 -0.7 -3.75 -3.0 -5.05 L-6.15 -7.1 -9.25 -9.45 M-4.6 2.45 L-7.3 4.2 -10.05 6.5 -11.8 8.1 -9.4 7.45 -7.7 6.8 Q-5.4 5.8 -3.25 4.4 -1.75 3.4 -3.0 2.45 -3.55 2.0 -4.05 2.15 L-4.6 2.45 M-2.6 10.55 L-4.7 13.7 -3.5 10.2 -2.55 6.45 Q-2.2 4.4 -0.55 3.6 -0.1 3.4 0.2 3.95 0.8 5.55 -0.55 7.35 L-2.6 10.55 Z" fill="none" stroke="#000000" stroke-linecap="round" stroke-linejoin="round" stroke-width="0.25"/>
  </g>
</svg>
