<?xml version="1.0" encoding="UTF-8" standalone="no"?>
<svg xmlns:xlink="http://www.w3.org/1999/xlink" height="46.0px" width="46.5px" xmlns="http://www.w3.org/2000/svg">
  <g transform="matrix(1.0, 0.0, 0.0, 1.0, 23.25, 23.0)">
    <path d="M0.0 -22.5 Q9.4 -22.5 16.05 -15.9 22.75 -9.3 22.75 0.0 22.75 9.3 16.05 15.9 9.4 22.5 0.0 22.5 -9.4 22.5 -16.1 15.9 -22.75 9.3 -22.75 0.0 -22.75 -9.3 -16.1 -15.9 -9.4 -22.5 0.0 -22.5 Z" fill="none" stroke="#000000" stroke-linecap="round" stroke-linejoin="round" stroke-width="1.0"/>
    <path d="M5.25 -14.85 L5.25 -8.85 3.3 -8.85 3.3 -14.85 5.25 -14.85 M7.15 -7.65 L7.3 -3.35 7.3 -3.0 7.3 -2.7 7.3 -2.35 7.3 -2.2 7.3 -0.05 7.3 0.25 7.3 1.25 7.3 1.6 7.3 1.75 7.25 2.35 7.1 5.1 7.0 5.75 7.0 6.15 6.9 6.95 6.8 7.6 6.8 7.65 6.7 8.25 6.55 9.25 6.4 9.8 5.6 12.65 5.45 13.15 5.4 13.2 Q3.85 16.9 1.05 17.0 L1.15 -8.15 7.1 -8.15 7.1 -8.05 7.15 -7.9 7.15 -7.8 7.15 -7.65 M-6.55 -7.8 L-6.55 -7.95 -6.55 -8.15 -0.6 -8.15 -0.5 17.0 Q-3.2 16.9 -4.75 13.45 L-4.85 13.15 -5.0 12.8 -5.95 9.45 -6.1 8.7 -6.15 8.4 -6.2 7.95 -6.2 7.75 -6.25 7.3 -6.4 6.15 -6.45 5.75 -6.55 4.55 -6.7 2.4 -6.7 1.75 -6.7 1.65 -6.7 1.25 -6.75 0.25 -6.75 -0.05 -6.75 -0.55 -6.75 -2.2 -6.75 -2.4 -6.75 -2.7 -6.75 -2.85 -6.75 -3.4 -6.55 -7.8 M-8.5 -20.1 L-5.45 -14.8 -5.45 -8.65 -6.5 -8.65 Q-11.8 -18.05 -8.5 -20.1 M-4.7 -14.85 L-2.75 -14.85 -2.75 -8.85 -4.7 -8.85 -4.7 -14.85 M7.45 8.5 L7.55 7.9 7.55 7.85 Q12.75 17.15 9.5 19.2 L6.2 13.4 6.35 12.9 7.15 10.05 7.3 9.5 7.45 8.5 M8.05 -1.95 L8.05 -2.1 8.05 -2.45 Q21.65 -2.9 21.8 1.5 L8.05 1.5 8.05 0.5 8.05 0.2 8.05 -1.95 M7.4 -8.4 L7.15 -8.4 7.1 -8.55 7.1 -8.65 6.0 -8.65 6.0 -13.55 Q10.2 -19.65 13.05 -18.15 L7.4 -8.4 M-7.5 -2.15 L-7.5 -1.95 -7.5 -0.3 -7.5 0.2 -7.5 0.5 -7.45 1.5 Q-20.9 1.9 -21.05 -2.45 L-7.5 -2.45 -7.5 -2.15 M-6.9 8.65 L-6.85 8.95 -6.7 9.7 -5.75 13.05 -5.6 13.4 Q-9.5 18.55 -12.1 17.15 L-6.95 8.2 -6.9 8.65" fill="#000000" fill-rule="evenodd" stroke="none"/>
  </g>
</svg>
