<?xml version="1.0" encoding="UTF-8" standalone="no"?>
<svg xmlns:xlink="http://www.w3.org/1999/xlink" height="9.25px" width="11.7px" xmlns="http://www.w3.org/2000/svg">
  <g transform="matrix(1.0, 0.0, 0.0, 1.0, 5.7, 5.55)">
    <path d="M3.05 0.5 L3.95 -0.55 Q5.15 -2.65 3.05 -3.55 L3.0 -3.5 Q2.2 -4.55 0.4 -4.2 L-0.2 -4.0 -0.6 -3.55 -0.75 -2.9 Q-1.4 -4.2 -3.25 -3.75 -5.05 -3.25 -4.7 -1.25 L-4.5 -0.9 Q-3.8 -0.4 -3.15 -0.25 L-2.55 0.7 -2.2 1.55 -1.55 1.95 -1.6 2.1 -1.5 2.25 -1.45 2.35 -3.15 1.25 Q-4.45 1.25 -5.3 0.25 L-5.7 -0.7 Q-5.8 -1.65 -5.2 -2.35 -5.5 -4.0 -3.9 -4.3 L-2.6 -4.6 -1.05 -4.85 2.05 -4.85 2.6 -4.7 3.5 -5.35 4.05 -5.55 Q6.8 -5.1 5.65 -2.55 5.2 -1.55 4.4 -0.85 L4.1 -0.6 4.3 -0.5 Q5.9 0.5 4.7 1.9 L3.55 2.65 1.8 2.6 1.95 2.25 2.15 2.1 2.2 1.95 2.25 1.8 2.2 1.65 2.15 1.5 1.95 1.35 2.95 0.6 3.05 0.5 M1.15 -1.5 L1.15 -1.45 -0.35 -1.05 -0.45 -1.15 -0.75 -1.45 -0.7 -1.6 -0.5 -1.9 Q-0.1 -1.45 1.05 -1.6 L1.15 -1.5" fill="url(#gradient0)" fill-rule="evenodd" stroke="none"/>
    <path d="M3.0 -3.5 L3.05 -3.55 Q5.15 -2.65 3.95 -0.55 L3.05 0.5 Q2.1 1.05 0.95 0.05 0.7 -0.2 0.8 -0.55 L1.15 -1.45 1.15 -1.5 3.15 -1.4 Q3.55 -1.7 3.5 -2.2 3.35 -3.05 3.0 -3.5" fill="url(#gradient1)" fill-rule="evenodd" stroke="none"/>
    <path d="M3.05 0.5 L2.95 0.6 1.95 1.35 Q1.5 1.05 1.0 1.1 L0.8 1.15 0.0 1.3 Q-1.25 1.1 -1.55 1.95 L-2.2 1.55 -2.55 0.7 -3.15 -0.25 Q-3.3 -0.7 -3.05 -1.25 -2.75 -1.95 -2.05 -1.95 -1.3 -1.9 -0.75 -1.45 L-0.45 -1.15 -0.35 -1.05 1.15 -1.45 0.8 -0.55 Q0.7 -0.2 0.95 0.05 2.1 1.05 3.05 0.5" fill="url(#gradient2)" fill-rule="evenodd" stroke="none"/>
    <path d="M-0.75 -2.9 L-0.6 -3.55 -0.2 -4.0 0.4 -4.2 Q2.2 -4.55 3.0 -3.5 3.35 -3.05 3.5 -2.2 3.55 -1.7 3.15 -1.4 L1.15 -1.5 1.05 -1.6 Q-0.1 -1.45 -0.5 -1.9 -0.8 -2.25 -0.75 -2.9" fill="url(#gradient3)" fill-rule="evenodd" stroke="none"/>
    <path d="M4.3 -0.5 L4.1 -0.6 4.4 -0.85 4.3 -0.5" fill="url(#gradient4)" fill-rule="evenodd" stroke="none"/>
    <path d="M1.95 1.35 L2.15 1.5 2.2 1.65 2.25 1.8 2.2 1.95 2.15 2.1 1.95 2.25 1.8 2.6 1.45 3.0 1.2 3.45 -2.0 3.25 -1.85 2.8 -1.5 2.5 -1.45 2.4 -1.45 2.35 -1.5 2.25 -1.6 2.1 -1.55 1.95 Q-1.25 1.1 0.0 1.3 L0.8 1.15 1.0 1.1 Q1.5 1.05 1.95 1.35" fill="url(#gradient5)" fill-rule="evenodd" stroke="none"/>
    <path d="M-3.15 -0.25 Q-3.8 -0.4 -4.5 -0.9 L-4.7 -1.25 Q-5.05 -3.25 -3.25 -3.75 -1.4 -4.2 -0.75 -2.9 -0.8 -2.25 -0.5 -1.9 L-0.7 -1.6 -0.75 -1.45 Q-1.3 -1.9 -2.05 -1.95 -2.75 -1.95 -3.05 -1.25 -3.3 -0.7 -3.15 -0.25" fill="url(#gradient6)" fill-rule="evenodd" stroke="none"/>
  </g>
  <defs>
    <radialGradient cx="0" cy="0" gradientTransform="matrix(0.0084, 0.0, 0.0, 0.0084, 0.15, -1.4)" gradientUnits="userSpaceOnUse" id="gradient0" r="819.2" spreadMethod="pad">
      <stop offset="0.0" stop-color="#4e0707"/>
      <stop offset="0.16470588235294117" stop-color="#b41010"/>
      <stop offset="0.5294117647058824" stop-color="#e23612"/>
      <stop offset="0.807843137254902" stop-color="#fd5037"/>
      <stop offset="1.0" stop-color="#fd5037" stop-opacity="0.0"/>
    </radialGradient>
    <radialGradient cx="0" cy="0" gradientTransform="matrix(0.0033, 0.0, 0.0, 0.0033, 2.6, -1.45)" gradientUnits="userSpaceOnUse" id="gradient1" r="819.2" spreadMethod="pad">
      <stop offset="0.0" stop-color="#4e0707"/>
      <stop offset="0.16470588235294117" stop-color="#b41010"/>
      <stop offset="0.5294117647058824" stop-color="#e23612"/>
      <stop offset="0.807843137254902" stop-color="#fd5037"/>
      <stop offset="1.0" stop-color="#fd5037" stop-opacity="0.0"/>
    </radialGradient>
    <radialGradient cx="0" cy="0" gradientTransform="matrix(0.0045, 0.0, 0.0, 0.0045, 0.0, 0.05)" gradientUnits="userSpaceOnUse" id="gradient2" r="819.2" spreadMethod="pad">
      <stop offset="0.0" stop-color="#4e0707"/>
      <stop offset="0.16470588235294117" stop-color="#b41010"/>
      <stop offset="0.5294117647058824" stop-color="#e23612"/>
      <stop offset="0.807843137254902" stop-color="#fd5037"/>
      <stop offset="1.0" stop-color="#fd5037" stop-opacity="0.0"/>
    </radialGradient>
    <radialGradient cx="0" cy="0" gradientTransform="matrix(0.0036, 0.0, 0.0, 0.0036, 1.35, -2.65)" gradientUnits="userSpaceOnUse" id="gradient3" r="819.2" spreadMethod="pad">
      <stop offset="0.0" stop-color="#4e0707"/>
      <stop offset="0.16470588235294117" stop-color="#b41010"/>
      <stop offset="0.5294117647058824" stop-color="#e23612"/>
      <stop offset="0.807843137254902" stop-color="#fd5037"/>
      <stop offset="1.0" stop-color="#fd5037" stop-opacity="0.0"/>
    </radialGradient>
    <radialGradient cx="0" cy="0" gradientTransform="matrix(0.0062, 0.0, 0.0, 0.0062, 0.2, -1.85)" gradientUnits="userSpaceOnUse" id="gradient4" r="819.2" spreadMethod="pad">
      <stop offset="0.0" stop-color="#4e0707"/>
      <stop offset="0.16470588235294117" stop-color="#b41010"/>
      <stop offset="0.5294117647058824" stop-color="#e23612"/>
      <stop offset="0.807843137254902" stop-color="#fd5037"/>
      <stop offset="1.0" stop-color="#fd5037" stop-opacity="0.0"/>
    </radialGradient>
    <radialGradient cx="0" cy="0" gradientTransform="matrix(0.0032, 0.0, 0.0, 0.0032, 0.1, 2.4)" gradientUnits="userSpaceOnUse" id="gradient5" r="819.2" spreadMethod="pad">
      <stop offset="0.0" stop-color="#4e0707"/>
      <stop offset="0.16470588235294117" stop-color="#b41010"/>
      <stop offset="0.5294117647058824" stop-color="#e23612"/>
      <stop offset="0.807843137254902" stop-color="#fd5037"/>
      <stop offset="1.0" stop-color="#fd5037" stop-opacity="0.0"/>
    </radialGradient>
    <radialGradient cx="0" cy="0" gradientTransform="matrix(0.003, 0.0, 0.0, 0.003, -2.65, -2.05)" gradientUnits="userSpaceOnUse" id="gradient6" r="819.2" spreadMethod="pad">
      <stop offset="0.0" stop-color="#4e0707"/>
      <stop offset="0.16470588235294117" stop-color="#b41010"/>
      <stop offset="0.5294117647058824" stop-color="#e23612"/>
      <stop offset="0.807843137254902" stop-color="#fd5037"/>
      <stop offset="1.0" stop-color="#fd5037" stop-opacity="0.0"/>
    </radialGradient>
  </defs>
</svg>
