<?xml version="1.0" encoding="UTF-8" standalone="no"?>
<svg xmlns:xlink="http://www.w3.org/1999/xlink" height="13.5px" width="34.0px" xmlns="http://www.w3.org/2000/svg">
  <g transform="matrix(1.0, 0.0, 0.0, 1.0, 16.5, 10.6)">
    <path d="M11.8 -7.95 Q16.5 -6.25 16.5 -3.85 16.5 -1.45 11.8 0.2 7.15 1.9 0.5 1.9 -6.15 1.9 -10.85 0.2 -15.5 -1.45 -15.5 -3.85 -15.5 -6.25 -10.85 -7.95 -6.15 -9.6 0.5 -9.6 7.15 -9.6 11.8 -7.95" fill="url(#gradient0)" fill-rule="evenodd" stroke="none"/>
    <path d="M11.8 -7.95 Q16.5 -6.25 16.5 -3.85 16.5 -1.45 11.8 0.2 7.15 1.9 0.5 1.9 -6.15 1.9 -10.85 0.2 -15.5 -1.45 -15.5 -3.85 -15.5 -6.25 -10.85 -7.95 -6.15 -9.6 0.5 -9.6 7.15 -9.6 11.8 -7.95 Z" fill="none" stroke="#000000" stroke-linecap="round" stroke-linejoin="round" stroke-width="2.0"/>
    <path d="M3.05 -1.3 L3.95 -2.35 Q5.15 -4.45 3.05 -5.35 L3.0 -5.3 Q2.2 -6.35 0.4 -6.0 L-0.2 -5.8 -0.6 -5.35 -0.75 -4.7 Q-1.4 -6.0 -3.25 -5.55 -5.05 -5.05 -4.7 -3.05 L-4.5 -2.7 Q-3.8 -2.2 -3.15 -2.05 -3.05 -1.55 -2.55 -1.1 -2.6 -0.6 -2.2 -0.25 L-1.55 0.15 -1.6 0.3 -1.5 0.45 -1.45 0.55 -3.15 -0.55 Q-4.45 -0.55 -5.3 -1.55 L-5.7 -2.5 Q-5.8 -3.45 -5.2 -4.15 -5.5 -5.8 -3.9 -6.1 L-2.6 -6.4 -1.05 -6.65 2.05 -6.65 2.6 -6.5 3.5 -7.15 4.05 -7.35 Q6.8 -6.9 5.65 -4.35 5.2 -3.35 4.4 -2.65 L4.1 -2.4 4.3 -2.3 Q5.9 -1.3 4.7 0.1 L3.55 0.85 1.8 0.8 1.95 0.45 2.15 0.3 2.2 0.15 2.25 0.0 2.2 -0.15 2.15 -0.3 1.95 -0.45 2.95 -1.2 3.05 -1.3 M1.15 -3.3 L1.15 -3.25 -0.35 -2.85 -0.45 -2.95 -0.75 -3.25 -0.7 -3.4 -0.5 -3.7 Q-0.1 -3.25 1.05 -3.4 L1.15 -3.3" fill="url(#gradient1)" fill-rule="evenodd" stroke="none"/>
    <path d="M3.0 -5.3 L3.05 -5.35 Q5.15 -4.45 3.95 -2.35 L3.05 -1.3 Q2.1 -0.75 0.95 -1.75 0.7 -2.0 0.8 -2.35 L1.15 -3.25 1.15 -3.3 3.15 -3.2 Q3.55 -3.5 3.5 -4.0 3.35 -4.85 3.0 -5.3" fill="url(#gradient2)" fill-rule="evenodd" stroke="none"/>
    <path d="M3.05 -1.3 L2.95 -1.2 1.95 -0.45 1.0 -0.7 0.8 -0.65 0.0 -0.5 Q-1.25 -0.7 -1.55 0.15 L-2.2 -0.25 Q-2.6 -0.6 -2.55 -1.1 -3.05 -1.55 -3.15 -2.05 -3.3 -2.5 -3.05 -3.05 -2.75 -3.75 -2.05 -3.75 -1.3 -3.7 -0.75 -3.25 L-0.45 -2.95 -0.35 -2.85 1.15 -3.25 0.8 -2.35 Q0.7 -2.0 0.95 -1.75 2.1 -0.75 3.05 -1.3" fill="url(#gradient3)" fill-rule="evenodd" stroke="none"/>
    <path d="M-0.75 -4.7 L-0.6 -5.35 -0.2 -5.8 0.4 -6.0 Q2.2 -6.35 3.0 -5.3 3.35 -4.85 3.5 -4.0 3.55 -3.5 3.15 -3.2 L1.15 -3.3 1.05 -3.4 Q-0.1 -3.25 -0.5 -3.7 -0.8 -4.05 -0.75 -4.7" fill="url(#gradient4)" fill-rule="evenodd" stroke="none"/>
    <path d="M4.3 -2.3 L4.1 -2.4 4.4 -2.65 4.3 -2.3" fill="url(#gradient5)" fill-rule="evenodd" stroke="none"/>
    <path d="M1.95 -0.45 L2.15 -0.3 2.2 -0.15 2.25 0.0 2.2 0.15 2.15 0.3 1.95 0.45 1.8 0.8 1.45 1.2 1.2 1.65 -2.0 1.45 -1.85 1.0 -1.5 0.7 -1.45 0.6 -1.45 0.55 -1.5 0.45 -1.6 0.3 -1.55 0.15 Q-1.25 -0.7 0.0 -0.5 L0.8 -0.65 1.0 -0.7 1.95 -0.45" fill="url(#gradient6)" fill-rule="evenodd" stroke="none"/>
    <path d="M-3.15 -2.05 Q-3.8 -2.2 -4.5 -2.7 L-4.7 -3.05 Q-5.05 -5.05 -3.25 -5.55 -1.4 -6.0 -0.75 -4.7 -0.8 -4.05 -0.5 -3.7 L-0.7 -3.4 -0.75 -3.25 Q-1.3 -3.7 -2.05 -3.75 -2.75 -3.75 -3.05 -3.05 -3.3 -2.5 -3.15 -2.05" fill="url(#gradient7)" fill-rule="evenodd" stroke="none"/>
  </g>
  <defs>
    <radialGradient cx="0" cy="0" gradientTransform="matrix(0.0257, 0.0, 0.0, 0.0196, -6.0, -4.35)" gradientUnits="userSpaceOnUse" id="gradient0" r="819.2" spreadMethod="pad">
      <stop offset="0.3843137254901961" stop-color="#0066ff"/>
      <stop offset="1.0" stop-color="#ffffff"/>
    </radialGradient>
    <radialGradient cx="0" cy="0" gradientTransform="matrix(0.0084, 0.0, 0.0, 0.0084, 0.15, -3.2)" gradientUnits="userSpaceOnUse" id="gradient1" r="819.2" spreadMethod="pad">
      <stop offset="0.0" stop-color="#4e0707"/>
      <stop offset="0.16470588235294117" stop-color="#b41010"/>
      <stop offset="0.5294117647058824" stop-color="#e23612"/>
      <stop offset="0.807843137254902" stop-color="#fd5037"/>
      <stop offset="1.0" stop-color="#fd5037" stop-opacity="0.0"/>
    </radialGradient>
    <radialGradient cx="0" cy="0" gradientTransform="matrix(0.0033, 0.0, 0.0, 0.0033, 2.6, -3.25)" gradientUnits="userSpaceOnUse" id="gradient2" r="819.2" spreadMethod="pad">
      <stop offset="0.0" stop-color="#4e0707"/>
      <stop offset="0.16470588235294117" stop-color="#b41010"/>
      <stop offset="0.5294117647058824" stop-color="#e23612"/>
      <stop offset="0.807843137254902" stop-color="#fd5037"/>
      <stop offset="1.0" stop-color="#fd5037" stop-opacity="0.0"/>
    </radialGradient>
    <radialGradient cx="0" cy="0" gradientTransform="matrix(0.0045, 0.0, 0.0, 0.0045, 0.0, -1.75)" gradientUnits="userSpaceOnUse" id="gradient3" r="819.2" spreadMethod="pad">
      <stop offset="0.0" stop-color="#4e0707"/>
      <stop offset="0.16470588235294117" stop-color="#b41010"/>
      <stop offset="0.5294117647058824" stop-color="#e23612"/>
      <stop offset="0.807843137254902" stop-color="#fd5037"/>
      <stop offset="1.0" stop-color="#fd5037" stop-opacity="0.0"/>
    </radialGradient>
    <radialGradient cx="0" cy="0" gradientTransform="matrix(0.0036, 0.0, 0.0, 0.0036, 1.35, -4.45)" gradientUnits="userSpaceOnUse" id="gradient4" r="819.2" spreadMethod="pad">
      <stop offset="0.0" stop-color="#4e0707"/>
      <stop offset="0.16470588235294117" stop-color="#b41010"/>
      <stop offset="0.5294117647058824" stop-color="#e23612"/>
      <stop offset="0.807843137254902" stop-color="#fd5037"/>
      <stop offset="1.0" stop-color="#fd5037" stop-opacity="0.0"/>
    </radialGradient>
    <radialGradient cx="0" cy="0" gradientTransform="matrix(0.0062, 0.0, 0.0, 0.0062, 0.2, -3.65)" gradientUnits="userSpaceOnUse" id="gradient5" r="819.2" spreadMethod="pad">
      <stop offset="0.0" stop-color="#4e0707"/>
      <stop offset="0.16470588235294117" stop-color="#b41010"/>
      <stop offset="0.5294117647058824" stop-color="#e23612"/>
      <stop offset="0.807843137254902" stop-color="#fd5037"/>
      <stop offset="1.0" stop-color="#fd5037" stop-opacity="0.0"/>
    </radialGradient>
    <radialGradient cx="0" cy="0" gradientTransform="matrix(0.0032, 0.0, 0.0, 0.0032, 0.1, 0.6)" gradientUnits="userSpaceOnUse" id="gradient6" r="819.2" spreadMethod="pad">
      <stop offset="0.0" stop-color="#4e0707"/>
      <stop offset="0.16470588235294117" stop-color="#b41010"/>
      <stop offset="0.5294117647058824" stop-color="#e23612"/>
      <stop offset="0.807843137254902" stop-color="#fd5037"/>
      <stop offset="1.0" stop-color="#fd5037" stop-opacity="0.0"/>
    </radialGradient>
    <radialGradient cx="0" cy="0" gradientTransform="matrix(0.003, 0.0, 0.0, 0.003, -2.65, -3.85)" gradientUnits="userSpaceOnUse" id="gradient7" r="819.2" spreadMethod="pad">
      <stop offset="0.0" stop-color="#4e0707"/>
      <stop offset="0.16470588235294117" stop-color="#b41010"/>
      <stop offset="0.5294117647058824" stop-color="#e23612"/>
      <stop offset="0.807843137254902" stop-color="#fd5037"/>
      <stop offset="1.0" stop-color="#fd5037" stop-opacity="0.0"/>
    </radialGradient>
  </defs>
</svg>
