<?xml version="1.0" encoding="UTF-8" standalone="no"?>
<svg xmlns:xlink="http://www.w3.org/1999/xlink" height="16.25px" width="22.45px" xmlns="http://www.w3.org/2000/svg">
  <g transform="matrix(1.0, 0.0, 0.0, 1.0, 8.85, 9.6)">
    <path d="M6.5 -4.0 L6.4 -2.95 6.35 -2.8 5.85 -2.85 5.8 -2.95 5.35 -3.35 Q6.2 -3.4 6.5 -4.0 M4.8 -1.7 L4.05 -1.5 Q5.65 -0.9 5.15 0.85 4.95 1.5 4.25 1.4 L2.75 0.9 2.8 0.7 2.65 -0.1 Q3.2 -0.35 3.3 -1.05 3.65 -1.1 3.8 -1.4 4.2 -2.0 3.85 -2.6 L4.1 -3.25 4.7 -3.5 5.05 -3.35 4.75 -3.25 4.5 -3.0 Q4.3 -2.15 4.8 -1.7 M-0.7 0.85 L-1.5 0.8 -2.65 0.7 -3.75 0.35 Q-4.35 -0.05 -4.1 -0.75 -3.55 -2.0 -2.2 -2.4 -2.95 -2.4 -3.4 -3.1 L-3.4 -3.15 -3.35 -3.2 Q-2.75 -2.6 -2.0 -2.95 L-0.95 -3.0 -0.85 -2.95 -0.7 -2.75 -0.6 -2.5 Q-0.5 -2.35 -0.55 -2.2 L-0.75 -1.75 Q-0.85 -0.95 -0.3 -0.5 L-0.3 0.6 -0.7 0.85 M-3.95 -6.2 L-4.1 -6.6 Q-4.3 -7.5 -3.4 -7.5 -2.8 -7.55 -2.3 -7.15 L-1.95 -6.95 -1.8 -7.0 Q-0.8 -8.15 0.2 -7.0 L0.55 -6.65 Q0.95 -8.1 2.35 -7.55 L2.55 -7.45 2.85 -7.9 Q3.05 -8.35 3.5 -8.4 5.4 -8.6 5.35 -6.9 L5.3 -6.55 Q3.9 -6.55 3.45 -5.4 L1.85 -6.4 1.55 -6.3 Q1.15 -6.15 1.1 -5.8 L-1.75 -5.6 -1.95 -5.55 Q-2.35 -5.9 -2.9 -6.1 L-3.95 -6.2 M1.25 -3.8 L1.45 -3.35 1.25 -3.3 1.25 -3.4 1.2 -3.8 1.25 -3.8" fill="url(#gradient0)" fill-rule="evenodd" stroke="none"/>
    <path d="M-3.4 -3.15 L-6.1 -3.0 -6.45 -3.1 Q-7.55 -3.4 -7.45 -4.45 L-7.5 -4.55 -7.7 -4.7 -7.7 -4.75 Q-8.8 -4.85 -8.85 -5.85 -8.85 -6.55 -8.15 -6.65 L-5.05 -5.75 -4.9 -5.75 Q-4.5 -6.15 -3.95 -6.2 L-2.9 -6.1 Q-2.35 -5.9 -1.95 -5.55 -3.1 -5.35 -3.2 -4.2 L-3.05 -3.7 -2.0 -2.95 Q-2.75 -2.6 -3.35 -3.2 L-3.4 -3.15" fill="url(#gradient1)" fill-rule="evenodd" stroke="none"/>
    <path d="M5.3 -6.55 L5.45 -6.55 5.9 -6.65 6.3 -6.8 Q6.65 -8.65 8.5 -9.4 L9.1 -9.55 Q10.3 -9.8 10.5 -8.75 10.6 -8.35 10.2 -8.1 L9.75 -7.95 9.1 -7.5 8.35 -7.05 Q8.65 -5.85 7.75 -5.35 L6.6 -4.7 6.5 -4.0 Q6.2 -3.4 5.35 -3.35 L5.1 -3.4 5.05 -3.35 4.7 -3.5 4.1 -3.25 4.2 -3.65 Q4.35 -4.15 4.1 -4.6 L3.45 -5.4 Q3.9 -6.55 5.3 -6.55" fill="url(#gradient2)" fill-rule="evenodd" stroke="none"/>
    <path d="M6.35 -2.8 L8.25 -2.35 8.55 -2.35 Q9.35 -3.75 11.05 -2.9 11.75 -2.5 11.6 -1.7 13.5 -1.3 13.6 0.4 L13.35 0.75 Q12.2 1.1 11.6 0.0 10.35 0.2 10.1 -0.85 L10.05 -1.4 Q8.8 -0.15 6.9 -0.95 L5.7 -1.3 Q5.1 -1.4 4.8 -1.7 4.3 -2.15 4.5 -3.0 L4.75 -3.25 5.05 -3.35 5.1 -3.4 5.35 -3.35 5.8 -2.95 5.85 -2.85 6.35 -2.8" fill="url(#gradient3)" fill-rule="evenodd" stroke="none"/>
    <path d="M0.75 2.05 L0.35 2.2 0.25 2.25 Q0.5 3.35 -0.5 3.7 -1.65 4.05 -2.35 3.25 L-2.4 2.6 Q-2.1 2.05 -1.45 2.05 -1.35 1.25 -0.7 0.85 L-0.3 0.6 -0.3 -0.5 -0.25 -0.5 0.45 -0.15 0.8 0.7 Q0.55 0.9 0.55 1.2 L0.6 1.75 0.75 2.05" fill="url(#gradient4)" fill-rule="evenodd" stroke="none"/>
    <path d="M2.75 0.9 L2.7 1.1 Q3.4 1.0 3.8 1.7 L3.85 1.75 5.2 2.05 Q5.45 1.75 5.85 1.65 6.8 1.5 7.65 1.9 8.75 2.5 8.85 3.7 L9.15 3.95 9.25 4.25 Q10.7 5.25 9.5 6.55 L9.05 6.65 Q8.5 6.45 8.45 5.85 L7.9 5.25 7.8 5.0 Q7.4 4.65 7.35 4.15 L7.3 3.75 7.0 3.5 6.85 3.35 6.25 3.35 5.6 3.75 3.85 3.5 Q2.9 3.6 2.45 2.85 1.5 3.05 0.9 2.35 L0.75 2.05 0.6 1.75 0.55 1.2 Q0.55 0.9 0.8 0.7 L0.45 -0.15 2.35 -0.05 2.65 -0.1 2.8 0.7 2.75 0.9" fill="url(#gradient5)" fill-rule="evenodd" stroke="none"/>
    <path d="M3.45 -5.4 L4.1 -4.6 Q4.35 -4.15 4.2 -3.65 L4.1 -3.25 3.85 -2.6 Q4.2 -2.0 3.8 -1.4 3.65 -1.1 3.3 -1.05 3.2 -0.35 2.65 -0.1 L2.35 -0.05 0.45 -0.15 -0.25 -0.5 -0.3 -0.5 Q-0.85 -0.95 -0.75 -1.75 L-0.55 -2.2 Q-0.5 -2.35 -0.6 -2.5 L-0.7 -2.75 -0.85 -2.95 -0.95 -3.0 -2.0 -2.95 -3.05 -3.7 -3.2 -4.2 Q-3.1 -5.35 -1.95 -5.55 L-1.75 -5.6 1.1 -5.8 Q1.15 -6.15 1.55 -6.3 L1.85 -6.4 3.45 -5.4 M1.25 -3.8 L1.2 -3.8 1.25 -3.4 1.25 -3.3 1.45 -3.35 1.25 -3.8" fill="url(#gradient6)" fill-rule="evenodd" stroke="none"/>
  </g>
  <defs>
    <radialGradient cx="0" cy="0" gradientTransform="matrix(0.0082, 0.0, 0.0, 0.0082, 1.15, -3.5)" gradientUnits="userSpaceOnUse" id="gradient0" r="819.2" spreadMethod="pad">
      <stop offset="0.0" stop-color="#4e0707"/>
      <stop offset="0.16470588235294117" stop-color="#b41010"/>
      <stop offset="0.5294117647058824" stop-color="#e23612"/>
      <stop offset="0.807843137254902" stop-color="#fd5037"/>
      <stop offset="1.0" stop-color="#fd5037" stop-opacity="0.0"/>
    </radialGradient>
    <radialGradient cx="0" cy="0" gradientTransform="matrix(0.0056, 0.0, 0.0, 0.0056, -5.0, -4.75)" gradientUnits="userSpaceOnUse" id="gradient1" r="819.2" spreadMethod="pad">
      <stop offset="0.0" stop-color="#4e0707"/>
      <stop offset="0.16470588235294117" stop-color="#b41010"/>
      <stop offset="0.5294117647058824" stop-color="#e23612"/>
      <stop offset="0.807843137254902" stop-color="#fd5037"/>
      <stop offset="1.0" stop-color="#fd5037" stop-opacity="0.0"/>
    </radialGradient>
    <radialGradient cx="0" cy="0" gradientTransform="matrix(0.0063, 0.0, 0.0, 0.0063, 6.55, -6.35)" gradientUnits="userSpaceOnUse" id="gradient2" r="819.2" spreadMethod="pad">
      <stop offset="0.0" stop-color="#4e0707"/>
      <stop offset="0.16470588235294117" stop-color="#b41010"/>
      <stop offset="0.5294117647058824" stop-color="#e23612"/>
      <stop offset="0.807843137254902" stop-color="#fd5037"/>
      <stop offset="1.0" stop-color="#fd5037" stop-opacity="0.0"/>
    </radialGradient>
    <radialGradient cx="0" cy="0" gradientTransform="matrix(0.0065, 0.0, 0.0, 0.0065, 9.0, -1.3)" gradientUnits="userSpaceOnUse" id="gradient3" r="819.2" spreadMethod="pad">
      <stop offset="0.0" stop-color="#4e0707"/>
      <stop offset="0.16470588235294117" stop-color="#b41010"/>
      <stop offset="0.5294117647058824" stop-color="#e23612"/>
      <stop offset="0.807843137254902" stop-color="#fd5037"/>
      <stop offset="1.0" stop-color="#fd5037" stop-opacity="0.0"/>
    </radialGradient>
    <radialGradient cx="0" cy="0" gradientTransform="matrix(0.0041, 0.0, 0.0, 0.0041, -0.45, 1.1)" gradientUnits="userSpaceOnUse" id="gradient4" r="819.2" spreadMethod="pad">
      <stop offset="0.0" stop-color="#4e0707"/>
      <stop offset="0.16470588235294117" stop-color="#b41010"/>
      <stop offset="0.5294117647058824" stop-color="#e23612"/>
      <stop offset="0.807843137254902" stop-color="#fd5037"/>
      <stop offset="1.0" stop-color="#fd5037" stop-opacity="0.0"/>
    </radialGradient>
    <radialGradient cx="0" cy="0" gradientTransform="matrix(0.0076, 0.0, 0.0, 0.0076, 5.25, 2.55)" gradientUnits="userSpaceOnUse" id="gradient5" r="819.2" spreadMethod="pad">
      <stop offset="0.0" stop-color="#4e0707"/>
      <stop offset="0.16470588235294117" stop-color="#b41010"/>
      <stop offset="0.5294117647058824" stop-color="#e23612"/>
      <stop offset="0.807843137254902" stop-color="#fd5037"/>
      <stop offset="1.0" stop-color="#fd5037" stop-opacity="0.0"/>
    </radialGradient>
    <radialGradient cx="0" cy="0" gradientTransform="matrix(0.0056, 0.0, 0.0, 0.0056, 0.55, -3.2)" gradientUnits="userSpaceOnUse" id="gradient6" r="819.2" spreadMethod="pad">
      <stop offset="0.0" stop-color="#4e0707"/>
      <stop offset="0.16470588235294117" stop-color="#b41010"/>
      <stop offset="0.5294117647058824" stop-color="#e23612"/>
      <stop offset="0.807843137254902" stop-color="#fd5037"/>
      <stop offset="1.0" stop-color="#fd5037" stop-opacity="0.0"/>
    </radialGradient>
  </defs>
</svg>
