<?xml version="1.0" encoding="UTF-8" standalone="no"?>
<svg xmlns:xlink="http://www.w3.org/1999/xlink" height="93.95px" width="73.1px" xmlns="http://www.w3.org/2000/svg">
  <g transform="matrix(1.0, 0.0, 0.0, 1.0, 36.55, 46.95)">
    <path d="M27.15 -40.35 L27.25 -40.4 Q27.8 -40.5 27.85 -39.95 L28.05 -39.45 29.55 -37.25 30.15 -36.4 30.15 -36.0 30.05 -35.8 29.3 -34.85 28.9 -34.55 28.55 -34.5 28.55 -34.45 Q28.75 -33.4 27.75 -33.35 L27.5 -33.25 27.15 -33.2 Q27.1 -32.35 26.5 -31.95 L26.3 -31.7 25.8 -31.4 Q25.9 -30.7 25.25 -30.6 L25.0 -30.55 Q24.5 -30.55 24.25 -30.2 24.3 -29.65 24.65 -29.35 L24.65 -29.0 Q24.5 -28.7 24.0 -28.6 L23.75 -28.55 23.45 -28.6 Q24.55 -27.75 23.95 -26.7 L23.75 -26.55 22.75 -26.45 21.7 -26.65 Q20.7 -27.1 19.85 -28.25 19.05 -29.4 18.0 -29.95 L17.75 -30.1 17.55 -30.25 Q17.35 -30.45 17.3 -30.7 L17.35 -31.15 18.3 -32.15 18.7 -32.5 20.0 -32.45 20.05 -32.4 Q20.0 -34.3 21.7 -33.8 L22.15 -33.55 Q21.6 -34.8 22.5 -35.2 L23.0 -35.35 23.55 -35.3 Q23.3 -35.6 23.35 -36.2 L23.35 -36.45 Q23.3 -37.0 24.0 -37.05 L24.25 -37.05 24.5 -37.0 24.8 -36.85 Q24.35 -37.95 25.3 -38.35 L25.75 -38.45 26.25 -38.4 Q25.6 -39.75 26.5 -40.15 L27.15 -40.35 M23.55 -35.3 Q23.95 -35.25 24.15 -34.8 L24.2 -34.75 24.4 -34.35 24.8 -33.7 25.4 -32.4 25.5 -32.2 25.7 -31.8 25.5 -32.2 25.4 -32.4 24.8 -33.7 24.4 -34.35 24.2 -34.75 24.15 -34.8 Q23.95 -35.25 23.55 -35.3 M27.15 -33.2 L27.05 -33.95 26.8 -34.45 26.1 -35.5 25.45 -36.3 24.8 -36.85 25.45 -36.3 26.1 -35.5 26.8 -34.45 27.05 -33.95 27.15 -33.2 M26.25 -38.4 L26.5 -38.3 26.85 -37.7 26.95 -37.45 28.4 -34.9 28.45 -34.75 28.55 -34.5 28.45 -34.75 28.4 -34.9 26.95 -37.45 26.85 -37.7 26.5 -38.3 26.25 -38.4 M25.7 -31.8 Q25.55 -31.45 25.8 -31.4 L25.7 -31.7 25.7 -31.8 M20.05 -32.4 L20.4 -32.15 20.7 -31.75 20.9 -31.4 Q21.35 -30.6 21.95 -30.15 L23.05 -28.95 23.1 -28.9 23.25 -28.75 23.45 -28.6 23.25 -28.75 23.1 -28.9 23.05 -28.95 21.95 -30.15 Q21.35 -30.6 20.9 -31.4 L20.7 -31.75 20.4 -32.15 20.05 -32.4 M24.25 -30.2 L24.25 -30.45 24.15 -30.9 22.55 -33.15 22.25 -33.45 22.15 -33.55 22.25 -33.45 22.55 -33.15 24.15 -30.9 24.25 -30.45 24.25 -30.2" fill="#b27838" fill-rule="evenodd" stroke="none"/>
    <path d="M27.15 -40.35 L27.35 -41.75 Q27.7 -45.05 30.25 -46.45 29.15 -41.65 33.9 -42.55 38.25 -36.65 33.75 -36.65 31.9 -36.65 30.05 -35.8 L30.15 -36.0 30.15 -36.4 29.55 -37.25 28.05 -39.45 27.85 -39.95 Q27.8 -40.5 27.25 -40.4 L27.15 -40.35 M22.75 -26.45 L22.85 -25.7 Q22.95 -25.0 23.45 -24.35 23.75 -23.15 22.8 -22.4 20.15 -20.25 18.9 -17.2 L18.4 -16.2 18.1 -15.15 Q15.85 -14.1 13.95 -15.6 14.4 -14.6 15.8 -13.85 16.85 -13.35 17.95 -13.6 L18.1 -11.85 18.65 -7.7 Q19.1 -4.15 16.6 -2.0 14.0 0.2 11.1 1.25 11.45 0.4 11.3 -0.6 10.85 -3.15 9.35 -5.1 7.9 -7.15 7.95 -9.25 L6.25 -8.05 3.45 -5.2 2.9 -4.45 Q1.8 -6.6 -0.7 -6.25 L-3.5 -5.45 -0.3 -5.2 Q1.0 -4.75 1.6 -3.65 L1.85 -3.1 -0.85 -3.6 -2.75 -3.55 Q-1.2 -3.25 -0.1 -2.35 L0.6 -1.45 Q-1.35 -2.3 -3.55 -2.2 L-5.9 -1.55 Q-4.0 -1.45 -2.3 -0.8 -1.45 -0.5 -1.0 0.45 L-1.0 0.5 -1.05 0.55 -2.9 0.5 -3.75 0.85 Q-3.0 0.65 -2.45 1.1 L-2.0 1.6 -5.65 2.35 Q-6.65 2.55 -7.2 3.4 -5.55 2.6 -3.85 2.95 -3.3 3.1 -2.9 3.4 L-3.9 5.0 Q-5.1 6.8 -5.55 9.7 -6.15 12.6 -6.2 15.95 -6.35 21.35 -5.45 25.75 L-8.6 25.45 -9.9 25.7 -11.2 21.85 Q-11.85 19.7 -11.25 17.65 L-11.2 16.95 Q-11.75 18.55 -12.1 20.65 -12.35 21.85 -12.05 23.05 L-11.2 25.35 Q-12.15 25.5 -12.9 24.0 L-13.75 21.5 -13.9 20.85 -14.2 22.95 Q-14.35 24.1 -13.75 25.2 L-12.85 26.75 Q-13.95 26.8 -14.75 25.9 L-15.45 25.05 -14.7 26.85 -14.05 27.55 Q-16.7 29.15 -18.9 31.65 L-24.3 37.8 Q-27.75 41.85 -30.8 46.5 -32.2 44.05 -33.15 40.95 L-34.25 37.35 -33.9 36.8 Q-32.8 35.2 -31.2 34.65 -33.05 34.9 -34.65 35.75 L-35.6 31.05 Q-36.55 25.9 -35.55 20.8 L-35.1 18.5 Q-34.5 18.0 -33.7 18.1 L-30.85 18.25 Q-32.35 16.65 -34.55 16.55 -33.7 13.8 -32.45 11.2 -30.25 6.55 -27.2 2.3 L-24.05 -1.9 -20.8 -5.9 -14.6 -12.6 -14.15 -12.95 -12.1 -14.35 Q-7.5 -17.5 -4.8 -20.5 L-7.8 -20.45 -12.2 -20.3 Q-7.95 -23.1 -2.85 -25.15 2.1 -27.25 7.25 -28.75 12.0 -30.2 15.95 -29.8 L16.25 -29.8 16.5 -29.85 17.75 -30.1 18.0 -29.95 Q19.05 -29.4 19.85 -28.25 20.7 -27.1 21.7 -26.65 L22.75 -26.45" fill="url(#gradient0)" fill-rule="evenodd" stroke="none"/>
    <path d="M22.85 -25.7 L23.05 -25.25 23.45 -24.35 Q22.95 -25.0 22.85 -25.7" fill="url(#gradient1)" fill-rule="evenodd" stroke="none"/>
    <path d="M22.85 -25.7 L23.05 -25.25 23.45 -24.35 Q23.75 -23.15 22.8 -22.4 20.15 -20.25 18.9 -17.2 L18.4 -16.2 18.1 -15.15 Q15.85 -14.1 13.95 -15.6 14.4 -14.6 15.8 -13.85 16.85 -13.35 17.95 -13.6 L18.1 -11.85 18.65 -7.7 Q19.1 -4.15 16.6 -2.0 14.0 0.2 11.1 1.25 11.45 0.4 11.3 -0.6 10.85 -3.15 9.35 -5.1 7.9 -7.15 7.95 -9.25 L6.25 -8.05 3.45 -5.2 2.9 -4.45 Q1.8 -6.6 -0.7 -6.25 L-3.5 -5.45 -0.3 -5.2 Q1.0 -4.75 1.6 -3.65 L1.85 -3.1 -0.85 -3.6 -2.75 -3.55 Q-1.2 -3.25 -0.1 -2.35 L0.6 -1.45 Q-1.35 -2.3 -3.55 -2.2 L-5.9 -1.55 Q-4.0 -1.45 -2.3 -0.8 -1.45 -0.5 -1.0 0.45 L-1.0 0.5 -1.05 0.55 -2.9 0.5 -3.75 0.85 Q-3.0 0.65 -2.45 1.1 L-2.0 1.6 -5.65 2.35 Q-6.65 2.55 -7.2 3.4 -5.55 2.6 -3.85 2.95 -3.3 3.1 -2.9 3.4 L-3.9 5.0 Q-5.1 6.8 -5.55 9.7 -6.15 12.6 -6.2 15.95 -6.35 21.35 -5.45 25.75 L-8.6 25.45 -9.9 25.7 -11.2 21.85 Q-11.85 19.7 -11.25 17.65 L-11.2 16.95 Q-11.75 18.55 -12.1 20.65 -12.35 21.85 -12.05 23.05 L-11.2 25.35 Q-12.15 25.5 -12.9 24.0 L-13.75 21.5 -13.9 20.85 -14.2 22.95 Q-14.35 24.1 -13.75 25.2 L-12.85 26.75 Q-13.95 26.8 -14.75 25.9 L-15.45 25.05 -14.7 26.85 -14.05 27.55 Q-16.7 29.15 -18.9 31.65 L-24.3 37.8 Q-27.75 41.85 -30.8 46.5 -32.2 44.05 -33.15 40.95 L-34.25 37.35 -33.9 36.8 Q-32.8 35.2 -31.2 34.65 -33.05 34.9 -34.65 35.75 L-35.6 31.05 Q-36.55 25.9 -35.55 20.8 L-35.1 18.5 Q-34.5 18.0 -33.7 18.1 L-30.85 18.25 Q-32.35 16.65 -34.55 16.55 -33.7 13.8 -32.45 11.2 -30.25 6.55 -27.2 2.3 L-24.05 -1.9 -20.8 -5.9 -14.6 -12.6 -14.15 -12.95 -12.1 -14.35 Q-7.5 -17.5 -4.8 -20.5 L-7.8 -20.45 -12.2 -20.3 Q-7.95 -23.1 -2.85 -25.15 2.1 -27.25 7.25 -28.75 12.0 -30.2 15.95 -29.8 L16.25 -29.8 16.5 -29.85" fill="none" stroke="#000000" stroke-linecap="round" stroke-linejoin="round" stroke-width="1.0"/>
    <path d="M30.05 -35.8 Q31.9 -36.65 33.75 -36.65 38.25 -36.65 33.9 -42.55 29.15 -41.65 30.25 -46.45 27.7 -45.05 27.35 -41.75 L27.15 -40.35 M22.75 -26.45 L22.85 -25.7 Q22.95 -25.0 23.45 -24.35 M16.5 -29.85 L17.75 -30.1" fill="none" stroke="#000000" stroke-linecap="round" stroke-linejoin="round" stroke-width="1.0"/>
    <path d="M27.15 -40.35 L27.25 -40.4 Q27.8 -40.5 27.85 -39.95 L28.05 -39.45 29.55 -37.25 30.15 -36.4 30.15 -36.0 30.05 -35.8 29.3 -34.85 28.9 -34.55 28.55 -34.5 28.55 -34.45 Q28.75 -33.4 27.75 -33.35 L27.5 -33.25 27.15 -33.2 Q27.1 -32.35 26.5 -31.95 L26.3 -31.7 25.8 -31.4 Q25.9 -30.7 25.25 -30.6 L25.0 -30.55 Q24.5 -30.55 24.25 -30.2 24.3 -29.65 24.65 -29.35 L24.65 -29.0 Q24.5 -28.7 24.0 -28.6 L23.75 -28.55 23.45 -28.6 Q24.55 -27.75 23.95 -26.7 L23.75 -26.55 22.75 -26.45 21.7 -26.65 Q20.7 -27.1 19.85 -28.25 19.05 -29.4 18.0 -29.95 L17.75 -30.1 17.55 -30.25 Q17.35 -30.45 17.3 -30.7 L17.35 -31.15 18.3 -32.15 18.7 -32.5 20.0 -32.45 20.05 -32.4 Q20.0 -34.3 21.7 -33.8 L22.15 -33.55 Q21.6 -34.8 22.5 -35.2 L23.0 -35.35 23.55 -35.3 Q23.3 -35.6 23.35 -36.2 L23.35 -36.45 Q23.3 -37.0 24.0 -37.05 L24.25 -37.05 24.5 -37.0 24.8 -36.85 Q24.35 -37.95 25.3 -38.35 L25.75 -38.45 26.25 -38.4 Q25.6 -39.75 26.5 -40.15 L27.15 -40.35 M28.55 -34.5 L28.45 -34.75 28.4 -34.9 26.95 -37.45 26.85 -37.7 26.5 -38.3 26.25 -38.4 M24.8 -36.85 L25.45 -36.3 26.1 -35.5 26.8 -34.45 27.05 -33.95 27.15 -33.2 M25.7 -31.8 L25.5 -32.2 25.4 -32.4 24.8 -33.7 24.4 -34.35 24.2 -34.75 24.15 -34.8 Q23.95 -35.25 23.55 -35.3 M25.7 -31.8 L25.7 -31.7 25.8 -31.4 Q25.55 -31.45 25.7 -31.8 M22.15 -33.55 L22.25 -33.45 22.55 -33.15 24.15 -30.9 24.25 -30.45 24.25 -30.2 M23.45 -28.6 L23.25 -28.75 23.1 -28.9 23.05 -28.95 21.95 -30.15 Q21.35 -30.6 20.9 -31.4 L20.7 -31.75 20.4 -32.15 20.05 -32.4" fill="none" stroke="#000000" stroke-linecap="round" stroke-linejoin="round" stroke-width="0.75"/>
  </g>
  <defs>
    <radialGradient cx="0" cy="0" gradientTransform="matrix(0.0258, 0.0193, -0.0388, 0.0517, -14.75, -8.95)" gradientUnits="userSpaceOnUse" id="gradient0" r="819.2" spreadMethod="pad">
      <stop offset="0.0" stop-color="#986807"/>
      <stop offset="0.5764705882352941" stop-color="#efca3a"/>
      <stop offset="1.0" stop-color="#ffffff"/>
    </radialGradient>
    <radialGradient cx="0" cy="0" gradientTransform="matrix(0.0287, 0.0264, 0.043, -0.0469, -16.3, -6.3)" gradientUnits="userSpaceOnUse" id="gradient1" r="819.2" spreadMethod="pad">
      <stop offset="0.0" stop-color="#986807"/>
      <stop offset="0.5764705882352941" stop-color="#efca3a"/>
      <stop offset="1.0" stop-color="#ffffff"/>
    </radialGradient>
  </defs>
</svg>
