<?xml version="1.0" encoding="UTF-8" standalone="no"?>
<svg xmlns:xlink="http://www.w3.org/1999/xlink" height="2.7px" width="4.0px" xmlns="http://www.w3.org/2000/svg">
  <g transform="matrix(1.0, 0.0, 0.0, 1.0, -3.05, -12.6)">
    <path d="M5.6 13.15 Q6.7 13.75 7.05 14.8 L7.0 15.05 6.6 15.25 6.4 15.3 6.05 15.15 5.95 15.05 5.95 14.95 5.95 14.85 5.95 14.7 5.05 14.05 4.85 13.85 3.7 14.5 Q3.3 14.65 3.05 14.3 3.05 13.6 3.8 13.2 L4.3 12.95 4.7 12.7 4.75 12.65 4.9 12.65 4.9 12.6 Q5.5 12.55 5.6 13.05 L5.6 13.15" fill="#000000" fill-rule="evenodd" stroke="none"/>
  </g>
</svg>
