<?xml version="1.0" encoding="UTF-8" standalone="no"?>
<svg xmlns:xlink="http://www.w3.org/1999/xlink" height="2.55px" width="4.7px" xmlns="http://www.w3.org/2000/svg">
  <g transform="matrix(1.0, 0.0, 0.0, 1.0, 10.5, -3.8)">
    <path d="M-9.05 4.1 L-9.0 4.2 Q-8.3 3.9 -8.05 4.55 L-8.05 4.65 -7.55 5.0 -7.5 5.05 Q-7.55 4.55 -7.2 4.25 L-6.75 4.05 Q-6.0 3.6 -5.8 4.4 L-6.5 5.05 -6.55 5.9 -6.65 6.3 Q-7.7 6.6 -8.5 5.55 L-8.7 5.4 -8.85 5.3 -9.6 5.15 -10.45 4.95 -10.5 4.7 -10.45 4.4 Q-10.1 3.9 -9.6 3.8 -9.2 3.75 -9.05 4.1" fill="#000000" fill-rule="evenodd" stroke="none"/>
  </g>
</svg>
