<?xml version="1.0" encoding="UTF-8" standalone="no"?>
<svg xmlns:xlink="http://www.w3.org/1999/xlink" height="46.0px" width="46.5px" xmlns="http://www.w3.org/2000/svg">
  <g transform="matrix(1.0, 0.0, 0.0, 1.0, 23.25, 23.0)">
    <path d="M16.05 -15.9 Q22.75 -9.3 22.75 0.0 22.75 9.3 16.05 15.9 9.4 22.5 0.0 22.5 -9.4 22.5 -16.1 15.9 -22.75 9.3 -22.75 0.0 -22.75 -9.3 -16.1 -15.9 -9.4 -22.5 0.0 -22.5 9.4 -22.5 16.05 -15.9 Z" fill="none" stroke="#000000" stroke-linecap="round" stroke-linejoin="round" stroke-width="1.0"/>
    <path d="M6.3 -18.7 L6.3 -18.65 6.2 -18.45 6.1 -18.4 Q5.75 -18.25 5.6 -18.6 5.55 -18.85 5.8 -18.95 L5.9 -18.95 Q6.2 -19.0 6.3 -18.7 M7.55 -18.8 L7.55 -18.75 7.45 -18.55 7.35 -18.5 Q6.85 -18.35 6.6 -18.8 6.55 -19.05 6.8 -19.1 L6.9 -19.15 Q7.3 -19.15 7.55 -18.8 M2.65 -12.5 L2.7 -12.55 3.9 -12.65 Q6.2 -12.7 7.6 -11.05 L7.6 -11.0 7.55 -11.0 7.45 -10.9 7.35 -10.75 7.35 -10.45 7.35 -9.9 Q7.5 -9.5 7.95 -9.5 L8.05 -9.35 8.2 -9.15 8.2 -9.05 8.2 -9.0 8.2 -8.9 8.75 -8.55 Q8.8 -7.6 8.3 -6.6 7.1 -4.25 6.05 -4.15 L5.95 -4.35 6.0 -4.5 6.05 -4.9 6.25 -5.15 6.3 -5.8 6.25 -5.9 5.8 -6.3 5.8 -6.4 5.8 -6.45 5.75 -6.55 5.35 -6.8 Q5.5 -7.95 6.5 -8.9 L6.6 -9.15 6.55 -9.45 6.35 -9.6 6.25 -9.65 5.25 -10.25 5.0 -10.35 4.75 -10.25 4.6 -10.05 4.45 -9.65 Q3.9 -8.3 3.7 -6.95 3.35 -4.85 3.75 -2.8 L3.75 -2.75 3.75 -2.6 4.9 1.15 4.7 1.35 4.65 1.55 Q4.5 1.9 4.6 2.3 L4.7 2.4 4.7 2.5 4.7 2.7 4.7 3.05 5.1 3.25 4.7 3.75 4.65 4.05 4.6 5.25 5.2 5.4 5.2 5.65 5.95 5.9 6.5 6.05 7.5 8.7 4.65 8.7 4.9 8.4 5.15 8.55 5.3 8.5 5.45 8.3 5.45 8.1 5.45 8.05 5.4 7.95 5.15 7.8 5.05 7.85 5.05 7.7 5.0 7.6 4.75 7.45 4.65 7.5 4.45 7.6 4.4 7.8 4.4 8.0 4.3 8.1 4.1 8.35 4.1 8.55 4.1 8.65 4.2 8.7 3.75 8.75 Q3.55 4.05 2.1 0.1 L1.9 -0.15 1.65 -0.2 1.4 -0.1 Q0.1 0.8 -0.4 2.25 L-0.5 2.65 -0.55 2.6 -0.6 2.5 -0.85 2.35 -1.05 2.4 -1.1 2.5 -1.15 2.6 -1.15 2.75 Q-1.2 3.2 -0.9 3.5 L-0.9 3.7 -0.9 3.8 -2.1 9.0 -5.6 9.35 -5.4 8.65 -5.4 8.6 -5.3 8.5 -4.8 8.4 -4.75 8.35 -4.55 7.95 -4.55 7.75 -4.55 7.7 -4.6 7.6 -4.8 6.95 -4.85 6.85 -4.9 6.8 -4.75 6.25 Q-3.8 2.45 -1.55 -1.1 L-1.45 -1.0 -1.15 -1.0 -0.85 -1.2 -0.85 -1.55 -1.05 -2.4 -0.9 -2.5 -0.3 -2.9 -0.3 -2.95 -0.3 -3.15 -0.3 -3.35 0.7 -3.55 0.85 -4.0 0.75 -4.3 0.5 -4.6 -0.05 -4.7 -0.1 -4.8 -0.95 -4.9 -1.0 -5.35 -1.05 -5.7 -1.1 -5.8 -1.5 -6.0 -1.25 -9.15 -1.3 -9.4 -1.5 -9.6 -1.7 -9.65 -1.75 -9.65 -2.0 -9.55 Q-3.75 -8.05 -3.95 -5.9 L-4.2 -5.95 -4.25 -6.15 -4.45 -6.7 -4.5 -6.8 -4.75 -6.95 -4.85 -6.9 -5.05 -6.8 -5.0 -6.2 -6.55 -7.15 -6.05 -11.75 -5.55 -10.45 -5.35 -10.2 -5.0 -10.2 -4.75 -10.4 -4.55 -10.2 -4.55 -10.0 -4.55 -9.75 -4.1 -9.3 -3.9 -9.35 -3.85 -9.4 -3.8 -9.7 -3.85 -10.55 -3.95 -10.65 -4.3 -11.0 Q-3.3 -12.15 -0.9 -12.6 L-0.25 -12.7 1.2 -12.35 1.15 -12.25 1.2 -11.7 1.3 -11.6 1.5 -11.55 1.65 -11.6 2.2 -12.25 2.4 -12.3 2.5 -12.3 2.65 -12.5 M0.9 -18.4 L1.05 -18.1 0.65 -17.75 0.6 -17.85 0.65 -17.9 0.9 -18.4 M5.0 -15.5 L4.9 -15.55 Q4.5 -15.45 4.35 -15.0 L4.35 -14.9 4.35 -14.8 4.25 -14.75 Q4.05 -14.6 4.1 -14.35 L4.15 -14.25 4.1 -14.25 Q2.95 -13.1 1.35 -13.1 -0.25 -13.1 -1.35 -14.25 -2.35 -15.2 -2.5 -16.45 L-1.75 -16.0 Q-1.55 -15.3 -1.0 -14.75 L-0.95 -14.8 -0.45 -15.3 -0.25 -15.4 0.0 -15.3 0.05 -15.05 0.0 -14.85 -0.55 -14.3 Q0.15 -13.85 1.0 -13.75 L1.0 -14.15 1.0 -14.4 1.1 -14.6 1.3 -14.7 1.5 -14.6 1.6 -14.4 1.6 -14.15 1.6 -13.7 Q2.6 -13.8 3.4 -14.4 L3.3 -14.5 2.8 -14.95 2.7 -15.2 2.8 -15.4 3.05 -15.5 3.25 -15.4 3.75 -14.95 3.8 -14.8 3.9 -14.95 4.0 -15.0 4.1 -15.05 4.2 -15.1 5.25 -16.6 5.0 -15.5 M3.6 -17.05 L3.7 -17.15 3.55 -16.95 3.6 -17.05 M3.35 -18.1 L3.55 -18.1 3.7 -17.95 3.75 -17.75 3.6 -17.6 1.55 -16.55 1.35 -16.5 1.2 -16.65 0.95 -17.15 1.35 -17.6 1.55 -17.15 3.35 -18.1 M0.75 -18.75 L0.65 -18.8 0.5 -18.8 0.45 -18.75 0.3 -18.6 0.25 -18.55 -0.25 -19.55 -0.3 -19.75 -0.25 -19.85 -0.7 -19.5 -0.2 -19.0 -0.1 -18.75 -0.2 -18.55 Q-0.3 -18.45 -0.45 -18.45 -0.6 -18.45 -0.65 -18.55 L-1.15 -19.05 Q-1.8 -18.3 -1.85 -17.3 L-1.2 -17.3 -0.95 -17.2 -0.9 -16.95 -0.95 -16.75 Q-1.05 -16.65 -1.2 -16.65 L-1.55 -16.65 -2.35 -16.9 -2.5 -16.85 -2.5 -16.95 Q-2.55 -18.6 -1.4 -19.75 L-1.35 -19.75 Q-0.7 -20.45 0.15 -20.7 L1.35 -20.85 2.6 -20.7 Q3.45 -20.45 4.15 -19.75 5.25 -18.6 5.25 -16.95 L5.25 -16.8 5.0 -16.95 4.5 -16.5 4.05 -16.5 4.55 -17.15 4.65 -17.15 Q4.6 -18.35 3.75 -19.25 L3.7 -19.2 3.2 -18.7 2.95 -18.6 Q2.8 -18.6 2.75 -18.7 L2.65 -18.9 2.75 -19.15 3.25 -19.65 Q2.55 -20.2 1.65 -20.25 L1.65 -19.55 1.55 -19.3 1.35 -19.2 1.1 -19.3 Q1.0 -19.4 1.05 -19.55 L1.05 -20.25 0.0 -19.95 0.05 -19.9 0.2 -19.8 0.75 -18.75 M7.95 -16.75 L7.9 -16.65 7.75 -16.5 7.65 -16.45 7.2 -16.8 7.3 -17.05 7.5 -17.15 7.95 -16.8 7.95 -16.75 M6.7 -17.15 L6.65 -17.05 6.5 -16.9 Q5.95 -16.65 5.7 -17.1 L5.7 -17.25 6.0 -17.45 Q6.45 -17.6 6.7 -17.2 L6.7 -17.15 M5.95 -16.3 L6.25 -16.55 Q6.8 -16.75 7.05 -16.3 L7.05 -16.25 7.0 -16.15 6.85 -16.0 Q6.25 -15.75 5.95 -16.2 L5.95 -16.3 M2.4 -2.05 L2.3 -2.0 2.1 -1.9 2.1 -1.7 2.1 -1.5 Q2.3 -1.0 2.75 -0.8 L2.85 -0.8 2.95 -0.9 3.05 -1.05 3.05 -1.15 3.05 -1.2 3.25 -1.05 3.4 -1.1 3.5 -1.15 3.55 -1.35 3.55 -1.45 3.5 -1.65 3.45 -1.9 3.4 -2.0 3.15 -2.15 3.05 -2.1 2.9 -2.05 2.85 -1.6 2.4 -2.05 M3.05 -7.05 L3.0 -7.15 2.75 -7.3 2.65 -7.25 Q2.1 -6.8 2.2 -6.1 L2.5 -5.95 2.6 -6.0 2.7 -6.05 2.8 -6.25 2.8 -6.4 2.85 -6.5 3.05 -7.05 M2.8 -9.7 L2.75 -9.5 2.35 -9.0 2.3 -8.85 Q1.85 -8.2 1.85 -7.5 L2.15 -7.35 2.25 -7.4 2.35 -7.45 2.45 -7.65 2.95 -8.6 3.0 -8.65 3.1 -8.7 3.2 -8.9 3.55 -9.8 3.5 -9.9 3.25 -10.05 Q3.0 -10.0 2.85 -9.8 L2.8 -9.7 M2.75 -11.45 L2.65 -11.4 2.45 -11.3 2.4 -11.2 2.4 -11.1 2.3 -11.0 1.85 -10.25 1.85 -10.15 1.85 -10.05 1.75 -10.0 Q1.65 -9.85 1.7 -9.7 L2.0 -9.45 2.1 -9.5 2.45 -10.0 2.5 -10.0 2.65 -9.95 2.75 -10.0 2.85 -10.05 2.95 -10.2 3.45 -10.95 3.45 -11.05 Q3.3 -11.35 3.0 -11.3 L2.75 -11.45 M6.45 -8.25 L6.4 -8.05 6.35 -7.1 6.65 -6.95 6.75 -7.0 6.85 -7.05 6.9 -7.25 7.05 -8.15 7.0 -8.25 6.75 -8.4 6.65 -8.35 6.45 -8.25 M7.4 -7.95 L7.3 -7.9 7.1 -7.8 7.1 -7.6 7.1 -6.85 7.4 -6.7 7.5 -6.75 7.6 -6.8 7.65 -6.95 7.7 -7.7 7.65 -7.8 7.4 -7.95 M9.05 -4.95 Q9.45 -4.65 9.45 -4.2 L9.3 -4.05 9.15 -3.95 8.45 -4.75 8.45 -5.25 8.45 -5.4 8.45 -5.5 8.55 -5.6 8.75 -5.65 9.0 -5.5 9.05 -5.4 9.05 -5.15 9.05 -4.95 M8.0 -4.7 L8.25 -4.55 8.3 -4.45 8.3 -3.9 8.25 -3.7 8.15 -3.65 8.05 -3.6 8.0 -2.5 7.95 -2.3 7.85 -2.25 7.75 -2.2 7.45 -2.35 7.45 -3.95 7.45 -4.15 7.65 -4.25 7.7 -4.25 7.7 -4.4 7.75 -4.6 7.85 -4.7 8.0 -4.7 M6.7 -2.55 L6.65 -2.0 6.6 -1.8 6.7 -1.65 6.7 -1.45 6.55 -1.3 6.4 -1.2 Q6.1 -1.3 5.95 -1.65 L6.05 -2.4 6.1 -2.45 6.1 -2.65 6.1 -2.8 6.15 -2.9 6.2 -3.0 6.4 -3.05 6.65 -2.9 6.7 -2.8 6.7 -2.55 M5.3 4.6 L5.3 4.5 5.35 4.55 5.3 4.6 M6.0 4.7 L6.05 4.75 5.95 4.8 6.0 4.7 M-2.75 -20.4 Q-2.4 -20.5 -2.2 -20.15 L-2.2 -20.05 -2.25 -20.0 -2.4 -19.8 Q-2.85 -19.65 -3.05 -20.05 L-2.95 -20.3 -2.75 -20.4 M-4.05 -18.9 L-4.05 -18.8 -4.1 -18.75 -4.25 -18.55 Q-4.9 -18.25 -5.3 -18.7 -5.25 -19.15 -4.75 -19.15 L-4.6 -19.15 Q-4.2 -19.25 -4.05 -18.9 M-7.3 -14.3 L-7.35 -14.1 -7.4 -13.25 -7.05 -12.95 -7.05 -12.8 -7.05 -12.6 -6.35 -12.5 -6.1 -11.85 -8.8 -12.2 -8.45 -14.95 -7.9 -15.6 -7.2 -14.35 -7.3 -14.3 M-8.6 -17.8 L-8.65 -17.4 -9.25 -17.2 -9.3 -17.0 -9.35 -16.8 -9.5 -16.7 -9.55 -16.45 Q-9.1 -15.9 -8.75 -16.45 L-9.05 -13.7 -9.2 -12.3 -9.25 -12.2 -11.05 -12.4 -10.7 -15.15 -10.65 -15.1 -10.55 -15.05 -10.55 -14.95 -10.55 -14.85 -10.35 -14.65 -10.3 -14.55 -10.3 -14.45 -10.3 -14.4 -10.25 -14.3 Q-10.05 -14.05 -9.75 -13.95 L-9.65 -13.95 -9.55 -14.0 -9.5 -14.05 -9.45 -14.35 -9.55 -14.7 -9.7 -14.8 -9.75 -15.0 -9.95 -15.3 -9.95 -15.4 -9.95 -15.45 -10.0 -15.55 -10.5 -15.7 -10.65 -15.65 -10.4 -17.45 -10.35 -17.45 -10.2 -17.5 -10.05 -17.7 -10.05 -17.9 -10.05 -17.95 -8.6 -17.8 M-3.35 -18.55 Q-2.95 -18.65 -2.8 -18.3 L-2.8 -18.25 -2.85 -18.15 -3.0 -18.0 -4.05 -18.05 -3.5 -18.55 -3.35 -18.55 M-4.25 -17.5 L-4.2 -17.4 Q-4.25 -16.85 -4.75 -16.7 -5.05 -16.65 -5.15 -16.95 L-4.7 -17.6 -4.5 -17.65 -4.25 -17.5 M-3.2 -16.05 Q-3.45 -15.45 -4.0 -15.2 L-4.3 -15.45 Q-4.1 -16.15 -3.5 -16.55 L-3.25 -16.4 -3.2 -16.3 -3.2 -16.25 -3.2 -16.05 M-0.85 -12.2 L-0.95 -12.15 -1.15 -12.05 -1.15 -11.85 -1.15 -11.7 -1.5 -11.95 -1.65 -11.95 -1.75 -11.85 -1.8 -11.65 -1.8 -11.4 -1.1 -10.95 -1.0 -10.95 -0.9 -11.0 -0.85 -11.15 -0.8 -11.15 -0.5 -10.95 -0.4 -10.95 -0.3 -11.05 -0.2 -11.2 -0.2 -11.3 Q-0.4 -11.9 -0.85 -12.2 M-11.55 -3.9 L-11.6 -4.0 -11.85 -4.15 -11.95 -4.1 -12.1 -4.05 -12.15 -3.75 -12.15 -3.7 -12.5 -4.05 -12.6 -4.0 -12.8 -3.9 -12.8 -3.7 -12.8 -3.5 -12.1 -2.7 -12.0 -2.75 -11.9 -2.8 -11.8 -3.0 -11.8 -3.05 -11.25 -3.15 -11.2 -3.35 -11.25 -3.45 -11.25 -3.5 -11.5 -3.75 -11.55 -3.8 -11.55 -3.9 M-11.55 -7.75 L-11.55 -7.95 -11.4 -7.9 -11.4 -7.7 -11.55 -7.7 -11.55 -7.75 M-11.05 -8.5 L-11.1 -8.55 -11.15 -8.5 -11.75 -8.55 -11.8 -8.5 -11.85 -8.55 -11.95 -8.5 -12.1 -8.45 -12.15 -8.25 -12.15 -8.0 -12.3 -7.8 -12.3 -7.6 -12.55 -7.2 -12.3 -7.05 -12.3 -6.75 -12.0 -6.6 -11.85 -6.7 -11.7 -6.85 -11.7 -6.95 -11.4 -6.95 -11.4 -6.75 -11.1 -6.6 -10.95 -6.7 -10.8 -6.85 -10.8 -7.0 -10.6 -6.95 -10.5 -6.95 -10.35 -7.0 Q-10.2 -7.1 -10.2 -7.3 L-10.25 -7.4 -10.3 -7.45 -10.75 -7.7 -10.7 -7.85 -9.4 -7.95 -9.3 -8.05 -9.2 -8.2 -9.35 -8.4 -11.05 -8.5 M-11.7 -11.7 L-11.85 -11.8 -8.8 -11.5 -8.85 -11.15 -8.8 -10.5 Q-8.1 -10.15 -7.7 -10.95 L-7.7 -11.05 -8.2 -11.4 -7.3 -11.3 -7.8 -6.7 -7.85 -6.7 Q-8.5 -6.4 -8.55 -5.75 L-8.0 -5.2 -8.25 -2.9 -9.3 -2.15 -9.3 -1.95 -9.3 -1.75 -8.45 -1.3 -8.75 1.45 -8.85 1.45 -9.0 1.45 Q-10.05 1.75 -10.8 2.45 L-10.8 2.55 -10.8 2.65 -10.8 2.75 -10.7 2.85 -10.5 2.9 -10.4 2.85 -10.25 2.7 -10.15 2.6 -8.8 2.2 -8.95 3.15 -9.5 3.45 -11.15 4.9 -11.1 5.0 -10.85 5.15 -9.05 4.0 -9.6 8.8 -9.65 8.8 -9.7 8.85 -9.75 8.9 Q-10.25 9.1 -10.3 9.55 L-9.7 10.0 -9.9 11.5 Q-10.2 11.2 -10.6 11.2 L-11.0 11.3 Q-11.2 11.3 -11.35 11.45 L-11.4 11.65 Q-12.8 10.75 -13.5 8.5 L-13.3 8.0 -13.25 7.85 Q-12.8 8.15 -12.45 7.7 L-12.45 7.6 -12.45 7.5 -12.45 7.45 -12.5 7.35 Q-12.7 7.1 -13.0 7.2 L-13.0 7.25 Q-13.4 6.85 -13.9 6.85 L-14.25 3.95 -13.9 3.55 -13.85 3.55 -13.15 3.2 -13.1 3.1 -12.7 2.2 -12.75 2.1 Q-12.9 1.9 -13.1 1.95 L-14.2 2.5 -14.25 2.55 -14.3 2.55 -14.2 -1.2 -13.45 -2.0 -13.5 -2.1 -14.1 -2.65 -13.8 -5.65 -13.1 -5.65 -13.1 -5.75 Q-13.05 -6.6 -13.6 -7.15 L-13.0 -11.25 Q-12.3 -10.9 -11.7 -11.65 L-11.7 -11.7 M-3.45 -0.8 L-3.45 -0.75 -3.5 -0.65 -3.65 -0.5 -4.9 -0.55 Q-4.85 -1.0 -4.25 -1.05 L-4.1 -1.05 Q-3.65 -1.2 -3.45 -0.8 M-4.45 2.3 L-4.45 2.35 -4.5 2.45 -4.6 2.55 -4.6 2.6 -5.4 3.4 -5.5 3.45 -5.75 3.3 -5.8 3.2 Q-5.8 2.85 -5.45 2.65 L-5.35 2.55 -5.35 2.45 -5.3 2.4 -5.3 2.35 -5.2 2.15 -5.0 2.05 Q-4.65 1.95 -4.45 2.3 M-4.2 1.1 Q-4.6 1.65 -5.05 1.5 L-5.25 1.55 -5.6 1.4 -5.65 1.3 Q-5.6 0.8 -5.0 0.7 L-4.65 0.8 Q-4.4 0.75 -4.2 1.05 L-4.2 1.1 M-2.9 3.6 L-2.9 3.8 -2.9 4.0 -2.85 4.05 -2.9 4.15 -3.3 5.55 -3.0 5.7 -2.95 5.7 -3.15 6.05 -3.5 5.7 -3.65 5.75 -3.75 5.8 Q-3.9 6.4 -3.45 6.7 L-3.55 6.85 -3.55 6.95 -3.55 7.15 -3.25 7.3 -3.15 7.25 -3.05 7.2 -3.0 7.1 -2.45 6.15 -2.35 6.05 -2.25 5.95 -2.25 5.75 -2.25 5.7 -2.2 5.5 -2.2 5.45 -2.5 5.2 -2.55 5.15 -2.35 4.65 -2.1 4.8 -2.0 4.75 -1.9 4.7 -1.8 4.5 -1.8 4.45 -2.1 4.0 -1.7 3.2 -1.75 3.1 -2.0 2.95 -2.55 3.5 -2.6 3.45 -2.7 3.5 -2.9 3.6" fill="#000000" fill-rule="evenodd" stroke="none"/>
    <path d="M-16.55 8.7 L-16.5 8.85 -16.55 9.0 -16.55 8.7" fill="#00cc99" fill-rule="evenodd" stroke="none"/>
    <path d="M5.3 11.75 Q5.3 12.55 4.5 13.7 L0.05 20.3 Q-0.7 21.3 -1.55 21.3 -2.2 21.3 -2.65 20.9 L-3.1 19.9 -2.75 18.9 1.25 13.05 1.3 12.95 1.0 12.65 -0.85 12.65 Q-0.95 13.35 -1.4 13.75 -1.85 14.2 -2.5 14.2 -3.1 14.2 -3.45 13.85 -3.85 13.45 -3.85 12.85 L-3.65 11.2 Q-3.5 9.75 -2.0 9.75 L2.9 9.75 Q5.3 9.75 5.3 11.75" fill="#000000" fill-rule="evenodd" stroke="none"/>
  </g>
</svg>
