<?xml version="1.0" encoding="UTF-8" standalone="no"?>
<svg xmlns:xlink="http://www.w3.org/1999/xlink" height="2.95px" width="4.3px" xmlns="http://www.w3.org/2000/svg">
  <g transform="matrix(1.0, 0.0, 0.0, 1.0, -4.55, -12.3)">
    <path d="M6.25 12.3 L8.35 12.55 8.75 12.7 8.85 13.0 Q8.9 14.05 7.9 13.6 L7.75 13.45 6.6 13.35 6.6 13.55 6.6 13.65 6.45 13.95 6.45 14.1 6.45 14.2 Q6.4 14.7 5.85 14.8 L5.6 15.15 Q4.6 15.5 4.55 14.5 L4.55 14.3 4.7 14.15 4.85 14.05 5.5 13.7 5.55 13.55 5.55 13.45 Q5.7 12.8 6.0 12.35 L6.25 12.3" fill="#000000" fill-rule="evenodd" stroke="none"/>
  </g>
</svg>
