<?xml version="1.0" encoding="UTF-8" standalone="no"?>
<svg xmlns:xlink="http://www.w3.org/1999/xlink" height="18.2px" width="9.05px" xmlns="http://www.w3.org/2000/svg">
  <g transform="matrix(1.0, 0.0, 0.0, 1.0, -1.4, -3.55)">
    <path d="M10.0 3.55 Q11.0 4.2 9.7 4.65 L9.25 4.8 8.25 5.6 8.15 6.25 8.1 6.55 7.3 6.45 7.4 5.35 7.45 4.85 Q7.65 4.45 8.2 4.45 8.65 3.55 9.75 3.55 L10.0 3.55" fill="#000000" fill-rule="evenodd" stroke="none"/>
    <path d="M3.9 19.35 Q4.8 19.3 4.75 20.2 L4.7 20.55 Q5.15 20.7 5.2 21.15 L5.1 21.6 Q4.5 21.95 3.95 21.35 L3.8 21.2 3.75 20.9 3.75 20.8 3.75 20.7 3.05 20.3 3.05 20.1 3.0 20.05 1.65 19.8 1.45 19.7 Q1.3 19.25 1.75 19.05 2.1 18.85 2.4 18.8 L3.85 19.3 3.9 19.35" fill="#000000" fill-rule="evenodd" stroke="none"/>
  </g>
</svg>
