<?xml version="1.0" encoding="UTF-8" standalone="no"?>
<svg xmlns:xlink="http://www.w3.org/1999/xlink" height="14.05px" width="11.2px" xmlns="http://www.w3.org/2000/svg">
  <g transform="matrix(1.0, 0.0, 0.0, 1.0, 1.95, -8.6)">
    <path d="M0.1 20.45 Q0.6 20.2 0.7 20.55 L0.7 20.85 0.7 22.6 -0.45 22.55 -0.45 22.45 Q-0.8 21.25 0.1 20.45 M9.25 8.6 L9.2 8.65 9.2 8.6 9.25 8.6" fill="url(#gradient0)" fill-rule="evenodd" stroke="none"/>
    <path d="M-1.9 22.55 L-1.9 22.65 -1.95 22.6 -1.9 22.55 M0.6 16.95 L1.2 16.55 2.0 16.6 2.15 17.1 2.1 18.05 1.5 18.5 1.3 18.5 0.7 17.7 0.65 17.5 0.6 17.05 0.6 16.95" fill="url(#gradient1)" fill-rule="evenodd" stroke="none"/>
  </g>
  <defs>
    <radialGradient cx="0" cy="0" gradientTransform="matrix(0.0351, 0.0, 0.0, 0.0351, 1.0, -0.75)" gradientUnits="userSpaceOnUse" id="gradient0" r="819.2" spreadMethod="pad">
      <stop offset="0.0" stop-color="#fefe0c" stop-opacity="0.9019608"/>
      <stop offset="0.5764705882352941" stop-color="#ffba2b" stop-opacity="0.9019608"/>
      <stop offset="1.0" stop-color="#ff720b" stop-opacity="0.9019608"/>
    </radialGradient>
    <radialGradient cx="0" cy="0" gradientTransform="matrix(0.0246, 0.0, 0.0, 0.0246, 1.9, 10.15)" gradientUnits="userSpaceOnUse" id="gradient1" r="819.2" spreadMethod="pad">
      <stop offset="0.0" stop-color="#fefe0c" stop-opacity="0.9019608"/>
      <stop offset="0.5764705882352941" stop-color="#ffba2b" stop-opacity="0.9019608"/>
      <stop offset="1.0" stop-color="#ff720b" stop-opacity="0.9019608"/>
    </radialGradient>
  </defs>
</svg>
