<?xml version="1.0" encoding="UTF-8" standalone="no"?>
<svg xmlns:xlink="http://www.w3.org/1999/xlink" height="62.65px" width="71.7px" xmlns="http://www.w3.org/2000/svg">
  <g transform="matrix(1.0, 0.0, 0.0, 1.0, 34.1, 33.8)">
    <path d="M12.9 -14.35 L12.9 -14.7 14.4 -15.8 12.9 -14.35 M11.3 -11.9 L11.2 -11.75 10.9 -11.45 11.3 -11.9 M9.5 -12.1 L9.75 -12.6 10.15 -12.4 9.4 -11.95 9.5 -12.1 M8.5 -13.05 L8.9 -13.2 8.5 -12.7 8.6 -12.7 9.15 -13.2 9.25 -13.1 9.2 -13.05 8.15 -11.6 7.7 -11.1 6.65 -9.9 6.75 -10.2 6.6 -10.2 6.4 -10.2 6.35 -10.1 5.85 -9.55 8.5 -13.05 M0.1 -23.0 L0.25 -22.85 0.35 -18.2 -0.35 -15.0 -0.1 -15.1 -0.6 -12.6 -0.9 -16.7 -0.75 -17.5 -0.5 -17.5 -0.35 -17.7 -0.35 -17.85 -0.3 -20.6 -0.05 -22.2 0.1 -23.0 M1.9 -4.0 L2.2 -4.25 2.85 -4.5 1.9 -4.0 M-5.9 0.9 L-5.95 0.9 -6.1 0.8 -5.9 0.9 M-6.7 0.7 L-6.4 0.9 -8.3 0.85 -8.25 0.7 -8.25 0.6 -7.3 0.3 -7.1 0.45 Q-7.3 0.45 -7.4 0.6 L-6.7 0.7 M-6.85 -1.7 L-6.6 -1.6 -5.65 -0.3 -6.8 0.35 -6.95 0.2 -6.15 0.0 -6.3 -0.1 -7.65 -0.3 -8.05 -0.6 Q-7.4 -0.4 -6.65 -0.6 L-6.65 -0.7 -8.7 -1.5 -8.85 -1.45 -9.05 -1.35 -10.25 -2.35 Q-8.9 -2.25 -7.9 -2.85 L-6.85 -1.7 M-5.6 -1.45 L-5.6 -1.55 -5.1 -1.2 -5.45 -0.55 -6.35 -1.8 -6.3 -2.0 -6.35 -2.2 -7.1 -3.05 -5.6 -1.45 M-6.5 -4.7 L-6.2 -4.85 -6.4 -5.1 -7.6 -6.55 -7.7 -6.5 -6.5 -4.7 M-4.15 -2.85 L-4.0 -2.45 -4.0 -2.05 -4.25 -2.3 -4.15 -2.85 M-3.65 -4.65 L-3.9 -5.05 -3.9 -5.25 -3.65 -4.65 M-5.0 -5.45 L-4.85 -5.7 -7.75 -14.15 -7.85 -15.45 -7.95 -16.65 -5.5 -9.4 -4.7 -7.0 -4.5 -6.8 -4.35 -6.35 -4.35 -5.45 -4.4 -5.5 -4.4 -5.45 -4.7 -5.35 -4.85 -5.15 -4.9 -5.0 -4.85 -4.8 -4.35 -3.3 -4.35 -2.35 -5.25 -3.0 -5.6 -2.85 -5.7 -2.75 -5.6 -2.55 -5.05 -1.9 -5.9 -1.95 -10.25 -7.95 -9.25 -7.95 -9.35 -8.0 -10.3 -8.05 -12.35 -10.8 -12.45 -10.8 -12.75 -11.55 -11.4 -11.45 Q-10.25 -9.55 -8.1 -8.3 L-7.7 -8.55 -7.85 -8.7 Q-10.45 -10.4 -11.95 -13.05 L-11.05 -13.25 -9.15 -9.7 -9.1 -9.75 -10.8 -13.35 -10.3 -13.8 -9.7 -15.3 -8.75 -14.7 -8.45 -13.85 -8.0 -9.95 Q-7.85 -8.7 -7.2 -8.5 L-7.45 -10.75 Q-6.45 -7.95 -5.0 -5.45 M3.0 -6.1 L3.1 -6.15 4.25 -7.5 3.65 -6.65 3.55 -6.55 3.55 -6.45 3.6 -6.4 2.05 -4.55 1.3 -4.2 3.45 -6.75 3.0 -6.1 M-1.45 -7.1 L-1.15 -7.05 0.75 -8.1 0.85 -8.05 -0.75 -5.2 -0.5 -5.25 -0.4 -5.45 1.05 -7.95 1.35 -7.8 1.45 -7.8 -0.45 -4.5 -0.5 -4.55 -0.65 -4.55 -0.9 -4.5 -1.3 -3.95 -1.5 -3.5 -2.05 -3.05 -2.25 -4.45 -2.15 -4.6 -2.1 -4.8 -2.2 -5.0 -2.3 -5.15 -2.1 -6.7 -1.45 -7.1 M-0.55 -9.9 L-0.05 -9.0 -1.15 -7.8 -0.55 -9.9 M-1.4 -12.85 L-1.25 -12.1 -0.85 -11.7 -0.9 -11.3 -1.65 -7.95 Q-1.7 -7.6 -1.4 -7.55 L-1.7 -7.25 -2.05 -6.95 -2.0 -7.55 -1.4 -12.85 M-5.65 -11.65 L-6.55 -15.1 -7.5 -19.15 -7.1 -18.7 -7.1 -18.85 -7.15 -18.9 -6.9 -18.7 -6.3 -17.0 Q-5.75 -12.45 -4.2 -8.1 L-4.25 -7.45 -5.15 -10.25 -5.65 -11.65 M-2.75 -17.45 L-2.65 -17.45 -2.45 -13.1 -2.15 -13.0 -1.85 -13.3 -1.85 -13.5 -1.9 -15.9 -1.5 -13.55 -2.55 -5.85 -2.6 -5.9 -2.9 -6.05 -2.9 -6.0 -3.4 -5.75 -3.5 -4.65 -3.85 -5.95 -3.75 -6.85 -3.5 -6.2 -3.35 -6.45 -3.4 -6.6 -3.75 -7.6 -3.75 -10.95 -3.95 -10.9 -4.15 -8.8 Q-5.45 -12.7 -6.1 -16.65 L-5.95 -16.35 -5.4 -15.8 -5.0 -14.0 -3.9 -11.75 -3.45 -11.75 -3.5 -11.95 -4.65 -15.55 -4.2 -15.45 -3.9 -14.7 -3.85 -14.8 -3.85 -15.5 -3.55 -15.6 -3.35 -15.1 -3.25 -15.6 -3.25 -15.95 -3.1 -16.4 -3.0 -16.55 -3.0 -16.75 -3.0 -16.95 -2.9 -17.1 -2.75 -17.3 -2.75 -17.45 M-1.0 -19.5 L-0.85 -17.8 -0.95 -17.35 -1.15 -19.15 -1.0 -19.5 M-0.25 -21.8 L-0.15 -23.2 -0.05 -23.15 -0.25 -21.8 M0.9 -4.3 L0.45 -3.85 0.15 -3.9 0.1 -4.0 -0.15 -4.25 1.75 -7.7 Q3.3 -7.3 4.45 -8.2 L4.05 -7.6 Q2.2 -6.0 0.8 -4.05 L0.9 -4.3 M11.0 0.5 L12.35 0.2 17.0 2.95 12.0 1.5 11.0 0.5 M12.8 0.15 L13.15 0.15 13.75 0.25 Q13.65 0.4 14.2 0.5 L16.65 2.1 18.75 3.5 12.45 0.2 12.8 0.15 M11.75 -0.55 L11.8 -0.55 12.65 -0.55 12.9 -0.4 12.55 -0.35 11.75 -0.55 M9.25 0.7 L9.25 0.3 9.25 0.15 9.15 0.05 10.8 0.05 10.75 0.1 10.5 0.6 10.15 0.4 Q9.75 0.35 10.0 0.7 L10.8 1.8 11.1 1.9 11.6 1.9 11.65 1.75 11.75 1.65 13.95 3.2 Q20.55 7.95 28.4 10.15 L28.1 9.9 26.35 9.25 27.8 9.65 28.75 10.3 32.7 12.85 Q29.35 11.5 25.85 10.8 L25.2 10.4 26.35 10.5 Q25.7 10.0 24.85 9.7 L23.15 9.1 21.75 8.2 21.6 8.25 22.55 8.85 Q16.55 6.6 11.1 3.4 L11.4 3.15 11.5 2.8 Q10.95 2.75 10.55 3.1 L10.4 2.95 10.5 2.9 10.5 2.7 9.65 1.2 9.4 1.05 9.1 0.8 9.25 0.7 M8.5 -0.95 L8.4 -1.05 8.75 -0.95 8.5 -0.95 M9.55 -0.55 L10.15 -0.55 10.45 -0.5 10.5 -0.45 10.8 -0.25 9.1 -0.2 9.1 -0.3 9.2 -0.4 9.55 -0.55 M12.1 -3.7 L12.35 -3.8 14.85 -5.3 Q12.85 -5.05 12.1 -3.7 M7.15 -1.85 L7.15 -1.9 9.3 -2.2 16.1 -3.1 16.6 -3.15 20.15 -2.9 20.7 -2.9 23.25 -2.65 22.85 -2.55 20.5 -2.3 20.5 -2.25 21.45 -2.2 21.0 -2.05 25.2 -2.45 25.6 -2.4 Q25.35 -2.15 25.5 -1.8 L25.7 -1.85 25.95 -1.9 23.5 -0.5 23.85 -0.15 18.25 -0.15 19.65 -0.3 19.6 -0.3 15.1 -0.2 14.65 -0.25 14.6 -0.3 14.5 -0.5 13.4 -0.4 13.15 -0.55 23.5 -0.45 23.4 -0.5 13.85 -1.35 13.85 -1.55 13.75 -1.75 12.5 -1.55 12.15 -2.3 Q11.95 -2.35 12.0 -2.2 L12.25 -1.5 11.9 -1.4 9.6 -1.35 9.15 -1.15 7.9 -1.4 7.15 -1.85 M7.05 -3.55 L7.25 -3.55 6.8 -3.4 7.05 -3.55 M6.9 -2.3 L6.6 -2.4 6.0 -2.4 6.1 -2.5 6.25 -2.7 6.15 -2.85 6.1 -2.85 7.95 -3.5 10.4 -3.4 13.95 -3.3 12.15 -3.1 6.95 -2.25 6.9 -2.3 M6.05 -3.15 L6.5 -3.6 6.95 -3.55 6.75 -3.4 6.05 -3.15 M6.45 -6.3 L6.7 -6.55 6.85 -6.45 6.75 -6.4 6.45 -6.3 M4.15 -6.3 L4.2 -6.4 7.4 -8.0 6.5 -6.75 6.6 -6.65 6.3 -6.25 2.85 -4.9 4.15 -6.3 M5.35 -7.65 L5.5 -7.85 5.7 -8.1 5.85 -8.0 5.35 -7.65 M10.3 -5.95 L13.0 -8.1 15.5 -9.05 17.6 -9.5 17.65 -9.45 18.35 -9.45 18.45 -9.35 16.6 -8.45 18.5 -9.15 18.6 -9.2 19.0 -8.95 Q18.1 -8.65 17.45 -8.05 L16.0 -7.8 16.0 -7.75 16.75 -7.8 15.75 -7.45 16.65 -7.45 16.8 -7.45 16.75 -7.45 16.9 -7.45 16.95 -7.5 19.15 -7.75 17.55 -6.55 17.6 -6.4 17.85 -6.25 18.35 -6.35 Q19.4 -6.6 20.25 -7.05 L20.25 -7.25 20.15 -7.6 20.25 -7.7 20.5 -7.55 20.3 -7.45 20.65 -7.45 21.0 -7.35 21.35 -7.25 20.8 -6.7 22.5 -6.4 22.0 -6.15 17.55 -5.6 16.55 -5.4 Q16.95 -5.75 17.15 -6.3 L17.0 -6.5 16.85 -6.5 16.65 -6.5 16.6 -6.45 Q15.95 -6.05 15.75 -5.35 L15.85 -5.25 Q14.7 -4.95 13.8 -4.45 L21.35 -5.2 21.0 -5.05 22.95 -5.3 23.45 -5.45 25.6 -5.8 25.7 -5.8 29.4 -6.05 29.25 -5.95 29.75 -5.95 29.85 -5.95 30.05 -6.0 30.65 -6.1 30.8 -6.1 29.5 -5.3 29.5 -5.15 29.65 -4.95 29.75 -4.95 29.65 -4.85 Q28.1 -4.8 27.15 -3.7 L27.1 -3.3 26.85 -3.2 24.3 -2.85 22.7 -3.0 24.6 -3.35 24.6 -3.55 24.55 -3.65 24.75 -3.7 Q26.35 -4.1 27.0 -4.95 L26.15 -4.85 15.45 -3.5 8.8 -3.85 Q11.5 -4.9 14.1 -6.3 11.15 -4.95 8.15 -3.85 L7.6 -3.9 Q9.0 -4.85 10.3 -5.95 M10.0 -11.35 L8.7 -9.75 7.35 -8.9 8.0 -9.85 8.1 -9.8 10.0 -11.35 M12.8 -10.8 L12.6 -10.75 11.95 -10.45 10.3 -9.55 9.25 -8.95 9.4 -8.95 9.05 -8.7 Q10.35 -8.25 10.85 -9.45 L10.9 -9.55 13.35 -10.45 Q13.6 -10.15 14.0 -9.9 L14.25 -9.8 13.7 -9.4 12.85 -9.05 12.55 -9.05 11.5 -8.65 9.5 -8.05 9.95 -8.05 8.0 -7.2 8.2 -7.2 9.15 -7.5 7.7 -6.85 7.25 -6.65 7.3 -6.75 8.8 -8.75 9.15 -9.1 13.5 -11.95 13.3 -11.0 12.8 -10.8 M2.85 -3.1 L1.55 -3.6 1.7 -3.8 Q5.45 -5.2 9.2 -6.75 L11.35 -7.5 7.3 -3.9 6.75 -3.95 6.7 -3.95 6.6 -3.95 6.6 -3.9 5.3 -3.25 4.85 -3.35 3.6 -2.75 3.4 -2.75 3.35 -2.8 2.85 -3.1 M1.6 -4.0 L1.3 -3.7 0.95 -3.75 1.0 -3.8 1.6 -4.0 M15.85 -15.15 Q14.6 -14.25 13.95 -13.1 L11.55 -11.55 Q14.0 -14.55 16.95 -17.05 L15.85 -15.15 M36.85 -7.5 L36.2 -7.3 36.5 -7.5 36.85 -7.5 M37.6 -7.45 L37.1 -7.3 36.7 -7.3 37.15 -7.45 37.6 -7.45 M35.7 -7.25 L34.05 -6.95 34.0 -7.0 34.1 -7.35 34.4 -7.6 36.35 -7.5 35.7 -7.25 M26.0 0.55 L26.9 0.25 32.4 -0.35 30.75 0.65 30.35 0.55 27.9 0.6 26.0 0.55 M27.5 -1.25 L27.55 -0.95 27.35 -1.0 26.8 -0.9 26.15 -0.85 26.55 -1.05 27.5 -1.4 27.5 -1.25 M26.95 -2.1 L27.3 -2.15 27.25 -2.0 27.6 -1.9 27.65 -1.8 27.5 -1.55 25.25 -0.45 26.5 -0.55 27.55 -0.85 28.0 -0.5 27.8 -0.45 27.2 -0.25 24.3 -0.15 23.85 -0.5 24.15 -0.65 26.95 -2.1 M32.3 -7.3 L33.1 -7.65 33.9 -7.6 33.75 -7.5 33.1 -7.25 32.3 -7.3 M30.4 -7.0 L30.0 -6.85 22.95 -6.25 24.75 -6.85 Q27.45 -6.8 30.25 -7.7 L31.3 -7.7 31.1 -7.45 31.65 -7.6 31.95 -7.65 32.4 -7.65 31.55 -7.25 30.4 -7.0 M21.9 0.55 L17.55 0.4 23.1 0.45 24.75 0.4 24.4 0.5 21.9 0.55 M18.6 -1.85 L18.55 -1.85 Q18.95 -1.35 19.75 -1.45 L19.65 -1.5 18.6 -1.85 M19.65 -3.55 L19.6 -3.5 19.75 -3.35 19.85 -3.35 19.65 -3.2 17.95 -3.35 19.25 -3.5 19.65 -3.55 M15.0 0.55 L15.5 0.55 18.4 0.95 21.6 1.65 18.25 2.2 22.35 1.85 24.1 2.45 25.65 3.0 25.6 3.05 Q23.55 2.5 22.25 3.65 L22.15 4.2 22.3 4.75 21.95 4.9 15.0 0.55 M14.1 -8.75 L14.95 -8.9 13.45 -8.45 14.1 -8.75 M14.4 -8.55 L14.25 -8.5 13.1 -7.7 13.4 -7.8 14.4 -8.55 M22.9 -6.85 L22.8 -7.0 23.7 -6.9 22.9 -6.55 23.0 -6.7 22.9 -6.85 M19.2 -8.85 L19.6 -8.65 18.15 -8.25 19.2 -8.85 M22.3 -9.5 L22.05 -9.7 22.55 -9.6 22.3 -9.5 M33.95 23.9 L32.8 23.15 Q27.1 19.85 22.0 15.8 L23.9 15.75 26.7 17.5 Q27.4 19.3 29.65 19.65 L29.75 19.7 Q30.05 20.5 30.85 20.95 32.8 22.05 34.05 23.9 L33.95 23.9 M-5.45 4.0 L-4.45 3.95 -5.15 5.25 -4.45 5.3 -5.4 6.65 -5.1 5.7 -6.15 7.25 -5.95 7.45 -7.2 9.55 -8.3 11.4 -10.2 13.8 -13.55 18.0 Q-15.4 19.2 -16.85 20.9 L-17.6 20.65 -17.45 20.45 Q-15.05 18.0 -13.25 15.55 L-13.4 15.6 -13.65 15.65 -14.9 16.9 -12.1 13.2 -12.3 13.3 -15.75 17.55 -15.55 17.55 -18.15 20.5 -17.7 20.65 Q-18.45 20.6 -18.95 21.45 L-19.5 22.05 -20.8 23.3 -21.5 24.05 -19.35 21.45 -19.6 21.5 -22.35 24.5 -23.1 24.9 -19.7 21.3 -19.2 21.2 -19.2 21.1 Q-19.0 20.65 -19.25 20.3 L-19.4 20.3 -19.6 20.3 -19.7 20.45 -23.45 24.9 Q-23.8 24.75 -24.0 24.4 L-22.55 22.1 -22.2 21.95 Q-20.5 20.75 -19.1 19.05 L-19.05 19.05 -19.5 19.8 -19.25 19.75 -19.15 19.6 -18.5 18.75 Q-17.5 18.15 -16.65 17.35 L-17.75 18.9 -18.75 19.8 -18.45 19.7 -18.15 19.55 -17.95 19.5 -17.75 19.25 -17.35 18.7 -17.35 18.65 -14.6 15.0 Q-10.4 9.35 -5.7 4.1 L-5.6 4.15 Q-5.15 4.45 -5.45 4.0 M-2.3 3.85 L-2.05 3.3 -2.0 3.4 -2.3 4.05 -2.3 3.85 M-3.9 3.95 L-3.65 3.65 -3.7 4.2 -3.8 4.35 -3.9 4.25 -4.0 4.15 -3.9 3.95 M2.2 5.6 L3.05 5.2 Q2.85 6.4 3.1 8.05 L3.15 8.45 Q3.0 8.4 3.0 8.5 2.95 9.15 3.15 9.7 L2.9 11.5 1.5 5.05 3.15 4.8 3.1 5.0 2.0 5.65 2.2 5.6 M0.75 6.25 L1.3 5.15 2.6 11.8 2.75 12.55 2.35 15.7 2.25 14.9 2.25 14.8 2.2 14.8 0.75 6.25 M0.6 5.3 L0.5 4.95 0.75 5.0 0.6 5.3 M0.3 5.7 L0.3 5.85 -0.7 7.9 0.0 5.8 0.15 5.55 0.15 5.5 0.25 5.3 0.3 5.7 M3.85 9.7 L3.9 9.2 5.05 16.0 5.15 16.4 4.9 18.65 4.65 18.65 4.6 18.45 3.85 9.7 M4.05 8.45 L4.85 9.0 Q5.4 9.8 6.05 10.1 L5.9 11.2 Q5.6 11.55 5.65 12.15 L5.7 12.35 5.25 15.45 4.05 8.45 M7.9 9.05 L8.25 8.95 11.4 12.15 13.35 15.25 10.65 12.45 8.35 10.0 7.9 9.05 M6.55 10.25 L6.35 10.05 6.45 8.9 7.0 9.7 6.85 10.55 6.95 10.45 7.1 9.85 7.2 10.0 Q7.5 14.2 8.15 18.35 7.75 18.9 8.0 19.7 L8.45 20.25 8.5 20.25 9.0 22.9 9.3 22.65 9.25 22.45 9.05 21.1 9.6 22.15 Q9.6 25.5 10.2 28.85 L9.8 28.45 9.7 28.05 9.45 27.4 8.55 25.4 6.85 18.1 Q6.3 15.8 6.2 13.55 L6.35 10.3 6.35 10.2 6.55 10.25 M7.45 8.15 L7.85 8.5 7.6 8.55 7.45 8.2 7.45 8.15 M7.65 6.9 L7.7 6.55 9.55 9.3 10.85 11.3 8.45 8.85 8.5 8.8 8.4 8.65 8.25 8.45 8.1 8.45 7.5 7.85 7.6 7.15 7.75 7.05 7.65 6.9 M7.1 5.65 L7.45 6.15 7.4 6.6 7.0 6.1 7.1 5.65 M6.7 6.85 L6.7 6.9 6.55 6.7 6.7 6.85 M6.75 7.0 L6.75 6.9 7.15 7.3 7.3 7.25 7.25 7.6 6.95 7.35 6.75 7.0 M6.3 4.5 L6.25 4.4 6.2 4.35 6.3 4.5 6.35 4.5 7.0 5.5 6.9 5.95 Q6.4 5.2 6.25 4.45 L6.3 4.5 M7.7 4.1 L7.55 5.3 7.35 5.0 7.7 4.1 M5.25 6.1 L5.3 6.25 Q4.95 6.6 5.25 7.25 5.65 8.35 6.3 8.8 L6.1 9.8 5.1 8.75 5.05 8.6 4.25 6.8 4.5 5.35 5.05 5.85 5.25 6.1 M3.25 5.1 L3.3 5.1 3.35 5.45 3.4 5.7 3.35 5.7 3.25 5.1 M3.65 5.55 L3.6 4.95 3.9 4.8 3.8 5.55 3.65 5.55 M3.7 4.6 L3.75 4.6 3.55 4.7 3.55 4.65 3.7 4.6 M3.25 4.75 L3.3 4.85 3.2 4.9 3.2 4.8 3.25 4.75 M5.2 4.15 L5.4 4.2 5.75 5.4 5.6 5.2 5.5 5.25 5.4 5.15 5.15 4.95 Q5.0 4.9 5.05 5.0 L5.25 5.4 5.1 5.45 5.1 5.5 4.95 5.4 4.6 4.75 4.65 4.4 5.2 4.15 M5.0 3.0 L5.1 2.7 5.2 2.85 5.25 2.95 5.0 3.0 M7.1 3.2 L7.55 3.65 7.3 4.2 7.15 4.8 6.25 3.6 7.1 3.2 M7.55 2.7 L7.25 2.8 6.35 1.85 7.55 2.7 M8.15 3.2 L8.05 3.25 8.1 3.0 8.2 3.1 8.8 4.45 8.05 3.65 8.05 3.4 8.15 3.2 M7.8 2.85 L7.85 2.9 7.8 3.4 7.45 3.0 7.8 2.85 M6.0 2.2 L5.85 2.2 Q5.65 2.3 5.5 2.45 L5.45 2.55 5.25 2.3 5.4 2.1 5.65 1.75 5.8 1.75 6.05 2.0 6.9 3.0 6.1 3.35 6.15 2.75 6.35 2.55 6.3 2.4 6.0 2.2 M7.05 1.35 L7.5 2.3 7.6 2.3 7.55 2.4 6.25 1.55 6.15 1.45 6.1 1.45 5.95 1.3 6.05 1.1 7.05 1.35 M7.85 2.4 L7.9 2.55 7.8 2.6 7.7 2.55 7.85 2.4 M10.15 4.15 L10.2 4.2 11.1 5.2 10.0 5.0 9.65 3.9 10.15 4.15 M10.45 3.15 L10.35 3.25 12.2 4.6 13.65 5.35 11.05 4.35 10.15 3.15 10.3 3.05 10.45 3.15 M8.85 2.1 L8.25 1.2 8.7 1.05 9.15 2.0 8.85 2.1 M8.9 2.25 L9.05 2.15 9.8 3.75 9.55 3.6 8.9 2.25 M31.2 13.75 L30.75 13.75 29.5 13.0 31.2 13.75 M20.3 18.0 Q18.3 17.15 16.2 16.8 L13.05 13.6 Q10.6 9.5 7.8 5.7 L8.0 4.15 9.3 5.65 9.55 6.3 9.85 6.45 9.95 6.4 15.6 13.1 16.8 14.5 12.75 11.95 12.55 11.9 17.35 15.1 20.3 18.0 M13.5 14.4 L13.45 14.3 15.8 16.75 14.8 16.65 13.5 14.4 M13.5 15.8 L13.6 15.65 14.2 16.65 12.9 16.65 Q11.95 15.4 10.55 14.8 L10.1 14.75 8.65 10.7 Q8.5 10.65 8.5 10.75 L9.15 12.8 Q8.4 14.55 8.75 16.85 L8.85 17.5 8.55 17.85 7.5 10.4 7.85 10.8 8.1 10.8 8.55 10.55 8.55 10.5 Q10.8 13.25 13.5 15.8 M20.75 17.75 L20.75 17.55 20.2 16.9 24.8 19.6 23.15 19.55 21.1 18.35 20.75 17.95 20.75 17.75 M23.35 10.4 L21.75 9.4 24.05 10.5 23.35 10.4 M21.65 10.75 L21.55 10.6 22.1 10.85 21.65 10.75 M22.5 11.05 L22.65 11.15 22.1 11.2 21.9 11.05 22.5 11.05 M22.45 10.75 L22.8 10.8 23.3 11.1 22.45 10.75 M21.95 10.25 L21.45 10.2 21.1 10.0 20.5 9.6 Q19.55 9.0 18.75 8.3 L21.95 10.25 M14.55 9.05 L14.85 9.4 14.8 9.5 15.1 9.65 16.4 11.05 Q16.3 11.55 16.35 12.2 17.0 13.1 18.05 13.2 18.25 14.05 18.95 14.6 20.0 15.4 21.3 15.7 L21.6 15.95 Q27.2 20.25 33.4 23.8 L30.4 23.25 Q29.7 20.75 26.65 20.65 L25.05 19.65 19.75 16.35 18.25 14.65 Q19.25 15.3 20.35 15.65 L20.0 15.45 Q18.05 14.05 16.35 12.45 L12.8 8.65 10.25 6.0 10.25 5.95 10.05 5.15 11.2 5.35 13.85 8.3 10.75 5.95 10.6 6.0 13.25 8.05 14.55 9.05 M15.55 9.8 L15.65 9.85 16.65 10.55 16.5 10.85 15.55 9.8 M16.45 10.15 L16.85 10.25 16.75 10.35 Q16.6 10.2 16.45 10.15 M14.9 6.0 L15.0 6.1 17.55 7.55 17.85 8.4 19.45 9.4 19.25 9.4 18.9 9.2 18.85 9.15 18.65 8.95 18.25 8.75 18.05 8.75 17.45 8.45 16.9 8.05 Q14.6 6.3 12.0 5.5 L14.75 7.25 14.8 7.55 15.05 8.3 17.65 9.65 17.4 9.8 15.1 9.2 14.85 9.05 11.3 4.7 14.75 5.95 14.9 6.0 M21.4 5.4 L21.75 5.6 21.25 5.45 21.4 5.4 M22.55 5.05 L22.9 5.3 22.95 5.5 22.95 5.6 22.3 5.15 22.55 5.05 M23.25 1.4 L22.85 1.45 22.3 1.3 23.25 1.4 M23.9 11.15 L23.75 10.95 26.1 11.45 27.7 12.2 30.3 13.75 29.1 13.7 Q27.5 13.6 26.15 12.8 L26.15 12.75 26.25 12.8 26.5 12.75 25.7 12.25 Q24.95 11.45 24.0 11.2 L23.9 11.15 M24.4 10.25 L24.7 10.3 25.05 10.55 Q24.7 10.35 24.4 10.25 M24.9 7.6 Q24.7 8.35 25.2 8.8 18.95 6.3 13.35 2.55 L12.15 1.65 17.8 3.4 21.15 5.3 21.0 5.35 16.85 4.0 Q16.7 4.65 18.3 5.1 L20.4 5.7 20.05 5.9 20.25 6.05 20.4 6.05 20.45 5.9 20.5 5.75 23.15 6.45 24.9 7.6 M25.15 6.95 L25.0 6.9 25.15 6.95 M23.65 1.6 L24.35 1.45 26.25 1.55 25.85 1.95 25.8 2.25 23.55 1.6 23.65 1.6 M33.7 13.5 L33.9 13.75 31.75 13.75 27.8 11.85 Q30.75 12.55 33.7 13.5 M-6.8 3.0 L-6.45 3.3 -6.45 4.05 -6.45 4.15 -7.4 4.15 -6.9 3.75 -6.95 3.55 -7.25 2.8 -7.2 2.75 -6.5 2.6 -6.8 3.0 M7.9 24.25 L7.95 24.35 7.9 24.3 7.9 24.25 M6.15 18.2 Q6.0 18.15 6.0 18.25 L6.2 19.7 6.1 19.6 5.9 18.55 5.7 17.6 6.05 14.7 7.1 20.55 Q7.3 22.45 7.85 24.2 L7.15 23.15 7.05 22.85 Q7.25 21.4 6.5 20.15 L6.15 18.2 M5.5 18.95 L5.55 18.65 5.65 19.1 5.5 18.95 M3.8 15.35 L3.3 13.4 3.55 11.85 3.9 15.85 3.8 15.35 M9.8 14.85 L9.25 15.25 9.15 12.9 9.8 14.85 M0.6 22.4 L0.95 21.85 1.05 21.6 0.45 28.5 0.4 28.55 0.35 28.55 0.35 28.5 0.3 26.9 0.6 22.4 M1.05 20.9 L1.2 19.65 1.1 21.15 1.0 21.0 1.05 20.9 M2.8 19.7 L2.55 20.05 2.65 19.05 2.8 19.7 M2.7 18.35 L2.9 16.4 3.15 14.5 4.1 18.2 4.15 19.1 3.85 19.95 Q3.3 20.2 3.0 20.65 L3.25 19.3 2.85 19.65 2.7 18.35 M2.1 16.55 L2.2 17.05 1.75 21.15 1.9 21.3 2.15 21.2 Q1.7 22.9 1.8 24.4 L1.8 24.55 1.35 25.65 Q1.65 21.05 2.1 16.55 M0.55 8.05 L0.4 7.7 0.5 7.55 0.55 7.55 1.8 15.1 1.6 15.5 1.55 15.5 Q1.1 18.05 0.8 20.65 L0.4 20.15 0.2 19.3 Q-0.6 18.3 -1.45 18.25 L-1.35 17.95 -1.45 18.1 Q-1.25 17.6 -1.45 17.2 L-0.6 12.95 -0.7 12.95 -0.65 12.7 -0.6 12.8 -0.35 12.45 0.15 11.7 0.0 11.5 -0.4 11.45 -0.35 11.2 -0.45 11.3 -0.5 11.6 -0.55 11.65 -0.6 12.1 -1.7 16.85 -3.0 16.9 -4.3 18.45 -1.45 11.15 -1.45 11.55 -1.15 11.7 -0.9 11.6 -0.85 11.55 -0.8 11.45 -0.3 9.8 -0.2 9.8 -0.05 9.3 -0.05 9.2 0.55 8.05 M-2.65 11.2 L-2.55 11.0 -1.75 9.3 -1.65 9.3 -1.4 9.25 -1.25 9.15 -1.15 8.95 -0.9 8.4 -0.95 8.5 -0.9 8.7 -1.75 10.05 -2.4 11.5 -2.65 11.2 M-3.6 12.15 L-3.4 12.25 -2.7 12.2 Q-4.3 15.8 -5.55 19.6 L-6.45 20.35 -5.2 16.65 -4.1 13.45 -3.6 12.7 -4.0 13.15 -3.6 12.15 M-4.95 11.0 L-4.8 10.8 -4.2 9.95 -4.65 11.9 -7.35 17.2 -8.6 18.75 -6.15 13.0 -5.55 11.95 -5.5 12.2 -5.25 12.3 -5.1 12.3 -5.1 11.95 -4.95 11.0 M-3.35 10.1 L-3.2 10.05 -3.9 11.95 -3.8 12.0 -4.2 13.0 -4.4 13.7 -6.35 16.0 -3.35 10.1 M-2.35 5.85 L-2.35 5.95 -2.3 6.65 Q-3.1 7.9 -3.35 9.3 L-4.1 10.7 -3.65 8.95 -3.2 7.85 -3.0 7.8 -3.1 7.65 -3.25 7.5 -2.4 5.9 -2.35 5.85 M-3.7 4.55 L-3.3 5.35 -3.65 6.7 -4.45 8.4 -5.65 10.5 -5.6 10.65 -6.75 12.05 -6.45 12.0 -6.3 11.85 -5.7 11.2 -7.4 15.05 -6.9 14.3 -7.85 16.45 -8.1 16.5 -10.0 18.3 -9.85 18.3 Q-8.65 17.5 -7.85 16.5 L-9.25 19.6 -10.9 21.65 Q-12.7 22.25 -13.45 24.5 L-13.5 24.65 Q-15.2 25.75 -16.6 27.2 L-12.35 20.95 -12.45 21.0 -18.4 28.85 -19.45 28.8 Q-17.3 24.85 -13.9 21.65 L-14.25 22.3 -14.0 22.25 -13.4 21.15 -12.6 20.45 Q-11.55 19.6 -11.6 18.55 -9.5 15.85 -7.85 12.95 L-7.1 11.95 -7.3 12.05 -7.5 12.3 -6.1 9.4 -6.25 9.5 -8.55 13.45 Q-10.1 15.25 -11.1 17.45 L-11.6 18.25 -11.65 18.1 -10.7 16.45 -7.5 10.85 -4.5 7.3 -4.25 7.25 -4.1 7.05 -4.1 6.9 -4.1 6.7 -4.25 6.5 -4.4 6.5 -4.65 6.55 -6.3 8.85 -4.15 5.1 -3.7 4.45 -3.75 4.4 -3.7 4.3 -3.7 4.55 M-5.6 4.45 L-5.75 4.55 Q-9.0 8.45 -11.75 12.55 L-11.5 12.5 -11.4 12.35 Q-8.3 8.5 -5.6 4.45 M-6.35 6.4 L-5.75 6.5 -5.65 6.3 -5.65 6.15 -5.8 5.95 -6.0 5.75 -6.15 5.75 -6.4 5.8 -6.5 6.0 -7.15 7.05 -6.35 6.4 M-6.35 4.2 L-6.2 4.25 -7.15 5.25 Q-9.75 5.6 -12.0 6.9 L-11.6 6.5 -10.85 6.3 Q-9.4 5.75 -9.55 4.65 L-7.85 3.15 -7.75 3.15 -7.75 3.3 -7.5 3.85 -7.95 4.2 -8.75 4.2 -8.05 4.25 -9.25 5.3 -7.55 4.3 -6.4 4.3 -6.35 4.2 M-5.7 1.25 L-5.8 1.3 -5.7 1.2 -5.7 1.25 M-15.15 -33.55 L-15.0 -33.35 -14.4 -32.0 -14.4 -31.85 -14.35 -31.7 -15.1 -32.8 -15.4 -32.95 -15.5 -33.0 -15.5 -33.8 -15.15 -33.55 M-14.3 -31.25 L-14.15 -30.1 -14.9 -32.2 -14.3 -31.25 M-10.05 -23.85 L-9.6 -22.35 -10.2 -22.85 -11.65 -25.05 -13.05 -29.2 -10.5 -25.5 -10.15 -24.3 -10.05 -23.85 M-10.7 -26.35 L-10.7 -26.25 -11.05 -26.8 -10.7 -26.35 M-8.1 -18.75 L-8.2 -19.75 -7.75 -17.7 -8.1 -18.75 M-10.85 -19.55 Q-10.75 -20.0 -10.8 -20.5 L-10.8 -20.6 -8.95 -15.35 -9.05 -15.5 -9.6 -16.35 Q-9.65 -17.95 -10.85 -19.55 M-12.0 -22.75 L-12.0 -23.2 -11.6 -22.75 -11.35 -22.1 -12.0 -22.75 M-9.45 -21.75 L-9.15 -20.8 -8.8 -17.15 -9.25 -18.4 -10.6 -22.1 -9.45 -21.75 M-16.65 -18.75 L-15.55 -17.3 Q-15.5 -16.1 -14.9 -14.55 L-14.4 -13.3 -15.25 -14.2 Q-15.3 -14.85 -15.6 -15.4 L-17.05 -19.0 -16.65 -18.75 M-17.4 -6.1 L-17.35 -6.05 -17.45 -6.1 -17.4 -6.1 M-13.15 -12.15 L-13.25 -12.2 -15.4 -17.05 -13.75 -14.95 Q-13.35 -13.2 -12.2 -13.05 L-11.5 -11.65 -12.65 -11.95 -13.15 -12.15 M-26.4 -6.0 Q-22.2 -5.8 -18.1 -6.05 L-14.4 -3.65 -20.45 -4.7 Q-20.65 -5.6 -21.65 -5.55 L-26.85 -5.9 -26.4 -6.0 M-25.05 0.85 L-23.75 0.9 Q-21.95 1.3 -21.1 0.1 L-20.1 0.05 -20.05 0.0 -20.95 -0.15 -20.85 -0.35 -20.0 -0.05 -20.0 0.0 -19.8 0.0 -17.85 0.15 -18.25 -0.05 -18.5 -0.1 -10.85 -1.05 -10.9 -1.05 -18.85 -0.25 -20.3 -0.75 -20.15 -0.85 Q-19.6 -1.25 -19.8 -1.85 L-20.15 -2.5 -14.4 -3.1 -13.15 -2.85 -9.6 -0.8 -9.3 -0.85 -9.15 -1.0 -7.95 -0.15 -8.6 0.2 -8.65 0.3 -8.6 0.5 -8.55 0.85 -12.65 0.55 -14.5 0.7 Q-18.7 0.85 -22.75 1.7 L-20.65 1.65 Q-13.5 0.6 -6.35 1.5 L-8.25 2.45 -8.25 2.6 -8.2 2.7 Q-10.45 3.1 -12.45 3.95 L-15.15 4.1 -12.0 2.75 -12.4 3.05 Q-10.45 2.0 -8.4 2.0 L-8.5 2.15 -8.5 2.3 -8.15 2.05 -8.1 1.9 -8.1 1.8 -9.4 1.65 -9.6 1.7 Q-11.05 2.1 -11.95 2.7 L-12.2 2.8 Q-13.55 3.2 -14.8 3.75 -13.75 3.15 -12.6 2.7 L-12.95 2.75 Q-14.5 3.25 -15.85 4.0 L-16.85 2.5 -17.05 2.3 -12.85 1.2 Q-15.1 1.25 -17.25 2.0 L-17.55 2.1 Q-20.15 1.55 -22.3 2.5 L-23.4 2.4 -21.1 1.95 -26.9 2.4 -24.6 1.7 -24.9 1.7 -32.05 3.0 -31.5 2.65 -27.85 1.5 -27.45 1.35 -25.05 0.85 M-18.5 -3.45 L-19.2 -4.05 -15.6 -3.35 -19.55 -3.0 Q-19.05 -3.25 -18.5 -3.45 M-8.9 21.45 L-9.2 21.45 -7.75 18.75 -4.6 14.2 -7.1 20.8 -8.5 21.65 -8.9 21.45 M-15.2 16.25 L-14.6 15.7 -14.9 15.8 -15.5 16.3 -15.2 16.25 M-11.15 15.85 L-11.35 15.9 -9.25 13.1 -11.8 17.65 -12.15 17.4 -11.0 15.8 -11.15 15.85 M-24.1 3.6 L-25.6 3.85 Q-27.15 3.45 -28.4 4.4 L-29.2 4.45 Q-26.1 2.95 -22.6 2.6 L-24.1 3.6 M-24.1 2.5 L-25.9 2.95 Q-28.0 3.5 -29.85 4.45 L-34.1 4.5 -33.0 3.65 -31.0 3.35 -24.1 2.5 M-20.4 4.7 L-20.75 5.0 -21.4 4.95 -21.5 4.9 -21.6 4.8 Q-20.7 4.3 -19.65 4.15 L-19.35 4.15 -19.4 4.2 -20.4 4.7 M-9.55 6.65 L-9.6 6.45 Q-9.95 6.5 -10.25 6.85 L-11.55 8.3 -13.95 10.8 -14.05 10.95 -14.5 10.7 -14.65 10.5 -13.7 9.15 -12.95 8.2 -12.55 7.9 Q-9.95 6.0 -7.2 5.3 L-9.45 7.9 -15.2 15.35 -14.6 14.0 -14.05 13.5 -13.4 12.45 -11.1 9.7 -11.3 9.8 -13.35 12.0 -13.45 11.6 -12.6 10.2 -12.75 10.3 -13.6 11.35 -13.7 11.25 -9.85 6.9 Q-9.6 7.3 -9.5 6.8 L-9.55 6.65 M-9.9 3.55 L-10.2 3.7 -10.75 3.75 -9.9 3.55 M-8.75 3.3 L-7.9 3.15 -9.6 4.4 -9.8 3.85 -8.75 3.3 M-11.0 -2.45 L-10.9 -2.45 -9.5 -1.25 -11.7 -2.6 -11.0 -2.45 M-11.9 -3.35 L-11.7 -3.2 -12.4 -3.3 -11.9 -3.35 M-14.2 -4.95 L-13.15 -4.65 -12.05 -3.5 -13.15 -3.45 -15.35 -4.8 -14.2 -4.95 M-12.9 -8.7 L-12.55 -9.4 -11.8 -8.15 -12.9 -8.7 M-10.65 -5.35 L-10.25 -5.8 -9.85 -5.25 -10.65 -5.35 M-10.55 -6.25 L-10.45 -6.05 -10.6 -5.85 -10.55 -6.25 M-11.15 -5.2 L-10.85 -5.2 -10.75 -5.25 -9.8 -5.2 -8.05 -3.0 -8.4 -2.9 -9.5 -2.85 -11.1 -3.1 -11.45 -3.4 -10.1 -3.55 -11.0 -3.55 -11.6 -3.5 -12.7 -4.6 Q-11.8 -4.6 -11.15 -5.2" fill="#000000" fill-rule="evenodd" stroke="none"/>
  </g>
</svg>
