<?xml version="1.0" encoding="UTF-8" standalone="no"?>
<svg xmlns:xlink="http://www.w3.org/1999/xlink" height="57.0px" width="36.3px" xmlns="http://www.w3.org/2000/svg">
  <g transform="matrix(1.0, 0.0, 0.0, 1.0, 16.65, 48.9)">
    <path d="M19.5 -41.0 L19.5 -40.95 18.5 -39.75 Q12.85 -33.3 14.0 -22.55 15.05 -12.3 12.55 -3.1 10.0 6.5 1.05 7.85 -10.4 9.55 -9.8 -1.55 -10.4 -3.45 -9.95 -6.55 -8.65 -15.65 -11.0 -25.25 -12.35 -30.75 -15.9 -35.4 L-15.95 -35.75 Q-16.1 -37.65 -16.6 -39.25 L-16.6 -42.9 -16.15 -44.75 -14.25 -45.9 -13.75 -46.25 -8.9 -46.25 Q-7.2 -45.0 -5.1 -44.8 L-3.95 -43.45 -3.25 -42.5 Q-2.65 -40.75 -1.6 -39.45 L-1.15 -36.1 Q-0.1 -30.05 5.25 -29.9 9.8 -29.75 9.15 -36.15 8.7 -40.5 8.65 -44.8 9.55 -46.05 10.25 -47.75 L14.3 -48.75 14.75 -48.9 Q16.2 -48.3 17.75 -48.15 20.15 -45.15 19.5 -41.0" fill="url(#gradient0)" fill-rule="evenodd" stroke="none"/>
  </g>
  <defs>
    <radialGradient cx="0" cy="0" gradientTransform="matrix(0.0392, 0.0, 0.0, 0.0392, 1.5, -20.4)" gradientUnits="userSpaceOnUse" id="gradient0" r="819.2" spreadMethod="pad">
      <stop offset="0.0" stop-color="#4e0707"/>
      <stop offset="0.16470588235294117" stop-color="#b41010"/>
      <stop offset="0.5294117647058824" stop-color="#e23612"/>
      <stop offset="0.807843137254902" stop-color="#fd5037"/>
      <stop offset="1.0" stop-color="#fd5037" stop-opacity="0.0"/>
    </radialGradient>
  </defs>
</svg>
