<?xml version="1.0" encoding="UTF-8" standalone="no"?>
<svg xmlns:xlink="http://www.w3.org/1999/xlink" height="98.8px" width="53.9px" xmlns="http://www.w3.org/2000/svg">
  <g transform="matrix(1.0, 0.0, 0.0, 1.0, 27.5, 90.7)">
    <path d="M6.2 -89.35 Q11.75 -81.6 6.9 -72.2 2.6 -64.0 -0.05 -55.0 -2.8 -45.75 -1.15 -36.1 -0.1 -30.05 5.25 -29.9 9.8 -29.75 9.15 -36.15 8.2 -45.8 8.95 -55.5 9.55 -63.05 16.5 -64.85 28.05 -67.9 26.15 -56.05 24.6 -46.75 18.5 -39.75 12.85 -33.3 14.0 -22.55 15.05 -12.3 12.55 -3.1 10.0 6.5 1.05 7.85 -10.4 9.55 -9.8 -1.55 -10.4 -3.45 -9.95 -6.55 -8.65 -15.65 -11.0 -25.25 -13.0 -33.45 -20.0 -39.75 -26.3 -45.4 -27.4 -54.6 -27.8 -58.05 -26.6 -61.1 -22.5 -71.6 -15.2 -60.8 -12.75 -57.2 -9.7 -55.7 -6.35 -54.0 -5.95 -56.75 -4.45 -66.45 -6.05 -75.9 -7.9 -86.85 1.5 -90.25 4.7 -91.45 6.2 -89.35" fill="url(#gradient0)" fill-rule="evenodd" stroke="none"/>
  </g>
  <defs>
    <radialGradient cx="0" cy="0" gradientTransform="matrix(0.0607, 0.0, 0.0, 0.0607, -0.55, -41.3)" gradientUnits="userSpaceOnUse" id="gradient0" r="819.2" spreadMethod="pad">
      <stop offset="0.0" stop-color="#4e0707"/>
      <stop offset="0.16470588235294117" stop-color="#b41010"/>
      <stop offset="0.5294117647058824" stop-color="#e23612"/>
      <stop offset="0.807843137254902" stop-color="#fd5037"/>
      <stop offset="1.0" stop-color="#fd5037" stop-opacity="0.0"/>
    </radialGradient>
  </defs>
</svg>
