<?xml version="1.0" encoding="UTF-8" standalone="no"?>
<svg xmlns:xlink="http://www.w3.org/1999/xlink" height="40.85px" width="40.55px" xmlns="http://www.w3.org/2000/svg">
  <g transform="matrix(1.0, 0.0, 0.0, 1.0, 22.0, 32.15)">
    <path d="M1.9 -31.95 Q7.25 -32.3 12.6 -32.1 13.55 -32.05 14.05 -31.25 17.15 -26.45 18.5 -20.9 18.25 -16.55 18.55 -12.3 17.85 -7.35 15.95 -3.4 14.0 0.6 11.75 3.9 8.3 8.85 -0.35 8.7 -11.3 8.5 -12.85 -0.5 -10.25 -4.9 -14.25 -10.75 L-16.0 -13.15 Q-16.65 -15.15 -18.3 -16.75 -21.75 -20.1 -22.0 -24.5 L-20.85 -24.95 -15.25 -25.15 Q-12.65 -23.2 -9.25 -23.15 L-8.25 -23.15 Q-5.95 -22.9 -4.8 -24.05 -1.4 -25.7 -0.5 -30.5 0.35 -31.8 1.9 -31.95" fill="url(#gradient0)" fill-rule="evenodd" stroke="none"/>
  </g>
  <defs>
    <radialGradient cx="0" cy="0" gradientTransform="matrix(0.0315, 0.0, 0.0, 0.0315, -1.75, -11.75)" gradientUnits="userSpaceOnUse" id="gradient0" r="819.2" spreadMethod="pad">
      <stop offset="0.0" stop-color="#4e0707"/>
      <stop offset="0.16470588235294117" stop-color="#b41010"/>
      <stop offset="0.5294117647058824" stop-color="#e23612"/>
      <stop offset="0.807843137254902" stop-color="#fd5037"/>
      <stop offset="1.0" stop-color="#fd5037" stop-opacity="0.0"/>
    </radialGradient>
  </defs>
</svg>
