<?xml version="1.0" encoding="UTF-8" standalone="no"?>
<svg xmlns:xlink="http://www.w3.org/1999/xlink" height="34.35px" width="41.95px" xmlns="http://www.w3.org/2000/svg">
  <g transform="matrix(1.0, 0.0, 0.0, 1.0, 25.95, 25.75)">
    <path d="M16.0 -9.0 Q16.0 -6.55 15.65 -4.2 L15.5 -2.7 13.7 0.05 Q8.8 7.9 -0.9 8.5 -10.6 9.1 -18.0 5.2 L-19.2 3.9 Q-26.45 -2.0 -25.9 -11.0 L-25.25 -11.4 Q-24.35 -12.0 -23.8 -12.9 L-23.65 -13.25 -20.4 -13.05 -18.35 -13.0 -17.95 -12.85 Q-9.85 -9.3 -12.4 -16.3 -9.8 -18.6 -9.5 -23.0 L-8.8 -23.65 Q-7.4 -24.7 -5.75 -25.2 0.35 -27.15 3.15 -22.0 6.85 -15.4 13.65 -14.4 L16.0 -11.55 16.0 -9.0" fill="url(#gradient0)" fill-rule="evenodd" stroke="none"/>
  </g>
  <defs>
    <radialGradient cx="0" cy="0" gradientTransform="matrix(0.026, 0.0, 0.0, 0.026, -4.95, -8.6)" gradientUnits="userSpaceOnUse" id="gradient0" r="819.2" spreadMethod="pad">
      <stop offset="0.0" stop-color="#4e0707"/>
      <stop offset="0.16470588235294117" stop-color="#b41010"/>
      <stop offset="0.5294117647058824" stop-color="#e23612"/>
      <stop offset="0.807843137254902" stop-color="#fd5037"/>
      <stop offset="1.0" stop-color="#fd5037" stop-opacity="0.0"/>
    </radialGradient>
  </defs>
</svg>
