<?xml version="1.0" encoding="UTF-8" standalone="no"?>
<svg xmlns:xlink="http://www.w3.org/1999/xlink" height="23.2px" width="26.65px" xmlns="http://www.w3.org/2000/svg">
  <g transform="matrix(1.0, 0.0, 0.0, 1.0, 10.45, 11.75)">
    <path d="M9.05 -4.35 L10.5 -5.8 10.5 -6.75 14.35 -6.75 14.35 -7.85 15.5 -7.85 14.35 -7.85 14.35 -6.75 10.5 -6.75 10.5 -5.8 9.05 -4.35 M-2.1 -9.4 L0.4 -9.8 Q6.1 -11.8 10.9 -11.0 14.65 -10.35 15.5 -7.85 15.9 -6.5 15.45 -4.55 14.45 -0.35 13.75 4.45 L13.45 5.75 12.3 5.7 12.25 5.1 11.35 5.1 Q11.1 5.3 10.25 5.1 11.1 5.3 11.35 5.1 L12.25 5.1 12.3 5.7 13.45 5.75 Q12.7 7.95 10.65 8.1 9.4 8.2 8.4 8.7 6.0 9.8 2.85 10.5 2.8 9.25 2.25 8.4 1.75 7.6 1.0 7.6 1.75 7.6 2.25 8.4 2.8 9.25 2.85 10.5 L0.4 10.9 0.2 10.9 Q-2.55 11.25 -4.2 8.95 -7.75 6.35 -9.3 2.95 L-9.65 2.1 Q-10.4 0.05 -9.3 -1.4 L-8.6 -2.75 Q-7.55 -5.5 -3.85 -6.55 L-3.65 -6.6 Q-3.45 -8.65 -2.1 -9.4 L-1.55 -9.4 -1.55 -7.35 -0.6 -6.6 -1.55 -7.35 -1.55 -9.4 -2.1 -9.4 M9.2 -7.45 Q10.05 -7.6 10.5 -7.1 10.05 -7.6 9.2 -7.45 M-5.75 -0.6 Q-6.1 -0.05 -5.75 0.35 L-5.75 1.35 -5.75 0.35 Q-6.1 -0.05 -5.75 -0.6 M-4.3 2.8 L-5.15 2.8 Q-5.15 2.45 -5.75 1.8 L-8.2 2.55 Q-8.65 2.9 -9.3 2.95 -8.65 2.9 -8.2 2.55 L-5.75 1.8 Q-5.15 2.45 -5.15 2.8 L-4.3 2.8" fill="url(#gradient0)" fill-rule="evenodd" stroke="none"/>
    <path d="M15.5 -7.85 Q14.65 -10.35 10.9 -11.0 6.1 -11.8 0.4 -9.8 L-2.1 -9.4 Q-3.45 -8.65 -3.65 -6.6 L-3.85 -6.55 Q-7.55 -5.5 -8.6 -2.75 L-9.3 -1.4 Q-10.4 0.05 -9.65 2.1 L-9.3 2.95 Q-7.75 6.35 -4.2 8.95 -2.55 11.25 0.2 10.9 L0.4 10.9 2.85 10.5 Q6.0 9.8 8.4 8.7 9.4 8.2 10.65 8.1 12.7 7.95 13.45 5.75 L13.75 4.45 Q14.45 -0.35 15.45 -4.55 15.9 -6.5 15.5 -7.85" fill="none" stroke="#000000" stroke-linecap="round" stroke-linejoin="round" stroke-width="1.0"/>
    <path d="M15.5 -7.85 L14.35 -7.85 14.35 -6.75 10.5 -6.75 10.5 -5.8 9.05 -4.35 M-2.1 -9.4 L-1.55 -9.4 -1.55 -7.35 -0.6 -6.6 M10.5 -7.1 Q10.05 -7.6 9.2 -7.45 M13.45 5.75 L12.3 5.7 12.25 5.1 11.35 5.1 Q11.1 5.3 10.25 5.1 M2.85 10.5 Q2.8 9.25 2.25 8.4 1.75 7.6 1.0 7.6 M-9.3 2.95 Q-8.65 2.9 -8.2 2.55 L-5.75 1.8 Q-5.15 2.45 -5.15 2.8 L-4.3 2.8 M-5.75 1.35 L-5.75 0.35 Q-6.1 -0.05 -5.75 -0.6" fill="none" stroke="#000000" stroke-linecap="round" stroke-linejoin="round" stroke-width="1.0"/>
  </g>
  <defs>
    <radialGradient cx="0" cy="0" gradientTransform="matrix(0.0176, 0.0, 0.0, 0.0176, 4.25, -0.7)" gradientUnits="userSpaceOnUse" id="gradient0" r="819.2" spreadMethod="pad">
      <stop offset="0.0" stop-color="#f0c20f"/>
      <stop offset="0.5764705882352941" stop-color="#f48635"/>
      <stop offset="1.0" stop-color="#000000"/>
    </radialGradient>
  </defs>
</svg>
