<?xml version="1.0" encoding="UTF-8" standalone="no"?>
<svg xmlns:xlink="http://www.w3.org/1999/xlink" height="23.2px" width="26.65px" xmlns="http://www.w3.org/2000/svg">
  <g transform="matrix(1.0, 0.0, 0.0, 1.0, 14.35, 10.95)">
    <path d="M-3.5 11.7 Q-4.05 10.3 -2.25 9.75 L-2.35 5.45 -2.25 5.25 -2.25 3.5 3.0 3.5 3.0 0.25 5.0 0.25 5.0 -2.25 7.5 -2.25 5.0 -2.25 5.0 0.25 3.0 0.25 3.0 3.5 -2.25 3.5 -2.25 5.25 -2.35 5.45 -2.25 9.75 Q-4.05 10.3 -3.5 11.7 L-3.7 11.7 Q-6.45 12.05 -8.1 9.75 -12.05 6.85 -13.55 2.9 -14.3 0.85 -13.2 -0.6 L-12.5 -1.95 Q-11.45 -4.7 -7.75 -5.75 L-7.55 -5.8 Q-7.25 -9.3 -3.5 -9.0 2.2 -11.0 7.0 -10.2 12.85 -9.2 11.55 -3.75 10.55 0.45 9.85 5.25 9.3 8.7 6.75 8.9 5.5 9.0 4.5 9.5 1.25 11.0 -3.5 11.7 M1.25 8.0 Q2.3 7.45 2.5 6.5 1.95 5.55 1.0 4.75 L2.25 4.0 1.0 4.75 Q1.95 5.55 2.5 6.5 2.3 7.45 1.25 8.0 M3.0 0.0 L3.0 0.25 2.0 0.25 0.75 -0.75 2.0 0.25 3.0 0.25 3.0 0.0 M0.95 -6.8 Q2.6 -7.8 1.5 -9.5 2.6 -7.8 0.95 -6.8 M7.75 -2.3 L9.0 -2.95 10.5 -2.25 9.0 -2.95 7.75 -2.3 M-6.0 -0.25 Q-4.95 -1.9 -6.25 -3.75 L-6.25 -5.75 -7.75 -5.75 -6.25 -5.75 -6.25 -3.75 Q-4.95 -1.9 -6.0 -0.25 M-4.0 6.25 Q-2.8 6.05 -2.35 5.45 -2.8 6.05 -4.0 6.25 M-2.05 -3.95 Q-2.45 -4.45 -3.65 -4.2 -4.15 -3.4 -5.75 -3.75 -4.15 -3.4 -3.65 -4.2 -2.45 -4.45 -2.05 -3.95" fill="url(#gradient0)" fill-rule="evenodd" stroke="none"/>
    <path d="M7.5 -2.25 L5.0 -2.25 5.0 0.25 3.0 0.25 3.0 3.5 -2.25 3.5 -2.25 5.25 -2.35 5.45 -2.25 9.75 Q-4.05 10.3 -3.5 11.7 1.25 11.0 4.5 9.5 5.5 9.0 6.75 8.9 9.3 8.7 9.85 5.25 10.55 0.45 11.55 -3.75 12.85 -9.2 7.0 -10.2 2.2 -11.0 -3.5 -9.0 -7.25 -9.3 -7.55 -5.8 L-7.75 -5.75 -6.25 -5.75 -6.25 -3.75 Q-4.95 -1.9 -6.0 -0.25 M10.5 -2.25 L9.0 -2.95 7.75 -2.3 M1.5 -9.5 Q2.6 -7.8 0.95 -6.8 M0.75 -0.75 L2.0 0.25 3.0 0.25 3.0 0.0 M2.25 4.0 L1.0 4.75 Q1.95 5.55 2.5 6.5 2.3 7.45 1.25 8.0 M-7.75 -5.75 Q-11.45 -4.7 -12.5 -1.95 L-13.2 -0.6 Q-14.3 0.85 -13.55 2.9 -12.05 6.85 -8.1 9.75 -6.45 12.05 -3.7 11.7 L-3.5 11.7 M-5.75 -3.75 Q-4.15 -3.4 -3.65 -4.2 -2.45 -4.45 -2.05 -3.95 M-2.35 5.45 Q-2.8 6.05 -4.0 6.25" fill="none" stroke="#000000" stroke-linecap="round" stroke-linejoin="round" stroke-width="1.0"/>
  </g>
  <defs>
    <radialGradient cx="0" cy="0" gradientTransform="matrix(0.0211, 0.0, 0.0, 0.0211, 3.25, 0.75)" gradientUnits="userSpaceOnUse" id="gradient0" r="819.2" spreadMethod="pad">
      <stop offset="0.0" stop-color="#505050"/>
      <stop offset="0.5764705882352941" stop-color="#959595"/>
      <stop offset="1.0" stop-color="#b5b5b5"/>
    </radialGradient>
  </defs>
</svg>
