<?xml version="1.0" encoding="UTF-8" standalone="no"?>
<svg xmlns:xlink="http://www.w3.org/1999/xlink" height="4.05px" width="2.75px" xmlns="http://www.w3.org/2000/svg">
  <g transform="matrix(1.0, 0.0, 0.0, 1.0, 0.1, 13.6)">
    <path d="M1.2 -12.35 L0.15 -13.35 Q0.9 -11.7 0.65 -11.7 L0.45 -11.05 Q0.35 -10.8 0.5 -10.5 0.7 -10.2 1.05 -10.0 L1.75 -9.8 2.3 -10.0 Q2.55 -10.4 2.05 -11.3 L1.2 -12.35" fill="url(#gradient0)" fill-rule="evenodd" stroke="none"/>
    <path d="M1.2 -12.35 L0.15 -13.35 Q0.9 -11.7 0.65 -11.7 L0.45 -11.05 Q0.35 -10.8 0.5 -10.5 0.7 -10.2 1.05 -10.0 L1.75 -9.8 2.3 -10.0 Q2.55 -10.4 2.05 -11.3 L1.2 -12.35 Z" fill="none" stroke="#000000" stroke-linecap="round" stroke-linejoin="round" stroke-width="0.5"/>
  </g>
  <defs>
    <radialGradient cx="0" cy="0" gradientTransform="matrix(-0.0014, 0.0, 7.0E-4, 0.0012, 1.35, -10.5)" gradientUnits="userSpaceOnUse" id="gradient0" r="819.2" spreadMethod="pad">
      <stop offset="0.0" stop-color="#bebe4b"/>
      <stop offset="1.0" stop-color="#ffffff"/>
    </radialGradient>
  </defs>
</svg>
