<?xml version="1.0" encoding="UTF-8" standalone="no"?>
<svg xmlns:xlink="http://www.w3.org/1999/xlink" height="4.05px" width="2.75px" xmlns="http://www.w3.org/2000/svg">
  <g transform="matrix(1.0, 0.0, 0.0, 1.0, -1.25, 13.25)">
    <path d="M2.55 -12.0 L1.5 -13.0 Q2.25 -11.35 2.0 -11.35 L1.8 -10.7 Q1.7 -10.45 1.85 -10.15 L2.4 -9.65 3.1 -9.45 3.65 -9.65 Q3.9 -10.05 3.4 -10.95 L2.55 -12.0" fill="url(#gradient0)" fill-rule="evenodd" stroke="none"/>
    <path d="M2.55 -12.0 L1.5 -13.0 Q2.25 -11.35 2.0 -11.35 L1.8 -10.7 Q1.7 -10.45 1.85 -10.15 L2.4 -9.65 3.1 -9.45 3.65 -9.65 Q3.9 -10.05 3.4 -10.95 L2.55 -12.0 Z" fill="none" stroke="#000000" stroke-linecap="round" stroke-linejoin="round" stroke-width="0.5"/>
  </g>
  <defs>
    <radialGradient cx="0" cy="0" gradientTransform="matrix(-0.0014, 0.0, 7.0E-4, 0.0012, 2.7, -10.15)" gradientUnits="userSpaceOnUse" id="gradient0" r="819.2" spreadMethod="pad">
      <stop offset="0.0" stop-color="#bebe4b"/>
      <stop offset="1.0" stop-color="#ffffff"/>
    </radialGradient>
  </defs>
</svg>
