<?xml version="1.0" encoding="UTF-8" standalone="no"?>
<svg xmlns:xlink="http://www.w3.org/1999/xlink" height="8.2px" width="5.6px" xmlns="http://www.w3.org/2000/svg">
  <g transform="matrix(1.0, 0.0, 0.0, 1.0, 9.2, 15.85)">
    <path d="M-8.9 -13.4 L-8.85 -15.6 Q-7.1 -12.0 -6.65 -12.0 L-4.9 -10.55 Q-4.2 -10.1 -3.95 -9.45 -3.7 -8.75 -4.1 -8.35 -4.45 -7.9 -5.15 -7.9 -5.85 -7.9 -6.55 -8.35 -7.9 -9.2 -8.65 -11.15 L-8.9 -13.4" fill="url(#gradient0)" fill-rule="evenodd" stroke="none"/>
    <path d="M-8.9 -13.4 L-8.85 -15.6 Q-7.1 -12.0 -6.65 -12.0 L-4.9 -10.55 Q-4.2 -10.1 -3.95 -9.45 -3.7 -8.75 -4.1 -8.35 -4.45 -7.9 -5.15 -7.9 -5.85 -7.9 -6.55 -8.35 -7.9 -9.2 -8.65 -11.15 L-8.9 -13.4 Z" fill="none" stroke="#000000" stroke-linecap="round" stroke-linejoin="round" stroke-width="0.5"/>
  </g>
  <defs>
    <radialGradient cx="0" cy="0" gradientTransform="matrix(0.0028, 0.0, 0.001, 0.0026, -5.7, -9.45)" gradientUnits="userSpaceOnUse" id="gradient0" r="819.2" spreadMethod="pad">
      <stop offset="0.0" stop-color="#bebe4b"/>
      <stop offset="1.0" stop-color="#ffffff"/>
    </radialGradient>
  </defs>
</svg>
