<?xml version="1.0" encoding="UTF-8" standalone="no"?>
<svg xmlns:xlink="http://www.w3.org/1999/xlink" height="8.2px" width="5.6px" xmlns="http://www.w3.org/2000/svg">
  <g transform="matrix(1.0, 0.0, 0.0, 1.0, -3.6, 15.8)">
    <path d="M8.9 -13.35 L8.85 -15.55 Q7.1 -11.95 6.65 -11.95 L4.9 -10.5 Q4.2 -10.05 3.95 -9.4 3.7 -8.7 4.1 -8.3 4.45 -7.85 5.15 -7.85 5.85 -7.85 6.55 -8.3 7.9 -9.15 8.65 -11.1 L8.9 -13.35" fill="url(#gradient0)" fill-rule="evenodd" stroke="none"/>
    <path d="M8.9 -13.35 L8.85 -15.55 Q7.1 -11.95 6.65 -11.95 L4.9 -10.5 Q4.2 -10.05 3.95 -9.4 3.7 -8.7 4.1 -8.3 4.45 -7.85 5.15 -7.85 5.85 -7.85 6.55 -8.3 7.9 -9.15 8.65 -11.1 L8.9 -13.35 Z" fill="none" stroke="#000000" stroke-linecap="round" stroke-linejoin="round" stroke-width="0.5"/>
  </g>
  <defs>
    <radialGradient cx="0" cy="0" gradientTransform="matrix(-0.0028, 0.0, -0.001, 0.0026, 5.7, -9.4)" gradientUnits="userSpaceOnUse" id="gradient0" r="819.2" spreadMethod="pad">
      <stop offset="0.0" stop-color="#bebe4b"/>
      <stop offset="1.0" stop-color="#ffffff"/>
    </radialGradient>
  </defs>
</svg>
