<?xml version="1.0" encoding="UTF-8" standalone="no"?>
<svg xmlns:xlink="http://www.w3.org/1999/xlink" height="7.05px" width="3.75px" xmlns="http://www.w3.org/2000/svg">
  <g transform="matrix(1.0, 0.0, 0.0, 1.0, -2.5, 16.8)">
    <path d="M5.55 -14.7 L4.9 -16.55 Q4.55 -13.5 4.15 -13.5 L3.2 -12.25 Q2.75 -11.85 2.75 -11.3 2.75 -10.75 3.2 -10.4 3.6 -10.0 4.15 -10.0 4.75 -10.0 5.15 -10.4 6.0 -11.1 6.0 -12.8 L5.55 -14.7" fill="url(#gradient0)" fill-rule="evenodd" stroke="none"/>
    <path d="M5.55 -14.7 L4.9 -16.55 Q4.55 -13.5 4.15 -13.5 L3.2 -12.25 Q2.75 -11.85 2.75 -11.3 2.75 -10.75 3.2 -10.4 3.6 -10.0 4.15 -10.0 4.75 -10.0 5.15 -10.4 6.0 -11.1 6.0 -12.8 L5.55 -14.7 Z" fill="none" stroke="#000000" stroke-linecap="round" stroke-linejoin="round" stroke-width="0.5"/>
  </g>
  <defs>
    <radialGradient cx="0" cy="0" gradientTransform="matrix(-0.0022, 0.0, 0.0, 0.0022, 4.15, -11.3)" gradientUnits="userSpaceOnUse" id="gradient0" r="819.2" spreadMethod="pad">
      <stop offset="0.0" stop-color="#bebe4b"/>
      <stop offset="1.0" stop-color="#ffffff"/>
    </radialGradient>
  </defs>
</svg>
