<?xml version="1.0" encoding="UTF-8" standalone="no"?>
<svg xmlns:xlink="http://www.w3.org/1999/xlink" height="8.2px" width="5.6px" xmlns="http://www.w3.org/2000/svg">
  <g transform="matrix(1.0, 0.0, 0.0, 1.0, 11.2, 16.15)">
    <path d="M-10.9 -13.7 L-10.85 -15.9 Q-9.1 -12.3 -8.65 -12.3 L-6.9 -10.85 Q-6.2 -10.4 -5.95 -9.75 -5.7 -9.05 -6.1 -8.65 -6.45 -8.2 -7.15 -8.2 -7.85 -8.2 -8.55 -8.65 -9.9 -9.5 -10.65 -11.45 L-10.9 -13.7" fill="url(#gradient0)" fill-rule="evenodd" stroke="none"/>
    <path d="M-10.9 -13.7 L-10.85 -15.9 Q-9.1 -12.3 -8.65 -12.3 L-6.9 -10.85 Q-6.2 -10.4 -5.95 -9.75 -5.7 -9.05 -6.1 -8.65 -6.45 -8.2 -7.15 -8.2 -7.85 -8.2 -8.55 -8.65 -9.9 -9.5 -10.65 -11.45 L-10.9 -13.7 Z" fill="none" stroke="#000000" stroke-linecap="round" stroke-linejoin="round" stroke-width="0.5"/>
  </g>
  <defs>
    <radialGradient cx="0" cy="0" gradientTransform="matrix(0.0028, 0.0, 0.001, 0.0026, -7.7, -9.75)" gradientUnits="userSpaceOnUse" id="gradient0" r="819.2" spreadMethod="pad">
      <stop offset="0.0" stop-color="#bebe4b"/>
      <stop offset="1.0" stop-color="#ffffff"/>
    </radialGradient>
  </defs>
</svg>
