<?xml version="1.0" encoding="UTF-8" standalone="no"?>
<svg xmlns:xlink="http://www.w3.org/1999/xlink" height="8.7px" width="4.55px" xmlns="http://www.w3.org/2000/svg">
  <g transform="matrix(1.0, 0.0, 0.0, 1.0, -3.75, 13.1)">
    <path d="M7.5 -10.55 L6.65 -12.85 Q6.2 -9.05 5.75 -9.05 L4.55 -7.5 Q4.0 -7.0 4.0 -6.3 4.0 -5.6 4.55 -5.15 5.05 -4.65 5.75 -4.65 6.45 -4.65 7.0 -5.15 8.05 -6.05 8.05 -8.15 L7.5 -10.55" fill="url(#gradient0)" fill-rule="evenodd" stroke="none"/>
    <path d="M7.5 -10.55 L6.65 -12.85 Q6.2 -9.05 5.75 -9.05 L4.55 -7.5 Q4.0 -7.0 4.0 -6.3 4.0 -5.6 4.55 -5.15 5.05 -4.65 5.75 -4.65 6.45 -4.65 7.0 -5.15 8.05 -6.05 8.05 -8.15 L7.5 -10.55 Z" fill="none" stroke="#000000" stroke-linecap="round" stroke-linejoin="round" stroke-width="0.5"/>
  </g>
  <defs>
    <radialGradient cx="0" cy="0" gradientTransform="matrix(-0.0028, 0.0, 0.0, 0.0028, 5.75, -6.3)" gradientUnits="userSpaceOnUse" id="gradient0" r="819.2" spreadMethod="pad">
      <stop offset="0.0" stop-color="#bebe4b"/>
      <stop offset="1.0" stop-color="#ffffff"/>
    </radialGradient>
  </defs>
</svg>
