<?xml version="1.0" encoding="UTF-8" standalone="no"?>
<svg xmlns:xlink="http://www.w3.org/1999/xlink" height="27.45px" width="25.0px" xmlns="http://www.w3.org/2000/svg">
  <g transform="matrix(1.0, 0.0, 0.0, 1.0, 12.5, 15.95)">
    <path d="M8.1 -7.45 Q11.5 -4.35 11.5 0.0 11.5 4.35 8.1 7.4 4.75 10.5 0.0 10.5 -4.75 10.5 -8.15 7.4 -11.5 4.35 -11.5 0.0 -11.5 -4.35 -8.15 -7.45 -4.75 -10.5 0.0 -10.5 4.75 -10.5 8.1 -7.45" fill="url(#gradient0)" fill-rule="evenodd" stroke="none"/>
    <path d="M8.1 -7.45 Q11.5 -4.35 11.5 0.0 11.5 4.35 8.1 7.4 4.75 10.5 0.0 10.5 -4.75 10.5 -8.15 7.4 -11.5 4.35 -11.5 0.0 -11.5 -4.35 -8.15 -7.45 -4.75 -10.5 0.0 -10.5 4.75 -10.5 8.1 -7.45 Z" fill="none" stroke="#000000" stroke-linecap="round" stroke-linejoin="round" stroke-width="2.0"/>
    <path d="M-1.45 -14.15 L0.1 -15.7 Q-1.05 -13.1 -0.65 -13.1 L-0.35 -12.0 Q-0.1 -11.65 -0.35 -11.2 -0.65 -10.7 -1.3 -10.4 -1.9 -10.05 -2.45 -10.05 -3.05 -10.05 -3.25 -10.4 -3.7 -11.0 -2.9 -12.45 L-1.45 -14.15" fill="url(#gradient1)" fill-rule="evenodd" stroke="none"/>
    <path d="M-1.45 -14.15 L0.1 -15.7 Q-1.05 -13.1 -0.65 -13.1 L-0.35 -12.0 Q-0.1 -11.65 -0.35 -11.2 -0.65 -10.7 -1.3 -10.4 -1.9 -10.05 -2.45 -10.05 -3.05 -10.05 -3.25 -10.4 -3.7 -11.0 -2.9 -12.45 L-1.45 -14.15 Z" fill="none" stroke="#000000" stroke-linecap="round" stroke-linejoin="round" stroke-width="0.5"/>
    <path d="M2.7 -14.15 L1.15 -15.7 Q2.3 -13.1 1.9 -13.1 L1.6 -12.0 Q1.35 -11.65 1.6 -11.2 L2.55 -10.4 Q3.15 -10.05 3.7 -10.05 4.3 -10.05 4.5 -10.4 4.95 -11.0 4.15 -12.45 L2.7 -14.15" fill="url(#gradient2)" fill-rule="evenodd" stroke="none"/>
    <path d="M2.7 -14.15 L1.15 -15.7 Q2.3 -13.1 1.9 -13.1 L1.6 -12.0 Q1.35 -11.65 1.6 -11.2 L2.55 -10.4 Q3.15 -10.05 3.7 -10.05 4.3 -10.05 4.5 -10.4 4.95 -11.0 4.15 -12.45 L2.7 -14.15 Z" fill="none" stroke="#000000" stroke-linecap="round" stroke-linejoin="round" stroke-width="0.5"/>
    <path d="M-4.95 -12.75 L-3.8 -14.6 Q-3.85 -11.5 -3.4 -11.5 L-2.4 -10.25 Q-1.9 -9.85 -2.0 -9.3 -2.1 -8.7 -2.7 -8.35 -3.25 -7.95 -3.95 -7.95 -4.65 -7.95 -5.15 -8.35 -6.1 -9.05 -5.8 -10.8 L-4.95 -12.75" fill="url(#gradient3)" fill-rule="evenodd" stroke="none"/>
    <path d="M-4.95 -12.75 L-3.8 -14.6 Q-3.85 -11.5 -3.4 -11.5 L-2.4 -10.25 Q-1.9 -9.85 -2.0 -9.3 -2.1 -8.7 -2.7 -8.35 -3.25 -7.95 -3.95 -7.95 -4.65 -7.95 -5.15 -8.35 -6.1 -9.05 -5.8 -10.8 L-4.95 -12.75 Z" fill="none" stroke="#000000" stroke-linecap="round" stroke-linejoin="round" stroke-width="0.5"/>
    <path d="M6.6 -12.65 L5.45 -14.5 Q5.5 -11.4 5.05 -11.4 L4.05 -10.15 Q3.55 -9.75 3.65 -9.2 3.75 -8.6 4.35 -8.25 4.9 -7.85 5.6 -7.85 6.3 -7.85 6.8 -8.25 7.75 -8.95 7.45 -10.7 L6.6 -12.65" fill="url(#gradient4)" fill-rule="evenodd" stroke="none"/>
    <path d="M6.6 -12.65 L5.45 -14.5 Q5.5 -11.4 5.05 -11.4 L4.05 -10.15 Q3.55 -9.75 3.65 -9.2 3.75 -8.6 4.35 -8.25 4.9 -7.85 5.6 -7.85 6.3 -7.85 6.8 -8.25 7.75 -8.95 7.45 -10.7 L6.6 -12.65 Z" fill="none" stroke="#000000" stroke-linecap="round" stroke-linejoin="round" stroke-width="0.5"/>
    <path d="M-1.75 -11.3 L0.25 -13.3 Q-1.2 -10.0 -0.75 -10.0 L-0.35 -8.7 Q-0.05 -8.25 -0.4 -7.65 L-1.5 -6.65 Q-2.25 -6.2 -2.95 -6.2 -3.65 -6.2 -3.95 -6.65 -4.55 -7.4 -3.5 -9.25 L-1.75 -11.3" fill="url(#gradient5)" fill-rule="evenodd" stroke="none"/>
    <path d="M-1.75 -11.3 L0.25 -13.3 Q-1.2 -10.0 -0.75 -10.0 L-0.35 -8.7 Q-0.05 -8.25 -0.4 -7.65 L-1.5 -6.65 Q-2.25 -6.2 -2.95 -6.2 -3.65 -6.2 -3.95 -6.65 -4.55 -7.4 -3.5 -9.25 L-1.75 -11.3 Z" fill="none" stroke="#000000" stroke-linecap="round" stroke-linejoin="round" stroke-width="0.5"/>
    <path d="M2.95 -11.4 L0.95 -13.4 Q2.4 -10.1 1.95 -10.1 L1.5 -8.8 Q1.2 -8.35 1.55 -7.75 1.9 -7.15 2.7 -6.75 3.45 -6.3 4.15 -6.3 4.85 -6.3 5.15 -6.75 5.75 -7.5 4.7 -9.35 L2.95 -11.4" fill="url(#gradient6)" fill-rule="evenodd" stroke="none"/>
    <path d="M2.95 -11.4 L0.95 -13.4 Q2.4 -10.1 1.95 -10.1 L1.5 -8.8 Q1.2 -8.35 1.55 -7.75 1.9 -7.15 2.7 -6.75 3.45 -6.3 4.15 -6.3 4.85 -6.3 5.15 -6.75 5.75 -7.5 4.7 -9.35 L2.95 -11.4 Z" fill="none" stroke="#000000" stroke-linecap="round" stroke-linejoin="round" stroke-width="0.5"/>
  </g>
  <defs>
    <radialGradient cx="0" cy="0" gradientTransform="matrix(0.0221, -0.0108, 0.0074, 0.0151, 3.0, 2.5)" gradientUnits="userSpaceOnUse" id="gradient0" r="819.2" spreadMethod="pad">
      <stop offset="0.0" stop-color="#0d2f93"/>
      <stop offset="0.5764705882352941" stop-color="#358bf4"/>
      <stop offset="1.0" stop-color="#ffffff"/>
    </radialGradient>
    <radialGradient cx="0" cy="0" gradientTransform="matrix(0.0022, 0.0, -0.0011, 0.0019, -1.75, -11.2)" gradientUnits="userSpaceOnUse" id="gradient1" r="819.2" spreadMethod="pad">
      <stop offset="0.0" stop-color="#bebe4b"/>
      <stop offset="1.0" stop-color="#ffffff"/>
    </radialGradient>
    <radialGradient cx="0" cy="0" gradientTransform="matrix(-0.0022, 0.0, 0.0011, 0.0019, 3.0, -11.2)" gradientUnits="userSpaceOnUse" id="gradient2" r="819.2" spreadMethod="pad">
      <stop offset="0.0" stop-color="#bebe4b"/>
      <stop offset="1.0" stop-color="#ffffff"/>
    </radialGradient>
    <radialGradient cx="0" cy="0" gradientTransform="matrix(0.0028, 0.0, -4.0E-4, 0.0023, -3.75, -9.3)" gradientUnits="userSpaceOnUse" id="gradient3" r="819.2" spreadMethod="pad">
      <stop offset="0.0" stop-color="#bebe4b"/>
      <stop offset="1.0" stop-color="#ffffff"/>
    </radialGradient>
    <radialGradient cx="0" cy="0" gradientTransform="matrix(-0.0028, 0.0, 4.0E-4, 0.0023, 5.4, -9.2)" gradientUnits="userSpaceOnUse" id="gradient4" r="819.2" spreadMethod="pad">
      <stop offset="0.0" stop-color="#bebe4b"/>
      <stop offset="1.0" stop-color="#ffffff"/>
    </radialGradient>
    <radialGradient cx="0" cy="0" gradientTransform="matrix(0.0028, 0.0, -0.0014, 0.0024, -2.15, -7.65)" gradientUnits="userSpaceOnUse" id="gradient5" r="819.2" spreadMethod="pad">
      <stop offset="0.0" stop-color="#bebe4b"/>
      <stop offset="1.0" stop-color="#ffffff"/>
    </radialGradient>
    <radialGradient cx="0" cy="0" gradientTransform="matrix(-0.0028, 0.0, 0.0014, 0.0024, 3.3, -7.75)" gradientUnits="userSpaceOnUse" id="gradient6" r="819.2" spreadMethod="pad">
      <stop offset="0.0" stop-color="#bebe4b"/>
      <stop offset="1.0" stop-color="#ffffff"/>
    </radialGradient>
  </defs>
</svg>
