<?xml version="1.0" encoding="UTF-8" standalone="no"?>
<svg xmlns:xlink="http://www.w3.org/1999/xlink" height="6.15px" width="4.0px" xmlns="http://www.w3.org/2000/svg">
  <g transform="matrix(1.0, 0.0, 0.0, 1.0, 3.7, -4.2)">
    <path d="M-1.5 6.0 L0.05 4.45 Q-1.1 7.05 -0.7 7.05 L-0.4 8.15 Q-0.15 8.5 -0.4 8.95 -0.7 9.45 -1.35 9.75 L-2.5 10.1 Q-3.1 10.1 -3.3 9.75 -3.75 9.15 -2.95 7.7 L-1.5 6.0" fill="url(#gradient0)" fill-rule="evenodd" stroke="none"/>
    <path d="M-1.5 6.0 L0.05 4.45 Q-1.1 7.05 -0.7 7.05 L-0.4 8.15 Q-0.15 8.5 -0.4 8.95 -0.7 9.45 -1.35 9.75 L-2.5 10.1 Q-3.1 10.1 -3.3 9.75 -3.75 9.15 -2.95 7.7 L-1.5 6.0 Z" fill="none" stroke="#000000" stroke-linecap="round" stroke-linejoin="round" stroke-width="0.5"/>
  </g>
  <defs>
    <radialGradient cx="0" cy="0" gradientTransform="matrix(0.0022, 0.0, -0.0011, 0.0019, -1.8, 8.95)" gradientUnits="userSpaceOnUse" id="gradient0" r="819.2" spreadMethod="pad">
      <stop offset="0.0" stop-color="#bebe4b"/>
      <stop offset="1.0" stop-color="#ffffff"/>
    </radialGradient>
  </defs>
</svg>
