<?xml version="1.0" encoding="UTF-8" standalone="no"?>
<svg xmlns:xlink="http://www.w3.org/1999/xlink" height="6.15px" width="4.0px" xmlns="http://www.w3.org/2000/svg">
  <g transform="matrix(1.0, 0.0, 0.0, 1.0, -0.85, -4.2)">
    <path d="M2.65 6.0 L1.1 4.45 Q2.25 7.05 1.85 7.05 L1.55 8.15 Q1.3 8.5 1.55 8.95 L2.5 9.75 3.65 10.1 Q4.25 10.1 4.45 9.75 4.9 9.15 4.1 7.7 L2.65 6.0" fill="url(#gradient0)" fill-rule="evenodd" stroke="none"/>
    <path d="M2.65 6.0 L1.1 4.45 Q2.25 7.05 1.85 7.05 L1.55 8.15 Q1.3 8.5 1.55 8.95 L2.5 9.75 3.65 10.1 Q4.25 10.1 4.45 9.75 4.9 9.15 4.1 7.7 L2.65 6.0 Z" fill="none" stroke="#000000" stroke-linecap="round" stroke-linejoin="round" stroke-width="0.5"/>
  </g>
  <defs>
    <radialGradient cx="0" cy="0" gradientTransform="matrix(-0.0022, 0.0, 0.0011, 0.0019, 2.95, 8.95)" gradientUnits="userSpaceOnUse" id="gradient0" r="819.2" spreadMethod="pad">
      <stop offset="0.0" stop-color="#bebe4b"/>
      <stop offset="1.0" stop-color="#ffffff"/>
    </radialGradient>
  </defs>
</svg>
