<?xml version="1.0" encoding="UTF-8" standalone="no"?>
<svg xmlns:xlink="http://www.w3.org/1999/xlink" height="7.15px" width="4.35px" xmlns="http://www.w3.org/2000/svg">
  <g transform="matrix(1.0, 0.0, 0.0, 1.0, -3.35, -5.4)">
    <path d="M6.55 7.5 L5.4 5.65 Q5.45 8.75 5.0 8.75 L4.0 10.0 Q3.5 10.4 3.6 10.95 3.7 11.55 4.3 11.9 4.85 12.3 5.55 12.3 6.25 12.3 6.75 11.9 7.7 11.2 7.4 9.45 L6.55 7.5" fill="url(#gradient0)" fill-rule="evenodd" stroke="none"/>
    <path d="M6.55 7.5 L5.4 5.65 Q5.45 8.75 5.0 8.75 L4.0 10.0 Q3.5 10.4 3.6 10.95 3.7 11.55 4.3 11.9 4.85 12.3 5.55 12.3 6.25 12.3 6.75 11.9 7.7 11.2 7.4 9.45 L6.55 7.5 Z" fill="none" stroke="#000000" stroke-linecap="round" stroke-linejoin="round" stroke-width="0.5"/>
  </g>
  <defs>
    <radialGradient cx="0" cy="0" gradientTransform="matrix(-0.0028, 0.0, 4.0E-4, 0.0023, 5.35, 10.95)" gradientUnits="userSpaceOnUse" id="gradient0" r="819.2" spreadMethod="pad">
      <stop offset="0.0" stop-color="#bebe4b"/>
      <stop offset="1.0" stop-color="#ffffff"/>
    </radialGradient>
  </defs>
</svg>
