<?xml version="1.0" encoding="UTF-8" standalone="no"?>
<svg xmlns:xlink="http://www.w3.org/1999/xlink" height="7.6px" width="4.9px" xmlns="http://www.w3.org/2000/svg">
  <g transform="matrix(1.0, 0.0, 0.0, 1.0, 4.45, -6.6)">
    <path d="M-1.8 8.85 L0.2 6.85 Q-1.25 10.15 -0.8 10.15 L-0.4 11.45 Q-0.1 11.9 -0.45 12.5 L-1.55 13.5 Q-2.3 13.95 -3.0 13.95 -3.7 13.95 -4.0 13.5 -4.6 12.75 -3.55 10.9 L-1.8 8.85" fill="url(#gradient0)" fill-rule="evenodd" stroke="none"/>
    <path d="M-1.8 8.85 L0.2 6.85 Q-1.25 10.15 -0.8 10.15 L-0.4 11.45 Q-0.1 11.9 -0.45 12.5 L-1.55 13.5 Q-2.3 13.95 -3.0 13.95 -3.7 13.95 -4.0 13.5 -4.6 12.75 -3.55 10.9 L-1.8 8.85 Z" fill="none" stroke="#000000" stroke-linecap="round" stroke-linejoin="round" stroke-width="0.5"/>
  </g>
  <defs>
    <radialGradient cx="0" cy="0" gradientTransform="matrix(0.0028, 0.0, -0.0014, 0.0024, -2.2, 12.5)" gradientUnits="userSpaceOnUse" id="gradient0" r="819.2" spreadMethod="pad">
      <stop offset="0.0" stop-color="#bebe4b"/>
      <stop offset="1.0" stop-color="#ffffff"/>
    </radialGradient>
  </defs>
</svg>
