<?xml version="1.0" encoding="UTF-8" standalone="no"?>
<svg xmlns:xlink="http://www.w3.org/1999/xlink" height="7.6px" width="4.9px" xmlns="http://www.w3.org/2000/svg">
  <g transform="matrix(1.0, 0.0, 0.0, 1.0, -0.65, -6.5)">
    <path d="M2.9 8.75 L0.9 6.75 Q2.35 10.05 1.9 10.05 L1.45 11.35 Q1.15 11.8 1.5 12.4 1.85 13.0 2.65 13.4 L4.1 13.85 Q4.8 13.85 5.1 13.4 5.7 12.65 4.65 10.8 L2.9 8.75" fill="url(#gradient0)" fill-rule="evenodd" stroke="none"/>
    <path d="M2.9 8.75 L0.9 6.75 Q2.35 10.05 1.9 10.05 L1.45 11.35 Q1.15 11.8 1.5 12.4 1.85 13.0 2.65 13.4 L4.1 13.85 Q4.8 13.85 5.1 13.4 5.7 12.65 4.65 10.8 L2.9 8.75 Z" fill="none" stroke="#000000" stroke-linecap="round" stroke-linejoin="round" stroke-width="0.5"/>
  </g>
  <defs>
    <radialGradient cx="0" cy="0" gradientTransform="matrix(-0.0028, 0.0, 0.0014, 0.0024, 3.25, 12.4)" gradientUnits="userSpaceOnUse" id="gradient0" r="819.2" spreadMethod="pad">
      <stop offset="0.0" stop-color="#bebe4b"/>
      <stop offset="1.0" stop-color="#ffffff"/>
    </radialGradient>
  </defs>
</svg>
