<?xml version="1.0" encoding="UTF-8" standalone="no"?>
<svg xmlns:xlink="http://www.w3.org/1999/xlink" height="13.5px" width="34.0px" xmlns="http://www.w3.org/2000/svg">
  <g transform="matrix(1.0, 0.0, 0.0, 1.0, 16.5, 6.5)">
    <path d="M-10.8 -3.85 Q-15.5 -2.15 -15.5 0.25 -15.5 2.65 -10.8 4.3 -6.15 6.0 0.5 6.0 7.15 6.0 11.85 4.3 16.5 2.65 16.5 0.25 16.5 -2.15 11.85 -3.85 7.15 -5.5 0.5 -5.5 -6.15 -5.5 -10.8 -3.85" fill="url(#gradient0)" fill-rule="evenodd" stroke="none"/>
    <path d="M-10.8 -3.85 Q-15.5 -2.15 -15.5 0.25 -15.5 2.65 -10.8 4.3 -6.15 6.0 0.5 6.0 7.15 6.0 11.85 4.3 16.5 2.65 16.5 0.25 16.5 -2.15 11.85 -3.85 7.15 -5.5 0.5 -5.5 -6.15 -5.5 -10.8 -3.85 Z" fill="none" stroke="#000000" stroke-linecap="round" stroke-linejoin="round" stroke-width="2.0"/>
  </g>
  <defs>
    <radialGradient cx="0" cy="0" gradientTransform="matrix(-0.0257, 0.0, 0.0, 0.0196, 7.0, -0.25)" gradientUnits="userSpaceOnUse" id="gradient0" r="819.2" spreadMethod="pad">
      <stop offset="0.3843137254901961" stop-color="#0066ff"/>
      <stop offset="1.0" stop-color="#ffffff"/>
    </radialGradient>
  </defs>
</svg>
