<?xml version="1.0" encoding="UTF-8" standalone="no"?>
<svg xmlns:xlink="http://www.w3.org/1999/xlink" height="13.5px" width="34.0px" xmlns="http://www.w3.org/2000/svg">
  <g transform="matrix(1.0, 0.0, 0.0, 1.0, 16.5, 6.8)">
    <path d="M-10.8 -4.15 Q-15.5 -2.45 -15.5 -0.05 -15.5 2.35 -10.8 4.0 -6.15 5.7 0.5 5.7 7.15 5.7 11.85 4.0 16.5 2.35 16.5 -0.05 16.5 -2.45 11.85 -4.15 7.15 -5.8 0.5 -5.8 -6.15 -5.8 -10.8 -4.15" fill="url(#gradient0)" fill-rule="evenodd" stroke="none"/>
    <path d="M-10.8 -4.15 Q-15.5 -2.45 -15.5 -0.05 -15.5 2.35 -10.8 4.0 -6.15 5.7 0.5 5.7 7.15 5.7 11.85 4.0 16.5 2.35 16.5 -0.05 16.5 -2.45 11.85 -4.15 7.15 -5.8 0.5 -5.8 -6.15 -5.8 -10.8 -4.15 Z" fill="none" stroke="#000000" stroke-linecap="round" stroke-linejoin="round" stroke-width="2.0"/>
  </g>
  <defs>
    <radialGradient cx="0" cy="0" gradientTransform="matrix(-0.0257, 0.0, 0.0, 0.0196, 7.0, -0.55)" gradientUnits="userSpaceOnUse" id="gradient0" r="819.2" spreadMethod="pad">
      <stop offset="0.3843137254901961" stop-color="#0066ff"/>
      <stop offset="1.0" stop-color="#ffffff"/>
    </radialGradient>
  </defs>
</svg>
