<?xml version="1.0" encoding="UTF-8" standalone="no"?>
<svg xmlns:xlink="http://www.w3.org/1999/xlink" height="1106.55px" width="952.2px" xmlns="http://www.w3.org/2000/svg">
  <g transform="matrix(1.0, 0.0, 0.0, 1.0, 476.1, 553.25)">
    <path d="M103.15 -553.25 Q124.4 -553.15 145.6 -552.0 153.55 -551.6 161.2 -549.15 191.3 -539.65 204.0 -511.1 L206.0 -506.2 Q217.5 -475.25 194.9 -451.05 179.1 -434.15 158.0 -424.9 136.25 -415.35 119.2 -430.8 96.85 -451.0 69.1 -462.75 56.2 -468.25 42.3 -464.75 13.6 -457.6 -11.95 -442.4 -26.6 -433.7 -34.4 -418.7 -47.3 -393.75 -64.55 -371.8 -68.45 -366.85 -73.55 -362.95 -86.6 -352.95 -101.35 -356.55 -110.5 -358.75 -114.2 -367.3 -117.05 -373.75 -114.95 -381.15 -111.3 -394.15 -109.85 -407.55 -109.35 -412.15 -110.8 -416.5 -117.2 -419.3 -117.45 -426.25 -117.9 -440.65 -120.75 -454.6 -123.05 -466.1 -129.0 -476.25 -136.1 -488.4 -131.2 -501.8 -125.15 -518.45 -110.3 -529.0 -89.3 -544.0 -63.55 -540.8 -51.1 -539.2 -38.75 -540.15 L19.15 -544.05 Q61.7 -546.7 103.15 -553.25 M153.65 -379.7 Q178.15 -396.75 201.35 -415.55 211.5 -423.8 224.15 -424.3 256.85 -425.6 272.8 -397.2 287.35 -371.35 292.55 -342.0 L299.95 -298.7 306.6 -258.7 Q309.0 -244.25 305.25 -230.35 300.7 -213.6 291.85 -198.95 294.5 -191.0 300.15 -184.3 308.85 -173.95 318.6 -164.85 L318.95 -165.15 Q325.15 -170.05 332.35 -173.4 344.95 -179.35 358.15 -181.3 379.0 -181.8 381.75 -162.45 382.6 -156.3 379.15 -150.85 369.95 -136.25 353.3 -132.75 344.85 -130.95 342.95 -122.35 340.95 -113.7 344.6 -104.75 345.8 -101.75 346.0 -98.35 347.2 -79.25 358.35 -64.3 359.55 -62.7 361.4 -61.55 386.85 -46.35 413.25 -33.0 417.7 -30.75 422.7 -29.75 452.4 -23.7 471.9 -1.6 473.15 -0.2 473.65 1.75 481.1 31.5 465.7 59.1 460.6 68.25 455.75 77.6 441.65 105.05 415.1 119.05 409.55 121.95 404.9 118.1 395.65 110.45 390.75 99.2 387.5 91.85 381.2 86.55 377.2 83.2 372.1 82.8 356.85 81.7 341.55 83.65 309.6 87.75 288.1 64.2 L281.6 56.8 Q271.35 44.55 271.5 29.2 271.6 18.55 277.35 9.35 293.25 -16.05 303.85 -43.9 307.6 -53.65 299.35 -60.95 286.6 -72.3 285.65 -88.65 284.75 -103.15 288.1 -117.2 L288.65 -119.4 Q287.6 -140.25 280.1 -159.25 278.5 -163.2 276.1 -166.75 273.6 -170.4 270.25 -172.75 263.25 -167.05 254.9 -163.5 238.0 -156.3 226.5 -170.55 223.9 -173.75 222.65 -177.55 215.75 -198.9 213.55 -221.0 212.15 -235.05 206.9 -248.35 200.9 -263.5 189.0 -274.35 176.4 -285.85 159.75 -284.15 153.5 -283.55 147.3 -282.25 128.2 -278.3 109.55 -281.65 104.75 -282.5 101.25 -285.9 85.45 -301.25 71.6 -317.8 68.95 -320.95 64.95 -321.95 42.4 -327.8 22.2 -316.25 6.65 -307.4 -2.7 -291.35 -15.6 -269.1 -30.65 -248.5 -38.6 -237.7 -51.05 -234.0 -55.15 -232.8 -59.1 -234.55 -76.0 -241.9 -86.2 -257.65 -88.4 -261.05 -92.25 -262.6 -110.95 -270.1 -130.1 -263.35 -143.3 -258.75 -157.0 -256.25 L-171.9 -255.65 Q-177.3 -256.2 -182.35 -257.5 -189.45 -252.55 -197.6 -249.15 L-199.1 -248.15 Q-214.3 -233.9 -225.35 -216.1 -224.1 -209.65 -225.4 -203.35 -226.0 -200.55 -227.55 -198.05 -229.2 -189.65 -233.45 -181.25 -237.1 -174.1 -237.5 -165.85 -237.9 -157.7 -232.35 -151.55 -216.2 -133.5 -195.05 -120.75 -187.5 -116.15 -180.45 -110.75 -172.0 -104.25 -165.5 -95.75 -156.05 -83.3 -162.8 -68.7 -166.85 -59.85 -172.65 -51.9 -186.3 -33.1 -209.2 -36.0 -214.95 -36.75 -220.15 -39.4 -245.65 -52.4 -269.55 -68.1 L-276.1 -72.5 Q-284.0 -77.95 -293.3 -76.8 -298.7 -69.5 -302.0 -61.05 -303.9 -56.15 -307.05 -52.05 -308.35 -38.25 -304.55 -24.25 -299.2 -4.4 -314.35 8.35 -315.8 9.55 -317.8 9.45 -331.25 8.7 -341.3 -1.3 -351.15 -11.1 -356.25 -23.65 -363.25 -40.85 -363.1 -59.3 -362.85 -84.05 -358.45 -108.15 -355.85 -122.45 -358.75 -137.25 -361.3 -150.3 -360.1 -163.45 -359.7 -167.7 -358.25 -171.8 -350.9 -192.85 -329.1 -198.2 -316.95 -201.15 -308.55 -192.1 L-300.8 -184.3 Q-290.85 -206.8 -277.2 -228.15 -271.35 -237.3 -262.6 -241.95 -254.95 -255.65 -239.65 -261.95 -238.35 -262.5 -237.4 -263.8 -230.4 -273.2 -222.15 -281.65 L-214.65 -289.15 Q-213.8 -295.45 -209.0 -300.45 -207.45 -302.05 -205.35 -303.15 -195.6 -308.15 -184.35 -309.5 L-157.25 -312.25 Q-154.4 -312.5 -151.85 -311.1 -134.2 -301.3 -113.65 -306.15 -93.3 -310.95 -72.65 -314.45 -68.35 -315.2 -64.25 -316.75 -57.0 -319.4 -51.45 -325.45 -48.2 -328.95 -45.5 -332.95 -30.9 -354.45 -22.15 -379.15 -13.55 -403.5 12.35 -408.1 38.2 -412.75 64.15 -412.5 75.3 -412.45 85.1 -407.4 98.3 -400.6 108.4 -389.5 116.75 -380.3 126.95 -374.15 130.55 -371.95 135.3 -372.6 145.5 -374.0 153.65 -379.7 M59.45 -425.95 Q52.0 -422.7 46.3 -429.25 40.05 -436.55 44.8 -445.05 47.05 -449.1 51.2 -449.25 66.45 -447.35 64.65 -432.85 64.05 -427.9 59.45 -425.95 M116.7 -232.8 Q125.45 -240.55 136.15 -243.3 156.6 -242.4 169.4 -225.7 176.75 -216.15 173.85 -205.3 173.3 -203.3 171.9 -201.55 160.05 -186.6 153.4 -169.5 152.65 -167.55 152.75 -165.3 153.5 -149.9 170.3 -147.35 200.75 -142.75 219.75 -117.15 238.05 -92.45 233.4 -61.7 232.4 -55.3 231.7 -48.8 230.5 -38.2 234.3 -28.95 234.8 -27.8 236.15 -27.05 244.9 -21.9 250.4 -13.8 252.3 -10.95 253.05 -7.5 257.05 10.8 245.05 25.65 241.7 29.8 236.85 32.05 216.9 41.15 202.0 24.35 191.6 12.65 190.3 -3.25 189.6 -11.25 187.45 -19.1 182.1 -38.65 167.65 -52.8 L163.65 -52.8 Q158.7 -49.6 154.0 -49.35 159.7 -38.1 156.6 -25.2 152.75 -9.1 140.5 2.55 124.45 17.85 103.4 24.0 99.25 25.2 95.95 28.2 L91.4 31.4 Q83.35 50.85 67.5 65.0 47.7 82.75 24.6 69.9 9.4 61.45 1.1 45.85 -1.3 41.4 -2.4 36.5 -6.3 19.3 5.5 5.7 9.4 1.2 10.7 -4.8 9.45 -15.05 0.7 -21.3 -0.45 -22.15 -0.9 -23.7 -5.3 -38.75 6.2 -49.25 9.1 -51.85 13.1 -51.0 21.4 -49.15 27.4 -43.05 37.8 -45.3 46.85 -41.0 49.05 -39.95 51.65 -39.8 64.05 -51.8 75.75 -64.8 83.8 -73.85 95.3 -77.85 99.95 -79.45 104.15 -80.3 L108.8 -79.95 112.3 -79.5 Q121.7 -78.05 129.6 -74.05 137.8 -74.05 145.15 -80.25 150.95 -85.15 151.8 -92.2 153.05 -101.8 144.55 -106.9 139.65 -109.85 134.55 -112.25 129.8 -114.45 125.25 -117.1 106.95 -127.75 95.95 -145.7 82.05 -168.35 88.3 -193.65 93.6 -215.3 111.95 -228.9 114.4 -230.7 116.7 -232.8 M44.8 -262.2 Q46.9 -257.45 50.3 -253.45 70.9 -229.45 67.25 -198.7 66.25 -190.45 61.1 -184.3 52.2 -173.65 42.6 -184.2 40.0 -187.1 38.3 -190.8 33.5 -201.35 21.95 -203.9 1.6 -208.4 -5.3 -226.6 -8.1 -233.95 -8.0 -242.05 -7.9 -249.75 -2.3 -254.8 0.5 -265.9 10.8 -272.0 19.0 -276.85 28.15 -278.3 39.55 -274.05 44.8 -262.2 M30.45 -152.95 Q36.6 -144.45 44.05 -136.95 55.0 -126.1 52.85 -111.2 52.65 -109.8 52.85 -108.3 53.65 -100.15 46.85 -94.15 28.75 -78.1 6.5 -89.75 0.65 -92.85 -4.45 -97.0 -15.3 -105.9 -25.6 -115.55 -28.85 -118.6 -32.55 -121.05 -51.35 -123.95 -62.75 -108.4 -70.05 -98.45 -61.85 -88.35 -49.6 -73.3 -44.25 -54.65 -40.95 -43.25 -43.5 -31.6 -46.85 -16.1 -58.25 -4.05 -65.45 3.55 -74.9 8.25 -82.05 11.8 -80.9 20.1 -79.7 28.95 -73.65 36.4 -70.15 40.8 -69.95 46.45 -69.55 58.65 -79.25 66.9 -92.15 77.9 -108.5 73.0 L-113.35 71.35 Q-100.7 82.05 -102.5 99.5 -103.4 108.45 -108.9 115.65 -116.55 125.65 -127.15 119.7 -133.05 116.45 -136.6 110.7 -142.85 100.45 -152.5 94.05 -155.2 92.25 -158.0 93.95 -178.25 106.0 -201.0 110.85 -206.85 112.1 -212.75 110.95 -230.1 107.6 -244.8 97.15 -250.35 93.25 -255.5 88.85 -278.35 69.55 -262.4 44.35 -250.75 25.95 -231.8 17.65 -221.6 17.15 -220.5 26.7 L-220.55 27.4 Q-209.35 36.2 -197.25 44.95 -183.35 55.0 -165.8 55.4 L-156.8 55.65 Q-141.35 56.25 -127.9 62.45 -134.7 56.4 -139.35 47.7 -148.6 30.3 -148.1 10.15 -147.3 -20.6 -125.55 -43.55 -116.45 -53.2 -124.8 -64.1 -138.7 -82.3 -153.35 -99.9 -155.65 -102.65 -157.25 -106.0 -168.65 -129.75 -172.55 -155.55 -174.8 -170.35 -171.8 -184.85 -164.0 -223.15 -128.5 -238.55 -125.55 -239.85 -122.8 -240.3 -104.5 -239.25 -98.15 -221.8 -96.75 -217.9 -96.0 -213.95 -94.1 -203.25 -93.45 -192.35 -93.1 -186.4 -89.3 -181.8 -78.65 -179.15 -69.6 -184.25 -61.5 -188.8 -52.4 -190.8 -30.75 -195.6 -10.1 -186.25 14.55 -175.05 30.45 -152.95 M70.9 -110.55 Q72.95 -123.1 87.45 -123.05 L90.2 -123.3 Q98.05 -123.75 103.0 -117.6 L103.2 -117.3 Q120.4 -110.75 112.9 -95.1 110.9 -90.85 106.2 -90.7 84.0 -89.85 71.75 -106.65 70.55 -108.25 70.9 -110.55 M199.45 -179.3 L199.7 -178.55 Q213.05 -171.7 204.25 -158.3 199.75 -151.55 191.75 -150.4 174.55 -148.0 173.45 -163.1 172.95 -170.0 177.05 -175.75 182.35 -183.15 190.2 -185.3 197.45 -185.9 199.45 -179.3 M250.15 -124.3 Q264.05 -121.55 266.4 -107.75 269.4 -90.2 256.45 -79.9 253.5 -77.55 250.15 -79.45 240.0 -85.2 238.45 -97.05 236.35 -113.2 248.0 -123.1 249.1 -124.0 250.15 -124.3 M334.15 -157.75 L333.5 -157.35 334.3 -157.45 334.15 -157.75 M378.5 141.45 Q374.25 150.75 367.15 158.35 L365.15 160.9 Q378.55 168.05 378.8 182.65 379.05 196.25 370.7 207.45 359.8 222.1 342.05 219.15 339.0 218.65 336.7 216.6 329.1 209.7 329.6 198.9 329.85 193.5 326.9 188.85 316.2 171.8 317.55 151.75 318.6 135.95 330.45 124.95 341.15 115.0 354.15 110.65 374.5 109.8 379.6 129.65 381.15 135.6 378.5 141.45 M302.25 222.3 Q295.85 241.65 287.45 260.3 284.95 265.85 284.25 271.9 280.95 302.1 260.35 324.4 245.5 340.5 225.1 335.15 222.5 334.5 220.1 333.0 215.6 330.15 210.15 330.15 L184.45 331.15 Q182.4 331.3 180.7 332.7 174.1 338.2 173.65 346.95 185.05 358.55 202.35 360.3 L211.25 361.55 Q239.4 366.95 251.5 392.0 253.85 396.8 254.25 402.15 256.45 431.2 240.8 456.25 229.45 474.4 212.05 487.45 192.95 501.8 171.85 513.25 136.35 532.45 97.0 540.4 86.45 542.5 75.65 543.05 32.25 545.3 -10.65 552.05 -33.8 555.7 -55.6 548.75 -65.8 545.55 -72.9 537.3 -90.2 517.3 -79.65 492.4 -68.8 466.75 -43.05 456.65 -39.55 455.3 -35.8 454.95 -9.35 452.4 13.0 465.15 19.4 468.8 25.65 472.6 34.8 478.15 45.3 481.1 65.7 486.85 87.0 484.9 99.35 483.75 111.6 481.8 124.35 479.75 133.8 470.25 L142.3 461.3 Q157.1 444.9 158.15 423.9 158.5 417.2 155.25 411.25 148.25 398.4 132.65 399.0 L123.65 398.5 Q87.6 393.2 54.55 409.4 51.6 410.85 48.2 410.9 20.05 411.4 4.85 388.55 1.05 382.8 -2.0 376.65 -5.35 369.9 -4.35 362.55 -1.4 340.65 12.65 323.1 33.4 297.3 64.55 284.55 73.4 280.95 82.8 279.3 105.35 275.4 128.25 273.7 133.95 273.25 139.1 270.95 150.65 265.75 159.6 256.6 L172.5 243.25 Q188.75 226.25 211.15 217.0 216.0 215.0 220.35 212.0 226.75 207.6 235.35 206.7 243.95 205.85 252.05 202.35 264.9 196.8 278.15 194.7 299.3 192.65 302.9 212.1 303.9 217.3 302.25 222.3 M161.15 35.7 Q186.05 37.0 199.4 58.95 207.4 72.1 223.4 72.15 254.1 72.3 278.1 90.85 291.65 101.25 296.15 117.8 301.6 137.95 289.6 156.05 278.3 173.1 258.7 172.2 245.25 171.6 241.85 159.0 238.0 144.8 230.65 132.5 221.1 116.6 201.65 116.25 180.25 115.8 160.15 109.5 154.95 107.9 150.4 105.0 147.15 102.95 144.2 100.35 126.0 84.35 134.85 61.7 139.95 48.7 151.35 40.35 156.15 36.85 161.15 35.7 M-2.35 -68.55 Q-3.35 -53.55 -18.2 -55.45 -22.4 -56.0 -25.05 -59.6 -32.15 -69.0 -24.2 -79.15 -20.7 -83.55 -15.8 -84.3 -1.4 -82.9 -2.35 -68.55 M86.05 85.4 Q81.15 68.5 99.2 63.55 L106.2 61.7 Q123.0 68.1 127.1 86.3 129.55 97.15 130.1 108.2 130.8 121.15 119.1 119.1 116.95 118.7 115.4 117.0 L113.7 114.65 Q99.8 102.65 87.8 88.7 86.6 87.3 86.05 85.4 M100.25 80.0 L100.8 79.5 Q100.45 79.55 100.2 79.95 L100.25 80.0 M113.3 130.9 Q113.9 131.8 114.9 131.75 134.35 130.7 152.65 136.7 170.9 142.65 181.15 159.45 189.05 172.45 185.5 187.5 178.3 217.6 150.95 232.7 133.15 242.5 112.55 240.1 109.65 239.75 106.8 240.95 86.8 249.65 69.45 263.3 46.0 281.65 18.2 291.75 10.95 294.4 3.3 295.5 -14.35 298.05 -30.8 292.35 -58.8 282.6 -63.4 254.75 -64.15 250.35 -62.65 246.05 -54.4 222.0 -32.1 208.0 -13.6 196.4 -16.3 175.55 -16.7 172.15 -19.45 169.85 -27.3 163.3 -36.0 157.65 -53.1 146.6 -47.8 126.9 -44.5 114.7 -33.8 107.2 -21.4 98.5 -6.8 97.7 19.45 102.6 45.95 104.1 L49.4 103.9 Q68.35 101.05 86.6 103.65 88.6 103.9 90.15 105.2 103.45 116.1 113.3 130.9 M222.6 162.45 L222.65 163.15 Q237.1 182.4 221.55 200.15 218.45 203.65 213.85 201.95 205.25 198.75 202.85 189.85 198.0 171.85 209.55 158.0 211.45 155.65 214.15 155.65 221.15 155.75 222.6 162.45 M-25.3 377.1 Q-29.65 378.45 -33.6 380.8 -58.45 395.35 -81.1 413.15 -85.1 416.3 -89.8 418.3 -114.15 428.7 -138.75 420.65 -144.95 418.65 -149.9 414.4 -164.05 402.3 -161.15 384.75 -158.65 369.65 -147.9 357.85 -135.9 344.6 -131.1 327.1 -128.55 318.0 -121.0 311.95 -106.25 300.2 -87.75 297.65 -71.0 301.25 -54.0 303.1 L-52.5 303.15 Q-41.5 298.0 -34.1 309.9 -24.55 325.25 -14.2 339.95 -4.8 353.35 -13.3 367.7 -17.4 374.7 -25.3 377.1 M-285.95 -533.35 Q-259.55 -541.25 -232.75 -544.25 -213.35 -546.4 -194.7 -541.8 -174.85 -536.9 -162.35 -521.8 -160.05 -519.05 -159.15 -515.45 -152.75 -490.5 -172.0 -471.95 -193.9 -450.8 -223.65 -445.95 -244.95 -442.45 -259.45 -426.25 -270.85 -413.6 -278.25 -398.25 -279.5 -390.2 -285.2 -384.25 -294.55 -374.5 -307.9 -372.15 -316.45 -370.65 -322.35 -377.1 -331.75 -387.5 -334.95 -401.3 -338.2 -415.4 -351.2 -420.2 -354.85 -421.55 -358.55 -421.7 L-413.7 -424.15 -430.15 -425.5 Q-438.65 -426.5 -446.0 -431.0 -454.3 -436.05 -461.55 -442.5 -476.85 -456.1 -476.05 -475.95 -475.25 -495.5 -461.6 -510.05 -444.1 -528.75 -418.75 -531.8 -399.6 -534.15 -381.35 -527.9 -377.25 -526.5 -372.85 -525.75 L-360.45 -523.9 Q-325.6 -519.2 -293.1 -530.95 L-285.95 -533.35 M-384.45 -236.0 Q-384.35 -240.05 -381.05 -242.45 -376.1 -246.05 -370.75 -247.25 -345.95 -249.8 -327.45 -234.5 -326.35 -233.55 -326.25 -232.0 -325.95 -227.45 -329.5 -224.5 -328.65 -206.1 -348.0 -204.8 -370.0 -203.35 -381.15 -223.0 -384.6 -229.1 -384.45 -236.0 M-176.8 -418.3 Q-153.5 -421.2 -143.2 -402.55 -140.0 -396.9 -139.7 -390.35 -139.1 -379.3 -143.65 -369.55 -150.5 -354.75 -166.9 -351.85 -168.55 -351.55 -170.3 -351.8 -202.1 -356.5 -224.7 -335.9 -230.2 -330.9 -233.4 -324.2 -246.2 -297.4 -266.65 -275.65 -269.75 -272.35 -273.35 -269.55 -292.85 -254.45 -315.9 -258.85 -319.55 -259.55 -322.6 -261.75 -342.35 -276.4 -337.25 -300.65 -334.45 -313.75 -326.85 -325.0 -313.55 -344.8 -291.3 -351.6 -286.05 -353.2 -280.35 -352.5 -274.55 -351.85 -268.3 -353.8 -264.2 -377.35 -244.0 -390.85 -215.75 -409.8 -182.6 -417.15 L-176.8 -418.3 M-117.25 -335.3 Q-115.8 -328.85 -121.2 -324.85 -129.6 -318.55 -138.45 -325.85 -148.05 -333.85 -139.15 -343.65 -136.85 -346.25 -133.75 -346.25 -119.95 -347.45 -117.25 -335.3 M-82.0 -341.95 Q-79.1 -353.5 -67.75 -357.25 -51.75 -353.15 -57.1 -337.8 -62.4 -322.55 -76.6 -329.35 -84.25 -333.0 -82.0 -341.95 M-169.35 20.95 Q-175.4 30.05 -186.4 25.2 -204.5 17.2 -218.6 3.0 -220.25 1.3 -222.65 0.6 -236.15 -3.6 -248.3 3.95 -267.2 15.7 -279.95 -0.55 -282.15 -3.35 -283.6 -6.8 -292.05 -26.6 -274.6 -38.45 -271.1 -40.8 -266.95 -41.95 L-260.75 -43.3 Q-249.5 -39.05 -239.65 -33.1 -235.4 -30.55 -229.75 -30.55 -212.65 -30.4 -199.05 -20.7 -195.0 -17.8 -190.55 -15.55 -172.85 -6.55 -167.95 11.6 -166.6 16.7 -169.35 20.95 M-32.25 76.15 L-33.05 75.95 -32.3 76.2 -32.25 76.15 M-35.15 91.6 Q-53.9 83.7 -52.1 63.35 -50.85 49.55 -36.8 46.7 -19.5 50.35 -17.05 68.55 -14.5 87.2 -32.0 91.9 -33.55 92.3 -35.15 91.6 M-203.25 -4.8 L-203.2 -4.85 -203.4 -4.95 -203.25 -4.8 M-300.9 25.9 Q-298.7 27.35 -296.15 28.3 -280.85 34.15 -278.95 48.75 -278.4 53.3 -282.15 56.35 -286.4 59.75 -291.8 60.55 -323.35 65.3 -348.05 46.3 -352.65 42.8 -356.75 38.65 -366.05 35.95 -367.65 26.0 -369.25 16.3 -362.0 10.5 -359.95 8.8 -357.75 8.65 -342.45 11.2 -327.75 16.95 -321.65 19.3 -314.9 20.4 -307.4 21.65 -300.9 25.9 M-214.75 168.8 Q-190.05 169.5 -166.5 161.45 -154.5 157.35 -141.9 155.5 -115.0 151.55 -88.7 157.15 -86.65 157.55 -84.95 158.9 -65.2 173.85 -71.2 197.9 -72.8 204.15 -76.95 209.35 -83.05 216.8 -92.3 220.7 -89.75 236.3 -93.85 251.5 -100.45 276.05 -119.2 293.3 -126.15 299.7 -133.95 304.8 -155.65 318.95 -181.4 315.35 -192.0 313.85 -201.2 308.2 -226.9 292.45 -255.45 303.55 -263.45 306.7 -271.05 310.9 -286.2 319.3 -302.25 325.85 -330.95 337.55 -361.65 332.9 -372.65 331.25 -382.2 325.65 -400.25 315.15 -404.25 294.55 -409.25 268.85 -401.85 243.9 -397.65 229.65 -392.05 215.8 -385.45 199.5 -380.65 182.35 -376.15 166.35 -387.65 154.3 L-406.4 134.1 Q-415.15 124.5 -415.1 111.7 -415.05 102.85 -412.6 94.55 -402.8 60.9 -367.75 55.7 -339.65 52.1 -325.3 75.3 -309.9 100.25 -286.35 118.3 -271.85 129.5 -260.9 144.5 -243.8 167.95 -214.75 168.8" fill="#207520" fill-opacity="0.4" fill-rule="evenodd" stroke="none"/>
  </g>
</svg>
