<?xml version="1.0" encoding="UTF-8" standalone="no"?>
<svg xmlns:xlink="http://www.w3.org/1999/xlink" height="10.0px" width="13.85px" xmlns="http://www.w3.org/2000/svg">
  <g transform="matrix(1.0, 0.0, 0.0, 1.0, 6.15, -1.05)">
    <path d="M-1.5 2.85 L0.05 1.3 Q-1.1 3.9 -0.7 3.9 L-0.4 5.0 Q-0.15 5.35 -0.4 5.8 -0.7 6.3 -1.35 6.6 L-2.5 6.95 Q-3.1 6.95 -3.3 6.6 -3.75 6.0 -2.95 4.55 L-1.5 2.85" fill="url(#gradient0)" fill-rule="evenodd" stroke="none"/>
    <path d="M-1.5 2.85 L0.05 1.3 Q-1.1 3.9 -0.7 3.9 L-0.4 5.0 Q-0.15 5.35 -0.4 5.8 -0.7 6.3 -1.35 6.6 L-2.5 6.95 Q-3.1 6.95 -3.3 6.6 -3.75 6.0 -2.95 4.55 L-1.5 2.85 Z" fill="none" stroke="#000000" stroke-linecap="round" stroke-linejoin="round" stroke-width="0.5"/>
    <path d="M2.65 2.85 L1.1 1.3 Q2.25 3.9 1.85 3.9 L1.55 5.0 Q1.3 5.35 1.55 5.8 L2.5 6.6 3.65 6.95 Q4.25 6.95 4.45 6.6 4.9 6.0 4.1 4.55 L2.65 2.85" fill="url(#gradient1)" fill-rule="evenodd" stroke="none"/>
    <path d="M2.65 2.85 L1.1 1.3 Q2.25 3.9 1.85 3.9 L1.55 5.0 Q1.3 5.35 1.55 5.8 L2.5 6.6 3.65 6.95 Q4.25 6.95 4.45 6.6 4.9 6.0 4.1 4.55 L2.65 2.85 Z" fill="none" stroke="#000000" stroke-linecap="round" stroke-linejoin="round" stroke-width="0.5"/>
    <path d="M-5.0 4.25 L-3.85 2.4 Q-3.9 5.5 -3.45 5.5 L-2.45 6.75 Q-1.95 7.15 -2.05 7.7 -2.15 8.3 -2.75 8.65 -3.3 9.05 -4.0 9.05 -4.7 9.05 -5.2 8.65 -6.15 7.95 -5.85 6.2 L-5.0 4.25" fill="url(#gradient2)" fill-rule="evenodd" stroke="none"/>
    <path d="M-5.0 4.25 L-3.85 2.4 Q-3.9 5.5 -3.45 5.5 L-2.45 6.75 Q-1.95 7.15 -2.05 7.7 -2.15 8.3 -2.75 8.65 -3.3 9.05 -4.0 9.05 -4.7 9.05 -5.2 8.65 -6.15 7.95 -5.85 6.2 L-5.0 4.25 Z" fill="none" stroke="#000000" stroke-linecap="round" stroke-linejoin="round" stroke-width="0.5"/>
    <path d="M6.55 4.35 L5.4 2.5 Q5.45 5.6 5.0 5.6 L4.0 6.85 Q3.5 7.25 3.6 7.8 3.7 8.4 4.3 8.75 4.85 9.15 5.55 9.15 6.25 9.15 6.75 8.75 7.7 8.05 7.4 6.3 L6.55 4.35" fill="url(#gradient3)" fill-rule="evenodd" stroke="none"/>
    <path d="M6.55 4.35 L5.4 2.5 Q5.45 5.6 5.0 5.6 L4.0 6.85 Q3.5 7.25 3.6 7.8 3.7 8.4 4.3 8.75 4.85 9.15 5.55 9.15 6.25 9.15 6.75 8.75 7.7 8.05 7.4 6.3 L6.55 4.35 Z" fill="none" stroke="#000000" stroke-linecap="round" stroke-linejoin="round" stroke-width="0.5"/>
    <path d="M-1.8 5.7 L0.2 3.7 Q-1.25 7.0 -0.8 7.0 L-0.4 8.3 Q-0.1 8.75 -0.45 9.35 L-1.55 10.35 Q-2.3 10.8 -3.0 10.8 -3.7 10.8 -4.0 10.35 -4.6 9.6 -3.55 7.75 L-1.8 5.7" fill="url(#gradient4)" fill-rule="evenodd" stroke="none"/>
    <path d="M-1.8 5.7 L0.2 3.7 Q-1.25 7.0 -0.8 7.0 L-0.4 8.3 Q-0.1 8.75 -0.45 9.35 L-1.55 10.35 Q-2.3 10.8 -3.0 10.8 -3.7 10.8 -4.0 10.35 -4.6 9.6 -3.55 7.75 L-1.8 5.7 Z" fill="none" stroke="#000000" stroke-linecap="round" stroke-linejoin="round" stroke-width="0.5"/>
    <path d="M2.9 5.6 L0.9 3.6 Q2.35 6.9 1.9 6.9 L1.45 8.2 Q1.15 8.65 1.5 9.25 1.85 9.85 2.65 10.25 L4.1 10.7 Q4.8 10.7 5.1 10.25 5.7 9.5 4.65 7.65 L2.9 5.6" fill="url(#gradient5)" fill-rule="evenodd" stroke="none"/>
    <path d="M2.9 5.6 L0.9 3.6 Q2.35 6.9 1.9 6.9 L1.45 8.2 Q1.15 8.65 1.5 9.25 1.85 9.85 2.65 10.25 L4.1 10.7 Q4.8 10.7 5.1 10.25 5.7 9.5 4.65 7.65 L2.9 5.6 Z" fill="none" stroke="#000000" stroke-linecap="round" stroke-linejoin="round" stroke-width="0.5"/>
  </g>
  <defs>
    <radialGradient cx="0" cy="0" gradientTransform="matrix(0.0022, 0.0, -0.0011, 0.0019, -1.8, 5.8)" gradientUnits="userSpaceOnUse" id="gradient0" r="819.2" spreadMethod="pad">
      <stop offset="0.0" stop-color="#bebe4b"/>
      <stop offset="1.0" stop-color="#ffffff"/>
    </radialGradient>
    <radialGradient cx="0" cy="0" gradientTransform="matrix(-0.0022, 0.0, 0.0011, 0.0019, 2.95, 5.8)" gradientUnits="userSpaceOnUse" id="gradient1" r="819.2" spreadMethod="pad">
      <stop offset="0.0" stop-color="#bebe4b"/>
      <stop offset="1.0" stop-color="#ffffff"/>
    </radialGradient>
    <radialGradient cx="0" cy="0" gradientTransform="matrix(0.0028, 0.0, -4.0E-4, 0.0023, -3.8, 7.7)" gradientUnits="userSpaceOnUse" id="gradient2" r="819.2" spreadMethod="pad">
      <stop offset="0.0" stop-color="#bebe4b"/>
      <stop offset="1.0" stop-color="#ffffff"/>
    </radialGradient>
    <radialGradient cx="0" cy="0" gradientTransform="matrix(-0.0028, 0.0, 4.0E-4, 0.0023, 5.35, 7.8)" gradientUnits="userSpaceOnUse" id="gradient3" r="819.2" spreadMethod="pad">
      <stop offset="0.0" stop-color="#bebe4b"/>
      <stop offset="1.0" stop-color="#ffffff"/>
    </radialGradient>
    <radialGradient cx="0" cy="0" gradientTransform="matrix(0.0028, 0.0, -0.0014, 0.0024, -2.2, 9.35)" gradientUnits="userSpaceOnUse" id="gradient4" r="819.2" spreadMethod="pad">
      <stop offset="0.0" stop-color="#bebe4b"/>
      <stop offset="1.0" stop-color="#ffffff"/>
    </radialGradient>
    <radialGradient cx="0" cy="0" gradientTransform="matrix(-0.0028, 0.0, 0.0014, 0.0024, 3.25, 9.25)" gradientUnits="userSpaceOnUse" id="gradient5" r="819.2" spreadMethod="pad">
      <stop offset="0.0" stop-color="#bebe4b"/>
      <stop offset="1.0" stop-color="#ffffff"/>
    </radialGradient>
  </defs>
</svg>
