<?xml version="1.0" encoding="UTF-8" standalone="no"?>
<svg xmlns:xlink="http://www.w3.org/1999/xlink" height="17.5px" width="17.5px" xmlns="http://www.w3.org/2000/svg">
  <g transform="matrix(1.0, 0.0, 0.0, 1.0, 7.8, 8.7)">
    <path d="M-4.5 -5.45 L-4.85 -5.05 Q-6.8 -2.9 -6.8 0.05 -6.8 3.25 -4.5 5.5 L-4.15 5.85 Q-2.0 7.8 0.95 7.8 3.95 7.8 6.15 5.75 L6.45 5.5 Q8.7 3.25 8.7 0.05 8.7 -2.8 6.85 -4.95 L6.45 -5.45 Q4.15 -7.7 0.95 -7.7 -2.25 -7.7 -4.5 -5.45" fill="url(#gradient0)" fill-rule="evenodd" stroke="none"/>
    <path d="M-4.5 -5.45 L-4.85 -5.05 Q-6.8 -2.9 -6.8 0.05 -6.8 3.25 -4.5 5.5 L-4.15 5.85 Q-2.0 7.8 0.95 7.8 3.95 7.8 6.15 5.75 L6.45 5.5 Q8.7 3.25 8.7 0.05 8.7 -2.8 6.85 -4.95 L6.45 -5.45 Q4.15 -7.7 0.95 -7.7 -2.25 -7.7 -4.5 -5.45 Z" fill="none" stroke="#000000" stroke-linecap="round" stroke-linejoin="round" stroke-width="2.0"/>
  </g>
  <defs>
    <linearGradient gradientTransform="matrix(-0.0095, 0.0, 0.0, 0.0095, 0.95, 0.05)" gradientUnits="userSpaceOnUse" id="gradient0" spreadMethod="pad" x1="-819.2" x2="819.2">
      <stop offset="0.0" stop-color="#ffcc99"/>
      <stop offset="0.6901960784313725" stop-color="#ffe6cf"/>
      <stop offset="0.7411764705882353" stop-color="#ffe6cf"/>
      <stop offset="0.792156862745098" stop-color="#ffe6cf"/>
      <stop offset="0.8352941176470589" stop-color="#ffe7d0"/>
      <stop offset="1.0" stop-color="#ffffff"/>
    </linearGradient>
  </defs>
</svg>
