<?xml version="1.0" encoding="UTF-8" standalone="no"?>
<svg xmlns:xlink="http://www.w3.org/1999/xlink" height="17.5px" width="17.5px" xmlns="http://www.w3.org/2000/svg">
  <g transform="matrix(1.0, 0.0, 0.0, 1.0, 7.9, 18.5)">
    <path d="M-4.6 -15.25 L-4.95 -14.85 Q-6.9 -12.7 -6.9 -9.75 -6.9 -6.55 -4.6 -4.3 L-4.25 -3.95 Q-2.1 -2.0 0.85 -2.0 3.85 -2.0 6.05 -4.05 L6.35 -4.3 Q8.6 -6.55 8.6 -9.75 8.6 -12.6 6.75 -14.75 L6.35 -15.25 Q4.05 -17.5 0.85 -17.5 -2.35 -17.5 -4.6 -15.25" fill="url(#gradient0)" fill-rule="evenodd" stroke="none"/>
    <path d="M-4.6 -15.25 L-4.95 -14.85 Q-6.9 -12.7 -6.9 -9.75 -6.9 -6.55 -4.6 -4.3 L-4.25 -3.95 Q-2.1 -2.0 0.85 -2.0 3.85 -2.0 6.05 -4.05 L6.35 -4.3 Q8.6 -6.55 8.6 -9.75 8.6 -12.6 6.75 -14.75 L6.35 -15.25 Q4.05 -17.5 0.85 -17.5 -2.35 -17.5 -4.6 -15.25 Z" fill="none" stroke="#000000" stroke-linecap="round" stroke-linejoin="round" stroke-width="2.0"/>
  </g>
  <defs>
    <linearGradient gradientTransform="matrix(-0.0095, 0.0, 0.0, 0.0095, 0.85, -9.75)" gradientUnits="userSpaceOnUse" id="gradient0" spreadMethod="pad" x1="-819.2" x2="819.2">
      <stop offset="0.0" stop-color="#ffcc99"/>
      <stop offset="0.6901960784313725" stop-color="#ffe6cf"/>
      <stop offset="0.7411764705882353" stop-color="#ffe6cf"/>
      <stop offset="0.792156862745098" stop-color="#ffe6cf"/>
      <stop offset="0.8352941176470589" stop-color="#ffe7d0"/>
      <stop offset="1.0" stop-color="#ffffff"/>
    </linearGradient>
  </defs>
</svg>
