<?xml version="1.0" encoding="UTF-8" standalone="no"?>
<svg xmlns:xlink="http://www.w3.org/1999/xlink" height="5.15px" width="7.6px" xmlns="http://www.w3.org/2000/svg">
  <g transform="matrix(1.0, 0.0, 0.0, 1.0, -2.65, -1.3)">
    <path d="M3.75 5.0 Q3.1 4.65 2.95 3.9 2.75 3.1 3.1 2.5 3.5 1.85 4.25 1.65 L5.6 1.75 Q6.75 2.4 6.95 3.35 L10.0 6.2 Q6.2 5.1 5.65 5.25 L3.75 5.0" fill="url(#gradient0)" fill-rule="evenodd" stroke="none"/>
    <path d="M3.75 5.0 Q3.1 4.65 2.95 3.9 2.75 3.1 3.1 2.5 3.5 1.85 4.25 1.65 L5.6 1.75 Q6.75 2.4 6.95 3.35 L10.0 6.2 Q6.2 5.1 5.65 5.25 L3.75 5.0 Z" fill="none" stroke="#000000" stroke-linecap="round" stroke-linejoin="round" stroke-width="0.5"/>
  </g>
  <defs>
    <radialGradient cx="0" cy="0" gradientTransform="matrix(-0.0015, 0.0025, -0.0025, -0.0015, 4.65, 3.4)" gradientUnits="userSpaceOnUse" id="gradient0" r="819.2" spreadMethod="pad">
      <stop offset="0.0" stop-color="#bebe4b"/>
      <stop offset="1.0" stop-color="#ffffff"/>
    </radialGradient>
  </defs>
</svg>
