<?xml version="1.0" encoding="UTF-8" standalone="no"?>
<svg xmlns:xlink="http://www.w3.org/1999/xlink" height="7.4px" width="5.55px" xmlns="http://www.w3.org/2000/svg">
  <g transform="matrix(1.0, 0.0, 0.0, 1.0, 9.4, 11.05)">
    <path d="M-4.35 -6.6 Q-3.95 -5.95 -4.2 -5.25 -4.45 -4.5 -5.1 -4.1 L-6.45 -3.95 Q-7.2 -4.1 -7.6 -4.75 -8.25 -5.9 -7.95 -6.75 L-9.15 -10.8 Q-6.45 -7.95 -5.9 -7.8 -4.9 -7.55 -4.35 -6.6" fill="url(#gradient0)" fill-rule="evenodd" stroke="none"/>
    <path d="M-4.35 -6.6 Q-3.95 -5.95 -4.2 -5.25 -4.45 -4.5 -5.1 -4.1 L-6.45 -3.95 Q-7.2 -4.1 -7.6 -4.75 -8.25 -5.9 -7.95 -6.75 L-9.15 -10.8 Q-6.45 -7.95 -5.9 -7.8 -4.9 -7.55 -4.35 -6.6 Z" fill="none" stroke="#000000" stroke-linecap="round" stroke-linejoin="round" stroke-width="0.5"/>
  </g>
  <defs>
    <radialGradient cx="0" cy="0" gradientTransform="matrix(0.0025, -0.0015, 0.0015, 0.0025, -6.0, -5.65)" gradientUnits="userSpaceOnUse" id="gradient0" r="819.2" spreadMethod="pad">
      <stop offset="0.0" stop-color="#bebe4b"/>
      <stop offset="1.0" stop-color="#ffffff"/>
    </radialGradient>
  </defs>
</svg>
