<?xml version="1.0" encoding="UTF-8" standalone="no"?>
<svg xmlns:xlink="http://www.w3.org/1999/xlink" height="8.35px" width="4.2px" xmlns="http://www.w3.org/2000/svg">
  <g transform="matrix(1.0, 0.0, 0.0, 1.0, 2.05, -2.45)">
    <path d="M-1.8 4.5 Q-1.8 3.75 -1.25 3.25 -0.7 2.7 0.05 2.7 0.8 2.7 1.35 3.25 1.9 3.75 1.9 4.5 1.9 5.8 1.25 6.45 L0.25 10.55 Q-0.7 6.7 -1.1 6.3 -1.8 5.6 -1.8 4.5" fill="url(#gradient0)" fill-rule="evenodd" stroke="none"/>
    <path d="M-1.8 4.5 Q-1.8 3.75 -1.25 3.25 -0.7 2.7 0.05 2.7 0.8 2.7 1.35 3.25 1.9 3.75 1.9 4.5 1.9 5.8 1.25 6.45 L0.25 10.55 Q-0.7 6.7 -1.1 6.3 -1.8 5.6 -1.8 4.5 Z" fill="none" stroke="#000000" stroke-linecap="round" stroke-linejoin="round" stroke-width="0.5"/>
  </g>
  <defs>
    <radialGradient cx="0" cy="0" gradientTransform="matrix(-0.0029, 0.0, 0.0, -0.0029, 0.05, 4.5)" gradientUnits="userSpaceOnUse" id="gradient0" r="819.2" spreadMethod="pad">
      <stop offset="0.0" stop-color="#bebe4b"/>
      <stop offset="1.0" stop-color="#ffffff"/>
    </radialGradient>
  </defs>
</svg>
