<?xml version="1.0" encoding="UTF-8" standalone="no"?>
<svg xmlns:xlink="http://www.w3.org/1999/xlink" height="2.35px" width="4.4px" xmlns="http://www.w3.org/2000/svg">
  <g transform="matrix(1.0, 0.0, 0.0, 1.0, 6.0, 1.35)">
    <path d="M-2.75 -1.1 L-2.1 -0.85 -1.85 -0.2 Q-1.85 0.2 -2.1 0.45 -2.35 0.75 -2.75 0.75 -3.4 0.75 -3.7 0.4 L-5.75 -0.1 Q-3.85 -0.55 -3.65 -0.75 -3.3 -1.1 -2.75 -1.1" fill="url(#gradient0)" fill-rule="evenodd" stroke="none"/>
    <path d="M-2.75 -1.1 L-2.1 -0.85 -1.85 -0.2 Q-1.85 0.2 -2.1 0.45 -2.35 0.75 -2.75 0.75 -3.4 0.75 -3.7 0.4 L-5.75 -0.1 Q-3.85 -0.55 -3.65 -0.75 -3.3 -1.1 -2.75 -1.1 Z" fill="none" stroke="#000000" stroke-linecap="round" stroke-linejoin="round" stroke-width="0.5"/>
  </g>
  <defs>
    <radialGradient cx="0" cy="0" gradientTransform="matrix(0.0, -0.0015, 0.0015, 0.0, -2.75, -0.2)" gradientUnits="userSpaceOnUse" id="gradient0" r="819.2" spreadMethod="pad">
      <stop offset="0.0" stop-color="#bebe4b"/>
      <stop offset="1.0" stop-color="#ffffff"/>
    </radialGradient>
  </defs>
</svg>
