<?xml version="1.0" encoding="UTF-8" standalone="no"?>
<svg xmlns:xlink="http://www.w3.org/1999/xlink" height="7.4px" width="5.55px" xmlns="http://www.w3.org/2000/svg">
  <g transform="matrix(1.0, 0.0, 0.0, 1.0, 11.25, 14.05)">
    <path d="M-6.2 -9.6 Q-5.8 -8.95 -6.05 -8.25 -6.3 -7.5 -6.95 -7.1 L-8.3 -6.95 Q-9.05 -7.1 -9.45 -7.75 -10.1 -8.9 -9.8 -9.75 L-11.0 -13.8 Q-8.3 -10.95 -7.75 -10.8 -6.75 -10.55 -6.2 -9.6" fill="url(#gradient0)" fill-rule="evenodd" stroke="none"/>
    <path d="M-6.2 -9.6 Q-5.8 -8.95 -6.05 -8.25 -6.3 -7.5 -6.95 -7.1 L-8.3 -6.95 Q-9.05 -7.1 -9.45 -7.75 -10.1 -8.9 -9.8 -9.75 L-11.0 -13.8 Q-8.3 -10.95 -7.75 -10.8 -6.75 -10.55 -6.2 -9.6 Z" fill="none" stroke="#000000" stroke-linecap="round" stroke-linejoin="round" stroke-width="0.5"/>
  </g>
  <defs>
    <radialGradient cx="0" cy="0" gradientTransform="matrix(0.0025, -0.0015, 0.0015, 0.0025, -7.85, -8.65)" gradientUnits="userSpaceOnUse" id="gradient0" r="819.2" spreadMethod="pad">
      <stop offset="0.0" stop-color="#bebe4b"/>
      <stop offset="1.0" stop-color="#ffffff"/>
    </radialGradient>
  </defs>
</svg>
