<?xml version="1.0" encoding="UTF-8" standalone="no"?>
<svg xmlns:xlink="http://www.w3.org/1999/xlink" height="8.35px" width="4.2px" xmlns="http://www.w3.org/2000/svg">
  <g transform="matrix(1.0, 0.0, 0.0, 1.0, 2.05, -9.05)">
    <path d="M-1.8 11.1 Q-1.8 10.35 -1.25 9.85 -0.7 9.3 0.05 9.3 0.8 9.3 1.35 9.85 1.9 10.35 1.9 11.1 1.9 12.4 1.25 13.05 L0.25 17.15 Q-0.7 13.3 -1.1 12.9 -1.8 12.2 -1.8 11.1" fill="url(#gradient0)" fill-rule="evenodd" stroke="none"/>
    <path d="M-1.8 11.1 Q-1.8 10.35 -1.25 9.85 -0.7 9.3 0.05 9.3 0.8 9.3 1.35 9.85 1.9 10.35 1.9 11.1 1.9 12.4 1.25 13.05 L0.25 17.15 Q-0.7 13.3 -1.1 12.9 -1.8 12.2 -1.8 11.1 Z" fill="none" stroke="#000000" stroke-linecap="round" stroke-linejoin="round" stroke-width="0.5"/>
  </g>
  <defs>
    <radialGradient cx="0" cy="0" gradientTransform="matrix(-0.0029, 0.0, 0.0, -0.0029, 0.05, 11.1)" gradientUnits="userSpaceOnUse" id="gradient0" r="819.2" spreadMethod="pad">
      <stop offset="0.0" stop-color="#bebe4b"/>
      <stop offset="1.0" stop-color="#ffffff"/>
    </radialGradient>
  </defs>
</svg>
