<?xml version="1.0" encoding="UTF-8" standalone="no"?>
<svg xmlns:xlink="http://www.w3.org/1999/xlink" height="8.35px" width="4.2px" xmlns="http://www.w3.org/2000/svg">
  <g transform="matrix(1.0, 0.0, 0.0, 1.0, 1.55, 17.75)">
    <path d="M2.4 -11.45 Q2.4 -10.7 1.85 -10.2 1.3 -9.65 0.55 -9.65 -0.2 -9.65 -0.75 -10.2 -1.3 -10.7 -1.3 -11.45 -1.3 -12.75 -0.65 -13.4 0.2 -17.5 0.35 -17.5 1.3 -13.65 1.7 -13.25 2.4 -12.55 2.4 -11.45" fill="url(#gradient0)" fill-rule="evenodd" stroke="none"/>
    <path d="M2.4 -11.45 Q2.4 -10.7 1.85 -10.2 1.3 -9.65 0.55 -9.65 -0.2 -9.65 -0.75 -10.2 -1.3 -10.7 -1.3 -11.45 -1.3 -12.75 -0.65 -13.4 0.2 -17.5 0.35 -17.5 1.3 -13.65 1.7 -13.25 2.4 -12.55 2.4 -11.45 Z" fill="none" stroke="#000000" stroke-linecap="round" stroke-linejoin="round" stroke-width="0.5"/>
  </g>
  <defs>
    <radialGradient cx="0" cy="0" gradientTransform="matrix(0.0029, 0.0, 0.0, 0.0029, 0.55, -11.45)" gradientUnits="userSpaceOnUse" id="gradient0" r="819.2" spreadMethod="pad">
      <stop offset="0.0" stop-color="#bebe4b"/>
      <stop offset="1.0" stop-color="#ffffff"/>
    </radialGradient>
  </defs>
</svg>
