<?xml version="1.0" encoding="UTF-8" standalone="no"?>
<svg xmlns:xlink="http://www.w3.org/1999/xlink" height="4.2px" width="8.35px" xmlns="http://www.w3.org/2000/svg">
  <g transform="matrix(1.0, 0.0, 0.0, 1.0, 12.4, 2.2)">
    <path d="M-6.1 -1.95 Q-5.35 -1.95 -4.85 -1.4 -4.3 -0.85 -4.3 -0.1 -4.3 0.65 -4.85 1.2 -5.35 1.75 -6.1 1.75 -7.4 1.75 -8.05 1.1 L-12.15 0.1 Q-8.3 -0.85 -7.9 -1.25 -7.2 -1.95 -6.1 -1.95" fill="url(#gradient0)" fill-rule="evenodd" stroke="none"/>
    <path d="M-6.1 -1.95 Q-5.35 -1.95 -4.85 -1.4 -4.3 -0.85 -4.3 -0.1 -4.3 0.65 -4.85 1.2 -5.35 1.75 -6.1 1.75 -7.4 1.75 -8.05 1.1 L-12.15 0.1 Q-8.3 -0.85 -7.9 -1.25 -7.2 -1.95 -6.1 -1.95 Z" fill="none" stroke="#000000" stroke-linecap="round" stroke-linejoin="round" stroke-width="0.5"/>
  </g>
  <defs>
    <radialGradient cx="0" cy="0" gradientTransform="matrix(0.0, -0.0029, 0.0029, 0.0, -6.1, -0.1)" gradientUnits="userSpaceOnUse" id="gradient0" r="819.2" spreadMethod="pad">
      <stop offset="0.0" stop-color="#bebe4b"/>
      <stop offset="1.0" stop-color="#ffffff"/>
    </radialGradient>
  </defs>
</svg>
