<?xml version="1.0" encoding="UTF-8" standalone="no"?>
<svg xmlns:xlink="http://www.w3.org/1999/xlink" height="3.95px" width="3.05px" xmlns="http://www.w3.org/2000/svg">
  <g transform="matrix(1.0, 0.0, 0.0, 1.0, 9.65, 11.55)">
    <path d="M-7.0 -9.25 Q-6.8 -8.9 -6.9 -8.55 -7.05 -8.15 -7.35 -7.95 L-8.05 -7.9 Q-8.4 -7.95 -8.6 -8.3 -8.9 -8.85 -8.8 -9.3 L-9.4 -11.3 -7.75 -9.8 -7.0 -9.25" fill="url(#gradient0)" fill-rule="evenodd" stroke="none"/>
    <path d="M-7.0 -9.25 Q-6.8 -8.9 -6.9 -8.55 -7.05 -8.15 -7.35 -7.95 L-8.05 -7.9 Q-8.4 -7.95 -8.6 -8.3 -8.9 -8.85 -8.8 -9.3 L-9.4 -11.3 -7.75 -9.8 -7.0 -9.25 Z" fill="none" stroke="#000000" stroke-linecap="round" stroke-linejoin="round" stroke-width="0.5"/>
  </g>
  <defs>
    <radialGradient cx="0" cy="0" gradientTransform="matrix(0.0013, -7.0E-4, 7.0E-4, 0.0013, -7.8, -8.75)" gradientUnits="userSpaceOnUse" id="gradient0" r="819.2" spreadMethod="pad">
      <stop offset="0.0" stop-color="#bebe4b"/>
      <stop offset="1.0" stop-color="#ffffff"/>
    </radialGradient>
  </defs>
</svg>
