<?xml version="1.0" encoding="UTF-8" standalone="no"?>
<svg xmlns:xlink="http://www.w3.org/1999/xlink" height="2.35px" width="4.45px" xmlns="http://www.w3.org/2000/svg">
  <g transform="matrix(1.0, 0.0, 0.0, 1.0, -2.45, 1.25)">
    <path d="M3.6 0.85 L3.0 0.6 2.7 -0.05 Q2.7 -0.45 3.0 -0.7 3.25 -1.0 3.6 -1.0 4.25 -1.0 4.6 -0.65 L6.65 -0.15 4.5 0.5 Q4.15 0.85 3.6 0.85" fill="url(#gradient0)" fill-rule="evenodd" stroke="none"/>
    <path d="M3.6 0.85 L3.0 0.6 2.7 -0.05 Q2.7 -0.45 3.0 -0.7 3.25 -1.0 3.6 -1.0 4.25 -1.0 4.6 -0.65 L6.65 -0.15 4.5 0.5 Q4.15 0.85 3.6 0.85 Z" fill="none" stroke="#000000" stroke-linecap="round" stroke-linejoin="round" stroke-width="0.5"/>
  </g>
  <defs>
    <radialGradient cx="0" cy="0" gradientTransform="matrix(0.0, 0.0015, -0.0015, 0.0, 3.6, -0.05)" gradientUnits="userSpaceOnUse" id="gradient0" r="819.2" spreadMethod="pad">
      <stop offset="0.0" stop-color="#bebe4b"/>
      <stop offset="1.0" stop-color="#ffffff"/>
    </radialGradient>
  </defs>
</svg>
