<?xml version="1.0" encoding="UTF-8" standalone="no"?>
<svg xmlns:xlink="http://www.w3.org/1999/xlink" height="4.45px" width="2.35px" xmlns="http://www.w3.org/2000/svg">
  <g transform="matrix(1.0, 0.0, 0.0, 1.0, 0.9, -9.9)">
    <path d="M-0.65 11.05 L-0.4 10.45 Q-0.1 10.15 0.25 10.15 0.65 10.15 0.9 10.45 L1.2 11.05 0.85 12.05 0.35 14.1 Q-0.1 12.15 -0.3 11.95 -0.65 11.6 -0.65 11.05" fill="url(#gradient0)" fill-rule="evenodd" stroke="none"/>
    <path d="M-0.65 11.05 L-0.4 10.45 Q-0.1 10.15 0.25 10.15 0.65 10.15 0.9 10.45 L1.2 11.05 0.85 12.05 0.35 14.1 Q-0.1 12.15 -0.3 11.95 -0.65 11.6 -0.65 11.05 Z" fill="none" stroke="#000000" stroke-linecap="round" stroke-linejoin="round" stroke-width="0.5"/>
  </g>
  <defs>
    <radialGradient cx="0" cy="0" gradientTransform="matrix(-0.0015, 0.0, 0.0, -0.0015, 0.25, 11.05)" gradientUnits="userSpaceOnUse" id="gradient0" r="819.2" spreadMethod="pad">
      <stop offset="0.0" stop-color="#bebe4b"/>
      <stop offset="1.0" stop-color="#ffffff"/>
    </radialGradient>
  </defs>
</svg>
