<?xml version="1.0" encoding="UTF-8" standalone="no"?>
<svg xmlns:xlink="http://www.w3.org/1999/xlink" height="5.5px" width="7.45px" xmlns="http://www.w3.org/2000/svg">
  <g transform="matrix(1.0, 0.0, 0.0, 1.0, 10.9, -2.75)">
    <path d="M-6.4 3.2 L-5.1 3.1 Q-4.3 3.25 -3.95 3.9 -3.55 4.55 -3.8 5.35 -3.9 6.1 -4.55 6.45 -5.7 7.1 -6.6 6.85 L-10.65 8.0 Q-7.75 5.25 -7.6 4.75 -7.35 3.75 -6.4 3.2" fill="url(#gradient0)" fill-rule="evenodd" stroke="none"/>
    <path d="M-6.4 3.2 L-5.1 3.1 Q-4.3 3.25 -3.95 3.9 -3.55 4.55 -3.8 5.35 -3.9 6.1 -4.55 6.45 -5.7 7.1 -6.6 6.85 L-10.65 8.0 Q-7.75 5.25 -7.6 4.75 -7.35 3.75 -6.4 3.2 Z" fill="none" stroke="#000000" stroke-linecap="round" stroke-linejoin="round" stroke-width="0.5"/>
  </g>
  <defs>
    <radialGradient cx="0" cy="0" gradientTransform="matrix(-0.0015, -0.0025, 0.0025, -0.0015, -5.5, 4.8)" gradientUnits="userSpaceOnUse" id="gradient0" r="819.2" spreadMethod="pad">
      <stop offset="0.0" stop-color="#bebe4b"/>
      <stop offset="1.0" stop-color="#ffffff"/>
    </radialGradient>
  </defs>
</svg>
