<?xml version="1.0" encoding="UTF-8" standalone="no"?>
<svg xmlns:xlink="http://www.w3.org/1999/xlink" height="7.6px" width="5.2px" xmlns="http://www.w3.org/2000/svg">
  <g transform="matrix(1.0, 0.0, 0.0, 1.0, -6.95, 13.9)">
    <path d="M10.65 -7.4 Q10.3 -6.75 9.55 -6.6 L8.1 -6.75 Q7.5 -7.15 7.3 -7.9 7.05 -8.6 7.4 -9.25 8.05 -10.4 9.0 -10.6 L11.9 -13.65 Q10.75 -9.85 10.9 -9.3 11.2 -8.35 10.65 -7.4" fill="url(#gradient0)" fill-rule="evenodd" stroke="none"/>
    <path d="M10.65 -7.4 Q10.3 -6.75 9.55 -6.6 L8.1 -6.75 Q7.5 -7.15 7.3 -7.9 7.05 -8.6 7.4 -9.25 8.05 -10.4 9.0 -10.6 L11.9 -13.65 Q10.75 -9.85 10.9 -9.3 11.2 -8.35 10.65 -7.4 Z" fill="none" stroke="#000000" stroke-linecap="round" stroke-linejoin="round" stroke-width="0.5"/>
  </g>
  <defs>
    <radialGradient cx="0" cy="0" gradientTransform="matrix(0.0025, 0.0015, -0.0015, 0.0025, 9.0, -8.3)" gradientUnits="userSpaceOnUse" id="gradient0" r="819.2" spreadMethod="pad">
      <stop offset="0.0" stop-color="#bebe4b"/>
      <stop offset="1.0" stop-color="#ffffff"/>
    </radialGradient>
  </defs>
</svg>
