<?xml version="1.0" encoding="UTF-8" standalone="no"?>
<svg xmlns:xlink="http://www.w3.org/1999/xlink" height="46.0px" width="46.5px" xmlns="http://www.w3.org/2000/svg">
  <g transform="matrix(1.0, 0.0, 0.0, 1.0, 23.25, 23.0)">
    <path d="M16.05 -15.9 Q22.75 -9.3 22.75 0.0 22.75 9.3 16.05 15.9 9.4 22.5 0.0 22.5 -9.4 22.5 -16.1 15.9 -22.75 9.3 -22.75 0.0 -22.75 -9.3 -16.1 -15.9 -9.4 -22.5 0.0 -22.5 9.4 -22.5 16.05 -15.9 Z" fill="none" stroke="#000000" stroke-linecap="round" stroke-linejoin="round" stroke-width="1.0"/>
    <path d="M3.95 -14.4 L3.8 -14.25 2.75 -14.65 -2.15 -16.4 -2.15 -16.9 Q-2.2 -18.4 -1.1 -19.45 -0.05 -20.5 1.4 -20.5 2.85 -20.5 3.95 -19.45 5.0 -18.4 5.0 -16.9 5.0 -15.45 3.95 -14.4 M3.55 -13.6 L4.6 -13.2 Q23.95 -5.8 21.6 0.8 L-4.0 -9.35 -1.6 -15.45 -1.35 -15.35 3.55 -13.6 M5.25 -4.55 L8.85 -3.1 Q7.65 -1.9 5.6 -1.75 L5.6 -1.9 Q4.85 -3.25 5.25 -4.55 M-9.15 -16.15 L-3.1 -13.75 -3.85 -11.8 -9.95 -14.2 -9.15 -16.15 M-5.4 -11.3 L-5.35 -11.45 -4.6 -11.15 -5.55 -8.8 -1.2 -7.1 -2.65 -5.6 -2.7 -5.5 -2.75 -5.35 -2.75 -5.2 -3.1 -5.0 -3.05 -5.2 -3.15 -5.35 Q-6.0 -7.85 -6.25 -11.6 L-5.4 -11.3 M-8.25 -2.25 Q-4.6 -2.85 -2.2 -0.25 L-2.0 -0.15 -1.8 -0.25 -1.75 -0.45 -1.65 -0.45 -1.5 -0.55 -1.45 -0.8 Q-2.15 -3.0 -2.2 -5.25 L-0.7 -6.85 3.6 -5.2 Q3.1 -2.7 3.0 0.1 L3.0 0.15 Q3.9 4.35 2.55 8.15 L2.5 8.25 2.55 8.35 Q5.0 12.1 3.95 17.1 L3.95 17.15 Q1.65 16.15 -0.55 16.9 1.15 13.4 -0.8 8.95 L0.0 4.85 0.05 4.25 0.1 3.45 0.3 3.35 0.35 3.2 0.3 3.0 0.1 2.9 -0.15 2.9 Q-2.9 2.5 -5.3 1.45 L-5.4 1.4 -5.5 1.2 Q-5.55 1.1 -5.65 1.15 L-5.85 1.2 -5.95 1.4 -5.75 6.35 -9.45 6.1 Q-10.0 1.75 -8.45 -2.35 -8.35 -2.25 -8.25 -2.25 M-5.95 11.2 Q-6.45 11.15 -6.8 11.5 L-7.15 12.4 Q-7.15 12.9 -6.8 13.25 -6.45 13.6 -5.95 13.6 -5.45 13.6 -5.1 13.25 -4.75 12.9 -4.75 12.4 -4.75 11.85 -5.1 11.5 -5.45 11.15 -5.95 11.2 M-8.85 10.0 Q-9.2 9.65 -9.7 9.65 -10.2 9.65 -10.55 10.0 -10.9 10.4 -10.9 10.95 L-10.55 11.85 Q-10.2 12.25 -9.7 12.25 -9.2 12.25 -8.85 11.85 -8.5 11.5 -8.5 10.95 -8.5 10.4 -8.85 10.0 M-5.8 8.95 L-6.55 9.2 -6.85 9.85 -6.55 10.45 Q-6.2 10.7 -5.8 10.75 L-5.05 10.45 Q-4.75 10.2 -4.75 9.85 -4.75 9.45 -5.05 9.2 -5.4 8.95 -5.8 8.95 M-1.7 12.15 Q-1.75 14.05 -3.7 15.35 -5.65 16.65 -8.45 16.7 -11.3 16.65 -13.25 15.35 -15.25 14.05 -15.2 12.15 -15.25 10.25 -13.25 8.95 -11.3 7.6 -8.45 7.6 -5.65 7.6 -3.7 8.95 -1.75 10.25 -1.7 12.15 M-11.35 11.95 Q-11.65 11.6 -12.15 11.6 -12.65 11.6 -12.95 11.95 L-13.3 12.75 Q-13.3 13.25 -12.95 13.55 -12.65 13.9 -12.15 13.9 -11.65 13.9 -11.35 13.55 -11.0 13.25 -11.0 12.75 -11.0 12.25 -11.35 11.95 M-1.1 18.05 Q-0.5 18.6 -0.5 19.3 -0.5 20.0 -1.1 20.5 -1.65 21.05 -2.5 21.05 -3.35 21.05 -3.95 20.5 -4.5 20.0 -4.5 19.3 -4.5 18.6 -3.95 18.05 -3.35 17.55 -2.5 17.55 -1.65 17.55 -1.1 18.05 M-9.0 15.25 Q-8.55 15.25 -8.2 14.9 -7.85 14.6 -7.85 14.2 -7.85 13.75 -8.2 13.45 -8.55 13.15 -9.0 13.15 -9.5 13.15 -9.8 13.45 -10.15 13.75 -10.15 14.2 L-9.8 14.9 Q-9.5 15.25 -9.0 15.25 M6.55 11.05 Q7.1 10.55 7.9 10.55 8.7 10.55 9.25 11.05 9.8 11.6 9.8 12.3 9.8 13.0 9.25 13.5 8.7 14.05 7.9 14.05 7.1 14.05 6.55 13.5 6.0 13.0 6.0 12.3 6.0 11.6 6.55 11.05 M7.0 17.05 Q7.0 16.65 7.35 16.35 7.75 16.05 8.25 16.05 8.75 16.05 9.1 16.35 9.5 16.65 9.5 17.05 9.5 17.45 9.1 17.75 L8.25 18.05 7.35 17.75 Q7.0 17.45 7.0 17.05 M13.25 12.8 Q13.75 12.8 14.1 13.15 14.5 13.55 14.5 14.05 14.5 14.55 14.1 14.9 13.75 15.3 13.25 15.3 12.75 15.3 12.35 14.9 12.0 14.55 12.0 14.05 12.0 13.55 12.35 13.15 12.75 12.8 13.25 12.8" fill="#000000" fill-rule="evenodd" stroke="none"/>
  </g>
</svg>
