<?xml version="1.0" encoding="UTF-8" standalone="no"?>
<svg xmlns:xlink="http://www.w3.org/1999/xlink" height="5.5px" width="7.45px" xmlns="http://www.w3.org/2000/svg">
  <g transform="matrix(1.0, 0.0, 0.0, 1.0, 13.9, -5.15)">
    <path d="M-9.4 5.6 L-8.1 5.5 Q-7.3 5.65 -6.95 6.3 -6.55 6.95 -6.8 7.75 -6.9 8.5 -7.55 8.85 -8.7 9.5 -9.6 9.25 L-13.65 10.4 Q-10.75 7.65 -10.6 7.15 -10.35 6.15 -9.4 5.6" fill="url(#gradient0)" fill-rule="evenodd" stroke="none"/>
    <path d="M-9.4 5.6 L-8.1 5.5 Q-7.3 5.65 -6.95 6.3 -6.55 6.95 -6.8 7.75 -6.9 8.5 -7.55 8.85 -8.7 9.5 -9.6 9.25 L-13.65 10.4 Q-10.75 7.65 -10.6 7.15 -10.35 6.15 -9.4 5.6 Z" fill="none" stroke="#000000" stroke-linecap="round" stroke-linejoin="round" stroke-width="0.5"/>
  </g>
  <defs>
    <radialGradient cx="0" cy="0" gradientTransform="matrix(-0.0015, -0.0025, 0.0025, -0.0015, -8.5, 7.2)" gradientUnits="userSpaceOnUse" id="gradient0" r="819.2" spreadMethod="pad">
      <stop offset="0.0" stop-color="#bebe4b"/>
      <stop offset="1.0" stop-color="#ffffff"/>
    </radialGradient>
  </defs>
</svg>
