<?xml version="1.0" encoding="UTF-8" standalone="no"?>
<svg xmlns:xlink="http://www.w3.org/1999/xlink" height="4.2px" width="8.35px" xmlns="http://www.w3.org/2000/svg">
  <g transform="matrix(1.0, 0.0, 0.0, 1.0, -9.65, 2.1)">
    <path d="M11.7 1.85 Q10.95 1.85 10.45 1.3 9.9 0.75 9.9 0.0 9.9 -0.75 10.45 -1.3 10.95 -1.85 11.7 -1.85 13.0 -1.85 13.65 -1.2 L17.75 -0.2 Q13.9 0.75 13.5 1.15 12.8 1.85 11.7 1.85" fill="url(#gradient0)" fill-rule="evenodd" stroke="none"/>
    <path d="M11.7 1.85 Q10.95 1.85 10.45 1.3 9.9 0.75 9.9 0.0 9.9 -0.75 10.45 -1.3 10.95 -1.85 11.7 -1.85 13.0 -1.85 13.65 -1.2 L17.75 -0.2 Q13.9 0.75 13.5 1.15 12.8 1.85 11.7 1.85 Z" fill="none" stroke="#000000" stroke-linecap="round" stroke-linejoin="round" stroke-width="0.5"/>
  </g>
  <defs>
    <radialGradient cx="0" cy="0" gradientTransform="matrix(0.0, 0.0029, -0.0029, 0.0, 11.7, 0.0)" gradientUnits="userSpaceOnUse" id="gradient0" r="819.2" spreadMethod="pad">
      <stop offset="0.0" stop-color="#bebe4b"/>
      <stop offset="1.0" stop-color="#ffffff"/>
    </radialGradient>
  </defs>
</svg>
