<?xml version="1.0" encoding="UTF-8" standalone="no"?>
<svg xmlns:xlink="http://www.w3.org/1999/xlink" height="23.0px" width="27.8px" xmlns="http://www.w3.org/2000/svg">
  <g transform="matrix(1.0, 0.0, 0.0, 1.0, 12.5, 11.5)">
    <path d="M8.1 -7.45 Q11.5 -4.35 11.5 0.0 11.5 4.35 8.1 7.4 4.75 10.5 0.0 10.5 -4.75 10.5 -8.15 7.4 -11.5 4.35 -11.5 0.0 -11.5 -4.35 -8.15 -7.45 -4.75 -10.5 0.0 -10.5 4.75 -10.5 8.1 -7.45" fill="url(#gradient0)" fill-rule="evenodd" stroke="none"/>
    <path d="M8.1 -7.45 Q11.5 -4.35 11.5 0.0 11.5 4.35 8.1 7.4 4.75 10.5 0.0 10.5 -4.75 10.5 -8.15 7.4 -11.5 4.35 -11.5 0.0 -11.5 -4.35 -8.15 -7.45 -4.75 -10.5 0.0 -10.5 4.75 -10.5 8.1 -7.45 Z" fill="none" stroke="#000000" stroke-linecap="round" stroke-linejoin="round" stroke-width="2.0"/>
    <path d="M-8.5 6.9 L-7.8 6.8 -7.2 7.25 -7.15 7.95 Q-7.2 8.3 -7.55 8.5 L-8.55 8.7 -10.55 9.3 -9.05 7.65 Q-8.95 7.15 -8.5 6.9" fill="url(#gradient1)" fill-rule="evenodd" stroke="none"/>
    <path d="M-8.5 6.9 L-7.8 6.8 -7.2 7.25 -7.15 7.95 Q-7.2 8.3 -7.55 8.5 L-8.55 8.7 -10.55 9.3 -9.05 7.65 Q-8.95 7.15 -8.5 6.9 Z" fill="none" stroke="#000000" stroke-linecap="round" stroke-linejoin="round" stroke-width="0.5"/>
    <path d="M12.0 0.95 L11.4 0.7 11.1 0.05 Q11.1 -0.35 11.4 -0.6 11.65 -0.9 12.0 -0.9 12.65 -0.9 13.0 -0.55 L15.05 -0.05 Q13.1 0.4 12.9 0.6 12.55 0.95 12.0 0.95" fill="url(#gradient2)" fill-rule="evenodd" stroke="none"/>
    <path d="M12.0 0.95 L11.4 0.7 11.1 0.05 Q11.1 -0.35 11.4 -0.6 11.65 -0.9 12.0 -0.9 12.65 -0.9 13.0 -0.55 L15.05 -0.05 Q13.1 0.4 12.9 0.6 12.55 0.95 12.0 0.95 Z" fill="none" stroke="#000000" stroke-linecap="round" stroke-linejoin="round" stroke-width="0.5"/>
  </g>
  <defs>
    <radialGradient cx="0" cy="0" gradientTransform="matrix(0.0221, -0.0108, 0.0074, 0.0151, 3.0, 2.5)" gradientUnits="userSpaceOnUse" id="gradient0" r="819.2" spreadMethod="pad">
      <stop offset="0.0" stop-color="#0d2f93"/>
      <stop offset="0.5764705882352941" stop-color="#358bf4"/>
      <stop offset="1.0" stop-color="#ffffff"/>
    </radialGradient>
    <radialGradient cx="0" cy="0" gradientTransform="matrix(-7.0E-4, -0.0013, 0.0013, -7.0E-4, -8.0, 7.7)" gradientUnits="userSpaceOnUse" id="gradient1" r="819.2" spreadMethod="pad">
      <stop offset="0.0" stop-color="#bebe4b"/>
      <stop offset="1.0" stop-color="#ffffff"/>
    </radialGradient>
    <radialGradient cx="0" cy="0" gradientTransform="matrix(0.0, 0.0015, -0.0015, 0.0, 12.0, 0.05)" gradientUnits="userSpaceOnUse" id="gradient2" r="819.2" spreadMethod="pad">
      <stop offset="0.0" stop-color="#bebe4b"/>
      <stop offset="1.0" stop-color="#ffffff"/>
    </radialGradient>
  </defs>
</svg>
