<?xml version="1.0" encoding="UTF-8" standalone="no"?>
<svg xmlns:xlink="http://www.w3.org/1999/xlink" height="25.6px" width="36.6px" xmlns="http://www.w3.org/2000/svg">
  <g transform="matrix(1.0, 0.0, 0.0, 1.0, 21.0, 24.1)">
    <path d="M-0.6 -5.5 L-0.7 -6.85 -0.9 -7.95 Q-2.1 -12.6 -4.7 -16.6 L-6.65 -19.4 -6.25 -19.3 Q-5.75 -19.2 -5.35 -19.6 L-4.9 -20.1 -2.35 -16.15 Q-0.85 -13.55 0.15 -10.7 0.4 -7.6 0.1 -4.4 L-0.6 -5.5" fill="url(#gradient0)" fill-rule="evenodd" stroke="none"/>
    <path d="M1.15 0.8 Q0.95 1.95 -0.05 1.25 L0.15 1.1 0.3 1.05 0.5 0.95 0.55 0.95 1.15 0.8 M-0.65 -1.65 L-1.35 -3.25 Q-4.05 -7.7 -7.4 -11.65 L-9.85 -14.35 -11.9 -16.4 Q-10.9 -16.4 -10.45 -17.5 L-8.35 -15.3 -4.9 -11.35 Q-2.5 -8.55 -0.6 -5.5 L0.1 -4.4 0.05 -4.3 -0.2 -1.25 -0.5 -1.5 -0.65 -1.65" fill="url(#gradient1)" fill-rule="evenodd" stroke="none"/>
    <path d="M5.65 -6.35 L1.9 -2.7 Q4.7 -6.5 4.5 -11.3 L4.35 -16.65 6.3 -16.7 6.2 -14.8 Q6.35 -10.95 5.8 -7.2 L5.65 -6.35 M1.65 0.05 L2.7 -0.8 3.1 -1.2 1.6 0.2 1.65 0.05 M0.5 0.95 L0.3 1.05 0.15 1.1 0.25 0.95 0.5 0.95" fill="url(#gradient2)" fill-rule="evenodd" stroke="none"/>
    <path d="M-0.2 -0.9 L-0.65 -0.55 Q-1.65 -1.35 -3.0 -1.8 L-5.35 -2.55 Q-7.6 -4.0 -10.0 -5.25 L-11.3 -5.9 Q-15.8 -8.4 -20.0 -11.25 L-21.0 -11.85 -21.0 -13.8 Q-17.65 -12.15 -14.55 -10.05 -12.45 -8.6 -10.25 -7.25 L-5.35 -4.55 Q-2.85 -3.3 -0.65 -1.65 L-0.5 -1.5 -0.2 -1.25 -0.2 -0.9" fill="url(#gradient3)" fill-rule="evenodd" stroke="none"/>
    <path d="M1.85 -2.65 L-0.2 -0.9 -0.2 -1.25 0.05 -4.3 0.1 -4.4 Q0.4 -7.6 0.15 -10.7 L-0.45 -14.6 Q-1.4 -19.2 -3.0 -23.65 L-1.2 -24.1 0.5 -19.25 Q1.8 -14.9 1.95 -10.4 L1.85 -2.65 M0.4 0.7 L1.65 0.05 1.6 0.2 1.15 0.8 0.55 0.95 0.5 0.95 0.25 0.95 0.4 0.7" fill="url(#gradient4)" fill-rule="evenodd" stroke="none"/>
    <path d="M5.65 -6.35 L8.45 -9.7 Q11.55 -13.7 13.95 -18.15 L15.6 -17.2 15.45 -16.95 Q12.95 -12.4 9.65 -8.35 6.6 -4.55 3.1 -1.2 L2.7 -0.8 1.65 0.05 0.4 0.7 0.25 0.4 -0.65 -0.55 -0.2 -0.9 1.85 -2.65 1.9 -2.7 5.65 -6.35" fill="url(#gradient5)" fill-rule="evenodd" stroke="none"/>
    <path d="M-0.65 -0.55 L0.25 0.4 0.4 0.7 0.25 0.95 0.15 1.1 -0.05 1.25 Q-0.9 1.75 -1.85 0.95 L-2.8 0.4 Q-7.65 -1.55 -12.8 -2.65 L-14.5 -3.05 -14.25 -3.65 -14.2 -4.75 -13.1 -4.55 -5.35 -2.55 -3.0 -1.8 Q-1.65 -1.35 -0.65 -0.55" fill="url(#gradient6)" fill-rule="evenodd" stroke="none"/>
  </g>
  <defs>
    <radialGradient cx="0" cy="0" gradientTransform="matrix(0.0223, 0.0, 0.0, 0.0223, -8.05, -14.8)" gradientUnits="userSpaceOnUse" id="gradient0" r="819.2" spreadMethod="pad">
      <stop offset="0.0" stop-color="#ffffff"/>
      <stop offset="0.3843137254901961" stop-color="#fbfa2f"/>
      <stop offset="0.7137254901960784" stop-color="#fbe653"/>
    </radialGradient>
    <radialGradient cx="0" cy="0" gradientTransform="matrix(0.0242, 0.0, 0.0, 0.0242, -12.55, -12.45)" gradientUnits="userSpaceOnUse" id="gradient1" r="819.2" spreadMethod="pad">
      <stop offset="0.0" stop-color="#ffffff"/>
      <stop offset="0.3843137254901961" stop-color="#fbfa2f"/>
      <stop offset="0.7137254901960784" stop-color="#fbe653"/>
    </radialGradient>
    <radialGradient cx="0" cy="0" gradientTransform="matrix(0.014, 0.0, 0.0, 0.014, 3.0, -9.7)" gradientUnits="userSpaceOnUse" id="gradient2" r="819.2" spreadMethod="pad">
      <stop offset="0.0" stop-color="#ffffff"/>
      <stop offset="0.3843137254901961" stop-color="#fbfa2f"/>
      <stop offset="0.7137254901960784" stop-color="#fbe653"/>
    </radialGradient>
    <radialGradient cx="0" cy="0" gradientTransform="matrix(0.035, 0.0, 0.0, 0.035, -25.1, -11.3)" gradientUnits="userSpaceOnUse" id="gradient3" r="819.2" spreadMethod="pad">
      <stop offset="0.0" stop-color="#ffffff"/>
      <stop offset="0.3843137254901961" stop-color="#fbfa2f"/>
      <stop offset="0.7137254901960784" stop-color="#fbe653"/>
    </radialGradient>
    <radialGradient cx="0" cy="0" gradientTransform="matrix(0.0302, 0.0, 0.0, 0.0302, -7.75, -21.6)" gradientUnits="userSpaceOnUse" id="gradient4" r="819.2" spreadMethod="pad">
      <stop offset="0.0" stop-color="#ffffff"/>
      <stop offset="0.3843137254901961" stop-color="#fbfa2f"/>
      <stop offset="0.7137254901960784" stop-color="#fbe653"/>
    </radialGradient>
    <radialGradient cx="0" cy="0" gradientTransform="matrix(0.0274, 0.0, 0.0, 0.0274, 9.15, -19.15)" gradientUnits="userSpaceOnUse" id="gradient5" r="819.2" spreadMethod="pad">
      <stop offset="0.0" stop-color="#ffffff"/>
      <stop offset="0.3843137254901961" stop-color="#fbfa2f"/>
      <stop offset="0.7137254901960784" stop-color="#fbe653"/>
    </radialGradient>
    <radialGradient cx="0" cy="0" gradientTransform="matrix(0.0168, 0.0, 0.0, 0.0168, -12.55, -2.65)" gradientUnits="userSpaceOnUse" id="gradient6" r="819.2" spreadMethod="pad">
      <stop offset="0.0" stop-color="#ffffff"/>
      <stop offset="0.3843137254901961" stop-color="#fbfa2f"/>
      <stop offset="0.7137254901960784" stop-color="#fbe653"/>
    </radialGradient>
  </defs>
</svg>
