<?xml version="1.0" encoding="UTF-8" standalone="no"?>
<svg xmlns:xlink="http://www.w3.org/1999/xlink" height="36.2px" width="69.5px" xmlns="http://www.w3.org/2000/svg">
  <g transform="matrix(1.0, 0.0, 0.0, 1.0, 50.95, 44.15)">
    <path d="M-16.65 -30.6 Q-14.5 -29.55 -12.55 -28.15 L-12.75 -28.1 -14.45 -27.3 -17.15 -29.15 Q-17.7 -29.45 -17.4 -30.1 L-17.05 -30.5 -16.65 -30.55 -16.65 -30.6" fill="url(#gradient0)" fill-rule="evenodd" stroke="none"/>
    <path d="M-22.65 -25.55 L-22.9 -25.15 -23.3 -24.0 -26.05 -24.95 -26.4 -25.4 Q-26.45 -26.0 -25.9 -26.35 L-25.5 -26.4 -25.5 -26.45 -22.65 -25.55" fill="url(#gradient1)" fill-rule="evenodd" stroke="none"/>
    <path d="M-44.25 -22.7 L-45.25 -21.9 -45.55 -21.0 -47.2 -21.35 -50.45 -22.0 Q-50.95 -22.15 -50.95 -22.65 L-50.5 -23.5 -50.1 -23.55 -50.05 -23.6 -44.25 -22.7" fill="url(#gradient2)" fill-rule="evenodd" stroke="none"/>
    <path d="M-16.65 -44.15 Q-14.5 -43.25 -12.65 -41.95 -13.75 -41.7 -14.0 -40.55 L-14.95 -41.25 -17.3 -42.85 Q-17.6 -43.0 -17.5 -43.4 -17.45 -43.85 -17.05 -44.1 L-16.65 -44.15" fill="url(#gradient3)" fill-rule="evenodd" stroke="none"/>
    <path d="M15.1 -39.1 Q16.35 -38.3 17.1 -36.85 L18.45 -33.55 16.5 -33.55 Q15.95 -35.1 14.9 -36.5 14.25 -37.4 14.3 -38.45 L14.7 -39.0 15.1 -39.05 15.1 -39.1 M8.2 -9.35 L8.2 -9.3 8.0 -8.9 7.5 -7.95 7.5 -8.5 8.2 -9.35 M18.5 -25.2 L18.5 -25.35 18.55 -25.4 18.5 -25.2" fill="url(#gradient4)" fill-rule="evenodd" stroke="none"/>
  </g>
  <defs>
    <radialGradient cx="0" cy="0" gradientTransform="matrix(0.0223, 0.0, 0.0, 0.0223, -8.05, -14.8)" gradientUnits="userSpaceOnUse" id="gradient0" r="819.2" spreadMethod="pad">
      <stop offset="0.0" stop-color="#ffffff"/>
      <stop offset="0.3843137254901961" stop-color="#fbfa2f"/>
      <stop offset="0.7137254901960784" stop-color="#fbe653"/>
    </radialGradient>
    <radialGradient cx="0" cy="0" gradientTransform="matrix(0.0242, 0.0, 0.0, 0.0242, -12.55, -12.45)" gradientUnits="userSpaceOnUse" id="gradient1" r="819.2" spreadMethod="pad">
      <stop offset="0.0" stop-color="#ffffff"/>
      <stop offset="0.3843137254901961" stop-color="#fbfa2f"/>
      <stop offset="0.7137254901960784" stop-color="#fbe653"/>
    </radialGradient>
    <radialGradient cx="0" cy="0" gradientTransform="matrix(0.035, 0.0, 0.0, 0.035, -25.1, -11.3)" gradientUnits="userSpaceOnUse" id="gradient2" r="819.2" spreadMethod="pad">
      <stop offset="0.0" stop-color="#ffffff"/>
      <stop offset="0.3843137254901961" stop-color="#fbfa2f"/>
      <stop offset="0.7137254901960784" stop-color="#fbe653"/>
    </radialGradient>
    <radialGradient cx="0" cy="0" gradientTransform="matrix(0.0302, 0.0, 0.0, 0.0302, -7.75, -21.6)" gradientUnits="userSpaceOnUse" id="gradient3" r="819.2" spreadMethod="pad">
      <stop offset="0.0" stop-color="#ffffff"/>
      <stop offset="0.3843137254901961" stop-color="#fbfa2f"/>
      <stop offset="0.7137254901960784" stop-color="#fbe653"/>
    </radialGradient>
    <radialGradient cx="0" cy="0" gradientTransform="matrix(0.0274, 0.0, 0.0, 0.0274, 9.15, -19.15)" gradientUnits="userSpaceOnUse" id="gradient4" r="819.2" spreadMethod="pad">
      <stop offset="0.0" stop-color="#ffffff"/>
      <stop offset="0.3843137254901961" stop-color="#fbfa2f"/>
      <stop offset="0.7137254901960784" stop-color="#fbe653"/>
    </radialGradient>
  </defs>
</svg>
