<?xml version="1.0" encoding="UTF-8" standalone="no"?>
<svg xmlns:xlink="http://www.w3.org/1999/xlink" height="12.75px" width="26.1px" xmlns="http://www.w3.org/2000/svg">
  <g transform="matrix(1.0, 0.0, 0.0, 1.0, 12.9, 26.95)">
    <path d="M3.95 -25.95 L6.4 -24.8 Q9.1 -23.15 10.8 -20.85 12.5 -18.55 12.15 -16.9 11.75 -15.3 9.65 -15.3 7.45 -15.3 4.75 -16.9 2.0 -18.55 0.3 -20.85 L0.2 -21.0 0.0 -20.75 Q-1.7 -18.45 -4.4 -16.85 -7.15 -15.2 -9.3 -15.2 -11.45 -15.2 -11.8 -16.85 -12.2 -18.45 -10.5 -20.75 -8.8 -23.1 -6.05 -24.7 L-3.75 -25.85 -3.15 -26.05 -2.8 -26.15 -1.2 -26.35 0.05 -26.15 1.5 -26.4 3.15 -26.2 3.75 -26.05 3.95 -25.95" fill="url(#gradient0)" fill-rule="evenodd" stroke="none"/>
    <path d="M3.95 -25.95 L6.4 -24.8 Q9.1 -23.15 10.8 -20.85 12.5 -18.55 12.15 -16.9 11.75 -15.3 9.65 -15.3 7.45 -15.3 4.75 -16.9 2.0 -18.55 0.3 -20.85 L0.2 -21.0 0.0 -20.75 Q-1.7 -18.45 -4.4 -16.85 -7.15 -15.2 -9.3 -15.2 -11.45 -15.2 -11.8 -16.85 -12.2 -18.45 -10.5 -20.75 -8.8 -23.1 -6.05 -24.7 L-3.75 -25.85" fill="none" stroke="#000000" stroke-linecap="round" stroke-linejoin="round" stroke-width="2.0"/>
  </g>
  <defs>
    <radialGradient cx="0" cy="0" gradientTransform="matrix(0.0363, 0.0, 0.0, 0.0136, -6.8, -23.0)" gradientUnits="userSpaceOnUse" id="gradient0" r="819.2" spreadMethod="pad">
      <stop offset="0.0" stop-color="#0066ff"/>
      <stop offset="1.0" stop-color="#ffffff"/>
    </radialGradient>
  </defs>
</svg>
