<?xml version="1.0" encoding="UTF-8" standalone="no"?>
<svg xmlns:xlink="http://www.w3.org/1999/xlink" height="17.5px" width="17.5px" xmlns="http://www.w3.org/2000/svg">
  <g transform="matrix(1.0, 0.0, 0.0, 1.0, 7.8, 32.7)">
    <path d="M6.4 -29.45 L6.75 -29.05 Q8.7 -26.9 8.7 -23.95 8.7 -20.75 6.4 -18.5 L6.05 -18.15 Q3.9 -16.2 0.95 -16.2 -2.05 -16.2 -4.25 -18.25 L-4.55 -18.5 Q-6.8 -20.75 -6.8 -23.95 -6.8 -26.8 -4.95 -28.95 L-4.55 -29.45 Q-2.25 -31.7 0.95 -31.7 4.15 -31.7 6.4 -29.45" fill="url(#gradient0)" fill-rule="evenodd" stroke="none"/>
    <path d="M6.4 -29.45 L6.75 -29.05 Q8.7 -26.9 8.7 -23.95 8.7 -20.75 6.4 -18.5 L6.05 -18.15 Q3.9 -16.2 0.95 -16.2 -2.05 -16.2 -4.25 -18.25 L-4.55 -18.5 Q-6.8 -20.75 -6.8 -23.95 -6.8 -26.8 -4.95 -28.95 L-4.55 -29.45 Q-2.25 -31.7 0.95 -31.7 4.15 -31.7 6.4 -29.45 Z" fill="none" stroke="#000000" stroke-linecap="round" stroke-linejoin="round" stroke-width="2.0"/>
  </g>
  <defs>
    <linearGradient gradientTransform="matrix(0.0095, 0.0, 0.0, 0.0095, 0.95, -23.95)" gradientUnits="userSpaceOnUse" id="gradient0" spreadMethod="pad" x1="-819.2" x2="819.2">
      <stop offset="0.0" stop-color="#ffcc99"/>
      <stop offset="0.6901960784313725" stop-color="#ffe6cf"/>
      <stop offset="0.7411764705882353" stop-color="#ffe6cf"/>
      <stop offset="0.792156862745098" stop-color="#ffe6cf"/>
      <stop offset="0.8352941176470589" stop-color="#ffe7d0"/>
      <stop offset="1.0" stop-color="#ffffff"/>
    </linearGradient>
  </defs>
</svg>
