<?xml version="1.0" encoding="UTF-8" standalone="no"?>
<svg xmlns:xlink="http://www.w3.org/1999/xlink" height="23.5px" width="26.1px" xmlns="http://www.w3.org/2000/svg">
  <g transform="matrix(1.0, 0.0, 0.0, 1.0, 12.9, 0.0)">
    <path d="M3.95 1.0 Q5.1 1.8 6.4 3.35 9.1 6.6 10.8 11.25 12.5 15.85 12.15 19.1 11.75 22.35 9.65 22.35 7.45 22.35 4.75 19.1 2.0 15.85 0.3 11.25 L0.2 10.9 0.0 11.4 Q-1.7 16.0 -4.4 19.25 -7.15 22.5 -9.3 22.5 -11.45 22.5 -11.8 19.25 -12.2 16.0 -10.5 11.4 -8.8 6.75 -6.05 3.5 -4.85 2.05 -3.75 1.25 L-3.15 0.85 -2.8 0.65 -1.2 0.25 Q-0.45 0.25 0.05 0.6 0.65 0.1 1.5 0.1 L3.15 0.5 3.75 0.85 3.95 1.0" fill="url(#gradient0)" fill-rule="evenodd" stroke="none"/>
    <path d="M3.95 1.0 Q5.1 1.8 6.4 3.35 9.1 6.6 10.8 11.25 12.5 15.85 12.15 19.1 11.75 22.35 9.65 22.35 7.45 22.35 4.75 19.1 2.0 15.85 0.3 11.25 L0.2 10.9 0.0 11.4 Q-1.7 16.0 -4.4 19.25 -7.15 22.5 -9.3 22.5 -11.45 22.5 -11.8 19.25 -12.2 16.0 -10.5 11.4 -8.8 6.75 -6.05 3.5 -4.85 2.05 -3.75 1.25" fill="none" stroke="#000000" stroke-linecap="round" stroke-linejoin="round" stroke-width="2.0"/>
  </g>
  <defs>
    <radialGradient cx="0" cy="0" gradientTransform="matrix(0.0363, 0.0, 0.0, 0.0271, -6.8, 6.9)" gradientUnits="userSpaceOnUse" id="gradient0" r="819.2" spreadMethod="pad">
      <stop offset="0.0" stop-color="#0066ff"/>
      <stop offset="1.0" stop-color="#ffffff"/>
    </radialGradient>
  </defs>
</svg>
