<?xml version="1.0" encoding="UTF-8" standalone="no"?>
<svg xmlns:xlink="http://www.w3.org/1999/xlink" height="17.5px" width="34.0px" xmlns="http://www.w3.org/2000/svg">
  <g transform="matrix(1.0, 0.0, 0.0, 1.0, 16.5, -12.35)">
    <path d="M5.4 15.6 L5.75 16.0 Q7.7 18.15 7.7 21.1 7.7 24.3 5.4 26.55 L5.05 26.9 Q2.9 28.85 -0.05 28.85 -3.05 28.85 -5.25 26.8 L-5.55 26.55 Q-7.8 24.3 -7.8 21.1 -7.8 18.25 -5.95 16.1 L-5.55 15.6 Q-3.25 13.35 -0.05 13.35 3.15 13.35 5.4 15.6" fill="url(#gradient0)" fill-rule="evenodd" stroke="none"/>
    <path d="M5.4 15.6 L5.75 16.0 Q7.7 18.15 7.7 21.1 7.7 24.3 5.4 26.55 L5.05 26.9 Q2.9 28.85 -0.05 28.85 -3.05 28.85 -5.25 26.8 L-5.55 26.55 Q-7.8 24.3 -7.8 21.1 -7.8 18.25 -5.95 16.1 L-5.55 15.6 Q-3.25 13.35 -0.05 13.35 3.15 13.35 5.4 15.6 Z" fill="none" stroke="#000000" stroke-linecap="round" stroke-linejoin="round" stroke-width="2.0"/>
    <path d="M11.8 17.15 Q16.5 18.85 16.5 21.25 16.5 23.65 11.8 25.3 7.15 27.0 0.5 27.0 -6.15 27.0 -10.85 25.3 -15.5 23.65 -15.5 21.25 -15.5 18.85 -10.85 17.15 -6.15 15.5 0.5 15.5 7.15 15.5 11.8 17.15" fill="url(#gradient1)" fill-rule="evenodd" stroke="none"/>
    <path d="M11.8 17.15 Q16.5 18.85 16.5 21.25 16.5 23.65 11.8 25.3 7.15 27.0 0.5 27.0 -6.15 27.0 -10.85 25.3 -15.5 23.65 -15.5 21.25 -15.5 18.85 -10.85 17.15 -6.15 15.5 0.5 15.5 7.15 15.5 11.8 17.15 Z" fill="none" stroke="#000000" stroke-linecap="round" stroke-linejoin="round" stroke-width="2.0"/>
  </g>
  <defs>
    <linearGradient gradientTransform="matrix(0.0095, 0.0, 0.0, 0.0095, -0.05, 21.1)" gradientUnits="userSpaceOnUse" id="gradient0" spreadMethod="pad" x1="-819.2" x2="819.2">
      <stop offset="0.0" stop-color="#ffcc99"/>
      <stop offset="0.6901960784313725" stop-color="#ffe6cf"/>
      <stop offset="0.7411764705882353" stop-color="#ffe6cf"/>
      <stop offset="0.792156862745098" stop-color="#ffe6cf"/>
      <stop offset="0.8352941176470589" stop-color="#ffe7d0"/>
      <stop offset="1.0" stop-color="#ffffff"/>
    </linearGradient>
    <radialGradient cx="0" cy="0" gradientTransform="matrix(0.0257, 0.0, 0.0, 0.0196, -6.0, 20.75)" gradientUnits="userSpaceOnUse" id="gradient1" r="819.2" spreadMethod="pad">
      <stop offset="0.3843137254901961" stop-color="#0066ff"/>
      <stop offset="1.0" stop-color="#ffffff"/>
    </radialGradient>
  </defs>
</svg>
