<?xml version="1.0" encoding="UTF-8" standalone="no"?>
<svg xmlns:xlink="http://www.w3.org/1999/xlink" height="13.5px" width="34.0px" xmlns="http://www.w3.org/2000/svg">
  <g transform="matrix(1.0, 0.0, 0.0, 1.0, 16.5, -14.5)">
    <path d="M11.8 17.15 Q16.5 18.85 16.5 21.25 16.5 23.65 11.8 25.3 7.15 27.0 0.5 27.0 -6.15 27.0 -10.85 25.3 -15.5 23.65 -15.5 21.25 -15.5 18.85 -10.85 17.15 -6.15 15.5 0.5 15.5 7.15 15.5 11.8 17.15" fill="url(#gradient0)" fill-rule="evenodd" stroke="none"/>
    <path d="M11.8 17.15 Q16.5 18.85 16.5 21.25 16.5 23.65 11.8 25.3 7.15 27.0 0.5 27.0 -6.15 27.0 -10.85 25.3 -15.5 23.65 -15.5 21.25 -15.5 18.85 -10.85 17.15 -6.15 15.5 0.5 15.5 7.15 15.5 11.8 17.15 Z" fill="none" stroke="#000000" stroke-linecap="round" stroke-linejoin="round" stroke-width="2.0"/>
  </g>
  <defs>
    <radialGradient cx="0" cy="0" gradientTransform="matrix(0.0257, 0.0, 0.0, 0.0196, -6.0, 20.75)" gradientUnits="userSpaceOnUse" id="gradient0" r="819.2" spreadMethod="pad">
      <stop offset="0.3843137254901961" stop-color="#0066ff"/>
      <stop offset="1.0" stop-color="#ffffff"/>
    </radialGradient>
  </defs>
</svg>
