<?xml version="1.0" encoding="UTF-8" standalone="no"?>
<svg xmlns:xlink="http://www.w3.org/1999/xlink" height="12.75px" width="26.1px" xmlns="http://www.w3.org/2000/svg">
  <g transform="matrix(1.0, 0.0, 0.0, 1.0, 12.9, -6.75)">
    <path d="M-3.75 18.35 L-3.15 18.55 -2.8 18.65 -1.2 18.85 0.05 18.7 1.5 18.95 3.15 18.75 3.75 18.55 3.95 18.5 6.4 17.3 Q9.1 15.7 10.8 13.35 12.5 11.05 12.15 9.45 11.75 7.8 9.65 7.8 7.45 7.8 4.75 9.45 2.0 11.05 0.3 13.35 L0.2 13.55 0.0 13.3 Q-1.7 11.0 -4.4 9.35 -7.15 7.75 -9.3 7.75 -11.45 7.75 -11.8 9.35 -12.2 11.0 -10.5 13.3 -8.8 15.6 -6.05 17.25 L-3.75 18.35" fill="url(#gradient0)" fill-rule="evenodd" stroke="none"/>
    <path d="M3.95 18.5 L6.4 17.3 Q9.1 15.7 10.8 13.35 12.5 11.05 12.15 9.45 11.75 7.8 9.65 7.8 7.45 7.8 4.75 9.45 2.0 11.05 0.3 13.35 L0.2 13.55 0.0 13.3 Q-1.7 11.0 -4.4 9.35 -7.15 7.75 -9.3 7.75 -11.45 7.75 -11.8 9.35 -12.2 11.0 -10.5 13.3 -8.8 15.6 -6.05 17.25 L-3.75 18.35" fill="none" stroke="#000000" stroke-linecap="round" stroke-linejoin="round" stroke-width="2.0"/>
  </g>
  <defs>
    <radialGradient cx="0" cy="0" gradientTransform="matrix(0.0363, 0.0, 0.0, -0.0136, -6.8, 15.55)" gradientUnits="userSpaceOnUse" id="gradient0" r="819.2" spreadMethod="pad">
      <stop offset="0.0" stop-color="#0066ff"/>
      <stop offset="1.0" stop-color="#ffffff"/>
    </radialGradient>
  </defs>
</svg>
