<?xml version="1.0" encoding="UTF-8" standalone="no"?>
<svg xmlns:xlink="http://www.w3.org/1999/xlink" height="17.5px" width="25.5px" xmlns="http://www.w3.org/2000/svg">
  <g transform="matrix(1.0, 0.0, 0.0, 1.0, 10.8, -11.75)">
    <path d="M6.65 21.7 L6.3 22.0 6.05 21.85 6.65 21.7" fill="url(#gradient0)" fill-rule="evenodd" stroke="none"/>
    <path d="M2.7 15.15 L2.5 15.45 Q1.6 16.0 1.15 16.95 L1.15 17.0 1.0 16.75 0.9 16.0 Q0.7 15.05 0.0 14.4 1.4 13.85 2.7 15.15 M2.55 18.5 Q3.15 18.5 3.85 17.9 3.75 18.2 3.95 18.4 L3.9 18.5 3.3 18.8 3.0 18.65 2.65 18.6 2.55 18.5" fill="url(#gradient1)" fill-rule="evenodd" stroke="none"/>
    <path d="M3.45 23.7 L1.75 23.95 0.4 23.9 0.1 23.85 0.1 22.7 0.1 23.85 -2.65 23.2 -0.75 23.05 0.1 22.7 0.25 22.5 0.45 22.5 0.4 23.9 0.45 22.5 0.55 22.5 1.05 23.05 Q2.45 24.1 3.45 23.7 M1.75 18.25 L2.55 18.5 2.65 18.6 1.95 18.45 1.8 18.3 1.75 18.25" fill="url(#gradient2)" fill-rule="evenodd" stroke="none"/>
    <path d="M7.65 20.8 L7.35 21.2 6.65 21.7 6.05 21.85 4.4 21.05 6.75 21.2 Q7.3 21.2 7.65 20.8 M1.5 18.0 L1.75 18.25 1.8 18.3 1.95 18.45 2.65 18.6 3.0 18.65 3.3 18.8 3.9 18.5 3.95 18.45 4.1 18.6 4.3 18.75 4.25 18.75 4.25 18.8 3.7 18.85 Q3.0 19.25 3.0 20.0 L3.2 20.65 2.75 20.5 2.4 20.6 Q1.85 20.75 1.55 21.25 1.25 22.2 2.0 22.85 L3.1 23.55 3.45 23.7 Q2.45 24.1 1.05 23.05 L0.55 22.5 0.45 22.5 0.25 22.5 0.1 22.7 0.05 20.75 0.1 22.7 -0.75 23.05 -2.65 23.2 Q-4.3 23.05 -5.65 22.0 L-5.3 21.95 Q-4.6 22.4 -3.7 22.3 -3.25 22.85 -2.5 22.75 -1.95 22.75 -1.8 22.25 -1.35 20.95 -1.95 20.3 -1.4 19.95 -1.45 18.7 L-1.1 18.35 -1.0 18.45 -1.25 19.55 Q-1.3 20.4 -0.5 20.7 L0.05 20.75 Q0.15 20.7 0.3 20.6 L0.5 20.45 0.45 22.5 0.5 20.45 Q1.75 19.4 1.5 18.0 M-4.0 18.6 L-4.05 19.3 -4.0 19.7 -4.05 19.7 Q-5.85 18.9 -7.9 19.35 -7.9 18.95 -7.5 18.7 -6.15 17.85 -4.6 18.45 L-4.0 18.6" fill="url(#gradient3)" fill-rule="evenodd" stroke="none"/>
    <path d="M2.7 15.15 L3.4 14.3 3.75 13.95 Q4.2 12.0 6.25 11.75 8.7 12.4 7.0 14.15 L4.7 16.8 4.0 17.5 3.85 17.9 Q3.15 18.5 2.55 18.5 L1.75 18.25 1.5 18.0 1.15 17.0 1.15 16.95 Q1.6 16.0 2.5 15.45 L2.7 15.15" fill="url(#gradient4)" fill-rule="evenodd" stroke="none"/>
    <path d="M4.7 16.8 L6.5 16.65 8.1 16.85 8.2 16.7 Q8.4 15.25 9.75 15.05 L9.75 15.0 13.95 15.3 Q14.5 15.35 14.65 15.9 14.9 16.85 13.95 17.1 L10.7 17.6 Q9.75 19.5 7.85 19.7 L7.6 19.4 Q6.3 18.1 4.3 18.75 L4.1 18.6 3.95 18.45 3.95 18.4 Q3.75 18.2 3.85 17.9 L4.0 17.5 4.7 16.8" fill="url(#gradient5)" fill-rule="evenodd" stroke="none"/>
    <path d="M7.85 19.7 Q8.1 20.15 7.7 20.7 L7.65 20.8 Q7.3 21.2 6.75 21.2 L4.4 21.05 3.2 20.65 3.0 20.0 Q3.0 19.25 3.7 18.85 L4.25 18.8 4.25 18.75 4.3 18.75 Q6.3 18.1 7.6 19.4 L7.85 19.7" fill="url(#gradient6)" fill-rule="evenodd" stroke="none"/>
    <path d="M6.3 22.0 L6.45 22.1 Q6.9 22.35 6.55 22.8 5.45 24.35 3.45 23.7 L3.1 23.55 2.0 22.85 Q1.25 22.2 1.55 21.25 1.85 20.75 2.4 20.6 L2.75 20.5 3.2 20.65 4.4 21.05 6.05 21.85 6.3 22.0" fill="url(#gradient7)" fill-rule="evenodd" stroke="none"/>
    <path d="M-4.0 19.7 L-3.5 20.25 -1.95 20.3 Q-1.35 20.95 -1.8 22.25 -1.95 22.75 -2.5 22.75 -3.25 22.85 -3.7 22.3 -4.6 22.4 -5.3 21.95 L-5.65 22.0 Q-7.8 22.3 -9.6 21.2 -11.15 20.25 -10.7 18.5 L-9.85 17.85 -9.5 17.75 Q-8.35 17.9 -8.25 19.0 L-8.25 19.2 -8.0 19.35 -7.9 19.35 Q-5.85 18.9 -4.05 19.7 L-4.0 19.7" fill="url(#gradient8)" fill-rule="evenodd" stroke="none"/>
    <path d="M-1.95 16.55 L-1.5 16.75 -1.45 17.3 -1.1 18.35 -1.45 18.7 Q-1.4 19.95 -1.95 20.3 L-3.5 20.25 -4.0 19.7 -4.05 19.3 -4.0 18.6 Q-3.9 17.55 -3.45 16.8 L-3.35 16.85 -3.1 17.1 Q-2.55 16.65 -1.95 16.55" fill="url(#gradient9)" fill-rule="evenodd" stroke="none"/>
    <path d="M1.15 17.0 L1.5 18.0 Q1.75 19.4 0.5 20.45 L0.3 20.6 Q0.15 20.7 0.05 20.75 L-0.5 20.7 Q-1.3 20.4 -1.25 19.55 L-1.0 18.45 -1.1 18.35 -1.45 17.3 -1.5 16.75 -1.95 16.55 Q-3.6 15.7 -4.1 14.1 -4.4 13.15 -3.55 12.6 L-3.0 12.55 -3.0 12.5 Q-2.15 12.6 -1.8 13.4 L-1.75 13.55 Q-0.65 13.8 0.0 14.4 0.7 15.05 0.9 16.0 L1.0 16.75 1.15 17.0 M0.0 20.25 L0.05 20.75 0.0 20.25" fill="url(#gradient10)" fill-rule="evenodd" stroke="none"/>
    <path d="M0.4 23.9 L0.2 27.0 0.25 28.5 M0.05 20.75 L0.0 20.25 M0.05 20.75 L0.1 22.7 0.1 23.85 0.2 27.0 M0.45 22.5 L0.5 20.45 M0.4 23.9 L0.45 22.5" fill="none" stroke="#000000" stroke-linecap="round" stroke-linejoin="round" stroke-width="1.5"/>
  </g>
  <defs>
    <radialGradient cx="0" cy="0" gradientTransform="matrix(0.0079, 0.0, 0.0, 0.0079, 0.75, 20.35)" gradientUnits="userSpaceOnUse" id="gradient0" r="819.2" spreadMethod="pad">
      <stop offset="0.0" stop-color="#4e0707"/>
      <stop offset="0.16470588235294117" stop-color="#b41010"/>
      <stop offset="0.5294117647058824" stop-color="#e23612"/>
      <stop offset="0.807843137254902" stop-color="#fd5037"/>
      <stop offset="1.0" stop-color="#fd5037" stop-opacity="0.0"/>
    </radialGradient>
    <radialGradient cx="0" cy="0" gradientTransform="matrix(0.0056, 0.0, 0.0, 0.0056, 0.15, 17.1)" gradientUnits="userSpaceOnUse" id="gradient1" r="819.2" spreadMethod="pad">
      <stop offset="0.0" stop-color="#4e0707"/>
      <stop offset="0.16470588235294117" stop-color="#b41010"/>
      <stop offset="0.5294117647058824" stop-color="#e23612"/>
      <stop offset="0.807843137254902" stop-color="#fd5037"/>
      <stop offset="1.0" stop-color="#fd5037" stop-opacity="0.0"/>
    </radialGradient>
    <radialGradient cx="0" cy="0" gradientTransform="matrix(0.0069, 0.0, 0.0, 0.0069, 0.45, 20.25)" gradientUnits="userSpaceOnUse" id="gradient2" r="819.2" spreadMethod="pad">
      <stop offset="0.0" stop-color="#4e0707"/>
      <stop offset="0.16470588235294117" stop-color="#b41010"/>
      <stop offset="0.5294117647058824" stop-color="#e23612"/>
      <stop offset="0.807843137254902" stop-color="#fd5037"/>
      <stop offset="1.0" stop-color="#fd5037" stop-opacity="0.0"/>
    </radialGradient>
    <radialGradient cx="0" cy="0" gradientTransform="matrix(0.0099, 0.0, 0.0, 0.0099, -0.05, 20.15)" gradientUnits="userSpaceOnUse" id="gradient3" r="819.2" spreadMethod="pad">
      <stop offset="0.0" stop-color="#4e0707"/>
      <stop offset="0.16470588235294117" stop-color="#b41010"/>
      <stop offset="0.5294117647058824" stop-color="#e23612"/>
      <stop offset="0.807843137254902" stop-color="#fd5037"/>
      <stop offset="1.0" stop-color="#fd5037" stop-opacity="0.0"/>
    </radialGradient>
    <radialGradient cx="0" cy="0" gradientTransform="matrix(0.0052, 0.0, 0.0, 0.0052, 4.35, 15.1)" gradientUnits="userSpaceOnUse" id="gradient4" r="819.2" spreadMethod="pad">
      <stop offset="0.0" stop-color="#4e0707"/>
      <stop offset="0.16470588235294117" stop-color="#b41010"/>
      <stop offset="0.5294117647058824" stop-color="#e23612"/>
      <stop offset="0.807843137254902" stop-color="#fd5037"/>
      <stop offset="1.0" stop-color="#fd5037" stop-opacity="0.0"/>
    </radialGradient>
    <radialGradient cx="0" cy="0" gradientTransform="matrix(0.0074, 0.0, 0.0, 0.0074, 9.25, 17.35)" gradientUnits="userSpaceOnUse" id="gradient5" r="819.2" spreadMethod="pad">
      <stop offset="0.0" stop-color="#4e0707"/>
      <stop offset="0.16470588235294117" stop-color="#b41010"/>
      <stop offset="0.5294117647058824" stop-color="#e23612"/>
      <stop offset="0.807843137254902" stop-color="#fd5037"/>
      <stop offset="1.0" stop-color="#fd5037" stop-opacity="0.0"/>
    </radialGradient>
    <radialGradient cx="0" cy="0" gradientTransform="matrix(0.0041, 0.0, 0.0, 0.0041, 5.5, 19.85)" gradientUnits="userSpaceOnUse" id="gradient6" r="819.2" spreadMethod="pad">
      <stop offset="0.0" stop-color="#4e0707"/>
      <stop offset="0.16470588235294117" stop-color="#b41010"/>
      <stop offset="0.5294117647058824" stop-color="#e23612"/>
      <stop offset="0.807843137254902" stop-color="#fd5037"/>
      <stop offset="1.0" stop-color="#fd5037" stop-opacity="0.0"/>
    </radialGradient>
    <radialGradient cx="0" cy="0" gradientTransform="matrix(0.004, 0.0, 0.0, 0.004, 4.1, 22.2)" gradientUnits="userSpaceOnUse" id="gradient7" r="819.2" spreadMethod="pad">
      <stop offset="0.0" stop-color="#4e0707"/>
      <stop offset="0.16470588235294117" stop-color="#b41010"/>
      <stop offset="0.5294117647058824" stop-color="#e23612"/>
      <stop offset="0.807843137254902" stop-color="#fd5037"/>
      <stop offset="1.0" stop-color="#fd5037" stop-opacity="0.0"/>
    </radialGradient>
    <radialGradient cx="0" cy="0" gradientTransform="matrix(0.0062, 0.0, 0.0, 0.0062, -6.2, 20.25)" gradientUnits="userSpaceOnUse" id="gradient8" r="819.2" spreadMethod="pad">
      <stop offset="0.0" stop-color="#4e0707"/>
      <stop offset="0.16470588235294117" stop-color="#b41010"/>
      <stop offset="0.5294117647058824" stop-color="#e23612"/>
      <stop offset="0.807843137254902" stop-color="#fd5037"/>
      <stop offset="1.0" stop-color="#fd5037" stop-opacity="0.0"/>
    </radialGradient>
    <radialGradient cx="0" cy="0" gradientTransform="matrix(0.0043, 0.0, 0.0, 0.0043, -1.85, 17.75)" gradientUnits="userSpaceOnUse" id="gradient9" r="819.2" spreadMethod="pad">
      <stop offset="0.0" stop-color="#4e0707"/>
      <stop offset="0.16470588235294117" stop-color="#b41010"/>
      <stop offset="0.5294117647058824" stop-color="#e23612"/>
      <stop offset="0.807843137254902" stop-color="#fd5037"/>
      <stop offset="1.0" stop-color="#fd5037" stop-opacity="0.0"/>
    </radialGradient>
    <radialGradient cx="0" cy="0" gradientTransform="matrix(0.0062, 0.0, 0.0, 0.0062, -1.3, 16.65)" gradientUnits="userSpaceOnUse" id="gradient10" r="819.2" spreadMethod="pad">
      <stop offset="0.0" stop-color="#4e0707"/>
      <stop offset="0.16470588235294117" stop-color="#b41010"/>
      <stop offset="0.5294117647058824" stop-color="#e23612"/>
      <stop offset="0.807843137254902" stop-color="#fd5037"/>
      <stop offset="1.0" stop-color="#fd5037" stop-opacity="0.0"/>
    </radialGradient>
  </defs>
</svg>
