<?xml version="1.0" encoding="UTF-8" standalone="no"?>
<svg xmlns:xlink="http://www.w3.org/1999/xlink" height="17.5px" width="21.55px" xmlns="http://www.w3.org/2000/svg">
  <g transform="matrix(1.0, 0.0, 0.0, 1.0, 11.75, -5.0)">
    <path d="M5.35 8.85 L5.35 9.4 Q5.2 10.35 4.25 10.75 L4.05 11.1 3.7 11.7 3.9 11.9 3.25 11.75 3.25 11.8 2.9 11.85 2.5 11.2 Q4.25 10.6 5.35 8.85 M4.45 12.2 L5.05 12.35 5.2 12.45 5.9 12.4 5.8 12.5 5.75 13.05 5.75 13.45 5.4 13.45 5.2 13.45 5.1 13.35 5.05 13.2 Q4.85 12.55 4.45 12.2 M8.5 13.75 Q9.45 14.15 9.75 15.3 9.95 16.0 9.2 16.3 8.35 16.6 7.55 17.05 5.7 18.4 3.0 18.05 L2.65 17.95 Q2.8 17.25 2.35 16.4 3.55 17.1 4.8 16.7 6.4 17.6 7.55 16.55 L8.2 16.1 Q9.15 15.25 8.45 14.1 L8.5 13.75 M2.55 7.75 Q2.25 8.0 2.1 8.35 0.7 8.5 -0.35 9.35 L-0.55 9.35 -0.95 9.8 -1.65 10.85 -2.55 11.2 Q-3.95 11.9 -3.45 13.5 L-3.3 13.7 -3.15 13.85 -4.7 13.8 -5.05 13.45 -5.25 13.3 -4.45 12.05 -4.05 11.6 Q-4.5 11.4 -4.85 10.4 -5.1 9.75 -4.55 9.3 -4.9 7.1 -3.0 6.55 L-3.0 6.5 Q-1.75 6.7 -1.75 7.95 L-1.75 8.1 -1.6 8.3 -1.3 8.6 -1.3 8.55 -1.25 8.2 -1.2 8.0 Q0.0 6.6 1.8 7.4 L2.55 7.75 M-10.25 12.8 L-10.7 13.25 -10.55 15.05 -10.1 15.95 -11.25 15.5 Q-11.75 15.3 -11.75 14.75 -11.7 13.2 -10.25 12.8 M-5.3 17.6 L-4.25 17.1 -4.2 18.0 -5.3 17.6" fill="url(#gradient0)" fill-rule="evenodd" stroke="none"/>
    <path d="M3.9 11.9 L4.45 12.2 Q4.85 12.55 5.05 13.2 L5.1 13.35 5.2 13.45 3.75 13.3 2.9 11.9 2.9 11.85 3.25 11.8 3.25 11.75 3.9 11.9 M5.9 12.4 Q7.6 10.85 8.35 13.05 L8.5 13.75 8.45 14.1 Q9.15 15.25 8.2 16.1 L7.55 16.55 Q6.4 17.6 4.8 16.7 3.55 17.1 2.35 16.4 L2.35 16.35 2.55 16.15 2.7 15.95 3.65 15.6 6.0 15.6 Q7.25 15.55 7.15 14.3 7.1 13.65 6.45 13.6 L5.4 13.45 5.75 13.45 5.75 13.05 5.8 12.5 5.9 12.4" fill="url(#gradient1)" fill-rule="evenodd" stroke="none"/>
    <path d="M2.55 7.75 L2.8 7.45 3.2 7.05 Q3.2 5.35 4.75 5.05 L4.75 5.0 Q6.9 6.2 5.45 8.65 L5.35 8.85 Q4.25 10.6 2.5 11.2 1.55 9.8 0.0 9.25 L0.0 9.3 -0.35 9.35 Q0.7 8.5 2.1 8.35 2.25 8.0 2.55 7.75" fill="url(#gradient2)" fill-rule="evenodd" stroke="none"/>
    <path d="M-5.25 13.3 L-5.05 13.45 -4.7 13.8 -3.15 13.85 -3.3 13.7 -3.45 13.5 Q-3.95 11.9 -2.55 11.2 L-1.65 10.85 -0.95 9.8 -0.55 9.35 -0.35 9.35 0.0 9.3 0.0 9.25 Q1.55 9.8 2.5 11.2 L2.9 11.85 2.9 11.9 3.75 13.3 2.75 13.25 2.75 13.3 2.2 13.35 Q1.75 13.65 1.6 14.05 L1.35 14.05 1.2 14.1 0.9 14.3 1.0 13.25 0.9 14.3 Q0.05 14.85 -0.4 15.65 L-0.7 16.1 -2.75 16.1 Q-4.05 16.15 -4.25 17.1 L-5.3 17.6 -8.2 17.35 Q-9.5 16.9 -10.1 15.95 L-10.55 15.05 -10.7 13.25 -10.25 12.8 Q-8.45 10.95 -6.0 11.75 -5.65 11.9 -5.55 12.3 L-5.5 13.05 -5.25 13.3 M3.65 15.6 L2.7 15.95 2.9 15.55 3.65 15.6 M-0.5 13.25 L-0.4 15.65 -0.5 13.25" fill="url(#gradient3)" fill-rule="evenodd" stroke="none"/>
    <path d="M2.65 17.95 Q2.4 19.0 0.95 19.65 L0.15 19.95 0.9 14.3 0.15 19.95 -0.3 20.05 Q-1.8 20.15 -3.3 18.9 L-4.2 18.0 -4.25 17.1 Q-4.05 16.15 -2.75 16.1 L-0.7 16.1 -0.4 15.65 -0.3 20.05 -0.4 15.65 Q0.05 14.85 0.9 14.3 L1.2 14.1 1.35 14.05 1.6 14.05 Q1.45 14.4 1.6 14.85 1.7 15.35 2.2 15.45 L2.9 15.55 2.7 15.95 2.55 16.15 2.35 16.35 2.35 16.4 Q2.8 17.25 2.65 17.95" fill="url(#gradient4)" fill-rule="evenodd" stroke="none"/>
    <path d="M5.2 13.45 L5.4 13.45 6.45 13.6 Q7.1 13.65 7.15 14.3 7.25 15.55 6.0 15.6 L3.65 15.6 2.9 15.55 2.2 15.45 Q1.7 15.35 1.6 14.85 1.45 14.4 1.6 14.05 1.75 13.65 2.2 13.35 L2.75 13.3 2.75 13.25 3.75 13.3 5.2 13.45" fill="url(#gradient5)" fill-rule="evenodd" stroke="none"/>
    <path d="M-0.3 20.05 L-0.25 21.75 M-0.4 15.65 L-0.5 13.25 M-0.3 20.05 L-0.4 15.65" fill="none" stroke="#000000" stroke-linecap="round" stroke-linejoin="round" stroke-width="1.5"/>
    <path d="M0.15 19.95 L0.0 21.0 M1.0 13.25 L0.9 14.3 0.15 19.95" fill="none" stroke="#000000" stroke-linecap="round" stroke-linejoin="round" stroke-width="1.5"/>
  </g>
  <defs>
    <radialGradient cx="0" cy="0" gradientTransform="matrix(0.0141, 0.0, 0.0, 0.0141, -1.0, 12.4)" gradientUnits="userSpaceOnUse" id="gradient0" r="819.2" spreadMethod="pad">
      <stop offset="0.0" stop-color="#4e0707"/>
      <stop offset="0.16470588235294117" stop-color="#b41010"/>
      <stop offset="0.5294117647058824" stop-color="#e23612"/>
      <stop offset="0.807843137254902" stop-color="#fd5037"/>
      <stop offset="1.0" stop-color="#fd5037" stop-opacity="0.0"/>
    </radialGradient>
    <radialGradient cx="0" cy="0" gradientTransform="matrix(0.0054, 0.0, 0.0, 0.0054, 4.55, 14.45)" gradientUnits="userSpaceOnUse" id="gradient1" r="819.2" spreadMethod="pad">
      <stop offset="0.0" stop-color="#4e0707"/>
      <stop offset="0.16470588235294117" stop-color="#b41010"/>
      <stop offset="0.5294117647058824" stop-color="#e23612"/>
      <stop offset="0.807843137254902" stop-color="#fd5037"/>
      <stop offset="1.0" stop-color="#fd5037" stop-opacity="0.0"/>
    </radialGradient>
    <radialGradient cx="0" cy="0" gradientTransform="matrix(0.0056, 0.0, 0.0, 0.0056, 2.4, 8.55)" gradientUnits="userSpaceOnUse" id="gradient2" r="819.2" spreadMethod="pad">
      <stop offset="0.0" stop-color="#4e0707"/>
      <stop offset="0.16470588235294117" stop-color="#b41010"/>
      <stop offset="0.5294117647058824" stop-color="#e23612"/>
      <stop offset="0.807843137254902" stop-color="#fd5037"/>
      <stop offset="1.0" stop-color="#fd5037" stop-opacity="0.0"/>
    </radialGradient>
    <radialGradient cx="0" cy="0" gradientTransform="matrix(0.0096, 0.0, 0.0, 0.0096, -3.25, 13.5)" gradientUnits="userSpaceOnUse" id="gradient3" r="819.2" spreadMethod="pad">
      <stop offset="0.0" stop-color="#4e0707"/>
      <stop offset="0.16470588235294117" stop-color="#b41010"/>
      <stop offset="0.5294117647058824" stop-color="#e23612"/>
      <stop offset="0.807843137254902" stop-color="#fd5037"/>
      <stop offset="1.0" stop-color="#fd5037" stop-opacity="0.0"/>
    </radialGradient>
    <radialGradient cx="0" cy="0" gradientTransform="matrix(0.0051, 0.0, 0.0, 0.0051, -0.65, 17.0)" gradientUnits="userSpaceOnUse" id="gradient4" r="819.2" spreadMethod="pad">
      <stop offset="0.0" stop-color="#4e0707"/>
      <stop offset="0.16470588235294117" stop-color="#b41010"/>
      <stop offset="0.5294117647058824" stop-color="#e23612"/>
      <stop offset="0.807843137254902" stop-color="#fd5037"/>
      <stop offset="1.0" stop-color="#fd5037" stop-opacity="0.0"/>
    </radialGradient>
    <radialGradient cx="0" cy="0" gradientTransform="matrix(0.0043, 0.0, 0.0, 0.0043, 4.35, 14.45)" gradientUnits="userSpaceOnUse" id="gradient5" r="819.2" spreadMethod="pad">
      <stop offset="0.0" stop-color="#4e0707"/>
      <stop offset="0.16470588235294117" stop-color="#b41010"/>
      <stop offset="0.5294117647058824" stop-color="#e23612"/>
      <stop offset="0.807843137254902" stop-color="#fd5037"/>
      <stop offset="1.0" stop-color="#fd5037" stop-opacity="0.0"/>
    </radialGradient>
  </defs>
</svg>
