<?xml version="1.0" encoding="UTF-8" standalone="no"?>
<svg xmlns:xlink="http://www.w3.org/1999/xlink" height="16.15px" width="19.65px" xmlns="http://www.w3.org/2000/svg">
  <g transform="matrix(1.0, 0.0, 0.0, 1.0, 7.45, 3.25)">
    <path d="M4.2 6.4 L4.85 6.7 Q4.4 7.0 4.3 7.55 4.15 8.25 4.75 8.45 L7.0 9.1 7.3 10.75 Q7.4 12.5 5.7 12.05 L4.75 11.55 1.2 11.45 1.2 11.1 2.1 8.9 Q3.2 9.2 3.8 7.75 L4.2 6.4 M-4.2 7.65 L-3.7 7.45 -3.7 7.6 -4.2 7.65 M-2.75 4.85 L-2.7 4.55 -2.65 4.4 -2.5 4.5 -2.6 4.8 -2.75 4.85" fill="url(#gradient0)" fill-rule="evenodd" stroke="none"/>
    <path d="M-2.65 4.4 L-2.85 4.15 -2.9 4.05 -2.45 4.25 -2.5 4.5 -2.65 4.4 M-5.65 3.0 Q-6.8 1.9 -6.65 -0.25 -6.55 -1.95 -5.05 -2.9 L-4.5 -2.95 -4.5 -3.0 Q-2.0 -2.95 -1.75 -0.6 L-1.75 -0.45 -0.6 0.25 -0.75 0.25 Q-1.9 0.45 -2.8 1.3 -4.1 2.6 -3.55 3.45 L-4.0 3.25 -4.05 3.2 Q-4.45 2.8 -5.0 2.75 L-5.4 2.8 -5.55 2.85 -5.65 3.0" fill="url(#gradient1)" fill-rule="evenodd" stroke="none"/>
    <path d="M4.5 -2.7 L5.25 -3.25 Q7.45 -2.9 6.7 -1.25 L6.3 -0.6 5.6 0.25 6.0 0.45 Q5.9 1.35 6.8 1.95 L6.9 2.05 6.4 3.05 Q5.45 4.4 4.15 5.0 3.75 3.6 2.0 2.8 L2.0 2.65 Q2.2 1.0 1.3 0.5 L2.6 -1.05 2.2 0.6 Q1.95 2.0 3.05 2.7 3.8 3.2 4.25 2.45 L5.2 0.2 Q5.8 -1.8 4.5 -2.7" fill="url(#gradient2)" fill-rule="evenodd" stroke="none"/>
    <path d="M1.2 11.45 Q1.1 12.75 -0.5 12.9 -1.8 13.0 -2.15 11.75 L-3.25 11.35 -2.75 11.2 -2.15 10.8 Q-0.75 8.8 -3.5 8.75 -4.85 8.85 -5.85 9.55 L-6.85 8.35 -6.95 7.9 Q-6.5 5.65 -4.75 7.25 L-4.5 7.55 -4.5 7.65 -4.2 7.65 -3.7 7.6 -3.7 7.45 -3.85 6.7 Q-3.9 5.85 -3.4 5.2 L-3.05 4.85 -2.9 4.85 -2.75 4.85 -2.6 4.8 -2.7 5.4 -2.55 6.4 Q-1.85 7.95 -0.15 7.95 L0.1 9.55 0.7 7.85 0.1 9.55 0.25 10.5 0.1 9.55 -0.15 7.95 0.7 7.85 0.8 7.8 0.8 7.95 0.85 8.1 1.25 8.45 2.1 8.9 1.2 11.1 1.2 11.45" fill="url(#gradient3)" fill-rule="evenodd" stroke="none"/>
    <path d="M4.15 5.0 L4.2 6.4 3.8 7.75 Q3.2 9.2 2.1 8.9 L1.25 8.45 0.85 8.1 0.8 7.95 0.8 7.8 0.7 7.85 1.75 3.75 0.7 7.85 -0.15 7.95 Q-1.85 7.95 -2.55 6.4 L-2.7 5.4 -2.6 4.8 -2.5 4.5 -2.45 4.25 -2.9 4.05 -3.55 3.45 Q-4.1 2.6 -2.8 1.3 -1.9 0.45 -0.75 0.25 L-0.6 0.25 Q0.65 0.05 1.3 0.5 2.2 1.0 2.0 2.65 L2.0 2.8 Q3.75 3.6 4.15 5.0 M-0.75 4.25 L-0.15 7.95 -0.75 4.25" fill="url(#gradient4)" fill-rule="evenodd" stroke="none"/>
    <path d="M2.6 -1.05 L3.15 -2.5 3.45 -2.9 3.6 -2.95 4.0 -3.0 4.5 -2.7 Q5.8 -1.8 5.2 0.2 L4.25 2.45 Q3.8 3.2 3.05 2.7 1.95 2.0 2.2 0.6 L2.6 -1.05" fill="url(#gradient5)" fill-rule="evenodd" stroke="none"/>
    <path d="M6.7 -1.25 Q7.45 -2.3 8.5 -2.75 10.8 -1.6 9.0 0.5 L8.0 1.75 Q7.55 2.4 6.9 2.05 L6.8 1.95 Q5.9 1.35 6.0 0.45 L6.25 -0.5 6.3 -0.6 6.7 -1.25" fill="url(#gradient6)" fill-rule="evenodd" stroke="none"/>
    <path d="M-2.85 4.15 Q-2.7 4.7 -3.7 5.35 L-4.7 5.55 Q-6.9 5.1 -5.85 3.25 L-5.65 3.0 -5.55 2.85 -5.4 2.8 -5.0 2.75 Q-4.45 2.8 -4.05 3.2 L-4.0 3.25 -3.55 3.45 -2.9 4.05 -2.85 4.15" fill="url(#gradient7)" fill-rule="evenodd" stroke="none"/>
    <path d="M-3.25 11.35 L-4.75 11.8 -7.35 11.85 Q-7.55 11.4 -7.3 11.0 L-5.85 9.55 Q-4.85 8.85 -3.5 8.75 -0.75 8.8 -2.15 10.8 L-2.75 11.2 -3.25 11.35" fill="url(#gradient8)" fill-rule="evenodd" stroke="none"/>
    <path d="M4.85 6.7 L4.95 6.6 5.5 6.55 5.5 6.5 11.5 6.8 Q12.0 6.85 12.15 7.4 12.5 8.9 11.0 9.1 8.9 9.4 7.0 9.1 L4.75 8.45 Q4.15 8.25 4.3 7.55 4.4 7.0 4.85 6.7" fill="url(#gradient9)" fill-rule="evenodd" stroke="none"/>
    <path d="M0.1 9.55 L0.25 10.5 M-0.15 7.95 L-0.75 4.25 M-0.15 7.95 L0.1 9.55" fill="none" stroke="#000000" stroke-linecap="round" stroke-linejoin="round" stroke-width="1.5"/>
    <path d="M0.7 7.85 L0.1 9.55 M0.7 7.85 L1.75 3.75" fill="none" stroke="#000000" stroke-linecap="round" stroke-linejoin="round" stroke-width="1.5"/>
  </g>
  <defs>
    <radialGradient cx="0" cy="0" gradientTransform="matrix(0.0097, 0.0, 0.0, 0.0097, 0.9, 7.05)" gradientUnits="userSpaceOnUse" id="gradient0" r="819.2" spreadMethod="pad">
      <stop offset="0.0" stop-color="#4e0707"/>
      <stop offset="0.16470588235294117" stop-color="#b41010"/>
      <stop offset="0.5294117647058824" stop-color="#e23612"/>
      <stop offset="0.807843137254902" stop-color="#fd5037"/>
      <stop offset="1.0" stop-color="#fd5037" stop-opacity="0.0"/>
    </radialGradient>
    <radialGradient cx="0" cy="0" gradientTransform="matrix(0.0073, 0.0, 0.0, 0.0073, -2.35, 1.7)" gradientUnits="userSpaceOnUse" id="gradient1" r="819.2" spreadMethod="pad">
      <stop offset="0.0" stop-color="#4e0707"/>
      <stop offset="0.16470588235294117" stop-color="#b41010"/>
      <stop offset="0.5294117647058824" stop-color="#e23612"/>
      <stop offset="0.807843137254902" stop-color="#fd5037"/>
      <stop offset="1.0" stop-color="#fd5037" stop-opacity="0.0"/>
    </radialGradient>
    <radialGradient cx="0" cy="0" gradientTransform="matrix(0.0071, 0.0, 0.0, 0.0071, 3.15, 1.45)" gradientUnits="userSpaceOnUse" id="gradient2" r="819.2" spreadMethod="pad">
      <stop offset="0.0" stop-color="#4e0707"/>
      <stop offset="0.16470588235294117" stop-color="#b41010"/>
      <stop offset="0.5294117647058824" stop-color="#e23612"/>
      <stop offset="0.807843137254902" stop-color="#fd5037"/>
      <stop offset="1.0" stop-color="#fd5037" stop-opacity="0.0"/>
    </radialGradient>
    <radialGradient cx="0" cy="0" gradientTransform="matrix(0.0061, 0.0, 0.0, 0.0061, -2.35, 8.85)" gradientUnits="userSpaceOnUse" id="gradient3" r="819.2" spreadMethod="pad">
      <stop offset="0.0" stop-color="#4e0707"/>
      <stop offset="0.16470588235294117" stop-color="#b41010"/>
      <stop offset="0.5294117647058824" stop-color="#e23612"/>
      <stop offset="0.807843137254902" stop-color="#fd5037"/>
      <stop offset="1.0" stop-color="#fd5037" stop-opacity="0.0"/>
    </radialGradient>
    <radialGradient cx="0" cy="0" gradientTransform="matrix(0.0062, 0.0, 0.0, 0.0062, 0.25, 4.55)" gradientUnits="userSpaceOnUse" id="gradient4" r="819.2" spreadMethod="pad">
      <stop offset="0.0" stop-color="#4e0707"/>
      <stop offset="0.16470588235294117" stop-color="#b41010"/>
      <stop offset="0.5294117647058824" stop-color="#e23612"/>
      <stop offset="0.807843137254902" stop-color="#fd5037"/>
      <stop offset="1.0" stop-color="#fd5037" stop-opacity="0.0"/>
    </radialGradient>
    <radialGradient cx="0" cy="0" gradientTransform="matrix(0.0036, 0.0, 0.0, 0.0036, 3.75, -0.05)" gradientUnits="userSpaceOnUse" id="gradient5" r="819.2" spreadMethod="pad">
      <stop offset="0.0" stop-color="#4e0707"/>
      <stop offset="0.16470588235294117" stop-color="#b41010"/>
      <stop offset="0.5294117647058824" stop-color="#e23612"/>
      <stop offset="0.807843137254902" stop-color="#fd5037"/>
      <stop offset="1.0" stop-color="#fd5037" stop-opacity="0.0"/>
    </radialGradient>
    <radialGradient cx="0" cy="0" gradientTransform="matrix(0.0031, 0.0, 0.0, 0.0031, 7.9, -0.3)" gradientUnits="userSpaceOnUse" id="gradient6" r="819.2" spreadMethod="pad">
      <stop offset="0.0" stop-color="#4e0707"/>
      <stop offset="0.16470588235294117" stop-color="#b41010"/>
      <stop offset="0.5294117647058824" stop-color="#e23612"/>
      <stop offset="0.807843137254902" stop-color="#fd5037"/>
      <stop offset="1.0" stop-color="#fd5037" stop-opacity="0.0"/>
    </radialGradient>
    <radialGradient cx="0" cy="0" gradientTransform="matrix(0.0025, 0.0, 0.0, 0.0025, -4.5, 4.15)" gradientUnits="userSpaceOnUse" id="gradient7" r="819.2" spreadMethod="pad">
      <stop offset="0.0" stop-color="#4e0707"/>
      <stop offset="0.16470588235294117" stop-color="#b41010"/>
      <stop offset="0.5294117647058824" stop-color="#e23612"/>
      <stop offset="0.807843137254902" stop-color="#fd5037"/>
      <stop offset="1.0" stop-color="#fd5037" stop-opacity="0.0"/>
    </radialGradient>
    <radialGradient cx="0" cy="0" gradientTransform="matrix(0.0039, 0.0, 0.0, 0.0039, -4.55, 10.85)" gradientUnits="userSpaceOnUse" id="gradient8" r="819.2" spreadMethod="pad">
      <stop offset="0.0" stop-color="#4e0707"/>
      <stop offset="0.16470588235294117" stop-color="#b41010"/>
      <stop offset="0.5294117647058824" stop-color="#e23612"/>
      <stop offset="0.807843137254902" stop-color="#fd5037"/>
      <stop offset="1.0" stop-color="#fd5037" stop-opacity="0.0"/>
    </radialGradient>
    <radialGradient cx="0" cy="0" gradientTransform="matrix(0.0057, 0.0, 0.0, 0.0057, 8.25, 7.9)" gradientUnits="userSpaceOnUse" id="gradient9" r="819.2" spreadMethod="pad">
      <stop offset="0.0" stop-color="#4e0707"/>
      <stop offset="0.16470588235294117" stop-color="#b41010"/>
      <stop offset="0.5294117647058824" stop-color="#e23612"/>
      <stop offset="0.807843137254902" stop-color="#fd5037"/>
      <stop offset="1.0" stop-color="#fd5037" stop-opacity="0.0"/>
    </radialGradient>
  </defs>
</svg>
