<?xml version="1.0" encoding="UTF-8" standalone="no"?>
<svg xmlns:xlink="http://www.w3.org/1999/xlink" height="30.35px" width="26.1px" xmlns="http://www.w3.org/2000/svg">
  <g transform="matrix(1.0, 0.0, 0.0, 1.0, 12.9, 22.3)">
    <path d="M-3.75 -0.05 L-3.15 0.35 -2.8 0.55 -1.2 0.95 Q-0.45 0.95 0.05 0.6 0.65 1.1 1.5 1.1 L3.15 0.7 3.75 0.35 3.95 0.2 Q5.1 -0.6 6.4 -2.15 9.1 -5.4 10.8 -10.05 12.5 -14.65 12.15 -17.9 11.75 -21.15 9.65 -21.15 7.45 -21.15 4.75 -17.9 2.0 -14.65 0.3 -10.05 L0.2 -9.7 0.0 -10.2 Q-1.7 -14.8 -4.4 -18.05 -7.15 -21.3 -9.3 -21.3 -11.45 -21.3 -11.8 -18.05 -12.2 -14.8 -10.5 -10.2 -8.8 -5.55 -6.05 -2.3 -4.85 -0.85 -3.75 -0.05" fill="url(#gradient0)" fill-rule="evenodd" stroke="none"/>
    <path d="M3.95 0.2 Q5.1 -0.6 6.4 -2.15 9.1 -5.4 10.8 -10.05 12.5 -14.65 12.15 -17.9 11.75 -21.15 9.65 -21.15 7.45 -21.15 4.75 -17.9 2.0 -14.65 0.3 -10.05 L0.2 -9.7 0.0 -10.2 Q-1.7 -14.8 -4.4 -18.05 -7.15 -21.3 -9.3 -21.3 -11.45 -21.3 -11.8 -18.05 -12.2 -14.8 -10.5 -10.2 -8.8 -5.55 -6.05 -2.3 -4.85 -0.85 -3.75 -0.05" fill="none" stroke="#000000" stroke-linecap="round" stroke-linejoin="round" stroke-width="2.0"/>
    <path d="M4.9 -1.55 L4.55 -1.0 4.0 -1.25 3.65 -1.15 Q2.95 -0.95 2.75 -0.3 L1.9 0.1 2.0 -0.65 Q2.0 -1.55 1.35 -2.2 0.7 -2.8 -0.25 -2.8 -1.2 -2.8 -1.85 -2.2 -2.4 -1.65 -2.45 -0.95 L-2.75 -1.0 -3.15 -0.95 -3.3 -0.9 -3.85 -0.35 -4.0 0.1 -4.0 0.2 -4.3 0.55 -4.45 0.75 -4.55 1.5 -4.5 3.0 Q-5.85 4.05 -5.3 5.75 -4.85 7.05 -3.95 7.65 L-4.3 7.75 -5.55 7.85 Q-8.15 7.6 -8.25 5.45 -9.35 5.0 -10.25 4.2 -10.6 3.85 -10.35 3.45 -9.2 1.85 -6.95 2.6 -6.3 0.35 -4.0 0.1 L-4.85 -0.75 Q-4.55 -0.75 -4.2 -0.95 -1.4 -2.45 -4.5 -4.0 L-4.55 -4.2 -4.75 -4.6 Q-4.1 -4.95 -3.3 -4.3 L-2.95 -4.4 -2.45 -4.7 Q-3.7 -6.4 -2.1 -7.6 L-1.6 -7.8 -1.5 -7.25 -1.7 -6.5 Q-2.05 -4.85 -0.5 -4.7 2.85 -4.3 1.6 -7.15 L2.0 -7.7 2.15 -8.6 2.25 -8.8 2.4 -9.35 2.95 -9.9 3.1 -9.95 3.5 -10.0 Q4.9 -9.3 5.2 -7.7 L4.65 -7.25 Q3.8 -6.5 4.0 -5.3 L3.45 -4.6 3.05 -4.0 2.9 -2.85 Q2.65 -1.05 4.7 -1.5 L4.9 -1.55 M7.35 6.05 L6.35 6.1 Q4.4 7.8 2.8 5.75 L2.75 5.55 2.75 5.35 2.15 5.0 1.8 4.8 1.0 5.0 0.7 4.85 0.7 4.5 Q0.65 3.35 -0.25 2.8 L-0.2 2.25 -0.2 1.5 Q0.7 1.5 1.35 0.85 L1.25 1.45 1.4 2.1 Q2.55 4.2 4.3 2.3 L4.95 2.15 5.05 3.75 Q6.0 5.3 7.35 6.05" fill="url(#gradient1)" fill-rule="evenodd" stroke="none"/>
    <path d="M1.0 5.0 Q2.85 6.05 1.2 7.75 0.9 8.05 0.5 7.95 L-0.45 7.7 Q-2.65 8.45 -3.95 7.65 -4.85 7.05 -5.3 5.75 -5.85 4.05 -4.5 3.0 L-4.55 1.5 -4.45 0.75 -4.3 0.55 -4.0 0.2 -4.0 0.1 -3.85 -0.35 -3.3 -0.9 -3.15 -0.95 -2.75 -1.0 -2.45 -0.95 -2.5 -0.65 Q-2.5 0.25 -1.85 0.85 -1.2 1.5 -0.25 1.5 L-0.2 1.5 -0.2 2.25 -0.25 2.8 Q0.65 3.35 0.7 4.5 L0.7 4.85 1.0 5.0" fill="url(#gradient2)" fill-rule="evenodd" stroke="none"/>
    <path d="M5.8 0.55 L6.0 0.55 6.0 0.5 Q7.15 0.5 7.6 1.55 L7.7 1.7 Q8.3 1.8 8.7 2.25 L8.8 2.45 Q11.1 2.7 12.5 4.25 12.8 4.6 12.7 5.05 12.5 6.45 11.25 6.6 9.0 6.95 7.35 6.05 6.0 5.3 5.05 3.75 L4.95 2.15 5.2 1.9 Q5.8 1.15 5.8 0.55" fill="url(#gradient3)" fill-rule="evenodd" stroke="none"/>
    <path d="M-1.6 -7.8 L-1.6 -7.85 Q-1.85 -8.65 -1.7 -9.5 L-1.55 -9.7 Q-1.2 -10.25 -0.5 -10.2 L-0.5 -10.25 Q2.15 -10.45 2.15 -8.6 L2.0 -7.7 1.6 -7.15 Q2.85 -4.3 -0.5 -4.7 -2.05 -4.85 -1.7 -6.5 L-1.5 -7.25 -1.6 -7.8" fill="url(#gradient4)" fill-rule="evenodd" stroke="none"/>
    <path d="M5.2 -7.7 L5.45 -7.9 5.6 -7.9 6.0 -7.95 6.0 -8.0 Q9.15 -7.65 7.6 -5.3 L7.35 -5.1 6.6 -4.75 Q7.65 -2.25 4.9 -1.55 L4.7 -1.5 Q2.65 -1.05 2.9 -2.85 L3.05 -4.0 3.45 -4.6 4.0 -5.3 Q3.8 -6.5 4.65 -7.25 L5.2 -7.7" fill="url(#gradient5)" fill-rule="evenodd" stroke="none"/>
    <path d="M4.55 -1.0 Q5.85 -0.4 5.8 0.55 5.8 1.15 5.2 1.9 L4.95 2.15 4.3 2.3 Q2.55 4.2 1.4 2.1 L1.25 1.45 1.35 0.85 Q1.5 0.4 1.9 0.1 L2.75 -0.3 Q2.95 -0.95 3.65 -1.15 L4.0 -1.25 4.55 -1.0" fill="url(#gradient6)" fill-rule="evenodd" stroke="none"/>
    <path d="M-4.85 -0.75 L-5.35 -0.85 Q-8.05 -1.9 -7.7 -4.5 L-7.35 -4.85 Q-6.95 -5.25 -6.5 -5.25 -5.3 -5.45 -4.75 -4.6 L-4.55 -4.2 -4.5 -4.0 Q-1.4 -2.45 -4.2 -0.95 -4.55 -0.75 -4.85 -0.75" fill="url(#gradient7)" fill-rule="evenodd" stroke="none"/>
    <path d="M-2.45 -0.95 Q-2.4 -1.65 -1.85 -2.2 -1.2 -2.8 -0.25 -2.8 0.7 -2.8 1.35 -2.2 2.0 -1.55 2.0 -0.65 L1.9 0.1 Q1.5 0.4 1.35 0.85 0.7 1.5 -0.2 1.5 L-0.25 1.5 Q-1.2 1.5 -1.85 0.85 -2.5 0.25 -2.5 -0.65 L-2.45 -0.95" fill="url(#gradient8)" fill-rule="evenodd" stroke="none"/>
    <path d="M-2.45 -0.95 Q-2.4 -1.65 -1.85 -2.2 -1.2 -2.8 -0.25 -2.8 0.7 -2.8 1.35 -2.2 2.0 -1.55 2.0 -0.65 L1.9 0.1 Q1.5 0.4 1.35 0.85 0.7 1.5 -0.2 1.5 L-0.25 1.5 Q-1.2 1.5 -1.85 0.85 -2.5 0.25 -2.5 -0.65 L-2.45 -0.95 Z" fill="none" stroke="#000000" stroke-linecap="round" stroke-linejoin="round" stroke-width="1.5"/>
  </g>
  <defs>
    <radialGradient cx="0" cy="0" gradientTransform="matrix(0.0363, 0.0, 0.0, -0.0271, -6.8, -5.7)" gradientUnits="userSpaceOnUse" id="gradient0" r="819.2" spreadMethod="pad">
      <stop offset="0.0" stop-color="#0066ff"/>
      <stop offset="1.0" stop-color="#ffffff"/>
    </radialGradient>
    <radialGradient cx="0" cy="0" gradientTransform="matrix(0.0145, 0.0, 0.0, 0.0145, -0.15, -1.05)" gradientUnits="userSpaceOnUse" id="gradient1" r="819.2" spreadMethod="pad">
      <stop offset="0.0" stop-color="#4e0707"/>
      <stop offset="0.16470588235294117" stop-color="#b41010"/>
      <stop offset="0.5294117647058824" stop-color="#e23612"/>
      <stop offset="0.807843137254902" stop-color="#fd5037"/>
      <stop offset="1.0" stop-color="#fd5037" stop-opacity="0.0"/>
    </radialGradient>
    <radialGradient cx="0" cy="0" gradientTransform="matrix(0.0065, 0.0, 0.0, 0.0065, -1.75, 3.55)" gradientUnits="userSpaceOnUse" id="gradient2" r="819.2" spreadMethod="pad">
      <stop offset="0.0" stop-color="#4e0707"/>
      <stop offset="0.16470588235294117" stop-color="#b41010"/>
      <stop offset="0.5294117647058824" stop-color="#e23612"/>
      <stop offset="0.807843137254902" stop-color="#fd5037"/>
      <stop offset="1.0" stop-color="#fd5037" stop-opacity="0.0"/>
    </radialGradient>
    <radialGradient cx="0" cy="0" gradientTransform="matrix(0.0062, 0.0, 0.0, 0.0062, 8.8, 3.6)" gradientUnits="userSpaceOnUse" id="gradient3" r="819.2" spreadMethod="pad">
      <stop offset="0.0" stop-color="#4e0707"/>
      <stop offset="0.16470588235294117" stop-color="#b41010"/>
      <stop offset="0.5294117647058824" stop-color="#e23612"/>
      <stop offset="0.807843137254902" stop-color="#fd5037"/>
      <stop offset="1.0" stop-color="#fd5037" stop-opacity="0.0"/>
    </radialGradient>
    <radialGradient cx="0" cy="0" gradientTransform="matrix(0.0043, 0.0, 0.0, 0.0043, 0.2, -7.45)" gradientUnits="userSpaceOnUse" id="gradient4" r="819.2" spreadMethod="pad">
      <stop offset="0.0" stop-color="#4e0707"/>
      <stop offset="0.16470588235294117" stop-color="#b41010"/>
      <stop offset="0.5294117647058824" stop-color="#e23612"/>
      <stop offset="0.807843137254902" stop-color="#fd5037"/>
      <stop offset="1.0" stop-color="#fd5037" stop-opacity="0.0"/>
    </radialGradient>
    <radialGradient cx="0" cy="0" gradientTransform="matrix(0.0052, 0.0, 0.0, 0.0052, 5.5, -4.7)" gradientUnits="userSpaceOnUse" id="gradient5" r="819.2" spreadMethod="pad">
      <stop offset="0.0" stop-color="#4e0707"/>
      <stop offset="0.16470588235294117" stop-color="#b41010"/>
      <stop offset="0.5294117647058824" stop-color="#e23612"/>
      <stop offset="0.807843137254902" stop-color="#fd5037"/>
      <stop offset="1.0" stop-color="#fd5037" stop-opacity="0.0"/>
    </radialGradient>
    <radialGradient cx="0" cy="0" gradientTransform="matrix(0.0042, 0.0, 0.0, 0.0042, 3.55, 1.0)" gradientUnits="userSpaceOnUse" id="gradient6" r="819.2" spreadMethod="pad">
      <stop offset="0.0" stop-color="#4e0707"/>
      <stop offset="0.16470588235294117" stop-color="#b41010"/>
      <stop offset="0.5294117647058824" stop-color="#e23612"/>
      <stop offset="0.807843137254902" stop-color="#fd5037"/>
      <stop offset="1.0" stop-color="#fd5037" stop-opacity="0.0"/>
    </radialGradient>
    <radialGradient cx="0" cy="0" gradientTransform="matrix(0.0035, 0.0, 0.0, 0.0035, -5.3, -3.05)" gradientUnits="userSpaceOnUse" id="gradient7" r="819.2" spreadMethod="pad">
      <stop offset="0.0" stop-color="#4e0707"/>
      <stop offset="0.16470588235294117" stop-color="#b41010"/>
      <stop offset="0.5294117647058824" stop-color="#e23612"/>
      <stop offset="0.807843137254902" stop-color="#fd5037"/>
      <stop offset="1.0" stop-color="#fd5037" stop-opacity="0.0"/>
    </radialGradient>
    <radialGradient cx="0" cy="0" gradientTransform="matrix(0.0035, 0.0, 0.0, 0.0035, -0.25, -0.65)" gradientUnits="userSpaceOnUse" id="gradient8" r="819.2" spreadMethod="pad">
      <stop offset="0.0" stop-color="#4e0707"/>
      <stop offset="0.16470588235294117" stop-color="#b41010"/>
      <stop offset="0.5294117647058824" stop-color="#e23612"/>
      <stop offset="0.807843137254902" stop-color="#fd5037"/>
      <stop offset="1.0" stop-color="#fd5037" stop-opacity="0.0"/>
    </radialGradient>
  </defs>
</svg>
