<?xml version="1.0" encoding="UTF-8" standalone="no"?>
<svg xmlns:xlink="http://www.w3.org/1999/xlink" height="13.8px" width="18.95px" xmlns="http://www.w3.org/2000/svg">
  <g transform="matrix(1.0, 0.0, 0.0, 1.0, 8.5, 13.5)">
    <path d="M3.7 -6.3 Q4.4 -6.1 4.9 -5.6 L3.75 -5.75 3.75 -5.7 3.2 -5.65 2.65 -5.05 Q2.4 -4.6 2.7 -4.3 L3.65 -3.5 3.6 -3.45 Q3.4 -2.95 3.55 -2.5 L3.9 -2.15 4.7 -1.45 3.15 -1.6 2.25 -1.9 1.95 -1.7 1.55 -1.2 Q0.25 -0.3 -1.05 -1.45 -1.35 -1.7 -1.8 -1.8 -2.5 -1.05 -3.3 -1.05 L-3.2 -1.7 -2.65 -2.35 Q-1.6 -3.2 -1.65 -4.55 0.2 -4.0 0.7 -5.7 L0.9 -5.9 1.25 -5.95 1.35 -5.95 3.7 -6.3 M-4.35 -4.55 L-4.25 -4.6 -4.3 -4.45 -4.35 -4.55 M1.75 -4.0 L1.35 -5.95 1.75 -4.0 M-3.5 -7.15 L-3.5 -7.25 -3.3 -7.15 -3.4 -7.15 -3.5 -7.15" fill="url(#gradient0)" fill-rule="evenodd" stroke="none"/>
    <path d="M4.15 -6.45 L4.1 -6.45 3.7 -6.3 1.35 -5.95 Q2.4 -6.25 2.35 -7.45 2.35 -8.1 1.7 -8.2 L0.9 -8.3 0.0 -8.4 0.25 -10.0 0.0 -8.4 -0.15 -8.4 -0.55 -8.65 Q-2.3 -9.75 -4.3 -10.35 -4.4 -11.3 -3.25 -11.5 -0.85 -11.85 0.55 -10.3 L1.3 -9.2 Q2.85 -10.95 4.9 -11.7 5.0 -10.15 4.75 -8.7 4.15 -8.35 3.9 -7.8 3.7 -7.35 3.9 -6.9 L4.15 -6.45 M0.55 -10.3 L0.9 -8.3 0.55 -10.3 M1.25 -5.95 L1.35 -5.95 1.25 -5.95" fill="url(#gradient1)" fill-rule="evenodd" stroke="none"/>
    <path d="M4.9 -11.7 Q4.8 -12.75 5.7 -13.4 L6.25 -13.45 6.25 -13.5 Q8.2 -13.35 8.75 -11.5 L8.75 -11.4 Q11.4 -10.75 9.75 -8.45 8.9 -7.2 7.25 -6.85 L6.75 -6.6 Q5.1 -5.15 4.15 -6.45 L3.9 -6.9 Q3.7 -7.35 3.9 -7.8 4.15 -8.35 4.75 -8.7 5.0 -10.15 4.9 -11.7" fill="url(#gradient2)" fill-rule="evenodd" stroke="none"/>
    <path d="M-4.15 -6.3 Q-4.55 -5.3 -6.15 -6.2 L-6.75 -6.85 -7.15 -8.8 Q-7.25 -10.0 -6.3 -10.65 L-6.15 -10.65 -5.75 -10.7 -5.75 -10.75 -4.3 -10.35 Q-2.3 -9.75 -0.55 -8.65 L-0.15 -8.4 -1.5 -8.5 -1.5 -8.45 -2.05 -8.4 -2.3 -8.2 -3.25 -7.15 -3.3 -7.15 -3.5 -7.25 -4.0 -7.5 -4.05 -6.65 -4.15 -6.3 M0.9 -5.9 L0.7 -5.7 0.75 -5.9 0.9 -5.9" fill="url(#gradient3)" fill-rule="evenodd" stroke="none"/>
    <path d="M-3.3 -1.05 Q-3.75 0.9 -5.9 -0.4 -6.3 -0.65 -6.25 -1.2 L-5.8 -1.95 -5.65 -2.4 Q-4.85 -2.55 -4.15 -3.15 -3.5 -3.75 -4.15 -4.35 L-4.3 -4.45 -4.25 -4.6 -4.15 -6.25 -4.15 -6.3 -4.05 -6.65 -3.55 -7.15 -3.5 -7.15 -3.4 -7.15 -3.3 -7.15 -3.25 -7.15 Q-3.55 -6.65 -3.5 -5.95 L-3.45 -5.75 Q-2.95 -5.1 -2.25 -4.8 L-1.65 -4.55 Q-1.6 -3.2 -2.65 -2.35 L-3.2 -1.7 -3.3 -1.05" fill="url(#gradient4)" fill-rule="evenodd" stroke="none"/>
    <path d="M4.9 -5.6 L7.0 -5.1 7.65 -5.05 Q9.4 -5.1 10.25 -3.25 10.95 -1.7 9.2 -1.45 8.5 -1.3 8.05 -1.9 L7.75 -2.25 7.65 -2.25 Q6.6 -3.6 4.75 -4.25 L4.75 -4.2 4.35 -4.15 4.2 -4.15 3.65 -3.5 2.7 -4.3 Q2.4 -4.6 2.65 -5.05 L3.2 -5.65 3.75 -5.7 3.75 -5.75 4.9 -5.6" fill="url(#gradient5)" fill-rule="evenodd" stroke="none"/>
    <path d="M7.65 -2.25 L8.3 -1.05 Q8.45 -0.6 8.1 -0.3 6.3 1.05 5.1 -0.65 L5.0 -1.2 4.7 -1.45 3.9 -2.15 3.55 -2.5 Q3.4 -2.95 3.6 -3.45 L3.65 -3.5 4.2 -4.15 4.35 -4.15 4.75 -4.2 4.75 -4.25 Q6.6 -3.6 7.65 -2.25" fill="url(#gradient6)" fill-rule="evenodd" stroke="none"/>
    <path d="M-5.65 -2.4 L-7.75 -2.8 Q-8.8 -3.25 -8.35 -4.3 L-7.8 -4.9 -7.25 -4.95 -7.25 -5.0 Q-5.5 -5.5 -4.35 -4.55 L-4.3 -4.45 -4.15 -4.35 Q-3.5 -3.75 -4.15 -3.15 -4.85 -2.55 -5.65 -2.4" fill="url(#gradient7)" fill-rule="evenodd" stroke="none"/>
    <path d="M0.9 -8.3 L1.7 -8.2 Q2.35 -8.1 2.35 -7.45 2.4 -6.25 1.35 -5.95 L1.25 -5.95 0.9 -5.9 0.75 -5.9 0.7 -5.7 Q0.2 -4.0 -1.65 -4.55 L-2.25 -4.8 Q-2.95 -5.1 -3.45 -5.75 L-3.5 -5.95 Q-3.55 -6.65 -3.25 -7.15 L-2.3 -8.2 -2.05 -8.4 -1.5 -8.45 -1.5 -8.5 -0.15 -8.4 0.0 -8.4 0.9 -8.3 1.35 -5.95 0.9 -8.3 M-0.5 -5.0 L0.0 -8.4 -0.5 -5.0" fill="url(#gradient8)" fill-rule="evenodd" stroke="none"/>
    <path d="M0.0 -8.4 L0.25 -10.0 M0.0 -8.4 L-0.5 -5.0" fill="none" stroke="#000000" stroke-linecap="round" stroke-linejoin="round" stroke-width="1.5"/>
    <path d="M0.9 -8.3 L0.55 -10.3 M1.35 -5.95 L0.9 -8.3 M1.35 -5.95 L1.75 -4.0" fill="none" stroke="#000000" stroke-linecap="round" stroke-linejoin="round" stroke-width="1.5"/>
  </g>
  <defs>
    <radialGradient cx="0" cy="0" gradientTransform="matrix(0.0082, 0.0, 0.0, 0.0082, 0.25, -4.65)" gradientUnits="userSpaceOnUse" id="gradient0" r="819.2" spreadMethod="pad">
      <stop offset="0.0" stop-color="#4e0707"/>
      <stop offset="0.16470588235294117" stop-color="#b41010"/>
      <stop offset="0.5294117647058824" stop-color="#e23612"/>
      <stop offset="0.807843137254902" stop-color="#fd5037"/>
      <stop offset="1.0" stop-color="#fd5037" stop-opacity="0.0"/>
    </radialGradient>
    <radialGradient cx="0" cy="0" gradientTransform="matrix(0.0074, 0.0, 0.0, 0.0074, 1.2, -8.85)" gradientUnits="userSpaceOnUse" id="gradient1" r="819.2" spreadMethod="pad">
      <stop offset="0.0" stop-color="#4e0707"/>
      <stop offset="0.16470588235294117" stop-color="#b41010"/>
      <stop offset="0.5294117647058824" stop-color="#e23612"/>
      <stop offset="0.807843137254902" stop-color="#fd5037"/>
      <stop offset="1.0" stop-color="#fd5037" stop-opacity="0.0"/>
    </radialGradient>
    <radialGradient cx="0" cy="0" gradientTransform="matrix(0.0055, 0.0, 0.0, 0.0055, 7.1, -9.65)" gradientUnits="userSpaceOnUse" id="gradient2" r="819.2" spreadMethod="pad">
      <stop offset="0.0" stop-color="#4e0707"/>
      <stop offset="0.16470588235294117" stop-color="#b41010"/>
      <stop offset="0.5294117647058824" stop-color="#e23612"/>
      <stop offset="0.807843137254902" stop-color="#fd5037"/>
      <stop offset="1.0" stop-color="#fd5037" stop-opacity="0.0"/>
    </radialGradient>
    <radialGradient cx="0" cy="0" gradientTransform="matrix(0.0057, 0.0, 0.0, 0.0057, -3.0, -7.8)" gradientUnits="userSpaceOnUse" id="gradient3" r="819.2" spreadMethod="pad">
      <stop offset="0.0" stop-color="#4e0707"/>
      <stop offset="0.16470588235294117" stop-color="#b41010"/>
      <stop offset="0.5294117647058824" stop-color="#e23612"/>
      <stop offset="0.807843137254902" stop-color="#fd5037"/>
      <stop offset="1.0" stop-color="#fd5037" stop-opacity="0.0"/>
    </radialGradient>
    <radialGradient cx="0" cy="0" gradientTransform="matrix(0.0049, 0.0, 0.0, 0.0049, -3.8, -3.55)" gradientUnits="userSpaceOnUse" id="gradient4" r="819.2" spreadMethod="pad">
      <stop offset="0.0" stop-color="#4e0707"/>
      <stop offset="0.16470588235294117" stop-color="#b41010"/>
      <stop offset="0.5294117647058824" stop-color="#e23612"/>
      <stop offset="0.807843137254902" stop-color="#fd5037"/>
      <stop offset="1.0" stop-color="#fd5037" stop-opacity="0.0"/>
    </radialGradient>
    <radialGradient cx="0" cy="0" gradientTransform="matrix(0.0056, 0.0, 0.0, 0.0056, 6.5, -3.6)" gradientUnits="userSpaceOnUse" id="gradient5" r="819.2" spreadMethod="pad">
      <stop offset="0.0" stop-color="#4e0707"/>
      <stop offset="0.16470588235294117" stop-color="#b41010"/>
      <stop offset="0.5294117647058824" stop-color="#e23612"/>
      <stop offset="0.807843137254902" stop-color="#fd5037"/>
      <stop offset="1.0" stop-color="#fd5037" stop-opacity="0.0"/>
    </radialGradient>
    <radialGradient cx="0" cy="0" gradientTransform="matrix(0.004, 0.0, 0.0, 0.004, 5.9, -2.0)" gradientUnits="userSpaceOnUse" id="gradient6" r="819.2" spreadMethod="pad">
      <stop offset="0.0" stop-color="#4e0707"/>
      <stop offset="0.16470588235294117" stop-color="#b41010"/>
      <stop offset="0.5294117647058824" stop-color="#e23612"/>
      <stop offset="0.807843137254902" stop-color="#fd5037"/>
      <stop offset="1.0" stop-color="#fd5037" stop-opacity="0.0"/>
    </radialGradient>
    <radialGradient cx="0" cy="0" gradientTransform="matrix(0.0034, 0.0, 0.0, 0.0034, -6.15, -3.8)" gradientUnits="userSpaceOnUse" id="gradient7" r="819.2" spreadMethod="pad">
      <stop offset="0.0" stop-color="#4e0707"/>
      <stop offset="0.16470588235294117" stop-color="#b41010"/>
      <stop offset="0.5294117647058824" stop-color="#e23612"/>
      <stop offset="0.807843137254902" stop-color="#fd5037"/>
      <stop offset="1.0" stop-color="#fd5037" stop-opacity="0.0"/>
    </radialGradient>
    <radialGradient cx="0" cy="0" gradientTransform="matrix(0.0048, 0.0, 0.0, 0.0048, -0.6, -6.45)" gradientUnits="userSpaceOnUse" id="gradient8" r="819.2" spreadMethod="pad">
      <stop offset="0.0" stop-color="#4e0707"/>
      <stop offset="0.16470588235294117" stop-color="#b41010"/>
      <stop offset="0.5294117647058824" stop-color="#e23612"/>
      <stop offset="0.807843137254902" stop-color="#fd5037"/>
      <stop offset="1.0" stop-color="#fd5037" stop-opacity="0.0"/>
    </radialGradient>
  </defs>
</svg>
