<?xml version="1.0" encoding="UTF-8" standalone="no"?>
<svg xmlns:xlink="http://www.w3.org/1999/xlink" height="46.0px" width="46.5px" xmlns="http://www.w3.org/2000/svg">
  <g transform="matrix(1.0, 0.0, 0.0, 1.0, 23.25, 23.0)">
    <path d="M16.05 -15.9 Q22.75 -9.3 22.75 0.0 22.75 9.3 16.05 15.9 9.4 22.5 0.0 22.5 -9.4 22.5 -16.1 15.9 -22.75 9.3 -22.75 0.0 -22.75 -9.3 -16.1 -15.9 -9.4 -22.5 0.0 -22.5 9.4 -22.5 16.05 -15.9 Z" fill="none" stroke="#000000" stroke-linecap="round" stroke-linejoin="round" stroke-width="1.0"/>
    <path d="M4.95 -20.3 Q5.75 -20.35 6.35 -19.75 6.9 -19.15 6.9 -18.35 6.9 -17.55 6.35 -16.95 L6.3 -16.9 5.7 -17.1 3.0 -18.05 3.0 -18.35 Q2.95 -19.15 3.55 -19.75 4.15 -20.35 4.95 -20.3 M3.3 -17.55 L3.45 -17.5 6.15 -16.55 6.7 -16.3 Q17.35 -12.25 16.05 -8.6 L2.0 -14.2 3.3 -17.55 M2.05 -15.55 L-1.3 -16.85 -0.85 -17.95 2.5 -16.6 2.05 -15.55 M1.65 -15.2 L1.1 -13.9 3.5 -12.95 2.75 -12.1 2.7 -12.05 2.65 -12.0 2.65 -11.9 2.45 -11.8 2.5 -11.9 2.45 -12.0 Q0.85 -13.4 0.75 -15.45 L1.2 -15.25 1.25 -15.35 1.65 -15.2 M3.8 -12.8 L6.15 -11.9 5.8 -9.0 5.8 -8.95 Q6.3 -6.65 5.6 -4.55 L5.55 -4.5 5.6 -4.45 Q6.9 -2.4 6.35 0.35 L6.2 1.15 Q5.35 0.2 3.9 0.25 4.8 -1.7 3.75 -4.1 L4.15 -6.35 4.15 -6.4 4.2 -6.7 4.25 -7.15 4.35 -7.2 4.4 -7.3 4.35 -7.4 4.3 -7.45 3.8 -6.4 2.25 -5.2 2.45 -4.5 2.3 -2.45 2.0 -0.2 Q0.7 -1.05 -0.7 -0.5 L0.05 -2.2 0.35 -3.9 0.35 -5.75 0.45 -6.0 0.65 -6.3 1.85 -7.7 3.15 -9.05 3.4 -9.15 3.3 -9.3 3.35 -9.35 3.4 -9.5 Q3.0 -10.7 2.95 -11.95 L3.75 -12.75 3.8 -12.8 M7.25 -10.0 L7.25 -10.1 Q6.85 -10.85 7.05 -11.55 L9.05 -10.75 Q8.4 -10.1 7.25 -10.0 M6.8 3.65 Q4.35 1.75 1.2 1.2 L-1.7 0.95 -5.5 1.35 Q-7.8 1.9 -9.65 3.2 L-11.25 2.95 -11.2 2.9 Q-8.9 1.1 -6.0 0.4 L-1.75 -0.05 1.5 0.2 Q5.0 0.85 7.75 2.9 11.65 5.9 11.65 10.15 11.65 14.4 7.75 17.35 5.0 19.4 1.5 20.05 L1.25 20.1 -1.75 20.35 -4.5 20.15 -5.45 19.95 Q-8.7 19.3 -11.2 17.35 -15.1 14.4 -15.1 10.15 -15.1 6.1 -11.6 3.2 -11.25 3.8 -11.2 4.45 -13.75 6.85 -13.7 10.1 -13.75 13.95 -10.25 16.65 -8.0 18.35 -5.05 18.95 L-4.2 19.15 -1.7 19.3 1.0 19.1 1.2 19.05 Q4.35 18.5 6.8 16.65 10.3 13.95 10.35 10.1 10.3 6.3 6.8 3.65 M-6.95 7.45 L-11.1 7.35 Q-10.35 5.95 -10.4 5.35 L-10.55 4.35 -11.1 3.45 -10.0 4.0 -8.8 4.15 Q-8.15 4.1 -6.5 3.0 -8.8 5.05 -6.95 7.45" fill="#000000" fill-rule="evenodd" stroke="none"/>
  </g>
</svg>
