<?xml version="1.0" encoding="UTF-8" standalone="no"?>
<svg xmlns:xlink="http://www.w3.org/1999/xlink" height="12.55px" width="15.45px" xmlns="http://www.w3.org/2000/svg">
  <g transform="matrix(1.0, 0.0, 0.0, 1.0, 6.75, 18.25)">
    <path d="M6.0 -11.0 L6.25 -10.35 5.55 -10.8 6.0 -11.0 M3.45 -7.25 L3.25 -7.2 Q3.15 -5.8 1.75 -5.7 0.6 -5.65 0.5 -6.75 L0.5 -7.15 -0.25 -7.0 -1.4 -6.9 Q-3.45 -5.75 -5.1 -7.4 L-5.45 -7.75 -5.55 -8.5 -5.45 -9.6 -5.05 -10.2 -5.0 -10.4 -5.0 -10.55 -4.95 -10.6 Q-3.9 -9.6 -2.85 -10.8 -2.0 -10.25 -1.1 -10.1 L-0.45 -9.5 1.35 -9.55 1.3 -9.3 1.4 -8.65 Q2.15 -7.5 3.45 -7.25" fill="url(#gradient0)" fill-rule="evenodd" stroke="none"/>
    <path d="M-4.95 -10.6 L-5.2 -10.85 -5.65 -11.6 -5.75 -12.55 -6.55 -13.35 -6.7 -13.5 Q-7.0 -14.7 -5.85 -15.15 L-5.2 -15.4 -4.85 -16.3 -4.3 -16.9 -3.75 -16.95 -3.75 -17.0 Q-2.2 -16.15 -1.2 -14.55 L-0.4 -13.5 -1.0 -13.55 Q-4.0 -14.05 -3.7 -11.5 L-2.85 -10.8 Q-3.9 -9.6 -4.95 -10.6 M1.35 -9.55 L-0.45 -9.5 -1.1 -10.1 Q0.15 -9.95 1.5 -10.75 L1.35 -9.55" fill="url(#gradient1)" fill-rule="evenodd" stroke="none"/>
    <path d="M3.35 -11.65 L3.5 -12.55 3.6 -12.75 Q5.0 -14.7 3.65 -15.8 L3.7 -15.95 3.7 -16.3 3.8 -17.25 4.15 -17.6 Q4.55 -18.0 5.0 -18.0 7.75 -17.85 6.95 -15.2 L6.45 -14.15 Q7.45 -12.0 6.0 -11.0 L5.55 -10.8 3.35 -11.65" fill="url(#gradient2)" fill-rule="evenodd" stroke="none"/>
    <path d="M0.75 -15.0 Q1.7 -15.9 3.0 -16.25 L3.65 -15.8 Q5.0 -14.7 3.6 -12.75 L3.5 -12.55 3.35 -11.65 2.75 -11.75 Q2.3 -11.75 1.9 -11.35 L1.55 -11.0 0.75 -15.0 1.55 -11.0 1.5 -10.75 Q0.15 -9.95 -1.1 -10.1 -2.0 -10.25 -2.85 -10.8 L-3.7 -11.5 Q-4.0 -14.05 -1.0 -13.55 L-0.4 -13.5 -0.25 -13.5 -0.05 -13.7 0.0 -13.85 0.0 -13.9 0.0 -14.05 0.05 -14.25 0.75 -15.0 M-0.25 -11.25 L0.0 -13.85 -0.25 -11.25" fill="url(#gradient3)" fill-rule="evenodd" stroke="none"/>
    <path d="M1.55 -11.0 L1.9 -11.35 Q2.3 -11.75 2.75 -11.75 L3.35 -11.65 5.55 -10.8 6.25 -10.35 8.25 -8.4 Q9.4 -6.85 7.45 -6.45 6.6 -6.3 5.9 -6.9 L5.45 -7.3 3.45 -7.25 Q2.15 -7.5 1.4 -8.65 L1.3 -9.3 1.35 -9.55 1.5 -10.75 1.55 -11.0" fill="url(#gradient4)" fill-rule="evenodd" stroke="none"/>
    <path d="M0.0 -13.85 L0.0 -14.05 0.35 -17.0 M0.0 -13.85 L-0.25 -11.25" fill="none" stroke="#000000" stroke-linecap="round" stroke-linejoin="round" stroke-width="1.5"/>
    <path d="M0.75 -15.0 L1.55 -11.0 M0.35 -17.0 L0.25 -17.5 M0.75 -15.0 L0.35 -17.0" fill="none" stroke="#000000" stroke-linecap="round" stroke-linejoin="round" stroke-width="1.5"/>
  </g>
  <defs>
    <radialGradient cx="0" cy="0" gradientTransform="matrix(0.0074, 0.0, 0.0, 0.0074, 0.35, -9.15)" gradientUnits="userSpaceOnUse" id="gradient0" r="819.2" spreadMethod="pad">
      <stop offset="0.0" stop-color="#4e0707"/>
      <stop offset="0.16470588235294117" stop-color="#b41010"/>
      <stop offset="0.5294117647058824" stop-color="#e23612"/>
      <stop offset="0.807843137254902" stop-color="#fd5037"/>
      <stop offset="1.0" stop-color="#fd5037" stop-opacity="0.0"/>
    </radialGradient>
    <radialGradient cx="0" cy="0" gradientTransform="matrix(0.0065, 0.0, 0.0, 0.0065, -2.6, -13.05)" gradientUnits="userSpaceOnUse" id="gradient1" r="819.2" spreadMethod="pad">
      <stop offset="0.0" stop-color="#4e0707"/>
      <stop offset="0.16470588235294117" stop-color="#b41010"/>
      <stop offset="0.5294117647058824" stop-color="#e23612"/>
      <stop offset="0.807843137254902" stop-color="#fd5037"/>
      <stop offset="1.0" stop-color="#fd5037" stop-opacity="0.0"/>
    </radialGradient>
    <radialGradient cx="0" cy="0" gradientTransform="matrix(0.0054, 0.0, 0.0, 0.0054, 4.25, -14.2)" gradientUnits="userSpaceOnUse" id="gradient2" r="819.2" spreadMethod="pad">
      <stop offset="0.0" stop-color="#4e0707"/>
      <stop offset="0.16470588235294117" stop-color="#b41010"/>
      <stop offset="0.5294117647058824" stop-color="#e23612"/>
      <stop offset="0.807843137254902" stop-color="#fd5037"/>
      <stop offset="1.0" stop-color="#fd5037" stop-opacity="0.0"/>
    </radialGradient>
    <radialGradient cx="0" cy="0" gradientTransform="matrix(0.0057, 0.0, 0.0, 0.0057, 0.3, -13.15)" gradientUnits="userSpaceOnUse" id="gradient3" r="819.2" spreadMethod="pad">
      <stop offset="0.0" stop-color="#4e0707"/>
      <stop offset="0.16470588235294117" stop-color="#b41010"/>
      <stop offset="0.5294117647058824" stop-color="#e23612"/>
      <stop offset="0.807843137254902" stop-color="#fd5037"/>
      <stop offset="1.0" stop-color="#fd5037" stop-opacity="0.0"/>
    </radialGradient>
    <radialGradient cx="0" cy="0" gradientTransform="matrix(0.005, 0.0, 0.0, 0.005, 5.0, -9.1)" gradientUnits="userSpaceOnUse" id="gradient4" r="819.2" spreadMethod="pad">
      <stop offset="0.0" stop-color="#4e0707"/>
      <stop offset="0.16470588235294117" stop-color="#b41010"/>
      <stop offset="0.5294117647058824" stop-color="#e23612"/>
      <stop offset="0.807843137254902" stop-color="#fd5037"/>
      <stop offset="1.0" stop-color="#fd5037" stop-opacity="0.0"/>
    </radialGradient>
  </defs>
</svg>
