<?xml version="1.0" encoding="UTF-8" standalone="no"?>
<svg xmlns:xlink="http://www.w3.org/1999/xlink" height="8.8px" width="15.2px" xmlns="http://www.w3.org/2000/svg">
  <g transform="matrix(1.0, 0.0, 0.0, 1.0, 7.0, 24.0)">
    <path d="M1.2 -17.6 L-0.35 -17.5 Q0.05 -19.1 -1.35 -19.4 L-1.4 -19.75 -1.5 -20.0 Q-1.95 -21.2 -4.0 -21.5 L-4.0 -21.45 -4.25 -21.4 -3.8 -21.9 -3.25 -21.95 -3.25 -22.0 -1.5 -21.5 -1.5 -20.0 -1.5 -21.5 0.75 -20.95 1.05 -20.9 1.2 -20.8 1.3 -20.8 0.85 -20.35 0.75 -20.95 0.85 -20.35 0.75 -20.25 Q0.35 -19.65 0.8 -19.2 0.1 -18.35 1.2 -17.6" fill="url(#gradient0)" fill-rule="evenodd" stroke="none"/>
    <path d="M-0.35 -17.5 L-0.4 -17.35 Q-0.6 -16.75 -1.2 -16.55 L-3.5 -16.5 -3.45 -16.6 Q-2.75 -17.6 -2.9 -18.35 L-2.2 -18.15 Q-1.6 -18.0 -1.45 -18.6 L-1.35 -19.4 Q0.05 -19.1 -0.35 -17.5" fill="url(#gradient1)" fill-rule="evenodd" stroke="none"/>
    <path d="M6.25 -19.3 Q7.25 -19.15 7.85 -18.1 L8.0 -17.45 Q7.95 -15.3 5.65 -15.75 L4.75 -15.85 Q3.25 -15.95 2.0 -17.0 L1.3 -17.55 1.2 -17.6 Q0.1 -18.35 0.8 -19.2 L0.85 -19.15 0.9 -19.1 Q2.45 -17.8 4.6 -18.55 L5.35 -19.1 5.55 -19.35 6.25 -19.3" fill="url(#gradient2)" fill-rule="evenodd" stroke="none"/>
    <path d="M-3.5 -16.5 Q-5.15 -14.15 -6.8 -16.0 L-7.0 -16.8 Q-6.9 -18.0 -5.8 -18.7 L-5.75 -18.9 -5.75 -19.05 -5.7 -19.25 Q-5.45 -19.7 -4.95 -19.85 -4.1 -18.85 -2.9 -18.35 -2.75 -17.6 -3.45 -16.6 L-3.5 -16.5" fill="url(#gradient3)" fill-rule="evenodd" stroke="none"/>
    <path d="M4.15 -22.8 L4.55 -23.1 6.5 -24.0 Q8.95 -23.75 7.85 -21.8 7.45 -21.05 6.7 -20.7 6.7 -19.7 6.25 -19.3 L5.55 -19.35 Q7.15 -21.7 4.75 -23.0 L4.4 -22.9 4.15 -22.8 M3.5 -22.1 L3.5 -21.7 3.35 -21.15 3.2 -21.15 3.5 -22.1" fill="url(#gradient4)" fill-rule="evenodd" stroke="none"/>
    <path d="M-4.95 -19.85 Q-5.45 -20.4 -4.95 -20.95 L-4.55 -21.4 -4.25 -21.4 -4.0 -21.45 -4.0 -21.5 Q-1.95 -21.2 -1.5 -20.0 L-1.4 -19.75 -1.35 -19.4 -1.45 -18.6 Q-1.6 -18.0 -2.2 -18.15 L-2.9 -18.35 Q-4.1 -18.85 -4.95 -19.85" fill="url(#gradient5)" fill-rule="evenodd" stroke="none"/>
    <path d="M5.55 -19.35 L5.35 -19.1 4.6 -18.55 Q2.45 -17.8 0.9 -19.1 L0.85 -19.15 0.8 -19.2 Q0.35 -19.65 0.75 -20.25 L0.85 -20.35 1.3 -20.8 Q2.0 -21.35 3.2 -21.15 L3.35 -21.15 3.5 -21.7 3.5 -22.1 3.55 -22.25 4.15 -22.8 4.4 -22.9 4.75 -23.0 Q7.15 -21.7 5.55 -19.35 M0.9 -19.1 L0.85 -20.35 0.9 -19.1" fill="url(#gradient6)" fill-rule="evenodd" stroke="none"/>
    <path d="M0.85 -20.35 L0.9 -19.1 M0.75 -20.95 L0.85 -20.35 M0.75 -20.95 L0.5 -22.25" fill="none" stroke="#000000" stroke-linecap="round" stroke-linejoin="round" stroke-width="1.5"/>
    <path d="M-1.5 -21.5 L-1.5 -22.5 M-1.5 -20.0 L-1.5 -21.5 M-1.5 -20.0 L-1.4 -19.75" fill="none" stroke="#000000" stroke-linecap="round" stroke-linejoin="round" stroke-width="1.5"/>
  </g>
  <defs>
    <radialGradient cx="0" cy="0" gradientTransform="matrix(0.0049, 0.0, 0.0, 0.0049, -0.65, -19.75)" gradientUnits="userSpaceOnUse" id="gradient0" r="819.2" spreadMethod="pad">
      <stop offset="0.0" stop-color="#4e0707"/>
      <stop offset="0.16470588235294117" stop-color="#b41010"/>
      <stop offset="0.5294117647058824" stop-color="#e23612"/>
      <stop offset="0.807843137254902" stop-color="#fd5037"/>
      <stop offset="1.0" stop-color="#fd5037" stop-opacity="0.0"/>
    </radialGradient>
    <radialGradient cx="0" cy="0" gradientTransform="matrix(0.0036, 0.0, 0.0, 0.0036, -2.5, -17.9)" gradientUnits="userSpaceOnUse" id="gradient1" r="819.2" spreadMethod="pad">
      <stop offset="0.0" stop-color="#4e0707"/>
      <stop offset="0.16470588235294117" stop-color="#b41010"/>
      <stop offset="0.5294117647058824" stop-color="#e23612"/>
      <stop offset="0.807843137254902" stop-color="#fd5037"/>
      <stop offset="1.0" stop-color="#fd5037" stop-opacity="0.0"/>
    </radialGradient>
    <radialGradient cx="0" cy="0" gradientTransform="matrix(0.0048, 0.0, 0.0, 0.0048, 4.25, -17.7)" gradientUnits="userSpaceOnUse" id="gradient2" r="819.2" spreadMethod="pad">
      <stop offset="0.0" stop-color="#4e0707"/>
      <stop offset="0.16470588235294117" stop-color="#b41010"/>
      <stop offset="0.5294117647058824" stop-color="#e23612"/>
      <stop offset="0.807843137254902" stop-color="#fd5037"/>
      <stop offset="1.0" stop-color="#fd5037" stop-opacity="0.0"/>
    </radialGradient>
    <radialGradient cx="0" cy="0" gradientTransform="matrix(0.0032, 0.0, 0.0, 0.0032, -4.95, -17.6)" gradientUnits="userSpaceOnUse" id="gradient3" r="819.2" spreadMethod="pad">
      <stop offset="0.0" stop-color="#4e0707"/>
      <stop offset="0.16470588235294117" stop-color="#b41010"/>
      <stop offset="0.5294117647058824" stop-color="#e23612"/>
      <stop offset="0.807843137254902" stop-color="#fd5037"/>
      <stop offset="1.0" stop-color="#fd5037" stop-opacity="0.0"/>
    </radialGradient>
    <radialGradient cx="0" cy="0" gradientTransform="matrix(0.0043, 0.0, 0.0, 0.0043, 5.7, -21.55)" gradientUnits="userSpaceOnUse" id="gradient4" r="819.2" spreadMethod="pad">
      <stop offset="0.0" stop-color="#4e0707"/>
      <stop offset="0.16470588235294117" stop-color="#b41010"/>
      <stop offset="0.5294117647058824" stop-color="#e23612"/>
      <stop offset="0.807843137254902" stop-color="#fd5037"/>
      <stop offset="1.0" stop-color="#fd5037" stop-opacity="0.0"/>
    </radialGradient>
    <radialGradient cx="0" cy="0" gradientTransform="matrix(0.0035, 0.0, 0.0, 0.0035, -3.3, -19.8)" gradientUnits="userSpaceOnUse" id="gradient5" r="819.2" spreadMethod="pad">
      <stop offset="0.0" stop-color="#4e0707"/>
      <stop offset="0.16470588235294117" stop-color="#b41010"/>
      <stop offset="0.5294117647058824" stop-color="#e23612"/>
      <stop offset="0.807843137254902" stop-color="#fd5037"/>
      <stop offset="1.0" stop-color="#fd5037" stop-opacity="0.0"/>
    </radialGradient>
    <radialGradient cx="0" cy="0" gradientTransform="matrix(0.0046, 0.0, 0.0, 0.0046, 3.35, -20.65)" gradientUnits="userSpaceOnUse" id="gradient6" r="819.2" spreadMethod="pad">
      <stop offset="0.0" stop-color="#4e0707"/>
      <stop offset="0.16470588235294117" stop-color="#b41010"/>
      <stop offset="0.5294117647058824" stop-color="#e23612"/>
      <stop offset="0.807843137254902" stop-color="#fd5037"/>
      <stop offset="1.0" stop-color="#fd5037" stop-opacity="0.0"/>
    </radialGradient>
  </defs>
</svg>
