<?xml version="1.0" encoding="UTF-8" standalone="no"?>
<svg xmlns:xlink="http://www.w3.org/1999/xlink" height="65.65px" width="67.65px" xmlns="http://www.w3.org/2000/svg">
  <g transform="matrix(1.0, 0.0, 0.0, 1.0, 33.85, 32.85)">
    <path d="M2.45 9.25 L0.35 32.3 -2.55 9.1 2.45 9.25" fill="url(#gradient0)" fill-rule="evenodd" stroke="none"/>
    <path d="M2.45 9.25 L0.35 32.3 -2.55 9.1" fill="none" stroke="#000000" stroke-linecap="round" stroke-linejoin="round" stroke-width="1.0"/>
    <path d="M8.1 -7.45 Q11.5 -4.35 11.5 0.0 11.5 4.35 8.1 7.4 4.75 10.5 0.0 10.5 -4.75 10.5 -8.15 7.4 -11.5 4.35 -11.5 0.0 -11.5 -4.35 -8.15 -7.45 -4.75 -10.5 0.0 -10.5 4.75 -10.5 8.1 -7.45" fill="url(#gradient1)" fill-rule="evenodd" stroke="none"/>
    <path d="M8.1 -7.45 Q11.5 -4.35 11.5 0.0 11.5 4.35 8.1 7.4 4.75 10.5 0.0 10.5 -4.75 10.5 -8.15 7.4 -11.5 4.35 -11.5 0.0 -11.5 -4.35 -8.15 -7.45 -4.75 -10.5 0.0 -10.5 4.75 -10.5 8.1 -7.45 Z" fill="none" stroke="#000000" stroke-linecap="round" stroke-linejoin="round" stroke-width="2.0"/>
    <path d="M3.1 -0.8 Q3.1 0.55 2.15 1.5 1.25 2.45 -0.05 2.45 -1.35 2.45 -2.3 1.5 -3.2 0.55 -3.2 -0.8 -3.2 -2.15 -2.3 -3.1 -1.35 -4.05 -0.05 -4.05 1.25 -4.05 2.15 -3.1 3.1 -2.15 3.1 -0.8" fill="url(#gradient2)" fill-rule="evenodd" stroke="none"/>
    <path d="M3.1 -0.8 Q3.1 0.55 2.15 1.5 1.25 2.45 -0.05 2.45 -1.35 2.45 -2.3 1.5 -3.2 0.55 -3.2 -0.8 -3.2 -2.15 -2.3 -3.1 -1.35 -4.05 -0.05 -4.05 1.25 -4.05 2.15 -3.1 3.1 -2.15 3.1 -0.8 Z" fill="none" stroke="#000000" stroke-linecap="round" stroke-linejoin="round" stroke-width="1.0"/>
    <path d="M-9.3 4.1 L-5.85 7.75 -23.65 22.55 -9.3 4.1" fill="url(#gradient3)" fill-rule="evenodd" stroke="none"/>
    <path d="M-5.85 7.75 L-23.65 22.55 -9.3 4.1" fill="none" stroke="#000000" stroke-linecap="round" stroke-linejoin="round" stroke-width="1.0"/>
    <path d="M-10.3 2.3 L-33.35 0.2 -10.15 -2.7 -10.3 2.3" fill="url(#gradient4)" fill-rule="evenodd" stroke="none"/>
    <path d="M-10.3 2.3 L-33.35 0.2 -10.15 -2.7" fill="none" stroke="#000000" stroke-linecap="round" stroke-linejoin="round" stroke-width="1.0"/>
    <path d="M-4.5 -8.55 L-8.1 -5.1 -22.95 -22.9 -4.5 -8.55" fill="url(#gradient5)" fill-rule="evenodd" stroke="none"/>
    <path d="M-8.1 -5.1 L-22.95 -22.9 -4.5 -8.55" fill="none" stroke="#000000" stroke-linecap="round" stroke-linejoin="round" stroke-width="1.0"/>
    <path d="M-2.35 -9.3 L-0.25 -32.35 2.65 -9.15 -2.35 -9.3" fill="url(#gradient6)" fill-rule="evenodd" stroke="none"/>
    <path d="M-2.35 -9.3 L-0.25 -32.35 2.65 -9.15" fill="none" stroke="#000000" stroke-linecap="round" stroke-linejoin="round" stroke-width="1.0"/>
    <path d="M5.25 8.35 L8.9 4.95 23.7 22.7 5.25 8.35" fill="url(#gradient7)" fill-rule="evenodd" stroke="none"/>
    <path d="M8.9 4.95 L23.7 22.7 5.25 8.35" fill="none" stroke="#000000" stroke-linecap="round" stroke-linejoin="round" stroke-width="1.0"/>
    <path d="M10.25 -2.6 L33.3 -0.5 10.1 2.4 10.25 -2.6" fill="url(#gradient8)" fill-rule="evenodd" stroke="none"/>
    <path d="M10.25 -2.6 L33.3 -0.5 10.1 2.4" fill="none" stroke="#000000" stroke-linecap="round" stroke-linejoin="round" stroke-width="1.0"/>
    <path d="M8.85 -4.6 L5.45 -8.2 23.2 -23.05 8.85 -4.6" fill="url(#gradient9)" fill-rule="evenodd" stroke="none"/>
    <path d="M5.45 -8.2 L23.2 -23.05 8.85 -4.6" fill="none" stroke="#000000" stroke-linecap="round" stroke-linejoin="round" stroke-width="1.0"/>
    <path d="M-3.75 -19.0 L-3.15 -18.8 -2.8 -18.7 -1.2 -18.5 0.05 -18.65 1.5 -18.4 3.15 -18.6 3.75 -18.8 3.95 -18.85 6.4 -20.05 Q9.1 -21.65 10.8 -24.0 12.5 -26.3 12.15 -27.9 11.75 -29.55 9.65 -29.55 7.45 -29.55 4.75 -27.9 2.0 -26.3 0.3 -24.0 L0.2 -23.8 0.0 -24.05 Q-1.7 -26.35 -4.4 -28.0 -7.15 -29.6 -9.3 -29.6 -11.45 -29.6 -11.8 -28.0 -12.2 -26.35 -10.5 -24.05 -8.8 -21.75 -6.05 -20.1 L-3.75 -19.0" fill="url(#gradient10)" fill-rule="evenodd" stroke="none"/>
    <path d="M3.95 -18.85 L6.4 -20.05 Q9.1 -21.65 10.8 -24.0 12.5 -26.3 12.15 -27.9 11.75 -29.55 9.65 -29.55 7.45 -29.55 4.75 -27.9 2.0 -26.3 0.3 -24.0 L0.2 -23.8 0.0 -24.05 Q-1.7 -26.35 -4.4 -28.0 -7.15 -29.6 -9.3 -29.6 -11.45 -29.6 -11.8 -28.0 -12.2 -26.35 -10.5 -24.05 -8.8 -21.75 -6.05 -20.1 L-3.75 -19.0" fill="none" stroke="#000000" stroke-linecap="round" stroke-linejoin="round" stroke-width="2.0"/>
    <path d="M11.8 -26.85 Q16.5 -25.15 16.5 -22.75 16.5 -20.35 11.8 -18.7 7.15 -17.0 0.5 -17.0 -6.15 -17.0 -10.85 -18.7 -15.5 -20.35 -15.5 -22.75 -15.5 -25.15 -10.85 -26.85 -6.15 -28.5 0.5 -28.5 7.15 -28.5 11.8 -26.85" fill="url(#gradient11)" fill-rule="evenodd" stroke="none"/>
    <path d="M11.8 -26.85 Q16.5 -25.15 16.5 -22.75 16.5 -20.35 11.8 -18.7 7.15 -17.0 0.5 -17.0 -6.15 -17.0 -10.85 -18.7 -15.5 -20.35 -15.5 -22.75 -15.5 -25.15 -10.85 -26.85 -6.15 -28.5 0.5 -28.5 7.15 -28.5 11.8 -26.85 Z" fill="none" stroke="#000000" stroke-linecap="round" stroke-linejoin="round" stroke-width="2.0"/>
    <path d="M6.4 -28.45 L6.75 -28.05 Q8.7 -25.9 8.7 -22.95 8.7 -19.75 6.4 -17.5 L6.05 -17.15 Q3.9 -15.2 0.95 -15.2 -2.05 -15.2 -4.25 -17.25 L-4.55 -17.5 Q-6.8 -19.75 -6.8 -22.95 -6.8 -25.8 -4.95 -27.95 L-4.55 -28.45 Q-2.25 -30.7 0.95 -30.7 4.15 -30.7 6.4 -28.45" fill="url(#gradient12)" fill-rule="evenodd" stroke="none"/>
    <path d="M6.4 -28.45 L6.75 -28.05 Q8.7 -25.9 8.7 -22.95 8.7 -19.75 6.4 -17.5 L6.05 -17.15 Q3.9 -15.2 0.95 -15.2 -2.05 -15.2 -4.25 -17.25 L-4.55 -17.5 Q-6.8 -19.75 -6.8 -22.95 -6.8 -25.8 -4.95 -27.95 L-4.55 -28.45 Q-2.25 -30.7 0.95 -30.7 4.15 -30.7 6.4 -28.45 Z" fill="none" stroke="#000000" stroke-linecap="round" stroke-linejoin="round" stroke-width="2.0"/>
  </g>
  <defs>
    <radialGradient cx="0" cy="0" gradientTransform="matrix(-0.0175, 0.0, 0.0, -0.0175, -0.45, 22.45)" gradientUnits="userSpaceOnUse" id="gradient0" r="819.2" spreadMethod="pad">
      <stop offset="0.0" stop-color="#158072"/>
      <stop offset="0.5764705882352941" stop-color="#48e1cd"/>
      <stop offset="1.0" stop-color="#ffffff"/>
    </radialGradient>
    <radialGradient cx="0" cy="0" gradientTransform="matrix(0.0221, -0.0108, 0.0074, 0.0151, 3.0, 2.5)" gradientUnits="userSpaceOnUse" id="gradient1" r="819.2" spreadMethod="pad">
      <stop offset="0.0" stop-color="#158072"/>
      <stop offset="0.5764705882352941" stop-color="#48e1cd"/>
      <stop offset="1.0" stop-color="#ffffff"/>
    </radialGradient>
    <radialGradient cx="0" cy="0" gradientTransform="matrix(0.004, 0.0, 0.0, 0.004, -0.05, -0.8)" gradientUnits="userSpaceOnUse" id="gradient2" r="819.2" spreadMethod="pad">
      <stop offset="0.0" stop-color="#ffffff"/>
      <stop offset="0.3843137254901961" stop-color="#48e1cd"/>
      <stop offset="0.7137254901960784" stop-color="#188577"/>
    </radialGradient>
    <radialGradient cx="0" cy="0" gradientTransform="matrix(-0.0123, -0.0123, 0.0123, -0.0123, -17.7, 16.3)" gradientUnits="userSpaceOnUse" id="gradient3" r="819.2" spreadMethod="pad">
      <stop offset="0.0" stop-color="#158072"/>
      <stop offset="0.5764705882352941" stop-color="#48e1cd"/>
      <stop offset="1.0" stop-color="#ffffff"/>
    </radialGradient>
    <radialGradient cx="0" cy="0" gradientTransform="matrix(0.0, -0.0175, 0.0175, 0.0, -22.05, -0.45)" gradientUnits="userSpaceOnUse" id="gradient4" r="819.2" spreadMethod="pad">
      <stop offset="0.0" stop-color="#158072"/>
      <stop offset="0.5764705882352941" stop-color="#48e1cd"/>
      <stop offset="1.0" stop-color="#ffffff"/>
    </radialGradient>
    <radialGradient cx="0" cy="0" gradientTransform="matrix(0.0123, -0.0123, 0.0123, 0.0123, -11.95, -12.5)" gradientUnits="userSpaceOnUse" id="gradient5" r="819.2" spreadMethod="pad">
      <stop offset="0.0" stop-color="#158072"/>
      <stop offset="0.5764705882352941" stop-color="#48e1cd"/>
      <stop offset="1.0" stop-color="#ffffff"/>
    </radialGradient>
    <radialGradient cx="0" cy="0" gradientTransform="matrix(0.0175, 0.0, 0.0, 0.0175, 0.55, -22.5)" gradientUnits="userSpaceOnUse" id="gradient6" r="819.2" spreadMethod="pad">
      <stop offset="0.0" stop-color="#158072"/>
      <stop offset="0.5764705882352941" stop-color="#48e1cd"/>
      <stop offset="1.0" stop-color="#ffffff"/>
    </radialGradient>
    <radialGradient cx="0" cy="0" gradientTransform="matrix(-0.0127, 0.0127, -0.0127, -0.0127, 13.45, 13.7)" gradientUnits="userSpaceOnUse" id="gradient7" r="819.2" spreadMethod="pad">
      <stop offset="0.0" stop-color="#158072"/>
      <stop offset="0.5764705882352941" stop-color="#48e1cd"/>
      <stop offset="1.0" stop-color="#ffffff"/>
    </radialGradient>
    <radialGradient cx="0" cy="0" gradientTransform="matrix(0.0, 0.0175, -0.0175, 0.0, 16.05, -0.15)" gradientUnits="userSpaceOnUse" id="gradient8" r="819.2" spreadMethod="pad">
      <stop offset="0.0" stop-color="#158072"/>
      <stop offset="0.5764705882352941" stop-color="#48e1cd"/>
      <stop offset="1.0" stop-color="#ffffff"/>
    </radialGradient>
    <radialGradient cx="0" cy="0" gradientTransform="matrix(0.0123, 0.0123, -0.0123, 0.0123, 11.6, -10.35)" gradientUnits="userSpaceOnUse" id="gradient9" r="819.2" spreadMethod="pad">
      <stop offset="0.0" stop-color="#158072"/>
      <stop offset="0.5764705882352941" stop-color="#48e1cd"/>
      <stop offset="1.0" stop-color="#ffffff"/>
    </radialGradient>
    <radialGradient cx="0" cy="0" gradientTransform="matrix(0.0363, 0.0, 0.0, -0.0136, -6.8, -21.8)" gradientUnits="userSpaceOnUse" id="gradient10" r="819.2" spreadMethod="pad">
      <stop offset="0.0" stop-color="#0066ff"/>
      <stop offset="1.0" stop-color="#ffffff"/>
    </radialGradient>
    <radialGradient cx="0" cy="0" gradientTransform="matrix(0.0257, 0.0, 0.0, 0.0196, -6.0, -23.25)" gradientUnits="userSpaceOnUse" id="gradient11" r="819.2" spreadMethod="pad">
      <stop offset="0.3843137254901961" stop-color="#0066ff"/>
      <stop offset="1.0" stop-color="#ffffff"/>
    </radialGradient>
    <linearGradient gradientTransform="matrix(0.0095, 0.0, 0.0, 0.0095, 0.95, -22.95)" gradientUnits="userSpaceOnUse" id="gradient12" spreadMethod="pad" x1="-819.2" x2="819.2">
      <stop offset="0.0" stop-color="#ffcc99"/>
      <stop offset="0.6901960784313725" stop-color="#ffe6cf"/>
      <stop offset="0.7411764705882353" stop-color="#ffe6cf"/>
      <stop offset="0.792156862745098" stop-color="#ffe6cf"/>
      <stop offset="0.8352941176470589" stop-color="#ffe7d0"/>
      <stop offset="1.0" stop-color="#ffffff"/>
    </linearGradient>
  </defs>
</svg>
