<?xml version="1.0" encoding="UTF-8" standalone="no"?>
<svg xmlns:xlink="http://www.w3.org/1999/xlink" height="7.5px" width="10.75px" xmlns="http://www.w3.org/2000/svg">
  <g transform="matrix(1.0, 0.0, 0.0, 1.0, 5.35, 3.6)">
    <path d="M4.8 -1.65 Q4.0 -0.4 4.0 0.0 4.0 1.5 2.85 2.55 1.65 3.65 0.0 3.65 -1.65 3.65 -2.8 2.55 -4.0 1.5 -4.0 0.0 -4.0 -0.4 -4.75 -1.5 -5.35 -2.45 -4.9 -2.85 L-2.6 -3.1 -0.05 -2.75 2.6 -3.2 5.0 -3.1 Q5.4 -2.7 4.8 -1.65" fill="url(#gradient0)" fill-rule="evenodd" stroke="none"/>
    <path d="M4.8 -1.65 Q4.0 -0.4 4.0 0.0 4.0 1.5 2.85 2.55 1.65 3.65 0.0 3.65 -1.65 3.65 -2.8 2.55 -4.0 1.5 -4.0 0.0 -4.0 -0.4 -4.75 -1.5 -5.35 -2.45 -4.9 -2.85 L-2.6 -3.1 -0.05 -2.75 2.6 -3.2 5.0 -3.1 Q5.4 -2.7 4.8 -1.65 Z" fill="none" stroke="#000000" stroke-linecap="round" stroke-linejoin="round" stroke-width="0.5"/>
  </g>
  <defs>
    <radialGradient cx="0" cy="0" gradientTransform="matrix(0.0077, -0.0037, 0.0026, 0.0052, 1.1, 0.9)" gradientUnits="userSpaceOnUse" id="gradient0" r="819.2" spreadMethod="pad">
      <stop offset="0.0" stop-color="#4f2679"/>
      <stop offset="0.5764705882352941" stop-color="#d24bde"/>
      <stop offset="1.0" stop-color="#ffffff"/>
    </radialGradient>
  </defs>
</svg>
