<?xml version="1.0" encoding="UTF-8" standalone="no"?>
<svg xmlns:xlink="http://www.w3.org/1999/xlink" height="171.0px" width="81.9px" xmlns="http://www.w3.org/2000/svg">
  <g transform="matrix(1.0, 0.0, 0.0, 1.0, 42.0, 37.25)">
    <path d="M-37.75 23.35 L-38.1 23.15 -39.25 23.95 -39.25 25.8 -38.6 25.85 -37.45 25.7 Q-37.35 25.55 -37.4 25.25 -37.65 24.15 -37.0 23.8 L-37.05 23.75 -37.75 23.35 M-19.1 6.0 L-19.05 5.8 Q-18.95 5.15 -19.5 5.0 L-19.75 4.9 -21.0 5.0 -21.35 5.0 -21.3 5.35 Q-21.2 6.25 -21.55 6.8 L-21.8 7.25 -21.4 8.2 Q-21.2 8.8 -21.3 9.45 L-21.3 9.6 -20.4 9.6 -20.35 9.6 -20.3 9.7 Q-19.6 8.3 -18.15 8.15 L-18.2 8.2 -17.9 8.15 -18.8 7.15 -18.9 7.0 -19.1 6.0 M-24.25 -2.35 L-24.35 -2.4 -24.3 -2.35 -24.25 -2.35 M-25.0 -12.5 Q-25.0 -13.0 -24.6 -13.35 L-23.75 -13.75 Q-23.25 -13.75 -22.85 -13.35 L-22.35 -12.85 -22.3 -12.8 Q-21.5 -11.95 -21.65 -10.6 L-21.65 -10.55 -21.85 -9.6 -21.1 -9.4 -21.05 -9.4 -19.95 -8.7 -19.55 -8.0 -19.25 -7.8 -18.0 -7.95 -17.85 -8.1 -17.45 -8.6 Q-18.0 -9.65 -17.7 -11.0 L-17.45 -11.55 -16.95 -11.9 -16.05 -12.1 -15.75 -12.05 -15.05 -11.95 -15.0 -11.95 -14.65 -12.2 -14.65 -12.25 Q-15.5 -12.65 -15.5 -13.55 -15.6 -14.1 -15.15 -14.9 L-15.1 -15.0 -14.45 -15.8 Q-14.1 -16.2 -13.55 -16.25 -13.05 -16.3 -12.65 -15.95 -12.3 -15.6 -12.25 -15.05 -12.2 -14.55 -12.55 -14.15 L-12.7 -14.0 -12.35 -13.55 -11.85 -13.65 -11.0 -14.0 -10.85 -14.05 Q-9.15 -14.15 -7.8 -13.4 -7.0 -13.3 -7.0 -12.0 -7.0 -11.5 -7.35 -11.1 -7.75 -10.75 -8.25 -10.75 -8.75 -10.75 -9.1 -11.1 L-9.3 -11.4 -10.5 -11.55 -10.95 -11.3 -12.45 -11.0 Q-12.9 -10.15 -14.0 -9.65 L-13.85 -9.7 -15.0 -9.4 -14.85 -9.1 -14.85 -9.0 Q-14.65 -8.25 -15.05 -7.65 L-15.35 -7.25 -15.05 -7.05 Q-14.6 -6.75 -14.5 -6.25 -14.4 -5.75 -14.7 -5.3 -15.0 -4.85 -15.5 -4.75 L-16.45 -4.95 Q-17.25 -5.5 -18.25 -5.4 L-18.6 -4.65 -18.95 -3.45 -19.3 -2.7 -19.5 -2.45 -20.15 -2.0 -20.3 -1.95 -23.95 -2.1 -24.2 -2.0 -24.25 -1.95 -24.9 -1.75 -25.0 -1.7 -25.7 -1.5 -26.65 -1.65 Q-27.1 -1.95 -27.2 -2.45 L-27.05 -3.4 -26.3 -3.95 -25.6 -4.15 -25.5 -4.15 -25.4 -4.2 -25.35 -4.2 -24.35 -4.65 -24.25 -4.65 Q-23.4 -4.85 -22.9 -4.45 L-22.85 -4.4 -21.35 -4.25 -21.25 -4.45 -21.25 -4.4 Q-21.0 -5.05 -21.0 -5.75 L-21.0 -6.0 -21.05 -6.05 -21.15 -6.1 -21.85 -7.0 -21.85 -7.05 -21.95 -7.05 -21.9 -7.05 Q-22.95 -7.4 -24.15 -7.05 L-24.25 -7.05 -24.5 -6.95 -24.55 -6.95 -26.55 -7.1 -26.65 -7.2 -27.45 -7.85 Q-27.9 -8.2 -27.95 -8.7 -28.0 -9.2 -27.65 -9.6 -27.35 -10.05 -26.85 -10.1 -26.35 -10.15 -25.9 -9.8 L-25.3 -9.35 -24.65 -9.5 -24.75 -9.5 -24.6 -9.55 -24.5 -9.75 Q-24.25 -10.15 -24.15 -10.9 L-24.15 -11.15 -24.6 -11.6 Q-25.0 -12.0 -25.0 -12.5 M6.8 117.3 L6.85 117.35 6.9 117.35 6.8 117.3 M24.25 122.25 Q24.1 121.55 24.35 121.05 24.7 119.55 26.9 120.05 27.4 120.15 27.7 120.6 L27.9 121.25 29.0 121.05 29.3 121.05 29.9 121.05 Q30.2 120.6 30.7 120.55 L31.65 120.75 32.15 121.55 31.95 122.5 31.2 123.2 30.8 125.0 30.15 125.65 Q29.65 125.85 29.15 125.65 L28.5 125.0 28.4 124.65 27.75 124.7 Q27.35 124.6 27.1 124.35 L26.9 124.3 27.2 125.35 27.2 125.45 Q27.3 126.9 26.6 127.6 26.25 127.95 25.75 128.0 25.2 128.05 24.85 127.7 24.45 127.35 24.4 126.85 24.35 126.3 24.7 125.95 L24.7 125.6 24.65 125.35 24.45 125.35 24.3 125.35 23.7 125.4 23.65 125.4 Q23.2 125.45 23.0 125.85 L22.3 126.45 21.35 126.35 Q20.85 126.1 20.7 125.65 20.55 125.15 20.8 124.7 21.7 123.0 23.6 122.9 L23.65 122.9 23.9 122.9 24.05 122.85 24.25 122.25 M32.7 93.25 L32.7 93.5 32.65 93.6 32.9 93.7 32.9 93.65 32.7 93.25 M31.25 78.6 L31.3 78.55 31.25 78.6 M5.05 98.8 Q4.8 98.35 5.0 97.85 5.15 97.35 5.6 97.15 L6.55 97.1 Q7.05 97.25 7.3 97.7 L8.0 98.15 Q8.35 98.25 8.6 98.5 L8.9 99.15 9.2 99.9 9.25 99.95 9.35 100.05 9.4 100.1 Q10.7 100.25 12.0 100.7 12.65 100.15 13.05 99.9 13.1 99.8 13.2 99.8 L14.25 99.5 14.2 99.5 Q15.3 99.25 15.9 99.75 16.65 100.15 16.85 101.25 L16.85 101.3 16.9 101.6 17.15 101.2 17.15 101.0 17.35 100.4 Q17.5 100.05 17.8 99.9 L18.45 99.75 Q20.35 99.8 22.1 100.85 L22.05 100.8 22.85 101.2 22.9 101.25 23.4 101.55 Q23.75 101.25 24.4 101.15 L24.55 101.1 Q26.4 100.9 27.65 101.6 L27.6 101.6 28.4 101.75 31.65 101.75 31.9 101.75 32.15 101.75 Q32.65 101.75 33.05 102.15 33.4 102.5 33.4 103.0 L33.05 103.9 32.15 104.25 31.9 104.25 31.65 104.25 29.65 104.25 29.7 104.8 29.7 104.85 29.75 104.9 29.9 105.75 29.9 105.85 Q29.85 106.55 30.6 106.85 31.1 107.0 31.3 107.5 31.5 107.95 31.35 108.45 L30.7 109.15 29.7 109.2 Q27.3 108.25 27.4 105.8 L27.4 105.75 Q27.1 105.05 27.15 104.1 L26.5 103.85 26.5 103.8 25.5 103.6 24.85 104.85 24.2 105.25 23.45 105.2 Q22.2 104.75 21.85 103.35 L21.8 103.5 20.85 103.0 19.5 102.45 Q19.05 103.9 17.3 104.2 L17.45 105.15 18.05 104.9 18.1 104.8 18.15 104.8 Q18.4 104.35 18.9 104.3 20.25 104.0 20.7 104.9 21.2 105.35 20.95 106.55 L20.9 106.6 20.55 107.4 19.65 107.75 Q19.15 107.75 18.8 107.4 L18.75 107.35 16.7 107.65 Q16.95 109.15 16.15 109.75 15.55 110.6 13.9 110.25 L13.1 109.7 Q12.8 109.25 12.95 108.75 13.05 108.25 13.5 107.95 L14.15 107.75 Q13.9 106.5 14.45 105.9 L14.95 105.35 14.8 104.4 14.8 104.25 14.75 103.65 14.7 103.3 14.7 103.25 14.65 103.15 14.65 103.05 14.55 102.65 14.55 102.6 14.4 102.0 13.0 103.1 12.4 103.35 11.75 103.25 Q10.3 102.65 8.7 102.55 L8.05 102.8 8.05 103.25 8.05 103.35 8.1 103.85 8.05 103.7 8.2 105.1 8.35 105.2 8.45 105.2 8.5 105.25 8.5 105.2 Q10.15 105.0 10.85 106.4 L11.05 106.9 11.0 107.85 10.25 108.5 9.3 108.45 Q8.85 108.2 8.7 107.75 L7.45 107.5 7.55 107.55 7.0 107.3 Q7.0 109.8 4.6 110.1 L4.1 110.2 1.75 110.65 1.5 111.1 0.95 111.45 Q1.05 112.05 1.5 112.55 L1.6 112.65 1.8 113.0 3.55 113.5 4.45 114.2 6.1 116.2 6.5 116.5 6.6 116.6 7.0 116.85 7.25 116.6 7.3 116.5 Q8.95 115.15 11.1 115.5 L11.05 115.45 12.0 115.55 12.05 115.55 Q12.9 115.6 13.5 116.0 L14.95 115.15 14.95 114.85 14.95 114.8 Q14.9 113.7 15.35 112.85 L15.4 112.7 Q15.7 112.0 16.9 112.0 L18.65 112.0 19.55 112.4 Q19.9 112.75 19.9 113.25 L19.55 114.15 19.05 114.45 19.05 114.8 19.75 115.0 19.9 115.05 Q20.75 115.45 20.8 116.5 L20.8 116.4 20.9 118.5 20.55 119.4 19.65 119.75 Q19.15 119.75 18.8 119.4 18.4 119.0 18.4 118.5 L18.35 117.2 18.35 117.15 18.3 117.15 17.5 116.9 17.45 116.85 17.05 116.55 16.25 117.3 16.3 117.25 14.55 118.25 14.5 118.6 14.4 121.0 14.05 121.9 Q13.65 122.25 13.15 122.25 L12.3 121.9 Q11.9 121.5 11.9 121.0 L12.0 118.4 12.0 118.05 11.85 118.05 11.8 118.05 10.8 117.95 10.7 117.95 Q9.75 117.8 9.05 118.3 8.65 120.0 6.55 119.8 L6.4 119.8 Q4.85 119.45 5.1 118.65 L4.05 117.65 2.6 115.85 2.55 115.8 2.5 115.75 1.6 115.5 1.15 115.9 1.15 116.0 0.8 116.9 Q0.4 117.25 -0.1 117.25 L-0.95 116.9 -1.0 116.85 Q-2.05 116.25 -2.05 115.45 L-1.95 114.7 -1.45 114.15 -0.7 113.8 Q-1.25 113.05 -1.45 112.15 L-2.6 112.4 -2.65 112.4 -3.8 112.55 -3.85 112.75 -3.85 113.0 Q-3.85 113.5 -4.2 113.9 -4.6 114.25 -5.1 114.25 L-5.95 113.9 -6.35 113.0 -6.35 112.75 -6.1 111.6 -6.1 111.55 Q-5.55 110.15 -4.2 110.1 L-4.3 110.15 -3.05 109.95 -0.45 109.3 Q-0.2 108.75 0.25 108.5 L0.2 108.55 Q0.75 108.15 1.4 108.15 L1.45 108.15 3.15 107.85 3.35 107.8 4.25 107.65 4.25 107.6 4.45 107.15 4.45 107.05 Q4.35 105.3 5.8 104.55 L5.65 104.35 5.65 104.2 5.55 103.25 5.55 103.2 5.4 102.5 Q5.1 102.1 5.15 101.65 5.2 101.15 5.55 100.85 5.9 100.5 6.4 100.5 L6.7 100.5 6.6 100.3 Q5.5 99.8 5.05 98.8 M0.85 92.25 L0.8 92.25 0.8 92.3 0.85 92.25 M0.65 92.8 L0.65 92.75 0.65 92.8 M0.1 90.3 L0.15 90.3 1.9 90.25 Q2.4 90.25 2.8 90.65 3.15 91.0 3.15 91.5 L2.8 92.4 1.9 92.75 0.7 92.8 0.55 93.55 Q0.55 94.45 -0.25 94.8 -1.45 95.55 -2.95 95.75 L-5.35 95.6 -5.4 95.55 Q-5.15 97.15 -5.85 97.95 -6.45 98.9 -8.0 98.9 L-8.05 99.25 -8.0 99.55 -7.75 99.9 -7.6 100.6 Q-6.55 100.75 -6.25 101.7 L-6.1 102.35 -4.9 102.5 Q-4.15 102.1 -3.6 103.55 L-3.55 103.6 -3.5 103.7 -3.6 103.6 Q-2.9 104.65 -2.85 105.95 -2.85 106.45 -3.15 106.85 -3.5 107.2 -4.0 107.25 L-4.9 106.95 -5.35 106.1 Q-5.4 105.45 -5.7 104.95 L-5.7 104.9 -7.5 104.75 -7.4 105.05 Q-7.2 106.35 -8.1 106.95 L-8.45 107.65 Q-8.85 108.0 -9.35 108.0 -9.85 108.0 -10.2 107.65 -10.6 107.25 -10.6 106.75 L-10.45 106.1 -10.5 106.15 Q-10.3 105.45 -9.9 105.15 -10.15 103.5 -9.3 102.8 L-9.5 102.6 Q-9.9 102.75 -10.25 103.0 L-10.3 103.0 -10.35 103.05 -10.35 103.25 Q-10.35 103.75 -10.7 104.15 -11.1 104.5 -11.6 104.5 L-13.5 104.55 -13.9 106.0 Q-14.35 107.05 -15.25 107.65 L-15.3 107.7 -16.6 108.0 Q-18.45 108.0 -19.4 107.05 L-19.45 107.0 -20.1 106.95 Q-20.3 107.8 -19.8 108.6 -19.55 108.95 -19.6 109.35 L-19.9 110.1 Q-20.6 111.05 -22.5 110.8 L-22.45 110.8 Q-23.5 110.7 -23.95 110.15 L-24.35 109.25 Q-24.35 108.75 -23.95 108.4 -23.6 108.0 -23.1 108.0 L-22.6 108.1 Q-22.8 107.0 -22.4 105.9 L-22.85 105.45 -22.9 105.3 Q-23.7 103.75 -25.4 103.55 L-25.5 103.55 Q-26.4 103.55 -26.95 102.25 L-26.95 102.2 -27.55 100.75 -27.85 99.8 -28.05 99.6 -28.05 99.55 Q-28.4 99.15 -28.85 99.1 L-29.25 99.85 -29.2 99.8 -29.3 99.95 -29.95 101.5 Q-30.05 102.2 -31.1 102.5 L-30.8 102.05 Q-30.5 101.6 -30.6 101.1 -30.7 100.6 -31.15 100.3 L-32.05 100.15 -31.65 99.1 -31.55 98.9 -31.3 98.4 -31.25 98.35 -30.9 97.5 -31.1 97.45 -31.05 97.45 Q-31.9 97.3 -32.5 96.95 L-33.6 96.8 -33.65 96.8 Q-35.6 97.1 -36.15 95.95 L-36.1 96.0 Q-36.7 95.2 -36.8 94.2 -36.9 93.65 -36.6 93.25 -36.3 92.85 -35.75 92.8 L-34.85 93.0 Q-34.45 93.3 -34.35 93.85 L-34.1 94.55 -34.05 94.55 -34.05 94.35 Q-32.55 94.05 -31.3 94.75 L-30.65 95.0 -30.6 95.0 Q-28.65 95.4 -27.95 96.75 -26.9 97.0 -26.15 97.95 L-26.1 97.95 Q-25.6 98.6 -25.45 99.15 L-25.4 99.35 -25.3 99.65 -25.3 99.7 -24.7 101.15 Q-22.15 101.55 -20.85 103.9 L-20.2 104.4 -18.8 104.6 -18.6 104.65 Q-18.2 104.8 -17.9 105.05 L-17.75 105.2 -16.6 105.5 -16.6 105.55 -16.2 105.0 -16.2 105.05 Q-15.95 104.4 -15.85 103.25 L-15.45 102.45 Q-15.15 102.15 -14.65 102.1 L-12.75 102.05 -11.55 100.85 -11.5 100.8 -10.5 100.3 -10.4 100.3 -10.5 100.15 -10.45 100.2 -10.5 100.0 -11.0 99.8 -10.95 99.8 -12.45 99.5 -13.05 99.2 -13.35 99.2 -13.45 99.6 Q-13.5 100.6 -14.35 101.0 L-15.6 101.25 -18.1 101.25 -18.35 101.25 Q-18.85 101.25 -19.2 100.9 -19.6 100.5 -19.6 100.0 -19.6 99.5 -19.2 99.15 -18.85 98.75 -18.35 98.75 L-18.1 98.75 -15.85 98.75 Q-15.65 97.75 -15.0 97.3 L-14.25 96.85 -14.7 96.25 -15.45 96.35 -15.95 96.8 -16.6 97.15 -17.55 97.2 -18.2 96.55 Q-19.2 94.55 -18.0 92.75 L-17.85 92.25 -17.9 92.35 -17.95 92.4 Q-18.6 93.8 -20.45 93.6 L-21.25 93.65 -21.6 93.7 Q-22.15 93.75 -22.7 93.25 -23.9 92.3 -23.6 90.6 L-23.65 90.4 -23.65 90.45 -23.8 90.1 -24.05 90.05 Q-24.9 91.2 -26.5 90.55 L-28.2 90.2 -28.45 90.55 -28.5 90.6 -29.2 91.15 Q-29.95 91.65 -31.45 91.5 -32.0 91.45 -32.3 91.05 -32.65 90.65 -32.6 90.15 L-32.15 89.3 Q-31.75 88.95 -31.2 89.0 L-30.5 89.0 -30.25 88.85 -30.35 88.9 -30.1 88.5 -30.05 88.4 -30.0 87.45 -30.05 87.4 Q-30.15 87.25 -30.5 87.15 L-30.55 87.1 -31.45 86.8 -31.55 86.8 Q-32.55 86.45 -32.6 85.95 L-32.7 85.75 Q-33.1 84.3 -33.1 82.75 -33.1 82.25 -32.7 81.9 -32.35 81.5 -31.85 81.5 -31.35 81.5 -30.95 81.9 -30.6 82.25 -30.6 82.75 L-30.4 84.55 -29.7 84.8 -29.6 84.8 Q-27.6 85.5 -27.55 87.1 L-27.55 87.05 -27.5 87.75 -25.8 88.15 Q-25.45 87.75 -24.85 87.65 L-23.85 87.55 -23.65 87.15 Q-23.85 85.6 -23.05 84.85 -22.45 83.95 -20.85 84.0 L-20.8 84.0 -20.1 83.95 -19.7 83.15 Q-19.35 82.75 -18.85 82.75 -18.35 82.75 -17.95 83.15 -17.6 83.5 -17.6 84.0 L-17.65 84.45 Q-16.2 85.3 -16.45 87.45 L-16.0 87.7 Q-15.4 87.85 -14.85 88.25 -14.45 88.55 -14.35 89.05 -14.3 89.55 -14.55 90.0 L-15.4 90.5 -15.65 90.5 -15.35 91.7 Q-15.3 93.0 -15.7 93.85 L-14.35 93.75 Q-13.45 93.75 -13.1 94.25 L-13.0 94.35 -11.35 96.5 -11.1 97.25 -10.75 97.3 -10.65 97.3 -10.2 97.4 Q-9.65 96.35 -8.05 96.4 L-8.0 96.4 -7.8 96.45 -7.85 96.0 Q-8.15 94.55 -7.55 93.9 -7.05 92.95 -5.6 93.0 L-5.55 93.0 -4.45 93.25 -3.25 93.25 -1.85 92.85 -1.7 92.05 -1.6 91.7 -1.6 91.65 Q-1.35 90.35 0.1 90.3 M4.75 66.05 L4.8 66.1 4.75 66.05 M10.65 56.4 L10.7 56.4 10.75 56.35 10.65 56.4 M26.65 51.85 L26.4 51.8 26.55 51.8 26.65 51.85 M35.95 52.55 L36.05 52.6 35.3 52.35 35.15 52.3 34.35 51.95 34.4 51.95 33.1 51.6 33.05 51.6 32.55 51.75 32.7 52.15 32.7 52.25 32.9 53.95 Q33.55 54.35 33.55 55.15 L33.75 56.9 33.8 57.0 33.85 56.95 33.85 56.9 Q34.5 56.2 35.65 56.2 L35.9 56.2 36.05 56.2 36.85 56.35 36.9 56.35 37.25 56.4 37.25 52.55 Q36.7 52.9 35.95 52.55 M29.15 39.55 L29.75 39.55 Q30.05 39.1 30.55 39.05 L31.5 39.25 32.0 40.05 31.8 41.0 31.05 41.7 30.65 43.5 30.0 44.15 Q29.5 44.35 29.0 44.15 L28.35 43.5 28.25 43.15 27.6 43.2 26.95 42.85 26.75 42.8 27.05 43.85 27.05 43.95 Q27.15 45.4 26.45 46.1 L25.6 46.5 Q25.05 46.55 24.7 46.2 24.3 45.85 24.25 45.35 24.2 44.8 24.55 44.45 L24.55 44.1 24.5 43.85 24.3 43.85 24.15 43.85 23.55 43.9 23.5 43.9 Q23.05 43.95 22.85 44.35 L22.15 44.95 21.2 44.85 Q20.7 44.6 20.55 44.15 20.4 43.65 20.65 43.2 21.55 41.5 23.45 41.4 L23.5 41.4 23.75 41.4 23.9 41.35 24.1 40.75 Q23.95 40.05 24.2 39.55 24.55 38.05 26.75 38.55 27.25 38.65 27.55 39.1 L27.75 39.75 28.85 39.55 29.15 39.55 M0.5 11.3 L0.5 11.25 0.5 11.3 M0.65 10.8 L0.7 10.75 0.65 10.75 0.65 10.8 M10.8 4.75 L10.9 4.8 Q10.0 4.1 9.85 3.15 L8.4 2.05 8.5 2.05 8.4 2.0 8.4 2.05 8.35 2.95 8.35 3.0 Q8.25 3.55 8.75 3.85 L8.7 3.85 Q9.7 4.45 10.8 4.75 M23.25 20.05 L24.25 19.65 24.4 19.6 Q26.25 19.4 27.5 20.1 L27.45 20.1 28.25 20.25 31.5 20.25 31.75 20.25 32.0 20.25 Q32.5 20.25 32.9 20.65 33.25 21.0 33.25 21.5 L32.9 22.4 32.0 22.75 31.75 22.75 31.5 22.75 29.5 22.75 29.55 23.3 29.55 23.35 29.6 23.4 29.75 24.25 29.75 24.35 Q29.7 25.05 30.45 25.35 30.95 25.5 31.15 26.0 31.35 26.45 31.2 26.95 L30.55 27.65 29.55 27.7 Q27.15 26.75 27.25 24.3 L27.25 24.25 Q26.95 23.55 27.0 22.6 L26.35 22.35 26.35 22.3 25.35 22.1 24.7 23.35 24.05 23.75 23.3 23.7 Q22.05 23.25 21.7 21.85 L21.65 22.0 20.7 21.5 19.35 20.95 Q18.9 22.4 17.15 22.7 L17.3 23.65 17.9 23.4 17.95 23.3 18.0 23.3 Q18.25 22.85 18.75 22.8 20.1 22.5 20.55 23.4 21.05 23.85 20.8 25.05 L20.75 25.1 20.4 25.9 19.5 26.25 Q19.0 26.25 18.65 25.9 L18.6 25.85 16.55 26.15 Q16.8 27.65 16.0 28.25 15.4 29.1 13.75 28.75 L12.95 28.2 Q12.65 27.75 12.8 27.25 12.9 26.75 13.35 26.45 L14.0 26.25 Q13.75 25.0 14.3 24.4 14.45 24.05 14.8 23.85 L14.65 22.9 14.65 22.75 14.6 22.15 14.55 21.8 14.55 21.75 14.5 21.65 14.5 21.55 14.4 21.15 14.4 21.1 14.25 20.5 Q13.75 20.8 12.85 21.6 L12.25 21.85 11.6 21.75 Q10.15 21.15 8.55 21.05 L7.9 21.3 7.9 21.75 7.9 21.85 7.95 22.35 7.9 22.2 8.05 23.6 8.2 23.7 8.3 23.7 8.35 23.75 8.35 23.7 Q10.0 23.5 10.7 24.9 L10.9 25.4 10.85 26.35 10.1 27.0 9.15 26.95 Q8.7 26.7 8.55 26.25 L7.3 26.0 7.4 26.05 6.85 25.8 Q6.85 28.3 4.45 28.6 L3.95 28.7 1.6 29.15 1.35 29.6 0.8 29.95 Q0.9 30.55 1.35 31.05 L1.45 31.15 1.65 31.5 Q2.55 31.6 3.4 32.0 L4.3 32.7 5.95 34.7 6.35 35.0 6.45 35.1 6.85 35.35 7.1 35.1 7.15 35.0 Q8.8 33.65 10.95 34.0 L10.9 33.95 11.85 34.05 11.9 34.05 Q12.75 34.1 13.35 34.5 L14.8 33.65 14.8 33.35 14.8 33.3 Q14.75 32.2 15.2 31.35 L15.25 31.2 Q15.55 30.5 16.75 30.5 L18.5 30.5 Q19.0 30.5 19.4 30.9 19.75 31.25 19.75 31.75 L19.4 32.65 18.9 32.95 18.9 33.3 19.6 33.5 19.75 33.55 Q20.6 33.95 20.65 35.0 L20.65 34.9 20.75 37.0 20.4 37.9 19.5 38.25 Q19.0 38.25 18.65 37.9 18.25 37.5 18.25 37.0 L18.2 35.7 18.2 35.65 18.15 35.65 17.35 35.4 17.3 35.35 16.9 35.05 16.1 35.8 16.15 35.75 14.4 36.75 14.35 37.1 14.25 39.5 13.9 40.4 13.0 40.75 Q12.5 40.75 12.15 40.4 11.75 40.0 11.75 39.5 L11.85 36.9 11.85 36.55 11.7 36.55 11.65 36.55 10.65 36.45 10.55 36.45 Q9.6 36.3 8.9 36.8 8.5 38.5 6.4 38.3 L6.25 38.3 Q4.7 37.95 4.95 37.15 L3.9 36.15 2.45 34.35 2.4 34.3 2.35 34.25 1.45 34.0 1.0 34.4 1.0 34.5 0.65 35.4 Q0.25 35.75 -0.25 35.75 -0.75 35.75 -1.1 35.4 L-1.15 35.35 Q-2.2 34.75 -2.2 33.95 L-2.1 33.2 -1.6 32.65 -0.85 32.3 Q-1.4 31.55 -1.6 30.65 L-2.75 30.9 -2.8 30.9 -3.95 31.05 -4.0 31.25 -4.0 31.5 Q-4.0 32.0 -4.35 32.4 -4.75 32.75 -5.25 32.75 -5.75 32.75 -6.1 32.4 -6.5 32.0 -6.5 31.5 L-6.5 31.25 -6.25 30.1 -6.25 30.05 Q-5.7 28.65 -4.35 28.6 L-4.45 28.65 -3.2 28.45 -0.6 27.8 Q-0.35 27.25 0.1 27.0 L0.05 27.05 Q0.6 26.65 1.25 26.65 L1.3 26.65 3.0 26.35 3.2 26.3 4.1 26.15 4.1 26.1 4.3 25.65 4.3 25.55 Q4.2 23.8 5.7 23.05 L5.75 23.0 5.65 23.05 5.5 22.85 5.5 22.7 5.4 21.75 5.4 21.7 5.25 21.0 Q4.95 20.6 5.0 20.15 5.05 19.65 5.4 19.35 5.75 19.0 6.25 19.0 L6.55 19.0 6.45 18.8 Q5.35 18.3 4.9 17.3 4.65 16.85 4.85 16.35 5.0 15.85 5.45 15.65 L6.4 15.6 7.15 16.2 Q7.35 16.5 7.85 16.65 L8.45 17.0 8.75 17.65 9.05 18.4 9.1 18.45 9.2 18.55 9.25 18.6 11.85 19.2 Q12.5 18.65 12.9 18.4 L13.05 18.3 14.1 18.0 14.05 18.0 Q15.15 17.75 15.75 18.25 16.5 18.65 16.7 19.75 L16.7 19.8 16.75 20.1 17.0 19.7 17.0 19.5 17.2 18.9 17.65 18.4 18.3 18.25 Q20.2 18.3 21.95 19.35 L21.9 19.3 22.7 19.7 22.75 19.75 23.25 20.05 M32.55 11.75 L32.55 11.8 32.55 12.0 32.5 12.1 32.75 12.2 32.75 12.15 32.55 11.75 M4.6 -15.45 L4.65 -15.4 4.6 -15.45 M10.55 -25.1 L10.6 -25.15 10.5 -25.1 10.55 -25.1 M35.0 -29.2 L34.2 -29.55 34.25 -29.55 32.95 -29.9 32.9 -29.9 32.4 -29.75 32.55 -29.35 32.55 -29.25 32.75 -27.55 Q33.4 -27.15 33.4 -26.35 L33.6 -24.6 33.65 -24.5 33.7 -24.55 33.7 -24.6 Q34.35 -25.3 35.5 -25.3 L35.75 -25.3 35.9 -25.3 36.7 -25.15 36.75 -25.15 37.25 -25.05 37.25 -29.05 35.8 -28.95 35.9 -28.9 35.15 -29.15 35.0 -29.2 M39.4 -36.85 L39.75 -36.0 39.9 131.5 39.7 132.15 39.75 132.5 Q39.75 133.0 39.4 133.4 39.0 133.75 38.5 133.75 L-40.5 133.75 -41.35 133.4 Q-41.75 133.0 -41.75 132.5 L-41.55 131.85 -41.6 131.5 -41.65 97.25 -41.6 97.0 -41.7 23.8 -42.0 23.0 -41.7 22.2 -41.75 -36.0 Q-41.75 -36.5 -41.35 -36.85 -41.0 -37.25 -40.5 -37.25 L38.5 -37.25 Q39.0 -37.25 39.4 -36.85 M26.25 -26.95 L26.1 -26.75 26.05 -24.1 26.05 -24.05 Q26.15 -22.5 24.65 -21.9 L23.1 -21.25 Q22.9 -21.1 22.95 -20.65 23.35 -17.5 21.3 -16.6 L21.35 -16.25 22.5 -16.25 Q23.0 -16.25 23.4 -15.85 L23.75 -15.0 Q23.75 -14.5 23.4 -14.1 23.0 -13.75 22.5 -13.75 L21.25 -13.75 20.2 -13.9 20.1 -13.95 Q18.75 -14.5 18.8 -15.75 L18.8 -15.85 18.75 -16.7 18.65 -16.8 18.65 -16.85 16.75 -17.0 16.2 -16.9 16.25 -16.9 16.25 -16.8 16.25 -16.75 Q16.55 -15.4 16.0 -14.65 15.5 -13.7 14.1 -13.6 L12.35 -13.5 12.0 -12.7 13.15 -12.75 14.5 -12.65 14.65 -12.6 Q15.55 -12.35 15.7 -11.15 L15.75 -10.75 Q15.75 -10.25 15.4 -9.85 15.0 -9.5 14.5 -9.5 14.0 -9.5 13.65 -9.85 L13.35 -10.25 13.25 -10.25 12.15 -10.2 12.1 -10.2 Q10.7 -10.05 10.1 -10.8 9.3 -11.45 9.45 -12.85 L9.5 -13.0 9.75 -13.75 9.75 -13.8 10.0 -14.75 10.0 -14.8 10.05 -15.0 10.05 -15.15 7.95 -17.05 7.8 -17.15 7.25 -17.2 6.55 -17.2 6.55 -17.05 6.65 -16.9 6.7 -16.85 7.0 -15.75 6.75 -13.95 6.75 -14.0 Q6.55 -12.85 5.3 -12.85 L4.0 -12.75 3.75 -12.75 3.6 -12.75 2.1 -12.65 1.85 -12.55 Q1.6 -11.9 1.65 -11.1 L1.65 -11.05 Q1.75 -9.55 0.8 -8.9 L1.05 -8.6 1.8 -7.95 2.25 -7.35 2.25 -7.25 2.5 -7.1 5.2 -6.95 7.25 -7.0 Q9.15 -7.05 9.55 -5.1 L9.9 -4.45 10.0 -3.9 10.45 -4.05 10.4 -4.0 11.9 -4.2 12.15 -4.1 12.05 -4.35 Q11.85 -6.45 12.75 -7.55 13.15 -8.25 14.25 -8.25 15.8 -8.25 17.05 -7.6 L17.7 -6.9 Q17.85 -6.4 17.65 -5.95 L16.9 -5.3 15.95 -5.35 14.65 -5.7 14.55 -5.45 14.7 -5.35 Q15.6 -4.35 17.0 -4.0 17.6 -3.9 18.05 -3.3 19.0 -2.2 19.55 -0.8 L19.95 -0.15 Q20.1 0.35 19.85 0.8 L19.05 1.35 18.1 1.25 Q17.45 0.85 17.25 0.1 L17.25 0.15 16.2 -1.6 Q15.05 -1.9 14.1 -2.55 L13.9 -2.35 Q13.2 -1.5 11.65 -1.7 L11.6 -1.7 11.45 -1.7 11.45 -0.75 11.4 -0.55 10.65 0.65 11.65 1.4 11.8 1.55 Q12.15 1.8 12.3 2.5 L12.3 2.6 12.55 2.9 13.8 3.65 14.1 3.8 Q14.6 3.95 14.85 4.4 15.1 4.85 14.95 5.35 L14.35 6.1 13.4 6.2 Q12.85 6.05 12.35 5.7 L12.35 5.65 11.65 5.25 12.05 5.9 12.0 5.8 12.3 6.55 12.25 6.55 12.35 6.6 13.35 7.3 13.4 7.3 14.6 8.25 14.8 8.5 15.0 9.5 15.0 9.6 14.55 11.55 14.5 11.75 14.5 12.75 14.5 13.0 14.15 13.9 13.25 14.25 Q12.75 14.25 12.4 13.9 12.0 13.5 12.0 13.0 L12.0 12.75 12.0 11.75 12.25 10.55 12.5 9.7 12.1 9.45 12.05 9.4 11.0 8.7 Q10.25 8.3 9.95 7.35 L9.8 7.05 7.4 6.0 7.4 5.95 Q5.5 4.75 5.9 2.55 L5.9 2.6 5.9 2.2 5.25 2.25 5.2 2.25 Q4.95 2.25 4.8 2.4 L4.8 2.35 Q4.05 3.9 2.05 3.55 L2.0 3.55 1.15 3.2 1.1 3.15 0.95 3.05 -0.25 2.75 -0.3 2.75 -0.45 3.25 -0.75 3.85 -0.8 3.9 Q-1.25 4.8 -2.0 5.25 L-2.0 5.5 Q-2.0 6.0 -2.35 6.4 L-3.25 6.75 Q-4.55 6.75 -4.65 5.95 L-4.85 5.65 Q-5.35 5.2 -5.35 4.55 L-5.35 4.5 -5.35 4.55 -5.35 4.5 -5.9 3.95 -5.95 3.9 -6.1 3.75 -6.35 3.7 -6.8 3.8 -6.85 3.9 -8.1 4.55 -8.0 4.55 -10.15 4.65 Q-12.4 4.4 -12.7 2.2 -12.8 1.7 -12.5 1.3 -12.2 0.85 -11.7 0.8 L-10.75 1.0 Q-10.35 1.3 -10.25 1.8 L-9.85 2.15 -8.6 2.1 Q-7.7 1.05 -6.1 1.2 -5.35 1.3 -4.75 1.65 L-4.7 1.65 Q-4.2 2.0 -3.85 2.5 L-3.8 2.55 -3.7 2.6 -3.35 3.0 -3.0 2.7 -2.75 2.2 Q-2.7 0.85 -1.65 0.45 L0.25 0.3 1.9 0.75 2.0 0.8 2.5 1.1 2.55 1.1 2.6 1.15 Q3.35 -0.3 5.25 -0.25 L5.3 -0.25 5.5 -0.25 5.55 -0.3 5.6 -0.3 5.65 -0.35 Q6.75 -1.0 8.05 -0.75 L8.55 -0.95 9.0 -1.3 Q8.8 -2.2 9.0 -2.75 L8.25 -2.85 Q7.8 -3.05 7.6 -3.5 L7.5 -3.7 7.35 -3.95 7.2 -4.35 7.15 -4.5 5.35 -4.45 3.45 -4.45 Q3.15 -3.65 2.2 -3.3 L1.8 -2.75 Q1.35 -2.45 0.85 -2.5 0.35 -2.55 0.05 -2.95 -0.3 -3.4 -0.25 -3.9 -0.2 -4.8 0.6 -5.3 L0.0 -6.25 0.05 -6.2 0.0 -6.25 -0.4 -6.55 -0.45 -6.6 Q-1.4 -7.3 -1.65 -8.3 L-3.0 -8.3 -3.15 -7.85 -3.95 -7.3 -4.9 -7.4 -5.45 -8.2 Q-5.8 -9.5 -5.25 -10.05 -4.8 -11.0 -3.35 -10.85 L-1.6 -10.85 -1.5 -10.85 -1.1 -10.9 -0.85 -10.95 Q-0.9 -12.5 -0.4 -13.7 L-0.3 -13.9 0.55 -14.7 1.3 -15.0 1.35 -15.05 3.95 -15.25 4.0 -15.25 4.5 -15.25 4.5 -15.6 4.3 -16.0 4.25 -16.15 3.95 -17.35 4.0 -17.3 Q3.8 -18.45 4.4 -19.0 4.85 -19.7 6.0 -19.7 L7.25 -19.7 7.65 -19.7 Q6.95 -20.35 7.1 -21.65 L7.25 -22.7 7.15 -22.55 7.2 -22.65 7.25 -22.75 7.3 -23.5 7.75 -24.0 Q6.15 -24.1 6.5 -25.2 L6.25 -26.1 Q4.5 -27.35 4.9 -29.4 L4.9 -29.45 4.9 -30.0 4.6 -30.0 3.9 -30.15 1.95 -30.3 1.45 -30.45 1.2 -30.6 0.9 -30.5 0.85 -30.35 Q0.8 -29.15 -0.2 -28.7 L-0.25 -27.75 -0.25 -27.7 Q-0.35 -25.35 -2.35 -25.3 L-2.4 -25.3 -3.45 -25.25 -3.5 -25.25 Q-5.2 -25.2 -6.7 -25.85 L-6.75 -25.1 -6.75 -25.0 -6.75 -24.75 -6.1 -23.9 -6.15 -23.95 Q-5.7 -23.3 -5.75 -22.25 L-5.75 -22.15 Q-5.75 -21.65 -6.05 -21.1 L-4.95 -20.55 -4.9 -20.5 -3.75 -19.75 -3.0 -19.35 -2.85 -19.25 Q-2.1 -18.55 -2.0 -17.65 -1.95 -17.15 -2.25 -16.7 -2.6 -16.3 -3.1 -16.25 -3.6 -16.2 -4.0 -16.5 L-4.5 -17.3 -4.5 -17.35 -4.5 -17.3 -4.85 -17.5 -6.5 -18.6 -6.4 -18.5 -6.8 -18.7 Q-6.6 -18.05 -6.75 -17.25 -6.85 -16.75 -7.3 -16.45 L-8.25 -16.25 Q-8.75 -16.35 -9.05 -16.8 -9.35 -17.25 -9.2 -17.75 L-9.2 -17.95 -9.95 -18.85 -10.0 -19.0 Q-10.6 -20.15 -9.75 -20.7 L-9.65 -20.8 Q-8.8 -21.55 -8.25 -22.35 L-8.25 -22.4 -8.25 -22.6 -8.3 -22.65 -8.65 -23.1 -10.25 -23.0 -11.05 -22.75 Q-11.6 -22.8 -11.9 -23.15 L-12.25 -23.4 Q-13.95 -23.85 -14.95 -25.35 L-15.0 -25.35 -15.0 -25.4 -16.0 -25.65 Q-16.45 -25.2 -17.0 -25.0 -16.35 -24.45 -15.5 -24.05 L-15.5 -24.0 -14.6 -23.35 Q-14.25 -23.0 -14.25 -22.5 -14.25 -22.0 -14.6 -21.6 -15.0 -21.25 -15.5 -21.25 -16.0 -21.25 -16.35 -21.6 L-16.6 -21.75 -16.55 -21.75 Q-18.55 -22.65 -19.7 -24.3 L-19.75 -24.4 Q-20.45 -25.6 -19.85 -26.7 L-19.75 -26.9 -19.55 -27.2 -19.45 -27.3 -19.8 -28.6 Q-20.25 -29.05 -20.5 -29.65 L-21.65 -29.75 -21.75 -29.75 -22.75 -29.95 -22.65 -29.95 -22.8 -30.1 -22.9 -29.65 -22.9 -29.6 Q-23.0 -27.9 -24.5 -27.25 L-24.6 -27.1 Q-25.0 -26.75 -25.5 -26.75 L-26.8 -26.75 -27.15 -26.4 Q-25.65 -26.2 -24.9 -25.4 -24.5 -25.05 -24.5 -24.5 -24.5 -24.0 -24.85 -23.65 -25.2 -23.25 -25.7 -23.25 -26.25 -23.25 -26.6 -23.6 -27.25 -24.1 -28.95 -24.0 L-29.6 -24.15 -30.05 -24.6 -30.25 -25.25 -30.25 -27.0 Q-31.05 -27.35 -31.35 -28.25 L-32.75 -28.25 Q-33.25 -28.25 -33.6 -28.6 -34.0 -29.0 -34.0 -29.5 -34.0 -30.0 -33.6 -30.35 -33.25 -30.75 -32.75 -30.75 L-30.25 -30.75 -29.6 -30.55 -29.15 -30.1 -29.0 -29.45 -28.9 -29.25 -28.25 -29.0 -27.55 -29.25 -26.5 -29.25 -25.9 -29.5 Q-25.5 -29.55 -25.4 -29.85 L-25.4 -29.9 Q-25.25 -31.15 -24.75 -31.75 L-24.7 -31.8 Q-23.9 -33.15 -21.75 -32.25 L-21.7 -32.25 -20.0 -32.1 Q-19.4 -33.0 -17.85 -33.1 L-17.8 -33.1 Q-16.2 -33.2 -14.95 -32.55 L-15.0 -32.55 Q-14.25 -32.2 -14.1 -31.6 L-14.15 -31.7 Q-14.0 -31.45 -13.65 -31.5 -13.15 -31.55 -12.7 -31.2 -12.3 -30.9 -12.25 -30.4 -12.2 -29.9 -12.5 -29.45 -12.85 -29.05 -13.35 -29.0 -15.45 -28.75 -16.35 -30.45 L-17.65 -30.6 -17.7 -30.6 -17.85 -30.65 -17.95 -30.4 Q-17.1 -30.2 -17.3 -28.85 L-17.15 -28.35 -17.0 -28.15 -16.05 -28.15 -14.1 -27.75 -14.1 -27.7 Q-13.45 -27.55 -12.9 -26.75 -12.45 -26.05 -11.6 -25.8 L-11.35 -25.7 -10.55 -25.65 -9.25 -25.55 Q-9.25 -27.05 -8.3 -28.15 L-8.2 -28.25 Q-7.65 -29.1 -6.5 -28.5 L-5.9 -28.2 Q-4.8 -27.7 -3.55 -27.75 L-3.5 -27.75 -2.75 -27.75 -2.75 -27.8 -2.65 -29.4 -2.6 -29.5 Q-2.5 -30.2 -1.9 -30.65 L-1.85 -30.7 -1.6 -30.85 -1.4 -31.45 -1.4 -31.5 Q-0.85 -33.05 0.95 -33.15 L1.05 -33.15 1.5 -33.2 1.5 -33.25 2.3 -33.2 2.4 -33.6 3.05 -34.75 -39.25 -34.75 -39.25 -24.8 Q-37.85 -24.8 -37.6 -23.3 L-37.55 -23.25 -37.5 -23.15 -37.45 -23.1 -37.4 -23.05 -37.15 -22.8 -36.45 -22.05 -35.75 -22.35 -35.5 -22.4 -34.9 -22.5 Q-33.45 -22.65 -32.65 -21.9 -32.0 -21.45 -31.8 -20.4 L-31.35 -20.1 Q-31.0 -19.75 -31.0 -19.25 L-31.0 -18.35 Q-29.8 -17.6 -28.4 -17.5 L-28.35 -17.5 Q-26.7 -17.35 -25.9 -15.85 -25.65 -15.4 -25.8 -14.9 -25.95 -14.4 -26.4 -14.15 L-27.35 -14.05 -28.1 -14.65 -28.6 -15.0 Q-30.55 -15.15 -32.2 -16.15 L-32.7 -16.05 -32.6 -15.4 -32.6 -15.35 -32.5 -12.75 Q-32.5 -12.25 -32.85 -11.85 -33.25 -11.5 -33.75 -11.5 L-34.4 -11.65 -34.6 -11.35 Q-35.0 -11.0 -35.5 -11.0 -36.0 -11.0 -36.35 -11.35 L-36.75 -12.15 -36.75 -12.25 Q-37.05 -13.6 -36.45 -14.1 -36.05 -14.8 -35.05 -14.8 L-35.1 -15.15 -35.05 -15.05 -35.2 -15.85 Q-35.7 -17.95 -34.15 -18.3 L-34.05 -18.35 -33.5 -18.45 -33.5 -18.6 -33.8 -18.8 Q-34.2 -19.15 -34.25 -19.65 L-34.3 -20.0 -34.6 -20.0 -34.75 -20.0 -34.85 -20.0 -35.5 -19.7 -35.55 -19.7 -36.25 -19.45 -36.3 -19.45 Q-37.75 -19.25 -38.25 -20.0 -38.35 -19.3 -39.1 -18.9 L-39.25 -18.85 -39.25 20.85 -38.2 20.6 Q-37.4 20.55 -36.35 21.25 L-35.9 21.55 -35.8 21.6 Q-34.95 22.05 -34.65 23.0 L-34.5 23.05 Q-35.1 22.15 -34.85 21.05 L-34.85 21.0 -34.75 20.5 -34.8 20.75 -34.75 20.5 -34.75 20.45 Q-36.0 20.45 -36.55 19.3 -36.95 18.4 -36.05 17.85 L-35.5 17.8 -35.5 17.75 Q-33.55 17.25 -32.4 18.65 L-32.25 18.8 -32.05 18.6 -32.2 18.65 -31.8 17.6 -31.7 17.4 -31.45 16.9 -31.4 16.85 -31.05 16.0 -31.25 15.95 -31.2 15.95 -32.65 15.45 -33.75 15.3 -33.8 15.3 Q-35.75 15.6 -36.3 14.45 L-36.25 14.5 Q-36.85 13.7 -36.95 12.7 -37.05 12.15 -36.75 11.75 -36.45 11.35 -35.9 11.3 -35.4 11.2 -35.0 11.5 -34.6 11.8 -34.5 12.35 L-34.25 13.05 -34.2 13.05 -34.2 12.85 Q-32.7 12.55 -31.45 13.25 L-30.8 13.5 -30.75 13.5 Q-28.8 13.9 -28.1 15.25 -27.05 15.5 -26.3 16.45 L-26.25 16.45 Q-25.75 17.1 -25.6 17.65 L-25.55 17.85 -25.45 18.15 -25.45 18.2 -24.85 19.65 Q-22.3 20.05 -21.0 22.4 L-20.35 22.9 -18.95 23.1 -18.75 23.15 -18.05 23.55 -17.9 23.7 -16.75 24.0 -16.75 24.05 -16.35 23.5 -16.35 23.55 Q-16.1 22.9 -16.0 21.75 L-15.6 20.95 Q-15.3 20.65 -14.8 20.6 L-12.9 20.55 -11.7 19.35 -11.65 19.3 -10.65 18.8 -10.55 18.8 -10.65 18.65 -10.6 18.7 -10.65 18.5 -11.15 18.3 -11.1 18.3 -12.6 18.0 -13.2 17.7 -13.5 17.7 -13.6 18.1 Q-13.65 19.1 -14.5 19.5 L-15.75 19.75 -18.25 19.75 -18.5 19.75 Q-19.0 19.75 -19.35 19.4 L-19.75 18.5 Q-19.75 18.0 -19.35 17.65 -19.0 17.25 -18.5 17.25 L-18.25 17.25 -16.0 17.25 Q-15.8 16.25 -15.15 15.8 L-14.4 15.35 -14.85 14.75 -15.6 14.85 -16.1 15.3 -16.75 15.65 -17.7 15.7 -18.35 15.05 Q-19.35 13.05 -18.15 11.25 L-18.0 10.75 -18.05 10.85 -18.1 10.9 Q-18.75 12.3 -20.6 12.1 L-21.4 12.15 -21.75 12.2 Q-22.3 12.25 -22.85 11.75 -24.05 10.8 -23.75 9.1 L-23.8 8.9 -23.8 8.95 -23.95 8.6 -24.2 8.55 Q-25.05 9.7 -26.65 9.05 L-28.35 8.7 -28.6 9.05 -28.65 9.1 -29.35 9.65 -31.6 10.0 -32.45 9.55 Q-32.8 9.15 -32.75 8.65 -32.7 8.1 -32.3 7.8 -31.9 7.45 -31.35 7.5 L-30.65 7.5 -30.4 7.35 -30.5 7.4 -30.25 7.0 -30.2 6.9 -30.15 5.95 -30.2 5.9 -30.65 5.65 -30.7 5.6 -31.6 5.3 -31.7 5.3 Q-32.7 4.95 -32.75 4.45 L-32.85 4.25 Q-33.25 2.8 -33.25 1.25 -33.25 0.75 -32.85 0.4 -32.5 0.0 -32.0 0.0 -31.5 0.0 -31.1 0.4 -30.75 0.75 -30.75 1.25 L-30.55 3.05 -29.85 3.3 -29.75 3.3 Q-27.75 4.0 -27.7 5.6 L-27.7 5.55 -27.65 6.25 -25.95 6.65 Q-25.6 6.25 -25.0 6.15 L-24.0 6.05 -23.8 5.65 Q-24.0 4.1 -23.2 3.35 -22.6 2.45 -21.0 2.5 L-20.95 2.5 -20.25 2.45 -19.85 1.65 Q-19.5 1.25 -19.0 1.25 -18.5 1.25 -18.1 1.65 -17.75 2.0 -17.75 2.5 L-17.8 2.95 Q-16.35 3.8 -16.6 5.95 L-16.15 6.2 -15.0 6.75 Q-14.6 7.05 -14.5 7.55 -14.45 8.05 -14.7 8.5 L-15.55 9.0 -15.8 9.0 -15.5 10.2 Q-15.45 11.5 -15.85 12.35 L-14.5 12.25 Q-13.6 12.25 -13.25 12.75 L-13.15 12.85 -11.5 15.0 -11.25 15.75 -10.9 15.8 -10.8 15.8 -10.35 15.9 Q-9.8 14.85 -8.2 14.9 L-8.15 14.9 -7.95 14.95 -8.0 14.5 Q-8.3 13.05 -7.7 12.4 -7.2 11.45 -5.75 11.5 L-5.7 11.5 -4.6 11.75 -3.4 11.75 -2.0 11.35 -1.85 10.55 -1.75 10.2 -1.75 10.15 Q-1.5 8.85 -0.05 8.8 L0.0 8.8 1.75 8.75 Q2.25 8.75 2.65 9.15 3.0 9.5 3.0 10.0 L2.65 10.9 1.75 11.25 0.55 11.3 0.4 12.05 Q0.4 12.95 -0.4 13.3 -1.6 14.05 -3.1 14.25 L-5.5 14.1 -5.55 14.05 Q-5.3 15.65 -6.0 16.45 -6.6 17.4 -8.15 17.4 L-8.2 17.75 -8.15 18.05 -7.9 18.4 -7.75 19.1 Q-6.7 19.25 -6.4 20.2 L-6.25 20.85 -5.05 21.0 Q-4.3 20.6 -3.75 22.05 L-3.7 22.1 -3.65 22.2 -3.75 22.1 Q-3.05 23.15 -3.0 24.45 -3.0 24.95 -3.3 25.35 -3.65 25.7 -4.15 25.75 L-5.05 25.45 -5.5 24.6 Q-5.55 23.95 -5.85 23.45 L-5.85 23.4 -7.65 23.25 -7.55 23.55 Q-7.35 24.85 -8.25 25.45 L-8.6 26.15 Q-9.0 26.5 -9.5 26.5 -10.0 26.5 -10.35 26.15 L-10.75 25.25 -10.6 24.6 -10.65 24.65 Q-10.45 23.95 -10.05 23.65 -10.3 22.0 -9.45 21.3 L-9.65 21.1 -10.4 21.5 -10.45 21.5 -10.5 21.55 -10.5 21.75 Q-10.5 22.25 -10.85 22.65 -11.25 23.0 -11.75 23.0 L-13.65 23.05 -14.05 24.5 Q-14.5 25.55 -15.4 26.15 L-15.45 26.2 -16.75 26.5 Q-18.6 26.5 -19.55 25.55 L-19.6 25.5 -20.25 25.45 Q-20.45 26.3 -19.95 27.1 -19.7 27.45 -19.75 27.85 L-20.05 28.6 Q-20.75 29.55 -22.65 29.3 L-22.6 29.3 Q-23.65 29.2 -24.1 28.65 -24.5 28.25 -24.5 27.75 -24.5 27.25 -24.1 26.9 -23.75 26.5 -23.25 26.5 L-22.75 26.6 Q-22.95 25.5 -22.55 24.4 L-23.0 23.95 -23.05 23.8 Q-23.85 22.25 -25.55 22.05 L-25.65 22.05 Q-26.55 22.05 -27.1 20.75 L-27.1 20.7 -27.7 19.25 -28.0 18.3 -28.2 18.1 -28.2 18.05 Q-28.55 17.65 -29.0 17.6 L-29.4 18.35 -29.35 18.3 -29.45 18.45 -29.5 18.7 -29.4 18.9 Q-29.2 19.25 -29.35 19.6 -30.2 21.8 -32.25 21.55 L-32.4 21.6 -32.2 21.85 -32.15 21.95 Q-31.3 22.8 -31.55 23.65 -31.6 24.4 -32.55 25.05 -33.35 25.55 -34.35 25.65 L-34.4 25.65 -34.5 25.65 -34.55 25.65 -34.85 25.65 Q-34.8 27.4 -36.45 28.0 L-36.5 28.05 -38.8 28.35 -38.9 28.35 -39.25 28.3 -39.2 56.7 Q-37.75 56.65 -37.45 58.2 L-37.4 58.25 -37.35 58.35 -37.3 58.4 -37.25 58.45 -37.0 58.7 -36.3 59.45 -35.6 59.15 -35.35 59.1 -34.75 59.0 Q-33.3 58.85 -32.5 59.6 -31.85 60.05 -31.65 61.1 -31.45 61.15 -31.2 61.4 -30.85 61.75 -30.85 62.25 L-30.85 63.15 Q-29.65 63.9 -28.25 64.0 L-28.2 64.0 Q-26.55 64.15 -25.75 65.65 -25.5 66.1 -25.65 66.6 -25.8 67.1 -26.25 67.35 L-27.2 67.45 -27.95 66.85 Q-28.1 66.55 -28.45 66.5 -30.4 66.35 -32.05 65.35 L-32.55 65.45 -32.45 66.1 -32.45 66.15 -32.35 68.75 Q-32.35 69.25 -32.7 69.65 L-33.6 70.0 -34.25 69.85 -34.45 70.15 Q-34.85 70.5 -35.35 70.5 -35.85 70.5 -36.2 70.15 L-36.6 69.35 -36.6 69.25 Q-36.9 67.9 -36.3 67.4 -35.9 66.7 -34.9 66.7 L-34.95 66.35 -34.9 66.45 -35.05 65.65 Q-35.55 63.55 -34.0 63.2 L-33.9 63.15 -33.35 63.05 -33.35 62.9 -33.65 62.7 Q-34.05 62.35 -34.1 61.85 L-34.15 61.5 -34.45 61.5 -34.6 61.5 -34.7 61.5 -35.35 61.8 -35.4 61.8 -36.1 62.05 -36.15 62.05 Q-37.6 62.25 -38.1 61.5 -38.2 62.2 -38.95 62.6 L-39.2 62.7 -39.2 96.8 -39.15 97.2 -39.1 102.35 -38.05 102.1 Q-37.25 102.05 -36.2 102.75 L-35.75 103.05 -35.65 103.1 Q-34.8 103.55 -34.5 104.5 L-34.35 104.55 Q-34.95 103.65 -34.7 102.55 L-34.7 102.5 -34.65 102.1 Q-36.3 101.9 -36.45 100.2 -36.5 99.45 -35.8 99.1 L-35.65 99.1 -35.25 99.05 -35.25 99.0 Q-32.6 99.45 -31.15 101.4 -30.95 101.75 -31.2 102.05 L-32.0 102.65 -31.6 102.6 -31.5 102.55 -31.1 102.5 Q-31.55 102.9 -32.25 103.1 L-32.05 103.35 -32.0 103.45 Q-31.15 104.3 -31.4 105.15 -31.45 105.9 -32.4 106.55 -33.2 107.05 -34.2 107.15 L-34.25 107.15 -34.35 107.15 -34.4 107.15 -34.7 107.15 Q-34.65 108.9 -36.3 109.5 L-36.35 109.55 -38.65 109.85 -38.75 109.85 -39.1 109.8 -39.1 131.25 37.4 131.25 37.4 116.5 34.25 116.45 Q33.25 116.4 32.85 115.1 L32.85 115.2 Q32.65 114.7 32.2 114.6 L32.15 114.6 31.3 114.55 31.15 115.0 31.15 115.05 30.85 116.1 30.2 116.8 Q29.05 117.9 26.9 117.5 26.4 117.4 26.1 116.95 25.8 116.5 25.95 116.0 26.0 115.5 26.45 115.2 L27.4 115.05 28.4 115.0 28.4 114.95 28.2 114.55 27.15 113.85 Q26.2 113.75 25.85 113.1 25.55 112.75 25.55 112.25 25.4 112.3 25.25 112.45 L24.35 112.75 Q23.85 112.75 23.5 112.35 23.15 111.95 23.15 111.45 23.15 110.95 23.55 110.6 24.6 109.6 26.15 109.65 L26.2 109.65 Q27.35 109.65 27.75 110.35 28.2 110.75 28.15 111.55 L28.6 111.8 28.65 111.85 29.4 112.35 29.3 112.35 29.8 112.55 29.9 112.5 Q30.8 111.75 32.65 112.15 34.3 112.4 35.1 114.05 L37.25 114.0 37.3 92.65 Q37.05 92.45 36.65 92.35 L36.65 92.4 36.55 92.5 36.4 92.6 Q34.9 93.7 34.0 94.95 33.75 95.7 32.55 95.75 31.4 95.85 30.85 95.15 L30.8 95.7 30.8 95.65 Q30.7 97.3 28.85 98.0 L28.9 97.95 28.55 98.15 28.45 98.2 28.1 98.35 27.85 98.45 27.75 98.5 27.5 98.55 27.4 98.95 Q27.1 99.85 26.05 100.0 25.55 100.05 25.15 99.75 24.7 99.4 24.65 98.9 24.6 98.45 24.9 98.05 24.75 97.4 24.95 97.05 L25.05 96.75 23.4 96.75 Q22.9 96.75 22.55 96.4 22.15 96.0 22.15 95.5 22.15 95.0 22.55 94.65 22.9 94.25 23.4 94.25 L24.2 94.25 24.15 94.2 23.4 93.25 23.4 93.3 23.0 93.0 Q22.5 92.95 22.2 92.55 21.85 92.1 21.9 91.6 21.95 91.1 22.4 90.8 22.8 90.45 23.3 90.5 24.85 90.65 25.6 92.15 L25.65 92.15 25.7 92.25 Q26.75 93.1 26.75 94.35 27.75 94.55 28.25 95.45 L28.3 95.35 28.35 95.3 28.45 94.15 28.45 94.1 28.6 93.35 28.3 93.15 Q27.9 92.75 27.9 92.25 27.9 91.75 28.3 91.4 29.25 90.35 30.65 90.95 L30.65 91.0 30.75 91.0 Q31.85 91.05 32.3 91.75 L32.7 92.6 34.6 90.85 34.9 90.35 Q35.3 89.65 36.25 89.75 L36.3 89.75 37.3 89.9 37.25 73.4 35.75 73.6 35.65 73.6 34.65 73.6 34.6 74.0 34.55 74.1 Q34.1 75.7 32.65 76.45 L32.6 76.5 32.0 76.8 31.7 77.75 31.65 77.75 31.55 78.1 31.75 78.5 31.75 78.55 Q33.05 80.65 31.85 82.8 L31.9 82.65 Q31.55 83.5 30.7 83.7 L30.05 84.9 Q29.65 85.25 29.15 85.25 28.65 85.25 28.3 84.9 27.9 84.5 27.9 84.0 27.9 83.55 28.25 83.2 28.45 81.75 29.8 81.35 30.1 80.55 29.65 79.85 L29.65 79.9 29.1 78.7 Q28.8 78.0 29.05 77.45 L28.65 77.45 28.6 77.45 28.1 77.4 27.9 78.8 27.6 79.35 27.35 79.65 26.7 80.15 25.75 80.1 Q25.3 79.85 25.15 79.35 24.95 78.85 25.2 78.4 L25.55 77.85 25.55 77.2 25.55 77.15 Q25.3 74.95 26.65 74.5 L26.6 74.1 26.4 74.05 25.85 73.75 24.15 73.75 Q23.65 73.75 23.3 73.4 22.9 73.0 22.9 72.5 22.9 72.0 23.3 71.65 23.65 71.25 24.15 71.25 L25.9 71.25 26.9 71.5 27.5 71.8 27.9 72.0 28.05 72.05 Q29.15 72.8 29.05 73.7 L29.05 73.75 Q29.1 74.4 29.45 74.8 L29.6 74.9 30.55 74.7 30.75 74.6 30.8 74.6 31.45 74.25 31.5 74.25 32.15 73.5 32.25 73.0 32.3 72.8 32.4 72.5 32.45 72.35 Q32.75 70.95 34.5 71.1 L35.55 71.1 37.25 70.85 37.25 60.7 36.7 60.3 36.5 60.05 Q36.15 59.55 36.15 58.75 L35.75 58.7 35.65 58.7 35.6 58.7 34.65 59.25 34.8 59.25 Q33.35 59.75 32.1 58.8 31.5 58.35 31.4 57.75 L31.4 57.7 31.1 55.8 30.95 55.75 30.85 55.7 30.65 55.6 30.35 55.3 30.3 55.5 30.3 55.55 29.85 55.5 Q29.95 56.25 29.3 57.15 28.9 57.7 28.25 57.3 26.9 56.45 26.85 55.45 L26.45 55.1 25.95 58.1 Q25.8 58.9 25.0 59.25 L23.0 60.05 Q23.4 62.55 22.2 64.45 22.05 64.65 21.75 64.65 L21.45 64.7 21.5 65.25 22.65 65.25 Q23.15 65.25 23.55 65.65 23.9 66.0 23.9 66.5 L23.55 67.4 Q23.15 67.75 22.65 67.75 L21.4 67.75 20.35 67.6 20.25 67.55 Q18.9 67.0 18.95 65.75 L18.95 65.65 18.9 64.8 18.8 64.7 18.8 64.65 16.9 64.5 16.35 64.6 16.4 64.6 16.4 64.7 16.4 64.75 Q16.7 66.1 16.15 66.85 15.65 67.8 14.25 67.9 L12.5 68.0 12.15 68.8 13.3 68.75 14.65 68.85 14.8 68.9 Q15.7 69.15 15.85 70.35 L15.9 70.75 15.55 71.65 14.65 72.0 Q14.15 72.0 13.8 71.65 L13.5 71.25 13.4 71.25 12.3 71.3 12.25 71.3 Q10.85 71.45 10.25 70.7 9.45 70.05 9.6 68.65 L9.65 68.5 Q9.7 68.1 9.9 67.75 L9.9 67.7 10.15 66.75 10.15 66.7 10.2 66.5 10.2 66.35 8.1 64.45 7.95 64.35 7.4 64.3 6.7 64.3 6.7 64.45 6.8 64.6 6.85 64.65 Q7.15 65.05 7.15 65.75 L6.9 67.55 6.9 67.5 Q6.7 68.65 5.45 68.65 L4.15 68.75 3.9 68.75 3.75 68.75 2.25 68.85 2.0 68.95 Q1.75 69.6 1.8 70.4 L1.8 70.45 Q1.9 71.95 0.95 72.6 L1.2 72.9 1.95 73.55 2.4 74.15 2.4 74.25 2.45 74.3 8.0 74.5 Q9.45 74.6 9.5 75.95 L10.25 76.45 11.05 77.2 11.6 77.1 11.9 76.9 Q12.35 75.85 12.4 74.7 12.5 73.45 13.85 73.3 L14.25 73.25 Q17.15 72.65 17.8 75.1 17.9 75.45 17.6 75.75 L15.35 75.8 14.8 75.85 14.8 76.25 Q17.7 76.15 18.75 78.45 L19.8 81.6 Q20.0 82.8 18.75 82.8 17.7 82.75 17.15 81.8 L16.0 79.5 14.6 78.75 Q14.1 79.1 13.45 79.1 12.4 80.35 11.75 79.75 L11.05 81.35 Q11.5 82.8 12.75 83.6 14.65 84.75 15.35 86.5 L15.25 86.75 11.85 86.65 11.5 86.05 11.15 85.9 Q9.8 85.2 9.25 83.8 L8.7 83.7 8.55 83.7 8.5 84.45 8.5 84.5 Q8.4 85.05 8.9 85.35 L8.85 85.35 Q9.85 85.95 10.95 86.25 11.85 86.45 12.2 87.4 L12.15 87.3 12.45 88.05 12.4 88.05 12.5 88.1 13.5 88.8 13.55 88.8 14.75 89.75 14.95 90.0 15.15 91.0 15.15 91.1 Q15.1 92.15 14.7 93.05 L14.65 93.25 14.65 94.25 14.65 94.5 Q14.65 95.0 14.3 95.4 13.9 95.75 13.4 95.75 12.9 95.75 12.55 95.4 12.15 95.0 12.15 94.5 L12.15 94.25 12.15 93.25 12.4 92.05 12.65 91.2 12.25 90.95 12.2 90.9 11.15 90.2 Q10.4 89.8 10.1 88.85 L9.95 88.55 7.55 87.5 7.55 87.45 Q5.65 86.25 6.05 84.05 L6.05 84.1 6.05 83.7 5.4 83.75 5.35 83.75 Q5.1 83.75 4.95 83.9 L4.95 83.85 Q4.2 85.4 2.2 85.05 L2.15 85.05 1.3 84.7 1.25 84.65 1.05 84.55 -0.1 84.25 -0.15 84.25 -0.3 84.75 -0.6 85.35 -0.65 85.4 Q-1.1 86.3 -1.85 86.75 L-1.85 87.0 Q-1.85 87.5 -2.2 87.9 -2.6 88.25 -3.1 88.25 -4.4 88.25 -4.5 87.45 L-4.7 87.15 Q-5.2 86.7 -5.2 86.05 L-5.2 86.0 -5.2 86.05 -5.2 86.0 -5.75 85.45 -5.8 85.4 -5.95 85.25 -6.2 85.2 -6.65 85.3 -6.7 85.4 Q-7.3 85.95 -7.95 86.05 L-7.85 86.05 -10.0 86.15 Q-12.25 85.9 -12.55 83.7 -12.65 83.2 -12.35 82.8 -12.05 82.35 -11.55 82.3 -11.05 82.2 -10.6 82.5 -10.2 82.8 -10.1 83.3 L-9.7 83.65 -8.45 83.6 Q-7.55 82.55 -5.95 82.7 -5.2 82.8 -4.6 83.15 L-4.55 83.15 Q-4.05 83.5 -3.7 84.0 L-3.65 84.05 -3.55 84.1 -3.2 84.5 -2.85 84.2 -2.6 83.7 Q-2.55 82.35 -1.5 81.95 L0.4 81.8 2.05 82.25 2.15 82.3 2.65 82.6 2.7 82.6 2.75 82.65 Q3.5 81.2 5.4 81.25 L5.45 81.25 5.65 81.25 5.7 81.2 5.75 81.2 6.5 81.05 6.55 80.75 6.7 80.55 Q7.5 79.5 8.9 79.45 L9.25 79.25 9.2 79.1 8.7 78.65 8.5 78.5 7.95 78.3 Q7.25 77.95 7.0 77.25 L7.0 77.05 6.95 76.95 2.5 76.85 Q2.6 77.9 1.7 78.15 -0.05 78.65 -0.15 76.9 -0.15 76.0 0.2 75.35 L0.15 75.25 0.2 75.3 0.15 75.25 -0.25 74.95 -0.3 74.9 Q-1.25 74.2 -1.5 73.2 L-2.85 73.2 -3.0 73.65 Q-3.3 74.1 -3.8 74.2 L-4.75 74.1 Q-5.2 73.8 -5.3 73.3 -5.65 72.0 -5.1 71.45 -4.65 70.5 -3.2 70.65 L-1.45 70.65 -1.35 70.65 -0.95 70.6 -0.7 70.55 Q-0.75 69.0 -0.25 67.8 L-0.15 67.6 0.7 66.8 1.45 66.5 1.5 66.45 4.1 66.25 4.15 66.25 4.65 66.25 4.65 65.9 4.45 65.5 4.4 65.35 4.1 64.15 4.15 64.2 Q3.95 63.05 4.55 62.5 5.0 61.8 6.15 61.8 L7.4 61.8 8.2 61.85 Q6.65 61.2 6.9 59.15 L7.05 58.25 7.8 57.5 Q6.3 57.4 6.65 56.3 L6.4 55.4 Q4.65 54.15 5.05 52.1 L5.05 52.05 5.05 51.5 4.75 51.5 Q4.2 51.5 3.85 51.2 L3.7 51.05 3.65 51.05 2.85 51.0 2.75 51.0 1.8 50.9 1.75 50.9 1.05 51.0 1.0 51.15 Q0.95 52.35 -0.05 52.8 L-0.1 53.75 -0.1 53.8 Q-0.2 56.15 -2.2 56.2 L-2.25 56.2 -3.3 56.25 -3.35 56.25 Q-5.05 56.3 -6.55 55.65 L-6.6 56.4 -6.6 56.5 -6.6 56.75 -5.95 57.6 -6.0 57.55 Q-5.55 58.2 -5.6 59.25 L-5.6 59.35 Q-5.6 59.85 -5.9 60.4 -5.35 60.55 -4.8 60.95 L-4.75 61.0 -3.6 61.75 -2.85 62.15 -2.7 62.25 Q-1.95 62.95 -1.85 63.85 -1.8 64.35 -2.1 64.8 L-2.95 65.25 -3.85 65.0 Q-4.3 64.65 -4.35 64.2 L-4.35 64.15 -4.35 64.2 -4.7 64.0 -6.35 62.9 -6.25 63.0 -6.65 62.8 Q-6.45 63.45 -6.6 64.25 -6.7 64.75 -7.15 65.05 L-8.1 65.25 Q-8.6 65.15 -8.9 64.7 L-9.05 63.75 -9.05 63.55 -9.8 62.65 -9.85 62.5 Q-10.45 61.35 -9.6 60.8 L-9.5 60.7 -8.1 59.15 -8.1 59.1 -8.1 58.9 -8.15 58.85 -8.5 58.4 -10.1 58.5 -10.9 58.75 -11.75 58.35 Q-11.9 58.15 -12.1 58.1 -13.8 57.65 -14.8 56.15 L-14.85 56.15 -14.85 56.1 -15.85 55.85 -16.85 56.5 Q-16.2 57.05 -15.35 57.45 L-15.35 57.5 Q-14.85 57.7 -14.45 58.15 -14.1 58.5 -14.1 59.0 -14.1 59.5 -14.45 59.9 -14.85 60.25 -15.35 60.25 -15.85 60.25 -16.2 59.9 L-16.45 59.75 -16.4 59.75 Q-18.4 58.85 -19.55 57.2 L-19.6 57.1 Q-20.3 55.9 -19.7 54.8 L-19.6 54.65 -19.6 54.6 -19.4 54.3 -19.3 54.2 -19.65 52.9 -20.35 51.85 -21.5 51.75 -21.6 51.75 -22.6 51.55 -22.5 51.55 -22.65 51.4 -22.75 51.85 -22.75 51.9 Q-22.85 53.6 -24.35 54.25 L-24.45 54.4 Q-24.85 54.75 -25.35 54.75 L-26.65 54.75 -27.0 55.1 Q-25.5 55.3 -24.75 56.1 -24.35 56.45 -24.35 57.0 -24.35 57.5 -24.7 57.85 -25.05 58.25 -25.55 58.25 L-26.45 57.9 Q-27.1 57.4 -28.8 57.5 L-29.45 57.35 -29.9 56.9 -30.1 56.25 -30.1 54.5 Q-30.9 54.15 -31.2 53.25 L-32.6 53.25 Q-33.1 53.25 -33.45 52.9 -33.85 52.5 -33.85 52.0 -33.85 51.5 -33.45 51.15 -33.1 50.75 -32.6 50.75 L-30.1 50.75 -29.45 50.95 Q-29.15 51.1 -29.0 51.4 L-28.85 52.05 -28.75 52.25 Q-28.4 52.3 -28.1 52.5 L-27.4 52.25 -26.35 52.25 Q-26.1 52.05 -25.75 52.0 L-25.25 51.65 -25.25 51.6 Q-25.1 50.35 -24.6 49.75 L-24.55 49.7 Q-23.75 48.35 -21.6 49.25 L-21.55 49.25 -19.85 49.4 Q-19.25 48.5 -17.7 48.4 L-17.65 48.4 Q-16.05 48.3 -14.8 48.95 L-14.85 48.95 Q-14.1 49.3 -13.95 49.9 L-14.0 49.8 -13.5 50.0 -12.55 50.3 Q-12.15 50.6 -12.1 51.1 -12.05 51.6 -12.35 52.05 -12.7 52.45 -13.2 52.5 -15.3 52.75 -16.2 51.05 L-17.5 50.9 -17.55 50.9 -17.7 50.85 -17.8 51.1 Q-16.95 51.3 -17.15 52.65 L-17.0 53.15 -16.85 53.35 -15.9 53.35 -13.95 53.75 -13.95 53.8 Q-13.3 53.95 -12.75 54.75 -12.3 55.45 -11.45 55.7 L-11.2 55.8 -10.4 55.85 -9.1 55.95 Q-9.1 54.45 -8.15 53.35 L-8.05 53.25 Q-7.5 52.4 -6.35 53.0 L-5.75 53.3 Q-4.65 53.8 -3.4 53.75 L-3.35 53.75 -2.6 53.75 -2.6 53.7 -2.5 52.1 -2.45 52.0 Q-2.35 51.3 -1.75 50.85 L-1.7 50.8 -1.45 50.65 -1.25 50.05 -1.25 50.0 Q-0.55 48.05 2.05 48.4 L2.45 48.45 2.4 48.15 Q2.25 47.0 3.1 46.65 L4.4 46.5 5.15 46.45 5.15 46.4 5.25 46.25 5.25 46.2 5.25 46.15 Q5.25 45.9 5.4 45.7 L5.45 45.6 Q5.6 45.1 6.05 44.9 L7.0 44.85 7.75 45.45 Q7.95 45.9 7.8 46.4 L7.75 46.55 7.7 46.8 7.65 46.95 7.1 48.0 7.05 48.0 6.25 48.7 8.35 49.0 8.3 48.95 9.15 49.0 Q9.65 49.0 10.05 49.4 10.4 49.75 10.4 50.25 L10.05 51.15 9.15 51.5 8.05 51.45 7.95 51.45 7.55 51.4 7.5 52.45 Q7.4 53.1 8.05 53.5 L8.1 53.5 Q8.9 54.05 8.85 54.7 L8.8 54.75 8.85 54.75 9.0 54.6 9.05 54.5 Q9.5 54.05 10.15 54.0 L10.1 53.6 Q10.0 51.8 11.65 51.2 L11.7 51.2 12.15 51.0 13.15 50.75 13.25 50.75 Q15.1 50.8 15.45 52.5 L16.75 52.1 Q17.0 51.9 17.35 51.9 L18.0 52.1 19.0 53.1 20.3 53.6 Q20.8 53.75 21.05 54.2 21.25 54.65 21.1 55.15 L20.45 55.9 19.65 56.0 19.65 56.75 19.65 57.0 19.3 57.9 Q18.9 58.25 18.4 58.25 17.9 58.25 17.55 57.9 17.15 57.5 17.15 57.0 L17.15 56.75 17.2 54.8 17.15 54.7 17.1 54.65 16.9 54.75 17.15 55.5 16.8 56.4 15.9 56.75 Q15.4 56.75 15.05 56.4 L14.8 56.15 14.35 55.85 Q12.9 55.3 13.0 53.65 L13.05 53.35 12.6 53.5 12.55 54.75 12.55 54.8 Q12.6 55.7 11.7 56.25 L11.6 56.3 11.4 56.4 10.95 56.5 Q12.35 57.1 10.9 58.5 L10.2 59.0 10.1 59.1 10.05 59.15 10.0 59.2 9.95 59.2 Q10.65 59.9 11.35 61.15 L11.55 61.8 11.55 62.65 Q11.5 63.4 11.1 63.75 L12.15 64.75 12.2 64.8 Q12.5 65.0 12.6 65.5 L13.95 65.4 13.95 65.3 Q13.35 62.95 15.55 62.25 L16.9 62.0 19.3 62.25 19.35 62.25 Q19.8 62.3 20.2 62.6 L20.45 62.35 20.8 58.85 Q20.9 58.15 21.55 57.75 L23.75 56.75 23.75 55.05 Q23.75 52.9 25.75 52.3 L25.75 52.25 Q26.95 51.95 27.95 52.55 L28.0 52.55 28.05 52.6 28.25 52.75 30.3 52.85 30.15 52.5 Q29.85 51.95 30.0 51.25 L30.05 51.05 30.45 50.3 30.5 50.25 Q31.55 48.95 33.25 49.1 L33.3 49.1 35.45 49.7 36.1 50.0 36.4 49.75 36.45 49.7 37.25 49.3 37.25 35.0 34.1 34.95 Q33.1 34.9 32.7 33.6 L32.7 33.7 32.05 33.1 32.0 33.1 31.15 33.05 31.0 33.5 31.0 33.55 30.7 34.6 30.05 35.3 Q28.9 36.4 26.75 36.0 26.25 35.9 25.95 35.45 25.65 35.0 25.8 34.5 25.85 34.0 26.3 33.7 L27.25 33.55 28.25 33.5 28.25 33.45 28.05 33.05 27.0 32.35 Q26.05 32.25 25.7 31.6 25.4 31.25 25.4 30.75 L25.1 30.95 24.2 31.25 Q23.7 31.25 23.35 30.85 23.0 30.45 23.0 29.95 23.0 29.45 23.4 29.1 24.45 28.1 26.0 28.15 L26.05 28.15 Q27.2 28.15 27.6 28.85 28.05 29.25 28.0 30.05 L28.45 30.3 28.5 30.35 29.25 30.85 29.15 30.85 29.65 31.05 29.75 31.0 Q30.65 30.25 32.5 30.65 34.15 30.9 34.95 32.55 L37.25 32.45 37.25 11.25 37.15 11.15 36.5 10.85 36.5 10.9 36.4 11.0 36.25 11.1 Q34.75 12.2 33.85 13.45 33.6 14.2 32.4 14.25 31.25 14.35 30.7 13.65 L30.65 14.2 30.65 14.15 Q30.55 15.8 28.7 16.5 L28.75 16.45 Q28.55 16.5 28.4 16.65 L28.3 16.7 27.95 16.85 27.7 16.95 27.6 17.0 27.35 17.05 27.25 17.45 Q26.95 18.35 25.9 18.5 25.4 18.55 25.0 18.25 24.55 17.9 24.5 17.4 24.45 16.95 24.75 16.55 24.6 15.9 24.8 15.55 L24.9 15.25 23.25 15.25 Q22.75 15.25 22.4 14.9 22.0 14.5 22.0 14.0 22.0 13.5 22.4 13.15 22.75 12.75 23.25 12.75 L24.05 12.75 24.0 12.7 23.25 11.75 23.25 11.8 22.85 11.5 Q22.35 11.45 22.05 11.05 21.7 10.6 21.75 10.1 21.8 9.6 22.25 9.3 22.65 8.95 23.15 9.0 24.7 9.15 25.45 10.65 L25.5 10.65 25.55 10.75 Q26.6 11.6 26.6 12.85 27.6 13.05 28.1 13.95 L28.15 13.85 28.2 13.8 28.3 12.65 28.3 12.6 28.45 11.85 28.15 11.65 Q27.75 11.25 27.75 10.75 27.75 10.25 28.15 9.9 29.1 8.85 30.5 9.45 L30.5 9.5 30.6 9.5 Q31.7 9.55 32.15 10.25 32.45 10.55 32.55 11.1 L34.45 9.35 34.75 8.85 Q35.15 8.15 36.1 8.25 L36.15 8.25 37.25 8.45 37.25 -8.1 35.6 -7.9 35.5 -7.9 34.5 -7.9 34.45 -7.5 34.4 -7.4 Q33.95 -5.8 32.5 -5.05 L32.45 -5.0 31.45 -4.55 31.25 -4.5 31.25 -4.3 31.7 -3.35 31.75 -2.65 Q33.45 0.6 30.25 2.1 29.95 4.55 28.0 2.95 L27.65 2.3 Q27.3 -0.2 29.75 -0.65 29.25 -1.2 29.25 -1.95 L29.2 -2.5 Q28.8 -3.25 28.7 -4.05 L28.5 -4.05 28.45 -4.05 27.95 -4.1 27.75 -2.7 27.45 -2.15 27.2 -1.85 26.55 -1.35 25.6 -1.4 Q25.15 -1.65 25.0 -2.15 24.8 -2.65 25.05 -3.1 L25.4 -3.65 25.4 -4.3 25.4 -4.35 Q25.15 -6.55 26.5 -7.0 L26.45 -7.4 26.25 -7.45 25.7 -7.75 24.0 -7.75 Q23.5 -7.75 23.15 -8.1 22.75 -8.5 22.75 -9.0 22.75 -9.5 23.15 -9.85 23.5 -10.25 24.0 -10.25 L25.75 -10.25 26.75 -10.0 27.35 -9.7 27.75 -9.5 27.9 -9.45 Q29.0 -8.7 28.9 -7.8 L28.9 -7.75 Q28.95 -7.1 29.3 -6.7 L29.45 -6.6 30.4 -6.8 30.5 -6.85 31.3 -7.25 31.35 -7.25 32.0 -8.0 32.1 -8.5 32.15 -8.7 32.25 -9.0 32.3 -9.15 Q32.6 -10.55 34.35 -10.4 L35.4 -10.4 37.25 -10.65 37.25 -20.8 Q36.75 -20.9 36.55 -21.2 L36.35 -21.45 Q36.0 -21.95 36.0 -22.75 L35.6 -22.8 35.5 -22.8 35.45 -22.8 Q35.05 -22.35 34.5 -22.25 L34.65 -22.25 Q33.2 -21.75 31.95 -22.7 31.35 -23.15 31.25 -23.75 L31.25 -23.8 30.95 -25.7 30.9 -25.7 30.65 -25.8 30.15 -25.95 Q30.0 -25.15 29.25 -24.75 28.1 -24.2 27.35 -25.05 L27.35 -25.0 Q26.5 -25.8 26.25 -26.95 M26.55 -27.35 L26.6 -27.4 26.55 -27.35 M26.4 -27.2 L26.5 -27.35 26.3 -27.3 26.4 -27.2 26.5 -27.3 26.4 -27.2 M26.2 -27.2 L26.05 -27.2 26.25 -27.0 26.2 -27.2 M30.3 -31.2 L30.35 -31.25 Q31.4 -32.55 33.1 -32.4 L33.15 -32.4 35.3 -31.8 Q35.55 -31.7 35.95 -31.5 L36.25 -31.75 36.3 -31.8 Q36.65 -32.15 37.25 -32.2 L37.25 -34.75 7.55 -34.75 7.55 -34.7 7.55 -34.75 7.3 -34.75 7.15 -34.55 6.5 -33.55 5.5 -32.5 8.45 -32.3 Q10.1 -32.1 9.55 -30.7 9.25 -30.05 8.5 -30.05 L7.4 -30.05 7.35 -29.05 Q7.25 -28.4 7.9 -28.0 L7.95 -28.0 Q8.75 -27.45 8.7 -26.8 L8.65 -26.75 8.7 -26.75 8.85 -26.9 8.9 -27.0 Q9.35 -27.45 10.0 -27.5 L9.95 -27.9 Q9.85 -29.7 11.5 -30.3 L11.55 -30.3 12.0 -30.5 13.0 -30.75 13.1 -30.75 Q14.95 -30.7 15.3 -29.0 L16.6 -29.4 Q16.85 -29.6 17.2 -29.6 L17.85 -29.4 18.85 -28.4 18.9 -28.4 20.15 -27.9 Q20.65 -27.75 20.9 -27.3 L20.95 -26.35 20.3 -25.6 19.5 -25.5 19.5 -24.75 19.5 -24.5 Q19.5 -24.0 19.15 -23.6 18.75 -23.25 18.25 -23.25 17.75 -23.25 17.4 -23.6 17.0 -24.0 17.0 -24.5 L17.0 -24.75 17.05 -26.7 17.0 -26.8 16.95 -26.85 16.75 -26.75 17.0 -26.0 Q17.0 -25.5 16.65 -25.1 16.25 -24.75 15.75 -24.75 15.25 -24.75 14.9 -25.1 L14.65 -25.35 14.2 -25.65 Q12.75 -26.2 12.85 -27.85 L12.9 -28.15 12.45 -28.0 12.4 -26.75 12.4 -26.7 Q12.45 -25.8 11.55 -25.25 L11.45 -25.2 11.25 -25.1 10.45 -25.0 10.4 -25.0 Q11.6 -24.75 11.1 -23.25 10.85 -22.5 9.95 -22.4 L9.9 -22.4 9.9 -22.35 9.95 -22.4 9.85 -22.3 9.8 -22.3 9.75 -22.2 9.75 -22.0 9.75 -21.8 Q12.5 -20.0 10.9 -17.75 L12.0 -16.75 12.05 -16.7 12.45 -16.0 13.8 -16.1 13.8 -16.2 Q13.2 -18.55 15.4 -19.25 L16.75 -19.5 19.15 -19.25 19.2 -19.25 20.05 -18.9 Q20.6 -19.3 20.45 -20.35 L20.5 -20.3 Q20.15 -22.7 22.05 -23.5 L22.0 -23.5 23.55 -24.2 23.6 -27.05 23.65 -27.25 24.05 -28.2 24.0 -28.15 24.4 -28.75 24.6 -28.9 25.1 -29.4 25.15 -29.45 26.4 -29.7 Q27.3 -29.65 27.8 -28.95 L27.85 -28.95 28.5 -28.3 29.5 -28.5 30.2 -28.45 30.2 -28.55 30.15 -28.6 30.0 -29.0 Q29.7 -29.55 29.85 -30.25 L29.9 -30.45 30.3 -31.2 M-33.85 21.1 L-34.45 20.45 -34.5 20.45 -33.85 21.1 M-33.2 43.1 L-33.15 43.0 -33.2 43.1 M-30.1 27.1 L-29.5 27.15 Q-27.65 27.15 -27.45 28.8 L-27.45 28.9 -27.25 31.4 -27.25 31.5 -27.25 31.6 -27.25 31.75 -27.2 32.05 -27.0 32.7 -24.45 33.1 Q-23.8 33.35 -23.45 33.8 -22.8 34.55 -22.4 35.4 L-21.4 35.45 -21.35 35.3 -21.35 35.2 Q-20.9 33.5 -19.65 33.55 L-19.55 33.55 -17.75 33.5 Q-17.25 33.5 -16.85 33.9 -16.5 34.25 -16.5 34.75 -16.5 35.25 -16.85 35.65 -17.25 36.0 -17.75 36.0 L-18.95 36.05 -19.2 36.85 -19.25 37.0 Q-19.7 37.85 -20.75 37.9 L-23.0 37.85 -24.1 38.15 -24.05 38.95 -23.95 38.8 -23.7 38.5 Q-23.45 38.1 -22.75 38.0 L-22.6 37.95 Q-20.4 37.75 -19.1 39.05 L-19.1 39.0 -18.4 39.7 -18.05 40.15 Q-17.4 39.75 -17.0 39.15 L-16.75 37.5 Q-17.1 36.55 -15.5 36.25 L-15.4 36.25 Q-12.75 35.85 -10.9 37.7 L-10.85 37.55 -10.85 37.5 -10.75 36.95 Q-10.95 35.55 -10.25 34.85 -9.7 34.0 -8.3 33.9 L-8.25 33.9 Q-7.05 33.9 -6.45 34.8 -6.2 35.2 -6.25 35.7 L-6.75 36.55 -7.7 36.75 -8.25 36.5 -8.25 36.6 -8.25 36.65 -8.25 37.3 Q-6.65 37.6 -5.8 38.9 -5.4 39.4 -5.55 40.25 L-5.55 40.2 Q-5.75 41.45 -4.85 42.4 L-4.45 42.75 Q-3.75 43.3 -2.85 43.65 L-2.75 43.65 -2.25 43.85 Q-1.8 44.05 -1.6 44.5 -1.4 45.0 -1.6 45.5 L-2.25 46.15 Q-2.75 46.35 -3.2 46.15 L-3.65 46.0 -3.7 45.95 -4.0 45.85 -4.0 45.9 -4.0 46.0 -4.0 46.5 Q-4.0 47.0 -4.35 47.4 -4.75 47.75 -5.25 47.75 -5.75 47.75 -6.1 47.4 -6.5 47.0 -6.5 46.5 L-6.5 46.15 -6.5 45.0 -7.55 45.4 -7.8 45.55 Q-8.25 45.85 -8.75 45.75 -9.25 45.65 -9.55 45.2 L-9.7 44.25 Q-9.65 43.75 -9.2 43.45 L-8.9 43.25 -8.7 43.15 -7.65 42.75 Q-8.2 41.55 -8.05 40.15 -8.35 39.9 -8.7 39.8 -9.0 40.8 -10.0 41.15 L-10.85 41.15 -11.6 40.65 -12.15 40.05 -12.15 40.1 -12.75 39.4 -12.65 39.45 Q-13.45 38.7 -14.45 38.65 L-14.5 39.25 -14.7 40.25 -14.75 40.35 Q-15.7 42.05 -17.7 42.75 L-17.8 43.55 -17.8 43.6 -17.75 43.8 -17.05 44.25 -17.0 44.35 -15.8 44.85 Q-15.3 45.0 -15.1 45.5 -14.9 45.95 -15.05 46.45 -15.25 46.95 -15.75 47.15 L-16.7 47.2 -17.95 46.65 -18.75 46.15 Q-20.4 45.55 -20.3 43.45 L-20.15 41.85 -20.1 41.6 -20.15 41.45 -20.75 40.9 -20.8 40.85 Q-21.25 40.45 -22.0 40.45 L-22.1 40.7 -22.55 41.2 -23.15 41.4 -25.85 41.4 -27.25 41.6 -28.2 43.5 -28.9 44.35 -28.85 44.5 -28.85 44.6 -28.85 44.65 Q-28.55 45.85 -29.05 46.5 -29.5 47.4 -30.9 47.45 L-30.95 47.45 -31.9 47.55 Q-31.7 47.85 -31.75 48.25 -31.8 48.75 -32.15 49.1 -32.55 49.45 -33.05 49.4 -34.3 49.3 -34.6 48.5 -35.05 47.9 -34.6 46.85 L-34.6 46.8 Q-34.5 45.85 -33.8 45.5 -33.55 45.25 -33.0 45.15 L-32.9 45.1 -31.3 45.0 -31.35 44.85 Q-31.6 44.05 -31.25 43.3 L-31.15 43.1 -30.65 42.6 -30.5 42.4 -30.45 42.4 -29.9 41.25 -30.85 40.35 -30.9 40.35 -30.8 40.35 -32.1 40.2 -32.5 40.25 -32.7 42.2 -32.7 42.15 -33.0 43.0 -33.05 43.15 -33.7 43.9 -34.25 44.05 Q-35.0 44.1 -35.25 43.7 -35.75 43.35 -35.6 42.55 L-35.15 41.7 -35.0 40.0 -34.75 39.0 Q-34.4 38.2 -33.6 38.0 L-32.4 37.7 -32.35 37.7 Q-30.8 37.5 -29.65 38.15 L-29.6 38.2 Q-29.15 38.45 -28.85 38.85 L-28.65 39.05 -28.1 39.1 -28.0 39.1 -26.6 39.0 -26.6 38.4 Q-26.8 36.5 -25.7 35.95 L-25.15 35.7 -25.3 35.5 -25.35 35.45 -25.45 35.45 -25.5 35.4 -27.1 35.2 -27.05 35.2 Q-28.8 35.55 -29.3 33.65 L-29.25 33.75 -29.55 32.85 -29.6 32.85 -29.65 32.85 Q-29.7 33.45 -30.1 33.8 -30.6 34.5 -31.85 34.4 L-32.35 34.45 -33.25 34.5 -34.1 34.15 Q-34.5 33.75 -34.5 33.25 -34.5 32.75 -34.1 32.4 -33.75 32.0 -33.25 32.0 L-32.65 31.95 -32.2 31.9 Q-32.25 30.8 -31.45 30.75 L-31.3 30.7 -29.85 30.35 -29.9 29.65 -30.4 29.6 -30.45 29.6 -31.5 29.5 Q-32.0 29.5 -32.35 29.15 -32.75 28.75 -32.75 28.25 -32.75 27.75 -32.35 27.4 -32.0 27.0 -31.5 27.0 L-30.05 27.15 -30.1 27.1 M-20.8 22.7 L-20.85 22.6 -20.85 22.65 -20.8 22.7 M-32.4 47.5 L-32.35 47.45 -32.35 47.4 -32.4 47.5 M-32.2 129.1 L-32.2 129.05 -32.3 129.1 -32.25 129.0 -32.2 128.95 -32.2 128.9 -32.25 129.0 -32.35 129.1 -32.45 129.1 -32.2 129.1 M-33.05 124.6 L-33.0 124.5 -33.05 124.6 M-28.8 125.65 L-28.8 125.6 -28.8 125.7 -28.8 125.65 M-22.45 119.45 L-21.85 119.45 -22.85 119.35 -23.95 119.65 -23.9 120.45 -23.8 120.3 -23.55 120.0 Q-23.3 119.6 -22.6 119.5 L-22.45 119.45 M-37.6 104.85 Q-37.8 104.7 -37.95 104.65 -38.4 105.15 -39.1 105.45 L-39.1 107.3 -38.45 107.35 -37.3 107.2 Q-37.2 107.05 -37.25 106.75 -37.5 105.65 -36.85 105.3 L-36.9 105.25 -37.6 104.85 M-20.65 104.2 L-20.7 104.1 -20.7 104.15 -20.65 104.2 M-7.75 121.8 L-7.7 121.8 -7.75 121.8 M-19.5 115.05 L-19.4 115.05 -17.6 115.0 Q-17.1 115.0 -16.7 115.4 -16.35 115.75 -16.35 116.25 -16.35 116.75 -16.7 117.15 -17.1 117.5 -17.6 117.5 L-18.8 117.55 -19.05 118.35 -19.1 118.5 Q-19.55 119.35 -20.6 119.4 L-21.6 119.45 Q-20.0 119.5 -18.95 120.55 L-18.95 120.5 -18.25 121.2 -17.9 121.65 -16.85 120.65 -16.6 119.0 Q-16.95 118.05 -15.35 117.75 L-15.25 117.75 Q-12.6 117.35 -10.75 119.2 L-10.7 119.05 -10.7 119.0 -10.6 118.45 Q-10.8 117.05 -10.1 116.35 -9.55 115.5 -8.15 115.4 L-8.1 115.4 Q-6.9 115.4 -6.3 116.3 -6.05 116.7 -6.1 117.2 -6.2 117.7 -6.6 118.05 L-7.55 118.25 -8.1 118.0 -8.1 118.1 -8.1 118.15 -8.1 118.8 Q-6.5 119.1 -5.65 120.4 -5.25 120.9 -5.4 121.75 L-5.4 121.7 Q-5.6 122.95 -4.7 123.9 L-4.3 124.25 Q-3.6 124.8 -2.7 125.15 L-2.6 125.15 -2.1 125.35 Q-1.65 125.55 -1.45 126.0 -1.25 126.5 -1.45 127.0 L-2.1 127.65 Q-2.6 127.85 -3.05 127.65 L-3.5 127.5 -3.55 127.45 -3.85 127.35 -3.85 127.4 -3.85 127.5 -3.85 128.0 Q-3.85 128.5 -4.2 128.9 -4.6 129.25 -5.1 129.25 L-5.95 128.9 -6.35 128.0 -6.35 127.65 -6.35 126.5 -7.4 126.9 -7.65 127.05 -8.6 127.25 -9.4 126.7 -9.55 125.75 -9.05 124.95 -8.75 124.75 -8.55 124.65 -7.5 124.25 Q-8.05 123.05 -7.9 121.65 L-8.55 121.3 Q-8.85 122.3 -9.85 122.65 L-10.7 122.65 -11.45 122.15 -12.0 121.55 -12.0 121.6 -12.6 120.9 -12.5 120.95 Q-13.3 120.2 -14.3 120.15 L-14.35 120.75 -14.55 121.75 -14.6 121.85 Q-15.55 123.55 -17.55 124.25 L-17.65 125.05 -17.65 125.1 -17.6 125.3 Q-17.15 125.4 -16.9 125.75 L-16.85 125.85 -15.65 126.35 Q-15.15 126.5 -14.95 127.0 -14.75 127.45 -14.9 127.95 -15.1 128.45 -15.6 128.65 L-16.55 128.7 Q-17.2 128.4 -17.8 128.15 L-18.6 127.65 Q-20.25 127.05 -20.15 124.95 L-20.0 123.35 -19.95 123.1 -20.0 122.95 -20.6 122.4 -20.65 122.35 Q-21.1 121.95 -21.85 121.95 L-21.95 122.2 -22.4 122.7 -23.0 122.9 -25.7 122.9 -27.1 123.1 -28.05 125.0 -28.75 125.85 -28.7 126.0 -28.7 126.1 -28.7 126.15 Q-28.4 127.35 -28.9 128.0 -29.35 128.9 -30.75 128.95 L-30.8 128.95 -31.75 129.05 -31.6 129.75 Q-31.65 130.25 -32.0 130.6 -32.4 130.95 -32.9 130.9 -34.15 130.8 -34.45 130.0 -34.9 129.4 -34.45 128.35 L-34.45 128.3 Q-34.35 127.35 -33.65 127.0 -33.4 126.75 -32.85 126.65 L-32.75 126.6 -31.15 126.5 -31.2 126.35 Q-31.45 125.55 -31.1 124.8 L-31.0 124.6 -30.5 124.1 -30.35 123.9 -30.3 123.9 -29.75 122.75 -30.7 121.85 -30.75 121.85 -30.65 121.85 -31.95 121.7 -32.35 121.75 -32.55 123.7 -32.55 123.65 -32.85 124.5 -32.9 124.65 -33.55 125.4 -34.1 125.55 Q-34.85 125.6 -35.1 125.2 -35.6 124.85 -35.45 124.05 -35.5 123.8 -35.0 123.2 -34.85 122.35 -34.85 121.5 L-34.6 120.5 Q-34.25 119.7 -33.45 119.5 L-32.25 119.2 -32.2 119.2 Q-30.65 119.0 -29.5 119.65 L-29.45 119.7 -28.7 120.35 -28.5 120.55 -27.9 120.6 -27.85 120.6 -26.45 120.5 -26.45 119.9 Q-26.65 118.0 -25.55 117.45 -25.25 117.25 -25.0 117.2 L-25.15 117.0 -25.2 116.95 -25.3 116.95 -25.35 116.9 -26.95 116.7 -26.9 116.7 Q-28.65 117.05 -29.15 115.15 L-29.1 115.25 -29.4 114.35 -29.45 114.35 -29.5 114.35 Q-29.55 114.95 -29.95 115.3 -30.45 116.0 -31.7 115.9 L-32.2 115.95 -33.1 116.0 -33.95 115.65 Q-34.35 115.25 -34.35 114.75 -34.35 114.25 -33.95 113.9 -33.6 113.5 -33.1 113.5 L-32.5 113.45 -32.05 113.4 Q-32.1 112.3 -31.3 112.25 L-31.15 112.2 -29.7 111.85 -29.75 111.15 -30.25 111.1 -30.3 111.1 -31.35 111.0 Q-31.85 111.0 -32.2 110.65 -32.6 110.25 -32.6 109.75 -32.6 109.25 -32.2 108.9 -31.85 108.5 -31.35 108.5 L-29.9 108.65 -29.95 108.6 -29.35 108.65 Q-27.5 108.65 -27.3 110.3 L-27.3 110.4 -27.1 112.9 -27.1 113.0 -27.1 113.05 -27.1 113.25 -27.05 113.55 -26.85 114.2 -24.3 114.6 Q-23.65 114.85 -23.3 115.3 L-22.25 116.9 -21.25 116.95 -21.2 116.8 -21.2 116.7 Q-20.75 115.0 -19.5 115.05 M-20.85 86.5 L-21.2 86.5 -21.15 86.85 Q-21.05 87.75 -21.4 88.3 L-21.65 88.75 -21.25 89.7 Q-21.05 90.3 -21.15 90.95 L-21.15 91.1 -20.25 91.1 -20.2 91.1 -20.15 91.2 Q-19.45 89.8 -18.0 89.65 L-18.05 89.7 -17.75 89.65 Q-18.3 89.25 -18.65 88.65 L-18.75 88.5 -18.95 87.5 -18.9 87.3 Q-18.8 86.65 -19.35 86.5 L-19.6 86.4 -20.85 86.5 M-24.1 79.15 L-24.2 79.1 -24.15 79.15 -24.1 79.15 M-14.3 65.7 Q-13.95 65.3 -13.4 65.25 -12.9 65.2 -12.5 65.55 -12.15 65.9 -12.1 66.45 -12.05 66.95 -12.4 67.35 L-12.55 67.5 -12.2 67.95 -11.7 67.85 Q-11.25 67.55 -10.85 67.5 L-10.7 67.45 Q-9.0 67.35 -7.65 68.1 -6.85 68.2 -6.85 69.5 -6.85 70.0 -7.2 70.4 -7.6 70.75 -8.1 70.75 -8.6 70.75 -8.95 70.4 L-9.15 70.1 -10.35 69.95 -10.8 70.2 -12.3 70.5 Q-12.75 71.35 -13.85 71.85 L-13.7 71.8 -14.85 72.1 -14.7 72.4 -14.7 72.5 Q-14.5 73.25 -14.9 73.85 L-15.2 74.25 -14.9 74.45 Q-14.45 74.75 -14.35 75.25 -14.25 75.75 -14.55 76.2 -14.85 76.65 -15.35 76.75 L-16.3 76.55 Q-17.1 76.05 -18.1 76.1 L-18.45 76.85 -18.8 78.05 -19.15 78.8 -19.35 79.05 -20.0 79.5 -20.15 79.55 -23.8 79.4 -24.05 79.5 -24.1 79.55 -24.75 79.75 -24.85 79.8 -25.55 80.0 -26.5 79.85 Q-26.95 79.55 -27.05 79.05 -27.2 78.55 -26.9 78.1 L-26.15 77.55 -25.45 77.35 -25.35 77.35 -25.25 77.3 -25.2 77.3 -24.2 76.85 -24.1 76.85 -22.75 77.05 -22.7 77.1 -21.2 77.25 -21.1 77.05 -21.1 77.1 -20.85 75.75 -20.85 75.5 -20.9 75.45 -21.0 75.4 -21.7 74.5 -21.7 74.45 -21.8 74.45 -21.75 74.45 Q-22.8 74.1 -24.0 74.45 L-24.1 74.45 -24.35 74.55 -24.4 74.55 -26.4 74.4 -26.5 74.3 -27.3 73.65 Q-27.75 73.3 -27.8 72.8 -27.85 72.3 -27.5 71.9 -27.2 71.45 -26.7 71.4 -26.2 71.35 -25.75 71.7 L-25.15 72.15 -24.5 72.0 -24.6 72.0 -24.45 71.95 -24.35 71.75 Q-24.1 71.35 -24.0 70.6 L-24.0 70.35 -24.45 69.9 Q-24.85 69.5 -24.85 69.0 -24.85 68.5 -24.45 68.15 -24.1 67.75 -23.6 67.75 -23.1 67.75 -22.7 68.15 L-22.2 68.65 -22.15 68.7 Q-21.35 69.55 -21.5 70.9 L-21.5 70.95 -21.7 71.9 -20.95 72.1 -20.9 72.1 Q-20.25 72.35 -19.8 72.8 L-19.4 73.5 -19.1 73.7 -17.85 73.55 -17.7 73.4 -17.3 72.9 Q-17.85 71.85 -17.55 70.5 L-17.3 69.95 -16.8 69.6 -15.9 69.4 -15.6 69.45 -14.9 69.55 -14.85 69.55 -14.5 69.3 -14.5 69.25 Q-15.35 68.85 -15.35 67.95 -15.45 67.4 -15.0 66.6 L-14.95 66.5 -14.3 65.7 M-7.9 40.3 L-7.85 40.3 -7.9 40.3 M-28.95 44.15 L-28.95 44.1 -28.95 44.2 -28.95 44.15" fill="#000000" fill-rule="evenodd" stroke="none"/>
  </g>
</svg>
