<?xml version="1.0" encoding="UTF-8" standalone="no"?>
<svg xmlns:xlink="http://www.w3.org/1999/xlink" height="65.0px" width="71.0px" xmlns="http://www.w3.org/2000/svg">
  <g transform="matrix(1.0, 0.0, 0.0, 1.0, 35.5, 32.5)">
    <path d="M24.3 -22.35 Q34.5 -13.05 34.5 0.0 34.5 13.05 24.3 22.2 14.25 31.5 0.0 31.5 -14.25 31.5 -24.45 22.2 -34.5 13.05 -34.5 0.0 -34.5 -13.05 -24.45 -22.35 -14.25 -31.5 0.0 -31.5 14.25 -31.5 24.3 -22.35" fill="url(#gradient0)" fill-rule="evenodd" stroke="none"/>
    <path d="M24.3 -22.35 Q34.5 -13.05 34.5 0.0 34.5 13.05 24.3 22.2 14.25 31.5 0.0 31.5 -14.25 31.5 -24.45 22.2 -34.5 13.05 -34.5 0.0 -34.5 -13.05 -24.45 -22.35 -14.25 -31.5 0.0 -31.5 14.25 -31.5 24.3 -22.35 Z" fill="none" stroke="#000000" stroke-linecap="round" stroke-linejoin="round" stroke-width="2.0"/>
  </g>
  <defs>
    <radialGradient cx="0" cy="0" gradientTransform="matrix(0.0484, -0.0069, 0.0067, 0.0466, 0.0, -0.5)" gradientUnits="userSpaceOnUse" id="gradient0" r="819.2" spreadMethod="pad">
      <stop offset="0.0" stop-color="#f0c20f"/>
      <stop offset="0.5764705882352941" stop-color="#f48635"/>
      <stop offset="1.0" stop-color="#000000"/>
    </radialGradient>
  </defs>
</svg>
