<?xml version="1.0" encoding="UTF-8" standalone="no"?>
<svg xmlns:xlink="http://www.w3.org/1999/xlink" height="11.5px" width="17.4px" xmlns="http://www.w3.org/2000/svg">
  <g transform="matrix(1.0, 0.0, 0.0, 1.0, 6.7, 4.5)">
    <path d="M-2.25 1.25 Q-3.25 0.5 -3.25 -0.75" fill="none" stroke="#000000" stroke-linecap="round" stroke-linejoin="round" stroke-width="0.5"/>
    <path d="M4.0 -3.25 Q3.2 -3.2 2.9 -3.7 M6.75 -2.75 L6.75 -4.25 M6.0 -1.25 L6.5 -0.95 6.75 -0.75 M3.0 -2.25 Q4.0 -2.5 4.95 -3.3 M6.5 3.25 L7.2 3.45 7.85 3.7 8.8 4.2 M3.5 5.25 L4.25 5.45 M0.0 5.25 L0.0 6.75 M2.25 3.75 Q1.9 4.95 2.3 5.95 M3.25 3.0 Q4.9 2.35 6.35 1.35 M9.5 1.25 L10.45 0.65 M3.5 -0.5 Q3.35 0.1 3.75 0.5 M0.25 1.5 L0.25 -0.25 M-4.5 -2.25 L-5.3 -2.05 M-1.25 -3.0 Q-2.0 -2.85 -2.55 -3.2 M-3.75 4.5 L-4.25 4.8 -4.5 5.0 -2.5 5.0 M-5.25 1.25 L-6.45 1.8 M-4.75 3.25 L-5.2 3.35" fill="none" stroke="#000000" stroke-linecap="round" stroke-linejoin="round" stroke-width="0.5"/>
  </g>
</svg>
