<?xml version="1.0" encoding="UTF-8" standalone="no"?>
<svg xmlns:xlink="http://www.w3.org/1999/xlink" height="4.25px" width="6.9px" xmlns="http://www.w3.org/2000/svg">
  <g transform="matrix(1.0, 0.0, 0.0, 1.0, -6.0, 72.9)">
    <path d="M12.65 -72.65 Q11.3 -72.4 10.65 -70.95 12.95 -70.5 11.1 -70.1 L9.05 -69.8 Q7.7 -69.65 6.65 -68.9 5.6 -71.0 7.2 -72.1 8.15 -72.75 7.85 -72.0 L7.8 -71.1 Q9.25 -72.6 11.15 -72.65 L12.65 -72.65" fill="#8c6931" fill-rule="evenodd" stroke="none"/>
    <path d="M12.65 -72.65 Q11.3 -72.4 10.65 -70.95 12.95 -70.5 11.1 -70.1 L9.05 -69.8 Q7.7 -69.65 6.65 -68.9 5.6 -71.0 7.2 -72.1 8.15 -72.75 7.85 -72.0 L7.8 -71.1 Q9.25 -72.6 11.15 -72.65 L12.65 -72.65 Z" fill="none" stroke="#000000" stroke-linecap="round" stroke-linejoin="round" stroke-width="0.5"/>
  </g>
</svg>
