<?xml version="1.0" encoding="UTF-8" standalone="no"?>
<svg xmlns:xlink="http://www.w3.org/1999/xlink" height="6.0px" width="3.9px" xmlns="http://www.w3.org/2000/svg">
  <g transform="matrix(1.0, 0.0, 0.0, 1.0, 3.5, 83.3)">
    <path d="M-2.05 -79.05 Q-2.45 -80.6 -2.3 -83.05 -2.1 -81.35 -0.8 -80.45 -0.95 -81.8 -0.05 -82.8 0.35 -80.95 0.0 -78.75 -0.1 -78.15 -0.95 -77.55 -2.9 -77.7 -3.25 -79.55 L-2.05 -79.05" fill="#8c6931" fill-rule="evenodd" stroke="none"/>
    <path d="M-2.05 -79.05 Q-2.45 -80.6 -2.3 -83.05 -2.1 -81.35 -0.8 -80.45 -0.95 -81.8 -0.05 -82.8 0.35 -80.95 0.0 -78.75 -0.1 -78.15 -0.95 -77.55 -2.9 -77.7 -3.25 -79.55 L-2.05 -79.05 Z" fill="none" stroke="#000000" stroke-linecap="round" stroke-linejoin="round" stroke-width="0.5"/>
  </g>
</svg>
