<?xml version="1.0" encoding="UTF-8" standalone="no"?>
<svg xmlns:xlink="http://www.w3.org/1999/xlink" height="20.25px" width="27.85px" xmlns="http://www.w3.org/2000/svg">
  <g transform="matrix(1.0, 0.0, 0.0, 1.0, 13.3, 20.75)">
    <path d="M-4.75 -2.0 Q-4.35 -1.9 -4.45 -1.25" fill="none" stroke="#000000" stroke-linecap="round" stroke-linejoin="round" stroke-width="0.5"/>
    <path d="M10.5 -20.25 Q12.25 -18.5 14.3 -17.3 M5.5 -19.0 Q5.65 -19.5 6.25 -19.75 L6.75 -20.0 M2.0 -15.5 Q0.95 -15.7 0.5 -14.75 M6.5 -1.75 Q7.25 -1.6 8.05 -1.05 M1.75 -2.0 L1.75 -1.75 M5.25 -1.75 L5.25 -0.75 M6.25 -4.0 L8.75 -4.0 M5.0 -8.75 L5.85 -8.05 M2.25 -8.0 L2.25 -7.75 2.25 -7.5 M5.0 -12.0 Q4.8 -13.05 5.45 -13.8 M-2.5 -19.5 Q-2.4 -19.9 -1.75 -19.8 L-1.0 -19.75 M-7.25 -18.0 L-8.95 -20.5 M-3.5 -14.5 L-3.5 -13.5 M-11.75 -18.0 Q-12.45 -18.0 -13.05 -18.45 M-4.25 -10.0 Q-4.8 -10.2 -4.95 -10.75 M-9.0 -6.0 Q-7.95 -6.0 -7.4 -5.3 M-9.0 -12.25 L-8.7 -11.8 M-2.75 -5.25 L-1.25 -5.25 M-4.25 -3.75 Q-4.4 -2.75 -3.7 -2.05 M-2.5 -8.75 Q-1.3 -9.35 0.0 -9.5" fill="none" stroke="#000000" stroke-linecap="round" stroke-linejoin="round" stroke-width="0.5"/>
  </g>
</svg>
