<?xml version="1.0" encoding="UTF-8" standalone="no"?>
<svg xmlns:xlink="http://www.w3.org/1999/xlink" height="29.5px" width="28.8px" xmlns="http://www.w3.org/2000/svg">
  <g transform="matrix(1.0, 0.0, 0.0, 1.0, 10.95, 29.25)">
    <path d="M-4.75 -10.0 L-4.5 -9.75" fill="none" stroke="#000000" stroke-linecap="round" stroke-linejoin="round" stroke-width="0.5"/>
    <path d="M4.0 -27.75 Q5.4 -28.8 7.25 -29.0 M11.0 -18.25 L13.5 -18.15 M16.5 -16.5 L17.6 -13.25 M6.25 -16.75 L6.25 -17.25 6.25 -17.75 M6.75 -20.75 Q7.7 -20.35 8.55 -19.55 M1.75 -21.5 L2.0 -24.25 M2.0 -15.75 L2.0 -15.0 M5.75 -20.25 Q5.9 -19.3 5.6 -18.45 M8.0 -0.75 Q7.6 -0.8 7.7 -0.25 L7.75 0.0 M4.25 -3.0 Q4.35 -2.3 4.05 -1.7 M4.5 -7.5 L5.2 -5.7 M8.75 -7.0 L9.5 -6.0 M12.5 -5.5 L12.5 -3.25 M9.0 -21.5 Q10.85 -22.4 13.0 -22.25 M5.75 -24.75 Q7.1 -25.75 8.95 -26.45 M-2.25 -25.5 Q-1.8 -27.7 -0.5 -29.0 M-4.75 -25.0 Q-5.55 -25.5 -6.05 -26.25 M-0.75 -15.0 Q-1.1 -15.75 -1.0 -16.75 M-2.75 -22.5 L-0.75 -22.5 M-4.5 -19.75 L-3.75 -18.75 M-1.25 -19.5 Q-0.6 -19.15 -0.05 -18.95 M-8.5 -17.25 L-8.5 -15.5 M-4.5 -15.5 Q-4.35 -14.6 -3.5 -14.5 M-5.25 -12.0 L-6.55 -12.15 M-8.0 -9.5 Q-8.8 -9.3 -9.1 -8.55 M-7.5 -21.0 Q-9.0 -21.95 -10.7 -22.35" fill="none" stroke="#000000" stroke-linecap="round" stroke-linejoin="round" stroke-width="0.5"/>
  </g>
</svg>
