<?xml version="1.0" encoding="UTF-8" standalone="no"?>
<svg xmlns:xlink="http://www.w3.org/1999/xlink" height="70.0px" width="41.75px" xmlns="http://www.w3.org/2000/svg">
  <g transform="matrix(1.0, 0.0, 0.0, 1.0, 14.75, 75.5)">
    <path d="M14.75 -69.25 Q15.4 -71.15 16.95 -71.6 M19.75 -70.0 Q19.85 -71.4 21.15 -72.35 M21.75 -66.25 Q21.7 -67.45 22.8 -68.2 M14.25 -71.5 Q14.0 -73.2 14.85 -74.4 M5.5 -64.75 L5.05 -65.8 M10.0 -65.0 L10.1 -67.5 M6.0 -69.25 Q5.15 -70.65 6.55 -71.45 M8.5 -73.25 Q8.35 -74.45 9.25 -75.25 M5.75 -61.5 L12.25 -63.35 M4.75 -59.25 L4.75 -56.75 M8.0 -58.0 Q8.05 -56.55 9.0 -55.5 M15.5 -57.5 Q17.0 -59.1 19.2 -60.35 M14.75 -61.75 Q14.2 -60.95 14.8 -60.0 M18.5 -55.75 L18.6 -54.25 M11.0 -56.5 Q11.8 -57.8 13.75 -57.85 M14.0 -63.5 L16.3 -65.7 M20.5 -64.75 L20.5 -63.25 M26.75 -68.25 Q25.35 -67.1 24.35 -65.2 M23.75 -56.25 Q24.6 -55.35 25.75 -54.75 M24.5 -60.25 Q24.9 -61.5 26.25 -62.2 M23.75 -47.5 Q23.85 -48.95 24.75 -50.25 M13.75 -46.5 Q12.85 -50.0 15.55 -51.7 M15.25 -41.75 Q16.2 -43.45 18.0 -43.7 M17.75 -42.0 L18.1 -40.95 18.25 -42.25 M9.75 -44.25 Q10.35 -43.25 11.75 -42.45 M4.0 -44.75 Q4.45 -47.35 7.45 -47.95 M3.0 -42.5 Q4.3 -41.8 6.25 -41.55 M10.25 -29.75 L8.4 -28.05 M8.25 -38.25 Q7.1 -37.85 6.25 -36.75 M15.0 -32.75 L17.25 -31.5 M21.75 -39.5 Q20.5 -38.25 20.05 -36.25 M20.0 -31.75 L22.25 -33.5 M19.0 -30.25 L19.0 -29.25 M14.0 -33.5 Q13.65 -32.55 13.75 -31.5 M11.75 -40.0 Q13.1 -38.25 15.15 -36.9 M19.2 -38.95 L18.1 -40.95 17.55 -38.5 M13.0 -17.25 Q14.5 -16.55 16.25 -16.6 M7.0 -20.0 L7.0 -21.0 7.0 -21.5 M11.5 -17.0 L9.3 -20.8 M6.0 -22.5 Q6.8 -23.95 8.75 -24.95 M7.5 -12.25 Q9.05 -12.75 10.5 -13.8 M11.75 -12.0 Q11.3 -10.9 10.5 -10.0 M4.75 -11.0 Q4.75 -9.65 5.2 -8.5 M6.75 -15.0 L10.5 -16.1 M18.0 -19.25 Q16.65 -17.25 16.5 -14.5 M4.25 -30.25 Q4.05 -28.3 4.75 -26.5 M21.75 -51.0 Q22.15 -49.75 23.2 -48.7 M22.5 -28.75 Q25.05 -29.3 26.5 -31.75 M11.0 -55.25 L8.55 -51.95 M17.75 -48.5 Q17.95 -51.55 20.7 -53.85 M-5.75 -57.5 L-5.65 -54.25 M1.5 -58.0 Q1.35 -56.95 2.05 -56.3 M-1.0 -61.0 Q-2.8 -61.9 -4.0 -63.5 M-6.5 -57.25 Q-7.4 -58.5 -8.75 -59.5 M-10.75 -53.0 L-14.5 -52.9 M1.5 -62.0 L0.1 -60.95 M-5.25 -66.25 Q-5.4 -67.45 -4.95 -68.45 M-5.25 -44.25 L-5.15 -47.25 M-4.25 -36.75 L-4.25 -39.0 M-3.0 -27.75 Q-4.1 -30.2 -5.95 -32.3 M-3.0 -39.75 Q-3.15 -41.6 -2.55 -43.2 M-7.25 -50.5 L-7.25 -47.5 M-8.5 -44.5 Q-7.3 -43.15 -6.55 -41.7 M-2.25 -39.25 Q-2.2 -37.9 -0.75 -37.3 M-7.75 -34.25 Q-8.6 -36.05 -8.2 -38.25 M-5.75 -22.75 Q-6.45 -21.4 -6.75 -19.75 M-3.0 -24.75 Q-2.6 -23.6 -1.5 -23.4 M-6.5 -26.0 L-6.95 -25.7 M-1.25 -50.75 Q-2.55 -51.95 -2.25 -53.75 M-1.0 -51.25 L1.35 -53.4 M1.5 -10.75 Q1.3 -13.45 3.25 -14.8 M2.75 -25.25 Q2.05 -26.45 2.25 -28.0 M2.5 -50.25 Q4.85 -50.5 7.25 -50.3 M-0.25 -44.5 Q1.5 -43.2 4.0 -42.55 M3.0 -22.0 L1.7 -23.25 M2.5 -70.5 Q3.5 -71.9 4.95 -72.55" fill="none" stroke="#000000" stroke-linecap="round" stroke-linejoin="round" stroke-width="0.5"/>
    <path d="M-2.0 -5.75 Q-3.65 -7.5 -3.4 -10.25" fill="none" stroke="#000000" stroke-linecap="round" stroke-linejoin="round" stroke-width="0.5"/>
  </g>
</svg>
