<?xml version="1.0" encoding="UTF-8" standalone="no"?>
<svg xmlns:xlink="http://www.w3.org/1999/xlink" height="46.0px" width="46.5px" xmlns="http://www.w3.org/2000/svg">
  <g transform="matrix(1.0, 0.0, 0.0, 1.0, 23.25, 23.0)">
    <path d="M16.05 -15.9 Q22.75 -9.3 22.75 0.0 22.75 9.3 16.05 15.9 9.4 22.5 0.0 22.5 -9.4 22.5 -16.1 15.9 -22.75 9.3 -22.75 0.0 -22.75 -9.3 -16.1 -15.9 -9.4 -22.5 0.0 -22.5 9.4 -22.5 16.05 -15.9 Z" fill="none" stroke="#000000" stroke-linecap="round" stroke-linejoin="round" stroke-width="1.0"/>
    <path d="M3.55 -13.35 L4.6 -12.95 Q22.25 -6.2 21.85 -0.1 L21.8 0.4 21.6 1.05 -4.0 -9.1 -1.6 -15.2 -1.35 -15.1 3.55 -13.35 M3.95 -14.15 L3.8 -14.0 2.75 -14.4 -2.15 -16.15 -2.15 -16.65 Q-2.2 -18.15 -1.1 -19.2 -0.05 -20.25 1.4 -20.25 2.85 -20.25 3.95 -19.2 5.0 -18.15 5.0 -16.65 5.0 -15.2 3.95 -14.15 M4.3 -2.35 L4.45 -1.95 4.45 -1.8 4.55 -1.6 4.85 -0.9 4.85 -0.75 5.65 -0.85 4.0 0.95 4.15 -1.35 4.3 -2.35 M3.3 -3.1 L3.15 -2.1 3.0 0.2 3.0 0.35 3.0 0.4 3.25 2.0 Q3.45 3.8 3.25 5.5 L3.0 6.9 2.55 8.4 2.5 8.5 2.55 8.6 3.2 9.75 3.45 10.25 3.8 11.25 4.15 12.75 4.25 13.75 4.3 14.6 0.2 13.05 -0.1 11.15 -0.15 10.95 -0.65 9.65 -0.8 9.2 -0.55 8.1 -0.5 8.05 -0.25 6.7 -0.1 5.65 0.0 5.1 0.05 4.5 0.1 3.7 0.3 3.6 0.35 3.45 0.3 3.25 0.1 3.15 -0.15 3.15 -1.4 2.95 -1.7 2.85 -2.0 2.8 -2.2 2.75 -3.55 2.35 -5.3 1.7 -5.4 1.65 -5.5 1.45 Q-5.55 1.35 -5.65 1.4 L-5.85 1.45 -5.95 1.65 -5.9 4.6 -5.75 6.35 -5.75 6.45 -5.75 6.6 -5.9 6.55 -5.95 6.55 -6.05 6.55 -6.2 6.55 -6.25 6.5 -7.0 6.45 -7.0 6.4 -7.7 6.35 -7.75 6.35 -7.95 6.35 -9.45 6.35 -9.5 5.65 -9.5 5.6 Q-9.85 1.65 -8.45 -2.1 -8.35 -2.0 -8.25 -2.0 L-7.55 -2.1 -7.3 -2.1 Q-4.3 -2.25 -2.2 0.0 L-2.0 0.1 -1.8 0.0 -1.75 -0.2 -1.65 -0.2 -1.5 -0.3 -1.45 -0.55 Q-2.15 -2.75 -2.2 -5.0 L-0.7 -6.6 3.6 -4.95 3.3 -3.1 M5.15 -3.9 L5.2 -4.25 5.25 -4.3 8.85 -2.85 Q8.15 -2.15 7.2 -1.8 L6.5 -1.6 6.4 -1.6 5.6 -1.5 5.6 -1.65 5.3 -2.35 5.2 -2.55 5.2 -2.7 5.1 -3.2 5.15 -3.9 M5.15 -4.15 L5.1 -3.95 4.95 -4.0 5.15 -4.15 M22.15 2.25 L14.9 5.25 3.55 9.35 3.5 9.25 3.55 9.15 4.0 7.65 4.25 6.25 13.35 3.35 19.95 1.4 20.85 1.8 21.05 1.15 22.2 1.65 22.15 1.95 22.15 2.25 M19.15 11.3 L17.95 13.0 17.7 13.35 17.45 13.35 5.15 13.5 4.8 12.0 4.45 11.0 17.65 11.25 19.15 11.3 M2.1 21.95 L1.2 22.0 0.5 22.0 0.0 22.0 -0.15 22.0 -1.0 22.0 -2.45 21.9 -7.15 17.25 -7.35 20.85 -8.1 20.55 -10.95 19.25 -11.6 18.85 -11.65 17.2 -12.65 18.15 -12.7 18.1 -13.5 17.5 -14.55 16.65 -15.3 15.95 Q-13.8 16.9 -11.65 17.15 L-11.65 17.1 Q-9.45 17.6 -7.25 17.15 L-7.15 17.1 -7.15 17.15 Q-4.9 16.85 -3.35 15.8 L-3.3 15.85 2.1 21.95 M10.05 19.7 L9.55 19.95 -1.6 16.25 -2.9 15.85 -3.05 15.75 -3.15 15.7 -3.2 15.7 -3.1 15.65 Q-1.4 14.75 -1.0 13.4 L-0.95 13.4 -0.85 13.45 -0.8 13.35 -0.7 13.45 -0.65 13.45 -0.8 13.45 12.35 18.35 10.05 19.7 M-20.85 -2.1 L-11.45 7.2 -10.8 -3.8 Q-9.2 -20.85 -7.35 -3.65 L-7.3 -2.35 -8.25 -2.25 Q-8.35 -2.25 -8.45 -2.35 L-8.55 -2.1 -9.25 -2.0 Q-9.35 -2.0 -9.45 -2.1 -11.0 2.0 -10.45 6.35 L-10.25 6.35 -10.25 6.4 -10.2 7.1 -8.7 7.1 -8.5 7.1 -8.45 7.1 -7.75 7.15 -7.75 7.2 -7.0 7.25 -6.95 7.3 -6.9 7.3 -6.8 7.3 -6.7 7.3 -6.65 7.3 -6.5 7.35 -6.5 7.2 -6.5 7.1 -6.0 7.15 -6.0 7.2 -5.25 7.25 -5.05 7.3 -4.95 7.3 -4.9 7.3 -4.75 7.35 -4.75 7.2 -4.9 5.35 -2.95 3.5 -2.75 3.55 -2.45 3.6 -2.15 3.7 -0.9 3.9 -0.95 4.5 -1.0 5.1 -1.1 5.65 -1.25 6.7 -3.0 8.6 -1.55 8.1 -1.8 9.2 -1.65 9.65 -3.05 8.65 -3.05 8.7 Q-4.6 7.6 -6.95 7.35 -9.15 6.85 -11.3 7.35 L-11.45 7.35 Q-13.7 7.6 -15.2 8.7 L-15.25 8.65 Q-17.1 9.55 -17.5 11.0 L-17.55 10.95 -17.65 10.95 Q-18.35 12.05 -17.85 13.15 L-18.65 12.1 -18.85 11.8 -19.35 10.95 -17.7 10.9 -19.8 10.1 -19.9 9.95 -20.05 9.65 -20.4 8.9 -20.7 8.2 -21.25 6.65 -15.25 8.65 -22.2 0.8 -22.25 0.2 -22.25 0.0 -22.05 -3.15 -20.85 -2.1 M-9.15 -15.9 L-3.1 -13.5 -3.85 -11.55 -9.95 -13.95 -9.15 -15.9 M-0.5 17.1 L-0.55 17.15 -0.5 17.1 M-3.25 15.8 L-3.1 15.9 -2.4 16.15 -3.3 15.85 -3.25 15.8 M-5.55 8.1 L-5.4 8.15 Q-4.9 8.25 -4.45 8.5 L-3.6 8.95 Q-1.75 10.0 -1.35 11.45 L-1.2 12.25 Q-1.25 13.8 -2.75 15.0 L-2.85 15.05 -2.8 15.05 -3.6 15.6 Q-5.95 16.95 -9.3 16.95 -12.7 16.95 -15.1 15.6 L-15.35 15.4 -15.4 15.35 Q-16.95 14.35 -17.3 13.05 L-17.35 12.95 -17.4 12.25 Q-17.45 11.25 -16.8 10.45 -16.25 9.6 -15.1 8.95 -12.85 7.65 -9.75 7.55 L-9.3 7.55 -6.7 7.8 -5.55 8.1 M-5.4 -11.05 L-5.35 -11.2 -4.6 -10.9 -5.55 -8.55 -1.2 -6.85 -2.65 -5.35 -2.7 -5.25 -2.75 -5.1 -2.75 -4.95 -3.1 -4.75 -3.05 -4.95 -3.15 -5.1 Q-6.0 -7.6 -6.25 -11.35 L-5.4 -11.05 M-20.85 19.75 L-20.85 19.8 -20.85 19.75" fill="#000000" fill-rule="evenodd" stroke="none"/>
  </g>
</svg>
