<?xml version="1.0" encoding="UTF-8" standalone="no"?>
<svg xmlns:xlink="http://www.w3.org/1999/xlink" height="5.2px" width="5.2px" xmlns="http://www.w3.org/2000/svg">
  <g transform="matrix(1.0, 0.0, 0.0, 1.0, -0.85, 14.35)">
    <path d="M4.15 -12.9 L4.6 -13.0 4.75 -13.05 5.15 -13.9 5.2 -14.05 5.45 -14.3 5.6 -14.35 Q6.4 -13.75 5.75 -12.75 L4.95 -12.0 4.65 -11.85 4.6 -11.8 4.6 -11.7 4.45 -11.6 4.4 -11.5 4.35 -11.45 4.35 -11.35 4.2 -11.25 4.05 -11.2 Q3.8 -9.9 2.65 -9.5 L2.3 -9.65 2.1 -9.55 Q1.55 -8.85 0.85 -9.35 L0.85 -9.55 0.9 -9.8 Q1.65 -10.45 2.55 -10.8 L2.85 -10.85 3.0 -10.85 Q3.35 -11.7 3.35 -12.6 L3.4 -12.85 4.15 -12.9" fill="#000000" fill-rule="evenodd" stroke="none"/>
  </g>
</svg>
