<?xml version="1.0" encoding="UTF-8" standalone="no"?>
<svg xmlns:xlink="http://www.w3.org/1999/xlink" height="3.6px" width="3.35px" xmlns="http://www.w3.org/2000/svg">
  <g transform="matrix(1.0, 0.0, 0.0, 1.0, -7.3, 12.3)">
    <path d="M10.0 -12.3 Q10.8 -12.0 10.65 -10.95 L10.45 -10.0 Q10.0 -9.55 9.45 -9.55 L9.25 -9.4 9.1 -9.3 Q8.8 -8.25 7.9 -9.05 7.55 -8.95 7.3 -9.25 7.2 -9.75 7.6 -10.15 L7.7 -10.3 7.7 -10.55 7.75 -10.8 Q8.7 -11.2 8.55 -10.1 8.9 -10.4 8.85 -10.85 L8.9 -11.1 9.2 -11.35 9.3 -11.45 Q9.35 -12.1 10.0 -12.3" fill="#000000" fill-rule="evenodd" stroke="none"/>
  </g>
</svg>
