<?xml version="1.0" encoding="UTF-8" standalone="no"?>
<svg xmlns:xlink="http://www.w3.org/1999/xlink" height="3.75px" width="3.2px" xmlns="http://www.w3.org/2000/svg">
  <g transform="matrix(1.0, 0.0, 0.0, 1.0, -4.55, 15.4)">
    <path d="M4.6 -13.0 Q4.9 -13.3 5.35 -13.25 5.7 -13.95 6.35 -14.1 L6.5 -14.3 6.6 -14.5 6.65 -14.95 6.7 -15.2 6.8 -15.25 6.9 -15.35 6.95 -15.35 7.1 -15.4 Q7.75 -14.85 7.55 -13.8 L7.5 -13.1 7.6 -13.0 7.7 -12.95 7.75 -12.05 7.7 -11.8 6.95 -11.85 6.9 -11.95 6.9 -12.2 6.85 -12.3 6.7 -12.45 6.65 -12.55 6.65 -12.8 6.2 -12.7 6.0 -12.65 5.95 -12.6 5.95 -12.5 4.55 -12.55 4.55 -12.75 4.6 -13.0" fill="#000000" fill-rule="evenodd" stroke="none"/>
  </g>
</svg>
