<?xml version="1.0" encoding="UTF-8" standalone="no"?>
<svg xmlns:xlink="http://www.w3.org/1999/xlink" height="46.0px" width="46.5px" xmlns="http://www.w3.org/2000/svg">
  <g transform="matrix(1.0, 0.0, 0.0, 1.0, 23.25, 23.0)">
    <path d="M16.05 -15.9 Q22.75 -9.3 22.75 0.0 22.75 9.3 16.05 15.9 9.4 22.5 0.0 22.5 -9.4 22.5 -16.1 15.9 -22.75 9.3 -22.75 0.0 -22.75 -9.3 -16.1 -15.9 -9.4 -22.5 0.0 -22.5 9.4 -22.5 16.05 -15.9 Z" fill="none" stroke="#000000" stroke-linecap="round" stroke-linejoin="round" stroke-width="1.0"/>
    <path d="M3.95 -14.4 L3.8 -14.25 2.75 -14.65 -2.15 -16.4 -2.15 -16.9 Q-2.2 -18.4 -1.1 -19.45 -0.05 -20.5 1.4 -20.5 2.85 -20.5 3.95 -19.45 5.0 -18.4 5.0 -16.9 5.0 -15.45 3.95 -14.4 M3.55 -13.6 L4.6 -13.2 Q23.95 -5.8 21.6 0.8 L-4.0 -9.35 -1.6 -15.45 -1.35 -15.35 3.55 -13.6 M5.25 -4.55 L8.85 -3.1 Q7.65 -1.9 5.6 -1.75 L5.6 -1.9 Q4.85 -3.25 5.25 -4.55 M-9.15 -16.15 L-3.1 -13.75 -3.85 -11.8 -9.95 -14.2 -9.15 -16.15 M-5.4 -11.3 L-5.35 -11.45 -4.6 -11.15 -5.55 -8.8 -1.2 -7.1 -2.65 -5.6 -2.7 -5.5 -2.75 -5.35 -2.75 -5.2 -3.1 -5.0 -3.05 -5.2 -3.15 -5.35 Q-6.0 -7.85 -6.25 -11.6 L-5.4 -11.3 M-8.25 -2.25 Q-4.6 -2.85 -2.2 -0.25 L-2.0 -0.15 -1.8 -0.25 -1.75 -0.45 -1.65 -0.45 -1.5 -0.55 -1.45 -0.8 Q-2.15 -3.0 -2.2 -5.25 L-0.7 -6.85 3.6 -5.2 Q3.1 -2.7 3.0 0.1 L3.0 0.15 Q3.9 4.35 2.55 8.15 L2.5 8.25 2.55 8.35 Q5.0 12.1 3.95 17.1 L3.95 17.15 Q1.65 16.15 -0.55 16.9 1.15 13.4 -0.8 8.95 L0.0 4.85 0.05 4.25 0.1 3.45 0.3 3.35 0.35 3.2 0.3 3.0 0.1 2.9 -0.15 2.9 Q-2.9 2.5 -5.3 1.45 L-5.4 1.4 -5.5 1.2 Q-5.55 1.1 -5.65 1.15 L-5.85 1.2 -5.95 1.4 -5.75 6.35 -9.45 6.1 Q-10.0 1.75 -8.45 -2.35 -8.35 -2.25 -8.25 -2.25" fill="#000000" fill-rule="evenodd" stroke="none"/>
    <path d="M-7.35 13.35 L-7.1 14.15 -6.85 14.9 Q-6.7 15.05 -6.6 14.15 L-6.35 13.15 Q-6.15 13.0 -6.35 12.7 -6.55 12.35 -6.8 12.35 L-7.25 12.7 -7.35 13.35 M-11.1 15.05 L-10.9 14.3 -10.6 13.25 Q-10.45 13.15 -10.6 12.8 -10.8 12.45 -11.05 12.5 -11.35 12.5 -11.5 12.85 L-11.6 13.45 -11.35 14.3 -11.1 15.05 M-8.2 12.0 L-8.65 12.35 -8.75 12.95 -8.5 13.8 -8.25 14.5 -8.05 13.75 -7.75 12.75 Q-7.6 12.6 -7.75 12.3 -7.95 11.95 -8.2 12.0 M-9.25 12.35 L-9.7 12.0 -10.15 12.35 -10.25 12.95 -10.0 13.8 -9.75 14.55 -9.55 13.8 -9.25 12.8 Q-9.1 12.65 -9.25 12.35 M-7.1 6.95 Q-7.0 6.95 -6.95 7.05 L-6.3 6.75 -6.1 6.7 -5.95 6.7 Q-4.85 6.5 -3.6 7.1 L-3.45 7.25 -3.45 7.4 -3.55 7.55 -3.7 7.65 -4.3 7.85 Q-2.45 8.05 -1.4 9.6 L-1.35 9.8 -1.4 9.95 -1.55 10.05 -1.75 10.05 -2.55 9.95 -2.05 10.25 Q-0.75 11.15 -0.2 12.45 L-0.15 12.5 -0.15 12.7 -0.3 12.85 -0.5 12.9 -0.7 12.8 -1.05 12.5 -1.25 12.65 Q-0.2 14.05 -0.6 15.95 L-0.7 16.15 -0.85 16.2 -1.05 16.15 -1.15 16.0 Q-1.45 15.05 -2.45 14.9 -2.15 16.1 -2.95 17.0 L-3.15 17.1 -3.35 17.05 -3.45 16.85 Q-3.6 16.35 -3.9 16.1 -4.0 17.35 -4.7 18.2 L-4.9 18.3 -5.1 18.25 -5.25 18.05 Q-5.4 17.15 -6.0 16.6 L-6.05 16.65 -6.05 16.7 -6.35 17.2 -6.55 17.6 -6.75 17.9 -7.55 18.8 -7.75 18.9 -7.95 18.85 -8.05 18.7 -8.25 17.95 -8.3 17.9 -8.4 17.6 -8.6 17.0 -8.85 17.6 -8.95 17.9 -8.95 17.95 -9.15 18.5 -9.25 18.7 -9.4 18.75 -9.6 18.7 -9.7 18.55 -9.95 17.95 -10.05 17.75 -10.2 17.45 -10.5 16.85 -10.7 16.85 -10.75 16.85 -11.4 17.05 -11.5 17.1 -12.15 18.25 -12.25 18.4 -12.45 18.45 -12.6 18.4 -12.7 18.25 Q-13.15 17.05 -13.05 15.8 L-13.0 15.6 -13.0 15.3 -13.3 15.45 -13.35 15.5 -13.4 15.55 Q-14.05 15.95 -14.25 16.85 L-14.35 17.05 -14.5 17.1 -14.7 17.05 -14.8 16.9 Q-15.35 15.45 -14.95 14.1 L-14.85 13.85 -14.55 13.15 -14.7 13.15 -15.0 13.2 -15.1 13.25 -16.25 14.0 -16.4 14.1 -16.6 14.1 -16.75 13.95 -16.8 13.75 Q-16.35 11.8 -15.2 10.65 L-14.5 10.05 -13.6 9.55 -13.75 9.5 -13.7 9.5 -13.9 9.45 -14.0 9.45 -14.2 9.4 -14.95 9.45 -15.15 9.4 -15.25 9.25 -15.25 9.05 -15.1 8.9 -15.05 8.85 Q-13.6 8.2 -12.5 8.25 -12.7 7.95 -13.1 7.85 L-13.3 7.75 -13.35 7.55 -13.25 7.35 -13.05 7.25 -13.0 7.25 -11.6 7.3 -9.85 7.5 -9.65 7.5 -9.55 7.45 Q-8.25 6.65 -7.1 6.95" fill="#000000" fill-rule="evenodd" stroke="none"/>
  </g>
</svg>
