<?xml version="1.0" encoding="UTF-8" standalone="no"?>
<svg xmlns:xlink="http://www.w3.org/1999/xlink" height="21.7px" width="11.95px" xmlns="http://www.w3.org/2000/svg">
  <g transform="matrix(1.0, 0.0, 0.0, 1.0, 1.75, 17.15)">
    <path d="M0.2 3.3 L0.1 3.4 0.1 3.5 0.1 3.6 0.5 4.05 0.0 4.55 -1.75 4.55 -1.6 3.6 Q-0.5 3.7 -0.25 2.75 L0.15 2.75 0.45 3.15 0.2 3.3" fill="#000000" fill-rule="evenodd" stroke="none"/>
    <path d="M5.75 -16.3 L6.2 -17.15 Q8.15 -17.1 9.35 -15.65 L10.2 -14.25 9.25 -13.55 7.75 -13.6 7.65 -13.6 6.55 -14.55 5.7 -15.65 Q5.55 -15.95 5.75 -16.3" fill="url(#gradient0)" fill-rule="evenodd" stroke="none"/>
  </g>
  <defs>
    <radialGradient cx="0" cy="0" gradientTransform="matrix(0.0091, -0.0105, 0.0071, 0.0061, -0.3, -0.65)" gradientUnits="userSpaceOnUse" id="gradient0" r="819.2" spreadMethod="pad">
      <stop offset="0.0" stop-color="#000000"/>
      <stop offset="0.5764705882352941" stop-color="#505050"/>
      <stop offset="1.0" stop-color="#656565"/>
    </radialGradient>
  </defs>
</svg>
