<?xml version="1.0" encoding="UTF-8" standalone="no"?>
<svg xmlns:xlink="http://www.w3.org/1999/xlink" height="45.95px" width="52.45px" xmlns="http://www.w3.org/2000/svg">
  <g transform="matrix(1.0, 0.0, 0.0, 1.0, 25.95, 22.75)">
    <path d="M10.0 -20.3 L15.6 -20.5 Q18.4 -21.95 21.2 -20.6 23.7 -19.4 25.25 -16.95 26.7 -14.7 26.45 -11.85 L25.85 -6.1 Q25.5 -3.3 25.5 -0.5 25.45 2.55 24.55 5.2 23.65 7.9 21.85 10.05 21.25 10.7 21.25 11.5 L21.3 15.3 Q21.4 18.3 18.85 20.0 16.4 21.6 13.65 22.2 10.9 22.8 8.4 21.3 5.8 19.7 2.85 19.75 0.1 19.8 -1.95 21.5 -4.15 23.3 -7.3 23.2 -10.3 23.1 -13.05 22.0 -15.9 20.85 -18.25 17.85 -18.65 15.35 -20.55 14.0 -22.85 12.35 -24.5 9.95 -26.15 7.5 -25.95 4.55 -25.75 1.65 -23.6 -0.4 -22.05 -1.9 -22.65 -3.9 -23.45 -6.55 -23.4 -9.35 L-23.15 -15.1 Q-22.85 -18.05 -20.5 -19.9 -18.2 -21.8 -15.25 -21.7 L-8.9 -21.7 -3.25 -22.2 -1.0 -22.55 4.75 -22.15 10.0 -20.3" fill="url(#gradient0)" fill-rule="evenodd" stroke="none"/>
  </g>
  <defs>
    <radialGradient cx="0" cy="0" gradientTransform="matrix(0.0371, 0.0, 0.0, 0.0371, 0.7, 0.2)" gradientUnits="userSpaceOnUse" id="gradient0" r="819.2" spreadMethod="pad">
      <stop offset="0.5019607843137255" stop-color="#000000" stop-opacity="0.9019608"/>
      <stop offset="0.8470588235294118" stop-color="#454545" stop-opacity="0.7019608"/>
      <stop offset="0.9254901960784314" stop-color="#9c9c9c" stop-opacity="0.5019608"/>
      <stop offset="1.0" stop-color="#ffffff" stop-opacity="0.0"/>
    </radialGradient>
  </defs>
</svg>
