<?xml version="1.0" encoding="UTF-8" standalone="no"?>
<svg xmlns:xlink="http://www.w3.org/1999/xlink" height="92.1px" width="148.4px" xmlns="http://www.w3.org/2000/svg">
  <g transform="matrix(1.0, 0.0, 0.0, 1.0, 36.75, 104.0)">
    <path d="M41.0 -103.7 Q52.85 -102.8 64.85 -98.6 76.3 -94.7 86.95 -88.95 98.35 -82.7 105.4 -71.1 112.55 -59.55 111.55 -46.5 110.5 -33.35 99.35 -25.35 88.45 -17.55 75.7 -14.4 62.9 -11.25 49.75 -12.05 37.3 -12.9 24.85 -15.9 11.9 -18.95 0.55 -23.1 -10.45 -27.0 -20.9 -33.65 -31.9 -40.65 -35.75 -53.85 -39.65 -67.1 -28.55 -75.9 -18.35 -84.0 -7.4 -91.4 3.7 -98.9 16.1 -101.85 28.75 -104.85 41.0 -103.7" fill="url(#gradient0)" fill-rule="evenodd" stroke="none"/>
  </g>
  <defs>
    <radialGradient cx="0" cy="0" gradientTransform="matrix(0.0029, -0.0549, 0.0741, 0.004, 37.45, -50.7)" gradientUnits="userSpaceOnUse" id="gradient0" r="819.2" spreadMethod="pad">
      <stop offset="0.0" stop-color="#929292" stop-opacity="0.0"/>
      <stop offset="0.5764705882352941" stop-color="#707070" stop-opacity="0.0"/>
      <stop offset="1.0" stop-color="#000000" stop-opacity="0.0"/>
    </radialGradient>
  </defs>
</svg>
