<?xml version="1.0" encoding="UTF-8" standalone="no"?>
<svg xmlns:xlink="http://www.w3.org/1999/xlink" height="27.7px" width="43.5px" xmlns="http://www.w3.org/2000/svg">
  <g transform="matrix(1.0, 0.0, 0.0, 1.0, 27.55, 9.0)">
    <path d="M-23.75 -9.0 Q-21.75 -8.55 -20.85 -6.65 L-20.75 -6.65 -20.75 -7.2 -20.7 -7.75 Q-19.25 -9.3 -18.3 -7.4 L-18.25 -7.25 -15.5 -2.7 -15.0 -2.15 Q-13.35 -4.1 -11.45 -2.55 -8.85 -1.9 -7.4 0.6 L-5.55 3.3 Q-5.45 2.35 -5.5 1.3 L-5.45 0.0 Q-3.6 -1.65 -3.25 0.7 -3.0 2.3 -3.0 3.85 -1.75 3.45 -0.55 4.45 0.25 5.15 -0.2 6.1 1.35 7.0 3.6 6.05 6.4 4.85 6.95 7.2 L7.0 7.55 Q8.8 8.15 9.05 9.7 9.1 10.1 8.75 10.35 8.2 10.8 7.5 10.85 L7.55 11.05 7.75 11.25 7.95 11.35 Q12.3 11.2 15.75 13.3 16.05 13.5 15.95 13.95 15.75 14.9 14.75 14.9 L7.75 14.95 7.9 16.05 7.35 16.8 Q7.05 19.6 4.25 18.25 2.3 17.3 1.6 15.35 0.95 17.15 -0.8 17.5 -1.65 17.7 -2.05 16.95 -2.75 15.65 -2.55 14.05 -4.55 16.7 -7.55 16.4 -8.05 16.35 -8.15 15.85 L-8.25 14.0 Q-8.4 13.85 -8.5 13.85 L-12.3 13.4 Q-12.85 13.3 -12.85 12.7 -12.85 11.2 -11.25 10.7 L-10.3 10.35 -16.55 9.95 Q-18.25 9.8 -17.85 8.25 L-17.7 7.85 -17.75 7.3 -17.7 6.75 -17.55 6.55 -17.4 6.35 -18.9 5.05 -19.25 4.75 -26.9 2.65 -27.45 2.25 Q-27.7 1.5 -27.2 0.95 -26.85 0.55 -26.3 0.45 -26.15 -0.4 -25.35 -0.5 L-22.0 -0.9 -21.95 -1.45 -21.75 -2.0 Q-24.05 -3.8 -24.85 -6.35 -25.35 -7.9 -24.3 -8.9 L-24.15 -8.9 -23.75 -8.95 -23.75 -9.0" fill="#000000" fill-rule="evenodd" stroke="none"/>
  </g>
</svg>
