<?xml version="1.0" encoding="UTF-8" standalone="no"?>
<svg xmlns:xlink="http://www.w3.org/1999/xlink" height="46.0px" width="46.5px" xmlns="http://www.w3.org/2000/svg">
  <g transform="matrix(1.0, 0.0, 0.0, 1.0, 23.25, 23.0)">
    <path d="M16.05 -15.9 Q22.75 -9.3 22.75 0.0 22.75 9.3 16.05 15.9 9.4 22.5 0.0 22.5 -9.4 22.5 -16.1 15.9 -22.75 9.3 -22.75 0.0 -22.75 -9.3 -16.1 -15.9 -9.4 -22.5 0.0 -22.5 9.4 -22.5 16.05 -15.9 Z" fill="none" stroke="#000000" stroke-linecap="round" stroke-linejoin="round" stroke-width="1.0"/>
    <path d="M3.55 -13.6 L4.6 -13.2 Q23.95 -5.8 21.6 0.8 L-4.0 -9.35 -1.6 -15.45 -1.35 -15.35 3.55 -13.6 M3.95 -14.4 L3.8 -14.25 2.75 -14.65 -2.15 -16.4 -2.15 -16.9 Q-2.2 -18.4 -1.1 -19.45 -0.05 -20.5 1.4 -20.5 2.85 -20.5 3.95 -19.45 5.0 -18.4 5.0 -16.9 5.0 -15.45 3.95 -14.4 M5.25 -4.55 L8.85 -3.1 Q7.65 -1.9 5.6 -1.75 L5.6 -1.9 Q4.85 -3.25 5.25 -4.55 M3.05 -1.0 L3.0 0.1 3.0 0.15 Q3.9 4.25 2.6 7.9 0.8 9.1 -0.6 8.15 L-0.05 5.1 0.15 5.1 Q0.65 5.2 1.25 5.65 -0.25 4.25 1.05 2.7 L0.35 3.2 0.3 3.0 0.1 2.9 -0.15 2.9 Q-2.9 2.5 -5.3 1.45 L-5.4 1.4 -5.5 1.2 Q-5.55 1.1 -5.65 1.15 L-5.85 1.2 -5.95 1.4 -5.8 5.7 -6.05 6.2 -6.05 6.25 -6.1 6.3 -9.45 6.1 -9.55 3.55 -9.0 3.8 -8.7 4.0 -9.0 3.75 -9.55 3.1 -9.25 0.6 -9.1 0.4 -9.25 0.5 -8.9 -1.0 -8.45 -2.35 Q-8.35 -2.25 -8.25 -2.25 -5.2 -2.75 -2.95 -1.0 L-2.2 -0.25 -2.0 -0.15 -1.8 -0.25 -1.75 -0.45 -1.65 -0.45 -1.5 -0.55 -1.45 -0.8 -1.5 -1.0 Q-2.15 -3.1 -2.2 -5.25 L-0.7 -6.85 3.6 -5.2 Q3.2 -3.2 3.05 -1.0 M0.0 4.9 L-0.1 4.85 Q-0.75 4.8 -1.3 5.35 -0.55 4.05 -1.4 3.3 -0.65 3.9 0.1 3.55 L0.15 3.55 0.65 3.2 Q-0.3 4.3 0.75 5.25 L0.0 4.9 M1.9 12.25 Q0.45 9.75 2.6 7.95 L2.55 8.15 2.5 8.25 2.55 8.35 Q5.0 12.1 3.95 17.1 L3.95 17.15 Q1.65 16.15 -0.55 16.9 0.75 14.2 -0.1 11.0 0.85 11.25 1.9 12.25 M1.4 11.45 L0.0 10.6 -0.2 10.6 -0.75 10.6 -0.95 10.65 -1.2 10.75 -1.25 10.75 -1.55 10.95 -1.3 10.75 -1.2 10.6 -0.9 10.2 -0.65 9.3 -0.7 8.7 -1.05 7.9 -0.65 8.4 -0.35 8.6 1.9 8.45 Q0.35 9.75 1.4 11.45 M-9.15 -16.15 L-3.1 -13.75 -3.85 -11.8 -9.95 -14.2 -9.15 -16.15 M-5.4 -11.3 L-5.35 -11.45 -4.6 -11.15 -5.55 -8.8 -1.2 -7.1 -2.65 -5.6 -2.7 -5.5 -2.75 -5.35 -2.75 -5.2 -3.1 -5.0 -3.05 -5.2 -3.15 -5.35 Q-6.0 -7.85 -6.25 -11.6 L-5.4 -11.3 M-9.75 1.2 Q-10.2 1.85 -10.1 2.45 L-10.0 2.75 -10.0 2.8 -9.95 2.9 -9.55 3.35 -9.35 3.55 -9.55 3.4 -9.95 3.25 -10.5 3.15 -10.55 3.15 -10.95 3.25 -11.0 3.25 Q-11.5 3.4 -11.95 3.9 -11.1 2.2 -12.25 1.35 -10.9 2.25 -9.7 1.1 L-9.6 1.05 -9.75 1.2 M-5.3 4.8 L-5.2 4.9 Q-4.45 5.95 -3.0 5.4 -4.5 6.15 -4.15 7.7 L-4.15 7.8 -4.1 7.9 -4.05 8.0 -4.1 7.9 -4.15 7.8 -4.4 7.55 Q-5.4 6.45 -6.6 7.0 L-5.9 6.45 -5.85 6.4 -5.7 6.25 -5.7 6.2 -5.5 5.85 Q-5.25 5.2 -5.5 4.35 L-5.3 4.8 M-8.95 7.9 L-9.05 8.0 Q-10.55 8.2 -11.7 8.9 L-12.3 8.65 Q-10.45 7.45 -7.75 7.5 -5.75 7.45 -4.2 8.15 L-3.9 8.5 -3.8 8.6 -3.7 8.75 -3.8 8.6 -3.85 8.45 -3.85 8.35 -3.85 8.3 -3.0 8.8 Q-1.9 9.5 -1.4 10.4 L-1.85 11.0 Q-2.25 9.95 -3.45 9.1 -5.25 7.9 -7.75 7.95 L-9.0 8.0 -8.95 7.9 M-9.65 8.65 Q-10.95 10.2 -9.6 11.75 -11.45 10.45 -12.65 11.75 -11.8 10.65 -12.05 9.65 L-12.2 9.25 -12.25 9.15 -12.55 8.7 -12.1 9.0 -11.95 9.1 -11.55 9.3 Q-10.6 9.5 -9.7 8.65 L-9.65 8.65 -9.6 8.6 -9.65 8.65 M-1.75 11.2 L-1.45 11.05 -1.2 11.0 -1.0 12.0 Q-1.05 13.9 -3.0 15.25 -4.95 16.55 -7.75 16.55 L-11.25 15.9 -11.25 15.75 -11.2 15.4 Q-9.75 16.05 -7.75 16.1 -5.25 16.1 -3.45 14.9 -1.7 13.7 -1.7 12.0 L-1.8 11.2 -1.75 11.2 M-16.2 10.75 Q-16.75 12.65 -14.95 13.5 -17.05 13.1 -17.6 14.7 -17.1 12.8 -18.85 11.95 -16.95 12.6 -16.2 10.75 M-12.65 8.85 L-12.45 9.4 Q-13.85 10.5 -13.85 12.0 -13.85 13.7 -12.05 14.9 L-11.95 14.95 -12.85 14.8 -13.75 14.15 -13.55 14.4 Q-14.55 13.35 -14.5 12.0 -14.55 10.15 -12.65 8.85 M-16.3 7.25 Q-15.35 6.25 -16.1 5.1 -15.2 6.2 -14.1 5.3 -15.1 6.3 -14.3 7.45 -15.4 6.45 -16.3 7.25 M-11.4 15.25 L-11.5 15.55 -11.5 15.75 -11.5 15.9 -11.15 16.9 -11.1 16.95 -11.05 17.05 -11.15 16.95 -13.25 17.05 Q-12.35 15.95 -13.15 14.85 L-13.25 14.7 -13.1 14.8 -12.65 15.1 -12.0 15.25 -11.6 15.1 -11.05 14.7 -11.4 15.25 M-1.5 18.0 Q-2.75 17.4 -3.25 18.65 -2.85 17.4 -4.0 16.7 -2.65 17.1 -2.25 16.05 -2.65 17.3 -1.5 18.0 M-5.05 15.15 Q-5.9 13.2 -7.5 13.55 -5.65 12.95 -5.85 11.05 -5.4 13.0 -3.4 12.65 -5.3 13.2 -5.05 15.15" fill="#000000" fill-rule="evenodd" stroke="none"/>
  </g>
</svg>
