<?xml version="1.0" encoding="UTF-8" standalone="no"?>
<svg xmlns:xlink="http://www.w3.org/1999/xlink" height="3.0px" width="5.75px" xmlns="http://www.w3.org/2000/svg">
  <g transform="matrix(1.0, 0.0, 0.0, 1.0, -19.6, 36.9)">
    <path d="M24.0 -35.95 Q24.9 -35.95 25.25 -35.15 25.5 -34.6 25.2 -34.05 L25.0 -33.95 24.75 -33.9 23.75 -34.5 22.95 -35.2 22.75 -34.7 22.55 -34.55 22.25 -34.4 Q21.75 -34.4 21.6 -34.9 L21.55 -35.05 21.35 -35.25 21.05 -35.25 20.75 -34.9 20.6 -34.75 20.5 -34.7 20.25 -34.65 19.7 -34.95 19.65 -35.3 19.6 -35.5 19.6 -35.7 19.6 -35.9 Q19.75 -36.35 20.2 -36.5 L21.25 -36.85 21.25 -36.9 Q22.75 -36.8 23.85 -36.1 L24.0 -35.95" fill="#000000" fill-rule="evenodd" stroke="none"/>
  </g>
</svg>
