<?xml version="1.0" encoding="UTF-8" standalone="no"?>
<svg xmlns:xlink="http://www.w3.org/1999/xlink" height="8.25px" width="6.25px" xmlns="http://www.w3.org/2000/svg">
  <g transform="matrix(1.0, 0.0, 0.0, 1.0, -38.1, 54.85)">
    <path d="M43.35 -53.65 L43.35 -52.5 43.35 -52.15 42.65 -51.2 42.55 -51.0 43.25 -50.55 43.35 -50.4 43.15 -49.05 43.1 -48.7 Q43.95 -48.05 44.35 -47.2 L44.15 -46.85 44.0 -46.7 Q43.1 -46.35 42.6 -47.05 L42.15 -47.3 41.95 -47.45 41.85 -48.95 41.85 -49.5 41.4 -49.75 41.2 -49.95 41.1 -51.05 41.1 -51.45 41.25 -51.65 41.35 -51.8 40.9 -52.05 40.7 -52.2 40.65 -52.4 40.6 -52.55 40.6 -52.75 Q39.95 -52.9 39.45 -51.9 L39.35 -51.75 Q38.55 -51.35 38.1 -52.15 39.0 -53.6 40.6 -54.75 L41.0 -54.85 Q41.45 -54.95 41.75 -54.55 L41.85 -54.4 41.85 -54.2 41.85 -54.0 42.5 -54.05 42.75 -54.15 43.2 -53.8 43.35 -53.65" fill="#000000" fill-rule="evenodd" stroke="none"/>
  </g>
</svg>
