<?xml version="1.0" encoding="UTF-8" standalone="no"?>
<svg xmlns:xlink="http://www.w3.org/1999/xlink" height="46.0px" width="46.5px" xmlns="http://www.w3.org/2000/svg">
  <g transform="matrix(1.0, 0.0, 0.0, 1.0, 23.25, 23.0)">
    <path d="M16.05 -15.9 Q22.75 -9.3 22.75 0.0 22.75 9.3 16.05 15.9 9.4 22.5 0.0 22.5 -9.4 22.5 -16.1 15.9 -22.75 9.3 -22.75 0.0 -22.75 -9.3 -16.1 -15.9 -9.4 -22.5 0.0 -22.5 9.4 -22.5 16.05 -15.9 Z" fill="none" stroke="#000000" stroke-linecap="round" stroke-linejoin="round" stroke-width="1.0"/>
    <path d="M3.95 -14.4 L3.8 -14.25 2.75 -14.65 -2.15 -16.4 -2.15 -16.9 Q-2.2 -18.4 -1.1 -19.45 -0.05 -20.5 1.4 -20.5 2.85 -20.5 3.95 -19.45 5.0 -18.4 5.0 -16.9 5.0 -15.45 3.95 -14.4 M3.55 -13.6 L4.6 -13.2 Q23.95 -5.8 21.6 0.8 L-4.0 -9.35 -1.6 -15.45 -1.35 -15.35 3.55 -13.6 M0.9 -0.2 L0.8 -0.2 1.05 -0.35 1.2 -0.5 1.2 -0.75 1.1 -0.9 0.9 -0.95 Q-1.4 -0.7 -2.1 0.9 -2.65 1.45 -2.85 2.35 L-3.1 2.25 -3.25 2.0 Q-3.35 1.75 -3.6 1.9 L-3.75 2.05 -5.3 1.45 -5.4 1.4 -5.5 1.2 Q-5.55 1.1 -5.65 1.15 L-5.85 1.2 -5.95 1.4 -5.85 4.85 -5.95 4.95 -6.6 4.85 -6.65 4.85 -6.55 4.75 -6.5 4.6 -6.55 4.4 -6.65 4.3 -6.7 4.3 -6.75 4.25 -6.8 4.15 -6.9 4.05 -6.95 4.05 -7.05 4.0 -7.0 3.95 -6.9 3.9 -6.8 3.75 -6.75 3.6 -6.8 3.4 -6.9 3.3 -6.95 3.3 -7.15 3.3 -7.2 3.3 Q-8.2 3.65 -9.05 4.15 L-9.55 4.45 Q-9.7 0.95 -8.45 -2.35 -8.35 -2.25 -8.25 -2.25 -4.6 -2.85 -2.2 -0.25 L-2.0 -0.15 -1.8 -0.25 -1.75 -0.45 -1.65 -0.45 -1.5 -0.55 -1.45 -0.8 Q-2.15 -3.0 -2.2 -5.25 L-0.7 -6.85 3.6 -5.2 Q3.1 -2.7 3.0 0.1 L3.0 0.15 3.3 2.35 3.2 2.15 3.15 2.1 2.95 1.15 2.8 1.05 2.55 1.05 2.45 1.25 2.25 1.8 2.05 1.8 1.95 2.0 1.8 2.4 1.7 2.45 0.85 2.5 0.7 2.4 0.6 2.2 Q0.55 1.8 0.65 1.5 0.7 1.15 0.9 0.95 L1.3 0.65 1.45 0.5 1.45 0.25 1.35 0.1 1.2 0.05 1.2 0.0 1.1 -0.15 0.9 -0.2 M8.85 -3.1 Q7.65 -1.9 5.6 -1.75 L5.6 -1.9 Q4.85 -3.25 5.25 -4.55 L8.85 -3.1 M-9.15 -16.15 L-3.1 -13.75 -3.85 -11.8 -9.95 -14.2 -9.15 -16.15 M-2.25 11.95 Q-2.25 10.4 -3.85 9.35 -5.45 8.3 -7.65 8.3 -9.9 8.3 -11.5 9.35 -13.1 10.4 -13.05 11.95 -13.1 13.45 -11.5 14.5 -9.9 15.55 -7.65 15.55 -5.45 15.55 -3.85 14.5 -2.25 13.45 -2.25 11.95 M-0.1 1.75 L-0.15 2.45 0.1 3.4 0.2 3.65 0.35 3.75 1.2 3.7 1.3 3.65 1.75 3.05 1.95 2.5 2.05 2.3 2.3 2.3 2.4 2.35 2.45 2.4 2.55 2.6 2.6 3.7 2.6 3.8 1.95 5.6 1.8 5.9 Q1.3 6.75 1.35 6.9 L2.0 6.65 2.35 6.5 2.4 6.5 2.55 6.45 2.65 6.5 2.75 6.55 2.8 6.75 2.75 6.95 2.65 7.1 2.3 7.5 2.0 7.8 1.35 8.25 Q0.65 8.7 0.4 9.35 0.25 9.7 0.25 10.1 L0.0 11.8 -0.45 12.9 -0.55 13.05 -1.3 14.15 -2.4 15.0 -3.05 15.55 Q-5.1 16.9 -7.9 16.9 -10.75 16.9 -12.75 15.55 -14.8 14.1 -14.8 12.05 -14.65 10.75 -13.85 9.45 L-13.0 8.25 -11.3 6.6 -11.25 6.55 -11.05 6.4 -10.45 5.95 -10.05 5.7 -9.55 5.4 Q-8.8 4.95 -8.0 4.65 L-7.7 4.55 -7.65 4.55 -7.55 4.5 -7.45 4.55 -7.4 4.55 -7.3 4.65 -7.25 4.75 -7.25 4.85 -7.3 5.0 -7.4 5.1 -7.4 5.15 -7.5 5.2 -7.75 5.5 -7.85 5.65 -8.15 6.05 -8.05 6.05 -7.95 6.05 -7.8 6.05 -7.1 6.1 -6.45 6.2 -6.35 6.1 -6.05 5.8 -5.85 5.6 -5.6 5.4 -5.6 5.35 -5.4 5.1 -4.75 4.25 -4.25 3.3 -4.1 3.15 -3.75 3.25 -3.6 3.5 Q-3.05 4.7 -3.7 6.2 L-3.1 5.95 Q-2.9 5.7 -2.95 5.2 L-2.95 5.15 Q-3.1 3.8 -2.85 2.85 L-2.6 2.15 Q-1.95 0.7 -0.05 0.35 L0.3 0.3 0.4 0.3 0.6 0.35 0.7 0.5 0.7 0.55 0.7 0.75 0.55 0.9 0.15 1.2 -0.1 1.75 M-5.4 -11.3 L-5.35 -11.45 -4.6 -11.15 -5.55 -8.8 -1.2 -7.1 -2.65 -5.6 -2.7 -5.5 -2.75 -5.35 -2.75 -5.2 -3.1 -5.0 -3.05 -5.2 -3.15 -5.35 Q-6.0 -7.85 -6.25 -11.6 L-5.4 -11.3 M3.35 3.45 L3.25 5.3 3.05 5.2 2.9 5.25 2.7 5.35 3.35 3.55 3.35 3.45 M3.05 5.95 L3.15 5.85 3.15 6.0 3.05 5.95 M2.1 8.0 L2.75 7.55 2.55 8.15 2.5 8.25 2.55 8.35 Q5.0 12.1 3.95 17.1 L3.95 17.15 Q1.65 16.15 -0.55 16.9 0.35 15.0 0.2 12.8 L0.3 12.65 0.75 11.55 1.0 9.85 Q1.0 9.45 1.15 9.1 1.4 8.45 2.1 8.0" fill="#000000" fill-rule="evenodd" stroke="none"/>
  </g>
</svg>
