<?xml version="1.0" encoding="UTF-8" standalone="no"?>
<svg xmlns:xlink="http://www.w3.org/1999/xlink" height="46.0px" width="46.5px" xmlns="http://www.w3.org/2000/svg">
  <g transform="matrix(1.0, 0.0, 0.0, 1.0, 23.25, 23.0)">
    <path d="M16.05 -15.9 Q22.75 -9.3 22.75 0.0 22.75 9.3 16.05 15.9 9.4 22.5 0.0 22.5 -9.4 22.5 -16.1 15.9 -22.75 9.3 -22.75 0.0 -22.75 -9.3 -16.1 -15.9 -9.4 -22.5 0.0 -22.5 9.4 -22.5 16.05 -15.9 Z" fill="none" stroke="#000000" stroke-linecap="round" stroke-linejoin="round" stroke-width="1.0"/>
    <path d="M4.95 -20.3 Q5.75 -20.35 6.35 -19.75 6.9 -19.15 6.9 -18.35 6.9 -17.55 6.35 -16.95 L6.3 -16.9 5.7 -17.1 3.0 -18.05 3.0 -18.35 Q2.95 -19.15 3.55 -19.75 4.15 -20.35 4.95 -20.3 M3.3 -17.55 L3.45 -17.5 6.15 -16.55 6.7 -16.3 Q17.35 -12.25 16.05 -8.6 L2.0 -14.2 3.3 -17.55 M2.05 -15.55 L-1.3 -16.85 -0.85 -17.95 2.5 -16.6 2.05 -15.55 M1.65 -15.2 L1.1 -13.9 3.5 -12.95 2.75 -12.1 2.7 -12.05 2.65 -12.0 2.65 -11.9 2.45 -11.8 2.5 -11.9 2.45 -12.0 Q0.85 -13.4 0.75 -15.45 L1.2 -15.25 1.25 -15.35 1.65 -15.2 M3.8 -12.8 L6.15 -11.9 5.8 -9.0 5.8 -8.95 Q6.3 -6.65 5.6 -4.55 L5.55 -4.5 5.6 -4.45 Q6.9 -2.4 6.35 0.35 L6.2 1.15 Q5.35 0.2 3.9 0.25 4.8 -1.7 3.75 -4.1 L4.15 -6.35 4.15 -6.4 4.2 -6.7 4.25 -7.15 4.35 -7.2 4.4 -7.3 4.35 -7.4 4.3 -7.45 3.8 -6.4 2.25 -5.2 2.45 -4.5 2.3 -2.45 2.0 -0.2 Q0.7 -1.05 -0.7 -0.5 L0.05 -2.2 0.35 -3.9 0.35 -5.75 0.45 -6.0 0.65 -6.3 1.85 -7.7 3.15 -9.05 3.4 -9.15 3.3 -9.3 3.35 -9.35 3.4 -9.5 Q3.0 -10.7 2.95 -11.95 L3.75 -12.75 3.8 -12.8 M7.25 -10.0 L7.25 -10.1 Q6.85 -10.85 7.05 -11.55 L9.05 -10.75 Q8.4 -10.1 7.25 -10.0 M14.0 8.15 Q13.2 8.9 12.35 9.15 L12.3 9.15 Q11.45 9.35 11.05 8.95 10.65 8.5 10.9 7.65 11.05 7.1 11.65 7.0 L12.5 7.0 Q13.65 7.2 14.35 6.45 L15.1 5.65 15.05 6.55 Q14.9 7.25 14.0 8.15 M10.35 7.6 Q9.95 8.8 10.55 9.45 11.15 10.05 12.35 9.8 L12.4 10.65 12.25 12.15 11.25 11.55 Q9.75 10.35 8.85 11.3 7.9 12.15 8.15 13.0 8.4 13.85 9.65 14.2 L11.6 14.2 Q11.0 15.4 9.7 16.7 L9.3 16.65 8.8 16.45 8.25 16.3 7.7 16.0 Q7.2 15.5 6.95 14.65 6.45 12.8 5.15 13.0 3.9 13.15 3.6 14.0 3.25 14.8 4.1 15.8 4.95 16.75 6.4 17.3 7.75 17.8 8.65 17.75 L8.5 17.85 Q5.75 19.9 2.25 20.55 L2.0 20.6 -1.0 20.85 -3.75 20.65 -4.7 20.45 -6.45 20.0 -6.4 18.95 -6.35 18.9 -6.45 17.85 -6.4 17.4 Q-6.15 16.6 -5.3 15.95 -3.75 14.8 -4.35 13.7 -4.95 12.6 -5.85 12.6 -6.75 12.6 -7.35 13.7 -7.95 14.8 -7.95 16.4 -7.95 18.2 -7.35 19.05 L-6.7 19.9 Q-8.75 19.15 -10.45 17.85 -12.1 16.6 -13.0 15.2 L-13.0 15.15 -12.75 14.65 Q-12.15 14.15 -11.25 14.0 -9.35 13.65 -9.4 12.4 -9.45 11.1 -10.2 10.75 -11.0 10.35 -12.05 11.05 -13.1 11.8 -13.8 13.2 L-13.9 13.35 Q-14.35 12.05 -14.35 10.65 L-14.25 9.2 -12.15 9.15 Q-11.3 8.2 -11.55 7.35 -11.85 6.5 -13.15 6.3 -12.2 4.7 -10.45 3.4 -8.15 1.6 -5.25 0.9 L-1.0 0.45 2.25 0.7 Q5.75 1.35 8.5 3.4 10.4 4.85 11.4 6.65 10.55 6.8 10.35 7.6 M8.85 13.05 Q8.7 12.4 9.35 11.8 9.95 11.15 11.05 12.0 L11.75 12.4 Q12.35 12.6 12.95 12.4 L13.95 12.05 13.5 12.85 11.8 13.75 11.25 13.85 9.9 13.85 Q9.0 13.6 8.85 13.05 M6.55 14.85 Q6.7 15.65 7.2 16.1 L7.75 16.45 8.25 16.65 8.75 16.85 8.55 17.0 7.85 17.1 7.55 17.15 6.05 16.65 Q5.05 16.15 4.55 15.45 4.0 14.7 4.3 14.15 4.55 13.6 5.45 13.55 6.35 13.5 6.55 14.85 M0.9 16.2 Q0.2 17.2 0.65 18.15 L0.65 18.25 0.7 18.3 1.05 19.15 1.0 19.15 0.95 19.15 0.25 18.7 Q-0.35 18.3 -0.8 17.1 -1.15 16.05 -0.95 15.15 -0.8 14.25 -0.25 14.1 0.35 13.85 1.0 14.5 1.65 15.1 0.9 16.2 M1.3 16.35 Q2.2 14.6 1.15 13.9 0.15 13.15 -0.65 13.55 -1.45 13.9 -1.55 15.2 -1.6 16.45 -0.9 17.85 -0.15 19.5 0.8 20.0 1.95 20.65 2.0 20.5 L1.45 19.45 1.45 19.4 1.3 19.05 1.35 19.05 1.35 19.0 0.95 18.25 Q0.8 17.3 1.3 16.35 M-16.7 8.05 Q-16.3 7.45 -15.05 7.05 L-13.15 6.8 Q-12.25 6.95 -12.05 7.55 -11.85 8.1 -12.45 8.8 L-13.95 8.85 -14.15 8.7 Q-15.15 8.0 -16.1 8.45 L-17.1 8.85 -16.7 8.05 M-10.5 11.3 Q-10.0 11.65 -10.05 12.55 -10.1 13.45 -11.45 13.5 -12.35 13.55 -12.85 14.05 L-13.15 14.5 -13.15 14.55 -13.7 15.4 -13.85 14.55 Q-13.9 13.85 -13.25 12.85 L-13.2 12.75 Q-12.6 11.8 -11.8 11.4 L-10.5 11.3 M-5.45 13.35 Q-4.85 13.45 -4.6 14.3 -4.35 15.15 -5.55 15.75 -6.4 16.1 -6.7 16.8 L-6.8 17.25 -6.95 18.3 -7.0 18.3 -7.1 18.25 -7.15 18.2 -7.45 17.55 Q-7.75 16.85 -7.45 15.6 -7.25 14.55 -6.65 13.85 -6.05 13.2 -5.45 13.35" fill="#000000" fill-rule="evenodd" stroke="none"/>
  </g>
</svg>
