<?xml version="1.0" encoding="UTF-8" standalone="no"?>
<svg xmlns:xlink="http://www.w3.org/1999/xlink" height="4.0px" width="6.25px" xmlns="http://www.w3.org/2000/svg">
  <g transform="matrix(1.0, 0.0, 0.0, 1.0, 12.15, 37.15)">
    <path d="M-11.4 -37.0 L-11.0 -37.1 -11.0 -37.15 Q-10.4 -37.25 -10.0 -36.8 L-9.9 -36.65 -9.9 -36.25 -9.9 -35.75 Q-9.25 -35.75 -8.75 -35.3 L-8.65 -35.15 -8.55 -35.05 -8.3 -35.05 Q-6.7 -35.95 -5.9 -34.45 L-5.95 -34.25 -6.25 -33.95 Q-6.8 -33.8 -7.4 -33.95 L-7.4 -33.75 -7.45 -33.55 -7.5 -33.4 -7.65 -33.25 -7.75 -33.2 -8.0 -33.15 Q-9.1 -33.4 -9.7 -34.25 -10.55 -34.2 -11.15 -34.75 L-11.25 -34.7 -11.5 -34.65 -11.85 -34.8 -12.05 -34.95 -12.15 -35.5 -12.15 -36.25 -11.7 -36.65 -11.4 -37.0" fill="#000000" fill-rule="evenodd" stroke="none"/>
  </g>
</svg>
