<?xml version="1.0" encoding="UTF-8" standalone="no"?>
<svg xmlns:xlink="http://www.w3.org/1999/xlink" height="46.0px" width="46.5px" xmlns="http://www.w3.org/2000/svg">
  <g transform="matrix(1.0, 0.0, 0.0, 1.0, 23.25, 23.0)">
    <path d="M16.05 -15.9 Q22.75 -9.3 22.75 0.0 22.75 9.3 16.05 15.9 9.4 22.5 0.0 22.5 -9.4 22.5 -16.1 15.9 -22.75 9.3 -22.75 0.0 -22.75 -9.3 -16.1 -15.9 -9.4 -22.5 0.0 -22.5 9.4 -22.5 16.05 -15.9 Z" fill="none" stroke="#000000" stroke-linecap="round" stroke-linejoin="round" stroke-width="1.0"/>
    <path d="M3.95 -14.4 L3.8 -14.25 2.75 -14.65 -2.15 -16.4 -2.15 -16.9 Q-2.2 -18.4 -1.1 -19.45 -0.05 -20.5 1.4 -20.5 2.85 -20.5 3.95 -19.45 5.0 -18.4 5.0 -16.9 5.0 -15.45 3.95 -14.4 M5.6 -1.9 L5.6 -1.75 Q7.65 -1.9 8.85 -3.1 L5.25 -4.55 Q4.85 -3.25 5.6 -1.9 M3.55 -13.6 L4.6 -13.2 Q23.95 -5.8 21.6 0.8 L10.75 -3.5 Q5.8 -9.45 -2.7 -12.55 L-1.6 -15.45 -1.35 -15.35 3.55 -13.6 M17.2 14.75 L16.05 15.9 Q9.4 22.5 0.0 22.5 -7.1 22.5 -12.6 18.75 L-12.75 18.1 -13.15 17.7 -14.6 16.5 -14.6 16.45 -14.6 16.4 -14.55 16.35 -14.35 16.2 -14.25 16.1 Q-13.75 15.3 -14.7 15.1 -15.25 15.2 -15.5 15.75 L-15.65 16.3 -16.1 15.9 Q-22.75 9.3 -22.75 0.0 -22.75 -9.05 -16.45 -15.55 L-9.85 -14.55 -9.15 -16.15 -3.1 -13.75 -3.45 -12.8 -2.7 -12.55 -4.0 -9.35 10.75 -3.5 Q16.55 3.55 17.2 14.75 M-3.45 -12.8 Q-6.45 -13.85 -9.85 -14.55 L-9.95 -14.2 -3.85 -11.8 -3.45 -12.8 M1.95 16.3 L1.5 16.25 Q0.85 16.4 0.3 16.8 L-0.5 17.55 -0.65 17.7 -0.95 17.8 -1.05 17.75 -1.15 17.65 -1.15 17.4 -1.15 17.0 -1.15 16.95 Q-0.65 16.05 -1.6 15.8 -1.8 15.8 -1.9 15.95 -2.3 16.35 -2.35 16.9 -2.6 18.2 -1.45 18.85 L-0.7 18.9 Q0.3 18.5 1.0 17.6 L1.8 17.3 1.85 17.3 2.2 16.95 2.2 16.75 2.2 16.65 1.95 16.3 M1.0 10.6 L0.65 10.65 0.05 10.75 -0.2 10.75 Q0.8 14.1 -0.55 16.9 L-0.35 16.85 0.45 16.1 Q1.0 15.7 1.65 15.55 2.25 15.45 2.35 15.95 L2.35 16.05 2.6 16.4 2.6 16.5 2.6 16.7 3.95 17.15 3.95 17.1 Q4.45 14.75 4.15 12.7 3.7 13.1 3.35 13.05 2.85 13.1 2.4 12.55 L1.7 11.25 1.6 11.0 Q1.4 10.65 1.0 10.6 M0.1 2.9 L0.3 3.0 0.35 3.2 0.3 3.35 0.1 3.45 0.05 4.25 0.0 4.85 -0.75 8.75 Q-0.6 8.45 -0.1 8.4 L0.55 8.25 Q1.7 8.2 2.4 9.1 L2.65 9.55 2.9 10.05 3.05 10.6 3.0 10.65 2.75 10.15 2.5 9.7 Q1.8 8.8 0.65 8.85 L0.0 9.0 Q-0.5 9.05 -0.65 9.35 L-0.7 9.4 -0.75 9.8 -0.45 10.2 -0.35 10.2 -0.2 10.25 0.05 10.25 0.4 10.15 1.0 10.1 Q1.4 10.15 1.6 10.5 L1.7 10.75 2.4 12.05 Q2.85 12.6 3.35 12.55 L3.9 12.2 4.0 12.05 4.0 12.0 4.0 11.75 3.9 11.5 3.85 11.45 3.2 11.25 3.0 10.7 3.1 10.65 Q3.5 10.55 3.75 10.85 L2.55 8.35 2.5 8.25 2.55 8.15 Q3.9 4.35 3.0 0.15 L3.0 0.1 Q3.1 -2.7 3.6 -5.2 L-0.7 -6.85 -2.2 -5.25 Q-2.15 -3.0 -1.45 -0.8 L-1.5 -0.55 -1.65 -0.45 -1.75 -0.45 -1.8 -0.25 -1.85 -0.25 -1.8 -0.25 -1.35 -0.4 -0.95 -0.2 Q-0.35 0.0 -0.4 0.4 L-0.45 0.7 -0.65 0.95 -1.05 1.3 -1.1 1.3 -1.3 1.45 -1.6 1.7 -1.7 1.8 -1.85 2.0 -2.0 2.55 -0.15 2.9 0.1 2.9 M-5.4 -11.3 L-6.25 -11.6 Q-6.0 -7.85 -3.15 -5.35 L-3.05 -5.2 -3.1 -5.0 -2.75 -5.2 -2.75 -5.35 -2.7 -5.5 -2.65 -5.6 -1.2 -7.1 -5.55 -8.8 -4.6 -11.15 -5.35 -11.45 -5.4 -11.3 M-1.05 0.5 L-1.2 0.25 -1.6 0.05 -2.05 0.2 -2.1 0.2 -2.2 0.3 -2.35 0.35 -2.55 0.5 -3.25 1.15 -3.6 1.75 -3.65 2.0 -3.7 2.25 -3.75 2.5 Q-3.8 3.65 -2.95 4.5 -2.65 4.8 -2.75 5.2 L-3.4 7.0 Q-3.75 7.65 -3.05 7.95 L-2.65 7.8 Q-1.85 6.75 -1.55 5.5 L-1.55 4.95 Q-1.9 3.75 -2.65 2.8 L-2.65 2.65 -2.5 2.1 -2.35 1.9 -2.25 1.8 -1.95 1.55 -1.75 1.4 -1.7 1.4 -1.3 1.05 -1.1 0.8 -1.05 0.5 M-8.25 -2.25 Q-8.35 -2.25 -8.45 -2.35 -10.0 1.75 -9.45 6.1 L-5.75 6.35 -5.95 1.4 -5.85 1.2 -5.65 1.15 Q-5.55 1.1 -5.5 1.2 L-5.4 1.4 -5.3 1.45 -4.05 1.95 -4.0 1.7 -3.65 1.1 -2.95 0.45 -2.75 0.3 -2.3 0.05 -1.95 -0.15 -2.0 -0.15 -2.2 -0.25 Q-4.6 -2.85 -8.25 -2.25 M-5.2 10.7 Q-4.25 11.35 -4.2 12.3 -4.25 13.2 -5.2 13.9 -6.2 14.55 -7.6 14.55 -9.0 14.55 -10.0 13.9 -11.0 13.2 -10.95 12.3 -11.0 11.35 -10.0 10.7 -9.0 10.0 -7.6 10.0 -6.2 10.0 -5.2 10.7 M-16.15 10.85 L-15.95 11.1 -14.95 11.25 -14.8 10.95 Q-14.9 9.9 -15.95 9.65 L-17.15 9.45 -17.55 9.65 Q-18.8 10.35 -19.15 11.7 -18.55 11.95 -18.45 12.7 L-17.85 11.55 -17.55 11.0 -17.25 10.7 -16.15 10.85 M-14.3 5.3 Q-13.75 4.15 -14.2 2.95 -14.7 1.55 -16.2 1.45 L-16.6 1.7 Q-16.95 2.3 -16.25 2.55 L-15.65 2.75 -15.3 3.1 Q-15.05 3.55 -15.2 4.0 L-15.55 5.5 Q-15.8 7.4 -14.2 8.4 L-13.4 8.7 Q-12.75 8.75 -12.65 8.1 -12.7 7.65 -13.1 7.6 -14.25 7.4 -14.45 6.2 -14.55 5.7 -14.3 5.3 M-0.85 12.3 Q-0.9 10.4 -2.85 9.05 -4.8 7.75 -7.6 7.75 -10.45 7.75 -12.4 9.05 -14.35 10.4 -14.35 12.3 -14.35 14.15 -12.4 15.5 -10.45 16.8 -7.6 16.8 -4.8 16.8 -2.85 15.5 -0.9 14.15 -0.85 12.3" fill="#000000" fill-rule="evenodd" stroke="none"/>
    <path d="M-12.6 18.75 L-12.65 19.05 Q-13.8 17.75 -15.25 16.95 L-15.3 16.9 -15.7 16.5 -15.65 16.3 -12.6 18.75 M-13.9 19.35 L-13.8 19.45 -13.9 19.45 -13.9 19.35" fill="#00ff33" fill-rule="evenodd" stroke="none"/>
    <path d="M-16.45 -15.55 L-16.1 -15.9 Q-9.4 -22.5 0.0 -22.5 9.4 -22.5 16.05 -15.9 22.75 -9.3 22.75 0.0 22.75 8.5 17.2 14.75 L16.05 15.9 Q9.4 22.5 0.0 22.5 -7.1 22.5 -12.6 18.75 L-15.65 16.3 -16.1 15.9 Q-22.75 9.3 -22.75 0.0 -22.75 -9.05 -16.45 -15.55 Z" fill="none" stroke="#000000" stroke-linecap="round" stroke-linejoin="round" stroke-width="1.0"/>
  </g>
</svg>
