<?xml version="1.0" encoding="UTF-8" standalone="no"?>
<svg xmlns:xlink="http://www.w3.org/1999/xlink" height="46.0px" width="46.5px" xmlns="http://www.w3.org/2000/svg">
  <g transform="matrix(1.0, 0.0, 0.0, 1.0, 23.25, 23.0)">
    <path d="M16.05 -15.9 Q22.75 -9.3 22.75 0.0 22.75 9.3 16.05 15.9 9.4 22.5 0.0 22.5 -9.4 22.5 -16.1 15.9 -22.75 9.3 -22.75 0.0 -22.75 -9.3 -16.1 -15.9 -9.4 -22.5 0.0 -22.5 9.4 -22.5 16.05 -15.9 Z" fill="none" stroke="#000000" stroke-linecap="round" stroke-linejoin="round" stroke-width="1.0"/>
    <path d="M3.05 -13.35 L4.1 -12.95 Q13.25 -9.5 17.55 -6.15 L17.4 -5.95 14.4 -1.9 14.25 -1.7 -4.5 -9.1 -2.1 -15.2 -1.85 -15.1 3.05 -13.35 M3.45 -19.2 Q4.5 -18.15 4.5 -16.65 4.5 -15.2 3.45 -14.15 L3.3 -14.0 2.25 -14.4 -2.4 -16.05 -2.45 -16.1 -2.65 -16.15 -2.65 -16.65 -2.3 -18.2 -2.15 -18.5 -1.6 -19.2 Q-0.55 -20.25 0.9 -20.25 2.35 -20.25 3.45 -19.2 M2.55 -0.3 L3.0 0.45 3.1 0.6 3.2 1.55 3.2 2.35 3.2 2.4 3.1 3.6 3.0 3.75 2.7 4.05 2.6 4.2 2.45 4.3 2.35 4.35 2.25 4.35 1.7 4.4 1.3 4.3 0.7 3.95 0.65 3.75 0.65 3.5 0.45 3.15 0.35 3.0 0.4 3.0 0.45 2.8 0.6 2.65 0.6 2.6 0.8 2.65 1.45 3.35 1.5 3.5 1.55 3.55 2.0 3.55 2.05 3.45 2.1 3.4 2.25 3.05 2.3 2.85 2.3 2.8 2.25 2.7 2.25 2.55 2.25 2.5 2.25 2.25 2.25 2.2 2.25 2.1 2.25 1.95 2.2 1.85 2.15 1.75 2.0 1.55 2.0 1.5 1.95 1.35 1.9 1.25 1.9 1.2 1.85 1.0 1.7 0.8 1.6 0.75 1.5 0.75 0.35 0.75 0.15 0.9 -0.15 1.1 -0.3 1.2 -0.4 1.75 -0.3 3.8 Q1.4 4.7 1.4 6.55 L1.35 7.5 1.25 8.05 Q0.4 9.45 -1.25 9.0 L-1.45 8.95 -1.65 8.85 -1.9 8.75 -3.75 8.8 Q-4.3 8.85 -4.55 8.35 L-4.6 8.2 -4.6 7.8 -4.55 7.6 Q-3.0 6.65 -1.25 7.05 L-0.45 7.3 -0.35 7.1 -0.15 6.55 -0.1 6.5 0.0 6.35 -0.05 6.25 -0.1 6.2 -0.25 5.8 -0.4 5.6 -0.85 5.25 -1.0 5.1 Q-1.6 4.45 -1.75 3.6 L-1.75 3.3 -1.8 3.1 -1.75 2.8 -1.75 2.7 -1.75 2.4 -1.65 0.75 -1.45 0.55 -0.15 -0.5 0.0 -0.55 0.25 -0.6 0.25 -0.65 Q1.35 -0.95 2.05 -0.65 L2.55 -0.3 M2.05 -1.05 L1.55 -1.4 Q0.85 -1.7 -0.25 -1.4 L-0.25 -1.35 -0.5 -1.3 -0.65 -1.25 -1.95 -0.2 -2.15 0.0 -2.25 1.65 -2.25 2.45 -2.25 2.55 -2.3 2.85 -3.3 2.6 -3.3 2.3 Q-3.4 1.2 -4.0 0.65 L-4.3 0.1 Q-4.85 -0.6 -6.0 -0.75 L-6.7 -0.8 -6.8 -0.9 -6.85 -1.0 -7.65 -1.95 -7.75 -1.95 -7.9 -1.85 -8.1 -1.55 -8.4 -1.95 -8.5 -1.95 -8.65 -1.85 -8.95 -1.4 -9.05 -0.8 -8.75 -0.35 -8.8 -0.05 -8.45 0.5 Q-7.75 1.55 -6.45 1.7 L-6.45 2.85 -6.65 2.7 -6.7 2.55 -6.7 2.5 -6.95 2.1 Q-7.15 1.9 -7.45 1.85 L-9.15 1.7 -9.2 1.7 -9.9 1.7 -8.95 -2.1 Q-8.85 -2.0 -8.75 -2.0 -5.1 -2.6 -2.7 0.0 L-2.5 0.1 -2.3 0.0 -2.25 -0.2 -2.15 -0.2 -2.0 -0.3 -1.95 -0.55 Q-2.65 -2.75 -2.7 -5.0 L-1.2 -6.6 3.1 -4.95 Q2.7 -3.0 2.55 -0.9 L2.05 -1.05 M5.1 -1.5 L5.1 -1.65 Q4.35 -3.0 4.75 -4.3 L8.35 -2.85 Q7.15 -1.65 5.1 -1.5 M1.55 4.8 L1.95 4.9 2.5 4.85 2.6 4.85 2.7 4.8 2.85 4.7 Q2.7 6.6 2.05 8.4 L2.0 8.5 2.05 8.6 2.65 9.65 1.9 9.95 -0.85 10.35 -1.2 9.45 -1.0 9.5 Q0.65 9.95 1.5 8.55 L1.6 8.0 1.75 7.8 1.9 6.3 Q1.9 5.45 1.55 4.8 M1.5 1.3 L1.65 1.5 1.7 1.6 1.75 1.7 1.75 1.85 1.75 1.95 1.75 2.0 1.75 2.25 1.75 2.3 1.6 2.65 1.3 2.4 1.1 2.35 0.95 2.55 0.95 2.6 0.3 1.9 0.1 1.85 0.1 1.6 0.4 1.4 0.6 1.25 1.5 1.25 1.5 1.3 M-9.9 -15.35 L-9.65 -15.9 -3.6 -13.5 -4.35 -11.55 -10.45 -13.95 -9.9 -15.35 M-3.4 -18.5 L-3.55 -18.2 Q-3.95 -17.5 -3.9 -16.65 L-3.9 -16.15 -3.7 -16.1 -4.45 -14.85 -9.3 -16.75 Q-6.4 -18.6 -3.3 -18.7 L-3.4 -18.5 M-11.25 -15.25 L-11.15 -15.35 -11.7 -13.95 -6.75 -12.0 -6.7 -11.65 -6.85 -11.7 -6.9 -11.55 -7.75 -11.85 -7.75 -11.5 -7.7 -11.25 -8.0 -11.35 -8.0 -11.0 -7.95 -10.65 -7.5 -8.8 -10.65 -1.6 Q-11.8 0.95 -11.7 3.15 L-11.8 3.7 -11.8 4.75 -11.7 4.95 -11.55 5.15 -11.55 5.5 -11.45 5.7 -11.35 5.85 -11.4 6.05 -11.35 6.45 -11.3 6.6 -11.15 6.8 -11.1 7.2 -12.95 7.75 Q-12.75 7.25 -12.85 6.45 -13.15 4.1 -15.7 3.6 -16.1 3.05 -15.8 2.5 -15.35 1.7 -15.2 0.8 -14.9 -1.35 -16.25 -2.2 L-17.05 -2.6 -16.6 -4.5 -15.9 -8.55 Q-14.15 -12.65 -11.35 -15.2 L-11.25 -15.25 M-18.8 -2.4 L-18.5 -2.45 -18.5 -2.5 -17.8 -2.35 -17.0 -1.95 Q-15.65 -1.1 -15.95 1.05 -16.1 1.95 -16.55 2.75 -16.85 3.3 -16.45 3.85 -13.9 4.35 -13.6 6.7 -13.5 7.5 -13.7 8.0 -14.0 8.85 -15.15 8.8 L-15.2 8.8 -15.55 8.6 Q-15.7 7.9 -15.35 7.3 L-15.05 6.75 -17.65 4.95 -18.0 4.65 -18.35 3.6 -18.3 2.3 -17.95 1.7 -17.65 1.25 -17.5 1.05 -17.15 0.6 -17.15 -0.3 -17.15 -0.45 -17.2 -0.65 -17.25 -0.8 -17.3 -0.9 -17.4 -0.9 Q-18.4 -1.2 -19.2 -1.65 L-19.0 -2.2 -18.8 -2.4 M-5.85 -11.2 L-5.1 -10.9 -6.05 -8.55 -1.7 -6.85 -3.15 -5.35 -3.2 -5.25 -3.25 -5.1 -3.25 -4.95 -3.6 -4.75 -3.55 -4.95 -3.65 -5.1 Q-5.5 -6.7 -6.25 -8.8 L-6.7 -10.65 -6.75 -11.0 -6.75 -11.35 -5.95 -11.05 -5.9 -11.05 -5.85 -11.2 M-8.0 -1.45 L-7.9 -1.45 -7.1 -0.5 -7.05 -0.4 -6.95 -0.3 -6.25 -0.25 Q-5.1 -0.1 -4.55 0.6 L-4.25 1.15 -4.05 2.05 -4.05 2.35 -4.15 3.25 Q-4.6 5.75 -6.05 5.5 L-7.45 4.85 -8.5 3.7 -9.3 3.6 -9.4 3.85 -9.65 4.4 -9.7 4.55 Q-9.15 5.25 -8.95 6.05 L-8.95 6.15 Q-8.75 6.8 -9.15 7.35 L-10.65 7.3 -10.8 7.1 -10.85 6.95 -10.9 6.55 -10.85 6.35 -10.8 6.2 -10.85 6.1 -10.95 5.8 -11.05 5.65 -11.2 5.45 -11.3 5.25 -11.3 4.2 -11.2 3.65 Q-10.9 2.5 -9.75 2.25 L-9.55 2.2 -9.45 2.2 -9.4 2.2 -7.7 2.35 Q-7.4 2.4 -7.2 2.6 L-6.95 3.0 -6.95 3.05 -6.9 3.2 -6.2 3.95 -6.15 3.95 -5.95 3.85 -5.55 2.55 Q-5.5 1.95 -5.9 1.45 L-6.2 1.45 Q-7.5 1.3 -8.2 0.25 L-8.25 0.15 -8.55 -0.3 -8.45 -0.9 -8.35 -1.05 -8.15 -1.35 -8.0 -1.45 M-8.95 4.8 L-8.9 4.65 -8.65 4.1 -7.7 5.1 Q-6.95 5.65 -6.3 5.75 L-6.25 6.6 -8.2 6.4 -8.2 6.3 Q-8.4 5.5 -8.95 4.8 M-9.1 8.05 Q-6.15 8.0 -4.05 9.4 L-3.1 10.2 -3.8 10.15 -7.25 10.25 Q-8.95 10.35 -10.5 12.4 L-10.5 12.45 Q-11.05 13.4 -10.2 13.95 L-9.4 14.5 Q-8.8 14.9 -8.45 15.45 L-7.75 16.3 -7.6 16.45 -6.5 17.25 -9.1 17.55 Q-12.05 17.55 -14.15 16.15 -16.1 14.85 -16.2 13.0 L-16.2 12.8 -16.1 12.0 -15.95 11.45 -15.7 10.95 Q-15.2 10.1 -14.15 9.4 L-13.85 9.2 Q-12.4 8.3 -10.45 8.1 L-10.25 8.1 -9.25 8.05 -9.1 8.05 M-18.5 5.15 L-18.15 5.45 -15.55 7.25 -15.85 7.8 Q-16.2 8.4 -16.05 9.1 L-15.7 9.3 Q-16.6 10.05 -16.95 10.95 L-17.2 11.45 Q-17.95 10.45 -18.0 8.55 -18.0 7.25 -18.3 6.3 L-18.5 5.15 M-17.65 0.05 L-17.65 0.2 -17.65 1.1 -18.0 1.55 -18.15 1.75 -17.7 0.1 -17.65 0.05" fill="#000000" fill-rule="evenodd" stroke="none"/>
    <path d="M20.2 -6.95 L20.25 -6.95 20.3 -6.9 Q21.35 -4.8 21.5 -2.4 L21.25 0.65 21.0 1.75 Q19.85 5.9 16.3 9.7 L12.85 11.95 Q10.85 13.25 9.0 14.7 L6.4 16.7 4.85 17.45 4.85 17.4 3.55 17.65 3.55 17.7 Q2.5 17.75 1.35 18.3 L-1.8 18.6 -2.9 18.15 -4.75 17.75 -5.85 16.95 -6.0 16.8 -6.7 15.95 Q-7.05 15.4 -7.65 15.0 L-8.45 14.45 Q-9.3 13.9 -8.75 12.95 L-8.75 12.9 Q-7.2 10.85 -5.5 10.75 L-2.05 10.65 -1.35 10.7 -0.15 10.75 0.65 10.85 0.9 10.85 3.65 10.45 4.4 10.15 Q6.15 9.3 7.85 7.55 L14.35 0.65 16.0 -1.2 16.15 -1.4 19.15 -5.45 19.3 -5.65 20.1 -6.9 20.2 -6.95" fill="#000000" fill-rule="evenodd" stroke="none"/>
  </g>
</svg>
