<?xml version="1.0" encoding="UTF-8" standalone="no"?>
<svg xmlns:xlink="http://www.w3.org/1999/xlink" height="3.35px" width="9.25px" xmlns="http://www.w3.org/2000/svg">
  <g transform="matrix(1.0, 0.0, 0.0, 1.0, -21.35, 63.9)">
    <path d="M30.6 -63.4 L30.6 -63.0 30.6 -62.65 30.0 -61.9 29.85 -61.75 Q28.95 -61.2 27.85 -61.15 L27.55 -60.8 27.25 -60.65 Q26.65 -60.55 26.35 -61.05 25.8 -61.15 25.55 -61.65 25.1 -61.3 25.0 -60.75 L24.95 -60.55 Q22.95 -60.5 21.35 -61.65 21.55 -62.45 22.5 -62.8 L22.75 -62.9 23.8 -62.0 24.05 -61.95 24.35 -62.45 24.45 -62.8 Q25.8 -64.0 26.6 -62.7 27.15 -62.25 28.0 -62.9 L29.0 -62.95 Q29.25 -63.7 30.0 -63.85 L30.0 -63.9 30.45 -63.55 30.6 -63.4" fill="#000000" fill-rule="evenodd" stroke="none"/>
  </g>
</svg>
