<?xml version="1.0" encoding="UTF-8" standalone="no"?>
<svg xmlns:xlink="http://www.w3.org/1999/xlink" height="9.25px" width="3.5px" xmlns="http://www.w3.org/2000/svg">
  <g transform="matrix(1.0, 0.0, 0.0, 1.0, -38.35, 36.9)">
    <path d="M39.5 -36.9 Q40.1 -37.0 40.5 -36.55 L40.6 -36.4 40.6 -35.65 40.7 -34.95 41.05 -34.7 41.35 -34.4 41.3 -31.95 41.05 -31.45 41.5 -31.2 41.85 -30.9 41.85 -28.45 41.75 -27.9 41.6 -27.75 41.5 -27.7 41.25 -27.65 Q41.05 -27.7 40.9 -27.8 L40.7 -27.95 40.6 -28.9 40.55 -29.65 39.5 -28.8 39.25 -28.65 Q38.75 -28.55 38.45 -28.95 L38.35 -29.15 39.55 -31.55 39.6 -31.75 39.8 -31.95 40.1 -32.3 40.1 -32.9 40.1 -33.45 39.4 -34.05 39.2 -34.2 39.15 -34.4 39.1 -34.75 39.1 -34.95 39.05 -35.1 38.6 -35.5 38.75 -36.3 39.1 -36.75 39.25 -36.8 39.5 -36.85 39.5 -36.9" fill="#000000" fill-rule="evenodd" stroke="none"/>
  </g>
</svg>
