<?xml version="1.0" encoding="UTF-8" standalone="no"?>
<svg xmlns:xlink="http://www.w3.org/1999/xlink" height="30.3px" width="36.45px" xmlns="http://www.w3.org/2000/svg">
  <g transform="matrix(1.0, 0.0, 0.0, 1.0, -17.0, 72.15)">
    <path d="M52.4 -64.65 L52.35 -64.5 52.0 -63.7 Q51.25 -60.4 49.95 -57.4 47.3 -51.0 53.1 -48.25 L53.45 -47.7 Q51.0 -44.25 47.5 -41.9 L31.0 -41.9 30.25 -42.0 Q25.25 -43.6 21.75 -47.7 18.8 -51.2 17.1 -55.75 16.4 -61.55 19.65 -66.3 L20.35 -67.3 23.3 -69.0 Q23.2 -66.0 23.85 -63.0 24.3 -61.05 26.25 -60.95 33.45 -60.65 33.25 -68.0 L34.45 -69.15 Q35.6 -70.45 36.25 -72.05 L36.5 -72.15 37.2 -71.35 37.35 -71.0 Q36.2 -67.6 37.35 -64.25 37.85 -62.75 39.2 -62.05 45.3 -58.8 48.0 -64.65 L52.4 -64.65" fill="url(#gradient0)" fill-rule="evenodd" stroke="none"/>
  </g>
  <defs>
    <radialGradient cx="0" cy="0" gradientTransform="matrix(0.0403, 0.0073, -0.0084, 0.0459, 8.15, -14.15)" gradientUnits="userSpaceOnUse" id="gradient0" r="819.2" spreadMethod="pad">
      <stop offset="0.0" stop-color="#fefe0c"/>
      <stop offset="0.5764705882352941" stop-color="#ffba2b"/>
      <stop offset="1.0" stop-color="#ff720b"/>
    </radialGradient>
  </defs>
</svg>
