<?xml version="1.0" encoding="UTF-8" standalone="no"?>
<svg xmlns:xlink="http://www.w3.org/1999/xlink" height="83.8px" width="36.2px" xmlns="http://www.w3.org/2000/svg">
  <g transform="matrix(1.0, 0.0, 0.0, 1.0, 43.55, 10.45)">
    <path d="M-18.4 6.65 L-11.5 -9.45 -8.35 -8.15 -15.2 7.85 -15.55 8.7 -18.7 7.4 -18.4 6.65" fill="url(#gradient0)" fill-rule="evenodd" stroke="none"/>
    <path d="M-15.2 7.85 L-9.4 9.9 -8.7 10.25 -34.55 72.35 Q-54.65 63.5 -24.1 4.6 L-18.4 6.65 -18.7 7.4 -15.55 8.7 -15.2 7.85" fill="url(#gradient1)" fill-rule="evenodd" stroke="none"/>
    <path d="M-18.4 6.65 L-11.5 -9.45 -8.35 -8.15 -15.2 7.85 -15.55 8.7 -18.7 7.4 -18.4 6.65" fill="none" stroke="#000000" stroke-linecap="round" stroke-linejoin="round" stroke-width="2.0"/>
    <path d="M-15.2 7.85 L-9.4 9.9 M-8.7 10.25 L-8.45 9.6 M-18.4 6.65 L-24.1 4.6 Q-54.65 63.5 -34.55 72.35 L-8.7 10.25" fill="none" stroke="#000000" stroke-linecap="round" stroke-linejoin="round" stroke-width="2.0"/>
  </g>
  <defs>
    <linearGradient gradientTransform="matrix(0.0086, -0.0031, 0.0033, 0.009, -13.55, -0.4)" gradientUnits="userSpaceOnUse" id="gradient0" spreadMethod="pad" x1="-819.2" x2="819.2">
      <stop offset="0.0" stop-color="#9e5605"/>
      <stop offset="0.7725490196078432" stop-color="#d2b08b"/>
      <stop offset="1.0" stop-color="#ffffff"/>
    </linearGradient>
    <linearGradient gradientTransform="matrix(0.0283, -0.0103, 0.0125, 0.0345, -25.25, 37.0)" gradientUnits="userSpaceOnUse" id="gradient1" spreadMethod="pad" x1="-819.2" x2="819.2">
      <stop offset="0.0" stop-color="#999999"/>
      <stop offset="0.4588235294117647" stop-color="#999999"/>
      <stop offset="1.0" stop-color="#ffffff"/>
    </linearGradient>
  </defs>
</svg>
