<?xml version="1.0" encoding="UTF-8" standalone="no"?>
<svg xmlns:xlink="http://www.w3.org/1999/xlink" height="86.8px" width="20.8px" xmlns="http://www.w3.org/2000/svg">
  <g transform="matrix(1.0, 0.0, 0.0, 1.0, 22.85, 8.95)">
    <path d="M-13.4 9.6 L-12.45 -7.95 -9.05 -7.75 -10.0 9.65 -10.0 10.55 -13.45 10.4 -13.4 9.6" fill="url(#gradient0)" fill-rule="evenodd" stroke="none"/>
    <path d="M-10.0 9.65 L-3.8 9.6 -3.05 9.65 -6.1 76.85 Q-28.05 75.4 -19.4 9.65 L-13.4 9.6 -13.45 10.4 -10.0 10.55 -10.0 9.65" fill="url(#gradient1)" fill-rule="evenodd" stroke="none"/>
    <path d="M-13.4 9.6 L-12.45 -7.95 -9.05 -7.75 -10.0 9.65 -10.0 10.55 -13.45 10.4 -13.4 9.6" fill="none" stroke="#000000" stroke-linecap="round" stroke-linejoin="round" stroke-width="2.0"/>
    <path d="M-10.0 9.65 L-3.8 9.6 M-3.05 9.65 L-3.05 8.95 M-13.4 9.6 L-19.4 9.65 Q-28.05 75.4 -6.1 76.85 L-3.05 9.65" fill="none" stroke="#000000" stroke-linecap="round" stroke-linejoin="round" stroke-width="2.0"/>
  </g>
  <defs>
    <linearGradient gradientTransform="matrix(0.007, -0.0059, 0.0062, 0.0074, -11.25, 1.35)" gradientUnits="userSpaceOnUse" id="gradient0" spreadMethod="pad" x1="-819.2" x2="819.2">
      <stop offset="0.0" stop-color="#9e5605"/>
      <stop offset="0.7725490196078432" stop-color="#d2b08b"/>
      <stop offset="1.0" stop-color="#ffffff"/>
    </linearGradient>
    <linearGradient gradientTransform="matrix(0.0231, -0.0194, 0.0236, 0.0281, -9.45, 40.5)" gradientUnits="userSpaceOnUse" id="gradient1" spreadMethod="pad" x1="-819.2" x2="819.2">
      <stop offset="0.0" stop-color="#999999"/>
      <stop offset="0.4588235294117647" stop-color="#999999"/>
      <stop offset="1.0" stop-color="#ffffff"/>
    </linearGradient>
  </defs>
</svg>
