<?xml version="1.0" encoding="UTF-8" standalone="no"?>
<svg xmlns:xlink="http://www.w3.org/1999/xlink" height="86.6px" width="27.85px" xmlns="http://www.w3.org/2000/svg">
  <g transform="matrix(1.0, 0.0, 0.0, 1.0, 32.35, 9.85)">
    <path d="M-15.8 8.25 L-11.85 -8.85 -8.5 -8.1 -12.45 8.9 -12.65 9.8 -16.0 9.05 -15.8 8.25" fill="url(#gradient0)" fill-rule="evenodd" stroke="none"/>
    <path d="M-12.45 8.9 L-6.35 9.9 -5.65 10.1 -20.3 75.75 Q-41.65 70.5 -21.75 7.25 L-15.8 8.25 -16.0 9.05 -12.65 9.8 -12.45 8.9" fill="url(#gradient1)" fill-rule="evenodd" stroke="none"/>
    <path d="M-15.8 8.25 L-11.85 -8.85 -8.5 -8.1 -12.45 8.9 -12.65 9.8 -16.0 9.05 -15.8 8.25" fill="none" stroke="#000000" stroke-linecap="round" stroke-linejoin="round" stroke-width="2.0"/>
    <path d="M-12.45 8.9 L-6.35 9.9 M-5.65 10.1 L-5.5 9.4 M-15.8 8.25 L-21.75 7.25 Q-41.65 70.5 -20.3 75.75 L-5.65 10.1" fill="none" stroke="#000000" stroke-linecap="round" stroke-linejoin="round" stroke-width="2.0"/>
  </g>
  <defs>
    <linearGradient gradientTransform="matrix(0.0079, -0.0046, 0.0048, 0.0083, -12.25, 0.5)" gradientUnits="userSpaceOnUse" id="gradient0" spreadMethod="pad" x1="-819.2" x2="819.2">
      <stop offset="0.0" stop-color="#9e5605"/>
      <stop offset="0.7725490196078432" stop-color="#d2b08b"/>
      <stop offset="1.0" stop-color="#ffffff"/>
    </linearGradient>
    <linearGradient gradientTransform="matrix(0.0261, -0.0151, 0.0183, 0.0318, -17.3, 39.35)" gradientUnits="userSpaceOnUse" id="gradient1" spreadMethod="pad" x1="-819.2" x2="819.2">
      <stop offset="0.0" stop-color="#999999"/>
      <stop offset="0.4588235294117647" stop-color="#999999"/>
      <stop offset="1.0" stop-color="#ffffff"/>
    </linearGradient>
  </defs>
</svg>
