<?xml version="1.0" encoding="UTF-8" standalone="no"?>
<svg xmlns:xlink="http://www.w3.org/1999/xlink" height="17.85px" width="35.2px" xmlns="http://www.w3.org/2000/svg">
  <g transform="matrix(1.0, 0.0, 0.0, 1.0, 17.1, 8.9)">
    <path d="M12.95 -4.75 L15.15 -3.7 Q18.1 -2.0 18.1 0.15 18.1 2.3 15.15 4.0 L12.95 5.0 Q7.8 7.05 0.5 7.05 -5.45 7.05 -10.0 5.7 L-11.95 5.0 Q-17.1 3.0 -17.1 0.15 -17.1 -2.7 -11.95 -4.75 L-10.0 -5.4 Q-5.45 -6.75 0.5 -6.75 7.8 -6.75 12.95 -4.75" fill="url(#gradient0)" fill-rule="evenodd" stroke="none"/>
    <path d="M7.35 -5.9 Q9.5 -3.4 9.5 0.0 9.5 3.7 7.0 6.3 L6.55 6.7 Q4.2 8.9 0.95 8.95 -2.4 8.95 -4.8 6.6 L-5.1 6.3 Q-7.6 3.7 -7.6 0.0 -7.6 -3.3 -5.6 -5.75 L-5.1 -6.3 Q-2.6 -8.9 0.95 -8.9 4.5 -8.9 7.0 -6.3 L7.35 -5.9" fill="url(#gradient1)" fill-rule="evenodd" stroke="none"/>
  </g>
  <defs>
    <radialGradient cx="0" cy="0" gradientTransform="matrix(0.0221, 0.0, 0.0, 0.0221, 0.5, 0.15)" gradientUnits="userSpaceOnUse" id="gradient0" r="819.2" spreadMethod="pad">
      <stop offset="0.0" stop-color="#000000"/>
      <stop offset="0.054901960784313725" stop-color="#000000" stop-opacity="0.0"/>
    </radialGradient>
    <radialGradient cx="0" cy="0" gradientTransform="matrix(0.0117, 0.0, 0.0, 0.0117, 0.95, 0.0)" gradientUnits="userSpaceOnUse" id="gradient1" r="819.2" spreadMethod="pad">
      <stop offset="0.0" stop-color="#000000"/>
      <stop offset="0.050980392156862744" stop-color="#000000" stop-opacity="0.0"/>
    </radialGradient>
  </defs>
</svg>
