<?xml version="1.0" encoding="UTF-8" standalone="no"?>
<svg xmlns:xlink="http://www.w3.org/1999/xlink" height="46.0px" width="46.5px" xmlns="http://www.w3.org/2000/svg">
  <g transform="matrix(1.0, 0.0, 0.0, 1.0, 23.25, 23.0)">
    <path d="M16.05 -15.9 Q22.75 -9.3 22.75 0.0 22.75 9.3 16.05 15.9 9.4 22.5 0.0 22.5 -9.4 22.5 -16.1 15.9 -22.75 9.3 -22.75 0.0 -22.75 -9.3 -16.1 -15.9 -9.4 -22.5 0.0 -22.5 9.4 -22.5 16.05 -15.9 Z" fill="none" stroke="#000000" stroke-linecap="round" stroke-linejoin="round" stroke-width="1.0"/>
    <path d="M15.65 -4.75 L15.5 -4.75 15.5 -4.55 Q13.4 -2.0 4.4 0.25 L3.45 -2.75 16.05 -6.65 Q16.3 -5.7 15.65 -4.75 M0.45 -0.6 L2.6 -1.3 3.35 -1.5 3.4 -1.5 3.7 -0.55 0.7 0.35 0.45 -0.6 M13.45 -15.6 L14.75 -14.4 14.8 -14.35 17.0 -11.8 Q20.85 -6.55 20.85 0.3 L20.85 0.35 Q20.85 5.95 18.25 10.5 16.9 12.85 14.9 14.9 L14.85 14.95 14.75 15.05 14.75 15.1 Q8.65 21.1 0.05 21.1 L0.0 21.1 Q-8.55 21.1 -14.6 15.05 L-14.65 15.0 Q-20.75 8.9 -20.75 0.35 L-20.75 0.3 Q-20.75 -8.25 -14.75 -14.25 L-14.65 -14.4 Q-12.0 -17.05 -8.9 -18.55 L-8.6 -17.55 Q-11.3 -16.25 -13.6 -14.0 L-10.35 -10.75 -10.2 -10.4 -10.35 -10.05 Q-10.5 -9.9 -10.7 -9.9 L-11.05 -10.05 -14.3 -13.3 Q-19.6 -7.8 -19.75 -0.2 L-15.1 -0.2 -14.75 -0.05 -14.6 0.3 -14.75 0.65 -15.1 0.8 -19.75 0.8 Q-19.6 8.45 -14.3 13.95 L-11.05 10.7 -10.7 10.55 Q-10.5 10.55 -10.35 10.7 L-10.2 11.05 -10.35 11.4 -13.6 14.65 Q-8.1 19.95 -0.5 20.1 L-0.5 15.55 -0.35 15.2 0.0 15.05 0.35 15.2 0.5 15.55 0.5 20.1 Q8.15 19.95 13.7 14.7 L10.5 11.5 10.35 11.15 Q10.35 10.95 10.5 10.8 10.65 10.65 10.85 10.65 11.05 10.65 11.2 10.8 L14.4 14.0 Q15.95 12.35 17.1 10.5 19.75 6.15 19.85 0.8 L15.35 0.8 15.0 0.65 14.85 0.3 15.0 -0.05 15.35 -0.2 19.85 -0.2 Q19.75 -5.65 17.0 -10.0 15.9 -11.75 14.4 -13.35 L11.15 -10.1 10.8 -9.95 Q10.6 -9.95 10.45 -10.1 L10.3 -10.45 10.45 -10.8 13.7 -14.05 12.8 -14.85 Q9.3 -17.8 5.15 -18.85 L0.5 -19.5 0.5 -14.9 0.35 -14.55 0.0 -14.4 -0.35 -14.55 -0.5 -14.9 -0.5 -19.5 -4.1 -19.1 -4.5 -19.5 -5.05 -19.9 0.0 -20.5 0.05 -20.5 5.4 -19.8 Q9.8 -18.7 13.45 -15.6 M6.35 4.35 L6.35 8.05 4.55 6.9 4.55 4.55 5.55 3.55 6.35 4.35 M1.9 4.35 L0.85 3.35 1.65 2.55 4.55 2.55 5.35 3.35 4.3 4.35 1.9 4.35 M1.65 4.55 L1.65 6.9 -0.15 8.05 -0.15 4.35 0.65 3.55 1.65 4.55 M1.65 11.75 L0.65 12.75 -0.15 11.95 -0.15 8.25 1.65 9.15 1.65 11.75 M4.55 9.15 L6.35 8.25 6.35 11.95 5.55 12.75 4.55 11.75 4.55 9.15 M4.3 11.95 L5.35 12.95 4.55 13.75 1.65 13.75 0.85 12.95 1.9 11.95 4.3 11.95 M-6.75 -19.8 L-6.4 -19.7 -5.8 -19.4 -5.25 -19.0 -4.85 -18.6 Q-2.8 -16.45 -0.95 -10.6 L0.7 -4.6 -3.2 -3.45 -8.0 -19.75 -6.75 -19.8 M-1.9 -3.15 L-0.65 -3.5 0.45 0.35 -0.75 0.75 -1.65 -2.1 -1.9 -3.05 -1.9 -3.15 M-1.05 4.35 L-1.05 8.05 -2.85 7.15 -2.85 4.55 -1.85 3.55 -1.05 4.35 M-3.1 4.35 L-5.5 4.35 -6.55 3.35 -5.75 2.55 -2.85 2.55 -2.05 3.35 -3.1 4.35 M-6.75 3.55 L-5.75 4.55 -5.75 7.15 -7.55 8.05 -7.55 4.35 -6.75 3.55 M-5.55 7.35 L-3.05 7.35 -1.5 8.15 -3.05 9.15 -5.5 9.15 -7.1 8.15 -5.55 7.35 M-2.85 9.4 L-1.05 8.25 -1.05 11.95 -1.85 12.75 -2.85 11.75 -2.85 9.4 M-3.1 11.95 L-2.05 12.95 -2.85 13.75 -7.55 13.75 -5.5 11.95 -3.1 11.95" fill="#000000" fill-rule="evenodd" stroke="none"/>
  </g>
</svg>
