<?xml version="1.0" encoding="UTF-8" standalone="no"?>
<svg xmlns:xlink="http://www.w3.org/1999/xlink" height="5.45px" width="2.85px" xmlns="http://www.w3.org/2000/svg">
  <g transform="matrix(1.0, 0.0, 0.0, 1.0, 6.75, 6.7)">
    <path d="M-4.85 -6.45 L-4.75 -6.45 -4.75 -6.6 -4.65 -6.35 -4.65 -6.25 -4.35 -5.8 -4.3 -5.6 -4.25 -5.6 -4.05 -3.85 -4.1 -3.8 -4.0 -1.95 -4.05 -1.9 -4.1 -1.65 -4.1 -1.6 -4.15 -1.6 -4.3 -1.5 -4.55 -1.7 -4.65 -1.95 Q-4.75 -1.8 -4.95 -1.8 L-5.7 -1.9 -5.8 -1.95 -5.85 -1.95 -6.0 -2.15 -6.2 -2.6 -6.5 -5.9 -6.4 -6.35 -6.2 -6.45 -6.15 -6.45 -5.95 -6.25 -5.85 -5.9 -5.65 -5.85 -5.6 -5.25 -5.65 -5.3 -5.8 -5.3 -5.8 -5.2 -5.55 -5.15 -5.5 -4.6 -5.55 -4.6 -5.75 -4.6 -5.7 -4.45 -5.5 -4.45 -5.5 -3.85 -5.55 -3.85 -5.65 -3.9 -5.65 -3.5 -5.05 -3.4 -4.75 -3.15 -4.8 -3.85 -4.95 -3.85 -5.0 -4.45 -4.95 -4.45 -4.85 -4.4 -4.9 -4.6 -5.0 -4.6 -5.05 -4.6 -5.1 -5.25 -5.05 -5.25 -4.95 -5.2 -4.95 -5.3 -5.1 -5.35 -5.15 -5.95 -5.1 -5.9 -5.0 -5.9 -5.0 -5.95 -4.95 -6.4 -4.85 -6.45" fill="#ffffff" fill-rule="evenodd" stroke="none"/>
    <path d="M-4.85 -6.45 L-4.95 -6.4 -5.0 -5.95 -5.0 -5.9 M-4.95 -5.3 L-4.95 -5.2 M-4.9 -4.6 L-4.85 -4.4 M-4.8 -3.85 L-4.75 -3.15 M-5.65 -3.5 L-5.65 -3.9 M-5.7 -4.45 L-5.75 -4.6 M-5.8 -5.2 L-5.8 -5.3 M-5.85 -5.9 L-5.95 -6.25 -6.15 -6.45 -6.2 -6.45 -6.4 -6.35 -6.5 -5.9 -6.2 -2.6 -6.0 -2.15 -5.85 -1.95 -5.8 -1.95 M-4.65 -1.95 L-4.55 -1.7 -4.3 -1.5 -4.15 -1.6" fill="none" stroke="#000000" stroke-linecap="round" stroke-linejoin="round" stroke-width="0.5"/>
    <path d="M-4.75 -3.15 L-5.05 -3.4 -5.65 -3.5 M-5.8 -1.95 L-5.7 -1.9 -4.95 -1.8 Q-4.75 -1.8 -4.65 -1.95" fill="none" stroke="#000000" stroke-linecap="round" stroke-linejoin="round" stroke-width="0.5"/>
  </g>
</svg>
