<?xml version="1.0" encoding="UTF-8" standalone="no"?>
<svg xmlns:xlink="http://www.w3.org/1999/xlink" height="4.95px" width="5.3px" xmlns="http://www.w3.org/2000/svg">
  <g transform="matrix(1.0, 0.0, 0.0, 1.0, 7.65, 6.55)">
    <path d="M-5.95 -6.3 L-5.85 -6.4 -5.95 -6.5 -5.7 -6.35 -5.65 -6.3 -5.6 -6.35 -5.1 -6.15 -4.95 -6.0 -4.9 -6.05 -3.75 -4.7 -3.8 -4.65 -2.7 -3.15 -2.7 -3.05 -2.6 -2.85 -2.6 -2.75 -2.7 -2.55 -3.05 -2.6 -3.35 -2.7 Q-3.3 -2.45 -3.5 -2.35 L-4.3 -1.95 -4.35 -1.9 -4.4 -1.85 -4.75 -1.9 -5.1 -2.15 -7.2 -4.75 -7.4 -5.15 -7.25 -5.4 -7.2 -5.35 -6.85 -5.4 -6.6 -5.15 -6.35 -5.3 -6.0 -4.85 -6.05 -4.8 -6.2 -4.75 -6.2 -4.65 -5.9 -4.75 -5.55 -4.3 -5.6 -4.25 -5.8 -4.15 -5.7 -4.05 -5.45 -4.2 -5.15 -3.7 -5.35 -3.6 -5.05 -3.3 Q-4.75 -3.4 -4.45 -3.6 L-4.05 -3.6 -4.5 -4.15 -4.55 -4.1 -4.6 -4.05 -4.95 -4.6 -4.85 -4.6 -5.0 -4.75 -5.15 -4.7 -5.5 -5.15 -5.35 -5.2 -5.4 -5.35 -5.6 -5.25 -5.95 -5.7 -5.85 -5.7 -5.8 -5.75 -5.85 -5.8 -6.0 -6.25 -5.95 -6.3" fill="#ffffff" fill-rule="evenodd" stroke="none"/>
    <path d="M-5.95 -6.3 L-6.0 -6.25 -5.85 -5.8 -5.8 -5.75 M-5.4 -5.35 L-5.35 -5.2 M-5.0 -4.75 L-4.85 -4.6 M-4.5 -4.15 L-4.05 -3.6 M-5.05 -3.3 L-5.35 -3.6 M-5.7 -4.05 L-5.8 -4.15 M-6.2 -4.65 L-6.2 -4.75 M-6.6 -5.15 L-6.85 -5.4 -7.2 -5.35 -7.25 -5.4 -7.4 -5.15 -7.2 -4.75 -5.1 -2.15 -4.75 -1.9 -4.4 -1.85 -4.35 -1.9 M-3.35 -2.7 L-3.05 -2.6 -2.7 -2.55 -2.6 -2.75" fill="none" stroke="#000000" stroke-linecap="round" stroke-linejoin="round" stroke-width="0.5"/>
    <path d="M-4.05 -3.6 L-4.45 -3.6 Q-4.75 -3.4 -5.05 -3.3 M-4.35 -1.9 L-4.3 -1.95 -3.5 -2.35 Q-3.3 -2.45 -3.35 -2.7" fill="none" stroke="#000000" stroke-linecap="round" stroke-linejoin="round" stroke-width="0.5"/>
  </g>
</svg>
