<?xml version="1.0" encoding="UTF-8" standalone="no"?>
<svg xmlns:xlink="http://www.w3.org/1999/xlink" height="5.9px" width="11.85px" xmlns="http://www.w3.org/2000/svg">
  <g transform="matrix(1.0, 0.0, 0.0, 1.0, 4.95, 0.55)">
    <path d="M0.45 -0.15 L0.85 -0.3 1.25 -0.15 1.35 -0.1 1.55 0.45 1.55 0.5 1.35 1.05 1.15 1.2 0.85 1.25 0.55 1.2 0.35 1.05 0.15 0.5 0.15 0.45 0.35 -0.1 0.45 -0.15" fill="url(#gradient0)" fill-rule="evenodd" stroke="none"/>
    <path d="M1.25 -0.15 Q3.4 -0.15 4.95 0.6 6.65 1.35 6.65 2.4 6.65 3.5 4.95 4.25 3.35 5.0 1.15 5.05 L1.35 4.9 1.55 4.4 4.1 3.85 Q5.45 3.3 5.45 2.45 5.45 1.65 4.1 1.05 L1.55 0.5 4.1 1.05 Q5.45 1.65 5.45 2.45 5.45 3.3 4.1 3.85 L1.55 4.4 1.55 4.35 1.35 3.75 1.3 3.75 2.8 3.4 Q3.6 3.0 3.65 2.45 3.6 1.95 2.8 1.55 L1.15 1.2 1.35 1.05 1.55 0.5 1.55 0.45 1.35 -0.1 1.25 -0.15 M0.3 5.0 Q-1.65 4.95 -3.05 4.25 -4.7 3.5 -4.7 2.4 -4.7 1.35 -3.05 0.6 -1.6 -0.1 0.45 -0.15 L0.35 -0.1 0.15 0.45 0.15 0.5 0.35 1.05 0.55 1.2 Q-0.5 1.2 -1.25 1.55 -2.05 1.95 -2.05 2.45 -2.05 3.0 -1.25 3.4 L0.15 3.75 -0.1 4.35 0.15 4.9 0.3 5.0 M0.15 0.5 Q-1.25 0.6 -2.35 1.05 -3.65 1.65 -3.65 2.45 -3.65 3.3 -2.35 3.85 L-0.1 4.35 -2.35 3.85 Q-3.65 3.3 -3.65 2.45 -3.65 1.65 -2.35 1.05 -1.25 0.6 0.15 0.5" fill="url(#gradient1)" fill-rule="evenodd" stroke="none"/>
    <path d="M1.15 5.05 L0.75 5.1 0.3 5.0 0.15 4.9 -0.1 4.35 0.15 3.75 0.75 3.6 1.3 3.75 1.35 3.75 1.55 4.35 1.55 4.4 1.35 4.9 1.15 5.05" fill="url(#gradient2)" fill-rule="evenodd" stroke="none"/>
    <path d="M0.45 -0.15 L0.85 -0.3 1.25 -0.15 Q3.4 -0.15 4.95 0.6 6.65 1.35 6.65 2.4 6.65 3.5 4.95 4.25 3.35 5.0 1.15 5.05 L0.75 5.1 0.3 5.0 Q-1.65 4.95 -3.05 4.25 -4.7 3.5 -4.7 2.4 -4.7 1.35 -3.05 0.6 -1.6 -0.1 0.45 -0.15 M0.15 0.45 L0.15 0.5 Q-1.25 0.6 -2.35 1.05 -3.65 1.65 -3.65 2.45 -3.65 3.3 -2.35 3.85 L-0.1 4.35 0.15 4.9 0.3 5.0 M0.55 1.2 L0.85 1.25 1.15 1.2 2.8 1.55 Q3.6 1.95 3.65 2.45 3.6 3.0 2.8 3.4 L1.3 3.75 1.35 3.75 1.55 4.35 1.55 4.4 1.35 4.9 1.15 5.05 M1.55 0.5 L1.55 0.45 M1.55 0.5 L4.1 1.05 Q5.45 1.65 5.45 2.45 5.45 3.3 4.1 3.85 L1.55 4.4 M1.3 3.75 L0.75 3.6 0.15 3.75 -0.1 4.35 M0.55 1.2 Q-0.5 1.2 -1.25 1.55 -2.05 1.95 -2.05 2.45 -2.05 3.0 -1.25 3.4 L0.15 3.75" fill="none" stroke="#000000" stroke-linecap="round" stroke-linejoin="round" stroke-width="0.5"/>
  </g>
  <defs>
    <radialGradient cx="0" cy="0" gradientTransform="matrix(0.0017, 0.0, 0.0, 0.0013, 0.85, 0.45)" gradientUnits="userSpaceOnUse" id="gradient0" r="819.2" spreadMethod="pad">
      <stop offset="0.0" stop-color="#e9cf1b"/>
      <stop offset="1.0" stop-color="#ffffff"/>
    </radialGradient>
    <radialGradient cx="0" cy="0" gradientTransform="matrix(0.0075, 0.0, 0.0, 0.0056, 0.95, 2.4)" gradientUnits="userSpaceOnUse" id="gradient1" r="819.2" spreadMethod="pad">
      <stop offset="0.0" stop-color="#e9cf1b"/>
      <stop offset="1.0" stop-color="#ffffff"/>
    </radialGradient>
    <radialGradient cx="0" cy="0" gradientTransform="matrix(0.0017, 0.0, 0.0, 0.0013, 0.7, 4.35)" gradientUnits="userSpaceOnUse" id="gradient2" r="819.2" spreadMethod="pad">
      <stop offset="0.0" stop-color="#e9cf1b"/>
      <stop offset="1.0" stop-color="#ffffff"/>
    </radialGradient>
  </defs>
</svg>
