<?xml version="1.0" encoding="UTF-8" standalone="no"?>
<svg xmlns:xlink="http://www.w3.org/1999/xlink" height="60.05px" width="41.1px" xmlns="http://www.w3.org/2000/svg">
  <g transform="matrix(1.0, 0.0, 0.0, 1.0, 19.95, 40.8)">
    <path d="M11.5 -29.3 Q11.5 -24.95 8.1 -21.9 4.75 -18.8 0.0 -18.8 -4.75 -18.8 -8.15 -21.9 -11.5 -24.95 -11.5 -29.3 -11.5 -33.65 -8.15 -36.75 -4.75 -39.8 0.0 -39.8 4.75 -39.8 8.1 -36.75 11.5 -33.65 11.5 -29.3" fill="url(#gradient0)" fill-rule="evenodd" stroke="none"/>
    <path d="M11.5 -29.3 Q11.5 -24.95 8.1 -21.9 4.75 -18.8 0.0 -18.8 -4.75 -18.8 -8.15 -21.9 -11.5 -24.95 -11.5 -29.3 -11.5 -33.65 -8.15 -36.75 -4.75 -39.8 0.0 -39.8 4.75 -39.8 8.1 -36.75 11.5 -33.65 11.5 -29.3 Z" fill="none" stroke="#000000" stroke-linecap="round" stroke-linejoin="round" stroke-width="2.0"/>
    <path d="M14.4 -12.25 Q20.15 -7.0 20.15 0.4 20.15 7.8 14.4 13.0 8.7 18.25 0.6 18.25 -7.45 18.25 -13.25 13.0 -18.95 7.8 -18.95 0.4 -18.95 -7.0 -13.25 -12.25 -7.45 -17.45 0.6 -17.45 8.7 -17.45 14.4 -12.25" fill="url(#gradient1)" fill-rule="evenodd" stroke="none"/>
    <path d="M14.4 -12.25 Q20.15 -7.0 20.15 0.4 20.15 7.8 14.4 13.0 8.7 18.25 0.6 18.25 -7.45 18.25 -13.25 13.0 -18.95 7.8 -18.95 0.4 -18.95 -7.0 -13.25 -12.25 -7.45 -17.45 0.6 -17.45 8.7 -17.45 14.4 -12.25 Z" fill="none" stroke="#000000" stroke-linecap="round" stroke-linejoin="round" stroke-width="2.0"/>
  </g>
  <defs>
    <radialGradient cx="0" cy="0" gradientTransform="matrix(0.0221, -0.0108, 0.0074, 0.0151, 3.0, -26.8)" gradientUnits="userSpaceOnUse" id="gradient0" r="819.2" spreadMethod="pad">
      <stop offset="0.0" stop-color="#0a9709"/>
      <stop offset="0.5764705882352941" stop-color="#52d862"/>
      <stop offset="1.0" stop-color="#ffffff"/>
    </radialGradient>
    <radialGradient cx="0" cy="0" gradientTransform="matrix(0.0376, -0.0184, 0.0125, 0.0257, 5.7, 4.65)" gradientUnits="userSpaceOnUse" id="gradient1" r="819.2" spreadMethod="pad">
      <stop offset="0.0" stop-color="#505050"/>
      <stop offset="0.5764705882352941" stop-color="#959595"/>
      <stop offset="1.0" stop-color="#ffffff"/>
    </radialGradient>
  </defs>
</svg>
