<?xml version="1.0" encoding="UTF-8" standalone="no"?>
<svg xmlns:xlink="http://www.w3.org/1999/xlink" height="23.0px" width="25.0px" xmlns="http://www.w3.org/2000/svg">
  <g transform="matrix(1.0, 0.0, 0.0, 1.0, 12.3, 11.3)">
    <path d="M8.3 -7.25 Q11.7 -4.15 11.7 0.2 11.7 4.55 8.3 7.6 4.95 10.7 0.2 10.7 -4.55 10.7 -7.95 7.6 -11.3 4.55 -11.3 0.2 -11.3 -4.15 -7.95 -7.25 -4.55 -10.3 0.2 -10.3 4.95 -10.3 8.3 -7.25" fill="url(#gradient0)" fill-rule="evenodd" stroke="none"/>
    <path d="M8.3 -7.25 Q11.7 -4.15 11.7 0.2 11.7 4.55 8.3 7.6 4.95 10.7 0.2 10.7 -4.55 10.7 -7.95 7.6 -11.3 4.55 -11.3 0.2 -11.3 -4.15 -7.95 -7.25 -4.55 -10.3 0.2 -10.3 4.95 -10.3 8.3 -7.25 Z" fill="none" stroke="#000000" stroke-linecap="round" stroke-linejoin="round" stroke-width="2.0"/>
  </g>
  <defs>
    <radialGradient cx="0" cy="0" gradientTransform="matrix(0.0154, -0.0075, 0.0071, 0.0146, 1.25, -0.1)" gradientUnits="userSpaceOnUse" id="gradient0" r="819.2" spreadMethod="pad">
      <stop offset="0.0" stop-color="#a632cd"/>
      <stop offset="0.3176470588235294" stop-color="#830f9f"/>
      <stop offset="0.8235294117647058" stop-color="#000000"/>
    </radialGradient>
  </defs>
</svg>
