<?xml version="1.0" encoding="UTF-8" standalone="no"?>
<svg xmlns:xlink="http://www.w3.org/1999/xlink" height="24.0px" width="26.0px" xmlns="http://www.w3.org/2000/svg">
  <g transform="matrix(1.0, 0.0, 0.0, 1.0, 13.0, 12.0)">
    <path d="M7.1 -6.35 Q4.15 -9.0 0.0 -9.0 -4.15 -9.0 -7.1 -6.35 L-7.15 -6.3 Q-10.0 -3.7 -10.0 0.0 -10.0 3.7 -7.15 6.3 -4.15 9.0 0.0 9.0 4.15 9.0 7.1 6.3 10.0 3.7 10.0 0.0 10.0 -3.7 7.1 -6.35 M0.0 -12.0 Q5.35 -12.0 9.1 -8.55 13.0 -5.0 13.0 0.0 13.0 5.0 9.15 8.5 L9.1 8.55 Q5.35 12.0 0.0 12.0 -5.35 12.0 -9.15 8.5 -13.0 5.0 -13.0 0.0 -13.0 -5.0 -9.15 -8.55 -5.35 -12.0 0.0 -12.0" fill="#000000" fill-rule="evenodd" stroke="none"/>
  </g>
</svg>
