<?xml version="1.0" encoding="UTF-8" standalone="no"?>
<svg xmlns:xlink="http://www.w3.org/1999/xlink" height="23.1px" width="25.6px" xmlns="http://www.w3.org/2000/svg">
  <g transform="matrix(1.0, 0.0, 0.0, 1.0, 12.8, 11.45)">
    <path d="M2.0 -11.0 L2.55 -11.35 2.8 -11.3 3.55 -11.1 Q6.0 -10.5 8.05 -8.95 L9.05 -8.15 Q12.8 -4.75 12.8 0.05 12.8 4.85 9.05 8.25 5.3 11.65 0.0 11.65 -5.3 11.65 -9.05 8.25 -12.8 4.85 -12.8 0.05 -12.8 -4.75 -9.05 -8.15 L-8.5 -8.6 Q-5.55 -11.0 -1.75 -11.45 L-1.75 -10.75 Q-0.8 -10.5 -0.75 -9.5 L-0.75 -9.25 Q-0.4 -8.35 1.25 -8.75 L2.0 -11.0" fill="#000000" fill-rule="evenodd" stroke="none"/>
  </g>
</svg>
