<?xml version="1.0" encoding="UTF-8" standalone="no"?>
<svg xmlns:xlink="http://www.w3.org/1999/xlink" height="2.7px" width="9.3px" xmlns="http://www.w3.org/2000/svg">
  <g transform="matrix(1.0, 0.0, 0.0, 1.0, 4.65, 1.35)">
    <path d="M4.55 -0.25 L3.35 0.25 Q3.2 1.1 2.15 1.35 L2.0 1.35 Q1.55 1.3 1.35 0.95 L1.2 0.8 0.65 0.75 1.2 -0.9 1.75 -1.25 2.0 -1.2 2.75 -1.0 4.2 -0.55 4.65 -0.4 4.55 -0.25 M-2.3 0.55 L-4.2 0.4 -4.45 -0.4 -4.45 -0.7 -4.65 -0.95 -2.55 -1.35 -2.55 -0.65 Q-1.85 -0.45 -1.6 0.15 L-1.65 0.15 -2.3 0.55" fill="#000000" fill-rule="evenodd" stroke="none"/>
  </g>
</svg>
