<?xml version="1.0" encoding="UTF-8" standalone="no"?>
<svg xmlns:xlink="http://www.w3.org/1999/xlink" height="21.9px" width="25.6px" xmlns="http://www.w3.org/2000/svg">
  <g transform="matrix(1.0, 0.0, 0.0, 1.0, 12.8, 10.25)">
    <path d="M5.9 -9.3 L7.6 -9.3 8.05 -8.95 9.05 -8.15 Q12.8 -4.75 12.8 0.05 12.8 4.85 9.05 8.25 5.3 11.65 0.0 11.65 -5.3 11.65 -9.05 8.25 -12.8 4.85 -12.8 0.05 -12.8 -4.75 -9.05 -8.15 L-8.5 -8.6 -6.75 -9.85 -6.1 -9.15 Q-6.2 -8.6 -5.4 -8.35 L-3.65 -8.5 -3.1 -9.65 -1.5 -9.55 -0.85 -9.95 -0.8 -9.95 -0.75 -9.5 -0.75 -9.25 -0.35 -8.75 -0.3 -8.35 0.4 -7.25 Q1.35 -7.05 1.45 -7.7 L3.2 -7.95 3.9 -8.5 3.95 -9.35 4.15 -9.85 5.1 -10.25 Q5.6 -9.95 5.9 -9.3" fill="#000000" fill-rule="evenodd" stroke="none"/>
  </g>
</svg>
