<?xml version="1.0" encoding="UTF-8" standalone="no"?>
<svg xmlns:xlink="http://www.w3.org/1999/xlink" height="20.7px" width="25.6px" xmlns="http://www.w3.org/2000/svg">
  <g transform="matrix(1.0, 0.0, 0.0, 1.0, 12.8, 9.05)">
    <path d="M7.65 -7.4 L7.95 -8.35 8.45 -8.7 9.05 -8.15 Q12.8 -4.75 12.8 0.05 12.8 4.85 9.05 8.25 5.3 11.65 0.0 11.65 -5.3 11.65 -9.05 8.25 -12.8 4.85 -12.8 0.05 -12.8 -4.75 -9.05 -8.15 L-8.5 -8.6 -8.3 -8.8 -8.2 -8.15 -7.95 -7.7 -7.15 -7.15 -5.8 -7.25 -5.35 -8.2 -5.25 -8.35 -3.65 -8.5 -3.4 -9.05 -3.25 -9.05 Q-3.2 -8.6 -2.95 -8.45 L-2.7 -8.2 -2.15 -7.4 -1.25 -7.25 -0.55 -7.55 -0.05 -7.95 0.4 -7.25 Q1.35 -7.05 1.45 -7.7 L3.2 -7.95 3.8 -8.4 4.05 -8.1 Q5.2 -7.95 5.8 -7.4 L7.65 -7.4" fill="#000000" fill-rule="evenodd" stroke="none"/>
  </g>
</svg>
