<?xml version="1.0" encoding="UTF-8" standalone="no"?>
<svg xmlns:xlink="http://www.w3.org/1999/xlink" height="19.6px" width="25.6px" xmlns="http://www.w3.org/2000/svg">
  <g transform="matrix(1.0, 0.0, 0.0, 1.0, 12.8, 7.95)">
    <path d="M6.9 -7.4 L7.25 -6.85 10.35 -6.05 10.9 -6.05 Q12.8 -3.35 12.8 0.05 12.8 4.85 9.05 8.25 5.3 11.65 0.0 11.65 -5.3 11.65 -9.05 8.25 -12.8 4.85 -12.8 0.05 -12.8 -3.6 -10.6 -6.4 L-9.7 -5.4 -7.95 -5.4 -7.7 -6.75 -6.85 -7.15 -5.8 -7.25 -5.55 -7.95 Q-4.6 -6.8 -3.45 -6.1 L-2.85 -6.05 Q-2.45 -6.0 -2.3 -6.45 L-2.15 -6.6 -2.0 -7.15 -1.8 -7.35 -1.25 -7.25 -0.55 -7.55 -0.05 -7.95 0.4 -7.25 Q1.35 -7.05 1.45 -7.7 L1.6 -7.25 2.55 -6.75 Q2.95 -6.45 2.8 -6.2 3.75 -5.65 4.95 -5.8 L5.25 -5.9 5.35 -7.7 5.8 -7.4 6.9 -7.4" fill="#000000" fill-rule="evenodd" stroke="none"/>
  </g>
</svg>
