<?xml version="1.0" encoding="UTF-8" standalone="no"?>
<svg xmlns:xlink="http://www.w3.org/1999/xlink" height="3.65px" width="21.5px" xmlns="http://www.w3.org/2000/svg">
  <g transform="matrix(1.0, 0.0, 0.0, 1.0, 10.75, 1.85)">
    <path d="M7.1 0.35 L6.75 -0.2 7.5 -0.2 7.8 -1.15 8.3 -1.5 8.9 -0.95 Q10.0 0.05 10.75 1.15 L10.2 1.15 Q8.55 0.9 7.1 0.35 M3.05 -0.75 L3.65 -1.2 3.9 -0.9 5.2 -0.5 5.1 1.3 4.8 1.4 Q3.6 1.55 2.65 1.0 2.8 0.75 2.4 0.45 L1.45 -0.05 1.3 -0.5 3.05 -0.75 M-3.55 -1.85 L-3.4 -1.85 Q-3.35 -1.4 -3.1 -1.25 L-2.85 -1.0 -2.3 -0.2 -1.95 -0.15 -2.15 0.05 -2.3 0.6 -2.45 0.75 Q-2.6 1.2 -3.0 1.15 L-3.6 1.1 -5.7 -0.75 -5.5 -1.0 -5.4 -1.15 -3.8 -1.3 -3.55 -1.85 M-8.1 -0.5 L-7.3 0.05 -7.0 0.05 -7.85 0.45 -8.1 1.8 -9.85 1.8 -10.75 0.8 -9.2 -0.95 -8.65 -1.4 -8.45 -1.6 -8.35 -0.95 -8.1 -0.5" fill="#000000" fill-rule="evenodd" stroke="none"/>
  </g>
</svg>
