<?xml version="1.0" encoding="UTF-8" standalone="no"?>
<svg xmlns:xlink="http://www.w3.org/1999/xlink" height="18.1px" width="25.6px" xmlns="http://www.w3.org/2000/svg">
  <g transform="matrix(1.0, 0.0, 0.0, 1.0, 12.8, 6.45)">
    <path d="M3.2 -4.7 L3.35 -5.9 3.5 -5.9 4.95 -5.8 5.1 -5.85 5.25 -5.5 6.2 -4.45 9.3 -4.45 9.5 -4.9 9.8 -5.0 10.15 -6.05 10.35 -6.05 10.9 -6.05 Q12.8 -3.35 12.8 0.05 12.8 4.85 9.05 8.25 5.3 11.65 0.0 11.65 -5.3 11.65 -9.05 8.25 -12.8 4.85 -12.8 0.05 -12.8 -3.6 -10.6 -6.4 L-9.7 -5.4 -7.95 -5.4 -7.7 -4.55 -3.5 -4.45 Q-3.1 -5.1 -3.25 -5.9 L-3.15 -6.05 -2.85 -6.05 Q-2.45 -6.0 -2.3 -6.45 L-1.75 -6.05 -1.75 -5.1 -0.95 -4.7 -0.15 -4.45 2.25 -3.9 Q2.9 -4.1 3.2 -4.7" fill="#000000" fill-rule="evenodd" stroke="none"/>
  </g>
</svg>
