<?xml version="1.0" encoding="UTF-8" standalone="no"?>
<svg xmlns:xlink="http://www.w3.org/1999/xlink" height="16.35px" width="25.6px" xmlns="http://www.w3.org/2000/svg">
  <g transform="matrix(1.0, 0.0, 0.0, 1.0, 12.8, 4.7)">
    <path d="M0.3 -4.4 L2.25 -3.9 2.4 -3.95 2.4 -3.9 2.8 -3.75 3.2 -2.8 4.45 -2.15 6.3 -2.3 6.9 -4.45 8.1 -4.45 8.1 -4.4 8.45 -3.45 8.7 -3.1 9.7 -2.4 10.2 -1.6 Q11.35 -1.1 12.75 -1.15 L12.8 0.05 Q12.8 4.85 9.05 8.25 5.3 11.65 0.0 11.65 -5.3 11.65 -9.05 8.25 -12.8 4.85 -12.8 0.05 -12.8 -2.4 -11.8 -4.45 L-11.7 -4.7 -10.8 -4.45 -10.65 -2.95 -10.0 -2.45 -9.6 -1.9 -9.45 -1.75 -8.35 -1.75 -7.7 -2.15 -7.7 -2.95 -7.3 -3.5 -6.75 -3.75 -6.35 -4.5 -4.1 -4.45 -3.8 -3.85 -3.8 -3.75 -3.8 -3.65 -3.1 -2.95 -2.45 -2.7 -0.95 -2.65 -0.55 -2.65 -0.3 -2.95 0.05 -4.4 0.3 -4.4" fill="#000000" fill-rule="evenodd" stroke="none"/>
  </g>
</svg>
