<?xml version="1.0" encoding="UTF-8" standalone="no"?>
<svg xmlns:xlink="http://www.w3.org/1999/xlink" height="5.3px" width="24.45px" xmlns="http://www.w3.org/2000/svg">
  <g transform="matrix(1.0, 0.0, 0.0, 1.0, 12.2, 2.65)">
    <path d="M2.7 -0.9 L2.85 -2.1 3.0 -2.1 4.45 -2.0 4.6 -2.05 4.75 -1.7 5.7 -0.65 6.4 -0.65 5.8 1.5 3.95 1.65 2.7 1.0 2.3 0.05 1.9 -0.1 1.9 -0.15 2.35 -0.45 2.7 -0.9 M9.3 -1.2 L9.65 -2.25 9.85 -2.25 10.4 -2.25 11.7 0.2 12.2 2.4 12.25 2.65 9.7 2.2 9.2 1.4 8.2 0.7 7.95 0.35 Q7.7 -0.1 7.6 -0.6 L7.6 -0.65 8.8 -0.65 9.0 -1.1 9.3 -1.2 M-11.3 -0.65 L-12.2 -0.9 -11.1 -2.6 -10.2 -1.6 -8.45 -1.6 -8.2 -0.75 -6.85 -0.7 -7.25 0.05 -7.8 0.3 -8.2 0.85 -8.2 1.65 -8.85 2.05 -9.95 2.05 -10.1 1.9 -10.5 1.35 -11.15 0.85 -11.3 -0.65 M-2.8 -2.65 L-2.25 -2.25 -2.25 -1.3 -1.45 -0.9 -0.65 -0.65 -0.45 -0.6 -0.8 0.85 -1.05 1.15 -1.45 1.15 -2.95 1.1 -3.6 0.85 -4.3 0.15 -4.3 0.05 -4.3 -0.05 -4.6 -0.65 -4.0 -0.65 Q-3.6 -1.3 -3.75 -2.1 L-3.65 -2.25 -3.35 -2.25 Q-3.0 -2.2 -2.8 -2.55 L-2.8 -2.65" fill="#000000" fill-rule="evenodd" stroke="none"/>
  </g>
</svg>
