<?xml version="1.0" encoding="UTF-8" standalone="no"?>
<svg xmlns:xlink="http://www.w3.org/1999/xlink" height="1.7px" width="7.0px" xmlns="http://www.w3.org/2000/svg">
  <g transform="matrix(1.0, 0.0, 0.0, 1.0, 2.6, 19.0)">
    <path d="M1.9 -18.75 L2.05 -18.7 2.15 -18.45 2.45 -18.3 2.35 -18.15 2.35 -17.95 2.25 -17.8 2.15 -17.75 2.15 -17.6 1.4 -17.65 1.35 -17.95 1.2 -18.1 1.15 -18.35 1.15 -18.55 1.2 -18.9 1.3 -18.9 1.85 -18.75 1.9 -18.8 1.9 -18.75 M3.65 -18.9 L3.75 -18.65 3.8 -18.55 4.1 -18.3 4.25 -18.1 4.4 -18.0 4.4 -17.85 4.2 -17.5 4.15 -17.35 3.6 -17.3 3.45 -17.4 3.35 -17.55 3.1 -17.65 3.1 -18.3 3.25 -18.95 3.65 -18.95 3.65 -18.9 M-2.05 -18.95 L-2.0 -18.5 -1.85 -18.4 -1.8 -18.35 -1.7 -18.15 -1.65 -18.15 -1.7 -18.1 -1.95 -18.1 -2.1 -17.7 -2.25 -17.7 -2.6 -17.75 -2.6 -17.95 -2.55 -18.4 -2.35 -18.95 -2.3 -19.0 -2.05 -18.95 M-0.7 -18.95 L-0.05 -18.95 0.05 -18.75 0.05 -18.7 0.25 -18.5 0.45 -18.4 0.7 -18.4 0.7 -18.35 0.6 -18.15 0.55 -17.65 0.45 -17.65 0.25 -17.6 -0.85 -17.7 -0.95 -17.85 -1.1 -18.0 -1.15 -18.2 -1.1 -18.25 -1.1 -18.5 -1.0 -18.65 -0.8 -18.7 -0.7 -18.95" fill="#000000" fill-rule="evenodd" stroke="none"/>
  </g>
</svg>
