<?xml version="1.0" encoding="UTF-8" standalone="no"?>
<svg xmlns:xlink="http://www.w3.org/1999/xlink" height="1.65px" width="4.75px" xmlns="http://www.w3.org/2000/svg">
  <g transform="matrix(1.0, 0.0, 0.0, 1.0, 1.65, 20.2)">
    <path d="M0.7 -19.45 L0.85 -19.45 0.8 -19.35 0.75 -19.0 0.55 -18.9 Q0.1 -18.75 -0.05 -19.15 L-0.25 -19.45 -0.05 -19.45 0.05 -19.5 0.1 -19.5 0.15 -19.9 0.2 -20.05 0.25 -20.1 0.35 -20.1 0.45 -20.1 0.5 -20.15 0.5 -20.2 0.5 -20.05 0.55 -19.9 0.65 -19.75 0.7 -19.45 M1.45 -19.95 L1.8 -20.0 1.8 -19.5 2.0 -19.4 2.05 -19.3 2.1 -19.25 1.9 -18.95 1.8 -18.8 1.5 -18.85 1.15 -19.3 1.15 -19.45 1.2 -19.6 1.25 -19.6 1.35 -19.75 1.35 -19.9 1.4 -20.0 1.45 -19.95 M3.1 -19.75 L3.1 -19.45 3.1 -19.3 3.0 -18.55 2.85 -18.55 2.5 -19.0 2.45 -19.25 2.5 -19.25 2.55 -19.4 2.7 -19.65 2.7 -19.8 3.1 -19.75 M-1.65 -19.55 L-1.55 -19.85 -1.4 -19.9 -1.35 -19.9 -1.1 -19.9 -1.0 -19.95 -1.0 -19.8 -0.85 -19.65 -0.85 -19.55 -0.75 -19.55 -0.9 -19.25 Q-1.1 -19.0 -1.4 -19.05 L-1.55 -19.15 -1.6 -19.45 -1.65 -19.55" fill="#000000" fill-rule="evenodd" stroke="none"/>
  </g>
</svg>
