<?xml version="1.0" encoding="UTF-8" standalone="no"?>
<svg xmlns:xlink="http://www.w3.org/1999/xlink" height="1.1px" width="6.45px" xmlns="http://www.w3.org/2000/svg">
  <g transform="matrix(1.0, 0.0, 0.0, 1.0, 3.0, 17.8)">
    <path d="M2.35 -17.15 L2.25 -17.3 2.5 -17.3 2.6 -17.6 2.75 -17.7 2.9 -17.55 3.45 -16.9 3.3 -16.9 2.35 -17.15 M1.15 -17.5 L1.35 -17.6 1.4 -17.55 1.8 -17.4 1.75 -16.85 1.7 -16.85 1.05 -16.95 0.95 -17.1 0.7 -17.25 0.65 -17.4 1.15 -17.5 M-0.8 -17.8 L-0.75 -17.8 -0.7 -17.65 -0.6 -17.55 -0.45 -17.3 -0.35 -17.3 -0.4 -17.25 -0.45 -17.1 -0.5 -17.05 -0.65 -16.9 -0.85 -16.95 -1.45 -17.5 -1.4 -17.55 -1.35 -17.6 -0.9 -17.65 -0.8 -17.8 M-2.2 -17.4 L-1.95 -17.25 -1.85 -17.25 -2.1 -17.1 -2.2 -16.7 -2.7 -16.7 -3.0 -17.0 -2.5 -17.55 -2.35 -17.7 -2.3 -17.75 -2.25 -17.55 -2.2 -17.4" fill="#000000" fill-rule="evenodd" stroke="none"/>
  </g>
</svg>
