<?xml version="1.0" encoding="UTF-8" standalone="no"?>
<svg xmlns:xlink="http://www.w3.org/1999/xlink" height="1.2px" width="4.7px" xmlns="http://www.w3.org/2000/svg">
  <g transform="matrix(1.0, 0.0, 0.0, 1.0, 1.65, 19.8)">
    <path d="M0.1 -19.7 L0.3 -19.45 0.5 -19.25 0.3 -19.1 0.25 -19.05 0.15 -19.0 0.1 -18.95 -0.3 -18.95 -0.35 -19.0 -0.5 -19.15 -0.6 -19.2 -0.7 -19.4 -0.55 -19.5 -0.55 -19.55 -0.4 -19.75 0.1 -19.7 M-1.3 -19.8 L-1.25 -19.7 -1.2 -19.45 -1.05 -19.35 -1.05 -19.05 -1.3 -18.85 -1.5 -18.85 -1.65 -19.7 -1.65 -19.8 -1.4 -19.8 -1.3 -19.8 M1.85 -19.2 L1.75 -19.15 1.7 -18.9 1.6 -18.75 1.55 -18.7 1.25 -18.65 1.0 -18.9 0.9 -19.25 1.1 -19.3 1.15 -19.6 1.2 -19.7 1.5 -19.7 1.5 -19.6 1.85 -19.2 M3.05 -19.15 L3.0 -19.1 2.85 -19.1 2.8 -18.85 2.7 -18.8 2.55 -18.6 2.2 -18.6 2.05 -19.0 1.95 -19.05 1.95 -19.1 1.95 -19.2 2.15 -19.15 2.25 -19.25 2.45 -19.55 2.5 -19.5 2.8 -19.55 2.85 -19.35 3.05 -19.15" fill="#000000" fill-rule="evenodd" stroke="none"/>
  </g>
</svg>
