<?xml version="1.0" encoding="UTF-8" standalone="no"?>
<svg xmlns:xlink="http://www.w3.org/1999/xlink" height="1.6px" width="7.3px" xmlns="http://www.w3.org/2000/svg">
  <g transform="matrix(1.0, 0.0, 0.0, 1.0, 2.9, 18.6)">
    <path d="M1.55 -18.05 L1.6 -18.4 1.65 -18.4 2.1 -18.4 2.15 -18.4 2.15 -18.3 2.45 -18.0 2.65 -18.0 2.5 -17.35 1.95 -17.3 1.55 -17.5 1.45 -17.75 1.3 -17.8 1.3 -17.85 1.45 -17.9 1.55 -18.05 M3.55 -18.15 L3.65 -18.45 3.7 -18.45 3.85 -18.45 4.25 -17.75 4.4 -17.05 4.4 -17.0 3.65 -17.15 3.5 -17.35 3.2 -17.6 3.15 -17.7 3.05 -17.95 3.05 -18.0 3.4 -18.0 3.45 -18.1 3.55 -18.15 M-2.65 -18.0 L-2.9 -18.05 -2.6 -18.55 -2.3 -18.25 -1.8 -18.25 -1.7 -18.0 -1.3 -18.0 -1.4 -17.75 -1.6 -17.7 -1.7 -17.55 -1.7 -17.3 -1.9 -17.15 -2.25 -17.15 -2.3 -17.2 -2.4 -17.4 -2.6 -17.55 -2.65 -18.0 M-0.1 -18.6 L0.1 -18.45 0.1 -18.2 0.3 -18.05 0.55 -18.0 0.6 -17.95 0.5 -17.55 0.45 -17.45 0.3 -17.45 -0.15 -17.45 -0.35 -17.55 -0.55 -17.75 -0.55 -17.8 -0.65 -18.0 -0.45 -18.0 -0.35 -18.4 -0.35 -18.45 -0.25 -18.45 -0.1 -18.55 -0.1 -18.6" fill="#000000" fill-rule="evenodd" stroke="none"/>
  </g>
</svg>
