<?xml version="1.0" encoding="UTF-8" standalone="no"?>
<svg xmlns:xlink="http://www.w3.org/1999/xlink" height="1.0px" width="4.3px" xmlns="http://www.w3.org/2000/svg">
  <g transform="matrix(1.0, 0.0, 0.0, 1.0, 1.0, 18.45)">
    <path d="M3.1 -17.95 L3.3 -17.75 3.25 -17.65 2.7 -17.6 2.6 -17.5 2.2 -17.5 1.85 -17.55 1.8 -17.6 1.8 -17.75 1.7 -17.8 1.6 -17.85 1.75 -18.05 1.75 -18.0 2.0 -18.05 2.0 -18.0 2.05 -17.9 2.3 -17.75 2.7 -17.8 2.75 -17.95 3.05 -17.95 3.1 -17.95 M0.8 -18.45 L0.8 -18.2 1.1 -17.95 1.1 -17.9 1.25 -17.85 1.2 -17.8 1.15 -17.5 0.95 -17.45 Q0.55 -17.35 0.35 -17.65 L0.35 -17.8 0.35 -17.85 0.25 -17.95 0.5 -17.9 0.55 -18.3 0.6 -18.3 0.65 -18.35 0.75 -18.4 0.8 -18.4 0.8 -18.45 M-0.55 -17.95 L-0.1 -17.95 -0.1 -17.6 -0.2 -17.45 -0.45 -17.45 -1.0 -18.2 -0.8 -18.2 -0.75 -18.25 -0.6 -18.15 -0.6 -18.1 -0.55 -17.95" fill="#000000" fill-rule="evenodd" stroke="none"/>
  </g>
</svg>
