<?xml version="1.0" encoding="UTF-8" standalone="no"?>
<svg xmlns:xlink="http://www.w3.org/1999/xlink" height="0.8px" width="3.95px" xmlns="http://www.w3.org/2000/svg">
  <g transform="matrix(1.0, 0.0, 0.0, 1.0, 0.9, 17.8)">
    <path d="M1.15 -17.7 L1.25 -17.65 1.35 -17.6 1.35 -17.45 1.4 -17.4 1.7 -17.35 1.7 -17.3 1.4 -17.2 1.25 -17.1 0.75 -17.15 0.7 -17.2 0.65 -17.3 0.7 -17.35 0.75 -17.65 0.8 -17.7 1.1 -17.7 1.15 -17.7 M2.45 -17.0 L2.25 -17.25 2.2 -17.4 2.25 -17.45 2.8 -17.5 2.85 -17.6 3.05 -17.55 2.75 -17.25 2.45 -17.0 M-0.2 -17.8 L-0.1 -17.7 -0.1 -17.65 -0.1 -17.5 0.0 -17.4 -0.05 -17.4 -0.15 -17.35 -0.2 -17.3 -0.4 -17.25 -0.4 -17.05 -0.5 -17.0 -0.85 -17.25 -0.9 -17.3 -0.65 -17.3 -0.55 -17.45 -0.55 -17.8 -0.2 -17.8" fill="#000000" fill-rule="evenodd" stroke="none"/>
  </g>
</svg>
