<?xml version="1.0" encoding="UTF-8" standalone="no"?>
<svg xmlns:xlink="http://www.w3.org/1999/xlink" height="3.55px" width="10.65px" xmlns="http://www.w3.org/2000/svg">
  <g transform="matrix(1.0, 0.0, 0.0, 1.0, 5.3, -8.1)">
    <path d="M4.05 9.2 L4.55 10.25 4.95 10.55 5.35 10.65 Q2.9 11.65 0.0 11.65 -2.6 11.65 -4.85 10.85 L-5.3 10.65 -4.85 9.6 -4.25 9.45 -4.05 9.45 -3.45 8.55 -3.4 8.5 -3.4 8.1 -2.9 8.15 -2.3 8.1 -1.8 8.1 -1.75 9.2 -0.95 9.7 0.95 9.7 1.1 9.05 1.45 9.05 2.15 8.5 2.35 8.55 3.25 8.5 3.35 8.9 4.05 9.2" fill="#000000" fill-rule="evenodd" stroke="none"/>
  </g>
</svg>
