<?xml version="1.0" encoding="UTF-8" standalone="no"?>
<svg xmlns:xlink="http://www.w3.org/1999/xlink" height="46.0px" width="46.5px" xmlns="http://www.w3.org/2000/svg">
  <g transform="matrix(1.0, 0.0, 0.0, 1.0, 23.25, 23.0)">
    <path d="M0.0 -22.5 Q9.4 -22.5 16.05 -15.9 22.75 -9.3 22.75 0.0 22.75 9.3 16.05 15.9 9.4 22.5 0.0 22.5 -9.4 22.5 -16.1 15.9 -22.75 9.3 -22.75 0.0 -22.75 -9.3 -16.1 -15.9 -9.4 -22.5 0.0 -22.5 Z" fill="none" stroke="#000000" stroke-linecap="round" stroke-linejoin="round" stroke-width="1.0"/>
    <path d="M0.2 -1.35 L-0.35 -0.7 Q-0.9 0.1 -0.4 0.7 0.05 1.3 1.2 1.3 L2.4 1.25 2.65 1.25 2.8 1.25 3.0 1.2 3.8 0.75 4.15 0.3 Q4.6 -0.5 4.3 -1.6 L4.1 -2.1 Q3.75 -2.7 3.1 -2.65 L1.15 -2.05 0.2 -1.35 M7.9 -0.45 L7.6 0.2 7.6 0.25 Q6.9 1.55 5.65 2.7 L2.5 5.0 2.35 6.2 2.35 7.45 2.3 7.75 2.2 7.85 1.75 8.05 Q1.5 8.05 1.3 7.85 L1.25 7.8 1.15 7.45 1.15 6.5 0.85 6.6 0.85 7.7 0.7 8.1 0.4 8.3 0.25 8.3 0.05 8.25 -0.2 8.1 -0.35 7.7 -0.35 6.95 -0.9 7.0 -0.9 7.7 -1.05 8.1 -1.1 8.15 -1.5 8.3 -1.7 8.25 -1.9 8.15 -1.95 8.1 -2.1 7.7 -2.1 7.0 -3.35 6.8 -3.6 6.7 -4.3 6.45 -4.3 7.45 -4.45 7.85 -4.5 7.9 -4.85 8.05 -4.9 8.05 -5.25 7.95 -5.35 7.85 -5.5 7.6 -5.5 7.45 -5.5 6.5 -5.5 6.45 -5.5 5.0 -8.15 2.7 -8.35 2.5 -8.8 2.05 -9.25 1.5 -10.05 0.25 Q-11.0 -1.45 -11.0 -3.5 -11.0 -7.1 -8.15 -9.7 L-8.1 -9.75 Q-5.25 -12.25 -1.25 -12.25 2.75 -12.25 5.6 -9.75 L5.65 -9.7 Q8.5 -7.1 8.5 -3.5 8.5 -2.05 8.05 -0.75 L7.9 -0.45 M-7.45 21.35 Q-12.25 19.7 -16.1 15.9 L-18.6 13.05 Q-18.6 10.65 -17.4 8.35 -15.6 4.8 -12.1 3.4 L-12.0 3.35 Q-10.9 2.9 -9.8 2.8 L-9.35 3.25 -9.15 3.45 -6.5 5.75 -6.5 7.2 -6.5 7.25 -6.5 8.2 -6.5 8.35 -6.9 8.85 Q-7.25 9.7 -7.25 10.85 L-7.05 12.0 -6.7 12.75 Q-6.2 13.6 -5.5 13.45 -4.8 13.3 -4.25 12.3 L-3.7 11.15 -2.75 13.5 -1.0 16.55 -1.8 18.8 -1.8 19.2 -2.15 19.5 -1.25 19.95 -1.0 20.15 -0.95 20.3 -0.95 20.75 -1.0 20.75 -1.35 21.05 -1.8 21.05 -3.95 19.9 -7.2 21.25 -7.45 21.35 M11.3 11.5 L9.25 11.45 Q8.65 11.55 8.15 11.8 7.75 11.95 7.45 12.25 6.65 12.85 6.95 13.55 7.2 14.25 8.25 14.6 L10.0 15.1 Q10.65 15.25 11.4 14.65 12.05 14.05 12.15 12.9 L12.1 12.35 Q11.95 11.65 11.3 11.5 M16.0 5.65 Q17.85 9.0 16.7 12.45 16.05 14.35 14.65 15.7 13.55 16.7 12.05 17.35 L8.35 18.55 7.8 19.65 7.4 20.8 7.1 21.15 6.65 21.2 6.3 20.9 6.25 20.45 6.55 19.55 6.25 19.55 5.9 20.6 5.6 20.95 5.15 20.95 4.8 20.65 4.75 20.2 5.0 19.5 4.5 19.35 4.25 20.05 3.95 20.35 3.5 20.4 3.15 20.1 3.1 19.65 3.35 18.95 1.45 17.75 1.1 18.7 0.8 19.05 0.35 19.1 0.0 18.8 -0.05 18.7 -0.05 18.3 0.75 16.05 -1.0 13.0 -1.95 10.65 -2.05 10.1 -2.15 9.4 -1.75 9.55 Q-1.5 9.55 -1.3 9.35 L-1.2 9.25 -1.0 9.3 -0.6 9.15 -0.45 9.35 0.0 9.55 0.45 9.35 0.55 9.25 0.75 9.3 0.9 9.3 Q0.3 10.15 0.5 11.05 0.7 11.95 1.3 12.25 L3.0 12.9 4.7 12.85 Q5.3 12.45 5.05 11.5 L4.8 10.7 4.1 9.8 Q3.45 9.1 2.8 8.75 L2.85 8.45 2.85 7.2 3.0 6.0 6.15 3.7 Q7.4 2.55 8.1 1.25 L8.1 1.2 8.4 0.55 10.25 1.05 Q14.05 2.3 15.95 5.6 L16.0 5.65 M6.2 14.35 L5.85 14.65 5.35 15.55 4.9 16.7 Q4.7 17.2 5.1 17.1 L5.75 16.7 6.15 15.8 6.4 14.8 6.2 14.35 M-2.85 -0.65 L-3.35 -1.3 -4.3 -2.0 -6.25 -2.6 Q-6.95 -2.65 -7.3 -2.05 L-7.5 -1.55 Q-7.8 -0.45 -7.35 0.35 -6.85 1.15 -6.15 1.25 L-4.35 1.35 Q-3.25 1.35 -2.75 0.75 -2.3 0.15 -2.85 -0.65 M4.75 15.4 L4.9 14.35 4.8 13.9 4.4 14.2 3.95 15.1 3.75 16.1 4.0 16.8 Q4.25 17.1 4.45 16.6 L4.75 15.4 M-0.85 1.65 L-1.1 2.05 -1.3 3.1 -1.35 4.3 -1.35 4.4 -1.35 4.45 -1.05 4.65 -0.85 4.55 -0.55 4.05 -0.5 4.0 -0.45 3.05 -0.55 2.05 -0.85 1.65 M-2.1 2.1 L-2.35 1.7 -2.65 2.1 -2.75 3.1 -2.65 4.1 -2.15 4.7 Q-1.8 4.9 -1.8 4.35 L-1.9 3.15 -2.1 2.1 M-4.0 8.9 L-3.95 8.85 -3.95 9.0 -4.0 8.9 M-11.05 17.2 Q-11.4 17.75 -11.05 18.35 L-10.7 18.75 Q-9.85 19.5 -8.9 19.45 -7.95 19.35 -7.6 18.85 L-6.7 17.25 Q-6.2 16.25 -6.5 15.55 -6.8 14.9 -7.8 15.0 L-8.6 15.2 -9.65 15.7 -11.05 17.2 M-4.85 14.25 L-4.6 14.65 -3.75 15.3 -2.7 15.95 Q-2.25 16.15 -2.25 15.8 L-2.55 15.1 -3.4 14.55 Q-3.95 14.25 -4.35 14.2 L-4.85 14.25 M-3.45 16.95 L-2.7 16.8 Q-2.4 16.55 -2.85 16.35 L-3.95 15.9 -5.0 15.6 -5.45 15.6 -5.25 16.05 -4.4 16.6 -3.45 16.95" fill="#000000" fill-rule="evenodd" stroke="none"/>
    <path d="M-18.6 13.05 Q-22.75 7.35 -22.75 0.0 -22.75 -9.3 -16.1 -15.9 -9.4 -22.5 0.0 -22.5 9.4 -22.5 16.05 -15.9 22.75 -9.3 22.75 0.0 22.75 9.3 16.05 15.9 9.4 22.5 0.0 22.5 -4.0 22.5 -7.45 21.35 -12.25 19.7 -16.1 15.9 L-18.6 13.05 Z" fill="none" stroke="#000000" stroke-linecap="round" stroke-linejoin="round" stroke-width="1.0"/>
  </g>
</svg>
