<?xml version="1.0" encoding="UTF-8" standalone="no"?>
<svg xmlns:xlink="http://www.w3.org/1999/xlink" height="1.0px" width="3.2px" xmlns="http://www.w3.org/2000/svg">
  <g transform="matrix(1.0, 0.0, 0.0, 1.0, 1.15, 17.8)">
    <path d="M1.45 -17.6 L1.65 -17.5 1.8 -17.2 1.95 -17.1 2.05 -17.05 1.35 -16.85 1.25 -16.8 0.85 -17.2 0.6 -17.35 0.75 -17.35 0.8 -17.55 0.9 -17.55 1.1 -17.7 1.15 -17.7 1.4 -17.7 1.45 -17.6 M-0.05 -17.5 L0.15 -17.35 -0.05 -17.15 -0.1 -17.15 -0.45 -17.05 -0.5 -16.85 -0.65 -16.9 -1.0 -17.0 -1.15 -17.05 -1.0 -17.35 -0.8 -17.4 -0.75 -17.4 -0.6 -17.65 -0.6 -17.7 -0.55 -17.7 -0.55 -17.8 -0.4 -17.8 -0.25 -17.8 -0.1 -17.8 -0.05 -17.5" fill="#000000" fill-rule="evenodd" stroke="none"/>
  </g>
</svg>
