<?xml version="1.0" encoding="UTF-8" standalone="no"?>
<svg xmlns:xlink="http://www.w3.org/1999/xlink" height="16.6px" width="34.0px" xmlns="http://www.w3.org/2000/svg">
  <g transform="matrix(1.0, 0.0, 0.0, 1.0, 16.5, 7.85)">
    <path d="M2.1 -5.75 Q4.1 -6.2 5.3 -7.55 L7.0 -6.2 7.2 -6.0 Q9.9 -5.6 12.15 -4.8 17.7 -2.8 17.5 0.25 17.7 3.3 12.15 5.25 9.65 6.15 6.6 6.6 4.15 8.75 0.85 8.75 -2.35 8.75 -4.7 6.75 -8.3 6.3 -11.2 5.25 L-11.15 5.25 Q-16.7 3.3 -16.5 0.25 -16.7 -2.8 -11.2 -4.8 L-11.15 -4.8 Q-8.6 -5.75 -5.45 -6.1 L-5.35 -6.2 -3.1 -7.85 -2.9 -7.25 -2.5 -6.85 -2.4 -6.0 Q-0.8 -5.05 0.85 -4.5 L2.1 -5.75" fill="#000000" fill-rule="evenodd" stroke="none"/>
  </g>
</svg>
