<?xml version="1.0" encoding="UTF-8" standalone="no"?>
<svg xmlns:xlink="http://www.w3.org/1999/xlink" height="14.55px" width="34.0px" xmlns="http://www.w3.org/2000/svg">
  <g transform="matrix(1.0, 0.0, 0.0, 1.0, 16.5, 5.8)">
    <path d="M2.3 -5.75 L2.25 -4.5 Q3.15 -4.15 3.75 -3.5 L4.25 -3.0 Q8.45 -2.6 10.55 -4.95 L10.75 -5.0 10.75 -5.2 12.15 -4.8 Q17.7 -2.8 17.5 0.25 17.7 3.3 12.15 5.25 9.65 6.15 6.6 6.6 4.15 8.75 0.85 8.75 -2.35 8.75 -4.7 6.75 -8.3 6.3 -11.2 5.25 L-11.15 5.25 Q-16.7 3.3 -16.5 0.25 -16.7 -2.8 -11.2 -4.8 L-11.15 -4.8 -7.55 -5.75 -7.5 -5.75 -6.6 -4.95 Q-6.3 -4.7 -6.5 -4.0 L-4.75 -3.25 Q-3.15 -3.55 -1.75 -4.75 L-1.25 -5.0 -1.1 -5.3 0.85 -4.5 2.1 -5.75 2.3 -5.8 2.3 -5.75" fill="#000000" fill-rule="evenodd" stroke="none"/>
  </g>
</svg>
