<?xml version="1.0" encoding="UTF-8" standalone="no"?>
<svg xmlns:xlink="http://www.w3.org/1999/xlink" height="13.5px" width="34.0px" xmlns="http://www.w3.org/2000/svg">
  <g transform="matrix(1.0, 0.0, 0.0, 1.0, 16.5, 4.75)">
    <path d="M5.0 -2.5 L5.35 -2.95 Q7.9 -2.95 9.55 -4.05 L10.25 -2.75 11.5 -1.75 15.0 -1.75 15.3 -3.3 Q17.6 -1.75 17.5 0.25 17.7 3.3 12.15 5.25 9.65 6.15 6.6 6.6 4.15 8.75 0.85 8.75 -2.35 8.75 -4.7 6.75 -8.3 6.3 -11.2 5.25 L-11.15 5.25 Q-16.7 3.3 -16.5 0.25 -16.7 -2.75 -11.25 -4.75 -9.4 -2.55 -7.25 -1.25 L-5.75 -1.25 -4.95 -3.3 -4.75 -3.25 Q-3.6 -3.45 -2.55 -4.15 L-2.25 -3.25 -0.5 -1.75 3.5 -1.75 5.0 -2.5" fill="#000000" fill-rule="evenodd" stroke="none"/>
  </g>
</svg>
