<?xml version="1.0" encoding="UTF-8" standalone="no"?>
<svg xmlns:xlink="http://www.w3.org/1999/xlink" height="11.95px" width="34.0px" xmlns="http://www.w3.org/2000/svg">
  <g transform="matrix(1.0, 0.0, 0.0, 1.0, 16.5, 3.2)">
    <path d="M1.4 -1.75 L3.5 -1.75 5.0 -2.5 5.2 -2.7 Q6.4 -0.9 7.8 0.45 L8.25 0.75 11.25 0.75 11.25 -1.75 11.4 -1.8 11.5 -1.75 14.55 -1.75 14.75 -0.5 16.0 0.25 17.5 0.65 Q17.35 3.4 12.15 5.25 9.65 6.15 6.6 6.6 4.15 8.75 0.85 8.75 -2.35 8.75 -4.7 6.75 -8.3 6.3 -11.2 5.25 L-11.15 5.25 Q-16.7 3.3 -16.5 0.25 -16.6 -1.7 -14.45 -3.2 L-14.0 -2.0 Q-12.4 -0.7 -10.25 -1.0 L-9.35 -2.8 -7.25 -1.25 -5.75 -1.25 -5.7 -1.3 -5.5 -1.25 -5.25 -1.25 -4.25 0.25 -1.0 0.25 Q0.4 -0.25 1.15 -1.1 L1.25 -1.25 1.4 -1.75" fill="#000000" fill-rule="evenodd" stroke="none"/>
  </g>
</svg>
