<?xml version="1.0" encoding="UTF-8" standalone="no"?>
<svg xmlns:xlink="http://www.w3.org/1999/xlink" height="1.6px" width="9.6px" xmlns="http://www.w3.org/2000/svg">
  <g transform="matrix(1.0, 0.0, 0.0, 1.0, 3.45, 39.7)">
    <path d="M3.75 -39.5 L3.95 -39.1 4.3 -38.85 4.25 -38.8 4.25 -38.1 3.35 -38.1 3.25 -38.15 2.45 -39.1 2.5 -39.2 3.75 -39.5 M-3.3 -38.9 L-3.45 -39.25 -2.45 -39.7 -1.9 -39.15 -2.15 -38.6 Q-2.8 -38.5 -3.3 -38.9 M5.3 -38.45 L5.25 -38.8 5.4 -38.8 5.5 -39.3 Q6.2 -38.8 6.15 -38.25 L6.15 -38.1 5.7 -38.25 5.3 -38.45 M1.3 -38.8 L1.25 -38.65 Q1.0 -38.35 0.6 -38.25 L-0.35 -38.25 -0.65 -38.65 -0.75 -38.65 -0.8 -38.7 -0.6 -39.3 -0.5 -39.25 Q-0.2 -39.35 0.15 -39.55 L0.25 -39.25 0.75 -38.8 1.3 -38.8" fill="#000000" fill-rule="evenodd" stroke="none"/>
  </g>
</svg>
