<?xml version="1.0" encoding="UTF-8" standalone="no"?>
<svg xmlns:xlink="http://www.w3.org/1999/xlink" height="9.95px" width="33.25px" xmlns="http://www.w3.org/2000/svg">
  <g transform="matrix(1.0, 0.0, 0.0, 1.0, 16.5, 1.2)">
    <path d="M-10.45 -0.95 L-10.5 0.0 -10.5 0.25 -9.0 0.25 -8.25 0.75 -4.0 0.75 -3.3 0.25 -1.0 0.25 0.4 -0.4 1.5 1.25 2.5 2.0 6.0 2.0 7.0 1.5 Q6.9 0.45 7.05 -0.35 L7.8 0.45 8.25 0.75 10.45 0.75 11.3 1.7 12.25 2.5 16.75 2.5 Q15.5 4.05 12.15 5.25 9.65 6.15 6.6 6.6 4.15 8.75 0.85 8.75 -2.35 8.75 -4.7 6.75 -8.3 6.3 -11.2 5.25 L-11.15 5.25 Q-16.25 3.45 -16.5 0.75 L-16.25 1.0 -15.25 1.5 -13.75 1.5 -13.0 1.0 -13.0 -1.0 -12.6 -1.2 -10.45 -0.95" fill="#000000" fill-rule="evenodd" stroke="none"/>
  </g>
</svg>
