<?xml version="1.0" encoding="UTF-8" standalone="no"?>
<svg xmlns:xlink="http://www.w3.org/1999/xlink" height="1.4px" width="7.65px" xmlns="http://www.w3.org/2000/svg">
  <g transform="matrix(1.0, 0.0, 0.0, 1.0, 2.95, 38.85)">
    <path d="M-2.1 -38.8 L-2.1 -38.5 -2.1 -38.45 -1.65 -38.45 -1.4 -38.3 -1.35 -38.3 -1.65 -37.6 -2.6 -37.7 -2.7 -38.0 -2.9 -38.05 -2.95 -38.15 -2.85 -38.2 -2.85 -38.8 -2.75 -38.85 -2.1 -38.8 M0.85 -37.7 L-0.15 -37.75 -0.3 -38.3 -0.15 -38.3 0.05 -38.45 0.75 -38.45 1.15 -38.6 1.5 -38.15 1.8 -37.9 2.15 -37.9 2.1 -37.55 1.05 -37.55 0.85 -37.7 M4.45 -38.0 L4.7 -37.75 4.55 -37.45 4.1 -37.45 3.15 -37.6 2.85 -37.9 3.15 -38.05 3.15 -38.6 3.4 -38.35 3.5 -38.3 4.2 -38.3 4.45 -38.0" fill="#000000" fill-rule="evenodd" stroke="none"/>
  </g>
</svg>
