<?xml version="1.0" encoding="UTF-8" standalone="no"?>
<svg xmlns:xlink="http://www.w3.org/1999/xlink" height="4.55px" width="33.25px" xmlns="http://www.w3.org/2000/svg">
  <g transform="matrix(1.0, 0.0, 0.0, 1.0, 16.6, 2.25)">
    <path d="M7.7 0.15 L7.15 0.5 6.15 2.0 3.4 2.0 2.75 1.2 2.2 0.25 3.4 0.25 3.55 -1.0 5.9 -1.0 6.9 0.0 7.7 0.15 M10.95 0.5 L11.65 0.5 12.15 -0.5 16.65 -0.5 Q15.4 1.05 12.05 2.25 L11.85 2.3 11.4 2.0 11.2 1.45 10.95 0.5 M-4.1 -0.5 L-2.2 -0.35 -3.1 0.75 -7.85 0.75 -8.4 0.3 -8.95 -0.2 Q-8.35 -1.2 -8.05 -2.25 L-4.6 -2.25 -4.1 -0.5 M-11.15 -0.15 L-11.65 2.1 Q-16.35 0.35 -16.6 -2.25 L-16.35 -2.0 -15.35 -1.5 -13.85 -1.5 -13.45 -1.75 -13.35 -1.5 -12.6 -1.25 -12.35 -0.25 -11.15 -0.15" fill="#000000" fill-rule="evenodd" stroke="none"/>
  </g>
</svg>
