<?xml version="1.0" encoding="UTF-8" standalone="no"?>
<svg xmlns:xlink="http://www.w3.org/1999/xlink" height="3.95px" width="23.5px" xmlns="http://www.w3.org/2000/svg">
  <g transform="matrix(1.0, 0.0, 0.0, 1.0, 11.75, 1.95)">
    <path d="M11.1 -0.15 L11.3 0.4 11.75 0.7 Q9.4 1.55 6.55 2.0 L6.55 0.9 6.5 -0.25 7.05 -1.1 7.6 -1.45 10.05 -1.1 10.85 -1.1 11.1 -0.15 M2.1 -1.35 L2.65 -0.4 3.3 0.4 4.9 0.4 4.8 0.65 2.8 0.7 -3.7 -0.1 -4.2 -0.85 -3.2 -0.85 -2.3 -1.95 -0.95 -1.85 -0.2 -1.35 2.1 -1.35 M-6.75 -0.85 L-8.2 1.6 -11.4 0.65 -11.35 0.65 -11.75 0.5 -11.25 -1.75 -9.2 -1.6 -9.05 -1.8 -8.5 -1.3 -7.95 -0.85 -6.75 -0.85" fill="#000000" fill-rule="evenodd" stroke="none"/>
  </g>
</svg>
