<?xml version="1.0" encoding="UTF-8" standalone="no"?>
<svg xmlns:xlink="http://www.w3.org/1999/xlink" height="1.2px" width="7.05px" xmlns="http://www.w3.org/2000/svg">
  <g transform="matrix(1.0, 0.0, 0.0, 1.0, 2.9, 38.75)">
    <path d="M3.95 -38.2 L4.0 -38.05 4.15 -37.95 2.55 -37.55 2.55 -37.9 2.55 -38.25 2.7 -38.5 2.9 -38.6 3.6 -38.5 3.85 -38.5 3.95 -38.2 M1.25 -38.6 L1.4 -38.3 1.6 -38.05 2.1 -38.05 2.05 -38.0 1.45 -37.95 -0.5 -38.2 -0.65 -38.45 -0.35 -38.45 -0.1 -38.75 0.35 -38.75 0.55 -38.6 1.25 -38.6 M-1.75 -38.45 L-1.4 -38.45 -1.85 -37.7 -2.8 -38.0 -2.9 -38.0 -2.75 -38.7 -2.15 -38.65 -2.1 -38.7 -1.95 -38.55 Q-1.85 -38.45 -1.75 -38.45" fill="#000000" fill-rule="evenodd" stroke="none"/>
  </g>
</svg>
