<?xml version="1.0" encoding="UTF-8" standalone="no"?>
<svg xmlns:xlink="http://www.w3.org/1999/xlink" height="4.8px" width="8.25px" xmlns="http://www.w3.org/2000/svg">
  <g transform="matrix(1.0, 0.0, 0.0, 1.0, 12.25, -1.9)">
    <path d="M-10.4 4.05 L-12.0 2.15 Q-8.45 3.65 -8.25 3.25 L-6.35 3.0 -5.0 3.1 Q-4.4 3.45 -4.3 4.2 -4.1 4.85 -4.45 5.45 -4.8 6.05 -5.5 6.3 -6.8 6.75 -8.65 5.7 L-10.4 4.05" fill="url(#gradient0)" fill-rule="evenodd" stroke="none"/>
    <path d="M-10.4 4.05 L-12.0 2.15 Q-8.45 3.65 -8.25 3.25 L-6.35 3.0 -5.0 3.1 Q-4.4 3.45 -4.3 4.2 -4.1 4.85 -4.45 5.45 -4.8 6.05 -5.5 6.3 -6.8 6.75 -8.65 5.7 L-10.4 4.05 Z" fill="none" stroke="#000000" stroke-linecap="round" stroke-linejoin="round" stroke-width="0.5"/>
  </g>
  <defs>
    <radialGradient cx="0" cy="0" gradientTransform="matrix(0.0014, -0.0024, 0.0024, 0.0014, -5.9, 4.6)" gradientUnits="userSpaceOnUse" id="gradient0" r="819.2" spreadMethod="pad">
      <stop offset="0.0" stop-color="#bebe4b"/>
      <stop offset="1.0" stop-color="#ffffff"/>
    </radialGradient>
  </defs>
</svg>
