<?xml version="1.0" encoding="UTF-8" standalone="no"?>
<svg xmlns:xlink="http://www.w3.org/1999/xlink" height="8.7px" width="4.55px" xmlns="http://www.w3.org/2000/svg">
  <g transform="matrix(1.0, 0.0, 0.0, 1.0, -2.85, 23.55)">
    <path d="M6.6 -17.4 L5.75 -15.1 Q5.3 -18.9 4.85 -18.9 L3.65 -20.45 Q3.1 -20.95 3.1 -21.65 3.1 -22.35 3.65 -22.8 4.15 -23.3 4.85 -23.3 5.55 -23.3 6.1 -22.8 7.15 -21.9 7.15 -19.8 L6.6 -17.4" fill="url(#gradient0)" fill-rule="evenodd" stroke="none"/>
    <path d="M6.6 -17.4 L5.75 -15.1 Q5.3 -18.9 4.85 -18.9 L3.65 -20.45 Q3.1 -20.95 3.1 -21.65 3.1 -22.35 3.65 -22.8 4.15 -23.3 4.85 -23.3 5.55 -23.3 6.1 -22.8 7.15 -21.9 7.15 -19.8 L6.6 -17.4 Z" fill="none" stroke="#000000" stroke-linecap="round" stroke-linejoin="round" stroke-width="0.5"/>
  </g>
  <defs>
    <radialGradient cx="0" cy="0" gradientTransform="matrix(-0.0028, 0.0, 0.0, -0.0028, 4.85, -21.65)" gradientUnits="userSpaceOnUse" id="gradient0" r="819.2" spreadMethod="pad">
      <stop offset="0.0" stop-color="#bebe4b"/>
      <stop offset="1.0" stop-color="#ffffff"/>
    </radialGradient>
  </defs>
</svg>
