<?xml version="1.0" encoding="UTF-8" standalone="no"?>
<svg xmlns:xlink="http://www.w3.org/1999/xlink" height="4.55px" width="8.7px" xmlns="http://www.w3.org/2000/svg">
  <g transform="matrix(1.0, 0.0, 0.0, 1.0, 1.95, 8.9)">
    <path d="M3.65 -5.15 L2.1 -6.35 Q2.1 -6.8 -1.7 -7.25 L0.6 -8.1 3.0 -8.65 Q5.1 -8.65 6.0 -7.6 6.5 -7.05 6.5 -6.35 6.5 -5.65 6.0 -5.15 5.55 -4.6 4.85 -4.6 4.15 -4.6 3.65 -5.15" fill="url(#gradient0)" fill-rule="evenodd" stroke="none"/>
    <path d="M3.65 -5.15 Q4.15 -4.6 4.85 -4.6 5.55 -4.6 6.0 -5.15 6.5 -5.65 6.5 -6.35 6.5 -7.05 6.0 -7.6 5.1 -8.65 3.0 -8.65 L0.6 -8.1 -1.7 -7.25 Q2.1 -6.8 2.1 -6.35 L3.65 -5.15 Z" fill="none" stroke="#000000" stroke-linecap="round" stroke-linejoin="round" stroke-width="0.5"/>
  </g>
  <defs>
    <radialGradient cx="0" cy="0" gradientTransform="matrix(0.0, 0.0028, 0.0028, 0.0, 4.85, -6.35)" gradientUnits="userSpaceOnUse" id="gradient0" r="819.2" spreadMethod="pad">
      <stop offset="0.0" stop-color="#bebe4b"/>
      <stop offset="1.0" stop-color="#ffffff"/>
    </radialGradient>
  </defs>
</svg>
