<?xml version="1.0" encoding="UTF-8" standalone="no"?>
<svg xmlns:xlink="http://www.w3.org/1999/xlink" height="5.4px" width="8.0px" xmlns="http://www.w3.org/2000/svg">
  <g transform="matrix(1.0, 0.0, 0.0, 1.0, 2.35, -6.25)">
    <path d="M0.4 11.35 L-2.1 11.35 Q1.35 9.65 1.2 9.2 L2.25 7.55 Q2.5 6.85 3.15 6.6 L4.45 6.75 Q5.05 7.05 5.3 7.7 5.55 8.35 5.3 9.05 4.8 10.3 2.85 11.05 L0.4 11.35" fill="url(#gradient0)" fill-rule="evenodd" stroke="none"/>
    <path d="M0.4 11.35 L-2.1 11.35 Q1.35 9.65 1.2 9.2 L2.25 7.55 Q2.5 6.85 3.15 6.6 L4.45 6.75 Q5.05 7.05 5.3 7.7 5.55 8.35 5.3 9.05 4.8 10.3 2.85 11.05 L0.4 11.35 Z" fill="none" stroke="#000000" stroke-linecap="round" stroke-linejoin="round" stroke-width="0.5"/>
  </g>
  <defs>
    <radialGradient cx="0" cy="0" gradientTransform="matrix(-0.001, -0.0026, 0.0026, -0.001, 3.75, 8.25)" gradientUnits="userSpaceOnUse" id="gradient0" r="819.2" spreadMethod="pad">
      <stop offset="0.0" stop-color="#bebe4b"/>
      <stop offset="1.0" stop-color="#ffffff"/>
    </radialGradient>
  </defs>
</svg>
