<?xml version="1.0" encoding="UTF-8" standalone="no"?>
<svg xmlns:xlink="http://www.w3.org/1999/xlink" height="4.85px" width="8.45px" xmlns="http://www.w3.org/2000/svg">
  <g transform="matrix(1.0, 0.0, 0.0, 1.0, 8.95, 27.0)">
    <path d="M-3.2 -26.6 L-0.75 -26.15 Q-4.4 -25.05 -4.35 -24.6 L-5.65 -23.15 Q-6.1 -22.55 -6.75 -22.4 -7.45 -22.3 -7.95 -22.75 -8.55 -23.1 -8.7 -23.8 -8.8 -24.5 -8.4 -25.15 -7.7 -26.35 -5.65 -26.75 L-3.2 -26.6" fill="url(#gradient0)" fill-rule="evenodd" stroke="none"/>
    <path d="M-3.2 -26.6 L-0.75 -26.15 Q-4.4 -25.05 -4.35 -24.6 L-5.65 -23.15 Q-6.1 -22.55 -6.75 -22.4 -7.45 -22.3 -7.95 -22.75 -8.55 -23.1 -8.7 -23.8 -8.8 -24.5 -8.4 -25.15 -7.7 -26.35 -5.65 -26.75 L-3.2 -26.6 Z" fill="none" stroke="#000000" stroke-linecap="round" stroke-linejoin="round" stroke-width="0.5"/>
  </g>
  <defs>
    <radialGradient cx="0" cy="0" gradientTransform="matrix(5.0E-4, 0.0028, -0.0028, 5.0E-4, -7.05, -24.1)" gradientUnits="userSpaceOnUse" id="gradient0" r="819.2" spreadMethod="pad">
      <stop offset="0.0" stop-color="#bebe4b"/>
      <stop offset="1.0" stop-color="#ffffff"/>
    </radialGradient>
  </defs>
</svg>
