<?xml version="1.0" encoding="UTF-8" standalone="no"?>
<svg xmlns:xlink="http://www.w3.org/1999/xlink" height="8.3px" width="4.8px" xmlns="http://www.w3.org/2000/svg">
  <g transform="matrix(1.0, 0.0, 0.0, 1.0, -3.7, 19.1)">
    <path d="M5.95 -11.1 Q5.25 -11.2 4.9 -11.8 4.55 -12.4 4.75 -13.15 L5.05 -15.1 Q5.45 -15.3 3.95 -18.85 L5.85 -17.25 7.5 -15.45 Q8.55 -13.65 8.1 -12.3 7.85 -11.65 7.25 -11.3 L5.95 -11.1" fill="url(#gradient0)" fill-rule="evenodd" stroke="none"/>
    <path d="M5.95 -11.1 L7.25 -11.3 Q7.85 -11.65 8.1 -12.3 8.55 -13.65 7.5 -15.45 L5.85 -17.25 3.95 -18.85 Q5.45 -15.3 5.05 -15.1 L4.75 -13.15 Q4.55 -12.4 4.9 -11.8 5.25 -11.2 5.95 -11.1 Z" fill="none" stroke="#000000" stroke-linecap="round" stroke-linejoin="round" stroke-width="0.5"/>
  </g>
  <defs>
    <radialGradient cx="0" cy="0" gradientTransform="matrix(-0.0024, 0.0014, 0.0014, 0.0024, 6.4, -12.7)" gradientUnits="userSpaceOnUse" id="gradient0" r="819.2" spreadMethod="pad">
      <stop offset="0.0" stop-color="#bebe4b"/>
      <stop offset="1.0" stop-color="#ffffff"/>
    </radialGradient>
  </defs>
</svg>
