<?xml version="1.0" encoding="UTF-8" standalone="no"?>
<svg xmlns:xlink="http://www.w3.org/1999/xlink" height="4.6px" width="2.55px" xmlns="http://www.w3.org/2000/svg">
  <g transform="matrix(1.0, 0.0, 0.0, 1.0, 11.65, 2.85)">
    <path d="M-11.1 -1.45 L-10.7 -2.6 Q-10.45 -0.7 -10.25 -0.7 L-9.65 0.05 Q-9.35 0.3 -9.35 0.65 -9.35 1.0 -9.65 1.25 L-10.25 1.5 -10.85 1.25 Q-11.4 0.8 -11.4 -0.25 L-11.1 -1.45" fill="url(#gradient0)" fill-rule="evenodd" stroke="none"/>
    <path d="M-11.1 -1.45 L-10.7 -2.6 Q-10.45 -0.7 -10.25 -0.7 L-9.65 0.05 Q-9.35 0.3 -9.35 0.65 -9.35 1.0 -9.65 1.25 L-10.25 1.5 -10.85 1.25 Q-11.4 0.8 -11.4 -0.25 L-11.1 -1.45 Z" fill="none" stroke="#000000" stroke-linecap="round" stroke-linejoin="round" stroke-width="0.5"/>
  </g>
  <defs>
    <radialGradient cx="0" cy="0" gradientTransform="matrix(0.0014, 0.0, 0.0, 0.0014, -10.25, 0.65)" gradientUnits="userSpaceOnUse" id="gradient0" r="819.2" spreadMethod="pad">
      <stop offset="0.0" stop-color="#bebe4b"/>
      <stop offset="1.0" stop-color="#ffffff"/>
    </radialGradient>
  </defs>
</svg>
