<?xml version="1.0" encoding="UTF-8" standalone="no"?>
<svg xmlns:xlink="http://www.w3.org/1999/xlink" height="23.3px" width="30.55px" xmlns="http://www.w3.org/2000/svg">
  <g transform="matrix(1.0, 0.0, 0.0, 1.0, 15.45, 11.9)">
    <path d="M-11.8 -9.25 L-10.8 -10.15 Q-11.2 -8.25 -10.9 -8.1 L-10.4 -7.15 Q-10.15 -6.75 -10.25 -6.4 L-10.8 -6.0 -11.7 -6.05 Q-12.15 -6.25 -12.4 -6.55 -12.95 -7.3 -12.6 -8.3 L-11.8 -9.25" fill="url(#gradient0)" fill-rule="evenodd" stroke="none"/>
    <path d="M-11.8 -9.25 L-10.8 -10.15 Q-11.2 -8.25 -10.9 -8.1 L-10.4 -7.15 Q-10.15 -6.75 -10.25 -6.4 L-10.8 -6.0 -11.7 -6.05 Q-12.15 -6.25 -12.4 -6.55 -12.95 -7.3 -12.6 -8.3 L-11.8 -9.25 Z" fill="none" stroke="#000000" stroke-linecap="round" stroke-linejoin="round" stroke-width="0.5"/>
    <path d="M-5.55 -11.35 L-4.05 -11.65 Q-5.6 -10.35 -5.4 -10.15 L-5.55 -9.2 Q-5.55 -8.8 -5.9 -8.6 L-6.7 -8.5 -7.5 -8.85 -7.9 -9.55 Q-7.95 -10.3 -6.95 -10.95 L-5.55 -11.35" fill="url(#gradient1)" fill-rule="evenodd" stroke="none"/>
    <path d="M-5.55 -11.35 L-4.05 -11.65 Q-5.6 -10.35 -5.4 -10.15 L-5.55 -9.2 Q-5.55 -8.8 -5.9 -8.6 L-6.7 -8.5 -7.5 -8.85 -7.9 -9.55 Q-7.95 -10.3 -6.95 -10.95 L-5.55 -11.35 Z" fill="none" stroke="#000000" stroke-linecap="round" stroke-linejoin="round" stroke-width="0.5"/>
    <path d="M2.05 -10.5 L3.75 -10.15 Q1.35 -9.8 1.45 -9.55 L0.6 -8.85 -0.05 -8.6 Q-0.5 -8.55 -0.9 -8.8 L-1.45 -9.45 Q-1.6 -9.8 -1.35 -10.1 -1.0 -10.7 0.4 -10.75 L2.05 -10.5" fill="url(#gradient2)" fill-rule="evenodd" stroke="none"/>
    <path d="M2.05 -10.5 L3.75 -10.15 Q1.35 -9.8 1.45 -9.55 L0.6 -8.85 -0.05 -8.6 Q-0.5 -8.55 -0.9 -8.8 L-1.45 -9.45 Q-1.6 -9.8 -1.35 -10.1 -1.0 -10.7 0.4 -10.75 L2.05 -10.5 Z" fill="none" stroke="#000000" stroke-linecap="round" stroke-linejoin="round" stroke-width="0.5"/>
    <path d="M9.05 -7.15 L10.4 -6.2 7.75 -6.7 6.55 -6.5 Q6.1 -6.35 5.65 -6.5 5.2 -6.7 5.0 -7.05 4.7 -7.4 4.85 -7.75 L5.4 -8.2 7.5 -7.95 9.05 -7.15" fill="url(#gradient3)" fill-rule="evenodd" stroke="none"/>
    <path d="M9.05 -7.15 L10.4 -6.2 7.75 -6.7 6.55 -6.5 Q6.1 -6.35 5.65 -6.5 5.2 -6.7 5.0 -7.05 4.7 -7.4 4.85 -7.75 L5.4 -8.2 7.5 -7.95 9.05 -7.15 Z" fill="none" stroke="#000000" stroke-linecap="round" stroke-linejoin="round" stroke-width="0.5"/>
    <path d="M14.0 -1.9 L14.7 -0.6 Q12.65 -2.15 12.4 -2.05 L11.1 -2.4 Q10.6 -2.45 10.3 -2.75 9.95 -3.1 9.95 -3.45 L10.3 -4.0 11.1 -4.15 Q12.05 -4.05 13.1 -3.1 L14.0 -1.9" fill="url(#gradient4)" fill-rule="evenodd" stroke="none"/>
    <path d="M14.0 -1.9 L14.7 -0.6 Q12.65 -2.15 12.4 -2.05 L11.1 -2.4 Q10.6 -2.45 10.3 -2.75 9.95 -3.1 9.95 -3.45 L10.3 -4.0 11.1 -4.15 Q12.05 -4.05 13.1 -3.1 L14.0 -1.9 Z" fill="none" stroke="#000000" stroke-linecap="round" stroke-linejoin="round" stroke-width="0.5"/>
    <path d="M14.85 3.55 L14.65 4.8 Q13.7 2.8 13.4 2.85 L12.35 2.0 11.75 1.45 Q11.65 1.05 11.9 0.8 12.1 0.5 12.6 0.5 13.05 0.45 13.5 0.75 14.35 1.15 14.75 2.25 L14.85 3.55" fill="url(#gradient5)" fill-rule="evenodd" stroke="none"/>
    <path d="M14.85 3.55 L14.65 4.8 Q13.7 2.8 13.4 2.85 L12.35 2.0 11.75 1.45 Q11.65 1.05 11.9 0.8 12.1 0.5 12.6 0.5 13.05 0.45 13.5 0.75 14.35 1.15 14.75 2.25 L14.85 3.55 Z" fill="none" stroke="#000000" stroke-linecap="round" stroke-linejoin="round" stroke-width="0.5"/>
    <path d="M12.0 8.95 L11.0 9.85 Q11.4 7.95 11.1 7.8 L10.6 6.85 Q10.35 6.45 10.45 6.1 10.55 5.8 11.0 5.7 L11.9 5.75 12.6 6.25 Q13.15 7.0 12.8 8.0 L12.0 8.95" fill="url(#gradient6)" fill-rule="evenodd" stroke="none"/>
    <path d="M12.0 8.95 L11.0 9.85 Q11.4 7.95 11.1 7.8 L10.6 6.85 Q10.35 6.45 10.45 6.1 10.55 5.8 11.0 5.7 L11.9 5.75 12.6 6.25 Q13.15 7.0 12.8 8.0 L12.0 8.95 Z" fill="none" stroke="#000000" stroke-linecap="round" stroke-linejoin="round" stroke-width="0.5"/>
    <path d="M5.9 10.85 L4.4 11.15 Q5.95 9.85 5.75 9.65 L5.9 8.7 Q5.9 8.3 6.25 8.1 L7.05 8.0 7.85 8.35 8.25 9.05 Q8.3 9.8 7.3 10.45 L5.9 10.85" fill="url(#gradient7)" fill-rule="evenodd" stroke="none"/>
    <path d="M5.9 10.85 L4.4 11.15 Q5.95 9.85 5.75 9.65 L5.9 8.7 Q5.9 8.3 6.25 8.1 L7.05 8.0 7.85 8.35 8.25 9.05 Q8.3 9.8 7.3 10.45 L5.9 10.85 Z" fill="none" stroke="#000000" stroke-linecap="round" stroke-linejoin="round" stroke-width="0.5"/>
    <path d="M-1.8 10.2 L-3.5 9.85 -1.2 9.25 -0.35 8.55 0.3 8.3 1.15 8.5 1.7 9.15 Q1.85 9.5 1.6 9.8 1.25 10.4 -0.15 10.45 L-1.8 10.2" fill="url(#gradient8)" fill-rule="evenodd" stroke="none"/>
    <path d="M-1.8 10.2 L-3.5 9.85 -1.2 9.25 -0.35 8.55 0.3 8.3 1.15 8.5 1.7 9.15 Q1.85 9.5 1.6 9.8 1.25 10.4 -0.15 10.45 L-1.8 10.2 Z" fill="none" stroke="#000000" stroke-linecap="round" stroke-linejoin="round" stroke-width="0.5"/>
    <path d="M-9.6 6.65 L-10.95 5.7 -8.3 6.2 -7.1 6.0 Q-6.65 5.85 -6.2 6.0 L-5.55 6.55 Q-5.25 6.9 -5.4 7.25 L-5.95 7.7 -8.1 7.45 -9.6 6.65" fill="url(#gradient9)" fill-rule="evenodd" stroke="none"/>
    <path d="M-9.6 6.65 L-10.95 5.7 -8.3 6.2 -7.1 6.0 Q-6.65 5.85 -6.2 6.0 L-5.55 6.55 Q-5.25 6.9 -5.4 7.25 L-5.95 7.7 -8.1 7.45 -9.6 6.65 Z" fill="none" stroke="#000000" stroke-linecap="round" stroke-linejoin="round" stroke-width="0.5"/>
    <path d="M-14.5 1.15 L-15.2 -0.15 -12.9 1.3 -11.6 1.65 Q-11.1 1.7 -10.8 2.0 -10.45 2.35 -10.45 2.7 L-10.8 3.25 -11.6 3.4 Q-12.55 3.3 -13.6 2.35 L-14.5 1.15" fill="url(#gradient10)" fill-rule="evenodd" stroke="none"/>
    <path d="M-14.5 1.15 L-15.2 -0.15 -12.9 1.3 -11.6 1.65 Q-11.1 1.7 -10.8 2.0 -10.45 2.35 -10.45 2.7 L-10.8 3.25 -11.6 3.4 Q-12.55 3.3 -13.6 2.35 L-14.5 1.15 Z" fill="none" stroke="#000000" stroke-linecap="round" stroke-linejoin="round" stroke-width="0.5"/>
    <path d="M-14.9 -4.35 L-14.7 -5.6 Q-13.75 -3.6 -13.45 -3.65 L-12.4 -2.8 -11.8 -2.25 Q-11.7 -1.85 -11.95 -1.6 -12.15 -1.3 -12.65 -1.3 -13.1 -1.25 -13.55 -1.55 -14.4 -1.95 -14.8 -3.05 L-14.9 -4.35" fill="url(#gradient11)" fill-rule="evenodd" stroke="none"/>
    <path d="M-14.9 -4.35 L-14.7 -5.6 Q-13.75 -3.6 -13.45 -3.65 L-12.4 -2.8 -11.8 -2.25 Q-11.7 -1.85 -11.95 -1.6 -12.15 -1.3 -12.65 -1.3 -13.1 -1.25 -13.55 -1.55 -14.4 -1.95 -14.8 -3.05 L-14.9 -4.35 Z" fill="none" stroke="#000000" stroke-linecap="round" stroke-linejoin="round" stroke-width="0.5"/>
  </g>
  <defs>
    <radialGradient cx="0" cy="0" gradientTransform="matrix(0.0018, 7.0E-4, -5.0E-4, 0.0013, -11.4, -6.8)" gradientUnits="userSpaceOnUse" id="gradient0" r="819.2" spreadMethod="pad">
      <stop offset="0.0" stop-color="#bebe4b"/>
      <stop offset="1.0" stop-color="#ffffff"/>
    </radialGradient>
    <radialGradient cx="0" cy="0" gradientTransform="matrix(0.0014, 0.0012, -0.0013, 8.0E-4, -6.75, -9.35)" gradientUnits="userSpaceOnUse" id="gradient1" r="819.2" spreadMethod="pad">
      <stop offset="0.0" stop-color="#bebe4b"/>
      <stop offset="1.0" stop-color="#ffffff"/>
    </radialGradient>
    <radialGradient cx="0" cy="0" gradientTransform="matrix(5.0E-4, 0.0015, -0.0018, 1.0E-4, -0.35, -9.5)" gradientUnits="userSpaceOnUse" id="gradient2" r="819.2" spreadMethod="pad">
      <stop offset="0.0" stop-color="#bebe4b"/>
      <stop offset="1.0" stop-color="#ffffff"/>
    </radialGradient>
    <radialGradient cx="0" cy="0" gradientTransform="matrix(-5.0E-4, 0.0013, -0.0018, -7.0E-4, 5.95, -7.35)" gradientUnits="userSpaceOnUse" id="gradient3" r="819.2" spreadMethod="pad">
      <stop offset="0.0" stop-color="#bebe4b"/>
      <stop offset="1.0" stop-color="#ffffff"/>
    </radialGradient>
    <radialGradient cx="0" cy="0" gradientTransform="matrix(-0.0013, 8.0E-4, -0.0014, -0.0012, 11.1, -3.25)" gradientUnits="userSpaceOnUse" id="gradient4" r="819.2" spreadMethod="pad">
      <stop offset="0.0" stop-color="#bebe4b"/>
      <stop offset="1.0" stop-color="#ffffff"/>
    </radialGradient>
    <radialGradient cx="0" cy="0" gradientTransform="matrix(-0.0018, 1.0E-4, -5.0E-4, -0.0015, 12.9, 1.4)" gradientUnits="userSpaceOnUse" id="gradient5" r="819.2" spreadMethod="pad">
      <stop offset="0.0" stop-color="#bebe4b"/>
      <stop offset="1.0" stop-color="#ffffff"/>
    </radialGradient>
    <radialGradient cx="0" cy="0" gradientTransform="matrix(-0.0018, -7.0E-4, 5.0E-4, -0.0013, 11.6, 6.5)" gradientUnits="userSpaceOnUse" id="gradient6" r="819.2" spreadMethod="pad">
      <stop offset="0.0" stop-color="#bebe4b"/>
      <stop offset="1.0" stop-color="#ffffff"/>
    </radialGradient>
    <radialGradient cx="0" cy="0" gradientTransform="matrix(-0.0014, -0.0012, 0.0013, -8.0E-4, 7.1, 8.85)" gradientUnits="userSpaceOnUse" id="gradient7" r="819.2" spreadMethod="pad">
      <stop offset="0.0" stop-color="#bebe4b"/>
      <stop offset="1.0" stop-color="#ffffff"/>
    </radialGradient>
    <radialGradient cx="0" cy="0" gradientTransform="matrix(-5.0E-4, -0.0015, 0.0018, -1.0E-4, 0.6, 9.2)" gradientUnits="userSpaceOnUse" id="gradient8" r="819.2" spreadMethod="pad">
      <stop offset="0.0" stop-color="#bebe4b"/>
      <stop offset="1.0" stop-color="#ffffff"/>
    </radialGradient>
    <radialGradient cx="0" cy="0" gradientTransform="matrix(5.0E-4, -0.0013, 0.0018, 7.0E-4, -6.5, 6.85)" gradientUnits="userSpaceOnUse" id="gradient9" r="819.2" spreadMethod="pad">
      <stop offset="0.0" stop-color="#bebe4b"/>
      <stop offset="1.0" stop-color="#ffffff"/>
    </radialGradient>
    <radialGradient cx="0" cy="0" gradientTransform="matrix(0.0013, -8.0E-4, 0.0014, 0.0012, -11.6, 2.5)" gradientUnits="userSpaceOnUse" id="gradient10" r="819.2" spreadMethod="pad">
      <stop offset="0.0" stop-color="#bebe4b"/>
      <stop offset="1.0" stop-color="#ffffff"/>
    </radialGradient>
    <radialGradient cx="0" cy="0" gradientTransform="matrix(0.0018, -1.0E-4, 5.0E-4, 0.0015, -12.95, -2.2)" gradientUnits="userSpaceOnUse" id="gradient11" r="819.2" spreadMethod="pad">
      <stop offset="0.0" stop-color="#bebe4b"/>
      <stop offset="1.0" stop-color="#ffffff"/>
    </radialGradient>
  </defs>
</svg>
