<?xml version="1.0" encoding="UTF-8" standalone="no"?>
<svg xmlns:xlink="http://www.w3.org/1999/xlink" height="13.2px" width="13.8px" xmlns="http://www.w3.org/2000/svg">
  <g transform="matrix(1.0, 0.0, 0.0, 1.0, 9.35, 9.8)">
    <path d="M3.55 -5.9 L3.3 -6.55 Q3.15 -5.45 3.0 -5.45 L2.65 -4.95 2.5 -4.6 2.65 -4.25 Q2.8 -4.1 3.0 -4.1 3.25 -4.1 3.4 -4.25 L3.7 -5.15 3.55 -5.9" fill="url(#gradient0)" fill-rule="evenodd" stroke="none"/>
    <path d="M3.55 -5.9 L3.3 -6.55 Q3.15 -5.45 3.0 -5.45 L2.65 -4.95 2.5 -4.6 2.65 -4.25 Q2.8 -4.1 3.0 -4.1 3.25 -4.1 3.4 -4.25 L3.7 -5.15 3.55 -5.9 Z" fill="none" stroke="#000000" stroke-linecap="round" stroke-linejoin="round" stroke-width="0.5"/>
    <path d="M1.4 -8.35 L0.85 -8.8 1.15 -7.75 1.1 -7.1 1.1 -6.7 1.45 -6.5 1.8 -6.6 2.1 -6.85 Q2.2 -7.3 1.9 -7.85 L1.4 -8.35" fill="url(#gradient1)" fill-rule="evenodd" stroke="none"/>
    <path d="M1.4 -8.35 L0.85 -8.8 1.15 -7.75 1.1 -7.1 1.1 -6.7 1.45 -6.5 1.8 -6.6 2.1 -6.85 Q2.2 -7.3 1.9 -7.85 L1.4 -8.35 Z" fill="none" stroke="#000000" stroke-linecap="round" stroke-linejoin="round" stroke-width="0.5"/>
    <path d="M-1.85 -9.4 L-2.6 -9.55 -1.75 -8.75 -1.5 -8.2 -1.3 -7.9 -0.9 -7.85 -0.6 -8.1 -0.55 -8.5 Q-0.6 -8.9 -1.15 -9.2 L-1.85 -9.4" fill="url(#gradient2)" fill-rule="evenodd" stroke="none"/>
    <path d="M-1.85 -9.4 L-2.6 -9.55 -1.75 -8.75 -1.5 -8.2 -1.3 -7.9 -0.9 -7.85 -0.6 -8.1 -0.55 -8.5 Q-0.6 -8.9 -1.15 -9.2 L-1.85 -9.4 Z" fill="none" stroke="#000000" stroke-linecap="round" stroke-linejoin="round" stroke-width="0.5"/>
    <path d="M-5.1 -9.0 L-5.75 -8.75 -4.65 -8.45 -4.15 -8.1 -3.8 -7.95 Q-3.6 -7.95 -3.45 -8.1 L-3.3 -8.45 -3.45 -8.85 Q-3.75 -9.15 -4.35 -9.15 L-5.1 -9.0" fill="url(#gradient3)" fill-rule="evenodd" stroke="none"/>
    <path d="M-5.1 -9.0 L-5.75 -8.75 -4.65 -8.45 -4.15 -8.1 -3.8 -7.95 Q-3.6 -7.95 -3.45 -8.1 L-3.3 -8.45 -3.45 -8.85 Q-3.75 -9.15 -4.35 -9.15 L-5.1 -9.0 Z" fill="none" stroke="#000000" stroke-linecap="round" stroke-linejoin="round" stroke-width="0.5"/>
    <path d="M-7.9 -7.05 L-8.35 -6.5 -7.3 -6.8 -6.65 -6.75 -6.25 -6.75 -6.05 -7.1 -6.15 -7.45 -6.4 -7.75 -7.4 -7.55 -7.9 -7.05" fill="url(#gradient4)" fill-rule="evenodd" stroke="none"/>
    <path d="M-7.9 -7.05 L-8.35 -6.5 -7.3 -6.8 -6.65 -6.75 -6.25 -6.75 -6.05 -7.1 -6.15 -7.45 -6.4 -7.75 -7.4 -7.55 -7.9 -7.05 Z" fill="none" stroke="#000000" stroke-linecap="round" stroke-linejoin="round" stroke-width="0.5"/>
    <path d="M-8.95 -4.2 L-9.1 -3.45 -8.3 -4.3 -7.75 -4.55 -7.45 -4.75 Q-7.3 -4.9 -7.4 -5.15 L-7.65 -5.45 -8.05 -5.5 -8.75 -4.9 -8.95 -4.2" fill="url(#gradient5)" fill-rule="evenodd" stroke="none"/>
    <path d="M-8.95 -4.2 L-9.1 -3.45 -8.3 -4.3 -7.75 -4.55 -7.45 -4.75 Q-7.3 -4.9 -7.4 -5.15 L-7.65 -5.45 -8.05 -5.5 -8.75 -4.9 -8.95 -4.2 Z" fill="none" stroke="#000000" stroke-linecap="round" stroke-linejoin="round" stroke-width="0.5"/>
    <path d="M-8.7 -0.5 L-8.45 0.15 -8.15 -0.95 -7.8 -1.45 Q-7.65 -1.6 -7.65 -1.8 L-7.8 -2.15 -8.15 -2.3 -8.55 -2.15 -8.85 -1.25 -8.7 -0.5" fill="url(#gradient6)" fill-rule="evenodd" stroke="none"/>
    <path d="M-8.7 -0.5 L-8.45 0.15 -8.15 -0.95 -7.8 -1.45 Q-7.65 -1.6 -7.65 -1.8 L-7.8 -2.15 -8.15 -2.3 -8.55 -2.15 -8.85 -1.25 -8.7 -0.5 Z" fill="none" stroke="#000000" stroke-linecap="round" stroke-linejoin="round" stroke-width="0.5"/>
    <path d="M-6.5 1.8 L-5.95 2.25 -6.25 1.2 -6.2 0.55 -6.2 0.15 Q-6.35 0.0 -6.55 -0.05 L-6.9 0.05 -7.2 0.3 Q-7.3 0.75 -7.0 1.3 L-6.5 1.8" fill="url(#gradient7)" fill-rule="evenodd" stroke="none"/>
    <path d="M-6.5 1.8 L-5.95 2.25 -6.25 1.2 -6.2 0.55 -6.2 0.15 Q-6.35 0.0 -6.55 -0.05 L-6.9 0.05 -7.2 0.3 Q-7.3 0.75 -7.0 1.3 L-6.5 1.8 Z" fill="none" stroke="#000000" stroke-linecap="round" stroke-linejoin="round" stroke-width="0.5"/>
    <path d="M-3.3 3.0 L-2.55 3.15 -3.4 2.35 -3.65 1.8 -3.85 1.5 -4.25 1.45 -4.55 1.7 -4.6 2.1 Q-4.55 2.5 -4.0 2.8 L-3.3 3.0" fill="url(#gradient8)" fill-rule="evenodd" stroke="none"/>
    <path d="M-3.3 3.0 L-2.55 3.15 -3.4 2.35 -3.65 1.8 -3.85 1.5 -4.25 1.45 -4.55 1.7 -4.6 2.1 Q-4.55 2.5 -4.0 2.8 L-3.3 3.0 Z" fill="none" stroke="#000000" stroke-linecap="round" stroke-linejoin="round" stroke-width="0.5"/>
    <path d="M0.35 2.65 L1.0 2.4 -0.1 2.1 -0.6 1.75 Q-0.75 1.6 -0.95 1.6 -1.15 1.6 -1.3 1.75 L-1.45 2.1 -1.3 2.5 -0.4 2.8 0.35 2.65" fill="url(#gradient9)" fill-rule="evenodd" stroke="none"/>
    <path d="M0.35 2.65 L1.0 2.4 -0.1 2.1 -0.6 1.75 Q-0.75 1.6 -0.95 1.6 -1.15 1.6 -1.3 1.75 L-1.45 2.1 -1.3 2.5 -0.4 2.8 0.35 2.65 Z" fill="none" stroke="#000000" stroke-linecap="round" stroke-linejoin="round" stroke-width="0.5"/>
    <path d="M3.1 0.5 L3.55 -0.05 Q2.55 0.4 2.5 0.25 L1.85 0.2 1.45 0.2 1.25 0.55 1.35 0.9 1.6 1.2 2.6 1.0 3.1 0.5" fill="url(#gradient10)" fill-rule="evenodd" stroke="none"/>
    <path d="M3.1 0.5 L3.55 -0.05 Q2.55 0.4 2.5 0.25 L1.85 0.2 1.45 0.2 1.25 0.55 1.35 0.9 1.6 1.2 2.6 1.0 3.1 0.5 Z" fill="none" stroke="#000000" stroke-linecap="round" stroke-linejoin="round" stroke-width="0.5"/>
    <path d="M4.05 -2.45 L4.2 -3.2 3.4 -2.35 2.85 -2.1 Q2.65 -2.1 2.55 -1.9 L2.5 -1.5 2.75 -1.2 3.15 -1.15 3.85 -1.75 4.05 -2.45" fill="url(#gradient11)" fill-rule="evenodd" stroke="none"/>
    <path d="M4.05 -2.45 L4.2 -3.2 3.4 -2.35 2.85 -2.1 Q2.65 -2.1 2.55 -1.9 L2.5 -1.5 2.75 -1.2 3.15 -1.15 3.85 -1.75 4.05 -2.45 Z" fill="none" stroke="#000000" stroke-linecap="round" stroke-linejoin="round" stroke-width="0.5"/>
  </g>
  <defs>
    <radialGradient cx="0" cy="0" gradientTransform="matrix(-8.0E-4, 0.0, 0.0, 8.0E-4, 3.0, -4.6)" gradientUnits="userSpaceOnUse" id="gradient0" r="819.2" spreadMethod="pad">
      <stop offset="0.0" stop-color="#bebe4b"/>
      <stop offset="1.0" stop-color="#ffffff"/>
    </radialGradient>
    <radialGradient cx="0" cy="0" gradientTransform="matrix(-7.0E-4, 4.0E-4, 4.0E-4, 7.0E-4, 1.55, -7.0)" gradientUnits="userSpaceOnUse" id="gradient1" r="819.2" spreadMethod="pad">
      <stop offset="0.0" stop-color="#bebe4b"/>
      <stop offset="1.0" stop-color="#ffffff"/>
    </radialGradient>
    <radialGradient cx="0" cy="0" gradientTransform="matrix(-4.0E-4, 7.0E-4, 7.0E-4, 4.0E-4, -1.0, -8.35)" gradientUnits="userSpaceOnUse" id="gradient2" r="819.2" spreadMethod="pad">
      <stop offset="0.0" stop-color="#bebe4b"/>
      <stop offset="1.0" stop-color="#ffffff"/>
    </radialGradient>
    <radialGradient cx="0" cy="0" gradientTransform="matrix(0.0, 8.0E-4, 8.0E-4, 0.0, -3.8, -8.45)" gradientUnits="userSpaceOnUse" id="gradient3" r="819.2" spreadMethod="pad">
      <stop offset="0.0" stop-color="#bebe4b"/>
      <stop offset="1.0" stop-color="#ffffff"/>
    </radialGradient>
    <radialGradient cx="0" cy="0" gradientTransform="matrix(4.0E-4, 7.0E-4, 7.0E-4, -4.0E-4, -6.55, -7.2)" gradientUnits="userSpaceOnUse" id="gradient4" r="819.2" spreadMethod="pad">
      <stop offset="0.0" stop-color="#bebe4b"/>
      <stop offset="1.0" stop-color="#ffffff"/>
    </radialGradient>
    <radialGradient cx="0" cy="0" gradientTransform="matrix(7.0E-4, 4.0E-4, 4.0E-4, -7.0E-4, -7.9, -5.05)" gradientUnits="userSpaceOnUse" id="gradient5" r="819.2" spreadMethod="pad">
      <stop offset="0.0" stop-color="#bebe4b"/>
      <stop offset="1.0" stop-color="#ffffff"/>
    </radialGradient>
    <radialGradient cx="0" cy="0" gradientTransform="matrix(8.0E-4, 0.0, 0.0, -8.0E-4, -8.15, -1.8)" gradientUnits="userSpaceOnUse" id="gradient6" r="819.2" spreadMethod="pad">
      <stop offset="0.0" stop-color="#bebe4b"/>
      <stop offset="1.0" stop-color="#ffffff"/>
    </radialGradient>
    <radialGradient cx="0" cy="0" gradientTransform="matrix(7.0E-4, -4.0E-4, -4.0E-4, -7.0E-4, -6.65, 0.45)" gradientUnits="userSpaceOnUse" id="gradient7" r="819.2" spreadMethod="pad">
      <stop offset="0.0" stop-color="#bebe4b"/>
      <stop offset="1.0" stop-color="#ffffff"/>
    </radialGradient>
    <radialGradient cx="0" cy="0" gradientTransform="matrix(4.0E-4, -7.0E-4, -7.0E-4, -4.0E-4, -4.15, 1.95)" gradientUnits="userSpaceOnUse" id="gradient8" r="819.2" spreadMethod="pad">
      <stop offset="0.0" stop-color="#bebe4b"/>
      <stop offset="1.0" stop-color="#ffffff"/>
    </radialGradient>
    <radialGradient cx="0" cy="0" gradientTransform="matrix(0.0, -8.0E-4, -8.0E-4, 0.0, -0.95, 2.1)" gradientUnits="userSpaceOnUse" id="gradient9" r="819.2" spreadMethod="pad">
      <stop offset="0.0" stop-color="#bebe4b"/>
      <stop offset="1.0" stop-color="#ffffff"/>
    </radialGradient>
    <radialGradient cx="0" cy="0" gradientTransform="matrix(-4.0E-4, -7.0E-4, -7.0E-4, 4.0E-4, 1.75, 0.65)" gradientUnits="userSpaceOnUse" id="gradient10" r="819.2" spreadMethod="pad">
      <stop offset="0.0" stop-color="#bebe4b"/>
      <stop offset="1.0" stop-color="#ffffff"/>
    </radialGradient>
    <radialGradient cx="0" cy="0" gradientTransform="matrix(-7.0E-4, -4.0E-4, -4.0E-4, 7.0E-4, 3.0, -1.6)" gradientUnits="userSpaceOnUse" id="gradient11" r="819.2" spreadMethod="pad">
      <stop offset="0.0" stop-color="#bebe4b"/>
      <stop offset="1.0" stop-color="#ffffff"/>
    </radialGradient>
  </defs>
</svg>
