<?xml version="1.0" encoding="UTF-8" standalone="no"?>
<svg xmlns:xlink="http://www.w3.org/1999/xlink" height="75.4px" width="33.75px" xmlns="http://www.w3.org/2000/svg">
  <g transform="matrix(1.0, 0.0, 0.0, 1.0, 27.65, 4.3)">
    <path d="M-26.05 41.45 Q-26.95 40.3 -27.1 38.95 L-27.15 38.4 -27.1 37.35 -27.05 35.35 Q-26.65 25.95 -23.85 17.85 -20.55 8.45 -14.15 3.05 L-9.65 -0.65 Q-1.55 -7.15 5.55 -0.15 5.75 1.4 5.3 2.15 3.3 5.25 -1.85 2.85 -6.35 0.75 -9.55 3.25 -13.8 6.75 -16.6 11.25 L-16.95 11.85 Q-20.6 17.75 -21.85 25.45 -23.25 34.15 -26.05 41.45" fill="url(#gradient0)" fill-rule="evenodd" stroke="none"/>
    <path d="M5.3 2.15 Q5.85 7.15 3.65 9.55 -0.25 13.95 -5.35 17.95 -11.35 22.75 -11.35 32.85 L-11.25 51.85 Q-11.05 61.85 -9.15 70.85 -17.25 67.95 -21.95 59.35 -26.05 51.75 -26.05 41.45 -23.25 34.15 -21.85 25.45 -20.6 17.75 -16.95 11.85 L-16.6 11.25 Q-13.8 6.75 -9.55 3.25 -6.35 0.75 -1.85 2.85 3.3 5.25 5.3 2.15" fill="url(#gradient1)" fill-rule="evenodd" stroke="none"/>
    <path d="M-26.05 41.45 Q-26.95 40.3 -27.1 38.95 L-27.15 38.4 -27.1 37.35 -27.05 35.35 Q-26.65 25.95 -23.85 17.85 -20.55 8.45 -14.15 3.05 L-9.65 -0.65 Q-1.55 -7.15 5.55 -0.15 5.75 1.4 5.3 2.15 3.3 5.25 -1.85 2.85 -6.35 0.75 -9.55 3.25 -13.8 6.75 -16.6 11.25 L-16.95 11.85 Q-20.6 17.75 -21.85 25.45 -23.25 34.15 -26.05 41.45" fill="none" stroke="#000000" stroke-linecap="round" stroke-linejoin="round" stroke-width="1.0"/>
    <path d="M5.3 2.15 Q5.85 7.15 3.65 9.55 -0.25 13.95 -5.35 17.95 -11.35 22.75 -11.35 32.85 L-11.25 51.85 Q-11.05 61.85 -9.15 70.85 -17.25 67.95 -21.95 59.35 -26.05 51.75 -26.05 41.45" fill="none" stroke="#000000" stroke-linecap="round" stroke-linejoin="round" stroke-width="0.5"/>
  </g>
  <defs>
    <radialGradient cx="0" cy="0" gradientTransform="matrix(0.0302, 0.0045, -0.0059, 0.0395, -10.75, 18.85)" gradientUnits="userSpaceOnUse" id="gradient0" r="819.2" spreadMethod="pad">
      <stop offset="0.0" stop-color="#960a0a"/>
      <stop offset="0.5764705882352941" stop-color="#f74a33"/>
      <stop offset="1.0" stop-color="#ffffff"/>
    </radialGradient>
    <radialGradient cx="0" cy="0" gradientTransform="matrix(0.0212, 0.0038, -0.0182, 0.1004, -18.95, 14.85)" gradientUnits="userSpaceOnUse" id="gradient1" r="819.2" spreadMethod="pad">
      <stop offset="0.0" stop-color="#986807"/>
      <stop offset="0.5764705882352941" stop-color="#efca3a"/>
      <stop offset="1.0" stop-color="#ffffff"/>
    </radialGradient>
  </defs>
</svg>
