<?xml version="1.0" encoding="UTF-8" standalone="no"?>
<svg xmlns:xlink="http://www.w3.org/1999/xlink" height="70.85px" width="31.95px" xmlns="http://www.w3.org/2000/svg">
  <g transform="matrix(1.0, 0.0, 0.0, 1.0, 11.05, 27.5)">
    <path d="M20.55 -25.6 Q21.1 -20.6 18.9 -18.2 15.0 -13.8 9.9 -9.8 3.9 -5.0 3.9 5.1 3.8 14.6 4.0 24.1 4.2 34.1 6.1 43.1 -2.0 40.2 -6.7 31.6 -10.8 24.0 -10.8 13.7 -9.7 9.7 -8.9 5.65 -7.9 1.0 -7.2 -3.65 L-6.1 -10.1 Q-5.7 -12.05 -4.9 -13.25 L-3.4 -15.35 Q-2.05 -16.9 -1.05 -19.3 0.7 -22.95 3.0 -24.0 L5.25 -25.0 Q7.9 -27.4 11.5 -27.25 L13.6 -26.95 16.4 -26.85 18.3 -27.2 Q20.05 -27.5 20.55 -25.6" fill="url(#gradient0)" fill-rule="evenodd" stroke="none"/>
    <path d="M20.55 -25.6 Q21.1 -20.6 18.9 -18.2 15.0 -13.8 9.9 -9.8 3.9 -5.0 3.9 5.1 3.8 14.6 4.0 24.1 4.2 34.1 6.1 43.1 -2.0 40.2 -6.7 31.6 -10.8 24.0 -10.8 13.7 -9.7 9.7 -8.9 5.65 -7.9 1.0 -7.2 -3.65 L-6.1 -10.1 Q-5.7 -12.05 -4.9 -13.25 L-3.4 -15.35 Q-2.05 -16.9 -1.05 -19.3 0.7 -22.95 3.0 -24.0 L5.25 -25.0 Q7.9 -27.4 11.5 -27.25 L13.6 -26.95 16.4 -26.85 18.3 -27.2 Q20.05 -27.5 20.55 -25.6 Z" fill="none" stroke="#000000" stroke-linecap="round" stroke-linejoin="round" stroke-width="0.5"/>
  </g>
  <defs>
    <radialGradient cx="0" cy="0" gradientTransform="matrix(0.0242, 0.0064, -0.0167, 0.0632, -7.0, -0.75)" gradientUnits="userSpaceOnUse" id="gradient0" r="819.2" spreadMethod="pad">
      <stop offset="0.0" stop-color="#986807"/>
      <stop offset="0.5764705882352941" stop-color="#efca3a"/>
      <stop offset="1.0" stop-color="#ffffff"/>
    </radialGradient>
  </defs>
</svg>
