<?xml version="1.0" encoding="UTF-8" standalone="no"?>
<svg xmlns:xlink="http://www.w3.org/1999/xlink" height="11.5px" width="12.5px" xmlns="http://www.w3.org/2000/svg">
  <g transform="matrix(1.0, 0.0, 0.0, 1.0, 6.25, 5.75)">
    <path d="M4.05 -3.7 Q5.75 -2.15 5.75 0.0 5.75 2.2 4.05 3.7 2.4 5.25 0.0 5.25 -2.35 5.25 -4.05 3.7 -5.75 2.2 -5.75 0.0 -5.75 -2.15 -4.05 -3.7 -2.35 -5.25 0.0 -5.25 2.4 -5.25 4.05 -3.7" fill="url(#gradient0)" fill-rule="evenodd" stroke="none"/>
    <path d="M4.05 -3.7 Q5.75 -2.15 5.75 0.0 5.75 2.2 4.05 3.7 2.4 5.25 0.0 5.25 -2.35 5.25 -4.05 3.7 -5.75 2.2 -5.75 0.0 -5.75 -2.15 -4.05 -3.7 -2.35 -5.25 0.0 -5.25 2.4 -5.25 4.05 -3.7 Z" fill="none" stroke="#000000" stroke-linecap="round" stroke-linejoin="round" stroke-width="1.0"/>
  </g>
  <defs>
    <radialGradient cx="0" cy="0" gradientTransform="matrix(0.0111, -0.0054, 0.0037, 0.0076, 1.5, 1.25)" gradientUnits="userSpaceOnUse" id="gradient0" r="819.2" spreadMethod="pad">
      <stop offset="0.0" stop-color="#960a0a"/>
      <stop offset="0.5764705882352941" stop-color="#f74a33"/>
      <stop offset="1.0" stop-color="#ffffff"/>
    </radialGradient>
  </defs>
</svg>
