<?xml version="1.0" encoding="UTF-8" standalone="no"?>
<svg xmlns:xlink="http://www.w3.org/1999/xlink" height="16.1px" width="7.15px" xmlns="http://www.w3.org/2000/svg">
  <g transform="matrix(1.0, 0.0, 0.0, 1.0, 3.15, 8.1)">
    <path d="M1.25 -2.4 Q1.85 -4.05 1.35 -5.65 1.15 -6.4 0.35 -6.65 L-2.6 -6.65 Q-1.5 -8.05 0.4 -7.8 2.4 -7.6 3.3 -6.05 L3.55 -4.3 Q3.7 -2.55 2.4 -1.1 L0.25 1.3 Q-1.25 2.9 -0.95 5.0 -0.65 7.0 1.5 7.0 L2.85 6.95 2.8 6.95 1.55 7.6 Q0.0 8.05 -1.4 7.1 -2.85 6.05 -2.9 4.25 -3.0 1.2 -0.35 -0.5 0.75 -1.2 1.25 -2.4" fill="#f74931" fill-rule="evenodd" stroke="none"/>
    <path d="M1.25 -2.4 Q0.75 -1.2 -0.35 -0.5 -3.0 1.2 -2.9 4.25 -2.85 6.05 -1.4 7.1 0.0 8.05 1.55 7.6 L2.8 6.95 2.85 6.95 1.5 7.0 Q-0.65 7.0 -0.95 5.0 -1.25 2.9 0.25 1.3 L2.4 -1.1 Q3.7 -2.55 3.55 -4.3 L3.3 -6.05 Q2.4 -7.6 0.4 -7.8 -1.5 -8.05 -2.6 -6.65 L0.35 -6.65 Q1.15 -6.4 1.35 -5.65 1.85 -4.05 1.25 -2.4 M2.85 6.95 L3.75 6.35" fill="none" stroke="#000000" stroke-linecap="round" stroke-linejoin="round" stroke-width="0.5"/>
  </g>
</svg>
