<?xml version="1.0" encoding="UTF-8" standalone="no"?>
<svg xmlns:xlink="http://www.w3.org/1999/xlink" height="20.15px" width="7.4px" xmlns="http://www.w3.org/2000/svg">
  <g transform="matrix(1.0, 0.0, 0.0, 1.0, 3.4, 9.4)">
    <path d="M3.75 -7.2 L3.5 -4.45 3.25 -3.35 1.15 -1.25 Q-1.8 0.7 -1.1 3.45 -0.9 4.2 -0.25 4.7 2.75 6.85 3.5 10.5 L-0.6 7.3 Q-4.25 4.7 -2.65 0.6 -2.3 -0.25 -1.55 -0.75 1.8 -2.85 2.0 -6.9 L1.3 -7.6 Q0.15 -8.65 -1.25 -9.15 L3.25 -7.9 3.75 -7.2" fill="#f74931" fill-rule="evenodd" stroke="none"/>
    <path d="M3.75 -7.2 L3.25 -7.9 -1.25 -9.15 Q0.15 -8.65 1.3 -7.6 L2.0 -6.9 Q1.8 -2.85 -1.55 -0.75 -2.3 -0.25 -2.65 0.6 -4.25 4.7 -0.6 7.3 L3.5 10.5 Q2.75 6.85 -0.25 4.7 -0.9 4.2 -1.1 3.45 -1.8 0.7 1.15 -1.25 L3.25 -3.35 3.5 -4.45 3.75 -7.2 Z" fill="none" stroke="#000000" stroke-linecap="round" stroke-linejoin="round" stroke-width="0.5"/>
  </g>
</svg>
