<?xml version="1.0" encoding="UTF-8" standalone="no"?>
<svg xmlns:xlink="http://www.w3.org/1999/xlink" height="24.15px" width="8.15px" xmlns="http://www.w3.org/2000/svg">
  <g transform="matrix(1.0, 0.0, 0.0, 1.0, 4.3, 9.9)">
    <path d="M3.55 -6.95 Q3.95 -4.7 2.2 -4.2 0.6 -3.75 -0.85 -2.9 -2.25 -2.1 -2.45 0.1 -2.6 1.95 -1.6 2.7 L0.9 5.1 1.95 6.55 Q2.75 8.0 2.65 10.0 2.6 11.75 1.95 13.25 L1.5 13.7 0.9 14.0 Q1.0 12.85 1.4 11.25 1.8 9.35 1.05 7.8 L-0.65 5.65 -2.8 3.2 Q-4.0 1.5 -4.05 -0.9 -4.1 -2.75 -2.9 -3.55 -1.6 -4.45 0.05 -4.6 1.15 -4.75 1.5 -5.3 2.2 -6.5 2.15 -8.4 2.15 -9.2 1.65 -9.65 3.3 -8.75 3.55 -6.95" fill="#f74931" fill-rule="evenodd" stroke="none"/>
    <path d="M3.55 -6.95 Q3.95 -4.7 2.2 -4.2 0.6 -3.75 -0.85 -2.9 -2.25 -2.1 -2.45 0.1 -2.6 1.95 -1.6 2.7 L0.9 5.1 1.95 6.55 Q2.75 8.0 2.65 10.0 2.6 11.75 1.95 13.25 L1.5 13.7 0.9 14.0 Q1.0 12.85 1.4 11.25 1.8 9.35 1.05 7.8 L-0.65 5.65 -2.8 3.2 Q-4.0 1.5 -4.05 -0.9 -4.1 -2.75 -2.9 -3.55 -1.6 -4.45 0.05 -4.6 1.15 -4.75 1.5 -5.3 2.2 -6.5 2.15 -8.4 2.15 -9.2 1.65 -9.65 3.3 -8.75 3.55 -6.95 Z" fill="none" stroke="#000000" stroke-linecap="round" stroke-linejoin="round" stroke-width="0.5"/>
  </g>
</svg>
