<?xml version="1.0" encoding="UTF-8" standalone="no"?>
<svg xmlns:xlink="http://www.w3.org/1999/xlink" height="20.4px" width="10.25px" xmlns="http://www.w3.org/2000/svg">
  <g transform="matrix(1.0, 0.0, 0.0, 1.0, 5.5, 7.65)">
    <path d="M1.5 -5.85 Q-0.35 -5.65 -1.7 -4.85 -2.45 -4.45 -2.8 -3.65 -3.2 -2.8 -3.25 -1.75 -3.45 0.45 -1.75 1.4 L1.2 2.9 Q2.95 3.7 3.25 5.7 L3.4 6.6 Q3.9 8.6 3.35 10.3 L2.2 11.45 Q0.85 12.15 -1.0 12.35 L-4.25 12.5 Q-2.7 11.8 -0.7 11.45 1.7 11.0 2.0 8.85 2.3 6.75 0.7 5.2 -0.6 3.85 -2.4 2.8 -3.7 2.05 -4.6 0.4 -5.45 -1.25 -5.15 -3.5 -4.9 -5.4 -3.25 -6.4 -2.0 -7.15 -0.1 -7.15 L4.5 -7.4 Q3.3 -6.0 1.5 -5.85" fill="#f74931" fill-rule="evenodd" stroke="none"/>
    <path d="M1.5 -5.85 Q-0.35 -5.65 -1.7 -4.85 -2.45 -4.45 -2.8 -3.65 -3.2 -2.8 -3.25 -1.75 -3.45 0.45 -1.75 1.4 L1.2 2.9 Q2.95 3.7 3.25 5.7 L3.4 6.6 Q3.9 8.6 3.35 10.3 L2.2 11.45 Q0.85 12.15 -1.0 12.35 L-4.25 12.5 Q-2.7 11.8 -0.7 11.45 1.7 11.0 2.0 8.85 2.3 6.75 0.7 5.2 -0.6 3.85 -2.4 2.8 -3.7 2.05 -4.6 0.4 -5.45 -1.25 -5.15 -3.5 -4.9 -5.4 -3.25 -6.4 -2.0 -7.15 -0.1 -7.15 L4.5 -7.4 Q3.3 -6.0 1.5 -5.85 Z" fill="none" stroke="#000000" stroke-linecap="round" stroke-linejoin="round" stroke-width="0.5"/>
  </g>
</svg>
