<?xml version="1.0" encoding="UTF-8" standalone="no"?>
<svg xmlns:xlink="http://www.w3.org/1999/xlink" height="20.95px" width="10.9px" xmlns="http://www.w3.org/2000/svg">
  <g transform="matrix(1.0, 0.0, 0.0, 1.0, 5.85, 8.1)">
    <path d="M2.0 -7.8 Q3.8 -7.75 4.4 -6.0 2.6 -7.0 0.0 -6.8 -2.05 -6.6 -3.15 -5.35 -4.25 -4.0 -3.4 -2.1 -2.8 -0.65 -1.05 0.1 0.1 0.6 0.7 1.2 L3.45 3.95 Q4.2 4.7 4.55 5.65 4.9 6.8 4.75 7.8 4.45 9.85 3.5 11.25 2.55 12.65 0.5 12.6 L-4.05 12.05 Q-6.2 11.6 -5.35 10.0 -4.5 11.2 -2.25 11.15 L1.55 10.75 Q3.6 10.35 3.35 8.1 L3.0 6.7 Q2.35 5.1 1.05 4.0 L-1.95 2.2 Q-3.55 1.55 -4.5 0.3 -5.45 -0.95 -5.6 -3.0 -5.7 -5.2 -4.75 -6.3 -3.8 -7.5 -1.85 -7.7 L2.0 -7.8" fill="#f74931" fill-rule="evenodd" stroke="none"/>
    <path d="M2.0 -7.8 L-1.85 -7.7 Q-3.8 -7.5 -4.75 -6.3 -5.7 -5.2 -5.6 -3.0 -5.45 -0.95 -4.5 0.3 -3.55 1.55 -1.95 2.2 L1.05 4.0 Q2.35 5.1 3.0 6.7 L3.35 8.1 Q3.6 10.35 1.55 10.75 L-2.25 11.15 Q-4.5 11.2 -5.35 10.0 -6.2 11.6 -4.05 12.05 L0.5 12.6 Q2.55 12.65 3.5 11.25 4.45 9.85 4.75 7.8 4.9 6.8 4.55 5.65 4.2 4.7 3.45 3.95 L0.7 1.2 Q0.1 0.6 -1.05 0.1 -2.8 -0.65 -3.4 -2.1 -4.25 -4.0 -3.15 -5.35 -2.05 -6.6 0.0 -6.8 2.6 -7.0 4.4 -6.0 3.8 -7.75 2.0 -7.8 Z" fill="none" stroke="#000000" stroke-linecap="round" stroke-linejoin="round" stroke-width="0.5"/>
  </g>
</svg>
