<?xml version="1.0" encoding="UTF-8" standalone="no"?>
<svg xmlns:xlink="http://www.w3.org/1999/xlink" height="20.55px" width="11.35px" xmlns="http://www.w3.org/2000/svg">
  <g transform="matrix(1.0, 0.0, 0.0, 1.0, 6.05, 8.05)">
    <path d="M3.65 -7.25 L0.8 -6.75 -2.5 -5.95 Q-4.25 -5.55 -4.05 -3.25 -4.0 -2.2 -3.4 -1.55 L-2.45 -0.85 Q-1.15 -0.3 -0.1 0.45 L2.8 2.25 Q3.9 2.8 4.5 4.45 5.1 6.2 5.05 8.25 5.0 10.0 3.7 10.55 L0.95 11.25 -2.75 11.55 Q-4.55 11.65 -5.75 12.25 -4.3 11.15 -2.8 10.7 L0.4 10.2 Q2.3 10.1 3.05 8.75 3.45 8.1 3.35 7.1 3.2 5.3 1.95 4.2 L-0.85 2.25 -3.05 1.05 Q-4.45 0.2 -5.25 -1.2 -6.2 -2.9 -5.5 -4.75 -5.05 -6.1 -3.35 -6.9 -1.8 -7.65 0.0 -7.75 2.05 -7.9 3.65 -7.25" fill="#f74931" fill-rule="evenodd" stroke="none"/>
    <path d="M3.65 -7.25 L0.8 -6.75 -2.5 -5.95 Q-4.25 -5.55 -4.05 -3.25 -4.0 -2.2 -3.4 -1.55 L-2.45 -0.85 Q-1.15 -0.3 -0.1 0.45 L2.8 2.25 Q3.9 2.8 4.5 4.45 5.1 6.2 5.05 8.25 5.0 10.0 3.7 10.55 L0.95 11.25 -2.75 11.55 Q-4.55 11.65 -5.75 12.25 -4.3 11.15 -2.8 10.7 L0.4 10.2 Q2.3 10.1 3.05 8.75 3.45 8.1 3.35 7.1 3.2 5.3 1.95 4.2 L-0.85 2.25 -3.05 1.05 Q-4.45 0.2 -5.25 -1.2 -6.2 -2.9 -5.5 -4.75 -5.05 -6.1 -3.35 -6.9 -1.8 -7.65 0.0 -7.75 2.05 -7.9 3.65 -7.25 Z" fill="none" stroke="#000000" stroke-linecap="round" stroke-linejoin="round" stroke-width="0.5"/>
  </g>
</svg>
