<?xml version="1.0" encoding="UTF-8" standalone="no"?>
<svg xmlns:xlink="http://www.w3.org/1999/xlink" height="22.3px" width="10.85px" xmlns="http://www.w3.org/2000/svg">
  <g transform="matrix(1.0, 0.0, 0.0, 1.0, 5.6, 8.7)">
    <path d="M2.9 -8.4 Q1.85 -7.8 0.5 -7.15 L-1.8 -6.1 Q-2.65 -5.7 -3.1 -4.55 -3.75 -2.9 -3.0 -1.55 L-2.45 -0.95 Q-1.2 0.1 0.45 0.5 1.25 0.65 1.9 1.05 3.55 2.1 4.1 3.9 L4.9 7.05 Q5.3 9.05 4.05 10.3 2.95 11.5 1.05 11.75 L-2.35 12.4 Q-4.0 12.75 -5.35 13.35 -4.3 11.65 -2.55 11.05 -0.9 10.5 1.0 10.4 3.05 10.3 3.3 8.25 3.6 6.15 2.6 4.55 1.8 3.35 0.35 2.35 L-2.5 0.6 Q-4.0 -0.3 -4.5 -1.75 L-4.7 -3.5 Q-4.65 -5.4 -3.3 -6.5 -1.95 -7.55 -0.45 -8.15 L1.9 -8.45 2.9 -8.4" fill="#f74931" fill-rule="evenodd" stroke="none"/>
    <path d="M2.9 -8.4 Q1.85 -7.8 0.5 -7.15 L-1.8 -6.1 Q-2.65 -5.7 -3.1 -4.55 -3.75 -2.9 -3.0 -1.55 L-2.45 -0.95 Q-1.2 0.1 0.45 0.5 1.25 0.65 1.9 1.05 3.55 2.1 4.1 3.9 L4.9 7.05 Q5.3 9.05 4.05 10.3 2.95 11.5 1.05 11.75 L-2.35 12.4 Q-4.0 12.75 -5.35 13.35 -4.3 11.65 -2.55 11.05 -0.9 10.5 1.0 10.4 3.05 10.3 3.3 8.25 3.6 6.15 2.6 4.55 1.8 3.35 0.35 2.35 L-2.5 0.6 Q-4.0 -0.3 -4.5 -1.75 L-4.7 -3.5 Q-4.65 -5.4 -3.3 -6.5 -1.95 -7.55 -0.45 -8.15 L1.9 -8.45 2.9 -8.4 Z" fill="none" stroke="#000000" stroke-linecap="round" stroke-linejoin="round" stroke-width="0.5"/>
  </g>
</svg>
