<?xml version="1.0" encoding="UTF-8" standalone="no"?>
<svg xmlns:xlink="http://www.w3.org/1999/xlink" height="23.9px" width="10.75px" xmlns="http://www.w3.org/2000/svg">
  <g transform="matrix(1.0, 0.0, 0.0, 1.0, 5.2, 9.15)">
    <path d="M1.4 -8.9 Q1.65 -8.55 1.15 -8.2 0.0 -7.35 -1.5 -6.9 -3.05 -6.45 -3.15 -4.5 -3.25 -2.55 -1.85 -1.6 -1.15 -1.15 -0.5 -0.9 1.25 -0.25 2.55 0.7 L4.1 1.8 Q5.4 2.7 5.3 4.6 L5.0 8.0 Q4.8 9.45 3.9 10.5 L3.35 10.8 -0.85 11.2 Q-1.8 11.25 -2.2 11.75 L-4.25 14.5 Q-4.55 12.7 -3.65 11.35 -2.75 10.05 -1.1 9.8 L2.6 8.95 Q3.6 7.85 3.35 5.6 L3.05 4.35 Q2.4 2.7 0.8 2.0 L-2.4 0.4 -3.95 -0.85 Q-5.1 -2.4 -4.95 -4.4 -4.85 -6.3 -3.55 -7.35 L-2.2 -8.15 Q-0.5 -9.0 1.4 -8.9" fill="#f74931" fill-rule="evenodd" stroke="none"/>
    <path d="M1.4 -8.9 Q-0.5 -9.0 -2.2 -8.15 L-3.55 -7.35 Q-4.85 -6.3 -4.95 -4.4 -5.1 -2.4 -3.95 -0.85 L-2.4 0.4 0.8 2.0 Q2.4 2.7 3.05 4.35 L3.35 5.6 Q3.6 7.85 2.6 8.95 L-1.1 9.8 Q-2.75 10.05 -3.65 11.35 -4.55 12.7 -4.25 14.5 L-2.2 11.75 Q-1.8 11.25 -0.85 11.2 L3.35 10.8 3.9 10.5 Q4.8 9.45 5.0 8.0 L5.3 4.6 Q5.4 2.7 4.1 1.8 L2.55 0.7 Q1.25 -0.25 -0.5 -0.9 -1.15 -1.15 -1.85 -1.6 -3.25 -2.55 -3.15 -4.5 -3.05 -6.45 -1.5 -6.9 0.0 -7.35 1.15 -8.2 1.65 -8.55 1.4 -8.9 Z" fill="none" stroke="#000000" stroke-linecap="round" stroke-linejoin="round" stroke-width="0.5"/>
  </g>
</svg>
