<?xml version="1.0" encoding="UTF-8" standalone="no"?>
<svg xmlns:xlink="http://www.w3.org/1999/xlink" height="17.0px" width="9.2px" xmlns="http://www.w3.org/2000/svg">
  <g transform="matrix(1.0, 0.0, 0.0, 1.0, 4.75, 7.65)">
    <path d="M2.85 -5.1 Q3.65 -4.1 3.95 -2.8 4.4 -1.05 4.05 1.0 3.85 2.1 2.8 2.8 1.6 3.6 -0.35 3.8 -2.2 4.05 -2.6 5.55 -3.15 7.9 -0.45 7.6 L1.95 7.1 Q2.8 6.85 3.15 6.1 3.7 8.4 1.8 8.85 L-1.75 9.05 Q-2.85 8.95 -3.5 8.1 L-4.35 6.3 Q-4.7 5.1 -4.2 4.2 -3.55 3.1 -2.4 2.65 L1.7 1.55 Q2.55 1.4 2.75 0.4 3.3 -2.0 1.85 -3.5 L0.7 -4.35 -2.85 -6.2 Q-3.35 -6.45 -3.35 -7.4 -1.7 -6.65 0.0 -6.45 1.9 -6.3 2.85 -5.1" fill="#f74931" fill-rule="evenodd" stroke="none"/>
    <path d="M2.85 -5.1 Q3.65 -4.1 3.95 -2.8 4.4 -1.05 4.05 1.0 3.85 2.1 2.8 2.8 1.6 3.6 -0.35 3.8 -2.2 4.05 -2.6 5.55 -3.15 7.9 -0.45 7.6 L1.95 7.1 Q2.8 6.85 3.15 6.1 3.7 8.4 1.8 8.85 L-1.75 9.05 Q-2.85 8.95 -3.5 8.1 L-4.35 6.3 Q-4.7 5.1 -4.2 4.2 -3.55 3.1 -2.4 2.65 L1.7 1.55 Q2.55 1.4 2.75 0.4 3.3 -2.0 1.85 -3.5 L0.7 -4.35 -2.85 -6.2 Q-3.35 -6.45 -3.35 -7.4 -1.7 -6.65 0.0 -6.45 1.9 -6.3 2.85 -5.1 Z" fill="none" stroke="#000000" stroke-linecap="round" stroke-linejoin="round" stroke-width="0.5"/>
  </g>
</svg>
