<?xml version="1.0" encoding="UTF-8" standalone="no"?>
<svg xmlns:xlink="http://www.w3.org/1999/xlink" height="16.7px" width="9.05px" xmlns="http://www.w3.org/2000/svg">
  <g transform="matrix(1.0, 0.0, 0.0, 1.0, 4.6, 8.25)">
    <path d="M3.8 -5.15 Q4.4 -3.55 4.05 -1.55 3.8 0.15 2.9 1.3 2.1 2.4 0.45 2.75 -1.4 3.2 -2.25 4.3 -3.15 5.45 -2.2 6.5 -1.6 7.2 -0.35 7.1 1.85 7.0 2.95 5.8 L3.7 4.6 Q4.35 6.65 2.75 7.35 L0.9 7.95 -1.95 8.05 Q-3.1 7.85 -3.85 6.75 -4.8 5.25 -3.9 3.35 -3.5 2.5 -2.7 1.9 -1.2 0.75 1.0 0.55 1.4 0.5 1.8 -0.15 2.65 -1.45 2.3 -3.9 2.1 -5.5 1.05 -6.55 -0.05 -7.6 -2.0 -8.0 0.05 -8.0 1.6 -7.35 3.2 -6.7 3.8 -5.15" fill="#f74931" fill-rule="evenodd" stroke="none"/>
    <path d="M3.8 -5.15 Q4.4 -3.55 4.05 -1.55 3.8 0.15 2.9 1.3 2.1 2.4 0.45 2.75 -1.4 3.2 -2.25 4.3 -3.15 5.45 -2.2 6.5 -1.6 7.2 -0.35 7.1 1.85 7.0 2.95 5.8 L3.7 4.6 Q4.35 6.65 2.75 7.35 L0.9 7.95 -1.95 8.05 Q-3.1 7.85 -3.85 6.75 -4.8 5.25 -3.9 3.35 -3.5 2.5 -2.7 1.9 -1.2 0.75 1.0 0.55 1.4 0.5 1.8 -0.15 2.65 -1.45 2.3 -3.9 2.1 -5.5 1.05 -6.55 -0.05 -7.6 -2.0 -8.0 0.05 -8.0 1.6 -7.35 3.2 -6.7 3.8 -5.15 Z" fill="none" stroke="#000000" stroke-linecap="round" stroke-linejoin="round" stroke-width="0.5"/>
  </g>
</svg>
