<?xml version="1.0" encoding="UTF-8" standalone="no"?>
<svg xmlns:xlink="http://www.w3.org/1999/xlink" height="13.75px" width="5.55px" xmlns="http://www.w3.org/2000/svg">
  <g transform="matrix(1.0, 0.0, 0.0, 1.0, 2.7, 6.85)">
    <path d="M1.05 -4.7 L1.65 -3.65 Q2.35 -2.1 2.35 0.05 2.35 2.2 1.65 3.75 L1.0 4.9 0.5 0.1 0.5 0.0 1.05 -4.7 M-0.85 4.9 L-1.6 3.75 Q-2.25 2.2 -2.25 0.05 -2.25 -2.1 -1.6 -3.65 L-0.95 -4.65 -0.5 0.1 -0.5 0.15 -0.85 4.9" fill="#ff0000" fill-rule="evenodd" stroke="none"/>
    <path d="M-0.95 -4.65 L-1.0 -5.0 -0.85 -5.35 Q-0.75 -5.55 -0.55 -5.55 L-0.3 -5.5 0.0 -5.65 0.3 -5.55 0.6 -5.6 0.95 -5.4 1.05 -5.05 1.05 -4.7 0.5 0.0 0.5 0.1 1.0 4.9 1.0 5.15 0.9 5.55 0.55 5.7 0.4 5.7 0.05 5.8 0.0 5.8 -0.3 5.7 -0.45 5.7 -0.75 5.55 -0.9 5.15 -0.85 4.9 -0.5 0.15 -0.5 0.1 -0.95 -4.65" fill="#cf1f1f" fill-rule="evenodd" stroke="none"/>
    <path d="M0.75 -6.75 L1.15 -6.55 1.25 -6.1 1.25 -5.7 2.0 -4.45 Q2.8 -2.6 2.85 0.0 2.8 2.6 2.0 4.45 L1.2 5.8 1.2 6.15 1.05 6.6 0.65 6.8 0.45 6.75 0.05 6.9 0.0 6.9 -0.35 6.8 -0.55 6.8 -0.9 6.6 -1.05 6.15 -1.05 5.8 -1.9 4.45 Q-2.7 2.6 -2.7 0.0 -2.7 -2.6 -1.9 -4.45 L-1.15 -5.65 -1.2 -6.05 -1.05 -6.5 -0.65 -6.7 -0.4 -6.7 0.0 -6.85 0.35 -6.7 0.75 -6.75 M1.05 -4.7 L1.05 -5.05 0.95 -5.4 0.6 -5.6 0.3 -5.55 0.0 -5.65 -0.3 -5.5 -0.55 -5.55 Q-0.75 -5.55 -0.85 -5.35 L-1.0 -5.0 -0.95 -4.65 -1.6 -3.65 Q-2.25 -2.1 -2.25 0.05 -2.25 2.2 -1.6 3.75 L-0.85 4.9 -0.9 5.15 -0.75 5.55 -0.45 5.7 -0.3 5.7 0.0 5.8 0.05 5.8 0.4 5.7 0.55 5.7 0.9 5.55 1.0 5.15 1.0 4.9 1.65 3.75 Q2.35 2.2 2.35 0.05 2.35 -2.1 1.65 -3.65 L1.05 -4.7" fill="#000000" fill-rule="evenodd" stroke="none"/>
  </g>
</svg>
