<?xml version="1.0" encoding="UTF-8" standalone="no"?>
<svg xmlns:xlink="http://www.w3.org/1999/xlink" height="21.3px" width="20.55px" xmlns="http://www.w3.org/2000/svg">
  <g transform="matrix(1.0, 0.0, 0.0, 1.0, 10.15, 10.8)">
    <path d="M1.1 8.85 L1.6 7.0 Q2.25 4.05 2.25 -0.15 2.25 -4.35 1.6 -7.35 L1.15 -8.9 Q4.5 -8.6 7.0 -6.35 9.85 -3.75 9.9 -0.05 9.85 3.65 7.0 6.25 4.5 8.55 1.1 8.85 M-1.15 -8.9 L-1.6 -7.35 Q-2.25 -4.35 -2.25 -0.15 -2.25 4.05 -1.6 7.0 L-1.05 8.85 Q-4.35 8.5 -6.8 6.25 -9.65 3.65 -9.65 -0.05 -9.65 -3.75 -6.8 -6.35 -4.4 -8.55 -1.15 -8.9" fill="#ff0000" fill-rule="evenodd" stroke="none"/>
    <path d="M1.15 -8.9 L1.6 -7.35 Q2.25 -4.35 2.25 -0.15 2.25 4.05 1.6 7.0 L1.1 8.85 Q0.6 10.0 0.0 10.0 -0.6 10.0 -1.05 8.85 L-1.6 7.0 Q-2.25 4.05 -2.25 -0.15 -2.25 -4.35 -1.6 -7.35 L-1.15 -8.9 Q-0.65 -10.3 0.0 -10.3 0.65 -10.3 1.15 -8.9" fill="#cf1f1f" fill-rule="evenodd" stroke="none"/>
    <path d="M1.1 8.85 Q4.5 8.55 7.0 6.25 9.85 3.65 9.9 -0.05 9.85 -3.75 7.0 -6.35 4.5 -8.6 1.15 -8.9 M-1.05 8.85 Q-4.35 8.5 -6.8 6.25 -9.65 3.65 -9.65 -0.05 -9.65 -3.75 -6.8 -6.35 -4.4 -8.55 -1.15 -8.9" fill="none" stroke="#000000" stroke-linecap="round" stroke-linejoin="round" stroke-width="1.0"/>
    <path d="M1.15 -8.9 Q0.65 -10.3 0.0 -10.3 -0.65 -10.3 -1.15 -8.9 M-1.05 8.85 Q-0.6 10.0 0.0 10.0 0.6 10.0 1.1 8.85" fill="none" stroke="#000000" stroke-linecap="round" stroke-linejoin="round" stroke-width="1.0"/>
  </g>
</svg>
