<?xml version="1.0" encoding="UTF-8" standalone="no"?>
<svg xmlns:xlink="http://www.w3.org/1999/xlink" height="46.0px" width="46.5px" xmlns="http://www.w3.org/2000/svg">
  <g transform="matrix(1.0, 0.0, 0.0, 1.0, 23.25, 23.0)">
    <path d="M0.0 -22.5 Q9.4 -22.5 16.05 -15.9 22.75 -9.3 22.75 0.0 22.75 9.3 16.05 15.9 9.4 22.5 0.0 22.5 -9.4 22.5 -16.1 15.9 -22.75 9.3 -22.75 0.0 -22.75 -9.3 -16.1 -15.9 -9.4 -22.5 0.0 -22.5 Z" fill="none" stroke="#000000" stroke-linecap="round" stroke-linejoin="round" stroke-width="1.0"/>
    <path d="M0.35 6.05 L0.65 5.05 Q1.0 4.2 1.6 4.25 L1.8 4.25 1.8 8.0 Q1.8 8.9 1.2 8.9 L0.7 8.9 0.7 9.0 3.55 9.0 3.55 8.9 3.05 8.9 Q2.45 8.9 2.45 8.0 L2.45 4.25 2.65 4.25 Q3.2 4.2 3.6 5.0 L3.95 6.6 4.05 6.6 4.05 4.15 0.25 4.15 0.25 6.6 0.3 6.6 0.35 6.05 M6.4 4.25 L6.4 4.15 4.35 4.15 4.35 4.25 4.45 4.25 Q4.75 4.2 4.85 4.4 L5.0 4.65 5.05 5.05 5.1 5.8 5.1 6.85 5.1 7.5 5.05 8.0 4.9 8.65 Q4.75 8.85 4.45 8.9 L4.35 8.9 4.35 9.0 6.4 9.0 6.4 8.9 6.3 8.9 5.9 8.65 5.7 8.0 5.7 6.6 7.45 6.6 7.45 8.0 7.35 8.65 6.9 8.9 6.8 8.9 6.8 9.0 8.85 9.0 8.85 8.9 8.75 8.9 8.3 8.65 Q8.15 8.45 8.15 8.0 L8.15 5.15 Q8.15 4.65 8.3 4.45 8.45 4.25 8.75 4.25 L8.85 4.25 8.85 4.15 6.8 4.15 6.8 4.25 6.9 4.25 7.35 4.45 7.45 5.15 7.45 6.45 5.7 6.45 5.7 5.15 5.9 4.45 Q6.0 4.25 6.3 4.25 L6.4 4.25 M12.25 4.2 L12.15 4.2 11.9 4.6 11.65 4.45 Q11.05 4.0 10.55 4.0 10.15 4.0 9.9 4.2 L9.45 4.7 Q9.25 5.0 9.3 5.4 L9.4 6.05 9.65 6.4 10.05 6.65 10.8 7.0 11.0 7.1 11.45 7.3 11.75 7.45 11.9 7.6 12.05 8.1 11.95 8.55 11.65 8.9 11.25 9.0 10.7 8.85 10.15 8.5 9.75 7.95 9.4 6.85 9.35 6.85 9.35 9.1 9.4 9.1 9.55 8.75 9.85 8.6 10.05 8.65 10.35 8.8 10.8 9.05 11.25 9.1 11.8 9.0 12.25 8.6 12.4 8.1 12.5 7.6 12.45 7.15 12.25 6.75 11.9 6.4 11.25 6.05 10.9 5.95 10.8 5.95 10.35 5.7 10.05 5.55 9.9 5.4 9.8 5.0 9.8 4.7 9.9 4.45 10.2 4.2 10.55 4.15 11.05 4.25 11.5 4.5 11.8 4.95 12.15 5.9 12.25 5.9 12.25 4.2 M11.6 -8.3 Q11.8 -8.3 11.95 -8.45 L12.15 -9.0 11.95 -9.5 11.55 -9.7 11.2 -9.5 11.05 -9.0 11.2 -8.45 Q11.35 -8.3 11.6 -8.3 M3.35 -4.0 L4.35 -4.35 4.95 -4.75 5.45 -5.35 5.4 -5.45 4.7 -5.3 3.95 -5.2 3.15 -5.2 1.45 -5.3 0.85 -5.5 0.35 -1.8 0.5 -1.8 1.2 -2.2 1.8 -2.45 2.4 -2.5 3.3 -2.3 3.85 -1.65 4.05 -0.6 Q4.05 0.45 3.6 0.95 3.2 1.45 2.3 1.45 L1.4 1.3 0.95 1.0 1.15 0.8 1.6 0.15 1.5 -0.25 1.2 -0.55 0.8 -0.65 Q0.45 -0.65 0.2 -0.4 L-0.05 0.2 0.15 0.8 0.65 1.25 1.45 1.5 2.5 1.6 Q4.2 1.6 5.1 0.75 5.65 0.2 5.65 -0.55 L5.5 -1.25 5.05 -1.9 4.45 -2.35 3.65 -2.6 2.65 -2.7 1.65 -2.55 0.55 -2.05 0.8 -4.0 2.15 -3.9 3.35 -4.0 M3.15 -9.5 L2.75 -9.7 2.4 -9.5 Q2.25 -9.3 2.25 -9.0 L2.4 -8.45 Q2.55 -8.3 2.8 -8.3 L3.15 -8.45 3.35 -9.0 3.15 -9.5 M6.4 -14.25 L7.35 -14.25 7.9 -14.2 8.3 -13.95 Q8.75 -13.65 8.8 -12.75 8.8 -12.0 8.45 -11.6 8.1 -11.25 7.4 -11.25 L6.4 -11.25 6.4 -14.25 M4.4 -14.25 L4.5 -14.25 Q5.4 -14.25 5.4 -13.15 L5.4 -9.7 Q5.4 -8.6 4.5 -8.6 L4.4 -8.6 4.4 -8.4 7.55 -8.4 7.55 -8.6 7.3 -8.6 Q6.4 -8.6 6.4 -9.7 L6.4 -11.1 7.7 -11.1 8.65 -11.2 9.35 -11.5 9.75 -12.05 9.9 -12.75 9.65 -13.7 8.75 -14.25 8.3 -14.35 7.8 -14.4 7.25 -14.4 4.4 -14.4 4.4 -14.25 M0.25 -13.95 Q0.45 -14.25 0.9 -14.25 L1.05 -14.25 1.05 -14.4 -2.0 -14.4 -2.0 -14.25 -1.85 -14.25 -1.25 -14.05 -1.05 -13.7 -1.0 -13.3 -1.0 -11.05 -1.0 -10.5 -1.0 -10.1 -1.0 -9.7 Q-1.0 -9.1 -1.15 -8.85 L-1.85 -8.6 -2.0 -8.6 -2.0 -8.4 1.05 -8.4 1.05 -8.6 0.9 -8.6 Q0.45 -8.6 0.25 -8.85 L0.05 -9.7 0.05 -13.15 0.25 -13.95 M12.95 17.2 Q-0.5 12.35 -12.9 17.2 L-12.9 -15.5 Q-0.5 -23.6 12.95 -15.5 L12.95 17.2 M-1.7 7.35 L-3.0 7.35 -2.35 5.15 -1.7 7.35 M-9.8 4.45 L-9.6 4.7 -9.35 5.2 -9.2 5.8 -9.15 6.55 Q-9.15 7.8 -9.55 8.4 L-9.8 8.7 -10.1 8.85 -10.55 8.9 -11.2 8.9 -11.2 4.25 -10.6 4.25 -10.15 4.25 -9.8 4.45 M-8.5 5.7 Q-8.6 5.25 -8.85 4.9 L-9.5 4.3 -10.45 4.15 -12.6 4.15 -12.6 4.25 -12.45 4.25 -12.05 4.45 Q-11.9 4.65 -11.9 5.15 L-11.9 8.0 -12.05 8.65 -12.45 8.9 -12.6 8.9 -12.6 9.0 -10.25 9.0 -9.5 8.85 -8.9 8.35 -8.5 7.6 -8.35 6.65 Q-8.35 6.15 -8.5 5.7 M-4.9 4.8 L-4.65 5.3 -4.5 6.0 -4.45 6.0 -4.45 4.15 -7.85 4.15 -7.85 4.25 -7.8 4.25 -7.35 4.45 -7.2 5.15 -7.2 8.0 Q-7.25 8.9 -7.8 8.9 L-7.85 8.9 -7.85 9.0 -4.35 9.0 -4.35 7.0 -4.45 7.0 -4.6 7.7 -4.95 8.4 -5.2 8.7 -5.55 8.85 -6.0 8.9 -6.5 8.9 -6.5 6.7 -6.4 6.7 Q-6.0 6.7 -5.8 7.1 L-5.65 7.35 -5.6 7.75 -5.5 8.25 -5.45 8.25 -5.45 5.05 -5.5 5.05 -5.55 5.45 -5.75 6.05 -6.35 6.55 -6.5 6.55 -6.5 4.25 -5.9 4.25 -5.2 4.4 -4.9 4.8 M-2.0 4.0 L-2.1 4.0 -3.1 7.55 -3.6 8.65 -3.8 8.8 -4.0 8.9 -4.0 9.0 -2.7 9.0 -2.7 8.9 -2.85 8.9 -2.95 8.75 -3.1 8.55 -3.15 8.25 -3.1 7.85 -3.0 7.45 -1.65 7.45 -1.6 7.65 -1.55 7.75 -1.55 7.85 -1.4 8.35 -1.35 8.6 -1.45 8.8 -1.7 8.9 -1.95 8.9 -1.95 9.0 -0.1 9.0 -0.1 8.9 -0.15 8.9 -0.4 8.85 -0.55 8.65 -0.7 8.3 -2.0 4.0 M-6.45 -4.1 L-6.6 -3.4 Q-6.6 -2.85 -6.25 -2.45 -5.9 -2.05 -5.35 -2.05 L-4.8 -2.2 -4.4 -2.55 -4.3 -3.05 -4.4 -3.5 -4.7 -3.8 -5.15 -3.9 -5.65 -3.75 -6.0 -3.3 -6.05 -3.05 -6.15 -2.95 Q-6.4 -2.95 -6.4 -3.45 L-6.1 -4.35 -5.35 -5.0 -4.25 -5.25 Q-3.5 -5.25 -3.05 -4.8 -2.65 -4.35 -2.65 -3.45 -2.65 -2.95 -2.8 -2.55 L-3.35 -1.75 -3.45 -1.65 -3.55 -1.6 -4.35 -0.95 -6.05 0.45 -6.6 1.5 -1.4 1.5 -0.9 -1.15 -1.1 -1.15 -1.15 -0.8 -1.4 -0.2 -1.75 0.1 -2.45 0.2 -5.65 0.2 -5.15 -0.2 -3.3 -1.15 -1.9 -1.85 -1.5 -2.25 Q-1.05 -2.75 -1.05 -3.4 L-1.25 -4.25 -1.8 -4.9 -2.7 -5.3 -3.85 -5.45 Q-5.35 -5.45 -6.05 -4.75 L-6.45 -4.1 M-3.8 -9.7 L-4.2 -9.5 -4.35 -9.0 -4.15 -8.45 -3.8 -8.3 Q-3.6 -8.3 -3.4 -8.45 -3.25 -8.7 -3.25 -9.0 -3.25 -9.3 -3.4 -9.5 L-3.8 -9.7 M-8.5 -14.25 Q-7.1 -14.25 -7.1 -12.85 -7.1 -12.4 -7.25 -12.1 -7.4 -11.8 -7.7 -11.65 L-8.5 -11.45 -9.9 -11.45 -9.9 -14.25 -8.5 -14.25 M-6.05 -13.35 L-6.3 -13.8 -7.0 -14.25 -8.2 -14.4 -11.9 -14.4 -11.9 -14.25 -11.8 -14.25 -11.1 -13.95 -10.9 -13.15 -10.9 -9.7 Q-10.9 -9.1 -11.1 -8.85 L-11.8 -8.6 -11.9 -8.6 -11.9 -8.4 -8.85 -8.4 -8.85 -8.6 -9.0 -8.6 Q-9.45 -8.6 -9.65 -8.85 L-9.9 -9.7 -9.9 -11.35 -8.8 -11.35 -7.15 -8.4 -5.3 -8.4 -5.3 -8.6 -5.5 -8.6 Q-5.9 -8.6 -6.1 -8.75 L-6.4 -9.15 -6.8 -9.75 -6.9 -10.0 -7.05 -10.3 -7.15 -10.5 -7.7 -10.65 -8.15 -10.95 -8.65 -11.3 -8.65 -11.35 -7.8 -11.35 -7.1 -11.5 Q-6.75 -11.6 -6.55 -11.75 -6.0 -12.2 -5.95 -12.85 L-6.05 -13.35" fill="#000000" fill-rule="evenodd" stroke="none"/>
  </g>
</svg>
