<?xml version="1.0" encoding="UTF-8" standalone="no"?>
<svg xmlns:xlink="http://www.w3.org/1999/xlink" height="30.4px" width="11.35px" xmlns="http://www.w3.org/2000/svg">
  <g transform="matrix(1.0, 0.0, 0.0, 1.0, 9.8, 15.55)">
    <path d="M-7.9 -5.45 Q-7.5 -2.4 -7.75 1.1 -7.9 4.2 -7.1 6.85 L-7.0 7.1 Q-6.35 9.15 -5.0 10.85 -3.95 12.15 -2.05 11.75 0.2 11.25 0.6 12.65 L0.6 13.55 Q-2.8 15.6 -5.45 12.4 L-6.8 10.5 Q-8.75 7.85 -9.2 3.9 -9.5 0.5 -8.85 -3.2 L-8.65 -4.0 -8.6 -4.4 -8.55 -4.6 -7.9 -5.45" fill="url(#gradient0)" fill-rule="evenodd" stroke="none"/>
    <path d="M-7.9 -5.45 Q-7.0 -9.5 -4.75 -12.05 -2.1 -14.95 1.3 -15.3 -0.25 -12.05 -1.25 -8.15 L-3.0 -0.8 Q-3.9 3.1 -2.0 5.5 -0.4 7.55 0.7 9.6 1.3 10.75 0.6 12.65 0.2 11.25 -2.05 11.75 -3.95 12.15 -5.0 10.85 -6.35 9.15 -7.0 7.1 L-7.1 6.85 Q-7.9 4.2 -7.75 1.1 -7.5 -2.4 -7.9 -5.45" fill="url(#gradient1)" fill-rule="evenodd" stroke="none"/>
    <path d="M-7.9 -5.45 Q-7.5 -2.4 -7.75 1.1 -7.9 4.2 -7.1 6.85 L-7.0 7.1 Q-6.35 9.15 -5.0 10.85 -3.95 12.15 -2.05 11.75 0.2 11.25 0.6 12.65 L0.6 13.55 Q-2.8 15.6 -5.45 12.4 L-6.8 10.5 Q-8.75 7.85 -9.2 3.9 -9.5 0.5 -8.85 -3.2 L-8.65 -4.0 -8.6 -4.4 -8.55 -4.6 -7.9 -5.45" fill="none" stroke="#000000" stroke-linecap="round" stroke-linejoin="round" stroke-width="1.0"/>
    <path d="M0.6 12.65 Q1.3 10.75 0.7 9.6 -0.4 7.55 -2.0 5.5 -3.9 3.1 -3.0 -0.8 L-1.25 -8.15 Q-0.25 -12.05 1.3 -15.3 -2.1 -14.95 -4.75 -12.05 -7.0 -9.5 -7.9 -5.45" fill="none" stroke="#000000" stroke-linecap="round" stroke-linejoin="round" stroke-width="0.5"/>
  </g>
  <defs>
    <radialGradient cx="0" cy="0" gradientTransform="matrix(0.0122, 0.001, 0.0013, -0.0159, -4.15, 4.75)" gradientUnits="userSpaceOnUse" id="gradient0" r="819.2" spreadMethod="pad">
      <stop offset="0.0" stop-color="#960a0a"/>
      <stop offset="0.5764705882352941" stop-color="#f74a33"/>
      <stop offset="1.0" stop-color="#ffffff"/>
    </radialGradient>
    <radialGradient cx="0" cy="0" gradientTransform="matrix(0.0086, 4.0E-4, 0.002, -0.0407, -7.65, 5.5)" gradientUnits="userSpaceOnUse" id="gradient1" r="819.2" spreadMethod="pad">
      <stop offset="0.0" stop-color="#986807"/>
      <stop offset="0.5764705882352941" stop-color="#efca3a"/>
      <stop offset="1.0" stop-color="#ffffff"/>
    </radialGradient>
  </defs>
</svg>
