<?xml version="1.0" encoding="UTF-8" standalone="no"?>
<svg xmlns:xlink="http://www.w3.org/1999/xlink" height="5.75px" width="6.25px" xmlns="http://www.w3.org/2000/svg">
  <g transform="matrix(1.0, 0.0, 0.0, 1.0, 13.3, -12.95)">
    <path d="M-13.05 15.85 Q-13.05 14.75 -12.2 14.0 -11.35 13.2 -10.15 13.2 -9.0 13.2 -8.15 14.0 -7.3 14.75 -7.3 15.85 -7.3 16.9 -8.15 17.7 -9.0 18.45 -10.15 18.45 -11.35 18.45 -12.2 17.7 -13.05 16.9 -13.05 15.85" fill="#cf1f1f" fill-rule="evenodd" stroke="none"/>
    <path d="M-13.05 15.85 Q-13.05 14.75 -12.2 14.0 -11.35 13.2 -10.15 13.2 -9.0 13.2 -8.15 14.0 -7.3 14.75 -7.3 15.85 -7.3 16.9 -8.15 17.7 -9.0 18.45 -10.15 18.45 -11.35 18.45 -12.2 17.7 -13.05 16.9 -13.05 15.85 Z" fill="none" stroke="#000000" stroke-linecap="round" stroke-linejoin="round" stroke-width="0.5"/>
  </g>
</svg>
