<?xml version="1.0" encoding="UTF-8" standalone="no"?>
<svg xmlns:xlink="http://www.w3.org/1999/xlink" height="30.65px" width="11.8px" xmlns="http://www.w3.org/2000/svg">
  <g transform="matrix(1.0, 0.0, 0.0, 1.0, 1.1, 15.75)">
    <path d="M-0.55 12.45 Q-1.15 10.55 -0.4 9.45 0.85 7.5 2.6 5.55 4.65 3.25 3.95 -0.7 L2.75 -8.2 Q1.95 -12.05 0.65 -15.5 4.05 -14.9 6.45 -11.8 8.55 -9.05 9.2 -5.05 8.6 -2.0 8.6 1.5 8.6 4.65 7.55 7.2 L7.45 7.5 Q6.65 9.45 5.2 11.05 4.1 12.3 2.2 11.75 0.0 11.15 -0.55 12.45" fill="url(#gradient0)" fill-rule="evenodd" stroke="none"/>
    <path d="M9.2 -5.05 L9.8 -4.15 9.85 -3.95 9.9 -3.55 10.05 -2.75 Q10.45 1.0 9.9 4.4 9.2 8.3 7.0 10.85 L5.5 12.65 Q2.75 15.7 -0.5 13.4 L-0.55 12.45 Q0.0 11.15 2.2 11.75 4.1 12.3 5.2 11.05 6.65 9.45 7.45 7.5 L7.55 7.2 Q8.6 4.65 8.6 1.5 8.6 -2.0 9.2 -5.05" fill="url(#gradient1)" fill-rule="evenodd" stroke="none"/>
    <path d="M-0.55 12.45 Q-1.15 10.55 -0.4 9.45 0.85 7.5 2.6 5.55 4.65 3.25 3.95 -0.7 L2.75 -8.2 Q1.95 -12.05 0.65 -15.5 4.05 -14.9 6.45 -11.8 8.55 -9.05 9.2 -5.05" fill="none" stroke="#000000" stroke-linecap="round" stroke-linejoin="round" stroke-width="0.5"/>
    <path d="M9.2 -5.05 L9.8 -4.15 9.85 -3.95 9.9 -3.55 10.05 -2.75 Q10.45 1.0 9.9 4.4 9.2 8.3 7.0 10.85 L5.5 12.65 Q2.75 15.7 -0.5 13.4 L-0.55 12.45 Q0.0 11.15 2.2 11.75 4.1 12.3 5.2 11.05 6.65 9.45 7.45 7.5 L7.55 7.2 Q8.6 4.65 8.6 1.5 8.6 -2.0 9.2 -5.05 Z" fill="none" stroke="#000000" stroke-linecap="round" stroke-linejoin="round" stroke-width="1.0"/>
  </g>
  <defs>
    <radialGradient cx="0" cy="0" gradientTransform="matrix(-0.0086, -1.0E-4, 7.0E-4, -0.0407, 8.15, 5.9)" gradientUnits="userSpaceOnUse" id="gradient0" r="819.2" spreadMethod="pad">
      <stop offset="0.0" stop-color="#986807"/>
      <stop offset="0.5764705882352941" stop-color="#efca3a"/>
      <stop offset="1.0" stop-color="#ffffff"/>
    </radialGradient>
    <radialGradient cx="0" cy="0" gradientTransform="matrix(-0.0122, 2.0E-4, -2.0E-4, -0.0159, 4.7, 4.9)" gradientUnits="userSpaceOnUse" id="gradient1" r="819.2" spreadMethod="pad">
      <stop offset="0.0" stop-color="#960a0a"/>
      <stop offset="0.5764705882352941" stop-color="#f74a33"/>
      <stop offset="1.0" stop-color="#ffffff"/>
    </radialGradient>
  </defs>
</svg>
