<?xml version="1.0" encoding="UTF-8" standalone="no"?>
<svg xmlns:xlink="http://www.w3.org/1999/xlink" height="37.1px" width="17.2px" xmlns="http://www.w3.org/2000/svg">
  <g transform="matrix(1.0, 0.0, 0.0, 1.0, 3.55, 22.8)">
    <path d="M2.4 12.05 Q1.2 9.9 1.8 8.35 2.85 5.6 4.5 2.75 6.4 -0.5 4.6 -5.2 L1.15 -14.1 Q-0.8 -18.65 -3.3 -22.55 1.0 -22.65 4.75 -19.5 8.0 -16.65 9.85 -11.85 9.85 -7.95 10.8 -3.7 11.65 0.15 10.95 3.5 L10.95 3.95 Q10.4 6.5 9.1 8.9 8.05 10.7 5.6 10.45 2.75 10.25 2.4 12.05" fill="url(#gradient0)" fill-rule="evenodd" stroke="none"/>
    <path d="M9.85 -11.85 L10.85 -10.9 10.95 -10.7 11.05 -10.2 11.45 -9.2 Q12.95 -4.8 13.15 -0.45 13.25 4.45 11.25 8.15 L9.85 10.7 Q7.25 15.2 2.7 13.2 2.3 12.5 2.4 12.05 2.75 10.25 5.6 10.45 8.05 10.7 9.1 8.9 10.4 6.5 10.95 3.95 L10.95 3.5 Q11.65 0.15 10.8 -3.7 9.85 -7.95 9.85 -11.85" fill="url(#gradient1)" fill-rule="evenodd" stroke="none"/>
    <path d="M2.4 12.05 Q1.2 9.9 1.8 8.35 2.85 5.6 4.5 2.75 6.4 -0.5 4.6 -5.2 L1.15 -14.1 Q-0.8 -18.65 -3.3 -22.55 1.0 -22.65 4.75 -19.5 8.0 -16.65 9.85 -11.85" fill="none" stroke="#000000" stroke-linecap="round" stroke-linejoin="round" stroke-width="0.5"/>
    <path d="M9.85 -11.85 L10.85 -10.9 10.95 -10.7 11.05 -10.2 11.45 -9.2 Q12.95 -4.8 13.15 -0.45 13.25 4.45 11.25 8.15 L9.85 10.7 Q7.25 15.2 2.7 13.2 2.3 12.5 2.4 12.05 2.75 10.25 5.6 10.45 8.05 10.7 9.1 8.9 10.4 6.5 10.95 3.95 L10.95 3.5 Q11.65 0.15 10.8 -3.7 9.85 -7.95 9.85 -11.85 Z" fill="none" stroke="#000000" stroke-linecap="round" stroke-linejoin="round" stroke-width="1.0"/>
  </g>
  <defs>
    <radialGradient cx="0" cy="0" gradientTransform="matrix(-0.0106, 0.002, -0.0096, -0.05, 11.4, 1.8)" gradientUnits="userSpaceOnUse" id="gradient0" r="819.2" spreadMethod="pad">
      <stop offset="0.0" stop-color="#986807"/>
      <stop offset="0.5764705882352941" stop-color="#efca3a"/>
      <stop offset="1.0" stop-color="#ffffff"/>
    </radialGradient>
    <radialGradient cx="0" cy="0" gradientTransform="matrix(-0.0149, 0.0033, -0.0043, -0.0195, 6.9, 1.45)" gradientUnits="userSpaceOnUse" id="gradient1" r="819.2" spreadMethod="pad">
      <stop offset="0.0" stop-color="#960a0a"/>
      <stop offset="0.5764705882352941" stop-color="#f74a33"/>
      <stop offset="1.0" stop-color="#ffffff"/>
    </radialGradient>
  </defs>
</svg>
