<?xml version="1.0" encoding="UTF-8" standalone="no"?>
<svg xmlns:xlink="http://www.w3.org/1999/xlink" height="46.65px" width="33.5px" xmlns="http://www.w3.org/2000/svg">
  <g transform="matrix(1.0, 0.0, 0.0, 1.0, 19.3, 39.2)">
    <path d="M-8.1 -29.55 Q-9.7 -24.35 -12.85 -19.05 -15.5 -14.3 -16.15 -9.45 -16.1 -9.25 -16.2 -9.0 -16.7 -5.3 -15.85 -1.6 -15.25 1.25 -11.9 2.05 -8.0 2.9 -8.4 5.5 -8.4 6.1 -9.15 6.9 -16.1 7.55 -17.7 0.5 L-18.45 -3.5 Q-19.5 -9.2 -17.3 -15.75 -15.15 -21.4 -11.3 -26.7 L-10.4 -27.85 -10.0 -28.4 -9.75 -28.65 Q-9.15 -29.3 -8.1 -29.55" fill="url(#gradient0)" fill-rule="evenodd" stroke="none"/>
    <path d="M-8.1 -29.55 Q-3.6 -35.15 1.9 -37.45 8.3 -40.1 13.95 -38.0 9.0 -34.05 4.5 -28.75 L-3.9 -18.35 Q-8.25 -12.95 -7.15 -7.7 -6.15 -3.3 -6.0 0.8 -5.9 3.0 -8.4 5.5 -8.0 2.9 -11.9 2.05 -15.25 1.25 -15.85 -1.6 -16.7 -5.3 -16.2 -9.0 -16.1 -9.25 -16.15 -9.45 -15.5 -14.3 -12.85 -19.05 -9.7 -24.35 -8.1 -29.55" fill="url(#gradient1)" fill-rule="evenodd" stroke="none"/>
    <path d="M-8.1 -29.55 Q-9.7 -24.35 -12.85 -19.05 -15.5 -14.3 -16.15 -9.45 -16.1 -9.25 -16.2 -9.0 -16.7 -5.3 -15.85 -1.6 -15.25 1.25 -11.9 2.05 -8.0 2.9 -8.4 5.5 -8.4 6.1 -9.15 6.9 -16.1 7.55 -17.7 0.5 L-18.45 -3.5 Q-19.5 -9.2 -17.3 -15.75 -15.15 -21.4 -11.3 -26.7 L-10.4 -27.85 -10.0 -28.4 -9.75 -28.65 Q-9.15 -29.3 -8.1 -29.55" fill="none" stroke="#000000" stroke-linecap="round" stroke-linejoin="round" stroke-width="1.0"/>
    <path d="M-8.4 5.5 Q-5.9 3.0 -6.0 0.8 -6.15 -3.3 -7.15 -7.7 -8.25 -12.95 -3.9 -18.35 L4.5 -28.75 Q9.0 -34.05 13.95 -38.0 8.3 -40.1 1.9 -37.45 -3.6 -35.15 -8.1 -29.55" fill="none" stroke="#000000" stroke-linecap="round" stroke-linejoin="round" stroke-width="0.5"/>
  </g>
  <defs>
    <radialGradient cx="0" cy="0" gradientTransform="matrix(0.0184, 0.0108, 0.0141, -0.024, -9.9, -10.6)" gradientUnits="userSpaceOnUse" id="gradient0" r="819.2" spreadMethod="pad">
      <stop offset="0.0" stop-color="#960a0a"/>
      <stop offset="0.5764705882352941" stop-color="#f74a33"/>
      <stop offset="1.0" stop-color="#ffffff"/>
    </radialGradient>
    <radialGradient cx="0" cy="0" gradientTransform="matrix(0.0132, 0.0072, 0.0341, -0.0625, -15.9, -12.05)" gradientUnits="userSpaceOnUse" id="gradient1" r="819.2" spreadMethod="pad">
      <stop offset="0.0" stop-color="#986807"/>
      <stop offset="0.5764705882352941" stop-color="#efca3a"/>
      <stop offset="1.0" stop-color="#ffffff"/>
    </radialGradient>
  </defs>
</svg>
