<?xml version="1.0" encoding="UTF-8" standalone="no"?>
<svg xmlns:xlink="http://www.w3.org/1999/xlink" height="39.0px" width="42.8px" xmlns="http://www.w3.org/2000/svg">
  <g transform="matrix(1.0, 0.0, 0.0, 1.0, 2.2, 17.25)">
    <path d="M-0.5 13.0 Q1.45 10.1 3.65 9.75 L12.3 9.4 Q17.65 9.55 22.15 4.2 L30.8 -5.9 Q35.15 -11.3 38.3 -17.0 41.3 -11.75 39.95 -5.05 38.55 0.8 33.9 6.3 29.15 8.9 24.5 12.85 20.3 16.4 15.65 17.85 L15.15 18.05 Q11.65 19.15 7.85 19.1 5.0 19.05 3.6 15.85 1.95 12.2 -0.5 13.0" fill="url(#gradient0)" fill-rule="evenodd" stroke="none"/>
    <path d="M33.9 6.3 Q33.85 7.35 33.35 8.1 L33.1 8.35 32.65 8.9 31.75 10.0 Q27.2 14.8 22.1 17.85 16.05 21.3 10.2 21.25 L6.15 21.2 Q-1.15 21.0 -1.7 14.1 -1.1 13.2 -0.5 13.0 1.95 12.2 3.6 15.85 5.0 19.05 7.85 19.1 11.65 19.15 15.15 18.05 L15.65 17.85 Q20.3 16.4 24.5 12.85 29.15 8.9 33.9 6.3" fill="url(#gradient1)" fill-rule="evenodd" stroke="none"/>
    <path d="M-0.5 13.0 Q1.45 10.1 3.65 9.75 L12.3 9.4 Q17.65 9.55 22.15 4.2 L30.8 -5.9 Q35.15 -11.3 38.3 -17.0 41.3 -11.75 39.95 -5.05 38.55 0.8 33.9 6.3" fill="none" stroke="#000000" stroke-linecap="round" stroke-linejoin="round" stroke-width="0.5"/>
    <path d="M33.9 6.3 Q33.85 7.35 33.35 8.1 L33.1 8.35 32.65 8.9 31.75 10.0 Q27.2 14.8 22.1 17.85 16.05 21.3 10.2 21.25 L6.15 21.2 Q-1.15 21.0 -1.7 14.1 -1.1 13.2 -0.5 13.0 1.95 12.2 3.6 15.85 5.0 19.05 7.85 19.1 11.65 19.15 15.15 18.05 L15.65 17.85 Q20.3 16.4 24.5 12.85 29.15 8.9 33.9 6.3 Z" fill="none" stroke="#000000" stroke-linecap="round" stroke-linejoin="round" stroke-width="1.0"/>
  </g>
  <defs>
    <radialGradient cx="0" cy="0" gradientTransform="matrix(-0.0096, -0.0116, 0.0552, -0.0451, 18.1, 17.2)" gradientUnits="userSpaceOnUse" id="gradient0" r="819.2" spreadMethod="pad">
      <stop offset="0.0" stop-color="#986807"/>
      <stop offset="0.5764705882352941" stop-color="#efca3a"/>
      <stop offset="1.0" stop-color="#ffffff"/>
    </radialGradient>
    <radialGradient cx="0" cy="0" gradientTransform="matrix(-0.014, -0.0161, 0.0211, -0.0183, 15.55, 11.55)" gradientUnits="userSpaceOnUse" id="gradient1" r="819.2" spreadMethod="pad">
      <stop offset="0.0" stop-color="#960a0a"/>
      <stop offset="0.5764705882352941" stop-color="#f74a33"/>
      <stop offset="1.0" stop-color="#ffffff"/>
    </radialGradient>
  </defs>
</svg>
