<?xml version="1.0" encoding="UTF-8" standalone="no"?>
<svg xmlns:xlink="http://www.w3.org/1999/xlink" height="382.85px" width="310.95px" xmlns="http://www.w3.org/2000/svg">
  <g transform="matrix(1.0, 0.0, 0.0, 1.0, 140.05, 207.95)">
    <path d="M145.7 -203.0 L146.6 -205.4 146.95 -206.15 Q147.25 -206.55 147.9 -206.85 149.15 -207.5 150.95 -207.45 L154.05 -206.9 Q154.8 -206.6 155.1 -206.1 L155.3 -205.85 155.3 -205.75 156.25 -203.25 156.45 -202.95 156.55 -202.55 Q156.6 -201.8 154.95 -201.3 L151.05 -200.65 147.15 -201.2 Q145.45 -201.7 145.5 -202.45 L145.7 -203.0 Q146.0 -203.45 147.05 -203.85 L147.6 -204.0 148.05 -204.1 147.6 -204.0 147.05 -203.85 Q146.0 -203.45 145.7 -203.0 M148.45 -205.9 L148.05 -204.1 148.45 -205.9 148.8 -205.7 149.25 -205.8 149.4 -205.95 149.95 -206.65 149.95 -206.95 149.9 -207.0 149.65 -207.1 Q149.4 -206.85 149.1 -206.85 L148.95 -206.75 148.45 -206.05 148.4 -205.95 148.45 -205.9 M156.25 -203.25 L154.95 -203.95 154.4 -204.1 151.0 -204.4 148.05 -204.1 151.0 -204.4 154.4 -204.1 154.95 -203.95 156.25 -203.25 M150.3 -205.8 L150.35 -205.6 150.75 -205.65 150.9 -205.8 151.75 -206.75 151.7 -207.0 151.5 -207.2 151.45 -207.25 151.25 -207.2 151.0 -207.2 150.85 -207.05 150.35 -206.5 150.35 -206.45 150.35 -206.3 150.2 -205.9 150.3 -205.8 150.1 -204.75 150.3 -205.8 M152.05 -206.5 L152.1 -204.8 152.05 -206.5 M147.9 -205.75 L147.9 -206.05 147.7 -206.25 147.6 -206.25 147.45 -206.15 146.9 -205.5 147.05 -205.15 147.45 -205.2 147.55 -205.35 147.9 -205.75 M153.55 -206.05 L153.8 -204.55 153.55 -206.05" fill="#828282" fill-rule="evenodd" stroke="none"/>
    <path d="M148.45 -205.9 L148.4 -205.95 148.45 -206.05 148.95 -206.75 149.1 -206.85 Q149.4 -206.85 149.65 -207.1 L149.9 -207.0 149.95 -206.95 149.95 -206.65 149.4 -205.95 149.25 -205.8 148.8 -205.7 148.45 -205.9 148.45 -206.05 148.45 -205.9 M150.35 -206.45 L150.35 -206.5 150.85 -207.05 151.0 -207.2 151.25 -207.2 151.45 -207.25 151.5 -207.2 151.7 -207.0 151.75 -206.75 150.9 -205.8 150.75 -205.65 150.35 -205.6 150.3 -205.8 150.2 -205.9 150.35 -206.3 150.35 -206.45 M147.9 -205.75 L147.55 -205.35 147.45 -205.2 147.05 -205.15 146.9 -205.5 147.45 -206.15 147.6 -206.25 147.7 -206.25 147.9 -206.05 147.9 -205.75 M150.35 -206.3 L150.3 -205.8 150.35 -206.3" fill="#ffffff" fill-rule="evenodd" stroke="none"/>
    <path d="M145.7 -203.0 L146.6 -205.4 146.95 -206.15 Q147.25 -206.55 147.9 -206.85 149.15 -207.5 150.95 -207.45 L154.05 -206.9 Q154.8 -206.6 155.1 -206.1 L155.3 -205.85 155.3 -205.75 156.25 -203.25 156.45 -202.95 M148.05 -204.1 L148.45 -205.9 148.45 -206.05 M150.3 -205.8 L150.1 -204.75 M152.1 -204.8 L152.05 -206.5 M150.35 -206.3 L150.35 -206.45 M150.3 -205.8 L150.35 -206.3 M153.8 -204.55 L153.55 -206.05" fill="none" stroke="#333333" stroke-linecap="round" stroke-linejoin="round" stroke-width="1.0"/>
    <path d="M156.45 -202.95 L156.55 -202.55 Q156.6 -201.8 154.95 -201.3 L151.05 -200.65 147.15 -201.2 Q145.45 -201.7 145.5 -202.45 L145.7 -203.0 Q146.0 -203.45 147.05 -203.85 L147.6 -204.0 148.05 -204.1 151.0 -204.4 154.4 -204.1 154.95 -203.95 156.25 -203.25" fill="none" stroke="#333333" stroke-linecap="round" stroke-linejoin="round" stroke-width="1.0"/>
    <path d="M165.55 -195.55 L167.95 -194.7 168.8 -194.4 169.5 -193.55 Q170.25 -192.35 170.35 -190.5 170.5 -188.7 169.95 -187.35 L169.25 -186.35 169.0 -186.2 168.85 -186.15 166.4 -185.05 166.15 -184.75 165.8 -184.65 Q165.05 -184.6 164.4 -186.2 163.75 -187.7 163.55 -190.0 163.4 -192.35 163.85 -193.95 164.2 -195.65 164.95 -195.7 L165.55 -195.55 Q166.0 -195.2 166.45 -194.15 L166.65 -193.65 166.75 -193.25 166.65 -193.65 166.45 -194.15 Q166.0 -195.2 165.55 -195.55 M169.3 -191.25 L167.55 -191.25 169.3 -191.25 M169.05 -187.85 L167.6 -187.5 169.05 -187.85 M169.45 -189.4 L167.7 -189.25 169.45 -189.4 M168.85 -193.1 L166.75 -193.25 168.85 -193.1 M166.4 -185.05 Q166.8 -185.45 167.0 -186.4 L167.15 -186.9 Q167.4 -188.4 167.3 -190.3 L166.75 -193.25 167.3 -190.3 Q167.4 -188.4 167.15 -186.9 L167.0 -186.4 Q166.8 -185.45 166.4 -185.05" fill="#828282" fill-rule="evenodd" stroke="none"/>
    <path d="M165.55 -195.55 L167.95 -194.7 168.8 -194.4 169.5 -193.55 Q170.25 -192.35 170.35 -190.5 170.5 -188.7 169.95 -187.35 L169.25 -186.35 169.0 -186.2 168.85 -186.15 166.4 -185.05 166.15 -184.75 M166.75 -193.25 L168.85 -193.1 M167.7 -189.25 L169.45 -189.4 M167.6 -187.5 L169.05 -187.85 M167.55 -191.25 L169.3 -191.25" fill="none" stroke="#333333" stroke-linecap="round" stroke-linejoin="round" stroke-width="1.0"/>
    <path d="M166.15 -184.75 L165.8 -184.65 Q165.05 -184.6 164.4 -186.2 163.75 -187.7 163.55 -190.0 163.4 -192.35 163.85 -193.95 164.2 -195.65 164.95 -195.7 L165.55 -195.55 Q166.0 -195.2 166.45 -194.15 L166.65 -193.65 166.75 -193.25 167.3 -190.3 Q167.4 -188.4 167.15 -186.9 L167.0 -186.4 Q166.8 -185.45 166.4 -185.05" fill="none" stroke="#333333" stroke-linecap="round" stroke-linejoin="round" stroke-width="1.0"/>
    <path d="M163.1 -177.5 Q158.75 -172.45 152.1 -172.0 L147.1 -172.3 136.1 -159.55 Q135.85 -159.25 135.45 -159.25 135.0 -159.2 134.7 -159.45 L125.05 -167.75 Q124.75 -168.0 124.7 -168.45 L124.95 -169.15 135.9 -181.9 Q135.0 -184.2 134.8 -186.85 134.3 -193.5 138.65 -198.55 143.0 -203.65 149.65 -204.15 156.3 -204.65 161.35 -200.25 166.45 -195.9 166.95 -189.3 167.45 -182.6 163.1 -177.5 M136.5 -190.05 Q135.55 -184.0 139.6 -178.9 L140.75 -179.05 140.0 -182.1 139.9 -182.3 139.7 -182.35 139.7 -189.65 142.4 -195.9 146.45 -200.6 148.55 -202.2 Q147.05 -202.65 145.3 -201.85 140.5 -199.8 138.2 -195.3 L137.75 -195.35 137.4 -194.95 136.8 -194.2 136.75 -193.95 Q136.4 -193.3 137.1 -192.8 L137.2 -192.75 137.15 -192.6 136.65 -191.0 136.4 -190.75 Q136.25 -190.3 136.5 -190.05 M135.9 -181.9 Q137.3 -178.45 140.35 -175.8 143.4 -173.2 147.1 -172.3 143.4 -173.2 140.35 -175.8 137.3 -178.45 135.9 -181.9 M135.2 -179.35 L134.45 -178.7 Q131.75 -175.75 129.6 -172.5 129.7 -171.25 130.95 -171.2 L132.45 -172.4 133.9 -173.55 Q137.05 -175.7 136.2 -179.2 L135.95 -179.3 135.2 -179.35" fill="#555555" fill-rule="evenodd" stroke="none"/>
    <path d="M138.2 -195.3 Q140.5 -199.8 145.3 -201.85 147.05 -202.65 148.55 -202.2 L146.45 -200.6 142.4 -195.9 139.7 -189.65 139.7 -182.35 139.9 -182.3 140.0 -182.1 140.75 -179.05 139.6 -178.9 Q135.55 -184.0 136.5 -190.05 L136.6 -190.0 136.85 -189.85 137.05 -189.9 137.4 -190.0 137.5 -190.1 Q137.65 -190.6 137.4 -190.9 L137.15 -191.0 136.65 -191.0 137.15 -192.6 137.2 -192.75 137.35 -192.8 137.85 -192.85 138.2 -193.25 138.85 -194.0 138.8 -194.2 138.5 -195.25 138.25 -195.35 138.2 -195.3 M141.35 -196.65 L141.35 -196.9 141.15 -197.1 141.05 -197.05 140.9 -197.0 140.5 -196.9 Q140.4 -196.4 140.85 -196.35 L141.1 -196.4 141.25 -196.5 141.35 -196.65 M135.2 -179.35 L135.95 -179.3 136.2 -179.2 Q137.05 -175.7 133.9 -173.55 L132.45 -172.4 130.95 -171.2 Q129.7 -171.25 129.6 -172.5 131.75 -175.75 134.45 -178.7 L135.2 -179.35" fill="#9a9a9a" fill-rule="evenodd" stroke="none"/>
    <path d="M138.2 -195.3 L138.25 -195.35 138.5 -195.25 138.8 -194.2 138.85 -194.0 138.2 -193.25 137.85 -192.85 137.35 -192.8 137.2 -192.75 137.1 -192.8 Q136.4 -193.3 136.75 -193.95 L136.8 -194.2 137.4 -194.95 137.75 -195.35 138.2 -195.3 M136.65 -191.0 L137.15 -191.0 137.4 -190.9 Q137.65 -190.6 137.5 -190.1 L137.4 -190.0 137.05 -189.9 136.85 -189.85 136.6 -190.0 136.5 -190.05 Q136.25 -190.3 136.4 -190.75 L136.65 -191.0 M141.35 -196.65 L141.25 -196.5 141.1 -196.4 140.85 -196.35 Q140.4 -196.4 140.5 -196.9 L140.9 -197.0 141.05 -197.05 141.15 -197.1 141.35 -196.9 141.35 -196.65" fill="#ffffff" fill-rule="evenodd" stroke="none"/>
    <path d="M163.1 -177.5 Q158.75 -172.45 152.1 -172.0 L147.1 -172.3 136.1 -159.55 Q135.85 -159.25 135.45 -159.25 135.0 -159.2 134.7 -159.45 L125.05 -167.75 Q124.75 -168.0 124.7 -168.45 L124.95 -169.15 135.9 -181.9 Q135.0 -184.2 134.8 -186.85 134.3 -193.5 138.65 -198.55 143.0 -203.65 149.65 -204.15 156.3 -204.65 161.35 -200.25 166.45 -195.9 166.95 -189.3 167.45 -182.6 163.1 -177.5 M147.1 -172.3 Q143.4 -173.2 140.35 -175.8 137.3 -178.45 135.9 -181.9" fill="none" stroke="#333333" stroke-linecap="round" stroke-linejoin="round" stroke-width="1.0"/>
    <path d="M163.5 -195.0 L162.8 -192.45 162.65 -191.45 162.45 -191.25 Q161.65 -190.3 159.55 -191.0 157.4 -191.6 155.25 -193.45 153.1 -195.3 152.15 -197.35 151.2 -199.3 152.0 -200.25 152.45 -200.75 153.35 -200.75 L155.6 -201.75 Q156.25 -202.55 157.9 -202.15 159.5 -201.7 161.1 -200.3 162.75 -198.9 163.4 -197.4 164.05 -195.9 163.5 -195.15 L163.4 -195.05 163.5 -195.0 M159.45 -192.55 L160.45 -194.9 161.1 -194.7 162.15 -194.5 Q162.95 -194.5 163.4 -195.05 162.95 -194.5 162.15 -194.5 L161.1 -194.7 160.45 -194.9 159.45 -192.55 M160.7 -196.45 L161.95 -196.55 Q162.35 -196.95 161.9 -197.85 L160.4 -199.55 158.5 -200.75 157.2 -200.65 Q156.85 -200.2 157.3 -199.35 157.75 -198.45 158.7 -197.6 159.7 -196.75 160.7 -196.45 M155.75 -198.4 L155.75 -198.7 155.65 -198.75 155.5 -198.9 155.45 -198.85 154.7 -198.8 154.55 -198.65 153.65 -198.05 153.75 -197.7 154.5 -197.75 154.65 -197.9 154.75 -198.05 155.05 -198.1 155.75 -198.4 M154.5 -196.0 L156.65 -197.75 157.85 -196.5 158.4 -196.05 156.95 -193.85 158.4 -196.05 157.85 -196.5 156.65 -197.75 154.5 -196.0 M156.7 -197.2 L156.6 -197.15 156.45 -197.1 156.25 -196.85 156.0 -196.8 155.8 -196.7 155.7 -196.55 155.55 -196.4 155.3 -196.35 155.05 -196.15 155.15 -195.9 Q156.3 -195.7 156.9 -196.7 L156.9 -197.0 156.7 -197.2 M155.6 -201.75 Q155.15 -201.2 155.3 -200.45 L155.6 -199.45 156.65 -197.75 155.6 -199.45 155.3 -200.45 Q155.15 -201.2 155.6 -201.75 M154.9 -200.75 L154.6 -201.0 154.4 -200.95 153.85 -200.9 153.55 -200.65 152.75 -200.1 152.95 -199.8 154.55 -200.0 154.8 -200.35 154.9 -200.45 154.9 -200.75 M158.4 -196.05 Q159.45 -195.3 160.45 -194.9 159.45 -195.3 158.4 -196.05 M152.9 -198.15 L155.0 -199.35 152.9 -198.15" fill="#828282" fill-rule="evenodd" stroke="none"/>
    <path d="M160.7 -196.45 Q159.7 -196.75 158.7 -197.6 157.75 -198.45 157.3 -199.35 156.85 -200.2 157.2 -200.65 L158.5 -200.75 160.4 -199.55 161.9 -197.85 Q162.35 -196.95 161.95 -196.55 L160.7 -196.45" fill="#333333" fill-rule="evenodd" stroke="none"/>
    <path d="M155.75 -198.4 L155.05 -198.1 154.75 -198.05 154.65 -197.9 154.5 -197.75 153.75 -197.7 153.65 -198.05 154.55 -198.65 154.7 -198.8 155.45 -198.85 155.5 -198.9 155.65 -198.75 155.75 -198.7 155.75 -198.4 M156.7 -197.2 L156.9 -197.0 156.9 -196.7 Q156.3 -195.7 155.15 -195.9 L155.05 -196.15 155.3 -196.35 155.55 -196.4 155.7 -196.55 155.8 -196.7 156.0 -196.8 156.25 -196.85 156.45 -197.1 156.6 -197.15 156.7 -197.2 M154.9 -200.75 L154.9 -200.45 154.8 -200.35 154.55 -200.0 152.95 -199.8 152.75 -200.1 153.55 -200.65 153.85 -200.9 154.4 -200.95 154.6 -201.0 154.9 -200.75" fill="#ffffff" fill-rule="evenodd" stroke="none"/>
    <path d="M163.5 -195.0 L162.8 -192.45 162.65 -191.45 162.45 -191.25 Q161.65 -190.3 159.55 -191.0 157.4 -191.6 155.25 -193.45 153.1 -195.3 152.15 -197.35 151.2 -199.3 152.0 -200.25 152.45 -200.75 153.35 -200.75 L155.6 -201.75 Q156.25 -202.55 157.9 -202.15 159.5 -201.7 161.1 -200.3 162.75 -198.9 163.4 -197.4 164.05 -195.9 163.5 -195.15 L163.5 -195.0 M163.4 -195.05 Q162.95 -194.5 162.15 -194.5 L161.1 -194.7 160.45 -194.9 159.45 -192.55 M163.5 -195.15 L163.4 -195.05 M160.7 -196.45 Q159.7 -196.75 158.7 -197.6 157.75 -198.45 157.3 -199.35 156.85 -200.2 157.2 -200.65 L158.5 -200.75 160.4 -199.55 161.9 -197.85 Q162.35 -196.95 161.95 -196.55 L160.7 -196.45 M156.95 -193.85 L158.4 -196.05 157.85 -196.5 156.65 -197.75 154.5 -196.0 M156.65 -197.75 L155.6 -199.45 155.3 -200.45 Q155.15 -201.2 155.6 -201.75 M155.0 -199.35 L152.9 -198.15 M160.45 -194.9 Q159.45 -195.3 158.4 -196.05" fill="none" stroke="#333333" stroke-linecap="round" stroke-linejoin="round" stroke-width="1.0"/>
    <path d="M71.35 -122.2 L72.8 -122.0 Q73.5 -121.55 73.8 -120.7 L74.0 -120.1 79.95 -100.95 67.55 -112.2 65.65 -118.2 Q65.4 -119.0 65.75 -119.8 66.1 -120.6 66.85 -120.8 L71.35 -122.2 M66.9 -119.55 Q66.6 -119.25 66.65 -118.8 L66.9 -118.25 67.0 -118.05 67.25 -118.1 Q67.55 -119.0 68.4 -119.3 L68.45 -119.55 68.45 -119.8 68.35 -119.9 68.15 -120.1 67.35 -119.9 66.9 -119.55" fill="#965c18" fill-rule="evenodd" stroke="none"/>
    <path d="M66.9 -119.55 L67.35 -119.9 68.15 -120.1 68.35 -119.9 68.45 -119.8 68.45 -119.55 68.4 -119.3 Q67.55 -119.0 67.25 -118.1 L67.0 -118.05 66.9 -118.25 66.65 -118.8 Q66.6 -119.25 66.9 -119.55" fill="#ffffff" fill-rule="evenodd" stroke="none"/>
    <path d="M79.95 -100.95 L74.0 -120.1 73.8 -120.7 Q73.5 -121.55 72.8 -122.0 L71.35 -122.2" fill="none" stroke="#714113" stroke-linecap="round" stroke-linejoin="round" stroke-width="1.0"/>
    <path d="M71.35 -122.2 L66.85 -120.8 Q66.1 -120.6 65.75 -119.8 65.4 -119.0 65.65 -118.2 L67.55 -112.2" fill="none" stroke="#492b0c" stroke-linecap="round" stroke-linejoin="round" stroke-width="1.0"/>
    <path d="M126.0 -174.85 L74.0 -120.1" fill="none" stroke="#000000" stroke-linecap="round" stroke-linejoin="round" stroke-width="1.0"/>
    <path d="M77.45 -129.1 L78.9 -128.85 Q79.65 -128.4 79.9 -127.6 L87.0 -104.9 Q87.25 -104.05 86.9 -103.3 86.6 -102.5 85.85 -102.3 L81.35 -100.9 79.9 -101.1 Q79.15 -101.5 78.9 -102.35 L71.8 -125.05 Q71.55 -125.85 71.9 -126.65 72.25 -127.45 72.95 -127.7 L77.45 -129.1 M74.55 -126.65 L74.45 -126.8 74.3 -126.95 73.45 -126.75 73.1 -126.4 Q72.75 -126.1 72.85 -125.65 L73.0 -125.05 73.1 -124.9 73.4 -124.95 Q73.75 -125.9 74.55 -126.2 L74.55 -126.45 74.55 -126.65" fill="#965c18" fill-rule="evenodd" stroke="none"/>
    <path d="M74.55 -126.65 L74.55 -126.45 74.55 -126.2 Q73.75 -125.9 73.4 -124.95 L73.1 -124.9 73.0 -125.05 72.85 -125.65 Q72.75 -126.1 73.1 -126.4 L73.45 -126.75 74.3 -126.95 74.45 -126.8 74.55 -126.65" fill="#ffffff" fill-rule="evenodd" stroke="none"/>
    <path d="M78.9 -102.35 Q79.15 -101.5 79.9 -101.1 L81.35 -100.9 85.85 -102.3 Q86.6 -102.5 86.9 -103.3 87.25 -104.05 87.0 -104.9 L79.9 -127.6 Q79.65 -128.4 78.9 -128.85 L77.45 -129.1" fill="none" stroke="#714113" stroke-linecap="round" stroke-linejoin="round" stroke-width="1.0"/>
    <path d="M77.45 -129.1 L72.95 -127.7 Q72.25 -127.45 71.9 -126.65 71.55 -125.85 71.8 -125.05 L78.9 -102.35" fill="none" stroke="#492b0c" stroke-linecap="round" stroke-linejoin="round" stroke-width="1.0"/>
    <path d="M84.55 -135.0 L86.0 -134.75 Q86.75 -134.3 87.0 -133.5 L94.1 -110.8 Q94.35 -109.95 94.0 -109.2 93.7 -108.4 92.95 -108.2 L88.45 -106.8 Q87.75 -106.55 87.0 -107.0 86.25 -107.4 86.0 -108.25 L78.9 -130.95 Q78.65 -131.75 79.0 -132.55 79.35 -133.35 80.05 -133.6 L84.55 -135.0 M81.65 -132.55 L81.55 -132.7 81.4 -132.85 80.55 -132.65 80.2 -132.3 Q79.85 -132.0 79.95 -131.55 L80.1 -130.95 80.2 -130.8 80.5 -130.85 Q80.85 -131.8 81.65 -132.1 L81.65 -132.35 81.65 -132.55" fill="#965c18" fill-rule="evenodd" stroke="none"/>
    <path d="M81.65 -132.55 L81.65 -132.35 81.65 -132.1 Q80.85 -131.8 80.5 -130.85 L80.2 -130.8 80.1 -130.95 79.95 -131.55 Q79.85 -132.0 80.2 -132.3 L80.55 -132.65 81.4 -132.85 81.55 -132.7 81.65 -132.55" fill="#ffffff" fill-rule="evenodd" stroke="none"/>
    <path d="M86.0 -108.25 Q86.25 -107.4 87.0 -107.0 87.75 -106.55 88.45 -106.8 L92.95 -108.2 Q93.7 -108.4 94.0 -109.2 94.35 -109.95 94.1 -110.8 L87.0 -133.5 Q86.75 -134.3 86.0 -134.75 L84.55 -135.0" fill="none" stroke="#714113" stroke-linecap="round" stroke-linejoin="round" stroke-width="1.0"/>
    <path d="M84.55 -135.0 L80.05 -133.6 Q79.35 -133.35 79.0 -132.55 78.65 -131.75 78.9 -130.95 L86.0 -108.25" fill="none" stroke="#492b0c" stroke-linecap="round" stroke-linejoin="round" stroke-width="1.0"/>
    <path d="M91.8 -142.25 L93.25 -142.0 Q94.0 -141.55 94.25 -140.75 L101.35 -118.05 Q101.6 -117.2 101.25 -116.45 100.95 -115.65 100.2 -115.45 L95.7 -114.05 Q95.0 -113.8 94.25 -114.25 93.5 -114.65 93.25 -115.5 L86.15 -138.2 Q85.9 -139.0 86.25 -139.8 86.6 -140.6 87.3 -140.85 L91.8 -142.25 M88.9 -139.8 L88.8 -139.95 88.65 -140.1 87.8 -139.9 87.45 -139.55 Q87.1 -139.25 87.2 -138.8 L87.35 -138.2 87.45 -138.05 87.75 -138.1 Q88.1 -139.05 88.9 -139.35 L88.9 -139.6 88.9 -139.8" fill="#965c18" fill-rule="evenodd" stroke="none"/>
    <path d="M88.9 -139.8 L88.9 -139.6 88.9 -139.35 Q88.1 -139.05 87.75 -138.1 L87.45 -138.05 87.35 -138.2 87.2 -138.8 Q87.1 -139.25 87.45 -139.55 L87.8 -139.9 88.65 -140.1 88.8 -139.95 88.9 -139.8" fill="#ffffff" fill-rule="evenodd" stroke="none"/>
    <path d="M93.25 -115.5 Q93.5 -114.65 94.25 -114.25 95.0 -113.8 95.7 -114.05 L100.2 -115.45 Q100.95 -115.65 101.25 -116.45 101.6 -117.2 101.35 -118.05 L94.25 -140.75 Q94.0 -141.55 93.25 -142.0 L91.8 -142.25" fill="none" stroke="#714113" stroke-linecap="round" stroke-linejoin="round" stroke-width="1.0"/>
    <path d="M91.8 -142.25 L87.3 -140.85 Q86.6 -140.6 86.25 -139.8 85.9 -139.0 86.15 -138.2 L93.25 -115.5" fill="none" stroke="#492b0c" stroke-linecap="round" stroke-linejoin="round" stroke-width="1.0"/>
    <path d="M98.55 -148.0 L100.0 -147.75 Q100.75 -147.3 101.0 -146.5 L108.1 -123.8 Q108.35 -122.95 108.0 -122.2 107.7 -121.4 106.95 -121.2 L102.45 -119.8 Q101.75 -119.55 101.0 -120.0 100.25 -120.4 100.0 -121.25 L92.9 -143.95 Q92.65 -144.75 93.0 -145.55 93.35 -146.35 94.05 -146.6 L98.55 -148.0 M95.65 -145.55 L95.55 -145.7 95.4 -145.85 94.55 -145.65 94.2 -145.3 Q93.85 -145.0 93.95 -144.55 L94.1 -143.95 94.2 -143.8 94.5 -143.85 Q94.85 -144.8 95.65 -145.1 L95.65 -145.35 95.65 -145.55" fill="#965c18" fill-rule="evenodd" stroke="none"/>
    <path d="M95.65 -145.55 L95.65 -145.35 95.65 -145.1 Q94.85 -144.8 94.5 -143.85 L94.2 -143.8 94.1 -143.95 93.95 -144.55 Q93.85 -145.0 94.2 -145.3 L94.55 -145.65 95.4 -145.85 95.55 -145.7 95.65 -145.55" fill="#ffffff" fill-rule="evenodd" stroke="none"/>
    <path d="M100.0 -121.25 Q100.25 -120.4 101.0 -120.0 101.75 -119.55 102.45 -119.8 L106.95 -121.2 Q107.7 -121.4 108.0 -122.2 108.35 -122.95 108.1 -123.8 L101.0 -146.5 Q100.75 -147.3 100.0 -147.75 L98.55 -148.0" fill="none" stroke="#714113" stroke-linecap="round" stroke-linejoin="round" stroke-width="1.0"/>
    <path d="M98.55 -148.0 L94.05 -146.6 Q93.35 -146.35 93.0 -145.55 92.65 -144.75 92.9 -143.95 L100.0 -121.25" fill="none" stroke="#492b0c" stroke-linecap="round" stroke-linejoin="round" stroke-width="1.0"/>
    <path d="M105.05 -155.25 L106.5 -155.0 Q107.25 -154.55 107.5 -153.75 L114.6 -131.05 Q114.85 -130.2 114.5 -129.45 114.2 -128.65 113.45 -128.45 L108.95 -127.05 Q108.25 -126.8 107.5 -127.25 106.75 -127.65 106.5 -128.5 L99.4 -151.2 Q99.15 -152.0 99.5 -152.8 99.85 -153.6 100.55 -153.85 L105.05 -155.25 M102.15 -152.8 L102.05 -152.95 101.9 -153.1 101.05 -152.9 100.7 -152.55 Q100.35 -152.25 100.45 -151.8 L100.6 -151.2 100.7 -151.05 101.0 -151.1 Q101.35 -152.05 102.15 -152.35 L102.15 -152.6 102.15 -152.8" fill="#965c18" fill-rule="evenodd" stroke="none"/>
    <path d="M102.15 -152.8 L102.15 -152.6 102.15 -152.35 Q101.35 -152.05 101.0 -151.1 L100.7 -151.05 100.6 -151.2 100.45 -151.8 Q100.35 -152.25 100.7 -152.55 L101.05 -152.9 101.9 -153.1 102.05 -152.95 102.15 -152.8" fill="#ffffff" fill-rule="evenodd" stroke="none"/>
    <path d="M106.5 -128.5 Q106.75 -127.65 107.5 -127.25 108.25 -126.8 108.95 -127.05 L113.45 -128.45 Q114.2 -128.65 114.5 -129.45 114.85 -130.2 114.6 -131.05 L107.5 -153.75 Q107.25 -154.55 106.5 -155.0 L105.05 -155.25" fill="none" stroke="#714113" stroke-linecap="round" stroke-linejoin="round" stroke-width="1.0"/>
    <path d="M105.05 -155.25 L100.55 -153.85 Q99.85 -153.6 99.5 -152.8 99.15 -152.0 99.4 -151.2 L106.5 -128.5" fill="none" stroke="#492b0c" stroke-linecap="round" stroke-linejoin="round" stroke-width="1.0"/>
    <path d="M111.8 -162.0 L113.25 -161.75 Q114.0 -161.3 114.25 -160.5 L121.35 -137.8 Q121.6 -136.95 121.25 -136.2 120.95 -135.4 120.2 -135.2 L115.7 -133.8 Q115.0 -133.55 114.25 -134.0 113.5 -134.4 113.25 -135.25 L106.15 -157.95 Q105.9 -158.75 106.25 -159.55 106.6 -160.35 107.3 -160.6 L111.8 -162.0 M108.9 -159.55 L108.8 -159.7 108.65 -159.85 107.8 -159.65 107.45 -159.3 Q107.1 -159.0 107.2 -158.55 L107.35 -157.95 107.45 -157.8 107.75 -157.85 Q108.1 -158.8 108.9 -159.1 L108.9 -159.35 108.9 -159.55" fill="#965c18" fill-rule="evenodd" stroke="none"/>
    <path d="M108.9 -159.55 L108.9 -159.35 108.9 -159.1 Q108.1 -158.8 107.75 -157.85 L107.45 -157.8 107.35 -157.95 107.2 -158.55 Q107.1 -159.0 107.45 -159.3 L107.8 -159.65 108.65 -159.85 108.8 -159.7 108.9 -159.55" fill="#ffffff" fill-rule="evenodd" stroke="none"/>
    <path d="M113.25 -135.25 Q113.5 -134.4 114.25 -134.0 115.0 -133.55 115.7 -133.8 L120.2 -135.2 Q120.95 -135.4 121.25 -136.2 121.6 -136.95 121.35 -137.8 L114.25 -160.5 Q114.0 -161.3 113.25 -161.75 L111.8 -162.0" fill="none" stroke="#714113" stroke-linecap="round" stroke-linejoin="round" stroke-width="1.0"/>
    <path d="M111.8 -162.0 L107.3 -160.6 Q106.6 -160.35 106.25 -159.55 105.9 -158.75 106.15 -157.95 L113.25 -135.25" fill="none" stroke="#492b0c" stroke-linecap="round" stroke-linejoin="round" stroke-width="1.0"/>
    <path d="M118.3 -168.75 L119.75 -168.5 Q120.5 -168.05 120.75 -167.25 L127.85 -144.55 Q128.1 -143.7 127.75 -142.95 127.45 -142.15 126.7 -141.95 L122.2 -140.55 Q121.5 -140.3 120.75 -140.75 120.0 -141.15 119.75 -142.0 L112.65 -164.7 Q112.4 -165.5 112.75 -166.3 113.1 -167.1 113.8 -167.35 L118.3 -168.75 M115.4 -166.3 L115.3 -166.45 115.15 -166.6 114.3 -166.4 113.95 -166.05 Q113.6 -165.75 113.7 -165.3 L113.85 -164.7 113.95 -164.55 114.25 -164.6 Q114.6 -165.55 115.4 -165.85 L115.4 -166.1 115.4 -166.3" fill="#965c18" fill-rule="evenodd" stroke="none"/>
    <path d="M115.4 -166.3 L115.4 -166.1 115.4 -165.85 Q114.6 -165.55 114.25 -164.6 L113.95 -164.55 113.85 -164.7 113.7 -165.3 Q113.6 -165.75 113.95 -166.05 L114.3 -166.4 115.15 -166.6 115.3 -166.45 115.4 -166.3" fill="#ffffff" fill-rule="evenodd" stroke="none"/>
    <path d="M119.75 -142.0 Q120.0 -141.15 120.75 -140.75 121.5 -140.3 122.2 -140.55 L126.7 -141.95 Q127.45 -142.15 127.75 -142.95 128.1 -143.7 127.85 -144.55 L120.75 -167.25 Q120.5 -168.05 119.75 -168.5 L118.3 -168.75" fill="none" stroke="#714113" stroke-linecap="round" stroke-linejoin="round" stroke-width="1.0"/>
    <path d="M118.3 -168.75 L113.8 -167.35 Q113.1 -167.1 112.75 -166.3 112.4 -165.5 112.65 -164.7 L119.75 -142.0" fill="none" stroke="#492b0c" stroke-linecap="round" stroke-linejoin="round" stroke-width="1.0"/>
    <path d="M124.05 -176.0 L125.5 -175.75 Q126.25 -175.3 126.5 -174.5 L133.6 -151.8 Q133.85 -150.95 133.5 -150.2 133.2 -149.4 132.45 -149.2 L127.95 -147.8 Q127.25 -147.55 126.5 -148.0 125.75 -148.4 125.5 -149.25 L118.4 -171.95 Q118.15 -172.75 118.5 -173.55 118.85 -174.35 119.55 -174.6 L124.05 -176.0 M121.15 -173.55 L121.05 -173.7 120.9 -173.85 120.05 -173.65 119.7 -173.3 Q119.35 -173.0 119.45 -172.55 L119.6 -171.95 119.7 -171.8 120.0 -171.85 Q120.35 -172.8 121.15 -173.1 L121.15 -173.35 121.15 -173.55" fill="#965c18" fill-rule="evenodd" stroke="none"/>
    <path d="M121.15 -173.55 L121.15 -173.35 121.15 -173.1 Q120.35 -172.8 120.0 -171.85 L119.7 -171.8 119.6 -171.95 119.45 -172.55 Q119.35 -173.0 119.7 -173.3 L120.05 -173.65 120.9 -173.85 121.05 -173.7 121.15 -173.55" fill="#ffffff" fill-rule="evenodd" stroke="none"/>
    <path d="M125.5 -149.25 Q125.75 -148.4 126.5 -148.0 127.25 -147.55 127.95 -147.8 L132.45 -149.2 Q133.2 -149.4 133.5 -150.2 133.85 -150.95 133.6 -151.8 L126.5 -174.5 Q126.25 -175.3 125.5 -175.75 L124.05 -176.0" fill="none" stroke="#714113" stroke-linecap="round" stroke-linejoin="round" stroke-width="1.0"/>
    <path d="M124.05 -176.0 L119.55 -174.6 Q118.85 -174.35 118.5 -173.55 118.15 -172.75 118.4 -171.95 L125.5 -149.25" fill="none" stroke="#492b0c" stroke-linecap="round" stroke-linejoin="round" stroke-width="1.0"/>
    <path d="M131.55 -182.5 L133.0 -182.25 Q133.75 -181.8 134.0 -181.0 L141.1 -158.3 Q141.35 -157.45 141.0 -156.7 140.7 -155.9 139.95 -155.7 L135.45 -154.3 Q134.75 -154.05 134.0 -154.5 133.25 -154.9 133.0 -155.75 L125.9 -178.45 Q125.65 -179.25 126.0 -180.05 126.35 -180.85 127.05 -181.1 L131.55 -182.5 M128.65 -180.05 L128.55 -180.2 128.4 -180.35 127.55 -180.15 127.2 -179.8 Q126.85 -179.5 126.95 -179.05 L127.1 -178.45 127.2 -178.3 127.5 -178.35 Q127.85 -179.3 128.65 -179.6 L128.65 -179.85 128.65 -180.05" fill="#965c18" fill-rule="evenodd" stroke="none"/>
    <path d="M128.65 -180.05 L128.65 -179.85 128.65 -179.6 Q127.85 -179.3 127.5 -178.35 L127.2 -178.3 127.1 -178.45 126.95 -179.05 Q126.85 -179.5 127.2 -179.8 L127.55 -180.15 128.4 -180.35 128.55 -180.2 128.65 -180.05" fill="#ffffff" fill-rule="evenodd" stroke="none"/>
    <path d="M133.0 -155.75 Q133.25 -154.9 134.0 -154.5 134.75 -154.05 135.45 -154.3 L139.95 -155.7 Q140.7 -155.9 141.0 -156.7 141.35 -157.45 141.1 -158.3 L134.0 -181.0 Q133.75 -181.8 133.0 -182.25 L131.55 -182.5" fill="none" stroke="#714113" stroke-linecap="round" stroke-linejoin="round" stroke-width="1.0"/>
    <path d="M131.55 -182.5 L127.05 -181.1 Q126.35 -180.85 126.0 -180.05 125.65 -179.25 125.9 -178.45 L133.0 -155.75" fill="none" stroke="#492b0c" stroke-linecap="round" stroke-linejoin="round" stroke-width="1.0"/>
    <path d="M87.15 -106.45 L87.5 -106.1 87.8 -105.75 Q87.4 -105.05 86.3 -105.3 L86.25 -105.15 86.2 -105.0 Q85.0 -104.9 83.95 -104.35 L83.35 -104.0 83.05 -103.95 82.8 -103.9 82.5 -103.1 82.3 -102.75 82.05 -102.35 81.85 -102.0 81.3 -102.0 80.7 -102.4 80.7 -103.15 80.75 -103.5 80.85 -103.9 80.95 -104.65 81.3 -105.2 81.35 -105.4 81.4 -105.55 81.45 -105.75 81.5 -105.95 81.85 -106.5 81.9 -106.7 81.95 -106.85 82.05 -106.95 82.25 -107.05 85.3 -106.6 87.0 -106.5 87.15 -106.45 87.0 -106.5 87.1 -106.5 87.15 -106.45 M70.95 -116.4 L71.6 -116.8 71.65 -117.2 71.7 -117.4 71.9 -117.75 72.0 -117.95 72.25 -118.0 72.35 -118.0 72.5 -117.8 72.55 -117.65 72.85 -117.65 72.95 -117.75 73.0 -117.95 73.25 -118.05 73.6 -118.0 74.55 -117.3 75.55 -117.15 77.0 -117.0 77.25 -116.85 77.0 -117.0 77.1 -117.0 77.25 -116.85 77.3 -116.8 77.3 -116.45 77.35 -116.25 77.8 -115.5 77.7 -115.35 77.5 -115.2 77.05 -115.25 76.85 -115.45 Q71.3 -115.7 66.95 -112.25 L66.55 -112.05 66.5 -111.9 66.35 -111.7 66.1 -111.5 65.65 -111.5 65.3 -111.6 65.2 -111.7 65.3 -111.8 65.55 -112.0 65.85 -112.25 65.55 -112.25 Q65.2 -112.45 65.2 -112.8 L65.15 -112.85 64.85 -112.75 64.3 -112.75 64.2 -113.15 64.2 -113.3 63.75 -114.05 63.65 -114.65 63.7 -114.8 64.0 -115.2 64.35 -115.25 65.15 -115.0 65.5 -114.7 65.8 -114.5 65.5 -114.7 65.15 -115.0 65.6 -115.0 Q65.95 -114.8 65.8 -114.5 L65.7 -114.45 66.2 -114.4 66.75 -114.4 69.95 -115.25 70.65 -115.75 70.85 -116.15 70.95 -116.4 70.85 -116.15 70.65 -115.75 69.95 -115.25 66.75 -114.4 66.2 -114.4 66.3 -114.5 66.55 -114.65 66.65 -114.75 66.75 -114.95 67.1 -115.0 67.35 -114.9 67.75 -114.95 Q68.5 -115.6 69.5 -115.75 L69.6 -115.75 69.75 -115.55 70.95 -116.4 M72.75 -112.25 L72.55 -112.25 72.3 -111.9 Q71.45 -110.55 70.0 -109.7 L69.9 -109.5 69.7 -109.1 69.7 -108.95 69.85 -108.8 70.2 -108.65 70.2 -108.45 70.3 -108.25 70.75 -108.2 71.1 -108.5 74.05 -111.7 73.95 -111.85 Q73.5 -112.3 72.85 -112.3 L72.75 -112.25 M69.3 -121.7 L67.0 -119.8 66.6 -118.85 66.55 -118.5 66.45 -118.35 66.3 -118.15 Q66.0 -117.25 66.05 -116.25 L66.05 -115.5 65.55 -115.25 65.45 -115.45 65.45 -115.65 65.05 -115.75 Q64.85 -116.2 64.9 -116.7 L64.95 -117.25 64.25 -118.8 64.2 -119.15 64.0 -119.3 63.9 -120.8 63.95 -121.4 64.1 -121.55 64.3 -121.75 Q66.3 -122.15 68.1 -123.0 L69.2 -121.85 69.3 -121.7 M68.25 -109.2 L73.0 -113.95 79.05 -107.95 74.6 -103.5 68.25 -109.2" fill="#828282" fill-rule="evenodd" stroke="none"/>
    <path d="M87.0 -106.5 L85.3 -106.6 82.25 -107.05 82.05 -106.95 81.95 -106.85 81.9 -106.7 81.85 -106.5 81.5 -105.95 81.45 -105.75 81.4 -105.55 81.35 -105.4 81.3 -105.2 80.95 -104.65 80.85 -103.9 80.75 -103.5 80.7 -103.15 80.7 -102.4 81.3 -102.0 81.85 -102.0 82.05 -102.35 82.3 -102.75 82.5 -103.1 82.8 -103.9 83.05 -103.95 83.35 -104.0 83.95 -104.35 Q85.0 -104.9 86.2 -105.0 L86.25 -105.15 86.3 -105.3 Q87.4 -105.05 87.8 -105.75 L87.5 -106.1 87.15 -106.45 87.2 -106.45 Q88.0 -106.3 88.5 -105.7 88.95 -105.1 88.85 -104.45 L88.15 -101.2 Q88.0 -100.6 87.3 -100.25 L85.85 -100.05 82.35 -100.8 81.85 -100.9 Q81.05 -101.05 80.6 -101.65 80.1 -102.25 80.25 -102.9 L80.9 -106.15 Q81.05 -106.8 81.75 -107.1 L83.2 -107.3 83.55 -107.2 83.2 -107.3 81.75 -107.1 Q81.05 -106.8 80.9 -106.15 L80.25 -102.9 Q80.1 -102.25 80.6 -101.65 81.05 -101.05 81.85 -100.9 L82.35 -100.8 Q81.65 -99.4 80.55 -98.2 L74.6 -103.5 79.05 -107.95 73.0 -113.95 68.25 -109.2 65.65 -111.5 66.1 -111.5 66.35 -111.7 66.5 -111.9 66.55 -112.05 66.95 -112.25 Q71.3 -115.7 76.85 -115.45 L77.05 -115.25 77.5 -115.2 77.7 -115.35 77.8 -115.5 77.35 -116.25 77.3 -116.45 77.3 -116.8 77.25 -116.85 Q78.75 -116.05 80.05 -114.75 81.55 -113.25 82.4 -111.5 83.4 -109.5 83.55 -107.2 L87.0 -106.5 M77.0 -117.0 L75.55 -117.15 74.55 -117.3 73.6 -118.0 73.25 -118.05 73.0 -117.95 72.95 -117.75 72.85 -117.65 72.55 -117.65 72.5 -117.8 72.35 -118.0 72.25 -118.0 72.0 -117.95 71.9 -117.75 71.7 -117.4 71.65 -117.2 71.6 -116.8 70.95 -116.4 Q71.15 -117.0 71.0 -117.6 L70.85 -118.2 71.0 -117.6 Q71.15 -117.0 70.95 -116.4 L69.75 -115.55 69.6 -115.75 69.5 -115.75 Q68.5 -115.6 67.75 -114.95 L67.35 -114.9 67.1 -115.0 66.75 -114.95 66.65 -114.75 66.55 -114.65 66.3 -114.5 66.2 -114.4 65.7 -114.45 65.8 -114.5 Q65.95 -114.8 65.6 -115.0 L65.15 -115.0 64.35 -115.25 64.0 -115.2 63.7 -114.8 63.65 -114.65 63.75 -114.05 64.2 -113.3 64.2 -113.15 64.3 -112.75 64.85 -112.75 65.15 -112.85 65.2 -112.8 Q65.2 -112.45 65.55 -112.25 L65.85 -112.25 65.55 -112.0 65.3 -111.8 62.55 -114.25 63.0 -114.75 64.55 -116.05 64.65 -115.9 64.6 -116.1 63.6 -119.85 Q63.4 -120.65 63.7 -121.35 64.0 -122.05 64.65 -122.2 L67.85 -123.1 Q68.45 -123.25 69.1 -122.8 69.7 -122.35 69.95 -121.55 L70.85 -118.2 71.55 -118.25 Q74.5 -118.25 77.0 -117.0 M69.3 -121.7 L69.2 -121.85 68.1 -123.0 Q66.3 -122.15 64.3 -121.75 L64.1 -121.55 63.95 -121.4 63.9 -120.8 64.0 -119.3 64.2 -119.15 64.25 -118.8 64.95 -117.25 64.9 -116.7 Q64.85 -116.2 65.05 -115.75 L65.45 -115.65 65.45 -115.45 65.55 -115.25 66.05 -115.5 66.05 -116.25 Q66.0 -117.25 66.3 -118.15 L66.45 -118.35 66.55 -118.5 66.6 -118.85 67.0 -119.8 69.3 -121.7 M65.15 -115.0 L64.65 -115.9 65.15 -115.0 M66.2 -114.4 L65.8 -114.5 66.2 -114.4" fill="#555555" fill-rule="evenodd" stroke="none"/>
    <path d="M72.75 -112.25 L72.85 -112.3 Q73.5 -112.3 73.95 -111.85 L74.05 -111.7 71.1 -108.5 70.75 -108.2 70.3 -108.25 70.2 -108.45 70.2 -108.65 69.85 -108.8 69.7 -108.95 69.7 -109.1 69.9 -109.5 70.0 -109.7 Q71.45 -110.55 72.3 -111.9 L72.55 -112.25 72.75 -112.25 M64.55 -116.05 L64.6 -116.1 64.65 -115.9 64.55 -116.05" fill="#ffffff" fill-rule="evenodd" stroke="none"/>
    <path d="M87.15 -106.45 L87.0 -106.5 83.55 -107.2 83.2 -107.3 81.75 -107.1 Q81.05 -106.8 80.9 -106.15 L80.25 -102.9 Q80.1 -102.25 80.6 -101.65 81.05 -101.05 81.85 -100.9 L82.35 -100.8 85.85 -100.05 87.3 -100.25 Q88.0 -100.6 88.15 -101.2 L88.85 -104.45 Q88.95 -105.1 88.5 -105.7 88.0 -106.3 87.2 -106.45 L87.15 -106.45 M77.25 -116.85 Q78.75 -116.05 80.05 -114.75 81.55 -113.25 82.4 -111.5 83.4 -109.5 83.55 -107.2 M77.0 -117.0 Q74.5 -118.25 71.55 -118.25 L70.85 -118.2 71.0 -117.6 Q71.15 -117.0 70.95 -116.4 L70.85 -116.15 70.65 -115.75 69.95 -115.25 66.75 -114.4 66.2 -114.4 65.8 -114.5 65.5 -114.7 65.15 -115.0 64.65 -115.9 64.6 -116.1 63.6 -119.85 Q63.4 -120.65 63.7 -121.35 64.0 -122.05 64.65 -122.2 L67.85 -123.1 Q68.45 -123.25 69.1 -122.8 69.7 -122.35 69.95 -121.55 L70.85 -118.2 M77.25 -116.85 L77.0 -117.0 M64.55 -116.05 L64.6 -116.1 M64.55 -116.05 L63.0 -114.75 62.55 -114.25 M68.25 -109.2 L73.0 -113.95 79.05 -107.95 74.6 -103.5 M80.55 -98.2 Q81.65 -99.4 82.35 -100.8" fill="none" stroke="#333333" stroke-linecap="round" stroke-linejoin="round" stroke-width="1.0"/>
    <path d="M17.7 -108.0 Q18.05 -109.65 18.0 -112.0 L38.35 -134.9 44.55 -129.4 45.1 -128.9 -101.9 48.1 -102.25 47.95 -104.65 53.25 -105.4 54.75 -106.35 57.25 Q-111.05 68.4 -115.45 80.9 -121.55 98.4 -120.85 119.15 -120.15 138.1 -113.3 150.45 L-113.1 153.0 Q-117.15 161.95 -119.9 174.1 L-120.0 174.5 -125.55 169.8 Q-130.65 163.4 -133.9 155.5 -132.6 154.1 -131.75 152.5 L-134.85 153.0 -135.1 152.3 -132.0 148.5 -136.15 149.0 Q-137.8 143.3 -138.6 136.95 -141.05 117.65 -139.35 98.95 -138.85 93.6 -137.85 88.4 L-137.7 87.55 Q-135.1 74.35 -129.4 61.9 L-127.8 58.5 -124.75 58.75 -127.05 57.05 Q-119.6 42.05 -111.8 33.95 L-93.0 12.85 Q-90.95 14.5 -89.3 17.05 -89.85 13.95 -91.55 11.2 L-87.4 6.55 Q-85.9 7.3 -84.55 8.55 -84.85 6.6 -85.55 4.45 L-38.45 -48.55 Q-36.55 -47.05 -35.7 -45.05 -35.35 -46.0 -35.6 -46.8 L-36.5 -48.75 Q-35.1 -48.9 -34.4 -49.4 L-33.95 -49.95 Q-33.5 -50.95 -34.25 -52.6 L-34.45 -53.05 10.55 -103.7 Q11.65 -100.95 12.45 -97.5 13.25 -101.65 12.6 -105.95 L16.5 -110.35 Q17.35 -109.35 17.7 -108.0 M-136.5 88.25 L-137.85 88.4 -136.5 88.25" fill="url(#gradient0)" fill-rule="evenodd" stroke="none"/>
    <path d="M46.05 -128.55 L97.05 -83.9 96.6 -83.4 -113.3 150.45 Q-120.15 138.1 -120.85 119.15 -121.55 98.4 -115.45 80.9 -111.05 68.4 -106.35 57.25 L-104.65 53.25 -102.25 47.95 -101.9 48.1 45.1 -128.9 45.45 -129.05 46.05 -128.55" fill="url(#gradient1)" fill-rule="evenodd" stroke="none"/>
    <path d="M38.35 -134.9 L41.6 -138.6 41.8 -138.4 45.8 -129.2 45.45 -129.05 44.55 -129.4 38.35 -134.9" fill="#f3f3f3" fill-rule="evenodd" stroke="none"/>
    <path d="M96.6 -83.4 L106.6 -80.4 107.05 -80.0 84.8 -55.0 78.5 -54.8 Q80.6 -53.55 82.2 -52.05 L66.6 -34.5 Q64.4 -34.8 62.0 -34.0 L64.1 -31.65 63.15 -30.6 Q60.4 -32.1 57.25 -31.25 L61.4 -28.6 60.2 -27.3 Q57.5 -27.75 54.75 -27.2 L58.4 -25.25 29.7 7.05 Q28.0 5.3 27.2 3.25 26.35 6.75 28.1 8.8 L-5.8 46.95 Q-6.25 46.65 -6.75 46.5 L-6.75 48.0 -7.0 48.3 Q-8.55 45.95 -11.25 45.0 -10.05 47.15 -10.0 49.55 -10.8 49.05 -11.7 49.2 -10.85 50.6 -10.4 52.15 L-74.75 124.55 Q-76.35 123.3 -78.25 123.25 L-76.25 126.25 -114.65 169.45 Q-115.8 168.7 -117.1 168.3 -116.5 169.75 -116.25 171.25 L-119.55 174.9 -120.1 174.75 -125.55 169.8 -120.0 174.5 -119.9 174.1 Q-117.15 161.95 -113.1 153.0 L-113.3 150.45 96.6 -83.4" fill="url(#gradient2)" fill-rule="evenodd" stroke="none"/>
    <path d="M-133.9 155.5 Q-132.6 154.1 -131.75 152.5 M-135.1 152.3 L-132.0 148.5 M-127.8 58.5 L-124.75 58.75 M-93.0 12.85 Q-90.95 14.5 -89.3 17.05 M-87.4 6.55 Q-85.9 7.3 -84.55 8.55 M-38.45 -48.55 Q-36.55 -47.05 -35.7 -45.05 M-36.5 -48.75 Q-35.1 -48.9 -34.4 -49.4 M10.55 -103.7 Q11.65 -100.95 12.45 -97.5 M16.5 -110.35 Q17.35 -109.35 17.7 -108.0 M-137.85 88.4 L-136.5 88.25" fill="none" stroke="#555555" stroke-linecap="round" stroke-linejoin="round" stroke-width="1.0"/>
    <path d="M41.8 -138.4 L45.8 -129.2 46.05 -128.55 97.05 -83.9 96.6 -83.4 106.6 -80.4 M45.45 -129.05 L46.05 -128.55" fill="none" stroke="#000000" stroke-linecap="round" stroke-linejoin="round" stroke-width="1.0"/>
    <path d="M41.6 -138.6 L41.8 -138.4" fill="none" stroke="#000000" stroke-linecap="round" stroke-linejoin="round" stroke-width="1.0"/>
    <path d="M84.8 -55.0 L78.5 -54.8 Q80.6 -53.55 82.2 -52.05 M66.6 -34.5 Q64.4 -34.8 62.0 -34.0 M63.15 -30.6 Q60.4 -32.1 57.25 -31.25 M60.2 -27.3 Q57.5 -27.75 54.75 -27.2 M29.7 7.05 Q28.0 5.3 27.2 3.25 M-5.8 46.95 Q-6.25 46.65 -6.75 46.5 M-7.0 48.3 Q-8.55 45.95 -11.25 45.0 M-10.0 49.55 Q-10.8 49.05 -11.7 49.2 M-74.75 124.55 Q-76.35 123.3 -78.25 123.25 M-114.65 169.45 Q-115.8 168.7 -117.1 168.3" fill="none" stroke="#dcdcdc" stroke-linecap="round" stroke-linejoin="round" stroke-width="1.0"/>
    <path d="M71.6 -63.25 L72.15 -63.45 Q72.45 -63.8 72.4 -64.2 L72.1 -64.95 71.5 -65.15 Q71.15 -65.1 70.95 -64.9 70.65 -64.55 70.7 -64.15 70.7 -63.7 71.0 -63.4 71.25 -63.15 71.6 -63.25 M70.4 -60.85 L70.3 -60.75 69.7 -59.85 66.85 -56.85 66.9 -56.8 Q68.6 -57.85 69.75 -59.45 L70.6 -60.85 70.6 -60.9 70.4 -60.85 M71.0 -60.7 Q71.05 -60.0 70.55 -59.45 L69.3 -58.15 68.95 -57.9 69.5 -57.35 69.8 -56.65 69.55 -55.95 Q69.25 -55.65 69.0 -55.65 68.65 -55.75 68.4 -55.95 L67.85 -56.5 66.5 -55.05 65.95 -54.8 65.55 -54.9 Q65.5 -53.7 64.65 -52.85 64.05 -52.15 63.15 -52.0 L62.8 -52.0 62.85 -52.05 62.75 -52.05 62.7 -52.0 62.45 -52.05 62.55 -51.75 61.0 -49.85 62.55 -51.45 Q62.5 -50.55 61.85 -49.8 L60.65 -49.15 60.9 -49.3 60.85 -49.4 59.3 -48.35 59.5 -48.9 59.9 -49.1 59.25 -49.35 59.35 -49.05 59.1 -48.45 58.5 -47.75 58.3 -47.6 56.0 -45.15 55.65 -45.6 55.1 -46.15 57.95 -48.3 Q57.8 -48.4 57.35 -48.05 L55.0 -46.3 54.95 -46.35 Q54.45 -46.8 54.1 -46.35 53.7 -45.95 54.05 -45.4 L51.8 -43.4 Q51.5 -43.55 51.25 -43.25 50.75 -42.7 51.3 -42.15 L52.0 -41.3 49.9 -39.35 49.3 -40.0 49.45 -40.2 49.45 -40.3 49.25 -40.05 48.35 -40.1 Q47.95 -39.65 48.25 -39.15 47.65 -38.6 46.85 -38.15 L46.55 -38.9 50.1 -42.3 50.1 -42.4 50.1 -42.45 50.5 -42.9 50.55 -43.0 46.5 -39.1 46.55 -39.55 Q46.55 -40.55 47.25 -41.3 47.85 -42.0 48.75 -42.05 L49.45 -41.95 49.4 -42.65 Q49.4 -43.65 50.15 -44.45 50.75 -45.1 51.6 -45.2 L52.3 -45.1 52.3 -45.8 Q52.3 -46.8 53.0 -47.6 53.6 -48.25 54.5 -48.35 L55.1 -48.25 55.05 -49.05 Q55.2 -50.0 55.9 -50.8 L57.05 -51.55 Q57.85 -51.8 58.35 -51.3 L58.65 -50.7 58.45 -50.05 Q58.25 -49.85 57.75 -49.8 L57.0 -49.6 Q56.5 -49.05 56.85 -48.75 L57.4 -48.8 58.05 -49.5 Q58.4 -49.9 58.75 -49.8 L58.65 -50.25 Q58.6 -50.65 58.9 -50.95 59.15 -51.25 59.55 -51.15 L60.05 -50.9 59.75 -50.55 60.0 -50.75 60.1 -50.9 60.2 -50.85 60.75 -50.95 Q61.0 -51.2 60.9 -51.5 L63.35 -53.75 Q63.6 -53.8 63.75 -53.95 L63.9 -54.2 65.4 -55.65 65.45 -55.7 65.45 -55.85 65.4 -55.85 63.95 -54.6 63.8 -54.95 62.75 -53.85 63.0 -53.7 60.8 -51.65 60.75 -51.9 60.05 -52.65 59.0 -52.6 Q58.7 -52.85 58.7 -53.2 58.65 -53.6 58.95 -53.95 L59.55 -54.55 60.05 -54.8 60.4 -54.7 59.0 -52.85 59.05 -52.8 59.15 -52.8 59.95 -53.6 60.75 -54.45 61.4 -53.8 61.45 -53.75 61.5 -53.8 63.2 -55.7 Q62.75 -55.9 62.35 -55.45 L62.1 -55.0 61.85 -54.55 61.4 -54.4 60.9 -54.55 60.85 -54.6 62.5 -56.45 62.55 -56.85 62.5 -56.95 62.4 -56.8 60.6 -54.9 60.7 -55.6 Q60.85 -56.2 61.3 -56.7 62.0 -57.45 62.85 -57.6 L63.55 -57.6 63.55 -58.15 Q63.55 -59.15 64.2 -59.85 64.8 -60.55 65.6 -60.55 L66.05 -60.6 66.0 -61.0 Q65.95 -61.6 66.45 -62.1 L66.7 -62.4 67.85 -63.65 68.05 -63.9 68.25 -64.1 68.75 -64.65 Q69.15 -65.05 69.4 -64.9 L66.7 -62.4 67.9 -63.3 Q70.5 -65.75 73.55 -67.7 L73.55 -67.6 73.65 -67.4 73.1 -67.05 73.65 -67.2 73.8 -67.3 74.4 -66.75 73.15 -65.75 Q73.9 -66.1 74.55 -66.6 L74.8 -66.55 75.1 -66.65 75.2 -67.0 75.8 -67.45 75.85 -67.5 76.05 -67.75 76.0 -67.8 75.15 -67.25 75.0 -67.65 74.7 -67.9 76.05 -69.05 76.35 -68.75 76.7 -68.65 Q76.9 -68.65 77.05 -68.8 77.4 -69.2 76.95 -69.7 L76.85 -69.8 77.35 -70.4 77.35 -70.45 77.4 -70.55 77.3 -70.65 76.5 -70.15 76.2 -70.5 Q75.75 -70.35 75.5 -70.65 75.2 -70.9 75.2 -71.3 L75.15 -71.4 75.5 -71.6 75.75 -71.7 75.95 -71.9 78.95 -74.35 80.95 -76.7 76.75 -72.95 Q76.85 -73.75 77.4 -74.35 78.0 -75.0 78.7 -75.1 L78.7 -75.15 Q78.65 -75.5 78.95 -75.85 L79.45 -76.4 Q79.85 -76.85 80.2 -76.6 80.15 -77.4 80.75 -78.05 81.4 -78.75 82.3 -78.7 L82.45 -78.7 Q82.1 -79.25 82.55 -79.8 L83.2 -80.5 83.7 -80.75 83.9 -80.7 Q84.0 -81.6 84.55 -82.2 85.05 -82.75 85.65 -82.75 L85.4 -83.0 85.6 -83.2 86.45 -84.4 86.55 -84.5 86.9 -83.95 Q87.0 -84.7 87.55 -85.25 L88.85 -86.7 89.4 -87.0 89.95 -86.8 90.25 -86.5 90.55 -86.15 89.1 -84.5 88.8 -84.15 88.55 -83.7 87.2 -82.35 Q84.8 -80.65 82.8 -78.5 L82.85 -78.5 85.55 -80.75 85.6 -80.5 Q85.6 -80.1 85.95 -79.8 L86.25 -79.55 86.15 -79.45 86.3 -79.6 86.55 -79.55 Q86.9 -79.55 87.15 -79.85 L87.4 -80.35 88.2 -81.25 88.6 -81.8 88.75 -82.1 87.3 -80.75 86.95 -81.3 86.5 -81.5 88.0 -82.55 88.7 -83.5 Q89.0 -83.3 89.25 -83.6 L89.4 -83.8 89.55 -83.95 Q90.1 -84.55 90.8 -84.7 L91.65 -84.65 Q90.95 -82.95 89.6 -81.9 L89.6 -81.8 89.05 -81.6 88.85 -81.55 89.0 -80.45 Q88.9 -79.45 88.15 -78.65 L87.4 -78.05 88.25 -79.6 87.75 -79.05 86.95 -77.9 86.55 -77.75 85.4 -78.0 86.35 -77.0 85.15 -75.7 84.7 -76.2 84.75 -76.1 84.55 -75.25 84.25 -74.95 84.55 -75.2 Q84.4 -74.55 83.9 -74.0 83.2 -73.2 82.3 -73.15 L81.4 -73.3 82.7 -71.85 83.0 -71.15 82.75 -70.45 Q82.5 -70.15 82.2 -70.15 81.85 -70.2 81.6 -70.4 L81.05 -71.0 79.7 -69.55 Q79.5 -69.25 79.2 -69.3 L79.05 -69.25 79.25 -69.45 78.8 -69.4 78.6 -69.25 Q74.35 -66.35 71.35 -62.3 L72.2 -63.15 73.95 -64.85 78.8 -69.05 Q78.7 -68.25 78.15 -67.65 77.5 -66.95 76.75 -67.0 76.8 -66.2 76.1 -65.45 75.55 -64.8 74.7 -64.7 L73.95 -64.85 74.05 -64.35 Q74.05 -63.2 73.2 -62.25 72.5 -61.5 71.6 -61.4 L70.85 -61.45 71.0 -60.7 M69.25 -60.75 L69.05 -60.65 68.85 -60.35 68.65 -60.1 67.6 -59.5 67.9 -59.0 69.25 -60.5 69.35 -60.6 69.25 -60.75 M78.65 -71.5 L77.8 -70.8 78.0 -70.85 78.6 -71.35 78.4 -71.0 78.25 -70.9 78.55 -70.4 78.75 -70.7 80.05 -72.1 79.85 -72.4 82.5 -75.0 82.85 -75.2 83.05 -75.6 83.4 -76.0 83.8 -76.55 84.5 -77.45 84.7 -78.05 83.1 -75.85 83.1 -75.95 82.9 -76.6 83.05 -76.7 84.5 -78.15 85.0 -78.9 85.5 -79.45 Q83.9 -78.3 82.7 -76.75 L82.2 -76.85 81.65 -76.6 Q81.35 -76.3 81.4 -75.85 81.4 -75.45 81.7 -75.15 81.95 -74.9 82.3 -74.95 L82.35 -74.9 79.75 -72.45 79.35 -73.0 79.2 -73.1 79.1 -73.2 78.8 -73.25 79.25 -73.85 78.55 -73.2 78.45 -73.1 78.4 -73.05 77.2 -71.95 77.25 -72.0 78.3 -72.8 78.35 -72.5 78.6 -71.75 78.65 -71.5 M72.25 -68.5 L72.8 -68.75 73.35 -68.6 Q73.75 -68.25 73.55 -67.7 73.25 -67.55 72.8 -67.35 L69.5 -65.0 Q69.5 -65.7 70.05 -66.3 70.7 -67.0 71.6 -66.95 L71.85 -66.95 Q71.55 -67.3 71.7 -67.65 L72.25 -68.5 M73.25 -69.2 L73.55 -69.9 74.15 -70.55 Q74.4 -70.85 74.7 -70.85 L75.25 -70.65 75.55 -70.2 75.45 -69.7 75.8 -69.35 75.6 -69.1 74.65 -68.1 74.6 -68.1 74.3 -68.4 73.9 -68.4 73.6 -68.6 73.25 -69.2 M75.4 -71.95 L75.8 -72.4 Q76.1 -72.7 76.4 -72.6 L75.55 -72.05 75.55 -71.9 75.5 -71.85 75.2 -71.55 75.4 -71.95 M65.15 -58.0 L65.2 -57.7 64.95 -57.35 65.0 -57.35 65.25 -57.55 65.4 -57.25 Q65.5 -56.8 65.2 -56.5 L65.1 -56.4 65.3 -55.95 65.55 -56.2 66.85 -57.6 66.25 -58.35 66.95 -59.1 67.0 -59.2 67.2 -59.75 67.25 -59.8 67.2 -59.85 66.95 -59.65 66.0 -58.6 65.9 -58.7 65.6 -58.75 65.25 -58.6 Q65.0 -58.35 65.15 -58.0 M65.4 -59.05 L65.5 -59.1 66.25 -59.7 67.5 -61.35 Q66.35 -60.45 65.4 -59.05 M67.9 -61.05 L68.2 -61.3 68.45 -61.65 Q68.9 -62.15 69.45 -62.2 L69.55 -62.25 66.05 -59.5 69.75 -62.2 70.5 -63.0 70.55 -63.05 69.65 -62.3 69.3 -62.8 69.05 -62.65 67.75 -61.25 67.75 -61.1 Q67.7 -61.0 67.9 -61.05 M58.1 -44.2 L57.85 -44.0 Q54.0 -41.5 50.85 -38.0 52.5 -39.45 54.3 -40.75 L55.25 -41.5 55.25 -41.25 Q55.2 -40.25 54.5 -39.5 53.9 -38.8 53.05 -38.7 L52.3 -38.75 52.4 -38.15 Q52.35 -37.1 51.65 -36.35 51.05 -35.7 50.2 -35.55 L49.45 -35.65 50.0 -35.95 50.1 -36.15 50.1 -36.7 49.1 -35.8 48.7 -36.05 47.2 -37.8 46.85 -38.15 47.0 -38.15 Q47.85 -38.4 48.45 -39.0 L48.95 -38.45 48.3 -37.75 49.0 -38.3 49.75 -37.55 Q50.2 -37.1 50.6 -37.55 50.9 -37.9 50.65 -38.4 L50.05 -39.2 52.15 -41.1 52.6 -40.7 Q53.05 -40.25 53.45 -40.7 53.75 -41.0 53.5 -41.5 L53.15 -42.1 54.95 -43.9 55.1 -44.05 55.15 -44.2 55.45 -43.8 56.3 -43.85 Q56.6 -44.15 56.35 -44.65 L56.05 -45.1 58.35 -47.05 58.45 -47.0 59.05 -47.05 59.55 -47.65 59.4 -48.0 60.5 -49.0 60.55 -48.95 61.3 -48.1 61.45 -47.55 61.15 -47.0 59.95 -45.65 Q59.45 -45.1 58.8 -45.05 58.35 -45.0 57.95 -45.25 L58.15 -44.4 58.1 -44.2 M56.95 -47.0 L56.65 -46.95 56.95 -46.7 56.95 -47.0 M55.6 -41.85 L57.95 -43.7 57.35 -42.6 Q56.75 -41.95 55.9 -41.8 L55.6 -41.85 M53.25 -46.1 L53.35 -46.0 Q54.95 -46.9 56.0 -48.4 L53.25 -46.1 M53.05 -42.25 L53.05 -42.2 52.8 -42.45 52.1 -43.2 52.0 -43.3 52.25 -43.55 54.15 -45.3 54.2 -45.25 55.1 -44.25 53.05 -42.25 M86.25 -74.8 Q85.95 -74.75 85.8 -75.0 L85.7 -75.1 85.2 -75.65 86.4 -76.6 86.95 -77.25 87.4 -77.05 87.65 -76.4 87.35 -75.7 86.75 -75.05 Q86.55 -74.85 86.25 -74.8 M91.1 -82.9 L92.05 -84.45 92.2 -84.3 92.75 -83.4 89.95 -80.05 89.75 -80.35 Q89.25 -81.05 89.75 -81.6 L90.15 -81.9 90.65 -81.75 91.15 -82.3 Q91.4 -82.6 91.1 -82.9 M92.95 -82.7 Q92.9 -81.8 92.25 -81.05 L91.2 -79.95 90.7 -79.65 Q90.4 -79.6 90.15 -79.85 L90.05 -79.95 90.55 -80.6 92.85 -83.15 92.95 -82.7 M85.85 -85.15 L86.25 -84.8 85.85 -84.3 84.7 -82.95 84.3 -83.15 83.95 -83.75 84.25 -84.45 84.8 -85.05 Q85.05 -85.3 85.3 -85.35 85.6 -85.45 85.85 -85.15 M89.65 -84.7 L90.6 -86.0 90.65 -85.6 90.45 -84.95 90.0 -84.65 89.65 -84.7" fill="#606060" fill-rule="evenodd" stroke="none"/>
    <path d="M60.1 -45.7 L59.6 -45.3 61.55 -47.75 61.55 -47.55 61.3 -47.0 60.1 -45.7 M61.55 -47.85 Q60.15 -46.6 59.45 -45.25 L58.9 -45.05 58.3 -45.2 59.45 -46.3 58.7 -45.25 60.3 -47.05 61.4 -48.15 61.55 -47.85 M61.3 -48.2 L60.95 -47.95 61.3 -48.3 61.3 -48.2 M60.85 -48.75 L60.65 -48.5 58.5 -45.9 57.0 -44.3 56.25 -43.45 56.45 -43.65 54.65 -41.7 Q53.75 -40.7 52.65 -39.8 L52.15 -39.25 51.45 -38.5 51.5 -38.6 50.95 -37.95 51.25 -38.45 52.2 -40.55 52.55 -40.9 52.75 -40.7 Q53.15 -40.25 53.55 -40.7 53.85 -41.05 53.6 -41.55 L53.4 -41.9 55.3 -44.15 55.55 -43.9 55.3 -43.5 55.55 -43.9 55.6 -43.85 55.95 -43.6 55.95 -43.4 56.15 -43.65 56.4 -43.85 56.6 -44.25 56.65 -44.3 60.8 -48.9 60.85 -48.75 M60.95 -48.7 L60.4 -48.0 60.9 -48.75 60.95 -48.7 M60.5 -49.1 L60.6 -49.05 59.55 -47.85 59.4 -48.3 59.65 -48.95 60.0 -49.15 59.75 -49.2 62.45 -51.9 62.45 -51.95 59.75 -49.5 59.85 -49.6 59.5 -49.3 59.35 -49.4 59.4 -49.15 59.1 -48.85 58.65 -48.35 55.95 -45.65 55.85 -45.5 55.75 -45.65 55.25 -46.05 57.05 -48.15 58.35 -49.65 58.45 -49.75 58.55 -49.8 56.7 -47.55 56.8 -47.45 58.8 -49.85 58.9 -49.8 58.85 -49.95 59.8 -51.05 60.2 -50.95 58.7 -49.15 60.45 -50.85 Q60.7 -50.85 60.85 -51.0 L61.0 -51.4 61.9 -52.35 63.45 -53.75 Q63.7 -53.8 63.8 -53.95 L64.05 -54.4 65.4 -56.05 65.6 -56.2 66.95 -57.7 66.25 -58.5 66.15 -58.6 66.1 -58.65 67.45 -60.15 68.0 -60.9 68.3 -61.15 68.35 -61.2 68.45 -61.3 69.3 -62.2 69.55 -62.25 69.85 -62.25 69.65 -62.5 70.95 -63.65 71.1 -63.45 71.4 -63.25 71.2 -63.0 69.25 -60.8 69.15 -60.65 68.95 -60.35 68.75 -60.15 Q68.25 -59.65 67.75 -59.5 L67.7 -59.5 67.9 -59.2 67.3 -58.5 67.4 -58.5 68.0 -59.15 68.05 -59.05 69.4 -60.5 69.45 -60.65 69.4 -60.65 70.05 -61.35 71.75 -63.25 Q72.05 -63.3 72.25 -63.5 L72.55 -64.15 73.2 -64.85 74.65 -66.6 74.95 -66.55 75.2 -66.75 72.75 -63.55 71.0 -61.5 70.95 -61.5 67.85 -57.95 66.9 -56.55 71.0 -61.45 71.05 -61.35 69.75 -59.65 70.55 -60.4 71.1 -61.15 71.15 -60.7 69.55 -58.95 69.3 -58.65 68.4 -57.85 64.65 -54.35 59.85 -49.6 64.3 -53.8 68.55 -57.7 67.85 -56.95 65.8 -54.85 65.7 -54.9 65.6 -54.6 65.05 -53.85 62.85 -52.0 62.55 -52.05 62.6 -51.75 62.15 -51.35 62.2 -51.35 62.6 -51.7 62.65 -51.55 62.5 -50.6 62.3 -50.35 61.7 -49.65 61.6 -49.5 61.7 -49.65 61.5 -49.45 61.25 -49.35 61.8 -49.85 62.5 -50.6 61.5 -49.9 60.7 -49.15 60.55 -49.1 60.5 -49.1 M58.75 -50.1 L59.15 -50.55 58.75 -50.1 M58.65 -46.9 L56.65 -44.7 56.5 -44.5 56.45 -44.65 56.3 -44.95 58.05 -47.4 58.4 -47.8 59.35 -48.75 59.2 -48.45 58.6 -47.8 Q58.2 -47.35 58.55 -47.0 L58.65 -46.9 M62.75 -53.35 L63.1 -53.8 63.1 -53.75 62.75 -53.35 M63.95 -54.9 L64.2 -55.15 65.4 -56.7 65.35 -56.55 65.25 -56.5 65.4 -56.1 64.05 -54.75 63.95 -54.9 M61.25 -48.3 L60.75 -47.9 61.2 -48.4 61.25 -48.3 M63.25 -52.05 L63.05 -52.0 64.7 -53.4 63.7 -52.1 63.25 -52.05 M60.85 -51.9 L60.8 -51.95 60.85 -52.0 60.9 -52.05 60.75 -52.0 60.7 -52.05 63.8 -55.4 64.4 -56.1 64.65 -56.4 65.2 -57.15 65.25 -57.2 64.55 -56.5 64.3 -56.2 62.05 -53.75 62.65 -54.5 65.1 -57.2 63.75 -55.9 64.0 -56.2 64.9 -57.35 65.3 -57.8 65.5 -57.25 65.5 -56.8 64.65 -55.9 60.95 -51.75 60.85 -51.9 M60.3 -52.45 L62.9 -55.15 62.3 -54.4 60.35 -52.4 60.3 -52.45 M60.15 -52.65 L59.1 -52.6 59.05 -52.6 59.1 -52.65 59.3 -52.9 60.35 -53.85 60.4 -53.9 59.6 -53.25 60.75 -54.6 61.5 -53.8 60.25 -52.5 60.15 -52.65 M60.85 -54.7 L63.5 -57.65 63.65 -57.65 63.65 -57.8 64.7 -59.0 63.6 -57.85 63.65 -58.2 63.7 -58.45 64.75 -59.6 65.8 -60.6 66.2 -60.6 66.1 -60.95 70.65 -65.75 71.15 -66.3 Q71.0 -66.45 70.5 -65.9 L69.6 -64.9 66.15 -61.1 Q66.2 -61.7 66.6 -62.15 L68.0 -63.7 68.15 -63.85 67.45 -62.75 69.45 -64.95 69.6 -64.9 69.65 -65.15 70.85 -66.35 71.5 -67.0 71.7 -67.0 71.8 -67.0 68.8 -63.45 64.8 -58.7 64.9 -58.75 66.55 -60.35 70.15 -64.8 71.8 -67.0 71.95 -66.95 71.85 -67.1 72.0 -67.25 71.85 -67.1 71.75 -67.3 73.1 -68.65 72.85 -68.15 72.9 -68.2 73.35 -68.7 73.45 -68.6 73.6 -68.45 73.4 -68.15 71.65 -66.2 71.9 -66.4 70.6 -64.8 72.1 -66.2 72.9 -67.35 73.4 -67.8 70.4 -64.1 68.85 -62.35 67.85 -61.3 67.85 -61.15 66.1 -59.05 65.85 -58.8 65.7 -58.8 65.35 -58.65 Q65.1 -58.4 65.2 -58.05 L64.55 -57.25 63.25 -55.75 Q62.9 -55.85 62.5 -55.45 L62.2 -55.0 62.0 -54.55 61.55 -54.4 Q61.25 -54.35 61.0 -54.55 L60.85 -54.7 M59.7 -53.75 L60.6 -54.75 60.7 -54.65 59.1 -52.85 59.0 -52.7 58.9 -52.85 59.0 -52.95 59.7 -53.75 M60.45 -54.8 L60.15 -54.45 58.85 -53.1 58.8 -53.3 59.1 -53.95 59.7 -54.6 60.2 -54.85 60.45 -54.8 M60.75 -54.9 L61.8 -55.95 60.85 -54.8 60.75 -54.9 M61.4 -56.7 Q62.0 -57.35 62.7 -57.55 L62.15 -57.0 62.8 -57.6 62.95 -57.65 63.4 -57.6 62.65 -56.85 61.1 -55.4 60.75 -55.0 60.8 -55.65 Q60.95 -56.25 61.4 -56.7 M56.9 -48.8 L56.85 -48.75 55.05 -47.25 56.85 -49.25 Q56.75 -49.0 56.9 -48.8 M56.9 -49.35 L56.1 -48.4 54.85 -47.0 54.3 -46.55 54.2 -46.4 54.1 -46.3 51.45 -43.8 55.5 -48.15 58.2 -51.55 58.5 -51.3 58.8 -50.75 58.65 -50.65 58.6 -50.55 58.65 -50.6 58.75 -50.75 58.75 -50.55 58.95 -50.9 59.0 -50.95 59.0 -51.0 59.3 -51.1 58.75 -50.55 58.35 -50.0 58.2 -49.9 57.85 -49.85 57.3 -49.75 57.1 -49.6 56.9 -49.35 M57.2 -48.6 L56.7 -48.0 55.2 -46.15 55.05 -46.35 54.7 -46.55 55.4 -47.2 57.0 -48.7 57.2 -48.6 M57.7 -51.35 L57.95 -51.6 58.05 -51.55 56.15 -49.2 55.95 -48.95 51.35 -43.8 51.3 -43.75 50.5 -43.1 51.8 -45.2 52.4 -45.1 52.4 -45.8 Q52.4 -46.85 53.1 -47.6 53.7 -48.25 54.6 -48.35 L54.2 -47.8 54.75 -48.3 54.8 -48.35 52.9 -45.65 54.55 -47.6 55.1 -48.3 55.25 -48.3 55.2 -48.4 57.7 -51.35 M57.3 -49.75 L57.4 -49.85 57.3 -49.75 M57.45 -51.6 L55.15 -49.1 Q55.3 -50.05 56.0 -50.8 L57.2 -51.55 57.45 -51.6 M53.2 -39.2 L54.1 -40.0 55.35 -41.1 Q55.3 -40.2 54.65 -39.5 54.05 -38.85 53.2 -38.75 L52.7 -38.75 53.2 -39.2 M52.7 -42.65 L54.75 -44.75 54.95 -44.55 53.4 -42.95 55.05 -44.45 55.15 -44.35 53.2 -42.2 52.9 -42.5 52.7 -42.65 M53.95 -44.15 L52.7 -42.7 Q52.55 -42.8 52.5 -42.85 L53.95 -44.45 54.45 -45.1 54.7 -44.75 53.95 -44.15 M52.25 -41.2 L50.25 -39.1 50.05 -39.4 50.65 -40.05 51.85 -41.65 52.25 -41.2 M51.8 -41.75 L49.85 -39.6 49.7 -39.7 50.0 -40.15 49.65 -39.75 49.35 -40.1 48.85 -40.3 49.35 -41.3 49.95 -41.75 51.05 -42.85 Q51.05 -42.55 51.45 -42.15 L51.6 -41.95 50.15 -40.45 50.25 -40.5 51.6 -41.95 51.8 -41.75 M55.35 -41.5 L50.65 -37.35 51.4 -37.8 49.45 -35.65 49.4 -35.7 50.6 -37.45 50.7 -37.6 50.85 -37.85 52.3 -39.1 57.65 -44.15 57.7 -44.2 57.65 -44.35 57.6 -44.35 56.4 -43.3 54.75 -41.85 56.8 -43.85 56.95 -44.0 58.2 -45.1 58.25 -44.4 58.1 -43.65 56.7 -42.55 55.8 -41.85 55.3 -41.9 55.35 -41.5 M57.5 -42.65 Q57.0 -42.1 56.3 -41.95 L58.0 -43.35 57.5 -42.65 M56.8 -47.0 L57.05 -46.75 57.05 -47.05 56.8 -47.0 M56.0 -45.35 L56.7 -46.0 56.05 -45.3 56.0 -45.35 M54.4 -45.15 L52.45 -42.9 52.2 -43.2 51.7 -43.45 53.95 -45.9 Q54.0 -45.6 54.35 -45.3 L54.4 -45.15 M56.15 -45.15 L56.85 -45.9 56.25 -45.05 56.15 -45.15 M49.55 -41.7 L49.5 -41.7 47.7 -39.7 49.15 -41.1 48.7 -40.3 48.45 -40.1 Q48.2 -39.85 48.25 -39.55 L47.2 -37.95 Q46.65 -38.65 46.65 -39.55 46.65 -40.55 47.35 -41.35 47.85 -41.9 48.55 -42.05 L46.95 -40.25 47.0 -40.25 48.85 -42.05 49.4 -42.05 47.0 -39.25 49.7 -42.0 49.6 -41.8 49.55 -41.7 M50.0 -42.25 L50.05 -42.35 50.35 -42.6 50.0 -42.25 M55.2 -48.8 L55.5 -49.15 55.15 -48.75 55.2 -48.8 M50.3 -42.55 L53.2 -45.25 51.2 -43.3 50.2 -42.45 50.3 -42.55 M50.0 -42.65 L49.55 -42.2 49.5 -42.7 50.3 -43.45 50.95 -44.25 51.05 -44.4 50.0 -42.65 M51.7 -45.2 L51.2 -44.65 51.6 -45.2 51.7 -45.2 M51.4 -45.2 L51.35 -45.15 51.1 -44.85 49.5 -43.1 Q49.7 -43.9 50.25 -44.45 50.75 -45.0 51.4 -45.2 M74.1 -63.8 L74.05 -63.65 73.75 -63.4 74.1 -63.8 73.4 -63.15 72.3 -61.95 71.8 -61.4 71.7 -61.4 71.35 -61.45 74.1 -64.75 74.1 -64.6 72.8 -63.15 74.1 -64.35 74.15 -64.35 74.1 -63.8 M74.15 -64.85 L75.1 -65.9 75.05 -65.95 74.05 -64.9 71.15 -61.45 71.05 -61.45 71.7 -62.3 76.3 -68.0 76.95 -68.65 77.15 -68.85 77.25 -69.2 77.5 -69.5 78.5 -70.75 78.65 -70.45 78.85 -70.75 80.15 -72.2 80.0 -72.4 81.25 -73.5 80.8 -72.9 82.15 -74.25 84.6 -77.05 85.6 -77.9 85.75 -77.8 81.65 -73.2 81.5 -73.35 81.6 -73.15 80.05 -71.35 80.1 -71.35 81.7 -73.05 81.8 -73.0 79.25 -70.0 77.2 -67.85 77.05 -67.7 76.5 -67.15 74.25 -64.75 74.15 -64.85 M72.9 -65.1 L73.6 -65.85 72.45 -64.55 72.4 -64.7 72.9 -65.1 M74.5 -64.8 L74.85 -65.05 76.85 -67.0 Q76.9 -66.2 76.2 -65.45 75.65 -64.8 74.85 -64.7 L74.5 -64.8 M73.95 -66.55 L74.05 -66.6 74.35 -66.9 74.4 -66.85 73.4 -65.85 72.35 -64.85 72.25 -64.9 72.75 -65.3 72.85 -65.35 73.05 -65.75 73.05 -65.8 72.0 -65.05 71.8 -65.15 73.8 -67.45 74.3 -66.9 73.95 -66.55 M73.95 -63.35 L72.75 -62.0 72.3 -61.55 72.15 -61.55 74.0 -63.45 73.95 -63.35 M77.2 -69.55 L77.35 -69.7 78.2 -70.5 77.65 -69.9 77.25 -69.45 77.2 -69.55 M71.1 -63.45 L71.05 -63.35 71.1 -63.45 M77.1 -69.7 L76.4 -70.35 77.95 -72.05 76.4 -70.4 76.3 -70.55 76.25 -70.55 77.15 -71.6 77.65 -72.05 77.3 -71.85 78.1 -72.7 78.5 -73.05 Q78.4 -72.85 78.45 -72.5 L78.5 -72.35 78.4 -72.25 78.5 -72.25 78.55 -72.3 78.7 -71.75 78.75 -71.5 77.1 -69.7 M76.7 -68.7 L75.25 -66.8 Q75.45 -67.0 75.3 -67.35 L76.5 -68.75 76.7 -68.7 M76.85 -67.0 L78.9 -69.2 Q78.85 -68.35 78.25 -67.65 77.6 -66.95 76.85 -67.0 M76.3 -68.95 L75.0 -67.7 74.55 -68.25 75.75 -69.55 76.3 -68.95 M75.55 -68.0 L75.45 -67.95 75.15 -67.55 75.55 -68.0 M73.7 -67.55 L72.75 -66.6 71.6 -65.4 72.75 -66.85 73.75 -68.05 73.65 -67.6 73.7 -67.55 M73.7 -68.6 L73.5 -68.85 73.85 -69.4 75.2 -70.75 75.4 -70.7 75.4 -70.65 75.05 -70.15 73.75 -68.55 73.7 -68.6 M74.9 -69.05 L74.9 -69.0 75.6 -69.65 75.65 -69.65 74.45 -68.4 74.4 -68.45 74.05 -68.4 74.35 -68.7 75.65 -70.0 74.9 -69.05 M72.95 -68.8 L71.8 -67.75 72.4 -68.5 Q72.65 -68.8 72.95 -68.8 M73.35 -69.25 L73.7 -69.9 74.3 -70.6 Q74.55 -70.85 74.85 -70.9 L75.15 -70.8 73.35 -69.2 73.35 -69.25 M75.2 -69.95 L74.6 -69.4 75.2 -70.05 75.5 -70.45 75.6 -70.3 75.35 -70.1 75.2 -69.95 M75.65 -70.6 L77.1 -72.2 76.85 -71.9 81.55 -77.4 81.5 -77.65 77.75 -73.2 75.5 -70.75 75.35 -70.9 75.75 -71.35 75.35 -70.9 75.3 -71.35 75.55 -72.0 75.95 -72.4 Q76.4 -72.9 76.85 -72.55 L76.85 -72.65 Q76.85 -73.65 77.5 -74.4 78.1 -75.0 78.8 -75.1 L78.8 -75.2 Q78.8 -75.55 79.1 -75.85 L79.6 -76.4 Q80.0 -76.85 80.3 -76.65 80.25 -77.4 80.85 -78.05 81.5 -78.75 82.4 -78.7 L82.45 -78.7 82.1 -78.1 81.55 -77.3 79.7 -75.0 77.05 -71.9 76.95 -71.8 76.65 -71.45 76.6 -71.4 75.8 -70.5 75.65 -70.6 M70.25 -66.25 L69.8 -65.85 70.15 -66.35 70.9 -66.85 70.25 -66.25 M69.8 -56.2 L69.3 -55.75 69.1 -55.7 68.85 -55.75 69.85 -56.8 69.9 -56.65 69.8 -56.2 M68.5 -56.0 L68.0 -56.55 69.1 -57.85 69.6 -57.4 69.75 -57.05 68.65 -55.85 68.5 -56.0 M86.7 -76.05 L86.75 -76.2 86.35 -75.95 87.45 -77.15 87.5 -77.1 87.8 -76.45 86.2 -74.85 85.9 -75.05 85.85 -75.1 85.7 -75.2 86.7 -76.05 M65.6 -60.6 L64.45 -59.35 63.7 -58.65 Q63.8 -59.35 64.3 -59.9 L65.6 -60.6 M67.0 -60.0 L67.4 -60.45 67.5 -60.5 67.0 -60.0 M70.9 -59.85 L70.95 -59.9 70.65 -59.5 69.4 -58.15 69.2 -58.0 69.4 -58.2 70.1 -59.1 70.25 -59.25 70.9 -59.85 M66.95 -57.7 L67.35 -58.15 66.95 -57.7 M87.5 -75.75 L86.9 -75.1 Q86.8 -74.95 86.7 -74.95 L87.75 -76.25 87.5 -75.75 M87.35 -79.05 L87.35 -78.9 86.3 -77.8 86.2 -77.8 86.75 -78.45 87.35 -79.05 M87.9 -79.6 L87.8 -79.6 89.1 -80.9 89.1 -80.45 88.9 -79.7 88.65 -79.45 88.8 -79.45 88.6 -79.2 87.5 -78.4 87.65 -78.45 88.45 -79.0 88.25 -78.65 Q87.7 -78.0 86.9 -77.85 87.6 -78.7 87.9 -79.6 M87.5 -80.65 L87.45 -80.8 89.3 -82.8 90.8 -84.75 90.9 -84.75 91.7 -84.7 89.35 -81.85 89.25 -81.75 89.15 -81.6 88.95 -81.6 89.05 -81.5 Q87.3 -79.85 85.85 -77.9 L85.65 -77.95 86.35 -78.55 86.3 -78.65 86.3 -78.7 85.8 -78.4 87.0 -79.65 87.25 -79.85 87.4 -80.15 89.15 -81.95 Q88.3 -81.35 87.5 -80.55 L87.5 -80.65 M87.1 -81.35 L86.5 -81.6 86.85 -81.9 88.7 -83.85 88.8 -83.55 Q89.05 -83.3 89.35 -83.65 L89.5 -83.8 89.65 -83.95 90.4 -84.6 87.3 -81.05 87.1 -81.35 M86.5 -77.05 L86.9 -77.3 87.45 -77.2 86.7 -76.55 85.55 -75.45 85.35 -75.65 86.2 -76.25 85.8 -76.3 85.45 -76.15 86.35 -77.15 86.5 -77.05 M86.0 -77.45 L85.4 -76.6 85.05 -75.95 84.85 -76.2 84.85 -76.1 84.8 -75.7 83.1 -74.3 83.45 -74.7 82.6 -73.85 82.2 -73.45 82.0 -73.2 81.85 -73.2 82.65 -74.0 85.95 -77.55 86.0 -77.45 M86.15 -79.75 L82.95 -76.6 82.95 -76.65 82.85 -76.7 83.15 -77.05 83.15 -77.2 83.2 -77.25 83.1 -77.3 82.6 -76.85 82.35 -76.9 82.15 -76.85 82.35 -77.1 82.0 -76.8 81.95 -76.8 82.0 -76.85 82.35 -77.1 82.45 -77.15 83.5 -77.95 82.55 -77.3 82.35 -77.15 85.2 -80.15 85.7 -80.65 85.7 -80.5 Q85.75 -80.1 86.05 -79.8 L86.15 -79.75 M85.35 -78.7 L86.35 -79.65 86.65 -79.6 84.6 -77.35 84.1 -76.9 84.25 -77.1 84.3 -77.15 84.0 -76.85 83.3 -76.1 83.2 -76.0 83.0 -76.5 85.35 -78.7 M90.1 -80.05 L93.0 -82.65 Q93.0 -81.75 92.4 -81.1 L91.35 -79.95 Q91.15 -79.7 90.85 -79.7 L90.25 -79.9 90.1 -80.05 M91.2 -82.9 L91.1 -82.95 92.5 -84.1 Q92.95 -83.6 93.05 -82.95 L92.1 -82.35 89.7 -80.55 Q89.45 -81.15 89.85 -81.65 L90.3 -81.9 90.75 -81.75 91.25 -82.3 Q91.5 -82.6 91.2 -82.9 M92.3 -84.3 Q91.3 -83.65 90.4 -82.75 L91.95 -84.6 92.3 -84.3 M87.7 -85.25 L88.2 -85.85 89.4 -87.0 89.55 -87.0 90.0 -86.9 89.25 -86.35 88.1 -85.1 83.9 -80.6 84.0 -80.8 84.05 -80.75 84.05 -80.85 84.1 -81.0 84.05 -80.95 84.3 -81.75 85.25 -82.7 85.7 -82.8 85.65 -82.7 85.7 -82.8 85.75 -82.85 87.0 -84.0 87.05 -84.05 87.5 -84.55 88.5 -85.65 87.15 -84.4 87.7 -85.25 M86.9 -84.2 L85.75 -82.85 85.55 -83.05 86.75 -84.35 86.9 -84.2 M89.6 -84.95 L90.45 -86.35 90.35 -86.35 86.2 -81.5 85.9 -81.3 85.75 -81.0 85.45 -80.7 85.45 -80.65 85.25 -80.45 84.75 -79.9 82.1 -77.0 82.0 -76.9 80.85 -76.0 80.95 -76.15 81.6 -77.1 83.1 -79.3 83.6 -80.1 85.35 -81.75 90.1 -86.85 90.4 -86.5 90.65 -86.15 90.8 -85.6 90.55 -84.95 90.1 -84.7 Q89.9 -84.65 89.65 -84.85 L89.6 -84.95 M85.9 -85.25 L85.45 -84.75 85.85 -85.25 85.9 -85.25 M85.8 -85.35 L84.05 -83.55 84.05 -83.8 84.4 -84.45 84.95 -85.1 85.45 -85.4 85.8 -85.35 M86.5 -84.55 L85.1 -83.0 84.95 -82.95 Q84.65 -82.95 84.45 -83.15 L84.25 -83.3 84.3 -83.35 86.15 -85.05 86.5 -84.55 M83.9 -80.8 L83.45 -80.1 82.4 -79.15 Q82.4 -79.45 82.7 -79.8 L83.35 -80.5 83.85 -80.75 83.9 -80.8 M88.8 -84.65 L83.5 -79.15 83.15 -78.75 82.9 -78.55 83.8 -79.2 88.8 -84.65 M83.1 -71.15 Q83.2 -70.75 82.9 -70.5 82.65 -70.2 82.3 -70.2 81.95 -70.25 81.7 -70.5 L81.65 -70.55 81.85 -70.7 82.0 -70.9 82.6 -71.8 82.65 -71.85 82.4 -71.65 81.5 -70.65 81.15 -71.05 79.8 -69.55 Q79.55 -69.3 79.3 -69.3 L79.0 -69.3 79.8 -70.2 82.0 -71.65 81.65 -71.3 82.4 -71.95 82.6 -72.1 82.8 -71.9 83.1 -71.15 M80.65 -73.55 L80.6 -73.6 80.2 -73.1 79.75 -72.6 79.45 -73.0 79.4 -73.05 81.4 -74.95 81.7 -75.25 81.8 -75.15 82.25 -74.95 82.2 -74.9 81.2 -73.8 81.55 -74.35 79.85 -72.5 80.3 -73.0 80.65 -73.55 M81.55 -72.55 L81.75 -72.55 81.95 -72.75 82.35 -72.35 80.3 -70.95 81.55 -72.55 M78.35 -70.9 L78.4 -70.85 78.0 -70.45 78.35 -70.9 78.65 -71.2 78.55 -71.05 78.35 -70.9 M82.3 -73.1 L82.45 -73.3 84.65 -75.15 84.25 -74.4 83.55 -73.6 82.4 -73.15 82.3 -73.1 M81.5 -75.85 L79.2 -73.25 78.9 -73.3 78.65 -73.2 79.05 -73.6 79.45 -73.9 79.25 -73.85 81.5 -76.15 81.5 -75.9 81.5 -75.85 M81.6 -76.3 L80.5 -75.25 81.65 -76.45 81.6 -76.3 M82.45 -79.0 L83.05 -79.55 82.55 -78.8 82.45 -79.0 M78.65 -73.45 L79.7 -74.7 81.75 -76.6 79.75 -74.5 79.1 -73.95 79.35 -74.2 78.65 -73.45 M49.6 -35.65 L52.45 -38.45 52.5 -38.15 Q52.5 -37.15 51.8 -36.35 51.2 -35.7 50.35 -35.6 L49.6 -35.65 M50.55 -38.75 L51.0 -39.1 52.15 -40.5 50.75 -38.25 50.75 -38.4 50.55 -38.75 M48.9 -38.6 L48.05 -37.75 48.7 -38.45 48.8 -38.7 48.9 -38.6 M48.8 -38.8 L47.55 -37.55 47.3 -37.85 47.3 -37.9 48.3 -39.45 48.6 -39.0 48.8 -38.8 M48.8 -36.1 L48.25 -36.7 49.0 -37.5 49.15 -37.7 49.2 -37.7 48.15 -36.85 47.95 -37.05 48.1 -37.3 48.9 -38.35 49.1 -38.45 49.4 -38.05 48.85 -37.2 49.6 -37.85 49.9 -37.55 50.15 -37.35 50.15 -37.25 49.5 -36.35 49.05 -35.85 48.8 -36.1 M47.65 -37.35 L47.85 -37.55 47.9 -37.5 48.4 -37.95 47.75 -37.25 47.65 -37.35" fill="#000000" fill-rule="evenodd" stroke="none"/>
    <path d="M153.55 -175.05 L155.5 -175.35 156.25 -175.75 155.1 -176.05 157.5 -176.3 158.2 -176.65 159.3 -177.55 158.45 -176.4 159.5 -176.45 160.05 -176.25 160.1 -176.2 159.7 -175.95 159.6 -175.9 157.6 -175.65 Q156.0 -174.6 153.65 -174.95 L153.55 -175.05 M139.3 -159.35 L139.25 -159.2 Q139.05 -159.55 139.1 -160.0 L139.3 -160.05 139.3 -159.35 M139.35 -157.95 L139.25 -157.9 138.6 -157.95 138.45 -158.15 138.35 -158.3 139.05 -158.35 139.4 -158.45 139.1 -158.8 Q138.7 -159.25 138.2 -159.35 L138.25 -159.4 139.05 -159.3 139.3 -159.1 139.6 -158.65 139.6 -158.55 139.75 -158.6 139.75 -158.65 140.85 -158.3 140.8 -158.2 Q140.15 -158.55 139.4 -158.0 L139.35 -157.95 M110.1 -142.65 Q109.85 -142.4 109.4 -142.25 L108.85 -141.75 108.6 -141.9 108.75 -142.15 108.6 -142.15 Q109.05 -143.1 110.3 -143.4 L110.3 -143.35 110.45 -143.5 110.55 -143.55 110.45 -143.25 110.3 -143.05 110.15 -142.8 110.1 -142.7 110.1 -142.65 M111.05 -141.15 L111.0 -140.75 111.0 -140.55 109.9 -139.35 109.85 -139.25 109.8 -139.25 108.75 -138.15 108.25 -138.25 110.15 -140.45 110.3 -140.55 111.0 -141.1 111.05 -141.15 M111.3 -139.9 Q111.5 -139.35 110.95 -138.9 L110.75 -138.75 110.25 -138.9 Q110.45 -139.55 111.15 -139.85 L111.3 -139.9 M81.0 -127.55 L80.9 -127.55 81.05 -127.5 81.0 -127.55 M82.85 -125.95 L82.75 -125.95 82.95 -125.55 Q83.0 -125.15 82.6 -125.15 L82.0 -125.55 83.55 -123.8 83.6 -123.7 Q82.3 -124.25 81.3 -125.7 L80.35 -126.55 80.5 -126.6 80.75 -126.65 80.85 -126.65 81.3 -126.25 81.05 -126.55 81.25 -126.65 Q80.75 -126.7 80.5 -127.0 L80.8 -127.1 80.7 -127.6 80.75 -127.65 Q80.35 -127.85 80.2 -128.1 L80.25 -128.15 Q81.75 -127.7 82.45 -126.3 L82.5 -126.2 82.8 -126.05 82.85 -125.95 M46.0 -107.8 L45.85 -108.0 44.5 -108.45 44.2 -108.35 43.95 -108.2 Q43.75 -107.95 43.85 -107.65 L44.05 -106.9 Q44.55 -106.25 45.25 -106.0 45.7 -106.05 45.95 -106.5 L46.05 -107.05 46.0 -107.8 M44.5 -109.25 Q47.65 -108.15 45.9 -105.65 45.65 -105.3 45.25 -105.4 44.2 -105.6 44.05 -106.65 43.4 -107.25 43.55 -108.15 43.6 -108.7 44.0 -109.05 L44.2 -109.15 44.5 -109.2 44.5 -109.25 M42.45 -100.9 L42.5 -100.7 Q43.9 -99.6 44.0 -101.3 L43.85 -101.45 43.25 -101.8 42.95 -101.75 42.75 -101.65 42.55 -101.45 42.45 -101.25 42.45 -100.9 M43.0 -101.9 L43.2 -102.0 43.5 -102.05 44.1 -101.7 44.25 -101.55 44.35 -100.8 44.3 -100.45 Q43.25 -99.3 42.35 -100.75 42.25 -101.55 43.0 -101.9 M50.25 -104.2 L50.25 -104.25 Q52.95 -103.85 51.7 -101.45 51.25 -100.5 50.3 -101.05 49.8 -101.35 49.45 -101.75 49.1 -102.45 49.2 -103.25 49.25 -103.8 49.75 -104.15 L49.85 -104.15 50.25 -104.2 M50.5 -103.75 L50.5 -103.7 50.2 -103.65 50.0 -103.55 49.85 -103.35 49.75 -103.2 49.75 -102.8 49.75 -102.25 Q50.45 -101.35 51.5 -101.95 L51.6 -102.15 Q51.9 -103.5 50.5 -103.75 M2.85 -83.75 L2.8 -83.95 Q2.55 -84.65 1.75 -84.7 L1.75 -84.65 1.45 -84.6 1.3 -84.55 1.0 -84.2 Q0.7 -83.8 0.85 -83.3 2.2 -82.2 2.85 -83.75 M1.2 -84.9 L1.5 -84.95 1.5 -85.0 Q3.55 -84.65 2.75 -82.55 L2.6 -82.4 Q1.55 -81.75 0.75 -82.7 L0.7 -84.2 Q0.7 -84.6 1.05 -84.9 L1.2 -84.9 M34.1 -58.2 L34.1 -58.0 Q34.75 -56.8 35.85 -57.4 L35.95 -57.6 Q36.65 -59.4 35.0 -60.15 L35.0 -60.1 34.7 -60.05 34.55 -60.0 34.25 -59.7 34.1 -59.5 34.1 -58.95 34.1 -58.25 34.1 -58.2 M35.25 -60.7 Q38.35 -59.55 36.3 -56.9 35.9 -56.4 35.3 -56.7 33.35 -57.6 33.8 -59.95 34.15 -60.55 34.85 -60.65 L35.25 -60.7 M6.6 -4.85 L6.75 -4.95 Q8.85 -4.05 7.2 -2.65 L6.55 -2.6 Q5.85 -2.95 5.75 -3.55 6.0 -3.15 6.5 -3.15 L6.9 -3.3 7.35 -4.0 7.3 -4.2 6.6 -4.85 M15.8 -3.8 L16.3 -4.2 16.4 -4.75 16.45 -5.15 16.3 -5.3 15.5 -5.8 15.2 -5.75 15.05 -5.7 14.25 -5.15 14.55 -5.9 Q14.85 -6.25 15.25 -6.25 18.45 -5.25 16.2 -3.1 L15.5 -2.8 Q14.45 -2.7 13.85 -3.5 13.75 -3.85 13.8 -4.25 L14.1 -4.85 Q14.25 -3.5 15.05 -3.55 L15.7 -3.65 15.8 -3.8 M64.55 -43.85 L64.5 -43.85 Q64.25 -43.7 64.3 -43.45 L64.25 -43.0 Q64.65 -42.3 65.45 -42.65 L65.6 -42.95 65.75 -43.3 65.65 -43.5 65.0 -44.0 64.75 -43.95 64.7 -43.95 64.55 -43.9 64.55 -43.85 M65.25 -44.2 Q67.35 -43.3 65.5 -42.05 L64.45 -42.15 Q63.8 -42.65 64.05 -43.45 64.35 -43.9 64.9 -44.1 L65.25 -44.2 M84.5 -81.55 Q86.9 -80.35 85.15 -78.15 84.85 -77.75 84.25 -78.0 82.5 -78.85 83.5 -80.85 83.85 -81.5 84.5 -81.55 M83.9 -79.2 Q84.45 -78.75 85.2 -79.0 L85.3 -79.2 85.45 -79.4 85.45 -79.75 85.5 -80.15 85.4 -80.3 Q85.05 -81.0 84.25 -81.05 L83.95 -81.0 83.8 -80.95 83.7 -80.8 83.5 -80.6 83.45 -80.45 83.45 -80.05 83.5 -79.7 83.7 -79.45 83.9 -79.2 M89.25 -66.2 Q91.5 -65.45 90.0 -63.75 89.45 -63.15 88.75 -63.6 86.9 -64.75 88.75 -66.0 L89.25 -66.2 M88.45 -65.0 L88.45 -64.65 88.5 -64.45 Q89.9 -63.35 90.0 -65.05 L89.85 -65.2 89.25 -65.55 89.05 -65.5 89.0 -65.55 88.75 -65.5 88.5 -65.3 88.45 -65.15 88.45 -65.0 M3.6 30.7 L3.6 30.75 3.7 31.1 4.25 31.45 4.6 31.25 4.95 30.75 4.9 30.55 4.7 30.25 Q5.35 30.4 5.55 31.05 L5.55 31.25 Q4.7 33.2 3.6 31.35 3.4 31.0 3.6 30.7 M-31.0 -52.75 L-30.45 -52.4 -30.3 -52.25 Q-30.1 -51.55 -30.4 -50.95 L-30.55 -50.65 Q-31.45 -50.2 -32.0 -51.0 L-32.0 -51.55 -32.0 -51.95 -31.55 -52.5 -31.45 -52.65 -31.3 -52.7 -31.0 -52.75 M-31.65 -51.9 L-31.7 -51.9 -31.75 -51.75 Q-31.75 -51.3 -31.25 -51.25 L-30.95 -51.4 -30.85 -51.6 -30.8 -51.95 -30.95 -52.1 -31.25 -52.25 -31.25 -52.2 -31.3 -52.15 -31.4 -52.25 -31.5 -52.25 -31.65 -52.2 -31.8 -52.05 -31.65 -51.9 M-3.5 -43.7 Q-2.1 -42.65 -1.3 -44.15 L-1.35 -44.3 Q-1.7 -45.4 -2.75 -45.75 L-3.15 -45.65 -3.25 -45.6 -3.65 -45.1 -3.7 -44.0 Q-3.95 -44.6 -3.8 -45.5 L-2.9 -46.15 -2.5 -46.2 Q0.0 -45.15 -1.55 -43.15 -1.9 -42.75 -2.5 -42.95 -3.2 -43.2 -3.5 -43.7 M-70.35 5.6 Q-68.6 6.8 -70.6 7.65 L-71.15 7.55 -71.65 6.9 Q-70.65 7.6 -70.05 6.35 L-70.1 6.2 Q-70.15 5.8 -70.35 5.6 M-43.15 59.55 L-43.25 59.5 -43.25 59.55 -43.55 59.6 -43.65 59.75 -43.95 60.05 Q-44.2 61.55 -42.65 61.45 L-42.3 61.1 Q-42.0 60.8 -42.0 60.35 L-42.1 60.2 Q-42.35 59.6 -43.0 59.5 L-43.15 59.55 M-43.15 59.2 L-42.75 59.15 -42.75 59.1 Q-40.65 60.35 -42.45 62.3 L-43.8 62.35 -44.15 62.0 Q-44.6 60.35 -43.45 59.4 L-43.15 59.2 M-74.25 93.85 Q-71.75 94.7 -72.15 97.55 -72.55 100.85 -75.3 99.05 L-75.8 98.3 Q-76.15 96.0 -74.95 94.3 L-74.25 93.85 M-73.75 94.6 L-73.75 94.65 Q-74.65 94.6 -75.2 95.3 L-75.3 95.85 -75.05 97.95 -74.7 98.25 Q-73.85 99.0 -73.2 98.0 -71.8 95.75 -73.75 94.6 M-129.5 69.7 Q-127.6 70.8 -128.95 72.8 L-129.15 72.95 Q-131.8 72.8 -130.55 70.45 -130.2 69.7 -129.5 69.7 M-130.05 72.1 Q-129.3 72.65 -128.7 71.25 L-128.7 71.05 Q-128.95 70.3 -129.75 70.2 -130.15 70.2 -130.5 70.5 -130.8 70.75 -130.7 71.1 L-130.9 71.6 -130.25 72.1 -130.05 72.1 M-90.25 50.25 Q-88.25 51.0 -89.35 52.8 L-89.5 52.95 Q-92.15 53.0 -90.9 50.5 L-90.75 50.35 -90.6 50.35 -90.25 50.3 -90.25 50.25 M-90.55 51.05 L-90.75 51.1 -90.95 51.3 -91.05 51.5 -91.05 51.7 -91.05 51.85 -91.0 52.05 Q-89.45 53.25 -89.25 51.45 L-89.4 51.25 Q-89.75 50.9 -90.25 50.95 L-90.55 51.05 M-94.5 68.8 L-94.85 68.95 Q-96.1 69.7 -95.65 71.25 L-95.0 71.8 -94.0 71.65 Q-92.4 69.8 -94.5 68.8 M-94.5 68.35 Q-91.85 69.2 -93.05 71.8 -93.9 73.6 -95.4 72.2 -96.05 71.6 -96.1 70.7 -96.2 68.75 -94.5 68.35 M-125.75 101.85 L-125.75 101.75 -125.6 101.55 -125.45 101.35 -125.0 101.3 -125.0 101.25 Q-124.5 101.4 -124.15 101.75 L-124.0 101.95 Q-123.85 103.25 -124.7 103.3 L-124.2 102.8 -124.15 102.6 Q-124.05 101.6 -125.0 101.35 L-125.3 101.45 -125.75 101.85 M-135.05 138.55 L-135.25 138.45 -135.5 138.5 -135.75 138.7 -135.8 138.85 -135.75 139.25 -135.75 139.5 Q-135.35 140.2 -134.55 139.85 L-134.4 139.55 -134.25 139.2 -134.3 139.0 Q-134.45 138.5 -135.0 138.5 L-135.05 138.55 M-135.0 138.25 Q-132.75 139.45 -134.9 140.4 L-135.45 140.3 Q-136.55 139.35 -135.5 138.35 L-135.35 138.35 -135.0 138.3 -135.0 138.25 M-104.0 152.05 L-104.0 152.1 -104.55 152.35 -104.7 152.75 -104.55 153.3 -104.25 153.4 -104.0 153.45 -103.65 153.25 -103.3 152.75 -103.35 152.55 Q-103.5 152.1 -104.0 152.05 M-104.9 153.5 Q-105.2 152.4 -104.1 151.9 L-103.75 151.8 Q-101.65 152.7 -103.5 153.95 L-104.55 153.85 -104.9 153.5 M-111.05 159.3 L-110.95 159.55 -110.9 159.75 Q-110.95 160.2 -111.35 160.45 L-111.75 160.6 -112.55 160.1 -112.6 159.75 -112.55 159.35 -112.5 159.3 -112.45 159.4 -112.5 159.75 Q-112.1 160.45 -111.3 160.1 L-111.15 159.8 -111.0 159.45 -111.05 159.3 M-117.5 150.35 Q-115.5 150.95 -116.25 153.05 -116.7 154.2 -117.95 153.6 L-118.75 152.95 -118.85 152.2 -118.8 151.45 Q-118.45 150.55 -117.5 150.4 L-117.5 150.35 M-117.25 150.55 L-117.6 150.65 Q-118.35 151.0 -118.7 151.75 L-118.5 152.45 Q-117.85 153.25 -117.0 152.65 -115.15 151.45 -117.25 150.55 M-113.25 164.1 Q-112.6 164.2 -112.45 164.8 L-112.4 165.0 Q-112.45 165.45 -112.85 165.7 L-113.25 165.85 -114.05 165.35 -114.1 165.0 -114.05 164.6 -113.4 164.15 -113.5 164.2 -113.9 164.7 -113.9 164.85 Q-113.75 165.35 -113.25 165.35 L-113.0 165.3 -112.85 165.15 -112.65 164.8 -112.65 164.65 Q-112.8 164.2 -113.25 164.1 M-69.3 107.25 L-68.3 107.35 -68.15 107.05 -68.0 106.7 -68.1 106.5 Q-68.25 106.05 -68.75 106.0 L-68.9 106.05 -68.5 105.95 Q-67.7 106.05 -67.45 106.8 L-67.45 107.0 Q-68.25 108.85 -69.3 107.25" fill="#2b2b2b" fill-rule="evenodd" stroke="none"/>
    <path d="M46.0 -107.8 L46.05 -107.05 45.95 -106.5 Q45.7 -106.05 45.25 -106.0 44.55 -106.25 44.05 -106.9 L43.85 -107.65 Q43.75 -107.95 43.95 -108.2 L44.2 -108.35 44.5 -108.45 45.85 -108.0 46.0 -107.8 M42.8 -101.15 L42.75 -101.0 Q42.75 -100.55 43.25 -100.5 L43.55 -100.65 43.65 -100.8 43.7 -101.2 43.55 -101.35 43.25 -101.5 43.25 -101.45 42.95 -101.4 42.8 -101.15 M45.1 -107.3 L45.15 -107.5 45.05 -108.05 44.75 -108.2 44.75 -108.15 Q44.0 -108.0 44.45 -107.2 L44.75 -107.05 45.05 -107.2 45.1 -107.3 M42.45 -100.9 L42.45 -101.25 42.55 -101.45 42.75 -101.65 42.95 -101.75 43.25 -101.8 43.85 -101.45 44.0 -101.3 Q43.9 -99.6 42.5 -100.7 L42.45 -100.9 M50.5 -103.75 Q51.9 -103.5 51.6 -102.15 L51.5 -101.95 Q50.45 -101.35 49.75 -102.25 L49.75 -102.8 49.75 -103.2 49.85 -103.35 50.0 -103.55 50.2 -103.65 50.5 -103.7 50.5 -103.75 M50.25 -103.05 Q49.8 -102.85 49.85 -102.4 50.0 -101.9 50.5 -101.9 L50.75 -101.95 50.9 -102.1 51.1 -102.45 51.1 -102.6 50.5 -103.15 50.25 -103.05 M2.85 -83.75 Q2.2 -82.2 0.85 -83.3 0.7 -83.8 1.0 -84.2 L1.3 -84.55 1.45 -84.6 1.75 -84.65 1.75 -84.7 Q2.55 -84.65 2.8 -83.95 L2.85 -83.75 M1.75 -84.65 L1.5 -84.55 Q1.05 -84.35 1.1 -83.9 1.25 -83.4 1.75 -83.4 L2.0 -83.45 2.15 -83.6 2.35 -83.95 2.35 -84.1 1.75 -84.65 M34.1 -58.25 L34.1 -58.95 34.1 -59.5 34.25 -59.7 34.55 -60.0 34.7 -60.05 35.0 -60.1 35.0 -60.15 Q36.65 -59.4 35.95 -57.6 L35.85 -57.4 Q34.75 -56.8 34.1 -58.0 L34.1 -58.2 34.2 -57.9 34.75 -57.55 35.1 -57.75 35.45 -58.25 35.4 -58.45 34.75 -58.95 34.75 -58.9 34.2 -58.65 34.1 -58.25 M5.75 -3.55 L5.7 -3.65 5.65 -4.0 5.7 -4.4 Q5.95 -4.85 6.5 -4.85 L6.5 -4.9 6.6 -4.85 7.3 -4.2 7.35 -4.0 6.9 -3.3 6.5 -3.15 Q6.0 -3.15 5.75 -3.55 M15.8 -3.8 L15.85 -3.95 16.0 -4.3 15.9 -4.5 Q15.7 -4.95 15.25 -5.0 L14.95 -4.95 14.8 -4.9 14.6 -4.55 14.5 -4.0 Q14.7 -3.65 15.05 -3.55 14.25 -3.5 14.1 -4.85 L14.05 -4.95 14.25 -5.15 15.05 -5.7 15.2 -5.75 15.5 -5.8 16.3 -5.3 16.45 -5.15 16.4 -4.75 16.3 -4.2 15.8 -3.8 M6.0 -4.05 L5.95 -3.9 6.0 -3.5 6.5 -3.2 6.75 -3.25 6.85 -3.3 6.95 -3.65 6.95 -4.0 6.8 -4.15 6.5 -4.3 6.25 -4.25 6.0 -4.05 M64.55 -43.85 L64.55 -43.9 64.7 -43.95 64.75 -43.95 65.0 -44.0 65.65 -43.5 65.75 -43.3 65.6 -42.95 65.45 -42.65 Q64.65 -42.3 64.25 -43.0 L64.3 -43.45 64.3 -43.4 64.6 -43.15 64.75 -43.0 64.85 -43.1 65.0 -43.15 65.05 -43.25 65.1 -43.65 65.0 -43.75 64.75 -43.95 64.55 -43.85 M83.7 -79.45 L83.5 -79.7 83.45 -80.05 83.45 -80.45 83.5 -80.6 83.7 -80.8 83.8 -80.95 83.95 -81.0 84.25 -81.05 Q85.05 -81.0 85.4 -80.3 L85.5 -80.15 85.45 -79.75 85.45 -79.4 85.3 -79.2 85.2 -79.0 Q84.45 -78.75 83.9 -79.2 L84.25 -79.15 84.5 -79.2 84.65 -79.35 84.85 -79.7 84.85 -79.85 84.5 -80.3 84.25 -80.45 84.0 -80.35 83.85 -80.2 Q83.55 -80.0 83.6 -79.65 L83.7 -79.45 M88.45 -65.0 L88.5 -64.75 89.0 -64.45 89.25 -64.5 89.35 -64.55 89.45 -64.9 89.45 -65.25 89.3 -65.4 89.05 -65.5 89.25 -65.55 89.85 -65.2 90.0 -65.05 Q89.9 -63.35 88.5 -64.45 L88.45 -64.65 88.45 -65.0 M4.7 30.25 L4.9 30.55 4.95 30.75 4.6 31.25 4.25 31.45 3.7 31.1 3.6 30.75 3.6 30.7 3.7 30.35 3.75 30.75 4.25 31.05 4.5 31.0 4.6 30.95 4.7 30.6 4.7 30.25 M-31.3 -52.15 L-31.25 -52.2 -31.25 -52.25 -30.95 -52.1 -30.8 -51.95 -30.85 -51.6 -30.95 -51.4 -31.25 -51.25 Q-31.75 -51.3 -31.75 -51.75 L-31.7 -51.9 -31.65 -51.9 -31.5 -51.75 -31.2 -52.05 -31.3 -52.15 M-2.75 -44.95 L-2.75 -44.9 -3.3 -44.65 -3.4 -44.25 -3.3 -43.9 -2.75 -43.55 -2.4 -43.75 Q-2.1 -43.9 -2.05 -44.25 L-2.15 -44.45 Q-2.25 -44.9 -2.75 -44.95 M-3.7 -44.0 L-3.65 -45.1 -3.25 -45.6 -3.15 -45.65 -2.75 -45.75 Q-1.7 -45.4 -1.35 -44.3 L-1.3 -44.15 Q-2.1 -42.65 -3.5 -43.7 L-3.65 -43.8 -3.7 -44.0 M-70.35 5.6 Q-70.15 5.8 -70.1 6.2 L-70.05 6.35 Q-70.65 7.6 -71.65 6.9 L-71.9 6.7 Q-72.05 6.2 -71.75 5.8 L-71.45 5.45 -71.3 5.4 -71.0 5.35 -71.0 5.3 -70.35 5.6 M-71.25 5.75 L-71.5 5.8 -71.6 6.0 -71.7 6.35 -71.25 6.7 -71.05 6.6 -70.8 6.3 -70.9 6.15 -71.15 5.75 -71.25 5.75 M-43.15 59.55 L-43.0 59.5 Q-42.35 59.6 -42.1 60.2 L-42.0 60.35 Q-42.0 60.8 -42.3 61.1 L-42.65 61.45 Q-44.2 61.55 -43.95 60.05 L-43.65 59.75 -43.7 59.85 -43.75 60.0 Q-43.75 60.45 -43.25 60.5 L-42.95 60.35 -42.85 60.2 -42.8 59.8 -42.95 59.65 -43.15 59.55 M-73.75 94.6 Q-71.8 95.75 -73.2 98.0 -73.85 99.0 -74.7 98.25 L-75.05 97.95 -75.3 95.85 -75.2 95.3 Q-74.65 94.6 -73.75 94.65 L-73.75 94.6 M-74.75 97.5 Q-74.35 98.2 -73.55 97.85 L-73.4 97.55 -73.25 97.2 -73.3 97.0 Q-73.5 96.55 -74.0 96.5 L-74.3 96.55 -74.45 96.6 -74.65 96.95 -74.75 97.5 M-130.7 71.1 Q-130.8 70.75 -130.5 70.5 -130.15 70.2 -129.75 70.2 -128.95 70.3 -128.7 71.05 L-128.7 71.25 Q-129.3 72.65 -130.05 72.1 L-130.0 72.05 -129.85 71.9 -129.65 71.55 -129.65 71.4 Q-129.8 70.95 -130.25 70.85 L-130.5 70.95 -130.7 71.1 M-90.55 51.05 L-90.25 50.95 Q-89.75 50.9 -89.4 51.25 L-89.25 51.45 Q-89.45 53.25 -91.0 52.05 L-91.05 51.85 -91.05 51.7 -91.05 51.5 -90.95 51.3 -90.75 51.1 -90.55 51.05 M-90.25 52.35 L-90.0 52.3 -89.85 52.15 -89.65 51.8 -89.65 51.65 Q-89.8 51.2 -90.25 51.1 L-90.5 51.2 Q-90.95 51.4 -90.9 51.85 -90.75 52.35 -90.25 52.35 M-94.5 68.8 Q-92.4 69.8 -94.0 71.65 L-95.0 71.8 -95.65 71.25 Q-96.1 69.7 -94.85 68.95 L-94.5 68.8 M-95.05 69.8 L-95.2 69.85 -95.4 70.2 -95.5 70.75 Q-95.1 71.45 -94.3 71.1 L-94.15 70.8 -94.0 70.45 -94.05 70.25 Q-94.25 69.8 -94.75 69.75 L-95.05 69.8 M-125.75 101.85 L-125.3 101.45 -125.0 101.35 Q-124.05 101.6 -124.15 102.6 L-124.2 102.8 -124.7 103.3 -125.65 103.0 -125.8 102.85 -125.8 102.75 -125.8 102.65 -125.85 102.6 -125.75 101.85 M-124.65 102.35 L-124.7 102.2 -125.0 102.05 -125.25 102.15 -125.45 102.6 -125.0 102.95 -124.75 102.85 -124.7 102.75 -124.65 102.35 M-135.05 138.55 L-135.0 138.5 Q-134.45 138.5 -134.3 139.0 L-134.25 139.2 -134.4 139.55 -134.55 139.85 Q-135.35 140.2 -135.75 139.5 L-135.75 139.25 -135.25 139.55 -135.0 139.5 -134.9 139.45 -134.8 139.1 -134.8 138.75 -134.95 138.6 -135.05 138.55 M-104.0 152.05 Q-103.5 152.1 -103.35 152.55 L-103.3 152.75 -103.65 153.25 -104.0 153.45 -104.25 153.4 -104.55 153.3 -104.7 152.75 -104.55 152.35 -104.0 152.1 -104.0 152.05 M-104.25 153.0 L-103.95 152.7 -104.15 152.5 -104.25 152.5 -104.4 152.55 -104.55 152.7 -104.25 153.0 M-111.8 158.8 L-111.75 158.75 Q-111.25 158.8 -111.05 159.25 L-111.05 159.3 -111.0 159.45 -111.15 159.8 -111.3 160.1 Q-112.1 160.45 -112.5 159.75 L-112.45 159.4 Q-112.4 159.7 -112.0 159.75 -111.55 159.65 -111.5 159.25 L-111.6 159.05 -111.8 158.8 M-117.25 150.55 Q-115.15 151.45 -117.0 152.65 -117.85 153.25 -118.5 152.45 L-118.7 151.75 Q-118.35 151.0 -117.6 150.65 L-117.25 150.55 M-117.15 151.55 L-117.15 151.4 Q-117.3 150.95 -117.75 150.85 L-118.0 150.95 Q-118.45 151.15 -118.4 151.6 L-117.75 152.1 -117.5 152.05 -117.35 151.9 -117.15 151.55 M-113.4 164.15 L-113.25 164.1 Q-112.8 164.2 -112.65 164.65 L-112.65 164.8 -112.85 165.15 -113.0 165.3 -113.25 165.35 Q-113.75 165.35 -113.9 164.85 L-113.9 164.7 -113.5 164.2 -113.4 164.15 M-113.9 164.7 L-113.85 164.85 -113.7 165.05 -113.15 164.8 -113.2 164.65 -113.4 164.45 -113.5 164.45 -113.9 164.7 M-68.9 106.05 L-68.75 106.0 Q-68.25 106.05 -68.1 106.5 L-68.0 106.7 -68.15 107.05 -68.3 107.35 -69.3 107.25 -69.5 107.0 -69.45 106.65 -69.0 107.0 -68.7 106.85 -68.6 106.7 -68.55 106.3 -68.7 106.15 -68.9 106.05 M-69.0 106.05 L-69.15 106.1 -69.05 106.05 -69.0 106.05" fill="#c3c3c3" fill-rule="evenodd" stroke="none"/>
    <path d="M45.1 -107.3 L45.05 -107.2 44.75 -107.05 44.45 -107.2 Q44.0 -108.0 44.75 -108.15 L44.75 -108.2 45.05 -108.05 45.15 -107.5 45.1 -107.3 M42.8 -101.15 L42.95 -101.4 43.25 -101.45 43.25 -101.5 43.55 -101.35 43.7 -101.2 43.65 -100.8 43.55 -100.65 43.25 -100.5 Q42.75 -100.55 42.75 -101.0 L42.8 -101.15 M50.25 -103.05 L50.5 -103.15 51.1 -102.6 51.1 -102.45 50.9 -102.1 50.75 -101.95 50.5 -101.9 Q50.0 -101.9 49.85 -102.4 49.8 -102.85 50.25 -103.05 M1.75 -84.65 L2.35 -84.1 2.35 -83.95 2.15 -83.6 2.0 -83.45 1.75 -83.4 Q1.25 -83.4 1.1 -83.9 1.05 -84.35 1.5 -84.55 L1.75 -84.65 M34.1 -58.2 L34.1 -58.25 34.2 -58.65 34.75 -58.9 34.75 -58.95 35.4 -58.45 35.45 -58.25 35.1 -57.75 34.75 -57.55 34.2 -57.9 34.1 -58.2 M6.0 -4.05 L6.25 -4.25 6.5 -4.3 6.8 -4.15 6.95 -4.0 6.95 -3.65 6.85 -3.3 6.75 -3.25 6.5 -3.2 6.0 -3.5 5.95 -3.9 6.0 -4.05 M15.05 -3.55 Q14.7 -3.65 14.5 -4.0 L14.6 -4.55 14.8 -4.9 14.95 -4.95 15.25 -5.0 Q15.7 -4.95 15.9 -4.5 L16.0 -4.3 15.85 -3.95 15.8 -3.8 15.7 -3.65 15.05 -3.55 M64.3 -43.45 Q64.25 -43.7 64.5 -43.85 L64.55 -43.85 64.75 -43.95 65.0 -43.75 65.1 -43.65 65.05 -43.25 65.0 -43.15 64.85 -43.1 64.75 -43.0 64.6 -43.15 64.3 -43.4 64.3 -43.45 M83.9 -79.2 L83.7 -79.45 83.6 -79.65 Q83.55 -80.0 83.85 -80.2 L84.0 -80.35 84.25 -80.45 84.5 -80.3 84.85 -79.85 84.85 -79.7 84.65 -79.35 84.5 -79.2 84.25 -79.15 83.9 -79.2 M89.05 -65.5 L89.3 -65.4 89.45 -65.25 89.45 -64.9 89.35 -64.55 89.25 -64.5 89.0 -64.45 88.5 -64.75 88.45 -65.0 88.45 -65.15 88.5 -65.3 88.75 -65.5 89.0 -65.55 89.05 -65.5 M3.7 30.35 L3.75 30.2 4.0 30.0 4.25 29.95 4.55 30.1 4.7 30.25 4.7 30.6 4.6 30.95 4.5 31.0 4.25 31.05 3.75 30.75 3.7 30.35 M-31.65 -51.9 L-31.8 -52.05 -31.65 -52.2 -31.5 -52.25 -31.4 -52.25 -31.3 -52.15 -31.2 -52.05 -31.5 -51.75 -31.65 -51.9 M-2.75 -44.95 Q-2.25 -44.9 -2.15 -44.45 L-2.05 -44.25 Q-2.1 -43.9 -2.4 -43.75 L-2.75 -43.55 -3.3 -43.9 -3.4 -44.25 -3.3 -44.65 -2.75 -44.9 -2.75 -44.95 M-71.25 5.75 L-71.15 5.75 -70.9 6.15 -70.8 6.3 -71.05 6.6 -71.25 6.7 -71.7 6.35 -71.6 6.0 -71.5 5.8 -71.25 5.75 M-43.65 59.75 L-43.55 59.6 -43.25 59.55 -43.25 59.5 -43.15 59.55 -42.95 59.65 -42.8 59.8 -42.85 60.2 -42.95 60.35 -43.25 60.5 Q-43.75 60.45 -43.75 60.0 L-43.7 59.85 -43.65 59.75 M-74.75 97.5 L-74.65 96.95 -74.45 96.6 -74.3 96.55 -74.0 96.5 Q-73.5 96.55 -73.3 97.0 L-73.25 97.2 -73.4 97.55 -73.55 97.85 Q-74.35 98.2 -74.75 97.5 M-130.7 71.1 L-130.5 70.95 -130.25 70.85 Q-129.8 70.95 -129.65 71.4 L-129.65 71.55 -129.85 71.9 -130.0 72.05 -130.05 72.1 -130.25 72.1 -130.9 71.6 -130.7 71.1 M-90.25 52.35 Q-90.75 52.35 -90.9 51.85 -90.95 51.4 -90.5 51.2 L-90.25 51.1 Q-89.8 51.2 -89.65 51.65 L-89.65 51.8 -89.85 52.15 -90.0 52.3 -90.25 52.35 M-95.05 69.8 L-94.75 69.75 Q-94.25 69.8 -94.05 70.25 L-94.0 70.45 -94.15 70.8 -94.3 71.1 Q-95.1 71.45 -95.5 70.75 L-95.4 70.2 -95.2 69.85 -95.05 69.8 M-124.65 102.35 L-124.7 102.75 -124.75 102.85 -125.0 102.95 -125.45 102.6 -125.25 102.15 -125.0 102.05 -124.7 102.2 -124.65 102.35 M-135.75 139.25 L-135.8 138.85 -135.75 138.7 -135.5 138.5 -135.25 138.45 -135.05 138.55 -134.95 138.6 -134.8 138.75 -134.8 139.1 -134.9 139.45 -135.0 139.5 -135.25 139.55 -135.75 139.25 M-104.25 153.0 L-104.55 152.7 -104.4 152.55 -104.25 152.5 -104.15 152.5 -103.95 152.7 -104.25 153.0 M-112.5 159.3 L-112.5 159.25 -112.35 158.9 -112.25 158.75 -112.2 158.7 -112.0 158.7 -111.9 158.7 -111.8 158.8 -111.6 159.05 -111.5 159.25 Q-111.55 159.65 -112.0 159.75 -112.4 159.7 -112.45 159.4 L-112.5 159.3 M-117.15 151.55 L-117.35 151.9 -117.5 152.05 -117.75 152.1 -118.4 151.6 Q-118.45 151.15 -118.0 150.95 L-117.75 150.85 Q-117.3 150.95 -117.15 151.4 L-117.15 151.55 M-113.9 164.7 L-113.5 164.45 -113.4 164.45 -113.2 164.65 -113.15 164.8 -113.7 165.05 -113.85 164.85 -113.9 164.7 M-69.0 106.05 L-69.0 106.0 -68.9 106.05 -68.7 106.15 -68.55 106.3 -68.6 106.7 -68.7 106.85 -69.0 107.0 -69.45 106.65 -69.5 106.5 -69.45 106.35 -69.3 106.1 -69.2 106.1 -69.15 106.1 -69.0 106.05" fill="#ffffff" fill-rule="evenodd" stroke="none"/>
    <path d="M45.1 -18.7 L45.45 -17.4 45.55 -17.2 Q45.95 -14.85 45.8 -12.5 L45.8 -12.3 45.5 -12.0 45.2 -12.15 44.9 -18.65 45.1 -18.7 M44.05 -14.3 L44.4 -12.45 44.45 -12.25 44.35 -11.9 44.3 -11.7 43.75 -12.65 Q43.65 -13.5 43.85 -14.25 L44.05 -14.3 M47.25 -14.5 L46.95 -14.65 Q46.85 -16.1 47.15 -17.55 L47.3 -17.65 47.55 -15.0 47.55 -14.8 47.25 -14.5 M99.35 -72.25 L98.1 -72.4 Q97.75 -72.6 97.8 -72.95 L98.05 -73.05 Q98.35 -72.6 99.05 -72.4 L99.35 -72.25 M98.55 -71.5 L98.6 -71.45 Q97.85 -71.25 97.15 -71.75 L97.0 -71.9 96.95 -72.25 97.05 -72.3 Q97.65 -71.7 98.55 -71.5 M98.0 -70.25 L97.9 -70.05 97.8 -69.9 97.6 -69.9 96.8 -70.15 95.6 -70.3 95.35 -70.5 94.5 -70.8 94.55 -70.85 94.75 -71.0 97.85 -70.35 98.0 -70.25 M12.8 18.7 Q13.25 21.1 12.65 23.4 L12.6 23.55 12.35 23.8 12.7 18.75 12.8 18.7 M14.55 19.2 Q14.8 20.75 14.65 22.35 L14.6 22.55 14.35 22.8 Q14.25 21.05 14.45 19.25 L14.55 19.2 M11.8 20.45 Q12.05 22.7 11.55 24.95 L11.5 25.05 Q11.25 22.85 11.6 20.5 L11.8 20.45 M11.05 21.95 Q11.3 23.85 10.8 25.65 L10.75 25.8 10.9 22.0 Q10.9 21.9 11.05 21.95 M13.5 24.3 L13.6 22.0 13.8 21.95 Q14.15 23.1 13.6 24.15 L13.5 24.3 M-55.2 36.45 Q-57.5 43.4 -59.05 50.65 -60.65 57.95 -64.05 64.55 L-64.75 66.05 -65.0 66.2 -65.25 66.05 Q-61.9 59.25 -60.0 51.8 -58.25 44.75 -56.0 37.9 L-55.2 36.45 M-58.65 51.85 L-57.2 47.2 Q-58.05 54.55 -61.6 61.1 L-64.75 67.55 -59.25 53.7 -58.65 51.85 M-57.05 53.55 L-57.4 53.8 Q-57.25 52.35 -56.6 51.05 L-56.45 50.95 -57.05 53.4 -57.05 53.55 M-55.2 92.95 Q-55.0 98.25 -56.65 103.25 L-56.75 103.35 Q-57.2 101.5 -56.45 99.4 -55.85 97.75 -55.85 95.95 -55.8 94.2 -55.2 92.95 M-52.95 93.95 Q-52.65 96.55 -52.8 99.2 L-52.8 99.35 -53.15 99.6 Q-53.4 96.8 -53.05 94.0 L-52.95 93.95 M-51.5 97.55 Q-52.1 93.3 -50.3 89.35 L-50.15 89.3 -49.85 89.85 -49.8 90.05 Q-50.85 93.65 -51.05 97.35 L-51.05 97.55 -51.5 97.55 M-49.6 95.1 L-49.65 95.3 -49.9 95.55 Q-50.05 94.55 -49.8 93.5 L-49.7 93.45 Q-49.5 94.25 -49.6 95.1 M-93.15 141.55 L-93.4 141.8 Q-93.3 140.35 -93.55 139.0 L-93.45 138.95 Q-93.0 140.1 -93.1 141.35 L-93.15 141.55 M-94.7 140.95 Q-94.2 143.2 -94.05 145.45 L-94.05 145.6 -94.4 145.85 -94.45 144.2 -94.45 144.0 -94.8 141.0 -94.7 140.95 M-95.9 141.25 L-95.7 141.2 Q-95.0 143.0 -95.2 144.95 L-95.25 145.05 Q-95.45 143.75 -95.95 142.5 L-96.0 142.3 -95.9 141.25 M-96.7 142.1 Q-96.35 142.45 -96.3 142.85 L-96.3 143.05 Q-95.45 145.35 -95.7 147.95 L-95.65 148.1 -95.7 148.25 -95.9 148.35 -96.25 148.0 -96.5 144.05 -96.5 143.7 -96.65 143.5 -96.75 143.3 Q-96.7 142.75 -96.8 142.15 L-96.7 142.1 M-97.85 145.05 L-97.75 145.25 -97.4 147.7 -97.4 147.85 -97.2 148.05 -97.25 149.0 -97.25 149.2 -97.65 149.45 -97.9 148.5 -97.95 148.3 -98.15 148.1 -98.3 144.0 -98.2 143.95 -97.85 145.05 M-133.2 121.7 Q-135.15 125.0 -136.5 128.6 L-136.55 128.8 -136.9 129.05 Q-135.9 125.05 -133.4 121.8 L-133.2 121.7 M-133.7 119.1 L-137.55 124.2 -137.7 124.35 -137.9 124.15 -138.0 124.0 Q-136.5 121.15 -133.85 119.15 L-133.7 119.1 M-129.25 121.8 L-129.15 121.8 -129.3 123.15 -129.3 123.3 -132.75 129.85 -133.15 130.1 -132.75 128.45 -132.65 128.25 -132.65 128.05 -132.7 127.85 Q-131.35 124.75 -129.5 121.85 L-129.25 121.8 M-134.65 129.7 Q-134.7 130.1 -135.15 130.05 L-134.15 127.5 -133.95 127.45 -134.5 129.1 -134.65 129.3 -134.65 129.5 -134.65 129.7 M-137.4 132.1 L-137.4 132.3 -137.65 132.55 Q-137.75 131.5 -137.35 130.55 L-137.2 130.45 -137.4 132.1 M-128.45 153.6 L-127.3 149.9 Q-126.75 148.2 -125.95 146.95 -128.25 153.65 -129.7 160.4 L-129.75 160.55 Q-129.5 157.15 -128.45 153.6 M-126.95 155.45 L-127.9 163.1 -127.95 163.3 Q-128.05 159.6 -127.15 155.5 L-126.95 155.45 M-125.75 159.6 L-125.65 159.55 Q-125.25 162.3 -126.15 165.05 L-126.3 166.1 -126.65 166.35 Q-126.75 163.15 -126.0 160.0 L-126.0 159.8 -125.75 159.6 M-124.2 160.6 Q-124.25 162.35 -124.65 164.15 L-124.75 164.3 Q-124.95 162.55 -124.4 160.7 L-124.2 160.6 M-123.75 169.3 Q-124.2 162.0 -121.75 154.9 L-121.2 154.35 Q-122.55 161.45 -123.5 168.8 L-123.75 169.3 M-54.4 100.35 L-54.45 100.55 Q-54.75 100.25 -54.65 99.5 L-54.45 99.45 -54.4 100.35 M-58.2 105.05 L-58.2 105.25 -58.7 105.5 Q-58.8 102.5 -57.6 99.55 L-57.45 99.45 -58.2 105.05" fill="#f3f3f3" fill-rule="evenodd" stroke="none"/>
    <path d="M-9.1 -80.75 L-8.95 -80.8 Q-8.45 -78.6 -8.45 -76.3 L-8.5 -76.2 Q-9.25 -78.35 -9.1 -80.75 M-10.2 -77.4 L-9.9 -73.65 -9.95 -73.45 Q-10.6 -75.1 -10.35 -77.3 L-10.2 -77.4 M-11.95 -77.55 Q-11.45 -74.85 -11.7 -72.1 L-11.7 -71.95 -11.9 -71.7 -12.25 -72.25 Q-12.55 -74.9 -12.05 -77.5 L-11.95 -77.55 M-12.9 -75.95 L-12.55 -73.3 -12.5 -73.15 Q-12.8 -72.1 -12.45 -71.05 L-12.5 -70.95 Q-13.4 -73.3 -13.05 -75.9 L-12.9 -75.95 M-10.7 -72.55 Q-10.4 -71.75 -10.4 -70.9 L-10.45 -70.7 -10.85 -72.5 -10.7 -72.55 M-66.9 -15.7 Q-66.9 -10.2 -67.15 -4.65 L-67.15 -4.45 -67.4 -4.2 Q-67.7 -9.75 -67.25 -15.25 L-67.25 -15.45 -67.0 -15.65 -66.9 -15.7 M-68.7 -14.05 Q-68.55 -9.95 -68.7 -5.8 L-68.75 -5.7 Q-69.0 -9.75 -68.85 -14.0 L-68.7 -14.05 M-63.85 -15.1 L-63.9 -14.95 -64.15 -14.7 -63.8 -17.5 -63.7 -17.55 Q-63.55 -16.35 -63.85 -15.1 M-65.45 -16.55 Q-65.1 -14.2 -65.6 -11.85 L-65.65 -11.7 -65.9 -11.45 Q-66.0 -13.95 -65.55 -16.5 L-65.45 -16.55 M-70.15 -11.95 L-69.95 -9.3 -70.0 -9.2 -70.45 -9.7 -70.3 -11.9 -70.15 -11.95 M-117.55 43.15 L-117.2 43.0 -117.0 42.95 Q-114.65 43.35 -112.45 44.25 L-112.4 44.3 -117.4 43.9 -118.05 43.95 -118.4 44.05 -118.3 43.9 -118.2 43.7 -118.1 43.5 -118.0 43.3 -117.55 43.15 M-119.9 45.8 Q-118.35 44.85 -116.45 44.6 -117.5 45.6 -119.3 45.85 L-119.5 45.95 -119.9 45.8 M-121.15 47.45 L-116.25 46.25 Q-114.8 46.5 -113.45 47.1 L-113.15 47.25 -120.55 47.45 -121.15 47.45 M-117.75 47.55 L-115.1 47.95 Q-115.0 47.95 -114.95 48.05 -117.9 47.6 -120.55 48.8 -121.4 49.2 -122.4 49.3 L-122.3 49.15 -122.2 48.95 -122.0 48.8 -119.6 48.05 -117.75 47.55" fill="#a6a6a6" fill-rule="evenodd" stroke="none"/>
  </g>
  <defs>
    <linearGradient gradientTransform="matrix(-0.0608, -0.0502, 0.1199, -0.1452, -68.1, 87.3)" gradientUnits="userSpaceOnUse" id="gradient0" spreadMethod="pad" x1="-819.2" x2="819.2">
      <stop offset="0.0" stop-color="#999999"/>
      <stop offset="0.4588235294117647" stop-color="#999999"/>
      <stop offset="1.0" stop-color="#ffffff"/>
    </linearGradient>
    <linearGradient gradientTransform="matrix(-0.0611, -0.0912, 0.1414, -0.0947, -22.0, 8.0)" gradientUnits="userSpaceOnUse" id="gradient1" spreadMethod="pad" x1="-819.2" x2="819.2">
      <stop offset="0.0" stop-color="#999999"/>
      <stop offset="0.4588235294117647" stop-color="#999999"/>
      <stop offset="1.0" stop-color="#ffffff"/>
    </linearGradient>
    <linearGradient gradientTransform="matrix(-0.0494, -0.0316, 0.0845, -0.1323, -0.65, -3.85)" gradientUnits="userSpaceOnUse" id="gradient2" spreadMethod="pad" x1="-819.2" x2="819.2">
      <stop offset="0.0" stop-color="#3a3a3a"/>
      <stop offset="0.4588235294117647" stop-color="#606060"/>
      <stop offset="1.0" stop-color="#a5a5a5"/>
    </linearGradient>
  </defs>
</svg>
