<?xml version="1.0" encoding="UTF-8" standalone="no"?>
<svg xmlns:xlink="http://www.w3.org/1999/xlink" height="36.35px" width="60.05px" xmlns="http://www.w3.org/2000/svg">
  <g transform="matrix(1.0, 0.0, 0.0, 1.0, 7.45, -19.3)">
    <path d="M-0.3 20.5 Q3.85 21.0 5.35 23.3 8.05 27.4 10.25 32.45 12.9 38.3 21.05 40.45 L36.5 44.45 Q44.65 46.4 52.35 46.8 48.25 52.75 40.3 54.75 33.25 56.35 24.9 54.15 19.6 50.35 12.9 47.4 6.85 44.75 2.85 40.5 L2.4 40.05 Q-0.6 36.85 -2.5 32.7 -3.95 29.55 -1.25 26.4 1.8 22.75 -0.3 20.5" fill="url(#gradient0)" fill-rule="evenodd" stroke="none"/>
    <path d="M24.9 54.15 L22.65 54.55 22.25 54.45 21.4 54.2 19.8 53.75 Q12.25 51.4 6.15 47.45 -0.65 42.7 -3.65 36.4 L-5.75 31.95 Q-9.3 24.0 -2.15 19.8 -0.8 19.9 -0.3 20.5 1.8 22.75 -1.25 26.4 -3.95 29.55 -2.5 32.7 -0.6 36.85 2.4 40.05 L2.85 40.5 Q6.85 44.75 12.9 47.4 19.6 50.35 24.9 54.15" fill="url(#gradient1)" fill-rule="evenodd" stroke="none"/>
    <path d="M-0.3 20.5 Q3.85 21.0 5.35 23.3 8.05 27.4 10.25 32.45 12.9 38.3 21.05 40.45 L36.5 44.45 Q44.65 46.4 52.35 46.8 48.25 52.75 40.3 54.75 33.25 56.35 24.9 54.15" fill="none" stroke="#000000" stroke-linecap="round" stroke-linejoin="round" stroke-width="0.5"/>
    <path d="M24.9 54.15 L22.65 54.55 22.25 54.45 21.4 54.2 19.8 53.75 Q12.25 51.4 6.15 47.45 -0.65 42.7 -3.65 36.4 L-5.75 31.95 Q-9.3 24.0 -2.15 19.8 -0.8 19.9 -0.3 20.5 1.8 22.75 -1.25 26.4 -3.95 29.55 -2.5 32.7 -0.6 36.85 2.4 40.05 L2.85 40.5 Q6.85 44.75 12.9 47.4 19.6 50.35 24.9 54.15 Z" fill="none" stroke="#000000" stroke-linecap="round" stroke-linejoin="round" stroke-width="1.0"/>
  </g>
  <defs>
    <radialGradient cx="0" cy="0" gradientTransform="matrix(0.0076, -0.0164, 0.0775, 0.0362, 4.85, 42.8)" gradientUnits="userSpaceOnUse" id="gradient0" r="819.2" spreadMethod="pad">
      <stop offset="0.0" stop-color="#986807"/>
      <stop offset="0.5764705882352941" stop-color="#efca3a"/>
      <stop offset="1.0" stop-color="#ffffff"/>
    </radialGradient>
    <radialGradient cx="0" cy="0" gradientTransform="matrix(0.0101, -0.0235, 0.0308, 0.0132, 9.65, 37.05)" gradientUnits="userSpaceOnUse" id="gradient1" r="819.2" spreadMethod="pad">
      <stop offset="0.0" stop-color="#960a0a"/>
      <stop offset="0.5764705882352941" stop-color="#f74a33"/>
      <stop offset="1.0" stop-color="#ffffff"/>
    </radialGradient>
  </defs>
</svg>
