<?xml version="1.0" encoding="UTF-8" standalone="no"?>
<svg xmlns:xlink="http://www.w3.org/1999/xlink" height="23.85px" width="52.65px" xmlns="http://www.w3.org/2000/svg">
  <g transform="matrix(1.0, 0.0, 0.0, 1.0, 59.0, 3.75)">
    <path d="M-38.35 18.8 Q-33.3 16.8 -27.2 15.9 -21.8 15.0 -17.7 12.4 L-17.35 12.15 Q-14.1 10.2 -11.8 7.3 -10.0 5.0 -11.45 1.9 -13.2 -1.65 -10.95 -2.95 L-9.45 -3.25 Q-4.55 1.65 -8.95 7.4 L-11.6 10.45 Q-15.35 14.9 -21.85 17.3 -27.5 19.2 -34.1 19.55 L-35.5 19.55 -36.25 19.6 -36.6 19.6 Q-37.5 19.5 -38.35 18.8" fill="url(#gradient0)" fill-rule="evenodd" stroke="none"/>
    <path d="M-38.35 18.8 Q-45.55 18.9 -50.75 16.05 -56.8 12.75 -58.75 7.1 -52.55 8.4 -45.65 8.6 L-32.3 8.55 Q-25.4 8.6 -22.0 4.35 -19.2 0.8 -16.2 -1.9 -14.5 -3.4 -10.95 -2.95 -13.2 -1.65 -11.45 1.9 -10.0 5.0 -11.8 7.3 -14.1 10.2 -17.35 12.15 L-17.7 12.4 Q-21.8 15.0 -27.2 15.9 -33.3 16.8 -38.35 18.8" fill="url(#gradient1)" fill-rule="evenodd" stroke="none"/>
    <path d="M-38.35 18.8 Q-33.3 16.8 -27.2 15.9 -21.8 15.0 -17.7 12.4 L-17.35 12.15 Q-14.1 10.2 -11.8 7.3 -10.0 5.0 -11.45 1.9 -13.2 -1.65 -10.95 -2.95 L-9.45 -3.25 Q-4.55 1.65 -8.95 7.4 L-11.6 10.45 Q-15.35 14.9 -21.85 17.3 -27.5 19.2 -34.1 19.55 L-35.5 19.55 -36.25 19.6 -36.6 19.6 Q-37.5 19.5 -38.35 18.8" fill="none" stroke="#000000" stroke-linecap="round" stroke-linejoin="round" stroke-width="1.0"/>
    <path d="M-10.95 -2.95 Q-14.5 -3.4 -16.2 -1.9 -19.2 0.8 -22.0 4.35 -25.4 8.6 -32.3 8.55 L-45.65 8.6 Q-52.55 8.4 -58.75 7.1 -56.8 12.75 -50.75 16.05 -45.55 18.9 -38.35 18.8" fill="none" stroke="#000000" stroke-linecap="round" stroke-linejoin="round" stroke-width="0.5"/>
  </g>
  <defs>
    <radialGradient cx="0" cy="0" gradientTransform="matrix(-0.0032, -0.021, -0.0275, 0.0042, -22.5, 8.3)" gradientUnits="userSpaceOnUse" id="gradient0" r="819.2" spreadMethod="pad">
      <stop offset="0.0" stop-color="#960a0a"/>
      <stop offset="0.5764705882352941" stop-color="#f74a33"/>
      <stop offset="1.0" stop-color="#ffffff"/>
    </radialGradient>
    <radialGradient cx="0" cy="0" gradientTransform="matrix(-0.0027, -0.0148, -0.0699, 0.0129, -19.8, 13.9)" gradientUnits="userSpaceOnUse" id="gradient1" r="819.2" spreadMethod="pad">
      <stop offset="0.0" stop-color="#986807"/>
      <stop offset="0.5764705882352941" stop-color="#efca3a"/>
      <stop offset="1.0" stop-color="#ffffff"/>
    </radialGradient>
  </defs>
</svg>
