<?xml version="1.0" encoding="UTF-8" standalone="no"?>
<svg xmlns:xlink="http://www.w3.org/1999/xlink" height="74.6px" width="53.45px" xmlns="http://www.w3.org/2000/svg">
  <g transform="matrix(1.0, 0.0, 0.0, 1.0, 9.45, 68.7)">
    <path d="M13.3 -57.7 L17.1 -61.25 Q17.95 -59.45 19.8 -58.75 L18.7 -61.05 Q18.35 -61.7 18.6 -62.4 L20.35 -63.6 Q24.35 -66.15 29.0 -67.1 L33.35 -67.85 Q33.15 -66.25 33.55 -64.6 33.5 -66.15 34.45 -67.6 L34.85 -68.05 38.25 -68.4 43.75 -68.25 Q40.85 -64.1 38.6 -59.8 L35.2 -53.15 Q33.85 -50.45 33.4 -47.65 L32.55 -47.95 30.75 -48.0 31.75 -47.65 Q32.8 -47.3 33.1 -46.35 L31.5 -46.6 Q30.4 -46.7 29.45 -46.2 L27.75 -45.25 28.35 -45.35 30.75 -45.45 Q32.3 -45.35 32.5 -44.5 L30.25 -44.4 Q29.15 -44.25 28.2 -43.65 L25.35 -41.6 Q25.7 -41.7 25.95 -41.9 27.5 -43.1 29.5 -43.3 L33.25 -43.5 33.45 -42.3 Q33.9 -40.55 34.75 -39.75 30.75 -39.0 26.25 -37.05 23.45 -35.85 21.15 -34.4 18.85 -33.0 17.7 -31.35 L16.7 -29.95 16.0 -30.65 Q15.15 -31.95 15.25 -33.6 14.75 -32.9 14.9 -32.0 L15.5 -28.6 14.9 -28.85 Q14.35 -29.15 14.25 -29.85 L14.25 -29.0 Q14.3 -28.0 14.9 -27.45 L14.85 -27.35 Q13.9 -27.45 13.35 -28.05 12.25 -29.3 11.5 -30.85 11.4 -29.65 11.75 -28.6 12.4 -26.7 13.75 -25.35 L12.8 -25.65 Q11.65 -26.25 10.85 -27.5 L11.45 -25.9 Q12.0 -24.7 12.85 -23.75 L12.8 -23.75 12.25 -23.8 Q11.15 -23.9 10.3 -24.85 9.25 -26.05 9.0 -27.5 9.0 -26.15 9.3 -24.85 9.85 -22.6 12.0 -22.4 L11.6 -21.7 10.1 -18.35 9.65 -16.5 13.65 -16.7 18.15 -16.6 Q19.05 -16.8 19.65 -17.4 19.75 -14.55 18.75 -11.65 17.8 -8.8 14.65 -7.95 L10.9 -7.0 9.4 -6.55 Q9.25 -7.55 8.45 -8.25 7.35 -9.2 6.35 -9.25 8.25 -8.15 8.1 -5.9 7.65 -5.65 7.35 -5.3 L6.65 -4.5 Q4.5 -2.4 3.6 0.55 3.15 2.0 1.25 1.75 -2.3 1.4 -4.3 -1.05 L-4.65 -1.65 -4.9 -2.45 -5.05 -2.7 Q-6.7 -5.9 -7.1 -10.45 -7.55 -15.3 -7.5 -20.25 -7.45 -25.25 -6.55 -29.8 -5.8 -29.1 -5.15 -26.0 -4.9 -24.7 -4.2 -23.5 -2.55 -26.8 -1.5 -31.75 L-0.95 -33.95 -0.8 -34.4 Q0.65 -37.9 2.75 -42.0 L5.05 -46.1 7.55 -50.2 Q10.1 -54.25 13.3 -57.7" fill="url(#gradient0)" fill-rule="evenodd" stroke="none"/>
    <path d="M13.3 -57.7 L17.1 -61.25 Q17.95 -59.45 19.8 -58.75 L18.7 -61.05 Q18.35 -61.7 18.6 -62.4 L20.35 -63.6 Q24.35 -66.15 29.0 -67.1 L33.35 -67.85 Q33.15 -66.25 33.55 -64.6 33.5 -66.15 34.45 -67.6 L34.85 -68.05 38.25 -68.4 43.75 -68.25 Q40.85 -64.1 38.6 -59.8 L35.2 -53.15 Q33.85 -50.45 33.4 -47.65 L32.55 -47.95 30.75 -48.0 31.75 -47.65 Q32.8 -47.3 33.1 -46.35 L31.5 -46.6 Q30.4 -46.7 29.45 -46.2 L27.75 -45.25 28.35 -45.35 30.75 -45.45 Q32.3 -45.35 32.5 -44.5 L30.25 -44.4 Q29.15 -44.25 28.2 -43.65 L25.35 -41.6 Q25.7 -41.7 25.95 -41.9 27.5 -43.1 29.5 -43.3 L33.25 -43.5 33.45 -42.3 Q33.9 -40.55 34.75 -39.75 30.75 -39.0 26.25 -37.05 23.45 -35.85 21.15 -34.4 18.85 -33.0 17.7 -31.35 L16.7 -29.95 16.0 -30.65 Q15.15 -31.95 15.25 -33.6 14.75 -32.9 14.9 -32.0 L15.5 -28.6 14.9 -28.85 Q14.35 -29.15 14.25 -29.85 L14.25 -29.0 Q14.3 -28.0 14.9 -27.45 L14.85 -27.35 Q13.9 -27.45 13.35 -28.05 12.25 -29.3 11.5 -30.85 11.4 -29.65 11.75 -28.6 12.4 -26.7 13.75 -25.35 L12.8 -25.65 Q11.65 -26.25 10.85 -27.5 L11.45 -25.9 Q12.0 -24.7 12.85 -23.75 L12.8 -23.75 12.25 -23.8 Q11.15 -23.9 10.3 -24.85 9.25 -26.05 9.0 -27.5 9.0 -26.15 9.3 -24.85 9.85 -22.6 12.0 -22.4 L11.6 -21.7 10.1 -18.35 9.65 -16.5 13.65 -16.7 18.15 -16.6 Q19.05 -16.8 19.65 -17.4 19.75 -14.55 18.75 -11.65 17.8 -8.8 14.65 -7.95 L10.9 -7.0 9.4 -6.55 Q9.25 -7.55 8.45 -8.25 7.35 -9.2 6.35 -9.25 8.25 -8.15 8.1 -5.9 7.65 -5.65 7.35 -5.3 L6.65 -4.5 Q4.5 -2.4 3.6 0.55 3.15 2.0 1.25 1.75 -2.3 1.4 -4.3 -1.05 L-4.65 -1.65 -4.9 -2.45 -5.05 -2.7 Q-6.7 -5.9 -7.1 -10.45 -7.55 -15.3 -7.5 -20.25 -7.45 -25.25 -6.55 -29.8 -5.8 -29.1 -5.15 -26.0 -4.9 -24.7 -4.2 -23.5 -2.55 -26.8 -1.5 -31.75 L-0.95 -33.95 -0.8 -34.4 Q0.65 -37.9 2.75 -42.0 L5.05 -46.1 7.55 -50.2 Q10.1 -54.25 13.3 -57.7 Z" fill="none" stroke="#000000" stroke-linecap="round" stroke-linejoin="round" stroke-width="0.5"/>
    <path d="M3.6 -4.7 Q6.45 -5.2 6.6 -3.2 6.9 2.0 3.95 4.0 -0.55 7.05 -3.75 3.45 -5.7 1.3 -6.5 -1.4 -7.75 -5.8 -8.6 -10.1 -9.65 -15.3 -7.5 -18.75 -6.35 -15.15 -5.65 -11.45 -4.75 -6.85 -0.65 -5.1 1.35 -4.25 3.6 -4.7" fill="url(#gradient1)" fill-rule="evenodd" stroke="none"/>
    <path d="M3.6 -4.7 Q1.35 -4.25 -0.65 -5.1 -4.75 -6.85 -5.65 -11.45 -6.35 -15.15 -7.5 -18.75 -9.65 -15.3 -8.6 -10.1 -7.75 -5.8 -6.5 -1.4 -5.7 1.3 -3.75 3.45 -0.55 7.05 3.95 4.0 6.9 2.0 6.6 -3.2 6.45 -5.2 3.6 -4.7 Z" fill="none" stroke="#000000" stroke-linecap="round" stroke-linejoin="round" stroke-width="1.0"/>
  </g>
  <defs>
    <radialGradient cx="0" cy="0" gradientTransform="matrix(0.0321, 0.0154, -0.0251, 0.0524, 4.0, -38.0)" gradientUnits="userSpaceOnUse" id="gradient0" r="819.2" spreadMethod="pad">
      <stop offset="0.0" stop-color="#986807"/>
      <stop offset="0.5764705882352941" stop-color="#efca3a"/>
      <stop offset="1.0" stop-color="#ffffff"/>
    </radialGradient>
    <radialGradient cx="0" cy="0" gradientTransform="matrix(0.0117, -0.0091, 0.0134, 0.0172, -5.0, -1.5)" gradientUnits="userSpaceOnUse" id="gradient1" r="819.2" spreadMethod="pad">
      <stop offset="0.615686274509804" stop-color="#36536d"/>
      <stop offset="1.0" stop-color="#ffffff"/>
    </radialGradient>
  </defs>
</svg>
