<?xml version="1.0" encoding="UTF-8" standalone="no"?>
<svg xmlns:xlink="http://www.w3.org/1999/xlink" height="46.0px" width="46.5px" xmlns="http://www.w3.org/2000/svg">
  <g transform="matrix(1.0, 0.0, 0.0, 1.0, 23.25, 23.0)">
    <path d="M0.0 -22.5 Q9.4 -22.5 16.05 -15.9 22.75 -9.3 22.75 0.0 22.75 9.3 16.05 15.9 9.4 22.5 0.0 22.5 -9.4 22.5 -16.1 15.9 -22.75 9.3 -22.75 0.0 -22.75 -9.3 -16.1 -15.9 -9.4 -22.5 0.0 -22.5 Z" fill="none" stroke="#000000" stroke-linecap="round" stroke-linejoin="round" stroke-width="1.0"/>
    <path d="M0.75 -15.35 L0.05 -15.45 Q-0.3 -16.0 -0.1 -16.75 L11.9 -16.75 Q12.15 -16.1 11.75 -15.1 L0.75 -15.35 M10.55 -14.05 L10.85 0.0 10.85 0.1 10.65 0.9 Q10.35 1.2 9.7 1.2 L9.35 1.4 9.2 1.75 9.2 9.95 Q9.2 11.35 7.35 12.05 7.15 12.05 7.1 12.2 L7.0 12.55 7.0 14.85 7.15 15.25 7.55 15.4 10.2 15.4 Q11.0 15.5 11.1 16.3 L11.1 17.05 -3.95 17.05 -4.05 16.8 -3.4 16.2 0.95 15.15 1.25 15.0 1.4 14.65 1.5 12.25 1.45 12.05 Q0.8 9.85 -1.85 10.25 L-2.05 10.35 Q-4.6 12.0 -9.65 10.75 -16.75 7.75 -17.8 3.35 L-0.5 3.15 0.35 4.0 0.6 4.15 0.9 4.1 1.95 3.75 2.1 3.6 2.25 3.45 3.1 1.7 3.15 1.35 2.95 1.05 Q2.8 0.9 2.6 0.9 2.05 0.85 1.8 0.55 1.55 0.15 1.65 -0.55 L1.65 -0.65 1.5 -14.2 10.55 -14.05 M-0.6 -0.45 Q0.65 0.35 0.0 2.1 L-0.2 2.05 -18.55 2.25 -18.85 2.4 Q-19.9 0.85 -18.7 -0.5 L-0.6 -0.45" fill="#000000" fill-rule="evenodd" stroke="none"/>
  </g>
</svg>
