<?xml version="1.0" encoding="UTF-8" standalone="no"?>
<svg xmlns:xlink="http://www.w3.org/1999/xlink" height="120.3px" width="15.2px" xmlns="http://www.w3.org/2000/svg">
  <g transform="matrix(1.0, 0.0, 0.0, 1.0, 9.2, 14.15)">
    <path d="M2.25 -0.65 L1.55 2.05 Q1.2 3.35 1.65 4.5 L1.8 4.75 Q2.45 6.05 2.25 7.65 L2.75 103.5 2.7 104.0 1.95 105.9 -1.95 7.65 -2.05 7.25 Q-2.25 6.05 -1.7 4.95 -0.7 3.05 -1.9 0.6 -4.1 -4.15 -0.25 -6.95 3.8 -6.6 2.25 -0.65" fill="url(#gradient0)" fill-rule="evenodd" stroke="none"/>
    <path d="M2.25 -0.65 L1.55 2.05 Q1.2 3.35 1.65 4.5 L1.8 4.75 Q2.45 6.05 2.25 7.65 L2.75 103.5 2.7 104.0 1.95 105.9 -1.95 7.65 -2.05 7.25 Q-2.25 6.05 -1.7 4.95 -0.7 3.05 -1.9 0.6 -4.1 -4.15 -0.25 -6.95 3.8 -6.6 2.25 -0.65 Z" fill="none" stroke="#000000" stroke-linecap="round" stroke-linejoin="round" stroke-width="0.5"/>
    <path d="M3.7 -12.1 Q6.25 -8.65 5.15 -3.5 4.15 1.1 4.25 6.0 4.35 11.0 3.45 15.55 2.9 18.35 0.65 17.55 -3.35 16.15 -3.1 10.5 -2.9 5.45 -6.15 2.6 -9.65 -0.45 -8.35 -5.85 -7.4 -10.0 -4.05 -11.6 L-3.5 -11.85 Q-1.75 -13.05 0.0 -13.5 2.3 -14.1 3.7 -12.1" fill="url(#gradient1)" fill-rule="evenodd" stroke="none"/>
    <path d="M3.7 -12.1 Q2.3 -14.1 0.0 -13.5 -1.75 -13.05 -3.5 -11.85 L-4.05 -11.6 Q-7.4 -10.0 -8.35 -5.85 -9.65 -0.45 -6.15 2.6 -2.9 5.45 -3.1 10.5 -3.35 16.15 0.65 17.55 2.9 18.35 3.45 15.55 4.35 11.0 4.25 6.0 4.15 1.1 5.15 -3.5 6.25 -8.65 3.7 -12.1 Z" fill="none" stroke="#000000" stroke-linecap="round" stroke-linejoin="round" stroke-width="1.0"/>
  </g>
  <defs>
    <radialGradient cx="0" cy="0" gradientTransform="matrix(0.0222, 0.0, 0.0, 0.0654, -0.25, 45.5)" gradientUnits="userSpaceOnUse" id="gradient0" r="819.2" spreadMethod="pad">
      <stop offset="0.0" stop-color="#986807"/>
      <stop offset="0.5764705882352941" stop-color="#efca3a"/>
      <stop offset="1.0" stop-color="#ffffff"/>
    </radialGradient>
    <radialGradient cx="0" cy="0" gradientTransform="matrix(0.016, 0.0, 0.0, 0.0237, 0.5, 0.5)" gradientUnits="userSpaceOnUse" id="gradient1" r="819.2" spreadMethod="pad">
      <stop offset="0.615686274509804" stop-color="#36536d"/>
      <stop offset="1.0" stop-color="#ffffff"/>
    </radialGradient>
  </defs>
</svg>
