<?xml version="1.0" encoding="UTF-8" standalone="no"?>
<svg xmlns:xlink="http://www.w3.org/1999/xlink" height="11.15px" width="5.75px" xmlns="http://www.w3.org/2000/svg">
  <g transform="matrix(1.0, 0.0, 0.0, 1.0, 2.35, 6.55)">
    <path d="M-1.4 -3.35 L-0.3 -6.3 Q0.3 -1.4 0.9 -1.4 2.0 0.25 2.45 0.65 3.15 1.3 3.15 2.2 3.15 3.1 2.45 3.7 1.8 4.35 0.9 4.35 -0.05 4.35 -0.75 3.7 -2.1 2.5 -2.1 -0.2 L-1.4 -3.35" fill="url(#gradient0)" fill-rule="evenodd" stroke="none"/>
    <path d="M-1.4 -3.35 L-0.3 -6.3 Q0.3 -1.4 0.9 -1.4 2.0 0.25 2.45 0.65 3.15 1.3 3.15 2.2 3.15 3.1 2.45 3.7 1.8 4.35 0.9 4.35 -0.05 4.35 -0.75 3.7 -2.1 2.5 -2.1 -0.2 L-1.4 -3.35 Z" fill="none" stroke="#000000" stroke-linecap="round" stroke-linejoin="round" stroke-width="0.5"/>
  </g>
  <defs>
    <radialGradient cx="0" cy="0" gradientTransform="matrix(0.0036, 0.0, 0.0, 0.0036, 0.9, 2.2)" gradientUnits="userSpaceOnUse" id="gradient0" r="819.2" spreadMethod="pad">
      <stop offset="0.0" stop-color="#bebe4b"/>
      <stop offset="1.0" stop-color="#ffffff"/>
    </radialGradient>
  </defs>
</svg>
