<?xml version="1.0" encoding="UTF-8" standalone="no"?>
<svg xmlns:xlink="http://www.w3.org/1999/xlink" height="28.25px" width="26.9px" xmlns="http://www.w3.org/2000/svg">
  <g transform="matrix(1.0, 0.0, 0.0, 1.0, 11.0, 14.5)">
    <path d="M7.9 -9.65 L7.9 -10.1 6.6 -9.8 4.35 -8.4 Q2.75 -7.55 2.65 -5.7 3.75 -5.45 4.2 -4.55 4.95 -2.95 3.65 -2.15 L2.0 -1.2 5.0 -1.15 Q6.8 -2.7 7.45 -0.65 7.75 0.25 8.4 1.0 M10.5 -14.0 Q9.2 -13.7 7.95 -12.6 L7.9 -10.1 8.4 -9.75 Q8.85 -9.35 9.5 -9.3 11.25 -9.05 11.35 -7.0 L11.5 -5.5 Q13.3 -7.15 15.4 -7.75 M-9.0 13.25 Q-8.5 12.9 -8.75 11.75 -9.15 9.5 -10.5 8.0 L-9.25 7.75 -4.0 6.95 Q-3.9 6.65 -4.05 6.25 L-5.85 -0.25 -3.0 0.0 -0.35 0.1 0.15 -2.9 2.7 -4.65 2.65 -5.7 1.0 -5.7 Q0.65 -6.95 -0.5 -7.0 L-0.95 -6.95 -1.6 -6.8 Q-3.15 -6.15 -4.0 -4.85 -2.6 -4.95 -2.3 -3.85 L-1.1 -0.25 M2.0 -1.2 L1.5 -1.0 Q0.7 -0.65 0.25 0.1 L-0.1 0.75 M-0.95 -6.95 Q-1.15 -9.2 -3.05 -9.0 L-5.8 -8.75 Q-6.15 -8.7 -6.45 -9.1 L-8.1 -11.75 M0.25 0.1 L-0.35 0.1" fill="none" stroke="#000000" stroke-linecap="round" stroke-linejoin="round" stroke-width="1.0"/>
  </g>
</svg>
