<?xml version="1.0" encoding="UTF-8" standalone="no"?>
<svg xmlns:xlink="http://www.w3.org/1999/xlink" height="44.65px" width="49.85px" xmlns="http://www.w3.org/2000/svg">
  <g transform="matrix(1.0, 0.0, 0.0, 1.0, 22.0, 25.9)">
    <path d="M6.0 -2.5 Q4.15 -3.95 2.5 -5.75 7.15 -5.9 7.2 -9.5 7.2 -11.0 7.75 -12.5 L10.3 -12.2 M0.25 -0.75 Q2.5 3.1 4.85 -0.9 5.35 -1.65 6.2 -2.1 9.35 -3.8 10.6 -0.75 L11.05 0.35 12.5 4.0 M-7.1 0.7 Q-8.3 2.15 -9.85 2.4 -12.65 0.9 -14.0 -0.25 -9.0 -1.9 -10.45 -6.3 L-10.5 -6.35 Q-11.15 -8.25 -14.0 -8.3 -15.9 -8.3 -16.25 -10.7 M-5.95 11.75 Q-8.95 12.8 -10.25 10.25 -10.75 9.2 -9.8 8.55 -7.3 6.9 -4.15 7.4 -0.75 7.95 -2.55 4.55 -3.05 3.6 -3.0 2.75 -2.95 0.75 0.05 -0.55 -2.25 -1.35 -5.25 -3.05 -6.05 -0.7 -7.1 0.7" fill="none" stroke="#000000" stroke-linecap="round" stroke-linejoin="round" stroke-width="1.0"/>
    <path d="M10.3 -12.2 Q16.15 -11.05 16.65 -16.5 17.0 -20.75 18.3 -20.85 20.2 -22.7 18.7 -25.25 M11.05 0.35 Q12.55 -3.2 14.7 0.25 16.3 2.8 18.5 3.0 19.55 1.4 20.0 -0.75 21.05 0.25 21.75 1.75 22.85 1.85 23.0 0.5 M18.3 -20.85 Q19.2 -20.9 20.7 -18.55 24.9 -21.7 27.35 -25.4 M2.75 1.5 Q3.0 2.95 2.3 4.05 7.15 5.55 4.0 8.5 M18.5 3.0 Q15.25 5.85 19.25 11.25 M-7.75 -9.75 Q-8.95 -13.8 -13.1 -15.05 -12.65 -17.3 -10.5 -18.0 M-13.75 -1.0 Q-15.35 -0.4 -17.75 -2.25 -17.25 1.55 -21.5 2.5 M-10.45 -6.3 Q-8.5 -11.15 -3.55 -8.25 -1.85 -11.0 -2.5 -13.75 M-3.0 2.75 Q-5.15 2.55 -7.45 3.5 L-7.4 3.3 Q-9.3 4.85 -11.5 5.7 L-9.8 7.3 M-7.1 0.7 Q-6.95 1.65 -7.4 3.3 M-6.25 11.5 L-5.95 11.75 Q-4.85 12.75 -5.05 13.75 -2.95 13.25 -1.05 15.8 M-10.75 10.0 Q-11.25 12.9 -15.5 11.9 -14.15 15.5 -16.5 18.0 M-5.05 13.75 Q-5.3 15.05 -7.75 16.25 -5.65 16.7 -4.25 18.25" fill="none" stroke="#000000" stroke-linecap="round" stroke-linejoin="round" stroke-width="1.0"/>
  </g>
</svg>
