<?xml version="1.0" encoding="UTF-8" standalone="no"?>
<svg xmlns:xlink="http://www.w3.org/1999/xlink" height="16.05px" width="19.0px" xmlns="http://www.w3.org/2000/svg">
  <g transform="matrix(1.0, 0.0, 0.0, 1.0, 9.05, 12.95)">
    <path d="M6.3 -12.8 L6.4 -12.25 6.35 -12.05 6.3 -11.95 6.0 -11.8 5.7 -11.95 Q5.25 -12.75 6.0 -12.9 L6.0 -12.95 6.3 -12.8 M9.85 -11.7 L9.95 -11.5 Q9.85 -10.9 9.25 -10.8 8.65 -10.85 8.35 -11.3 8.3 -11.75 8.6 -12.1 L8.75 -12.25 9.0 -12.3 9.1 -12.3 Q9.65 -12.15 9.85 -11.7 M6.0 -7.3 L6.25 -7.4 6.3 -7.4 6.5 -7.55 6.75 -7.65 7.35 -7.25 7.45 -7.15 Q7.5 -6.65 7.0 -6.45 L6.75 -6.4 6.7 -6.4 6.65 -6.35 6.5 -6.2 6.25 -6.15 Q5.75 -6.15 5.6 -6.65 5.55 -7.1 6.0 -7.3 M8.2 -6.45 L8.5 -6.5 Q9.05 -6.35 9.3 -5.8 L9.35 -5.65 9.3 -5.25 9.1 -4.9 Q8.75 -4.6 8.4 -4.65 L8.2 -4.3 8.05 -4.15 7.25 -3.9 Q6.75 -3.95 6.5 -4.4 6.7 -5.25 7.7 -5.2 7.5 -5.65 7.8 -6.05 L8.05 -6.4 8.2 -6.45 M4.35 -11.65 L4.2 -11.05 4.0 -10.9 3.75 -10.8 Q3.3 -10.9 3.15 -11.35 L3.1 -11.5 3.15 -11.65 3.35 -12.0 3.5 -12.05 3.75 -12.1 3.75 -12.15 4.2 -11.8 4.35 -11.65 M3.35 -10.8 L3.8 -10.05 3.95 -9.9 3.75 -9.3 3.6 -9.2 Q3.05 -8.85 2.7 -9.4 L2.6 -9.75 2.55 -9.95 2.85 -10.5 2.95 -10.7 3.25 -10.8 3.35 -10.8 M0.5 -9.7 Q1.0 -9.65 1.15 -9.2 L1.2 -9.0 1.0 -8.6 1.05 -8.45 1.1 -8.25 Q1.05 -7.8 0.65 -7.55 L0.25 -7.4 Q-0.3 -7.4 -0.55 -7.9 L-0.9 -7.5 -1.25 -7.3 -1.8 -7.65 -1.9 -8.0 -3.5 -7.95 -3.55 -8.15 -3.55 -8.5 -3.45 -8.7 -3.25 -8.9 -3.05 -9.0 -2.8 -9.05 -3.15 -9.3 -3.0 -10.2 -2.7 -10.55 -2.55 -10.6 -2.25 -10.65 -2.25 -10.7 Q-1.45 -10.6 -1.35 -9.8 L-1.3 -9.65 Q-1.65 -8.85 -2.2 -8.85 L-1.85 -8.35 -1.8 -8.3 -1.8 -8.4 -1.25 -8.65 -1.25 -8.7 Q-0.75 -8.65 -0.6 -8.2 L-0.6 -8.25 -0.55 -8.65 -0.15 -9.0 -0.05 -9.4 0.5 -9.65 0.5 -9.7 M1.4 -10.65 Q0.95 -10.45 0.75 -10.95 0.6 -11.3 0.75 -11.7 L1.0 -12.05 1.2 -12.15 1.5 -12.25 Q3.1 -11.3 1.4 -10.65 M1.5 -6.3 L2.1 -5.95 2.25 -5.8 2.1 -5.0 2.1 -4.95 2.2 -4.75 1.85 -4.25 1.5 -4.05 1.05 -4.2 0.8 -4.55 0.6 -4.95 0.6 -5.0 Q-0.05 -3.5 -1.25 -4.7 L-1.3 -4.9 -1.3 -5.15 -1.75 -5.45 -1.8 -5.65 -1.8 -6.0 -1.7 -6.2 -1.5 -6.4 -1.3 -6.5 -1.0 -6.55 -0.4 -6.2 -0.25 -6.05 -0.25 -5.85 -0.25 -5.9 Q0.4 -5.8 0.55 -5.2 L0.6 -5.0 0.65 -5.1 0.75 -5.25 0.7 -5.4 0.7 -5.75 0.8 -5.95 1.0 -6.15 1.2 -6.25 1.5 -6.3 M4.85 -8.45 L4.95 -8.25 4.6 -7.75 4.25 -7.55 3.95 -7.7 4.05 -7.45 4.1 -7.25 3.95 -6.9 3.75 -6.5 Q2.85 -6.05 2.35 -7.0 2.25 -7.75 2.95 -8.05 L3.25 -8.15 3.65 -8.0 3.6 -8.25 3.7 -8.65 4.25 -8.9 4.25 -8.95 Q4.75 -8.9 4.85 -8.45 M3.25 -5.2 L3.55 -5.55 3.7 -5.6 4.0 -5.65 4.0 -5.7 Q5.0 -5.75 5.15 -4.8 L5.2 -4.65 Q4.45 -3.2 3.1 -4.3 2.95 -4.8 3.25 -5.2 M0.35 -3.25 L-0.1 -2.55 -0.5 -2.4 -0.45 -2.4 -0.05 -1.6 0.0 -1.45 Q-0.1 -0.95 -0.5 -0.8 -0.65 0.1 -1.25 0.0 L-1.4 0.3 -1.55 0.6 -2.45 0.55 -2.4 0.75 -3.0 1.5 -3.0 1.7 -3.3 1.95 -3.5 2.05 -4.0 1.75 -4.0 1.25 -4.25 1.05 -4.3 0.85 -4.3 0.5 Q-3.95 -0.15 -3.25 -0.1 L-3.25 -0.15 -2.85 0.0 -2.8 -0.7 -2.6 -0.8 -2.25 -0.9 -2.25 -0.95 -2.05 -0.85 -2.05 -1.0 -1.95 -1.2 -1.75 -1.4 -1.55 -1.5 -1.5 -1.5 Q-1.45 -2.2 -0.8 -2.3 L-1.3 -2.65 -1.4 -3.0 -1.35 -3.25 -1.3 -3.65 Q-1.05 -4.1 -0.5 -4.1 L-0.5 -4.15 Q0.15 -4.05 0.3 -3.45 L0.35 -3.25 M2.25 -3.45 Q2.75 -3.4 2.85 -2.95 L2.95 -2.75 2.95 -2.65 2.6 -2.25 2.25 -2.05 1.7 -2.4 1.6 -2.75 1.7 -3.15 2.25 -3.4 2.25 -3.45 M0.75 -1.75 Q1.2 -1.7 1.4 -1.25 L1.5 -1.05 Q1.65 -0.6 1.4 -0.3 L1.6 0.05 1.7 0.25 1.35 0.75 1.0 0.95 0.45 0.6 0.35 0.4 0.3 0.05 0.2 -0.15 -0.05 -0.5 -0.05 -0.7 0.0 -1.05 0.1 -1.3 0.3 -1.65 0.45 -1.7 0.75 -1.75 M2.0 -1.3 L2.7 -1.85 3.0 -1.95 3.75 -1.5 3.85 -2.05 4.05 -2.4 4.2 -2.45 4.5 -2.5 5.15 -2.0 5.25 -1.8 5.1 -1.45 4.95 -1.15 Q4.2 -0.8 3.8 -1.4 L3.9 -1.05 3.95 -0.9 3.2 -0.15 3.3 -0.05 3.4 0.3 3.45 0.5 Q3.35 1.1 2.75 1.2 L2.2 0.85 Q2.0 0.65 2.1 0.3 L2.2 0.1 2.65 -0.2 1.95 -0.75 1.95 -0.95 2.0 -1.3 M5.9 -3.35 L5.75 -3.2 5.5 -3.15 Q4.85 -3.2 4.8 -3.8 L5.25 -4.3 5.5 -4.4 6.1 -3.85 6.1 -3.7 5.9 -3.35 M7.25 -3.75 L8.05 -3.05 8.1 -2.9 8.05 -2.5 7.85 -2.15 Q6.9 -1.45 6.1 -2.3 5.85 -3.4 6.95 -3.7 L7.25 -3.75 M6.0 -1.75 L6.65 -1.25 6.75 -1.05 6.6 -0.7 6.45 -0.4 Q5.5 0.0 5.2 -0.95 L5.35 -1.3 5.55 -1.65 5.7 -1.7 6.0 -1.75 M6.25 0.95 Q6.05 2.75 4.55 1.4 L4.35 0.95 Q4.35 0.6 4.75 0.45 L5.0 0.35 Q5.6 0.4 6.1 0.75 L6.25 0.95 M3.2 1.8 Q3.45 1.35 4.0 1.3 L4.5 1.65 4.6 1.8 4.55 2.55 4.3 2.95 4.0 3.05 3.6 2.95 3.3 2.35 3.2 2.2 3.2 2.0 3.2 1.8 M2.3 1.5 L2.2 1.65 2.0 2.0 1.75 2.05 1.35 1.95 1.2 1.55 1.1 1.2 1.25 1.0 1.5 0.85 2.25 1.3 2.3 1.5 M1.0 1.85 Q1.4 1.95 1.6 2.4 L1.6 2.55 1.4 2.9 1.25 3.05 1.0 3.1 Q0.5 3.1 0.35 2.6 0.3 2.15 0.75 1.95 L1.0 1.85 M-3.4 -11.4 Q-3.4 -11.0 -3.65 -10.65 L-3.75 -10.45 Q-4.55 -9.95 -5.0 -10.75 L-5.0 -10.95 -4.95 -11.3 Q-4.6 -11.85 -4.0 -11.85 L-4.0 -11.9 -3.55 -11.55 -3.4 -11.4 M-4.3 -8.15 Q-4.95 -6.75 -6.15 -7.8 L-6.0 -8.7 -5.7 -9.05 -5.55 -9.1 -5.25 -9.15 -5.25 -9.2 Q-4.45 -9.1 -4.35 -8.3 L-4.3 -8.15 M-4.8 -6.65 Q-4.55 -7.1 -4.0 -7.1 L-4.0 -7.15 Q-3.35 -7.05 -3.2 -6.45 L-3.15 -6.25 Q-3.2 -5.8 -3.55 -5.55 L-2.75 -5.95 -2.25 -5.6 -2.15 -5.45 Q-2.0 -4.45 -3.0 -4.2 -3.3 -4.25 -3.5 -4.4 -3.9 -4.05 -4.75 -4.7 L-4.8 -4.9 -4.8 -5.25 -4.7 -5.45 -4.55 -5.6 -4.8 -5.9 -4.85 -6.25 -4.8 -6.65 M-7.65 -7.45 L-7.5 -7.3 Q-7.6 -5.6 -9.0 -6.7 L-9.05 -6.9 -9.05 -7.25 -8.95 -7.45 -8.75 -7.65 -8.55 -7.75 -8.25 -7.8 -7.65 -7.45 M-5.65 -5.25 Q-6.3 -3.75 -7.5 -4.95 L-7.55 -5.15 -7.55 -5.5 Q-7.2 -6.15 -6.5 -6.1 L-6.5 -6.15 Q-5.85 -6.05 -5.7 -5.45 L-5.65 -5.25 M-7.3 -4.65 L-7.4 -4.25 -7.65 -3.95 Q-8.2 -3.6 -8.55 -4.15 -8.85 -4.5 -8.6 -4.9 L-8.4 -5.2 -8.25 -5.25 -8.0 -5.3 -7.7 -5.2 -7.45 -4.8 -7.3 -4.65 M-7.5 -3.9 Q-6.55 -3.65 -6.65 -2.65 L-6.7 -2.45 Q-7.75 -1.3 -8.55 -2.75 L-8.55 -2.95 -8.5 -3.3 Q-8.2 -3.9 -7.5 -3.85 L-7.5 -3.9 M-5.8 -3.0 L-5.5 -3.05 -5.0 -2.75 -4.95 -2.9 -4.8 -2.9 -4.5 -2.95 -4.5 -3.0 -3.85 -2.85 Q-3.4 -2.65 -3.35 -2.05 L-3.3 -1.9 Q-4.05 -0.5 -5.1 -1.55 -5.5 -1.35 -6.25 -1.95 L-6.3 -2.15 -6.3 -2.5 -6.2 -2.7 -6.0 -2.9 -5.8 -3.0 M-2.25 -3.4 L-1.65 -2.85 -1.65 -2.7 -1.85 -2.35 -2.0 -2.2 -2.25 -2.15 Q-2.75 -2.15 -2.9 -2.65 -2.95 -3.1 -2.5 -3.3 L-2.25 -3.4 M-0.55 -2.4 L-0.65 -2.35 -0.5 -2.4 -0.55 -2.4 M-2.25 1.6 L-1.5 1.3 Q-1.0 1.35 -0.85 1.8 L-0.8 2.0 Q-0.85 2.35 -1.15 2.5 L-1.5 2.7 Q-2.1 2.65 -2.4 2.2 L-2.35 2.0 -2.25 1.6 M-5.65 2.0 L-6.0 2.2 -7.05 1.5 Q-7.15 0.3 -6.0 0.1 L-6.0 0.05 Q-4.4 0.75 -5.65 2.0" fill="#89623a" fill-rule="evenodd" stroke="none"/>
  </g>
</svg>
