<?xml version="1.0" encoding="UTF-8" standalone="no"?>
<svg xmlns:xlink="http://www.w3.org/1999/xlink" height="41.25px" width="45.0px" xmlns="http://www.w3.org/2000/svg">
  <g transform="matrix(1.0, 0.0, 0.0, 1.0, 22.15, 39.25)">
    <path d="M21.5 -25.65 L21.75 -25.8 22.0 -25.9 22.45 -25.55 22.6 -25.4 22.6 -25.0 22.5 -24.65 22.35 -24.55 22.0 -24.4 21.45 -24.7 Q21.35 -24.95 21.4 -25.25 L21.5 -25.65 M0.5 -39.25 L1.05 -39.05 1.2 -38.95 1.15 -38.55 1.05 -38.4 0.75 -38.25 Q0.1 -38.2 0.0 -38.75 L0.05 -38.9 0.2 -39.15 0.5 -39.2 0.5 -39.25 M8.05 -31.2 L7.9 -31.4 7.85 -31.55 8.25 -31.8 8.35 -31.8 8.55 -31.6 8.6 -31.45 8.05 -31.2 M4.75 -28.2 L4.5 -28.15 Q4.0 -28.15 3.85 -28.65 3.8 -29.1 4.25 -29.3 L4.5 -29.4 5.1 -28.85 5.1 -28.7 4.9 -28.35 4.75 -28.2 M1.5 -26.4 L2.1 -25.85 2.1 -25.7 1.9 -25.35 1.75 -25.2 1.5 -25.15 Q0.85 -25.2 0.8 -25.8 L1.25 -26.3 1.5 -26.4 M10.75 -28.25 L11.05 -28.1 11.2 -27.95 11.15 -27.55 11.05 -27.4 10.75 -27.25 Q10.25 -27.3 10.25 -27.75 L10.3 -27.9 10.45 -28.15 10.75 -28.2 10.75 -28.25 M15.75 -27.15 L16.35 -26.6 16.35 -26.45 16.15 -26.1 16.0 -25.95 15.75 -25.9 15.5 -25.8 15.2 -25.95 Q15.0 -26.3 15.15 -26.7 L15.25 -26.9 15.5 -27.05 15.75 -27.15 M19.85 -21.1 L20.0 -20.95 20.0 -20.75 19.85 -20.4 18.9 -20.35 18.75 -20.5 Q18.55 -20.9 18.9 -21.25 L19.25 -21.45 19.85 -21.1 M10.25 -19.15 Q11.05 -19.2 11.3 -18.45 L11.35 -18.25 Q10.7 -16.75 9.5 -17.85 L9.35 -17.7 9.1 -17.65 Q8.65 -17.7 8.4 -18.0 L8.25 -18.2 8.25 -18.25 Q7.75 -18.3 7.75 -18.75 L7.95 -19.1 8.05 -19.25 8.25 -19.25 8.35 -19.25 8.5 -19.15 8.7 -19.25 9.0 -19.3 9.6 -18.95 9.65 -18.9 10.25 -19.1 10.25 -19.15 M14.75 -20.4 L14.5 -20.05 14.25 -20.0 13.95 -20.15 13.7 -20.3 Q13.5 -20.55 13.6 -20.85 L13.75 -21.25 13.95 -21.35 14.25 -21.45 Q14.75 -21.4 14.85 -20.95 L14.95 -20.75 14.75 -20.4 M14.75 -17.55 Q14.65 -15.85 13.25 -16.95 L13.2 -17.15 13.2 -17.5 13.3 -17.7 13.5 -17.9 13.7 -18.0 14.0 -18.05 14.6 -17.7 14.75 -17.55 M10.55 -15.9 L10.6 -15.5 10.6 -15.3 11.25 -14.55 Q11.05 -12.75 9.5 -13.95 L9.45 -14.3 9.45 -14.5 9.95 -15.45 9.9 -15.65 9.85 -15.8 10.25 -16.05 10.35 -16.05 10.55 -15.9 M12.2 -12.95 L12.25 -13.3 13.75 -14.15 Q14.4 -14.05 14.55 -13.45 L14.6 -13.25 Q13.85 -11.7 12.25 -12.75 L12.2 -12.95 M18.1 -15.5 Q18.0 -15.1 17.5 -15.0 17.0 -15.05 17.0 -15.5 L17.15 -15.85 17.25 -16.0 17.3 -16.05 17.5 -16.05 17.6 -16.05 18.05 -15.65 18.1 -15.5 M17.5 -13.0 L17.45 -13.2 17.5 -13.55 17.65 -13.65 18.0 -13.8 18.35 -13.75 18.5 -13.55 18.55 -13.4 18.5 -13.2 18.3 -12.8 18.0 -12.7 17.65 -12.85 17.5 -13.0 M8.2 -23.5 L7.85 -23.0 7.5 -22.8 6.95 -23.15 6.85 -23.5 6.95 -23.9 7.5 -24.15 7.5 -24.2 Q8.0 -24.15 8.1 -23.7 L8.2 -23.5 M6.5 -21.45 Q7.3 -21.35 7.4 -20.55 L7.45 -20.4 Q7.15 -19.5 6.25 -19.3 L5.4 -19.6 5.25 -19.75 Q5.1 -20.85 6.2 -21.35 L6.5 -21.45 M1.2 -20.15 L1.1 -19.75 1.2 -19.4 1.1 -19.0 1.05 -18.9 1.0 -18.85 0.75 -18.75 0.45 -18.9 0.25 -19.05 0.2 -19.25 0.2 -19.45 -0.35 -19.85 Q-1.2 -19.5 -1.75 -20.25 L-1.65 -20.8 -1.45 -21.15 -1.3 -21.15 -1.0 -21.2 -1.0 -21.25 Q-0.45 -21.3 -0.15 -20.9 L-0.05 -20.9 0.25 -20.95 0.25 -21.0 Q0.75 -21.05 1.05 -20.7 L1.2 -20.5 1.2 -20.15 M3.5 -19.45 Q4.5 -19.5 4.65 -18.55 L4.7 -18.4 Q4.35 -17.6 3.5 -17.4 L3.25 -17.3 2.95 -17.45 2.6 -18.2 Q2.5 -18.45 2.55 -18.75 2.8 -19.4 3.5 -19.4 L3.5 -19.45 M3.2 -15.65 Q2.85 -14.9 2.05 -14.55 L1.75 -14.45 1.35 -14.55 1.1 -15.1 0.95 -15.5 0.95 -15.7 0.95 -15.9 1.0 -16.05 1.7 -16.6 2.0 -16.7 Q3.0 -16.75 3.15 -15.8 L3.2 -15.65 M0.8 -13.45 L0.85 -13.25 Q0.8 -12.8 0.4 -12.55 L0.0 -12.4 Q-0.55 -12.4 -0.8 -12.9 L-0.85 -13.25 -0.8 -13.65 Q-0.55 -14.1 0.0 -14.1 L0.0 -14.15 Q0.65 -14.05 0.8 -13.45 M5.05 -13.2 L5.1 -13.0 4.65 -12.3 4.25 -12.15 Q3.7 -12.15 3.45 -12.65 L3.4 -13.0 3.45 -13.4 Q3.7 -13.85 4.25 -13.85 L4.25 -13.9 Q4.9 -13.8 5.05 -13.2 M6.5 -15.8 L7.1 -15.45 7.25 -15.3 Q7.4 -14.85 7.15 -14.4 L6.95 -14.05 6.6 -13.95 6.45 -13.55 6.25 -13.4 6.0 -13.3 Q5.55 -13.4 5.4 -13.85 L5.35 -14.0 5.4 -14.15 5.6 -14.5 5.75 -14.55 5.7 -14.8 5.7 -15.2 5.75 -15.35 6.05 -15.7 6.2 -15.75 6.5 -15.8 M9.7 -12.6 L10.0 -12.65 10.0 -12.7 Q10.8 -12.6 10.9 -11.8 L10.95 -11.65 Q10.3 -10.25 9.1 -11.3 8.95 -11.8 9.25 -12.2 L9.55 -12.55 9.7 -12.6 M8.7 -11.3 Q8.5 -10.6 7.9 -10.2 L7.75 -10.05 7.5 -10.0 7.2 -10.15 7.0 -10.3 7.0 -10.5 7.05 -10.9 Q6.55 -11.8 7.45 -12.3 L7.75 -12.4 Q8.5 -12.25 8.65 -11.5 L8.7 -11.3 M6.3 -8.4 L7.2 -8.55 7.75 -8.9 7.75 -8.95 8.0 -8.8 8.1 -8.65 7.55 -7.5 7.45 -7.3 6.75 -7.0 Q6.3 -7.05 6.1 -7.35 L6.0 -7.1 5.95 -6.95 5.5 -6.95 5.25 -6.45 5.0 -6.15 4.75 -6.05 4.1 -6.55 4.0 -6.75 3.95 -7.15 3.95 -7.5 Q3.85 -6.9 3.25 -6.8 L2.7 -7.15 2.25 -6.95 1.9 -7.1 1.75 -7.25 1.7 -7.45 1.75 -7.8 1.95 -8.0 2.1 -8.2 2.05 -8.55 2.1 -9.15 2.7 -9.6 3.0 -9.7 Q3.8 -9.6 3.9 -8.8 L3.95 -8.65 3.65 -8.05 3.85 -7.7 3.95 -7.5 4.05 -7.7 4.25 -7.9 4.45 -8.0 4.75 -8.05 5.3 -7.7 5.85 -7.8 6.0 -7.65 Q5.95 -8.0 6.2 -8.25 L6.3 -8.4 M6.25 -6.75 L6.55 -6.65 6.8 -6.25 6.85 -6.05 Q6.85 -5.5 6.25 -5.4 L5.7 -5.7 5.65 -6.05 5.6 -6.25 5.75 -6.45 5.95 -6.65 6.25 -6.7 6.25 -6.75 M9.2 -7.9 L9.15 -8.05 9.15 -8.45 9.2 -8.65 9.6 -8.95 10.0 -9.15 10.75 -8.8 11.0 -8.65 Q10.95 -8.0 10.4 -7.55 L10.0 -7.4 9.35 -7.75 9.2 -7.9 M9.6 -6.45 L10.0 -6.55 10.3 -6.4 10.35 -6.5 10.5 -6.55 10.75 -6.6 10.75 -6.65 Q11.35 -6.5 11.5 -5.95 L11.55 -5.75 11.4 -5.4 11.2 -5.05 10.3 -5.1 10.0 -5.0 Q9.45 -5.05 9.25 -5.5 L9.25 -5.7 9.3 -6.05 9.45 -6.25 9.6 -6.45 M4.2 -11.2 L4.15 -10.6 4.1 -10.45 3.55 -10.2 3.35 -10.4 3.25 -10.95 3.25 -11.15 3.5 -11.4 3.75 -11.5 4.05 -11.35 4.2 -11.2 M0.8 -11.4 L0.95 -11.45 1.25 -11.5 Q1.7 -11.45 1.9 -11.0 L2.0 -10.8 1.85 -10.45 1.7 -10.15 Q0.75 -9.75 0.45 -10.7 L0.55 -11.05 0.8 -11.4 M1.3 -7.25 L1.1 -6.9 Q-0.6 -6.35 -0.8 -8.25 -0.6 -8.7 -0.05 -8.8 L0.25 -8.9 Q1.0 -8.65 1.3 -7.8 L1.35 -7.65 1.3 -7.25 M4.5 -4.8 L4.4 -4.15 4.45 -4.2 4.75 -4.25 Q5.2 -4.2 5.4 -3.75 L5.5 -3.55 5.4 -3.25 5.55 -3.15 5.7 -3.0 5.7 -2.85 5.75 -2.8 5.7 -2.55 5.7 -2.25 5.5 -2.05 Q5.0 -1.25 3.75 -2.25 L3.85 -2.8 4.05 -3.15 4.0 -3.25 4.1 -3.8 Q3.75 -3.6 3.0 -4.2 L2.95 -4.4 2.95 -4.75 3.05 -4.95 3.25 -5.15 3.45 -5.25 3.75 -5.3 4.35 -4.95 4.5 -4.8 M0.45 -3.25 L0.75 -3.3 1.35 -2.95 1.5 -2.8 Q1.45 -1.15 -0.1 -2.1 L-0.25 -2.25 -0.15 -2.8 0.05 -3.15 0.45 -3.25 M0.1 -4.95 Q0.45 -3.7 -0.75 -3.3 -1.3 -3.4 -1.65 -3.8 -1.85 -5.15 -0.5 -5.45 L0.0 -5.1 0.1 -4.95 M2.5 -3.9 Q3.5 -3.65 3.3 -2.65 L3.25 -2.45 2.85 -2.1 2.5 -1.95 1.75 -2.25 Q1.15 -3.5 2.5 -3.85 L2.5 -3.9 M0.05 -0.75 Q-0.05 -0.45 -0.25 -0.3 0.65 -0.2 1.05 0.55 L1.1 0.75 Q0.2 2.4 -1.25 0.85 L-1.3 0.5 -1.3 0.3 -1.05 -0.05 -0.95 -0.15 -1.15 -0.25 -1.3 -0.4 -1.4 -0.6 -1.45 -0.95 -1.35 -1.1 -1.2 -1.3 -0.75 -1.4 -0.75 -1.45 Q-0.25 -1.35 0.0 -0.95 L0.05 -0.75 M7.3 -3.1 L7.45 -2.95 7.05 -1.8 7.0 -1.65 6.75 -1.45 6.5 -1.4 5.95 -1.7 5.9 -2.05 5.85 -2.45 Q6.3 -3.1 7.0 -3.2 L7.0 -3.25 7.3 -3.1 M9.25 -3.0 L9.55 -2.9 9.75 -2.5 9.8 -2.3 9.75 -2.15 9.6 -1.8 9.5 -1.75 9.25 -1.7 8.75 -2.0 Q8.55 -2.5 9.0 -2.8 L9.25 -3.0 M15.8 -11.0 Q15.7 -9.6 14.4 -10.35 L14.25 -10.5 14.25 -10.9 14.55 -11.4 14.7 -11.4 15.0 -11.45 15.0 -11.5 15.65 -11.15 15.8 -11.0 M13.75 -10.45 L14.25 -10.1 14.35 -9.95 14.4 -9.75 14.35 -9.4 14.05 -9.05 13.75 -8.9 Q12.95 -9.1 13.1 -9.95 L13.2 -10.15 13.75 -10.4 13.75 -10.45 M12.25 -9.4 L12.85 -8.85 12.85 -8.7 12.65 -8.35 12.5 -8.2 12.25 -8.15 Q11.75 -8.15 11.6 -8.65 11.55 -9.1 12.0 -9.3 L12.25 -9.4 M13.45 -5.5 L13.1 -5.0 12.75 -4.8 Q12.2 -4.85 11.95 -5.3 L11.95 -5.5 12.05 -5.9 12.75 -6.15 12.75 -6.2 Q13.25 -6.15 13.35 -5.7 L13.45 -5.5 M22.6 -20.8 L22.8 -20.65 22.85 -19.7 22.8 -19.5 22.7 -19.4 22.5 -19.3 22.2 -19.45 Q22.0 -19.85 22.1 -20.4 L22.1 -20.55 22.5 -20.8 22.6 -20.8 M3.3 0.6 Q2.55 1.9 1.5 0.8 L1.45 0.6 1.45 0.25 Q1.85 -0.35 2.5 -0.45 3.2 -0.3 3.3 0.45 L3.3 0.6 M-15.1 -32.05 L-15.2 -31.9 -15.5 -31.75 Q-16.0 -31.8 -16.0 -32.25 L-15.95 -32.4 -15.8 -32.65 -15.5 -32.7 -15.5 -32.75 -15.2 -32.6 -15.05 -32.45 -15.1 -32.05 M-19.55 -25.65 L-19.0 -25.9 -19.0 -25.95 Q-18.5 -25.85 -18.35 -25.45 L-18.25 -25.25 -18.65 -24.75 -19.0 -24.55 -19.55 -24.9 -19.65 -25.25 -19.55 -25.65 M-13.3 -26.9 Q-13.25 -26.5 -13.65 -26.15 L-13.75 -26.0 -14.0 -25.95 -14.5 -26.25 -14.55 -26.65 -14.5 -26.8 -13.65 -27.25 -13.4 -27.05 -13.3 -26.9 M-2.6 -32.5 L-2.65 -32.3 -2.8 -32.2 -3.25 -32.0 -3.75 -32.3 -3.75 -32.7 -3.7 -32.9 -3.25 -33.15 -3.25 -33.2 Q-2.75 -33.0 -2.6 -32.5 M-8.5 -35.05 L-8.15 -34.9 -8.0 -34.75 -8.2 -34.4 -8.4 -34.2 -8.7 -34.2 -8.85 -34.4 -8.9 -34.55 -8.7 -34.9 -8.5 -35.05 M-7.05 -28.7 Q-6.95 -28.4 -7.2 -28.15 L-7.4 -27.95 Q-7.85 -27.75 -8.05 -28.2 -8.1 -28.6 -7.8 -28.8 L-7.5 -29.0 -7.2 -28.85 -7.05 -28.7 M-8.3 -25.05 L-8.3 -24.9 -8.45 -24.7 -8.55 -24.5 Q-9.1 -24.05 -9.55 -24.65 L-9.65 -25.35 -9.5 -25.75 -9.3 -25.85 -9.0 -25.95 Q-8.3 -25.8 -8.3 -25.05 M-20.95 -20.9 L-20.8 -20.75 Q-20.6 -20.4 -20.95 -20.0 L-21.05 -19.8 -21.25 -19.7 -21.5 -19.65 Q-22.0 -19.65 -22.15 -20.15 -22.1 -20.95 -21.25 -21.05 L-20.95 -20.9 M-4.45 -22.15 L-4.15 -21.2 -4.2 -21.0 -4.55 -20.75 Q-4.65 -20.65 -4.75 -20.65 L-5.3 -20.95 Q-5.5 -21.65 -4.95 -22.15 L-4.75 -22.25 -4.45 -22.15 M-9.75 -21.05 Q-9.6 -20.6 -9.85 -20.15 L-10.05 -19.8 Q-10.95 -19.45 -11.5 -20.25 L-11.5 -20.45 -11.5 -20.8 -11.0 -21.4 -10.8 -21.5 -10.5 -21.55 -9.9 -21.2 -9.75 -21.05 M-5.6 -17.7 L-5.55 -17.5 Q-5.6 -17.15 -5.9 -17.0 L-6.25 -16.8 -6.8 -17.15 -6.9 -17.5 -6.8 -17.9 -6.25 -18.15 -6.25 -18.2 Q-5.75 -18.15 -5.6 -17.7 M-5.1 -17.45 L-5.05 -18.0 -4.95 -18.2 -4.75 -18.4 -4.55 -18.5 -4.25 -18.55 -3.65 -18.2 -3.5 -18.05 Q-3.35 -17.6 -3.6 -17.15 L-3.8 -16.8 -4.95 -16.7 -5.15 -16.9 -5.1 -17.45 M-8.15 -15.95 L-8.0 -15.8 Q-8.1 -14.1 -9.5 -15.2 L-9.55 -15.4 -9.55 -15.75 -9.45 -15.95 -9.25 -16.15 -9.05 -16.25 -8.75 -16.3 -8.15 -15.95 M-7.65 -12.55 L-7.65 -12.4 Q-8.6 -10.9 -9.65 -12.5 -9.75 -13.25 -9.05 -13.55 L-8.75 -13.65 Q-7.85 -13.45 -7.65 -12.55 M-6.05 -13.95 L-5.75 -14.05 Q-5.25 -14.1 -4.9 -13.75 L-4.75 -13.55 Q-4.95 -11.75 -6.5 -12.95 L-6.55 -13.15 -6.55 -13.3 -6.55 -13.5 -6.45 -13.7 -6.25 -13.9 -6.05 -13.95 M-1.75 -17.0 L-1.2 -16.65 -1.05 -16.5 -1.05 -16.3 -1.0 -15.95 -1.5 -15.45 -1.75 -15.4 -2.3 -15.7 -2.45 -15.9 -2.5 -16.05 -2.5 -16.45 -2.4 -16.6 -2.25 -16.8 -2.05 -16.9 -1.75 -17.0 M-13.75 -20.3 Q-13.85 -18.6 -15.25 -19.7 L-15.3 -19.9 -15.3 -20.25 -15.2 -20.45 -15.0 -20.65 -14.8 -20.75 -14.5 -20.8 -13.9 -20.45 -13.75 -20.3 M-17.4 -17.05 Q-18.05 -16.7 -18.5 -17.25 L-18.55 -17.65 -18.5 -17.8 -18.0 -18.15 -17.75 -18.25 -17.45 -18.15 -17.25 -17.75 -17.2 -17.55 -17.25 -17.4 -17.4 -17.05 M-12.25 -18.0 L-11.6 -17.5 -11.5 -17.3 -11.65 -16.95 -11.8 -16.65 Q-12.6 -16.3 -13.0 -17.0 L-12.9 -17.55 -12.7 -17.9 -12.55 -17.95 -12.25 -18.0 M-13.05 -12.9 L-13.05 -13.25 -12.95 -13.45 -12.75 -13.65 -12.55 -13.75 -12.25 -13.8 -11.65 -13.45 -11.5 -13.3 Q-11.6 -11.6 -13.0 -12.7 L-13.05 -12.9 M-10.15 -9.45 L-10.55 -9.9 Q-10.75 -10.35 -10.45 -10.8 L-10.2 -11.2 -9.75 -11.3 -9.15 -10.95 -9.0 -10.8 -8.95 -9.95 -8.65 -9.95 -8.15 -9.35 -8.15 -9.2 -8.35 -8.85 -8.5 -8.7 -9.1 -8.55 -9.0 -8.2 -8.95 -8.0 Q-9.0 -7.7 -9.2 -7.45 L-9.3 -7.3 Q-10.2 -6.9 -10.75 -7.7 -10.95 -8.65 -10.15 -9.05 L-10.15 -9.45 M-10.2 -5.95 L-10.0 -6.15 -9.8 -6.25 -9.5 -6.3 -8.9 -5.95 -8.75 -5.8 Q-8.85 -4.1 -10.25 -5.2 L-10.3 -5.4 -10.3 -5.75 -10.2 -5.95 M-1.25 -12.2 Q-0.45 -12.1 -0.35 -11.3 L-0.3 -11.15 Q-1.2 -9.65 -2.5 -10.95 L-2.55 -11.15 -2.55 -11.5 Q-2.1 -12.2 -1.25 -12.15 L-1.25 -12.2 M-1.55 -10.25 L-1.25 -10.3 -0.65 -9.95 -0.5 -9.8 Q-0.6 -8.1 -2.0 -9.2 L-2.05 -9.4 -2.05 -9.75 -1.95 -9.95 -1.75 -10.15 -1.55 -10.25 M-4.75 -12.3 L-4.15 -11.95 -4.0 -11.8 Q-3.9 -11.1 -4.45 -10.5 L-4.65 -10.3 Q-4.5 -9.75 -4.8 -9.4 -4.2 -9.25 -4.1 -8.55 L-4.05 -8.4 Q-4.7 -7.0 -5.9 -8.05 L-5.75 -8.95 -5.65 -9.1 Q-6.1 -9.2 -6.4 -9.55 -6.6 -10.2 -6.1 -10.7 L-5.9 -10.9 -5.6 -11.8 -5.45 -12.15 -5.05 -12.25 -4.75 -12.3 M-3.5 -8.0 Q-3.05 -7.95 -2.85 -7.5 L-2.75 -7.3 -2.9 -6.95 -3.05 -6.65 -3.5 -6.5 -3.75 -6.45 -4.1 -6.6 -4.25 -6.75 -4.3 -7.15 -4.25 -7.5 -4.1 -7.7 -3.95 -7.9 -3.5 -7.95 -3.5 -8.0 M-0.65 -6.3 L-0.65 -6.15 Q-1.25 -4.85 -2.3 -5.9 -2.55 -6.8 -1.75 -7.3 L-1.5 -7.4 Q-0.75 -7.15 -0.65 -6.3 M-7.8 -7.5 L-7.5 -7.55 -6.9 -7.2 -6.75 -7.05 Q-6.8 -5.4 -8.35 -6.35 L-8.5 -6.5 -8.4 -7.05 -8.2 -7.4 -7.8 -7.5 M-5.15 -4.9 L-5.05 -4.7 Q-5.8 -3.4 -6.75 -4.45 L-6.8 -4.65 -6.8 -4.8 -6.8 -5.0 -6.7 -5.2 -6.5 -5.4 -6.3 -5.5 -6.0 -5.55 Q-5.35 -5.45 -5.15 -4.9 M-8.55 -1.65 L-8.55 -2.0 -8.45 -2.2 -8.25 -2.4 -8.05 -2.5 -7.75 -2.55 -7.15 -2.2 -7.0 -2.05 Q-7.1 -0.35 -8.5 -1.45 L-8.55 -1.65 M-5.5 -1.95 L-5.25 -2.3 -5.05 -2.4 -4.75 -2.5 -4.4 -2.25 -4.4 -2.3 -4.2 -2.65 -4.05 -2.7 -3.75 -2.75 -3.15 -2.3 -2.9 -2.7 -2.65 -3.0 -2.5 -3.05 -2.25 -3.1 -2.25 -3.15 Q-1.5 -2.85 -1.35 -2.05 L-1.3 -1.9 Q-1.95 -0.5 -3.15 -1.55 L-3.15 -1.6 -3.3 -1.4 -4.1 -1.35 Q-4.3 -1.1 -4.85 -0.9 -5.3 -0.75 -5.5 -1.2 L-5.5 -1.95 M-2.15 -4.5 Q-2.2 -4.05 -2.6 -3.8 L-3.0 -3.65 Q-3.65 -3.7 -3.95 -4.3 L-4.05 -4.5 -4.05 -4.7 -4.05 -4.9 -4.0 -5.05 -3.85 -5.25 -3.7 -5.45 -3.25 -5.55 Q-2.45 -5.4 -2.2 -4.7 L-2.15 -4.5 M-3.0 0.95 Q-3.1 2.65 -4.5 1.55 L-4.55 1.35 -4.55 1.0 -4.45 0.8 -4.25 0.6 -4.05 0.5 -3.75 0.45 -3.15 0.8 -3.0 0.95" fill="#89623a" fill-rule="evenodd" stroke="none"/>
  </g>
</svg>
