<?xml version="1.0" encoding="UTF-8" standalone="no"?>
<svg xmlns:xlink="http://www.w3.org/1999/xlink" height="73.85px" width="96.05px" xmlns="http://www.w3.org/2000/svg">
  <g transform="matrix(1.0, 0.0, 0.0, 1.0, 43.3, 79.45)">
    <path d="M42.15 -68.1 L42.25 -68.25 42.3 -68.3 42.6 -68.3 42.8 -68.15 Q42.85 -67.4 42.1 -67.0 L41.7 -67.2 42.15 -68.1 M43.05 -58.4 L42.75 -58.25 Q42.3 -58.25 42.05 -58.65 L42.1 -58.8 42.25 -59.15 42.75 -59.2 42.75 -59.25 43.05 -59.1 43.2 -58.95 43.15 -58.55 43.05 -58.4 M47.55 -56.5 L47.6 -56.7 47.7 -56.9 47.8 -57.05 48.25 -57.15 48.25 -57.2 Q48.75 -57.25 49.05 -56.85 L49.1 -56.7 49.05 -55.9 48.95 -55.55 48.8 -55.4 48.5 -55.25 Q47.85 -55.6 47.6 -56.35 L47.55 -56.5 M17.25 -79.45 L17.55 -79.3 17.65 -78.95 17.7 -78.75 Q17.55 -78.2 17.0 -78.05 L16.55 -78.4 16.7 -78.95 16.8 -79.1 17.25 -79.4 17.25 -79.45 M10.8 -70.8 L9.5 -70.0 9.2 -70.15 9.0 -70.3 Q9.05 -71.15 9.75 -71.65 L9.85 -71.75 10.0 -71.8 10.25 -71.85 10.25 -71.9 10.7 -71.55 10.85 -71.4 10.85 -71.2 10.8 -70.8 M20.05 -67.3 L20.2 -67.2 Q20.3 -66.5 19.5 -66.3 L18.95 -66.65 18.95 -66.8 19.0 -67.2 19.2 -67.4 19.5 -67.45 19.5 -67.5 20.05 -67.3 M9.05 -75.25 L8.85 -74.9 8.75 -74.8 8.5 -74.7 Q7.85 -74.8 7.6 -75.4 7.55 -75.85 8.0 -76.05 L8.25 -76.15 Q8.7 -76.2 9.0 -75.8 L9.1 -75.65 9.05 -75.25 M3.2 -72.0 L2.85 -71.5 2.5 -71.3 1.85 -71.65 1.85 -72.0 1.95 -72.4 2.5 -72.65 2.5 -72.7 Q3.0 -72.65 3.1 -72.2 L3.2 -72.0 M3.0 -64.05 L3.3 -63.9 3.45 -63.75 Q3.65 -62.95 2.75 -62.7 L2.35 -62.8 2.25 -63.1 Q1.7 -63.0 1.6 -63.55 1.8 -63.95 2.25 -63.9 L2.25 -63.95 2.45 -63.8 2.75 -64.0 3.0 -64.05 M10.05 -56.3 L10.2 -56.35 10.5 -56.4 10.5 -56.45 Q11.5 -56.5 11.65 -55.55 L11.7 -55.4 Q10.95 -53.9 9.6 -55.05 9.45 -55.55 9.75 -55.95 L10.05 -56.3 M10.85 -63.95 L11.0 -64.0 11.25 -64.05 11.55 -63.9 11.7 -63.75 11.8 -62.8 11.75 -62.65 Q10.9 -62.0 10.35 -62.9 10.4 -63.4 10.75 -63.8 L10.85 -63.95 M15.15 -60.45 L15.25 -60.5 15.5 -60.55 16.2 -60.2 16.35 -60.05 15.85 -59.55 15.5 -59.45 15.15 -59.6 15.0 -59.75 14.95 -59.95 14.95 -60.1 15.0 -60.3 15.15 -60.45 M27.35 -73.6 L27.35 -73.45 27.15 -73.1 27.0 -72.95 26.75 -72.9 Q26.25 -72.9 26.1 -73.4 26.0 -73.85 26.5 -74.05 L26.75 -74.15 27.35 -73.6 M27.95 -71.8 L27.75 -71.65 27.3 -71.7 27.15 -71.9 27.1 -72.05 27.25 -72.25 27.5 -72.4 27.85 -72.3 28.05 -72.1 28.1 -71.95 27.95 -71.8 M25.0 -64.1 L24.75 -64.0 Q24.25 -64.05 24.25 -64.5 24.35 -65.25 25.0 -65.4 L25.0 -65.45 25.25 -65.25 25.35 -65.15 25.2 -64.35 25.1 -64.2 25.0 -64.1 M23.3 -60.1 L23.45 -59.95 23.4 -59.55 23.35 -59.4 23.25 -59.25 23.0 -59.05 22.45 -59.4 22.5 -59.75 22.5 -59.95 22.7 -60.15 23.0 -60.2 23.0 -60.25 23.3 -60.1 M22.6 -56.55 L23.0 -56.8 23.1 -56.8 23.3 -56.6 23.35 -56.45 23.2 -55.85 23.1 -55.7 22.85 -55.65 22.65 -56.4 22.6 -56.55 M34.1 -66.0 L34.25 -65.8 34.25 -65.65 33.45 -65.7 33.5 -65.85 33.75 -66.05 34.1 -66.0 M32.35 -61.9 Q32.25 -62.05 32.3 -62.25 L32.45 -62.35 32.75 -62.45 32.75 -62.5 33.45 -62.0 33.55 -61.8 33.5 -61.65 33.4 -61.45 33.35 -61.3 33.25 -61.25 33.0 -61.2 32.6 -61.3 32.35 -61.9 M34.9 -55.4 L34.85 -55.55 35.25 -55.8 35.35 -55.8 35.55 -55.6 35.6 -55.45 35.05 -55.2 34.9 -55.4 M31.95 -54.75 L31.95 -54.4 31.85 -54.05 Q31.0 -53.7 30.75 -54.5 30.85 -55.1 31.5 -55.05 L31.8 -54.9 31.95 -54.75 M39.5 -51.15 L39.75 -51.25 Q40.35 -51.3 40.65 -50.75 L40.75 -50.55 40.7 -50.4 40.6 -50.2 40.5 -50.05 Q39.6 -49.85 39.25 -50.7 39.2 -51.0 39.5 -51.15 M33.6 -51.5 L33.8 -51.3 33.45 -50.95 33.25 -50.8 32.95 -51.15 32.95 -51.3 33.0 -51.4 33.25 -51.55 33.6 -51.5 M32.5 -53.75 L32.6 -53.65 32.55 -53.25 32.5 -53.05 31.75 -52.8 31.5 -52.95 Q31.6 -53.4 32.0 -53.75 L32.25 -53.95 32.5 -53.75 M31.5 -45.75 Q33.1 -44.8 31.4 -44.15 30.95 -43.95 30.75 -44.45 30.6 -44.8 30.75 -45.2 L31.0 -45.55 31.2 -45.65 31.5 -45.75 M39.75 -46.95 L40.0 -47.0 40.55 -46.8 40.7 -46.7 40.65 -46.3 40.55 -46.15 Q39.5 -45.7 39.1 -46.75 L39.75 -46.95 M26.75 -49.05 Q26.2 -49.15 25.85 -49.55 25.7 -50.05 26.0 -50.45 L26.3 -50.9 26.75 -50.95 26.75 -51.0 27.6 -50.3 27.7 -50.15 Q27.65 -49.2 26.75 -49.05 M24.0 -42.9 Q22.25 -44.0 24.0 -44.85 L24.0 -44.9 Q24.7 -44.8 24.85 -44.2 L24.95 -44.0 24.7 -43.45 24.45 -43.05 24.25 -42.95 24.0 -42.9 M29.0 -39.2 L29.25 -39.25 Q30.2 -38.9 30.65 -38.0 L30.75 -37.8 30.6 -37.45 30.45 -37.15 Q29.55 -36.8 29.05 -37.7 L29.0 -37.9 29.0 -38.05 Q28.6 -38.7 27.8 -38.7 L27.65 -38.9 27.6 -39.05 28.0 -39.3 28.1 -39.3 29.0 -39.2 M27.5 -36.0 L27.8 -35.85 27.95 -35.7 27.9 -35.3 27.8 -35.15 27.5 -35.0 Q27.0 -35.05 27.0 -35.5 L27.05 -35.65 27.2 -35.9 27.5 -35.95 27.5 -36.0 M21.25 -36.3 L21.35 -36.3 21.9 -35.75 22.05 -35.55 Q22.05 -33.4 20.25 -34.5 20.2 -35.5 20.9 -36.15 L21.05 -36.3 21.25 -36.3 M22.7 -38.9 L23.0 -38.95 23.0 -39.0 23.3 -38.85 23.45 -38.7 23.4 -38.3 23.3 -38.15 23.0 -38.0 Q22.5 -38.05 22.5 -38.5 L22.55 -38.65 22.7 -38.9 M24.25 -32.4 Q25.65 -31.65 24.9 -30.55 L25.15 -30.0 25.2 -29.8 Q24.75 -28.6 23.3 -28.9 L23.1 -28.7 23.0 -28.55 22.75 -28.5 22.3 -28.85 22.25 -29.0 Q22.6 -30.0 23.4 -30.5 L23.35 -30.55 Q22.95 -31.95 24.25 -32.35 L24.25 -32.4 M28.95 -33.95 L29.1 -34.15 29.5 -34.2 29.5 -34.25 30.0 -33.9 30.1 -33.75 29.75 -33.4 29.5 -33.25 Q29.0 -33.3 28.85 -33.75 L28.95 -33.95 M27.5 -31.15 L28.35 -30.75 28.5 -30.55 Q28.4 -28.85 27.1 -30.05 26.75 -30.45 27.0 -30.9 L27.15 -31.0 27.25 -31.05 27.5 -31.15 M36.6 -36.8 L36.75 -37.0 37.0 -37.15 37.35 -37.05 37.55 -36.85 37.6 -36.7 37.45 -36.55 37.25 -36.4 36.8 -36.45 36.65 -36.65 36.6 -36.8 M33.3 -38.5 L33.5 -38.55 34.25 -38.25 34.35 -38.15 34.3 -37.75 34.25 -37.65 Q33.3 -37.2 33.0 -38.0 33.0 -38.3 33.3 -38.5 M33.35 -32.1 L33.35 -31.95 33.15 -31.6 33.0 -31.45 32.75 -31.4 Q32.25 -31.4 32.1 -31.9 32.0 -32.35 32.5 -32.55 L32.75 -32.65 Q33.15 -32.55 33.35 -32.1 M16.2 -48.65 L16.5 -48.7 16.5 -48.75 Q17.05 -48.7 17.4 -48.25 L17.55 -48.05 17.55 -47.7 17.35 -47.15 Q16.4 -46.5 15.7 -47.4 15.55 -47.75 15.7 -48.1 L16.05 -48.65 16.2 -48.65 M19.25 -49.95 L19.5 -49.75 19.6 -49.65 Q19.65 -49.25 19.35 -48.9 L19.1 -48.7 18.8 -48.7 18.6 -48.9 18.75 -49.45 18.8 -49.65 19.25 -49.9 19.25 -49.95 M10.5 -50.05 L10.75 -50.25 11.0 -50.3 11.3 -50.15 11.45 -50.0 11.45 -49.65 11.35 -49.3 11.25 -49.25 11.0 -49.2 10.5 -49.5 10.45 -49.9 10.5 -50.05 M11.5 -44.95 Q12.3 -44.85 12.4 -44.05 L12.45 -43.9 Q11.8 -42.5 10.6 -43.55 10.45 -44.05 10.75 -44.45 L11.05 -44.8 11.2 -44.85 11.5 -44.9 11.5 -44.95 M16.2 -43.75 L16.2 -43.4 16.1 -43.05 16.0 -43.0 15.75 -42.95 15.25 -43.25 15.2 -43.65 15.25 -43.8 15.5 -44.0 15.75 -44.05 16.05 -43.9 16.2 -43.75 M19.25 -43.95 L19.55 -43.8 19.75 -43.45 19.8 -43.25 19.65 -42.7 19.6 -42.5 19.5 -42.35 19.25 -42.2 18.95 -42.3 Q18.7 -42.85 18.75 -43.45 L18.8 -43.65 19.25 -43.9 19.25 -43.95 M7.25 -52.65 Q7.9 -52.55 8.05 -51.95 L8.1 -51.75 Q7.15 -49.5 6.2 -51.55 L6.2 -51.9 Q6.55 -52.55 7.25 -52.6 L7.25 -52.65 M5.75 -51.05 Q5.9 -49.7 4.5 -50.05 L4.2 -50.65 4.2 -51.0 4.3 -51.2 4.5 -51.4 4.7 -51.5 5.0 -51.55 5.6 -51.2 5.75 -51.05 M1.05 -49.9 L1.2 -49.75 1.2 -49.4 1.1 -49.05 1.0 -49.0 0.75 -48.95 0.25 -49.25 0.2 -49.65 0.25 -49.8 0.5 -50.0 0.75 -50.05 1.05 -49.9 M4.05 -47.2 L4.5 -47.3 5.1 -46.95 5.25 -46.8 Q5.4 -45.85 4.35 -45.5 L4.0 -45.4 3.45 -45.75 3.35 -45.9 Q3.45 -46.5 3.9 -47.0 L4.05 -47.2 M1.0 -42.4 L1.0 -42.45 Q1.8 -42.35 1.9 -41.55 L1.95 -41.4 Q1.3 -40.0 0.1 -41.05 -0.05 -41.55 0.25 -41.95 L0.55 -42.3 0.7 -42.35 1.0 -42.4 M0.2 -42.9 Q0.15 -41.95 -0.75 -41.8 -1.3 -41.9 -1.65 -42.3 -1.9 -43.45 -0.75 -43.7 L-0.5 -43.75 -0.2 -43.65 0.1 -43.05 0.2 -42.9 M7.25 -45.2 L7.8 -45.0 7.85 -44.9 7.9 -44.7 7.75 -44.4 7.05 -44.25 6.9 -44.45 6.8 -44.65 Q6.75 -44.95 7.0 -45.1 L7.25 -45.2 M7.15 -41.25 L7.3 -41.05 7.3 -40.5 7.1 -40.15 Q6.3 -39.55 5.7 -40.4 5.6 -40.65 5.65 -40.95 L5.7 -41.15 6.3 -41.85 6.5 -41.95 6.8 -41.8 Q6.9 -41.45 7.15 -41.25 M6.95 -38.15 Q7.2 -38.6 7.75 -38.6 L7.75 -38.65 Q8.55 -38.7 8.8 -37.95 L8.85 -37.75 Q8.2 -36.2 6.95 -37.4 L6.9 -37.75 6.95 -38.15 M3.3 -39.6 L3.35 -39.45 2.8 -39.2 2.6 -39.4 2.6 -39.55 2.75 -39.75 3.0 -39.8 3.1 -39.8 3.3 -39.6 M0.75 -36.05 L0.85 -35.5 0.85 -35.15 0.55 -34.8 0.25 -34.65 Q-0.5 -34.8 -0.8 -35.5 L-0.8 -35.7 -0.75 -36.05 -0.6 -36.25 -0.45 -36.45 0.0 -36.55 0.6 -36.2 0.75 -36.05 M4.25 -34.0 L4.2 -34.2 4.25 -34.55 4.5 -34.75 4.75 -34.8 5.2 -34.5 5.35 -34.3 5.3 -34.15 5.1 -33.8 5.0 -33.75 4.75 -33.7 4.25 -34.0 M1.3 -31.05 L1.55 -31.45 2.0 -31.55 2.6 -31.2 2.75 -31.05 Q3.1 -29.95 2.0 -29.65 1.45 -29.65 1.2 -30.15 1.0 -30.6 1.3 -31.05 M4.45 -30.9 L4.45 -31.25 4.55 -31.45 4.75 -31.65 4.95 -31.75 5.25 -31.8 5.85 -31.45 6.0 -31.3 Q5.9 -29.6 4.5 -30.7 L4.45 -30.9 M8.75 -33.95 Q9.55 -33.85 9.65 -33.05 L9.7 -32.9 Q8.9 -31.4 7.7 -32.75 L7.7 -32.95 7.75 -33.3 8.45 -33.85 8.75 -33.95 M17.5 -37.8 Q17.4 -36.95 16.5 -36.75 15.95 -36.8 15.75 -37.25 15.7 -37.8 16.05 -38.2 L16.25 -38.4 16.75 -38.45 16.75 -38.5 Q17.2 -38.45 17.4 -38.0 L17.5 -37.8 M12.0 -40.05 L12.6 -39.7 12.75 -39.55 12.85 -39.0 12.85 -38.65 Q12.25 -37.3 11.2 -38.4 11.05 -38.75 11.15 -39.15 L11.2 -39.5 11.3 -39.7 11.5 -39.9 11.7 -40.0 12.0 -40.05 M12.7 -35.15 L12.7 -34.8 12.5 -34.75 12.25 -34.7 11.75 -35.0 11.7 -35.4 11.75 -35.55 12.0 -35.75 12.25 -35.8 12.55 -35.65 12.7 -35.5 12.7 -35.15 M14.2 -33.45 L14.75 -33.65 Q16.65 -32.9 15.35 -31.5 L15.0 -31.3 Q13.7 -31.65 13.7 -32.95 13.8 -33.35 14.2 -33.45 M11.25 -29.9 Q11.9 -29.8 12.05 -29.2 L12.1 -29.0 Q12.05 -28.55 11.65 -28.3 L11.25 -28.15 Q10.7 -28.15 10.45 -28.65 L10.4 -29.0 10.45 -29.4 Q10.7 -29.85 11.25 -29.85 L11.25 -29.9 M12.55 -31.45 L12.6 -31.25 Q12.25 -30.05 11.05 -30.45 10.75 -30.75 10.75 -31.2 L10.8 -31.55 Q11.15 -32.1 11.75 -32.1 L11.75 -32.15 Q12.4 -32.05 12.55 -31.45 M19.45 -34.45 L19.4 -34.05 19.3 -33.9 19.0 -33.75 Q18.5 -33.8 18.5 -34.25 L18.55 -34.4 18.7 -34.65 19.0 -34.7 19.0 -34.75 19.3 -34.6 19.45 -34.45 M19.25 -31.65 L19.7 -31.3 19.85 -31.15 19.5 -30.2 19.35 -30.0 19.05 -30.0 18.35 -30.55 Q18.3 -31.05 18.65 -31.35 L18.85 -31.5 19.25 -31.6 19.25 -31.65 M19.15 -27.05 L19.2 -26.9 17.0 -26.95 Q17.25 -27.85 18.25 -27.9 L18.25 -27.95 Q19.05 -27.85 19.15 -27.05 M13.25 -27.7 L13.55 -28.05 13.7 -28.1 14.0 -28.15 14.0 -28.2 14.4 -28.05 14.75 -27.9 14.8 -27.7 14.95 -27.15 Q14.3 -25.75 13.1 -26.8 12.95 -27.3 13.25 -27.7 M11.65 -25.05 L11.7 -24.9 Q11.05 -23.5 9.85 -24.55 9.7 -25.15 10.05 -25.65 L10.3 -26.0 10.45 -26.05 10.75 -26.15 Q11.55 -25.95 11.65 -25.05 M12.4 -24.5 L12.55 -24.7 13.0 -24.8 13.6 -24.45 13.75 -24.3 Q13.95 -23.6 13.3 -23.2 L13.0 -23.05 12.3 -23.55 12.2 -23.75 12.2 -23.95 12.25 -24.3 12.4 -24.5 M12.0 -20.15 Q12.65 -20.05 12.8 -19.45 L12.85 -19.25 Q12.8 -18.8 12.4 -18.55 L12.0 -18.4 Q11.45 -18.4 11.2 -18.9 L11.15 -19.25 11.2 -19.65 Q11.45 -20.1 12.0 -20.1 L12.0 -20.15 M14.75 -19.55 Q14.35 -17.6 13.1 -19.3 12.9 -19.55 12.95 -19.9 L13.15 -20.15 13.5 -20.3 Q14.1 -20.1 14.6 -19.7 L14.75 -19.55 M20.1 -21.05 L20.1 -20.9 Q18.85 -19.4 17.85 -21.4 L17.8 -21.55 Q17.75 -21.85 17.85 -22.15 L18.45 -22.6 18.75 -22.7 Q19.8 -22.25 20.1 -21.05 M8.0 -28.8 Q8.35 -27.7 7.25 -27.4 6.7 -27.4 6.45 -27.9 6.25 -28.35 6.55 -28.8 L6.8 -29.2 7.25 -29.3 7.85 -28.95 8.0 -28.8 M7.15 -23.8 L7.2 -23.65 Q6.35 -22.1 4.85 -23.3 L4.8 -23.9 Q4.9 -24.35 5.3 -24.55 L5.45 -24.6 5.75 -24.65 5.75 -24.7 Q6.9 -24.85 7.15 -23.8 M8.2 -24.4 L8.5 -24.45 8.5 -24.5 Q9.15 -24.3 9.6 -23.8 L9.7 -23.65 9.7 -23.5 9.7 -23.45 9.7 -23.15 9.6 -22.75 Q9.1 -22.2 8.5 -22.75 8.1 -22.85 7.75 -23.2 7.65 -23.45 7.7 -23.75 L8.0 -24.3 8.2 -24.4 M0.5 -24.8 Q0.45 -23.15 -1.1 -24.1 L-1.25 -24.25 -1.15 -24.8 -0.95 -25.15 -0.55 -25.25 -0.25 -25.3 0.35 -24.95 0.5 -24.8 M3.25 -26.15 Q3.9 -26.05 4.05 -25.45 L4.1 -25.25 Q3.45 -23.75 2.25 -24.95 L2.2 -25.15 2.2 -25.5 Q2.55 -26.15 3.25 -26.1 L3.25 -26.15 M2.75 -22.05 Q2.9 -21.45 2.5 -20.95 L2.25 -20.55 1.8 -20.5 1.4 -21.1 1.25 -21.25 1.2 -21.65 1.2 -22.0 1.3 -22.2 1.5 -22.4 1.7 -22.5 2.0 -22.55 2.6 -22.2 2.75 -22.05 M2.0 -18.0 Q1.45 -18.05 1.25 -18.5 L1.25 -18.9 1.25 -19.25 1.4 -19.45 1.55 -19.65 2.0 -19.7 2.0 -19.75 2.55 -19.4 2.7 -19.25 2.7 -18.9 2.7 -18.5 2.35 -18.2 2.0 -18.0 M4.25 -17.75 L4.95 -17.25 5.05 -17.05 5.05 -16.5 4.85 -16.15 Q4.05 -15.55 3.45 -16.4 L3.4 -16.75 3.45 -17.15 4.0 -17.65 4.25 -17.75 M4.65 -19.45 L4.8 -19.65 5.25 -19.7 5.25 -19.75 Q6.2 -19.6 6.55 -18.7 L6.6 -18.5 6.3 -18.0 5.75 -17.65 Q4.6 -17.9 4.5 -19.05 L4.5 -19.25 4.65 -19.45 M9.25 -17.8 L9.85 -17.45 10.0 -17.3 Q9.8 -15.4 8.25 -16.5 8.15 -16.95 8.45 -17.25 L8.75 -17.65 8.95 -17.75 9.25 -17.8 M9.25 -13.45 L9.55 -13.8 9.7 -13.85 10.0 -13.9 10.0 -13.95 Q10.8 -13.85 10.9 -13.05 L10.95 -12.9 Q10.3 -11.5 9.1 -12.55 8.95 -13.05 9.25 -13.45 M6.35 -11.3 L6.45 -11.15 Q5.8 -9.15 4.35 -10.9 L4.35 -11.05 4.35 -11.45 4.35 -11.65 4.95 -12.1 5.25 -12.2 Q6.0 -12.05 6.35 -11.3 M3.5 -14.5 L3.85 -14.4 4.25 -14.4 4.55 -14.15 4.6 -14.0 Q4.05 -12.65 2.9 -13.35 L2.75 -13.5 2.75 -13.9 3.05 -14.4 3.2 -14.4 3.5 -14.45 3.5 -14.5 M1.0 -15.8 Q1.65 -15.95 2.1 -15.5 L2.25 -15.3 2.3 -14.75 1.95 -14.05 Q1.05 -13.85 0.4 -14.5 L0.25 -14.7 0.2 -14.9 0.2 -15.05 0.2 -15.25 0.3 -15.45 0.5 -15.65 0.7 -15.7 1.0 -15.8 M3.25 -9.7 Q5.1 -8.7 3.2 -7.75 2.45 -7.4 2.1 -8.2 2.0 -8.45 2.05 -8.75 2.4 -9.55 3.25 -9.65 L3.25 -9.7 M1.0 -10.05 Q0.9 -8.35 -0.5 -9.45 L-0.55 -9.65 -0.55 -10.0 -0.45 -10.2 -0.25 -10.4 -0.05 -10.5 0.25 -10.55 0.85 -10.2 1.0 -10.05 M1.9 -6.3 L1.95 -6.9 Q2.3 -7.45 3.0 -7.4 L3.0 -7.45 Q3.8 -7.35 3.9 -6.55 L3.95 -6.4 Q3.2 -4.95 1.95 -6.15 L1.9 -6.3 M6.45 -8.65 Q6.7 -9.1 7.25 -9.1 L7.25 -9.15 Q8.25 -8.9 8.05 -7.9 L8.0 -7.7 6.75 -7.0 6.45 -7.15 6.25 -7.3 6.35 -8.25 6.45 -8.65 M29.55 -27.15 L29.7 -27.0 Q29.85 -26.1 28.75 -25.75 L28.25 -26.05 28.25 -26.45 28.3 -26.65 28.85 -27.2 29.25 -27.3 29.55 -27.15 M21.95 -25.15 L21.7 -24.85 21.5 -24.75 21.0 -25.05 21.05 -25.65 21.1 -25.8 21.5 -26.05 21.6 -26.05 21.95 -25.3 21.95 -25.15 M52.6 -48.6 L52.75 -48.45 52.75 -48.25 52.6 -47.9 51.65 -47.85 51.5 -48.0 Q51.3 -48.4 51.65 -48.75 L52.0 -48.95 52.6 -48.6 M46.0 -52.95 L46.3 -52.8 46.45 -52.25 46.45 -52.05 46.0 -51.75 45.5 -52.05 45.5 -52.45 45.55 -52.65 46.0 -52.9 46.0 -52.95 M47.0 -42.75 L47.1 -42.65 47.15 -42.45 47.0 -42.15 Q46.4 -41.9 46.05 -42.4 46.0 -42.7 46.25 -42.85 L46.5 -42.95 47.0 -42.75 M-23.15 -73.25 L-22.9 -73.05 -22.75 -72.9 -22.75 -72.7 -22.9 -72.5 -23.2 -72.5 -23.5 -72.9 -23.55 -73.05 -23.4 -73.2 -23.15 -73.25 M-27.25 -76.7 Q-26.75 -76.65 -26.6 -76.2 L-26.55 -76.0 Q-26.6 -75.65 -26.9 -75.5 L-27.25 -75.3 Q-28.05 -75.35 -28.2 -76.0 -28.0 -76.65 -27.25 -76.7 M-27.7 -70.7 L-27.85 -70.9 -27.9 -71.05 -27.5 -71.3 -27.4 -71.3 -27.2 -71.1 -27.15 -70.95 -27.7 -70.7 M-26.55 -68.75 Q-27.25 -68.05 -27.9 -68.75 L-27.6 -69.3 -27.5 -69.5 -27.0 -69.75 -27.0 -69.8 -26.7 -69.65 -26.55 -69.5 Q-26.35 -69.25 -26.45 -68.95 L-26.55 -68.75 M-38.0 -70.05 L-37.45 -69.85 -37.3 -69.7 -37.3 -69.3 -37.4 -68.95 -37.5 -68.85 -37.75 -68.75 Q-38.3 -68.9 -38.5 -69.45 L-38.45 -69.6 -38.25 -69.95 -38.2 -70.0 -38.0 -70.05 M-32.3 -63.95 L-32.0 -64.2 -31.2 -64.0 -31.15 -63.9 -31.1 -63.7 -31.25 -63.4 Q-32.0 -63.1 -32.45 -63.65 L-32.3 -63.95 M-31.0 -61.15 Q-30.55 -61.05 -30.4 -60.6 L-30.4 -60.45 Q-30.4 -60.05 -30.75 -59.95 L-31.0 -59.9 Q-31.5 -59.9 -31.65 -60.4 -31.7 -60.85 -31.25 -61.05 L-31.0 -61.15 M-37.25 -61.7 L-37.0 -61.75 -36.45 -61.55 -36.3 -61.45 -36.35 -61.05 -36.45 -60.9 Q-37.2 -60.5 -37.7 -61.15 L-37.7 -61.3 -37.6 -61.5 -37.5 -61.65 -37.25 -61.7 M-31.05 -56.2 L-31.1 -55.8 -31.2 -55.65 -31.5 -55.5 Q-32.0 -55.55 -32.0 -56.0 L-31.95 -56.15 -31.8 -56.4 -31.5 -56.45 -31.5 -56.5 -31.2 -56.35 -31.05 -56.2 M-20.8 -65.4 L-20.5 -65.45 -20.5 -65.5 -20.2 -65.35 -20.05 -65.2 -20.05 -64.6 -20.15 -64.45 Q-20.75 -64.0 -21.3 -64.45 -21.35 -64.9 -21.0 -65.2 L-20.8 -65.4 M-26.4 -63.5 L-26.25 -63.7 -26.0 -63.8 -25.65 -63.65 -25.5 -63.5 Q-25.9 -62.95 -26.6 -63.05 L-26.65 -63.15 -26.4 -63.5 M-25.4 -59.75 L-25.2 -59.55 -25.2 -59.0 -25.2 -58.8 -25.5 -58.5 -25.9 -58.65 -25.8 -59.55 -25.75 -59.7 -25.7 -59.75 -25.4 -59.75 M-21.95 -58.15 L-21.8 -58.0 -21.8 -57.65 -21.9 -57.3 Q-22.55 -56.95 -23.0 -57.5 L-23.05 -57.7 -23.0 -58.05 -22.75 -58.25 -22.5 -58.3 -21.95 -58.15 M-3.95 -77.05 L-3.8 -76.9 -3.9 -76.5 -4.15 -76.2 Q-4.5 -75.95 -4.95 -76.2 L-5.2 -76.6 -5.25 -76.75 -5.0 -77.3 -4.9 -77.45 -4.75 -77.5 -4.5 -77.55 -4.2 -77.45 -3.95 -77.05 M-16.35 -78.65 L-16.4 -78.8 -16.0 -79.05 -15.9 -79.05 -15.7 -78.85 -15.65 -78.7 -16.2 -78.45 -16.35 -78.65 M-18.45 -69.1 L-18.4 -68.95 Q-18.65 -68.4 -19.25 -68.5 L-19.55 -68.65 -19.3 -69.2 -19.0 -69.4 -18.65 -69.3 -18.45 -69.1 M-10.5 -71.55 L-10.2 -71.4 -10.05 -71.25 Q-9.9 -70.8 -10.25 -70.3 L-10.3 -70.15 -10.4 -70.0 -10.65 -69.9 -11.05 -71.0 -11.05 -71.2 -10.75 -71.45 -10.5 -71.55 M-13.25 -61.0 L-13.3 -61.4 -13.25 -61.55 -13.0 -61.75 -12.75 -61.8 -12.45 -61.65 -12.3 -61.5 -12.3 -61.15 -12.4 -60.8 -12.5 -60.75 -12.75 -60.7 -13.25 -61.0 M-3.7 -62.25 L-3.9 -61.9 -4.0 -61.8 -4.25 -61.7 -4.9 -62.0 -4.9 -62.4 -4.9 -62.75 -4.5 -63.05 -4.25 -63.15 -3.8 -62.8 -3.65 -62.65 -3.7 -62.25 M-1.75 -55.7 Q-0.95 -55.6 -0.85 -54.8 L-0.8 -54.65 Q-1.45 -53.25 -2.65 -54.3 L-2.5 -55.2 -2.2 -55.55 -2.05 -55.6 -1.75 -55.65 -1.75 -55.7 M-42.5 -59.8 L-42.2 -59.7 -41.9 -59.15 -41.8 -58.95 Q-42.0 -58.5 -42.5 -58.45 -43.1 -58.55 -43.3 -59.15 L-43.2 -59.5 -43.15 -59.7 -42.75 -59.8 -42.5 -59.8 M-4.4 -52.65 L-4.35 -52.45 -4.5 -52.15 Q-5.55 -51.75 -5.9 -52.55 L-5.75 -52.7 -5.25 -52.95 -4.45 -52.75 -4.4 -52.65 M-4.25 -49.55 Q-3.6 -49.5 -3.35 -48.85 L-3.3 -48.7 Q-3.95 -47.3 -5.1 -48.05 L-5.25 -48.2 -5.3 -48.4 -5.3 -48.75 -5.0 -49.1 -4.7 -49.45 -4.55 -49.5 -4.25 -49.55 M-6.75 -48.6 L-6.65 -48.45 -7.0 -48.15 -7.25 -48.05 -7.55 -48.2 -7.7 -48.4 -7.5 -48.85 -7.25 -48.95 -6.75 -48.6 M-10.05 -51.65 Q-10.7 -50.25 -11.9 -51.3 L-11.75 -52.2 -11.45 -52.55 -11.3 -52.6 -11.0 -52.65 -11.0 -52.7 Q-10.2 -52.6 -10.1 -51.8 L-10.05 -51.65 M-8.55 -45.2 L-8.25 -45.25 Q-7.8 -45.2 -7.6 -44.75 L-7.5 -44.55 -7.65 -44.2 -7.8 -43.9 Q-8.6 -43.55 -9.0 -44.25 L-8.9 -44.8 -8.7 -45.15 -8.55 -45.2 M-0.7 -45.55 Q-0.8 -45.2 -1.15 -45.0 L-1.45 -45.0 -1.7 -45.2 -1.25 -45.7 -1.2 -45.75 -1.0 -45.75 -0.9 -45.75 -0.7 -45.55 M-1.9 -42.9 L-1.75 -42.75 -2.55 -42.7 -2.5 -42.85 -2.25 -43.05 -1.9 -42.9 M-16.0 -45.6 L-15.7 -46.15 -14.75 -46.4 -14.75 -46.45 Q-13.95 -46.35 -13.85 -45.55 L-13.8 -45.4 Q-14.65 -43.85 -16.0 -45.25 L-16.0 -45.6 M-14.25 -43.7 L-13.95 -44.05 -13.8 -44.1 -13.5 -44.15 -13.5 -44.2 Q-12.7 -44.1 -12.6 -43.3 L-12.55 -43.15 Q-13.2 -41.75 -14.4 -42.8 L-14.25 -43.7 M-11.2 -40.9 L-11.5 -40.75 Q-11.95 -40.85 -12.05 -41.25 L-12.0 -41.45 -11.8 -41.65 -11.5 -41.7 -11.5 -41.75 -11.2 -41.6 -11.05 -41.45 -11.1 -41.05 -11.2 -40.9 M-12.95 -36.2 L-12.9 -36.0 Q-12.95 -35.55 -13.35 -35.3 L-13.75 -35.15 Q-14.3 -35.15 -14.55 -35.65 L-14.6 -36.0 -14.55 -36.4 Q-14.3 -36.85 -13.75 -36.85 L-13.75 -36.9 Q-13.1 -36.8 -12.95 -36.2 M-17.4 -40.75 L-17.5 -40.2 -19.25 -40.25 -19.1 -41.2 -18.7 -41.7 -18.55 -41.75 -18.25 -41.8 Q-17.7 -41.8 -17.45 -41.3 L-17.3 -41.15 -17.4 -40.75 M-18.0 -36.2 L-17.5 -35.85 -17.4 -35.7 -17.75 -35.4 -18.0 -35.3 -18.3 -35.45 -18.45 -35.65 -18.25 -36.1 -18.0 -36.2 M-19.75 -31.5 L-19.2 -31.25 -19.15 -31.15 -19.2 -30.75 -19.25 -30.55 Q-20.05 -30.3 -20.25 -31.0 L-20.2 -31.15 -20.05 -31.4 -19.75 -31.45 -19.75 -31.5 M-10.25 -35.5 L-9.75 -35.8 Q-8.6 -35.8 -8.2 -34.8 L-8.2 -34.65 Q-9.05 -33.2 -10.3 -34.4 L-10.35 -34.95 -10.25 -35.5 M-14.7 -31.6 L-14.5 -31.7 -14.2 -31.55 -14.1 -31.0 -14.15 -30.7 -14.25 -30.65 -14.5 -30.55 -14.8 -30.7 Q-15.15 -31.2 -14.7 -31.6 M-5.0 -38.7 L-5.15 -38.5 -5.45 -38.5 -5.75 -38.9 -5.8 -39.05 -5.65 -39.2 -5.4 -39.25 -5.15 -39.05 -5.0 -38.9 -5.0 -38.7 M-4.3 -36.4 L-4.0 -36.45 -4.0 -36.5 -3.55 -36.15 -3.45 -36.0 -3.75 -35.65 -4.0 -35.5 -4.45 -35.85 -4.5 -36.0 -4.45 -36.15 -4.3 -36.4 M-8.5 -41.5 Q-7.85 -41.5 -7.65 -40.95 L-7.55 -40.75 Q-8.2 -39.45 -9.25 -40.5 L-9.15 -41.05 -8.95 -41.4 -8.8 -41.4 -8.5 -41.45 -8.5 -41.5 M-5.5 -32.95 Q-4.85 -33.05 -4.65 -32.45 L-4.55 -32.25 Q-5.2 -30.95 -6.3 -32.05 L-6.3 -32.25 -6.3 -32.45 -6.2 -32.65 -5.5 -32.9 -5.5 -32.95 M-7.75 -33.45 L-7.45 -33.3 -7.35 -32.75 -7.4 -32.55 -7.45 -32.45 -7.75 -32.3 -8.05 -32.45 Q-8.5 -33.25 -7.75 -33.4 L-7.75 -33.45 M-3.05 -30.9 Q-2.8 -31.35 -2.25 -31.35 L-2.25 -31.4 Q-1.3 -31.15 -1.4 -30.15 L-1.45 -29.95 Q-1.8 -29.35 -2.5 -29.25 L-3.1 -29.6 -3.25 -29.75 -3.15 -30.5 -3.05 -30.9 M-20.4 -48.5 L-20.25 -48.3 Q-20.65 -46.2 -22.55 -47.4 L-22.6 -47.75 -22.55 -48.15 Q-22.0 -48.8 -21.25 -48.9 -20.75 -48.85 -20.4 -48.5 M-27.8 -47.15 L-27.9 -46.8 -28.0 -46.75 -28.25 -46.7 Q-28.8 -46.75 -28.95 -47.2 L-28.8 -47.55 -28.65 -47.7 -28.5 -47.75 -28.25 -47.8 -27.95 -47.65 -27.8 -47.5 -27.8 -47.15 M-33.0 -51.55 L-32.7 -51.4 -32.55 -51.25 -32.55 -50.9 -32.65 -50.55 -32.75 -50.5 -33.0 -50.45 -33.5 -50.75 -33.55 -51.15 -33.5 -51.3 -33.25 -51.5 -33.0 -51.55 M-20.65 -40.75 L-20.95 -40.4 -21.25 -40.25 Q-21.7 -40.2 -21.95 -40.6 L-22.0 -40.75 -21.95 -40.9 -21.8 -41.15 -21.5 -41.2 -21.5 -41.25 Q-21.05 -41.3 -20.7 -40.9 L-20.65 -40.75 M-26.7 -40.0 Q-26.45 -40.65 -25.75 -40.65 L-25.75 -40.7 Q-24.15 -40.0 -25.4 -38.75 L-25.75 -38.55 Q-26.3 -38.65 -26.65 -39.05 L-26.65 -39.45 -26.7 -40.0 M-28.75 -37.7 L-28.75 -37.75 -28.3 -37.4 -28.2 -37.25 -28.5 -36.9 -28.75 -36.75 -29.2 -37.1 -29.25 -37.25 -29.2 -37.4 -29.05 -37.65 -28.75 -37.7 M-22.65 -34.0 L-22.8 -34.15 Q-23.05 -34.9 -22.5 -35.35 L-22.0 -35.65 Q-21.4 -35.75 -21.0 -35.3 L-20.9 -35.15 Q-21.15 -33.3 -22.65 -34.0 M-25.3 -30.25 L-25.2 -30.45 -25.0 -30.65 -24.8 -30.75 -24.5 -30.8 -23.9 -30.45 -23.75 -30.3 Q-23.85 -28.6 -25.25 -29.7 L-25.3 -29.9 -25.3 -30.25 M-24.4 -26.9 Q-24.3 -26.6 -24.5 -26.3 L-24.55 -26.15 -24.9 -26.05 -25.15 -26.65 -25.2 -26.8 -24.95 -27.1 -24.75 -27.2 -24.45 -27.05 -24.4 -26.9 M-20.5 -20.35 L-20.25 -20.45 -19.95 -20.3 -19.85 -19.75 -19.9 -19.55 Q-20.4 -19.0 -20.95 -19.65 -20.95 -20.1 -20.5 -20.35 M-2.0 -27.95 Q-1.25 -27.85 -0.85 -27.25 L-0.75 -27.05 -0.8 -26.9 -0.9 -26.7 -1.05 -26.4 Q-1.8 -26.05 -2.35 -26.6 L-2.5 -26.75 -2.45 -27.5 -2.0 -27.95 M-3.05 -25.95 L-2.75 -26.05 Q-2.25 -26.1 -1.9 -25.75 L-1.75 -25.55 Q-1.95 -23.75 -3.5 -24.95 L-3.55 -25.15 -3.55 -25.3 -3.55 -25.5 -3.45 -25.7 -3.25 -25.9 -3.05 -25.95 M-4.15 -25.45 L-4.3 -25.15 Q-5.1 -24.8 -5.5 -25.5 L-5.4 -26.05 -5.2 -26.4 -5.05 -26.45 -4.75 -26.5 -4.1 -26.0 -4.0 -25.8 -4.15 -25.45 M-8.8 -29.0 L-8.5 -29.05 -7.9 -28.7 -7.75 -28.55 Q-7.6 -28.1 -7.85 -27.65 L-8.05 -27.3 Q-9.4 -27.05 -9.45 -28.45 L-8.8 -29.0 M-9.9 -28.65 Q-9.8 -27.95 -10.35 -27.55 L-10.75 -27.4 -11.4 -27.75 -11.55 -27.9 -11.6 -28.05 -11.6 -28.45 -11.55 -28.65 -11.15 -28.95 -10.75 -29.15 -9.95 -28.75 -9.9 -28.65 M-9.8 -24.5 Q-10.05 -23.75 -10.4 -23.5 L-9.9 -23.2 -9.75 -23.05 Q-9.85 -21.35 -11.25 -22.45 L-11.3 -22.65 -11.3 -23.0 -11.2 -23.2 -11.05 -23.35 Q-11.4 -23.4 -11.75 -23.7 L-11.8 -24.05 -11.8 -24.45 -11.4 -25.0 -11.2 -25.15 -11.05 -25.15 -10.75 -25.2 -10.75 -25.25 Q-10.1 -25.25 -9.9 -24.7 L-9.8 -24.5 M-6.0 -25.55 L-5.95 -25.0 -5.95 -24.65 -6.0 -24.45 -6.15 -24.25 -6.45 -24.25 -6.65 -24.45 Q-7.1 -24.4 -7.35 -24.75 L-7.5 -24.95 -7.55 -25.15 -7.55 -25.5 -7.45 -25.7 -7.25 -25.9 -7.05 -26.0 -6.75 -26.05 -6.15 -25.7 -6.0 -25.55 M-5.45 -23.15 L-5.3 -23.2 -5.0 -23.3 Q-4.5 -23.35 -4.15 -23.0 L-4.0 -22.8 -4.0 -22.45 -4.05 -22.05 Q-4.8 -21.15 -5.55 -21.8 L-5.6 -21.8 -6.0 -21.65 Q-6.55 -21.65 -6.8 -22.15 L-6.85 -22.5 -6.8 -22.9 -6.0 -23.35 -6.0 -23.4 Q-5.65 -23.35 -5.45 -23.15 M-6.75 -19.3 Q-6.25 -19.35 -5.9 -19.0 L-5.75 -18.8 Q-5.55 -18.25 -6.0 -17.9 L-6.3 -17.7 -6.3 -17.5 -6.25 -17.3 -6.2 -17.15 -6.25 -16.95 -6.4 -16.75 -6.7 -16.75 -7.3 -17.85 -7.55 -18.25 -7.55 -18.45 -7.55 -18.65 -7.5 -18.8 -7.35 -19.0 -7.2 -19.2 -6.75 -19.3 M-5.2 -18.65 L-5.05 -18.65 -4.75 -18.7 -4.75 -18.75 Q-4.0 -18.8 -3.7 -18.05 L-3.55 -17.9 -3.65 -17.5 -3.9 -17.2 Q-4.85 -16.9 -5.5 -17.75 L-5.4 -18.3 -5.2 -18.65 M-1.8 -20.85 L-1.6 -20.3 -1.55 -20.15 Q-2.2 -18.75 -3.4 -19.8 -3.55 -20.3 -3.25 -20.7 L-3.25 -21.45 -3.0 -21.8 -2.8 -21.9 -2.5 -22.0 Q-1.45 -21.35 -1.8 -20.85 M-14.95 -26.9 L-14.5 -27.15 -14.5 -27.2 Q-14.0 -27.0 -13.85 -26.5 L-13.9 -26.3 -14.05 -26.2 -14.5 -26.0 -15.0 -26.3 -15.0 -26.7 -14.95 -26.9 M-16.9 -29.5 Q-16.0 -29.45 -15.7 -28.7 L-15.65 -28.5 Q-16.4 -26.9 -17.75 -28.2 L-17.8 -28.4 -17.8 -28.55 -17.8 -28.75 -17.5 -29.15 -17.25 -29.45 -17.2 -29.5 -17.0 -29.5 -16.9 -29.5 M-12.25 -21.45 L-11.95 -21.8 -11.8 -21.85 -11.5 -21.9 -11.5 -21.95 Q-10.7 -21.85 -10.6 -21.05 L-10.55 -20.9 Q-11.2 -19.5 -12.4 -20.55 -12.55 -21.05 -12.25 -21.45 M-2.25 -16.2 L-2.3 -16.4 -2.3 -16.75 -2.2 -16.95 -2.0 -17.15 -1.5 -17.3 -0.95 -17.15 -0.8 -17.0 Q-0.6 -15.15 -2.25 -16.2 M-3.0 -13.2 L-2.95 -13.55 -2.8 -13.75 -2.45 -14.05 -2.3 -14.1 -2.0 -14.15 -2.0 -14.2 Q-1.2 -14.1 -1.1 -13.3 L-1.05 -13.15 Q-1.85 -11.65 -3.0 -13.0 L-3.0 -13.2 M-6.5 -11.7 Q-4.55 -11.2 -5.9 -9.75 L-6.25 -9.55 Q-7.05 -9.75 -7.5 -10.45 L-7.55 -10.65 -7.55 -10.8 -7.55 -11.0 Q-7.2 -11.6 -6.5 -11.65 L-6.5 -11.7 M-5.2 -7.95 L-5.0 -8.15 -4.8 -8.25 -4.5 -8.3 -3.9 -7.95 -3.75 -7.8 Q-3.85 -6.1 -5.25 -7.2 L-5.3 -7.4 -5.3 -7.75 -5.2 -7.95 M-0.95 -8.45 L-0.9 -8.25 Q-0.95 -7.8 -1.35 -7.55 L-1.75 -7.4 Q-2.3 -7.4 -2.55 -7.9 L-2.6 -8.25 -2.55 -8.65 Q-2.3 -9.1 -1.75 -9.1 L-1.75 -9.15 Q-1.1 -9.05 -0.95 -8.45" fill="#89623a" fill-rule="evenodd" stroke="none"/>
  </g>
</svg>
