<?xml version="1.0" encoding="UTF-8" standalone="no"?>
<svg xmlns:xlink="http://www.w3.org/1999/xlink" height="23.5px" width="26.1px" xmlns="http://www.w3.org/2000/svg">
  <g transform="matrix(1.0, 0.0, 0.0, 1.0, 13.05, 12.25)">
    <path d="M-3.9 10.05 L-6.2 7.8 Q-8.95 4.5 -10.65 -0.1 -12.35 -4.75 -11.95 -7.95 -11.6 -11.25 -9.45 -11.25 -7.3 -11.25 -4.55 -7.95 -1.85 -4.75 -0.15 -0.1 L0.05 0.4 0.15 0.05 Q1.85 -4.6 4.6 -7.8 7.3 -11.1 9.5 -11.1 11.6 -11.1 12.0 -7.8 12.35 -4.6 10.65 0.05 8.95 4.65 6.25 7.95 L3.8 10.25 3.6 10.4 3.0 10.75 1.35 11.2 Q0.5 11.15 -0.1 10.65 -0.6 11.0 -1.35 11.05 L-2.95 10.6 -3.3 10.45 -3.9 10.05" fill="url(#gradient0)" fill-rule="evenodd" stroke="none"/>
    <path d="M3.8 10.25 L6.25 7.95 Q8.95 4.65 10.65 0.05 12.35 -4.6 12.0 -7.8 11.6 -11.1 9.5 -11.1 7.3 -11.1 4.6 -7.8 1.85 -4.6 0.15 0.05 L0.05 0.4 -0.15 -0.1 Q-1.85 -4.75 -4.55 -7.95 -7.3 -11.25 -9.45 -11.25 -11.6 -11.25 -11.95 -7.95 -12.35 -4.75 -10.65 -0.1 -8.95 4.5 -6.2 7.8 L-3.9 10.05" fill="none" stroke="#000000" stroke-linecap="round" stroke-linejoin="round" stroke-width="2.0"/>
  </g>
  <defs>
    <radialGradient cx="0" cy="0" gradientTransform="matrix(0.0363, 0.0, 0.0, -0.0271, -6.95, 4.35)" gradientUnits="userSpaceOnUse" id="gradient0" r="819.2" spreadMethod="pad">
      <stop offset="0.0" stop-color="#0066ff"/>
      <stop offset="1.0" stop-color="#ffffff"/>
    </radialGradient>
  </defs>
</svg>
