<?xml version="1.0" encoding="UTF-8" standalone="no"?>
<svg xmlns:xlink="http://www.w3.org/1999/xlink" height="16.75px" width="5.75px" xmlns="http://www.w3.org/2000/svg">
  <g transform="matrix(1.0, 0.0, 0.0, 1.0, 3.15, 22.15)">
    <path d="M-0.4 -14.75 L-0.45 -14.7 -0.65 -14.5 -0.7 -13.95 -0.8 -13.55 -1.0 -13.45 -1.25 -13.4 -1.8 -13.7 -1.9 -14.65 -1.9 -15.2 -1.4 -15.75 -1.2 -15.95 -1.1 -16.5 -1.15 -16.9 -1.2 -17.05 -1.4 -17.25 -1.4 -18.4 -1.4 -18.95 -1.25 -19.15 -1.15 -19.3 -1.15 -19.5 -1.15 -19.7 -0.8 -20.25 -0.7 -20.45 -1.3 -21.2 -1.4 -21.4 -1.0 -22.05 -0.75 -22.15 Q0.2 -22.05 0.5 -21.05 L0.6 -20.9 0.6 -20.5 0.6 -20.15 0.5 -19.95 0.35 -19.75 0.35 -19.55 0.35 -19.4 0.0 -18.65 -0.15 -18.25 0.15 -16.75 0.0 -16.9 0.0 -16.85 -0.4 -16.75 -0.55 -16.55 -0.65 -16.4 -0.65 -16.0 -0.65 -15.25 -0.45 -15.05 -0.4 -14.9 -0.4 -14.75" fill="url(#gradient0)" fill-rule="evenodd" stroke="none"/>
    <path d="M0.15 -16.75 L0.45 -16.55 0.6 -16.4 0.6 -16.2 0.6 -16.0 0.75 -15.8 0.85 -15.65 0.85 -15.25 0.85 -14.9 1.25 -14.3 1.35 -14.15 1.35 -12.25 1.35 -11.9 1.05 -11.55 0.75 -11.4 0.2 -11.7 0.2 -11.75 Q0.8 -12.4 0.85 -13.4 L0.75 -13.55 Q0.45 -13.95 0.0 -13.9 L-0.2 -13.8 -0.3 -13.95 -0.4 -14.5 -0.4 -14.75 -0.4 -14.9 -0.45 -15.05 -0.65 -15.25 -0.65 -16.0 -0.65 -16.4 -0.55 -16.55 -0.4 -16.75 0.0 -16.85 0.0 -16.9 0.15 -16.75" fill="url(#gradient1)" fill-rule="evenodd" stroke="none"/>
    <path d="M0.2 -11.75 L-0.3 -11.3 -0.4 -11.15 -0.5 -10.95 0.8 -9.75 0.9 -9.0 0.85 -8.65 0.2 -8.05 Q1.05 -8.25 2.1 -7.25 L2.6 -6.45 2.4 -6.1 2.25 -5.95 2.0 -5.9 1.1 -6.5 -0.9 -6.65 -0.65 -6.95 -0.65 -7.1 Q-1.0 -7.8 -1.75 -7.65 L-1.75 -7.6 -2.0 -7.55 -2.1 -7.5 Q-2.15 -8.55 -1.0 -9.05 L-0.7 -9.2 -1.9 -10.25 -1.9 -11.0 -1.9 -11.4 Q-1.2 -12.15 -0.65 -13.05 L-0.6 -13.45 -0.5 -13.65 -0.25 -13.8 -0.2 -13.8 0.0 -13.9 Q0.45 -13.95 0.75 -13.55 L0.85 -13.4 Q0.8 -12.4 0.2 -11.75" fill="url(#gradient2)" fill-rule="evenodd" stroke="none"/>
    <path d="M-0.9 -6.65 L-2.3 -5.5 -2.5 -5.4 -2.85 -5.55 -3.05 -5.7 -3.1 -5.9 -3.15 -6.25 -3.15 -6.45 -2.45 -7.2 -2.15 -7.5 -2.1 -7.5 -2.0 -7.55 -1.75 -7.6 -1.75 -7.65 Q-1.0 -7.8 -0.65 -7.1 L-0.65 -6.95 -0.9 -6.65" fill="url(#gradient3)" fill-rule="evenodd" stroke="none"/>
  </g>
  <defs>
    <radialGradient cx="0" cy="0" gradientTransform="matrix(0.0057, 0.0, 0.0, 0.0057, -0.65, -17.75)" gradientUnits="userSpaceOnUse" id="gradient0" r="819.2" spreadMethod="pad">
      <stop offset="0.0" stop-color="#4e0707"/>
      <stop offset="0.16470588235294117" stop-color="#b41010"/>
      <stop offset="0.5294117647058824" stop-color="#e23612"/>
      <stop offset="0.807843137254902" stop-color="#fd5037"/>
      <stop offset="1.0" stop-color="#fd5037" stop-opacity="0.0"/>
    </radialGradient>
    <radialGradient cx="0" cy="0" gradientTransform="matrix(0.0035, 0.0, 0.0, 0.0035, 0.35, -14.15)" gradientUnits="userSpaceOnUse" id="gradient1" r="819.2" spreadMethod="pad">
      <stop offset="0.0" stop-color="#4e0707"/>
      <stop offset="0.16470588235294117" stop-color="#b41010"/>
      <stop offset="0.5294117647058824" stop-color="#e23612"/>
      <stop offset="0.807843137254902" stop-color="#fd5037"/>
      <stop offset="1.0" stop-color="#fd5037" stop-opacity="0.0"/>
    </radialGradient>
    <radialGradient cx="0" cy="0" gradientTransform="matrix(0.0055, 0.0, 0.0, 0.0055, 0.25, -9.9)" gradientUnits="userSpaceOnUse" id="gradient2" r="819.2" spreadMethod="pad">
      <stop offset="0.0" stop-color="#4e0707"/>
      <stop offset="0.16470588235294117" stop-color="#b41010"/>
      <stop offset="0.5294117647058824" stop-color="#e23612"/>
      <stop offset="0.807843137254902" stop-color="#fd5037"/>
      <stop offset="1.0" stop-color="#fd5037" stop-opacity="0.0"/>
    </radialGradient>
    <radialGradient cx="0" cy="0" gradientTransform="matrix(0.002, 0.0, 0.0, 0.002, -1.9, -6.55)" gradientUnits="userSpaceOnUse" id="gradient3" r="819.2" spreadMethod="pad">
      <stop offset="0.0" stop-color="#4e0707"/>
      <stop offset="0.16470588235294117" stop-color="#b41010"/>
      <stop offset="0.5294117647058824" stop-color="#e23612"/>
      <stop offset="0.807843137254902" stop-color="#fd5037"/>
      <stop offset="1.0" stop-color="#fd5037" stop-opacity="0.0"/>
    </radialGradient>
  </defs>
</svg>
