<?xml version="1.0" encoding="UTF-8" standalone="no"?>
<svg xmlns:xlink="http://www.w3.org/1999/xlink" height="17.5px" width="17.5px" xmlns="http://www.w3.org/2000/svg">
  <g transform="matrix(1.0, 0.0, 0.0, 1.0, 5.3, 9.2)">
    <path d="M8.9 -5.95 L9.25 -5.55 Q11.2 -3.4 11.2 -0.45 11.2 2.75 8.9 5.0 L8.55 5.35 Q6.4 7.3 3.45 7.3 0.45 7.3 -1.75 5.25 L-2.05 5.0 Q-4.3 2.75 -4.3 -0.45 -4.3 -3.3 -2.45 -5.45 L-2.05 -5.95 Q0.25 -8.2 3.45 -8.2 6.65 -8.2 8.9 -5.95" fill="url(#gradient0)" fill-rule="evenodd" stroke="none"/>
    <path d="M8.9 -5.95 L9.25 -5.55 Q11.2 -3.4 11.2 -0.45 11.2 2.75 8.9 5.0 L8.55 5.35 Q6.4 7.3 3.45 7.3 0.45 7.3 -1.75 5.25 L-2.05 5.0 Q-4.3 2.75 -4.3 -0.45 -4.3 -3.3 -2.45 -5.45 L-2.05 -5.95 Q0.25 -8.2 3.45 -8.2 6.65 -8.2 8.9 -5.95 Z" fill="none" stroke="#000000" stroke-linecap="round" stroke-linejoin="round" stroke-width="2.0"/>
  </g>
  <defs>
    <linearGradient gradientTransform="matrix(0.0095, 0.0, 0.0, 0.0095, 3.45, -0.45)" gradientUnits="userSpaceOnUse" id="gradient0" spreadMethod="pad" x1="-819.2" x2="819.2">
      <stop offset="0.0" stop-color="#ffcc99"/>
      <stop offset="0.6901960784313725" stop-color="#ffe6cf"/>
      <stop offset="0.7411764705882353" stop-color="#ffe6cf"/>
      <stop offset="0.792156862745098" stop-color="#ffe6cf"/>
      <stop offset="0.8352941176470589" stop-color="#ffe7d0"/>
      <stop offset="1.0" stop-color="#ffffff"/>
    </linearGradient>
  </defs>
</svg>
