<?xml version="1.0" encoding="UTF-8" standalone="no"?>
<svg xmlns:xlink="http://www.w3.org/1999/xlink" height="14.75px" width="14.4px" xmlns="http://www.w3.org/2000/svg">
  <g transform="matrix(1.0, 0.0, 0.0, 1.0, 7.2, 7.7)">
    <path d="M1.95 6.05 Q0.85 5.55 -0.35 4.7 -3.1 2.7 -4.8 -0.05 -6.5 -2.8 -6.1 -4.75 -5.75 -6.7 -3.6 -6.7 -1.45 -6.7 1.3 -4.75 3.65 -3.1 5.2 -0.8 L5.7 -0.05 5.9 0.25 6.0 0.05 6.2 -0.25 6.2 6.6 5.75 6.45 5.7 6.45 5.2 6.6 4.5 6.65 2.9 6.4 2.55 6.3 1.95 6.05" fill="url(#gradient0)" fill-rule="evenodd" stroke="none"/>
    <path d="M6.2 -0.25 L6.0 0.05 5.9 0.25 5.7 -0.05 5.2 -0.8 Q3.65 -3.1 1.3 -4.75 -1.45 -6.7 -3.6 -6.7 -5.75 -6.7 -6.1 -4.75 -6.5 -2.8 -4.8 -0.05 -3.1 2.7 -0.35 4.7 0.85 5.55 1.95 6.05" fill="none" stroke="#000000" stroke-linecap="round" stroke-linejoin="round" stroke-width="2.0"/>
  </g>
  <defs>
    <radialGradient cx="0" cy="0" gradientTransform="matrix(0.0363, 0.0, 0.0, -0.0163, -1.1, 2.65)" gradientUnits="userSpaceOnUse" id="gradient0" r="819.2" spreadMethod="pad">
      <stop offset="0.0" stop-color="#0066ff"/>
      <stop offset="1.0" stop-color="#ffffff"/>
    </radialGradient>
  </defs>
</svg>
