<?xml version="1.0" encoding="UTF-8" standalone="no"?>
<svg xmlns:xlink="http://www.w3.org/1999/xlink" height="13.5px" width="18.0px" xmlns="http://www.w3.org/2000/svg">
  <g transform="matrix(1.0, 0.0, 0.0, 1.0, 9.0, 6.75)">
    <path d="M8.0 5.75 L7.5 5.75 Q1.15 5.7 -3.35 4.05 -8.0 2.4 -8.0 0.0 -8.0 -2.4 -3.35 -4.1 1.0 -5.6 7.0 -5.75 L7.5 -5.75 8.0 -5.75 8.0 5.75" fill="url(#gradient0)" fill-rule="evenodd" stroke="none"/>
    <path d="M8.0 5.75 L7.5 5.75 Q1.15 5.7 -3.35 4.05 -8.0 2.4 -8.0 0.0 -8.0 -2.4 -3.35 -4.1 1.0 -5.6 7.0 -5.75 L7.5 -5.75 8.0 -5.75" fill="none" stroke="#000000" stroke-linecap="round" stroke-linejoin="round" stroke-width="2.0"/>
  </g>
  <defs>
    <radialGradient cx="0" cy="0" gradientTransform="matrix(0.0257, 0.0, 0.0, 0.0196, 1.5, -0.5)" gradientUnits="userSpaceOnUse" id="gradient0" r="819.2" spreadMethod="pad">
      <stop offset="0.3843137254901961" stop-color="#0066ff"/>
      <stop offset="1.0" stop-color="#ffffff"/>
    </radialGradient>
  </defs>
</svg>
