<?xml version="1.0" encoding="UTF-8" standalone="no"?>
<svg xmlns:xlink="http://www.w3.org/1999/xlink" height="9.95px" width="23.4px" xmlns="http://www.w3.org/2000/svg">
  <g transform="matrix(1.0, 0.0, 0.0, 1.0, 11.7, 4.95)">
    <path d="M1.9 4.65 Q-4.6 5.7 -10.7 3.6 -11.75 3.2 -11.7 2.1 -11.6 0.65 -11.0 -0.7 L-10.8 -0.9 -10.05 -1.65 -9.85 -1.8 -9.8 -2.0 -9.8 -2.2 -9.75 -2.4 Q-6.15 -3.9 -2.35 -4.95 -0.4 -5.05 1.0 -3.8 L0.35 -3.45 0.0 -3.15 Q-0.15 -2.35 0.25 -1.7 1.45 0.35 2.7 -1.5 L2.85 -1.45 3.45 -0.95 3.95 -0.75 3.95 -0.65 3.95 -0.45 3.95 -0.25 4.0 -0.05 Q4.5 0.55 5.15 0.2 6.15 -0.3 5.6 -1.4 L5.55 -1.5 5.65 -1.45 6.3 -1.1 6.45 -1.0 Q10.4 -1.9 11.55 1.95 12.2 4.0 10.0 3.45 L9.5 3.2 Q6.55 3.5 3.8 4.75 L2.0 4.65 Q3.55 4.6 5.15 3.8 L5.2 3.6 5.25 3.55 5.25 3.6 Q5.9 4.2 6.5 3.6 8.35 1.8 5.65 1.55 L5.65 1.6 Q5.2 1.55 4.9 1.95 L4.9 2.0 2.4 1.8 Q1.8 1.95 1.3 2.5 L1.15 2.7 0.4 2.75 Q-0.9 1.75 -2.7 2.1 L-3.25 2.2 -3.25 2.15 Q-3.35 1.55 -3.95 1.4 L-6.85 0.75 -7.0 0.55 Q-7.3 0.15 -7.85 0.05 L-8.15 0.15 Q-8.55 0.25 -8.75 0.6 -8.9 1.45 -8.45 2.15 L-7.3 3.4 -6.85 3.65 -5.9 4.05 -3.95 4.1 -1.35 4.75 0.4 4.55 0.5 4.5 1.9 4.65 M1.5 -3.95 Q3.35 -5.65 4.35 -3.5 L5.0 -2.35 Q3.75 -3.9 1.5 -3.95 M-5.6 -3.7 Q-6.75 -3.4 -7.55 -2.5 -7.95 0.4 -5.1 0.35 L-4.8 0.25 Q-3.2 -2.15 -5.6 -3.7" fill="url(#gradient0)" fill-rule="evenodd" stroke="none"/>
    <path d="M1.0 -3.8 L1.4 -3.9 1.4 -3.95 1.5 -3.95 Q3.75 -3.9 5.0 -2.35 L5.55 -1.5 5.6 -1.4 Q6.15 -0.3 5.15 0.2 4.5 0.55 4.0 -0.05 L3.95 -0.25 3.95 -0.45 3.95 -0.65 3.95 -0.75 3.45 -0.95 2.85 -1.45 2.7 -1.5 Q1.45 0.35 0.25 -1.7 -0.15 -2.35 0.0 -3.15 L0.35 -3.45 1.0 -3.8" fill="url(#gradient1)" fill-rule="evenodd" stroke="none"/>
    <path d="M-5.6 -3.7 Q-3.2 -2.15 -4.8 0.25 L-5.1 0.35 Q-7.95 0.4 -7.55 -2.5 -6.75 -3.4 -5.6 -3.7" fill="url(#gradient2)" fill-rule="evenodd" stroke="none"/>
    <path d="M4.9 2.0 L4.9 1.95 Q5.2 1.55 5.65 1.6 L5.65 1.55 Q8.35 1.8 6.5 3.6 5.9 4.2 5.25 3.6 L5.25 3.55 Q4.6 2.95 4.75 2.1 L4.9 2.0" fill="url(#gradient3)" fill-rule="evenodd" stroke="none"/>
    <path d="M2.0 4.65 L1.9 4.65 0.5 4.5 -0.5 4.2 -0.5 4.0 Q-0.45 3.0 0.4 2.75 L1.15 2.7 1.3 2.5 Q1.8 1.95 2.4 1.8 L4.9 2.0 4.75 2.1 Q4.6 2.95 5.25 3.55 L5.2 3.6 5.15 3.8 Q3.55 4.6 2.0 4.65" fill="url(#gradient4)" fill-rule="evenodd" stroke="none"/>
    <path d="M0.5 4.5 L0.4 4.55 -1.35 4.75 -3.95 4.1 -6.35 3.75 -6.85 3.65 -7.3 3.4 -7.75 2.85 -7.8 2.7 -7.75 2.1 -7.15 1.65 -6.85 1.55 Q-5.15 2.4 -3.25 2.2 L-2.7 2.1 Q-0.9 1.75 0.4 2.75 -0.45 3.0 -0.5 4.0 L-0.5 4.2 0.5 4.5" fill="url(#gradient5)" fill-rule="evenodd" stroke="none"/>
    <path d="M-3.95 4.1 L-5.9 4.05 -6.85 3.65 -6.35 3.75 -3.95 4.1 M-7.3 3.4 L-8.45 2.15 Q-8.9 1.45 -8.75 0.6 -8.55 0.25 -8.15 0.15 L-7.85 0.05 Q-7.3 0.15 -7.0 0.55 L-6.85 0.75 -3.95 1.4 Q-3.35 1.55 -3.25 2.15 L-3.25 2.2 Q-5.15 2.4 -6.85 1.55 L-7.15 1.65 -7.75 2.1 -7.8 2.7 -7.75 2.85 -7.3 3.4" fill="url(#gradient6)" fill-rule="evenodd" stroke="none"/>
  </g>
  <defs>
    <radialGradient cx="0" cy="0" gradientTransform="matrix(0.0147, 0.0, 0.0, 0.0147, 0.0, 0.0)" gradientUnits="userSpaceOnUse" id="gradient0" r="819.2" spreadMethod="pad">
      <stop offset="0.0" stop-color="#4e0707"/>
      <stop offset="0.16470588235294117" stop-color="#b41010"/>
      <stop offset="0.5294117647058824" stop-color="#e23612"/>
      <stop offset="0.807843137254902" stop-color="#fd5037"/>
      <stop offset="1.0" stop-color="#fd5037" stop-opacity="0.0"/>
    </radialGradient>
    <radialGradient cx="0" cy="0" gradientTransform="matrix(0.0045, 0.0, 0.0, 0.0045, 2.9, -1.8)" gradientUnits="userSpaceOnUse" id="gradient1" r="819.2" spreadMethod="pad">
      <stop offset="0.0" stop-color="#4e0707"/>
      <stop offset="0.16470588235294117" stop-color="#b41010"/>
      <stop offset="0.5294117647058824" stop-color="#e23612"/>
      <stop offset="0.807843137254902" stop-color="#fd5037"/>
      <stop offset="1.0" stop-color="#fd5037" stop-opacity="0.0"/>
    </radialGradient>
    <radialGradient cx="0" cy="0" gradientTransform="matrix(0.004, 0.0, 0.0, 0.004, -5.9, -1.65)" gradientUnits="userSpaceOnUse" id="gradient2" r="819.2" spreadMethod="pad">
      <stop offset="0.0" stop-color="#4e0707"/>
      <stop offset="0.16470588235294117" stop-color="#b41010"/>
      <stop offset="0.5294117647058824" stop-color="#e23612"/>
      <stop offset="0.807843137254902" stop-color="#fd5037"/>
      <stop offset="1.0" stop-color="#fd5037" stop-opacity="0.0"/>
    </radialGradient>
    <radialGradient cx="0" cy="0" gradientTransform="matrix(0.0021, 0.0, 0.0, 0.0021, 6.0, 2.75)" gradientUnits="userSpaceOnUse" id="gradient3" r="819.2" spreadMethod="pad">
      <stop offset="0.0" stop-color="#4e0707"/>
      <stop offset="0.16470588235294117" stop-color="#b41010"/>
      <stop offset="0.5294117647058824" stop-color="#e23612"/>
      <stop offset="0.807843137254902" stop-color="#fd5037"/>
      <stop offset="1.0" stop-color="#fd5037" stop-opacity="0.0"/>
    </radialGradient>
    <radialGradient cx="0" cy="0" gradientTransform="matrix(0.0046, 0.0, 0.0, 0.0046, 2.55, 3.1)" gradientUnits="userSpaceOnUse" id="gradient4" r="819.2" spreadMethod="pad">
      <stop offset="0.0" stop-color="#4e0707"/>
      <stop offset="0.16470588235294117" stop-color="#b41010"/>
      <stop offset="0.5294117647058824" stop-color="#e23612"/>
      <stop offset="0.807843137254902" stop-color="#fd5037"/>
      <stop offset="1.0" stop-color="#fd5037" stop-opacity="0.0"/>
    </radialGradient>
    <radialGradient cx="0" cy="0" gradientTransform="matrix(0.0059, 0.0, 0.0, 0.0059, -3.4, 3.2)" gradientUnits="userSpaceOnUse" id="gradient5" r="819.2" spreadMethod="pad">
      <stop offset="0.0" stop-color="#4e0707"/>
      <stop offset="0.16470588235294117" stop-color="#b41010"/>
      <stop offset="0.5294117647058824" stop-color="#e23612"/>
      <stop offset="0.807843137254902" stop-color="#fd5037"/>
      <stop offset="1.0" stop-color="#fd5037" stop-opacity="0.0"/>
    </radialGradient>
    <radialGradient cx="0" cy="0" gradientTransform="matrix(0.0046, 0.0, 0.0, 0.0046, -5.85, 2.15)" gradientUnits="userSpaceOnUse" id="gradient6" r="819.2" spreadMethod="pad">
      <stop offset="0.0" stop-color="#4e0707"/>
      <stop offset="0.16470588235294117" stop-color="#b41010"/>
      <stop offset="0.5294117647058824" stop-color="#e23612"/>
      <stop offset="0.807843137254902" stop-color="#fd5037"/>
      <stop offset="1.0" stop-color="#fd5037" stop-opacity="0.0"/>
    </radialGradient>
  </defs>
</svg>
