<?xml version="1.0" encoding="UTF-8" standalone="no"?>
<svg xmlns:xlink="http://www.w3.org/1999/xlink" height="46.0px" width="46.5px" xmlns="http://www.w3.org/2000/svg">
  <g transform="matrix(1.0, 0.0, 0.0, 1.0, 23.25, 23.0)">
    <path d="M16.05 -15.9 Q22.75 -9.3 22.75 0.0 22.75 9.3 16.05 15.9 9.4 22.5 0.0 22.5 -9.4 22.5 -16.1 15.9 -22.75 9.3 -22.75 0.0 -22.75 -9.3 -16.1 -15.9 -9.4 -22.5 0.0 -22.5 9.4 -22.5 16.05 -15.9 Z" fill="none" stroke="#000000" stroke-linecap="round" stroke-linejoin="round" stroke-width="1.0"/>
    <path d="M4.75 -17.0 L5.05 -17.0 5.7 -16.55 Q6.0 -16.9 6.3 -16.85 L6.75 -16.65 6.7 -16.75 Q5.9 -17.55 5.35 -17.5 L4.75 -17.0 M4.5 -16.4 L4.45 -16.4 4.35 -16.35 4.25 -16.35 Q4.9 -15.25 4.7 -13.75 L4.6 -13.65 4.55 -13.6 4.0 -13.6 3.65 -12.7 2.95 -11.8 Q2.25 -11.15 1.35 -10.85 L1.3 -10.85 0.3 -10.7 Q-0.6 -10.75 -1.3 -11.1 L-1.45 -11.15 Q-1.95 -11.4 -2.35 -11.8 L-3.0 -12.7 -3.35 -13.6 -3.95 -13.6 -4.0 -13.65 -4.1 -13.7 Q-4.75 -15.15 -3.5 -16.5 L-3.45 -16.6 -2.8 -16.6 -2.35 -17.15 Q-1.25 -18.25 0.3 -18.25 1.85 -18.25 2.95 -17.15 L3.45 -16.6 4.0 -16.6 4.05 -16.55 4.15 -16.5 4.15 -16.55 Q4.55 -17.75 5.3 -17.8 5.95 -17.95 6.95 -17.0 L7.05 -16.2 7.05 -16.1 6.95 -16.05 6.85 -16.05 6.75 -16.1 6.3 -16.55 5.85 -16.2 5.8 -16.1 5.65 -16.1 Q6.4 -15.6 6.5 -14.95 6.65 -14.1 5.7 -12.95 L5.6 -12.9 5.45 -12.9 5.4 -13.05 5.35 -13.75 Q4.3 -14.9 4.9 -16.3 L4.95 -16.35 5.05 -16.4 5.1 -16.4 5.65 -16.1 5.6 -16.2 5.05 -16.7 Q4.75 -16.75 4.5 -16.4 M5.55 -2.0 L5.7 -2.4 6.0 -3.0 8.65 -3.05 8.95 -2.4 9.15 -2.0 Q7.75 0.75 6.45 0.85 5.6 -0.65 5.55 -2.0 M3.65 -10.15 L4.25 -10.15 Q5.95 -10.05 7.25 -9.2 L-7.75 -8.6 -7.15 -9.0 -7.1 -9.0 Q-5.3 -10.1 -3.15 -10.15 L-3.1 -10.1 -3.0 -10.05 -2.55 -10.15 -1.7 -10.25 0.1 -9.85 0.35 -9.85 1.65 -10.0 3.65 -10.15 M6.8 -8.15 L6.15 -8.15 -7.3 -7.7 -7.85 -7.65 Q-11.45 -7.25 -13.7 -6.45 L-13.55 -6.7 -13.3 -7.05 -13.25 -7.15 -8.35 -8.15 -7.75 -8.2 7.25 -8.8 7.95 -8.75 11.35 -8.65 11.4 -2.6 9.65 -2.6 9.3 -3.2 9.95 -3.2 9.85 -8.05 6.8 -8.15 M5.7 -13.45 Q6.25 -14.25 6.2 -14.85 6.05 -15.55 5.15 -16.0 4.75 -14.9 5.65 -13.95 L5.7 -13.85 5.7 -13.45 M4.35 -13.95 Q4.5 -15.25 3.9 -16.25 L-3.35 -16.25 Q-4.25 -15.1 -3.8 -13.95 L4.35 -13.95 M4.85 -2.55 L-4.55 -2.5 -4.9 -3.1 -4.95 -3.15 5.15 -3.2 4.85 -2.55 M19.45 -4.85 L12.25 -4.8 12.25 -6.75 19.45 -6.8 19.45 -4.85 M12.65 -6.45 L12.65 -5.1 19.15 -5.15 19.15 -6.5 12.65 -6.45 M3.45 2.7 L3.7 3.5 4.25 5.35 5.3 8.65 Q6.65 13.1 8.25 17.15 6.25 17.0 3.45 17.25 3.3 13.2 2.4 9.65 L2.15 8.65 1.3 6.1 1.1 5.85 0.75 5.75 0.45 5.85 Q-1.1 6.95 -1.8 8.65 L-1.85 8.9 -2.1 9.65 Q-3.35 13.5 -4.05 17.55 L-8.55 18.05 -7.4 14.05 Q-6.85 11.8 -5.95 9.65 L-5.55 8.65 -3.7 5.15 -3.75 5.05 -3.45 4.6 -2.9 3.5 -2.8 3.2 -2.8 3.15 -2.8 2.65 -3.1 0.85 -3.3 -2.05 3.25 -2.1 Q3.0 0.15 3.4 2.4 L3.4 2.55 3.45 2.7 M-14.2 -6.2 L-14.25 -6.05 -14.35 -5.6 Q-14.5 -4.55 -13.95 -3.4 L-13.85 -3.1 -13.8 -3.0 -13.65 -2.7 -13.6 -2.65 -13.65 -2.7 -13.95 -2.95 -14.1 -3.1 -14.45 -3.4 Q-15.7 -4.3 -16.85 -4.3 L-17.1 -4.3 -17.3 -4.3 -17.6 -4.25 -18.3 -4.05 -18.4 -3.95 -18.35 -4.05 -18.4 -4.0 -18.6 -3.9 -18.65 -3.85 -18.95 -3.7 -19.1 -3.55 -18.9 -3.75 -18.65 -4.0 -18.45 -4.25 -18.35 -4.3 -17.85 -5.0 Q-16.8 -6.95 -18.15 -9.25 -15.85 -6.1 -12.6 -8.3 L-13.5 -7.4 -13.55 -7.35 -13.85 -6.95 -13.95 -6.7 -14.0 -6.6 -14.2 -6.2 M-5.5 -3.15 L-5.45 -3.1 -5.1 -2.5 -5.1 -2.45 -4.85 -2.0 -5.05 0.45 -5.1 0.55 -5.15 0.6 -5.2 0.6 Q-7.35 0.0 -8.2 -2.0 L-8.1 -2.3 -8.05 -2.4 -7.85 -2.95 -7.8 -3.1 -5.5 -3.15 M-13.65 -2.65 L-13.65 -2.7 -13.4 -2.45 -13.6 -2.45 -13.7 -2.7 -13.65 -2.65 M-13.5 -2.7 L-13.55 -2.85 -13.7 -3.1 -8.55 -3.15 -8.75 -2.6 -8.85 -2.45 -13.35 -2.45 -13.5 -2.7 M-18.6 -3.6 L-18.55 -3.65 -18.4 -3.7 -18.65 -3.45 -18.6 -3.6 M-17.05 -4.0 L-17.3 -3.1 -14.4 -3.1 -14.05 -2.85 -13.6 -2.45 -18.85 -2.4 -18.65 -3.4 -18.35 -3.6 -18.3 -3.65 -18.1 -3.75 -18.0 -3.75 -17.3 -4.0 -17.05 -4.0" fill="#000000" fill-rule="evenodd" stroke="none"/>
  </g>
</svg>
