<?xml version="1.0" encoding="UTF-8" standalone="no"?>
<svg xmlns:xlink="http://www.w3.org/1999/xlink" height="10.6px" width="14.2px" xmlns="http://www.w3.org/2000/svg">
  <g transform="matrix(1.0, 0.0, 0.0, 1.0, 46.65, 1.75)">
    <path d="M-45.15 7.85 L-45.25 7.6 -45.3 7.45 Q-46.05 5.25 -45.1 3.15 L-45.0 2.85 Q-43.9 0.5 -41.5 -0.35 -39.35 -1.15 -37.25 -0.3 L-36.75 -0.15 Q-34.7 0.85 -33.8 2.85 L-33.6 3.2 -33.55 3.35 -33.45 3.6 -45.15 7.85" fill="url(#gradient0)" fill-rule="evenodd" stroke="none"/>
    <path d="M-45.15 7.85 L-45.25 7.6 -45.3 7.45 Q-46.05 5.25 -45.1 3.15 L-45.0 2.85 Q-43.9 0.5 -41.5 -0.35 -39.35 -1.15 -37.25 -0.3 L-36.75 -0.15 Q-34.7 0.85 -33.8 2.85 L-33.6 3.2 -33.55 3.35 -33.45 3.6" fill="none" stroke="#000000" stroke-linecap="round" stroke-linejoin="round" stroke-width="2.0"/>
  </g>
  <defs>
    <linearGradient gradientTransform="matrix(0.0026, 0.0071, -0.0071, 0.0026, -39.4, 5.5)" gradientUnits="userSpaceOnUse" id="gradient0" spreadMethod="pad" x1="-819.2" x2="819.2">
      <stop offset="0.0" stop-color="#ffcc99"/>
      <stop offset="0.6901960784313725" stop-color="#ffe6cf"/>
      <stop offset="0.7411764705882353" stop-color="#ffe6cf"/>
      <stop offset="0.792156862745098" stop-color="#ffe6cf"/>
      <stop offset="0.8352941176470589" stop-color="#ffe7d0"/>
      <stop offset="1.0" stop-color="#ffffff"/>
    </linearGradient>
  </defs>
</svg>
