<?xml version="1.0" encoding="UTF-8" standalone="no"?>
<svg xmlns:xlink="http://www.w3.org/1999/xlink" height="14.4px" width="14.4px" xmlns="http://www.w3.org/2000/svg">
  <g transform="matrix(1.0, 0.0, 0.0, 1.0, 5.95, 33.2)">
    <path d="M7.45 -26.0 Q7.45 -23.45 5.65 -21.65 L5.35 -21.35 Q3.6 -19.8 1.25 -19.8 -1.15 -19.8 -2.9 -21.45 L-3.15 -21.65 Q-4.95 -23.45 -4.95 -26.0 -4.95 -28.3 -3.45 -30.0 L-3.15 -30.4 Q-1.3 -32.2 1.25 -32.2 3.8 -32.2 5.65 -30.4 L5.9 -30.1 Q7.45 -28.35 7.45 -26.0" fill="url(#gradient0)" fill-rule="evenodd" stroke="none"/>
    <path d="M7.45 -26.0 Q7.45 -23.45 5.65 -21.65 L5.35 -21.35 Q3.6 -19.8 1.25 -19.8 -1.15 -19.8 -2.9 -21.45 L-3.15 -21.65 Q-4.95 -23.45 -4.95 -26.0 -4.95 -28.3 -3.45 -30.0 L-3.15 -30.4 Q-1.3 -32.2 1.25 -32.2 3.8 -32.2 5.65 -30.4 L5.9 -30.1 Q7.45 -28.35 7.45 -26.0 Z" fill="none" stroke="#000000" stroke-linecap="round" stroke-linejoin="round" stroke-width="2.0"/>
  </g>
  <defs>
    <linearGradient gradientTransform="matrix(0.0076, 0.0, 0.0, 0.0076, 1.25, -26.0)" gradientUnits="userSpaceOnUse" id="gradient0" spreadMethod="pad" x1="-819.2" x2="819.2">
      <stop offset="0.0" stop-color="#ffcc99"/>
      <stop offset="0.6901960784313725" stop-color="#ffe6cf"/>
      <stop offset="0.7411764705882353" stop-color="#ffe6cf"/>
      <stop offset="0.792156862745098" stop-color="#ffe6cf"/>
      <stop offset="0.8352941176470589" stop-color="#ffe7d0"/>
      <stop offset="1.0" stop-color="#ffffff"/>
    </linearGradient>
  </defs>
</svg>
