<?xml version="1.0" encoding="UTF-8" standalone="no"?>
<svg xmlns:xlink="http://www.w3.org/1999/xlink" height="26.1px" width="28.4px" xmlns="http://www.w3.org/2000/svg">
  <g transform="matrix(1.0, 0.0, 0.0, 1.0, 14.7, 14.2)">
    <path d="M7.55 -7.2 Q10.4 -5.2 10.4 -1.8 L10.45 -0.85 Q10.6 0.4 9.9 1.45 L8.45 3.45 Q8.05 5.35 6.4 6.4 L5.5 6.95 Q4.55 7.35 3.7 7.95 2.55 8.95 1.2 8.85 1.8 9.65 0.8 11.0 L-1.65 10.95 -1.9 9.75 Q-1.75 8.55 -0.7 8.2 -1.85 7.55 -3.2 7.25 -7.8 6.4 -8.2 2.1 L-8.35 -2.0 Q-8.3 -3.9 -7.5 -5.5 -6.25 -7.8 -3.7 -8.65 -3.3 -8.8 -2.95 -9.1 -1.6 -10.45 0.0 -11.2 3.0 -11.9 4.0 -9.25 4.55 -7.7 6.4 -7.6 L7.55 -7.2 M1.1 -0.6 L1.2 -0.95 Q0.9 -1.3 0.5 -0.95 0.1 -0.65 0.0 -0.2 L-0.05 -0.05 0.75 -0.05 0.9 -0.25 1.05 -0.45 1.1 -0.6 M11.85 -6.85 Q11.35 -6.5 10.75 -6.3 8.55 -7.05 9.8 -9.2 10.15 -9.8 10.75 -9.95 12.65 -10.35 12.75 -8.7 12.8 -7.55 11.85 -6.85 M13.7 5.35 Q12.85 6.9 11.35 5.7 11.25 5.4 11.3 5.1 11.4 4.65 11.8 4.45 L11.95 4.4 12.25 4.35 12.25 4.3 Q13.4 4.15 13.65 5.2 L13.7 5.35 M5.2 2.45 L5.1 2.5 Q4.95 2.75 4.95 3.05 L4.95 3.2 Q5.3 3.45 5.45 3.0 5.7 2.55 5.2 2.45 M-3.4 -12.95 L-3.45 -13.5 Q-3.2 -14.15 -2.5 -14.15 L-2.5 -14.2 Q-0.3 -13.35 -2.35 -12.25 L-2.9 -12.25 -3.4 -12.55 -3.4 -12.95 M-1.7 -3.8 L-2.05 -3.25 Q-2.35 -2.8 -2.25 -2.3 L-1.9 -2.15 -1.6 -2.7 -1.45 -2.8 -1.3 -2.85 -1.15 -2.85 -1.2 -3.3 -1.7 -3.8 M-5.05 2.8 Q-5.05 3.35 -4.65 3.7 L-4.55 3.75 Q-4.3 3.35 -4.55 3.0 -4.65 2.6 -5.05 2.8 M-13.45 2.7 L-13.0 2.6 -13.0 2.55 Q-10.6 3.05 -12.15 5.25 -13.15 6.65 -14.65 5.45 -14.85 4.5 -14.45 3.8 L-14.45 3.75 -14.05 3.25 -13.8 3.0 -13.45 2.7" fill="#36536d" fill-rule="evenodd" stroke="none"/>
  </g>
</svg>
