<?xml version="1.0" encoding="UTF-8" standalone="no"?>
<svg xmlns:xlink="http://www.w3.org/1999/xlink" height="51.1px" width="53.1px" xmlns="http://www.w3.org/2000/svg">
  <g transform="matrix(1.0, 0.0, 0.0, 1.0, 25.2, 25.2)">
    <path d="M4.3 -14.4 L4.35 -14.2 4.55 -14.1 4.8 -14.15 Q7.25 -16.45 9.55 -14.0 L9.8 -13.55 10.2 -12.2 13.0 -8.5 13.2 -7.9 Q13.35 -5.65 12.45 -3.4 13.95 -3.25 14.5 -1.7 L14.65 -0.45 Q14.6 0.85 13.75 1.8 12.5 2.95 10.85 3.3 10.05 5.45 8.5 7.05 7.8 7.8 6.8 8.0 7.05 11.75 3.45 13.05 2.95 13.25 2.55 12.9 2.0 12.45 1.75 11.8 0.2 11.5 -0.5 10.05 L-4.8 10.3 -5.3 10.0 Q-6.5 9.9 -7.15 8.85 -7.5 8.0 -7.45 7.0 L-7.45 6.25 -7.7 5.85 -7.9 5.55 Q-10.85 6.0 -11.45 3.25 -12.5 -1.5 -8.35 -3.9 L-6.65 -4.5 Q-8.2 -4.75 -9.1 -6.05 -9.6 -6.75 -9.4 -7.65 -7.3 -10.1 -4.0 -9.0 -3.35 -8.8 -2.9 -9.35 L-2.45 -9.95 Q-1.85 -12.55 -0.1 -14.6 1.0 -15.85 2.5 -16.2 3.9 -15.9 4.3 -14.4 M2.75 -4.2 Q1.75 -2.05 -0.65 -1.6 -0.95 -1.55 -1.05 -1.25 -1.55 0.2 -1.55 1.75 0.05 2.75 1.6 1.1 1.85 0.85 2.25 0.75 L4.5 0.95 4.1 -1.15 4.05 -2.05 3.35 -2.8 Q3.25 -3.25 3.3 -3.75 L3.3 -4.15 2.75 -4.2 M18.05 -7.55 L18.2 -7.6 18.5 -7.65 18.5 -7.7 Q20.3 -6.65 18.65 -5.35 L18.1 -5.3 17.6 -5.55 Q17.45 -6.4 17.8 -7.2 L18.05 -7.55 M23.0 -18.2 Q25.2 -17.75 23.8 -15.55 23.2 -14.6 22.0 -14.6 21.45 -14.65 21.1 -15.05 L21.0 -15.65 21.1 -16.4 Q21.8 -17.65 23.0 -18.15 L23.0 -18.2 M26.9 9.5 L26.35 9.5 25.85 9.2 25.8 8.8 25.8 8.25 Q26.05 7.6 26.75 7.6 L26.75 7.55 Q28.95 8.4 26.9 9.5 M7.7 2.1 Q7.0 3.05 5.95 3.4 L5.6 3.45 5.25 4.0 5.2 4.2 5.8 4.7 Q7.75 4.35 7.85 2.45 7.9 2.0 7.7 2.1 M0.55 21.2 L0.7 21.15 1.0 21.1 1.0 21.05 Q3.65 22.45 2.1 25.25 1.6 26.2 0.6 25.75 L0.1 25.45 0.1 21.85 Q0.15 21.4 0.55 21.2 M-4.25 -25.2 Q-2.0 -23.85 -4.1 -22.1 L-4.65 -22.05 -5.15 -22.3 -5.1 -24.55 -4.7 -25.05 -4.55 -25.1 -4.25 -25.15 -4.25 -25.2 M-13.75 -10.95 Q-11.8 -9.65 -14.05 -9.0 -14.55 -8.9 -14.9 -9.3 -15.1 -10.65 -13.75 -10.9 L-13.75 -10.95 M-1.7 -4.55 Q-1.9 -5.05 -2.7 -4.75 L-3.05 -4.35 -3.2 -4.2 Q-2.4 -3.3 -1.7 -4.4 L-1.7 -4.55 M-5.0 -3.85 L-5.1 -3.65 -5.0 -3.65 -5.0 -3.85 M-3.55 4.15 L-3.45 3.5 -3.45 3.45 -4.05 3.4 -4.2 3.35 Q-5.0 3.45 -5.5 4.05 L-5.7 4.25 Q-5.15 5.0 -4.2 4.85 L-3.8 4.75 -3.55 4.15 M-25.15 7.1 Q-24.15 5.8 -22.75 5.3 -20.4 4.95 -20.9 6.9 L-21.35 7.75 Q-23.25 9.9 -25.0 7.95 -25.3 7.6 -25.15 7.1" fill="#36536d" fill-rule="evenodd" stroke="none"/>
  </g>
</svg>
