<?xml version="1.0" encoding="UTF-8" standalone="no"?>
<svg xmlns:xlink="http://www.w3.org/1999/xlink" height="83.1px" width="78.65px" xmlns="http://www.w3.org/2000/svg">
  <g transform="matrix(1.0, 0.0, 0.0, 1.0, 40.95, 40.45)">
    <path d="M32.6 -28.4 L33.9 -30.0 34.25 -30.2 Q35.55 -30.45 35.9 -29.3 L35.95 -29.15 Q35.45 -27.15 33.7 -26.75 33.2 -26.65 32.85 -27.05 32.35 -27.65 32.6 -28.4 M3.75 -27.75 L5.25 -27.95 6.25 -28.2 Q10.9 -27.45 10.65 -22.9 10.45 -19.6 8.2 -17.05 7.95 -16.15 8.1 -15.2 L8.3 -13.55 13.9 -13.4 14.5 -12.8 Q14.85 -11.7 15.5 -10.8 18.3 -11.0 20.8 -10.0 24.6 -9.05 24.0 -5.35 23.35 -1.85 20.05 -0.75 L19.1 0.0 18.95 0.2 Q19.3 3.45 17.1 5.75 L15.85 6.75 Q13.45 8.8 11.6 11.35 L11.5 12.0 Q12.2 16.2 10.55 20.0 10.0 21.3 8.6 21.75 5.0 23.0 3.7 19.8 3.15 18.55 3.05 17.3 L3.0 14.85 3.05 11.7 2.9 11.5 2.75 11.3 2.25 11.3 1.6 13.15 Q1.45 14.05 0.6 14.5 -0.85 15.95 -3.15 16.45 -4.35 16.75 -5.3 17.55 -8.55 20.4 -10.75 16.95 L-12.0 14.05 -12.4 13.1 Q-15.05 12.3 -16.85 10.05 L-16.95 9.75 Q-17.95 4.1 -13.4 0.3 -12.35 -0.6 -11.6 -1.8 -10.4 -3.65 -10.25 -5.8 L-10.4 -6.4 -10.45 -6.95 -10.5 -7.15 Q-13.1 -9.1 -16.55 -8.55 L-17.35 -8.6 Q-18.85 -9.0 -19.65 -10.3 -20.25 -14.8 -16.3 -16.65 L-14.0 -16.5 -13.3 -16.15 Q-8.2 -15.0 -3.5 -16.75 L-2.95 -17.2 Q-2.85 -23.35 2.25 -27.1 2.95 -27.65 3.75 -27.75 M4.5 -3.9 L4.2 -5.0 4.1 -5.2 3.3 -5.65 1.3 -5.7 1.25 -5.7 Q0.55 -4.1 -0.65 -3.0 -2.25 -1.55 -3.45 0.1 -2.5 1.5 -3.0 3.1 L-3.3 3.7 Q-3.25 4.2 -3.55 4.65 L-3.55 4.8 -3.45 4.9 -2.0 4.95 Q0.3 2.95 3.25 3.45 4.6 2.65 6.3 2.7 L6.3 2.3 6.25 2.1 Q4.95 -0.1 4.35 -2.6 4.2 -3.3 4.5 -3.9 M10.7 -1.9 Q11.6 0.05 11.7 2.25 L11.7 2.35 Q11.95 1.25 12.5 0.2 L12.6 -0.15 13.15 -1.05 13.2 -1.25 12.9 -1.85 12.85 -1.95 11.75 -1.8 10.9 -2.1 10.85 -2.05 10.7 -1.9 M28.0 -7.1 L27.1 -7.0 26.6 -7.3 Q26.45 -8.05 26.65 -8.8 26.7 -9.15 27.05 -9.3 L27.2 -9.35 27.5 -9.4 27.5 -9.45 Q29.55 -8.75 28.0 -7.1 M37.7 14.85 Q36.85 16.85 35.45 15.0 L35.3 14.5 35.8 13.95 36.25 13.8 Q37.2 13.8 37.6 14.7 L37.7 14.85 M2.35 42.2 Q1.95 40.2 2.95 38.7 3.15 38.35 3.5 38.3 5.3 39.0 4.7 41.25 4.15 43.4 2.35 42.2 M-7.75 -39.2 L-7.7 -39.75 -7.2 -40.3 -6.75 -40.45 Q-4.45 -39.65 -5.85 -37.4 -6.4 -36.5 -7.4 -37.0 L-7.9 -37.3 Q-8.05 -38.3 -7.75 -39.2 M-24.75 -14.6 L-25.65 -14.5 -26.15 -14.8 -26.2 -15.95 -26.2 -16.5 -25.25 -17.15 -25.25 -17.2 Q-23.25 -16.2 -24.75 -14.6 M-0.95 -9.3 L-1.25 -9.7 Q-1.9 -9.75 -2.45 -10.15 L-4.05 -10.2 -5.6 -8.9 -5.75 -8.7 -5.35 -5.7 -5.3 -4.8 -4.2 -4.8 Q-2.7 -6.95 -0.7 -8.55 L-0.95 -9.3 M-6.4 10.1 L-5.95 9.55 Q-5.8 8.55 -6.3 7.75 L-7.2 6.35 Q-9.55 6.1 -9.6 8.05 L-9.55 8.8 -9.0 9.6 -8.0 10.7 Q-7.05 10.85 -6.4 10.1 M-4.5 6.7 L-4.4 6.65 -4.55 6.6 -4.5 6.7 M-37.6 16.3 Q-38.3 17.7 -40.0 17.45 -40.55 17.35 -40.9 16.95 L-40.9 16.55 -40.95 15.25 -40.15 14.25 Q-39.75 13.85 -39.25 13.8 -36.25 13.85 -37.6 16.3" fill="#36536d" fill-rule="evenodd" stroke="none"/>
  </g>
</svg>
