<?xml version="1.0" encoding="UTF-8" standalone="no"?>
<svg xmlns:xlink="http://www.w3.org/1999/xlink" height="125.05px" width="113.4px" xmlns="http://www.w3.org/2000/svg">
  <g transform="matrix(1.0, 0.0, 0.0, 1.0, 62.95, 61.95)">
    <path d="M18.7 -39.7 Q18.5 -36.0 14.75 -34.6 10.95 -33.2 7.8 -35.45 6.85 -36.1 7.1 -37.3 7.55 -39.4 9.65 -40.65 11.6 -41.8 13.75 -42.2 16.45 -42.3 18.35 -40.65 18.75 -40.3 18.7 -39.7 M3.25 -44.05 L3.2 -44.15 3.2 -44.05 3.25 -44.05 M3.5 -46.7 Q5.85 -46.15 5.0 -43.45 4.45 -41.65 3.15 -40.3 1.2 -38.35 -0.1 -40.75 L-0.4 -41.15 Q-0.9 -45.4 3.2 -46.6 L3.5 -46.7 M6.65 -27.8 Q5.3 -25.6 3.1 -26.3 2.55 -26.5 2.6 -27.05 2.65 -29.8 5.25 -30.95 8.3 -30.35 6.65 -27.8 M16.0 -21.7 Q21.15 -20.4 21.8 -15.35 L21.65 -14.8 Q20.2 -12.85 18.25 -14.95 14.2 -13.9 12.3 -17.2 12.0 -17.7 12.05 -18.4 12.35 -21.65 16.0 -21.7 M0.8 -17.85 Q-0.1 -17.25 -0.85 -18.0 -2.9 -19.9 -1.95 -22.75 L-1.15 -24.25 Q-0.9 -24.9 -0.25 -24.95 2.95 -24.5 2.65 -21.05 2.5 -19.0 0.8 -17.85 M9.25 -8.4 L9.25 -8.2 Q5.75 -7.15 5.05 -10.5 4.85 -11.3 5.8 -11.55 L6.25 -11.7 Q9.2 -11.05 9.25 -8.4 M0.75 -7.2 Q-2.0 -5.95 -2.0 -8.65 -2.0 -10.8 0.0 -11.45 1.45 -11.75 2.1 -10.55 L2.2 -10.4 2.15 -10.2 Q2.1 -9.7 1.7 -9.45 L1.45 -9.25 1.3 -8.5 0.75 -7.2 M17.25 -0.4 L17.25 -0.45 Q18.85 0.75 18.45 3.05 18.05 5.5 16.05 5.6 L15.6 5.45 Q15.7 3.45 16.15 1.45 L16.4 0.2 Q16.45 -0.15 16.8 -0.3 L16.95 -0.35 17.25 -0.4 M38.5 -13.15 L38.5 -13.2 Q40.1 -12.5 38.85 -11.25 L38.5 -11.05 Q37.95 -11.15 37.6 -11.55 L37.55 -11.95 37.55 -12.5 Q37.8 -13.15 38.5 -13.15 M24.35 -1.3 Q24.15 -3.65 25.15 -5.75 L25.3 -6.75 Q26.25 -8.95 28.5 -9.45 31.6 -8.2 30.7 -4.6 30.15 -2.25 28.7 -0.45 26.95 1.65 25.1 -0.45 L24.35 -1.3 M49.6 22.25 L49.25 22.45 Q48.7 22.35 48.35 21.95 47.85 20.15 49.5 19.6 L49.5 19.55 Q51.3 20.65 49.6 22.25 M22.75 13.2 Q20.75 12.4 21.1 10.0 21.45 7.55 23.75 6.55 26.85 7.25 25.55 10.35 24.7 12.3 22.75 13.2 M13.9 8.2 L13.95 8.35 Q13.45 10.75 11.4 11.7 10.65 12.05 10.2 11.35 9.45 10.15 10.05 8.75 10.65 7.15 12.0 6.55 13.5 6.65 13.9 8.2 M8.5 23.55 Q10.9 24.15 10.6 26.9 L10.7 27.8 Q11.65 30.35 9.4 31.5 8.7 31.85 8.1 31.3 4.9 28.25 7.3 24.45 7.8 23.75 8.5 23.55 M18.3 30.2 L18.75 30.05 Q21.95 31.05 20.55 34.15 L20.45 34.35 Q20.05 38.15 16.45 38.7 15.85 38.8 15.4 38.25 L15.1 37.85 Q14.7 35.05 16.95 33.2 L17.55 32.6 17.8 32.25 17.8 31.7 17.8 30.75 18.3 30.2 M17.0 36.8 L16.95 36.65 16.95 36.8 17.0 36.8 M8.45 26.45 L8.6 26.45 Q8.6 26.2 8.45 26.35 L8.45 26.45 M18.2 35.1 L18.15 35.15 18.2 35.2 18.2 35.1 M11.3 61.3 Q11.0 63.2 8.9 62.8 L8.35 62.85 Q5.4 63.85 5.55 61.0 L5.65 60.8 5.8 60.6 6.0 60.45 Q6.0 59.8 6.45 59.4 L8.0 58.55 Q10.8 58.6 11.3 60.95 L11.3 61.3 M-9.9 -58.55 Q-11.75 -56.95 -12.75 -58.95 -13.0 -59.5 -12.75 -60.05 L-12.65 -60.4 Q-11.85 -61.6 -10.5 -61.9 L-10.5 -61.95 Q-7.55 -60.65 -9.9 -58.55 M-22.5 -25.95 Q-19.4 -25.3 -20.35 -22.0 -20.8 -20.6 -22.05 -20.25 -23.55 -19.8 -24.4 -21.15 -25.5 -23.8 -23.2 -25.6 L-22.5 -25.95 M-35.7 -23.8 L-35.55 -23.85 -35.25 -23.9 -35.25 -23.95 Q-32.95 -22.6 -35.35 -21.55 -35.95 -21.25 -36.4 -21.8 -36.6 -22.75 -36.05 -23.45 L-35.7 -23.8 M-31.4 -9.55 Q-30.95 -12.4 -28.5 -13.2 -25.65 -13.1 -26.1 -10.05 -26.35 -8.4 -27.75 -7.35 -29.95 -5.7 -31.15 -8.15 -31.5 -8.8 -31.4 -9.55 M-24.9 -1.3 Q-23.95 -2.3 -22.75 -2.45 -19.05 -3.1 -18.0 0.0 L-17.8 1.25 Q-17.6 4.6 -21.05 5.5 L-22.75 5.4 Q-27.25 3.8 -25.45 -0.5 L-24.9 -1.3 M-17.0 -14.2 Q-17.6 -14.8 -17.35 -15.75 -17.05 -16.9 -16.0 -17.2 -13.4 -16.4 -15.05 -14.2 -15.95 -13.1 -17.0 -14.2 M-10.6 -1.55 L-10.55 -1.4 Q-11.0 -0.25 -12.3 -0.2 -13.1 1.7 -14.65 0.7 L-14.65 0.3 -14.7 -0.25 Q-13.9 -1.9 -12.05 -2.35 L-11.75 -2.45 Q-10.75 -2.5 -10.6 -1.55 M-7.85 -6.15 L-8.1 -4.45 Q-8.35 -3.35 -9.5 -3.05 -10.4 -3.35 -10.9 -4.15 -11.65 -7.3 -9.25 -8.9 L-9.25 -8.95 Q-7.55 -8.35 -7.85 -6.15 M-8.4 5.9 Q-8.75 6.95 -9.6 7.6 -10.55 8.3 -11.4 7.45 -11.55 5.75 -11.25 4.1 L-11.15 3.3 -10.3 2.65 -10.0 2.55 Q-7.5 3.15 -8.4 5.9 M-5.25 10.25 L-5.0 10.45 Q-4.1 13.2 -6.9 12.65 L-7.6 12.25 -8.65 11.1 -8.7 10.95 -8.7 10.75 -8.65 10.35 -7.95 9.75 -7.25 9.55 Q-6.1 9.45 -5.25 10.25 M-18.6 11.2 Q-20.55 13.65 -22.9 11.2 -24.3 9.65 -23.15 7.85 -22.65 7.05 -21.8 6.6 L-21.5 6.6 -21.5 6.55 Q-17.7 6.35 -18.05 9.9 -18.1 10.65 -18.6 11.2 M-11.4 19.6 L-10.8 19.15 -10.5 19.05 Q-8.9 19.85 -7.6 21.4 -6.55 22.55 -7.85 23.35 -8.9 23.95 -9.9 23.1 -11.2 22.05 -11.4 20.55 L-11.4 19.6 M-16.6 20.9 Q-16.9 21.9 -17.6 22.65 -19.15 24.4 -21.35 22.95 -22.9 21.95 -22.35 20.25 L-22.15 19.35 -20.45 18.2 -19.55 17.6 -19.25 17.6 -19.25 17.55 Q-15.75 17.65 -16.6 20.9 M-3.45 21.55 L-3.25 21.35 Q-3.15 19.75 -1.55 19.15 L-1.25 19.05 Q0.6 20.25 -1.25 21.95 L-1.75 22.55 Q-2.85 24.4 -4.4 23.45 -4.6 22.15 -3.45 21.55 M-62.65 21.85 L-62.1 21.3 -61.95 21.2 -61.5 21.1 -61.5 21.05 Q-58.95 21.6 -59.65 24.25 L-60.05 25.05 Q-61.4 26.85 -62.6 24.8 -63.2 23.75 -62.8 22.6 L-62.65 21.85" fill="#36536d" fill-rule="evenodd" stroke="none"/>
  </g>
</svg>
