<?xml version="1.0" encoding="UTF-8" standalone="no"?>
<svg xmlns:xlink="http://www.w3.org/1999/xlink" height="128.45px" width="116.7px" xmlns="http://www.w3.org/2000/svg">
  <g transform="matrix(1.0, 0.0, 0.0, 1.0, 64.75, 64.45)">
    <path d="M14.05 -42.7 L14.35 -43.0 14.5 -43.05 14.75 -43.1 14.75 -43.15 Q17.05 -43.25 16.6 -40.95 L16.55 -40.75 Q15.2 -39.35 13.85 -41.0 L13.85 -41.4 13.85 -42.5 14.05 -42.7 M12.85 -39.4 L12.85 -38.65 Q12.85 -37.9 12.45 -37.3 10.55 -36.6 9.35 -38.05 L9.35 -38.45 9.35 -38.65 9.35 -39.2 9.7 -39.55 10.1 -39.9 10.5 -40.15 Q11.75 -40.15 12.7 -39.55 L12.85 -39.4 M15.6 -37.9 L15.6 -38.05 15.6 -38.25 16.0 -38.65 16.35 -39.0 16.75 -39.1 16.75 -39.15 Q19.4 -38.75 17.8 -36.5 16.9 -35.2 15.45 -36.2 L15.35 -36.75 15.35 -37.5 15.55 -37.7 15.6 -37.9 M2.25 -45.3 L2.5 -45.4 3.5 -44.8 3.6 -44.65 3.6 -44.25 3.6 -43.9 Q3.1 -43.05 2.25 -42.65 1.75 -42.55 1.45 -42.95 L1.35 -43.7 1.35 -44.25 2.25 -45.3 M0.25 -25.65 Q1.0 -25.6 1.45 -24.95 L1.55 -24.75 1.6 -24.4 1.55 -24.0 Q0.6 -22.6 -0.8 -23.45 L-0.9 -24.2 -0.9 -24.75 -0.3 -25.3 -0.15 -25.5 0.25 -25.6 0.25 -25.65 M3.1 -29.4 L3.1 -29.75 Q4.0 -30.65 5.25 -30.65 L5.7 -30.3 5.85 -30.15 5.85 -29.4 5.8 -29.0 Q4.5 -27.4 3.1 -28.8 L3.1 -29.4 M16.0 -21.55 L16.25 -21.6 16.25 -21.65 Q17.35 -21.75 18.2 -21.05 L18.35 -20.9 18.35 -20.7 18.35 -20.5 18.35 -20.4 18.65 -19.8 18.5 -18.9 14.4 -19.05 14.2 -19.2 14.15 -19.4 14.1 -20.3 14.1 -20.5 14.35 -20.65 14.75 -20.85 14.75 -20.9 15.1 -20.85 15.3 -21.15 15.75 -21.4 15.85 -21.5 16.0 -21.55 M20.1 -17.75 L20.5 -18.05 20.75 -18.15 Q21.45 -18.05 22.0 -17.55 L22.1 -17.4 22.1 -17.0 22.1 -16.65 Q21.3 -15.6 20.2 -16.45 L20.1 -17.2 20.1 -17.75 M2.05 -20.5 Q0.9 -19.1 -0.8 -20.2 L-0.85 -20.55 -0.9 -21.15 Q-0.25 -21.85 0.75 -22.1 L0.75 -22.15 Q2.25 -22.15 2.1 -20.7 L2.05 -20.5 M7.35 -12.5 L7.75 -12.6 7.75 -12.65 Q8.65 -12.7 9.2 -11.95 L9.3 -11.75 Q9.2 -9.3 7.2 -10.2 L7.0 -10.15 6.4 -10.35 6.1 -10.65 6.4 -11.6 6.85 -12.25 7.0 -12.3 7.2 -12.35 7.25 -12.35 7.25 -12.4 7.3 -12.4 7.35 -12.5 M1.35 -12.15 Q0.75 -9.1 -2.05 -9.95 L-2.1 -10.15 -2.15 -10.5 -2.15 -10.7 -1.35 -11.85 -0.65 -12.5 -0.5 -12.55 -0.25 -12.6 -0.25 -12.65 Q0.65 -12.9 1.25 -12.3 L1.35 -12.15 M39.3 -14.55 L39.45 -14.6 39.75 -14.65 39.75 -14.7 Q42.1 -13.8 40.4 -11.9 39.45 -10.8 38.6 -12.1 38.1 -13.0 38.6 -13.85 L39.3 -14.55 M28.6 -8.0 L29.0 -8.1 29.0 -8.15 Q30.0 -8.35 30.7 -7.8 L30.85 -7.65 Q31.1 -6.05 30.15 -4.85 L29.25 -4.15 Q28.75 -4.05 28.4 -4.45 L27.85 -5.0 27.85 -5.55 27.85 -6.7 28.0 -6.9 28.1 -7.05 28.1 -7.25 28.1 -7.45 28.25 -7.6 28.45 -7.8 28.6 -8.0 M27.5 -3.65 Q29.3 -2.25 27.15 -0.8 26.6 -0.45 26.2 -0.95 L26.1 -1.9 26.1 -2.25 26.5 -2.6 26.75 -2.8 26.85 -3.0 27.0 -3.4 27.15 -3.45 27.5 -3.6 27.5 -3.65 M51.95 21.7 L51.95 21.85 Q51.2 24.1 49.35 22.95 49.05 21.55 49.95 20.5 L50.3 20.2 50.45 20.15 50.75 20.1 50.75 20.05 Q52.15 20.25 51.95 21.7 M23.7 7.45 L24.25 6.95 24.5 6.85 Q25.2 7.25 25.75 7.95 L25.85 8.1 25.7 9.8 25.6 10.35 Q24.4 11.9 23.1 10.25 23.0 9.05 23.5 7.95 L23.7 7.45 M19.0 0.1 L19.45 0.45 19.6 0.6 19.6 1.0 19.6 1.35 19.5 1.55 19.35 1.75 19.35 1.95 19.35 2.1 18.25 3.35 Q17.75 3.45 17.45 3.05 L17.35 1.95 17.35 1.55 Q17.8 0.4 19.0 0.15 L19.0 0.1 M13.5 7.85 Q14.1 7.75 14.5 8.2 L14.6 8.35 Q14.4 10.75 12.4 10.55 L11.85 10.2 11.85 9.8 11.85 9.25 13.0 8.1 13.1 8.0 13.25 7.95 13.5 7.9 13.5 7.85 M10.3 28.25 Q9.3 29.45 7.9 28.45 L7.7 28.3 7.65 28.1 7.6 27.55 7.6 27.35 7.7 27.2 Q8.0 26.7 8.5 26.65 L8.5 26.6 Q10.4 26.3 10.35 28.05 L10.3 28.25 M19.4 31.55 L19.75 31.4 19.75 31.35 Q20.6 31.35 21.25 31.95 L21.35 32.1 21.25 32.9 20.95 33.45 Q19.95 33.9 19.3 32.95 L19.1 32.75 19.1 32.2 Q19.05 31.85 19.25 31.6 L19.4 31.55 M17.1 36.25 L18.05 35.3 18.35 35.0 18.5 34.95 18.75 34.9 18.75 34.85 Q20.4 35.0 20.15 36.7 L20.1 36.85 Q19.1 38.85 17.5 38.15 L17.25 37.95 17.1 37.75 17.1 37.0 17.1 36.25 M11.2 62.7 L11.2 62.85 Q9.45 64.8 6.65 63.4 5.55 62.8 5.8 61.5 L5.85 61.1 6.0 60.95 Q6.45 60.25 7.25 60.1 L7.25 60.05 Q11.0 59.35 11.2 62.7 M-9.95 -63.8 L-9.75 -63.55 Q-9.4 -62.65 -9.75 -61.75 L-10.0 -60.95 Q-12.55 -58.75 -14.65 -61.05 L-14.75 -61.8 -14.65 -62.4 Q-13.1 -63.8 -11.25 -64.45 -10.45 -64.45 -9.95 -63.8 M-21.9 -24.9 Q-21.7 -22.25 -24.1 -22.45 L-24.65 -22.8 Q-24.7 -23.45 -24.35 -23.95 L-24.15 -24.3 -24.15 -24.5 -24.15 -24.7 -23.65 -25.25 -23.25 -25.35 -23.25 -25.4 Q-22.5 -25.5 -22.0 -25.05 L-21.9 -24.9 M-36.0 -25.7 Q-33.95 -24.95 -35.45 -23.1 -36.1 -22.25 -37.15 -22.75 L-37.65 -23.05 -37.75 -23.8 -37.65 -24.4 Q-37.0 -25.35 -36.0 -25.65 L-36.0 -25.7 M-30.9 -10.0 L-30.9 -10.55 -30.9 -10.75 -30.7 -10.95 -30.65 -11.15 -30.65 -11.3 -30.65 -11.5 -30.45 -11.7 -29.9 -12.25 -29.5 -12.35 -29.5 -12.4 Q-28.75 -12.6 -28.25 -12.05 L-28.15 -11.9 Q-28.0 -9.2 -30.35 -9.45 -30.65 -9.5 -30.9 -9.8 L-30.9 -10.0 M-23.45 -1.2 L-23.15 -1.5 -23.0 -1.55 -22.75 -1.6 -22.75 -1.65 Q-20.75 -1.0 -21.2 1.55 -21.45 3.0 -22.8 3.5 -23.85 3.85 -24.4 2.95 L-24.4 2.75 -24.4 2.55 -24.5 2.35 -24.65 2.2 -24.65 1.8 -24.65 1.05 -24.25 0.3 -24.15 -0.25 -23.45 -1.2 M-15.4 -17.1 L-15.4 -16.95 -15.45 -16.75 -15.75 -16.45 Q-16.85 -16.05 -17.4 -16.9 L-17.3 -17.2 -16.75 -17.65 Q-15.85 -17.85 -15.4 -17.1 M-11.15 -7.0 L-11.15 -7.75 -10.2 -8.45 -9.75 -8.65 Q-8.05 -8.5 -8.45 -6.8 L-8.5 -6.65 Q-9.8 -5.75 -11.05 -6.45 L-11.15 -7.0 M-12.55 -3.3 L-12.4 -3.5 -12.0 -3.6 -12.0 -3.65 Q-11.4 -3.4 -11.2 -2.75 L-11.15 -2.55 Q-11.1 -2.2 -11.45 -2.0 L-11.75 -1.9 Q-12.25 -1.8 -12.55 -2.2 L-12.65 -2.75 -12.65 -3.15 -12.55 -3.3 M-13.4 -1.35 L-13.4 -1.2 -13.6 -0.85 -13.75 -0.7 -14.0 -0.65 Q-14.5 -0.65 -14.65 -1.15 -14.7 -1.6 -14.25 -1.8 L-14.0 -1.9 Q-13.55 -1.8 -13.4 -1.35 M-8.1 11.95 L-8.15 11.55 -7.8 11.2 -7.65 11.0 -7.25 10.9 -7.25 10.85 Q-6.7 11.05 -6.25 11.45 L-6.15 11.6 -6.15 12.0 -6.15 12.35 -6.45 12.7 -6.75 12.85 -8.05 12.3 -8.1 11.95 M-10.05 6.2 L-11.8 6.05 -11.9 4.95 -11.9 4.0 -11.7 3.8 -11.65 3.6 -11.65 3.45 -11.65 3.25 -11.4 3.1 -11.0 2.9 -11.0 2.85 Q-8.4 3.4 -9.95 6.0 L-10.05 6.2 M-18.95 21.75 L-19.25 22.1 -20.0 22.6 -20.55 22.3 -21.3 21.8 -21.45 21.25 -21.65 20.1 -21.55 19.95 -20.75 19.35 Q-18.55 19.3 -18.9 21.55 L-18.95 21.75 M-11.15 22.25 L-11.15 22.05 -11.15 21.7 -11.15 21.5 -10.9 21.35 -10.5 21.15 -10.5 21.1 Q-9.2 21.0 -8.5 22.2 L-8.4 22.35 -8.4 22.55 -8.45 22.95 -8.5 23.1 Q-9.9 23.75 -10.95 22.45 L-11.15 22.25 M-0.65 22.2 L-0.65 22.35 Q-1.45 23.7 -2.8 22.8 L-2.9 22.25 -2.9 21.85 Q-2.55 21.2 -1.75 21.15 L-1.75 21.1 Q-0.7 21.15 -0.65 22.2 M-20.55 10.95 Q-22.0 11.6 -22.65 10.25 L-22.65 9.1 -22.65 8.0 -22.4 7.85 -22.0 7.65 -22.0 7.6 Q-19.4 8.1 -20.45 10.75 L-20.55 10.95 M-61.6 23.75 Q-62.25 26.2 -64.25 24.75 L-64.55 24.35 Q-65.25 21.9 -63.5 20.8 -60.85 21.05 -61.6 23.75" fill="#36536d" fill-rule="evenodd" stroke="none"/>
  </g>
</svg>
