<?xml version="1.0" encoding="UTF-8" standalone="no"?>
<svg xmlns:xlink="http://www.w3.org/1999/xlink" height="127.8px" width="116.0px" xmlns="http://www.w3.org/2000/svg">
  <g transform="matrix(1.0, 0.0, 0.0, 1.0, 64.4, 64.4)">
    <path d="M16.95 -43.45 L17.05 -43.25 17.1 -42.9 17.1 -42.15 Q15.95 -40.55 14.6 -42.05 L14.6 -42.65 14.6 -43.4 15.05 -43.9 15.5 -44.15 Q16.4 -44.2 16.95 -43.45 M11.1 -40.75 L11.15 -40.95 11.25 -41.15 11.4 -41.2 11.75 -41.35 11.75 -41.4 Q14.15 -40.6 12.05 -38.9 11.75 -38.65 11.25 -38.75 10.65 -38.8 10.2 -39.2 L10.15 -39.55 10.1 -40.15 Q10.25 -40.6 10.75 -40.65 L11.1 -40.75 M16.35 -37.95 L16.35 -38.7 17.1 -39.4 17.5 -39.65 Q19.95 -38.9 17.85 -37.1 L16.9 -37.05 16.35 -37.55 16.35 -37.95 M2.5 -45.9 L3.5 -45.3 3.6 -45.15 Q3.2 -43.1 1.45 -43.95 L1.35 -44.5 1.35 -44.9 2.0 -45.65 2.1 -45.75 2.25 -45.8 2.5 -45.85 2.5 -45.9 M3.25 -29.85 L3.6 -30.25 4.0 -30.35 4.0 -30.4 Q4.6 -30.5 5.0 -30.05 L5.1 -29.9 Q4.9 -28.05 3.2 -28.95 L3.15 -29.15 3.1 -29.5 3.1 -29.7 3.25 -29.85 M0.5 -25.65 L1.25 -25.3 1.35 -25.15 1.1 -24.0 1.0 -23.65 0.85 -23.5 0.75 -23.45 0.5 -23.4 -0.05 -23.7 -0.1 -25.0 0.0 -25.4 0.25 -25.55 0.5 -25.65 M16.25 -21.1 L16.25 -21.15 Q17.0 -21.3 17.5 -20.8 L17.6 -20.65 17.65 -20.05 17.55 -19.5 Q16.05 -18.15 15.1 -19.75 L15.45 -20.45 15.85 -21.0 16.0 -21.05 16.25 -21.1 M1.35 -21.15 L1.35 -20.75 1.25 -20.4 -0.3 -20.45 -0.35 -21.0 -0.25 -21.4 0.0 -21.55 0.25 -21.65 Q0.85 -21.75 1.25 -21.3 L1.35 -21.15 M8.6 -11.6 L8.6 -11.45 8.4 -11.1 8.25 -10.95 Q7.45 -10.65 7.1 -11.4 7.05 -11.85 7.5 -12.05 L7.75 -12.15 Q8.35 -12.15 8.6 -11.6 M0.6 -12.15 Q0.55 -11.2 -0.05 -10.5 L-0.5 -10.15 -1.1 -10.3 -1.3 -10.45 -1.4 -11.2 -1.4 -11.95 -1.25 -12.1 -0.9 -12.5 -0.5 -12.6 -0.5 -12.65 Q0.1 -12.75 0.5 -12.3 L0.6 -12.15 M38.85 -13.0 L38.85 -13.4 38.95 -13.55 39.1 -13.75 39.5 -13.85 39.5 -13.9 39.95 -13.55 40.1 -13.4 40.1 -13.0 40.1 -12.65 39.75 -12.3 39.5 -12.15 38.95 -12.45 38.85 -13.0 M22.1 -17.6 L22.1 -17.45 21.9 -17.1 21.75 -16.95 21.5 -16.9 Q21.0 -16.9 20.85 -17.4 20.8 -17.85 21.25 -18.05 L21.5 -18.15 22.1 -17.6 M29.55 -7.7 L30.0 -7.9 Q30.6 -8.0 31.0 -7.55 L31.1 -7.4 Q31.15 -6.55 30.8 -5.85 L30.45 -5.3 Q29.95 -4.95 29.4 -5.3 L29.2 -5.45 29.1 -6.4 29.1 -7.15 29.55 -7.7 M27.5 -3.15 L28.25 -2.8 28.35 -2.65 28.15 -1.85 28.05 -1.5 27.6 -1.05 27.25 -0.9 26.7 -1.2 26.6 -2.15 26.6 -2.5 27.0 -2.9 27.1 -3.0 27.25 -3.05 27.5 -3.1 27.5 -3.15 M50.2 22.3 L50.15 21.75 50.25 21.35 50.4 21.3 50.75 21.15 50.75 21.1 Q51.35 21.25 51.55 21.8 L51.6 22.0 51.55 22.2 51.45 22.35 51.35 22.5 50.4 22.45 50.2 22.3 M23.95 10.05 L23.85 9.1 23.85 8.75 24.25 8.45 24.5 8.35 Q24.95 8.3 25.25 8.7 L25.35 8.85 25.3 9.8 25.2 10.2 23.95 10.05 M19.6 1.9 L19.6 2.05 19.4 2.4 19.25 2.55 19.0 2.6 Q18.5 2.6 18.35 2.1 18.25 1.65 18.75 1.45 L19.0 1.35 Q19.4 1.45 19.6 1.9 M13.25 8.85 L13.7 9.2 13.85 9.35 13.85 9.75 13.75 10.1 13.6 10.2 13.25 10.35 12.7 10.05 12.65 9.5 12.75 9.1 13.0 8.95 13.25 8.85 M19.2 35.7 L19.35 35.85 19.35 37.0 19.35 37.35 Q18.1 38.95 17.1 37.25 17.25 36.5 18.05 36.3 L18.1 36.1 18.1 35.75 18.5 35.45 18.75 35.35 19.2 35.7 M20.0 31.7 L20.25 31.6 Q20.65 31.7 20.85 32.15 L20.85 32.3 20.65 32.65 20.5 32.8 20.25 32.85 Q19.75 32.85 19.6 32.35 19.5 31.9 20.0 31.7 M9.5 27.2 L9.6 27.35 9.6 27.75 9.6 28.1 9.3 28.45 9.0 28.6 Q8.5 28.7 8.2 28.3 L8.1 27.75 8.1 27.35 8.2 27.2 8.35 27.0 8.75 26.9 8.75 26.85 Q9.2 26.8 9.5 27.2 M9.05 63.05 Q8.25 63.75 7.45 63.05 L7.1 62.7 7.1 61.95 7.1 61.0 Q7.4 60.65 7.8 60.5 L8.25 60.35 Q11.35 61.1 9.05 63.05 M-10.35 -62.55 L-10.4 -62.4 -10.8 -61.65 -11.05 -61.05 Q-12.65 -60.45 -13.65 -61.8 L-13.65 -62.0 -13.65 -62.2 -13.65 -62.4 -12.3 -64.05 -12.15 -64.25 -11.75 -64.35 -11.75 -64.4 Q-10.2 -64.25 -10.35 -62.55 M-36.25 -25.15 L-36.15 -25.1 -35.75 -24.8 -35.65 -24.65 -35.65 -24.6 -35.65 -24.45 -35.65 -24.25 -35.75 -23.9 -35.9 -23.8 -36.25 -23.65 -36.35 -23.7 -36.5 -23.65 -37.05 -23.95 -37.1 -24.5 -37.0 -24.9 -36.75 -25.05 -36.5 -25.15 -36.3 -25.1 -36.25 -25.15 M-21.9 -24.9 Q-21.65 -22.65 -23.6 -22.85 L-23.8 -22.95 -23.9 -23.5 -23.9 -24.25 -23.7 -24.45 -23.65 -24.65 -23.65 -24.8 -23.65 -25.0 -23.4 -25.15 -23.0 -25.35 -23.0 -25.4 Q-22.4 -25.5 -22.0 -25.05 L-21.9 -24.9 M-30.65 -10.9 L-30.65 -11.25 Q-30.05 -12.05 -29.25 -12.35 L-29.25 -12.4 Q-28.4 -12.15 -28.4 -11.3 L-28.4 -11.15 Q-29.0 -9.25 -30.55 -9.95 L-30.65 -10.9 M-21.75 -0.3 L-21.65 -0.15 Q-21.35 1.45 -22.75 2.3 L-23.0 2.35 Q-23.6 2.2 -23.9 1.7 L-23.9 0.95 -23.9 0.55 Q-23.55 -0.45 -22.5 -0.6 L-22.5 -0.65 Q-22.05 -0.7 -21.75 -0.3 M-10.65 -7.9 L-10.55 -8.05 -10.4 -8.25 -10.0 -8.35 -10.0 -8.4 Q-9.25 -8.55 -8.75 -8.05 L-8.65 -7.9 Q-8.95 -6.1 -10.55 -6.95 L-10.6 -7.3 -10.65 -7.9 M-11.4 -3.1 L-11.4 -2.95 -11.6 -2.6 -11.75 -2.45 -12.0 -2.4 Q-12.5 -2.4 -12.65 -2.9 -12.7 -3.35 -12.25 -3.55 L-12.0 -3.65 Q-11.55 -3.55 -11.4 -3.1 M-9.65 3.6 L-9.65 4.0 -9.65 4.35 -9.75 4.55 -9.9 4.75 -9.9 5.1 -9.95 5.5 -11.9 5.45 Q-11.95 4.7 -11.5 4.15 L-11.25 3.95 -11.1 3.55 -11.0 3.35 -10.75 3.2 -10.5 3.1 Q-10.05 3.05 -9.75 3.45 L-9.65 3.6 M-6.4 11.65 L-6.4 11.8 -6.6 12.15 -6.75 12.3 Q-7.55 12.6 -7.9 11.85 -7.95 11.4 -7.5 11.2 L-7.25 11.1 Q-6.65 11.1 -6.4 11.65 M-19.65 20.8 L-19.85 21.15 -20.0 21.3 Q-20.8 21.6 -21.15 20.85 -21.2 20.4 -20.75 20.2 L-20.5 20.1 Q-19.9 20.1 -19.65 20.65 L-19.65 20.8 M-10.65 22.5 L-10.65 22.3 -10.65 22.1 -10.0 21.35 -9.9 21.25 -9.75 21.2 -9.5 21.15 -9.5 21.1 Q-9.05 21.05 -8.75 21.45 L-8.65 21.6 -8.7 22.75 -8.75 23.1 Q-9.9 23.8 -10.65 22.7 L-10.65 22.5 M-1.75 21.35 Q-1.15 21.35 -0.9 21.9 L-0.9 22.05 -1.4 22.7 -1.75 22.85 -2.3 22.55 -2.35 22.0 -2.25 21.6 -2.0 21.45 -1.75 21.35 M-20.35 9.7 L-20.4 9.85 Q-21.3 11.3 -22.4 9.95 L-22.4 9.0 -22.4 8.25 -22.15 8.1 -21.75 7.9 -21.75 7.85 Q-20.1 7.95 -20.35 9.7 M-63.25 21.35 Q-60.9 21.55 -62.1 23.5 -62.7 24.55 -63.75 23.9 L-64.3 23.55 -64.35 23.2 -64.4 22.25 -64.2 22.05 -63.65 21.5 -63.25 21.4 -63.25 21.35" fill="#36536d" fill-rule="evenodd" stroke="none"/>
  </g>
</svg>
