<?xml version="1.0" encoding="UTF-8" standalone="no"?>
<svg xmlns:xlink="http://www.w3.org/1999/xlink" height="126.25px" width="95.0px" xmlns="http://www.w3.org/2000/svg">
  <g transform="matrix(1.0, 0.0, 0.0, 1.0, 63.9, 63.65)">
    <path d="M16.25 -45.15 L16.7 -44.8 16.85 -44.65 16.85 -44.25 16.75 -43.9 16.6 -43.8 16.25 -43.65 15.7 -43.95 15.65 -44.5 15.75 -44.9 16.0 -45.05 16.25 -45.15 M11.85 -40.35 L11.85 -40.2 11.65 -39.85 11.5 -39.7 11.25 -39.65 Q10.75 -39.65 10.6 -40.15 10.55 -40.6 11.0 -40.8 L11.25 -40.9 11.85 -40.35 M18.6 -38.1 L18.6 -37.95 18.4 -37.6 18.25 -37.45 18.0 -37.4 Q17.5 -37.4 17.35 -37.9 17.3 -38.35 17.75 -38.55 L18.0 -38.65 18.6 -38.1 M16.75 -20.15 L16.2 -20.45 Q16.1 -20.7 16.15 -21.0 L16.25 -21.4 16.5 -21.55 16.75 -21.65 17.2 -21.3 17.35 -21.15 17.35 -20.75 17.25 -20.4 17.1 -20.3 16.75 -20.15 M0.35 -11.95 L0.15 -11.6 0.0 -11.45 Q-0.8 -11.15 -1.15 -11.9 -1.2 -12.35 -0.75 -12.55 L-0.5 -12.65 Q0.1 -12.65 0.35 -12.1 L0.35 -11.95 M30.25 -7.05 L30.5 -7.15 31.1 -6.6 31.1 -6.45 30.9 -6.1 30.75 -5.95 30.5 -5.9 Q30.0 -5.9 29.85 -6.4 29.75 -6.85 30.25 -7.05 M28.35 -1.45 L28.15 -1.1 28.0 -0.95 27.75 -0.9 Q27.25 -0.9 27.1 -1.4 27.05 -1.85 27.5 -2.05 L27.75 -2.15 28.35 -1.6 28.35 -1.45 M25.15 11.15 L25.0 11.3 24.75 11.35 Q24.25 11.35 24.1 10.85 24.0 10.4 24.5 10.2 L24.75 10.1 25.35 10.65 25.35 10.8 25.15 11.15 M18.5 36.9 L18.5 36.85 18.95 37.2 19.1 37.35 19.1 37.75 19.1 38.1 18.8 38.45 18.5 38.6 17.95 38.3 17.85 37.75 17.85 37.35 17.95 37.2 18.1 37.0 18.5 36.9 M8.85 61.9 L8.85 62.05 8.65 62.4 8.5 62.55 8.25 62.6 Q7.75 62.6 7.6 62.1 7.55 61.65 8.0 61.45 L8.25 61.35 Q8.65 61.45 8.85 61.9 M-11.75 -63.65 L-11.3 -63.3 -11.15 -63.15 -11.15 -62.75 -11.25 -62.4 -11.4 -62.3 -11.75 -62.15 -12.3 -62.45 -12.35 -63.0 -12.25 -63.4 -12.0 -63.55 -11.75 -63.65 M-23.5 -25.15 Q-22.9 -25.15 -22.65 -24.6 L-22.65 -24.45 -22.85 -24.1 -23.0 -23.95 Q-23.8 -23.65 -24.15 -24.4 -24.2 -24.85 -23.75 -25.05 L-23.5 -25.15 M-31.15 -11.15 Q-31.2 -11.6 -30.75 -11.8 L-30.5 -11.9 Q-30.05 -11.8 -29.9 -11.35 L-29.9 -11.2 -30.1 -10.85 -30.25 -10.7 -30.5 -10.65 Q-31.0 -10.65 -31.15 -11.15 M-11.25 5.35 Q-10.8 5.45 -10.65 5.9 L-10.65 6.05 -10.85 6.4 -11.0 6.55 -11.25 6.6 Q-11.75 6.6 -11.9 6.1 -11.95 5.65 -11.5 5.45 L-11.25 5.35 M-8.9 22.9 L-8.9 23.05 -9.1 23.4 -9.25 23.55 -9.5 23.6 Q-10.0 23.6 -10.15 23.1 -10.2 22.65 -9.75 22.45 L-9.5 22.35 Q-9.05 22.45 -8.9 22.9 M-22.5 0.35 Q-22.05 0.45 -21.9 0.9 L-21.9 1.05 -22.1 1.4 -22.25 1.55 -22.5 1.6 Q-23.0 1.6 -23.15 1.1 -23.2 0.65 -22.75 0.45 L-22.5 0.35 M-20.65 9.9 L-20.65 10.05 -20.85 10.4 -21.0 10.55 Q-21.8 10.85 -22.15 10.1 -22.2 9.65 -21.75 9.45 L-21.5 9.35 Q-20.9 9.35 -20.65 9.9 M-62.65 22.65 L-62.65 22.8 -62.85 23.15 -63.0 23.3 -63.25 23.35 Q-63.75 23.35 -63.9 22.85 -63.95 22.4 -63.5 22.2 L-63.25 22.1 Q-62.8 22.2 -62.65 22.65" fill="#36536d" fill-rule="evenodd" stroke="none"/>
  </g>
</svg>
