<?xml version="1.0" encoding="UTF-8" standalone="no"?>
<svg xmlns:xlink="http://www.w3.org/1999/xlink" height="86.6px" width="27.85px" xmlns="http://www.w3.org/2000/svg">
  <g transform="matrix(1.0, 0.0, 0.0, 1.0, 33.35, 19.85)">
    <path d="M-16.8 -1.75 L-12.85 -18.85 -9.5 -18.1 -13.45 -1.1 -13.65 -0.2 -17.0 -0.95 -16.8 -1.75" fill="url(#gradient0)" fill-rule="evenodd" stroke="none"/>
    <path d="M-13.45 -1.1 L-7.35 -0.1 -6.65 0.1 -21.3 65.75 Q-42.65 60.5 -22.75 -2.75 L-16.8 -1.75 -17.0 -0.95 -13.65 -0.2 -13.45 -1.1" fill="url(#gradient1)" fill-rule="evenodd" stroke="none"/>
    <path d="M-16.8 -1.75 L-12.85 -18.85 -9.5 -18.1 -13.45 -1.1 -13.65 -0.2 -17.0 -0.95 -16.8 -1.75" fill="none" stroke="#000000" stroke-linecap="round" stroke-linejoin="round" stroke-width="2.0"/>
    <path d="M-13.45 -1.1 L-7.35 -0.1 M-6.65 0.1 L-6.5 -0.6 M-16.8 -1.75 L-22.75 -2.75 Q-42.65 60.5 -21.3 65.75 L-6.65 0.1" fill="none" stroke="#000000" stroke-linecap="round" stroke-linejoin="round" stroke-width="2.0"/>
  </g>
  <defs>
    <linearGradient gradientTransform="matrix(0.0079, -0.0046, 0.0048, 0.0083, -13.25, -9.5)" gradientUnits="userSpaceOnUse" id="gradient0" spreadMethod="pad" x1="-819.2" x2="819.2">
      <stop offset="0.0" stop-color="#9e5605"/>
      <stop offset="0.7725490196078432" stop-color="#d2b08b"/>
      <stop offset="1.0" stop-color="#ffffff"/>
    </linearGradient>
    <linearGradient gradientTransform="matrix(0.0261, -0.0151, 0.0183, 0.0318, -18.3, 29.35)" gradientUnits="userSpaceOnUse" id="gradient1" spreadMethod="pad" x1="-819.2" x2="819.2">
      <stop offset="0.0" stop-color="#999999"/>
      <stop offset="0.4588235294117647" stop-color="#999999"/>
      <stop offset="1.0" stop-color="#ffffff"/>
    </linearGradient>
  </defs>
</svg>
