<?xml version="1.0" encoding="UTF-8" standalone="no"?>
<svg xmlns:xlink="http://www.w3.org/1999/xlink" height="13.5px" width="34.0px" xmlns="http://www.w3.org/2000/svg">
  <g transform="matrix(1.0, 0.0, 0.0, 1.0, 16.5, 16.5)">
    <path d="M11.8 -13.85 Q16.5 -12.15 16.5 -9.75 16.5 -7.35 11.8 -5.7 7.15 -4.0 0.5 -4.0 -6.15 -4.0 -10.85 -5.7 -15.5 -7.35 -15.5 -9.75 -15.5 -12.15 -10.85 -13.85 -6.15 -15.5 0.5 -15.5 7.15 -15.5 11.8 -13.85" fill="url(#gradient0)" fill-rule="evenodd" stroke="none"/>
    <path d="M11.8 -13.85 Q16.5 -12.15 16.5 -9.75 16.5 -7.35 11.8 -5.7 7.15 -4.0 0.5 -4.0 -6.15 -4.0 -10.85 -5.7 -15.5 -7.35 -15.5 -9.75 -15.5 -12.15 -10.85 -13.85 -6.15 -15.5 0.5 -15.5 7.15 -15.5 11.8 -13.85 Z" fill="none" stroke="#000000" stroke-linecap="round" stroke-linejoin="round" stroke-width="2.0"/>
  </g>
  <defs>
    <radialGradient cx="0" cy="0" gradientTransform="matrix(0.0257, 0.0, 0.0, 0.0196, -6.0, -10.25)" gradientUnits="userSpaceOnUse" id="gradient0" r="819.2" spreadMethod="pad">
      <stop offset="0.3843137254901961" stop-color="#0066ff"/>
      <stop offset="1.0" stop-color="#ffffff"/>
    </radialGradient>
  </defs>
</svg>
