<?xml version="1.0" encoding="UTF-8" standalone="no"?>
<svg xmlns:xlink="http://www.w3.org/1999/xlink" height="17.5px" width="17.5px" xmlns="http://www.w3.org/2000/svg">
  <g transform="matrix(1.0, 0.0, 0.0, 1.0, 7.8, 26.2)">
    <path d="M6.4 -22.95 L6.75 -22.55 Q8.7 -20.4 8.7 -17.45 8.7 -14.25 6.4 -12.0 L6.05 -11.65 Q3.9 -9.7 0.95 -9.7 -2.05 -9.7 -4.25 -11.75 L-4.55 -12.0 Q-6.8 -14.25 -6.8 -17.45 -6.8 -20.3 -4.95 -22.45 L-4.55 -22.95 Q-2.25 -25.2 0.95 -25.2 4.15 -25.2 6.4 -22.95" fill="url(#gradient0)" fill-rule="evenodd" stroke="none"/>
    <path d="M6.4 -22.95 L6.75 -22.55 Q8.7 -20.4 8.7 -17.45 8.7 -14.25 6.4 -12.0 L6.05 -11.65 Q3.9 -9.7 0.95 -9.7 -2.05 -9.7 -4.25 -11.75 L-4.55 -12.0 Q-6.8 -14.25 -6.8 -17.45 -6.8 -20.3 -4.95 -22.45 L-4.55 -22.95 Q-2.25 -25.2 0.95 -25.2 4.15 -25.2 6.4 -22.95 Z" fill="none" stroke="#000000" stroke-linecap="round" stroke-linejoin="round" stroke-width="2.0"/>
  </g>
  <defs>
    <linearGradient gradientTransform="matrix(0.0095, 0.0, 0.0, 0.0095, 0.95, -17.45)" gradientUnits="userSpaceOnUse" id="gradient0" spreadMethod="pad" x1="-819.2" x2="819.2">
      <stop offset="0.0" stop-color="#ffcc99"/>
      <stop offset="0.6901960784313725" stop-color="#ffe6cf"/>
      <stop offset="0.7411764705882353" stop-color="#ffe6cf"/>
      <stop offset="0.792156862745098" stop-color="#ffe6cf"/>
      <stop offset="0.8352941176470589" stop-color="#ffe7d0"/>
      <stop offset="1.0" stop-color="#ffffff"/>
    </linearGradient>
  </defs>
</svg>
