<?xml version="1.0" encoding="UTF-8" standalone="no"?>
<svg xmlns:xlink="http://www.w3.org/1999/xlink" height="71.0px" width="74.95px" xmlns="http://www.w3.org/2000/svg">
  <g transform="matrix(1.0, 0.0, 0.0, 1.0, 57.45, 9.05)">
    <path d="M-14.95 4.8 L-2.95 -8.05 -0.45 -5.75 -12.35 7.0 -13.0 7.7 -15.5 5.4 -14.95 4.8" fill="url(#gradient0)" fill-rule="evenodd" stroke="none"/>
    <path d="M-12.35 7.0 L-7.6 10.95 -7.05 11.45 -52.55 60.95 Q-68.45 45.75 -19.6 0.95 L-14.95 4.8 -15.5 5.4 -13.0 7.7 -12.35 7.0" fill="url(#gradient1)" fill-rule="evenodd" stroke="none"/>
    <path d="M-14.95 4.8 L-2.95 -8.05 -0.45 -5.75 -12.35 7.0 -13.0 7.7 -15.5 5.4 -14.95 4.8" fill="none" stroke="#000000" stroke-linecap="round" stroke-linejoin="round" stroke-width="2.0"/>
    <path d="M-12.35 7.0 L-7.6 10.95 M-7.05 11.45 L-6.6 10.95 M-14.95 4.8 L-19.6 0.95 Q-68.45 45.75 -52.55 60.95 L-7.05 11.45" fill="none" stroke="#000000" stroke-linecap="round" stroke-linejoin="round" stroke-width="2.0"/>
    <path d="M11.8 -3.85 Q16.5 -2.15 16.5 0.25 16.5 2.65 11.8 4.3 7.15 6.0 0.5 6.0 -6.15 6.0 -10.85 4.3 -15.5 2.65 -15.5 0.25 -15.5 -2.15 -10.85 -3.85 -6.15 -5.5 0.5 -5.5 7.15 -5.5 11.8 -3.85" fill="url(#gradient2)" fill-rule="evenodd" stroke="none"/>
    <path d="M11.8 -3.85 Q16.5 -2.15 16.5 0.25 16.5 2.65 11.8 4.3 7.15 6.0 0.5 6.0 -6.15 6.0 -10.85 4.3 -15.5 2.65 -15.5 0.25 -15.5 -2.15 -10.85 -3.85 -6.15 -5.5 0.5 -5.5 7.15 -5.5 11.8 -3.85 Z" fill="none" stroke="#000000" stroke-linecap="round" stroke-linejoin="round" stroke-width="2.0"/>
    <path d="M6.4 -5.45 L6.75 -5.05 Q8.7 -2.9 8.7 0.05 8.7 3.25 6.4 5.5 L6.05 5.85 Q3.9 7.8 0.95 7.8 -2.05 7.8 -4.25 5.75 L-4.55 5.5 Q-6.8 3.25 -6.8 0.05 -6.8 -2.8 -4.95 -4.95 L-4.55 -5.45 Q-2.25 -7.7 0.95 -7.7 4.15 -7.7 6.4 -5.45" fill="url(#gradient3)" fill-rule="evenodd" stroke="none"/>
    <path d="M6.4 -5.45 L6.75 -5.05 Q8.7 -2.9 8.7 0.05 8.7 3.25 6.4 5.5 L6.05 5.85 Q3.9 7.8 0.95 7.8 -2.05 7.8 -4.25 5.75 L-4.55 5.5 Q-6.8 3.25 -6.8 0.05 -6.8 -2.8 -4.95 -4.95 L-4.55 -5.45 Q-2.25 -7.7 0.95 -7.7 4.15 -7.7 6.4 -5.45 Z" fill="none" stroke="#000000" stroke-linecap="round" stroke-linejoin="round" stroke-width="2.0"/>
  </g>
  <defs>
    <linearGradient gradientTransform="matrix(0.0092, 0.0, 0.0, 0.0096, -8.0, -0.15)" gradientUnits="userSpaceOnUse" id="gradient0" spreadMethod="pad" x1="-819.2" x2="819.2">
      <stop offset="0.0" stop-color="#9e5605"/>
      <stop offset="0.7725490196078432" stop-color="#d2b08b"/>
      <stop offset="1.0" stop-color="#ffffff"/>
    </linearGradient>
    <linearGradient gradientTransform="matrix(0.0302, 0.0, 0.0, 0.0367, -31.75, 30.95)" gradientUnits="userSpaceOnUse" id="gradient1" spreadMethod="pad" x1="-819.2" x2="819.2">
      <stop offset="0.0" stop-color="#999999"/>
      <stop offset="0.4588235294117647" stop-color="#999999"/>
      <stop offset="1.0" stop-color="#ffffff"/>
    </linearGradient>
    <radialGradient cx="0" cy="0" gradientTransform="matrix(0.0257, 0.0, 0.0, 0.0196, -6.0, -0.25)" gradientUnits="userSpaceOnUse" id="gradient2" r="819.2" spreadMethod="pad">
      <stop offset="0.3843137254901961" stop-color="#0066ff"/>
      <stop offset="1.0" stop-color="#ffffff"/>
    </radialGradient>
    <linearGradient gradientTransform="matrix(0.0095, 0.0, 0.0, 0.0095, 0.95, 0.05)" gradientUnits="userSpaceOnUse" id="gradient3" spreadMethod="pad" x1="-819.2" x2="819.2">
      <stop offset="0.0" stop-color="#ffcc99"/>
      <stop offset="0.6901960784313725" stop-color="#ffe6cf"/>
      <stop offset="0.7411764705882353" stop-color="#ffe6cf"/>
      <stop offset="0.792156862745098" stop-color="#ffe6cf"/>
      <stop offset="0.8352941176470589" stop-color="#ffe7d0"/>
      <stop offset="1.0" stop-color="#ffffff"/>
    </linearGradient>
  </defs>
</svg>
