<?xml version="1.0" encoding="UTF-8" standalone="no"?>
<svg xmlns:xlink="http://www.w3.org/1999/xlink" height="83.8px" width="36.2px" xmlns="http://www.w3.org/2000/svg">
  <g transform="matrix(1.0, 0.0, 0.0, 1.0, 18.05, 13.45)">
    <path d="M7.1 3.65 L14.0 -12.45 17.15 -11.15 10.3 4.85 9.95 5.7 6.8 4.4 7.1 3.65" fill="url(#gradient0)" fill-rule="evenodd" stroke="none"/>
    <path d="M10.3 4.85 L16.1 6.9 16.8 7.25 -9.05 69.35 Q-29.15 60.5 1.4 1.6 L7.1 3.65 6.8 4.4 9.95 5.7 10.3 4.85" fill="url(#gradient1)" fill-rule="evenodd" stroke="none"/>
    <path d="M7.1 3.65 L14.0 -12.45 17.15 -11.15 10.3 4.85 9.95 5.7 6.8 4.4 7.1 3.65" fill="none" stroke="#000000" stroke-linecap="round" stroke-linejoin="round" stroke-width="2.0"/>
    <path d="M10.3 4.85 L16.1 6.9 M16.8 7.25 L17.05 6.6 M7.1 3.65 L1.4 1.6 Q-29.15 60.5 -9.05 69.35 L16.8 7.25" fill="none" stroke="#000000" stroke-linecap="round" stroke-linejoin="round" stroke-width="2.0"/>
  </g>
  <defs>
    <linearGradient gradientTransform="matrix(0.0086, -0.0031, 0.0033, 0.009, 11.95, -3.4)" gradientUnits="userSpaceOnUse" id="gradient0" spreadMethod="pad" x1="-819.2" x2="819.2">
      <stop offset="0.0" stop-color="#9e5605"/>
      <stop offset="0.7725490196078432" stop-color="#d2b08b"/>
      <stop offset="1.0" stop-color="#ffffff"/>
    </linearGradient>
    <linearGradient gradientTransform="matrix(0.0283, -0.0103, 0.0125, 0.0345, 0.25, 34.0)" gradientUnits="userSpaceOnUse" id="gradient1" spreadMethod="pad" x1="-819.2" x2="819.2">
      <stop offset="0.0" stop-color="#999999"/>
      <stop offset="0.4588235294117647" stop-color="#999999"/>
      <stop offset="1.0" stop-color="#ffffff"/>
    </linearGradient>
  </defs>
</svg>
