<?xml version="1.0" encoding="UTF-8" standalone="no"?>
<svg xmlns:xlink="http://www.w3.org/1999/xlink" height="37.5px" width="81.05px" xmlns="http://www.w3.org/2000/svg">
  <g transform="matrix(1.0, 0.0, 0.0, 1.0, 82.95, -5.2)">
    <path d="M-20.7 11.8 L-3.95 6.7 -2.9 9.95 -19.55 15.05 -20.45 15.35 -21.5 12.1 -20.7 11.8" fill="url(#gradient0)" fill-rule="evenodd" stroke="none"/>
    <path d="M-19.55 15.05 L-17.45 20.85 -17.25 21.55 -81.4 41.7 Q-87.55 20.55 -22.85 6.2 L-20.7 11.8 -21.5 12.1 -20.45 15.35 -19.55 15.05" fill="url(#gradient1)" fill-rule="evenodd" stroke="none"/>
    <path d="M-20.7 11.8 L-3.95 6.7 -2.9 9.95 -19.55 15.05 -20.45 15.35 -21.5 12.1 -20.7 11.8" fill="none" stroke="#000000" stroke-linecap="round" stroke-linejoin="round" stroke-width="2.0"/>
    <path d="M-19.55 15.05 L-17.45 20.85 M-17.25 21.55 L-16.6 21.35 M-20.7 11.8 L-22.85 6.2 Q-87.55 20.55 -81.4 41.7 L-17.25 21.55" fill="none" stroke="#000000" stroke-linecap="round" stroke-linejoin="round" stroke-width="2.0"/>
  </g>
  <defs>
    <linearGradient gradientTransform="matrix(0.0079, 0.0046, -0.0048, 0.0083, -12.25, 11.05)" gradientUnits="userSpaceOnUse" id="gradient0" spreadMethod="pad" x1="-819.2" x2="819.2">
      <stop offset="0.0" stop-color="#9e5605"/>
      <stop offset="0.7725490196078432" stop-color="#d2b08b"/>
      <stop offset="1.0" stop-color="#ffffff"/>
    </linearGradient>
    <linearGradient gradientTransform="matrix(0.0261, 0.0151, -0.0183, 0.0318, -48.4, 26.1)" gradientUnits="userSpaceOnUse" id="gradient1" spreadMethod="pad" x1="-819.2" x2="819.2">
      <stop offset="0.0" stop-color="#999999"/>
      <stop offset="0.4588235294117647" stop-color="#999999"/>
      <stop offset="1.0" stop-color="#ffffff"/>
    </linearGradient>
  </defs>
</svg>
