<?xml version="1.0" encoding="UTF-8" standalone="no"?>
<svg xmlns:xlink="http://www.w3.org/1999/xlink" height="17.5px" width="17.5px" xmlns="http://www.w3.org/2000/svg">
  <g transform="matrix(1.0, 0.0, 0.0, 1.0, 7.8, -8.8)">
    <path d="M6.4 12.05 L6.75 12.45 Q8.7 14.6 8.7 17.55 8.7 20.75 6.4 23.0 L6.05 23.35 Q3.9 25.3 0.95 25.3 -2.05 25.3 -4.25 23.25 L-4.55 23.0 Q-6.8 20.75 -6.8 17.55 -6.8 14.7 -4.95 12.55 L-4.55 12.05 Q-2.25 9.8 0.95 9.8 4.15 9.8 6.4 12.05" fill="url(#gradient0)" fill-rule="evenodd" stroke="none"/>
    <path d="M6.4 12.05 L6.75 12.45 Q8.7 14.6 8.7 17.55 8.7 20.75 6.4 23.0 L6.05 23.35 Q3.9 25.3 0.95 25.3 -2.05 25.3 -4.25 23.25 L-4.55 23.0 Q-6.8 20.75 -6.8 17.55 -6.8 14.7 -4.95 12.55 L-4.55 12.05 Q-2.25 9.8 0.95 9.8 4.15 9.8 6.4 12.05 Z" fill="none" stroke="#000000" stroke-linecap="round" stroke-linejoin="round" stroke-width="2.0"/>
  </g>
  <defs>
    <linearGradient gradientTransform="matrix(0.0095, 0.0, 0.0, 0.0095, 0.95, 17.55)" gradientUnits="userSpaceOnUse" id="gradient0" spreadMethod="pad" x1="-819.2" x2="819.2">
      <stop offset="0.0" stop-color="#ffcc99"/>
      <stop offset="0.6901960784313725" stop-color="#ffe6cf"/>
      <stop offset="0.7411764705882353" stop-color="#ffe6cf"/>
      <stop offset="0.792156862745098" stop-color="#ffe6cf"/>
      <stop offset="0.8352941176470589" stop-color="#ffe7d0"/>
      <stop offset="1.0" stop-color="#ffffff"/>
    </linearGradient>
  </defs>
</svg>
