<?xml version="1.0" encoding="UTF-8" standalone="no"?>
<svg xmlns:xlink="http://www.w3.org/1999/xlink" height="20.8px" width="86.75px" xmlns="http://www.w3.org/2000/svg">
  <g transform="matrix(1.0, 0.0, 0.0, 1.0, 89.35, 12.15)">
    <path d="M-21.1 -2.7 L-3.6 -1.7 -3.75 1.65 -21.15 0.7 -22.1 0.65 -21.95 -2.75 -21.1 -2.7" fill="url(#gradient0)" fill-rule="evenodd" stroke="none"/>
    <path d="M-21.15 0.7 L-21.1 6.9 -21.15 7.65 -88.35 4.55 Q-86.9 -17.4 -21.15 -8.7 L-21.1 -2.7 -21.95 -2.75 -22.1 0.65 -21.15 0.7" fill="url(#gradient1)" fill-rule="evenodd" stroke="none"/>
    <path d="M-21.1 -2.7 L-3.6 -1.7 -3.75 1.65 -21.15 0.7 -22.1 0.65 -21.95 -2.75 -21.1 -2.7" fill="none" stroke="#000000" stroke-linecap="round" stroke-linejoin="round" stroke-width="2.0"/>
    <path d="M-21.15 0.7 L-21.1 6.9 M-21.15 7.65 L-20.45 7.65 M-21.1 -2.7 L-21.15 -8.7 Q-86.9 -17.4 -88.35 4.55 L-21.15 7.65" fill="none" stroke="#000000" stroke-linecap="round" stroke-linejoin="round" stroke-width="2.0"/>
  </g>
  <defs>
    <linearGradient gradientTransform="matrix(0.0059, 0.007, -0.0073, 0.0062, -12.85, -0.6)" gradientUnits="userSpaceOnUse" id="gradient0" spreadMethod="pad" x1="-819.2" x2="819.2">
      <stop offset="0.0" stop-color="#9e5605"/>
      <stop offset="0.7725490196078432" stop-color="#d2b08b"/>
      <stop offset="1.0" stop-color="#ffffff"/>
    </linearGradient>
    <linearGradient gradientTransform="matrix(0.0194, 0.0231, -0.028, 0.0235, -52.0, 1.2)" gradientUnits="userSpaceOnUse" id="gradient1" spreadMethod="pad" x1="-819.2" x2="819.2">
      <stop offset="0.0" stop-color="#999999"/>
      <stop offset="0.4588235294117647" stop-color="#999999"/>
      <stop offset="1.0" stop-color="#ffffff"/>
    </linearGradient>
  </defs>
</svg>
