<?xml version="1.0" encoding="UTF-8" standalone="no"?>
<svg xmlns:xlink="http://www.w3.org/1999/xlink" height="70.95px" width="58.05px" xmlns="http://www.w3.org/2000/svg">
  <g transform="matrix(1.0, 0.0, 0.0, 1.0, 63.0, 1.2)">
    <path d="M-20.45 12.6 L-8.45 -0.2 -5.95 2.1 -17.85 14.8 -18.5 15.5 -21.0 13.2 -20.45 12.6" fill="url(#gradient0)" fill-rule="evenodd" stroke="none"/>
    <path d="M-17.85 14.8 L-13.1 18.75 -12.55 19.25 -58.1 68.75 Q-74.0 53.55 -25.1 8.75 L-20.45 12.6 -21.0 13.2 -18.5 15.5 -17.85 14.8" fill="url(#gradient1)" fill-rule="evenodd" stroke="none"/>
    <path d="M-20.45 12.6 L-8.45 -0.2 -5.95 2.1 -17.85 14.8 -18.5 15.5 -21.0 13.2 -20.45 12.6" fill="none" stroke="#000000" stroke-linecap="round" stroke-linejoin="round" stroke-width="2.0"/>
    <path d="M-17.85 14.8 L-13.1 18.75 M-12.55 19.25 L-12.1 18.75 M-20.45 12.6 L-25.1 8.75 Q-74.0 53.55 -58.1 68.75 L-12.55 19.25" fill="none" stroke="#000000" stroke-linecap="round" stroke-linejoin="round" stroke-width="2.0"/>
  </g>
  <defs>
    <linearGradient gradientTransform="matrix(0.0092, 0.0, 0.0, 0.0096, -13.5, 7.65)" gradientUnits="userSpaceOnUse" id="gradient0" spreadMethod="pad" x1="-819.2" x2="819.2">
      <stop offset="0.0" stop-color="#9e5605"/>
      <stop offset="0.7725490196078432" stop-color="#d2b08b"/>
      <stop offset="1.0" stop-color="#ffffff"/>
    </linearGradient>
    <linearGradient gradientTransform="matrix(0.0302, 0.0, 0.0, 0.0366, -37.3, 38.75)" gradientUnits="userSpaceOnUse" id="gradient1" spreadMethod="pad" x1="-819.2" x2="819.2">
      <stop offset="0.0" stop-color="#999999"/>
      <stop offset="0.4588235294117647" stop-color="#999999"/>
      <stop offset="1.0" stop-color="#ffffff"/>
    </linearGradient>
  </defs>
</svg>
