<?xml version="1.0" encoding="UTF-8" standalone="no"?>
<svg xmlns:xlink="http://www.w3.org/1999/xlink" height="17.5px" width="17.5px" xmlns="http://www.w3.org/2000/svg">
  <g transform="matrix(1.0, 0.0, 0.0, 1.0, 9.8, 12.7)">
    <path d="M4.4 -9.45 L4.75 -9.05 Q6.7 -6.9 6.7 -3.95 6.7 -0.75 4.4 1.5 L4.05 1.85 Q1.9 3.8 -1.05 3.8 -4.05 3.8 -6.25 1.75 L-6.55 1.5 Q-8.8 -0.75 -8.8 -3.95 -8.8 -6.8 -6.95 -8.95 L-6.55 -9.45 Q-4.25 -11.7 -1.05 -11.7 2.15 -11.7 4.4 -9.45" fill="url(#gradient0)" fill-rule="evenodd" stroke="none"/>
    <path d="M4.4 -9.45 L4.75 -9.05 Q6.7 -6.9 6.7 -3.95 6.7 -0.75 4.4 1.5 L4.05 1.85 Q1.9 3.8 -1.05 3.8 -4.05 3.8 -6.25 1.75 L-6.55 1.5 Q-8.8 -0.75 -8.8 -3.95 -8.8 -6.8 -6.95 -8.95 L-6.55 -9.45 Q-4.25 -11.7 -1.05 -11.7 2.15 -11.7 4.4 -9.45 Z" fill="none" stroke="#000000" stroke-linecap="round" stroke-linejoin="round" stroke-width="2.0"/>
  </g>
  <defs>
    <linearGradient gradientTransform="matrix(0.0095, 0.0, 0.0, 0.0095, -1.05, -3.95)" gradientUnits="userSpaceOnUse" id="gradient0" spreadMethod="pad" x1="-819.2" x2="819.2">
      <stop offset="0.0" stop-color="#ffcc99"/>
      <stop offset="0.6901960784313725" stop-color="#ffe6cf"/>
      <stop offset="0.7411764705882353" stop-color="#ffe6cf"/>
      <stop offset="0.792156862745098" stop-color="#ffe6cf"/>
      <stop offset="0.8352941176470589" stop-color="#ffe7d0"/>
      <stop offset="1.0" stop-color="#ffffff"/>
    </linearGradient>
  </defs>
</svg>
