<?xml version="1.0" encoding="UTF-8" standalone="no"?>
<svg xmlns:xlink="http://www.w3.org/1999/xlink" height="84.9px" width="26.7px" xmlns="http://www.w3.org/2000/svg">
  <g transform="matrix(1.0, 0.0, 0.0, 1.0, 15.35, 3.2)">
    <path d="M-8.4 15.65 L-10.5 -1.75 -7.15 -2.2 -5.05 15.05 -4.9 16.0 -8.35 16.5 -8.4 15.65" fill="url(#gradient0)" fill-rule="evenodd" stroke="none"/>
    <path d="M-5.05 15.05 L1.0 13.95 1.75 13.9 10.35 80.6 Q-11.5 83.05 -14.35 16.75 L-8.4 15.65 -8.35 16.5 -4.9 16.0 -5.05 15.05" fill="url(#gradient1)" fill-rule="evenodd" stroke="none"/>
    <path d="M-8.4 15.65 L-10.5 -1.75 -7.15 -2.2 -5.05 15.05 -4.9 16.0 -8.35 16.5 -8.4 15.65" fill="none" stroke="#000000" stroke-linecap="round" stroke-linejoin="round" stroke-width="2.0"/>
    <path d="M-5.05 15.05 L1.0 13.95 M1.75 13.9 L1.65 13.2 M-8.4 15.65 L-14.35 16.75 Q-11.5 83.05 10.35 80.6 L1.75 13.9" fill="none" stroke="#000000" stroke-linecap="round" stroke-linejoin="round" stroke-width="2.0"/>
  </g>
  <defs>
    <linearGradient gradientTransform="matrix(0.0059, -0.007, 0.0073, 0.0062, -7.75, 7.15)" gradientUnits="userSpaceOnUse" id="gradient0" spreadMethod="pad" x1="-819.2" x2="819.2">
      <stop offset="0.0" stop-color="#9e5605"/>
      <stop offset="0.7725490196078432" stop-color="#d2b08b"/>
      <stop offset="1.0" stop-color="#ffffff"/>
    </linearGradient>
    <linearGradient gradientTransform="matrix(0.0194, -0.0231, 0.028, 0.0235, 0.8, 45.35)" gradientUnits="userSpaceOnUse" id="gradient1" spreadMethod="pad" x1="-819.2" x2="819.2">
      <stop offset="0.0" stop-color="#999999"/>
      <stop offset="0.4588235294117647" stop-color="#999999"/>
      <stop offset="1.0" stop-color="#ffffff"/>
    </linearGradient>
  </defs>
</svg>
