<?xml version="1.0" encoding="UTF-8" standalone="no"?>
<svg xmlns:xlink="http://www.w3.org/1999/xlink" height="17.4px" width="32.35px" xmlns="http://www.w3.org/2000/svg">
  <g transform="matrix(1.0, 0.0, 0.0, 1.0, 15.65, 8.45)">
    <path d="M9.75 -7.45 Q14.7 -7.45 15.55 -5.2 16.35 -2.95 12.5 0.2 8.7 3.4 2.45 5.7 -3.8 7.95 -8.8 7.95 -13.7 8.0 -14.5 5.75 -15.35 3.5 -11.55 0.3 -7.75 -2.85 -1.5 -5.1 4.75 -7.4 9.75 -7.45" fill="url(#gradient0)" fill-rule="evenodd" stroke="none"/>
    <path d="M9.75 -7.45 Q14.7 -7.45 15.55 -5.2 16.35 -2.95 12.5 0.2 8.7 3.4 2.45 5.7 -3.8 7.95 -8.8 7.95 -13.7 8.0 -14.5 5.75 -15.35 3.5 -11.55 0.3 -7.75 -2.85 -1.5 -5.1 4.75 -7.4 9.75 -7.45 Z" fill="none" stroke="#000000" stroke-linecap="round" stroke-linejoin="round" stroke-width="2.0"/>
  </g>
  <defs>
    <radialGradient cx="0" cy="0" gradientTransform="matrix(0.0241, -0.0088, 0.0067, 0.0184, -5.8, 2.0)" gradientUnits="userSpaceOnUse" id="gradient0" r="819.2" spreadMethod="pad">
      <stop offset="0.3843137254901961" stop-color="#0066ff"/>
      <stop offset="1.0" stop-color="#ffffff"/>
    </radialGradient>
  </defs>
</svg>
