<?xml version="1.0" encoding="UTF-8" standalone="no"?>
<svg xmlns:xlink="http://www.w3.org/1999/xlink" height="17.4px" width="32.35px" xmlns="http://www.w3.org/2000/svg">
  <g transform="matrix(1.0, 0.0, 0.0, 1.0, 32.55, 8.5)">
    <path d="M-7.15 -7.5 Q-2.2 -7.5 -1.35 -5.25 -0.55 -3.0 -4.4 0.15 -8.2 3.35 -14.45 5.65 -20.7 7.9 -25.7 7.9 -30.6 7.95 -31.4 5.7 -32.25 3.45 -28.45 0.25 -24.65 -2.9 -18.4 -5.15 -12.15 -7.45 -7.15 -7.5" fill="url(#gradient0)" fill-rule="evenodd" stroke="none"/>
    <path d="M-7.15 -7.5 Q-2.2 -7.5 -1.35 -5.25 -0.55 -3.0 -4.4 0.15 -8.2 3.35 -14.45 5.65 -20.7 7.9 -25.7 7.9 -30.6 7.95 -31.4 5.7 -32.25 3.45 -28.45 0.25 -24.65 -2.9 -18.4 -5.15 -12.15 -7.45 -7.15 -7.5 Z" fill="none" stroke="#000000" stroke-linecap="round" stroke-linejoin="round" stroke-width="2.0"/>
  </g>
  <defs>
    <radialGradient cx="0" cy="0" gradientTransform="matrix(0.0241, -0.0088, 0.0067, 0.0184, -22.7, 1.95)" gradientUnits="userSpaceOnUse" id="gradient0" r="819.2" spreadMethod="pad">
      <stop offset="0.3843137254901961" stop-color="#0066ff"/>
      <stop offset="1.0" stop-color="#ffffff"/>
    </radialGradient>
  </defs>
</svg>
