<?xml version="1.0" encoding="UTF-8" standalone="no"?>
<svg xmlns:xlink="http://www.w3.org/1999/xlink" height="17.55px" width="17.55px" xmlns="http://www.w3.org/2000/svg">
  <g transform="matrix(1.0, 0.0, 0.0, 1.0, -20.6, 9.5)">
    <path d="M36.85 -2.8 L36.95 -2.25 Q37.55 0.55 36.1 3.15 34.5 5.9 31.35 6.7 L30.9 6.85 Q28.05 7.45 25.45 6.0 22.85 4.5 22.0 1.6 L21.85 1.25 Q21.05 -1.85 22.65 -4.6 24.05 -7.1 26.75 -8.0 L27.35 -8.25 Q30.45 -9.05 33.2 -7.45 36.0 -5.85 36.85 -2.8" fill="url(#gradient0)" fill-rule="evenodd" stroke="none"/>
    <path d="M36.85 -2.8 L36.95 -2.25 Q37.55 0.55 36.1 3.15 34.5 5.9 31.35 6.7 L30.9 6.85 Q28.05 7.45 25.45 6.0 22.85 4.5 22.0 1.6 L21.85 1.25 Q21.05 -1.85 22.65 -4.6 24.05 -7.1 26.75 -8.0 L27.35 -8.25 Q30.45 -9.05 33.2 -7.45 36.0 -5.85 36.85 -2.8 Z" fill="none" stroke="#000000" stroke-linecap="round" stroke-linejoin="round" stroke-width="2.0"/>
  </g>
  <defs>
    <linearGradient gradientTransform="matrix(0.0082, 0.0047, -0.0047, 0.0082, 29.35, -0.7)" gradientUnits="userSpaceOnUse" id="gradient0" spreadMethod="pad" x1="-819.2" x2="819.2">
      <stop offset="0.0" stop-color="#ffcc99"/>
      <stop offset="0.6901960784313725" stop-color="#ffe6cf"/>
      <stop offset="0.7411764705882353" stop-color="#ffe6cf"/>
      <stop offset="0.792156862745098" stop-color="#ffe6cf"/>
      <stop offset="0.8352941176470589" stop-color="#ffe7d0"/>
      <stop offset="1.0" stop-color="#ffffff"/>
    </linearGradient>
  </defs>
</svg>
