<?xml version="1.0" encoding="UTF-8" standalone="no"?>
<svg xmlns:xlink="http://www.w3.org/1999/xlink" height="46.0px" width="46.5px" xmlns="http://www.w3.org/2000/svg">
  <g transform="matrix(1.0, 0.0, 0.0, 1.0, 23.25, 23.0)">
    <path d="M16.05 -15.9 Q22.75 -9.3 22.75 0.0 22.75 9.3 16.05 15.9 9.4 22.5 0.0 22.5 -9.4 22.5 -16.1 15.9 -22.75 9.3 -22.75 0.0 -22.75 -9.3 -16.1 -15.9 -9.4 -22.5 0.0 -22.5 9.4 -22.5 16.05 -15.9 Z" fill="none" stroke="#000000" stroke-linecap="round" stroke-linejoin="round" stroke-width="1.0"/>
    <path d="M16.4 -12.4 Q16.1 -12.85 15.65 -12.95 13.0 -13.6 11.5 -15.55 10.1 -17.35 7.95 -17.5 L3.35 -18.0 0.05 -18.65 -0.7 -18.85 -4.05 -19.4 Q-6.2 -19.45 -8.3 -18.5 L-9.55 -18.05 Q-11.7 -17.55 -13.65 -16.65 L-15.0 -15.45 Q-15.5 -14.65 -15.55 -13.55 -15.65 -12.7 -16.2 -12.1 L-16.15 -12.1 Q-16.85 -11.35 -17.0 -10.55 -17.25 -9.5 -16.6 -8.45 L-14.4 -4.2 -14.35 -4.15 Q-14.2 -3.35 -13.85 -2.85 L-13.8 -2.8 -13.75 -2.75 Q-13.3 -2.25 -12.5 -2.1 L-12.3 -2.05 -12.25 -2.05 -12.2 -2.05 Q-10.25 -1.6 -8.35 -2.0 L-6.4 -2.05 -6.3 -2.05 -6.2 -2.05 -6.15 -2.05 Q-5.3 -1.85 -4.55 -1.45 L-4.05 -1.1 -3.9 -1.0 -3.8 -0.8 -3.85 -0.6 Q-3.95 -0.5 -4.05 -0.5 L-4.3 -0.55 Q-5.2 -1.25 -6.25 -1.45 L-6.3 -1.45 -6.4 -1.25 -6.25 -1.2 Q-4.75 -0.1 -4.05 1.95 L-3.85 2.55 Q-3.25 4.85 -2.95 7.25 -2.65 9.65 -3.9 11.8 L-4.0 11.95 -4.05 12.05 -5.2 13.55 -5.35 13.65 -5.35 13.7 -5.4 13.75 -5.8 14.1 -5.85 14.15 -5.75 14.15 -5.7 14.1 -5.35 14.0 -5.2 13.9 -5.0 13.8 -4.85 13.75 -4.9 13.8 -5.1 14.2 -5.15 14.25 -6.2 15.35 -6.25 15.55 -6.25 15.7 -6.4 15.7 -6.55 15.85 -6.6 16.1 -6.5 16.25 -6.25 16.3 -5.5 16.15 -5.95 16.9 -6.0 17.0 -6.05 17.05 -6.15 17.1 -6.7 17.8 -6.75 18.05 -6.6 18.2 -6.45 18.25 -6.25 18.25 -6.15 18.2 -5.75 18.05 -5.8 18.05 -5.3 17.95 -5.25 17.9 -4.85 17.75 Q-5.05 18.7 -5.6 19.55 L-5.65 19.75 -5.55 19.95 -5.4 20.05 -5.25 20.0 -3.55 19.0 -3.5 19.0 Q-3.3 18.85 -3.1 18.85 L-2.65 18.7 -2.7 20.0 -2.7 20.05 -2.75 20.15 -2.85 20.35 -2.75 20.55 -2.55 20.65 -2.1 20.5 -1.8 20.15 -1.2 19.3 -1.1 19.25 -1.1 19.55 -1.1 19.6 -0.9 20.55 -0.85 20.95 -0.85 21.25 -0.75 21.45 -0.6 21.55 -0.35 21.5 0.4 20.15 0.35 20.15 0.6 19.5 0.55 19.55 0.75 19.0 1.2 20.6 1.55 21.1 1.9 21.35 2.0 21.5 2.1 21.65 2.3 21.65 2.45 21.55 2.7 21.1 2.75 20.55 2.95 20.85 3.7 21.7 3.85 21.85 4.05 21.8 4.2 21.7 4.25 21.55 4.25 19.4 4.6 19.9 4.65 19.95 Q5.25 20.85 6.4 20.65 L6.6 20.5 6.65 20.3 6.35 18.2 6.35 17.8 6.55 18.15 6.6 18.2 7.8 18.7 8.15 18.8 8.35 18.85 8.5 18.7 8.55 18.55 8.55 18.35 8.55 18.25 7.95 17.2 7.85 17.0 7.8 16.9 8.1 17.2 8.5 17.4 9.05 17.45 9.2 17.4 9.35 17.2 9.3 17.05 8.75 15.95 8.7 15.8 8.5 15.25 8.45 15.2 8.4 15.05 8.3 14.65 8.25 14.5 9.8 13.15 9.75 12.95 9.85 12.75 9.95 12.55 10.1 12.25 10.15 12.15 10.5 11.9 10.75 11.75 10.85 11.55 10.85 11.6 Q10.9 11.25 11.1 11.05 L11.2 10.95 11.3 10.9 11.3 10.85 12.15 10.2 12.3 10.05 12.35 9.95 Q13.1 8.75 14.35 8.45 L14.35 8.5 14.4 8.4 14.4 8.35 Q14.75 7.3 15.5 7.0 L16.1 6.4 16.15 6.35 16.25 6.2 16.35 6.1 16.5 5.9 16.55 5.9 16.8 5.6 16.85 5.5 Q17.35 4.8 18.2 4.45 L18.25 4.4 18.65 3.5 18.75 3.4 19.1 3.2 19.25 3.1 19.7 2.9 Q20.15 2.65 20.7 2.35 L20.75 2.35 20.85 2.3 20.9 2.25 21.05 2.0 21.05 1.75 20.6 2.15 20.55 2.15 19.95 2.35 19.55 2.45 19.5 2.45 19.2 2.55 18.95 2.9 18.65 3.3 18.25 3.7 18.3 3.7 Q17.85 3.85 17.7 4.25 L17.3 4.8 17.35 4.8 16.1 5.4 16.05 5.4 15.75 5.4 15.45 5.45 15.4 5.5 15.3 5.7 Q15.1 6.45 14.7 6.6 L14.35 6.85 13.85 7.5 13.55 7.85 13.3 8.0 13.0 8.05 12.65 8.35 12.35 8.75 12.1 8.9 11.8 8.95 Q11.45 9.0 11.3 9.45 L11.05 9.85 11.0 9.9 10.65 10.1 10.1 10.7 Q10.15 11.0 9.7 11.05 L9.2 11.15 9.0 11.15 8.9 11.05 8.3 11.5 7.5 11.15 7.45 11.25 7.25 11.35 7.05 11.25 6.95 11.05 6.95 10.55 6.95 10.5 7.15 9.85 7.2 9.8 7.2 9.65 7.2 9.6 7.4 8.95 7.45 8.85 7.55 8.65 7.8 8.2 7.8 8.15 8.15 7.55 8.3 6.75 8.3 6.7 8.4 6.25 Q8.35 5.75 8.7 5.6 9.5 4.95 9.7 4.1 L9.75 4.0 9.85 3.8 9.85 3.75 10.55 2.65 10.45 2.6 Q10.15 3.15 9.6 3.05 L9.35 3.25 9.1 4.0 8.75 4.5 8.7 4.55 8.6 4.7 8.6 4.65 8.5 4.9 Q8.25 6.2 7.05 6.7 L7.05 6.75 6.9 7.1 6.9 7.05 6.5 8.1 6.5 8.35 6.5 8.45 6.5 8.7 6.45 8.9 6.3 9.0 5.8 9.05 5.6 9.05 5.45 8.8 5.1 8.8 5.1 8.9 5.1 9.15 5.15 9.25 5.15 9.5 5.25 9.7 5.3 10.0 5.65 10.85 5.65 10.9 5.75 11.05 5.9 11.3 5.9 11.35 5.95 11.35 6.15 11.65 6.15 11.7 6.2 11.75 6.3 11.9 6.3 11.95 6.45 12.1 6.7 12.5 6.8 12.55 6.9 12.7 6.95 12.8 7.0 12.85 7.5 13.5 7.75 13.75 7.85 13.9 7.9 13.9 7.8 13.9 7.35 14.1 7.3 14.15 7.05 13.9 7.0 13.85 6.55 13.25 6.5 13.2 6.45 13.1 6.3 12.95 6.25 12.85 6.2 12.85 6.0 12.5 5.8 12.25 5.7 12.1 5.55 11.8 5.45 11.75 5.4 11.6 5.3 11.5 5.1 11.05 5.1 11.1 4.7 10.15 4.75 10.15 4.65 9.85 4.6 9.7 4.55 9.25 4.5 8.9 4.4 7.75 Q4.45 5.6 4.65 3.5 4.85 1.2 5.9 -0.8 L6.0 -0.9 Q4.65 -1.05 3.8 -0.2 L3.6 -0.1 3.35 -0.2 3.3 -0.4 3.35 -0.65 Q4.45 -1.7 6.15 -1.5 L6.3 -1.5 7.0 -1.4 7.3 -1.45 9.3 -2.1 9.3 -2.05 9.6 -2.2 11.3 -2.65 Q12.75 -2.95 13.25 -4.15 13.6 -5.05 14.55 -5.35 16.75 -5.9 17.15 -8.2 L17.2 -9.65 Q17.1 -11.1 16.4 -12.45 L16.4 -12.4 M0.75 -2.3 L0.75 -2.15 0.5 -2.05 -1.8 -2.2 -1.75 -2.35 -1.5 -2.55 0.6 -2.5 0.75 -2.3 M6.85 -3.5 L7.95 -2.9 8.05 -2.75 7.95 -2.6 7.75 -2.45 7.0 -2.7 6.55 -2.8 6.45 -2.65 6.3 -2.45 6.1 -2.25 4.95 -2.45 5.1 -2.65 5.8 -2.95 6.4 -3.45 6.85 -3.5 M15.8 -7.05 L15.35 -6.5 14.45 -6.7 Q14.55 -7.2 15.25 -7.2 L15.6 -7.25 15.8 -7.05 M12.6 -5.25 L12.8 -5.05 12.25 -4.35 12.0 -4.2 11.2 -4.45 Q11.15 -4.75 11.5 -4.85 L11.95 -4.95 12.0 -5.1 12.25 -5.3 12.6 -5.25 M12.4 -0.5 L12.35 -0.5 12.3 -0.5 12.1 -0.35 11.7 0.4 11.65 0.45 11.55 0.55 11.55 0.65 11.55 0.75 11.9 0.95 12.2 0.8 12.3 0.65 12.45 0.5 12.6 0.35 12.65 0.05 12.4 -0.5 M-20.45 10.0 Q-22.75 5.45 -22.75 0.0 -22.75 -9.3 -16.1 -15.9 -9.4 -22.5 0.0 -22.5 9.4 -22.5 16.05 -15.9 22.75 -9.3 22.75 0.0 22.75 9.3 16.05 15.9 9.4 22.5 0.0 22.5 -9.4 22.5 -16.1 15.9 -18.1 13.9 -19.5 11.7 L-19.3 11.65 -17.25 12.2 -16.95 12.25 -15.7 12.45 -14.75 13.25 -14.7 13.25 -14.5 13.4 -14.25 13.55 Q-13.85 13.65 -13.5 14.05 L-13.45 14.1 -13.4 14.1 -12.7 14.2 -12.65 14.25 -12.45 14.3 -12.35 14.25 -12.2 14.15 -12.0 14.2 -11.85 14.35 -11.45 14.6 -11.35 14.6 -11.1 14.5 -10.95 14.65 -10.9 14.8 -7.45 14.75 -7.45 14.65 -7.35 14.5 -6.35 13.75 -6.2 13.65 -5.85 13.3 -5.85 13.25 -6.25 12.75 -6.35 12.8 -6.55 12.8 -6.9 12.6 -6.95 12.55 -7.15 12.45 -7.1 12.5 Q-7.6 12.4 -7.9 11.95 L-8.1 11.75 -8.4 11.65 -8.5 11.65 -8.85 11.1 -8.8 11.15 -9.1 10.75 -9.15 10.75 -9.45 10.45 -9.55 10.4 -10.1 9.05 -10.05 9.05 -10.1 9.0 -10.4 8.9 Q-11.1 8.75 -11.35 7.95 -11.75 6.85 -12.6 6.3 L-12.65 6.25 -12.75 6.15 -12.85 6.05 Q-13.0 5.7 -13.35 5.65 L-13.8 5.55 -14.15 5.3 -14.4 5.1 -14.85 4.85 Q-14.95 4.75 -15.0 4.75 -15.65 4.65 -15.9 3.95 L-15.9 3.85 -15.95 3.85 -16.0 3.8 -16.15 3.45 -16.15 3.5 -16.3 3.25 -16.3 3.3 -16.2 3.55 -15.85 4.65 -15.85 4.6 -15.6 5.0 -15.1 5.5 -14.45 6.15 -14.4 6.2 -13.75 6.5 -13.7 6.5 -13.15 6.8 -12.9 7.25 -12.85 7.4 -12.85 7.45 -12.7 7.7 -12.2 8.05 -12.15 8.05 Q-11.6 8.2 -11.6 8.95 L-11.45 8.95 Q-10.9 9.1 -10.75 9.5 L-10.65 9.95 -10.6 10.25 -10.5 10.4 -10.45 10.4 -10.2 10.6 -9.9 11.1 -9.8 11.6 -9.8 11.65 -9.6 11.95 -9.4 12.25 -9.2 12.65 -9.15 12.7 -9.15 12.85 -9.15 13.25 -9.25 13.45 -9.45 13.55 -9.65 13.45 -9.75 13.3 -9.8 13.45 -10.0 13.55 -11.4 13.5 -11.5 13.45 -11.65 13.45 -11.95 13.45 -12.3 13.35 -12.7 13.15 -12.7 13.1 -12.75 13.15 -13.8 12.85 -14.4 12.5 Q-14.6 12.3 -14.8 12.35 L-14.85 12.35 -15.2 12.3 -15.55 12.15 -15.6 12.1 -15.7 12.05 Q-16.35 11.55 -17.2 11.65 -18.45 11.7 -19.3 10.75 L-19.35 10.55 -19.4 10.55 -19.45 11.1 -19.65 11.5 -20.05 10.8 -20.0 10.6 -20.0 10.55 Q-20.05 10.15 -20.45 10.0 M2.7 5.0 L2.6 6.65 2.5 6.8 2.3 6.8 Q1.95 4.0 3.15 1.45 L3.4 0.95 3.75 0.4 3.8 0.4 4.0 0.35 4.1 0.5 Q2.95 2.65 2.7 5.0 M1.1 7.4 L1.25 7.5 1.5 9.95 1.55 10.1 1.35 10.25 1.2 10.2 Q0.8 8.9 0.9 7.5 L0.9 7.45 0.95 7.45 1.1 7.4 M1.1 11.4 Q1.45 11.4 1.7 11.65 L1.95 12.25 1.95 12.4 1.7 12.85 1.35 13.1 1.1 13.1 0.75 13.0 0.7 13.0 0.5 12.85 0.3 12.4 0.25 12.25 Q0.25 11.9 0.5 11.65 0.75 11.4 1.1 11.4 M7.95 15.95 L7.55 15.05 7.85 15.4 7.85 15.55 7.95 15.85 8.0 16.0 8.15 16.25 8.45 16.7 7.75 16.05 7.95 16.15 7.95 15.95 M2.55 14.35 L2.6 14.3 2.55 14.2 2.5 14.15 2.2 13.95 2.15 13.9 2.05 13.95 2.0 14.0 1.95 14.15 Q1.8 14.5 1.8 14.9 L1.8 16.05 1.8 16.1 1.95 16.7 2.15 17.4 2.85 19.25 1.8 19.3 1.55 17.6 1.5 17.4 1.35 16.85 1.25 16.8 1.2 16.75 1.1 16.8 0.65 17.4 0.6 17.45 0.6 17.6 Q0.3 18.45 0.15 19.35 L-0.85 19.45 -0.6 18.55 -0.25 17.6 -0.15 17.4 0.2 16.65 0.2 16.6 0.3 16.55 0.45 16.2 0.45 16.1 0.35 15.7 0.35 14.3 0.35 14.2 0.3 14.15 0.3 14.05 0.1 14.15 Q-0.3 14.05 -0.4 14.3 -0.15 14.35 -0.05 14.65 L-0.1 15.6 -0.1 15.65 -0.8 15.0 -1.0 14.2 -0.55 13.55 0.35 13.3 0.5 13.3 0.65 13.3 1.05 13.4 1.1 13.4 1.4 13.35 1.85 13.3 1.95 13.3 Q2.7 13.3 3.05 14.05 3.25 14.5 3.05 15.0 L2.45 15.65 Q2.2 15.25 2.25 14.95 2.25 14.6 2.55 14.35 M-13.4 -6.25 L-12.8 -5.65 -12.7 -5.5 -12.8 -5.35 -13.0 -5.2 -13.45 -5.25 -14.0 -5.85 -14.05 -6.0 -13.95 -6.15 -13.75 -6.3 -13.4 -6.25 M-19.35 -0.45 L-19.4 -0.35 -19.45 0.3 -19.2 0.55 -19.15 0.6 -19.05 0.65 -18.9 0.65 -18.85 0.5 -18.7 0.4 -18.75 0.35 Q-18.7 0.1 -18.8 -0.05 L-19.05 -0.5 -19.35 -0.45 M-11.0 -4.3 L-10.15 -4.25 -10.0 -4.05 -10.0 -3.9 -10.25 -3.75 -10.75 -3.55 -11.0 -3.45 Q-11.6 -3.5 -11.9 -4.0 -12.1 -4.3 -11.75 -4.3 L-11.0 -4.3 M-7.25 -3.35 L-7.0 -3.55 -4.9 -3.5 -4.75 -3.3 -4.75 -3.15 Q-4.9 -3.05 -5.0 -3.05 L-7.3 -3.2 -7.25 -3.35 M-2.35 2.3 Q-1.6 3.9 -1.75 5.8 L-1.75 6.25 -2.05 6.35 Q-2.05 4.55 -2.55 2.75 L-2.7 2.45 Q-2.9 1.45 -3.55 0.65 L-3.6 0.55 -3.55 0.5 -3.4 0.35 Q-2.6 1.15 -2.35 2.2 L-2.35 2.3 M-1.2 0.8 L-1.2 0.65 -1.2 0.55 -1.05 0.4 -1.0 0.35 Q-0.05 3.55 -0.4 7.0 L-0.4 7.15 -0.7 7.25 Q-0.5 4.05 -1.15 0.9 L-1.2 0.8 M-4.25 13.55 L-4.1 13.7 -4.05 13.85 -4.1 14.05 -4.75 14.75 -4.95 14.9 -4.75 14.7 -4.75 14.65 -4.3 14.0 -4.2 13.75 -4.3 13.55 -4.25 13.55 M-17.65 1.65 L-17.65 1.45 -17.55 1.4 -18.25 0.8 -18.3 0.8 -18.4 0.9 -18.5 1.1 -18.35 1.6 -18.15 1.6 Q-17.6 1.8 -17.2 2.15 L-17.5 1.85 -17.65 1.65" fill="#000000" fill-rule="evenodd" stroke="none"/>
    <path d="M-20.45 10.0 Q-22.75 5.45 -22.75 0.0 -22.75 -9.3 -16.1 -15.9 -9.4 -22.5 0.0 -22.5 9.4 -22.5 16.05 -15.9 22.75 -9.3 22.75 0.0 22.75 9.3 16.05 15.9 9.4 22.5 0.0 22.5 -9.4 22.5 -16.1 15.9 -18.1 13.9 -19.5 11.7 L-19.65 11.5 -20.05 10.8 -20.45 10.0 Z" fill="none" stroke="#000000" stroke-linecap="round" stroke-linejoin="round" stroke-width="1.0"/>
  </g>
</svg>
