<?xml version="1.0" encoding="UTF-8" standalone="no"?>
<svg xmlns:xlink="http://www.w3.org/1999/xlink" height="450.85px" width="620.75px" xmlns="http://www.w3.org/2000/svg">
  <g transform="matrix(1.0, 0.0, 0.0, 1.0, 26.5, 10.5)">
    <path d="M592.75 -10.0 L593.45 -9.7 593.75 -9.0 593.75 438.85 593.45 439.55 592.75 439.85 -25.0 439.85 -25.7 439.55 -26.0 438.85 -26.0 -9.0 -25.7 -9.7 -25.0 -10.0 592.75 -10.0" fill="#000000" fill-rule="evenodd" stroke="none"/>
    <path d="M592.75 -10.0 L-25.0 -10.0 -25.7 -9.7 -26.0 -9.0 -26.0 438.85 -25.7 439.55 -25.0 439.85 592.75 439.85 593.45 439.55 593.75 438.85 593.75 -9.0 593.45 -9.7 592.75 -10.0 Z" fill="none" stroke="#000000" stroke-linecap="round" stroke-linejoin="round" stroke-width="1.0"/>
  </g>
</svg>
