<?xml version="1.0" encoding="UTF-8" standalone="no"?>
<svg xmlns:xlink="http://www.w3.org/1999/xlink" height="55.75px" width="63.5px" xmlns="http://www.w3.org/2000/svg">
  <g transform="matrix(1.0, 0.0, 0.0, 1.0, 31.0, 0.5)">
    <path d="M7.5 -0.25 L15.25 -0.25 22.8 19.0 7.5 19.0 7.5 -0.25 M28.85 34.5 L31.75 42.0 Q33.25 49.15 30.3 52.05 27.4 55.0 23.25 55.0 L7.5 55.0 7.5 34.5 28.85 34.5 M-8.0 55.0 L-21.75 55.0 Q-25.9 55.0 -28.85 52.05 -31.75 49.15 -30.25 41.0 L-28.0 34.5 -8.0 34.5 -8.0 55.0 M-22.65 19.0 L-16.0 -0.25 -8.0 -0.25 -8.0 19.0 -22.65 19.0" fill="url(#gradient0)" fill-rule="evenodd" stroke="none"/>
    <path d="M22.8 19.0 L28.85 34.5 7.5 34.5 7.5 55.0 6.0 55.0 -6.0 55.0 -8.0 55.0 -8.0 34.5 -28.0 34.5 -22.65 19.0 -8.0 19.0 -8.0 -0.25 7.5 -0.25 7.5 19.0 22.8 19.0" fill="url(#gradient1)" fill-rule="evenodd" stroke="none"/>
    <path d="M7.5 -0.25 L15.25 -0.25 22.8 19.0 28.85 34.5 31.75 42.0 Q33.25 49.15 30.3 52.05 27.4 55.0 23.25 55.0 L7.5 55.0 6.0 55.0 M-6.0 55.0 L-8.0 55.0 -21.75 55.0 Q-25.9 55.0 -28.85 52.05 -31.75 49.15 -30.25 41.0 L-28.0 34.5 -22.65 19.0 -16.0 -0.25 -8.0 -0.25 7.5 -0.25" fill="none" stroke="#000000" stroke-linecap="round" stroke-linejoin="round" stroke-width="0.5"/>
    <path d="M6.0 55.0 L-6.0 55.0" fill="none" stroke="#000000" stroke-linecap="round" stroke-linejoin="round" stroke-width="0.5"/>
  </g>
  <defs>
    <radialGradient cx="0" cy="0" gradientTransform="matrix(0.0719, 0.0, 0.0, 0.0412, 0.5, 28.0)" gradientUnits="userSpaceOnUse" id="gradient0" r="819.2" spreadMethod="pad">
      <stop offset="0.5490196078431373" stop-color="#156a15"/>
      <stop offset="1.0" stop-color="#79e686"/>
    </radialGradient>
    <radialGradient cx="0" cy="0" gradientTransform="matrix(0.0719, 0.0, 0.0, 0.0412, 0.5, 28.0)" gradientUnits="userSpaceOnUse" id="gradient1" r="819.2" spreadMethod="pad">
      <stop offset="0.5490196078431373" stop-color="#17136c"/>
      <stop offset="1.0" stop-color="#7780e8"/>
    </radialGradient>
  </defs>
</svg>
