<?xml version="1.0" encoding="UTF-8" standalone="no"?>
<svg xmlns:xlink="http://www.w3.org/1999/xlink" height="55.75px" width="63.5px" xmlns="http://www.w3.org/2000/svg">
  <g transform="matrix(1.0, 0.0, 0.0, 1.0, 31.0, 0.5)">
    <path d="M21.75 16.4 L31.75 42.0 Q33.25 49.15 30.3 52.05 27.4 55.0 23.25 55.0 L6.0 55.0 -6.0 55.0 -16.85 55.0 21.75 16.4 M-30.75 45.55 Q-30.7 43.55 -30.25 41.0 L-16.0 -0.25 15.05 -0.25 -30.75 45.55" fill="url(#gradient0)" fill-rule="evenodd" stroke="none"/>
    <path d="M15.05 -0.25 L15.25 -0.25 21.75 16.4 -16.85 55.0 -21.75 55.0 Q-25.9 55.0 -28.85 52.05 -30.85 50.05 -30.75 45.55 L15.05 -0.25" fill="url(#gradient1)" fill-rule="evenodd" stroke="none"/>
    <path d="M15.05 -0.25 L15.25 -0.25 21.75 16.4 31.75 42.0 Q33.25 49.15 30.3 52.05 27.4 55.0 23.25 55.0 L6.0 55.0 M-6.0 55.0 L-16.85 55.0 -21.75 55.0 Q-25.9 55.0 -28.85 52.05 -30.85 50.05 -30.75 45.55 -30.7 43.55 -30.25 41.0 L-16.0 -0.25 15.05 -0.25" fill="none" stroke="#000000" stroke-linecap="round" stroke-linejoin="round" stroke-width="0.5"/>
    <path d="M6.0 55.0 L-6.0 55.0" fill="none" stroke="#000000" stroke-linecap="round" stroke-linejoin="round" stroke-width="0.5"/>
  </g>
  <defs>
    <radialGradient cx="0" cy="0" gradientTransform="matrix(0.0719, 0.0, 0.0, 0.0412, 0.5, 28.0)" gradientUnits="userSpaceOnUse" id="gradient0" r="819.2" spreadMethod="pad">
      <stop offset="0.5490196078431373" stop-color="#b3a026"/>
      <stop offset="1.0" stop-color="#efe1ba"/>
    </radialGradient>
    <radialGradient cx="0" cy="0" gradientTransform="matrix(0.0719, 0.0, 0.0, 0.0412, 0.5, 28.0)" gradientUnits="userSpaceOnUse" id="gradient1" r="819.2" spreadMethod="pad">
      <stop offset="0.5490196078431373" stop-color="#405c23"/>
      <stop offset="1.0" stop-color="#afd28c"/>
    </radialGradient>
  </defs>
</svg>
