<?xml version="1.0" encoding="UTF-8" standalone="no"?>
<svg xmlns:xlink="http://www.w3.org/1999/xlink" height="55.75px" width="63.5px" xmlns="http://www.w3.org/2000/svg">
  <g transform="matrix(1.0, 0.0, 0.0, 1.0, 31.0, 0.5)">
    <path d="M-17.75 4.9 L-16.0 -0.25 15.25 -0.25 17.55 5.6 0.25 22.95 -17.75 4.9 M22.5 18.35 L31.75 42.0 Q33.25 49.15 30.3 52.05 27.4 55.0 23.25 55.0 L6.5 55.0 6.5 34.5 6.35 34.5 22.5 18.35 M-6.0 55.0 L-21.75 55.0 Q-25.9 55.0 -28.85 52.05 -31.75 49.15 -30.25 41.0 L-22.3 18.05 -5.85 34.5 -6.0 34.5 -6.0 55.0" fill="url(#gradient0)" fill-rule="evenodd" stroke="none"/>
    <path d="M17.55 5.6 L22.5 18.35 6.35 34.5 6.5 34.5 6.5 55.0 6.0 55.0 -6.0 55.0 -6.0 34.5 -5.85 34.5 -22.3 18.05 -17.75 4.9 0.25 22.95 17.55 5.6" fill="url(#gradient1)" fill-rule="evenodd" stroke="none"/>
    <path d="M-17.75 4.9 L-16.0 -0.25 15.25 -0.25 17.55 5.6 22.5 18.35 31.75 42.0 Q33.25 49.15 30.3 52.05 27.4 55.0 23.25 55.0 L6.5 55.0 6.0 55.0 M-6.0 55.0 L-21.75 55.0 Q-25.9 55.0 -28.85 52.05 -31.75 49.15 -30.25 41.0 L-22.3 18.05 -17.75 4.9" fill="none" stroke="#000000" stroke-linecap="round" stroke-linejoin="round" stroke-width="0.5"/>
    <path d="M6.0 55.0 L-6.0 55.0" fill="none" stroke="#000000" stroke-linecap="round" stroke-linejoin="round" stroke-width="0.5"/>
  </g>
  <defs>
    <radialGradient cx="0" cy="0" gradientTransform="matrix(0.0719, 0.0, 0.0, 0.0412, 0.5, 28.0)" gradientUnits="userSpaceOnUse" id="gradient0" r="819.2" spreadMethod="pad">
      <stop offset="0.5490196078431373" stop-color="#cd8307"/>
      <stop offset="1.0" stop-color="#fbd79d"/>
    </radialGradient>
    <radialGradient cx="0" cy="0" gradientTransform="matrix(0.0719, 0.0, 0.0, 0.0412, 0.5, 28.0)" gradientUnits="userSpaceOnUse" id="gradient1" r="819.2" spreadMethod="pad">
      <stop offset="0.5490196078431373" stop-color="#46235c"/>
      <stop offset="1.0" stop-color="#bc8ad5"/>
    </radialGradient>
  </defs>
</svg>
