<?xml version="1.0" encoding="UTF-8" standalone="no"?>
<svg xmlns:xlink="http://www.w3.org/1999/xlink" height="46.0px" width="46.5px" xmlns="http://www.w3.org/2000/svg">
  <g transform="matrix(1.0, 0.0, 0.0, 1.0, 23.25, 23.0)">
    <path d="M16.05 -15.9 Q22.75 -9.3 22.75 0.0 22.75 9.3 16.05 15.9 9.4 22.5 0.0 22.5 -9.4 22.5 -16.1 15.9 -22.75 9.3 -22.75 0.0 -22.75 -9.3 -16.1 -15.9 -9.4 -22.5 0.0 -22.5 9.4 -22.5 16.05 -15.9 Z" fill="none" stroke="#000000" stroke-linecap="round" stroke-linejoin="round" stroke-width="1.0"/>
    <path d="M11.2 -12.9 Q11.8 -12.45 11.05 -10.9 L10.65 -10.35 9.95 -9.65 Q9.25 -10.2 9.25 -10.25 L8.8 -10.85 Q7.9 -12.25 8.55 -12.75 L9.25 -12.95 9.9 -12.3 10.55 -13.0 11.2 -12.9 M3.15 -15.8 Q4.55 -15.8 5.55 -14.8 6.55 -13.8 6.55 -12.4 6.55 -11.0 5.55 -10.0 L4.1 -9.1 4.05 -9.1 3.15 -9.0 Q2.35 -9.0 1.7 -9.35 L1.55 -9.4 0.75 -10.0 Q-0.25 -11.0 -0.25 -12.4 -0.25 -13.8 0.75 -14.8 1.75 -15.8 3.15 -15.8 M6.55 -6.3 L6.65 -5.1 Q6.0 -3.5 5.75 -1.95 5.4 0.35 5.8 2.6 L5.8 2.7 5.85 2.85 7.4 8.05 10.0 15.4 Q8.25 15.25 5.85 15.45 5.6 10.25 4.0 5.85 L3.8 5.6 3.5 5.5 3.2 5.6 Q1.75 6.65 1.25 8.25 -0.05 11.9 -0.65 15.75 L-4.55 16.15 -3.6 12.7 Q-2.55 8.45 -0.05 4.55 L0.05 4.6 0.4 4.65 0.7 4.4 0.75 4.0 Q-0.5 -0.05 0.25 -4.4 L0.2 -4.7 0.0 -4.9 -0.3 -5.0 -0.55 -4.85 Q-2.5 -3.2 -2.7 -0.8 -4.4 -1.1 -5.65 -2.2 L-5.05 -7.3 -4.5 -5.85 -4.25 -5.6 -3.9 -5.55 -3.6 -5.8 Q-2.6 -7.6 0.65 -8.25 L1.35 -8.35 3.15 -8.0 4.25 -8.1 6.0 -8.3 7.5 -8.15 7.5 -8.1 Q6.6 -7.9 6.55 -6.3 M8.7 -6.55 L8.9 -6.35 9.2 -6.35 9.45 -6.45 9.9 -6.75 10.05 -6.8 11.55 -6.7 Q12.3 -6.35 12.6 -5.5 12.9 -4.7 12.55 -3.9 12.2 -3.15 11.45 -2.9 L11.3 -2.85 10.7 -2.75 10.4 -2.7 10.2 -2.4 10.2 -2.15 9.95 -1.3 9.15 -1.8 Q8.6 -2.45 8.2 -3.35 L8.0 -3.9 7.55 -5.6 7.55 -6.3 Q7.55 -7.05 7.8 -7.2 L8.6 -6.65 8.65 -6.6 8.7 -6.55 M8.4 -1.15 Q9.35 -0.05 10.15 -0.3 9.25 1.05 8.4 1.1 7.55 -0.4 7.6 -1.7 L7.7 -2.15 8.4 -1.15 M15.2 -7.8 L14.8 -7.2 14.1 -6.5 13.4 -7.1 12.95 -7.7 Q12.05 -9.15 12.7 -9.65 L13.4 -9.8 14.05 -9.2 Q14.35 -9.85 14.7 -9.9 L15.35 -9.8 Q15.95 -9.35 15.2 -7.8 M-9.85 -14.25 L-7.9 -14.0 -8.4 -9.45 -8.55 -7.95 -8.6 -7.8 -10.6 -8.05 -9.85 -14.25 M-7.15 -11.6 L-5.1 -7.45 -8.1 -7.8 -7.75 -10.85 -7.15 -11.6 M-6.45 -6.8 L-9.4 19.25 Q-17.0 18.1 -12.65 -7.5 L-6.45 -6.8" fill="#000000" fill-rule="evenodd" stroke="none"/>
    <path d="M12.45 -15.8 L12.05 -15.25 11.35 -14.55 10.65 -15.15 10.2 -15.75 Q9.3 -17.15 9.95 -17.65 L10.65 -17.85 11.3 -17.2 11.95 -17.9 12.6 -17.8 Q13.2 -17.35 12.45 -15.8" fill="#000000" fill-rule="evenodd" stroke="none"/>
  </g>
</svg>
