<?xml version="1.0" encoding="UTF-8" standalone="no"?>
<svg xmlns:xlink="http://www.w3.org/1999/xlink" height="46.0px" width="46.5px" xmlns="http://www.w3.org/2000/svg">
  <g transform="matrix(1.0, 0.0, 0.0, 1.0, 23.25, 23.0)">
    <path d="M16.05 -15.9 Q22.75 -9.3 22.75 0.0 22.75 9.3 16.05 15.9 9.4 22.5 0.0 22.5 -9.4 22.5 -16.1 15.9 -22.75 9.3 -22.75 0.0 -22.75 -9.3 -16.1 -15.9 -9.4 -22.5 0.0 -22.5 9.4 -22.5 16.05 -15.9 Z" fill="none" stroke="#000000" stroke-linecap="round" stroke-linejoin="round" stroke-width="1.0"/>
    <path d="M14.2 17.55 L13.1 18.4 12.6 16.7 12.5 16.6 12.35 16.55 12.2 16.6 Q11.45 17.1 11.2 17.9 L10.6 19.95 8.55 20.9 8.8 20.15 Q9.3 18.0 10.55 16.05 L10.6 16.1 10.8 16.1 10.95 16.0 10.95 15.8 10.65 14.4 Q10.45 13.05 10.7 11.6 L10.7 11.55 10.75 11.5 10.85 11.35 10.8 11.25 Q10.2 10.6 9.35 10.25 L9.2 10.2 8.2 10.1 7.55 9.05 7.35 8.4 7.25 8.05 7.1 6.65 7.1 6.5 7.8 6.65 8.2 7.05 8.35 7.35 8.65 8.15 8.65 8.3 8.65 8.35 8.7 8.4 Q8.95 9.4 9.85 10.0 L9.85 9.95 10.05 10.05 10.0 10.05 10.85 10.2 11.0 10.1 11.05 9.95 10.95 9.85 10.8 9.8 10.15 9.7 10.05 9.65 Q9.2 9.15 9.05 8.2 L9.0 8.1 9.0 8.0 8.55 6.85 8.5 6.85 8.4 6.7 Q9.0 6.8 9.5 7.2 L10.65 8.45 Q10.8 9.3 11.95 9.75 L12.7 9.95 12.75 9.95 13.4 9.85 13.45 9.85 Q14.25 10.05 14.2 11.0 L14.2 11.05 13.85 11.9 13.8 11.95 13.4 12.4 13.35 12.5 13.4 12.65 13.5 12.7 13.45 12.8 13.4 14.4 13.5 15.1 13.5 15.15 13.5 15.2 14.2 17.55 M14.3 6.7 L14.5 6.95 14.8 7.9 Q14.8 8.6 14.3 9.1 L13.6 9.55 13.55 9.55 13.1 9.6 12.4 9.45 12.3 9.4 11.9 9.1 Q11.4 8.6 11.4 7.9 11.4 7.35 11.75 6.95 L11.9 6.7 Q12.4 6.2 13.1 6.2 13.8 6.2 14.3 6.7 M6.7 7.8 L6.8 8.15 7.0 8.8 6.6 9.1 5.95 9.5 5.9 9.55 5.35 8.7 6.7 7.8 M6.2 10.7 L-4.8 17.85 Q-6.8 14.55 4.5 8.1 L6.2 10.7" fill="#000000" fill-rule="evenodd" stroke="none"/>
    <path d="M8.55 20.9 Q4.6 22.5 0.0 22.5 -9.4 22.5 -16.1 15.9 -22.75 9.3 -22.75 0.0 -22.75 -9.3 -16.1 -15.9 -13.3 -18.7 -9.95 -20.3 L-9.5 -20.5 Q-5.15 -22.5 0.0 -22.5 4.75 -22.5 8.8 -20.8 L9.8 -20.35 Q13.2 -18.75 16.05 -15.9 22.75 -9.3 22.75 0.0 22.75 9.3 16.05 15.9 L14.2 17.55 13.1 18.4 10.6 19.95 8.55 20.9 Z" fill="none" stroke="#000000" stroke-linecap="round" stroke-linejoin="round" stroke-width="1.0"/>
    <path d="M9.8 -20.35 L6.05 -13.45 5.65 -14.15 5.6 -14.2 Q4.8 -15.05 3.6 -15.1 L3.15 -15.05 8.8 -20.8 9.8 -20.35 M1.55 -14.35 Q0.65 -13.55 0.6 -12.35 0.55 -11.15 1.35 -10.3 L1.4 -10.3 Q2.15 -9.4 3.35 -9.35 L3.4 -9.35 -3.65 -1.15 -3.95 -0.5 -3.2 -1.35 -3.95 0.25 3.2 -8.05 3.7 -7.8 5.0 -5.1 Q-0.8 0.2 -1.0 9.25 -4.85 8.4 -5.75 11.55 -13.5 8.3 -17.0 12.7 L-20.0 7.5 Q-13.55 5.0 -5.25 8.0 -8.6 -4.55 -3.5 -10.7 L-3.35 -10.7 -0.55 -9.55 -4.95 0.0 -3.8 -1.3 0.75 -11.25 -7.45 -11.6 0.2 -12.8 -9.95 -20.3 -9.5 -20.5 1.45 -14.8 -0.65 -22.2 3.05 -15.05 Q2.2 -14.95 1.55 -14.35 M3.55 -14.35 Q4.45 -14.3 5.05 -13.7 L5.1 -13.65 Q5.6 -13.0 5.6 -12.1 5.55 -11.25 4.95 -10.65 4.25 -10.05 3.4 -10.1 2.5 -10.15 1.95 -10.8 L1.9 -10.8 Q1.3 -11.45 1.35 -12.3 1.4 -13.2 2.05 -13.8 2.65 -14.4 3.55 -14.35 M6.35 -12.1 L6.2 -13.2 13.85 -13.0 6.4 -11.75 18.9 -1.65 5.7 -9.3 7.45 -2.0 3.95 -9.35 Q4.8 -9.5 5.45 -10.1 6.3 -10.9 6.35 -12.1" fill="#000000" fill-rule="evenodd" stroke="none"/>
  </g>
</svg>
