<?xml version="1.0" encoding="UTF-8" standalone="no"?>
<svg xmlns:xlink="http://www.w3.org/1999/xlink" height="46.0px" width="46.5px" xmlns="http://www.w3.org/2000/svg">
  <g transform="matrix(1.0, 0.0, 0.0, 1.0, 23.25, 23.0)">
    <path d="M16.05 -15.9 Q22.75 -9.3 22.75 0.0 22.75 9.3 16.05 15.9 9.4 22.5 0.0 22.5 -9.4 22.5 -16.1 15.9 -22.75 9.3 -22.75 0.0 -22.75 -9.3 -16.1 -15.9 -9.4 -22.5 0.0 -22.5 9.4 -22.5 16.05 -15.9 Z" fill="none" stroke="#000000" stroke-linecap="round" stroke-linejoin="round" stroke-width="1.0"/>
    <path d="M22.75 1.0 Q20.95 0.8 19.95 2.0 L19.45 2.8 19.4 2.9 19.15 3.55 19.15 5.55 19.1 5.75 18.9 5.8 9.7 5.8 10.25 5.5 8.9 5.8 8.4 5.8 8.25 5.75 8.15 5.55 8.15 -7.25 8.25 -7.4 8.4 -7.5 12.15 -7.5 12.4 -7.0 8.65 -7.0 8.65 5.3 18.65 5.3 18.65 1.1 Q19.1 1.9 19.0 3.0 L19.0 3.15 19.0 3.1 18.9 3.9 19.15 3.2 19.15 3.45 Q19.45 1.85 18.9 0.8 L18.4 0.1 Q17.75 -0.6 16.7 -1.0 L18.4 -1.05 18.8 -1.1 18.9 -1.15 19.3 -1.25 19.4 -1.3 19.45 -1.35 19.85 -1.55 19.95 -1.6 20.35 -1.95 20.45 -2.05 20.5 -2.1 20.9 -2.7 21.0 -2.9 21.2 -3.4 21.1 -2.85 21.1 -2.55 21.1 -1.7 Q21.3 -0.15 22.75 0.75 L22.75 1.0 M7.1 -8.55 L7.2 -8.7 7.35 -8.8 11.05 -8.8 11.55 -8.3 7.6 -8.3 7.6 5.6 7.55 5.55 7.5 5.55 7.1 5.15 7.1 -8.55 M5.25 -7.5 L5.45 -7.4 5.5 -7.25 5.5 5.55 5.45 5.75 5.25 5.8 -5.25 5.8 -5.4 5.75 -5.5 5.55 -5.5 2.05 -5.0 1.95 -5.0 5.3 5.0 5.3 5.0 -7.0 -5.0 -7.0 -5.0 -0.65 -5.5 -0.35 -5.5 -7.25 -5.4 -7.4 -5.25 -7.5 5.25 -7.5 M6.3 -8.8 L6.5 -8.7 6.55 -8.55 6.55 4.45 6.5 4.4 6.55 4.5 6.55 4.95 6.45 4.75 6.3 4.6 6.55 4.95 6.6 4.95 6.7 5.15 6.75 5.15 6.85 5.3 7.25 5.7 7.3 5.7 7.35 5.75 7.6 5.95 7.75 6.05 8.1 6.2 8.9 6.35 9.4 6.35 10.75 6.05 10.2 6.35 9.75 6.7 9.7 6.75 9.3 7.2 9.3 7.25 Q8.4 8.5 9.3 10.35 7.7 7.7 4.85 8.9 L6.1 7.6 6.3 7.25 6.4 7.1 6.55 6.6 6.65 5.85 6.55 5.3 6.55 5.2 6.45 5.0 6.3 4.65 6.25 4.55 6.1 4.35 6.25 4.6 6.2 4.6 6.1 4.4 6.05 4.4 6.05 -8.3 -6.05 -8.3 -6.05 -0.2 -6.55 -0.15 -6.55 -8.55 -6.45 -8.7 -6.3 -8.8 6.3 -8.8 M-22.15 5.25 L-20.2 5.0 -20.1 5.0 -19.7 4.8 -19.6 4.75 -19.15 4.45 -19.05 4.4 -18.7 4.05 -18.65 3.95 -18.55 3.8 -18.3 3.4 -18.25 3.2 -18.05 2.65 -18.15 3.25 -18.15 3.5 -18.1 4.4 -17.85 5.15 -17.7 5.45 -17.65 5.5 -17.35 5.9 -17.3 6.0 -16.85 6.4 -16.35 6.7 -16.3 6.75 -16.0 6.9 -15.8 7.0 -15.85 6.95 -15.4 7.05 -16.3 6.65 -7.6 6.65 -7.6 -0.2 -7.1 0.35 -7.1 3.2 -7.2 3.35 -7.1 3.25 -7.1 6.9 -7.15 7.1 -7.25 7.15 Q-7.7 9.55 -5.3 10.1 -7.7 9.75 -8.35 12.1 -8.35 10.25 -9.35 9.5 L-9.8 9.25 -9.95 9.2 -10.3 9.1 -9.9 9.15 -9.7 9.15 -9.1 9.1 Q-7.75 8.75 -7.25 7.15 L-7.35 7.15 -15.5 7.15 -15.6 7.1 -18.0 7.25 Q-19.3 7.85 -19.8 9.75 -19.55 8.3 -20.0 7.25 L-20.2 6.9 Q-20.8 5.9 -22.15 5.35 L-22.45 5.25 -22.15 5.25 -22.15 5.35 -22.15 5.25 M3.0 -5.25 L3.05 -5.15 2.7 -3.85 1.75 -3.0 1.35 -2.95 0.95 -2.9 -0.5 -3.1 -1.95 -3.35 -2.3 -3.25 -2.5 -2.95 -2.65 -2.55 -2.75 -2.2 -3.0 -2.2 -3.25 -2.3 -3.2 -3.25 -2.9 -5.25 -2.65 -5.35 -2.4 -5.3 -2.4 -5.1 -2.4 -4.95 Q-2.4 -4.7 -2.15 -4.75 -1.8 -5.2 -1.3 -5.35 L-0.2 -5.55 1.3 -5.25 1.6 -5.15 1.95 -5.05 2.4 -5.15 2.8 -5.4 3.0 -5.25 M2.1 -2.75 L2.05 -2.55 1.95 -2.35 1.4 -0.8 1.2 0.55 1.2 1.15 1.45 2.05 1.5 2.85 1.4 3.6 0.95 4.25 -0.1 4.55 -0.25 4.55 -1.0 4.25 -1.5 3.55 -1.65 2.5 Q-1.65 1.65 -1.2 0.95 L0.05 -0.8 1.2 -2.35 1.55 -2.45 1.95 -2.5 2.05 -2.65 2.1 -2.75 M19.1 -7.4 L19.15 -7.25 19.15 -1.7 18.75 -1.6 18.65 -1.55 18.65 -7.0 12.5 -7.0 12.5 -7.5 18.9 -7.5 19.1 -7.4 M20.15 -8.7 L20.2 -8.55 20.2 -2.4 19.8 -2.05 19.7 -2.0 19.7 -8.3 12.55 -8.3 12.65 -8.8 19.95 -8.8 20.15 -8.7 M14.65 -5.3 L14.95 -5.2 15.25 -5.1 15.75 -5.2 16.15 -5.45 16.3 -5.3 16.4 -5.2 16.05 -3.9 15.1 -3.05 14.7 -3.0 14.25 -2.95 12.85 -3.15 11.4 -3.4 11.05 -3.3 10.8 -3.0 10.7 -2.6 10.6 -2.25 10.35 -2.25 10.1 -2.35 10.15 -3.3 10.45 -5.3 10.65 -5.4 10.9 -5.35 10.95 -5.15 10.95 -5.0 Q10.95 -4.75 11.15 -4.8 11.5 -5.25 12.05 -5.4 L13.1 -5.6 14.65 -5.3 M14.5 -2.4 L14.85 -2.5 15.25 -2.55 15.35 -2.7 15.45 -2.8 15.35 -2.6 15.25 -2.4 14.75 -0.85 14.5 0.5 14.55 1.1 14.75 2.0 14.85 2.8 14.75 3.55 14.25 4.2 13.2 4.5 13.05 4.5 12.3 4.2 11.85 3.5 11.65 2.45 Q11.65 1.6 12.1 0.9 12.55 0.15 13.35 -0.85 L14.5 -2.4 M5.9 6.55 L5.8 6.7 5.6 7.05 -6.3 7.05 -6.45 7.0 -6.55 6.8 -6.55 2.65 -6.05 2.3 -6.05 6.55 5.9 6.55 M6.15 5.3 L6.05 6.05 6.05 4.75 6.15 5.3 M19.7 3.25 L20.2 2.45 20.2 6.8 20.15 7.0 19.95 7.05 9.55 7.05 9.95 6.6 10.0 6.55 19.7 6.55 19.7 3.25 M-15.0 -12.0 Q-12.5 -10.6 -11.05 -13.05 -12.05 -10.9 -10.5 -9.45 L-9.95 -9.0 -13.0 -8.95 -13.1 -8.85 -13.55 -8.45 -13.65 -8.35 -13.75 -8.15 -13.9 -7.95 -13.8 -8.15 -13.7 -8.4 -13.65 -8.6 -13.55 -8.95 -13.5 -9.25 -13.5 -9.45 Q-13.45 -10.95 -15.0 -12.0 M-10.3 -8.25 L-10.85 -8.7 -7.35 -8.7 -7.15 -8.6 -7.1 -8.45 -7.1 -0.2 -7.6 -0.35 -7.6 -8.2 -13.35 -8.2 -10.3 -8.25 M-14.25 -7.2 L-14.1 -7.4 -8.4 -7.4 -8.2 -7.3 -8.15 -7.15 -8.15 5.65 -8.2 5.85 -8.4 5.9 -16.95 5.9 -17.2 5.7 -17.35 5.4 -8.65 5.4 -8.65 -6.9 -18.65 -6.9 -18.65 3.3 -18.7 3.4 -18.75 3.45 -18.8 3.55 -19.15 3.9 -19.15 -7.15 -19.05 -7.3 -18.9 -7.4 -14.15 -7.4 -14.25 -7.2 M-13.85 -8.7 L-13.85 -8.5 -13.9 -8.2 -19.7 -8.2 -19.7 4.25 -19.8 4.3 -20.2 4.5 -20.2 -8.45 -20.1 -8.6 -19.95 -8.7 -13.85 -8.7 M-16.4 -5.3 L-16.35 -5.05 -16.35 -4.95 -16.15 -4.7 -15.25 -5.35 -14.2 -5.5 -12.65 -5.25 -12.35 -5.1 -12.05 -5.0 -11.55 -5.15 -11.15 -5.35 -11.0 -5.25 -10.9 -5.15 Q-11.0 -4.4 -11.25 -3.8 L-12.2 -3.0 -12.6 -2.9 -13.05 -2.9 -14.45 -3.1 -15.9 -3.3 -16.25 -3.25 -16.5 -2.95 -16.6 -2.55 -16.7 -2.2 -16.95 -2.2 -17.2 -2.25 -17.15 -3.2 -16.85 -5.25 -16.65 -5.35 -16.4 -5.3 M-12.8 -2.3 L-12.45 -2.4 -12.05 -2.5 -11.95 -2.65 -11.85 -2.7 -11.95 -2.55 -12.05 -2.3 -12.55 -0.8 -12.8 0.55 -12.75 1.2 -12.55 2.05 -12.45 2.85 -12.55 3.65 -13.05 4.25 Q-13.55 4.55 -14.1 4.55 L-14.25 4.55 -15.0 4.25 -15.45 3.55 -15.65 2.5 Q-15.65 1.65 -15.2 0.95 L-13.95 -0.8 -12.8 -2.3 M-4.55 -0.85 Q-5.05 0.5 -4.5 1.35 L-4.2 1.65 -4.15 1.75 -3.85 1.9 -4.15 1.8 -4.3 1.75 -4.8 1.65 -5.2 1.65 -5.55 1.7 -5.9 1.85 -6.25 2.1 -6.65 2.5 -6.75 2.6 -6.65 2.5 Q-6.05 1.3 -6.65 0.5 L-7.0 0.1 -7.4 -0.15 -7.0 0.0 -6.65 0.1 -6.25 0.15 -5.9 0.1 -5.55 0.0 -5.2 -0.2 -4.55 -0.85" fill="#000000" fill-rule="evenodd" stroke="none"/>
    <path d="M22.75 1.0 L22.75 0.75 22.75 0.0 Q22.75 -9.3 16.05 -15.9 9.4 -22.5 0.0 -22.5 -9.4 -22.5 -16.1 -15.9 -22.75 -9.3 -22.75 0.0 -22.75 2.75 -22.15 5.25 L-22.15 5.35 Q-20.75 11.3 -16.1 15.9 -9.4 22.5 0.0 22.5 9.4 22.5 16.05 15.9 22.4 9.65 22.75 1.0 Z" fill="none" stroke="#000000" stroke-linecap="round" stroke-linejoin="round" stroke-width="1.0"/>
    <path d="M8.7 -10.55 L8.5 -10.5 7.95 -10.4 8.5 -10.65 8.75 -10.75 9.5 -11.2 Q11.05 -12.5 10.7 -14.9 11.55 -11.45 15.05 -12.25 12.9 -11.55 12.4 -9.9 L12.3 -9.4 12.25 -8.6 12.25 -8.1 12.3 -7.8 12.15 -8.1 11.9 -8.6 11.3 -9.4 10.8 -9.9 9.5 -10.5 8.7 -10.55" fill="#000000" fill-rule="evenodd" stroke="none"/>
  </g>
</svg>
