<?xml version="1.0" encoding="UTF-8" standalone="no"?>
<svg xmlns:xlink="http://www.w3.org/1999/xlink" height="46.0px" width="46.5px" xmlns="http://www.w3.org/2000/svg">
  <g transform="matrix(1.0, 0.0, 0.0, 1.0, 23.25, 23.0)">
    <path d="M16.05 -15.9 Q22.75 -9.3 22.75 0.0 22.75 9.3 16.05 15.9 9.4 22.5 0.0 22.5 -9.4 22.5 -16.1 15.9 -22.75 9.3 -22.75 0.0 -22.75 -9.3 -16.1 -15.9 -9.4 -22.5 0.0 -22.5 9.4 -22.5 16.05 -15.9 Z" fill="none" stroke="#000000" stroke-linecap="round" stroke-linejoin="round" stroke-width="1.0"/>
    <path d="M4.05 -22.15 Q7.5 -21.6 10.6 -19.95 L-3.7 -9.3 -3.5 -10.0 -3.45 -10.65 -3.5 -11.15 -3.8 -12.15 Q-4.0 -13.15 -4.75 -13.9 L-4.85 -14.0 Q-5.8 -14.9 -7.05 -14.95 L-7.3 -14.95 -7.45 -14.95 Q-0.7 -20.1 4.05 -22.15 M-9.7 -7.0 L-9.55 -6.95 -8.05 -6.6 -7.3 -6.65 -8.8 -5.55 -10.1 -7.25 -9.7 -7.0 M-15.25 -5.55 L-15.2 -5.35 -14.8 -4.05 -16.1 -3.1 -17.35 -4.75 -15.2 -6.35 -15.05 -5.7 -15.25 -5.6 -15.25 -5.55 M-14.15 -7.05 L-14.4 -6.95 -12.1 -8.65 -10.85 -7.0 -11.05 -6.85 -12.1 -7.3 -13.65 -7.2 -14.15 -7.05 M-11.55 -11.75 L-11.6 -11.15 -11.55 -10.6 -11.6 -10.15 -11.55 -9.5 -11.45 -9.05 -12.7 -10.8 -11.55 -11.75" fill="#000000" fill-rule="evenodd" stroke="none"/>
    <path d="M4.05 -22.15 Q7.5 -21.6 10.6 -19.95 13.5 -18.4 16.05 -15.9 22.75 -9.3 22.75 0.0 22.75 9.3 16.05 15.9 9.4 22.5 0.0 22.5 -9.4 22.5 -16.1 15.9 -22.75 9.3 -22.75 0.0 -22.75 -9.3 -16.1 -15.9 -9.4 -22.5 0.0 -22.5 L4.05 -22.15 Z" fill="none" stroke="#000000" stroke-linecap="round" stroke-linejoin="round" stroke-width="1.0"/>
    <path d="M3.7 -0.6 L2.9 0.9 2.15 -0.6 Q1.35 -2.3 1.25 -4.2 1.85 -5.55 0.1 -6.65 L-0.1 -6.7 -0.25 -6.6 Q-0.95 -5.7 -0.8 -4.4 L-0.75 -4.35 0.65 -0.6 1.05 1.05 1.15 1.45 1.15 1.5 1.2 1.6 Q3.45 5.8 7.8 8.45 L7.9 8.45 8.2 8.5 11.35 9.55 Q9.45 10.55 8.65 12.55 L2.95 9.85 Q0.9 7.5 -0.25 4.8 L0.95 2.85 0.95 2.7 0.8 2.55 0.65 2.55 Q0.5 2.55 0.5 2.65 -0.05 3.75 -0.75 4.55 L-0.75 4.6 Q-2.8 6.7 -6.05 5.65 L-6.2 5.6 -6.4 5.55 -6.6 5.55 -6.7 5.7 -6.7 5.85 -6.55 6.0 -6.35 6.05 Q-5.0 7.55 -4.55 9.85 -6.55 9.65 -7.95 10.9 -10.15 8.0 -9.5 5.1 -7.3 2.45 -3.25 2.5 L-3.1 2.5 -3.0 2.5 -2.8 2.45 -2.75 2.25 -2.7 1.95 -2.65 1.95 -2.5 1.85 -2.5 1.65 -2.7 0.95 -3.3 -0.6 Q-3.95 -1.95 -5.0 -3.1 L-4.25 -4.1 -4.25 -4.3 -4.35 -4.45 -4.55 -4.5 -4.7 -4.35 -5.5 -3.25 -5.55 -3.25 Q-7.4 -1.0 -10.2 -0.6 L-11.7 -0.5 -11.7 -0.6 -11.75 -0.7 Q-13.25 -2.25 -14.0 -4.0 L-14.3 -4.8 -14.7 -6.1 -14.75 -6.3 -14.75 -6.35 -14.55 -6.45 -14.4 -6.55 -13.9 -6.7 -12.35 -6.8 -11.3 -6.35 -11.1 -6.2 Q-9.9 -5.35 -9.5 -3.7 L-9.7 -3.35 -9.7 -3.15 -9.6 -3.0 -9.4 -3.0 -9.25 -3.15 -9.1 -3.45 -9.0 -3.5 Q-8.0 -5.4 -6.25 -6.6 L-6.2 -6.55 Q-4.55 -7.5 -3.05 -8.8 L-3.0 -8.95 -3.0 -9.05 Q1.25 -10.75 3.65 -6.65 L3.65 -6.7 Q5.0 -3.6 3.7 -0.6 M-5.0 -13.4 L-4.3 -12.4 -4.0 -11.4 -3.95 -10.9 -4.0 -10.25 -4.2 -9.55 -4.4 -9.2 -4.9 -8.5 -5.0 -8.4 Q-5.7 -7.75 -6.55 -7.45 L-6.6 -7.45 -6.8 -7.4 -7.55 -7.35 Q-8.4 -7.35 -9.05 -7.7 L-9.2 -7.75 -9.6 -8.0 -10.05 -8.4 Q-10.7 -9.05 -10.95 -9.8 L-11.05 -10.25 -11.1 -10.9 -11.05 -11.35 -11.05 -11.5 Q-10.9 -12.6 -10.05 -13.4 L-9.95 -13.5 Q-9.0 -14.4 -7.7 -14.45 L-7.55 -14.45 -7.3 -14.45 Q-6.05 -14.4 -5.1 -13.5 L-5.0 -13.4" fill="#000000" fill-rule="evenodd" stroke="none"/>
    <path d="M6.85 -2.0 Q8.95 -1.85 10.5 -2.8 11.25 -3.25 10.55 -3.55 L9.0 -3.85 8.25 -3.7 Q6.9 -3.5 6.85 -2.0 M18.5 -7.25 Q18.2 -7.85 17.75 -7.35 17.0 -5.6 18.4 -6.55 18.75 -6.8 18.5 -7.25 M12.5 -4.45 Q12.3 -4.0 13.75 -4.05 16.0 -4.15 16.15 -6.1 16.15 -6.5 15.5 -6.3 13.65 -5.75 13.0 -5.0 L12.5 -4.45 M17.7 -1.7 Q19.6 -0.4 19.75 -3.0 19.9 -5.5 17.65 -4.9 17.05 -4.75 17.0 -4.5 15.75 -3.05 17.7 -1.7 M5.0 -4.7 Q14.85 -5.1 18.5 -10.6 21.25 -5.75 21.65 0.5 12.7 -2.85 3.75 0.65 5.6 -1.25 5.0 -4.7 M16.9 8.4 Q17.15 9.1 17.9 8.4 19.8 6.45 18.25 6.0 L17.45 6.25 Q16.2 6.75 16.9 8.4 M13.65 7.5 Q12.9 9.5 15.6 8.75 15.65 7.15 14.25 7.25 13.8 7.3 13.65 7.5 M11.9 9.4 Q10.85 7.7 7.5 7.4 17.55 6.55 21.25 2.0 20.85 7.5 17.25 12.65 14.9 9.9 10.85 10.9 11.55 10.55 11.9 9.4 M4.15 17.65 Q4.25 18.85 5.3 18.3 7.05 17.45 6.8 15.4 6.55 13.0 5.15 14.25 L4.8 14.7 Q4.0 15.9 4.15 17.65 M7.75 19.0 Q8.1 19.1 8.25 18.6 8.55 17.75 7.9 18.0 6.5 18.6 7.75 19.0 M-7.65 11.4 Q-5.9 12.45 -4.6 10.65 -7.05 15.4 -2.0 21.5 -7.55 20.9 -11.1 18.4 -6.8 16.0 -7.65 11.4 M2.25 10.65 Q4.5 13.05 8.25 13.25 6.55 17.3 12.4 17.75 6.7 21.15 0.15 21.4 5.1 16.05 2.25 10.65 M-16.35 10.85 Q-15.75 9.65 -17.0 9.75 -18.65 10.7 -17.05 11.15 -16.6 11.25 -16.35 10.85 M-16.0 8.7 Q-14.8 8.3 -15.35 7.4 -15.7 6.75 -16.6 6.9 -17.85 7.05 -18.5 6.5 -20.3 6.6 -18.7 8.1 -17.6 9.2 -16.0 8.7 M-12.85 7.5 Q-14.65 9.4 -11.9 8.7 -11.55 6.8 -12.85 7.5 M-7.85 18.45 Q-7.8 18.8 -7.35 18.75 -6.3 18.7 -6.2 17.4 -6.0 15.6 -6.85 15.65 -8.05 16.8 -7.85 18.45 M-4.75 20.0 Q-4.35 18.9 -5.1 19.0 -6.1 20.0 -4.75 20.0 M-10.1 4.65 Q-11.35 7.4 -9.5 9.85 -14.6 8.85 -16.75 13.75 -20.8 8.8 -21.45 2.9 -16.4 7.6 -10.1 4.65" fill="#000000" fill-rule="evenodd" stroke="none"/>
  </g>
</svg>
