<?xml version="1.0" encoding="UTF-8" standalone="no"?>
<svg xmlns:xlink="http://www.w3.org/1999/xlink" height="55.75px" width="63.5px" xmlns="http://www.w3.org/2000/svg">
  <g transform="matrix(1.0, 0.0, 0.0, 1.0, 31.0, 0.5)">
    <path d="M-23.15 20.5 L-16.0 -0.25 15.25 -0.25 23.35 20.5 6.5 20.5 6.5 36.5 29.6 36.5 31.75 42.0 Q33.25 49.15 30.3 52.05 27.4 55.0 23.25 55.0 L6.0 55.0 -6.0 55.0 -21.75 55.0 Q-25.9 55.0 -28.85 52.05 -31.75 49.15 -30.25 41.0 L-28.7 36.5 -6.5 36.5 -6.5 20.5 -23.15 20.5" fill="url(#gradient0)" fill-rule="evenodd" stroke="none"/>
    <path d="M23.35 20.5 L29.6 36.5 6.5 36.5 6.5 20.5 23.35 20.5 M-28.7 36.5 L-23.15 20.5 -6.5 20.5 -6.5 36.5 -28.7 36.5" fill="url(#gradient1)" fill-rule="evenodd" stroke="none"/>
    <path d="M-23.15 20.5 L-16.0 -0.25 15.25 -0.25 23.35 20.5 29.6 36.5 31.75 42.0 Q33.25 49.15 30.3 52.05 27.4 55.0 23.25 55.0 L6.0 55.0 M-6.0 55.0 L-21.75 55.0 Q-25.9 55.0 -28.85 52.05 -31.75 49.15 -30.25 41.0 L-28.7 36.5 -23.15 20.5" fill="none" stroke="#000000" stroke-linecap="round" stroke-linejoin="round" stroke-width="0.5"/>
    <path d="M6.0 55.0 L-6.0 55.0" fill="none" stroke="#000000" stroke-linecap="round" stroke-linejoin="round" stroke-width="0.5"/>
  </g>
  <defs>
    <radialGradient cx="0" cy="0" gradientTransform="matrix(0.0719, 0.0, 0.0, 0.0412, 0.5, 28.0)" gradientUnits="userSpaceOnUse" id="gradient0" r="819.2" spreadMethod="pad">
      <stop offset="0.5490196078431373" stop-color="#651b1b"/>
      <stop offset="1.0" stop-color="#dc8384"/>
    </radialGradient>
    <radialGradient cx="0" cy="0" gradientTransform="matrix(0.0471, 0.0, 0.0, 0.027, 0.0, 28.0)" gradientUnits="userSpaceOnUse" id="gradient1" r="819.2" spreadMethod="pad">
      <stop offset="0.5490196078431373" stop-color="#345827"/>
      <stop offset="1.0" stop-color="#a2cc93"/>
    </radialGradient>
  </defs>
</svg>
