<?xml version="1.0" encoding="UTF-8" standalone="no"?>
<svg xmlns:xlink="http://www.w3.org/1999/xlink" height="55.75px" width="63.5px" xmlns="http://www.w3.org/2000/svg">
  <g transform="matrix(1.0, 0.0, 0.0, 1.0, 31.0, 0.5)">
    <path d="M-6.0 55.0 L-21.75 55.0 Q-25.9 55.0 -28.85 52.05 -31.75 49.15 -30.25 41.0 L-16.0 -0.25 15.25 -0.25 31.75 42.0 Q33.25 49.15 30.3 52.05 27.4 55.0 23.25 55.0 L6.0 55.0 -6.0 55.0 M8.35 44.1 Q11.15 41.05 12.4 38.6 19.6 23.75 13.6 19.4 11.25 17.7 7.6 18.45 4.05 19.05 1.15 25.15 -1.45 19.35 -5.1 19.15 -9.05 18.85 -11.6 20.85 -18.05 25.75 -9.2 39.3 -6.75 43.15 -4.85 45.05 L1.6 50.85 8.35 44.1" fill="url(#gradient0)" fill-rule="evenodd" stroke="none"/>
    <path d="M8.35 44.1 L1.6 50.85 -4.85 45.05 Q-6.75 43.15 -9.2 39.3 -18.05 25.75 -11.6 20.85 -9.05 18.85 -5.1 19.15 -1.45 19.35 1.15 25.15 4.05 19.05 7.6 18.45 11.25 17.7 13.6 19.4 19.6 23.75 12.4 38.6 11.15 41.05 8.35 44.1" fill="url(#gradient1)" fill-rule="evenodd" stroke="none"/>
    <path d="M-6.0 55.0 L-21.75 55.0 Q-25.9 55.0 -28.85 52.05 -31.75 49.15 -30.25 41.0 L-16.0 -0.25 15.25 -0.25 31.75 42.0 Q33.25 49.15 30.3 52.05 27.4 55.0 23.25 55.0 L6.0 55.0" fill="none" stroke="#000000" stroke-linecap="round" stroke-linejoin="round" stroke-width="0.5"/>
    <path d="M6.0 55.0 L-6.0 55.0" fill="none" stroke="#000000" stroke-linecap="round" stroke-linejoin="round" stroke-width="0.5"/>
  </g>
  <defs>
    <radialGradient cx="0" cy="0" gradientTransform="matrix(0.0719, 0.0, 0.0, 0.0412, 0.5, 28.0)" gradientUnits="userSpaceOnUse" id="gradient0" r="819.2" spreadMethod="pad">
      <stop offset="0.5490196078431373" stop-color="#7a0566"/>
      <stop offset="1.0" stop-color="#fa65e0"/>
    </radialGradient>
    <radialGradient cx="0" cy="0" gradientTransform="matrix(0.0225, 0.0, 0.0, 0.0225, 1.5, 32.5)" gradientUnits="userSpaceOnUse" id="gradient1" r="819.2" spreadMethod="pad">
      <stop offset="0.5490196078431373" stop-color="#d30185"/>
      <stop offset="1.0" stop-color="#febaee"/>
    </radialGradient>
  </defs>
</svg>
