<?xml version="1.0" encoding="UTF-8" standalone="no"?>
<svg xmlns:xlink="http://www.w3.org/1999/xlink" height="46.0px" width="46.5px" xmlns="http://www.w3.org/2000/svg">
  <g transform="matrix(1.0, 0.0, 0.0, 1.0, 23.25, 23.0)">
    <path d="M16.05 -15.9 Q22.75 -9.3 22.75 0.0 22.75 9.3 16.05 15.9 9.4 22.5 0.0 22.5 -9.4 22.5 -16.1 15.9 -22.75 9.3 -22.75 0.0 -22.75 -9.3 -16.1 -15.9 -9.4 -22.5 0.0 -22.5 9.4 -22.5 16.05 -15.9 Z" fill="none" stroke="#000000" stroke-linecap="round" stroke-linejoin="round" stroke-width="1.0"/>
    <path d="M-22.7 1.45 Q-22.3 0.65 -21.5 0.1 L-21.15 -0.1 -21.7 0.0 -21.85 0.0 -21.95 -0.05 -22.0 -0.2 -21.95 -0.35 Q-21.25 -1.4 -19.9 -1.55 L-20.35 -1.7 -20.45 -1.75 -20.5 -1.85 -20.5 -2.0 -20.4 -2.1 -18.75 -2.35 -18.65 -2.35 -18.5 -2.3 -18.05 -2.1 -17.95 -2.2 Q-17.15 -2.4 -16.25 -1.8 L-16.2 -1.8 -16.0 -1.8 -14.8 -1.95 -13.85 -1.95 -13.8 -1.95 -13.65 -1.9 -13.6 -1.75 -13.65 -1.6 -13.75 -1.55 -14.2 -1.3 -13.2 -1.15 -12.5 -0.9 -12.4 -0.85 -12.35 -0.8 -12.25 -0.75 -12.25 -0.7 -12.25 -0.55 -12.35 -0.45 -12.45 -0.4 -13.0 -0.45 -13.15 -0.45 -13.2 -0.4 -13.3 -0.4 -13.4 -0.35 -12.8 0.0 -12.7 0.05 -12.55 0.2 -12.3 0.4 -12.05 0.65 -12.05 0.7 -11.75 1.1 -11.65 1.25 -11.5 1.65 -11.2 2.6 -11.2 2.7 -11.3 2.8 -11.45 2.8 -11.55 2.75 -11.95 2.4 -12.35 2.2 -12.4 2.2 -12.55 2.15 -12.65 2.15 -12.75 2.15 -12.7 2.3 -12.5 2.65 -12.45 2.8 -12.35 3.8 -12.55 4.75 -12.55 4.8 -12.65 4.9 -12.75 4.95 -12.8 4.95 -12.9 4.9 -12.95 4.75 -12.95 4.7 -13.1 4.35 -13.2 4.2 -13.55 3.85 -13.55 3.8 -13.65 3.8 -13.85 3.65 -13.8 3.9 -13.8 4.0 -13.8 4.2 -13.85 4.9 -14.05 5.75 -14.1 5.85 -14.2 5.9 -14.3 5.85 -14.35 5.85 -14.4 5.75 -14.45 5.65 -14.55 5.4 -14.7 5.15 -14.9 4.95 -14.95 4.9 -15.15 4.75 -15.4 4.75 -15.45 4.75 -15.6 4.75 -15.8 5.15 -15.9 5.4 -15.95 5.55 -16.0 5.6 -16.15 5.95 -16.2 6.05 -16.35 6.1 -16.4 6.05 -16.45 6.05 -16.55 5.95 -16.55 5.9 -16.65 5.55 -16.65 5.5 -16.7 5.3 -16.75 5.25 -16.9 4.85 -17.05 5.25 -17.15 5.5 -17.15 5.55 -17.2 5.8 -17.3 6.05 -17.35 6.15 -17.5 6.2 -17.55 6.15 -17.65 6.1 -18.2 5.5 -18.35 5.25 -18.5 5.0 -18.7 4.65 -18.7 4.55 -18.75 4.6 -19.25 5.6 -19.35 5.75 -19.5 5.75 -19.65 5.7 -20.2 4.2 -20.5 4.75 -20.6 4.9 -20.75 4.95 -20.85 4.85 Q-21.45 4.25 -21.2 3.4 -21.9 3.45 -22.1 4.15 L-22.2 4.25 -22.3 4.3 -22.35 4.3 -22.55 3.0 -22.35 4.3 -22.45 4.25 -22.5 4.15 -22.55 3.0 -22.05 1.8 Q-22.15 1.7 -22.2 1.7 L-22.45 1.9 -22.6 2.0 -22.65 2.0 -22.7 1.5 -22.65 2.0 -22.75 1.95 -22.8 1.85 -22.8 1.7 -22.8 1.65 -22.7 1.5 -22.7 1.45 M-20.35 10.2 L-16.8 6.65 -16.75 6.7 -16.6 6.65 -16.55 6.55 -16.45 6.3 -16.35 6.35 -16.2 6.3 -16.15 6.2 -16.05 5.95 -15.95 6.05 -15.9 6.05 -15.8 6.4 -15.7 6.55 -15.6 6.6 -15.45 6.55 -15.4 6.45 -15.25 6.1 -15.2 6.05 -15.15 5.9 -15.05 5.65 -14.85 5.25 -14.4 6.0 -14.35 6.1 -14.2 6.15 -14.1 6.1 -14.05 6.0 -13.95 5.65 -13.9 5.75 -13.85 5.85 -13.8 5.85 -13.8 5.9 -20.15 10.55 -20.35 10.2 M17.9 13.9 L16.2 14.1 16.05 14.1 16.2 13.65 16.2 13.55 16.25 13.4 16.3 13.15 16.55 12.4 Q17.05 10.25 18.3 8.3 L18.35 8.35 18.55 8.35 18.7 8.25 18.7 8.05 18.4 6.65 Q18.2 5.3 18.45 3.85 L18.45 3.8 18.5 3.75 18.6 3.6 18.55 3.5 Q17.95 2.85 17.1 2.5 L16.95 2.45 15.95 2.35 15.3 1.3 15.1 0.65 15.0 0.3 Q14.85 -0.4 14.85 -1.1 L14.85 -1.25 15.55 -1.1 15.95 -0.7 16.1 -0.4 16.4 0.4 16.4 0.55 16.4 0.6 16.45 0.65 Q16.7 1.65 17.6 2.25 L17.6 2.2 17.8 2.3 17.75 2.3 18.6 2.45 18.75 2.35 18.8 2.2 18.7 2.1 18.55 2.05 17.9 1.95 17.8 1.9 Q16.95 1.4 16.8 0.45 L16.75 0.35 16.75 0.25 16.3 -0.9 16.25 -0.9 16.15 -1.05 17.25 -0.55 18.4 0.7 Q18.55 1.55 19.7 2.0 L20.45 2.2 20.5 2.2 21.15 2.1 21.2 2.1 Q22.0 2.3 21.95 3.25 L21.95 3.3 21.6 4.15 21.55 4.2 21.15 4.65 21.1 4.75 21.15 4.9 21.25 4.95 21.2 5.05 21.15 6.65 21.25 7.35 21.25 7.4 21.25 7.45 21.4 7.9 21.35 8.0 21.2 8.35 20.65 9.55 20.6 9.7 20.35 8.95 20.25 8.85 20.1 8.8 19.95 8.85 Q19.2 9.35 18.95 10.15 L18.35 12.2 18.1 13.4 18.05 13.55 18.05 13.75 18.0 13.9 17.95 13.9 17.9 13.9 18.05 13.75 17.9 13.9 M-18.4 -0.6 L-18.7 -0.35 -18.7 -0.05 -18.55 0.15 -18.55 0.25 -18.5 0.65 -18.35 1.2 -18.15 0.65 -18.05 0.25 -17.95 0.1 -17.95 0.05 -18.05 -0.35 -18.4 -0.6 M-17.7 -0.65 L-17.7 -0.35 -17.55 0.0 -17.5 0.3 -17.5 0.4 -17.35 0.9 -17.15 0.4 -17.15 0.3 -17.0 -0.1 -17.0 -0.2 -17.05 -0.6 -17.4 -0.85 -17.7 -0.65 M-16.65 -0.3 L-16.55 -0.2 -16.45 0.3 -16.45 0.4 -16.3 0.95 -16.1 0.4 -16.1 0.3 -15.95 -0.15 -15.9 -0.3 -16.0 -0.6 Q-16.15 -0.85 -16.35 -0.85 L-16.65 -0.6 -16.65 -0.3 M-15.4 -0.5 L-15.65 -0.35 -15.7 -0.3 -15.7 0.05 -15.55 0.35 -15.5 0.75 -15.35 1.3 -15.15 0.75 -15.05 0.35 -15.0 0.2 -15.05 -0.25 -15.2 -0.4 -15.4 -0.5 M-11.65 -0.35 L-11.75 -0.4 -11.85 -0.45 -11.75 -0.55 -11.75 -0.7 -11.75 -0.75 -10.6 -0.95 Q-10.75 -0.1 -10.35 0.7 -9.85 1.85 -8.7 2.3 L-6.4 2.2 -6.35 2.2 Q-5.25 1.65 -4.8 0.5 L-4.8 0.4 1.65 10.8 -7.5 2.5 -10.45 10.6 -9.2 2.55 -11.6 4.3 -11.7 3.3 -11.75 3.15 -11.95 2.8 -12.0 2.65 -11.9 2.65 -11.55 3.0 -11.45 3.05 -11.3 3.05 -11.2 2.95 -11.2 2.9 Q-11.0 3.0 -10.8 3.25 L-10.7 3.3 -10.55 3.3 -10.45 3.2 -10.45 3.1 Q-10.6 2.35 -10.9 1.75 L-11.0 1.65 -11.15 1.25 -11.25 1.1 -10.85 0.7 -11.55 0.7 -11.55 0.65 -11.8 0.4 -12.05 0.2 -12.2 0.05 -11.7 0.1 -11.6 0.05 -11.5 -0.05 -11.5 -0.2 -11.6 -0.3 -11.65 -0.35 M-10.6 -1.1 L-16.55 -12.2 -8.1 -3.5 -8.95 -3.3 -9.0 -3.3 Q-10.1 -2.75 -10.5 -1.55 L-10.6 -1.1 M-8.2 -3.65 L-5.2 -12.35 -6.45 -3.4 9.6 -14.05 -3.9 -1.7 0.4 -1.4 0.5 -2.4 Q2.5 -2.1 4.25 -1.15 L4.5 -1.0 7.5 1.5 Q7.6 -7.05 13.15 -15.0 L16.5 -11.0 Q10.6 -6.0 8.6 3.3 3.2 2.1 0.0 2.75 L0.3 -0.4 -4.6 0.25 Q-4.45 -0.75 -4.9 -1.7 -5.5 -2.95 -6.85 -3.45 L-8.2 -3.65 M-6.9 -2.6 Q-6.0 -2.35 -5.65 -1.55 -5.25 -0.65 -5.55 0.25 -5.9 1.1 -6.7 1.45 L-6.75 1.45 -8.4 1.55 Q-9.3 1.25 -9.65 0.4 -10.05 -0.4 -9.75 -1.25 -9.45 -2.15 -8.65 -2.6 L-8.6 -2.6 Q-7.8 -2.95 -6.9 -2.6 M19.65 -1.05 Q20.15 -1.55 20.85 -1.55 21.55 -1.55 22.05 -1.05 L22.25 -0.8 22.55 0.15 Q22.55 0.85 22.05 1.35 L21.35 1.8 21.3 1.8 20.85 1.85 20.15 1.7 20.05 1.65 19.65 1.35 Q19.15 0.85 19.15 0.15 19.15 -0.4 19.5 -0.8 L19.65 -1.05 M14.7 0.85 L14.4 1.25 13.95 1.85 13.85 1.9 13.1 1.25 14.1 0.0 14.3 0.3 14.7 0.85 M14.5 2.9 L6.35 13.1 Q3.45 10.6 12.1 0.95 L14.5 2.9 M-13.05 4.7 L-12.95 5.0 -12.9 5.15 -12.8 5.2 -13.1 5.4 -13.05 4.7 M-12.55 5.0 L-12.45 4.7 -12.45 4.75 -12.4 4.9 -12.55 5.0 M-18.25 2.55 L-18.45 2.05 -18.6 2.55 Q-18.65 3.2 -18.8 3.25 L-18.8 3.55 -18.5 3.8 -18.15 3.55 -18.05 3.15 -18.25 2.55 M-16.2 2.8 L-16.4 2.3 -16.55 2.8 -16.75 3.5 -16.75 3.85 -16.45 4.05 -16.1 3.8 -16.05 3.4 -16.2 2.8 M-17.25 2.8 L-17.45 2.3 -17.6 2.85 -17.8 3.55 -17.8 3.85 -17.5 4.1 -17.15 3.85 -17.1 3.4 -17.25 2.8 M-15.15 3.5 L-15.1 3.05 -15.25 2.45 -15.45 1.95 -15.6 2.45 -15.8 3.2 -15.8 3.5 -15.5 3.75 -15.15 3.5" fill="#000000" fill-rule="evenodd" stroke="none"/>
    <path d="M-22.35 4.3 Q-21.8 7.4 -20.35 10.2 L-20.15 10.55 Q-18.6 13.4 -16.1 15.9 -9.4 22.5 0.0 22.5 9.4 22.5 16.05 15.9 L17.9 13.9 18.05 13.75 Q19.55 11.8 20.6 9.7 L20.65 9.55 21.2 8.35 21.35 8.0 21.4 7.9 Q22.75 4.2 22.75 0.0 22.75 -9.3 16.05 -15.9 9.4 -22.5 0.0 -22.5 -9.4 -22.5 -16.1 -15.9 -22.75 -9.3 -22.75 0.0 L-22.7 1.45 -22.7 1.5 -22.65 2.0 -22.55 3.0 -22.35 4.3 Z" fill="none" stroke="#000000" stroke-linecap="round" stroke-linejoin="round" stroke-width="1.0"/>
  </g>
</svg>
