<?xml version="1.0" encoding="UTF-8" standalone="no"?>
<svg xmlns:xlink="http://www.w3.org/1999/xlink" height="46.0px" width="46.5px" xmlns="http://www.w3.org/2000/svg">
  <g transform="matrix(1.0, 0.0, 0.0, 1.0, 23.25, 23.0)">
    <path d="M0.0 -22.5 Q9.4 -22.5 16.05 -15.9 22.75 -9.3 22.75 0.0 22.75 9.3 16.05 15.9 9.4 22.5 0.0 22.5 -9.4 22.5 -16.1 15.9 -22.75 9.3 -22.75 0.0 -22.75 -9.3 -16.1 -15.9 -9.4 -22.5 0.0 -22.5 Z" fill="none" stroke="#000000" stroke-linecap="round" stroke-linejoin="round" stroke-width="1.0"/>
    <path d="M2.3 -7.0 L2.25 -6.95 2.2 -6.8 2.25 -6.5 2.0 -6.55 1.8 -6.45 1.7 -6.35 1.7 -6.2 2.0 -6.0 1.75 -6.05 1.55 -5.95 1.45 -5.85 1.45 -5.7 2.15 -5.35 1.95 -4.4 2.25 -4.25 2.5 -4.35 2.55 -4.0 2.85 -4.0 3.05 -4.2 3.1 -4.35 3.25 -5.0 4.85 -4.75 5.0 -4.95 5.0 -5.15 4.8 -5.25 3.3 -5.65 3.3 -5.8 3.5 -5.9 3.5 -6.05 3.5 -6.1 3.55 -6.25 3.55 -6.45 3.55 -6.8 3.35 -7.0 3.05 -7.0 3.0 -6.95 2.95 -6.8 2.95 -6.45 2.9 -6.35 2.85 -6.35 2.8 -6.8 2.6 -7.0 2.3 -7.0 M7.1 -8.0 L9.0 -8.75 11.8 -1.75 7.1 0.35 7.1 -8.0 M5.0 -15.0 L5.8 -14.7 6.1 -13.9 6.1 17.45 5.8 18.2 5.0 18.55 -6.0 18.55 Q-6.45 18.55 -6.75 18.2 L-7.1 17.45 -7.1 -13.9 -6.75 -14.7 Q-6.45 -15.05 -6.0 -15.0 L5.0 -15.0 M18.75 -7.1 L11.75 -4.3 10.85 -6.55 17.85 -9.4 18.75 -7.1 M-4.45 -12.5 L-4.5 -12.45 -4.55 -12.3 -4.5 -12.2 -4.8 -11.85 -4.9 -12.0 -5.0 -12.0 -5.2 -12.0 -5.25 -11.95 -5.3 -11.8 -5.3 -11.45 -5.25 -11.35 -5.8 -10.7 -5.4 -10.5 -5.0 -10.8 -4.85 -10.35 -5.55 -9.8 -5.25 -9.5 -4.75 -9.75 -4.75 -9.55 -4.25 -9.25 -3.95 -9.55 -4.05 -9.75 -4.2 -9.95 -4.2 -10.1 -4.0 -10.25 -3.7 -9.5 -3.4 -9.5 -3.25 -9.7 -3.2 -9.9 -3.25 -10.05 -3.4 -10.75 -2.95 -11.3 -3.15 -11.5 -3.25 -11.5 -3.45 -11.5 -3.5 -11.45 -3.6 -11.35 -3.8 -11.95 -2.7 -13.3 -2.9 -13.5 -3.0 -13.5 -3.2 -13.5 -3.25 -13.45 -3.4 -13.3 -4.2 -12.5 -4.45 -12.5 M-4.2 -10.9 L-4.3 -10.85 -4.45 -11.3 -4.35 -11.4 -4.2 -10.9 M-8.45 -1.7 L-8.25 -1.3 -8.2 -1.15 Q-8.2 -0.6 -8.75 -0.45 L-9.2 -0.3 -9.0 -0.15 -8.75 0.05 -8.7 0.45 -8.7 0.8 Q-9.1 1.5 -10.0 1.45 L-10.15 1.65 -10.2 1.8 -9.15 2.0 -8.95 2.2 -8.95 2.35 -8.95 2.75 -10.1 3.9 -10.2 4.05 -10.05 4.0 -9.7 3.75 Q-9.0 3.6 -8.5 4.1 L-8.45 4.3 -8.45 4.5 -8.0 5.0 -7.95 5.1 -7.85 5.2 -7.5 5.5 -7.45 5.6 -7.8 6.35 -8.15 6.75 -8.45 6.75 -8.55 6.55 -8.55 6.35 -8.75 6.4 -9.0 6.55 -9.45 6.5 -9.75 6.1 -9.8 5.95 Q-18.5 7.45 -20.45 3.0 L-9.3 -1.4 -9.3 -1.55 -9.05 -1.95 -9.05 -2.15 -9.05 -2.5 -8.45 -3.0 -8.25 -3.05 -7.9 -3.0 -7.7 -2.8 Q-7.85 -2.4 -8.4 -2.25 L-8.4 -2.05 -8.45 -1.75 -8.45 -1.7 M-2.2 2.3 L-1.45 1.2 -1.65 1.0 -2.0 0.95 Q-3.3 1.1 -3.55 2.35 L-3.45 2.75 -3.3 2.95 -3.3 3.3 -3.2 3.5 -2.9 3.5 -2.7 3.3 -2.7 2.95 -2.65 2.55 -2.4 2.5 -2.2 2.3 M-4.75 3.6 Q-4.75 2.2 -3.6 1.2 -2.4 0.2 -0.75 0.2 0.9 0.2 2.05 1.2 3.25 2.2 3.25 3.6 3.25 5.0 2.05 6.0 0.9 7.0 -0.75 7.0 -2.4 7.0 -3.6 6.0 -4.75 5.0 -4.75 3.6 M3.3 -2.9 L-7.0 -0.5 -4.45 10.4 5.85 8.0 3.3 -2.9 M2.4 15.65 L2.25 15.55 2.45 15.1 2.6 15.3 2.4 15.65 M3.55 14.25 L3.5 14.3 3.35 14.45 3.05 14.75 2.85 14.55 2.95 14.35 3.05 14.2 2.85 14.0 2.5 13.95 2.35 14.0 1.85 13.5 1.75 13.5 1.5 13.55 1.35 13.75 1.2 14.1 1.85 14.3 2.05 14.5 1.7 15.2 1.35 15.0 1.05 15.0 1.0 15.05 0.95 15.2 1.0 15.3 1.5 15.65 1.2 16.6 1.5 16.75 1.8 16.6 1.95 16.25 2.0 16.1 2.15 16.25 2.05 17.25 2.35 17.25 2.55 17.05 2.6 16.9 2.65 16.8 3.05 17.25 3.35 17.25 3.5 17.05 3.55 16.85 3.45 16.7 3.0 16.15 3.15 15.85 3.3 16.0 3.8 15.75 3.7 15.6 3.5 15.3 4.05 14.45 3.85 14.25 3.75 14.25 3.55 14.25 M-5.45 15.2 L-5.65 15.0 -5.95 15.0 -6.0 15.05 -6.05 15.2 -5.85 16.85 -6.4 16.0 -6.5 16.0 -6.8 16.25 -6.8 16.4 -5.95 18.5 -5.45 18.25 -5.5 18.05 -5.5 18.0 -5.4 18.0 -5.2 17.8 -5.2 17.6 Q-5.15 16.35 -5.45 15.2" fill="#000000" fill-rule="evenodd" stroke="none"/>
    <path d="M-0.5 -21.0 L-0.4 -17.95 -0.25 -18.0 4.5 -16.25 M-5.75 -16.0 L-0.4 -17.95" fill="none" stroke="#000000" stroke-linecap="round" stroke-linejoin="round" stroke-width="1.0"/>
  </g>
</svg>
