<?xml version="1.0" encoding="UTF-8" standalone="no"?>
<svg xmlns:xlink="http://www.w3.org/1999/xlink" height="46.0px" width="46.5px" xmlns="http://www.w3.org/2000/svg">
  <g transform="matrix(1.0, 0.0, 0.0, 1.0, 23.25, 23.0)">
    <path d="M0.0 -22.5 Q9.4 -22.5 16.05 -15.9 22.75 -9.3 22.75 0.0 22.75 9.3 16.05 15.9 9.4 22.5 0.0 22.5 -9.4 22.5 -16.1 15.9 -22.75 9.3 -22.75 0.0 -22.75 -9.3 -16.1 -15.9 -9.4 -22.5 0.0 -22.5 Z" fill="none" stroke="#000000" stroke-linecap="round" stroke-linejoin="round" stroke-width="1.0"/>
    <path d="M7.25 -3.25 Q10.05 -3.25 12.25 -2.0 L11.4 -1.4 Q9.55 -2.35 7.25 -2.3 3.65 -2.35 1.1 -0.05 -1.4 2.3 -1.4 5.55 -1.4 8.8 1.1 11.1 3.65 13.4 7.25 13.45 10.85 13.4 13.4 11.1 15.95 8.8 15.95 5.55 15.95 2.65 13.95 0.5 14.25 0.15 14.7 -0.05 16.9 2.35 16.9 5.5 16.9 9.1 14.05 11.65 11.25 14.25 7.25 14.25 3.25 14.25 0.4 11.65 -1.05 10.35 -1.75 8.75 -2.4 7.25 -2.4 5.5 -2.4 3.75 -1.75 2.3 -1.05 0.65 0.4 -0.7 3.25 -3.25 7.25 -3.25 M2.85 -0.5 Q4.85 -1.8 5.1 -0.1 L4.1 0.4 Q2.1 1.35 0.85 2.9 L-0.3 2.65 0.4 1.75 Q1.3 0.3 2.85 -0.5 M13.3 -3.35 L13.3 -3.2 Q13.25 -1.95 13.95 -1.25 14.55 -0.7 15.75 -0.6 14.85 -0.6 14.25 -0.25 L13.7 0.15 13.4 0.45 13.25 0.8 13.05 1.3 13.0 1.45 12.95 1.7 12.9 1.9 12.85 1.65 12.85 1.55 12.8 1.25 12.65 0.75 12.55 0.55 12.3 0.15 11.55 -0.6 11.4 -0.65 11.05 -0.8 10.95 -0.8 10.9 -0.8 10.5 -0.85 10.8 -0.85 10.9 -0.85 11.1 -0.95 11.3 -0.95 11.65 -1.05 11.9 -1.15 12.5 -1.6 Q13.1 -2.2 13.3 -3.2 L13.3 -3.35 M11.5 5.7 Q11.8 6.25 11.5 6.45 11.2 6.6 11.05 8.15 10.9 9.65 10.7 9.4 L10.25 8.15 9.85 6.75 Q9.65 6.3 10.0 5.75 10.3 5.15 10.75 5.15 11.2 5.15 11.5 5.7 M10.45 9.95 Q10.75 10.1 10.5 10.7 L9.75 11.3 Q9.3 11.3 8.95 10.75 8.6 10.2 8.75 9.75 L9.1 8.3 9.5 7.05 Q9.7 6.75 9.9 8.3 10.1 9.8 10.45 9.95 M9.15 5.05 Q9.45 5.6 9.15 5.8 8.85 5.95 8.7 7.5 8.55 9.0 8.35 8.75 L7.9 7.5 7.5 6.1 Q7.3 5.65 7.65 5.1 7.95 4.5 8.4 4.5 8.85 4.5 9.15 5.05 M5.9 4.55 Q6.35 4.55 6.65 5.1 6.95 5.65 6.65 5.85 6.35 6.0 6.2 7.55 6.05 9.05 5.85 8.8 L5.4 7.55 5.0 6.15 Q4.8 5.7 5.15 5.15 5.45 4.55 5.9 4.55 M3.65 5.35 Q4.1 5.35 4.4 5.9 4.7 6.45 4.4 6.65 4.1 6.8 3.95 8.35 3.8 9.85 3.6 9.6 L3.15 8.35 2.75 6.95 Q2.55 6.5 2.9 5.95 3.2 5.35 3.65 5.35 M-5.2 -19.0 Q-6.3 -20.1 -7.85 -20.1 -9.4 -20.1 -10.45 -19.0 -11.5 -18.0 -11.55 -16.6 L-11.55 -16.55 -11.55 -16.4 -11.55 -15.95 Q-11.45 -14.95 -10.85 -14.15 L-10.45 -13.75 -10.15 -13.45 -9.15 -12.9 -7.85 -12.7 Q-6.3 -12.7 -5.2 -13.75 -4.3 -14.7 -4.15 -15.95 L-4.15 -16.4 Q-4.15 -17.95 -5.2 -19.0 M6.25 9.1 L6.6 7.65 7.0 6.45 Q7.15 6.15 7.4 7.65 7.6 9.15 7.95 9.35 8.25 9.5 7.95 10.05 7.7 10.6 7.25 10.65 6.8 10.65 6.45 10.1 6.1 9.55 6.25 9.1 M3.95 9.55 L4.3 8.15 4.7 6.9 Q4.85 6.6 5.1 8.15 5.3 9.65 5.65 9.8 5.95 9.95 5.65 10.55 5.4 11.1 4.95 11.1 4.5 11.15 4.15 10.6 3.8 10.0 3.95 9.55 M-4.9 -13.45 Q-6.1 -12.25 -7.8 -12.25 L-9.3 -12.5 Q-9.9 -12.75 -10.35 -13.1 L-10.75 -13.45 -11.15 -13.9 Q-11.8 -14.8 -11.9 -15.9 L-11.95 -16.35 -11.95 -16.55 -11.95 -16.6 Q-11.85 -18.2 -10.75 -19.3 -9.55 -20.5 -7.8 -20.5 -6.1 -20.5 -4.9 -19.3 -3.7 -18.1 -3.7 -16.35 L-3.7 -15.9 Q-3.85 -14.5 -4.9 -13.45 M-10.75 -7.45 Q-8.35 -4.95 -5.05 -3.4 L-4.95 -3.35 -4.95 1.1 Q-8.3 -0.5 -10.55 -3.05 L-10.75 -3.25 -10.75 -7.45 M-10.15 -6.45 L-10.15 -3.2 -10.0 -3.05 Q-8.3 -1.05 -5.7 0.15 L-5.7 -3.3 -5.75 -3.3 -5.8 -3.3 -7.25 -4.05 -8.85 -5.2 -9.85 -6.15 -9.85 -6.1 -10.15 -6.45 M-10.75 -12.25 L-10.6 -12.15 -10.15 -11.9 -9.55 -11.35 Q-7.65 -9.65 -5.05 -8.4 L-5.0 -8.4 -4.95 -8.4 -4.95 -3.9 Q-8.25 -5.45 -10.55 -7.95 L-10.75 -8.05 -10.75 -12.25 M-4.95 -8.9 Q-7.15 -9.95 -8.85 -11.4 -6.9 -10.95 -4.95 -12.25 L-4.95 -8.9 M-5.25 -9.3 L-5.25 -11.6 Q-6.6 -10.75 -8.0 -11.05 -6.8 -10.05 -5.25 -9.3 M-4.95 6.1 Q-8.3 4.5 -10.55 1.95 L-10.75 1.75 -10.75 -2.5 Q-8.4 0.0 -5.05 1.6 L-5.0 1.6 -4.95 1.6 -4.95 6.1 M-9.9 6.9 Q-8.2 8.9 -5.6 10.1 L-5.6 6.65 -5.65 6.65 -5.7 6.65 Q-8.3 5.45 -10.05 3.5 L-10.05 6.75 -9.9 6.9 M-4.95 11.1 Q-8.3 9.5 -10.55 6.95 L-10.75 6.7 -10.75 2.5 Q-8.4 5.0 -5.05 6.6 L-5.0 6.6 -4.95 6.6 -4.95 11.1 M-4.95 11.65 L-4.95 16.15 -5.0 16.15 Q-8.3 14.5 -10.55 11.95 L-10.75 11.7 -10.75 7.5 Q-8.4 10.0 -5.05 11.6 L-4.95 11.65 M-10.35 13.3 L-10.35 16.0 -6.75 16.0 Q-8.85 14.9 -10.35 13.3 M-10.75 12.5 Q-8.65 14.8 -5.65 16.35 L-10.75 16.35 -10.75 12.5 M-12.55 17.0 L-3.15 17.0 -3.15 18.4 -12.55 18.4 -12.55 17.0" fill="#000000" fill-rule="evenodd" stroke="none"/>
  </g>
</svg>
