<?xml version="1.0" encoding="UTF-8" standalone="no"?>
<svg xmlns:xlink="http://www.w3.org/1999/xlink" height="46.0px" width="46.5px" xmlns="http://www.w3.org/2000/svg">
  <g transform="matrix(1.0, 0.0, 0.0, 1.0, 23.25, 23.0)">
    <path d="M16.05 -15.9 Q22.75 -9.3 22.75 0.0 22.75 9.3 16.05 15.9 9.4 22.5 0.0 22.5 -9.4 22.5 -16.1 15.9 -22.75 9.3 -22.75 0.0 -22.75 -9.3 -16.1 -15.9 -9.4 -22.5 0.0 -22.5 9.4 -22.5 16.05 -15.9 Z" fill="none" stroke="#000000" stroke-linecap="round" stroke-linejoin="round" stroke-width="1.0"/>
    <path d="M4.3 -20.55 L4.4 -20.4 Q3.85 -17.4 1.5 -16.5 L0.8 -16.3 Q-2.0 -17.3 -1.85 -20.95 -2.25 -18.55 -3.7 -17.4 -3.65 -19.25 -2.3 -20.55 L-2.25 -20.65 -1.85 -20.95 Q-0.65 -21.95 1.0 -21.95 2.85 -21.95 4.2 -20.65 L4.3 -20.55 M5.2 -13.45 L5.65 -13.45 Q9.75 -13.2 11.8 -9.2 13.0 -6.85 11.65 -4.15 9.9 -0.55 8.25 -0.45 7.05 -2.55 7.15 -4.35 7.3 -6.2 8.9 -7.7 L9.1 -8.1 9.0 -8.55 8.7 -8.85 7.0 -9.8 6.6 -9.95 6.2 -9.85 6.0 -9.55 5.65 -8.7 Q4.9 -6.7 4.6 -4.7 4.05 -1.5 4.65 1.65 L4.65 1.8 4.7 2.0 5.65 5.2 6.85 9.15 8.2 13.3 6.8 11.95 6.6 11.85 Q5.7 11.2 4.7 10.85 L4.6 10.35 4.15 9.3 4.1 10.65 3.5 10.45 3.45 10.3 3.15 9.1 2.15 6.1 1.85 5.75 1.5 5.65 Q1.25 5.65 1.05 5.8 -0.8 7.1 -1.6 9.1 L-1.7 9.4 -1.7 9.45 -2.0 10.3 -2.05 10.55 Q-3.6 10.95 -4.9 11.85 L-5.05 11.95 Q-7.55 13.75 -7.55 16.25 L-7.4 17.4 -6.6 19.05 -5.8 19.95 -9.7 20.4 -8.35 15.55 Q-7.7 12.85 -6.6 10.3 L-6.1 9.1 -3.9 4.95 -3.95 4.8 -3.6 4.3 -3.6 4.25 -2.8 2.55 Q-3.0 1.95 -2.8 1.95 L-3.2 -0.25 Q-3.75 -4.1 -3.05 -8.1 L-3.1 -8.5 -3.4 -8.8 -3.65 -8.9 -3.55 -9.15 -4.6 -8.95 Q-6.7 -9.2 -7.15 -8.0 -5.8 -7.6 -5.45 -5.9 -5.1 -3.45 -5.55 -0.75 L-5.55 -0.7 -5.65 -0.6 -5.75 -0.6 Q-8.5 -1.4 -9.5 -4.1 -10.35 -6.25 -10.55 -8.4 -10.25 -9.75 -9.6 -10.7 -9.0 -11.55 -8.05 -12.05 L-8.0 -12.05 -6.2 -12.9 -3.25 -13.45 -3.2 -13.4 -2.9 -12.95 -2.8 -12.6 -2.65 -11.85 -2.6 -11.4 -2.55 -11.8 -2.4 -12.35 -2.3 -12.25 -1.25 -11.45 -1.05 -11.35 1.0 -10.9 2.2 -11.05 2.25 -11.05 Q2.95 -11.3 3.6 -11.7 L3.65 -11.5 3.75 -11.05 3.8 -11.5 3.9 -11.9 4.3 -12.25 5.2 -13.45 M0.0 -16.0 L0.15 -16.0 Q-1.25 -15.85 -1.9 -14.9 L-2.05 -14.6 -2.1 -14.5 -2.3 -13.95 -2.35 -13.9 -2.45 -13.55 -2.45 -13.35 -2.5 -13.55 -2.6 -14.0 -2.65 -14.25 -2.85 -14.75 -3.1 -15.25 -3.95 -16.0 -4.5 -16.25 -4.7 -16.25 -5.1 -16.3 -4.65 -16.4 -4.45 -16.4 -3.8 -16.55 Q-3.45 -16.7 -3.15 -16.95 -2.25 -17.6 -2.0 -19.05 -2.15 -16.65 -0.1 -16.15 L-0.7 -16.1 0.0 -16.0 M0.95 -15.7 L1.25 -15.6 Q2.05 -15.15 2.65 -14.3 L3.1 -13.5 3.25 -13.1 Q2.75 -12.85 2.25 -12.7 L2.2 -12.7 1.0 -12.55 -1.05 -13.0 -1.25 -13.1 Q-1.6 -13.25 -1.95 -13.55 L-1.7 -14.0 Q-0.75 -15.35 0.95 -15.7 M5.7 -16.8 Q4.45 -18.05 4.5 -20.35 5.7 -19.05 5.7 -17.25 L5.7 -16.8 M3.75 11.85 L3.35 12.65 Q2.35 14.15 2.35 15.9 2.35 17.75 4.15 18.1 6.25 18.5 6.75 16.55 7.1 14.75 6.0 13.3 L5.7 12.9 6.75 13.9 Q7.6 14.9 7.6 16.25 L7.6 16.3 7.5 17.15 6.85 18.45 6.7 18.7 5.65 19.65 Q4.35 20.55 2.65 20.95 L0.85 21.1 -2.05 20.6 -2.35 20.5 -3.9 19.7 -4.45 19.2 -5.1 18.5 -5.8 17.15 -5.9 16.25 Q-5.9 14.25 -3.9 12.8 L-3.75 12.7 Q-2.75 12.0 -1.5 11.7 L0.85 11.35 2.95 11.6 3.75 11.85 M9.2 17.35 L9.3 16.3 10.45 19.35 8.2 19.3 8.4 19.0 9.2 17.35 M4.3 11.4 L4.6 12.2 4.7 12.5 5.35 13.95 5.6 14.25 Q6.35 15.25 6.1 16.55 5.75 17.85 4.3 17.6 3.05 17.35 3.05 16.05 3.05 14.85 3.75 13.8 L4.0 13.25 4.25 12.4 4.3 11.4" fill="#000000" fill-rule="evenodd" stroke="none"/>
    <path d="M4.3 -18.75 L4.3 -18.6 Q4.3 -17.2 5.05 -16.45 5.7 -15.85 7.0 -15.7 5.2 -15.7 4.4 -14.55 L4.25 -14.2 4.0 -13.65 3.95 -13.5 3.9 -13.25 3.85 -13.0 3.8 -13.25 3.8 -13.4 3.75 -13.7 3.6 -14.25 3.5 -14.45 3.2 -14.95 2.35 -15.7 2.2 -15.8 1.8 -15.95 1.75 -15.95 1.65 -15.95 1.2 -16.0 1.55 -16.05 1.65 -16.05 1.85 -16.1 2.1 -16.15 2.5 -16.25 Q3.95 -16.85 4.3 -18.6 L4.3 -18.75" fill="#000000" fill-rule="evenodd" stroke="none"/>
  </g>
</svg>
