<?xml version="1.0" encoding="UTF-8" standalone="no"?>
<svg xmlns:xlink="http://www.w3.org/1999/xlink" height="46.0px" width="46.5px" xmlns="http://www.w3.org/2000/svg">
  <g transform="matrix(1.0, 0.0, 0.0, 1.0, 23.25, 23.0)">
    <path d="M16.05 -15.9 Q22.75 -9.3 22.75 0.0 22.75 9.3 16.05 15.9 9.4 22.5 0.0 22.5 -9.4 22.5 -16.1 15.9 -22.75 9.3 -22.75 0.0 -22.75 -9.3 -16.1 -15.9 -9.4 -22.5 0.0 -22.5 9.4 -22.5 16.05 -15.9 Z" fill="none" stroke="#000000" stroke-linecap="round" stroke-linejoin="round" stroke-width="1.0"/>
    <path d="M6.8 -12.55 L5.4 -12.8 4.05 -12.55 Q3.55 -12.35 3.15 -11.95 2.65 -11.75 2.25 -11.35 L2.15 -11.25 Q1.1 -10.25 1.1 -8.75 L1.15 -8.4 1.15 -8.1 1.2 -8.0 -18.6 -10.55 -18.1 -11.95 Q-16.75 -14.35 -12.0 -15.1 L-11.6 -14.9 -11.4 -14.8 -10.3 -13.75 -9.9 -13.15 -9.8 -12.85 -9.6 -12.2 -9.55 -11.75 -9.5 -11.6 -9.45 -11.25 -9.4 -11.55 -9.3 -11.9 -9.25 -12.1 -8.95 -12.85 -8.7 -13.3 Q-7.7 -14.75 -5.35 -14.8 -6.65 -14.9 -7.45 -15.4 -0.9 -15.45 9.5 -13.55 L9.15 -10.75 8.95 -11.0 8.85 -11.1 8.0 -11.7 7.95 -11.75 7.85 -11.85 6.8 -12.55 M8.0 -10.95 L8.15 -10.75 8.8 -9.65 8.9 -9.3 8.95 -9.1 9.0 -8.5 8.95 -7.85 Q8.75 -6.8 7.95 -6.0 7.25 -5.35 6.4 -5.05 L6.35 -5.05 5.4 -4.95 3.9 -5.3 3.75 -5.35 Q3.3 -5.6 2.9 -6.0 2.15 -6.75 1.95 -7.75 L1.9 -7.85 1.9 -8.15 1.85 -8.5 Q1.85 -10.0 2.9 -11.0 L3.0 -11.1 3.15 -11.2 Q3.55 -11.6 4.05 -11.8 L5.4 -12.05 6.8 -11.8 7.85 -11.1 7.95 -11.0 8.0 -10.95 M16.3 -8.85 L15.2 -10.2 14.45 -10.8 16.55 -10.55 16.3 -8.8 16.3 -8.85 M0.5 -4.2 L4.1 -4.0 4.35 -4.0 Q6.2 -4.45 8.05 -4.05 L9.85 -4.0 Q11.95 -4.1 12.75 -6.1 11.35 -7.2 10.95 -9.0 L10.85 -9.35 10.85 -9.45 10.75 -10.6 10.8 -11.55 10.85 -11.8 12.6 -11.3 13.45 -10.8 14.2 -10.2 15.3 -8.85 15.3 -8.8 16.0 -6.85 16.25 -5.5 13.5 -2.95 Q12.6 -1.95 11.25 -1.85 10.2 -0.35 10.15 1.65 10.05 3.75 11.2 5.3 L11.5 5.9 Q13.4 6.2 15.1 7.3 16.15 8.9 15.2 10.85 14.35 12.5 13.0 13.75 12.55 14.85 13.15 15.9 L12.85 16.15 Q11.6 15.6 10.25 15.7 L6.6 15.65 Q8.2 14.7 8.7 12.95 9.25 11.15 10.55 9.8 10.6 7.85 8.5 8.65 7.6 9.8 6.25 10.35 L2.75 10.7 Q2.4 12.1 1.35 13.05 -0.15 14.45 -0.65 15.9 L-2.75 15.65 -6.1 16.2 -5.3 15.1 Q-3.7 13.9 -2.95 12.0 L-1.75 8.65 Q-1.35 7.25 0.35 7.1 L1.4 7.25 5.1 7.0 5.35 6.9 Q6.2 5.95 6.05 4.4 5.9 2.6 4.85 1.1 3.7 -0.5 2.45 -1.05 L2.0 -0.8 Q0.2 -0.05 -1.65 -1.1 -3.1 0.0 -5.0 0.15 -7.05 0.25 -8.65 -0.5 -9.65 -0.75 -9.95 -1.85 -10.65 -3.9 -9.4 -5.25 -9.2 -4.15 -8.25 -3.6 L-5.25 -4.0 -1.75 -3.35 -1.5 -3.5 Q-0.6 -4.1 0.5 -4.2 M5.25 -10.55 L5.1 -10.75 4.6 -10.75 Q3.05 -10.3 2.7 -8.9 L3.0 -8.75 Q3.8 -9.75 5.1 -10.0 L5.25 -10.2 5.3 -10.4 5.25 -10.55 M9.9 -9.3 L9.8 -9.65 10.0 -10.85 10.1 -9.7 10.1 -9.6 10.2 -9.25 9.9 -9.3 M-8.3 -15.55 L-7.95 -15.3 Q-7.4 -14.95 -6.5 -14.85 -8.1 -14.85 -8.85 -13.8 L-9.0 -13.5 -9.2 -12.95 -9.25 -12.8 -9.3 -12.6 -9.35 -12.35 -9.4 -12.6 -9.4 -12.75 -9.45 -13.05 -9.6 -13.5 -9.7 -13.7 -9.95 -14.15 Q-10.25 -14.6 -10.7 -14.85 L-10.85 -14.95 -11.15 -15.05 -11.2 -15.05 -11.3 -15.05 -11.35 -15.05 -11.75 -15.1 -11.45 -15.15 -11.35 -15.15 -11.15 -15.2 -10.95 -15.25 -10.6 -15.35 Q-9.3 -15.85 -8.95 -17.45 L-8.95 -17.6 -8.95 -17.45 Q-9.0 -16.2 -8.3 -15.55" fill="#000000" fill-rule="evenodd" stroke="none"/>
  </g>
</svg>
