<?xml version="1.0" encoding="UTF-8" standalone="no"?>
<svg xmlns:xlink="http://www.w3.org/1999/xlink" height="46.0px" width="46.5px" xmlns="http://www.w3.org/2000/svg">
  <g transform="matrix(1.0, 0.0, 0.0, 1.0, 23.25, 23.0)">
    <path d="M16.05 -15.9 Q22.75 -9.3 22.75 0.0 22.75 9.3 16.05 15.9 9.4 22.5 0.0 22.5 -9.4 22.5 -16.1 15.9 -22.75 9.3 -22.75 0.0 -22.75 -9.3 -16.1 -15.9 -9.4 -22.5 0.0 -22.5 9.4 -22.5 16.05 -15.9 Z" fill="none" stroke="#000000" stroke-linecap="round" stroke-linejoin="round" stroke-width="1.0"/>
    <path d="M22.3 4.75 L21.3 4.5 21.1 4.3 20.95 4.1 20.95 3.35 20.95 3.0 20.75 2.8 20.6 3.15 20.55 3.3 20.45 3.5 20.3 3.7 20.3 3.85 20.3 4.05 20.4 4.25 20.55 4.45 20.55 4.6 20.55 4.8 20.7 5.0 20.8 5.2 20.8 5.95 20.8 6.3 20.2 7.0 Q19.35 7.2 18.7 6.6 L18.2 5.85 18.2 5.7 18.2 5.5 18.1 5.3 17.95 5.1 18.15 3.8 18.2 3.45 18.3 3.25 18.45 3.05 18.45 2.85 18.45 2.7 18.55 2.5 18.7 2.3 18.5 1.95 18.5 1.9 18.45 1.75 18.1 1.75 18.05 1.85 16.75 3.95 16.5 4.05 15.8 4.0 15.45 2.3 15.45 1.95 14.75 1.2 Q13.85 1.15 13.2 0.6 L13.2 0.05 13.2 -0.15 12.5 -0.3 Q12.05 -0.05 12.0 0.45 L11.75 0.55 11.3 0.5 11.1 0.3 10.95 0.1 10.9 -0.8 10.8 -1.0 10.25 -1.05 Q9.85 -0.7 9.75 -0.15 L9.7 0.0 8.75 -0.05 8.0 -0.7 7.3 0.05 7.2 -0.05 7.2 -0.15 7.7 -0.7 7.7 -0.9 7.7 -1.05 8.35 -1.25 8.55 -1.05 8.55 -0.95 9.1 -0.8 Q9.6 -1.05 9.75 -1.6 L9.8 -1.75 10.55 -1.85 Q10.3 -2.1 10.2 -2.45 L10.2 -3.2 10.2 -3.4 9.8 -3.75 Q9.5 -4.9 9.85 -6.0 L9.95 -6.4 10.1 -6.55 Q10.05 -8.1 10.5 -9.55 L10.7 -9.95 10.7 -10.15 10.7 -10.3 10.8 -10.5 10.95 -10.7 10.95 -11.8 10.95 -12.0 10.7 -12.4 10.7 -12.55 10.7 -12.75 Q8.25 -16.4 10.0 -20.25 L10.65 -19.95 Q13.55 -18.4 16.05 -15.9 L16.45 -15.5 16.7 -15.25 16.95 -15.0 17.1 -14.8 17.3 -14.6 19.6 -11.5 19.8 -11.15 19.9 -11.0 20.05 -10.7 Q19.05 -9.25 18.75 -7.55 18.6 -6.7 18.8 -5.9 L19.0 -5.7 19.05 -4.0 19.05 -3.45 18.95 -3.25 18.8 -3.05 18.8 -2.9 18.8 -2.7 18.6 -2.5 18.55 -0.45 18.55 0.1 19.05 0.7 19.05 1.2 19.05 1.35 19.05 1.45 19.05 1.55 19.2 1.75 19.3 1.95 19.3 2.3 19.3 2.5 19.2 2.65 19.05 2.85 19.05 3.05 19.05 3.25 18.95 3.4 18.8 3.6 18.7 4.55 18.6 4.75 18.8 5.5 18.85 5.7 19.35 6.25 19.55 6.3 19.8 6.3 20.1 5.9 20.2 5.75 19.85 4.85 19.7 4.6 Q19.6 3.55 20.0 2.55 L20.2 2.2 Q20.8 1.7 21.5 2.35 L21.55 3.3 21.55 3.5 Q21.8 4.1 22.4 4.1 L22.3 4.75 M0.35 -22.5 Q-0.6 -20.65 -0.45 -18.45 L-0.45 -18.25 Q1.85 -14.55 -0.1 -10.4 L-0.25 -9.8 -0.55 -9.65 Q-0.95 -8.7 -0.95 -7.6 L-1.3 -7.4 -1.75 -7.2 -1.95 -7.1 -2.5 -6.7 -2.6 -6.65 Q-3.45 -5.8 -3.4 -4.65 L-3.4 -4.1 -3.35 -3.95 -2.9 -3.0 -2.9 -2.85 -2.85 -2.7 -2.35 -1.65 -3.95 -1.35 -4.55 -1.1 Q-4.8 -1.0 -5.0 -0.85 L-5.05 -0.85 -5.2 -0.75 Q-5.4 -0.7 -5.55 -0.6 L-6.0 -0.35 -6.05 -0.35 -7.0 0.5 -7.25 0.9 -7.55 0.35 -8.0 0.2 Q-8.65 0.9 -9.5 1.3 L-9.95 1.25 -10.35 0.9 -10.45 0.85 -10.45 2.35 -10.45 2.75 -11.15 3.5 -11.45 3.5 -12.55 2.55 -12.55 1.8 -12.55 1.6 -13.0 0.7 -13.05 0.5 Q-13.75 0.25 -14.5 0.8 L-15.45 0.75 -16.8 -0.4 -17.25 -0.3 -17.45 -0.15 -17.45 0.1 -17.45 0.3 -17.45 0.35 -17.65 3.8 -17.75 4.35 -17.9 4.55 -18.15 4.75 -18.45 4.75 -19.25 4.2 -19.35 3.45 -19.45 3.1 -19.45 3.85 -19.45 4.05 -19.3 4.25 -19.2 4.45 -19.2 5.2 -19.2 5.55 -19.75 6.05 Q-21.65 5.65 -21.3 3.75 L-21.6 3.2 -21.7 3.0 -22.25 2.7 -22.3 2.6 -22.6 2.6 -22.65 1.95 -22.75 0.0 Q-22.75 -5.05 -20.75 -9.3 L-20.2 -10.45 Q-20.15 -8.9 -19.7 -7.3 L-19.7 -7.15 -18.7 -5.8 -18.7 -5.05 -18.7 -4.9 -18.5 -4.7 Q-18.4 -3.75 -18.45 -2.8 L-18.45 -2.65 Q-18.15 -2.4 -18.2 -2.05 -18.25 -1.6 -17.65 -1.75 L-17.45 -1.55 -17.45 -1.05 Q-16.0 -1.05 -15.2 0.05 L-14.5 0.05 -14.3 -0.15 -14.2 -0.25 -12.65 -0.25 -12.45 -0.05 -12.15 0.85 -12.0 1.05 Q-11.9 1.5 -11.95 2.0 L-11.95 2.2 -11.8 2.4 -11.7 2.55 -11.4 2.7 -11.15 2.6 -10.9 0.35 -10.8 0.0 -10.7 -0.15 -10.5 -0.3 -10.35 -0.3 -10.35 -0.8 -10.3 -1.0 -9.8 -1.95 -10.3 -2.7 -10.3 -2.9 -10.3 -3.05 -10.45 -3.25 -10.55 -3.45 Q-10.4 -5.75 -10.8 -7.95 L-10.8 -8.3 -12.0 -9.8 -11.85 -11.3 -11.8 -11.5 Q-9.85 -15.0 -10.55 -19.0 L-10.8 -19.4 -10.7 -19.9 -9.5 -20.5 -10.7 -19.9 -9.95 -20.3 -9.5 -20.5 -1.95 -22.4 -0.55 -22.5 -0.55 -22.3 -0.4 -22.5 0.0 -22.5 0.35 -22.5 M-10.1 20.25 Q-9.35 15.75 -1.65 7.55 L-1.45 7.3 0.3 5.5 0.7 5.1 1.45 4.4 1.75 4.1 1.8 4.0 5.7 7.5 -6.95 21.4 -7.0 21.45 -10.1 20.25 M3.2 -5.4 Q4.0 -4.55 4.05 -3.4 L4.0 -2.85 Q3.8 -2.0 3.2 -1.35 L2.3 -0.75 2.0 -0.6 1.95 -0.6 1.15 -0.5 0.6 -0.55 0.0 -0.8 -0.05 -0.8 -0.15 -0.85 -0.85 -1.35 -1.1 -1.65 -1.6 -2.7 -1.65 -2.85 -1.65 -3.0 -1.65 -3.4 Q-1.7 -4.55 -0.85 -5.4 L-0.75 -5.45 -0.2 -5.85 0.0 -5.95 0.45 -6.15 1.15 -6.2 Q2.3 -6.25 3.15 -5.45 L3.2 -5.4 M4.55 -1.5 L5.85 -1.5 6.05 -1.3 6.25 -1.15 6.3 -0.9 6.25 -0.95 5.8 -0.45 5.6 -0.5 5.6 -0.7 5.55 -0.75 5.6 -0.85 5.25 -1.05 4.8 -1.3 4.5 -1.4 4.55 -1.5 M16.5 3.1 L16.3 3.1 16.3 3.25 16.5 3.1 M14.7 5.65 L14.8 5.5 15.0 5.5 15.1 5.5 15.3 5.7 Q15.2 6.6 15.5 7.35 L15.55 7.55 Q15.95 7.75 16.25 8.1 L16.3 8.85 16.3 9.05 15.7 9.75 15.05 9.75 14.45 8.8 14.45 7.85 14.45 7.7 14.65 7.3 14.7 7.1 14.55 6.75 14.45 6.55 14.45 6.2 14.45 6.0 14.7 5.65 M3.8 10.65 L4.0 11.4 4.75 13.8 Q5.75 17.0 6.9 19.95 L3.45 20.0 Q3.3 17.1 2.65 14.5 L2.45 13.75 2.1 12.5 3.8 10.65 M7.95 3.2 L8.0 3.4 8.05 3.45 8.05 4.7 7.65 5.7 Q7.05 6.95 6.45 7.5 L5.75 6.85 5.9 6.7 5.3 6.2 7.95 3.2 M6.0 0.7 L6.35 0.9 6.3 1.0 4.95 2.4 4.85 2.3 4.6 2.2 4.35 2.25 4.2 2.45 4.0 2.95 3.75 3.7 3.65 3.85 3.7 3.9 3.55 4.55 2.0 3.2 1.95 3.25 1.95 3.3 1.65 3.6 0.4 4.8 0.0 5.25 -1.25 6.5 -1.45 6.75 Q-1.55 5.05 -1.25 3.3 L-1.3 3.1 -1.45 2.9 -1.65 2.85 -1.55 2.7 -2.2 2.8 Q-3.5 2.65 -3.75 3.4 -2.95 3.65 -2.75 4.65 -2.5 6.15 -2.75 7.8 L-2.8 7.8 -2.85 7.85 -2.9 7.85 Q-4.55 7.4 -5.15 5.75 L-5.75 3.65 -5.8 3.45 -5.8 3.25 -5.8 3.15 -5.65 2.55 -5.5 2.15 -5.25 1.75 -4.3 0.9 -4.25 0.9 -3.8 0.65 -3.45 0.5 -3.2 0.4 -1.4 0.1 -1.35 0.1 -1.3 0.2 -0.95 0.1 -0.65 0.05 -0.35 0.0 0.45 0.25 1.0 0.3 1.05 0.3 1.15 0.3 1.7 0.3 2.1 0.2 2.3 0.2 3.45 0.1 3.55 0.1 4.0 0.1 4.05 0.1 4.95 0.25 5.25 0.35 5.55 0.45 5.6 0.5 5.8 0.55 6.0 0.7 M8.0 0.3 L9.2 1.4 5.7 5.3 4.45 4.15 8.0 0.3 M-14.95 5.8 L-14.5 6.55 Q-14.4 6.9 -14.45 7.3 L-14.45 7.5 -15.15 8.25 -16.2 8.25 -16.35 6.55 -16.3 6.35 -15.55 5.05 -15.55 4.7 -15.5 4.55 -15.45 4.5 -15.15 4.5 -14.95 4.7 -14.95 5.6 -14.95 5.8 M-19.8 5.25 L-20.0 5.25 -19.8 5.3 -19.8 5.25 M-2.05 20.25 L-5.25 20.6 -1.1 16.0 -2.05 20.25" fill="#000000" fill-rule="evenodd" stroke="none"/>
    <path d="M22.3 4.75 L22.4 4.1 22.75 0.0 Q22.75 -5.9 20.05 -10.7 L19.9 -11.0 19.8 -11.15 19.6 -11.5 17.3 -14.6 17.1 -14.8 16.95 -15.0 16.7 -15.25 16.45 -15.5 16.05 -15.9 Q13.55 -18.4 10.65 -19.95 L10.0 -20.25 7.5 -21.3 5.55 -21.85 4.85 -22.0 4.25 -22.1 3.3 -22.25 3.15 -22.3 2.45 -22.35 2.0 -22.4 0.65 -22.5 0.5 -22.5 0.35 -22.5 0.0 -22.5 -0.4 -22.5 -0.55 -22.5 -1.95 -22.4 -9.5 -20.5 -10.7 -19.9 -9.95 -20.3 -9.5 -20.5 M-22.6 2.6 Q-21.8 10.25 -16.1 15.9 -14.1 17.85 -11.9 19.25 L-10.1 20.25 -7.0 21.45 -3.55 22.25 0.0 22.5 Q9.4 22.5 16.05 15.9 20.95 11.05 22.3 4.75 M-6.95 21.4 L-3.55 22.25 M-10.7 -19.9 L-12.05 -19.1 -10.7 -19.9 M-20.2 -10.45 Q-18.65 -13.4 -16.1 -15.9 L-15.9 -16.05 -15.75 -16.2 -12.05 -19.1 M-20.2 -10.45 L-20.75 -9.3 Q-22.75 -5.05 -22.75 0.0 L-22.65 1.95 -22.6 2.6" fill="none" stroke="#000000" stroke-linecap="round" stroke-linejoin="round" stroke-width="1.0"/>
  </g>
</svg>
