<?xml version="1.0" encoding="UTF-8" standalone="no"?>
<svg xmlns:xlink="http://www.w3.org/1999/xlink" height="46.0px" width="46.5px" xmlns="http://www.w3.org/2000/svg">
  <g transform="matrix(1.0, 0.0, 0.0, 1.0, 23.25, 23.0)">
    <path d="M16.05 -15.9 Q22.75 -9.3 22.75 0.0 22.75 9.3 16.05 15.9 9.4 22.5 0.0 22.5 -9.4 22.5 -16.1 15.9 -22.75 9.3 -22.75 0.0 -22.75 -9.3 -16.1 -15.9 -9.4 -22.5 0.0 -22.5 9.4 -22.5 16.05 -15.9 Z" fill="none" stroke="#000000" stroke-linecap="round" stroke-linejoin="round" stroke-width="1.0"/>
    <path d="M1.3 -13.2 Q1.6 -13.85 1.95 -13.9 L2.6 -13.8 Q3.2 -13.35 2.45 -11.8 L2.05 -11.25 1.35 -10.55 0.65 -11.15 0.2 -11.75 Q-0.7 -13.15 -0.05 -13.65 L0.65 -13.85 1.3 -13.2 M0.55 -18.25 L-0.15 -17.55 -0.85 -18.15 -1.3 -18.75 Q-2.2 -20.15 -1.55 -20.65 L-0.85 -20.85 Q-0.5 -20.85 -0.2 -20.2 0.1 -20.85 0.45 -20.9 L1.1 -20.8 Q1.7 -20.35 0.95 -18.8 L0.55 -18.25 M2.6 -8.5 Q3.65 -7.5 3.65 -6.0 L3.6 -5.35 Q3.4 -4.3 2.6 -3.5 L1.05 -2.55 1.0 -2.55 0.05 -2.45 Q-0.8 -2.45 -1.45 -2.8 L-1.6 -2.85 -1.95 -3.05 -2.45 -3.5 -2.65 -3.75 Q-3.3 -4.45 -3.45 -5.35 L-3.5 -6.0 Q-3.5 -7.5 -2.45 -8.5 L-2.35 -8.6 Q-1.35 -9.6 0.05 -9.55 1.45 -9.6 2.5 -8.6 L2.6 -8.5 M4.6 -2.75 Q5.85 -2.25 6.0 -0.45 6.1 1.0 5.7 2.45 4.8 3.65 5.5 4.8 L5.65 4.9 5.8 4.95 5.95 4.85 Q7.0 3.4 8.4 2.1 9.65 0.85 11.3 0.65 11.75 2.0 10.8 3.65 L10.25 4.45 9.6 5.2 7.9 6.4 Q6.9 6.95 5.7 7.1 L5.65 7.1 Q4.5 7.15 4.35 6.25 L4.3 6.1 3.85 5.45 3.75 5.25 3.7 5.1 3.5 4.7 3.5 4.6 3.1 2.55 Q2.95 1.5 3.35 0.6 L3.35 0.4 3.2 0.25 3.0 0.25 Q2.85 0.25 2.85 0.4 2.4 1.45 2.55 2.6 L2.45 4.5 2.4 4.65 2.45 5.25 2.9 7.05 3.2 7.8 3.4 8.1 3.8 8.7 Q4.65 9.8 5.85 10.75 7.35 11.95 6.4 13.6 L6.3 13.8 Q5.15 14.9 3.15 14.6 L3.1 14.6 0.65 14.0 -0.35 13.65 -3.5 12.25 Q-3.3 11.15 -3.55 9.5 L-0.85 10.05 Q1.1 10.45 2.7 11.6 L4.1 12.8 4.3 12.85 4.5 12.8 4.6 12.6 4.5 12.4 3.05 11.15 Q1.3 9.95 -0.75 9.5 L-3.85 8.85 -4.0 8.9 -4.15 9.0 -4.15 9.2 Q-3.8 11.15 -4.05 12.35 L-4.05 12.55 -3.9 12.65 -0.6 14.15 0.05 14.45 -0.2 14.55 -0.25 14.55 -4.75 14.9 Q-7.25 14.65 -7.65 14.15 L-8.0 13.4 -8.0 12.45 Q-8.05 11.75 -7.2 10.9 L-4.95 8.65 -4.7 8.4 -4.5 8.2 Q-3.85 7.2 -3.6 6.2 L-3.5 5.7 -3.45 4.7 -3.35 3.15 Q-3.15 1.7 -3.25 0.3 L-3.35 0.1 -3.55 0.05 -3.7 0.15 -3.8 0.35 Q-3.7 1.7 -3.9 3.0 L-4.25 4.5 -4.25 4.55 -4.45 5.0 -4.95 5.9 -5.25 6.35 Q-6.35 7.45 -7.8 7.25 L-9.1 7.05 -9.2 7.05 -10.35 6.75 Q-11.5 6.25 -12.15 5.1 -13.15 3.55 -13.4 1.6 -11.8 1.65 -10.15 2.65 -8.65 3.55 -7.55 4.9 L-7.45 4.95 -7.3 5.0 -7.15 4.9 Q-5.75 3.6 -6.55 2.1 -7.05 0.75 -6.65 -0.7 -6.5 -1.55 -5.8 -2.1 -4.25 -3.35 -2.55 -2.15 L-2.5 -2.1 -0.2 -1.8 -0.15 -1.8 Q1.85 -1.3 3.65 -2.55 L3.6 -2.5 4.2 -2.8 4.6 -2.75 M21.85 6.45 L21.5 7.55 17.65 7.5 17.7 6.4 21.85 6.45 M-5.1 -16.85 Q-4.75 -16.85 -4.45 -16.2 L-3.8 -16.9 -3.15 -16.8 Q-2.55 -16.35 -3.3 -14.8 L-3.7 -14.25 -4.4 -13.55 -5.1 -14.15 -5.55 -14.75 Q-6.45 -16.15 -5.8 -16.65 L-5.1 -16.85 M-5.35 8.45 L-5.55 8.65 -10.65 8.6 Q-10.65 8.2 -10.3 7.85 L-9.95 7.5 -8.8 7.8 -8.7 7.8 -7.4 8.0 Q-5.95 8.2 -4.85 7.1 L-4.55 6.65 -4.45 6.45 Q-4.7 7.45 -5.35 8.45 M16.85 8.75 L4.7 8.7 4.3 8.1 4.1 7.8 3.8 7.05 Q4.1 7.4 4.8 7.35 L4.85 7.35 Q5.15 7.9 6.05 7.85 L8.3 7.15 Q9.25 6.65 10.0 5.95 L10.65 5.2 16.9 5.35 16.85 8.75" fill="#000000" fill-rule="evenodd" stroke="none"/>
    <path d="M21.5 7.55 Q19.85 12.15 16.05 15.9 9.4 22.5 0.0 22.5 -9.4 22.5 -16.1 15.9 -22.75 9.3 -22.75 0.0 -22.75 -9.3 -16.1 -15.9 -9.4 -22.5 0.0 -22.5 9.4 -22.5 16.05 -15.9 22.75 -9.3 22.75 0.0 22.75 3.4 21.85 6.45 L21.5 7.55 Z" fill="none" stroke="#000000" stroke-linecap="round" stroke-linejoin="round" stroke-width="1.0"/>
  </g>
</svg>
