<?xml version="1.0" encoding="UTF-8" standalone="no"?>
<svg xmlns:xlink="http://www.w3.org/1999/xlink" height="415.8px" width="562.3px" xmlns="http://www.w3.org/2000/svg">
  <g transform="matrix(1.0, 0.0, 0.0, 1.0, 281.15, 207.9)">
    <path d="M281.15 207.9 L-281.15 207.9 -281.15 -207.9 281.15 -207.9 281.15 207.9" fill="url(#gradient0)" fill-rule="evenodd" stroke="none"/>
    <path d="M100.2 -153.25 Q102.35 -142.85 100.8 -133.05 L100.45 -132.25 Q98.75 -131.95 98.95 -133.75 100.5 -138.25 98.75 -142.75 L98.45 -143.5 Q97.85 -142.8 97.3 -139.5 L97.2 -138.75 96.45 -138.0 93.7 -138.75 93.35 -137.95 93.2 -137.25 92.2 -135.75 Q93.65 -134.9 93.7 -133.5 92.15 -132.25 90.2 -133.0 89.25 -135.05 87.7 -136.75 L87.7 -143.5 87.7 -144.25 89.45 -145.0 91.2 -143.5 92.95 -143.25 94.95 -142.25 Q97.0 -147.5 97.8 -153.25 L97.95 -153.75 98.25 -153.9 99.45 -154.0 100.2 -153.25 M154.95 -81.0 L156.45 -80.75 Q157.85 -75.45 156.2 -70.25 L155.95 -69.5 157.5 -68.85 157.95 -68.75 Q158.3 -72.9 159.15 -77.0 L159.45 -77.75 160.4 -77.6 161.45 -77.0 Q164.25 -67.75 161.2 -58.95 L160.95 -57.5 159.85 -56.15 158.95 -55.5 Q160.15 -62.25 160.2 -70.25 L159.95 -71.0 159.95 -67.5 159.95 -66.0 158.85 -64.65 157.95 -64.0 154.45 -64.25 Q153.3 -69.15 154.7 -74.1 L154.7 -75.25 Q152.35 -70.4 152.95 -64.75 L152.95 -64.0 150.45 -63.25 Q149.15 -64.95 148.1 -66.95 L147.95 -67.0 Q147.65 -65.35 148.4 -64.0 L148.7 -63.25 151.45 -61.75 Q152.7 -59.05 148.2 -60.25 145.25 -63.4 145.9 -67.75 L145.95 -68.5 147.75 -70.5 148.45 -70.75 150.65 -67.1 150.95 -67.0 Q150.95 -73.4 153.8 -79.1 L153.95 -79.75 154.15 -80.35 154.95 -81.0 M216.25 -168.65 L216.95 -168.75 217.45 -168.75 218.65 -166.5 218.95 -165.75 224.95 -166.0 226.45 -165.75 Q228.3 -162.25 228.15 -158.25 228.1 -156.65 227.45 -155.25 226.45 -153.75 224.45 -153.75 224.75 -155.0 225.45 -156.0 L225.95 -156.75 Q225.55 -157.85 225.7 -159.0 L225.7 -159.75 Q221.95 -161.0 217.95 -161.25 L217.8 -159.05 217.45 -158.25 Q215.15 -160.4 215.0 -165.0 L214.95 -167.25 215.5 -168.0 215.95 -168.5 216.25 -168.65 M235.2 10.75 L235.2 16.75 235.2 17.5 235.95 18.25 Q236.25 20.05 236.0 22.0 L235.95 22.75 Q235.45 24.5 233.45 24.5 233.15 23.35 233.8 22.15 L233.95 21.5 Q233.6 20.1 232.45 19.25 L230.2 18.5 Q230.35 20.0 228.7 20.25 L229.15 21.75 229.2 22.5 229.05 23.15 228.45 24.0 227.2 24.0 Q225.0 19.15 225.65 13.5 L225.7 12.75 227.45 12.0 228.3 13.45 228.7 14.0 229.95 13.7 230.95 13.5 231.6 12.2 231.7 11.5 232.45 10.75 232.95 10.25 233.25 10.1 234.45 10.0 235.2 10.75 M223.7 164.75 Q225.45 172.25 221.0 178.05 L220.45 178.2 Q221.9 173.55 221.95 168.5 L221.95 167.0 Q221.9 165.55 220.2 165.0 219.8 166.05 219.95 167.25 L219.95 168.0 Q219.0 169.6 217.45 168.25 216.7 169.2 216.8 170.5 L216.7 171.25 214.95 171.25 213.95 169.0 213.7 168.5 Q214.1 171.6 215.45 174.6 L215.7 175.95 Q214.2 177.1 214.2 175.2 L214.2 174.45 Q211.75 170.8 212.3 166.25 L212.45 165.5 213.95 164.0 214.7 164.75 215.1 166.15 215.45 166.75 215.85 165.7 215.95 165.0 218.95 162.0 Q218.45 160.3 219.95 160.25 L220.45 160.25 Q221.35 162.45 222.95 164.0 L223.7 164.75 M132.0 48.3 L132.45 48.25 Q133.3 50.7 133.0 53.5 L132.95 54.25 Q134.1 52.3 135.95 50.5 L137.45 50.25 Q141.8 59.6 135.0 67.3 L134.45 67.5 Q137.45 61.7 136.8 54.75 L136.45 53.25 Q134.6 56.05 134.2 59.75 L132.45 60.75 131.45 57.0 Q129.65 57.35 128.7 60.75 L124.2 60.75 122.95 59.25 122.85 57.0 122.7 56.5 Q121.15 61.3 124.7 65.5 L122.45 65.75 119.95 61.25 119.95 57.5 119.95 56.75 120.95 55.25 Q121.2 52.9 121.95 50.75 L122.95 50.0 123.7 50.75 Q123.75 53.15 124.7 55.25 125.15 53.85 126.95 53.0 L127.7 53.75 Q128.15 55.2 128.0 56.75 L127.95 57.25 Q129.9 53.1 130.95 48.75 L132.0 48.3 M10.5 144.25 Q12.3 148.1 12.0 152.5 L12.0 154.0 Q10.6 155.75 9.65 157.7 L9.25 158.5 Q8.85 158.5 8.7 158.3 L8.0 157.0 Q8.4 155.3 9.45 153.95 L10.0 153.25 10.0 152.5 10.0 151.0 Q8.35 151.65 6.0 154.0 L5.8 154.75 5.75 155.5 3.25 155.75 2.5 154.95 2.0 154.25 Q2.15 152.3 1.85 150.45 L1.75 149.0 Q1.85 148.6 2.1 148.45 L3.5 148.0 4.1 148.8 4.25 149.5 6.05 148.85 7.5 148.5 8.15 145.0 Q8.3 144.05 9.0 144.0 L10.5 144.25 M-237.25 -181.5 L-234.5 -181.0 -233.75 -180.25 Q-234.5 -174.35 -237.45 -168.85 L-238.75 -166.75 Q-239.45 -170.6 -236.7 -175.75 -235.95 -177.25 -236.5 -178.75 -236.75 -178.15 -237.15 -177.65 L-238.0 -177.0 -239.25 -178.25 -240.75 -178.0 -241.0 -176.5 -241.25 -175.25 Q-242.25 -175.15 -243.1 -174.7 L-243.25 -174.25 Q-242.2 -173.65 -241.45 -172.6 L-241.25 -172.0 -242.1 -171.5 -243.75 -171.25 -245.0 -172.75 Q-246.1 -175.7 -246.7 -178.8 L-247.0 -181.75 -245.5 -182.75 Q-244.65 -181.75 -244.15 -180.55 L-243.5 -179.5 Q-243.05 -180.45 -243.1 -181.5 L-243.0 -182.75 -242.75 -182.9 -242.0 -183.0 -241.5 -183.0 -239.75 -182.8 -238.5 -182.75 -237.55 -181.95 -237.25 -181.5 M-199.7 -63.0 L-199.65 -63.05 -199.5 -63.0 -199.7 -63.0 M-68.0 -171.8 L-66.5 -171.75 -65.1 -165.0 Q-64.85 -163.85 -65.25 -162.75 -66.35 -161.25 -67.9 -159.95 -68.15 -159.75 -68.5 -159.75 -67.5 -162.65 -67.7 -165.7 L-68.0 -168.0 Q-68.9 -168.85 -69.9 -167.05 L-70.5 -166.25 -73.0 -167.0 Q-73.95 -166.05 -71.85 -163.1 L-70.5 -161.5 Q-74.75 -161.1 -74.65 -167.25 -74.6 -169.55 -75.0 -171.75 L-73.95 -172.65 -73.5 -172.75 -72.5 -172.05 -72.0 -171.75 -69.5 -171.5 -68.0 -171.8 M-142.5 -127.75 L-140.1 -116.5 -140.0 -115.75 -137.5 -114.75 Q-135.8 -108.15 -139.45 -102.1 L-140.0 -101.5 -139.05 -111.0 -139.0 -111.75 Q-139.45 -112.6 -141.0 -112.75 L-143.0 -120.25 -143.1 -117.5 -143.25 -116.75 -144.5 -115.25 -146.0 -114.75 Q-145.8 -112.85 -147.75 -113.25 L-148.5 -114.0 Q-149.7 -113.1 -151.5 -113.0 -150.4 -109.5 -148.25 -106.75 -148.6 -105.35 -150.5 -106.25 -154.55 -112.75 -154.95 -120.5 L-155.0 -122.0 -152.5 -122.75 Q-151.1 -121.1 -151.0 -119.0 L-148.0 -118.75 -148.0 -121.0 -148.0 -121.75 Q-146.9 -123.95 -145.5 -121.25 -144.65 -121.1 -144.95 -124.0 L-145.0 -125.5 Q-143.95 -126.4 -143.3 -127.5 L-142.5 -127.75 M-3.65 -76.0 L-2.95 -76.0 -3.5 -75.75 -3.65 -76.0 M-5.75 -18.25 Q-6.6 -12.5 -2.55 -9.0 L-1.75 -8.25 Q0.35 -1.45 -1.05 5.2 L-1.5 6.0 -2.5 6.25 Q-4.15 8.5 -6.5 9.25 -5.25 7.25 -3.5 5.5 -3.2 3.6 -2.55 1.75 L-2.25 1.0 Q-2.9 -1.0 -4.0 -2.75 L-5.0 -3.25 Q-5.45 -4.7 -5.4 -6.25 L-5.5 -7.0 -6.65 -1.75 -6.75 -0.25 -8.0 1.0 -9.5 0.5 -9.8 1.75 -10.0 2.5 -10.75 3.25 Q-9.65 4.6 -9.25 6.25 -16.8 3.75 -15.25 -5.75 L-14.0 -7.25 -13.0 -6.5 Q-12.25 -4.6 -11.85 -2.75 L-11.75 -2.0 -11.45 -2.8 -11.25 -4.25 Q-10.5 -5.55 -8.75 -5.0 -7.9 -10.9 -8.25 -17.0 L-8.25 -18.5 -7.0 -18.95 -6.5 -19.0 -5.75 -18.25 M-62.9 12.6 L-62.0 12.0 -60.5 12.25 Q-57.45 20.0 -60.5 27.9 L-61.0 28.5 Q-60.9 22.75 -61.7 16.0 L-62.0 14.75 Q-62.0 17.9 -63.45 20.65 L-64.25 21.75 -64.35 22.45 -64.5 23.25 -65.5 23.5 Q-67.3 21.95 -68.15 19.8 L-68.25 19.75 Q-67.85 23.5 -65.6 26.3 L-65.25 27.0 -66.1 27.45 -67.5 27.5 Q-69.8 22.85 -69.65 17.75 L-69.5 16.5 -69.0 16.35 -67.75 16.5 -66.4 19.45 -66.0 20.0 -65.55 19.25 Q-65.0 18.85 -64.25 18.75 -63.4 17.1 -63.5 14.7 L-63.25 13.25 -62.9 12.6 M-115.5 104.25 Q-114.65 108.9 -114.95 114.0 L-115.0 115.25 -114.0 115.1 -112.5 115.25 -111.9 116.65 -111.25 117.5 Q-110.85 120.45 -111.0 123.5 L-111.0 125.0 Q-113.85 129.45 -118.5 131.25 -115.4 128.3 -113.25 124.5 -112.85 123.05 -112.95 121.45 L-113.0 120.0 Q-113.25 118.45 -115.5 118.75 L-116.5 117.25 -117.0 116.5 -117.1 116.95 -118.0 118.5 -118.0 119.25 -118.0 120.75 -118.4 121.25 -119.75 121.75 -124.0 117.5 -124.0 119.75 -124.0 121.25 -123.5 122.0 -123.0 122.75 -119.5 124.25 Q-119.5 125.0 -119.75 125.05 -121.5 125.75 -123.5 125.75 L-125.15 123.55 -125.75 122.75 Q-125.85 118.95 -126.65 115.25 L-127.0 114.5 -126.4 113.05 -125.75 112.25 -123.5 112.25 Q-122.25 113.95 -121.95 115.95 L-121.75 116.75 -121.0 117.45 -120.25 118.0 -120.1 116.95 -120.0 115.5 -118.85 114.25 Q-118.65 114.1 -118.25 114.25 L-117.55 104.75 Q-117.55 104.1 -117.0 104.0 L-115.5 104.25 M-210.5 7.25 Q-210.05 10.55 -209.2 13.95 L-209.0 14.5 -206.5 15.25 Q-205.2 19.7 -206.85 24.2 L-207.5 25.75 Q-209.25 26.0 -209.0 24.25 -207.75 21.35 -208.1 18.25 L-208.25 17.5 Q-208.75 18.3 -210.05 18.15 L-211.0 18.25 Q-211.35 19.8 -212.15 21.3 L-212.25 21.75 -214.5 21.75 Q-215.3 19.75 -217.0 18.75 -216.3 22.1 -213.0 24.0 L-215.5 24.75 Q-219.0 22.6 -219.0 18.75 L-220.0 17.25 -220.0 14.25 -220.0 13.5 Q-219.15 11.5 -217.5 11.25 -215.8 13.6 -215.75 16.5 -215.25 17.85 -214.0 18.0 L-214.0 15.0 -214.0 14.25 Q-214.05 12.75 -212.0 13.25 -212.2 10.15 -211.2 7.45 L-210.5 7.25 M-251.0 158.0 L-251.0 158.75 -250.85 159.25 -250.0 159.5 -247.5 159.25 -246.5 159.25 Q-244.65 161.5 -244.9 164.5 -245.0 166.0 -245.25 167.5 L-245.65 168.05 -246.5 168.5 Q-247.05 166.65 -247.0 164.75 -246.9 163.05 -247.25 162.75 -249.85 163.2 -252.5 162.8 L-253.75 162.75 -254.5 162.0 -255.0 161.5 -255.0 163.0 -255.0 164.5 -254.25 165.25 -253.75 165.75 -251.0 167.0 -254.75 167.75 -256.25 166.25 -257.0 165.5 Q-257.0 162.85 -257.25 160.25 -257.5 157.7 -256.0 157.0 L-251.55 157.6 Q-251.25 157.6 -251.0 158.0" fill="#095f01" fill-rule="evenodd" stroke="none"/>
    <path d="M151.95 -87.25 L150.8 -86.65 149.95 -86.0 149.8 -84.5 149.7 -83.25 Q152.65 -81.65 156.2 -80.5 L156.6 -79.7 156.7 -79.0 158.4 -77.45 158.7 -77.0 160.2 -77.0 Q161.75 -78.35 161.95 -80.55 L161.7 -81.25 155.45 -81.5 155.3 -83.0 155.2 -84.5 152.75 -87.0 151.95 -87.25 M153.2 -89.5 L156.15 -86.45 156.7 -85.75 156.8 -84.25 156.95 -83.25 Q158.9 -84.5 161.2 -83.5 162.65 -82.65 163.4 -81.25 L163.7 -80.5 163.4 -79.8 162.7 -79.0 162.5 -78.25 162.2 -76.75 161.45 -76.0 160.95 -75.5 157.45 -75.5 157.2 -76.25 156.95 -77.0 156.8 -76.5 156.7 -75.75 156.7 -75.0 155.45 -73.55 154.7 -72.75 150.45 -72.5 148.4 -74.9 148.2 -75.5 Q148.7 -77.15 150.0 -78.7 L150.7 -80.0 148.45 -81.5 Q148.05 -82.95 148.15 -84.5 L148.2 -86.0 Q149.7 -87.9 151.5 -89.45 L151.95 -89.75 153.2 -89.5 M150.45 -74.5 L153.95 -74.25 154.75 -75.75 155.2 -76.5 154.7 -77.25 154.2 -78.0 154.2 -79.5 154.1 -80.2 153.95 -80.25 Q151.2 -78.45 150.3 -75.15 150.2 -74.9 150.45 -74.5" fill="#b413c1" fill-rule="evenodd" stroke="none"/>
    <path d="M-248.95 148.45 L-248.75 151.5 Q-246.9 150.85 -245.3 149.2 L-244.0 147.75 -243.85 146.95 Q-243.75 146.0 -243.9 145.0 L-244.0 145.0 -247.0 145.5 -247.75 146.25 -249.0 147.75 -248.95 148.45 M-250.25 145.75 L-248.0 143.5 -247.05 143.15 -247.0 143.0 -244.05 143.15 -242.75 143.5 -242.4 145.0 -242.25 148.0 -244.25 150.75 -246.0 152.5 -246.0 154.0 -246.0 157.0 Q-247.95 161.9 -253.5 160.75 L-254.25 160.0 -255.0 159.25 -255.0 158.5 -255.0 157.0 -255.0 156.25 -256.6 154.85 -258.5 153.75 Q-259.35 152.05 -258.8 150.05 L-257.75 147.25 -251.0 146.5 -250.25 145.75 M-252.0 149.5 L-256.25 149.5 -256.9 151.0 -257.0 151.5 Q-256.05 151.9 -255.0 152.75 L-253.0 152.5 -251.25 151.0 -252.0 149.5 M-252.75 158.0 Q-249.8 159.85 -248.0 156.25 L-248.0 155.5 -248.0 154.75 Q-249.15 153.3 -251.25 154.25 -252.7 155.5 -252.85 157.25 L-252.75 158.0" fill="#1440c0" fill-rule="evenodd" stroke="none"/>
    <path d="M-139.25 -136.5 Q-138.85 -135.4 -138.95 -134.25 L-139.0 -132.0 -140.6 -129.65 -141.5 -128.25 -144.0 -127.5 Q-143.85 -126.35 -144.05 -125.2 L-144.25 -123.0 -145.65 -120.85 Q-146.0 -120.15 -146.5 -119.5 L-150.5 -119.5 -152.0 -121.0 -152.75 -121.75 -152.7 -124.0 Q-152.65 -125.6 -151.75 -127.0 L-155.75 -130.75 -155.75 -133.0 -155.75 -135.25 -153.8 -136.3 -153.0 -136.75 Q-150.25 -135.9 -147.5 -136.0 L-147.15 -136.8 -147.0 -137.5 -144.75 -138.7 -144.0 -139.0 Q-141.95 -138.95 -140.55 -137.45 L-139.25 -136.5 M-141.0 -134.25 Q-141.8 -136.05 -143.8 -136.6 L-144.0 -136.5 Q-145.4 -135.7 -146.2 -134.2 L-146.5 -133.5 -146.0 -132.8 -145.25 -132.0 -146.0 -131.25 -145.25 -130.5 -143.0 -130.5 -141.55 -132.05 -141.0 -132.75 -141.0 -133.5 -141.0 -134.25 M-154.25 -134.0 L-154.25 -132.5 -154.25 -131.75 -153.95 -131.05 -153.25 -130.25 -151.0 -130.25 Q-149.05 -131.3 -149.0 -133.25 -150.15 -135.7 -153.25 -134.75 L-154.25 -134.0 M-150.7 -125.6 L-151.25 -124.75 -151.25 -123.25 -151.25 -122.5 -150.75 -121.8 -150.25 -121.25 -147.0 -121.25 -146.25 -122.75 -145.75 -123.5 -145.95 -126.5 -146.0 -127.25 -148.0 -129.25 -148.5 -129.25 Q-149.95 -127.65 -150.7 -125.6" fill="#c23112" fill-rule="evenodd" stroke="none"/>
  </g>
  <defs>
    <radialGradient cx="0" cy="0" gradientTransform="matrix(0.4268, 0.0, 0.0, 0.4268, 0.0, 0.0)" gradientUnits="userSpaceOnUse" id="gradient0" r="819.2" spreadMethod="pad">
      <stop offset="0.0" stop-color="#8ff56d"/>
      <stop offset="1.0" stop-color="#188609"/>
    </radialGradient>
  </defs>
</svg>
