<?xml version="1.0" encoding="UTF-8" standalone="no"?>
<svg xmlns:xlink="http://www.w3.org/1999/xlink" height="453.5px" width="562.6px" xmlns="http://www.w3.org/2000/svg">
  <g transform="matrix(1.0, 0.0, 0.0, 1.0, 281.15, 218.0)">
    <path d="M281.15 207.9 L-281.15 207.9 -281.15 -207.9 281.15 -207.9 281.15 207.9" fill="url(#gradient0)" fill-rule="evenodd" stroke="none"/>
    <path d="M79.45 -86.75 Q80.75 -89.15 83.95 -89.5 L85.2 -89.25 86.05 -87.8 87.2 -86.25 89.2 -86.0 89.4 -86.75 89.45 -87.25 90.0 -87.5 91.2 -88.0 91.45 -89.5 91.45 -90.25 92.2 -91.0 92.4 -91.75 92.6 -92.15 92.9 -92.35 92.95 -92.5 97.15 -91.1 97.45 -90.75 94.5 -90.95 93.45 -91.25 93.15 -90.55 92.45 -89.75 92.45 -89.0 92.45 -88.25 Q91.85 -86.9 90.6 -85.9 L89.45 -84.75 86.45 -84.75 85.8 -86.15 84.45 -87.75 Q83.1 -88.0 80.7 -87.1 L79.45 -86.75 M93.45 -94.25 L94.2 -92.75 92.7 -93.5 Q92.3 -94.6 92.45 -95.75 90.25 -96.0 87.35 -95.8 L87.4 -95.5 87.45 -94.75 Q87.2 -93.65 86.45 -92.75 L84.45 -92.75 Q85.15 -94.15 86.45 -95.0 L86.55 -95.75 86.45 -95.75 Q84.75 -97.1 86.05 -98.2 L86.2 -98.25 Q86.75 -95.75 89.3 -96.7 91.1 -97.4 93.2 -97.25 93.65 -95.8 93.45 -94.25 M271.75 -181.7 L272.5 -182.15 272.9 -182.35 272.95 -182.5 Q277.35 -182.3 281.15 -180.1 L281.45 -179.75 Q278.6 -179.6 275.75 -180.65 L272.7 -181.0 271.95 -176.55 Q271.6 -174.0 269.95 -172.0 L269.9 -171.3 270.35 -169.7 270.45 -169.0 Q264.45 -166.5 257.65 -169.55 L255.95 -169.65 253.2 -169.1 253.45 -168.75 252.45 -168.75 252.45 -168.25 252.45 -166.75 252.45 -165.25 252.15 -164.55 251.45 -163.75 250.7 -163.0 241.45 -162.75 Q245.2 -165.0 250.2 -164.0 L250.95 -164.8 251.45 -165.5 251.45 -167.0 251.45 -168.5 251.45 -168.75 249.6 -171.85 249.45 -172.5 249.35 -172.9 245.45 -173.75 245.4 -174.5 245.2 -175.25 Q241.75 -171.6 237.6 -169.2 L236.45 -168.75 234.45 -169.75 Q234.2 -172.25 231.55 -173.0 231.45 -173.0 231.45 -173.25 233.6 -173.8 235.0 -171.8 L236.2 -170.25 239.2 -171.0 239.4 -171.75 239.45 -172.25 Q241.85 -173.15 243.6 -175.15 L244.95 -176.5 246.2 -176.25 246.4 -175.5 246.45 -175.0 250.2 -174.25 Q250.35 -172.6 251.15 -171.2 L251.5 -170.5 251.7 -170.1 Q255.75 -171.75 260.2 -171.5 262.4 -169.45 265.45 -169.2 L266.95 -168.75 268.2 -169.0 Q268.45 -170.5 269.05 -171.85 L271.45 -176.5 271.45 -178.0 271.4 -179.5 271.2 -181.0 271.75 -181.7 M211.2 140.5 Q211.65 142.3 211.55 144.25 L211.45 147.25 Q219.3 152.4 229.1 156.55 232.45 158.0 236.45 158.0 237.85 150.8 245.25 150.2 248.15 149.95 250.45 152.0 252.6 159.05 256.3 165.1 259.3 169.95 258.45 175.95 262.65 181.4 270.2 179.95 L270.4 179.2 270.45 178.45 270.45 177.7 Q272.6 176.05 275.15 175.05 L275.45 174.7 275.95 174.6 277.2 174.7 Q278.5 176.05 279.2 177.75 279.6 178.8 279.45 179.95 L280.15 180.75 280.45 181.2 279.95 181.35 278.45 181.2 278.45 180.45 278.5 179.75 Q278.6 178.45 277.7 177.45 L277.1 176.9 275.95 176.45 273.9 177.35 271.7 177.95 271.5 178.75 271.35 179.45 270.7 180.95 Q263.65 182.45 257.95 177.45 L257.9 175.5 256.45 175.95 256.0 176.75 255.2 178.2 Q252.65 179.75 250.95 177.7 249.9 176.0 252.25 176.6 L254.2 176.95 255.1 175.65 255.95 174.45 257.85 174.85 Q257.4 169.35 255.15 164.25 253.95 161.6 252.4 159.2 250.5 156.2 249.45 152.75 L248.85 152.1 247.45 151.25 246.45 150.75 Q238.8 151.05 237.45 158.5 227.7 161.35 219.0 154.55 217.45 153.3 215.45 152.5 L214.95 151.75 214.5 150.95 214.2 150.25 213.65 149.9 210.45 149.25 210.45 144.75 210.45 141.75 Q209.85 140.4 208.45 139.45 L206.2 138.0 205.9 137.25 205.45 136.5 205.1 136.15 207.45 137.75 209.85 139.15 211.2 140.5 M240.9 125.65 L240.95 125.5 242.2 125.75 241.15 127.2 240.45 128.0 240.4 129.45 240.2 130.25 Q239.0 130.35 239.3 128.7 L239.45 127.25 240.55 126.05 240.9 125.65 M238.7 131.75 Q235.0 133.65 232.45 131.75 L239.2 130.75 240.0 131.2 241.2 131.75 Q241.65 133.2 241.5 134.75 L241.45 136.25 241.3 136.85 240.45 137.75 240.4 140.7 240.2 142.25 Q238.9 141.25 239.35 138.45 L239.45 137.0 240.2 136.25 240.4 134.7 240.45 133.25 238.7 131.75 M234.2 130.25 Q231.8 130.05 230.7 128.6 L230.95 128.5 233.85 129.7 234.2 130.25 M230.2 140.75 Q231.6 141.95 232.45 143.75 L232.7 144.5 233.0 144.75 234.2 144.75 234.95 144.0 235.45 143.5 Q240.45 141.85 242.45 146.25 L242.55 147.7 242.7 148.5 244.45 150.0 242.45 150.5 Q240.3 148.25 239.9 145.25 L239.7 144.75 Q236.55 144.85 233.95 146.75 L232.45 146.5 Q229.8 143.85 229.85 140.75 L230.2 140.75 M187.2 114.75 Q187.65 117.7 187.4 120.7 L187.2 121.5 190.45 125.75 Q188.55 126.2 187.45 123.75 L185.45 122.5 186.2 121.0 186.25 120.9 Q184.05 121.6 178.65 119.7 178.55 119.65 178.95 119.5 L186.2 119.75 186.4 119.9 186.85 115.0 Q186.85 114.85 187.2 114.75 M193.4 129.5 L193.4 130.2 Q193.2 131.5 193.95 132.5 200.1 133.2 204.9 136.0 198.25 136.0 192.95 133.5 L192.6 132.7 192.45 132.0 192.45 130.0 Q188.2 131.0 188.45 128.0 188.5 127.5 189.2 127.75 L189.5 128.0 193.2 128.75 193.4 129.5 M234.45 160.25 Q231.5 160.35 230.1 162.4 L229.45 163.25 229.45 164.0 229.45 164.75 Q226.7 168.9 222.85 167.0 222.1 166.6 221.2 166.5 L220.15 167.1 219.45 167.25 219.75 166.5 220.45 165.0 222.95 165.2 224.2 165.5 224.7 166.0 224.95 166.25 Q226.65 165.85 228.2 165.0 L228.4 164.2 228.45 162.75 229.2 162.0 229.4 161.2 229.45 160.75 231.2 159.95 231.95 159.5 234.15 159.9 234.45 160.25 M224.45 170.0 Q225.3 168.7 226.6 167.9 L227.2 167.75 226.4 169.15 225.7 170.0 226.1 171.45 226.45 172.25 Q225.8 174.55 223.45 175.2 223.45 174.45 223.75 173.85 223.95 173.35 224.45 173.0 L224.45 170.75 224.45 170.0 M110.2 83.75 Q109.6 85.7 108.35 87.4 L107.45 88.25 Q107.45 87.85 107.6 87.5 L108.2 86.0 107.55 84.45 Q107.2 83.6 107.95 83.6 L107.95 83.5 110.2 83.75 M107.95 88.5 L112.2 88.95 112.45 89.25 Q110.45 89.6 108.6 90.3 108.45 90.35 108.45 90.75 L108.1 91.4 106.7 93.0 105.45 93.25 105.85 92.55 107.2 91.0 107.4 90.2 107.45 89.0 107.55 88.8 107.95 88.5 M-185.75 -159.25 Q-185.0 -157.5 -183.65 -156.15 L-183.0 -156.4 -183.0 -156.5 -180.75 -156.25 -180.55 -155.5 -180.5 -155.0 -180.45 -154.85 -178.5 -153.75 -181.5 -153.75 -181.5 -154.5 -181.5 -155.0 -183.25 -154.95 -183.45 -154.9 Q-184.85 -151.55 -187.35 -148.6 L-187.5 -148.0 -188.0 -147.95 Q-186.6 -147.35 -185.5 -145.75 L-185.5 -145.0 -185.5 -144.25 -185.45 -144.0 -184.5 -144.0 -182.85 -146.3 -182.5 -147.0 Q-180.45 -148.5 -178.05 -149.35 L-178.0 -149.5 -176.75 -149.25 -177.4 -147.7 -177.5 -147.0 -176.85 -145.45 -176.75 -144.75 Q-178.25 -144.65 -178.45 -146.25 L-178.5 -147.0 Q-181.0 -147.55 -183.25 -144.0 L-183.45 -143.25 -183.5 -142.75 Q-186.25 -141.4 -186.5 -143.5 -186.35 -145.35 -188.0 -146.5 L-188.75 -147.0 -189.0 -147.15 -190.5 -147.0 -190.5 -144.75 -190.5 -143.25 -190.85 -142.55 -191.5 -141.75 Q-191.35 -140.2 -191.85 -138.8 L-192.25 -138.0 -194.5 -138.0 -194.5 -138.25 -194.0 -138.5 -192.75 -139.0 -192.55 -140.5 -192.5 -142.0 -192.0 -142.75 -191.5 -143.5 -191.5 -146.5 -191.5 -148.0 -189.15 -148.25 -188.45 -149.2 -187.75 -150.0 -187.7 -150.75 -187.5 -151.5 Q-185.7 -153.05 -184.75 -155.25 -186.2 -156.9 -186.15 -159.0 L-185.75 -159.25 M-203.5 -143.25 Q-202.95 -142.3 -202.0 -141.8 L-200.75 -141.25 -200.75 -141.2 -199.05 -142.35 -199.0 -142.5 -197.75 -142.25 Q-197.35 -141.15 -197.45 -140.0 L-197.5 -139.25 -196.55 -137.7 -196.25 -137.0 -193.75 -136.25 -193.4 -136.2 Q-192.9 -136.65 -192.5 -137.25 L-188.65 -138.0 -188.55 -139.0 Q-188.45 -139.45 -187.75 -139.25 L-187.55 -138.15 -186.75 -138.25 Q-186.75 -137.9 -186.9 -137.6 L-187.5 -136.75 -187.6 -135.5 -187.75 -134.75 Q-188.35 -135.3 -188.55 -136.25 -189.8 -135.95 -191.25 -136.25 L-191.6 -135.55 -192.25 -134.75 Q-194.3 -134.4 -196.5 -135.75 L-198.5 -138.0 -198.5 -140.25 -198.5 -141.0 -199.95 -140.2 -200.5 -139.75 -200.9 -139.75 Q-201.25 -137.8 -202.25 -135.9 L-202.5 -134.75 -206.25 -134.0 Q-206.65 -132.55 -206.55 -131.0 L-206.5 -129.5 -205.5 -128.0 -205.5 -127.25 -205.5 -126.5 -203.8 -124.2 -203.5 -123.75 -201.5 -122.75 -204.5 -122.75 -205.9 -124.95 -206.25 -125.45 -207.5 -125.0 -207.0 -123.5 -206.5 -122.0 -208.45 -120.95 -209.0 -120.5 -211.5 -121.25 Q-210.5 -121.65 -209.6 -122.15 L-208.75 -122.75 Q-208.35 -123.85 -208.55 -125.0 -208.7 -126.2 -208.0 -126.5 L-206.6 -126.25 -206.75 -127.25 -207.5 -128.0 -207.3 -133.25 -207.0 -134.75 Q-205.65 -136.2 -203.5 -136.0 L-202.15 -139.8 -202.1 -139.9 -202.45 -140.0 -202.5 -140.25 -202.0 -140.5 Q-203.1 -141.45 -204.5 -141.75 L-204.5 -143.25 -204.5 -144.0 Q-202.75 -145.85 -200.5 -147.25 L-199.0 -147.5 -198.75 -147.5 -199.25 -146.5 Q-199.65 -146.15 -200.25 -146.0 -201.4 -144.5 -203.15 -143.75 L-203.5 -143.25 M-61.75 -8.25 Q-55.75 -10.1 -51.25 -6.0 L-48.25 -6.0 Q-47.5 -8.15 -46.0 -9.2 L-45.75 -9.25 Q-45.9 -7.65 -46.8 -6.25 L-47.25 -5.5 -51.5 -4.75 Q-55.0 -8.7 -60.5 -7.0 L-60.7 -4.8 -61.0 -4.0 Q-61.35 -3.5 -61.8 -3.3 L-61.05 -2.5 -60.0 -1.25 -58.15 -0.75 Q-57.25 -0.4 -56.5 0.25 L-57.05 0.65 -58.0 1.0 Q-61.95 -0.05 -64.75 -3.0 L-65.05 -2.5 -65.25 -0.25 -65.25 0.5 -64.95 1.2 -64.25 2.0 -69.1 5.35 -71.0 6.5 -72.4 6.05 -72.5 5.75 Q-70.1 4.9 -68.3 3.2 L-66.75 1.75 Q-66.75 -0.5 -67.15 -2.7 -67.55 -4.65 -66.0 -5.0 L-63.5 -4.75 -62.85 -4.25 -61.75 -5.25 Q-61.2 -6.4 -61.65 -7.55 L-61.75 -8.25 M-47.5 -17.75 L-47.25 -17.0 Q-46.3 -17.05 -46.0 -18.5 -44.05 -21.2 -41.5 -18.75 -44.85 -18.85 -45.5 -16.5 L-47.5 -15.75 -48.75 -17.25 Q-50.05 -16.15 -51.5 -15.25 L-51.5 -10.75 -51.5 -10.0 Q-52.75 -8.85 -54.5 -8.75 -54.05 -10.25 -52.5 -11.0 L-52.5 -14.75 -52.5 -15.5 Q-50.6 -17.65 -48.0 -19.2 L-47.75 -19.25 -47.5 -17.75 M-28.5 -14.75 Q-30.55 -14.55 -32.05 -13.6 -33.0 -13.0 -34.0 -12.5 -34.75 -12.65 -35.15 -13.1 -35.5 -13.5 -35.5 -14.25 L-34.25 -14.15 Q-32.85 -14.15 -32.35 -15.2 L-32.0 -15.5 -28.8 -15.05 -28.5 -14.75 M-36.45 -12.9 L-34.75 -12.25 -34.0 -10.8 -33.5 -10.0 -31.5 -8.75 Q-34.25 -7.4 -34.5 -9.5 -35.3 -11.55 -37.5 -11.5 L-39.5 -10.75 Q-38.8 -12.05 -37.65 -12.85 L-36.75 -13.25 -36.45 -12.9 M-159.75 110.75 Q-159.35 111.8 -159.45 113.0 L-159.5 113.75 -160.5 115.25 Q-159.65 116.65 -159.5 118.25 -159.8 119.35 -160.5 120.25 -163.2 120.3 -165.5 121.75 L-165.8 122.7 -164.75 122.75 Q-164.35 123.8 -164.5 125.0 L-164.5 125.75 Q-161.5 129.9 -162.45 135.5 L-162.5 136.0 Q-161.2 136.45 -159.75 137.5 L-159.55 139.0 -159.5 139.75 -160.5 141.25 -160.5 142.75 -159.7 141.3 -159.0 140.5 -158.3 141.0 -158.0 141.25 -156.5 141.0 -155.5 137.25 -155.25 136.5 -154.5 135.75 -153.75 135.8 -152.75 136.0 Q-152.3 134.3 -152.5 132.5 -152.6 131.65 -152.0 131.5 L-150.75 131.75 -151.2 132.8 Q-150.45 131.4 -149.0 130.0 L-148.55 128.9 -147.75 128.5 Q-146.95 130.2 -147.2 132.25 L-147.25 133.0 Q-148.6 134.05 -149.15 132.25 L-149.25 132.25 -150.5 135.25 -151.55 136.15 -151.55 136.25 -151.5 137.0 -154.5 137.25 -154.6 138.7 -154.75 139.5 -155.5 140.25 -155.5 141.0 -155.5 142.25 -160.5 142.75 -160.5 145.0 -160.5 145.75 Q-163.25 150.0 -166.5 154.0 L-170.25 154.0 Q-172.05 155.2 -172.5 157.0 -172.5 158.25 -171.5 159.25 L-171.5 160.0 -171.5 160.75 Q-172.3 161.8 -172.5 163.0 -174.9 163.65 -175.5 165.5 L-179.75 166.5 -181.75 170.25 -179.75 172.5 -181.5 173.95 Q-181.75 176.3 -182.45 178.5 L-182.5 178.95 -180.75 179.7 -180.5 180.45 -180.25 180.95 -177.7 182.3 -177.55 181.2 -177.5 180.7 -175.75 179.95 Q-175.65 178.35 -175.0 176.95 -173.8 175.9 -172.0 175.95 L-171.2 171.05 Q-171.15 170.85 -170.75 170.75 -170.15 174.15 -170.35 177.45 L-170.5 178.2 Q-172.0 179.55 -173.0 177.7 L-174.5 178.95 Q-174.55 180.95 -176.5 181.95 L-176.55 182.7 -176.6 182.95 -175.75 183.45 Q-175.35 184.55 -175.4 185.7 L-175.25 186.45 -180.0 196.2 -180.1 198.45 -180.25 199.2 Q-178.9 203.4 -176.25 206.7 -176.9 210.1 -179.0 212.45 -180.2 210.25 -178.0 207.45 -182.2 202.75 -182.0 196.2 L-182.0 195.45 Q-181.9 194.05 -180.25 193.45 -178.6 188.8 -176.5 184.45 L-177.55 183.8 -178.5 184.2 -178.1 183.5 -181.5 180.95 -183.5 180.2 Q-183.4 176.75 -182.6 173.45 L-182.5 172.75 -181.75 172.0 -183.5 171.25 Q-182.3 168.4 -180.75 166.0 L-180.55 165.2 -180.5 164.75 Q-179.15 163.95 -178.5 165.25 L-176.5 165.0 -176.0 163.5 -173.0 161.25 Q-171.95 159.95 -173.5 159.0 L-173.5 156.75 -173.5 156.0 -172.85 155.2 -173.0 155.25 -172.75 154.0 -172.5 153.25 -174.45 150.95 -175.0 150.25 -176.0 150.3 -176.75 150.0 Q-177.0 147.65 -176.2 145.5 L-175.5 144.0 Q-175.4 142.75 -176.25 141.75 L-176.0 141.5 -174.75 141.75 -174.05 142.5 -173.5 143.25 Q-173.85 144.4 -174.8 145.45 L-175.5 146.25 -175.4 147.0 -175.5 147.75 Q-174.35 148.55 -173.65 149.8 -173.5 150.1 -173.5 150.5 L-173.2 150.85 -171.75 151.75 -171.6 152.5 -171.5 153.7 -170.75 153.0 -166.75 152.0 Q-163.95 149.25 -161.75 146.0 -161.35 143.75 -161.5 141.5 L-161.5 140.75 Q-160.3 139.9 -160.5 138.5 -161.2 136.75 -163.5 137.25 -162.65 131.55 -165.05 126.75 L-165.5 126.0 -165.5 124.5 -165.5 124.0 -172.5 124.25 -175.5 121.25 Q-175.95 118.75 -174.8 116.7 L-174.5 116.0 -177.5 111.5 -176.75 110.0 Q-176.55 106.35 -177.15 102.75 L-176.75 102.75 Q-175.1 106.35 -175.9 110.2 L-176.25 111.0 Q-175.85 112.95 -173.75 114.75 L-173.55 116.25 -173.5 117.0 -174.5 118.5 -174.5 120.0 -174.5 120.75 -172.25 123.0 -166.5 122.65 -166.5 121.75 -166.5 121.0 Q-164.6 120.0 -163.0 118.5 L-162.0 119.0 -160.5 118.0 Q-161.65 116.25 -161.5 114.25 L-160.5 112.75 -160.2 110.85 -159.75 110.75 M-223.75 21.75 L-221.85 25.55 -221.5 26.25 -222.15 26.95 Q-219.85 26.35 -218.75 24.75 -218.35 25.8 -218.45 27.0 L-218.5 27.75 -219.75 27.85 -220.0 27.75 -221.25 28.0 Q-221.6 30.05 -220.5 31.75 L-221.5 33.25 Q-223.7 35.05 -224.75 32.75 -224.8 30.65 -223.25 31.75 -222.6 29.8 -222.5 27.25 -223.7 24.7 -224.1 21.95 L-223.75 21.75" fill="#000000" fill-rule="evenodd" stroke="none"/>
    <path d="M-89.0 -217.75 Q-87.15 -198.9 -87.4 -179.5 -87.7 -154.2 -90.0 -129.25 L-91.0 -128.5 -91.1 -127.75 -91.75 -123.25 -91.85 -122.8 -92.75 -121.5 -92.8 -121.15 -113.25 -120.4 -113.25 -120.75 -113.4 -121.45 -114.25 -123.0 Q-114.7 -142.3 -114.05 -161.3 -113.0 -190.05 -111.0 -218.0 L-89.0 -217.75 M-94.3 -93.65 L-94.0 -93.25 -93.9 -92.9 -92.75 -92.0 Q-90.95 -70.95 -90.75 -49.25 -90.45 -19.5 -91.75 10.0 -91.95 15.0 -93.25 19.75 L-114.75 20.5 Q-117.45 -0.65 -115.85 -22.35 -115.0 -33.5 -115.1 -44.75 -115.3 -68.25 -113.25 -91.25 L-113.1 -91.85 -112.0 -92.75 -112.0 -93.5 Q-111.9 -94.15 -111.25 -94.25 L-94.3 -93.65 M-113.25 48.5 L-113.25 47.75 -112.75 43.5 -112.7 43.3 -111.85 42.4 -111.75 42.25 -94.25 42.5 -94.15 42.85 -93.25 43.5 Q-91.3 64.35 -90.7 85.5 -90.0 109.5 -91.0 133.45 -91.15 136.9 -92.5 140.0 L-92.75 140.25 -94.0 141.5 -114.0 141.35 -114.0 141.0 Q-114.0 140.75 -114.15 140.65 -114.65 140.25 -115.25 140.0 -114.75 118.7 -114.9 98.0 -115.1 73.5 -114.0 49.25 L-113.25 48.5 M-94.05 160.6 L-94.0 161.0 -93.9 161.4 -93.0 162.25 Q-91.65 182.2 -91.75 202.7 -91.85 217.4 -92.5 231.95 L-92.6 232.25 -94.75 232.95 -95.0 233.75 -95.25 235.2 -95.25 235.45 -114.75 235.45 Q-116.75 215.55 -116.45 194.95 -116.2 178.4 -115.0 162.25 L-114.95 162.1 Q-113.55 161.55 -114.0 160.0 L-94.05 160.6" fill="#fefe56" fill-rule="evenodd" stroke="none"/>
  </g>
  <defs>
    <radialGradient cx="0" cy="0" gradientTransform="matrix(0.4268, 0.0, 0.0, 0.4268, 0.0, 0.0)" gradientUnits="userSpaceOnUse" id="gradient0" r="819.2" spreadMethod="pad">
      <stop offset="0.0" stop-color="#dfdfdf"/>
      <stop offset="1.0" stop-color="#707070"/>
    </radialGradient>
  </defs>
</svg>
