<?xml version="1.0" encoding="UTF-8" standalone="no"?>
<svg xmlns:xlink="http://www.w3.org/1999/xlink" height="415.8px" width="562.3px" xmlns="http://www.w3.org/2000/svg">
  <g transform="matrix(1.0, 0.0, 0.0, 1.0, 281.15, 207.9)">
    <path d="M281.15 207.9 L-281.15 207.9 -281.15 -207.9 281.15 -207.9 281.15 207.9" fill="url(#gradient0)" fill-rule="evenodd" stroke="none"/>
    <path d="M137.2 -186.5 Q138.5 -184.8 138.7 -182.75 L138.7 -182.0 Q136.45 -178.8 132.95 -177.25 L130.45 -177.5 Q129.8 -178.9 128.45 -179.75 L128.45 -181.25 128.45 -182.0 132.45 -186.25 137.2 -186.5 M133.95 -187.25 L132.9 -186.75 131.45 -186.75 131.5 -189.75 Q131.55 -190.3 131.95 -190.5 L132.95 -190.45 134.2 -190.25 Q134.6 -189.15 134.35 -188.05 L133.95 -187.25 M124.75 -189.55 L123.95 -190.25 116.95 -191.75 Q109.85 -191.9 105.5 -186.7 L104.95 -186.0 104.75 -183.05 Q104.55 -181.55 104.7 -180.0 115.2 -170.6 124.95 -182.25 126.75 -184.4 126.7 -187.25 L124.75 -189.55 M126.2 -191.5 Q127.75 -190.15 128.95 -188.5 128.75 -181.45 124.35 -177.75 L124.95 -178.0 127.45 -177.75 128.35 -176.9 128.7 -176.25 128.1 -174.8 Q127.5 -173.6 126.45 -172.75 L125.95 -172.65 124.45 -172.75 123.7 -173.5 Q123.15 -175.0 123.6 -176.55 123.8 -177.3 124.25 -177.65 120.55 -174.65 114.1 -173.9 112.35 -173.7 110.55 -174.45 106.5 -176.1 103.45 -179.5 101.75 -184.9 105.0 -189.0 107.0 -191.5 109.95 -192.75 113.05 -192.2 115.95 -193.5 117.3 -194.1 118.7 -194.0 L120.25 -193.6 124.45 -193.0 126.2 -191.5 M129.45 -181.25 L130.55 -180.05 131.2 -179.5 133.2 -179.25 Q134.4 -180.75 136.0 -181.65 136.7 -182.0 137.2 -182.75 L136.65 -184.2 136.2 -185.0 133.45 -185.0 130.4 -182.05 129.45 -181.25 M124.45 -175.75 L124.45 -175.0 124.45 -174.25 126.2 -174.0 126.95 -174.75 Q127.2 -176.5 124.75 -175.9 L124.45 -175.75 M132.45 -174.25 L131.6 -172.7 131.45 -172.0 132.15 -170.6 132.7 -170.0 136.45 -170.0 Q135.9 -173.0 133.15 -174.1 L132.45 -174.25 M131.95 -175.5 Q134.7 -174.9 136.9 -172.9 L137.45 -172.25 137.45 -171.25 Q139.1 -171.65 139.95 -172.5 L141.2 -172.25 141.4 -171.5 141.45 -170.75 143.45 -169.25 143.4 -166.25 143.2 -164.75 Q142.0 -163.1 140.5 -161.75 L139.7 -161.0 137.45 -160.75 Q133.95 -164.4 136.95 -168.65 133.8 -168.1 130.95 -169.5 132.3 -168.2 132.95 -165.85 L133.45 -165.0 Q133.85 -163.9 133.7 -162.75 L133.45 -161.5 Q127.15 -159.4 121.95 -162.75 119.9 -166.1 121.05 -169.8 121.65 -171.6 122.95 -172.0 124.8 -172.3 126.25 -171.35 L126.95 -171.0 Q129.0 -171.0 130.45 -169.9 L130.45 -172.75 130.45 -173.5 Q130.4 -174.9 131.95 -175.35 L131.95 -175.5 M140.2 -178.25 L141.05 -176.8 141.7 -176.0 140.55 -174.45 140.2 -173.75 138.45 -173.75 138.4 -177.5 Q138.4 -178.35 138.95 -178.5 L140.2 -178.25 M137.45 -171.25 L137.45 -170.0 137.45 -169.35 137.7 -169.75 137.65 -170.5 137.45 -171.25 M138.95 -170.0 L136.8 -165.45 136.45 -164.75 Q136.55 -163.6 137.3 -162.55 L137.7 -162.0 Q137.85 -161.9 137.95 -161.9 L139.2 -162.0 142.2 -165.0 Q142.6 -166.1 142.5 -167.25 L142.45 -168.0 Q141.1 -169.65 139.2 -170.1 L138.95 -170.0 M123.95 -170.0 Q122.65 -167.05 123.5 -164.25 L123.7 -163.5 131.95 -163.25 Q129.7 -168.35 125.7 -170.0 L124.95 -169.75 123.95 -170.0 M103.2 -175.0 L103.55 -175.7 103.9 -176.3 103.95 -176.5 105.1 -176.05 105.45 -175.5 105.1 -174.9 Q104.7 -174.65 104.2 -174.5 L103.45 -173.75 103.45 -172.25 103.45 -171.5 Q103.8 -169.55 106.2 -170.0 L107.0 -171.5 107.45 -172.25 107.15 -172.95 106.45 -173.75 Q107.45 -175.15 108.45 -173.0 108.4 -170.9 106.85 -169.4 L105.95 -168.75 102.45 -169.75 102.45 -172.75 102.45 -174.25 103.2 -175.0 M92.55 -188.0 L92.45 -187.5 94.2 -187.25 Q94.65 -185.8 94.5 -184.25 L94.45 -183.75 Q93.05 -182.9 91.45 -183.5 L90.2 -185.0 90.2 -187.25 90.95 -188.0 Q91.1 -188.85 91.65 -189.3 91.85 -189.5 92.2 -189.5 L92.55 -188.0 M90.45 -175.0 L88.5 -172.0 Q87.65 -170.6 86.2 -169.75 82.4 -169.4 79.45 -172.0 L79.4 -172.75 Q79.15 -174.8 79.95 -176.5 L80.3 -175.75 80.45 -172.75 81.05 -172.15 Q82.2 -171.4 83.45 -170.75 L86.2 -171.0 87.4 -172.55 89.45 -175.5 89.35 -177.75 Q89.4 -179.8 87.95 -181.25 83.1 -180.65 79.2 -179.0 80.95 -181.8 83.7 -183.55 L84.95 -184.25 88.45 -184.0 Q91.25 -181.7 90.7 -178.0 90.5 -176.5 90.45 -175.0 M100.2 -181.5 Q102.4 -175.35 97.45 -171.75 95.45 -172.0 93.45 -172.75 92.35 -178.75 96.2 -183.0 96.6 -183.45 97.2 -183.25 L95.1 -179.55 94.45 -178.75 94.45 -175.0 94.45 -174.25 96.0 -173.05 96.45 -172.75 97.95 -173.0 98.95 -174.5 99.45 -175.25 99.2 -178.25 99.2 -179.0 Q98.2 -180.45 96.45 -181.25 98.25 -182.2 100.2 -181.5 M42.25 -93.75 L40.75 -93.9 39.5 -93.75 39.8 -94.45 40.5 -95.25 41.95 -95.6 42.0 -95.75 43.25 -95.5 44.0 -94.75 44.7 -94.0 44.7 -88.75 44.7 -87.25 42.8 -84.95 42.5 -84.5 Q38.85 -83.95 37.5 -87.75 L37.5 -91.5 37.5 -93.0 38.0 -93.3 39.25 -93.25 Q37.55 -90.25 39.15 -87.2 L39.75 -86.0 40.95 -85.95 42.25 -86.25 42.8 -87.75 43.25 -88.5 43.25 -90.75 43.25 -92.25 42.9 -92.95 42.25 -93.75 M45.45 -75.5 Q51.85 -62.3 44.0 -51.9 49.55 -61.8 44.5 -72.05 L44.2 -72.75 44.3 -73.5 44.45 -74.25 Q43.4 -75.9 41.5 -76.5 40.9 -78.25 39.55 -79.6 L39.25 -80.0 38.0 -79.9 37.75 -79.75 Q37.35 -79.5 36.95 -79.35 L35.75 -79.0 Q35.35 -77.65 34.3 -76.7 L33.75 -76.0 33.55 -75.25 33.5 -74.5 33.1 -73.9 32.5 -73.5 Q32.25 -61.7 38.9 -51.7 L39.25 -51.0 42.7 -50.3 41.7 -49.25 Q41.0 -48.5 39.5 -48.5 31.55 -58.8 31.5 -71.75 L31.5 -74.75 Q33.3 -78.3 36.5 -80.7 L38.0 -81.75 40.25 -81.5 41.0 -80.75 41.75 -80.0 41.75 -79.25 41.75 -78.5 Q42.85 -77.0 44.65 -76.1 L45.45 -75.5 M31.15 -93.0 L31.25 -92.25 31.25 -91.5 32.0 -90.75 32.1 -89.25 31.75 -83.25 31.35 -82.6 29.5 -80.5 Q26.3 -79.85 23.5 -81.75 21.65 -83.0 19.5 -83.75 L19.35 -84.45 18.5 -86.0 18.5 -86.75 18.5 -89.75 18.5 -90.5 Q18.5 -90.9 18.65 -91.1 L20.0 -92.25 20.05 -93.0 20.25 -93.75 20.95 -94.55 22.0 -95.75 22.25 -95.9 22.95 -96.1 23.0 -96.25 28.5 -96.0 29.45 -95.2 31.0 -93.75 31.15 -93.0 M29.75 -89.25 L29.25 -90.0 28.75 -90.75 28.55 -92.2 28.25 -93.0 Q25.9 -95.35 22.75 -93.25 L20.9 -91.1 20.0 -90.25 Q19.2 -89.3 19.4 -88.0 L19.5 -86.5 Q21.9 -83.15 26.0 -81.75 28.55 -81.35 30.0 -83.25 L29.8 -87.75 29.75 -89.25 M24.45 -75.25 L25.3 -73.8 26.5 -72.25 Q34.65 -55.35 33.0 -36.95 32.55 -31.95 28.5 -28.75 L22.25 -28.75 19.15 -30.95 18.45 -29.3 Q17.65 -28.0 16.5 -27.0 16.25 -26.75 16.0 -26.8 14.15 -26.9 12.5 -27.75 L12.5 -28.5 12.5 -30.75 12.5 -31.25 12.9 -31.3 14.0 -30.5 13.75 -29.8 Q13.85 -29.0 14.25 -28.25 L15.25 -28.0 15.9 -28.6 18.0 -30.75 Q16.25 -31.5 14.75 -32.4 L15.0 -32.5 16.85 -32.35 16.5 -32.55 Q13.75 -33.95 11.75 -36.25 10.1 -41.55 9.2 -46.9 8.4 -51.4 6.5 -55.75 L5.75 -56.5 5.6 -64.75 Q5.45 -69.75 7.0 -74.5 L8.0 -75.25 9.0 -76.0 9.75 -75.25 10.0 -75.35 10.1 -76.0 10.3 -76.75 10.75 -77.5 11.25 -77.95 12.0 -78.2 12.95 -78.4 13.0 -78.5 Q18.2 -79.7 22.35 -76.9 23.1 -76.4 24.0 -76.0 L24.45 -75.25 M9.0 -72.75 Q7.5 -66.25 8.15 -59.25 L8.25 -57.75 Q11.05 -51.65 12.2 -45.0 L12.5 -43.5 13.25 -42.75 14.25 -38.95 14.5 -37.5 Q18.5 -34.75 22.75 -32.25 L27.75 -32.0 Q30.0 -37.3 30.2 -43.25 L30.5 -44.75 Q29.45 -58.1 23.65 -70.35 L23.25 -71.75 Q18.95 -76.6 12.5 -75.0 L9.8 -73.45 9.0 -72.75 M1.25 -50.75 Q2.1 -47.9 1.1 -44.8 L0.75 -44.0 Q-0.95 -42.55 -2.0 -44.25 -2.8 -45.25 -2.6 -46.5 L-2.5 -47.25 -1.5 -48.75 -1.0 -49.5 Q0.1 -47.95 -1.35 -46.35 L-1.5 -45.75 0.25 -45.0 Q0.7 -46.85 0.3 -48.8 L0.25 -49.5 Q-0.85 -50.45 -0.25 -51.35 L0.25 -51.5 1.25 -50.75 M6.5 -44.5 L3.5 -43.75 Q3.5 -46.0 4.2 -48.0 4.45 -48.75 5.0 -49.0 L6.4 -48.55 7.0 -48.0 7.55 -46.45 7.5 -45.75 6.65 -45.1 Q6.5 -44.9 6.5 -44.5 M2.0 -40.0 L6.5 -39.75 Q13.0 -34.2 11.65 -25.55 11.3 -23.35 9.75 -21.75 L8.5 -21.5 7.75 -22.3 Q6.25 -23.9 5.25 -25.75 L4.95 -25.95 2.5 -26.5 -0.85 -31.85 Q-2.2 -33.8 -1.75 -36.25 L-1.1 -37.05 Q0.35 -39.0 1.9 -39.85 L2.0 -40.0 M2.25 -37.5 L0.1 -35.15 -0.25 -34.5 Q1.0 -31.15 3.4 -28.45 L3.75 -28.0 Q7.1 -26.75 9.0 -23.5 11.55 -29.35 8.55 -34.85 7.75 -36.35 6.0 -37.5 L2.25 -37.5 M19.55 -25.65 L25.5 -24.75 27.9 -22.4 28.5 -21.75 Q28.95 -18.9 28.9 -15.75 28.85 -12.25 27.75 -9.0 L26.3 -6.5 Q25.8 -5.35 24.6 -4.4 L22.5 -2.5 19.5 -2.5 17.25 -4.75 17.25 -5.5 17.25 -6.25 15.5 -7.25 13.0 -9.5 13.0 -11.75 13.0 -12.5 13.0 -13.25 12.5 -14.0 12.0 -14.75 12.0 -17.0 12.0 -17.75 12.0 -19.25 Q13.1 -20.15 13.65 -21.45 14.1 -22.65 14.9 -23.65 15.9 -25.0 17.0 -25.75 L19.55 -25.65 M15.35 -21.6 L14.75 -20.75 14.35 -19.3 14.0 -18.5 14.0 -16.25 14.0 -15.5 15.0 -14.0 15.0 -11.0 15.0 -10.25 16.0 -9.0 18.25 -8.5 Q19.0 -7.55 18.8 -6.25 L18.75 -5.5 19.75 -4.25 22.25 -4.25 Q24.35 -6.8 26.25 -9.5 27.6 -13.8 27.15 -18.55 L27.25 -20.0 25.25 -22.25 Q19.65 -22.1 16.0 -23.0 L15.35 -21.6 M10.4 -19.5 L10.5 -16.75 7.3 -16.75 Q12.55 -7.75 9.15 5.25 7.9 10.15 3.6 12.6 -5.5 17.85 -11.9 9.1 L-13.25 7.5 Q-18.2 -2.05 -17.25 -12.7 -17.0 -15.75 -16.0 -18.75 -15.05 -19.95 -13.1 -21.1 L-11.75 -22.0 -11.6 -22.55 -11.5 -23.25 Q-9.75 -24.4 -8.65 -26.2 L-7.5 -27.75 -6.05 -28.15 -6.0 -28.25 Q2.3 -24.15 6.45 -18.05 L6.4 -18.25 Q6.15 -19.95 7.0 -20.5 L10.25 -20.25 10.4 -19.5 M17.0 -1.75 L20.25 -1.5 21.15 -0.7 22.5 0.75 Q23.2 3.1 22.05 5.4 21.25 7.1 20.75 9.0 L17.2 12.7 15.5 14.25 14.95 14.5 12.5 14.5 11.75 13.75 10.25 12.25 Q10.1 9.55 10.85 7.1 11.35 5.4 12.25 4.0 L12.4 3.25 12.5 1.75 12.5 1.0 13.2 0.2 14.5 -1.25 16.95 -1.65 17.0 -1.75 M254.2 -112.25 Q253.35 -111.9 252.65 -111.3 L252.45 -110.75 252.3 -110.05 251.45 -108.5 254.8 -96.45 254.95 -95.0 256.0 -93.55 256.7 -92.75 257.95 -92.5 258.95 -93.0 Q262.85 -101.7 259.25 -110.35 258.8 -111.45 257.95 -112.25 256.15 -113.45 254.2 -112.25 M258.45 -115.0 Q267.0 -104.65 261.15 -91.8 260.5 -90.3 258.95 -89.75 256.6 -90.7 254.95 -92.25 261.2 -81.0 256.8 -68.25 252.1 -54.6 240.05 -46.7 236.8 -44.6 233.0 -43.4 219.7 -39.1 215.65 -51.9 210.3 -68.85 221.35 -83.55 224.95 -88.3 229.4 -91.65 228.15 -92.3 227.2 -93.75 227.05 -95.3 227.35 -96.8 L227.45 -98.25 228.45 -99.0 228.45 -99.75 228.45 -100.25 230.0 -100.65 231.45 -100.75 233.15 -99.2 233.7 -98.5 Q234.3 -96.5 233.95 -94.6 235.85 -95.65 237.95 -96.5 L251.85 -94.95 253.1 -94.5 Q251.35 -97.25 250.95 -101.2 L250.45 -104.3 Q249.75 -107.4 251.2 -110.25 L250.6 -110.65 250.2 -111.25 250.4 -112.0 250.7 -113.5 252.0 -114.05 Q253.8 -114.6 254.95 -115.25 L258.45 -115.0 M253.45 -118.5 L252.7 -119.25 Q252.0 -121.3 252.1 -123.75 252.1 -124.75 253.2 -124.5 254.2 -123.15 253.6 -121.45 L253.45 -120.75 Q254.5 -119.4 256.45 -118.75 L253.45 -118.5 M248.4 -117.75 L248.45 -117.0 Q247.6 -114.65 246.2 -112.5 244.6 -112.3 242.95 -113.5 240.25 -117.5 242.1 -121.8 242.4 -122.5 243.2 -122.25 241.7 -118.85 243.2 -115.5 L243.45 -114.75 245.45 -114.0 247.45 -117.75 Q245.4 -119.8 248.2 -119.25 L248.4 -117.75 M247.15 -106.2 L247.7 -105.5 Q248.15 -102.05 246.35 -98.8 L245.45 -97.5 242.45 -97.5 240.95 -99.0 240.2 -99.75 240.2 -102.75 240.2 -104.25 Q241.35 -105.15 241.8 -106.45 L242.2 -107.25 Q243.6 -108.25 245.45 -107.75 L247.15 -106.2 M244.7 -105.75 L242.7 -105.9 242.45 -105.75 242.1 -104.3 241.7 -103.5 241.7 -101.25 241.7 -100.5 242.25 -99.8 242.7 -99.25 244.95 -99.25 245.8 -101.45 246.2 -102.25 Q246.25 -103.9 245.2 -105.25 L244.7 -105.75 M193.2 -112.5 Q194.45 -108.65 189.5 -107.2 L188.95 -107.0 186.45 -107.5 Q186.25 -108.9 185.5 -109.95 185.35 -110.15 185.45 -110.5 186.85 -110.55 187.7 -109.25 190.7 -109.0 192.55 -112.05 192.7 -112.4 193.2 -112.5 M186.95 -104.0 Q189.25 -103.95 190.8 -102.35 L191.7 -101.5 Q192.3 -99.65 192.15 -97.7 192.05 -96.25 191.45 -94.75 L190.2 -93.3 188.7 -91.75 183.45 -91.5 Q183.05 -94.1 183.15 -96.75 L183.2 -99.75 183.6 -100.35 185.2 -101.25 Q184.5 -98.8 184.65 -96.0 L184.7 -93.25 188.2 -93.25 188.95 -94.05 190.2 -95.5 190.05 -97.0 189.95 -99.25 Q189.45 -100.75 187.95 -101.45 L186.7 -102.0 186.0 -102.05 Q185.7 -102.5 185.95 -103.25 L186.3 -103.6 186.95 -103.85 186.95 -104.0 M198.15 -120.9 Q199.35 -123.35 201.9 -124.5 L207.8 -127.35 Q210.55 -128.7 212.95 -129.5 L220.45 -129.25 Q231.9 -112.55 223.55 -92.9 221.3 -87.6 216.6 -84.9 210.05 -81.1 204.45 -86.5 197.75 -92.95 195.85 -102.35 193.8 -112.35 198.15 -120.9 M211.2 -126.25 Q195.5 -122.25 197.9 -106.7 199.6 -95.95 206.6 -88.35 207.45 -87.4 208.7 -86.75 219.0 -86.8 221.4 -97.55 223.0 -104.7 222.85 -112.0 222.65 -119.3 219.45 -126.0 L211.2 -126.25 M234.45 -121.75 L236.0 -121.3 237.45 -121.0 Q242.3 -115.55 239.5 -109.0 L239.2 -108.25 Q237.05 -106.9 236.1 -104.55 L235.7 -104.0 232.2 -104.0 Q227.95 -108.7 228.85 -115.25 L228.95 -116.75 Q229.3 -117.9 230.2 -119.05 L230.7 -119.75 231.95 -120.5 Q230.85 -116.3 230.95 -111.5 L230.95 -110.0 Q231.95 -109.0 232.5 -107.8 L232.95 -107.0 233.25 -106.7 234.2 -106.75 Q241.45 -114.4 233.45 -120.6 233.1 -120.9 232.95 -121.5 L233.95 -121.7 234.45 -121.75 M231.95 -97.0 Q231.45 -98.55 229.9 -99.05 L229.45 -99.0 228.9 -97.55 228.45 -96.75 228.55 -95.25 228.7 -94.5 229.25 -93.8 229.7 -93.25 Q229.85 -93.15 229.95 -93.15 L231.2 -93.25 Q232.25 -94.55 232.0 -96.25 L231.95 -97.0 M211.25 -80.1 L212.45 -80.25 214.95 -78.0 215.45 -77.25 Q215.6 -74.8 214.15 -72.8 L213.45 -72.0 Q208.95 -70.65 207.95 -74.5 L208.1 -75.2 208.7 -76.0 208.9 -76.75 208.95 -77.5 209.95 -79.0 210.45 -79.75 211.25 -80.1 M210.15 -74.7 Q210.1 -74.5 210.2 -74.25 L212.2 -74.75 Q211.95 -75.85 210.95 -76.4 L210.95 -76.25 210.15 -74.7 M207.45 -67.75 L208.0 -67.35 209.45 -66.75 Q210.3 -64.7 209.95 -62.25 L209.7 -60.75 208.45 -59.3 207.95 -58.75 Q210.7 -58.4 213.45 -58.75 216.65 -52.15 211.95 -46.05 L211.45 -45.5 208.45 -45.5 Q206.25 -47.3 204.2 -49.25 203.8 -50.35 203.95 -51.5 L203.95 -52.25 204.95 -53.75 204.95 -54.5 204.95 -55.25 205.85 -56.8 205.95 -57.5 207.55 -58.5 204.45 -58.25 203.7 -59.0 202.95 -59.75 Q202.75 -63.1 204.8 -65.9 L204.95 -66.5 205.9 -67.3 206.2 -67.75 206.95 -67.75 207.45 -67.75 M206.7 -64.75 L205.3 -61.7 204.95 -61.0 Q206.35 -59.45 207.95 -61.25 207.95 -63.15 207.35 -64.8 L206.7 -64.75 M207.95 -56.75 L207.4 -55.3 206.95 -54.5 206.95 -53.75 206.95 -53.0 206.45 -52.25 205.95 -51.5 Q206.6 -49.5 208.2 -47.75 L208.7 -47.25 211.2 -47.25 Q213.35 -51.2 212.5 -55.45 L211.95 -57.0 210.95 -57.4 209.95 -57.5 209.0 -57.2 207.95 -56.75 M216.6 -62.55 Q215.2 -52.05 223.7 -46.85 229.8 -43.1 235.95 -47.6 243.2 -52.95 248.5 -60.4 259.25 -75.6 251.85 -91.6 251.25 -92.95 249.7 -93.0 L237.2 -93.0 Q219.4 -83.45 216.6 -62.55 M194.25 -89.4 L193.95 -89.25 Q172.4 -80.25 179.15 -58.8 180.0 -56.1 182.95 -55.85 198.05 -54.45 201.9 -69.6 203.25 -74.8 202.85 -80.2 202.65 -83.15 200.45 -85.25 L195.45 -89.5 194.25 -89.4 M193.95 -92.5 L196.45 -92.25 Q212.0 -81.55 202.9 -64.15 199.55 -57.75 193.15 -54.7 182.95 -49.85 177.05 -58.2 174.8 -61.4 174.55 -65.25 173.75 -78.25 183.2 -87.0 189.1 -88.6 193.9 -92.35 L193.95 -92.5 M170.2 -72.5 L171.2 -71.75 171.65 -70.25 171.7 -69.5 171.35 -68.95 Q170.95 -68.65 170.45 -68.5 L169.75 -69.3 169.2 -70.0 Q169.2 -71.15 169.6 -72.1 169.7 -72.4 170.2 -72.5 M197.05 -53.3 L198.2 -53.5 199.4 -51.25 199.7 -50.5 Q198.95 -48.2 196.45 -47.5 194.85 -47.35 194.2 -49.0 L194.3 -52.0 194.45 -52.5 197.05 -53.3 M195.7 -50.0 L196.95 -49.25 197.95 -50.0 Q197.95 -51.7 196.45 -52.4 L196.45 -52.25 195.85 -50.7 195.7 -50.0 M229.95 -40.5 L231.15 -40.1 231.45 -39.75 Q229.45 -39.25 228.45 -37.5 L228.5 -36.75 228.7 -36.0 228.2 -35.25 227.7 -34.5 230.05 -31.4 230.2 -30.75 Q227.15 -31.6 226.2 -34.5 226.35 -35.8 227.45 -36.75 L227.45 -37.5 227.45 -38.25 229.5 -40.2 229.95 -40.5 M213.9 -39.4 L213.7 -38.75 214.7 -37.25 217.2 -37.0 Q217.6 -38.1 217.4 -39.25 L217.2 -40.0 Q216.4 -41.4 214.9 -41.85 L214.7 -41.75 Q214.7 -40.5 213.9 -39.4 M215.45 -43.75 Q219.15 -41.2 218.65 -36.5 L218.45 -35.75 214.45 -35.5 212.2 -37.75 212.2 -39.25 212.2 -40.0 Q213.25 -41.95 214.55 -43.45 L215.45 -43.75 M263.2 -63.0 L264.2 -63.25 Q264.05 -60.5 262.85 -58.05 L262.45 -57.5 258.45 -57.5 257.2 -59.0 257.2 -60.5 257.2 -61.25 257.95 -62.0 258.15 -63.5 258.2 -64.25 261.7 -69.1 262.2 -69.25 258.8 -60.2 258.7 -59.5 261.95 -59.25 Q262.1 -60.9 262.9 -62.3 L263.2 -63.0 M251.2 -55.25 Q253.4 -56.65 255.95 -56.5 L256.2 -56.5 257.2 -55.75 Q258.1 -52.35 255.95 -49.0 L255.45 -48.25 Q252.4 -47.65 250.2 -50.0 L250.2 -51.5 250.2 -52.25 250.95 -53.0 251.15 -54.5 251.2 -55.25 M251.7 -50.75 Q252.5 -49.2 254.45 -50.25 L256.0 -54.1 255.95 -54.75 Q255.2 -55.95 253.5 -55.4 L253.45 -55.25 Q252.95 -53.1 251.7 -51.35 L251.7 -50.75 M200.95 81.0 L206.95 80.5 Q212.75 73.85 214.95 65.5 215.25 64.4 214.95 63.5 L212.95 63.05 210.7 62.75 Q207.9 64.3 206.35 67.15 L205.7 68.0 204.45 68.25 Q206.25 64.5 209.65 62.15 L210.45 61.5 212.95 61.1 212.95 61.0 215.45 61.25 216.4 62.05 217.7 63.5 Q215.65 72.8 209.55 80.6 L207.7 82.75 Q203.1 84.5 199.7 81.75 199.45 81.35 199.5 81.05 L199.95 80.25 200.7 80.75 200.95 81.0 M200.45 90.5 L200.3 89.9 199.45 89.25 200.05 88.55 Q200.9 87.8 201.95 87.6 L201.95 87.5 205.2 87.75 Q211.65 93.25 208.05 100.3 207.45 101.5 206.45 102.5 L205.95 102.6 203.45 102.5 Q199.25 99.0 200.2 93.45 L200.45 90.5 M195.2 95.75 Q198.95 106.4 197.65 118.25 L197.7 119.0 Q196.25 121.5 195.2 124.25 L193.45 125.25 Q199.45 110.8 194.85 95.85 L195.2 95.75 M223.6 73.75 L223.7 74.0 Q224.55 72.35 224.95 70.5 226.15 72.75 224.95 75.0 224.0 76.35 222.45 75.25 222.45 73.0 222.85 70.8 L223.2 70.75 Q223.65 72.2 223.6 73.75 M217.95 78.25 L219.2 78.75 Q218.4 81.65 218.7 84.75 L218.7 85.5 220.7 85.75 221.15 84.2 221.2 83.5 220.15 81.15 219.95 80.5 220.15 79.85 220.95 79.0 Q221.9 79.95 222.5 81.2 L222.95 82.0 Q222.95 84.4 222.0 86.5 L221.7 87.25 218.45 87.5 217.75 86.7 217.2 86.0 Q217.2 82.35 217.75 78.8 L217.95 78.25 M211.2 83.5 L211.25 84.15 210.7 85.0 Q210.7 87.25 211.1 89.4 211.2 90.1 211.7 90.75 212.6 90.25 212.15 89.0 L211.45 87.5 211.45 86.95 Q211.7 86.6 212.2 86.5 L213.2 87.25 Q214.05 88.55 213.75 90.25 L213.7 91.0 212.2 92.5 210.45 92.5 209.85 91.05 209.2 90.25 209.3 84.25 Q209.3 83.4 209.95 83.25 L211.2 83.5 M217.45 92.5 Q213.55 95.5 212.55 100.75 L212.45 101.5 212.6 101.6 213.95 100.5 214.0 105.75 213.95 107.25 Q220.15 116.25 224.45 126.6 225.2 128.45 226.7 129.75 L231.2 130.0 Q238.55 115.1 229.1 100.3 226.25 95.8 221.7 93.45 219.85 92.5 217.45 92.5 M218.95 90.0 Q228.0 91.85 231.4 101.4 233.75 108.1 236.95 114.25 238.8 124.05 232.7 131.6 231.7 132.85 229.9 133.1 L226.2 133.25 Q217.45 124.0 213.75 111.55 213.2 109.75 211.7 108.5 L211.75 107.75 211.9 106.2 211.95 104.75 211.6 104.3 211.15 104.35 210.45 104.5 Q210.7 98.0 214.75 92.5 216.35 90.25 218.95 90.0 M201.45 89.0 Q200.45 95.2 203.3 100.2 L203.7 100.75 206.2 100.75 Q210.2 94.95 205.2 89.0 203.0 87.2 201.45 89.0 M204.45 111.2 L203.7 111.25 203.7 112.75 203.7 113.5 206.2 114.0 Q206.9 112.35 205.75 110.9 L205.45 111.0 204.45 111.2 M206.15 109.95 L207.2 110.5 207.4 112.0 207.45 115.0 205.95 115.45 203.45 115.5 202.75 114.7 202.2 114.0 202.05 111.75 Q201.8 109.8 202.95 109.25 L206.15 109.95 M205.95 119.75 Q207.05 118.35 208.0 117.8 L208.2 117.75 Q204.25 128.05 208.1 138.7 L208.45 139.25 Q213.3 139.25 215.7 134.75 216.6 128.4 213.75 122.7 L213.45 122.0 Q211.15 120.75 209.2 119.0 L209.95 118.25 213.45 119.0 215.95 121.25 Q218.35 127.8 218.1 134.7 L217.95 135.5 Q215.15 140.95 210.45 141.4 223.65 142.6 226.7 156.55 229.65 170.15 222.15 181.1 217.9 187.3 210.0 187.9 197.4 188.85 192.75 176.65 186.55 160.45 196.0 146.8 192.4 143.6 192.8 138.7 192.95 137.05 193.95 135.75 L193.9 135.0 193.8 134.2 193.7 133.5 194.0 132.75 194.45 132.0 194.95 131.25 195.9 130.9 195.95 130.75 198.95 131.0 201.45 131.25 202.45 132.75 203.95 135.0 Q203.55 139.2 201.85 143.05 L201.7 143.35 Q203.95 141.35 206.95 141.25 L207.9 141.25 205.95 140.75 Q201.55 130.65 205.85 120.4 L205.95 119.75 M220.2 136.25 L222.95 137.0 221.85 138.05 220.95 138.5 220.95 139.25 220.95 140.75 223.7 141.5 Q224.1 140.4 224.0 139.2 L223.95 137.75 Q220.5 135.05 222.9 134.1 L222.95 134.0 224.45 134.25 Q227.25 138.55 225.1 143.2 L224.7 143.75 219.45 143.75 Q218.6 141.65 218.9 139.2 L218.95 137.75 219.5 137.0 220.2 136.25 M204.2 145.0 L202.2 146.5 201.2 147.25 Q201.0 148.7 201.15 150.2 L201.45 151.75 Q200.5 152.7 199.55 151.55 198.9 150.8 198.95 149.5 L197.45 149.25 Q188.1 168.1 202.2 183.7 216.4 187.0 221.15 174.65 223.85 167.6 223.2 159.95 222.35 150.3 214.2 145.25 209.15 144.1 204.2 145.0 M200.45 133.5 L197.95 133.0 196.7 133.5 Q194.75 137.35 195.05 141.7 L195.2 142.5 Q196.45 144.1 197.95 145.5 201.05 142.15 201.8 137.25 L201.95 136.5 Q201.95 135.2 201.0 134.2 L200.45 133.5 M88.2 73.75 L89.05 75.15 89.7 76.0 Q89.4 77.85 89.45 79.75 L89.45 81.25 86.45 81.25 86.4 74.5 Q86.4 73.65 86.95 73.5 L88.2 73.75 M96.7 84.0 Q94.8 81.1 91.2 82.25 L88.7 83.0 88.4 84.45 Q88.05 85.7 87.2 86.75 L87.2 87.5 87.2 88.25 86.7 89.0 86.2 89.75 86.2 91.25 86.2 93.5 Q89.5 96.05 93.7 95.25 96.5 91.1 96.55 86.25 96.55 85.15 96.7 84.0 M98.15 81.6 L98.95 82.25 Q100.05 89.8 95.95 96.3 L94.45 98.0 Q90.3 98.15 86.2 97.0 L84.7 95.5 83.95 94.75 Q83.55 92.9 83.65 91.0 L83.7 88.75 84.2 88.0 84.7 87.25 84.7 86.5 84.7 85.75 85.15 84.95 85.7 83.5 Q90.1 80.1 95.45 80.0 96.85 80.75 98.15 81.6 M87.45 79.25 L87.45 80.0 Q89.7 78.8 87.45 76.85 L87.45 77.0 87.45 79.25 M83.95 77.0 L82.85 78.15 84.1 79.55 84.45 80.25 83.9 81.7 83.45 82.5 83.45 83.25 83.45 84.0 80.45 84.25 79.7 83.5 Q79.15 80.85 79.75 78.3 L79.2 78.25 77.15 76.9 Q75.6 76.0 74.7 74.5 71.2 68.55 70.25 61.75 69.8 58.25 71.2 56.75 86.55 59.15 85.4 74.7 L85.2 75.5 84.7 76.2 83.95 77.0 M82.95 80.0 Q82.25 78.35 80.5 78.6 L80.45 78.75 Q80.45 80.6 80.6 82.45 L80.7 83.0 82.45 83.0 Q82.9 81.4 82.95 80.0 M20.25 0.25 Q17.8 -1.1 16.5 0.0 16.25 1.5 14.45 1.4 14.0 1.35 13.5 1.75 L13.5 4.0 Q10.5 7.7 12.0 12.25 13.3 13.6 15.25 12.75 L19.0 9.0 Q19.95 5.6 21.25 2.25 21.35 1.0 20.25 0.25 M39.0 73.0 L42.5 73.25 Q43.15 75.3 42.65 77.7 42.35 79.2 41.5 80.5 L41.0 80.6 39.5 80.5 38.75 79.75 37.25 78.25 37.1 77.45 37.0 74.5 37.75 73.75 Q38.45 73.15 39.0 73.0 M38.9 76.95 L38.75 77.75 39.5 78.5 41.25 78.75 41.25 76.5 41.25 75.75 Q40.5 74.3 39.0 75.5 L38.9 76.95 M33.95 81.4 L34.0 81.25 34.95 81.3 36.25 81.5 Q36.8 83.65 36.3 85.95 L36.0 86.75 Q34.65 88.3 32.5 87.25 31.85 85.0 32.6 82.75 L33.0 82.0 33.55 81.6 33.95 81.4 M34.5 83.0 L33.75 83.75 33.75 84.5 33.75 85.25 35.25 86.0 Q35.8 84.5 35.05 83.1 34.65 82.35 34.5 83.0 M71.95 59.5 Q71.5 62.95 72.85 66.3 L72.95 67.0 Q75.5 69.65 76.7 73.0 L80.2 75.25 81.95 75.0 Q83.95 67.25 78.3 61.45 L77.7 60.75 Q75.0 58.95 71.95 59.5 M62.7 65.75 L60.95 65.0 61.8 63.5 62.2 63.0 62.95 63.0 63.45 63.0 Q73.65 68.4 70.95 78.7 L70.7 79.5 67.45 79.5 66.45 78.35 66.45 79.0 Q68.05 80.6 68.7 82.65 L69.45 84.25 69.45 87.25 69.45 89.25 66.45 89.25 62.2 84.75 61.45 84.0 61.45 83.25 61.45 81.0 62.15 80.15 62.45 79.5 Q62.45 79.1 62.6 79.05 L64.2 78.75 63.95 79.5 63.45 81.0 62.65 81.85 62.45 82.5 Q64.4 85.95 68.2 88.0 L68.35 87.45 68.45 85.25 66.55 81.6 65.45 80.0 65.45 79.25 65.45 78.0 63.8 76.9 Q63.55 76.65 63.95 76.5 L65.1 76.6 63.9 74.85 Q63.3 73.9 63.45 72.75 L62.4 71.25 61.7 70.5 Q61.3 69.4 61.4 68.25 L61.45 66.75 Q62.85 66.65 62.6 68.25 L62.45 69.75 63.95 71.25 64.45 72.0 Q64.25 74.05 65.55 75.65 L67.45 77.75 67.7 77.85 68.95 77.75 Q68.85 76.45 69.6 75.4 L69.95 74.75 69.25 72.35 Q68.95 71.75 68.95 71.0 66.55 68.0 63.1 66.25 62.85 66.1 62.7 65.75 M56.7 74.0 L56.7 77.0 56.7 77.75 Q57.55 79.15 58.95 79.0 59.45 77.3 58.85 75.5 L58.45 74.75 Q58.0 73.8 57.0 73.85 56.85 73.85 56.7 74.0 M60.7 73.75 Q61.1 75.95 60.8 78.25 L60.7 79.75 60.4 80.4 59.7 81.25 58.45 81.5 56.2 79.25 55.45 78.5 Q55.05 76.3 55.25 74.0 L55.45 72.5 56.95 72.2 57.95 72.0 59.45 72.25 60.2 73.0 60.7 73.75 M57.45 85.25 Q53.7 80.95 47.95 82.75 45.4 85.2 44.1 88.7 L43.75 89.5 41.5 90.25 Q40.45 93.7 40.25 98.5 L40.25 100.75 Q43.45 112.95 55.2 113.0 65.75 100.2 57.8 85.95 L57.45 85.25 M47.95 79.75 Q61.05 79.55 63.35 92.6 L63.95 95.75 Q63.4 108.25 53.75 114.7 51.85 116.0 48.85 115.1 44.5 113.85 41.5 110.5 41.5 109.3 41.15 108.2 40.0 104.55 37.75 101.5 37.25 95.25 38.6 89.4 39.65 84.8 43.0 82.0 L43.75 82.75 43.55 83.35 Q42.75 84.5 42.35 85.75 L42.0 87.25 42.45 86.85 Q44.25 83.2 46.95 80.25 L47.9 79.9 47.95 79.75 M75.2 77.75 Q77.0 78.9 77.9 80.75 L78.2 81.5 77.55 83.75 77.2 84.5 76.2 85.25 72.45 85.25 72.45 80.75 72.45 78.75 Q72.7 78.6 72.95 78.6 L74.2 78.75 Q73.35 80.1 73.45 81.75 L73.45 83.25 76.2 84.0 76.8 82.5 77.2 81.75 74.85 77.85 75.2 77.75 M80.45 86.25 Q85.05 93.15 81.65 100.45 80.65 102.65 79.95 105.0 76.05 109.15 70.2 107.75 L69.45 107.0 67.2 104.75 67.1 103.95 Q66.95 101.35 66.95 98.75 L67.45 98.0 67.95 97.25 67.95 96.5 67.95 95.75 70.1 92.05 71.95 87.5 73.45 86.7 74.95 86.0 80.45 86.25 M73.45 89.25 Q69.55 94.95 69.05 102.0 L68.95 103.5 70.45 105.0 70.95 105.5 Q75.1 106.75 78.2 104.0 82.3 97.05 79.95 89.8 L79.2 88.5 Q77.1 86.75 74.95 88.5 L73.45 89.25 M-187.75 -171.5 Q-187.35 -168.95 -187.5 -166.25 L-187.5 -165.5 Q-188.55 -163.95 -190.0 -162.75 -190.7 -164.55 -188.5 -166.25 L-188.5 -168.5 -188.5 -169.25 Q-190.05 -170.55 -189.2 -172.1 L-188.75 -172.25 -187.75 -171.5 M-192.7 -164.85 L-192.5 -164.25 Q-195.6 -165.4 -196.4 -170.05 -196.45 -170.45 -195.75 -170.25 -194.65 -167.3 -192.7 -164.85 M-198.5 -148.75 L-196.25 -149.75 Q-195.95 -152.6 -196.7 -155.75 L-196.75 -156.5 Q-198.25 -159.5 -200.75 -161.75 L-203.5 -161.75 -204.25 -161.0 -204.5 -157.25 -204.5 -156.5 Q-202.65 -151.9 -198.85 -149.15 L-198.5 -148.75 M-195.5 -157.5 L-194.7 -154.65 Q-194.1 -152.4 -194.25 -150.0 L-194.75 -149.25 -195.5 -147.75 Q-195.75 -147.5 -196.0 -147.5 L-199.5 -147.75 Q-201.6 -149.4 -202.6 -151.45 -203.35 -153.05 -205.0 -153.75 -205.85 -155.25 -205.85 -157.25 L-205.75 -161.75 -205.4 -162.4 -204.0 -163.75 -199.75 -163.5 -197.35 -160.6 -195.5 -157.5 M-188.5 -155.75 Q-188.5 -155.4 -188.6 -155.35 L-189.5 -155.5 -189.35 -156.2 -188.5 -157.5 -184.0 -158.25 -182.5 -158.0 -181.75 -157.25 Q-181.25 -154.75 -179.55 -152.7 L-179.0 -152.0 -177.8 -151.2 -177.0 -150.5 Q-170.9 -136.25 -177.3 -123.15 -177.75 -122.15 -179.05 -122.05 L-185.5 -122.25 Q-188.8 -125.85 -190.05 -130.45 L-190.75 -132.0 -191.75 -145.5 Q-191.8 -147.2 -191.0 -148.5 -190.8 -142.05 -189.75 -135.7 L-189.5 -132.75 Q-187.8 -129.15 -185.5 -126.0 L-185.0 -125.25 Q-182.55 -123.2 -178.75 -124.75 -174.8 -134.0 -178.1 -143.65 L-179.5 -146.5 -179.45 -147.25 -179.25 -148.75 Q-182.0 -151.4 -183.95 -154.8 L-184.25 -155.5 -188.5 -155.75 M-224.0 -149.85 Q-222.1 -150.2 -221.0 -151.0 L-217.5 -150.7 -216.5 -150.5 Q-210.8 -151.7 -205.75 -148.25 L-203.5 -146.75 -202.55 -143.75 Q-202.1 -142.7 -202.2 -141.5 L-202.25 -139.25 -202.6 -138.55 -203.75 -136.25 -204.75 -135.5 -207.5 -135.5 Q-211.55 -138.9 -217.0 -139.3 L-221.5 -139.75 -222.9 -141.35 -223.8 -142.75 -224.25 -143.5 -224.6 -143.15 -225.5 -142.75 -225.75 -144.25 -225.95 -145.75 -226.0 -147.25 -225.6 -148.05 -225.0 -149.5 -224.0 -149.85 M-205.0 -145.5 Q-210.25 -149.3 -216.0 -148.0 L-221.0 -148.5 -223.15 -147.35 -223.75 -146.75 -223.75 -146.2 -222.75 -145.25 -222.8 -143.75 -222.5 -142.25 Q-214.85 -140.0 -207.25 -137.25 L-207.0 -137.15 -205.0 -137.25 -204.25 -138.75 -203.75 -139.5 Q-203.6 -141.45 -204.3 -143.15 -204.75 -144.25 -205.0 -145.5 M-221.05 -132.15 L-223.5 -131.75 Q-225.8 -130.45 -226.75 -128.0 -227.25 -126.65 -228.5 -126.25 L-228.9 -125.45 -229.1 -124.8 -229.75 -123.25 Q-228.3 -113.7 -220.05 -109.7 -218.15 -108.75 -215.85 -109.9 -204.0 -115.9 -210.35 -128.1 L-211.75 -131.0 Q-215.35 -134.05 -220.0 -132.5 -220.5 -132.25 -221.05 -132.15 M-202.8 -134.05 Q-201.7 -134.6 -201.0 -134.75 L-196.75 -134.5 -192.1 -126.95 -190.25 -124.0 -191.75 -115.85 Q-192.1 -113.45 -193.5 -111.5 L-194.0 -111.4 -195.5 -111.5 -195.7 -112.25 -195.75 -112.75 -196.05 -112.95 -197.5 -113.5 Q-201.35 -116.65 -203.8 -120.8 L-205.5 -122.75 -205.5 -126.5 -205.5 -131.0 -205.1 -131.8 -204.5 -133.25 -202.8 -134.05 M-204.55 -124.25 L-204.5 -123.5 -201.5 -118.25 -198.25 -116.0 -198.0 -115.75 -196.75 -115.5 -194.5 -113.25 Q-192.35 -116.65 -192.05 -121.5 L-191.75 -122.25 Q-193.75 -128.1 -197.75 -132.75 L-202.25 -133.0 -203.3 -131.8 -204.25 -131.0 Q-204.7 -127.7 -204.55 -124.25 M-228.0 -131.5 L-225.7 -132.9 Q-222.85 -134.45 -220.0 -135.0 -207.1 -134.7 -206.15 -121.25 -205.35 -110.6 -216.5 -106.25 -228.5 -107.15 -231.2 -119.7 L-232.0 -122.75 -231.85 -123.4 Q-231.0 -124.85 -231.15 -126.5 -231.3 -127.8 -230.5 -128.75 L-230.0 -128.95 -229.0 -129.25 -228.25 -130.0 -228.05 -130.75 -228.0 -131.5 M-224.0 -101.5 L-225.25 -101.0 Q-225.65 -99.95 -225.55 -98.75 L-225.5 -98.0 -226.5 -96.5 Q-225.4 -95.1 -224.65 -93.55 L-224.25 -93.0 Q-220.1 -90.15 -214.75 -92.0 -213.6 -93.0 -212.75 -94.25 L-212.55 -95.75 -212.5 -96.5 Q-214.65 -98.55 -217.25 -100.25 L-219.5 -100.75 Q-220.35 -101.8 -220.75 -103.0 L-222.5 -103.0 -223.55 -101.8 -224.0 -101.5 M-223.0 -104.5 L-220.05 -103.7 -218.75 -103.25 -218.55 -102.5 -218.5 -102.0 Q-215.1 -101.2 -212.5 -98.3 L-211.75 -97.5 -211.5 -96.0 Q-211.35 -94.85 -211.75 -93.75 L-213.05 -92.3 -214.75 -90.75 Q-224.15 -88.3 -227.5 -96.25 L-227.35 -96.95 -226.5 -98.5 -226.5 -99.25 -226.5 -100.0 -226.5 -100.75 Q-225.55 -102.55 -223.85 -103.9 L-223.0 -104.5 M-206.3 -111.1 Q-206.45 -111.45 -205.75 -111.25 -201.55 -110.45 -198.8 -106.75 L-198.25 -106.0 Q-198.5 -95.35 -209.5 -95.5 L-210.95 -97.05 -211.5 -97.75 -211.75 -103.0 -211.75 -106.0 -209.9 -108.35 -209.5 -109.0 -207.75 -109.25 Q-208.35 -107.5 -209.7 -106.2 L-210.25 -105.5 -210.35 -101.0 -210.5 -98.75 -209.25 -97.25 -208.75 -96.75 Q-200.1 -97.15 -199.75 -105.5 -200.95 -107.15 -202.5 -108.5 L-203.0 -109.0 Q-205.4 -109.1 -206.3 -111.1 M-164.5 -132.5 Q-164.1 -131.05 -164.2 -129.5 L-164.25 -128.0 -165.0 -127.25 -165.75 -126.5 -169.5 -126.75 -170.25 -127.5 Q-170.7 -130.1 -170.55 -132.75 L-170.5 -134.25 Q-168.85 -132.95 -169.4 -129.75 L-169.5 -128.25 -166.0 -128.0 Q-165.2 -130.8 -166.7 -133.3 L-167.0 -134.0 -168.5 -135.25 -168.0 -135.4 -166.75 -135.5 -165.75 -134.75 -165.15 -133.35 -164.5 -132.5 M-196.0 -143.75 L-194.5 -142.25 -194.35 -141.5 -194.25 -140.0 -194.25 -139.25 -194.6 -138.55 -195.25 -137.75 -195.35 -137.0 -195.5 -136.5 -197.0 -136.45 -199.5 -136.75 -200.25 -137.5 Q-200.7 -138.95 -200.6 -140.5 L-200.5 -143.5 -200.35 -144.05 -199.0 -144.75 -196.75 -144.5 -196.0 -143.75 M-199.5 -143.15 L-199.5 -143.0 -199.4 -138.5 -199.25 -138.0 -197.0 -138.0 Q-195.7 -138.85 -195.75 -140.25 L-197.75 -143.0 -199.5 -143.15 M-187.25 -116.0 L-187.45 -115.25 -187.5 -114.75 -189.25 -114.0 -194.25 -105.75 -194.25 -105.0 -194.25 -104.25 Q-197.35 -97.25 -196.25 -91.85 L-196.2 -91.8 -195.5 -91.0 Q-195.5 -90.4 -195.65 -89.8 -193.35 -83.7 -185.0 -80.0 -174.1 -81.0 -168.0 -90.25 -162.5 -103.05 -171.55 -113.5 L-172.0 -114.0 Q-179.2 -117.05 -186.5 -116.75 L-187.25 -116.0 M-185.75 -119.25 Q-176.65 -118.95 -171.5 -114.8 L-172.65 -117.7 -173.5 -119.25 Q-173.5 -120.75 -173.65 -122.25 -173.8 -123.95 -173.0 -124.5 -167.9 -124.45 -165.85 -119.85 L-165.25 -119.0 -165.8 -118.3 -166.5 -117.5 -166.6 -116.75 -167.0 -115.25 Q-168.85 -113.5 -171.3 -114.65 -165.2 -109.6 -164.95 -99.0 -164.9 -96.75 -165.55 -94.6 -166.2 -92.4 -166.25 -90.0 L-167.6 -88.6 Q-169.0 -87.25 -169.75 -85.5 -174.45 -80.85 -181.0 -78.7 L-182.0 -78.25 -185.5 -78.5 Q-186.25 -79.15 -187.1 -79.5 L-190.5 -80.5 Q-194.35 -83.75 -196.3 -87.85 L-196.75 -85.75 -197.35 -85.1 Q-198.7 -83.75 -199.5 -82.0 -205.15 -80.35 -210.5 -82.5 L-211.2 -83.3 -211.75 -84.0 -211.75 -84.75 -211.75 -87.75 -211.75 -89.25 -211.15 -90.1 Q-210.75 -90.75 -210.5 -91.5 -209.25 -92.25 -208.15 -93.2 L-206.0 -94.75 Q-202.65 -95.65 -200.05 -93.7 L-199.25 -93.0 -198.0 -92.75 -197.95 -92.75 Q-198.35 -94.8 -198.4 -97.0 -198.45 -101.3 -195.75 -104.5 L-195.75 -105.25 -195.75 -106.0 -189.75 -115.0 Q-187.85 -117.65 -185.75 -119.25 M-167.25 -119.0 Q-167.7 -120.55 -168.75 -121.75 L-169.0 -122.0 -172.5 -122.4 -172.5 -122.25 -172.5 -120.75 -172.5 -120.0 -171.75 -119.25 -171.15 -117.05 -170.75 -116.25 Q-169.65 -115.15 -167.75 -116.0 L-167.5 -118.25 -167.25 -119.0 M-165.75 -114.25 Q-165.35 -113.15 -165.45 -112.0 L-165.5 -110.75 -167.5 -110.75 -167.45 -113.75 -167.0 -114.5 -165.75 -114.25 M-198.05 -91.2 Q-200.35 -92.05 -202.0 -93.25 -206.6 -93.35 -209.5 -89.75 L-210.0 -89.0 -210.15 -88.25 -210.35 -86.0 -210.5 -84.5 Q-206.05 -81.8 -200.25 -83.0 L-199.75 -83.75 -197.75 -86.0 -197.55 -86.75 -197.5 -87.5 -197.5 -88.25 -196.85 -89.05 -197.5 -90.9 -198.05 -91.2 M-58.25 -175.25 Q-57.85 -174.15 -58.55 -173.05 L-59.5 -171.75 Q-61.85 -170.55 -63.0 -172.5 -64.25 -174.4 -62.95 -176.35 L-62.0 -177.5 Q-60.0 -177.35 -58.65 -175.9 L-58.25 -175.25 M-71.0 -174.5 L-69.75 -174.25 Q-71.45 -171.2 -69.7 -168.15 L-69.5 -167.5 Q-72.0 -167.7 -71.65 -173.5 -71.6 -174.35 -71.0 -174.5 M-67.5 -174.25 Q-70.05 -173.75 -70.5 -175.25 L-68.05 -175.6 -68.0 -175.75 -66.75 -175.25 -66.0 -173.75 -65.5 -173.0 -65.7 -170.0 -66.0 -168.75 Q-66.85 -169.5 -66.65 -170.75 L-66.5 -172.25 -67.4 -173.8 -67.5 -174.25 M-62.1 -173.85 L-61.5 -173.0 -60.0 -173.75 Q-60.3 -175.25 -61.8 -175.35 L-62.0 -175.25 Q-62.25 -174.5 -62.1 -173.85 M-61.0 -169.25 Q-58.1 -168.6 -56.3 -166.0 L-55.75 -165.25 -55.75 -164.5 -55.75 -163.75 -55.75 -163.0 -56.1 -162.3 -56.75 -161.5 -56.95 -160.75 -57.0 -160.0 Q-59.15 -157.15 -62.75 -158.25 L-64.25 -159.75 -65.0 -160.5 Q-65.7 -164.65 -63.2 -167.75 -62.2 -169.0 -61.0 -169.25 M-61.5 -166.25 L-62.25 -165.45 -62.75 -164.75 Q-63.15 -163.65 -63.05 -162.5 L-63.0 -161.75 -62.5 -161.05 -62.0 -160.5 -59.5 -160.5 Q-59.4 -162.15 -58.6 -163.55 L-58.25 -164.25 Q-59.25 -166.4 -61.25 -166.4 L-61.5 -166.25 M-70.0 -158.75 L-68.75 -158.5 -68.75 -157.85 -69.25 -157.0 -69.05 -152.55 -68.75 -151.75 -65.75 -151.0 -65.0 -152.5 -64.5 -153.25 -67.5 -158.5 Q-65.15 -157.75 -63.5 -155.5 -62.95 -152.6 -65.05 -150.25 L-65.5 -149.75 -68.5 -149.75 Q-69.55 -150.75 -70.3 -152.0 L-70.75 -152.75 -70.45 -157.95 -70.0 -158.75 M-49.5 -169.75 L-49.6 -167.5 -49.75 -166.75 -50.35 -167.6 -50.5 -168.25 Q-51.45 -169.55 -51.15 -171.2 L-50.75 -171.25 -50.05 -170.45 -49.5 -169.75 M-53.75 -171.25 Q-55.1 -168.75 -54.15 -166.05 L-53.75 -165.25 -54.0 -165.0 -55.0 -165.25 Q-55.85 -167.95 -55.3 -170.95 L-55.0 -171.5 -53.75 -171.25 M-54.45 -155.0 L-54.5 -153.75 -56.5 -153.75 -57.2 -154.55 -57.5 -155.25 Q-57.45 -156.4 -56.5 -157.2 L-56.0 -157.5 -54.75 -157.25 Q-54.35 -156.15 -54.45 -155.0 M-7.0 -50.75 L-12.8 -51.6 -13.0 -51.5 -16.55 -46.25 -17.0 -45.5 -17.1 -39.5 -17.25 -38.0 Q-15.55 -34.65 -12.25 -32.0 L-11.85 -32.1 -11.0 -32.75 -10.8 -34.25 -10.75 -35.0 Q-9.8 -36.0 -9.5 -37.2 L-9.0 -38.0 -8.8 -39.5 -8.75 -40.25 Q-7.6 -41.25 -6.75 -42.5 L-6.75 -43.25 -6.75 -44.0 -6.25 -44.75 -5.75 -45.5 Q-5.35 -47.95 -6.55 -50.0 L-7.0 -50.75 M-6.5 -53.75 L-5.5 -53.0 -5.25 -52.25 Q-4.85 -51.05 -4.0 -50.0 L-4.15 -48.5 Q-4.2 -45.0 -5.5 -41.75 L-6.05 -41.05 -7.25 -39.5 -7.25 -38.75 -7.25 -38.0 -7.75 -37.25 Q-8.55 -35.7 -9.5 -34.25 L-9.4 -33.5 -9.5 -32.75 -10.25 -32.0 -11.5 -30.75 -12.0 -30.7 -15.25 -31.5 -15.45 -32.1 Q-17.4 -34.25 -18.75 -36.75 L-18.85 -39.75 -19.0 -46.5 Q-18.0 -48.0 -17.15 -49.6 -15.5 -52.6 -13.0 -54.0 L-6.5 -53.75 M-40.7 -41.9 Q-40.15 -42.5 -39.75 -43.25 -37.95 -44.15 -36.55 -45.55 -35.3 -46.85 -34.0 -47.0 -24.95 -47.7 -22.05 -39.35 L-21.5 -38.5 -21.5 -37.75 -21.5 -37.0 Q-18.2 -34.35 -18.1 -30.25 L-18.0 -25.0 Q-19.3 -22.95 -20.2 -20.6 -21.1 -18.1 -23.0 -16.0 -27.15 -14.3 -31.75 -16.25 -44.6 -25.25 -41.95 -39.4 -41.7 -40.75 -40.7 -41.9 M-20.0 -28.75 L-20.0 -31.0 Q-20.95 -33.55 -23.0 -35.5 L-23.75 -36.25 Q-25.25 -40.0 -27.2 -43.55 -27.65 -44.4 -28.5 -45.0 L-35.25 -44.75 Q-46.8 -34.8 -36.5 -23.1 -33.2 -19.3 -28.45 -18.1 L-24.5 -17.5 Q-21.8 -20.45 -20.75 -24.2 L-20.0 -25.75 -20.0 -28.75 M-12.5 -25.0 L-12.5 -23.5 -12.5 -22.0 -15.5 -21.75 -15.5 -23.25 -15.5 -24.75 Q-14.75 -25.85 -14.35 -26.95 L-14.0 -27.5 -12.85 -27.15 -11.75 -26.5 -11.9 -25.85 -12.5 -25.0 M-4.5 -31.0 L-6.45 -31.1 -7.0 -31.5 Q-7.8 -32.5 -7.6 -33.8 L-7.5 -35.25 Q-6.15 -35.35 -6.15 -33.75 -6.15 -33.25 -5.75 -32.75 L-5.5 -33.25 -4.75 -34.75 Q-5.95 -35.5 -6.25 -36.35 L-6.0 -36.5 Q-4.9 -36.0 -3.9 -35.3 L-3.5 -34.75 -4.1 -33.3 -4.5 -32.5 -4.5 -31.75 -4.5 -31.0 M-6.5 -25.25 L-7.05 -25.05 -8.5 -24.75 Q-10.8 -20.6 -14.5 -16.25 L-15.0 -15.5 Q-18.5 1.35 -4.5 12.25 6.85 11.45 7.75 -1.25 8.85 -17.25 -5.0 -25.25 L-6.25 -25.4 -6.5 -25.25 M-21.5 -12.75 Q-17.45 -9.65 -17.85 -4.5 L-18.0 0.75 -18.4 1.4 -19.25 2.25 -19.25 3.0 -19.25 3.75 -19.85 4.4 -23.0 6.5 Q-33.7 3.5 -33.2 -5.4 -31.25 2.55 -23.25 4.75 L-21.0 3.5 Q-19.6 -0.45 -19.95 -4.75 L-20.0 -7.0 Q-20.75 -9.25 -22.75 -10.55 L-23.0 -10.75 Q-26.3 -11.1 -29.25 -10.75 -31.7 -8.85 -32.85 -6.3 L-33.2 -5.55 -33.05 -7.1 -32.0 -11.0 -31.4 -11.55 Q-29.1 -12.7 -27.0 -13.0 L-21.5 -12.75 M-117.5 22.25 Q-107.4 31.1 -115.8 39.75 L-118.0 41.75 Q-120.45 41.35 -122.25 39.7 L-123.75 38.25 Q-125.15 34.3 -124.9 30.0 L-124.75 25.5 -123.65 24.1 -121.0 22.0 -117.5 22.25 M-121.0 24.5 L-121.2 25.25 -121.25 25.75 -123.25 26.5 Q-123.9 32.0 -122.35 37.0 L-122.25 37.75 Q-120.9 39.25 -119.0 40.0 L-118.0 39.75 Q-109.9 32.25 -118.25 24.25 L-121.0 24.5 M-110.75 23.75 L-109.7 26.1 -109.5 26.75 Q-111.4 27.0 -111.45 24.0 -111.45 23.55 -110.75 23.75 M-107.25 24.25 Q-106.95 26.1 -108.35 27.45 L-108.5 28.0 -109.5 28.25 -109.35 26.75 -109.0 26.0 -109.0 25.3 -109.5 24.5 -109.55 23.85 -109.0 23.25 -107.85 23.65 -107.25 24.25 M-101.5 27.25 L-100.5 28.0 Q-99.7 31.65 -100.45 35.4 -100.95 37.6 -101.0 40.0 L-101.5 40.75 -103.25 42.75 Q-104.9 43.4 -106.25 42.25 -107.5 41.2 -109.05 40.45 L-108.75 40.75 Q-108.75 42.25 -108.9 43.75 L-109.0 46.0 -111.5 46.75 Q-112.15 45.6 -113.35 45.1 -114.15 44.75 -114.75 44.0 L-114.75 41.75 -114.75 39.5 -113.6 38.2 Q-113.15 37.85 -112.5 37.75 -111.1 39.0 -109.55 40.05 L-109.5 40.1 -109.65 39.55 -110.5 38.0 -110.5 37.25 -110.5 35.0 -110.0 34.25 -109.5 33.5 -109.6 32.75 -109.75 32.0 -109.35 31.2 Q-108.5 29.2 -107.0 27.5 L-106.05 27.15 -106.0 27.0 -101.5 27.25 M-106.0 29.5 Q-108.0 31.9 -109.1 34.7 L-109.5 35.5 -109.5 37.0 -109.5 37.75 Q-107.95 40.3 -104.75 40.75 L-103.75 40.25 Q-101.65 36.05 -101.95 31.25 L-102.0 29.75 Q-103.35 27.6 -106.0 29.5 M-113.25 41.0 Q-113.55 42.05 -113.3 43.25 L-113.25 43.75 Q-112.3 44.65 -111.0 44.5 -110.85 42.1 -113.1 40.9 L-113.25 41.0 M-107.6 47.95 Q-106.75 47.25 -105.75 46.75 -106.5 49.2 -106.25 52.0 -106.15 53.6 -105.25 55.0 L-104.9 55.45 -103.0 55.75 Q-101.4 54.9 -100.3 53.45 L-99.75 52.75 Q-99.0 50.35 -100.2 48.2 -100.85 46.95 -102.0 46.25 L-104.75 46.25 -105.5 46.25 -105.2 45.5 -104.7 44.8 -104.0 44.25 Q-100.05 44.65 -98.55 48.25 L-98.25 49.0 -98.45 50.5 -98.5 52.75 Q-100.1 55.55 -103.1 57.05 L-104.5 57.5 Q-108.5 55.05 -107.85 49.95 L-107.75 48.5 -107.6 47.95 M-93.0 32.25 Q-85.95 36.5 -86.5 45.25 L-86.5 46.0 -88.5 48.25 -89.25 49.0 Q-99.6 48.25 -97.75 36.75 L-97.0 36.5 -95.75 36.75 Q-98.35 42.75 -93.75 47.25 L-93.0 48.0 -89.75 48.0 -88.3 46.45 -87.75 45.75 Q-87.3 40.55 -90.5 35.95 L-91.5 34.5 Q-93.05 33.05 -95.0 34.25 -95.7 33.2 -93.55 32.45 L-93.0 32.25 M-145.65 31.9 L-146.25 32.75 Q-146.0 36.75 -142.75 39.5 L-140.0 39.75 Q-139.4 36.35 -139.95 32.95 L-140.0 32.25 -141.0 30.75 Q-141.7 28.35 -145.0 30.5 L-145.65 31.9 M-147.15 29.35 L-145.0 28.0 -139.5 28.25 -139.05 29.0 -138.25 30.5 -137.85 36.45 Q-137.7 39.4 -139.5 41.5 L-140.0 41.6 Q-142.4 41.65 -144.5 40.5 L-144.85 39.8 -147.75 35.25 -147.8 34.5 Q-148.05 32.2 -147.75 30.0 L-147.15 29.35 M-156.6 42.65 L-157.25 43.0 -157.3 43.75 -157.5 45.25 Q-156.9 46.55 -155.0 47.5 L-150.0 47.0 -149.85 46.2 -149.75 44.75 -149.0 44.3 -147.75 43.75 Q-149.05 41.75 -150.7 39.95 L-151.0 39.5 -154.0 39.25 -155.5 39.75 -155.85 40.5 -156.0 42.0 -156.6 42.65 M-156.5 48.0 L-158.5 47.25 Q-159.05 44.05 -158.5 41.2 -157.9 38.05 -156.0 36.75 -150.15 35.95 -147.15 40.9 L-146.5 41.75 -146.3 42.5 -146.25 43.25 -146.25 44.75 -146.85 45.35 -148.25 46.25 -148.4 46.9 -149.0 47.75 -149.5 48.25 -150.05 48.45 -153.25 49.35 -154.0 49.75 -155.5 49.5 -156.0 48.75 -156.5 48.0 M-142.0 43.0 Q-141.25 43.1 -140.6 43.45 L-140.0 44.0 Q-139.25 46.4 -140.2 49.25 L-140.5 50.5 -145.5 50.5 -146.25 49.7 -146.75 49.0 -146.75 48.25 -146.75 46.75 Q-144.5 45.55 -143.0 43.5 L-142.05 43.15 -142.0 43.0 M-144.35 47.7 L-144.75 48.5 -141.75 48.75 Q-142.0 46.8 -141.4 45.35 L-142.0 45.5 Q-143.75 46.1 -144.35 47.7 M-128.3 33.25 L-127.5 34.75 -127.5 36.25 -127.25 40.75 -127.6 41.45 -128.25 42.25 -128.35 42.95 -128.5 43.5 -129.0 43.6 -133.5 43.5 -134.6 42.5 Q-134.4 44.2 -134.5 45.95 L-134.0 45.5 -133.05 45.15 -133.0 45.0 -127.5 45.25 -126.45 46.8 Q-125.1 49.25 -125.0 52.0 -126.95 55.4 -130.25 57.2 L-133.0 58.75 Q-136.0 58.9 -138.35 57.25 L-139.75 56.0 -139.7 53.75 Q-139.45 50.7 -136.5 49.25 L-136.15 48.45 -135.6 47.3 Q-137.1 47.15 -138.5 46.25 L-138.45 44.0 -138.25 42.5 -137.7 41.85 -137.05 41.4 -137.0 41.25 -136.0 41.3 -135.45 41.4 -136.25 39.65 Q-136.95 37.55 -136.75 35.25 L-136.45 34.55 Q-135.5 33.15 -134.05 32.4 L-134.0 32.25 -128.75 32.5 -128.3 33.25 M-134.5 34.25 L-134.65 34.9 -135.25 35.75 -135.25 38.0 -135.25 38.75 Q-134.2 40.4 -132.5 41.75 L-129.75 41.75 -129.0 41.0 Q-128.6 39.55 -128.65 38.0 L-128.5 37.25 Q-128.9 36.0 -129.75 35.0 L-134.3 34.1 -134.5 34.25 M-137.5 44.5 Q-137.5 46.2 -135.5 46.0 -135.5 44.85 -135.65 43.75 -135.8 42.35 -136.5 43.0 L-137.35 43.85 -137.5 44.5 M-124.4 41.9 L-123.75 41.75 Q-123.35 43.2 -123.5 44.75 L-123.5 45.25 -126.5 45.25 -126.5 43.75 -126.5 43.0 -124.4 41.9 M-129.0 47.5 L-133.0 47.5 Q-133.9 49.2 -135.4 50.6 L-135.75 51.25 -138.25 52.75 -138.25 54.25 -138.25 55.0 -136.75 56.5 Q-130.3 57.5 -127.0 51.25 -127.15 49.65 -128.15 48.35 -128.5 47.85 -129.0 47.5 M-144.0 54.75 L-144.0 56.25 -144.0 57.75 Q-145.55 61.05 -149.1 61.8 L-151.75 62.0 -152.5 61.25 -154.0 59.75 -154.15 58.25 -154.25 53.75 -153.7 53.05 -151.65 51.1 Q-151.4 50.85 -151.0 50.75 -146.85 50.1 -144.55 53.25 L-144.0 54.0 -144.0 54.75 M-150.0 53.75 L-151.5 54.5 Q-151.95 55.95 -151.75 57.5 L-151.5 59.0 Q-149.65 60.45 -147.5 59.0 L-147.15 58.2 -147.0 57.5 -146.15 55.9 -146.0 55.25 Q-147.65 53.95 -149.8 53.6 L-150.0 53.75 M-84.75 53.25 Q-84.2 54.6 -85.5 56.25 L-86.0 57.0 -91.35 57.75 -91.65 58.7 -92.25 60.25 -98.5 60.5 -98.85 58.25 -98.75 56.0 -97.75 54.5 -97.05 53.45 -97.0 53.25 Q-93.85 53.6 -92.0 55.95 -92.25 54.25 -91.45 52.5 L-90.0 50.5 -89.75 50.3 -89.05 50.1 -89.0 50.0 Q-87.35 51.0 -85.75 52.45 L-84.75 53.25 M-88.5 52.0 L-89.25 52.75 -89.75 53.5 -90.0 55.0 -90.0 55.5 Q-88.1 56.7 -87.0 54.75 -86.15 52.65 -88.1 51.9 L-88.5 52.0 M-97.2 57.25 L-97.25 58.0 Q-95.55 61.1 -93.0 58.0 -93.3 56.45 -95.05 55.85 L-96.5 55.6 Q-96.65 55.6 -96.75 55.75 L-97.2 57.25 M-120.9 136.45 L-120.0 138.0 Q-120.35 140.65 -121.35 143.1 -121.75 144.05 -121.5 145.25 L-126.5 145.5 Q-127.0 142.85 -126.75 140.2 L-126.25 138.0 -125.75 137.25 -125.0 136.5 -125.35 140.95 -125.5 143.25 -122.5 144.0 -121.95 142.5 -121.5 141.75 Q-121.65 139.7 -122.5 137.95 L-123.25 136.5 -125.0 135.0 -127.5 135.25 -126.75 134.0 -126.5 133.75 -126.0 133.5 -122.6 134.45 Q-122.0 134.6 -121.5 135.0 L-120.9 136.45 M-140.5 118.25 L-143.5 118.25 -145.65 116.05 Q-146.0 115.6 -146.5 115.25 L-146.5 114.5 -146.5 113.75 -146.5 113.0 -146.0 112.25 -145.5 111.5 -145.5 110.75 -145.5 110.0 -144.95 109.65 -144.0 109.5 -143.75 109.5 -141.3 111.75 -140.5 112.5 -140.35 116.25 Q-140.35 117.25 -140.5 118.25 M-156.0 101.0 L-152.5 101.25 Q-148.4 104.05 -148.1 108.75 L-148.0 111.75 -148.35 112.4 -150.5 114.75 -151.3 114.5 Q-152.55 113.4 -154.5 113.25 L-154.7 112.65 -156.5 110.25 -156.55 108.75 Q-156.35 106.9 -156.5 105.0 L-157.0 104.2 -157.75 103.0 -157.2 102.3 -156.1 101.15 -156.0 101.0 M-155.5 103.5 L-155.5 108.75 -155.5 109.5 -153.5 112.25 -151.5 112.25 Q-150.5 111.65 -150.0 110.5 -149.9 105.8 -154.0 103.25 L-155.5 103.5 M-161.5 107.0 L-165.75 106.75 -170.75 102.25 -170.75 100.75 -171.75 99.25 Q-173.35 95.0 -172.5 90.9 -172.15 88.9 -170.75 88.75 -170.15 90.45 -167.8 89.15 L-166.5 89.0 Q-159.55 95.1 -160.7 104.75 L-160.75 106.25 -161.5 107.0 M-160.5 109.0 Q-154.8 114.0 -156.5 121.75 L-156.75 123.25 Q-157.0 123.6 -157.35 123.8 L-158.5 124.25 -160.45 123.15 -161.25 122.5 -161.45 120.95 -161.5 118.75 -161.85 118.05 -162.5 117.25 -162.5 115.75 -162.5 114.25 -162.9 113.6 -163.5 113.25 -163.65 111.75 -164.0 110.25 -162.9 109.15 -162.0 108.75 -160.5 109.0 M-152.55 116.2 L-152.5 115.75 -150.05 115.35 -150.0 115.25 -148.0 116.0 -146.75 116.5 Q-145.55 118.75 -147.35 120.95 L-148.5 122.25 -153.5 122.25 -153.5 119.25 -153.5 117.75 -152.75 117.0 -152.55 116.2 M-162.0 111.5 Q-161.15 113.55 -161.45 116.0 L-161.5 116.75 -160.75 117.5 Q-160.35 118.95 -160.5 120.5 L-160.5 121.25 Q-159.9 123.05 -157.75 122.75 -156.5 116.0 -161.45 111.65 L-162.0 111.5 M-152.5 118.5 L-152.5 120.0 -152.5 120.75 -148.75 121.0 -147.75 119.5 Q-148.25 116.0 -151.5 117.0 L-152.0 117.75 -152.5 118.5 M-144.05 111.9 L-144.5 112.0 -145.0 112.75 -145.5 113.5 Q-145.0 115.05 -143.75 116.45 L-143.25 117.0 -143.0 117.1 -141.75 117.0 Q-141.4 115.05 -142.1 113.25 L-142.5 112.5 -144.05 111.9 M-150.0 126.75 L-154.45 130.25 Q-155.25 130.85 -156.25 131.25 -160.7 141.2 -157.95 151.4 -157.3 153.9 -155.75 156.0 L-153.55 156.8 Q-152.9 157.1 -152.25 157.5 -144.1 158.25 -137.25 154.0 -135.85 151.5 -134.05 149.25 -133.1 148.05 -133.25 146.5 L-132.55 145.7 -132.0 145.0 -132.0 137.5 Q-132.0 134.75 -133.25 132.25 -138.45 125.6 -147.0 126.25 L-150.0 126.75 M-150.0 123.75 Q-143.35 122.6 -137.7 125.65 L-136.0 126.5 -135.5 127.25 -135.05 128.0 -134.7 128.7 -134.25 129.5 Q-125.35 140.85 -133.25 153.65 -135.7 157.6 -140.25 159.25 -148.4 161.45 -156.75 159.25 -164.9 149.7 -161.1 137.6 L-158.25 128.5 -157.5 127.75 -156.75 127.0 -155.5 127.05 -154.25 127.25 -152.8 125.95 -151.2 124.55 Q-150.5 123.9 -150.0 123.75 M-127.5 124.0 L-126.75 124.75 -127.2 129.25 -127.25 130.75 -130.5 131.5 -131.25 130.7 -131.75 130.0 -131.7 128.5 -131.5 127.0 -130.75 127.65 -130.25 129.0 -130.1 129.45 -128.75 129.75 Q-128.75 129.0 -128.9 128.25 -129.0 127.5 -129.25 126.75 L-131.4 125.55 -132.0 125.0 -130.05 123.9 -130.0 123.75 -129.0 123.8 -127.5 124.0 M-160.0 154.5 L-160.0 156.0 -160.0 159.0 -161.95 161.75 Q-162.9 163.35 -164.25 164.75 -168.25 165.55 -171.0 162.5 -171.5 159.25 -170.1 156.55 L-168.5 153.5 -166.75 152.75 -166.05 152.4 -166.0 152.25 Q-163.35 152.55 -161.05 153.8 L-160.0 154.5 M-206.8 97.15 L-208.0 98.0 Q-213.5 107.2 -207.25 115.1 -206.65 115.85 -205.5 116.25 -203.85 116.9 -202.25 117.75 L-198.5 117.5 Q-196.75 113.9 -197.05 109.95 L-197.0 108.5 Q-199.35 103.05 -202.05 98.0 L-202.5 97.25 Q-204.2 95.9 -206.0 96.5 L-206.8 97.15 M-206.0 94.0 L-202.05 95.15 -200.75 95.75 -198.65 99.45 Q-197.9 100.85 -197.75 102.5 -196.15 104.85 -195.4 107.4 -195.6 100.2 -192.0 94.25 L-190.75 94.5 -190.75 95.15 -191.25 96.0 Q-178.75 95.25 -171.9 106.35 -170.6 108.35 -169.45 110.6 -162.45 124.0 -165.35 139.1 -168.45 155.3 -177.8 168.4 -180.0 171.45 -183.95 172.25 -196.2 174.7 -203.25 164.75 -203.85 155.65 -202.1 146.75 -200.65 139.3 -196.25 133.25 -193.5 123.15 -194.8 112.85 L-195.0 114.45 -195.75 118.25 -196.3 118.95 -197.05 119.65 -198.0 120.25 Q-202.3 120.25 -205.4 119.05 -205.05 119.8 -205.1 120.75 L-205.25 123.75 -205.8 124.4 -206.75 125.25 -211.0 124.5 Q-211.8 123.5 -211.6 122.2 -211.35 120.7 -211.75 119.25 L-211.35 118.65 Q-210.75 118.25 -210.0 118.0 L-207.3 118.15 Q-211.45 115.65 -212.8 110.35 L-213.25 106.75 -212.7 106.0 Q-211.9 105.0 -212.0 103.75 L-212.0 103.0 -211.45 102.25 -210.75 101.5 Q-210.85 98.5 -208.8 96.2 -207.4 94.6 -206.0 94.0 M-170.5 93.2 L-171.25 93.75 Q-170.6 97.2 -169.4 100.55 L-169.0 102.0 -164.75 104.75 -163.25 104.5 Q-163.15 98.5 -165.8 93.4 -166.25 92.5 -167.0 91.75 L-168.25 91.6 -168.5 91.75 -170.5 93.2 M-180.25 100.75 L-182.25 99.5 -190.5 99.75 -191.4 100.55 -191.75 101.25 -192.45 101.1 -192.75 100.75 Q-195.0 113.1 -192.55 125.65 -191.95 128.55 -193.5 131.35 -201.6 146.1 -200.75 163.0 -190.3 175.3 -178.1 164.55 -176.75 163.35 -175.8 161.6 -162.75 138.05 -171.45 113.7 -173.2 108.7 -177.3 105.0 -179.2 103.2 -180.25 100.75 M-198.15 122.15 L-197.5 123.0 Q-196.75 128.25 -199.05 132.6 -199.5 133.5 -200.25 134.25 L-201.5 134.5 -203.3 132.7 -203.3 132.75 -203.25 133.5 -202.55 134.25 -202.0 135.0 -202.0 135.75 -202.0 136.5 -201.5 137.25 -201.0 138.0 -201.0 138.75 Q-200.9 140.55 -202.25 141.75 -202.3 143.7 -203.05 145.45 L-204.25 149.25 -205.0 149.7 -207.0 151.0 -208.0 150.95 -210.75 150.75 Q-212.7 149.15 -213.85 147.05 -214.6 145.7 -215.75 144.75 -216.75 140.95 -217.2 137.15 -217.5 134.6 -217.1 131.95 L-217.0 130.5 -216.5 129.65 Q-216.05 128.35 -215.0 127.5 L-214.05 127.15 -214.0 127.0 -210.5 127.25 -209.95 127.9 Q-208.95 128.85 -208.25 130.0 -206.4 130.6 -204.55 131.35 L-204.5 131.4 Q-204.95 128.85 -204.8 126.25 L-204.75 124.0 Q-203.45 122.65 -202.65 121.05 L-202.0 120.25 Q-199.55 120.1 -198.15 122.15 M-201.25 122.0 L-202.55 123.45 -203.25 124.25 -203.25 128.75 -203.25 130.25 -202.9 130.9 -202.25 131.75 -200.5 132.0 -198.75 130.75 Q-198.35 128.5 -198.45 126.25 L-198.5 124.75 Q-199.4 123.2 -200.95 121.9 L-201.25 122.0 M-210.5 122.5 L-210.5 123.25 -207.0 124.0 Q-206.6 122.55 -206.75 121.0 L-206.75 120.25 Q-208.8 119.0 -210.5 120.25 L-210.5 122.5 M-210.3 130.45 L-210.25 129.75 Q-211.85 128.0 -214.0 129.5 L-215.75 135.45 -216.0 136.25 Q-214.9 143.4 -209.75 148.75 -208.25 149.35 -206.5 148.75 L-206.1 147.45 -206.0 146.75 -205.0 145.25 -205.0 144.5 -205.0 143.75 -204.0 142.25 -204.0 141.5 -204.0 140.75 -203.0 139.25 Q-203.0 137.95 -204.0 137.0 -203.9 133.9 -206.5 132.0 L-205.75 134.25 -210.5 131.25 -210.3 130.45 M-169.0 160.25 L-169.0 161.0 Q-167.85 163.15 -165.0 162.5 -163.85 161.5 -163.0 160.25 L-163.0 159.5 -163.0 158.75 -162.0 157.25 Q-163.55 154.85 -166.75 155.5 -169.1 157.1 -169.0 160.25" fill="#6b5954" fill-rule="evenodd" stroke="none"/>
    <path d="M117.15 -190.9 L117.7 -190.25 Q116.1 -187.25 113.2 -185.05 L111.95 -184.25 111.5 -183.5 111.2 -182.75 109.95 -182.25 Q109.35 -182.5 108.8 -182.9 L108.2 -183.5 Q107.1 -185.0 108.0 -186.65 L108.45 -188.0 Q111.15 -191.4 114.95 -192.25 L117.15 -190.9 M18.1 -72.95 L18.5 -72.5 18.5 -71.8 18.0 -70.5 Q11.05 -67.15 11.05 -59.0 L11.25 -56.75 10.5 -56.0 9.25 -56.0 Q6.2 -62.85 9.65 -69.25 L11.25 -72.5 Q12.9 -73.8 15.0 -73.65 L15.0 -73.75 18.1 -72.95 M211.45 -124.0 L212.05 -123.2 212.2 -122.5 211.65 -122.1 209.45 -121.25 Q204.2 -115.55 203.9 -107.8 L203.7 -104.75 203.35 -104.2 Q202.95 -103.9 202.45 -103.75 199.3 -114.15 206.5 -122.45 207.75 -123.85 208.95 -124.25 L211.45 -124.0 M239.45 -89.0 L240.2 -88.25 Q225.85 -77.65 223.4 -60.5 L223.2 -59.75 Q222.0 -60.85 221.8 -63.5 L221.7 -65.75 221.2 -66.5 220.7 -67.25 Q221.95 -84.15 239.0 -88.95 L239.45 -89.0 M192.95 -87.0 Q194.95 -86.85 196.1 -85.4 L196.45 -84.75 Q190.85 -81.8 186.8 -76.9 L185.7 -76.0 Q184.25 -71.6 181.95 -67.65 180.95 -65.9 180.45 -64.0 L180.2 -63.55 179.95 -63.35 178.95 -63.0 177.8 -63.6 176.95 -64.25 Q177.25 -78.5 190.3 -85.65 L192.95 -87.0 M221.4 94.85 L222.2 95.5 Q222.4 97.65 220.55 99.3 L219.95 100.0 Q220.25 102.7 219.75 105.3 L218.95 107.25 217.7 106.2 215.95 104.75 215.95 101.0 215.95 98.75 Q217.45 96.6 219.2 94.65 219.45 94.35 219.95 94.25 L221.4 94.85 M209.95 123.2 L209.2 124.0 Q208.9 125.9 207.95 127.75 L207.2 129.25 Q206.25 129.2 206.0 127.75 L205.7 126.25 Q205.7 125.85 205.85 125.55 L206.45 124.75 206.65 123.95 206.7 122.5 207.45 121.75 207.95 121.25 Q208.1 121.1 208.25 121.05 L208.95 120.85 208.95 120.75 210.45 121.0 211.2 121.75 209.95 123.2 M207.7 148.0 L207.95 148.75 207.7 150.2 207.45 150.75 206.95 150.95 205.2 151.5 202.2 156.0 201.2 157.5 Q201.45 159.6 200.25 161.4 L199.2 163.25 198.95 163.4 197.95 163.75 196.7 163.25 Q195.75 155.05 201.55 148.1 202.65 146.8 203.95 146.75 L207.15 147.5 207.7 148.0 M89.95 84.5 L90.9 84.15 90.95 84.0 92.2 84.5 88.6 89.65 87.95 90.25 Q87.15 89.45 87.7 88.1 L87.95 86.75 89.25 85.25 89.95 84.5 M74.45 59.0 L75.05 59.8 75.2 60.5 75.05 61.15 74.45 62.0 73.45 62.25 73.3 62.8 72.45 63.25 Q72.5 61.7 72.7 60.25 L72.7 59.5 74.0 59.05 74.45 59.0 M49.95 86.0 L51.2 86.55 52.2 87.25 52.05 88.7 51.45 90.25 47.7 92.5 Q46.3 94.6 45.75 97.0 L45.45 98.5 Q44.7 99.7 43.35 100.5 L42.5 100.75 Q39.9 92.25 47.1 87.3 48.65 86.25 49.95 86.0 M74.45 90.25 L75.45 91.0 Q73.6 93.85 71.05 96.05 L70.45 96.25 71.7 93.1 71.95 91.75 72.5 91.0 72.95 90.5 Q73.1 90.35 73.25 90.3 L73.95 90.25 74.45 90.25 M-183.1 -154.7 L-182.75 -154.0 Q-183.25 -153.25 -183.9 -152.65 L-185.0 -151.75 Q-186.15 -148.45 -186.45 -145.0 L-186.5 -142.75 -188.75 -141.75 -189.5 -142.5 Q-190.55 -147.1 -189.3 -151.45 -189.0 -152.6 -189.0 -153.75 L-186.9 -155.6 Q-186.5 -155.9 -186.0 -156.0 -184.15 -156.25 -183.1 -154.7 M-222.0 -125.25 Q-221.65 -123.2 -222.7 -121.45 L-223.5 -120.0 -224.75 -120.0 Q-227.85 -125.0 -224.3 -129.6 L-221.5 -132.75 -220.05 -133.1 -220.0 -133.25 Q-217.55 -133.0 -215.9 -131.4 L-215.5 -130.75 Q-218.95 -129.1 -221.5 -126.0 L-222.0 -125.25 M-204.25 -124.5 L-204.25 -129.75 -204.25 -130.5 -203.5 -131.25 -203.0 -131.75 -202.75 -131.9 -201.5 -132.0 -200.9 -131.2 -200.75 -130.5 Q-200.75 -130.15 -200.9 -129.85 L-201.5 -129.0 Q-201.95 -127.55 -201.8 -126.0 L-201.75 -125.25 -203.0 -124.0 -204.25 -124.5 M-207.2 -105.5 L-207.5 -104.75 -209.5 -104.75 -208.3 -107.5 -207.5 -107.75 Q-206.55 -106.75 -207.2 -105.5 M-184.8 -114.05 Q-183.45 -115.45 -182.0 -115.75 -180.05 -115.6 -179.0 -114.1 L-179.0 -113.5 Q-187.7 -104.55 -190.7 -91.3 -190.9 -90.5 -191.25 -89.75 -191.65 -89.5 -192.0 -89.5 L-193.0 -89.75 Q-193.8 -99.95 -188.25 -109.55 -186.75 -112.1 -184.8 -114.05 M-9.5 -49.0 L-8.75 -48.25 Q-11.0 -45.35 -12.6 -42.3 L-13.0 -41.75 Q-14.0 -42.95 -13.4 -44.65 -13.15 -45.25 -13.25 -46.0 -12.8 -47.35 -11.55 -48.3 L-11.0 -48.75 -10.75 -48.9 -10.0 -49.0 -9.5 -49.0 M-28.5 -41.5 Q-28.4 -41.15 -28.45 -40.8 L-28.75 -40.0 -29.0 -39.5 Q-31.9 -39.15 -34.15 -37.6 L-34.75 -37.0 -35.8 -31.7 -36.5 -28.0 -37.05 -27.6 -38.0 -27.25 -39.25 -27.75 Q-40.35 -31.0 -39.4 -34.4 -38.85 -36.35 -39.25 -38.25 L-38.95 -38.95 Q-38.3 -40.0 -38.0 -41.25 L-36.95 -41.9 -34.0 -43.25 Q-31.25 -43.4 -28.9 -42.05 L-28.5 -41.5 M-10.45 -6.5 L-10.5 -5.75 -12.0 -3.75 Q-15.1 -8.25 -14.3 -14.0 L-14.25 -14.75 Q-11.85 -20.7 -6.0 -22.25 L-5.75 -22.25 Q-9.2 -14.7 -10.45 -6.5 M-106.9 33.05 Q-107.15 33.25 -107.5 33.25 L-107.0 30.9 -107.0 30.25 Q-107.1 29.0 -105.5 28.8 L-104.75 28.75 Q-104.15 31.1 -106.9 33.05 M-118.75 25.5 Q-117.55 26.6 -118.5 27.75 L-119.0 28.5 -119.0 29.25 -119.0 30.0 Q-119.95 30.8 -120.55 31.7 L-121.0 32.25 Q-121.8 30.7 -121.15 28.7 L-121.0 28.0 Q-120.45 26.25 -119.0 25.55 L-118.75 25.5 M-153.5 40.0 L-152.9 40.8 Q-152.75 41.1 -152.75 41.5 L-152.9 42.15 -153.5 43.0 -155.5 43.25 -155.75 41.75 -155.5 41.0 -153.95 40.1 -153.5 40.0 M-143.65 127.95 L-143.25 128.5 -143.55 129.95 -144.0 131.5 Q-150.1 139.4 -153.4 148.75 L-153.75 150.25 -154.5 151.0 -155.75 151.0 -156.7 148.75 -157.25 147.25 Q-157.95 136.55 -149.9 129.05 -149.25 128.5 -148.75 127.75 L-147.0 127.05 -146.0 126.75 Q-144.75 127.25 -143.65 127.95 M-205.75 98.75 L-205.35 100.25 -205.25 101.0 Q-207.2 102.95 -208.25 105.5 L-210.0 105.0 Q-209.5 101.9 -208.1 99.2 -207.65 98.35 -207.0 98.25 L-205.75 98.75 M-180.75 105.5 Q-186.55 109.65 -185.4 117.4 -185.15 119.0 -185.5 120.5 L-185.9 121.05 Q-186.4 121.5 -187.0 121.75 L-188.25 121.25 -189.5 119.05 Q-190.0 117.85 -190.75 116.75 L-190.95 113.75 -191.25 113.5 Q-192.7 108.1 -188.85 104.15 L-187.55 103.05 -187.25 102.5 -185.05 101.4 -185.0 101.25 Q-182.7 101.2 -180.85 102.6 L-180.25 103.25 -180.15 104.0 -180.3 104.7 -180.75 105.5 M-189.0 130.25 L-187.75 130.75 -187.05 132.25 -186.75 133.0 -189.1 137.45 -189.5 138.25 -189.3 139.0 -189.25 139.75 Q-193.3 149.8 -193.95 160.75 L-194.0 162.25 -194.95 163.75 -195.25 164.5 -196.5 164.75 -197.5 163.25 -198.0 162.5 Q-200.9 149.35 -194.8 137.55 -194.5 137.0 -194.5 136.25 -192.3 132.35 -189.05 130.4 L-189.0 130.25 M-209.75 128.75 L-209.35 130.25 -209.25 131.0 -210.6 133.35 -210.75 134.0 Q-211.75 135.6 -213.5 136.25 -213.6 133.7 -213.05 130.95 L-212.75 129.5 -211.05 128.4 -211.0 128.25 -209.75 128.75" fill="#ffffff" fill-rule="evenodd" stroke="none"/>
  </g>
  <defs>
    <radialGradient cx="0" cy="0" gradientTransform="matrix(0.4268, 0.0, 0.0, 0.4268, 0.0, 0.0)" gradientUnits="userSpaceOnUse" id="gradient0" r="819.2" spreadMethod="pad">
      <stop offset="0.0" stop-color="#d2c7c6"/>
      <stop offset="1.0" stop-color="#8f7170"/>
    </radialGradient>
  </defs>
</svg>
