<?xml version="1.0" encoding="UTF-8" standalone="no"?>
<svg xmlns:xlink="http://www.w3.org/1999/xlink" height="415.8px" width="562.3px" xmlns="http://www.w3.org/2000/svg">
  <g transform="matrix(1.0, 0.0, 0.0, 1.0, 281.15, 207.9)">
    <path d="M281.15 207.9 L-281.15 207.9 -281.15 -207.9 281.15 -207.9 281.15 207.9" fill="url(#gradient0)" fill-rule="evenodd" stroke="none"/>
    <path d="M147.2 -175.25 Q146.25 -172.3 146.1 -169.25 L146.2 -168.5 Q149.7 -164.9 150.45 -160.25 148.5 -155.85 144.7 -152.75 L142.45 -152.5 Q141.85 -155.35 143.45 -157.75 139.65 -159.85 137.7 -155.5 L136.45 -154.75 Q134.9 -151.5 132.7 -148.75 L130.95 -148.75 Q130.6 -158.95 138.95 -165.0 L134.95 -166.0 Q137.3 -172.55 144.2 -172.0 L146.7 -175.1 147.2 -175.25 M138.45 -168.0 L142.95 -165.0 Q138.75 -162.9 135.85 -159.1 134.45 -157.3 133.95 -155.25 133.95 -155.0 134.1 -154.9 L134.2 -155.05 134.95 -156.5 Q136.75 -157.7 138.25 -159.2 139.45 -160.35 140.95 -161.0 144.0 -160.85 146.45 -159.75 147.05 -158.35 145.65 -156.8 144.35 -155.35 143.95 -154.25 149.5 -157.55 146.8 -162.65 144.95 -166.1 143.95 -169.75 L142.95 -170.0 139.3 -168.6 Q138.85 -168.4 138.45 -168.0 M141.2 -155.5 Q141.95 -151.05 144.65 -147.2 L144.95 -146.5 146.45 -145.75 Q151.95 -139.65 149.1 -132.1 148.7 -131.15 148.7 -130.0 L147.2 -128.5 145.45 -128.5 Q145.05 -131.1 145.0 -133.75 L144.7 -134.25 Q143.05 -128.4 142.8 -122.25 L142.7 -119.25 140.45 -118.5 Q138.35 -124.75 138.15 -131.25 L137.7 -134.25 Q136.8 -133.55 136.45 -132.25 L134.45 -131.25 Q133.5 -135.45 135.8 -139.6 L135.95 -140.25 Q138.95 -143.95 142.45 -147.0 L139.95 -151.5 140.65 -155.15 Q140.7 -155.4 141.2 -155.5 M160.55 -164.3 L159.95 -165.75 160.15 -166.3 160.9 -166.85 160.95 -167.0 Q166.25 -164.05 169.4 -158.6 L169.7 -158.5 169.7 -159.25 169.7 -160.0 169.7 -160.75 171.1 -161.7 172.45 -162.0 Q176.35 -158.55 175.45 -152.95 L175.2 -150.0 Q170.15 -144.8 170.3 -138.0 L170.2 -136.5 Q168.85 -136.4 168.45 -137.95 L167.7 -139.5 Q167.55 -141.45 168.3 -143.1 168.85 -144.2 168.7 -145.5 170.1 -148.0 172.15 -150.05 L172.7 -150.75 172.9 -156.0 Q173.0 -157.3 172.2 -158.25 171.3 -156.2 171.25 -154.0 L171.2 -151.75 170.45 -151.0 169.2 -151.0 168.85 -152.55 168.7 -154.0 Q167.25 -157.6 164.6 -160.65 L163.2 -162.0 Q164.4 -159.4 164.8 -156.75 L164.95 -154.5 165.45 -153.75 165.95 -153.0 Q165.95 -151.9 166.25 -150.85 L166.7 -148.5 163.5 -148.35 162.95 -148.75 161.95 -148.5 162.95 -147.0 163.95 -145.5 Q166.5 -145.5 167.45 -143.75 165.7 -142.25 163.2 -143.25 160.65 -145.8 159.0 -149.15 L157.95 -150.75 Q159.9 -152.9 163.95 -151.5 L163.85 -152.2 162.95 -153.75 Q163.2 -157.4 161.55 -160.55 160.8 -161.95 160.95 -163.5 L160.55 -164.3 M147.7 -140.0 L145.95 -141.5 Q145.5 -143.85 143.25 -145.3 L142.95 -145.5 141.7 -145.0 141.7 -144.25 141.7 -143.5 Q139.4 -141.1 137.7 -138.25 L137.2 -137.5 Q139.75 -138.1 141.7 -136.75 142.2 -135.4 140.8 -134.4 L140.2 -133.75 Q139.35 -129.95 140.7 -126.25 141.15 -125.05 140.95 -123.75 141.8 -128.55 143.05 -133.25 143.35 -134.35 143.2 -135.5 L143.4 -136.05 144.2 -136.5 146.2 -135.5 Q147.05 -133.8 146.8 -131.75 L146.7 -130.25 Q147.45 -130.65 147.3 -131.75 L147.2 -133.25 147.95 -134.0 Q148.5 -136.25 148.0 -138.5 L147.7 -140.0 M154.9 -124.3 L154.2 -123.5 Q153.8 -122.05 153.9 -120.5 L153.95 -119.0 154.95 -117.5 155.45 -116.75 156.05 -117.4 157.2 -118.25 158.1 -120.55 158.2 -121.25 159.2 -121.5 159.65 -120.0 159.7 -119.25 160.45 -118.5 160.7 -117.0 160.7 -116.25 162.9 -112.6 163.45 -111.75 164.45 -111.5 164.1 -112.8 Q163.95 -113.5 163.95 -114.25 L163.45 -115.0 162.95 -115.75 162.95 -120.25 162.95 -121.75 164.45 -122.75 Q165.65 -120.7 167.7 -120.5 167.65 -122.9 166.65 -125.0 L165.95 -126.25 Q161.9 -128.2 157.45 -127.25 L154.9 -124.3 M153.2 -127.0 Q154.7 -127.85 155.7 -129.25 154.6 -130.8 154.1 -132.3 153.95 -132.65 153.95 -133.0 L154.35 -133.5 155.45 -133.75 Q159.35 -128.95 166.4 -128.2 167.85 -128.0 168.95 -126.75 169.75 -124.55 169.85 -122.25 170.05 -119.15 169.2 -116.25 L168.85 -115.65 167.95 -115.0 Q165.8 -115.55 165.25 -117.7 L164.95 -117.75 166.4 -113.4 Q167.3 -110.25 168.7 -107.25 L167.2 -106.25 Q165.3 -107.9 163.2 -109.25 L160.95 -110.75 Q160.85 -112.35 160.0 -113.8 159.6 -114.5 159.45 -115.3 L159.2 -117.5 Q157.5 -117.35 157.9 -115.25 L157.95 -114.5 157.95 -112.25 156.2 -111.25 153.95 -113.5 153.95 -114.25 153.95 -115.0 Q153.5 -116.35 152.2 -117.25 151.8 -118.7 151.9 -120.25 L151.9 -121.75 151.7 -124.0 152.75 -126.25 153.2 -127.0 M130.95 -102.5 L130.95 -103.25 131.7 -104.0 131.9 -104.75 131.95 -105.5 131.95 -106.25 Q137.15 -113.2 146.45 -111.25 153.55 -107.1 158.85 -100.65 L159.2 -100.0 158.85 -99.5 157.2 -99.0 Q154.05 -100.55 152.1 -103.4 L150.95 -104.75 150.95 -103.25 150.95 -101.0 Q146.4 -93.4 138.45 -92.65 L137.95 -93.0 139.1 -94.4 140.95 -96.0 Q139.5 -97.4 136.3 -93.25 134.8 -91.4 134.95 -89.0 L134.45 -88.25 134.0 -87.5 133.7 -86.75 132.95 -86.5 131.95 -86.75 131.95 -92.75 131.95 -97.25 131.65 -97.95 130.95 -98.75 130.95 -100.25 130.95 -102.5 M135.45 -104.5 L137.25 -104.95 138.45 -104.75 137.95 -104.05 136.7 -102.5 Q136.5 -100.45 135.2 -98.8 L133.95 -97.25 133.95 -96.5 133.95 -95.0 Q137.2 -97.2 140.95 -100.5 L142.45 -100.75 Q143.3 -99.45 142.95 -97.75 142.75 -96.75 143.2 -96.0 146.5 -98.35 148.5 -101.75 L148.95 -102.5 148.95 -104.0 148.95 -106.25 Q144.65 -110.5 137.95 -108.5 135.4 -107.95 134.45 -105.65 L133.7 -104.75 133.8 -104.05 133.45 -103.25 132.85 -102.45 132.95 -102.25 133.45 -102.5 134.95 -103.25 135.25 -104.0 135.45 -104.5 M9.25 -184.5 Q8.15 -182.1 6.4 -179.85 6.25 -179.65 6.25 -179.25 11.2 -176.55 17.0 -180.25 L18.0 -179.5 Q18.4 -178.4 18.15 -177.25 L18.0 -176.5 Q13.95 -171.4 8.25 -168.25 L10.0 -166.0 10.05 -164.5 10.25 -163.75 9.5 -163.0 Q2.6 -162.0 0.25 -168.25 L-0.75 -169.0 Q-1.6 -170.7 -1.45 -172.75 L-1.5 -173.5 Q-3.65 -175.55 -5.0 -178.0 -1.5 -178.85 1.25 -174.25 L1.25 -171.25 1.25 -170.5 Q3.25 -166.55 7.0 -165.75 L2.75 -170.25 Q9.05 -170.55 13.5 -175.25 L2.25 -176.35 1.75 -176.75 Q2.25 -178.4 3.75 -179.75 L3.75 -180.5 3.75 -181.25 Q2.95 -182.35 0.25 -180.75 L-0.35 -179.3 -0.75 -178.5 Q-2.0 -178.45 -2.0 -180.0 L-2.0 -180.75 Q1.75 -185.3 8.5 -186.0 L9.1 -185.2 9.25 -184.5 M33.0 -2.1 L33.5 -2.0 Q36.6 -1.1 37.95 1.6 L38.75 2.5 39.5 2.25 40.25 1.0 Q50.9 5.85 45.5 17.4 42.35 24.1 43.0 31.75 L42.6 32.3 41.5 32.75 Q39.5 25.5 42.25 18.5 43.35 15.75 44.75 13.25 L44.5 8.75 Q44.35 7.05 43.25 6.5 L43.6 7.95 44.25 9.5 44.1 10.15 43.5 11.0 42.25 11.0 40.75 9.5 40.0 8.75 39.8 8.0 39.65 7.25 39.5 6.5 Q36.45 4.05 33.75 1.5 L33.0 1.25 Q35.6 3.85 36.65 7.35 37.0 8.35 37.0 9.5 L37.5 10.25 38.0 11.0 38.0 12.5 38.0 14.75 37.6 15.3 36.5 15.75 35.9 15.35 34.25 14.75 34.15 15.2 34.7 16.75 35.0 17.5 36.45 18.25 37.25 18.75 38.5 18.55 39.25 18.5 39.5 19.25 39.5 20.75 36.25 20.75 Q32.25 18.9 31.25 14.7 L31.0 13.25 30.15 12.35 30.0 11.75 Q32.3 10.25 35.4 12.25 L36.0 12.25 Q35.45 11.1 35.2 9.95 L35.0 7.75 Q32.8 4.15 30.05 0.9 29.2 -0.1 29.0 -1.25 30.3 -3.0 33.0 -2.1 M198.2 -136.5 L198.05 -135.95 Q195.9 -133.95 194.95 -131.25 192.5 -130.65 190.4 -129.55 188.6 -128.65 186.45 -128.25 L187.15 -127.45 187.45 -126.75 187.35 -126.05 186.7 -124.75 Q180.75 -124.05 175.2 -126.0 L174.7 -126.75 172.7 -129.0 171.45 -128.5 169.45 -127.75 175.05 -133.65 Q177.5 -136.2 177.95 -139.75 L178.75 -140.5 Q180.25 -141.75 181.95 -142.15 L181.95 -142.25 188.45 -142.0 189.05 -141.2 189.2 -140.5 189.05 -140.0 185.45 -136.75 Q191.25 -135.3 195.95 -138.25 L197.45 -138.0 198.05 -137.2 198.2 -136.5 M180.45 -138.5 L180.25 -137.75 179.95 -136.25 Q178.45 -133.2 175.45 -131.0 175.45 -128.65 179.2 -127.5 L182.2 -127.75 Q180.3 -128.45 179.45 -130.0 L179.7 -131.45 180.2 -132.25 Q186.6 -130.4 192.45 -133.25 L180.7 -134.75 Q180.8 -138.05 184.45 -139.25 L181.95 -139.25 180.45 -138.5 M172.95 -119.0 Q175.85 -117.85 178.5 -115.75 L179.45 -115.0 Q179.7 -115.0 179.8 -115.1 L179.95 -115.75 179.95 -116.5 180.95 -117.0 182.45 -116.75 Q190.65 -108.55 183.9 -97.0 182.8 -95.15 182.7 -92.75 L181.95 -92.5 180.95 -92.75 Q180.3 -99.35 183.5 -105.35 185.0 -108.25 184.7 -111.5 183.9 -112.9 182.35 -113.45 L181.95 -113.25 182.1 -112.55 182.95 -111.0 182.8 -108.8 182.45 -107.25 180.8 -108.1 179.95 -108.75 179.95 -109.5 179.95 -111.0 Q179.1 -112.75 177.45 -113.95 L176.2 -114.75 Q175.55 -112.35 177.3 -109.65 L178.95 -106.75 Q178.95 -103.85 175.2 -105.25 L173.95 -106.0 174.45 -104.75 174.95 -103.5 Q178.7 -104.15 180.45 -101.75 177.9 -99.8 174.2 -101.25 L172.9 -102.7 171.95 -103.5 Q172.0 -105.15 171.35 -106.7 170.95 -107.65 170.95 -108.75 L171.15 -109.25 Q171.7 -109.65 172.45 -109.75 173.7 -108.05 175.7 -108.0 175.5 -109.0 174.9 -110.0 L173.95 -111.5 173.95 -112.25 173.95 -113.0 173.65 -113.7 172.95 -114.5 172.95 -115.25 172.95 -116.0 Q172.2 -117.1 172.4 -118.15 L172.9 -118.85 172.95 -119.0 M165.1 73.4 Q165.45 73.1 165.9 72.9 L165.95 72.75 Q172.3 73.35 176.35 78.35 L176.7 78.5 176.7 77.0 176.7 76.25 176.7 74.75 Q178.0 73.0 180.0 74.7 L181.95 76.25 Q182.2 77.75 182.75 79.1 183.65 81.25 183.2 83.75 L184.25 85.2 184.95 86.0 185.45 86.75 185.85 88.2 186.35 89.75 186.7 91.25 185.95 91.5 184.95 91.25 184.2 89.75 183.7 89.0 183.2 88.25 180.95 88.0 Q176.5 92.8 170.2 92.25 L165.45 86.8 Q164.3 85.5 163.45 84.0 163.85 83.35 164.4 83.15 166.2 82.5 168.2 82.25 167.9 79.9 166.6 77.8 165.5 75.95 164.7 74.0 L165.1 73.4 M179.2 78.5 L179.2 82.25 179.2 83.0 177.95 84.25 176.2 84.0 Q174.75 79.7 170.95 76.75 L169.2 76.6 169.2 76.75 173.35 86.55 173.45 87.25 171.2 88.25 Q169.75 86.2 167.45 85.5 168.9 87.35 170.7 89.0 176.6 89.45 180.45 84.5 180.95 81.45 179.5 78.6 L179.2 78.5 M179.2 91.75 Q180.5 96.55 180.1 101.45 L179.95 102.25 181.2 103.75 181.2 105.25 181.2 106.0 180.2 107.5 Q179.55 111.85 176.45 115.0 L171.2 115.0 170.45 114.25 169.95 113.75 Q166.7 113.9 164.95 117.25 164.7 115.3 165.7 112.95 L165.95 112.25 Q167.35 111.25 168.95 110.75 170.85 110.7 171.95 112.25 L175.7 112.25 Q175.95 111.05 176.7 110.0 L176.5 109.75 Q175.95 109.85 175.45 110.25 L174.2 110.25 173.45 109.5 Q176.95 104.0 177.7 97.5 L177.7 96.75 168.45 109.0 167.2 109.0 Q166.35 106.9 166.65 104.45 L166.7 103.75 167.6 102.15 167.7 101.5 165.2 102.25 Q164.3 104.05 164.0 106.0 L163.95 106.75 162.45 107.75 Q161.2 105.1 162.8 102.4 L162.95 101.75 Q165.35 99.15 168.95 98.0 L170.95 99.5 Q171.4 100.7 170.4 101.9 L170.2 102.5 Q173.9 97.25 176.95 91.25 L177.95 91.0 178.45 91.0 179.2 91.75 M194.95 83.7 L194.2 84.5 194.15 95.0 Q194.1 96.55 193.2 98.0 L193.6 98.55 194.7 99.3 194.95 99.5 Q198.7 99.65 201.2 97.0 L199.2 96.0 197.8 94.4 196.7 93.0 Q198.4 90.0 202.95 91.25 L208.15 85.95 208.7 85.25 Q207.55 85.8 206.55 86.85 L205.7 88.0 Q202.15 88.1 198.95 89.25 198.1 89.1 197.3 88.75 L196.7 88.25 Q197.6 84.3 200.05 80.8 201.0 79.45 199.7 80.0 197.05 81.45 194.95 83.7 M200.45 85.25 L204.2 85.25 Q205.95 83.95 207.15 82.35 208.1 81.1 209.2 80.0 L213.45 80.0 214.05 80.8 214.2 81.5 Q211.65 86.45 207.25 90.55 L204.45 93.25 204.35 93.35 206.45 94.0 207.05 94.8 207.2 95.5 Q202.25 101.55 194.2 102.0 L193.4 101.3 191.95 100.5 191.6 100.6 190.45 102.0 189.45 102.25 Q192.15 97.45 191.9 91.7 L191.7 83.5 Q195.45 78.7 200.95 76.85 L200.95 76.75 204.45 77.0 205.2 77.75 Q203.5 79.75 202.4 82.3 201.7 83.95 200.45 85.25 M214.95 89.75 Q216.2 90.25 217.35 90.9 L217.95 91.5 Q218.2 93.95 219.6 96.05 L220.45 97.5 Q222.15 97.7 223.4 98.8 L223.95 99.5 Q225.0 102.75 225.25 106.25 225.35 107.4 224.95 108.5 218.8 113.95 211.4 117.85 209.7 118.8 208.7 120.5 L207.55 120.45 206.95 120.0 Q211.65 111.45 221.3 108.25 222.1 108.0 222.7 107.25 222.95 105.3 222.15 103.5 L221.45 102.0 Q221.7 104.3 220.6 106.3 L219.95 107.75 218.95 108.25 217.3 107.75 216.7 107.25 Q216.8 106.05 217.45 104.95 L218.2 103.5 Q217.2 102.15 217.45 100.5 L217.7 99.0 216.6 96.7 216.2 95.5 Q217.0 100.85 214.95 105.55 L213.7 108.0 212.95 108.1 211.2 108.0 210.4 107.3 209.45 106.75 208.2 107.5 Q207.8 108.55 207.9 109.75 L207.95 111.25 208.5 111.95 209.2 112.75 208.85 113.25 207.2 113.75 206.5 112.95 205.95 112.25 205.95 108.5 205.95 107.0 Q207.55 105.35 208.8 103.15 L208.95 102.5 210.0 102.1 211.45 102.0 212.15 102.75 212.2 103.0 Q214.6 98.0 213.7 92.0 213.4 90.0 214.95 89.75 M239.4 104.6 L237.95 102.5 Q237.75 104.55 239.55 109.3 240.0 110.5 239.2 111.5 235.7 106.8 229.7 105.0 233.05 109.4 235.8 114.2 236.1 114.75 235.95 115.5 L235.45 115.85 Q241.7 115.5 248.45 115.75 252.2 118.8 254.85 122.55 L255.2 123.25 255.2 123.8 Q254.95 124.1 254.45 124.25 252.7 122.0 250.15 120.6 249.7 120.35 249.2 120.25 L248.45 119.5 247.95 119.0 Q239.0 120.4 230.2 118.0 228.3 116.25 226.9 114.1 L226.7 113.5 Q228.3 110.4 232.7 112.75 229.7 108.65 226.4 105.05 L226.2 104.5 Q231.4 102.55 237.2 106.5 L235.5 101.85 Q235.1 100.85 234.95 99.75 L235.3 99.4 235.95 99.25 236.45 99.25 Q241.9 102.75 244.1 109.1 L243.95 109.75 243.6 110.3 242.45 110.75 Q241.65 107.3 239.4 104.6 M226.2 114.75 Q225.5 117.7 225.25 120.75 L225.2 121.5 228.95 125.25 Q229.55 130.6 228.1 135.7 227.8 136.8 227.95 138.0 226.85 139.15 226.7 140.75 L224.45 140.75 Q223.6 137.9 223.95 134.7 L223.95 134.0 Q220.1 141.6 213.95 148.0 L211.95 147.0 Q211.6 145.55 212.7 144.75 213.45 137.2 217.6 131.15 L217.7 130.75 215.95 130.75 Q214.4 131.85 213.95 133.75 L212.2 134.0 Q211.4 132.3 211.65 130.2 L211.7 129.5 212.45 128.75 Q213.3 123.35 218.2 120.0 L220.45 120.0 221.2 120.75 Q217.6 123.5 215.2 127.5 L220.45 128.0 221.2 129.5 Q217.85 134.75 216.3 140.75 L216.2 141.5 Q220.45 136.9 222.95 129.95 L223.2 129.25 223.95 128.5 225.45 128.25 Q226.3 131.05 226.0 134.25 L225.95 135.0 Q227.45 133.15 227.05 129.45 L226.95 128.0 Q225.45 125.1 222.95 122.75 221.9 118.1 225.6 114.9 L226.2 114.75 M202.85 119.55 L201.45 120.5 Q202.05 122.85 203.2 125.1 203.95 126.7 204.95 128.0 L205.45 128.75 205.15 129.4 204.45 130.25 Q201.55 131.05 198.85 129.75 198.1 129.35 197.2 129.25 L192.65 124.8 Q190.9 123.2 189.7 121.25 L189.55 122.75 189.45 125.0 189.1 125.55 187.95 126.25 Q184.25 123.4 183.8 118.2 183.45 114.1 184.45 110.0 L185.55 108.55 187.2 107.0 Q187.0 104.6 184.45 102.9 184.35 102.85 184.6 102.7 L185.45 102.5 192.05 105.75 Q194.1 106.75 196.45 107.0 198.7 108.35 200.65 110.05 L201.2 110.75 Q202.0 112.9 202.3 115.2 L202.95 117.6 203.2 119.0 202.85 119.55 M207.2 147.75 L208.15 151.5 208.2 152.25 Q210.3 154.5 210.45 157.45 L210.7 157.5 210.7 153.75 210.7 153.0 212.45 152.0 216.95 157.25 Q217.15 166.55 211.05 174.55 L210.7 175.25 209.45 175.5 Q211.9 167.3 214.7 159.0 L213.6 157.6 213.2 157.5 213.2 160.5 213.2 161.25 212.3 162.75 211.95 163.5 210.95 164.0 208.95 162.75 Q208.55 161.25 208.5 159.75 L208.2 159.25 208.2 164.5 208.2 165.25 207.45 166.0 206.2 166.0 Q204.5 164.05 202.45 162.5 203.6 164.15 203.15 166.2 L202.95 167.0 Q205.0 170.25 206.7 173.75 L205.45 174.75 Q200.6 168.8 199.7 161.25 199.8 159.85 201.2 159.0 L203.45 159.0 205.05 161.15 205.45 161.5 Q205.9 159.05 205.75 156.45 L205.7 155.0 204.7 153.5 204.7 148.25 204.7 147.5 206.0 147.05 206.45 147.0 207.2 147.75 M217.95 146.0 Q223.65 151.45 224.55 159.45 L224.7 160.25 Q237.2 158.2 242.2 146.75 234.7 154.0 225.7 152.25 226.75 148.9 229.7 146.5 229.0 145.85 226.95 147.0 L222.95 146.0 Q226.75 143.45 231.45 144.0 232.7 144.85 233.2 146.25 232.4 148.45 229.7 150.0 L231.45 150.25 Q238.05 146.95 242.95 142.0 L243.25 141.85 244.45 141.75 245.2 142.5 Q245.7 154.8 233.45 160.5 L234.15 161.3 234.45 162.0 Q232.6 165.25 228.95 166.5 L225.2 166.25 Q220.2 158.95 218.0 149.85 217.7 148.6 216.95 147.5 L217.95 146.0 M187.45 110.75 Q187.55 113.5 186.6 116.05 186.45 116.35 186.45 116.75 L187.6 117.7 188.2 117.75 188.45 117.0 188.7 116.25 189.95 115.5 Q191.6 116.2 192.45 117.75 193.4 123.1 198.45 126.5 200.1 126.35 201.45 127.25 198.5 121.0 193.7 116.5 195.15 113.3 199.7 115.25 197.7 107.55 188.95 108.5 L187.95 110.0 187.45 110.75 M176.45 123.0 L177.2 123.75 Q171.5 127.6 168.3 133.9 L167.45 135.25 167.35 135.35 168.45 135.25 169.5 133.75 170.2 133.0 174.45 133.0 175.2 133.75 171.3 141.0 Q170.45 142.5 170.45 144.25 L171.65 143.4 172.45 142.75 172.65 141.95 172.7 140.5 173.65 138.95 173.95 138.25 175.45 138.0 176.4 138.8 176.95 139.5 177.15 141.0 177.2 142.5 Q180.9 140.8 180.05 134.45 179.7 132.25 179.7 130.0 178.95 128.9 178.55 127.8 L177.7 126.25 Q177.8 124.4 179.95 124.0 L180.7 124.75 Q183.8 134.05 180.65 143.3 179.1 147.75 174.95 150.0 L173.9 149.3 173.7 148.75 Q174.0 147.1 174.7 145.7 L175.45 144.25 166.4 153.2 165.45 154.0 162.2 154.25 161.45 153.5 Q166.65 148.05 169.1 141.05 169.5 139.9 169.45 138.5 168.2 137.7 163.7 137.25 166.7 128.7 174.1 123.4 L174.95 122.75 176.45 123.0 M197.45 134.75 Q199.0 135.45 199.45 137.0 L199.7 137.75 202.2 139.25 Q202.65 141.05 202.55 143.0 L202.45 146.0 196.9 157.85 Q195.75 160.45 195.2 163.25 194.0 163.3 194.05 161.7 194.1 161.0 193.7 160.25 195.1 154.9 196.9 149.6 197.75 147.15 199.45 145.25 L199.4 143.0 199.2 141.5 197.9 140.05 197.2 139.5 197.2 141.75 197.2 143.25 196.45 144.0 195.2 144.0 Q193.75 140.6 192.75 137.15 192.25 135.5 191.2 135.0 190.85 137.4 191.75 139.45 192.35 140.9 192.2 142.5 L192.95 143.25 Q193.35 144.3 193.25 145.5 L193.2 147.0 192.85 147.6 191.95 148.25 189.2 148.0 188.45 147.25 187.45 146.5 187.9 147.65 188.95 149.25 189.15 150.0 189.2 150.75 Q192.65 152.35 193.95 154.5 192.75 156.15 190.2 155.0 188.8 153.6 186.95 152.75 185.55 149.4 184.9 145.95 L184.7 143.75 187.45 143.0 190.1 145.05 190.7 145.25 Q188.9 141.3 188.25 137.05 L187.7 132.5 186.85 130.9 186.7 130.25 Q186.95 129.6 187.45 129.25 L188.45 129.0 194.35 134.35 194.7 135.0 197.45 134.75 M184.7 168.25 Q187.75 173.2 187.7 178.7 L187.7 180.95 186.7 182.45 185.2 182.7 Q181.1 178.95 177.95 174.5 177.6 177.2 178.7 179.6 L178.7 180.2 Q178.35 181.6 176.45 180.7 175.7 179.0 174.2 177.7 174.05 175.35 172.2 174.0 L170.8 168.7 170.7 168.0 Q176.75 161.25 181.75 153.9 181.85 153.75 182.2 153.75 182.25 155.75 181.3 157.55 L181.2 158.0 183.45 158.0 Q185.75 161.2 188.95 163.25 190.15 165.35 190.2 167.75 L188.95 169.0 Q186.95 168.15 184.7 168.25 M180.45 159.75 Q178.3 164.05 174.5 167.25 L173.7 168.0 Q173.6 170.8 175.05 173.95 L175.7 175.25 175.05 170.45 174.95 169.0 177.45 168.25 Q180.0 174.65 185.0 179.4 L185.7 179.95 Q186.65 178.7 185.8 176.8 L184.95 175.25 184.95 174.5 184.95 173.75 Q182.55 170.15 179.7 167.0 L180.75 165.5 181.2 165.0 186.45 165.25 Q183.75 161.85 180.6 159.6 L180.45 159.75 M225.45 162.0 Q226.05 164.4 228.95 162.95 L229.95 162.5 Q227.55 162.95 225.65 161.85 L225.45 162.0 M66.95 4.0 Q68.7 4.1 70.4 4.55 L70.95 5.0 70.85 5.7 Q70.25 7.15 69.95 8.75 L69.2 9.5 68.45 10.25 68.35 11.75 Q68.4 13.3 67.95 14.75 L67.7 15.0 70.45 16.0 71.2 16.75 71.2 17.5 71.2 19.0 Q61.3 28.0 47.3 26.3 46.85 26.25 46.5 25.5 57.55 23.25 67.45 18.75 L67.0 18.8 65.95 19.25 Q65.1 19.1 64.3 18.75 L63.7 18.25 Q63.7 17.5 63.95 16.8 64.6 15.15 65.45 13.75 L65.65 13.0 65.7 10.0 66.1 9.35 Q67.4 8.1 68.2 6.5 62.95 8.65 59.35 14.65 L58.7 15.5 57.45 15.75 Q56.7 14.75 56.85 13.45 L56.95 10.5 56.85 10.25 54.75 12.25 54.75 13.0 54.75 15.25 55.5 16.0 54.95 16.3 53.5 16.5 53.3 15.0 53.25 12.0 53.8 11.3 Q55.0 10.1 55.5 8.5 L55.95 8.2 Q57.6 7.15 59.45 7.25 L59.65 7.9 58.95 9.5 58.9 10.25 Q58.75 11.25 59.2 12.0 61.5 7.6 65.55 4.85 L66.95 4.0 M77.2 21.75 L74.6 29.2 Q74.2 30.25 73.95 31.25 L74.75 30.35 75.45 28.5 Q75.7 28.35 75.95 28.35 L77.2 28.5 Q78.1 31.3 77.9 34.5 L77.95 36.75 Q70.35 39.85 65.4 46.55 64.2 48.1 63.45 50.0 L62.45 50.25 Q64.1 40.85 72.45 37.0 71.6 34.55 71.85 31.75 L71.95 29.5 72.7 28.75 72.9 27.95 72.95 26.5 73.6 25.65 74.2 24.25 Q73.6 24.35 73.15 24.7 L71.95 26.0 71.75 26.75 71.45 28.25 70.7 29.0 70.65 29.7 70.45 30.5 Q68.85 32.5 68.05 35.0 L67.45 37.25 66.95 37.5 65.45 37.5 65.3 36.75 65.2 34.5 64.7 33.75 63.95 33.0 63.15 39.4 Q63.0 41.1 63.95 42.5 L64.05 42.9 62.45 43.25 Q62.2 39.5 62.2 35.75 L62.2 32.75 63.2 31.25 64.2 29.75 65.2 29.5 Q66.0 30.45 66.0 31.75 65.95 32.5 66.2 33.25 67.65 33.05 68.85 29.7 L69.45 27.5 Q71.6 23.0 75.5 19.55 75.7 19.35 75.95 19.25 77.1 19.35 78.1 19.75 78.35 19.85 78.45 20.25 L77.95 20.95 77.2 21.75 M54.25 36.5 L55.0 37.25 55.2 38.75 55.25 39.5 56.0 40.25 Q56.4 41.3 56.35 42.5 L56.45 43.25 Q52.65 49.1 51.6 55.95 L51.25 57.5 Q47.6 51.25 52.65 43.9 L53.5 42.5 53.1 41.0 52.75 40.25 Q53.05 39.0 52.25 38.6 L52.25 39.0 51.75 40.35 51.0 41.0 49.0 39.75 Q48.7 37.75 47.8 35.95 L47.5 35.25 Q47.35 35.85 47.5 36.4 L48.0 37.25 Q48.35 38.3 48.25 39.5 L48.25 40.25 49.0 41.8 49.0 42.5 Q48.1 43.9 46.25 43.0 L45.8 42.2 45.75 41.75 Q44.2 41.45 42.5 40.5 45.05 44.9 48.75 47.25 47.75 48.85 45.25 48.0 41.7 45.05 39.75 41.25 L39.75 39.75 39.75 39.0 41.0 37.75 45.5 38.25 44.75 37.5 44.85 30.75 45.0 30.0 Q45.7 28.6 47.5 29.0 L48.3 30.45 49.0 31.25 49.35 32.7 49.75 33.5 Q49.5 31.55 51.5 32.0 L54.0 34.25 54.2 35.75 54.25 36.5 M73.7 36.5 Q74.75 37.05 75.95 35.75 76.35 34.65 76.35 33.5 76.3 32.4 75.95 33.0 74.8 34.4 74.0 36.0 L73.7 36.5 M-21.0 -200.25 Q-17.45 -200.75 -14.8 -198.45 L-14.0 -197.75 -12.5 -197.5 -11.8 -198.05 -11.0 -198.75 -9.5 -199.0 -8.05 -198.2 -6.0 -196.75 Q-4.5 -193.2 -4.85 -189.25 -5.2 -185.25 -7.5 -181.75 L-7.5 -181.0 -7.5 -180.25 -7.5 -178.75 Q-7.5 -178.4 -7.7 -178.2 -8.0 -177.9 -8.5 -177.75 L-8.6 -180.0 Q-8.7 -181.9 -9.2 -183.8 L-9.25 -184.5 Q-13.6 -181.8 -18.75 -183.0 L-19.8 -186.8 Q-20.55 -189.35 -20.0 -192.0 L-19.4 -192.55 -17.75 -193.25 Q-18.1 -194.45 -19.05 -195.25 -21.05 -196.9 -22.25 -199.0 L-21.9 -199.6 -21.05 -200.1 -21.0 -200.25 M-194.5 -150.75 L-201.65 -153.15 Q-203.55 -153.85 -203.25 -155.75 L-203.15 -156.45 -202.7 -156.9 -202.05 -157.1 -202.0 -157.25 Q-194.6 -156.1 -188.4 -151.4 L-188.25 -151.5 Q-188.25 -151.9 -188.4 -152.15 L-189.4 -153.8 -190.25 -155.25 -189.7 -155.7 -186.5 -156.0 -183.2 -153.05 -179.75 -149.25 -179.75 -148.5 -179.8 -147.0 -180.0 -145.5 Q-181.65 -143.8 -181.95 -141.65 -182.4 -138.9 -183.75 -136.5 L-183.5 -135.75 -183.25 -135.0 -183.0 -134.25 Q-183.15 -133.9 -183.4 -133.7 -183.9 -133.4 -184.5 -133.25 L-185.15 -134.1 -185.75 -135.5 -186.25 -137.0 Q-185.6 -138.8 -185.45 -140.75 -185.25 -144.4 -182.25 -146.75 L-182.4 -147.45 -183.0 -149.1 Q-183.45 -150.45 -184.75 -150.5 L-184.7 -149.75 -184.3 -148.4 Q-183.65 -147.3 -183.75 -146.0 L-184.15 -145.4 Q-184.5 -145.0 -185.0 -144.75 L-186.75 -145.0 -188.15 -146.6 -189.65 -148.65 -190.0 -148.75 -189.75 -148.0 -189.1 -146.45 -188.75 -145.0 -189.1 -144.35 -190.05 -143.55 Q-190.5 -143.25 -191.0 -143.0 L-193.75 -143.4 Q-194.25 -143.5 -194.75 -143.75 L-193.4 -142.35 Q-191.85 -140.95 -189.75 -140.25 L-189.55 -139.5 -189.65 -138.8 -190.0 -138.25 Q-193.8 -138.1 -196.35 -140.9 -197.8 -142.5 -198.25 -144.25 L-198.2 -145.0 -197.9 -145.65 -197.0 -146.25 -192.75 -145.45 -191.5 -145.5 -192.3 -146.95 -194.05 -150.0 -194.5 -150.75 M-169.0 -151.0 Q-167.35 -150.95 -166.5 -149.75 -171.1 -147.65 -173.5 -143.0 -170.55 -143.6 -169.0 -142.0 -169.2 -139.8 -171.0 -138.25 -172.05 -132.5 -176.25 -128.5 -170.45 -132.35 -168.0 -139.0 L-165.5 -139.75 Q-164.6 -137.3 -165.1 -134.5 L-165.0 -134.25 -162.75 -138.5 Q-162.3 -144.05 -165.75 -148.25 -166.9 -152.55 -163.95 -155.2 L-163.75 -155.25 -161.3 -138.75 -161.25 -138.0 -164.25 -132.75 -166.5 -132.5 -167.15 -136.25 -167.25 -136.75 Q-170.95 -127.9 -179.5 -126.25 -178.8 -130.8 -174.25 -134.5 L-172.75 -139.75 -172.0 -140.5 -173.25 -140.75 Q-174.65 -139.0 -176.5 -138.5 L-176.95 -140.0 -177.0 -140.75 -171.5 -149.75 -169.0 -151.0 M-218.5 -159.0 L-217.75 -158.25 Q-216.2 -154.4 -213.75 -150.75 L-212.75 -149.25 -212.7 -148.5 -212.5 -147.5 Q-212.1 -148.8 -212.2 -150.25 L-212.25 -151.75 -212.05 -152.35 -211.0 -153.25 Q-208.35 -151.35 -207.15 -148.05 L-206.75 -147.25 -206.55 -143.5 -206.5 -142.0 Q-209.3 -137.3 -211.7 -132.2 L-212.25 -130.75 Q-212.65 -130.5 -213.0 -130.5 L-214.0 -130.75 -214.1 -131.5 -214.5 -133.0 Q-212.9 -137.15 -210.6 -141.15 L-209.5 -142.75 -209.5 -145.0 -209.5 -146.5 Q-210.0 -146.1 -209.8 -145.0 -209.65 -143.9 -210.25 -143.0 L-211.0 -142.9 -212.75 -143.0 Q-214.25 -144.25 -214.85 -145.95 L-215.25 -146.75 -215.25 -147.5 -215.25 -148.25 -216.25 -149.75 -216.75 -150.5 Q-215.9 -147.95 -215.8 -145.25 L-215.75 -143.0 -216.1 -142.3 -216.75 -141.5 -216.75 -140.75 -216.75 -140.0 -217.15 -139.5 -218.75 -139.0 -220.05 -139.6 -221.0 -139.75 -221.0 -139.0 -221.0 -137.5 Q-218.3 -136.45 -216.5 -134.75 -220.05 -133.05 -223.0 -136.5 -223.0 -139.25 -223.8 -141.8 L-224.25 -144.0 -223.9 -144.55 -222.5 -145.0 Q-221.1 -143.1 -219.0 -142.75 -218.75 -150.5 -220.45 -158.7 -220.5 -159.05 -220.0 -159.25 L-218.5 -159.0 M-224.85 -117.4 L-223.7 -118.65 -223.0 -119.0 Q-218.3 -120.25 -215.25 -117.25 L-214.5 -116.5 -214.7 -115.95 Q-215.0 -115.65 -215.5 -115.5 L-217.8 -116.1 -221.0 -116.5 -219.55 -115.7 Q-217.3 -114.45 -216.75 -112.0 -221.15 -110.95 -224.4 -107.9 L-225.75 -106.5 -225.3 -106.6 Q-223.35 -107.65 -221.0 -108.25 L-217.55 -107.85 -216.75 -107.5 -216.45 -107.8 -216.25 -109.25 -216.25 -110.0 -215.9 -110.5 -213.0 -111.75 -212.25 -112.5 -209.75 -114.75 -206.55 -114.45 -206.0 -114.0 Q-208.9 -112.85 -211.2 -110.4 -212.4 -109.15 -213.75 -108.0 L-214.75 -104.25 Q-215.5 -101.25 -217.95 -99.65 L-218.75 -99.0 -218.8 -98.25 -219.05 -97.5 -219.25 -97.0 -219.95 -96.95 -223.25 -97.75 -223.1 -98.45 -222.5 -99.25 -222.3 -100.0 Q-221.9 -102.15 -220.45 -103.9 L-220.25 -104.5 Q-221.8 -105.95 -225.05 -103.25 -226.75 -101.8 -228.25 -100.0 L-228.95 -99.95 -231.25 -100.75 Q-230.45 -104.3 -228.5 -107.65 -225.8 -112.35 -220.5 -113.75 L-222.05 -114.35 Q-224.05 -114.95 -225.0 -116.75 L-224.85 -117.4 M-202.85 -119.25 L-201.5 -119.75 -200.35 -118.2 Q-198.0 -114.45 -193.5 -115.5 L-194.1 -116.15 Q-196.95 -118.5 -198.25 -121.5 L-197.7 -121.85 Q-195.6 -122.55 -193.5 -121.5 L-192.8 -121.8 -189.5 -122.0 -188.85 -121.2 Q-188.1 -120.1 -187.25 -119.75 L-187.35 -120.45 -188.0 -122.0 -189.2 -122.8 -191.0 -124.25 Q-193.4 -124.65 -195.7 -125.3 L-196.25 -125.75 -196.05 -126.3 -193.75 -128.0 -193.5 -128.25 -197.75 -128.25 Q-200.35 -126.5 -201.7 -123.7 -203.35 -120.2 -205.5 -117.0 L-206.5 -116.75 Q-205.95 -120.55 -204.3 -124.15 -201.9 -129.35 -197.0 -131.25 L-188.5 -131.0 -187.9 -130.2 -187.75 -129.5 -187.95 -128.95 -190.0 -127.25 Q-186.95 -124.6 -185.5 -120.95 -184.75 -119.0 -184.75 -116.75 L-184.75 -113.0 -185.15 -112.5 -186.75 -112.0 -187.25 -112.75 Q-188.15 -114.15 -188.25 -115.75 L-188.25 -116.5 -189.0 -117.25 -191.25 -119.5 -191.95 -119.35 -193.0 -118.75 Q-191.75 -118.4 -190.75 -117.7 L-189.75 -116.5 -189.95 -115.85 Q-190.95 -114.35 -192.25 -113.0 L-193.0 -112.9 Q-196.5 -113.0 -199.75 -114.25 L-200.55 -114.95 Q-202.55 -116.5 -203.0 -118.75 L-202.85 -119.25 M-165.5 -125.0 Q-164.2 -120.95 -164.05 -116.75 L-164.0 -115.5 -163.95 -115.35 -162.5 -115.0 -161.75 -114.25 Q-161.2 -108.0 -166.25 -104.0 -175.0 -102.5 -183.5 -99.75 -176.8 -106.75 -167.0 -106.75 L-165.5 -108.25 Q-165.4 -109.5 -164.8 -110.55 L-164.5 -111.25 Q-166.2 -111.9 -167.25 -109.5 -168.95 -108.2 -170.0 -110.0 -167.85 -112.6 -166.25 -115.25 -165.85 -116.7 -166.0 -118.25 L-166.0 -119.0 -166.85 -120.55 -167.0 -121.25 Q-170.1 -116.25 -174.25 -111.5 L-175.5 -111.25 Q-176.35 -113.35 -176.05 -115.75 L-176.0 -116.5 -175.35 -117.3 -175.0 -118.0 Q-177.75 -116.5 -179.75 -113.5 -180.15 -112.4 -180.05 -111.25 L-180.0 -110.5 -179.5 -109.75 -179.0 -109.0 -181.5 -108.25 Q-183.05 -114.7 -178.0 -119.5 -175.75 -121.05 -173.5 -121.75 -172.2 -118.7 -173.7 -115.75 L-174.0 -115.0 Q-170.25 -119.0 -168.75 -124.75 L-168.0 -125.5 -167.0 -125.7 -166.5 -125.75 -165.5 -125.0 M-192.75 -108.25 Q-193.15 -106.75 -192.85 -105.25 L-192.75 -104.5 -194.0 -102.25 Q-197.05 -100.65 -199.25 -98.0 L-206.25 -98.25 -209.75 -93.75 Q-210.1 -92.25 -209.7 -90.8 L-209.5 -90.5 Q-207.85 -91.35 -208.25 -93.25 L-205.5 -94.0 -204.75 -93.25 -204.75 -92.5 -204.75 -91.75 -203.75 -90.25 -203.75 -89.5 -203.75 -88.75 -202.75 -87.25 Q-202.75 -84.5 -201.8 -82.0 L-201.5 -81.25 Q-200.9 -81.4 -200.4 -81.7 L-200.0 -82.25 -200.0 -88.25 -200.0 -89.0 -199.0 -90.5 -200.0 -92.0 Q-200.35 -94.05 -199.5 -95.75 -195.15 -95.0 -193.25 -90.75 -192.8 -92.45 -193.0 -94.25 L-193.0 -95.0 -194.0 -96.5 -194.0 -99.5 -194.0 -100.25 -193.0 -101.75 -192.25 -101.0 Q-190.85 -95.55 -191.75 -89.85 L-192.5 -86.0 -194.5 -85.25 Q-195.35 -86.95 -195.0 -89.0 -195.65 -91.05 -197.0 -92.0 L-197.0 -89.75 -197.0 -89.0 -198.0 -87.5 Q-197.7 -83.65 -198.7 -80.05 -199.1 -78.75 -200.0 -77.75 L-199.95 -77.0 -199.75 -76.25 -201.0 -75.0 -203.0 -76.25 Q-203.4 -77.35 -203.3 -78.5 L-203.25 -79.25 -204.25 -80.75 -204.25 -81.5 -204.25 -82.25 -205.25 -83.75 -205.25 -85.25 -205.25 -86.0 -206.75 -88.75 Q-208.25 -86.8 -207.75 -84.25 L-209.0 -83.0 -211.0 -84.25 Q-211.2 -88.45 -211.85 -92.55 -212.0 -93.65 -211.75 -94.75 -209.35 -98.45 -206.0 -101.25 -203.0 -100.45 -200.0 -100.75 -195.75 -103.85 -193.25 -108.1 L-192.75 -108.25 M-168.5 -97.0 L-166.0 -94.75 Q-164.95 -92.25 -165.0 -89.5 L-165.0 -88.0 -165.6 -87.35 -166.25 -87.0 Q-163.55 -82.4 -163.05 -77.25 -162.85 -75.35 -163.25 -73.5 L-165.5 -73.25 -166.9 -77.05 -167.25 -78.5 Q-168.6 -81.7 -171.75 -83.0 -172.55 -83.95 -172.5 -85.25 L-172.75 -85.75 Q-173.2 -84.3 -173.05 -82.75 L-173.0 -82.0 -175.75 -81.25 Q-177.55 -84.1 -180.0 -86.5 L-180.0 -90.25 -180.0 -91.75 Q-182.25 -94.45 -182.15 -97.75 L-181.5 -97.75 -180.8 -97.0 -180.25 -96.25 Q-178.35 -97.0 -177.2 -95.8 L-177.0 -95.25 Q-175.25 -93.7 -171.75 -97.0 L-168.5 -97.0 M-171.0 -94.25 Q-173.45 -92.7 -176.3 -92.15 L-177.75 -92.0 -177.95 -90.75 -178.0 -89.25 -178.0 -87.75 -176.75 -86.25 -175.4 -84.9 Q-175.25 -84.75 -175.0 -84.75 L-175.0 -86.25 -175.0 -87.0 -175.0 -88.5 -174.85 -89.15 -174.0 -90.0 Q-170.6 -87.4 -168.05 -84.15 L-167.0 -83.25 Q-168.2 -86.4 -170.85 -88.65 L-173.0 -90.75 -172.85 -91.35 -172.0 -92.0 -168.75 -91.45 -167.25 -91.5 -168.7 -93.05 -169.2 -93.8 -169.25 -94.25 -169.3 -94.4 -170.75 -94.4 -171.0 -94.25 M-7.75 -193.0 L-7.75 -191.5 -7.75 -190.75 -8.5 -190.0 -10.5 -189.75 -11.0 -188.25 -12.75 -188.0 Q-15.05 -189.25 -17.75 -189.75 -17.9 -188.15 -17.1 -186.7 L-16.75 -186.0 Q-14.5 -184.2 -11.0 -186.0 L-9.0 -185.0 Q-7.4 -187.25 -7.2 -190.25 -7.05 -192.8 -7.75 -193.0 M-16.75 -196.5 Q-15.1 -193.25 -11.9 -191.75 L-11.25 -191.75 Q-13.15 -194.9 -16.75 -196.65 L-16.75 -196.5 M-12.0 -173.5 Q-3.3 -163.35 -13.5 -155.5 -14.2 -157.2 -12.95 -158.65 L-12.75 -159.25 Q-14.7 -159.5 -17.6 -156.0 -23.9 -148.4 -32.0 -148.0 -24.15 -155.4 -19.0 -164.5 -21.65 -164.9 -23.5 -163.0 L-26.25 -163.75 Q-23.1 -173.65 -13.5 -174.75 L-10.0 -177.2 -9.75 -177.25 Q-10.35 -175.7 -11.5 -174.25 L-12.0 -173.5 M-24.5 -186.25 Q-23.75 -183.35 -23.75 -180.25 L-23.75 -178.0 -25.0 -176.75 Q-28.8 -175.45 -29.5 -178.5 -30.3 -174.6 -29.1 -170.3 -28.05 -166.7 -29.25 -163.0 -31.6 -162.55 -33.0 -164.75 -33.05 -166.45 -34.3 -167.75 L-35.0 -168.5 -36.7 -176.8 -37.0 -180.5 -37.85 -179.65 -38.0 -179.0 -40.0 -176.0 -42.75 -175.25 -44.0 -176.75 Q-44.5 -181.1 -43.2 -185.0 -42.85 -186.1 -43.0 -187.25 L-42.15 -188.8 -42.0 -189.5 -40.0 -190.75 Q-39.45 -192.05 -41.25 -194.25 L-40.65 -197.05 Q-40.45 -197.45 -39.75 -197.25 -38.0 -193.3 -34.5 -190.55 L-33.75 -190.0 -27.5 -189.25 Q-25.7 -188.05 -24.5 -186.25 M-39.05 -189.3 L-40.0 -188.75 -40.6 -187.3 -41.0 -186.5 Q-42.15 -182.55 -42.05 -178.25 L-42.0 -177.5 Q-41.0 -177.7 -40.45 -178.95 L-40.0 -179.75 -40.0 -180.5 -40.0 -181.25 Q-38.95 -183.1 -37.0 -184.0 L-35.5 -183.75 Q-35.45 -176.75 -33.15 -170.2 L-33.0 -169.5 -32.0 -168.05 -31.5 -167.5 Q-32.9 -174.8 -31.75 -182.7 L-31.25 -184.25 -29.5 -185.0 -28.0 -183.5 Q-27.6 -182.4 -27.75 -181.25 L-27.75 -180.5 -26.95 -179.9 -26.25 -179.75 Q-26.0 -182.6 -27.45 -185.05 L-27.75 -185.75 Q-34.15 -186.3 -38.5 -189.75 L-39.05 -189.3 M-21.5 -167.25 Q-17.25 -168.15 -15.0 -166.0 -15.05 -164.05 -17.0 -163.0 L-18.25 -162.25 Q-19.4 -159.05 -21.55 -156.25 -23.1 -154.25 -25.0 -152.5 -19.15 -155.1 -15.45 -160.55 L-13.0 -164.5 -11.5 -164.75 Q-10.7 -163.4 -10.95 -161.75 L-11.0 -159.25 -10.5 -160.5 -9.75 -162.0 -10.0 -165.0 -10.0 -167.25 -13.3 -171.2 -14.0 -172.5 -15.0 -172.65 -15.75 -172.5 Q-19.0 -170.9 -21.0 -168.0 L-21.5 -167.25 M-142.25 -10.5 Q-141.8 -13.7 -142.65 -17.15 -142.95 -18.3 -141.75 -18.25 L-140.5 -17.75 Q-139.3 -8.5 -129.6 -4.8 L-128.75 -4.25 Q-128.35 0.7 -130.8 4.85 L-131.25 6.25 -131.8 6.95 -132.5 7.75 -134.5 7.75 Q-135.25 4.9 -135.35 1.75 L-135.5 1.0 Q-140.4 6.3 -141.45 13.4 L-141.75 17.25 -142.5 18.0 -143.75 18.0 Q-145.2 13.65 -145.25 9.0 L-145.25 6.75 -144.75 6.0 -144.25 5.25 Q-144.65 3.15 -143.65 1.4 L-143.5 0.75 Q-144.0 1.9 -145.05 2.65 L-146.0 3.25 -147.75 3.0 Q-149.45 -3.45 -144.5 -8.3 L-142.25 -10.5 M-142.75 -3.0 L-139.5 -3.0 -138.75 -2.25 Q-139.3 -1.05 -140.2 0.0 L-140.75 0.75 -140.75 1.5 -140.75 2.25 -141.25 3.0 -141.75 3.75 -141.75 5.25 -141.75 6.0 -142.1 6.7 -142.75 7.5 -142.75 9.75 -142.75 10.75 Q-141.5 6.3 -139.05 2.1 -138.05 0.35 -136.5 -1.0 L-136.3 -1.75 -136.25 -2.5 -135.0 -3.25 -133.0 -1.75 Q-132.6 -0.3 -132.75 1.25 L-133.0 3.25 Q-130.8 1.85 -131.05 -0.75 L-131.25 -2.25 Q-135.7 -6.6 -140.5 -8.75 -143.85 -6.4 -144.8 -2.75 L-145.0 -2.0 Q-144.25 -2.15 -143.6 -2.45 L-142.75 -3.0 M-119.35 43.95 L-119.0 43.25 -114.25 42.25 Q-115.5 38.45 -119.25 37.25 -120.8 38.45 -122.5 38.75 L-122.95 37.2 -123.0 36.5 Q-114.85 33.15 -110.75 41.75 L-110.75 43.25 -110.75 44.0 Q-112.35 46.75 -116.5 45.75 -115.65 48.25 -114.0 50.25 -113.75 53.95 -114.0 57.75 L-114.0 58.5 -115.0 60.0 -115.45 62.25 -115.5 63.0 -117.5 63.5 Q-117.9 62.4 -117.8 61.25 L-117.75 60.5 Q-118.75 59.5 -118.85 58.25 L-119.0 57.5 -122.75 53.75 Q-123.2 55.4 -123.05 57.25 L-123.0 58.0 Q-123.95 60.05 -126.0 60.75 L-127.0 60.25 Q-133.6 54.0 -129.85 47.1 -126.95 41.85 -129.05 36.45 -129.9 34.25 -127.75 33.75 -123.6 42.0 -129.65 49.55 L-130.0 50.25 Q-128.75 54.25 -126.0 57.75 -124.35 56.45 -124.95 53.2 L-125.0 52.5 -125.85 50.9 -126.0 50.25 -125.0 49.0 -123.5 49.25 Q-121.05 52.95 -117.5 56.0 -117.1 57.05 -117.15 58.25 L-117.0 59.0 Q-114.45 54.2 -118.1 48.4 L-118.25 47.75 -120.25 46.25 Q-120.05 45.05 -119.35 43.95 M-127.5 5.0 L-127.0 4.5 -126.75 4.35 -125.5 4.25 Q-124.65 10.05 -125.0 16.25 L-125.0 16.75 -124.05 15.7 -123.75 15.25 -121.5 15.25 Q-119.25 30.35 -136.0 29.75 L-138.0 31.0 Q-138.75 32.95 -140.5 33.25 -139.75 31.45 -139.25 29.5 -134.4 24.35 -126.5 24.7 -125.5 24.75 -124.5 24.0 L-124.1 22.45 -124.0 21.75 -123.0 20.25 -123.1 18.75 -123.25 18.0 Q-125.7 19.95 -126.25 23.0 L-127.25 24.5 -129.0 24.0 Q-129.4 22.55 -128.25 21.75 L-128.05 20.25 -128.0 19.5 -127.25 18.75 Q-126.85 16.15 -127.0 13.5 L-127.0 12.75 Q-130.55 15.45 -131.25 20.25 -132.8 21.3 -134.0 19.5 L-134.0 17.25 -134.0 16.5 Q-135.0 15.5 -135.0 14.25 -137.05 18.15 -136.3 23.25 L-136.25 24.0 Q-137.75 25.1 -137.75 23.25 -138.25 17.75 -136.75 12.75 L-135.5 11.5 -133.5 11.25 -133.1 12.75 -133.0 13.5 -132.05 15.0 -132.0 15.25 Q-130.95 13.3 -129.25 11.75 L-129.05 10.25 -129.0 9.5 -128.25 8.75 Q-127.85 7.65 -128.0 6.5 L-128.0 5.75 -127.5 5.0 M-160.0 7.55 L-157.5 8.0 -156.8 8.75 -156.25 9.5 -155.75 10.25 Q-143.9 16.8 -148.4 28.5 L-149.0 31.0 -149.6 31.65 -150.25 31.95 -151.5 32.25 Q-149.15 26.65 -150.25 21.05 -150.85 17.85 -153.25 15.75 -153.5 16.7 -153.15 17.85 -152.75 19.25 -152.75 20.75 L-153.15 21.35 -154.0 22.0 -155.25 21.5 Q-159.45 16.65 -165.25 12.45 L-166.25 11.75 -169.5 11.75 Q-167.4 14.0 -164.8 15.55 L-163.75 16.25 Q-163.2 18.55 -161.4 20.15 -160.4 21.0 -160.0 22.25 -159.25 22.6 -158.55 23.05 -158.15 23.35 -157.9 23.8 -157.75 24.1 -157.75 24.5 L-157.9 25.15 -158.5 26.0 -162.75 26.75 -162.6 27.4 -162.0 28.25 -161.25 29.0 -158.0 29.0 -157.0 28.75 -155.1 29.25 Q-154.25 29.6 -153.5 30.25 -154.9 31.3 -156.7 31.7 -157.4 31.85 -158.0 32.25 L-161.75 32.0 Q-164.45 29.75 -165.9 26.7 -166.4 25.65 -166.25 24.5 L-164.95 23.9 Q-163.75 23.5 -162.5 23.25 -167.85 15.9 -175.35 10.25 L-175.5 9.75 -174.95 9.1 -174.0 8.5 Q-164.1 8.15 -157.5 15.75 L-156.5 16.0 Q-158.3 13.2 -161.0 11.3 -162.45 10.3 -162.5 8.75 L-161.9 8.15 -161.05 7.65 -161.0 7.5 -160.0 7.55 M-154.25 47.25 Q-151.2 33.0 -137.5 36.25 -135.65 32.55 -131.95 29.8 L-131.75 29.75 Q-136.1 35.75 -134.0 42.5 L-133.75 43.25 Q-135.55 52.3 -143.0 58.0 L-145.0 57.0 -143.25 54.0 Q-142.7 51.9 -144.75 52.5 L-152.0 62.0 -153.25 61.5 -153.25 56.25 -153.25 54.75 -149.0 47.25 Q-148.75 46.2 -152.0 48.25 L-154.25 47.25 M-150.5 44.25 Q-147.1 42.5 -143.5 43.0 L-142.75 43.75 -148.4 51.3 -148.75 52.0 -143.3 47.45 -142.75 47.0 -142.0 46.85 -140.5 47.0 -139.9 47.8 Q-139.75 48.1 -139.75 48.5 L-139.9 49.15 -140.75 50.75 -140.75 51.5 -140.75 52.75 Q-138.15 50.2 -136.8 46.55 L-136.0 45.0 Q-136.0 44.6 -136.15 44.3 L-137.0 42.75 Q-137.45 41.3 -137.05 39.8 -136.7 38.6 -137.25 37.5 L-144.75 37.75 Q-148.35 39.7 -150.15 43.7 L-150.5 44.25 M-120.75 128.5 Q-120.5 130.8 -119.55 133.0 L-119.0 134.25 -119.0 134.35 -117.5 134.75 -116.75 135.5 -116.6 137.0 -116.5 138.5 -115.75 139.25 Q-115.8 149.65 -124.9 157.2 -128.7 160.3 -132.5 160.75 -124.2 151.8 -118.5 142.0 -119.8 142.05 -120.1 143.45 L-120.5 145.0 -120.9 145.55 Q-121.4 146.0 -122.0 146.25 L-123.25 145.75 -123.45 144.2 -123.5 142.75 -123.0 142.0 -122.5 141.25 -122.5 140.5 -122.5 139.75 -122.0 139.0 -121.5 138.25 -121.7 136.75 -122.25 135.25 Q-124.2 138.1 -125.35 143.75 L-125.5 145.25 -127.75 146.25 -128.5 145.45 -129.0 144.75 -129.2 143.2 -129.25 141.75 Q-130.15 144.85 -129.6 149.2 L-129.25 150.75 -129.45 151.2 -130.75 151.75 -131.5 150.95 -132.0 150.25 Q-132.45 146.15 -132.3 142.0 L-132.25 140.5 Q-130.3 137.65 -127.0 137.5 -125.05 133.55 -124.55 129.2 L-124.5 128.5 -123.95 128.1 -123.05 127.65 -123.0 127.5 -121.5 127.75 -120.75 128.5 M-106.75 147.25 Q-106.45 149.15 -108.5 149.5 -108.9 150.7 -109.75 151.75 L-109.75 152.5 -109.75 153.25 Q-110.75 154.2 -110.75 155.5 L-107.0 152.75 -104.5 153.0 -103.75 154.5 Q-105.6 157.6 -105.75 161.25 -104.05 159.3 -103.25 156.75 -101.5 155.35 -99.25 155.0 -104.4 149.85 -104.05 143.0 L-104.0 142.25 Q-103.85 140.4 -101.75 140.75 -103.1 147.7 -97.35 152.1 L-96.75 152.75 Q-96.15 157.5 -97.85 161.8 L-98.25 163.25 -100.0 163.25 -100.2 161.7 -100.25 161.0 -101.75 160.25 Q-104.85 165.2 -103.9 171.5 -103.75 172.25 -103.75 173.0 L-105.75 174.0 Q-108.7 166.9 -108.3 158.95 L-108.25 157.5 -107.5 156.75 Q-109.55 157.4 -110.0 159.75 L-111.0 160.25 -112.75 160.0 Q-115.0 151.3 -108.0 145.75 L-106.75 147.25 M-137.1 160.25 Q-135.6 161.15 -134.5 162.75 -135.0 163.1 -135.15 163.0 -138.0 160.65 -141.75 161.75 L-142.2 162.5 -142.75 164.0 -143.0 164.75 Q-143.85 166.3 -145.3 167.25 -149.15 169.75 -151.5 173.0 L-152.75 173.0 -153.1 172.2 -153.25 170.0 -153.25 168.5 -152.5 167.75 -152.3 166.95 -152.15 166.25 -151.75 165.5 Q-156.05 165.6 -159.75 168.25 -162.85 170.5 -165.25 169.25 -164.05 164.45 -160.15 160.8 -156.7 157.5 -152.0 156.0 L-152.75 155.25 -154.15 153.65 -154.5 153.0 -154.2 152.25 -153.7 151.85 -153.05 151.6 -153.0 151.5 Q-144.9 150.95 -139.15 156.35 L-138.75 157.0 -139.15 157.6 Q-139.5 158.0 -140.05 158.15 L-141.0 158.5 Q-138.9 159.1 -137.1 160.25 M-121.8 165.5 L-121.55 167.0 -121.5 167.75 -121.85 168.4 -122.5 169.25 -126.25 170.0 -127.65 172.15 Q-128.6 173.45 -130.0 174.5 -127.2 174.5 -122.0 172.5 L-120.5 172.75 -119.75 173.0 -119.6 172.45 -119.5 171.0 -119.5 169.5 Q-117.65 167.6 -115.5 166.05 -114.4 165.25 -113.0 164.75 L-111.95 165.65 -111.75 166.25 Q-112.4 167.85 -113.9 168.5 -115.4 169.2 -116.5 170.5 L-116.5 172.0 -116.5 173.5 -116.5 174.25 -117.95 176.4 Q-118.65 177.85 -118.75 179.45 L-121.85 181.6 -123.0 182.2 -124.15 181.55 -124.5 180.95 -123.6 179.45 -122.5 177.2 Q-126.55 176.8 -131.5 178.45 -132.95 179.3 -133.95 180.6 L-135.5 182.2 -136.75 182.2 -137.5 181.45 Q-135.0 175.0 -130.45 169.85 L-127.75 166.75 -127.0 166.45 -125.75 166.0 -126.75 165.2 -127.5 164.5 Q-127.55 163.05 -126.25 162.25 -124.4 161.1 -123.0 160.5 -120.65 160.05 -118.6 161.2 L-116.5 162.0 -116.0 162.8 -116.0 163.5 Q-116.3 165.1 -117.75 164.5 L-120.25 163.5 -121.0 163.55 -122.25 164.0 -121.8 165.5 M-149.0 155.0 L-147.85 156.55 -147.5 157.25 -147.9 158.65 -148.25 159.25 Q-155.3 159.05 -159.5 164.5 -155.2 163.4 -151.0 161.75 L-147.5 162.0 -146.9 162.8 Q-146.75 163.1 -146.75 163.5 -147.5 165.25 -149.25 166.5 -149.5 168.15 -146.5 165.75 -145.55 163.05 -143.85 160.8 -143.0 159.75 -141.75 159.0 -144.4 155.15 -149.15 154.85 L-149.0 155.0 M-83.0 156.0 L-82.5 156.0 -81.7 157.4 -81.0 158.25 Q-78.45 164.35 -81.25 170.25 L-81.5 171.0 Q-81.75 172.3 -80.0 173.25 -79.6 174.3 -79.75 175.5 L-79.75 176.25 Q-83.1 179.1 -87.25 180.95 -93.0 182.6 -99.0 182.95 L-103.75 188.2 Q-104.3 189.3 -104.45 190.45 L-104.75 191.2 Q-105.6 190.2 -105.3 187.45 L-105.25 186.7 Q-101.35 177.6 -91.0 178.0 L-87.0 177.45 -88.25 176.0 Q-81.4 169.8 -83.25 161.75 -87.7 168.85 -93.5 175.0 L-94.75 175.0 Q-96.0 172.7 -94.2 170.5 L-93.5 169.75 Q-98.2 173.1 -100.0 178.7 L-101.0 179.2 -103.0 177.95 Q-99.65 171.15 -93.75 166.0 L-91.5 166.0 -90.85 166.75 -90.75 167.0 Q-85.95 162.55 -84.0 156.25 L-83.75 156.05 -83.0 156.0 M-169.0 35.75 Q-165.5 35.7 -163.0 38.25 L-162.25 39.0 Q-162.95 40.95 -162.3 42.9 -161.55 44.95 -161.5 47.25 -164.1 49.35 -165.45 52.4 -166.1 53.9 -167.5 54.75 L-167.5 55.5 -167.5 56.25 -168.1 56.75 -169.75 57.25 -170.5 56.5 -170.5 55.0 -170.5 51.25 Q-176.8 51.85 -181.25 59.0 L-181.95 59.05 -184.25 58.25 Q-181.65 49.5 -175.15 42.8 -174.15 41.75 -172.75 41.0 L-174.0 40.25 -175.25 39.5 Q-174.35 35.9 -170.0 35.95 L-169.0 35.75 M-167.0 38.75 L-168.75 38.6 -169.0 38.75 -170.25 39.5 -169.0 40.25 -168.2 42.6 Q-167.9 43.25 -167.75 44.0 -170.2 46.2 -174.0 45.0 L-177.4 50.3 -177.75 51.0 Q-172.9 48.15 -167.5 46.75 L-166.75 47.5 Q-166.35 48.7 -167.3 49.9 L-167.75 51.0 Q-164.15 47.15 -165.1 42.55 -165.55 40.4 -167.0 38.75" fill="#c55c10" fill-rule="evenodd" stroke="none"/>
    <path d="M116.35 -140.6 Q116.2 -140.9 116.2 -141.25 L117.1 -142.35 Q117.45 -142.65 117.95 -142.75 121.7 -139.55 122.05 -134.7 L122.1 -135.0 Q122.3 -135.95 122.95 -136.0 L124.45 -135.75 124.4 -134.25 124.2 -133.5 Q124.65 -129.8 124.2 -126.0 L123.95 -124.5 123.4 -123.8 122.45 -123.0 121.2 -123.0 120.45 -123.75 120.8 -124.45 121.45 -125.25 121.45 -129.5 Q120.65 -127.5 118.2 -127.75 L117.45 -128.5 Q118.55 -131.7 118.3 -135.25 L118.2 -136.75 116.35 -140.6 M113.0 -137.05 L113.45 -136.25 113.25 -131.75 113.2 -131.0 111.2 -130.0 Q110.95 -133.55 109.6 -136.8 L109.45 -137.5 Q109.25 -139.15 110.95 -139.25 L111.45 -139.25 Q112.4 -138.3 113.0 -137.05 M106.95 -131.25 L105.45 -130.25 Q104.5 -131.65 105.5 -133.05 105.7 -133.4 106.2 -133.5 L106.85 -131.95 106.95 -131.25 M109.2 -131.5 Q109.85 -130.15 109.85 -128.5 L109.7 -127.75 108.45 -126.75 Q107.65 -128.85 108.6 -131.1 108.7 -131.4 109.2 -131.5 M115.05 -134.9 L115.45 -135.0 116.2 -134.25 116.2 -126.75 116.2 -126.0 Q115.45 -124.9 115.2 -123.75 L113.45 -122.75 112.7 -123.5 Q114.0 -128.2 113.75 -133.25 L113.7 -134.0 115.05 -134.9 M129.45 -139.0 L129.95 -138.25 Q129.95 -132.95 128.9 -127.8 L128.2 -126.25 126.95 -125.75 Q126.35 -126.0 125.85 -126.4 125.6 -126.65 125.45 -127.0 L125.5 -128.45 Q125.7 -129.25 126.2 -130.0 126.85 -134.95 124.7 -139.1 L124.2 -140.5 125.9 -141.6 125.95 -141.75 Q128.05 -140.9 129.45 -139.0 M47.25 -17.5 Q48.45 -16.1 46.85 -15.6 L45.5 -15.5 Q45.1 -17.2 47.0 -17.5 L47.25 -17.5 M49.35 -13.1 L48.5 -12.25 46.0 -13.0 Q45.55 -15.35 48.2 -15.5 L49.25 -15.25 Q50.15 -14.25 49.35 -13.1 M48.5 -12.0 L49.25 -11.25 Q47.0 -7.5 42.6 -9.95 L42.5 -10.25 46.95 -12.15 47.0 -12.25 48.5 -12.0 M42.0 -2.0 Q44.65 -5.35 49.0 -5.4 47.7 -5.7 46.75 -6.75 47.55 -9.0 50.75 -9.0 52.0 -12.4 55.5 -13.0 L56.2 -12.25 Q54.55 -9.05 52.2 -6.3 L51.9 -5.9 52.0 -6.0 53.0 -6.2 53.5 -6.25 54.25 -5.5 Q54.55 -4.4 53.8 -3.2 L53.5 -2.5 Q51.6 -1.1 48.95 -0.7 L50.0 0.0 54.75 -0.25 Q57.6 -3.35 61.0 -4.7 L61.45 -4.75 61.95 -4.0 62.45 -3.25 Q60.05 0.45 56.25 3.25 L56.0 3.5 47.75 3.25 Q46.9 2.2 46.55 0.95 L46.5 0.25 47.3 -0.55 44.0 -0.75 42.0 -2.0 M51.75 -5.7 L50.3 -5.35 51.25 -5.25 51.75 -5.7 M203.45 -168.75 L202.95 -168.45 201.45 -168.5 Q199.5 -169.7 198.95 -171.25 L199.45 -171.25 Q201.1 -169.95 203.1 -169.2 L203.45 -168.75 M194.2 -174.25 Q194.25 -172.85 194.65 -171.55 L195.0 -171.7 195.45 -171.75 196.0 -170.45 196.45 -171.6 Q196.6 -171.9 196.95 -172.0 L198.2 -171.5 Q198.2 -170.25 198.6 -169.2 L198.7 -168.5 197.3 -168.35 Q198.25 -167.15 198.7 -165.75 195.35 -165.4 194.3 -167.2 192.45 -167.9 191.45 -169.75 L191.45 -172.0 191.45 -172.75 192.7 -174.25 193.95 -174.25 194.2 -174.25 M180.2 -166.5 Q181.05 -162.85 181.0 -159.0 L180.95 -158.25 Q185.05 -154.75 189.45 -152.0 188.9 -150.35 186.95 -150.0 174.4 -153.15 177.4 -165.5 L177.45 -166.25 179.0 -167.15 179.45 -167.25 180.2 -166.5 M194.7 -163.5 Q196.65 -162.55 199.2 -162.5 199.45 -161.4 198.5 -160.2 L198.2 -159.75 Q195.55 -158.35 192.7 -159.75 L191.65 -161.6 Q191.25 -160.4 189.95 -160.25 L188.7 -160.75 Q185.8 -164.45 186.2 -169.0 L186.2 -169.75 Q187.1 -171.3 188.55 -172.1 L189.2 -172.25 Q189.75 -169.7 189.7 -167.0 L189.7 -166.7 189.95 -167.0 190.2 -167.25 190.95 -167.25 191.45 -167.25 194.15 -164.2 194.7 -163.5 M186.75 -161.25 L186.7 -160.5 Q189.85 -157.75 193.7 -155.75 194.3 -154.5 193.2 -153.5 L192.7 -153.0 Q187.2 -153.55 183.2 -158.0 183.0 -160.2 183.3 -162.5 L183.45 -163.25 185.0 -164.15 185.45 -164.25 Q186.85 -163.1 186.75 -161.25 M229.95 67.25 L230.45 67.25 233.4 68.35 234.45 69.0 233.45 69.75 230.2 69.75 230.95 70.5 Q231.3 71.7 229.9 72.65 L228.95 73.25 227.5 73.05 Q231.0 75.85 235.45 76.05 236.1 76.1 236.7 76.5 234.25 79.05 231.1 78.45 L231.15 78.55 231.45 79.25 Q227.4 80.9 224.75 80.05 L225.2 80.5 225.4 81.25 225.45 82.0 Q230.05 85.2 235.45 81.75 L236.2 82.5 Q235.2 87.5 228.95 87.75 223.75 87.25 222.6 82.45 222.3 81.3 222.7 80.25 L224.0 79.8 224.15 79.8 Q221.75 78.6 220.7 75.0 L221.3 74.4 221.95 74.25 222.45 74.25 Q223.9 76.25 226.3 76.9 L228.3 77.4 226.2 76.0 225.9 74.45 225.95 73.25 Q226.1 73.1 226.25 73.05 L226.95 73.0 227.2 73.0 226.05 70.7 225.45 69.25 227.0 68.35 227.45 68.25 228.6 69.2 230.2 69.75 229.5 68.95 228.95 68.25 229.15 67.65 229.95 67.25 M220.2 82.5 Q224.0 88.0 230.45 88.35 230.85 88.35 231.2 88.75 225.4 94.95 219.9 87.55 L219.2 86.75 218.9 85.25 218.45 83.75 219.05 83.1 Q219.45 82.75 220.0 82.5 L220.2 82.5 M163.0 160.6 L160.2 159.75 Q156.65 161.8 153.75 164.8 L151.95 166.25 150.85 165.55 150.45 165.0 Q152.8 161.85 155.75 159.05 L151.95 160.0 Q151.2 160.75 150.9 161.65 L149.45 163.75 149.45 164.45 Q149.25 166.1 148.2 167.5 145.25 165.3 147.2 161.5 148.55 158.9 150.95 157.0 L151.9 156.65 151.95 156.5 Q155.1 155.65 156.95 157.95 L157.95 157.0 158.25 156.8 158.95 156.6 158.95 156.5 Q161.9 156.4 164.1 158.35 L164.45 159.0 164.1 159.65 163.2 160.5 163.0 160.6 M162.35 166.4 L162.75 166.7 163.2 166.55 163.95 166.25 166.15 166.9 166.45 167.25 Q163.85 168.3 162.3 169.8 161.95 170.1 161.45 170.25 L161.3 169.45 161.2 168.5 160.65 169.95 160.2 170.75 160.05 173.0 159.7 174.5 159.35 175.05 158.45 175.5 Q157.8 173.65 157.75 171.75 L157.7 169.5 159.3 167.3 158.45 167.5 158.45 166.85 158.55 166.7 156.95 168.3 Q154.7 170.35 155.7 173.0 154.3 173.85 152.7 172.5 152.3 171.0 152.45 169.45 L152.45 168.75 154.45 164.95 154.7 164.25 160.2 160.25 160.95 160.25 161.45 160.25 Q161.4 162.35 160.2 164.45 L160.9 164.15 160.95 164.0 164.45 164.25 165.45 165.0 Q163.6 165.65 162.05 166.25 L162.35 166.4 M164.2 169.5 L164.25 170.15 163.7 171.0 163.7 172.0 163.9 171.9 163.95 171.75 165.45 172.0 166.2 172.75 164.85 174.1 163.95 174.75 163.25 173.85 162.45 174.25 Q162.05 172.0 162.55 169.8 162.6 169.5 162.95 169.25 L164.2 169.5 M83.6 40.0 L83.45 40.75 Q81.35 43.15 77.2 42.25 74.0 44.15 72.25 47.35 L71.45 48.25 Q69.65 49.0 68.7 47.25 71.0 43.8 74.0 40.5 L75.95 38.5 82.45 37.75 Q83.5 38.6 83.6 40.0 M86.4 46.35 L87.45 47.0 Q83.5 48.6 80.6 51.55 81.75 50.75 83.45 50.75 L84.2 50.75 Q84.65 52.15 83.85 53.35 L83.95 53.25 84.25 53.05 84.95 52.85 84.95 52.75 86.5 52.9 87.95 53.0 88.7 53.75 88.55 54.4 87.45 56.0 86.25 55.85 85.2 55.5 83.85 56.45 82.45 56.75 82.75 55.25 Q82.85 54.65 83.2 54.15 L81.2 55.45 Q80.6 55.75 80.0 56.25 79.35 56.85 78.45 57.25 79.55 55.8 78.7 54.25 L79.2 53.15 78.8 53.6 77.95 54.25 Q77.2 54.0 76.55 53.6 L75.95 53.0 Q78.2 49.85 81.25 47.3 82.75 46.05 83.95 45.5 L86.4 46.35 M84.5 58.75 L83.95 59.25 Q82.5 57.75 84.55 56.65 L85.2 56.5 Q85.65 57.7 84.5 58.75 M90.15 57.8 L90.45 58.25 86.45 58.5 86.45 57.85 86.95 57.25 90.15 57.8 M80.45 44.0 L81.2 44.75 Q75.9 50.25 71.25 56.75 L70.7 57.5 69.45 57.75 Q70.4 50.45 77.05 45.05 L78.95 43.75 80.45 44.0 M-36.25 -163.25 L-36.65 -162.6 -38.0 -161.25 Q-40.05 -162.65 -42.4 -163.0 L-49.0 -163.25 -50.25 -163.75 -50.65 -164.55 Q-51.1 -166.15 -50.05 -167.0 L-49.0 -167.75 Q-41.25 -169.7 -36.8 -164.0 L-36.25 -163.25 M-36.5 -150.0 L-37.5 -149.75 Q-38.25 -151.2 -38.55 -152.8 -38.9 -154.4 -39.75 -155.75 L-41.6 -156.45 -41.5 -156.25 -41.85 -155.55 -42.5 -154.75 -44.2 -154.75 Q-41.05 -152.45 -42.05 -148.55 L-42.5 -147.75 -43.75 -147.75 -44.5 -148.5 Q-44.7 -150.2 -45.9 -151.4 L-46.35 -151.85 -47.1 -151.7 -45.75 -150.5 -45.0 -149.75 -44.7 -148.25 -44.25 -146.75 Q-48.4 -147.35 -49.35 -152.0 L-50.75 -152.5 -51.3 -152.1 -52.0 -151.75 Q-52.75 -152.0 -53.4 -152.4 L-54.0 -153.0 -53.7 -153.7 -52.65 -154.9 -52.0 -155.25 Q-49.7 -155.45 -48.05 -154.3 L-48.1 -154.5 -48.0 -155.75 -47.75 -155.9 -47.0 -156.0 -46.5 -156.0 -45.55 -155.55 -46.0 -156.0 -49.0 -156.3 -51.75 -156.0 -52.35 -156.85 -52.5 -157.5 -51.75 -158.65 Q-50.35 -159.75 -49.0 -159.75 L-46.7 -159.8 -46.0 -161.0 -45.05 -161.6 -45.0 -161.75 Q-32.95 -160.9 -36.25 -150.75 L-36.5 -150.0 M-52.0 -151.0 L-49.6 -150.5 -49.0 -150.0 Q-51.0 -147.55 -52.4 -150.3 -52.7 -150.95 -52.0 -151.0 M-53.8 -144.6 L-54.5 -144.5 Q-54.85 -146.35 -52.85 -147.45 L-51.75 -147.5 Q-51.45 -145.4 -53.8 -144.6 M-138.85 -124.45 L-138.5 -123.75 -145.0 -119.0 -145.55 -117.9 -145.05 -118.1 -145.0 -118.25 -143.6 -117.6 -143.0 -117.0 Q-144.4 -115.3 -145.2 -113.35 L-145.75 -112.5 -145.6 -111.05 -145.0 -109.5 Q-144.85 -108.4 -145.25 -107.25 L-145.75 -105.75 -146.55 -106.65 -147.0 -108.0 -147.55 -108.75 -148.25 -109.5 -148.25 -111.75 -148.25 -113.25 -148.05 -113.6 -149.0 -113.25 -149.95 -113.85 -150.5 -114.5 Q-150.55 -116.15 -149.45 -117.45 L-148.75 -118.25 -148.65 -119.0 -148.75 -120.5 Q-145.5 -124.1 -141.05 -125.35 L-141.0 -125.5 -139.5 -125.25 -138.85 -124.45 M-146.5 -131.25 L-145.75 -130.5 -155.9 -116.2 -156.25 -115.5 -155.6 -111.7 Q-155.5 -111.4 -155.75 -111.0 L-156.1 -110.65 Q-156.5 -110.4 -157.0 -110.25 L-158.25 -110.75 Q-161.65 -120.45 -152.85 -127.95 -150.0 -130.4 -146.5 -131.25 M-149.95 -118.35 L-150.5 -117.5 Q-153.8 -112.0 -151.2 -106.3 L-150.75 -105.5 Q-151.2 -104.0 -150.85 -102.5 L-150.75 -101.75 -152.5 -102.25 Q-157.75 -110.15 -153.65 -118.85 L-153.5 -119.5 -152.0 -121.0 -151.0 -121.2 -150.5 -121.25 -149.85 -120.45 -149.5 -119.75 Q-149.65 -119.0 -149.95 -118.35 M-145.0 -112.0 Q-144.8 -116.3 -140.05 -118.05 L-139.0 -118.5 Q-137.0 -118.8 -136.0 -117.1 L-136.0 -116.5 Q-138.75 -115.55 -140.9 -113.8 L-140.6 -113.6 -140.0 -113.0 -141.6 -111.35 -141.75 -110.75 Q-141.9 -110.0 -142.3 -109.5 L-143.5 -108.5 Q-144.4 -109.45 -144.3 -110.75 L-144.25 -111.5 -144.45 -111.55 -145.0 -112.0 M-138.25 -112.25 L-138.75 -111.5 -139.6 -112.35 -139.75 -113.0 -138.4 -114.35 -137.75 -114.5 Q-137.45 -113.4 -138.25 -112.25 M-83.75 127.75 Q-83.05 128.95 -83.85 130.1 L-84.0 130.75 -82.9 132.8 -82.85 131.45 Q-82.75 130.85 -82.35 130.7 L-82.3 129.95 -82.25 129.25 -80.95 128.35 -80.5 128.25 Q-79.4 129.9 -79.6 132.0 L-79.5 132.75 -79.95 133.0 Q-79.3 133.55 -79.0 134.5 L-80.0 135.75 Q-81.65 135.05 -82.75 133.75 L-82.85 133.15 -84.0 134.25 -84.5 134.2 -84.25 134.7 -84.0 135.25 Q-81.0 135.25 -78.5 137.0 -81.2 139.2 -84.75 138.0 L-86.25 136.5 -87.0 137.25 -88.1 137.1 -86.75 139.2 -86.0 140.0 Q-80.1 138.9 -79.0 142.5 -82.05 144.95 -86.75 143.25 L-90.0 140.0 -89.5 141.0 -90.4 142.1 -91.0 142.5 -92.55 142.3 -92.45 142.95 -92.25 143.75 Q-90.55 144.35 -89.0 145.5 L-86.75 145.75 Q-86.15 145.25 -85.45 144.9 L-84.75 144.75 -84.7 146.2 -84.5 147.0 -85.75 149.25 Q-91.5 150.15 -95.25 144.75 -95.7 143.25 -95.45 141.75 L-95.25 141.0 -94.25 140.3 -94.5 140.0 Q-95.1 136.65 -95.3 133.35 -96.85 137.5 -97.0 142.25 L-97.0 143.0 Q-95.6 145.15 -94.55 147.5 L-94.25 148.25 -95.15 149.3 -96.0 149.75 Q-99.2 148.05 -101.0 144.75 -101.9 138.2 -98.65 132.8 L-98.0 132.0 -97.0 131.75 -96.5 131.75 -95.8 132.5 -95.3 133.2 -95.4 130.25 -95.25 129.5 -94.7 129.15 -93.5 129.0 -92.5 129.75 Q-91.25 133.7 -91.25 138.0 L-91.25 138.75 -90.45 139.4 -90.3 137.95 -90.25 137.25 -89.1 136.45 Q-90.5 134.3 -90.3 131.75 L-90.25 131.0 Q-89.45 128.3 -87.0 127.75 L-86.75 127.75 -86.9 129.25 -86.75 130.0 -87.75 131.5 -87.7 132.95 -87.5 133.75 -86.65 134.7 Q-86.7 133.75 -86.35 132.9 L-86.3 132.8 Q-86.5 131.9 -86.15 130.95 -86.0 130.6 -86.0 130.25 -85.45 128.75 -84.0 127.8 L-83.75 127.75 M-173.5 14.0 Q-169.0 19.85 -170.2 27.5 L-170.25 28.25 Q-171.1 29.25 -171.4 30.5 L-171.5 31.25 -173.0 32.5 Q-174.95 32.85 -176.05 31.55 -176.95 34.6 -179.0 37.3 L-179.5 37.5 -180.25 35.95 -180.5 35.25 -180.35 34.55 -179.75 33.75 -179.55 32.25 -179.5 31.5 -178.75 30.75 -178.35 25.3 -178.75 25.75 -178.75 26.5 -178.75 27.25 -179.5 28.0 -180.65 28.0 Q-180.7 30.5 -181.75 33.0 L-182.0 33.75 Q-183.2 35.5 -185.0 36.5 -185.8 35.6 -185.25 33.75 -182.8 28.65 -182.4 22.75 -182.4 22.3 -181.75 22.5 L-181.2 24.0 Q-179.85 18.45 -182.0 12.8 L-181.5 12.5 Q-180.5 13.1 -179.55 13.8 L-178.75 14.5 Q-177.6 18.0 -177.5 21.85 L-176.5 21.75 -175.75 22.5 Q-174.95 26.4 -175.65 29.9 -175.15 29.35 -174.25 29.0 -172.65 21.95 -175.5 15.4 L-175.5 14.75 Q-175.15 14.35 -174.7 14.2 L-173.5 14.0 M-192.75 17.75 Q-192.0 19.65 -191.6 21.5 L-191.5 22.25 Q-191.9 23.85 -192.35 22.95 L-192.75 23.75 -193.3 25.95 -193.75 27.5 Q-195.25 27.25 -195.1 25.25 L-195.0 23.75 -194.7 23.55 Q-196.1 22.35 -195.25 20.9 L-194.75 20.75 -193.75 22.25 -193.6 22.45 -193.35 21.9 -193.05 21.35 -193.75 18.75 -192.95 17.8 -192.75 17.75 M-198.0 23.5 L-195.8 23.95 -195.5 24.25 Q-197.85 25.45 -198.25 23.7 L-198.0 23.5 M-184.55 18.0 L-183.75 18.75 Q-183.6 21.8 -184.0 24.75 L-184.25 26.25 -185.0 26.5 -185.6 26.4 -185.65 26.55 -185.75 27.25 -187.0 28.75 -187.05 29.45 -187.25 30.25 -189.5 30.25 Q-189.4 26.75 -187.0 24.25 -187.15 22.65 -186.35 21.55 L-186.25 21.45 -186.25 21.0 -187.45 18.7 -187.75 18.0 -186.95 17.45 -185.5 17.25 -184.55 18.0 M-192.2 15.4 Q-192.95 14.5 -191.75 14.75 L-190.75 15.45 -189.5 16.25 -188.75 17.75 -188.0 19.25 -188.45 22.95 -188.75 24.5 -188.75 25.0 Q-189.55 27.05 -191.0 28.75 L-193.25 28.25 -191.4 23.7 Q-191.25 23.35 -191.25 23.0 L-190.1 22.2 -190.45 20.0 Q-190.5 19.25 -191.0 18.5 -191.0 16.8 -192.2 15.4" fill="#9a523a" fill-rule="evenodd" stroke="none"/>
    <path d="M126.2 -156.25 Q125.7 -154.3 123.45 -153.25 L121.2 -153.25 118.95 -155.5 118.95 -157.0 118.95 -157.75 120.05 -158.65 120.45 -158.75 121.45 -158.0 121.1 -157.2 120.95 -156.5 122.7 -155.25 126.2 -156.25 M125.45 -161.0 L126.35 -158.85 Q126.55 -157.65 126.2 -156.5 123.95 -158.3 121.7 -160.75 L120.45 -161.5 120.45 -162.15 120.9 -162.6 120.95 -162.75 124.4 -161.6 125.45 -161.0 M155.75 -147.35 L156.1 -147.2 156.45 -146.75 156.2 -146.5 Q157.3 -144.3 157.0 -141.75 L156.95 -141.0 155.2 -140.25 154.45 -141.0 Q155.25 -141.95 155.05 -143.25 L154.95 -144.0 Q154.4 -144.8 154.15 -145.65 153.4 -144.4 153.9 -142.8 154.4 -141.25 154.2 -139.75 L153.5 -140.55 152.2 -142.0 152.2 -144.25 Q152.2 -145.4 152.7 -146.5 L153.3 -147.2 153.95 -147.75 154.7 -147.65 155.45 -147.75 155.75 -147.35 M156.45 -137.15 Q156.85 -137.9 157.5 -138.45 L157.95 -138.75 161.15 -138.2 161.45 -137.75 Q159.7 -137.0 157.9 -136.55 L156.45 -136.5 156.45 -137.15 M155.6 -137.1 L156.2 -137.25 156.65 -135.75 156.7 -135.0 157.7 -134.25 161.2 -135.0 161.75 -136.35 162.2 -136.5 Q163.0 -135.55 162.7 -134.25 L161.7 -132.75 Q158.5 -131.6 155.45 -133.5 155.05 -134.95 155.3 -136.5 L155.6 -137.1 M69.95 -1.75 L71.2 -1.25 70.8 0.25 70.7 1.0 71.5 2.45 71.95 3.25 72.1 3.45 Q72.25 1.55 71.6 -0.75 L71.2 -1.5 Q71.5 -2.7 71.15 -3.75 L70.7 -4.5 Q70.6 -4.75 70.65 -4.95 L71.0 -5.25 71.2 -5.25 72.2 -4.5 Q73.45 -1.2 73.7 2.25 L73.7 3.0 71.95 4.25 72.0 3.95 71.45 4.25 Q70.05 3.4 69.2 2.0 69.2 0.5 69.5 -0.95 69.65 -1.55 69.95 -1.75 M161.45 -93.75 L161.6 -94.0 162.95 -96.0 162.95 -95.5 163.5 -94.7 163.95 -94.0 162.2 -93.25 161.75 -93.8 161.45 -93.75 M261.2 -197.5 Q264.3 -193.15 261.5 -188.6 L260.7 -187.75 258.45 -187.75 259.2 -188.5 258.45 -188.5 Q258.25 -189.9 257.2 -190.75 257.15 -193.8 258.75 -196.35 L259.2 -196.5 Q260.2 -194.65 258.9 -192.65 L258.7 -192.0 260.0 -189.5 Q260.15 -191.0 260.8 -192.35 L260.95 -193.0 259.95 -194.5 260.5 -197.2 Q260.6 -197.7 261.2 -197.5 M255.2 -193.5 Q255.9 -191.75 255.95 -189.75 L255.95 -189.0 Q255.1 -188.0 254.8 -186.75 L254.7 -186.25 252.7 -186.45 252.35 -185.9 Q251.95 -185.65 251.45 -185.5 249.6 -190.35 253.5 -193.45 L253.95 -193.75 255.0 -193.35 255.05 -193.45 255.2 -193.5 M257.45 -186.0 Q257.5 -186.45 258.2 -186.25 258.95 -184.45 258.85 -182.5 L258.95 -181.75 257.2 -178.75 Q255.15 -178.2 253.7 -176.75 L252.45 -176.5 254.5 -178.6 253.45 -178.5 Q253.05 -179.95 253.15 -181.5 L253.2 -183.0 Q254.65 -184.9 256.6 -186.3 256.85 -186.5 257.2 -186.5 L257.45 -186.0 M253.4 -190.3 L252.95 -189.5 252.9 -187.8 254.45 -192.0 253.95 -191.75 253.4 -190.3 M257.15 -184.4 L255.8 -183.55 254.95 -183.0 Q254.55 -181.9 254.8 -180.75 L255.15 -179.5 Q256.55 -181.7 257.15 -184.4 M199.7 -155.4 L200.2 -155.5 Q203.3 -151.35 200.75 -146.5 L200.45 -145.75 199.7 -145.0 198.7 -145.5 Q199.4 -146.25 199.3 -147.15 L198.45 -146.75 Q197.9 -150.35 198.45 -154.0 198.5 -154.45 199.2 -154.25 L199.85 -150.4 Q200.55 -152.85 199.7 -155.4 M197.2 -147.25 Q196.4 -143.3 193.05 -140.7 L192.45 -140.5 Q193.6 -144.15 196.65 -147.05 196.85 -147.25 197.2 -147.25 M194.45 -147.75 Q194.0 -144.9 191.8 -141.7 L191.45 -141.0 190.45 -140.75 Q189.2 -144.1 192.2 -146.8 L192.95 -147.5 193.95 -147.7 194.45 -147.75 M212.45 -52.75 L213.1 -51.2 213.2 -50.55 215.7 -53.3 216.95 -54.5 217.25 -54.65 217.95 -54.75 218.45 -54.75 219.45 -54.0 220.2 -53.25 Q217.95 -52.3 215.8 -50.2 L215.2 -49.5 215.1 -48.8 215.45 -48.75 215.9 -48.0 215.95 -47.5 217.95 -47.5 Q219.15 -48.5 219.95 -49.75 219.5 -51.65 221.0 -52.2 L221.2 -52.25 Q222.25 -50.95 221.9 -49.25 L221.7 -48.5 Q220.75 -47.05 219.4 -45.95 L221.45 -45.6 223.2 -45.0 Q224.35 -43.35 224.1 -41.25 L223.95 -38.25 223.6 -37.7 Q223.1 -37.4 222.45 -37.25 221.95 -38.05 221.9 -38.95 L220.2 -38.25 217.65 -40.8 Q218.55 -38.25 218.05 -35.25 L217.95 -34.5 217.6 -33.65 218.95 -32.5 217.95 -31.25 214.2 -32.0 211.95 -34.25 Q211.55 -36.45 211.65 -38.75 L211.7 -40.25 213.7 -42.55 214.2 -43.0 214.95 -43.0 215.45 -43.0 215.7 -42.75 215.65 -43.3 Q215.6 -43.7 216.2 -43.5 L217.0 -42.3 Q216.9 -43.25 217.4 -44.15 L217.95 -44.75 218.7 -44.55 Q218.5 -44.9 218.55 -45.35 L217.95 -45.0 214.45 -45.25 213.95 -46.1 Q213.4 -44.5 211.7 -43.25 L209.2 -43.25 208.55 -43.9 207.2 -43.25 Q206.6 -44.0 206.15 -44.85 L205.95 -45.5 Q206.95 -48.4 209.25 -50.75 L209.95 -51.5 210.85 -51.65 210.95 -52.25 212.0 -52.7 212.45 -52.75 M214.2 -39.25 L214.2 -37.0 214.2 -35.5 216.0 -34.65 215.8 -41.25 214.8 -39.95 214.2 -39.25 M221.7 -43.25 Q220.25 -43.35 219.45 -43.75 219.1 -41.3 221.85 -39.6 L221.9 -40.25 Q222.15 -41.8 221.7 -43.25 M210.7 -45.5 L211.7 -47.75 Q211.15 -48.65 210.9 -49.6 210.25 -48.05 208.75 -46.45 L208.2 -45.75 209.1 -44.4 210.7 -45.5 M213.8 69.6 L214.2 69.5 Q216.1 74.65 210.5 75.8 L210.15 75.9 209.95 76.25 209.75 76.0 208.95 76.25 Q209.0 75.75 209.35 75.35 208.95 74.5 209.1 73.45 L209.2 72.0 Q210.05 70.7 211.25 69.75 L211.95 69.25 213.1 69.7 213.45 70.25 Q212.15 71.0 210.95 72.0 L210.5 74.4 Q211.1 74.05 211.95 73.75 L213.8 69.6 M207.45 132.25 L207.3 133.7 206.95 134.5 Q207.2 136.95 206.75 139.35 208.05 137.35 209.95 136.0 L208.7 131.55 209.2 131.5 210.45 132.25 211.45 133.0 Q212.0 134.05 211.95 135.25 L211.95 136.75 Q209.7 139.8 206.65 139.75 L206.45 140.45 206.2 141.25 Q204.25 138.85 204.9 134.45 L204.95 133.75 205.5 133.0 205.95 132.5 206.25 132.3 206.95 132.25 207.45 132.25 M238.95 129.5 L241.5 131.15 241.95 130.75 241.9 130.0 241.7 128.5 238.85 125.35 Q239.2 126.95 239.0 128.75 L238.95 129.5 M240.45 124.25 Q242.25 125.45 243.45 127.25 L243.95 128.0 243.95 129.5 243.95 131.0 242.9 131.95 243.45 132.25 Q239.65 133.8 236.95 130.5 L236.95 126.0 236.95 125.25 Q237.45 124.75 238.05 124.35 L238.45 124.25 238.6 124.65 240.0 124.3 240.45 124.25 M165.95 117.0 L167.45 117.25 168.65 118.8 168.95 119.5 Q168.55 121.4 166.95 120.2 L165.95 119.5 Q164.05 119.65 163.35 121.7 L163.2 121.95 169.2 121.75 Q168.5 124.1 165.75 124.75 L164.95 125.0 Q160.95 124.8 160.35 120.9 160.2 119.85 161.45 120.25 L162.1 120.8 161.95 120.25 Q162.6 118.0 165.2 117.2 L165.95 117.0 M197.1 172.75 Q197.35 172.85 197.45 173.25 L196.95 173.7 197.2 173.75 197.9 178.25 197.95 178.95 Q196.95 180.45 194.95 180.7 L192.45 179.7 Q194.85 179.45 195.95 177.45 196.5 175.75 196.5 174.0 L196.5 173.95 196.35 174.0 195.2 174.25 194.4 175.65 193.7 176.5 193.55 177.9 192.95 179.2 Q191.8 177.75 192.6 175.9 193.1 174.75 192.95 173.5 193.6 172.85 194.3 172.35 194.6 172.1 194.95 172.0 196.1 172.25 197.1 172.75 M78.2 9.5 Q76.95 8.3 77.75 6.9 77.85 6.75 78.2 6.75 L79.2 8.25 79.7 9.0 Q80.35 12.7 77.7 15.0 L76.3 15.15 77.45 16.25 75.45 16.25 Q72.95 11.95 75.75 7.65 75.85 7.5 76.2 7.5 76.4 10.25 75.8 13.5 L75.7 14.25 75.95 14.7 76.05 14.6 Q76.45 14.25 76.95 14.0 78.3 12.3 78.25 10.25 L78.2 9.5 M33.45 26.35 L34.25 26.5 Q35.05 28.2 34.8 30.25 L34.75 31.0 Q33.65 32.65 32.0 33.75 30.6 34.35 30.0 34.15 L30.0 34.25 30.55 35.05 30.5 35.5 28.5 35.75 Q27.65 33.65 27.9 31.25 L28.0 29.75 Q29.55 27.7 31.45 25.95 L32.0 25.5 32.25 25.3 33.0 25.25 33.5 25.25 33.45 26.35 M33.25 28.25 L32.85 27.85 30.8 29.8 30.0 30.5 30.0 32.75 30.0 33.2 Q31.55 32.15 33.25 30.5 L33.25 29.0 33.25 28.25 M28.65 43.25 L28.75 44.0 Q30.25 45.9 32.5 47.0 30.6 48.0 28.5 46.5 27.0 44.9 27.2 42.75 27.25 41.7 28.25 41.75 L28.65 43.25 M28.5 39.5 Q28.35 39.1 28.5 38.85 L28.9 38.4 29.0 38.25 Q31.55 38.7 33.2 40.75 L33.75 41.5 Q34.3 43.0 34.05 44.55 L33.5 46.5 31.65 45.9 31.75 45.5 31.85 44.0 31.75 42.5 29.8 40.4 28.5 39.5 M30.0 121.25 L31.25 121.5 31.65 123.0 31.75 123.75 32.75 124.5 Q34.05 129.35 29.75 132.0 L27.5 132.25 29.25 130.7 Q26.85 130.8 25.0 128.75 24.3 126.45 25.2 124.2 L25.75 122.75 Q27.1 120.9 29.5 121.0 L29.85 121.35 30.0 121.25 M29.55 122.8 Q28.4 124.5 27.4 126.3 27.25 126.6 27.25 127.0 L29.9 129.8 Q31.75 126.8 29.55 122.85 L29.55 122.8 M38.1 114.6 Q39.1 115.9 39.25 117.5 L39.1 118.15 38.5 119.0 37.45 119.15 36.5 119.25 36.45 117.8 Q36.0 115.8 34.75 114.25 32.85 113.6 31.6 112.35 31.3 112.05 32.0 112.0 L35.5 112.25 Q36.95 113.2 38.1 114.6 M32.25 113.5 Q33.45 116.0 35.5 117.95 L36.5 118.75 34.25 119.75 32.0 117.5 Q31.4 115.65 31.7 113.8 31.75 113.6 32.25 113.5 M-221.5 -192.75 Q-221.1 -189.7 -217.8 -189.15 L-217.5 -189.0 Q-215.9 -189.9 -215.5 -188.5 -217.55 -186.1 -221.75 -188.25 L-223.0 -189.75 -222.95 -192.0 Q-222.9 -193.0 -222.0 -192.8 L-221.5 -192.75 M-222.5 -194.5 L-222.5 -195.15 -222.05 -195.6 -222.0 -195.75 -219.75 -195.5 -217.3 -193.2 -216.25 -191.75 -216.3 -191.0 -216.6 -190.3 -217.0 -189.75 Q-217.85 -190.55 -218.3 -191.65 -218.85 -193.0 -220.0 -194.0 L-222.5 -194.5 M-215.5 -186.25 L-215.1 -186.3 -215.2 -186.0 -215.5 -186.25 M-220.0 -181.25 Q-223.45 -184.05 -223.25 -187.0 L-223.0 -187.5 -221.75 -187.25 -218.5 -182.75 -218.0 -182.0 Q-218.0 -180.5 -218.45 -179.05 L-218.7 -178.3 -218.0 -178.0 Q-216.8 -176.55 -218.5 -176.5 -222.3 -177.35 -224.75 -180.25 -225.2 -182.1 -225.05 -184.0 L-225.0 -184.75 -223.95 -185.65 -223.5 -185.75 Q-222.7 -184.4 -222.95 -182.75 L-223.0 -182.0 Q-221.7 -180.0 -219.75 -178.8 L-219.95 -179.75 -220.0 -181.25 M-227.45 -192.45 L-227.0 -192.0 -227.25 -191.5 -227.25 -191.0 -227.25 -190.25 -226.25 -188.75 Q-227.9 -185.3 -232.5 -185.75 L-232.4 -185.85 -232.45 -185.85 -232.75 -186.25 Q-233.1 -187.8 -232.25 -189.35 L-231.75 -190.75 -229.65 -192.65 -229.0 -193.0 -228.3 -192.85 -228.2 -193.1 -227.75 -193.25 -227.45 -192.45 M-229.75 -189.75 L-230.2 -187.6 -228.25 -188.25 -228.75 -189.75 -228.75 -190.15 -229.75 -189.75 M-21.1 -107.25 L-20.0 -107.75 Q-14.85 -106.0 -14.3 -100.75 L-14.25 -100.0 Q-16.1 -100.65 -17.8 -104.4 L-18.75 -105.75 -22.5 -105.75 Q-22.4 -106.75 -21.1 -107.25 M-23.75 -109.25 L-23.6 -108.25 -22.85 -108.05 -22.5 -107.75 -23.5 -107.65 -23.4 -104.75 -23.25 -104.0 Q-26.5 -102.1 -30.0 -100.5 -32.1 -100.25 -31.5 -102.25 -28.35 -102.7 -25.0 -104.25 -24.45 -105.8 -24.25 -107.5 -26.8 -106.9 -28.3 -104.5 L-29.25 -103.0 -30.5 -102.75 Q-29.85 -105.45 -27.85 -107.3 L-26.0 -108.75 -24.15 -108.4 -24.15 -109.25 -23.75 -109.25 M-20.75 -104.25 Q-18.8 -101.0 -15.1 -100.2 L-14.75 -99.75 -15.75 -98.55 Q-16.15 -98.25 -16.75 -98.25 -21.3 -100.0 -21.45 -104.0 -21.5 -104.45 -20.75 -104.25 M-14.65 -117.65 Q-14.0 -116.75 -14.3 -115.5 L-14.5 -114.75 Q-17.8 -110.6 -20.25 -111.5 -18.0 -113.2 -16.0 -115.25 L-15.9 -116.95 -18.25 -115.75 -18.25 -114.25 -18.25 -113.5 Q-18.4 -113.15 -18.65 -112.95 -19.0 -112.65 -19.5 -112.5 -19.95 -113.95 -19.8 -115.5 L-19.75 -116.25 Q-18.5 -117.85 -16.55 -118.3 L-16.25 -118.4 -16.0 -118.5 -15.85 -118.45 -15.75 -118.5 -15.6 -118.4 -14.85 -118.1 -14.5 -117.75 -14.65 -117.65 M-19.75 -94.75 Q-22.05 -96.4 -21.2 -98.35 L-20.75 -98.5 Q-17.45 -95.55 -18.2 -91.0 L-18.25 -90.25 Q-19.55 -88.95 -20.45 -87.35 L-21.0 -86.75 Q-21.85 -88.1 -20.35 -89.6 L-19.75 -90.25 -19.75 -93.25 -19.75 -94.75 M-24.0 -95.5 L-23.75 -95.65 -23.05 -95.85 -23.0 -96.0 -21.6 -95.6 Q-21.0 -95.4 -20.5 -95.0 L-23.0 -93.5 Q-23.0 -91.25 -22.5 -89.15 -22.15 -87.6 -22.25 -86.0 -23.0 -86.0 -23.6 -86.3 L-25.0 -87.5 -25.0 -91.25 -25.0 -94.25 -24.5 -95.0 -24.0 -95.5 M-119.25 24.5 L-119.55 25.2 -119.9 26.0 -120.0 26.75 -119.4 28.2 -118.8 29.3 Q-118.35 28.05 -116.75 26.75 -117.4 25.1 -117.5 23.35 L-119.25 24.5 M-117.45 21.75 Q-117.4 21.3 -116.75 21.5 L-116.35 23.0 -116.25 23.75 -115.5 24.5 Q-115.1 25.95 -115.35 27.45 L-115.5 28.25 -117.25 29.0 -118.6 29.95 -118.9 30.25 -120.5 30.75 -121.35 29.3 -122.0 28.5 Q-122.35 26.05 -121.9 23.85 -121.55 22.0 -120.0 21.75 L-117.6 22.45 -117.5 22.5 -117.45 21.75 M-146.0 24.25 L-144.75 24.5 Q-144.45 25.7 -145.7 26.8 L-146.25 27.5 -145.25 29.0 -144.75 29.75 Q-146.3 30.45 -147.6 28.15 L-147.75 27.5 -147.6 26.8 -147.0 26.0 -146.55 24.85 -146.05 24.4 -146.0 24.25 M-143.5 24.25 Q-142.45 25.2 -141.75 26.5 L-141.55 28.0 -141.5 29.25 Q-144.0 30.1 -143.0 28.5 -142.15 26.9 -143.95 25.4 L-144.5 24.75 -144.35 23.3 -143.95 22.8 -143.75 22.75 -143.55 23.5 -143.5 24.25 M-159.15 34.75 L-158.75 34.75 Q-157.35 35.55 -156.25 36.7 L-155.5 37.5 Q-155.1 38.55 -155.35 39.7 L-155.75 41.25 -157.5 42.25 Q-156.85 41.15 -156.8 40.0 L-156.75 38.5 Q-158.1 37.6 -158.7 36.55 L-159.45 37.8 -160.0 38.5 Q-159.1 41.4 -156.5 43.0 L-158.5 43.5 Q-161.75 41.8 -162.0 38.25 -161.6 36.8 -160.45 35.55 L-160.0 35.25 -159.1 35.45 -159.15 34.75 M-137.45 57.0 Q-137.45 56.5 -136.75 56.75 L-136.25 57.7 -135.85 57.8 -135.5 58.25 -135.85 58.5 -135.5 59.7 -135.25 60.5 Q-136.95 63.1 -139.55 64.9 L-139.5 65.0 -139.85 65.1 -142.0 66.25 -141.0 64.9 -141.5 64.5 Q-142.1 63.0 -141.4 61.55 -140.7 60.15 -141.0 58.5 L-140.25 57.75 -139.7 57.3 Q-139.4 57.1 -139.0 57.0 L-137.4 57.35 -137.45 57.0 M-137.15 58.8 L-138.5 59.0 -138.9 59.75 -139.05 60.45 -139.25 61.25 -139.95 62.05 -140.25 62.75 -140.2 63.45 -140.15 63.75 -136.75 59.75 -137.15 58.8 M-159.5 54.25 L-162.25 53.0 -163.2 54.5 -163.25 54.65 -162.65 55.55 Q-162.5 55.85 -162.5 56.25 L-161.95 56.7 -160.75 56.75 Q-159.15 55.55 -158.2 53.9 L-157.75 53.75 Q-157.1 56.05 -159.45 57.55 L-160.25 58.25 -162.5 58.5 Q-164.3 57.25 -164.75 55.5 L-164.6 55.05 -164.75 54.75 Q-164.75 53.45 -164.2 52.3 -163.8 51.55 -163.0 51.25 -161.3 51.6 -159.8 52.6 L-159.0 53.25 Q-158.75 53.6 -158.85 53.8 L-159.5 54.25 M-110.75 127.5 Q-108.65 129.2 -106.8 131.25 L-106.25 132.0 Q-106.0 133.65 -107.0 134.95 L-107.4 135.45 Q-106.5 135.95 -105.5 136.25 -107.55 137.3 -109.75 136.75 -113.3 134.2 -113.05 130.0 L-113.0 129.25 -112.85 128.6 -112.1 128.05 -112.5 127.75 -112.0 127.55 -111.0 127.5 -110.75 127.5 M-108.1 134.0 Q-107.75 133.5 -107.75 132.75 -109.0 130.95 -110.4 129.55 -110.4 130.2 -110.85 130.85 L-111.0 131.5 Q-110.1 133.5 -108.45 134.75 L-108.1 134.0 M-141.0 166.0 L-138.6 166.5 -138.0 167.0 Q-137.75 167.35 -137.85 167.6 L-138.5 168.5 -141.0 168.5 Q-141.45 170.35 -143.05 171.4 L-144.5 172.25 Q-145.55 170.15 -143.7 168.1 L-142.0 166.5 -141.75 166.3 -141.05 166.1 -141.0 166.0 M-138.0 168.5 L-136.75 168.75 Q-137.15 171.7 -139.05 173.95 L-139.5 174.5 Q-144.15 176.25 -144.5 172.75 L-143.8 172.85 -143.0 173.25 -139.75 172.75 Q-138.8 170.95 -138.35 169.0 L-138.0 168.5 M-121.85 182.5 Q-122.05 181.3 -120.75 181.45 L-119.95 182.9 -119.25 183.7 Q-115.8 184.6 -113.75 183.35 L-113.75 183.2 Q-116.65 183.4 -119.5 183.1 L-119.75 182.7 -119.0 182.35 Q-117.65 181.95 -117.0 181.2 L-113.75 181.45 -112.85 182.3 -112.65 182.45 -112.25 181.9 -111.75 181.7 -112.25 183.0 -112.45 183.55 -113.2 184.25 Q-115.25 186.2 -119.5 185.45 L-121.6 183.1 -121.85 182.5 M-248.75 139.5 L-248.8 140.75 -248.75 140.75 -247.75 142.25 -247.25 143.0 -247.25 145.25 -247.25 146.0 -248.6 148.4 -248.5 148.5 -249.15 149.2 -250.0 150.25 -249.85 149.3 Q-251.8 148.15 -253.25 146.5 -253.25 145.2 -252.25 144.25 L-252.25 143.5 -252.25 142.75 Q-251.4 141.7 -251.0 140.5 -250.0 139.6 -248.75 139.5 M-249.2 143.15 L-249.9 145.5 -250.0 146.25 -249.45 147.25 -248.85 144.45 -248.75 143.75 -249.2 143.15 M-245.0 146.35 L-245.0 146.25 -240.85 146.8 -240.5 147.25 -240.6 147.65 -244.25 148.25 -244.45 148.85 -245.75 151.25 -247.5 151.5 -247.5 150.9 -245.75 148.5 -245.8 147.75 Q-246.05 146.45 -245.0 146.35 M-247.0 152.75 Q-248.1 151.1 -245.75 151.5 L-244.75 151.75 -240.4 148.65 -239.75 148.5 Q-239.65 153.35 -246.5 153.1 L-247.0 152.75 M-253.0 151.25 Q-252.4 151.35 -251.9 151.7 L-251.5 152.25 -252.05 152.65 -253.25 153.25 Q-253.1 154.4 -253.4 155.5 L-253.5 156.25 -253.2 156.95 -252.75 157.75 -253.0 158.0 -254.0 157.75 Q-254.8 156.4 -254.75 154.75 L-254.75 153.25 Q-254.5 151.75 -253.05 151.35 L-253.0 151.25 M-250.75 152.75 L-249.85 153.55 -249.5 154.25 Q-249.2 155.8 -250.1 157.3 L-250.25 158.0 Q-251.95 160.1 -254.5 160.25 L-252.0 158.0 Q-251.9 156.75 -251.3 155.7 L-251.0 155.0 Q-250.55 153.9 -251.25 152.8 L-250.75 152.75" fill="#cf2805" fill-rule="evenodd" stroke="none"/>
  </g>
  <defs>
    <radialGradient cx="0" cy="0" gradientTransform="matrix(0.4268, 0.0, 0.0, 0.4268, 0.0, 0.0)" gradientUnits="userSpaceOnUse" id="gradient0" r="819.2" spreadMethod="pad">
      <stop offset="0.0" stop-color="#5e642b"/>
      <stop offset="1.0" stop-color="#d7dcad"/>
    </radialGradient>
  </defs>
</svg>
