<?xml version="1.0" encoding="UTF-8" standalone="no"?>
<svg xmlns:xlink="http://www.w3.org/1999/xlink" height="459.45px" width="595.95px" xmlns="http://www.w3.org/2000/svg">
  <g transform="matrix(1.0, 0.0, 0.0, 1.0, 290.5, 224.25)">
    <path d="M281.15 207.9 L-281.15 207.9 -281.15 -207.9 281.15 -207.9 281.15 207.9" fill="url(#gradient0)" fill-rule="evenodd" stroke="none"/>
    <path d="M105.9 -118.2 L106.2 -117.75 Q85.5 -120.55 64.45 -119.25 49.6 -118.3 35.5 -119.25 L83.95 -121.75 Q95.15 -121.25 105.9 -118.2 M32.3 -118.7 L50.2 -118.0 50.5 -117.75 32.35 -116.95 Q32.6 -109.15 32.25 -101.25 L32.0 -100.75 Q31.2 -108.6 31.45 -116.9 -5.8 -115.5 -43.2 -115.5 L-43.4 -111.95 Q-43.85 -103.65 -45.0 -95.7 -45.55 -72.9 -46.4 -50.0 -47.3 -26.05 -46.9 -2.0 L-29.5 -2.6 -28.0 -3.0 -27.05 -2.75 -25.85 -2.15 -25.5 -1.75 Q-30.3 1.05 -36.05 0.7 L-46.9 0.25 -46.7 9.25 Q-45.85 38.95 -45.3 68.5 -45.1 77.75 -45.35 87.25 -45.6 96.2 -45.5 105.25 L-46.5 106.25 -38.05 106.05 -28.0 105.6 0.0 103.25 Q17.35 103.15 34.65 104.05 L34.6 103.05 33.5 103.0 33.5 102.75 34.6 102.65 Q33.6 78.05 33.9 53.25 34.25 25.45 33.2 -2.2 L25.0 -1.95 -22.0 0.5 -25.45 0.0 -25.5 -0.25 Q-14.15 -2.15 -2.55 -2.6 L33.0 -4.55 33.1 -4.55 33.0 -6.0 30.6 -65.25 Q29.75 -87.2 31.25 -107.25 31.4 -77.5 32.35 -48.0 L34.0 -4.6 54.45 -5.85 66.95 -7.0 Q86.6 -7.35 106.2 -6.0 L106.45 -5.75 61.0 -3.7 34.1 -2.25 34.7 11.25 Q36.05 40.7 36.05 70.5 36.0 86.65 35.45 102.55 L56.0 101.0 66.5 100.0 70.95 99.25 Q90.95 99.8 110.85 99.95 L110.9 99.4 Q108.8 70.65 108.85 41.25 108.9 17.35 108.3 -6.35 L105.45 -7.25 108.25 -7.3 107.95 -18.05 Q107.05 -47.6 106.85 -77.25 106.75 -87.2 108.2 -95.25 109.05 -65.75 109.3 -36.0 L109.65 -7.35 Q119.75 -7.6 129.95 -7.4 148.05 -7.0 164.95 -10.25 181.1 -9.95 197.2 -8.05 L197.45 -7.75 185.25 -7.95 Q187.5 21.2 187.45 51.0 187.45 73.35 185.2 95.25 L185.3 66.0 Q185.2 36.35 184.45 6.75 L184.0 -6.0 Q183.95 -7.45 184.55 -7.95 L152.45 -6.55 Q139.05 -5.4 125.7 -6.5 L121.95 -6.25 Q115.4 -4.95 109.7 -6.05 L110.15 23.25 Q110.75 53.0 111.8 82.45 112.1 90.1 111.3 97.5 L111.65 99.95 120.2 100.0 120.45 100.25 111.75 100.7 Q115.15 128.05 114.65 156.0 L114.0 188.95 155.45 189.15 174.95 188.5 188.95 187.45 Q218.3 186.05 247.5 188.05 L249.4 188.2 249.8 176.7 Q251.4 147.2 250.9 117.5 250.7 106.25 251.5 95.2 L234.25 96.3 Q211.1 97.85 189.45 96.75 L251.65 93.45 Q252.1 87.45 252.85 81.55 L253.2 81.5 252.95 93.4 262.95 92.85 296.2 91.75 Q295.75 93.1 292.95 93.2 L252.9 95.15 Q252.35 117.7 251.95 140.75 251.55 164.5 251.5 188.35 L281.45 190.2 305.45 192.2 Q295.25 192.6 284.95 191.85 L251.5 190.0 251.5 199.95 Q251.5 217.6 252.2 235.2 249.0 213.25 249.35 189.95 215.65 188.7 181.95 189.7 L148.95 190.75 117.75 189.8 113.95 189.5 113.9 191.8 113.7 191.95 113.8 193.45 113.85 193.85 113.45 209.2 112.45 210.2 113.0 189.45 Q102.5 188.8 92.0 190.0 L87.95 190.25 Q53.7 190.65 20.5 188.7 L89.95 188.85 113.0 188.95 113.6 151.0 Q113.8 128.7 111.15 106.75 110.75 103.55 110.85 100.75 L63.5 102.7 52.95 103.05 Q44.2 103.45 35.4 103.1 L35.35 104.1 48.2 104.95 48.5 105.25 35.3 105.35 35.0 112.25 34.7 105.35 Q15.15 105.5 -4.5 105.95 L-33.25 107.65 -39.5 108.0 Q-61.75 108.6 -84.0 108.0 L-92.8 107.65 Q-105.65 107.1 -118.5 107.35 L-119.0 107.5 -120.4 107.05 -120.5 106.75 -120.0 106.55 Q-118.4 106.2 -117.0 105.25 -100.85 103.2 -85.05 104.7 L-46.5 106.25 Q-47.05 76.55 -48.5 47.0 -49.65 23.65 -49.55 0.15 -69.85 -0.3 -90.05 1.25 -103.55 2.25 -117.0 0.7 L-127.5 -0.4 -127.5 1.5 Q-127.45 27.35 -128.4 53.2 L-129.5 92.25 -130.5 93.25 Q-129.7 63.65 -129.6 34.0 L-129.75 11.5 -129.9 -0.6 Q-150.65 -2.3 -171.5 -1.4 -176.15 -1.25 -179.5 -2.25 L-147.0 -3.75 -129.9 -1.95 Q-130.1 -24.9 -129.8 -47.75 -129.35 -77.5 -128.3 -107.0 L-128.15 -110.45 -152.3 -109.3 -144.75 -109.0 -144.5 -108.75 Q-172.3 -107.55 -200.2 -107.3 L-200.05 -75.75 Q-199.9 -46.05 -201.25 -16.55 -201.75 -5.75 -201.5 5.25 L-202.5 6.25 Q-201.6 -22.9 -201.7 -52.25 L-201.75 -107.25 -206.0 -107.25 -229.9 -106.1 -265.5 -103.95 -270.0 -103.9 -272.0 -103.9 -272.1 -102.75 Q-272.3 -99.7 -272.75 -96.75 L-272.95 -103.9 -290.5 -104.25 -272.95 -104.95 Q-273.5 -129.4 -272.45 -155.3 -271.25 -185.05 -272.9 -214.5 -273.15 -218.9 -271.75 -221.25 -270.0 -191.8 -270.05 -162.0 -270.1 -133.35 -271.95 -105.0 L-228.55 -106.65 -221.0 -106.95 -201.75 -107.85 -201.75 -112.25 Q-201.75 -142.25 -200.9 -172.25 L-200.25 -185.75 Q-198.9 -205.8 -194.75 -224.25 -197.8 -195.2 -199.45 -165.7 -200.25 -150.75 -200.25 -135.75 L-200.2 -107.95 -161.0 -109.5 -159.9 -109.45 -130.5 -111.3 -128.15 -111.45 Q-127.1 -138.95 -125.4 -166.3 -125.05 -171.95 -123.75 -176.25 -124.6 -146.65 -126.15 -117.05 L-126.4 -111.55 -97.05 -114.25 -44.8 -118.05 Q-44.35 -133.3 -44.2 -148.75 -44.1 -160.95 -42.75 -171.25 -41.8 -144.6 -43.05 -118.1 -8.35 -119.6 26.5 -118.45 L31.0 -118.75 31.5 -118.7 31.5 -119.0 Q31.5 -119.45 32.25 -119.25 L32.3 -118.7 M246.95 -123.95 Q242.9 -123.55 240.45 -125.25 L253.2 -125.75 Q252.0 -152.4 252.2 -179.0 252.35 -194.9 254.2 -209.25 255.8 -179.55 255.15 -150.0 L254.6 -125.85 270.95 -126.75 Q279.9 -127.35 288.15 -124.1 L288.45 -123.75 Q271.75 -125.55 254.55 -124.5 L254.45 -120.75 253.45 -119.75 253.25 -124.45 246.95 -123.95 M186.2 95.75 L186.35 97.55 190.2 97.85 190.45 98.25 186.4 98.3 Q188.4 126.5 188.35 155.0 188.3 171.15 186.1 187.0 L184.75 187.7 Q187.4 166.05 186.95 144.0 186.6 125.45 185.35 107.25 185.0 102.4 185.7 98.35 L113.95 99.2 Q113.2 99.25 112.45 98.75 137.0 96.2 160.95 95.75 L185.85 97.5 186.2 95.75 M34.25 107.75 L34.85 167.0 Q34.85 170.85 34.0 174.2 33.1 145.0 32.9 115.25 32.85 110.5 34.25 107.75 M-124.75 -218.25 Q-123.9 -195.8 -124.75 -173.25 L-125.0 -172.75 Q-126.35 -195.1 -125.5 -218.0 -125.45 -218.45 -124.75 -218.25 M-44.85 -115.5 L-57.5 -115.6 -62.75 -115.45 -94.0 -112.95 -126.45 -110.55 Q-127.7 -84.3 -127.65 -57.75 L-127.5 -1.75 -106.5 -0.5 Q-86.7 0.3 -66.95 -0.95 L-49.55 -1.9 -49.45 -12.25 Q-48.95 -41.95 -48.1 -71.5 -47.6 -89.35 -45.2 -105.95 L-44.85 -115.5 M-269.0 190.2 L-279.5 189.45 Q-279.75 189.2 -280.05 189.1 L-282.4 188.0 -282.5 187.7 Q-273.75 188.4 -264.55 187.85 L-235.0 186.7 Q-220.4 186.55 -205.8 187.55 L-205.5 180.0 Q-205.45 179.5 -204.75 179.7 L-204.4 187.65 -181.8 189.95 -181.5 190.2 Q-192.9 189.8 -204.35 189.7 -204.0 203.05 -204.6 216.45 L-204.75 217.2 Q-206.15 203.95 -205.85 189.65 -227.25 189.4 -248.75 190.15 -258.9 190.45 -269.0 190.2" fill="#382c1d" fill-rule="evenodd" stroke="none"/>
    <path d="M25.5 -124.5 L25.5 -123.75 Q26.55 -121.75 28.0 -123.75 28.55 -126.15 25.5 -126.15 L25.5 -126.0 25.5 -124.5 M29.5 -125.75 L29.5 -125.0 29.5 -124.25 29.2 -123.5 28.5 -122.0 27.95 -121.75 25.5 -121.75 24.75 -122.5 Q24.35 -123.6 24.25 -124.75 24.2 -126.45 25.0 -127.5 L28.25 -127.25 28.95 -126.5 29.5 -125.75 M34.5 -126.5 L35.5 -128.0 35.7 -129.15 35.95 -129.35 36.0 -129.5 37.5 -128.85 39.25 -128.25 Q39.8 -126.4 39.15 -124.55 L38.5 -123.0 34.5 -122.75 34.5 -125.0 34.5 -126.5 M36.75 -127.0 L35.65 -126.1 Q35.5 -125.9 35.5 -125.5 34.85 -123.05 37.75 -124.0 L38.35 -125.55 38.5 -126.25 36.9 -127.1 Q36.85 -127.15 36.75 -127.0 M35.25 -115.0 L36.0 -115.5 37.15 -115.15 38.25 -114.5 38.4 -113.75 38.5 -112.25 37.4 -110.8 36.75 -110.0 36.25 -109.75 35.95 -109.7 34.5 -109.75 33.75 -110.5 33.55 -111.25 33.5 -112.75 Q33.95 -114.1 35.25 -115.0 M34.55 -111.95 L34.5 -111.75 34.65 -111.7 34.55 -111.95 M35.75 -114.0 L35.35 -113.5 36.0 -111.1 36.25 -111.0 37.3 -112.6 37.5 -113.25 35.9 -114.1 Q35.85 -114.15 35.75 -114.0 M25.0 -114.5 L26.5 -113.85 28.25 -113.25 28.4 -111.75 28.5 -110.25 27.25 -108.75 24.0 -109.5 Q22.75 -111.4 24.05 -113.35 L25.0 -114.5 M25.5 -112.0 L24.8 -111.15 Q24.75 -110.9 25.0 -110.5 26.3 -108.7 27.35 -110.85 L27.5 -111.5 Q27.8 -113.2 25.5 -112.15 L25.5 -112.0 M40.25 -13.25 L40.4 -12.5 40.5 -9.5 36.5 -8.75 36.5 -11.0 36.7 -13.2 37.0 -13.5 40.25 -13.25 M29.25 -11.5 L29.4 -10.75 29.5 -8.5 25.5 -7.75 25.5 -10.75 25.65 -12.2 26.0 -12.5 28.25 -12.25 29.25 -11.5 M26.5 -9.5 L26.5 -9.0 Q28.9 -8.0 28.5 -10.5 27.8 -12.05 26.5 -11.0 L26.5 -9.5 M37.5 -10.5 L37.5 -10.0 Q39.9 -9.0 39.5 -11.5 39.55 -13.4 37.5 -12.0 L37.5 -10.5 M41.15 -0.15 L42.25 0.5 Q42.65 1.95 42.3 3.45 L41.75 5.0 38.5 5.25 37.75 4.5 37.55 3.75 37.5 2.25 Q38.2 0.95 39.25 0.05 L40.0 -0.5 41.15 -0.15 M115.0 -16.55 L115.95 -15.75 Q116.8 -14.45 116.4 -12.8 L115.95 -11.25 Q113.35 -9.75 110.45 -11.75 L110.45 -12.5 110.45 -13.25 110.45 -14.0 111.35 -15.6 111.45 -16.25 112.5 -17.0 112.9 -17.35 112.95 -17.5 114.2 -17.25 115.0 -16.55 M112.6 -14.35 L111.95 -13.75 112.2 -12.25 115.2 -12.0 115.45 -13.5 115.45 -14.25 Q114.95 -16.2 112.95 -15.0 L112.6 -14.35 M101.45 -14.25 L103.45 -16.25 106.2 -16.5 Q107.25 -14.0 106.15 -11.3 L105.7 -10.5 102.45 -9.75 101.7 -10.5 Q101.3 -11.95 101.45 -13.5 L101.45 -14.25 M105.2 -14.75 L103.95 -15.1 Q103.85 -15.15 103.7 -15.0 L103.0 -14.25 102.45 -13.5 102.45 -12.0 102.45 -11.25 104.7 -11.0 Q105.55 -12.35 105.3 -14.0 L105.2 -14.75 M103.2 -0.75 L102.6 0.05 Q102.45 0.35 102.45 0.75 104.6 2.9 105.45 0.25 105.15 -0.95 103.75 -0.9 L103.2 -0.75 M105.9 -1.7 L106.45 -1.0 106.45 0.5 106.45 2.0 101.45 2.25 101.45 0.0 101.45 -1.25 102.0 -1.5 103.2 -2.0 103.55 -2.7 104.0 -3.2 104.2 -3.25 105.9 -1.7 M113.45 -0.25 Q112.95 0.5 112.6 1.3 112.45 1.6 112.45 2.0 112.3 3.6 113.95 4.0 115.0 3.45 115.7 2.25 115.8 0.55 114.3 -0.2 L113.45 -0.25 M112.45 -2.25 L113.0 -2.45 113.95 -2.5 114.2 -2.5 Q116.4 -1.1 117.45 1.25 L117.7 2.0 Q116.55 3.4 115.7 5.0 L115.45 5.5 Q113.45 5.45 111.45 4.25 111.05 1.75 112.15 -0.3 112.6 -1.2 112.45 -2.25 M250.2 -131.75 Q251.0 -130.8 250.8 -129.5 250.6 -127.75 249.2 -126.5 L247.5 -126.7 Q246.45 -127.0 245.45 -127.5 245.05 -128.6 245.0 -129.75 244.8 -131.9 245.95 -132.75 L249.2 -132.5 250.2 -131.75 M248.95 -131.0 L246.7 -130.75 246.7 -130.0 246.7 -129.25 Q247.6 -127.5 248.85 -128.85 L249.2 -129.5 249.1 -130.75 248.95 -131.0 M259.95 -135.5 L262.15 -135.05 262.45 -134.75 Q261.95 -134.4 262.0 -134.05 262.1 -133.25 262.7 -132.5 262.35 -131.15 261.2 -130.25 L260.2 -129.5 258.45 -129.5 257.4 -130.15 256.45 -130.5 256.45 -131.15 257.45 -132.75 Q257.1 -135.1 259.95 -135.4 L259.95 -135.5 M260.95 -121.5 L261.2 -120.75 261.7 -119.25 261.4 -118.55 260.7 -117.75 255.45 -117.5 255.25 -118.25 255.2 -119.0 255.2 -119.75 255.55 -120.45 256.2 -121.25 256.3 -122.0 256.55 -122.45 256.95 -122.75 260.15 -122.0 260.95 -121.5 M259.45 -120.0 L257.9 -120.85 257.7 -120.75 256.95 -120.0 259.7 -119.65 259.45 -120.0 M248.45 -118.5 Q248.15 -119.55 246.95 -119.5 L246.5 -119.45 246.2 -119.25 245.75 -118.5 245.45 -117.75 Q246.6 -115.2 248.3 -117.85 L248.45 -118.5 M249.45 -119.0 L249.3 -117.55 248.7 -116.0 244.45 -115.75 Q244.25 -117.7 245.0 -119.5 L245.95 -121.5 248.2 -121.25 Q248.2 -120.9 248.35 -120.6 L249.45 -119.0 M260.15 84.75 L260.7 85.25 Q260.6 87.45 259.4 89.25 258.65 90.5 257.2 91.25 256.85 91.25 256.6 91.05 L254.95 89.75 Q254.7 89.35 254.8 89.05 254.95 88.25 255.45 87.5 L255.15 86.8 254.45 86.0 255.4 85.2 Q256.1 84.5 256.95 84.35 L256.95 84.25 260.15 84.75 M248.2 86.5 Q248.85 88.55 248.55 91.0 L248.45 92.25 Q246.65 92.8 244.95 91.5 244.15 90.15 244.4 88.45 L244.45 87.75 246.65 85.9 247.2 85.75 248.2 86.5 M246.45 88.0 L245.9 89.2 245.45 90.0 246.45 91.25 247.45 91.0 Q247.8 89.3 246.8 88.1 L246.45 88.0 M247.2 97.5 Q247.5 98.7 248.15 99.8 L248.45 100.5 Q247.8 102.0 245.95 102.5 L243.45 102.25 Q243.3 100.7 243.75 99.25 L243.95 98.5 Q244.85 96.7 247.2 97.5 M256.45 87.75 Q256.2 88.5 256.45 88.95 256.7 89.35 257.45 89.5 L259.05 86.65 Q259.6 85.5 258.2 86.25 L256.65 87.2 256.45 87.75 M254.95 97.25 Q255.45 96.85 256.0 96.6 256.45 96.35 256.95 96.25 L258.2 96.75 Q258.6 97.8 258.5 99.0 L258.45 100.25 254.45 100.25 254.65 98.0 254.95 97.25 M181.45 86.95 L181.95 86.5 183.2 86.75 Q183.75 88.0 185.1 88.7 L185.7 89.25 Q185.15 91.9 182.9 93.65 L181.95 94.25 179.45 93.0 179.45 91.5 179.45 90.0 180.35 88.4 180.45 87.75 181.45 86.95 M180.5 91.5 L180.45 92.25 182.2 93.0 Q184.3 91.45 183.95 89.25 L183.4 88.85 183.0 88.8 182.45 89.0 181.9 89.4 180.7 90.0 180.5 91.5 M190.45 87.25 L192.2 87.75 192.95 90.0 193.45 91.5 191.9 92.9 190.95 93.5 189.45 93.25 188.8 92.4 188.45 91.75 Q188.45 91.35 188.6 91.0 L189.2 89.5 188.65 89.1 188.45 88.5 190.0 87.5 190.45 87.25 M190.45 89.5 L189.75 91.0 189.45 91.75 Q191.25 93.25 192.45 91.25 192.0 89.5 190.45 89.35 L190.45 89.5 M189.5 98.55 L189.9 98.4 189.95 98.25 Q192.3 98.55 193.4 100.75 L193.7 101.5 Q193.6 102.65 192.9 103.7 L191.7 105.25 187.45 105.5 Q187.05 104.4 187.15 103.2 L187.2 101.75 188.2 100.2 188.95 99.0 189.2 98.75 189.5 98.55 M190.45 100.15 Q190.35 100.1 190.2 100.25 189.45 101.35 188.85 102.55 188.7 102.85 188.7 103.25 189.5 105.55 191.45 103.0 193.0 100.75 190.45 100.15 M184.7 102.0 L184.7 102.75 184.7 104.25 184.7 105.0 Q181.65 107.35 178.45 105.25 178.3 104.05 178.9 103.1 179.6 102.0 179.45 100.75 L180.95 100.35 180.95 100.25 183.9 101.4 184.7 102.0 M182.95 102.25 Q181.8 101.6 180.5 101.85 L180.45 102.0 180.15 102.7 179.7 103.5 180.7 105.0 182.7 105.0 Q183.5 104.0 183.15 102.75 L182.95 102.25 M181.2 178.7 Q182.25 180.95 182.25 183.2 L181.95 184.7 180.9 185.2 178.45 185.2 177.7 184.45 Q177.35 182.15 178.0 179.85 178.25 178.75 178.95 178.45 L181.2 178.7 M178.75 182.5 L178.45 183.2 Q179.95 185.65 181.45 183.2 181.05 181.5 179.45 180.85 L179.45 180.95 178.75 182.5 M181.2 189.7 L182.0 190.15 183.2 190.7 183.45 192.25 183.45 192.95 Q181.7 195.65 178.45 195.2 L177.7 194.45 Q177.95 191.95 180.35 190.15 180.7 189.85 181.2 189.7 M179.7 191.95 L179.1 193.4 178.7 193.95 Q181.15 194.8 182.45 192.45 L182.1 191.95 Q181.6 191.6 180.95 191.45 L179.7 191.95 M195.45 182.7 L194.6 184.1 193.7 184.95 188.45 185.2 Q188.95 183.4 189.95 181.6 L190.95 179.45 Q193.7 180.05 195.45 182.2 L195.45 182.7 M194.2 182.45 Q192.65 181.05 190.7 181.95 L190.3 183.5 190.2 183.95 192.95 183.95 194.2 182.45 M192.2 191.7 Q192.2 192.1 192.35 192.4 L192.95 193.2 Q193.55 194.6 192.25 196.25 L191.7 196.95 189.45 197.2 Q188.75 196.2 188.55 194.95 L188.45 194.2 Q188.95 192.85 190.2 192.0 L190.95 191.45 192.2 191.7 M190.45 193.2 L189.8 194.05 189.45 194.7 Q189.75 196.35 191.1 195.5 L191.45 194.95 Q192.5 193.85 191.1 193.2 L190.45 193.2 M241.2 183.95 Q240.75 180.8 243.25 178.75 L243.95 178.2 244.95 178.35 246.2 178.7 246.1 179.45 246.2 180.2 246.95 181.0 247.45 181.7 Q246.85 185.75 242.45 185.45 L241.75 184.7 241.2 183.95 M242.7 183.7 Q244.4 184.65 245.2 182.95 246.0 181.05 243.9 180.15 L243.7 180.2 Q242.7 181.55 242.7 183.2 L242.7 183.7 M240.95 197.7 L242.95 197.95 Q244.25 197.15 244.2 195.7 243.75 194.65 242.8 193.9 L242.45 193.95 241.7 194.7 Q241.3 195.8 241.25 196.95 L240.95 197.7 M242.95 191.2 L244.2 191.7 245.6 196.25 245.7 196.95 243.45 199.2 240.45 199.2 239.7 198.45 239.7 197.8 240.2 196.95 Q240.3 194.0 242.3 191.8 L242.95 191.2 M244.65 100.2 L244.45 100.75 Q247.2 102.45 246.5 99.85 246.45 99.6 245.95 99.5 245.2 99.75 244.65 100.2 M257.2 181.2 Q258.05 182.55 257.75 184.25 L257.7 184.95 Q255.5 187.5 252.45 186.2 L252.45 183.95 252.45 183.2 Q253.25 181.55 254.95 180.45 L255.95 180.45 256.2 180.45 257.2 181.2 M253.45 183.7 Q252.95 186.05 255.7 184.7 256.7 183.45 255.85 182.05 255.5 181.45 255.45 181.95 L253.85 183.1 253.45 183.7 M252.6 195.95 L252.45 193.7 254.05 192.6 254.95 192.2 Q257.25 192.3 258.45 194.15 L258.45 194.7 257.55 196.1 Q256.8 197.0 256.45 198.2 L254.5 198.0 252.95 197.45 252.6 195.95 M253.5 195.5 L253.45 196.2 255.7 196.95 Q256.85 195.5 256.95 194.2 255.25 193.3 253.7 193.95 L253.5 195.5 M106.95 90.5 L108.2 90.75 108.95 91.5 109.45 92.25 Q109.8 94.3 109.0 96.0 L108.45 97.25 105.45 97.25 105.45 94.25 105.45 92.75 106.2 92.0 106.55 91.25 106.9 90.7 106.95 90.5 M106.95 92.75 Q106.2 93.7 106.4 95.0 L106.45 95.75 107.7 96.0 Q109.65 93.3 107.2 92.65 L106.95 92.75 M113.45 91.0 Q114.85 89.5 117.2 90.5 118.05 92.2 117.75 94.25 L117.7 95.0 116.2 96.5 Q114.75 96.9 113.45 95.5 112.9 93.6 113.4 91.7 L113.45 91.0 M115.45 92.0 L114.7 92.75 114.7 93.5 114.7 94.25 115.95 95.0 Q116.4 93.55 115.9 92.1 L115.45 92.0 M41.5 1.75 Q41.15 0.15 39.75 1.0 41.35 2.8 38.55 3.35 L38.5 3.75 41.25 4.0 Q41.65 2.9 41.5 1.75 M29.0 2.25 Q29.75 3.2 29.35 4.45 L28.75 6.0 25.5 6.25 24.75 5.5 Q24.35 4.4 24.4 3.25 L24.5 1.75 25.3 1.05 25.9 0.65 26.0 0.5 27.25 0.75 28.0 1.45 29.0 2.25 M25.75 2.0 L25.5 3.5 25.5 4.25 Q27.0 6.65 28.5 4.25 28.1 2.4 26.4 1.95 L25.75 2.0 M27.5 96.5 L29.45 94.95 30.0 94.5 32.25 94.75 32.9 96.25 33.5 97.75 33.2 98.45 32.5 100.0 27.5 100.25 27.5 98.75 27.5 96.5 M30.5 95.85 L30.5 96.0 30.35 96.75 30.5 97.25 Q28.55 97.05 28.5 98.25 29.65 100.8 32.0 98.25 32.7 96.55 30.5 95.85 M38.05 97.1 L37.5 97.5 38.75 99.0 41.25 99.0 41.45 97.45 41.5 96.75 Q41.05 95.15 39.25 95.55 L39.0 95.75 38.05 97.1 M40.25 93.75 L41.0 94.45 42.0 95.25 Q42.8 96.55 42.4 98.2 L42.0 99.75 Q39.35 101.25 36.5 99.25 L36.5 97.75 36.5 96.25 Q36.95 94.7 38.45 93.9 L39.0 93.5 40.25 93.75 M41.45 112.7 L41.25 113.5 37.5 113.25 37.5 109.5 37.5 108.75 Q38.4 107.3 40.0 107.35 L40.0 107.25 41.25 107.5 Q42.25 109.95 41.45 112.7 M38.65 109.85 Q38.5 110.1 38.5 110.5 37.9 112.7 40.25 112.0 40.4 110.45 39.75 109.05 L39.5 109.0 Q39.0 109.35 38.65 109.85 M29.9 108.05 L30.5 108.75 Q30.75 110.0 30.1 111.05 L29.5 112.25 26.5 112.25 26.5 108.5 26.5 107.0 27.05 106.65 28.0 106.5 28.25 106.5 29.9 108.05 M118.2 103.5 Q118.6 104.55 118.45 105.75 L118.2 107.25 116.95 108.7 116.45 109.25 115.95 109.35 114.45 109.25 113.7 108.5 Q113.3 107.4 113.65 106.25 L114.2 104.75 113.45 104.0 115.2 102.95 115.95 102.5 Q116.6 102.6 117.15 102.85 117.7 103.1 118.2 103.5 M116.45 104.0 L114.65 106.85 114.45 107.5 115.05 107.95 116.2 108.0 117.45 106.5 Q117.6 105.3 117.2 104.25 116.8 103.25 116.45 104.0 M104.95 103.5 Q106.85 103.65 107.95 105.25 L108.45 106.0 108.3 107.45 107.7 109.0 104.45 109.25 104.45 104.75 Q104.4 103.9 104.95 103.5 M105.45 105.75 L105.45 106.5 105.45 107.25 Q107.05 109.4 107.45 106.5 107.15 105.45 106.0 105.55 L105.45 105.75 M118.95 179.2 Q120.85 179.4 121.95 181.0 L122.45 181.7 122.3 182.4 121.7 183.2 121.7 183.95 121.7 184.7 121.4 185.4 120.7 186.2 119.45 186.45 119.15 186.1 117.45 185.2 117.45 182.95 117.45 180.7 118.05 180.05 118.9 179.4 118.95 179.2 M112.7 183.2 Q112.85 184.5 112.25 185.6 L111.45 187.45 108.45 187.45 107.75 186.7 107.2 185.95 107.2 183.75 Q107.15 182.5 107.95 182.2 L112.15 182.75 112.7 183.2 M119.4 181.1 L119.2 181.2 Q118.0 181.5 118.4 183.0 L118.45 183.7 119.95 184.7 Q121.25 182.15 119.4 181.1 M110.15 185.4 L110.45 184.95 Q111.15 183.3 109.45 183.95 107.55 186.1 110.15 185.4 M108.2 191.7 L109.9 193.3 110.45 193.95 109.85 195.4 109.2 196.2 Q107.25 195.95 105.85 194.35 L105.45 193.7 106.3 192.25 106.95 191.45 108.2 191.7 M116.95 190.45 L118.2 190.7 119.0 191.45 119.95 192.2 Q120.75 193.2 120.55 194.5 L120.45 195.95 116.45 196.2 116.7 193.25 117.2 191.7 116.75 190.9 116.9 190.65 116.95 190.45 M117.7 192.95 L117.5 194.5 117.45 194.95 Q119.9 196.0 119.45 193.45 119.15 192.35 118.0 192.8 L117.7 192.95 M-206.75 -112.5 L-207.35 -111.7 -207.5 -111.0 Q-207.65 -109.15 -205.75 -110.0 -205.75 -111.4 -206.25 -112.55 L-206.75 -112.5 M-204.75 -113.75 Q-203.9 -111.7 -204.4 -109.3 L-204.75 -108.5 -207.5 -108.75 -208.25 -109.5 Q-208.65 -111.35 -208.65 -113.25 L-208.5 -114.0 -206.75 -114.3 -205.75 -114.5 -204.75 -113.75 M-209.35 -99.95 L-208.5 -101.5 -208.2 -102.8 Q-207.65 -103.65 -207.0 -103.75 L-204.85 -103.25 -204.25 -102.75 Q-204.15 -100.55 -205.8 -98.8 L-206.5 -97.75 -207.0 -97.65 -208.5 -97.75 -209.15 -98.55 -209.5 -99.25 -209.35 -99.95 M-207.05 -102.1 L-207.5 -102.0 Q-207.3 -100.6 -208.25 -99.55 L-208.25 -99.0 Q-206.6 -99.3 -205.85 -101.3 L-205.75 -101.75 -207.05 -102.1 M-198.75 -116.0 Q-197.3 -116.85 -196.0 -116.75 L-194.75 -116.5 -194.35 -115.0 -194.25 -114.25 -194.6 -113.55 -195.25 -112.75 -195.35 -112.0 -195.5 -111.5 Q-196.95 -110.9 -198.5 -111.5 L-199.25 -112.25 Q-199.95 -113.2 -199.6 -114.55 L-199.5 -115.25 -198.75 -116.0 M-198.25 -113.25 Q-196.15 -112.5 -196.25 -115.0 L-196.5 -115.0 Q-198.25 -114.7 -198.35 -113.75 L-198.25 -113.25 M-197.0 -105.5 L-195.75 -105.25 Q-194.85 -103.65 -193.6 -102.15 L-193.25 -101.5 Q-193.35 -100.35 -194.1 -99.3 L-194.75 -98.5 -198.5 -98.5 Q-198.95 -100.35 -198.8 -102.25 L-198.75 -103.75 -197.45 -104.95 -197.05 -105.3 -197.0 -105.5 M-197.25 -101.25 L-197.25 -100.5 Q-196.05 -98.85 -195.0 -101.0 -194.9 -102.25 -196.0 -103.0 L-197.25 -102.9 -197.25 -102.75 -197.25 -101.25 M-268.25 -111.75 L-268.15 -110.25 -268.0 -109.5 Q-266.45 -108.1 -265.75 -110.0 -266.35 -111.7 -268.0 -111.85 L-268.25 -111.75 M-266.75 -113.5 L-265.7 -112.55 -264.75 -111.75 Q-263.75 -110.4 -264.65 -108.8 L-265.5 -107.5 -268.5 -107.5 Q-269.75 -108.8 -269.75 -110.5 L-269.75 -112.0 -268.45 -113.45 -268.0 -113.75 -266.75 -113.5 M-276.75 -111.75 L-278.3 -110.35 -278.5 -109.75 -276.25 -109.0 Q-275.45 -110.2 -276.0 -111.65 -276.25 -112.35 -276.75 -111.75 M-275.8 -113.4 L-274.75 -112.75 Q-273.55 -110.85 -274.9 -108.9 L-275.5 -107.75 -278.5 -107.75 -279.25 -108.5 -279.45 -110.0 -279.5 -111.5 Q-279.25 -112.85 -277.5 -113.55 L-277.0 -113.75 -275.8 -113.4 M-278.7 -100.9 L-278.05 -101.35 -278.0 -101.5 Q-276.15 -101.35 -275.0 -99.75 L-274.5 -99.0 -275.15 -97.45 -275.5 -96.0 -278.5 -95.75 -279.25 -96.5 Q-279.65 -97.6 -279.55 -98.75 L-279.5 -100.25 -278.7 -100.9 M-278.25 -100.0 L-278.45 -98.5 -278.5 -97.75 Q-277.35 -95.7 -276.25 -97.75 -275.45 -99.15 -276.75 -100.0 L-278.25 -100.0 M-269.0 -102.5 L-267.75 -102.25 -268.1 -101.55 -268.5 -101.0 -265.25 -99.75 Q-265.2 -98.35 -266.2 -97.25 L-267.5 -95.5 Q-269.15 -94.9 -270.25 -96.5 L-270.75 -98.75 -271.0 -99.5 -269.75 -101.0 -269.45 -101.7 -269.05 -102.3 -269.0 -102.5 M-269.35 -97.55 L-269.0 -97.0 Q-267.95 -97.55 -267.25 -98.75 -268.9 -99.8 -269.5 -99.0 L-269.35 -97.55 M-49.0 -126.7 L-46.75 -126.5 Q-45.95 -125.2 -46.3 -123.5 -46.55 -122.3 -47.5 -121.5 L-51.5 -121.5 Q-51.95 -122.95 -52.0 -124.5 -52.05 -126.2 -51.0 -126.75 L-49.0 -126.7 M-50.25 -125.0 L-50.25 -124.25 -50.25 -123.5 Q-48.9 -121.75 -47.75 -124.0 -47.9 -125.7 -50.0 -125.15 L-50.25 -125.0 M-50.5 -113.0 L-50.5 -111.5 -50.5 -111.0 -48.75 -111.0 -48.5 -112.5 Q-49.2 -114.05 -50.5 -113.0 M-47.75 -114.5 L-47.0 -113.75 -46.25 -113.0 Q-46.45 -111.6 -47.5 -110.75 L-48.25 -110.0 -51.5 -109.75 -51.5 -112.0 -51.5 -113.5 Q-51.45 -115.2 -49.0 -114.75 L-47.75 -114.5 M-41.35 -112.05 L-40.0 -113.5 -36.75 -113.25 -36.6 -112.5 -36.5 -110.25 -36.85 -109.6 -38.25 -108.0 -39.05 -107.7 -40.5 -107.75 -41.25 -108.5 -41.45 -109.25 -41.5 -111.5 -41.35 -112.05 M-38.0 -128.5 L-36.75 -128.25 Q-36.35 -126.05 -36.5 -123.75 L-36.5 -123.0 -40.5 -122.75 -40.5 -125.0 -40.5 -125.75 Q-39.9 -127.6 -38.05 -128.35 L-38.0 -128.5 M-39.5 -124.75 L-37.5 -124.0 Q-37.5 -125.5 -37.85 -126.9 L-38.25 -127.0 -39.35 -125.4 -39.5 -124.75 M-37.5 -111.25 Q-37.55 -113.2 -39.5 -112.0 L-40.35 -111.15 -40.5 -110.5 Q-40.9 -108.45 -38.75 -109.0 -38.15 -109.75 -37.7 -110.6 L-37.5 -111.25 M-125.0 -118.5 L-121.75 -118.25 -121.6 -117.5 -121.5 -115.25 -121.85 -114.6 -123.25 -113.0 -124.5 -112.75 -125.05 -113.15 -126.5 -113.75 -126.5 -114.5 -126.5 -116.75 -126.05 -117.55 Q-125.65 -118.3 -125.05 -118.4 L-125.0 -118.5 M-129.25 -115.25 L-129.5 -114.75 Q-132.7 -113.05 -133.75 -115.5 L-134.4 -116.55 -134.5 -117.25 -133.75 -118.0 -133.55 -119.5 -133.5 -120.25 -132.7 -120.9 -131.75 -121.25 Q-130.2 -120.1 -129.35 -118.35 L-128.75 -117.5 Q-128.45 -116.4 -129.25 -115.25 M-122.65 -116.05 L-122.5 -116.75 -124.5 -117.15 -124.5 -117.0 -125.35 -116.15 -125.5 -115.5 -124.25 -114.25 -123.25 -114.5 -122.65 -116.05 M-132.5 -119.75 L-132.5 -117.5 -132.5 -116.75 Q-131.65 -114.5 -129.75 -116.75 -130.8 -118.8 -132.35 -119.85 L-132.5 -119.75 M-131.75 -107.5 L-131.6 -106.75 -131.5 -105.25 -131.85 -104.6 -133.25 -103.0 -134.05 -102.7 -135.5 -102.75 -135.65 -106.5 Q-135.75 -107.8 -135.0 -108.5 L-132.75 -108.25 -131.75 -107.5 M-133.5 -107.0 L-134.35 -105.45 -134.5 -104.75 Q-132.55 -103.3 -133.15 -106.95 L-133.5 -107.0 M-121.75 -109.5 L-120.75 -108.75 -120.4 -107.25 -120.25 -105.0 -120.85 -104.35 -122.75 -102.75 -124.5 -102.75 -125.25 -103.5 Q-125.65 -104.6 -125.6 -105.75 L-125.5 -108.0 -125.0 -108.75 -124.45 -109.45 -124.0 -109.75 -121.75 -109.5 M-121.75 -107.0 L-123.5 -107.9 -123.5 -107.75 -123.7 -107.15 -124.5 -106.5 -124.5 -105.0 -124.5 -104.25 -124.0 -103.95 -123.0 -104.0 -121.75 -105.5 -121.75 -106.25 -121.75 -107.0 M-133.75 -10.5 Q-132.35 -8.1 -132.5 -5.3 L-132.75 -4.5 -135.5 -4.75 Q-136.7 -5.75 -137.5 -7.0 L-137.5 -8.5 -137.5 -9.25 -135.35 -11.1 -134.75 -11.25 -133.75 -10.5 M-135.5 -9.0 L-136.35 -8.35 -136.5 -7.75 -136.2 -7.05 -135.5 -6.25 -133.75 -6.0 Q-133.95 -7.65 -135.15 -8.9 L-135.5 -9.0 M-121.85 -9.7 L-121.25 -9.0 -121.3 -8.25 Q-121.55 -7.05 -122.25 -6.0 L-126.5 -5.75 -126.55 -7.25 Q-126.65 -8.45 -126.25 -9.5 L-125.7 -10.15 -125.05 -10.6 -125.0 -10.75 -122.75 -10.5 -121.85 -9.7 M-125.5 -7.25 Q-123.55 -5.2 -122.75 -7.75 -122.5 -10.0 -125.25 -8.95 L-125.5 -8.75 -125.5 -8.0 -125.5 -7.25 M-54.0 -8.75 L-53.0 -8.75 -50.75 -8.5 Q-49.95 -7.2 -50.3 -5.5 -50.55 -4.3 -51.5 -3.5 L-52.0 -3.4 -54.5 -3.75 -55.25 -4.5 -55.45 -5.25 -55.5 -6.0 -55.25 -7.5 -54.7 -8.15 -54.1 -8.6 -54.0 -8.75 M-53.5 -7.0 L-54.35 -6.35 -54.5 -5.75 Q-53.15 -3.45 -51.75 -5.75 -51.3 -7.4 -53.0 -7.2 L-53.5 -7.0 M-44.0 -10.75 Q-41.7 -10.3 -40.2 -8.3 L-39.5 -7.5 -40.05 -6.0 -40.5 -4.75 -44.5 -4.75 -46.35 -6.0 -46.5 -6.5 -46.35 -7.15 -45.5 -8.0 -45.45 -8.75 -45.25 -9.5 -44.7 -10.15 -44.1 -10.6 -44.0 -10.75 M-44.5 -8.75 L-44.4 -6.5 -44.25 -6.0 Q-42.25 -4.85 -41.25 -6.75 -41.65 -8.0 -42.75 -8.75 L-44.25 -8.9 -44.5 -8.75 M-40.75 2.5 Q-39.95 3.85 -40.5 5.5 L-40.75 6.25 Q-41.5 7.7 -43.0 8.25 L-44.05 7.8 -45.5 7.25 Q-45.8 5.55 -44.95 4.15 L-44.75 3.5 -45.4 2.45 -45.5 1.75 -43.5 1.5 -42.0 2.15 -40.75 2.5 M-44.5 6.0 L-43.75 6.75 -42.5 6.75 Q-41.1 5.85 -41.75 4.5 L-42.65 3.75 Q-43.0 3.6 -43.5 3.75 L-44.1 5.2 -44.5 6.0 M-52.75 1.75 L-52.0 3.2 -51.5 4.0 -53.15 7.7 -53.5 8.25 -55.5 8.25 -56.25 7.5 Q-56.65 6.4 -56.55 5.25 L-56.5 4.5 Q-55.8 2.25 -53.0 1.75 L-52.75 1.75 M-53.0 4.75 L-54.5 3.85 -54.5 4.0 -55.35 4.85 -55.5 5.5 Q-55.9 7.55 -53.75 7.0 L-53.4 5.5 -53.0 4.75 M-121.75 2.5 L-121.55 4.0 -121.5 4.75 Q-122.0 6.1 -123.25 7.0 L-124.5 7.25 -126.5 6.25 -126.5 4.0 -126.5 2.75 -123.0 2.25 -121.75 2.5 M-124.75 5.3 L-124.0 5.75 -122.5 4.5 Q-122.75 2.95 -125.0 3.8 L-125.25 4.0 -124.75 5.3 M-130.75 2.75 L-132.25 5.75 -132.5 6.25 -133.0 6.35 -134.5 6.25 -135.95 4.7 -136.5 4.0 Q-136.65 2.7 -135.85 1.65 L-135.5 1.0 -134.0 0.6 -132.75 0.5 -131.3 2.05 -130.75 2.75 M-133.0 2.0 L-134.0 1.85 Q-134.15 1.85 -134.25 2.0 L-135.0 2.75 -135.5 3.5 Q-134.9 5.15 -133.25 5.0 L-132.4 3.4 -132.25 2.75 -133.0 2.0 M-38.75 100.25 Q-38.4 101.55 -39.75 103.25 L-40.25 104.0 -41.05 104.25 -42.5 104.25 -43.25 103.5 -43.45 101.95 -43.5 100.5 Q-43.45 98.8 -41.0 99.25 -40.4 99.35 -39.85 99.6 -39.25 99.85 -38.75 100.25 M-38.75 110.75 L-38.6 112.25 -38.5 113.75 Q-40.3 116.15 -43.5 115.25 L-43.5 112.25 -43.5 110.75 -42.7 110.05 -42.1 109.65 -42.0 109.5 -40.0 110.25 -38.75 110.75 M-42.25 103.0 Q-40.85 103.8 -40.5 102.25 -39.65 99.85 -42.5 101.0 L-42.45 102.45 -42.25 103.0 M-48.8 100.5 L-48.0 101.25 Q-47.75 101.6 -47.85 101.9 -48.0 102.75 -48.5 103.5 L-51.5 104.25 -52.25 103.5 -52.45 101.95 -52.3 99.75 -52.0 99.5 -49.75 99.75 -48.8 100.5 M-50.25 111.0 L-50.5 112.5 -50.5 113.0 Q-48.35 113.9 -48.5 111.5 -48.85 110.35 -50.0 110.8 L-50.25 111.0 M-47.75 110.5 L-47.55 112.0 -47.5 112.75 -47.9 113.4 -48.75 114.25 -51.5 114.25 -51.7 109.75 Q-51.8 108.7 -50.75 108.75 -49.75 109.25 -48.8 109.8 -48.25 110.1 -47.75 110.5 M-42.25 111.0 L-42.5 112.5 -42.5 113.25 Q-41.55 115.6 -39.5 113.25 -39.65 111.25 -41.55 110.9 L-42.25 111.0 M-51.45 102.45 L-51.25 103.0 Q-48.75 103.75 -49.25 101.5 -50.3 100.05 -51.5 101.0 L-51.45 102.45 M-211.5 181.95 Q-212.7 182.55 -212.25 183.95 L-212.0 184.7 -210.75 184.7 -209.75 183.2 Q-209.55 181.75 -211.0 181.85 L-211.5 181.95 M-208.8 185.45 L-209.5 186.2 Q-211.8 187.35 -213.75 184.95 L-213.75 183.45 -213.75 181.2 -213.4 180.6 -212.0 179.2 -209.75 179.45 Q-208.85 180.9 -208.5 182.55 L-208.25 184.7 -208.8 185.45 M-213.55 194.2 L-213.5 192.7 -212.75 191.95 -212.7 191.25 -212.4 190.55 -212.0 190.2 Q-210.15 190.4 -209.0 192.0 L-208.5 192.7 -208.5 194.2 -208.5 195.7 -208.85 196.4 -209.75 197.2 -212.5 197.2 -213.25 196.45 Q-213.65 195.4 -213.55 194.2 M-212.45 194.5 L-212.5 195.2 -209.75 195.95 Q-209.4 194.5 -210.25 193.15 L-211.0 192.45 -212.25 192.95 -212.45 194.5 M-204.05 193.75 Q-204.15 191.8 -203.0 191.2 L-200.8 191.8 -198.75 192.45 Q-198.0 193.45 -198.05 194.75 -198.1 196.2 -198.5 197.45 L-203.5 197.45 -204.05 193.75 M-198.5 181.2 L-198.45 182.7 Q-198.4 184.0 -199.25 184.95 L-202.5 185.2 -202.65 181.5 Q-202.75 180.2 -202.0 179.45 L-199.75 179.7 -199.05 180.5 -198.5 181.2 M-201.5 182.45 L-201.5 183.2 Q-200.8 185.3 -199.5 183.2 -199.3 181.8 -200.5 180.95 L-201.5 180.85 -201.5 180.95 -201.5 182.45 M-202.25 194.7 L-202.25 195.45 Q-200.45 197.4 -199.75 194.95 -200.25 193.5 -202.25 193.1 L-202.25 193.2 -202.25 194.7" fill="#8b2d0e" fill-rule="evenodd" stroke="none"/>
    <path d="M258.2 -201.25 L254.75 -145.0 254.45 -144.25 254.3 -142.05 253.95 -140.75 Q253.1 -142.25 253.3 -144.25 L253.2 -145.0 253.7 -145.75 254.2 -146.5 Q254.65 -173.65 256.3 -200.5 256.4 -201.35 256.95 -201.5 L258.2 -201.25 M36.0 -39.75 Q32.2 -68.9 33.1 -98.75 33.15 -99.75 34.25 -99.5 37.25 -69.9 36.25 -40.25 L36.0 -39.75 M184.2 14.75 Q184.8 44.3 184.4 74.0 184.35 76.35 182.95 78.25 L182.85 19.25 Q182.8 15.95 184.2 14.75 M171.95 185.45 Q169.95 189.6 164.0 188.45 L154.95 187.95 137.45 187.2 136.8 186.4 136.45 185.7 Q146.25 187.0 155.95 184.95 L170.5 185.7 171.95 185.45 M253.2 115.5 Q253.2 113.95 254.95 113.75 L255.2 113.75 Q255.1 138.15 252.5 162.5 L252.45 163.25 251.45 164.25 Q251.7 154.8 252.9 145.5 L253.2 144.75 Q251.55 130.55 253.15 116.2 L253.2 115.5 M53.5 97.15 L54.0 97.25 93.45 97.0 96.2 99.25 Q73.3 102.35 52.1 97.05 51.05 96.8 52.0 96.5 L53.5 97.15 M-127.5 -205.75 Q-125.3 -183.1 -126.0 -160.75 -126.05 -159.5 -126.75 -158.5 -127.5 -163.05 -127.75 -169.75 L-128.65 -189.3 Q-129.1 -197.55 -128.15 -205.7 L-127.5 -205.75 M-220.5 -109.75 Q-230.05 -107.05 -240.05 -105.85 L-243.75 -105.75 -244.3 -106.2 -244.75 -106.5 Q-252.05 -105.75 -256.75 -107.5 -256.05 -109.65 -253.05 -109.15 -240.3 -106.95 -229.0 -111.5 L-220.85 -110.15 -220.5 -109.75 M-197.75 -83.25 Q-196.3 -53.8 -198.1 -24.0 -198.7 -13.85 -199.75 -3.75 -201.0 -32.0 -200.1 -62.25 -199.75 -73.7 -197.75 -83.25 M-67.75 1.75 L-68.15 2.35 -69.15 3.35 -69.25 3.75 Q-89.0 4.7 -108.0 3.3 L-109.5 2.75 -107.75 2.75 -96.25 2.75 -95.7 2.3 -95.0 2.0 -89.75 2.25 -88.3 1.95 -86.0 1.0 -68.5 1.75 -67.75 1.75 M-266.5 192.2 Q-261.45 188.05 -253.45 189.6 -239.1 192.4 -225.0 188.7 L-222.55 189.4 -221.5 189.95 Q-240.35 196.45 -260.0 192.05 -263.3 191.3 -266.5 192.2" fill="#afafaf" fill-rule="evenodd" stroke="none"/>
  </g>
  <defs>
    <radialGradient cx="0" cy="0" gradientTransform="matrix(0.4268, 0.0, 0.0, 0.4268, 0.0, 0.0)" gradientUnits="userSpaceOnUse" id="gradient0" r="819.2" spreadMethod="pad">
      <stop offset="0.0" stop-color="#633616"/>
      <stop offset="1.0" stop-color="#d2863c"/>
    </radialGradient>
  </defs>
</svg>
