<?xml version="1.0" encoding="UTF-8" standalone="no"?>
<svg xmlns:xlink="http://www.w3.org/1999/xlink" height="425.65px" width="593.95px" xmlns="http://www.w3.org/2000/svg">
  <g transform="matrix(1.0, 0.0, 0.0, 1.0, 288.5, 217.75)">
    <path d="M281.15 207.9 L-281.15 207.9 -281.15 -207.9 281.15 -207.9 281.15 207.9" fill="url(#gradient0)" fill-rule="evenodd" stroke="none"/>
    <path d="M13.5 -208.45 Q13.1 -213.0 14.25 -215.25 17.4 -200.2 14.45 -184.5 L14.25 -183.75 Q11.75 -190.75 13.15 -199.65 13.85 -204.05 13.5 -208.45 M67.45 -217.75 Q68.8 -199.15 64.05 -181.1 L80.2 -181.1 80.4 -182.0 Q80.5 -182.45 81.2 -182.25 L81.4 -181.1 90.95 -181.2 100.45 -180.75 81.7 -179.6 81.75 -179.25 81.95 -178.5 Q78.3 -161.55 77.8 -144.05 93.6 -144.05 109.2 -142.05 L109.45 -141.75 Q93.6 -142.55 77.75 -142.35 L77.75 -141.75 77.7 -141.0 75.95 -139.75 Q75.25 -140.55 76.2 -141.75 L76.2 -142.35 68.15 -142.2 Q67.65 -126.7 64.55 -111.3 L64.2 -110.5 Q63.25 -117.8 64.4 -127.05 65.45 -135.35 67.55 -142.15 L44.0 -141.0 41.2 -140.8 Q40.35 -123.25 38.4 -105.5 L38.25 -104.75 Q37.3 -120.6 39.2 -138.5 L39.25 -139.25 40.3 -140.7 28.35 -139.9 27.5 -134.75 27.3 -134.2 Q27.0 -133.9 26.5 -133.75 L26.85 -139.8 15.2 -139.05 13.25 -104.25 13.0 -103.75 Q11.6 -121.75 14.65 -139.0 L13.5 -138.95 2.95 -138.65 2.8 -137.75 2.75 -137.0 Q1.25 -135.9 1.25 -137.75 L1.3 -138.65 Q-7.4 -138.9 -15.5 -140.25 L1.4 -140.75 2.55 -177.95 -4.95 -177.15 Q-13.7 -176.1 -22.35 -177.45 -26.9 -178.2 -31.5 -176.75 L-31.2 -177.45 -30.5 -178.25 Q-20.8 -177.55 -10.95 -178.8 -12.85 -196.75 -10.45 -216.2 -10.4 -216.7 -9.75 -216.5 -9.15 -197.9 -10.5 -178.9 L2.6 -180.3 Q2.65 -180.7 3.25 -180.5 L3.3 -180.35 29.0 -181.6 32.0 -181.75 40.1 -181.5 40.5 -215.0 Q40.5 -215.45 41.25 -215.25 L42.25 -214.5 Q42.6 -198.05 40.55 -181.5 L55.15 -181.2 55.25 -181.25 55.25 -181.2 62.95 -181.1 Q62.35 -189.1 64.2 -198.3 66.1 -207.9 66.85 -217.7 L67.45 -217.75 M65.25 -179.8 L63.7 -179.85 63.6 -179.55 63.2 -178.75 63.1 -179.85 55.25 -180.1 Q55.25 -162.35 53.65 -144.5 L53.5 -143.75 53.2 -143.4 68.1 -143.95 68.2 -144.25 68.2 -143.95 70.95 -144.0 76.2 -144.05 Q76.05 -162.1 79.85 -179.6 72.55 -179.5 65.25 -179.8 M40.25 -179.3 L40.0 -178.75 40.05 -180.1 28.45 -179.8 Q31.5 -169.35 29.95 -157.85 29.15 -151.95 28.85 -146.0 L28.6 -142.0 44.0 -142.9 52.5 -143.4 Q52.85 -161.8 54.75 -180.1 L40.35 -180.1 40.25 -179.3 M3.55 -178.05 Q5.55 -159.65 3.25 -140.85 L26.95 -141.9 Q27.9 -160.95 27.75 -179.75 L3.55 -178.05 M37.25 -40.5 Q38.1 -26.0 35.2 -11.25 L35.0 -10.5 33.5 -9.5 Q34.8 -24.8 36.7 -40.2 L37.25 -40.5 M10.25 -42.25 Q11.1 -25.5 9.4 -8.5 L9.35 -8.05 Q27.55 -7.75 45.75 -7.75 L54.5 -6.75 Q39.6 -4.5 24.4 -5.35 26.1 9.2 22.8 23.5 L22.75 24.25 21.5 25.25 Q23.9 10.15 23.75 -5.4 L21.9 -5.55 -2.75 -6.75 -3.65 35.5 -3.75 36.25 Q-6.0 15.45 -3.55 -6.8 -19.35 -7.1 -34.5 -6.25 L-34.0 -6.45 -15.0 -8.35 -14.75 -8.35 -14.95 -23.5 -14.75 -39.25 Q-11.45 -23.85 -14.55 -8.5 L-14.6 -8.35 -13.0 -8.5 Q-1.9 -8.2 9.2 -8.05 6.85 -24.15 9.45 -42.0 9.5 -42.45 10.25 -42.25 M268.2 -115.25 Q267.6 -99.5 265.8 -83.7 L275.75 -83.5 275.8 -84.0 276.2 -84.25 276.3 -83.45 285.2 -83.25 Q287.45 -98.9 290.4 -115.0 290.5 -115.45 291.2 -115.25 290.35 -99.05 285.6 -83.25 L292.7 -83.05 Q296.85 -82.9 300.95 -83.05 L305.45 -82.75 Q291.05 -81.05 276.5 -81.1 277.55 -67.45 275.35 -53.95 L277.95 -54.25 Q286.75 -54.55 295.15 -52.55 L296.45 -52.0 274.85 -51.25 274.55 -49.75 274.45 -49.0 273.45 -48.75 273.6 -51.15 264.1 -50.45 Q263.25 -31.95 258.95 -13.75 L282.0 -12.3 Q284.15 -12.05 285.45 -10.75 L270.2 -11.35 Q270.1 8.5 268.5 28.7 L268.2 29.5 Q265.85 19.9 267.05 8.45 268.2 -2.1 269.85 -11.35 L258.4 -11.5 257.55 -8.3 257.2 -7.5 Q256.95 -9.35 257.0 -11.5 L246.2 -11.4 Q247.75 6.4 246.35 24.5 L246.2 25.25 Q244.0 7.95 245.55 -11.25 L245.6 -11.4 224.15 -10.45 223.35 17.5 223.2 18.25 Q220.75 4.6 223.2 -10.4 L213.0 -9.65 Q209.1 -9.3 206.45 -10.25 L207.0 -10.45 223.55 -12.3 Q223.7 -12.65 224.2 -12.5 L224.2 -12.35 235.95 -13.0 236.2 -13.0 Q235.45 -21.2 236.6 -31.45 237.55 -40.2 237.9 -47.7 225.65 -47.4 214.45 -51.25 L225.95 -50.6 Q225.6 -65.9 228.25 -81.4 L214.25 -80.35 214.25 -80.3 213.95 -79.75 213.9 -80.35 202.55 -79.1 Q195.8 -78.25 190.45 -80.25 L202.4 -81.75 213.75 -82.6 Q212.85 -97.7 216.4 -113.0 216.5 -113.45 217.2 -113.25 L214.5 -82.65 218.95 -82.95 228.65 -83.7 228.8 -84.65 229.45 -84.75 229.5 -83.8 232.95 -84.25 251.45 -84.0 Q251.5 -84.45 252.2 -84.25 L252.2 -83.95 264.7 -83.75 Q264.15 -99.3 267.4 -115.0 267.5 -115.45 268.2 -115.25 M244.2 -114.5 Q243.4 -100.0 239.55 -85.3 L239.2 -84.5 Q237.5 -91.1 239.2 -99.65 240.7 -107.1 243.4 -114.2 243.6 -114.7 244.2 -114.5 M214.2 -50.25 Q213.2 -32.2 209.55 -14.3 L209.2 -13.5 Q207.9 -13.8 207.95 -15.75 L207.95 -16.5 Q211.1 -33.45 212.7 -50.0 L212.95 -50.5 214.2 -50.25 M226.4 -50.6 Q238.2 -50.3 250.1 -51.25 248.9 -65.95 251.15 -81.85 240.3 -82.0 229.5 -81.45 229.55 -66.0 226.4 -50.6 M236.3 -13.0 L257.15 -13.8 Q257.3 -16.2 257.8 -18.9 260.7 -35.35 263.65 -50.4 L246.0 -48.4 239.2 -47.75 Q238.9 -30.55 236.4 -13.5 L236.3 -13.0 M265.25 -79.3 L264.95 -78.75 264.8 -81.45 252.2 -81.85 Q251.95 -66.7 250.5 -51.25 L259.75 -52.2 264.1 -52.7 264.2 -53.25 264.2 -52.7 273.7 -53.8 Q274.4 -67.35 275.55 -81.1 L265.5 -81.4 265.25 -79.3 M242.2 98.75 Q239.4 113.7 239.35 129.5 L239.35 129.55 249.95 130.75 249.55 131.25 220.25 131.05 Q220.85 142.25 219.1 154.0 218.5 158.1 218.2 162.25 215.55 147.55 218.1 131.4 L218.25 131.05 Q188.4 130.95 158.45 131.4 155.4 131.45 153.45 130.75 196.1 131.55 238.95 129.5 L239.1 129.5 Q236.55 115.1 240.2 99.4 240.4 98.65 240.95 98.5 L242.2 98.75 M210.2 98.75 L207.4 129.45 207.2 130.25 Q205.6 115.35 209.4 98.95 209.5 98.5 210.2 98.75 M184.7 101.0 Q184.95 114.9 183.25 128.7 L182.95 129.25 Q182.55 114.2 182.5 99.0 182.5 98.5 183.2 98.75 L184.2 100.25 184.7 101.0 M169.2 132.5 Q170.5 148.95 168.5 165.75 L171.45 165.75 Q197.05 165.85 221.95 163.25 L247.2 163.95 247.45 164.2 Q240.25 164.15 233.05 164.45 L233.2 164.45 Q233.35 177.75 231.4 191.45 L231.2 192.2 Q229.9 179.35 232.5 164.8 232.55 164.45 232.9 164.45 L207.8 166.35 206.2 166.55 Q207.2 183.5 203.55 200.25 L203.45 200.95 202.45 201.2 204.95 168.2 204.7 167.45 Q204.45 167.0 204.55 166.75 L183.25 167.95 Q183.45 182.2 182.25 196.7 L181.95 197.2 Q180.15 182.7 182.3 167.95 175.3 168.0 168.3 167.6 L168.25 167.7 167.95 168.2 167.9 167.6 149.55 165.8 Q148.0 165.55 147.45 164.7 L167.7 165.7 Q166.3 149.45 168.55 132.75 168.6 132.3 169.2 132.5 M192.2 132.5 Q195.95 148.3 192.3 164.7 L191.95 165.2 Q191.4 153.4 191.35 140.75 191.3 135.4 192.2 132.5 M-187.75 -165.5 Q-186.75 -151.1 -188.05 -136.8 -168.85 -136.65 -149.8 -134.05 L-149.5 -133.75 -176.75 -134.7 Q-177.05 -112.7 -179.6 -90.5 L-179.75 -89.75 Q-180.65 -111.45 -177.65 -134.7 L-188.25 -134.55 -188.75 -130.3 -189.0 -129.75 -188.95 -134.5 -202.5 -133.8 Q-200.9 -121.1 -203.55 -108.5 L-203.75 -107.75 Q-205.25 -113.5 -205.0 -121.3 -204.75 -128.35 -203.25 -133.75 L-204.45 -133.7 -213.15 -133.35 -213.6 -128.5 -213.75 -127.75 Q-214.4 -130.5 -214.7 -133.35 -224.35 -133.5 -233.5 -135.25 -224.25 -135.1 -214.85 -135.2 -215.35 -141.35 -214.45 -148.1 -213.75 -153.65 -213.95 -159.25 -214.1 -164.7 -212.75 -168.25 -211.9 -151.75 -213.05 -135.25 L-206.0 -135.45 Q-201.15 -135.6 -197.0 -136.75 L-188.95 -136.8 -189.0 -164.75 -189.25 -165.5 -189.3 -165.95 -189.0 -166.2 -188.75 -166.25 -187.75 -165.5 M-127.5 71.25 Q-152.3 71.55 -177.0 71.25 L-182.55 71.55 -193.25 72.45 -193.55 74.45 -193.75 75.25 -193.9 72.5 Q-202.4 72.8 -210.95 72.15 -211.75 72.1 -212.5 71.5 L-212.3 70.9 Q-212.15 70.75 -211.85 70.9 L-211.45 71.1 -211.0 71.25 Q-202.45 71.85 -193.95 71.3 -194.35 63.8 -193.9 55.0 -193.35 44.0 -191.75 34.75 -190.6 53.05 -193.05 71.2 -185.75 70.6 -178.5 69.1 L-173.0 68.0 -166.8 68.35 Q-168.2 52.45 -165.55 35.0 -165.45 34.5 -164.75 34.75 -165.15 51.45 -166.6 68.4 L-127.8 70.95 -127.5 71.25 M-126.0 73.25 L-124.95 72.35 -124.5 72.25 Q-122.05 93.75 -125.1 115.1 L-103.8 116.95 -103.5 117.25 -125.45 117.55 -125.5 118.0 -126.5 118.25 -126.5 117.55 -161.5 117.35 -163.65 117.35 Q-161.75 141.45 -164.6 165.6 L-163.0 165.45 -141.85 163.45 Q-141.95 160.6 -141.5 157.35 -140.0 147.0 -139.6 136.45 L-138.75 117.75 Q-135.7 140.5 -139.4 163.2 L-118.0 161.25 -95.8 161.95 -95.5 162.25 -123.65 163.6 Q-122.2 178.15 -125.05 192.45 L-125.25 193.2 -126.5 194.2 Q-124.9 179.3 -124.25 163.65 L-139.75 165.35 -140.55 169.45 -140.75 170.2 -141.7 165.6 -151.0 166.65 -151.25 166.95 Q-150.05 179.9 -152.15 192.5 L-152.25 193.95 -153.6 193.65 -153.75 193.2 Q-152.85 180.2 -152.7 166.85 L-178.65 168.35 Q-177.25 183.0 -178.75 197.7 L-179.0 198.2 Q-181.0 183.55 -179.55 168.4 L-192.55 168.4 -192.6 169.45 -192.75 170.2 -193.1 168.4 -207.0 167.85 Q-210.25 167.7 -212.5 166.7 -202.95 167.15 -193.35 167.05 -195.2 156.35 -194.85 144.0 -194.45 130.45 -192.85 118.75 L-193.55 118.8 Q-212.8 120.8 -231.7 118.35 L-233.5 117.75 -178.55 115.25 -179.15 76.0 Q-179.15 75.85 -178.75 75.75 L-177.75 77.25 -177.25 78.0 Q-176.7 96.65 -177.35 115.2 L-156.5 113.95 -154.0 113.75 -152.25 113.8 Q-152.3 94.3 -151.15 75.0 -151.15 74.85 -150.75 74.75 -149.55 94.2 -149.75 113.9 L-126.45 115.0 -126.0 74.0 -126.0 73.25 M-203.8 88.75 L-203.75 76.75 Q-201.05 96.15 -203.45 115.7 L-203.75 116.5 Q-206.7 107.6 -204.55 96.8 -203.75 92.85 -203.8 88.75 M-178.5 117.65 L-192.7 118.7 Q-191.25 142.9 -192.45 167.05 L-165.0 165.65 Q-165.5 141.95 -164.4 117.35 -170.95 117.3 -177.45 117.6 L-177.5 118.5 -177.5 119.25 -177.7 119.8 -178.5 120.25 -178.5 117.65" fill="#64552b" fill-rule="evenodd" stroke="none"/>
    <path d="M-131.8 -139.0 L-131.7 -139.0 -131.75 -138.75 -131.8 -139.0" fill="#5c5d57" fill-rule="evenodd" stroke="none"/>
    <path d="M16.0 -171.0 L12.5 -169.75 Q11.2 -168.05 9.5 -166.75 L9.25 -166.7 9.25 -163.75 9.25 -162.25 Q10.05 -160.35 12.1 -159.25 L12.5 -158.75 Q10.05 -157.35 7.5 -159.25 6.3 -161.65 6.65 -164.5 L6.75 -166.0 Q5.3 -169.2 3.0 -171.25 4.15 -172.7 6.5 -172.0 8.05 -170.85 8.7 -169.1 L8.75 -168.95 10.05 -169.7 Q10.75 -170.0 11.25 -170.75 13.3 -172.15 16.0 -172.75 L17.25 -172.5 17.65 -171.7 17.75 -171.25 20.25 -170.5 20.45 -169.9 23.25 -169.5 24.25 -168.75 Q24.95 -166.3 24.45 -163.5 L24.25 -162.75 Q23.05 -163.75 23.2 -166.5 L23.25 -167.25 20.75 -168.7 Q20.95 -167.4 20.75 -165.95 L20.25 -163.75 Q18.95 -164.35 19.05 -166.75 L19.25 -168.75 16.5 -169.5 16.25 -170.25 16.0 -171.0 M22.5 -38.0 L22.5 -38.15 21.6 -38.0 Q21.6 -37.4 21.75 -36.75 L21.2 -35.2 21.25 -34.5 Q22.45 -33.25 21.05 -32.15 L20.5 -31.5 20.35 -30.05 20.0 -28.75 Q19.15 -29.55 19.2 -30.75 19.2 -32.05 20.0 -33.0 L19.25 -33.75 19.25 -34.5 19.25 -35.25 19.25 -36.0 19.75 -36.7 19.5 -36.75 20.05 -37.8 19.35 -39.05 19.25 -39.75 Q18.35 -40.25 17.8 -41.0 17.55 -41.35 18.0 -41.5 19.85 -41.35 21.05 -39.8 L21.35 -39.45 23.25 -39.25 23.95 -38.5 24.5 -37.75 26.2 -37.25 26.75 -37.0 28.0 -37.5 30.25 -38.25 Q29.55 -36.3 27.0 -35.5 25.3 -36.05 23.5 -36.75 L22.95 -37.5 22.5 -38.0 M20.5 -26.65 L18.5 -26.75 17.75 -26.0 17.25 -25.25 16.75 -24.5 16.65 -23.0 16.35 -21.55 15.75 -20.0 14.8 -19.95 Q15.1 -18.95 16.0 -18.25 17.85 -18.1 20.1 -17.25 L20.5 -16.75 19.0 -16.0 17.0 -15.0 15.5 -15.25 13.35 -17.8 Q13.0 -18.25 13.0 -19.0 12.95 -20.6 10.7 -20.15 L9.25 -20.0 9.3 -20.75 Q9.65 -22.0 11.0 -22.0 L13.5 -21.75 14.25 -21.2 14.7 -21.2 Q15.0 -21.25 15.25 -21.5 L15.25 -23.0 15.25 -23.75 15.25 -25.25 16.25 -26.75 17.3 -28.2 18.0 -28.75 Q21.2 -27.85 24.5 -28.2 L25.25 -28.25 25.1 -27.6 24.5 -26.75 20.5 -26.65 M216.2 -75.25 Q218.0 -73.45 219.0 -71.4 L219.45 -70.0 219.35 -69.3 218.95 -69.0 Q218.7 -69.0 218.45 -69.25 218.45 -70.95 217.1 -72.1 215.9 -73.1 215.45 -74.25 L212.95 -75.25 211.7 -75.0 211.1 -73.6 210.45 -72.75 210.45 -72.0 210.45 -71.25 210.45 -70.75 209.95 -70.55 208.7 -70.0 208.5 -69.25 208.45 -68.75 Q207.0 -68.4 205.9 -67.65 L203.95 -66.5 202.95 -67.5 207.95 -70.8 208.95 -71.5 210.1 -74.65 Q210.65 -75.95 211.95 -76.5 L214.0 -75.85 216.2 -75.25 M221.95 -72.75 L225.2 -72.5 225.85 -71.7 226.45 -70.25 Q226.2 -70.0 226.0 -70.05 224.7 -70.1 224.2 -71.0 L222.7 -70.75 221.25 -66.85 Q220.6 -65.65 219.45 -64.75 215.4 -62.65 213.2 -65.5 213.35 -67.25 215.2 -66.65 L218.2 -66.25 219.5 -67.9 220.95 -70.0 221.05 -70.75 Q220.75 -72.25 221.95 -72.6 L221.95 -72.75 M263.45 4.0 L263.45 4.75 263.45 5.5 263.45 6.25 262.9 6.55 261.7 6.75 Q260.7 7.7 260.6 9.0 260.5 10.35 259.45 11.25 L259.5 11.9 258.7 13.5 258.7 14.25 258.7 15.0 258.15 15.7 256.7 17.25 Q255.6 17.25 254.8 16.7 254.45 16.5 254.45 15.75 L255.2 15.8 255.7 15.8 256.45 15.5 256.85 14.7 257.45 12.5 Q258.7 11.2 259.0 9.45 L259.2 7.25 260.3 5.85 261.95 4.25 262.35 3.7 262.6 3.05 262.95 2.5 265.2 2.75 266.0 3.45 266.95 4.25 267.1 4.8 266.45 5.25 265.95 4.75 264.45 3.75 263.45 4.0 M252.6 14.9 L253.7 16.25 253.7 17.0 253.7 18.5 253.75 18.75 255.2 18.75 255.3 20.25 Q255.3 21.7 255.7 23.0 L256.0 23.2 Q257.5 24.0 259.2 23.75 L259.05 24.35 258.2 25.25 257.0 24.7 254.7 23.5 254.55 22.7 254.45 21.25 254.1 20.75 252.45 20.5 251.8 17.55 Q251.55 16.4 251.45 15.25 L246.45 15.0 246.45 14.75 Q246.7 14.6 246.95 14.6 248.45 14.4 248.95 13.5 250.6 13.6 252.1 14.05 L252.45 14.5 252.6 14.9 M225.2 172.7 Q225.3 174.6 224.1 176.4 L223.45 177.2 223.45 178.0 224.2 178.45 226.7 182.95 227.2 183.7 Q224.6 183.55 223.35 180.2 L223.2 179.45 223.2 179.2 Q221.3 179.15 219.45 178.2 L218.2 176.95 216.45 176.95 217.2 178.45 Q217.65 180.65 217.3 182.95 L216.95 183.7 215.95 184.45 217.2 185.7 Q217.65 187.2 217.55 188.75 L217.45 191.7 223.2 192.1 223.45 192.45 223.65 193.1 224.45 193.95 224.45 194.7 224.45 196.2 224.4 196.6 223.45 196.45 223.35 195.75 222.45 193.45 Q221.85 191.35 218.75 193.05 L217.45 193.2 216.7 192.45 Q216.3 191.4 216.4 190.2 L216.45 187.2 215.9 186.5 214.45 184.95 214.3 184.5 Q213.45 184.1 212.45 183.95 L211.95 184.7 211.45 185.2 211.0 185.3 210.8 185.25 211.7 186.95 211.7 187.7 211.7 188.45 212.05 189.15 212.55 190.05 212.7 190.7 212.45 191.45 212.1 192.05 211.45 192.2 211.15 191.5 210.7 190.7 210.2 189.95 210.2 189.2 210.2 188.45 210.2 187.7 Q209.7 186.95 209.5 186.15 209.2 184.95 208.2 183.95 L208.2 183.2 208.2 182.45 208.2 181.2 Q205.35 181.6 203.85 179.8 203.15 179.0 203.95 178.45 L208.15 179.65 209.2 180.2 210.35 183.9 210.45 184.3 211.2 183.95 211.55 183.25 211.9 182.7 211.95 182.45 215.15 183.05 215.4 183.3 216.2 182.95 Q216.55 179.55 215.55 176.2 L215.45 175.7 218.2 175.7 219.95 176.95 220.5 176.8 221.2 176.7 222.2 177.2 Q223.4 176.2 223.75 174.8 223.85 174.35 224.2 173.95 L224.7 172.9 Q224.85 172.7 225.2 172.7 M-225.75 -170.25 Q-223.6 -168.4 -223.3 -165.75 L-223.25 -165.0 -224.05 -164.35 Q-224.65 -164.0 -225.25 -163.75 L-225.25 -162.25 -225.25 -161.5 -224.05 -159.35 -223.5 -158.5 Q-223.1 -157.4 -223.2 -156.25 L-223.25 -155.5 -222.75 -154.75 -222.25 -154.0 Q-222.1 -152.85 -222.4 -151.75 L-222.5 -151.0 Q-223.35 -149.6 -224.75 -148.75 L-226.2 -149.15 Q-225.85 -147.75 -225.95 -146.25 L-226.0 -145.5 Q-224.0 -145.75 -222.0 -146.5 L-221.25 -147.25 -220.75 -147.75 -217.5 -147.75 Q-215.0 -145.95 -214.25 -143.25 -214.5 -142.5 -215.0 -141.95 L-215.5 -141.75 Q-216.35 -144.5 -219.0 -145.5 -221.45 -144.5 -224.0 -143.0 L-226.75 -143.25 -227.45 -144.05 -228.0 -144.75 -228.1 -147.75 -228.25 -148.5 Q-228.9 -149.7 -230.45 -150.0 L-230.5 -150.25 Q-229.35 -150.9 -228.0 -150.8 L-227.5 -150.75 -226.5 -150.0 -226.25 -149.3 Q-224.9 -149.75 -224.0 -150.75 -223.85 -153.75 -224.65 -156.8 L-224.75 -157.5 Q-225.6 -158.75 -226.75 -159.75 L-226.75 -162.75 -226.75 -164.25 Q-225.6 -165.25 -224.75 -166.5 -226.35 -168.05 -226.45 -170.0 -226.45 -170.45 -225.75 -170.25 M-284.45 -20.25 L-284.5 -19.75 Q-287.55 -18.2 -288.5 -20.25 L-285.5 -21.0 -284.95 -21.75 -284.5 -22.25 Q-282.85 -23.1 -281.0 -22.8 L-280.5 -22.75 -280.05 -22.0 -279.75 -21.25 -278.9 -20.85 Q-278.6 -22.0 -277.5 -23.25 L-276.75 -24.0 Q-277.5 -25.8 -277.6 -27.75 L-277.75 -29.25 Q-276.5 -30.15 -275.05 -30.65 L-275.0 -30.75 Q-274.4 -30.5 -274.0 -30.05 L-274.0 -29.5 -276.5 -27.0 -275.8 -25.5 -275.5 -24.75 Q-276.15 -22.3 -278.0 -20.45 L-273.0 -18.0 -277.5 -17.25 Q-280.05 -18.8 -281.95 -20.8 L-282.0 -21.0 -284.25 -21.0 -284.45 -20.25 M-146.0 85.75 L-145.75 85.75 Q-144.65 88.25 -142.8 90.3 L-142.25 91.0 -142.35 92.45 -142.35 92.5 Q-139.45 92.6 -138.0 91.25 L-135.75 91.5 -135.1 92.3 -134.25 93.75 Q-133.5 94.1 -132.9 94.65 L-132.5 95.25 -132.7 95.8 -133.5 96.25 -136.05 94.0 -136.75 93.25 -142.5 94.25 -142.65 94.95 -143.0 95.5 -144.45 95.25 -146.75 97.75 Q-147.3 99.75 -147.05 102.25 L-147.0 103.75 -146.25 104.5 Q-145.85 105.95 -146.15 107.5 L-146.25 109.0 -148.1 111.95 -148.5 112.5 Q-150.6 113.4 -151.5 111.75 L-150.05 111.2 -149.0 110.75 -148.25 109.25 -147.75 108.5 -147.75 107.75 -147.75 107.0 -149.0 105.5 -148.9 99.5 -148.75 98.0 Q-146.6 94.5 -143.75 92.0 L-146.6 87.4 -146.75 86.75 -146.4 86.05 -146.0 85.75 M-135.5 80.5 L-135.25 81.25 Q-135.25 82.5 -136.25 83.5 -136.25 85.8 -135.6 88.0 L-135.5 88.75 Q-136.3 89.8 -136.5 91.0 L-137.5 90.5 -136.75 89.0 -137.5 87.5 Q-137.95 85.65 -137.8 83.75 L-137.75 83.0 -135.95 79.8 -135.75 79.75 -135.5 80.5 M-208.0 117.25 L-206.75 117.5 Q-207.15 119.6 -209.4 121.35 L-210.0 122.0 -208.5 124.25 -208.0 125.0 -208.0 128.75 -208.0 131.0 -208.55 131.7 -209.25 132.5 -210.25 132.75 Q-210.6 133.65 -210.55 134.75 L-210.5 135.5 Q-210.3 136.85 -208.75 137.75 -208.35 140.3 -208.45 143.0 L-208.5 144.5 -209.4 145.0 -208.75 145.5 Q-208.35 146.55 -208.45 147.75 L-208.5 148.5 -206.75 150.75 Q-206.35 153.3 -206.65 155.95 L-207.0 157.25 Q-207.85 155.75 -207.6 153.7 L-207.5 152.25 -209.5 149.25 Q-209.2 147.1 -210.05 145.3 -214.2 147.2 -219.25 148.0 L-219.75 149.15 -219.75 149.25 -219.8 149.25 -219.9 149.4 -220.5 150.25 -220.7 151.7 -221.0 152.25 Q-221.15 150.35 -220.75 148.95 L-226.5 148.25 -227.45 146.7 -227.75 146.0 -229.75 145.5 Q-231.75 147.0 -233.05 149.05 -233.15 149.25 -233.5 149.25 -233.2 146.6 -230.85 144.6 L-230.05 143.7 -230.0 143.5 -228.75 143.75 -228.0 144.45 -227.0 145.25 -226.6 146.0 -226.5 146.75 -220.75 147.75 -220.4 148.05 Q-218.65 144.6 -212.5 144.5 L-209.5 144.0 -209.5 140.25 -209.5 139.5 Q-210.0 137.95 -211.5 137.25 L-211.35 133.0 -218.5 134.25 Q-218.3 132.85 -217.3 131.95 L-216.5 131.25 -210.0 129.75 -210.0 127.5 -210.0 126.0 -211.3 123.75 -211.75 123.0 Q-211.35 119.8 -208.75 117.75 L-208.0 117.25 M-219.75 151.75 Q-219.35 153.55 -219.6 155.45 L-219.75 156.25 Q-221.05 155.0 -220.55 151.95 -220.45 151.5 -219.75 151.75" fill="#c6fa9a" fill-rule="evenodd" stroke="none"/>
  </g>
  <defs>
    <radialGradient cx="0" cy="0" gradientTransform="matrix(0.4268, 0.0, 0.0, 0.4268, 0.0, 0.0)" gradientUnits="userSpaceOnUse" id="gradient0" r="819.2" spreadMethod="pad">
      <stop offset="0.0" stop-color="#c9d19c"/>
      <stop offset="1.0" stop-color="#516233"/>
    </radialGradient>
  </defs>
</svg>
