<?xml version="1.0" encoding="UTF-8" standalone="no"?>
<svg xmlns:xlink="http://www.w3.org/1999/xlink" height="17.8px" width="142.8px" xmlns="http://www.w3.org/2000/svg">
  <g transform="matrix(1.0, 0.0, 0.0, 1.0, 73.4, 9.45)">
    <path d="M0.95 0.7 L2.4 0.25 Q3.0 -0.25 3.0 -1.1 3.0 -1.85 2.55 -2.25 L2.35 -2.35 3.0 -3.05 Q5.1 -4.9 8.2 -4.9 10.8 -4.9 12.5 -3.5 L13.5 -2.4 Q12.3 -2.95 10.75 -2.95 7.95 -2.95 6.05 -1.25 4.05 0.5 4.05 3.3 4.05 5.6 5.65 7.0 L6.35 7.5 Q4.1 7.35 2.6 6.05 L2.0 5.4 Q2.55 4.4 2.55 3.25 2.55 2.55 2.05 2.1 1.6 1.65 0.9 1.65 L0.85 1.65 0.95 0.7 M0.8 -2.65 L-3.15 -2.65 -3.0 -4.45 -3.0 -4.55 -1.05 -4.55 Q-0.25 -4.55 0.3 -4.1 0.8 -3.7 0.8 -2.9 L0.8 -2.65 M-5.85 -5.95 L-6.25 -5.6 Q-6.8 -5.0 -6.9 -4.05 L-7.7 3.3 -7.7 3.9 Q-7.7 5.85 -6.45 7.1 L-5.95 7.5 -6.0 7.5 Q-8.2 7.5 -9.6 6.15 -11.0 4.8 -11.0 2.6 L-11.0 2.0 -10.1 -6.1 Q-10.0 -7.15 -9.4 -7.8 -8.75 -8.6 -7.75 -8.6 -6.85 -8.6 -6.35 -8.0 -5.8 -7.45 -5.8 -6.55 L-5.85 -5.95 M0.25 1.75 Q-0.3 1.95 -0.65 2.45 L-1.45 3.95 Q-1.9 4.8 -2.75 4.8 L-3.5 4.45 -3.8 3.75 -3.75 3.4 -3.75 3.1 -3.6 1.8 -3.25 1.05 -2.95 0.7 -0.2 0.7 Q0.2 1.1 0.25 1.75 M26.7 7.15 Q24.45 7.05 23.05 5.85 21.5 4.5 21.5 2.05 L21.55 1.25 22.3 -6.15 Q22.5 -8.25 24.8 -8.25 L32.95 -8.25 Q35.0 -8.25 34.95 -6.55 L34.9 -6.0 27.85 -6.0 Q25.75 -6.0 25.55 -4.1 L24.85 2.6 24.8 3.35 Q24.8 5.6 26.25 6.8 L26.7 7.15 M37.1 -4.4 L38.05 -4.55 39.45 -4.55 Q40.3 -4.55 40.8 -4.1 41.35 -3.65 41.35 -2.8 L41.35 -2.65 40.9 -2.65 Q38.65 -2.65 38.65 0.1 38.65 0.9 38.8 1.45 L39.5 2.65 Q38.7 3.25 38.2 4.4 37.7 5.5 37.7 6.55 L37.8 7.15 36.6 7.15 35.75 7.05 36.0 6.15 36.25 4.2 Q36.25 3.45 35.75 3.0 L35.35 2.7 Q35.8 1.75 36.5 1.25 L35.75 -0.05 35.65 -0.7 36.2 -1.05 Q36.8 -1.55 36.9 -2.4 L37.1 -4.4 M42.2 -2.65 Q42.3 -3.45 42.85 -3.95 43.55 -4.55 44.5 -4.55 L45.9 -4.55 Q47.8 -4.55 47.9 -2.65 L46.75 -2.65 Q45.9 -2.65 45.25 -2.1 44.65 -1.55 44.65 -0.7 44.65 -0.2 44.95 0.2 45.3 0.7 45.75 0.65 45.05 1.25 44.15 1.3 43.15 1.3 42.45 0.65 43.05 0.7 43.45 0.1 43.9 -0.45 43.9 -1.05 43.9 -1.8 43.4 -2.2 42.9 -2.65 42.2 -2.65 M48.2 -2.65 Q48.3 -3.5 48.85 -4.0 49.45 -4.55 50.5 -4.55 L52.7 -4.55 53.1 -4.5 Q53.2 -4.0 53.6 -3.6 54.0 -3.15 54.65 -3.05 L54.6 -2.75 54.6 -2.65 53.15 -2.65 Q52.25 -2.65 51.65 -2.15 51.1 -1.6 51.1 -0.7 51.1 0.8 52.75 1.0 L52.4 4.35 Q51.5 4.3 50.95 4.9 50.35 5.45 50.35 6.35 L50.55 7.15 49.25 7.15 49.0 7.15 Q49.35 6.55 49.35 5.6 49.35 4.25 48.8 3.25 L49.65 3.15 50.05 -0.55 49.85 -0.55 49.85 -0.65 Q49.85 -2.55 48.2 -2.65 M53.0 -4.95 L52.55 -4.9 Q51.6 -4.9 50.95 -5.6 50.3 -6.3 50.3 -7.25 50.3 -8.15 50.95 -8.8 51.65 -9.45 52.55 -9.45 53.5 -9.45 54.15 -8.8 54.85 -8.15 54.85 -7.2 L54.85 -7.1 Q54.15 -7.05 53.6 -6.5 53.0 -5.9 53.0 -5.1 L53.0 -4.95 M56.45 -6.55 Q56.6 -7.3 57.05 -7.8 57.7 -8.6 58.7 -8.6 59.6 -8.6 60.1 -8.0 60.65 -7.45 60.65 -6.55 L60.6 -5.95 60.15 -5.6 Q59.6 -5.0 59.5 -4.05 L58.7 3.3 58.7 3.9 Q58.7 5.85 59.95 7.1 L60.45 7.5 Q58.25 7.5 56.85 6.15 L56.25 5.4 56.9 -0.75 56.9 -1.0 Q56.95 -1.75 56.45 -2.2 L55.95 -2.5 56.05 -3.2 56.5 -3.55 Q57.1 -4.2 57.1 -5.05 57.1 -5.9 56.5 -6.5 L56.45 -6.55 M63.4 -4.55 L65.4 -4.55 66.75 -4.1 Q67.25 -3.7 67.25 -2.9 L67.25 -2.65 63.25 -2.65 63.4 -4.45 63.4 -4.55 M66.25 0.7 Q66.65 1.1 66.7 1.75 66.1 1.9 65.75 2.45 L64.95 3.95 Q64.5 4.8 63.65 4.8 63.25 4.8 62.9 4.45 62.6 4.2 62.6 3.75 L62.65 3.4 62.65 3.1 62.8 1.9 63.2 1.05 63.5 0.7 66.25 0.7 M44.15 7.15 L43.25 7.15 42.8 7.1 43.05 6.2 42.75 5.25 Q42.4 4.85 41.9 4.75 42.8 4.05 43.8 4.05 44.85 4.05 45.45 4.75 44.85 4.8 44.4 5.35 44.0 5.85 44.0 6.5 L44.15 7.15 M31.8 -1.0 L29.2 -1.0 29.3 -2.35 31.1 -2.35 31.2 -2.25 Q31.8 -1.75 31.8 -1.0 M31.8 -2.35 L33.2 -2.35 32.5 -2.25 31.8 -2.35 M33.7 1.9 L34.0 2.55 33.15 3.0 Q32.6 3.5 32.6 4.3 L32.55 4.35 30.5 4.35 Q29.0 4.35 28.85 3.15 L30.0 3.15 30.05 3.05 30.15 2.6 31.95 2.6 Q32.85 2.6 33.5 2.05 L33.7 1.9 M-57.4 -6.45 L-57.65 -6.5 Q-58.65 -6.5 -59.35 -5.45 -60.3 -6.35 -62.35 -6.35 -65.65 -6.35 -68.05 -3.95 -70.45 -1.6 -70.45 1.7 -70.45 4.65 -68.5 6.5 L-67.25 7.45 Q-69.55 7.1 -71.2 5.5 -73.4 3.45 -73.4 0.2 -73.4 -3.45 -70.75 -6.0 -68.1 -8.6 -64.45 -8.6 -62.2 -8.6 -61.15 -7.65 -60.4 -8.8 -59.25 -8.8 -58.4 -8.8 -57.9 -8.3 -57.4 -7.75 -57.4 -6.9 L-57.4 -6.45 M-58.15 6.25 L-58.15 6.2 Q-56.8 4.9 -56.8 3.95 L-56.9 3.3 -56.15 3.15 -55.35 -4.3 -55.95 -4.35 -55.95 -4.8 Q-55.95 -5.55 -56.4 -6.0 -56.7 -6.3 -57.1 -6.4 -57.0 -7.15 -56.5 -7.65 -55.85 -8.25 -54.8 -8.25 L-52.65 -8.25 Q-51.8 -8.25 -51.3 -7.8 -50.75 -7.3 -50.85 -6.5 L-50.85 -6.0 -52.55 -6.0 Q-53.5 -6.0 -54.1 -5.45 -54.7 -4.9 -54.7 -4.0 -54.7 -3.25 -54.25 -2.8 -53.8 -2.35 -53.05 -2.4 L-53.8 4.35 Q-54.65 4.4 -55.25 4.95 -55.8 5.5 -55.8 6.4 L-55.65 7.15 -56.5 7.15 Q-57.35 7.15 -57.85 6.65 L-58.15 6.25 M-58.4 2.3 L-58.55 2.3 Q-59.1 2.3 -59.85 2.85 L-61.3 3.95 Q-62.2 4.5 -63.25 4.5 -64.55 4.5 -65.45 3.6 L-65.7 3.3 -65.4 3.3 Q-64.3 3.3 -63.3 2.65 L-61.7 1.5 Q-60.9 0.9 -60.25 0.9 -59.5 0.9 -58.9 1.4 -58.5 1.8 -58.4 2.3 M-48.95 -4.5 L-48.55 -4.55 -46.35 -4.55 -45.95 -4.5 -45.45 -3.6 Q-45.05 -3.15 -44.4 -3.05 L-44.45 -2.75 -44.45 -2.65 -45.9 -2.65 Q-46.8 -2.65 -47.4 -2.15 -47.95 -1.6 -47.95 -0.7 -47.95 0.8 -46.3 1.0 L-46.65 4.35 Q-47.55 4.3 -48.1 4.9 -48.7 5.45 -48.7 6.35 L-48.5 7.15 -49.8 7.15 -50.3 7.1 Q-50.1 6.7 -50.05 6.1 L-49.7 3.15 -49.4 3.15 -49.0 -0.55 -49.3 -0.6 -48.95 -4.15 -48.95 -4.4 -48.95 -4.5 M-46.05 -4.95 L-46.5 -4.9 Q-47.45 -4.9 -48.1 -5.6 -48.75 -6.3 -48.75 -7.25 -48.75 -8.15 -48.1 -8.8 -47.4 -9.45 -46.5 -9.45 -45.55 -9.45 -44.9 -8.8 -44.2 -8.15 -44.2 -7.2 L-44.2 -7.1 Q-44.9 -7.05 -45.45 -6.5 -46.05 -5.9 -46.05 -5.1 L-46.05 -4.95 M-42.6 -2.2 L-42.0 -2.9 Q-40.05 -4.95 -37.15 -4.95 -35.4 -4.95 -34.4 -4.1 L-34.4 -4.2 Q-33.9 -4.95 -32.9 -4.95 -31.05 -4.95 -31.05 -3.35 L-31.05 -2.95 -32.0 -2.3 -32.0 -2.2 Q-32.9 -3.0 -34.5 -3.0 -37.15 -3.0 -38.9 -1.1 -40.7 0.75 -40.7 3.4 -40.7 5.7 -39.1 7.05 L-38.5 7.5 Q-40.75 7.35 -42.2 6.1 L-42.8 5.5 -42.15 -0.75 -42.15 -1.0 Q-42.1 -1.75 -42.6 -2.2 M-29.9 -2.9 L-29.75 -4.25 Q-30.5 -4.2 -31.0 -4.75 -31.55 -5.35 -31.55 -6.05 -31.55 -7.0 -30.85 -7.65 -30.15 -8.25 -29.2 -8.25 L-27.15 -8.25 Q-25.2 -8.25 -25.2 -6.45 L-25.2 -6.15 -25.2 -6.0 -26.25 -6.0 Q-27.15 -6.0 -27.75 -5.45 -28.4 -4.9 -28.4 -4.0 -28.4 -3.35 -27.9 -2.8 -27.4 -2.3 -26.75 -2.35 L-27.65 6.1 -27.65 6.35 -27.55 7.15 -28.65 7.15 Q-30.1 7.15 -30.55 6.4 -29.95 5.7 -29.95 5.05 -29.95 4.4 -30.4 3.9 L-30.55 3.75 -30.45 2.55 -29.85 2.1 Q-29.3 1.6 -29.2 0.8 L-28.95 -1.55 Q-28.95 -2.65 -29.9 -2.9 M-22.65 -4.5 L-22.25 -4.55 -20.15 -4.55 Q-19.3 -4.55 -18.8 -4.1 -18.25 -3.6 -18.25 -2.75 L-18.25 -2.65 -19.9 -2.65 Q-20.75 -2.65 -21.45 -2.1 -22.1 -1.5 -22.1 -0.65 -22.1 0.65 -20.55 0.9 L-20.6 1.35 -23.2 1.35 -23.05 -0.15 -23.0 -0.15 -22.95 -0.65 -23.0 -0.65 -22.65 -4.1 -22.65 -4.35 -22.65 -4.5 M-21.7 7.15 L-22.5 7.15 Q-22.15 6.65 -22.15 6.0 -22.15 4.6 -23.5 4.4 L-23.45 3.8 -20.35 3.8 -20.45 4.4 Q-21.9 5.0 -21.9 6.4 L-21.7 7.15 M-33.05 1.25 L-33.5 1.25 Q-34.35 1.25 -34.85 0.65 L-34.35 0.6 Q-33.55 0.6 -33.1 1.15 L-33.05 1.25 M-36.5 3.3 L-35.55 2.8 Q-34.35 2.15 -33.95 2.15 -33.2 2.15 -32.65 2.65 -32.2 3.05 -32.1 3.6 L-33.05 4.05 Q-34.15 4.65 -34.7 4.65 -35.5 4.65 -36.0 4.15 L-36.5 3.3 M9.75 0.6 L10.4 0.5 Q11.2 0.5 11.65 1.0 12.15 1.55 12.15 2.35 12.15 3.4 11.55 4.1 10.9 4.9 9.9 4.9 9.15 4.9 8.65 4.35 L8.25 3.5 9.1 2.85 Q9.75 2.05 9.75 0.95 L9.75 0.6" fill="#000000" fill-rule="evenodd" stroke="none"/>
    <path d="M2.35 -2.35 L2.55 -2.25 Q3.0 -1.85 3.0 -1.1 3.0 -0.25 2.4 0.25 L0.95 0.7 -0.2 0.7 -2.95 0.7 -3.5 0.7 -3.6 1.8 -3.75 3.1 -3.75 3.4 -3.8 3.75 -3.5 4.45 -2.75 4.8 Q-1.9 4.8 -1.45 3.95 L-0.65 2.45 Q-0.3 1.95 0.25 1.75 L0.85 1.65 0.9 1.65 Q1.6 1.65 2.05 2.1 2.55 2.55 2.55 3.25 2.55 4.4 2.0 5.4 L0.7 6.9 Q-1.05 8.3 -3.2 8.3 -4.8 8.3 -5.95 7.5 L-6.45 7.1 Q-7.7 5.85 -7.7 3.9 L-7.7 3.3 -6.9 -4.05 Q-6.8 -5.0 -6.25 -5.6 L-5.85 -5.95 Q-5.4 -6.3 -4.75 -6.3 -3.95 -6.3 -3.45 -5.8 -3.05 -5.3 -3.0 -4.55 L-3.0 -4.45 -3.15 -2.65 0.8 -2.65 1.35 -2.65 2.35 -2.35 M13.5 -2.4 L14.65 -1.7 Q16.3 -0.3 16.3 2.0 16.3 4.8 14.25 6.6 12.35 8.3 9.5 8.3 7.65 8.3 6.35 7.5 L5.65 7.0 Q4.05 5.6 4.05 3.3 4.05 0.5 6.05 -1.25 7.95 -2.95 10.75 -2.95 12.3 -2.95 13.5 -2.4 M26.7 7.15 L26.25 6.8 Q24.8 5.6 24.8 3.35 L24.85 2.6 25.55 -4.1 Q25.75 -6.0 27.85 -6.0 L34.9 -6.0 35.25 -6.0 Q37.1 -6.0 37.1 -4.45 L37.1 -4.4 36.9 -2.4 Q36.8 -1.55 36.2 -1.05 L35.65 -0.7 34.8 -0.55 Q33.2 -0.55 33.2 -2.35 L31.8 -2.35 31.1 -2.35 29.3 -2.35 29.2 -1.0 31.8 -1.0 32.35 -1.0 33.65 -0.55 Q34.2 -0.1 34.2 0.65 34.2 1.35 33.7 1.9 L33.5 2.05 Q32.85 2.6 31.95 2.6 L30.15 2.6 28.8 2.6 28.8 2.8 28.85 3.15 Q29.0 4.35 30.5 4.35 L32.55 4.35 32.6 4.3 Q32.6 3.5 33.15 3.0 L34.0 2.55 34.5 2.5 35.35 2.7 35.75 3.0 Q36.25 3.45 36.25 4.2 L36.0 6.15 35.75 7.05 35.35 7.5 Q34.8 8.0 33.9 8.0 L29.85 8.0 Q27.95 8.0 26.7 7.15 M41.35 -2.65 L42.2 -2.65 Q42.9 -2.65 43.4 -2.2 43.9 -1.8 43.9 -1.05 43.9 -0.45 43.45 0.1 43.05 0.7 42.45 0.65 43.15 1.3 44.15 1.3 45.05 1.25 45.75 0.65 45.3 0.7 44.95 0.2 44.65 -0.2 44.65 -0.7 44.65 -1.55 45.25 -2.1 45.9 -2.65 46.75 -2.65 L47.9 -2.65 48.05 -2.65 48.2 -2.65 Q49.85 -2.55 49.85 -0.65 L49.85 -0.55 Q49.8 1.35 48.35 2.65 L48.8 3.25 Q49.35 4.25 49.35 5.6 49.35 6.55 49.0 7.15 48.45 8.0 47.1 8.0 L45.6 8.0 Q44.9 8.0 44.45 7.6 L44.15 7.15 44.0 6.5 Q44.0 5.85 44.4 5.35 44.85 4.8 45.45 4.75 44.85 4.05 43.8 4.05 42.8 4.05 41.9 4.75 42.4 4.85 42.75 5.25 L43.05 6.2 42.8 7.1 42.45 7.5 Q41.9 8.0 41.05 8.0 L39.6 8.0 Q38.15 8.0 37.8 7.15 L37.7 6.55 Q37.7 5.5 38.2 4.4 38.7 3.25 39.5 2.65 L38.8 1.45 Q38.65 0.9 38.65 0.1 38.65 -2.65 40.9 -2.65 L41.35 -2.65 M53.1 -4.5 L53.0 -4.95 53.0 -5.1 Q53.0 -5.9 53.6 -6.5 54.15 -7.05 54.85 -7.1 L55.05 -7.1 Q55.85 -7.1 56.45 -6.55 L56.5 -6.5 Q57.1 -5.9 57.1 -5.05 57.1 -4.2 56.5 -3.55 L56.05 -3.2 55.05 -3.0 54.65 -3.05 Q54.0 -3.15 53.6 -3.6 53.2 -4.0 53.1 -4.5 M60.6 -5.95 Q61.05 -6.3 61.65 -6.3 62.45 -6.3 62.95 -5.8 63.35 -5.3 63.4 -4.55 L63.4 -4.45 63.25 -2.65 67.25 -2.65 67.75 -2.65 Q68.45 -2.65 68.95 -2.25 69.4 -1.85 69.4 -1.1 69.4 -0.25 68.8 0.25 L67.3 0.7 66.25 0.7 63.5 0.7 62.9 0.7 62.8 1.9 62.65 3.1 62.65 3.4 62.6 3.75 Q62.6 4.2 62.9 4.45 63.25 4.8 63.65 4.8 64.5 4.8 64.95 3.95 L65.75 2.45 Q66.1 1.9 66.7 1.75 L67.3 1.65 Q68.0 1.65 68.45 2.1 68.95 2.55 68.95 3.25 68.95 5.35 67.1 6.9 65.35 8.3 63.2 8.3 61.6 8.3 60.45 7.5 L59.95 7.1 Q58.7 5.85 58.7 3.9 L58.7 3.3 59.5 -4.05 Q59.6 -5.0 60.15 -5.6 L60.6 -5.95 M56.25 5.4 L56.15 6.15 Q56.1 7.0 55.5 7.5 54.95 8.0 54.15 8.0 L52.05 8.0 50.85 7.55 50.55 7.15 50.35 6.35 Q50.35 5.45 50.95 4.9 51.5 4.3 52.4 4.35 L52.75 1.0 Q51.1 0.8 51.1 -0.7 51.1 -1.6 51.65 -2.15 52.25 -2.65 53.15 -2.65 L54.6 -2.65 55.2 -2.65 55.95 -2.5 56.45 -2.2 Q56.95 -1.75 56.9 -1.0 L56.9 -0.75 56.25 5.4 M-67.25 7.45 L-68.5 6.5 Q-70.45 4.65 -70.45 1.7 -70.45 -1.6 -68.05 -3.95 -65.65 -6.35 -62.35 -6.35 -60.3 -6.35 -59.35 -5.45 -58.65 -6.5 -57.65 -6.5 L-57.4 -6.45 -57.1 -6.4 Q-56.7 -6.3 -56.4 -6.0 -55.95 -5.55 -55.95 -4.8 L-55.95 -4.35 -56.25 -2.15 Q-56.75 -0.6 -58.05 -0.6 -58.75 -0.6 -59.4 -1.15 L-60.55 -2.05 Q-61.35 -2.55 -62.4 -2.55 -64.1 -2.55 -65.25 -1.4 -66.35 -0.25 -66.35 1.4 -66.35 2.5 -65.7 3.3 L-65.45 3.6 Q-64.55 4.5 -63.25 4.5 -62.2 4.5 -61.3 3.95 L-59.85 2.85 Q-59.1 2.3 -58.55 2.3 L-58.4 2.3 Q-57.8 2.35 -57.3 2.8 L-56.9 3.3 -56.8 3.95 Q-56.8 4.9 -58.15 6.2 L-58.15 6.25 Q-60.35 8.35 -63.6 8.35 -65.7 8.35 -67.25 7.45 M-55.65 7.15 L-55.8 6.4 Q-55.8 5.5 -55.25 4.95 -54.65 4.4 -53.8 4.35 L-53.05 -2.4 Q-53.8 -2.35 -54.25 -2.8 -54.7 -3.25 -54.7 -4.0 -54.7 -4.9 -54.1 -5.45 -53.5 -6.0 -52.55 -6.0 L-50.85 -6.0 -50.6 -6.0 -49.35 -5.55 Q-48.95 -5.2 -48.95 -4.5 L-48.95 -4.4 -48.95 -4.15 -49.3 -0.6 -49.7 3.15 -50.05 6.1 Q-50.1 6.7 -50.3 7.1 -50.8 8.0 -52.05 8.0 L-54.15 8.0 Q-54.85 8.0 -55.35 7.55 L-55.65 7.15 M-45.95 -4.5 L-46.05 -4.95 -46.05 -5.1 Q-46.05 -5.9 -45.45 -6.5 -44.9 -7.05 -44.2 -7.1 L-44.0 -7.1 Q-43.15 -7.1 -42.55 -6.5 -41.95 -5.9 -41.95 -5.05 -41.95 -4.2 -42.55 -3.55 -43.15 -3.0 -44.0 -3.0 L-44.4 -3.05 Q-45.05 -3.15 -45.45 -3.6 L-45.95 -4.5 M-44.45 -2.65 L-43.85 -2.65 Q-43.1 -2.65 -42.6 -2.2 -42.1 -1.75 -42.15 -1.0 L-42.15 -0.75 -42.8 5.5 -42.9 6.15 Q-42.95 7.0 -43.55 7.5 -44.1 8.0 -44.9 8.0 L-47.0 8.0 Q-47.7 8.0 -48.2 7.55 L-48.5 7.15 -48.7 6.35 Q-48.7 5.45 -48.1 4.9 -47.55 4.3 -46.65 4.35 L-46.3 1.0 Q-47.95 0.8 -47.95 -0.7 -47.95 -1.6 -47.4 -2.15 -46.8 -2.65 -45.9 -2.65 L-44.45 -2.65 M-31.05 -2.95 L-30.65 -3.0 -29.9 -2.9 Q-28.95 -2.65 -28.95 -1.55 L-29.2 0.8 Q-29.3 1.6 -29.85 2.1 L-30.45 2.55 -31.2 2.65 Q-31.95 2.65 -32.4 2.1 L-33.05 1.25 -33.1 1.15 Q-33.55 0.6 -34.35 0.6 L-34.85 0.65 Q-35.45 0.8 -35.9 1.25 -36.55 1.95 -36.55 2.85 L-36.5 3.3 -36.0 4.15 Q-35.5 4.65 -34.7 4.65 -34.15 4.65 -33.05 4.05 L-32.1 3.6 -31.55 3.45 Q-31.0 3.45 -30.55 3.75 L-30.4 3.9 Q-29.95 4.4 -29.95 5.05 -29.95 5.7 -30.55 6.4 L-31.2 7.0 Q-32.85 8.3 -35.3 8.3 -37.2 8.3 -38.5 7.5 L-39.1 7.05 Q-40.7 5.7 -40.7 3.4 -40.7 0.75 -38.9 -1.1 -37.15 -3.0 -34.5 -3.0 -32.9 -3.0 -32.0 -2.2 L-32.0 -2.3 -31.05 -2.95 M-25.2 -6.0 L-24.4 -6.0 Q-22.75 -6.0 -22.65 -4.5 L-22.65 -4.35 -22.65 -4.1 -23.0 -0.65 -23.05 -0.15 -23.2 1.35 -20.6 1.35 -20.55 0.9 Q-22.1 0.65 -22.1 -0.65 -22.1 -1.5 -21.45 -2.1 -20.75 -2.65 -19.9 -2.65 L-18.25 -2.65 -18.05 -2.65 Q-17.25 -2.65 -16.8 -2.2 -16.3 -1.75 -16.3 -1.0 -16.3 -0.15 -16.7 0.85 L-17.7 2.4 Q-17.15 2.95 -16.75 3.8 -16.4 4.65 -16.4 5.4 -16.4 8.0 -18.55 8.0 L-20.15 8.0 -21.4 7.55 -21.7 7.15 -21.9 6.4 Q-21.9 5.0 -20.45 4.4 L-20.35 3.8 -23.45 3.8 -23.5 4.4 Q-22.15 4.6 -22.15 6.0 -22.15 6.65 -22.5 7.15 L-22.75 7.45 Q-23.35 8.0 -24.2 8.0 L-25.75 8.0 Q-27.2 8.0 -27.55 7.15 L-27.65 6.35 -27.65 6.1 -26.75 -2.35 Q-27.4 -2.3 -27.9 -2.8 -28.4 -3.35 -28.4 -4.0 -28.4 -4.9 -27.75 -5.45 -27.15 -6.0 -26.25 -6.0 L-25.2 -6.0 M8.25 3.5 L8.65 4.35 Q9.15 4.9 9.9 4.9 10.9 4.9 11.55 4.1 12.15 3.4 12.15 2.35 12.15 1.55 11.65 1.0 11.2 0.5 10.4 0.5 L9.75 0.6 8.8 1.25 Q8.2 2.0 8.2 3.0 L8.25 3.5" fill="#ffffff" fill-rule="evenodd" stroke="none"/>
  </g>
</svg>
