<?xml version="1.0" encoding="UTF-8" standalone="no"?>
<svg xmlns:xlink="http://www.w3.org/1999/xlink" height="25.0px" width="75.0px" xmlns="http://www.w3.org/2000/svg">
  <g transform="matrix(1.0, 0.0, 0.0, 1.0, 37.5, 12.5)">
    <path d="M19.75 -0.15 L19.85 -1.1 Q20.45 -1.2 20.85 -1.7 21.25 -2.2 21.25 -2.8 21.25 -4.2 19.65 -4.2 L18.6 -4.2 Q16.85 -4.2 16.65 -2.45 L16.35 0.45 Q16.35 2.05 17.4 3.05 18.45 4.05 20.05 4.05 21.4 4.05 22.15 3.35 22.2 4.25 21.8 4.85 21.35 5.5 20.5 5.5 L19.05 4.75 Q18.05 4.0 17.6 4.0 17.0 4.0 16.5 4.5 16.05 5.0 16.05 5.6 16.05 6.85 17.55 7.8 18.95 8.65 20.3 8.65 22.55 8.65 23.95 7.15 25.25 5.8 25.5 3.45 L26.15 -2.6 26.15 -2.8 Q26.15 -4.2 24.6 -4.2 L23.3 -4.2 Q22.6 -4.2 22.05 -3.7 21.55 -3.2 21.55 -2.5 21.55 -1.95 21.85 -1.55 22.1 -1.15 22.65 -1.15 22.45 1.0 21.0 1.0 20.5 1.0 20.15 0.65 19.75 0.35 19.75 -0.15 M10.55 -0.25 Q10.8 -1.4 11.75 -1.4 12.3 -1.4 12.65 -0.7 L13.05 0.5 Q13.45 1.1 14.25 1.1 15.0 1.1 15.45 0.6 15.95 0.1 15.95 -0.7 15.95 -2.3 14.8 -3.4 13.65 -4.45 12.05 -4.45 10.05 -4.45 8.7 -3.2 7.4 -1.95 7.15 0.05 L7.05 1.4 6.85 3.45 Q6.85 4.05 7.25 4.45 7.65 4.85 8.3 4.85 L9.9 4.85 11.25 4.4 Q11.8 3.95 11.8 3.15 11.8 1.85 10.35 1.75 L10.55 -0.25 M1.35 -6.85 Q0.95 -7.3 0.25 -7.3 -0.55 -7.3 -1.05 -6.7 L-1.6 -5.4 -2.25 0.85 -2.25 1.35 Q-2.25 3.0 -1.2 4.05 -0.1 5.1 1.55 5.1 3.4 5.1 4.85 3.9 6.45 2.6 6.45 0.8 6.45 0.25 6.05 -0.15 5.65 -0.55 5.05 -0.55 4.2 -0.55 3.75 0.15 L3.05 1.4 Q2.7 2.1 1.95 2.1 L1.3 1.85 1.05 1.2 1.05 0.95 1.1 0.7 1.3 -1.35 5.05 -1.35 Q5.8 -1.35 6.3 -1.75 6.85 -2.15 6.85 -2.9 6.85 -3.5 6.45 -3.85 L5.4 -4.2 1.6 -4.2 1.75 -5.75 Q1.75 -6.4 1.35 -6.85 M32.0 -12.0 Q34.05 -12.0 35.5 -10.55 37.0 -9.05 37.0 -7.0 L37.0 7.0 Q37.0 9.05 35.5 10.5 34.05 12.0 32.0 12.0 L-32.0 12.0 Q-34.05 12.0 -35.55 10.5 -37.0 9.05 -37.0 7.0 L-37.0 -7.0 Q-37.0 -9.05 -35.55 -10.55 -34.05 -12.0 -32.0 -12.0 L32.0 -12.0 M-2.7 -0.6 Q-2.7 -2.35 -4.1 -3.45 -5.4 -4.5 -7.2 -4.5 -9.55 -4.5 -11.2 -2.95 -12.95 -1.4 -12.95 0.95 -12.95 2.9 -11.5 4.05 -10.2 5.15 -8.25 5.15 -7.05 5.15 -6.0 4.65 -4.7 4.0 -4.7 2.95 -4.7 2.4 -5.1 2.05 -5.45 1.65 -6.0 1.65 L-6.9 1.85 -7.8 2.05 Q-9.0 2.05 -9.3 1.15 L-4.45 1.15 Q-3.65 1.15 -3.15 0.65 -2.7 0.2 -2.7 -0.6 M-6.15 -0.5 L-9.1 -0.5 Q-8.7 -1.7 -7.45 -1.7 -6.95 -1.7 -6.55 -1.35 -6.15 -1.0 -6.15 -0.5 M-16.65 -4.05 Q-16.3 -3.75 -16.3 -3.25 -16.3 -2.65 -16.7 -2.35 -17.1 -2.0 -17.7 -2.0 L-19.2 -2.0 -18.9 -3.6 Q-18.6 -4.35 -17.5 -4.35 -17.0 -4.4 -16.65 -4.05 M-20.85 -6.05 Q-22.25 -4.85 -22.45 -2.7 L-23.1 3.3 -23.1 3.5 Q-23.1 4.85 -21.7 4.85 L-19.95 4.85 -19.5 0.9 -18.9 0.9 -17.35 4.45 -16.85 4.85 -15.05 4.85 Q-14.2 4.85 -13.65 4.4 -13.1 3.95 -13.1 3.15 -13.1 2.35 -13.7 2.0 L-15.05 1.75 -15.6 0.4 Q-14.5 -0.1 -13.85 -1.2 -13.2 -2.3 -13.2 -3.5 -13.2 -5.25 -14.4 -6.3 -15.55 -7.3 -17.35 -7.3 -19.5 -7.3 -20.85 -6.05" fill="#ffffff" fill-opacity="0.5019608" fill-rule="evenodd" stroke="none"/>
    <path d="M1.35 -6.85 Q1.75 -6.4 1.75 -5.75 L1.6 -4.2 5.4 -4.2 6.45 -3.85 Q6.85 -3.5 6.85 -2.9 6.85 -2.15 6.3 -1.75 5.8 -1.35 5.05 -1.35 L1.3 -1.35 1.1 0.7 1.05 0.95 1.05 1.2 1.3 1.85 1.95 2.1 Q2.7 2.1 3.05 1.4 L3.75 0.15 Q4.2 -0.55 5.05 -0.55 5.65 -0.55 6.05 -0.15 6.45 0.25 6.45 0.8 6.45 2.6 4.85 3.9 3.4 5.1 1.55 5.1 -0.1 5.1 -1.2 4.05 -2.25 3.0 -2.25 1.35 L-2.25 0.85 -1.6 -5.4 -1.05 -6.7 Q-0.55 -7.3 0.25 -7.3 0.95 -7.3 1.35 -6.85 M10.55 -0.25 L10.35 1.75 Q11.8 1.85 11.8 3.15 11.8 3.95 11.25 4.4 L9.9 4.85 8.3 4.85 Q7.65 4.85 7.25 4.45 6.85 4.05 6.85 3.45 L7.05 1.4 7.15 0.05 Q7.4 -1.95 8.7 -3.2 10.05 -4.45 12.05 -4.45 13.65 -4.45 14.8 -3.4 15.95 -2.3 15.95 -0.7 15.95 0.1 15.45 0.6 15.0 1.1 14.25 1.1 13.45 1.1 13.05 0.5 L12.65 -0.7 Q12.3 -1.4 11.75 -1.4 10.8 -1.4 10.55 -0.25 M19.75 -0.15 Q19.75 0.35 20.15 0.65 20.5 1.0 21.0 1.0 22.45 1.0 22.65 -1.15 22.1 -1.15 21.85 -1.55 21.55 -1.95 21.55 -2.5 21.55 -3.2 22.05 -3.7 22.6 -4.2 23.3 -4.2 L24.6 -4.2 Q26.15 -4.2 26.15 -2.8 L26.15 -2.6 25.5 3.45 Q25.25 5.8 23.95 7.15 22.55 8.65 20.3 8.65 18.95 8.65 17.55 7.8 16.05 6.85 16.05 5.6 16.05 5.0 16.5 4.5 17.0 4.0 17.6 4.0 18.05 4.0 19.05 4.75 L20.5 5.5 Q21.35 5.5 21.8 4.85 22.2 4.25 22.15 3.35 21.4 4.05 20.05 4.05 18.45 4.05 17.4 3.05 16.35 2.05 16.35 0.45 L16.65 -2.45 Q16.85 -4.2 18.6 -4.2 L19.65 -4.2 Q21.25 -4.2 21.25 -2.8 21.25 -2.2 20.85 -1.7 20.45 -1.2 19.85 -1.1 L19.75 -0.15 M-20.85 -6.05 Q-19.5 -7.3 -17.35 -7.3 -15.55 -7.3 -14.4 -6.3 -13.2 -5.25 -13.2 -3.5 -13.2 -2.3 -13.85 -1.2 -14.5 -0.1 -15.6 0.4 L-15.05 1.75 -13.7 2.0 Q-13.1 2.35 -13.1 3.15 -13.1 3.95 -13.65 4.4 -14.2 4.85 -15.05 4.85 L-16.85 4.85 -17.35 4.45 -18.9 0.9 -19.5 0.9 -19.95 4.85 -21.7 4.85 Q-23.1 4.85 -23.1 3.5 L-23.1 3.3 -22.45 -2.7 Q-22.25 -4.85 -20.85 -6.05 M-16.65 -4.05 Q-17.0 -4.4 -17.5 -4.35 -18.6 -4.35 -18.9 -3.6 L-19.2 -2.0 -17.7 -2.0 Q-17.1 -2.0 -16.7 -2.35 -16.3 -2.65 -16.3 -3.25 -16.3 -3.75 -16.65 -4.05 M-6.15 -0.5 Q-6.15 -1.0 -6.55 -1.35 -6.95 -1.7 -7.45 -1.7 -8.7 -1.7 -9.1 -0.5 L-6.15 -0.5 M-2.7 -0.6 Q-2.7 0.2 -3.15 0.65 -3.65 1.15 -4.45 1.15 L-9.3 1.15 Q-9.0 2.05 -7.8 2.05 L-6.9 1.85 -6.0 1.65 Q-5.45 1.65 -5.1 2.05 -4.7 2.4 -4.7 2.95 -4.7 4.0 -6.0 4.65 -7.05 5.15 -8.25 5.15 -10.2 5.15 -11.5 4.05 -12.95 2.9 -12.95 0.95 -12.95 -1.4 -11.2 -2.95 -9.55 -4.5 -7.2 -4.5 -5.4 -4.5 -4.1 -3.45 -2.7 -2.35 -2.7 -0.6" fill="#000000" fill-opacity="0.5019608" fill-rule="evenodd" stroke="none"/>
    <path d="M32.0 -12.0 L-32.0 -12.0 Q-34.05 -12.0 -35.55 -10.55 -37.0 -9.05 -37.0 -7.0 L-37.0 7.0 Q-37.0 9.05 -35.55 10.5 -34.05 12.0 -32.0 12.0 L32.0 12.0 Q34.05 12.0 35.5 10.5 37.0 9.05 37.0 7.0 L37.0 -7.0 Q37.0 -9.05 35.5 -10.55 34.05 -12.0 32.0 -12.0 Z" fill="none" stroke="#000000" stroke-linecap="round" stroke-linejoin="round" stroke-opacity="0.5019608" stroke-width="1.0"/>
  </g>
</svg>
