<?xml version="1.0" encoding="UTF-8" standalone="no"?>
<svg xmlns:xlink="http://www.w3.org/1999/xlink" height="25.0px" width="75.0px" xmlns="http://www.w3.org/2000/svg">
  <g transform="matrix(1.0, 0.0, 0.0, 1.0, 37.5, 12.5)">
    <path d="M9.8 -3.35 Q7.65 -3.35 6.25 -2.3 5.05 -1.35 4.65 0.5 L4.25 3.75 4.2 4.65 Q4.2 6.0 5.65 6.0 L6.8 6.0 Q7.6 6.0 8.15 5.5 8.75 5.05 8.75 4.3 L8.45 3.4 Q8.15 3.05 7.7 2.95 L7.9 1.1 Q7.95 0.5 8.35 0.15 8.8 -0.25 9.4 -0.25 10.6 -0.25 10.6 1.05 L10.4 2.95 Q9.8 3.05 9.4 3.5 9.05 3.95 9.05 4.55 9.05 5.2 9.5 5.6 9.95 6.0 10.6 6.0 L11.85 6.0 Q13.45 6.0 13.6 4.35 L14.0 0.65 14.0 0.4 Q14.0 -1.45 12.8 -2.45 11.7 -3.35 9.8 -3.35 M19.7 -1.6 Q19.7 -3.05 18.05 -3.05 L16.1 -2.9 Q15.25 -2.55 15.15 -1.35 L14.75 2.2 14.75 2.7 Q14.75 4.5 15.95 5.45 17.0 6.25 18.85 6.25 23.75 6.25 24.15 1.9 L24.45 -1.25 24.5 -1.7 Q24.5 -3.05 22.9 -3.05 L21.9 -3.05 Q21.1 -3.05 20.55 -2.6 19.95 -2.15 19.95 -1.35 19.95 -0.3 21.0 0.05 L20.8 1.95 Q20.6 3.3 19.3 3.3 18.8 3.3 18.45 2.95 18.1 2.6 18.1 2.1 L18.3 0.05 Q19.7 -0.3 19.7 -1.6 M32.0 -12.0 Q34.05 -12.0 35.5 -10.55 37.0 -9.05 37.0 -7.0 L37.0 7.0 Q37.0 9.05 35.5 10.5 34.05 12.0 32.0 12.0 L-32.0 12.0 Q-34.05 12.0 -35.55 10.5 -37.0 9.05 -37.0 7.0 L-37.0 -7.0 Q-37.0 -9.05 -35.55 -10.55 -34.05 -12.0 -32.0 -12.0 L32.0 -12.0 M-20.95 -4.8 Q-22.4 -3.4 -22.65 -1.1 L-23.2 4.35 -23.25 4.6 Q-23.25 6.0 -21.75 6.0 L-19.65 5.85 Q-18.55 5.5 -18.55 4.25 -18.55 3.75 -18.9 3.35 -19.25 2.9 -19.75 2.9 L-19.35 -1.35 Q-19.15 -3.15 -17.6 -3.15 -17.0 -3.15 -16.65 -2.75 -16.3 -2.35 -16.3 -1.7 L-16.3 -1.4 -16.75 2.9 Q-17.45 3.0 -17.85 3.5 -18.25 3.95 -18.25 4.6 L-17.8 5.65 -16.75 6.0 -14.1 6.0 Q-13.35 6.0 -12.85 5.5 -12.3 5.05 -12.3 4.25 -12.3 3.75 -12.6 3.35 -12.95 2.95 -13.45 2.95 L-13.0 -1.4 -12.45 -2.65 Q-12.0 -3.15 -11.3 -3.15 -10.75 -3.15 -10.35 -2.8 -9.95 -2.45 -9.95 -1.9 L-10.0 -1.35 -10.45 2.9 Q-11.1 2.9 -11.5 3.45 -11.95 3.95 -11.95 4.6 -11.95 5.25 -11.55 5.6 -11.15 6.0 -10.55 6.0 L-8.45 5.9 Q-7.4 5.6 -7.25 4.35 L-6.7 -1.1 -6.65 -1.85 Q-6.65 -3.85 -7.85 -5.0 -9.05 -6.2 -11.05 -6.2 L-12.85 -5.8 -14.3 -4.65 Q-15.15 -6.2 -17.25 -6.2 -19.5 -6.2 -20.95 -4.8 M0.2 -0.2 Q0.6 0.15 0.6 0.65 L-2.35 0.65 Q-1.95 -0.55 -0.7 -0.55 L0.2 -0.2 M0.75 5.8 Q2.05 5.15 2.05 4.1 2.05 3.55 1.65 3.2 1.3 2.8 0.75 2.8 L-0.15 3.0 -1.05 3.2 Q-2.25 3.2 -2.55 2.3 L2.3 2.3 Q3.1 2.3 3.6 1.8 4.05 1.35 4.05 0.55 4.05 -1.2 2.65 -2.3 1.35 -3.35 -0.45 -3.35 -2.8 -3.35 -4.45 -1.8 -6.2 -0.25 -6.2 2.1 -6.2 4.05 -4.75 5.2 -3.45 6.3 -1.5 6.3 -0.3 6.3 0.75 5.8" fill="#ffffff" fill-opacity="0.5019608" fill-rule="evenodd" stroke="none"/>
    <path d="M19.7 -1.6 Q19.7 -0.3 18.3 0.05 L18.1 2.1 Q18.1 2.6 18.45 2.95 18.8 3.3 19.3 3.3 20.6 3.3 20.8 1.95 L21.0 0.05 Q19.95 -0.3 19.95 -1.35 19.95 -2.15 20.55 -2.6 21.1 -3.05 21.9 -3.05 L22.9 -3.05 Q24.5 -3.05 24.5 -1.7 L24.45 -1.25 24.15 1.9 Q23.75 6.25 18.85 6.25 17.0 6.25 15.95 5.45 14.75 4.5 14.75 2.7 L14.75 2.2 15.15 -1.35 Q15.25 -2.55 16.1 -2.9 L18.05 -3.05 Q19.7 -3.05 19.7 -1.6 M9.8 -3.35 Q11.7 -3.35 12.8 -2.45 14.0 -1.45 14.0 0.4 L14.0 0.65 13.6 4.35 Q13.45 6.0 11.85 6.0 L10.6 6.0 Q9.95 6.0 9.5 5.6 9.05 5.2 9.05 4.55 9.05 3.95 9.4 3.5 9.8 3.05 10.4 2.95 L10.6 1.05 Q10.6 -0.25 9.4 -0.25 8.8 -0.25 8.35 0.15 7.95 0.5 7.9 1.1 L7.7 2.95 Q8.15 3.05 8.45 3.4 L8.75 4.3 Q8.75 5.05 8.15 5.5 7.6 6.0 6.8 6.0 L5.65 6.0 Q4.2 6.0 4.2 4.65 L4.25 3.75 4.65 0.5 Q5.05 -1.35 6.25 -2.3 7.65 -3.35 9.8 -3.35 M0.75 5.8 Q-0.3 6.3 -1.5 6.3 -3.45 6.3 -4.75 5.2 -6.2 4.05 -6.2 2.1 -6.2 -0.25 -4.45 -1.8 -2.8 -3.35 -0.45 -3.35 1.35 -3.35 2.65 -2.3 4.05 -1.2 4.05 0.55 4.05 1.35 3.6 1.8 3.1 2.3 2.3 2.3 L-2.55 2.3 Q-2.25 3.2 -1.05 3.2 L-0.15 3.0 0.75 2.8 Q1.3 2.8 1.65 3.2 2.05 3.55 2.05 4.1 2.05 5.15 0.75 5.8 M0.2 -0.2 L-0.7 -0.55 Q-1.95 -0.55 -2.35 0.65 L0.6 0.65 Q0.6 0.15 0.2 -0.2 M-20.95 -4.8 Q-19.5 -6.2 -17.25 -6.2 -15.15 -6.2 -14.3 -4.65 L-12.85 -5.8 -11.05 -6.2 Q-9.05 -6.2 -7.85 -5.0 -6.65 -3.85 -6.65 -1.85 L-6.7 -1.1 -7.25 4.35 Q-7.4 5.6 -8.45 5.9 L-10.55 6.0 Q-11.15 6.0 -11.55 5.6 -11.95 5.25 -11.95 4.6 -11.95 3.95 -11.5 3.45 -11.1 2.9 -10.45 2.9 L-10.0 -1.35 -9.95 -1.9 Q-9.95 -2.45 -10.35 -2.8 -10.75 -3.15 -11.3 -3.15 -12.0 -3.15 -12.45 -2.65 L-13.0 -1.4 -13.45 2.95 Q-12.95 2.95 -12.6 3.35 -12.3 3.75 -12.3 4.25 -12.3 5.05 -12.85 5.5 -13.35 6.0 -14.1 6.0 L-16.75 6.0 -17.8 5.65 -18.25 4.6 Q-18.25 3.95 -17.85 3.5 -17.45 3.0 -16.75 2.9 L-16.3 -1.4 -16.3 -1.7 Q-16.3 -2.35 -16.65 -2.75 -17.0 -3.15 -17.6 -3.15 -19.15 -3.15 -19.35 -1.35 L-19.75 2.9 Q-19.25 2.9 -18.9 3.35 -18.55 3.75 -18.55 4.25 -18.55 5.5 -19.65 5.85 L-21.75 6.0 Q-23.25 6.0 -23.25 4.6 L-23.2 4.35 -22.65 -1.1 Q-22.4 -3.4 -20.95 -4.8" fill="#000000" fill-opacity="0.5019608" fill-rule="evenodd" stroke="none"/>
    <path d="M32.0 -12.0 L-32.0 -12.0 Q-34.05 -12.0 -35.55 -10.55 -37.0 -9.05 -37.0 -7.0 L-37.0 7.0 Q-37.0 9.05 -35.55 10.5 -34.05 12.0 -32.0 12.0 L32.0 12.0 Q34.05 12.0 35.5 10.5 37.0 9.05 37.0 7.0 L37.0 -7.0 Q37.0 -9.05 35.5 -10.55 34.05 -12.0 32.0 -12.0 Z" fill="none" stroke="#000000" stroke-linecap="round" stroke-linejoin="round" stroke-opacity="0.5019608" stroke-width="1.0"/>
  </g>
</svg>
