<?xml version="1.0" encoding="UTF-8" standalone="no"?>
<svg xmlns:xlink="http://www.w3.org/1999/xlink" height="24.5px" width="87.35px" xmlns="http://www.w3.org/2000/svg">
  <g transform="matrix(1.0, 0.0, 0.0, 1.0, 43.15, 12.25)">
    <path d="M-16.25 -12.0 L-16.25 -1.65 -16.5 -0.45 -16.85 2.8 -16.85 3.15 Q-16.85 4.05 -16.25 4.35 L-16.25 12.0 -37.05 12.0 Q-39.45 12.0 -41.2 10.5 -42.9 9.05 -42.9 7.0 L-42.9 -7.0 Q-42.9 -9.05 -41.2 -10.55 -39.45 -12.0 -37.05 -12.0 L-16.25 -12.0 M-21.5 -4.85 Q-23.85 -4.85 -25.5 -3.3 -27.25 -1.75 -27.25 0.6 -27.25 2.55 -25.8 3.7 -24.5 4.8 -22.55 4.8 -21.35 4.8 -20.3 4.3 -19.0 3.65 -19.0 2.6 -19.0 2.05 -19.4 1.7 -19.75 1.3 -20.3 1.3 L-21.2 1.5 -22.1 1.7 Q-23.3 1.7 -23.6 0.8 L-18.75 0.8 Q-17.95 0.8 -17.45 0.3 -17.0 -0.15 -17.0 -0.95 -17.0 -2.7 -18.4 -3.8 -19.7 -4.85 -21.5 -4.85 M-23.4 -0.85 Q-23.0 -2.05 -21.75 -2.05 -21.25 -2.05 -20.85 -1.7 -20.45 -1.35 -20.45 -0.85 L-23.4 -0.85 M-30.95 -4.4 Q-30.6 -4.1 -30.6 -3.6 -30.6 -3.0 -31.0 -2.7 -31.4 -2.35 -32.0 -2.35 L-33.5 -2.35 -33.2 -3.95 Q-32.9 -4.7 -31.8 -4.7 -31.3 -4.75 -30.95 -4.4 M-31.65 -7.65 Q-33.8 -7.65 -35.15 -6.4 -36.55 -5.2 -36.75 -3.05 L-37.4 2.95 -37.4 3.15 -37.25 3.9 Q-36.95 4.5 -36.0 4.5 L-34.25 4.5 -33.8 0.55 -33.2 0.55 -31.65 4.1 -31.15 4.5 -29.35 4.5 Q-28.5 4.5 -27.95 4.05 -27.4 3.6 -27.4 2.8 -27.4 2.0 -28.0 1.65 -28.55 1.35 -29.35 1.4 L-29.9 0.05 Q-28.8 -0.45 -28.15 -1.55 -27.5 -2.65 -27.5 -3.85 -27.5 -5.6 -28.7 -6.65 -29.85 -7.65 -31.65 -7.65" fill="url(#gradient0)" fill-rule="evenodd" stroke="none"/>
    <path d="M2.15 -1.15 Q1.6 -0.6 1.6 0.15 1.6 0.85 2.0 1.25 L3.1 1.7 Q3.9 1.7 4.45 1.15 5.05 0.55 5.05 -0.2 5.05 -0.85 4.6 -1.3 4.2 -1.75 3.5 -1.75 2.75 -1.75 2.15 -1.15 M7.1 -3.6 Q8.35 -2.4 8.35 -0.5 L8.2 1.35 9.05 1.75 Q9.4 2.0 9.4 2.6 9.4 3.45 8.9 4.0 8.45 4.5 7.65 4.5 L6.2 4.5 Q5.05 4.5 5.0 3.75 3.9 4.75 2.2 4.75 0.45 4.75 -0.6 3.55 -1.7 2.35 -1.7 0.6 -1.7 -1.75 -0.05 -3.25 1.6 -4.8 3.95 -4.8 5.9 -4.8 7.1 -3.6 M12.15 -7.65 Q12.85 -7.65 13.25 -7.2 13.65 -6.75 13.65 -6.1 L13.5 -4.55 17.3 -4.55 Q17.95 -4.55 18.35 -4.2 18.75 -3.85 18.75 -3.25 18.75 -2.5 18.2 -2.1 17.7 -1.7 16.95 -1.7 L13.2 -1.7 13.0 0.35 12.95 0.6 12.95 0.85 13.2 1.5 13.85 1.75 Q14.6 1.75 14.95 1.05 L15.65 -0.2 Q16.1 -0.9 16.95 -0.9 17.55 -0.9 17.95 -0.5 18.35 -0.1 18.35 0.45 18.35 2.25 16.75 3.55 15.3 4.75 13.45 4.75 11.8 4.75 10.7 3.7 9.65 2.65 9.65 1.0 L9.65 0.5 10.3 -5.75 Q10.4 -6.55 10.85 -7.05 11.35 -7.65 12.15 -7.65 M30.15 -7.4 L31.75 -7.4 Q33.25 -7.4 33.25 -6.15 L33.0 -3.9 Q34.15 -4.8 35.6 -4.8 37.05 -4.8 37.95 -4.0 38.95 -3.15 38.95 -1.75 L38.95 -1.4 38.45 2.9 Q38.3 4.5 36.75 4.5 L35.35 4.5 Q34.7 4.5 34.3 4.1 33.85 3.75 33.85 3.1 33.85 2.45 34.25 2.0 34.65 1.55 35.3 1.4 L35.5 -0.4 35.15 -1.35 34.2 -1.7 Q32.75 -1.7 32.55 0.05 L32.45 1.4 Q33.55 1.65 33.55 2.8 33.55 3.5 33.05 4.0 32.55 4.5 31.85 4.5 L30.45 4.5 Q28.85 4.5 28.95 3.2 L28.95 2.9 29.75 -4.35 Q28.35 -4.5 28.35 -5.75 28.35 -6.45 28.9 -6.95 29.4 -7.4 30.15 -7.4 M26.15 -4.25 Q26.55 -4.85 27.3 -4.85 28.7 -4.85 28.7 -3.6 L28.5 -1.65 Q28.4 -0.95 27.95 -0.5 27.5 -0.05 26.8 -0.05 26.2 -0.05 25.8 -0.5 L25.2 -1.35 24.15 -1.8 Q23.35 -1.8 22.8 -1.25 22.3 -0.65 22.3 0.1 22.3 0.8 22.7 1.25 23.15 1.65 23.85 1.65 24.35 1.65 25.25 1.15 26.2 0.65 26.5 0.65 27.05 0.65 27.5 1.05 27.9 1.4 27.9 2.0 27.9 2.8 26.8 3.65 25.4 4.75 23.35 4.75 21.35 4.75 20.1 3.7 18.75 2.55 18.75 0.6 18.75 -1.65 20.25 -3.25 21.75 -4.85 24.0 -4.85 25.35 -4.85 26.15 -4.2 L26.15 -4.25 M-16.25 -1.65 Q-15.85 -2.8 -15.0 -3.6 -13.65 -4.8 -11.7 -4.8 -9.95 -4.8 -9.1 -3.65 -8.0 -4.8 -6.1 -4.8 -4.45 -4.8 -3.4 -3.75 -2.35 -2.7 -2.35 -1.0 L-2.5 0.9 -2.7 2.85 Q-2.85 4.05 -3.65 4.35 L-5.45 4.5 Q-6.15 4.5 -6.55 4.15 -6.95 3.8 -6.95 3.15 -6.95 2.05 -5.9 1.55 L-5.7 -0.85 -5.95 -1.5 -6.6 -1.75 Q-7.6 -1.75 -7.75 -0.45 L-8.0 1.55 -7.45 2.05 -7.25 2.8 Q-7.25 3.55 -7.8 4.05 -8.3 4.5 -9.1 4.5 L-10.8 4.5 -11.9 4.15 Q-12.35 3.8 -12.35 3.1 L-12.05 2.15 Q-11.75 1.65 -11.3 1.55 L-11.1 -0.85 -11.35 -1.5 -12.0 -1.75 Q-13.05 -1.75 -13.15 -0.55 L-13.4 1.55 Q-12.65 2.05 -12.65 2.8 -12.65 3.55 -13.15 4.05 -13.6 4.5 -14.35 4.5 L-15.45 4.5 -16.25 4.35 Q-16.85 4.05 -16.85 3.15 L-16.85 2.8 -16.5 -0.45 -16.25 -1.65 M-31.65 -7.65 Q-29.85 -7.65 -28.7 -6.65 -27.5 -5.6 -27.5 -3.85 -27.5 -2.65 -28.15 -1.55 -28.8 -0.45 -29.9 0.05 L-29.35 1.4 Q-28.55 1.35 -28.0 1.65 -27.4 2.0 -27.4 2.8 -27.4 3.6 -27.95 4.05 -28.5 4.5 -29.35 4.5 L-31.15 4.5 -31.65 4.1 -33.2 0.55 -33.8 0.55 -34.25 4.5 -36.0 4.5 Q-36.95 4.5 -37.25 3.9 L-37.4 3.15 -37.4 2.95 -36.75 -3.05 Q-36.55 -5.2 -35.15 -6.4 -33.8 -7.65 -31.65 -7.65 M-30.95 -4.4 Q-31.3 -4.75 -31.8 -4.7 -32.9 -4.7 -33.2 -3.95 L-33.5 -2.35 -32.0 -2.35 Q-31.4 -2.35 -31.0 -2.7 -30.6 -3.0 -30.6 -3.6 -30.6 -4.1 -30.95 -4.4 M-23.4 -0.85 L-20.45 -0.85 Q-20.45 -1.35 -20.85 -1.7 -21.25 -2.05 -21.75 -2.05 -23.0 -2.05 -23.4 -0.85 M-21.5 -4.85 Q-19.7 -4.85 -18.4 -3.8 -17.0 -2.7 -17.0 -0.95 -17.0 -0.15 -17.45 0.3 -17.95 0.8 -18.75 0.8 L-23.6 0.8 Q-23.3 1.7 -22.1 1.7 L-21.2 1.5 -20.3 1.3 Q-19.75 1.3 -19.4 1.7 -19.0 2.05 -19.0 2.6 -19.0 3.65 -20.3 4.3 -21.35 4.8 -22.55 4.8 -24.5 4.8 -25.8 3.7 -27.25 2.55 -27.25 0.6 -27.25 -1.75 -25.5 -3.3 -23.85 -4.85 -21.5 -4.85" fill="#000000" fill-rule="evenodd" stroke="none"/>
    <path d="M26.15 -4.2 Q25.35 -4.85 24.0 -4.85 21.75 -4.85 20.25 -3.25 18.75 -1.65 18.75 0.6 18.75 2.55 20.1 3.7 21.35 4.75 23.35 4.75 25.4 4.75 26.8 3.65 27.9 2.8 27.9 2.0 27.9 1.4 27.5 1.05 27.05 0.65 26.5 0.65 26.2 0.65 25.25 1.15 24.35 1.65 23.85 1.65 23.15 1.65 22.7 1.25 22.3 0.8 22.3 0.1 22.3 -0.65 22.8 -1.25 23.35 -1.8 24.15 -1.8 L25.2 -1.35 25.8 -0.5 Q26.2 -0.05 26.8 -0.05 27.5 -0.05 27.95 -0.5 28.4 -0.95 28.5 -1.65 L28.7 -3.6 Q28.7 -4.85 27.3 -4.85 26.55 -4.85 26.15 -4.25 L26.15 -4.2 M30.15 -7.4 Q29.4 -7.4 28.9 -6.95 28.35 -6.45 28.35 -5.75 28.35 -4.5 29.75 -4.35 L28.95 2.9 28.95 3.2 Q28.85 4.5 30.45 4.5 L31.85 4.5 Q32.55 4.5 33.05 4.0 33.55 3.5 33.55 2.8 33.55 1.65 32.45 1.4 L32.55 0.05 Q32.75 -1.7 34.2 -1.7 L35.15 -1.35 35.5 -0.4 35.3 1.4 Q34.65 1.55 34.25 2.0 33.85 2.45 33.85 3.1 33.85 3.75 34.3 4.1 34.7 4.5 35.35 4.5 L36.75 4.5 Q38.3 4.5 38.45 2.9 L38.95 -1.4 38.95 -1.75 Q38.95 -3.15 37.95 -4.0 37.05 -4.8 35.6 -4.8 34.15 -4.8 33.0 -3.9 L33.25 -6.15 Q33.25 -7.4 31.75 -7.4 L30.15 -7.4 M12.15 -7.65 Q11.35 -7.65 10.85 -7.05 10.4 -6.55 10.3 -5.75 L9.65 0.5 9.65 1.0 Q9.65 2.65 10.7 3.7 11.8 4.75 13.45 4.75 15.3 4.75 16.75 3.55 18.35 2.25 18.35 0.45 18.35 -0.1 17.95 -0.5 17.55 -0.9 16.95 -0.9 16.1 -0.9 15.65 -0.2 L14.95 1.05 Q14.6 1.75 13.85 1.75 L13.2 1.5 12.95 0.85 12.95 0.6 13.0 0.35 13.2 -1.7 16.95 -1.7 Q17.7 -1.7 18.2 -2.1 18.75 -2.5 18.75 -3.25 18.75 -3.85 18.35 -4.2 17.95 -4.55 17.3 -4.55 L13.5 -4.55 13.65 -6.1 Q13.65 -6.75 13.25 -7.2 12.85 -7.65 12.15 -7.65 M7.1 -3.6 Q5.9 -4.8 3.95 -4.8 1.6 -4.8 -0.05 -3.25 -1.7 -1.75 -1.7 0.6 -1.7 2.35 -0.6 3.55 0.45 4.75 2.2 4.75 3.9 4.75 5.0 3.75 5.05 4.5 6.2 4.5 L7.65 4.5 Q8.45 4.5 8.9 4.0 9.4 3.45 9.4 2.6 9.4 2.0 9.05 1.75 L8.2 1.35 8.35 -0.5 Q8.35 -2.4 7.1 -3.6 M2.15 -1.15 Q2.75 -1.75 3.5 -1.75 4.2 -1.75 4.6 -1.3 5.05 -0.85 5.05 -0.2 5.05 0.55 4.45 1.15 3.9 1.7 3.1 1.7 L2.0 1.25 Q1.6 0.85 1.6 0.15 1.6 -0.6 2.15 -1.15 M-16.25 -12.0 L38.05 -12.0 Q40.45 -12.0 42.15 -10.55 43.9 -9.05 43.95 -7.0 L43.95 7.0 Q43.9 9.05 42.15 10.5 40.45 12.0 38.05 12.0 L-16.25 12.0 -16.25 4.35 -15.45 4.5 -14.35 4.5 Q-13.6 4.5 -13.15 4.05 -12.65 3.55 -12.65 2.8 -12.65 2.05 -13.4 1.55 L-13.15 -0.55 Q-13.05 -1.75 -12.0 -1.75 L-11.35 -1.5 -11.1 -0.85 -11.3 1.55 Q-11.75 1.65 -12.05 2.15 L-12.35 3.1 Q-12.35 3.8 -11.9 4.15 L-10.8 4.5 -9.1 4.5 Q-8.3 4.5 -7.8 4.05 -7.25 3.55 -7.25 2.8 L-7.45 2.05 -8.0 1.55 -7.75 -0.45 Q-7.6 -1.75 -6.6 -1.75 L-5.95 -1.5 -5.7 -0.85 -5.9 1.55 Q-6.95 2.05 -6.95 3.15 -6.95 3.8 -6.55 4.15 -6.15 4.5 -5.45 4.5 L-3.65 4.35 Q-2.85 4.05 -2.7 2.85 L-2.5 0.9 -2.35 -1.0 Q-2.35 -2.7 -3.4 -3.75 -4.45 -4.8 -6.1 -4.8 -8.0 -4.8 -9.1 -3.65 -9.95 -4.8 -11.7 -4.8 -13.65 -4.8 -15.0 -3.6 -15.85 -2.8 -16.25 -1.65 L-16.25 -12.0" fill="#ffffff" fill-opacity="0.5019608" fill-rule="evenodd" stroke="none"/>
    <path d="M-16.25 12.0 L38.05 12.0 Q40.45 12.0 42.15 10.5 43.9 9.05 43.95 7.0 L43.95 -7.0 Q43.9 -9.05 42.15 -10.55 40.45 -12.0 38.05 -12.0 L-16.25 -12.0 -37.05 -12.0 Q-39.45 -12.0 -41.2 -10.55 -42.9 -9.05 -42.9 -7.0 L-42.9 7.0 Q-42.9 9.05 -41.2 10.5 -39.45 12.0 -37.05 12.0 L-16.25 12.0 Z" fill="none" stroke="#000000" stroke-linecap="round" stroke-linejoin="round" stroke-width="0.5"/>
  </g>
  <defs>
    <radialGradient cx="0" cy="0" gradientTransform="matrix(0.0546, 0.0, 0.0, 0.0546, 0.0, 0.0)" gradientUnits="userSpaceOnUse" id="gradient0" r="819.2" spreadMethod="pad">
      <stop offset="0.0" stop-color="#ffffff"/>
      <stop offset="1.0" stop-color="#00cc00"/>
    </radialGradient>
  </defs>
</svg>
