<?xml version="1.0" encoding="UTF-8" standalone="no"?>
<svg xmlns:xlink="http://www.w3.org/1999/xlink" height="24.35px" width="24.55px" xmlns="http://www.w3.org/2000/svg">
  <g transform="matrix(1.0, 0.0, 0.0, 1.0, 11.75, 14.55)">
    <path d="M0.4 -14.55 Q1.45 -14.15 0.7 -13.3 L0.55 -13.2 0.4 -12.8 0.3 -12.55 0.25 -12.45 0.15 -12.4 0.0 -12.45 -0.15 -12.9 -0.1 -13.3 Q-0.55 -13.8 -0.1 -14.3 L0.1 -14.5 0.4 -14.55 M9.15 -11.05 Q10.35 -10.95 9.7 -10.05 L9.35 -9.75 8.4 -9.05 8.2 -9.1 8.15 -9.2 8.55 -10.6 Q8.7 -11.05 9.15 -11.05 M6.4 -12.9 Q6.25 -11.85 5.05 -11.85 L4.95 -11.95 4.9 -12.05 Q5.0 -12.7 5.4 -13.2 5.55 -13.4 5.75 -13.4 L6.4 -12.95 6.4 -12.9 M5.75 -10.05 Q6.85 -9.65 5.95 -8.85 L5.55 -8.8 5.15 -8.5 5.0 -8.45 4.85 -8.5 Q4.85 -9.15 5.2 -9.7 L5.5 -10.0 5.75 -10.05 M9.5 -7.75 L9.55 -7.75 9.75 -7.8 Q10.95 -7.5 10.1 -6.65 L9.6 -6.35 8.6 -6.45 Q8.75 -7.1 9.3 -7.6 L9.5 -7.75 M2.9 -13.2 Q4.0 -12.9 3.3 -12.0 L3.15 -11.9 3.15 -11.7 3.05 -11.4 3.0 -11.35 2.8 -11.3 2.7 -11.4 2.65 -11.45 2.65 -11.55 2.6 -11.65 2.6 -11.85 Q2.0 -12.35 2.45 -12.95 L2.6 -13.15 2.7 -13.15 2.9 -13.15 2.9 -13.2 M1.05 -8.55 L1.0 -8.45 1.0 -8.35 1.05 -8.15 1.05 -8.05 0.95 -6.75 0.85 -6.4 0.8 -6.3 0.7 -6.25 Q0.45 -7.0 0.5 -7.75 L0.5 -8.15 Q-0.45 -9.05 0.65 -9.5 L0.65 -9.55 Q1.5 -9.3 1.05 -8.55 M3.5 -7.65 Q4.65 -7.0 3.45 -6.25 L2.65 -5.6 2.4 -5.55 2.3 -5.65 2.3 -6.05 2.4 -6.3 2.45 -6.4 2.55 -6.5 Q2.6 -7.45 3.5 -7.6 L3.5 -7.65 M1.5 -2.5 L1.25 -2.3 1.1 -2.4 1.0 -2.45 Q1.0 -3.3 1.4 -4.0 1.55 -4.3 1.9 -4.3 3.1 -3.65 1.85 -2.8 L1.5 -2.5 M4.15 -2.95 Q4.75 -3.5 5.5 -3.7 6.7 -3.25 5.7 -2.6 L5.25 -2.45 Q4.6 -2.3 4.15 -2.7 L4.1 -2.8 4.1 -2.85 4.15 -2.95 M9.4 -4.8 Q10.6 -4.7 9.95 -3.8 9.75 -3.5 9.4 -3.55 8.6 -3.55 8.0 -4.0 L7.95 -4.1 7.95 -4.2 8.0 -4.4 Q8.6 -4.8 9.4 -4.8 M6.3 -5.7 L5.95 -5.4 4.45 -5.45 Q4.9 -6.25 5.7 -6.65 L5.9 -6.7 Q7.0 -6.5 6.3 -5.7 M8.75 -2.05 L10.35 -1.75 10.45 -1.55 Q10.3 -0.5 9.2 -0.95 L8.5 -1.4 8.2 -1.6 8.15 -1.65 8.4 -1.95 8.75 -2.05 M12.25 -3.3 Q13.4 -2.7 12.25 -1.9 L11.8 -1.8 Q11.0 -1.85 10.5 -2.45 L10.5 -2.55 10.5 -2.7 10.55 -2.8 11.65 -3.0 11.8 -3.1 12.0 -3.25 12.05 -3.3 12.25 -3.3 M11.7 0.8 L10.9 -0.05 10.9 -0.1 11.0 -0.2 12.15 -0.3 Q13.2 0.1 12.3 0.8 12.0 1.0 11.7 0.8 M9.7 1.0 L9.65 1.3 Q8.75 2.1 7.9 1.15 L7.4 0.6 7.9 0.4 8.0 0.35 Q9.15 0.2 9.7 1.0 M6.75 -0.75 L4.3 -1.0 Q4.95 -1.55 5.9 -1.8 6.95 -2.0 7.05 -1.1 7.05 -0.75 6.75 -0.75 M6.4 4.2 L4.95 2.85 5.0 2.75 5.05 2.65 5.15 2.6 5.25 2.55 5.4 2.55 6.35 2.9 6.4 2.95 Q7.75 3.2 6.9 4.15 L6.4 4.2 M10.3 3.95 L10.05 4.25 Q9.25 4.45 8.6 3.75 8.25 3.35 8.4 2.85 L8.75 2.75 Q10.25 2.75 10.3 3.95 M3.4 -0.15 L5.1 0.75 5.15 1.05 Q4.6 1.95 3.7 1.05 L3.3 0.6 3.25 0.45 3.15 0.25 3.2 -0.05 3.4 -0.15 M0.75 -0.1 L0.75 -0.15 Q1.8 0.35 2.3 1.35 L2.2 1.75 Q1.35 2.45 0.85 1.35 L0.7 0.7 0.55 0.4 0.55 0.2 0.6 0.05 0.7 -0.05 0.75 -0.1 M2.75 3.4 L4.0 4.55 Q4.4 4.85 4.05 5.25 3.45 5.85 3.05 5.1 L2.65 4.45 2.5 3.8 2.5 3.6 2.6 3.5 2.75 3.4 M1.9 5.7 L2.05 5.8 2.1 6.0 2.15 6.2 Q3.3 7.0 2.1 7.45 L1.55 7.3 Q1.1 6.5 1.4 5.7 L1.45 5.6 1.45 5.55 1.5 5.55 1.55 5.55 1.9 5.7 M0.7 9.8 Q-0.2 9.95 -0.1 9.1 L0.15 7.8 0.25 7.75 0.4 7.7 Q1.05 8.35 1.05 9.35 1.05 9.75 0.7 9.8 M6.85 7.2 L6.7 7.35 Q6.2 7.5 5.95 7.05 L5.7 6.05 5.7 5.55 5.9 5.4 6.0 5.35 Q7.45 5.95 6.85 7.2 M-4.1 -14.2 Q-3.5 -14.2 -3.35 -13.6 L-3.3 -13.5 -3.35 -13.3 -3.45 -13.05 -3.4 -12.85 -3.45 -12.55 -3.5 -12.5 -3.6 -12.45 -3.95 -12.7 -4.05 -12.9 Q-5.25 -13.35 -4.25 -14.15 L-4.1 -14.2 M-10.0 -7.05 Q-8.9 -6.95 -8.55 -6.05 L-8.55 -5.95 -10.8 -6.0 -10.95 -6.3 Q-10.8 -7.05 -10.0 -7.05 M-11.1 -3.8 L-10.85 -3.9 -9.85 -3.4 -9.75 -3.3 -9.75 -3.2 -9.75 -3.05 -9.8 -2.95 -11.75 -2.9 Q-11.8 -3.6 -11.1 -3.8 M-1.3 -11.35 L-1.1 -11.4 Q0.0 -10.8 -0.6 -9.6 L-1.0 -8.9 -1.75 -10.75 -1.75 -11.05 Q-1.6 -11.3 -1.3 -11.35 M-4.0 -10.15 L-4.0 -10.2 Q-2.55 -9.5 -2.9 -7.85 L-2.9 -7.8 -3.1 -7.8 -3.35 -7.95 -3.35 -8.05 -3.35 -8.15 -3.75 -8.65 -3.95 -8.9 Q-5.0 -9.2 -4.4 -10.0 L-4.25 -10.15 -4.0 -10.15 M-8.6 -10.65 L-8.6 -10.7 Q-7.6 -10.65 -7.1 -9.8 L-7.05 -9.7 Q-7.3 -9.1 -8.1 -9.45 L-8.25 -9.5 Q-9.6 -9.4 -9.0 -10.5 L-8.9 -10.65 -8.6 -10.65 M-4.95 -6.5 L-4.9 -6.45 -4.85 -6.35 -4.9 -6.15 -4.95 -6.1 Q-6.1 -5.8 -7.05 -6.55 L-6.9 -7.2 -6.35 -7.45 -5.25 -6.7 -5.2 -6.65 -4.95 -6.5 M-6.85 -4.4 Q-6.8 -4.05 -7.15 -3.9 L-7.6 -3.65 Q-8.2 -2.6 -8.9 -3.55 L-8.85 -4.05 -8.05 -4.55 -7.85 -4.55 -7.15 -4.5 -6.95 -4.45 -6.85 -4.4 M-5.3 -2.15 Q-5.3 -1.85 -5.55 -1.65 L-5.6 -1.6 -5.95 -1.55 Q-6.25 -0.4 -7.3 -1.15 -7.55 -1.3 -7.4 -1.6 -7.0 -2.3 -6.1 -2.2 L-5.5 -2.3 -5.35 -2.2 -5.3 -2.15 M-5.1 -4.45 Q-4.95 -4.7 -4.65 -4.75 L-4.5 -4.8 -3.6 -4.45 -3.45 -4.4 -2.95 -3.75 -2.6 -3.55 -2.55 -3.45 -2.45 -3.25 -2.55 -3.2 -2.85 -3.2 Q-3.7 -3.7 -4.8 -3.6 L-5.05 -3.8 -5.1 -4.45 M-1.7 -6.0 L-1.5 -6.05 Q-0.4 -5.65 -0.75 -4.4 L-0.8 -4.3 -0.9 -4.2 -1.1 -4.15 -1.35 -4.35 -1.45 -4.45 -1.45 -4.55 -1.45 -4.65 -2.0 -5.1 -2.1 -5.2 -2.0 -5.75 -1.75 -6.0 -1.7 -6.0 M-2.75 -1.8 Q-2.2 -1.8 -1.95 -1.3 L-1.95 -1.2 Q-2.45 -0.65 -3.4 -0.45 L-3.85 -0.75 Q-4.15 -1.75 -3.0 -1.8 L-2.75 -1.8 M-0.25 0.8 Q0.05 1.8 -0.8 2.45 L-1.4 2.35 Q-2.0 1.75 -1.2 1.1 L-0.8 0.75 -0.6 0.6 -0.35 0.75 -0.25 0.8 M-4.7 1.0 Q-4.9 2.35 -6.05 2.9 L-6.35 2.85 Q-6.9 2.25 -6.15 1.7 L-5.45 1.35 -5.35 1.2 -5.25 1.15 -4.75 1.0 -4.7 1.0 M-2.6 1.4 L-3.15 3.45 Q-3.6 4.55 -4.25 3.55 L-4.3 3.1 Q-3.9 2.1 -3.05 1.45 L-2.75 1.35 -2.6 1.4 M0.0 3.3 L0.05 3.35 0.1 3.55 0.05 3.75 Q0.55 4.65 -0.3 5.15 -0.75 5.45 -0.95 4.95 -1.25 4.3 -0.8 3.7 L-0.75 3.55 -0.5 3.3 -0.45 3.2 -0.25 3.15 -0.25 3.1 0.0 3.3 M-8.45 1.5 L-8.4 1.6 Q-8.65 3.0 -10.0 2.9 L-10.35 2.6 Q-10.45 1.6 -9.4 1.65 L-8.75 1.5 -8.6 1.45 -8.45 1.5 M-5.75 4.8 L-5.7 4.85 -5.65 4.95 -5.6 5.15 Q-5.7 6.1 -6.5 6.35 -6.8 6.45 -6.95 6.2 -7.2 5.95 -7.1 5.55 L-6.0 4.6 -5.75 4.8 M-2.8 5.9 L-2.6 6.0 Q-2.4 7.3 -3.25 8.1 L-3.6 8.15 -4.05 7.6 -3.85 7.05 Q-3.75 6.4 -3.3 6.0 L-3.2 5.9 -3.0 5.85 -2.8 5.9" fill="#000000" fill-rule="evenodd" stroke="none"/>
  </g>
</svg>
