<?xml version="1.0" encoding="UTF-8" standalone="no"?>
<svg xmlns:xlink="http://www.w3.org/1999/xlink" height="18.5px" width="13.85px" xmlns="http://www.w3.org/2000/svg">
  <g transform="matrix(1.0, 0.0, 0.0, 1.0, 6.6, 14.2)">
    <path d="M4.15 -2.95 Q4.75 -3.5 5.5 -3.7 6.7 -3.25 5.7 -2.6 L5.25 -2.45 Q4.6 -2.3 4.15 -2.7 L4.1 -2.8 4.1 -2.85 4.15 -2.95 M6.35 2.9 L6.4 2.95 Q7.75 3.2 6.9 4.15 L6.4 4.2 4.95 2.85 5.0 2.75 5.05 2.65 5.15 2.6 5.25 2.55 5.4 2.55 6.35 2.9 M-3.35 -13.6 L-3.3 -13.5 -3.35 -13.3 -3.45 -13.05 -3.4 -12.85 -3.45 -12.55 -3.5 -12.5 -3.6 -12.45 -3.95 -12.7 -4.05 -12.9 Q-5.25 -13.35 -4.25 -14.15 L-4.1 -14.2 Q-3.5 -14.2 -3.35 -13.6 M-5.35 1.2 L-5.25 1.15 -4.75 1.0 -4.7 1.0 Q-4.9 2.35 -6.05 2.9 L-6.35 2.85 Q-6.9 2.25 -6.15 1.7 L-5.45 1.35 -5.35 1.2" fill="#000000" fill-rule="evenodd" stroke="none"/>
  </g>
</svg>
