<?xml version="1.0" encoding="UTF-8" standalone="no"?>
<svg xmlns:xlink="http://www.w3.org/1999/xlink" height="26.15px" width="20.25px" xmlns="http://www.w3.org/2000/svg">
  <g transform="matrix(1.0, 0.0, 0.0, 1.0, 10.0, 17.15)">
    <path d="M0.6 -14.9 L0.5 -15.25 -0.65 -16.4 -0.55 -16.7 0.0 -17.15 0.5 -17.15 0.75 -17.15 Q4.05 -13.5 8.65 -15.85 L9.5 -16.25 10.05 -15.8 10.25 -15.5 Q7.2 -11.8 2.5 -13.75 L0.75 -14.5 0.6 -14.9" fill="#000000" fill-rule="evenodd" stroke="none"/>
    <path d="M1.4 3.55 L1.5 4.25 Q1.5 5.8 -0.05 6.9 -1.6 8.0 -3.75 8.0 -5.9 8.0 -7.45 6.9 -9.0 5.8 -9.0 4.25 -9.0 2.7 -7.45 1.6 -5.9 0.5 -3.75 0.5 -1.6 0.5 -0.05 1.6 1.1 2.45 1.4 3.55" fill="#ffffff" fill-rule="evenodd" stroke="none"/>
    <path d="M0.6 -14.9 L1.4 3.55 1.5 4.25 Q1.5 5.8 -0.05 6.9 -1.6 8.0 -3.75 8.0 -5.9 8.0 -7.45 6.9 -9.0 5.8 -9.0 4.25 -9.0 2.7 -7.45 1.6 -5.9 0.5 -3.75 0.5 -1.6 0.5 -0.05 1.6 1.1 2.45 1.4 3.55" fill="none" stroke="#000000" stroke-linecap="round" stroke-linejoin="round" stroke-width="2.0"/>
  </g>
</svg>
