<?xml version="1.0" encoding="UTF-8" standalone="no"?>
<svg xmlns:xlink="http://www.w3.org/1999/xlink" height="23.9px" width="319.25px" xmlns="http://www.w3.org/2000/svg">
  <g transform="matrix(1.0, 0.0, 0.0, 1.0, 166.0, 7.75)">
    <path d="M8.25 -1.45 L9.45 0.1 Q9.75 0.95 9.85 2.65 L10.05 7.45 Q10.05 8.0 10.2 8.25 L11.05 9.25 11.25 9.85 Q11.25 10.75 10.2 11.1 L6.35 11.45 3.65 11.15 Q2.85 10.8 2.85 10.05 L2.95 9.65 3.5 9.0 Q4.05 8.4 4.05 5.15 4.05 3.3 3.6 2.4 3.25 1.65 2.3 1.65 1.35 1.65 1.0 2.25 0.7 2.85 0.7 4.4 L0.7 7.1 0.8 8.2 1.45 9.35 1.6 9.9 Q1.6 10.7 0.5 11.1 L-3.0 11.5 Q-6.8 11.5 -6.8 9.9 L-6.7 9.4 -6.15 8.95 -5.7 8.35 -5.5 6.7 -5.4 3.4 Q-5.4 2.5 -5.55 2.2 -5.7 1.9 -6.4 1.45 -7.0 1.1 -7.0 0.55 -7.0 0.0 -6.5 -0.35 L-4.55 -1.2 -2.0 -2.0 -0.35 -2.3 Q0.1 -2.3 0.35 -2.0 L0.65 -1.3 0.65 -0.95 0.6 -0.8 Q0.6 -0.1 1.15 -0.1 1.5 -0.1 1.85 -0.65 3.05 -2.35 5.25 -2.35 7.0 -2.35 8.25 -1.45 M18.55 -7.45 L22.15 -7.75 25.85 -7.4 Q27.35 -7.05 27.35 -5.9 27.35 -5.35 26.9 -5.0 L26.1 -4.55 Q25.65 -4.35 25.5 -3.85 25.35 -3.35 25.35 -2.2 L25.25 2.95 Q25.15 5.3 26.5 6.5 27.6 7.55 29.3 7.55 L31.3 7.15 Q32.2 6.75 32.65 6.05 L33.15 4.85 33.3 3.05 33.3 0.05 33.1 -4.0 Q32.95 -4.6 32.2 -4.95 L31.25 -5.5 Q31.0 -5.8 31.0 -6.15 31.0 -7.0 31.95 -7.35 L35.1 -7.75 38.2 -7.35 Q39.1 -7.0 39.1 -6.2 L38.95 -5.6 38.1 -5.0 Q37.35 -4.6 37.3 -4.15 37.15 -3.65 37.15 -0.65 L37.15 2.7 Q37.15 5.75 36.7 7.0 35.7 9.65 32.4 10.85 L27.9 11.55 Q23.5 11.55 20.9 9.5 19.6 8.45 19.1 7.1 18.6 5.75 18.6 3.2 L18.7 -0.1 18.7 -2.25 18.55 -3.8 17.8 -4.6 Q16.9 -5.2 16.9 -5.95 16.9 -6.45 17.35 -6.85 17.8 -7.3 18.55 -7.45 M47.6 -0.65 Q48.8 -2.35 51.0 -2.35 52.75 -2.35 54.0 -1.45 L55.2 0.1 Q55.5 0.95 55.6 2.65 L55.8 7.45 Q55.8 8.0 55.95 8.25 L56.8 9.25 56.95 9.5 57.1 9.25 57.85 8.8 Q58.35 8.6 58.5 7.55 L58.7 2.5 Q58.7 -0.85 58.5 -1.8 58.3 -2.75 57.55 -3.25 L56.8 -3.85 Q56.55 -4.15 56.55 -4.6 56.55 -5.25 57.2 -5.75 57.85 -6.25 59.25 -6.65 L61.7 -7.2 63.9 -7.5 Q64.95 -7.5 64.95 -6.15 L64.85 -4.15 64.65 0.35 64.65 4.75 64.7 8.15 65.4 8.9 66.1 9.3 66.25 9.85 65.95 10.65 65.05 11.15 61.75 11.45 58.05 11.1 57.25 10.55 57.0 10.15 Q56.85 10.8 55.95 11.1 L52.1 11.45 49.4 11.15 Q48.6 10.8 48.6 10.05 L48.7 9.65 49.25 9.0 Q49.8 8.4 49.8 5.15 49.8 3.3 49.35 2.4 49.0 1.65 48.05 1.65 47.1 1.65 46.75 2.25 46.45 2.85 46.45 4.4 L46.45 7.1 46.55 8.2 47.2 9.35 47.35 9.9 Q47.35 10.7 46.25 11.1 L42.75 11.5 Q38.95 11.5 38.95 9.9 L39.05 9.4 39.6 8.95 40.05 8.35 40.25 6.7 40.35 3.4 40.2 2.2 39.35 1.45 Q38.75 1.1 38.75 0.55 38.75 0.0 39.25 -0.35 L41.2 -1.2 43.75 -2.0 45.4 -2.3 Q45.85 -2.3 46.1 -2.0 L46.4 -1.3 46.4 -0.95 46.35 -0.8 Q46.35 -0.1 46.9 -0.1 47.25 -0.1 47.6 -0.65 M78.9 -1.15 Q80.25 -0.2 81.1 1.3 81.75 2.5 81.9 3.75 82.2 1.25 84.25 -0.5 86.5 -2.4 89.7 -2.4 92.15 -2.4 94.0 -1.2 95.75 -0.05 95.75 1.7 95.75 2.85 94.95 3.6 94.2 4.3 93.1 4.3 91.95 4.3 91.4 3.5 L90.85 2.15 Q90.5 1.0 89.45 1.0 88.7 1.0 88.2 1.65 87.7 2.35 87.7 3.3 87.7 4.9 88.85 6.2 89.8 7.2 91.25 7.2 L92.4 7.1 93.65 6.65 94.05 6.55 Q94.55 6.55 94.9 7.0 95.25 7.4 95.25 8.0 L94.75 9.3 93.4 10.5 Q91.65 11.55 89.2 11.55 86.4 11.55 84.4 9.95 82.15 8.1 81.9 5.45 81.55 7.8 79.2 9.6 76.6 11.55 73.25 11.55 70.0 11.55 68.0 9.7 66.0 7.9 66.0 5.0 66.0 1.8 68.4 -0.25 70.95 -2.45 74.55 -2.45 77.05 -2.45 78.9 -1.15 M97.55 -6.15 Q101.1 -7.45 102.85 -7.45 103.6 -7.45 103.6 -6.8 L103.45 -2.5 103.45 -0.65 103.5 1.0 Q103.6 1.55 104.05 1.55 104.45 1.55 105.3 1.05 L106.15 0.25 105.85 -0.3 105.65 -0.85 Q105.65 -2.3 109.3 -2.3 L112.25 -1.95 113.0 -1.4 113.3 -0.65 Q113.3 0.0 112.7 0.25 L111.9 0.4 Q111.3 0.5 110.35 1.15 109.4 1.8 109.4 2.1 L110.55 3.9 112.7 6.65 113.7 7.75 114.7 8.45 Q115.7 8.95 115.7 9.65 115.7 10.4 115.05 10.8 114.45 11.2 113.35 11.2 L108.95 11.2 Q108.1 11.2 107.65 10.6 L105.35 7.65 104.25 6.3 103.95 6.1 Q103.75 6.1 103.7 6.35 L103.65 7.25 Q103.65 7.9 103.8 8.15 L104.4 8.85 Q104.8 9.1 104.8 9.7 104.8 10.65 103.75 11.05 L100.45 11.5 96.85 11.25 96.1 10.7 Q95.75 10.3 95.75 9.8 95.75 9.3 96.35 8.9 L96.95 8.45 97.15 7.9 Q97.5 6.0 97.45 2.0 L97.45 -1.0 97.3 -2.95 Q97.15 -3.35 96.55 -3.45 95.4 -3.6 95.4 -4.35 95.4 -4.9 95.9 -5.3 L97.55 -6.15 M127.05 -0.95 L128.55 0.8 Q129.15 1.9 129.2 2.95 129.45 1.85 130.05 0.85 131.05 -0.8 132.75 -1.7 134.15 -2.4 135.55 -2.4 137.15 -2.4 138.4 -1.7 L138.7 -1.6 Q139.15 -1.6 139.15 -2.75 L138.95 -3.55 138.05 -4.0 Q137.2 -4.3 137.2 -4.95 137.2 -5.95 139.2 -6.5 L143.9 -7.5 Q145.05 -7.5 145.05 -6.35 L145.05 6.1 145.15 7.5 145.65 8.05 146.3 8.65 146.45 9.3 Q146.45 10.4 144.25 10.95 L140.3 11.45 139.75 11.35 139.55 10.7 Q139.5 10.0 139.1 10.0 138.85 10.0 138.35 10.45 136.95 11.55 135.25 11.55 133.15 11.55 131.45 10.0 130.45 9.05 129.8 7.8 129.0 6.2 129.0 4.6 L129.05 4.1 128.8 4.5 Q128.45 5.1 127.85 5.1 L121.45 5.1 Q121.0 5.1 121.0 5.45 121.0 6.35 121.95 7.15 122.95 7.9 124.05 7.9 L125.5 7.65 126.8 7.05 Q127.3 6.7 127.55 6.7 L128.25 7.15 128.6 8.05 Q128.6 9.05 127.35 9.95 125.2 11.55 122.35 11.55 119.45 11.55 117.55 9.9 116.6 9.1 115.95 7.9 115.15 6.35 115.15 4.65 115.15 2.35 116.55 0.55 117.75 -1.05 119.6 -1.85 121.0 -2.4 122.65 -2.4 125.25 -2.4 127.05 -0.95 M152.15 -6.4 Q153.25 -5.25 153.25 -3.15 L152.8 -0.15 151.5 2.7 Q150.6 4.15 150.0 4.15 149.45 4.15 148.45 2.35 147.75 1.0 147.3 -0.55 146.85 -2.1 146.85 -3.35 146.85 -4.9 147.55 -5.95 148.45 -7.25 150.05 -7.25 151.3 -7.25 152.15 -6.4 M152.15 10.7 Q151.25 11.55 150.05 11.55 148.85 11.55 148.0 10.75 147.1 9.9 147.1 8.6 147.1 7.4 147.9 6.6 148.8 5.65 150.15 5.65 151.35 5.65 152.2 6.55 153.0 7.4 153.0 8.6 153.0 9.8 152.15 10.7 M138.7 1.1 Q138.35 0.55 137.65 0.5 136.75 0.5 136.2 1.45 135.5 2.7 135.5 4.75 135.5 6.6 136.2 7.55 136.65 8.25 137.5 8.25 138.4 8.25 138.8 7.2 139.2 6.2 139.2 3.9 139.2 1.8 138.7 1.1 M123.15 2.5 Q124.05 2.5 124.05 1.7 124.05 0.95 123.6 0.5 123.2 0.05 122.5 0.05 121.75 0.05 121.3 0.65 120.9 1.2 120.9 1.8 L121.1 2.35 121.8 2.5 123.15 2.5 M73.45 0.75 Q72.85 0.75 72.5 1.2 72.1 1.6 72.1 2.35 72.1 3.15 72.45 4.6 L73.15 7.1 Q73.6 8.2 74.55 8.2 75.75 8.2 75.75 6.65 L75.45 4.05 Q75.15 2.6 74.7 1.7 74.25 0.75 73.45 0.75 M-163.75 -7.65 L-161.05 -7.75 -159.45 -7.55 -158.3 -6.8 -151.45 -0.85 Q-150.5 0.0 -150.1 0.0 -149.4 0.0 -149.4 -1.55 L-149.6 -3.9 Q-149.8 -4.5 -150.45 -4.8 L-151.2 -5.35 -151.4 -6.15 Q-151.4 -7.3 -149.85 -7.6 L-147.6 -7.75 -144.75 -7.5 Q-143.5 -7.1 -143.5 -6.05 -143.5 -5.15 -144.5 -4.7 L-145.1 -4.4 -145.35 -4.0 Q-145.7 -3.1 -145.7 -0.55 L-145.7 3.9 -145.7 6.7 Q-145.7 9.1 -146.0 10.15 -146.35 11.5 -147.35 11.5 L-148.05 11.3 -149.1 10.5 -157.2 3.25 Q-158.05 2.45 -158.6 2.45 -159.45 2.45 -159.45 4.75 L-159.2 7.35 Q-159.0 8.05 -158.35 8.4 -157.45 8.85 -157.45 9.55 -157.45 11.45 -161.5 11.45 L-164.4 11.0 Q-165.4 10.5 -165.4 9.6 L-165.2 8.9 -164.35 8.3 Q-163.7 7.9 -163.55 6.95 L-163.35 1.85 Q-163.35 -1.65 -163.75 -3.3 L-164.15 -4.15 -164.9 -4.7 -165.75 -5.3 -166.0 -6.0 Q-166.0 -7.3 -163.75 -7.65 M-128.8 -1.9 L-125.25 -2.35 Q-120.85 -2.35 -120.85 -0.7 -120.85 -0.4 -121.3 0.2 L-121.4 0.45 -120.75 1.95 Q-120.0 3.3 -119.5 3.3 L-118.75 2.65 Q-118.25 1.95 -118.25 1.5 -118.25 1.1 -118.5 0.85 -118.7 0.6 -119.45 0.05 -119.9 -0.3 -119.9 -0.75 -119.9 -1.8 -117.75 -2.15 L-114.6 -2.35 -111.65 -2.0 Q-110.7 -1.65 -110.7 -0.85 L-110.8 -0.35 -111.4 0.35 -111.55 0.75 -110.95 2.3 Q-110.4 3.35 -109.95 3.35 -109.45 3.35 -108.7 2.05 -108.15 1.05 -108.15 0.7 L-108.6 -0.1 -108.9 -0.95 Q-108.9 -1.65 -108.25 -1.9 L-105.65 -2.3 -103.55 -2.15 -102.7 -1.7 Q-102.4 -1.35 -102.4 -0.95 -102.4 -0.5 -102.75 -0.2 L-103.75 0.2 -104.55 0.75 -105.35 2.0 -108.75 8.65 Q-110.3 11.55 -111.4 11.55 L-112.5 10.9 -114.0 8.85 -115.4 6.6 -116.05 5.65 -116.45 5.5 Q-116.9 5.5 -117.45 6.4 L-119.7 10.35 Q-120.4 11.5 -121.2 11.5 L-122.15 11.15 -123.05 9.95 -127.15 3.15 Q-128.15 1.5 -128.75 0.95 L-129.75 0.55 -130.25 0.2 -130.45 -0.45 Q-130.45 -1.5 -128.8 -1.9 M-136.15 -2.4 Q-133.55 -2.4 -131.75 -0.95 L-130.25 0.8 Q-129.6 1.95 -129.6 3.05 -129.6 3.95 -130.0 4.5 -130.35 5.1 -130.95 5.1 L-137.35 5.1 Q-137.8 5.1 -137.8 5.45 -137.8 6.35 -136.85 7.15 -135.85 7.9 -134.75 7.9 L-133.3 7.65 -132.0 7.05 Q-131.5 6.7 -131.25 6.7 -130.9 6.7 -130.55 7.15 -130.2 7.6 -130.2 8.05 -130.2 9.05 -131.45 9.95 -133.6 11.55 -136.45 11.55 -139.35 11.55 -141.25 9.9 -142.2 9.1 -142.85 7.9 -143.65 6.35 -143.65 4.65 -143.65 2.35 -142.25 0.55 -141.05 -1.05 -139.2 -1.85 L-136.15 -2.4 M-92.75 -7.75 L-89.2 -7.4 Q-88.15 -7.05 -88.15 -6.05 L-88.25 -5.6 -88.6 -4.95 -88.8 -4.3 Q-88.8 -3.6 -87.85 -1.45 L-87.3 -0.15 -86.85 0.85 -86.5 1.0 Q-85.95 1.0 -85.4 -0.5 L-84.85 -2.05 -84.8 -2.3 -84.85 -2.6 -85.25 -3.55 Q-85.6 -4.4 -86.15 -4.65 -87.15 -5.2 -87.15 -6.0 -87.15 -7.75 -81.9 -7.75 L-77.9 -7.3 -77.15 -6.85 -76.9 -6.1 -77.0 -5.6 -77.75 -4.9 -78.05 -4.3 -77.55 -2.7 -76.75 -1.05 -76.0 0.4 -75.5 0.7 Q-75.2 0.7 -74.95 0.35 L-74.4 -1.05 -73.7 -2.95 -73.45 -4.2 Q-73.45 -4.75 -74.0 -4.9 -75.15 -5.25 -75.15 -6.2 -75.15 -7.05 -74.3 -7.4 L-71.35 -7.75 -69.3 -7.45 Q-68.25 -7.05 -68.25 -6.15 L-68.45 -5.45 -69.2 -4.7 -69.75 -4.0 -70.35 -2.55 -72.75 3.8 -74.9 9.1 -75.7 10.6 -76.35 11.3 -77.35 11.5 Q-78.15 11.5 -78.65 11.15 L-79.5 9.95 -82.2 3.55 -82.55 2.85 -82.85 2.75 -83.35 3.1 -84.1 4.85 -85.95 9.45 Q-86.5 10.7 -86.95 11.15 -87.45 11.55 -88.4 11.55 -89.25 11.55 -89.75 11.1 L-90.65 9.65 -95.7 -3.2 -96.1 -4.15 -96.85 -4.6 Q-97.55 -4.95 -97.55 -5.8 -97.55 -7.75 -92.75 -7.75 M-61.5 -2.4 Q-58.9 -2.4 -57.1 -0.95 L-55.6 0.8 Q-54.95 1.95 -54.95 3.05 -54.95 3.95 -55.35 4.5 -55.7 5.1 -56.3 5.1 L-62.7 5.1 Q-63.15 5.1 -63.15 5.45 -63.15 6.35 -62.2 7.15 -61.2 7.9 -60.1 7.9 L-58.65 7.65 -57.35 7.05 Q-56.85 6.7 -56.6 6.7 -56.25 6.7 -55.9 7.15 -55.55 7.6 -55.55 8.05 -55.55 9.05 -56.8 9.95 -58.95 11.55 -61.8 11.55 -64.7 11.55 -66.6 9.9 -67.55 9.1 -68.2 7.9 -69.0 6.35 -69.0 4.65 -69.0 2.35 -67.6 0.55 -66.4 -1.05 -64.55 -1.85 L-61.5 -2.4 M-43.25 -1.25 Q-42.35 -0.6 -42.0 0.25 -41.65 1.05 -41.65 2.5 L-41.7 4.55 Q-41.7 6.65 -41.4 7.3 L-41.1 7.7 -40.55 7.85 Q-40.1 7.9 -40.1 8.4 -40.1 9.05 -40.6 9.8 L-42.0 10.95 Q-43.0 11.55 -44.15 11.55 -45.55 11.55 -46.4 10.6 -46.7 10.25 -46.95 10.25 -47.2 10.25 -47.65 10.55 -49.0 11.55 -50.75 11.55 -52.55 11.55 -53.65 10.8 L-54.8 9.5 -55.25 7.8 Q-55.25 6.35 -54.1 5.25 -52.3 3.55 -48.7 3.55 L-47.7 3.4 Q-47.5 3.2 -47.5 2.65 -47.5 1.2 -47.8 0.55 -48.1 -0.1 -48.8 -0.1 L-49.55 0.15 -50.35 1.05 Q-51.55 2.8 -52.9 2.8 -53.55 2.8 -53.95 2.4 L-54.4 1.35 Q-54.4 0.7 -53.85 0.05 -53.35 -0.65 -52.45 -1.1 -49.95 -2.45 -47.25 -2.45 -44.9 -2.45 -43.25 -1.25 M-33.55 -2.35 L-32.5 -2.2 -32.3 -1.5 Q-32.3 -1.0 -31.95 -1.0 L-31.05 -1.5 -29.55 -2.15 -27.9 -2.45 Q-26.15 -2.45 -24.8 -1.25 -23.75 -0.3 -23.2 1.1 -22.6 2.55 -22.6 4.15 -22.3 1.5 -20.25 -0.25 -17.7 -2.45 -14.1 -2.45 -11.6 -2.45 -9.75 -1.15 -8.4 -0.2 -7.55 1.3 -6.7 2.85 -6.7 4.55 -6.7 7.5 -9.45 9.6 -12.05 11.55 -15.4 11.55 -18.65 11.55 -20.65 9.7 -22.6 7.95 -22.65 5.15 -22.95 7.95 -24.9 9.85 -26.7 11.55 -29.0 11.55 -30.15 11.55 -31.35 11.0 L-31.75 10.9 Q-32.2 10.9 -32.2 11.75 -32.2 12.8 -31.45 13.3 L-30.65 13.9 Q-30.5 14.05 -30.5 14.45 -30.5 15.25 -31.45 15.7 L-34.0 16.15 Q-37.0 16.15 -39.2 14.95 -40.35 14.35 -40.35 13.45 L-40.2 12.85 -39.5 12.4 Q-38.8 12.05 -38.65 11.2 L-38.4 6.25 Q-38.5 2.9 -38.65 2.5 L-38.8 2.3 -39.5 2.15 -40.2 1.75 -40.5 0.95 Q-40.5 0.45 -40.1 0.0 -39.7 -0.4 -38.85 -0.8 -35.5 -2.3 -33.55 -2.35 M-13.95 1.7 Q-14.4 0.75 -15.2 0.75 -15.8 0.75 -16.15 1.2 -16.55 1.6 -16.55 2.35 L-16.2 4.6 -15.5 7.1 Q-15.05 8.2 -14.1 8.2 -12.9 8.2 -12.9 6.65 -12.9 5.55 -13.2 4.05 -13.5 2.6 -13.95 1.7 M-29.95 2.05 Q-30.45 1.55 -31.1 1.55 -32.1 1.55 -32.2 2.8 L-32.4 6.6 -32.4 7.05 -32.05 7.7 -31.05 7.95 Q-29.15 7.95 -29.15 4.85 -29.15 2.85 -29.95 2.05 M-48.2 5.5 Q-48.8 5.5 -49.25 6.0 -49.7 6.45 -49.7 7.15 L-49.35 8.2 Q-49.05 8.6 -48.55 8.6 -47.45 8.6 -47.45 6.75 -47.45 6.0 -47.6 5.75 -47.75 5.5 -48.2 5.5 M-60.55 0.5 Q-60.95 0.05 -61.65 0.05 -62.4 0.05 -62.85 0.65 -63.25 1.2 -63.25 1.8 L-63.05 2.35 -62.35 2.5 -61.0 2.5 Q-60.1 2.5 -60.1 1.7 -60.1 0.95 -60.55 0.5 M-136.3 0.05 Q-137.05 0.05 -137.5 0.65 -137.9 1.2 -137.9 1.8 L-137.7 2.35 -137.0 2.5 -135.65 2.5 Q-134.75 2.5 -134.75 1.7 -134.75 0.95 -135.2 0.5 -135.6 0.05 -136.3 0.05" fill="#ffffff" fill-rule="evenodd" stroke="none"/>
    <path d="M6.75 -0.4 Q7.55 0.2 7.9 1.05 8.2 1.85 8.3 3.4 L8.45 7.85 8.6 8.6 9.4 9.55 Q9.6 9.75 9.6 10.1 9.6 10.95 8.6 11.25 L5.0 11.6 2.55 11.3 Q1.8 11.0 1.8 10.25 L1.85 9.9 2.35 9.3 Q2.85 8.75 2.85 5.75 2.85 4.0 2.45 3.15 2.15 2.5 1.25 2.5 0.4 2.5 0.1 3.05 -0.25 3.6 -0.25 5.0 L-0.25 7.55 -0.15 8.55 0.5 9.65 0.65 10.15 Q0.65 10.9 -0.4 11.25 L-3.65 11.6 Q-7.2 11.6 -7.2 10.15 L-7.1 9.7 -6.55 9.25 -6.15 8.7 -6.0 7.15 -5.9 4.15 Q-5.9 3.25 -6.05 3.0 -6.15 2.7 -6.8 2.3 -7.35 1.95 -7.35 1.45 -7.35 0.95 -6.9 0.65 -6.45 0.3 -5.05 -0.2 L-2.7 -0.9 -1.2 -1.2 -0.55 -0.95 Q-0.25 -0.65 -0.25 -0.25 L-0.3 0.05 -0.3 0.25 Q-0.3 0.85 0.2 0.85 L0.85 0.35 Q1.95 -1.2 4.05 -1.2 5.65 -1.2 6.75 -0.4 M18.2 -2.6 L17.5 -3.35 Q16.7 -3.9 16.7 -4.55 L17.1 -5.45 Q17.55 -5.8 18.25 -5.95 L21.55 -6.25 25.0 -5.9 Q26.35 -5.6 26.35 -4.55 26.35 -4.0 25.95 -3.7 L25.2 -3.3 Q24.8 -3.1 24.65 -2.65 24.5 -2.15 24.5 -1.1 L24.4 3.7 Q24.35 5.85 25.6 7.0 26.6 7.95 28.2 7.95 L30.05 7.6 31.3 6.55 31.75 5.45 31.9 3.8 31.9 1.0 31.7 -2.75 Q31.6 -3.35 30.9 -3.65 30.25 -3.95 30.0 -4.2 29.75 -4.4 29.75 -4.75 29.75 -5.55 30.65 -5.9 L33.6 -6.25 36.45 -5.9 Q37.3 -5.55 37.3 -4.8 L37.15 -4.25 36.35 -3.7 Q35.7 -3.35 35.6 -2.9 L35.45 0.35 35.45 3.45 Q35.45 6.25 35.05 7.45 34.15 9.9 31.1 11.0 L26.9 11.7 Q22.8 11.7 20.35 9.75 19.2 8.8 18.7 7.55 18.25 6.3 18.25 3.9 L18.35 0.85 18.35 -1.1 18.2 -2.6 M44.7 -0.95 L45.0 -0.25 44.95 0.05 44.95 0.25 Q44.95 0.85 45.45 0.85 45.75 0.85 46.1 0.35 47.2 -1.2 49.3 -1.2 50.9 -1.2 52.0 -0.4 52.8 0.2 53.15 1.05 53.45 1.85 53.55 3.4 L53.7 7.85 53.85 8.6 54.65 9.55 54.85 10.1 Q54.85 10.95 53.85 11.25 L50.25 11.6 47.8 11.3 Q47.05 11.0 47.05 10.25 L47.1 9.9 47.6 9.3 Q48.1 8.75 48.1 5.75 48.1 4.0 47.7 3.15 47.4 2.5 46.5 2.5 45.65 2.5 45.35 3.05 45.0 3.6 45.0 5.0 L45.0 7.55 45.1 8.55 45.75 9.65 45.9 10.15 Q45.9 10.9 44.85 11.25 L41.6 11.6 Q38.05 11.6 38.05 10.15 L38.15 9.7 38.7 9.25 39.1 8.7 39.25 7.15 39.35 4.15 39.2 3.0 38.45 2.3 Q37.9 1.95 37.9 1.45 37.9 0.95 38.35 0.65 38.8 0.3 40.2 -0.2 L42.55 -0.9 44.05 -1.2 44.7 -0.95 M57.85 -5.25 L60.1 -5.75 62.15 -6.0 Q63.15 -6.0 63.15 -4.75 L63.0 -2.9 62.85 1.3 62.85 5.35 62.9 8.5 Q63.0 8.95 63.55 9.2 L64.2 9.55 64.35 10.1 64.05 10.85 63.25 11.3 60.15 11.6 56.7 11.25 55.95 10.75 Q55.65 10.35 55.65 10.0 L55.85 9.5 Q56.0 9.35 56.5 9.15 57.0 8.9 57.15 7.95 L57.35 3.25 Q57.35 0.15 57.15 -0.75 57.0 -1.6 56.25 -2.05 L55.55 -2.65 55.35 -3.3 Q55.35 -3.9 55.95 -4.4 56.55 -4.85 57.85 -5.25 M77.0 -0.1 Q78.25 0.75 79.05 2.15 79.8 3.6 79.8 5.15 79.8 7.9 77.3 9.85 74.9 11.7 71.75 11.7 68.75 11.7 66.85 9.95 65.05 8.3 65.05 5.6 65.05 2.6 67.25 0.7 69.6 -1.3 72.95 -1.3 75.25 -1.3 77.0 -0.1 M91.95 -0.15 Q93.6 0.9 93.6 2.5 93.6 3.6 92.85 4.3 92.1 4.95 91.1 4.95 90.05 4.95 89.55 4.2 L89.05 2.95 Q88.7 1.9 87.75 1.9 87.05 1.9 86.55 2.5 86.1 3.1 86.1 4.0 86.1 5.5 87.2 6.7 88.05 7.65 89.4 7.65 L90.5 7.55 91.6 7.1 92.0 7.0 Q92.45 7.0 92.75 7.45 93.1 7.85 93.1 8.4 L92.65 9.6 91.4 10.7 Q89.75 11.7 87.5 11.7 84.9 11.7 83.05 10.15 80.7 8.25 80.7 5.25 80.7 2.4 82.9 0.5 84.95 -1.3 87.95 -1.3 90.25 -1.3 91.95 -0.15 M95.25 -2.25 Q94.2 -2.4 94.2 -3.1 94.2 -3.6 94.65 -3.95 95.1 -4.35 96.15 -4.75 99.5 -6.0 101.1 -6.0 101.8 -6.0 101.8 -5.35 L101.65 -1.4 101.65 0.35 101.7 1.9 Q101.8 2.4 102.25 2.4 L103.4 1.9 104.2 1.2 103.9 0.65 103.7 0.15 Q103.7 -1.2 107.1 -1.2 L109.85 -0.85 110.5 -0.35 110.8 0.35 Q110.8 0.95 110.25 1.15 L109.5 1.35 Q108.95 1.45 108.05 2.05 107.15 2.6 107.15 2.9 L108.25 4.55 110.25 7.15 111.2 8.15 112.1 8.8 Q113.0 9.3 113.0 9.9 113.0 10.6 112.45 10.95 111.85 11.35 110.85 11.35 L106.75 11.35 Q105.95 11.35 105.55 10.8 L103.45 8.05 102.4 6.8 102.1 6.6 101.9 6.85 101.85 7.7 101.95 8.55 102.55 9.15 Q102.9 9.4 102.9 9.95 102.9 10.85 101.95 11.2 L98.85 11.6 95.55 11.4 94.8 10.9 94.5 10.05 Q94.5 9.6 95.05 9.25 L95.65 8.8 95.85 8.3 96.1 2.8 96.1 0.05 95.95 -1.8 95.25 -2.25 M120.45 -1.3 Q122.85 -1.3 124.55 0.1 125.4 0.75 125.9 1.7 126.5 2.75 126.5 3.8 126.5 4.6 126.15 5.15 125.8 5.65 125.25 5.65 L119.3 5.65 Q118.9 5.65 118.9 6.0 118.9 6.85 119.8 7.55 120.7 8.3 121.7 8.3 L123.1 8.05 124.3 7.5 Q124.75 7.15 125.0 7.15 125.3 7.15 125.65 7.6 L125.95 8.4 Q125.95 9.35 124.8 10.2 122.8 11.7 120.15 11.7 117.5 11.7 115.7 10.15 114.8 9.4 114.25 8.3 113.5 6.85 113.5 5.3 113.5 3.15 114.8 1.45 115.9 0.0 117.6 -0.75 118.9 -1.3 120.45 -1.3 M136.5 -2.35 L135.7 -2.75 Q134.9 -3.0 134.9 -3.65 134.9 -4.6 136.75 -5.1 L141.1 -6.0 Q142.15 -6.0 142.15 -4.95 L142.15 6.65 142.25 7.9 142.7 8.45 143.35 9.0 143.5 9.6 Q143.5 10.6 141.45 11.15 L137.75 11.6 137.25 11.5 Q137.1 11.35 137.1 10.9 137.0 10.25 136.65 10.25 136.4 10.25 135.95 10.65 134.65 11.7 133.05 11.7 131.1 11.7 129.55 10.25 L128.05 8.2 Q127.25 6.75 127.25 5.2 127.25 3.4 128.25 1.75 129.15 0.2 130.75 -0.6 132.05 -1.3 133.35 -1.3 134.8 -1.3 136.0 -0.65 L136.3 -0.55 Q136.7 -0.55 136.7 -1.6 L136.5 -2.35 M150.75 -1.95 L150.3 0.85 149.1 3.5 Q148.25 4.8 147.7 4.8 147.2 4.8 146.3 3.1 145.6 1.85 145.2 0.45 144.8 -1.0 144.8 -2.15 144.8 -3.6 145.45 -4.6 146.25 -5.8 147.75 -5.8 148.9 -5.8 149.7 -5.0 150.75 -3.9 150.75 -1.95 M145.0 8.95 Q145.0 7.85 145.75 7.05 146.6 6.2 147.85 6.2 148.95 6.2 149.7 7.0 150.5 7.85 150.5 8.95 150.5 10.05 149.7 10.9 148.9 11.7 147.75 11.7 146.65 11.7 145.85 10.95 145.0 10.15 145.0 8.95 M135.3 1.4 Q134.45 1.4 133.95 2.3 133.3 3.45 133.3 5.35 133.3 7.1 133.95 7.95 134.4 8.6 135.15 8.6 136.0 8.6 136.35 7.65 136.75 6.7 136.75 4.55 136.75 2.6 136.3 1.95 135.95 1.45 135.3 1.4 M119.65 3.3 L120.9 3.3 Q121.7 3.3 121.7 2.55 121.7 1.85 121.35 1.4 L120.3 1.0 Q119.6 1.0 119.2 1.55 118.8 2.05 118.8 2.6 L119.0 3.15 119.65 3.3 M71.95 1.65 Q71.35 1.65 71.05 2.05 70.7 2.45 70.7 3.15 L71.0 5.2 Q71.25 6.55 71.65 7.55 72.05 8.6 72.95 8.6 74.05 8.6 74.05 7.15 L73.8 4.7 73.1 2.5 Q72.65 1.65 71.95 1.65 M-163.2 -3.95 L-163.4 -4.6 Q-163.4 -5.85 -161.35 -6.15 L-158.85 -6.25 -157.35 -6.1 -156.25 -5.35 -149.95 0.15 -148.65 0.95 Q-148.0 0.95 -148.0 -0.45 L-148.2 -2.65 -149.0 -3.55 -149.7 -4.05 -149.9 -4.75 Q-149.9 -5.8 -148.45 -6.1 L-146.35 -6.25 -143.7 -6.0 Q-142.5 -5.65 -142.5 -4.65 -142.5 -3.85 -143.5 -3.45 L-144.0 -3.15 -144.25 -2.75 Q-144.6 -1.9 -144.6 0.4 L-144.6 4.55 -144.6 7.15 Q-144.55 9.4 -144.85 10.4 -145.2 11.6 -146.1 11.6 L-146.75 11.45 -147.7 10.7 -155.25 3.95 Q-156.05 3.25 -156.55 3.25 -157.35 3.25 -157.35 5.4 L-157.1 7.8 Q-156.95 8.45 -156.3 8.75 -155.45 9.15 -155.45 9.85 -155.45 11.6 -159.25 11.6 L-161.9 11.15 Q-162.85 10.7 -162.85 9.9 L-162.7 9.25 -161.9 8.65 Q-161.3 8.3 -161.15 7.4 L-160.95 2.7 Q-160.95 -0.6 -161.35 -2.1 L-161.7 -2.9 -162.4 -3.4 Q-163.0 -3.7 -163.2 -3.95 M-134.75 -1.3 Q-132.35 -1.3 -130.65 0.1 -129.8 0.75 -129.3 1.7 -128.7 2.75 -128.7 3.8 -128.7 4.6 -129.05 5.15 -129.4 5.65 -129.95 5.65 L-135.9 5.65 Q-136.3 5.65 -136.3 6.0 -136.3 6.85 -135.4 7.55 -134.5 8.3 -133.5 8.3 L-132.1 8.05 -130.9 7.5 Q-130.45 7.15 -130.2 7.15 -129.9 7.15 -129.55 7.6 -129.25 8.0 -129.25 8.4 -129.25 9.35 -130.4 10.2 -132.4 11.7 -135.05 11.7 -137.7 11.7 -139.5 10.15 -140.4 9.4 -140.95 8.3 -141.7 6.85 -141.7 5.3 -141.7 3.15 -140.4 1.45 -139.3 0.0 -137.6 -0.75 -136.3 -1.3 -134.75 -1.3 M-123.7 -1.2 Q-119.65 -1.2 -119.65 0.3 L-120.05 1.15 -120.1 1.4 -119.5 2.75 Q-118.85 4.0 -118.35 4.0 L-117.65 3.4 -117.25 2.35 Q-117.25 1.95 -117.4 1.75 L-118.3 1.0 Q-118.75 0.7 -118.75 0.25 -118.75 -0.7 -116.7 -1.05 L-113.85 -1.2 -111.05 -0.9 Q-110.2 -0.55 -110.2 0.15 L-110.3 0.6 -110.85 1.25 -111.0 1.65 -110.4 3.1 Q-109.9 4.05 -109.5 4.05 -109.05 4.05 -108.35 2.85 -107.8 1.9 -107.8 1.6 -107.8 1.35 -108.25 0.85 L-108.5 0.1 Q-108.5 -0.6 -107.9 -0.85 L-105.5 -1.2 -103.55 -1.05 -102.8 -0.6 Q-102.5 -0.3 -102.5 0.1 -102.5 0.5 -102.85 0.75 -102.9 0.85 -103.7 1.15 -104.2 1.3 -104.5 1.65 L-105.25 2.8 -108.4 8.95 Q-109.8 11.65 -110.85 11.65 -111.35 11.65 -111.85 11.1 L-113.25 9.15 -114.6 7.05 -115.15 6.2 Q-115.3 6.05 -115.5 6.05 -115.95 6.05 -116.45 6.9 L-118.55 10.55 Q-119.2 11.6 -119.95 11.6 L-120.8 11.3 -121.65 10.2 -125.45 3.85 -126.95 1.85 -127.9 1.45 -128.35 1.1 -128.55 0.55 Q-128.55 -0.45 -127.0 -0.85 L-123.7 -1.2 M-94.8 -2.9 L-95.5 -3.35 Q-96.15 -3.65 -96.15 -4.45 -96.15 -6.25 -91.7 -6.25 L-88.4 -5.9 Q-87.45 -5.6 -87.45 -4.65 L-87.5 -4.25 -87.85 -3.65 -88.0 -3.05 -87.15 -0.4 -86.65 0.8 -86.2 1.75 -85.9 1.9 Q-85.4 1.9 -84.9 0.5 L-84.35 -0.95 -84.3 -1.2 -84.35 -1.45 -84.7 -2.35 Q-85.05 -3.15 -85.55 -3.4 -86.5 -3.85 -86.5 -4.6 -86.5 -6.25 -81.6 -6.25 L-77.9 -5.85 Q-77.5 -5.7 -77.2 -5.4 L-76.95 -4.7 -77.05 -4.25 -77.75 -3.6 -78.05 -3.05 -77.6 -1.55 -76.85 0.0 -76.15 1.35 -75.65 1.6 -75.15 1.3 -74.65 0.0 -74.0 -1.8 -73.75 -2.95 Q-73.75 -3.45 -74.3 -3.6 -75.35 -3.95 -75.35 -4.8 -75.35 -5.6 -74.55 -5.9 L-71.85 -6.25 -69.9 -5.95 Q-68.95 -5.6 -68.95 -4.75 -68.95 -4.4 -69.1 -4.1 L-69.8 -3.4 -70.35 -2.8 -70.9 -1.4 -73.15 4.5 -75.15 9.4 -75.85 10.8 -76.45 11.45 -77.4 11.65 -78.6 11.3 -79.4 10.2 -81.9 4.25 -82.2 3.6 -82.5 3.5 Q-82.75 3.5 -82.95 3.8 L-83.65 5.45 -85.4 9.75 Q-85.9 10.9 -86.3 11.3 L-87.65 11.65 Q-88.45 11.65 -88.9 11.25 L-89.75 9.95 -94.4 -2.0 -94.8 -2.9 M-61.7 -1.3 Q-59.3 -1.3 -57.6 0.1 -56.75 0.75 -56.25 1.7 -55.65 2.75 -55.65 3.8 -55.65 4.6 -56.0 5.15 -56.35 5.65 -56.9 5.65 L-62.85 5.65 Q-63.25 5.65 -63.25 6.0 -63.25 6.85 -62.35 7.55 -61.45 8.3 -60.45 8.3 L-59.05 8.05 -57.85 7.5 Q-57.4 7.15 -57.15 7.15 L-56.5 7.6 Q-56.2 8.0 -56.2 8.4 -56.2 9.35 -57.35 10.2 -59.35 11.7 -62.0 11.7 -64.65 11.7 -66.45 10.15 -67.35 9.4 -67.9 8.3 -68.65 6.85 -68.65 5.3 -68.65 3.15 -67.35 1.45 -66.25 0.0 -64.55 -0.75 L-61.7 -1.3 M-47.55 -1.3 Q-45.35 -1.3 -43.8 -0.2 -43.0 0.4 -42.7 1.2 -42.35 1.95 -42.35 3.3 L-42.4 5.2 Q-42.4 7.15 -42.1 7.75 L-41.85 8.1 -41.3 8.25 Q-40.9 8.3 -40.9 8.75 -40.9 9.35 -41.4 10.05 -41.9 10.7 -42.65 11.15 -43.6 11.7 -44.65 11.7 -46.0 11.7 -46.75 10.8 L-47.25 10.45 Q-47.5 10.45 -47.9 10.75 -49.2 11.7 -50.8 11.7 -52.45 11.7 -53.5 11.0 L-54.55 9.75 Q-54.95 9.0 -54.95 8.2 -54.95 6.85 -53.9 5.85 -52.25 4.25 -48.9 4.25 L-48.0 4.1 -47.8 3.4 Q-47.8 2.05 -48.1 1.45 -48.35 0.85 -49.0 0.85 L-49.65 1.1 -50.4 1.9 Q-51.55 3.55 -52.75 3.55 -53.4 3.55 -53.8 3.15 -54.2 2.8 -54.2 2.2 -54.2 1.6 -53.7 1.0 L-52.35 -0.1 Q-50.05 -1.3 -47.55 -1.3 M-25.75 -0.2 Q-24.75 0.65 -24.25 1.95 -23.7 3.3 -23.7 4.8 -23.7 8.0 -25.85 10.1 -27.5 11.7 -29.6 11.7 L-31.85 11.2 -32.2 11.1 Q-32.6 11.1 -32.6 11.85 -32.6 12.85 -31.9 13.3 -31.3 13.7 -31.15 13.85 L-31.05 14.35 Q-31.05 15.1 -31.9 15.55 L-34.3 15.95 Q-37.05 15.95 -39.15 14.85 -40.2 14.25 -40.2 13.45 L-40.0 12.85 -39.4 12.45 Q-38.75 12.15 -38.6 11.35 -38.45 10.55 -38.4 6.75 -38.45 3.65 -38.6 3.25 L-38.75 3.1 -39.4 2.95 -40.05 2.6 -40.3 1.85 -39.95 0.95 Q-39.6 0.55 -38.8 0.2 -35.65 -1.2 -33.85 -1.25 L-32.9 -1.1 -32.7 -0.45 Q-32.7 0.05 -32.4 0.05 L-31.55 -0.45 -30.15 -1.05 -28.6 -1.3 Q-27.0 -1.3 -25.75 -0.2 M-10.85 -0.1 Q-9.6 0.75 -8.8 2.15 -8.05 3.6 -8.05 5.15 -8.05 7.9 -10.55 9.85 -12.95 11.7 -16.1 11.7 -19.1 11.7 -21.0 9.95 -22.8 8.3 -22.8 5.6 -22.8 2.6 -20.6 0.7 -18.25 -1.3 -14.9 -1.3 -12.6 -1.3 -10.85 -0.1 M-14.75 2.5 Q-15.2 1.65 -15.9 1.65 -16.5 1.65 -16.8 2.05 -17.15 2.45 -17.15 3.15 L-16.85 5.2 -16.2 7.55 Q-15.8 8.6 -14.9 8.6 -13.8 8.6 -13.8 7.15 L-14.05 4.7 Q-14.35 3.35 -14.75 2.5 M-32.6 3.55 L-32.8 7.05 -32.8 7.5 -32.45 8.1 -31.55 8.35 Q-29.8 8.35 -29.8 5.45 -29.8 3.6 -30.5 2.85 -31.0 2.35 -31.6 2.35 -32.5 2.35 -32.6 3.55 M-49.8 7.6 L-49.5 8.6 Q-49.2 8.95 -48.75 8.95 -47.7 8.95 -47.7 7.25 -47.7 6.55 -47.85 6.3 -48.0 6.05 -48.4 6.05 -49.0 6.05 -49.4 6.5 -49.8 6.95 -49.8 7.6 M-62.95 1.55 Q-63.35 2.05 -63.35 2.6 L-63.15 3.15 -62.5 3.3 -61.25 3.3 Q-60.45 3.3 -60.45 2.55 -60.45 1.85 -60.8 1.4 -61.2 1.0 -61.85 1.0 -62.55 1.0 -62.95 1.55 M-133.85 1.4 Q-134.25 1.0 -134.9 1.0 -135.6 1.0 -136.0 1.55 -136.4 2.05 -136.4 2.6 L-136.2 3.15 -135.55 3.3 -134.3 3.3 Q-133.5 3.3 -133.5 2.55 -133.5 1.85 -133.85 1.4" fill="#d39e01" fill-rule="evenodd" stroke="none"/>
  </g>
</svg>
