<?xml version="1.0" encoding="UTF-8" standalone="no"?>
<svg xmlns:xlink="http://www.w3.org/1999/xlink" height="20.25px" width="20.75px" xmlns="http://www.w3.org/2000/svg">
  <g transform="matrix(1.0, 0.0, 0.0, 1.0, 10.65, 10.4)">
    <path d="M0.25 -10.4 L0.7 -10.05 0.85 -9.9 Q0.9 -7.25 1.1 -4.65 L1.1 -4.25 1.25 -4.05 1.35 -3.9 1.35 -3.7 1.35 -3.5 Q3.0 -1.55 5.55 -1.3 L9.05 -1.0 Q9.95 -0.95 10.1 -0.2 L9.9 0.15 9.75 0.3 4.6 0.7 3.5 1.0 Q2.15 1.65 1.45 2.95 1.3 6.1 1.3 9.3 L1.2 9.7 1.0 9.8 0.75 9.85 0.2 9.55 0.1 7.5 0.1 7.1 0.05 6.95 -0.15 6.75 -0.15 3.95 -0.15 3.55 -0.25 3.35 -0.4 3.2 -0.4 3.0 -0.4 2.8 Q-0.95 1.3 -2.2 0.45 L-10.35 -0.15 -10.65 -0.4 Q-10.3 -1.8 -8.65 -1.65 -5.7 -1.3 -2.75 -1.55 -1.25 -1.65 -0.65 -3.05 L-0.65 -3.25 -0.65 -3.45 -0.5 -3.65 -0.4 -3.8 -0.4 -9.65 -0.4 -10.0 0.0 -10.3 0.25 -10.4 M-1.15 -0.4 L-1.05 -0.55 -1.25 -0.45 -1.15 -0.4" fill="#000000" fill-rule="evenodd" stroke="none"/>
  </g>
</svg>
