<?xml version="1.0" encoding="UTF-8" standalone="no"?>
<svg xmlns:xlink="http://www.w3.org/1999/xlink" height="54.0px" width="156.0px" xmlns="http://www.w3.org/2000/svg">
  <g transform="matrix(1.0, 0.0, 0.0, 1.0, 81.5, 26.5)">
    <path d="M72.5 -24.55 Q74.0 -23.05 74.0 -21.0 L74.0 22.0 Q74.0 24.05 72.5 25.5 71.05 27.0 69.0 27.0 L-76.0 27.0 Q-78.05 27.0 -79.55 25.5 -81.0 24.05 -81.0 22.0 L-81.0 -21.0 Q-81.0 -23.05 -79.55 -24.55 -78.05 -26.0 -76.0 -26.0 L69.0 -26.0 Q71.05 -26.0 72.5 -24.55" fill="url(#gradient0)" fill-rule="evenodd" stroke="none"/>
    <path d="M72.5 -24.55 Q71.05 -26.0 69.0 -26.0 L-76.0 -26.0 Q-78.05 -26.0 -79.55 -24.55 -81.0 -23.05 -81.0 -21.0 L-81.0 22.0 Q-81.0 24.05 -79.55 25.5 -78.05 27.0 -76.0 27.0 L69.0 27.0 Q71.05 27.0 72.5 25.5 74.0 24.05 74.0 22.0 L74.0 -21.0 Q74.0 -23.05 72.5 -24.55 Z" fill="none" stroke="#ffffff" stroke-linecap="round" stroke-linejoin="round" stroke-width="1.0"/>
  </g>
  <defs>
    <radialGradient cx="0" cy="0" gradientTransform="matrix(0.0295, 0.0064, -0.0285, 0.131, -3.0, 0.0)" gradientUnits="userSpaceOnUse" id="gradient0" r="819.2" spreadMethod="pad">
      <stop offset="0.0" stop-color="#ffffff"/>
      <stop offset="1.0" stop-color="#009900"/>
    </radialGradient>
  </defs>
</svg>
