<?xml version="1.0" encoding="UTF-8" standalone="no"?>
<svg xmlns:xlink="http://www.w3.org/1999/xlink" height="370.6px" width="518.2px" xmlns="http://www.w3.org/2000/svg">
  <g transform="matrix(1.0, 0.0, 0.0, 1.0, 258.7, 184.3)">
    <path d="M256.65 -180.5 Q258.5 -177.65 258.5 -173.7 L258.5 175.7 Q258.5 179.65 256.65 182.45 254.8 185.3 252.25 185.3 L-251.45 185.3 Q-254.0 185.3 -255.85 182.45 -257.7 179.65 -257.7 175.7 L-257.7 -173.7 Q-257.7 -177.65 -255.85 -180.5 -254.0 -183.3 -251.45 -183.3 L252.25 -183.3 Q254.8 -183.3 256.65 -180.5" fill="#000000" fill-rule="evenodd" stroke="none"/>
    <path d="M256.65 -180.5 Q254.8 -183.3 252.25 -183.3 L-251.45 -183.3 Q-254.0 -183.3 -255.85 -180.5 -257.7 -177.65 -257.7 -173.7 L-257.7 175.7 Q-257.7 179.65 -255.85 182.45 -254.0 185.3 -251.45 185.3 L252.25 185.3 Q254.8 185.3 256.65 182.45 258.5 179.65 258.5 175.7 L258.5 -173.7 Q258.5 -177.65 256.65 -180.5 Z" fill="none" stroke="#ffffff" stroke-linecap="round" stroke-linejoin="round" stroke-width="2.0"/>
  </g>
</svg>
