<?xml version="1.0" encoding="UTF-8" standalone="no"?>
<svg xmlns:xlink="http://www.w3.org/1999/xlink" height="8.7px" width="4.55px" xmlns="http://www.w3.org/2000/svg">
  <g transform="matrix(1.0, 0.0, 0.0, 1.0, 7.85, 5.3)">
    <path d="M-7.05 -2.75 L-6.2 -5.05 Q-5.75 -1.25 -5.3 -1.25 L-4.1 0.3 Q-3.55 0.8 -3.55 1.5 -3.55 2.2 -4.1 2.65 -4.6 3.15 -5.3 3.15 -6.0 3.15 -6.55 2.65 -7.6 1.75 -7.6 -0.35 L-7.05 -2.75" fill="url(#gradient0)" fill-rule="evenodd" stroke="none"/>
    <path d="M-7.05 -2.75 L-6.2 -5.05 Q-5.75 -1.25 -5.3 -1.25 L-4.1 0.3 Q-3.55 0.8 -3.55 1.5 -3.55 2.2 -4.1 2.65 -4.6 3.15 -5.3 3.15 -6.0 3.15 -6.55 2.65 -7.6 1.75 -7.6 -0.35 L-7.05 -2.75 Z" fill="none" stroke="#000000" stroke-linecap="round" stroke-linejoin="round" stroke-width="0.5"/>
  </g>
  <defs>
    <radialGradient cx="0" cy="0" gradientTransform="matrix(0.0028, 0.0, 0.0, 0.0028, -5.3, 1.5)" gradientUnits="userSpaceOnUse" id="gradient0" r="819.2" spreadMethod="pad">
      <stop offset="0.0" stop-color="#bebe4b"/>
      <stop offset="1.0" stop-color="#ffffff"/>
    </radialGradient>
  </defs>
</svg>
