<?xml version="1.0" encoding="UTF-8" standalone="no"?>
<svg xmlns:xlink="http://www.w3.org/1999/xlink" height="8.6px" width="4.35px" xmlns="http://www.w3.org/2000/svg">
  <g transform="matrix(1.0, 0.0, 0.0, 1.0, 7.9, 13.6)">
    <path d="M-6.6 -11.05 L-5.35 -13.35 Q-5.55 -9.6 -5.1 -9.6 L-4.2 -8.05 Q-3.7 -7.55 -3.85 -6.9 -3.95 -6.2 -4.6 -5.75 -5.2 -5.25 -5.9 -5.25 -6.6 -5.25 -7.05 -5.75 -7.95 -6.65 -7.55 -8.7 L-6.6 -11.05" fill="url(#gradient0)" fill-rule="evenodd" stroke="none"/>
    <path d="M-6.6 -11.05 L-5.35 -13.35 Q-5.55 -9.6 -5.1 -9.6 L-4.2 -8.05 Q-3.7 -7.55 -3.85 -6.9 -3.95 -6.2 -4.6 -5.75 -5.2 -5.25 -5.9 -5.25 -6.6 -5.25 -7.05 -5.75 -7.95 -6.65 -7.55 -8.7 L-6.6 -11.05 Z" fill="none" stroke="#000000" stroke-linecap="round" stroke-linejoin="round" stroke-width="0.5"/>
  </g>
  <defs>
    <radialGradient cx="0" cy="0" gradientTransform="matrix(0.0028, 0.0, -5.0E-4, 0.0028, -5.6, -6.9)" gradientUnits="userSpaceOnUse" id="gradient0" r="819.2" spreadMethod="pad">
      <stop offset="0.0" stop-color="#bebe4b"/>
      <stop offset="1.0" stop-color="#ffffff"/>
    </radialGradient>
  </defs>
</svg>
