<?xml version="1.0" encoding="UTF-8" standalone="no"?>
<svg xmlns:xlink="http://www.w3.org/1999/xlink" height="8.7px" width="4.55px" xmlns="http://www.w3.org/2000/svg">
  <g transform="matrix(1.0, 0.0, 0.0, 1.0, -7.35, 3.35)">
    <path d="M11.1 -0.8 L10.25 -3.1 Q9.8 0.7 9.35 0.7 L8.15 2.25 Q7.6 2.75 7.6 3.45 7.6 4.15 8.15 4.6 8.65 5.1 9.35 5.1 10.05 5.1 10.6 4.6 11.65 3.7 11.65 1.6 L11.1 -0.8" fill="url(#gradient0)" fill-rule="evenodd" stroke="none"/>
    <path d="M11.1 -0.8 L10.25 -3.1 Q9.8 0.7 9.35 0.7 L8.15 2.25 Q7.6 2.75 7.6 3.45 7.6 4.15 8.15 4.6 8.65 5.1 9.35 5.1 10.05 5.1 10.6 4.6 11.65 3.7 11.65 1.6 L11.1 -0.8 Z" fill="none" stroke="#000000" stroke-linecap="round" stroke-linejoin="round" stroke-width="0.5"/>
  </g>
  <defs>
    <radialGradient cx="0" cy="0" gradientTransform="matrix(-0.0028, 0.0, 0.0, 0.0028, 9.35, 3.45)" gradientUnits="userSpaceOnUse" id="gradient0" r="819.2" spreadMethod="pad">
      <stop offset="0.0" stop-color="#bebe4b"/>
      <stop offset="1.0" stop-color="#ffffff"/>
    </radialGradient>
  </defs>
</svg>
