<?xml version="1.0" encoding="UTF-8" standalone="no"?>
<svg xmlns:xlink="http://www.w3.org/1999/xlink" height="8.6px" width="4.35px" xmlns="http://www.w3.org/2000/svg">
  <g transform="matrix(1.0, 0.0, 0.0, 1.0, -7.6, 11.65)">
    <path d="M10.65 -9.1 L9.4 -11.4 Q9.6 -7.65 9.15 -7.65 L8.25 -6.1 Q7.75 -5.6 7.9 -4.95 8.0 -4.25 8.65 -3.8 9.25 -3.3 9.95 -3.3 10.65 -3.3 11.1 -3.8 12.0 -4.7 11.6 -6.75 L10.65 -9.1" fill="url(#gradient0)" fill-rule="evenodd" stroke="none"/>
    <path d="M10.65 -9.1 L9.4 -11.4 Q9.6 -7.65 9.15 -7.65 L8.25 -6.1 Q7.75 -5.6 7.9 -4.95 8.0 -4.25 8.65 -3.8 9.25 -3.3 9.95 -3.3 10.65 -3.3 11.1 -3.8 12.0 -4.7 11.6 -6.75 L10.65 -9.1 Z" fill="none" stroke="#000000" stroke-linecap="round" stroke-linejoin="round" stroke-width="0.5"/>
  </g>
  <defs>
    <radialGradient cx="0" cy="0" gradientTransform="matrix(-0.0028, 0.0, 5.0E-4, 0.0028, 9.65, -4.95)" gradientUnits="userSpaceOnUse" id="gradient0" r="819.2" spreadMethod="pad">
      <stop offset="0.0" stop-color="#bebe4b"/>
      <stop offset="1.0" stop-color="#ffffff"/>
    </radialGradient>
  </defs>
</svg>
