<?xml version="1.0" encoding="UTF-8" standalone="no"?>
<svg xmlns:xlink="http://www.w3.org/1999/xlink" height="4.6px" width="2.55px" xmlns="http://www.w3.org/2000/svg">
  <g transform="matrix(1.0, 0.0, 0.0, 1.0, 10.5, -2.5)">
    <path d="M-9.95 3.9 L-9.55 2.75 Q-9.3 4.65 -9.1 4.65 L-8.5 5.4 Q-8.2 5.65 -8.2 6.0 -8.2 6.35 -8.5 6.6 L-9.1 6.85 -9.7 6.6 Q-10.25 6.15 -10.25 5.1 L-9.95 3.9" fill="url(#gradient0)" fill-rule="evenodd" stroke="none"/>
    <path d="M-9.95 3.9 L-9.55 2.75 Q-9.3 4.65 -9.1 4.65 L-8.5 5.4 Q-8.2 5.65 -8.2 6.0 -8.2 6.35 -8.5 6.6 L-9.1 6.85 -9.7 6.6 Q-10.25 6.15 -10.25 5.1 L-9.95 3.9 Z" fill="none" stroke="#000000" stroke-linecap="round" stroke-linejoin="round" stroke-width="0.5"/>
  </g>
  <defs>
    <radialGradient cx="0" cy="0" gradientTransform="matrix(0.0014, 0.0, 0.0, 0.0014, -9.1, 6.0)" gradientUnits="userSpaceOnUse" id="gradient0" r="819.2" spreadMethod="pad">
      <stop offset="0.0" stop-color="#bebe4b"/>
      <stop offset="1.0" stop-color="#ffffff"/>
    </radialGradient>
  </defs>
</svg>
