<?xml version="1.0" encoding="UTF-8" standalone="no"?>
<svg xmlns:xlink="http://www.w3.org/1999/xlink" height="8.7px" width="4.55px" xmlns="http://www.w3.org/2000/svg">
  <g transform="matrix(1.0, 0.0, 0.0, 1.0, 12.1, 2.95)">
    <path d="M-11.3 -0.4 L-10.45 -2.7 Q-10.0 1.1 -9.55 1.1 L-8.35 2.65 Q-7.8 3.15 -7.8 3.85 -7.8 4.55 -8.35 5.0 -8.85 5.5 -9.55 5.5 -10.25 5.5 -10.8 5.0 -11.85 4.1 -11.85 2.0 L-11.3 -0.4" fill="url(#gradient0)" fill-rule="evenodd" stroke="none"/>
    <path d="M-11.3 -0.4 L-10.45 -2.7 Q-10.0 1.1 -9.55 1.1 L-8.35 2.65 Q-7.8 3.15 -7.8 3.85 -7.8 4.55 -8.35 5.0 -8.85 5.5 -9.55 5.5 -10.25 5.5 -10.8 5.0 -11.85 4.1 -11.85 2.0 L-11.3 -0.4 Z" fill="none" stroke="#000000" stroke-linecap="round" stroke-linejoin="round" stroke-width="0.5"/>
  </g>
  <defs>
    <radialGradient cx="0" cy="0" gradientTransform="matrix(0.0028, 0.0, 0.0, 0.0028, -9.55, 3.85)" gradientUnits="userSpaceOnUse" id="gradient0" r="819.2" spreadMethod="pad">
      <stop offset="0.0" stop-color="#bebe4b"/>
      <stop offset="1.0" stop-color="#ffffff"/>
    </radialGradient>
  </defs>
</svg>
