<?xml version="1.0" encoding="UTF-8" standalone="no"?>
<svg xmlns:xlink="http://www.w3.org/1999/xlink" height="8.6px" width="4.35px" xmlns="http://www.w3.org/2000/svg">
  <g transform="matrix(1.0, 0.0, 0.0, 1.0, 12.15, 11.25)">
    <path d="M-10.85 -8.7 L-9.6 -11.0 Q-9.8 -7.25 -9.35 -7.25 L-8.45 -5.7 Q-7.95 -5.2 -8.1 -4.55 -8.2 -3.85 -8.85 -3.4 -9.45 -2.9 -10.15 -2.9 -10.85 -2.9 -11.3 -3.4 -12.2 -4.3 -11.8 -6.35 L-10.85 -8.7" fill="url(#gradient0)" fill-rule="evenodd" stroke="none"/>
    <path d="M-10.85 -8.7 L-9.6 -11.0 Q-9.8 -7.25 -9.35 -7.25 L-8.45 -5.7 Q-7.95 -5.2 -8.1 -4.55 -8.2 -3.85 -8.85 -3.4 -9.45 -2.9 -10.15 -2.9 -10.85 -2.9 -11.3 -3.4 -12.2 -4.3 -11.8 -6.35 L-10.85 -8.7 Z" fill="none" stroke="#000000" stroke-linecap="round" stroke-linejoin="round" stroke-width="0.5"/>
  </g>
  <defs>
    <radialGradient cx="0" cy="0" gradientTransform="matrix(0.0028, 0.0, -5.0E-4, 0.0028, -9.85, -4.55)" gradientUnits="userSpaceOnUse" id="gradient0" r="819.2" spreadMethod="pad">
      <stop offset="0.0" stop-color="#bebe4b"/>
      <stop offset="1.0" stop-color="#ffffff"/>
    </radialGradient>
  </defs>
</svg>
