<?xml version="1.0" encoding="UTF-8" standalone="no"?>
<svg xmlns:xlink="http://www.w3.org/1999/xlink" height="8.7px" width="4.55px" xmlns="http://www.w3.org/2000/svg">
  <g transform="matrix(1.0, 0.0, 0.0, 1.0, -1.0, 5.4)">
    <path d="M4.75 -2.85 L3.9 -5.15 Q3.45 -1.35 3.0 -1.35 L1.8 0.2 Q1.25 0.7 1.25 1.4 1.25 2.1 1.8 2.55 2.3 3.05 3.0 3.05 3.7 3.05 4.25 2.55 5.3 1.65 5.3 -0.45 L4.75 -2.85" fill="url(#gradient0)" fill-rule="evenodd" stroke="none"/>
    <path d="M4.75 -2.85 L3.9 -5.15 Q3.45 -1.35 3.0 -1.35 L1.8 0.2 Q1.25 0.7 1.25 1.4 1.25 2.1 1.8 2.55 2.3 3.05 3.0 3.05 3.7 3.05 4.25 2.55 5.3 1.65 5.3 -0.45 L4.75 -2.85 Z" fill="none" stroke="#000000" stroke-linecap="round" stroke-linejoin="round" stroke-width="0.5"/>
  </g>
  <defs>
    <radialGradient cx="0" cy="0" gradientTransform="matrix(-0.0028, 0.0, 0.0, 0.0028, 3.0, 1.4)" gradientUnits="userSpaceOnUse" id="gradient0" r="819.2" spreadMethod="pad">
      <stop offset="0.0" stop-color="#bebe4b"/>
      <stop offset="1.0" stop-color="#ffffff"/>
    </radialGradient>
  </defs>
</svg>
