<?xml version="1.0" encoding="UTF-8" standalone="no"?>
<svg xmlns:xlink="http://www.w3.org/1999/xlink" height="8.6px" width="4.35px" xmlns="http://www.w3.org/2000/svg">
  <g transform="matrix(1.0, 0.0, 0.0, 1.0, -1.25, 13.7)">
    <path d="M4.3 -11.15 L3.05 -13.45 Q3.25 -9.7 2.8 -9.7 L1.9 -8.15 Q1.4 -7.65 1.55 -7.0 1.65 -6.3 2.3 -5.85 2.9 -5.35 3.6 -5.35 4.3 -5.35 4.75 -5.85 5.65 -6.75 5.25 -8.8 L4.3 -11.15" fill="url(#gradient0)" fill-rule="evenodd" stroke="none"/>
    <path d="M4.3 -11.15 L3.05 -13.45 Q3.25 -9.7 2.8 -9.7 L1.9 -8.15 Q1.4 -7.65 1.55 -7.0 1.65 -6.3 2.3 -5.85 2.9 -5.35 3.6 -5.35 4.3 -5.35 4.75 -5.85 5.65 -6.75 5.25 -8.8 L4.3 -11.15 Z" fill="none" stroke="#000000" stroke-linecap="round" stroke-linejoin="round" stroke-width="0.5"/>
  </g>
  <defs>
    <radialGradient cx="0" cy="0" gradientTransform="matrix(-0.0028, 0.0, 5.0E-4, 0.0028, 3.3, -7.0)" gradientUnits="userSpaceOnUse" id="gradient0" r="819.2" spreadMethod="pad">
      <stop offset="0.0" stop-color="#bebe4b"/>
      <stop offset="1.0" stop-color="#ffffff"/>
    </radialGradient>
  </defs>
</svg>
