<?xml version="1.0" encoding="UTF-8" standalone="no"?>
<svg xmlns:xlink="http://www.w3.org/1999/xlink" height="12.3px" width="5.8px" xmlns="http://www.w3.org/2000/svg">
  <g transform="matrix(1.0, 0.0, 0.0, 1.0, 11.65, 6.7)">
    <path d="M-6.35 -6.45 Q-5.9 -5.75 -5.9 -5.1 L-5.85 -2.1 -6.05 0.95 -6.3 3.2 Q-6.45 4.45 -6.95 5.35 L-6.95 3.75 -8.15 4.8 Q-8.5 3.1 -7.85 1.5 -9.05 2.35 -9.75 3.45 L-9.7 2.1 Q-9.5 -0.25 -8.65 -1.55 -10.95 -1.0 -11.4 1.05 -11.4 -0.2 -11.0 -1.35 -10.35 -3.15 -9.1 -4.5 -7.9 -5.8 -6.35 -6.45" fill="url(#gradient0)" fill-rule="evenodd" stroke="none"/>
    <path d="M-6.35 -6.45 Q-7.9 -5.8 -9.1 -4.5 -10.35 -3.15 -11.0 -1.35 -11.4 -0.2 -11.4 1.05 -10.95 -1.0 -8.65 -1.55 -9.5 -0.25 -9.7 2.1 L-9.75 3.45 Q-9.05 2.35 -7.85 1.5 -8.5 3.1 -8.15 4.8 L-6.95 3.75 -6.95 5.35" fill="none" stroke="#000000" stroke-linecap="round" stroke-linejoin="round" stroke-width="0.5"/>
  </g>
  <defs>
    <radialGradient cx="0" cy="0" gradientTransform="matrix(0.0109, 0.0, 0.0, 0.0109, -7.25, -3.55)" gradientUnits="userSpaceOnUse" id="gradient0" r="819.2" spreadMethod="pad">
      <stop offset="0.3215686274509804" stop-color="#8c6b37"/>
      <stop offset="1.0" stop-color="#3c301a"/>
    </radialGradient>
  </defs>
</svg>
