<?xml version="1.0" encoding="UTF-8" standalone="no"?>
<svg xmlns:xlink="http://www.w3.org/1999/xlink" height="6.4px" width="3.0px" xmlns="http://www.w3.org/2000/svg">
  <g transform="matrix(1.0, 0.0, 0.0, 1.0, 8.0, 10.95)">
    <path d="M-5.25 -10.7 L-5.0 -10.0 -5.0 -8.5 -5.1 -7.0 -5.2 -5.85 Q-5.3 -5.25 -5.55 -4.8 L-5.55 -5.6 -6.15 -5.05 -6.0 -6.7 -6.95 -5.75 -6.9 -6.4 Q-6.8 -7.6 -6.4 -8.25 -7.55 -7.95 -7.75 -6.95 L-7.55 -8.15 -6.6 -9.7 -5.25 -10.7" fill="url(#gradient0)" fill-rule="evenodd" stroke="none"/>
    <path d="M-5.25 -10.7 L-6.6 -9.7 -7.55 -8.15 -7.75 -6.95 Q-7.55 -7.95 -6.4 -8.25 -6.8 -7.6 -6.9 -6.4 L-6.95 -5.75 -6.0 -6.7 -6.15 -5.05 -5.55 -5.6 -5.55 -4.8" fill="none" stroke="#000000" stroke-linecap="round" stroke-linejoin="round" stroke-width="0.5"/>
  </g>
  <defs>
    <radialGradient cx="0" cy="0" gradientTransform="matrix(0.0054, 0.0, 0.0, 0.0054, -5.7, -9.25)" gradientUnits="userSpaceOnUse" id="gradient0" r="819.2" spreadMethod="pad">
      <stop offset="0.3215686274509804" stop-color="#8c6b37"/>
      <stop offset="1.0" stop-color="#3c301a"/>
    </radialGradient>
  </defs>
</svg>
