<?xml version="1.0" encoding="UTF-8" standalone="no"?>
<svg xmlns:xlink="http://www.w3.org/1999/xlink" height="9.95px" width="4.7px" xmlns="http://www.w3.org/2000/svg">
  <g transform="matrix(1.0, 0.0, 0.0, 1.0, -9.05, 2.75)">
    <path d="M9.95 6.95 L9.95 5.65 10.9 6.5 Q11.2 5.15 10.65 3.85 L12.2 5.4 12.15 4.35 Q12.0 2.45 11.3 1.4 13.15 1.85 13.5 3.5 L13.2 1.6 Q12.65 0.15 11.65 -0.95 10.7 -2.0 9.45 -2.5 9.1 -1.95 9.1 -1.4 L9.05 1.0 9.25 3.4 9.45 5.2 Q9.55 6.2 9.95 6.95" fill="url(#gradient0)" fill-rule="evenodd" stroke="none"/>
    <path d="M9.45 -2.5 Q10.7 -2.0 11.65 -0.95 12.65 0.15 13.2 1.6 L13.5 3.5 Q13.15 1.85 11.3 1.4 12.0 2.45 12.15 4.35 L12.2 5.4 10.65 3.85 Q11.2 5.15 10.9 6.5 L9.95 5.65 9.95 6.95" fill="none" stroke="#000000" stroke-linecap="round" stroke-linejoin="round" stroke-width="0.5"/>
  </g>
  <defs>
    <radialGradient cx="0" cy="0" gradientTransform="matrix(-0.0087, 0.0, 0.0, 0.0087, 10.2, -0.2)" gradientUnits="userSpaceOnUse" id="gradient0" r="819.2" spreadMethod="pad">
      <stop offset="0.3215686274509804" stop-color="#8c6b37"/>
      <stop offset="1.0" stop-color="#3c301a"/>
    </radialGradient>
  </defs>
</svg>
