<?xml version="1.0" encoding="UTF-8" standalone="no"?>
<svg xmlns:xlink="http://www.w3.org/1999/xlink" height="12.3px" width="5.8px" xmlns="http://www.w3.org/2000/svg">
  <g transform="matrix(1.0, 0.0, 0.0, 1.0, -8.5, 8.4)">
    <path d="M9.0 -8.15 Q8.55 -7.45 8.55 -6.8 L8.5 -3.8 8.7 -0.75 8.95 1.5 Q9.1 2.75 9.6 3.65 L9.6 2.05 10.8 3.1 Q11.15 1.4 10.5 -0.2 11.7 0.65 12.4 1.75 L12.35 0.4 Q12.15 -1.95 11.3 -3.25 13.6 -2.7 14.05 -0.65 14.05 -1.9 13.65 -3.05 13.0 -4.85 11.75 -6.2 10.55 -7.5 9.0 -8.15" fill="url(#gradient0)" fill-rule="evenodd" stroke="none"/>
    <path d="M9.0 -8.15 Q10.55 -7.5 11.75 -6.2 13.0 -4.85 13.65 -3.05 14.05 -1.9 14.05 -0.65 13.6 -2.7 11.3 -3.25 12.15 -1.95 12.35 0.4 L12.4 1.75 Q11.7 0.65 10.5 -0.2 11.15 1.4 10.8 3.1 L9.6 2.05 9.6 3.65" fill="none" stroke="#000000" stroke-linecap="round" stroke-linejoin="round" stroke-width="0.5"/>
  </g>
  <defs>
    <radialGradient cx="0" cy="0" gradientTransform="matrix(-0.0109, 0.0, 0.0, 0.0109, 9.9, -5.25)" gradientUnits="userSpaceOnUse" id="gradient0" r="819.2" spreadMethod="pad">
      <stop offset="0.3215686274509804" stop-color="#8c6b37"/>
      <stop offset="1.0" stop-color="#3c301a"/>
    </radialGradient>
  </defs>
</svg>
