<?xml version="1.0" encoding="UTF-8" standalone="no"?>
<svg xmlns:xlink="http://www.w3.org/1999/xlink" height="6.4px" width="3.0px" xmlns="http://www.w3.org/2000/svg">
  <g transform="matrix(1.0, 0.0, 0.0, 1.0, 4.35, -4.3)">
    <path d="M-1.9 10.45 L-1.9 9.65 -2.5 10.2 -2.35 8.55 -3.3 9.5 -3.25 8.85 Q-3.15 7.65 -2.75 7.0 -3.9 7.3 -4.1 8.3 L-3.9 7.1 Q-3.6 6.2 -2.95 5.55 L-1.6 4.55 -1.35 5.25 -1.35 6.75 -1.45 8.25 -1.55 9.4 Q-1.65 10.0 -1.9 10.45" fill="url(#gradient0)" fill-rule="evenodd" stroke="none"/>
    <path d="M-1.6 4.55 L-2.95 5.55 Q-3.6 6.2 -3.9 7.1 L-4.1 8.3 Q-3.9 7.3 -2.75 7.0 -3.15 7.65 -3.25 8.85 L-3.3 9.5 -2.35 8.55 -2.5 10.2 -1.9 9.65 -1.9 10.45" fill="none" stroke="#000000" stroke-linecap="round" stroke-linejoin="round" stroke-width="0.5"/>
  </g>
  <defs>
    <radialGradient cx="0" cy="0" gradientTransform="matrix(0.0054, 0.0, 0.0, 0.0054, -2.05, 6.0)" gradientUnits="userSpaceOnUse" id="gradient0" r="819.2" spreadMethod="pad">
      <stop offset="0.3215686274509804" stop-color="#8c6b37"/>
      <stop offset="1.0" stop-color="#3c301a"/>
    </radialGradient>
  </defs>
</svg>
