<?xml version="1.0" encoding="UTF-8" standalone="no"?>
<svg xmlns:xlink="http://www.w3.org/1999/xlink" height="6.4px" width="3.05px" xmlns="http://www.w3.org/2000/svg">
  <g transform="matrix(1.0, 0.0, 0.0, 1.0, -8.2, 10.6)">
    <path d="M8.75 -4.45 L8.75 -5.25 9.35 -4.7 Q9.55 -5.55 9.2 -6.35 L10.15 -5.4 10.15 -6.05 Q10.05 -7.25 9.6 -7.9 10.75 -7.6 11.0 -6.6 L10.8 -7.8 9.85 -9.35 8.45 -10.35 8.25 -9.65 8.2 -8.15 8.3 -6.65 8.45 -5.5 8.75 -4.45" fill="url(#gradient0)" fill-rule="evenodd" stroke="none"/>
    <path d="M8.45 -10.35 L9.85 -9.35 10.8 -7.8 11.0 -6.6 Q10.75 -7.6 9.6 -7.9 10.05 -7.25 10.15 -6.05 L10.15 -5.4 9.2 -6.35 Q9.55 -5.55 9.35 -4.7 L8.75 -5.25 8.75 -4.45" fill="none" stroke="#000000" stroke-linecap="round" stroke-linejoin="round" stroke-width="0.5"/>
  </g>
  <defs>
    <radialGradient cx="0" cy="0" gradientTransform="matrix(-0.0054, 0.0, 0.0, 0.0054, 8.9, -8.9)" gradientUnits="userSpaceOnUse" id="gradient0" r="819.2" spreadMethod="pad">
      <stop offset="0.3215686274509804" stop-color="#8c6b37"/>
      <stop offset="1.0" stop-color="#3c301a"/>
    </radialGradient>
  </defs>
</svg>
