<?xml version="1.0" encoding="UTF-8" standalone="no"?>
<svg xmlns:xlink="http://www.w3.org/1999/xlink" height="12.3px" width="5.8px" xmlns="http://www.w3.org/2000/svg">
  <g transform="matrix(1.0, 0.0, 0.0, 1.0, 7.85, 5.8)">
    <path d="M-2.55 -5.55 Q-2.1 -4.85 -2.1 -4.2 L-2.05 -1.2 -2.25 1.85 -2.5 4.1 Q-2.65 5.35 -3.15 6.25 L-3.15 4.65 -4.35 5.7 Q-4.7 4.0 -4.05 2.4 -5.25 3.25 -5.95 4.35 L-5.9 3.0 Q-5.7 0.65 -4.85 -0.65 -7.15 -0.1 -7.6 1.95 -7.6 0.7 -7.2 -0.45 -6.55 -2.25 -5.3 -3.6 -4.1 -4.9 -2.55 -5.55" fill="url(#gradient0)" fill-rule="evenodd" stroke="none"/>
    <path d="M-2.55 -5.55 Q-4.1 -4.9 -5.3 -3.6 -6.55 -2.25 -7.2 -0.45 -7.6 0.7 -7.6 1.95 -7.15 -0.1 -4.85 -0.65 -5.7 0.65 -5.9 3.0 L-5.95 4.35 Q-5.25 3.25 -4.05 2.4 -4.7 4.0 -4.35 5.7 L-3.15 4.65 -3.15 6.25" fill="none" stroke="#000000" stroke-linecap="round" stroke-linejoin="round" stroke-width="0.5"/>
  </g>
  <defs>
    <radialGradient cx="0" cy="0" gradientTransform="matrix(0.0109, 0.0, 0.0, 0.0109, -3.45, -2.65)" gradientUnits="userSpaceOnUse" id="gradient0" r="819.2" spreadMethod="pad">
      <stop offset="0.3215686274509804" stop-color="#8c6b37"/>
      <stop offset="1.0" stop-color="#3c301a"/>
    </radialGradient>
  </defs>
</svg>
