<?xml version="1.0" encoding="UTF-8" standalone="no"?>
<svg xmlns:xlink="http://www.w3.org/1999/xlink" height="6.4px" width="3.0px" xmlns="http://www.w3.org/2000/svg">
  <g transform="matrix(1.0, 0.0, 0.0, 1.0, 4.5, 10.85)">
    <path d="M-2.05 -4.7 L-2.05 -5.5 -2.65 -4.95 -2.5 -6.6 -3.45 -5.65 -3.4 -6.3 Q-3.3 -7.5 -2.9 -8.15 -4.05 -7.85 -4.25 -6.85 L-4.05 -8.05 -3.1 -9.6 -1.75 -10.6 -1.5 -9.9 -1.5 -8.4 -1.6 -6.9 -1.7 -5.75 Q-1.8 -5.15 -2.05 -4.7" fill="url(#gradient0)" fill-rule="evenodd" stroke="none"/>
    <path d="M-1.75 -10.6 L-3.1 -9.6 -4.05 -8.05 -4.25 -6.85 Q-4.05 -7.85 -2.9 -8.15 -3.3 -7.5 -3.4 -6.3 L-3.45 -5.65 -2.5 -6.6 -2.65 -4.95 -2.05 -5.5 -2.05 -4.7" fill="none" stroke="#000000" stroke-linecap="round" stroke-linejoin="round" stroke-width="0.5"/>
  </g>
  <defs>
    <radialGradient cx="0" cy="0" gradientTransform="matrix(0.0054, 0.0, 0.0, 0.0054, -2.2, -9.15)" gradientUnits="userSpaceOnUse" id="gradient0" r="819.2" spreadMethod="pad">
      <stop offset="0.3215686274509804" stop-color="#8c6b37"/>
      <stop offset="1.0" stop-color="#3c301a"/>
    </radialGradient>
  </defs>
</svg>
