<?xml version="1.0" encoding="UTF-8" standalone="no"?>
<svg xmlns:xlink="http://www.w3.org/1999/xlink" height="6.4px" width="3.05px" xmlns="http://www.w3.org/2000/svg">
  <g transform="matrix(1.0, 0.0, 0.0, 1.0, -2.0, -4.65)">
    <path d="M2.25 4.9 L2.05 5.6 2.0 7.1 2.1 8.6 2.25 9.75 2.55 10.8 2.55 10.0 3.15 10.55 Q3.35 9.7 3.0 8.9 L3.95 9.85 3.95 9.2 Q3.85 8.0 3.4 7.35 4.55 7.65 4.8 8.65 L4.6 7.45 3.65 5.9 2.25 4.9" fill="url(#gradient0)" fill-rule="evenodd" stroke="none"/>
    <path d="M2.25 4.9 L3.65 5.9 4.6 7.45 4.8 8.65 Q4.55 7.65 3.4 7.35 3.85 8.0 3.95 9.2 L3.95 9.85 3.0 8.9 Q3.35 9.7 3.15 10.55 L2.55 10.0 2.55 10.8" fill="none" stroke="#000000" stroke-linecap="round" stroke-linejoin="round" stroke-width="0.5"/>
  </g>
  <defs>
    <radialGradient cx="0" cy="0" gradientTransform="matrix(-0.0054, 0.0, 0.0, 0.0054, 2.7, 6.35)" gradientUnits="userSpaceOnUse" id="gradient0" r="819.2" spreadMethod="pad">
      <stop offset="0.3215686274509804" stop-color="#8c6b37"/>
      <stop offset="1.0" stop-color="#3c301a"/>
    </radialGradient>
  </defs>
</svg>
