<?xml version="1.0" encoding="UTF-8" standalone="no"?>
<svg xmlns:xlink="http://www.w3.org/1999/xlink" height="9.95px" width="4.7px" xmlns="http://www.w3.org/2000/svg">
  <g transform="matrix(1.0, 0.0, 0.0, 1.0, -2.55, 1.65)">
    <path d="M2.95 -1.4 Q2.6 -0.85 2.6 -0.3 L2.55 2.1 2.75 4.5 2.95 6.3 Q3.05 7.3 3.45 8.05 L3.45 6.75 4.4 7.6 Q4.7 6.25 4.15 4.95 L5.7 6.5 5.65 5.45 Q5.5 3.55 4.8 2.5 6.65 2.95 7.0 4.6 L6.7 2.7 Q6.15 1.25 5.15 0.15 L2.95 -1.4" fill="url(#gradient0)" fill-rule="evenodd" stroke="none"/>
    <path d="M2.95 -1.4 L5.15 0.15 Q6.15 1.25 6.7 2.7 L7.0 4.6 Q6.65 2.95 4.8 2.5 5.5 3.55 5.65 5.45 L5.7 6.5 4.15 4.95 Q4.7 6.25 4.4 7.6 L3.45 6.75 3.45 8.05" fill="none" stroke="#000000" stroke-linecap="round" stroke-linejoin="round" stroke-width="0.5"/>
  </g>
  <defs>
    <radialGradient cx="0" cy="0" gradientTransform="matrix(-0.0087, 0.0, 0.0, 0.0087, 3.7, 0.9)" gradientUnits="userSpaceOnUse" id="gradient0" r="819.2" spreadMethod="pad">
      <stop offset="0.3215686274509804" stop-color="#8c6b37"/>
      <stop offset="1.0" stop-color="#3c301a"/>
    </radialGradient>
  </defs>
</svg>
