<?xml version="1.0" encoding="UTF-8" standalone="no"?>
<svg xmlns:xlink="http://www.w3.org/1999/xlink" height="12.3px" width="5.8px" xmlns="http://www.w3.org/2000/svg">
  <g transform="matrix(1.0, 0.0, 0.0, 1.0, -2.2, 6.7)">
    <path d="M3.3 5.35 L3.3 3.75 4.5 4.8 Q4.85 3.1 4.2 1.5 5.4 2.35 6.1 3.45 L6.05 2.1 Q5.85 -0.25 5.0 -1.55 7.3 -1.0 7.75 1.05 7.75 -0.2 7.35 -1.35 6.7 -3.15 5.45 -4.5 4.25 -5.8 2.7 -6.45 2.25 -5.75 2.25 -5.1 L2.2 -2.1 2.4 0.95 2.65 3.2 Q2.8 4.45 3.3 5.35" fill="url(#gradient0)" fill-rule="evenodd" stroke="none"/>
    <path d="M2.7 -6.45 Q4.25 -5.8 5.45 -4.5 6.7 -3.15 7.35 -1.35 7.75 -0.2 7.75 1.05 7.3 -1.0 5.0 -1.55 5.85 -0.25 6.05 2.1 L6.1 3.45 Q5.4 2.35 4.2 1.5 4.85 3.1 4.5 4.8 L3.3 3.75 3.3 5.35" fill="none" stroke="#000000" stroke-linecap="round" stroke-linejoin="round" stroke-width="0.5"/>
  </g>
  <defs>
    <radialGradient cx="0" cy="0" gradientTransform="matrix(-0.0109, 0.0, 0.0, 0.0109, 3.6, -3.55)" gradientUnits="userSpaceOnUse" id="gradient0" r="819.2" spreadMethod="pad">
      <stop offset="0.3215686274509804" stop-color="#8c6b37"/>
      <stop offset="1.0" stop-color="#3c301a"/>
    </radialGradient>
  </defs>
</svg>
