<?xml version="1.0" encoding="UTF-8" standalone="no"?>
<svg xmlns:xlink="http://www.w3.org/1999/xlink" height="6.4px" width="3.0px" xmlns="http://www.w3.org/2000/svg">
  <g transform="matrix(1.0, 0.0, 0.0, 1.0, 8.15, -3.4)">
    <path d="M-5.7 9.55 L-5.7 8.75 -6.3 9.3 Q-6.45 8.45 -6.15 7.65 L-7.1 8.6 -7.05 7.95 Q-6.95 6.75 -6.55 6.1 -7.7 6.4 -7.9 7.4 L-7.7 6.2 Q-7.4 5.3 -6.75 4.65 -6.15 4.0 -5.4 3.65 L-5.15 4.35 -5.15 5.85 -5.25 7.35 -5.35 8.5 -5.7 9.55" fill="url(#gradient0)" fill-rule="evenodd" stroke="none"/>
    <path d="M-5.4 3.65 Q-6.15 4.0 -6.75 4.65 -7.4 5.3 -7.7 6.2 L-7.9 7.4 Q-7.7 6.4 -6.55 6.1 -6.95 6.75 -7.05 7.95 L-7.1 8.6 -6.15 7.65 Q-6.45 8.45 -6.3 9.3 L-5.7 8.75 -5.7 9.55" fill="none" stroke="#000000" stroke-linecap="round" stroke-linejoin="round" stroke-width="0.5"/>
  </g>
  <defs>
    <radialGradient cx="0" cy="0" gradientTransform="matrix(0.0054, 0.0, 0.0, 0.0054, -5.85, 5.1)" gradientUnits="userSpaceOnUse" id="gradient0" r="819.2" spreadMethod="pad">
      <stop offset="0.3215686274509804" stop-color="#8c6b37"/>
      <stop offset="1.0" stop-color="#3c301a"/>
    </radialGradient>
  </defs>
</svg>
