<?xml version="1.0" encoding="UTF-8" standalone="no"?>
<svg xmlns:xlink="http://www.w3.org/1999/xlink" height="6.4px" width="3.05px" xmlns="http://www.w3.org/2000/svg">
  <g transform="matrix(1.0, 0.0, 0.0, 1.0, -2.55, 11.15)">
    <path d="M2.8 -10.9 L2.6 -10.2 2.55 -8.7 2.65 -7.2 2.8 -6.05 3.1 -5.0 3.1 -5.8 3.7 -5.25 Q3.9 -6.1 3.55 -6.9 L4.5 -5.95 4.5 -6.6 Q4.4 -7.8 3.95 -8.45 5.1 -8.15 5.35 -7.15 L5.15 -8.35 4.2 -9.9 2.8 -10.9" fill="url(#gradient0)" fill-rule="evenodd" stroke="none"/>
    <path d="M2.8 -10.9 L4.2 -9.9 5.15 -8.35 5.35 -7.15 Q5.1 -8.15 3.95 -8.45 4.4 -7.8 4.5 -6.6 L4.5 -5.95 3.55 -6.9 Q3.9 -6.1 3.7 -5.25 L3.1 -5.8 3.1 -5.0" fill="none" stroke="#000000" stroke-linecap="round" stroke-linejoin="round" stroke-width="0.5"/>
  </g>
  <defs>
    <radialGradient cx="0" cy="0" gradientTransform="matrix(-0.0054, 0.0, 0.0, 0.0054, 3.25, -9.45)" gradientUnits="userSpaceOnUse" id="gradient0" r="819.2" spreadMethod="pad">
      <stop offset="0.3215686274509804" stop-color="#8c6b37"/>
      <stop offset="1.0" stop-color="#3c301a"/>
    </radialGradient>
  </defs>
</svg>
