<?xml version="1.0" encoding="UTF-8" standalone="no"?>
<svg xmlns:xlink="http://www.w3.org/1999/xlink" height="9.95px" width="4.7px" xmlns="http://www.w3.org/2000/svg">
  <g transform="matrix(1.0, 0.0, 0.0, 1.0, 10.2, 2.7)">
    <path d="M-6.4 7.0 L-6.4 5.7 -7.35 6.55 Q-7.65 5.2 -7.1 3.9 L-8.65 5.45 -8.6 4.4 Q-8.45 2.5 -7.75 1.45 -9.6 1.9 -9.95 3.55 L-9.65 1.65 Q-9.1 0.2 -8.1 -0.9 -7.15 -1.95 -5.9 -2.45 -5.55 -1.9 -5.55 -1.35 L-5.5 1.05 -5.7 3.45 -5.9 5.25 Q-6.0 6.25 -6.4 7.0" fill="url(#gradient0)" fill-rule="evenodd" stroke="none"/>
    <path d="M-5.9 -2.45 Q-7.15 -1.95 -8.1 -0.9 -9.1 0.2 -9.65 1.65 L-9.95 3.55 Q-9.6 1.9 -7.75 1.45 -8.45 2.5 -8.6 4.4 L-8.65 5.45 -7.1 3.9 Q-7.65 5.2 -7.35 6.55 L-6.4 5.7 -6.4 7.0" fill="none" stroke="#000000" stroke-linecap="round" stroke-linejoin="round" stroke-width="0.5"/>
  </g>
  <defs>
    <radialGradient cx="0" cy="0" gradientTransform="matrix(0.0087, 0.0, 0.0, 0.0087, -6.65, -0.15)" gradientUnits="userSpaceOnUse" id="gradient0" r="819.2" spreadMethod="pad">
      <stop offset="0.3215686274509804" stop-color="#8c6b37"/>
      <stop offset="1.0" stop-color="#3c301a"/>
    </radialGradient>
  </defs>
</svg>
