<?xml version="1.0" encoding="UTF-8" standalone="no"?>
<svg xmlns:xlink="http://www.w3.org/1999/xlink" height="76.85px" width="97.55px" xmlns="http://www.w3.org/2000/svg">
  <g transform="matrix(1.0, 0.0, 0.0, 1.0, 128.5, -84.05)">
    <path d="M-37.85 93.7 L-41.25 97.4 Q-51.25 108.2 -60.55 120.05 L-67.75 129.0 Q-72.45 134.7 -77.3 140.2 L-81.9 145.85 Q-89.45 155.75 -99.95 160.7 -101.0 161.2 -102.25 160.4 -110.15 155.2 -113.9 146.1 -117.4 137.6 -120.4 129.0 L-125.95 111.85 Q-129.35 100.35 -128.25 88.15 L-127.75 84.25 Q-120.7 84.65 -113.25 86.6 -100.05 90.0 -87.1 86.9 -70.05 82.85 -51.45 84.55 L-30.95 86.1 -37.85 93.7" fill="#3300cc" fill-rule="evenodd" stroke="none"/>
  </g>
</svg>
