<?xml version="1.0" encoding="UTF-8" standalone="no"?>
<svg xmlns:xlink="http://www.w3.org/1999/xlink" height="24.3px" width="29.2px" xmlns="http://www.w3.org/2000/svg">
  <g transform="matrix(1.0, 0.0, 0.0, 1.0, 14.7, 11.65)">
    <path d="M14.15 0.2 Q13.9 -0.5 13.0 -0.8 L13.55 6.0 Q13.15 4.15 12.25 4.95 11.95 5.25 11.9 5.8 11.85 7.5 11.2 8.75 9.85 6.55 8.6 9.35 L8.35 9.9 7.85 9.25 Q8.1 10.35 7.2 11.05 7.35 10.1 6.7 9.65 6.55 11.0 5.4 11.5 4.7 9.95 3.65 11.6 2.8 10.4 1.8 12.2 1.55 10.95 0.5 11.7 0.5 11.2 0.0 11.2 L-0.6 11.9 Q-1.15 12.75 -1.7 11.65 -2.3 11.15 -3.45 12.4 -3.35 11.55 -3.6 11.1 -4.5 12.5 -5.1 10.7 L-6.1 11.7 -6.45 10.9 Q-6.7 9.8 -7.1 9.5 L-8.0 9.6 -10.2 7.55 -10.7 8.95 Q-11.7 6.95 -12.05 4.7 L-13.15 6.3 -13.05 0.1 -14.45 1.1 -14.3 -0.45 Q-13.65 -3.15 -11.95 -4.7 -13.05 -4.45 -13.75 -3.65 -13.35 -5.15 -12.4 -6.45 -11.05 -8.35 -8.95 -9.15 L-11.1 -8.85 -10.6 -9.45 Q-9.1 -10.55 -7.35 -10.9 L-6.4 -11.05 -3.6 -11.3 0.3 -11.3 4.35 -11.4 8.25 -10.95 Q9.5 -10.65 10.35 -9.55 L8.45 -9.9 13.1 -5.4 11.5 -5.7 Q13.65 -3.2 14.15 0.2 M7.6 8.65 L7.85 9.25 7.6 8.65" fill="url(#gradient0)" fill-rule="evenodd" stroke="none"/>
    <path d="M14.15 0.2 Q13.9 -0.5 13.0 -0.8 L13.55 6.0 Q13.15 4.15 12.25 4.95 11.95 5.25 11.9 5.8 11.85 7.5 11.2 8.75 9.85 6.55 8.6 9.35 L8.35 9.9 7.85 9.25 Q8.1 10.35 7.2 11.05 7.35 10.1 6.7 9.65 6.55 11.0 5.4 11.5 4.7 9.95 3.65 11.6 2.8 10.4 1.8 12.2 1.55 10.95 0.5 11.7 0.5 11.2 0.0 11.2 L-0.6 11.9 Q-1.15 12.75 -1.7 11.65 -2.3 11.15 -3.45 12.4 -3.35 11.55 -3.6 11.1 -4.5 12.5 -5.1 10.7 L-6.1 11.7 -6.45 10.9 Q-6.7 9.8 -7.1 9.5 L-8.0 9.6 -10.2 7.55 -10.7 8.95 Q-11.7 6.95 -12.05 4.7 L-13.15 6.3 -13.05 0.1 -14.45 1.1 -14.3 -0.45 Q-13.65 -3.15 -11.95 -4.7 -13.05 -4.45 -13.75 -3.65 -13.35 -5.15 -12.4 -6.45 -11.05 -8.35 -8.95 -9.15 L-11.1 -8.85 -10.6 -9.45 Q-9.1 -10.55 -7.35 -10.9 L-6.4 -11.05 -3.6 -11.3 0.3 -11.3 4.35 -11.4 8.25 -10.95 Q9.5 -10.65 10.35 -9.55 L8.45 -9.9 13.1 -5.4 11.5 -5.7 Q13.65 -3.2 14.15 0.2 L14.25 1.0 M7.85 9.25 L7.6 8.65" fill="none" stroke="#000000" stroke-linecap="round" stroke-linejoin="round" stroke-width="0.5"/>
  </g>
  <defs>
    <radialGradient cx="0" cy="0" gradientTransform="matrix(0.0185, 0.0, 0.0, 0.0185, 0.15, 0.0)" gradientUnits="userSpaceOnUse" id="gradient0" r="819.2" spreadMethod="pad">
      <stop offset="0.3215686274509804" stop-color="#8c6b37"/>
      <stop offset="1.0" stop-color="#3c301a"/>
    </radialGradient>
  </defs>
</svg>
