<?xml version="1.0" encoding="UTF-8" standalone="no"?>
<svg xmlns:xlink="http://www.w3.org/1999/xlink" height="16.3px" width="20.6px" xmlns="http://www.w3.org/2000/svg">
  <g transform="matrix(1.0, 0.0, 0.0, 1.0, 10.3, 8.85)">
    <path d="M8.65 -1.0 Q8.65 -3.6 6.05 -5.45 3.45 -7.3 -0.2 -7.3 -3.85 -7.3 -6.45 -5.45 -9.05 -3.6 -9.05 -1.0 -9.05 1.6 -6.45 3.45 -3.85 5.3 -0.2 5.3 3.45 5.3 6.05 3.45 8.65 1.6 8.65 -1.0 M10.05 -0.5 Q10.05 2.7 7.1 4.95 4.15 7.2 0.0 7.2 -4.15 7.2 -7.1 4.95 -10.05 2.7 -10.05 -0.5 -10.05 -3.7 -7.1 -5.95 -4.15 -8.2 0.0 -8.2 4.15 -8.2 7.1 -5.95 10.05 -3.7 10.05 -0.5" fill="url(#gradient0)" fill-rule="evenodd" stroke="none"/>
    <path d="M8.65 -1.0 Q8.65 1.6 6.05 3.45 3.45 5.3 -0.2 5.3 -3.85 5.3 -6.45 3.45 -9.05 1.6 -9.05 -1.0 -9.05 -3.6 -6.45 -5.45 -3.85 -7.3 -0.2 -7.3 3.45 -7.3 6.05 -5.45 8.65 -3.6 8.65 -1.0" fill="url(#gradient1)" fill-rule="evenodd" stroke="none"/>
    <path d="M8.65 -1.0 Q8.65 1.6 6.05 3.45 3.45 5.3 -0.2 5.3 -3.85 5.3 -6.45 3.45 -9.05 1.6 -9.05 -1.0 -9.05 -3.6 -6.45 -5.45 -3.85 -7.3 -0.2 -7.3 3.45 -7.3 6.05 -5.45 8.65 -3.6 8.65 -1.0 M10.05 -0.5 Q10.05 2.7 7.1 4.95 4.15 7.2 0.0 7.2 -4.15 7.2 -7.1 4.95 -10.05 2.7 -10.05 -0.5 -10.05 -3.7 -7.1 -5.95 -4.15 -8.2 0.0 -8.2 4.15 -8.2 7.1 -5.95 10.05 -3.7 10.05 -0.5 Z" fill="none" stroke="#000000" stroke-linecap="round" stroke-linejoin="round" stroke-width="0.5"/>
    <path d="M-4.8 -7.1 L-4.6 -7.9 -3.9 -8.3 -3.05 -8.15 Q-2.7 -7.9 -2.65 -7.45 -2.5 -6.7 -2.8 -6.25 L-2.95 -3.7 Q-3.9 -5.9 -4.2 -6.1 L-4.8 -7.1" fill="url(#gradient2)" fill-rule="evenodd" stroke="none"/>
    <path d="M-4.8 -7.1 L-4.6 -7.9 -3.9 -8.3 -3.05 -8.15 Q-2.7 -7.9 -2.65 -7.45 -2.5 -6.7 -2.8 -6.25 L-2.95 -3.7 Q-3.9 -5.9 -4.2 -6.1 L-4.8 -7.1 Z" fill="none" stroke="#000000" stroke-linecap="round" stroke-linejoin="round" stroke-width="0.5"/>
    <path d="M6.45 -5.35 L7.15 -5.85 8.0 -5.75 8.5 -5.05 Q8.65 -4.65 8.4 -4.25 8.0 -3.6 7.45 -3.45 L5.75 -1.6 Q6.4 -3.85 6.3 -4.2 6.15 -4.8 6.45 -5.35" fill="url(#gradient3)" fill-rule="evenodd" stroke="none"/>
    <path d="M6.45 -5.35 L7.15 -5.85 8.0 -5.75 8.5 -5.05 Q8.65 -4.65 8.4 -4.25 8.0 -3.6 7.45 -3.45 L5.75 -1.6 Q6.4 -3.85 6.3 -4.2 6.15 -4.8 6.45 -5.35 Z" fill="none" stroke="#000000" stroke-linecap="round" stroke-linejoin="round" stroke-width="0.5"/>
    <path d="M-2.3 -7.7 L-1.95 -8.2 -1.15 -8.4 -0.4 -8.2 -0.05 -7.7 Q-0.05 -7.15 -0.45 -6.9 L-1.05 -5.25 Q-1.6 -6.8 -1.85 -6.95 -2.3 -7.25 -2.3 -7.7" fill="url(#gradient4)" fill-rule="evenodd" stroke="none"/>
    <path d="M-2.3 -7.7 L-1.95 -8.2 -1.15 -8.4 -0.4 -8.2 -0.05 -7.7 Q-0.05 -7.15 -0.45 -6.9 L-1.05 -5.25 Q-1.6 -6.8 -1.85 -6.95 -2.3 -7.25 -2.3 -7.7 Z" fill="none" stroke="#000000" stroke-linecap="round" stroke-linejoin="round" stroke-width="0.5"/>
    <path d="M0.05 -7.7 L0.4 -8.2 1.2 -8.4 1.95 -8.2 2.3 -7.7 Q2.3 -7.15 1.9 -6.9 L1.3 -5.25 0.5 -6.95 Q0.05 -7.25 0.05 -7.7" fill="url(#gradient5)" fill-rule="evenodd" stroke="none"/>
    <path d="M0.05 -7.7 L0.4 -8.2 1.2 -8.4 1.95 -8.2 2.3 -7.7 Q2.3 -7.15 1.9 -6.9 L1.3 -5.25 0.5 -6.95 Q0.05 -7.25 0.05 -7.7 Z" fill="none" stroke="#000000" stroke-linecap="round" stroke-linejoin="round" stroke-width="0.5"/>
    <path d="M2.65 -7.7 Q2.7 -8.15 3.05 -8.4 L3.85 -8.6 4.6 -8.15 4.8 -7.35 4.25 -6.25 3.2 -3.9 2.85 -6.6 Q2.5 -7.05 2.65 -7.7" fill="url(#gradient6)" fill-rule="evenodd" stroke="none"/>
    <path d="M2.65 -7.7 Q2.7 -8.15 3.05 -8.4 L3.85 -8.6 4.6 -8.15 4.8 -7.35 4.25 -6.25 3.2 -3.9 2.85 -6.6 Q2.5 -7.05 2.65 -7.7 Z" fill="none" stroke="#000000" stroke-linecap="round" stroke-linejoin="round" stroke-width="0.5"/>
    <path d="M-6.7 -5.85 L-6.65 -6.7 -6.0 -7.25 -5.15 -7.25 -4.6 -6.6 Q-4.35 -5.9 -4.6 -5.35 -4.2 -2.9 -4.3 -2.85 L-5.95 -4.95 Q-6.5 -5.25 -6.7 -5.85" fill="url(#gradient7)" fill-rule="evenodd" stroke="none"/>
    <path d="M-6.7 -5.85 L-6.65 -6.7 -6.0 -7.25 -5.15 -7.25 -4.6 -6.6 Q-4.35 -5.9 -4.6 -5.35 -4.2 -2.9 -4.3 -2.85 L-5.95 -4.95 Q-6.5 -5.25 -6.7 -5.85 Z" fill="none" stroke="#000000" stroke-linecap="round" stroke-linejoin="round" stroke-width="0.5"/>
    <path d="M4.6 -6.65 L5.15 -7.3 6.0 -7.35 6.65 -6.75 6.7 -5.9 Q6.45 -5.2 5.9 -4.95 L4.5 -2.85 4.65 -5.55 Q4.4 -6.05 4.6 -6.65" fill="url(#gradient8)" fill-rule="evenodd" stroke="none"/>
    <path d="M4.6 -6.65 L5.15 -7.3 6.0 -7.35 6.65 -6.75 6.7 -5.9 Q6.45 -5.2 5.9 -4.95 L4.5 -2.85 4.65 -5.55 Q4.4 -6.05 4.6 -6.65 Z" fill="none" stroke="#000000" stroke-linecap="round" stroke-linejoin="round" stroke-width="0.5"/>
    <path d="M-8.3 -4.35 Q-8.55 -4.75 -8.4 -5.2 L-7.85 -5.85 -7.05 -5.95 Q-6.6 -5.85 -6.35 -5.45 -5.95 -4.8 -6.15 -4.3 L-5.4 -1.85 -7.35 -3.6 Q-8.0 -3.8 -8.3 -4.35" fill="url(#gradient9)" fill-rule="evenodd" stroke="none"/>
    <path d="M-8.3 -4.35 Q-8.55 -4.75 -8.4 -5.2 L-7.85 -5.85 -7.05 -5.95 Q-6.6 -5.85 -6.35 -5.45 -5.95 -4.8 -6.15 -4.3 L-5.4 -1.85 -7.35 -3.6 Q-8.0 -3.8 -8.3 -4.35 Z" fill="none" stroke="#000000" stroke-linecap="round" stroke-linejoin="round" stroke-width="0.5"/>
    <path d="M0.25 -2.4 Q0.25 -1.95 -0.1 -1.65 -0.45 -1.3 -0.9 -1.3 -1.35 -1.3 -1.65 -1.65 -2.0 -1.95 -2.0 -2.4 -2.0 -3.15 -1.6 -3.55 L-1.0 -6.0 -0.2 -3.45 0.25 -2.4" fill="url(#gradient10)" fill-rule="evenodd" stroke="none"/>
    <path d="M0.25 -2.4 Q0.25 -1.95 -0.1 -1.65 -0.45 -1.3 -0.9 -1.3 -1.35 -1.3 -1.65 -1.65 -2.0 -1.95 -2.0 -2.4 -2.0 -3.15 -1.6 -3.55 L-1.0 -6.0 -0.2 -3.45 0.25 -2.4 Z" fill="none" stroke="#000000" stroke-linecap="round" stroke-linejoin="round" stroke-width="0.5"/>
    <path d="M2.6 -2.4 Q2.6 -1.95 2.25 -1.65 1.9 -1.3 1.45 -1.3 1.0 -1.3 0.7 -1.65 0.35 -1.95 0.35 -2.4 0.35 -3.15 0.75 -3.55 L1.35 -6.0 Q1.9 -3.7 2.15 -3.45 2.6 -3.05 2.6 -2.4" fill="url(#gradient11)" fill-rule="evenodd" stroke="none"/>
    <path d="M2.6 -2.4 Q2.6 -1.95 2.25 -1.65 1.9 -1.3 1.45 -1.3 1.0 -1.3 0.7 -1.65 0.35 -1.95 0.35 -2.4 0.35 -3.15 0.75 -3.55 L1.35 -6.0 Q1.9 -3.7 2.15 -3.45 2.6 -3.05 2.6 -2.4 Z" fill="none" stroke="#000000" stroke-linecap="round" stroke-linejoin="round" stroke-width="0.5"/>
    <path d="M-1.8 -2.2 Q-1.8 -1.6 -2.25 -1.2 -2.7 -0.75 -3.3 -0.75 -3.9 -0.75 -4.35 -1.2 -4.75 -1.6 -4.75 -2.2 -4.75 -3.25 -4.25 -3.75 L-3.45 -7.05 Q-2.7 -3.95 -2.35 -3.65 -1.8 -3.05 -1.8 -2.2" fill="url(#gradient12)" fill-rule="evenodd" stroke="none"/>
    <path d="M-1.8 -2.2 Q-1.8 -1.6 -2.25 -1.2 -2.7 -0.75 -3.3 -0.75 -3.9 -0.75 -4.35 -1.2 -4.75 -1.6 -4.75 -2.2 -4.75 -3.25 -4.25 -3.75 L-3.45 -7.05 Q-2.7 -3.95 -2.35 -3.65 -1.8 -3.05 -1.8 -2.2 Z" fill="none" stroke="#000000" stroke-linecap="round" stroke-linejoin="round" stroke-width="0.5"/>
    <path d="M5.25 -2.05 Q5.25 -1.45 4.8 -1.05 4.35 -0.6 3.75 -0.6 3.15 -0.6 2.7 -1.05 2.3 -1.45 2.3 -2.05 2.3 -3.1 2.8 -3.6 L3.6 -6.9 Q4.35 -3.8 4.7 -3.5 5.25 -2.9 5.25 -2.05" fill="url(#gradient13)" fill-rule="evenodd" stroke="none"/>
    <path d="M5.25 -2.05 Q5.25 -1.45 4.8 -1.05 4.35 -0.6 3.75 -0.6 3.15 -0.6 2.7 -1.05 2.3 -1.45 2.3 -2.05 2.3 -3.1 2.8 -3.6 L3.6 -6.9 Q4.35 -3.8 4.7 -3.5 5.25 -2.9 5.25 -2.05 Z" fill="none" stroke="#000000" stroke-linecap="round" stroke-linejoin="round" stroke-width="0.5"/>
    <path d="M-4.4 -1.35 Q-4.4 -0.95 -4.65 -0.7 -4.95 -0.45 -5.3 -0.45 L-5.95 -0.7 -6.25 -1.35 Q-6.25 -2.0 -5.9 -2.3 L-5.4 -4.35 -4.75 -2.25 Q-4.4 -1.9 -4.4 -1.35" fill="url(#gradient14)" fill-rule="evenodd" stroke="none"/>
    <path d="M-4.4 -1.35 Q-4.4 -0.95 -4.65 -0.7 -4.95 -0.45 -5.3 -0.45 L-5.95 -0.7 -6.25 -1.35 Q-6.25 -2.0 -5.9 -2.3 L-5.4 -4.35 -4.75 -2.25 Q-4.4 -1.9 -4.4 -1.35 Z" fill="none" stroke="#000000" stroke-linecap="round" stroke-linejoin="round" stroke-width="0.5"/>
    <path d="M6.55 -1.55 L6.3 -0.9 Q6.0 -0.65 5.65 -0.65 5.25 -0.65 5.0 -0.9 4.7 -1.15 4.7 -1.55 4.7 -2.2 5.05 -2.5 L5.55 -4.55 Q6.0 -2.65 6.2 -2.45 6.55 -2.1 6.55 -1.55" fill="url(#gradient15)" fill-rule="evenodd" stroke="none"/>
    <path d="M6.55 -1.55 L6.3 -0.9 Q6.0 -0.65 5.65 -0.65 5.25 -0.65 5.0 -0.9 4.7 -1.15 4.7 -1.55 4.7 -2.2 5.05 -2.5 L5.55 -4.55 Q6.0 -2.65 6.2 -2.45 6.55 -2.1 6.55 -1.55 Z" fill="none" stroke="#000000" stroke-linecap="round" stroke-linejoin="round" stroke-width="0.5"/>
  </g>
  <defs>
    <radialGradient cx="0" cy="0" gradientTransform="matrix(0.0123, 0.0, 0.0, 0.0123, 0.0, -0.5)" gradientUnits="userSpaceOnUse" id="gradient0" r="819.2" spreadMethod="pad">
      <stop offset="0.3215686274509804" stop-color="#8c6b37"/>
      <stop offset="1.0" stop-color="#3c301a"/>
    </radialGradient>
    <radialGradient cx="0" cy="0" gradientTransform="matrix(0.0108, 0.0, 0.0, 0.0108, -0.2, -1.0)" gradientUnits="userSpaceOnUse" id="gradient1" r="819.2" spreadMethod="pad">
      <stop offset="0.3215686274509804" stop-color="#f32121"/>
      <stop offset="1.0" stop-color="#3c301a"/>
    </radialGradient>
    <radialGradient cx="0" cy="0" gradientTransform="matrix(-0.0017, 3.0E-4, -3.0E-4, -0.0017, -3.75, -7.25)" gradientUnits="userSpaceOnUse" id="gradient2" r="819.2" spreadMethod="pad">
      <stop offset="0.0" stop-color="#bebe4b"/>
      <stop offset="1.0" stop-color="#ffffff"/>
    </radialGradient>
    <radialGradient cx="0" cy="0" gradientTransform="matrix(-0.0015, -9.0E-4, 9.0E-4, -0.0015, 7.45, -4.8)" gradientUnits="userSpaceOnUse" id="gradient3" r="819.2" spreadMethod="pad">
      <stop offset="0.0" stop-color="#bebe4b"/>
      <stop offset="1.0" stop-color="#ffffff"/>
    </radialGradient>
    <radialGradient cx="0" cy="0" gradientTransform="matrix(-0.0018, 0.0, 0.0, -0.0012, -1.15, -7.7)" gradientUnits="userSpaceOnUse" id="gradient4" r="819.2" spreadMethod="pad">
      <stop offset="0.0" stop-color="#bebe4b"/>
      <stop offset="1.0" stop-color="#ffffff"/>
    </radialGradient>
    <radialGradient cx="0" cy="0" gradientTransform="matrix(-0.0018, 0.0, 0.0, -0.0012, 1.2, -7.7)" gradientUnits="userSpaceOnUse" id="gradient5" r="819.2" spreadMethod="pad">
      <stop offset="0.0" stop-color="#bebe4b"/>
      <stop offset="1.0" stop-color="#ffffff"/>
    </radialGradient>
    <radialGradient cx="0" cy="0" gradientTransform="matrix(-0.0017, -3.0E-4, 3.0E-4, -0.0017, 3.7, -7.55)" gradientUnits="userSpaceOnUse" id="gradient6" r="819.2" spreadMethod="pad">
      <stop offset="0.0" stop-color="#bebe4b"/>
      <stop offset="1.0" stop-color="#ffffff"/>
    </radialGradient>
    <radialGradient cx="0" cy="0" gradientTransform="matrix(-0.0016, 6.0E-4, -6.0E-4, -0.0016, -5.65, -6.2)" gradientUnits="userSpaceOnUse" id="gradient7" r="819.2" spreadMethod="pad">
      <stop offset="0.0" stop-color="#bebe4b"/>
      <stop offset="1.0" stop-color="#ffffff"/>
    </radialGradient>
    <radialGradient cx="0" cy="0" gradientTransform="matrix(-0.0016, -6.0E-4, 6.0E-4, -0.0016, 5.65, -6.3)" gradientUnits="userSpaceOnUse" id="gradient8" r="819.2" spreadMethod="pad">
      <stop offset="0.0" stop-color="#bebe4b"/>
      <stop offset="1.0" stop-color="#ffffff"/>
    </radialGradient>
    <radialGradient cx="0" cy="0" gradientTransform="matrix(-0.0015, 9.0E-4, -9.0E-4, -0.0015, -7.3, -4.9)" gradientUnits="userSpaceOnUse" id="gradient9" r="819.2" spreadMethod="pad">
      <stop offset="0.0" stop-color="#bebe4b"/>
      <stop offset="1.0" stop-color="#ffffff"/>
    </radialGradient>
    <radialGradient cx="0" cy="0" gradientTransform="matrix(0.0018, 0.0, 0.0, 0.0018, -0.9, -2.4)" gradientUnits="userSpaceOnUse" id="gradient10" r="819.2" spreadMethod="pad">
      <stop offset="0.0" stop-color="#bebe4b"/>
      <stop offset="1.0" stop-color="#ffffff"/>
    </radialGradient>
    <radialGradient cx="0" cy="0" gradientTransform="matrix(0.0018, 0.0, 0.0, 0.0018, 1.45, -2.4)" gradientUnits="userSpaceOnUse" id="gradient11" r="819.2" spreadMethod="pad">
      <stop offset="0.0" stop-color="#bebe4b"/>
      <stop offset="1.0" stop-color="#ffffff"/>
    </radialGradient>
    <radialGradient cx="0" cy="0" gradientTransform="matrix(0.0023, 0.0, 0.0, 0.0023, -3.3, -2.2)" gradientUnits="userSpaceOnUse" id="gradient12" r="819.2" spreadMethod="pad">
      <stop offset="0.0" stop-color="#bebe4b"/>
      <stop offset="1.0" stop-color="#ffffff"/>
    </radialGradient>
    <radialGradient cx="0" cy="0" gradientTransform="matrix(0.0023, 0.0, 0.0, 0.0023, 3.75, -2.05)" gradientUnits="userSpaceOnUse" id="gradient13" r="819.2" spreadMethod="pad">
      <stop offset="0.0" stop-color="#bebe4b"/>
      <stop offset="1.0" stop-color="#ffffff"/>
    </radialGradient>
    <radialGradient cx="0" cy="0" gradientTransform="matrix(0.0015, 0.0, 0.0, 0.0015, -5.3, -1.35)" gradientUnits="userSpaceOnUse" id="gradient14" r="819.2" spreadMethod="pad">
      <stop offset="0.0" stop-color="#bebe4b"/>
      <stop offset="1.0" stop-color="#ffffff"/>
    </radialGradient>
    <radialGradient cx="0" cy="0" gradientTransform="matrix(0.0015, 0.0, 0.0, 0.0015, 5.65, -1.55)" gradientUnits="userSpaceOnUse" id="gradient15" r="819.2" spreadMethod="pad">
      <stop offset="0.0" stop-color="#bebe4b"/>
      <stop offset="1.0" stop-color="#ffffff"/>
    </radialGradient>
  </defs>
</svg>
