<?xml version="1.0" encoding="UTF-8" standalone="no"?>
<svg xmlns:xlink="http://www.w3.org/1999/xlink" height="6.4px" width="3.05px" xmlns="http://www.w3.org/2000/svg">
  <g transform="matrix(1.0, 0.0, 0.0, 1.0, -5.0, -0.5)">
    <path d="M5.55 6.65 L5.55 5.85 6.15 6.4 Q6.35 5.55 6.0 4.75 L6.95 5.7 6.95 5.05 Q6.85 3.85 6.4 3.2 7.55 3.5 7.8 4.5 L7.6 3.3 6.65 1.75 5.25 0.75 5.05 1.45 5.0 2.95 5.1 4.45 5.25 5.6 5.55 6.65" fill="url(#gradient0)" fill-rule="evenodd" stroke="none"/>
    <path d="M5.25 0.75 L6.65 1.75 7.6 3.3 7.8 4.5 Q7.55 3.5 6.4 3.2 6.85 3.85 6.95 5.05 L6.95 5.7 6.0 4.75 Q6.35 5.55 6.15 6.4 L5.55 5.85 5.55 6.65" fill="none" stroke="#000000" stroke-linecap="round" stroke-linejoin="round" stroke-width="0.5"/>
  </g>
  <defs>
    <radialGradient cx="0" cy="0" gradientTransform="matrix(-0.0054, 0.0, 0.0, 0.0054, 5.7, 2.2)" gradientUnits="userSpaceOnUse" id="gradient0" r="819.2" spreadMethod="pad">
      <stop offset="0.3215686274509804" stop-color="#8c6b37"/>
      <stop offset="1.0" stop-color="#3c301a"/>
    </radialGradient>
  </defs>
</svg>
