<?xml version="1.0" encoding="UTF-8" standalone="no"?>
<svg xmlns:xlink="http://www.w3.org/1999/xlink" height="9.95px" width="4.7px" xmlns="http://www.w3.org/2000/svg">
  <g transform="matrix(1.0, 0.0, 0.0, 1.0, 9.05, 1.2)">
    <path d="M-4.75 -0.95 Q-4.4 -0.4 -4.4 0.15 L-4.35 2.55 -4.55 4.95 -4.75 6.75 Q-4.85 7.75 -5.25 8.5 L-5.25 7.2 -6.2 8.05 Q-6.5 6.7 -5.95 5.4 L-7.5 6.95 -7.45 5.9 Q-7.3 4.0 -6.6 2.95 -8.45 3.4 -8.8 5.05 L-8.5 3.15 Q-7.95 1.7 -6.95 0.6 -6.0 -0.45 -4.75 -0.95" fill="url(#gradient0)" fill-rule="evenodd" stroke="none"/>
    <path d="M-4.75 -0.95 Q-6.0 -0.45 -6.95 0.6 -7.95 1.7 -8.5 3.15 L-8.8 5.05 Q-8.45 3.4 -6.6 2.95 -7.3 4.0 -7.45 5.9 L-7.5 6.95 -5.95 5.4 Q-6.5 6.7 -6.2 8.05 L-5.25 7.2 -5.25 8.5" fill="none" stroke="#000000" stroke-linecap="round" stroke-linejoin="round" stroke-width="0.5"/>
  </g>
  <defs>
    <radialGradient cx="0" cy="0" gradientTransform="matrix(0.0087, 0.0, 0.0, 0.0087, -5.5, 1.35)" gradientUnits="userSpaceOnUse" id="gradient0" r="819.2" spreadMethod="pad">
      <stop offset="0.3215686274509804" stop-color="#8c6b37"/>
      <stop offset="1.0" stop-color="#3c301a"/>
    </radialGradient>
  </defs>
</svg>
