<?xml version="1.0" encoding="UTF-8" standalone="no"?>
<svg xmlns:xlink="http://www.w3.org/1999/xlink" height="9.95px" width="4.7px" xmlns="http://www.w3.org/2000/svg">
  <g transform="matrix(1.0, 0.0, 0.0, 1.0, -4.55, 1.35)">
    <path d="M5.45 8.35 L5.45 7.05 6.4 7.9 Q6.7 6.55 6.15 5.25 L7.7 6.8 7.65 5.75 Q7.5 3.85 6.8 2.8 8.65 3.25 9.0 4.9 L8.7 3.0 Q8.15 1.55 7.15 0.45 L4.95 -1.1 Q4.6 -0.55 4.6 0.0 L4.55 2.4 4.75 4.8 4.95 6.6 Q5.05 7.6 5.45 8.35" fill="url(#gradient0)" fill-rule="evenodd" stroke="none"/>
    <path d="M4.95 -1.1 L7.15 0.45 Q8.15 1.55 8.7 3.0 L9.0 4.9 Q8.65 3.25 6.8 2.8 7.5 3.85 7.65 5.75 L7.7 6.8 6.15 5.25 Q6.7 6.55 6.4 7.9 L5.45 7.05 5.45 8.35" fill="none" stroke="#000000" stroke-linecap="round" stroke-linejoin="round" stroke-width="0.5"/>
  </g>
  <defs>
    <radialGradient cx="0" cy="0" gradientTransform="matrix(-0.0087, 0.0, 0.0, 0.0087, 5.7, 1.2)" gradientUnits="userSpaceOnUse" id="gradient0" r="819.2" spreadMethod="pad">
      <stop offset="0.3215686274509804" stop-color="#8c6b37"/>
      <stop offset="1.0" stop-color="#3c301a"/>
    </radialGradient>
  </defs>
</svg>
