<?xml version="1.0" encoding="UTF-8" standalone="no"?>
<svg xmlns:xlink="http://www.w3.org/1999/xlink" height="21.9px" width="32.05px" xmlns="http://www.w3.org/2000/svg">
  <g transform="matrix(1.0, 0.0, 0.0, 1.0, 16.1, 8.55)">
    <path d="M15.6 2.15 Q15.35 1.5 14.35 1.25 L14.95 7.35 Q14.5 5.7 13.5 6.4 13.2 6.65 13.15 7.15 13.1 8.7 12.35 9.8 10.9 7.85 9.5 10.35 L9.25 10.85 8.7 10.25 Q8.95 11.25 7.95 11.9 8.15 11.05 7.4 10.65 7.25 11.85 6.0 12.3 5.2 10.9 4.05 12.4 3.15 11.3 2.05 12.95 1.75 11.8 0.6 12.5 0.6 12.05 0.05 12.05 L-0.6 12.65 Q-1.2 13.4 -1.8 12.45 -2.5 12.0 -3.75 13.1 -3.65 12.35 -3.9 11.95 -4.9 13.2 -5.55 11.6 L-6.65 12.5 -7.05 11.75 Q-7.3 10.75 -7.75 10.5 L-8.75 10.6 -11.15 8.75 -11.7 10.0 Q-12.8 8.2 -13.2 6.2 L-14.4 7.6 -14.3 2.05 -15.85 2.95 -15.7 1.55 Q-14.95 -0.9 -13.1 -2.3 -14.3 -2.05 -15.05 -1.35 -14.65 -2.7 -13.6 -3.85 -12.1 -5.55 -9.8 -6.3 L-12.15 -6.0 -11.6 -6.55 Q-9.95 -7.55 -8.05 -7.85 L-7.0 -8.0 -3.9 -8.2 0.4 -8.2 4.85 -8.3 9.1 -7.9 Q10.5 -7.65 11.45 -6.65 L9.35 -6.95 14.45 -2.9 12.7 -3.2 Q15.05 -0.95 15.6 2.15 M8.4 9.75 L8.7 10.25 8.4 9.75" fill="url(#gradient0)" fill-rule="evenodd" stroke="none"/>
    <path d="M15.6 2.15 Q15.35 1.5 14.35 1.25 L14.95 7.35 Q14.5 5.7 13.5 6.4 13.2 6.65 13.15 7.15 13.1 8.7 12.35 9.8 10.9 7.85 9.5 10.35 L9.25 10.85 8.7 10.25 Q8.95 11.25 7.95 11.9 8.15 11.05 7.4 10.65 7.25 11.85 6.0 12.3 5.2 10.9 4.05 12.4 3.15 11.3 2.05 12.95 1.75 11.8 0.6 12.5 0.6 12.05 0.05 12.05 L-0.6 12.65 Q-1.2 13.4 -1.8 12.45 -2.5 12.0 -3.75 13.1 -3.65 12.35 -3.9 11.95 -4.9 13.2 -5.55 11.6 L-6.65 12.5 -7.05 11.75 Q-7.3 10.75 -7.75 10.5 L-8.75 10.6 -11.15 8.75 -11.7 10.0 Q-12.8 8.2 -13.2 6.2 L-14.4 7.6 -14.3 2.05 -15.85 2.95 -15.7 1.55 Q-14.95 -0.9 -13.1 -2.3 -14.3 -2.05 -15.05 -1.35 -14.65 -2.7 -13.6 -3.85 -12.1 -5.55 -9.8 -6.3 L-12.15 -6.0 -11.6 -6.55 Q-9.95 -7.55 -8.05 -7.85 L-7.0 -8.0 -3.9 -8.2 0.4 -8.2 4.85 -8.3 9.1 -7.9 Q10.5 -7.65 11.45 -6.65 L9.35 -6.95 14.45 -2.9 12.7 -3.2 Q15.05 -0.95 15.6 2.15 L15.7 2.85 M8.7 10.25 L8.4 9.75" fill="none" stroke="#000000" stroke-linecap="round" stroke-linejoin="round" stroke-width="0.5"/>
  </g>
  <defs>
    <radialGradient cx="0" cy="0" gradientTransform="matrix(0.0203, 0.0, 0.0, 0.0166, 0.2, 1.95)" gradientUnits="userSpaceOnUse" id="gradient0" r="819.2" spreadMethod="pad">
      <stop offset="0.3215686274509804" stop-color="#8c6b37"/>
      <stop offset="1.0" stop-color="#3c301a"/>
    </radialGradient>
  </defs>
</svg>
