<?xml version="1.0" encoding="UTF-8" standalone="no"?>
<svg xmlns:xlink="http://www.w3.org/1999/xlink" height="12.3px" width="5.8px" xmlns="http://www.w3.org/2000/svg">
  <g transform="matrix(1.0, 0.0, 0.0, 1.0, 9.95, 3.3)">
    <path d="M-4.65 -3.05 Q-4.2 -2.35 -4.2 -1.7 L-4.15 1.3 -4.35 4.35 -4.6 6.6 Q-4.75 7.85 -5.25 8.75 L-5.25 7.15 -6.45 8.2 Q-6.8 6.5 -6.15 4.9 -7.35 5.75 -8.05 6.85 L-8.0 5.5 Q-7.8 3.15 -6.95 1.85 -9.25 2.4 -9.7 4.45 -9.7 3.2 -9.3 2.05 -8.65 0.25 -7.4 -1.1 -6.2 -2.4 -4.65 -3.05" fill="url(#gradient0)" fill-rule="evenodd" stroke="none"/>
    <path d="M-4.65 -3.05 Q-6.2 -2.4 -7.4 -1.1 -8.65 0.25 -9.3 2.05 -9.7 3.2 -9.7 4.45 -9.25 2.4 -6.95 1.85 -7.8 3.15 -8.0 5.5 L-8.05 6.85 Q-7.35 5.75 -6.15 4.9 -6.8 6.5 -6.45 8.2 L-5.25 7.15 -5.25 8.75" fill="none" stroke="#000000" stroke-linecap="round" stroke-linejoin="round" stroke-width="0.5"/>
  </g>
  <defs>
    <radialGradient cx="0" cy="0" gradientTransform="matrix(0.0109, 0.0, 0.0, 0.0109, -5.55, -0.15)" gradientUnits="userSpaceOnUse" id="gradient0" r="819.2" spreadMethod="pad">
      <stop offset="0.3215686274509804" stop-color="#8c6b37"/>
      <stop offset="1.0" stop-color="#3c301a"/>
    </radialGradient>
  </defs>
</svg>
