<?xml version="1.0" encoding="UTF-8" standalone="no"?>
<svg xmlns:xlink="http://www.w3.org/1999/xlink" height="16.3px" width="20.6px" xmlns="http://www.w3.org/2000/svg">
  <g transform="matrix(1.0, 0.0, 0.0, 1.0, 10.3, 17.8)">
    <path d="M-7.1 -14.9 Q-4.15 -17.15 0.0 -17.15 4.15 -17.15 7.1 -14.9 10.05 -12.65 10.05 -9.45 10.05 -6.25 7.1 -4.0 4.15 -1.75 0.0 -1.75 -4.15 -1.75 -7.1 -4.0 -10.05 -6.25 -10.05 -9.45 -10.05 -12.65 -7.1 -14.9 M-6.45 -14.4 Q-9.05 -12.55 -9.05 -9.95 -9.05 -7.35 -6.45 -5.5 -3.85 -3.65 -0.2 -3.65 3.45 -3.65 6.05 -5.5 8.65 -7.35 8.65 -9.95 8.65 -12.55 6.05 -14.4 3.45 -16.25 -0.2 -16.25 -3.85 -16.25 -6.45 -14.4" fill="url(#gradient0)" fill-rule="evenodd" stroke="none"/>
    <path d="M-6.45 -14.4 Q-3.85 -16.25 -0.2 -16.25 3.45 -16.25 6.05 -14.4 8.65 -12.55 8.65 -9.95 8.65 -7.35 6.05 -5.5 3.45 -3.65 -0.2 -3.65 -3.85 -3.65 -6.45 -5.5 -9.05 -7.35 -9.05 -9.95 -9.05 -12.55 -6.45 -14.4" fill="url(#gradient1)" fill-rule="evenodd" stroke="none"/>
    <path d="M-7.1 -14.9 Q-4.15 -17.15 0.0 -17.15 4.15 -17.15 7.1 -14.9 10.05 -12.65 10.05 -9.45 10.05 -6.25 7.1 -4.0 4.15 -1.75 0.0 -1.75 -4.15 -1.75 -7.1 -4.0 -10.05 -6.25 -10.05 -9.45 -10.05 -12.65 -7.1 -14.9 M-6.45 -14.4 Q-3.85 -16.25 -0.2 -16.25 3.45 -16.25 6.05 -14.4 8.65 -12.55 8.65 -9.95 8.65 -7.35 6.05 -5.5 3.45 -3.65 -0.2 -3.65 -3.85 -3.65 -6.45 -5.5 -9.05 -7.35 -9.05 -9.95 -9.05 -12.55 -6.45 -14.4 Z" fill="none" stroke="#000000" stroke-linecap="round" stroke-linejoin="round" stroke-width="0.5"/>
    <path d="M-4.8 -16.05 L-4.6 -16.85 -3.9 -17.25 -3.05 -17.1 Q-2.7 -16.85 -2.65 -16.4 -2.5 -15.65 -2.8 -15.2 L-2.95 -12.65 Q-3.9 -14.85 -4.2 -15.05 L-4.8 -16.05" fill="url(#gradient2)" fill-rule="evenodd" stroke="none"/>
    <path d="M-4.8 -16.05 L-4.6 -16.85 -3.9 -17.25 -3.05 -17.1 Q-2.7 -16.85 -2.65 -16.4 -2.5 -15.65 -2.8 -15.2 L-2.95 -12.65 Q-3.9 -14.85 -4.2 -15.05 L-4.8 -16.05 Z" fill="none" stroke="#000000" stroke-linecap="round" stroke-linejoin="round" stroke-width="0.5"/>
    <path d="M6.45 -14.3 L7.15 -14.8 8.0 -14.7 8.5 -14.0 Q8.65 -13.6 8.4 -13.2 8.0 -12.55 7.45 -12.4 L5.75 -10.55 Q6.4 -12.8 6.3 -13.15 6.15 -13.75 6.45 -14.3" fill="url(#gradient3)" fill-rule="evenodd" stroke="none"/>
    <path d="M6.45 -14.3 L7.15 -14.8 8.0 -14.7 8.5 -14.0 Q8.65 -13.6 8.4 -13.2 8.0 -12.55 7.45 -12.4 L5.75 -10.55 Q6.4 -12.8 6.3 -13.15 6.15 -13.75 6.45 -14.3 Z" fill="none" stroke="#000000" stroke-linecap="round" stroke-linejoin="round" stroke-width="0.5"/>
    <path d="M-2.3 -16.65 L-1.95 -17.15 -1.15 -17.35 -0.4 -17.15 -0.05 -16.65 Q-0.05 -16.1 -0.45 -15.85 L-1.05 -14.2 Q-1.6 -15.75 -1.85 -15.9 -2.3 -16.2 -2.3 -16.65" fill="url(#gradient4)" fill-rule="evenodd" stroke="none"/>
    <path d="M-2.3 -16.65 L-1.95 -17.15 -1.15 -17.35 -0.4 -17.15 -0.05 -16.65 Q-0.05 -16.1 -0.45 -15.85 L-1.05 -14.2 Q-1.6 -15.75 -1.85 -15.9 -2.3 -16.2 -2.3 -16.65 Z" fill="none" stroke="#000000" stroke-linecap="round" stroke-linejoin="round" stroke-width="0.5"/>
    <path d="M0.05 -16.65 L0.4 -17.15 1.2 -17.35 1.95 -17.15 2.3 -16.65 Q2.3 -16.1 1.9 -15.85 L1.3 -14.2 0.5 -15.9 Q0.05 -16.2 0.05 -16.65" fill="url(#gradient5)" fill-rule="evenodd" stroke="none"/>
    <path d="M0.05 -16.65 L0.4 -17.15 1.2 -17.35 1.95 -17.15 2.3 -16.65 Q2.3 -16.1 1.9 -15.85 L1.3 -14.2 0.5 -15.9 Q0.05 -16.2 0.05 -16.65 Z" fill="none" stroke="#000000" stroke-linecap="round" stroke-linejoin="round" stroke-width="0.5"/>
    <path d="M2.65 -16.65 Q2.7 -17.1 3.05 -17.35 L3.85 -17.55 4.6 -17.1 4.8 -16.3 4.25 -15.2 3.2 -12.85 2.85 -15.55 Q2.5 -16.0 2.65 -16.65" fill="url(#gradient6)" fill-rule="evenodd" stroke="none"/>
    <path d="M2.65 -16.65 Q2.7 -17.1 3.05 -17.35 L3.85 -17.55 4.6 -17.1 4.8 -16.3 4.25 -15.2 3.2 -12.85 2.85 -15.55 Q2.5 -16.0 2.65 -16.65 Z" fill="none" stroke="#000000" stroke-linecap="round" stroke-linejoin="round" stroke-width="0.5"/>
    <path d="M-6.7 -14.8 L-6.65 -15.65 -6.0 -16.2 -5.15 -16.2 -4.6 -15.55 Q-4.35 -14.85 -4.6 -14.3 -4.2 -11.85 -4.3 -11.8 L-5.95 -13.9 Q-6.5 -14.2 -6.7 -14.8" fill="url(#gradient7)" fill-rule="evenodd" stroke="none"/>
    <path d="M-6.7 -14.8 L-6.65 -15.65 -6.0 -16.2 -5.15 -16.2 -4.6 -15.55 Q-4.35 -14.85 -4.6 -14.3 -4.2 -11.85 -4.3 -11.8 L-5.95 -13.9 Q-6.5 -14.2 -6.7 -14.8 Z" fill="none" stroke="#000000" stroke-linecap="round" stroke-linejoin="round" stroke-width="0.5"/>
    <path d="M4.6 -15.6 L5.15 -16.25 6.0 -16.3 6.65 -15.7 6.7 -14.85 Q6.45 -14.15 5.9 -13.9 L4.5 -11.8 4.65 -14.5 Q4.4 -15.0 4.6 -15.6" fill="url(#gradient8)" fill-rule="evenodd" stroke="none"/>
    <path d="M4.6 -15.6 L5.15 -16.25 6.0 -16.3 6.65 -15.7 6.7 -14.85 Q6.45 -14.15 5.9 -13.9 L4.5 -11.8 4.65 -14.5 Q4.4 -15.0 4.6 -15.6 Z" fill="none" stroke="#000000" stroke-linecap="round" stroke-linejoin="round" stroke-width="0.5"/>
    <path d="M-8.3 -13.3 Q-8.55 -13.7 -8.4 -14.15 L-7.85 -14.8 -7.05 -14.9 Q-6.6 -14.8 -6.35 -14.4 -5.95 -13.75 -6.15 -13.25 L-5.4 -10.8 -7.35 -12.55 Q-8.0 -12.75 -8.3 -13.3" fill="url(#gradient9)" fill-rule="evenodd" stroke="none"/>
    <path d="M-8.3 -13.3 Q-8.55 -13.7 -8.4 -14.15 L-7.85 -14.8 -7.05 -14.9 Q-6.6 -14.8 -6.35 -14.4 -5.95 -13.75 -6.15 -13.25 L-5.4 -10.8 -7.35 -12.55 Q-8.0 -12.75 -8.3 -13.3 Z" fill="none" stroke="#000000" stroke-linecap="round" stroke-linejoin="round" stroke-width="0.5"/>
  </g>
  <defs>
    <radialGradient cx="0" cy="0" gradientTransform="matrix(0.0123, 0.0, 0.0, 0.0123, 0.0, -9.45)" gradientUnits="userSpaceOnUse" id="gradient0" r="819.2" spreadMethod="pad">
      <stop offset="0.3215686274509804" stop-color="#8c6b37"/>
      <stop offset="1.0" stop-color="#3c301a"/>
    </radialGradient>
    <radialGradient cx="0" cy="0" gradientTransform="matrix(0.0108, 0.0, 0.0, 0.0108, -0.2, -9.95)" gradientUnits="userSpaceOnUse" id="gradient1" r="819.2" spreadMethod="pad">
      <stop offset="0.3215686274509804" stop-color="#f32121"/>
      <stop offset="1.0" stop-color="#3c301a"/>
    </radialGradient>
    <radialGradient cx="0" cy="0" gradientTransform="matrix(-0.0017, 3.0E-4, -3.0E-4, -0.0017, -3.75, -16.2)" gradientUnits="userSpaceOnUse" id="gradient2" r="819.2" spreadMethod="pad">
      <stop offset="0.0" stop-color="#bebe4b"/>
      <stop offset="1.0" stop-color="#ffffff"/>
    </radialGradient>
    <radialGradient cx="0" cy="0" gradientTransform="matrix(-0.0015, -9.0E-4, 9.0E-4, -0.0015, 7.45, -13.75)" gradientUnits="userSpaceOnUse" id="gradient3" r="819.2" spreadMethod="pad">
      <stop offset="0.0" stop-color="#bebe4b"/>
      <stop offset="1.0" stop-color="#ffffff"/>
    </radialGradient>
    <radialGradient cx="0" cy="0" gradientTransform="matrix(-0.0018, 0.0, 0.0, -0.0012, -1.15, -16.65)" gradientUnits="userSpaceOnUse" id="gradient4" r="819.2" spreadMethod="pad">
      <stop offset="0.0" stop-color="#bebe4b"/>
      <stop offset="1.0" stop-color="#ffffff"/>
    </radialGradient>
    <radialGradient cx="0" cy="0" gradientTransform="matrix(-0.0018, 0.0, 0.0, -0.0012, 1.2, -16.65)" gradientUnits="userSpaceOnUse" id="gradient5" r="819.2" spreadMethod="pad">
      <stop offset="0.0" stop-color="#bebe4b"/>
      <stop offset="1.0" stop-color="#ffffff"/>
    </radialGradient>
    <radialGradient cx="0" cy="0" gradientTransform="matrix(-0.0017, -3.0E-4, 3.0E-4, -0.0017, 3.7, -16.5)" gradientUnits="userSpaceOnUse" id="gradient6" r="819.2" spreadMethod="pad">
      <stop offset="0.0" stop-color="#bebe4b"/>
      <stop offset="1.0" stop-color="#ffffff"/>
    </radialGradient>
    <radialGradient cx="0" cy="0" gradientTransform="matrix(-0.0016, 6.0E-4, -6.0E-4, -0.0016, -5.65, -15.15)" gradientUnits="userSpaceOnUse" id="gradient7" r="819.2" spreadMethod="pad">
      <stop offset="0.0" stop-color="#bebe4b"/>
      <stop offset="1.0" stop-color="#ffffff"/>
    </radialGradient>
    <radialGradient cx="0" cy="0" gradientTransform="matrix(-0.0016, -6.0E-4, 6.0E-4, -0.0016, 5.65, -15.25)" gradientUnits="userSpaceOnUse" id="gradient8" r="819.2" spreadMethod="pad">
      <stop offset="0.0" stop-color="#bebe4b"/>
      <stop offset="1.0" stop-color="#ffffff"/>
    </radialGradient>
    <radialGradient cx="0" cy="0" gradientTransform="matrix(-0.0015, 9.0E-4, -9.0E-4, -0.0015, -7.3, -13.85)" gradientUnits="userSpaceOnUse" id="gradient9" r="819.2" spreadMethod="pad">
      <stop offset="0.0" stop-color="#bebe4b"/>
      <stop offset="1.0" stop-color="#ffffff"/>
    </radialGradient>
  </defs>
</svg>
