<?xml version="1.0" encoding="UTF-8" standalone="no"?>
<svg xmlns:xlink="http://www.w3.org/1999/xlink" height="7.1px" width="13.3px" xmlns="http://www.w3.org/2000/svg">
  <g transform="matrix(1.0, 0.0, 0.0, 1.0, 6.65, 13.1)">
    <path d="M0.1 -8.2 Q0.1 -7.75 -0.25 -7.45 -0.6 -7.1 -1.05 -7.1 -1.5 -7.1 -1.8 -7.45 -2.15 -7.75 -2.15 -8.2 -2.15 -8.95 -1.75 -9.35 L-1.15 -11.8 -0.35 -9.25 Q0.1 -8.85 0.1 -8.2" fill="url(#gradient0)" fill-rule="evenodd" stroke="none"/>
    <path d="M0.1 -8.2 Q0.1 -7.75 -0.25 -7.45 -0.6 -7.1 -1.05 -7.1 -1.5 -7.1 -1.8 -7.45 -2.15 -7.75 -2.15 -8.2 -2.15 -8.95 -1.75 -9.35 L-1.15 -11.8 -0.35 -9.25 Q0.1 -8.85 0.1 -8.2 Z" fill="none" stroke="#000000" stroke-linecap="round" stroke-linejoin="round" stroke-width="0.5"/>
    <path d="M2.45 -8.2 Q2.45 -7.75 2.1 -7.45 1.75 -7.1 1.3 -7.1 0.85 -7.1 0.55 -7.45 0.2 -7.75 0.2 -8.2 0.2 -8.95 0.6 -9.35 L1.2 -11.8 Q1.75 -9.5 2.0 -9.25 L2.45 -8.2" fill="url(#gradient1)" fill-rule="evenodd" stroke="none"/>
    <path d="M2.45 -8.2 Q2.45 -7.75 2.1 -7.45 1.75 -7.1 1.3 -7.1 0.85 -7.1 0.55 -7.45 0.2 -7.75 0.2 -8.2 0.2 -8.95 0.6 -9.35 L1.2 -11.8 Q1.75 -9.5 2.0 -9.25 L2.45 -8.2 Z" fill="none" stroke="#000000" stroke-linecap="round" stroke-linejoin="round" stroke-width="0.5"/>
    <path d="M-1.95 -8.0 Q-1.95 -7.4 -2.4 -7.0 -2.85 -6.55 -3.45 -6.55 -4.05 -6.55 -4.5 -7.0 -4.9 -7.4 -4.9 -8.0 -4.9 -9.05 -4.4 -9.55 L-3.6 -12.85 Q-2.85 -9.75 -2.5 -9.45 -1.95 -8.85 -1.95 -8.0" fill="url(#gradient2)" fill-rule="evenodd" stroke="none"/>
    <path d="M-1.95 -8.0 Q-1.95 -7.4 -2.4 -7.0 -2.85 -6.55 -3.45 -6.55 -4.05 -6.55 -4.5 -7.0 -4.9 -7.4 -4.9 -8.0 -4.9 -9.05 -4.4 -9.55 L-3.6 -12.85 Q-2.85 -9.75 -2.5 -9.45 -1.95 -8.85 -1.95 -8.0 Z" fill="none" stroke="#000000" stroke-linecap="round" stroke-linejoin="round" stroke-width="0.5"/>
    <path d="M5.1 -7.85 L4.65 -6.85 Q4.2 -6.4 3.6 -6.4 3.0 -6.4 2.55 -6.85 2.15 -7.25 2.15 -7.85 2.15 -8.9 2.65 -9.4 L3.45 -12.7 Q4.2 -9.6 4.55 -9.3 5.1 -8.7 5.1 -7.85" fill="url(#gradient3)" fill-rule="evenodd" stroke="none"/>
    <path d="M5.1 -7.85 L4.65 -6.85 Q4.2 -6.4 3.6 -6.4 3.0 -6.4 2.55 -6.85 2.15 -7.25 2.15 -7.85 2.15 -8.9 2.65 -9.4 L3.45 -12.7 Q4.2 -9.6 4.55 -9.3 5.1 -8.7 5.1 -7.85 Z" fill="none" stroke="#000000" stroke-linecap="round" stroke-linejoin="round" stroke-width="0.5"/>
    <path d="M-4.55 -7.15 Q-4.55 -6.75 -4.8 -6.5 -5.1 -6.25 -5.45 -6.25 L-6.1 -6.5 Q-6.4 -6.75 -6.4 -7.15 -6.4 -7.8 -6.05 -8.1 L-5.55 -10.15 -4.9 -8.05 Q-4.55 -7.7 -4.55 -7.15" fill="url(#gradient4)" fill-rule="evenodd" stroke="none"/>
    <path d="M-4.55 -7.15 Q-4.55 -6.75 -4.8 -6.5 -5.1 -6.25 -5.45 -6.25 L-6.1 -6.5 Q-6.4 -6.75 -6.4 -7.15 -6.4 -7.8 -6.05 -8.1 L-5.55 -10.15 -4.9 -8.05 Q-4.55 -7.7 -4.55 -7.15 Z" fill="none" stroke="#000000" stroke-linecap="round" stroke-linejoin="round" stroke-width="0.5"/>
    <path d="M6.4 -7.35 L6.15 -6.7 5.5 -6.45 Q5.1 -6.45 4.85 -6.7 4.55 -6.95 4.55 -7.35 4.55 -8.0 4.9 -8.3 L5.4 -10.35 Q5.85 -8.45 6.05 -8.25 6.4 -7.9 6.4 -7.35" fill="url(#gradient5)" fill-rule="evenodd" stroke="none"/>
    <path d="M6.4 -7.35 L6.15 -6.7 5.5 -6.45 Q5.1 -6.45 4.85 -6.7 4.55 -6.95 4.55 -7.35 4.55 -8.0 4.9 -8.3 L5.4 -10.35 Q5.85 -8.45 6.05 -8.25 6.4 -7.9 6.4 -7.35 Z" fill="none" stroke="#000000" stroke-linecap="round" stroke-linejoin="round" stroke-width="0.5"/>
  </g>
  <defs>
    <radialGradient cx="0" cy="0" gradientTransform="matrix(0.0018, 0.0, 0.0, 0.0018, -1.05, -8.2)" gradientUnits="userSpaceOnUse" id="gradient0" r="819.2" spreadMethod="pad">
      <stop offset="0.0" stop-color="#bebe4b"/>
      <stop offset="1.0" stop-color="#ffffff"/>
    </radialGradient>
    <radialGradient cx="0" cy="0" gradientTransform="matrix(0.0018, 0.0, 0.0, 0.0018, 1.3, -8.2)" gradientUnits="userSpaceOnUse" id="gradient1" r="819.2" spreadMethod="pad">
      <stop offset="0.0" stop-color="#bebe4b"/>
      <stop offset="1.0" stop-color="#ffffff"/>
    </radialGradient>
    <radialGradient cx="0" cy="0" gradientTransform="matrix(0.0023, 0.0, 0.0, 0.0023, -3.45, -8.0)" gradientUnits="userSpaceOnUse" id="gradient2" r="819.2" spreadMethod="pad">
      <stop offset="0.0" stop-color="#bebe4b"/>
      <stop offset="1.0" stop-color="#ffffff"/>
    </radialGradient>
    <radialGradient cx="0" cy="0" gradientTransform="matrix(0.0023, 0.0, 0.0, 0.0023, 3.6, -7.85)" gradientUnits="userSpaceOnUse" id="gradient3" r="819.2" spreadMethod="pad">
      <stop offset="0.0" stop-color="#bebe4b"/>
      <stop offset="1.0" stop-color="#ffffff"/>
    </radialGradient>
    <radialGradient cx="0" cy="0" gradientTransform="matrix(0.0015, 0.0, 0.0, 0.0015, -5.45, -7.15)" gradientUnits="userSpaceOnUse" id="gradient4" r="819.2" spreadMethod="pad">
      <stop offset="0.0" stop-color="#bebe4b"/>
      <stop offset="1.0" stop-color="#ffffff"/>
    </radialGradient>
    <radialGradient cx="0" cy="0" gradientTransform="matrix(0.0015, 0.0, 0.0, 0.0015, 5.5, -7.35)" gradientUnits="userSpaceOnUse" id="gradient5" r="819.2" spreadMethod="pad">
      <stop offset="0.0" stop-color="#bebe4b"/>
      <stop offset="1.0" stop-color="#ffffff"/>
    </radialGradient>
  </defs>
</svg>
