<?xml version="1.0" encoding="UTF-8" standalone="no"?>
<svg xmlns:xlink="http://www.w3.org/1999/xlink" height="26.7px" width="32.05px" xmlns="http://www.w3.org/2000/svg">
  <g transform="matrix(1.0, 0.0, 0.0, 1.0, 16.1, 9.7)">
    <path d="M15.6 3.3 Q15.35 2.55 14.35 2.2 L14.95 9.7 Q14.5 7.65 13.5 8.55 13.2 8.85 13.15 9.5 13.1 11.35 12.35 12.7 10.9 10.3 9.5 13.4 L9.25 14.0 8.7 13.25 Q8.95 14.5 7.95 15.25 8.15 14.2 7.4 13.7 7.25 15.2 6.0 15.75 5.2 14.05 4.05 15.85 3.15 14.55 2.05 16.5 1.75 15.15 0.6 15.95 0.6 15.4 0.05 15.4 L-0.6 16.2 Q-1.2 17.1 -1.8 15.9 -2.5 15.35 -3.75 16.75 -3.65 15.8 -3.9 15.3 -4.9 16.85 -5.55 14.85 L-6.65 15.95 -7.05 15.1 Q-7.3 13.9 -7.75 13.55 L-8.75 13.65 -11.15 11.4 Q-11.6 12.15 -11.7 12.95 -12.8 10.75 -13.2 8.25 L-14.4 10.05 -14.3 3.2 -15.85 4.3 -15.7 2.6 Q-14.95 -0.35 -13.1 -2.05 -14.3 -1.8 -15.05 -0.9 -14.65 -2.55 -13.6 -4.0 -12.1 -6.1 -9.8 -6.95 L-12.15 -6.65 -11.6 -7.3 Q-9.95 -8.5 -8.05 -8.9 L-7.0 -9.05 -3.9 -9.35 0.4 -9.35 4.85 -9.45 9.1 -8.95 Q10.5 -8.6 11.45 -7.4 L9.35 -7.8 Q12.05 -5.6 14.45 -2.85 L12.7 -3.15 Q15.05 -0.4 15.6 3.3 M8.4 12.6 L8.7 13.25 8.4 12.6" fill="url(#gradient0)" fill-rule="evenodd" stroke="none"/>
    <path d="M15.6 3.3 Q15.35 2.55 14.35 2.2 L14.95 9.7 Q14.5 7.65 13.5 8.55 13.2 8.85 13.15 9.5 13.1 11.35 12.35 12.7 10.9 10.3 9.5 13.4 L9.25 14.0 8.7 13.25 Q8.95 14.5 7.95 15.25 8.15 14.2 7.4 13.7 7.25 15.2 6.0 15.75 5.2 14.05 4.05 15.85 3.15 14.55 2.05 16.5 1.75 15.15 0.6 15.95 0.6 15.4 0.05 15.4 L-0.6 16.2 Q-1.2 17.1 -1.8 15.9 -2.5 15.35 -3.75 16.75 -3.65 15.8 -3.9 15.3 -4.9 16.85 -5.55 14.85 L-6.65 15.95 -7.05 15.1 Q-7.3 13.9 -7.75 13.55 L-8.75 13.65 -11.15 11.4 Q-11.6 12.15 -11.7 12.95 -12.8 10.75 -13.2 8.25 L-14.4 10.05 -14.3 3.2 -15.85 4.3 -15.7 2.6 Q-14.95 -0.35 -13.1 -2.05 -14.3 -1.8 -15.05 -0.9 -14.65 -2.55 -13.6 -4.0 -12.1 -6.1 -9.8 -6.95 L-12.15 -6.65 -11.6 -7.3 Q-9.95 -8.5 -8.05 -8.9 L-7.0 -9.05 -3.9 -9.35 0.4 -9.35 4.85 -9.45 9.1 -8.95 Q10.5 -8.6 11.45 -7.4 L9.35 -7.8 Q12.05 -5.6 14.45 -2.85 L12.7 -3.15 Q15.05 -0.4 15.6 3.3 L15.7 4.2 M8.7 13.25 L8.4 12.6" fill="none" stroke="#000000" stroke-linecap="round" stroke-linejoin="round" stroke-width="0.5"/>
  </g>
  <defs>
    <radialGradient cx="0" cy="0" gradientTransform="matrix(0.0203, 0.0, 0.0, 0.0203, 0.2, 3.1)" gradientUnits="userSpaceOnUse" id="gradient0" r="819.2" spreadMethod="pad">
      <stop offset="0.3215686274509804" stop-color="#8c6b37"/>
      <stop offset="1.0" stop-color="#3c301a"/>
    </radialGradient>
  </defs>
</svg>
