<?xml version="1.0" encoding="UTF-8" standalone="no"?>
<svg xmlns:xlink="http://www.w3.org/1999/xlink" height="86.45px" width="105.35px" xmlns="http://www.w3.org/2000/svg">
  <g transform="matrix(1.0, 0.0, 0.0, 1.0, 128.5, -74.45)">
    <path d="M-24.5 78.45 Q-30.85 86.25 -37.85 93.7 L-41.25 97.4 Q-51.25 108.2 -60.55 120.05 L-67.75 129.0 Q-72.45 134.7 -77.3 140.2 L-81.9 145.85 Q-89.45 155.75 -99.95 160.7 -101.0 161.2 -102.25 160.4 -110.15 155.2 -113.9 146.1 -117.4 137.6 -120.4 129.0 L-125.95 111.85 Q-129.35 100.35 -128.25 88.15 -127.65 81.6 -125.4 75.5 L-125.15 74.9 Q-119.4 75.45 -113.35 77.0 -100.15 80.4 -87.2 77.3 -70.15 73.25 -51.55 74.95 L-23.15 76.85 -24.5 78.45" fill="#3300cc" fill-rule="evenodd" stroke="none"/>
  </g>
</svg>
