<?xml version="1.0" encoding="UTF-8" standalone="no"?>
<svg xmlns:xlink="http://www.w3.org/1999/xlink" height="37.7px" width="41.1px" xmlns="http://www.w3.org/2000/svg">
  <g transform="matrix(1.0, 0.0, 0.0, 1.0, 20.45, 18.75)">
    <path d="M13.9 -12.55 Q19.65 -7.3 19.65 0.1 19.65 7.5 13.9 12.7 8.2 17.95 0.1 17.95 -7.95 17.95 -13.75 12.7 -16.2 10.45 -17.6 7.85 -19.45 4.3 -19.45 0.1 -19.45 -3.45 -18.1 -6.55 -16.7 -9.85 -13.75 -12.55 -7.95 -17.75 0.1 -17.75 8.2 -17.75 13.9 -12.55" fill="url(#gradient0)" fill-rule="evenodd" stroke="none"/>
    <path d="M13.9 -12.55 Q19.65 -7.3 19.65 0.1 19.65 7.5 13.9 12.7 8.2 17.95 0.1 17.95 -7.95 17.95 -13.75 12.7 -16.2 10.45 -17.6 7.85 -19.45 4.3 -19.45 0.1 -19.45 -3.45 -18.1 -6.55 -16.7 -9.85 -13.75 -12.55 -7.95 -17.75 0.1 -17.75 8.2 -17.75 13.9 -12.55 Z" fill="none" stroke="#000000" stroke-linecap="round" stroke-linejoin="round" stroke-width="2.0"/>
  </g>
  <defs>
    <radialGradient cx="0" cy="0" gradientTransform="matrix(0.0376, -0.0184, 0.0125, 0.0257, 5.2, 4.35)" gradientUnits="userSpaceOnUse" id="gradient0" r="819.2" spreadMethod="pad">
      <stop offset="0.0" stop-color="#505050"/>
      <stop offset="0.5764705882352941" stop-color="#959595"/>
      <stop offset="1.0" stop-color="#ffffff"/>
    </radialGradient>
  </defs>
</svg>
