<?xml version="1.0" encoding="UTF-8" standalone="no"?>
<svg xmlns:xlink="http://www.w3.org/1999/xlink" height="5.55px" width="3.45px" xmlns="http://www.w3.org/2000/svg">
  <g transform="matrix(1.0, 0.0, 0.0, 1.0, 14.05, 18.2)">
    <path d="M-12.85 -13.15 Q-13.35 -13.55 -13.5 -14.1 -13.7 -14.7 -13.35 -15.55 L-12.5 -17.0 -11.9 -17.7 Q-12.2 -16.9 -12.1 -16.3 L-11.9 -15.5 Q-11.75 -14.95 -11.3 -14.9 L-11.1 -14.9 -12.45 -13.45 -12.85 -13.15" fill="url(#gradient0)" fill-rule="evenodd" stroke="none"/>
    <path d="M-12.85 -13.15 Q-13.35 -13.55 -13.5 -14.1 -13.7 -14.7 -13.35 -15.55 L-12.5 -17.0 -11.9 -17.7 Q-12.2 -16.9 -12.1 -16.3 L-11.9 -15.5 Q-11.75 -14.95 -11.3 -14.9 L-11.1 -14.9" fill="none" stroke="#000000" stroke-linecap="round" stroke-linejoin="round" stroke-width="1.0"/>
  </g>
  <defs>
    <radialGradient cx="0" cy="0" gradientTransform="matrix(0.0021, -0.0021, 0.0021, 0.0021, -12.4, -15.4)" gradientUnits="userSpaceOnUse" id="gradient0" r="819.2" spreadMethod="pad">
      <stop offset="0.0" stop-color="#505050"/>
      <stop offset="0.5764705882352941" stop-color="#959595"/>
      <stop offset="1.0" stop-color="#ffffff"/>
    </radialGradient>
  </defs>
</svg>
