<?xml version="1.0" encoding="UTF-8" standalone="no"?>
<svg xmlns:xlink="http://www.w3.org/1999/xlink" height="6.05px" width="8.8px" xmlns="http://www.w3.org/2000/svg">
  <g transform="matrix(1.0, 0.0, 0.0, 1.0, 1.6, 22.05)">
    <path d="M-1.05 -16.55 Q-1.2 -17.75 -0.6 -18.8 0.0 -19.95 1.7 -20.6 L4.9 -21.45 6.7 -21.55 Q5.25 -20.9 4.5 -19.9 L3.6 -18.45 Q3.1 -17.5 3.65 -16.75 L4.0 -16.5 -0.05 -16.4 -1.05 -16.55" fill="url(#gradient0)" fill-rule="evenodd" stroke="none"/>
    <path d="M-1.05 -16.55 Q-1.2 -17.75 -0.6 -18.8 0.0 -19.95 1.7 -20.6 L4.9 -21.45 6.7 -21.55 Q5.25 -20.9 4.5 -19.9 L3.6 -18.45 Q3.1 -17.5 3.65 -16.75 L4.0 -16.5" fill="none" stroke="#000000" stroke-linecap="round" stroke-linejoin="round" stroke-width="1.0"/>
  </g>
  <defs>
    <radialGradient cx="0" cy="0" gradientTransform="matrix(0.006, 0.0, 0.0, 0.006, 2.8, -19.0)" gradientUnits="userSpaceOnUse" id="gradient0" r="819.2" spreadMethod="pad">
      <stop offset="0.0" stop-color="#505050"/>
      <stop offset="0.5764705882352941" stop-color="#959595"/>
      <stop offset="1.0" stop-color="#ffffff"/>
    </radialGradient>
  </defs>
</svg>
