<?xml version="1.0" encoding="UTF-8" standalone="no"?>
<svg xmlns:xlink="http://www.w3.org/1999/xlink" height="8.8px" width="6.05px" xmlns="http://www.w3.org/2000/svg">
  <g transform="matrix(1.0, 0.0, 0.0, 1.0, 24.05, 5.45)">
    <path d="M-18.55 2.8 Q-19.75 2.95 -20.8 2.35 -21.95 1.75 -22.6 0.05 L-23.45 -3.15 -23.55 -4.95 Q-22.9 -3.5 -21.9 -2.75 L-20.45 -1.85 -18.75 -1.9 -18.5 -2.25 -18.4 1.8 Q-18.4 2.45 -18.55 2.8" fill="url(#gradient0)" fill-rule="evenodd" stroke="none"/>
    <path d="M-18.55 2.8 Q-19.75 2.95 -20.8 2.35 -21.95 1.75 -22.6 0.05 L-23.45 -3.15 -23.55 -4.95 Q-22.9 -3.5 -21.9 -2.75 L-20.45 -1.85 -18.75 -1.9 -18.5 -2.25" fill="none" stroke="#000000" stroke-linecap="round" stroke-linejoin="round" stroke-width="1.0"/>
  </g>
  <defs>
    <radialGradient cx="0" cy="0" gradientTransform="matrix(0.0, -0.006, 0.006, 0.0, -21.0, -1.05)" gradientUnits="userSpaceOnUse" id="gradient0" r="819.2" spreadMethod="pad">
      <stop offset="0.0" stop-color="#505050"/>
      <stop offset="0.5764705882352941" stop-color="#959595"/>
      <stop offset="1.0" stop-color="#ffffff"/>
    </radialGradient>
  </defs>
</svg>
