<?xml version="1.0" encoding="UTF-8" standalone="no"?>
<svg xmlns:xlink="http://www.w3.org/1999/xlink" height="44.7px" width="48.3px" xmlns="http://www.w3.org/2000/svg">
  <g transform="matrix(1.0, 0.0, 0.0, 1.0, 24.05, 22.05)">
    <path d="M-0.65 -16.55 Q-0.75 -17.75 -0.35 -18.8 0.1 -19.95 1.25 -20.6 L3.5 -21.45 4.75 -21.55 Q3.75 -20.9 3.2 -19.9 L2.6 -18.45 Q2.25 -17.5 2.65 -16.75 L2.85 -16.5 0.05 -16.4 -0.65 -16.55" fill="url(#gradient0)" fill-rule="evenodd" stroke="none"/>
    <path d="M-0.65 -16.55 Q-0.75 -17.75 -0.35 -18.8 0.1 -19.95 1.25 -20.6 L3.5 -21.45 4.75 -21.55 Q3.75 -20.9 3.2 -19.9 L2.6 -18.45 Q2.25 -17.5 2.65 -16.75 L2.85 -16.5" fill="none" stroke="#000000" stroke-linecap="round" stroke-linejoin="round" stroke-width="1.0"/>
    <path d="M11.5 -13.3 L13.3 -14.6 15.7 -14.8 17.9 -13.8 18.85 -12.95 16.6 -12.9 15.15 -12.35 Q14.2 -11.9 13.95 -11.05 L13.95 -10.75 11.9 -12.7 11.5 -13.3" fill="url(#gradient1)" fill-rule="evenodd" stroke="none"/>
    <path d="M11.5 -13.3 L13.3 -14.6 15.7 -14.8 17.9 -13.8 18.85 -12.95 16.6 -12.9 15.15 -12.35 Q14.2 -11.9 13.95 -11.05 L13.95 -10.75" fill="none" stroke="#000000" stroke-linecap="round" stroke-linejoin="round" stroke-width="1.0"/>
    <path d="M18.75 -2.05 L21.0 -1.75 Q22.15 -1.3 22.8 -0.15 L23.65 2.1 23.75 3.35 Q23.1 2.35 22.1 1.8 L20.65 1.2 18.95 1.25 18.7 1.45 18.6 -1.35 Q18.6 -1.8 18.75 -2.05" fill="url(#gradient2)" fill-rule="evenodd" stroke="none"/>
    <path d="M18.75 -2.05 L21.0 -1.75 Q22.15 -1.3 22.8 -0.15 L23.65 2.1 23.75 3.35 Q23.1 2.35 22.1 1.8 L20.65 1.2 18.95 1.25 18.7 1.45" fill="none" stroke="#000000" stroke-linecap="round" stroke-linejoin="round" stroke-width="1.0"/>
    <path d="M15.25 10.1 Q16.15 10.9 16.55 11.9 17.1 13.05 16.75 14.3 L15.75 16.5 14.9 17.45 Q15.15 16.3 14.85 15.2 L14.3 13.75 Q13.85 12.8 13.0 12.55 L12.7 12.55 14.65 10.5 15.25 10.1" fill="url(#gradient3)" fill-rule="evenodd" stroke="none"/>
    <path d="M15.25 10.1 Q16.15 10.9 16.55 11.9 17.1 13.05 16.75 14.3 L15.75 16.5 14.9 17.45 Q15.15 16.3 14.85 15.2 L14.3 13.75 Q13.85 12.8 13.0 12.55 L12.7 12.55" fill="none" stroke="#000000" stroke-linecap="round" stroke-linejoin="round" stroke-width="1.0"/>
    <path d="M2.2 17.15 Q2.3 18.35 1.9 19.4 1.45 20.55 0.3 21.2 -0.7 21.7 -1.95 22.05 L-3.2 22.15 Q-2.2 21.5 -1.65 20.5 L-1.05 19.05 Q-0.7 18.1 -1.1 17.35 L-1.3 17.1 1.5 17.0 Q1.95 17.0 2.2 17.15" fill="url(#gradient4)" fill-rule="evenodd" stroke="none"/>
    <path d="M2.2 17.15 Q2.3 18.35 1.9 19.4 1.45 20.55 0.3 21.2 -0.7 21.7 -1.95 22.05 L-3.2 22.15 Q-2.2 21.5 -1.65 20.5 L-1.05 19.05 Q-0.7 18.1 -1.1 17.35 L-1.3 17.1" fill="none" stroke="#000000" stroke-linecap="round" stroke-linejoin="round" stroke-width="1.0"/>
    <path d="M-11.65 13.4 Q-12.45 14.3 -13.45 14.7 L-15.85 14.9 -18.05 13.9 -19.0 13.05 -16.75 13.0 -15.3 12.45 Q-14.35 12.0 -14.1 11.15 L-14.1 10.85 -12.05 12.8 -11.65 13.4" fill="url(#gradient5)" fill-rule="evenodd" stroke="none"/>
    <path d="M-11.65 13.4 Q-12.45 14.3 -13.45 14.7 L-15.85 14.9 -18.05 13.9 -19.0 13.05 -16.75 13.0 -15.3 12.45 Q-14.35 12.0 -14.1 11.15 L-14.1 10.85" fill="none" stroke="#000000" stroke-linecap="round" stroke-linejoin="round" stroke-width="1.0"/>
    <path d="M-18.55 2.4 L-20.8 2.1 Q-21.95 1.65 -22.6 0.5 L-23.45 -1.75 -23.55 -3.0 Q-22.9 -2.0 -21.9 -1.45 L-20.45 -0.85 -18.75 -0.9 -18.5 -1.1 -18.4 1.7 Q-18.4 2.15 -18.55 2.4" fill="url(#gradient6)" fill-rule="evenodd" stroke="none"/>
    <path d="M-18.55 2.4 L-20.8 2.1 Q-21.95 1.65 -22.6 0.5 L-23.45 -1.75 -23.55 -3.0 Q-22.9 -2.0 -21.9 -1.45 L-20.45 -0.85 -18.75 -0.9 -18.5 -1.1" fill="none" stroke="#000000" stroke-linecap="round" stroke-linejoin="round" stroke-width="1.0"/>
    <path d="M-13.2 -11.25 L-14.5 -13.05 Q-15.05 -14.2 -14.7 -15.45 L-13.7 -17.65 -12.85 -18.6 Q-13.1 -17.45 -12.8 -16.35 L-12.25 -14.9 Q-11.8 -13.95 -10.95 -13.7 L-10.65 -13.7 -12.6 -11.65 -13.2 -11.25" fill="url(#gradient7)" fill-rule="evenodd" stroke="none"/>
    <path d="M-13.2 -11.25 L-14.5 -13.05 Q-15.05 -14.2 -14.7 -15.45 L-13.7 -17.65 -12.85 -18.6 Q-13.1 -17.45 -12.8 -16.35 L-12.25 -14.9 Q-11.8 -13.95 -10.95 -13.7 L-10.65 -13.7" fill="none" stroke="#000000" stroke-linecap="round" stroke-linejoin="round" stroke-width="1.0"/>
  </g>
  <defs>
    <radialGradient cx="0" cy="0" gradientTransform="matrix(0.0042, 0.0, 0.0, 0.006, 2.05, -19.0)" gradientUnits="userSpaceOnUse" id="gradient0" r="819.2" spreadMethod="pad">
      <stop offset="0.0" stop-color="#505050"/>
      <stop offset="0.5764705882352941" stop-color="#959595"/>
      <stop offset="1.0" stop-color="#ffffff"/>
    </radialGradient>
    <radialGradient cx="0" cy="0" gradientTransform="matrix(0.003, 0.003, -0.0042, 0.0042, 15.1, -13.1)" gradientUnits="userSpaceOnUse" id="gradient1" r="819.2" spreadMethod="pad">
      <stop offset="0.0" stop-color="#505050"/>
      <stop offset="0.5764705882352941" stop-color="#959595"/>
      <stop offset="1.0" stop-color="#ffffff"/>
    </radialGradient>
    <radialGradient cx="0" cy="0" gradientTransform="matrix(0.0, 0.0042, -0.006, 0.0, 21.2, 0.65)" gradientUnits="userSpaceOnUse" id="gradient2" r="819.2" spreadMethod="pad">
      <stop offset="0.0" stop-color="#505050"/>
      <stop offset="0.5764705882352941" stop-color="#959595"/>
      <stop offset="1.0" stop-color="#ffffff"/>
    </radialGradient>
    <radialGradient cx="0" cy="0" gradientTransform="matrix(-0.003, 0.003, -0.0042, -0.0042, 15.05, 13.7)" gradientUnits="userSpaceOnUse" id="gradient3" r="819.2" spreadMethod="pad">
      <stop offset="0.0" stop-color="#505050"/>
      <stop offset="0.5764705882352941" stop-color="#959595"/>
      <stop offset="1.0" stop-color="#ffffff"/>
    </radialGradient>
    <radialGradient cx="0" cy="0" gradientTransform="matrix(-0.0042, 0.0, 0.0, -0.006, -0.5, 19.6)" gradientUnits="userSpaceOnUse" id="gradient4" r="819.2" spreadMethod="pad">
      <stop offset="0.0" stop-color="#505050"/>
      <stop offset="0.5764705882352941" stop-color="#959595"/>
      <stop offset="1.0" stop-color="#ffffff"/>
    </radialGradient>
    <radialGradient cx="0" cy="0" gradientTransform="matrix(-0.003, -0.003, 0.0042, -0.0042, -15.25, 13.2)" gradientUnits="userSpaceOnUse" id="gradient5" r="819.2" spreadMethod="pad">
      <stop offset="0.0" stop-color="#505050"/>
      <stop offset="0.5764705882352941" stop-color="#959595"/>
      <stop offset="1.0" stop-color="#ffffff"/>
    </radialGradient>
    <radialGradient cx="0" cy="0" gradientTransform="matrix(0.0, -0.0042, 0.006, 0.0, -21.0, -0.3)" gradientUnits="userSpaceOnUse" id="gradient6" r="819.2" spreadMethod="pad">
      <stop offset="0.0" stop-color="#505050"/>
      <stop offset="0.5764705882352941" stop-color="#959595"/>
      <stop offset="1.0" stop-color="#ffffff"/>
    </radialGradient>
    <radialGradient cx="0" cy="0" gradientTransform="matrix(0.003, -0.003, 0.0042, 0.0042, -13.0, -14.85)" gradientUnits="userSpaceOnUse" id="gradient7" r="819.2" spreadMethod="pad">
      <stop offset="0.0" stop-color="#505050"/>
      <stop offset="0.5764705882352941" stop-color="#959595"/>
      <stop offset="1.0" stop-color="#ffffff"/>
    </radialGradient>
  </defs>
</svg>
