<?xml version="1.0" encoding="UTF-8" standalone="no"?>
<svg xmlns:xlink="http://www.w3.org/1999/xlink" height="92.85px" width="110.4px" xmlns="http://www.w3.org/2000/svg">
  <g transform="matrix(1.0, 0.0, 0.0, 1.0, 128.5, -68.05)">
    <path d="M-18.1 70.6 L-24.5 78.45 Q-30.85 86.25 -37.85 93.7 L-41.25 97.4 Q-51.25 108.2 -60.55 120.05 L-67.75 129.0 Q-72.45 134.7 -77.3 140.2 L-81.9 145.85 Q-89.45 155.75 -99.95 160.7 -101.0 161.2 -102.25 160.4 -110.15 155.2 -113.9 146.1 -117.4 137.6 -120.4 129.0 L-125.95 111.85 Q-129.35 100.35 -128.25 88.15 -127.65 81.6 -125.4 75.5 L-123.0 68.75 Q-118.3 69.35 -113.4 70.6 -100.2 74.0 -87.25 70.9 -70.2 66.85 -51.6 68.55 L-18.85 70.55 -18.1 70.6" fill="#3300cc" fill-rule="evenodd" stroke="none"/>
  </g>
</svg>
