<?xml version="1.0" encoding="UTF-8" standalone="no"?>
<svg xmlns:xlink="http://www.w3.org/1999/xlink" height="96.05px" width="112.9px" xmlns="http://www.w3.org/2000/svg">
  <g transform="matrix(1.0, 0.0, 0.0, 1.0, 128.5, -64.85)">
    <path d="M-15.6 67.5 L-24.5 78.45 Q-30.85 86.25 -37.85 93.7 L-41.25 97.4 Q-51.25 108.2 -60.55 120.05 L-67.75 129.0 Q-72.45 134.7 -77.3 140.2 L-81.9 145.85 Q-89.45 155.75 -99.95 160.7 -101.0 161.2 -102.25 160.4 -110.15 155.2 -113.9 146.1 -117.4 137.6 -120.4 129.0 L-125.95 111.85 Q-129.35 100.35 -128.25 88.15 -127.65 81.6 -125.4 75.5 -123.55 70.6 -122.05 65.65 -117.8 66.25 -113.45 67.4 -100.25 70.8 -87.3 67.7 -70.25 63.65 -51.65 65.35 L-18.9 67.35 -15.6 67.5" fill="#3300cc" fill-rule="evenodd" stroke="none"/>
  </g>
</svg>
