<?xml version="1.0" encoding="UTF-8" standalone="no"?>
<svg xmlns:xlink="http://www.w3.org/1999/xlink" height="46.6px" width="50.2px" xmlns="http://www.w3.org/2000/svg">
  <g transform="matrix(1.0, 0.0, 0.0, 1.0, 25.0, 23.0)">
    <path d="M-1.15 -16.4 L-2.1 -18.4 -2.5 -20.3 -2.55 -22.15 -2.6 -22.5 -0.6 -20.5 0.9 -18.85 2.35 -16.95 2.8 -16.3 -0.3 -16.3 -1.15 -16.4" fill="url(#gradient0)" fill-rule="evenodd" stroke="none"/>
    <path d="M-1.15 -16.4 L-2.1 -18.4 -2.5 -20.3 -2.55 -22.15 -2.6 -22.5 -0.6 -20.5 0.9 -18.85 2.35 -16.95 2.8 -16.3" fill="none" stroke="#000000" stroke-linecap="round" stroke-linejoin="round" stroke-width="1.0"/>
    <path d="M11.05 -13.5 L11.75 -15.6 12.8 -17.25 14.1 -18.5 14.3 -18.85 14.3 -16.0 14.15 -13.8 13.9 -11.4 13.75 -10.6 11.55 -12.8 11.05 -13.5" fill="url(#gradient1)" fill-rule="evenodd" stroke="none"/>
    <path d="M11.05 -13.5 L11.75 -15.6 12.8 -17.25 14.1 -18.5 14.3 -18.85 14.3 -16.0 14.15 -13.8 13.9 -11.4 13.75 -10.6" fill="none" stroke="#000000" stroke-linecap="round" stroke-linejoin="round" stroke-width="1.0"/>
    <path d="M18.6 -2.6 L20.6 -3.55 22.5 -3.95 24.3 -4.0 24.7 -4.0 22.7 -2.05 21.05 -0.55 19.15 0.95 18.5 1.4 18.5 -1.7 18.6 -2.6" fill="url(#gradient2)" fill-rule="evenodd" stroke="none"/>
    <path d="M18.6 -2.6 L20.6 -3.55 22.5 -3.95 24.3 -4.0 24.7 -4.0 22.7 -2.05 21.05 -0.55 19.15 0.95 18.5 1.4" fill="none" stroke="#000000" stroke-linecap="round" stroke-linejoin="round" stroke-width="1.0"/>
    <path d="M15.45 9.65 L17.55 10.35 19.2 11.4 20.45 12.7 20.8 12.9 17.95 12.9 15.75 12.75 13.35 12.5 12.55 12.35 14.75 10.15 15.45 9.65" fill="url(#gradient3)" fill-rule="evenodd" stroke="none"/>
    <path d="M15.45 9.65 L17.55 10.35 19.2 11.4 20.45 12.7 20.8 12.9 17.95 12.9 15.75 12.75 13.35 12.5 12.55 12.35" fill="none" stroke="#000000" stroke-linecap="round" stroke-linejoin="round" stroke-width="1.0"/>
    <path d="M2.75 17.0 L3.7 19.0 4.1 20.9 4.15 22.75 4.15 23.1 2.2 21.1 0.7 19.45 -0.8 17.55 -1.25 16.9 1.85 16.9 2.75 17.0" fill="url(#gradient4)" fill-rule="evenodd" stroke="none"/>
    <path d="M2.75 17.0 L3.7 19.0 4.1 20.9 4.15 22.75 4.15 23.1 2.2 21.1 0.7 19.45 -0.8 17.55 -1.25 16.9" fill="none" stroke="#000000" stroke-linecap="round" stroke-linejoin="round" stroke-width="1.0"/>
    <path d="M-11.2 13.7 L-11.9 15.8 -12.95 17.45 -14.25 18.7 -14.45 19.05 -14.45 16.2 -14.3 14.0 -14.05 11.6 -13.9 10.8 -11.7 13.0 -11.2 13.7" fill="url(#gradient5)" fill-rule="evenodd" stroke="none"/>
    <path d="M-11.2 13.7 L-11.9 15.8 -12.95 17.45 -14.25 18.7 -14.45 19.05 -14.45 16.2 -14.3 14.0 -14.05 11.6 -13.9 10.8" fill="none" stroke="#000000" stroke-linecap="round" stroke-linejoin="round" stroke-width="1.0"/>
    <path d="M-18.4 2.9 Q-19.4 3.55 -20.4 3.85 L-22.3 4.25 -24.15 4.3 -24.5 4.35 -22.5 2.35 -20.85 0.85 Q-19.95 0.0 -18.95 -0.6 L-18.3 -1.05 -18.3 2.05 -18.4 2.9" fill="url(#gradient6)" fill-rule="evenodd" stroke="none"/>
    <path d="M-18.4 2.9 Q-19.4 3.55 -20.4 3.85 L-22.3 4.25 -24.15 4.3 -24.5 4.35 -22.5 2.35 -20.85 0.85 Q-19.95 0.0 -18.95 -0.6 L-18.3 -1.05" fill="none" stroke="#000000" stroke-linecap="round" stroke-linejoin="round" stroke-width="1.0"/>
    <path d="M-13.4 -10.8 L-15.5 -11.5 Q-16.45 -11.9 -17.15 -12.55 L-18.4 -13.85 -18.75 -14.05 -15.9 -14.05 -13.7 -13.9 -11.3 -13.65 -10.5 -13.5 -12.7 -11.3 -13.4 -10.8" fill="url(#gradient7)" fill-rule="evenodd" stroke="none"/>
    <path d="M-13.4 -10.8 L-15.5 -11.5 Q-16.45 -11.9 -17.15 -12.55 L-18.4 -13.85 -18.75 -14.05 -15.9 -14.05 -13.7 -13.9 -11.3 -13.65 -10.5 -13.5" fill="none" stroke="#000000" stroke-linecap="round" stroke-linejoin="round" stroke-width="1.0"/>
  </g>
  <defs>
    <radialGradient cx="0" cy="0" gradientTransform="matrix(0.005, 0.0, 0.0025, 0.0043, -0.95, -19.4)" gradientUnits="userSpaceOnUse" id="gradient0" r="819.2" spreadMethod="pad">
      <stop offset="0.0" stop-color="#505050"/>
      <stop offset="0.5764705882352941" stop-color="#959595"/>
      <stop offset="1.0" stop-color="#ffffff"/>
    </radialGradient>
    <radialGradient cx="0" cy="0" gradientTransform="matrix(0.0035, 0.0035, -0.0013, 0.0048, 13.25, -15.5)" gradientUnits="userSpaceOnUse" id="gradient1" r="819.2" spreadMethod="pad">
      <stop offset="0.0" stop-color="#505050"/>
      <stop offset="0.5764705882352941" stop-color="#959595"/>
      <stop offset="1.0" stop-color="#ffffff"/>
    </radialGradient>
    <radialGradient cx="0" cy="0" gradientTransform="matrix(0.0, 0.005, -0.0043, 0.0025, 21.6, -2.35)" gradientUnits="userSpaceOnUse" id="gradient2" r="819.2" spreadMethod="pad">
      <stop offset="0.0" stop-color="#505050"/>
      <stop offset="0.5764705882352941" stop-color="#959595"/>
      <stop offset="1.0" stop-color="#ffffff"/>
    </radialGradient>
    <radialGradient cx="0" cy="0" gradientTransform="matrix(-0.0035, 0.0035, -0.0048, -0.0013, 17.45, 11.85)" gradientUnits="userSpaceOnUse" id="gradient3" r="819.2" spreadMethod="pad">
      <stop offset="0.0" stop-color="#505050"/>
      <stop offset="0.5764705882352941" stop-color="#959595"/>
      <stop offset="1.0" stop-color="#ffffff"/>
    </radialGradient>
    <radialGradient cx="0" cy="0" gradientTransform="matrix(-0.005, 0.0, -0.0025, -0.0043, 2.5, 20.0)" gradientUnits="userSpaceOnUse" id="gradient4" r="819.2" spreadMethod="pad">
      <stop offset="0.0" stop-color="#505050"/>
      <stop offset="0.5764705882352941" stop-color="#959595"/>
      <stop offset="1.0" stop-color="#ffffff"/>
    </radialGradient>
    <radialGradient cx="0" cy="0" gradientTransform="matrix(-0.0035, -0.0035, 0.0013, -0.0048, -13.4, 15.7)" gradientUnits="userSpaceOnUse" id="gradient5" r="819.2" spreadMethod="pad">
      <stop offset="0.0" stop-color="#505050"/>
      <stop offset="0.5764705882352941" stop-color="#959595"/>
      <stop offset="1.0" stop-color="#ffffff"/>
    </radialGradient>
    <radialGradient cx="0" cy="0" gradientTransform="matrix(0.0, -0.005, 0.0043, -0.0025, -21.4, 2.7)" gradientUnits="userSpaceOnUse" id="gradient6" r="819.2" spreadMethod="pad">
      <stop offset="0.0" stop-color="#505050"/>
      <stop offset="0.5764705882352941" stop-color="#959595"/>
      <stop offset="1.0" stop-color="#ffffff"/>
    </radialGradient>
    <radialGradient cx="0" cy="0" gradientTransform="matrix(0.0035, -0.0035, 0.0048, 0.0013, -15.4, -13.0)" gradientUnits="userSpaceOnUse" id="gradient7" r="819.2" spreadMethod="pad">
      <stop offset="0.0" stop-color="#505050"/>
      <stop offset="0.5764705882352941" stop-color="#959595"/>
      <stop offset="1.0" stop-color="#ffffff"/>
    </radialGradient>
  </defs>
</svg>
