<?xml version="1.0" encoding="UTF-8" standalone="no"?>
<svg xmlns:xlink="http://www.w3.org/1999/xlink" height="6.05px" width="6.4px" xmlns="http://www.w3.org/2000/svg">
  <g transform="matrix(1.0, 0.0, 0.0, 1.0, 2.9, 22.05)">
    <path d="M3.0 -16.55 Q3.1 -17.75 2.7 -18.8 2.25 -19.95 1.1 -20.6 L-1.15 -21.45 -2.4 -21.55 Q-1.4 -20.9 -0.85 -19.9 L-0.25 -18.45 Q0.1 -17.5 -0.3 -16.75 L-0.5 -16.5 2.3 -16.4 3.0 -16.55" fill="url(#gradient0)" fill-rule="evenodd" stroke="none"/>
    <path d="M3.0 -16.55 Q3.1 -17.75 2.7 -18.8 2.25 -19.95 1.1 -20.6 L-1.15 -21.45 -2.4 -21.55 Q-1.4 -20.9 -0.85 -19.9 L-0.25 -18.45 Q0.1 -17.5 -0.3 -16.75 L-0.5 -16.5" fill="none" stroke="#000000" stroke-linecap="round" stroke-linejoin="round" stroke-width="1.0"/>
  </g>
  <defs>
    <radialGradient cx="0" cy="0" gradientTransform="matrix(-0.0042, 0.0, 0.0, 0.006, 0.3, -19.0)" gradientUnits="userSpaceOnUse" id="gradient0" r="819.2" spreadMethod="pad">
      <stop offset="0.0" stop-color="#505050"/>
      <stop offset="0.5764705882352941" stop-color="#959595"/>
      <stop offset="1.0" stop-color="#ffffff"/>
    </radialGradient>
  </defs>
</svg>
