<?xml version="1.0" encoding="UTF-8" standalone="no"?>
<svg xmlns:xlink="http://www.w3.org/1999/xlink" height="99.25px" width="115.3px" xmlns="http://www.w3.org/2000/svg">
  <g transform="matrix(1.0, 0.0, 0.0, 1.0, 128.5, -61.65)">
    <path d="M-13.2 64.45 L-24.5 78.45 Q-30.85 86.25 -37.85 93.7 L-41.25 97.4 Q-51.25 108.2 -60.55 120.05 L-67.75 129.0 Q-72.45 134.7 -77.3 140.2 L-81.9 145.85 Q-89.45 155.75 -99.95 160.7 -101.0 161.2 -102.25 160.4 -110.15 155.2 -113.9 146.1 -117.4 137.6 -120.4 129.0 L-125.95 111.85 Q-129.35 100.35 -128.25 88.15 -127.65 81.6 -125.4 75.5 -123.0 69.1 -121.1 62.6 -117.35 63.2 -113.45 64.2 -100.25 67.6 -87.3 64.5 -70.25 60.45 -51.65 62.15 L-18.9 64.15 -13.2 64.45" fill="#3300cc" fill-rule="evenodd" stroke="none"/>
  </g>
</svg>
