<?xml version="1.0" encoding="UTF-8" standalone="no"?>
<svg xmlns:xlink="http://www.w3.org/1999/xlink" height="8.35px" width="5.2px" xmlns="http://www.w3.org/2000/svg">
  <g transform="matrix(1.0, 0.0, 0.0, 1.0, 16.4, -10.3)">
    <path d="M-14.25 10.8 L-15.55 12.6 Q-16.1 13.75 -15.75 15.0 L-14.75 17.2 -13.9 18.15 Q-14.15 17.0 -13.85 15.9 L-13.3 14.45 Q-12.85 13.5 -12.0 13.25 L-11.7 13.25 -13.65 11.2 -14.25 10.8" fill="url(#gradient0)" fill-rule="evenodd" stroke="none"/>
    <path d="M-14.25 10.8 L-15.55 12.6 Q-16.1 13.75 -15.75 15.0 L-14.75 17.2 -13.9 18.15 Q-14.15 17.0 -13.85 15.9 L-13.3 14.45 Q-12.85 13.5 -12.0 13.25 L-11.7 13.25" fill="none" stroke="#000000" stroke-linecap="round" stroke-linejoin="round" stroke-width="1.0"/>
  </g>
  <defs>
    <radialGradient cx="0" cy="0" gradientTransform="matrix(0.003, 0.003, 0.0042, -0.0042, -14.05, 14.4)" gradientUnits="userSpaceOnUse" id="gradient0" r="819.2" spreadMethod="pad">
      <stop offset="0.0" stop-color="#505050"/>
      <stop offset="0.5764705882352941" stop-color="#959595"/>
      <stop offset="1.0" stop-color="#ffffff"/>
    </radialGradient>
  </defs>
</svg>
