<?xml version="1.0" encoding="UTF-8" standalone="no"?>
<svg xmlns:xlink="http://www.w3.org/1999/xlink" height="10.0px" width="6.0px" xmlns="http://www.w3.org/2000/svg">
  <g transform="matrix(1.0, 0.0, 0.0, 1.0, -10.45, 19.7)">
    <path d="M14.6 -10.2 Q15.55 -10.95 15.8 -12.1 16.25 -13.35 15.5 -15.0 L13.8 -17.9 12.6 -19.2 Q13.15 -17.75 13.0 -16.5 L12.65 -14.85 Q12.3 -13.8 11.35 -13.65 L10.95 -13.75 13.75 -10.85 Q14.25 -10.35 14.6 -10.2" fill="url(#gradient0)" fill-rule="evenodd" stroke="none"/>
    <path d="M14.6 -10.2 Q15.55 -10.95 15.8 -12.1 16.25 -13.35 15.5 -15.0 L13.8 -17.9 12.6 -19.2 Q13.15 -17.75 13.0 -16.5 L12.65 -14.85 Q12.3 -13.8 11.35 -13.65 L10.95 -13.75" fill="none" stroke="#000000" stroke-linecap="round" stroke-linejoin="round" stroke-width="1.0"/>
  </g>
  <defs>
    <radialGradient cx="0" cy="0" gradientTransform="matrix(-0.0042, -0.0042, -0.0042, 0.0042, 13.55, -14.65)" gradientUnits="userSpaceOnUse" id="gradient0" r="819.2" spreadMethod="pad">
      <stop offset="0.0" stop-color="#505050"/>
      <stop offset="0.5764705882352941" stop-color="#959595"/>
      <stop offset="1.0" stop-color="#ffffff"/>
    </radialGradient>
  </defs>
</svg>
