<?xml version="1.0" encoding="UTF-8" standalone="no"?>
<svg xmlns:xlink="http://www.w3.org/1999/xlink" height="10.0px" width="6.0px" xmlns="http://www.w3.org/2000/svg">
  <g transform="matrix(1.0, 0.0, 0.0, 1.0, 16.55, -9.85)">
    <path d="M-14.7 10.35 Q-15.65 11.1 -15.9 12.25 -16.35 13.5 -15.6 15.15 L-13.9 18.05 -12.7 19.35 Q-13.25 17.9 -13.1 16.65 L-12.75 15.0 Q-12.4 13.95 -11.45 13.8 L-11.05 13.9 -13.85 11.0 -14.7 10.35" fill="url(#gradient0)" fill-rule="evenodd" stroke="none"/>
    <path d="M-14.7 10.35 Q-15.65 11.1 -15.9 12.25 -16.35 13.5 -15.6 15.15 L-13.9 18.05 -12.7 19.35 Q-13.25 17.9 -13.1 16.65 L-12.75 15.0 Q-12.4 13.95 -11.45 13.8 L-11.05 13.9" fill="none" stroke="#000000" stroke-linecap="round" stroke-linejoin="round" stroke-width="1.0"/>
  </g>
  <defs>
    <radialGradient cx="0" cy="0" gradientTransform="matrix(0.0042, 0.0042, 0.0042, -0.0042, -13.65, 14.8)" gradientUnits="userSpaceOnUse" id="gradient0" r="819.2" spreadMethod="pad">
      <stop offset="0.0" stop-color="#505050"/>
      <stop offset="0.5764705882352941" stop-color="#959595"/>
      <stop offset="1.0" stop-color="#ffffff"/>
    </radialGradient>
  </defs>
</svg>
