<?xml version="1.0" encoding="UTF-8" standalone="no"?>
<svg xmlns:xlink="http://www.w3.org/1999/xlink" height="8.35px" width="5.2px" xmlns="http://www.w3.org/2000/svg">
  <g transform="matrix(1.0, 0.0, 0.0, 1.0, -12.2, -9.6)">
    <path d="M15.25 10.1 Q16.15 10.9 16.55 11.9 17.1 13.05 16.75 14.3 L15.75 16.5 14.9 17.45 Q15.15 16.3 14.85 15.2 L14.3 13.75 Q13.85 12.8 13.0 12.55 L12.7 12.55 14.65 10.5 15.25 10.1" fill="url(#gradient0)" fill-rule="evenodd" stroke="none"/>
    <path d="M15.25 10.1 Q16.15 10.9 16.55 11.9 17.1 13.05 16.75 14.3 L15.75 16.5 14.9 17.45 Q15.15 16.3 14.85 15.2 L14.3 13.75 Q13.85 12.8 13.0 12.55 L12.7 12.55" fill="none" stroke="#000000" stroke-linecap="round" stroke-linejoin="round" stroke-width="1.0"/>
  </g>
  <defs>
    <radialGradient cx="0" cy="0" gradientTransform="matrix(-0.003, 0.003, -0.0042, -0.0042, 15.05, 13.7)" gradientUnits="userSpaceOnUse" id="gradient0" r="819.2" spreadMethod="pad">
      <stop offset="0.0" stop-color="#505050"/>
      <stop offset="0.5764705882352941" stop-color="#959595"/>
      <stop offset="1.0" stop-color="#ffffff"/>
    </radialGradient>
  </defs>
</svg>
