<?xml version="1.0" encoding="UTF-8" standalone="no"?>
<svg xmlns:xlink="http://www.w3.org/1999/xlink" height="6.05px" width="6.4px" xmlns="http://www.w3.org/2000/svg">
  <g transform="matrix(1.0, 0.0, 0.0, 1.0, 3.7, -16.6)">
    <path d="M2.2 17.15 Q2.3 18.35 1.9 19.4 1.45 20.55 0.3 21.2 -0.7 21.7 -1.95 22.05 L-3.2 22.15 Q-2.2 21.5 -1.65 20.5 L-1.05 19.05 Q-0.7 18.1 -1.1 17.35 L-1.3 17.1 1.5 17.0 Q1.95 17.0 2.2 17.15" fill="url(#gradient0)" fill-rule="evenodd" stroke="none"/>
    <path d="M2.2 17.15 Q2.3 18.35 1.9 19.4 1.45 20.55 0.3 21.2 -0.7 21.7 -1.95 22.05 L-3.2 22.15 Q-2.2 21.5 -1.65 20.5 L-1.05 19.05 Q-0.7 18.1 -1.1 17.35 L-1.3 17.1" fill="none" stroke="#000000" stroke-linecap="round" stroke-linejoin="round" stroke-width="1.0"/>
  </g>
  <defs>
    <radialGradient cx="0" cy="0" gradientTransform="matrix(-0.0042, 0.0, 0.0, -0.006, -0.5, 19.6)" gradientUnits="userSpaceOnUse" id="gradient0" r="819.2" spreadMethod="pad">
      <stop offset="0.0" stop-color="#505050"/>
      <stop offset="0.5764705882352941" stop-color="#959595"/>
      <stop offset="1.0" stop-color="#ffffff"/>
    </radialGradient>
  </defs>
</svg>
