<?xml version="1.0" encoding="UTF-8" standalone="no"?>
<svg xmlns:xlink="http://www.w3.org/1999/xlink" height="8.35px" width="5.2px" xmlns="http://www.w3.org/2000/svg">
  <g transform="matrix(1.0, 0.0, 0.0, 1.0, 15.35, 19.1)">
    <path d="M-13.2 -11.25 L-14.5 -13.05 Q-15.05 -14.2 -14.7 -15.45 L-13.7 -17.65 -12.85 -18.6 Q-13.1 -17.45 -12.8 -16.35 L-12.25 -14.9 Q-11.8 -13.95 -10.95 -13.7 L-10.65 -13.7 -12.6 -11.65 -13.2 -11.25" fill="url(#gradient0)" fill-rule="evenodd" stroke="none"/>
    <path d="M-13.2 -11.25 L-14.5 -13.05 Q-15.05 -14.2 -14.7 -15.45 L-13.7 -17.65 -12.85 -18.6 Q-13.1 -17.45 -12.8 -16.35 L-12.25 -14.9 Q-11.8 -13.95 -10.95 -13.7 L-10.65 -13.7" fill="none" stroke="#000000" stroke-linecap="round" stroke-linejoin="round" stroke-width="1.0"/>
  </g>
  <defs>
    <radialGradient cx="0" cy="0" gradientTransform="matrix(0.003, -0.003, 0.0042, 0.0042, -13.0, -14.85)" gradientUnits="userSpaceOnUse" id="gradient0" r="819.2" spreadMethod="pad">
      <stop offset="0.0" stop-color="#505050"/>
      <stop offset="0.5764705882352941" stop-color="#959595"/>
      <stop offset="1.0" stop-color="#ffffff"/>
    </radialGradient>
  </defs>
</svg>
