<?xml version="1.0" encoding="UTF-8" standalone="no"?>
<svg xmlns:xlink="http://www.w3.org/1999/xlink" height="6.0px" width="10.0px" xmlns="http://www.w3.org/2000/svg">
  <g transform="matrix(1.0, 0.0, 0.0, 1.0, -10.7, 15.45)">
    <path d="M11.2 -13.6 Q11.95 -14.55 13.1 -14.8 14.35 -15.25 16.0 -14.5 L18.9 -12.8 20.2 -11.6 17.5 -12.0 15.85 -11.65 Q14.8 -11.3 14.65 -10.35 L14.75 -9.95 11.85 -12.75 11.2 -13.6" fill="url(#gradient0)" fill-rule="evenodd" stroke="none"/>
    <path d="M11.2 -13.6 Q11.95 -14.55 13.1 -14.8 14.35 -15.25 16.0 -14.5 L18.9 -12.8 20.2 -11.6 17.5 -12.0 15.85 -11.65 Q14.8 -11.3 14.65 -10.35 L14.75 -9.95" fill="none" stroke="#000000" stroke-linecap="round" stroke-linejoin="round" stroke-width="1.0"/>
  </g>
  <defs>
    <radialGradient cx="0" cy="0" gradientTransform="matrix(0.0042, 0.0042, -0.0042, 0.0042, 15.65, -12.55)" gradientUnits="userSpaceOnUse" id="gradient0" r="819.2" spreadMethod="pad">
      <stop offset="0.0" stop-color="#505050"/>
      <stop offset="0.5764705882352941" stop-color="#959595"/>
      <stop offset="1.0" stop-color="#ffffff"/>
    </radialGradient>
  </defs>
</svg>
