<?xml version="1.0" encoding="UTF-8" standalone="no"?>
<svg xmlns:xlink="http://www.w3.org/1999/xlink" height="10.0px" width="6.0px" xmlns="http://www.w3.org/2000/svg">
  <g transform="matrix(1.0, 0.0, 0.0, 1.0, -11.4, -9.3)">
    <path d="M15.55 9.8 Q16.5 10.55 16.75 11.7 17.2 12.95 16.45 14.6 L14.75 17.5 13.55 18.8 Q14.1 17.35 13.95 16.1 L13.6 14.45 Q13.25 13.4 12.3 13.25 L11.9 13.35 14.7 10.45 Q15.2 9.95 15.55 9.8" fill="url(#gradient0)" fill-rule="evenodd" stroke="none"/>
    <path d="M15.55 9.8 Q16.5 10.55 16.75 11.7 17.2 12.95 16.45 14.6 L14.75 17.5 13.55 18.8 Q14.1 17.35 13.95 16.1 L13.6 14.45 Q13.25 13.4 12.3 13.25 L11.9 13.35" fill="none" stroke="#000000" stroke-linecap="round" stroke-linejoin="round" stroke-width="1.0"/>
  </g>
  <defs>
    <radialGradient cx="0" cy="0" gradientTransform="matrix(-0.0042, 0.0042, -0.0042, -0.0042, 14.5, 14.25)" gradientUnits="userSpaceOnUse" id="gradient0" r="819.2" spreadMethod="pad">
      <stop offset="0.0" stop-color="#505050"/>
      <stop offset="0.5764705882352941" stop-color="#959595"/>
      <stop offset="1.0" stop-color="#ffffff"/>
    </radialGradient>
  </defs>
</svg>
