<?xml version="1.0" encoding="UTF-8" standalone="no"?>
<svg xmlns:xlink="http://www.w3.org/1999/xlink" height="42.1px" width="45.7px" xmlns="http://www.w3.org/2000/svg">
  <g transform="matrix(1.0, 0.0, 0.0, 1.0, 22.75, 20.75)">
    <path d="M0.85 -17.75 Q0.8 -18.35 1.1 -18.9 1.4 -19.45 2.25 -19.8 L3.85 -20.2 4.75 -20.25 3.65 -19.45 3.2 -18.7 Q2.95 -18.25 3.2 -17.85 L3.4 -17.75 1.35 -17.7 0.85 -17.75" fill="url(#gradient0)" fill-rule="evenodd" stroke="none"/>
    <path d="M0.85 -17.75 Q0.8 -18.35 1.1 -18.9 1.4 -19.45 2.25 -19.8 L3.85 -20.2 4.75 -20.25 3.65 -19.45 3.2 -18.7 Q2.95 -18.25 3.2 -17.85 L3.4 -17.75" fill="none" stroke="#000000" stroke-linecap="round" stroke-linejoin="round" stroke-width="1.0"/>
    <path d="M13.45 -12.95 L14.4 -13.6 15.85 -13.45 17.3 -12.6 18.0 -12.0 16.6 -12.2 15.8 -12.0 Q15.25 -11.85 15.2 -11.4 L15.2 -11.2 13.75 -12.55 13.45 -12.95" fill="url(#gradient1)" fill-rule="evenodd" stroke="none"/>
    <path d="M13.45 -12.95 L14.4 -13.6 15.85 -13.45 17.3 -12.6 18.0 -12.0 16.6 -12.2 15.8 -12.0 Q15.25 -11.85 15.2 -11.4 L15.2 -11.2" fill="none" stroke="#000000" stroke-linecap="round" stroke-linejoin="round" stroke-width="1.0"/>
    <path d="M19.95 -0.55 L21.05 -0.3 Q21.65 0.0 21.95 0.85 L22.4 2.45 22.45 3.35 21.6 2.25 20.9 1.8 Q20.4 1.55 20.05 1.8 L19.9 2.0 19.85 -0.05 19.95 -0.55" fill="url(#gradient2)" fill-rule="evenodd" stroke="none"/>
    <path d="M19.95 -0.55 L21.05 -0.3 Q21.65 0.0 21.95 0.85 L22.4 2.45 22.45 3.35 21.6 2.25 20.9 1.8 Q20.4 1.55 20.05 1.8 L19.9 2.0" fill="none" stroke="#000000" stroke-linecap="round" stroke-linejoin="round" stroke-width="1.0"/>
    <path d="M14.95 12.05 Q15.45 12.45 15.6 13.0 15.8 13.6 15.45 14.45 L14.6 15.9 14.0 16.6 Q14.3 15.8 14.2 15.2 L14.0 14.4 Q13.85 13.85 13.4 13.8 L13.2 13.8 14.55 12.35 14.95 12.05" fill="url(#gradient3)" fill-rule="evenodd" stroke="none"/>
    <path d="M14.95 12.05 Q15.45 12.45 15.6 13.0 15.8 13.6 15.45 14.45 L14.6 15.9 14.0 16.6 Q14.3 15.8 14.2 15.2 L14.0 14.4 Q13.85 13.85 13.4 13.8 L13.2 13.8" fill="none" stroke="#000000" stroke-linecap="round" stroke-linejoin="round" stroke-width="1.0"/>
    <path d="M0.7 18.35 Q0.8 18.95 0.5 19.45 L-0.65 20.35 -2.25 20.8 -3.15 20.85 -2.05 20.0 -1.6 19.3 Q-1.35 18.8 -1.65 18.45 L-1.8 18.3 0.2 18.25 0.7 18.35" fill="url(#gradient4)" fill-rule="evenodd" stroke="none"/>
    <path d="M0.7 18.35 Q0.8 18.95 0.5 19.45 L-0.65 20.35 -2.25 20.8 -3.15 20.85 -2.05 20.0 -1.6 19.3 Q-1.35 18.8 -1.65 18.45 L-1.8 18.3" fill="none" stroke="#000000" stroke-linecap="round" stroke-linejoin="round" stroke-width="1.0"/>
    <path d="M-13.55 13.1 L-14.5 13.75 -15.95 13.6 -17.4 12.75 -18.1 12.15 -16.7 12.35 -15.9 12.15 Q-15.35 12.0 -15.3 11.55 L-15.3 11.35 -13.85 12.7 -13.55 13.1" fill="url(#gradient5)" fill-rule="evenodd" stroke="none"/>
    <path d="M-13.55 13.1 L-14.5 13.75 -15.95 13.6 -17.4 12.75 -18.1 12.15 -16.7 12.35 -15.9 12.15 Q-15.35 12.0 -15.3 11.55 L-15.3 11.35" fill="none" stroke="#000000" stroke-linecap="round" stroke-linejoin="round" stroke-width="1.0"/>
    <path d="M-19.75 0.9 L-20.9 0.7 Q-21.45 0.4 -21.8 -0.45 L-22.2 -2.05 -22.25 -2.95 -21.45 -1.85 -20.7 -1.4 -19.85 -1.45 -19.75 -1.6 -19.7 0.4 -19.75 0.9" fill="url(#gradient6)" fill-rule="evenodd" stroke="none"/>
    <path d="M-19.75 0.9 L-20.9 0.7 Q-21.45 0.4 -21.8 -0.45 L-22.2 -2.05 -22.25 -2.95 -21.45 -1.85 -20.7 -1.4 -19.85 -1.45 -19.75 -1.6" fill="none" stroke="#000000" stroke-linecap="round" stroke-linejoin="round" stroke-width="1.0"/>
    <path d="M-12.85 -13.15 Q-13.35 -13.55 -13.5 -14.1 -13.7 -14.7 -13.35 -15.55 L-12.5 -17.0 -11.9 -17.7 Q-12.2 -16.9 -12.1 -16.3 L-11.9 -15.5 Q-11.75 -14.95 -11.3 -14.9 L-11.1 -14.9 -12.45 -13.45 -12.85 -13.15" fill="url(#gradient7)" fill-rule="evenodd" stroke="none"/>
    <path d="M-12.85 -13.15 Q-13.35 -13.55 -13.5 -14.1 -13.7 -14.7 -13.35 -15.55 L-12.5 -17.0 -11.9 -17.7 Q-12.2 -16.9 -12.1 -16.3 L-11.9 -15.5 Q-11.75 -14.95 -11.3 -14.9 L-11.1 -14.9" fill="none" stroke="#000000" stroke-linecap="round" stroke-linejoin="round" stroke-width="1.0"/>
  </g>
  <defs>
    <radialGradient cx="0" cy="0" gradientTransform="matrix(0.003, 0.0, 0.0, 0.003, 2.8, -19.0)" gradientUnits="userSpaceOnUse" id="gradient0" r="819.2" spreadMethod="pad">
      <stop offset="0.0" stop-color="#505050"/>
      <stop offset="0.5764705882352941" stop-color="#959595"/>
      <stop offset="1.0" stop-color="#ffffff"/>
    </radialGradient>
    <radialGradient cx="0" cy="0" gradientTransform="matrix(0.0021, 0.0021, -0.0021, 0.0021, 15.7, -12.5)" gradientUnits="userSpaceOnUse" id="gradient1" r="819.2" spreadMethod="pad">
      <stop offset="0.0" stop-color="#505050"/>
      <stop offset="0.5764705882352941" stop-color="#959595"/>
      <stop offset="1.0" stop-color="#ffffff"/>
    </radialGradient>
    <radialGradient cx="0" cy="0" gradientTransform="matrix(0.0, 0.003, -0.003, 0.0, 21.15, 1.4)" gradientUnits="userSpaceOnUse" id="gradient2" r="819.2" spreadMethod="pad">
      <stop offset="0.0" stop-color="#505050"/>
      <stop offset="0.5764705882352941" stop-color="#959595"/>
      <stop offset="1.0" stop-color="#ffffff"/>
    </radialGradient>
    <radialGradient cx="0" cy="0" gradientTransform="matrix(-0.0021, 0.0021, -0.0021, -0.0021, 14.5, 14.3)" gradientUnits="userSpaceOnUse" id="gradient3" r="819.2" spreadMethod="pad">
      <stop offset="0.0" stop-color="#505050"/>
      <stop offset="0.5764705882352941" stop-color="#959595"/>
      <stop offset="1.0" stop-color="#ffffff"/>
    </radialGradient>
    <radialGradient cx="0" cy="0" gradientTransform="matrix(-0.003, 0.0, 0.0, -0.003, -1.2, 19.55)" gradientUnits="userSpaceOnUse" id="gradient4" r="819.2" spreadMethod="pad">
      <stop offset="0.0" stop-color="#505050"/>
      <stop offset="0.5764705882352941" stop-color="#959595"/>
      <stop offset="1.0" stop-color="#ffffff"/>
    </radialGradient>
    <radialGradient cx="0" cy="0" gradientTransform="matrix(-0.0021, -0.0021, 0.0021, -0.0021, -15.8, 12.65)" gradientUnits="userSpaceOnUse" id="gradient5" r="819.2" spreadMethod="pad">
      <stop offset="0.0" stop-color="#505050"/>
      <stop offset="0.5764705882352941" stop-color="#959595"/>
      <stop offset="1.0" stop-color="#ffffff"/>
    </radialGradient>
    <radialGradient cx="0" cy="0" gradientTransform="matrix(0.0, -0.003, 0.003, 0.0, -21.0, -1.0)" gradientUnits="userSpaceOnUse" id="gradient6" r="819.2" spreadMethod="pad">
      <stop offset="0.0" stop-color="#505050"/>
      <stop offset="0.5764705882352941" stop-color="#959595"/>
      <stop offset="1.0" stop-color="#ffffff"/>
    </radialGradient>
    <radialGradient cx="0" cy="0" gradientTransform="matrix(0.0021, -0.0021, 0.0021, 0.0021, -12.4, -15.4)" gradientUnits="userSpaceOnUse" id="gradient7" r="819.2" spreadMethod="pad">
      <stop offset="0.0" stop-color="#505050"/>
      <stop offset="0.5764705882352941" stop-color="#959595"/>
      <stop offset="1.0" stop-color="#ffffff"/>
    </radialGradient>
  </defs>
</svg>
