<?xml version="1.0" encoding="UTF-8" standalone="no"?>
<svg xmlns:xlink="http://www.w3.org/1999/xlink" height="87.7px" width="141.6px" xmlns="http://www.w3.org/2000/svg">
  <g transform="matrix(1.0, 0.0, 0.0, 1.0, 70.3, 37.8)">
    <path d="M55.45 33.95 L54.8 39.85 Q59.05 40.15 59.05 43.95 59.05 46.3 57.45 47.65 55.9 49.0 53.5 49.0 L48.75 49.0 Q46.95 49.0 45.75 47.85 44.5 46.65 44.5 44.85 L45.1 38.85 45.5 34.9 Q46.1 29.0 50.0 25.3 53.95 21.65 59.8 21.65 64.6 21.65 67.95 24.8 71.3 27.95 71.3 32.7 71.3 34.95 69.9 36.5 68.5 38.05 66.3 38.05 63.9 38.05 62.85 36.15 L61.6 32.65 Q60.6 30.65 58.95 30.65 56.2 30.65 55.45 33.95" fill="#000000" fill-rule="evenodd" stroke="none"/>
    <path d="M43.7 40.95 Q44.6 41.65 44.6 43.45 44.6 45.95 43.25 47.5 41.9 49.0 39.45 49.0 L35.3 49.0 Q31.9 49.0 31.7 46.8 28.45 49.7 23.5 49.7 18.4 49.7 15.15 46.2 11.95 42.7 11.95 37.55 11.95 30.65 16.8 26.15 21.65 21.65 28.6 21.65 34.3 21.65 37.95 25.15 41.6 28.7 41.6 34.35 L41.1 39.8 43.7 40.95 M30.6 31.95 Q29.3 30.65 27.35 30.65 25.1 30.65 23.4 32.35 21.65 34.0 21.65 36.25 21.65 38.2 22.95 39.5 24.25 40.8 26.2 40.8 28.45 40.8 30.15 39.15 31.85 37.45 31.85 35.2 31.85 33.25 30.6 31.95" fill="#000000" fill-rule="evenodd" stroke="none"/>
    <path d="M0.05 30.7 Q-1.15 29.65 -2.65 29.65 -6.25 29.65 -7.5 33.2 L1.2 33.2 Q1.25 31.75 0.05 30.7 M4.35 40.7 Q5.45 41.8 5.45 43.35 5.45 46.55 1.65 48.4 -1.4 49.9 -4.95 49.9 -10.75 49.9 -14.6 46.7 -18.75 43.3 -18.75 37.6 -18.75 30.65 -13.7 26.0 -8.85 21.55 -1.8 21.55 3.4 21.55 7.25 24.6 11.35 27.85 11.35 32.95 11.35 35.3 9.95 36.7 8.55 38.1 6.2 38.1 L-8.0 38.1 Q-7.2 40.75 -3.65 40.75 L-0.95 40.15 Q0.8 39.6 1.7 39.6 3.25 39.6 4.35 40.7" fill="#000000" fill-rule="evenodd" stroke="none"/>
    <path d="M-19.05 17.95 L-21.75 44.2 Q-22.25 49.0 -26.75 49.0 L-32.0 49.0 Q-33.85 49.0 -35.0 47.9 -36.2 46.8 -36.2 44.95 -36.2 42.75 -34.75 41.4 -33.35 40.0 -31.15 39.9 L-29.35 23.0 Q-31.15 23.1 -32.3 21.95 -33.45 20.85 -33.45 19.05 -33.45 16.75 -31.95 15.35 -30.45 14.0 -28.1 14.0 L-23.15 14.0 Q-21.3 14.0 -20.1 15.05 -18.9 16.15 -19.05 17.95" fill="#000000" fill-rule="evenodd" stroke="none"/>
    <path d="M-35.15 13.95 Q-34.0 15.1 -34.0 17.05 -34.0 21.35 -34.75 23.7 -35.95 27.45 -39.3 27.45 -41.0 27.45 -42.65 26.15 L-45.55 23.85 Q-47.55 22.6 -50.15 22.6 -54.35 22.6 -57.2 25.45 -60.05 28.3 -60.05 32.45 -60.05 35.75 -57.8 38.0 -55.5 40.2 -52.2 40.2 -49.65 40.2 -47.35 38.8 L-43.75 36.15 Q-41.9 34.8 -40.45 34.8 -38.7 34.8 -37.4 36.0 -36.15 37.15 -36.15 38.9 -36.15 41.3 -39.5 44.55 -44.95 49.85 -53.15 49.85 -60.55 49.85 -65.35 45.25 -70.3 40.6 -70.3 33.25 -70.3 24.95 -64.3 19.05 -58.3 13.15 -50.0 13.15 -44.9 13.15 -42.5 15.35 -40.75 12.8 -38.2 12.8 -36.25 12.8 -35.15 13.95" fill="#000000" fill-rule="evenodd" stroke="none"/>
    <path d="M39.6 -37.75 Q41.6 -37.75 42.8 -36.45 44.0 -35.15 44.0 -33.15 L43.55 -28.6 54.8 -28.6 Q56.6 -28.6 57.8 -27.6 59.0 -26.6 59.0 -24.8 59.0 -22.6 57.45 -21.4 55.95 -20.2 53.7 -20.2 L42.7 -20.2 Q42.4 -18.25 42.05 -14.25 L42.0 -13.45 41.95 -12.65 Q41.95 -11.55 42.75 -10.8 43.55 -10.05 44.65 -10.05 46.75 -10.05 47.85 -12.1 L49.85 -15.85 Q51.25 -17.9 53.75 -17.9 55.5 -17.9 56.6 -16.75 57.8 -15.6 57.8 -13.85 57.8 -8.6 53.2 -4.8 48.85 -1.2 43.5 -1.2 38.6 -1.2 35.4 -4.3 32.2 -7.4 32.2 -12.3 L32.25 -13.7 34.2 -32.15 Q34.45 -34.55 35.75 -36.05 37.3 -37.75 39.6 -37.75 M16.0 -28.6 L25.95 -28.6 Q30.3 -28.6 30.3 -24.4 L29.85 -19.85 16.45 -19.85 15.65 -19.5 Q15.5 -19.2 15.5 -18.65 15.6 -18.2 16.75 -18.2 L18.65 -18.35 20.5 -18.45 Q24.3 -18.45 26.7 -16.7 29.45 -14.7 29.45 -11.05 29.45 -7.15 26.8 -4.6 24.2 -2.0 20.3 -2.0 L8.65 -2.0 Q4.6 -2.0 4.6 -6.05 L5.05 -10.75 18.85 -10.75 Q19.55 -10.75 19.8 -11.1 20.05 -11.5 19.6 -12.05 L17.3 -12.25 14.75 -12.05 Q11.1 -12.05 8.65 -13.85 5.9 -15.85 5.9 -19.45 5.9 -23.65 8.9 -26.2 11.7 -28.6 16.0 -28.6 M3.15 -14.3 Q1.75 -12.9 -0.6 -12.9 L-14.8 -12.9 Q-14.0 -10.25 -10.45 -10.25 L-7.75 -10.85 -5.1 -11.4 Q-3.55 -11.4 -2.45 -10.3 -1.35 -9.2 -1.35 -7.65 -1.35 -4.45 -5.15 -2.6 -8.2 -1.1 -11.75 -1.1 -17.55 -1.1 -21.4 -4.3 -25.55 -7.7 -25.55 -13.4 -25.55 -20.35 -20.5 -25.0 -15.65 -29.45 -8.6 -29.45 -3.4 -29.45 0.45 -26.4 4.55 -23.15 4.55 -18.05 4.55 -15.7 3.15 -14.3 M-45.45 -27.35 Q-47.15 -25.8 -47.4 -23.4 L-48.65 -11.35 Q-46.8 -11.35 -45.55 -10.2 -44.35 -9.0 -44.35 -7.15 -44.35 -4.95 -45.95 -3.45 -47.55 -2.0 -49.8 -2.0 L-54.8 -2.0 Q-56.6 -2.0 -57.8 -3.05 -58.95 -4.15 -58.95 -5.9 L-58.85 -7.3 -57.15 -23.2 Q-56.45 -29.6 -51.65 -33.7 -46.8 -37.8 -40.35 -37.8 -34.75 -37.8 -30.9 -34.4 -26.9 -30.8 -27.0 -25.25 -27.05 -23.0 -28.8 -6.95 -29.35 -2.0 -34.5 -2.0 L-38.9 -2.0 Q-40.8 -2.0 -42.1 -3.15 -43.35 -4.35 -43.35 -6.2 -43.35 -8.45 -41.8 -9.85 -40.25 -11.25 -38.0 -11.25 L-36.8 -23.3 -36.75 -23.65 -36.7 -23.95 Q-36.7 -26.1 -37.95 -27.5 -39.2 -28.9 -41.3 -28.9 -43.7 -28.9 -45.45 -27.35 M-9.45 -21.35 Q-13.05 -21.35 -14.3 -17.8 L-5.6 -17.8 Q-5.55 -19.25 -6.75 -20.3 -7.95 -21.35 -9.45 -21.35" fill="#000000" fill-rule="evenodd" stroke="none"/>
  </g>
</svg>
