<?xml version="1.0" encoding="UTF-8" standalone="no"?>
<svg xmlns:xlink="http://www.w3.org/1999/xlink" height="115.25px" width="126.5px" xmlns="http://www.w3.org/2000/svg">
  <g transform="matrix(1.0, 0.0, 0.0, 1.0, 128.5, -45.65)">
    <path d="M-2.0 50.15 Q-13.05 64.45 -24.5 78.45 -30.85 86.25 -37.85 93.7 L-41.25 97.4 Q-51.25 108.2 -60.55 120.05 L-67.75 129.0 Q-72.45 134.7 -77.3 140.2 L-81.9 145.85 Q-89.45 155.75 -99.95 160.7 -101.0 161.2 -102.25 160.4 -110.15 155.2 -113.9 146.1 -117.4 137.6 -120.4 129.0 L-125.95 111.85 Q-129.35 100.35 -128.25 88.15 -127.65 81.6 -125.4 75.5 -121.95 66.25 -119.55 56.85 -118.3 52.0 -116.4 47.55 L-113.6 48.2 Q-100.4 51.6 -87.45 48.5 -70.4 44.45 -51.8 46.15 L-19.05 48.15 Q-10.35 48.35 -2.6 50.0 L-2.0 50.15" fill="#3300cc" fill-rule="evenodd" stroke="none"/>
  </g>
</svg>
