<?xml version="1.0" encoding="UTF-8" standalone="no"?>
<svg xmlns:xlink="http://www.w3.org/1999/xlink" height="5.55px" width="3.45px" xmlns="http://www.w3.org/2000/svg">
  <g transform="matrix(1.0, 0.0, 0.0, 1.0, -12.7, -11.55)">
    <path d="M14.95 12.05 Q15.45 12.45 15.6 13.0 15.8 13.6 15.45 14.45 L14.6 15.9 14.0 16.6 Q14.3 15.8 14.2 15.2 L14.0 14.4 Q13.85 13.85 13.4 13.8 L13.2 13.8 14.55 12.35 14.95 12.05" fill="url(#gradient0)" fill-rule="evenodd" stroke="none"/>
    <path d="M14.95 12.05 Q15.45 12.45 15.6 13.0 15.8 13.6 15.45 14.45 L14.6 15.9 14.0 16.6 Q14.3 15.8 14.2 15.2 L14.0 14.4 Q13.85 13.85 13.4 13.8 L13.2 13.8" fill="none" stroke="#000000" stroke-linecap="round" stroke-linejoin="round" stroke-width="1.0"/>
  </g>
  <defs>
    <radialGradient cx="0" cy="0" gradientTransform="matrix(-0.0021, 0.0021, -0.0021, -0.0021, 14.5, 14.3)" gradientUnits="userSpaceOnUse" id="gradient0" r="819.2" spreadMethod="pad">
      <stop offset="0.0" stop-color="#505050"/>
      <stop offset="0.5764705882352941" stop-color="#959595"/>
      <stop offset="1.0" stop-color="#ffffff"/>
    </radialGradient>
  </defs>
</svg>
