<?xml version="1.0" encoding="UTF-8" standalone="no"?>
<svg xmlns:xlink="http://www.w3.org/1999/xlink" height="6.05px" width="8.8px" xmlns="http://www.w3.org/2000/svg">
  <g transform="matrix(1.0, 0.0, 0.0, 1.0, 5.65, -16.6)">
    <path d="M2.6 17.15 Q2.75 18.35 2.15 19.4 1.55 20.55 -0.15 21.2 L-3.35 22.05 -5.15 22.15 Q-3.7 21.5 -2.95 20.5 L-2.05 19.05 Q-1.55 18.1 -2.1 17.35 L-2.45 17.1 1.6 17.0 2.6 17.15" fill="url(#gradient0)" fill-rule="evenodd" stroke="none"/>
    <path d="M2.6 17.15 Q2.75 18.35 2.15 19.4 1.55 20.55 -0.15 21.2 L-3.35 22.05 -5.15 22.15 Q-3.7 21.5 -2.95 20.5 L-2.05 19.05 Q-1.55 18.1 -2.1 17.35 L-2.45 17.1" fill="none" stroke="#000000" stroke-linecap="round" stroke-linejoin="round" stroke-width="1.0"/>
  </g>
  <defs>
    <radialGradient cx="0" cy="0" gradientTransform="matrix(-0.006, 0.0, 0.0, -0.006, -1.25, 19.6)" gradientUnits="userSpaceOnUse" id="gradient0" r="819.2" spreadMethod="pad">
      <stop offset="0.0" stop-color="#505050"/>
      <stop offset="0.5764705882352941" stop-color="#959595"/>
      <stop offset="1.0" stop-color="#ffffff"/>
    </radialGradient>
  </defs>
</svg>
