<?xml version="1.0" encoding="UTF-8" standalone="no"?>
<svg xmlns:xlink="http://www.w3.org/1999/xlink" height="10.0px" width="6.0px" xmlns="http://www.w3.org/2000/svg">
  <g transform="matrix(1.0, 0.0, 0.0, 1.0, 15.35, 20.45)">
    <path d="M-13.5 -10.95 Q-14.45 -11.7 -14.7 -12.85 -15.15 -14.1 -14.4 -15.75 L-12.7 -18.65 -11.5 -19.95 Q-12.05 -18.5 -11.9 -17.25 L-11.55 -15.6 Q-11.2 -14.55 -10.25 -14.4 L-9.85 -14.5 -12.65 -11.6 -13.5 -10.95" fill="url(#gradient0)" fill-rule="evenodd" stroke="none"/>
    <path d="M-13.5 -10.95 Q-14.45 -11.7 -14.7 -12.85 -15.15 -14.1 -14.4 -15.75 L-12.7 -18.65 -11.5 -19.95 Q-12.05 -18.5 -11.9 -17.25 L-11.55 -15.6 Q-11.2 -14.55 -10.25 -14.4 L-9.85 -14.5" fill="none" stroke="#000000" stroke-linecap="round" stroke-linejoin="round" stroke-width="1.0"/>
  </g>
  <defs>
    <radialGradient cx="0" cy="0" gradientTransform="matrix(0.0042, -0.0042, 0.0042, 0.0042, -12.45, -15.4)" gradientUnits="userSpaceOnUse" id="gradient0" r="819.2" spreadMethod="pad">
      <stop offset="0.0" stop-color="#505050"/>
      <stop offset="0.5764705882352941" stop-color="#959595"/>
      <stop offset="1.0" stop-color="#ffffff"/>
    </radialGradient>
  </defs>
</svg>
