<?xml version="1.0" encoding="UTF-8" standalone="no"?>
<svg xmlns:xlink="http://www.w3.org/1999/xlink" height="48.05px" width="41.1px" xmlns="http://www.w3.org/2000/svg">
  <g transform="matrix(1.0, 0.0, 0.0, 1.0, 20.45, 29.1)">
    <path d="M-4.7 -25.95 L-4.2 -26.55 -3.95 -26.8 -3.9 -26.85 -3.9 -26.9 -3.85 -26.9 -3.8 -26.95 -3.7 -27.05 -3.5 -27.25 Q-2.25 -28.5 -1.1 -28.9 L-0.85 -28.95 -0.5 -29.05 -0.4 -29.05 -0.35 -29.05 -0.25 -29.05 -0.05 -29.1 0.0 -29.1 0.15 -29.1 0.2 -29.1 0.3 -29.1 0.75 -29.0 1.15 -28.9 Q2.25 -28.5 3.55 -27.25 L3.7 -27.1 3.75 -27.1 4.1 -26.7 4.5 -26.3 7.55 -22.1 Q13.1 -13.3 13.9 -12.55 19.65 -7.3 19.65 0.1 19.65 7.5 13.9 12.7 8.2 17.95 0.1 17.95 -7.95 17.95 -13.75 12.7 -16.2 10.45 -17.6 7.85 -19.45 4.3 -19.45 0.1 -19.45 -3.45 -18.1 -6.55 -16.7 -9.85 -13.75 -12.55 -12.85 -13.35 -7.45 -22.1 L-4.7 -25.95" fill="url(#gradient0)" fill-rule="evenodd" stroke="none"/>
    <path d="M4.5 -26.3 L7.55 -22.1 Q13.1 -13.3 13.9 -12.55 19.65 -7.3 19.65 0.1 19.65 7.5 13.9 12.7 8.2 17.95 0.1 17.95 -7.95 17.95 -13.75 12.7 -16.2 10.45 -17.6 7.85 -19.45 4.3 -19.45 0.1 -19.45 -3.45 -18.1 -6.55 -16.7 -9.85 -13.75 -12.55 -12.85 -13.35 -7.45 -22.1 L-4.7 -25.95" fill="none" stroke="#000000" stroke-linecap="round" stroke-linejoin="round" stroke-width="2.0"/>
  </g>
  <defs>
    <radialGradient cx="0" cy="0" gradientTransform="matrix(0.0173, -0.0411, 0.028, 0.0118, 4.0, 0.95)" gradientUnits="userSpaceOnUse" id="gradient0" r="819.2" spreadMethod="pad">
      <stop offset="0.0" stop-color="#505050"/>
      <stop offset="0.5764705882352941" stop-color="#959595"/>
      <stop offset="1.0" stop-color="#ffffff"/>
    </radialGradient>
  </defs>
</svg>
