<?xml version="1.0" encoding="UTF-8" standalone="no"?>
<svg xmlns:xlink="http://www.w3.org/1999/xlink" height="3.5px" width="4.9px" xmlns="http://www.w3.org/2000/svg">
  <g transform="matrix(1.0, 0.0, 0.0, 1.0, -0.35, 20.75)">
    <path d="M0.85 -17.75 Q0.8 -18.35 1.1 -18.9 1.4 -19.45 2.25 -19.8 L3.85 -20.2 4.75 -20.25 3.65 -19.45 3.2 -18.7 Q2.95 -18.25 3.2 -17.85 L3.4 -17.75 1.35 -17.7 0.85 -17.75" fill="url(#gradient0)" fill-rule="evenodd" stroke="none"/>
    <path d="M0.85 -17.75 Q0.8 -18.35 1.1 -18.9 1.4 -19.45 2.25 -19.8 L3.85 -20.2 4.75 -20.25 3.65 -19.45 3.2 -18.7 Q2.95 -18.25 3.2 -17.85 L3.4 -17.75" fill="none" stroke="#000000" stroke-linecap="round" stroke-linejoin="round" stroke-width="1.0"/>
  </g>
  <defs>
    <radialGradient cx="0" cy="0" gradientTransform="matrix(0.003, 0.0, 0.0, 0.003, 2.8, -19.0)" gradientUnits="userSpaceOnUse" id="gradient0" r="819.2" spreadMethod="pad">
      <stop offset="0.0" stop-color="#505050"/>
      <stop offset="0.5764705882352941" stop-color="#959595"/>
      <stop offset="1.0" stop-color="#ffffff"/>
    </radialGradient>
  </defs>
</svg>
