<?xml version="1.0" encoding="UTF-8" standalone="no"?>
<svg xmlns:xlink="http://www.w3.org/1999/xlink" height="121.65px" width="130.8px" xmlns="http://www.w3.org/2000/svg">
  <g transform="matrix(1.0, 0.0, 0.0, 1.0, 128.5, -39.25)">
    <path d="M-2.7 43.6 L2.3 44.5 Q-10.8 61.65 -24.5 78.45 -30.85 86.25 -37.85 93.7 L-41.25 97.4 Q-51.25 108.2 -60.55 120.05 L-67.75 129.0 Q-72.45 134.7 -77.3 140.2 L-81.9 145.85 Q-89.45 155.75 -99.95 160.7 -101.0 161.2 -102.25 160.4 -110.15 155.2 -113.9 146.1 -117.4 137.6 -120.4 129.0 L-125.95 111.85 Q-129.35 100.35 -128.25 88.15 -127.65 81.6 -125.4 75.5 -121.95 66.25 -119.55 56.85 -117.5 48.85 -113.65 41.85 -100.45 45.2 -87.55 42.1 -70.5 38.05 -51.9 39.75 L-19.15 41.75 Q-10.45 41.95 -2.7 43.6" fill="#3300cc" fill-rule="evenodd" stroke="none"/>
  </g>
</svg>
