<?xml version="1.0" encoding="UTF-8" standalone="no"?>
<svg xmlns:xlink="http://www.w3.org/1999/xlink" height="124.85px" width="133.0px" xmlns="http://www.w3.org/2000/svg">
  <g transform="matrix(1.0, 0.0, 0.0, 1.0, 128.5, -36.05)">
    <path d="M-2.7 40.4 L4.5 41.55 Q-9.6 60.25 -24.5 78.45 -30.85 86.25 -37.85 93.7 L-41.25 97.4 Q-51.25 108.2 -60.55 120.05 L-67.75 129.0 Q-72.45 134.7 -77.3 140.2 L-81.9 145.85 Q-89.45 155.75 -99.95 160.7 -101.0 161.2 -102.25 160.4 -110.15 155.2 -113.9 146.1 -117.4 137.6 -120.4 129.0 L-125.95 111.85 Q-129.35 100.35 -128.25 88.15 -127.65 81.6 -125.4 75.5 -121.95 66.25 -119.55 56.85 -117.1 47.25 -112.0 39.0 -99.65 41.8 -87.55 38.9 -70.5 34.85 -51.9 36.55 L-19.15 38.55 Q-10.45 38.75 -2.7 40.4" fill="#3300cc" fill-rule="evenodd" stroke="none"/>
  </g>
</svg>
