<?xml version="1.0" encoding="UTF-8" standalone="no"?>
<svg xmlns:xlink="http://www.w3.org/1999/xlink" height="70.15px" width="74.35px" xmlns="http://www.w3.org/2000/svg">
  <g transform="matrix(1.0, 0.0, 0.0, 1.0, 37.85, 35.7)">
    <path d="M7.1 -34.45 Q9.25 -32.35 11.7 -31.9 L13.9 -31.85 19.1 -29.55 Q22.9 -27.75 25.35 -25.35 26.3 -24.4 26.7 -23.15 28.3 -18.35 32.15 -15.35 36.0 -12.35 36.0 -6.7 36.05 -1.15 35.3 4.0 L34.9 6.85 Q34.4 10.55 32.9 13.8 32.0 15.8 30.15 17.25 27.35 19.5 24.7 23.75 20.85 27.95 15.85 30.0 L13.7 30.85 8.35 32.85 Q2.2 35.1 -3.85 32.7 -5.8 31.95 -7.9 31.55 -12.5 30.65 -17.05 28.65 -21.85 26.5 -26.15 24.5 -27.4 23.95 -28.3 21.8 -29.3 19.25 -31.0 17.85 -33.85 15.6 -34.3 12.5 -34.8 9.0 -35.15 9.75 -35.75 9.95 -36.0 6.15 -37.75 4.55 -37.2 2.35 -36.6 0.15 -36.85 -2.15 -37.45 -7.6 -33.5 -11.1 -32.6 -14.45 -31.1 -16.85 -29.2 -19.9 -27.5 -23.65 -26.55 -25.7 -24.85 -26.05 -21.3 -26.9 -19.6 -29.2 -15.0 -29.8 -11.1 -31.85 L-5.75 -34.85 -3.8 -35.0 Q0.3 -33.0 4.85 -34.75 6.2 -35.3 7.1 -34.45" fill="#9c9c9c" fill-rule="evenodd" stroke="none"/>
    <path d="M7.1 -34.45 Q6.2 -35.3 4.85 -34.75 0.3 -33.0 -3.8 -35.0 L-5.75 -34.85 -11.1 -31.85 Q-15.0 -29.8 -19.6 -29.2 -21.3 -26.9 -24.85 -26.05 -26.55 -25.7 -27.5 -23.65 -29.2 -19.9 -31.1 -16.85 -32.6 -14.45 -33.5 -11.1 -37.45 -7.6 -36.85 -2.15 -36.6 0.15 -37.2 2.35 -37.75 4.55 -36.0 6.15 -35.75 9.95 -35.15 9.75 -34.8 9.0 -34.3 12.5 -33.85 15.6 -31.0 17.85 -29.3 19.25 -28.3 21.8 -27.4 23.95 -26.15 24.5 -21.85 26.5 -17.05 28.65 -12.5 30.65 -7.9 31.55 -5.8 31.95 -3.85 32.7 2.2 35.1 8.35 32.85 L13.7 30.85 15.85 30.0 Q20.85 27.95 24.7 23.75 27.35 19.5 30.15 17.25 32.0 15.8 32.9 13.8 34.4 10.55 34.9 6.85 L35.3 4.0 Q36.05 -1.15 36.0 -6.7 36.0 -12.35 32.15 -15.35 28.3 -18.35 26.7 -23.15 26.3 -24.4 25.35 -25.35 22.9 -27.75 19.1 -29.55 L13.9 -31.85 11.7 -31.9 Q9.25 -32.35 7.1 -34.45 Z" fill="none" stroke="#000000" stroke-linecap="round" stroke-linejoin="round" stroke-width="1.0"/>
  </g>
</svg>
