<?xml version="1.0" encoding="UTF-8" standalone="no"?>
<svg xmlns:xlink="http://www.w3.org/1999/xlink" height="169.5px" width="80.4px" xmlns="http://www.w3.org/2000/svg">
  <g transform="matrix(1.0, 0.0, 0.0, 1.0, 41.25, 118.0)">
    <path d="M8.75 -106.5 L10.0 -105.75 10.25 -105.5 Q10.15 -105.1 9.5 -105.0 L9.0 -104.75 Q8.5 -104.2 8.35 -103.7 L8.25 -103.25 Q8.2 -102.15 9.5 -101.7 10.4 -101.4 10.15 -100.5 L10.0 -100.25 Q9.6 -99.8 8.5 -99.9 L8.05 -99.9 8.75 -99.5 11.15 -97.35 11.25 -97.0 11.25 -96.25 14.0 -96.35 Q15.35 -96.45 15.0 -98.0 14.7 -99.2 15.8 -99.6 L16.75 -99.75 18.95 -99.55 19.5 -99.25 19.7 -99.0 Q22.05 -99.25 21.7 -102.0 21.5 -103.4 22.55 -103.9 L24.2 -104.6 Q24.85 -104.85 24.8 -105.5 L24.85 -108.5 25.05 -108.95 25.45 -109.55 25.85 -109.9 26.25 -109.95 Q26.7 -109.95 26.9 -109.6 L27.15 -109.4 27.4 -109.0 Q27.55 -108.05 28.2 -107.45 L28.7 -107.4 28.9 -107.75 29.2 -108.65 29.5 -108.75 31.1 -108.45 31.2 -108.45 Q31.7 -109.2 31.35 -110.45 L31.1 -111.05 Q31.0 -111.25 31.05 -111.5 L31.3 -111.95 Q31.95 -112.75 33.0 -112.65 L34.75 -112.2 35.5 -111.85 36.3 -111.6 Q36.65 -111.45 36.75 -111.95 L37.0 -112.3 38.0 -112.5 M31.2 -108.45 L31.9 -108.1 32.15 -107.75 32.45 -105.55 32.7 -105.2 Q33.4 -104.65 34.2 -104.95 L34.55 -105.2 Q34.9 -105.55 35.5 -105.55 L35.75 -105.55 36.5 -105.45 Q37.25 -105.3 37.25 -104.25 37.25 -103.85 37.4 -103.6 L37.75 -103.5 38.0 -103.5 M6.3 -116.5 L5.95 -115.8 Q5.35 -115.05 4.0 -115.3 3.45 -115.4 3.5 -115.0 3.65 -113.6 2.75 -113.25 L3.5 -113.2 8.0 -112.8 9.0 -112.75 M-11.0 -106.0 Q-9.7 -105.5 -8.5 -106.0 L-8.1 -106.2 -8.0 -106.5 Q-8.15 -107.9 -7.35 -108.9 L-7.05 -108.9 -6.45 -108.6 Q-5.05 -107.95 -3.5 -108.0 L-2.5 -108.05 Q-1.55 -108.1 -1.5 -109.25 L-1.4 -110.75 -1.15 -111.15 -0.8 -111.35 Q-0.4 -111.5 -0.4 -112.0 L-0.25 -112.5 Q0.2 -113.55 1.75 -113.35 L2.75 -113.25 M4.5 -112.75 Q6.4 -112.85 6.1 -110.75 5.85 -109.25 7.25 -108.45 L7.4 -108.25 7.75 -106.8 8.0 -106.75 9.15 -106.95 9.35 -107.15 9.7 -107.55 10.7 -107.75 10.9 -107.85 11.15 -108.25 11.2 -109.5 Q11.15 -110.35 11.95 -110.65 L12.55 -110.9 13.0 -111.0 Q14.25 -110.9 14.1 -109.25 14.05 -108.55 14.65 -108.3 L15.5 -107.75 15.75 -107.5 M14.5 -109.25 Q16.0 -109.15 17.2 -109.85 L18.0 -109.0 18.3 -108.8 19.75 -108.25 M18.3 -108.8 L18.25 -106.25 18.25 -106.0 M14.5 -92.25 L14.45 -92.5 14.15 -92.95 13.25 -93.0 12.0 -92.95 Q10.55 -92.8 10.7 -94.25 L10.85 -94.7 11.25 -96.25 M22.5 -96.5 L21.25 -96.5 20.55 -96.6 Q20.05 -96.8 20.05 -97.25 20.15 -98.4 19.7 -99.0 M8.05 -99.9 L7.25 -99.95 6.0 -99.95 Q5.05 -99.95 5.2 -99.0 L5.4 -98.05 5.65 -97.65 5.75 -97.25 5.55 -95.8 5.25 -95.6 4.0 -95.5 3.75 -95.5 1.7 -95.35 1.1 -95.1 0.75 -94.75 Q0.35 -93.75 0.4 -92.5 0.5 -91.45 -0.5 -91.25 -0.7 -89.85 0.3 -89.1 L0.9 -88.6 1.1 -88.3 Q1.4 -87.55 2.25 -87.4 L5.25 -87.2 7.25 -87.25 Q8.2 -87.25 8.35 -86.25 L8.45 -86.0 8.75 -85.5 M1.0 -85.25 Q1.05 -85.7 1.55 -85.9 2.55 -86.25 2.25 -87.4 M-11.5 -79.5 Q-11.3 -78.25 -10.0 -78.1 L-8.3 -78.2 Q-8.0 -78.25 -7.75 -78.5 -7.2 -79.15 -6.25 -79.05 L-5.4 -78.8 -4.9 -78.3 -4.55 -77.95 -4.1 -77.2 Q-2.55 -77.0 -1.9 -78.2 L-1.6 -78.8 -1.5 -79.25 Q-1.45 -80.3 0.0 -80.0 L1.45 -79.6 1.85 -79.35 2.25 -79.2 Q3.3 -79.0 3.7 -79.75 4.15 -80.55 5.25 -80.5 L5.8 -80.55 6.15 -80.7 6.25 -80.75 7.95 -81.0 9.2 -80.45 10.9 -79.1 11.05 -78.75 Q11.15 -78.0 11.9 -77.55 L13.05 -76.85 Q13.4 -76.6 13.75 -76.5 M8.75 -81.25 Q9.8 -81.45 10.2 -82.5 L10.2 -83.0 Q10.0 -84.1 10.8 -84.35 L11.75 -84.45 Q13.5 -84.25 13.3 -86.0 13.15 -87.5 13.75 -88.3 L14.25 -88.5 Q15.5 -88.5 16.5 -88.0 M13.75 -86.0 Q14.95 -84.7 16.7 -84.3 L17.05 -84.05 18.4 -81.8 Q18.5 -81.5 18.75 -81.35 M28.5 -87.25 Q27.7 -87.9 27.65 -89.25 L27.2 -89.9 26.8 -90.1 26.2 -90.4 25.75 -90.5 24.0 -90.5 M29.0 -79.0 L29.3 -79.55 Q29.4 -80.4 30.25 -80.55 L30.6 -80.85 Q31.45 -82.35 30.55 -83.8 30.25 -84.25 30.1 -84.8 L30.1 -85.15 30.3 -85.55 30.95 -87.2 30.8 -87.15 28.5 -86.8 Q27.8 -86.8 27.55 -87.4 L27.25 -87.45 Q26.5 -87.25 26.65 -86.0 L26.55 -84.55 26.4 -84.35 26.15 -84.05 M37.75 -91.0 L35.5 -90.65 34.25 -90.65 Q33.6 -90.7 33.45 -90.25 L33.3 -89.75 33.2 -89.25 Q32.9 -88.15 31.9 -87.65 L30.95 -87.2 M23.25 -67.5 L25.75 -67.5 Q27.15 -67.45 27.3 -65.75 L27.75 -65.95 28.25 -66.2 Q29.3 -66.6 29.4 -67.5 L29.55 -68.75 Q29.7 -70.0 31.3 -69.75 31.45 -70.7 30.5 -70.75 L29.95 -70.9 29.0 -70.75 M38.0 -71.25 Q37.35 -71.9 36.0 -72.0 35.6 -72.05 35.6 -71.5 L35.5 -71.4 Q33.75 -70.1 32.75 -68.7 32.65 -68.5 32.25 -68.5 31.7 -68.45 31.55 -68.95 L31.35 -69.35 Q31.25 -69.5 31.3 -69.75 M25.25 -68.25 Q25.5 -69.2 24.75 -69.8 L24.35 -70.3 Q23.9 -71.15 23.0 -71.25 M27.3 -65.75 L26.25 -65.7 Q25.8 -65.7 26.0 -65.0 26.2 -64.3 25.75 -64.25 M6.0 -64.75 Q6.4 -63.95 7.5 -63.65 7.65 -62.8 8.1 -62.3 L8.45 -61.95 8.25 -61.75 Q10.25 -61.65 12.05 -60.9 L13.6 -62.1 14.25 -62.3 Q15.3 -62.5 15.45 -61.55 L15.6 -60.7 15.75 -60.0 Q18.15 -59.85 18.25 -61.75 L18.25 -62.0 Q19.85 -61.95 21.3 -61.1 L22.2 -60.65 22.9 -60.0 Q23.1 -59.25 23.75 -59.0 24.15 -59.45 24.25 -60.5 L24.5 -60.65 Q25.95 -60.8 26.9 -60.3 27.5 -60.0 28.25 -60.0 L31.5 -60.0 31.75 -60.0 32.0 -60.0 M28.25 -59.5 Q28.15 -58.4 28.4 -57.7 L28.5 -57.25 Q28.4 -55.6 30.0 -55.0 M6.15 -80.7 Q7.35 -80.4 7.1 -78.75 6.85 -77.35 8.05 -76.6 9.2 -75.9 10.45 -75.55 L10.85 -75.2 11.1 -74.55 Q11.25 -74.1 11.6 -73.9 L12.7 -73.15 13.65 -72.45 13.75 -72.0 13.4 -70.45 Q13.25 -70.1 13.25 -69.75 L13.25 -68.75 13.25 -68.5 M1.75 -71.5 L0.0 -71.45 Q-0.45 -71.45 -0.55 -71.05 L-0.65 -70.75 -0.85 -69.5 Q-0.85 -69.35 -1.0 -69.3 -2.0 -68.65 -3.25 -68.5 L-5.05 -68.6 -5.75 -68.75 Q-7.1 -68.8 -6.8 -67.25 -6.45 -65.3 -8.25 -65.35 -9.25 -65.4 -9.4 -64.5 L-9.45 -63.75 -9.4 -63.0 Q-9.25 -61.85 -10.15 -61.55 L-11.05 -61.1 -12.0 -60.0 M8.25 -61.75 Q7.45 -61.25 6.25 -61.25 6.7 -60.65 6.65 -59.75 L6.7 -59.0 Q6.95 -58.05 6.6 -57.65 L6.55 -57.5 6.65 -57.35 7.2 -56.95 7.8 -56.65 8.5 -56.55 Q9.25 -56.65 9.55 -56.05 L9.7 -55.7 M14.0 -54.0 Q15.6 -53.65 15.25 -55.25 14.9 -56.85 16.25 -56.75 L16.2 -56.8 15.9 -58.75 15.85 -59.5 15.75 -60.0 M19.5 -56.5 L19.55 -56.75 Q19.75 -57.65 19.0 -57.5 L18.75 -57.25 Q17.95 -56.45 16.5 -56.6 16.3 -56.6 16.25 -56.75 M-10.85 -24.5 Q-9.55 -24.0 -8.35 -24.5 L-7.95 -24.7 -7.85 -25.0 Q-8.0 -26.4 -7.2 -27.4 L-6.9 -27.4 -6.3 -27.1 Q-4.9 -26.45 -3.35 -26.5 L-2.35 -26.55 Q-1.4 -26.6 -1.35 -27.75 L-1.25 -29.25 -1.0 -29.65 -0.65 -29.85 Q-0.25 -30.0 -0.25 -30.5 L-0.1 -31.0 Q0.35 -32.05 1.9 -31.85 L2.9 -31.75 Q3.8 -32.1 3.65 -33.5 3.6 -33.9 4.15 -33.8 5.5 -33.55 6.1 -34.3 L6.45 -35.0 M2.9 -31.75 L3.65 -31.7 8.15 -31.3 9.15 -31.25 M8.9 -25.0 L10.15 -24.25 10.4 -24.0 Q10.3 -23.6 9.65 -23.5 L9.15 -23.25 Q8.65 -22.7 8.5 -22.2 L8.4 -21.75 Q8.35 -20.65 9.65 -20.2 10.55 -19.9 10.3 -19.0 L10.15 -18.75 Q9.75 -18.3 8.65 -18.4 L8.2 -18.4 8.9 -18.0 11.3 -15.85 11.4 -15.5 11.4 -14.75 14.15 -14.85 Q15.5 -14.95 15.15 -16.5 14.85 -17.7 15.95 -18.1 L16.9 -18.25 19.1 -18.05 19.65 -17.75 19.85 -17.5 Q22.2 -17.75 21.85 -20.5 21.65 -21.9 22.7 -22.4 L24.35 -23.1 Q25.0 -23.35 24.95 -24.0 L25.0 -27.0 25.2 -27.45 25.6 -28.05 26.0 -28.4 26.4 -28.45 Q26.85 -28.45 27.05 -28.1 L27.3 -27.9 27.55 -27.5 Q27.7 -26.55 28.35 -25.95 L28.85 -25.9 29.05 -26.25 29.35 -27.15 29.65 -27.25 31.25 -26.95 31.35 -26.95 Q31.85 -27.7 31.5 -28.95 L31.25 -29.55 Q31.15 -29.75 31.2 -30.0 L31.45 -30.45 Q32.1 -31.25 33.15 -31.15 34.05 -31.1 34.9 -30.7 35.2 -30.55 35.65 -30.35 L36.45 -30.1 Q36.8 -29.95 36.9 -30.45 L37.15 -30.8 38.15 -31.0 M38.15 -22.0 L37.9 -22.0 Q37.65 -22.0 37.55 -22.1 37.4 -22.35 37.4 -22.75 37.4 -23.8 36.65 -23.95 L35.9 -24.05 35.65 -24.05 Q35.05 -24.05 34.7 -23.7 L34.35 -23.45 Q33.55 -23.15 32.85 -23.7 L32.6 -24.05 32.3 -26.25 32.05 -26.6 31.35 -26.95 M22.65 -15.0 L21.4 -15.0 20.7 -15.1 Q20.2 -15.3 20.2 -15.75 20.3 -16.9 19.85 -17.5 M29.15 2.5 L29.45 1.95 Q29.55 1.1 30.4 0.95 L30.75 0.65 Q31.6 -0.85 30.7 -2.3 30.4 -2.75 30.25 -3.3 L30.25 -3.65 30.45 -4.05 31.1 -5.7 30.95 -5.65 28.65 -5.3 Q27.95 -5.3 27.7 -5.9 L27.4 -5.95 Q26.65 -5.75 26.8 -4.5 L26.7 -3.05 26.55 -2.85 26.3 -2.55 M28.65 -5.75 Q27.85 -6.4 27.8 -7.75 L27.35 -8.4 26.95 -8.6 26.35 -8.9 25.9 -9.0 24.15 -9.0 M37.9 -9.5 L35.65 -9.15 34.4 -9.15 Q33.75 -9.2 33.6 -8.75 L33.45 -8.25 33.35 -7.75 Q33.05 -6.65 32.05 -6.15 L31.1 -5.7 M19.9 -26.75 L18.45 -27.3 18.4 -24.75 18.4 -24.5 M14.65 -27.75 Q16.15 -27.65 17.35 -28.35 L18.15 -27.5 18.45 -27.3 M4.65 -31.25 Q6.55 -31.35 6.25 -29.25 6.0 -27.75 7.4 -26.95 L7.55 -26.75 Q7.65 -26.0 7.9 -25.3 L8.15 -25.25 9.3 -25.45 9.5 -25.65 9.85 -26.05 10.85 -26.25 11.05 -26.35 11.3 -26.75 11.35 -28.0 Q11.3 -28.85 12.1 -29.15 L12.7 -29.4 13.15 -29.5 Q14.4 -29.4 14.25 -27.75 14.2 -27.05 14.8 -26.8 L15.65 -26.25 15.9 -26.0 M8.2 -18.4 L7.4 -18.45 6.15 -18.45 Q5.2 -18.45 5.35 -17.5 L5.55 -16.55 5.8 -16.15 5.9 -15.75 5.7 -14.3 5.4 -14.1 4.15 -14.0 3.9 -14.0 1.85 -13.85 1.25 -13.6 0.9 -13.25 Q0.5 -12.25 0.55 -11.0 0.65 -9.95 -0.35 -9.75 -0.55 -8.35 0.45 -7.6 L1.05 -7.1 1.25 -6.8 Q1.55 -6.05 2.4 -5.9 L5.4 -5.7 7.4 -5.75 Q8.35 -5.75 8.5 -4.75 L8.6 -4.5 8.9 -4.0 M14.65 -10.75 L14.6 -11.0 14.3 -11.45 13.4 -11.5 12.15 -11.45 Q10.7 -11.3 10.85 -12.75 L11.0 -13.2 11.4 -14.75 M8.9 0.25 Q9.95 0.05 10.35 -1.0 L10.35 -1.5 Q10.15 -2.6 10.95 -2.85 L11.9 -2.95 Q13.65 -2.75 13.45 -4.5 13.3 -6.0 13.9 -6.8 L14.4 -7.0 16.65 -6.5 M13.9 -4.5 Q15.1 -3.2 16.85 -2.8 L17.2 -2.55 Q18.1 -1.55 18.55 -0.3 18.65 0.0 18.9 0.15 M13.9 5.0 L13.2 4.65 12.05 3.95 Q11.3 3.5 11.2 2.75 L11.05 2.4 9.35 1.05 Q8.8 0.65 8.1 0.5 7.2 0.3 6.4 0.75 L6.3 0.8 Q7.5 1.1 7.25 2.75 7.0 4.15 8.2 4.9 9.35 5.6 10.6 5.95 L11.0 6.3 11.25 6.95 11.75 7.6 12.85 8.35 Q13.55 8.75 13.8 9.05 L13.9 9.5 13.55 11.05 13.4 11.75 13.4 12.75 13.4 13.0 M-11.35 2.0 Q-11.15 3.25 -9.85 3.4 L-8.15 3.3 Q-7.85 3.25 -7.6 3.0 -7.05 2.35 -6.1 2.45 -5.6 2.5 -5.25 2.7 L-4.75 3.2 -4.4 3.55 Q-4.05 3.85 -3.95 4.3 -2.4 4.5 -1.75 3.3 L-1.45 2.7 -1.35 2.25 Q-1.3 1.2 0.15 1.5 L1.6 1.9 2.0 2.15 2.4 2.3 Q3.45 2.5 3.85 1.75 4.3 0.95 5.4 1.0 L5.95 0.95 6.3 0.8 M2.4 -5.9 Q2.7 -4.75 1.7 -4.4 1.2 -4.2 1.15 -3.75 M1.9 10.0 L0.15 10.05 Q-0.3 10.05 -0.4 10.45 L-0.5 10.75 -0.7 12.0 -0.85 12.2 Q-1.85 12.85 -3.1 13.0 L-4.9 12.9 -5.6 12.75 Q-6.95 12.7 -6.65 14.25 -6.3 16.2 -8.1 16.15 -9.1 16.1 -9.25 17.0 L-9.3 17.75 -9.25 18.5 Q-9.1 19.65 -10.0 19.95 L-10.9 20.4 Q-11.55 20.8 -11.85 21.5 M6.15 16.75 Q6.55 17.55 7.65 17.85 7.8 18.7 8.25 19.2 L8.6 19.55 8.4 19.75 Q10.4 19.85 12.2 20.6 L13.75 19.4 14.4 19.2 Q15.45 19.0 15.6 19.95 L15.75 20.8 15.9 21.5 Q18.3 21.65 18.4 19.75 L18.4 19.5 Q20.0 19.55 21.45 20.4 L22.35 20.85 23.05 21.5 Q23.25 22.25 23.9 22.5 24.3 22.05 24.4 21.0 24.4 20.9 24.65 20.85 26.1 20.7 27.05 21.2 L28.4 21.5 31.65 21.5 31.9 21.5 32.15 21.5 M23.4 14.0 L25.9 14.0 Q27.3 14.05 27.45 15.75 L27.9 15.55 28.4 15.3 Q29.45 14.9 29.55 14.0 L29.7 12.75 Q29.85 11.5 31.45 11.75 31.6 10.8 30.65 10.75 L30.1 10.6 Q29.55 10.35 29.15 10.75 M25.4 13.25 Q25.65 12.3 24.9 11.7 L24.5 11.2 Q24.05 10.35 23.15 10.25 M27.45 15.75 L26.4 15.8 Q25.95 15.8 26.15 16.5 26.35 17.2 25.9 17.25 M38.15 10.25 Q37.5 9.6 36.15 9.5 35.75 9.45 35.75 10.0 L35.65 10.1 Q33.9 11.4 32.9 12.8 32.8 13.0 32.4 13.0 31.85 13.05 31.7 12.55 L31.5 12.15 Q31.4 12.0 31.45 11.75 M28.4 22.0 Q28.3 23.1 28.55 23.8 L28.65 24.25 Q28.55 25.9 30.15 26.5 M38.65 34.5 L38.55 27.05 38.5 33.5 38.65 34.5 38.65 50.0 M15.9 21.5 L16.0 22.0 16.05 22.75 16.35 24.7 16.4 24.75 Q16.45 24.9 16.65 24.9 18.1 25.05 18.9 24.25 L19.15 24.0 Q19.9 23.85 19.7 24.75 L19.65 25.0 M16.4 24.75 Q15.05 24.65 15.4 26.25 15.75 27.85 14.15 27.5 M8.4 19.75 Q7.6 20.25 6.4 20.25 6.85 20.85 6.8 21.75 L6.85 22.5 Q7.1 23.45 6.75 23.85 L6.7 24.0 6.8 24.15 7.35 24.55 7.95 24.85 8.65 24.95 Q9.4 24.85 9.7 25.45 L9.85 25.8 M38.55 27.05 L38.5 -117.5 -40.5 -117.5 -40.5 -58.5 Q-39.5 -58.65 -39.05 -59.25 L-37.05 -59.2 -36.45 -58.85 Q-35.85 -58.5 -35.75 -57.75 L-35.4 -57.25 -34.5 -57.1 Q-33.8 -57.15 -33.25 -57.5 -32.4 -58.05 -33.05 -58.7 -33.8 -59.35 -33.65 -60.25 L-33.55 -60.75 -33.5 -61.0 Q-32.4 -61.05 -32.0 -61.65 L-32.5 -61.55 Q-33.4 -61.25 -33.45 -62.0 L-33.8 -62.35 -34.5 -62.5 -35.25 -62.5 M-25.75 -109.75 Q-24.25 -109.95 -24.15 -111.25 L-23.75 -112.5 -22.2 -112.6 -21.75 -112.5 -19.65 -112.2 -19.5 -112.15 Q-19.4 -112.15 -19.25 -112.3 -19.1 -112.35 -19.1 -112.5 -18.9 -113.3 -17.75 -113.35 -16.5 -113.45 -15.55 -112.95 L-15.3 -112.7 Q-14.8 -111.6 -13.5 -111.75 M-19.5 -112.15 Q-19.3 -111.2 -18.6 -110.8 -18.5 -110.75 -18.55 -110.5 -18.6 -109.75 -18.2 -109.15 -18.0 -108.85 -18.15 -108.55 L-18.5 -108.0 -18.7 -107.7 Q-17.3 -107.4 -16.7 -108.35 L-16.25 -108.45 -14.5 -108.05 Q-14.2 -107.95 -13.95 -107.55 -13.2 -106.45 -11.95 -106.1 -11.4 -105.95 -11.0 -105.5 M-18.7 -107.7 Q-19.05 -107.15 -18.7 -106.55 -17.7 -105.15 -16.05 -104.4 L-15.5 -104.0 M-8.0 -99.0 Q-7.85 -99.75 -8.25 -100.25 L-8.9 -101.05 -8.9 -101.35 Q-7.85 -102.2 -7.2 -103.2 L-7.0 -103.75 Q-6.95 -104.4 -7.2 -104.8 -7.65 -105.6 -8.5 -106.0 M-40.25 -101.25 L-39.75 -101.5 -39.45 -101.8 -38.95 -103.2 -38.4 -103.8 -38.65 -104.1 -38.8 -104.5 Q-39.0 -105.25 -40.0 -105.0 M-25.5 -109.5 L-27.55 -109.5 Q-27.95 -108.5 -29.0 -108.75 L-29.0 -106.75 Q-26.65 -106.85 -25.75 -106.0 M-32.75 -111.0 L-30.25 -111.0 Q-30.3 -109.6 -29.0 -109.5 L-29.0 -108.75 M-32.0 -99.0 Q-30.4 -97.9 -28.5 -97.75 -27.5 -97.65 -27.0 -96.75 M-23.5 -90.5 Q-23.05 -91.1 -22.9 -92.25 -22.8 -93.0 -23.25 -93.5 L-23.75 -94.0 M-33.75 -94.25 L-33.85 -96.75 -33.95 -97.5 Q-34.2 -98.45 -33.7 -98.65 L-33.0 -98.8 Q-32.3 -98.8 -32.3 -99.5 L-32.25 -100.75 M-33.0 -101.25 Q-33.1 -102.95 -34.75 -102.75 L-35.25 -102.7 -36.05 -102.35 -36.5 -102.2 Q-37.15 -102.1 -37.3 -102.5 L-37.95 -103.35 -38.3 -103.7 -38.4 -103.8 M-34.75 -95.0 Q-35.8 -95.2 -35.55 -94.0 L-35.5 -93.75 M-26.0 -84.25 L-25.25 -84.45 -24.8 -84.6 -24.0 -84.95 -23.6 -84.9 Q-22.45 -84.05 -20.7 -84.65 L-20.4 -84.85 -20.1 -85.45 Q-19.75 -86.3 -19.75 -87.25 L-19.65 -87.7 -19.6 -87.75 -20.4 -88.6 -20.7 -89.0 -20.85 -89.35 -21.5 -89.75 -24.45 -89.8 -25.05 -89.6 -25.85 -89.65 -26.7 -90.35 M-7.75 -101.5 Q-6.6 -101.7 -5.7 -101.05 L-4.3 -100.15 -3.7 -99.8 Q-3.3 -99.45 -3.25 -99.0 M-13.0 -93.75 L-11.3 -94.0 Q-11.0 -94.25 -10.75 -94.3 -9.4 -94.4 -8.35 -93.8 L-8.25 -93.5 M-17.0 -88.75 L-16.1 -89.85 Q-16.0 -90.0 -16.05 -90.2 L-16.2 -90.5 Q-16.7 -91.25 -16.5 -92.25 L-16.05 -92.35 -15.2 -92.2 -14.5 -92.3 Q-13.6 -92.7 -13.45 -93.5 -13.25 -94.5 -14.0 -94.8 -14.5 -95.0 -14.05 -95.8 L-13.5 -96.5 M-15.75 -87.5 Q-17.25 -88.5 -19.2 -88.05 -19.5 -88.0 -19.6 -87.75 L-19.5 -87.0 M-0.5 -91.25 L-0.75 -91.2 -1.5 -91.1 -3.5 -91.1 Q-4.55 -91.2 -4.25 -90.0 M-3.25 -76.0 L-3.55 -76.1 -4.0 -76.75 -4.1 -77.0 -4.1 -77.2 M-32.0 -80.25 Q-32.0 -78.85 -31.65 -77.6 L-31.3 -77.4 -30.25 -77.05 Q-29.05 -76.65 -28.95 -75.75 -28.8 -74.8 -29.1 -74.05 L-26.2 -73.6 Q-25.45 -73.3 -25.1 -73.9 L-24.75 -74.15 -23.45 -74.05 -22.65 -75.35 -22.55 -76.0 Q-22.8 -77.8 -21.0 -77.75 L-19.4 -78.05 -19.15 -78.5 -19.05 -78.75 -19.0 -79.0 M-19.25 -77.75 Q-17.55 -77.4 -17.85 -75.5 L-17.75 -75.0 Q-17.35 -74.35 -16.55 -74.1 L-15.75 -73.75 M-12.5 -65.75 L-14.15 -67.9 -14.5 -68.0 -16.2 -67.8 -16.55 -67.5 -16.75 -67.3 -17.25 -67.0 Q-17.9 -68.35 -17.1 -69.55 -16.7 -70.2 -16.75 -71.25 -16.8 -72.3 -18.0 -72.1 -18.8 -72.0 -19.2 -71.2 -19.55 -70.55 -20.5 -70.65 L-21.75 -70.55 Q-21.9 -70.55 -22.05 -70.7 -22.7 -71.25 -22.55 -72.25 L-22.6 -72.95 Q-22.85 -73.75 -23.45 -74.05 M-9.45 -63.75 Q-10.25 -64.35 -11.0 -64.45 L-12.2 -64.7 -12.6 -64.9 -13.0 -65.05 Q-14.75 -65.25 -14.85 -63.5 L-15.05 -63.15 -15.75 -63.0 -18.25 -63.0 -18.5 -63.0 M-11.75 -59.75 L-14.75 -59.65 Q-14.9 -58.25 -15.2 -57.5 -15.5 -56.8 -16.1 -56.4 L-16.75 -56.25 Q-18.1 -56.25 -18.8 -56.95 L-19.25 -57.2 -20.95 -57.3 -21.15 -57.15 -21.25 -57.0 Q-22.0 -55.3 -21.0 -53.75 -21.4 -53.3 -22.5 -53.45 L-23.25 -53.75 M-9.0 -62.5 Q-9.35 -61.25 -8.25 -61.2 -7.2 -61.2 -7.7 -59.8 L-8.0 -59.55 -8.15 -59.5 -5.05 -59.25 -4.9 -59.0 -4.8 -58.75 Q-4.3 -57.95 -4.25 -57.0 M-8.15 -59.5 Q-9.05 -59.15 -8.8 -57.75 -8.7 -57.2 -9.15 -57.0 L-9.45 -56.5 -9.5 -56.25 M-31.5 -72.75 L-30.0 -72.95 -29.55 -73.3 -29.1 -74.05 M-32.0 -61.65 Q-31.35 -61.75 -31.25 -62.0 -30.85 -62.7 -30.6 -63.55 L-30.4 -63.9 -30.2 -64.3 Q-30.0 -65.15 -29.25 -65.15 L-29.0 -65.15 Q-29.35 -66.45 -31.0 -66.8 L-32.05 -67.15 -34.0 -67.45 Q-34.95 -67.3 -35.25 -67.75 -35.65 -68.3 -35.75 -69.0 M-34.5 -57.1 L-35.0 -57.15 -35.4 -57.25 -36.15 -56.85 -36.2 -56.5 Q-35.9 -55.1 -36.95 -54.65 L-38.75 -54.4 -40.5 -54.5 -40.4 15.7 -40.35 23.0 Q-39.35 22.85 -38.9 22.25 L-36.9 22.3 -36.3 22.65 Q-35.7 23.0 -35.6 23.75 L-35.25 24.25 -34.35 24.4 -33.1 24.0 Q-32.25 23.45 -32.9 22.8 -33.65 22.15 -33.5 21.25 L-33.4 20.75 -33.35 20.5 Q-32.25 20.45 -31.85 19.85 L-32.35 19.95 Q-33.25 20.25 -33.3 19.5 -33.35 19.25 -33.65 19.15 L-34.35 19.0 -35.1 19.0 M-40.5 -54.5 L-40.5 -58.5 -40.75 -58.5 M-21.15 -57.15 Q-21.15 -57.8 -21.7 -58.05 L-21.95 -58.25 Q-23.05 -60.45 -25.45 -60.7 L-25.95 -61.25 -26.6 -62.8 -26.8 -63.5 -27.25 -64.25 Q-27.95 -65.1 -29.0 -65.15 M-25.6 -28.25 Q-24.1 -28.45 -24.0 -29.75 L-23.6 -31.0 -22.05 -31.1 -21.6 -31.0 -19.5 -30.7 -19.35 -30.65 Q-19.25 -30.65 -19.1 -30.8 L-18.95 -31.0 Q-18.75 -31.8 -17.6 -31.85 -16.35 -31.95 -15.4 -31.45 L-15.15 -31.2 Q-14.65 -30.1 -13.35 -30.25 M-7.6 -20.0 Q-6.45 -20.2 -5.55 -19.55 L-4.15 -18.65 -3.55 -18.3 Q-3.15 -17.95 -3.1 -17.5 M-7.85 -17.5 Q-7.7 -18.25 -8.1 -18.75 L-8.75 -19.55 -8.75 -19.85 -7.05 -21.7 -6.85 -22.25 Q-6.8 -22.9 -7.05 -23.3 -7.5 -24.1 -8.35 -24.5 M-19.35 -30.65 Q-19.15 -29.7 -18.45 -29.3 -18.35 -29.25 -18.4 -29.0 -18.45 -28.25 -18.05 -27.65 -17.85 -27.35 -18.0 -27.05 L-18.35 -26.5 -18.55 -26.2 Q-17.15 -25.9 -16.55 -26.85 L-16.1 -26.95 -14.35 -26.55 -13.8 -26.05 Q-13.05 -24.95 -11.8 -24.6 -11.25 -24.45 -10.85 -24.0 M-18.55 -26.2 Q-18.9 -25.65 -18.55 -25.05 -17.55 -23.65 -15.9 -22.9 L-15.35 -22.5 M-16.85 -7.25 L-15.95 -8.35 Q-15.85 -8.5 -15.9 -8.7 L-16.05 -9.0 Q-16.55 -9.75 -16.35 -10.75 L-15.9 -10.85 -15.05 -10.7 -14.35 -10.8 Q-13.45 -11.2 -13.3 -12.0 -13.1 -13.0 -13.85 -13.3 -14.35 -13.5 -13.9 -14.3 L-13.35 -15.0 M-12.85 -12.25 L-11.15 -12.5 -10.6 -12.8 Q-9.25 -12.9 -8.2 -12.3 L-8.1 -12.0 M-25.85 -2.75 L-25.1 -2.95 -24.65 -3.1 -23.85 -3.45 -23.45 -3.4 Q-22.3 -2.55 -20.55 -3.15 L-20.25 -3.35 -19.95 -3.95 Q-19.6 -4.8 -19.6 -5.75 L-19.5 -6.2 -19.45 -6.25 -20.25 -7.1 -20.55 -7.5 -20.7 -7.85 Q-20.95 -8.1 -21.35 -8.25 L-24.3 -8.3 -24.9 -8.1 -25.7 -8.15 -26.55 -8.85 M-15.6 -6.0 Q-17.1 -7.0 -19.05 -6.55 -19.35 -6.5 -19.45 -6.25 L-19.35 -5.5 M-0.35 -9.75 L-0.6 -9.7 -1.35 -9.6 -3.35 -9.6 Q-4.4 -9.7 -4.1 -8.5 M-32.6 -29.5 L-30.1 -29.5 Q-30.15 -28.1 -28.85 -28.0 L-28.85 -27.25 Q-27.8 -27.0 -27.4 -28.0 L-25.35 -28.0 M-28.85 -27.25 L-28.85 -25.25 Q-26.5 -25.35 -25.6 -24.5 M-32.85 -19.75 Q-32.95 -21.45 -34.6 -21.25 L-35.1 -21.2 -35.9 -20.85 -36.35 -20.7 Q-37.0 -20.6 -37.15 -21.0 L-37.8 -21.85 -38.15 -22.2 -38.25 -22.3 -38.8 -21.7 -39.3 -20.3 -39.6 -20.0 -40.1 -19.75 M-38.25 -22.3 L-38.5 -22.6 -38.65 -23.0 Q-38.85 -23.75 -39.85 -23.5 M-33.6 -12.75 L-33.7 -15.25 -33.8 -16.0 Q-34.05 -16.95 -33.55 -17.15 L-32.85 -17.3 Q-32.15 -17.3 -32.15 -18.0 L-32.1 -19.25 M-34.6 -13.5 Q-35.65 -13.7 -35.4 -12.5 L-35.35 -12.25 M-23.35 -9.0 Q-22.9 -9.6 -22.75 -10.75 -22.65 -11.5 -23.1 -12.0 L-23.6 -12.5 M-31.85 -17.5 Q-30.25 -16.4 -28.35 -16.25 -27.35 -16.15 -26.85 -15.25 M-31.85 1.25 Q-31.85 2.65 -31.5 3.9 L-31.15 4.1 -30.1 4.45 Q-28.9 4.85 -28.8 5.75 -28.65 6.7 -28.95 7.45 -27.35 7.35 -26.05 7.9 -25.3 8.2 -24.95 7.6 L-24.6 7.35 -23.3 7.45 -22.5 6.15 -22.4 5.5 Q-22.65 3.7 -20.85 3.75 L-19.25 3.45 -19.0 3.0 -18.9 2.75 -18.85 2.5 M-31.85 19.85 Q-31.2 19.75 -31.1 19.5 L-30.45 17.95 -30.25 17.6 -30.05 17.2 Q-29.85 16.35 -29.1 16.35 L-28.85 16.35 Q-29.2 15.05 -30.85 14.7 L-31.9 14.35 Q-32.8 13.85 -33.85 14.05 -34.8 14.2 -35.1 13.75 L-35.6 12.5 M-12.35 15.75 L-14.0 13.6 -14.35 13.5 -16.05 13.7 -16.4 14.0 -16.6 14.2 -17.1 14.5 Q-17.75 13.15 -16.95 11.95 -16.55 11.3 -16.6 10.25 -16.65 9.2 -17.85 9.4 -18.65 9.5 -19.05 10.3 -19.4 10.95 -20.35 10.85 L-21.6 10.95 -21.9 10.8 Q-22.55 10.25 -22.4 9.25 L-22.45 8.55 Q-22.7 7.75 -23.3 7.45 M-28.95 7.45 L-29.4 8.2 -29.85 8.55 -31.35 8.75 M-23.1 27.75 Q-22.85 28.0 -22.35 28.05 -21.25 28.2 -20.85 27.75 -21.85 26.2 -21.1 24.5 L-21.0 24.35 Q-21.0 23.7 -21.55 23.45 L-21.8 23.25 Q-22.9 21.05 -25.3 20.8 L-25.8 20.25 -26.45 18.7 -26.65 18.0 -27.1 17.25 Q-27.8 16.4 -28.85 16.35 M-3.1 5.5 L-3.4 5.4 -3.85 4.75 -3.95 4.5 -3.95 4.3 M-19.1 3.75 Q-17.4 4.1 -17.7 6.0 L-17.6 6.5 Q-17.2 7.15 -16.4 7.4 L-15.6 7.75 M-9.3 17.75 Q-10.1 17.15 -10.85 17.05 L-12.05 16.8 -12.45 16.6 -12.85 16.45 Q-14.6 16.25 -14.7 18.0 L-14.9 18.35 -15.6 18.5 -18.1 18.5 -18.35 18.5 M-8.85 19.0 Q-9.2 20.25 -8.1 20.3 -7.05 20.3 -7.55 21.7 L-7.85 21.95 -8.0 22.0 -4.9 22.25 -4.75 22.5 -4.65 22.75 Q-4.15 23.55 -4.1 24.5 M-9.35 25.25 L-9.3 25.0 -9.0 24.5 Q-8.55 24.3 -8.65 23.75 -8.9 22.35 -8.0 22.0 M-11.6 21.75 L-14.6 21.85 Q-14.75 23.25 -15.05 24.0 -15.35 24.7 -15.95 25.1 L-16.6 25.25 Q-17.95 25.25 -18.65 24.55 L-19.1 24.3 -20.8 24.2 -21.0 24.35 M-35.25 24.25 L-34.85 24.35 -34.35 24.4 M-35.25 24.25 L-36.0 24.65 -36.05 25.0 Q-35.75 26.4 -36.8 26.85 L-38.6 27.1 -40.35 27.0 -40.35 30.75 -40.35 50.0 M-40.4 15.7 L-40.5 23.0 -40.35 23.0 -40.35 27.0 M-40.35 30.75 L-40.5 23.0" fill="none" stroke="#000000" stroke-linecap="round" stroke-linejoin="round" stroke-width="1.0"/>
    <path d="M6.3 -116.5 L6.35 -116.75 6.45 -117.0 6.5 -117.25 M6.55 -57.5 Q5.5 -57.1 5.55 -56.0 5.7 -54.35 4.25 -54.15 L3.5 -54.0 Q2.5 -53.55 1.25 -53.6 L0.8 -53.45 0.4 -52.75 -3.0 -51.85 -4.25 -51.65 Q-4.85 -51.6 -5.1 -50.95 L-5.25 -50.25 -5.25 -50.0 M1.0 -48.75 L2.9 -48.35 3.3 -48.05 4.9 -46.1 5.8 -45.35 6.25 -44.55 6.5 -44.45 Q7.55 -44.35 7.7 -45.2 L7.95 -45.55 Q9.15 -46.55 10.75 -46.3 L11.75 -46.2 Q12.7 -46.15 13.0 -45.5 14.35 -46.1 15.45 -46.8 16.1 -47.2 16.05 -48.25 16.0 -49.0 16.3 -49.6 L16.75 -49.75 18.5 -49.75 M13.0 -42.0 L13.1 -44.5 13.0 -45.5 M17.75 -49.5 Q17.55 -48.55 17.7 -47.55 L18.0 -47.2 18.25 -47.1 19.2 -46.85 19.4 -46.5 19.5 -44.5 M-0.5 -51.5 Q-0.3 -50.45 0.4 -49.65 L0.55 -49.25 Q0.75 -48.3 -0.05 -48.1 L-1.0 -47.75 Q-0.95 -47.45 -0.5 -47.2 L-0.25 -47.0 M6.45 -35.0 L6.5 -35.25 6.6 -35.5 M38.25 -48.0 L34.3 -47.8 Q34.0 -47.85 33.85 -48.3 33.35 -49.45 32.25 -49.65 29.85 -50.15 29.75 -48.0 L29.65 -47.6 29.3 -47.2 Q28.5 -46.45 27.0 -46.75 M29.25 -48.75 Q29.35 -49.3 28.75 -49.5 L27.7 -50.2 27.25 -50.4 Q26.5 -50.4 26.7 -51.25 26.9 -52.1 26.0 -52.1 24.95 -52.15 24.25 -51.5 M30.75 -41.25 Q30.25 -40.55 29.0 -40.7 L28.75 -40.7 28.7 -40.5 Q29.8 -40.8 29.8 -40.0 L29.5 -38.5 M26.5 -41.75 Q25.55 -41.95 25.35 -41.45 L25.3 -41.0 Q25.6 -39.3 24.2 -38.95 25.3 -38.8 25.6 -38.2 L25.8 -37.5 Q25.85 -36.65 25.5 -36.25 M26.0 -39.75 L27.45 -39.8 27.8 -39.55 28.7 -40.5 M24.2 -38.95 L24.0 -38.9 23.5 -38.85 Q22.3 -38.8 21.75 -37.75 M29.4 32.75 Q29.5 32.2 28.9 32.0 L27.85 31.3 27.4 31.1 Q26.65 31.1 26.85 30.25 27.05 29.4 26.15 29.4 25.1 29.35 24.4 30.0 M38.5 33.5 L34.45 33.7 Q34.15 33.65 34.0 33.2 33.5 32.05 32.4 31.85 30.0 31.35 29.9 33.5 L29.8 33.9 29.45 34.3 Q28.65 35.05 27.15 34.75 M25.65 45.25 Q26.0 44.85 25.95 44.0 L25.75 43.3 Q25.45 42.7 24.35 42.55 L24.15 42.6 23.65 42.65 Q22.45 42.7 21.9 43.75 M29.65 43.0 L29.95 41.5 Q29.95 40.7 28.85 41.0 L27.95 41.95 27.6 41.7 26.15 41.75 M28.85 41.0 L28.9 40.8 29.15 40.8 Q30.4 40.95 30.9 40.25 M26.65 39.75 Q25.7 39.55 25.5 40.05 L25.45 40.5 Q25.75 42.2 24.35 42.55 M1.15 32.75 Q2.2 32.7 3.05 33.15 L3.45 33.45 5.05 35.4 5.95 36.15 6.4 36.95 6.65 37.05 Q7.7 37.15 7.85 36.3 L8.1 35.95 Q9.3 34.95 10.9 35.2 L11.9 35.3 Q12.85 35.35 13.15 36.0 L15.6 34.7 Q16.25 34.3 16.2 33.25 16.15 32.5 16.45 31.9 16.55 31.75 16.9 31.75 L18.65 31.75 M6.7 24.0 Q5.65 24.4 5.7 25.5 5.85 27.15 4.4 27.35 L3.65 27.5 1.4 27.9 0.95 28.05 Q0.65 28.25 0.55 28.75 L-2.85 29.65 -4.1 29.85 Q-4.7 29.9 -4.95 30.55 L-5.1 31.25 -5.1 31.5 M-0.35 30.0 Q-0.15 31.05 0.55 31.85 L0.7 32.25 Q0.9 33.2 0.1 33.4 -0.4 33.5 -0.85 33.75 L-0.35 34.3 -0.1 34.5 M17.9 32.0 Q17.7 32.95 17.85 33.95 L18.15 34.3 18.4 34.4 19.35 34.65 19.55 35.0 19.65 37.0 M13.15 39.5 L13.25 37.0 13.15 36.0 M-33.25 -48.25 L-32.5 -48.3 -31.75 -48.35 Q-30.75 -48.25 -30.95 -49.25 L-30.9 -49.65 -28.5 -50.0 -28.7 -52.5 Q-28.8 -53.1 -29.5 -53.1 L-30.25 -53.15 -31.5 -53.25 M-34.25 -38.75 Q-34.55 -38.6 -34.2 -39.0 L-33.95 -39.55 -33.75 -41.5 -33.65 -41.95 Q-33.5 -42.25 -33.2 -42.35 L-32.25 -42.55 -30.25 -42.25 -29.85 -41.9 Q-29.35 -41.25 -28.75 -41.2 L-28.05 -41.15 -26.0 -41.4 Q-25.6 -41.5 -25.55 -41.65 -25.25 -42.4 -25.35 -43.25 -25.45 -44.2 -25.0 -44.5 L-24.75 -44.6 Q-23.6 -44.5 -23.5 -45.4 -23.8 -46.2 -24.4 -46.85 L-25.0 -47.25 -27.25 -47.55 Q-27.9 -47.45 -28.1 -48.2 L-28.4 -49.05 -28.5 -49.75 -28.5 -50.0 M-17.75 -46.75 L-19.5 -46.7 Q-19.95 -46.65 -20.15 -45.95 L-20.4 -45.05 -20.75 -44.85 -23.2 -44.95 -23.45 -45.25 -23.5 -45.4 M-16.25 -35.5 L-17.5 -36.0 Q-17.75 -36.1 -18.05 -36.5 -19.1 -36.75 -19.05 -38.0 L-18.9 -39.5 -18.85 -39.75 Q-18.85 -40.5 -19.3 -40.95 L-19.95 -41.55 Q-20.9 -42.45 -22.5 -42.3 L-22.85 -42.15 -23.25 -41.35 -26.0 -41.4 M-28.05 -41.15 L-29.35 -38.55 -29.8 -38.05 -30.1 -37.7 -30.15 -37.0 -30.1 -36.75 Q-29.7 -35.35 -31.0 -35.3 L-32.75 -35.15 -33.1 -35.0 -33.35 -34.5 -33.45 -34.2 Q-33.75 -33.4 -33.0 -33.35 M-7.5 -46.0 Q-7.75 -46.35 -8.25 -46.35 -9.7 -46.25 -9.5 -44.75 -9.45 -44.05 -9.7 -43.5 L-9.8 -43.0 Q-7.75 -43.2 -6.85 -41.9 L-6.8 -41.5 Q-7.1 -39.6 -5.75 -38.25 L-5.25 -37.8 -3.25 -36.7 -2.75 -36.5 M-9.8 -43.0 L-9.85 -42.75 Q-9.8 -41.8 -10.45 -41.55 L-10.75 -41.75 -11.2 -42.25 -11.8 -42.95 Q-13.2 -44.35 -15.25 -44.05 L-15.5 -43.95 -15.75 -42.25 -15.85 -41.8 Q-16.75 -40.2 -18.85 -39.75 M-6.75 -37.75 L-8.2 -37.2 -8.5 -37.0 M-5.0 -37.25 Q-5.35 -36.45 -5.25 -35.5 L-5.25 -35.0 M-17.6 34.75 L-19.35 34.8 Q-19.8 34.85 -20.0 35.55 L-20.25 36.45 Q-20.35 36.65 -20.6 36.65 L-23.05 36.55 -23.3 36.25 -23.35 36.1 Q-23.45 37.0 -24.6 36.9 L-24.85 37.0 Q-25.3 37.3 -25.2 38.25 -25.1 39.1 -25.4 39.85 L-25.85 40.1 -23.1 40.15 -22.7 39.35 -22.35 39.2 Q-20.75 39.05 -19.8 39.95 L-19.15 40.55 Q-18.7 41.0 -18.7 41.75 -16.6 41.3 -15.7 39.7 L-15.6 39.25 -15.35 37.55 -15.1 37.45 Q-13.05 37.15 -11.65 38.55 L-11.05 39.25 -10.6 39.75 -10.3 39.95 Q-9.65 39.7 -9.7 38.75 L-9.65 38.5 -9.55 38.0 Q-9.3 37.45 -9.35 36.75 -9.55 35.25 -8.1 35.15 -7.6 35.15 -7.35 35.5 M-16.1 46.0 L-17.35 45.5 -17.9 45.0 Q-18.95 44.75 -18.9 43.5 L-18.75 42.0 -18.7 41.75 M-6.6 43.75 L-8.05 44.3 -8.35 44.5 M-9.65 38.5 Q-7.6 38.3 -6.7 39.6 -6.6 39.75 -6.65 40.0 -6.95 41.9 -5.6 43.25 L-5.1 43.7 Q-4.25 44.4 -3.1 44.8 L-2.6 45.0 M-23.35 36.1 Q-23.65 35.3 -24.25 34.65 -24.45 34.4 -24.85 34.25 L-27.1 33.95 Q-27.75 34.05 -27.95 33.3 L-28.25 32.45 -28.35 31.75 -28.35 31.5 -30.75 31.85 -30.8 32.25 Q-30.6 33.25 -31.6 33.15 L-32.35 33.2 -33.1 33.25 M-28.35 31.5 L-28.55 29.0 Q-28.65 28.4 -29.35 28.4 L-30.1 28.35 -31.35 28.25 M-34.1 42.75 Q-34.4 42.9 -34.05 42.5 L-33.8 41.95 -33.6 40.0 -33.5 39.55 -33.05 39.15 -32.1 38.95 -30.1 39.25 -29.7 39.6 -28.6 40.3 -27.9 40.35 -25.85 40.1 M-32.85 48.15 Q-33.6 48.1 -33.3 47.3 L-33.2 47.0 -32.95 46.5 -32.6 46.35 -30.85 46.2 Q-29.55 46.15 -29.95 44.75 L-30.0 44.5 -29.95 43.8 -29.65 43.45 -29.2 42.95 -27.9 40.35 M-4.85 44.25 Q-5.2 45.05 -5.1 46.0 L-5.1 46.5 M38.5 51.0 L-40.5 51.0" fill="none" stroke="#000000" stroke-linecap="round" stroke-linejoin="round" stroke-width="1.0"/>
  </g>
</svg>
