<?xml version="1.0" encoding="UTF-8" standalone="no"?>
<svg xmlns:xlink="http://www.w3.org/1999/xlink" height="26.0px" width="27.2px" xmlns="http://www.w3.org/2000/svg">
  <g transform="matrix(1.0, 0.0, 0.0, 1.0, 13.8, 13.25)">
    <path d="M11.8 -5.55 L11.3 -6.95 Q11.0 -4.65 10.75 -4.65 L10.0 -3.75 Q9.7 -3.45 9.7 -3.0 9.7 -2.6 10.0 -2.35 10.3 -2.05 10.75 -2.05 11.15 -2.05 11.5 -2.35 12.1 -2.85 12.1 -4.15 L11.8 -5.55" fill="url(#gradient0)" fill-rule="evenodd" stroke="none"/>
    <path d="M11.8 -5.55 L11.3 -6.95 Q11.0 -4.65 10.75 -4.65 L10.0 -3.75 Q9.7 -3.45 9.7 -3.0 9.7 -2.6 10.0 -2.35 10.3 -2.05 10.75 -2.05 11.15 -2.05 11.5 -2.35 12.1 -2.85 12.1 -4.15 L11.8 -5.55 Z" fill="none" stroke="#000000" stroke-linecap="round" stroke-linejoin="round" stroke-width="0.5"/>
    <path d="M7.45 -10.55 L6.3 -11.5 Q7.2 -9.35 6.95 -9.2 L6.85 -8.05 Q6.7 -7.65 6.9 -7.25 7.1 -6.9 7.55 -6.85 L8.3 -6.9 8.8 -7.6 Q9.05 -8.35 8.45 -9.45 L7.45 -10.55" fill="url(#gradient1)" fill-rule="evenodd" stroke="none"/>
    <path d="M7.45 -10.55 L6.3 -11.5 Q7.2 -9.35 6.95 -9.2 L6.85 -8.05 Q6.7 -7.65 6.9 -7.25 7.1 -6.9 7.55 -6.85 L8.3 -6.9 8.8 -7.6 Q9.05 -8.35 8.45 -9.45 L7.45 -10.55 Z" fill="none" stroke="#000000" stroke-linecap="round" stroke-linejoin="round" stroke-width="0.5"/>
    <path d="M0.95 -12.75 L-0.5 -13.0 Q1.35 -11.6 1.2 -11.35 L1.65 -10.25 Q1.75 -9.8 2.15 -9.6 L2.85 -9.55 3.5 -10.0 Q3.75 -10.4 3.6 -10.8 3.45 -11.65 2.35 -12.25 L0.95 -12.75" fill="url(#gradient2)" fill-rule="evenodd" stroke="none"/>
    <path d="M0.95 -12.75 L-0.5 -13.0 Q1.35 -11.6 1.2 -11.35 L1.65 -10.25 Q1.75 -9.8 2.15 -9.6 L2.85 -9.55 3.5 -10.0 Q3.75 -10.4 3.6 -10.8 3.45 -11.65 2.35 -12.25 L0.95 -12.75 Z" fill="none" stroke="#000000" stroke-linecap="round" stroke-linejoin="round" stroke-width="0.5"/>
    <path d="M-5.5 -11.75 L-6.9 -11.25 Q-4.6 -10.95 -4.6 -10.7 L-3.7 -9.95 Q-3.4 -9.65 -2.95 -9.65 -2.55 -9.65 -2.3 -9.95 -2.0 -10.25 -2.0 -10.7 L-2.3 -11.45 Q-2.8 -12.05 -4.1 -12.05 L-5.5 -11.75" fill="url(#gradient3)" fill-rule="evenodd" stroke="none"/>
    <path d="M-5.5 -11.75 L-6.9 -11.25 Q-4.6 -10.95 -4.6 -10.7 L-3.7 -9.95 Q-3.4 -9.65 -2.95 -9.65 -2.55 -9.65 -2.3 -9.95 -2.0 -10.25 -2.0 -10.7 L-2.3 -11.45 Q-2.8 -12.05 -4.1 -12.05 L-5.5 -11.75 Z" fill="none" stroke="#000000" stroke-linecap="round" stroke-linejoin="round" stroke-width="0.5"/>
    <path d="M-11.15 -7.85 L-12.1 -6.75 Q-9.95 -7.6 -9.8 -7.35 L-8.65 -7.25 -7.85 -7.3 Q-7.5 -7.5 -7.45 -7.95 -7.3 -8.35 -7.5 -8.7 -7.75 -9.1 -8.2 -9.2 -8.95 -9.45 -10.05 -8.85 L-11.15 -7.85" fill="url(#gradient4)" fill-rule="evenodd" stroke="none"/>
    <path d="M-11.15 -7.85 L-12.1 -6.75 Q-9.95 -7.6 -9.8 -7.35 L-8.65 -7.25 -7.85 -7.3 Q-7.5 -7.5 -7.45 -7.95 -7.3 -8.35 -7.5 -8.7 -7.75 -9.1 -8.2 -9.2 -8.95 -9.45 -10.05 -8.85 L-11.15 -7.85 Z" fill="none" stroke="#000000" stroke-linecap="round" stroke-linejoin="round" stroke-width="0.5"/>
    <path d="M-13.3 -2.1 L-13.55 -0.65 Q-12.15 -2.5 -11.9 -2.35 L-10.8 -2.8 Q-10.35 -2.9 -10.15 -3.3 -9.95 -3.65 -10.1 -4.0 L-10.55 -4.65 -11.35 -4.75 Q-12.2 -4.6 -12.8 -3.5 L-13.3 -2.1" fill="url(#gradient5)" fill-rule="evenodd" stroke="none"/>
    <path d="M-13.3 -2.1 L-13.55 -0.65 Q-12.15 -2.5 -11.9 -2.35 L-10.8 -2.8 Q-10.35 -2.9 -10.15 -3.3 -9.95 -3.65 -10.1 -4.0 L-10.55 -4.65 -11.35 -4.75 Q-12.2 -4.6 -12.8 -3.5 L-13.3 -2.1 Z" fill="none" stroke="#000000" stroke-linecap="round" stroke-linejoin="round" stroke-width="0.5"/>
    <path d="M-12.7 5.15 L-12.2 6.55 Q-11.9 4.25 -11.65 4.25 L-10.9 3.35 Q-10.6 3.05 -10.6 2.6 -10.6 2.2 -10.9 1.95 -11.2 1.65 -11.65 1.65 -12.05 1.65 -12.4 1.95 -13.0 2.45 -13.0 3.75 L-12.7 5.15" fill="url(#gradient6)" fill-rule="evenodd" stroke="none"/>
    <path d="M-12.7 5.15 L-12.2 6.55 Q-11.9 4.25 -11.65 4.25 L-10.9 3.35 Q-10.6 3.05 -10.6 2.6 -10.6 2.2 -10.9 1.95 -11.2 1.65 -11.65 1.65 -12.05 1.65 -12.4 1.95 -13.0 2.45 -13.0 3.75 L-12.7 5.15 Z" fill="none" stroke="#000000" stroke-linecap="round" stroke-linejoin="round" stroke-width="0.5"/>
    <path d="M-8.3 9.9 L-7.2 10.85 Q-8.05 8.7 -7.8 8.55 L-7.7 7.4 Q-7.55 7.0 -7.75 6.6 -7.95 6.25 -8.4 6.2 L-9.15 6.25 -9.65 6.95 Q-9.9 7.7 -9.3 8.8 L-8.3 9.9" fill="url(#gradient7)" fill-rule="evenodd" stroke="none"/>
    <path d="M-8.3 9.9 L-7.2 10.85 Q-8.05 8.7 -7.8 8.55 L-7.7 7.4 Q-7.55 7.0 -7.75 6.6 -7.95 6.25 -8.4 6.2 L-9.15 6.25 -9.65 6.95 Q-9.9 7.7 -9.3 8.8 L-8.3 9.9 Z" fill="none" stroke="#000000" stroke-linecap="round" stroke-linejoin="round" stroke-width="0.5"/>
    <path d="M-1.85 12.3 L-0.4 12.5 Q-2.25 11.15 -2.1 10.9 L-2.55 9.8 Q-2.65 9.35 -3.05 9.15 L-3.75 9.1 -4.4 9.55 Q-4.65 9.95 -4.5 10.35 -4.35 11.2 -3.25 11.8 L-1.85 12.3" fill="url(#gradient8)" fill-rule="evenodd" stroke="none"/>
    <path d="M-1.85 12.3 L-0.4 12.5 Q-2.25 11.15 -2.1 10.9 L-2.55 9.8 Q-2.65 9.35 -3.05 9.15 L-3.75 9.1 -4.4 9.55 Q-4.65 9.95 -4.5 10.35 -4.35 11.2 -3.25 11.8 L-1.85 12.3 Z" fill="none" stroke="#000000" stroke-linecap="round" stroke-linejoin="round" stroke-width="0.5"/>
    <path d="M5.35 11.45 L6.75 10.95 4.45 10.4 3.55 9.65 Q3.25 9.35 2.8 9.35 2.4 9.35 2.15 9.65 1.85 9.95 1.85 10.4 1.85 10.8 2.15 11.15 2.65 11.75 3.95 11.75 L5.35 11.45" fill="url(#gradient9)" fill-rule="evenodd" stroke="none"/>
    <path d="M5.35 11.45 L6.75 10.95 4.45 10.4 3.55 9.65 Q3.25 9.35 2.8 9.35 2.4 9.35 2.15 9.65 1.85 9.95 1.85 10.4 1.85 10.8 2.15 11.15 2.65 11.75 3.95 11.75 L5.35 11.45 Z" fill="none" stroke="#000000" stroke-linecap="round" stroke-linejoin="round" stroke-width="0.5"/>
    <path d="M11.0 7.15 L11.95 6.0 Q9.8 6.9 9.65 6.65 L8.5 6.55 7.7 6.6 Q7.35 6.8 7.3 7.25 7.15 7.65 7.35 8.0 7.6 8.4 8.05 8.5 8.8 8.75 9.9 8.15 L11.0 7.15" fill="url(#gradient10)" fill-rule="evenodd" stroke="none"/>
    <path d="M11.0 7.15 L11.95 6.0 Q9.8 6.9 9.65 6.65 L8.5 6.55 7.7 6.6 Q7.35 6.8 7.3 7.25 7.15 7.65 7.35 8.0 7.6 8.4 8.05 8.5 8.8 8.75 9.9 8.15 L11.0 7.15 Z" fill="none" stroke="#000000" stroke-linecap="round" stroke-linejoin="round" stroke-width="0.5"/>
    <path d="M12.95 1.2 L13.15 -0.25 Q11.8 1.6 11.55 1.45 L10.45 1.9 Q10.0 2.0 9.8 2.4 9.6 2.75 9.75 3.1 L10.2 3.75 11.0 3.85 Q11.85 3.7 12.45 2.6 L12.95 1.2" fill="url(#gradient11)" fill-rule="evenodd" stroke="none"/>
    <path d="M12.95 1.2 L13.15 -0.25 Q11.8 1.6 11.55 1.45 L10.45 1.9 Q10.0 2.0 9.8 2.4 9.6 2.75 9.75 3.1 L10.2 3.75 11.0 3.85 Q11.85 3.7 12.45 2.6 L12.95 1.2 Z" fill="none" stroke="#000000" stroke-linecap="round" stroke-linejoin="round" stroke-width="0.5"/>
  </g>
  <defs>
    <radialGradient cx="0" cy="0" gradientTransform="matrix(-0.0017, 0.0, 0.0, 0.0017, 10.75, -3.0)" gradientUnits="userSpaceOnUse" id="gradient0" r="819.2" spreadMethod="pad">
      <stop offset="0.0" stop-color="#bebe4b"/>
      <stop offset="1.0" stop-color="#ffffff"/>
    </radialGradient>
    <radialGradient cx="0" cy="0" gradientTransform="matrix(-0.0015, 8.0E-4, 8.0E-4, 0.0015, 7.8, -7.75)" gradientUnits="userSpaceOnUse" id="gradient1" r="819.2" spreadMethod="pad">
      <stop offset="0.0" stop-color="#bebe4b"/>
      <stop offset="1.0" stop-color="#ffffff"/>
    </radialGradient>
    <radialGradient cx="0" cy="0" gradientTransform="matrix(-8.0E-4, 0.0015, 0.0015, 8.0E-4, 2.65, -10.5)" gradientUnits="userSpaceOnUse" id="gradient2" r="819.2" spreadMethod="pad">
      <stop offset="0.0" stop-color="#bebe4b"/>
      <stop offset="1.0" stop-color="#ffffff"/>
    </radialGradient>
    <radialGradient cx="0" cy="0" gradientTransform="matrix(0.0, 0.0017, 0.0017, 0.0, -2.95, -10.7)" gradientUnits="userSpaceOnUse" id="gradient3" r="819.2" spreadMethod="pad">
      <stop offset="0.0" stop-color="#bebe4b"/>
      <stop offset="1.0" stop-color="#ffffff"/>
    </radialGradient>
    <radialGradient cx="0" cy="0" gradientTransform="matrix(8.0E-4, 0.0015, 0.0015, -8.0E-4, -8.35, -8.2)" gradientUnits="userSpaceOnUse" id="gradient4" r="819.2" spreadMethod="pad">
      <stop offset="0.0" stop-color="#bebe4b"/>
      <stop offset="1.0" stop-color="#ffffff"/>
    </radialGradient>
    <radialGradient cx="0" cy="0" gradientTransform="matrix(0.0015, 8.0E-4, 8.0E-4, -0.0015, -11.05, -3.8)" gradientUnits="userSpaceOnUse" id="gradient5" r="819.2" spreadMethod="pad">
      <stop offset="0.0" stop-color="#bebe4b"/>
      <stop offset="1.0" stop-color="#ffffff"/>
    </radialGradient>
    <radialGradient cx="0" cy="0" gradientTransform="matrix(0.0017, 0.0, 0.0, -0.0017, -11.65, 2.6)" gradientUnits="userSpaceOnUse" id="gradient6" r="819.2" spreadMethod="pad">
      <stop offset="0.0" stop-color="#bebe4b"/>
      <stop offset="1.0" stop-color="#ffffff"/>
    </radialGradient>
    <radialGradient cx="0" cy="0" gradientTransform="matrix(0.0015, -8.0E-4, -8.0E-4, -0.0015, -8.65, 7.1)" gradientUnits="userSpaceOnUse" id="gradient7" r="819.2" spreadMethod="pad">
      <stop offset="0.0" stop-color="#bebe4b"/>
      <stop offset="1.0" stop-color="#ffffff"/>
    </radialGradient>
    <radialGradient cx="0" cy="0" gradientTransform="matrix(8.0E-4, -0.0015, -0.0015, -8.0E-4, -3.55, 10.05)" gradientUnits="userSpaceOnUse" id="gradient8" r="819.2" spreadMethod="pad">
      <stop offset="0.0" stop-color="#bebe4b"/>
      <stop offset="1.0" stop-color="#ffffff"/>
    </radialGradient>
    <radialGradient cx="0" cy="0" gradientTransform="matrix(0.0, -0.0017, -0.0017, 0.0, 2.8, 10.4)" gradientUnits="userSpaceOnUse" id="gradient9" r="819.2" spreadMethod="pad">
      <stop offset="0.0" stop-color="#bebe4b"/>
      <stop offset="1.0" stop-color="#ffffff"/>
    </radialGradient>
    <radialGradient cx="0" cy="0" gradientTransform="matrix(-8.0E-4, -0.0015, -0.0015, 8.0E-4, 8.2, 7.5)" gradientUnits="userSpaceOnUse" id="gradient10" r="819.2" spreadMethod="pad">
      <stop offset="0.0" stop-color="#bebe4b"/>
      <stop offset="1.0" stop-color="#ffffff"/>
    </radialGradient>
    <radialGradient cx="0" cy="0" gradientTransform="matrix(-0.0015, -8.0E-4, -8.0E-4, 0.0015, 10.7, 2.9)" gradientUnits="userSpaceOnUse" id="gradient11" r="819.2" spreadMethod="pad">
      <stop offset="0.0" stop-color="#bebe4b"/>
      <stop offset="1.0" stop-color="#ffffff"/>
    </radialGradient>
  </defs>
</svg>
