<?xml version="1.0" encoding="UTF-8" standalone="no"?>
<svg xmlns:xlink="http://www.w3.org/1999/xlink" height="43.85px" width="45.6px" xmlns="http://www.w3.org/2000/svg">
  <g transform="matrix(1.0, 0.0, 0.0, 1.0, 23.0, 22.15)">
    <path d="M-13.05 -18.0 L-11.15 -19.6 Q-12.65 -16.05 -12.25 -15.85 L-12.05 -13.95 Q-11.8 -13.2 -12.15 -12.6 -12.5 -12.0 -13.2 -11.9 L-14.45 -12.05 Q-15.05 -12.4 -15.3 -13.1 -15.75 -14.4 -14.7 -16.25 L-13.05 -18.0" fill="url(#gradient0)" fill-rule="evenodd" stroke="none"/>
    <path d="M-13.05 -18.0 L-11.15 -19.6 Q-12.65 -16.05 -12.25 -15.85 L-12.05 -13.95 Q-11.8 -13.2 -12.15 -12.6 -12.5 -12.0 -13.2 -11.9 L-14.45 -12.05 Q-15.05 -12.4 -15.3 -13.1 -15.75 -14.4 -14.7 -16.25 L-13.05 -18.0 Z" fill="none" stroke="#000000" stroke-linecap="round" stroke-linejoin="round" stroke-width="0.5"/>
    <path d="M-2.6 -21.5 L-0.2 -21.9 Q-3.25 -19.6 -3.05 -19.2 L-3.75 -17.45 Q-3.9 -16.7 -4.5 -16.35 L-5.8 -16.25 Q-6.5 -16.4 -6.85 -17.0 -7.2 -17.6 -7.0 -18.35 -6.8 -19.7 -4.95 -20.75 L-2.6 -21.5" fill="url(#gradient1)" fill-rule="evenodd" stroke="none"/>
    <path d="M-2.6 -21.5 L-0.2 -21.9 Q-3.25 -19.6 -3.05 -19.2 L-3.75 -17.45 Q-3.9 -16.7 -4.5 -16.35 L-5.8 -16.25 Q-6.5 -16.4 -6.85 -17.0 -7.2 -17.6 -7.0 -18.35 -6.8 -19.7 -4.95 -20.75 L-2.6 -21.5 Z" fill="none" stroke="#000000" stroke-linecap="round" stroke-linejoin="round" stroke-width="0.5"/>
    <path d="M8.5 -19.35 L10.8 -18.5 Q7.0 -18.05 7.0 -17.6 L5.45 -16.4 Q4.95 -15.85 4.25 -15.85 3.55 -15.85 3.1 -16.4 2.6 -16.9 2.6 -17.6 2.6 -18.3 3.1 -18.85 4.0 -19.9 6.1 -19.9 L8.5 -19.35" fill="url(#gradient2)" fill-rule="evenodd" stroke="none"/>
    <path d="M8.5 -19.35 L10.8 -18.5 Q7.0 -18.05 7.0 -17.6 L5.45 -16.4 Q4.95 -15.85 4.25 -15.85 3.55 -15.85 3.1 -16.4 2.6 -16.9 2.6 -17.6 2.6 -18.3 3.1 -18.85 4.0 -19.9 6.1 -19.9 L8.5 -19.35 Z" fill="none" stroke="#000000" stroke-linecap="round" stroke-linejoin="round" stroke-width="0.5"/>
    <path d="M17.1 -12.5 L18.7 -10.6 Q15.15 -12.1 14.95 -11.7 L13.05 -11.45 11.7 -11.55 Q11.1 -11.9 11.0 -12.65 10.8 -13.25 11.15 -13.85 11.5 -14.5 12.2 -14.75 13.5 -15.2 15.35 -14.15 L17.1 -12.5" fill="url(#gradient3)" fill-rule="evenodd" stroke="none"/>
    <path d="M17.1 -12.5 L18.7 -10.6 Q15.15 -12.1 14.95 -11.7 L13.05 -11.45 11.7 -11.55 Q11.1 -11.9 11.0 -12.65 10.8 -13.25 11.15 -13.85 11.5 -14.5 12.2 -14.75 13.5 -15.2 15.35 -14.15 L17.1 -12.5 Z" fill="none" stroke="#000000" stroke-linecap="round" stroke-linejoin="round" stroke-width="0.5"/>
    <path d="M21.95 -2.25 L22.35 0.15 Q20.05 -2.9 19.65 -2.7 L17.85 -3.4 Q17.1 -3.55 16.75 -4.15 16.4 -4.75 16.7 -5.45 16.85 -6.15 17.45 -6.5 L18.8 -6.65 Q20.15 -6.45 21.2 -4.6 L21.95 -2.25" fill="url(#gradient4)" fill-rule="evenodd" stroke="none"/>
    <path d="M21.95 -2.25 L22.35 0.15 Q20.05 -2.9 19.65 -2.7 L17.85 -3.4 Q17.1 -3.55 16.75 -4.15 16.4 -4.75 16.7 -5.45 16.85 -6.15 17.45 -6.5 L18.8 -6.65 Q20.15 -6.45 21.2 -4.6 L21.95 -2.25 Z" fill="none" stroke="#000000" stroke-linecap="round" stroke-linejoin="round" stroke-width="0.5"/>
    <path d="M20.35 7.9 L19.5 10.2 Q19.05 6.4 18.6 6.4 L17.4 4.85 Q16.85 4.35 16.85 3.65 16.85 2.95 17.4 2.5 17.9 2.0 18.6 2.0 19.3 2.0 19.85 2.5 20.9 3.4 20.9 5.5 L20.35 7.9" fill="url(#gradient5)" fill-rule="evenodd" stroke="none"/>
    <path d="M20.35 7.9 L19.5 10.2 Q19.05 6.4 18.6 6.4 L17.4 4.85 Q16.85 4.35 16.85 3.65 16.85 2.95 17.4 2.5 17.9 2.0 18.6 2.0 19.3 2.0 19.85 2.5 20.9 3.4 20.9 5.5 L20.35 7.9 Z" fill="none" stroke="#000000" stroke-linecap="round" stroke-linejoin="round" stroke-width="0.5"/>
    <path d="M13.45 17.9 L11.55 19.45 Q13.05 15.95 12.65 15.7 L12.4 13.8 Q12.15 13.1 12.5 12.5 12.85 11.9 13.6 11.75 L14.85 11.9 Q15.45 12.25 15.7 13.0 16.15 14.25 15.1 16.1 L13.45 17.9" fill="url(#gradient6)" fill-rule="evenodd" stroke="none"/>
    <path d="M13.45 17.9 L11.55 19.45 Q13.05 15.95 12.65 15.7 L12.4 13.8 Q12.15 13.1 12.5 12.5 12.85 11.9 13.6 11.75 L14.85 11.9 Q15.45 12.25 15.7 13.0 16.15 14.25 15.1 16.1 L13.45 17.9 Z" fill="none" stroke="#000000" stroke-linecap="round" stroke-linejoin="round" stroke-width="0.5"/>
    <path d="M3.1 21.05 L0.65 21.45 Q3.75 19.15 3.5 18.75 L4.2 16.95 Q4.4 16.2 5.0 15.85 L6.25 15.8 Q6.95 15.95 7.3 16.55 7.65 17.15 7.5 17.9 7.25 19.25 5.4 20.3 L3.1 21.05" fill="url(#gradient7)" fill-rule="evenodd" stroke="none"/>
    <path d="M3.1 21.05 L0.65 21.45 Q3.75 19.15 3.5 18.75 L4.2 16.95 Q4.4 16.2 5.0 15.85 L6.25 15.8 Q6.95 15.95 7.3 16.55 7.65 17.15 7.5 17.9 7.25 19.25 5.4 20.3 L3.1 21.05 Z" fill="none" stroke="#000000" stroke-linecap="round" stroke-linejoin="round" stroke-width="0.5"/>
    <path d="M-8.2 19.2 L-10.5 18.35 Q-6.7 17.9 -6.7 17.45 L-5.15 16.25 Q-4.65 15.7 -3.95 15.7 -3.25 15.7 -2.8 16.25 -2.3 16.75 -2.3 17.45 -2.3 18.15 -2.8 18.7 -3.7 19.75 -5.8 19.75 L-8.2 19.2" fill="url(#gradient8)" fill-rule="evenodd" stroke="none"/>
    <path d="M-8.2 19.2 L-10.5 18.35 Q-6.7 17.9 -6.7 17.45 L-5.15 16.25 Q-4.65 15.7 -3.95 15.7 -3.25 15.7 -2.8 16.25 -2.3 16.75 -2.3 17.45 -2.3 18.15 -2.8 18.7 -3.7 19.75 -5.8 19.75 L-8.2 19.2 Z" fill="none" stroke="#000000" stroke-linecap="round" stroke-linejoin="round" stroke-width="0.5"/>
    <path d="M-17.85 11.85 L-19.4 9.95 Q-15.9 11.45 -15.65 11.05 L-13.75 10.85 -12.45 10.95 Q-11.85 11.3 -11.7 12.0 -11.5 12.7 -11.85 13.3 -12.2 13.9 -12.95 14.1 -14.2 14.55 -16.05 13.5 L-17.85 11.85" fill="url(#gradient9)" fill-rule="evenodd" stroke="none"/>
    <path d="M-17.85 11.85 L-19.4 9.95 Q-15.9 11.45 -15.65 11.05 L-13.75 10.85 -12.45 10.95 Q-11.85 11.3 -11.7 12.0 -11.5 12.7 -11.85 13.3 -12.2 13.9 -12.95 14.1 -14.2 14.55 -16.05 13.5 L-17.85 11.85 Z" fill="none" stroke="#000000" stroke-linecap="round" stroke-linejoin="round" stroke-width="0.5"/>
    <path d="M-22.35 1.1 Q-22.85 -1.0 -22.75 -1.35 -20.45 1.75 -20.05 1.5 -18.75 2.15 -18.3 2.2 -17.55 2.4 -17.2 3.0 -16.85 3.6 -17.1 4.25 -17.25 4.95 -17.85 5.3 L-19.2 5.5 Q-20.55 5.25 -21.6 3.4 L-22.35 1.1" fill="url(#gradient10)" fill-rule="evenodd" stroke="none"/>
    <path d="M-22.35 1.1 Q-22.85 -1.0 -22.75 -1.35 -20.45 1.75 -20.05 1.5 -18.75 2.15 -18.3 2.2 -17.55 2.4 -17.2 3.0 -16.85 3.6 -17.1 4.25 -17.25 4.95 -17.85 5.3 L-19.2 5.5 Q-20.55 5.25 -21.6 3.4 L-22.35 1.1 Z" fill="none" stroke="#000000" stroke-linecap="round" stroke-linejoin="round" stroke-width="0.5"/>
    <path d="M-20.25 -9.15 L-19.4 -11.45 Q-18.95 -7.65 -18.5 -7.65 L-17.3 -6.1 Q-16.75 -5.6 -16.75 -4.9 -16.75 -4.2 -17.3 -3.75 -17.8 -3.25 -18.5 -3.25 -19.2 -3.25 -19.75 -3.75 -20.8 -4.65 -20.8 -6.75 L-20.25 -9.15" fill="url(#gradient11)" fill-rule="evenodd" stroke="none"/>
    <path d="M-20.25 -9.15 L-19.4 -11.45 Q-18.95 -7.65 -18.5 -7.65 L-17.3 -6.1 Q-16.75 -5.6 -16.75 -4.9 -16.75 -4.2 -17.3 -3.75 -17.8 -3.25 -18.5 -3.25 -19.2 -3.25 -19.75 -3.75 -20.8 -4.65 -20.8 -6.75 L-20.25 -9.15 Z" fill="none" stroke="#000000" stroke-linecap="round" stroke-linejoin="round" stroke-width="0.5"/>
  </g>
  <defs>
    <radialGradient cx="0" cy="0" gradientTransform="matrix(0.0024, 0.0014, -0.0014, 0.0024, -13.65, -13.5)" gradientUnits="userSpaceOnUse" id="gradient0" r="819.2" spreadMethod="pad">
      <stop offset="0.0" stop-color="#bebe4b"/>
      <stop offset="1.0" stop-color="#ffffff"/>
    </radialGradient>
    <radialGradient cx="0" cy="0" gradientTransform="matrix(0.0014, 0.0024, -0.0024, 0.0014, -5.4, -17.85)" gradientUnits="userSpaceOnUse" id="gradient1" r="819.2" spreadMethod="pad">
      <stop offset="0.0" stop-color="#bebe4b"/>
      <stop offset="1.0" stop-color="#ffffff"/>
    </radialGradient>
    <radialGradient cx="0" cy="0" gradientTransform="matrix(0.0, 0.0028, -0.0028, 0.0, 4.25, -17.6)" gradientUnits="userSpaceOnUse" id="gradient2" r="819.2" spreadMethod="pad">
      <stop offset="0.0" stop-color="#bebe4b"/>
      <stop offset="1.0" stop-color="#ffffff"/>
    </radialGradient>
    <radialGradient cx="0" cy="0" gradientTransform="matrix(-0.0014, 0.0024, -0.0024, -0.0014, 12.6, -13.05)" gradientUnits="userSpaceOnUse" id="gradient3" r="819.2" spreadMethod="pad">
      <stop offset="0.0" stop-color="#bebe4b"/>
      <stop offset="1.0" stop-color="#ffffff"/>
    </radialGradient>
    <radialGradient cx="0" cy="0" gradientTransform="matrix(-0.0024, 0.0014, -0.0014, -0.0024, 18.25, -5.05)" gradientUnits="userSpaceOnUse" id="gradient4" r="819.2" spreadMethod="pad">
      <stop offset="0.0" stop-color="#bebe4b"/>
      <stop offset="1.0" stop-color="#ffffff"/>
    </radialGradient>
    <radialGradient cx="0" cy="0" gradientTransform="matrix(-0.0028, 0.0, 0.0, -0.0028, 18.6, 3.65)" gradientUnits="userSpaceOnUse" id="gradient5" r="819.2" spreadMethod="pad">
      <stop offset="0.0" stop-color="#bebe4b"/>
      <stop offset="1.0" stop-color="#ffffff"/>
    </radialGradient>
    <radialGradient cx="0" cy="0" gradientTransform="matrix(-0.0024, -0.0014, 0.0014, -0.0024, 14.0, 13.35)" gradientUnits="userSpaceOnUse" id="gradient6" r="819.2" spreadMethod="pad">
      <stop offset="0.0" stop-color="#bebe4b"/>
      <stop offset="1.0" stop-color="#ffffff"/>
    </radialGradient>
    <radialGradient cx="0" cy="0" gradientTransform="matrix(-0.0014, -0.0024, 0.0024, -0.0014, 5.85, 17.35)" gradientUnits="userSpaceOnUse" id="gradient7" r="819.2" spreadMethod="pad">
      <stop offset="0.0" stop-color="#bebe4b"/>
      <stop offset="1.0" stop-color="#ffffff"/>
    </radialGradient>
    <radialGradient cx="0" cy="0" gradientTransform="matrix(0.0, -0.0028, 0.0028, 0.0, -3.95, 17.45)" gradientUnits="userSpaceOnUse" id="gradient8" r="819.2" spreadMethod="pad">
      <stop offset="0.0" stop-color="#bebe4b"/>
      <stop offset="1.0" stop-color="#ffffff"/>
    </radialGradient>
    <radialGradient cx="0" cy="0" gradientTransform="matrix(0.0014, -0.0024, 0.0024, 0.0014, -13.3, 12.45)" gradientUnits="userSpaceOnUse" id="gradient9" r="819.2" spreadMethod="pad">
      <stop offset="0.0" stop-color="#bebe4b"/>
      <stop offset="1.0" stop-color="#ffffff"/>
    </radialGradient>
    <radialGradient cx="0" cy="0" gradientTransform="matrix(0.0024, -0.0014, 0.0014, 0.0024, -18.7, 3.85)" gradientUnits="userSpaceOnUse" id="gradient10" r="819.2" spreadMethod="pad">
      <stop offset="0.0" stop-color="#bebe4b"/>
      <stop offset="1.0" stop-color="#ffffff"/>
    </radialGradient>
    <radialGradient cx="0" cy="0" gradientTransform="matrix(0.0028, 0.0, 0.0, 0.0028, -18.5, -4.9)" gradientUnits="userSpaceOnUse" id="gradient11" r="819.2" spreadMethod="pad">
      <stop offset="0.0" stop-color="#bebe4b"/>
      <stop offset="1.0" stop-color="#ffffff"/>
    </radialGradient>
  </defs>
</svg>
