<?xml version="1.0" encoding="UTF-8" standalone="no"?>
<svg xmlns:xlink="http://www.w3.org/1999/xlink" height="45.65px" width="43.75px" xmlns="http://www.w3.org/2000/svg">
  <g transform="matrix(1.0, 0.0, 0.0, 1.0, 22.05, 23.05)">
    <path d="M-2.35 -22.4 L0.05 -22.8 Q-3.0 -20.5 -2.8 -20.1 L-3.5 -18.35 Q-3.65 -17.6 -4.25 -17.25 L-5.55 -17.15 Q-6.25 -17.35 -6.6 -17.95 -6.95 -18.55 -6.75 -19.25 -6.55 -20.6 -4.7 -21.65 L-2.35 -22.4" fill="url(#gradient0)" fill-rule="evenodd" stroke="none"/>
    <path d="M-2.35 -22.4 L0.05 -22.8 Q-3.0 -20.5 -2.8 -20.1 L-3.5 -18.35 Q-3.65 -17.6 -4.25 -17.25 L-5.55 -17.15 Q-6.25 -17.35 -6.6 -17.95 -6.95 -18.55 -6.75 -19.25 -6.55 -20.6 -4.7 -21.65 L-2.35 -22.4 Z" fill="none" stroke="#000000" stroke-linecap="round" stroke-linejoin="round" stroke-width="0.5"/>
    <path d="M8.45 -20.2 L10.75 -19.35 Q6.95 -18.9 6.95 -18.45 5.7 -17.6 5.4 -17.25 4.9 -16.7 4.2 -16.7 3.5 -16.7 3.05 -17.25 2.55 -17.75 2.55 -18.45 2.55 -19.15 3.05 -19.7 3.95 -20.75 6.05 -20.75 L8.45 -20.2" fill="url(#gradient1)" fill-rule="evenodd" stroke="none"/>
    <path d="M8.45 -20.2 L10.75 -19.35 Q6.95 -18.9 6.95 -18.45 5.7 -17.6 5.4 -17.25 4.9 -16.7 4.2 -16.7 3.5 -16.7 3.05 -17.25 2.55 -17.75 2.55 -18.45 2.55 -19.15 3.05 -19.7 3.95 -20.75 6.05 -20.75 L8.45 -20.2 Z" fill="none" stroke="#000000" stroke-linecap="round" stroke-linejoin="round" stroke-width="0.5"/>
    <path d="M16.95 -12.7 L18.55 -10.8 Q15.0 -12.3 14.8 -11.9 L12.9 -11.7 11.55 -11.8 Q10.95 -12.15 10.85 -12.85 10.65 -13.5 11.0 -14.1 11.35 -14.7 12.05 -14.95 13.35 -15.4 15.2 -14.35 L16.95 -12.7" fill="url(#gradient2)" fill-rule="evenodd" stroke="none"/>
    <path d="M16.95 -12.7 L18.55 -10.8 Q15.0 -12.3 14.8 -11.9 L12.9 -11.7 11.55 -11.8 Q10.95 -12.15 10.85 -12.85 10.65 -13.5 11.0 -14.1 11.35 -14.7 12.05 -14.95 13.35 -15.4 15.2 -14.35 L16.95 -12.7 Z" fill="none" stroke="#000000" stroke-linecap="round" stroke-linejoin="round" stroke-width="0.5"/>
    <path d="M21.05 -2.5 L21.45 -0.05 Q19.15 -3.15 18.75 -2.9 L16.95 -3.6 Q16.2 -3.8 15.85 -4.4 15.5 -5.0 15.8 -5.65 15.9 -6.35 16.5 -6.7 L17.9 -6.9 Q19.25 -6.65 20.3 -4.8 L21.05 -2.5" fill="url(#gradient3)" fill-rule="evenodd" stroke="none"/>
    <path d="M21.05 -2.5 L21.45 -0.05 Q19.15 -3.15 18.75 -2.9 L16.95 -3.6 Q16.2 -3.8 15.85 -4.4 15.5 -5.0 15.8 -5.65 15.9 -6.35 16.5 -6.7 L17.9 -6.9 Q19.25 -6.65 20.3 -4.8 L21.05 -2.5 Z" fill="none" stroke="#000000" stroke-linecap="round" stroke-linejoin="round" stroke-width="0.5"/>
    <path d="M20.1 8.75 L19.25 11.05 Q18.8 7.25 18.35 7.25 L17.15 5.7 Q16.6 5.2 16.6 4.5 16.6 3.8 17.15 3.35 17.65 2.85 18.35 2.85 19.05 2.85 19.6 3.35 20.65 4.25 20.65 6.35 L20.1 8.75" fill="url(#gradient4)" fill-rule="evenodd" stroke="none"/>
    <path d="M20.1 8.75 L19.25 11.05 Q18.8 7.25 18.35 7.25 L17.15 5.7 Q16.6 5.2 16.6 4.5 16.6 3.8 17.15 3.35 17.65 2.85 18.35 2.85 19.05 2.85 19.6 3.35 20.65 4.25 20.65 6.35 L20.1 8.75 Z" fill="none" stroke="#000000" stroke-linecap="round" stroke-linejoin="round" stroke-width="0.5"/>
    <path d="M13.7 16.75 L11.8 18.3 Q13.3 14.8 12.9 14.55 L12.65 12.65 Q12.4 11.95 12.75 11.35 13.1 10.75 13.85 10.6 L15.05 10.75 Q15.65 11.1 15.95 11.85 16.4 13.1 15.35 14.95 L13.7 16.75" fill="url(#gradient5)" fill-rule="evenodd" stroke="none"/>
    <path d="M13.7 16.75 L11.8 18.3 Q13.3 14.8 12.9 14.55 L12.65 12.65 Q12.4 11.95 12.75 11.35 13.1 10.75 13.85 10.6 L15.05 10.75 Q15.65 11.1 15.95 11.85 16.4 13.1 15.35 14.95 L13.7 16.75 Z" fill="none" stroke="#000000" stroke-linecap="round" stroke-linejoin="round" stroke-width="0.5"/>
    <path d="M2.65 21.95 L0.25 22.35 Q3.3 20.05 3.1 19.65 L3.8 17.9 Q3.95 17.15 4.55 16.8 L5.85 16.7 Q6.55 16.9 6.9 17.5 7.25 18.1 7.05 18.8 6.85 20.15 5.0 21.2 L2.65 21.95" fill="url(#gradient6)" fill-rule="evenodd" stroke="none"/>
    <path d="M2.65 21.95 L0.25 22.35 Q3.3 20.05 3.1 19.65 L3.8 17.9 Q3.95 17.15 4.55 16.8 L5.85 16.7 Q6.55 16.9 6.9 17.5 7.25 18.1 7.05 18.8 6.85 20.15 5.0 21.2 L2.65 21.95 Z" fill="none" stroke="#000000" stroke-linecap="round" stroke-linejoin="round" stroke-width="0.5"/>
    <path d="M-7.9 19.5 L-10.2 18.65 Q-6.4 18.2 -6.4 17.75 L-4.85 16.55 Q-4.35 16.0 -3.65 16.0 -2.95 16.0 -2.5 16.55 -2.0 17.05 -2.0 17.75 -2.0 18.45 -2.5 19.0 -3.4 20.05 -5.5 20.05 L-7.9 19.5" fill="url(#gradient7)" fill-rule="evenodd" stroke="none"/>
    <path d="M-7.9 19.5 L-10.2 18.65 Q-6.4 18.2 -6.4 17.75 L-4.85 16.55 Q-4.35 16.0 -3.65 16.0 -2.95 16.0 -2.5 16.55 -2.0 17.05 -2.0 17.75 -2.0 18.45 -2.5 19.0 -3.4 20.05 -5.5 20.05 L-7.9 19.5 Z" fill="none" stroke="#000000" stroke-linecap="round" stroke-linejoin="round" stroke-width="0.5"/>
    <path d="M-16.75 12.35 L-18.35 10.45 Q-14.8 11.95 -14.6 11.55 L-12.7 11.3 -11.35 11.4 Q-10.75 11.75 -10.65 12.5 -10.45 13.15 -10.8 13.75 -11.15 14.35 -11.85 14.6 -13.15 15.05 -15.0 14.0 L-16.75 12.35" fill="url(#gradient8)" fill-rule="evenodd" stroke="none"/>
    <path d="M-16.75 12.35 L-18.35 10.45 Q-14.8 11.95 -14.6 11.55 L-12.7 11.3 -11.35 11.4 Q-10.75 11.75 -10.65 12.5 -10.45 13.15 -10.8 13.75 -11.15 14.35 -11.85 14.6 -13.15 15.05 -15.0 14.0 L-16.75 12.35 Z" fill="none" stroke="#000000" stroke-linecap="round" stroke-linejoin="round" stroke-width="0.5"/>
    <path d="M-21.4 1.1 L-21.8 -1.3 Q-19.5 1.75 -19.1 1.55 L-17.35 2.25 Q-16.6 2.4 -16.25 3.0 -15.9 3.6 -16.15 4.3 -16.35 5.0 -16.95 5.35 L-18.25 5.5 Q-19.6 5.3 -20.65 3.45 L-21.4 1.1" fill="url(#gradient9)" fill-rule="evenodd" stroke="none"/>
    <path d="M-21.4 1.1 L-21.8 -1.3 Q-19.5 1.75 -19.1 1.55 L-17.35 2.25 Q-16.6 2.4 -16.25 3.0 -15.9 3.6 -16.15 4.3 -16.35 5.0 -16.95 5.35 L-18.25 5.5 Q-19.6 5.3 -20.65 3.45 L-21.4 1.1 Z" fill="none" stroke="#000000" stroke-linecap="round" stroke-linejoin="round" stroke-width="0.5"/>
    <path d="M-19.95 -10.5 L-19.1 -12.8 Q-18.65 -9.0 -18.2 -9.0 L-17.0 -7.45 Q-16.45 -6.95 -16.45 -6.25 -16.45 -5.55 -17.0 -5.1 -17.5 -4.6 -18.2 -4.6 -18.9 -4.6 -19.45 -5.1 -20.5 -6.0 -20.5 -8.1 L-19.95 -10.5" fill="url(#gradient10)" fill-rule="evenodd" stroke="none"/>
    <path d="M-19.95 -10.5 L-19.1 -12.8 Q-18.65 -9.0 -18.2 -9.0 L-17.0 -7.45 Q-16.45 -6.95 -16.45 -6.25 -16.45 -5.55 -17.0 -5.1 -17.5 -4.6 -18.2 -4.6 -18.9 -4.6 -19.45 -5.1 -20.5 -6.0 -20.5 -8.1 L-19.95 -10.5 Z" fill="none" stroke="#000000" stroke-linecap="round" stroke-linejoin="round" stroke-width="0.5"/>
    <path d="M-13.05 -18.25 L-11.15 -19.85 Q-12.65 -16.3 -12.25 -16.1 L-12.0 -14.2 Q-11.75 -13.45 -12.1 -12.85 -12.45 -12.25 -13.2 -12.15 L-14.4 -12.3 Q-15.0 -12.65 -15.3 -13.35 -15.75 -14.65 -14.7 -16.5 L-13.05 -18.25" fill="url(#gradient11)" fill-rule="evenodd" stroke="none"/>
    <path d="M-13.05 -18.25 L-11.15 -19.85 Q-12.65 -16.3 -12.25 -16.1 L-12.0 -14.2 Q-11.75 -13.45 -12.1 -12.85 -12.45 -12.25 -13.2 -12.15 L-14.4 -12.3 Q-15.0 -12.65 -15.3 -13.35 -15.75 -14.65 -14.7 -16.5 L-13.05 -18.25 Z" fill="none" stroke="#000000" stroke-linecap="round" stroke-linejoin="round" stroke-width="0.5"/>
  </g>
  <defs>
    <radialGradient cx="0" cy="0" gradientTransform="matrix(0.0014, 0.0024, -0.0024, 0.0014, -5.15, -18.75)" gradientUnits="userSpaceOnUse" id="gradient0" r="819.2" spreadMethod="pad">
      <stop offset="0.0" stop-color="#bebe4b"/>
      <stop offset="1.0" stop-color="#ffffff"/>
    </radialGradient>
    <radialGradient cx="0" cy="0" gradientTransform="matrix(0.0, 0.0028, -0.0028, 0.0, 4.2, -18.45)" gradientUnits="userSpaceOnUse" id="gradient1" r="819.2" spreadMethod="pad">
      <stop offset="0.0" stop-color="#bebe4b"/>
      <stop offset="1.0" stop-color="#ffffff"/>
    </radialGradient>
    <radialGradient cx="0" cy="0" gradientTransform="matrix(-0.0014, 0.0024, -0.0024, -0.0014, 12.45, -13.3)" gradientUnits="userSpaceOnUse" id="gradient2" r="819.2" spreadMethod="pad">
      <stop offset="0.0" stop-color="#bebe4b"/>
      <stop offset="1.0" stop-color="#ffffff"/>
    </radialGradient>
    <radialGradient cx="0" cy="0" gradientTransform="matrix(-0.0024, 0.0014, -0.0014, -0.0024, 17.35, -5.25)" gradientUnits="userSpaceOnUse" id="gradient3" r="819.2" spreadMethod="pad">
      <stop offset="0.0" stop-color="#bebe4b"/>
      <stop offset="1.0" stop-color="#ffffff"/>
    </radialGradient>
    <radialGradient cx="0" cy="0" gradientTransform="matrix(-0.0028, 0.0, 0.0, -0.0028, 18.35, 4.5)" gradientUnits="userSpaceOnUse" id="gradient4" r="819.2" spreadMethod="pad">
      <stop offset="0.0" stop-color="#bebe4b"/>
      <stop offset="1.0" stop-color="#ffffff"/>
    </radialGradient>
    <radialGradient cx="0" cy="0" gradientTransform="matrix(-0.0024, -0.0014, 0.0014, -0.0024, 14.25, 12.2)" gradientUnits="userSpaceOnUse" id="gradient5" r="819.2" spreadMethod="pad">
      <stop offset="0.0" stop-color="#bebe4b"/>
      <stop offset="1.0" stop-color="#ffffff"/>
    </radialGradient>
    <radialGradient cx="0" cy="0" gradientTransform="matrix(-0.0014, -0.0024, 0.0024, -0.0014, 5.45, 18.3)" gradientUnits="userSpaceOnUse" id="gradient6" r="819.2" spreadMethod="pad">
      <stop offset="0.0" stop-color="#bebe4b"/>
      <stop offset="1.0" stop-color="#ffffff"/>
    </radialGradient>
    <radialGradient cx="0" cy="0" gradientTransform="matrix(0.0, -0.0028, 0.0028, 0.0, -3.65, 17.75)" gradientUnits="userSpaceOnUse" id="gradient7" r="819.2" spreadMethod="pad">
      <stop offset="0.0" stop-color="#bebe4b"/>
      <stop offset="1.0" stop-color="#ffffff"/>
    </radialGradient>
    <radialGradient cx="0" cy="0" gradientTransform="matrix(0.0014, -0.0024, 0.0024, 0.0014, -12.25, 12.9)" gradientUnits="userSpaceOnUse" id="gradient8" r="819.2" spreadMethod="pad">
      <stop offset="0.0" stop-color="#bebe4b"/>
      <stop offset="1.0" stop-color="#ffffff"/>
    </radialGradient>
    <radialGradient cx="0" cy="0" gradientTransform="matrix(0.0024, -0.0014, 0.0014, 0.0024, -17.75, 3.9)" gradientUnits="userSpaceOnUse" id="gradient9" r="819.2" spreadMethod="pad">
      <stop offset="0.0" stop-color="#bebe4b"/>
      <stop offset="1.0" stop-color="#ffffff"/>
    </radialGradient>
    <radialGradient cx="0" cy="0" gradientTransform="matrix(0.0028, 0.0, 0.0, 0.0028, -18.2, -6.25)" gradientUnits="userSpaceOnUse" id="gradient10" r="819.2" spreadMethod="pad">
      <stop offset="0.0" stop-color="#bebe4b"/>
      <stop offset="1.0" stop-color="#ffffff"/>
    </radialGradient>
    <radialGradient cx="0" cy="0" gradientTransform="matrix(0.0024, 0.0014, -0.0014, 0.0024, -13.6, -13.75)" gradientUnits="userSpaceOnUse" id="gradient11" r="819.2" spreadMethod="pad">
      <stop offset="0.0" stop-color="#bebe4b"/>
      <stop offset="1.0" stop-color="#ffffff"/>
    </radialGradient>
  </defs>
</svg>
