<?xml version="1.0" encoding="UTF-8" standalone="no"?>
<svg xmlns:xlink="http://www.w3.org/1999/xlink" height="43.15px" width="45.0px" xmlns="http://www.w3.org/2000/svg">
  <g transform="matrix(1.0, 0.0, 0.0, 1.0, 22.7, 21.8)">
    <path d="M-20.25 -9.1 L-19.4 -11.4 Q-18.95 -7.6 -18.5 -7.6 L-17.3 -6.05 Q-16.75 -5.55 -16.75 -4.85 -16.75 -4.15 -17.3 -3.7 -17.8 -3.2 -18.5 -3.2 -19.2 -3.2 -19.75 -3.7 -20.8 -4.6 -20.8 -6.7 L-20.25 -9.1" fill="url(#gradient0)" fill-rule="evenodd" stroke="none"/>
    <path d="M-20.25 -9.1 L-19.4 -11.4 Q-18.95 -7.6 -18.5 -7.6 L-17.3 -6.05 Q-16.75 -5.55 -16.75 -4.85 -16.75 -4.15 -17.3 -3.7 -17.8 -3.2 -18.5 -3.2 -19.2 -3.2 -19.75 -3.7 -20.8 -4.6 -20.8 -6.7 L-20.25 -9.1 Z" fill="none" stroke="#000000" stroke-linecap="round" stroke-linejoin="round" stroke-width="0.5"/>
    <path d="M-13.0 -17.35 L-11.1 -18.95 Q-12.6 -15.4 -12.2 -15.2 L-11.95 -13.3 Q-11.7 -12.55 -12.05 -11.95 -12.4 -11.35 -13.15 -11.25 L-14.35 -11.4 Q-14.95 -11.75 -15.25 -12.45 -15.7 -13.75 -14.65 -15.6 L-13.0 -17.35" fill="url(#gradient1)" fill-rule="evenodd" stroke="none"/>
    <path d="M-13.0 -17.35 L-11.1 -18.95 Q-12.6 -15.4 -12.2 -15.2 L-11.95 -13.3 Q-11.7 -12.55 -12.05 -11.95 -12.4 -11.35 -13.15 -11.25 L-14.35 -11.4 Q-14.95 -11.75 -15.25 -12.45 -15.7 -13.75 -14.65 -15.6 L-13.0 -17.35 Z" fill="none" stroke="#000000" stroke-linecap="round" stroke-linejoin="round" stroke-width="0.5"/>
    <path d="M-2.3 -21.15 L0.15 -21.55 Q-2.95 -19.25 -2.7 -18.85 L-3.4 -17.1 Q-3.6 -16.35 -4.2 -16.0 L-5.45 -15.9 -6.5 -16.7 Q-6.85 -17.3 -6.7 -18.0 -6.45 -19.35 -4.6 -20.4 L-2.3 -21.15" fill="url(#gradient2)" fill-rule="evenodd" stroke="none"/>
    <path d="M-2.3 -21.15 L0.15 -21.55 Q-2.95 -19.25 -2.7 -18.85 L-3.4 -17.1 Q-3.6 -16.35 -4.2 -16.0 L-5.45 -15.9 -6.5 -16.7 Q-6.85 -17.3 -6.7 -18.0 -6.45 -19.35 -4.6 -20.4 L-2.3 -21.15 Z" fill="none" stroke="#000000" stroke-linecap="round" stroke-linejoin="round" stroke-width="0.5"/>
    <path d="M8.7 -19.5 Q10.75 -18.9 11.0 -18.65 7.2 -18.2 7.2 -17.75 L5.65 -16.55 Q5.15 -16.0 4.45 -16.0 3.75 -16.0 3.3 -16.55 2.8 -17.05 2.8 -17.75 2.8 -18.45 3.3 -19.0 4.2 -20.05 6.3 -20.05 L8.7 -19.5" fill="url(#gradient3)" fill-rule="evenodd" stroke="none"/>
    <path d="M8.7 -19.5 Q10.75 -18.9 11.0 -18.65 7.2 -18.2 7.2 -17.75 L5.65 -16.55 Q5.15 -16.0 4.45 -16.0 3.75 -16.0 3.3 -16.55 2.8 -17.05 2.8 -17.75 2.8 -18.45 3.3 -19.0 4.2 -20.05 6.3 -20.05 L8.7 -19.5 Z" fill="none" stroke="#000000" stroke-linecap="round" stroke-linejoin="round" stroke-width="0.5"/>
    <path d="M17.95 -13.0 L19.55 -11.1 Q16.0 -12.6 15.8 -12.2 L13.9 -12.0 12.55 -12.1 Q11.95 -12.45 11.85 -13.15 11.65 -13.85 12.0 -14.45 12.35 -15.05 13.05 -15.25 14.35 -15.7 16.2 -14.65 L17.95 -13.0" fill="url(#gradient4)" fill-rule="evenodd" stroke="none"/>
    <path d="M17.95 -13.0 L19.55 -11.1 Q16.0 -12.6 15.8 -12.2 L13.9 -12.0 12.55 -12.1 Q11.95 -12.45 11.85 -13.15 11.65 -13.85 12.0 -14.45 12.35 -15.05 13.05 -15.25 14.35 -15.7 16.2 -14.65 L17.95 -13.0 Z" fill="none" stroke="#000000" stroke-linecap="round" stroke-linejoin="round" stroke-width="0.5"/>
    <path d="M21.65 -3.4 L22.05 -1.0 Q19.75 -4.05 19.35 -3.85 L17.55 -4.55 Q16.8 -4.7 16.45 -5.3 16.1 -5.9 16.4 -6.6 16.55 -7.3 17.15 -7.65 L18.5 -7.8 Q19.85 -7.6 20.9 -5.75 L21.65 -3.4" fill="url(#gradient5)" fill-rule="evenodd" stroke="none"/>
    <path d="M21.65 -3.4 L22.05 -1.0 Q19.75 -4.05 19.35 -3.85 L17.55 -4.55 Q16.8 -4.7 16.45 -5.3 16.1 -5.9 16.4 -6.6 16.55 -7.3 17.15 -7.65 L18.5 -7.8 Q19.85 -7.6 20.9 -5.75 L21.65 -3.4 Z" fill="none" stroke="#000000" stroke-linecap="round" stroke-linejoin="round" stroke-width="0.5"/>
    <path d="M20.65 8.65 L19.8 10.95 Q19.35 7.15 18.9 7.15 L17.7 5.6 Q17.15 5.1 17.15 4.4 17.15 3.7 17.7 3.25 18.2 2.75 18.9 2.75 19.6 2.75 20.15 3.25 21.2 4.15 21.2 6.25 L20.65 8.65" fill="url(#gradient6)" fill-rule="evenodd" stroke="none"/>
    <path d="M20.65 8.65 L19.8 10.95 Q19.35 7.15 18.9 7.15 L17.7 5.6 Q17.15 5.1 17.15 4.4 17.15 3.7 17.7 3.25 18.2 2.75 18.9 2.75 19.6 2.75 20.15 3.25 21.2 4.15 21.2 6.25 L20.65 8.65 Z" fill="none" stroke="#000000" stroke-linecap="round" stroke-linejoin="round" stroke-width="0.5"/>
    <path d="M13.3 16.55 L11.4 18.1 Q12.9 14.6 12.5 14.35 L12.3 12.45 Q12.05 11.75 12.4 11.15 12.75 10.55 13.45 10.4 L14.75 10.55 Q15.35 10.9 15.55 11.65 16.0 12.9 14.95 14.75 L13.3 16.55" fill="url(#gradient7)" fill-rule="evenodd" stroke="none"/>
    <path d="M13.3 16.55 L11.4 18.1 Q12.9 14.6 12.5 14.35 L12.3 12.45 Q12.05 11.75 12.4 11.15 12.75 10.55 13.45 10.4 L14.75 10.55 Q15.35 10.9 15.55 11.65 16.0 12.9 14.95 14.75 L13.3 16.55 Z" fill="none" stroke="#000000" stroke-linecap="round" stroke-linejoin="round" stroke-width="0.5"/>
    <path d="M2.65 20.7 L0.2 21.1 Q3.3 18.8 3.05 18.4 L3.75 16.65 Q3.95 15.9 4.55 15.55 L5.8 15.45 Q6.5 15.65 6.85 16.25 7.2 16.85 7.05 17.55 6.8 18.9 4.95 19.95 L2.65 20.7" fill="url(#gradient8)" fill-rule="evenodd" stroke="none"/>
    <path d="M2.65 20.7 L0.2 21.1 Q3.3 18.8 3.05 18.4 L3.75 16.65 Q3.95 15.9 4.55 15.55 L5.8 15.45 Q6.5 15.65 6.85 16.25 7.2 16.85 7.05 17.55 6.8 18.9 4.95 19.95 L2.65 20.7 Z" fill="none" stroke="#000000" stroke-linecap="round" stroke-linejoin="round" stroke-width="0.5"/>
    <path d="M-9.35 19.1 L-11.65 18.25 Q-7.85 17.8 -7.85 17.35 L-6.3 16.15 Q-5.8 15.6 -5.1 15.6 -4.4 15.6 -3.95 16.15 -3.45 16.65 -3.45 17.35 -3.45 18.05 -3.95 18.6 -4.85 19.65 -6.95 19.65 L-9.35 19.1" fill="url(#gradient9)" fill-rule="evenodd" stroke="none"/>
    <path d="M-9.35 19.1 L-11.65 18.25 Q-7.85 17.8 -7.85 17.35 L-6.3 16.15 Q-5.8 15.6 -5.1 15.6 -4.4 15.6 -3.95 16.15 -3.45 16.65 -3.45 17.35 -3.45 18.05 -3.95 18.6 -4.85 19.65 -6.95 19.65 L-9.35 19.1 Z" fill="none" stroke="#000000" stroke-linecap="round" stroke-linejoin="round" stroke-width="0.5"/>
    <path d="M-18.75 12.0 L-20.3 10.1 Q-16.8 11.6 -16.55 11.2 L-14.65 10.95 -13.35 11.05 Q-12.75 11.4 -12.6 12.15 -12.4 12.75 -12.75 13.35 -13.1 13.95 -13.85 14.25 -15.1 14.7 -16.95 13.65 L-18.75 12.0" fill="url(#gradient10)" fill-rule="evenodd" stroke="none"/>
    <path d="M-18.75 12.0 L-20.3 10.1 Q-16.8 11.6 -16.55 11.2 L-14.65 10.95 -13.35 11.05 Q-12.75 11.4 -12.6 12.15 -12.4 12.75 -12.75 13.35 -13.1 13.95 -13.85 14.25 -15.1 14.7 -16.95 13.65 L-18.75 12.0 Z" fill="none" stroke="#000000" stroke-linecap="round" stroke-linejoin="round" stroke-width="0.5"/>
    <path d="M-22.05 2.15 L-22.45 -0.25 Q-20.15 2.8 -19.75 2.6 L-17.95 3.3 Q-17.2 3.45 -16.85 4.05 -16.5 4.65 -16.8 5.35 -16.9 6.05 -17.5 6.4 L-18.9 6.55 Q-20.25 6.35 -21.3 4.5 L-22.05 2.15" fill="url(#gradient11)" fill-rule="evenodd" stroke="none"/>
    <path d="M-22.05 2.15 L-22.45 -0.25 Q-20.15 2.8 -19.75 2.6 L-17.95 3.3 Q-17.2 3.45 -16.85 4.05 -16.5 4.65 -16.8 5.35 -16.9 6.05 -17.5 6.4 L-18.9 6.55 Q-20.25 6.35 -21.3 4.5 L-22.05 2.15 Z" fill="none" stroke="#000000" stroke-linecap="round" stroke-linejoin="round" stroke-width="0.5"/>
  </g>
  <defs>
    <radialGradient cx="0" cy="0" gradientTransform="matrix(0.0028, 0.0, 0.0, 0.0028, -18.5, -4.85)" gradientUnits="userSpaceOnUse" id="gradient0" r="819.2" spreadMethod="pad">
      <stop offset="0.0" stop-color="#bebe4b"/>
      <stop offset="1.0" stop-color="#ffffff"/>
    </radialGradient>
    <radialGradient cx="0" cy="0" gradientTransform="matrix(0.0024, 0.0014, -0.0014, 0.0024, -13.55, -12.85)" gradientUnits="userSpaceOnUse" id="gradient1" r="819.2" spreadMethod="pad">
      <stop offset="0.0" stop-color="#bebe4b"/>
      <stop offset="1.0" stop-color="#ffffff"/>
    </radialGradient>
    <radialGradient cx="0" cy="0" gradientTransform="matrix(0.0014, 0.0024, -0.0024, 0.0014, -5.05, -17.5)" gradientUnits="userSpaceOnUse" id="gradient2" r="819.2" spreadMethod="pad">
      <stop offset="0.0" stop-color="#bebe4b"/>
      <stop offset="1.0" stop-color="#ffffff"/>
    </radialGradient>
    <radialGradient cx="0" cy="0" gradientTransform="matrix(0.0, 0.0028, -0.0028, 0.0, 4.45, -17.75)" gradientUnits="userSpaceOnUse" id="gradient3" r="819.2" spreadMethod="pad">
      <stop offset="0.0" stop-color="#bebe4b"/>
      <stop offset="1.0" stop-color="#ffffff"/>
    </radialGradient>
    <radialGradient cx="0" cy="0" gradientTransform="matrix(-0.0014, 0.0024, -0.0024, -0.0014, 13.45, -13.6)" gradientUnits="userSpaceOnUse" id="gradient4" r="819.2" spreadMethod="pad">
      <stop offset="0.0" stop-color="#bebe4b"/>
      <stop offset="1.0" stop-color="#ffffff"/>
    </radialGradient>
    <radialGradient cx="0" cy="0" gradientTransform="matrix(-0.0024, 0.0014, -0.0014, -0.0024, 17.95, -6.2)" gradientUnits="userSpaceOnUse" id="gradient5" r="819.2" spreadMethod="pad">
      <stop offset="0.0" stop-color="#bebe4b"/>
      <stop offset="1.0" stop-color="#ffffff"/>
    </radialGradient>
    <radialGradient cx="0" cy="0" gradientTransform="matrix(-0.0028, 0.0, 0.0, -0.0028, 18.9, 4.4)" gradientUnits="userSpaceOnUse" id="gradient6" r="819.2" spreadMethod="pad">
      <stop offset="0.0" stop-color="#bebe4b"/>
      <stop offset="1.0" stop-color="#ffffff"/>
    </radialGradient>
    <radialGradient cx="0" cy="0" gradientTransform="matrix(-0.0024, -0.0014, 0.0014, -0.0024, 13.9, 12.0)" gradientUnits="userSpaceOnUse" id="gradient7" r="819.2" spreadMethod="pad">
      <stop offset="0.0" stop-color="#bebe4b"/>
      <stop offset="1.0" stop-color="#ffffff"/>
    </radialGradient>
    <radialGradient cx="0" cy="0" gradientTransform="matrix(-0.0014, -0.0024, 0.0024, -0.0014, 5.4, 17.05)" gradientUnits="userSpaceOnUse" id="gradient8" r="819.2" spreadMethod="pad">
      <stop offset="0.0" stop-color="#bebe4b"/>
      <stop offset="1.0" stop-color="#ffffff"/>
    </radialGradient>
    <radialGradient cx="0" cy="0" gradientTransform="matrix(0.0, -0.0028, 0.0028, 0.0, -5.1, 17.35)" gradientUnits="userSpaceOnUse" id="gradient9" r="819.2" spreadMethod="pad">
      <stop offset="0.0" stop-color="#bebe4b"/>
      <stop offset="1.0" stop-color="#ffffff"/>
    </radialGradient>
    <radialGradient cx="0" cy="0" gradientTransform="matrix(0.0014, -0.0024, 0.0024, 0.0014, -14.2, 12.55)" gradientUnits="userSpaceOnUse" id="gradient10" r="819.2" spreadMethod="pad">
      <stop offset="0.0" stop-color="#bebe4b"/>
      <stop offset="1.0" stop-color="#ffffff"/>
    </radialGradient>
    <radialGradient cx="0" cy="0" gradientTransform="matrix(0.0024, -0.0014, 0.0014, 0.0024, -18.35, 4.95)" gradientUnits="userSpaceOnUse" id="gradient11" r="819.2" spreadMethod="pad">
      <stop offset="0.0" stop-color="#bebe4b"/>
      <stop offset="1.0" stop-color="#ffffff"/>
    </radialGradient>
  </defs>
</svg>
