<?xml version="1.0" encoding="UTF-8" standalone="no"?>
<svg xmlns:xlink="http://www.w3.org/1999/xlink" height="27.7px" width="26.6px" xmlns="http://www.w3.org/2000/svg">
  <g transform="matrix(1.0, 0.0, 0.0, 1.0, 13.5, 14.1)">
    <path d="M-10.9 -7.95 L-11.85 -6.85 Q-9.7 -7.7 -9.55 -7.45 L-8.4 -7.35 -7.6 -7.4 Q-7.25 -7.6 -7.2 -8.05 -7.05 -8.45 -7.25 -8.8 -7.5 -9.2 -7.95 -9.3 -8.7 -9.55 -9.8 -8.95 L-10.9 -7.95" fill="url(#gradient0)" fill-rule="evenodd" stroke="none"/>
    <path d="M-10.9 -7.95 L-11.85 -6.85 Q-9.7 -7.7 -9.55 -7.45 L-8.4 -7.35 -7.6 -7.4 Q-7.25 -7.6 -7.2 -8.05 -7.05 -8.45 -7.25 -8.8 -7.5 -9.2 -7.95 -9.3 -8.7 -9.55 -9.8 -8.95 L-10.9 -7.95 Z" fill="none" stroke="#000000" stroke-linecap="round" stroke-linejoin="round" stroke-width="0.5"/>
    <path d="M-13.0 -1.65 L-13.25 -0.2 Q-11.85 -2.05 -11.6 -1.9 L-10.5 -2.35 Q-10.05 -2.45 -9.85 -2.85 -9.65 -3.2 -9.8 -3.55 L-10.25 -4.2 -11.05 -4.3 Q-11.9 -4.15 -12.5 -3.05 L-13.0 -1.65" fill="url(#gradient1)" fill-rule="evenodd" stroke="none"/>
    <path d="M-13.0 -1.65 L-13.25 -0.2 Q-11.85 -2.05 -11.6 -1.9 L-10.5 -2.35 Q-10.05 -2.45 -9.85 -2.85 -9.65 -3.2 -9.8 -3.55 L-10.25 -4.2 -11.05 -4.3 Q-11.9 -4.15 -12.5 -3.05 L-13.0 -1.65 Z" fill="none" stroke="#000000" stroke-linecap="round" stroke-linejoin="round" stroke-width="0.5"/>
    <path d="M-11.65 5.05 L-11.15 6.45 Q-10.85 4.15 -10.6 4.15 L-9.85 3.25 Q-9.55 2.95 -9.55 2.5 -9.55 2.1 -9.85 1.85 -10.15 1.55 -10.6 1.55 L-11.35 1.85 Q-11.95 2.35 -11.95 3.65 L-11.65 5.05" fill="url(#gradient2)" fill-rule="evenodd" stroke="none"/>
    <path d="M-11.65 5.05 L-11.15 6.45 Q-10.85 4.15 -10.6 4.15 L-9.85 3.25 Q-9.55 2.95 -9.55 2.5 -9.55 2.1 -9.85 1.85 -10.15 1.55 -10.6 1.55 L-11.35 1.85 Q-11.95 2.35 -11.95 3.65 L-11.65 5.05 Z" fill="none" stroke="#000000" stroke-linecap="round" stroke-linejoin="round" stroke-width="0.5"/>
    <path d="M-7.55 10.2 L-6.45 11.15 Q-7.3 9.0 -7.05 8.85 L-6.95 7.7 Q-6.8 7.3 -7.0 6.9 L-7.65 6.5 -8.4 6.55 -8.9 7.25 Q-9.15 8.0 -8.55 9.1 L-7.55 10.2" fill="url(#gradient3)" fill-rule="evenodd" stroke="none"/>
    <path d="M-7.55 10.2 L-6.45 11.15 Q-7.3 9.0 -7.05 8.85 L-6.95 7.7 Q-6.8 7.3 -7.0 6.9 L-7.65 6.5 -8.4 6.55 -8.9 7.25 Q-9.15 8.0 -8.55 9.1 L-7.55 10.2 Z" fill="none" stroke="#000000" stroke-linecap="round" stroke-linejoin="round" stroke-width="0.5"/>
    <path d="M-1.35 13.1 L0.1 13.35 Q-1.75 11.95 -1.6 11.7 L-2.05 10.6 Q-2.15 10.15 -2.55 9.95 L-3.25 9.9 -3.9 10.35 Q-4.15 10.75 -4.0 11.15 -3.85 12.0 -2.75 12.6 L-1.35 13.1" fill="url(#gradient4)" fill-rule="evenodd" stroke="none"/>
    <path d="M-1.35 13.1 L0.1 13.35 Q-1.75 11.95 -1.6 11.7 L-2.05 10.6 Q-2.15 10.15 -2.55 9.95 L-3.25 9.9 -3.9 10.35 Q-4.15 10.75 -4.0 11.15 -3.85 12.0 -2.75 12.6 L-1.35 13.1 Z" fill="none" stroke="#000000" stroke-linecap="round" stroke-linejoin="round" stroke-width="0.5"/>
    <path d="M4.65 12.1 L6.05 11.6 Q3.75 11.3 3.75 11.05 L2.85 10.3 Q2.55 10.0 2.1 10.0 1.7 10.0 1.45 10.3 1.15 10.6 1.15 11.05 1.15 11.45 1.45 11.8 1.95 12.4 3.25 12.4 L4.65 12.1" fill="url(#gradient5)" fill-rule="evenodd" stroke="none"/>
    <path d="M4.65 12.1 L6.05 11.6 Q3.75 11.3 3.75 11.05 L2.85 10.3 Q2.55 10.0 2.1 10.0 1.7 10.0 1.45 10.3 1.15 10.6 1.15 11.05 1.15 11.45 1.45 11.8 1.95 12.4 3.25 12.4 L4.65 12.1 Z" fill="none" stroke="#000000" stroke-linecap="round" stroke-linejoin="round" stroke-width="0.5"/>
    <path d="M10.7 7.9 L11.65 6.75 Q9.5 7.65 9.35 7.4 L8.2 7.3 7.4 7.35 Q7.05 7.55 7.0 8.0 6.85 8.4 7.05 8.75 L7.75 9.25 Q8.5 9.5 9.6 8.9 L10.7 7.9" fill="url(#gradient6)" fill-rule="evenodd" stroke="none"/>
    <path d="M10.7 7.9 L11.65 6.75 Q9.5 7.65 9.35 7.4 L8.2 7.3 7.4 7.35 Q7.05 7.55 7.0 8.0 6.85 8.4 7.05 8.75 L7.75 9.25 Q8.5 9.5 9.6 8.9 L10.7 7.9 Z" fill="none" stroke="#000000" stroke-linecap="round" stroke-linejoin="round" stroke-width="0.5"/>
    <path d="M12.6 1.75 L12.85 0.3 Q11.45 2.15 11.2 2.0 L10.1 2.45 Q9.65 2.55 9.45 2.95 9.25 3.3 9.4 3.65 L9.85 4.3 10.65 4.4 Q11.5 4.25 12.1 3.15 L12.6 1.75" fill="url(#gradient7)" fill-rule="evenodd" stroke="none"/>
    <path d="M12.6 1.75 L12.85 0.3 Q11.45 2.15 11.2 2.0 L10.1 2.45 Q9.65 2.55 9.45 2.95 9.25 3.3 9.4 3.65 L9.85 4.3 10.65 4.4 Q11.5 4.25 12.1 3.15 L12.6 1.75 Z" fill="none" stroke="#000000" stroke-linecap="round" stroke-linejoin="round" stroke-width="0.5"/>
    <path d="M11.4 -5.0 L10.9 -6.4 Q10.6 -4.1 10.35 -4.1 L9.6 -3.2 Q9.3 -2.9 9.3 -2.45 9.3 -2.05 9.6 -1.8 9.9 -1.5 10.35 -1.5 10.75 -1.5 11.1 -1.8 11.7 -2.3 11.7 -3.6 L11.4 -5.0" fill="url(#gradient8)" fill-rule="evenodd" stroke="none"/>
    <path d="M11.4 -5.0 L10.9 -6.4 Q10.6 -4.1 10.35 -4.1 L9.6 -3.2 Q9.3 -2.9 9.3 -2.45 9.3 -2.05 9.6 -1.8 9.9 -1.5 10.35 -1.5 10.75 -1.5 11.1 -1.8 11.7 -2.3 11.7 -3.6 L11.4 -5.0 Z" fill="none" stroke="#000000" stroke-linecap="round" stroke-linejoin="round" stroke-width="0.5"/>
    <path d="M7.1 -10.85 L5.95 -11.8 Q6.85 -9.65 6.6 -9.5 L6.5 -8.35 Q6.35 -7.95 6.55 -7.55 6.75 -7.2 7.2 -7.15 L7.95 -7.2 8.45 -7.9 Q8.7 -8.65 8.1 -9.75 L7.1 -10.85" fill="url(#gradient9)" fill-rule="evenodd" stroke="none"/>
    <path d="M7.1 -10.85 L5.95 -11.8 Q6.85 -9.65 6.6 -9.5 L6.5 -8.35 Q6.35 -7.95 6.55 -7.55 6.75 -7.2 7.2 -7.15 L7.95 -7.2 8.45 -7.9 Q8.7 -8.65 8.1 -9.75 L7.1 -10.85 Z" fill="none" stroke="#000000" stroke-linecap="round" stroke-linejoin="round" stroke-width="0.5"/>
    <path d="M0.55 -13.6 L-0.9 -13.85 Q0.95 -12.45 0.8 -12.2 L1.25 -11.1 Q1.35 -10.65 1.75 -10.45 L2.45 -10.4 Q2.9 -10.5 3.1 -10.85 3.35 -11.25 3.2 -11.65 3.05 -12.5 1.95 -13.1 L0.55 -13.6" fill="url(#gradient10)" fill-rule="evenodd" stroke="none"/>
    <path d="M0.55 -13.6 L-0.9 -13.85 Q0.95 -12.45 0.8 -12.2 L1.25 -11.1 Q1.35 -10.65 1.75 -10.45 L2.45 -10.4 Q2.9 -10.5 3.1 -10.85 3.35 -11.25 3.2 -11.65 3.05 -12.5 1.95 -13.1 L0.55 -13.6 Z" fill="none" stroke="#000000" stroke-linecap="round" stroke-linejoin="round" stroke-width="0.5"/>
    <path d="M-5.5 -12.3 L-6.9 -11.8 Q-4.6 -11.5 -4.6 -11.25 L-3.7 -10.5 Q-3.4 -10.2 -2.95 -10.2 -2.55 -10.2 -2.3 -10.5 -2.0 -10.8 -2.0 -11.25 L-2.3 -12.0 Q-2.8 -12.6 -4.1 -12.6 L-5.5 -12.3" fill="url(#gradient11)" fill-rule="evenodd" stroke="none"/>
    <path d="M-5.5 -12.3 L-6.9 -11.8 Q-4.6 -11.5 -4.6 -11.25 L-3.7 -10.5 Q-3.4 -10.2 -2.95 -10.2 -2.55 -10.2 -2.3 -10.5 -2.0 -10.8 -2.0 -11.25 L-2.3 -12.0 Q-2.8 -12.6 -4.1 -12.6 L-5.5 -12.3 Z" fill="none" stroke="#000000" stroke-linecap="round" stroke-linejoin="round" stroke-width="0.5"/>
  </g>
  <defs>
    <radialGradient cx="0" cy="0" gradientTransform="matrix(8.0E-4, 0.0015, 0.0015, -8.0E-4, -8.1, -8.3)" gradientUnits="userSpaceOnUse" id="gradient0" r="819.2" spreadMethod="pad">
      <stop offset="0.0" stop-color="#bebe4b"/>
      <stop offset="1.0" stop-color="#ffffff"/>
    </radialGradient>
    <radialGradient cx="0" cy="0" gradientTransform="matrix(0.0015, 8.0E-4, 8.0E-4, -0.0015, -10.75, -3.35)" gradientUnits="userSpaceOnUse" id="gradient1" r="819.2" spreadMethod="pad">
      <stop offset="0.0" stop-color="#bebe4b"/>
      <stop offset="1.0" stop-color="#ffffff"/>
    </radialGradient>
    <radialGradient cx="0" cy="0" gradientTransform="matrix(0.0017, 0.0, 0.0, -0.0017, -10.6, 2.5)" gradientUnits="userSpaceOnUse" id="gradient2" r="819.2" spreadMethod="pad">
      <stop offset="0.0" stop-color="#bebe4b"/>
      <stop offset="1.0" stop-color="#ffffff"/>
    </radialGradient>
    <radialGradient cx="0" cy="0" gradientTransform="matrix(0.0015, -8.0E-4, -8.0E-4, -0.0015, -7.9, 7.4)" gradientUnits="userSpaceOnUse" id="gradient3" r="819.2" spreadMethod="pad">
      <stop offset="0.0" stop-color="#bebe4b"/>
      <stop offset="1.0" stop-color="#ffffff"/>
    </radialGradient>
    <radialGradient cx="0" cy="0" gradientTransform="matrix(8.0E-4, -0.0015, -0.0015, -8.0E-4, -3.05, 10.85)" gradientUnits="userSpaceOnUse" id="gradient4" r="819.2" spreadMethod="pad">
      <stop offset="0.0" stop-color="#bebe4b"/>
      <stop offset="1.0" stop-color="#ffffff"/>
    </radialGradient>
    <radialGradient cx="0" cy="0" gradientTransform="matrix(0.0, -0.0017, -0.0017, 0.0, 2.1, 11.05)" gradientUnits="userSpaceOnUse" id="gradient5" r="819.2" spreadMethod="pad">
      <stop offset="0.0" stop-color="#bebe4b"/>
      <stop offset="1.0" stop-color="#ffffff"/>
    </radialGradient>
    <radialGradient cx="0" cy="0" gradientTransform="matrix(-8.0E-4, -0.0015, -0.0015, 8.0E-4, 7.9, 8.25)" gradientUnits="userSpaceOnUse" id="gradient6" r="819.2" spreadMethod="pad">
      <stop offset="0.0" stop-color="#bebe4b"/>
      <stop offset="1.0" stop-color="#ffffff"/>
    </radialGradient>
    <radialGradient cx="0" cy="0" gradientTransform="matrix(-0.0015, -8.0E-4, -8.0E-4, 0.0015, 10.35, 3.45)" gradientUnits="userSpaceOnUse" id="gradient7" r="819.2" spreadMethod="pad">
      <stop offset="0.0" stop-color="#bebe4b"/>
      <stop offset="1.0" stop-color="#ffffff"/>
    </radialGradient>
    <radialGradient cx="0" cy="0" gradientTransform="matrix(-0.0017, 0.0, 0.0, 0.0017, 10.35, -2.45)" gradientUnits="userSpaceOnUse" id="gradient8" r="819.2" spreadMethod="pad">
      <stop offset="0.0" stop-color="#bebe4b"/>
      <stop offset="1.0" stop-color="#ffffff"/>
    </radialGradient>
    <radialGradient cx="0" cy="0" gradientTransform="matrix(-0.0015, 8.0E-4, 8.0E-4, 0.0015, 7.45, -8.05)" gradientUnits="userSpaceOnUse" id="gradient9" r="819.2" spreadMethod="pad">
      <stop offset="0.0" stop-color="#bebe4b"/>
      <stop offset="1.0" stop-color="#ffffff"/>
    </radialGradient>
    <radialGradient cx="0" cy="0" gradientTransform="matrix(-8.0E-4, 0.0015, 0.0015, 8.0E-4, 2.25, -11.35)" gradientUnits="userSpaceOnUse" id="gradient10" r="819.2" spreadMethod="pad">
      <stop offset="0.0" stop-color="#bebe4b"/>
      <stop offset="1.0" stop-color="#ffffff"/>
    </radialGradient>
    <radialGradient cx="0" cy="0" gradientTransform="matrix(0.0, 0.0017, 0.0017, 0.0, -2.95, -11.25)" gradientUnits="userSpaceOnUse" id="gradient11" r="819.2" spreadMethod="pad">
      <stop offset="0.0" stop-color="#bebe4b"/>
      <stop offset="1.0" stop-color="#ffffff"/>
    </radialGradient>
  </defs>
</svg>
