<?xml version="1.0" encoding="UTF-8" standalone="no"?>
<svg xmlns:xlink="http://www.w3.org/1999/xlink" height="38.05px" width="40.15px" xmlns="http://www.w3.org/2000/svg">
  <g transform="matrix(1.0, 0.0, 0.0, 1.0, 20.55, 19.3)">
    <path d="M19.05 3.8 L18.75 5.95 Q17.65 2.75 17.25 2.8 L15.9 1.65 Q15.3 1.3 15.15 0.7 15.05 0.1 15.45 -0.4 15.75 -0.95 16.4 -1.1 L17.6 -0.85 Q18.7 -0.25 19.05 1.6 L19.05 3.8" fill="url(#gradient0)" fill-rule="evenodd" stroke="none"/>
    <path d="M19.05 3.8 L18.75 5.95 Q17.65 2.75 17.25 2.8 L15.9 1.65 Q15.3 1.3 15.15 0.7 15.05 0.1 15.45 -0.4 15.75 -0.95 16.4 -1.1 L17.6 -0.85 Q18.7 -0.25 19.05 1.6 L19.05 3.8 Z" fill="none" stroke="#000000" stroke-linecap="round" stroke-linejoin="round" stroke-width="0.5"/>
    <path d="M14.2 12.5 L12.85 14.25 Q13.5 10.9 13.15 10.75 L12.55 9.05 Q12.2 8.5 12.4 7.9 12.6 7.3 13.2 7.05 L14.4 6.95 Q15.0 7.15 15.3 7.75 15.95 8.8 15.35 10.6 L14.2 12.5" fill="url(#gradient1)" fill-rule="evenodd" stroke="none"/>
    <path d="M14.2 12.5 L12.85 14.25 Q13.5 10.9 13.15 10.75 L12.55 9.05 Q12.2 8.5 12.4 7.9 12.6 7.3 13.2 7.05 L14.4 6.95 Q15.0 7.15 15.3 7.75 15.95 8.8 15.35 10.6 L14.2 12.5 Z" fill="none" stroke="#000000" stroke-linecap="round" stroke-linejoin="round" stroke-width="0.5"/>
    <path d="M5.5 17.7 L3.4 18.5 Q5.7 15.95 5.45 15.65 L5.75 13.9 Q5.8 13.2 6.25 12.75 6.7 12.35 7.3 12.5 7.95 12.5 8.4 13.0 8.8 13.45 8.8 14.15 8.8 15.35 7.4 16.65 L5.5 17.7" fill="url(#gradient2)" fill-rule="evenodd" stroke="none"/>
    <path d="M5.5 17.7 L3.4 18.5 Q5.7 15.95 5.45 15.65 L5.75 13.9 Q5.8 13.2 6.25 12.75 6.7 12.35 7.3 12.5 7.95 12.5 8.4 13.0 8.8 13.45 8.8 14.15 8.8 15.35 7.4 16.65 L5.5 17.7 Z" fill="none" stroke="#000000" stroke-linecap="round" stroke-linejoin="round" stroke-width="0.5"/>
    <path d="M-4.45 18.3 L-6.6 18.0 Q-3.4 16.9 -3.45 16.5 L-2.3 15.15 -1.35 14.4 Q-0.75 14.3 -0.25 14.7 0.3 15.0 0.45 15.65 L0.2 16.85 Q-0.4 17.95 -2.25 18.3 L-4.45 18.3" fill="url(#gradient3)" fill-rule="evenodd" stroke="none"/>
    <path d="M-4.45 18.3 L-6.6 18.0 Q-3.4 16.9 -3.45 16.5 L-2.3 15.15 -1.35 14.4 Q-0.75 14.3 -0.25 14.7 0.3 15.0 0.45 15.65 L0.2 16.85 Q-0.4 17.95 -2.25 18.3 L-4.45 18.3 Z" fill="none" stroke="#000000" stroke-linecap="round" stroke-linejoin="round" stroke-width="0.5"/>
    <path d="M-13.8 14.4 L-15.55 13.0 -12.05 13.3 -10.35 12.7 -9.2 12.55 Q-8.6 12.75 -8.35 13.35 -8.05 13.95 -8.25 14.55 -8.45 15.15 -9.05 15.45 L-11.9 15.5 -13.8 14.4" fill="url(#gradient4)" fill-rule="evenodd" stroke="none"/>
    <path d="M-13.8 14.4 L-15.55 13.0 -12.05 13.3 -10.35 12.7 -9.2 12.55 Q-8.6 12.75 -8.35 13.35 -8.05 13.95 -8.25 14.55 -8.45 15.15 -9.05 15.45 L-11.9 15.5 -13.8 14.4 Z" fill="none" stroke="#000000" stroke-linecap="round" stroke-linejoin="round" stroke-width="0.5"/>
    <path d="M-18.8 6.65 L-19.6 4.55 Q-17.05 6.85 -16.75 6.6 L-15.0 6.9 Q-14.3 6.95 -13.85 7.4 -13.45 7.85 -13.6 8.45 -13.6 9.1 -14.1 9.55 -14.55 9.95 -15.25 9.95 -16.45 9.95 -17.75 8.55 L-18.8 6.65" fill="url(#gradient5)" fill-rule="evenodd" stroke="none"/>
    <path d="M-18.8 6.65 L-19.6 4.55 Q-17.05 6.85 -16.75 6.6 L-15.0 6.9 Q-14.3 6.95 -13.85 7.4 -13.45 7.85 -13.6 8.45 -13.6 9.1 -14.1 9.55 -14.55 9.95 -15.25 9.95 -16.45 9.95 -17.75 8.55 L-18.8 6.65 Z" fill="none" stroke="#000000" stroke-linecap="round" stroke-linejoin="round" stroke-width="0.5"/>
    <path d="M-20.25 -4.2 L-19.95 -6.35 Q-18.85 -3.15 -18.45 -3.2 L-17.1 -2.05 Q-16.5 -1.7 -16.35 -1.1 -16.25 -0.5 -16.65 0.0 -16.95 0.55 -17.6 0.7 L-18.8 0.45 Q-19.9 -0.15 -20.25 -2.0 L-20.25 -4.2" fill="url(#gradient6)" fill-rule="evenodd" stroke="none"/>
    <path d="M-20.25 -4.2 L-19.95 -6.35 Q-18.85 -3.15 -18.45 -3.2 L-17.1 -2.05 Q-16.5 -1.7 -16.35 -1.1 -16.25 -0.5 -16.65 0.0 -16.95 0.55 -17.6 0.7 L-18.8 0.45 Q-19.9 -0.15 -20.25 -2.0 L-20.25 -4.2 Z" fill="none" stroke="#000000" stroke-linecap="round" stroke-linejoin="round" stroke-width="0.5"/>
    <path d="M-15.2 -12.55 L-13.8 -14.3 Q-14.45 -10.95 -14.1 -10.8 L-13.5 -9.1 Q-13.15 -8.55 -13.35 -7.95 -13.55 -7.35 -14.15 -7.1 L-15.35 -7.0 -16.25 -7.8 Q-16.9 -8.85 -16.3 -10.65 L-15.2 -12.55" fill="url(#gradient7)" fill-rule="evenodd" stroke="none"/>
    <path d="M-15.2 -12.55 L-13.8 -14.3 Q-14.45 -10.95 -14.1 -10.8 L-13.5 -9.1 Q-13.15 -8.55 -13.35 -7.95 -13.55 -7.35 -14.15 -7.1 L-15.35 -7.0 -16.25 -7.8 Q-16.9 -8.85 -16.3 -10.65 L-15.2 -12.55 Z" fill="none" stroke="#000000" stroke-linecap="round" stroke-linejoin="round" stroke-width="0.5"/>
    <path d="M-6.55 -18.1 Q-4.8 -18.9 -4.45 -18.9 -6.75 -16.35 -6.5 -16.05 L-6.8 -14.3 Q-6.85 -13.6 -7.3 -13.15 -7.75 -12.75 -8.35 -12.9 -9.0 -12.9 -9.45 -13.4 -9.85 -13.85 -9.85 -14.55 -9.85 -15.75 -8.45 -17.05 L-6.55 -18.1" fill="url(#gradient8)" fill-rule="evenodd" stroke="none"/>
    <path d="M-6.55 -18.1 Q-4.8 -18.9 -4.45 -18.9 -6.75 -16.35 -6.5 -16.05 L-6.8 -14.3 Q-6.85 -13.6 -7.3 -13.15 -7.75 -12.75 -8.35 -12.9 -9.0 -12.9 -9.45 -13.4 -9.85 -13.85 -9.85 -14.55 -9.85 -15.75 -8.45 -17.05 L-6.55 -18.1 Z" fill="none" stroke="#000000" stroke-linecap="round" stroke-linejoin="round" stroke-width="0.5"/>
    <path d="M4.3 -19.0 L6.45 -18.7 Q3.25 -17.6 3.3 -17.2 L2.15 -15.85 1.2 -15.1 Q0.6 -15.0 0.1 -15.4 -0.45 -15.7 -0.6 -16.35 L-0.35 -17.55 Q0.25 -18.65 2.1 -19.0 L4.3 -19.0" fill="url(#gradient9)" fill-rule="evenodd" stroke="none"/>
    <path d="M4.3 -19.0 L6.45 -18.7 Q3.25 -17.6 3.3 -17.2 L2.15 -15.85 1.2 -15.1 Q0.6 -15.0 0.1 -15.4 -0.45 -15.7 -0.6 -16.35 L-0.35 -17.55 Q0.25 -18.65 2.1 -19.0 L4.3 -19.0 Z" fill="none" stroke="#000000" stroke-linecap="round" stroke-linejoin="round" stroke-width="0.5"/>
    <path d="M13.8 -14.5 L15.55 -13.1 12.05 -13.4 10.35 -12.8 9.2 -12.65 Q8.6 -12.85 8.35 -13.45 8.05 -14.05 8.25 -14.65 8.45 -15.25 9.05 -15.55 L11.9 -15.6 13.8 -14.5" fill="url(#gradient10)" fill-rule="evenodd" stroke="none"/>
    <path d="M13.8 -14.5 L15.55 -13.1 12.05 -13.4 10.35 -12.8 9.2 -12.65 Q8.6 -12.85 8.35 -13.45 8.05 -14.05 8.25 -14.65 8.45 -15.25 9.05 -15.55 L11.9 -15.6 13.8 -14.5 Z" fill="none" stroke="#000000" stroke-linecap="round" stroke-linejoin="round" stroke-width="0.5"/>
    <path d="M18.55 -6.45 L19.35 -4.35 Q16.8 -6.65 16.5 -6.4 L14.75 -6.7 Q14.05 -6.75 13.6 -7.2 13.2 -7.65 13.35 -8.25 13.35 -8.9 13.85 -9.35 14.3 -9.75 15.0 -9.75 16.2 -9.75 17.5 -8.35 L18.55 -6.45" fill="url(#gradient11)" fill-rule="evenodd" stroke="none"/>
    <path d="M18.55 -6.45 L19.35 -4.35 Q16.8 -6.65 16.5 -6.4 L14.75 -6.7 Q14.05 -6.75 13.6 -7.2 13.2 -7.65 13.35 -8.25 13.35 -8.9 13.85 -9.35 14.3 -9.75 15.0 -9.75 16.2 -9.75 17.5 -8.35 L18.55 -6.45 Z" fill="none" stroke="#000000" stroke-linecap="round" stroke-linejoin="round" stroke-width="0.5"/>
    <path d="M-16.9 3.2 L-16.6 5.1 Q-15.65 2.25 -15.3 2.35 L-14.15 1.4 Q-13.65 1.05 -13.55 0.5 -13.45 0.0 -13.75 -0.4 -14.1 -0.9 -14.6 -1.0 L-15.6 -0.8 Q-16.55 -0.35 -16.9 1.3 L-16.9 3.2" fill="url(#gradient12)" fill-rule="evenodd" stroke="none"/>
    <path d="M-16.9 3.2 L-16.6 5.1 Q-15.65 2.25 -15.3 2.35 L-14.15 1.4 Q-13.65 1.05 -13.55 0.5 -13.45 0.0 -13.75 -0.4 -14.1 -0.9 -14.6 -1.0 L-15.6 -0.8 Q-16.55 -0.35 -16.9 1.3 L-16.9 3.2 Z" fill="none" stroke="#000000" stroke-linecap="round" stroke-linejoin="round" stroke-width="0.5"/>
    <path d="M-12.65 10.8 L-11.5 12.25 Q-12.05 9.35 -11.7 9.25 L-11.2 7.8 Q-10.9 7.3 -11.05 6.8 -11.25 6.25 -11.8 6.05 L-12.75 5.95 Q-13.3 6.1 -13.6 6.65 -14.15 7.55 -13.65 9.1 L-12.65 10.8" fill="url(#gradient13)" fill-rule="evenodd" stroke="none"/>
    <path d="M-12.65 10.8 L-11.5 12.25 Q-12.05 9.35 -11.7 9.25 L-11.2 7.8 Q-10.9 7.3 -11.05 6.8 -11.25 6.25 -11.8 6.05 L-12.75 5.95 Q-13.3 6.1 -13.6 6.65 -14.15 7.55 -13.65 9.1 L-12.65 10.8 Z" fill="none" stroke="#000000" stroke-linecap="round" stroke-linejoin="round" stroke-width="0.5"/>
    <path d="M-5.0 15.4 L-3.2 16.15 Q-5.15 13.85 -4.9 13.6 L-5.2 12.1 Q-5.2 11.55 -5.6 11.2 -6.0 10.8 -6.55 10.9 -7.1 10.9 -7.45 11.3 -7.85 11.7 -7.8 12.35 -7.85 13.4 -6.65 14.5 L-5.0 15.4" fill="url(#gradient14)" fill-rule="evenodd" stroke="none"/>
    <path d="M-5.0 15.4 L-3.2 16.15 Q-5.15 13.85 -4.9 13.6 L-5.2 12.1 Q-5.2 11.55 -5.6 11.2 -6.0 10.8 -6.55 10.9 -7.1 10.9 -7.45 11.3 -7.85 11.7 -7.8 12.35 -7.85 13.4 -6.65 14.5 L-5.0 15.4 Z" fill="none" stroke="#000000" stroke-linecap="round" stroke-linejoin="round" stroke-width="0.5"/>
    <path d="M3.5 15.8 L5.4 15.5 Q2.55 14.55 2.65 14.2 L1.7 13.05 Q1.35 12.55 0.8 12.45 0.3 12.35 -0.1 12.65 -0.6 13.0 -0.7 13.5 -0.85 14.05 -0.5 14.5 -0.05 15.45 1.6 15.8 L3.5 15.8" fill="url(#gradient15)" fill-rule="evenodd" stroke="none"/>
    <path d="M3.5 15.8 L5.4 15.5 Q2.55 14.55 2.65 14.2 L1.7 13.05 Q1.35 12.55 0.8 12.45 0.3 12.35 -0.1 12.65 -0.6 13.0 -0.7 13.5 -0.85 14.05 -0.5 14.5 -0.05 15.45 1.6 15.8 L3.5 15.8 Z" fill="none" stroke="#000000" stroke-linecap="round" stroke-linejoin="round" stroke-width="0.5"/>
    <path d="M11.7 12.4 L13.15 11.25 10.15 11.45 8.7 10.95 7.7 10.8 Q7.15 11.0 6.95 11.55 6.7 12.0 6.85 12.5 L7.55 13.35 10.0 13.4 11.7 12.4" fill="url(#gradient16)" fill-rule="evenodd" stroke="none"/>
    <path d="M11.7 12.4 L13.15 11.25 10.15 11.45 8.7 10.95 7.7 10.8 Q7.15 11.0 6.95 11.55 6.7 12.0 6.85 12.5 L7.55 13.35 10.0 13.4 11.7 12.4 Z" fill="none" stroke="#000000" stroke-linecap="round" stroke-linejoin="round" stroke-width="0.5"/>
    <path d="M16.0 5.75 L16.75 3.95 Q14.45 5.9 14.2 5.65 L12.7 5.95 Q12.15 5.95 11.8 6.35 11.4 6.75 11.5 7.3 11.5 7.85 11.9 8.2 12.3 8.6 12.95 8.55 14.0 8.6 15.1 7.4 L16.0 5.75" fill="url(#gradient17)" fill-rule="evenodd" stroke="none"/>
    <path d="M16.0 5.75 L16.75 3.95 Q14.45 5.9 14.2 5.65 L12.7 5.95 Q12.15 5.95 11.8 6.35 11.4 6.75 11.5 7.3 11.5 7.85 11.9 8.2 12.3 8.6 12.95 8.55 14.0 8.6 15.1 7.4 L16.0 5.75 Z" fill="none" stroke="#000000" stroke-linecap="round" stroke-linejoin="round" stroke-width="0.5"/>
    <path d="M17.1 -3.7 L16.8 -5.6 Q15.85 -2.75 15.5 -2.85 L14.35 -1.9 Q13.85 -1.55 13.75 -1.0 13.65 -0.5 13.95 -0.1 14.3 0.4 14.8 0.5 L15.8 0.3 Q16.75 -0.15 17.1 -1.8 L17.1 -3.7" fill="url(#gradient18)" fill-rule="evenodd" stroke="none"/>
    <path d="M17.1 -3.7 L16.8 -5.6 Q15.85 -2.75 15.5 -2.85 L14.35 -1.9 Q13.85 -1.55 13.75 -1.0 13.65 -0.5 13.95 -0.1 14.3 0.4 14.8 0.5 L15.8 0.3 Q16.75 -0.15 17.1 -1.8 L17.1 -3.7 Z" fill="none" stroke="#000000" stroke-linecap="round" stroke-linejoin="round" stroke-width="0.5"/>
    <path d="M12.85 -10.9 L11.7 -12.35 Q12.25 -9.45 11.9 -9.35 L11.4 -7.9 Q11.1 -7.4 11.25 -6.9 11.45 -6.35 12.0 -6.15 L12.95 -6.05 Q13.5 -6.2 13.8 -6.75 14.35 -7.65 13.85 -9.2 L12.85 -10.9" fill="url(#gradient19)" fill-rule="evenodd" stroke="none"/>
    <path d="M12.85 -10.9 L11.7 -12.35 Q12.25 -9.45 11.9 -9.35 L11.4 -7.9 Q11.1 -7.4 11.25 -6.9 11.45 -6.35 12.0 -6.15 L12.95 -6.05 Q13.5 -6.2 13.8 -6.75 14.35 -7.65 13.85 -9.2 L12.85 -10.9 Z" fill="none" stroke="#000000" stroke-linecap="round" stroke-linejoin="round" stroke-width="0.5"/>
    <path d="M5.4 -15.65 L3.6 -16.4 Q5.55 -14.1 5.3 -13.85 L5.6 -12.35 Q5.6 -11.8 6.0 -11.45 6.4 -11.05 6.95 -11.15 7.5 -11.15 7.85 -11.55 8.25 -11.95 8.2 -12.6 8.25 -13.65 7.05 -14.75 L5.4 -15.65" fill="url(#gradient20)" fill-rule="evenodd" stroke="none"/>
    <path d="M5.4 -15.65 L3.6 -16.4 Q5.55 -14.1 5.3 -13.85 L5.6 -12.35 Q5.6 -11.8 6.0 -11.45 6.4 -11.05 6.95 -11.15 7.5 -11.15 7.85 -11.55 8.25 -11.95 8.2 -12.6 8.25 -13.65 7.05 -14.75 L5.4 -15.65 Z" fill="none" stroke="#000000" stroke-linecap="round" stroke-linejoin="round" stroke-width="0.5"/>
    <path d="M-4.05 -16.55 L-5.95 -16.25 Q-3.1 -15.3 -3.2 -14.95 L-2.25 -13.8 -1.35 -13.2 Q-0.85 -13.1 -0.45 -13.4 0.05 -13.75 0.15 -14.25 0.3 -14.8 -0.05 -15.25 -0.5 -16.2 -2.15 -16.55 L-4.05 -16.55" fill="url(#gradient21)" fill-rule="evenodd" stroke="none"/>
    <path d="M-4.05 -16.55 L-5.95 -16.25 Q-3.1 -15.3 -3.2 -14.95 L-2.25 -13.8 -1.35 -13.2 Q-0.85 -13.1 -0.45 -13.4 0.05 -13.75 0.15 -14.25 0.3 -14.8 -0.05 -15.25 -0.5 -16.2 -2.15 -16.55 L-4.05 -16.55 Z" fill="none" stroke="#000000" stroke-linecap="round" stroke-linejoin="round" stroke-width="0.5"/>
    <path d="M-12.45 -12.6 L-13.9 -11.45 -10.9 -11.65 -9.45 -11.15 -8.45 -11.0 Q-7.9 -11.2 -7.7 -11.75 -7.45 -12.2 -7.6 -12.7 -7.75 -13.25 -8.3 -13.55 L-10.75 -13.6 -12.45 -12.6" fill="url(#gradient22)" fill-rule="evenodd" stroke="none"/>
    <path d="M-12.45 -12.6 L-13.9 -11.45 -10.9 -11.65 -9.45 -11.15 -8.45 -11.0 Q-7.9 -11.2 -7.7 -11.75 -7.45 -12.2 -7.6 -12.7 -7.75 -13.25 -8.3 -13.55 L-10.75 -13.6 -12.45 -12.6 Z" fill="none" stroke="#000000" stroke-linecap="round" stroke-linejoin="round" stroke-width="0.5"/>
    <path d="M-16.4 -5.7 L-17.15 -3.9 Q-14.85 -5.85 -14.6 -5.6 L-13.1 -5.9 Q-12.55 -5.9 -12.2 -6.3 -11.8 -6.7 -11.9 -7.25 -11.9 -7.8 -12.3 -8.15 -12.7 -8.55 -13.35 -8.5 -14.4 -8.55 -15.5 -7.35 L-16.4 -5.7" fill="url(#gradient23)" fill-rule="evenodd" stroke="none"/>
    <path d="M-16.4 -5.7 L-17.15 -3.9 Q-14.85 -5.85 -14.6 -5.6 L-13.1 -5.9 Q-12.55 -5.9 -12.2 -6.3 -11.8 -6.7 -11.9 -7.25 -11.9 -7.8 -12.3 -8.15 -12.7 -8.55 -13.35 -8.5 -14.4 -8.55 -15.5 -7.35 L-16.4 -5.7 Z" fill="none" stroke="#000000" stroke-linecap="round" stroke-linejoin="round" stroke-width="0.5"/>
  </g>
  <defs>
    <radialGradient cx="0" cy="0" gradientTransform="matrix(-0.0025, 5.0E-4, -5.0E-4, -0.0025, 16.7, 0.35)" gradientUnits="userSpaceOnUse" id="gradient0" r="819.2" spreadMethod="pad">
      <stop offset="0.0" stop-color="#bebe4b"/>
      <stop offset="1.0" stop-color="#ffffff"/>
    </radialGradient>
    <radialGradient cx="0" cy="0" gradientTransform="matrix(-0.0024, -8.0E-4, 8.0E-4, -0.0024, 13.9, 8.4)" gradientUnits="userSpaceOnUse" id="gradient1" r="819.2" spreadMethod="pad">
      <stop offset="0.0" stop-color="#bebe4b"/>
      <stop offset="1.0" stop-color="#ffffff"/>
    </radialGradient>
    <radialGradient cx="0" cy="0" gradientTransform="matrix(-0.0017, -0.0019, 0.0019, -0.0017, 7.3, 13.95)" gradientUnits="userSpaceOnUse" id="gradient2" r="819.2" spreadMethod="pad">
      <stop offset="0.0" stop-color="#bebe4b"/>
      <stop offset="1.0" stop-color="#ffffff"/>
    </radialGradient>
    <radialGradient cx="0" cy="0" gradientTransform="matrix(-5.0E-4, -0.0025, 0.0025, -5.0E-4, -1.0, 15.95)" gradientUnits="userSpaceOnUse" id="gradient3" r="819.2" spreadMethod="pad">
      <stop offset="0.0" stop-color="#bebe4b"/>
      <stop offset="1.0" stop-color="#ffffff"/>
    </radialGradient>
    <radialGradient cx="0" cy="0" gradientTransform="matrix(8.0E-4, -0.0024, 0.0024, 8.0E-4, -9.7, 14.05)" gradientUnits="userSpaceOnUse" id="gradient4" r="819.2" spreadMethod="pad">
      <stop offset="0.0" stop-color="#bebe4b"/>
      <stop offset="1.0" stop-color="#ffffff"/>
    </radialGradient>
    <radialGradient cx="0" cy="0" gradientTransform="matrix(0.0019, -0.0017, 0.0017, 0.0019, -15.05, 8.45)" gradientUnits="userSpaceOnUse" id="gradient5" r="819.2" spreadMethod="pad">
      <stop offset="0.0" stop-color="#bebe4b"/>
      <stop offset="1.0" stop-color="#ffffff"/>
    </radialGradient>
    <radialGradient cx="0" cy="0" gradientTransform="matrix(0.0025, -5.0E-4, 5.0E-4, 0.0025, -17.9, -0.75)" gradientUnits="userSpaceOnUse" id="gradient6" r="819.2" spreadMethod="pad">
      <stop offset="0.0" stop-color="#bebe4b"/>
      <stop offset="1.0" stop-color="#ffffff"/>
    </radialGradient>
    <radialGradient cx="0" cy="0" gradientTransform="matrix(0.0024, 8.0E-4, -8.0E-4, 0.0024, -14.85, -8.45)" gradientUnits="userSpaceOnUse" id="gradient7" r="819.2" spreadMethod="pad">
      <stop offset="0.0" stop-color="#bebe4b"/>
      <stop offset="1.0" stop-color="#ffffff"/>
    </radialGradient>
    <radialGradient cx="0" cy="0" gradientTransform="matrix(0.0017, 0.0019, -0.0019, 0.0017, -8.35, -14.35)" gradientUnits="userSpaceOnUse" id="gradient8" r="819.2" spreadMethod="pad">
      <stop offset="0.0" stop-color="#bebe4b"/>
      <stop offset="1.0" stop-color="#ffffff"/>
    </radialGradient>
    <radialGradient cx="0" cy="0" gradientTransform="matrix(5.0E-4, 0.0025, -0.0025, 5.0E-4, 0.85, -16.65)" gradientUnits="userSpaceOnUse" id="gradient9" r="819.2" spreadMethod="pad">
      <stop offset="0.0" stop-color="#bebe4b"/>
      <stop offset="1.0" stop-color="#ffffff"/>
    </radialGradient>
    <radialGradient cx="0" cy="0" gradientTransform="matrix(-8.0E-4, 0.0024, -0.0024, -8.0E-4, 9.7, -14.15)" gradientUnits="userSpaceOnUse" id="gradient10" r="819.2" spreadMethod="pad">
      <stop offset="0.0" stop-color="#bebe4b"/>
      <stop offset="1.0" stop-color="#ffffff"/>
    </radialGradient>
    <radialGradient cx="0" cy="0" gradientTransform="matrix(-0.0019, 0.0017, -0.0017, -0.0019, 14.8, -8.25)" gradientUnits="userSpaceOnUse" id="gradient11" r="819.2" spreadMethod="pad">
      <stop offset="0.0" stop-color="#bebe4b"/>
      <stop offset="1.0" stop-color="#ffffff"/>
    </radialGradient>
    <radialGradient cx="0" cy="0" gradientTransform="matrix(0.0021, 5.0E-4, 5.0E-4, -0.0021, -14.85, 0.25)" gradientUnits="userSpaceOnUse" id="gradient12" r="819.2" spreadMethod="pad">
      <stop offset="0.0" stop-color="#bebe4b"/>
      <stop offset="1.0" stop-color="#ffffff"/>
    </radialGradient>
    <radialGradient cx="0" cy="0" gradientTransform="matrix(0.0021, -7.0E-4, -7.0E-4, -0.0021, -12.35, 7.2)" gradientUnits="userSpaceOnUse" id="gradient13" r="819.2" spreadMethod="pad">
      <stop offset="0.0" stop-color="#bebe4b"/>
      <stop offset="1.0" stop-color="#ffffff"/>
    </radialGradient>
    <radialGradient cx="0" cy="0" gradientTransform="matrix(0.0015, -0.0016, -0.0016, -0.0015, -6.5, 12.2)" gradientUnits="userSpaceOnUse" id="gradient14" r="819.2" spreadMethod="pad">
      <stop offset="0.0" stop-color="#bebe4b"/>
      <stop offset="1.0" stop-color="#ffffff"/>
    </radialGradient>
    <radialGradient cx="0" cy="0" gradientTransform="matrix(5.0E-4, -0.0021, -0.0021, -5.0E-4, 0.55, 13.75)" gradientUnits="userSpaceOnUse" id="gradient15" r="819.2" spreadMethod="pad">
      <stop offset="0.0" stop-color="#bebe4b"/>
      <stop offset="1.0" stop-color="#ffffff"/>
    </radialGradient>
    <radialGradient cx="0" cy="0" gradientTransform="matrix(-7.0E-4, -0.0021, -0.0021, 7.0E-4, 8.1, 12.1)" gradientUnits="userSpaceOnUse" id="gradient16" r="819.2" spreadMethod="pad">
      <stop offset="0.0" stop-color="#bebe4b"/>
      <stop offset="1.0" stop-color="#ffffff"/>
    </radialGradient>
    <radialGradient cx="0" cy="0" gradientTransform="matrix(-0.0016, -0.0015, -0.0015, 0.0016, 12.8, 7.25)" gradientUnits="userSpaceOnUse" id="gradient17" r="819.2" spreadMethod="pad">
      <stop offset="0.0" stop-color="#bebe4b"/>
      <stop offset="1.0" stop-color="#ffffff"/>
    </radialGradient>
    <radialGradient cx="0" cy="0" gradientTransform="matrix(-0.0021, -5.0E-4, -5.0E-4, 0.0021, 15.05, -0.75)" gradientUnits="userSpaceOnUse" id="gradient18" r="819.2" spreadMethod="pad">
      <stop offset="0.0" stop-color="#bebe4b"/>
      <stop offset="1.0" stop-color="#ffffff"/>
    </radialGradient>
    <radialGradient cx="0" cy="0" gradientTransform="matrix(-0.0021, 7.0E-4, 7.0E-4, 0.0021, 12.55, -7.3)" gradientUnits="userSpaceOnUse" id="gradient19" r="819.2" spreadMethod="pad">
      <stop offset="0.0" stop-color="#bebe4b"/>
      <stop offset="1.0" stop-color="#ffffff"/>
    </radialGradient>
    <radialGradient cx="0" cy="0" gradientTransform="matrix(-0.0015, 0.0016, 0.0016, 0.0015, 6.9, -12.45)" gradientUnits="userSpaceOnUse" id="gradient20" r="819.2" spreadMethod="pad">
      <stop offset="0.0" stop-color="#bebe4b"/>
      <stop offset="1.0" stop-color="#ffffff"/>
    </radialGradient>
    <radialGradient cx="0" cy="0" gradientTransform="matrix(-5.0E-4, 0.0021, 0.0021, 5.0E-4, -1.1, -14.5)" gradientUnits="userSpaceOnUse" id="gradient21" r="819.2" spreadMethod="pad">
      <stop offset="0.0" stop-color="#bebe4b"/>
      <stop offset="1.0" stop-color="#ffffff"/>
    </radialGradient>
    <radialGradient cx="0" cy="0" gradientTransform="matrix(7.0E-4, 0.0021, 0.0021, -7.0E-4, -8.85, -12.3)" gradientUnits="userSpaceOnUse" id="gradient22" r="819.2" spreadMethod="pad">
      <stop offset="0.0" stop-color="#bebe4b"/>
      <stop offset="1.0" stop-color="#ffffff"/>
    </radialGradient>
    <radialGradient cx="0" cy="0" gradientTransform="matrix(0.0016, 0.0015, 0.0015, -0.0016, -13.2, -7.2)" gradientUnits="userSpaceOnUse" id="gradient23" r="819.2" spreadMethod="pad">
      <stop offset="0.0" stop-color="#bebe4b"/>
      <stop offset="1.0" stop-color="#ffffff"/>
    </radialGradient>
  </defs>
</svg>
