<?xml version="1.0" encoding="UTF-8" standalone="no"?>
<svg xmlns:xlink="http://www.w3.org/1999/xlink" height="32.0px" width="30.8px" xmlns="http://www.w3.org/2000/svg">
  <g transform="matrix(1.0, 0.0, 0.0, 1.0, 15.6, 16.25)">
    <path d="M12.2 -9.25 L13.3 -7.95 Q10.8 -9.0 10.65 -8.7 L9.3 -8.55 8.4 -8.65 Q7.95 -8.9 7.9 -9.4 7.75 -9.85 8.0 -10.25 8.25 -10.7 8.75 -10.85 9.65 -11.15 10.9 -10.45 L12.2 -9.25" fill="url(#gradient0)" fill-rule="evenodd" stroke="none"/>
    <path d="M12.2 -9.25 L13.3 -7.95 Q10.8 -9.0 10.65 -8.7 L9.3 -8.55 8.4 -8.65 Q7.95 -8.9 7.9 -9.4 7.75 -9.85 8.0 -10.25 8.25 -10.7 8.75 -10.85 9.65 -11.15 10.9 -10.45 L12.2 -9.25 Z" fill="none" stroke="#000000" stroke-linecap="round" stroke-linejoin="round" stroke-width="0.5"/>
    <path d="M14.65 -1.9 L14.95 -0.2 Q13.4 -2.3 13.1 -2.15 L11.85 -2.7 Q11.3 -2.8 11.05 -3.2 10.8 -3.65 11.0 -4.1 L11.55 -4.8 12.45 -4.95 Q13.45 -4.75 14.15 -3.5 L14.65 -1.9" fill="url(#gradient1)" fill-rule="evenodd" stroke="none"/>
    <path d="M14.65 -1.9 L14.95 -0.2 Q13.4 -2.3 13.1 -2.15 L11.85 -2.7 Q11.3 -2.8 11.05 -3.2 10.8 -3.65 11.0 -4.1 L11.55 -4.8 12.45 -4.95 Q13.45 -4.75 14.15 -3.5 L14.65 -1.9 Z" fill="none" stroke="#000000" stroke-linecap="round" stroke-linejoin="round" stroke-width="0.5"/>
    <path d="M13.15 5.85 L12.55 7.45 Q12.25 4.8 11.95 4.8 L11.1 3.75 Q10.7 3.4 10.7 2.9 10.7 2.4 11.1 2.1 11.45 1.75 11.95 1.75 12.4 1.75 12.8 2.1 13.55 2.7 13.55 4.2 L13.15 5.85" fill="url(#gradient2)" fill-rule="evenodd" stroke="none"/>
    <path d="M13.15 5.85 L12.55 7.45 Q12.25 4.8 11.95 4.8 L11.1 3.75 Q10.7 3.4 10.7 2.9 10.7 2.4 11.1 2.1 11.45 1.75 11.95 1.75 12.4 1.75 12.8 2.1 13.55 2.7 13.55 4.2 L13.15 5.85 Z" fill="none" stroke="#000000" stroke-linecap="round" stroke-linejoin="round" stroke-width="0.5"/>
    <path d="M8.3 11.95 L7.0 13.05 Q8.05 10.55 7.75 10.4 L7.6 9.05 Q7.45 8.55 7.7 8.15 7.95 7.7 8.45 7.65 L9.3 7.75 9.9 8.5 Q10.2 9.4 9.5 10.65 L8.3 11.95" fill="url(#gradient3)" fill-rule="evenodd" stroke="none"/>
    <path d="M8.3 11.95 L7.0 13.05 Q8.05 10.55 7.75 10.4 L7.6 9.05 Q7.45 8.55 7.7 8.15 7.95 7.7 8.45 7.65 L9.3 7.75 9.9 8.5 Q10.2 9.4 9.5 10.65 L8.3 11.95 Z" fill="none" stroke="#000000" stroke-linecap="round" stroke-linejoin="round" stroke-width="0.5"/>
    <path d="M1.2 15.2 L-0.5 15.5 Q1.6 13.95 1.45 13.65 L2.0 12.4 Q2.1 11.85 2.5 11.6 L3.4 11.55 Q3.85 11.7 4.1 12.1 L4.25 13.0 Q4.05 14.0 2.8 14.7 L1.2 15.2" fill="url(#gradient4)" fill-rule="evenodd" stroke="none"/>
    <path d="M1.2 15.2 L-0.5 15.5 Q1.6 13.95 1.45 13.65 L2.0 12.4 Q2.1 11.85 2.5 11.6 L3.4 11.55 Q3.85 11.7 4.1 12.1 L4.25 13.0 Q4.05 14.0 2.8 14.7 L1.2 15.2 Z" fill="none" stroke="#000000" stroke-linecap="round" stroke-linejoin="round" stroke-width="0.5"/>
    <path d="M-5.95 14.1 L-7.6 13.5 Q-4.9 13.2 -4.9 12.9 L-3.85 12.05 Q-3.5 11.65 -3.0 11.65 -2.5 11.65 -2.2 12.05 -1.85 12.4 -1.85 12.9 -1.85 13.35 -2.2 13.75 -2.8 14.5 -4.3 14.5 L-5.95 14.1" fill="url(#gradient5)" fill-rule="evenodd" stroke="none"/>
    <path d="M-5.95 14.1 L-7.6 13.5 Q-4.9 13.2 -4.9 12.9 L-3.85 12.05 Q-3.5 11.65 -3.0 11.65 -2.5 11.65 -2.2 12.05 -1.85 12.4 -1.85 12.9 -1.85 13.35 -2.2 13.75 -2.8 14.5 -4.3 14.5 L-5.95 14.1 Z" fill="none" stroke="#000000" stroke-linecap="round" stroke-linejoin="round" stroke-width="0.5"/>
    <path d="M-12.95 9.3 L-14.05 8.0 Q-11.55 9.05 -11.4 8.75 L-10.05 8.6 -9.15 8.7 Q-8.7 8.9 -8.65 9.45 -8.5 9.9 -8.75 10.3 L-9.5 10.9 Q-10.4 11.2 -11.65 10.5 L-12.95 9.3" fill="url(#gradient6)" fill-rule="evenodd" stroke="none"/>
    <path d="M-12.95 9.3 L-14.05 8.0 Q-11.55 9.05 -11.4 8.75 L-10.05 8.6 -9.15 8.7 Q-8.7 8.9 -8.65 9.45 -8.5 9.9 -8.75 10.3 L-9.5 10.9 Q-10.4 11.2 -11.65 10.5 L-12.95 9.3 Z" fill="none" stroke="#000000" stroke-linecap="round" stroke-linejoin="round" stroke-width="0.5"/>
    <path d="M-15.05 2.15 L-15.35 0.45 -13.5 2.4 -12.25 2.95 Q-11.7 3.05 -11.45 3.45 -11.25 3.9 -11.4 4.35 L-11.95 5.05 -12.85 5.2 Q-13.85 5.0 -14.55 3.75 L-15.05 2.15" fill="url(#gradient7)" fill-rule="evenodd" stroke="none"/>
    <path d="M-15.05 2.15 L-15.35 0.45 -13.5 2.4 -12.25 2.95 Q-11.7 3.05 -11.45 3.45 -11.25 3.9 -11.4 4.35 L-11.95 5.05 -12.85 5.2 Q-13.85 5.0 -14.55 3.75 L-15.05 2.15 Z" fill="none" stroke="#000000" stroke-linecap="round" stroke-linejoin="round" stroke-width="0.5"/>
    <path d="M-13.85 -5.85 L-13.25 -7.45 Q-12.95 -4.8 -12.65 -4.8 L-11.8 -3.75 Q-11.4 -3.4 -11.4 -2.9 -11.4 -2.4 -11.8 -2.1 -12.15 -1.75 -12.65 -1.75 -13.1 -1.75 -13.5 -2.1 -14.25 -2.7 -14.25 -4.2 L-13.85 -5.85" fill="url(#gradient8)" fill-rule="evenodd" stroke="none"/>
    <path d="M-13.85 -5.85 L-13.25 -7.45 Q-12.95 -4.8 -12.65 -4.8 L-11.8 -3.75 Q-11.4 -3.4 -11.4 -2.9 -11.4 -2.4 -11.8 -2.1 -12.15 -1.75 -12.65 -1.75 -13.1 -1.75 -13.5 -2.1 -14.25 -2.7 -14.25 -4.2 L-13.85 -5.85 Z" fill="none" stroke="#000000" stroke-linecap="round" stroke-linejoin="round" stroke-width="0.5"/>
    <path d="M-8.65 -12.6 L-7.35 -13.7 Q-8.4 -11.2 -8.1 -11.05 L-7.95 -9.7 Q-7.8 -9.2 -8.05 -8.8 -8.25 -8.35 -8.8 -8.3 L-9.65 -8.4 -10.25 -9.15 Q-10.55 -10.05 -9.85 -11.3 L-8.65 -12.6" fill="url(#gradient9)" fill-rule="evenodd" stroke="none"/>
    <path d="M-8.65 -12.6 L-7.35 -13.7 Q-8.4 -11.2 -8.1 -11.05 L-7.95 -9.7 Q-7.8 -9.2 -8.05 -8.8 -8.25 -8.35 -8.8 -8.3 L-9.65 -8.4 -10.25 -9.15 Q-10.55 -10.05 -9.85 -11.3 L-8.65 -12.6 Z" fill="none" stroke="#000000" stroke-linecap="round" stroke-linejoin="round" stroke-width="0.5"/>
    <path d="M-1.2 -15.7 L0.5 -16.0 Q-1.6 -14.45 -1.45 -14.15 L-2.0 -12.9 Q-2.1 -12.35 -2.5 -12.1 L-3.4 -12.05 Q-3.85 -12.2 -4.1 -12.6 L-4.25 -13.5 Q-4.05 -14.5 -2.8 -15.2 L-1.2 -15.7" fill="url(#gradient10)" fill-rule="evenodd" stroke="none"/>
    <path d="M-1.2 -15.7 L0.5 -16.0 Q-1.6 -14.45 -1.45 -14.15 L-2.0 -12.9 Q-2.1 -12.35 -2.5 -12.1 L-3.4 -12.05 Q-3.85 -12.2 -4.1 -12.6 L-4.25 -13.5 Q-4.05 -14.5 -2.8 -15.2 L-1.2 -15.7 Z" fill="none" stroke="#000000" stroke-linecap="round" stroke-linejoin="round" stroke-width="0.5"/>
    <path d="M6.0 -14.2 L7.65 -13.6 Q4.95 -13.3 4.95 -13.0 L3.9 -12.15 Q3.55 -11.75 3.05 -11.75 2.55 -11.75 2.25 -12.15 1.9 -12.5 1.9 -13.0 1.9 -13.45 2.25 -13.85 2.85 -14.6 4.35 -14.6 L6.0 -14.2" fill="url(#gradient11)" fill-rule="evenodd" stroke="none"/>
    <path d="M6.0 -14.2 L7.65 -13.6 Q4.95 -13.3 4.95 -13.0 L3.9 -12.15 Q3.55 -11.75 3.05 -11.75 2.55 -11.75 2.25 -12.15 1.9 -12.5 1.9 -13.0 1.9 -13.45 2.25 -13.85 2.85 -14.6 4.35 -14.6 L6.0 -14.2 Z" fill="none" stroke="#000000" stroke-linecap="round" stroke-linejoin="round" stroke-width="0.5"/>
  </g>
  <defs>
    <radialGradient cx="0" cy="0" gradientTransform="matrix(-0.001, 0.0017, -0.0017, -0.001, 9.0, -9.7)" gradientUnits="userSpaceOnUse" id="gradient0" r="819.2" spreadMethod="pad">
      <stop offset="0.0" stop-color="#bebe4b"/>
      <stop offset="1.0" stop-color="#ffffff"/>
    </radialGradient>
    <radialGradient cx="0" cy="0" gradientTransform="matrix(-0.0017, 0.001, -0.001, -0.0017, 12.1, -3.8)" gradientUnits="userSpaceOnUse" id="gradient1" r="819.2" spreadMethod="pad">
      <stop offset="0.0" stop-color="#bebe4b"/>
      <stop offset="1.0" stop-color="#ffffff"/>
    </radialGradient>
    <radialGradient cx="0" cy="0" gradientTransform="matrix(-0.002, 0.0, 0.0, -0.002, 11.95, 2.9)" gradientUnits="userSpaceOnUse" id="gradient2" r="819.2" spreadMethod="pad">
      <stop offset="0.0" stop-color="#bebe4b"/>
      <stop offset="1.0" stop-color="#ffffff"/>
    </radialGradient>
    <radialGradient cx="0" cy="0" gradientTransform="matrix(-0.0017, -0.001, 0.001, -0.0017, 8.75, 8.75)" gradientUnits="userSpaceOnUse" id="gradient3" r="819.2" spreadMethod="pad">
      <stop offset="0.0" stop-color="#bebe4b"/>
      <stop offset="1.0" stop-color="#ffffff"/>
    </radialGradient>
    <radialGradient cx="0" cy="0" gradientTransform="matrix(-0.001, -0.0017, 0.0017, -0.001, 3.1, 12.65)" gradientUnits="userSpaceOnUse" id="gradient4" r="819.2" spreadMethod="pad">
      <stop offset="0.0" stop-color="#bebe4b"/>
      <stop offset="1.0" stop-color="#ffffff"/>
    </radialGradient>
    <radialGradient cx="0" cy="0" gradientTransform="matrix(0.0, -0.002, 0.002, 0.0, -3.0, 12.9)" gradientUnits="userSpaceOnUse" id="gradient5" r="819.2" spreadMethod="pad">
      <stop offset="0.0" stop-color="#bebe4b"/>
      <stop offset="1.0" stop-color="#ffffff"/>
    </radialGradient>
    <radialGradient cx="0" cy="0" gradientTransform="matrix(0.001, -0.0017, 0.0017, 0.001, -9.75, 9.75)" gradientUnits="userSpaceOnUse" id="gradient6" r="819.2" spreadMethod="pad">
      <stop offset="0.0" stop-color="#bebe4b"/>
      <stop offset="1.0" stop-color="#ffffff"/>
    </radialGradient>
    <radialGradient cx="0" cy="0" gradientTransform="matrix(0.0017, -0.001, 0.001, 0.0017, -12.5, 4.05)" gradientUnits="userSpaceOnUse" id="gradient7" r="819.2" spreadMethod="pad">
      <stop offset="0.0" stop-color="#bebe4b"/>
      <stop offset="1.0" stop-color="#ffffff"/>
    </radialGradient>
    <radialGradient cx="0" cy="0" gradientTransform="matrix(0.002, 0.0, 0.0, 0.002, -12.65, -2.9)" gradientUnits="userSpaceOnUse" id="gradient8" r="819.2" spreadMethod="pad">
      <stop offset="0.0" stop-color="#bebe4b"/>
      <stop offset="1.0" stop-color="#ffffff"/>
    </radialGradient>
    <radialGradient cx="0" cy="0" gradientTransform="matrix(0.0017, 0.001, -0.001, 0.0017, -9.1, -9.4)" gradientUnits="userSpaceOnUse" id="gradient9" r="819.2" spreadMethod="pad">
      <stop offset="0.0" stop-color="#bebe4b"/>
      <stop offset="1.0" stop-color="#ffffff"/>
    </radialGradient>
    <radialGradient cx="0" cy="0" gradientTransform="matrix(0.001, 0.0017, -0.0017, 0.001, -3.1, -13.15)" gradientUnits="userSpaceOnUse" id="gradient10" r="819.2" spreadMethod="pad">
      <stop offset="0.0" stop-color="#bebe4b"/>
      <stop offset="1.0" stop-color="#ffffff"/>
    </radialGradient>
    <radialGradient cx="0" cy="0" gradientTransform="matrix(0.0, 0.002, -0.002, 0.0, 3.05, -13.0)" gradientUnits="userSpaceOnUse" id="gradient11" r="819.2" spreadMethod="pad">
      <stop offset="0.0" stop-color="#bebe4b"/>
      <stop offset="1.0" stop-color="#ffffff"/>
    </radialGradient>
  </defs>
</svg>
