<?xml version="1.0" encoding="UTF-8" standalone="no"?>
<svg xmlns:xlink="http://www.w3.org/1999/xlink" height="22.2px" width="21.35px" xmlns="http://www.w3.org/2000/svg">
  <g transform="matrix(1.0, 0.0, 0.0, 1.0, 10.85, 11.35)">
    <path d="M-8.7 -6.45 L-9.45 -5.55 -7.7 -6.05 -6.75 -5.9 -6.1 -6.0 -5.75 -6.5 Q-5.65 -6.8 -5.85 -7.1 L-6.35 -7.55 -7.85 -7.2 -8.7 -6.45" fill="url(#gradient0)" fill-rule="evenodd" stroke="none"/>
    <path d="M-8.7 -6.45 L-9.45 -5.55 -7.7 -6.05 -6.75 -5.9 -6.1 -6.0 -5.75 -6.5 Q-5.65 -6.8 -5.85 -7.1 L-6.35 -7.55 -7.85 -7.2 -8.7 -6.45 Z" fill="none" stroke="#000000" stroke-linecap="round" stroke-linejoin="round" stroke-width="0.5"/>
    <path d="M-10.4 -1.4 L-10.6 -0.25 -9.3 -1.6 -8.45 -1.95 -7.95 -2.3 Q-7.75 -2.6 -7.85 -2.95 L-8.25 -3.45 -8.9 -3.55 Q-9.55 -3.4 -10.05 -2.55 L-10.4 -1.4" fill="url(#gradient1)" fill-rule="evenodd" stroke="none"/>
    <path d="M-10.4 -1.4 L-10.6 -0.25 -9.3 -1.6 -8.45 -1.95 -7.95 -2.3 Q-7.75 -2.6 -7.85 -2.95 L-8.25 -3.45 -8.9 -3.55 Q-9.55 -3.4 -10.05 -2.55 L-10.4 -1.4 Z" fill="none" stroke="#000000" stroke-linecap="round" stroke-linejoin="round" stroke-width="0.5"/>
    <path d="M-9.3 4.0 L-8.9 5.1 Q-8.7 3.3 -8.45 3.3 L-7.9 2.55 -7.65 2.0 Q-7.65 1.65 -7.9 1.4 L-8.45 1.2 -9.05 1.4 Q-9.6 1.85 -9.6 2.85 L-9.3 4.0" fill="url(#gradient2)" fill-rule="evenodd" stroke="none"/>
    <path d="M-9.3 4.0 L-8.9 5.1 Q-8.7 3.3 -8.45 3.3 L-7.9 2.55 -7.65 2.0 Q-7.65 1.65 -7.9 1.4 L-8.45 1.2 -9.05 1.4 Q-9.6 1.85 -9.6 2.85 L-9.3 4.0 Z" fill="none" stroke="#000000" stroke-linecap="round" stroke-linejoin="round" stroke-width="0.5"/>
    <path d="M-6.05 8.05 L-5.15 8.8 Q-5.85 7.15 -5.65 7.05 L-5.5 6.1 -5.6 5.45 -6.1 5.1 -6.7 5.2 -7.15 5.7 Q-7.3 6.35 -6.8 7.2 L-6.05 8.05" fill="url(#gradient3)" fill-rule="evenodd" stroke="none"/>
    <path d="M-6.05 8.05 L-5.15 8.8 Q-5.85 7.15 -5.65 7.05 L-5.5 6.1 -5.6 5.45 -6.1 5.1 -6.7 5.2 -7.15 5.7 Q-7.3 6.35 -6.8 7.2 L-6.05 8.05 Z" fill="none" stroke="#000000" stroke-linecap="round" stroke-linejoin="round" stroke-width="0.5"/>
    <path d="M-1.1 10.4 L0.05 10.6 -1.3 9.3 -1.65 8.45 -2.0 7.95 -2.65 7.85 -3.15 8.25 -3.25 8.9 Q-3.1 9.55 -2.25 10.05 L-1.1 10.4" fill="url(#gradient4)" fill-rule="evenodd" stroke="none"/>
    <path d="M-1.1 10.4 L0.05 10.6 -1.3 9.3 -1.65 8.45 -2.0 7.95 -2.65 7.85 -3.15 8.25 -3.25 8.9 Q-3.1 9.55 -2.25 10.05 L-1.1 10.4 Z" fill="none" stroke="#000000" stroke-linecap="round" stroke-linejoin="round" stroke-width="0.5"/>
    <path d="M3.7 9.6 L4.8 9.2 3.0 8.75 2.25 8.2 Q2.0 7.95 1.7 7.95 1.35 7.95 1.1 8.2 L0.9 8.75 1.1 9.35 Q1.55 9.9 2.55 9.9 L3.7 9.6" fill="url(#gradient5)" fill-rule="evenodd" stroke="none"/>
    <path d="M3.7 9.6 L4.8 9.2 3.0 8.75 2.25 8.2 Q2.0 7.95 1.7 7.95 1.35 7.95 1.1 8.2 L0.9 8.75 1.1 9.35 Q1.55 9.9 2.55 9.9 L3.7 9.6 Z" fill="none" stroke="#000000" stroke-linecap="round" stroke-linejoin="round" stroke-width="0.5"/>
    <path d="M8.5 6.3 L9.25 5.4 Q7.6 6.1 7.5 5.9 L6.55 5.75 5.9 5.85 Q5.6 6.05 5.55 6.35 5.45 6.65 5.65 6.95 L6.15 7.4 7.65 7.05 8.5 6.3" fill="url(#gradient6)" fill-rule="evenodd" stroke="none"/>
    <path d="M8.5 6.3 L9.25 5.4 Q7.6 6.1 7.5 5.9 L6.55 5.75 5.9 5.85 Q5.6 6.05 5.55 6.35 5.45 6.65 5.65 6.95 L6.15 7.4 7.65 7.05 8.5 6.3 Z" fill="none" stroke="#000000" stroke-linecap="round" stroke-linejoin="round" stroke-width="0.5"/>
    <path d="M10.05 1.35 L10.25 0.2 8.95 1.55 8.1 1.9 7.6 2.25 Q7.4 2.55 7.5 2.9 L7.9 3.4 8.55 3.5 Q9.2 3.35 9.7 2.5 L10.05 1.35" fill="url(#gradient7)" fill-rule="evenodd" stroke="none"/>
    <path d="M10.05 1.35 L10.25 0.2 8.95 1.55 8.1 1.9 7.6 2.25 Q7.4 2.55 7.5 2.9 L7.9 3.4 8.55 3.5 Q9.2 3.35 9.7 2.5 L10.05 1.35 Z" fill="none" stroke="#000000" stroke-linecap="round" stroke-linejoin="round" stroke-width="0.5"/>
    <path d="M9.1 -4.05 L8.7 -5.15 Q8.5 -3.35 8.25 -3.35 L7.7 -2.6 7.45 -2.05 Q7.45 -1.7 7.7 -1.45 L8.25 -1.25 8.85 -1.45 Q9.4 -1.9 9.4 -2.9 L9.1 -4.05" fill="url(#gradient8)" fill-rule="evenodd" stroke="none"/>
    <path d="M9.1 -4.05 L8.7 -5.15 Q8.5 -3.35 8.25 -3.35 L7.7 -2.6 7.45 -2.05 Q7.45 -1.7 7.7 -1.45 L8.25 -1.25 8.85 -1.45 Q9.4 -1.9 9.4 -2.9 L9.1 -4.05 Z" fill="none" stroke="#000000" stroke-linecap="round" stroke-linejoin="round" stroke-width="0.5"/>
    <path d="M5.7 -8.7 L4.8 -9.45 5.3 -7.7 5.15 -6.75 5.25 -6.1 5.75 -5.75 6.35 -5.85 6.8 -6.35 Q6.95 -7.0 6.45 -7.85 L5.7 -8.7" fill="url(#gradient9)" fill-rule="evenodd" stroke="none"/>
    <path d="M5.7 -8.7 L4.8 -9.45 5.3 -7.7 5.15 -6.75 5.25 -6.1 5.75 -5.75 6.35 -5.85 6.8 -6.35 Q6.95 -7.0 6.45 -7.85 L5.7 -8.7 Z" fill="none" stroke="#000000" stroke-linecap="round" stroke-linejoin="round" stroke-width="0.5"/>
    <path d="M0.45 -10.9 L-0.7 -11.1 0.65 -9.8 1.0 -8.95 1.35 -8.45 2.0 -8.35 2.5 -8.75 2.6 -9.4 Q2.45 -10.05 1.6 -10.55 L0.45 -10.9" fill="url(#gradient10)" fill-rule="evenodd" stroke="none"/>
    <path d="M0.45 -10.9 L-0.7 -11.1 0.65 -9.8 1.0 -8.95 1.35 -8.45 2.0 -8.35 2.5 -8.75 2.6 -9.4 Q2.45 -10.05 1.6 -10.55 L0.45 -10.9 Z" fill="none" stroke="#000000" stroke-linecap="round" stroke-linejoin="round" stroke-width="0.5"/>
    <path d="M-4.4 -9.85 L-5.5 -9.45 -3.7 -9.0 -2.95 -8.45 -2.4 -8.2 Q-2.05 -8.2 -1.8 -8.45 L-1.6 -9.0 -1.8 -9.6 Q-2.25 -10.15 -3.25 -10.15 L-4.4 -9.85" fill="url(#gradient11)" fill-rule="evenodd" stroke="none"/>
    <path d="M-4.4 -9.85 L-5.5 -9.45 -3.7 -9.0 -2.95 -8.45 -2.4 -8.2 Q-2.05 -8.2 -1.8 -8.45 L-1.6 -9.0 -1.8 -9.6 Q-2.25 -10.15 -3.25 -10.15 L-4.4 -9.85 Z" fill="none" stroke="#000000" stroke-linecap="round" stroke-linejoin="round" stroke-width="0.5"/>
  </g>
  <defs>
    <radialGradient cx="0" cy="0" gradientTransform="matrix(7.0E-4, 0.0012, 0.0012, -7.0E-4, -6.55, -6.7)" gradientUnits="userSpaceOnUse" id="gradient0" r="819.2" spreadMethod="pad">
      <stop offset="0.0" stop-color="#bebe4b"/>
      <stop offset="1.0" stop-color="#ffffff"/>
    </radialGradient>
    <radialGradient cx="0" cy="0" gradientTransform="matrix(0.0012, 7.0E-4, 7.0E-4, -0.0012, -8.65, -2.75)" gradientUnits="userSpaceOnUse" id="gradient1" r="819.2" spreadMethod="pad">
      <stop offset="0.0" stop-color="#bebe4b"/>
      <stop offset="1.0" stop-color="#ffffff"/>
    </radialGradient>
    <radialGradient cx="0" cy="0" gradientTransform="matrix(0.0013, 0.0, 0.0, -0.0013, -8.45, 2.0)" gradientUnits="userSpaceOnUse" id="gradient2" r="819.2" spreadMethod="pad">
      <stop offset="0.0" stop-color="#bebe4b"/>
      <stop offset="1.0" stop-color="#ffffff"/>
    </radialGradient>
    <radialGradient cx="0" cy="0" gradientTransform="matrix(0.0012, -7.0E-4, -7.0E-4, -0.0012, -6.3, 5.9)" gradientUnits="userSpaceOnUse" id="gradient3" r="819.2" spreadMethod="pad">
      <stop offset="0.0" stop-color="#bebe4b"/>
      <stop offset="1.0" stop-color="#ffffff"/>
    </radialGradient>
    <radialGradient cx="0" cy="0" gradientTransform="matrix(7.0E-4, -0.0012, -0.0012, -7.0E-4, -2.45, 8.65)" gradientUnits="userSpaceOnUse" id="gradient4" r="819.2" spreadMethod="pad">
      <stop offset="0.0" stop-color="#bebe4b"/>
      <stop offset="1.0" stop-color="#ffffff"/>
    </radialGradient>
    <radialGradient cx="0" cy="0" gradientTransform="matrix(0.0, -0.0013, -0.0013, 0.0, 1.7, 8.75)" gradientUnits="userSpaceOnUse" id="gradient5" r="819.2" spreadMethod="pad">
      <stop offset="0.0" stop-color="#bebe4b"/>
      <stop offset="1.0" stop-color="#ffffff"/>
    </radialGradient>
    <radialGradient cx="0" cy="0" gradientTransform="matrix(-7.0E-4, -0.0012, -0.0012, 7.0E-4, 6.35, 6.55)" gradientUnits="userSpaceOnUse" id="gradient6" r="819.2" spreadMethod="pad">
      <stop offset="0.0" stop-color="#bebe4b"/>
      <stop offset="1.0" stop-color="#ffffff"/>
    </radialGradient>
    <radialGradient cx="0" cy="0" gradientTransform="matrix(-0.0012, -7.0E-4, -7.0E-4, 0.0012, 8.3, 2.7)" gradientUnits="userSpaceOnUse" id="gradient7" r="819.2" spreadMethod="pad">
      <stop offset="0.0" stop-color="#bebe4b"/>
      <stop offset="1.0" stop-color="#ffffff"/>
    </radialGradient>
    <radialGradient cx="0" cy="0" gradientTransform="matrix(-0.0013, 0.0, 0.0, 0.0013, 8.25, -2.05)" gradientUnits="userSpaceOnUse" id="gradient8" r="819.2" spreadMethod="pad">
      <stop offset="0.0" stop-color="#bebe4b"/>
      <stop offset="1.0" stop-color="#ffffff"/>
    </radialGradient>
    <radialGradient cx="0" cy="0" gradientTransform="matrix(-0.0012, 7.0E-4, 7.0E-4, 0.0012, 5.95, -6.55)" gradientUnits="userSpaceOnUse" id="gradient9" r="819.2" spreadMethod="pad">
      <stop offset="0.0" stop-color="#bebe4b"/>
      <stop offset="1.0" stop-color="#ffffff"/>
    </radialGradient>
    <radialGradient cx="0" cy="0" gradientTransform="matrix(-7.0E-4, 0.0012, 0.0012, 7.0E-4, 1.8, -9.15)" gradientUnits="userSpaceOnUse" id="gradient10" r="819.2" spreadMethod="pad">
      <stop offset="0.0" stop-color="#bebe4b"/>
      <stop offset="1.0" stop-color="#ffffff"/>
    </radialGradient>
    <radialGradient cx="0" cy="0" gradientTransform="matrix(0.0, 0.0013, 0.0013, 0.0, -2.4, -9.0)" gradientUnits="userSpaceOnUse" id="gradient11" r="819.2" spreadMethod="pad">
      <stop offset="0.0" stop-color="#bebe4b"/>
      <stop offset="1.0" stop-color="#ffffff"/>
    </radialGradient>
  </defs>
</svg>
