<?xml version="1.0" encoding="UTF-8" standalone="no"?>
<svg xmlns:xlink="http://www.w3.org/1999/xlink" height="36.6px" width="35.1px" xmlns="http://www.w3.org/2000/svg">
  <g transform="matrix(1.0, 0.0, 0.0, 1.0, 17.75, 18.55)">
    <path d="M1.55 17.5 L-0.35 17.8 Q2.1 16.0 1.9 15.7 L2.55 14.2 Q2.65 13.65 3.1 13.4 L4.15 13.25 Q4.7 13.4 4.95 13.9 L5.1 14.95 Q4.95 16.1 3.5 16.9 L1.55 17.5" fill="url(#gradient0)" fill-rule="evenodd" stroke="none"/>
    <path d="M1.55 17.5 L-0.35 17.8 Q2.1 16.0 1.9 15.7 L2.55 14.2 Q2.65 13.65 3.1 13.4 L4.15 13.25 Q4.7 13.4 4.95 13.9 L5.1 14.95 Q4.95 16.1 3.5 16.9 L1.55 17.5 Z" fill="none" stroke="#000000" stroke-linecap="round" stroke-linejoin="round" stroke-width="0.5"/>
    <path d="M-7.05 15.75 L-8.9 15.1 Q-5.85 14.75 -5.85 14.35 L-4.6 13.4 Q-4.2 12.95 -3.65 12.95 -3.1 12.95 -2.75 13.4 -2.35 13.8 -2.35 14.35 -2.35 14.95 -2.75 15.35 -3.45 16.2 -5.15 16.2 L-7.05 15.75" fill="url(#gradient1)" fill-rule="evenodd" stroke="none"/>
    <path d="M-7.05 15.75 L-8.9 15.1 Q-5.85 14.75 -5.85 14.35 L-4.6 13.4 Q-4.2 12.95 -3.65 12.95 -3.1 12.95 -2.75 13.4 -2.35 13.8 -2.35 14.35 -2.35 14.95 -2.75 15.35 -3.45 16.2 -5.15 16.2 L-7.05 15.75 Z" fill="none" stroke="#000000" stroke-linecap="round" stroke-linejoin="round" stroke-width="0.5"/>
    <path d="M-13.95 9.75 L-15.15 8.25 Q-12.4 9.45 -12.2 9.15 L-10.65 8.95 -9.6 9.05 Q-9.1 9.35 -9.05 9.9 -8.9 10.45 -9.15 10.95 -9.45 11.45 -10.0 11.6 -11.05 11.95 -12.5 11.15 L-13.95 9.75" fill="url(#gradient2)" fill-rule="evenodd" stroke="none"/>
    <path d="M-13.95 9.75 L-15.15 8.25 Q-12.4 9.45 -12.2 9.15 L-10.65 8.95 -9.6 9.05 Q-9.1 9.35 -9.05 9.9 -8.9 10.45 -9.15 10.95 -9.45 11.45 -10.0 11.6 -11.05 11.95 -12.5 11.15 L-13.95 9.75 Z" fill="none" stroke="#000000" stroke-linecap="round" stroke-linejoin="round" stroke-width="0.5"/>
    <path d="M-17.2 1.5 L-17.5 -0.4 Q-15.7 2.05 -15.4 1.85 L-13.9 2.5 Q-13.35 2.6 -13.1 3.05 -12.8 3.55 -12.95 4.1 -13.1 4.65 -13.6 4.9 L-14.65 5.05 Q-15.8 4.9 -16.6 3.45 L-17.2 1.5" fill="url(#gradient3)" fill-rule="evenodd" stroke="none"/>
    <path d="M-17.2 1.5 L-17.5 -0.4 Q-15.7 2.05 -15.4 1.85 L-13.9 2.5 Q-13.35 2.6 -13.1 3.05 -12.8 3.55 -12.95 4.1 -13.1 4.65 -13.6 4.9 L-14.65 5.05 Q-15.8 4.9 -16.6 3.45 L-17.2 1.5 Z" fill="none" stroke="#000000" stroke-linecap="round" stroke-linejoin="round" stroke-width="0.5"/>
    <path d="M-16.35 -7.45 L-15.7 -9.3 Q-15.35 -6.25 -14.95 -6.25 L-14.0 -5.0 Q-13.55 -4.6 -13.55 -4.05 -13.55 -3.5 -14.0 -3.15 -14.4 -2.75 -14.95 -2.75 -15.55 -2.75 -15.95 -3.15 -16.8 -3.85 -16.8 -5.55 L-16.35 -7.45" fill="url(#gradient4)" fill-rule="evenodd" stroke="none"/>
    <path d="M-16.35 -7.45 L-15.7 -9.3 Q-15.35 -6.25 -14.95 -6.25 L-14.0 -5.0 Q-13.55 -4.6 -13.55 -4.05 -13.55 -3.5 -14.0 -3.15 -14.4 -2.75 -14.95 -2.75 -15.55 -2.75 -15.95 -3.15 -16.8 -3.85 -16.8 -5.55 L-16.35 -7.45 Z" fill="none" stroke="#000000" stroke-linecap="round" stroke-linejoin="round" stroke-width="0.5"/>
    <path d="M-11.15 -13.8 Q-9.95 -14.95 -9.65 -15.0 -10.85 -12.25 -10.55 -12.05 L-10.35 -10.5 Q-10.2 -9.9 -10.45 -9.45 -10.75 -8.95 -11.3 -8.9 L-12.35 -9.0 Q-12.85 -9.3 -13.0 -9.85 -13.35 -10.9 -12.55 -12.35 L-11.15 -13.8" fill="url(#gradient5)" fill-rule="evenodd" stroke="none"/>
    <path d="M-11.15 -13.8 Q-9.95 -14.95 -9.65 -15.0 -10.85 -12.25 -10.55 -12.05 L-10.35 -10.5 Q-10.2 -9.9 -10.45 -9.45 -10.75 -8.95 -11.3 -8.9 L-12.35 -9.0 Q-12.85 -9.3 -13.0 -9.85 -13.35 -10.9 -12.55 -12.35 L-11.15 -13.8 Z" fill="none" stroke="#000000" stroke-linecap="round" stroke-linejoin="round" stroke-width="0.5"/>
    <path d="M-2.4 -18.0 L-0.5 -18.3 Q-2.95 -16.5 -2.75 -16.2 L-3.4 -14.7 Q-3.5 -14.15 -3.95 -13.9 L-5.0 -13.75 Q-5.55 -13.9 -5.8 -14.4 -6.1 -14.9 -5.95 -15.45 -5.8 -16.6 -4.35 -17.4 L-2.4 -18.0" fill="url(#gradient6)" fill-rule="evenodd" stroke="none"/>
    <path d="M-2.4 -18.0 L-0.5 -18.3 Q-2.95 -16.5 -2.75 -16.2 L-3.4 -14.7 Q-3.5 -14.15 -3.95 -13.9 L-5.0 -13.75 Q-5.55 -13.9 -5.8 -14.4 -6.1 -14.9 -5.95 -15.45 -5.8 -16.6 -4.35 -17.4 L-2.4 -18.0 Z" fill="none" stroke="#000000" stroke-linecap="round" stroke-linejoin="round" stroke-width="0.5"/>
    <path d="M5.95 -16.0 L7.8 -15.35 Q4.75 -15.0 4.75 -14.6 L3.5 -13.65 Q3.1 -13.2 2.55 -13.2 2.0 -13.2 1.65 -13.65 1.25 -14.05 1.25 -14.6 1.25 -15.2 1.65 -15.6 2.35 -16.45 4.05 -16.45 L5.95 -16.0" fill="url(#gradient7)" fill-rule="evenodd" stroke="none"/>
    <path d="M5.95 -16.0 L7.8 -15.35 Q4.75 -15.0 4.75 -14.6 L3.5 -13.65 Q3.1 -13.2 2.55 -13.2 2.0 -13.2 1.65 -13.65 1.25 -14.05 1.25 -14.6 1.25 -15.2 1.65 -15.6 2.35 -16.45 4.05 -16.45 L5.95 -16.0 Z" fill="none" stroke="#000000" stroke-linecap="round" stroke-linejoin="round" stroke-width="0.5"/>
    <path d="M13.1 -10.25 L14.3 -8.75 Q11.55 -9.95 11.35 -9.65 L9.8 -9.45 8.75 -9.55 Q8.25 -9.85 8.2 -10.4 8.05 -10.95 8.3 -11.45 8.6 -11.95 9.15 -12.1 10.2 -12.45 11.65 -11.65 L13.1 -10.25" fill="url(#gradient8)" fill-rule="evenodd" stroke="none"/>
    <path d="M13.1 -10.25 L14.3 -8.75 Q11.55 -9.95 11.35 -9.65 L9.8 -9.45 8.75 -9.55 Q8.25 -9.85 8.2 -10.4 8.05 -10.95 8.3 -11.45 8.6 -11.95 9.15 -12.1 10.2 -12.45 11.65 -11.65 L13.1 -10.25 Z" fill="none" stroke="#000000" stroke-linecap="round" stroke-linejoin="round" stroke-width="0.5"/>
    <path d="M16.8 -1.3 L17.1 0.6 Q15.3 -1.85 15.0 -1.65 L13.5 -2.3 Q12.95 -2.4 12.7 -2.85 12.4 -3.35 12.55 -3.9 12.7 -4.45 13.2 -4.7 L14.25 -4.85 Q15.4 -4.7 16.2 -3.25 L16.8 -1.3" fill="url(#gradient9)" fill-rule="evenodd" stroke="none"/>
    <path d="M16.8 -1.3 L17.1 0.6 Q15.3 -1.85 15.0 -1.65 L13.5 -2.3 Q12.95 -2.4 12.7 -2.85 12.4 -3.35 12.55 -3.9 12.7 -4.45 13.2 -4.7 L14.25 -4.85 Q15.4 -4.7 16.2 -3.25 L16.8 -1.3 Z" fill="none" stroke="#000000" stroke-linecap="round" stroke-linejoin="round" stroke-width="0.5"/>
    <path d="M15.55 8.0 L14.9 9.85 Q14.55 6.8 14.15 6.8 L13.2 5.55 Q12.75 5.15 12.75 4.6 12.75 4.05 13.2 3.7 13.6 3.3 14.15 3.3 14.75 3.3 15.15 3.7 16.0 4.4 16.0 6.1 L15.55 8.0" fill="url(#gradient10)" fill-rule="evenodd" stroke="none"/>
    <path d="M15.55 8.0 L14.9 9.85 Q14.55 6.8 14.15 6.8 L13.2 5.55 Q12.75 5.15 12.75 4.6 12.75 4.05 13.2 3.7 13.6 3.3 14.15 3.3 14.75 3.3 15.15 3.7 16.0 4.4 16.0 6.1 L15.55 8.0 Z" fill="none" stroke="#000000" stroke-linecap="round" stroke-linejoin="round" stroke-width="0.5"/>
    <path d="M10.1 14.25 L8.6 15.45 Q9.8 12.7 9.5 12.5 L9.3 10.95 Q9.15 10.35 9.4 9.9 9.7 9.4 10.25 9.35 L11.3 9.45 11.95 10.3 Q12.3 11.35 11.5 12.8 L10.1 14.25" fill="url(#gradient11)" fill-rule="evenodd" stroke="none"/>
    <path d="M10.1 14.25 L8.6 15.45 Q9.8 12.7 9.5 12.5 L9.3 10.95 Q9.15 10.35 9.4 9.9 9.7 9.4 10.25 9.35 L11.3 9.45 11.95 10.3 Q12.3 11.35 11.5 12.8 L10.1 14.25 Z" fill="none" stroke="#000000" stroke-linecap="round" stroke-linejoin="round" stroke-width="0.5"/>
  </g>
  <defs>
    <radialGradient cx="0" cy="0" gradientTransform="matrix(-0.0011, -0.0019, 0.0019, -0.0011, 3.8, 14.6)" gradientUnits="userSpaceOnUse" id="gradient0" r="819.2" spreadMethod="pad">
      <stop offset="0.0" stop-color="#bebe4b"/>
      <stop offset="1.0" stop-color="#ffffff"/>
    </radialGradient>
    <radialGradient cx="0" cy="0" gradientTransform="matrix(0.0, -0.0022, 0.0022, 0.0, -3.65, 14.35)" gradientUnits="userSpaceOnUse" id="gradient1" r="819.2" spreadMethod="pad">
      <stop offset="0.0" stop-color="#bebe4b"/>
      <stop offset="1.0" stop-color="#ffffff"/>
    </radialGradient>
    <radialGradient cx="0" cy="0" gradientTransform="matrix(0.0011, -0.0019, 0.0019, 0.0011, -10.3, 10.25)" gradientUnits="userSpaceOnUse" id="gradient2" r="819.2" spreadMethod="pad">
      <stop offset="0.0" stop-color="#bebe4b"/>
      <stop offset="1.0" stop-color="#ffffff"/>
    </radialGradient>
    <radialGradient cx="0" cy="0" gradientTransform="matrix(0.0019, -0.0011, 0.0011, 0.0019, -14.3, 3.75)" gradientUnits="userSpaceOnUse" id="gradient3" r="819.2" spreadMethod="pad">
      <stop offset="0.0" stop-color="#bebe4b"/>
      <stop offset="1.0" stop-color="#ffffff"/>
    </radialGradient>
    <radialGradient cx="0" cy="0" gradientTransform="matrix(0.0022, 0.0, 0.0, 0.0022, -14.95, -4.05)" gradientUnits="userSpaceOnUse" id="gradient4" r="819.2" spreadMethod="pad">
      <stop offset="0.0" stop-color="#bebe4b"/>
      <stop offset="1.0" stop-color="#ffffff"/>
    </radialGradient>
    <radialGradient cx="0" cy="0" gradientTransform="matrix(0.0019, 0.0011, -0.0011, 0.0019, -11.65, -10.15)" gradientUnits="userSpaceOnUse" id="gradient5" r="819.2" spreadMethod="pad">
      <stop offset="0.0" stop-color="#bebe4b"/>
      <stop offset="1.0" stop-color="#ffffff"/>
    </radialGradient>
    <radialGradient cx="0" cy="0" gradientTransform="matrix(0.0011, 0.0019, -0.0019, 0.0011, -4.65, -15.1)" gradientUnits="userSpaceOnUse" id="gradient6" r="819.2" spreadMethod="pad">
      <stop offset="0.0" stop-color="#bebe4b"/>
      <stop offset="1.0" stop-color="#ffffff"/>
    </radialGradient>
    <radialGradient cx="0" cy="0" gradientTransform="matrix(0.0, 0.0022, -0.0022, 0.0, 2.55, -14.6)" gradientUnits="userSpaceOnUse" id="gradient7" r="819.2" spreadMethod="pad">
      <stop offset="0.0" stop-color="#bebe4b"/>
      <stop offset="1.0" stop-color="#ffffff"/>
    </radialGradient>
    <radialGradient cx="0" cy="0" gradientTransform="matrix(-0.0011, 0.0019, -0.0019, -0.0011, 9.45, -10.75)" gradientUnits="userSpaceOnUse" id="gradient8" r="819.2" spreadMethod="pad">
      <stop offset="0.0" stop-color="#bebe4b"/>
      <stop offset="1.0" stop-color="#ffffff"/>
    </radialGradient>
    <radialGradient cx="0" cy="0" gradientTransform="matrix(-0.0019, 0.0011, -0.0011, -0.0019, 13.9, -3.55)" gradientUnits="userSpaceOnUse" id="gradient9" r="819.2" spreadMethod="pad">
      <stop offset="0.0" stop-color="#bebe4b"/>
      <stop offset="1.0" stop-color="#ffffff"/>
    </radialGradient>
    <radialGradient cx="0" cy="0" gradientTransform="matrix(-0.0022, 0.0, 0.0, -0.0022, 14.15, 4.6)" gradientUnits="userSpaceOnUse" id="gradient10" r="819.2" spreadMethod="pad">
      <stop offset="0.0" stop-color="#bebe4b"/>
      <stop offset="1.0" stop-color="#ffffff"/>
    </radialGradient>
    <radialGradient cx="0" cy="0" gradientTransform="matrix(-0.0019, -0.0011, 0.0011, -0.0019, 10.6, 10.6)" gradientUnits="userSpaceOnUse" id="gradient11" r="819.2" spreadMethod="pad">
      <stop offset="0.0" stop-color="#bebe4b"/>
      <stop offset="1.0" stop-color="#ffffff"/>
    </radialGradient>
  </defs>
</svg>
