<?xml version="1.0" encoding="UTF-8" standalone="no"?>
<svg xmlns:xlink="http://www.w3.org/1999/xlink" height="22.15px" width="21.35px" xmlns="http://www.w3.org/2000/svg">
  <g transform="matrix(1.0, 0.0, 0.0, 1.0, 10.85, 11.3)">
    <path d="M-1.2 10.4 L-0.05 10.6 -1.4 9.3 -1.75 8.45 Q-1.8 8.1 -2.1 7.95 L-2.75 7.85 -3.25 8.25 -3.35 8.9 Q-3.2 9.55 -2.35 10.05 L-1.2 10.4" fill="url(#gradient0)" fill-rule="evenodd" stroke="none"/>
    <path d="M-1.2 10.4 L-0.05 10.6 -1.4 9.3 -1.75 8.45 Q-1.8 8.1 -2.1 7.95 L-2.75 7.85 -3.25 8.25 -3.35 8.9 Q-3.2 9.55 -2.35 10.05 L-1.2 10.4 Z" fill="none" stroke="#000000" stroke-linecap="round" stroke-linejoin="round" stroke-width="0.5"/>
    <path d="M4.0 9.35 L5.1 8.95 Q3.3 8.75 3.3 8.5 L2.55 7.95 Q2.3 7.7 2.0 7.7 1.65 7.7 1.4 7.95 L1.2 8.5 1.4 9.1 Q1.85 9.65 2.85 9.65 L4.0 9.35" fill="url(#gradient1)" fill-rule="evenodd" stroke="none"/>
    <path d="M4.0 9.35 L5.1 8.95 Q3.3 8.75 3.3 8.5 L2.55 7.95 Q2.3 7.7 2.0 7.7 1.65 7.7 1.4 7.95 L1.2 8.5 1.4 9.1 Q1.85 9.65 2.85 9.65 L4.0 9.35 Z" fill="none" stroke="#000000" stroke-linecap="round" stroke-linejoin="round" stroke-width="0.5"/>
    <path d="M8.1 5.75 L8.85 4.85 7.1 5.35 6.15 5.2 5.5 5.3 5.15 5.8 Q5.05 6.1 5.25 6.4 L5.75 6.85 7.25 6.5 8.1 5.75" fill="url(#gradient2)" fill-rule="evenodd" stroke="none"/>
    <path d="M8.1 5.75 L8.85 4.85 7.1 5.35 6.15 5.2 5.5 5.3 5.15 5.8 Q5.05 6.1 5.25 6.4 L5.75 6.85 7.25 6.5 8.1 5.75 Z" fill="none" stroke="#000000" stroke-linecap="round" stroke-linejoin="round" stroke-width="0.5"/>
    <path d="M10.05 0.9 L10.25 -0.25 8.95 1.1 8.1 1.45 7.6 1.8 Q7.4 2.1 7.5 2.45 L7.9 2.95 8.55 3.05 Q9.2 2.9 9.7 2.05 L10.05 0.9" fill="url(#gradient3)" fill-rule="evenodd" stroke="none"/>
    <path d="M10.05 0.9 L10.25 -0.25 8.95 1.1 8.1 1.45 7.6 1.8 Q7.4 2.1 7.5 2.45 L7.9 2.95 8.55 3.05 Q9.2 2.9 9.7 2.05 L10.05 0.9 Z" fill="none" stroke="#000000" stroke-linecap="round" stroke-linejoin="round" stroke-width="0.5"/>
    <path d="M9.55 -4.55 L9.15 -5.65 Q8.95 -3.85 8.7 -3.85 L8.15 -3.1 7.9 -2.55 8.15 -1.95 8.7 -1.75 9.3 -1.95 Q9.85 -2.4 9.85 -3.4 L9.55 -4.55" fill="url(#gradient4)" fill-rule="evenodd" stroke="none"/>
    <path d="M9.55 -4.55 L9.15 -5.65 Q8.95 -3.85 8.7 -3.85 L8.15 -3.1 7.9 -2.55 8.15 -1.95 8.7 -1.75 9.3 -1.95 Q9.85 -2.4 9.85 -3.4 L9.55 -4.55 Z" fill="none" stroke="#000000" stroke-linecap="round" stroke-linejoin="round" stroke-width="0.5"/>
    <path d="M6.45 -8.35 L5.55 -9.1 6.05 -7.35 5.9 -6.4 6.0 -5.75 Q6.2 -5.45 6.5 -5.4 L7.1 -5.5 7.55 -6.0 Q7.7 -6.65 7.2 -7.5 L6.45 -8.35" fill="url(#gradient5)" fill-rule="evenodd" stroke="none"/>
    <path d="M6.45 -8.35 L5.55 -9.1 6.05 -7.35 5.9 -6.4 6.0 -5.75 Q6.2 -5.45 6.5 -5.4 L7.1 -5.5 7.55 -6.0 Q7.7 -6.65 7.2 -7.5 L6.45 -8.35 Z" fill="none" stroke="#000000" stroke-linecap="round" stroke-linejoin="round" stroke-width="0.5"/>
    <path d="M1.2 -10.85 L0.05 -11.05 1.4 -9.75 1.75 -8.9 Q1.8 -8.55 2.1 -8.4 L2.75 -8.3 3.25 -8.7 3.35 -9.35 Q3.2 -10.0 2.35 -10.5 L1.2 -10.85" fill="url(#gradient6)" fill-rule="evenodd" stroke="none"/>
    <path d="M1.2 -10.85 L0.05 -11.05 1.4 -9.75 1.75 -8.9 Q1.8 -8.55 2.1 -8.4 L2.75 -8.3 3.25 -8.7 3.35 -9.35 Q3.2 -10.0 2.35 -10.5 L1.2 -10.85 Z" fill="none" stroke="#000000" stroke-linecap="round" stroke-linejoin="round" stroke-width="0.5"/>
    <path d="M-3.85 -9.65 L-4.95 -9.25 -3.15 -8.8 -2.4 -8.25 Q-2.15 -8.0 -1.85 -8.0 -1.5 -8.0 -1.25 -8.25 L-1.05 -8.8 -1.25 -9.4 Q-1.7 -9.95 -2.7 -9.95 L-3.85 -9.65" fill="url(#gradient7)" fill-rule="evenodd" stroke="none"/>
    <path d="M-3.85 -9.65 L-4.95 -9.25 -3.15 -8.8 -2.4 -8.25 Q-2.15 -8.0 -1.85 -8.0 -1.5 -8.0 -1.25 -8.25 L-1.05 -8.8 -1.25 -9.4 Q-1.7 -9.95 -2.7 -9.95 L-3.85 -9.65 Z" fill="none" stroke="#000000" stroke-linecap="round" stroke-linejoin="round" stroke-width="0.5"/>
    <path d="M-8.05 -6.25 L-8.8 -5.35 -7.05 -5.85 -6.1 -5.7 -5.45 -5.8 Q-5.15 -6.0 -5.1 -6.3 -5.0 -6.6 -5.2 -6.9 L-5.7 -7.35 -7.2 -7.0 -8.05 -6.25" fill="url(#gradient8)" fill-rule="evenodd" stroke="none"/>
    <path d="M-8.05 -6.25 L-8.8 -5.35 -7.05 -5.85 -6.1 -5.7 -5.45 -5.8 Q-5.15 -6.0 -5.1 -6.3 -5.0 -6.6 -5.2 -6.9 L-5.7 -7.35 -7.2 -7.0 -8.05 -6.25 Z" fill="none" stroke="#000000" stroke-linecap="round" stroke-linejoin="round" stroke-width="0.5"/>
    <path d="M-10.4 -0.85 L-10.6 0.3 -9.3 -1.05 -8.45 -1.4 -7.95 -1.75 Q-7.75 -2.05 -7.85 -2.4 L-8.25 -2.9 -8.9 -3.0 Q-9.55 -2.85 -10.05 -2.0 L-10.4 -0.85" fill="url(#gradient9)" fill-rule="evenodd" stroke="none"/>
    <path d="M-10.4 -0.85 L-10.6 0.3 -9.3 -1.05 -8.45 -1.4 -7.95 -1.75 Q-7.75 -2.05 -7.85 -2.4 L-8.25 -2.9 -8.9 -3.0 Q-9.55 -2.85 -10.05 -2.0 L-10.4 -0.85 Z" fill="none" stroke="#000000" stroke-linecap="round" stroke-linejoin="round" stroke-width="0.5"/>
    <path d="M-9.6 4.75 L-9.2 5.85 Q-9.0 4.05 -8.75 4.05 L-8.2 3.3 -7.95 2.75 Q-7.95 2.4 -8.2 2.15 -8.45 1.95 -8.75 1.95 L-9.35 2.15 Q-9.9 2.6 -9.9 3.6 L-9.6 4.75" fill="url(#gradient10)" fill-rule="evenodd" stroke="none"/>
    <path d="M-9.6 4.75 L-9.2 5.85 Q-9.0 4.05 -8.75 4.05 L-8.2 3.3 -7.95 2.75 Q-7.95 2.4 -8.2 2.15 -8.45 1.95 -8.75 1.95 L-9.35 2.15 Q-9.9 2.6 -9.9 3.6 L-9.6 4.75 Z" fill="none" stroke="#000000" stroke-linecap="round" stroke-linejoin="round" stroke-width="0.5"/>
    <path d="M-6.35 8.45 L-5.45 9.2 Q-6.15 7.55 -5.95 7.45 L-5.8 6.5 -5.9 5.85 Q-6.1 5.55 -6.4 5.5 L-7.0 5.6 -7.45 6.1 Q-7.6 6.75 -7.1 7.6 L-6.35 8.45" fill="url(#gradient11)" fill-rule="evenodd" stroke="none"/>
    <path d="M-6.35 8.45 L-5.45 9.2 Q-6.15 7.55 -5.95 7.45 L-5.8 6.5 -5.9 5.85 Q-6.1 5.55 -6.4 5.5 L-7.0 5.6 -7.45 6.1 Q-7.6 6.75 -7.1 7.6 L-6.35 8.45 Z" fill="none" stroke="#000000" stroke-linecap="round" stroke-linejoin="round" stroke-width="0.5"/>
  </g>
  <defs>
    <radialGradient cx="0" cy="0" gradientTransform="matrix(7.0E-4, -0.0012, -0.0012, -7.0E-4, -2.55, 8.65)" gradientUnits="userSpaceOnUse" id="gradient0" r="819.2" spreadMethod="pad">
      <stop offset="0.0" stop-color="#bebe4b"/>
      <stop offset="1.0" stop-color="#ffffff"/>
    </radialGradient>
    <radialGradient cx="0" cy="0" gradientTransform="matrix(0.0, -0.0013, -0.0013, 0.0, 2.0, 8.5)" gradientUnits="userSpaceOnUse" id="gradient1" r="819.2" spreadMethod="pad">
      <stop offset="0.0" stop-color="#bebe4b"/>
      <stop offset="1.0" stop-color="#ffffff"/>
    </radialGradient>
    <radialGradient cx="0" cy="0" gradientTransform="matrix(-7.0E-4, -0.0012, -0.0012, 7.0E-4, 5.95, 6.0)" gradientUnits="userSpaceOnUse" id="gradient2" r="819.2" spreadMethod="pad">
      <stop offset="0.0" stop-color="#bebe4b"/>
      <stop offset="1.0" stop-color="#ffffff"/>
    </radialGradient>
    <radialGradient cx="0" cy="0" gradientTransform="matrix(-0.0012, -7.0E-4, -7.0E-4, 0.0012, 8.3, 2.25)" gradientUnits="userSpaceOnUse" id="gradient3" r="819.2" spreadMethod="pad">
      <stop offset="0.0" stop-color="#bebe4b"/>
      <stop offset="1.0" stop-color="#ffffff"/>
    </radialGradient>
    <radialGradient cx="0" cy="0" gradientTransform="matrix(-0.0013, 0.0, 0.0, 0.0013, 8.7, -2.55)" gradientUnits="userSpaceOnUse" id="gradient4" r="819.2" spreadMethod="pad">
      <stop offset="0.0" stop-color="#bebe4b"/>
      <stop offset="1.0" stop-color="#ffffff"/>
    </radialGradient>
    <radialGradient cx="0" cy="0" gradientTransform="matrix(-0.0012, 7.0E-4, 7.0E-4, 0.0012, 6.7, -6.2)" gradientUnits="userSpaceOnUse" id="gradient5" r="819.2" spreadMethod="pad">
      <stop offset="0.0" stop-color="#bebe4b"/>
      <stop offset="1.0" stop-color="#ffffff"/>
    </radialGradient>
    <radialGradient cx="0" cy="0" gradientTransform="matrix(-7.0E-4, 0.0012, 0.0012, 7.0E-4, 2.55, -9.1)" gradientUnits="userSpaceOnUse" id="gradient6" r="819.2" spreadMethod="pad">
      <stop offset="0.0" stop-color="#bebe4b"/>
      <stop offset="1.0" stop-color="#ffffff"/>
    </radialGradient>
    <radialGradient cx="0" cy="0" gradientTransform="matrix(0.0, 0.0013, 0.0013, 0.0, -1.85, -8.8)" gradientUnits="userSpaceOnUse" id="gradient7" r="819.2" spreadMethod="pad">
      <stop offset="0.0" stop-color="#bebe4b"/>
      <stop offset="1.0" stop-color="#ffffff"/>
    </radialGradient>
    <radialGradient cx="0" cy="0" gradientTransform="matrix(7.0E-4, 0.0012, 0.0012, -7.0E-4, -5.9, -6.5)" gradientUnits="userSpaceOnUse" id="gradient8" r="819.2" spreadMethod="pad">
      <stop offset="0.0" stop-color="#bebe4b"/>
      <stop offset="1.0" stop-color="#ffffff"/>
    </radialGradient>
    <radialGradient cx="0" cy="0" gradientTransform="matrix(0.0012, 7.0E-4, 7.0E-4, -0.0012, -8.65, -2.2)" gradientUnits="userSpaceOnUse" id="gradient9" r="819.2" spreadMethod="pad">
      <stop offset="0.0" stop-color="#bebe4b"/>
      <stop offset="1.0" stop-color="#ffffff"/>
    </radialGradient>
    <radialGradient cx="0" cy="0" gradientTransform="matrix(0.0013, 0.0, 0.0, -0.0013, -8.75, 2.75)" gradientUnits="userSpaceOnUse" id="gradient10" r="819.2" spreadMethod="pad">
      <stop offset="0.0" stop-color="#bebe4b"/>
      <stop offset="1.0" stop-color="#ffffff"/>
    </radialGradient>
    <radialGradient cx="0" cy="0" gradientTransform="matrix(0.0012, -7.0E-4, -7.0E-4, -0.0012, -6.6, 6.3)" gradientUnits="userSpaceOnUse" id="gradient11" r="819.2" spreadMethod="pad">
      <stop offset="0.0" stop-color="#bebe4b"/>
      <stop offset="1.0" stop-color="#ffffff"/>
    </radialGradient>
  </defs>
</svg>
