<?xml version="1.0" encoding="UTF-8" standalone="no"?>
<svg xmlns:xlink="http://www.w3.org/1999/xlink" height="39.0px" width="40.55px" xmlns="http://www.w3.org/2000/svg">
  <g transform="matrix(1.0, 0.0, 0.0, 1.0, 20.45, 19.75)">
    <path d="M-18.25 -8.25 L-17.45 -10.3 Q-17.05 -6.9 -16.65 -6.9 L-15.6 -5.5 Q-15.1 -5.05 -15.1 -4.45 -15.1 -3.8 -15.6 -3.4 -16.05 -2.95 -16.65 -2.95 -17.3 -2.95 -17.8 -3.4 -18.75 -4.2 -18.75 -6.1 L-18.25 -8.25" fill="url(#gradient0)" fill-rule="evenodd" stroke="none"/>
    <path d="M-18.25 -8.25 L-17.45 -10.3 Q-17.05 -6.9 -16.65 -6.9 L-15.6 -5.5 Q-15.1 -5.05 -15.1 -4.45 -15.1 -3.8 -15.6 -3.4 -16.05 -2.95 -16.65 -2.95 -17.3 -2.95 -17.8 -3.4 -18.75 -4.2 -18.75 -6.1 L-18.25 -8.25 Z" fill="none" stroke="#000000" stroke-linecap="round" stroke-linejoin="round" stroke-width="0.5"/>
    <path d="M-11.65 -15.7 L-9.95 -17.1 Q-11.3 -13.95 -10.95 -13.75 L-10.7 -11.95 Q-10.5 -11.35 -10.8 -10.8 -11.15 -10.25 -11.8 -10.15 L-12.95 -10.3 Q-13.5 -10.6 -13.7 -11.25 -14.05 -12.45 -13.15 -14.1 L-11.65 -15.7" fill="url(#gradient1)" fill-rule="evenodd" stroke="none"/>
    <path d="M-11.65 -15.7 L-9.95 -17.1 Q-11.3 -13.95 -10.95 -13.75 L-10.7 -11.95 Q-10.5 -11.35 -10.8 -10.8 -11.15 -10.25 -11.8 -10.15 L-12.95 -10.3 Q-13.5 -10.6 -13.7 -11.25 -14.05 -12.45 -13.15 -14.1 L-11.65 -15.7 Z" fill="none" stroke="#000000" stroke-linecap="round" stroke-linejoin="round" stroke-width="0.5"/>
    <path d="M-2.05 -19.1 L0.15 -19.5 Q-2.6 -17.45 -2.4 -17.1 L-3.1 -15.45 Q-3.2 -14.75 -3.75 -14.45 L-4.9 -14.35 Q-5.55 -14.55 -5.85 -15.1 L-6.0 -16.25 Q-5.8 -17.5 -4.15 -18.4 L-2.05 -19.1" fill="url(#gradient2)" fill-rule="evenodd" stroke="none"/>
    <path d="M-2.05 -19.1 L0.15 -19.5 Q-2.6 -17.45 -2.4 -17.1 L-3.1 -15.45 Q-3.2 -14.75 -3.75 -14.45 L-4.9 -14.35 Q-5.55 -14.55 -5.85 -15.1 L-6.0 -16.25 Q-5.8 -17.5 -4.15 -18.4 L-2.05 -19.1 Z" fill="none" stroke="#000000" stroke-linecap="round" stroke-linejoin="round" stroke-width="0.5"/>
    <path d="M7.85 -17.6 L9.95 -16.8 Q6.5 -16.4 6.5 -16.0 L5.1 -14.95 Q4.65 -14.45 4.05 -14.45 3.4 -14.45 3.0 -14.95 2.55 -15.4 2.55 -16.0 2.55 -16.65 3.0 -17.15 3.8 -18.1 5.7 -18.1 L7.85 -17.6" fill="url(#gradient3)" fill-rule="evenodd" stroke="none"/>
    <path d="M7.85 -17.6 L9.95 -16.8 Q6.5 -16.4 6.5 -16.0 L5.1 -14.95 Q4.65 -14.45 4.05 -14.45 3.4 -14.45 3.0 -14.95 2.55 -15.4 2.55 -16.0 2.55 -16.65 3.0 -17.15 3.8 -18.1 5.7 -18.1 L7.85 -17.6 Z" fill="none" stroke="#000000" stroke-linecap="round" stroke-linejoin="round" stroke-width="0.5"/>
    <path d="M16.2 -11.75 L17.6 -10.05 Q14.45 -11.4 14.25 -11.05 L12.45 -10.8 11.3 -10.9 Q10.75 -11.2 10.65 -11.9 10.5 -12.5 10.8 -13.05 11.1 -13.6 11.75 -13.8 12.95 -14.15 14.6 -13.25 L16.2 -11.75" fill="url(#gradient4)" fill-rule="evenodd" stroke="none"/>
    <path d="M16.2 -11.75 L17.6 -10.05 Q14.45 -11.4 14.25 -11.05 L12.45 -10.8 11.3 -10.9 Q10.75 -11.2 10.65 -11.9 10.5 -12.5 10.8 -13.05 11.1 -13.6 11.75 -13.8 12.95 -14.15 14.6 -13.25 L16.2 -11.75 Z" fill="none" stroke="#000000" stroke-linecap="round" stroke-linejoin="round" stroke-width="0.5"/>
    <path d="M19.45 -3.1 L19.85 -0.9 Q17.8 -3.65 17.45 -3.45 L15.8 -4.15 Q15.1 -4.25 14.8 -4.8 14.45 -5.35 14.7 -5.95 14.9 -6.6 15.45 -6.9 L16.6 -7.05 Q17.85 -6.85 18.75 -5.2 L19.45 -3.1" fill="url(#gradient5)" fill-rule="evenodd" stroke="none"/>
    <path d="M19.45 -3.1 L19.85 -0.9 Q17.8 -3.65 17.45 -3.45 L15.8 -4.15 Q15.1 -4.25 14.8 -4.8 14.45 -5.35 14.7 -5.95 14.9 -6.6 15.45 -6.9 L16.6 -7.05 Q17.85 -6.85 18.75 -5.2 L19.45 -3.1 Z" fill="none" stroke="#000000" stroke-linecap="round" stroke-linejoin="round" stroke-width="0.5"/>
    <path d="M18.6 7.75 L17.8 9.8 Q17.4 6.4 17.0 6.4 L15.95 5.0 Q15.45 4.55 15.45 3.95 15.45 3.3 15.95 2.9 16.4 2.45 17.0 2.45 17.65 2.45 18.15 2.9 19.1 3.7 19.1 5.6 L18.6 7.75" fill="url(#gradient6)" fill-rule="evenodd" stroke="none"/>
    <path d="M18.6 7.75 L17.8 9.8 Q17.4 6.4 17.0 6.4 L15.95 5.0 Q15.45 4.55 15.45 3.95 15.45 3.3 15.95 2.9 16.4 2.45 17.0 2.45 17.65 2.45 18.15 2.9 19.1 3.7 19.1 5.6 L18.6 7.75 Z" fill="none" stroke="#000000" stroke-linecap="round" stroke-linejoin="round" stroke-width="0.5"/>
    <path d="M12.0 14.85 L10.3 16.25 Q11.65 13.1 11.3 12.9 L11.05 11.1 Q10.85 10.5 11.15 9.95 11.45 9.4 12.15 9.3 L13.3 9.45 Q13.85 9.75 14.05 10.4 14.4 11.6 13.5 13.25 L12.0 14.85" fill="url(#gradient7)" fill-rule="evenodd" stroke="none"/>
    <path d="M12.0 14.85 L10.3 16.25 Q11.65 13.1 11.3 12.9 L11.05 11.1 Q10.85 10.5 11.15 9.95 11.45 9.4 12.15 9.3 L13.3 9.45 Q13.85 9.75 14.05 10.4 14.4 11.6 13.5 13.25 L12.0 14.85 Z" fill="none" stroke="#000000" stroke-linecap="round" stroke-linejoin="round" stroke-width="0.5"/>
    <path d="M2.35 18.6 L0.15 19.0 Q2.9 16.95 2.7 16.6 L3.4 14.95 Q3.5 14.25 4.05 13.95 L5.2 13.85 Q5.85 14.05 6.15 14.6 6.45 15.15 6.3 15.75 6.1 17.0 4.45 17.9 L2.35 18.6" fill="url(#gradient8)" fill-rule="evenodd" stroke="none"/>
    <path d="M2.35 18.6 L0.15 19.0 Q2.9 16.95 2.7 16.6 L3.4 14.95 Q3.5 14.25 4.05 13.95 L5.2 13.85 Q5.85 14.05 6.15 14.6 6.45 15.15 6.3 15.75 6.1 17.0 4.45 17.9 L2.35 18.6 Z" fill="none" stroke="#000000" stroke-linecap="round" stroke-linejoin="round" stroke-width="0.5"/>
    <path d="M-8.4 17.15 L-10.5 16.35 Q-7.05 15.95 -7.05 15.55 L-5.65 14.5 Q-5.2 14.0 -4.6 14.0 -3.95 14.0 -3.55 14.5 -3.1 14.95 -3.1 15.55 -3.1 16.2 -3.55 16.7 -4.35 17.65 -6.25 17.65 L-8.4 17.15" fill="url(#gradient9)" fill-rule="evenodd" stroke="none"/>
    <path d="M-8.4 17.15 L-10.5 16.35 Q-7.05 15.95 -7.05 15.55 L-5.65 14.5 Q-5.2 14.0 -4.6 14.0 -3.95 14.0 -3.55 14.5 -3.1 14.95 -3.1 15.55 -3.1 16.2 -3.55 16.7 -4.35 17.65 -6.25 17.65 L-8.4 17.15 Z" fill="none" stroke="#000000" stroke-linecap="round" stroke-linejoin="round" stroke-width="0.5"/>
    <path d="M-16.9 10.7 L-18.3 9.0 Q-15.15 10.35 -14.95 10.0 L-13.15 9.75 -12.0 9.85 Q-11.45 10.2 -11.35 10.85 -11.2 11.45 -11.5 12.0 -11.8 12.55 -12.45 12.75 -13.65 13.1 -15.3 12.2 L-16.9 10.7" fill="url(#gradient10)" fill-rule="evenodd" stroke="none"/>
    <path d="M-16.9 10.7 L-18.3 9.0 Q-15.15 10.35 -14.95 10.0 L-13.15 9.75 -12.0 9.85 Q-11.45 10.2 -11.35 10.85 -11.2 11.45 -11.5 12.0 -11.8 12.55 -12.45 12.75 -13.65 13.1 -15.3 12.2 L-16.9 10.7 Z" fill="none" stroke="#000000" stroke-linecap="round" stroke-linejoin="round" stroke-width="0.5"/>
    <path d="M-19.8 1.9 Q-20.3 0.0 -20.2 -0.3 -18.15 2.45 -17.8 2.25 L-16.15 2.95 Q-15.45 3.05 -15.15 3.6 -14.85 4.15 -15.05 4.75 -15.25 5.4 -15.8 5.7 L-16.95 5.85 Q-18.2 5.65 -19.1 4.0 L-19.8 1.9" fill="url(#gradient11)" fill-rule="evenodd" stroke="none"/>
    <path d="M-19.8 1.9 Q-20.3 0.0 -20.2 -0.3 -18.15 2.45 -17.8 2.25 L-16.15 2.95 Q-15.45 3.05 -15.15 3.6 -14.85 4.15 -15.05 4.75 -15.25 5.4 -15.8 5.7 L-16.95 5.85 Q-18.2 5.65 -19.1 4.0 L-19.8 1.9 Z" fill="none" stroke="#000000" stroke-linecap="round" stroke-linejoin="round" stroke-width="0.5"/>
  </g>
  <defs>
    <radialGradient cx="0" cy="0" gradientTransform="matrix(0.0025, 0.0, 0.0, 0.0025, -16.65, -4.45)" gradientUnits="userSpaceOnUse" id="gradient0" r="819.2" spreadMethod="pad">
      <stop offset="0.0" stop-color="#bebe4b"/>
      <stop offset="1.0" stop-color="#ffffff"/>
    </radialGradient>
    <radialGradient cx="0" cy="0" gradientTransform="matrix(0.0022, 0.0013, -0.0013, 0.0022, -12.2, -11.6)" gradientUnits="userSpaceOnUse" id="gradient1" r="819.2" spreadMethod="pad">
      <stop offset="0.0" stop-color="#bebe4b"/>
      <stop offset="1.0" stop-color="#ffffff"/>
    </radialGradient>
    <radialGradient cx="0" cy="0" gradientTransform="matrix(0.0013, 0.0022, -0.0022, 0.0013, -4.55, -15.85)" gradientUnits="userSpaceOnUse" id="gradient2" r="819.2" spreadMethod="pad">
      <stop offset="0.0" stop-color="#bebe4b"/>
      <stop offset="1.0" stop-color="#ffffff"/>
    </radialGradient>
    <radialGradient cx="0" cy="0" gradientTransform="matrix(0.0, 0.0025, -0.0025, 0.0, 4.05, -16.0)" gradientUnits="userSpaceOnUse" id="gradient3" r="819.2" spreadMethod="pad">
      <stop offset="0.0" stop-color="#bebe4b"/>
      <stop offset="1.0" stop-color="#ffffff"/>
    </radialGradient>
    <radialGradient cx="0" cy="0" gradientTransform="matrix(-0.0013, 0.0022, -0.0022, -0.0013, 12.1, -12.3)" gradientUnits="userSpaceOnUse" id="gradient4" r="819.2" spreadMethod="pad">
      <stop offset="0.0" stop-color="#bebe4b"/>
      <stop offset="1.0" stop-color="#ffffff"/>
    </radialGradient>
    <radialGradient cx="0" cy="0" gradientTransform="matrix(-0.0022, 0.0013, -0.0013, -0.0022, 16.2, -5.6)" gradientUnits="userSpaceOnUse" id="gradient5" r="819.2" spreadMethod="pad">
      <stop offset="0.0" stop-color="#bebe4b"/>
      <stop offset="1.0" stop-color="#ffffff"/>
    </radialGradient>
    <radialGradient cx="0" cy="0" gradientTransform="matrix(-0.0025, 0.0, 0.0, -0.0025, 17.0, 3.95)" gradientUnits="userSpaceOnUse" id="gradient6" r="819.2" spreadMethod="pad">
      <stop offset="0.0" stop-color="#bebe4b"/>
      <stop offset="1.0" stop-color="#ffffff"/>
    </radialGradient>
    <radialGradient cx="0" cy="0" gradientTransform="matrix(-0.0022, -0.0013, 0.0013, -0.0022, 12.55, 10.75)" gradientUnits="userSpaceOnUse" id="gradient7" r="819.2" spreadMethod="pad">
      <stop offset="0.0" stop-color="#bebe4b"/>
      <stop offset="1.0" stop-color="#ffffff"/>
    </radialGradient>
    <radialGradient cx="0" cy="0" gradientTransform="matrix(-0.0013, -0.0022, 0.0022, -0.0013, 4.85, 15.35)" gradientUnits="userSpaceOnUse" id="gradient8" r="819.2" spreadMethod="pad">
      <stop offset="0.0" stop-color="#bebe4b"/>
      <stop offset="1.0" stop-color="#ffffff"/>
    </radialGradient>
    <radialGradient cx="0" cy="0" gradientTransform="matrix(0.0, -0.0025, 0.0025, 0.0, -4.6, 15.55)" gradientUnits="userSpaceOnUse" id="gradient9" r="819.2" spreadMethod="pad">
      <stop offset="0.0" stop-color="#bebe4b"/>
      <stop offset="1.0" stop-color="#ffffff"/>
    </radialGradient>
    <radialGradient cx="0" cy="0" gradientTransform="matrix(0.0013, -0.0022, 0.0022, 0.0013, -12.8, 11.25)" gradientUnits="userSpaceOnUse" id="gradient10" r="819.2" spreadMethod="pad">
      <stop offset="0.0" stop-color="#bebe4b"/>
      <stop offset="1.0" stop-color="#ffffff"/>
    </radialGradient>
    <radialGradient cx="0" cy="0" gradientTransform="matrix(0.0022, -0.0013, 0.0013, 0.0022, -16.55, 4.4)" gradientUnits="userSpaceOnUse" id="gradient11" r="819.2" spreadMethod="pad">
      <stop offset="0.0" stop-color="#bebe4b"/>
      <stop offset="1.0" stop-color="#ffffff"/>
    </radialGradient>
  </defs>
</svg>
