<?xml version="1.0" encoding="UTF-8" standalone="no"?>
<svg xmlns:xlink="http://www.w3.org/1999/xlink" height="23.4px" width="24.5px" xmlns="http://www.w3.org/2000/svg">
  <g transform="matrix(1.0, 0.0, 0.0, 1.0, 12.45, 11.95)">
    <path d="M10.55 -5.05 L10.1 -6.3 Q9.85 -4.25 9.6 -4.25 L8.95 -3.4 Q8.65 -3.15 8.65 -2.75 8.65 -2.35 8.95 -2.15 9.25 -1.85 9.6 -1.85 10.0 -1.85 10.3 -2.15 10.85 -2.6 10.85 -3.75 L10.55 -5.05" fill="url(#gradient0)" fill-rule="evenodd" stroke="none"/>
    <path d="M10.55 -5.05 L10.1 -6.3 Q9.85 -4.25 9.6 -4.25 L8.95 -3.4 Q8.65 -3.15 8.65 -2.75 8.65 -2.35 8.95 -2.15 9.25 -1.85 9.6 -1.85 10.0 -1.85 10.3 -2.15 10.85 -2.6 10.85 -3.75 L10.55 -5.05 Z" fill="none" stroke="#000000" stroke-linecap="round" stroke-linejoin="round" stroke-width="0.5"/>
    <path d="M6.65 -9.55 L5.6 -10.35 6.25 -8.35 6.1 -7.3 Q5.95 -6.95 6.15 -6.6 L6.75 -6.2 7.4 -6.3 7.85 -6.85 Q8.1 -7.55 7.55 -8.55 L6.65 -9.55" fill="url(#gradient1)" fill-rule="evenodd" stroke="none"/>
    <path d="M6.65 -9.55 L5.6 -10.35 6.25 -8.35 6.1 -7.3 Q5.95 -6.95 6.15 -6.6 L6.75 -6.2 7.4 -6.3 7.85 -6.85 Q8.1 -7.55 7.55 -8.55 L6.65 -9.55 Z" fill="none" stroke="#000000" stroke-linecap="round" stroke-linejoin="round" stroke-width="0.5"/>
    <path d="M0.85 -11.45 L-0.45 -11.7 Q1.15 -10.45 1.05 -10.25 L1.5 -9.3 Q1.55 -8.85 1.9 -8.65 2.2 -8.5 2.6 -8.65 L3.1 -9.1 3.25 -9.75 Q3.05 -10.5 2.05 -11.05 L0.85 -11.45" fill="url(#gradient2)" fill-rule="evenodd" stroke="none"/>
    <path d="M0.85 -11.45 L-0.45 -11.7 Q1.15 -10.45 1.05 -10.25 L1.5 -9.3 Q1.55 -8.85 1.9 -8.65 2.2 -8.5 2.6 -8.65 L3.1 -9.1 3.25 -9.75 Q3.05 -10.5 2.05 -11.05 L0.85 -11.45 Z" fill="none" stroke="#000000" stroke-linecap="round" stroke-linejoin="round" stroke-width="0.5"/>
    <path d="M-5.0 -10.6 L-6.25 -10.15 -4.2 -9.65 -3.35 -9.0 Q-3.1 -8.7 -2.7 -8.7 -2.3 -8.7 -2.1 -9.0 -1.8 -9.3 -1.8 -9.65 -1.8 -10.05 -2.1 -10.35 -2.55 -10.9 -3.7 -10.9 L-5.0 -10.6" fill="url(#gradient3)" fill-rule="evenodd" stroke="none"/>
    <path d="M-5.0 -10.6 L-6.25 -10.15 -4.2 -9.65 -3.35 -9.0 Q-3.1 -8.7 -2.7 -8.7 -2.3 -8.7 -2.1 -9.0 -1.8 -9.3 -1.8 -9.65 -1.8 -10.05 -2.1 -10.35 -2.55 -10.9 -3.7 -10.9 L-5.0 -10.6 Z" fill="none" stroke="#000000" stroke-linecap="round" stroke-linejoin="round" stroke-width="0.5"/>
    <path d="M-10.1 -7.15 L-10.9 -6.1 -8.9 -6.75 -7.85 -6.6 -7.15 -6.65 Q-6.85 -6.8 -6.75 -7.25 -6.65 -7.55 -6.85 -7.9 -7.05 -8.2 -7.4 -8.35 -8.1 -8.6 -9.1 -8.05 L-10.1 -7.15" fill="url(#gradient4)" fill-rule="evenodd" stroke="none"/>
    <path d="M-10.1 -7.15 L-10.9 -6.1 -8.9 -6.75 -7.85 -6.6 -7.15 -6.65 Q-6.85 -6.8 -6.75 -7.25 -6.65 -7.55 -6.85 -7.9 -7.05 -8.2 -7.4 -8.35 -8.1 -8.6 -9.1 -8.05 L-10.1 -7.15 Z" fill="none" stroke="#000000" stroke-linecap="round" stroke-linejoin="round" stroke-width="0.5"/>
    <path d="M-11.95 -2.0 L-12.2 -0.7 -10.75 -2.2 -9.8 -2.65 Q-9.35 -2.7 -9.15 -3.05 -9.0 -3.35 -9.15 -3.75 L-9.6 -4.25 -10.25 -4.4 Q-11.0 -4.2 -11.55 -3.2 L-11.95 -2.0" fill="url(#gradient5)" fill-rule="evenodd" stroke="none"/>
    <path d="M-11.95 -2.0 L-12.2 -0.7 -10.75 -2.2 -9.8 -2.65 Q-9.35 -2.7 -9.15 -3.05 -9.0 -3.35 -9.15 -3.75 L-9.6 -4.25 -10.25 -4.4 Q-11.0 -4.2 -11.55 -3.2 L-11.95 -2.0 Z" fill="none" stroke="#000000" stroke-linecap="round" stroke-linejoin="round" stroke-width="0.5"/>
    <path d="M-11.45 4.6 L-11.0 5.85 Q-10.75 3.8 -10.5 3.8 L-9.85 2.95 Q-9.55 2.7 -9.55 2.3 -9.55 1.9 -9.85 1.7 -10.15 1.4 -10.5 1.4 -10.9 1.4 -11.2 1.7 -11.75 2.15 -11.75 3.3 L-11.45 4.6" fill="url(#gradient6)" fill-rule="evenodd" stroke="none"/>
    <path d="M-11.45 4.6 L-11.0 5.85 Q-10.75 3.8 -10.5 3.8 L-9.85 2.95 Q-9.55 2.7 -9.55 2.3 -9.55 1.9 -9.85 1.7 -10.15 1.4 -10.5 1.4 -10.9 1.4 -11.2 1.7 -11.75 2.15 -11.75 3.3 L-11.45 4.6 Z" fill="none" stroke="#000000" stroke-linecap="round" stroke-linejoin="round" stroke-width="0.5"/>
    <path d="M-7.55 8.85 L-6.5 9.65 -7.15 7.65 -7.0 6.6 Q-6.85 6.25 -7.05 5.9 -7.2 5.6 -7.65 5.5 L-8.3 5.6 -8.75 6.15 Q-9.0 6.85 -8.45 7.85 L-7.55 8.85" fill="url(#gradient7)" fill-rule="evenodd" stroke="none"/>
    <path d="M-7.55 8.85 L-6.5 9.65 -7.15 7.65 -7.0 6.6 Q-6.85 6.25 -7.05 5.9 -7.2 5.6 -7.65 5.5 L-8.3 5.6 -8.75 6.15 Q-9.0 6.85 -8.45 7.85 L-7.55 8.85 Z" fill="none" stroke="#000000" stroke-linecap="round" stroke-linejoin="round" stroke-width="0.5"/>
    <path d="M-1.75 10.95 L-0.45 11.2 -1.95 9.75 -2.4 8.8 Q-2.45 8.35 -2.8 8.15 -3.1 8.0 -3.5 8.15 L-4.0 8.6 -4.15 9.25 Q-3.95 10.0 -2.95 10.55 L-1.75 10.95" fill="url(#gradient8)" fill-rule="evenodd" stroke="none"/>
    <path d="M-1.75 10.95 L-0.45 11.2 -1.95 9.75 -2.4 8.8 Q-2.45 8.35 -2.8 8.15 -3.1 8.0 -3.5 8.15 L-4.0 8.6 -4.15 9.25 Q-3.95 10.0 -2.95 10.55 L-1.75 10.95 Z" fill="none" stroke="#000000" stroke-linecap="round" stroke-linejoin="round" stroke-width="0.5"/>
    <path d="M4.8 10.25 L6.05 9.8 Q4.0 9.55 4.0 9.3 L3.15 8.65 Q2.9 8.35 2.5 8.35 2.1 8.35 1.9 8.65 1.6 8.95 1.6 9.3 1.6 9.7 1.9 10.0 2.35 10.55 3.5 10.55 L4.8 10.25" fill="url(#gradient9)" fill-rule="evenodd" stroke="none"/>
    <path d="M4.8 10.25 L6.05 9.8 Q4.0 9.55 4.0 9.3 L3.15 8.65 Q2.9 8.35 2.5 8.35 2.1 8.35 1.9 8.65 1.6 8.95 1.6 9.3 1.6 9.7 1.9 10.0 2.35 10.55 3.5 10.55 L4.8 10.25 Z" fill="none" stroke="#000000" stroke-linecap="round" stroke-linejoin="round" stroke-width="0.5"/>
    <path d="M9.85 6.4 L10.65 5.35 Q8.75 6.2 8.65 6.0 L7.6 5.85 6.9 5.9 Q6.6 6.05 6.5 6.5 6.4 6.8 6.6 7.15 L7.15 7.6 Q7.85 7.85 8.85 7.3 L9.85 6.4" fill="url(#gradient10)" fill-rule="evenodd" stroke="none"/>
    <path d="M9.85 6.4 L10.65 5.35 Q8.75 6.2 8.65 6.0 L7.6 5.85 6.9 5.9 Q6.6 6.05 6.5 6.5 6.4 6.8 6.6 7.15 L7.15 7.6 Q7.85 7.85 8.85 7.3 L9.85 6.4 Z" fill="none" stroke="#000000" stroke-linecap="round" stroke-linejoin="round" stroke-width="0.5"/>
    <path d="M11.55 1.05 L11.8 -0.25 10.35 1.25 9.4 1.7 Q8.95 1.75 8.75 2.1 8.6 2.4 8.75 2.8 L9.2 3.3 9.85 3.45 Q10.6 3.25 11.15 2.25 L11.55 1.05" fill="url(#gradient11)" fill-rule="evenodd" stroke="none"/>
    <path d="M11.55 1.05 L11.8 -0.25 10.35 1.25 9.4 1.7 Q8.95 1.75 8.75 2.1 8.6 2.4 8.75 2.8 L9.2 3.3 9.85 3.45 Q10.6 3.25 11.15 2.25 L11.55 1.05 Z" fill="none" stroke="#000000" stroke-linecap="round" stroke-linejoin="round" stroke-width="0.5"/>
  </g>
  <defs>
    <radialGradient cx="0" cy="0" gradientTransform="matrix(-0.0015, 0.0, 0.0, 0.0015, 9.6, -2.75)" gradientUnits="userSpaceOnUse" id="gradient0" r="819.2" spreadMethod="pad">
      <stop offset="0.0" stop-color="#bebe4b"/>
      <stop offset="1.0" stop-color="#ffffff"/>
    </radialGradient>
    <radialGradient cx="0" cy="0" gradientTransform="matrix(-0.0013, 8.0E-4, 8.0E-4, 0.0013, 7.0, -7.05)" gradientUnits="userSpaceOnUse" id="gradient1" r="819.2" spreadMethod="pad">
      <stop offset="0.0" stop-color="#bebe4b"/>
      <stop offset="1.0" stop-color="#ffffff"/>
    </radialGradient>
    <radialGradient cx="0" cy="0" gradientTransform="matrix(-8.0E-4, 0.0013, 0.0013, 8.0E-4, 2.35, -9.5)" gradientUnits="userSpaceOnUse" id="gradient2" r="819.2" spreadMethod="pad">
      <stop offset="0.0" stop-color="#bebe4b"/>
      <stop offset="1.0" stop-color="#ffffff"/>
    </radialGradient>
    <radialGradient cx="0" cy="0" gradientTransform="matrix(0.0, 0.0015, 0.0015, 0.0, -2.7, -9.65)" gradientUnits="userSpaceOnUse" id="gradient3" r="819.2" spreadMethod="pad">
      <stop offset="0.0" stop-color="#bebe4b"/>
      <stop offset="1.0" stop-color="#ffffff"/>
    </radialGradient>
    <radialGradient cx="0" cy="0" gradientTransform="matrix(8.0E-4, 0.0013, 0.0013, -8.0E-4, -7.6, -7.5)" gradientUnits="userSpaceOnUse" id="gradient4" r="819.2" spreadMethod="pad">
      <stop offset="0.0" stop-color="#bebe4b"/>
      <stop offset="1.0" stop-color="#ffffff"/>
    </radialGradient>
    <radialGradient cx="0" cy="0" gradientTransform="matrix(0.0013, 8.0E-4, 8.0E-4, -0.0013, -10.0, -3.5)" gradientUnits="userSpaceOnUse" id="gradient5" r="819.2" spreadMethod="pad">
      <stop offset="0.0" stop-color="#bebe4b"/>
      <stop offset="1.0" stop-color="#ffffff"/>
    </radialGradient>
    <radialGradient cx="0" cy="0" gradientTransform="matrix(0.0015, 0.0, 0.0, -0.0015, -10.5, 2.3)" gradientUnits="userSpaceOnUse" id="gradient6" r="819.2" spreadMethod="pad">
      <stop offset="0.0" stop-color="#bebe4b"/>
      <stop offset="1.0" stop-color="#ffffff"/>
    </radialGradient>
    <radialGradient cx="0" cy="0" gradientTransform="matrix(0.0013, -8.0E-4, -8.0E-4, -0.0013, -7.9, 6.35)" gradientUnits="userSpaceOnUse" id="gradient7" r="819.2" spreadMethod="pad">
      <stop offset="0.0" stop-color="#bebe4b"/>
      <stop offset="1.0" stop-color="#ffffff"/>
    </radialGradient>
    <radialGradient cx="0" cy="0" gradientTransform="matrix(8.0E-4, -0.0013, -0.0013, -8.0E-4, -3.25, 9.0)" gradientUnits="userSpaceOnUse" id="gradient8" r="819.2" spreadMethod="pad">
      <stop offset="0.0" stop-color="#bebe4b"/>
      <stop offset="1.0" stop-color="#ffffff"/>
    </radialGradient>
    <radialGradient cx="0" cy="0" gradientTransform="matrix(0.0, -0.0015, -0.0015, 0.0, 2.5, 9.3)" gradientUnits="userSpaceOnUse" id="gradient9" r="819.2" spreadMethod="pad">
      <stop offset="0.0" stop-color="#bebe4b"/>
      <stop offset="1.0" stop-color="#ffffff"/>
    </radialGradient>
    <radialGradient cx="0" cy="0" gradientTransform="matrix(-8.0E-4, -0.0013, -0.0013, 8.0E-4, 7.35, 6.75)" gradientUnits="userSpaceOnUse" id="gradient10" r="819.2" spreadMethod="pad">
      <stop offset="0.0" stop-color="#bebe4b"/>
      <stop offset="1.0" stop-color="#ffffff"/>
    </radialGradient>
    <radialGradient cx="0" cy="0" gradientTransform="matrix(-0.0013, -8.0E-4, -8.0E-4, 0.0013, 9.6, 2.55)" gradientUnits="userSpaceOnUse" id="gradient11" r="819.2" spreadMethod="pad">
      <stop offset="0.0" stop-color="#bebe4b"/>
      <stop offset="1.0" stop-color="#ffffff"/>
    </radialGradient>
  </defs>
</svg>
