<?xml version="1.0" encoding="UTF-8" standalone="no"?>
<svg xmlns:xlink="http://www.w3.org/1999/xlink" height="1.85px" width="1.9px" xmlns="http://www.w3.org/2000/svg">
  <g transform="matrix(1.0, 0.0, 0.0, 1.0, -7.4, 8.95)">
    <path d="M7.65 -8.0 L7.85 -8.5 8.35 -8.7 8.85 -8.5 9.05 -8.0 8.85 -7.55 Q8.7 -7.4 8.45 -7.35 L8.35 -7.35 8.3 -7.35 8.2 -7.35 8.15 -7.35 7.9 -7.5 7.85 -7.55 7.8 -7.65 7.7 -7.75 7.7 -7.9 7.65 -8.0" fill="url(#gradient0)" fill-rule="evenodd" stroke="none"/>
    <path d="M7.65 -8.0 L7.85 -8.5 8.35 -8.7 8.85 -8.5 9.05 -8.0 8.85 -7.55 Q8.7 -7.4 8.45 -7.35" fill="none" stroke="#000000" stroke-linecap="round" stroke-linejoin="round" stroke-width="0.5"/>
  </g>
  <defs>
    <radialGradient cx="0" cy="0" gradientTransform="matrix(0.0011, 0.0, 0.0, 0.0011, 8.35, -8.0)" gradientUnits="userSpaceOnUse" id="gradient0" r="819.2" spreadMethod="pad">
      <stop offset="0.0" stop-color="#fb4924"/>
      <stop offset="0.5764705882352941" stop-color="#f2992d"/>
      <stop offset="1.0" stop-color="#ffffff"/>
    </radialGradient>
  </defs>
</svg>
