<?xml version="1.0" encoding="UTF-8" standalone="no"?>
<svg xmlns:xlink="http://www.w3.org/1999/xlink" height="7.25px" width="7.5px" xmlns="http://www.w3.org/2000/svg">
  <g transform="matrix(1.0, 0.0, 0.0, 1.0, -5.15, 12.35)">
    <path d="M9.4 -5.35 L8.9 -5.35 8.65 -5.35 8.15 -5.35 7.9 -5.35 Q7.15 -5.6 6.65 -6.1 L6.4 -6.35 6.15 -6.85 5.65 -7.35 5.65 -8.1 5.4 -8.6 Q5.4 -10.1 6.4 -11.1 7.4 -12.1 8.9 -12.1 10.4 -12.1 11.4 -11.1 12.4 -10.1 12.4 -8.6 12.4 -7.35 11.4 -6.35 10.65 -5.6 9.4 -5.35" fill="url(#gradient0)" fill-rule="evenodd" stroke="none"/>
    <path d="M5.4 -8.6 Q5.4 -10.1 6.4 -11.1 7.4 -12.1 8.9 -12.1 10.4 -12.1 11.4 -11.1 12.4 -10.1 12.4 -8.6 12.4 -7.35 11.4 -6.35 10.65 -5.6 9.4 -5.35" fill="none" stroke="#000000" stroke-linecap="round" stroke-linejoin="round" stroke-width="0.5"/>
  </g>
  <defs>
    <radialGradient cx="0" cy="0" gradientTransform="matrix(0.0054, 0.0, 0.0, 0.0054, 8.9, -8.6)" gradientUnits="userSpaceOnUse" id="gradient0" r="819.2" spreadMethod="pad">
      <stop offset="0.0" stop-color="#fb4924"/>
      <stop offset="0.5764705882352941" stop-color="#f2992d"/>
      <stop offset="1.0" stop-color="#ffffff"/>
    </radialGradient>
  </defs>
</svg>
