<?xml version="1.0" encoding="UTF-8" standalone="no"?>
<svg xmlns:xlink="http://www.w3.org/1999/xlink" height="1.65px" width="1.85px" xmlns="http://www.w3.org/2000/svg">
  <g transform="matrix(1.0, 0.0, 0.0, 1.0, 1.25, -10.7)">
    <path d="M-0.8 10.95 L-0.75 10.9 -0.7 10.85 -0.65 10.8 -0.6 10.8 -0.55 10.8 -0.3 10.75 -0.25 10.75 -0.15 10.75 0.0 10.8 0.1 10.9 0.2 10.95 0.2 11.0 0.35 11.45 0.1 11.95 -0.4 12.1 -0.85 11.9 -1.0 11.4 -0.8 10.95" fill="url(#gradient0)" fill-rule="evenodd" stroke="none"/>
    <path d="M0.2 10.95 L0.2 11.0 0.35 11.45 0.1 11.95 -0.4 12.1 -0.85 11.9 -1.0 11.4 -0.8 10.95" fill="none" stroke="#000000" stroke-linecap="round" stroke-linejoin="round" stroke-width="0.5"/>
  </g>
  <defs>
    <radialGradient cx="0" cy="0" gradientTransform="matrix(-8.0E-4, 7.0E-4, -7.0E-4, -8.0E-4, -0.35, 11.4)" gradientUnits="userSpaceOnUse" id="gradient0" r="819.2" spreadMethod="pad">
      <stop offset="0.0" stop-color="#fb4924"/>
      <stop offset="0.5764705882352941" stop-color="#f2992d"/>
      <stop offset="1.0" stop-color="#ffffff"/>
    </radialGradient>
  </defs>
</svg>
