<?xml version="1.0" encoding="UTF-8" standalone="no"?>
<svg xmlns:xlink="http://www.w3.org/1999/xlink" height="144.05px" width="148.3px" xmlns="http://www.w3.org/2000/svg">
  <g transform="matrix(1.0, 0.0, 0.0, 1.0, 128.5, -16.85)">
    <path d="M7.65 37.35 Q-7.95 58.2 -24.5 78.45 -30.85 86.25 -37.85 93.7 L-41.25 97.4 Q-51.25 108.2 -60.55 120.05 L-67.75 129.0 Q-72.45 134.7 -77.3 140.2 L-81.9 145.85 Q-89.45 155.75 -99.95 160.7 -101.0 161.2 -102.25 160.4 -110.15 155.2 -113.9 146.1 -117.4 137.6 -120.4 129.0 L-125.95 111.85 Q-129.35 100.35 -128.25 88.15 -127.65 81.6 -125.4 75.5 -121.95 66.25 -119.55 56.85 -117.05 47.0 -111.75 38.6 -107.75 29.55 -102.7 21.15 -95.2 21.5 -87.75 19.7 -70.7 15.65 -52.1 17.35 L-19.35 19.35 Q-10.65 19.55 -2.9 21.2 8.65 23.65 19.8 22.25 13.5 29.55 7.65 37.35" fill="#3300cc" fill-rule="evenodd" stroke="none"/>
  </g>
</svg>
