<?xml version="1.0" encoding="UTF-8" standalone="no"?>
<svg xmlns:xlink="http://www.w3.org/1999/xlink" height="31.4px" width="34.2px" xmlns="http://www.w3.org/2000/svg">
  <g transform="matrix(1.0, 0.0, 0.0, 1.0, 17.1, 15.7)">
    <path d="M11.35 -10.45 Q16.1 -6.1 16.1 0.0 16.1 6.1 11.35 10.35 6.65 14.7 0.0 14.7 -6.65 14.7 -11.4 10.35 -16.1 6.1 -16.1 0.0 -16.1 -6.1 -11.4 -10.45 -6.65 -14.7 0.0 -14.7 6.65 -14.7 11.35 -10.45" fill="url(#gradient0)" fill-rule="evenodd" stroke="none"/>
    <path d="M11.35 -10.45 Q16.1 -6.1 16.1 0.0 16.1 6.1 11.35 10.35 6.65 14.7 0.0 14.7 -6.65 14.7 -11.4 10.35 -16.1 6.1 -16.1 0.0 -16.1 -6.1 -11.4 -10.45 -6.65 -14.7 0.0 -14.7 6.65 -14.7 11.35 -10.45 Z" fill="none" stroke="#000000" stroke-linecap="round" stroke-linejoin="round" stroke-width="2.0"/>
  </g>
  <defs>
    <radialGradient cx="0" cy="0" gradientTransform="matrix(0.031, -0.0151, 0.0103, 0.0211, 4.2, 3.5)" gradientUnits="userSpaceOnUse" id="gradient0" r="819.2" spreadMethod="pad">
      <stop offset="0.0" stop-color="#10101f"/>
      <stop offset="0.7215686274509804" stop-color="#7195b9"/>
      <stop offset="1.0" stop-color="#ffffff"/>
    </radialGradient>
  </defs>
</svg>
