<?xml version="1.0" encoding="UTF-8" standalone="no"?>
<svg xmlns:xlink="http://www.w3.org/1999/xlink" height="24.25px" width="26.05px" xmlns="http://www.w3.org/2000/svg">
  <g transform="matrix(1.0, 0.0, 0.0, 1.0, 13.3, 12.2)">
    <path d="M-0.25 -7.1 L0.15 -11.7 0.75 -7.1 -0.25 -7.1" fill="url(#gradient0)" fill-rule="evenodd" stroke="none"/>
    <path d="M-0.25 -7.1 L0.15 -11.7 0.75 -7.1" fill="none" stroke="#000000" stroke-linecap="round" stroke-linejoin="round" stroke-width="1.0"/>
    <path d="M-5.3 -5.05 L-8.25 -8.6 -4.55 -5.75 -5.3 -5.05" fill="url(#gradient1)" fill-rule="evenodd" stroke="none"/>
    <path d="M-5.3 -5.05 L-8.25 -8.6 -4.55 -5.75" fill="none" stroke="#000000" stroke-linecap="round" stroke-linejoin="round" stroke-width="1.0"/>
    <path d="M-8.2 0.3 L-12.8 -0.1 -8.2 -0.7 -8.2 0.3" fill="url(#gradient2)" fill-rule="evenodd" stroke="none"/>
    <path d="M-8.2 0.3 L-12.8 -0.1 -8.2 -0.7" fill="none" stroke="#000000" stroke-linecap="round" stroke-linejoin="round" stroke-width="1.0"/>
    <path d="M-5.6 6.0 L-9.2 9.0 -6.3 5.3 -5.6 6.0" fill="url(#gradient3)" fill-rule="evenodd" stroke="none"/>
    <path d="M-5.6 6.0 L-9.2 9.0 -6.3 5.3" fill="none" stroke="#000000" stroke-linecap="round" stroke-linejoin="round" stroke-width="1.0"/>
    <path d="M0.7 6.95 L0.25 11.55 -0.3 6.95 0.7 6.95" fill="url(#gradient4)" fill-rule="evenodd" stroke="none"/>
    <path d="M0.7 6.95 L0.25 11.55 -0.3 6.95" fill="none" stroke="#000000" stroke-linecap="round" stroke-linejoin="round" stroke-width="1.0"/>
    <path d="M5.6 -5.55 L9.15 -8.5 6.3 -4.85 5.6 -5.55" fill="url(#gradient5)" fill-rule="evenodd" stroke="none"/>
    <path d="M5.6 -5.55 L9.15 -8.5 6.3 -4.85" fill="none" stroke="#000000" stroke-linecap="round" stroke-linejoin="round" stroke-width="1.0"/>
    <path d="M7.65 -0.75 L12.25 -0.35 7.6 0.25 7.65 -0.75" fill="url(#gradient6)" fill-rule="evenodd" stroke="none"/>
    <path d="M7.65 -0.75 L12.25 -0.35 7.6 0.25" fill="none" stroke="#000000" stroke-linecap="round" stroke-linejoin="round" stroke-width="1.0"/>
    <path d="M6.05 4.8 L9.0 8.35 5.3 5.5 6.05 4.8" fill="url(#gradient7)" fill-rule="evenodd" stroke="none"/>
    <path d="M6.05 4.8 L9.0 8.35 5.3 5.5" fill="none" stroke="#000000" stroke-linecap="round" stroke-linejoin="round" stroke-width="1.0"/>
    <path d="M0.6 -0.05 L0.45 0.4 0.0 0.6 -0.45 0.4 -0.65 -0.05 -0.45 -0.5 0.0 -0.7 0.45 -0.5 0.6 -0.05" fill="url(#gradient8)" fill-rule="evenodd" stroke="none"/>
    <path d="M0.6 -0.05 L0.45 0.4 0.0 0.6 -0.45 0.4 -0.65 -0.05 -0.45 -0.5 0.0 -0.7 0.45 -0.5 0.6 -0.05 Z" fill="none" stroke="#000000" stroke-linecap="round" stroke-linejoin="round" stroke-width="1.0"/>
  </g>
  <defs>
    <radialGradient cx="0" cy="0" gradientTransform="matrix(0.0035, 0.0, 0.0, 0.0035, 0.3, -9.75)" gradientUnits="userSpaceOnUse" id="gradient0" r="819.2" spreadMethod="pad">
      <stop offset="0.0" stop-color="#158072"/>
      <stop offset="0.5764705882352941" stop-color="#48e1cd"/>
      <stop offset="1.0" stop-color="#ffffff"/>
    </radialGradient>
    <radialGradient cx="0" cy="0" gradientTransform="matrix(0.0025, -0.0025, 0.0025, 0.0025, -7.0, -7.4)" gradientUnits="userSpaceOnUse" id="gradient1" r="819.2" spreadMethod="pad">
      <stop offset="0.0" stop-color="#158072"/>
      <stop offset="0.5764705882352941" stop-color="#48e1cd"/>
      <stop offset="1.0" stop-color="#ffffff"/>
    </radialGradient>
    <radialGradient cx="0" cy="0" gradientTransform="matrix(0.0, -0.0035, 0.0035, 0.0, -10.55, -0.25)" gradientUnits="userSpaceOnUse" id="gradient2" r="819.2" spreadMethod="pad">
      <stop offset="0.0" stop-color="#158072"/>
      <stop offset="0.5764705882352941" stop-color="#48e1cd"/>
      <stop offset="1.0" stop-color="#ffffff"/>
    </radialGradient>
    <radialGradient cx="0" cy="0" gradientTransform="matrix(-0.0025, -0.0025, 0.0025, -0.0025, -7.1, 6.8)" gradientUnits="userSpaceOnUse" id="gradient3" r="819.2" spreadMethod="pad">
      <stop offset="0.0" stop-color="#158072"/>
      <stop offset="0.5764705882352941" stop-color="#48e1cd"/>
      <stop offset="1.0" stop-color="#ffffff"/>
    </radialGradient>
    <radialGradient cx="0" cy="0" gradientTransform="matrix(-0.0035, 0.0, 0.0, -0.0035, 0.2, 8.35)" gradientUnits="userSpaceOnUse" id="gradient4" r="819.2" spreadMethod="pad">
      <stop offset="0.0" stop-color="#158072"/>
      <stop offset="0.5764705882352941" stop-color="#48e1cd"/>
      <stop offset="1.0" stop-color="#ffffff"/>
    </radialGradient>
    <radialGradient cx="0" cy="0" gradientTransform="matrix(0.0025, 0.0025, -0.0025, 0.0025, 7.35, -6.45)" gradientUnits="userSpaceOnUse" id="gradient5" r="819.2" spreadMethod="pad">
      <stop offset="0.0" stop-color="#158072"/>
      <stop offset="0.5764705882352941" stop-color="#48e1cd"/>
      <stop offset="1.0" stop-color="#ffffff"/>
    </radialGradient>
    <radialGradient cx="0" cy="0" gradientTransform="matrix(0.0, 0.0035, -0.0035, 0.0, 8.8, -0.3)" gradientUnits="userSpaceOnUse" id="gradient6" r="819.2" spreadMethod="pad">
      <stop offset="0.0" stop-color="#158072"/>
      <stop offset="0.5764705882352941" stop-color="#48e1cd"/>
      <stop offset="1.0" stop-color="#ffffff"/>
    </radialGradient>
    <radialGradient cx="0" cy="0" gradientTransform="matrix(-0.0025, 0.0025, -0.0025, -0.0025, 6.45, 6.05)" gradientUnits="userSpaceOnUse" id="gradient7" r="819.2" spreadMethod="pad">
      <stop offset="0.0" stop-color="#158072"/>
      <stop offset="0.5764705882352941" stop-color="#48e1cd"/>
      <stop offset="1.0" stop-color="#ffffff"/>
    </radialGradient>
    <radialGradient cx="0" cy="0" gradientTransform="matrix(8.0E-4, 0.0, 0.0, 8.0E-4, 0.0, -0.05)" gradientUnits="userSpaceOnUse" id="gradient8" r="819.2" spreadMethod="pad">
      <stop offset="0.0" stop-color="#ffffff"/>
      <stop offset="0.3843137254901961" stop-color="#48e1cd"/>
      <stop offset="0.7137254901960784" stop-color="#188577"/>
    </radialGradient>
  </defs>
</svg>
