<?xml version="1.0" encoding="UTF-8" standalone="no"?>
<svg xmlns:xlink="http://www.w3.org/1999/xlink" height="31.25px" width="32.95px" xmlns="http://www.w3.org/2000/svg">
  <g transform="matrix(1.0, 0.0, 0.0, 1.0, 16.95, 15.95)">
    <path d="M-0.75 -8.55 L-0.1 -15.45 0.75 -8.5 -0.75 -8.55" fill="url(#gradient0)" fill-rule="evenodd" stroke="none"/>
    <path d="M-0.75 -8.55 L-0.1 -15.45 0.75 -8.5" fill="none" stroke="#000000" stroke-linecap="round" stroke-linejoin="round" stroke-width="1.0"/>
    <path d="M-7.65 -5.95 L-12.1 -11.3 -6.55 -7.0 -7.65 -5.95" fill="url(#gradient1)" fill-rule="evenodd" stroke="none"/>
    <path d="M-7.65 -5.95 L-12.1 -11.3 -6.55 -7.0" fill="none" stroke="#000000" stroke-linecap="round" stroke-linejoin="round" stroke-width="1.0"/>
    <path d="M-9.55 0.4 L-16.45 -0.25 -9.5 -1.1 -9.55 0.4" fill="url(#gradient2)" fill-rule="evenodd" stroke="none"/>
    <path d="M-9.55 0.4 L-16.45 -0.25 -9.5 -1.1" fill="none" stroke="#000000" stroke-linecap="round" stroke-linejoin="round" stroke-width="1.0"/>
    <path d="M-6.1 5.95 L-11.45 10.4 -7.15 4.85 -6.1 5.95" fill="url(#gradient3)" fill-rule="evenodd" stroke="none"/>
    <path d="M-6.1 5.95 L-11.45 10.4 -7.15 4.85" fill="none" stroke="#000000" stroke-linecap="round" stroke-linejoin="round" stroke-width="1.0"/>
    <path d="M0.75 7.85 L0.15 14.8 -0.75 7.8 0.75 7.85" fill="url(#gradient4)" fill-rule="evenodd" stroke="none"/>
    <path d="M0.75 7.85 L0.15 14.8 -0.75 7.8" fill="none" stroke="#000000" stroke-linecap="round" stroke-linejoin="round" stroke-width="1.0"/>
    <path d="M6.0 -6.35 L11.3 -10.8 7.0 -5.25 6.0 -6.35" fill="url(#gradient5)" fill-rule="evenodd" stroke="none"/>
    <path d="M6.0 -6.35 L11.3 -10.8 7.0 -5.25" fill="none" stroke="#000000" stroke-linecap="round" stroke-linejoin="round" stroke-width="1.0"/>
    <path d="M8.55 -0.85 L15.5 -0.2 8.55 0.65 8.55 -0.85" fill="url(#gradient6)" fill-rule="evenodd" stroke="none"/>
    <path d="M8.55 -0.85 L15.5 -0.2 8.55 0.65" fill="none" stroke="#000000" stroke-linecap="round" stroke-linejoin="round" stroke-width="1.0"/>
    <path d="M7.5 5.15 L11.95 10.45 6.45 6.15 7.5 5.15" fill="url(#gradient7)" fill-rule="evenodd" stroke="none"/>
    <path d="M7.5 5.15 L11.95 10.45 6.45 6.15" fill="none" stroke="#000000" stroke-linecap="round" stroke-linejoin="round" stroke-width="1.0"/>
    <path d="M0.9 0.0 L0.6 0.65 -0.05 0.95 -0.75 0.65 -1.0 0.0 -0.75 -0.7 -0.05 -1.0 0.6 -0.7 0.9 0.0" fill="url(#gradient8)" fill-rule="evenodd" stroke="none"/>
    <path d="M0.9 0.0 L0.6 0.65 -0.05 0.95 -0.75 0.65 -1.0 0.0 -0.75 -0.7 -0.05 -1.0 0.6 -0.7 0.9 0.0 Z" fill="none" stroke="#000000" stroke-linecap="round" stroke-linejoin="round" stroke-width="1.0"/>
  </g>
  <defs>
    <radialGradient cx="0" cy="0" gradientTransform="matrix(0.0052, 0.0, 0.0, 0.0052, 0.1, -12.5)" gradientUnits="userSpaceOnUse" id="gradient0" r="819.2" spreadMethod="pad">
      <stop offset="0.0" stop-color="#158072"/>
      <stop offset="0.5764705882352941" stop-color="#48e1cd"/>
      <stop offset="1.0" stop-color="#ffffff"/>
    </radialGradient>
    <radialGradient cx="0" cy="0" gradientTransform="matrix(0.0037, -0.0037, 0.0037, 0.0037, -10.2, -9.55)" gradientUnits="userSpaceOnUse" id="gradient1" r="819.2" spreadMethod="pad">
      <stop offset="0.0" stop-color="#158072"/>
      <stop offset="0.5764705882352941" stop-color="#48e1cd"/>
      <stop offset="1.0" stop-color="#ffffff"/>
    </radialGradient>
    <radialGradient cx="0" cy="0" gradientTransform="matrix(0.0, -0.0052, 0.0052, 0.0, -13.05, -0.45)" gradientUnits="userSpaceOnUse" id="gradient2" r="819.2" spreadMethod="pad">
      <stop offset="0.0" stop-color="#158072"/>
      <stop offset="0.5764705882352941" stop-color="#48e1cd"/>
      <stop offset="1.0" stop-color="#ffffff"/>
    </radialGradient>
    <radialGradient cx="0" cy="0" gradientTransform="matrix(-0.0037, -0.0037, 0.0037, -0.0037, -8.3, 7.1)" gradientUnits="userSpaceOnUse" id="gradient3" r="819.2" spreadMethod="pad">
      <stop offset="0.0" stop-color="#158072"/>
      <stop offset="0.5764705882352941" stop-color="#48e1cd"/>
      <stop offset="1.0" stop-color="#ffffff"/>
    </radialGradient>
    <radialGradient cx="0" cy="0" gradientTransform="matrix(-0.0052, 0.0, 0.0, -0.0052, 0.05, 9.95)" gradientUnits="userSpaceOnUse" id="gradient4" r="819.2" spreadMethod="pad">
      <stop offset="0.0" stop-color="#158072"/>
      <stop offset="0.5764705882352941" stop-color="#48e1cd"/>
      <stop offset="1.0" stop-color="#ffffff"/>
    </radialGradient>
    <radialGradient cx="0" cy="0" gradientTransform="matrix(0.0038, 0.0038, -0.0038, 0.0038, 8.6, -7.7)" gradientUnits="userSpaceOnUse" id="gradient5" r="819.2" spreadMethod="pad">
      <stop offset="0.0" stop-color="#158072"/>
      <stop offset="0.5764705882352941" stop-color="#48e1cd"/>
      <stop offset="1.0" stop-color="#ffffff"/>
    </radialGradient>
    <radialGradient cx="0" cy="0" gradientTransform="matrix(0.0, 0.0052, -0.0052, 0.0, 10.3, -0.1)" gradientUnits="userSpaceOnUse" id="gradient6" r="819.2" spreadMethod="pad">
      <stop offset="0.0" stop-color="#158072"/>
      <stop offset="0.5764705882352941" stop-color="#48e1cd"/>
      <stop offset="1.0" stop-color="#ffffff"/>
    </radialGradient>
    <radialGradient cx="0" cy="0" gradientTransform="matrix(-0.0037, 0.0037, -0.0037, -0.0037, 8.15, 7.0)" gradientUnits="userSpaceOnUse" id="gradient7" r="819.2" spreadMethod="pad">
      <stop offset="0.0" stop-color="#158072"/>
      <stop offset="0.5764705882352941" stop-color="#48e1cd"/>
      <stop offset="1.0" stop-color="#ffffff"/>
    </radialGradient>
    <radialGradient cx="0" cy="0" gradientTransform="matrix(0.0012, 0.0, 0.0, 0.0012, -0.05, 0.0)" gradientUnits="userSpaceOnUse" id="gradient8" r="819.2" spreadMethod="pad">
      <stop offset="0.0" stop-color="#ffffff"/>
      <stop offset="0.3843137254901961" stop-color="#48e1cd"/>
      <stop offset="0.7137254901960784" stop-color="#188577"/>
    </radialGradient>
  </defs>
</svg>
