<?xml version="1.0" encoding="UTF-8" standalone="no"?>
<svg xmlns:xlink="http://www.w3.org/1999/xlink" height="37.0px" width="38.4px" xmlns="http://www.w3.org/2000/svg">
  <g transform="matrix(1.0, 0.0, 0.0, 1.0, 19.5, 18.7)">
    <path d="M-0.85 -8.95 L0.0 -18.2 1.15 -8.9 -0.85 -8.95" fill="url(#gradient0)" fill-rule="evenodd" stroke="none"/>
    <path d="M-0.85 -8.95 L0.0 -18.2 1.15 -8.9" fill="none" stroke="#000000" stroke-linecap="round" stroke-linejoin="round" stroke-width="1.0"/>
    <path d="M-8.05 -5.8 L-14.0 -12.9 -6.6 -7.2 -8.05 -5.8" fill="url(#gradient1)" fill-rule="evenodd" stroke="none"/>
    <path d="M-8.05 -5.8 L-14.0 -12.9 -6.6 -7.2" fill="none" stroke="#000000" stroke-linecap="round" stroke-linejoin="round" stroke-width="1.0"/>
    <path d="M-9.75 0.8 L-19.0 0.0 -9.7 -1.2 -9.75 0.8" fill="url(#gradient2)" fill-rule="evenodd" stroke="none"/>
    <path d="M-9.75 0.8 L-19.0 0.0 -9.7 -1.2" fill="none" stroke="#000000" stroke-linecap="round" stroke-linejoin="round" stroke-width="1.0"/>
    <path d="M-6.75 7.0 L-13.85 12.95 -8.1 5.55 -6.75 7.0" fill="url(#gradient3)" fill-rule="evenodd" stroke="none"/>
    <path d="M-6.75 7.0 L-13.85 12.95 -8.1 5.55" fill="none" stroke="#000000" stroke-linecap="round" stroke-linejoin="round" stroke-width="1.0"/>
    <path d="M0.9 8.55 L0.05 17.8 -1.1 8.5 0.9 8.55" fill="url(#gradient4)" fill-rule="evenodd" stroke="none"/>
    <path d="M0.9 8.55 L0.05 17.8 -1.1 8.5" fill="none" stroke="#000000" stroke-linecap="round" stroke-linejoin="round" stroke-width="1.0"/>
    <path d="M6.2 -7.1 L13.3 -13.05 7.55 -5.65 6.2 -7.1" fill="url(#gradient5)" fill-rule="evenodd" stroke="none"/>
    <path d="M6.2 -7.1 L13.3 -13.05 7.55 -5.65" fill="none" stroke="#000000" stroke-linecap="round" stroke-linejoin="round" stroke-width="1.0"/>
    <path d="M9.2 -1.1 L18.4 -0.25 9.15 0.9 9.2 -1.1" fill="url(#gradient6)" fill-rule="evenodd" stroke="none"/>
    <path d="M9.2 -1.1 L18.4 -0.25 9.15 0.9" fill="none" stroke="#000000" stroke-linecap="round" stroke-linejoin="round" stroke-width="1.0"/>
    <path d="M7.6 5.1 L13.5 12.2 6.15 6.45 7.6 5.1" fill="url(#gradient7)" fill-rule="evenodd" stroke="none"/>
    <path d="M7.6 5.1 L13.5 12.2 6.15 6.45" fill="none" stroke="#000000" stroke-linecap="round" stroke-linejoin="round" stroke-width="1.0"/>
    <path d="M1.25 -0.05 Q1.25 0.45 0.85 0.85 0.5 1.25 0.0 1.25 -0.55 1.25 -0.9 0.85 -1.3 0.45 -1.3 -0.05 -1.3 -0.6 -0.9 -1.0 -0.55 -1.35 0.0 -1.35 0.5 -1.35 0.85 -1.0 1.25 -0.6 1.25 -0.05" fill="url(#gradient8)" fill-rule="evenodd" stroke="none"/>
    <path d="M1.25 -0.05 Q1.25 0.45 0.85 0.85 0.5 1.25 0.0 1.25 -0.55 1.25 -0.9 0.85 -1.3 0.45 -1.3 -0.05 -1.3 -0.6 -0.9 -1.0 -0.55 -1.35 0.0 -1.35 0.5 -1.35 0.85 -1.0 1.25 -0.6 1.25 -0.05 Z" fill="none" stroke="#000000" stroke-linecap="round" stroke-linejoin="round" stroke-width="1.0"/>
  </g>
  <defs>
    <radialGradient cx="0" cy="0" gradientTransform="matrix(0.007, 0.0, 0.0, 0.007, 0.3, -14.25)" gradientUnits="userSpaceOnUse" id="gradient0" r="819.2" spreadMethod="pad">
      <stop offset="0.0" stop-color="#158072"/>
      <stop offset="0.5764705882352941" stop-color="#48e1cd"/>
      <stop offset="1.0" stop-color="#ffffff"/>
    </radialGradient>
    <radialGradient cx="0" cy="0" gradientTransform="matrix(0.0049, -0.0049, 0.0049, 0.0049, -11.5, -10.55)" gradientUnits="userSpaceOnUse" id="gradient1" r="819.2" spreadMethod="pad">
      <stop offset="0.0" stop-color="#158072"/>
      <stop offset="0.5764705882352941" stop-color="#48e1cd"/>
      <stop offset="1.0" stop-color="#ffffff"/>
    </radialGradient>
    <radialGradient cx="0" cy="0" gradientTransform="matrix(0.0, -0.007, 0.007, 0.0, -14.45, -0.3)" gradientUnits="userSpaceOnUse" id="gradient2" r="819.2" spreadMethod="pad">
      <stop offset="0.0" stop-color="#158072"/>
      <stop offset="0.5764705882352941" stop-color="#48e1cd"/>
      <stop offset="1.0" stop-color="#ffffff"/>
    </radialGradient>
    <radialGradient cx="0" cy="0" gradientTransform="matrix(-0.0049, -0.0049, 0.0049, -0.0049, -9.7, 8.55)" gradientUnits="userSpaceOnUse" id="gradient3" r="819.2" spreadMethod="pad">
      <stop offset="0.0" stop-color="#158072"/>
      <stop offset="0.5764705882352941" stop-color="#48e1cd"/>
      <stop offset="1.0" stop-color="#ffffff"/>
    </radialGradient>
    <radialGradient cx="0" cy="0" gradientTransform="matrix(-0.007, 0.0, 0.0, -0.007, -0.05, 11.35)" gradientUnits="userSpaceOnUse" id="gradient4" r="819.2" spreadMethod="pad">
      <stop offset="0.0" stop-color="#158072"/>
      <stop offset="0.5764705882352941" stop-color="#48e1cd"/>
      <stop offset="1.0" stop-color="#ffffff"/>
    </radialGradient>
    <radialGradient cx="0" cy="0" gradientTransform="matrix(0.0051, 0.0051, -0.0051, 0.0051, 9.7, -8.95)" gradientUnits="userSpaceOnUse" id="gradient5" r="819.2" spreadMethod="pad">
      <stop offset="0.0" stop-color="#158072"/>
      <stop offset="0.5764705882352941" stop-color="#48e1cd"/>
      <stop offset="1.0" stop-color="#ffffff"/>
    </radialGradient>
    <radialGradient cx="0" cy="0" gradientTransform="matrix(0.0, 0.007, -0.007, 0.0, 11.5, -0.1)" gradientUnits="userSpaceOnUse" id="gradient6" r="819.2" spreadMethod="pad">
      <stop offset="0.0" stop-color="#158072"/>
      <stop offset="0.5764705882352941" stop-color="#48e1cd"/>
      <stop offset="1.0" stop-color="#ffffff"/>
    </radialGradient>
    <radialGradient cx="0" cy="0" gradientTransform="matrix(-0.0049, 0.0049, -0.0049, -0.0049, 8.45, 7.55)" gradientUnits="userSpaceOnUse" id="gradient7" r="819.2" spreadMethod="pad">
      <stop offset="0.0" stop-color="#158072"/>
      <stop offset="0.5764705882352941" stop-color="#48e1cd"/>
      <stop offset="1.0" stop-color="#ffffff"/>
    </radialGradient>
    <radialGradient cx="0" cy="0" gradientTransform="matrix(0.0016, 0.0, 0.0, 0.0016, 0.0, -0.05)" gradientUnits="userSpaceOnUse" id="gradient8" r="819.2" spreadMethod="pad">
      <stop offset="0.0" stop-color="#ffffff"/>
      <stop offset="0.3843137254901961" stop-color="#48e1cd"/>
      <stop offset="0.7137254901960784" stop-color="#188577"/>
    </radialGradient>
  </defs>
</svg>
