<?xml version="1.0" encoding="UTF-8" standalone="no"?>
<svg xmlns:xlink="http://www.w3.org/1999/xlink" height="7.5px" width="7.3px" xmlns="http://www.w3.org/2000/svg">
  <g transform="matrix(1.0, 0.0, 0.0, 1.0, 3.7, 6.05)">
    <path d="M3.1 -2.3 Q3.1 -0.95 2.15 0.0 1.25 0.95 -0.05 0.95 -1.35 0.95 -2.3 0.0 -3.2 -0.95 -3.2 -2.3 -3.2 -3.65 -2.3 -4.6 -1.35 -5.55 -0.05 -5.55 1.25 -5.55 2.15 -4.6 3.1 -3.65 3.1 -2.3" fill="url(#gradient0)" fill-rule="evenodd" stroke="none"/>
    <path d="M3.1 -2.3 Q3.1 -0.95 2.15 0.0 1.25 0.95 -0.05 0.95 -1.35 0.95 -2.3 0.0 -3.2 -0.95 -3.2 -2.3 -3.2 -3.65 -2.3 -4.6 -1.35 -5.55 -0.05 -5.55 1.25 -5.55 2.15 -4.6 3.1 -3.65 3.1 -2.3 Z" fill="none" stroke="#000000" stroke-linecap="round" stroke-linejoin="round" stroke-width="1.0"/>
  </g>
  <defs>
    <radialGradient cx="0" cy="0" gradientTransform="matrix(0.004, 0.0, 0.0, 0.004, -0.05, -2.3)" gradientUnits="userSpaceOnUse" id="gradient0" r="819.2" spreadMethod="pad">
      <stop offset="0.0" stop-color="#ffffff"/>
      <stop offset="0.3843137254901961" stop-color="#48e1cd"/>
      <stop offset="0.7137254901960784" stop-color="#188577"/>
    </radialGradient>
  </defs>
</svg>
