<?xml version="1.0" encoding="UTF-8" standalone="no"?>
<svg xmlns:xlink="http://www.w3.org/1999/xlink" height="160.05px" width="165.8px" xmlns="http://www.w3.org/2000/svg">
  <g transform="matrix(1.0, 0.0, 0.0, 1.0, 128.5, -0.85)">
    <path d="M37.3 3.5 Q21.35 19.1 7.65 37.35 -7.95 58.2 -24.5 78.45 -30.85 86.25 -37.85 93.7 L-41.25 97.4 Q-51.25 108.2 -60.55 120.05 L-67.75 129.0 Q-72.45 134.7 -77.3 140.2 L-81.9 145.85 Q-89.45 155.75 -99.95 160.7 -101.0 161.2 -102.25 160.4 -110.15 155.2 -113.9 146.1 -117.4 137.6 -120.4 129.0 L-125.95 111.85 Q-129.35 100.35 -128.25 88.15 -127.65 81.6 -125.4 75.5 -121.95 66.25 -119.55 56.85 -117.05 47.0 -111.75 38.6 -103.6 20.3 -91.45 4.45 L-87.9 3.7 Q-70.85 -0.35 -52.25 1.35 L-19.5 3.35 Q-10.8 3.55 -3.05 5.2 10.15 8.0 22.8 5.75 L37.3 3.5" fill="#3300cc" fill-rule="evenodd" stroke="none"/>
  </g>
</svg>
