<?xml version="1.0" encoding="UTF-8" standalone="no"?>
<svg xmlns:xlink="http://www.w3.org/1999/xlink" height="7.5px" width="7.3px" xmlns="http://www.w3.org/2000/svg">
  <g transform="matrix(1.0, 0.0, 0.0, 1.0, 3.7, 3.3)">
    <path d="M3.1 0.45 Q3.1 1.8 2.15 2.75 1.25 3.7 -0.05 3.7 -1.35 3.7 -2.3 2.75 -3.2 1.8 -3.2 0.45 -3.2 -0.9 -2.3 -1.85 -1.35 -2.8 -0.05 -2.8 1.25 -2.8 2.15 -1.85 3.1 -0.9 3.1 0.45" fill="url(#gradient0)" fill-rule="evenodd" stroke="none"/>
    <path d="M3.1 0.45 Q3.1 1.8 2.15 2.75 1.25 3.7 -0.05 3.7 -1.35 3.7 -2.3 2.75 -3.2 1.8 -3.2 0.45 -3.2 -0.9 -2.3 -1.85 -1.35 -2.8 -0.05 -2.8 1.25 -2.8 2.15 -1.85 3.1 -0.9 3.1 0.45 Z" fill="none" stroke="#000000" stroke-linecap="round" stroke-linejoin="round" stroke-width="1.0"/>
  </g>
  <defs>
    <radialGradient cx="0" cy="0" gradientTransform="matrix(0.004, 0.0, 0.0, 0.004, -0.05, 0.45)" gradientUnits="userSpaceOnUse" id="gradient0" r="819.2" spreadMethod="pad">
      <stop offset="0.0" stop-color="#ffffff"/>
      <stop offset="0.3843137254901961" stop-color="#48e1cd"/>
      <stop offset="0.7137254901960784" stop-color="#188577"/>
    </radialGradient>
  </defs>
</svg>
