<?xml version="1.0" encoding="UTF-8" standalone="no"?>
<svg xmlns:xlink="http://www.w3.org/1999/xlink" height="163.25px" width="169.7px" xmlns="http://www.w3.org/2000/svg">
  <g transform="matrix(1.0, 0.0, 0.0, 1.0, 128.5, 2.35)">
    <path d="M41.2 -0.25 Q23.0 16.9 7.65 37.35 -7.95 58.2 -24.5 78.45 -30.85 86.25 -37.85 93.7 L-41.25 97.4 Q-51.25 108.2 -60.55 120.05 L-67.75 129.0 Q-72.45 134.7 -77.3 140.2 L-81.9 145.85 Q-89.45 155.75 -99.95 160.7 -101.0 161.2 -102.25 160.4 -110.15 155.2 -113.9 146.1 -117.4 137.6 -120.4 129.0 L-125.95 111.85 Q-129.35 100.35 -128.25 88.15 -127.65 81.6 -125.4 75.5 -121.95 66.25 -119.55 56.85 -117.05 47.0 -111.75 38.6 -102.65 18.1 -88.45 0.65 L-87.9 0.5 Q-70.85 -3.55 -52.25 -1.85 L-19.5 0.15 Q-10.8 0.35 -3.05 2.0 10.15 4.8 22.8 2.55 L41.2 -0.25" fill="#3300cc" fill-rule="evenodd" stroke="none"/>
  </g>
</svg>
