<?xml version="1.0" encoding="UTF-8" standalone="no"?>
<svg xmlns:xlink="http://www.w3.org/1999/xlink" height="65.65px" width="67.65px" xmlns="http://www.w3.org/2000/svg">
  <g transform="matrix(1.0, 0.0, 0.0, 1.0, 33.85, 32.85)">
    <path d="M8.1 -7.45 Q11.5 -4.35 11.5 0.0 11.5 4.35 8.1 7.4 4.75 10.5 0.0 10.5 -4.75 10.5 -8.15 7.4 -11.5 4.35 -11.5 0.0 -11.5 -4.35 -8.15 -7.45 -4.75 -10.5 0.0 -10.5 4.75 -10.5 8.1 -7.45" fill="url(#gradient0)" fill-rule="evenodd" stroke="none"/>
    <path d="M8.1 -7.45 Q11.5 -4.35 11.5 0.0 11.5 4.35 8.1 7.4 4.75 10.5 0.0 10.5 -4.75 10.5 -8.15 7.4 -11.5 4.35 -11.5 0.0 -11.5 -4.35 -8.15 -7.45 -4.75 -10.5 0.0 -10.5 4.75 -10.5 8.1 -7.45 Z" fill="none" stroke="#000000" stroke-linecap="round" stroke-linejoin="round" stroke-width="2.0"/>
    <path d="M2.45 9.25 L0.35 32.3 -2.55 9.1 2.45 9.25" fill="url(#gradient1)" fill-rule="evenodd" stroke="none"/>
    <path d="M2.45 9.25 L0.35 32.3 -2.55 9.1" fill="none" stroke="#000000" stroke-linecap="round" stroke-linejoin="round" stroke-width="1.0"/>
    <path d="M3.1 -0.8 Q3.1 0.55 2.15 1.5 1.25 2.45 -0.05 2.45 -1.35 2.45 -2.3 1.5 -3.2 0.55 -3.2 -0.8 -3.2 -2.15 -2.3 -3.1 -1.35 -4.05 -0.05 -4.05 1.25 -4.05 2.15 -3.1 3.1 -2.15 3.1 -0.8" fill="url(#gradient2)" fill-rule="evenodd" stroke="none"/>
    <path d="M3.1 -0.8 Q3.1 0.55 2.15 1.5 1.25 2.45 -0.05 2.45 -1.35 2.45 -2.3 1.5 -3.2 0.55 -3.2 -0.8 -3.2 -2.15 -2.3 -3.1 -1.35 -4.05 -0.05 -4.05 1.25 -4.05 2.15 -3.1 3.1 -2.15 3.1 -0.8 Z" fill="none" stroke="#000000" stroke-linecap="round" stroke-linejoin="round" stroke-width="1.0"/>
    <path d="M-5.85 7.75 L-23.65 22.55 -9.3 4.1 -5.85 7.75" fill="url(#gradient3)" fill-rule="evenodd" stroke="none"/>
    <path d="M-5.85 7.75 L-23.65 22.55 -9.3 4.1" fill="none" stroke="#000000" stroke-linecap="round" stroke-linejoin="round" stroke-width="1.0"/>
    <path d="M-10.3 2.3 L-33.35 0.2 -10.15 -2.7 -10.3 2.3" fill="url(#gradient4)" fill-rule="evenodd" stroke="none"/>
    <path d="M-10.3 2.3 L-33.35 0.2 -10.15 -2.7" fill="none" stroke="#000000" stroke-linecap="round" stroke-linejoin="round" stroke-width="1.0"/>
    <path d="M-8.1 -5.1 L-22.95 -22.9 -4.5 -8.55 -8.1 -5.1" fill="url(#gradient5)" fill-rule="evenodd" stroke="none"/>
    <path d="M-8.1 -5.1 L-22.95 -22.9 -4.5 -8.55" fill="none" stroke="#000000" stroke-linecap="round" stroke-linejoin="round" stroke-width="1.0"/>
    <path d="M-2.35 -9.3 L-0.25 -32.35 2.65 -9.15 -2.35 -9.3" fill="url(#gradient6)" fill-rule="evenodd" stroke="none"/>
    <path d="M-2.35 -9.3 L-0.25 -32.35 2.65 -9.15" fill="none" stroke="#000000" stroke-linecap="round" stroke-linejoin="round" stroke-width="1.0"/>
    <path d="M8.9 4.95 L23.7 22.7 5.25 8.35 8.9 4.95" fill="url(#gradient7)" fill-rule="evenodd" stroke="none"/>
    <path d="M8.9 4.95 L23.7 22.7 5.25 8.35" fill="none" stroke="#000000" stroke-linecap="round" stroke-linejoin="round" stroke-width="1.0"/>
    <path d="M10.25 -2.6 L33.3 -0.5 10.1 2.4 10.25 -2.6" fill="url(#gradient8)" fill-rule="evenodd" stroke="none"/>
    <path d="M10.25 -2.6 L33.3 -0.5 10.1 2.4" fill="none" stroke="#000000" stroke-linecap="round" stroke-linejoin="round" stroke-width="1.0"/>
    <path d="M5.45 -8.2 L23.2 -23.05 8.85 -4.6 5.45 -8.2" fill="url(#gradient9)" fill-rule="evenodd" stroke="none"/>
    <path d="M5.45 -8.2 L23.2 -23.05 8.85 -4.6" fill="none" stroke="#000000" stroke-linecap="round" stroke-linejoin="round" stroke-width="1.0"/>
  </g>
  <defs>
    <radialGradient cx="0" cy="0" gradientTransform="matrix(0.0221, -0.0108, 0.0074, 0.0151, 3.0, 2.5)" gradientUnits="userSpaceOnUse" id="gradient0" r="819.2" spreadMethod="pad">
      <stop offset="0.0" stop-color="#158072"/>
      <stop offset="0.5764705882352941" stop-color="#48e1cd"/>
      <stop offset="1.0" stop-color="#ffffff"/>
    </radialGradient>
    <radialGradient cx="0" cy="0" gradientTransform="matrix(-0.0175, 0.0, 0.0, -0.0175, -0.45, 22.45)" gradientUnits="userSpaceOnUse" id="gradient1" r="819.2" spreadMethod="pad">
      <stop offset="0.0" stop-color="#158072"/>
      <stop offset="0.5764705882352941" stop-color="#48e1cd"/>
      <stop offset="1.0" stop-color="#ffffff"/>
    </radialGradient>
    <radialGradient cx="0" cy="0" gradientTransform="matrix(0.004, 0.0, 0.0, 0.004, -0.05, -0.8)" gradientUnits="userSpaceOnUse" id="gradient2" r="819.2" spreadMethod="pad">
      <stop offset="0.0" stop-color="#ffffff"/>
      <stop offset="0.3843137254901961" stop-color="#48e1cd"/>
      <stop offset="0.7137254901960784" stop-color="#188577"/>
    </radialGradient>
    <radialGradient cx="0" cy="0" gradientTransform="matrix(-0.0123, -0.0123, 0.0123, -0.0123, -17.7, 16.3)" gradientUnits="userSpaceOnUse" id="gradient3" r="819.2" spreadMethod="pad">
      <stop offset="0.0" stop-color="#158072"/>
      <stop offset="0.5764705882352941" stop-color="#48e1cd"/>
      <stop offset="1.0" stop-color="#ffffff"/>
    </radialGradient>
    <radialGradient cx="0" cy="0" gradientTransform="matrix(0.0, -0.0175, 0.0175, 0.0, -22.05, -0.45)" gradientUnits="userSpaceOnUse" id="gradient4" r="819.2" spreadMethod="pad">
      <stop offset="0.0" stop-color="#158072"/>
      <stop offset="0.5764705882352941" stop-color="#48e1cd"/>
      <stop offset="1.0" stop-color="#ffffff"/>
    </radialGradient>
    <radialGradient cx="0" cy="0" gradientTransform="matrix(0.0123, -0.0123, 0.0123, 0.0123, -11.95, -12.5)" gradientUnits="userSpaceOnUse" id="gradient5" r="819.2" spreadMethod="pad">
      <stop offset="0.0" stop-color="#158072"/>
      <stop offset="0.5764705882352941" stop-color="#48e1cd"/>
      <stop offset="1.0" stop-color="#ffffff"/>
    </radialGradient>
    <radialGradient cx="0" cy="0" gradientTransform="matrix(0.0175, 0.0, 0.0, 0.0175, 0.55, -22.5)" gradientUnits="userSpaceOnUse" id="gradient6" r="819.2" spreadMethod="pad">
      <stop offset="0.0" stop-color="#158072"/>
      <stop offset="0.5764705882352941" stop-color="#48e1cd"/>
      <stop offset="1.0" stop-color="#ffffff"/>
    </radialGradient>
    <radialGradient cx="0" cy="0" gradientTransform="matrix(-0.0127, 0.0127, -0.0127, -0.0127, 13.45, 13.7)" gradientUnits="userSpaceOnUse" id="gradient7" r="819.2" spreadMethod="pad">
      <stop offset="0.0" stop-color="#158072"/>
      <stop offset="0.5764705882352941" stop-color="#48e1cd"/>
      <stop offset="1.0" stop-color="#ffffff"/>
    </radialGradient>
    <radialGradient cx="0" cy="0" gradientTransform="matrix(0.0, 0.0175, -0.0175, 0.0, 16.05, -0.15)" gradientUnits="userSpaceOnUse" id="gradient8" r="819.2" spreadMethod="pad">
      <stop offset="0.0" stop-color="#158072"/>
      <stop offset="0.5764705882352941" stop-color="#48e1cd"/>
      <stop offset="1.0" stop-color="#ffffff"/>
    </radialGradient>
    <radialGradient cx="0" cy="0" gradientTransform="matrix(0.0123, 0.0123, -0.0123, 0.0123, 11.6, -10.35)" gradientUnits="userSpaceOnUse" id="gradient9" r="819.2" spreadMethod="pad">
      <stop offset="0.0" stop-color="#158072"/>
      <stop offset="0.5764705882352941" stop-color="#48e1cd"/>
      <stop offset="1.0" stop-color="#ffffff"/>
    </radialGradient>
  </defs>
</svg>
