<?xml version="1.0" encoding="UTF-8" standalone="no"?>
<svg xmlns:xlink="http://www.w3.org/1999/xlink" height="23.0px" width="25.0px" xmlns="http://www.w3.org/2000/svg">
  <g transform="matrix(1.0, 0.0, 0.0, 1.0, 12.35, 11.35)">
    <path d="M0.15 -10.35 Q4.9 -10.35 8.25 -7.3 11.65 -4.2 11.65 0.15 11.65 4.5 8.25 7.55 4.9 10.65 0.15 10.65 -4.6 10.65 -8.0 7.55 -11.35 4.5 -11.35 0.15 -11.35 -4.2 -8.0 -7.3 -4.6 -10.35 0.15 -10.35" fill="url(#gradient0)" fill-rule="evenodd" stroke="none"/>
    <path d="M0.15 -10.35 Q4.9 -10.35 8.25 -7.3 11.65 -4.2 11.65 0.15 11.65 4.5 8.25 7.55 4.9 10.65 0.15 10.65 -4.6 10.65 -8.0 7.55 -11.35 4.5 -11.35 0.15 -11.35 -4.2 -8.0 -7.3 -4.6 -10.35 0.15 -10.35 Z" fill="none" stroke="#000000" stroke-linecap="round" stroke-linejoin="round" stroke-width="2.0"/>
  </g>
  <defs>
    <radialGradient cx="0" cy="0" gradientTransform="matrix(0.0154, -0.0075, 0.0071, 0.0146, 1.2, -0.15)" gradientUnits="userSpaceOnUse" id="gradient0" r="819.2" spreadMethod="pad">
      <stop offset="0.0" stop-color="#a632cd"/>
      <stop offset="0.3176470588235294" stop-color="#830f9f"/>
      <stop offset="0.8235294117647058" stop-color="#000000"/>
    </radialGradient>
  </defs>
</svg>
