<?xml version="1.0" encoding="UTF-8" standalone="no"?>
<svg xmlns:xlink="http://www.w3.org/1999/xlink" height="3.05px" width="7.75px" xmlns="http://www.w3.org/2000/svg">
  <g transform="matrix(1.0, 0.0, 0.0, 1.0, -11.65, 2.2)">
    <path d="M19.15 -0.75 L18.25 -0.95 Q17.6 -1.0 17.35 -0.65 17.1 -0.35 16.65 -0.25 16.05 -0.1 15.8 -0.45 L15.2 -1.25 14.55 -1.8 13.65 -1.9 Q13.1 -1.8 12.85 -1.5 12.55 -1.1 11.9 -1.2 L11.95 0.05 Q12.6 0.15 12.9 -0.35 13.25 -0.8 13.65 -0.9 L14.65 -0.7 14.95 -0.3 15.6 0.35 16.65 0.55 17.4 0.2 18.15 -0.5 Q18.5 -0.8 19.15 -0.75" fill="url(#gradient0)" fill-rule="evenodd" stroke="none"/>
    <path d="M19.15 -0.75 L18.25 -0.95 Q17.6 -1.0 17.35 -0.65 17.1 -0.35 16.65 -0.25 16.05 -0.1 15.8 -0.45 L15.2 -1.25 14.55 -1.8 13.65 -1.9 Q13.1 -1.8 12.85 -1.5 12.55 -1.1 11.9 -1.2 L11.95 0.05 Q12.6 0.15 12.9 -0.35 13.25 -0.8 13.65 -0.9 L14.65 -0.7 14.95 -0.3 15.6 0.35 16.65 0.55 17.4 0.2 18.15 -0.5 Q18.5 -0.8 19.15 -0.75 Z" fill="none" stroke="#000000" stroke-linecap="round" stroke-linejoin="round" stroke-width="0.5"/>
  </g>
  <defs>
    <linearGradient gradientTransform="matrix(0.0, -0.0016, -0.0044, 0.0, 15.55, -0.65)" gradientUnits="userSpaceOnUse" id="gradient0" spreadMethod="pad" x1="-819.2" x2="819.2">
      <stop offset="0.0" stop-color="#a632cd"/>
      <stop offset="0.3176470588235294" stop-color="#830f9f"/>
      <stop offset="0.8235294117647058" stop-color="#000000"/>
    </linearGradient>
  </defs>
</svg>
