<?xml version="1.0" encoding="UTF-8" standalone="no"?>
<svg xmlns:xlink="http://www.w3.org/1999/xlink" height="4.75px" width="12.55px" xmlns="http://www.w3.org/2000/svg">
  <g transform="matrix(1.0, 0.0, 0.0, 1.0, -11.5, 2.8)">
    <path d="M22.3 -0.95 Q21.25 -1.0 20.8 -0.4 L19.65 0.25 Q18.65 0.5 18.25 -0.1 L17.25 -1.45 16.15 -2.35 14.6 -2.5 Q13.7 -2.35 13.3 -1.85 12.8 -1.15 11.75 -1.35 L11.8 0.7 Q12.85 0.9 13.4 0.1 14.0 -0.7 14.7 -0.85 15.85 -1.1 16.35 -0.5 L16.8 0.15 17.85 1.3 Q18.65 1.9 19.65 1.6 20.35 1.45 20.85 0.95 L22.1 -0.15 Q22.75 -0.65 23.8 -0.6 L22.3 -0.95" fill="url(#gradient0)" fill-rule="evenodd" stroke="none"/>
    <path d="M22.3 -0.95 Q21.25 -1.0 20.8 -0.4 L19.65 0.25 Q18.65 0.5 18.25 -0.1 L17.25 -1.45 16.15 -2.35 14.6 -2.5 Q13.7 -2.35 13.3 -1.85 12.8 -1.15 11.75 -1.35 L11.8 0.7 Q12.85 0.9 13.4 0.1 14.0 -0.7 14.7 -0.85 15.85 -1.1 16.35 -0.5 L16.8 0.15 17.85 1.3 Q18.65 1.9 19.65 1.6 20.35 1.45 20.85 0.95 L22.1 -0.15 Q22.75 -0.65 23.8 -0.6 L22.3 -0.95 Z" fill="none" stroke="#000000" stroke-linecap="round" stroke-linejoin="round" stroke-width="0.5"/>
  </g>
  <defs>
    <linearGradient gradientTransform="matrix(0.0, -0.0026, -0.0074, 0.0, 17.8, -0.45)" gradientUnits="userSpaceOnUse" id="gradient0" spreadMethod="pad" x1="-819.2" x2="819.2">
      <stop offset="0.0" stop-color="#a632cd"/>
      <stop offset="0.3176470588235294" stop-color="#830f9f"/>
      <stop offset="0.8235294117647058" stop-color="#000000"/>
    </linearGradient>
  </defs>
</svg>
