<?xml version="1.0" encoding="UTF-8" standalone="no"?>
<svg xmlns:xlink="http://www.w3.org/1999/xlink" height="9.55px" width="9.85px" xmlns="http://www.w3.org/2000/svg">
  <g transform="matrix(1.0, 0.0, 0.0, 1.0, 16.85, 16.45)">
    <path d="M-15.8 -14.9 Q-15.1 -14.1 -14.35 -14.25 L-13.1 -13.9 Q-12.2 -13.3 -12.35 -12.65 L-12.6 -11.0 Q-12.75 -10.15 -12.45 -9.55 L-11.45 -8.35 Q-10.75 -7.85 -10.1 -7.9 -9.25 -8.05 -8.65 -7.15 L-7.25 -8.65 Q-7.85 -9.55 -8.75 -9.35 L-10.35 -9.55 Q-11.35 -10.25 -11.3 -11.0 L-11.1 -11.8 -11.1 -13.3 Q-11.2 -14.3 -12.15 -14.85 -12.7 -15.2 -13.45 -15.25 L-15.1 -15.3 Q-15.9 -15.4 -16.6 -16.2 -16.45 -15.55 -15.8 -14.9" fill="url(#gradient0)" fill-rule="evenodd" stroke="none"/>
    <path d="M-15.8 -14.9 Q-15.1 -14.1 -14.35 -14.25 L-13.1 -13.9 Q-12.2 -13.3 -12.35 -12.65 L-12.6 -11.0 Q-12.75 -10.15 -12.45 -9.55 L-11.45 -8.35 Q-10.75 -7.85 -10.1 -7.9 -9.25 -8.05 -8.65 -7.15 L-7.25 -8.65 Q-7.85 -9.55 -8.75 -9.35 L-10.35 -9.55 Q-11.35 -10.25 -11.3 -11.0 L-11.1 -11.8 -11.1 -13.3 Q-11.2 -14.3 -12.15 -14.85 -12.7 -15.2 -13.45 -15.25 L-15.1 -15.3 Q-15.9 -15.4 -16.6 -16.2 -16.45 -15.55 -15.8 -14.9 Z" fill="none" stroke="#000000" stroke-linecap="round" stroke-linejoin="round" stroke-width="0.5"/>
  </g>
  <defs>
    <linearGradient gradientTransform="matrix(-0.0018, 0.0018, 0.0052, 0.0052, -12.25, -12.05)" gradientUnits="userSpaceOnUse" id="gradient0" spreadMethod="pad" x1="-819.2" x2="819.2">
      <stop offset="0.0" stop-color="#a632cd"/>
      <stop offset="0.3176470588235294" stop-color="#830f9f"/>
      <stop offset="0.8235294117647058" stop-color="#000000"/>
    </linearGradient>
  </defs>
</svg>
