<?xml version="1.0" encoding="UTF-8" standalone="no"?>
<svg xmlns:xlink="http://www.w3.org/1999/xlink" height="4.75px" width="12.6px" xmlns="http://www.w3.org/2000/svg">
  <g transform="matrix(1.0, 0.0, 0.0, 1.0, 23.65, 2.8)">
    <path d="M-20.35 -0.4 Q-20.0 0.1 -19.25 0.25 -18.2 0.5 -17.85 -0.1 L-16.85 -1.45 Q-16.35 -2.1 -15.7 -2.35 L-14.2 -2.5 Q-13.3 -2.35 -12.9 -1.85 -12.4 -1.15 -11.3 -1.35 L-11.4 0.7 Q-12.45 0.9 -13.0 0.1 -13.55 -0.7 -14.25 -0.85 -15.4 -1.1 -15.9 -0.5 L-16.4 0.15 -17.45 1.3 Q-18.2 1.9 -19.25 1.6 L-20.45 0.95 -21.7 -0.15 Q-22.3 -0.65 -23.4 -0.6 L-21.9 -0.95 Q-20.85 -1.0 -20.35 -0.4" fill="url(#gradient0)" fill-rule="evenodd" stroke="none"/>
    <path d="M-20.35 -0.4 Q-20.0 0.1 -19.25 0.25 -18.2 0.5 -17.85 -0.1 L-16.85 -1.45 Q-16.35 -2.1 -15.7 -2.35 L-14.2 -2.5 Q-13.3 -2.35 -12.9 -1.85 -12.4 -1.15 -11.3 -1.35 L-11.4 0.7 Q-12.45 0.9 -13.0 0.1 -13.55 -0.7 -14.25 -0.85 -15.4 -1.1 -15.9 -0.5 L-16.4 0.15 -17.45 1.3 Q-18.2 1.9 -19.25 1.6 L-20.45 0.95 -21.7 -0.15 Q-22.3 -0.65 -23.4 -0.6 L-21.9 -0.95 Q-20.85 -1.0 -20.35 -0.4 Z" fill="none" stroke="#000000" stroke-linecap="round" stroke-linejoin="round" stroke-width="0.5"/>
  </g>
  <defs>
    <linearGradient gradientTransform="matrix(0.0, -0.0026, 0.0074, 0.0, -17.35, -0.45)" gradientUnits="userSpaceOnUse" id="gradient0" spreadMethod="pad" x1="-819.2" x2="819.2">
      <stop offset="0.0" stop-color="#a632cd"/>
      <stop offset="0.3176470588235294" stop-color="#830f9f"/>
      <stop offset="0.8235294117647058" stop-color="#000000"/>
    </linearGradient>
  </defs>
</svg>
