<?xml version="1.0" encoding="UTF-8" standalone="no"?>
<svg xmlns:xlink="http://www.w3.org/1999/xlink" height="18.55px" width="18.35px" xmlns="http://www.w3.org/2000/svg">
  <g transform="matrix(1.0, 0.0, 0.0, 1.0, 24.85, 25.25)">
    <path d="M-24.6 -25.0 L-23.25 -22.75 -21.1 -20.3 Q-19.75 -18.95 -18.7 -17.4 L-16.35 -14.75 -13.45 -11.65 -10.2 -8.2 -8.95 -6.95 -6.75 -9.15 -9.4 -11.8 -12.2 -14.5 -15.0 -17.2 -17.7 -19.8 -20.7 -22.1 -23.55 -24.35 -24.6 -25.0" fill="url(#gradient0)" fill-rule="evenodd" stroke="none"/>
    <path d="M-24.6 -25.0 L-23.25 -22.75 -21.1 -20.3 Q-19.75 -18.95 -18.7 -17.4 L-16.35 -14.75 -13.45 -11.65 -10.2 -8.2 -8.95 -6.95 -6.75 -9.15 -9.4 -11.8 -12.2 -14.5 -15.0 -17.2 -17.7 -19.8 -20.7 -22.1 -23.55 -24.35 -24.6 -25.0 Z" fill="none" stroke="#000000" stroke-linecap="round" stroke-linejoin="round" stroke-width="0.5"/>
  </g>
  <defs>
    <linearGradient gradientTransform="matrix(-0.0013, 0.0013, 0.0103, 0.0103, -15.75, -16.95)" gradientUnits="userSpaceOnUse" id="gradient0" spreadMethod="pad" x1="-819.2" x2="819.2">
      <stop offset="0.0" stop-color="#a632cd"/>
      <stop offset="0.3176470588235294" stop-color="#830f9f"/>
      <stop offset="0.8235294117647058" stop-color="#000000"/>
    </linearGradient>
  </defs>
</svg>
