<?xml version="1.0" encoding="UTF-8" standalone="no"?>
<svg xmlns:xlink="http://www.w3.org/1999/xlink" height="18.35px" width="18.55px" xmlns="http://www.w3.org/2000/svg">
  <g transform="matrix(1.0, 0.0, 0.0, 1.0, 25.45, -6.9)">
    <path d="M-25.2 25.0 L-22.95 23.65 -20.5 21.5 Q-19.2 20.15 -17.6 19.1 -16.3 18.1 -14.95 16.75 L-11.85 13.85 -8.4 10.6 -7.15 9.35 -9.35 7.15 -12.0 9.8 -14.7 12.6 -17.4 15.4 -20.0 18.1 -22.3 21.1 -24.55 23.95 -25.2 25.0" fill="url(#gradient0)" fill-rule="evenodd" stroke="none"/>
    <path d="M-25.2 25.0 L-22.95 23.65 -20.5 21.5 Q-19.2 20.15 -17.6 19.1 -16.3 18.1 -14.95 16.75 L-11.85 13.85 -8.4 10.6 -7.15 9.35 -9.35 7.15 -12.0 9.8 -14.7 12.6 -17.4 15.4 -20.0 18.1 -22.3 21.1 -24.55 23.95 -25.2 25.0 Z" fill="none" stroke="#000000" stroke-linecap="round" stroke-linejoin="round" stroke-width="0.5"/>
  </g>
  <defs>
    <linearGradient gradientTransform="matrix(0.0013, 0.0013, 0.0103, -0.0103, -17.15, 16.15)" gradientUnits="userSpaceOnUse" id="gradient0" spreadMethod="pad" x1="-819.2" x2="819.2">
      <stop offset="0.0" stop-color="#a632cd"/>
      <stop offset="0.3176470588235294" stop-color="#830f9f"/>
      <stop offset="0.8235294117647058" stop-color="#000000"/>
    </linearGradient>
  </defs>
</svg>
