<?xml version="1.0" encoding="UTF-8" standalone="no"?>
<svg xmlns:xlink="http://www.w3.org/1999/xlink" height="50.5px" width="71.4px" xmlns="http://www.w3.org/2000/svg">
  <g transform="matrix(1.0, 0.0, 0.0, 1.0, 35.5, 25.25)">
    <path d="M25.0 -25.0 L23.6 -22.8 21.4 -20.4 18.9 -17.6 16.55 -14.95 13.65 -11.85 10.4 -8.4 9.15 -7.15 Q8.15 -7.95 7.4 -8.9 L10.05 -11.55 12.8 -14.3 15.6 -17.0 18.3 -19.6 21.2 -22.0 24.0 -24.3 25.0 -25.0" fill="url(#gradient0)" fill-rule="evenodd" stroke="none"/>
    <path d="M25.0 -25.0 L23.6 -22.8 21.4 -20.4 18.9 -17.6 16.55 -14.95 13.65 -11.85 10.4 -8.4 9.15 -7.15 Q8.15 -7.95 7.4 -8.9 L10.05 -11.55 12.8 -14.3 15.6 -17.0 18.3 -19.6 21.2 -22.0 24.0 -24.3 25.0 -25.0 Z" fill="none" stroke="#000000" stroke-linecap="round" stroke-linejoin="round" stroke-width="0.5"/>
    <path d="M35.65 -0.05 L33.05 -0.6 29.8 -0.75 26.1 -1.0 22.55 -1.2 18.3 -1.35 13.55 -1.45 11.8 -1.45 Q11.65 -0.2 11.8 1.05 L15.55 1.05 19.4 1.0 23.3 0.95 27.05 0.85 30.8 0.5 34.4 0.15 35.65 -0.05" fill="url(#gradient1)" fill-rule="evenodd" stroke="none"/>
    <path d="M35.65 -0.05 L33.05 -0.6 29.8 -0.75 26.1 -1.0 22.55 -1.2 18.3 -1.35 13.55 -1.45 11.8 -1.45 Q11.65 -0.2 11.8 1.05 L15.55 1.05 19.4 1.0 23.3 0.95 27.05 0.85 30.8 0.5 34.4 0.15 35.65 -0.05 Z" fill="none" stroke="#000000" stroke-linecap="round" stroke-linejoin="round" stroke-width="0.5"/>
    <path d="M25.6 25.0 L23.4 23.6 21.0 21.4 18.2 18.9 15.55 16.55 12.45 13.65 9.0 10.4 7.75 9.15 Q8.55 8.15 9.5 7.4 L12.15 10.05 14.9 12.8 17.6 15.6 20.2 18.3 22.6 21.2 24.9 24.0 25.6 25.0" fill="url(#gradient2)" fill-rule="evenodd" stroke="none"/>
    <path d="M25.6 25.0 L23.4 23.6 21.0 21.4 18.2 18.9 15.55 16.55 12.45 13.65 9.0 10.4 7.75 9.15 Q8.55 8.15 9.5 7.4 L12.15 10.05 14.9 12.8 17.6 15.6 20.2 18.3 22.6 21.2 24.9 24.0 25.6 25.0 Z" fill="none" stroke="#000000" stroke-linecap="round" stroke-linejoin="round" stroke-width="0.5"/>
    <path d="M-24.6 -25.0 L-23.2 -22.8 -21.0 -20.4 -18.5 -17.6 -16.15 -14.95 -13.25 -11.85 -10.0 -8.4 -8.75 -7.15 Q-7.75 -7.95 -7.0 -8.9 L-9.65 -11.55 -12.4 -14.3 -15.2 -17.0 -17.9 -19.6 -20.8 -22.0 -23.6 -24.3 -24.6 -25.0" fill="url(#gradient3)" fill-rule="evenodd" stroke="none"/>
    <path d="M-24.6 -25.0 L-23.2 -22.8 -21.0 -20.4 -18.5 -17.6 -16.15 -14.95 -13.25 -11.85 -10.0 -8.4 -8.75 -7.15 Q-7.75 -7.95 -7.0 -8.9 L-9.65 -11.55 -12.4 -14.3 -15.2 -17.0 -17.9 -19.6 -20.8 -22.0 -23.6 -24.3 -24.6 -25.0 Z" fill="none" stroke="#000000" stroke-linecap="round" stroke-linejoin="round" stroke-width="0.5"/>
    <path d="M-35.25 -0.05 L-32.65 -0.6 -29.4 -0.75 -25.7 -1.0 -22.15 -1.2 -17.9 -1.35 -13.15 -1.45 -11.4 -1.45 Q-11.25 -0.2 -11.4 1.05 L-15.15 1.05 -19.0 1.0 -22.9 0.95 -26.65 0.85 -30.4 0.5 -34.0 0.15 -35.25 -0.05" fill="url(#gradient4)" fill-rule="evenodd" stroke="none"/>
    <path d="M-35.25 -0.05 L-32.65 -0.6 -29.4 -0.75 -25.7 -1.0 -22.15 -1.2 -17.9 -1.35 -13.15 -1.45 -11.4 -1.45 Q-11.25 -0.2 -11.4 1.05 L-15.15 1.05 -19.0 1.0 -22.9 0.95 -26.65 0.85 -30.4 0.5 -34.0 0.15 -35.25 -0.05 Z" fill="none" stroke="#000000" stroke-linecap="round" stroke-linejoin="round" stroke-width="0.5"/>
    <path d="M-25.2 25.0 Q-24.25 24.5 -23.0 23.6 L-20.6 21.4 -17.8 18.9 -15.15 16.55 -12.05 13.65 -8.6 10.4 -7.35 9.15 Q-8.15 8.15 -9.1 7.4 L-11.75 10.05 -14.5 12.8 -17.2 15.6 -19.8 18.3 -22.2 21.2 -24.5 24.0 -25.2 25.0" fill="url(#gradient5)" fill-rule="evenodd" stroke="none"/>
    <path d="M-25.2 25.0 Q-24.25 24.5 -23.0 23.6 L-20.6 21.4 -17.8 18.9 -15.15 16.55 -12.05 13.65 -8.6 10.4 -7.35 9.15 Q-8.15 8.15 -9.1 7.4 L-11.75 10.05 -14.5 12.8 -17.2 15.6 -19.8 18.3 -22.2 21.2 -24.5 24.0 -25.2 25.0 Z" fill="none" stroke="#000000" stroke-linecap="round" stroke-linejoin="round" stroke-width="0.5"/>
  </g>
  <defs>
    <linearGradient gradientTransform="matrix(0.0011, 0.0011, -0.0103, 0.0103, 16.25, -16.85)" gradientUnits="userSpaceOnUse" id="gradient0" spreadMethod="pad" x1="-819.2" x2="819.2">
      <stop offset="0.0" stop-color="#a632cd"/>
      <stop offset="0.3176470588235294" stop-color="#830f9f"/>
      <stop offset="0.8235294117647058" stop-color="#000000"/>
    </linearGradient>
    <linearGradient gradientTransform="matrix(0.0, -0.0015, -0.0146, 0.0, 23.7, 0.4)" gradientUnits="userSpaceOnUse" id="gradient1" spreadMethod="pad" x1="-819.2" x2="819.2">
      <stop offset="0.0" stop-color="#a632cd"/>
      <stop offset="0.3176470588235294" stop-color="#830f9f"/>
      <stop offset="0.8235294117647058" stop-color="#000000"/>
    </linearGradient>
    <linearGradient gradientTransform="matrix(-0.0011, 0.0011, -0.0103, -0.0103, 17.45, 16.25)" gradientUnits="userSpaceOnUse" id="gradient2" spreadMethod="pad" x1="-819.2" x2="819.2">
      <stop offset="0.0" stop-color="#a632cd"/>
      <stop offset="0.3176470588235294" stop-color="#830f9f"/>
      <stop offset="0.8235294117647058" stop-color="#000000"/>
    </linearGradient>
    <linearGradient gradientTransform="matrix(-0.0011, 0.0011, 0.0103, 0.0103, -15.85, -16.85)" gradientUnits="userSpaceOnUse" id="gradient3" spreadMethod="pad" x1="-819.2" x2="819.2">
      <stop offset="0.0" stop-color="#a632cd"/>
      <stop offset="0.3176470588235294" stop-color="#830f9f"/>
      <stop offset="0.8235294117647058" stop-color="#000000"/>
    </linearGradient>
    <linearGradient gradientTransform="matrix(0.0, -0.0015, 0.0146, 0.0, -23.3, 0.4)" gradientUnits="userSpaceOnUse" id="gradient4" spreadMethod="pad" x1="-819.2" x2="819.2">
      <stop offset="0.0" stop-color="#a632cd"/>
      <stop offset="0.3176470588235294" stop-color="#830f9f"/>
      <stop offset="0.8235294117647058" stop-color="#000000"/>
    </linearGradient>
    <linearGradient gradientTransform="matrix(0.0011, 0.0011, 0.0103, -0.0103, -17.05, 16.25)" gradientUnits="userSpaceOnUse" id="gradient5" spreadMethod="pad" x1="-819.2" x2="819.2">
      <stop offset="0.0" stop-color="#a632cd"/>
      <stop offset="0.3176470588235294" stop-color="#830f9f"/>
      <stop offset="0.8235294117647058" stop-color="#000000"/>
    </linearGradient>
  </defs>
</svg>
