<?xml version="1.0" encoding="UTF-8" standalone="no"?>
<svg xmlns:xlink="http://www.w3.org/1999/xlink" height="18.0px" width="17.95px" xmlns="http://www.w3.org/2000/svg">
  <g transform="matrix(1.0, 0.0, 0.0, 1.0, -7.5, 24.95)">
    <path d="M22.95 -22.75 Q21.4 -21.3 20.95 -20.35 20.7 -19.6 19.7 -18.5 18.35 -16.95 17.55 -16.65 L15.6 -15.8 13.6 -14.6 11.35 -12.55 9.8 -10.4 Q9.4 -9.4 7.75 -7.95 8.2 -7.5 8.8 -7.2 10.3 -8.6 10.8 -9.7 11.25 -10.85 12.15 -11.95 13.7 -13.6 14.7 -14.1 L15.6 -14.5 Q16.55 -14.85 17.6 -15.5 18.95 -16.35 20.25 -17.95 L21.7 -19.9 23.0 -22.1 Q23.65 -23.25 25.2 -24.7 L22.95 -22.75" fill="url(#gradient0)" fill-rule="evenodd" stroke="none"/>
    <path d="M22.95 -22.75 Q21.4 -21.3 20.95 -20.35 20.7 -19.6 19.7 -18.5 18.35 -16.95 17.55 -16.65 L15.6 -15.8 13.6 -14.6 11.35 -12.55 9.8 -10.4 Q9.4 -9.4 7.75 -7.95 8.2 -7.5 8.8 -7.2 10.3 -8.6 10.8 -9.7 11.25 -10.85 12.15 -11.95 13.7 -13.6 14.7 -14.1 L15.6 -14.5 Q16.55 -14.85 17.6 -15.5 18.95 -16.35 20.25 -17.95 L21.7 -19.9 23.0 -22.1 Q23.65 -23.25 25.2 -24.7 L22.95 -22.75 Z" fill="none" stroke="#000000" stroke-linecap="round" stroke-linejoin="round" stroke-width="0.5"/>
  </g>
  <defs>
    <linearGradient gradientTransform="matrix(-0.0011, -0.0011, -0.0104, 0.0104, 16.75, -16.15)" gradientUnits="userSpaceOnUse" id="gradient0" spreadMethod="pad" x1="-819.2" x2="819.2">
      <stop offset="0.0" stop-color="#a632cd"/>
      <stop offset="0.3176470588235294" stop-color="#830f9f"/>
      <stop offset="0.8235294117647058" stop-color="#000000"/>
    </linearGradient>
  </defs>
</svg>
