<?xml version="1.0" encoding="UTF-8" standalone="no"?>
<svg xmlns:xlink="http://www.w3.org/1999/xlink" height="3.05px" width="24.65px" xmlns="http://www.w3.org/2000/svg">
  <g transform="matrix(1.0, 0.0, 0.0, 1.0, -11.15, 1.95)">
    <path d="M29.5 -0.45 L27.25 -0.85 24.45 -0.65 22.45 0.15 20.2 0.7 17.15 0.8 14.55 0.4 11.4 0.1 11.55 -1.15 14.75 -0.75 Q15.9 -0.3 17.3 -0.2 L20.6 -0.4 21.55 -0.8 23.65 -1.45 27.25 -1.65 29.65 -1.3 32.15 -0.6 35.55 -0.35 32.55 -0.15 29.5 -0.45" fill="url(#gradient0)" fill-rule="evenodd" stroke="none"/>
    <path d="M29.5 -0.45 L27.25 -0.85 24.45 -0.65 22.45 0.15 20.2 0.7 17.15 0.8 14.55 0.4 11.4 0.1 11.55 -1.15 14.75 -0.75 Q15.9 -0.3 17.3 -0.2 L20.6 -0.4 21.55 -0.8 23.65 -1.45 27.25 -1.65 29.65 -1.3 32.15 -0.6 35.55 -0.35 32.55 -0.15 29.5 -0.45 Z" fill="none" stroke="#000000" stroke-linecap="round" stroke-linejoin="round" stroke-width="0.5"/>
  </g>
  <defs>
    <linearGradient gradientTransform="matrix(0.0, 0.0016, -0.0147, 0.0, 23.5, -0.45)" gradientUnits="userSpaceOnUse" id="gradient0" spreadMethod="pad" x1="-819.2" x2="819.2">
      <stop offset="0.0" stop-color="#a632cd"/>
      <stop offset="0.3176470588235294" stop-color="#830f9f"/>
      <stop offset="0.8235294117647058" stop-color="#000000"/>
    </linearGradient>
  </defs>
</svg>
