<?xml version="1.0" encoding="UTF-8" standalone="no"?>
<svg xmlns:xlink="http://www.w3.org/1999/xlink" height="17.95px" width="18.0px" xmlns="http://www.w3.org/2000/svg">
  <g transform="matrix(1.0, 0.0, 0.0, 1.0, 25.15, -7.5)">
    <path d="M-24.9 25.2 L-22.95 22.95 Q-21.5 21.4 -20.55 20.95 -19.8 20.7 -18.7 19.7 -17.15 18.35 -16.85 17.55 L-16.0 15.6 Q-15.6 14.6 -14.8 13.6 L-12.75 11.35 -10.6 9.8 Q-9.6 9.4 -8.15 7.75 -7.7 8.2 -7.4 8.8 -8.8 10.3 -9.9 10.8 -11.05 11.25 -12.15 12.15 -13.8 13.7 -14.3 14.7 L-14.7 15.6 -15.7 17.6 Q-16.55 18.95 -18.15 20.25 L-20.1 21.7 -22.3 23.0 Q-23.45 23.65 -24.9 25.2" fill="url(#gradient0)" fill-rule="evenodd" stroke="none"/>
    <path d="M-24.9 25.2 L-22.95 22.95 Q-21.5 21.4 -20.55 20.95 -19.8 20.7 -18.7 19.7 -17.15 18.35 -16.85 17.55 L-16.0 15.6 Q-15.6 14.6 -14.8 13.6 L-12.75 11.35 -10.6 9.8 Q-9.6 9.4 -8.15 7.75 -7.7 8.2 -7.4 8.8 -8.8 10.3 -9.9 10.8 -11.05 11.25 -12.15 12.15 -13.8 13.7 -14.3 14.7 L-14.7 15.6 -15.7 17.6 Q-16.55 18.95 -18.15 20.25 L-20.1 21.7 -22.3 23.0 Q-23.45 23.65 -24.9 25.2 Z" fill="none" stroke="#000000" stroke-linecap="round" stroke-linejoin="round" stroke-width="0.5"/>
  </g>
  <defs>
    <linearGradient gradientTransform="matrix(-0.0011, -0.0011, 0.0104, -0.0104, -16.35, 16.75)" gradientUnits="userSpaceOnUse" id="gradient0" spreadMethod="pad" x1="-819.2" x2="819.2">
      <stop offset="0.0" stop-color="#a632cd"/>
      <stop offset="0.3176470588235294" stop-color="#830f9f"/>
      <stop offset="0.8235294117647058" stop-color="#000000"/>
    </linearGradient>
  </defs>
</svg>
