<?xml version="1.0" encoding="UTF-8" standalone="no"?>
<svg xmlns:xlink="http://www.w3.org/1999/xlink" height="19.3px" width="18.65px" xmlns="http://www.w3.org/2000/svg">
  <g transform="matrix(1.0, 0.0, 0.0, 1.0, -6.65, 25.1)">
    <path d="M22.4 -23.3 Q20.85 -21.85 21.05 -20.25 21.25 -19.05 20.4 -17.8 19.25 -16.05 17.9 -16.3 L14.6 -16.8 11.7 -16.5 Q10.3 -16.0 9.3 -14.6 8.25 -13.05 8.45 -11.75 8.7 -10.1 6.9 -8.8 L9.95 -6.05 Q11.65 -7.25 11.35 -9.15 10.95 -11.15 11.75 -12.35 13.05 -14.25 14.65 -14.15 L16.2 -13.9 19.3 -13.8 Q21.25 -14.05 22.3 -15.9 23.05 -17.05 23.1 -18.5 L23.3 -21.8 Q23.45 -23.45 25.05 -24.85 23.7 -24.4 22.4 -23.3" fill="url(#gradient0)" fill-rule="evenodd" stroke="none"/>
    <path d="M22.4 -23.3 Q20.85 -21.85 21.05 -20.25 21.25 -19.05 20.4 -17.8 19.25 -16.05 17.9 -16.3 L14.6 -16.8 11.7 -16.5 Q10.3 -16.0 9.3 -14.6 8.25 -13.05 8.45 -11.75 8.7 -10.1 6.9 -8.8 L9.95 -6.05 Q11.65 -7.25 11.35 -9.15 10.95 -11.15 11.75 -12.35 13.05 -14.25 14.65 -14.15 L16.2 -13.9 19.3 -13.8 Q21.25 -14.05 22.3 -15.9 23.05 -17.05 23.1 -18.5 L23.3 -21.8 Q23.45 -23.45 25.05 -24.85 23.7 -24.4 22.4 -23.3 Z" fill="none" stroke="#000000" stroke-linecap="round" stroke-linejoin="round" stroke-width="0.5"/>
  </g>
  <defs>
    <linearGradient gradientTransform="matrix(-0.0037, -0.0037, -0.0104, 0.0104, 16.75, -16.15)" gradientUnits="userSpaceOnUse" id="gradient0" spreadMethod="pad" x1="-819.2" x2="819.2">
      <stop offset="0.0" stop-color="#a632cd"/>
      <stop offset="0.3176470588235294" stop-color="#830f9f"/>
      <stop offset="0.8235294117647058" stop-color="#000000"/>
    </linearGradient>
  </defs>
</svg>
