<?xml version="1.0" encoding="UTF-8" standalone="no"?>
<svg xmlns:xlink="http://www.w3.org/1999/xlink" height="9.0px" width="24.65px" xmlns="http://www.w3.org/2000/svg">
  <g transform="matrix(1.0, 0.0, 0.0, 1.0, -11.15, 4.95)">
    <path d="M29.5 -0.55 Q28.75 -1.55 27.25 -1.85 25.2 -2.3 24.45 -1.15 L22.45 1.55 Q21.45 2.9 20.2 3.4 L17.15 3.7 Q15.35 3.4 14.55 2.35 13.55 1.0 11.4 1.35 L11.55 -2.75 Q13.65 -3.1 14.75 -1.55 15.9 0.1 17.3 0.4 19.6 0.85 20.6 -0.35 L21.55 -1.65 Q22.45 -3.0 23.65 -3.9 25.2 -5.1 27.25 -4.55 28.6 -4.25 29.65 -3.25 L32.15 -1.05 Q33.4 0.0 35.55 -0.15 34.3 0.5 32.55 0.6 30.45 0.7 29.5 -0.55" fill="url(#gradient0)" fill-rule="evenodd" stroke="none"/>
    <path d="M29.5 -0.55 Q28.75 -1.55 27.25 -1.85 25.2 -2.3 24.45 -1.15 L22.45 1.55 Q21.45 2.9 20.2 3.4 L17.15 3.7 Q15.35 3.4 14.55 2.35 13.55 1.0 11.4 1.35 L11.55 -2.75 Q13.65 -3.1 14.75 -1.55 15.9 0.1 17.3 0.4 19.6 0.85 20.6 -0.35 L21.55 -1.65 Q22.45 -3.0 23.65 -3.9 25.2 -5.1 27.25 -4.55 28.6 -4.25 29.65 -3.25 L32.15 -1.05 Q33.4 0.0 35.55 -0.15 34.3 0.5 32.55 0.6 30.45 0.7 29.5 -0.55 Z" fill="none" stroke="#000000" stroke-linecap="round" stroke-linejoin="round" stroke-width="0.5"/>
  </g>
  <defs>
    <linearGradient gradientTransform="matrix(0.0, 0.0052, -0.0147, 0.0, 23.5, -0.45)" gradientUnits="userSpaceOnUse" id="gradient0" spreadMethod="pad" x1="-819.2" x2="819.2">
      <stop offset="0.0" stop-color="#a632cd"/>
      <stop offset="0.3176470588235294" stop-color="#830f9f"/>
      <stop offset="0.8235294117647058" stop-color="#000000"/>
    </linearGradient>
  </defs>
</svg>
