<?xml version="1.0" encoding="UTF-8" standalone="no"?>
<svg xmlns:xlink="http://www.w3.org/1999/xlink" height="18.65px" width="19.3px" xmlns="http://www.w3.org/2000/svg">
  <g transform="matrix(1.0, 0.0, 0.0, 1.0, -6.45, -6.6)">
    <path d="M20.9 21.0 Q19.7 21.2 18.45 20.35 16.7 19.2 16.95 17.85 L17.45 14.55 Q17.7 12.9 17.15 11.65 16.65 10.25 15.25 9.25 13.7 8.2 12.4 8.35 10.75 8.65 9.45 6.85 8.0 8.3 6.7 9.9 7.9 11.6 9.8 11.3 11.8 10.9 13.0 11.7 14.9 13.0 14.8 14.6 L14.55 16.15 Q14.25 17.75 14.45 19.25 14.7 21.2 16.55 22.25 17.7 23.0 19.15 23.05 L22.45 23.25 Q24.1 23.4 25.5 25.0 25.05 23.65 23.95 22.35 22.5 20.8 20.9 21.0" fill="url(#gradient0)" fill-rule="evenodd" stroke="none"/>
    <path d="M20.9 21.0 Q19.7 21.2 18.45 20.35 16.7 19.2 16.95 17.85 L17.45 14.55 Q17.7 12.9 17.15 11.65 16.65 10.25 15.25 9.25 13.7 8.2 12.4 8.35 10.75 8.65 9.45 6.85 8.0 8.3 6.7 9.9 7.9 11.6 9.8 11.3 11.8 10.9 13.0 11.7 14.9 13.0 14.8 14.6 L14.55 16.15 Q14.25 17.75 14.45 19.25 14.7 21.2 16.55 22.25 17.7 23.0 19.15 23.05 L22.45 23.25 Q24.1 23.4 25.5 25.0 25.05 23.65 23.95 22.35 22.5 20.8 20.9 21.0 Z" fill="none" stroke="#000000" stroke-linecap="round" stroke-linejoin="round" stroke-width="0.5"/>
  </g>
  <defs>
    <linearGradient gradientTransform="matrix(0.0037, -0.0037, -0.0104, -0.0104, 16.8, 16.7)" gradientUnits="userSpaceOnUse" id="gradient0" spreadMethod="pad" x1="-819.2" x2="819.2">
      <stop offset="0.0" stop-color="#a632cd"/>
      <stop offset="0.3176470588235294" stop-color="#830f9f"/>
      <stop offset="0.8235294117647058" stop-color="#000000"/>
    </linearGradient>
  </defs>
</svg>
