<?xml version="1.0" encoding="UTF-8" standalone="no"?>
<svg xmlns:xlink="http://www.w3.org/1999/xlink" height="9.0px" width="24.65px" xmlns="http://www.w3.org/2000/svg">
  <g transform="matrix(1.0, 0.0, 0.0, 1.0, 35.4, 4.95)">
    <path d="M-35.15 -0.15 Q-33.9 0.5 -32.15 0.6 -30.05 0.7 -29.1 -0.55 -28.35 -1.55 -26.85 -1.85 -24.8 -2.3 -24.05 -1.15 L-22.05 1.55 Q-21.05 2.9 -19.8 3.4 L-16.75 3.7 Q-14.95 3.4 -14.15 2.35 -13.15 1.0 -11.0 1.35 L-11.15 -2.75 Q-13.25 -3.1 -14.35 -1.55 -15.5 0.1 -16.9 0.4 -19.2 0.85 -20.2 -0.35 L-21.15 -1.65 Q-22.05 -3.0 -23.25 -3.9 -24.8 -5.1 -26.85 -4.55 -28.2 -4.25 -29.25 -3.25 L-31.75 -1.05 Q-33.0 0.0 -35.15 -0.15" fill="url(#gradient0)" fill-rule="evenodd" stroke="none"/>
    <path d="M-35.15 -0.15 Q-33.9 0.5 -32.15 0.6 -30.05 0.7 -29.1 -0.55 -28.35 -1.55 -26.85 -1.85 -24.8 -2.3 -24.05 -1.15 L-22.05 1.55 Q-21.05 2.9 -19.8 3.4 L-16.75 3.7 Q-14.95 3.4 -14.15 2.35 -13.15 1.0 -11.0 1.35 L-11.15 -2.75 Q-13.25 -3.1 -14.35 -1.55 -15.5 0.1 -16.9 0.4 -19.2 0.85 -20.2 -0.35 L-21.15 -1.65 Q-22.05 -3.0 -23.25 -3.9 -24.8 -5.1 -26.85 -4.55 -28.2 -4.25 -29.25 -3.25 L-31.75 -1.05 Q-33.0 0.0 -35.15 -0.15 Z" fill="none" stroke="#000000" stroke-linecap="round" stroke-linejoin="round" stroke-width="0.5"/>
  </g>
  <defs>
    <linearGradient gradientTransform="matrix(0.0, 0.0052, 0.0147, 0.0, -23.1, -0.45)" gradientUnits="userSpaceOnUse" id="gradient0" spreadMethod="pad" x1="-819.2" x2="819.2">
      <stop offset="0.0" stop-color="#a632cd"/>
      <stop offset="0.3176470588235294" stop-color="#830f9f"/>
      <stop offset="0.8235294117647058" stop-color="#000000"/>
    </linearGradient>
  </defs>
</svg>
