<?xml version="1.0" encoding="UTF-8" standalone="no"?>
<svg xmlns:xlink="http://www.w3.org/1999/xlink" height="18.65px" width="19.3px" xmlns="http://www.w3.org/2000/svg">
  <g transform="matrix(1.0, 0.0, 0.0, 1.0, 25.35, -6.6)">
    <path d="M-25.1 25.0 Q-24.65 23.65 -23.55 22.35 -22.1 20.8 -20.5 21.0 -19.3 21.2 -18.05 20.35 -16.3 19.2 -16.55 17.85 L-17.05 14.55 Q-17.3 12.9 -16.75 11.65 -16.25 10.25 -14.85 9.25 -13.3 8.2 -12.0 8.35 -10.35 8.65 -9.05 6.85 -7.6 8.3 -6.3 9.9 -7.5 11.6 -9.4 11.3 -11.4 10.9 -12.6 11.7 -14.5 13.0 -14.4 14.6 L-14.15 16.15 Q-13.85 17.75 -14.05 19.25 -14.3 21.2 -16.15 22.25 -17.3 23.0 -18.75 23.05 L-22.05 23.25 Q-23.7 23.4 -25.1 25.0" fill="url(#gradient0)" fill-rule="evenodd" stroke="none"/>
    <path d="M-25.1 25.0 Q-24.65 23.65 -23.55 22.35 -22.1 20.8 -20.5 21.0 -19.3 21.2 -18.05 20.35 -16.3 19.2 -16.55 17.85 L-17.05 14.55 Q-17.3 12.9 -16.75 11.65 -16.25 10.25 -14.85 9.25 -13.3 8.2 -12.0 8.35 -10.35 8.65 -9.05 6.85 -7.6 8.3 -6.3 9.9 -7.5 11.6 -9.4 11.3 -11.4 10.9 -12.6 11.7 -14.5 13.0 -14.4 14.6 L-14.15 16.15 Q-13.85 17.75 -14.05 19.25 -14.3 21.2 -16.15 22.25 -17.3 23.0 -18.75 23.05 L-22.05 23.25 Q-23.7 23.4 -25.1 25.0 Z" fill="none" stroke="#000000" stroke-linecap="round" stroke-linejoin="round" stroke-width="0.5"/>
  </g>
  <defs>
    <linearGradient gradientTransform="matrix(-0.0037, -0.0037, 0.0104, -0.0104, -16.4, 16.7)" gradientUnits="userSpaceOnUse" id="gradient0" spreadMethod="pad" x1="-819.2" x2="819.2">
      <stop offset="0.0" stop-color="#a632cd"/>
      <stop offset="0.3176470588235294" stop-color="#830f9f"/>
      <stop offset="0.8235294117647058" stop-color="#000000"/>
    </linearGradient>
  </defs>
</svg>
