<?xml version="1.0" encoding="UTF-8" standalone="no"?>
<svg xmlns:xlink="http://www.w3.org/1999/xlink" height="50.4px" width="71.2px" xmlns="http://www.w3.org/2000/svg">
  <g transform="matrix(1.0, 0.0, 0.0, 1.0, 35.4, 24.95)">
    <path d="M22.95 -22.75 Q21.4 -21.3 20.95 -20.35 20.7 -19.6 19.7 -18.5 18.35 -16.95 17.55 -16.65 L15.6 -15.8 13.6 -14.6 11.35 -12.55 9.8 -10.4 Q9.4 -9.4 7.75 -7.95 8.2 -7.5 8.8 -7.2 10.3 -8.6 10.8 -9.7 11.25 -10.85 12.15 -11.95 13.7 -13.6 14.7 -14.1 L15.6 -14.5 Q16.55 -14.85 17.6 -15.5 18.95 -16.35 20.25 -17.95 L21.7 -19.9 23.0 -22.1 Q23.65 -23.25 25.2 -24.7 L22.95 -22.75" fill="url(#gradient0)" fill-rule="evenodd" stroke="none"/>
    <path d="M22.95 -22.75 Q21.4 -21.3 20.95 -20.35 20.7 -19.6 19.7 -18.5 18.35 -16.95 17.55 -16.65 L15.6 -15.8 13.6 -14.6 11.35 -12.55 9.8 -10.4 Q9.4 -9.4 7.75 -7.95 8.2 -7.5 8.8 -7.2 10.3 -8.6 10.8 -9.7 11.25 -10.85 12.15 -11.95 13.7 -13.6 14.7 -14.1 L15.6 -14.5 Q16.55 -14.85 17.6 -15.5 18.95 -16.35 20.25 -17.95 L21.7 -19.9 23.0 -22.1 Q23.65 -23.25 25.2 -24.7 L22.95 -22.75 Z" fill="none" stroke="#000000" stroke-linecap="round" stroke-linejoin="round" stroke-width="0.5"/>
    <path d="M29.5 -0.45 L27.25 -0.85 24.45 -0.65 22.45 0.15 20.2 0.7 17.15 0.8 14.55 0.4 11.4 0.1 11.55 -1.15 14.75 -0.75 Q15.9 -0.3 17.3 -0.2 L20.6 -0.4 21.55 -0.8 23.65 -1.45 27.25 -1.65 29.65 -1.3 32.15 -0.6 35.55 -0.35 32.55 -0.15 29.5 -0.45" fill="url(#gradient1)" fill-rule="evenodd" stroke="none"/>
    <path d="M29.5 -0.45 L27.25 -0.85 24.45 -0.65 22.45 0.15 20.2 0.7 17.15 0.8 14.55 0.4 11.4 0.1 11.55 -1.15 14.75 -0.75 Q15.9 -0.3 17.3 -0.2 L20.6 -0.4 21.55 -0.8 23.65 -1.45 27.25 -1.65 29.65 -1.3 32.15 -0.6 35.55 -0.35 32.55 -0.15 29.5 -0.45 Z" fill="none" stroke="#000000" stroke-linecap="round" stroke-linejoin="round" stroke-width="0.5"/>
    <path d="M20.95 20.95 L19.1 19.7 Q17.55 18.35 17.25 17.55 L16.4 15.6 15.2 13.6 13.15 11.35 11.0 9.8 Q10.0 9.4 8.55 7.75 8.1 8.2 7.8 8.8 9.2 10.3 10.3 10.8 11.45 11.25 12.55 12.15 14.2 13.7 14.7 14.7 L15.1 15.6 16.1 17.6 Q16.95 18.95 18.55 20.25 19.55 21.15 20.5 21.7 L22.7 23.0 Q23.85 23.65 25.3 25.2 L23.35 22.95 Q21.9 21.4 20.95 20.95" fill="url(#gradient2)" fill-rule="evenodd" stroke="none"/>
    <path d="M20.95 20.95 L19.1 19.7 Q17.55 18.35 17.25 17.55 L16.4 15.6 15.2 13.6 13.15 11.35 11.0 9.8 Q10.0 9.4 8.55 7.75 8.1 8.2 7.8 8.8 9.2 10.3 10.3 10.8 11.45 11.25 12.55 12.15 14.2 13.7 14.7 14.7 L15.1 15.6 16.1 17.6 Q16.95 18.95 18.55 20.25 19.55 21.15 20.5 21.7 L22.7 23.0 Q23.85 23.65 25.3 25.2 L23.35 22.95 Q21.9 21.4 20.95 20.95 Z" fill="none" stroke="#000000" stroke-linecap="round" stroke-linejoin="round" stroke-width="0.5"/>
    <path d="M-20.55 -20.35 Q-20.3 -19.6 -19.3 -18.5 -17.95 -16.95 -17.15 -16.65 L-15.2 -15.8 Q-14.2 -15.4 -13.2 -14.6 L-10.95 -12.55 -9.4 -10.4 Q-9.0 -9.4 -7.35 -7.95 -7.8 -7.5 -8.4 -7.2 -9.9 -8.6 -10.4 -9.7 -10.85 -10.85 -11.75 -11.95 -13.3 -13.6 -14.3 -14.1 L-15.2 -14.5 Q-16.15 -14.85 -17.2 -15.5 -18.55 -16.35 -19.85 -17.95 L-21.3 -19.9 -22.6 -22.1 Q-23.25 -23.25 -24.8 -24.7 L-22.55 -22.75 Q-21.0 -21.3 -20.55 -20.35" fill="url(#gradient3)" fill-rule="evenodd" stroke="none"/>
    <path d="M-20.55 -20.35 Q-20.3 -19.6 -19.3 -18.5 -17.95 -16.95 -17.15 -16.65 L-15.2 -15.8 Q-14.2 -15.4 -13.2 -14.6 L-10.95 -12.55 -9.4 -10.4 Q-9.0 -9.4 -7.35 -7.95 -7.8 -7.5 -8.4 -7.2 -9.9 -8.6 -10.4 -9.7 -10.85 -10.85 -11.75 -11.95 -13.3 -13.6 -14.3 -14.1 L-15.2 -14.5 Q-16.15 -14.85 -17.2 -15.5 -18.55 -16.35 -19.85 -17.95 L-21.3 -19.9 -22.6 -22.1 Q-23.25 -23.25 -24.8 -24.7 L-22.55 -22.75 Q-21.0 -21.3 -20.55 -20.35 Z" fill="none" stroke="#000000" stroke-linecap="round" stroke-linejoin="round" stroke-width="0.5"/>
    <path d="M-35.15 -0.35 L-32.15 -0.15 -29.1 -0.45 -26.85 -0.85 -24.05 -0.65 -22.05 0.15 -19.8 0.7 -16.75 0.8 -14.15 0.4 -11.0 0.1 -11.15 -1.15 -14.35 -0.75 Q-15.5 -0.3 -16.9 -0.2 L-20.2 -0.4 -21.15 -0.8 -23.25 -1.45 -26.85 -1.65 -29.25 -1.3 -31.75 -0.6 -35.15 -0.35" fill="url(#gradient4)" fill-rule="evenodd" stroke="none"/>
    <path d="M-35.15 -0.35 L-32.15 -0.15 -29.1 -0.45 -26.85 -0.85 -24.05 -0.65 -22.05 0.15 -19.8 0.7 -16.75 0.8 -14.15 0.4 -11.0 0.1 -11.15 -1.15 -14.35 -0.75 Q-15.5 -0.3 -16.9 -0.2 L-20.2 -0.4 -21.15 -0.8 -23.25 -1.45 -26.85 -1.65 -29.25 -1.3 -31.75 -0.6 -35.15 -0.35 Z" fill="none" stroke="#000000" stroke-linecap="round" stroke-linejoin="round" stroke-width="0.5"/>
    <path d="M-24.9 25.2 L-22.95 22.95 Q-21.5 21.4 -20.55 20.95 -19.8 20.7 -18.7 19.7 -17.15 18.35 -16.85 17.55 L-16.0 15.6 Q-15.6 14.6 -14.8 13.6 L-12.75 11.35 -10.6 9.8 Q-9.6 9.4 -8.15 7.75 -7.7 8.2 -7.4 8.8 -8.8 10.3 -9.9 10.8 -11.05 11.25 -12.15 12.15 -13.8 13.7 -14.3 14.7 L-14.7 15.6 -15.7 17.6 Q-16.55 18.95 -18.15 20.25 L-20.1 21.7 -22.3 23.0 Q-23.45 23.65 -24.9 25.2" fill="url(#gradient5)" fill-rule="evenodd" stroke="none"/>
    <path d="M-24.9 25.2 L-22.95 22.95 Q-21.5 21.4 -20.55 20.95 -19.8 20.7 -18.7 19.7 -17.15 18.35 -16.85 17.55 L-16.0 15.6 Q-15.6 14.6 -14.8 13.6 L-12.75 11.35 -10.6 9.8 Q-9.6 9.4 -8.15 7.75 -7.7 8.2 -7.4 8.8 -8.8 10.3 -9.9 10.8 -11.05 11.25 -12.15 12.15 -13.8 13.7 -14.3 14.7 L-14.7 15.6 -15.7 17.6 Q-16.55 18.95 -18.15 20.25 L-20.1 21.7 -22.3 23.0 Q-23.45 23.65 -24.9 25.2 Z" fill="none" stroke="#000000" stroke-linecap="round" stroke-linejoin="round" stroke-width="0.5"/>
  </g>
  <defs>
    <linearGradient gradientTransform="matrix(-0.0011, -0.0011, -0.0104, 0.0104, 16.75, -16.15)" gradientUnits="userSpaceOnUse" id="gradient0" spreadMethod="pad" x1="-819.2" x2="819.2">
      <stop offset="0.0" stop-color="#a632cd"/>
      <stop offset="0.3176470588235294" stop-color="#830f9f"/>
      <stop offset="0.8235294117647058" stop-color="#000000"/>
    </linearGradient>
    <linearGradient gradientTransform="matrix(0.0, 0.0016, -0.0147, 0.0, 23.5, -0.45)" gradientUnits="userSpaceOnUse" id="gradient1" spreadMethod="pad" x1="-819.2" x2="819.2">
      <stop offset="0.0" stop-color="#a632cd"/>
      <stop offset="0.3176470588235294" stop-color="#830f9f"/>
      <stop offset="0.8235294117647058" stop-color="#000000"/>
    </linearGradient>
    <linearGradient gradientTransform="matrix(0.0011, -0.0011, -0.0104, -0.0104, 16.75, 16.75)" gradientUnits="userSpaceOnUse" id="gradient2" spreadMethod="pad" x1="-819.2" x2="819.2">
      <stop offset="0.0" stop-color="#a632cd"/>
      <stop offset="0.3176470588235294" stop-color="#830f9f"/>
      <stop offset="0.8235294117647058" stop-color="#000000"/>
    </linearGradient>
    <linearGradient gradientTransform="matrix(0.0011, -0.0011, 0.0104, 0.0104, -16.35, -16.15)" gradientUnits="userSpaceOnUse" id="gradient3" spreadMethod="pad" x1="-819.2" x2="819.2">
      <stop offset="0.0" stop-color="#a632cd"/>
      <stop offset="0.3176470588235294" stop-color="#830f9f"/>
      <stop offset="0.8235294117647058" stop-color="#000000"/>
    </linearGradient>
    <linearGradient gradientTransform="matrix(0.0, 0.0016, 0.0147, 0.0, -23.1, -0.45)" gradientUnits="userSpaceOnUse" id="gradient4" spreadMethod="pad" x1="-819.2" x2="819.2">
      <stop offset="0.0" stop-color="#a632cd"/>
      <stop offset="0.3176470588235294" stop-color="#830f9f"/>
      <stop offset="0.8235294117647058" stop-color="#000000"/>
    </linearGradient>
    <linearGradient gradientTransform="matrix(-0.0011, -0.0011, 0.0104, -0.0104, -16.35, 16.75)" gradientUnits="userSpaceOnUse" id="gradient5" spreadMethod="pad" x1="-819.2" x2="819.2">
      <stop offset="0.0" stop-color="#a632cd"/>
      <stop offset="0.3176470588235294" stop-color="#830f9f"/>
      <stop offset="0.8235294117647058" stop-color="#000000"/>
    </linearGradient>
  </defs>
</svg>
