<?xml version="1.0" encoding="UTF-8" standalone="no"?>
<svg xmlns:xlink="http://www.w3.org/1999/xlink" height="18.35px" width="18.1px" xmlns="http://www.w3.org/2000/svg">
  <g transform="matrix(1.0, 0.0, 0.0, 1.0, -7.15, 25.25)">
    <path d="M25.0 -25.0 L23.6 -22.8 21.4 -20.4 18.9 -17.6 16.55 -14.95 13.65 -11.85 10.4 -8.4 9.15 -7.15 Q8.15 -7.95 7.4 -8.9 L10.05 -11.55 12.8 -14.3 15.6 -17.0 18.3 -19.6 21.2 -22.0 24.0 -24.3 25.0 -25.0" fill="url(#gradient0)" fill-rule="evenodd" stroke="none"/>
    <path d="M25.0 -25.0 L23.6 -22.8 21.4 -20.4 18.9 -17.6 16.55 -14.95 13.65 -11.85 10.4 -8.4 9.15 -7.15 Q8.15 -7.95 7.4 -8.9 L10.05 -11.55 12.8 -14.3 15.6 -17.0 18.3 -19.6 21.2 -22.0 24.0 -24.3 25.0 -25.0 Z" fill="none" stroke="#000000" stroke-linecap="round" stroke-linejoin="round" stroke-width="0.5"/>
  </g>
  <defs>
    <linearGradient gradientTransform="matrix(0.0011, 0.0011, -0.0103, 0.0103, 16.25, -16.85)" gradientUnits="userSpaceOnUse" id="gradient0" spreadMethod="pad" x1="-819.2" x2="819.2">
      <stop offset="0.0" stop-color="#a632cd"/>
      <stop offset="0.3176470588235294" stop-color="#830f9f"/>
      <stop offset="0.8235294117647058" stop-color="#000000"/>
    </linearGradient>
  </defs>
</svg>
