<?xml version="1.0" encoding="UTF-8" standalone="no"?>
<svg xmlns:xlink="http://www.w3.org/1999/xlink" height="3.0px" width="24.45px" xmlns="http://www.w3.org/2000/svg">
  <g transform="matrix(1.0, 0.0, 0.0, 1.0, -11.45, 1.7)">
    <path d="M35.65 -0.05 L33.05 -0.6 29.8 -0.75 26.1 -1.0 22.55 -1.2 18.3 -1.35 13.55 -1.45 11.8 -1.45 Q11.65 -0.2 11.8 1.05 L15.55 1.05 19.4 1.0 23.3 0.95 27.05 0.85 30.8 0.5 34.4 0.15 35.65 -0.05" fill="url(#gradient0)" fill-rule="evenodd" stroke="none"/>
    <path d="M35.65 -0.05 L33.05 -0.6 29.8 -0.75 26.1 -1.0 22.55 -1.2 18.3 -1.35 13.55 -1.45 11.8 -1.45 Q11.65 -0.2 11.8 1.05 L15.55 1.05 19.4 1.0 23.3 0.95 27.05 0.85 30.8 0.5 34.4 0.15 35.65 -0.05 Z" fill="none" stroke="#000000" stroke-linecap="round" stroke-linejoin="round" stroke-width="0.5"/>
  </g>
  <defs>
    <linearGradient gradientTransform="matrix(0.0, -0.0015, -0.0146, 0.0, 23.7, 0.4)" gradientUnits="userSpaceOnUse" id="gradient0" spreadMethod="pad" x1="-819.2" x2="819.2">
      <stop offset="0.0" stop-color="#a632cd"/>
      <stop offset="0.3176470588235294" stop-color="#830f9f"/>
      <stop offset="0.8235294117647058" stop-color="#000000"/>
    </linearGradient>
  </defs>
</svg>
