<?xml version="1.0" encoding="UTF-8" standalone="no"?>
<svg xmlns:xlink="http://www.w3.org/1999/xlink" height="3.6px" width="24.45px" xmlns="http://www.w3.org/2000/svg">
  <g transform="matrix(1.0, 0.0, 0.0, 1.0, -11.45, 2.0)">
    <path d="M35.65 0.0 L33.05 -0.7 29.8 -0.9 26.1 -1.2 22.55 -1.45 18.3 -1.6 13.55 -1.75 11.8 -1.75 Q11.65 -0.2 11.8 1.35 L15.55 1.35 19.4 1.3 23.3 1.25 27.05 1.15 30.8 0.7 34.4 0.25 35.65 0.0" fill="url(#gradient0)" fill-rule="evenodd" stroke="none"/>
    <path d="M35.65 0.0 L33.05 -0.7 29.8 -0.9 26.1 -1.2 22.55 -1.45 18.3 -1.6 13.55 -1.75 11.8 -1.75 Q11.65 -0.2 11.8 1.35 L15.55 1.35 19.4 1.3 23.3 1.25 27.05 1.15 30.8 0.7 34.4 0.25 35.65 0.0 Z" fill="none" stroke="#000000" stroke-linecap="round" stroke-linejoin="round" stroke-width="0.5"/>
  </g>
  <defs>
    <linearGradient gradientTransform="matrix(0.0, -0.0019, -0.0146, 0.0, 23.7, 0.55)" gradientUnits="userSpaceOnUse" id="gradient0" spreadMethod="pad" x1="-819.2" x2="819.2">
      <stop offset="0.0" stop-color="#a632cd"/>
      <stop offset="0.3176470588235294" stop-color="#830f9f"/>
      <stop offset="0.8235294117647058" stop-color="#000000"/>
    </linearGradient>
  </defs>
</svg>
