<?xml version="1.0" encoding="UTF-8" standalone="no"?>
<svg xmlns:xlink="http://www.w3.org/1999/xlink" height="18.35px" width="18.55px" xmlns="http://www.w3.org/2000/svg">
  <g transform="matrix(1.0, 0.0, 0.0, 1.0, -7.3, -6.9)">
    <path d="M25.6 25.0 L23.35 23.65 20.9 21.5 18.0 19.1 15.35 16.75 12.25 13.85 8.8 10.6 7.55 9.35 9.75 7.15 12.4 9.8 15.1 12.6 17.8 15.4 20.4 18.1 22.7 21.1 24.95 23.95 25.6 25.0" fill="url(#gradient0)" fill-rule="evenodd" stroke="none"/>
    <path d="M25.6 25.0 L23.35 23.65 20.9 21.5 18.0 19.1 15.35 16.75 12.25 13.85 8.8 10.6 7.55 9.35 9.75 7.15 12.4 9.8 15.1 12.6 17.8 15.4 20.4 18.1 22.7 21.1 24.95 23.95 25.6 25.0 Z" fill="none" stroke="#000000" stroke-linecap="round" stroke-linejoin="round" stroke-width="0.5"/>
  </g>
  <defs>
    <linearGradient gradientTransform="matrix(-0.0013, 0.0013, -0.0103, -0.0103, 17.55, 16.15)" gradientUnits="userSpaceOnUse" id="gradient0" spreadMethod="pad" x1="-819.2" x2="819.2">
      <stop offset="0.0" stop-color="#a632cd"/>
      <stop offset="0.3176470588235294" stop-color="#830f9f"/>
      <stop offset="0.8235294117647058" stop-color="#000000"/>
    </linearGradient>
  </defs>
</svg>
