<?xml version="1.0" encoding="UTF-8" standalone="no"?>
<svg xmlns:xlink="http://www.w3.org/1999/xlink" height="3.6px" width="24.4px" xmlns="http://www.w3.org/2000/svg">
  <g transform="matrix(1.0, 0.0, 0.0, 1.0, 35.5, 2.0)">
    <path d="M-35.25 0.0 L-32.65 -0.7 -29.4 -0.9 -25.7 -1.2 -22.15 -1.45 -17.9 -1.6 -13.15 -1.75 -11.4 -1.75 Q-11.25 -0.2 -11.4 1.35 L-15.15 1.35 -19.0 1.3 -22.9 1.25 -26.65 1.15 -30.4 0.7 -34.0 0.25 -35.25 0.0" fill="url(#gradient0)" fill-rule="evenodd" stroke="none"/>
    <path d="M-35.25 0.0 L-32.65 -0.7 -29.4 -0.9 -25.7 -1.2 -22.15 -1.45 -17.9 -1.6 -13.15 -1.75 -11.4 -1.75 Q-11.25 -0.2 -11.4 1.35 L-15.15 1.35 -19.0 1.3 -22.9 1.25 -26.65 1.15 -30.4 0.7 -34.0 0.25 -35.25 0.0 Z" fill="none" stroke="#000000" stroke-linecap="round" stroke-linejoin="round" stroke-width="0.5"/>
  </g>
  <defs>
    <linearGradient gradientTransform="matrix(0.0, -0.0019, 0.0146, 0.0, -23.3, 0.55)" gradientUnits="userSpaceOnUse" id="gradient0" spreadMethod="pad" x1="-819.2" x2="819.2">
      <stop offset="0.0" stop-color="#a632cd"/>
      <stop offset="0.3176470588235294" stop-color="#830f9f"/>
      <stop offset="0.8235294117647058" stop-color="#000000"/>
    </linearGradient>
  </defs>
</svg>
