<?xml version="1.0" encoding="UTF-8" standalone="no"?>
<svg xmlns:xlink="http://www.w3.org/1999/xlink" height="192.05px" width="200.85px" xmlns="http://www.w3.org/2000/svg">
  <g transform="matrix(1.0, 0.0, 0.0, 1.0, 128.5, 31.15)">
    <path d="M72.35 -29.45 Q59.95 -17.15 47.0 -5.55 L46.9 -5.5 Q25.4 13.7 7.65 37.35 -7.95 58.2 -24.5 78.45 -30.85 86.25 -37.85 93.7 L-41.25 97.4 Q-51.25 108.2 -60.55 120.05 L-67.75 129.0 Q-72.45 134.7 -77.3 140.2 L-81.9 145.85 Q-89.45 155.75 -99.95 160.7 -101.0 161.2 -102.25 160.4 -110.15 155.2 -113.9 146.1 -117.4 137.6 -120.4 129.0 L-125.95 111.85 Q-129.35 100.35 -128.25 88.15 -127.65 81.6 -125.4 75.5 -121.95 66.25 -119.55 56.85 -117.05 47.0 -111.75 38.6 -102.0 16.7 -86.5 -1.75 L-80.6 -8.9 Q-75.35 -15.55 -70.4 -22.45 L-63.6 -31.15 -52.55 -30.65 -19.8 -28.65 Q-11.1 -28.45 -3.35 -26.8 9.85 -24.0 22.5 -26.25 37.85 -28.95 52.9 -30.4 56.55 -30.75 62.1 -30.3 L72.35 -29.45" fill="#3300cc" fill-rule="evenodd" stroke="none"/>
  </g>
</svg>
