<?xml version="1.0" encoding="UTF-8" standalone="no"?>
<svg xmlns:xlink="http://www.w3.org/1999/xlink" height="17.95px" width="18.0px" xmlns="http://www.w3.org/2000/svg">
  <g transform="matrix(1.0, 0.0, 0.0, 1.0, -7.55, 24.85)">
    <path d="M25.3 -24.6 L23.35 -22.35 Q21.9 -20.8 20.95 -20.35 L19.1 -19.1 Q17.55 -17.75 17.25 -16.95 L16.4 -15.0 15.2 -13.0 13.15 -10.75 11.0 -9.2 Q10.0 -8.8 8.55 -7.15 8.1 -7.6 7.8 -8.2 9.2 -9.7 10.3 -10.2 11.45 -10.65 12.55 -11.55 14.2 -13.1 14.7 -14.1 L15.1 -15.0 16.1 -17.0 Q16.95 -18.35 18.55 -19.65 19.55 -20.55 20.5 -21.1 L22.7 -22.4 Q23.85 -23.05 25.3 -24.6" fill="url(#gradient0)" fill-rule="evenodd" stroke="none"/>
    <path d="M25.3 -24.6 L23.35 -22.35 Q21.9 -20.8 20.95 -20.35 L19.1 -19.1 Q17.55 -17.75 17.25 -16.95 L16.4 -15.0 15.2 -13.0 13.15 -10.75 11.0 -9.2 Q10.0 -8.8 8.55 -7.15 8.1 -7.6 7.8 -8.2 9.2 -9.7 10.3 -10.2 11.45 -10.65 12.55 -11.55 14.2 -13.1 14.7 -14.1 L15.1 -15.0 16.1 -17.0 Q16.95 -18.35 18.55 -19.65 19.55 -20.55 20.5 -21.1 L22.7 -22.4 Q23.85 -23.05 25.3 -24.6 Z" fill="none" stroke="#000000" stroke-linecap="round" stroke-linejoin="round" stroke-width="0.5"/>
  </g>
  <defs>
    <linearGradient gradientTransform="matrix(0.0011, 0.0011, -0.0104, 0.0104, 16.75, -16.15)" gradientUnits="userSpaceOnUse" id="gradient0" spreadMethod="pad" x1="-819.2" x2="819.2">
      <stop offset="0.0" stop-color="#a632cd"/>
      <stop offset="0.3176470588235294" stop-color="#830f9f"/>
      <stop offset="0.8235294117647058" stop-color="#000000"/>
    </linearGradient>
  </defs>
</svg>
