<?xml version="1.0" encoding="UTF-8" standalone="no"?>
<svg xmlns:xlink="http://www.w3.org/1999/xlink" height="3.05px" width="24.65px" xmlns="http://www.w3.org/2000/svg">
  <g transform="matrix(1.0, 0.0, 0.0, 1.0, 35.4, 2.0)">
    <path d="M-29.1 -0.45 L-26.85 -0.05 -24.05 -0.25 -22.05 -1.05 -19.8 -1.6 -16.75 -1.7 -14.15 -1.3 -11.0 -1.0 -11.15 0.25 -14.35 -0.15 -16.9 -0.7 -20.2 -0.5 -21.15 -0.1 -23.25 0.55 -26.85 0.75 -29.25 0.4 -31.75 -0.3 -35.15 -0.55 -32.15 -0.75 -29.1 -0.45" fill="url(#gradient0)" fill-rule="evenodd" stroke="none"/>
    <path d="M-29.1 -0.45 L-26.85 -0.05 -24.05 -0.25 -22.05 -1.05 -19.8 -1.6 -16.75 -1.7 -14.15 -1.3 -11.0 -1.0 -11.15 0.25 -14.35 -0.15 -16.9 -0.7 -20.2 -0.5 -21.15 -0.1 -23.25 0.55 -26.85 0.75 -29.25 0.4 -31.75 -0.3 -35.15 -0.55 -32.15 -0.75 -29.1 -0.45 Z" fill="none" stroke="#000000" stroke-linecap="round" stroke-linejoin="round" stroke-width="0.5"/>
  </g>
  <defs>
    <linearGradient gradientTransform="matrix(0.0, -0.0016, 0.0147, 0.0, -23.1, -0.45)" gradientUnits="userSpaceOnUse" id="gradient0" spreadMethod="pad" x1="-819.2" x2="819.2">
      <stop offset="0.0" stop-color="#a632cd"/>
      <stop offset="0.3176470588235294" stop-color="#830f9f"/>
      <stop offset="0.8235294117647058" stop-color="#000000"/>
    </linearGradient>
  </defs>
</svg>
