<?xml version="1.0" encoding="UTF-8" standalone="no"?>
<svg xmlns:xlink="http://www.w3.org/1999/xlink" height="18.0px" width="17.95px" xmlns="http://www.w3.org/2000/svg">
  <g transform="matrix(1.0, 0.0, 0.0, 1.0, 25.05, -7.55)">
    <path d="M-20.55 20.95 Q-20.3 20.2 -19.3 19.1 -17.95 17.55 -17.15 17.25 L-15.2 16.4 Q-14.2 16.0 -13.2 15.2 L-10.95 13.15 -9.4 11.0 Q-9.0 10.0 -7.35 8.55 -7.8 8.1 -8.4 7.8 -9.9 9.2 -10.4 10.3 -10.85 11.45 -11.75 12.55 -13.3 14.2 -14.3 14.7 L-15.2 15.1 Q-16.15 15.45 -17.2 16.1 -18.55 16.95 -19.85 18.55 L-21.3 20.5 -22.6 22.7 Q-23.25 23.85 -24.8 25.3 L-22.55 23.35 Q-21.0 21.9 -20.55 20.95" fill="url(#gradient0)" fill-rule="evenodd" stroke="none"/>
    <path d="M-20.55 20.95 Q-20.3 20.2 -19.3 19.1 -17.95 17.55 -17.15 17.25 L-15.2 16.4 Q-14.2 16.0 -13.2 15.2 L-10.95 13.15 -9.4 11.0 Q-9.0 10.0 -7.35 8.55 -7.8 8.1 -8.4 7.8 -9.9 9.2 -10.4 10.3 -10.85 11.45 -11.75 12.55 -13.3 14.2 -14.3 14.7 L-15.2 15.1 Q-16.15 15.45 -17.2 16.1 -18.55 16.95 -19.85 18.55 L-21.3 20.5 -22.6 22.7 Q-23.25 23.85 -24.8 25.3 L-22.55 23.35 Q-21.0 21.9 -20.55 20.95 Z" fill="none" stroke="#000000" stroke-linecap="round" stroke-linejoin="round" stroke-width="0.5"/>
  </g>
  <defs>
    <linearGradient gradientTransform="matrix(0.0011, 0.0011, 0.0104, -0.0104, -16.35, 16.75)" gradientUnits="userSpaceOnUse" id="gradient0" spreadMethod="pad" x1="-819.2" x2="819.2">
      <stop offset="0.0" stop-color="#a632cd"/>
      <stop offset="0.3176470588235294" stop-color="#830f9f"/>
      <stop offset="0.8235294117647058" stop-color="#000000"/>
    </linearGradient>
  </defs>
</svg>
