<?xml version="1.0" encoding="UTF-8" standalone="no"?>
<svg xmlns:xlink="http://www.w3.org/1999/xlink" height="19.3px" width="18.65px" xmlns="http://www.w3.org/2000/svg">
  <g transform="matrix(1.0, 0.0, 0.0, 1.0, 24.9, -6.4)">
    <path d="M-20.65 20.85 Q-20.85 19.65 -20.0 18.4 -18.85 16.65 -17.5 16.9 L-14.2 17.4 -11.3 17.1 Q-9.9 16.6 -8.9 15.2 -7.85 13.65 -8.05 12.4 -8.3 10.7 -6.5 9.4 L-9.55 6.65 Q-11.25 7.85 -10.95 9.75 -10.55 11.75 -11.35 12.95 -12.65 14.85 -14.25 14.75 L-15.8 14.5 -18.9 14.4 Q-20.85 14.65 -21.9 16.5 -22.65 17.65 -22.7 19.1 L-22.9 22.4 Q-23.05 24.05 -24.65 25.45 L-22.0 23.9 Q-20.45 22.45 -20.65 20.85" fill="url(#gradient0)" fill-rule="evenodd" stroke="none"/>
    <path d="M-20.65 20.85 Q-20.85 19.65 -20.0 18.4 -18.85 16.65 -17.5 16.9 L-14.2 17.4 -11.3 17.1 Q-9.9 16.6 -8.9 15.2 -7.85 13.65 -8.05 12.4 -8.3 10.7 -6.5 9.4 L-9.55 6.65 Q-11.25 7.85 -10.95 9.75 -10.55 11.75 -11.35 12.95 -12.65 14.85 -14.25 14.75 L-15.8 14.5 -18.9 14.4 Q-20.85 14.65 -21.9 16.5 -22.65 17.65 -22.7 19.1 L-22.9 22.4 Q-23.05 24.05 -24.65 25.45 L-22.0 23.9 Q-20.45 22.45 -20.65 20.85 Z" fill="none" stroke="#000000" stroke-linecap="round" stroke-linejoin="round" stroke-width="0.5"/>
  </g>
  <defs>
    <linearGradient gradientTransform="matrix(0.0037, 0.0037, 0.0104, -0.0104, -16.35, 16.75)" gradientUnits="userSpaceOnUse" id="gradient0" spreadMethod="pad" x1="-819.2" x2="819.2">
      <stop offset="0.0" stop-color="#a632cd"/>
      <stop offset="0.3176470588235294" stop-color="#830f9f"/>
      <stop offset="0.8235294117647058" stop-color="#000000"/>
    </linearGradient>
  </defs>
</svg>
