<?xml version="1.0" encoding="UTF-8" standalone="no"?>
<svg xmlns:xlink="http://www.w3.org/1999/xlink" height="9.55px" width="9.85px" xmlns="http://www.w3.org/2000/svg">
  <g transform="matrix(1.0, 0.0, 0.0, 1.0, -7.4, 16.45)">
    <path d="M16.2 -14.9 Q15.5 -14.1 14.75 -14.25 L13.5 -13.9 Q12.6 -13.3 12.75 -12.65 L13.0 -11.0 Q13.15 -10.15 12.85 -9.55 12.55 -8.85 11.85 -8.35 11.15 -7.85 10.5 -7.9 9.65 -8.05 9.05 -7.15 L7.65 -8.65 Q8.25 -9.55 9.15 -9.35 L10.75 -9.55 Q11.75 -10.25 11.7 -11.0 L11.5 -11.8 11.5 -13.3 Q11.6 -14.3 12.55 -14.85 L13.85 -15.25 15.5 -15.3 Q16.3 -15.4 17.0 -16.2 L16.2 -14.9" fill="url(#gradient0)" fill-rule="evenodd" stroke="none"/>
    <path d="M16.2 -14.9 Q15.5 -14.1 14.75 -14.25 L13.5 -13.9 Q12.6 -13.3 12.75 -12.65 L13.0 -11.0 Q13.15 -10.15 12.85 -9.55 12.55 -8.85 11.85 -8.35 11.15 -7.85 10.5 -7.9 9.65 -8.05 9.05 -7.15 L7.65 -8.65 Q8.25 -9.55 9.15 -9.35 L10.75 -9.55 Q11.75 -10.25 11.7 -11.0 L11.5 -11.8 11.5 -13.3 Q11.6 -14.3 12.55 -14.85 L13.85 -15.25 15.5 -15.3 Q16.3 -15.4 17.0 -16.2 L16.2 -14.9 Z" fill="none" stroke="#000000" stroke-linecap="round" stroke-linejoin="round" stroke-width="0.5"/>
  </g>
  <defs>
    <linearGradient gradientTransform="matrix(0.0018, 0.0018, -0.0052, 0.0052, 12.65, -12.05)" gradientUnits="userSpaceOnUse" id="gradient0" spreadMethod="pad" x1="-819.2" x2="819.2">
      <stop offset="0.0" stop-color="#a632cd"/>
      <stop offset="0.3176470588235294" stop-color="#830f9f"/>
      <stop offset="0.8235294117647058" stop-color="#000000"/>
    </linearGradient>
  </defs>
</svg>
