<?xml version="1.0" encoding="UTF-8" standalone="no"?>
<svg xmlns:xlink="http://www.w3.org/1999/xlink" height="9.85px" width="9.6px" xmlns="http://www.w3.org/2000/svg">
  <g transform="matrix(1.0, 0.0, 0.0, 1.0, -7.5, -7.4)">
    <path d="M14.85 14.75 L14.5 13.5 Q13.9 12.6 13.25 12.75 L11.6 13.0 10.15 12.85 8.95 11.85 Q8.45 11.15 8.5 10.5 8.65 9.65 7.75 9.05 L9.25 7.65 Q10.15 8.25 9.95 9.15 9.8 10.2 10.15 10.75 10.85 11.75 11.6 11.7 L12.45 11.5 13.9 11.5 Q14.9 11.6 15.45 12.55 L15.85 13.85 15.9 15.5 Q16.0 16.3 16.85 17.0 16.15 16.85 15.5 16.2 14.7 15.5 14.85 14.75" fill="url(#gradient0)" fill-rule="evenodd" stroke="none"/>
    <path d="M14.85 14.75 L14.5 13.5 Q13.9 12.6 13.25 12.75 L11.6 13.0 10.15 12.85 8.95 11.85 Q8.45 11.15 8.5 10.5 8.65 9.65 7.75 9.05 L9.25 7.65 Q10.15 8.25 9.95 9.15 9.8 10.2 10.15 10.75 10.85 11.75 11.6 11.7 L12.45 11.5 13.9 11.5 Q14.9 11.6 15.45 12.55 L15.85 13.85 15.9 15.5 Q16.0 16.3 16.85 17.0 16.15 16.85 15.5 16.2 14.7 15.5 14.85 14.75 Z" fill="none" stroke="#000000" stroke-linecap="round" stroke-linejoin="round" stroke-width="0.5"/>
  </g>
  <defs>
    <linearGradient gradientTransform="matrix(-0.0018, 0.0018, -0.0052, -0.0052, 12.65, 12.65)" gradientUnits="userSpaceOnUse" id="gradient0" spreadMethod="pad" x1="-819.2" x2="819.2">
      <stop offset="0.0" stop-color="#a632cd"/>
      <stop offset="0.3176470588235294" stop-color="#830f9f"/>
      <stop offset="0.8235294117647058" stop-color="#000000"/>
    </linearGradient>
  </defs>
</svg>
