<?xml version="1.0" encoding="UTF-8" standalone="no"?>
<svg xmlns:xlink="http://www.w3.org/1999/xlink" height="9.85px" width="9.6px" xmlns="http://www.w3.org/2000/svg">
  <g transform="matrix(1.0, 0.0, 0.0, 1.0, 16.7, -7.4)">
    <path d="M-16.45 17.0 L-15.1 16.2 Q-14.3 15.5 -14.45 14.75 -14.5 14.1 -14.1 13.5 -13.5 12.6 -12.85 12.75 L-11.2 13.0 -9.75 12.85 Q-9.05 12.55 -8.55 11.85 -8.05 11.15 -8.1 10.5 -8.25 9.65 -7.35 9.05 L-8.85 7.65 Q-9.75 8.25 -9.55 9.15 -9.4 10.2 -9.75 10.75 -10.45 11.75 -11.2 11.7 L-12.05 11.5 -13.5 11.5 Q-14.5 11.6 -15.05 12.55 L-15.45 13.85 -15.5 15.5 Q-15.6 16.3 -16.45 17.0" fill="url(#gradient0)" fill-rule="evenodd" stroke="none"/>
    <path d="M-16.45 17.0 L-15.1 16.2 Q-14.3 15.5 -14.45 14.75 -14.5 14.1 -14.1 13.5 -13.5 12.6 -12.85 12.75 L-11.2 13.0 -9.75 12.85 Q-9.05 12.55 -8.55 11.85 -8.05 11.15 -8.1 10.5 -8.25 9.65 -7.35 9.05 L-8.85 7.65 Q-9.75 8.25 -9.55 9.15 -9.4 10.2 -9.75 10.75 -10.45 11.75 -11.2 11.7 L-12.05 11.5 -13.5 11.5 Q-14.5 11.6 -15.05 12.55 L-15.45 13.85 -15.5 15.5 Q-15.6 16.3 -16.45 17.0 Z" fill="none" stroke="#000000" stroke-linecap="round" stroke-linejoin="round" stroke-width="0.5"/>
  </g>
  <defs>
    <linearGradient gradientTransform="matrix(0.0018, 0.0018, 0.0052, -0.0052, -12.25, 12.65)" gradientUnits="userSpaceOnUse" id="gradient0" spreadMethod="pad" x1="-819.2" x2="819.2">
      <stop offset="0.0" stop-color="#a632cd"/>
      <stop offset="0.3176470588235294" stop-color="#830f9f"/>
      <stop offset="0.8235294117647058" stop-color="#000000"/>
    </linearGradient>
  </defs>
</svg>
