<?xml version="1.0" encoding="UTF-8" standalone="no"?>
<svg xmlns:xlink="http://www.w3.org/1999/xlink" height="27.2px" width="38.4px" xmlns="http://www.w3.org/2000/svg">
  <g transform="matrix(1.0, 0.0, 0.0, 1.0, 19.0, 13.1)">
    <path d="M13.4 -12.1 Q13.0 -11.6 12.55 -11.65 12.15 -11.75 11.75 -11.45 11.25 -11.15 11.3 -10.7 L11.45 -9.75 11.35 -8.85 10.8 -8.1 9.95 -7.85 Q9.45 -7.95 9.1 -7.4 L8.25 -8.35 Q8.65 -8.85 9.15 -8.75 L10.15 -8.85 Q10.7 -9.3 10.65 -9.75 L10.6 -10.2 Q10.5 -10.7 10.55 -11.15 10.65 -11.75 11.2 -12.0 L11.95 -12.25 12.95 -12.35 13.85 -12.85 13.4 -12.1" fill="url(#gradient0)" fill-rule="evenodd" stroke="none"/>
    <path d="M13.4 -12.1 Q13.0 -11.6 12.55 -11.65 12.15 -11.75 11.75 -11.45 11.25 -11.15 11.3 -10.7 L11.45 -9.75 11.35 -8.85 10.8 -8.1 9.95 -7.85 Q9.45 -7.95 9.1 -7.4 L8.25 -8.35 Q8.65 -8.85 9.15 -8.75 L10.15 -8.85 Q10.7 -9.3 10.65 -9.75 L10.6 -10.2 Q10.5 -10.7 10.55 -11.15 10.65 -11.75 11.2 -12.0 L11.95 -12.25 12.95 -12.35 13.85 -12.85 13.4 -12.1 Z" fill="none" stroke="#000000" stroke-linecap="round" stroke-linejoin="round" stroke-width="0.5"/>
    <path d="M17.35 -0.65 Q17.1 -0.35 16.65 -0.25 16.05 -0.1 15.8 -0.45 L15.2 -1.25 14.55 -1.8 13.65 -1.9 Q13.1 -1.8 12.85 -1.5 12.55 -1.1 11.9 -1.2 L11.95 0.05 Q12.6 0.15 12.9 -0.35 13.25 -0.8 13.65 -0.9 L14.65 -0.7 14.95 -0.3 15.6 0.35 16.65 0.55 17.4 0.2 18.15 -0.5 Q18.5 -0.8 19.15 -0.75 L18.25 -0.95 Q17.6 -1.0 17.35 -0.65" fill="url(#gradient1)" fill-rule="evenodd" stroke="none"/>
    <path d="M17.35 -0.65 Q17.1 -0.35 16.65 -0.25 16.05 -0.1 15.8 -0.45 L15.2 -1.25 14.55 -1.8 13.65 -1.9 Q13.1 -1.8 12.85 -1.5 12.55 -1.1 11.9 -1.2 L11.95 0.05 Q12.6 0.15 12.9 -0.35 13.25 -0.8 13.65 -0.9 L14.65 -0.7 14.95 -0.3 15.6 0.35 16.65 0.55 17.4 0.2 18.15 -0.5 Q18.5 -0.8 19.15 -0.75 L18.25 -0.95 Q17.6 -1.0 17.35 -0.65 Z" fill="none" stroke="#000000" stroke-linecap="round" stroke-linejoin="round" stroke-width="0.5"/>
    <path d="M12.25 12.55 Q12.35 12.15 12.05 11.75 11.75 11.25 11.3 11.3 L10.35 11.45 9.45 11.35 8.7 10.8 8.45 9.95 Q8.55 9.45 8.0 9.1 L8.95 8.25 Q9.45 8.65 9.35 9.15 9.25 9.75 9.45 10.15 9.9 10.7 10.35 10.65 L10.8 10.6 11.75 10.55 Q12.35 10.65 12.6 11.2 L12.85 11.95 12.95 12.95 Q12.95 13.45 13.5 13.85 13.05 13.75 12.7 13.4 12.2 13.0 12.25 12.55" fill="url(#gradient2)" fill-rule="evenodd" stroke="none"/>
    <path d="M12.25 12.55 Q12.35 12.15 12.05 11.75 11.75 11.25 11.3 11.3 L10.35 11.45 9.45 11.35 8.7 10.8 8.45 9.95 Q8.55 9.45 8.0 9.1 L8.95 8.25 Q9.45 8.65 9.35 9.15 9.25 9.75 9.45 10.15 9.9 10.7 10.35 10.65 L10.8 10.6 11.75 10.55 Q12.35 10.65 12.6 11.2 L12.85 11.95 12.95 12.95 Q12.95 13.45 13.5 13.85 13.05 13.75 12.7 13.4 12.2 13.0 12.25 12.55 Z" fill="none" stroke="#000000" stroke-linecap="round" stroke-linejoin="round" stroke-width="0.5"/>
    <path d="M-12.15 -11.65 Q-11.75 -11.75 -11.35 -11.45 -10.85 -11.15 -10.9 -10.7 L-11.05 -9.75 -10.95 -8.85 -10.4 -8.1 -9.55 -7.85 Q-9.05 -7.95 -8.7 -7.4 L-7.85 -8.35 Q-8.25 -8.85 -8.75 -8.75 L-9.75 -8.85 Q-10.3 -9.3 -10.25 -9.75 L-10.2 -10.2 Q-10.1 -10.7 -10.15 -11.15 -10.25 -11.75 -10.8 -12.0 L-11.55 -12.25 -12.55 -12.35 Q-13.05 -12.35 -13.45 -12.85 L-13.0 -12.1 Q-12.6 -11.6 -12.15 -11.65" fill="url(#gradient3)" fill-rule="evenodd" stroke="none"/>
    <path d="M-12.15 -11.65 Q-11.75 -11.75 -11.35 -11.45 -10.85 -11.15 -10.9 -10.7 L-11.05 -9.75 -10.95 -8.85 -10.4 -8.1 -9.55 -7.85 Q-9.05 -7.95 -8.7 -7.4 L-7.85 -8.35 Q-8.25 -8.85 -8.75 -8.75 L-9.75 -8.85 Q-10.3 -9.3 -10.25 -9.75 L-10.2 -10.2 Q-10.1 -10.7 -10.15 -11.15 -10.25 -11.75 -10.8 -12.0 L-11.55 -12.25 -12.55 -12.35 Q-13.05 -12.35 -13.45 -12.85 L-13.0 -12.1 Q-12.6 -11.6 -12.15 -11.65 Z" fill="none" stroke="#000000" stroke-linecap="round" stroke-linejoin="round" stroke-width="0.5"/>
    <path d="M-18.75 -0.75 L-17.85 -0.95 Q-17.2 -1.0 -16.95 -0.65 L-16.25 -0.25 Q-15.65 -0.1 -15.4 -0.45 L-14.8 -1.25 -14.15 -1.8 -13.25 -1.9 Q-12.7 -1.8 -12.45 -1.5 -12.15 -1.1 -11.5 -1.2 L-11.55 0.05 Q-12.2 0.15 -12.5 -0.35 -12.85 -0.8 -13.25 -0.9 L-14.25 -0.7 -14.55 -0.3 -15.2 0.35 Q-15.65 0.75 -16.25 0.55 L-17.0 0.2 -17.75 -0.5 Q-18.1 -0.8 -18.75 -0.75" fill="url(#gradient4)" fill-rule="evenodd" stroke="none"/>
    <path d="M-18.75 -0.75 L-17.85 -0.95 Q-17.2 -1.0 -16.95 -0.65 L-16.25 -0.25 Q-15.65 -0.1 -15.4 -0.45 L-14.8 -1.25 -14.15 -1.8 -13.25 -1.9 Q-12.7 -1.8 -12.45 -1.5 -12.15 -1.1 -11.5 -1.2 L-11.55 0.05 Q-12.2 0.15 -12.5 -0.35 -12.85 -0.8 -13.25 -0.9 L-14.25 -0.7 -14.55 -0.3 -15.2 0.35 Q-15.65 0.75 -16.25 0.55 L-17.0 0.2 -17.75 -0.5 Q-18.1 -0.8 -18.75 -0.75 Z" fill="none" stroke="#000000" stroke-linecap="round" stroke-linejoin="round" stroke-width="0.5"/>
    <path d="M-13.1 13.85 L-12.3 13.4 Q-11.8 13.0 -11.85 12.55 -11.95 12.15 -11.65 11.75 -11.35 11.25 -10.9 11.3 L-9.95 11.45 -9.05 11.35 -8.3 10.8 -8.05 9.95 Q-8.15 9.45 -7.6 9.1 L-8.55 8.25 Q-9.05 8.65 -8.95 9.15 -8.85 9.75 -9.05 10.15 -9.5 10.7 -9.95 10.65 L-10.4 10.6 -11.35 10.55 Q-11.95 10.65 -12.2 11.2 L-12.45 11.95 -12.55 12.95 Q-12.55 13.45 -13.1 13.85" fill="url(#gradient5)" fill-rule="evenodd" stroke="none"/>
    <path d="M-13.1 13.85 L-12.3 13.4 Q-11.8 13.0 -11.85 12.55 -11.95 12.15 -11.65 11.75 -11.35 11.25 -10.9 11.3 L-9.95 11.45 -9.05 11.35 -8.3 10.8 -8.05 9.95 Q-8.15 9.45 -7.6 9.1 L-8.55 8.25 Q-9.05 8.65 -8.95 9.15 -8.85 9.75 -9.05 10.15 -9.5 10.7 -9.95 10.65 L-10.4 10.6 -11.35 10.55 Q-11.95 10.65 -12.2 11.2 L-12.45 11.95 -12.55 12.95 Q-12.55 13.45 -13.1 13.85 Z" fill="none" stroke="#000000" stroke-linecap="round" stroke-linejoin="round" stroke-width="0.5"/>
  </g>
  <defs>
    <linearGradient gradientTransform="matrix(0.0011, 0.0011, -0.0031, 0.0031, 11.25, -10.35)" gradientUnits="userSpaceOnUse" id="gradient0" spreadMethod="pad" x1="-819.2" x2="819.2">
      <stop offset="0.0" stop-color="#a632cd"/>
      <stop offset="0.3176470588235294" stop-color="#830f9f"/>
      <stop offset="0.8235294117647058" stop-color="#000000"/>
    </linearGradient>
    <linearGradient gradientTransform="matrix(0.0, -0.0016, -0.0044, 0.0, 15.55, -0.65)" gradientUnits="userSpaceOnUse" id="gradient1" spreadMethod="pad" x1="-819.2" x2="819.2">
      <stop offset="0.0" stop-color="#a632cd"/>
      <stop offset="0.3176470588235294" stop-color="#830f9f"/>
      <stop offset="0.8235294117647058" stop-color="#000000"/>
    </linearGradient>
    <linearGradient gradientTransform="matrix(-0.0011, 0.0011, -0.0031, -0.0031, 10.95, 11.25)" gradientUnits="userSpaceOnUse" id="gradient2" spreadMethod="pad" x1="-819.2" x2="819.2">
      <stop offset="0.0" stop-color="#a632cd"/>
      <stop offset="0.3176470588235294" stop-color="#830f9f"/>
      <stop offset="0.8235294117647058" stop-color="#000000"/>
    </linearGradient>
    <linearGradient gradientTransform="matrix(-0.0011, 0.0011, 0.0031, 0.0031, -10.85, -10.35)" gradientUnits="userSpaceOnUse" id="gradient3" spreadMethod="pad" x1="-819.2" x2="819.2">
      <stop offset="0.0" stop-color="#a632cd"/>
      <stop offset="0.3176470588235294" stop-color="#830f9f"/>
      <stop offset="0.8235294117647058" stop-color="#000000"/>
    </linearGradient>
    <linearGradient gradientTransform="matrix(0.0, -0.0016, 0.0044, 0.0, -15.15, -0.65)" gradientUnits="userSpaceOnUse" id="gradient4" spreadMethod="pad" x1="-819.2" x2="819.2">
      <stop offset="0.0" stop-color="#a632cd"/>
      <stop offset="0.3176470588235294" stop-color="#830f9f"/>
      <stop offset="0.8235294117647058" stop-color="#000000"/>
    </linearGradient>
    <linearGradient gradientTransform="matrix(0.0011, 0.0011, 0.0031, -0.0031, -10.55, 11.25)" gradientUnits="userSpaceOnUse" id="gradient5" spreadMethod="pad" x1="-819.2" x2="819.2">
      <stop offset="0.0" stop-color="#a632cd"/>
      <stop offset="0.3176470588235294" stop-color="#830f9f"/>
      <stop offset="0.8235294117647058" stop-color="#000000"/>
    </linearGradient>
  </defs>
</svg>
