<?xml version="1.0" encoding="UTF-8" standalone="no"?>
<svg xmlns:xlink="http://www.w3.org/1999/xlink" height="18.65px" width="19.3px" xmlns="http://www.w3.org/2000/svg">
  <g transform="matrix(1.0, 0.0, 0.0, 1.0, -6.4, 24.7)">
    <path d="M25.45 -24.45 Q25.0 -23.1 23.9 -21.8 22.45 -20.25 20.85 -20.45 19.65 -20.65 18.4 -19.8 16.65 -18.65 16.9 -17.3 L17.4 -14.0 Q17.65 -12.35 17.1 -11.1 16.6 -9.7 15.2 -8.7 13.65 -7.65 12.35 -7.85 10.7 -8.1 9.4 -6.3 7.95 -7.75 6.65 -9.35 7.85 -11.05 9.75 -10.75 11.75 -10.35 12.95 -11.15 14.85 -12.45 14.75 -14.05 L14.5 -15.6 Q14.2 -17.2 14.4 -18.7 14.65 -20.65 16.5 -21.7 17.65 -22.45 19.1 -22.5 L22.4 -22.7 Q24.05 -22.85 25.45 -24.45" fill="url(#gradient0)" fill-rule="evenodd" stroke="none"/>
    <path d="M25.45 -24.45 Q25.0 -23.1 23.9 -21.8 22.45 -20.25 20.85 -20.45 19.65 -20.65 18.4 -19.8 16.65 -18.65 16.9 -17.3 L17.4 -14.0 Q17.65 -12.35 17.1 -11.1 16.6 -9.7 15.2 -8.7 13.65 -7.65 12.35 -7.85 10.7 -8.1 9.4 -6.3 7.95 -7.75 6.65 -9.35 7.85 -11.05 9.75 -10.75 11.75 -10.35 12.95 -11.15 14.85 -12.45 14.75 -14.05 L14.5 -15.6 Q14.2 -17.2 14.4 -18.7 14.65 -20.65 16.5 -21.7 17.65 -22.45 19.1 -22.5 L22.4 -22.7 Q24.05 -22.85 25.45 -24.45 Z" fill="none" stroke="#000000" stroke-linecap="round" stroke-linejoin="round" stroke-width="0.5"/>
  </g>
  <defs>
    <linearGradient gradientTransform="matrix(0.0037, 0.0037, -0.0104, 0.0104, 16.75, -16.15)" gradientUnits="userSpaceOnUse" id="gradient0" spreadMethod="pad" x1="-819.2" x2="819.2">
      <stop offset="0.0" stop-color="#a632cd"/>
      <stop offset="0.3176470588235294" stop-color="#830f9f"/>
      <stop offset="0.8235294117647058" stop-color="#000000"/>
    </linearGradient>
  </defs>
</svg>
