<?xml version="1.0" encoding="UTF-8" standalone="no"?>
<svg xmlns:xlink="http://www.w3.org/1999/xlink" height="9.0px" width="24.65px" xmlns="http://www.w3.org/2000/svg">
  <g transform="matrix(1.0, 0.0, 0.0, 1.0, -11.15, 4.95)">
    <path d="M32.55 -1.5 Q30.45 -1.6 29.5 -0.35 28.75 0.65 27.25 0.95 25.2 1.4 24.45 0.25 L22.45 -2.45 Q21.45 -3.8 20.2 -4.3 L17.15 -4.6 Q15.35 -4.3 14.55 -3.25 13.55 -1.9 11.4 -2.25 L11.55 1.85 Q13.65 2.2 14.75 0.65 15.9 -1.0 17.3 -1.3 19.6 -1.75 20.6 -0.55 L21.55 0.75 Q22.45 2.1 23.65 3.0 25.2 4.2 27.25 3.65 28.6 3.35 29.65 2.35 L32.15 0.15 Q33.4 -0.9 35.55 -0.75 34.3 -1.4 32.55 -1.5" fill="url(#gradient0)" fill-rule="evenodd" stroke="none"/>
    <path d="M32.55 -1.5 Q30.45 -1.6 29.5 -0.35 28.75 0.65 27.25 0.95 25.2 1.4 24.45 0.25 L22.45 -2.45 Q21.45 -3.8 20.2 -4.3 L17.15 -4.6 Q15.35 -4.3 14.55 -3.25 13.55 -1.9 11.4 -2.25 L11.55 1.85 Q13.65 2.2 14.75 0.65 15.9 -1.0 17.3 -1.3 19.6 -1.75 20.6 -0.55 L21.55 0.75 Q22.45 2.1 23.65 3.0 25.2 4.2 27.25 3.65 28.6 3.35 29.65 2.35 L32.15 0.15 Q33.4 -0.9 35.55 -0.75 34.3 -1.4 32.55 -1.5 Z" fill="none" stroke="#000000" stroke-linecap="round" stroke-linejoin="round" stroke-width="0.5"/>
  </g>
  <defs>
    <linearGradient gradientTransform="matrix(0.0, -0.0052, -0.0147, 0.0, 23.5, -0.45)" gradientUnits="userSpaceOnUse" id="gradient0" spreadMethod="pad" x1="-819.2" x2="819.2">
      <stop offset="0.0" stop-color="#a632cd"/>
      <stop offset="0.3176470588235294" stop-color="#830f9f"/>
      <stop offset="0.8235294117647058" stop-color="#000000"/>
    </linearGradient>
  </defs>
</svg>
