<?xml version="1.0" encoding="UTF-8" standalone="no"?>
<svg xmlns:xlink="http://www.w3.org/1999/xlink" height="19.3px" width="18.65px" xmlns="http://www.w3.org/2000/svg">
  <g transform="matrix(1.0, 0.0, 0.0, 1.0, -6.65, -6.4)">
    <path d="M22.4 23.9 Q20.85 22.45 21.05 20.85 21.25 19.65 20.4 18.4 19.25 16.65 17.9 16.9 L14.6 17.4 11.7 17.1 Q10.3 16.6 9.3 15.2 8.25 13.65 8.45 12.4 8.7 10.7 6.9 9.4 L9.95 6.65 Q11.65 7.85 11.35 9.75 10.95 11.75 11.75 12.95 13.05 14.85 14.65 14.75 L16.2 14.5 19.3 14.4 Q21.25 14.65 22.3 16.5 23.05 17.65 23.1 19.1 L23.3 22.4 Q23.45 24.05 25.05 25.45 23.7 25.0 22.4 23.9" fill="url(#gradient0)" fill-rule="evenodd" stroke="none"/>
    <path d="M22.4 23.9 Q20.85 22.45 21.05 20.85 21.25 19.65 20.4 18.4 19.25 16.65 17.9 16.9 L14.6 17.4 11.7 17.1 Q10.3 16.6 9.3 15.2 8.25 13.65 8.45 12.4 8.7 10.7 6.9 9.4 L9.95 6.65 Q11.65 7.85 11.35 9.75 10.95 11.75 11.75 12.95 13.05 14.85 14.65 14.75 L16.2 14.5 19.3 14.4 Q21.25 14.65 22.3 16.5 23.05 17.65 23.1 19.1 L23.3 22.4 Q23.45 24.05 25.05 25.45 23.7 25.0 22.4 23.9 Z" fill="none" stroke="#000000" stroke-linecap="round" stroke-linejoin="round" stroke-width="0.5"/>
  </g>
  <defs>
    <linearGradient gradientTransform="matrix(-0.0037, 0.0037, -0.0104, -0.0104, 16.75, 16.75)" gradientUnits="userSpaceOnUse" id="gradient0" spreadMethod="pad" x1="-819.2" x2="819.2">
      <stop offset="0.0" stop-color="#a632cd"/>
      <stop offset="0.3176470588235294" stop-color="#830f9f"/>
      <stop offset="0.8235294117647058" stop-color="#000000"/>
    </linearGradient>
  </defs>
</svg>
