<?xml version="1.0" encoding="UTF-8" standalone="no"?>
<svg xmlns:xlink="http://www.w3.org/1999/xlink" height="18.65px" width="19.3px" xmlns="http://www.w3.org/2000/svg">
  <g transform="matrix(1.0, 0.0, 0.0, 1.0, 25.3, 24.7)">
    <path d="M-23.5 -21.8 Q-22.05 -20.25 -20.45 -20.45 -19.25 -20.65 -18.0 -19.8 -16.25 -18.65 -16.5 -17.3 L-17.0 -14.0 Q-17.25 -12.35 -16.7 -11.1 -16.2 -9.7 -14.8 -8.7 -13.25 -7.65 -11.95 -7.85 -10.3 -8.1 -9.0 -6.3 -7.55 -7.75 -6.25 -9.35 -7.45 -11.05 -9.35 -10.75 -11.35 -10.35 -12.55 -11.15 -14.45 -12.45 -14.35 -14.05 L-14.1 -15.6 Q-13.8 -17.2 -14.0 -18.7 -14.25 -20.65 -16.1 -21.7 -17.25 -22.45 -18.7 -22.5 L-22.0 -22.7 Q-23.65 -22.85 -25.05 -24.45 -24.6 -23.1 -23.5 -21.8" fill="url(#gradient0)" fill-rule="evenodd" stroke="none"/>
    <path d="M-23.5 -21.8 Q-22.05 -20.25 -20.45 -20.45 -19.25 -20.65 -18.0 -19.8 -16.25 -18.65 -16.5 -17.3 L-17.0 -14.0 Q-17.25 -12.35 -16.7 -11.1 -16.2 -9.7 -14.8 -8.7 -13.25 -7.65 -11.95 -7.85 -10.3 -8.1 -9.0 -6.3 -7.55 -7.75 -6.25 -9.35 -7.45 -11.05 -9.35 -10.75 -11.35 -10.35 -12.55 -11.15 -14.45 -12.45 -14.35 -14.05 L-14.1 -15.6 Q-13.8 -17.2 -14.0 -18.7 -14.25 -20.65 -16.1 -21.7 -17.25 -22.45 -18.7 -22.5 L-22.0 -22.7 Q-23.65 -22.85 -25.05 -24.45 -24.6 -23.1 -23.5 -21.8 Z" fill="none" stroke="#000000" stroke-linecap="round" stroke-linejoin="round" stroke-width="0.5"/>
  </g>
  <defs>
    <linearGradient gradientTransform="matrix(-0.0037, 0.0037, 0.0104, 0.0104, -16.35, -16.15)" gradientUnits="userSpaceOnUse" id="gradient0" spreadMethod="pad" x1="-819.2" x2="819.2">
      <stop offset="0.0" stop-color="#a632cd"/>
      <stop offset="0.3176470588235294" stop-color="#830f9f"/>
      <stop offset="0.8235294117647058" stop-color="#000000"/>
    </linearGradient>
  </defs>
</svg>
