<?xml version="1.0" encoding="UTF-8" standalone="no"?>
<svg xmlns:xlink="http://www.w3.org/1999/xlink" height="9.0px" width="24.65px" xmlns="http://www.w3.org/2000/svg">
  <g transform="matrix(1.0, 0.0, 0.0, 1.0, 35.4, 4.95)">
    <path d="M-29.1 -0.35 Q-28.35 0.65 -26.85 0.95 -24.8 1.4 -24.05 0.25 L-22.05 -2.45 Q-21.05 -3.8 -19.8 -4.3 L-16.75 -4.6 Q-14.95 -4.3 -14.15 -3.25 -13.15 -1.9 -11.0 -2.25 L-11.15 1.85 Q-13.25 2.2 -14.35 0.65 -15.5 -1.0 -16.9 -1.3 -19.2 -1.75 -20.2 -0.55 L-21.15 0.75 Q-22.05 2.1 -23.25 3.0 -24.8 4.2 -26.85 3.65 -28.2 3.35 -29.25 2.35 L-31.75 0.15 Q-33.0 -0.9 -35.15 -0.75 -33.9 -1.4 -32.15 -1.5 -30.05 -1.6 -29.1 -0.35" fill="url(#gradient0)" fill-rule="evenodd" stroke="none"/>
    <path d="M-29.1 -0.35 Q-28.35 0.65 -26.85 0.95 -24.8 1.4 -24.05 0.25 L-22.05 -2.45 Q-21.05 -3.8 -19.8 -4.3 L-16.75 -4.6 Q-14.95 -4.3 -14.15 -3.25 -13.15 -1.9 -11.0 -2.25 L-11.15 1.85 Q-13.25 2.2 -14.35 0.65 -15.5 -1.0 -16.9 -1.3 -19.2 -1.75 -20.2 -0.55 L-21.15 0.75 Q-22.05 2.1 -23.25 3.0 -24.8 4.2 -26.85 3.65 -28.2 3.35 -29.25 2.35 L-31.75 0.15 Q-33.0 -0.9 -35.15 -0.75 -33.9 -1.4 -32.15 -1.5 -30.05 -1.6 -29.1 -0.35 Z" fill="none" stroke="#000000" stroke-linecap="round" stroke-linejoin="round" stroke-width="0.5"/>
  </g>
  <defs>
    <linearGradient gradientTransform="matrix(0.0, -0.0052, 0.0147, 0.0, -23.1, -0.45)" gradientUnits="userSpaceOnUse" id="gradient0" spreadMethod="pad" x1="-819.2" x2="819.2">
      <stop offset="0.0" stop-color="#a632cd"/>
      <stop offset="0.3176470588235294" stop-color="#830f9f"/>
      <stop offset="0.8235294117647058" stop-color="#000000"/>
    </linearGradient>
  </defs>
</svg>
