<?xml version="1.0" encoding="UTF-8" standalone="no"?>
<svg xmlns:xlink="http://www.w3.org/1999/xlink" height="50.4px" width="71.2px" xmlns="http://www.w3.org/2000/svg">
  <g transform="matrix(1.0, 0.0, 0.0, 1.0, 35.4, 24.85)">
    <path d="M25.3 -24.6 L23.35 -22.35 Q21.9 -20.8 20.95 -20.35 L19.1 -19.1 Q17.55 -17.75 17.25 -16.95 L16.4 -15.0 15.2 -13.0 13.15 -10.75 11.0 -9.2 Q10.0 -8.8 8.55 -7.15 8.1 -7.6 7.8 -8.2 9.2 -9.7 10.3 -10.2 11.45 -10.65 12.55 -11.55 14.2 -13.1 14.7 -14.1 L15.1 -15.0 16.1 -17.0 Q16.95 -18.35 18.55 -19.65 19.55 -20.55 20.5 -21.1 L22.7 -22.4 Q23.85 -23.05 25.3 -24.6" fill="url(#gradient0)" fill-rule="evenodd" stroke="none"/>
    <path d="M25.3 -24.6 L23.35 -22.35 Q21.9 -20.8 20.95 -20.35 L19.1 -19.1 Q17.55 -17.75 17.25 -16.95 L16.4 -15.0 15.2 -13.0 13.15 -10.75 11.0 -9.2 Q10.0 -8.8 8.55 -7.15 8.1 -7.6 7.8 -8.2 9.2 -9.7 10.3 -10.2 11.45 -10.65 12.55 -11.55 14.2 -13.1 14.7 -14.1 L15.1 -15.0 16.1 -17.0 Q16.95 -18.35 18.55 -19.65 19.55 -20.55 20.5 -21.1 L22.7 -22.4 Q23.85 -23.05 25.3 -24.6 Z" fill="none" stroke="#000000" stroke-linecap="round" stroke-linejoin="round" stroke-width="0.5"/>
    <path d="M32.55 -0.75 L29.5 -0.45 27.25 -0.05 24.45 -0.25 22.45 -1.05 20.2 -1.6 17.15 -1.7 14.55 -1.3 11.4 -1.0 11.55 0.25 14.75 -0.15 17.3 -0.7 20.6 -0.5 21.55 -0.1 23.65 0.55 27.25 0.75 29.65 0.4 32.15 -0.3 35.55 -0.55 32.55 -0.75" fill="url(#gradient1)" fill-rule="evenodd" stroke="none"/>
    <path d="M32.55 -0.75 L29.5 -0.45 27.25 -0.05 24.45 -0.25 22.45 -1.05 20.2 -1.6 17.15 -1.7 14.55 -1.3 11.4 -1.0 11.55 0.25 14.75 -0.15 17.3 -0.7 20.6 -0.5 21.55 -0.1 23.65 0.55 27.25 0.75 29.65 0.4 32.15 -0.3 35.55 -0.55 32.55 -0.75 Z" fill="none" stroke="#000000" stroke-linecap="round" stroke-linejoin="round" stroke-width="0.5"/>
    <path d="M22.95 23.35 Q21.4 21.9 20.95 20.95 20.7 20.2 19.7 19.1 18.35 17.55 17.55 17.25 L15.6 16.4 13.6 15.2 11.35 13.15 9.8 11.0 Q9.4 10.0 7.75 8.55 8.2 8.1 8.8 7.8 10.3 9.2 10.8 10.3 11.25 11.45 12.15 12.55 13.7 14.2 14.7 14.7 L15.6 15.1 Q16.55 15.45 17.6 16.1 18.95 16.95 20.25 18.55 L21.7 20.5 23.0 22.7 Q23.65 23.85 25.2 25.3 L22.95 23.35" fill="url(#gradient2)" fill-rule="evenodd" stroke="none"/>
    <path d="M22.95 23.35 Q21.4 21.9 20.95 20.95 20.7 20.2 19.7 19.1 18.35 17.55 17.55 17.25 L15.6 16.4 13.6 15.2 11.35 13.15 9.8 11.0 Q9.4 10.0 7.75 8.55 8.2 8.1 8.8 7.8 10.3 9.2 10.8 10.3 11.25 11.45 12.15 12.55 13.7 14.2 14.7 14.7 L15.6 15.1 Q16.55 15.45 17.6 16.1 18.95 16.95 20.25 18.55 L21.7 20.5 23.0 22.7 Q23.65 23.85 25.2 25.3 L22.95 23.35 Z" fill="none" stroke="#000000" stroke-linecap="round" stroke-linejoin="round" stroke-width="0.5"/>
    <path d="M-22.95 -22.35 Q-21.5 -20.8 -20.55 -20.35 -19.8 -20.1 -18.7 -19.1 -17.15 -17.75 -16.85 -16.95 L-16.0 -15.0 Q-15.6 -14.0 -14.8 -13.0 L-12.75 -10.75 -10.6 -9.2 Q-9.6 -8.8 -8.15 -7.15 -7.7 -7.6 -7.4 -8.2 -8.8 -9.7 -9.9 -10.2 -11.05 -10.65 -12.15 -11.55 -13.8 -13.1 -14.3 -14.1 L-14.7 -15.0 -15.7 -17.0 Q-16.55 -18.35 -18.15 -19.65 L-20.1 -21.1 -22.3 -22.4 Q-23.45 -23.05 -24.9 -24.6 L-22.95 -22.35" fill="url(#gradient3)" fill-rule="evenodd" stroke="none"/>
    <path d="M-22.95 -22.35 Q-21.5 -20.8 -20.55 -20.35 -19.8 -20.1 -18.7 -19.1 -17.15 -17.75 -16.85 -16.95 L-16.0 -15.0 Q-15.6 -14.0 -14.8 -13.0 L-12.75 -10.75 -10.6 -9.2 Q-9.6 -8.8 -8.15 -7.15 -7.7 -7.6 -7.4 -8.2 -8.8 -9.7 -9.9 -10.2 -11.05 -10.65 -12.15 -11.55 -13.8 -13.1 -14.3 -14.1 L-14.7 -15.0 -15.7 -17.0 Q-16.55 -18.35 -18.15 -19.65 L-20.1 -21.1 -22.3 -22.4 Q-23.45 -23.05 -24.9 -24.6 L-22.95 -22.35 Z" fill="none" stroke="#000000" stroke-linecap="round" stroke-linejoin="round" stroke-width="0.5"/>
    <path d="M-29.1 -0.45 L-26.85 -0.05 -24.05 -0.25 -22.05 -1.05 -19.8 -1.6 -16.75 -1.7 -14.15 -1.3 -11.0 -1.0 -11.15 0.25 -14.35 -0.15 -16.9 -0.7 -20.2 -0.5 -21.15 -0.1 -23.25 0.55 -26.85 0.75 -29.25 0.4 -31.75 -0.3 -35.15 -0.55 -32.15 -0.75 -29.1 -0.45" fill="url(#gradient4)" fill-rule="evenodd" stroke="none"/>
    <path d="M-29.1 -0.45 L-26.85 -0.05 -24.05 -0.25 -22.05 -1.05 -19.8 -1.6 -16.75 -1.7 -14.15 -1.3 -11.0 -1.0 -11.15 0.25 -14.35 -0.15 -16.9 -0.7 -20.2 -0.5 -21.15 -0.1 -23.25 0.55 -26.85 0.75 -29.25 0.4 -31.75 -0.3 -35.15 -0.55 -32.15 -0.75 -29.1 -0.45 Z" fill="none" stroke="#000000" stroke-linecap="round" stroke-linejoin="round" stroke-width="0.5"/>
    <path d="M-20.55 20.95 Q-20.3 20.2 -19.3 19.1 -17.95 17.55 -17.15 17.25 L-15.2 16.4 Q-14.2 16.0 -13.2 15.2 L-10.95 13.15 -9.4 11.0 Q-9.0 10.0 -7.35 8.55 -7.8 8.1 -8.4 7.8 -9.9 9.2 -10.4 10.3 -10.85 11.45 -11.75 12.55 -13.3 14.2 -14.3 14.7 L-15.2 15.1 Q-16.15 15.45 -17.2 16.1 -18.55 16.95 -19.85 18.55 L-21.3 20.5 -22.6 22.7 Q-23.25 23.85 -24.8 25.3 L-22.55 23.35 Q-21.0 21.9 -20.55 20.95" fill="url(#gradient5)" fill-rule="evenodd" stroke="none"/>
    <path d="M-20.55 20.95 Q-20.3 20.2 -19.3 19.1 -17.95 17.55 -17.15 17.25 L-15.2 16.4 Q-14.2 16.0 -13.2 15.2 L-10.95 13.15 -9.4 11.0 Q-9.0 10.0 -7.35 8.55 -7.8 8.1 -8.4 7.8 -9.9 9.2 -10.4 10.3 -10.85 11.45 -11.75 12.55 -13.3 14.2 -14.3 14.7 L-15.2 15.1 Q-16.15 15.45 -17.2 16.1 -18.55 16.95 -19.85 18.55 L-21.3 20.5 -22.6 22.7 Q-23.25 23.85 -24.8 25.3 L-22.55 23.35 Q-21.0 21.9 -20.55 20.95 Z" fill="none" stroke="#000000" stroke-linecap="round" stroke-linejoin="round" stroke-width="0.5"/>
  </g>
  <defs>
    <linearGradient gradientTransform="matrix(0.0011, 0.0011, -0.0104, 0.0104, 16.75, -16.15)" gradientUnits="userSpaceOnUse" id="gradient0" spreadMethod="pad" x1="-819.2" x2="819.2">
      <stop offset="0.0" stop-color="#a632cd"/>
      <stop offset="0.3176470588235294" stop-color="#830f9f"/>
      <stop offset="0.8235294117647058" stop-color="#000000"/>
    </linearGradient>
    <linearGradient gradientTransform="matrix(0.0, -0.0016, -0.0147, 0.0, 23.5, -0.45)" gradientUnits="userSpaceOnUse" id="gradient1" spreadMethod="pad" x1="-819.2" x2="819.2">
      <stop offset="0.0" stop-color="#a632cd"/>
      <stop offset="0.3176470588235294" stop-color="#830f9f"/>
      <stop offset="0.8235294117647058" stop-color="#000000"/>
    </linearGradient>
    <linearGradient gradientTransform="matrix(-0.0011, 0.0011, -0.0104, -0.0104, 16.75, 16.75)" gradientUnits="userSpaceOnUse" id="gradient2" spreadMethod="pad" x1="-819.2" x2="819.2">
      <stop offset="0.0" stop-color="#a632cd"/>
      <stop offset="0.3176470588235294" stop-color="#830f9f"/>
      <stop offset="0.8235294117647058" stop-color="#000000"/>
    </linearGradient>
    <linearGradient gradientTransform="matrix(-0.0011, 0.0011, 0.0104, 0.0104, -16.35, -16.15)" gradientUnits="userSpaceOnUse" id="gradient3" spreadMethod="pad" x1="-819.2" x2="819.2">
      <stop offset="0.0" stop-color="#a632cd"/>
      <stop offset="0.3176470588235294" stop-color="#830f9f"/>
      <stop offset="0.8235294117647058" stop-color="#000000"/>
    </linearGradient>
    <linearGradient gradientTransform="matrix(0.0, -0.0016, 0.0147, 0.0, -23.1, -0.45)" gradientUnits="userSpaceOnUse" id="gradient4" spreadMethod="pad" x1="-819.2" x2="819.2">
      <stop offset="0.0" stop-color="#a632cd"/>
      <stop offset="0.3176470588235294" stop-color="#830f9f"/>
      <stop offset="0.8235294117647058" stop-color="#000000"/>
    </linearGradient>
    <linearGradient gradientTransform="matrix(0.0011, 0.0011, 0.0104, -0.0104, -16.35, 16.75)" gradientUnits="userSpaceOnUse" id="gradient5" spreadMethod="pad" x1="-819.2" x2="819.2">
      <stop offset="0.0" stop-color="#a632cd"/>
      <stop offset="0.3176470588235294" stop-color="#830f9f"/>
      <stop offset="0.8235294117647058" stop-color="#000000"/>
    </linearGradient>
  </defs>
</svg>
