<?xml version="1.0" encoding="UTF-8" standalone="no"?>
<svg xmlns:xlink="http://www.w3.org/1999/xlink" height="3.0px" width="24.45px" xmlns="http://www.w3.org/2000/svg">
  <g transform="matrix(1.0, 0.0, 0.0, 1.0, -11.65, 1.5)">
    <path d="M35.85 -0.15 L33.25 0.4 30.0 0.55 26.3 0.8 22.75 1.0 18.5 1.15 13.75 1.25 12.0 1.25 Q11.85 0.0 12.0 -1.25 L15.75 -1.25 19.6 -1.2 23.5 -1.15 27.25 -1.05 31.0 -0.7 34.6 -0.35 35.85 -0.15" fill="url(#gradient0)" fill-rule="evenodd" stroke="none"/>
    <path d="M35.85 -0.15 L33.25 0.4 30.0 0.55 26.3 0.8 22.75 1.0 18.5 1.15 13.75 1.25 12.0 1.25 Q11.85 0.0 12.0 -1.25 L15.75 -1.25 19.6 -1.2 23.5 -1.15 27.25 -1.05 31.0 -0.7 34.6 -0.35 35.85 -0.15 Z" fill="none" stroke="#000000" stroke-linecap="round" stroke-linejoin="round" stroke-width="0.5"/>
  </g>
  <defs>
    <linearGradient gradientTransform="matrix(0.0, 0.0015, -0.0146, 0.0, 23.9, -0.6)" gradientUnits="userSpaceOnUse" id="gradient0" spreadMethod="pad" x1="-819.2" x2="819.2">
      <stop offset="0.0" stop-color="#a632cd"/>
      <stop offset="0.3176470588235294" stop-color="#830f9f"/>
      <stop offset="0.8235294117647058" stop-color="#000000"/>
    </linearGradient>
  </defs>
</svg>
