<?xml version="1.0" encoding="UTF-8" standalone="no"?>
<svg xmlns:xlink="http://www.w3.org/1999/xlink" height="18.1px" width="18.35px" xmlns="http://www.w3.org/2000/svg">
  <g transform="matrix(1.0, 0.0, 0.0, 1.0, -7.5, -7.15)">
    <path d="M25.6 25.0 L23.4 23.6 21.0 21.4 18.2 18.9 15.55 16.55 12.45 13.65 9.0 10.4 7.75 9.15 Q8.55 8.15 9.5 7.4 L12.15 10.05 14.9 12.8 17.6 15.6 20.2 18.3 22.6 21.2 24.9 24.0 25.6 25.0" fill="url(#gradient0)" fill-rule="evenodd" stroke="none"/>
    <path d="M25.6 25.0 L23.4 23.6 21.0 21.4 18.2 18.9 15.55 16.55 12.45 13.65 9.0 10.4 7.75 9.15 Q8.55 8.15 9.5 7.4 L12.15 10.05 14.9 12.8 17.6 15.6 20.2 18.3 22.6 21.2 24.9 24.0 25.6 25.0 Z" fill="none" stroke="#000000" stroke-linecap="round" stroke-linejoin="round" stroke-width="0.5"/>
  </g>
  <defs>
    <linearGradient gradientTransform="matrix(-0.0011, 0.0011, -0.0103, -0.0103, 17.45, 16.25)" gradientUnits="userSpaceOnUse" id="gradient0" spreadMethod="pad" x1="-819.2" x2="819.2">
      <stop offset="0.0" stop-color="#a632cd"/>
      <stop offset="0.3176470588235294" stop-color="#830f9f"/>
      <stop offset="0.8235294117647058" stop-color="#000000"/>
    </linearGradient>
  </defs>
</svg>
