<?xml version="1.0" encoding="UTF-8" standalone="no"?>
<svg xmlns:xlink="http://www.w3.org/1999/xlink" height="18.55px" width="18.35px" xmlns="http://www.w3.org/2000/svg">
  <g transform="matrix(1.0, 0.0, 0.0, 1.0, -6.9, 25.25)">
    <path d="M25.0 -25.0 Q24.6 -24.0 23.65 -22.75 L21.5 -20.3 Q20.15 -18.95 19.1 -17.4 L16.75 -14.75 13.85 -11.65 10.6 -8.2 9.35 -6.95 7.15 -9.15 9.8 -11.8 12.6 -14.5 15.4 -17.2 18.1 -19.8 21.1 -22.1 23.95 -24.35 25.0 -25.0" fill="url(#gradient0)" fill-rule="evenodd" stroke="none"/>
    <path d="M25.0 -25.0 Q24.6 -24.0 23.65 -22.75 L21.5 -20.3 Q20.15 -18.95 19.1 -17.4 L16.75 -14.75 13.85 -11.65 10.6 -8.2 9.35 -6.95 7.15 -9.15 9.8 -11.8 12.6 -14.5 15.4 -17.2 18.1 -19.8 21.1 -22.1 23.95 -24.35 25.0 -25.0 Z" fill="none" stroke="#000000" stroke-linecap="round" stroke-linejoin="round" stroke-width="0.5"/>
  </g>
  <defs>
    <linearGradient gradientTransform="matrix(0.0013, 0.0013, -0.0103, 0.0103, 16.15, -16.95)" gradientUnits="userSpaceOnUse" id="gradient0" spreadMethod="pad" x1="-819.2" x2="819.2">
      <stop offset="0.0" stop-color="#a632cd"/>
      <stop offset="0.3176470588235294" stop-color="#830f9f"/>
      <stop offset="0.8235294117647058" stop-color="#000000"/>
    </linearGradient>
  </defs>
</svg>
