<?xml version="1.0" encoding="UTF-8" standalone="no"?>
<svg xmlns:xlink="http://www.w3.org/1999/xlink" height="3.6px" width="24.4px" xmlns="http://www.w3.org/2000/svg">
  <g transform="matrix(1.0, 0.0, 0.0, 1.0, 35.7, 1.8)">
    <path d="M-35.45 -0.2 L-32.85 0.5 -29.6 0.7 -25.9 1.0 -22.35 1.25 -18.1 1.4 -13.35 1.55 -11.6 1.55 Q-11.45 0.0 -11.6 -1.55 L-15.35 -1.55 -19.2 -1.5 -23.1 -1.45 -26.85 -1.35 -30.6 -0.9 -34.2 -0.45 -35.45 -0.2" fill="url(#gradient0)" fill-rule="evenodd" stroke="none"/>
    <path d="M-35.45 -0.2 L-32.85 0.5 -29.6 0.7 -25.9 1.0 -22.35 1.25 -18.1 1.4 -13.35 1.55 -11.6 1.55 Q-11.45 0.0 -11.6 -1.55 L-15.35 -1.55 -19.2 -1.5 -23.1 -1.45 -26.85 -1.35 -30.6 -0.9 -34.2 -0.45 -35.45 -0.2 Z" fill="none" stroke="#000000" stroke-linecap="round" stroke-linejoin="round" stroke-width="0.5"/>
  </g>
  <defs>
    <linearGradient gradientTransform="matrix(0.0, 0.0019, 0.0146, 0.0, -23.5, -0.75)" gradientUnits="userSpaceOnUse" id="gradient0" spreadMethod="pad" x1="-819.2" x2="819.2">
      <stop offset="0.0" stop-color="#a632cd"/>
      <stop offset="0.3176470588235294" stop-color="#830f9f"/>
      <stop offset="0.8235294117647058" stop-color="#000000"/>
    </linearGradient>
  </defs>
</svg>
