<?xml version="1.0" encoding="UTF-8" standalone="no"?>
<svg xmlns:xlink="http://www.w3.org/1999/xlink" height="23.45px" width="13.35px" xmlns="http://www.w3.org/2000/svg">
  <g transform="matrix(1.0, 0.0, 0.0, 1.0, 19.55, 29.75)">
    <path d="M-8.2 -6.55 L-6.45 -9.35 -9.6 -11.55 Q-11.2 -12.7 -12.65 -14.0 -13.9 -15.0 -14.8 -16.4 L-16.45 -19.5 Q-17.15 -21.1 -17.25 -22.95 -17.3 -24.8 -16.95 -26.6 -16.5 -28.2 -15.35 -29.5 -17.05 -28.55 -18.15 -26.75 -19.2 -25.3 -19.25 -23.7 L-19.2 -20.65 Q-19.0 -18.75 -18.4 -16.55 -17.95 -14.8 -16.85 -13.35 -15.6 -11.8 -13.85 -10.55 L-10.5 -8.15 -8.2 -6.55" fill="url(#gradient0)" fill-rule="evenodd" stroke="none"/>
    <path d="M-8.2 -6.55 L-6.45 -9.35 -9.6 -11.55 Q-11.2 -12.7 -12.65 -14.0 -13.9 -15.0 -14.8 -16.4 L-16.45 -19.5 Q-17.15 -21.1 -17.25 -22.95 -17.3 -24.8 -16.95 -26.6 -16.5 -28.2 -15.35 -29.5 -17.05 -28.55 -18.15 -26.75 -19.2 -25.3 -19.25 -23.7 L-19.2 -20.65 Q-19.0 -18.75 -18.4 -16.55 -17.95 -14.8 -16.85 -13.35 -15.6 -11.8 -13.85 -10.55 L-10.5 -8.15 -8.2 -6.55 Z" fill="none" stroke="#000000" stroke-linecap="round" stroke-linejoin="round" stroke-width="0.5"/>
  </g>
  <defs>
    <linearGradient gradientTransform="matrix(-0.0052, 0.0074, 0.0099, 0.0069, -12.15, -18.25)" gradientUnits="userSpaceOnUse" id="gradient0" spreadMethod="pad" x1="-819.2" x2="819.2">
      <stop offset="0.0" stop-color="#a632cd"/>
      <stop offset="0.3176470588235294" stop-color="#830f9f"/>
      <stop offset="0.8235294117647058" stop-color="#000000"/>
    </linearGradient>
  </defs>
</svg>
