<?xml version="1.0" encoding="UTF-8" standalone="no"?>
<svg xmlns:xlink="http://www.w3.org/1999/xlink" height="24.35px" width="11.15px" xmlns="http://www.w3.org/2000/svg">
  <g transform="matrix(1.0, 0.0, 0.0, 1.0, -7.0, 30.7)">
    <path d="M9.5 -6.6 L7.25 -9.05 10.0 -11.8 12.6 -14.7 Q13.6 -15.9 14.25 -17.45 15.0 -19.1 15.4 -20.8 15.75 -22.45 15.55 -24.35 15.25 -26.15 14.55 -27.85 13.95 -29.35 12.55 -30.45 14.35 -29.85 15.8 -28.2 17.05 -26.95 17.4 -25.4 L17.85 -22.45 17.8 -18.2 Q17.65 -16.45 16.8 -14.8 15.85 -13.05 14.35 -11.55 L11.45 -8.55 9.5 -6.6" fill="url(#gradient0)" fill-rule="evenodd" stroke="none"/>
    <path d="M9.5 -6.6 L7.25 -9.05 10.0 -11.8 12.6 -14.7 Q13.6 -15.9 14.25 -17.45 15.0 -19.1 15.4 -20.8 15.75 -22.45 15.55 -24.35 15.25 -26.15 14.55 -27.85 13.95 -29.35 12.55 -30.45 14.35 -29.85 15.8 -28.2 17.05 -26.95 17.4 -25.4 L17.85 -22.45 17.8 -18.2 Q17.65 -16.45 16.8 -14.8 15.85 -13.05 14.35 -11.55 L11.45 -8.55 9.5 -6.6 Z" fill="none" stroke="#000000" stroke-linecap="round" stroke-linejoin="round" stroke-width="0.5"/>
  </g>
  <defs>
    <linearGradient gradientTransform="matrix(0.0064, 0.0064, -0.0085, 0.0085, 11.3, -18.8)" gradientUnits="userSpaceOnUse" id="gradient0" spreadMethod="pad" x1="-819.2" x2="819.2">
      <stop offset="0.0" stop-color="#a632cd"/>
      <stop offset="0.3176470588235294" stop-color="#830f9f"/>
      <stop offset="0.8235294117647058" stop-color="#000000"/>
    </linearGradient>
  </defs>
</svg>
