<?xml version="1.0" encoding="UTF-8" standalone="no"?>
<svg xmlns:xlink="http://www.w3.org/1999/xlink" height="15.3px" width="20.25px" xmlns="http://www.w3.org/2000/svg">
  <g transform="matrix(1.0, 0.0, 0.0, 1.0, -11.6, 13.1)">
    <path d="M11.85 1.85 Q11.85 0.25 12.0 -1.45 L15.85 -1.45 19.75 -1.65 22.85 -2.4 Q24.6 -3.1 26.05 -4.0 27.5 -4.9 28.65 -6.4 29.75 -7.85 30.45 -9.55 31.05 -11.05 30.85 -12.85 31.7 -11.1 31.6 -8.95 31.55 -7.2 30.75 -5.85 29.95 -4.55 28.95 -3.4 L25.9 -0.45 Q24.55 0.7 22.8 1.25 L18.75 1.8 14.6 1.9 11.85 1.85" fill="url(#gradient0)" fill-rule="evenodd" stroke="none"/>
    <path d="M11.85 1.85 Q11.85 0.25 12.0 -1.45 L15.85 -1.45 19.75 -1.65 22.85 -2.4 Q24.6 -3.1 26.05 -4.0 27.5 -4.9 28.65 -6.4 29.75 -7.85 30.45 -9.55 31.05 -11.05 30.85 -12.85 31.7 -11.1 31.6 -8.95 31.55 -7.2 30.75 -5.85 29.95 -4.55 28.95 -3.4 L25.9 -0.45 Q24.55 0.7 22.8 1.25 L18.75 1.8 14.6 1.9 11.85 1.85 Z" fill="none" stroke="#000000" stroke-linecap="round" stroke-linejoin="round" stroke-width="0.5"/>
  </g>
  <defs>
    <linearGradient gradientTransform="matrix(0.0, 0.009, -0.0121, 0.0, 21.75, -5.45)" gradientUnits="userSpaceOnUse" id="gradient0" spreadMethod="pad" x1="-819.2" x2="819.2">
      <stop offset="0.0" stop-color="#a632cd"/>
      <stop offset="0.3176470588235294" stop-color="#830f9f"/>
      <stop offset="0.8235294117647058" stop-color="#000000"/>
    </linearGradient>
  </defs>
</svg>
