<?xml version="1.0" encoding="UTF-8" standalone="no"?>
<svg xmlns:xlink="http://www.w3.org/1999/xlink" height="207.45px" width="215.4px" xmlns="http://www.w3.org/2000/svg">
  <g transform="matrix(1.0, 0.0, 0.0, 1.0, 128.5, 46.55)">
    <path d="M61.95 -46.3 L86.9 -44.4 Q67.7 -24.05 46.9 -5.5 25.4 13.7 7.65 37.35 -7.95 58.2 -24.5 78.45 -30.85 86.25 -37.85 93.7 L-41.25 97.4 Q-51.25 108.2 -60.55 120.05 L-67.75 129.0 Q-72.45 134.7 -77.3 140.2 L-81.9 145.85 Q-89.45 155.75 -99.95 160.7 -101.0 161.2 -102.25 160.4 -110.15 155.2 -113.9 146.1 -117.4 137.6 -120.4 129.0 L-125.95 111.85 Q-129.35 100.35 -128.25 88.15 -127.65 81.6 -125.4 75.5 -121.95 66.25 -119.55 56.85 -117.05 47.0 -111.75 38.6 -102.0 16.7 -86.5 -1.75 -78.05 -11.8 -70.4 -22.45 -60.95 -35.55 -48.7 -46.3 L-19.95 -44.65 Q-11.25 -44.45 -3.5 -42.8 9.7 -40.0 22.35 -42.25 37.7 -44.95 52.75 -46.4 56.4 -46.75 61.95 -46.3" fill="#3300cc" fill-rule="evenodd" stroke="none"/>
  </g>
</svg>
