<?xml version="1.0" encoding="UTF-8" standalone="no"?>
<svg xmlns:xlink="http://www.w3.org/1999/xlink" height="24.35px" width="11.15px" xmlns="http://www.w3.org/2000/svg">
  <g transform="matrix(1.0, 0.0, 0.0, 1.0, 17.75, 30.7)">
    <path d="M-9.1 -6.6 L-6.85 -9.05 -9.6 -11.8 -12.2 -14.7 Q-13.2 -15.9 -13.85 -17.45 L-15.0 -20.8 Q-15.35 -22.45 -15.15 -24.35 -14.85 -26.15 -14.15 -27.85 -13.55 -29.35 -12.15 -30.45 -13.95 -29.85 -15.4 -28.2 -16.65 -26.95 -17.0 -25.4 L-17.45 -22.45 -17.4 -18.2 Q-17.25 -16.45 -16.4 -14.8 -15.45 -13.05 -13.95 -11.55 L-11.05 -8.55 -9.1 -6.6" fill="url(#gradient0)" fill-rule="evenodd" stroke="none"/>
    <path d="M-9.1 -6.6 L-6.85 -9.05 -9.6 -11.8 -12.2 -14.7 Q-13.2 -15.9 -13.85 -17.45 L-15.0 -20.8 Q-15.35 -22.45 -15.15 -24.35 -14.85 -26.15 -14.15 -27.85 -13.55 -29.35 -12.15 -30.45 -13.95 -29.85 -15.4 -28.2 -16.65 -26.95 -17.0 -25.4 L-17.45 -22.45 -17.4 -18.2 Q-17.25 -16.45 -16.4 -14.8 -15.45 -13.05 -13.95 -11.55 L-11.05 -8.55 -9.1 -6.6 Z" fill="none" stroke="#000000" stroke-linecap="round" stroke-linejoin="round" stroke-width="0.5"/>
  </g>
  <defs>
    <linearGradient gradientTransform="matrix(-0.0064, 0.0064, 0.0085, 0.0085, -10.9, -18.8)" gradientUnits="userSpaceOnUse" id="gradient0" spreadMethod="pad" x1="-819.2" x2="819.2">
      <stop offset="0.0" stop-color="#a632cd"/>
      <stop offset="0.3176470588235294" stop-color="#830f9f"/>
      <stop offset="0.8235294117647058" stop-color="#000000"/>
    </linearGradient>
  </defs>
</svg>
