<?xml version="1.0" encoding="UTF-8" standalone="no"?>
<svg xmlns:xlink="http://www.w3.org/1999/xlink" height="11.15px" width="24.35px" xmlns="http://www.w3.org/2000/svg">
  <g transform="matrix(1.0, 0.0, 0.0, 1.0, 30.9, -7.0)">
    <path d="M-6.8 9.5 L-9.25 7.25 -12.0 10.0 -14.9 12.6 Q-16.1 13.6 -17.65 14.25 L-21.0 15.4 -24.55 15.55 Q-26.35 15.25 -28.05 14.55 -29.55 13.9 -30.65 12.55 -30.05 14.35 -28.4 15.8 -27.15 17.05 -25.6 17.4 L-22.65 17.85 -18.4 17.8 Q-16.65 17.65 -15.0 16.8 -13.25 15.85 -11.75 14.35 L-8.75 11.45 -6.8 9.5" fill="url(#gradient0)" fill-rule="evenodd" stroke="none"/>
    <path d="M-6.8 9.5 L-9.25 7.25 -12.0 10.0 -14.9 12.6 Q-16.1 13.6 -17.65 14.25 L-21.0 15.4 -24.55 15.55 Q-26.35 15.25 -28.05 14.55 -29.55 13.9 -30.65 12.55 -30.05 14.35 -28.4 15.8 -27.15 17.05 -25.6 17.4 L-22.65 17.85 -18.4 17.8 Q-16.65 17.65 -15.0 16.8 -13.25 15.85 -11.75 14.35 L-8.75 11.45 -6.8 9.5 Z" fill="none" stroke="#000000" stroke-linecap="round" stroke-linejoin="round" stroke-width="0.5"/>
  </g>
  <defs>
    <linearGradient gradientTransform="matrix(0.0064, 0.0064, 0.0085, -0.0085, -19.0, 11.3)" gradientUnits="userSpaceOnUse" id="gradient0" spreadMethod="pad" x1="-819.2" x2="819.2">
      <stop offset="0.0" stop-color="#a632cd"/>
      <stop offset="0.3176470588235294" stop-color="#830f9f"/>
      <stop offset="0.8235294117647058" stop-color="#000000"/>
    </linearGradient>
  </defs>
</svg>
