<?xml version="1.0" encoding="UTF-8" standalone="no"?>
<svg xmlns:xlink="http://www.w3.org/1999/xlink" height="20.8px" width="16.75px" xmlns="http://www.w3.org/2000/svg">
  <g transform="matrix(1.0, 0.0, 0.0, 1.0, -11.45, 19.2)">
    <path d="M12.75 1.35 L11.7 -1.8 15.35 -3.1 18.95 -4.65 Q20.4 -5.3 21.6 -6.4 L24.05 -9.0 Q25.15 -10.35 25.65 -12.15 26.2 -13.85 26.3 -15.7 26.3 -17.3 25.55 -18.95 26.95 -17.6 27.6 -15.55 28.15 -13.9 27.85 -12.3 L27.0 -9.4 25.15 -5.6 Q24.25 -4.05 22.8 -2.95 21.2 -1.8 19.15 -1.05 L15.3 0.45 Q13.95 1.1 12.75 1.35" fill="url(#gradient0)" fill-rule="evenodd" stroke="none"/>
    <path d="M12.75 1.35 L11.7 -1.8 15.35 -3.1 18.95 -4.65 Q20.4 -5.3 21.6 -6.4 L24.05 -9.0 Q25.15 -10.35 25.65 -12.15 26.2 -13.85 26.3 -15.7 26.3 -17.3 25.55 -18.95 26.95 -17.6 27.6 -15.55 28.15 -13.9 27.85 -12.3 L27.0 -9.4 25.15 -5.6 Q24.25 -4.05 22.8 -2.95 21.2 -1.8 19.15 -1.05 L15.3 0.45 Q13.95 1.1 12.75 1.35 Z" fill="none" stroke="#000000" stroke-linecap="round" stroke-linejoin="round" stroke-width="0.5"/>
  </g>
  <defs>
    <linearGradient gradientTransform="matrix(0.0031, 0.0085, -0.0113, 0.0041, 19.55, -8.9)" gradientUnits="userSpaceOnUse" id="gradient0" spreadMethod="pad" x1="-819.2" x2="819.2">
      <stop offset="0.0" stop-color="#a632cd"/>
      <stop offset="0.3176470588235294" stop-color="#830f9f"/>
      <stop offset="0.8235294117647058" stop-color="#000000"/>
    </linearGradient>
  </defs>
</svg>
