<?xml version="1.0" encoding="UTF-8" standalone="no"?>
<svg xmlns:xlink="http://www.w3.org/1999/xlink" height="10.0px" width="23.95px" xmlns="http://www.w3.org/2000/svg">
  <g transform="matrix(1.0, 0.0, 0.0, 1.0, -8.0, -4.15)">
    <path d="M8.25 9.75 L9.75 6.8 13.25 8.45 16.85 9.9 Q18.35 10.45 20.0 10.55 L23.6 10.45 Q25.3 10.2 26.95 9.35 28.6 8.5 29.9 7.25 31.1 6.15 31.7 4.4 31.7 6.4 30.7 8.3 29.9 9.85 28.65 10.75 L25.95 12.2 Q24.15 13.0 21.95 13.6 L18.45 13.8 Q16.45 13.5 14.5 12.6 12.6 11.7 10.7 10.95 9.3 10.35 8.25 9.75" fill="url(#gradient0)" fill-rule="evenodd" stroke="none"/>
    <path d="M8.25 9.75 L9.75 6.8 13.25 8.45 16.85 9.9 Q18.35 10.45 20.0 10.55 L23.6 10.45 Q25.3 10.2 26.95 9.35 28.6 8.5 29.9 7.25 31.1 6.15 31.7 4.4 31.7 6.4 30.7 8.3 29.9 9.85 28.65 10.75 L25.95 12.2 Q24.15 13.0 21.95 13.6 L18.45 13.8 Q16.45 13.5 14.5 12.6 12.6 11.7 10.7 10.95 9.3 10.35 8.25 9.75 Z" fill="none" stroke="#000000" stroke-linecap="round" stroke-linejoin="round" stroke-width="0.5"/>
  </g>
  <defs>
    <linearGradient gradientTransform="matrix(-0.0038, 0.0082, -0.0109, -0.0051, 20.3, 7.25)" gradientUnits="userSpaceOnUse" id="gradient0" spreadMethod="pad" x1="-819.2" x2="819.2">
      <stop offset="0.0" stop-color="#a632cd"/>
      <stop offset="0.3176470588235294" stop-color="#830f9f"/>
      <stop offset="0.8235294117647058" stop-color="#000000"/>
    </linearGradient>
  </defs>
</svg>
