<?xml version="1.0" encoding="UTF-8" standalone="no"?>
<svg xmlns:xlink="http://www.w3.org/1999/xlink" height="10.0px" width="23.95px" xmlns="http://www.w3.org/2000/svg">
  <g transform="matrix(1.0, 0.0, 0.0, 1.0, 31.55, -4.15)">
    <path d="M-7.85 9.75 L-9.35 6.8 -12.85 8.45 -16.45 9.9 -19.6 10.55 -23.2 10.45 Q-24.9 10.2 -26.55 9.35 -28.2 8.5 -29.5 7.25 -30.7 6.15 -31.3 4.4 -31.3 6.4 -30.3 8.3 -29.5 9.85 -28.25 10.75 L-25.55 12.2 Q-23.75 13.0 -21.55 13.6 L-18.05 13.8 Q-16.05 13.5 -14.1 12.6 -12.2 11.7 -10.3 10.95 L-7.85 9.75" fill="url(#gradient0)" fill-rule="evenodd" stroke="none"/>
    <path d="M-7.85 9.75 L-9.35 6.8 -12.85 8.45 -16.45 9.9 -19.6 10.55 -23.2 10.45 Q-24.9 10.2 -26.55 9.35 -28.2 8.5 -29.5 7.25 -30.7 6.15 -31.3 4.4 -31.3 6.4 -30.3 8.3 -29.5 9.85 -28.25 10.75 L-25.55 12.2 Q-23.75 13.0 -21.55 13.6 L-18.05 13.8 Q-16.05 13.5 -14.1 12.6 -12.2 11.7 -10.3 10.95 L-7.85 9.75 Z" fill="none" stroke="#000000" stroke-linecap="round" stroke-linejoin="round" stroke-width="0.5"/>
  </g>
  <defs>
    <linearGradient gradientTransform="matrix(0.0038, 0.0082, 0.0109, -0.0051, -19.9, 7.25)" gradientUnits="userSpaceOnUse" id="gradient0" spreadMethod="pad" x1="-819.2" x2="819.2">
      <stop offset="0.0" stop-color="#a632cd"/>
      <stop offset="0.3176470588235294" stop-color="#830f9f"/>
      <stop offset="0.8235294117647058" stop-color="#000000"/>
    </linearGradient>
  </defs>
</svg>
