<?xml version="1.0" encoding="UTF-8" standalone="no"?>
<svg xmlns:xlink="http://www.w3.org/1999/xlink" height="14.3px" width="8.2px" xmlns="http://www.w3.org/2000/svg">
  <g transform="matrix(1.0, 0.0, 0.0, 1.0, -5.35, 21.4)">
    <path d="M6.65 -7.35 L5.6 -9.05 7.45 -10.4 9.35 -11.85 10.6 -13.25 11.65 -15.15 12.05 -17.2 11.85 -19.35 Q11.65 -20.35 10.95 -21.15 11.95 -20.6 12.6 -19.5 13.25 -18.6 13.3 -17.65 L13.25 -15.85 12.75 -13.35 Q12.5 -12.35 11.85 -11.45 11.05 -10.55 10.0 -9.8 L8.0 -8.3 6.65 -7.35" fill="url(#gradient0)" fill-rule="evenodd" stroke="none"/>
    <path d="M6.65 -7.35 L5.6 -9.05 7.45 -10.4 9.35 -11.85 10.6 -13.25 11.65 -15.15 12.05 -17.2 11.85 -19.35 Q11.65 -20.35 10.95 -21.15 11.95 -20.6 12.6 -19.5 13.25 -18.6 13.3 -17.65 L13.25 -15.85 12.75 -13.35 Q12.5 -12.35 11.85 -11.45 11.05 -10.55 10.0 -9.8 L8.0 -8.3 6.65 -7.35 Z" fill="none" stroke="#000000" stroke-linecap="round" stroke-linejoin="round" stroke-width="0.5"/>
  </g>
  <defs>
    <linearGradient gradientTransform="matrix(0.0031, 0.0044, -0.0059, 0.0042, 9.0, -14.4)" gradientUnits="userSpaceOnUse" id="gradient0" spreadMethod="pad" x1="-819.2" x2="819.2">
      <stop offset="0.0" stop-color="#a632cd"/>
      <stop offset="0.3176470588235294" stop-color="#830f9f"/>
      <stop offset="0.8235294117647058" stop-color="#000000"/>
    </linearGradient>
  </defs>
</svg>
